g object

v  0.000000 16.000000 0.000000
v  0.000000 15.692564 3.121445
v  3.121445 15.692564 0.000000
v  0.000000 14.782072 6.122935
v  3.180110 15.354928 3.180110
v  6.122935 14.782072 0.000000
v  0.000000 13.303514 8.889124
v  3.341546 14.245121 6.473841
v  0.000000 11.313708 11.313708
v  3.381198 12.618802 9.237604
v  6.531973 13.063946 6.531973
v  6.473841 14.245121 3.341546
v  8.889124 13.303514 0.000000
v  9.237604 12.618802 3.381198
v  11.313708 11.313708 0.000000
v  0.000000 8.889124 13.303514
v  3.381198 9.237604 12.618802
v  0.000000 6.122935 14.782072
v  3.341546 6.473841 14.245121
v  6.531973 6.531973 13.063946
v  0.000000 3.121445 15.692564
v  3.180110 3.180110 15.354928
v  0.000000 0.000000 16.000000
v  3.121445 0.000000 15.692564
v  6.122935 0.000000 14.782072
v  6.473841 3.341546 14.245121
v  9.237604 3.381198 12.618802
v  8.889124 0.000000 13.303514
v  11.313708 0.000000 11.313708
v  12.618802 9.237604 3.381198
v  10.233634 10.233634 6.822423
v  13.063946 6.531973 6.531973
v  6.822423 10.233634 10.233634
v  10.233634 6.822423 10.233634
v  12.618802 3.381198 9.237604
v  13.303514 8.889124 0.000000
v  14.245121 6.473841 3.341546
v  14.782072 6.122935 0.000000
v  14.245121 3.341546 6.473841
v  13.303514 0.000000 8.889124
v  14.782072 0.000000 6.122935
v  15.354928 3.180110 3.180110
v  15.692564 3.121445 0.000000
v  15.692564 0.000000 3.121445
v  16.000000 0.000000 0.000000
v  -16.000000 0.000000 0.000000
v  -15.692564 0.000000 3.121445
v  -15.692564 3.121445 0.000000
v  -14.782072 0.000000 6.122935
v  -15.354928 3.180110 3.180110
v  -14.782072 6.122935 0.000000
v  -13.303514 0.000000 8.889124
v  -14.245121 3.341546 6.473841
v  -11.313708 0.000000 11.313708
v  -12.618802 3.381198 9.237604
v  -13.063946 6.531973 6.531973
v  -14.245121 6.473841 3.341546
v  -13.303514 8.889124 0.000000
v  -12.618802 9.237604 3.381198
v  -11.313708 11.313708 0.000000
v  -8.889124 0.000000 13.303514
v  -9.237604 3.381198 12.618802
v  -6.122935 0.000000 14.782072
v  -6.473841 3.341546 14.245121
v  -6.531973 6.531973 13.063946
v  -3.121445 0.000000 15.692564
v  -3.180110 3.180110 15.354928
v  -3.341546 6.473841 14.245121
v  -3.381198 9.237604 12.618802
v  -9.237604 12.618802 3.381198
v  -10.233634 10.233634 6.822423
v  -6.531973 13.063946 6.531973
v  -10.233634 6.822423 10.233634
v  -6.822423 10.233634 10.233634
v  -3.381198 12.618802 9.237604
v  -8.889124 13.303514 0.000000
v  -6.473841 14.245121 3.341546
v  -6.122935 14.782072 0.000000
v  -3.341546 14.245121 6.473841
v  -3.180110 15.354928 3.180110
v  -3.121445 15.692564 0.000000
v  0.000000 -16.000000 0.000000
v  0.000000 -15.692564 3.121445
v  -3.121445 -15.692564 0.000000
v  0.000000 -14.782072 6.122935
v  -3.180110 -15.354928 3.180110
v  -6.122935 -14.782072 0.000000
v  0.000000 -13.303514 8.889124
v  -3.341546 -14.245121 6.473841
v  0.000000 -11.313708 11.313708
v  -3.381198 -12.618802 9.237604
v  -6.531973 -13.063946 6.531973
v  -6.473841 -14.245121 3.341546
v  -8.889124 -13.303514 0.000000
v  -9.237604 -12.618802 3.381198
v  -11.313708 -11.313708 0.000000
v  0.000000 -8.889124 13.303514
v  -3.381198 -9.237604 12.618802
v  0.000000 -6.122935 14.782072
v  -3.341546 -6.473841 14.245121
v  -6.531973 -6.531973 13.063946
v  0.000000 -3.121445 15.692564
v  -3.180110 -3.180110 15.354928
v  -6.473841 -3.341546 14.245121
v  -9.237604 -3.381198 12.618802
v  -12.618802 -9.237604 3.381198
v  -10.233634 -10.233634 6.822423
v  -13.063946 -6.531973 6.531973
v  -6.822423 -10.233634 10.233634
v  -10.233634 -6.822423 10.233634
v  -12.618802 -3.381198 9.237604
v  -13.303514 -8.889124 0.000000
v  -14.245121 -6.473841 3.341546
v  -14.782072 -6.122935 0.000000
v  -14.245121 -3.341546 6.473841
v  -15.354928 -3.180110 3.180110
v  -15.692564 -3.121445 0.000000
v  15.692564 -3.121445 0.000000
v  15.354928 -3.180110 3.180110
v  14.782072 -6.122935 0.000000
v  14.245121 -3.341546 6.473841
v  12.618802 -3.381198 9.237604
v  13.063946 -6.531973 6.531973
v  14.245121 -6.473841 3.341546
v  13.303514 -8.889124 0.000000
v  12.618802 -9.237604 3.381198
v  11.313708 -11.313708 0.000000
v  9.237604 -3.381198 12.618802
v  6.473841 -3.341546 14.245121
v  6.531973 -6.531973 13.063946
v  3.180110 -3.180110 15.354928
v  3.341546 -6.473841 14.245121
v  3.381198 -9.237604 12.618802
v  9.237604 -12.618802 3.381198
v  10.233634 -10.233634 6.822423
v  6.531973 -13.063946 6.531973
v  10.233634 -6.822423 10.233634
v  6.822423 -10.233634 10.233634
v  3.381198 -12.618802 9.237604
v  8.889124 -13.303514 0.000000
v  6.473841 -14.245121 3.341546
v  6.122935 -14.782072 0.000000
v  3.341546 -14.245121 6.473841
v  3.180110 -15.354928 3.180110
v  3.121445 -15.692564 0.000000
v  0.000000 0.000000 -16.000000
v  0.000000 3.121445 -15.692564
v  3.121445 0.000000 -15.692564
v  0.000000 6.122935 -14.782072
v  3.180110 3.180110 -15.354928
v  6.122935 0.000000 -14.782072
v  0.000000 8.889124 -13.303514
v  3.341546 6.473841 -14.245121
v  0.000000 11.313708 -11.313708
v  3.381198 9.237604 -12.618802
v  6.531973 6.531973 -13.063946
v  6.473841 3.341546 -14.245121
v  8.889124 0.000000 -13.303514
v  9.237604 3.381198 -12.618802
v  11.313708 0.000000 -11.313708
v  0.000000 13.303514 -8.889124
v  3.381198 12.618802 -9.237604
v  0.000000 14.782072 -6.122935
v  3.341546 14.245121 -6.473841
v  6.531973 13.063946 -6.531973
v  0.000000 15.692564 -3.121445
v  3.180110 15.354928 -3.180110
v  6.473841 14.245121 -3.341546
v  9.237604 12.618802 -3.381198
v  12.618802 3.381198 -9.237604
v  10.233634 6.822423 -10.233634
v  13.063946 6.531973 -6.531973
v  6.822423 10.233634 -10.233634
v  10.233634 10.233634 -6.822423
v  12.618802 9.237604 -3.381198
v  13.303514 0.000000 -8.889124
v  14.245121 3.341546 -6.473841
v  14.782072 0.000000 -6.122935
v  14.245121 6.473841 -3.341546
v  15.354928 3.180110 -3.180110
v  15.692564 0.000000 -3.121445
v  -3.121445 0.000000 -15.692564
v  -6.122935 0.000000 -14.782072
v  -3.180110 3.180110 -15.354928
v  -8.889124 0.000000 -13.303514
v  -6.473841 3.341546 -14.245121
v  -11.313708 0.000000 -11.313708
v  -9.237604 3.381198 -12.618802
v  -6.531973 6.531973 -13.063946
v  -3.341546 6.473841 -14.245121
v  -3.381198 9.237604 -12.618802
v  -13.303514 0.000000 -8.889124
v  -12.618802 3.381198 -9.237604
v  -14.782072 0.000000 -6.122935
v  -14.245121 3.341546 -6.473841
v  -13.063946 6.531973 -6.531973
v  -15.692564 0.000000 -3.121445
v  -15.354928 3.180110 -3.180110
v  -14.245121 6.473841 -3.341546
v  -12.618802 9.237604 -3.381198
v  -3.381198 12.618802 -9.237604
v  -6.822423 10.233634 -10.233634
v  -6.531973 13.063946 -6.531973
v  -10.233634 6.822423 -10.233634
v  -10.233634 10.233634 -6.822423
v  -9.237604 12.618802 -3.381198
v  -3.341546 14.245121 -6.473841
v  -6.473841 14.245121 -3.341546
v  -3.180110 15.354928 -3.180110
v  0.000000 -3.121445 -15.692564
v  0.000000 -6.122935 -14.782072
v  -3.180110 -3.180110 -15.354928
v  0.000000 -8.889124 -13.303514
v  -3.341546 -6.473841 -14.245121
v  0.000000 -11.313708 -11.313708
v  -3.381198 -9.237604 -12.618802
v  -6.531973 -6.531973 -13.063946
v  -6.473841 -3.341546 -14.245121
v  -9.237604 -3.381198 -12.618802
v  0.000000 -13.303514 -8.889124
v  -3.381198 -12.618802 -9.237604
v  0.000000 -14.782072 -6.122935
v  -3.341546 -14.245121 -6.473841
v  -6.531973 -13.063946 -6.531973
v  0.000000 -15.692564 -3.121445
v  -3.180110 -15.354928 -3.180110
v  -6.473841 -14.245121 -3.341546
v  -9.237604 -12.618802 -3.381198
v  -12.618802 -3.381198 -9.237604
v  -10.233634 -6.822423 -10.233634
v  -13.063946 -6.531973 -6.531973
v  -6.822423 -10.233634 -10.233634
v  -10.233634 -10.233634 -6.822423
v  -12.618802 -9.237604 -3.381198
v  -14.245121 -3.341546 -6.473841
v  -14.245121 -6.473841 -3.341546
v  -15.354928 -3.180110 -3.180110
v  3.180110 -3.180110 -15.354928
v  6.473841 -3.341546 -14.245121
v  9.237604 -3.381198 -12.618802
v  6.531973 -6.531973 -13.063946
v  3.341546 -6.473841 -14.245121
v  3.381198 -9.237604 -12.618802
v  12.618802 -3.381198 -9.237604
v  14.245121 -3.341546 -6.473841
v  13.063946 -6.531973 -6.531973
v  15.354928 -3.180110 -3.180110
v  14.245121 -6.473841 -3.341546
v  12.618802 -9.237604 -3.381198
v  3.381198 -12.618802 -9.237604
v  6.822423 -10.233634 -10.233634
v  6.531973 -13.063946 -6.531973
v  10.233634 -6.822423 -10.233634
v  10.233634 -10.233634 -6.822423
v  9.237604 -12.618802 -3.381198
v  3.341546 -14.245121 -6.473841
v  6.473841 -14.245121 -3.341546
v  3.180110 -15.354928 -3.180110
vn 0.000000 1.000000 0.000000
vn 0.000000 0.980785 0.195090
vn 0.195090 0.980785 0.000000
vn 0.000000 0.923880 0.382683
vn 0.198757 0.959683 0.198757
vn 0.382683 0.923880 0.000000
vn 0.000000 0.831470 0.555570
vn 0.208847 0.890320 0.404615
vn 0.000000 0.707107 0.707107
vn 0.211325 0.788675 0.577350
vn 0.408248 0.816497 0.408248
vn 0.404615 0.890320 0.208847
vn 0.555570 0.831470 0.000000
vn 0.577350 0.788675 0.211325
vn 0.707107 0.707107 0.000000
vn 0.000000 0.555570 0.831470
vn 0.211325 0.577350 0.788675
vn 0.000000 0.382683 0.923880
vn 0.208847 0.404615 0.890320
vn 0.408248 0.408248 0.816497
vn 0.000000 0.195090 0.980785
vn 0.198757 0.198757 0.959683
vn 0.000000 0.000000 1.000000
vn 0.195090 0.000000 0.980785
vn 0.382683 0.000000 0.923880
vn 0.404615 0.208847 0.890320
vn 0.577350 0.211325 0.788675
vn 0.555570 0.000000 0.831470
vn 0.707107 0.000000 0.707107
vn 0.788675 0.577350 0.211325
vn 0.639602 0.639602 0.426401
vn 0.816497 0.408248 0.408248
vn 0.426401 0.639602 0.639602
vn 0.639602 0.426401 0.639602
vn 0.788675 0.211325 0.577350
vn 0.831470 0.555570 0.000000
vn 0.890320 0.404615 0.208847
vn 0.923880 0.382683 0.000000
vn 0.890320 0.208847 0.404615
vn 0.831470 0.000000 0.555570
vn 0.923880 0.000000 0.382683
vn 0.959683 0.198757 0.198757
vn 0.980785 0.195090 0.000000
vn 0.980785 0.000000 0.195090
vn 1.000000 0.000000 0.000000
vn -1.000000 0.000000 0.000000
vn -0.980785 0.000000 0.195090
vn -0.980785 0.195090 0.000000
vn -0.923880 0.000000 0.382683
vn -0.959683 0.198757 0.198757
vn -0.923880 0.382683 0.000000
vn -0.831470 0.000000 0.555570
vn -0.890320 0.208847 0.404615
vn -0.707107 0.000000 0.707107
vn -0.788675 0.211325 0.577350
vn -0.816497 0.408248 0.408248
vn -0.890320 0.404615 0.208847
vn -0.831470 0.555570 0.000000
vn -0.788675 0.577350 0.211325
vn -0.707107 0.707107 0.000000
vn -0.555570 0.000000 0.831470
vn -0.577350 0.211325 0.788675
vn -0.382683 0.000000 0.923880
vn -0.404615 0.208847 0.890320
vn -0.408248 0.408248 0.816497
vn -0.195090 0.000000 0.980785
vn -0.198757 0.198757 0.959683
vn -0.208847 0.404615 0.890320
vn -0.211325 0.577350 0.788675
vn -0.577350 0.788675 0.211325
vn -0.639602 0.639602 0.426401
vn -0.408248 0.816497 0.408248
vn -0.639602 0.426401 0.639602
vn -0.426401 0.639602 0.639602
vn -0.211325 0.788675 0.577350
vn -0.555570 0.831470 0.000000
vn -0.404615 0.890320 0.208847
vn -0.382683 0.923880 0.000000
vn -0.208847 0.890320 0.404615
vn -0.198757 0.959683 0.198757
vn -0.195090 0.980785 0.000000
vn 0.000000 -1.000000 0.000000
vn 0.000000 -0.980785 0.195090
vn -0.195090 -0.980785 0.000000
vn 0.000000 -0.923880 0.382683
vn -0.198757 -0.959683 0.198757
vn -0.382683 -0.923880 0.000000
vn 0.000000 -0.831470 0.555570
vn -0.208847 -0.890320 0.404615
vn 0.000000 -0.707107 0.707107
vn -0.211325 -0.788675 0.577350
vn -0.408248 -0.816497 0.408248
vn -0.404615 -0.890320 0.208847
vn -0.555570 -0.831470 0.000000
vn -0.577350 -0.788675 0.211325
vn -0.707107 -0.707107 0.000000
vn 0.000000 -0.555570 0.831470
vn -0.211325 -0.577350 0.788675
vn 0.000000 -0.382683 0.923880
vn -0.208847 -0.404615 0.890320
vn -0.408248 -0.408248 0.816497
vn 0.000000 -0.195090 0.980785
vn -0.198757 -0.198757 0.959683
vn -0.404615 -0.208847 0.890320
vn -0.577350 -0.211325 0.788675
vn -0.788675 -0.577350 0.211325
vn -0.639602 -0.639602 0.426401
vn -0.816497 -0.408248 0.408248
vn -0.426401 -0.639602 0.639602
vn -0.639602 -0.426401 0.639602
vn -0.788675 -0.211325 0.577350
vn -0.831470 -0.555570 0.000000
vn -0.890320 -0.404615 0.208847
vn -0.923880 -0.382683 0.000000
vn -0.890320 -0.208847 0.404615
vn -0.959683 -0.198757 0.198757
vn -0.980785 -0.195090 0.000000
vn 0.980785 -0.195090 0.000000
vn 0.959683 -0.198757 0.198757
vn 0.923880 -0.382683 0.000000
vn 0.890320 -0.208847 0.404615
vn 0.788675 -0.211325 0.577350
vn 0.816497 -0.408248 0.408248
vn 0.890320 -0.404615 0.208847
vn 0.831470 -0.555570 0.000000
vn 0.788675 -0.577350 0.211325
vn 0.707107 -0.707107 0.000000
vn 0.577350 -0.211325 0.788675
vn 0.404615 -0.208847 0.890320
vn 0.408248 -0.408248 0.816497
vn 0.198757 -0.198757 0.959683
vn 0.208847 -0.404615 0.890320
vn 0.211325 -0.577350 0.788675
vn 0.577350 -0.788675 0.211325
vn 0.639602 -0.639602 0.426401
vn 0.408248 -0.816497 0.408248
vn 0.639602 -0.426401 0.639602
vn 0.426401 -0.639602 0.639602
vn 0.211325 -0.788675 0.577350
vn 0.555570 -0.831470 0.000000
vn 0.404615 -0.890320 0.208847
vn 0.382683 -0.923880 0.000000
vn 0.208847 -0.890320 0.404615
vn 0.198757 -0.959683 0.198757
vn 0.195090 -0.980785 0.000000
vn 0.000000 0.000000 -1.000000
vn 0.000000 0.195090 -0.980785
vn 0.195090 0.000000 -0.980785
vn 0.000000 0.382683 -0.923880
vn 0.198757 0.198757 -0.959683
vn 0.382683 0.000000 -0.923880
vn 0.000000 0.555570 -0.831470
vn 0.208847 0.404615 -0.890320
vn 0.000000 0.707107 -0.707107
vn 0.211325 0.577350 -0.788675
vn 0.408248 0.408248 -0.816497
vn 0.404615 0.208847 -0.890320
vn 0.555570 0.000000 -0.831470
vn 0.577350 0.211325 -0.788675
vn 0.707107 0.000000 -0.707107
vn 0.000000 0.831470 -0.555570
vn 0.211325 0.788675 -0.577350
vn 0.000000 0.923880 -0.382683
vn 0.208847 0.890320 -0.404615
vn 0.408248 0.816497 -0.408248
vn 0.000000 0.980785 -0.195090
vn 0.198757 0.959683 -0.198757
vn 0.404615 0.890320 -0.208847
vn 0.577350 0.788675 -0.211325
vn 0.788675 0.211325 -0.577350
vn 0.639602 0.426401 -0.639602
vn 0.816497 0.408248 -0.408248
vn 0.426401 0.639602 -0.639602
vn 0.639602 0.639602 -0.426401
vn 0.788675 0.577350 -0.211325
vn 0.831470 0.000000 -0.555570
vn 0.890320 0.208847 -0.404615
vn 0.923880 0.000000 -0.382683
vn 0.890320 0.404615 -0.208847
vn 0.959683 0.198757 -0.198757
vn 0.980785 0.000000 -0.195090
vn -0.195090 0.000000 -0.980785
vn -0.382683 0.000000 -0.923880
vn -0.198757 0.198757 -0.959683
vn -0.555570 0.000000 -0.831470
vn -0.404615 0.208847 -0.890320
vn -0.707107 0.000000 -0.707107
vn -0.577350 0.211325 -0.788675
vn -0.408248 0.408248 -0.816497
vn -0.208847 0.404615 -0.890320
vn -0.211325 0.577350 -0.788675
vn -0.831470 0.000000 -0.555570
vn -0.788675 0.211325 -0.577350
vn -0.923880 0.000000 -0.382683
vn -0.890320 0.208847 -0.404615
vn -0.816497 0.408248 -0.408248
vn -0.980785 0.000000 -0.195090
vn -0.959683 0.198757 -0.198757
vn -0.890320 0.404615 -0.208847
vn -0.788675 0.577350 -0.211325
vn -0.211325 0.788675 -0.577350
vn -0.426401 0.639602 -0.639602
vn -0.408248 0.816497 -0.408248
vn -0.639602 0.426401 -0.639602
vn -0.639602 0.639602 -0.426401
vn -0.577350 0.788675 -0.211325
vn -0.208847 0.890320 -0.404615
vn -0.404615 0.890320 -0.208847
vn -0.198757 0.959683 -0.198757
vn 0.000000 -0.195090 -0.980785
vn 0.000000 -0.382683 -0.923880
vn -0.198757 -0.198757 -0.959683
vn 0.000000 -0.555570 -0.831470
vn -0.208847 -0.404615 -0.890320
vn 0.000000 -0.707107 -0.707107
vn -0.211325 -0.577350 -0.788675
vn -0.408248 -0.408248 -0.816497
vn -0.404615 -0.208847 -0.890320
vn -0.577350 -0.211325 -0.788675
vn 0.000000 -0.831470 -0.555570
vn -0.211325 -0.788675 -0.577350
vn 0.000000 -0.923880 -0.382683
vn -0.208847 -0.890320 -0.404615
vn -0.408248 -0.816497 -0.408248
vn 0.000000 -0.980785 -0.195090
vn -0.198757 -0.959683 -0.198757
vn -0.404615 -0.890320 -0.208847
vn -0.577350 -0.788675 -0.211325
vn -0.788675 -0.211325 -0.577350
vn -0.639602 -0.426401 -0.639602
vn -0.816497 -0.408248 -0.408248
vn -0.426401 -0.639602 -0.639602
vn -0.639602 -0.639602 -0.426401
vn -0.788675 -0.577350 -0.211325
vn -0.890320 -0.208847 -0.404615
vn -0.890320 -0.404615 -0.208847
vn -0.959683 -0.198757 -0.198757
vn 0.198757 -0.198757 -0.959683
vn 0.404615 -0.208847 -0.890320
vn 0.577350 -0.211325 -0.788675
vn 0.408248 -0.408248 -0.816497
vn 0.208847 -0.404615 -0.890320
vn 0.211325 -0.577350 -0.788675
vn 0.788675 -0.211325 -0.577350
vn 0.890320 -0.208847 -0.404615
vn 0.816497 -0.408248 -0.408248
vn 0.959683 -0.198757 -0.198757
vn 0.890320 -0.404615 -0.208847
vn 0.788675 -0.577350 -0.211325
vn 0.211325 -0.788675 -0.577350
vn 0.426401 -0.639602 -0.639602
vn 0.408248 -0.816497 -0.408248
vn 0.639602 -0.426401 -0.639602
vn 0.639602 -0.639602 -0.426401
vn 0.577350 -0.788675 -0.211325
vn 0.208847 -0.890320 -0.404615
vn 0.404615 -0.890320 -0.208847
vn 0.198757 -0.959683 -0.198757
vt 0.500000 1.000000 
vt 0.500000 0.937500 
vt 0.562500 0.937500 
vt 0.500000 0.875000 
vt 0.563690 0.909306 
vt 0.625000 0.875000 
vt 0.500000 0.812500 
vt 0.566971 0.849519 
vt 0.500000 0.750000 
vt 0.567778 0.789233 
vt 0.633860 0.804087 
vt 0.632594 0.849519 
vt 0.687500 0.812500 
vt 0.695913 0.789233 
vt 0.750000 0.750000 
vt 0.500000 0.687500 
vt 0.567778 0.695913 
vt 0.500000 0.625000 
vt 0.566971 0.632594 
vt 0.633860 0.633860 
vt 0.500000 0.562500 
vt 0.563690 0.563690 
vt 0.500000 0.500000 
vt 0.562500 0.500000 
vt 0.625000 0.500000 
vt 0.632594 0.566971 
vt 0.695913 0.567778 
vt 0.687500 0.500000 
vt 0.750000 0.500000 
vt 0.789233 0.695913 
vt 0.720901 0.720901 
vt 0.804087 0.633860 
vt 0.640219 0.720901 
vt 0.720901 0.640219 
vt 0.789233 0.567778 
vt 0.812500 0.687500 
vt 0.849519 0.632594 
vt 0.875000 0.625000 
vt 0.849519 0.566971 
vt 0.812500 0.500000 
vt 0.875000 0.500000 
vt 0.909306 0.563690 
vt 0.937500 0.562500 
vt 0.937500 0.500000 
vt 1.000000 0.500000 
vt 0.000000 0.500000 
vt 0.062500 0.500000 
vt 0.062500 0.562500 
vt 0.125000 0.500000 
vt 0.090694 0.563690 
vt 0.125000 0.625000 
vt 0.187500 0.500000 
vt 0.150481 0.566971 
vt 0.250000 0.500000 
vt 0.210767 0.567778 
vt 0.195913 0.633860 
vt 0.150481 0.632594 
vt 0.187500 0.687500 
vt 0.210767 0.695913 
vt 0.250000 0.750000 
vt 0.312500 0.500000 
vt 0.304087 0.567778 
vt 0.375000 0.500000 
vt 0.367406 0.566971 
vt 0.366140 0.633860 
vt 0.437500 0.500000 
vt 0.436310 0.563690 
vt 0.433029 0.632594 
vt 0.432222 0.695913 
vt 0.304087 0.789233 
vt 0.279099 0.720901 
vt 0.366140 0.804087 
vt 0.279099 0.640219 
vt 0.359781 0.720901 
vt 0.432222 0.789233 
vt 0.312500 0.812500 
vt 0.367406 0.849519 
vt 0.375000 0.875000 
vt 0.433029 0.849519 
vt 0.436310 0.909306 
vt 0.437500 0.937500 
vt 0.500000 0.000000 
vt 0.500000 0.062500 
vt 0.437500 0.062500 
vt 0.500000 0.125000 
vt 0.436310 0.090694 
vt 0.375000 0.125000 
vt 0.500000 0.187500 
vt 0.433029 0.150481 
vt 0.500000 0.250000 
vt 0.432222 0.210767 
vt 0.366140 0.195913 
vt 0.367406 0.150481 
vt 0.312500 0.187500 
vt 0.304087 0.210767 
vt 0.250000 0.250000 
vt 0.500000 0.312500 
vt 0.432222 0.304087 
vt 0.500000 0.375000 
vt 0.433029 0.367406 
vt 0.366140 0.366140 
vt 0.500000 0.437500 
vt 0.436310 0.436310 
vt 0.367406 0.433029 
vt 0.304087 0.432222 
vt 0.210767 0.304087 
vt 0.279099 0.279099 
vt 0.195913 0.366140 
vt 0.359781 0.279099 
vt 0.279099 0.359781 
vt 0.210767 0.432222 
vt 0.187500 0.312500 
vt 0.150481 0.367406 
vt 0.125000 0.375000 
vt 0.150481 0.433029 
vt 0.090694 0.436310 
vt 0.062500 0.437500 
vt 0.937500 0.437500 
vt 0.909306 0.436310 
vt 0.875000 0.375000 
vt 0.849519 0.433029 
vt 0.789233 0.432222 
vt 0.804087 0.366140 
vt 0.849519 0.367406 
vt 0.812500 0.312500 
vt 0.789233 0.304087 
vt 0.750000 0.250000 
vt 0.695913 0.432222 
vt 0.632594 0.433029 
vt 0.633860 0.366140 
vt 0.563690 0.436310 
vt 0.566971 0.367406 
vt 0.567778 0.304087 
vt 0.695913 0.210767 
vt 0.720901 0.279099 
vt 0.633860 0.195913 
vt 0.720901 0.359781 
vt 0.640219 0.279099 
vt 0.567778 0.210767 
vt 0.687500 0.187500 
vt 0.632594 0.150481 
vt 0.625000 0.125000 
vt 0.566971 0.150481 
vt 0.563690 0.090694 
vt 0.562500 0.062500 

f 1/1/1 2/2/2 3/3/3
f 2/2/2 4/4/4 5/5/5
f 3/3/3 2/2/2 5/5/5
f 3/3/3 5/5/5 6/6/6
f 4/4/4 7/7/7 8/8/8
f 7/7/7 9/9/9 10/10/10
f 8/8/8 7/7/7 10/10/10
f 8/8/8 10/10/10 11/11/11
f 6/6/6 5/5/5 12/12/12
f 5/5/5 4/4/4 8/8/8
f 12/12/12 5/5/5 8/8/8
f 12/12/12 8/8/8 11/11/11
f 6/6/6 12/12/12 13/13/13
f 12/12/12 11/11/11 14/14/14
f 13/13/13 12/12/12 14/14/14
f 13/13/13 14/14/14 15/15/15
f 9/9/9 16/16/16 17/17/17
f 16/16/16 18/18/18 19/19/19
f 17/17/17 16/16/16 19/19/19
f 17/17/17 19/19/19 20/20/20
f 18/18/18 21/21/21 22/22/22
f 21/21/21 23/23/23 24/24/24
f 22/22/22 21/21/21 24/24/24
f 22/22/22 24/24/24 25/25/25
f 20/20/20 19/19/19 26/26/26
f 19/19/19 18/18/18 22/22/22
f 26/26/26 19/19/19 22/22/22
f 26/26/26 22/22/22 25/25/25
f 20/20/20 26/26/26 27/27/27
f 26/26/26 25/25/25 28/28/28
f 27/27/27 26/26/26 28/28/28
f 27/27/27 28/28/28 29/29/29
f 15/15/15 14/14/14 30/30/30
f 14/14/14 11/11/11 31/31/31
f 30/30/30 14/14/14 31/31/31
f 30/30/30 31/31/31 32/32/32
f 11/11/11 10/10/10 33/33/33
f 10/10/10 9/9/9 17/17/17
f 33/33/33 10/10/10 17/17/17
f 33/33/33 17/17/17 20/20/20
f 32/32/32 31/31/31 34/34/34
f 31/31/31 11/11/11 33/33/33
f 34/34/34 31/31/31 33/33/33
f 34/34/34 33/33/33 20/20/20
f 32/32/32 34/34/34 35/35/35
f 34/34/34 20/20/20 27/27/27
f 35/35/35 34/34/34 27/27/27
f 35/35/35 27/27/27 29/29/29
f 15/15/15 30/30/30 36/36/36
f 30/30/30 32/32/32 37/37/37
f 36/36/36 30/30/30 37/37/37
f 36/36/36 37/37/37 38/38/38
f 32/32/32 35/35/35 39/39/39
f 35/35/35 29/29/29 40/40/40
f 39/39/39 35/35/35 40/40/40
f 39/39/39 40/40/40 41/41/41
f 38/38/38 37/37/37 42/42/42
f 37/37/37 32/32/32 39/39/39
f 42/42/42 37/37/37 39/39/39
f 42/42/42 39/39/39 41/41/41
f 38/38/38 42/42/42 43/43/43
f 42/42/42 41/41/41 44/44/44
f 43/43/43 42/42/42 44/44/44
f 43/43/43 44/44/44 45/45/45
f 46/46/46 47/47/47 48/48/48
f 47/47/47 49/49/49 50/50/50
f 48/48/48 47/47/47 50/50/50
f 48/48/48 50/50/50 51/51/51
f 49/49/49 52/52/52 53/53/53
f 52/52/52 54/54/54 55/55/55
f 53/53/53 52/52/52 55/55/55
f 53/53/53 55/55/55 56/56/56
f 51/51/51 50/50/50 57/57/57
f 50/50/50 49/49/49 53/53/53
f 57/57/57 50/50/50 53/53/53
f 57/57/57 53/53/53 56/56/56
f 51/51/51 57/57/57 58/58/58
f 57/57/57 56/56/56 59/59/59
f 58/58/58 57/57/57 59/59/59
f 58/58/58 59/59/59 60/60/60
f 54/54/54 61/61/61 62/62/62
f 61/61/61 63/63/63 64/64/64
f 62/62/62 61/61/61 64/64/64
f 62/62/62 64/64/64 65/65/65
f 63/63/63 66/66/66 67/67/67
f 66/66/66 23/23/23 21/21/21
f 67/67/67 66/66/66 21/21/21
f 67/67/67 21/21/21 18/18/18
f 65/65/65 64/64/64 68/68/68
f 64/64/64 63/63/63 67/67/67
f 68/68/68 64/64/64 67/67/67
f 68/68/68 67/67/67 18/18/18
f 65/65/65 68/68/68 69/69/69
f 68/68/68 18/18/18 16/16/16
f 69/69/69 68/68/68 16/16/16
f 69/69/69 16/16/16 9/9/9
f 60/60/60 59/59/59 70/70/70
f 59/59/59 56/56/56 71/71/71
f 70/70/70 59/59/59 71/71/71
f 70/70/70 71/71/71 72/72/72
f 56/56/56 55/55/55 73/73/73
f 55/55/55 54/54/54 62/62/62
f 73/73/73 55/55/55 62/62/62
f 73/73/73 62/62/62 65/65/65
f 72/72/72 71/71/71 74/74/74
f 71/71/71 56/56/56 73/73/73
f 74/74/74 71/71/71 73/73/73
f 74/74/74 73/73/73 65/65/65
f 72/72/72 74/74/74 75/75/75
f 74/74/74 65/65/65 69/69/69
f 75/75/75 74/74/74 69/69/69
f 75/75/75 69/69/69 9/9/9
f 60/60/60 70/70/70 76/76/76
f 70/70/70 72/72/72 77/77/77
f 76/76/76 70/70/70 77/77/77
f 76/76/76 77/77/77 78/78/78
f 72/72/72 75/75/75 79/79/79
f 75/75/75 9/9/9 7/7/7
f 79/79/79 75/75/75 7/7/7
f 79/79/79 7/7/7 4/4/4
f 78/78/78 77/77/77 80/80/80
f 77/77/77 72/72/72 79/79/79
f 80/80/80 77/77/77 79/79/79
f 80/80/80 79/79/79 4/4/4
f 78/78/78 80/80/80 81/81/81
f 80/80/80 4/4/4 2/2/2
f 81/81/81 80/80/80 2/2/2
f 81/81/81 2/2/2 1/1/1
f 82/82/82 83/83/83 84/84/84
f 83/83/83 85/85/85 86/86/86
f 84/84/84 83/83/83 86/86/86
f 84/84/84 86/86/86 87/87/87
f 85/85/85 88/88/88 89/89/89
f 88/88/88 90/90/90 91/91/91
f 89/89/89 88/88/88 91/91/91
f 89/89/89 91/91/91 92/92/92
f 87/87/87 86/86/86 93/93/93
f 86/86/86 85/85/85 89/89/89
f 93/93/93 86/86/86 89/89/89
f 93/93/93 89/89/89 92/92/92
f 87/87/87 93/93/93 94/94/94
f 93/93/93 92/92/92 95/95/95
f 94/94/94 93/93/93 95/95/95
f 94/94/94 95/95/95 96/96/96
f 90/90/90 97/97/97 98/98/98
f 97/97/97 99/99/99 100/100/100
f 98/98/98 97/97/97 100/100/100
f 98/98/98 100/100/100 101/101/101
f 99/99/99 102/102/102 103/103/103
f 102/102/102 23/23/23 66/66/66
f 103/103/103 102/102/102 66/66/66
f 103/103/103 66/66/66 63/63/63
f 101/101/101 100/100/100 104/104/104
f 100/100/100 99/99/99 103/103/103
f 104/104/104 100/100/100 103/103/103
f 104/104/104 103/103/103 63/63/63
f 101/101/101 104/104/104 105/105/105
f 104/104/104 63/63/63 61/61/61
f 105/105/105 104/104/104 61/61/61
f 105/105/105 61/61/61 54/54/54
f 96/96/96 95/95/95 106/106/106
f 95/95/95 92/92/92 107/107/107
f 106/106/106 95/95/95 107/107/107
f 106/106/106 107/107/107 108/108/108
f 92/92/92 91/91/91 109/109/109
f 91/91/91 90/90/90 98/98/98
f 109/109/109 91/91/91 98/98/98
f 109/109/109 98/98/98 101/101/101
f 108/108/108 107/107/107 110/110/110
f 107/107/107 92/92/92 109/109/109
f 110/110/110 107/107/107 109/109/109
f 110/110/110 109/109/109 101/101/101
f 108/108/108 110/110/110 111/111/111
f 110/110/110 101/101/101 105/105/105
f 111/111/111 110/110/110 105/105/105
f 111/111/111 105/105/105 54/54/54
f 96/96/96 106/106/106 112/112/112
f 106/106/106 108/108/108 113/113/113
f 112/112/112 106/106/106 113/113/113
f 112/112/112 113/113/113 114/114/114
f 108/108/108 111/111/111 115/115/115
f 111/111/111 54/54/54 52/52/52
f 115/115/115 111/111/111 52/52/52
f 115/115/115 52/52/52 49/49/49
f 114/114/114 113/113/113 116/116/116
f 113/113/113 108/108/108 115/115/115
f 116/116/116 113/113/113 115/115/115
f 116/116/116 115/115/115 49/49/49
f 114/114/114 116/116/116 117/117/117
f 116/116/116 49/49/49 47/47/47
f 117/117/117 116/116/116 47/47/47
f 117/117/117 47/47/47 46/46/46
f 45/45/45 44/44/44 118/118/118
f 44/44/44 41/41/41 119/119/119
f 118/118/118 44/44/44 119/119/119
f 118/118/118 119/119/119 120/120/120
f 41/41/41 40/40/40 121/121/121
f 40/40/40 29/29/29 122/122/122
f 121/121/121 40/40/40 122/122/122
f 121/121/121 122/122/122 123/123/123
f 120/120/120 119/119/119 124/124/124
f 119/119/119 41/41/41 121/121/121
f 124/124/124 119/119/119 121/121/121
f 124/124/124 121/121/121 123/123/123
f 120/120/120 124/124/124 125/125/125
f 124/124/124 123/123/123 126/126/126
f 125/125/125 124/124/124 126/126/126
f 125/125/125 126/126/126 127/127/127
f 29/29/29 28/28/28 128/128/128
f 28/28/28 25/25/25 129/129/129
f 128/128/128 28/28/28 129/129/129
f 128/128/128 129/129/129 130/130/130
f 25/25/25 24/24/24 131/131/131
f 24/24/24 23/23/23 102/102/102
f 131/131/131 24/24/24 102/102/102
f 131/131/131 102/102/102 99/99/99
f 130/130/130 129/129/129 132/132/132
f 129/129/129 25/25/25 131/131/131
f 132/132/132 129/129/129 131/131/131
f 132/132/132 131/131/131 99/99/99
f 130/130/130 132/132/132 133/133/133
f 132/132/132 99/99/99 97/97/97
f 133/133/133 132/132/132 97/97/97
f 133/133/133 97/97/97 90/90/90
f 127/127/127 126/126/126 134/134/134
f 126/126/126 123/123/123 135/135/135
f 134/134/134 126/126/126 135/135/135
f 134/134/134 135/135/135 136/136/136
f 123/123/123 122/122/122 137/137/137
f 122/122/122 29/29/29 128/128/128
f 137/137/137 122/122/122 128/128/128
f 137/137/137 128/128/128 130/130/130
f 136/136/136 135/135/135 138/138/138
f 135/135/135 123/123/123 137/137/137
f 138/138/138 135/135/135 137/137/137
f 138/138/138 137/137/137 130/130/130
f 136/136/136 138/138/138 139/139/139
f 138/138/138 130/130/130 133/133/133
f 139/139/139 138/138/138 133/133/133
f 139/139/139 133/133/133 90/90/90
f 127/127/127 134/134/134 140/140/140
f 134/134/134 136/136/136 141/141/141
f 140/140/140 134/134/134 141/141/141
f 140/140/140 141/141/141 142/142/142
f 136/136/136 139/139/139 143/143/143
f 139/139/139 90/90/90 88/88/88
f 143/143/143 139/139/139 88/88/88
f 143/143/143 88/88/88 85/85/85
f 142/142/142 141/141/141 144/144/144
f 141/141/141 136/136/136 143/143/143
f 144/144/144 141/141/141 143/143/143
f 144/144/144 143/143/143 85/85/85
f 142/142/142 144/144/144 145/145/145
f 144/144/144 85/85/85 83/83/83
f 145/145/145 144/144/144 83/83/83
f 145/145/145 83/83/83 82/82/82
f 146/23/146 147/21/147 148/24/148
f 147/21/147 149/18/149 150/22/150
f 148/24/148 147/21/147 150/22/150
f 148/24/148 150/22/150 151/25/151
f 149/18/149 152/16/152 153/19/153
f 152/16/152 154/9/154 155/17/155
f 153/19/153 152/16/152 155/17/155
f 153/19/153 155/17/155 156/20/156
f 151/25/151 150/22/150 157/26/157
f 150/22/150 149/18/149 153/19/153
f 157/26/157 150/22/150 153/19/153
f 157/26/157 153/19/153 156/20/156
f 151/25/151 157/26/157 158/28/158
f 157/26/157 156/20/156 159/27/159
f 158/28/158 157/26/157 159/27/159
f 158/28/158 159/27/159 160/29/160
f 154/9/154 161/7/161 162/10/162
f 161/7/161 163/4/163 164/8/164
f 162/10/162 161/7/161 164/8/164
f 162/10/162 164/8/164 165/11/165
f 163/4/163 166/2/166 167/5/167
f 166/2/166 1/1/1 3/3/3
f 167/5/167 166/2/166 3/3/3
f 167/5/167 3/3/3 6/6/6
f 165/11/165 164/8/164 168/12/168
f 164/8/164 163/4/163 167/5/167
f 168/12/168 164/8/164 167/5/167
f 168/12/168 167/5/167 6/6/6
f 165/11/165 168/12/168 169/14/169
f 168/12/168 6/6/6 13/13/13
f 169/14/169 168/12/168 13/13/13
f 169/14/169 13/13/13 15/15/15
f 160/29/160 159/27/159 170/35/170
f 159/27/159 156/20/156 171/34/171
f 170/35/170 159/27/159 171/34/171
f 170/35/170 171/34/171 172/32/172
f 156/20/156 155/17/155 173/33/173
f 155/17/155 154/9/154 162/10/162
f 173/33/173 155/17/155 162/10/162
f 173/33/173 162/10/162 165/11/165
f 172/32/172 171/34/171 174/31/174
f 171/34/171 156/20/156 173/33/173
f 174/31/174 171/34/171 173/33/173
f 174/31/174 173/33/173 165/11/165
f 172/32/172 174/31/174 175/30/175
f 174/31/174 165/11/165 169/14/169
f 175/30/175 174/31/174 169/14/169
f 175/30/175 169/14/169 15/15/15
f 160/29/160 170/35/170 176/40/176
f 170/35/170 172/32/172 177/39/177
f 176/40/176 170/35/170 177/39/177
f 176/40/176 177/39/177 178/41/178
f 172/32/172 175/30/175 179/37/179
f 175/30/175 15/15/15 36/36/36
f 179/37/179 175/30/175 36/36/36
f 179/37/179 36/36/36 38/38/38
f 178/41/178 177/39/177 180/42/180
f 177/39/177 172/32/172 179/37/179
f 180/42/180 177/39/177 179/37/179
f 180/42/180 179/37/179 38/38/38
f 178/41/178 180/42/180 181/44/181
f 180/42/180 38/38/38 43/43/43
f 181/44/181 180/42/180 43/43/43
f 181/44/181 43/43/43 45/45/45
f 146/23/146 182/66/182 147/21/147
f 182/66/182 183/63/183 184/67/184
f 147/21/147 182/66/182 184/67/184
f 147/21/147 184/67/184 149/18/149
f 183/63/183 185/61/185 186/64/186
f 185/61/185 187/54/187 188/62/188
f 186/64/186 185/61/185 188/62/188
f 186/64/186 188/62/188 189/65/189
f 149/18/149 184/67/184 190/68/190
f 184/67/184 183/63/183 186/64/186
f 190/68/190 184/67/184 186/64/186
f 190/68/190 186/64/186 189/65/189
f 149/18/149 190/68/190 152/16/152
f 190/68/190 189/65/189 191/69/191
f 152/16/152 190/68/190 191/69/191
f 152/16/152 191/69/191 154/9/154
f 187/54/187 192/52/192 193/55/193
f 192/52/192 194/49/194 195/53/195
f 193/55/193 192/52/192 195/53/195
f 193/55/193 195/53/195 196/56/196
f 194/49/194 197/47/197 198/50/198
f 197/47/197 46/46/46 48/48/48
f 198/50/198 197/47/197 48/48/48
f 198/50/198 48/48/48 51/51/51
f 196/56/196 195/53/195 199/57/199
f 195/53/195 194/49/194 198/50/198
f 199/57/199 195/53/195 198/50/198
f 199/57/199 198/50/198 51/51/51
f 196/56/196 199/57/199 200/59/200
f 199/57/199 51/51/51 58/58/58
f 200/59/200 199/57/199 58/58/58
f 200/59/200 58/58/58 60/60/60
f 154/9/154 191/69/191 201/75/201
f 191/69/191 189/65/189 202/74/202
f 201/75/201 191/69/191 202/74/202
f 201/75/201 202/74/202 203/72/203
f 189/65/189 188/62/188 204/73/204
f 188/62/188 187/54/187 193/55/193
f 204/73/204 188/62/188 193/55/193
f 204/73/204 193/55/193 196/56/196
f 203/72/203 202/74/202 205/71/205
f 202/74/202 189/65/189 204/73/204
f 205/71/205 202/74/202 204/73/204
f 205/71/205 204/73/204 196/56/196
f 203/72/203 205/71/205 206/70/206
f 205/71/205 196/56/196 200/59/200
f 206/70/206 205/71/205 200/59/200
f 206/70/206 200/59/200 60/60/60
f 154/9/154 201/75/201 161/7/161
f 201/75/201 203/72/203 207/79/207
f 161/7/161 201/75/201 207/79/207
f 161/7/161 207/79/207 163/4/163
f 203/72/203 206/70/206 208/77/208
f 206/70/206 60/60/60 76/76/76
f 208/77/208 206/70/206 76/76/76
f 208/77/208 76/76/76 78/78/78
f 163/4/163 207/79/207 209/80/209
f 207/79/207 203/72/203 208/77/208
f 209/80/209 207/79/207 208/77/208
f 209/80/209 208/77/208 78/78/78
f 163/4/163 209/80/209 166/2/166
f 209/80/209 78/78/78 81/81/81
f 166/2/166 209/80/209 81/81/81
f 166/2/166 81/81/81 1/1/1
f 146/23/146 210/102/210 182/66/182
f 210/102/210 211/99/211 212/103/212
f 182/66/182 210/102/210 212/103/212
f 182/66/182 212/103/212 183/63/183
f 211/99/211 213/97/213 214/100/214
f 213/97/213 215/90/215 216/98/216
f 214/100/214 213/97/213 216/98/216
f 214/100/214 216/98/216 217/101/217
f 183/63/183 212/103/212 218/104/218
f 212/103/212 211/99/211 214/100/214
f 218/104/218 212/103/212 214/100/214
f 218/104/218 214/100/214 217/101/217
f 183/63/183 218/104/218 185/61/185
f 218/104/218 217/101/217 219/105/219
f 185/61/185 218/104/218 219/105/219
f 185/61/185 219/105/219 187/54/187
f 215/90/215 220/88/220 221/91/221
f 220/88/220 222/85/222 223/89/223
f 221/91/221 220/88/220 223/89/223
f 221/91/221 223/89/223 224/92/224
f 222/85/222 225/83/225 226/86/226
f 225/83/225 82/82/82 84/84/84
f 226/86/226 225/83/225 84/84/84
f 226/86/226 84/84/84 87/87/87
f 224/92/224 223/89/223 227/93/227
f 223/89/223 222/85/222 226/86/226
f 227/93/227 223/89/223 226/86/226
f 227/93/227 226/86/226 87/87/87
f 224/92/224 227/93/227 228/95/228
f 227/93/227 87/87/87 94/94/94
f 228/95/228 227/93/227 94/94/94
f 228/95/228 94/94/94 96/96/96
f 187/54/187 219/105/219 229/111/229
f 219/105/219 217/101/217 230/110/230
f 229/111/229 219/105/219 230/110/230
f 229/111/229 230/110/230 231/108/231
f 217/101/217 216/98/216 232/109/232
f 216/98/216 215/90/215 221/91/221
f 232/109/232 216/98/216 221/91/221
f 232/109/232 221/91/221 224/92/224
f 231/108/231 230/110/230 233/107/233
f 230/110/230 217/101/217 232/109/232
f 233/107/233 230/110/230 232/109/232
f 233/107/233 232/109/232 224/92/224
f 231/108/231 233/107/233 234/106/234
f 233/107/233 224/92/224 228/95/228
f 234/106/234 233/107/233 228/95/228
f 234/106/234 228/95/228 96/96/96
f 187/54/187 229/111/229 192/52/192
f 229/111/229 231/108/231 235/115/235
f 192/52/192 229/111/229 235/115/235
f 192/52/192 235/115/235 194/49/194
f 231/108/231 234/106/234 236/113/236
f 234/106/234 96/96/96 112/112/112
f 236/113/236 234/106/234 112/112/112
f 236/113/236 112/112/112 114/114/114
f 194/49/194 235/115/235 237/116/237
f 235/115/235 231/108/231 236/113/236
f 237/116/237 235/115/235 236/113/236
f 237/116/237 236/113/236 114/114/114
f 194/49/194 237/116/237 197/47/197
f 237/116/237 114/114/114 117/117/117
f 197/47/197 237/116/237 117/117/117
f 197/47/197 117/117/117 46/46/46
f 146/23/146 148/24/148 210/102/210
f 148/24/148 151/25/151 238/131/238
f 210/102/210 148/24/148 238/131/238
f 210/102/210 238/131/238 211/99/211
f 151/25/151 158/28/158 239/129/239
f 158/28/158 160/29/160 240/128/240
f 239/129/239 158/28/158 240/128/240
f 239/129/239 240/128/240 241/130/241
f 211/99/211 238/131/238 242/132/242
f 238/131/238 151/25/151 239/129/239
f 242/132/242 238/131/238 239/129/239
f 242/132/242 239/129/239 241/130/241
f 211/99/211 242/132/242 213/97/213
f 242/132/242 241/130/241 243/133/243
f 213/97/213 242/132/242 243/133/243
f 213/97/213 243/133/243 215/90/215
f 160/29/160 176/40/176 244/122/244
f 176/40/176 178/41/178 245/121/245
f 244/122/244 176/40/176 245/121/245
f 244/122/244 245/121/245 246/123/246
f 178/41/178 181/44/181 247/119/247
f 181/44/181 45/45/45 118/118/118
f 247/119/247 181/44/181 118/118/118
f 247/119/247 118/118/118 120/120/120
f 246/123/246 245/121/245 248/124/248
f 245/121/245 178/41/178 247/119/247
f 248/124/248 245/121/245 247/119/247
f 248/124/248 247/119/247 120/120/120
f 246/123/246 248/124/248 249/126/249
f 248/124/248 120/120/120 125/125/125
f 249/126/249 248/124/248 125/125/125
f 249/126/249 125/125/125 127/127/127
f 215/90/215 243/133/243 250/139/250
f 243/133/243 241/130/241 251/138/251
f 250/139/250 243/133/243 251/138/251
f 250/139/250 251/138/251 252/136/252
f 241/130/241 240/128/240 253/137/253
f 240/128/240 160/29/160 244/122/244
f 253/137/253 240/128/240 244/122/244
f 253/137/253 244/122/244 246/123/246
f 252/136/252 251/138/251 254/135/254
f 251/138/251 241/130/241 253/137/253
f 254/135/254 251/138/251 253/137/253
f 254/135/254 253/137/253 246/123/246
f 252/136/252 254/135/254 255/134/255
f 254/135/254 246/123/246 249/126/249
f 255/134/255 254/135/254 249/126/249
f 255/134/255 249/126/249 127/127/127
f 215/90/215 250/139/250 220/88/220
f 250/139/250 252/136/252 256/143/256
f 220/88/220 250/139/250 256/143/256
f 220/88/220 256/143/256 222/85/222
f 252/136/252 255/134/255 257/141/257
f 255/134/255 127/127/127 140/140/140
f 257/141/257 255/134/255 140/140/140
f 257/141/257 140/140/140 142/142/142
f 222/85/222 256/143/256 258/144/258
f 256/143/256 252/136/252 257/141/257
f 258/144/258 256/143/256 257/141/257
f 258/144/258 257/141/257 142/142/142
f 222/85/222 258/144/258 225/83/225
f 258/144/258 142/142/142 145/145/145
f 225/83/225 258/144/258 145/145/145
f 225/83/225 145/145/145 82/82/82
# 512 faces

