mtllib anim_barb_idle_body_000008.mtl

o fat
usemtl fat.001
s off

v -0.115190 38.694260 -3.588130
v 1.860240 36.144421 6.136090
v 0.138150 37.902710 1.548310
v -0.293830 60.858421 -7.898480
v 8.574380 66.516487 -8.002570
v 2.213260 57.054527 -7.159190
v -0.787080 52.776726 -4.895490
v 7.724530 62.829071 -4.261100
v 7.653920 58.628342 -1.535830
v 6.839900 52.853020 -1.492810
v 3.698610 52.663670 -5.334020
v 5.996270 57.831532 -6.560250
v 9.150360 37.589157 4.469510
v 9.341690 39.515919 -1.001800
v 10.448960 39.017811 -2.220540
v 6.038630 38.513721 5.099730
v 4.973460 37.038410 6.464980
v 4.803960 37.134212 -6.290421
v 4.052240 39.102482 -5.419540
v 0.740120 38.366512 -4.497870
v -0.008560 35.957550 -5.154780
v -0.706080 66.511528 -7.574550
v -0.818690 68.504181 -7.602580
v 0.517160 59.806900 6.039110
v 5.395820 59.848091 3.622370
v 6.498310 64.033630 4.223700
v 9.101460 63.736309 1.634720
v 6.363220 66.835709 4.152540
v 11.322460 67.078751 -0.578180
v 4.883970 52.921299 3.616010
v 1.595770 52.650829 5.187930
v 1.127420 66.742851 6.179910
v 4.327590 71.258789 -5.472810
v 10.405910 68.272079 -7.407250
v 11.381901 68.761223 -3.734930
v 3.104230 71.347496 3.444330
v 5.479790 72.471725 -1.172460
v 0.410610 70.526848 4.296710
v 2.715750 76.847809 0.574440
v 3.163760 74.475349 -2.743410
v 0.092980 74.618019 -3.428290
v 0.168570 77.501961 -0.541530
v -0.156830 72.549400 -5.226230
v 1.230940 48.323990 5.523360
v 6.052590 48.318821 4.251700
v 8.374120 47.967072 -1.293340
v 4.273840 47.372978 -5.965981
v -0.809880 47.287361 -5.979240
v 11.714220 65.518066 -1.088820
v 9.216400 64.640495 -8.402000
v 13.067270 65.703308 -3.830250
v 11.948800 66.828209 -6.951350
v 8.830501 63.024529 0.111860
v 2.913400 76.288826 6.059730
v 1.602770 74.773872 7.863770
v 3.151970 71.938461 4.592860
v 2.004840 70.870224 6.738880
v 1.118050 73.405273 7.832960
v 2.054660 76.743942 7.641250
v 0.282560 76.614151 7.997660
v 3.370650 77.623322 3.323550
v 0.967930 80.612930 8.082649
v -0.315580 80.563538 8.418040
v 2.144180 78.015190 8.261209
v 2.646820 79.875748 7.213770
v 1.517080 81.954437 5.343210
v -0.128610 81.949600 5.231710
v 0.719610 74.780342 8.433480
v -0.323010 77.360146 8.315610
v -0.398430 75.335434 9.494310
v -0.364900 74.751419 8.862210
v -0.372360 73.168999 8.878410
v 0.982560 70.406891 8.379640
v -0.387380 70.381409 8.939520
v 3.220060 79.961281 3.359050
v 2.710010 81.202652 2.822270
v 0.065520 81.450623 1.782600
v 13.447270 63.215729 -1.951140
v 13.701611 63.746151 -5.644150
v 8.602560 57.416229 -5.228790
v 10.549110 57.974037 -1.085600
v 9.937440 62.127480 -8.296810
v 11.126329 53.223991 -5.310220
v 13.097071 49.916580 -1.857100
v 11.089601 51.543213 -3.256710
v 14.018340 52.999680 -7.349750
v 15.435710 54.954029 -5.474250
v 14.660881 51.948936 -1.168150
v 15.161051 54.401089 -3.369330
v 13.570980 53.812401 -0.642890
v 13.201961 52.467999 -2.626550
v 10.915299 53.866383 -1.253420
v 12.966829 55.807159 -7.434550
v 13.519420 54.578369 -7.483960
v 14.788409 60.237396 -5.660560
v 14.284771 59.767250 -2.211560
v 12.532740 54.177532 -2.309820
v 11.982900 58.278080 -8.414570
v 9.686049 48.359219 4.283810
v 8.118660 49.391998 4.018790
v 10.677839 49.272270 5.069190
v 9.920990 50.981289 5.350920
v 8.387820 51.323242 4.821860
v 5.398710 51.894333 9.051849
v 5.305900 50.986870 8.920970
v 6.422370 50.683220 8.300060
v 7.166570 51.295662 8.228010
v 7.874220 50.347118 9.442570
v 5.772630 51.724850 6.610400
v 6.430070 51.875210 7.833770
v 4.505860 51.740150 8.427670
v 4.531600 51.454868 10.157120
v 3.925450 51.308498 9.589910
v 6.624490 49.594479 11.134419
v 8.064919 45.951382 7.336480
v 7.333190 45.278709 9.038950
v 6.161710 44.874382 11.687180
v 5.771030 49.906860 10.217960
v 8.082400 45.801590 9.566090
v 9.102360 46.475037 8.044640
v 4.680650 48.691269 12.955570
v 4.023100 26.162939 -0.545690
v 8.041620 21.196680 -7.740750
v 5.439050 18.577740 -3.009270
v 9.930830 27.074169 -1.330840
v 12.729170 20.358000 -3.940130
v 6.517180 27.218922 -4.332760
v 8.084940 23.740999 1.482660
v 9.219970 18.247980 0.308180
v 7.784490 25.847721 2.450880
v 7.848010 28.288500 2.070290
v 10.700420 30.868111 -2.002290
v 7.348680 32.774761 4.367340
v 12.422410 10.227270 -7.616640
v 13.832980 7.625720 -8.661270
v 10.721940 8.766870 -10.564919
v 11.584980 7.519160 -5.646540
v 8.973740 9.399261 -7.279300
v 8.951740 6.429100 -8.279921
v 10.055120 4.000390 -12.340440
v 13.044330 4.774110 -12.569229
v 10.563101 1.475140 -4.282640
v 16.553490 2.975130 -4.757450
v 13.374090 3.043960 -0.555780
v 16.057131 1.586020 -0.855020
v 12.245999 0.435750 0.050880
v -9.925220 66.733322 -5.255220
v -2.501270 57.027859 -6.904130
v -6.043570 63.490757 -2.023000
v -7.341630 58.542152 -0.661410
v -5.192451 52.759354 -2.912900
v -6.198760 52.647053 1.887100
v -6.231810 57.761322 -5.877340
v -9.100470 39.081238 -0.521550
v -7.018660 36.722969 6.619440
v -10.264799 38.551098 -0.090480
v -5.332450 37.789768 5.397340
v -4.705620 37.175041 -6.230000
v -4.554830 39.152721 -5.018500
v -0.793830 38.403019 -4.691830
v -4.601090 59.789829 4.212140
v -4.782270 63.959431 5.709630
v -9.899290 63.574291 4.273190
v -4.461570 66.761086 5.782160
v -10.036730 67.913170 3.461810
v -1.935740 52.534031 5.588470
v -11.658200 67.966934 -4.035910
v -5.366080 71.219704 -4.164960
v -11.520050 68.960571 0.550280
v -2.387610 71.326157 3.750940
v -5.916950 72.556274 -0.147270
v -2.471110 76.861038 0.346260
v -2.951130 74.478401 -2.670440
v -2.946900 47.914547 6.350500
v -7.647200 47.664562 2.171120
v -5.774990 47.270660 -3.774890
v -11.316330 65.698502 2.765080
v -9.872910 63.757790 -5.250910
v -13.160490 66.619919 0.491550
v -12.759610 65.122810 -2.832960
v -9.526860 63.554249 2.908900
v -2.206400 74.789627 7.647110
v -3.291480 76.314522 5.706800
v -2.952890 71.963692 4.554170
v -2.510520 70.888916 6.482040
v -1.732620 73.417068 7.670810
v -0.894760 76.619019 7.930720
v -2.613880 76.763260 7.375690
v -3.424490 77.651451 2.937030
v -1.552330 80.623352 7.939281
v -2.762630 78.035515 7.982120
v -3.127880 79.899651 6.885300
v -1.776220 81.968079 5.155910
v -1.393520 74.789093 8.313280
v -1.684740 70.417931 8.227910
v -3.259620 79.988091 2.990500
v -2.681760 81.224960 2.515570
v -12.552590 63.174431 2.306340
v -13.838490 63.092808 -1.236710
v -8.979360 58.434990 3.020000
v -8.767320 57.777946 -1.467290
v -10.659830 61.457321 -4.602980
v -11.757430 48.892651 2.973230
v -9.804880 52.909698 -0.163150
v -10.006810 51.102352 1.260980
v -13.001390 52.186562 -1.549000
v -14.203369 54.331379 0.304280
v -12.228260 51.052872 4.862530
v -13.504230 54.068420 2.368150
v -10.289789 53.371719 5.131210
v -7.945590 53.464653 3.500300
v -11.267900 52.431149 2.935100
v -12.309010 55.032001 -2.273550
v -12.662539 53.816143 -1.980260
v -14.369570 59.496578 -0.713660
v -13.080930 59.631882 2.571590
v -10.455810 55.109310 2.352760
v -11.923881 57.421490 -3.762360
v -7.277720 46.242290 7.932860
v -5.687310 47.085873 7.347420
v -7.888180 47.178001 9.024410
v -6.775650 48.746799 9.246460
v -5.426080 48.911861 8.364170
v -1.537670 47.585831 11.472321
v -1.429600 48.472862 11.696150
v -2.806330 47.536240 11.141820
v -3.424230 48.261871 11.311990
v -3.973280 47.289539 12.592530
v -2.712270 48.764000 10.787701
v -2.406590 48.662270 9.428480
v -0.759370 48.262146 10.849080
v -0.414510 47.772121 12.499121
v -0.000560 47.604870 11.784190
v -2.508330 46.150909 13.834849
v -4.473480 42.289520 11.654530
v -5.459900 43.269737 10.263041
v -2.785390 41.384232 13.868870
v -1.860670 46.438351 12.756020
v -4.965020 42.852501 12.398769
v -6.182570 43.855938 11.256000
v -0.377020 44.741119 15.009840
v -5.360160 19.559341 -7.632330
v -3.225720 25.919868 -0.368790
v -3.091190 18.225189 -2.979900
v -10.384350 18.683380 -4.740060
v -9.012980 26.322762 -2.051410
v -5.358990 27.405260 -4.260370
v -7.148130 23.011280 0.875140
v -7.175210 17.384520 -0.240870
v -7.251960 24.892290 1.960770
v -6.876080 27.660780 2.033260
v -10.283751 30.042328 -1.701970
v -6.357500 32.211460 4.354170
v -8.982110 5.201250 -7.016980
v -8.144350 8.150850 -6.272700
v -5.867660 6.400500 -8.835720
v -7.149590 6.179120 -3.864370
v -4.089240 4.969550 -5.916240
v -4.613880 7.929049 -5.420580
v -4.242630 1.522980 -9.283410
v -7.291530 1.667070 -9.966351
v -5.410140 0.965110 -0.917310
v -11.413740 1.197170 -2.240240
v -8.824170 2.938270 2.042140
v -11.159081 0.950120 1.945990
v -7.356720 0.848840 3.429310

vt 0.550479 0.485338
vt 0.414517 0.485338
vt 0.489174 0.497239
vt 0.490853 0.675485
vt 0.356970 0.710738
vt 0.458986 0.602657
vt 0.458693 0.603155
vt 0.491001 0.506534
vt 0.357039 0.710738
vt 0.272881 0.708251
vt 0.307767 0.663467
vt 0.329118 0.504113
vt 0.420682 0.504388
vt 0.307693 0.663467
vt 0.420389 0.504181
vt 0.390374 0.619683
vt 0.389206 0.622726
vt 0.390855 0.620128
vt 0.309151 0.663075
vt 0.578845 0.971377
vt 0.529882 0.993867
vt 0.501054 0.950636
vt 0.597833 0.993868
vt 0.684209 0.993870
vt 0.691613 0.940228
vt 0.584242 0.936155
vt 0.602549 0.993867
vt 0.689094 0.993870
vt 0.694409 0.971380
vt 0.730001 0.975635
vt 0.490853 0.781888
vt 0.490853 0.820915
vt 0.240556 0.660920
vt 0.133663 0.660928
vt 0.131880 0.753091
vt 0.060606 0.782384
vt 0.055577 0.663688
vt 0.136145 0.808744
vt 0.060014 0.783494
vt 0.058190 0.859642
vt 0.160773 0.512959
vt 0.067037 0.515196
vt 0.240700 0.512959
vt 0.131877 0.752996
vt 0.240556 0.781375
vt 0.390182 0.870896
vt 0.298691 0.847983
vt 0.294173 0.886121
vt 0.181129 0.899551
vt 0.052544 0.886601
vt 0.145152 0.921474
vt 0.235241 0.891030
vt 0.142740 0.921054
vt 0.172936 0.966074
vt 0.456563 0.999059
vt 0.389917 0.922986
vt 0.429989 0.941889
vt 0.491140 0.942697
vt 0.490646 0.999330
vt 0.490853 0.898039
vt 0.701416 0.118225
vt 0.813217 0.120956
vt 0.790107 0.184348
vt 0.877923 0.002315
vt 0.872775 0.120438
vt 0.505869 0.118716
vt 0.564263 0.119120
vt 0.507564 0.183764
vt 0.697589 0.180917
vt 0.580429 0.182675
vt 0.710756 0.001536
vt 0.701372 0.182427
vt 0.812168 0.002315
vt 0.857243 0.184348
vt 0.697567 0.116528
vt 0.503935 0.000692
vt 0.561277 0.000692
vt 0.688827 -0.000098
vt 0.002866 0.854679
vt 0.027518 0.706813
vt 0.061197 0.782654
vt 0.055608 0.663958
vt 0.251604 0.781884
vt 0.357109 0.710738
vt 0.243886 0.876138
vt 0.247300 0.848527
vt -0.000514 0.880403
vt 0.006948 0.782948
vt 0.674684 0.829607
vt 0.705811 0.784366
vt 0.654033 0.662928
vt 0.703232 0.671848
vt 0.720473 0.730776
vt 0.697736 0.853617
vt 0.729837 0.853035
vt 0.623758 0.856571
vt 0.587609 0.811448
vt 0.658187 0.605708
vt 0.748523 0.593788
vt 0.716351 0.931575
vt 0.747491 0.935506
vt 0.695349 0.885675
vt 0.676247 0.904603
vt 0.649719 0.961956
vt 0.745560 1.001324
vt 0.725611 0.781438
vt 0.747491 0.878462
vt 0.747491 0.808438
vt 0.720379 0.731031
vt 0.747491 0.790807
vt 0.720762 0.730332
vt 0.748639 0.732530
vt 0.746944 0.628012
vt 0.703659 0.671442
vt 0.731857 0.666086
vt 0.747085 0.666819
vt 0.703186 0.671176
vt 0.611291 0.885598
vt 0.604148 0.909350
vt 0.550618 0.823662
vt 0.550618 0.934468
vt 0.625864 0.557513
vt 0.571978 0.557920
vt 0.578607 0.510287
vt 0.669444 0.510287
vt 0.756032 0.560223
vt 0.679695 0.557918
vt 0.877240 0.461159
vt 0.992418 0.461159
vt 0.944262 0.560223
vt 0.756457 0.510287
vt 0.806202 0.560223
vt 0.498275 0.560223
vt 0.875566 0.382888
vt 0.758260 0.308662
vt 0.875912 0.308662
vt 0.759996 0.360654
vt 0.669163 0.382888
vt 0.671223 0.308662
vt 0.584325 0.382888
vt 0.577057 0.308662
vt 0.498223 0.363687
vt 0.498247 0.308662
vt 0.992597 0.308662
vt 0.992439 0.363687
vt 0.759483 0.410364
vt 0.758924 0.382888
vt 0.665903 0.461159
vt 0.580075 0.461159
vt 0.498223 0.402657
vt 0.992438 0.402657
vt 0.760539 0.449273
vt 0.498220 0.461159
vt 0.875438 0.575163
vt 0.762705 0.196431
vt 0.858161 0.196355
vt 0.690657 0.196417
vt 0.588027 0.196417
vt 0.498144 0.196431
vt 0.991918 0.196431
vt 0.375723 0.009258
vt 0.380090 0.017573
vt 0.356438 0.030356
vt 0.342839 0.029458
vt 0.369327 0.043627
vt 0.316032 0.012201
vt 0.336848 0.019568
vt 0.249292 0.041099
vt 0.371147 0.002582
vt 0.416197 0.004791
vt 0.408124 0.000758
vt 0.128136 0.016613
vt 0.154876 0.002573
vt 0.119423 0.002194
vt 0.160447 0.001473
vt 0.065726 0.014292
vt 0.105093 0.028910
vt 0.000825 0.069213
vt 0.000703 0.039244
vt 0.249314 0.055441
vt 0.429228 0.045736
vt 0.102506 0.115410
vt 0.153549 0.117195
vt 0.189513 0.114692
vt 0.228429 0.109580
vt 0.194639 0.033982
vt 0.406548 0.108121
vt 0.355355 0.108206
vt 0.448349 0.035630
vt 0.498209 0.039288
vt 0.461840 0.047992
vt 0.483032 0.114221
vt 0.406174 0.120334
vt 0.355217 0.119080
vt 0.243215 0.037501
vt 0.249314 0.089732
vt 0.000703 0.095058
vt 0.249292 0.105039
vt 0.160984 0.032072
vt 0.413806 0.033644
vt 0.442212 0.108407
vt 0.443088 0.117732
vt 0.023914 0.327327
vt 0.104127 0.227894
vt 0.000784 0.227894
vt 0.216171 0.327327
vt 0.216985 0.228421
vt 0.105699 0.228145
vt 0.104981 0.327662
vt 0.217575 0.327327
vt 0.351490 0.301452
vt 0.217290 0.227894
vt 0.351571 0.227894
vt 0.352420 0.301452
vt 0.489174 0.227894
vt 0.352342 0.227894
vt 0.471690 0.333380
vt 0.351597 0.328057
vt 0.217345 0.328075
vt 0.352312 0.363299
vt 0.470864 0.334174
vt 0.352330 0.328057
vt 0.216660 0.380224
vt 0.216104 0.328075
vt 0.104983 0.328371
vt 0.217232 0.380224
vt 0.351611 0.363299
vt 0.351459 0.420971
vt 0.352499 0.420971
vt 0.351589 0.497239
vt 0.229465 0.497239
vt 0.352627 0.497239
vt 0.229583 0.497239
vt 0.133020 0.497239
vt 0.072972 0.497239
vt 0.025422 0.328212
vt 0.002386 0.497239
vt 0.216130 0.152222
vt 0.223982 0.125749
vt 0.105883 0.155747
vt 0.351732 0.147623
vt 0.223132 0.128232
vt 0.218721 0.149411
vt 0.469070 0.149411
vt 0.483427 0.127273
vt 0.352306 0.146326
vt 0.017963 0.152222
vt 0.104256 0.155747
vt 0.009616 0.131504
vt 0.104128 0.227914
vt 0.000790 0.227921
vt 0.216984 0.228396
vt 0.351571 0.227971
vt 0.217291 0.227882
vt 0.352342 0.227879
vt 0.489111 0.227891
vt 0.948232 0.041698
vt 0.989968 0.003451
vt 0.971575 0.059997
vt 0.909211 0.004273
vt 0.996004 0.120663
vt 0.925604 0.058708
vt 0.885225 0.122889
vt 0.516483 0.798440
vt 0.501430 0.685191
vt 0.597947 0.686709
vt 0.594444 0.793024
vt 0.950876 0.082499
vt 0.943924 0.157220
vt 0.507177 0.624822
vt 0.600053 0.622523
vt 0.901715 0.182549
vt 0.982420 0.184037
vt 0.730212 0.975635
vt 0.685579 0.991654
vt 0.692830 0.969164

vn -0.572287 -0.814266 -0.097256
vn 0.078002 -0.140415 -0.987015
vn -0.225828 -0.327172 -0.917584
vn 0.824212 0.298388 0.481290
vn 0.771842 -0.113450 -0.625610
vn -0.098970 -0.410314 -0.906558
vn 0.210975 -0.313488 -0.925859
vn 0.915418 -0.313635 -0.252276
vn 0.195975 -0.216988 -0.956300
vn 0.871563 -0.439203 -0.217894
vn -0.631051 -0.724519 -0.277213
vn -0.329140 -0.887002 -0.323874
vn -0.314151 -0.512643 -0.799066
vn 0.021647 -0.918413 0.395031
vn -0.530059 -0.504126 0.681832
vn 0.293251 -0.335285 0.895314
vn 0.314723 -0.280960 0.906648
vn 0.946995 -0.313474 0.070239
vn -0.046056 -0.016654 -0.998800
vn 0.432661 -0.238862 0.869339
vn 0.750945 -0.488572 0.444273
vn 0.689544 0.021098 0.723936
vn 0.443868 -0.033621 0.895461
vn 0.931352 -0.069149 0.357495
vn 0.433713 -0.041688 0.900086
vn 0.320643 -0.047416 0.946012
vn -0.091246 0.403861 -0.910258
vn -0.046034 0.053800 -0.997490
vn 0.662122 -0.274583 0.697279
vn 0.373183 0.901478 -0.219255
vn 0.360151 0.041030 0.931991
vn 0.073809 0.520033 -0.850951
vn 0.707200 0.051999 0.705099
vn 0.577663 0.516482 0.632101
vn 0.605106 0.697800 0.383303
vn 0.311455 0.470018 0.825881
vn 0.205458 0.294888 0.933182
vn 0.810587 0.314880 0.493761
vn 0.735211 0.594422 -0.325772
vn 0.441809 0.628851 -0.639806
vn 0.162512 0.812873 -0.559310
vn 0.576182 0.675010 0.460843
vn 0.387637 0.854830 -0.344969
vn 0.737908 0.571551 -0.358917
vn 0.153227 0.671012 -0.725441
vn 0.196886 0.629507 -0.751636
vn 0.094247 0.492751 -0.865051
vn 0.250342 0.194557 0.948407
vn 0.912361 0.173089 0.370996
vn 0.723651 0.200266 -0.660471
vn -0.094033 0.107994 -0.989694
vn 0.251769 0.163085 0.953947
vn 0.428786 0.033832 0.902772
vn 0.931542 0.273804 0.239291
vn 0.888322 0.293363 0.353302
vn 0.899031 0.275305 0.340516
vn 0.760565 0.157916 -0.629765
vn -0.000703 0.193692 -0.981062
vn 0.715803 0.234117 -0.657888
vn 0.571662 0.055538 -0.818608
vn 0.002072 0.031779 -0.999493
vn -0.208937 -0.085667 -0.974170
vn 0.412195 0.137289 0.900693
vn 0.971121 0.202478 0.126202
vn 0.967859 -0.148125 -0.203243
vn 0.088133 0.236201 -0.967699
vn 0.733405 -0.037976 0.678731
vn 0.865755 0.481425 -0.136738
vn 0.799003 0.427180 0.423217
vn 0.386077 0.123930 -0.914104
vn 0.699069 0.660567 -0.273777
vn -0.885041 -0.214977 -0.412900
vn -0.953674 -0.169189 0.248758
vn 0.687499 -0.697090 0.203493
vn 0.849889 -0.125928 0.511694
vn 0.492898 -0.193670 0.848259
vn 0.192052 0.066540 0.979126
vn 0.986423 -0.001278 0.164218
vn 0.974590 -0.045593 -0.219306
vn 0.998894 -0.042780 -0.019504
vn 0.382097 -0.828092 0.410202
vn 0.242572 0.175422 0.954141
vn 0.930806 -0.047426 0.362424
vn 0.984750 0.017497 0.173096
vn -0.032080 0.900158 0.434381
vn 0.516536 0.312560 0.797181
vn 0.717419 0.318255 0.619696
vn 0.730861 0.322849 0.601341
vn 0.529381 -0.206022 0.822989
vn 0.359022 -0.284215 0.889002
vn 0.069735 0.913260 0.401363
vn 0.030527 -0.032014 0.999021
vn 0.279345 -0.697829 0.659547
vn 0.573645 0.005677 0.819084
vn 0.465626 -0.866025 -0.182191
vn 0.889297 -0.039692 0.455604
vn 0.006233 -0.999523 -0.030240
vn 0.556463 0.124631 0.821472
vn 0.839420 0.060543 0.540100
vn 0.313883 -0.946744 -0.071785
vn 0.377961 0.018259 0.925641
vn 0.966298 0.066017 -0.248816
vn 0.899233 0.201591 -0.388255
vn 0.795221 -0.310090 0.521025
vn 0.207912 -0.440540 0.873325
vn 0.852996 -0.138832 0.503115
vn 0.104862 -0.316668 0.942722
vn 0.544668 0.704897 0.454375
vn 0.987062 0.061326 0.148149
vn 0.892433 0.428179 0.142217
vn 0.779868 0.595994 0.191303
vn 0.538703 0.298089 0.787998
vn 0.452291 0.409545 -0.792279
vn 0.359564 0.480273 -0.800033
vn 0.144500 0.980430 -0.133703
vn 0.016060 0.960227 -0.278757
vn 0.898010 -0.123427 0.422308
vn 0.793377 0.439417 0.421267
vn 0.511990 -0.071873 -0.855980
vn 0.885695 0.435691 -0.160367
vn -0.816119 -0.380777 0.434693
vn 0.969851 0.222778 0.098792
vn 0.537187 0.119182 -0.835001
vn -0.864024 -0.265805 -0.427563
vn 0.408904 -0.033769 0.911952
vn -0.179793 -0.759650 -0.624985
vn -0.410292 -0.764143 -0.497741
vn 0.858782 -0.494618 -0.133594
vn 0.807296 -0.542163 -0.233095
vn 0.988675 -0.112349 0.099493
vn 0.789488 0.312930 0.528000
vn 0.148239 0.805626 -0.573579
vn -0.725703 0.624665 -0.288354
vn -0.058138 0.649434 -0.758192
vn -0.466957 0.688365 0.555072
vn -0.515352 -0.294615 -0.804745
vn -0.580088 -0.229435 -0.781573
vn 0.654456 0.321822 -0.684191
vn 0.631607 0.050100 -0.773668
vn 0.979079 0.125598 0.160091
vn 0.979038 0.125215 0.160641
vn 0.375568 -0.024629 0.926467
vn -0.742212 -0.522942 0.419110
vn -0.879579 -0.058266 -0.472172
vn -0.530297 -0.486543 -0.694306
vn 0.701657 -0.003193 -0.712508
vn 0.519790 0.164920 -0.838224
vn 0.949824 0.293696 0.107599
vn 0.960431 0.220393 0.170290
vn 0.409414 -0.076242 0.909157
vn 0.289456 -0.001985 0.957189
vn -0.948090 -0.198244 0.248644
vn 0.698940 0.161663 -0.696669
vn -0.571187 -0.247061 -0.782756
vn -0.777198 -0.394998 0.489836
vn 0.380321 -0.135290 0.914906
vn -0.741407 -0.455899 0.492414
vn 0.340042 -0.122972 0.932336
vn 0.544788 0.313279 -0.777857
vn -0.611680 -0.302669 -0.730916
vn -0.449809 -0.789705 -0.417178
vn -0.377164 -0.825963 -0.418966
vn 0.608428 -0.781191 0.139843
vn 0.742615 -0.639182 0.199923
vn 0.753728 0.272242 0.598145
vn 0.772187 0.245347 0.586117
vn 0.044287 0.892637 0.448596
vn -0.064420 0.929789 0.362413
vn -0.931880 0.194268 -0.306366
vn -0.919525 0.253168 -0.300631
vn 0.442588 -0.172195 0.880037
vn -0.413706 0.584800 0.697751
vn 0.050208 0.987657 -0.148364
vn -0.111038 0.990111 -0.085736
vn -0.076966 0.993757 -0.080771
vn -0.275813 0.947728 0.160435
vn -0.367933 0.916560 0.156665
vn 0.742774 0.239755 0.625143
vn 0.806753 -0.164372 0.567567
vn -0.416516 -0.764530 -0.491944
vn -0.067300 -0.946329 0.316120
vn -0.516453 -0.779971 -0.353441
vn -0.422909 -0.834965 -0.352110
vn -0.757501 -0.644197 -0.105842
vn -0.477101 0.393308 -0.785928
vn 0.227579 0.973284 -0.030439
vn -0.069709 0.929555 0.362034
vn -0.866108 -0.208100 -0.454478
vn -0.886361 -0.191832 -0.421383
vn 0.791859 0.052799 0.608418
vn 0.818437 0.053031 0.572143
vn -0.071536 0.921866 0.380847
vn 0.678752 0.019423 0.734111
vn 0.598624 -0.798901 -0.058368
vn 0.483376 -0.873182 -0.062454
vn -0.878116 -0.195641 -0.436621
vn 0.835897 0.293747 0.463670
vn -0.921726 -0.261657 -0.286282
vn -0.316316 -0.655925 -0.685351
vn 0.745254 -0.635256 -0.202600
vn -0.206134 0.357637 0.910826
vn 0.847974 0.079780 0.523999
vn 0.581719 -0.759793 -0.290374
vn 0.457325 0.818201 0.348425
vn 0.467124 0.808070 0.358913
vn -0.898690 -0.204501 -0.387988
vn -0.046853 0.931351 0.361095
vn 0.739884 0.006238 0.672706
vn 0.520678 -0.847771 0.100890
vn -0.874786 -0.005948 -0.484473
vn 0.599115 0.494325 -0.629844
vn 0.581139 0.507238 -0.636386
vn 0.782745 0.086709 0.616273
vn 0.765728 0.020780 0.642829
vn -0.646119 -0.284903 0.708068
vn -0.576563 -0.347760 0.739349
vn 0.878430 -0.090386 0.469245
vn -0.610103 0.137547 0.780292
vn 0.631909 -0.257554 -0.730997
vn 0.838363 -0.074489 0.540000
vn 0.853200 -0.159332 0.496651
vn -0.312547 -0.460250 0.830953
vn 0.860304 0.056610 0.506629
vn -0.590218 -0.405081 0.698249
vn -0.842963 0.087043 -0.530884
vn 0.862019 0.134406 0.488731
vn -0.486422 -0.218980 0.845838
vn 0.892176 0.088943 0.442844
vn 0.621289 0.185688 -0.761262
vn 0.474590 0.017961 -0.880024
vn -0.237150 -0.137144 -0.961744
vn -0.719558 -0.381493 -0.580258
vn -0.531953 -0.316150 0.785541
vn -0.948887 -0.293146 -0.116961
vn 0.572928 0.553401 -0.604567
vn 0.784218 0.187731 0.591404
vn -0.633911 -0.242696 0.734340
vn -0.855827 0.170825 -0.488241
vn 0.756811 0.295647 -0.582949
vn -0.886314 -0.087813 -0.454682
vn -0.851590 -0.087501 -0.516854
vn 0.636617 0.245972 -0.730901
vn 0.803129 -0.224591 0.551854
vn 0.924247 -0.008120 0.381708
vn -0.685061 -0.463116 0.562330
vn -0.589904 -0.516089 0.621020
vn -0.875252 0.271538 -0.400251
vn -0.164484 0.364439 -0.916585
vn -0.937573 -0.344346 -0.048809
vn 0.905946 0.233482 -0.353196
vn 0.208150 -0.928555 -0.307341
vn 0.216792 -0.927560 -0.304357
vn 0.560673 0.699690 0.442809
vn 0.564511 0.608381 -0.557853
vn -0.734481 0.265149 0.624687
vn 0.570382 0.705852 0.420045
vn -0.820567 0.254249 0.511887
vn 0.208193 -0.929517 -0.304390
vn 0.208664 -0.929545 -0.303983
vn 0.477284 0.806930 0.347942
vn 0.187167 0.145031 0.971563
vn -0.796005 0.440774 0.414843
vn 0.390500 -0.761151 -0.517841
vn -0.304190 -0.071293 -0.949940
vn 0.198815 -0.351997 -0.914643
vn -0.416671 0.341139 0.842621
vn -0.940962 -0.270440 -0.203599
vn -0.350853 -0.511956 -0.784094
vn -0.320325 -0.531353 -0.784255
vn -0.918947 -0.368561 -0.140354
vn -0.273478 -0.045959 -0.960780
vn -0.944111 -0.289544 -0.157538
vn 0.267268 -0.889115 -0.371541
vn 0.286338 -0.881825 -0.374694
vn 0.011672 -0.761220 -0.648388
vn 0.504894 -0.623515 0.596918
vn 0.635751 -0.437880 0.635674
vn -0.279836 -0.264567 0.922874
vn -0.174051 -0.504709 0.845562
vn -0.939362 -0.323292 0.114375
vn -0.244505 -0.027453 -0.969259
vn -0.316026 -0.332818 0.888459
vn -0.509200 -0.720470 0.470786
vn -0.350591 0.161406 0.922515
vn -0.335829 0.055001 0.940316
vn -0.653941 -0.097920 0.750182
vn 0.115398 -0.100154 0.988257
vn -0.072842 -0.013836 0.997248
vn -0.259853 0.469174 -0.844009
vn -0.242945 0.037825 -0.969302
vn -0.230738 -0.337751 0.912515
vn -0.454938 0.873068 -0.175453
vn -0.071033 -0.017688 0.997317
vn -0.306275 0.507033 -0.805676
vn -0.270689 0.006064 0.962648
vn -0.248416 0.485749 0.838056
vn -0.426528 0.759832 0.490642
vn -0.062500 0.435161 0.898181
vn -0.054299 0.426412 0.902898
vn -0.608474 0.409107 0.679993
vn -0.705275 0.606614 -0.366889
vn -0.378528 0.659748 -0.649192
vn -0.183209 0.785439 -0.591202
vn -0.355536 0.749516 0.558409
vn -0.538430 0.774706 -0.331547
vn -0.689247 0.653891 -0.312034
vn -0.301515 0.572964 -0.762103
vn -0.210590 0.655652 -0.725102
vn -0.295898 0.519363 -0.801690
vn 0.181326 0.121297 0.975914
vn -0.664635 0.005487 0.747148
vn -0.918770 0.249658 -0.305831
vn -0.404019 0.183618 -0.896132
vn 0.179005 0.140607 0.973749
vn 0.110231 0.067578 0.991606
vn -0.820030 0.309909 0.481152
vn -0.653340 0.231025 0.720954
vn -0.629384 0.258647 0.732787
vn -0.970462 0.134459 -0.200311
vn -0.399714 0.179141 -0.898965
vn -0.893273 0.331822 -0.303245
vn -0.728496 0.088047 -0.679368
vn -0.399910 0.176367 -0.899426
vn 0.208908 -0.056271 -0.976315
vn 0.012363 0.019526 0.999733
vn -0.801695 0.300681 0.516600
vn -0.849633 0.079415 -0.521360
vn -0.580802 -0.011387 -0.813965
vn -0.630628 0.123309 0.766226
vn -0.766636 0.545780 -0.338220
vn -0.616721 0.415450 0.668623
vn -0.658074 -0.062523 -0.750353
vn -0.937947 0.343686 -0.046209
vn 0.644893 0.010230 -0.764205
vn 0.004176 -0.999866 0.015821
vn -0.746649 -0.636154 -0.194484
vn -0.911004 -0.170387 0.375554
vn -0.587489 -0.189199 0.786804
vn -0.301300 0.068584 0.951060
vn -0.996751 -0.080017 0.009244
vn -0.938669 -0.190828 -0.287203
vn -0.868998 -0.200652 -0.452307
vn -0.324828 -0.838714 0.437088
vn -0.347753 0.177876 0.920559
vn -0.966258 -0.039572 0.254517
vn -0.997848 0.025703 0.060326
vn -0.009946 0.900063 0.435647
vn -0.601002 0.317176 0.733618
vn -0.780397 0.324448 0.534522
vn -0.791644 0.329149 0.514744
vn -0.620968 -0.201261 0.757558
vn -0.459846 -0.280824 0.842425
vn -0.107269 0.913992 0.391295
vn -0.143873 -0.031292 0.989101
vn -0.358080 -0.695188 0.623292
vn -0.662755 0.010792 0.748759
vn -0.387886 -0.840041 -0.379310
vn -0.973674 0.007871 0.227809
vn -0.010017 -0.999404 -0.033029
vn -0.644973 0.129599 0.753136
vn -0.894720 0.067717 0.441464
vn -0.231301 -0.961262 -0.149918
vn -0.480329 0.021812 0.876817
vn -0.928401 0.073839 -0.364171
vn -0.844822 0.204913 -0.494253
vn -0.851700 -0.303279 0.427351
vn -0.309240 -0.438405 0.843903
vn -0.905658 -0.131552 0.403085
vn -0.213688 -0.315331 0.924610
vn -0.586840 0.709578 0.390023
vn -0.996955 0.069535 0.035300
vn -0.899239 0.435597 0.040307
vn -0.791590 0.602493 0.101915
vn -0.622101 0.302899 0.721971
vn -0.377759 0.397467 -0.836252
vn -0.262449 0.484368 -0.834571
vn -0.120315 0.981526 -0.148766
vn 0.023576 0.960196 -0.278332
vn -0.875194 0.038795 0.482214
vn -0.709595 0.226276 0.667289
vn -0.681994 -0.192378 -0.705602
vn -0.922677 0.297530 -0.245242
vn 0.993770 0.106961 0.031298
vn -0.940018 0.013682 0.340850
vn -0.714538 0.047840 -0.697959
vn 0.574879 -0.398006 -0.714917
vn -0.183938 -0.087838 0.979005
vn 0.015089 -0.619883 -0.784549
vn 0.416379 -0.676580 -0.607345
vn -0.895648 -0.438704 -0.073170
vn -0.927245 -0.339764 0.157404
vn -0.942014 -0.150498 0.299933
vn -0.554980 0.378088 0.740977
vn -0.238827 0.926596 -0.290483
vn 0.585352 0.617646 -0.525239
vn -0.114583 0.734266 -0.669122
vn 0.858695 0.254549 0.444802
vn 0.438324 -0.318570 -0.840467
vn 0.430606 -0.328027 -0.840819
vn -0.814503 0.098931 -0.571662
vn -0.777959 -0.145493 -0.611238
vn -0.930718 0.041662 0.363357
vn -0.943098 0.059796 0.327093
vn -0.074834 0.233494 0.969474
vn 0.901079 -0.420946 0.104216
vn 0.568979 -0.343939 -0.746973
vn 0.544126 -0.505107 -0.669921
vn -0.825743 -0.196364 -0.528763
vn -0.725359 0.007003 -0.688335
vn -0.925165 0.184842 0.331517
vn -0.920639 0.163838 0.354373
vn -0.195357 0.000391 0.980732
vn -0.083221 0.086744 0.992749
vn 0.773273 -0.315160 0.550203
vn -0.826429 0.022967 -0.562573
vn 0.436559 -0.313906 -0.843137
vn 0.899187 -0.186599 0.395783
vn 0.017985 -0.037903 0.999120
vn 0.935105 -0.108964 0.337202
vn -0.145718 -0.132023 0.980478
vn -0.743859 0.095193 -0.661522
vn 0.578409 -0.335990 -0.743339
vn 0.173451 -0.760919 -0.625233
vn 0.281586 -0.717106 -0.637549
vn -0.670978 -0.705155 0.229225
vn -0.790019 -0.492051 0.365727
vn -0.492738 0.318063 0.809966
vn -0.551622 0.279978 0.785701
vn 0.294924 0.750420 0.591515
vn 0.345149 0.767744 0.539853
vn 0.805555 -0.162839 -0.569705
vn 0.851328 0.156956 -0.500604
vn -0.238773 -0.210133 0.948067
vn 0.668215 0.425970 0.609950
vn 0.100387 0.993599 -0.051795
vn 0.262233 0.964460 -0.032424
vn 0.234727 0.971856 -0.019955
vn 0.472897 0.866732 0.158571
vn 0.554130 0.822460 0.128446
vn -0.513702 0.273873 0.813083
vn -0.661168 -0.106824 0.742594
vn 0.139748 -0.753174 -0.642805
vn -0.030668 -0.977047 0.210805
vn 0.267279 -0.801094 -0.535546
vn 0.166804 -0.841385 -0.514050
vn 0.576825 -0.737907 -0.350380
vn 0.332201 0.422136 -0.843471
vn -0.047226 0.992423 0.113428
vn 0.322087 0.855880 0.404635
vn 0.677890 -0.281754 -0.679029
vn 0.708001 -0.272953 -0.651331
vn -0.597785 0.098872 0.795536
vn -0.631758 0.107683 0.767650
vn 0.326989 0.845753 0.421640
vn -0.465505 0.033370 0.884416
vn -0.729136 -0.683451 0.035429
vn -0.633552 -0.773688 -0.004348
vn 0.695856 -0.273532 -0.664052
vn -0.635584 0.353590 0.686300
vn 0.762175 -0.363734 -0.535525
vn 0.028629 -0.605782 -0.795116
vn -0.869056 -0.490330 -0.065708
vn 0.480035 0.208963 0.851998
vn -0.668630 0.146439 0.729033
vn -0.763408 -0.616902 -0.191416
vn -0.201186 0.829411 0.521154
vn -0.209665 0.819930 0.532686
vn 0.725604 -0.291473 -0.623331
vn 0.300400 0.861285 0.409815
vn -0.541314 0.037459 0.839986
vn -0.624988 -0.763111 0.164474
vn 0.904876 0.150889 -0.398036
vn -0.511432 0.365521 -0.777709
vn -0.557986 0.327737 -0.762391
vn -0.856792 -0.027422 0.514932
vn -0.823771 -0.106479 0.556834
vn 0.572435 -0.162172 0.803753
vn 0.470551 -0.276155 0.838045
vn -0.918104 -0.234914 0.319218
vn 0.516226 -0.092386 0.851455
vn -0.496034 -0.088317 -0.863800
vn -0.792579 -0.319568 0.519321
vn -0.785012 -0.208124 0.583473
vn 0.325302 -0.458781 0.826861
vn -0.895045 0.110206 0.432144
vn 0.533320 -0.400571 0.745059
vn 0.889908 0.179994 -0.419124
vn -0.837240 0.052052 0.544352
vn 0.560522 -0.250604 0.789312
vn -0.845025 0.040995 0.533153
vn -0.693009 0.181826 -0.697623
vn -0.471222 -0.024642 -0.881670
vn 0.072630 -0.069182 -0.994957
vn 0.764481 -0.338849 -0.548407
vn 0.579419 -0.284829 0.763640
vn 0.956470 -0.242538 -0.162297
vn -0.569184 0.349460 -0.744250
vn -0.874210 0.130272 0.467747
vn 0.544349 -0.043804 0.837714
vn 0.877204 0.226412 -0.423381
vn -0.712829 0.091087 -0.695398
vn 0.939432 -0.004891 -0.342700
vn 0.895397 -0.027065 -0.444445
vn -0.501334 0.019256 -0.865039
vn -0.820995 -0.249343 0.513610
vn -0.946081 -0.101624 0.307577
vn 0.622531 -0.239503 0.745046
vn 0.574063 -0.268281 0.773613
vn 0.870167 0.323989 -0.371269
vn 0.222978 0.162512 -0.961182
vn 0.978106 -0.166065 0.125424
vn -0.881234 -0.027756 -0.471864
vn -0.022529 -0.997102 -0.072664
vn -0.031248 -0.996998 -0.070843
vn -0.710018 0.674101 0.203623
vn -0.569151 0.349031 -0.744476
vn 0.606094 0.534918 0.588653
vn -0.722454 0.671747 0.163756
vn 0.712495 0.510056 0.481865
vn -0.003697 -0.998270 -0.058687
vn -0.029778 -0.998754 -0.040054
vn -0.648014 0.756972 0.084092
vn 0.664982 0.676758 0.315907
vn -0.060384 -0.991538 -0.114917

f 1/1/1 2/2/1 3/3/1
f 4/4/2 5/5/2 6/6/2
f 4/4/3 6/7/3 7/8/3
f 5/9/4 8/10/4 9/11/4
f 10/12/5 11/13/5 9/14/5
f 6/6/6 11/15/6 7/8/6
f 6/6/7 12/16/7 11/13/7
f 12/17/8 5/5/8 9/14/8
f 6/6/9 5/5/9 12/17/9
f 11/13/10 12/18/10 9/19/10
f 13/20/11 14/21/11 15/22/11
f 14/21/12 13/20/12 16/23/12
f 16/24/13 13/20/13 17/25/13
f 15/22/14 14/21/14 18/26/14
f 14/21/15 19/27/15 18/26/15
f 18/26/16 20/28/16 21/29/16
f 18/26/17 19/27/17 20/28/17
f 20/28/18 3/30/18 21/29/18
f 5/9/19 22/31/19 23/32/19
f 24/33/20 25/34/20 26/35/20
f 27/36/21 25/34/21 9/37/21
f 28/38/22 27/39/22 29/40/22
f 30/41/23 25/34/23 24/33/23
f 25/34/24 30/41/24 10/42/24
f 30/41/25 24/33/25 31/43/25
f 24/33/26 26/44/26 32/45/26
f 33/46/27 34/47/27 5/9/27
f 4/4/28 22/31/28 5/9/28
f 26/35/29 25/34/29 27/39/29
f 33/46/30 35/48/30 34/47/30
f 32/45/31 26/35/31 28/38/31
f 23/32/32 33/46/32 5/9/32
f 26/35/33 27/39/33 28/38/33
f 28/38/34 29/40/34 36/49/34
f 35/50/35 37/51/35 29/40/35
f 28/38/36 38/52/36 32/45/36
f 36/49/37 38/52/37 28/38/37
f 36/49/38 37/53/38 39/54/38
f 39/55/39 37/56/39 40/57/39
f 41/58/40 42/59/40 39/55/40
f 39/55/41 40/57/41 41/58/41
f 36/49/42 29/40/42 37/51/42
f 37/56/43 35/48/43 33/46/43
f 37/56/44 33/46/44 40/57/44
f 40/57/45 33/46/45 43/60/45
f 40/57/46 43/60/46 41/58/46
f 33/46/47 23/32/47 43/60/47
f 44/61/48 45/62/48 30/63/48
f 15/64/49 46/65/49 45/62/49
f 46/66/50 47/67/50 10/68/50
f 47/67/51 7/69/51 11/70/51
f 45/62/52 44/61/52 17/71/52
f 44/61/53 30/63/53 31/72/53
f 13/73/54 15/64/54 45/62/54
f 46/65/55 10/74/55 45/62/55
f 45/62/56 10/74/56 30/63/56
f 47/67/57 11/70/57 10/68/57
f 47/67/58 48/75/58 7/69/58
f 46/66/59 15/76/59 47/67/59
f 18/77/60 47/67/60 15/76/60
f 47/67/61 18/77/61 48/75/61
f 18/77/62 21/78/62 48/75/62
f 13/73/63 45/62/63 17/71/63
f 49/79/64 35/50/64 29/40/64
f 8/80/65 27/81/65 9/82/65
f 34/47/66 50/83/66 5/84/66
f 27/36/67 49/79/67 29/40/67
f 35/48/68 51/85/68 52/86/68
f 35/50/69 49/79/69 51/87/69
f 52/86/70 50/83/70 34/47/70
f 35/48/71 52/86/71 34/47/71
f 5/84/72 50/83/72 8/10/72
f 53/88/73 27/81/73 8/80/73
f 53/88/74 49/79/74 27/36/74
f 54/89/75 55/90/75 56/91/75
f 57/92/76 55/90/76 58/93/76
f 59/94/77 60/95/77 55/90/77
f 61/96/78 54/89/78 56/91/78
f 39/97/79 61/96/79 36/98/79
f 36/98/80 61/96/80 56/91/80
f 36/98/81 56/91/81 38/99/81
f 62/100/82 63/101/82 64/102/82
f 65/103/83 64/102/83 54/89/83
f 61/96/84 65/103/84 54/89/84
f 66/104/85 67/105/85 62/100/85
f 55/90/86 60/95/86 68/106/86
f 69/107/87 68/106/87 60/95/87
f 69/107/88 70/108/88 68/106/88
f 58/109/89 55/90/89 68/106/89
f 68/106/90 71/110/90 58/111/90
f 62/100/91 67/105/91 63/101/91
f 64/102/92 63/101/92 69/107/92
f 70/108/93 71/110/93 68/106/93
f 58/111/94 71/110/94 72/112/94
f 56/91/95 57/92/95 38/113/95
f 55/90/96 57/114/96 56/91/96
f 73/115/97 74/116/97 38/113/97
f 58/109/98 72/112/98 73/115/98
f 57/117/99 58/111/99 73/115/99
f 57/92/100 73/115/100 38/113/100
f 73/115/101 72/112/101 74/116/101
f 39/97/102 75/118/102 61/96/102
f 75/118/103 39/97/103 76/119/103
f 64/102/104 59/94/104 54/89/104
f 64/102/105 60/95/105 59/94/105
f 54/89/106 59/94/106 55/90/106
f 64/102/107 69/107/107 60/95/107
f 65/103/108 66/104/108 62/100/108
f 65/103/109 61/96/109 75/118/109
f 75/118/110 76/119/110 65/103/110
f 66/104/111 65/103/111 76/119/111
f 62/100/112 64/102/112 65/103/112
f 39/97/113 42/120/113 76/119/113
f 77/121/114 76/119/114 42/120/114
f 67/105/115 76/119/115 77/121/115
f 66/104/116 76/119/116 67/105/116
f 9/82/117 25/34/117 10/42/117
f 51/122/118 49/123/118 78/124/118
f 79/125/119 50/126/119 52/127/119
f 52/127/120 51/122/120 79/125/120
f 80/128/121 81/129/121 53/130/121
f 51/122/122 78/124/122 79/125/122
f 82/131/123 50/126/123 79/125/123
f 50/126/124 82/131/124 8/132/124
f 53/133/125 78/124/125 49/123/125
f 83/134/126 84/135/126 85/136/126
f 84/135/127 83/134/127 86/137/127
f 86/137/128 87/138/128 84/135/128
f 88/139/129 84/135/129 87/138/129
f 87/138/130 89/140/130 88/139/130
f 90/141/131 88/139/131 89/140/131
f 91/142/132 92/143/132 90/141/132
f 90/141/133 89/140/133 91/142/133
f 85/136/134 92/144/134 91/145/134
f 91/145/135 83/134/135 85/136/135
f 80/128/136 93/146/136 83/134/136
f 94/147/137 83/134/137 93/146/137
f 93/146/138 87/138/138 94/147/138
f 87/138/139 93/146/139 95/148/139
f 95/148/140 96/149/140 87/138/140
f 89/140/141 87/138/141 96/149/141
f 97/150/142 91/142/142 89/140/142
f 97/151/143 81/129/143 80/128/143
f 8/132/144 82/131/144 80/128/144
f 93/146/145 80/128/145 98/152/145
f 98/152/146 95/148/146 93/146/146
f 95/148/147 82/131/147 79/125/147
f 79/125/148 78/124/148 95/148/148
f 96/149/149 95/148/149 78/124/149
f 78/124/150 53/133/150 81/153/150
f 81/153/151 96/149/151 78/124/151
f 80/128/152 53/130/152 8/154/152
f 94/147/153 87/138/153 86/137/153
f 86/137/154 83/134/154 94/147/154
f 97/151/155 83/134/155 91/145/155
f 89/140/156 96/149/156 97/150/156
f 80/128/157 83/134/157 97/151/157
f 81/153/158 97/150/158 96/149/158
f 82/131/159 95/148/159 98/152/159
f 98/152/160 80/128/160 82/131/160
f 85/136/161 99/155/161 100/156/161
f 99/155/162 85/136/162 84/135/162
f 84/135/163 101/157/163 99/155/163
f 101/157/164 84/135/164 88/139/164
f 88/139/165 90/141/165 101/157/165
f 102/158/166 101/157/166 90/141/166
f 90/141/167 103/159/167 102/158/167
f 103/159/168 90/141/168 92/143/168
f 92/144/169 85/136/169 103/160/169
f 100/156/170 103/160/170 85/136/170
f 104/161/171 105/162/171 106/163/171
f 107/164/172 106/163/172 108/165/172
f 109/166/173 110/167/173 103/168/173
f 109/166/174 111/169/174 104/161/174
f 104/161/175 110/167/175 109/166/175
f 104/161/176 111/169/176 112/170/176
f 113/171/177 112/170/177 111/169/177
f 106/163/178 110/167/178 104/161/178
f 104/161/179 112/170/179 105/162/179
f 105/172/180 113/173/180 111/174/180
f 113/173/181 105/172/181 112/175/181
f 105/172/182 111/174/182 109/176/182
f 109/176/183 106/177/183 105/172/183
f 109/176/184 100/178/184 106/177/184
f 103/179/185 100/178/185 109/176/185
f 102/180/186 103/168/186 110/167/186
f 106/163/187 114/181/187 108/165/187
f 115/182/188 116/183/188 106/177/188
f 116/184/189 117/185/189 118/186/189
f 108/165/190 114/181/190 119/187/190
f 119/187/191 120/188/191 108/165/191
f 118/189/192 121/190/192 114/191/192
f 114/191/193 121/190/193 117/192/193
f 116/193/194 115/194/194 119/187/194
f 120/188/195 119/187/195 115/194/195
f 121/195/196 118/186/196 117/185/196
f 108/165/197 101/196/197 102/180/197
f 115/182/198 106/177/198 100/178/198
f 100/178/199 99/197/199 115/182/199
f 120/188/200 99/198/200 101/196/200
f 106/163/201 107/164/201 110/167/201
f 108/165/202 120/188/202 101/196/202
f 120/188/203 115/194/203 99/198/203
f 107/164/204 102/180/204 110/167/204
f 102/180/205 107/164/205 108/165/205
f 118/199/206 106/177/206 116/183/206
f 114/181/207 106/163/207 118/200/207
f 114/191/208 117/192/208 119/201/208
f 117/192/209 116/202/209 119/201/209
f 122/203/210 123/204/210 124/205/210
f 125/206/211 126/207/211 123/208/211
f 125/206/212 123/208/212 127/209/212
f 125/210/213 128/211/213 126/212/213
f 128/211/214 129/213/214 126/212/214
f 128/214/215 124/215/215 129/216/215
f 122/217/216 124/215/216 128/214/216
f 130/218/217 128/211/217 125/219/217
f 131/220/218 122/221/218 130/222/218
f 132/223/219 125/224/219 127/225/219
f 132/226/220 131/227/220 125/219/220
f 133/228/221 131/227/221 132/226/221
f 133/229/222 122/221/222 131/220/222
f 130/218/223 125/219/223 131/227/223
f 128/214/224 130/222/224 122/221/224
f 127/209/225 123/204/225 122/203/225
f 16/230/226 133/228/226 14/231/226
f 16/232/227 3/3/227 133/229/227
f 14/231/228 133/228/228 132/226/228
f 14/233/229 132/223/229 19/234/229
f 132/223/230 127/225/230 19/234/230
f 20/235/231 19/234/231 127/225/231
f 20/235/232 127/225/232 122/236/232
f 3/3/233 122/221/233 133/229/233
f 3/237/234 20/235/234 122/236/234
f 134/238/235 135/239/235 136/240/235
f 137/241/236 135/242/236 134/243/236
f 138/244/237 139/245/237 137/246/237
f 138/247/238 136/248/238 139/249/238
f 134/238/239 136/240/239 123/208/239
f 138/247/240 123/250/240 136/248/240
f 123/250/241 138/247/241 124/251/241
f 134/238/242 123/208/242 126/252/242
f 129/253/243 134/243/243 126/254/243
f 137/241/244 134/243/244 129/253/244
f 138/244/245 137/246/245 129/255/245
f 138/244/246 129/255/246 124/256/246
f 136/257/247 140/258/247 139/259/247
f 136/257/248 141/260/248 140/258/248
f 142/261/249 139/259/249 140/258/249
f 135/262/250 143/263/250 141/260/250
f 141/264/251 143/265/251 142/266/251
f 142/266/252 140/267/252 141/264/252
f 137/268/253 143/263/253 135/262/253
f 135/262/254 141/260/254 136/257/254
f 139/259/255 142/261/255 137/268/255
f 137/268/256 144/269/256 143/263/256
f 137/268/257 142/261/257 144/269/257
f 143/265/258 145/270/258 146/271/258
f 146/271/259 142/266/259 143/265/259
f 143/263/260 144/269/260 145/272/260
f 144/269/261 146/273/261 145/272/261
f 146/273/262 144/269/262 142/261/262
f 3/274/263 16/275/263 17/276/263
f 147/5/264 4/4/264 148/6/264
f 148/7/265 4/4/265 7/8/265
f 149/10/266 147/9/266 150/11/266
f 151/13/267 152/12/267 150/14/267
f 151/15/268 148/6/268 7/8/268
f 153/16/269 148/6/269 151/13/269
f 147/5/270 153/17/270 150/14/270
f 147/5/271 148/6/271 153/17/271
f 153/18/272 151/13/272 150/19/272
f 154/21/273 155/20/273 156/22/273
f 155/20/274 154/21/274 157/23/274
f 155/20/275 157/24/275 17/25/275
f 154/21/276 156/22/276 158/26/276
f 159/27/277 154/21/277 158/26/277
f 160/28/278 158/26/278 21/29/278
f 159/27/279 158/26/279 160/28/279
f 3/30/280 160/28/280 21/29/280
f 22/31/281 147/9/281 23/32/281
f 161/34/282 24/33/282 162/35/282
f 161/34/283 163/36/283 150/37/283
f 163/39/284 164/38/284 165/40/284
f 161/34/285 166/41/285 24/33/285
f 166/41/286 161/34/286 152/42/286
f 24/33/287 166/41/287 31/43/287
f 162/44/288 24/33/288 32/45/288
f 167/47/289 168/46/289 147/9/289
f 22/31/290 4/4/290 147/9/290
f 161/34/291 162/35/291 163/39/291
f 169/48/292 168/46/292 167/47/292
f 162/35/293 32/45/293 164/38/293
f 168/46/294 23/32/294 147/9/294
f 163/39/295 162/35/295 164/38/295
f 165/40/296 164/38/296 170/49/296
f 171/51/297 169/50/297 165/40/297
f 38/52/298 164/38/298 32/45/298
f 38/52/299 170/49/299 164/38/299
f 171/53/300 170/49/300 172/54/300
f 171/56/301 172/55/301 173/57/301
f 42/59/302 41/58/302 172/55/302
f 173/57/303 172/55/303 41/58/303
f 165/40/304 170/49/304 171/51/304
f 169/48/305 171/56/305 168/46/305
f 168/46/306 171/56/306 173/57/306
f 168/46/307 173/57/307 43/60/307
f 43/60/308 173/57/308 41/58/308
f 23/32/309 168/46/309 43/60/309
f 174/62/310 44/61/310 166/63/310
f 175/65/311 156/64/311 174/62/311
f 176/67/312 175/66/312 152/68/312
f 7/69/313 176/67/313 151/70/313
f 44/61/314 174/62/314 17/71/314
f 166/63/315 44/61/315 31/72/315
f 156/64/316 155/73/316 174/62/316
f 152/74/317 175/65/317 174/62/317
f 152/74/318 174/62/318 166/63/318
f 151/70/319 176/67/319 152/68/319
f 48/75/320 176/67/320 7/69/320
f 156/76/321 175/66/321 176/67/321
f 176/67/322 158/77/322 156/76/322
f 158/77/323 176/67/323 48/75/323
f 21/78/324 158/77/324 48/75/324
f 174/62/325 155/73/325 17/71/325
f 169/50/326 177/79/326 165/40/326
f 163/81/327 149/80/327 150/82/327
f 178/83/328 167/47/328 147/84/328
f 177/79/329 163/36/329 165/40/329
f 179/85/330 169/48/330 180/86/330
f 177/79/331 169/50/331 179/87/331
f 178/83/332 180/86/332 167/47/332
f 180/86/333 169/48/333 167/47/333
f 178/83/334 147/84/334 149/10/334
f 163/81/335 181/88/335 149/80/335
f 177/79/336 181/88/336 163/36/336
f 182/90/337 183/89/337 184/91/337
f 182/90/338 185/92/338 186/93/338
f 187/95/339 188/94/339 182/90/339
f 183/89/340 189/96/340 184/91/340
f 189/96/341 172/97/341 170/98/341
f 189/96/342 170/98/342 184/91/342
f 184/91/343 170/98/343 38/99/343
f 63/101/344 190/100/344 191/102/344
f 191/102/345 192/103/345 183/89/345
f 192/103/346 189/96/346 183/89/346
f 67/105/347 193/104/347 190/100/347
f 187/95/348 182/90/348 194/106/348
f 194/106/349 69/107/349 187/95/349
f 70/108/350 69/107/350 194/106/350
f 182/90/351 186/109/351 194/106/351
f 71/110/352 194/106/352 186/111/352
f 67/105/353 190/100/353 63/101/353
f 63/101/354 191/102/354 69/107/354
f 71/110/355 70/108/355 194/106/355
f 71/110/356 186/111/356 72/112/356
f 185/92/357 184/91/357 38/113/357
f 185/114/358 182/90/358 184/91/358
f 74/116/359 195/115/359 38/113/359
f 72/112/360 186/109/360 195/115/360
f 186/111/361 185/117/361 195/115/361
f 195/115/362 185/92/362 38/113/362
f 72/112/363 195/115/363 74/116/363
f 196/118/364 172/97/364 189/96/364
f 172/97/365 196/118/365 197/119/365
f 188/94/366 191/102/366 183/89/366
f 187/95/367 191/102/367 188/94/367
f 188/94/368 183/89/368 182/90/368
f 69/107/369 191/102/369 187/95/369
f 193/104/370 192/103/370 190/100/370
f 189/96/371 192/103/371 196/118/371
f 197/119/372 196/118/372 192/103/372
f 192/103/373 193/104/373 197/119/373
f 191/102/374 190/100/374 192/103/374
f 42/120/375 172/97/375 197/119/375
f 197/119/376 77/121/376 42/120/376
f 197/119/377 67/105/377 77/121/377
f 197/119/378 193/104/378 67/105/378
f 161/34/379 150/82/379 152/42/379
f 177/123/380 179/122/380 198/124/380
f 178/126/381 199/125/381 180/127/381
f 179/122/382 180/127/382 199/125/382
f 200/129/383 201/128/383 181/130/383
f 198/124/384 179/122/384 199/125/384
f 178/126/385 202/131/385 199/125/385
f 202/131/386 178/126/386 149/132/386
f 198/124/387 181/133/387 177/123/387
f 203/135/388 204/134/388 205/136/388
f 204/134/389 203/135/389 206/137/389
f 207/138/390 206/137/390 203/135/390
f 203/135/391 208/139/391 207/138/391
f 209/140/392 207/138/392 208/139/392
f 208/139/393 210/141/393 209/140/393
f 211/143/394 212/142/394 210/141/394
f 209/140/395 210/141/395 212/142/395
f 211/144/396 205/136/396 212/145/396
f 204/134/397 212/145/397 205/136/397
f 213/146/398 201/128/398 204/134/398
f 204/134/399 214/147/399 213/146/399
f 207/138/400 213/146/400 214/147/400
f 213/146/401 207/138/401 215/148/401
f 216/149/402 215/148/402 207/138/402
f 207/138/403 209/140/403 216/149/403
f 212/142/404 217/150/404 209/140/404
f 200/129/405 217/151/405 201/128/405
f 202/131/406 149/132/406 201/128/406
f 201/128/407 213/146/407 218/152/407
f 215/148/408 218/152/408 213/146/408
f 202/131/409 215/148/409 199/125/409
f 198/124/410 199/125/410 215/148/410
f 215/148/411 216/149/411 198/124/411
f 181/133/412 198/124/412 200/153/412
f 216/149/413 200/153/413 198/124/413
f 181/130/414 201/128/414 149/154/414
f 207/138/415 214/147/415 206/137/415
f 204/134/416 206/137/416 214/147/416
f 204/134/417 217/151/417 212/145/417
f 216/149/418 209/140/418 217/150/418
f 204/134/419 201/128/419 217/151/419
f 217/150/420 200/153/420 216/149/420
f 215/148/421 202/131/421 218/152/421
f 201/128/422 218/152/422 202/131/422
f 219/155/423 205/136/423 220/156/423
f 205/136/424 219/155/424 203/135/424
f 221/157/425 203/135/425 219/155/425
f 203/135/426 221/157/426 208/139/426
f 210/141/427 208/139/427 221/157/427
f 221/157/428 222/158/428 210/141/428
f 223/159/429 210/141/429 222/158/429
f 210/141/430 223/159/430 211/143/430
f 205/136/431 211/144/431 223/160/431
f 223/160/432 220/156/432 205/136/432
f 224/162/433 225/161/433 226/163/433
f 226/163/434 227/164/434 228/165/434
f 229/167/435 230/166/435 223/168/435
f 231/169/436 230/166/436 225/161/436
f 229/167/437 225/161/437 230/166/437
f 231/169/438 225/161/438 232/170/438
f 232/170/439 233/171/439 231/169/439
f 229/167/440 226/163/440 225/161/440
f 232/170/441 225/161/441 224/162/441
f 233/173/442 224/172/442 231/174/442
f 224/172/443 233/173/443 232/175/443
f 231/174/444 224/172/444 230/176/444
f 226/177/445 230/176/445 224/172/445
f 220/178/446 230/176/446 226/177/446
f 220/178/447 223/179/447 230/176/447
f 223/168/448 222/180/448 229/167/448
f 234/181/449 226/163/449 228/165/449
f 235/183/450 236/182/450 226/177/450
f 237/185/451 235/184/451 238/186/451
f 234/181/452 228/165/452 239/187/452
f 240/188/453 239/187/453 228/165/453
f 241/190/454 238/189/454 234/191/454
f 241/190/455 234/191/455 237/192/455
f 236/194/456 235/193/456 239/187/456
f 239/187/457 240/188/457 236/194/457
f 238/186/458 241/195/458 237/185/458
f 221/196/459 228/165/459 222/180/459
f 226/177/460 236/182/460 220/178/460
f 219/197/461 220/178/461 236/182/461
f 219/198/462 240/188/462 221/196/462
f 227/164/463 226/163/463 229/167/463
f 240/188/464 228/165/464 221/196/464
f 236/194/465 240/188/465 219/198/465
f 222/180/466 227/164/466 229/167/466
f 227/164/467 222/180/467 228/165/467
f 226/177/468 238/199/468 235/183/468
f 226/163/469 234/181/469 238/200/469
f 237/192/470 234/191/470 239/201/470
f 235/202/471 237/192/471 239/201/471
f 242/204/472 243/203/472 244/205/472
f 245/207/473 246/206/473 242/208/473
f 242/208/474 246/206/474 247/209/474
f 248/211/475 246/210/475 245/212/475
f 249/213/476 248/211/476 245/212/476
f 244/215/477 248/214/477 249/216/477
f 244/215/478 243/217/478 248/214/478
f 248/211/479 250/218/479 246/219/479
f 243/221/480 251/220/480 250/222/480
f 246/224/481 252/223/481 247/225/481
f 251/227/482 252/226/482 246/219/482
f 251/227/483 253/228/483 252/226/483
f 243/221/484 253/229/484 251/220/484
f 246/219/485 250/218/485 251/227/485
f 250/222/486 248/214/486 243/221/486
f 242/204/487 247/209/487 243/203/487
f 253/228/488 157/230/488 154/231/488
f 3/3/489 157/232/489 253/229/489
f 253/228/490 154/231/490 252/226/490
f 252/223/491 154/233/491 159/234/491
f 247/225/492 252/223/492 159/234/492
f 159/234/493 160/235/493 247/225/493
f 247/225/494 160/235/494 243/236/494
f 243/221/495 3/3/495 253/229/495
f 160/235/496 3/237/496 243/236/496
f 254/239/497 255/238/497 256/240/497
f 254/242/498 257/241/498 255/243/498
f 258/245/499 259/244/499 257/246/499
f 256/248/500 259/247/500 258/249/500
f 256/240/501 255/238/501 242/208/501
f 242/250/502 259/247/502 256/248/502
f 259/247/503 242/250/503 244/251/503
f 242/208/504 255/238/504 245/252/504
f 255/243/505 249/253/505 245/254/505
f 255/243/506 257/241/506 249/253/506
f 257/246/507 259/244/507 249/255/507
f 249/255/508 259/244/508 244/256/508
f 260/258/509 256/257/509 258/259/509
f 261/260/510 256/257/510 260/258/510
f 258/259/511 262/261/511 260/258/511
f 263/263/512 254/262/512 261/260/512
f 263/265/513 261/264/513 262/266/513
f 260/267/514 262/266/514 261/264/514
f 263/263/515 257/268/515 254/262/515
f 261/260/516 254/262/516 256/257/516
f 262/261/517 258/259/517 257/268/517
f 264/269/518 257/268/518 263/263/518
f 262/261/519 257/268/519 264/269/519
f 265/270/520 263/265/520 266/271/520
f 262/266/521 266/271/521 263/265/521
f 264/269/522 263/263/522 265/272/522
f 264/269/523 266/273/523 262/261/523
f 157/275/524 3/274/524 17/276/524

