mtllib anim_skel_walk_sword_000031.mtl

o msked
usemtl shield.001
s off

v -10.603310 36.282871 -0.245130
v -11.822781 36.591278 0.474060
v -8.348890 39.503662 20.879131
v -11.764610 35.174011 0.123040
v -10.218540 34.896210 0.576610
v -11.553750 36.111450 -0.108350
v -14.232921 39.247139 0.654940
v -11.105900 35.340611 -4.805000
v -12.150591 35.271530 -4.655110
v -12.287850 34.243652 -4.447210
v -7.719730 32.365150 1.071280
v -10.646320 35.152641 -0.050350
v -11.243160 34.312721 -4.597110

vt 0.856301 0.265607
vt 0.764624 0.294094
vt 0.850192 0.976825
vt 0.858158 0.265976
vt 0.949099 0.282658
vt 0.742843 0.255302
vt 0.692067 0.254404
vt 0.541488 0.402851
vt 0.893183 0.241135
vt 0.851577 0.242328
vt 0.847036 0.027305
vt 0.893183 0.027305
vt 0.742053 0.256467
vt 0.849952 0.242815
vt 0.544321 0.402080
vt 0.692550 0.250793
vt 0.800888 0.241135
vt 0.800888 0.027305
vt 0.697126 0.324563
vt 0.698569 0.321089

vn 0.149499 0.974964 -0.164607
vn -0.980219 -0.084554 0.178947
vn 0.972531 0.191086 -0.132925
vn -0.238442 -0.942105 0.235759
vn -0.159771 0.102486 -0.981820
vn -0.199320 0.963782 -0.177187
vn -0.089230 0.981467 -0.169592
vn -0.410015 -0.130590 -0.902681
vn -0.983244 0.151731 0.101038
vn -0.970191 0.233882 0.063465
vn -0.128020 -0.180160 -0.975271
vn 0.203726 -0.173793 -0.963479
vn 0.993659 -0.054738 -0.098211
vn 0.983245 -0.151727 -0.101039
vn -0.142391 -0.494510 -0.857429
vn 0.089223 -0.981467 0.169593
vn 0.011993 -0.980100 0.198143
vn -0.196840 -0.243312 0.949765
vn -0.297760 -0.108601 0.948443
vn 0.536315 0.437540 0.721751
vn 0.408923 0.546543 0.730803

f 1/1/1 2/2/1 3/3/1
f 3/3/2 2/2/2 4/4/2
f 1/1/3 3/3/3 5/5/3
f 3/3/4 4/4/4 5/5/4
f 1/6/5 6/7/5 7/8/5
f 6/9/6 1/10/6 8/11/6
f 8/11/7 9/12/7 6/9/7
f 7/8/8 6/7/8 4/13/8
f 6/9/9 9/12/9 10/11/9
f 10/11/10 4/14/10 6/9/10
f 9/12/11 8/11/11 10/11/11
f 1/6/12 11/15/12 12/16/12
f 8/11/13 1/10/13 12/17/13
f 8/11/14 12/17/14 13/18/14
f 11/15/15 4/13/15 12/16/15
f 12/17/16 10/11/16 13/18/16
f 10/11/17 12/17/17 4/14/17
f 13/18/11 10/11/11 8/11/11
f 4/13/18 2/19/18 7/8/18
f 11/15/19 5/20/19 4/13/19
f 2/19/20 1/6/20 7/8/20
f 1/6/21 5/20/21 11/15/21

