mtllib anim_skel_walk_000051.mtl

o msked
usemtl msked.001
s off

v 4.140530 39.315231 -0.321100
v 1.820360 38.985981 -2.858340
v 0.356520 37.523670 -0.218690
v 0.002780 32.328350 1.533000
v 0.591360 35.708050 -3.698960
v 4.377830 36.688789 2.954630
v 5.073130 37.989719 -1.107720
v -0.179750 46.044342 -1.608360
v 7.908600 19.314869 1.374330
v 9.019620 16.085131 0.086060
v 7.552070 16.182949 -0.772920
v 7.548860 19.465900 2.306850
v 8.037060 15.590971 1.422710
v 6.744910 19.194540 1.880410
v 6.435360 15.673220 0.544490
v 3.517380 35.736801 0.827800
v 8.154660 3.705380 -3.621520
v 9.744280 4.035000 -3.894090
v 8.021070 0.389820 -6.074490
v 9.226230 3.584150 -2.721680
v 10.564300 0.845480 -6.438800
v 9.013230 -1.012120 1.895470
v 12.704801 -0.299770 1.091940
v -3.263210 39.896568 -0.664570
v -0.779590 40.097099 -2.262140
v -4.350530 37.423889 2.048760
v -3.913730 38.363792 -0.852250
v -6.773100 20.051031 -0.043300
v -6.539070 16.819511 -2.323620
v -8.278171 16.933809 -1.537450
v -7.425820 16.183399 0.023770
v -6.528570 19.928480 1.073850
v -5.542770 19.741510 0.666020
v -5.543750 16.030951 -0.750040
v -2.532580 36.108299 0.465860
v -8.941030 4.824360 -6.064330
v -9.088990 1.510320 -8.560460
v -10.414600 5.000030 -5.887580
v -9.637381 4.680570 -4.992490
v -11.671391 1.798250 -8.283060
v -7.641950 -0.215620 -0.952220
v -11.525420 0.216640 -0.541550
v -1.864960 46.707283 4.076770
v -5.071190 43.333858 1.315680
v -0.261980 51.550850 4.517550
v 0.422760 55.634289 -2.632410
v -6.062890 55.764816 -1.623500
v -1.271960 56.462723 -0.030330
v -5.538120 54.210392 -2.390180
v -5.358830 54.303841 0.205880
v -0.160280 55.178940 0.538450
v -3.525190 53.374920 3.537200
v -0.092950 61.155380 1.708560
v -0.043810 61.520382 -0.478410
v 2.693310 56.757488 4.333760
v 0.410290 61.116848 6.748370
v -1.412830 56.319061 4.757930
v -3.092050 60.996269 4.286890
v -2.575200 60.522453 2.343080
v 2.533190 61.032219 1.944490
v -0.205530 66.808685 6.175110
v -2.547560 66.947716 4.121740
v -1.905940 64.657478 6.838750
v -3.396080 65.474274 1.686970
v -0.901600 67.655670 1.334330
v -3.740290 64.517838 4.610370
v -0.834990 65.713440 -0.034790
v 0.208850 64.742088 7.626720
v 1.331920 56.499893 0.423300
v 5.626330 56.285969 1.770940
v 5.088790 54.811531 -0.161780
v 4.456270 43.381020 1.183260
v 4.973760 54.772511 2.451720
v 3.733090 51.963390 4.231990
v 2.327220 45.378109 3.789860
v 3.289750 61.685699 3.697580
v 2.036150 65.104698 6.350260
v 1.482170 67.404922 3.622290
v 2.030570 66.115967 1.030310
v 3.262980 65.346512 3.764500
v 6.819250 46.523071 4.457000
v 8.406930 46.769337 3.348660
v 6.739470 46.719681 2.774700
v 8.731370 38.986019 9.601960
v 8.401850 38.396320 8.319810
v 8.707990 37.428822 12.765011
v 10.033081 36.809349 11.903360
v 6.994630 35.026619 11.316410
v 7.419910 34.438740 12.381860
v 9.696060 36.404461 13.452710
v 8.594240 37.091270 13.854639
v 8.480400 34.397369 10.427751
v 6.703400 45.087551 2.584960
v 6.750570 35.649750 12.013350
v -9.425140 46.430813 -4.094900
v -10.972580 47.550739 -4.523380
v -9.330770 47.069099 -5.112940
v -15.518940 39.077438 -1.416650
v -14.505950 39.368820 -0.170530
v -15.522050 36.322258 1.661360
v -16.708710 37.233681 1.950030
v -16.749580 34.912849 -0.521000
v -17.198389 34.181931 0.446560
v -15.181320 35.367931 1.489690
v -16.802919 35.246639 1.936810
v -18.219910 36.008789 -0.361330
v -10.597691 45.400600 -5.851500
v -15.729671 34.694229 -0.385140
v -0.606360 68.077408 4.102420

vt 0.041167 0.207596
vt 0.110151 0.210653
vt 0.155860 0.150950
vt 0.155860 0.004599
vt 0.155860 0.116597
vt 0.016826 0.121516
vt 0.041418 0.161189
vt 0.949447 0.134245
vt 0.995856 0.201252
vt 0.949499 0.409452
vt 0.551298 0.441597
vt 0.512470 0.342436
vt 0.575861 0.342435
vt 0.577815 0.441679
vt 0.612137 0.441505
vt 0.706701 0.502779
vt 0.696656 0.011408
vt 0.727269 0.011327
vt 0.645747 0.342436
vt 0.083576 0.100021
vt 0.929942 0.015737
vt 0.937563 0.081772
vt 0.976707 -0.002805
vt 0.541706 0.010011
vt 0.576207 0.008899
vt 0.614144 0.010012
vt 0.986514 0.082171
vt 0.745226 0.025720
vt 0.759970 0.153483
vt 0.893974 0.060016
vt 0.657033 0.011235
vt 0.644583 0.533150
vt 0.661859 0.447959
vt 0.577221 0.401965
vt 0.605389 0.404491
vt 0.544413 0.404514
vt 0.578392 0.404501
vt 0.041816 0.207204
vt 0.110952 0.210261
vt 0.017475 0.121124
vt 0.042068 0.160797
vt 0.903194 0.201252
vt 0.551124 0.441597
vt 0.575687 0.342435
vt 0.512296 0.342436
vt 0.577641 0.441679
vt 0.611963 0.441505
vt 0.706340 0.502779
vt 0.726909 0.011327
vt 0.696296 0.011408
vt 0.645573 0.342436
vt 0.084225 0.099629
vt 0.929963 0.015912
vt 0.976727 -0.002629
vt 0.937584 0.081947
vt 0.541532 0.010012
vt 0.576032 0.008899
vt 0.613969 0.010012
vt 0.986534 0.082346
vt 0.745246 0.025895
vt 0.759991 0.153658
vt 0.893994 0.060191
vt 0.656672 0.011235
vt 0.644015 0.533150
vt 0.661498 0.447959
vt 0.381082 0.518613
vt 0.473854 0.521496
vt 0.487486 0.708873
vt 0.014451 0.867957
vt 0.259309 0.958815
vt 0.064134 0.963664
vt 0.200040 0.895796
vt 0.262305 0.513873
vt 0.313315 0.867634
vt 0.208224 0.890630
vt 0.254415 0.957943
vt 0.481717 0.903440
vt 0.370073 0.709764
vt 0.432103 0.963629
vt 0.836118 0.400333
vt 0.829257 0.200049
vt 0.882028 0.148045
vt 0.017902 0.579199
vt 0.380473 0.519374
vt 0.489377 0.709146
vt 0.475746 0.521769
vt 0.017213 0.579344
vt 0.264196 0.514145
vt 0.202500 0.892108
vt 0.781778 0.385894
vt 0.843708 0.501773
vt 0.780162 0.719667
vt 0.716616 0.501773
vt 0.693215 0.695775
vt 0.686544 0.686130
vt 0.862344 0.686130
vt 0.780162 0.918634
vt 0.727648 0.914313
vt 0.726518 0.864095
vt 0.644622 0.875516
vt 0.727648 0.913360
vt 0.668670 0.934651
vt 0.662812 0.686130
vt 0.774444 0.696650
vt 0.675135 0.851794
vt 0.754605 0.153718
vt 0.774442 0.685255
vt 0.570516 0.685255
vt 0.557177 0.894376
vt 0.780162 0.858665
vt 0.378581 0.519101
vt 0.264520 0.510851
vt 0.867108 0.695776
vt 0.833805 0.864094
vt 0.832675 0.914313
vt 0.876407 0.940368
vt 0.829816 0.915266
vt 0.903910 0.879089
vt 0.886077 0.686130
vt 0.885188 0.851794
vt 0.978370 0.902000
vt 0.970745 0.689067
vt 0.015051 0.437421
vt 0.483254 0.495410
vt 0.019651 0.499739
vt 0.485816 0.465265
vt 0.061328 0.470496
vt 0.456904 0.444276
vt 0.016578 0.361735
vt 0.497541 0.430257
vt 0.497522 0.315677
vt 0.030493 0.438014
vt 0.305714 0.121311
vt 0.311705 0.269102
vt 0.476265 0.265798
vt 0.311331 0.122120
vt 0.478135 0.269445
vt 0.474964 0.122436
vt 0.461620 0.035542
vt 0.280508 0.010562
vt 0.320302 0.079754
vt 0.253177 0.093723
vt 0.315903 0.079819
vt 0.472325 0.121974
vt 0.070278 0.285701
vt 0.920818 0.191822
vt 0.868261 0.170952
vt 0.860894 0.212089
vt 0.752496 0.179666
vt 0.862106 0.210890
vt 0.867519 0.168135
vt 0.459195 0.079729
vt 0.317137 0.081379
vt 0.314453 0.074899
vt 0.488803 0.132862
vt 0.016472 0.437484
vt 0.021071 0.499801
vt 0.484674 0.495472
vt 0.487236 0.465328
vt 0.062748 0.470559
vt 0.458325 0.444339
vt 0.023005 0.360749
vt 0.503948 0.314690
vt 0.503967 0.429270
vt 0.036919 0.437028
vt 0.076705 0.284714
vt 0.780162 0.976831
vt 0.780162 0.974925
vt 0.774444 0.978737

vn -0.407572 0.875653 0.259070
vn 0.939735 -0.325522 -0.104561
vn -0.327132 0.725553 0.605441
vn -0.551800 0.299944 0.778171
vn 0.499344 0.674233 -0.544119
vn 0.830944 0.140112 0.538425
vn 0.470783 0.461798 -0.751735
vn 0.810807 -0.031210 0.584481
vn -0.379867 0.552106 -0.742213
vn 0.926159 0.188245 0.326794
vn 0.926665 0.184245 0.327637
vn -0.783049 0.279605 -0.555567
vn 0.699482 -0.713719 0.036477
vn -0.253183 0.581951 -0.772808
vn 0.496805 0.298983 -0.814735
vn 0.919888 -0.043429 0.389769
vn 0.821439 -0.133718 0.554399
vn -0.464128 -0.349932 0.813715
vn -0.216015 0.574400 -0.789558
vn -0.992263 -0.045489 0.115522
vn 0.900209 0.388451 -0.196797
vn 0.146183 -0.970993 -0.189216
vn 0.146871 -0.970918 -0.189071
vn -0.778156 0.103834 -0.619428
vn -0.207084 0.208231 -0.955906
vn -0.631998 -0.308049 0.711115
vn 0.373751 0.798358 0.472160
vn 0.016966 0.708214 0.705794
vn -0.448021 0.643850 0.620269
vn -0.475157 -0.252209 0.842981
vn -0.365182 -0.301976 0.880598
vn -0.354142 -0.300186 -0.885704
vn 0.462050 -0.047546 -0.885579
vn 0.617727 0.221642 0.754512
vn -0.798865 0.598982 0.055089
vn 0.855326 0.432684 0.284959
vn -0.157291 0.703791 0.692776
vn 0.418761 -0.576900 -0.701303
vn -0.943140 -0.165678 0.288164
vn -0.459574 -0.033193 0.887519
vn 0.361243 0.672445 0.646004
vn -0.945325 -0.214998 -0.245228
vn 0.326159 0.629975 0.704806
vn 0.413845 0.265424 0.870794
vn -0.530528 0.321214 -0.784450
vn -0.857134 0.029921 0.514224
vn -0.098479 0.281688 -0.954439
vn -0.170841 0.124675 -0.977379
vn -0.319928 0.530675 -0.784876
vn -0.862189 0.065725 0.502304
vn 0.521449 0.516854 -0.678935
vn -0.914546 0.328348 0.236204
vn -0.960469 0.160031 0.227791
vn 0.869393 0.175977 -0.461722
vn -0.729595 -0.587970 -0.349259
vn -0.023938 0.602144 -0.798029
vn -0.361116 0.375755 -0.853465
vn -0.770751 -0.124322 0.624889
vn -0.880624 -0.014977 0.473579
vn 0.299655 -0.481433 0.823669
vn -0.018329 0.603565 -0.797103
vn 0.982299 0.082727 -0.168061
vn -0.946973 0.310841 0.081361
vn -0.128943 -0.972057 -0.196162
vn -0.129423 -0.972047 -0.195895
vn 0.844632 -0.002186 -0.535342
vn -0.076588 0.310782 -0.947391
vn 0.803411 -0.360968 0.473533
vn -0.364982 0.730230 0.577540
vn 0.151362 0.665104 0.731250
vn 0.602666 0.639496 0.477324
vn 0.336360 -0.328093 0.882733
vn 0.303798 -0.339765 0.890093
vn 0.442531 -0.228300 -0.867205
vn -0.421970 0.025854 -0.906241
vn -0.529760 0.162120 0.832509
vn 0.719507 0.621594 0.309727
vn -0.919956 0.391850 -0.011561
vn 0.079353 0.538742 0.838725
vn -0.305019 -0.442644 -0.843225
vn 0.921787 -0.165246 0.350716
vn 0.372382 -0.057160 0.926318
vn 0.747564 -0.189475 -0.636591
vn -0.030962 0.946411 -0.321478
vn -0.132840 0.401993 -0.905956
vn -0.997394 -0.019114 0.069571
vn -0.166109 0.738377 0.653611
vn -0.597790 -0.084336 0.797204
vn -0.284219 0.006815 0.958735
vn -0.329765 0.128803 0.935235
vn -0.582045 -0.149920 0.799217
vn -0.015271 -0.105219 -0.994332
vn 0.203910 0.720822 0.662447
vn 0.630503 -0.573028 0.523550
vn -0.352043 -0.315374 -0.881252
vn -0.971243 0.237423 0.017802
vn 0.137725 -0.423743 0.895251
vn -0.567901 -0.121910 0.814018
vn -0.017419 -0.501688 -0.864873
vn -0.509746 0.594710 0.621675
vn -0.660469 0.721851 -0.206669
vn -0.177229 0.918434 0.353650
vn -0.872617 0.026457 0.487688
vn -0.923669 -0.347813 -0.160816
vn 0.023794 -0.752793 -0.657827
vn -0.963239 -0.157308 -0.217774
vn -0.967522 -0.183435 -0.173934
vn -0.807251 0.145346 -0.572032
vn 0.206261 -0.965889 -0.156570
vn -0.730981 -0.066070 -0.679192
vn -0.330556 -0.239548 0.912880
vn -0.561759 -0.177627 0.808007
vn 0.143826 0.940093 -0.309095
vn 0.442055 0.649621 -0.618531
vn 0.997809 -0.050135 0.043169
vn -0.270229 0.489457 0.829101
vn 0.879176 -0.091999 0.467531
vn 0.079642 -0.083693 0.993304
vn -0.638322 -0.576722 0.509840
vn -0.838354 -0.297828 -0.456575
vn -0.260941 0.372408 0.890630
vn 0.240854 -0.189096 0.951962
vn 0.447421 -0.122706 -0.885865
vn -0.028200 0.739013 0.673101
vn 0.456180 -0.128854 -0.880509
vn -0.031384 -0.985756 -0.165225
vn 0.727176 0.000608 0.686451
vn 0.500384 0.709314 0.496476
vn 0.410617 0.848090 -0.334867
vn -0.239543 0.592991 0.768753
vn 0.682282 -0.193002 0.705154
vn 0.926731 -0.156267 -0.341687
vn -0.037871 -0.488623 -0.871673
vn 0.916148 0.014021 -0.400595
vn 0.361462 -0.130282 -0.923240
vn 0.923907 0.193934 -0.329826
vn 0.959097 0.274927 0.067435
vn 0.690828 0.203744 -0.693719
vn 0.868321 -0.315837 0.382446
vn 0.727885 -0.007212 0.685662
vn -0.972384 -0.228766 -0.046213
vn 0.896027 0.195735 -0.398528
vn 0.288408 0.286600 0.913609
vn 0.518513 0.285145 0.806124
vn 0.320907 -0.264557 -0.909411
vn -0.981216 -0.191392 0.024165
vn 0.973517 -0.117148 -0.196319
vn 0.402004 0.583608 0.705545
vn -0.960283 -0.057193 0.273104
vn -0.956156 0.265482 0.123633
vn 0.922004 0.202413 -0.330058
vn -0.847633 0.503310 0.167922
vn 0.012768 -0.489703 0.871796
vn 0.578048 0.730392 0.363852
vn -0.834088 0.545515 0.081916
vn -0.588421 -0.386048 -0.710442
vn 0.838631 -0.241014 -0.488477
vn -0.981221 -0.118886 0.151889
vn 0.664729 -0.381695 -0.642218
vn 0.321033 0.102357 -0.941521
vn -0.998652 0.016344 0.049271
vn -0.502492 -0.826056 -0.255213
vn 0.660111 -0.652555 0.372056
vn 0.666071 -0.744237 -0.049607
vn 0.564465 0.760286 0.321472
vn 0.580681 0.758567 0.295611
vn -0.648025 -0.129795 0.750478
vn 0.062102 0.754750 -0.653067
vn -0.883398 -0.457830 0.099998
vn 0.897611 -0.438360 -0.046212
vn -0.135787 0.400999 -0.905959
vn -0.859501 0.183269 0.477149
vn -0.345763 -0.121791 0.930384
vn -0.188295 0.435604 -0.880224
vn 0.895649 -0.409445 -0.173690
vn -0.708559 0.544671 0.448639
vn 0.073592 0.443448 0.893274
vn 0.645513 -0.669083 -0.368296
vn 0.718894 -0.518295 -0.463208
vn -0.538960 0.804363 0.250044
vn 0.897952 -0.328364 -0.293016
vn 0.207961 -0.821145 0.531482
vn 0.460372 0.339633 0.820187
vn 0.694388 0.360002 -0.623076
vn -0.212924 -0.144889 -0.966266
vn -0.725715 0.678314 0.115014
vn 0.744867 -0.657849 -0.111393
vn -0.791698 0.215145 -0.571775
vn -0.159743 0.498463 -0.852066
vn 0.821292 -0.514524 -0.246464
vn -0.494557 -0.567615 -0.658200
vn -0.780782 -0.170805 0.601003
vn -0.973028 0.044629 0.226328
vn 0.223914 -0.017098 0.974459
vn 0.270327 -0.076134 0.959754
vn 0.419910 -0.886229 0.195638
vn 0.242372 0.888305 -0.390089
vn -0.083137 -0.776226 -0.624949
vn -0.319726 0.500853 0.804314
vn -0.422173 0.734529 0.531259
vn -0.701415 0.454674 0.548897
vn -0.519825 0.480217 -0.706522
vn -0.893646 0.446898 0.040987
vn -0.502039 0.861349 -0.077686
vn -0.534167 -0.197464 -0.821994
vn -0.673199 -0.455273 0.582692
vn 0.385527 0.580871 0.716909
vn 0.685312 0.619357 0.383071
vn 0.364969 0.823834 0.433699
vn 0.215629 0.567536 -0.794611
vn 0.265657 0.948448 -0.172838
vn 0.752051 0.639646 -0.158971
vn 0.913333 0.017138 -0.406854
vn 0.586422 -0.159812 0.794084

f 1/1/1 2/2/1 3/3/1
f 4/4/2 5/5/2 2/2/2
f 6/6/3 1/1/3 3/3/3
f 6/6/4 3/3/4 4/4/4
f 2/2/5 1/1/5 7/7/5
f 3/8/6 2/9/6 8/10/6
f 9/11/7 10/12/7 11/13/7
f 10/12/8 12/14/8 13/13/8
f 14/15/9 9/11/9 11/13/9
f 10/12/10 9/11/10 12/14/10
f 7/16/11 12/17/11 9/18/11
f 15/19/12 14/15/12 11/13/12
f 6/6/13 4/4/13 16/20/13
f 17/21/14 18/22/14 19/23/14
f 11/13/15 10/12/15 18/24/15
f 18/24/16 13/13/16 20/25/16
f 10/12/17 13/13/17 18/24/17
f 13/13/18 15/19/18 17/26/18
f 19/23/19 18/22/19 21/27/19
f 17/21/20 19/23/20 22/28/20
f 21/27/21 18/22/21 23/29/21
f 22/28/22 21/27/22 23/29/22
f 21/27/23 22/28/23 19/23/23
f 17/26/24 15/19/24 11/13/24
f 11/13/25 18/24/25 17/26/25
f 13/13/26 17/26/26 20/25/26
f 18/22/27 20/30/27 23/29/27
f 20/30/28 22/28/28 23/29/28
f 20/30/29 17/21/29 22/28/29
f 15/19/30 13/13/30 12/14/30
f 15/19/31 12/14/31 14/15/31
f 14/31/32 2/32/32 9/18/32
f 9/18/33 2/32/33 7/16/33
f 16/33/34 12/17/34 7/16/34
f 7/34/35 16/35/35 6/36/35
f 7/7/36 1/1/36 6/6/36
f 7/34/37 2/35/37 16/37/37
f 16/20/38 4/4/38 2/2/38
f 14/31/39 16/33/39 2/32/39
f 14/31/40 12/17/40 16/33/40
f 24/38/41 3/3/41 25/39/41
f 4/4/42 25/39/42 5/5/42
f 26/40/43 3/3/43 24/38/43
f 26/40/44 4/4/44 3/3/44
f 27/41/45 24/38/45 25/39/45
f 3/8/46 8/10/46 25/42/46
f 25/39/47 2/2/47 5/5/47
f 2/9/48 25/42/48 8/10/48
f 28/43/49 29/44/49 30/45/49
f 30/45/50 31/44/50 32/46/50
f 33/47/51 29/44/51 28/43/51
f 30/45/52 32/46/52 28/43/52
f 27/48/53 28/49/53 32/50/53
f 34/51/54 29/44/54 33/47/54
f 26/40/55 35/52/55 4/4/55
f 36/53/56 37/54/56 38/55/56
f 29/44/57 38/56/57 30/45/57
f 38/56/58 39/57/58 31/44/58
f 30/45/59 38/56/59 31/44/59
f 31/44/60 36/58/60 34/51/60
f 37/54/61 40/59/61 38/55/61
f 36/53/62 41/60/62 37/54/62
f 40/59/63 42/61/63 38/55/63
f 41/60/64 42/61/64 40/59/64
f 40/59/65 37/54/65 41/60/65
f 36/58/66 29/44/66 34/51/66
f 29/44/67 36/58/67 38/56/67
f 31/44/68 39/57/68 36/58/68
f 38/55/69 42/61/69 39/62/69
f 39/62/70 42/61/70 41/60/70
f 39/62/71 41/60/71 36/53/71
f 34/51/72 32/46/72 31/44/72
f 34/51/73 33/47/73 32/46/73
f 33/63/74 28/49/74 25/64/74
f 28/49/75 27/48/75 25/64/75
f 35/65/76 27/48/76 32/50/76
f 27/34/77 26/36/77 35/35/77
f 26/40/78 24/38/78 27/41/78
f 27/34/79 35/37/79 25/35/79
f 35/52/80 25/39/80 4/4/80
f 33/63/81 25/64/81 35/65/81
f 33/63/82 35/65/82 32/50/82
f 43/66/83 44/67/83 45/68/83
f 46/69/84 47/70/84 48/71/84
f 46/69/85 49/72/85 47/70/85
f 44/73/86 50/74/86 49/75/86
f 47/76/87 50/74/87 51/77/87
f 52/78/88 44/73/88 43/66/88
f 52/78/89 43/66/89 45/68/89
f 51/77/90 48/79/90 47/76/90
f 53/80/91 48/81/91 51/82/91
f 46/69/92 8/83/92 49/72/92
f 52/78/93 45/68/93 51/77/93
f 8/84/94 45/85/94 44/86/94
f 8/87/95 44/88/95 49/89/95
f 54/90/96 48/81/96 53/80/96
f 55/91/97 56/92/97 57/93/97
f 57/93/98 56/92/98 58/94/98
f 59/95/99 60/96/99 57/93/99
f 61/97/100 62/98/100 63/99/100
f 64/100/101 62/101/101 65/102/101
f 50/74/102 52/78/102 51/77/102
f 50/74/103 44/73/103 52/78/103
f 57/93/104 58/94/104 59/103/104
f 60/96/105 59/95/105 53/104/105
f 58/94/106 66/105/106 59/103/106
f 59/95/107 66/105/107 64/100/107
f 46/106/108 48/81/108 54/90/108
f 53/104/109 59/95/109 54/107/109
f 54/108/110 59/95/110 67/109/110
f 56/92/111 68/110/111 63/99/111
f 66/105/112 58/94/112 56/92/112
f 46/69/113 69/71/113 70/70/113
f 46/69/114 70/70/114 71/72/114
f 72/73/115 71/75/115 73/74/115
f 70/76/116 51/77/116 73/74/116
f 73/74/117 74/78/117 72/73/117
f 74/78/118 45/68/118 75/66/118
f 72/67/119 45/68/119 8/111/119
f 72/67/120 75/66/120 45/68/120
f 51/77/121 70/76/121 69/79/121
f 53/80/122 51/82/122 69/81/122
f 46/69/123 71/72/123 8/83/123
f 74/78/124 51/77/124 45/68/124
f 8/87/125 71/89/125 72/112/125
f 60/96/126 53/104/126 54/107/126
f 55/91/127 76/113/127 56/92/127
f 77/114/128 78/115/128 61/97/128
f 65/116/129 78/117/129 79/118/129
f 73/74/130 51/77/130 74/78/130
f 72/73/131 74/78/131 75/66/131
f 55/91/132 60/119/132 76/113/132
f 55/91/133 57/93/133 60/96/133
f 76/113/134 60/119/134 80/120/134
f 60/96/135 67/121/135 79/118/135
f 46/106/136 54/90/136 69/81/136
f 69/81/137 54/90/137 53/80/137
f 54/122/138 67/121/138 60/96/138
f 56/92/139 80/120/139 77/114/139
f 80/120/140 56/92/140 76/113/140
f 71/123/141 81/124/141 73/125/141
f 82/126/142 71/123/142 70/127/142
f 73/125/143 81/124/143 70/127/143
f 81/124/144 82/126/144 70/127/144
f 83/128/145 71/123/145 82/126/145
f 71/123/146 83/128/146 81/124/146
f 82/129/147 84/130/147 85/131/147
f 81/132/148 84/130/148 82/129/148
f 81/132/149 85/131/149 84/130/149
f 86/133/150 84/134/150 85/135/150
f 84/134/151 87/136/151 85/137/151
f 85/135/152 88/138/152 86/133/152
f 89/139/153 90/140/153 91/141/153
f 87/142/154 84/134/154 86/133/154
f 88/138/155 91/143/155 86/133/155
f 92/144/156 88/138/156 85/137/156
f 85/137/157 87/136/157 92/144/157
f 93/145/158 85/131/158 81/132/158
f 82/129/159 85/131/159 93/145/159
f 82/146/160 93/147/160 83/148/160
f 81/149/161 83/150/161 93/151/161
f 89/152/162 88/138/162 92/144/162
f 92/144/163 87/136/163 89/152/163
f 89/152/164 87/136/164 90/153/164
f 90/154/165 87/136/165 86/133/165
f 91/141/166 90/154/166 86/133/166
f 94/155/167 89/139/167 91/143/167
f 88/138/168 94/155/168 91/143/168
f 94/155/169 88/138/169 89/152/169
f 49/156/170 50/157/170 95/158/170
f 96/159/171 47/160/171 49/156/171
f 50/157/172 47/160/172 95/158/172
f 95/158/173 47/160/173 96/159/173
f 97/161/174 96/159/174 49/156/174
f 49/156/175 95/158/175 97/161/175
f 96/162/176 98/163/176 99/164/176
f 95/165/177 96/162/177 99/164/177
f 95/165/178 99/164/178 98/163/178
f 100/133/179 98/135/179 99/134/179
f 99/134/180 98/137/180 101/136/180
f 98/135/181 100/133/181 102/138/181
f 103/139/182 104/141/182 105/140/182
f 101/142/183 100/133/183 99/134/183
f 102/138/184 100/133/184 104/143/184
f 106/144/185 98/137/185 102/138/185
f 98/137/186 106/144/186 101/136/186
f 107/166/187 95/165/187 98/163/187
f 96/162/188 107/166/188 98/163/188
f 96/146/189 97/148/189 107/147/189
f 95/149/190 107/151/190 97/150/190
f 103/152/191 106/144/191 102/138/191
f 106/144/192 103/152/192 101/136/192
f 103/152/193 105/153/193 101/136/193
f 105/154/194 100/133/194 101/136/194
f 104/141/195 100/133/195 105/154/195
f 108/155/196 104/143/196 103/139/196
f 102/138/197 104/143/197 108/155/197
f 108/155/198 103/152/198 102/138/198
f 68/110/199 61/97/199 63/99/199
f 61/97/200 109/167/200 62/98/200
f 63/99/201 62/98/201 66/105/201
f 67/109/202 64/100/202 65/102/202
f 64/100/203 66/105/203 62/101/203
f 65/102/204 62/101/204 109/168/204
f 59/95/205 64/100/205 67/109/205
f 56/92/206 63/99/206 66/105/206
f 68/110/207 77/114/207 61/97/207
f 77/114/208 80/120/208 78/115/208
f 61/97/209 78/115/209 109/167/209
f 67/121/210 65/116/210 79/118/210
f 65/116/211 109/169/211 78/117/211
f 79/118/212 78/117/212 80/120/212
f 60/96/213 79/118/213 80/120/213
f 56/92/214 77/114/214 68/110/214

o 
usemtl shield.001
s off

v -14.678640 37.041870 1.966720
v -15.645229 37.688301 2.831180
v -7.702600 41.853638 21.711891
v -15.942660 36.265339 2.682950
v -14.425171 35.697361 2.901690
v -15.598101 37.102600 2.286620
v -17.390221 40.820087 3.036050
v -16.249300 35.767391 -2.257220
v -17.236101 35.949749 -1.923200
v -17.532789 35.005928 -1.549300
v -12.436800 32.736870 3.322310
v -14.907980 35.976429 2.326500
v -16.545980 34.823570 -1.883320
v 12.427360 49.407940 9.952470
v 8.865630 39.447258 15.338830
v -3.138610 42.638248 12.452700
v 8.752400 41.580658 20.154600
v 21.268499 35.610931 16.272449
v -0.844500 10.607210 26.829241

vt 0.856301 0.265607
vt 0.764624 0.294094
vt 0.850192 0.976825
vt 0.858158 0.265976
vt 0.949099 0.282658
vt 0.742843 0.255302
vt 0.692067 0.254404
vt 0.541488 0.402851
vt 0.893183 0.241135
vt 0.851577 0.242328
vt 0.847036 0.027305
vt 0.893183 0.027305
vt 0.742053 0.256467
vt 0.849952 0.242815
vt 0.544321 0.402080
vt 0.692550 0.250793
vt 0.800888 0.241135
vt 0.800888 0.027305
vt 0.697126 0.324563
vt 0.698569 0.321089
vt 0.345626 0.959903
vt 0.345626 0.724031
vt 0.085605 0.724031
vt 0.605647 0.724031
vt 0.345626 0.075832

vn 0.306368 0.894288 -0.326173
vn -0.922310 0.155949 0.353587
vn 0.945360 -0.046209 -0.322738
vn -0.371104 -0.835152 0.405960
vn -0.326470 0.033050 -0.944630
vn -0.033097 0.960182 -0.277407
vn 0.077592 0.953480 -0.291301
vn -0.597711 -0.128615 -0.791328
vn -0.893233 0.377515 0.244167
vn -0.871657 0.450303 0.193499
vn -0.351349 -0.247284 -0.902997
vn -0.029387 -0.314109 -0.948932
vn 0.923222 -0.285556 -0.257137
vn 0.893234 -0.377511 -0.244168
vn -0.404884 -0.536461 -0.740458
vn -0.077597 -0.953479 0.291302
vn -0.145806 -0.931909 0.332094
vn -0.050296 -0.093073 0.994388
vn -0.120410 0.059916 0.990915
vn 0.744732 0.379025 0.549285
vn 0.646109 0.514100 0.564132
vn 0.076401 -0.495278 -0.865368
vn -0.267496 0.808607 0.524024
vn 0.484000 0.601346 0.635710
vn -0.073552 -0.453902 -0.888011
vn 0.112297 -0.400182 -0.909529
vn -0.493198 0.326566 0.806294
vn 0.336931 0.097411 0.936477
vn -0.040519 -0.358016 -0.932836

f 110/170/215 111/171/215 112/172/215
f 112/172/216 111/171/216 113/173/216
f 110/170/217 112/172/217 114/174/217
f 112/172/218 113/173/218 114/174/218
f 110/175/219 115/176/219 116/177/219
f 115/178/220 110/179/220 117/180/220
f 117/180/221 118/181/221 115/178/221
f 116/177/222 115/176/222 113/182/222
f 115/178/223 118/181/223 119/180/223
f 119/180/224 113/183/224 115/178/224
f 118/181/225 117/180/225 119/180/225
f 110/175/226 120/184/226 121/185/226
f 117/180/227 110/179/227 121/186/227
f 117/180/228 121/186/228 122/187/228
f 120/184/229 113/182/229 121/185/229
f 121/186/230 119/180/230 122/187/230
f 119/180/231 121/186/231 113/183/231
f 122/187/225 119/180/225 117/180/225
f 113/182/232 111/188/232 116/177/232
f 120/184/233 114/189/233 113/182/233
f 111/188/234 110/175/234 116/177/234
f 110/175/235 114/189/235 120/184/235
f 123/190/236 124/191/236 125/192/236
f 123/190/237 125/192/237 126/191/237
f 123/190/238 126/191/238 127/193/238
f 123/190/239 127/193/239 124/191/239
f 128/194/240 125/192/240 124/191/240
f 128/194/241 126/191/241 125/192/241
f 128/194/242 127/193/242 126/191/242
f 128/194/243 124/191/243 127/193/243

