mtllib anim_barb_run_attack1_axe_000030.mtl

o fat
usemtl axe.001
s off

v 19.848381 58.554081 30.525269
v 16.914021 53.364101 26.273870
v 23.506168 52.085152 34.747952
v 21.478109 51.030460 32.307781
v 24.161051 50.073429 35.073181
v 22.132990 49.018742 32.632999
v 25.300888 41.804691 33.233078
v 20.326420 42.881653 27.968531
v 23.802792 60.610580 35.283249
v 29.255310 43.861191 37.991058
v 28.777271 59.533619 40.547798
v 25.534229 53.139858 37.188129
v 26.189119 51.128128 37.513348
v 32.189671 49.051170 42.242462
v 22.914570 51.287140 31.002970
v 24.942638 52.341839 33.443150
v 23.569460 49.275421 31.328199
v 25.597519 50.330109 33.768372
v 26.970690 53.396530 35.883320
v 27.625580 51.384811 36.208549
v 1.240480 40.505821 7.957740
v 1.895370 38.494102 8.282970
v 3.331830 38.750778 6.978160
v 2.676950 40.762501 6.652930
v 30.850679 54.483360 41.836960
v -19.205311 27.520639 -17.105490
v -17.768839 27.777319 -18.410299
v -18.423731 29.789040 -18.735531
v -19.860189 29.532360 -17.430721

vt 0.033358 0.643728
vt 0.190411 0.923560
vt 0.402692 0.503812
vt 0.402692 0.647326
vt 0.408249 0.287497
vt 0.408249 0.367848
vt 0.492649 0.287497
vt 0.492649 0.367848
vt 0.403043 0.503812
vt 0.403044 0.647326
vt 0.033710 0.643728
vt 0.190763 0.923560
vt 0.033358 0.363896
vt 0.033710 0.363896
vt 0.190411 0.084064
vt 0.402692 0.360297
vt 0.408249 0.207147
vt 0.492649 0.207147
vt 0.403043 0.360297
vt 0.190763 0.084064
vt 0.408248 1.036942
vt 0.492649 1.036942
vt 0.483600 0.371280
vt 0.402049 0.371280
vt 0.402049 1.040375
vt 0.483600 1.040375
vt 0.450449 0.037941
vt 0.483600 0.210579
vt 0.402049 0.210579
vt 0.442825 0.041374
vt 0.000000 1.000000

vn -0.791975 -0.050641 0.608449
vn -0.782041 0.071337 0.619131
vn -0.733824 -0.131125 0.666565
vn -0.690274 -0.246535 0.680252
vn -0.727163 -0.266703 0.632537
vn -0.766071 -0.013694 0.642610
vn -0.726112 0.007023 0.687540
vn -0.652170 -0.327608 0.683628
vn -0.665959 -0.209873 0.715858
vn 0.652170 0.327608 -0.683628
vn 0.665959 0.209873 -0.715858
vn 0.733824 0.131124 -0.666565
vn 0.726113 -0.007022 -0.687540
vn 0.766070 0.013694 -0.642611
vn 0.690273 0.246536 -0.680252
vn 0.727163 0.266704 -0.632537
vn 0.791975 0.050641 -0.608450
vn 0.782041 -0.071334 -0.619131
vn -0.097286 -0.950799 -0.294137
vn -0.598525 0.588940 -0.543062
vn 0.097284 0.950798 0.294140
vn 0.598527 -0.588940 0.543060
vn -0.305951 0.939844 -0.151943
vn 0.305954 -0.939844 0.151939
vn -0.643325 -0.086450 0.760697
vn 0.810345 0.173304 -0.559738
vn 0.393624 -0.881771 0.259884
vn -0.211330 0.976573 -0.040548
vn -0.606546 -0.315436 -0.729796

f 1/1/1 2/2/1 3/3/1
f 4/4/2 3/3/2 2/2/2
f 3/5/3 4/6/3 5/7/3
f 6/8/3 5/7/3 4/6/3
f 5/9/4 6/10/4 7/11/4
f 8/12/5 7/11/5 6/10/5
f 9/13/6 1/1/6 3/3/6
f 7/11/4 10/14/4 5/9/4
f 11/15/7 9/13/7 12/16/7
f 3/3/6 12/16/6 9/13/6
f 12/17/3 3/5/3 13/18/3
f 5/7/3 13/18/3 3/5/3
f 13/19/8 5/9/8 14/20/8
f 10/14/9 14/20/9 5/9/9
f 15/4/10 2/2/10 16/3/10
f 1/1/11 16/3/11 2/2/11
f 17/8/12 15/6/12 18/7/12
f 16/5/12 18/7/12 15/6/12
f 8/12/13 17/10/13 7/11/13
f 18/9/14 7/11/14 17/10/14
f 16/3/15 1/1/15 9/13/15
f 7/11/14 18/9/14 10/14/14
f 16/3/15 9/13/15 19/16/15
f 11/15/16 19/16/16 9/13/16
f 18/7/12 16/5/12 20/18/12
f 19/17/12 20/18/12 16/5/12
f 10/14/17 18/9/17 14/20/17
f 20/19/18 14/20/18 18/9/18
f 4/4/19 2/2/19 15/4/19
f 17/10/20 8/12/20 6/10/20
f 13/19/21 14/20/21 20/19/21
f 19/16/22 11/15/22 12/16/22
f 6/8/3 4/6/3 21/21/3
f 21/21/3 22/22/3 6/8/3
f 15/6/12 17/8/12 23/22/12
f 23/22/12 24/21/12 15/6/12
f 4/23/23 15/24/23 24/25/23
f 24/25/23 21/26/23 4/23/23
f 17/24/24 6/23/24 22/26/24
f 22/26/24 23/25/24 17/24/24
f 12/17/25 13/18/25 25/27/25
f 20/18/26 19/17/26 25/27/26
f 13/28/27 20/29/27 25/30/27
f 19/29/28 12/28/28 25/30/28
f 23/22/24 22/21/24 26/22/24 27/31/24
f 21/21/23 24/22/23 28/21/23 29/31/23
f 24/21/12 23/22/12 27/21/12 28/31/12
f 22/22/3 21/21/3 29/22/3 26/31/3
f 28/21/29 27/22/29 29/21/29
f 26/22/29 29/21/29 27/22/29

