mtllib anim_barb_idle_000039.mtl

o fat
usemtl fat.001
s off

v -0.115190 38.694260 -3.588130
v 1.860240 36.144421 6.136090
v 0.138150 37.902710 1.548310
v 0.539070 60.858421 -7.801890
v 10.047890 66.516487 -5.912860
v 2.990010 57.054527 -6.767930
v -0.276890 52.776726 -4.904900
v 8.261440 62.958908 -2.452560
v 7.717050 58.628349 0.189030
v 6.843750 52.853020 -0.719550
v 4.195330 52.663670 -4.826900
v 6.956690 57.831532 -5.362870
v 9.150360 37.589157 4.469510
v 9.341690 39.515919 -1.001800
v 10.448960 39.017811 -2.220540
v 6.038630 38.513721 5.099730
v 4.973460 37.038410 6.464980
v 4.803960 37.134212 -6.290421
v 4.052240 39.102482 -5.419540
v 0.740120 38.366512 -4.497870
v -0.008560 35.957550 -5.154780
v -0.506010 66.511520 -7.556750
v -0.818690 68.504181 -7.602580
v -0.763500 59.806900 5.989370
v 4.371840 59.848091 4.718450
v 5.313630 64.033615 5.549180
v 8.425859 63.736301 3.601560
v 5.197680 66.835716 5.449860
v 11.066470 67.067558 1.935990
v 4.343740 52.921299 4.099690
v 0.860870 52.650829 5.284120
v -0.357250 66.742851 6.266330
v 5.346040 71.258797 -4.387270
v 11.705660 68.219902 -4.926410
v 11.846941 68.698715 -1.129120
v 2.176710 71.347496 4.036940
v 5.516450 72.471725 0.061490
v -0.638830 70.526848 4.271100
v 2.433980 76.847809 1.152320
v 3.606210 74.475349 -1.983710
v 0.763600 74.618027 -3.332170
v 0.197490 77.501961 -0.500460
v 0.918500 72.549400 -5.140760
v 1.035960 48.323978 5.527290
v 6.052590 48.318821 4.251700
v 8.374120 47.967072 -1.293340
v 4.279810 47.372978 -5.960440
v -0.429390 47.287361 -5.968740
v 11.491409 65.465431 1.525010
v 10.657780 64.646889 -6.159860
v 13.429280 65.530708 -0.848370
v 13.053829 66.730072 -4.139790
v 8.298400 63.123459 2.056900
v 1.410950 76.288826 6.544990
v -0.266940 74.773872 8.013670
v 1.968700 71.938461 5.167480
v 0.374460 70.870224 7.005880
v -0.732770 73.405273 7.876190
v 0.223030 76.743942 7.896850
v -1.583980 76.614151 7.851620
v 2.463270 77.623322 3.978200
v -0.934490 80.612930 8.086400
v -2.260420 80.563538 8.128970
v 0.172920 78.015190 8.521231
v 0.895210 79.875748 7.611240
v 0.208160 81.954437 5.536810
v -1.371880 81.949608 5.063340
v -1.254400 74.780342 8.373469
v -2.244960 77.360146 8.027450
v -2.579750 75.335434 9.160120
v -2.406950 74.751419 8.551160
v -2.417830 73.168999 8.565300
v -0.986060 70.406891 8.379251
v -2.446010 70.381424 8.621570
v 2.308560 79.961281 3.979450
v 1.930170 81.202652 3.342960
v -0.418120 81.450607 1.743030
v 13.253099 63.049141 1.068480
v 14.345941 63.522602 -2.476360
v 8.957020 57.466587 -3.200850
v 9.964741 57.972759 1.270660
v 11.182760 62.067291 -5.897180
v 11.213050 53.150291 -2.720470
v 13.965779 48.414120 -2.218720
v 11.721220 50.040661 -1.186990
v 14.468929 52.754749 -4.068260
v 15.536409 54.655998 -1.925460
v 15.747400 49.469498 -0.234880
v 14.774099 54.142490 0.066290
v 14.601530 50.635017 2.019820
v 12.600690 52.320782 0.356570
v 11.787820 50.852810 2.088680
v 13.610810 55.611073 -4.384290
v 14.095490 54.355167 -4.309870
v 15.224090 59.962990 -2.251130
v 13.945641 59.559578 1.000510
v 11.968460 54.065838 0.516930
v 12.999020 58.117371 -5.558260
v 12.204439 42.814049 1.941580
v 10.649231 43.530560 2.754930
v 13.388170 43.150894 2.900460
v 12.774139 44.150436 4.382610
v 11.166090 44.518250 4.545010
v 9.378180 41.808182 8.620871
v 9.231071 41.191933 7.951670
v 10.142519 41.524372 7.066810
v 10.859170 42.143890 7.258370
v 11.829500 40.757744 7.370970
v 9.108710 43.292442 6.657820
v 10.061689 42.723789 7.506310
v 8.351350 41.956848 8.254710
v 8.812360 40.642288 9.318870
v 8.077360 40.803188 8.938800
v 11.036240 38.924221 8.370750
v 11.357880 38.806511 2.925200
v 11.069929 37.103699 3.875900
v 10.606771 34.935261 5.781760
v 9.984770 39.617771 8.089230
v 11.942780 37.274212 4.443040
v 12.555670 38.905060 3.563620
v 9.601550 36.791222 9.512190
v 4.023100 26.162939 -0.545690
v 8.041620 21.196680 -7.740750
v 5.439050 18.577740 -3.009270
v 9.930830 27.074169 -1.330840
v 12.729170 20.358000 -3.940130
v 6.517180 27.218922 -4.332760
v 8.084940 23.740999 1.482660
v 9.219970 18.247980 0.308180
v 7.784490 25.847721 2.450880
v 7.848010 28.288500 2.070290
v 10.700420 30.868111 -2.002290
v 7.348680 32.774761 4.367340
v 12.422410 10.227270 -7.616640
v 13.832980 7.625720 -8.661270
v 10.721940 8.766870 -10.564919
v 11.584980 7.519160 -5.646540
v 8.973740 9.399261 -7.279300
v 8.951740 6.429100 -8.279921
v 10.055120 4.000390 -12.340440
v 13.044330 4.774110 -12.569229
v 10.563101 1.475140 -4.282640
v 16.553490 2.975130 -4.757450
v 13.374090 3.043960 -0.555780
v 16.057131 1.586020 -0.855020
v 12.245999 0.435750 0.050880
v -8.828880 66.806557 -7.007230
v -1.715160 57.027859 -7.077390
v -5.090570 64.121292 -3.322780
v -7.099350 58.542152 -2.281910
v -4.776030 52.759354 -3.521110
v -6.382290 52.647053 1.012630
v -5.368220 57.761322 -6.622300
v -9.100470 39.081238 -0.521550
v -7.018660 36.722969 6.619440
v -10.264799 38.551098 -0.090480
v -5.332450 37.789768 5.397340
v -4.705620 37.175041 -6.230000
v -4.554830 39.152721 -5.018500
v -0.793830 38.403019 -4.691830
v -5.507150 59.789829 3.077840
v -6.015730 63.959431 4.497930
v -10.660920 63.633659 1.963030
v -5.719080 66.761086 4.639740
v -10.694170 67.838120 1.141520
v -2.650850 52.534031 5.232680
v -10.559640 67.870872 -6.529210
v -4.396410 71.219704 -5.260460
v -11.498080 68.767921 -2.026360
v -3.246500 71.326157 3.118710
v -5.886980 72.516510 -1.464670
v -2.573300 76.861038 -0.219800
v -2.372770 74.478386 -3.267870
v -2.946900 47.914547 6.350500
v -7.647200 47.664562 2.171120
v -5.774990 47.270660 -3.774890
v -11.530400 65.490631 0.178010
v -8.117661 63.977936 -7.319130
v -12.886890 66.260384 -2.447590
v -11.622480 64.875999 -5.600830
v -9.777960 63.740570 0.714800
v -3.933340 74.789627 6.958140
v -4.561380 76.314522 4.825580
v -3.975750 71.963684 3.776670
v -3.971670 70.888916 5.754640
v -3.476600 73.417068 7.086260
v -2.717180 76.619019 7.525400
v -4.270530 76.763260 6.603160
v -4.077200 77.651451 2.095230
v -3.360290 80.623352 7.388010
v -4.549990 78.035515 7.161530
v -4.663060 79.899651 6.011030
v -2.961710 81.968071 4.624240
v -3.288330 74.789093 7.787910
v -3.553380 70.417938 7.640110
v -3.928280 79.988091 2.183910
v -3.259530 81.224960 1.848860
v -12.287001 62.817310 -0.543990
v -12.740320 62.673931 -4.283960
v -8.349401 58.571770 0.942720
v -7.137590 58.163101 -3.385990
v -8.708560 61.575161 -6.862340
v -9.178120 49.286343 0.881990
v -7.699490 53.084797 -2.345650
v -8.667760 53.137550 0.731220
v -10.385509 51.988201 -4.405760
v -12.244290 53.898422 -2.864440
v -11.768320 50.416901 1.567830
v -11.986390 53.667713 -0.697010
v -12.051350 53.306862 2.448120
v -9.740420 54.979408 2.609400
v -9.728459 52.323662 0.351110
v -9.942950 54.920769 -4.958070
v -10.184191 53.660561 -4.750750
v -12.881080 59.024891 -3.892570
v -12.375780 59.229614 -0.403360
v -9.178810 55.102009 -0.036040
v -9.567650 57.384171 -6.323860
v -8.210740 48.561592 7.969240
v -7.380910 50.229309 8.306630
v -9.736160 48.776329 8.227490
v -10.067680 50.615612 8.732750
v -8.831790 51.658241 8.844570
v -7.778360 52.063530 13.870970
v -8.328110 52.801399 13.914700
v -8.283950 51.401211 12.857610
v -9.135050 51.624443 12.453780
v -9.719590 50.277428 13.308510
v -8.669090 52.525002 12.377610
v -7.602280 52.879120 11.548300
v -7.306400 53.161968 13.721770
v -7.858120 52.619480 15.297520
v -7.089380 52.850189 15.040081
v -9.024430 49.894291 15.395590
v -6.756450 46.112617 13.375401
v -6.997810 46.655724 11.500061
v -6.654190 45.846821 16.289391
v -8.140059 50.695499 14.903719
v -7.800000 46.156990 13.521971
v -8.340580 46.544052 11.690780
v -7.756580 49.664577 17.895660
v -5.360160 19.559341 -7.632330
v -3.225720 25.919868 -0.368790
v -3.091190 18.225189 -2.979900
v -10.384350 18.683380 -4.740060
v -9.012980 26.322762 -2.051410
v -5.358990 27.405260 -4.260370
v -7.148130 23.011280 0.875140
v -7.175210 17.384520 -0.240870
v -7.251960 24.892290 1.960770
v -6.876080 27.660780 2.033260
v -10.283751 30.042328 -1.701970
v -6.357500 32.211460 4.354170
v -8.982110 5.201250 -7.016980
v -8.144350 8.150850 -6.272700
v -5.867660 6.400500 -8.835720
v -7.149590 6.179120 -3.864370
v -4.089240 4.969550 -5.916240
v -4.613880 7.929049 -5.420580
v -4.242630 1.522980 -9.283410
v -7.291530 1.667070 -9.966351
v -5.410140 0.965110 -0.917310
v -11.413740 1.197170 -2.240240
v -8.824170 2.938270 2.042140
v -11.159081 0.950120 1.945990
v -7.356720 0.848840 3.429310

vt 0.550479 0.485338
vt 0.414517 0.485338
vt 0.489174 0.497239
vt 0.490853 0.675485
vt 0.356970 0.710738
vt 0.458986 0.602657
vt 0.458693 0.603155
vt 0.491001 0.506534
vt 0.357039 0.710738
vt 0.272881 0.708251
vt 0.307767 0.663467
vt 0.329118 0.504113
vt 0.420682 0.504388
vt 0.307693 0.663467
vt 0.420389 0.504181
vt 0.390374 0.619683
vt 0.389206 0.622726
vt 0.390855 0.620128
vt 0.309151 0.663075
vt 0.578845 0.971377
vt 0.529882 0.993867
vt 0.501054 0.950636
vt 0.597833 0.993868
vt 0.684209 0.993870
vt 0.691613 0.940228
vt 0.584242 0.936155
vt 0.602549 0.993867
vt 0.689094 0.993870
vt 0.694409 0.971380
vt 0.730001 0.975635
vt 0.490853 0.781888
vt 0.490853 0.820915
vt 0.240556 0.660920
vt 0.133663 0.660928
vt 0.131880 0.753091
vt 0.060606 0.782384
vt 0.055577 0.663688
vt 0.136145 0.808744
vt 0.060014 0.783494
vt 0.058190 0.859642
vt 0.160773 0.512959
vt 0.067037 0.515196
vt 0.240700 0.512959
vt 0.131877 0.752996
vt 0.240556 0.781375
vt 0.390182 0.870896
vt 0.298691 0.847983
vt 0.294173 0.886121
vt 0.181129 0.899551
vt 0.052544 0.886601
vt 0.145152 0.921474
vt 0.235241 0.891030
vt 0.142740 0.921054
vt 0.172936 0.966074
vt 0.456563 0.999059
vt 0.389917 0.922986
vt 0.429989 0.941889
vt 0.491140 0.942697
vt 0.490646 0.999330
vt 0.490853 0.898039
vt 0.701416 0.118225
vt 0.813217 0.120956
vt 0.790107 0.184348
vt 0.877923 0.002315
vt 0.872775 0.120438
vt 0.505869 0.118716
vt 0.564263 0.119120
vt 0.507564 0.183764
vt 0.697589 0.180917
vt 0.580429 0.182675
vt 0.710756 0.001536
vt 0.701372 0.182427
vt 0.812168 0.002315
vt 0.857243 0.184348
vt 0.697567 0.116528
vt 0.503935 0.000692
vt 0.561277 0.000692
vt 0.688827 -0.000098
vt 0.002866 0.854679
vt 0.027518 0.706813
vt 0.061197 0.782654
vt 0.055608 0.663958
vt 0.251604 0.781884
vt 0.357109 0.710738
vt 0.243886 0.876138
vt 0.247300 0.848527
vt -0.000514 0.880403
vt 0.006948 0.782948
vt 0.674684 0.829607
vt 0.705811 0.784366
vt 0.654033 0.662928
vt 0.703232 0.671848
vt 0.720473 0.730776
vt 0.697736 0.853617
vt 0.729837 0.853035
vt 0.623758 0.856571
vt 0.587609 0.811448
vt 0.658187 0.605708
vt 0.748523 0.593788
vt 0.716351 0.931575
vt 0.747491 0.935506
vt 0.695349 0.885675
vt 0.676247 0.904603
vt 0.649719 0.961956
vt 0.745560 1.001324
vt 0.725611 0.781438
vt 0.747491 0.878462
vt 0.747491 0.808438
vt 0.720379 0.731031
vt 0.747491 0.790807
vt 0.720762 0.730332
vt 0.748639 0.732530
vt 0.746944 0.628012
vt 0.703659 0.671442
vt 0.731857 0.666086
vt 0.747085 0.666819
vt 0.703186 0.671176
vt 0.611291 0.885598
vt 0.604148 0.909350
vt 0.550618 0.823662
vt 0.550618 0.934468
vt 0.625864 0.557513
vt 0.571978 0.557920
vt 0.578607 0.510287
vt 0.669444 0.510287
vt 0.756032 0.560223
vt 0.679695 0.557918
vt 0.877240 0.461159
vt 0.992418 0.461159
vt 0.944262 0.560223
vt 0.756457 0.510287
vt 0.806202 0.560223
vt 0.498275 0.560223
vt 0.875566 0.382888
vt 0.758260 0.308662
vt 0.875912 0.308662
vt 0.759996 0.360654
vt 0.669163 0.382888
vt 0.671223 0.308662
vt 0.584325 0.382888
vt 0.577057 0.308662
vt 0.498223 0.363687
vt 0.498247 0.308662
vt 0.992597 0.308662
vt 0.992439 0.363687
vt 0.759483 0.410364
vt 0.758924 0.382888
vt 0.665903 0.461159
vt 0.580075 0.461159
vt 0.498223 0.402657
vt 0.992438 0.402657
vt 0.760539 0.449273
vt 0.498220 0.461159
vt 0.875438 0.575163
vt 0.762705 0.196431
vt 0.858161 0.196355
vt 0.690657 0.196417
vt 0.588027 0.196417
vt 0.498144 0.196431
vt 0.991918 0.196431
vt 0.375723 0.009258
vt 0.380090 0.017573
vt 0.356438 0.030356
vt 0.342839 0.029458
vt 0.369327 0.043627
vt 0.316032 0.012201
vt 0.336848 0.019568
vt 0.249292 0.041099
vt 0.371147 0.002582
vt 0.416197 0.004791
vt 0.408124 0.000758
vt 0.128136 0.016613
vt 0.154876 0.002573
vt 0.119423 0.002194
vt 0.160447 0.001473
vt 0.065726 0.014292
vt 0.105093 0.028910
vt 0.000825 0.069213
vt 0.000703 0.039244
vt 0.249314 0.055441
vt 0.429228 0.045736
vt 0.102506 0.115410
vt 0.153549 0.117195
vt 0.189513 0.114692
vt 0.228429 0.109580
vt 0.194639 0.033982
vt 0.406548 0.108121
vt 0.355355 0.108206
vt 0.448349 0.035630
vt 0.498209 0.039288
vt 0.461840 0.047992
vt 0.483032 0.114221
vt 0.406174 0.120334
vt 0.355217 0.119080
vt 0.243215 0.037501
vt 0.249314 0.089732
vt 0.000703 0.095058
vt 0.249292 0.105039
vt 0.160984 0.032072
vt 0.413806 0.033644
vt 0.442212 0.108407
vt 0.443088 0.117732
vt 0.023914 0.327327
vt 0.104127 0.227894
vt 0.000784 0.227894
vt 0.216171 0.327327
vt 0.216985 0.228421
vt 0.105699 0.228145
vt 0.104981 0.327662
vt 0.217575 0.327327
vt 0.351490 0.301452
vt 0.217290 0.227894
vt 0.351571 0.227894
vt 0.352420 0.301452
vt 0.489174 0.227894
vt 0.352342 0.227894
vt 0.471690 0.333380
vt 0.351597 0.328057
vt 0.217345 0.328075
vt 0.352312 0.363299
vt 0.470864 0.334174
vt 0.352330 0.328057
vt 0.216660 0.380224
vt 0.216104 0.328075
vt 0.104983 0.328371
vt 0.217232 0.380224
vt 0.351611 0.363299
vt 0.351459 0.420971
vt 0.352499 0.420971
vt 0.351589 0.497239
vt 0.229465 0.497239
vt 0.352627 0.497239
vt 0.229583 0.497239
vt 0.133020 0.497239
vt 0.072972 0.497239
vt 0.025422 0.328212
vt 0.002386 0.497239
vt 0.216130 0.152222
vt 0.223982 0.125749
vt 0.105883 0.155747
vt 0.351732 0.147623
vt 0.223132 0.128232
vt 0.218721 0.149411
vt 0.469070 0.149411
vt 0.483427 0.127273
vt 0.352306 0.146326
vt 0.017963 0.152222
vt 0.104256 0.155747
vt 0.009616 0.131504
vt 0.104128 0.227914
vt 0.000790 0.227921
vt 0.216984 0.228396
vt 0.351571 0.227971
vt 0.217291 0.227882
vt 0.352342 0.227879
vt 0.489111 0.227891
vt 0.948232 0.041698
vt 0.989968 0.003451
vt 0.971575 0.059997
vt 0.909211 0.004273
vt 0.996004 0.120663
vt 0.925604 0.058708
vt 0.885225 0.122889
vt 0.516483 0.798440
vt 0.501430 0.685191
vt 0.597947 0.686709
vt 0.594444 0.793024
vt 0.950876 0.082499
vt 0.943924 0.157220
vt 0.507177 0.624822
vt 0.600053 0.622523
vt 0.901715 0.182549
vt 0.982420 0.184037
vt 0.730212 0.975635
vt 0.685579 0.991654
vt 0.692830 0.969164

vn -0.572287 -0.814266 -0.097256
vn 0.250838 -0.100095 -0.962840
vn -0.109186 -0.325634 -0.939170
vn 0.654433 0.332089 0.679290
vn 0.840572 -0.042142 -0.540059
vn 0.005775 -0.402984 -0.915189
vn 0.369443 -0.289001 -0.883171
vn 0.937495 -0.338731 -0.079779
vn 0.360246 -0.186109 -0.914104
vn 0.878526 -0.474837 -0.052169
vn -0.631051 -0.724519 -0.277213
vn -0.329140 -0.887002 -0.323874
vn -0.314151 -0.512643 -0.799066
vn 0.021647 -0.918413 0.395031
vn -0.530059 -0.504126 0.681832
vn 0.293251 -0.335285 0.895314
vn 0.314723 -0.280960 0.906648
vn 0.946995 -0.313474 0.070239
vn 0.153905 0.001424 -0.988085
vn 0.235038 -0.239837 0.941932
vn 0.633800 -0.488573 0.599662
vn 0.512916 0.022481 0.858145
vn 0.239979 -0.087341 0.966841
vn 0.886520 -0.044736 0.460523
vn 0.323284 -0.019857 0.946094
vn 0.103788 -0.045753 0.993546
vn 0.118564 0.408671 -0.904948
vn 0.153483 0.071113 -0.985589
vn 0.491109 -0.274583 0.826690
vn 0.418631 0.898958 -0.128928
vn 0.144627 0.041029 0.988635
vn 0.220774 0.490150 -0.843215
vn 0.533333 0.051999 0.844306
vn 0.424579 0.517040 0.743237
vn 0.510563 0.698342 0.501641
vn 0.120660 0.470018 0.874371
vn -0.006482 0.294889 0.955509
vn 0.680989 0.314879 0.661139
vn 0.789130 0.594422 -0.154717
vn 0.572626 0.628852 -0.525970
vn 0.282436 0.812873 -0.509379
vn 0.460876 0.673694 0.577694
vn 0.460628 0.851701 -0.249856
vn 0.799105 0.571552 -0.186440
vn 0.310202 0.671013 -0.673436
vn 0.358583 0.629506 -0.689304
vn 0.268674 0.413931 -0.869756
vn 0.244690 0.122618 0.961817
vn 0.912361 0.173089 0.370996
vn 0.699211 0.295458 -0.651006
vn 0.022354 0.209788 -0.977491
vn 0.243241 0.164294 0.955950
vn 0.316666 0.065994 0.946239
vn 0.931542 0.273804 0.239291
vn 0.900861 0.239658 0.361958
vn 0.840911 0.326477 0.431603
vn 0.830655 0.129296 -0.541567
vn -0.001730 0.190306 -0.981723
vn 0.715869 0.234124 -0.657813
vn 0.571634 0.055647 -0.818620
vn 0.001175 0.032272 -0.999478
vn -0.210906 -0.077838 -0.974402
vn 0.412195 0.137289 0.900693
vn 0.931608 0.163877 0.324425
vn 0.991357 -0.130801 -0.010127
vn 0.316937 0.225109 -0.921345
vn 0.580811 -0.054298 0.812225
vn 0.890638 0.450395 0.062524
vn 0.703377 0.403200 0.585398
vn 0.585667 0.105661 -0.803635
vn 0.764932 0.634904 -0.108516
vn -0.787179 -0.178810 -0.590234
vn -0.979375 0.202049 0.000653
vn 0.599289 -0.759831 0.252009
vn 0.715339 -0.125928 0.687337
vn 0.292631 -0.193669 0.936407
vn -0.029739 0.066540 0.997341
vn 0.925492 -0.001278 0.378765
vn 0.998958 -0.045593 0.002157
vn 0.978373 -0.042779 0.202376
vn 0.281675 -0.828091 0.484690
vn 0.025063 0.175422 0.984174
vn 0.827327 -0.047426 0.559714
vn 0.921893 0.017497 0.387050
vn -0.127554 0.900158 0.416469
vn 0.326999 0.312559 0.891840
vn 0.562228 0.318255 0.763291
vn 0.579404 0.322849 0.748372
vn 0.333810 -0.206022 0.919851
vn 0.153052 -0.284217 0.946465
vn -0.020957 0.913259 0.406839
vn -0.191656 -0.032014 0.980940
vn 0.126212 -0.697827 0.705059
vn 0.377836 0.005678 0.925855
vn 0.494426 -0.866025 -0.074458
vn 0.766199 -0.039692 0.641377
vn 0.012774 -0.999523 -0.028108
vn 0.360552 0.124631 0.924375
vn 0.698835 0.060543 0.712716
vn 0.321988 -0.946744 -0.000432
vn 0.163402 0.018259 0.986391
vn 0.997413 0.066017 -0.028457
vn 0.962920 0.201591 -0.179293
vn 0.659962 -0.310090 0.684320
vn 0.009176 -0.440539 0.897686
vn 0.720270 -0.138833 0.679660
vn -0.106692 -0.316667 0.942517
vn 0.430412 0.704898 0.563794
vn 0.929676 0.061326 0.363237
vn 0.838716 0.428179 0.336478
vn 0.718071 0.595994 0.359394
vn 0.350652 0.298089 0.887798
vn 0.616642 0.409545 -0.672329
vn 0.527939 0.480273 -0.700442
vn 0.170539 0.980430 -0.098356
vn 0.077449 0.960228 -0.268261
vn 0.758066 -0.211674 0.616872
vn 0.703665 0.402386 0.585611
vn 0.688756 -0.095266 -0.718707
vn 0.920104 0.389912 0.037123
vn -0.911458 -0.331964 0.242988
vn 0.934235 0.174108 0.311272
vn 0.716027 0.075051 -0.694027
vn -0.771435 -0.217876 -0.597845
vn 0.194834 -0.043090 0.979889
vn -0.614524 -0.427416 -0.663080
vn -0.395272 -0.320917 -0.860681
vn 0.936993 -0.223146 -0.268794
vn 0.776039 -0.166696 -0.608256
vn 0.906502 0.163727 0.389162
vn 0.911104 0.165436 0.377518
vn 0.073813 0.743443 0.664713
vn -0.288635 0.476671 0.830346
vn -0.909856 0.406674 -0.082329
vn -0.903557 0.061450 0.424039
vn -0.339162 -0.277319 -0.898924
vn -0.403914 -0.208653 -0.890684
vn 0.805596 0.279955 -0.522150
vn 0.788916 0.008723 -0.614440
vn 0.924564 0.077308 0.373102
vn 0.924382 0.076935 0.373629
vn 0.159377 -0.032925 0.986669
vn -0.842916 -0.479420 0.244233
vn -0.763752 -0.008787 -0.645450
vn -0.388213 -0.466926 -0.794526
vn 0.840801 -0.047357 -0.539268
vn 0.700332 0.128339 -0.702185
vn 0.916499 0.246055 0.315414
vn 0.909113 0.173044 0.378905
vn 0.193655 -0.086523 0.977247
vn 0.069908 -0.005555 0.997538
vn -0.991776 -0.127344 0.012774
vn 0.843286 0.117597 -0.524442
vn -0.395908 -0.226721 -0.889862
vn -0.885936 -0.349037 0.305433
vn 0.160766 -0.143812 0.976459
vn -0.854845 -0.411651 0.315885
vn 0.118331 -0.129249 0.984527
vn 0.719086 0.275926 -0.637793
vn -0.449727 -0.279579 -0.848281
vn -0.557346 -0.360968 -0.747709
vn -0.589950 -0.353687 -0.725854
vn 0.603178 -0.589145 -0.537665
vn 0.761153 -0.493197 -0.421192
vn 0.870140 -0.083931 0.485605
vn 0.895726 -0.094089 0.434537
vn 0.162935 0.296921 0.940899
vn 0.050446 0.356769 0.932830
vn -0.995347 0.096284 -0.003635
vn -0.959254 0.244108 0.142280
vn 0.648840 -0.625474 0.433346
vn -0.205346 -0.064419 0.976567
vn 0.036424 0.848587 0.527801
vn -0.103235 0.786528 0.608865
vn -0.068947 0.791184 0.607679
vn -0.200405 0.573015 0.794664
vn -0.291193 0.538163 0.790941
vn 0.884322 -0.106932 0.454466
vn 0.920740 -0.366160 0.134777
vn -0.548733 -0.326126 -0.769762
vn -0.008826 -0.926856 -0.375313
vn -0.610170 -0.440976 -0.658204
vn -0.520890 -0.469481 -0.712924
vn -0.775976 -0.532080 -0.338751
vn -0.652231 0.727462 -0.213059
vn 0.237676 0.788905 0.566691
vn 0.049966 0.461388 0.885790
vn -0.958874 0.003694 -0.283808
vn -0.969525 -0.008124 -0.244859
vn 0.922540 -0.230276 0.309665
vn 0.938921 -0.203019 0.277869
vn 0.052825 0.443308 0.894811
vn 0.844623 -0.352473 0.402958
vn 0.542390 -0.477604 -0.691164
vn 0.428040 -0.548280 -0.718450
vn -0.965566 -0.000060 -0.260156
vn 0.934295 0.050687 0.352880
vn -0.970873 -0.152306 -0.184957
vn -0.498678 -0.105815 -0.860304
vn 0.651371 -0.240138 -0.719757
vn 0.043890 -0.341113 0.938997
vn 0.955812 -0.147710 0.254177
vn 0.467573 -0.302622 -0.830539
vn 0.552757 0.464279 0.692029
vn 0.564649 0.451390 0.690955
vn -0.973203 -0.040827 -0.226293
vn 0.071857 0.466745 0.881468
vn 0.887589 -0.314193 0.336851
vn 0.506648 -0.627683 -0.591035
vn -0.874786 -0.005948 -0.484473
vn 0.599115 0.494325 -0.629844
vn 0.581139 0.507238 -0.636386
vn 0.782745 0.086709 0.616273
vn 0.765728 0.020780 0.642829
vn -0.646119 -0.284903 0.708068
vn -0.576563 -0.347760 0.739349
vn 0.878430 -0.090386 0.469245
vn -0.610103 0.137547 0.780292
vn 0.631909 -0.257554 -0.730997
vn 0.838363 -0.074489 0.540000
vn 0.853200 -0.159332 0.496651
vn -0.312547 -0.460250 0.830953
vn 0.860304 0.056610 0.506629
vn -0.590218 -0.405081 0.698249
vn -0.842963 0.087043 -0.530884
vn 0.862019 0.134406 0.488731
vn -0.486422 -0.218980 0.845838
vn 0.892176 0.088943 0.442844
vn 0.621289 0.185688 -0.761262
vn 0.474590 0.017961 -0.880024
vn -0.237150 -0.137144 -0.961744
vn -0.719558 -0.381493 -0.580258
vn -0.531953 -0.316150 0.785541
vn -0.948887 -0.293146 -0.116961
vn 0.572928 0.553401 -0.604567
vn 0.784218 0.187731 0.591404
vn -0.633911 -0.242696 0.734340
vn -0.855827 0.170825 -0.488241
vn 0.756811 0.295647 -0.582949
vn -0.886314 -0.087813 -0.454682
vn -0.851590 -0.087501 -0.516854
vn 0.636617 0.245972 -0.730901
vn 0.803129 -0.224591 0.551854
vn 0.924247 -0.008120 0.381708
vn -0.685061 -0.463116 0.562330
vn -0.589904 -0.516089 0.621020
vn -0.875252 0.271538 -0.400251
vn -0.164484 0.364439 -0.916585
vn -0.937573 -0.344346 -0.048809
vn 0.905946 0.233482 -0.353196
vn 0.208150 -0.928555 -0.307341
vn 0.216792 -0.927560 -0.304357
vn 0.560673 0.699690 0.442809
vn 0.564511 0.608381 -0.557853
vn -0.734481 0.265149 0.624687
vn 0.570382 0.705852 0.420045
vn -0.820567 0.254249 0.511887
vn 0.208193 -0.929517 -0.304390
vn 0.208664 -0.929545 -0.303983
vn 0.477284 0.806930 0.347942
vn 0.187167 0.145031 0.971563
vn -0.796005 0.440774 0.414843
vn 0.390500 -0.761151 -0.517841
vn -0.146809 -0.099739 -0.984124
vn 0.307530 -0.348448 -0.885443
vn -0.527878 0.335619 0.780196
vn -0.899359 -0.291502 -0.325853
vn -0.251678 -0.506574 -0.824646
vn -0.209156 -0.533049 -0.819825
vn -0.889285 -0.352629 -0.291246
vn -0.142058 -0.096276 -0.985165
vn -0.904027 -0.297405 -0.307061
vn 0.267268 -0.889115 -0.371541
vn 0.286338 -0.881825 -0.374694
vn 0.011672 -0.761220 -0.648388
vn 0.504894 -0.623515 0.596918
vn 0.635751 -0.437880 0.635674
vn -0.279836 -0.264567 0.922874
vn -0.174051 -0.504709 0.845562
vn -0.939362 -0.323292 0.114375
vn -0.067025 -0.033453 -0.997190
vn -0.492219 -0.333835 0.803912
vn -0.607799 -0.714338 0.346845
vn -0.545181 0.156604 0.823561
vn -0.522644 0.047063 0.851251
vn -0.746799 -0.098661 0.657691
vn -0.011227 -0.100595 0.994864
vn -0.288660 -0.021315 0.957194
vn -0.018712 0.384160 -0.923077
vn -0.064745 0.031283 -0.997411
vn -0.432566 -0.337504 0.836049
vn -0.418966 0.869803 -0.260597
vn -0.290312 -0.017688 0.956769
vn -0.170013 0.505565 -0.845872
vn -0.479354 0.006336 0.877599
vn -0.429722 0.486257 0.760850
vn -0.542850 0.758566 0.360405
vn -0.260019 0.435161 0.861989
vn -0.253067 0.426412 0.868406
vn -0.739497 0.411349 0.532856
vn -0.603888 0.608213 -0.515166
vn -0.225225 0.659749 -0.716941
vn -0.047620 0.785439 -0.617105
vn -0.473683 0.746785 0.466837
vn -0.466438 0.764787 -0.444451
vn -0.600904 0.654090 -0.459435
vn -0.125104 0.572965 -0.809976
vn -0.044643 0.655651 -0.753743
vn -0.119827 0.553171 -0.824405
vn 0.175581 0.220894 0.959363
vn -0.664635 0.005487 0.747148
vn -0.937260 0.166759 -0.306161
vn -0.292926 0.097293 -0.951172
vn 0.185878 0.145591 0.971727
vn -0.016467 0.055441 0.998326
vn -0.820030 0.309909 0.481152
vn -0.638133 0.324359 0.698268
vn -0.730594 0.204467 0.651480
vn -0.927944 0.183879 -0.324205
vn -0.373511 0.186480 -0.908688
vn -0.893273 0.331822 -0.303245
vn -0.728496 0.088047 -0.679368
vn -0.373846 0.181588 -0.909541
vn 0.207302 -0.062439 -0.976282
vn 0.012363 0.019526 0.999733
vn -0.931339 0.209517 0.297841
vn -0.689063 0.114596 -0.715584
vn -0.239072 0.046830 -0.969872
vn -0.853347 0.093466 0.512897
vn -0.719174 0.482334 -0.500142
vn -0.786416 0.350066 0.508923
vn -0.460095 -0.109838 -0.881050
vn -0.935009 0.255627 -0.245790
vn 0.765781 0.257522 -0.589289
vn 0.018996 -0.997225 -0.071979
vn -0.556501 -0.696298 -0.453295
vn -0.971583 -0.170387 0.164298
vn -0.747265 -0.189199 0.637023
vn -0.504599 0.068584 0.860625
vn -0.974009 -0.080017 -0.211906
vn -0.851667 -0.190828 -0.488107
vn -0.747134 -0.200652 -0.633663
vn -0.413623 -0.838716 0.354220
vn -0.543136 0.177876 0.820587
vn -0.998637 -0.039573 0.034026
vn -0.986400 0.025703 -0.162337
vn -0.106265 0.900063 0.422603
vn -0.748654 0.317176 0.582165
vn -0.879460 0.324448 0.348258
vn -0.886043 0.329148 0.326480
vn -0.773428 -0.201260 0.601086
vn -0.635124 -0.280822 0.719552
vn -0.191329 0.913991 0.357790
vn -0.359519 -0.031292 0.932613
vn -0.487322 -0.695185 0.528427
vn -0.812226 0.010792 0.583243
vn -0.294167 -0.840043 -0.455844
vn -0.999949 0.007871 0.006338
vn -0.002448 -0.999404 -0.034427
vn -0.795857 0.129599 0.591452
vn -0.970313 0.067717 0.232178
vn -0.192319 -0.961263 -0.197452
vn -0.662720 0.021812 0.748549
vn -0.824595 0.073839 -0.560884
vn -0.714264 0.204912 -0.669207
vn -0.925234 -0.303281 0.227953
vn -0.488592 -0.438406 0.754372
vn -0.972473 -0.131551 0.192330
vn -0.413303 -0.315330 0.854253
vn -0.658688 0.709579 0.250254
vn -0.979983 0.069535 -0.186543
vn -0.885807 0.435597 -0.160003
vn -0.794489 0.602496 -0.076066
vn -0.766646 0.302899 0.566132
vn -0.183016 0.397467 -0.899180
vn -0.070946 0.484369 -0.871983
vn -0.084347 0.981525 -0.171737
vn 0.084667 0.960198 -0.266180
vn -0.960278 0.037713 0.276486
vn -0.868289 0.115448 0.482438
vn -0.477907 -0.259293 -0.839269
vn -0.880737 0.186838 -0.435194
vn 0.933894 0.268521 0.236089
vn -0.986908 -0.103616 0.123596
vn -0.543570 -0.025819 -0.838967
vn 0.766315 -0.296780 -0.569809
vn -0.406232 -0.129331 0.904571
vn 0.947129 -0.113767 0.300006
vn 0.616289 -0.635323 -0.465351
vn -0.765220 -0.627068 -0.145682
vn -0.453601 -0.723861 -0.519876
vn -0.992638 0.016962 0.119921
vn -0.995633 -0.088163 -0.030681
vn -0.383170 0.597356 -0.704519
vn 0.470121 0.875698 0.110182
vn -0.218061 0.631640 -0.743962
vn -0.554473 0.810598 -0.188386
vn 0.658095 -0.220310 -0.719983
vn 0.645092 -0.242686 -0.724541
vn -0.674804 0.007777 -0.737956
vn -0.597694 -0.228369 -0.768511
vn -0.984636 -0.092620 0.148030
vn -0.991091 -0.075190 0.109928
vn -0.316809 0.192105 0.928831
vn 0.911607 -0.297831 0.283318
vn 0.761975 -0.255474 -0.595086
vn 0.755022 -0.402162 -0.517888
vn -0.655079 -0.287577 -0.698693
vn -0.550605 -0.067999 -0.831992
vn -0.991677 0.050937 0.118248
vn -0.989478 0.030032 0.141534
vn -0.424168 -0.077446 0.902266
vn -0.310142 0.044896 0.949630
vn 0.645839 -0.229611 0.728128
vn -0.678030 -0.069335 -0.731757
vn 0.649439 -0.227838 -0.725478
vn 0.807116 -0.078130 0.585200
vn -0.196875 -0.065431 0.978243
vn 0.847803 0.014790 0.530105
vn -0.338192 -0.179735 0.923754
vn -0.586314 0.016123 -0.809924
vn 0.778706 -0.234396 -0.581958
vn 0.878103 -0.377439 -0.294066
vn 0.979708 -0.135607 -0.147592
vn -0.152215 -0.985107 -0.079962
vn -0.419159 -0.902977 -0.094540
vn -0.953523 -0.169308 0.249255
vn -0.952350 -0.227473 0.203188
vn -0.594271 0.654259 0.467747
vn -0.542694 0.705946 0.455108
vn 0.899571 0.426121 0.095881
vn 0.720524 0.679467 0.138454
vn -0.608446 -0.490295 0.624023
vn -0.215582 0.588161 0.779481
vn -0.441893 0.875730 -0.194492
vn -0.344406 0.935828 -0.074901
vn -0.371964 0.924463 -0.083727
vn -0.287363 0.932143 0.220299
vn -0.198075 0.946070 0.256356
vn -0.943931 -0.217365 0.248488
vn -0.782283 -0.593959 0.187737
vn 0.879166 -0.410590 -0.241833
vn 0.375729 -0.856174 0.354676
vn 0.912820 -0.401974 -0.071954
vn 0.862951 -0.493629 -0.107918
vn 0.944605 -0.219548 0.243969
vn 0.484828 0.693095 -0.533443
vn -0.628336 0.761740 -0.157941
vn -0.520153 0.792379 0.318711
vn 0.960930 0.273182 -0.044561
vn 0.956649 0.291160 -0.007014
vn -0.888195 -0.402282 0.221987
vn -0.895465 -0.407941 0.178118
vn -0.522343 0.783374 0.336871
vn -0.831085 -0.401772 0.384549
vn -0.078460 -0.960224 -0.267981
vn 0.049683 -0.974106 -0.220564
vn 0.957737 0.286643 -0.023987
vn -0.979335 -0.193066 0.060232
vn 0.965482 0.223313 0.134073
vn 0.829457 -0.320122 -0.457737
vn -0.200780 -0.858269 -0.472293
vn -0.357197 0.260679 0.896915
vn -0.913852 -0.388589 0.117782
vn 0.005445 -0.879190 -0.476440
vn -0.880831 0.463795 0.095025
vn -0.887757 0.449157 0.100730
vn 0.959560 0.279998 0.029094
vn -0.538801 0.783996 0.308293
vn -0.849906 -0.430665 0.303624
vn -0.054753 -0.994544 -0.088799
vn 0.904876 0.150889 -0.398036
vn -0.511432 0.365521 -0.777709
vn -0.557986 0.327737 -0.762391
vn -0.856792 -0.027422 0.514932
vn -0.823771 -0.106479 0.556834
vn 0.572435 -0.162172 0.803753
vn 0.470551 -0.276155 0.838045
vn -0.918104 -0.234914 0.319218
vn 0.516226 -0.092386 0.851455
vn -0.496034 -0.088317 -0.863800
vn -0.792579 -0.319568 0.519321
vn -0.785012 -0.208124 0.583473
vn 0.325302 -0.458781 0.826861
vn -0.895045 0.110206 0.432144
vn 0.533320 -0.400571 0.745059
vn 0.889908 0.179994 -0.419124
vn -0.837240 0.052052 0.544352
vn 0.560522 -0.250604 0.789312
vn -0.845025 0.040995 0.533153
vn -0.693009 0.181826 -0.697623
vn -0.471222 -0.024642 -0.881670
vn 0.072630 -0.069182 -0.994957
vn 0.764481 -0.338849 -0.548407
vn 0.579419 -0.284829 0.763640
vn 0.956470 -0.242538 -0.162297
vn -0.569184 0.349460 -0.744250
vn -0.874210 0.130272 0.467747
vn 0.544349 -0.043804 0.837714
vn 0.877204 0.226412 -0.423381
vn -0.712829 0.091087 -0.695398
vn 0.939432 -0.004891 -0.342700
vn 0.895397 -0.027065 -0.444445
vn -0.501334 0.019256 -0.865039
vn -0.820995 -0.249343 0.513610
vn -0.946081 -0.101624 0.307577
vn 0.622531 -0.239503 0.745046
vn 0.574063 -0.268281 0.773613
vn 0.870167 0.323989 -0.371269
vn 0.222978 0.162512 -0.961182
vn 0.978106 -0.166065 0.125424
vn -0.881234 -0.027756 -0.471864
vn -0.022529 -0.997102 -0.072664
vn -0.031248 -0.996998 -0.070843
vn -0.710018 0.674101 0.203623
vn -0.569151 0.349031 -0.744476
vn 0.606094 0.534918 0.588653
vn -0.722454 0.671747 0.163756
vn 0.712495 0.510056 0.481865
vn -0.003697 -0.998270 -0.058687
vn -0.029778 -0.998754 -0.040054
vn -0.648014 0.756972 0.084092
vn -0.332615 0.348243 0.876410
vn 0.664982 0.676758 0.315907
vn -0.060384 -0.991538 -0.114917

f 1/1/1 2/2/1 3/3/1
f 4/4/2 5/5/2 6/6/2
f 4/4/3 6/7/3 7/8/3
f 5/9/4 8/10/4 9/11/4
f 10/12/5 11/13/5 9/14/5
f 6/6/6 11/15/6 7/8/6
f 6/6/7 12/16/7 11/13/7
f 12/17/8 5/5/8 9/14/8
f 6/6/9 5/5/9 12/17/9
f 11/13/10 12/18/10 9/19/10
f 13/20/11 14/21/11 15/22/11
f 14/21/12 13/20/12 16/23/12
f 16/24/13 13/20/13 17/25/13
f 15/22/14 14/21/14 18/26/14
f 14/21/15 19/27/15 18/26/15
f 18/26/16 20/28/16 21/29/16
f 18/26/17 19/27/17 20/28/17
f 20/28/18 3/30/18 21/29/18
f 5/9/19 22/31/19 23/32/19
f 24/33/20 25/34/20 26/35/20
f 27/36/21 25/34/21 9/37/21
f 28/38/22 27/39/22 29/40/22
f 30/41/23 25/34/23 24/33/23
f 25/34/24 30/41/24 10/42/24
f 30/41/25 24/33/25 31/43/25
f 24/33/26 26/44/26 32/45/26
f 33/46/27 34/47/27 5/9/27
f 4/4/28 22/31/28 5/9/28
f 26/35/29 25/34/29 27/39/29
f 33/46/30 35/48/30 34/47/30
f 32/45/31 26/35/31 28/38/31
f 23/32/32 33/46/32 5/9/32
f 26/35/33 27/39/33 28/38/33
f 28/38/34 29/40/34 36/49/34
f 35/50/35 37/51/35 29/40/35
f 28/38/36 38/52/36 32/45/36
f 36/49/37 38/52/37 28/38/37
f 36/49/38 37/53/38 39/54/38
f 39/55/39 37/56/39 40/57/39
f 41/58/40 42/59/40 39/55/40
f 39/55/41 40/57/41 41/58/41
f 36/49/42 29/40/42 37/51/42
f 37/56/43 35/48/43 33/46/43
f 37/56/44 33/46/44 40/57/44
f 40/57/45 33/46/45 43/60/45
f 40/57/46 43/60/46 41/58/46
f 33/46/47 23/32/47 43/60/47
f 44/61/48 45/62/48 30/63/48
f 15/64/49 46/65/49 45/62/49
f 46/66/50 47/67/50 10/68/50
f 47/67/51 7/69/51 11/70/51
f 45/62/52 44/61/52 17/71/52
f 44/61/53 30/63/53 31/72/53
f 13/73/54 15/64/54 45/62/54
f 46/65/55 10/74/55 45/62/55
f 45/62/56 10/74/56 30/63/56
f 47/67/57 11/70/57 10/68/57
f 47/67/58 48/75/58 7/69/58
f 46/66/59 15/76/59 47/67/59
f 18/77/60 47/67/60 15/76/60
f 47/67/61 18/77/61 48/75/61
f 18/77/62 21/78/62 48/75/62
f 13/73/63 45/62/63 17/71/63
f 49/79/64 35/50/64 29/40/64
f 8/80/65 27/81/65 9/82/65
f 34/47/66 50/83/66 5/84/66
f 27/36/67 49/79/67 29/40/67
f 35/48/68 51/85/68 52/86/68
f 35/50/69 49/79/69 51/87/69
f 52/86/70 50/83/70 34/47/70
f 35/48/71 52/86/71 34/47/71
f 5/84/72 50/83/72 8/10/72
f 53/88/73 27/81/73 8/80/73
f 53/88/74 49/79/74 27/36/74
f 54/89/75 55/90/75 56/91/75
f 57/92/76 55/90/76 58/93/76
f 59/94/77 60/95/77 55/90/77
f 61/96/78 54/89/78 56/91/78
f 39/97/79 61/96/79 36/98/79
f 36/98/80 61/96/80 56/91/80
f 36/98/81 56/91/81 38/99/81
f 62/100/82 63/101/82 64/102/82
f 65/103/83 64/102/83 54/89/83
f 61/96/84 65/103/84 54/89/84
f 66/104/85 67/105/85 62/100/85
f 55/90/86 60/95/86 68/106/86
f 69/107/87 68/106/87 60/95/87
f 69/107/88 70/108/88 68/106/88
f 58/109/89 55/90/89 68/106/89
f 68/106/90 71/110/90 58/111/90
f 62/100/91 67/105/91 63/101/91
f 64/102/92 63/101/92 69/107/92
f 70/108/93 71/110/93 68/106/93
f 58/111/94 71/110/94 72/112/94
f 56/91/95 57/92/95 38/113/95
f 55/90/96 57/114/96 56/91/96
f 73/115/97 74/116/97 38/113/97
f 58/109/98 72/112/98 73/115/98
f 57/117/99 58/111/99 73/115/99
f 57/92/100 73/115/100 38/113/100
f 73/115/101 72/112/101 74/116/101
f 39/97/102 75/118/102 61/96/102
f 75/118/103 39/97/103 76/119/103
f 64/102/104 59/94/104 54/89/104
f 64/102/105 60/95/105 59/94/105
f 54/89/106 59/94/106 55/90/106
f 64/102/107 69/107/107 60/95/107
f 65/103/108 66/104/108 62/100/108
f 65/103/109 61/96/109 75/118/109
f 75/118/110 76/119/110 65/103/110
f 66/104/111 65/103/111 76/119/111
f 62/100/112 64/102/112 65/103/112
f 39/97/113 42/120/113 76/119/113
f 77/121/114 76/119/114 42/120/114
f 67/105/115 76/119/115 77/121/115
f 66/104/116 76/119/116 67/105/116
f 9/82/117 25/34/117 10/42/117
f 51/122/118 49/123/118 78/124/118
f 79/125/119 50/126/119 52/127/119
f 52/127/120 51/122/120 79/125/120
f 80/128/121 81/129/121 53/130/121
f 51/122/122 78/124/122 79/125/122
f 82/131/123 50/126/123 79/125/123
f 50/126/124 82/131/124 8/132/124
f 53/133/125 78/124/125 49/123/125
f 83/134/126 84/135/126 85/136/126
f 84/135/127 83/134/127 86/137/127
f 86/137/128 87/138/128 84/135/128
f 88/139/129 84/135/129 87/138/129
f 87/138/130 89/140/130 88/139/130
f 90/141/131 88/139/131 89/140/131
f 91/142/132 92/143/132 90/141/132
f 90/141/133 89/140/133 91/142/133
f 85/136/134 92/144/134 91/145/134
f 91/145/135 83/134/135 85/136/135
f 80/128/136 93/146/136 83/134/136
f 94/147/137 83/134/137 93/146/137
f 93/146/138 87/138/138 94/147/138
f 87/138/139 93/146/139 95/148/139
f 95/148/140 96/149/140 87/138/140
f 89/140/141 87/138/141 96/149/141
f 97/150/142 91/142/142 89/140/142
f 97/151/143 81/129/143 80/128/143
f 8/132/144 82/131/144 80/128/144
f 93/146/145 80/128/145 98/152/145
f 98/152/146 95/148/146 93/146/146
f 95/148/147 82/131/147 79/125/147
f 79/125/148 78/124/148 95/148/148
f 96/149/149 95/148/149 78/124/149
f 78/124/150 53/133/150 81/153/150
f 81/153/151 96/149/151 78/124/151
f 80/128/152 53/130/152 8/154/152
f 94/147/153 87/138/153 86/137/153
f 86/137/154 83/134/154 94/147/154
f 97/151/155 83/134/155 91/145/155
f 89/140/156 96/149/156 97/150/156
f 80/128/157 83/134/157 97/151/157
f 81/153/158 97/150/158 96/149/158
f 82/131/159 95/148/159 98/152/159
f 98/152/160 80/128/160 82/131/160
f 85/136/161 99/155/161 100/156/161
f 99/155/162 85/136/162 84/135/162
f 84/135/163 101/157/163 99/155/163
f 101/157/164 84/135/164 88/139/164
f 88/139/165 90/141/165 101/157/165
f 102/158/166 101/157/166 90/141/166
f 90/141/167 103/159/167 102/158/167
f 103/159/168 90/141/168 92/143/168
f 92/144/169 85/136/169 103/160/169
f 100/156/170 103/160/170 85/136/170
f 104/161/171 105/162/171 106/163/171
f 107/164/172 106/163/172 108/165/172
f 109/166/173 110/167/173 103/168/173
f 109/166/174 111/169/174 104/161/174
f 104/161/175 110/167/175 109/166/175
f 104/161/176 111/169/176 112/170/176
f 113/171/177 112/170/177 111/169/177
f 106/163/178 110/167/178 104/161/178
f 104/161/179 112/170/179 105/162/179
f 105/172/180 113/173/180 111/174/180
f 113/173/181 105/172/181 112/175/181
f 105/172/182 111/174/182 109/176/182
f 109/176/183 106/177/183 105/172/183
f 109/176/184 100/178/184 106/177/184
f 103/179/185 100/178/185 109/176/185
f 102/180/186 103/168/186 110/167/186
f 106/163/187 114/181/187 108/165/187
f 115/182/188 116/183/188 106/177/188
f 116/184/189 117/185/189 118/186/189
f 108/165/190 114/181/190 119/187/190
f 119/187/191 120/188/191 108/165/191
f 118/189/192 121/190/192 114/191/192
f 114/191/193 121/190/193 117/192/193
f 116/193/194 115/194/194 119/187/194
f 120/188/195 119/187/195 115/194/195
f 121/195/196 118/186/196 117/185/196
f 108/165/197 101/196/197 102/180/197
f 115/182/198 106/177/198 100/178/198
f 100/178/199 99/197/199 115/182/199
f 120/188/200 99/198/200 101/196/200
f 106/163/201 107/164/201 110/167/201
f 108/165/202 120/188/202 101/196/202
f 120/188/203 115/194/203 99/198/203
f 107/164/204 102/180/204 110/167/204
f 102/180/205 107/164/205 108/165/205
f 118/199/206 106/177/206 116/183/206
f 114/181/207 106/163/207 118/200/207
f 114/191/208 117/192/208 119/201/208
f 117/192/209 116/202/209 119/201/209
f 122/203/210 123/204/210 124/205/210
f 125/206/211 126/207/211 123/208/211
f 125/206/212 123/208/212 127/209/212
f 125/210/213 128/211/213 126/212/213
f 128/211/214 129/213/214 126/212/214
f 128/214/215 124/215/215 129/216/215
f 122/217/216 124/215/216 128/214/216
f 130/218/217 128/211/217 125/219/217
f 131/220/218 122/221/218 130/222/218
f 132/223/219 125/224/219 127/225/219
f 132/226/220 131/227/220 125/219/220
f 133/228/221 131/227/221 132/226/221
f 133/229/222 122/221/222 131/220/222
f 130/218/223 125/219/223 131/227/223
f 128/214/224 130/222/224 122/221/224
f 127/209/225 123/204/225 122/203/225
f 16/230/226 133/228/226 14/231/226
f 16/232/227 3/3/227 133/229/227
f 14/231/228 133/228/228 132/226/228
f 14/233/229 132/223/229 19/234/229
f 132/223/230 127/225/230 19/234/230
f 20/235/231 19/234/231 127/225/231
f 20/235/232 127/225/232 122/236/232
f 3/3/233 122/221/233 133/229/233
f 3/237/234 20/235/234 122/236/234
f 134/238/235 135/239/235 136/240/235
f 137/241/236 135/242/236 134/243/236
f 138/244/237 139/245/237 137/246/237
f 138/247/238 136/248/238 139/249/238
f 134/238/239 136/240/239 123/208/239
f 138/247/240 123/250/240 136/248/240
f 123/250/241 138/247/241 124/251/241
f 134/238/242 123/208/242 126/252/242
f 129/253/243 134/243/243 126/254/243
f 137/241/244 134/243/244 129/253/244
f 138/244/245 137/246/245 129/255/245
f 138/244/246 129/255/246 124/256/246
f 136/257/247 140/258/247 139/259/247
f 136/257/248 141/260/248 140/258/248
f 142/261/249 139/259/249 140/258/249
f 135/262/250 143/263/250 141/260/250
f 141/264/251 143/265/251 142/266/251
f 142/266/252 140/267/252 141/264/252
f 137/268/253 143/263/253 135/262/253
f 135/262/254 141/260/254 136/257/254
f 139/259/255 142/261/255 137/268/255
f 137/268/256 144/269/256 143/263/256
f 137/268/257 142/261/257 144/269/257
f 143/265/258 145/270/258 146/271/258
f 146/271/259 142/266/259 143/265/259
f 143/263/260 144/269/260 145/272/260
f 144/269/261 146/273/261 145/272/261
f 146/273/262 144/269/262 142/261/262
f 3/274/263 16/275/263 17/276/263
f 147/5/264 4/4/264 148/6/264
f 148/7/265 4/4/265 7/8/265
f 149/10/266 147/9/266 150/11/266
f 151/13/267 152/12/267 150/14/267
f 151/15/268 148/6/268 7/8/268
f 153/16/269 148/6/269 151/13/269
f 147/5/270 153/17/270 150/14/270
f 147/5/271 148/6/271 153/17/271
f 153/18/272 151/13/272 150/19/272
f 154/21/273 155/20/273 156/22/273
f 155/20/274 154/21/274 157/23/274
f 155/20/275 157/24/275 17/25/275
f 154/21/276 156/22/276 158/26/276
f 159/27/277 154/21/277 158/26/277
f 160/28/278 158/26/278 21/29/278
f 159/27/279 158/26/279 160/28/279
f 3/30/280 160/28/280 21/29/280
f 22/31/281 147/9/281 23/32/281
f 161/34/282 24/33/282 162/35/282
f 161/34/283 163/36/283 150/37/283
f 163/39/284 164/38/284 165/40/284
f 161/34/285 166/41/285 24/33/285
f 166/41/286 161/34/286 152/42/286
f 24/33/287 166/41/287 31/43/287
f 162/44/288 24/33/288 32/45/288
f 167/47/289 168/46/289 147/9/289
f 22/31/290 4/4/290 147/9/290
f 161/34/291 162/35/291 163/39/291
f 169/48/292 168/46/292 167/47/292
f 162/35/293 32/45/293 164/38/293
f 168/46/294 23/32/294 147/9/294
f 163/39/295 162/35/295 164/38/295
f 165/40/296 164/38/296 170/49/296
f 171/51/297 169/50/297 165/40/297
f 38/52/298 164/38/298 32/45/298
f 38/52/299 170/49/299 164/38/299
f 171/53/300 170/49/300 172/54/300
f 171/56/301 172/55/301 173/57/301
f 42/59/302 41/58/302 172/55/302
f 173/57/303 172/55/303 41/58/303
f 165/40/304 170/49/304 171/51/304
f 169/48/305 171/56/305 168/46/305
f 168/46/306 171/56/306 173/57/306
f 168/46/307 173/57/307 43/60/307
f 43/60/308 173/57/308 41/58/308
f 23/32/309 168/46/309 43/60/309
f 174/62/310 44/61/310 166/63/310
f 175/65/311 156/64/311 174/62/311
f 176/67/312 175/66/312 152/68/312
f 7/69/313 176/67/313 151/70/313
f 44/61/314 174/62/314 17/71/314
f 166/63/315 44/61/315 31/72/315
f 156/64/316 155/73/316 174/62/316
f 152/74/317 175/65/317 174/62/317
f 152/74/318 174/62/318 166/63/318
f 151/70/319 176/67/319 152/68/319
f 48/75/320 176/67/320 7/69/320
f 156/76/321 175/66/321 176/67/321
f 176/67/322 158/77/322 156/76/322
f 158/77/323 176/67/323 48/75/323
f 21/78/324 158/77/324 48/75/324
f 174/62/325 155/73/325 17/71/325
f 169/50/326 177/79/326 165/40/326
f 163/81/327 149/80/327 150/82/327
f 178/83/328 167/47/328 147/84/328
f 177/79/329 163/36/329 165/40/329
f 179/85/330 169/48/330 180/86/330
f 177/79/331 169/50/331 179/87/331
f 178/83/332 180/86/332 167/47/332
f 180/86/333 169/48/333 167/47/333
f 178/83/334 147/84/334 149/10/334
f 163/81/335 181/88/335 149/80/335
f 177/79/336 181/88/336 163/36/336
f 182/90/337 183/89/337 184/91/337
f 182/90/338 185/92/338 186/93/338
f 187/95/339 188/94/339 182/90/339
f 183/89/340 189/96/340 184/91/340
f 189/96/341 172/97/341 170/98/341
f 189/96/342 170/98/342 184/91/342
f 184/91/343 170/98/343 38/99/343
f 63/101/344 190/100/344 191/102/344
f 191/102/345 192/103/345 183/89/345
f 192/103/346 189/96/346 183/89/346
f 67/105/347 193/104/347 190/100/347
f 187/95/348 182/90/348 194/106/348
f 194/106/349 69/107/349 187/95/349
f 70/108/350 69/107/350 194/106/350
f 182/90/351 186/109/351 194/106/351
f 71/110/352 194/106/352 186/111/352
f 67/105/353 190/100/353 63/101/353
f 63/101/354 191/102/354 69/107/354
f 71/110/355 70/108/355 194/106/355
f 71/110/356 186/111/356 72/112/356
f 185/92/357 184/91/357 38/113/357
f 185/114/358 182/90/358 184/91/358
f 74/116/359 195/115/359 38/113/359
f 72/112/360 186/109/360 195/115/360
f 186/111/361 185/117/361 195/115/361
f 195/115/362 185/92/362 38/113/362
f 72/112/363 195/115/363 74/116/363
f 196/118/364 172/97/364 189/96/364
f 172/97/365 196/118/365 197/119/365
f 188/94/366 191/102/366 183/89/366
f 187/95/367 191/102/367 188/94/367
f 188/94/368 183/89/368 182/90/368
f 69/107/369 191/102/369 187/95/369
f 193/104/370 192/103/370 190/100/370
f 189/96/371 192/103/371 196/118/371
f 197/119/372 196/118/372 192/103/372
f 192/103/373 193/104/373 197/119/373
f 191/102/374 190/100/374 192/103/374
f 42/120/375 172/97/375 197/119/375
f 197/119/376 77/121/376 42/120/376
f 197/119/377 67/105/377 77/121/377
f 197/119/378 193/104/378 67/105/378
f 161/34/379 150/82/379 152/42/379
f 177/123/380 179/122/380 198/124/380
f 178/126/381 199/125/381 180/127/381
f 179/122/382 180/127/382 199/125/382
f 200/129/383 201/128/383 181/130/383
f 198/124/384 179/122/384 199/125/384
f 178/126/385 202/131/385 199/125/385
f 202/131/386 178/126/386 149/132/386
f 198/124/387 181/133/387 177/123/387
f 203/135/388 204/134/388 205/136/388
f 204/134/389 203/135/389 206/137/389
f 207/138/390 206/137/390 203/135/390
f 203/135/391 208/139/391 207/138/391
f 209/140/392 207/138/392 208/139/392
f 208/139/393 210/141/393 209/140/393
f 211/143/394 212/142/394 210/141/394
f 209/140/395 210/141/395 212/142/395
f 211/144/396 205/136/396 212/145/396
f 204/134/397 212/145/397 205/136/397
f 213/146/398 201/128/398 204/134/398
f 204/134/399 214/147/399 213/146/399
f 207/138/400 213/146/400 214/147/400
f 213/146/401 207/138/401 215/148/401
f 216/149/402 215/148/402 207/138/402
f 207/138/403 209/140/403 216/149/403
f 212/142/404 217/150/404 209/140/404
f 200/129/405 217/151/405 201/128/405
f 202/131/406 149/132/406 201/128/406
f 201/128/407 213/146/407 218/152/407
f 215/148/408 218/152/408 213/146/408
f 202/131/409 215/148/409 199/125/409
f 198/124/410 199/125/410 215/148/410
f 215/148/411 216/149/411 198/124/411
f 181/133/412 198/124/412 200/153/412
f 216/149/413 200/153/413 198/124/413
f 181/130/414 201/128/414 149/154/414
f 207/138/415 214/147/415 206/137/415
f 204/134/416 206/137/416 214/147/416
f 204/134/417 217/151/417 212/145/417
f 216/149/418 209/140/418 217/150/418
f 204/134/419 201/128/419 217/151/419
f 217/150/420 200/153/420 216/149/420
f 215/148/421 202/131/421 218/152/421
f 201/128/422 218/152/422 202/131/422
f 219/155/423 205/136/423 220/156/423
f 205/136/424 219/155/424 203/135/424
f 221/157/425 203/135/425 219/155/425
f 203/135/426 221/157/426 208/139/426
f 210/141/427 208/139/427 221/157/427
f 221/157/428 222/158/428 210/141/428
f 223/159/429 210/141/429 222/158/429
f 210/141/430 223/159/430 211/143/430
f 205/136/431 211/144/431 223/160/431
f 223/160/432 220/156/432 205/136/432
f 224/162/433 225/161/433 226/163/433
f 226/163/434 227/164/434 228/165/434
f 229/167/435 230/166/435 223/168/435
f 231/169/436 230/166/436 225/161/436
f 229/167/437 225/161/437 230/166/437
f 231/169/438 225/161/438 232/170/438
f 232/170/439 233/171/439 231/169/439
f 229/167/440 226/163/440 225/161/440
f 232/170/441 225/161/441 224/162/441
f 233/173/442 224/172/442 231/174/442
f 224/172/443 233/173/443 232/175/443
f 231/174/444 224/172/444 230/176/444
f 226/177/445 230/176/445 224/172/445
f 220/178/446 230/176/446 226/177/446
f 220/178/447 223/179/447 230/176/447
f 223/168/448 222/180/448 229/167/448
f 234/181/449 226/163/449 228/165/449
f 235/183/450 236/182/450 226/177/450
f 237/185/451 235/184/451 238/186/451
f 234/181/452 228/165/452 239/187/452
f 240/188/453 239/187/453 228/165/453
f 241/190/454 238/189/454 234/191/454
f 241/190/455 234/191/455 237/192/455
f 236/194/456 235/193/456 239/187/456
f 239/187/457 240/188/457 236/194/457
f 238/186/458 241/195/458 237/185/458
f 221/196/459 228/165/459 222/180/459
f 226/177/460 236/182/460 220/178/460
f 219/197/461 220/178/461 236/182/461
f 219/198/462 240/188/462 221/196/462
f 227/164/463 226/163/463 229/167/463
f 240/188/464 228/165/464 221/196/464
f 236/194/465 240/188/465 219/198/465
f 222/180/466 227/164/466 229/167/466
f 227/164/467 222/180/467 228/165/467
f 226/177/468 238/199/468 235/183/468
f 226/163/469 234/181/469 238/200/469
f 237/192/470 234/191/470 239/201/470
f 235/202/471 237/192/471 239/201/471
f 242/204/472 243/203/472 244/205/472
f 245/207/473 246/206/473 242/208/473
f 242/208/474 246/206/474 247/209/474
f 248/211/475 246/210/475 245/212/475
f 249/213/476 248/211/476 245/212/476
f 244/215/477 248/214/477 249/216/477
f 244/215/478 243/217/478 248/214/478
f 248/211/479 250/218/479 246/219/479
f 243/221/480 251/220/480 250/222/480
f 246/224/481 252/223/481 247/225/481
f 251/227/482 252/226/482 246/219/482
f 251/227/483 253/228/483 252/226/483
f 243/221/484 253/229/484 251/220/484
f 246/219/485 250/218/485 251/227/485
f 250/222/486 248/214/486 243/221/486
f 242/204/487 247/209/487 243/203/487
f 253/228/488 157/230/488 154/231/488
f 3/3/489 157/232/489 253/229/489
f 253/228/490 154/231/490 252/226/490
f 252/223/491 154/233/491 159/234/491
f 247/225/492 252/223/492 159/234/492
f 159/234/493 160/235/493 247/225/493
f 247/225/494 160/235/494 243/236/494
f 243/221/495 3/3/495 253/229/495
f 160/235/496 3/237/496 243/236/496
f 254/239/497 255/238/497 256/240/497
f 254/242/498 257/241/498 255/243/498
f 258/245/499 259/244/499 257/246/499
f 256/248/500 259/247/500 258/249/500
f 256/240/501 255/238/501 242/208/501
f 242/250/502 259/247/502 256/248/502
f 259/247/503 242/250/503 244/251/503
f 242/208/504 255/238/504 245/252/504
f 255/243/505 249/253/505 245/254/505
f 255/243/506 257/241/506 249/253/506
f 257/246/507 259/244/507 249/255/507
f 249/255/508 259/244/508 244/256/508
f 260/258/509 256/257/509 258/259/509
f 261/260/510 256/257/510 260/258/510
f 258/259/511 262/261/511 260/258/511
f 263/263/512 254/262/512 261/260/512
f 263/265/513 261/264/513 262/266/513
f 260/267/514 262/266/514 261/264/514
f 263/263/515 257/268/515 254/262/515
f 261/260/516 254/262/516 256/257/516
f 262/261/517 258/259/517 257/268/517
f 264/269/518 257/268/518 263/263/518
f 262/261/519 257/268/519 264/269/519
f 265/270/520 263/265/520 266/271/520
f 262/266/521 266/271/521 263/265/521
f 264/269/522 263/263/522 265/272/522
f 266/273/523 264/269/523 265/272/523
f 264/269/524 266/273/524 262/261/524
f 157/275/525 3/274/525 17/276/525

o 
usemtl axe.001
s off

v -12.971530 90.654823 19.152470
v -11.965360 83.450554 19.993269
v -14.445971 90.752937 27.571129
v -13.929159 87.662933 26.402960
v -14.446959 89.995888 29.573250
v -13.930140 86.905869 28.405098
v -12.979719 84.351624 35.822021
v -11.970480 79.505768 30.425749
v -13.979230 96.679886 21.430210
v -13.987419 90.376701 38.099762
v -14.988470 101.525742 26.826469
v -14.962790 93.842957 28.739290
v -14.963770 93.085899 30.741409
v -14.993600 97.580963 37.258957
v -11.995180 87.945633 26.510811
v -12.511990 91.035645 27.678968
v -11.996170 87.188576 28.512939
v -12.512970 90.278580 29.681101
v -13.028811 94.125641 28.847120
v -13.029790 93.368607 30.849258
v -8.772000 56.828278 14.746140
v -8.772990 56.071228 16.748270
v -6.839000 56.353920 16.856110
v -6.838010 57.110981 14.853981
v -15.084610 100.112846 32.254230
v -3.395890 23.921621 4.594320
v -1.565640 24.302990 4.632280
v -1.460920 24.961369 2.700030
v -3.394910 24.678680 2.592190

vt 0.033358 0.643728
vt 0.190411 0.923560
vt 0.402692 0.503812
vt 0.402692 0.647326
vt 0.408249 0.287497
vt 0.408249 0.367848
vt 0.492649 0.287497
vt 0.492649 0.367848
vt 0.403043 0.503812
vt 0.403044 0.647326
vt 0.033710 0.643728
vt 0.190763 0.923560
vt 0.033358 0.363896
vt 0.033710 0.363896
vt 0.190411 0.084064
vt 0.402692 0.360297
vt 0.408249 0.207147
vt 0.492649 0.207147
vt 0.403043 0.360297
vt 0.190763 0.084064
vt 0.408248 1.036942
vt 0.492649 1.036942
vt 0.483600 0.371280
vt 0.402049 0.371280
vt 0.402049 1.040375
vt 0.483600 1.040375
vt 0.450449 0.037941
vt 0.483600 0.210579
vt 0.402049 0.210579
vt 0.442825 0.041374
vt 0.000000 1.000000

vn -0.973313 -0.155620 -0.168653
vn -0.965376 -0.066059 -0.252359
vn -0.987982 -0.144415 -0.055093
vn -0.980430 -0.187115 0.061197
vn -0.968541 -0.245700 0.039498
vn -0.980316 -0.099491 -0.170533
vn -0.988075 -0.040301 -0.148604
vn -0.965571 -0.216191 0.144685
vn -0.989574 -0.131299 0.059197
vn 0.965571 0.216191 -0.144686
vn 0.989574 0.131298 -0.059197
vn 0.987982 0.144414 0.055093
vn 0.988075 0.040302 0.148603
vn 0.980316 0.099491 0.170533
vn 0.980430 0.187114 -0.061197
vn 0.968541 0.245700 -0.039498
vn 0.973313 0.155620 0.168653
vn 0.965376 0.066059 0.252359
vn 0.088281 -0.819797 0.565809
vn 0.089034 -0.240358 -0.966592
vn -0.088286 0.819797 -0.565808
vn -0.089030 0.240359 0.966593
vn 0.000460 0.353685 -0.935364
vn -0.000456 -0.353685 0.935365
vn -0.999854 -0.015803 -0.006464
vn 0.957293 0.270278 0.102667
vn -0.023680 -0.210795 0.977243
vn -0.022773 0.488542 -0.872243
vn 0.025691 -0.351138 0.935971
vn 0.987941 0.135329 0.075226
vn 0.154418 -0.937733 -0.311145
vn 0.198233 -0.916834 -0.346583

f 267/277/526 268/278/526 269/279/526
f 270/280/527 269/279/527 268/278/527
f 269/281/528 270/282/528 271/283/528
f 272/284/528 271/283/528 270/282/528
f 271/285/529 272/286/529 273/287/529
f 274/288/530 273/287/530 272/286/530
f 275/289/531 267/277/531 269/279/531
f 273/287/529 276/290/529 271/285/529
f 277/291/532 275/289/532 278/292/532
f 269/279/531 278/292/531 275/289/531
f 278/293/528 269/281/528 279/294/528
f 271/283/528 279/294/528 269/281/528
f 279/295/533 271/285/533 280/296/533
f 276/290/534 280/296/534 271/285/534
f 281/280/535 268/278/535 282/279/535
f 267/277/536 282/279/536 268/278/536
f 283/284/537 281/282/537 284/283/537
f 282/281/537 284/283/537 281/282/537
f 274/288/538 283/286/538 273/287/538
f 284/285/539 273/287/539 283/286/539
f 282/279/540 267/277/540 275/289/540
f 273/287/539 284/285/539 276/290/539
f 282/279/540 275/289/540 285/292/540
f 277/291/541 285/292/541 275/289/541
f 284/283/537 282/281/537 286/294/537
f 285/293/537 286/294/537 282/281/537
f 276/290/542 284/285/542 280/296/542
f 286/295/543 280/296/543 284/285/543
f 270/280/544 268/278/544 281/280/544
f 283/286/545 274/288/545 272/286/545
f 279/295/546 280/296/546 286/295/546
f 285/292/547 277/291/547 278/292/547
f 272/284/528 270/282/528 287/297/528
f 287/297/528 288/298/528 272/284/528
f 281/282/537 283/284/537 289/298/537
f 289/298/537 290/297/537 281/282/537
f 270/299/548 281/300/548 290/301/548
f 290/301/548 287/302/548 270/299/548
f 283/300/549 272/299/549 288/302/549
f 288/302/549 289/301/549 283/300/549
f 278/293/550 279/294/550 291/303/550
f 286/294/551 285/293/551 291/303/551
f 279/304/552 286/305/552 291/306/552
f 285/305/553 278/304/553 291/306/553
f 289/298/554 288/297/554 292/298/554 293/307/554
f 287/297/548 290/298/548 294/297/548 295/307/548
f 290/297/555 289/298/555 293/297/555 294/307/555
f 288/298/528 287/297/528 295/298/528 292/307/528
f 294/297/556 293/298/556 295/297/556
f 292/298/557 295/297/557 293/298/557

