mtllib anim_barb_run2_axe_000030.mtl

o fat
usemtl axe.001
s off

v 25.843731 76.786652 14.793730
v 22.866011 70.115906 15.298940
v 31.950691 73.716492 19.925650
v 29.516529 71.492989 19.368210
v 33.086090 72.217262 20.947821
v 30.651939 69.993752 20.390379
v 35.297020 64.304192 23.304180
v 28.782261 62.303890 20.625132
v 30.589981 81.122162 15.880651
v 40.043266 68.639694 24.391100
v 37.104752 83.122467 18.559700
v 34.384850 75.940010 20.483091
v 35.520252 74.440773 21.505251
v 43.021004 75.310440 23.885889
v 30.366749 70.985573 17.679569
v 32.800911 73.209091 18.237011
v 31.502150 69.486351 18.701740
v 33.936310 71.709854 19.259171
v 35.235058 75.432594 18.794449
v 36.370472 73.933365 19.816620
v 5.226520 49.305008 13.805660
v 6.361920 47.805782 14.827820
v 7.212130 47.298359 13.139180
v 6.076730 48.797588 12.117020
v 40.503613 79.619049 21.323730
v -18.963961 24.671581 9.028040
v -18.113750 24.164169 7.339400
v -19.249161 25.663391 6.317240
v -20.099371 26.170809 8.005880

vt 0.033358 0.643728
vt 0.190411 0.923560
vt 0.402692 0.503812
vt 0.402692 0.647326
vt 0.408249 0.287497
vt 0.408249 0.367848
vt 0.492649 0.287497
vt 0.492649 0.367848
vt 0.403043 0.503812
vt 0.403044 0.647326
vt 0.033710 0.643728
vt 0.190763 0.923560
vt 0.033358 0.363896
vt 0.033710 0.363896
vt 0.190411 0.084064
vt 0.402692 0.360297
vt 0.408249 0.207147
vt 0.492649 0.207147
vt 0.403043 0.360297
vt 0.190763 0.084064
vt 0.408248 1.036942
vt 0.492649 1.036942
vt 0.483600 0.371280
vt 0.402049 0.371280
vt 0.402049 1.040375
vt 0.483600 1.040375
vt 0.450449 0.037941
vt 0.483600 0.210579
vt 0.402049 0.210579
vt 0.442825 0.041374
vt 0.000000 1.000000

vn -0.523777 0.294349 0.799385
vn -0.537021 0.401968 0.741640
vn -0.434334 0.259215 0.862648
vn -0.365283 0.170456 0.915158
vn -0.410424 0.127354 0.902958
vn -0.496696 0.343981 0.796851
vn -0.449738 0.386000 0.805444
vn -0.311857 0.104653 0.944348
vn -0.339142 0.220648 0.914493
vn 0.311857 -0.104652 -0.944348
vn 0.339142 -0.220648 -0.914493
vn 0.434334 -0.259215 -0.862648
vn 0.449739 -0.386000 -0.805443
vn 0.496696 -0.343981 -0.796850
vn 0.365282 -0.170456 -0.915158
vn 0.410424 -0.127354 -0.902958
vn 0.523777 -0.294349 -0.799385
vn 0.537021 -0.401965 -0.741642
vn 0.016943 -0.955177 0.295550
vn -0.852081 0.192310 -0.486801
vn -0.016944 0.955178 -0.295547
vn 0.852082 -0.192312 0.486798
vn -0.530443 0.700417 -0.477542
vn 0.530445 -0.700418 0.477538
vn -0.329965 0.348302 0.877387
vn 0.530430 -0.165189 -0.831478
vn 0.633818 -0.592533 0.497171
vn -0.415023 0.792394 -0.447066
vn -0.727999 -0.664999 -0.166715

f 1/1/1 2/2/1 3/3/1
f 4/4/2 3/3/2 2/2/2
f 3/5/3 4/6/3 5/7/3
f 6/8/3 5/7/3 4/6/3
f 5/9/4 6/10/4 7/11/4
f 8/12/5 7/11/5 6/10/5
f 9/13/6 1/1/6 3/3/6
f 7/11/4 10/14/4 5/9/4
f 11/15/7 9/13/7 12/16/7
f 3/3/6 12/16/6 9/13/6
f 12/17/3 3/5/3 13/18/3
f 5/7/3 13/18/3 3/5/3
f 13/19/8 5/9/8 14/20/8
f 10/14/9 14/20/9 5/9/9
f 15/4/10 2/2/10 16/3/10
f 1/1/11 16/3/11 2/2/11
f 17/8/12 15/6/12 18/7/12
f 16/5/12 18/7/12 15/6/12
f 8/12/13 17/10/13 7/11/13
f 18/9/14 7/11/14 17/10/14
f 16/3/15 1/1/15 9/13/15
f 7/11/14 18/9/14 10/14/14
f 16/3/15 9/13/15 19/16/15
f 11/15/16 19/16/16 9/13/16
f 18/7/12 16/5/12 20/18/12
f 19/17/12 20/18/12 16/5/12
f 10/14/17 18/9/17 14/20/17
f 20/19/18 14/20/18 18/9/18
f 4/4/19 2/2/19 15/4/19
f 17/10/20 8/12/20 6/10/20
f 13/19/21 14/20/21 20/19/21
f 19/16/22 11/15/22 12/16/22
f 6/8/3 4/6/3 21/21/3
f 21/21/3 22/22/3 6/8/3
f 15/6/12 17/8/12 23/22/12
f 23/22/12 24/21/12 15/6/12
f 4/23/23 15/24/23 24/25/23
f 24/25/23 21/26/23 4/23/23
f 17/24/24 6/23/24 22/26/24
f 22/26/24 23/25/24 17/24/24
f 12/17/25 13/18/25 25/27/25
f 20/18/26 19/17/26 25/27/26
f 13/28/27 20/29/27 25/30/27
f 19/29/28 12/28/28 25/30/28
f 23/22/24 22/21/24 26/22/24 27/31/24
f 21/21/23 24/22/23 28/21/23 29/31/23
f 24/21/12 23/22/12 27/21/12 28/31/12
f 22/22/3 21/21/3 29/22/3 26/31/3
f 28/21/29 27/22/29 29/21/29
f 26/22/29 29/21/29 27/22/29

