mtllib anim_skel_walk_shield_000044.mtl

o msked
usemtl shield.001
s off

v 8.752600 43.396740 11.297450
v 4.214890 33.849720 16.699070
v -6.789289 36.192822 10.743219
v 2.889240 36.433460 21.094830
v 16.103729 30.713028 20.969580
v -7.343530 5.836730 28.520250

vt 0.345626 0.959903
vt 0.345626 0.724031
vt 0.085605 0.724031
vt 0.605647 0.724031
vt 0.345626 0.075832

vn 0.292656 -0.572456 -0.765929
vn -0.403219 0.842417 0.357418
vn 0.301762 0.682510 0.665672
vn 0.154215 -0.541054 -0.826728
vn 0.336104 -0.480504 -0.810031
vn -0.680151 0.379658 0.627100
vn 0.097464 0.203816 0.974146
vn 0.194976 -0.448526 -0.872243

f 1/1/1 2/2/1 3/3/1
f 1/1/2 3/3/2 4/2/2
f 1/1/3 4/2/3 5/4/3
f 1/1/4 5/4/4 2/2/4
f 6/5/5 3/3/5 2/2/5
f 6/5/6 4/2/6 3/3/6
f 6/5/7 5/4/7 4/2/7
f 6/5/8 2/2/8 5/4/8

