mtllib anim_barb_attack_new1_axe_000070.mtl

o fat
usemtl axe.001
s off

v -75.466141 63.152042 13.644751
v -69.645775 60.472321 10.100300
v -79.600922 62.153290 6.231020
v -76.360977 61.359756 6.001120
v -79.920052 61.426231 4.243250
v -76.680077 60.632710 4.013340
v -78.123108 57.098679 -2.905230
v -71.308609 56.683887 -0.257350
v -81.783569 64.699280 14.093040
v -84.440544 58.645939 -2.456930
v -88.598068 65.114075 11.445169
v -82.840889 62.946819 6.460930
v -83.160011 62.219757 4.473170
v -90.260918 61.325649 1.087520
v -76.746666 59.578209 6.714660
v -79.986641 60.371742 6.944570
v -77.065804 58.851170 4.726890
v -80.305748 59.644680 4.956800
v -83.226585 61.165260 7.174480
v -83.545715 60.438210 5.186710
v -44.030052 53.441338 3.706880
v -44.349171 52.714291 1.719110
v -44.734871 50.932732 2.432660
v -41.473991 54.478539 6.187170
v -90.016136 63.363537 6.307970
v -10.637521 44.464970 -0.673570
v -11.094320 42.734581 -0.035360
v -10.703860 43.410191 2.027650
v -10.318590 45.191898 1.314270

vt 0.033358 0.643728
vt 0.190411 0.923560
vt 0.402692 0.503812
vt 0.402692 0.647326
vt 0.408249 0.287497
vt 0.408249 0.367848
vt 0.492649 0.287497
vt 0.492649 0.367848
vt 0.403043 0.503812
vt 0.403044 0.647326
vt 0.033710 0.643728
vt 0.190763 0.923560
vt 0.033358 0.363896
vt 0.033710 0.363896
vt 0.190411 0.084064
vt 0.402692 0.360297
vt 0.408249 0.207147
vt 0.492649 0.207147
vt 0.403043 0.360297
vt 0.190763 0.084064
vt 0.408248 1.036942
vt 0.492649 1.036942
vt 0.483600 0.371280
vt 0.402049 0.371280
vt 0.402049 1.040375
vt 0.483600 1.040375
vt 0.450449 0.037941
vt 0.483600 0.210579
vt 0.402049 0.210579
vt 0.442825 0.041374
vt 0.000000 1.000000

vn 0.261655 0.926413 -0.270732
vn 0.224191 0.961468 -0.159115
vn 0.197037 0.910111 -0.364519
vn 0.177051 0.861028 -0.476743
vn 0.238167 0.843899 -0.480741
vn 0.213986 0.945178 -0.246675
vn 0.152047 0.958502 -0.241153
vn 0.160905 0.817287 -0.553310
vn 0.129811 0.881764 -0.453477
vn -0.160904 -0.817287 0.553309
vn -0.129811 -0.881764 0.453477
vn -0.197036 -0.910112 0.364517
vn -0.152048 -0.958502 0.241154
vn -0.213986 -0.945178 0.246675
vn -0.177050 -0.861028 0.476744
vn -0.238166 -0.843899 0.480741
vn -0.261654 -0.926413 0.270733
vn -0.224191 -0.961468 0.159115
vn 0.433675 -0.414360 -0.800145
vn 0.677926 0.142108 0.721264
vn -0.433675 0.414364 0.800143
vn -0.677926 -0.142112 -0.721263
vn -0.088193 -0.684822 0.723354
vn 0.065784 0.358694 0.931134
vn 0.167688 0.836035 -0.522423
vn -0.149089 -0.339668 -0.928654
vn 0.061747 0.934119 -0.351582
vn -0.328571 -0.868770 0.370513
vn -0.293008 -0.300146 -0.907777
vn 0.001782 0.371472 0.928443
vn -0.146677 -0.324484 -0.934450
vn 0.289344 0.956861 0.026393
vn -0.158005 -0.749412 0.642974
vn 0.196856 0.910171 -0.364467
vn 0.963315 -0.248691 -0.100881
vn 0.960361 -0.273464 -0.054078

f 1/1/1 2/2/1 3/3/1
f 4/4/2 3/3/2 2/2/2
f 3/5/3 4/6/3 5/7/3
f 6/8/3 5/7/3 4/6/3
f 5/9/4 6/10/4 7/11/4
f 8/12/5 7/11/5 6/10/5
f 9/13/6 1/1/6 3/3/6
f 7/11/4 10/14/4 5/9/4
f 11/15/7 9/13/7 12/16/7
f 3/3/6 12/16/6 9/13/6
f 12/17/3 3/5/3 13/18/3
f 5/7/3 13/18/3 3/5/3
f 13/19/8 5/9/8 14/20/8
f 10/14/9 14/20/9 5/9/9
f 15/4/10 2/2/10 16/3/10
f 1/1/11 16/3/11 2/2/11
f 17/8/12 15/6/12 18/7/12
f 16/5/12 18/7/12 15/6/12
f 8/12/13 17/10/13 7/11/13
f 18/9/14 7/11/14 17/10/14
f 16/3/15 1/1/15 9/13/15
f 7/11/14 18/9/14 10/14/14
f 16/3/15 9/13/15 19/16/15
f 11/15/16 19/16/16 9/13/16
f 18/7/12 16/5/12 20/18/12
f 19/17/12 20/18/12 16/5/12
f 10/14/17 18/9/17 14/20/17
f 20/19/18 14/20/18 18/9/18
f 4/4/19 2/2/19 15/4/19
f 17/10/20 8/12/20 6/10/20
f 13/19/21 14/20/21 20/19/21
f 19/16/22 11/15/22 12/16/22
f 6/8/3 4/6/3 21/21/3
f 21/21/3 22/22/3 6/8/3
f 15/6/12 17/8/12 23/22/12
f 23/22/23 24/21/23 15/6/23
f 4/23/24 15/24/24 24/25/24
f 24/25/25 21/26/25 4/23/25
f 17/24/26 6/23/26 22/26/26
f 22/26/26 23/25/26 17/24/26
f 12/17/27 13/18/27 25/27/27
f 20/18/28 19/17/28 25/27/28
f 13/28/29 20/29/29 25/30/29
f 19/29/30 12/28/30 25/30/30
f 23/22/31 22/21/31 26/22/31 27/31/31
f 21/21/32 24/22/32 28/21/32 29/31/32
f 24/21/33 23/22/33 27/21/33 28/31/33
f 22/22/34 21/21/34 29/22/34 26/31/34
f 28/21/35 27/22/35 29/21/35
f 26/22/36 29/21/36 27/22/36

