mtllib anim_barb_attack_new1_axe_000015.mtl

o fat
usemtl axe.001
s off

v 15.072401 72.107742 -27.398109
v 16.436951 69.188393 -20.822689
v 21.639221 77.311142 -25.707281
v 20.940891 75.268143 -23.154181
v 23.389462 77.994370 -24.681839
v 22.691132 75.951370 -22.128738
v 29.644739 77.796165 -18.860350
v 25.556910 72.748428 -15.479430
v 16.434040 76.091309 -32.376270
v 31.006371 81.779716 -23.838530
v 20.521860 81.139038 -35.757210
v 22.337540 79.354164 -28.260401
v 24.087790 80.037354 -27.234940
v 29.641819 84.699081 -30.413940
v 21.990982 73.850090 -24.001701
v 22.689308 75.893105 -26.554798
v 23.741219 74.533310 -22.976250
v 24.439548 76.576302 -25.529348
v 23.387630 77.936104 -29.107891
v 25.137880 78.619316 -28.082449
v 13.972401 54.881401 2.322750
v 15.722639 55.564610 3.348190
v 16.772730 54.146561 2.500680
v 14.264680 54.952488 2.100610
v 25.208281 83.288986 -33.547852
v 8.476510 34.296261 29.905590
v 9.405490 32.949730 28.905020
v 7.777150 32.195320 28.031969
v 6.726380 33.612270 28.880470

vt 0.033358 0.643728
vt 0.190411 0.923560
vt 0.402692 0.503812
vt 0.402692 0.647326
vt 0.408249 0.287497
vt 0.408249 0.367848
vt 0.492649 0.287497
vt 0.492649 0.367848
vt 0.403043 0.503812
vt 0.403044 0.647326
vt 0.033710 0.643728
vt 0.190763 0.923560
vt 0.033358 0.363896
vt 0.033710 0.363896
vt 0.190411 0.084064
vt 0.402692 0.360297
vt 0.408249 0.207147
vt 0.492649 0.207147
vt 0.403043 0.360297
vt 0.190763 0.084064
vt 0.408248 1.036942
vt 0.492649 1.036942
vt 0.483600 0.371280
vt 0.402049 0.371280
vt 0.402049 1.040375
vt 0.483600 1.040375
vt 0.450449 0.037941
vt 0.483600 0.210579
vt 0.402049 0.210579
vt 0.442825 0.041374
vt 0.000000 1.000000

vn -0.627435 0.655028 0.421027
vn -0.697768 0.640168 0.321409
vn -0.536444 0.724417 0.432952
vn -0.431024 0.758376 0.488962
vn -0.442835 0.718159 0.536790
vn -0.633600 0.679299 0.370276
vn -0.619546 0.716488 0.320636
vn -0.350677 0.775659 0.524765
vn -0.438351 0.784219 0.439146
vn 0.350673 -0.775658 -0.524770
vn 0.438351 -0.784218 -0.439146
vn 0.536444 -0.724418 -0.432950
vn 0.619546 -0.716488 -0.320636
vn 0.633599 -0.679301 -0.370273
vn 0.431024 -0.758376 -0.488963
vn 0.442834 -0.718160 -0.536791
vn 0.627436 -0.655027 -0.421027
vn 0.697765 -0.640169 -0.321415
vn 0.550009 -0.089005 0.830402
vn -0.789600 -0.611929 0.045545
vn -0.550009 0.089007 -0.830402
vn 0.789601 0.611927 -0.045546
vn -0.153013 -0.778398 -0.608838
vn -0.818656 -0.322053 -0.475483
vn -0.320174 -0.695038 -0.643747
vn 0.817687 0.319186 0.479070
vn -0.502575 0.801645 0.323704
vn 0.560089 -0.633393 -0.533960
vn 0.839784 0.407384 0.358889
vn -0.777014 -0.223747 -0.588376
vn 0.837452 0.289737 0.463386
vn -0.776468 -0.367816 -0.511673
vn 0.176597 -0.776252 -0.605183
vn -0.536667 0.723992 0.433386
vn -0.152853 -0.588683 0.793781
vn -0.170078 -0.660654 0.731170

f 1/1/1 2/2/1 3/3/1
f 4/4/2 3/3/2 2/2/2
f 3/5/3 4/6/3 5/7/3
f 6/8/3 5/7/3 4/6/3
f 5/9/4 6/10/4 7/11/4
f 8/12/5 7/11/5 6/10/5
f 9/13/6 1/1/6 3/3/6
f 7/11/4 10/14/4 5/9/4
f 11/15/7 9/13/7 12/16/7
f 3/3/6 12/16/6 9/13/6
f 12/17/3 3/5/3 13/18/3
f 5/7/3 13/18/3 3/5/3
f 13/19/8 5/9/8 14/20/8
f 10/14/9 14/20/9 5/9/9
f 15/4/10 2/2/10 16/3/10
f 1/1/11 16/3/11 2/2/11
f 17/8/12 15/6/12 18/7/12
f 16/5/12 18/7/12 15/6/12
f 8/12/13 17/10/13 7/11/13
f 18/9/14 7/11/14 17/10/14
f 16/3/15 1/1/15 9/13/15
f 7/11/14 18/9/14 10/14/14
f 16/3/15 9/13/15 19/16/15
f 11/15/16 19/16/16 9/13/16
f 18/7/12 16/5/12 20/18/12
f 19/17/12 20/18/12 16/5/12
f 10/14/17 18/9/17 14/20/17
f 20/19/18 14/20/18 18/9/18
f 4/4/19 2/2/19 15/4/19
f 17/10/20 8/12/20 6/10/20
f 13/19/21 14/20/21 20/19/21
f 19/16/22 11/15/22 12/16/22
f 6/8/3 4/6/3 21/21/3
f 21/21/3 22/22/3 6/8/3
f 15/6/12 17/8/12 23/22/12
f 23/22/23 24/21/23 15/6/23
f 4/23/24 15/24/24 24/25/24
f 24/25/25 21/26/25 4/23/25
f 17/24/26 6/23/26 22/26/26
f 22/26/26 23/25/26 17/24/26
f 12/17/27 13/18/27 25/27/27
f 20/18/28 19/17/28 25/27/28
f 13/28/29 20/29/29 25/30/29
f 19/29/30 12/28/30 25/30/30
f 23/22/31 22/21/31 26/22/31 27/31/31
f 21/21/32 24/22/32 28/21/32 29/31/32
f 24/21/33 23/22/33 27/21/33 28/31/33
f 22/22/34 21/21/34 29/22/34 26/31/34
f 28/21/35 27/22/35 29/21/35
f 26/22/36 29/21/36 27/22/36

