mtllib anim_barb_idle_axe_000037.mtl

o fat
usemtl axe.001
s off

v -12.271971 90.662598 19.381239
v -11.303061 83.450378 20.197102
v -13.563460 90.767075 27.829821
v -13.095670 87.673882 26.649479
v -13.527000 90.008881 29.831190
v -13.059210 86.915695 28.650848
v -11.968401 84.349937 36.044449
v -11.113080 79.499649 30.625610
v -13.184090 96.693863 21.682730
v -12.880530 90.381195 38.345940
v -14.039420 101.544151 27.101570
v -14.031260 93.860275 29.010170
v -13.994790 93.102074 31.011528
v -13.849440 97.593430 37.530079
v -11.157711 87.941734 26.715641
v -11.625490 91.034920 27.895988
v -11.121240 87.183533 28.717010
v -11.589030 90.276711 29.897348
v -12.093290 94.128105 29.076321
v -12.056829 93.369919 31.077690
v -8.427680 56.807518 14.871080
v -8.391220 56.049316 16.872440
v -6.453250 56.317158 16.938610
v -6.489710 57.075363 14.937240
v -14.029130 100.128860 32.529541
v -3.524160 23.866638 4.591730
v -1.689610 24.233330 4.588120
v -1.622650 24.892681 2.656520
v -3.560620 24.624840 2.590360

vt 0.033358 0.643728
vt 0.190411 0.923560
vt 0.402692 0.503812
vt 0.402692 0.647326
vt 0.408249 0.287497
vt 0.408249 0.367848
vt 0.492649 0.287497
vt 0.492649 0.367848
vt 0.403043 0.503812
vt 0.403044 0.647326
vt 0.033710 0.643728
vt 0.190763 0.923560
vt 0.033358 0.363896
vt 0.033710 0.363896
vt 0.190411 0.084064
vt 0.402692 0.360297
vt 0.408249 0.207147
vt 0.492649 0.207147
vt 0.403043 0.360297
vt 0.190763 0.084064
vt 0.408248 1.036942
vt 0.492649 1.036942
vt 0.483600 0.371280
vt 0.402049 0.371280
vt 0.402049 1.040375
vt 0.483600 1.040375
vt 0.450449 0.037941
vt 0.483600 0.210579
vt 0.402049 0.210579
vt 0.442825 0.041374
vt 0.000000 1.000000

vn -0.977891 -0.148076 -0.147654
vn -0.971078 -0.058529 -0.231476
vn -0.990018 -0.136825 -0.033800
vn -0.980283 -0.179650 0.082282
vn -0.969315 -0.238311 0.060307
vn -0.984504 -0.091894 -0.149360
vn -0.991334 -0.032659 -0.127243
vn -0.963849 -0.208885 0.165416
vn -0.989041 -0.123764 0.080504
vn 0.963848 0.208887 -0.165418
vn 0.989041 0.123764 -0.080504
vn 0.990019 0.136825 0.033799
vn 0.991334 0.032660 0.127242
vn 0.984504 0.091894 0.149359
vn 0.980283 0.179649 -0.082283
vn 0.969315 0.238311 -0.060307
vn 0.977892 0.148076 0.147654
vn 0.971079 0.058531 0.231475
vn 0.094206 -0.820777 0.563427
vn 0.066294 -0.240468 -0.968391
vn -0.094206 0.820778 -0.563426
vn -0.066290 0.240468 0.968391
vn -0.017036 0.354217 -0.935008
vn 0.017036 -0.354217 0.935008
vn -0.999852 -0.008155 0.015129
vn 0.961328 0.262891 0.082079
vn -0.004182 -0.211178 0.977439
vn -0.037866 0.489211 -0.871343
vn 0.043671 -0.351827 0.935046
vn 0.990341 0.127809 0.053747
vn 0.140472 -0.938479 -0.315476
vn 0.182853 -0.918269 -0.351207

f 1/1/1 2/2/1 3/3/1
f 4/4/2 3/3/2 2/2/2
f 3/5/3 4/6/3 5/7/3
f 6/8/3 5/7/3 4/6/3
f 5/9/4 6/10/4 7/11/4
f 8/12/5 7/11/5 6/10/5
f 9/13/6 1/1/6 3/3/6
f 7/11/4 10/14/4 5/9/4
f 11/15/7 9/13/7 12/16/7
f 3/3/6 12/16/6 9/13/6
f 12/17/3 3/5/3 13/18/3
f 5/7/3 13/18/3 3/5/3
f 13/19/8 5/9/8 14/20/8
f 10/14/9 14/20/9 5/9/9
f 15/4/10 2/2/10 16/3/10
f 1/1/11 16/3/11 2/2/11
f 17/8/12 15/6/12 18/7/12
f 16/5/12 18/7/12 15/6/12
f 8/12/13 17/10/13 7/11/13
f 18/9/14 7/11/14 17/10/14
f 16/3/15 1/1/15 9/13/15
f 7/11/14 18/9/14 10/14/14
f 16/3/15 9/13/15 19/16/15
f 11/15/16 19/16/16 9/13/16
f 18/7/12 16/5/12 20/18/12
f 19/17/12 20/18/12 16/5/12
f 10/14/17 18/9/17 14/20/17
f 20/19/18 14/20/18 18/9/18
f 4/4/19 2/2/19 15/4/19
f 17/10/20 8/12/20 6/10/20
f 13/19/21 14/20/21 20/19/21
f 19/16/22 11/15/22 12/16/22
f 6/8/3 4/6/3 21/21/3
f 21/21/3 22/22/3 6/8/3
f 15/6/12 17/8/12 23/22/12
f 23/22/12 24/21/12 15/6/12
f 4/23/23 15/24/23 24/25/23
f 24/25/23 21/26/23 4/23/23
f 17/24/24 6/23/24 22/26/24
f 22/26/24 23/25/24 17/24/24
f 12/17/25 13/18/25 25/27/25
f 20/18/26 19/17/26 25/27/26
f 13/28/27 20/29/27 25/30/27
f 19/29/28 12/28/28 25/30/28
f 23/22/29 22/21/29 26/22/29 27/31/29
f 21/21/23 24/22/23 28/21/23 29/31/23
f 24/21/30 23/22/30 27/21/30 28/31/30
f 22/22/3 21/21/3 29/22/3 26/31/3
f 28/21/31 27/22/31 29/21/31
f 26/22/32 29/21/32 27/22/32

