mtllib anim_barb_attack_new1_body_000042.mtl

o fat
usemtl fat.001
s off

v -0.583210 30.877850 -12.421610
v 1.860240 36.144421 6.136090
v 0.785630 30.046520 -8.243140
v -1.353790 52.904449 -17.116280
v 4.794820 58.851219 -20.157890
v 1.160230 49.199909 -16.677052
v -1.137050 44.906349 -14.023121
v 7.449660 54.487911 -16.890480
v 6.454890 51.261822 -13.845691
v 6.645750 45.360542 -11.593250
v 3.135180 44.943680 -14.988650
v 3.923760 50.093769 -17.340019
v 9.425100 29.088600 -5.884190
v 8.847281 32.083908 -13.108640
v 10.139340 31.618071 -12.989980
v 7.417730 29.563410 -6.546090
v 3.993900 29.429941 -2.175260
v 2.724680 31.843601 -17.158981
v 2.404560 32.495770 -15.618950
v -0.449110 31.514071 -13.780660
v -0.839230 27.702950 -12.093910
v -1.743450 58.547310 -16.878559
v -2.204450 60.473690 -16.943609
v 2.140900 52.351780 -4.100980
v 6.176220 52.617611 -8.573090
v 6.975090 56.902397 -8.220930
v 8.493680 56.640274 -11.543750
v 6.577060 59.678501 -8.320380
v 9.765230 60.430061 -15.114230
v 4.497020 45.312828 -5.199300
v 2.532600 45.169292 -4.592480
v 2.449870 59.331680 -4.528480
v 1.155710 63.398079 -16.558929
v 5.062040 60.908409 -20.293550
v 7.547600 62.128811 -17.832809
v 2.808660 63.816830 -7.712780
v 3.551550 64.768311 -12.927810
v 0.548150 62.970154 -6.084740
v 1.955310 68.902740 -10.540239
v 1.076700 66.452690 -13.721090
v -1.916590 66.470749 -13.602990
v -0.753150 69.551392 -11.262240
v -2.994140 64.349167 -14.988350
v 0.932790 40.747169 -3.734140
v 5.364230 40.710339 -4.221070
v 8.418850 40.358601 -9.398550
v 4.980710 39.763340 -14.594999
v -0.647730 39.510838 -15.125160
v 10.571350 59.954548 -16.995270
v 4.870090 56.647957 -20.664169
v 8.881770 60.793438 -19.780960
v 6.640970 60.283260 -20.979080
v 11.396890 56.599548 -15.328810
v 3.055720 68.796410 -5.134900
v 2.033890 67.484253 -3.013220
v 3.113170 64.462418 -6.593460
v 2.160640 63.488678 -3.840770
v 1.522390 66.135773 -2.843090
v 2.483220 69.411751 -3.479800
v 0.793360 69.374649 -2.826200
v 3.076730 69.881203 -8.015779
v 1.566600 73.339951 -3.207840
v 0.356500 73.363937 -2.662490
v 2.701670 70.726326 -2.997470
v 3.060790 72.474205 -4.273160
v 1.677790 74.428230 -6.107670
v 0.036900 74.472076 -5.945580
v 1.258760 67.569305 -2.308580
v 0.265190 70.165428 -2.479760
v 0.345690 68.249954 -1.131070
v 0.260860 67.614449 -1.706140
v 0.223180 66.040138 -1.549630
v 1.417680 63.200050 -2.019630
v 0.160420 63.269619 -1.241610
v 2.983030 72.217819 -8.161990
v 2.416410 73.427307 -8.714601
v -0.358940 73.680748 -9.321990
v 11.711370 59.432560 -19.850800
v 8.760190 59.412060 -22.147409
v 10.113320 51.452450 -21.120560
v 13.782110 53.754730 -19.537651
v 5.987900 55.396481 -22.023949
v 13.217371 49.826500 -24.537001
v 13.457750 46.296951 -26.607491
v 13.262239 47.456623 -23.899769
v 13.002569 51.147049 -27.820858
v 14.033500 53.823227 -26.762030
v 16.364750 47.333229 -26.954119
v 15.787049 53.562477 -25.470150
v 17.888121 48.535172 -24.808199
v 16.497131 50.977039 -24.501690
v 16.638481 48.588947 -22.570250
v 11.086630 52.614532 -26.040270
v 11.898580 52.016483 -26.935150
v 10.966740 57.416008 -24.301411
v 13.598539 57.287449 -21.971731
v 15.596780 51.910774 -23.164461
v 8.736510 53.769398 -24.999311
v 14.607540 40.129162 -23.085079
v 14.470650 40.776070 -21.308460
v 16.121771 40.197456 -23.454649
v 17.118250 40.931568 -22.026001
v 16.371552 41.365551 -20.611229
v 17.998100 38.045582 -16.938919
v 17.266830 37.580322 -17.251970
v 17.171881 38.016319 -18.486931
v 17.863430 38.539349 -18.913881
v 18.254360 37.097031 -19.715469
v 16.584660 39.893700 -17.784990
v 17.701460 39.111629 -18.089272
v 17.135561 38.328568 -16.317230
v 17.988340 36.806808 -16.143940
v 17.288801 37.085373 -15.764990
v 18.218870 35.161381 -18.600729
v 14.107740 36.071301 -22.070889
v 14.356040 34.240070 -21.384399
v 15.161580 31.780838 -20.023430
v 17.513649 35.963272 -17.875790
v 15.347630 34.241081 -21.744020
v 15.332450 35.966919 -22.655010
v 17.859650 32.947159 -16.903940
v 2.887610 19.538601 -16.053820
v 4.261220 17.781500 -25.499010
v 2.659550 13.681621 -21.465120
v 8.393240 20.880640 -18.266199
v 9.582170 15.410390 -23.781040
v 4.183230 22.084229 -19.749390
v 7.058080 16.699060 -16.431740
v 7.110310 12.032470 -19.763220
v 7.317060 18.280790 -14.737169
v 7.490350 20.680531 -14.182430
v 9.138929 24.754101 -17.655870
v 8.084340 23.917580 -10.332630
v 6.699730 7.314400 -30.400879
v 7.202120 5.478360 -32.801109
v 3.913700 7.088380 -33.336178
v 5.816520 4.614210 -29.393160
v 3.173970 6.765070 -29.600128
v 2.509930 4.231150 -31.431570
v 2.385630 2.857310 -36.060551
v 5.277770 3.535930 -36.889240
v 4.860650 -1.433730 -29.089500
v 10.590230 0.183930 -30.796919
v 8.604280 -0.649030 -25.987598
v 11.050180 -1.989750 -27.265831
v 7.551160 -3.336020 -25.649391
v -11.835831 56.562599 -9.625040
v -3.266060 49.014267 -15.812550
v -6.553950 54.885590 -5.520580
v -7.154110 50.155220 -7.583970
v -5.233730 44.728718 -11.405660
v -5.423430 44.712410 -6.515760
v -7.021550 49.534512 -14.052290
v -8.561110 31.857059 -7.150920
v -6.423470 29.724651 -2.826920
v -9.943200 31.237459 -7.691170
v -3.416230 33.848591 -4.061950
v -5.599210 27.589031 -11.496039
v -5.024610 30.535751 -12.838870
v -1.655330 29.473919 -12.269569
v -2.966420 51.882362 -4.076980
v -2.963960 56.109718 -2.738970
v -8.140640 55.615761 -3.006780
v -2.886880 58.926502 -2.870090
v -8.864841 60.674072 -6.057610
v -0.822370 44.916801 -3.671770
v -13.161800 58.631821 -7.453540
v -7.594060 62.712002 -12.227870
v -11.290540 61.231453 -6.571050
v -2.369670 63.682678 -5.892290
v -6.936670 64.238190 -9.082710
v -3.195250 69.079628 -9.910810
v -4.514090 66.384850 -12.242690
v -3.837170 40.306091 -3.366670
v -8.004730 39.890079 -8.550230
v -5.801030 38.475071 -14.240419
v -8.809410 61.743141 -6.473840
v -10.854150 54.722290 -2.944500
v -11.570311 61.322296 -5.303370
v -12.258789 58.405754 -3.652940
v -7.652130 57.359848 -4.892030
v -1.756700 67.616081 -2.599730
v -3.118900 69.011162 -4.461350
v -2.721500 64.367783 -5.018480
v -2.332710 63.644947 -3.350620
v -1.314380 66.234444 -2.533640
v -0.378210 69.415398 -2.698380
v -2.162550 69.573334 -2.973030
v -3.685270 70.116379 -7.278160
v -0.941380 73.427170 -2.934270
v -2.181210 70.896149 -2.464830
v -2.685750 72.674080 -3.646310
v -1.599440 74.542198 -5.750150
v -0.844060 67.642441 -2.079200
v -1.236620 63.292370 -1.730110
v -3.465060 72.442070 -7.458591
v -2.949070 73.613907 -8.129320
v -8.400070 62.316509 -3.913160
v -11.009199 60.331276 -2.051780
v -3.056650 60.673401 -1.794750
v -4.033180 56.589333 0.072870
v -9.749331 55.722992 -0.917390
v 0.003890 57.702850 6.810460
v -2.139170 58.696579 4.254470
v -2.046100 57.389908 2.640740
v -4.529130 59.589611 6.734770
v -5.560930 61.784779 4.838380
v 0.654440 60.491600 7.317780
v -3.900110 62.972740 4.033450
v 1.140670 62.442543 5.045270
v 0.955330 61.549690 2.337460
v -1.236840 62.036171 4.215400
v -6.039390 58.586212 4.323700
v -5.440010 59.037880 5.384860
v -9.077559 61.078091 0.981300
v -6.628819 62.859112 -0.836230
v -2.502680 61.070610 1.841250
v -7.886970 57.173950 2.690750
v 7.158360 56.480709 5.642440
v 7.129550 57.097420 3.963920
v 7.368060 58.157631 6.510230
v 7.630600 59.519859 5.159840
v 7.536330 59.129810 3.589500
v 12.516250 58.622368 1.982820
v 12.369221 59.594578 1.667520
v 11.655789 58.490364 2.869500
v 11.126260 59.503288 3.285360
v 12.186420 59.226791 4.583930
v 10.903690 59.647362 2.303720
v 10.077070 58.811241 1.484710
v 12.078140 58.968090 0.810840
v 13.738980 59.163559 1.344790
v 13.414499 58.663940 0.748510
v 14.269461 58.524460 4.192010
v 12.688610 54.764381 6.541400
v 10.813240 54.992699 6.360750
v 15.534120 54.917686 6.467800
v 13.665670 58.342827 3.229990
v 12.870950 55.275078 6.734230
v 11.032869 55.864719 6.996940
v 16.689499 57.711922 3.497180
v -5.249090 17.543440 -3.349400
v -0.163040 23.814831 2.218950
v -1.863920 15.734010 0.370810
v -9.179040 17.345030 0.997000
v -6.159060 24.022091 2.398690
v -3.247940 23.696178 -0.649170
v -3.734640 22.010159 4.663260
v -4.956070 15.433281 4.274200
v -3.399880 24.257059 5.438670
v -3.065450 26.409491 4.303240
v -7.375100 27.127430 1.483360
v -3.572890 32.006821 0.091730
v -10.645741 3.859440 -1.557060
v -9.179440 6.649250 -0.978120
v -8.092620 4.353510 -4.320260
v -7.799200 4.583880 0.883150
v -5.749930 2.810160 -1.923380
v -5.638320 5.869380 -1.281180
v -7.465200 -0.728740 -4.666010
v -10.515070 -0.075010 -4.434910
v -6.087210 -0.485350 3.674500
v -12.113830 0.979790 4.171210
v -8.141470 3.003290 7.199340
v -10.682401 1.562600 8.138440
v -6.676880 0.889040 8.551490

vt 0.550479 0.485338
vt 0.414517 0.485338
vt 0.489174 0.497239
vt 0.490853 0.675485
vt 0.356970 0.710738
vt 0.458986 0.602657
vt 0.458693 0.603155
vt 0.491001 0.506534
vt 0.357039 0.710738
vt 0.272881 0.708251
vt 0.307767 0.663467
vt 0.329118 0.504113
vt 0.420682 0.504388
vt 0.307693 0.663467
vt 0.420389 0.504181
vt 0.390374 0.619683
vt 0.389206 0.622726
vt 0.390855 0.620128
vt 0.309151 0.663075
vt 0.578845 0.971377
vt 0.529882 0.993867
vt 0.501054 0.950636
vt 0.597833 0.993868
vt 0.684209 0.993870
vt 0.691613 0.940228
vt 0.584242 0.936155
vt 0.602549 0.993867
vt 0.689094 0.993870
vt 0.694409 0.971380
vt 0.730001 0.975635
vt 0.490853 0.781888
vt 0.490853 0.820915
vt 0.240556 0.660920
vt 0.133663 0.660928
vt 0.131880 0.753091
vt 0.060606 0.782384
vt 0.055577 0.663688
vt 0.136145 0.808744
vt 0.060014 0.783494
vt 0.058190 0.859642
vt 0.160773 0.512959
vt 0.067037 0.515196
vt 0.240700 0.512959
vt 0.131877 0.752996
vt 0.240556 0.781375
vt 0.390182 0.870896
vt 0.298691 0.847983
vt 0.294173 0.886121
vt 0.181129 0.899551
vt 0.052544 0.886601
vt 0.145152 0.921474
vt 0.235241 0.891030
vt 0.142740 0.921054
vt 0.172936 0.966074
vt 0.456563 0.999059
vt 0.389917 0.922986
vt 0.429989 0.941889
vt 0.491140 0.942697
vt 0.490646 0.999330
vt 0.490853 0.898039
vt 0.701416 0.118225
vt 0.813217 0.120956
vt 0.790107 0.184348
vt 0.877923 0.002315
vt 0.872775 0.120438
vt 0.505869 0.118716
vt 0.564263 0.119120
vt 0.507564 0.183764
vt 0.697589 0.180917
vt 0.580429 0.182675
vt 0.710756 0.001536
vt 0.701372 0.182427
vt 0.812168 0.002315
vt 0.857243 0.184348
vt 0.697567 0.116528
vt 0.503935 0.000692
vt 0.561277 0.000692
vt 0.688827 -0.000098
vt 0.002866 0.854679
vt 0.027518 0.706813
vt 0.061197 0.782654
vt 0.055608 0.663958
vt 0.251604 0.781884
vt 0.357109 0.710738
vt 0.243886 0.876138
vt 0.247300 0.848527
vt -0.000514 0.880403
vt 0.006948 0.782948
vt 0.674684 0.829607
vt 0.705811 0.784366
vt 0.654033 0.662928
vt 0.703232 0.671848
vt 0.720473 0.730776
vt 0.697736 0.853617
vt 0.729837 0.853035
vt 0.623758 0.856571
vt 0.587609 0.811448
vt 0.658187 0.605708
vt 0.748523 0.593788
vt 0.716351 0.931575
vt 0.747491 0.935506
vt 0.695349 0.885675
vt 0.676247 0.904603
vt 0.649719 0.961956
vt 0.745560 1.001324
vt 0.725611 0.781438
vt 0.747491 0.878462
vt 0.747491 0.808438
vt 0.720379 0.731031
vt 0.747491 0.790807
vt 0.720762 0.730332
vt 0.748639 0.732530
vt 0.746944 0.628012
vt 0.703659 0.671442
vt 0.731857 0.666086
vt 0.747085 0.666819
vt 0.703186 0.671176
vt 0.611291 0.885598
vt 0.604148 0.909350
vt 0.550618 0.823662
vt 0.550618 0.934468
vt 0.625864 0.557513
vt 0.571978 0.557920
vt 0.578607 0.510287
vt 0.669444 0.510287
vt 0.756032 0.560223
vt 0.679695 0.557918
vt 0.877240 0.461159
vt 0.992418 0.461159
vt 0.944262 0.560223
vt 0.756457 0.510287
vt 0.806202 0.560223
vt 0.498275 0.560223
vt 0.875566 0.382888
vt 0.758260 0.308662
vt 0.875912 0.308662
vt 0.759996 0.360654
vt 0.669163 0.382888
vt 0.671223 0.308662
vt 0.584325 0.382888
vt 0.577057 0.308662
vt 0.498223 0.363687
vt 0.498247 0.308662
vt 0.992597 0.308662
vt 0.992439 0.363687
vt 0.759483 0.410364
vt 0.758924 0.382888
vt 0.665903 0.461159
vt 0.580075 0.461159
vt 0.498223 0.402657
vt 0.992438 0.402657
vt 0.760539 0.449273
vt 0.498220 0.461159
vt 0.875438 0.575163
vt 0.762705 0.196431
vt 0.858161 0.196355
vt 0.690657 0.196417
vt 0.588027 0.196417
vt 0.498144 0.196431
vt 0.991918 0.196431
vt 0.375723 0.009258
vt 0.380090 0.017573
vt 0.356438 0.030356
vt 0.342839 0.029458
vt 0.369327 0.043627
vt 0.316032 0.012201
vt 0.336848 0.019568
vt 0.249292 0.041099
vt 0.371147 0.002582
vt 0.416197 0.004791
vt 0.408124 0.000758
vt 0.128136 0.016613
vt 0.154876 0.002573
vt 0.119423 0.002194
vt 0.160447 0.001473
vt 0.065726 0.014292
vt 0.105093 0.028910
vt 0.000825 0.069213
vt 0.000703 0.039244
vt 0.249314 0.055441
vt 0.429228 0.045736
vt 0.102506 0.115410
vt 0.153549 0.117195
vt 0.189513 0.114692
vt 0.228429 0.109580
vt 0.194639 0.033982
vt 0.406548 0.108121
vt 0.355355 0.108206
vt 0.448349 0.035630
vt 0.498209 0.039288
vt 0.461840 0.047992
vt 0.483032 0.114221
vt 0.406174 0.120334
vt 0.355217 0.119080
vt 0.243215 0.037501
vt 0.249314 0.089732
vt 0.000703 0.095058
vt 0.249292 0.105039
vt 0.160984 0.032072
vt 0.413806 0.033644
vt 0.442212 0.108407
vt 0.443088 0.117732
vt 0.023914 0.327327
vt 0.104127 0.227894
vt 0.000784 0.227894
vt 0.216171 0.327327
vt 0.216985 0.228421
vt 0.105699 0.228145
vt 0.104981 0.327662
vt 0.217575 0.327327
vt 0.351490 0.301452
vt 0.217290 0.227894
vt 0.351571 0.227894
vt 0.352420 0.301452
vt 0.489174 0.227894
vt 0.352342 0.227894
vt 0.471690 0.333380
vt 0.351597 0.328057
vt 0.217345 0.328075
vt 0.352312 0.363299
vt 0.470864 0.334174
vt 0.352330 0.328057
vt 0.216660 0.380224
vt 0.216104 0.328075
vt 0.104983 0.328371
vt 0.217232 0.380224
vt 0.351611 0.363299
vt 0.351459 0.420971
vt 0.352499 0.420971
vt 0.351589 0.497239
vt 0.229465 0.497239
vt 0.352627 0.497239
vt 0.229583 0.497239
vt 0.133020 0.497239
vt 0.072972 0.497239
vt 0.025422 0.328212
vt 0.002386 0.497239
vt 0.216130 0.152222
vt 0.223982 0.125749
vt 0.105883 0.155747
vt 0.351732 0.147623
vt 0.223132 0.128232
vt 0.218721 0.149411
vt 0.469070 0.149411
vt 0.483427 0.127273
vt 0.352306 0.146326
vt 0.017963 0.152222
vt 0.104256 0.155747
vt 0.009616 0.131504
vt 0.104128 0.227914
vt 0.000790 0.227921
vt 0.216984 0.228396
vt 0.351571 0.227971
vt 0.217291 0.227882
vt 0.352342 0.227879
vt 0.489111 0.227891
vt 0.948232 0.041698
vt 0.989968 0.003451
vt 0.971575 0.059997
vt 0.909211 0.004273
vt 0.996004 0.120663
vt 0.925604 0.058708
vt 0.885225 0.122889
vt 0.516483 0.798440
vt 0.501430 0.685191
vt 0.597947 0.686709
vt 0.594444 0.793024
vt 0.950876 0.082499
vt 0.943924 0.157220
vt 0.507177 0.624822
vt 0.600053 0.622523
vt 0.901715 0.182549
vt 0.982420 0.184037
vt 0.730212 0.975635
vt 0.685579 0.991654
vt 0.692830 0.969164

vn 0.903268 0.366596 -0.222969
vn -0.216029 -0.258248 -0.941615
vn -0.357208 -0.345310 -0.867850
vn -0.157788 -0.651612 -0.741960
vn 0.689623 -0.238660 -0.683712
vn -0.194490 -0.438345 -0.877512
vn -0.088407 -0.402467 -0.911156
vn 0.822130 -0.246841 -0.513002
vn -0.132937 -0.291577 -0.947265
vn 0.811827 -0.340781 -0.474137
vn -0.289797 -0.892090 -0.346689
vn -0.094557 -0.922265 -0.374815
vn -0.174660 -0.970458 -0.166452
vn -0.328566 -0.773108 0.542539
vn -0.194229 -0.917147 0.348018
vn 0.698270 0.228732 0.678307
vn 0.525906 -0.738451 0.422034
vn 0.939823 -0.214061 -0.266289
vn -0.439194 -0.135093 -0.888177
vn 0.734446 -0.190468 0.651392
vn 0.900843 -0.406604 0.152166
vn 0.895536 0.106567 0.432039
vn 0.730907 0.140443 0.667870
vn 0.945683 -0.070855 0.317275
vn 0.298058 -0.048979 0.953290
vn 0.638167 0.018891 0.769666
vn -0.677227 0.039520 -0.734712
vn -0.448566 0.006675 -0.893725
vn 0.885173 -0.199576 0.420284
vn 0.071638 0.862881 -0.500305
vn 0.665949 0.121847 0.735979
vn -0.287622 0.442228 -0.849534
vn 0.904279 0.144050 0.401907
vn 0.706998 0.585576 0.396553
vn 0.580356 0.813611 0.034985
vn 0.537915 0.553219 0.636078
vn 0.475441 0.312180 0.822496
vn 0.948029 0.260577 0.182591
vn 0.574186 0.564264 -0.593225
vn 0.332049 0.487961 -0.807241
vn -0.019145 0.794637 -0.606783
vn 0.609813 0.759790 0.225493
vn 0.098966 0.907683 -0.407820
vn 0.574416 0.565067 -0.592237
vn -0.121364 0.673917 -0.728771
vn -0.029387 0.556928 -0.830041
vn -0.243983 0.396740 -0.884912
vn 0.108252 0.226151 0.968059
vn 0.859375 -0.040295 0.509755
vn 0.830225 0.050731 -0.555115
vn -0.216681 -0.150492 -0.964573
vn 0.109087 0.164539 0.980320
vn 0.288796 0.080691 0.953984
vn 0.933550 0.297613 0.199778
vn 0.776922 0.462731 0.426934
vn 0.919804 0.239389 0.310893
vn 0.671813 0.184829 -0.717291
vn 0.082564 0.206620 -0.974931
vn 0.754334 0.371021 -0.541593
vn 0.488525 0.139679 -0.861297
vn 0.077053 0.287156 -0.954780
vn -0.743973 -0.154806 -0.650030
vn 0.565559 0.080158 0.820803
vn 0.575922 0.816505 0.040410
vn 0.940676 -0.335823 -0.048492
vn -0.871559 0.081329 -0.483499
vn 0.922551 0.050841 0.382510
vn 0.086202 0.848305 -0.522443
vn 0.602112 0.788107 -0.127864
vn -0.363822 0.096981 -0.926406
vn 0.105972 0.844071 -0.525656
vn -0.853445 -0.144237 0.500827
vn 0.361271 -0.887308 0.286648
vn 0.712998 0.444706 0.542098
vn 0.920751 -0.113425 0.373300
vn 0.623654 -0.139519 0.769149
vn 0.354426 0.141133 0.924372
vn 0.999895 0.009585 0.010901
vn 0.920659 -0.059970 -0.385733
vn 0.971017 -0.054550 -0.232703
vn 0.523183 -0.792064 0.314506
vn 0.402317 0.245705 0.881912
vn 0.977109 -0.049808 0.206826
vn 0.999977 -0.002836 0.006224
vn 0.059802 0.933807 0.352742
vn 0.648977 0.359542 0.670492
vn 0.817427 0.343339 0.462527
vn 0.827704 0.345911 0.441873
vn 0.655132 -0.155213 0.739399
vn 0.496618 -0.221578 0.839210
vn 0.154917 0.940517 0.302372
vn 0.196480 0.050332 0.979215
vn 0.371083 -0.649812 0.663357
vn 0.702528 0.053733 0.709624
vn 0.476584 -0.867587 -0.141987
vn 0.948224 -0.035293 0.315636
vn -0.017924 -0.998021 0.060278
vn 0.688474 0.173003 0.704325
vn 0.918995 0.075751 0.386924
vn 0.326769 -0.944961 -0.016453
vn 0.527725 0.082041 0.845444
vn 0.912249 0.010959 -0.409489
vn 0.825654 0.136714 -0.547361
vn 0.864503 -0.293394 0.408111
vn 0.341783 -0.373245 0.862480
vn 0.922030 -0.126368 0.365911
vn 0.254397 -0.240466 0.936728
vn 0.627571 0.720696 0.294535
vn 0.998999 0.038651 -0.022524
vn 0.912387 0.406841 -0.045066
vn 0.813145 0.582019 0.006924
vn 0.668990 0.343584 0.659091
vn 0.315777 0.327187 -0.890637
vn 0.230681 0.395667 -0.888951
vn 0.140536 0.960168 -0.241512
vn -0.010746 0.932478 -0.361066
vn 0.998040 0.047728 0.040476
vn 0.433573 0.901080 0.008379
vn -0.435268 0.134927 -0.890133
vn 0.074627 0.859546 -0.505581
vn 0.203458 -0.753802 0.624809
vn 0.369939 0.793959 -0.482467
vn -0.540167 0.349382 -0.765605
vn -0.702104 -0.708157 0.074587
vn 0.886859 0.361283 0.288020
vn -0.997765 -0.034311 -0.057347
vn -0.995842 -0.085795 0.030639
vn 0.800977 -0.073474 -0.594169
vn -0.114297 -0.011654 -0.993378
vn 0.598798 0.237729 -0.764804
vn 0.732410 0.221315 -0.643891
vn 0.803334 0.402520 0.438899
vn 0.792165 0.392596 0.467271
vn -0.458990 0.542112 0.703876
vn -0.100359 0.256583 0.961298
vn -0.676657 -0.675322 -0.293386
vn -0.719066 -0.662571 -0.209627
vn -0.404081 0.547680 -0.732643
vn -0.344805 0.312004 -0.885304
vn 0.468968 0.735355 -0.489206
vn 0.469559 0.735124 -0.488986
vn 0.870357 0.363479 0.332208
vn 0.267901 -0.798037 0.539784
vn -0.697463 -0.712953 0.072417
vn -0.522989 -0.800555 -0.292566
vn -0.245065 0.324710 -0.913513
vn -0.498227 0.319181 -0.806159
vn 0.332562 0.836860 -0.434819
vn 0.421226 0.797547 -0.431841
vn 0.897659 0.342665 0.277108
vn 0.846049 0.331583 0.417437
vn 0.151803 -0.755285 0.637574
vn -0.314377 0.451497 -0.835055
vn -0.707366 -0.670614 -0.223406
vn 0.242398 -0.711237 0.659837
vn 0.919204 0.280257 0.276622
vn 0.289969 -0.734810 0.613166
vn 0.909280 0.267138 0.319136
vn -0.516379 0.454694 -0.725676
vn -0.652777 -0.729544 -0.204077
vn -0.983324 -0.181607 -0.009642
vn -0.983662 -0.179926 0.006035
vn -0.181625 -0.512987 -0.838962
vn 0.050413 -0.441137 -0.896023
vn 0.850144 -0.254900 -0.460739
vn 0.849652 -0.254939 -0.461625
vn 0.891126 0.073606 0.447747
vn 0.869832 0.098937 0.483326
vn -0.426461 0.251400 0.868866
vn -0.403665 0.266478 0.875239
vn 0.600924 -0.738090 -0.306780
vn 0.633914 -0.237285 0.736104
vn 0.600053 0.727154 0.333442
vn 0.569625 0.659933 0.489914
vn 0.589752 0.662481 0.461856
vn 0.617166 0.421516 0.664403
vn 0.554128 0.394031 0.733268
vn 0.856199 -0.249770 -0.452258
vn 0.576379 -0.444568 -0.685673
vn -0.990291 -0.135623 -0.030507
vn -0.479173 -0.834896 -0.270816
vn -0.960984 -0.265501 0.077575
vn -0.956990 -0.288732 -0.028359
vn -0.825144 -0.405254 0.393582
vn -0.410164 0.795857 0.445394
vn 0.737376 0.648100 0.190376
vn 0.814358 0.278352 0.509256
vn -0.785934 0.120763 0.606403
vn -0.763886 0.102404 0.637174
vn 0.741081 -0.345227 -0.575863
vn 0.731005 -0.313499 -0.606094
vn 0.819629 0.258727 0.511145
vn 0.744932 -0.477716 -0.465687
vn -0.316367 -0.370306 -0.873376
vn -0.418691 -0.426804 -0.801584
vn -0.772017 0.112981 0.625480
vn 0.836254 -0.079177 -0.542596
vn -0.745499 -0.050199 0.664614
vn -0.989393 0.094232 -0.110550
vn -0.228854 -0.139405 -0.963427
vn 0.697435 -0.517280 0.495990
vn 0.733017 -0.255890 -0.630242
vn -0.436004 -0.167302 -0.884257
vn 0.958306 0.285572 -0.009950
vn 0.961961 0.272380 -0.020965
vn -0.757787 0.067054 0.649047
vn 0.824867 0.282998 0.489394
vn 0.725665 -0.430337 -0.536862
vn -0.287742 -0.534165 -0.794904
vn -0.963240 0.201577 -0.177582
vn 0.481201 0.672037 -0.562861
vn 0.402309 0.735593 -0.545024
vn 0.927643 -0.145251 0.344064
vn 0.903908 -0.241775 0.352838
vn -0.466139 -0.517495 0.717575
vn -0.362706 -0.624740 0.691480
vn 0.959702 -0.263055 0.098867
vn -0.328940 -0.190083 0.925023
vn 0.351341 0.079354 -0.932879
vn 0.955631 -0.215597 0.200718
vn 0.949463 -0.296547 0.102854
vn -0.075777 -0.757399 0.648541
vn 0.970762 -0.118374 0.208827
vn -0.380195 -0.646434 0.661495
vn -0.957505 0.224536 -0.181020
vn 0.978563 -0.021807 0.204789
vn -0.243442 -0.559910 0.791983
vn 0.989476 -0.045782 0.137260
vn 0.341144 0.505309 -0.792643
vn 0.172975 0.388591 -0.905029
vn -0.579844 0.212925 -0.786412
vn -0.888979 -0.166735 -0.426516
vn -0.299003 -0.607074 0.736246
vn -0.947647 -0.289584 0.134558
vn 0.447238 0.753119 -0.482484
vn 0.926365 -0.179423 0.331144
vn -0.429435 -0.452392 0.781618
vn -0.923464 0.352132 -0.152373
vn 0.632395 0.444453 -0.634458
vn -0.970560 0.162106 -0.178143
vn -0.962994 0.172221 -0.207321
vn 0.452306 0.462496 -0.762573
vn 0.879011 -0.447507 0.164554
vn 0.955989 -0.280103 0.087335
vn -0.551037 -0.623652 0.554452
vn -0.467260 -0.687936 0.555349
vn -0.916477 0.389597 -0.091019
vn -0.347294 0.593123 -0.726355
vn -0.933620 -0.335844 0.124746
vn 0.794458 0.310918 -0.521695
vn 0.079172 -0.842624 -0.532650
vn 0.044615 -0.843598 -0.535119
vn 0.679302 0.596521 0.427447
vn 0.438437 0.714136 -0.545694
vn -0.531121 0.126012 0.837873
vn 0.685443 0.615136 0.389584
vn -0.648978 0.140116 0.747794
vn 0.079928 -0.844177 -0.530071
vn 0.080486 -0.844285 -0.529816
vn 0.587316 0.721151 0.367425
vn 0.437076 -0.058334 0.897531
vn -0.641461 0.338087 0.688640
vn -0.053950 -0.995896 -0.072672
vn -0.578807 0.011257 -0.815387
vn 0.092482 -0.356976 -0.929524
vn -0.641907 -0.236695 0.729336
vn -0.950127 -0.309554 -0.037893
vn -0.436494 -0.539773 -0.719804
vn -0.415278 -0.552493 -0.722701
vn -0.812706 -0.581358 0.039132
vn -0.370479 0.299976 -0.879068
vn -0.939579 -0.342064 0.013569
vn 0.511191 -0.643295 -0.569961
vn 0.571349 -0.588079 -0.572471
vn 0.050135 -0.319902 -0.946123
vn 0.035603 -0.700715 0.712552
vn 0.854286 0.068241 0.515304
vn 0.119575 0.152415 0.981056
vn -0.021690 0.418075 0.908153
vn -0.791829 -0.312860 0.524525
vn -0.555068 -0.160392 -0.816195
vn 0.032199 -0.301619 0.952885
vn -0.319044 -0.642016 0.697155
vn -0.310294 0.458005 0.833036
vn -0.000629 0.057882 0.998323
vn -0.519011 -0.110447 0.847602
vn 0.267882 -0.051227 0.962089
vn 0.288846 0.045784 0.956280
vn -0.723424 0.222354 -0.653618
vn -0.582825 -0.006014 -0.812575
vn -0.020526 -0.301684 0.953187
vn -0.719757 0.622451 -0.307416
vn 0.294033 0.036413 0.955101
vn -0.628890 0.107897 -0.769971
vn -0.056170 0.047960 0.997269
vn -0.269180 0.537199 0.799349
vn -0.011238 0.650588 0.759348
vn 0.226710 0.480786 0.847023
vn 0.180706 0.513409 0.838902
vn -0.460999 0.483528 0.744097
vn -0.790107 0.573633 -0.216046
vn -0.462862 0.640458 -0.612840
vn -0.347169 0.705025 -0.618396
vn -0.343999 0.708806 0.615840
vn -0.638029 0.736676 -0.224114
vn -0.757905 0.634957 -0.149699
vn -0.570874 0.476024 -0.668958
vn -0.375526 0.632864 -0.677100
vn -0.564998 0.276990 -0.777209
vn 0.075258 0.016766 0.997023
vn -0.767199 0.231275 0.598262
vn -0.716614 0.559359 -0.416630
vn -0.507009 0.393593 -0.766829
vn 0.061875 0.152600 0.986349
vn 0.256913 0.093757 0.961876
vn -0.757692 0.216596 0.615621
vn -0.775760 0.157448 0.611070
vn -0.498896 0.377825 0.779969
vn -0.993479 0.107432 -0.038184
vn -0.201231 0.178476 -0.963147
vn -0.905469 0.163990 -0.391451
vn -0.729305 -0.179933 -0.660105
vn -0.116057 -0.244822 -0.962597
vn -0.115036 -0.245250 -0.962610
vn -0.060451 0.065581 0.996014
vn 0.111598 -0.365566 -0.924071
vn -0.745919 0.343535 -0.570604
vn -0.850986 -0.524825 -0.019527
vn 0.707493 -0.287963 -0.645392
vn -0.969659 0.103598 -0.221423
vn -0.196432 0.973966 -0.113157
vn -0.927462 -0.314896 0.201630
vn -0.825329 0.517078 0.226852
vn -0.112345 -0.962089 -0.248522
vn -0.848873 -0.259825 -0.460332
vn -0.733418 -0.393637 -0.554209
vn -0.845009 -0.134421 0.517582
vn -0.451464 -0.102128 0.886425
vn -0.136522 0.158210 0.977922
vn -0.982204 -0.102912 0.157112
vn -0.971146 -0.218950 -0.094537
vn -0.951282 -0.237004 -0.197207
vn -0.159588 -0.807053 0.568504
vn -0.185129 0.266145 0.945988
vn -0.910704 0.015851 0.412755
vn -0.972953 0.065781 0.221441
vn 0.081822 0.933041 0.350343
vn -0.463111 0.398210 0.791806
vn -0.673082 0.395174 0.625139
vn -0.687377 0.398602 0.607148
vn -0.489606 -0.115399 0.864274
vn -0.318261 -0.193235 0.928101
vn -0.021224 0.946642 0.321586
vn 0.022931 0.056368 0.998147
vn -0.263245 -0.627748 0.732554
vn -0.527842 0.096523 0.843840
vn -0.450692 -0.852609 -0.264451
vn -0.960677 0.089653 0.262797
vn -0.036779 -0.997595 0.058742
vn -0.507104 0.214579 0.834746
vn -0.806688 0.135766 0.575171
vn -0.259087 -0.965228 -0.034767
vn -0.326382 0.111746 0.938609
vn -0.974479 0.075882 -0.211264
vn -0.911114 0.192628 -0.364372
vn -0.774386 -0.236400 0.586891
vn -0.172847 -0.355354 0.918612
vn -0.828047 -0.065499 0.556820
vn -0.062597 -0.229422 0.971312
vn -0.498418 0.759858 0.417367
vn -0.975343 0.107316 0.192848
vn -0.870548 0.468848 0.149424
vn -0.750651 0.636407 0.177509
vn -0.486154 0.383763 0.785099
vn -0.504804 0.339273 -0.793767
vn -0.388149 0.422015 -0.819295
vn -0.122985 0.969332 -0.212766
vn -0.003271 0.932221 -0.361874
vn -0.629594 -0.048007 0.775440
vn -0.222029 0.958447 -0.179117
vn -0.698797 -0.131235 0.703179
vn -0.894455 0.360700 0.264285
vn 0.696817 -0.429348 -0.574549
vn -0.411174 0.849750 0.329941
vn -0.850328 -0.105561 0.515557
vn 0.230571 -0.916540 0.326789
vn 0.963369 0.183914 -0.195179
vn -0.733415 -0.548374 0.401731
vn -0.383471 -0.922801 -0.037250
vn 0.280202 0.699569 0.657335
vn -0.383350 -0.077993 0.920304
vn -0.142884 0.684281 0.715083
vn -0.049121 0.763002 0.644527
vn -0.054303 0.949402 -0.309332
vn 0.221001 0.461538 -0.859151
vn -0.562831 0.351562 -0.748081
vn -0.934015 0.249372 -0.255792
vn 0.033196 -0.898488 0.437742
vn 0.032878 -0.926179 0.375648
vn -0.879282 0.055406 0.473068
vn -0.739166 0.002192 0.673520
vn -0.443630 0.861613 0.246608
vn -0.480425 0.840772 0.249587
vn 0.317807 0.807046 -0.497670
vn 0.953055 -0.280279 -0.114586
vn 0.103249 -0.963512 0.246951
vn 0.207940 -0.843897 0.494569
vn -0.699599 0.096642 0.707970
vn -0.829627 -0.091222 0.550815
vn -0.536345 0.832887 0.136502
vn -0.509941 0.848071 0.143999
vn 0.420055 0.236415 -0.876163
vn 0.406280 0.830809 -0.380386
vn 0.751768 0.454935 -0.477367
vn -0.839945 0.070081 0.538127
vn 0.027677 -0.931716 0.362132
vn 0.893293 -0.245765 -0.376334
vn 0.545168 0.773383 -0.323529
vn 0.926814 -0.188331 -0.324882
vn 0.481502 0.860321 -0.167345
vn -0.877219 -0.058891 0.476464
vn 0.084433 -0.938803 0.333947
vn 0.019855 -0.938354 -0.345106
vn -0.143715 -0.979066 0.144135
vn 0.064714 -0.465006 0.882939
vn 0.051727 -0.190409 0.980341
vn 0.317043 0.685018 0.655922
vn 0.279437 0.648266 0.708284
vn 0.401844 0.882770 -0.243389
vn 0.379663 0.870554 -0.313036
vn 0.126402 -0.162550 -0.978570
vn 0.133274 -0.205299 -0.969583
vn 0.655372 0.320869 0.683762
vn 0.699635 0.552005 -0.453654
vn -0.315681 0.804662 -0.502856
vn -0.239083 0.820694 -0.518942
vn -0.222398 0.785532 -0.577476
vn 0.103573 0.785750 -0.609811
vn 0.132906 0.722904 -0.678046
vn 0.341219 0.582552 0.737701
vn 0.314780 0.335552 0.887873
vn -0.226300 -0.953967 -0.196811
vn 0.527771 -0.770191 0.358140
vn -0.017881 -0.960781 -0.276733
vn -0.038552 -0.982236 -0.183646
vn 0.176672 -0.895327 -0.408873
vn -0.638914 -0.013821 -0.769154
vn -0.230233 0.947581 -0.221546
vn 0.211390 0.872630 -0.440262
vn -0.017370 -0.704252 -0.709738
vn 0.017809 -0.681699 -0.731416
vn 0.318970 0.495034 0.808207
vn 0.276713 0.495843 0.823146
vn 0.220406 0.923905 -0.312763
vn 0.399153 0.585285 0.705775
vn -0.128473 -0.309832 0.942072
vn -0.068629 -0.576655 0.814100
vn -0.086020 -0.708789 -0.700157
vn 0.134611 0.684397 0.716576
vn 0.049501 -0.711539 -0.700900
vn -0.301332 -0.896682 -0.324284
vn -0.358507 -0.393295 0.846636
vn 0.858307 0.498561 -0.121435
vn 0.215269 0.519587 0.826855
vn -0.356041 -0.490581 0.795339
vn 0.073575 0.988981 0.128462
vn 0.081576 0.986296 0.143408
vn 0.078751 -0.688580 -0.720871
vn 0.116061 0.960183 -0.254123
vn 0.156909 0.565785 0.809486
vn 0.043787 -0.366541 0.929371
vn 0.739244 -0.001579 -0.673436
vn -0.678782 0.431711 -0.594037
vn -0.609838 0.476329 -0.633411
vn -0.622960 0.119469 0.773077
vn -0.593957 0.062862 0.802037
vn 0.777747 -0.180065 0.602234
vn 0.636908 -0.296790 0.711522
vn -0.730079 -0.123194 0.672166
vn 0.700372 0.244859 0.670465
vn -0.672719 -0.438992 -0.595597
vn -0.543159 0.034582 0.838917
vn -0.402147 0.526917 0.748756
vn 0.749082 0.440327 0.494963
vn -0.688138 0.419292 0.592166
vn 0.641423 -0.333928 0.690701
vn 0.675342 0.100966 -0.730561
vn -0.507604 0.794566 0.333171
vn 0.781559 0.558828 0.277266
vn -0.647128 0.627679 0.432717
vn -0.689481 -0.670957 -0.272825
vn -0.694449 -0.665965 -0.272452
vn -0.195887 -0.867111 -0.457981
vn 0.377030 -0.848908 -0.370410
vn 0.835914 0.434891 0.334839
vn 0.687647 -0.649488 -0.324511
vn -0.686983 0.475166 -0.549792
vn -0.666544 0.201385 0.717749
vn 0.744925 -0.162982 0.646933
vn 0.745463 0.110782 -0.657277
vn -0.872998 0.220235 -0.435168
vn 0.802080 -0.130011 -0.582894
vn 0.694632 -0.147884 -0.704001
vn -0.738946 0.122378 -0.662557
vn -0.645579 -0.138658 0.751001
vn -0.793543 0.017839 0.608253
vn 0.758161 -0.367117 0.538903
vn 0.740078 -0.376490 0.557261
vn 0.750991 0.136662 -0.646016
vn -0.062618 0.060045 -0.996230
vn 0.929662 -0.339234 -0.143697
vn -0.974714 0.109927 -0.194546
vn -0.229603 -0.970291 0.076270
vn -0.204661 -0.976847 0.062319
vn -0.467590 0.832042 0.298438
vn -0.707241 0.401926 -0.581606
vn 0.830991 0.456050 0.318548
vn -0.549399 0.817093 0.174702
vn 0.909988 0.387932 0.146391
vn -0.182972 -0.961036 0.207201
vn -0.210396 -0.947312 0.241525
vn -0.480220 0.876015 0.044577
vn 0.004210 0.540846 0.841111
vn 0.836339 0.545677 -0.052657
vn -0.539021 -0.817736 0.201903

f 1/1/1 2/2/1 3/3/1
f 4/4/2 5/5/2 6/6/2
f 4/4/3 6/7/3 7/8/3
f 5/9/4 8/10/4 9/11/4
f 10/12/5 11/13/5 9/14/5
f 6/6/6 11/15/6 7/8/6
f 6/6/7 12/16/7 11/13/7
f 12/17/8 5/5/8 9/14/8
f 6/6/9 5/5/9 12/17/9
f 11/13/10 12/18/10 9/19/10
f 13/20/11 14/21/11 15/22/11
f 14/21/12 13/20/12 16/23/12
f 16/24/13 13/20/13 17/25/13
f 15/22/14 14/21/14 18/26/14
f 14/21/15 19/27/15 18/26/15
f 18/26/16 20/28/16 21/29/16
f 18/26/17 19/27/17 20/28/17
f 20/28/18 3/30/18 21/29/18
f 5/9/19 22/31/19 23/32/19
f 24/33/20 25/34/20 26/35/20
f 27/36/21 25/34/21 9/37/21
f 28/38/22 27/39/22 29/40/22
f 30/41/23 25/34/23 24/33/23
f 25/34/24 30/41/24 10/42/24
f 30/41/25 24/33/25 31/43/25
f 24/33/26 26/44/26 32/45/26
f 33/46/27 34/47/27 5/9/27
f 4/4/28 22/31/28 5/9/28
f 26/35/29 25/34/29 27/39/29
f 33/46/30 35/48/30 34/47/30
f 32/45/31 26/35/31 28/38/31
f 23/32/32 33/46/32 5/9/32
f 26/35/33 27/39/33 28/38/33
f 28/38/34 29/40/34 36/49/34
f 35/50/35 37/51/35 29/40/35
f 28/38/36 38/52/36 32/45/36
f 36/49/37 38/52/37 28/38/37
f 36/49/38 37/53/38 39/54/38
f 39/55/39 37/56/39 40/57/39
f 41/58/40 42/59/40 39/55/40
f 39/55/41 40/57/41 41/58/41
f 36/49/42 29/40/42 37/51/42
f 37/56/43 35/48/43 33/46/43
f 37/56/44 33/46/44 40/57/44
f 40/57/45 33/46/45 43/60/45
f 40/57/46 43/60/46 41/58/46
f 33/46/47 23/32/47 43/60/47
f 44/61/48 45/62/48 30/63/48
f 15/64/49 46/65/49 45/62/49
f 46/66/50 47/67/50 10/68/50
f 47/67/51 7/69/51 11/70/51
f 45/62/52 44/61/52 17/71/52
f 44/61/53 30/63/53 31/72/53
f 13/73/54 15/64/54 45/62/54
f 46/65/55 10/74/55 45/62/55
f 45/62/56 10/74/56 30/63/56
f 47/67/57 11/70/57 10/68/57
f 47/67/58 48/75/58 7/69/58
f 46/66/59 15/76/59 47/67/59
f 18/77/60 47/67/60 15/76/60
f 47/67/61 18/77/61 48/75/61
f 18/77/62 21/78/62 48/75/62
f 13/73/63 45/62/63 17/71/63
f 49/79/64 35/50/64 29/40/64
f 8/80/65 27/81/65 9/82/65
f 34/47/66 50/83/66 5/84/66
f 27/36/67 49/79/67 29/40/67
f 35/48/68 51/85/68 52/86/68
f 35/50/69 49/79/69 51/87/69
f 52/86/70 50/83/70 34/47/70
f 35/48/71 52/86/71 34/47/71
f 5/84/72 50/83/72 8/10/72
f 53/88/73 27/81/73 8/80/73
f 53/88/74 49/79/74 27/36/74
f 54/89/75 55/90/75 56/91/75
f 57/92/76 55/90/76 58/93/76
f 59/94/77 60/95/77 55/90/77
f 61/96/78 54/89/78 56/91/78
f 39/97/79 61/96/79 36/98/79
f 36/98/80 61/96/80 56/91/80
f 36/98/81 56/91/81 38/99/81
f 62/100/82 63/101/82 64/102/82
f 65/103/83 64/102/83 54/89/83
f 61/96/84 65/103/84 54/89/84
f 66/104/85 67/105/85 62/100/85
f 55/90/86 60/95/86 68/106/86
f 69/107/87 68/106/87 60/95/87
f 69/107/88 70/108/88 68/106/88
f 58/109/89 55/90/89 68/106/89
f 68/106/90 71/110/90 58/111/90
f 62/100/91 67/105/91 63/101/91
f 64/102/92 63/101/92 69/107/92
f 70/108/93 71/110/93 68/106/93
f 58/111/94 71/110/94 72/112/94
f 56/91/95 57/92/95 38/113/95
f 55/90/96 57/114/96 56/91/96
f 73/115/97 74/116/97 38/113/97
f 58/109/98 72/112/98 73/115/98
f 57/117/99 58/111/99 73/115/99
f 57/92/100 73/115/100 38/113/100
f 73/115/101 72/112/101 74/116/101
f 39/97/102 75/118/102 61/96/102
f 75/118/103 39/97/103 76/119/103
f 64/102/104 59/94/104 54/89/104
f 64/102/105 60/95/105 59/94/105
f 54/89/106 59/94/106 55/90/106
f 64/102/107 69/107/107 60/95/107
f 65/103/108 66/104/108 62/100/108
f 65/103/109 61/96/109 75/118/109
f 75/118/110 76/119/110 65/103/110
f 66/104/111 65/103/111 76/119/111
f 62/100/112 64/102/112 65/103/112
f 39/97/113 42/120/113 76/119/113
f 77/121/114 76/119/114 42/120/114
f 67/105/115 76/119/115 77/121/115
f 66/104/116 76/119/116 67/105/116
f 9/82/117 25/34/117 10/42/117
f 51/122/118 49/123/118 78/124/118
f 79/125/119 50/126/119 52/127/119
f 52/127/120 51/122/120 79/125/120
f 80/128/121 81/129/121 53/130/121
f 51/122/122 78/124/122 79/125/122
f 82/131/123 50/126/123 79/125/123
f 50/126/124 82/131/124 8/132/124
f 53/133/125 78/124/125 49/123/125
f 83/134/126 84/135/126 85/136/126
f 84/135/127 83/134/127 86/137/127
f 86/137/128 87/138/128 84/135/128
f 88/139/129 84/135/129 87/138/129
f 87/138/130 89/140/130 88/139/130
f 90/141/131 88/139/131 89/140/131
f 91/142/132 92/143/132 90/141/132
f 90/141/133 89/140/133 91/142/133
f 85/136/134 92/144/134 91/145/134
f 91/145/135 83/134/135 85/136/135
f 80/128/136 93/146/136 83/134/136
f 94/147/137 83/134/137 93/146/137
f 93/146/138 87/138/138 94/147/138
f 87/138/139 93/146/139 95/148/139
f 95/148/140 96/149/140 87/138/140
f 89/140/141 87/138/141 96/149/141
f 97/150/142 91/142/142 89/140/142
f 97/151/143 81/129/143 80/128/143
f 8/132/144 82/131/144 80/128/144
f 93/146/145 80/128/145 98/152/145
f 98/152/146 95/148/146 93/146/146
f 95/148/147 82/131/147 79/125/147
f 79/125/148 78/124/148 95/148/148
f 96/149/149 95/148/149 78/124/149
f 78/124/150 53/133/150 81/153/150
f 81/153/151 96/149/151 78/124/151
f 80/128/152 53/130/152 8/154/152
f 94/147/153 87/138/153 86/137/153
f 86/137/154 83/134/154 94/147/154
f 97/151/155 83/134/155 91/145/155
f 89/140/156 96/149/156 97/150/156
f 80/128/157 83/134/157 97/151/157
f 81/153/158 97/150/158 96/149/158
f 82/131/159 95/148/159 98/152/159
f 98/152/160 80/128/160 82/131/160
f 85/136/161 99/155/161 100/156/161
f 99/155/162 85/136/162 84/135/162
f 84/135/163 101/157/163 99/155/163
f 101/157/164 84/135/164 88/139/164
f 88/139/165 90/141/165 101/157/165
f 102/158/166 101/157/166 90/141/166
f 90/141/167 103/159/167 102/158/167
f 103/159/168 90/141/168 92/143/168
f 92/144/169 85/136/169 103/160/169
f 100/156/170 103/160/170 85/136/170
f 104/161/171 105/162/171 106/163/171
f 107/164/172 106/163/172 108/165/172
f 109/166/173 110/167/173 103/168/173
f 109/166/174 111/169/174 104/161/174
f 104/161/175 110/167/175 109/166/175
f 104/161/176 111/169/176 112/170/176
f 113/171/177 112/170/177 111/169/177
f 106/163/178 110/167/178 104/161/178
f 104/161/179 112/170/179 105/162/179
f 105/172/180 113/173/180 111/174/180
f 113/173/181 105/172/181 112/175/181
f 105/172/182 111/174/182 109/176/182
f 109/176/183 106/177/183 105/172/183
f 109/176/184 100/178/184 106/177/184
f 103/179/185 100/178/185 109/176/185
f 102/180/186 103/168/186 110/167/186
f 106/163/187 114/181/187 108/165/187
f 115/182/188 116/183/188 106/177/188
f 116/184/189 117/185/189 118/186/189
f 108/165/190 114/181/190 119/187/190
f 119/187/191 120/188/191 108/165/191
f 118/189/192 121/190/192 114/191/192
f 114/191/193 121/190/193 117/192/193
f 116/193/194 115/194/194 119/187/194
f 120/188/195 119/187/195 115/194/195
f 121/195/196 118/186/196 117/185/196
f 108/165/197 101/196/197 102/180/197
f 115/182/198 106/177/198 100/178/198
f 100/178/199 99/197/199 115/182/199
f 120/188/200 99/198/200 101/196/200
f 106/163/201 107/164/201 110/167/201
f 108/165/202 120/188/202 101/196/202
f 120/188/203 115/194/203 99/198/203
f 107/164/204 102/180/204 110/167/204
f 102/180/205 107/164/205 108/165/205
f 118/199/206 106/177/206 116/183/206
f 114/181/207 106/163/207 118/200/207
f 114/191/208 117/192/208 119/201/208
f 117/192/209 116/202/209 119/201/209
f 122/203/210 123/204/210 124/205/210
f 125/206/211 126/207/211 123/208/211
f 125/206/212 123/208/212 127/209/212
f 125/210/213 128/211/213 126/212/213
f 128/211/214 129/213/214 126/212/214
f 128/214/215 124/215/215 129/216/215
f 122/217/216 124/215/216 128/214/216
f 130/218/217 128/211/217 125/219/217
f 131/220/218 122/221/218 130/222/218
f 132/223/219 125/224/219 127/225/219
f 132/226/220 131/227/220 125/219/220
f 133/228/221 131/227/221 132/226/221
f 133/229/222 122/221/222 131/220/222
f 130/218/223 125/219/223 131/227/223
f 128/214/224 130/222/224 122/221/224
f 127/209/225 123/204/225 122/203/225
f 16/230/226 133/228/226 14/231/226
f 16/232/227 3/3/227 133/229/227
f 14/231/228 133/228/228 132/226/228
f 14/233/229 132/223/229 19/234/229
f 132/223/230 127/225/230 19/234/230
f 20/235/231 19/234/231 127/225/231
f 20/235/232 127/225/232 122/236/232
f 3/3/233 122/221/233 133/229/233
f 3/237/234 20/235/234 122/236/234
f 134/238/235 135/239/235 136/240/235
f 137/241/236 135/242/236 134/243/236
f 138/244/237 139/245/237 137/246/237
f 138/247/238 136/248/238 139/249/238
f 134/238/239 136/240/239 123/208/239
f 138/247/240 123/250/240 136/248/240
f 123/250/241 138/247/241 124/251/241
f 134/238/242 123/208/242 126/252/242
f 129/253/243 134/243/243 126/254/243
f 137/241/244 134/243/244 129/253/244
f 138/244/245 137/246/245 129/255/245
f 138/244/246 129/255/246 124/256/246
f 136/257/247 140/258/247 139/259/247
f 136/257/248 141/260/248 140/258/248
f 142/261/249 139/259/249 140/258/249
f 135/262/250 143/263/250 141/260/250
f 141/264/251 143/265/251 142/266/251
f 142/266/252 140/267/252 141/264/252
f 137/268/253 143/263/253 135/262/253
f 135/262/254 141/260/254 136/257/254
f 139/259/255 142/261/255 137/268/255
f 137/268/256 144/269/256 143/263/256
f 137/268/257 142/261/257 144/269/257
f 143/265/258 145/270/258 146/271/258
f 146/271/259 142/266/259 143/265/259
f 143/263/260 144/269/260 145/272/260
f 144/269/261 146/273/261 145/272/261
f 146/273/262 144/269/262 142/261/262
f 3/274/263 16/275/263 17/276/263
f 147/5/264 4/4/264 148/6/264
f 148/7/265 4/4/265 7/8/265
f 149/10/266 147/9/266 150/11/266
f 151/13/267 152/12/267 150/14/267
f 151/15/268 148/6/268 7/8/268
f 153/16/269 148/6/269 151/13/269
f 147/5/270 153/17/270 150/14/270
f 147/5/271 148/6/271 153/17/271
f 153/18/272 151/13/272 150/19/272
f 154/21/273 155/20/273 156/22/273
f 155/20/274 154/21/274 157/23/274
f 155/20/275 157/24/275 17/25/275
f 154/21/276 156/22/276 158/26/276
f 159/27/277 154/21/277 158/26/277
f 160/28/278 158/26/278 21/29/278
f 159/27/279 158/26/279 160/28/279
f 3/30/280 160/28/280 21/29/280
f 22/31/281 147/9/281 23/32/281
f 161/34/282 24/33/282 162/35/282
f 161/34/283 163/36/283 150/37/283
f 163/39/284 164/38/284 165/40/284
f 161/34/285 166/41/285 24/33/285
f 166/41/286 161/34/286 152/42/286
f 24/33/287 166/41/287 31/43/287
f 162/44/288 24/33/288 32/45/288
f 167/47/289 168/46/289 147/9/289
f 22/31/290 4/4/290 147/9/290
f 161/34/291 162/35/291 163/39/291
f 169/48/292 168/46/292 167/47/292
f 162/35/293 32/45/293 164/38/293
f 168/46/294 23/32/294 147/9/294
f 163/39/295 162/35/295 164/38/295
f 165/40/296 164/38/296 170/49/296
f 171/51/297 169/50/297 165/40/297
f 38/52/298 164/38/298 32/45/298
f 38/52/299 170/49/299 164/38/299
f 171/53/300 170/49/300 172/54/300
f 171/56/301 172/55/301 173/57/301
f 42/59/302 41/58/302 172/55/302
f 173/57/303 172/55/303 41/58/303
f 165/40/304 170/49/304 171/51/304
f 169/48/305 171/56/305 168/46/305
f 168/46/306 171/56/306 173/57/306
f 168/46/307 173/57/307 43/60/307
f 43/60/308 173/57/308 41/58/308
f 23/32/309 168/46/309 43/60/309
f 174/62/310 44/61/310 166/63/310
f 175/65/311 156/64/311 174/62/311
f 176/67/312 175/66/312 152/68/312
f 7/69/313 176/67/313 151/70/313
f 44/61/314 174/62/314 17/71/314
f 166/63/315 44/61/315 31/72/315
f 156/64/316 155/73/316 174/62/316
f 152/74/317 175/65/317 174/62/317
f 152/74/318 174/62/318 166/63/318
f 151/70/319 176/67/319 152/68/319
f 48/75/320 176/67/320 7/69/320
f 156/76/321 175/66/321 176/67/321
f 176/67/322 158/77/322 156/76/322
f 158/77/323 176/67/323 48/75/323
f 21/78/324 158/77/324 48/75/324
f 174/62/325 155/73/325 17/71/325
f 169/50/326 177/79/326 165/40/326
f 163/81/327 149/80/327 150/82/327
f 178/83/328 167/47/328 147/84/328
f 177/79/329 163/36/329 165/40/329
f 179/85/330 169/48/330 180/86/330
f 177/79/331 169/50/331 179/87/331
f 178/83/332 180/86/332 167/47/332
f 180/86/333 169/48/333 167/47/333
f 178/83/334 147/84/334 149/10/334
f 163/81/335 181/88/335 149/80/335
f 177/79/336 181/88/336 163/36/336
f 182/90/337 183/89/337 184/91/337
f 182/90/338 185/92/338 186/93/338
f 187/95/339 188/94/339 182/90/339
f 183/89/340 189/96/340 184/91/340
f 189/96/341 172/97/341 170/98/341
f 189/96/342 170/98/342 184/91/342
f 184/91/343 170/98/343 38/99/343
f 63/101/344 190/100/344 191/102/344
f 191/102/345 192/103/345 183/89/345
f 192/103/346 189/96/346 183/89/346
f 67/105/347 193/104/347 190/100/347
f 187/95/348 182/90/348 194/106/348
f 194/106/349 69/107/349 187/95/349
f 70/108/350 69/107/350 194/106/350
f 182/90/351 186/109/351 194/106/351
f 71/110/352 194/106/352 186/111/352
f 67/105/353 190/100/353 63/101/353
f 63/101/354 191/102/354 69/107/354
f 71/110/355 70/108/355 194/106/355
f 71/110/356 186/111/356 72/112/356
f 185/92/357 184/91/357 38/113/357
f 185/114/358 182/90/358 184/91/358
f 74/116/359 195/115/359 38/113/359
f 72/112/360 186/109/360 195/115/360
f 186/111/361 185/117/361 195/115/361
f 195/115/362 185/92/362 38/113/362
f 72/112/363 195/115/363 74/116/363
f 196/118/364 172/97/364 189/96/364
f 172/97/365 196/118/365 197/119/365
f 188/94/366 191/102/366 183/89/366
f 187/95/367 191/102/367 188/94/367
f 188/94/368 183/89/368 182/90/368
f 69/107/369 191/102/369 187/95/369
f 193/104/370 192/103/370 190/100/370
f 189/96/371 192/103/371 196/118/371
f 197/119/372 196/118/372 192/103/372
f 192/103/373 193/104/373 197/119/373
f 191/102/374 190/100/374 192/103/374
f 42/120/375 172/97/375 197/119/375
f 197/119/376 77/121/376 42/120/376
f 197/119/377 67/105/377 77/121/377
f 197/119/378 193/104/378 67/105/378
f 161/34/379 150/82/379 152/42/379
f 177/123/380 179/122/380 198/124/380
f 178/126/381 199/125/381 180/127/381
f 179/122/382 180/127/382 199/125/382
f 200/129/383 201/128/383 181/130/383
f 198/124/384 179/122/384 199/125/384
f 178/126/385 202/131/385 199/125/385
f 202/131/386 178/126/386 149/132/386
f 198/124/387 181/133/387 177/123/387
f 203/135/388 204/134/388 205/136/388
f 204/134/389 203/135/389 206/137/389
f 207/138/390 206/137/390 203/135/390
f 203/135/391 208/139/391 207/138/391
f 209/140/392 207/138/392 208/139/392
f 208/139/393 210/141/393 209/140/393
f 211/143/394 212/142/394 210/141/394
f 209/140/395 210/141/395 212/142/395
f 211/144/396 205/136/396 212/145/396
f 204/134/397 212/145/397 205/136/397
f 213/146/398 201/128/398 204/134/398
f 204/134/399 214/147/399 213/146/399
f 207/138/400 213/146/400 214/147/400
f 213/146/401 207/138/401 215/148/401
f 216/149/402 215/148/402 207/138/402
f 207/138/403 209/140/403 216/149/403
f 212/142/404 217/150/404 209/140/404
f 200/129/405 217/151/405 201/128/405
f 202/131/406 149/132/406 201/128/406
f 201/128/407 213/146/407 218/152/407
f 215/148/408 218/152/408 213/146/408
f 202/131/409 215/148/409 199/125/409
f 198/124/410 199/125/410 215/148/410
f 215/148/411 216/149/411 198/124/411
f 181/133/412 198/124/412 200/153/412
f 216/149/413 200/153/413 198/124/413
f 181/130/414 201/128/414 149/154/414
f 207/138/415 214/147/415 206/137/415
f 204/134/416 206/137/416 214/147/416
f 204/134/417 217/151/417 212/145/417
f 216/149/418 209/140/418 217/150/418
f 204/134/419 201/128/419 217/151/419
f 217/150/420 200/153/420 216/149/420
f 215/148/421 202/131/421 218/152/421
f 201/128/422 218/152/422 202/131/422
f 219/155/423 205/136/423 220/156/423
f 205/136/424 219/155/424 203/135/424
f 221/157/425 203/135/425 219/155/425
f 203/135/426 221/157/426 208/139/426
f 210/141/427 208/139/427 221/157/427
f 221/157/428 222/158/428 210/141/428
f 223/159/429 210/141/429 222/158/429
f 210/141/430 223/159/430 211/143/430
f 205/136/431 211/144/431 223/160/431
f 223/160/432 220/156/432 205/136/432
f 224/162/433 225/161/433 226/163/433
f 226/163/434 227/164/434 228/165/434
f 229/167/435 230/166/435 223/168/435
f 231/169/436 230/166/436 225/161/436
f 229/167/437 225/161/437 230/166/437
f 231/169/438 225/161/438 232/170/438
f 232/170/439 233/171/439 231/169/439
f 229/167/440 226/163/440 225/161/440
f 232/170/441 225/161/441 224/162/441
f 233/173/442 224/172/442 231/174/442
f 224/172/443 233/173/443 232/175/443
f 231/174/444 224/172/444 230/176/444
f 226/177/445 230/176/445 224/172/445
f 220/178/446 230/176/446 226/177/446
f 220/178/447 223/179/447 230/176/447
f 223/168/448 222/180/448 229/167/448
f 234/181/449 226/163/449 228/165/449
f 235/183/450 236/182/450 226/177/450
f 237/185/451 235/184/451 238/186/451
f 234/181/452 228/165/452 239/187/452
f 240/188/453 239/187/453 228/165/453
f 241/190/454 238/189/454 234/191/454
f 241/190/455 234/191/455 237/192/455
f 236/194/456 235/193/456 239/187/456
f 239/187/457 240/188/457 236/194/457
f 238/186/458 241/195/458 237/185/458
f 221/196/459 228/165/459 222/180/459
f 226/177/460 236/182/460 220/178/460
f 219/197/461 220/178/461 236/182/461
f 219/198/462 240/188/462 221/196/462
f 227/164/463 226/163/463 229/167/463
f 240/188/464 228/165/464 221/196/464
f 236/194/465 240/188/465 219/198/465
f 222/180/466 227/164/466 229/167/466
f 227/164/467 222/180/467 228/165/467
f 226/177/468 238/199/468 235/183/468
f 226/163/469 234/181/469 238/200/469
f 237/192/470 234/191/470 239/201/470
f 235/202/471 237/192/471 239/201/471
f 242/204/472 243/203/472 244/205/472
f 245/207/473 246/206/473 242/208/473
f 242/208/474 246/206/474 247/209/474
f 248/211/475 246/210/475 245/212/475
f 249/213/476 248/211/476 245/212/476
f 244/215/477 248/214/477 249/216/477
f 244/215/478 243/217/478 248/214/478
f 248/211/479 250/218/479 246/219/479
f 243/221/480 251/220/480 250/222/480
f 246/224/481 252/223/481 247/225/481
f 251/227/482 252/226/482 246/219/482
f 251/227/483 253/228/483 252/226/483
f 243/221/484 253/229/484 251/220/484
f 246/219/485 250/218/485 251/227/485
f 250/222/486 248/214/486 243/221/486
f 242/204/487 247/209/487 243/203/487
f 253/228/488 157/230/488 154/231/488
f 3/3/489 157/232/489 253/229/489
f 253/228/490 154/231/490 252/226/490
f 252/223/491 154/233/491 159/234/491
f 247/225/492 252/223/492 159/234/492
f 159/234/493 160/235/493 247/225/493
f 247/225/494 160/235/494 243/236/494
f 243/221/495 3/3/495 253/229/495
f 160/235/496 3/237/496 243/236/496
f 254/239/497 255/238/497 256/240/497
f 254/242/498 257/241/498 255/243/498
f 258/245/499 259/244/499 257/246/499
f 256/248/500 259/247/500 258/249/500
f 256/240/501 255/238/501 242/208/501
f 242/250/502 259/247/502 256/248/502
f 259/247/503 242/250/503 244/251/503
f 242/208/504 255/238/504 245/252/504
f 255/243/505 249/253/505 245/254/505
f 255/243/506 257/241/506 249/253/506
f 257/246/507 259/244/507 249/255/507
f 249/255/508 259/244/508 244/256/508
f 260/258/509 256/257/509 258/259/509
f 261/260/510 256/257/510 260/258/510
f 258/259/511 262/261/511 260/258/511
f 263/263/512 254/262/512 261/260/512
f 263/265/513 261/264/513 262/266/513
f 260/267/514 262/266/514 261/264/514
f 263/263/515 257/268/515 254/262/515
f 261/260/516 254/262/516 256/257/516
f 262/261/517 258/259/517 257/268/517
f 264/269/518 257/268/518 263/263/518
f 262/261/519 257/268/519 264/269/519
f 265/270/520 263/265/520 266/271/520
f 262/266/521 266/271/521 263/265/521
f 264/269/522 263/263/522 265/272/522
f 266/273/523 264/269/523 265/272/523
f 264/269/524 266/273/524 262/261/524
f 157/275/525 3/274/525 17/276/525

