mtllib anim_skel_walk_swordshield_000049.mtl

o msked
usemtl shield.001
s off

v -15.729240 37.089142 -0.409570
v -16.722080 37.768021 0.398420
v -10.516159 39.926651 20.241390
v -17.126600 36.392620 0.115760
v -15.697630 35.669018 0.443880
v -16.668751 37.216858 -0.180540
v -18.194990 41.032738 0.657790
v -16.943689 36.246140 -4.853380
v -17.940639 36.500210 -4.608110
v -18.358110 35.566990 -4.337130
v -14.035749 32.510792 0.842360
v -16.089270 36.029572 -0.154830
v -17.361160 35.312912 -4.582400
v 10.954781 49.401329 10.340969
v 7.139320 39.653370 15.938580
v -4.615350 42.378601 11.850651
v 6.549890 42.037979 20.599279
v 19.488129 36.199780 18.174620
v -2.940600 11.225120 28.116199

vt 0.856301 0.265607
vt 0.764624 0.294094
vt 0.850192 0.976825
vt 0.858158 0.265976
vt 0.949099 0.282658
vt 0.742843 0.255302
vt 0.692067 0.254404
vt 0.541488 0.402851
vt 0.893183 0.241135
vt 0.851577 0.242328
vt 0.847036 0.027305
vt 0.893183 0.027305
vt 0.742053 0.256467
vt 0.849952 0.242815
vt 0.544321 0.402080
vt 0.692550 0.250793
vt 0.800888 0.241135
vt 0.800888 0.027305
vt 0.697126 0.324563
vt 0.698569 0.321089
vt 0.345626 0.959903
vt 0.345626 0.724031
vt 0.085605 0.724031
vt 0.605647 0.724031
vt 0.345626 0.075832

vn 0.417551 0.880017 -0.226323
vn -0.937515 0.220406 0.269232
vn 0.966737 -0.115598 -0.228157
vn -0.484995 -0.820226 0.303331
vn -0.218905 0.125043 -0.967701
vn 0.081981 0.974830 -0.207332
vn 0.192494 0.958469 -0.210436
vn -0.518279 -0.019460 -0.854990
vn -0.877364 0.444765 0.180047
vn -0.844113 0.518272 0.137357
vn -0.272819 -0.153721 -0.949705
vn 0.045032 -0.247963 -0.967722
vn 0.916591 -0.355456 -0.183065
vn 0.877365 -0.444763 -0.180048
vn -0.368882 -0.446325 -0.815304
vn -0.192501 -0.958467 0.210437
vn -0.262519 -0.933142 0.245621
vn -0.164850 -0.151799 0.974567
vn -0.220371 0.007105 0.975390
vn 0.712024 0.269734 0.648279
vn 0.624719 0.412392 0.663068
vn 0.162698 -0.538457 -0.826797
vn -0.329679 0.828315 0.452996
vn 0.412178 0.647048 0.641435
vn 0.015954 -0.502597 -0.864373
vn 0.200392 -0.444950 -0.872847
vn -0.569574 0.356146 0.740773
vn 0.249602 0.156258 0.955658
vn 0.050805 -0.408416 -0.911381

f 1/1/1 2/2/1 3/3/1
f 3/3/2 2/2/2 4/4/2
f 1/1/3 3/3/3 5/5/3
f 3/3/4 4/4/4 5/5/4
f 1/6/5 6/7/5 7/8/5
f 6/9/6 1/10/6 8/11/6
f 8/11/7 9/12/7 6/9/7
f 7/8/8 6/7/8 4/13/8
f 6/9/9 9/12/9 10/11/9
f 10/11/10 4/14/10 6/9/10
f 9/12/11 8/11/11 10/11/11
f 1/6/12 11/15/12 12/16/12
f 8/11/13 1/10/13 12/17/13
f 8/11/14 12/17/14 13/18/14
f 11/15/15 4/13/15 12/16/15
f 12/17/16 10/11/16 13/18/16
f 10/11/17 12/17/17 4/14/17
f 13/18/11 10/11/11 8/11/11
f 4/13/18 2/19/18 7/8/18
f 11/15/19 5/20/19 4/13/19
f 2/19/20 1/6/20 7/8/20
f 1/6/21 5/20/21 11/15/21
f 14/21/22 15/22/22 16/23/22
f 14/21/23 16/23/23 17/22/23
f 14/21/24 17/22/24 18/24/24
f 14/21/25 18/24/25 15/22/25
f 19/25/26 16/23/26 15/22/26
f 19/25/27 17/22/27 16/23/27
f 19/25/28 18/24/28 17/22/28
f 19/25/29 15/22/29 18/24/29

