mtllib anim_barb_attack6_000007.mtl

o fat
usemtl fat.001
s off

v -0.160420 38.101898 -4.265520
v 1.860240 36.144421 6.136090
v 0.341610 37.379292 0.857420
v -0.394660 60.198898 -8.602039
v 7.585180 65.853241 -9.796340
v 2.041110 56.412338 -7.871440
v -0.801380 52.155972 -5.506870
v 7.212090 62.696960 -4.754510
v 7.346790 58.117821 -3.447700
v 6.821300 52.321011 -2.189350
v 3.640140 52.061310 -5.997200
v 5.330850 57.191921 -7.798120
v 9.029770 37.012718 4.183400
v 9.342180 38.935658 -2.477050
v 10.551870 38.439800 -2.913970
v 6.465060 37.947762 4.022340
v 3.993900 36.481319 6.400450
v 4.346490 36.591309 -7.364070
v 3.692400 38.557400 -6.432120
v 0.462600 37.830620 -5.230110
v -0.366380 35.239491 -5.705770
v -0.612320 65.853897 -8.364110
v -0.797950 67.828720 -8.439500
v 1.246250 59.407402 5.145340
v 6.029340 59.447800 1.672030
v 7.012740 63.664509 2.283570
v 9.190360 63.324760 -0.641920
v 6.828260 66.462120 2.163740
v 10.853200 67.462318 -3.332020
v 4.497020 52.364212 3.376410
v 1.780430 52.189796 4.481160
v 1.958420 66.340019 4.969520
v 3.562770 70.611221 -6.958850
v 9.277550 66.646973 -9.523190
v 10.527720 68.307632 -6.474580
v 2.898500 70.851753 2.273520
v 5.166970 71.850769 -2.519930
v 0.279320 70.092682 3.103150
v 2.676600 76.206963 0.121380
v 3.176530 73.782394 -3.615900
v 0.443240 73.956436 -4.428220
v 0.570750 76.914055 -1.697040
v -0.644670 71.860664 -6.252060
v 0.680810 47.791931 4.949660
v 5.364230 47.761723 4.354640
v 8.418850 47.409977 -0.822830
v 4.984760 46.815338 -6.015160
v -0.497310 46.683952 -6.603530
v 11.119570 67.264938 -3.254850
v 8.539700 62.304291 -8.507530
v 12.395771 65.973969 -5.614910
v 11.080931 65.370331 -8.436870
v 8.781570 65.958321 -0.726700
v 1.269540 75.839638 5.443520
v -0.570510 74.440094 6.830250
v 2.717290 71.460655 3.514260
v -0.041710 70.486221 5.962720
v -1.088020 73.090050 6.694230
v 0.015580 76.382881 6.699810
v -1.788360 76.331360 6.534490
v 2.551540 77.056664 2.923210
v -0.974310 80.302666 6.716850
v -2.300970 80.312698 6.669990
v -0.018260 77.671555 7.288570
v 0.847620 79.473289 6.385540
v 0.396900 81.523209 4.219680
v -1.146380 81.574905 3.639720
v -1.578560 74.499657 7.121540
v -2.424920 77.110153 6.646800
v -2.927010 75.133484 7.802320
v -2.740560 74.526184 7.220800
v -2.824550 72.946716 7.272200
v -1.511050 70.120407 7.250760
v -2.983620 70.165619 7.393410
v 2.503930 79.398331 2.857680
v 2.226140 80.637421 2.167200
v 0.004290 80.944824 0.405210
v 13.077280 65.530922 -2.581300
v 13.319180 63.391373 -5.638770
v 9.116870 58.589321 -0.586880
v 10.900630 62.058960 1.871970
v 9.853340 59.991608 -6.144020
v 12.185440 55.808319 2.020950
v 14.310970 55.422401 6.583340
v 13.776179 57.792019 5.283460
v 15.114861 54.557339 0.462980
v 16.223370 57.404762 0.366510
v 17.312950 55.116920 5.381460
v 15.990911 58.430679 2.291430
v 18.428600 57.262703 4.601830
v 14.299140 57.345043 4.312800
v 16.795080 59.150299 4.516970
v 13.694870 56.393471 -1.436250
v 14.409321 55.540241 -0.675140
v 14.870661 60.987320 -3.335260
v 14.377720 62.974472 -0.475430
v 13.399670 58.713989 3.425340
v 12.444180 57.444481 -3.820320
v 16.665781 58.943291 12.399640
v 16.601561 60.711140 11.718340
v 18.113211 58.427811 12.128759
v 19.120510 59.738102 11.211480
v 18.453011 61.209179 10.840200
v 20.877689 64.774620 13.766340
v 20.195921 64.543320 14.341600
v 19.924650 63.314610 13.966200
v 20.490341 62.812172 13.364830
v 21.010662 62.006386 14.763260
v 19.138550 64.031258 12.168829
v 20.324060 63.636642 12.793560
v 20.044529 65.470795 13.588120
v 21.121658 65.592125 14.965840
v 20.427219 66.031067 14.777070
v 21.360130 63.158897 16.644819
v 16.856821 60.084229 16.450109
v 17.430990 60.781021 18.202570
v 18.707779 62.108059 20.473640
v 20.616140 63.931942 15.927340
v 18.374290 60.327332 18.072470
v 18.024260 59.386780 16.398710
v 21.485100 64.927620 18.828140
v 3.919550 25.623501 -1.576480
v 7.357400 19.899940 -8.680560
v 5.141220 17.786209 -3.729280
v 9.731510 26.458170 -2.928240
v 12.330541 19.490810 -5.336620
v 6.094640 26.640150 -5.573060
v 8.127980 23.237980 0.172260
v 9.186310 17.670290 -0.744110
v 7.915160 25.319000 1.086990
v 7.976670 27.699690 0.708380
v 10.506750 30.249901 -3.589490
v 7.726880 32.188759 3.040360
v 11.887930 9.022210 -7.853630
v 13.178370 6.409180 -8.748970
v 9.945280 7.206700 -10.570530
v 11.104601 6.614060 -5.622860
v 8.407570 8.195840 -7.245730
v 8.372211 5.088690 -7.967370
v 9.379130 2.195060 -11.712270
v 12.356130 3.017550 -12.182810
v 10.382240 0.813130 -3.410600
v 16.268631 2.481280 -4.373890
v 13.266510 3.005820 -0.075110
v 16.001909 1.634020 -0.297620
v 12.291420 0.463620 0.939660
v -10.516979 66.003250 -5.008900
v -2.595560 56.369583 -7.529790
v -6.435840 62.832409 -1.657750
v -7.432260 57.971989 -0.279960
v -5.217440 52.131126 -3.378240
v -6.049680 52.085579 1.493360
v -6.467550 57.089722 -6.285210
v -8.996120 38.574558 -0.443130
v -7.230830 36.303528 5.795530
v -10.263280 38.028530 -0.701690
v -4.757860 37.558712 5.185570
v -5.110450 36.430649 -6.420120
v -4.584190 38.514130 -5.667160
v -1.081550 37.701099 -5.258890
v -3.932280 59.320339 4.083250
v -3.967190 63.561012 5.485610
v -9.242390 63.261791 4.891370
v -3.633340 66.369301 5.445330
v -9.479691 67.692802 3.948130
v -1.726560 52.055962 4.985420
v -12.283890 67.314308 -3.134350
v -5.917190 70.565140 -4.606530
v -11.405230 68.601120 1.295220
v -2.594060 70.935684 2.381530
v -5.747310 72.119972 -1.357720
v -2.221480 76.402824 -1.589240
v -2.368140 73.918190 -4.139170
v -3.837170 47.357460 5.209040
v -7.886210 47.121349 0.548850
v -5.424590 46.666687 -5.099760
v -10.842449 65.612686 3.663850
v -10.746230 62.823280 -4.221940
v -13.035780 66.331299 1.671880
v -13.191740 64.495369 -1.526320
v -9.101750 63.318581 3.601620
v -4.153260 74.588211 5.526840
v -4.566530 76.080887 3.320360
v -3.178750 71.609299 3.097550
v -4.288690 70.661789 4.417660
v -3.769260 73.200890 5.718800
v -2.895710 76.377136 6.131660
v -4.375460 76.564400 5.102330
v -3.839710 77.320869 0.598070
v -3.344760 80.400658 5.854460
v -4.633410 77.862335 5.609580
v -4.583840 79.697830 4.409570
v -2.700660 81.651260 3.092820
v -3.566080 74.581818 6.398480
v -4.019800 70.224121 6.338060
v -3.590610 79.650261 0.640510
v -2.845150 80.847061 0.322250
v -12.139130 63.107941 3.690820
v -13.993610 62.669910 0.437750
v -8.501690 58.405689 4.321220
v -8.162850 56.927380 -0.017110
v -11.417331 60.621330 -3.205960
v -11.765450 48.911762 5.808249
v -9.847880 52.586590 1.940360
v -9.953600 51.043938 4.299700
v -13.230341 51.779461 1.186200
v -14.107019 54.133812 2.966130
v -12.449720 51.197720 7.470720
v -13.076290 54.081276 4.903220
v -10.604000 53.594780 7.703800
v -8.136209 53.637390 6.264350
v -10.778570 52.472271 5.270430
v -12.664610 54.516659 0.051070
v -12.965919 53.346401 0.529610
v -14.434330 59.161648 1.430910
v -12.619751 59.625229 4.424930
v -10.071420 55.056236 4.273310
v -12.528800 56.724239 -1.732950
v -7.512680 46.541489 11.307270
v -6.031390 47.663521 10.788899
v -8.365240 47.813766 12.270519
v -7.318040 49.431950 12.452240
v -5.905050 49.572121 11.670680
v -2.210320 48.496891 15.208080
v -2.187680 49.533890 15.337620
v -3.366800 48.280903 14.727779
v -4.137180 49.225811 14.813009
v -4.763690 48.339993 16.120489
v -3.398180 49.708599 14.308330
v -2.904540 49.352909 12.988041
v -1.444140 49.279510 14.567190
v -1.223860 48.933701 16.274120
v -0.747740 48.724419 15.610820
v -3.376160 47.353558 17.565361
v -5.391290 43.527962 15.913939
v -6.153270 44.185772 14.289580
v -4.024470 43.095787 18.398840
v -2.708380 47.621288 16.583269
v -5.614820 43.870560 16.210999
v -6.760440 44.738560 14.895940
v -1.471470 46.307720 19.132080
v -6.804950 18.469910 -6.520740
v -3.205170 25.147350 0.044630
v -4.410310 17.106319 -1.940390
v -11.663409 18.589220 -3.241090
v -9.068960 25.947781 -1.218720
v -5.514300 26.570330 -3.769510
v -7.260070 22.671162 1.757910
v -8.349000 17.102270 1.121470
v -7.116690 24.619690 2.739810
v -6.510250 27.351740 2.590380
v -10.015260 29.782619 -1.031730
v -5.926160 32.015709 4.602970
v -12.458130 5.003881 -4.563430
v -11.178440 7.757320 -4.098580
v -9.316390 5.507670 -6.643350
v -10.281720 5.813900 -1.607640
v -7.617550 3.945450 -3.741930
v -7.667360 7.039470 -3.468870
v -8.624500 0.395700 -6.846320
v -11.640659 1.055120 -7.355250
v -9.289130 0.534190 1.592110
v -15.259151 1.851320 0.587620
v -12.128839 3.272410 4.589510
v -14.822520 1.811020 4.738600
v -11.034150 0.994170 6.022910

vt 0.550479 0.485338
vt 0.414517 0.485338
vt 0.489174 0.497239
vt 0.490853 0.675485
vt 0.356970 0.710738
vt 0.458986 0.602657
vt 0.458693 0.603155
vt 0.491001 0.506534
vt 0.357039 0.710738
vt 0.272881 0.708251
vt 0.307767 0.663467
vt 0.329118 0.504113
vt 0.420682 0.504388
vt 0.307693 0.663467
vt 0.420389 0.504181
vt 0.390374 0.619683
vt 0.389206 0.622726
vt 0.390855 0.620128
vt 0.309151 0.663075
vt 0.578845 0.971377
vt 0.529882 0.993867
vt 0.501054 0.950636
vt 0.597833 0.993868
vt 0.684209 0.993870
vt 0.691613 0.940228
vt 0.584242 0.936155
vt 0.602549 0.993867
vt 0.689094 0.993870
vt 0.694409 0.971380
vt 0.730001 0.975635
vt 0.490853 0.781888
vt 0.490853 0.820915
vt 0.240556 0.660920
vt 0.133663 0.660928
vt 0.131880 0.753091
vt 0.060606 0.782384
vt 0.055577 0.663688
vt 0.136145 0.808744
vt 0.060014 0.783494
vt 0.058190 0.859642
vt 0.160773 0.512959
vt 0.067037 0.515196
vt 0.240700 0.512959
vt 0.131877 0.752996
vt 0.240556 0.781375
vt 0.390182 0.870896
vt 0.298691 0.847983
vt 0.294173 0.886121
vt 0.181129 0.899551
vt 0.052544 0.886601
vt 0.145152 0.921474
vt 0.235241 0.891030
vt 0.142740 0.921054
vt 0.172936 0.966074
vt 0.456563 0.999059
vt 0.389917 0.922986
vt 0.429989 0.941889
vt 0.491140 0.942697
vt 0.490646 0.999330
vt 0.490853 0.898039
vt 0.701416 0.118225
vt 0.813217 0.120956
vt 0.790107 0.184348
vt 0.877923 0.002315
vt 0.872775 0.120438
vt 0.505869 0.118716
vt 0.564263 0.119120
vt 0.507564 0.183764
vt 0.697589 0.180917
vt 0.580429 0.182675
vt 0.710756 0.001536
vt 0.701372 0.182427
vt 0.812168 0.002315
vt 0.857243 0.184348
vt 0.697567 0.116528
vt 0.503935 0.000692
vt 0.561277 0.000692
vt 0.688827 -0.000098
vt 0.002866 0.854679
vt 0.027518 0.706813
vt 0.061197 0.782654
vt 0.055608 0.663958
vt 0.251604 0.781884
vt 0.357109 0.710738
vt 0.243886 0.876138
vt 0.247300 0.848527
vt -0.000514 0.880403
vt 0.006948 0.782948
vt 0.674684 0.829607
vt 0.705811 0.784366
vt 0.654033 0.662928
vt 0.703232 0.671848
vt 0.720473 0.730776
vt 0.697736 0.853617
vt 0.729837 0.853035
vt 0.623758 0.856571
vt 0.587609 0.811448
vt 0.658187 0.605708
vt 0.748523 0.593788
vt 0.716351 0.931575
vt 0.747491 0.935506
vt 0.695349 0.885675
vt 0.676247 0.904603
vt 0.649719 0.961956
vt 0.745560 1.001324
vt 0.725611 0.781438
vt 0.747491 0.878462
vt 0.747491 0.808438
vt 0.720379 0.731031
vt 0.747491 0.790807
vt 0.720762 0.730332
vt 0.748639 0.732530
vt 0.746944 0.628012
vt 0.703659 0.671442
vt 0.731857 0.666086
vt 0.747085 0.666819
vt 0.703186 0.671176
vt 0.611291 0.885598
vt 0.604148 0.909350
vt 0.550618 0.823662
vt 0.550618 0.934468
vt 0.625864 0.557513
vt 0.571978 0.557920
vt 0.578607 0.510287
vt 0.669444 0.510287
vt 0.756032 0.560223
vt 0.679695 0.557918
vt 0.877240 0.461159
vt 0.992418 0.461159
vt 0.944262 0.560223
vt 0.756457 0.510287
vt 0.806202 0.560223
vt 0.498275 0.560223
vt 0.875566 0.382888
vt 0.758260 0.308662
vt 0.875912 0.308662
vt 0.759996 0.360654
vt 0.669163 0.382888
vt 0.671223 0.308662
vt 0.584325 0.382888
vt 0.577057 0.308662
vt 0.498223 0.363687
vt 0.498247 0.308662
vt 0.992597 0.308662
vt 0.992439 0.363687
vt 0.759483 0.410364
vt 0.758924 0.382888
vt 0.665903 0.461159
vt 0.580075 0.461159
vt 0.498223 0.402657
vt 0.992438 0.402657
vt 0.760539 0.449273
vt 0.498220 0.461159
vt 0.875438 0.575163
vt 0.762705 0.196431
vt 0.858161 0.196355
vt 0.690657 0.196417
vt 0.588027 0.196417
vt 0.498144 0.196431
vt 0.991918 0.196431
vt 0.375723 0.009258
vt 0.380090 0.017573
vt 0.356438 0.030356
vt 0.342839 0.029458
vt 0.369327 0.043627
vt 0.316032 0.012201
vt 0.336848 0.019568
vt 0.249292 0.041099
vt 0.371147 0.002582
vt 0.416197 0.004791
vt 0.408124 0.000758
vt 0.128136 0.016613
vt 0.154876 0.002573
vt 0.119423 0.002194
vt 0.160447 0.001473
vt 0.065726 0.014292
vt 0.105093 0.028910
vt 0.000825 0.069213
vt 0.000703 0.039244
vt 0.249314 0.055441
vt 0.429228 0.045736
vt 0.102506 0.115410
vt 0.153549 0.117195
vt 0.189513 0.114692
vt 0.228429 0.109580
vt 0.194639 0.033982
vt 0.406548 0.108121
vt 0.355355 0.108206
vt 0.448349 0.035630
vt 0.498209 0.039288
vt 0.461840 0.047992
vt 0.483032 0.114221
vt 0.406174 0.120334
vt 0.355217 0.119080
vt 0.243215 0.037501
vt 0.249314 0.089732
vt 0.000703 0.095058
vt 0.249292 0.105039
vt 0.160984 0.032072
vt 0.413806 0.033644
vt 0.442212 0.108407
vt 0.443088 0.117732
vt 0.023914 0.327327
vt 0.104127 0.227894
vt 0.000784 0.227894
vt 0.216171 0.327327
vt 0.216985 0.228421
vt 0.105699 0.228145
vt 0.104981 0.327662
vt 0.217575 0.327327
vt 0.351490 0.301452
vt 0.217290 0.227894
vt 0.351571 0.227894
vt 0.352420 0.301452
vt 0.489174 0.227894
vt 0.352342 0.227894
vt 0.471690 0.333380
vt 0.351597 0.328057
vt 0.217345 0.328075
vt 0.352312 0.363299
vt 0.470864 0.334174
vt 0.352330 0.328057
vt 0.216660 0.380224
vt 0.216104 0.328075
vt 0.104983 0.328371
vt 0.217232 0.380224
vt 0.351611 0.363299
vt 0.351459 0.420971
vt 0.352499 0.420971
vt 0.351589 0.497239
vt 0.229465 0.497239
vt 0.352627 0.497239
vt 0.229583 0.497239
vt 0.133020 0.497239
vt 0.072972 0.497239
vt 0.025422 0.328212
vt 0.002386 0.497239
vt 0.216130 0.152222
vt 0.223982 0.125749
vt 0.105883 0.155747
vt 0.351732 0.147623
vt 0.223132 0.128232
vt 0.218721 0.149411
vt 0.469070 0.149411
vt 0.483427 0.127273
vt 0.352306 0.146326
vt 0.017963 0.152222
vt 0.104256 0.155747
vt 0.009616 0.131504
vt 0.104128 0.227914
vt 0.000790 0.227921
vt 0.216984 0.228396
vt 0.351571 0.227971
vt 0.217291 0.227882
vt 0.352342 0.227879
vt 0.489111 0.227891
vt 0.948232 0.041698
vt 0.989968 0.003451
vt 0.971575 0.059997
vt 0.909211 0.004273
vt 0.996004 0.120663
vt 0.925604 0.058708
vt 0.885225 0.122889
vt 0.516483 0.798440
vt 0.501430 0.685191
vt 0.597947 0.686709
vt 0.594444 0.793024
vt 0.950876 0.082499
vt 0.943924 0.157220
vt 0.507177 0.624822
vt 0.600053 0.622523
vt 0.901715 0.182549
vt 0.982420 0.184037
vt 0.730212 0.975635
vt 0.685579 0.991654
vt 0.692830 0.969164

vn -0.438215 -0.895002 -0.083302
vn -0.008722 -0.194852 -0.980794
vn -0.250998 -0.336576 -0.907588
vn 0.991878 0.061026 0.111600
vn 0.758193 -0.203222 -0.619551
vn -0.108222 -0.426572 -0.897955
vn 0.106027 -0.360262 -0.926806
vn 0.886053 -0.310116 -0.344586
vn 0.079278 -0.243639 -0.966620
vn 0.862698 -0.395096 -0.315677
vn -0.446588 -0.853830 -0.267458
vn -0.313734 -0.908229 -0.276931
vn -0.218115 -0.713036 -0.666337
vn -0.143001 -0.827404 0.543096
vn -0.473583 -0.500935 0.724419
vn 0.389932 -0.285464 0.875479
vn 0.390019 -0.285246 0.875511
vn 0.952629 -0.304113 -0.003613
vn -0.171864 -0.053705 -0.983656
vn 0.570788 -0.246696 0.783161
vn 0.818353 -0.468851 0.332382
vn 0.799065 0.067315 0.597464
vn 0.585868 0.067578 0.807584
vn 0.917272 -0.106059 0.383880
vn 0.379230 -0.056920 0.923550
vn 0.458934 -0.024621 0.888129
vn -0.074800 0.463359 -0.883008
vn -0.172002 0.034801 -0.984482
vn 0.758946 -0.263364 0.595516
vn 0.296793 0.782200 -0.547793
vn 0.496690 0.069806 0.865116
vn -0.023087 0.497592 -0.867104
vn 0.804037 0.078265 0.589405
vn 0.625445 0.545982 0.557424
vn 0.617411 0.773335 0.144073
vn 0.407810 0.546323 0.731589
vn 0.244360 0.195005 0.949874
vn 0.863704 0.218341 0.454249
vn 0.743964 0.601630 -0.290790
vn 0.656892 0.496041 -0.567835
vn 0.205563 0.833332 -0.513128
vn 0.590750 0.687212 0.422794
vn 0.315468 0.878297 -0.359268
vn 0.740908 0.527906 -0.415175
vn 0.102099 0.727574 -0.678390
vn 0.270111 0.548454 -0.791353
vn -0.005977 0.477036 -0.878864
vn 0.124148 0.228617 0.965568
vn 0.860555 0.087662 0.501758
vn 0.822788 0.112643 -0.557074
vn -0.110219 -0.024849 -0.993597
vn 0.125394 0.162273 0.978746
vn 0.376452 0.004565 0.926425
vn 0.915607 0.308118 0.258316
vn 0.805456 0.386926 0.448919
vn 0.894721 0.247591 0.371718
vn 0.746396 0.193493 -0.636753
vn 0.099779 0.200852 -0.974527
vn 0.775511 0.312316 -0.548673
vn 0.566792 0.072886 -0.820631
vn 0.102960 0.123786 -0.986953
vn -0.310963 -0.077863 -0.947227
vn 0.389618 0.118314 0.913345
vn 0.556924 0.814717 0.161469
vn 0.902720 -0.093304 -0.419990
vn 0.272631 -0.262785 -0.925536
vn 0.126391 0.504513 0.854103
vn 0.769547 0.448575 -0.454508
vn 0.767056 0.638209 0.065682
vn 0.349854 -0.269293 -0.897264
vn 0.677626 0.492486 -0.546151
vn -0.896226 -0.343139 -0.281130
vn 0.886799 0.123316 -0.445400
vn -0.693393 -0.130442 -0.708655
vn 0.652026 -0.114631 0.749481
vn 0.219987 -0.180904 0.958582
vn -0.093535 0.094760 0.991096
vn 0.873238 0.076693 0.481221
vn 0.998196 0.052828 0.028534
vn 0.991380 0.042457 0.123949
vn 0.377385 -0.808354 0.451823
vn -0.033063 0.200736 0.979087
vn 0.784873 -0.068525 0.615857
vn 0.893675 -0.012515 0.448540
vn -0.114014 0.915835 0.385028
vn 0.280335 0.321936 0.904306
vn 0.523669 0.313818 0.792016
vn 0.542000 0.317248 0.778197
vn 0.261575 -0.195495 0.945177
vn 0.076064 -0.264929 0.961263
vn -0.006518 0.923980 0.382385
vn -0.258315 0.003001 0.966056
vn 0.046642 -0.683349 0.728601
vn 0.314715 0.014152 0.949081
vn 0.459929 -0.871229 0.171535
vn 0.675929 -0.070558 0.733581
vn -0.031345 -0.999485 -0.006849
vn 0.303015 0.133666 0.943565
vn 0.651462 0.049083 0.757092
vn 0.373954 -0.912193 0.167520
vn 0.097500 0.037769 0.994519
vn 0.999045 0.021375 0.038110
vn 0.980975 0.154200 -0.117945
vn 0.597712 -0.320119 0.735026
vn -0.071199 -0.416051 0.906550
vn 0.665948 -0.151863 0.730378
vn -0.184041 -0.286045 0.940376
vn 0.423321 0.700330 0.574749
vn 0.905031 0.030269 0.424266
vn 0.832905 0.399905 0.382549
vn 0.718781 0.573409 0.393136
vn 0.303518 0.306338 0.902238
vn 0.675690 0.364564 -0.640731
vn 0.595515 0.435700 -0.674927
vn 0.221316 0.968976 -0.110024
vn 0.139007 0.948285 -0.285364
vn 0.965934 -0.031812 0.256827
vn 0.670597 0.740604 -0.042489
vn 0.534827 -0.426472 -0.729439
vn 0.837169 0.303534 -0.454989
vn -0.792450 -0.024494 0.609444
vn 0.929023 0.333650 -0.159980
vn 0.533913 -0.436689 -0.724045
vn -0.750404 -0.630148 -0.199517
vn 0.352927 0.657161 0.666019
vn -0.905171 0.028364 0.424100
vn -0.352532 -0.931894 0.085411
vn 0.920142 -0.352434 0.170672
vn -0.236118 -0.902423 -0.360389
vn 0.944681 0.322825 -0.057974
vn 0.454975 -0.503434 -0.734542
vn 0.070128 0.015849 -0.997412
vn -0.014774 0.885983 0.463482
vn -0.453764 0.691009 -0.562677
vn -0.125591 0.873690 -0.469993
vn -0.457262 -0.822263 -0.338815
vn -0.530595 -0.766705 -0.361430
vn 0.616249 -0.169957 -0.768994
vn 0.631857 -0.428666 -0.645757
vn 0.950286 0.307374 -0.049780
vn 0.950288 0.307476 -0.049116
vn 0.359926 0.662413 0.657010
vn -0.671559 -0.166424 0.722019
vn -0.754000 -0.606238 -0.252904
vn -0.450215 -0.879934 -0.151733
vn 0.717607 -0.414903 -0.559370
vn 0.506632 -0.403228 -0.762057
vn 0.899445 0.388296 -0.200560
vn 0.918821 0.380223 -0.105822
vn 0.356223 0.644478 0.676575
vn 0.271042 0.690394 0.670740
vn -0.921414 -0.034582 0.387039
vn 0.682187 -0.288342 -0.671922
vn -0.519375 -0.779163 -0.350935
vn -0.724704 -0.029888 0.688412
vn 0.379794 0.575748 0.724066
vn -0.681054 -0.067789 0.729089
vn 0.337934 0.592182 0.731520
vn 0.509920 -0.235987 -0.827219
vn -0.539064 -0.796950 -0.272543
vn -0.927218 0.104875 0.359539
vn -0.926384 -0.002496 0.376571
vn -0.182120 -0.806764 0.562107
vn 0.081232 -0.898552 0.431284
vn 0.897396 -0.428799 0.103977
vn 0.825870 -0.550967 0.119891
vn 0.907076 0.354144 -0.227586
vn 0.707959 0.595596 -0.379553
vn -0.440126 0.881390 -0.171586
vn -0.360187 0.898865 -0.249613
vn 0.670722 -0.348168 0.654913
vn 0.727098 0.676131 0.119058
vn 0.516352 0.258884 -0.816308
vn 0.510640 0.418911 -0.750839
vn 0.527496 0.388995 -0.755269
vn 0.608266 0.592852 -0.527768
vn 0.556537 0.668044 -0.493947
vn 0.837776 -0.527640 0.140451
vn 0.568806 -0.728871 0.381060
vn -0.958611 0.068114 0.276452
vn -0.375828 -0.206030 0.903496
vn -0.900865 0.175506 0.397040
vn -0.903370 0.070183 0.423081
vn -0.717480 0.479716 0.505069
vn -0.478370 0.466486 -0.744011
vn 0.649850 0.104875 -0.752792
vn 0.808930 0.422359 -0.408957
vn -0.735545 0.676891 -0.028145
vn -0.708309 0.705760 -0.014184
vn 0.726794 -0.637554 0.255530
vn 0.709460 -0.667316 0.226619
vn 0.817147 0.424132 -0.390362
vn 0.760039 -0.525566 0.382259
vn -0.338763 -0.830922 0.441370
vn -0.424700 -0.748433 0.509390
vn -0.718936 0.694693 -0.023085
vn 0.784982 -0.619115 -0.022355
vn -0.665489 0.734426 0.133205
vn -0.998529 -0.016350 0.051702
vn -0.294437 -0.933738 0.203570
vn 0.808094 0.436811 0.395196
vn 0.700837 -0.692725 0.170175
vn -0.487106 -0.834364 0.257999
vn 0.901576 -0.108365 -0.418829
vn 0.906072 -0.119408 -0.405925
vn -0.696066 0.717713 0.019508
vn 0.816767 0.401483 -0.414371
vn 0.727584 -0.595504 0.340582
vn -0.279496 -0.752232 0.596682
vn -0.908103 -0.026766 -0.417890
vn 0.524338 0.446269 -0.725199
vn 0.544172 0.433198 -0.718482
vn 0.826613 0.118155 0.550227
vn 0.812636 0.059045 0.579772
vn -0.581067 -0.238519 0.778119
vn -0.506366 -0.300910 0.808113
vn 0.916483 -0.078694 0.392258
vn -0.541031 0.145701 0.828286
vn 0.560849 -0.252188 -0.788575
vn 0.882280 -0.100176 0.459942
vn 0.890024 -0.170191 0.422956
vn -0.246961 -0.457495 0.854230
vn 0.905526 0.043722 0.422033
vn -0.531905 -0.385753 0.753838
vn -0.882545 0.050211 -0.467540
vn 0.899896 0.125979 0.417511
vn -0.427641 -0.242197 0.870898
vn 0.927318 0.077434 0.366176
vn 0.556221 0.178527 -0.811632
vn 0.400049 0.014583 -0.916378
vn -0.319501 -0.132045 -0.938341
vn -0.771950 -0.372733 -0.514940
vn -0.464767 -0.312942 0.828287
vn -0.958184 -0.283337 -0.040051
vn 0.516037 0.494495 -0.699414
vn 0.818952 0.223302 0.528635
vn -0.581802 -0.177711 0.793678
vn -0.888494 0.113384 -0.444661
vn 0.704926 0.242940 -0.666378
vn -0.914108 -0.129138 -0.384356
vn -0.881758 -0.134542 -0.452108
vn 0.559407 0.171339 -0.810991
vn 0.842901 -0.159214 0.513973
vn 0.939402 0.011804 0.342615
vn -0.633510 -0.401716 0.661278
vn -0.539786 -0.445692 0.714136
vn -0.901100 0.190533 -0.389508
vn -0.215905 0.240011 -0.946456
vn -0.922581 -0.382836 0.047750
vn 0.878548 0.217544 -0.425239
vn 0.239695 -0.952954 -0.185538
vn 0.234018 -0.954061 -0.187093
vn 0.546622 0.777214 0.311677
vn 0.509065 0.548319 -0.663475
vn -0.713791 0.325397 0.620176
vn 0.553725 0.780000 0.291527
vn -0.810112 0.294260 0.507079
vn 0.239908 -0.953490 -0.182487
vn 0.240395 -0.953440 -0.182104
vn 0.451893 0.867054 0.209787
vn 0.220079 0.287656 0.932105
vn -0.798422 0.460892 0.387429
vn 0.245836 -0.918159 -0.310722
vn -0.361008 -0.053214 -0.931043
vn 0.182852 -0.361140 -0.914409
vn -0.434887 0.326992 0.839017
vn -0.948063 -0.272238 -0.164507
vn -0.367166 -0.524977 -0.767846
vn -0.346992 -0.537891 -0.768290
vn -0.911618 -0.401629 -0.087441
vn -0.306507 -0.002951 -0.951864
vn -0.947196 -0.301992 -0.107795
vn 0.430165 -0.802332 -0.413789
vn 0.332711 -0.851973 -0.404284
vn 0.054164 -0.520743 -0.851993
vn 0.265232 -0.839817 0.473665
vn 0.700482 -0.392372 0.596128
vn -0.201397 -0.231303 0.951808
vn -0.177793 -0.294437 0.938987
vn -0.930476 -0.306705 0.200368
vn -0.321033 -0.066241 -0.944749
vn -0.186022 -0.309872 0.932403
vn -0.434481 -0.701245 0.565227
vn -0.202048 0.193551 0.960060
vn -0.201520 0.060225 0.977631
vn -0.625983 -0.093926 0.774160
vn 0.144860 -0.080032 0.986210
vn 0.078751 0.017189 0.996746
vn -0.428864 0.498857 -0.753138
vn -0.320348 0.027510 -0.946900
vn -0.088729 -0.313392 0.945469
vn -0.477602 0.864541 -0.156415
vn 0.084807 0.004210 0.996388
vn -0.371238 0.446149 -0.814330
vn -0.113450 0.027732 0.993157
vn -0.081163 0.567991 0.819023
vn -0.283995 0.824997 0.488597
vn 0.077222 0.471467 0.878496
vn -0.042000 0.563240 0.825225
vn -0.573250 0.506732 0.643900
vn -0.687350 0.539573 -0.486221
vn -0.151338 0.674123 -0.722949
vn -0.081012 0.716189 -0.693188
vn -0.275979 0.824571 0.493881
vn -0.603773 0.730886 -0.318220
vn -0.631767 0.711555 -0.307506
vn -0.367520 0.498440 -0.785167
vn -0.084246 0.678662 -0.729603
vn -0.365238 0.454613 -0.812360
vn 0.055122 0.022749 0.998220
vn -0.753178 0.107648 0.648949
vn -0.834763 0.383919 -0.394686
vn -0.417198 0.287433 -0.862164
vn 0.043371 0.139595 0.989258
vn 0.139339 0.070384 0.987740
vn -0.838455 0.282150 0.466244
vn -0.749632 0.154899 0.643474
vn -0.597432 0.303696 0.742188
vn -0.981876 0.089802 -0.166898
vn -0.288066 0.172761 -0.941898
vn -0.870721 0.282945 -0.402228
vn -0.732223 0.064979 -0.677958
vn -0.290374 0.113648 -0.950141
vn 0.129764 -0.076068 -0.988623
vn -0.054784 0.069667 0.996065
vn -0.689097 0.365975 0.625466
vn -0.914776 0.075016 -0.396934
vn -0.759099 -0.104294 -0.642566
vn -0.436282 0.164935 0.884565
vn -0.803182 0.532728 -0.266646
vn -0.499251 0.478509 0.722341
vn -0.769364 -0.111074 -0.629080
vn -0.933534 0.348526 0.083929
vn 0.496432 -0.242090 -0.833635
vn -0.323510 -0.943103 -0.076804
vn -0.793018 -0.598658 -0.112833
vn -0.955146 -0.295393 -0.020933
vn -0.796184 -0.138897 0.588896
vn -0.557561 0.113945 0.822279
vn -0.896653 -0.260443 -0.358028
vn -0.823080 -0.295957 -0.484716
vn -0.856356 -0.286971 -0.429305
vn -0.355125 -0.807992 0.470144
vn -0.588298 0.223699 0.777087
vn -0.999433 0.005238 -0.033275
vn -0.971080 0.064573 -0.229857
vn -0.093199 0.914973 0.392605
vn -0.770781 0.365380 0.521913
vn -0.885127 0.372051 0.279515
vn -0.890011 0.376444 0.257235
vn -0.820399 -0.150767 0.551557
vn -0.694133 -0.233086 0.681065
vn -0.173000 0.930862 0.321818
vn -0.422349 0.009782 0.906381
vn -0.552900 -0.658561 0.510489
vn -0.848196 0.062224 0.526015
vn -0.283857 -0.649832 -0.705084
vn -0.813392 0.183953 -0.551865
vn -0.041534 -0.999030 -0.014606
vn -0.827011 0.180376 0.532464
vn -0.979604 0.116507 0.163712
vn -0.176363 -0.964780 -0.195182
vn -0.709774 0.071141 0.700828
vn -0.780865 0.094752 -0.617472
vn -0.657649 0.217874 -0.721130
vn -0.951319 -0.256089 0.171493
vn -0.557611 -0.395949 0.729585
vn -0.988175 -0.083481 0.128611
vn -0.483657 -0.273638 0.831383
vn -0.640932 0.744325 0.187580
vn -0.961059 0.107410 -0.254615
vn -0.852273 0.469566 -0.230518
vn -0.759272 0.634510 -0.144580
vn -0.788290 0.351476 0.505038
vn -0.105126 0.380434 -0.918814
vn 0.009895 0.463506 -0.886039
vn -0.027756 0.979272 -0.200637
vn 0.146072 0.947995 -0.282786
vn -0.780767 0.004841 0.624803
vn -0.581817 0.309301 0.752212
vn -0.789528 -0.254195 -0.558596
vn -0.949921 0.288761 -0.119441
vn 0.991414 0.126137 0.034451
vn -0.870652 0.063343 0.487803
vn -0.820126 -0.013973 -0.572013
vn 0.448280 -0.483524 -0.751831
vn 0.029672 -0.004596 0.999549
vn 0.486745 -0.740960 -0.462664
vn 0.308787 -0.761272 -0.570188
vn -0.921765 -0.383984 0.053901
vn -0.927814 -0.356832 0.108772
vn -0.857542 0.225390 0.462408
vn -0.638622 0.429660 0.638400
vn -0.243831 0.887171 -0.391758
vn 0.570913 0.729168 -0.377323
vn 0.049523 0.580820 -0.812524
vn 0.902022 0.341687 0.263829
vn 0.241722 -0.475316 -0.845958
vn 0.285232 -0.424772 -0.859192
vn -0.897766 0.052311 -0.437356
vn -0.868511 -0.195606 -0.455441
vn -0.857728 0.098247 0.504628
vn -0.875921 0.112605 0.469130
vn 0.086832 0.337878 0.937176
vn 0.883899 -0.417263 0.211220
vn 0.417408 -0.354544 -0.836701
vn 0.314685 -0.608250 -0.728702
vn -0.902040 -0.236383 -0.361175
vn -0.829244 -0.053323 -0.556337
vn -0.857381 0.237037 0.456850
vn -0.849156 0.218533 0.480809
vn 0.018837 0.147151 0.988935
vn 0.082269 0.194674 0.977412
vn 0.879487 -0.130019 0.457819
vn -0.908097 -0.021993 -0.418181
vn 0.290733 -0.411097 -0.863987
vn 0.952097 -0.159997 0.260601
vn 0.183012 0.069532 0.980649
vn 0.923641 -0.215675 0.316815
vn 0.018389 -0.022913 0.999568
vn -0.842967 0.037576 -0.536651
vn 0.349218 -0.416809 -0.839236
vn 0.346428 -0.729701 -0.589512
vn 0.359718 -0.722986 -0.589826
vn -0.701922 -0.664494 0.256424
vn -0.803897 -0.487954 0.340075
vn -0.566580 0.364401 0.739053
vn -0.622194 0.322544 0.713330
vn 0.224399 0.804472 0.549973
vn 0.278240 0.819336 0.501269
vn 0.839329 -0.207541 -0.502447
vn 0.878859 0.150916 -0.452583
vn -0.364114 -0.107611 0.925117
vn 0.635715 0.462546 0.617995
vn 0.158870 0.966621 -0.201009
vn 0.193695 0.971873 -0.133956
vn 0.269285 0.950445 -0.155368
vn 0.434372 0.892064 0.124671
vn 0.518998 0.848316 0.104887
vn -0.615650 0.209643 0.759622
vn -0.717476 -0.070896 0.692966
vn 0.280230 -0.757352 -0.589821
vn 0.053940 -0.940509 0.335459
vn 0.435376 -0.785865 -0.439163
vn 0.334652 -0.839384 -0.428302
vn 0.606166 -0.738906 -0.294246
vn 0.396669 0.363229 -0.843041
vn -0.083455 0.996124 0.027774
vn 0.331147 0.896576 0.294098
vn 0.730435 -0.441229 -0.521326
vn 0.762661 -0.419354 -0.492433
vn -0.664065 0.141329 0.734196
vn -0.695840 0.146749 0.703044
vn 0.188999 0.907211 0.375830
vn -0.534681 0.240024 0.810250
vn -0.781457 -0.612604 0.118497
vn -0.641954 -0.764808 0.054435
vn 0.704335 -0.431094 -0.563978
vn -0.699611 0.385167 0.601823
vn 0.762864 -0.471770 -0.442121
vn 0.284225 -0.685097 -0.670715
vn -0.854678 -0.513166 -0.078657
vn 0.420201 0.264282 0.868094
vn -0.730431 0.181055 0.658552
vn -0.749104 -0.641507 -0.165265
vn -0.266145 0.860823 0.433764
vn -0.275293 0.852001 0.445319
vn 0.783884 -0.442574 -0.435493
vn 0.075900 0.947713 0.309967
vn -0.744516 0.235640 0.624636
vn -0.688911 -0.676089 0.261351
vn 0.883963 -0.017139 -0.467244
vn -0.508532 0.390239 -0.767535
vn -0.586591 0.342692 -0.733807
vn -0.789391 0.112459 0.603502
vn -0.780009 0.081616 0.620423
vn 0.600744 -0.205755 0.772510
vn 0.512710 -0.277418 0.812507
vn -0.905870 -0.135556 0.401277
vn 0.572980 -0.082585 0.815398
vn -0.568395 -0.100440 -0.816602
vn -0.770555 -0.219327 0.598449
vn -0.763272 -0.173023 0.622478
vn 0.371599 -0.406676 0.834583
vn -0.845546 0.214433 0.488948
vn 0.554933 -0.406568 0.725777
vn 0.860699 0.035362 -0.507885
vn -0.785842 0.101514 0.610039
vn 0.628180 -0.211114 0.748880
vn -0.818576 0.056620 0.571601
vn -0.756703 0.130601 -0.640581
vn -0.562241 -0.086879 -0.822397
vn 0.076993 -0.162292 -0.983734
vn 0.728499 -0.367479 -0.578142
vn 0.638350 -0.233827 0.733372
vn 0.938286 -0.256661 -0.231827
vn -0.552000 0.381707 -0.741347
vn -0.807107 0.288112 0.515335
vn 0.597686 -0.060927 0.799412
vn 0.874559 0.056584 -0.481606
vn -0.731240 0.147977 -0.665877
vn 0.905689 -0.171812 -0.387568
vn 0.843514 -0.197048 -0.499656
vn -0.558348 0.040597 -0.828613
vn -0.806886 -0.082431 0.584928
vn -0.921572 0.065268 0.382681
vn 0.640679 -0.282317 0.714023
vn 0.584995 -0.303468 0.752122
vn 0.885257 0.137458 -0.444325
vn 0.179483 0.063272 -0.981724
vn 0.938605 -0.335724 0.079436
vn -0.900082 0.111472 -0.421219
vn -0.215404 -0.976525 -0.000243
vn -0.213460 -0.976952 -0.000778
vn -0.558753 0.807228 0.190206
vn -0.549170 0.403669 -0.731754
vn 0.728913 0.449814 0.516094
vn -0.570556 0.805469 0.160268
vn 0.819259 0.401901 0.409011
vn -0.215011 -0.976523 0.013135
vn -0.217901 -0.975848 0.015488
vn -0.473558 0.878828 0.058345
vn -0.197301 0.452398 0.869718
vn 0.797679 0.545323 0.257546
vn -0.109645 -0.990055 -0.088143

f 1/1/1 2/2/1 3/3/1
f 4/4/2 5/5/2 6/6/2
f 4/4/3 6/7/3 7/8/3
f 5/9/4 8/10/4 9/11/4
f 10/12/5 11/13/5 9/14/5
f 6/6/6 11/15/6 7/8/6
f 6/6/7 12/16/7 11/13/7
f 12/17/8 5/5/8 9/14/8
f 6/6/9 5/5/9 12/17/9
f 11/13/10 12/18/10 9/19/10
f 13/20/11 14/21/11 15/22/11
f 14/21/12 13/20/12 16/23/12
f 16/24/13 13/20/13 17/25/13
f 15/22/14 14/21/14 18/26/14
f 14/21/15 19/27/15 18/26/15
f 18/26/16 20/28/16 21/29/16
f 18/26/17 19/27/17 20/28/17
f 20/28/18 3/30/18 21/29/18
f 5/9/19 22/31/19 23/32/19
f 24/33/20 25/34/20 26/35/20
f 27/36/21 25/34/21 9/37/21
f 28/38/22 27/39/22 29/40/22
f 30/41/23 25/34/23 24/33/23
f 25/34/24 30/41/24 10/42/24
f 30/41/25 24/33/25 31/43/25
f 24/33/26 26/44/26 32/45/26
f 33/46/27 34/47/27 5/9/27
f 4/4/28 22/31/28 5/9/28
f 26/35/29 25/34/29 27/39/29
f 33/46/30 35/48/30 34/47/30
f 32/45/31 26/35/31 28/38/31
f 23/32/32 33/46/32 5/9/32
f 26/35/33 27/39/33 28/38/33
f 28/38/34 29/40/34 36/49/34
f 35/50/35 37/51/35 29/40/35
f 28/38/36 38/52/36 32/45/36
f 36/49/37 38/52/37 28/38/37
f 36/49/38 37/53/38 39/54/38
f 39/55/39 37/56/39 40/57/39
f 41/58/40 42/59/40 39/55/40
f 39/55/41 40/57/41 41/58/41
f 36/49/42 29/40/42 37/51/42
f 37/56/43 35/48/43 33/46/43
f 37/56/44 33/46/44 40/57/44
f 40/57/45 33/46/45 43/60/45
f 40/57/46 43/60/46 41/58/46
f 33/46/47 23/32/47 43/60/47
f 44/61/48 45/62/48 30/63/48
f 15/64/49 46/65/49 45/62/49
f 46/66/50 47/67/50 10/68/50
f 47/67/51 7/69/51 11/70/51
f 45/62/52 44/61/52 17/71/52
f 44/61/53 30/63/53 31/72/53
f 13/73/54 15/64/54 45/62/54
f 46/65/55 10/74/55 45/62/55
f 45/62/56 10/74/56 30/63/56
f 47/67/57 11/70/57 10/68/57
f 47/67/58 48/75/58 7/69/58
f 46/66/59 15/76/59 47/67/59
f 18/77/60 47/67/60 15/76/60
f 47/67/61 18/77/61 48/75/61
f 18/77/62 21/78/62 48/75/62
f 13/73/63 45/62/63 17/71/63
f 49/79/64 35/50/64 29/40/64
f 8/80/65 27/81/65 9/82/65
f 34/47/66 50/83/66 5/84/66
f 27/36/67 49/79/67 29/40/67
f 35/48/68 51/85/68 52/86/68
f 35/50/69 49/79/69 51/87/69
f 52/86/70 50/83/70 34/47/70
f 35/48/71 52/86/71 34/47/71
f 5/84/72 50/83/72 8/10/72
f 53/88/73 27/81/73 8/80/73
f 53/88/74 49/79/74 27/36/74
f 54/89/75 55/90/75 56/91/75
f 57/92/76 55/90/76 58/93/76
f 59/94/77 60/95/77 55/90/77
f 61/96/78 54/89/78 56/91/78
f 39/97/79 61/96/79 36/98/79
f 36/98/80 61/96/80 56/91/80
f 36/98/81 56/91/81 38/99/81
f 62/100/82 63/101/82 64/102/82
f 65/103/83 64/102/83 54/89/83
f 61/96/84 65/103/84 54/89/84
f 66/104/85 67/105/85 62/100/85
f 55/90/86 60/95/86 68/106/86
f 69/107/87 68/106/87 60/95/87
f 69/107/88 70/108/88 68/106/88
f 58/109/89 55/90/89 68/106/89
f 68/106/90 71/110/90 58/111/90
f 62/100/91 67/105/91 63/101/91
f 64/102/92 63/101/92 69/107/92
f 70/108/93 71/110/93 68/106/93
f 58/111/94 71/110/94 72/112/94
f 56/91/95 57/92/95 38/113/95
f 55/90/96 57/114/96 56/91/96
f 73/115/97 74/116/97 38/113/97
f 58/109/98 72/112/98 73/115/98
f 57/117/99 58/111/99 73/115/99
f 57/92/100 73/115/100 38/113/100
f 73/115/101 72/112/101 74/116/101
f 39/97/102 75/118/102 61/96/102
f 75/118/103 39/97/103 76/119/103
f 64/102/104 59/94/104 54/89/104
f 64/102/105 60/95/105 59/94/105
f 54/89/106 59/94/106 55/90/106
f 64/102/107 69/107/107 60/95/107
f 65/103/108 66/104/108 62/100/108
f 65/103/109 61/96/109 75/118/109
f 75/118/110 76/119/110 65/103/110
f 66/104/111 65/103/111 76/119/111
f 62/100/112 64/102/112 65/103/112
f 39/97/113 42/120/113 76/119/113
f 77/121/114 76/119/114 42/120/114
f 67/105/115 76/119/115 77/121/115
f 66/104/116 76/119/116 67/105/116
f 9/82/117 25/34/117 10/42/117
f 51/122/118 49/123/118 78/124/118
f 79/125/119 50/126/119 52/127/119
f 52/127/120 51/122/120 79/125/120
f 80/128/121 81/129/121 53/130/121
f 51/122/122 78/124/122 79/125/122
f 82/131/123 50/126/123 79/125/123
f 50/126/124 82/131/124 8/132/124
f 53/133/125 78/124/125 49/123/125
f 83/134/126 84/135/126 85/136/126
f 84/135/127 83/134/127 86/137/127
f 86/137/128 87/138/128 84/135/128
f 88/139/129 84/135/129 87/138/129
f 87/138/130 89/140/130 88/139/130
f 90/141/131 88/139/131 89/140/131
f 91/142/132 92/143/132 90/141/132
f 90/141/133 89/140/133 91/142/133
f 85/136/134 92/144/134 91/145/134
f 91/145/135 83/134/135 85/136/135
f 80/128/136 93/146/136 83/134/136
f 94/147/137 83/134/137 93/146/137
f 93/146/138 87/138/138 94/147/138
f 87/138/139 93/146/139 95/148/139
f 95/148/140 96/149/140 87/138/140
f 89/140/141 87/138/141 96/149/141
f 97/150/142 91/142/142 89/140/142
f 97/151/143 81/129/143 80/128/143
f 8/132/144 82/131/144 80/128/144
f 93/146/145 80/128/145 98/152/145
f 98/152/146 95/148/146 93/146/146
f 95/148/147 82/131/147 79/125/147
f 79/125/148 78/124/148 95/148/148
f 96/149/149 95/148/149 78/124/149
f 78/124/150 53/133/150 81/153/150
f 81/153/151 96/149/151 78/124/151
f 80/128/152 53/130/152 8/154/152
f 94/147/153 87/138/153 86/137/153
f 86/137/154 83/134/154 94/147/154
f 97/151/155 83/134/155 91/145/155
f 89/140/156 96/149/156 97/150/156
f 80/128/157 83/134/157 97/151/157
f 81/153/158 97/150/158 96/149/158
f 82/131/159 95/148/159 98/152/159
f 98/152/160 80/128/160 82/131/160
f 85/136/161 99/155/161 100/156/161
f 99/155/162 85/136/162 84/135/162
f 84/135/163 101/157/163 99/155/163
f 101/157/164 84/135/164 88/139/164
f 88/139/165 90/141/165 101/157/165
f 102/158/166 101/157/166 90/141/166
f 90/141/167 103/159/167 102/158/167
f 103/159/168 90/141/168 92/143/168
f 92/144/169 85/136/169 103/160/169
f 100/156/170 103/160/170 85/136/170
f 104/161/171 105/162/171 106/163/171
f 107/164/172 106/163/172 108/165/172
f 109/166/173 110/167/173 103/168/173
f 109/166/174 111/169/174 104/161/174
f 104/161/175 110/167/175 109/166/175
f 104/161/176 111/169/176 112/170/176
f 113/171/177 112/170/177 111/169/177
f 106/163/178 110/167/178 104/161/178
f 104/161/179 112/170/179 105/162/179
f 105/172/180 113/173/180 111/174/180
f 113/173/181 105/172/181 112/175/181
f 105/172/182 111/174/182 109/176/182
f 109/176/183 106/177/183 105/172/183
f 109/176/184 100/178/184 106/177/184
f 103/179/185 100/178/185 109/176/185
f 102/180/186 103/168/186 110/167/186
f 106/163/187 114/181/187 108/165/187
f 115/182/188 116/183/188 106/177/188
f 116/184/189 117/185/189 118/186/189
f 108/165/190 114/181/190 119/187/190
f 119/187/191 120/188/191 108/165/191
f 118/189/192 121/190/192 114/191/192
f 114/191/193 121/190/193 117/192/193
f 116/193/194 115/194/194 119/187/194
f 120/188/195 119/187/195 115/194/195
f 121/195/196 118/186/196 117/185/196
f 108/165/197 101/196/197 102/180/197
f 115/182/198 106/177/198 100/178/198
f 100/178/199 99/197/199 115/182/199
f 120/188/200 99/198/200 101/196/200
f 106/163/201 107/164/201 110/167/201
f 108/165/202 120/188/202 101/196/202
f 120/188/203 115/194/203 99/198/203
f 107/164/204 102/180/204 110/167/204
f 102/180/205 107/164/205 108/165/205
f 118/199/206 106/177/206 116/183/206
f 114/181/207 106/163/207 118/200/207
f 114/191/208 117/192/208 119/201/208
f 117/192/209 116/202/209 119/201/209
f 122/203/210 123/204/210 124/205/210
f 125/206/211 126/207/211 123/208/211
f 125/206/212 123/208/212 127/209/212
f 125/210/213 128/211/213 126/212/213
f 128/211/214 129/213/214 126/212/214
f 128/214/215 124/215/215 129/216/215
f 122/217/216 124/215/216 128/214/216
f 130/218/217 128/211/217 125/219/217
f 131/220/218 122/221/218 130/222/218
f 132/223/219 125/224/219 127/225/219
f 132/226/220 131/227/220 125/219/220
f 133/228/221 131/227/221 132/226/221
f 133/229/222 122/221/222 131/220/222
f 130/218/223 125/219/223 131/227/223
f 128/214/224 130/222/224 122/221/224
f 127/209/225 123/204/225 122/203/225
f 16/230/226 133/228/226 14/231/226
f 16/232/227 3/3/227 133/229/227
f 14/231/228 133/228/228 132/226/228
f 14/233/229 132/223/229 19/234/229
f 132/223/230 127/225/230 19/234/230
f 20/235/231 19/234/231 127/225/231
f 20/235/232 127/225/232 122/236/232
f 3/3/233 122/221/233 133/229/233
f 3/237/234 20/235/234 122/236/234
f 134/238/235 135/239/235 136/240/235
f 137/241/236 135/242/236 134/243/236
f 138/244/237 139/245/237 137/246/237
f 138/247/238 136/248/238 139/249/238
f 134/238/239 136/240/239 123/208/239
f 138/247/240 123/250/240 136/248/240
f 123/250/241 138/247/241 124/251/241
f 134/238/242 123/208/242 126/252/242
f 129/253/243 134/243/243 126/254/243
f 137/241/244 134/243/244 129/253/244
f 138/244/245 137/246/245 129/255/245
f 138/244/246 129/255/246 124/256/246
f 136/257/247 140/258/247 139/259/247
f 136/257/248 141/260/248 140/258/248
f 142/261/249 139/259/249 140/258/249
f 135/262/250 143/263/250 141/260/250
f 141/264/251 143/265/251 142/266/251
f 142/266/252 140/267/252 141/264/252
f 137/268/253 143/263/253 135/262/253
f 135/262/254 141/260/254 136/257/254
f 139/259/255 142/261/255 137/268/255
f 137/268/256 144/269/256 143/263/256
f 137/268/257 142/261/257 144/269/257
f 143/265/258 145/270/258 146/271/258
f 146/271/259 142/266/259 143/265/259
f 143/263/260 144/269/260 145/272/260
f 144/269/261 146/273/261 145/272/261
f 146/273/262 144/269/262 142/261/262
f 3/274/263 16/275/263 17/276/263
f 147/5/264 4/4/264 148/6/264
f 148/7/265 4/4/265 7/8/265
f 149/10/266 147/9/266 150/11/266
f 151/13/267 152/12/267 150/14/267
f 151/15/268 148/6/268 7/8/268
f 153/16/269 148/6/269 151/13/269
f 147/5/270 153/17/270 150/14/270
f 147/5/271 148/6/271 153/17/271
f 153/18/272 151/13/272 150/19/272
f 154/21/273 155/20/273 156/22/273
f 155/20/274 154/21/274 157/23/274
f 155/20/275 157/24/275 17/25/275
f 154/21/276 156/22/276 158/26/276
f 159/27/277 154/21/277 158/26/277
f 160/28/278 158/26/278 21/29/278
f 159/27/279 158/26/279 160/28/279
f 3/30/280 160/28/280 21/29/280
f 22/31/281 147/9/281 23/32/281
f 161/34/282 24/33/282 162/35/282
f 161/34/283 163/36/283 150/37/283
f 163/39/284 164/38/284 165/40/284
f 161/34/285 166/41/285 24/33/285
f 166/41/286 161/34/286 152/42/286
f 24/33/287 166/41/287 31/43/287
f 162/44/288 24/33/288 32/45/288
f 167/47/289 168/46/289 147/9/289
f 22/31/290 4/4/290 147/9/290
f 161/34/291 162/35/291 163/39/291
f 169/48/292 168/46/292 167/47/292
f 162/35/293 32/45/293 164/38/293
f 168/46/294 23/32/294 147/9/294
f 163/39/295 162/35/295 164/38/295
f 165/40/296 164/38/296 170/49/296
f 171/51/297 169/50/297 165/40/297
f 38/52/298 164/38/298 32/45/298
f 38/52/299 170/49/299 164/38/299
f 171/53/300 170/49/300 172/54/300
f 171/56/301 172/55/301 173/57/301
f 42/59/302 41/58/302 172/55/302
f 173/57/303 172/55/303 41/58/303
f 165/40/304 170/49/304 171/51/304
f 169/48/305 171/56/305 168/46/305
f 168/46/306 171/56/306 173/57/306
f 168/46/307 173/57/307 43/60/307
f 43/60/308 173/57/308 41/58/308
f 23/32/309 168/46/309 43/60/309
f 174/62/310 44/61/310 166/63/310
f 175/65/311 156/64/311 174/62/311
f 176/67/312 175/66/312 152/68/312
f 7/69/313 176/67/313 151/70/313
f 44/61/314 174/62/314 17/71/314
f 166/63/315 44/61/315 31/72/315
f 156/64/316 155/73/316 174/62/316
f 152/74/317 175/65/317 174/62/317
f 152/74/318 174/62/318 166/63/318
f 151/70/319 176/67/319 152/68/319
f 48/75/320 176/67/320 7/69/320
f 156/76/321 175/66/321 176/67/321
f 176/67/322 158/77/322 156/76/322
f 158/77/323 176/67/323 48/75/323
f 21/78/324 158/77/324 48/75/324
f 174/62/325 155/73/325 17/71/325
f 169/50/326 177/79/326 165/40/326
f 163/81/327 149/80/327 150/82/327
f 178/83/328 167/47/328 147/84/328
f 177/79/329 163/36/329 165/40/329
f 179/85/330 169/48/330 180/86/330
f 177/79/331 169/50/331 179/87/331
f 178/83/332 180/86/332 167/47/332
f 180/86/333 169/48/333 167/47/333
f 178/83/334 147/84/334 149/10/334
f 163/81/335 181/88/335 149/80/335
f 177/79/336 181/88/336 163/36/336
f 182/90/337 183/89/337 184/91/337
f 182/90/338 185/92/338 186/93/338
f 187/95/339 188/94/339 182/90/339
f 183/89/340 189/96/340 184/91/340
f 189/96/341 172/97/341 170/98/341
f 189/96/342 170/98/342 184/91/342
f 184/91/343 170/98/343 38/99/343
f 63/101/344 190/100/344 191/102/344
f 191/102/345 192/103/345 183/89/345
f 192/103/346 189/96/346 183/89/346
f 67/105/347 193/104/347 190/100/347
f 187/95/348 182/90/348 194/106/348
f 194/106/349 69/107/349 187/95/349
f 70/108/350 69/107/350 194/106/350
f 182/90/351 186/109/351 194/106/351
f 71/110/352 194/106/352 186/111/352
f 67/105/353 190/100/353 63/101/353
f 63/101/354 191/102/354 69/107/354
f 71/110/355 70/108/355 194/106/355
f 71/110/356 186/111/356 72/112/356
f 185/92/357 184/91/357 38/113/357
f 185/114/358 182/90/358 184/91/358
f 74/116/359 195/115/359 38/113/359
f 72/112/360 186/109/360 195/115/360
f 186/111/361 185/117/361 195/115/361
f 195/115/362 185/92/362 38/113/362
f 72/112/363 195/115/363 74/116/363
f 196/118/364 172/97/364 189/96/364
f 172/97/365 196/118/365 197/119/365
f 188/94/366 191/102/366 183/89/366
f 187/95/367 191/102/367 188/94/367
f 188/94/368 183/89/368 182/90/368
f 69/107/369 191/102/369 187/95/369
f 193/104/370 192/103/370 190/100/370
f 189/96/371 192/103/371 196/118/371
f 197/119/372 196/118/372 192/103/372
f 192/103/373 193/104/373 197/119/373
f 191/102/374 190/100/374 192/103/374
f 42/120/375 172/97/375 197/119/375
f 197/119/376 77/121/376 42/120/376
f 197/119/377 67/105/377 77/121/377
f 197/119/378 193/104/378 67/105/378
f 161/34/379 150/82/379 152/42/379
f 177/123/380 179/122/380 198/124/380
f 178/126/381 199/125/381 180/127/381
f 179/122/382 180/127/382 199/125/382
f 200/129/383 201/128/383 181/130/383
f 198/124/384 179/122/384 199/125/384
f 178/126/385 202/131/385 199/125/385
f 202/131/386 178/126/386 149/132/386
f 198/124/387 181/133/387 177/123/387
f 203/135/388 204/134/388 205/136/388
f 204/134/389 203/135/389 206/137/389
f 207/138/390 206/137/390 203/135/390
f 203/135/391 208/139/391 207/138/391
f 209/140/392 207/138/392 208/139/392
f 208/139/393 210/141/393 209/140/393
f 211/143/394 212/142/394 210/141/394
f 209/140/395 210/141/395 212/142/395
f 211/144/396 205/136/396 212/145/396
f 204/134/397 212/145/397 205/136/397
f 213/146/398 201/128/398 204/134/398
f 204/134/399 214/147/399 213/146/399
f 207/138/400 213/146/400 214/147/400
f 213/146/401 207/138/401 215/148/401
f 216/149/402 215/148/402 207/138/402
f 207/138/403 209/140/403 216/149/403
f 212/142/404 217/150/404 209/140/404
f 200/129/405 217/151/405 201/128/405
f 202/131/406 149/132/406 201/128/406
f 201/128/407 213/146/407 218/152/407
f 215/148/408 218/152/408 213/146/408
f 202/131/409 215/148/409 199/125/409
f 198/124/410 199/125/410 215/148/410
f 215/148/411 216/149/411 198/124/411
f 181/133/412 198/124/412 200/153/412
f 216/149/413 200/153/413 198/124/413
f 181/130/414 201/128/414 149/154/414
f 207/138/415 214/147/415 206/137/415
f 204/134/416 206/137/416 214/147/416
f 204/134/417 217/151/417 212/145/417
f 216/149/418 209/140/418 217/150/418
f 204/134/419 201/128/419 217/151/419
f 217/150/420 200/153/420 216/149/420
f 215/148/421 202/131/421 218/152/421
f 201/128/422 218/152/422 202/131/422
f 219/155/423 205/136/423 220/156/423
f 205/136/424 219/155/424 203/135/424
f 221/157/425 203/135/425 219/155/425
f 203/135/426 221/157/426 208/139/426
f 210/141/427 208/139/427 221/157/427
f 221/157/428 222/158/428 210/141/428
f 223/159/429 210/141/429 222/158/429
f 210/141/430 223/159/430 211/143/430
f 205/136/431 211/144/431 223/160/431
f 223/160/432 220/156/432 205/136/432
f 224/162/433 225/161/433 226/163/433
f 226/163/434 227/164/434 228/165/434
f 229/167/435 230/166/435 223/168/435
f 231/169/436 230/166/436 225/161/436
f 229/167/437 225/161/437 230/166/437
f 231/169/438 225/161/438 232/170/438
f 232/170/439 233/171/439 231/169/439
f 229/167/440 226/163/440 225/161/440
f 232/170/441 225/161/441 224/162/441
f 233/173/442 224/172/442 231/174/442
f 224/172/443 233/173/443 232/175/443
f 231/174/444 224/172/444 230/176/444
f 226/177/445 230/176/445 224/172/445
f 220/178/446 230/176/446 226/177/446
f 220/178/447 223/179/447 230/176/447
f 223/168/448 222/180/448 229/167/448
f 234/181/449 226/163/449 228/165/449
f 235/183/450 236/182/450 226/177/450
f 237/185/451 235/184/451 238/186/451
f 234/181/452 228/165/452 239/187/452
f 240/188/453 239/187/453 228/165/453
f 241/190/454 238/189/454 234/191/454
f 241/190/455 234/191/455 237/192/455
f 236/194/456 235/193/456 239/187/456
f 239/187/457 240/188/457 236/194/457
f 238/186/458 241/195/458 237/185/458
f 221/196/459 228/165/459 222/180/459
f 226/177/460 236/182/460 220/178/460
f 219/197/461 220/178/461 236/182/461
f 219/198/462 240/188/462 221/196/462
f 227/164/463 226/163/463 229/167/463
f 240/188/464 228/165/464 221/196/464
f 236/194/465 240/188/465 219/198/465
f 222/180/466 227/164/466 229/167/466
f 227/164/467 222/180/467 228/165/467
f 226/177/468 238/199/468 235/183/468
f 226/163/469 234/181/469 238/200/469
f 237/192/470 234/191/470 239/201/470
f 235/202/471 237/192/471 239/201/471
f 242/204/472 243/203/472 244/205/472
f 245/207/473 246/206/473 242/208/473
f 242/208/474 246/206/474 247/209/474
f 248/211/475 246/210/475 245/212/475
f 249/213/476 248/211/476 245/212/476
f 244/215/477 248/214/477 249/216/477
f 244/215/478 243/217/478 248/214/478
f 248/211/479 250/218/479 246/219/479
f 243/221/480 251/220/480 250/222/480
f 246/224/481 252/223/481 247/225/481
f 251/227/482 252/226/482 246/219/482
f 251/227/483 253/228/483 252/226/483
f 243/221/484 253/229/484 251/220/484
f 246/219/485 250/218/485 251/227/485
f 250/222/486 248/214/486 243/221/486
f 242/204/487 247/209/487 243/203/487
f 253/228/488 157/230/488 154/231/488
f 3/3/489 157/232/489 253/229/489
f 253/228/490 154/231/490 252/226/490
f 252/223/491 154/233/491 159/234/491
f 247/225/492 252/223/492 159/234/492
f 159/234/493 160/235/493 247/225/493
f 247/225/494 160/235/494 243/236/494
f 243/221/495 3/3/495 253/229/495
f 160/235/496 3/237/496 243/236/496
f 254/239/497 255/238/497 256/240/497
f 254/242/498 257/241/498 255/243/498
f 258/245/499 259/244/499 257/246/499
f 256/248/500 259/247/500 258/249/500
f 256/240/501 255/238/501 242/208/501
f 242/250/502 259/247/502 256/248/502
f 259/247/503 242/250/503 244/251/503
f 242/208/504 255/238/504 245/252/504
f 255/243/505 249/253/505 245/254/505
f 255/243/506 257/241/506 249/253/506
f 257/246/507 259/244/507 249/255/507
f 249/255/508 259/244/508 244/256/508
f 260/258/509 256/257/509 258/259/509
f 261/260/510 256/257/510 260/258/510
f 258/259/511 262/261/511 260/258/511
f 263/263/512 254/262/512 261/260/512
f 263/265/513 261/264/513 262/266/513
f 260/267/514 262/266/514 261/264/514
f 263/263/515 257/268/515 254/262/515
f 261/260/516 254/262/516 256/257/516
f 262/261/517 258/259/517 257/268/517
f 264/269/518 257/268/518 263/263/518
f 262/261/519 257/268/519 264/269/519
f 265/270/520 263/265/520 266/271/520
f 262/266/521 266/271/521 263/265/521
f 264/269/522 263/263/522 265/272/522
f 266/273/523 264/269/523 265/272/523
f 264/269/524 266/273/524 262/261/524
f 157/275/525 3/274/525 17/276/525

o 
usemtl axe.001
s off

v 30.396040 67.325073 4.767160
v 24.954811 64.066483 8.427110
v 32.552490 70.703461 12.316570
v 29.766071 68.863640 12.492060
v 32.547268 70.914543 14.446610
v 29.760849 69.074722 14.622110
v 30.352591 69.082474 22.501699
v 24.927608 65.166336 19.526100
v 35.829159 70.912445 4.424980
v 35.785698 72.669838 22.159519
v 41.254128 74.828575 7.400570
v 35.338921 72.543274 12.141080
v 35.333691 72.754341 14.271131
v 41.226940 75.928429 18.499569
v 30.848061 67.240555 12.655550
v 33.634480 69.080383 12.480060
v 30.842840 67.451637 14.785590
v 33.629250 69.291443 14.610100
v 36.420891 70.920189 12.304569
v 36.415680 71.131271 14.434620
v 1.960890 50.504478 14.243240
v 1.955670 50.715561 16.373280
v 3.037660 49.092468 16.536781
v 2.315860 50.482502 14.394680
v 41.745071 75.711632 12.918300
v -27.032349 31.569750 18.201580
v -25.985100 30.030140 18.246120
v -25.944929 29.735611 16.235109
v -27.027210 31.358500 16.071550

vt 0.033358 0.643728
vt 0.190411 0.923560
vt 0.402692 0.503812
vt 0.402692 0.647326
vt 0.408249 0.287497
vt 0.408249 0.367848
vt 0.492649 0.287497
vt 0.492649 0.367848
vt 0.403043 0.503812
vt 0.403044 0.647326
vt 0.033710 0.643728
vt 0.190763 0.923560
vt 0.033358 0.363896
vt 0.033710 0.363896
vt 0.190411 0.084064
vt 0.402692 0.360297
vt 0.408249 0.207147
vt 0.492649 0.207147
vt 0.403043 0.360297
vt 0.190763 0.084064
vt 0.408248 1.036942
vt 0.492649 1.036942
vt 0.483600 0.371280
vt 0.402049 0.371280
vt 0.402049 1.040375
vt 0.483600 1.040375
vt 0.450449 0.037941
vt 0.483600 0.210579
vt 0.402049 0.210579
vt 0.442825 0.041374
vt 0.000000 1.000000

vn -0.592411 0.784812 -0.181988
vn -0.539628 0.789340 -0.292821
vn -0.552738 0.829159 -0.083520
vn -0.548783 0.834989 0.040391
vn -0.600595 0.798324 0.044318
vn -0.548178 0.810559 -0.206144
vn -0.494052 0.843759 -0.209722
vn -0.540661 0.831200 0.129587
vn -0.505746 0.862533 0.016053
vn 0.540661 -0.831199 -0.129588
vn 0.505746 -0.862533 -0.016053
vn 0.552735 -0.829161 0.083520
vn 0.494052 -0.843759 0.209722
vn 0.548176 -0.810560 0.206144
vn 0.548782 -0.834989 -0.040391
vn 0.600595 -0.798324 -0.044318
vn 0.592410 -0.784812 0.181989
vn 0.539629 -0.789340 0.292818
vn -0.479994 -0.234836 0.845256
vn -0.476001 -0.396391 -0.785046
vn 0.479994 0.234836 -0.845256
vn 0.476004 0.396386 0.785047
vn 0.381783 -0.711271 -0.590199
vn -0.001281 -0.101066 -0.994879
vn 0.303379 -0.534701 -0.788705
vn -0.002437 0.098610 0.995123
vn -0.432736 0.897022 -0.089949
vn 0.662208 -0.745506 0.075499
vn 0.122819 0.180178 0.975936
vn 0.127641 -0.014808 -0.991710
vn 0.012199 0.073807 0.997198
vn 0.042574 -0.151910 -0.987477
vn 0.532552 -0.792757 -0.296520
vn -0.552855 0.829079 -0.083537
vn -0.833228 -0.549237 0.063796
vn -0.826378 -0.560559 0.053598

f 267/277/526 268/278/526 269/279/526
f 270/280/527 269/279/527 268/278/527
f 269/281/528 270/282/528 271/283/528
f 272/284/528 271/283/528 270/282/528
f 271/285/529 272/286/529 273/287/529
f 274/288/530 273/287/530 272/286/530
f 275/289/531 267/277/531 269/279/531
f 273/287/529 276/290/529 271/285/529
f 277/291/532 275/289/532 278/292/532
f 269/279/531 278/292/531 275/289/531
f 278/293/528 269/281/528 279/294/528
f 271/283/528 279/294/528 269/281/528
f 279/295/533 271/285/533 280/296/533
f 276/290/534 280/296/534 271/285/534
f 281/280/535 268/278/535 282/279/535
f 267/277/536 282/279/536 268/278/536
f 283/284/537 281/282/537 284/283/537
f 282/281/537 284/283/537 281/282/537
f 274/288/538 283/286/538 273/287/538
f 284/285/539 273/287/539 283/286/539
f 282/279/540 267/277/540 275/289/540
f 273/287/539 284/285/539 276/290/539
f 282/279/540 275/289/540 285/292/540
f 277/291/541 285/292/541 275/289/541
f 284/283/537 282/281/537 286/294/537
f 285/293/537 286/294/537 282/281/537
f 276/290/542 284/285/542 280/296/542
f 286/295/543 280/296/543 284/285/543
f 270/280/544 268/278/544 281/280/544
f 283/286/545 274/288/545 272/286/545
f 279/295/546 280/296/546 286/295/546
f 285/292/547 277/291/547 278/292/547
f 272/284/528 270/282/528 287/297/528
f 287/297/528 288/298/528 272/284/528
f 281/282/537 283/284/537 289/298/537
f 289/298/548 290/297/548 281/282/548
f 270/299/549 281/300/549 290/301/549
f 290/301/550 287/302/550 270/299/550
f 283/300/551 272/299/551 288/302/551
f 288/302/551 289/301/551 283/300/551
f 278/293/552 279/294/552 291/303/552
f 286/294/553 285/293/553 291/303/553
f 279/304/554 286/305/554 291/306/554
f 285/305/555 278/304/555 291/306/555
f 289/298/556 288/297/556 292/298/556 293/307/556
f 287/297/557 290/298/557 294/297/557 295/307/557
f 290/297/558 289/298/558 293/297/558 294/307/558
f 288/298/559 287/297/559 295/298/559 292/307/559
f 294/297/560 293/298/560 295/297/560
f 292/298/561 295/297/561 293/298/561

