mtllib anim_barb_run2_axe_000035.mtl

o fat
usemtl axe.001
s off

v 26.322920 74.090050 13.923240
v 23.363708 67.419327 14.527530
v 32.597710 71.019913 18.848560
v 30.146301 68.796410 18.372639
v 33.766579 69.520676 19.832270
v 31.315178 67.297165 19.356361
v 36.054901 61.607597 22.113560
v 29.454369 59.607300 19.653360
v 31.102800 78.425568 14.851210
v 40.834770 65.943123 23.041519
v 37.703320 80.425865 17.311399
v 35.049110 73.243431 19.324480
v 36.217979 71.744186 20.308180
v 43.793987 72.613838 22.437241
v 30.939701 68.288986 16.656580
v 33.391109 70.512497 17.132490
v 32.108570 66.789764 17.640289
v 34.559978 69.013260 18.116199
v 35.842499 72.736000 17.608410
v 37.011379 71.236771 18.592121
v 5.684230 46.608421 13.623600
v 6.853090 45.109192 14.607310
v 7.646490 44.601768 12.891240
v 6.477620 46.100998 11.907530
v 41.192509 76.922447 19.960491
v -18.652189 21.974991 9.655730
v -17.858789 21.467581 7.939660
v -19.027670 22.966801 6.955950
v -19.821070 23.474218 8.672020

vt 0.033358 0.643728
vt 0.190411 0.923560
vt 0.402692 0.503812
vt 0.402692 0.647326
vt 0.408249 0.287497
vt 0.408249 0.367848
vt 0.492649 0.287497
vt 0.492649 0.367848
vt 0.403043 0.503812
vt 0.403044 0.647326
vt 0.033710 0.643728
vt 0.190763 0.923560
vt 0.033358 0.363896
vt 0.033710 0.363896
vt 0.190411 0.084064
vt 0.402692 0.360297
vt 0.408249 0.207147
vt 0.492649 0.207147
vt 0.403043 0.360297
vt 0.190763 0.084064
vt 0.408248 1.036942
vt 0.492649 1.036942
vt 0.483600 0.371280
vt 0.402049 0.371280
vt 0.402049 1.040375
vt 0.483600 1.040375
vt 0.450449 0.037941
vt 0.483600 0.210579
vt 0.402049 0.210579
vt 0.442825 0.041374
vt 0.000000 1.000000

vn -0.496815 0.294350 0.816415
vn -0.511978 0.401968 0.759145
vn -0.405311 0.259215 0.876659
vn -0.334545 0.170456 0.926836
vn -0.380069 0.127354 0.916149
vn -0.469834 0.343980 0.812978
vn -0.422615 0.386001 0.820000
vn -0.280176 0.104652 0.954227
vn -0.308442 0.220649 0.925299
vn 0.280176 -0.104653 -0.954227
vn 0.308442 -0.220649 -0.925299
vn 0.405310 -0.259216 -0.876659
vn 0.422615 -0.385999 -0.820001
vn 0.469832 -0.343981 -0.812979
vn 0.334545 -0.170456 -0.926835
vn 0.380069 -0.127354 -0.916149
vn 0.496814 -0.294350 -0.816415
vn 0.511977 -0.401964 -0.759147
vn 0.026794 -0.955177 0.294821
vn -0.867849 0.192311 -0.458098
vn -0.026793 0.955177 -0.294820
vn 0.867849 -0.192312 0.458098
vn -0.546082 0.700417 -0.459577
vn 0.546083 -0.700418 0.459573
vn -0.300507 0.348302 0.887908
vn 0.502392 -0.165189 -0.848714
vn 0.650052 -0.592533 0.475749
vn -0.429707 0.792395 -0.432970
vn -0.733156 -0.664999 -0.142333

f 1/1/1 2/2/1 3/3/1
f 4/4/2 3/3/2 2/2/2
f 3/5/3 4/6/3 5/7/3
f 6/8/3 5/7/3 4/6/3
f 5/9/4 6/10/4 7/11/4
f 8/12/5 7/11/5 6/10/5
f 9/13/6 1/1/6 3/3/6
f 7/11/4 10/14/4 5/9/4
f 11/15/7 9/13/7 12/16/7
f 3/3/6 12/16/6 9/13/6
f 12/17/3 3/5/3 13/18/3
f 5/7/3 13/18/3 3/5/3
f 13/19/8 5/9/8 14/20/8
f 10/14/9 14/20/9 5/9/9
f 15/4/10 2/2/10 16/3/10
f 1/1/11 16/3/11 2/2/11
f 17/8/12 15/6/12 18/7/12
f 16/5/12 18/7/12 15/6/12
f 8/12/13 17/10/13 7/11/13
f 18/9/14 7/11/14 17/10/14
f 16/3/15 1/1/15 9/13/15
f 7/11/14 18/9/14 10/14/14
f 16/3/15 9/13/15 19/16/15
f 11/15/16 19/16/16 9/13/16
f 18/7/12 16/5/12 20/18/12
f 19/17/12 20/18/12 16/5/12
f 10/14/17 18/9/17 14/20/17
f 20/19/18 14/20/18 18/9/18
f 4/4/19 2/2/19 15/4/19
f 17/10/20 8/12/20 6/10/20
f 13/19/21 14/20/21 20/19/21
f 19/16/22 11/15/22 12/16/22
f 6/8/3 4/6/3 21/21/3
f 21/21/3 22/22/3 6/8/3
f 15/6/12 17/8/12 23/22/12
f 23/22/12 24/21/12 15/6/12
f 4/23/23 15/24/23 24/25/23
f 24/25/23 21/26/23 4/23/23
f 17/24/24 6/23/24 22/26/24
f 22/26/24 23/25/24 17/24/24
f 12/17/25 13/18/25 25/27/25
f 20/18/26 19/17/26 25/27/26
f 13/28/27 20/29/27 25/30/27
f 19/29/28 12/28/28 25/30/28
f 23/22/24 22/21/24 26/22/24 27/31/24
f 21/21/23 24/22/23 28/21/23 29/31/23
f 24/21/12 23/22/12 27/21/12 28/31/12
f 22/22/3 21/21/3 29/22/3 26/31/3
f 28/21/29 27/22/29 29/21/29
f 26/22/29 29/21/29 27/22/29

