mtllib anim_skel_walk_swordshield_000064.mtl

o msked
usemtl shield.001
s off

v -3.821070 39.290169 7.630239
v -4.558240 39.327911 8.877080
v 3.441170 53.232399 22.278240
v -3.725580 38.129860 8.795700
v -2.355680 38.847221 8.264690
v -4.284830 38.803288 8.336860
v -7.813690 40.298111 10.041510
v -5.237970 36.090569 4.517700
v -5.825780 35.643532 5.274820
v -5.167730 34.924591 5.685550
v 1.128710 38.346500 7.555220
v -3.038960 38.531387 7.990460
v -4.579910 35.371632 4.928430
v 20.467411 47.970390 7.620070
v 15.625730 37.652439 10.938500
v 4.868710 44.007839 13.818769
v 17.617199 37.792419 15.813980
v 25.832779 31.334869 5.906110
v 0.950800 9.201449 16.704969

vt 0.856301 0.265607
vt 0.764624 0.294094
vt 0.850192 0.976825
vt 0.858158 0.265976
vt 0.949099 0.282658
vt 0.742843 0.255302
vt 0.692067 0.254404
vt 0.541488 0.402851
vt 0.893183 0.241135
vt 0.851577 0.242328
vt 0.847036 0.027305
vt 0.893183 0.027305
vt 0.742053 0.256467
vt 0.849952 0.242815
vt 0.544321 0.402080
vt 0.692550 0.250793
vt 0.800888 0.241135
vt 0.800888 0.027305
vt 0.697126 0.324563
vt 0.698569 0.321089
vt 0.345626 0.959903
vt 0.345626 0.724031
vt 0.085605 0.724031
vt 0.605647 0.724031
vt 0.345626 0.075832

vn -0.599290 0.706889 -0.375712
vn -0.524368 -0.414951 0.743541
vn 0.466919 0.513310 -0.720069
vn 0.545730 -0.687134 0.479610
vn -0.538423 -0.486119 -0.688324
vn -0.826674 0.535163 -0.173812
vn -0.762801 0.601646 -0.236974
vn -0.521751 -0.731906 -0.438280
vn -0.709670 -0.280295 0.646377
vn -0.768706 -0.232356 0.595905
vn -0.330530 -0.677762 -0.656801
vn -0.111553 -0.517685 -0.848268
vn 0.654272 0.358195 -0.666051
vn 0.709667 0.280297 -0.646379
vn -0.090844 -0.858112 -0.505361
vn 0.762793 -0.601652 0.236984
vn 0.721628 -0.621189 0.305577
vn 0.383270 0.205199 0.900554
vn 0.228295 0.258782 0.938570
vn 0.337167 0.925725 0.171322
vn 0.185389 0.953527 0.237524
vn -0.333927 -0.142954 -0.931696
vn 0.164108 0.590303 0.790323
vn 0.815169 0.207183 0.540902
vn -0.471744 -0.061525 -0.879586
vn -0.284386 -0.047389 -0.957538
vn -0.108892 0.094314 0.989569
vn 0.608303 -0.332131 0.720872
vn -0.424213 0.035408 -0.904870

f 1/1/1 2/2/1 3/3/1
f 3/3/2 2/2/2 4/4/2
f 1/1/3 3/3/3 5/5/3
f 3/3/4 4/4/4 5/5/4
f 1/6/5 6/7/5 7/8/5
f 6/9/6 1/10/6 8/11/6
f 8/11/7 9/12/7 6/9/7
f 7/8/8 6/7/8 4/13/8
f 6/9/9 9/12/9 10/11/9
f 10/11/10 4/14/10 6/9/10
f 9/12/11 8/11/11 10/11/11
f 1/6/12 11/15/12 12/16/12
f 8/11/13 1/10/13 12/17/13
f 8/11/14 12/17/14 13/18/14
f 11/15/15 4/13/15 12/16/15
f 12/17/16 10/11/16 13/18/16
f 10/11/17 12/17/17 4/14/17
f 13/18/11 10/11/11 8/11/11
f 4/13/18 2/19/18 7/8/18
f 11/15/19 5/20/19 4/13/19
f 2/19/20 1/6/20 7/8/20
f 1/6/21 5/20/21 11/15/21
f 14/21/22 15/22/22 16/23/22
f 14/21/23 16/23/23 17/22/23
f 14/21/24 17/22/24 18/24/24
f 14/21/25 18/24/25 15/22/25
f 19/25/26 16/23/26 15/22/26
f 19/25/27 17/22/27 16/23/27
f 19/25/28 18/24/28 17/22/28
f 19/25/29 15/22/29 18/24/29

