mtllib anim_barb_attack_new1_body_000039.mtl

o fat
usemtl fat.001
s off

v -0.568020 30.595081 -12.774370
v 1.860240 36.144421 6.136090
v 0.771250 29.717041 -8.636010
v -1.540030 52.157139 -17.584421
v 4.147620 57.328148 -21.865139
v 1.002240 48.458199 -16.959351
v -1.167720 44.424721 -14.003020
v 7.063820 53.471230 -18.245960
v 6.224330 50.688370 -14.667970
v 6.614890 45.004902 -11.797910
v 3.063510 44.366760 -15.045570
v 3.646150 49.105522 -17.807600
v 9.415680 28.737030 -6.264670
v 8.871790 31.814030 -13.376930
v 10.158239 31.352301 -13.289720
v 7.393050 29.167850 -6.912160
v 3.993900 29.138020 -2.530290
v 2.776940 31.752501 -17.477501
v 2.448520 32.282711 -15.923390
v -0.419710 31.285889 -14.126881
v -0.815290 27.468451 -12.436541
v -1.994410 57.780918 -17.712070
v -2.526410 59.609699 -18.004320
v 2.232940 52.883030 -4.943260
v 6.108340 52.734409 -9.616590
v 6.815360 57.042168 -9.871650
v 8.215720 56.365227 -13.187780
v 6.346590 59.771637 -10.324720
v 9.265369 59.663818 -17.306080
v 4.497020 45.020908 -5.554330
v 2.671480 45.390373 -4.740580
v 2.372370 59.858391 -6.358550
v 0.534950 62.246773 -18.762650
v 4.320770 59.383587 -22.254250
v 6.877740 60.962029 -20.101189
v 2.424870 63.898170 -10.037830
v 3.043210 64.174942 -15.364380
v 0.225890 63.206249 -8.277990
v 1.325690 68.609200 -13.307981
v 0.544140 65.710938 -16.250950
v -2.421940 65.659073 -16.096880
v -1.388220 69.049637 -14.149760
v -3.551130 63.326550 -17.168781
v 0.986740 40.603680 -3.953930
v 5.364230 40.418419 -4.576100
v 8.418850 40.066681 -9.753570
v 4.980510 39.468330 -14.943360
v -0.635860 39.084381 -15.030729
v 9.996890 58.974152 -19.200880
v 4.209480 55.121002 -22.092560
v 8.109610 59.458790 -21.951889
v 5.854810 58.732712 -22.939451
v 11.025790 55.846130 -17.232059
v 2.311830 69.203857 -7.912250
v 1.297950 68.115242 -5.664050
v 2.694330 64.695618 -8.988131
v 1.603810 64.058044 -5.997240
v 0.837720 66.776596 -5.339710
v 1.679140 69.989670 -6.354050
v -0.021640 69.959679 -5.729050
v 2.351610 69.932495 -10.902930
v 0.599020 73.879189 -6.577210
v -0.622620 73.917221 -6.059070
v 1.833820 71.361008 -6.031620
v 2.149730 72.955681 -7.504270
v 0.729170 74.612862 -9.585620
v -0.915300 74.605881 -9.457430
v 0.504900 68.251648 -4.988000
v -0.588700 70.763252 -5.490210
v -0.460260 69.029961 -3.917400
v -0.506870 68.326584 -4.412240
v -0.484360 66.782570 -4.066060
v 0.833720 63.960117 -4.167160
v -0.441920 64.069435 -3.424440
v 2.166870 72.228188 -11.333800
v 1.564030 73.336746 -12.038780
v -1.205440 73.396202 -12.718650
v 10.968420 58.163582 -22.066660
v 7.875520 57.822670 -24.140812
v 9.532550 50.057713 -22.351871
v 13.225680 52.603661 -21.281841
v 5.239730 53.782810 -23.393929
v 12.454530 48.136631 -25.775660
v 12.704320 44.398560 -27.359249
v 12.532030 45.904549 -24.855249
v 11.985950 49.082062 -29.160969
v 13.002560 51.881481 -28.471300
v 15.544020 45.469788 -27.941599
v 14.843800 51.804817 -27.281420
v 17.089180 46.981182 -26.044809
v 15.693350 49.358749 -26.089100
v 15.914030 47.287094 -23.805410
v 10.146951 50.692593 -27.423429
v 10.916409 50.018311 -28.301498
v 9.995950 55.652420 -26.211201
v 12.776949 55.841553 -24.066311
v 14.854470 50.413300 -24.802681
v 7.837660 51.899536 -26.353951
v 14.137560 38.784889 -23.092680
v 14.028501 39.657459 -21.413300
v 15.638510 38.844482 -23.514259
v 16.649860 39.787960 -22.225872
v 15.928360 40.385170 -20.858299
v 17.754280 37.625908 -16.832590
v 17.029551 37.103741 -17.059130
v 16.888130 37.369610 -18.337240
v 17.551550 37.849960 -18.850309
v 17.965071 36.325260 -19.466702
v 16.262409 39.306877 -17.870810
v 17.394201 38.521839 -18.103600
v 16.900410 37.965370 -16.227421
v 17.804001 36.503540 -15.881580
v 17.106621 36.810860 -15.521330
v 18.019119 34.554058 -18.106350
v 13.790350 34.885098 -21.538429
v 14.113240 33.168301 -20.624849
v 15.030340 30.933620 -18.977409
v 17.309240 35.425560 -17.471991
v 15.094330 33.148418 -21.011700
v 15.001579 34.737370 -22.140999
v 17.773899 32.575180 -16.122709
v 2.909270 19.420300 -16.805920
v 4.379420 17.703569 -26.284420
v 2.702510 13.658260 -22.326851
v 8.438300 20.819031 -18.953369
v 9.658381 15.336790 -24.530230
v 4.237240 22.090080 -20.407459
v 7.067910 16.598881 -17.214491
v 7.124390 11.965490 -20.597961
v 7.323020 18.126181 -15.494619
v 7.500730 20.486130 -14.863280
v 9.181339 24.675850 -18.179661
v 8.073380 23.584591 -10.897950
v 6.780380 7.202580 -31.132040
v 7.296310 5.354130 -33.709740
v 4.027200 6.945430 -34.296879
v 5.875290 4.809070 -30.239971
v 3.248340 6.822860 -30.527971
v 2.582980 4.315070 -32.263130
v 2.479380 2.493230 -36.717651
v 5.380180 2.970510 -37.583790
v 4.861560 -1.051920 -29.261629
v 10.618259 0.302940 -31.101429
v 8.592230 0.054620 -26.243351
v 11.032970 -1.448390 -27.337681
v 7.509990 -2.564830 -25.602560
v -11.881070 56.314182 -10.249769
v -3.374340 48.380123 -15.992809
v -6.432500 55.096840 -6.838060
v -7.112430 50.172810 -7.775680
v -5.192890 44.438740 -11.251730
v -5.272150 44.826969 -6.382940
v -7.104420 48.981052 -14.174100
v -8.584970 31.567932 -7.579520
v -6.455560 29.373360 -3.277030
v -9.959920 30.949230 -8.097180
v -3.474590 33.538921 -4.528410
v -5.577420 27.286989 -11.854720
v -5.009580 30.237120 -13.206680
v -1.631360 29.184790 -12.611400
v -2.840880 52.435032 -4.700770
v -2.891570 56.803051 -3.940090
v -8.104100 56.168369 -4.020560
v -2.887850 59.577660 -4.448940
v -9.139750 60.758190 -7.668230
v -0.644950 45.220490 -3.730030
v -13.201639 58.490829 -8.394470
v -8.029090 61.981430 -14.032540
v -11.488300 61.212101 -8.011290
v -2.734700 63.847679 -8.128090
v -7.353170 63.881512 -11.212191
v -3.840270 68.640762 -12.790650
v -4.994740 65.654846 -14.741879
v -3.837170 40.014160 -3.721700
v -8.003980 39.591019 -8.920530
v -5.791170 38.162090 -14.610061
v -8.998850 61.747780 -8.359330
v -10.323991 55.248306 -3.677700
v -11.567550 61.464657 -6.784670
v -11.909941 58.793522 -4.657010
v -7.709190 57.624603 -6.382810
v -2.502960 68.134087 -5.332890
v -3.879600 69.234573 -7.372810
v -3.101030 64.626289 -7.348090
v -2.901770 64.080391 -5.604700
v -2.006780 66.790710 -5.091880
v -1.196400 69.965523 -5.626670
v -2.979270 70.012772 -5.948190
v -4.428800 69.966141 -10.312181
v -1.915780 73.891663 -6.358109
v -3.062350 71.385300 -5.605040
v -3.612460 72.984261 -7.002240
v -2.556990 74.629166 -9.299280
v -1.603650 68.262100 -4.804300
v -1.827800 63.973320 -3.935290
v -4.298770 72.260262 -10.770450
v -3.816050 73.363426 -11.570040
v -8.229381 62.662350 -5.975010
v -10.499371 60.925030 -3.516900
v -2.600860 61.356468 -4.440720
v -3.199050 57.551979 -1.932880
v -8.972880 56.519260 -1.977580
v 1.689120 59.293381 3.498820
v -0.794190 60.213516 1.623290
v -1.394790 58.455982 -0.274550
v -2.835980 61.412922 4.279190
v -4.180200 63.327042 2.276980
v 2.541190 62.073368 3.441350
v -2.680090 64.408707 1.094960
v 2.474380 63.697037 0.878900
v 1.552420 62.496330 -1.544350
v 0.006030 63.524353 1.017770
v -4.642070 60.084957 2.260420
v -3.912090 60.678909 3.156890
v -8.182410 62.085007 -0.914100
v -6.059680 63.624649 -3.279540
v -1.553960 62.240620 -1.004520
v -6.662430 58.453487 1.106720
v 8.271370 57.493538 0.794630
v 7.788110 57.872200 -0.976340
v 8.724190 59.215469 1.256140
v 8.665680 60.383030 -0.287080
v 8.147930 59.812332 -1.713000
v 12.481299 58.760872 -4.468110
v 12.315360 59.716431 -4.857840
v 11.874700 58.791023 -3.365410
v 11.540771 59.905510 -2.977700
v 12.896240 59.718582 -1.970510
v 11.072030 59.943840 -3.879210
v 10.016299 59.060349 -4.323550
v 11.788360 59.011387 -5.518370
v 13.536691 59.158901 -5.460930
v 13.050290 58.613350 -5.880770
v 14.778080 58.836296 -2.786720
v 13.803570 55.543209 0.359380
v 11.952849 55.872589 0.674330
v 16.527981 55.489689 -0.518980
v 13.916889 58.563152 -3.560730
v 13.994121 56.020424 0.443350
v 12.310669 56.759037 1.088100
v 16.893990 57.777138 -4.016850
v -5.262290 17.338890 -3.588510
v -0.235710 23.674000 1.959050
v -1.902510 15.572340 0.175070
v -9.226100 17.171499 0.728340
v -6.233220 23.866199 2.090320
v -3.296640 23.515720 -0.928750
v -3.825920 21.899710 4.369150
v -5.024800 15.300540 4.056530
v -3.499700 24.141619 5.146060
v -3.161900 26.280579 3.990880
v -7.450200 26.955040 1.132500
v -3.654280 31.829819 -0.297720
v -10.641030 3.659230 -1.711270
v -9.185880 6.457830 -1.146810
v -8.067240 4.133680 -4.458680
v -7.815619 4.413210 0.744510
v -5.740030 2.618370 -2.029060
v -5.640660 5.683700 -1.414570
v -7.425241 -0.950050 -4.752020
v -10.478359 -0.301540 -4.551150
v -6.113990 -0.625670 3.596490
v -12.147760 0.829520 4.031840
v -8.204280 2.890690 7.072260
v -10.749210 1.452700 8.004640
v -6.745520 0.792660 8.455630

vt 0.550479 0.485338
vt 0.414517 0.485338
vt 0.489174 0.497239
vt 0.490853 0.675485
vt 0.356970 0.710738
vt 0.458986 0.602657
vt 0.458693 0.603155
vt 0.491001 0.506534
vt 0.357039 0.710738
vt 0.272881 0.708251
vt 0.307767 0.663467
vt 0.329118 0.504113
vt 0.420682 0.504388
vt 0.307693 0.663467
vt 0.420389 0.504181
vt 0.390374 0.619683
vt 0.389206 0.622726
vt 0.390855 0.620128
vt 0.309151 0.663075
vt 0.578845 0.971377
vt 0.529882 0.993867
vt 0.501054 0.950636
vt 0.597833 0.993868
vt 0.684209 0.993870
vt 0.691613 0.940228
vt 0.584242 0.936155
vt 0.602549 0.993867
vt 0.689094 0.993870
vt 0.694409 0.971380
vt 0.730001 0.975635
vt 0.490853 0.781888
vt 0.490853 0.820915
vt 0.240556 0.660920
vt 0.133663 0.660928
vt 0.131880 0.753091
vt 0.060606 0.782384
vt 0.055577 0.663688
vt 0.136145 0.808744
vt 0.060014 0.783494
vt 0.058190 0.859642
vt 0.160773 0.512959
vt 0.067037 0.515196
vt 0.240700 0.512959
vt 0.131877 0.752996
vt 0.240556 0.781375
vt 0.390182 0.870896
vt 0.298691 0.847983
vt 0.294173 0.886121
vt 0.181129 0.899551
vt 0.052544 0.886601
vt 0.145152 0.921474
vt 0.235241 0.891030
vt 0.142740 0.921054
vt 0.172936 0.966074
vt 0.456563 0.999059
vt 0.389917 0.922986
vt 0.429989 0.941889
vt 0.491140 0.942697
vt 0.490646 0.999330
vt 0.490853 0.898039
vt 0.701416 0.118225
vt 0.813217 0.120956
vt 0.790107 0.184348
vt 0.877923 0.002315
vt 0.872775 0.120438
vt 0.505869 0.118716
vt 0.564263 0.119120
vt 0.507564 0.183764
vt 0.697589 0.180917
vt 0.580429 0.182675
vt 0.710756 0.001536
vt 0.701372 0.182427
vt 0.812168 0.002315
vt 0.857243 0.184348
vt 0.697567 0.116528
vt 0.503935 0.000692
vt 0.561277 0.000692
vt 0.688827 -0.000098
vt 0.002866 0.854679
vt 0.027518 0.706813
vt 0.061197 0.782654
vt 0.055608 0.663958
vt 0.251604 0.781884
vt 0.357109 0.710738
vt 0.243886 0.876138
vt 0.247300 0.848527
vt -0.000514 0.880403
vt 0.006948 0.782948
vt 0.674684 0.829607
vt 0.705811 0.784366
vt 0.654033 0.662928
vt 0.703232 0.671848
vt 0.720473 0.730776
vt 0.697736 0.853617
vt 0.729837 0.853035
vt 0.623758 0.856571
vt 0.587609 0.811448
vt 0.658187 0.605708
vt 0.748523 0.593788
vt 0.716351 0.931575
vt 0.747491 0.935506
vt 0.695349 0.885675
vt 0.676247 0.904603
vt 0.649719 0.961956
vt 0.745560 1.001324
vt 0.725611 0.781438
vt 0.747491 0.878462
vt 0.747491 0.808438
vt 0.720379 0.731031
vt 0.747491 0.790807
vt 0.720762 0.730332
vt 0.748639 0.732530
vt 0.746944 0.628012
vt 0.703659 0.671442
vt 0.731857 0.666086
vt 0.747085 0.666819
vt 0.703186 0.671176
vt 0.611291 0.885598
vt 0.604148 0.909350
vt 0.550618 0.823662
vt 0.550618 0.934468
vt 0.625864 0.557513
vt 0.571978 0.557920
vt 0.578607 0.510287
vt 0.669444 0.510287
vt 0.756032 0.560223
vt 0.679695 0.557918
vt 0.877240 0.461159
vt 0.992418 0.461159
vt 0.944262 0.560223
vt 0.756457 0.510287
vt 0.806202 0.560223
vt 0.498275 0.560223
vt 0.875566 0.382888
vt 0.758260 0.308662
vt 0.875912 0.308662
vt 0.759996 0.360654
vt 0.669163 0.382888
vt 0.671223 0.308662
vt 0.584325 0.382888
vt 0.577057 0.308662
vt 0.498223 0.363687
vt 0.498247 0.308662
vt 0.992597 0.308662
vt 0.992439 0.363687
vt 0.759483 0.410364
vt 0.758924 0.382888
vt 0.665903 0.461159
vt 0.580075 0.461159
vt 0.498223 0.402657
vt 0.992438 0.402657
vt 0.760539 0.449273
vt 0.498220 0.461159
vt 0.875438 0.575163
vt 0.762705 0.196431
vt 0.858161 0.196355
vt 0.690657 0.196417
vt 0.588027 0.196417
vt 0.498144 0.196431
vt 0.991918 0.196431
vt 0.375723 0.009258
vt 0.380090 0.017573
vt 0.356438 0.030356
vt 0.342839 0.029458
vt 0.369327 0.043627
vt 0.316032 0.012201
vt 0.336848 0.019568
vt 0.249292 0.041099
vt 0.371147 0.002582
vt 0.416197 0.004791
vt 0.408124 0.000758
vt 0.128136 0.016613
vt 0.154876 0.002573
vt 0.119423 0.002194
vt 0.160447 0.001473
vt 0.065726 0.014292
vt 0.105093 0.028910
vt 0.000825 0.069213
vt 0.000703 0.039244
vt 0.249314 0.055441
vt 0.429228 0.045736
vt 0.102506 0.115410
vt 0.153549 0.117195
vt 0.189513 0.114692
vt 0.228429 0.109580
vt 0.194639 0.033982
vt 0.406548 0.108121
vt 0.355355 0.108206
vt 0.448349 0.035630
vt 0.498209 0.039288
vt 0.461840 0.047992
vt 0.483032 0.114221
vt 0.406174 0.120334
vt 0.355217 0.119080
vt 0.243215 0.037501
vt 0.249314 0.089732
vt 0.000703 0.095058
vt 0.249292 0.105039
vt 0.160984 0.032072
vt 0.413806 0.033644
vt 0.442212 0.108407
vt 0.443088 0.117732
vt 0.023914 0.327327
vt 0.104127 0.227894
vt 0.000784 0.227894
vt 0.216171 0.327327
vt 0.216985 0.228421
vt 0.105699 0.228145
vt 0.104981 0.327662
vt 0.217575 0.327327
vt 0.351490 0.301452
vt 0.217290 0.227894
vt 0.351571 0.227894
vt 0.352420 0.301452
vt 0.489174 0.227894
vt 0.352342 0.227894
vt 0.471690 0.333380
vt 0.351597 0.328057
vt 0.217345 0.328075
vt 0.352312 0.363299
vt 0.470864 0.334174
vt 0.352330 0.328057
vt 0.216660 0.380224
vt 0.216104 0.328075
vt 0.104983 0.328371
vt 0.217232 0.380224
vt 0.351611 0.363299
vt 0.351459 0.420971
vt 0.352499 0.420971
vt 0.351589 0.497239
vt 0.229465 0.497239
vt 0.352627 0.497239
vt 0.229583 0.497239
vt 0.133020 0.497239
vt 0.072972 0.497239
vt 0.025422 0.328212
vt 0.002386 0.497239
vt 0.216130 0.152222
vt 0.223982 0.125749
vt 0.105883 0.155747
vt 0.351732 0.147623
vt 0.223132 0.128232
vt 0.218721 0.149411
vt 0.469070 0.149411
vt 0.483427 0.127273
vt 0.352306 0.146326
vt 0.017963 0.152222
vt 0.104256 0.155747
vt 0.009616 0.131504
vt 0.104128 0.227914
vt 0.000790 0.227921
vt 0.216984 0.228396
vt 0.351571 0.227971
vt 0.217291 0.227882
vt 0.352342 0.227879
vt 0.489111 0.227891
vt 0.948232 0.041698
vt 0.989968 0.003451
vt 0.971575 0.059997
vt 0.909211 0.004273
vt 0.996004 0.120663
vt 0.925604 0.058708
vt 0.885225 0.122889
vt 0.516483 0.798440
vt 0.501430 0.685191
vt 0.597947 0.686709
vt 0.594444 0.793024
vt 0.950876 0.082499
vt 0.943924 0.157220
vt 0.507177 0.624822
vt 0.600053 0.622523
vt 0.901715 0.182549
vt 0.982420 0.184037
vt 0.730212 0.975635
vt 0.685579 0.991654
vt 0.692830 0.969164

vn 0.910037 0.351354 -0.219962
vn -0.321560 -0.368412 -0.872280
vn -0.382576 -0.403406 -0.831204
vn -0.207035 -0.748118 -0.630441
vn 0.673023 -0.296027 -0.677797
vn -0.213620 -0.500147 -0.839178
vn -0.158206 -0.482631 -0.861416
vn 0.805820 -0.300835 -0.510052
vn -0.179988 -0.426440 -0.886427
vn 0.800518 -0.372204 -0.469718
vn -0.293332 -0.885388 -0.360616
vn -0.070072 -0.917476 -0.391571
vn -0.165008 -0.977057 -0.134654
vn -0.323359 -0.807864 0.492742
vn -0.180955 -0.941867 0.283093
vn 0.687098 0.233458 0.688036
vn 0.504065 -0.779263 0.372381
vn 0.939934 -0.214855 -0.265258
vn -0.551165 -0.285623 -0.783988
vn 0.765408 -0.087878 0.637517
vn 0.915476 -0.365190 0.168940
vn 0.908271 0.181572 0.376928
vn 0.761141 0.170553 0.625760
vn 0.946591 -0.028600 0.321165
vn 0.414888 0.048861 0.908560
vn 0.665952 0.135530 0.733580
vn -0.705749 -0.073934 -0.704593
vn -0.562226 -0.064141 -0.824492
vn 0.904724 -0.124366 0.407440
vn 0.030170 0.788701 -0.614037
vn 0.689602 0.232293 0.685922
vn -0.423266 0.240150 -0.873598
vn 0.914781 0.213980 0.342619
vn 0.704696 0.649935 0.284583
vn 0.563314 0.820135 -0.100274
vn 0.542842 0.651731 0.529689
vn 0.487782 0.409990 0.770699
vn 0.943338 0.307196 0.125471
vn 0.550386 0.517153 -0.655460
vn 0.329987 0.392434 -0.858547
vn -0.048619 0.718080 -0.694261
vn 0.605853 0.787758 0.111265
vn 0.060776 0.848224 -0.526139
vn 0.543565 0.491759 -0.680228
vn -0.158498 0.579851 -0.799156
vn -0.054266 0.438523 -0.897080
vn -0.333568 0.118284 -0.935276
vn 0.146493 0.231989 0.961624
vn 0.859694 -0.035190 0.509596
vn 0.827647 0.071911 -0.556623
vn -0.239156 -0.113715 -0.964299
vn 0.145525 0.159407 0.976428
vn 0.408205 0.006347 0.912868
vn 0.933058 0.293558 0.207911
vn 0.777633 0.461039 0.427469
vn 0.919638 0.239451 0.311335
vn 0.633289 0.232435 -0.738186
vn 0.002341 0.189200 -0.981936
vn 0.754052 0.370564 -0.542298
vn 0.494318 0.140571 -0.857840
vn -0.006678 0.313749 -0.949482
vn -0.750203 -0.133058 -0.647681
vn 0.569426 0.079219 0.818217
vn 0.553286 0.828341 -0.087897
vn 0.945620 -0.323882 -0.030039
vn -0.933482 0.010776 -0.358463
vn 0.939990 0.105856 0.324367
vn 0.020444 0.782661 -0.622113
vn 0.570903 0.780701 -0.254120
vn -0.416050 -0.023620 -0.909035
vn 0.049153 0.776785 -0.627845
vn -0.816825 -0.081731 0.571066
vn 0.400121 -0.831776 0.384775
vn 0.731807 0.518843 0.441883
vn 0.914788 -0.018680 0.403502
vn 0.611922 -0.018804 0.790695
vn 0.328277 0.266794 0.906121
vn 0.996524 0.076914 0.031993
vn 0.927149 -0.042120 -0.372318
vn 0.972203 -0.021619 -0.233138
vn 0.554831 -0.724895 0.408276
vn 0.372821 0.367419 0.852061
vn 0.973600 0.017315 0.227603
vn 0.998905 0.040637 0.023187
vn 0.014389 0.971283 0.237491
vn 0.619220 0.465303 0.632502
vn 0.792665 0.431299 0.430887
vn 0.803274 0.431792 0.410253
vn 0.644648 -0.036619 0.763602
vn 0.486810 -0.097147 0.868089
vn 0.110226 0.975912 0.188271
vn 0.172972 0.176624 0.968960
vn 0.382513 -0.548455 0.743559
vn 0.684208 0.169031 0.709428
vn 0.517975 -0.855371 0.006517
vn 0.935777 0.041793 0.350108
vn 0.019093 -0.983915 0.177612
vn 0.665469 0.286077 0.689429
vn 0.906567 0.161118 0.390098
vn 0.382140 -0.917326 0.111721
vn 0.505495 0.206052 0.837865
vn 0.919743 0.000343 -0.392522
vn 0.831158 0.104705 -0.546089
vn 0.866573 -0.204748 0.455115
vn 0.337753 -0.251359 0.907051
vn 0.918214 -0.041744 0.393879
vn 0.243489 -0.114438 0.963129
vn 0.591423 0.777141 0.215107
vn 0.996878 0.078267 -0.010406
vn 0.895986 0.436997 -0.079004
vn 0.788647 0.612780 -0.050368
vn 0.640103 0.448954 0.623465
vn 0.322186 0.230277 -0.918242
vn 0.233760 0.295188 -0.926402
vn 0.106879 0.929070 -0.354127
vn -0.040526 0.880705 -0.471927
vn 0.997776 0.066528 -0.004036
vn 0.405803 0.906214 -0.118745
vn -0.502154 0.026075 -0.864385
vn 0.004499 0.800737 -0.598999
vn 0.267229 -0.676188 0.686555
vn 0.313497 0.744216 -0.589798
vn -0.609582 0.259221 -0.749142
vn -0.675390 -0.710858 0.196288
vn 0.892457 0.410848 0.186347
vn -0.997991 -0.050453 -0.038322
vn -0.988186 -0.110862 0.105819
vn 0.767859 -0.124006 -0.628502
vn -0.148122 -0.139597 -0.979067
vn 0.541224 0.146119 -0.828085
vn 0.704553 0.150155 -0.693584
vn 0.802944 0.478025 0.356053
vn 0.786280 0.469100 0.402130
vn -0.453880 0.637704 0.622356
vn -0.053637 0.379077 0.923810
vn -0.673672 -0.718832 -0.171600
vn -0.710883 -0.697905 -0.087026
vn -0.467417 0.454236 -0.758414
vn -0.411148 0.204593 -0.888313
vn 0.413600 0.687506 -0.596884
vn 0.414212 0.687315 -0.596680
vn 0.878821 0.417677 0.230696
vn 0.326553 -0.727367 0.603573
vn -0.669387 -0.717196 0.193777
vn -0.516526 -0.839691 -0.167692
vn -0.314948 0.216278 -0.924138
vn -0.559221 0.216936 -0.800132
vn 0.278034 0.791239 -0.544644
vn 0.367852 0.754531 -0.543478
vn 0.902964 0.391576 0.176985
vn 0.861106 0.394817 0.320337
vn 0.227013 -0.677427 0.699684
vn -0.381731 0.349432 -0.855675
vn -0.699874 -0.707144 -0.100613
vn 0.306338 -0.628476 0.714965
vn 0.926425 0.329975 0.181256
vn 0.351447 -0.655952 0.667991
vn 0.919699 0.321397 0.225518
vn -0.576106 0.359246 -0.734196
vn -0.642383 -0.762323 -0.078786
vn -0.976850 -0.209095 0.045206
vn -0.976854 -0.206221 0.056816
vn -0.188171 -0.624292 -0.758190
vn 0.038860 -0.554807 -0.831071
vn 0.842103 -0.291295 -0.453882
vn 0.844406 -0.290524 -0.450083
vn 0.900188 0.160053 0.405025
vn 0.880024 0.188047 0.436114
vn -0.407171 0.357956 0.840285
vn -0.388611 0.371484 0.843197
vn 0.614925 -0.755731 -0.225249
vn 0.660433 -0.120512 0.741151
vn 0.586100 0.780835 0.216295
vn 0.561966 0.734132 0.381109
vn 0.581243 0.733484 0.352360
vn 0.621489 0.522295 0.583918
vn 0.561195 0.502482 0.657702
vn 0.851049 -0.284271 -0.441481
vn 0.571202 -0.515745 -0.638541
vn -0.986106 -0.165143 0.017973
vn -0.460324 -0.876032 -0.143770
vn -0.949926 -0.278725 0.141257
vn -0.948060 -0.315662 0.039233
vn -0.801420 -0.371676 0.468596
vn -0.422390 0.836472 0.349142
vn 0.721906 0.687265 0.080737
vn 0.818763 0.365219 0.442992
vn -0.772736 0.178759 0.609036
vn -0.749315 0.165236 0.641267
vn 0.735651 -0.398327 -0.547862
vn 0.723796 -0.371165 -0.581684
vn 0.824683 0.346167 0.447287
vn 0.746534 -0.514905 -0.421378
vn -0.328123 -0.491114 -0.806934
vn -0.426694 -0.540345 -0.725231
vn -0.758079 0.173949 0.628537
vn 0.823444 -0.127745 -0.552830
vn -0.725508 0.018166 0.687974
vn -0.994435 0.052027 -0.091611
vn -0.250204 -0.271897 -0.929231
vn 0.726084 -0.428024 0.538142
vn 0.723385 -0.317232 -0.613252
vn -0.454202 -0.294644 -0.840765
vn 0.948445 0.307492 -0.076813
vn 0.952208 0.293062 -0.086104
vn -0.741815 0.131950 0.657495
vn 0.828586 0.367475 0.422383
vn 0.723915 -0.477908 -0.497545
vn -0.292371 -0.642305 -0.708494
vn -0.958676 0.214012 -0.187456
vn 0.486812 0.673809 -0.555874
vn 0.409333 0.735892 -0.539361
vn 0.922733 -0.154055 0.353313
vn 0.897428 -0.252982 0.361419
vn -0.476462 -0.522274 0.707258
vn -0.365558 -0.637083 0.678596
vn 0.957691 -0.270531 0.098185
vn -0.336455 -0.219642 0.915727
vn 0.356337 0.117307 -0.926964
vn 0.953773 -0.223954 0.200406
vn 0.948165 -0.301959 0.099017
vn -0.081760 -0.779571 0.620954
vn 0.968751 -0.129535 0.211525
vn -0.385137 -0.660942 0.644069
vn -0.956747 0.221570 -0.188526
vn 0.977056 -0.031333 0.210665
vn -0.249675 -0.582588 0.773468
vn 0.988383 -0.052981 0.142449
vn 0.344942 0.534221 -0.771766
vn 0.179452 0.422366 -0.888484
vn -0.574180 0.243169 -0.781784
vn -0.886444 -0.149825 -0.437915
vn -0.307993 -0.629769 0.713114
vn -0.948165 -0.293513 0.121793
vn 0.454280 0.764524 -0.457312
vn 0.914512 -0.219055 0.340123
vn -0.422294 -0.437323 0.793988
vn -0.914029 0.364988 -0.177019
vn 0.662131 0.433558 -0.611236
vn -0.965158 0.175889 -0.193734
vn -0.958457 0.184481 -0.217550
vn 0.458172 0.456765 -0.762525
vn 0.874443 -0.452128 0.175870
vn 0.942563 -0.314843 0.111573
vn -0.547470 -0.636463 0.543315
vn -0.476953 -0.690518 0.543783
vn -0.909472 0.391809 -0.139093
vn -0.321289 0.536130 -0.780601
vn -0.937465 -0.313994 0.150221
vn 0.800924 0.244496 -0.546574
vn 0.074245 -0.899667 -0.430217
vn 0.018548 -0.900645 -0.434160
vn 0.673258 0.636808 0.375764
vn 0.431072 0.657620 -0.617829
vn -0.534367 0.228276 0.813844
vn 0.682693 0.657719 0.318332
vn -0.652501 0.233212 0.721010
vn 0.074968 -0.900916 -0.427469
vn 0.075523 -0.900998 -0.427198
vn 0.592071 0.753641 0.285442
vn 0.430511 0.042683 0.901576
vn -0.642588 0.421943 0.639566
vn -0.067256 -0.995993 -0.058954
vn -0.591521 -0.051791 -0.804625
vn 0.070934 -0.416403 -0.906409
vn -0.542282 -0.084299 0.835957
vn -0.946320 -0.323067 0.010354
vn -0.457069 -0.589868 -0.665691
vn -0.424631 -0.609446 -0.669525
vn -0.805782 -0.582380 0.107465
vn -0.399460 0.216520 -0.890814
vn -0.933924 -0.351636 0.064327
vn 0.505790 -0.641021 -0.577294
vn 0.570433 -0.582245 -0.579307
vn 0.060062 -0.326370 -0.943332
vn 0.039920 -0.691889 0.720900
vn 0.849620 0.075655 0.521940
vn 0.114033 0.154208 0.981436
vn -0.028615 0.420982 0.906617
vn -0.790306 -0.322706 0.520843
vn -0.550043 -0.285433 -0.784844
vn 0.062056 -0.170536 0.983395
vn -0.282409 -0.542311 0.791292
vn -0.296907 0.552163 0.779078
vn 0.034588 0.143606 0.989030
vn -0.494931 -0.033815 0.868274
vn 0.289205 0.042796 0.956310
vn 0.321248 0.182135 0.929315
vn -0.760385 0.087247 -0.643586
vn -0.594839 -0.066245 -0.801111
vn 0.005674 -0.171499 0.985168
vn -0.761901 0.531768 -0.369769
vn 0.328246 0.169968 0.929175
vn -0.611855 -0.107210 -0.783670
vn -0.037128 0.180311 0.982909
vn -0.254718 0.636443 0.728052
vn 0.044380 0.738284 0.673028
vn 0.245747 0.595895 0.764537
vn 0.176331 0.638881 0.748825
vn -0.455523 0.564524 0.688340
vn -0.813403 0.504138 -0.290207
vn -0.474607 0.542672 -0.693004
vn -0.372063 0.604276 -0.704570
vn -0.340841 0.783874 0.519009
vn -0.669698 0.680299 -0.297821
vn -0.772802 0.596517 -0.216667
vn -0.605227 0.363142 -0.708398
vn -0.394529 0.534483 -0.747446
vn -0.578307 0.023879 -0.815470
vn 0.051738 -0.030125 0.998206
vn -0.768319 0.230779 0.597016
vn -0.706323 0.571182 -0.418161
vn -0.504507 0.444222 -0.740364
vn 0.031652 0.131330 0.990833
vn 0.288422 0.055576 0.955889
vn -0.756197 0.211948 0.619067
vn -0.779998 0.108247 0.616349
vn -0.493196 0.303704 0.815182
vn -0.993842 0.107997 -0.024792
vn -0.111473 0.177081 -0.977863
vn -0.903986 0.167107 -0.393554
vn -0.723526 -0.182868 -0.665635
vn -0.035011 -0.246098 -0.968612
vn -0.110363 -0.215005 -0.970357
vn -0.069840 0.058800 0.995824
vn 0.008848 -0.573387 -0.819237
vn -0.801158 0.216839 -0.557787
vn -0.811233 -0.576327 0.098730
vn 0.206381 -0.579818 -0.788174
vn -0.994813 0.065564 -0.077776
vn -0.233695 0.949241 -0.210544
vn -0.891597 -0.306869 0.332996
vn -0.835033 0.490705 0.248853
vn -0.140530 -0.982030 -0.125973
vn -0.854899 -0.365467 -0.368214
vn -0.797530 -0.444814 -0.407537
vn -0.854300 -0.141652 0.500106
vn -0.466122 -0.013458 0.884618
vn -0.164005 0.269237 0.949007
vn -0.976224 -0.164175 0.141540
vn -0.954393 -0.289829 -0.071641
vn -0.941672 -0.308628 -0.134171
vn -0.124358 -0.730834 0.671131
vn -0.216226 0.370351 0.903375
vn -0.919352 0.026706 0.392528
vn -0.979395 0.050451 0.195550
vn 0.036470 0.971172 0.235573
vn -0.495894 0.470824 0.729667
vn -0.701903 0.438709 0.561130
vn -0.715932 0.439325 0.542618
vn -0.503206 -0.030923 0.863613
vn -0.330287 -0.093089 0.939279
vn -0.066399 0.976788 0.203660
vn -0.001049 0.177487 0.984123
vn -0.253543 -0.545298 0.798978
vn -0.549513 0.175149 0.816920
vn -0.434810 -0.872356 -0.223461
vn -0.986243 0.087630 0.140160
vn 0.003558 -0.984460 0.175572
vn -0.533364 0.292019 0.793881
vn -0.823814 0.169699 0.540863
vn -0.210291 -0.974928 0.072758
vn -0.350936 0.210300 0.912479
vn -0.971929 0.008120 -0.235135
vn -0.910017 0.108109 -0.400228
vn -0.776778 -0.196603 0.598300
vn -0.178276 -0.248809 0.952004
vn -0.836628 -0.033036 0.546775
vn -0.074369 -0.112841 0.990826
vn -0.537631 0.782739 0.313485
vn -0.982838 0.088086 0.162082
vn -0.891802 0.445866 0.076761
vn -0.779406 0.620554 0.086252
vn -0.518186 0.454705 0.724380
vn -0.500703 0.219014 -0.837454
vn -0.386974 0.303012 -0.870882
vn -0.157359 0.930381 -0.331105
vn -0.033032 0.880669 -0.472579
vn -0.587240 0.008708 0.809366
vn -0.266834 0.925476 -0.268875
vn -0.589807 -0.041066 0.806499
vn -0.857245 0.383536 0.343555
vn 0.602903 -0.503006 -0.619268
vn -0.382625 0.883285 0.270936
vn -0.766729 -0.041833 0.640606
vn 0.297966 -0.862870 0.408255
vn 0.929414 0.124103 -0.347545
vn -0.638000 -0.453772 0.622131
vn -0.408634 -0.907662 0.095751
vn 0.441479 0.777864 0.447241
vn -0.157826 0.068738 0.985072
vn 0.016681 0.726990 0.686446
vn 0.137851 0.838260 0.527558
vn -0.086725 0.905393 -0.415622
vn -0.051249 -0.068697 -0.996320
vn -0.732611 0.351152 -0.583072
vn -0.965876 0.247444 0.076513
vn 0.117660 -0.831575 0.542807
vn 0.109378 -0.867328 0.485570
vn -0.805551 0.111787 0.581886
vn -0.637410 0.086895 0.765610
vn -0.427149 0.883602 0.191809
vn -0.462610 0.863078 0.202705
vn 0.223773 0.735500 -0.639504
vn 0.934641 -0.286130 -0.211130
vn 0.161995 -0.921029 0.354209
vn 0.297147 -0.768599 0.566532
vn -0.595897 0.185392 0.781369
vn -0.741679 -0.022755 0.670369
vn -0.533581 0.839727 0.100747
vn -0.506794 0.855970 0.102351
vn 0.284424 0.106495 -0.952765
vn 0.327138 0.775386 -0.540146
vn 0.635677 0.435814 -0.637166
vn -0.757892 0.135321 0.638191
vn 0.102485 -0.874659 0.473781
vn 0.837945 -0.287384 -0.463960
vn 0.474072 0.727098 -0.496572
vn 0.876822 -0.223339 -0.425797
vn 0.430642 0.833684 -0.345714
vn -0.800041 -0.001009 0.599944
vn 0.154901 -0.885039 0.438989
vn -0.076644 -0.979092 -0.188428
vn -0.128373 -0.940804 0.313702
vn 0.284835 -0.317334 0.904526
vn 0.302182 -0.072971 0.950453
vn 0.501008 0.736889 0.453857
vn 0.477361 0.709361 0.518587
vn 0.352052 0.817854 -0.455164
vn 0.311903 0.798779 -0.514459
vn -0.114618 -0.220792 -0.968563
vn -0.093072 -0.338297 -0.936426
vn 0.831650 0.327361 0.448545
vn 0.578414 0.417176 -0.701000
vn -0.413707 0.752264 -0.512782
vn -0.344693 0.766000 -0.542615
vn -0.345331 0.717125 -0.605375
vn -0.035300 0.697192 -0.716015
vn -0.027068 0.624701 -0.780395
vn 0.548977 0.628046 0.551528
vn 0.545516 0.395992 0.738649
vn -0.307072 -0.951375 -0.024334
vn 0.577564 -0.754605 0.311433
vn -0.127888 -0.980457 -0.149493
vn -0.122848 -0.991600 -0.040463
vn 0.026866 -0.947553 -0.318467
vn -0.820138 -0.063792 -0.568598
vn -0.249421 0.926907 -0.280415
vn 0.108106 0.789500 -0.604155
vn -0.236856 -0.789703 -0.565923
vn -0.208800 -0.771798 -0.600608
vn 0.536819 0.567104 0.624674
vn 0.500045 0.572542 0.649731
vn 0.155106 0.864705 -0.477731
vn 0.599744 0.639512 0.480969
vn 0.125414 -0.220299 0.967336
vn 0.132694 -0.462699 0.876528
vn -0.291099 -0.786445 -0.544762
vn 0.341110 0.755823 0.558905
vn -0.156632 -0.802030 -0.576380
vn -0.403838 -0.910913 -0.084567
vn -0.112004 -0.229666 0.966803
vn 0.823659 0.390007 -0.411680
vn 0.442566 0.600610 0.665885
vn -0.134668 -0.373957 0.917617
vn 0.137122 0.990124 -0.029201
vn 0.148690 0.988745 -0.016596
vn -0.145230 -0.781754 -0.606440
vn 0.064461 0.916370 -0.395110
vn 0.385365 0.647201 0.657742
vn 0.289914 -0.276969 0.916100
vn 0.744536 -0.006182 -0.667554
vn -0.675052 0.424537 -0.603385
vn -0.605076 0.469447 -0.643041
vn -0.626963 0.123809 0.769148
vn -0.599703 0.071190 0.797050
vn 0.773680 -0.169477 0.610489
vn 0.627833 -0.288363 0.722961
vn -0.733893 -0.124608 0.667738
vn 0.694075 0.254147 0.673549
vn -0.666463 -0.447489 -0.596306
vn -0.549533 0.042230 0.834404
vn -0.408653 0.535129 0.739350
vn 0.743759 0.448821 0.495360
vn -0.693649 0.424018 0.582289
vn 0.633559 -0.334029 0.697873
vn 0.680409 0.096297 -0.726478
vn -0.496432 0.811998 0.306942
vn 0.774042 0.574943 0.265140
vn -0.652611 0.631166 0.419199
vn -0.680684 -0.680375 -0.271587
vn -0.690133 -0.671005 -0.271051
vn -0.192211 -0.871855 -0.450471
vn 0.382434 -0.851519 -0.358691
vn 0.834156 0.441213 0.330930
vn 0.672897 -0.668274 -0.317206
vn -0.683709 0.468370 -0.559618
vn -0.672683 0.206455 0.710545
vn 0.740151 -0.155156 0.654296
vn 0.750390 0.106450 -0.652367
vn -0.870032 0.214070 -0.444094
vn 0.806978 -0.133502 -0.575295
vn 0.700535 -0.152761 -0.697076
vn -0.733953 0.114422 -0.669493
vn -0.651188 -0.133211 0.747134
vn -0.798380 0.021592 0.601766
vn 0.754719 -0.360255 0.548284
vn 0.736513 -0.369501 0.566584
vn 0.755769 0.132447 -0.641305
vn -0.054857 0.050613 -0.997211
vn 0.931562 -0.338318 -0.133169
vn -0.973395 0.105763 -0.203264
vn -0.227936 -0.970089 0.083504
vn -0.202869 -0.976714 0.069813
vn -0.471883 0.833657 0.286953
vn -0.703543 0.394787 -0.590906
vn 0.827372 0.460997 0.320839
vn -0.552672 0.817359 0.162720
vn 0.907891 0.391468 0.149955
vn -0.182365 -0.959502 0.214706
vn -0.210093 -0.945525 0.248684
vn -0.482601 0.875233 0.032602
vn -0.003721 0.548665 0.836034
vn 0.835455 0.547175 -0.051133
vn -0.537105 -0.817995 0.205916

f 1/1/1 2/2/1 3/3/1
f 4/4/2 5/5/2 6/6/2
f 4/4/3 6/7/3 7/8/3
f 5/9/4 8/10/4 9/11/4
f 10/12/5 11/13/5 9/14/5
f 6/6/6 11/15/6 7/8/6
f 6/6/7 12/16/7 11/13/7
f 12/17/8 5/5/8 9/14/8
f 6/6/9 5/5/9 12/17/9
f 11/13/10 12/18/10 9/19/10
f 13/20/11 14/21/11 15/22/11
f 14/21/12 13/20/12 16/23/12
f 16/24/13 13/20/13 17/25/13
f 15/22/14 14/21/14 18/26/14
f 14/21/15 19/27/15 18/26/15
f 18/26/16 20/28/16 21/29/16
f 18/26/17 19/27/17 20/28/17
f 20/28/18 3/30/18 21/29/18
f 5/9/19 22/31/19 23/32/19
f 24/33/20 25/34/20 26/35/20
f 27/36/21 25/34/21 9/37/21
f 28/38/22 27/39/22 29/40/22
f 30/41/23 25/34/23 24/33/23
f 25/34/24 30/41/24 10/42/24
f 30/41/25 24/33/25 31/43/25
f 24/33/26 26/44/26 32/45/26
f 33/46/27 34/47/27 5/9/27
f 4/4/28 22/31/28 5/9/28
f 26/35/29 25/34/29 27/39/29
f 33/46/30 35/48/30 34/47/30
f 32/45/31 26/35/31 28/38/31
f 23/32/32 33/46/32 5/9/32
f 26/35/33 27/39/33 28/38/33
f 28/38/34 29/40/34 36/49/34
f 35/50/35 37/51/35 29/40/35
f 28/38/36 38/52/36 32/45/36
f 36/49/37 38/52/37 28/38/37
f 36/49/38 37/53/38 39/54/38
f 39/55/39 37/56/39 40/57/39
f 41/58/40 42/59/40 39/55/40
f 39/55/41 40/57/41 41/58/41
f 36/49/42 29/40/42 37/51/42
f 37/56/43 35/48/43 33/46/43
f 37/56/44 33/46/44 40/57/44
f 40/57/45 33/46/45 43/60/45
f 40/57/46 43/60/46 41/58/46
f 33/46/47 23/32/47 43/60/47
f 44/61/48 45/62/48 30/63/48
f 15/64/49 46/65/49 45/62/49
f 46/66/50 47/67/50 10/68/50
f 47/67/51 7/69/51 11/70/51
f 45/62/52 44/61/52 17/71/52
f 44/61/53 30/63/53 31/72/53
f 13/73/54 15/64/54 45/62/54
f 46/65/55 10/74/55 45/62/55
f 45/62/56 10/74/56 30/63/56
f 47/67/57 11/70/57 10/68/57
f 47/67/58 48/75/58 7/69/58
f 46/66/59 15/76/59 47/67/59
f 18/77/60 47/67/60 15/76/60
f 47/67/61 18/77/61 48/75/61
f 18/77/62 21/78/62 48/75/62
f 13/73/63 45/62/63 17/71/63
f 49/79/64 35/50/64 29/40/64
f 8/80/65 27/81/65 9/82/65
f 34/47/66 50/83/66 5/84/66
f 27/36/67 49/79/67 29/40/67
f 35/48/68 51/85/68 52/86/68
f 35/50/69 49/79/69 51/87/69
f 52/86/70 50/83/70 34/47/70
f 35/48/71 52/86/71 34/47/71
f 5/84/72 50/83/72 8/10/72
f 53/88/73 27/81/73 8/80/73
f 53/88/74 49/79/74 27/36/74
f 54/89/75 55/90/75 56/91/75
f 57/92/76 55/90/76 58/93/76
f 59/94/77 60/95/77 55/90/77
f 61/96/78 54/89/78 56/91/78
f 39/97/79 61/96/79 36/98/79
f 36/98/80 61/96/80 56/91/80
f 36/98/81 56/91/81 38/99/81
f 62/100/82 63/101/82 64/102/82
f 65/103/83 64/102/83 54/89/83
f 61/96/84 65/103/84 54/89/84
f 66/104/85 67/105/85 62/100/85
f 55/90/86 60/95/86 68/106/86
f 69/107/87 68/106/87 60/95/87
f 69/107/88 70/108/88 68/106/88
f 58/109/89 55/90/89 68/106/89
f 68/106/90 71/110/90 58/111/90
f 62/100/91 67/105/91 63/101/91
f 64/102/92 63/101/92 69/107/92
f 70/108/93 71/110/93 68/106/93
f 58/111/94 71/110/94 72/112/94
f 56/91/95 57/92/95 38/113/95
f 55/90/96 57/114/96 56/91/96
f 73/115/97 74/116/97 38/113/97
f 58/109/98 72/112/98 73/115/98
f 57/117/99 58/111/99 73/115/99
f 57/92/100 73/115/100 38/113/100
f 73/115/101 72/112/101 74/116/101
f 39/97/102 75/118/102 61/96/102
f 75/118/103 39/97/103 76/119/103
f 64/102/104 59/94/104 54/89/104
f 64/102/105 60/95/105 59/94/105
f 54/89/106 59/94/106 55/90/106
f 64/102/107 69/107/107 60/95/107
f 65/103/108 66/104/108 62/100/108
f 65/103/109 61/96/109 75/118/109
f 75/118/110 76/119/110 65/103/110
f 66/104/111 65/103/111 76/119/111
f 62/100/112 64/102/112 65/103/112
f 39/97/113 42/120/113 76/119/113
f 77/121/114 76/119/114 42/120/114
f 67/105/115 76/119/115 77/121/115
f 66/104/116 76/119/116 67/105/116
f 9/82/117 25/34/117 10/42/117
f 51/122/118 49/123/118 78/124/118
f 79/125/119 50/126/119 52/127/119
f 52/127/120 51/122/120 79/125/120
f 80/128/121 81/129/121 53/130/121
f 51/122/122 78/124/122 79/125/122
f 82/131/123 50/126/123 79/125/123
f 50/126/124 82/131/124 8/132/124
f 53/133/125 78/124/125 49/123/125
f 83/134/126 84/135/126 85/136/126
f 84/135/127 83/134/127 86/137/127
f 86/137/128 87/138/128 84/135/128
f 88/139/129 84/135/129 87/138/129
f 87/138/130 89/140/130 88/139/130
f 90/141/131 88/139/131 89/140/131
f 91/142/132 92/143/132 90/141/132
f 90/141/133 89/140/133 91/142/133
f 85/136/134 92/144/134 91/145/134
f 91/145/135 83/134/135 85/136/135
f 80/128/136 93/146/136 83/134/136
f 94/147/137 83/134/137 93/146/137
f 93/146/138 87/138/138 94/147/138
f 87/138/139 93/146/139 95/148/139
f 95/148/140 96/149/140 87/138/140
f 89/140/141 87/138/141 96/149/141
f 97/150/142 91/142/142 89/140/142
f 97/151/143 81/129/143 80/128/143
f 8/132/144 82/131/144 80/128/144
f 93/146/145 80/128/145 98/152/145
f 98/152/146 95/148/146 93/146/146
f 95/148/147 82/131/147 79/125/147
f 79/125/148 78/124/148 95/148/148
f 96/149/149 95/148/149 78/124/149
f 78/124/150 53/133/150 81/153/150
f 81/153/151 96/149/151 78/124/151
f 80/128/152 53/130/152 8/154/152
f 94/147/153 87/138/153 86/137/153
f 86/137/154 83/134/154 94/147/154
f 97/151/155 83/134/155 91/145/155
f 89/140/156 96/149/156 97/150/156
f 80/128/157 83/134/157 97/151/157
f 81/153/158 97/150/158 96/149/158
f 82/131/159 95/148/159 98/152/159
f 98/152/160 80/128/160 82/131/160
f 85/136/161 99/155/161 100/156/161
f 99/155/162 85/136/162 84/135/162
f 84/135/163 101/157/163 99/155/163
f 101/157/164 84/135/164 88/139/164
f 88/139/165 90/141/165 101/157/165
f 102/158/166 101/157/166 90/141/166
f 90/141/167 103/159/167 102/158/167
f 103/159/168 90/141/168 92/143/168
f 92/144/169 85/136/169 103/160/169
f 100/156/170 103/160/170 85/136/170
f 104/161/171 105/162/171 106/163/171
f 107/164/172 106/163/172 108/165/172
f 109/166/173 110/167/173 103/168/173
f 109/166/174 111/169/174 104/161/174
f 104/161/175 110/167/175 109/166/175
f 104/161/176 111/169/176 112/170/176
f 113/171/177 112/170/177 111/169/177
f 106/163/178 110/167/178 104/161/178
f 104/161/179 112/170/179 105/162/179
f 105/172/180 113/173/180 111/174/180
f 113/173/181 105/172/181 112/175/181
f 105/172/182 111/174/182 109/176/182
f 109/176/183 106/177/183 105/172/183
f 109/176/184 100/178/184 106/177/184
f 103/179/185 100/178/185 109/176/185
f 102/180/186 103/168/186 110/167/186
f 106/163/187 114/181/187 108/165/187
f 115/182/188 116/183/188 106/177/188
f 116/184/189 117/185/189 118/186/189
f 108/165/190 114/181/190 119/187/190
f 119/187/191 120/188/191 108/165/191
f 118/189/192 121/190/192 114/191/192
f 114/191/193 121/190/193 117/192/193
f 116/193/194 115/194/194 119/187/194
f 120/188/195 119/187/195 115/194/195
f 121/195/196 118/186/196 117/185/196
f 108/165/197 101/196/197 102/180/197
f 115/182/198 106/177/198 100/178/198
f 100/178/199 99/197/199 115/182/199
f 120/188/200 99/198/200 101/196/200
f 106/163/201 107/164/201 110/167/201
f 108/165/202 120/188/202 101/196/202
f 120/188/203 115/194/203 99/198/203
f 107/164/204 102/180/204 110/167/204
f 102/180/205 107/164/205 108/165/205
f 118/199/206 106/177/206 116/183/206
f 114/181/207 106/163/207 118/200/207
f 114/191/208 117/192/208 119/201/208
f 117/192/209 116/202/209 119/201/209
f 122/203/210 123/204/210 124/205/210
f 125/206/211 126/207/211 123/208/211
f 125/206/212 123/208/212 127/209/212
f 125/210/213 128/211/213 126/212/213
f 128/211/214 129/213/214 126/212/214
f 128/214/215 124/215/215 129/216/215
f 122/217/216 124/215/216 128/214/216
f 130/218/217 128/211/217 125/219/217
f 131/220/218 122/221/218 130/222/218
f 132/223/219 125/224/219 127/225/219
f 132/226/220 131/227/220 125/219/220
f 133/228/221 131/227/221 132/226/221
f 133/229/222 122/221/222 131/220/222
f 130/218/223 125/219/223 131/227/223
f 128/214/224 130/222/224 122/221/224
f 127/209/225 123/204/225 122/203/225
f 16/230/226 133/228/226 14/231/226
f 16/232/227 3/3/227 133/229/227
f 14/231/228 133/228/228 132/226/228
f 14/233/229 132/223/229 19/234/229
f 132/223/230 127/225/230 19/234/230
f 20/235/231 19/234/231 127/225/231
f 20/235/232 127/225/232 122/236/232
f 3/3/233 122/221/233 133/229/233
f 3/237/234 20/235/234 122/236/234
f 134/238/235 135/239/235 136/240/235
f 137/241/236 135/242/236 134/243/236
f 138/244/237 139/245/237 137/246/237
f 138/247/238 136/248/238 139/249/238
f 134/238/239 136/240/239 123/208/239
f 138/247/240 123/250/240 136/248/240
f 123/250/241 138/247/241 124/251/241
f 134/238/242 123/208/242 126/252/242
f 129/253/243 134/243/243 126/254/243
f 137/241/244 134/243/244 129/253/244
f 138/244/245 137/246/245 129/255/245
f 138/244/246 129/255/246 124/256/246
f 136/257/247 140/258/247 139/259/247
f 136/257/248 141/260/248 140/258/248
f 142/261/249 139/259/249 140/258/249
f 135/262/250 143/263/250 141/260/250
f 141/264/251 143/265/251 142/266/251
f 142/266/252 140/267/252 141/264/252
f 137/268/253 143/263/253 135/262/253
f 135/262/254 141/260/254 136/257/254
f 139/259/255 142/261/255 137/268/255
f 137/268/256 144/269/256 143/263/256
f 137/268/257 142/261/257 144/269/257
f 143/265/258 145/270/258 146/271/258
f 146/271/259 142/266/259 143/265/259
f 143/263/260 144/269/260 145/272/260
f 144/269/261 146/273/261 145/272/261
f 146/273/262 144/269/262 142/261/262
f 3/274/263 16/275/263 17/276/263
f 147/5/264 4/4/264 148/6/264
f 148/7/265 4/4/265 7/8/265
f 149/10/266 147/9/266 150/11/266
f 151/13/267 152/12/267 150/14/267
f 151/15/268 148/6/268 7/8/268
f 153/16/269 148/6/269 151/13/269
f 147/5/270 153/17/270 150/14/270
f 147/5/271 148/6/271 153/17/271
f 153/18/272 151/13/272 150/19/272
f 154/21/273 155/20/273 156/22/273
f 155/20/274 154/21/274 157/23/274
f 155/20/275 157/24/275 17/25/275
f 154/21/276 156/22/276 158/26/276
f 159/27/277 154/21/277 158/26/277
f 160/28/278 158/26/278 21/29/278
f 159/27/279 158/26/279 160/28/279
f 3/30/280 160/28/280 21/29/280
f 22/31/281 147/9/281 23/32/281
f 161/34/282 24/33/282 162/35/282
f 161/34/283 163/36/283 150/37/283
f 163/39/284 164/38/284 165/40/284
f 161/34/285 166/41/285 24/33/285
f 166/41/286 161/34/286 152/42/286
f 24/33/287 166/41/287 31/43/287
f 162/44/288 24/33/288 32/45/288
f 167/47/289 168/46/289 147/9/289
f 22/31/290 4/4/290 147/9/290
f 161/34/291 162/35/291 163/39/291
f 169/48/292 168/46/292 167/47/292
f 162/35/293 32/45/293 164/38/293
f 168/46/294 23/32/294 147/9/294
f 163/39/295 162/35/295 164/38/295
f 165/40/296 164/38/296 170/49/296
f 171/51/297 169/50/297 165/40/297
f 38/52/298 164/38/298 32/45/298
f 38/52/299 170/49/299 164/38/299
f 171/53/300 170/49/300 172/54/300
f 171/56/301 172/55/301 173/57/301
f 42/59/302 41/58/302 172/55/302
f 173/57/303 172/55/303 41/58/303
f 165/40/304 170/49/304 171/51/304
f 169/48/305 171/56/305 168/46/305
f 168/46/306 171/56/306 173/57/306
f 168/46/307 173/57/307 43/60/307
f 43/60/308 173/57/308 41/58/308
f 23/32/309 168/46/309 43/60/309
f 174/62/310 44/61/310 166/63/310
f 175/65/311 156/64/311 174/62/311
f 176/67/312 175/66/312 152/68/312
f 7/69/313 176/67/313 151/70/313
f 44/61/314 174/62/314 17/71/314
f 166/63/315 44/61/315 31/72/315
f 156/64/316 155/73/316 174/62/316
f 152/74/317 175/65/317 174/62/317
f 152/74/318 174/62/318 166/63/318
f 151/70/319 176/67/319 152/68/319
f 48/75/320 176/67/320 7/69/320
f 156/76/321 175/66/321 176/67/321
f 176/67/322 158/77/322 156/76/322
f 158/77/323 176/67/323 48/75/323
f 21/78/324 158/77/324 48/75/324
f 174/62/325 155/73/325 17/71/325
f 169/50/326 177/79/326 165/40/326
f 163/81/327 149/80/327 150/82/327
f 178/83/328 167/47/328 147/84/328
f 177/79/329 163/36/329 165/40/329
f 179/85/330 169/48/330 180/86/330
f 177/79/331 169/50/331 179/87/331
f 178/83/332 180/86/332 167/47/332
f 180/86/333 169/48/333 167/47/333
f 178/83/334 147/84/334 149/10/334
f 163/81/335 181/88/335 149/80/335
f 177/79/336 181/88/336 163/36/336
f 182/90/337 183/89/337 184/91/337
f 182/90/338 185/92/338 186/93/338
f 187/95/339 188/94/339 182/90/339
f 183/89/340 189/96/340 184/91/340
f 189/96/341 172/97/341 170/98/341
f 189/96/342 170/98/342 184/91/342
f 184/91/343 170/98/343 38/99/343
f 63/101/344 190/100/344 191/102/344
f 191/102/345 192/103/345 183/89/345
f 192/103/346 189/96/346 183/89/346
f 67/105/347 193/104/347 190/100/347
f 187/95/348 182/90/348 194/106/348
f 194/106/349 69/107/349 187/95/349
f 70/108/350 69/107/350 194/106/350
f 182/90/351 186/109/351 194/106/351
f 71/110/352 194/106/352 186/111/352
f 67/105/353 190/100/353 63/101/353
f 63/101/354 191/102/354 69/107/354
f 71/110/355 70/108/355 194/106/355
f 71/110/356 186/111/356 72/112/356
f 185/92/357 184/91/357 38/113/357
f 185/114/358 182/90/358 184/91/358
f 74/116/359 195/115/359 38/113/359
f 72/112/360 186/109/360 195/115/360
f 186/111/361 185/117/361 195/115/361
f 195/115/362 185/92/362 38/113/362
f 72/112/363 195/115/363 74/116/363
f 196/118/364 172/97/364 189/96/364
f 172/97/365 196/118/365 197/119/365
f 188/94/366 191/102/366 183/89/366
f 187/95/367 191/102/367 188/94/367
f 188/94/368 183/89/368 182/90/368
f 69/107/369 191/102/369 187/95/369
f 193/104/370 192/103/370 190/100/370
f 189/96/371 192/103/371 196/118/371
f 197/119/372 196/118/372 192/103/372
f 192/103/373 193/104/373 197/119/373
f 191/102/374 190/100/374 192/103/374
f 42/120/375 172/97/375 197/119/375
f 197/119/376 77/121/376 42/120/376
f 197/119/377 67/105/377 77/121/377
f 197/119/378 193/104/378 67/105/378
f 161/34/379 150/82/379 152/42/379
f 177/123/380 179/122/380 198/124/380
f 178/126/381 199/125/381 180/127/381
f 179/122/382 180/127/382 199/125/382
f 200/129/383 201/128/383 181/130/383
f 198/124/384 179/122/384 199/125/384
f 178/126/385 202/131/385 199/125/385
f 202/131/386 178/126/386 149/132/386
f 198/124/387 181/133/387 177/123/387
f 203/135/388 204/134/388 205/136/388
f 204/134/389 203/135/389 206/137/389
f 207/138/390 206/137/390 203/135/390
f 203/135/391 208/139/391 207/138/391
f 209/140/392 207/138/392 208/139/392
f 208/139/393 210/141/393 209/140/393
f 211/143/394 212/142/394 210/141/394
f 209/140/395 210/141/395 212/142/395
f 211/144/396 205/136/396 212/145/396
f 204/134/397 212/145/397 205/136/397
f 213/146/398 201/128/398 204/134/398
f 204/134/399 214/147/399 213/146/399
f 207/138/400 213/146/400 214/147/400
f 213/146/401 207/138/401 215/148/401
f 216/149/402 215/148/402 207/138/402
f 207/138/403 209/140/403 216/149/403
f 212/142/404 217/150/404 209/140/404
f 200/129/405 217/151/405 201/128/405
f 202/131/406 149/132/406 201/128/406
f 201/128/407 213/146/407 218/152/407
f 215/148/408 218/152/408 213/146/408
f 202/131/409 215/148/409 199/125/409
f 198/124/410 199/125/410 215/148/410
f 215/148/411 216/149/411 198/124/411
f 181/133/412 198/124/412 200/153/412
f 216/149/413 200/153/413 198/124/413
f 181/130/414 201/128/414 149/154/414
f 207/138/415 214/147/415 206/137/415
f 204/134/416 206/137/416 214/147/416
f 204/134/417 217/151/417 212/145/417
f 216/149/418 209/140/418 217/150/418
f 204/134/419 201/128/419 217/151/419
f 217/150/420 200/153/420 216/149/420
f 215/148/421 202/131/421 218/152/421
f 201/128/422 218/152/422 202/131/422
f 219/155/423 205/136/423 220/156/423
f 205/136/424 219/155/424 203/135/424
f 221/157/425 203/135/425 219/155/425
f 203/135/426 221/157/426 208/139/426
f 210/141/427 208/139/427 221/157/427
f 221/157/428 222/158/428 210/141/428
f 223/159/429 210/141/429 222/158/429
f 210/141/430 223/159/430 211/143/430
f 205/136/431 211/144/431 223/160/431
f 223/160/432 220/156/432 205/136/432
f 224/162/433 225/161/433 226/163/433
f 226/163/434 227/164/434 228/165/434
f 229/167/435 230/166/435 223/168/435
f 231/169/436 230/166/436 225/161/436
f 229/167/437 225/161/437 230/166/437
f 231/169/438 225/161/438 232/170/438
f 232/170/439 233/171/439 231/169/439
f 229/167/440 226/163/440 225/161/440
f 232/170/441 225/161/441 224/162/441
f 233/173/442 224/172/442 231/174/442
f 224/172/443 233/173/443 232/175/443
f 231/174/444 224/172/444 230/176/444
f 226/177/445 230/176/445 224/172/445
f 220/178/446 230/176/446 226/177/446
f 220/178/447 223/179/447 230/176/447
f 223/168/448 222/180/448 229/167/448
f 234/181/449 226/163/449 228/165/449
f 235/183/450 236/182/450 226/177/450
f 237/185/451 235/184/451 238/186/451
f 234/181/452 228/165/452 239/187/452
f 240/188/453 239/187/453 228/165/453
f 241/190/454 238/189/454 234/191/454
f 241/190/455 234/191/455 237/192/455
f 236/194/456 235/193/456 239/187/456
f 239/187/457 240/188/457 236/194/457
f 238/186/458 241/195/458 237/185/458
f 221/196/459 228/165/459 222/180/459
f 226/177/460 236/182/460 220/178/460
f 219/197/461 220/178/461 236/182/461
f 219/198/462 240/188/462 221/196/462
f 227/164/463 226/163/463 229/167/463
f 240/188/464 228/165/464 221/196/464
f 236/194/465 240/188/465 219/198/465
f 222/180/466 227/164/466 229/167/466
f 227/164/467 222/180/467 228/165/467
f 226/177/468 238/199/468 235/183/468
f 226/163/469 234/181/469 238/200/469
f 237/192/470 234/191/470 239/201/470
f 235/202/471 237/192/471 239/201/471
f 242/204/472 243/203/472 244/205/472
f 245/207/473 246/206/473 242/208/473
f 242/208/474 246/206/474 247/209/474
f 248/211/475 246/210/475 245/212/475
f 249/213/476 248/211/476 245/212/476
f 244/215/477 248/214/477 249/216/477
f 244/215/478 243/217/478 248/214/478
f 248/211/479 250/218/479 246/219/479
f 243/221/480 251/220/480 250/222/480
f 246/224/481 252/223/481 247/225/481
f 251/227/482 252/226/482 246/219/482
f 251/227/483 253/228/483 252/226/483
f 243/221/484 253/229/484 251/220/484
f 246/219/485 250/218/485 251/227/485
f 250/222/486 248/214/486 243/221/486
f 242/204/487 247/209/487 243/203/487
f 253/228/488 157/230/488 154/231/488
f 3/3/489 157/232/489 253/229/489
f 253/228/490 154/231/490 252/226/490
f 252/223/491 154/233/491 159/234/491
f 247/225/492 252/223/492 159/234/492
f 159/234/493 160/235/493 247/225/493
f 247/225/494 160/235/494 243/236/494
f 243/221/495 3/3/495 253/229/495
f 160/235/496 3/237/496 243/236/496
f 254/239/497 255/238/497 256/240/497
f 254/242/498 257/241/498 255/243/498
f 258/245/499 259/244/499 257/246/499
f 256/248/500 259/247/500 258/249/500
f 256/240/501 255/238/501 242/208/501
f 242/250/502 259/247/502 256/248/502
f 259/247/503 242/250/503 244/251/503
f 242/208/504 255/238/504 245/252/504
f 255/243/505 249/253/505 245/254/505
f 255/243/506 257/241/506 249/253/506
f 257/246/507 259/244/507 249/255/507
f 249/255/508 259/244/508 244/256/508
f 260/258/509 256/257/509 258/259/509
f 261/260/510 256/257/510 260/258/510
f 258/259/511 262/261/511 260/258/511
f 263/263/512 254/262/512 261/260/512
f 263/265/513 261/264/513 262/266/513
f 260/267/514 262/266/514 261/264/514
f 263/263/515 257/268/515 254/262/515
f 261/260/516 254/262/516 256/257/516
f 262/261/517 258/259/517 257/268/517
f 264/269/518 257/268/518 263/263/518
f 262/261/519 257/268/519 264/269/519
f 265/270/520 263/265/520 266/271/520
f 262/266/521 266/271/521 263/265/521
f 264/269/522 263/263/522 265/272/522
f 266/273/523 264/269/523 265/272/523
f 264/269/524 266/273/524 262/261/524
f 157/275/525 3/274/525 17/276/525

