mtllib animateBarbarianAxe__000031.mtl

o fat
usemtl fat.001
s off

v -0.140040 37.433590 -2.383580
v 1.860240 37.156109 7.026690
v 0.362710 37.293747 2.512480
v 1.377800 59.282322 -7.703570
v 11.602139 65.232338 -1.170300
v 3.656220 55.514458 -6.066620
v 0.272000 51.295162 -4.432710
v 9.934031 61.126244 0.721180
v 7.675270 57.260368 0.423380
v 6.836300 51.488708 0.561790
v 4.681890 51.181511 -3.828590
v 7.066640 56.317741 -4.846510
v 9.061010 35.337910 5.306340
v 9.683300 38.735130 -0.816380
v 10.769110 38.056419 -1.340380
v 6.672680 36.970070 5.464920
v 3.993900 35.907063 8.004780
v 4.557730 37.505478 -6.052620
v 4.051440 38.721832 -4.834320
v 0.753260 37.819458 -3.617660
v -0.262920 33.844200 -1.073310
v 1.126800 64.941429 -7.607690
v 1.926160 66.932190 -7.569030
v -0.865040 58.637310 6.218310
v 4.139640 58.671322 6.604210
v 5.537310 62.904949 7.885260
v 6.606970 63.542133 3.746320
v 4.736180 65.671204 7.014540
v 9.133850 65.560043 6.629440
v 3.781930 51.697048 5.060280
v 0.271740 51.462612 5.830710
v -0.760780 64.242172 7.535290
v 6.550270 69.775063 -2.312290
v 12.779100 66.484581 0.701960
v 11.357699 67.108986 4.203910
v 1.385130 70.062286 4.338810
v 5.334570 71.104996 1.564110
v -1.390900 69.256210 4.024630
v 2.297050 75.484451 1.601870
v 4.063700 73.092239 -1.032470
v 1.474850 73.246300 -3.105630
v 0.357910 76.154266 -0.366890
v 2.229760 71.080917 -5.627750
v -0.023500 47.146729 6.204990
v 5.364230 47.124401 5.637480
v 8.418850 46.624863 0.472170
v 4.993240 45.882813 -4.695600
v 0.045140 45.777031 -5.374530
v 10.014920 65.038078 6.659190
v 12.746230 63.283211 -0.431470
v 12.233480 66.111588 4.963500
v 13.518600 65.607727 1.979880
v 8.449800 62.266521 6.759660
v 0.272980 74.831902 6.858450
v -1.643460 73.300690 7.976540
v 0.968350 70.650940 5.419190
v -0.618150 69.543251 7.012530
v -1.994920 71.986862 7.722990
v -1.138460 75.270416 7.981540
v -2.907930 75.148399 7.609700
v 1.771600 76.202271 4.544830
v -2.307260 79.140450 8.021871
v -3.619230 79.095566 7.824270
v -1.298870 76.531937 8.607080
v -0.422650 78.403671 7.872030
v -0.722860 80.517227 5.741530
v -2.191840 80.525963 4.991360
v -2.679560 73.305374 8.152770
v -3.589010 75.894142 7.675650
v -4.124320 73.853256 8.696820
v -3.845300 73.278183 8.119600
v -3.860150 71.695793 8.106090
v -2.253560 69.037819 8.155910
v -3.795340 68.976830 8.142489
v 1.621580 78.540504 4.555830
v 1.365230 79.793137 3.881690
v -0.656370 80.075264 1.889380
v 12.209210 64.472160 7.280270
v 14.290529 64.996010 4.266660
v 9.872149 55.945072 0.945770
v 8.853260 57.405891 5.200320
v 14.118400 62.128731 0.693090
v 10.703899 51.792370 3.135740
v 13.890380 47.203899 5.084790
v 10.117770 47.715641 4.989280
v 13.956530 50.648552 3.743310
v 14.397550 52.928619 5.702540
v 14.346280 48.426308 7.684310
v 12.743540 53.126862 7.067580
v 12.060380 49.572338 9.317420
v 10.312940 51.767586 6.552760
v 9.392139 49.467510 8.302420
v 14.091940 53.315273 2.502140
v 14.151820 52.111229 3.048740
v 15.317220 57.966133 4.433330
v 12.727790 58.478882 6.643580
v 10.148371 53.513710 6.033200
v 14.542480 55.546780 0.804420
v 11.877260 41.341919 8.739330
v 10.031461 41.731758 8.925390
v 12.568630 41.900757 10.021469
v 11.302160 42.750393 11.138210
v 9.699320 42.791763 10.717911
v 7.149110 39.757809 14.101010
v 7.361970 39.128540 13.462310
v 8.444410 39.639923 12.922811
v 8.920130 40.387878 13.307951
v 10.032520 39.220520 13.832840
v 7.305020 41.170803 12.074100
v 7.992530 40.797050 13.231291
v 6.304970 39.702488 13.397501
v 6.605440 38.498981 14.636181
v 6.031990 38.513458 14.018520
v 9.300270 37.260498 14.615640
v 11.509399 37.240459 9.626580
v 11.233960 35.508839 10.527650
v 10.553091 33.280571 12.294060
v 8.301900 37.733902 13.948521
v 11.806951 35.845390 11.346800
v 12.369670 37.570358 10.628119
v 7.985650 34.879169 15.331130
v 3.050290 25.744820 -2.316690
v 5.899280 20.535089 -10.196600
v 3.549510 18.189470 -5.640800
v 8.923480 26.324871 -3.645200
v 10.854530 19.408400 -7.075740
v 5.357190 27.534081 -5.957500
v 7.020270 22.794670 -1.115470
v 7.571210 17.324940 -2.770090
v 6.979210 24.534061 0.121980
v 7.250190 26.769371 0.376740
v 10.057581 30.087399 -3.344290
v 7.381110 30.983801 3.317950
v 9.529680 9.128390 -10.229370
v 10.538071 6.550610 -11.469250
v 7.513250 8.050119 -13.200090
v 8.365700 6.455880 -8.418250
v 5.955870 8.641860 -9.808360
v 5.588910 5.725990 -11.050410
v 6.421050 3.456180 -15.234320
v 9.487860 3.985750 -15.483580
v 6.758010 0.411490 -7.456480
v 12.707900 1.232660 -7.836880
v 9.313960 1.082950 -3.729860
v 11.833269 -0.623360 -4.124070
v 7.888390 -1.433980 -3.453850
v -8.484220 66.413864 -7.169610
v -0.902060 55.482670 -6.882150
v -9.425320 61.173080 -4.108240
v -6.984460 57.159801 -2.033810
v -4.454800 51.323326 -3.513800
v -6.500550 51.345840 0.939160
v -4.854820 56.234909 -6.686450
v -9.391700 38.715889 0.578870
v -8.465090 41.343697 6.699450
v -10.562620 37.989689 0.507500
v -5.956660 41.897476 5.776750
v -5.143180 34.604801 -3.365140
v -4.514790 36.772839 -3.471840
v -1.152460 36.764931 -2.938390
v -5.583750 58.604851 5.060820
v -5.919780 62.828941 7.287130
v -10.541170 61.903950 2.218100
v -6.005550 65.596306 5.634360
v -10.655590 65.411499 1.127870
v -3.215170 51.348419 5.432510
v -10.443781 67.333252 -6.301420
v -3.728230 69.743813 -5.685790
v -11.398211 67.206985 -1.906260
v -3.653150 70.044991 2.433680
v -4.832250 71.125656 -2.126150
v -2.421860 75.523071 -0.558340
v -1.830190 73.109840 -3.547780
v -3.837170 46.744709 6.503090
v -7.974770 46.410271 1.897630
v -5.576800 45.927246 -3.700200
v -12.045710 64.501419 -0.497540
v -9.950340 64.232643 -8.107910
v -12.595090 66.264633 -2.857110
v -11.786619 66.071350 -6.076380
v -10.267071 61.351891 -0.342470
v -5.059880 73.347260 6.278660
v -5.292150 74.907761 4.092710
v -4.444990 70.686562 3.013740
v -4.722250 69.577782 5.123270
v -4.559400 72.019791 6.479430
v -3.963870 75.162804 7.084940
v -5.325640 75.327499 5.900590
v -4.322920 76.285347 1.515980
v -4.567660 79.171272 6.898480
v -5.699770 76.591942 6.419930
v -5.601950 78.474281 5.298020
v -3.676620 80.557495 4.273610
v -4.574810 73.331215 7.210870
v -4.665320 69.063576 7.016650
v -4.190030 78.619705 1.667610
v -3.470620 79.859062 1.478360
v -13.782559 63.836002 -2.101000
v -13.755750 65.099319 -5.584980
v -10.316820 57.580208 -5.003110
v -7.524600 57.892242 -8.438869
v -11.315670 63.068108 -8.571590
v -10.802799 48.519421 -11.237499
v -9.032710 53.365978 -8.825890
v -9.208880 49.031868 -7.817440
v -11.048260 52.424679 -11.396260
v -13.280380 53.895241 -10.185500
v -13.567030 48.829918 -10.388790
v -13.534550 53.400047 -8.173440
v -14.281271 49.380260 -7.491570
v -12.212971 49.610252 -5.533760
v -11.562600 52.140533 -6.873360
v -10.646879 55.304489 -11.501440
v -10.860910 54.067539 -11.494580
v -13.809031 58.963753 -9.964680
v -13.960361 58.376888 -6.699580
v -11.090290 54.859310 -6.820780
v -10.140480 58.051601 -12.057090
v -11.353101 41.792850 -8.759459
v -10.762560 42.102142 -6.987640
v -12.910650 41.904160 -8.722890
v -13.500319 42.327110 -6.928030
v -12.412410 42.493263 -5.738130
v -12.523980 38.071560 -3.097120
v -13.130799 38.448071 -2.515220
v -12.737000 38.752430 -4.198140
v -13.494840 39.343628 -4.314140
v -14.135400 38.085960 -5.259990
v -13.101999 39.735638 -3.462140
v -11.913610 40.453537 -3.308490
v -12.126189 38.614792 -2.097990
v -12.961360 37.072701 -2.019400
v -12.177430 37.279171 -1.788560
v -13.884200 35.964260 -4.610980
v -10.914930 35.706520 -8.437590
v -10.785060 37.639870 -8.777320
v -11.431140 33.002327 -7.440920
v -12.985161 36.611950 -3.949030
v -11.965140 35.763748 -8.516630
v -12.122459 37.636791 -9.028710
v -13.179880 33.454800 -3.554030
v -6.196609 26.106871 2.203710
v -4.491180 28.389790 10.406490
v -3.958400 23.025949 6.380790
v -11.215660 23.324490 4.578780
v -10.201631 28.267570 8.476320
v -6.635740 29.259109 7.248420
v -8.328990 26.072300 10.927481
v -7.980140 21.349899 8.135600
v -8.426380 27.416470 11.679240
v -8.161330 29.466059 11.729580
v -11.434690 30.984440 7.846400
v -7.386720 36.870251 8.728140
v -7.546260 15.042891 -6.978830
v -7.072480 16.257309 -4.299630
v -4.766150 17.579130 -6.960620
v -5.567790 13.428349 -4.339080
v -2.581380 14.764620 -6.333440
v -3.484900 16.048901 -3.767040
v -2.682470 15.408070 -10.962460
v -5.775930 15.579000 -11.363150
v -2.964960 8.415880 -6.874020
v -9.006840 8.673630 -8.065110
v -5.883480 5.721600 -5.333620
v -8.063280 4.725700 -7.249480
v -4.084970 3.945530 -6.766900

vt 0.550479 0.485338
vt 0.414517 0.485338
vt 0.489174 0.497239
vt 0.490853 0.675485
vt 0.356970 0.710738
vt 0.458986 0.602657
vt 0.458693 0.603155
vt 0.491001 0.506534
vt 0.357039 0.710738
vt 0.272881 0.708251
vt 0.307767 0.663467
vt 0.329118 0.504113
vt 0.420682 0.504388
vt 0.307693 0.663467
vt 0.420389 0.504181
vt 0.390374 0.619683
vt 0.389206 0.622726
vt 0.390855 0.620128
vt 0.309151 0.663075
vt 0.578845 0.971377
vt 0.529882 0.993867
vt 0.501054 0.950636
vt 0.597833 0.993868
vt 0.684209 0.993870
vt 0.691613 0.940228
vt 0.584242 0.936155
vt 0.602549 0.993867
vt 0.689094 0.993870
vt 0.694409 0.971380
vt 0.730001 0.975635
vt 0.490853 0.781888
vt 0.490853 0.820915
vt 0.240556 0.660920
vt 0.133663 0.660928
vt 0.131880 0.753091
vt 0.060606 0.782384
vt 0.055577 0.663688
vt 0.136145 0.808744
vt 0.060014 0.783494
vt 0.058190 0.859642
vt 0.160773 0.512959
vt 0.067037 0.515196
vt 0.240700 0.512959
vt 0.131877 0.752996
vt 0.240556 0.781375
vt 0.390182 0.870896
vt 0.298691 0.847983
vt 0.294173 0.886121
vt 0.181129 0.899551
vt 0.052544 0.886601
vt 0.145152 0.921474
vt 0.235241 0.891030
vt 0.142740 0.921054
vt 0.172936 0.966074
vt 0.456563 0.999059
vt 0.389917 0.922986
vt 0.429989 0.941889
vt 0.491140 0.942697
vt 0.490646 0.999330
vt 0.490853 0.898039
vt 0.701416 0.118225
vt 0.813217 0.120956
vt 0.790107 0.184348
vt 0.877923 0.002315
vt 0.872775 0.120438
vt 0.505869 0.118716
vt 0.564263 0.119120
vt 0.507564 0.183764
vt 0.697589 0.180917
vt 0.580429 0.182675
vt 0.710756 0.001536
vt 0.701372 0.182427
vt 0.812168 0.002315
vt 0.857243 0.184348
vt 0.697567 0.116528
vt 0.503935 0.000692
vt 0.561277 0.000692
vt 0.688827 -0.000098
vt 0.002866 0.854679
vt 0.027518 0.706813
vt 0.061197 0.782654
vt 0.055608 0.663958
vt 0.251604 0.781884
vt 0.357109 0.710738
vt 0.243886 0.876138
vt 0.247300 0.848527
vt -0.000514 0.880403
vt 0.006948 0.782948
vt 0.674684 0.829607
vt 0.705811 0.784366
vt 0.654033 0.662928
vt 0.703232 0.671848
vt 0.720473 0.730776
vt 0.697736 0.853617
vt 0.729837 0.853035
vt 0.623758 0.856571
vt 0.587609 0.811448
vt 0.658187 0.605708
vt 0.748523 0.593788
vt 0.716351 0.931575
vt 0.747491 0.935506
vt 0.695349 0.885675
vt 0.676247 0.904603
vt 0.649719 0.961956
vt 0.745560 1.001324
vt 0.725611 0.781438
vt 0.747491 0.878462
vt 0.747491 0.808438
vt 0.720379 0.731031
vt 0.747491 0.790807
vt 0.720762 0.730332
vt 0.748639 0.732530
vt 0.746944 0.628012
vt 0.703659 0.671442
vt 0.731857 0.666086
vt 0.747085 0.666819
vt 0.703186 0.671176
vt 0.611291 0.885598
vt 0.604148 0.909350
vt 0.550618 0.823662
vt 0.550618 0.934468
vt 0.625864 0.557513
vt 0.571978 0.557920
vt 0.578607 0.510287
vt 0.669444 0.510287
vt 0.756032 0.560223
vt 0.679695 0.557918
vt 0.877240 0.461159
vt 0.992418 0.461159
vt 0.944262 0.560223
vt 0.756457 0.510287
vt 0.806202 0.560223
vt 0.498275 0.560223
vt 0.875566 0.382888
vt 0.758260 0.308662
vt 0.875912 0.308662
vt 0.759996 0.360654
vt 0.669163 0.382888
vt 0.671223 0.308662
vt 0.584325 0.382888
vt 0.577057 0.308662
vt 0.498223 0.363687
vt 0.498247 0.308662
vt 0.992597 0.308662
vt 0.992439 0.363687
vt 0.759483 0.410364
vt 0.758924 0.382888
vt 0.665903 0.461159
vt 0.580075 0.461159
vt 0.498223 0.402657
vt 0.992438 0.402657
vt 0.760539 0.449273
vt 0.498220 0.461159
vt 0.875438 0.575163
vt 0.762705 0.196431
vt 0.858161 0.196355
vt 0.690657 0.196417
vt 0.588027 0.196417
vt 0.498144 0.196431
vt 0.991918 0.196431
vt 0.375723 0.009258
vt 0.380090 0.017573
vt 0.356438 0.030356
vt 0.342839 0.029458
vt 0.369327 0.043627
vt 0.316032 0.012201
vt 0.336848 0.019568
vt 0.249292 0.041099
vt 0.371147 0.002582
vt 0.416197 0.004791
vt 0.408124 0.000758
vt 0.128136 0.016613
vt 0.154876 0.002573
vt 0.119423 0.002194
vt 0.160447 0.001473
vt 0.065726 0.014292
vt 0.105093 0.028910
vt 0.000825 0.069213
vt 0.000703 0.039244
vt 0.249314 0.055441
vt 0.429228 0.045736
vt 0.102506 0.115410
vt 0.153549 0.117195
vt 0.189513 0.114692
vt 0.228429 0.109580
vt 0.194639 0.033982
vt 0.406548 0.108121
vt 0.355355 0.108206
vt 0.448349 0.035630
vt 0.498209 0.039288
vt 0.461840 0.047992
vt 0.483032 0.114221
vt 0.406174 0.120334
vt 0.355217 0.119080
vt 0.243215 0.037501
vt 0.249314 0.089732
vt 0.000703 0.095058
vt 0.249292 0.105039
vt 0.160984 0.032072
vt 0.413806 0.033644
vt 0.442212 0.108407
vt 0.443088 0.117732
vt 0.023914 0.327327
vt 0.104127 0.227894
vt 0.000784 0.227894
vt 0.216171 0.327327
vt 0.216985 0.228421
vt 0.105699 0.228145
vt 0.104981 0.327662
vt 0.217575 0.327327
vt 0.351490 0.301452
vt 0.217290 0.227894
vt 0.351571 0.227894
vt 0.352420 0.301452
vt 0.489174 0.227894
vt 0.352342 0.227894
vt 0.471690 0.333380
vt 0.351597 0.328057
vt 0.217345 0.328075
vt 0.352312 0.363299
vt 0.470864 0.334174
vt 0.352330 0.328057
vt 0.216660 0.380224
vt 0.216104 0.328075
vt 0.104983 0.328371
vt 0.217232 0.380224
vt 0.351611 0.363299
vt 0.351459 0.420971
vt 0.352499 0.420971
vt 0.351589 0.497239
vt 0.229465 0.497239
vt 0.352627 0.497239
vt 0.229583 0.497239
vt 0.133020 0.497239
vt 0.072972 0.497239
vt 0.025422 0.328212
vt 0.002386 0.497239
vt 0.216130 0.152222
vt 0.223982 0.125749
vt 0.105883 0.155747
vt 0.351732 0.147623
vt 0.223132 0.128232
vt 0.218721 0.149411
vt 0.469070 0.149411
vt 0.483427 0.127273
vt 0.352306 0.146326
vt 0.017963 0.152222
vt 0.104256 0.155747
vt 0.009616 0.131504
vt 0.104128 0.227914
vt 0.000790 0.227921
vt 0.216984 0.228396
vt 0.351571 0.227971
vt 0.217291 0.227882
vt 0.352342 0.227879
vt 0.489111 0.227891
vt 0.948232 0.041698
vt 0.989968 0.003451
vt 0.971575 0.059997
vt 0.909211 0.004273
vt 0.996004 0.120663
vt 0.925604 0.058708
vt 0.885225 0.122889
vt 0.516483 0.798440
vt 0.501430 0.685191
vt 0.597947 0.686709
vt 0.594444 0.793024
vt 0.950876 0.082499
vt 0.943924 0.157220
vt 0.507177 0.624822
vt 0.600053 0.622523
vt 0.901715 0.182549
vt 0.982420 0.184037
vt 0.730212 0.975635
vt 0.685579 0.991654
vt 0.692830 0.969164

vn -0.008418 -0.999581 -0.027685
vn 0.550412 -0.029658 -0.834366
vn 0.030987 -0.382458 -0.923453
vn 0.838631 -0.468607 -0.277679
vn 0.892732 -0.140039 -0.428274
vn 0.111180 -0.435165 -0.893460
vn 0.387466 -0.349004 -0.853268
vn 0.894938 -0.445562 -0.023660
vn 0.275386 0.243409 -0.930008
vn 0.904483 -0.425567 -0.028339
vn -0.618498 -0.658752 -0.428375
vn -0.523193 -0.721521 -0.453516
vn -0.435347 -0.569279 -0.697420
vn -0.288489 -0.830029 0.477311
vn -0.397881 -0.726617 0.560106
vn 0.523794 0.360186 0.771949
vn 0.417336 -0.550490 0.723043
vn 0.974216 -0.221466 0.043074
vn 0.517718 -0.191685 -0.833802
vn -0.072287 -0.266924 0.961003
vn 0.848039 -0.127827 0.514286
vn 0.027767 -0.830223 0.556739
vn -0.073701 -0.211949 0.974498
vn 0.812337 -0.165463 0.559223
vn 0.215529 -0.018594 0.976320
vn -0.101770 -0.225759 0.968853
vn 0.572842 0.467856 -0.673026
vn 0.522440 0.037603 -0.851847
vn 0.916091 -0.357423 0.181729
vn 0.456743 0.889194 0.026839
vn 0.011436 0.303237 0.952847
vn 0.549228 0.430769 -0.716092
vn 0.893215 0.348219 0.284448
vn 0.086120 0.565527 0.820221
vn 0.200299 0.732054 0.651136
vn -0.069417 0.566301 0.821270
vn -0.213298 0.384508 0.898141
vn 0.483435 0.328306 0.811484
vn 0.821368 0.569398 0.033766
vn 0.644768 0.640520 -0.417144
vn 0.407063 0.795301 -0.449217
vn 0.244768 0.740004 0.626484
vn 0.579183 0.809514 -0.096093
vn 0.808679 0.585894 0.052602
vn 0.582475 0.633247 -0.509629
vn 0.446304 0.740625 -0.502283
vn 0.636259 0.288278 -0.715590
vn 0.104061 0.159918 0.981630
vn 0.858847 0.130812 0.495248
vn 0.785486 0.265870 -0.558860
vn 0.138042 0.167827 -0.976104
vn 0.103571 0.193252 0.975667
vn 0.209373 0.070256 0.975309
vn 0.899169 0.272399 0.342484
vn 0.841001 0.264943 0.471723
vn 0.786002 0.337377 0.518053
vn 0.887238 0.124801 -0.444110
vn 0.130760 0.161574 -0.978159
vn 0.765319 0.327176 -0.554294
vn 0.595944 0.098125 -0.797008
vn 0.131173 0.151873 -0.979657
vn -0.591195 -0.259940 -0.763492
vn 0.477266 0.125256 0.869786
vn 0.342048 0.617740 0.708096
vn 0.482577 -0.344009 0.805467
vn 0.757863 0.210811 -0.617416
vn -0.367666 -0.579162 0.727594
vn 0.673490 0.719725 0.168544
vn 0.192235 0.695815 0.692017
vn 0.895653 0.140234 -0.422067
vn 0.653957 0.744815 0.132629
vn -0.075327 -0.391798 -0.916962
vn -0.581054 -0.813793 0.010853
vn -0.689819 0.411146 0.595910
vn 0.595023 -0.171346 0.785231
vn 0.114043 -0.217581 0.969357
vn -0.208753 0.051043 0.976636
vn 0.849276 -0.039970 0.526434
vn 0.979146 -0.068054 0.191418
vn 0.917060 -0.070890 0.392398
vn 0.182356 -0.832136 0.523733
vn -0.152366 0.159904 0.975303
vn 0.712984 -0.059402 0.698659
vn 0.837157 0.007845 0.546906
vn -0.199535 0.894022 0.401136
vn 0.161403 0.297290 0.941046
vn 0.415935 0.304079 0.857049
vn 0.435521 0.308839 0.845541
vn 0.162227 -0.228645 0.959898
vn -0.019514 -0.318991 0.947557
vn -0.092934 0.906857 0.411063
vn -0.365171 -0.046609 0.929773
vn -0.003504 -0.709260 0.704939
vn 0.202715 -0.010265 0.979184
vn 0.532679 -0.844420 -0.056643
vn 0.704956 0.010417 0.709174
vn 0.039873 -0.998216 -0.044443
vn 0.180443 0.127351 0.975306
vn 0.556278 0.072736 0.827807
vn 0.303549 -0.952727 0.013021
vn -0.009224 0.013168 0.999871
vn 0.985036 0.062446 0.160639
vn 0.978498 0.205980 0.010650
vn 0.525653 -0.323328 0.786859
vn -0.153048 -0.454562 0.877468
vn 0.585987 -0.152256 0.795887
vn -0.274968 -0.330957 0.902696
vn 0.322587 0.694308 0.643330
vn 0.849146 0.052010 0.525591
vn 0.764864 0.419589 0.488803
vn 0.642235 0.587495 0.492325
vn 0.185381 0.282794 0.941096
vn 0.709410 0.443328 -0.547903
vn 0.642178 0.500313 -0.580771
vn 0.186460 0.981176 -0.050261
vn 0.125461 0.963998 -0.234449
vn 0.851427 -0.111473 0.512490
vn 0.046828 0.815166 0.577332
vn 0.948463 0.013291 -0.316610
vn 0.492814 0.867648 0.065742
vn -0.973002 -0.006753 -0.230699
vn 0.537954 0.685446 0.490683
vn 0.760981 0.487641 -0.427918
vn 0.138806 -0.601415 -0.786787
vn -0.229207 0.164212 0.959426
vn -0.032509 -0.409795 -0.911598
vn 0.046071 -0.363273 -0.930543
vn 0.987791 -0.072639 -0.137815
vn 0.987619 -0.072483 -0.139122
vn 0.627295 0.307750 0.715396
vn 0.650955 0.312711 0.691715
vn -0.292267 0.650363 0.701147
vn -0.451465 0.537551 0.712192
vn -0.944016 0.157354 -0.289955
vn -0.989462 0.091089 -0.112547
vn 0.040719 -0.459690 -0.887145
vn 0.015184 -0.412698 -0.910742
vn 0.995526 0.006726 -0.094251
vn 0.971233 -0.206980 -0.117750
vn 0.655596 0.069751 0.751884
vn 0.639719 0.062572 0.766058
vn -0.328159 0.240854 0.913401
vn -0.935942 -0.334799 -0.109189
vn 0.003680 -0.043351 -0.999053
vn -0.074909 -0.594158 -0.800853
vn 0.970751 -0.234649 -0.050807
vn 0.977507 0.139001 -0.158613
vn 0.804896 0.131272 0.578714
vn 0.646134 -0.025128 0.762810
vn 0.045165 -0.301763 0.952313
vn -0.315114 -0.127178 0.940494
vn -0.971040 0.001242 -0.238912
vn 0.987252 -0.152865 -0.044330
vn 0.017066 -0.430753 -0.902308
vn -0.985408 -0.126695 -0.113663
vn -0.359913 0.072630 0.930155
vn -0.973245 -0.223358 -0.053904
vn -0.366569 0.076446 0.927245
vn 0.967676 0.058198 -0.245389
vn -0.031862 -0.018956 -0.999313
vn -0.196109 -0.536907 -0.820532
vn -0.048403 -0.516399 -0.854979
vn 0.851446 -0.454996 -0.260804
vn 0.960495 -0.275572 -0.038864
vn 0.614317 0.112376 0.781016
vn 0.698192 0.111161 0.707228
vn -0.237213 0.275040 0.931710
vn -0.349079 0.304595 0.886208
vn -0.981638 -0.103212 -0.160417
vn -0.987509 -0.076401 -0.137801
vn 0.562928 -0.487221 0.667629
vn -0.515802 -0.109460 0.849686
vn -0.309014 0.835929 0.453579
vn -0.453851 0.746989 0.485825
vn -0.422811 0.758345 0.496129
vn -0.567624 0.517394 0.640395
vn -0.643213 0.465285 0.608101
vn 0.674699 0.067534 0.734997
vn 0.867822 -0.177498 0.464091
vn -0.175626 -0.423780 -0.888575
vn 0.296088 -0.908075 -0.296196
vn -0.249282 -0.549161 -0.797672
vn -0.142901 -0.559117 -0.816681
vn -0.495502 -0.673131 -0.548974
vn -0.661687 0.585238 -0.468686
vn -0.126428 0.817027 0.562568
vn -0.348306 0.456991 0.818439
vn -0.783112 -0.184474 -0.593889
vn -0.804211 -0.198394 -0.560254
vn 0.783243 -0.044963 0.620087
vn 0.804226 -0.014819 0.594139
vn -0.345423 0.439781 0.829021
vn 0.702165 -0.180703 0.688702
vn 0.827994 -0.356798 -0.432575
vn 0.745664 -0.448545 -0.492740
vn -0.796773 -0.189618 -0.573758
vn 0.726336 0.232516 0.646817
vn -0.799216 -0.340338 -0.495403
vn -0.139504 -0.197398 -0.970347
vn 0.893518 -0.102302 -0.437218
vn -0.221862 -0.331140 0.917128
vn 0.817602 0.042875 0.574186
vn 0.774849 -0.199274 -0.599916
vn 0.180414 0.560445 0.808302
vn 0.194130 0.550171 0.812173
vn -0.807906 -0.231285 -0.542028
vn -0.327697 0.466599 0.821523
vn 0.757426 -0.134293 0.638961
vn 0.788521 -0.511562 -0.341378
vn -0.906052 0.118822 -0.406142
vn 0.541605 0.490005 -0.683052
vn 0.588125 0.451830 -0.670789
vn 0.828030 -0.045979 0.558796
vn 0.812793 -0.092139 0.575220
vn -0.596650 -0.286822 0.749494
vn -0.511946 -0.374054 0.773301
vn 0.904913 -0.232327 0.356591
vn -0.534103 -0.031538 0.844831
vn 0.520464 -0.088959 -0.849237
vn 0.870533 -0.293959 0.394666
vn 0.870776 -0.299293 0.390093
vn -0.364905 -0.525188 0.768779
vn 0.905980 -0.154736 0.394027
vn -0.563957 -0.487513 0.666545
vn -0.869189 0.205174 -0.449905
vn 0.905663 -0.044064 0.421702
vn -0.411615 -0.350439 0.841288
vn 0.922216 -0.071187 0.380067
vn 0.561254 0.254506 -0.787541
vn 0.422339 0.139213 -0.895684
vn -0.358072 0.051801 -0.932256
vn -0.775224 -0.211604 -0.595191
vn -0.475714 -0.431266 0.766620
vn -0.977717 -0.194506 -0.078970
vn 0.603608 0.524807 -0.600196
vn 0.813413 0.039040 0.580375
vn -0.635966 -0.233305 0.735606
vn -0.847970 0.294450 -0.440733
vn 0.759196 0.243363 -0.603652
vn -0.909810 -0.017864 -0.414640
vn -0.884471 -0.019426 -0.466191
vn 0.553095 0.178371 -0.813800
vn 0.824358 -0.260426 0.502606
vn 0.912012 -0.134663 0.387427
vn -0.693264 -0.371569 0.617513
vn -0.581831 -0.444067 0.681379
vn -0.854319 0.366362 -0.368670
vn -0.146583 0.429442 -0.891119
vn -0.966446 -0.250636 -0.056243
vn 0.929395 0.148381 -0.337948
vn 0.103160 -0.921221 -0.375113
vn 0.129342 -0.921457 -0.366315
vn 0.647785 0.591903 0.479610
vn 0.600753 0.593053 -0.536082
vn -0.697456 0.289797 0.655418
vn 0.620251 0.575014 0.533523
vn -0.811756 0.296013 0.503416
vn 0.112915 -0.899127 -0.422871
vn 0.095258 -0.893493 -0.438859
vn 0.543363 0.692691 0.474274
vn 0.164480 0.014994 0.986266
vn -0.761693 0.479238 0.436067
vn 0.091877 -0.949366 -0.300438
vn -0.144074 -0.125745 -0.981545
vn 0.354761 -0.395962 -0.846970
vn -0.074004 -0.493069 -0.866837
vn -0.873607 -0.277226 -0.399946
vn -0.164639 -0.532003 -0.830582
vn -0.144635 -0.545176 -0.825750
vn -0.881372 -0.330295 -0.337770
vn -0.062530 -0.069555 -0.995616
vn -0.889179 -0.297166 -0.347929
vn 0.493822 -0.823637 0.278859
vn 0.318394 -0.887591 0.332876
vn -0.167332 -0.575645 -0.800396
vn 0.266252 -0.509709 0.818111
vn 0.600609 -0.135298 0.788012
vn -0.325865 0.436324 0.838709
vn -0.155795 0.093554 0.983349
vn -0.954257 -0.114173 0.276330
vn -0.040079 0.035487 -0.998566
vn -0.207367 -0.468980 0.858520
vn -0.636481 -0.721506 0.272621
vn -0.686526 0.195302 0.700385
vn -0.237960 -0.027942 0.970873
vn -0.786079 -0.227138 0.574882
vn -0.110875 -0.071119 0.991286
vn 0.015912 -0.228993 0.973298
vn -0.116892 0.538727 -0.834332
vn -0.043234 0.015007 -0.998952
vn -0.640958 -0.397172 0.656831
vn -0.333805 0.941546 -0.045438
vn -0.177861 0.500506 0.847266
vn -0.057297 0.473486 -0.878936
vn -0.725732 0.336042 0.600324
vn -0.535490 0.661190 0.525432
vn -0.419283 0.732621 0.536161
vn -0.153665 0.553710 0.818408
vn -0.270438 0.652383 0.707997
vn -0.875351 0.368016 0.313569
vn -0.624602 0.542612 -0.561644
vn -0.099097 0.661796 -0.743105
vn 0.050818 0.781996 -0.621208
vn -0.563235 0.759430 0.325626
vn -0.470500 0.763530 -0.442325
vn -0.630825 0.637064 -0.442956
vn -0.122410 0.580392 -0.805084
vn 0.054154 0.765567 -0.641073
vn -0.087159 0.427430 -0.899837
vn 0.053023 0.219381 0.974197
vn -0.742846 0.119551 0.658701
vn -0.896425 0.190001 -0.400401
vn -0.189897 0.073306 -0.979063
vn 0.058016 0.178033 0.982313
vn -0.115990 0.093685 0.988822
vn -0.757730 0.645882 -0.093175
vn -0.713356 0.332840 0.616717
vn -0.783880 0.239159 0.573006
vn -0.890092 0.199238 -0.409928
vn -0.276900 0.172717 -0.945249
vn -0.857484 0.328850 -0.395700
vn -0.599874 -0.046611 -0.798736
vn -0.286175 -0.039291 -0.957371
vn 0.360148 -0.324556 -0.874618
vn -0.064306 0.091230 0.993751
vn -0.792341 0.420012 0.442478
vn -0.831727 -0.548902 -0.083288
vn -0.158430 0.478110 -0.863893
vn -0.792297 0.157383 0.589489
vn -0.516295 0.837296 -0.179930
vn -0.744865 0.439601 0.501923
vn -0.488606 0.379873 -0.785468
vn -0.690475 0.711671 -0.129495
vn 0.830329 -0.384651 -0.403234
vn 0.804324 -0.557248 0.206246
vn -0.870941 -0.491225 0.012677
vn -0.981473 -0.189120 -0.030723
vn -0.823702 -0.232321 0.517245
vn -0.651236 0.057078 0.756726
vn -0.916947 -0.084337 -0.389995
vn -0.756990 -0.173875 -0.629869
vn -0.671236 -0.177865 -0.719587
vn -0.480010 -0.835170 0.268480
vn -0.681822 0.167131 0.712170
vn -0.988484 -0.036207 -0.146933
vn -0.941026 0.032085 -0.336810
vn -0.179696 0.893749 0.411002
vn -0.840913 0.310945 0.442920
vn -0.927460 0.322386 0.189433
vn -0.930009 0.327452 0.166908
vn -0.859106 -0.256957 0.442617
vn -0.745058 -0.331549 0.578761
vn -0.251686 0.909021 0.332167
vn -0.521590 -0.044477 0.852036
vn -0.575207 -0.701463 0.420817
vn -0.918321 0.005239 0.395802
vn -0.238739 -0.846308 -0.476200
vn -0.987519 -0.041917 -0.151822
vn -0.006770 -0.997409 -0.071623
vn -0.905518 0.107057 0.410580
vn -0.998185 0.043359 0.041787
vn -0.175315 -0.951419 -0.253115
vn -0.791635 -0.010690 0.610901
vn -0.718616 0.085736 -0.690102
vn -0.588333 0.222816 -0.777314
vn -0.951465 -0.303200 0.052770
vn -0.616876 -0.448246 0.646946
vn -0.991343 -0.130752 0.011993
vn -0.560675 -0.327042 0.760715
vn -0.692260 0.708139 0.138983
vn -0.930311 0.076265 -0.358756
vn -0.842080 0.441496 -0.309811
vn -0.767197 0.606704 -0.208133
vn -0.855740 0.296990 0.423682
vn -0.032514 0.418475 -0.907646
vn 0.085266 0.513416 -0.853893
vn -0.051047 0.984414 -0.168297
vn 0.132192 0.963906 -0.231106
vn -0.981545 0.015755 0.190581
vn -0.683105 0.499790 0.532520
vn -0.419380 0.451396 -0.787630
vn -0.469989 0.866140 -0.170032
vn 0.649684 -0.594318 0.474022
vn -0.864719 0.474269 0.165321
vn -0.314346 0.645649 -0.695934
vn 0.651175 -0.559122 -0.513180
vn -0.585380 -0.293370 0.755820
vn 0.905988 -0.130519 -0.402680
vn 0.782428 0.023881 -0.622283
vn -0.509424 -0.066894 -0.857912
vn -0.287458 0.054645 -0.956233
vn -0.992039 0.060571 -0.110410
vn -0.956080 0.133326 -0.261026
vn -0.629426 0.483741 0.608126
vn -0.430182 0.228073 0.873456
vn 0.616389 0.238821 0.750352
vn 0.550013 0.167994 0.818085
vn 0.766282 -0.203203 -0.609524
vn 0.798952 -0.141482 -0.584515
vn -0.478714 0.077985 -0.874501
vn -0.443872 -0.007258 -0.896061
vn -0.992842 -0.100760 -0.064127
vn -0.989719 -0.044417 -0.135955
vn -0.515975 0.073129 0.853476
vn 0.680640 -0.530809 0.504947
vn 0.804475 0.586891 -0.091537
vn 0.777228 -0.259240 -0.573334
vn -0.508731 -0.079611 -0.857237
vn -0.452620 0.520669 -0.723905
vn -0.999930 0.011261 -0.003611
vn -0.997457 0.062038 -0.035080
vn -0.653580 -0.584912 0.480323
vn -0.446199 -0.568019 0.691564
vn 0.938347 0.284601 0.196232
vn -0.475962 0.001641 -0.879464
vn 0.802558 -0.126419 -0.583026
vn 0.643734 -0.126425 0.754734
vn -0.322390 -0.294046 0.899779
vn 0.572187 -0.257235 0.778738
vn -0.457283 -0.400466 0.794053
vn -0.340954 0.481230 -0.807569
vn 0.709061 0.506779 -0.490313
vn 0.932524 -0.241251 -0.268693
vn 0.897064 -0.215510 -0.385786
vn -0.046472 -0.341962 -0.938564
vn -0.309745 -0.250014 -0.917361
vn -0.966977 -0.142475 -0.211322
vn -0.950789 -0.127826 -0.282244
vn -0.735842 -0.027416 0.676599
vn -0.687346 -0.001595 0.726328
vn 0.599837 -0.039756 0.799134
vn 0.597554 -0.038068 0.800925
vn -0.686295 -0.670493 -0.281849
vn -0.430404 -0.392196 0.812979
vn -0.461559 0.630487 0.624059
vn -0.398121 0.536080 0.744391
vn -0.422004 0.543229 0.725820
vn -0.407020 0.264980 0.874140
vn -0.329315 0.225080 0.917001
vn -0.953390 -0.164641 -0.252866
vn -0.750866 -0.303894 -0.586386
vn 0.942505 -0.109321 -0.315807
vn 0.360496 -0.752513 -0.551151
vn 0.937272 -0.260706 -0.231417
vn 0.904489 -0.261657 -0.336803
vn 0.883419 -0.463522 0.068686
vn 0.529014 0.700294 0.479303
vn -0.641068 0.577510 0.505483
vn -0.642928 0.153424 0.750403
vn 0.920487 0.006822 0.390714
vn 0.906570 -0.017636 0.421688
vn -0.877649 -0.232175 -0.419318
vn -0.874624 -0.194831 -0.443930
vn -0.648265 0.133764 0.749573
vn -0.857788 -0.384448 -0.341174
vn 0.064280 -0.176898 -0.982128
vn 0.179630 -0.245356 -0.952646
vn 0.911731 -0.004843 0.410760
vn -0.948638 0.017824 -0.315860
vn 0.890035 -0.173563 0.421560
vn 0.933766 0.129155 -0.333766
vn -0.018553 0.068058 -0.997509
vn -0.565861 -0.618337 0.545400
vn -0.880930 -0.130100 -0.455013
vn 0.184586 0.029472 -0.982374
vn -0.916500 0.262661 0.301722
vn -0.923236 0.252242 0.289844
vn 0.902442 -0.054894 0.427300
vn -0.658055 0.161874 0.735364
vn -0.855894 -0.322881 -0.403972
vn 0.051002 -0.353933 -0.933879
vn 0.915603 0.295552 -0.272617
vn -0.587807 0.571818 -0.572282
vn -0.389262 0.765556 -0.512249
vn -0.856628 -0.199450 0.475823
vn -0.780916 -0.359626 0.510725
vn 0.503158 -0.411957 0.759687
vn 0.415045 -0.519395 0.746972
vn -0.867822 -0.288949 0.404220
vn 0.321557 -0.064784 0.944672
vn -0.228723 -0.317198 -0.920365
vn -0.786561 -0.223519 0.575640
vn -0.647583 0.343479 0.680191
vn 0.401257 0.307743 0.862721
vn -0.859006 0.098744 0.502354
vn 0.372518 -0.432285 0.821194
vn 0.721266 0.613886 -0.320809
vn -0.853450 0.422181 0.305592
vn 0.592153 0.276020 0.757079
vn -0.803912 0.506090 0.312407
vn -0.674404 -0.403219 -0.618541
vn -0.338083 -0.737926 -0.584093
vn 0.086941 -0.823792 -0.560186
vn 0.317329 -0.836957 -0.445876
vn 0.576119 0.343494 0.741686
vn 0.797013 -0.580933 -0.165186
vn -0.657996 0.722780 -0.211261
vn -0.825891 -0.444126 0.347356
vn 0.612430 -0.599309 0.515517
vn 0.792463 0.609368 -0.025951
vn -0.782889 0.389793 -0.484918
vn 0.912441 0.360712 -0.193232
vn 0.904621 0.369749 -0.212007
vn -0.578931 0.484498 -0.655821
vn -0.681035 -0.693723 0.234391
vn -0.874944 -0.467150 0.127449
vn 0.620043 -0.602520 0.502510
vn 0.510239 -0.697390 0.503292
vn 0.780495 0.621308 0.069319
vn 0.105372 0.896054 -0.431259
vn 0.997886 -0.057751 -0.029820
vn -0.905063 0.264362 -0.333127
vn 0.149591 -0.482246 -0.863169
vn 0.083306 -0.505512 -0.858789
vn -0.776713 0.071385 0.625797
vn -0.662494 0.727476 -0.178552
vn 0.584073 -0.103835 0.805032
vn -0.690845 -0.064630 0.720108
vn 0.553315 -0.128865 0.822944
vn 0.083038 -0.182554 -0.979683
vn 0.190007 -0.071070 -0.979207
vn -0.659562 -0.002350 0.751646
vn -0.222055 -0.738564 0.636565
vn 0.545813 -0.116866 0.829717
vn -0.533719 -0.833586 0.142401

f 1/1/1 2/2/1 3/3/1
f 4/4/2 5/5/2 6/6/2
f 4/4/3 6/7/3 7/8/3
f 5/9/4 8/10/4 9/11/4
f 10/12/5 11/13/5 9/14/5
f 6/6/6 11/15/6 7/8/6
f 6/6/7 12/16/7 11/13/7
f 12/17/8 5/5/8 9/14/8
f 6/6/9 5/5/9 12/17/9
f 11/13/10 12/18/10 9/19/10
f 13/20/11 14/21/11 15/22/11
f 14/21/12 13/20/12 16/23/12
f 16/24/13 13/20/13 17/25/13
f 15/22/14 14/21/14 18/26/14
f 14/21/15 19/27/15 18/26/15
f 18/26/16 20/28/16 21/29/16
f 18/26/17 19/27/17 20/28/17
f 20/28/18 3/30/18 21/29/18
f 5/9/19 22/31/19 23/32/19
f 24/33/20 25/34/20 26/35/20
f 27/36/21 25/34/21 9/37/21
f 28/38/22 27/39/22 29/40/22
f 30/41/23 25/34/23 24/33/23
f 25/34/24 30/41/24 10/42/24
f 30/41/25 24/33/25 31/43/25
f 24/33/26 26/44/26 32/45/26
f 33/46/27 34/47/27 5/9/27
f 4/4/28 22/31/28 5/9/28
f 26/35/29 25/34/29 27/39/29
f 33/46/30 35/48/30 34/47/30
f 32/45/31 26/35/31 28/38/31
f 23/32/32 33/46/32 5/9/32
f 26/35/33 27/39/33 28/38/33
f 28/38/34 29/40/34 36/49/34
f 35/50/35 37/51/35 29/40/35
f 28/38/36 38/52/36 32/45/36
f 36/49/37 38/52/37 28/38/37
f 36/49/38 37/53/38 39/54/38
f 39/55/39 37/56/39 40/57/39
f 41/58/40 42/59/40 39/55/40
f 39/55/41 40/57/41 41/58/41
f 36/49/42 29/40/42 37/51/42
f 37/56/43 35/48/43 33/46/43
f 37/56/44 33/46/44 40/57/44
f 40/57/45 33/46/45 43/60/45
f 40/57/46 43/60/46 41/58/46
f 33/46/47 23/32/47 43/60/47
f 44/61/48 45/62/48 30/63/48
f 15/64/49 46/65/49 45/62/49
f 46/66/50 47/67/50 10/68/50
f 47/67/51 7/69/51 11/70/51
f 45/62/52 44/61/52 17/71/52
f 44/61/53 30/63/53 31/72/53
f 13/73/54 15/64/54 45/62/54
f 46/65/55 10/74/55 45/62/55
f 45/62/56 10/74/56 30/63/56
f 47/67/57 11/70/57 10/68/57
f 47/67/58 48/75/58 7/69/58
f 46/66/59 15/76/59 47/67/59
f 18/77/60 47/67/60 15/76/60
f 47/67/61 18/77/61 48/75/61
f 18/77/62 21/78/62 48/75/62
f 13/73/63 45/62/63 17/71/63
f 49/79/64 35/50/64 29/40/64
f 8/80/65 27/81/65 9/82/65
f 34/47/66 50/83/66 5/84/66
f 27/36/67 49/79/67 29/40/67
f 35/48/68 51/85/68 52/86/68
f 35/50/69 49/79/69 51/87/69
f 52/86/70 50/83/70 34/47/70
f 35/48/71 52/86/71 34/47/71
f 5/84/72 50/83/72 8/10/72
f 53/88/73 27/81/73 8/80/73
f 53/88/74 49/79/74 27/36/74
f 54/89/75 55/90/75 56/91/75
f 57/92/76 55/90/76 58/93/76
f 59/94/77 60/95/77 55/90/77
f 61/96/78 54/89/78 56/91/78
f 39/97/79 61/96/79 36/98/79
f 36/98/80 61/96/80 56/91/80
f 36/98/81 56/91/81 38/99/81
f 62/100/82 63/101/82 64/102/82
f 65/103/83 64/102/83 54/89/83
f 61/96/84 65/103/84 54/89/84
f 66/104/85 67/105/85 62/100/85
f 55/90/86 60/95/86 68/106/86
f 69/107/87 68/106/87 60/95/87
f 69/107/88 70/108/88 68/106/88
f 58/109/89 55/90/89 68/106/89
f 68/106/90 71/110/90 58/111/90
f 62/100/91 67/105/91 63/101/91
f 64/102/92 63/101/92 69/107/92
f 70/108/93 71/110/93 68/106/93
f 58/111/94 71/110/94 72/112/94
f 56/91/95 57/92/95 38/113/95
f 55/90/96 57/114/96 56/91/96
f 73/115/97 74/116/97 38/113/97
f 58/109/98 72/112/98 73/115/98
f 57/117/99 58/111/99 73/115/99
f 57/92/100 73/115/100 38/113/100
f 73/115/101 72/112/101 74/116/101
f 39/97/102 75/118/102 61/96/102
f 75/118/103 39/97/103 76/119/103
f 64/102/104 59/94/104 54/89/104
f 64/102/105 60/95/105 59/94/105
f 54/89/106 59/94/106 55/90/106
f 64/102/107 69/107/107 60/95/107
f 65/103/108 66/104/108 62/100/108
f 65/103/109 61/96/109 75/118/109
f 75/118/110 76/119/110 65/103/110
f 66/104/111 65/103/111 76/119/111
f 62/100/112 64/102/112 65/103/112
f 39/97/113 42/120/113 76/119/113
f 77/121/114 76/119/114 42/120/114
f 67/105/115 76/119/115 77/121/115
f 66/104/116 76/119/116 67/105/116
f 9/82/117 25/34/117 10/42/117
f 51/122/118 49/123/118 78/124/118
f 79/125/119 50/126/119 52/127/119
f 52/127/120 51/122/120 79/125/120
f 80/128/121 81/129/121 53/130/121
f 51/122/122 78/124/122 79/125/122
f 82/131/123 50/126/123 79/125/123
f 50/126/124 82/131/124 8/132/124
f 53/133/125 78/124/125 49/123/125
f 83/134/126 84/135/126 85/136/126
f 84/135/127 83/134/127 86/137/127
f 86/137/128 87/138/128 84/135/128
f 88/139/129 84/135/129 87/138/129
f 87/138/130 89/140/130 88/139/130
f 90/141/131 88/139/131 89/140/131
f 91/142/132 92/143/132 90/141/132
f 90/141/133 89/140/133 91/142/133
f 85/136/134 92/144/134 91/145/134
f 91/145/135 83/134/135 85/136/135
f 80/128/136 93/146/136 83/134/136
f 94/147/137 83/134/137 93/146/137
f 93/146/138 87/138/138 94/147/138
f 87/138/139 93/146/139 95/148/139
f 95/148/140 96/149/140 87/138/140
f 89/140/141 87/138/141 96/149/141
f 97/150/142 91/142/142 89/140/142
f 97/151/143 81/129/143 80/128/143
f 8/132/144 82/131/144 80/128/144
f 93/146/145 80/128/145 98/152/145
f 98/152/146 95/148/146 93/146/146
f 95/148/147 82/131/147 79/125/147
f 79/125/148 78/124/148 95/148/148
f 96/149/149 95/148/149 78/124/149
f 78/124/150 53/133/150 81/153/150
f 81/153/151 96/149/151 78/124/151
f 80/128/152 53/130/152 8/154/152
f 94/147/153 87/138/153 86/137/153
f 86/137/154 83/134/154 94/147/154
f 97/151/155 83/134/155 91/145/155
f 89/140/156 96/149/156 97/150/156
f 80/128/157 83/134/157 97/151/157
f 81/153/158 97/150/158 96/149/158
f 82/131/159 95/148/159 98/152/159
f 98/152/160 80/128/160 82/131/160
f 85/136/161 99/155/161 100/156/161
f 99/155/162 85/136/162 84/135/162
f 84/135/163 101/157/163 99/155/163
f 101/157/164 84/135/164 88/139/164
f 88/139/165 90/141/165 101/157/165
f 102/158/166 101/157/166 90/141/166
f 90/141/167 103/159/167 102/158/167
f 103/159/168 90/141/168 92/143/168
f 92/144/169 85/136/169 103/160/169
f 100/156/170 103/160/170 85/136/170
f 104/161/171 105/162/171 106/163/171
f 107/164/172 106/163/172 108/165/172
f 109/166/173 110/167/173 103/168/173
f 109/166/174 111/169/174 104/161/174
f 104/161/175 110/167/175 109/166/175
f 104/161/176 111/169/176 112/170/176
f 113/171/177 112/170/177 111/169/177
f 106/163/178 110/167/178 104/161/178
f 104/161/179 112/170/179 105/162/179
f 105/172/180 113/173/180 111/174/180
f 113/173/181 105/172/181 112/175/181
f 105/172/182 111/174/182 109/176/182
f 109/176/183 106/177/183 105/172/183
f 109/176/184 100/178/184 106/177/184
f 103/179/185 100/178/185 109/176/185
f 102/180/186 103/168/186 110/167/186
f 106/163/187 114/181/187 108/165/187
f 115/182/188 116/183/188 106/177/188
f 116/184/189 117/185/189 118/186/189
f 108/165/190 114/181/190 119/187/190
f 119/187/191 120/188/191 108/165/191
f 118/189/192 121/190/192 114/191/192
f 114/191/193 121/190/193 117/192/193
f 116/193/194 115/194/194 119/187/194
f 120/188/195 119/187/195 115/194/195
f 121/195/196 118/186/196 117/185/196
f 108/165/197 101/196/197 102/180/197
f 115/182/198 106/177/198 100/178/198
f 100/178/199 99/197/199 115/182/199
f 120/188/200 99/198/200 101/196/200
f 106/163/201 107/164/201 110/167/201
f 108/165/202 120/188/202 101/196/202
f 120/188/203 115/194/203 99/198/203
f 107/164/204 102/180/204 110/167/204
f 102/180/205 107/164/205 108/165/205
f 118/199/206 106/177/206 116/183/206
f 114/181/207 106/163/207 118/200/207
f 114/191/208 117/192/208 119/201/208
f 117/192/209 116/202/209 119/201/209
f 122/203/210 123/204/210 124/205/210
f 125/206/211 126/207/211 123/208/211
f 125/206/212 123/208/212 127/209/212
f 125/210/213 128/211/213 126/212/213
f 128/211/214 129/213/214 126/212/214
f 128/214/215 124/215/215 129/216/215
f 122/217/216 124/215/216 128/214/216
f 130/218/217 128/211/217 125/219/217
f 131/220/218 122/221/218 130/222/218
f 132/223/219 125/224/219 127/225/219
f 132/226/220 131/227/220 125/219/220
f 133/228/221 131/227/221 132/226/221
f 133/229/222 122/221/222 131/220/222
f 130/218/223 125/219/223 131/227/223
f 128/214/224 130/222/224 122/221/224
f 127/209/225 123/204/225 122/203/225
f 16/230/226 133/228/226 14/231/226
f 16/232/227 3/3/227 133/229/227
f 14/231/228 133/228/228 132/226/228
f 14/233/229 132/223/229 19/234/229
f 132/223/230 127/225/230 19/234/230
f 20/235/231 19/234/231 127/225/231
f 20/235/232 127/225/232 122/236/232
f 3/3/233 122/221/233 133/229/233
f 3/237/234 20/235/234 122/236/234
f 134/238/235 135/239/235 136/240/235
f 137/241/236 135/242/236 134/243/236
f 138/244/237 139/245/237 137/246/237
f 138/247/238 136/248/238 139/249/238
f 134/238/239 136/240/239 123/208/239
f 138/247/240 123/250/240 136/248/240
f 123/250/241 138/247/241 124/251/241
f 134/238/242 123/208/242 126/252/242
f 129/253/243 134/243/243 126/254/243
f 137/241/244 134/243/244 129/253/244
f 138/244/245 137/246/245 129/255/245
f 138/244/246 129/255/246 124/256/246
f 136/257/247 140/258/247 139/259/247
f 136/257/248 141/260/248 140/258/248
f 142/261/249 139/259/249 140/258/249
f 135/262/250 143/263/250 141/260/250
f 141/264/251 143/265/251 142/266/251
f 142/266/252 140/267/252 141/264/252
f 137/268/253 143/263/253 135/262/253
f 135/262/254 141/260/254 136/257/254
f 139/259/255 142/261/255 137/268/255
f 137/268/256 144/269/256 143/263/256
f 137/268/257 142/261/257 144/269/257
f 143/265/258 145/270/258 146/271/258
f 146/271/259 142/266/259 143/265/259
f 143/263/260 144/269/260 145/272/260
f 144/269/261 146/273/261 145/272/261
f 146/273/262 144/269/262 142/261/262
f 3/274/263 16/275/263 17/276/263
f 147/5/264 4/4/264 148/6/264
f 148/7/265 4/4/265 7/8/265
f 149/10/266 147/9/266 150/11/266
f 151/13/267 152/12/267 150/14/267
f 151/15/268 148/6/268 7/8/268
f 153/16/269 148/6/269 151/13/269
f 147/5/270 153/17/270 150/14/270
f 147/5/271 148/6/271 153/17/271
f 153/18/272 151/13/272 150/19/272
f 154/21/273 155/20/273 156/22/273
f 155/20/274 154/21/274 157/23/274
f 155/20/275 157/24/275 17/25/275
f 154/21/276 156/22/276 158/26/276
f 159/27/277 154/21/277 158/26/277
f 160/28/278 158/26/278 21/29/278
f 159/27/279 158/26/279 160/28/279
f 3/30/280 160/28/280 21/29/280
f 22/31/281 147/9/281 23/32/281
f 161/34/282 24/33/282 162/35/282
f 161/34/283 163/36/283 150/37/283
f 163/39/284 164/38/284 165/40/284
f 161/34/285 166/41/285 24/33/285
f 166/41/286 161/34/286 152/42/286
f 24/33/287 166/41/287 31/43/287
f 162/44/288 24/33/288 32/45/288
f 167/47/289 168/46/289 147/9/289
f 22/31/290 4/4/290 147/9/290
f 161/34/291 162/35/291 163/39/291
f 169/48/292 168/46/292 167/47/292
f 162/35/293 32/45/293 164/38/293
f 168/46/294 23/32/294 147/9/294
f 163/39/295 162/35/295 164/38/295
f 165/40/296 164/38/296 170/49/296
f 171/51/297 169/50/297 165/40/297
f 38/52/298 164/38/298 32/45/298
f 38/52/299 170/49/299 164/38/299
f 171/53/300 170/49/300 172/54/300
f 171/56/301 172/55/301 173/57/301
f 42/59/302 41/58/302 172/55/302
f 173/57/303 172/55/303 41/58/303
f 165/40/304 170/49/304 171/51/304
f 169/48/305 171/56/305 168/46/305
f 168/46/306 171/56/306 173/57/306
f 168/46/307 173/57/307 43/60/307
f 43/60/308 173/57/308 41/58/308
f 23/32/309 168/46/309 43/60/309
f 174/62/310 44/61/310 166/63/310
f 175/65/311 156/64/311 174/62/311
f 176/67/312 175/66/312 152/68/312
f 7/69/313 176/67/313 151/70/313
f 44/61/314 174/62/314 17/71/314
f 166/63/315 44/61/315 31/72/315
f 156/64/316 155/73/316 174/62/316
f 152/74/317 175/65/317 174/62/317
f 152/74/318 174/62/318 166/63/318
f 151/70/319 176/67/319 152/68/319
f 48/75/320 176/67/320 7/69/320
f 156/76/321 175/66/321 176/67/321
f 176/67/322 158/77/322 156/76/322
f 158/77/323 176/67/323 48/75/323
f 21/78/324 158/77/324 48/75/324
f 174/62/325 155/73/325 17/71/325
f 169/50/326 177/79/326 165/40/326
f 163/81/327 149/80/327 150/82/327
f 178/83/328 167/47/328 147/84/328
f 177/79/329 163/36/329 165/40/329
f 179/85/330 169/48/330 180/86/330
f 177/79/331 169/50/331 179/87/331
f 178/83/332 180/86/332 167/47/332
f 180/86/333 169/48/333 167/47/333
f 178/83/334 147/84/334 149/10/334
f 163/81/335 181/88/335 149/80/335
f 177/79/336 181/88/336 163/36/336
f 182/90/337 183/89/337 184/91/337
f 182/90/338 185/92/338 186/93/338
f 187/95/339 188/94/339 182/90/339
f 183/89/340 189/96/340 184/91/340
f 189/96/341 172/97/341 170/98/341
f 189/96/342 170/98/342 184/91/342
f 184/91/343 170/98/343 38/99/343
f 63/101/344 190/100/344 191/102/344
f 191/102/345 192/103/345 183/89/345
f 192/103/346 189/96/346 183/89/346
f 67/105/347 193/104/347 190/100/347
f 187/95/348 182/90/348 194/106/348
f 194/106/349 69/107/349 187/95/349
f 70/108/350 69/107/350 194/106/350
f 182/90/351 186/109/351 194/106/351
f 71/110/352 194/106/352 186/111/352
f 67/105/353 190/100/353 63/101/353
f 63/101/354 191/102/354 69/107/354
f 71/110/355 70/108/355 194/106/355
f 71/110/356 186/111/356 72/112/356
f 185/92/357 184/91/357 38/113/357
f 185/114/358 182/90/358 184/91/358
f 74/116/359 195/115/359 38/113/359
f 72/112/360 186/109/360 195/115/360
f 186/111/361 185/117/361 195/115/361
f 195/115/362 185/92/362 38/113/362
f 72/112/363 195/115/363 74/116/363
f 196/118/364 172/97/364 189/96/364
f 172/97/365 196/118/365 197/119/365
f 188/94/366 191/102/366 183/89/366
f 187/95/367 191/102/367 188/94/367
f 188/94/368 183/89/368 182/90/368
f 69/107/369 191/102/369 187/95/369
f 193/104/370 192/103/370 190/100/370
f 189/96/371 192/103/371 196/118/371
f 197/119/372 196/118/372 192/103/372
f 192/103/373 193/104/373 197/119/373
f 191/102/374 190/100/374 192/103/374
f 42/120/375 172/97/375 197/119/375
f 197/119/376 77/121/376 42/120/376
f 197/119/377 67/105/377 77/121/377
f 197/119/378 193/104/378 67/105/378
f 161/34/379 150/82/379 152/42/379
f 177/123/380 179/122/380 198/124/380
f 178/126/381 199/125/381 180/127/381
f 179/122/382 180/127/382 199/125/382
f 200/129/383 201/128/383 181/130/383
f 198/124/384 179/122/384 199/125/384
f 178/126/385 202/131/385 199/125/385
f 202/131/386 178/126/386 149/132/386
f 198/124/387 181/133/387 177/123/387
f 203/135/388 204/134/388 205/136/388
f 204/134/389 203/135/389 206/137/389
f 207/138/390 206/137/390 203/135/390
f 203/135/391 208/139/391 207/138/391
f 209/140/392 207/138/392 208/139/392
f 208/139/393 210/141/393 209/140/393
f 211/143/394 212/142/394 210/141/394
f 209/140/395 210/141/395 212/142/395
f 211/144/396 205/136/396 212/145/396
f 204/134/397 212/145/397 205/136/397
f 213/146/398 201/128/398 204/134/398
f 204/134/399 214/147/399 213/146/399
f 207/138/400 213/146/400 214/147/400
f 213/146/401 207/138/401 215/148/401
f 216/149/402 215/148/402 207/138/402
f 207/138/403 209/140/403 216/149/403
f 212/142/404 217/150/404 209/140/404
f 200/129/405 217/151/405 201/128/405
f 202/131/406 149/132/406 201/128/406
f 201/128/407 213/146/407 218/152/407
f 215/148/408 218/152/408 213/146/408
f 202/131/409 215/148/409 199/125/409
f 198/124/410 199/125/410 215/148/410
f 215/148/411 216/149/411 198/124/411
f 181/133/412 198/124/412 200/153/412
f 216/149/413 200/153/413 198/124/413
f 181/130/414 201/128/414 149/154/414
f 207/138/415 214/147/415 206/137/415
f 204/134/416 206/137/416 214/147/416
f 204/134/417 217/151/417 212/145/417
f 216/149/418 209/140/418 217/150/418
f 204/134/419 201/128/419 217/151/419
f 217/150/420 200/153/420 216/149/420
f 215/148/421 202/131/421 218/152/421
f 201/128/422 218/152/422 202/131/422
f 219/155/423 205/136/423 220/156/423
f 205/136/424 219/155/424 203/135/424
f 221/157/425 203/135/425 219/155/425
f 203/135/426 221/157/426 208/139/426
f 210/141/427 208/139/427 221/157/427
f 221/157/428 222/158/428 210/141/428
f 223/159/429 210/141/429 222/158/429
f 210/141/430 223/159/430 211/143/430
f 205/136/431 211/144/431 223/160/431
f 223/160/432 220/156/432 205/136/432
f 224/162/433 225/161/433 226/163/433
f 226/163/434 227/164/434 228/165/434
f 229/167/435 230/166/435 223/168/435
f 231/169/436 230/166/436 225/161/436
f 229/167/437 225/161/437 230/166/437
f 231/169/438 225/161/438 232/170/438
f 232/170/439 233/171/439 231/169/439
f 229/167/440 226/163/440 225/161/440
f 232/170/441 225/161/441 224/162/441
f 233/173/442 224/172/442 231/174/442
f 224/172/443 233/173/443 232/175/443
f 231/174/444 224/172/444 230/176/444
f 226/177/445 230/176/445 224/172/445
f 220/178/446 230/176/446 226/177/446
f 220/178/447 223/179/447 230/176/447
f 223/168/448 222/180/448 229/167/448
f 234/181/449 226/163/449 228/165/449
f 235/183/450 236/182/450 226/177/450
f 237/185/451 235/184/451 238/186/451
f 234/181/452 228/165/452 239/187/452
f 240/188/453 239/187/453 228/165/453
f 241/190/454 238/189/454 234/191/454
f 241/190/455 234/191/455 237/192/455
f 236/194/456 235/193/456 239/187/456
f 239/187/457 240/188/457 236/194/457
f 238/186/458 241/195/458 237/185/458
f 221/196/459 228/165/459 222/180/459
f 226/177/460 236/182/460 220/178/460
f 219/197/461 220/178/461 236/182/461
f 219/198/462 240/188/462 221/196/462
f 227/164/463 226/163/463 229/167/463
f 240/188/464 228/165/464 221/196/464
f 236/194/465 240/188/465 219/198/465
f 222/180/466 227/164/466 229/167/466
f 227/164/467 222/180/467 228/165/467
f 226/177/468 238/199/468 235/183/468
f 226/163/469 234/181/469 238/200/469
f 237/192/470 234/191/470 239/201/470
f 235/202/471 237/192/471 239/201/471
f 242/204/472 243/203/472 244/205/472
f 245/207/473 246/206/473 242/208/473
f 242/208/474 246/206/474 247/209/474
f 248/211/475 246/210/475 245/212/475
f 249/213/476 248/211/476 245/212/476
f 244/215/477 248/214/477 249/216/477
f 244/215/478 243/217/478 248/214/478
f 248/211/479 250/218/479 246/219/479
f 243/221/480 251/220/480 250/222/480
f 246/224/481 252/223/481 247/225/481
f 251/227/482 252/226/482 246/219/482
f 251/227/483 253/228/483 252/226/483
f 243/221/484 253/229/484 251/220/484
f 246/219/485 250/218/485 251/227/485
f 250/222/486 248/214/486 243/221/486
f 242/204/487 247/209/487 243/203/487
f 253/228/488 157/230/488 154/231/488
f 3/3/489 157/232/489 253/229/489
f 253/228/490 154/231/490 252/226/490
f 252/223/491 154/233/491 159/234/491
f 247/225/492 252/223/492 159/234/492
f 159/234/493 160/235/493 247/225/493
f 247/225/494 160/235/494 243/236/494
f 243/221/495 3/3/495 253/229/495
f 160/235/496 3/237/496 243/236/496
f 254/239/497 255/238/497 256/240/497
f 254/242/498 257/241/498 255/243/498
f 258/245/499 259/244/499 257/246/499
f 256/248/500 259/247/500 258/249/500
f 256/240/501 255/238/501 242/208/501
f 242/250/502 259/247/502 256/248/502
f 259/247/503 242/250/503 244/251/503
f 242/208/504 255/238/504 245/252/504
f 255/243/505 249/253/505 245/254/505
f 255/243/506 257/241/506 249/253/506
f 257/246/507 259/244/507 249/255/507
f 249/255/508 259/244/508 244/256/508
f 260/258/509 256/257/509 258/259/509
f 261/260/510 256/257/510 260/258/510
f 258/259/511 262/261/511 260/258/511
f 263/263/512 254/262/512 261/260/512
f 263/265/513 261/264/513 262/266/513
f 260/267/514 262/266/514 261/264/514
f 263/263/515 257/268/515 254/262/515
f 261/260/516 254/262/516 256/257/516
f 262/261/517 258/259/517 257/268/517
f 264/269/518 257/268/518 263/263/518
f 262/261/519 257/268/519 264/269/519
f 265/270/520 263/265/520 266/271/520
f 262/266/521 266/271/521 263/265/521
f 264/269/522 263/263/522 265/272/522
f 266/273/523 264/269/523 265/272/523
f 264/269/524 266/273/524 262/261/524
f 157/275/525 3/274/525 17/276/525

o 
usemtl axe.001
s off

v -22.017839 51.355938 32.645618
v -20.609961 47.259041 26.741890
v -25.303308 44.210373 35.992847
v -24.281731 43.787834 32.837269
v -25.678270 42.109070 36.152832
v -24.656689 41.686531 32.997250
v -25.139730 33.860691 33.977619
v -22.563770 36.309799 27.575510
v -24.009760 52.179829 38.798531
v -27.131651 34.684578 40.130531
v -26.585730 49.730728 45.200638
v -26.324890 44.632919 39.148441
v -26.699850 42.531609 39.308411
v -28.539541 38.781479 46.034260
v -22.449638 43.508911 33.467728
v -23.471220 43.931450 36.623322
v -22.824600 41.407608 33.627720
v -23.846180 41.830147 36.783291
v -24.492800 44.354000 39.778893
v -24.867762 42.252689 39.938881
v -14.087610 39.571358 1.348310
v -14.462570 37.470051 1.508290
v -12.630470 37.191132 2.138760
v -12.255510 39.292442 1.978780
v -27.747601 44.332611 46.188820
v -3.833710 33.073780 -31.323530
v -2.001620 32.794849 -30.693071
v -1.626650 34.896149 -30.853060
v -3.458750 35.175079 -31.483509

vt 0.033358 0.643728
vt 0.190411 0.923560
vt 0.402692 0.503812
vt 0.402692 0.647326
vt 0.408249 0.287497
vt 0.408249 0.367848
vt 0.492649 0.287497
vt 0.492649 0.367848
vt 0.403043 0.503812
vt 0.403044 0.647326
vt 0.033710 0.643728
vt 0.190763 0.923560
vt 0.033358 0.363896
vt 0.033710 0.363896
vt 0.190411 0.084064
vt 0.402692 0.360297
vt 0.408249 0.207147
vt 0.492649 0.207147
vt 0.403043 0.360297
vt 0.190763 0.084064
vt 0.408248 1.036942
vt 0.492649 1.036942
vt 0.483600 0.371280
vt 0.402049 0.371280
vt 0.402049 1.040375
vt 0.483600 1.040375
vt 0.450449 0.037941
vt 0.483600 0.210579
vt 0.402049 0.210579
vt 0.442825 0.041374
vt 0.000000 1.000000

vn -0.895843 0.235328 -0.376942
vn -0.877427 0.347599 -0.330600
vn -0.935930 0.142488 -0.322075
vn -0.950421 0.019786 -0.310335
vn -0.929119 0.011045 -0.369617
vn -0.907022 0.262995 -0.328852
vn -0.924412 0.271141 -0.268224
vn -0.951787 -0.069114 -0.298873
vn -0.963628 0.047762 -0.262944
vn 0.951787 0.069113 0.298873
vn 0.963628 -0.047761 0.262944
vn 0.935930 -0.142489 0.322074
vn 0.924413 -0.271141 0.268224
vn 0.907023 -0.262995 0.328852
vn 0.950421 -0.019786 0.310335
vn 0.929119 -0.011045 0.369617
vn 0.895843 -0.235329 0.376941
vn 0.877428 -0.347596 0.330601
vn 0.031752 -0.876638 -0.480102
vn 0.318741 0.731667 -0.602551
vn -0.031757 0.876639 0.480100
vn -0.318737 -0.731668 0.602552
vn 0.175176 0.981696 -0.074742
vn -0.175174 -0.981696 0.074742
vn -0.969083 0.158528 -0.189069
vn 0.884952 -0.123732 0.448944
vn -0.219098 -0.951559 0.215713
vn 0.127274 0.989539 0.067928
vn 0.305526 -0.126374 -0.943760

f 267/277/526 268/278/526 269/279/526
f 270/280/527 269/279/527 268/278/527
f 269/281/528 270/282/528 271/283/528
f 272/284/528 271/283/528 270/282/528
f 271/285/529 272/286/529 273/287/529
f 274/288/530 273/287/530 272/286/530
f 275/289/531 267/277/531 269/279/531
f 273/287/529 276/290/529 271/285/529
f 277/291/532 275/289/532 278/292/532
f 269/279/531 278/292/531 275/289/531
f 278/293/528 269/281/528 279/294/528
f 271/283/528 279/294/528 269/281/528
f 279/295/533 271/285/533 280/296/533
f 276/290/534 280/296/534 271/285/534
f 281/280/535 268/278/535 282/279/535
f 267/277/536 282/279/536 268/278/536
f 283/284/537 281/282/537 284/283/537
f 282/281/537 284/283/537 281/282/537
f 274/288/538 283/286/538 273/287/538
f 284/285/539 273/287/539 283/286/539
f 282/279/540 267/277/540 275/289/540
f 273/287/539 284/285/539 276/290/539
f 282/279/540 275/289/540 285/292/540
f 277/291/541 285/292/541 275/289/541
f 284/283/537 282/281/537 286/294/537
f 285/293/537 286/294/537 282/281/537
f 276/290/542 284/285/542 280/296/542
f 286/295/543 280/296/543 284/285/543
f 270/280/544 268/278/544 281/280/544
f 283/286/545 274/288/545 272/286/545
f 279/295/546 280/296/546 286/295/546
f 285/292/547 277/291/547 278/292/547
f 272/284/528 270/282/528 287/297/528
f 287/297/528 288/298/528 272/284/528
f 281/282/537 283/284/537 289/298/537
f 289/298/537 290/297/537 281/282/537
f 270/299/548 281/300/548 290/301/548
f 290/301/548 287/302/548 270/299/548
f 283/300/549 272/299/549 288/302/549
f 288/302/549 289/301/549 283/300/549
f 278/293/550 279/294/550 291/303/550
f 286/294/551 285/293/551 291/303/551
f 279/304/552 286/305/552 291/306/552
f 285/305/553 278/304/553 291/306/553
f 289/298/549 288/297/549 292/298/549 293/307/549
f 287/297/548 290/298/548 294/297/548 295/307/548
f 290/297/537 289/298/537 293/297/537 294/307/537
f 288/298/528 287/297/528 295/298/528 292/307/528
f 294/297/554 293/298/554 295/297/554
f 292/298/554 295/297/554 293/298/554

