mtllib anim_barb_attack_axeonly_000007.mtl

o fat
usemtl axe.001
s off

v 28.655340 67.720345 10.895140
v 22.608299 64.424576 13.383470
v 29.173191 71.176399 18.695450
v 26.428930 69.305649 18.309179
v 28.726238 71.402344 20.776520
v 25.981989 69.531578 20.390261
v 24.934160 69.601456 28.221951
v 20.279419 65.601860 24.227291
v 34.006229 71.368042 11.648300
v 30.285051 73.249161 28.975109
v 38.660961 75.367645 15.642960
v 31.917450 73.047165 19.081720
v 31.470510 73.273094 21.162788
v 36.332100 76.544930 26.486780
v 27.469891 67.696419 18.707449
v 30.214149 69.567169 19.093719
v 27.022942 67.922348 20.788519
v 29.767189 69.793098 21.174791
v 32.958401 71.437920 19.479990
v 32.511459 71.663872 21.561060
v -0.955480 50.637760 14.454700
v -1.402430 50.863689 16.535770
v -0.361470 49.254459 16.934040
v -0.639230 50.620960 14.676331
v 37.993420 76.295006 21.134811
v -29.952271 31.396029 12.519920
v -28.938829 29.870670 12.812630
v -28.464180 29.560890 10.837250
v -29.505402 31.169920 10.438860

vt 0.033358 0.643728
vt 0.190411 0.923560
vt 0.402692 0.503812
vt 0.402692 0.647326
vt 0.408249 0.287497
vt 0.408249 0.367848
vt 0.492649 0.287497
vt 0.492649 0.367848
vt 0.403043 0.503812
vt 0.403044 0.647326
vt 0.033710 0.643728
vt 0.190763 0.923560
vt 0.033358 0.363896
vt 0.033710 0.363896
vt 0.190411 0.084064
vt 0.402692 0.360297
vt 0.408249 0.207147
vt 0.492649 0.207147
vt 0.403043 0.360297
vt 0.190763 0.084064
vt 0.408248 1.036942
vt 0.492649 1.036942
vt 0.483600 0.371280
vt 0.402049 0.371280
vt 0.402049 1.040375
vt 0.483600 1.040375
vt 0.450449 0.037941
vt 0.483600 0.210579
vt 0.402049 0.210579
vt 0.442825 0.041374
vt 0.000000 1.000000

vn -0.549824 0.776588 -0.307578
vn -0.475342 0.780951 -0.405174
vn -0.531774 0.822083 -0.203459
vn -0.553545 0.828826 -0.081456
vn -0.604687 0.791591 -0.087967
vn -0.501814 0.802676 -0.322325
vn -0.448448 0.836476 -0.314964
vn -0.563973 0.825759 0.007523
vn -0.506687 0.856696 -0.096643
vn 0.563974 -0.825758 -0.007523
vn 0.506687 -0.856696 0.096644
vn 0.531774 -0.822084 0.203456
vn 0.448448 -0.836476 0.314963
vn 0.501813 -0.802677 0.322323
vn 0.553544 -0.828827 0.081457
vn 0.604686 -0.791591 0.087967
vn 0.549824 -0.776588 0.307578
vn 0.475346 -0.780951 0.405169
vn -0.641806 -0.234455 0.730148
vn -0.299726 -0.407382 -0.862673
vn 0.641805 0.234458 -0.730148
vn 0.299727 0.407380 0.862673
vn 0.502432 -0.710915 -0.492100
vn 0.205140 -0.108051 -0.972750
vn 0.464952 -0.536662 -0.704140
vn -0.208802 0.105551 0.972245
vn -0.413711 0.891287 -0.185611
vn 0.639710 -0.737222 0.217427
vn -0.083099 0.188432 0.978564
vn 0.329767 -0.020277 -0.943845
vn -0.197478 0.085839 0.976542
vn 0.247022 -0.158327 -0.955988
vn 0.589985 -0.789397 -0.169620
vn -0.531886 0.822001 -0.203497
vn -0.821851 -0.559019 -0.109812
vn -0.817250 -0.564872 -0.114114

f 1/1/1 2/2/1 3/3/1
f 4/4/2 3/3/2 2/2/2
f 3/5/3 4/6/3 5/7/3
f 6/8/3 5/7/3 4/6/3
f 5/9/4 6/10/4 7/11/4
f 8/12/5 7/11/5 6/10/5
f 9/13/6 1/1/6 3/3/6
f 7/11/4 10/14/4 5/9/4
f 11/15/7 9/13/7 12/16/7
f 3/3/6 12/16/6 9/13/6
f 12/17/3 3/5/3 13/18/3
f 5/7/3 13/18/3 3/5/3
f 13/19/8 5/9/8 14/20/8
f 10/14/9 14/20/9 5/9/9
f 15/4/10 2/2/10 16/3/10
f 1/1/11 16/3/11 2/2/11
f 17/8/12 15/6/12 18/7/12
f 16/5/12 18/7/12 15/6/12
f 8/12/13 17/10/13 7/11/13
f 18/9/14 7/11/14 17/10/14
f 16/3/15 1/1/15 9/13/15
f 7/11/14 18/9/14 10/14/14
f 16/3/15 9/13/15 19/16/15
f 11/15/16 19/16/16 9/13/16
f 18/7/12 16/5/12 20/18/12
f 19/17/12 20/18/12 16/5/12
f 10/14/17 18/9/17 14/20/17
f 20/19/18 14/20/18 18/9/18
f 4/4/19 2/2/19 15/4/19
f 17/10/20 8/12/20 6/10/20
f 13/19/21 14/20/21 20/19/21
f 19/16/22 11/15/22 12/16/22
f 6/8/3 4/6/3 21/21/3
f 21/21/3 22/22/3 6/8/3
f 15/6/12 17/8/12 23/22/12
f 23/22/23 24/21/23 15/6/23
f 4/23/24 15/24/24 24/25/24
f 24/25/25 21/26/25 4/23/25
f 17/24/26 6/23/26 22/26/26
f 22/26/26 23/25/26 17/24/26
f 12/17/27 13/18/27 25/27/27
f 20/18/28 19/17/28 25/27/28
f 13/28/29 20/29/29 25/30/29
f 19/29/30 12/28/30 25/30/30
f 23/22/31 22/21/31 26/22/31 27/31/31
f 21/21/32 24/22/32 28/21/32 29/31/32
f 24/21/33 23/22/33 27/21/33 28/31/33
f 22/22/34 21/21/34 29/22/34 26/31/34
f 28/21/35 27/22/35 29/21/35
f 26/22/36 29/21/36 27/22/36

