mtllib anim_barb_attack6_axe_000003.mtl

o fat
usemtl axe.001
s off

v 29.459610 64.672348 11.682051
v 23.232450 61.531219 13.912830
v 30.181881 67.411499 19.746340
v 27.333241 65.742798 19.216690
v 29.749969 67.483795 21.841549
v 26.901331 65.815079 21.311901
v 25.863600 65.274200 29.126560
v 20.981920 61.907890 24.830311
v 35.014050 67.926071 12.714790
v 31.418039 68.527916 30.159290
v 39.895741 71.292381 17.011030
v 33.030529 69.080200 20.275991
v 32.598610 69.152481 22.371199
v 37.645210 71.669052 27.928520
v 28.279030 64.047783 19.470140
v 31.127680 65.716492 19.999790
v 27.847130 64.120071 21.565340
v 30.695770 65.788773 22.095001
v 33.976311 67.385193 20.529430
v 33.544411 67.457481 22.624641
v -1.092830 49.091141 13.931440
v -1.524740 49.163433 16.026640
v -0.578940 47.468410 16.280090
v -0.774780 49.032669 14.147739
v 39.286263 71.782860 22.565670
v -31.162811 31.801182 10.516290
v -30.241570 30.190279 10.670780
v -29.785080 30.033878 8.674540
v -30.730919 31.728880 8.421080

vt 0.033358 0.643728
vt 0.190411 0.923560
vt 0.402692 0.503812
vt 0.402692 0.647326
vt 0.408249 0.287497
vt 0.408249 0.367848
vt 0.492649 0.287497
vt 0.492649 0.367848
vt 0.403043 0.503812
vt 0.403044 0.647326
vt 0.033710 0.643728
vt 0.190763 0.923560
vt 0.033358 0.363896
vt 0.033710 0.363896
vt 0.190411 0.084064
vt 0.402692 0.360297
vt 0.408249 0.207147
vt 0.492649 0.207147
vt 0.403043 0.360297
vt 0.190763 0.084064
vt 0.408248 1.036942
vt 0.492649 1.036942
vt 0.483600 0.371280
vt 0.402049 0.371280
vt 0.402049 1.040375
vt 0.483600 1.040375
vt 0.450449 0.037941
vt 0.483600 0.210579
vt 0.402049 0.210579
vt 0.442825 0.041374
vt 0.000000 1.000000

vn -0.503886 0.830620 -0.237002
vn -0.429330 0.839009 -0.334275
vn -0.483164 0.865904 -0.129475
vn -0.504438 0.863418 -0.007225
vn -0.557663 0.829901 -0.016613
vn -0.454447 0.855052 -0.249728
vn -0.399201 0.884949 -0.239799
vn -0.514980 0.853345 0.081225
vn -0.456046 0.889726 -0.020231
vn 0.514980 -0.853345 -0.081226
vn 0.456046 -0.889726 0.020231
vn 0.483162 -0.865905 0.129474
vn 0.399202 -0.884949 0.239799
vn 0.454446 -0.855052 0.249728
vn 0.504437 -0.863418 0.007224
vn 0.557662 -0.829902 0.016613
vn 0.503886 -0.830620 0.237001
vn 0.429333 -0.839009 0.334272
vn -0.653960 -0.258593 0.710961
vn -0.323386 -0.313922 -0.892678
vn 0.653958 0.258597 -0.710962
vn 0.323386 0.313921 0.892679
vn 0.460378 -0.695084 -0.552187
vn 0.198030 -0.035967 -0.979536
vn 0.427549 -0.488428 -0.760684
vn -0.201779 0.033769 0.978849
vn -0.361264 0.926370 -0.106429
vn 0.595860 -0.788946 0.150050
vn -0.071463 0.108383 0.991537
vn 0.327515 0.041607 -0.943929
vn -0.191567 0.012912 0.981395
vn 0.236321 -0.088890 -0.967601
vn 0.542912 -0.804724 -0.240138
vn -0.483177 0.865896 -0.129479
vn -0.852476 -0.498997 -0.155842
vn -0.850560 -0.501575 -0.158022

f 1/1/1 2/2/1 3/3/1
f 4/4/2 3/3/2 2/2/2
f 3/5/3 4/6/3 5/7/3
f 6/8/3 5/7/3 4/6/3
f 5/9/4 6/10/4 7/11/4
f 8/12/5 7/11/5 6/10/5
f 9/13/6 1/1/6 3/3/6
f 7/11/4 10/14/4 5/9/4
f 11/15/7 9/13/7 12/16/7
f 3/3/6 12/16/6 9/13/6
f 12/17/3 3/5/3 13/18/3
f 5/7/3 13/18/3 3/5/3
f 13/19/8 5/9/8 14/20/8
f 10/14/9 14/20/9 5/9/9
f 15/4/10 2/2/10 16/3/10
f 1/1/11 16/3/11 2/2/11
f 17/8/12 15/6/12 18/7/12
f 16/5/12 18/7/12 15/6/12
f 8/12/13 17/10/13 7/11/13
f 18/9/14 7/11/14 17/10/14
f 16/3/15 1/1/15 9/13/15
f 7/11/14 18/9/14 10/14/14
f 16/3/15 9/13/15 19/16/15
f 11/15/16 19/16/16 9/13/16
f 18/7/12 16/5/12 20/18/12
f 19/17/12 20/18/12 16/5/12
f 10/14/17 18/9/17 14/20/17
f 20/19/18 14/20/18 18/9/18
f 4/4/19 2/2/19 15/4/19
f 17/10/20 8/12/20 6/10/20
f 13/19/21 14/20/21 20/19/21
f 19/16/22 11/15/22 12/16/22
f 6/8/3 4/6/3 21/21/3
f 21/21/3 22/22/3 6/8/3
f 15/6/12 17/8/12 23/22/12
f 23/22/23 24/21/23 15/6/23
f 4/23/24 15/24/24 24/25/24
f 24/25/25 21/26/25 4/23/25
f 17/24/26 6/23/26 22/26/26
f 22/26/26 23/25/26 17/24/26
f 12/17/27 13/18/27 25/27/27
f 20/18/28 19/17/28 25/27/28
f 13/28/29 20/29/29 25/30/29
f 19/29/30 12/28/30 25/30/30
f 23/22/31 22/21/31 26/22/31 27/31/31
f 21/21/32 24/22/32 28/21/32 29/31/32
f 24/21/33 23/22/33 27/21/33 28/31/33
f 22/22/34 21/21/34 29/22/34 26/31/34
f 28/21/35 27/22/35 29/21/35
f 26/22/36 29/21/36 27/22/36

