mtllib anim_skel_walk_swordshield_000012.mtl

o msked
usemtl shield.001
s off

v -9.268030 34.463589 -1.008830
v -10.552170 34.473110 -0.337760
v -8.509110 34.538731 20.464590
v -10.261040 33.154110 -0.895220
v -8.713190 33.033150 -0.382660
v -10.186171 34.137051 -0.966190
v -13.347159 36.689301 0.076520
v -9.409679 34.203888 -5.682740
v -10.437160 33.961552 -5.618170
v -10.424431 32.904709 -5.578980
v -5.880910 30.843040 -0.105750
v -9.145950 33.322540 -0.991580
v -9.396940 33.147041 -5.643560
v 14.864369 49.644897 2.318880
v 14.577520 38.845562 7.238810
v 2.028050 40.312981 8.791760
v 15.815190 40.542313 12.070480
v 26.954781 36.977570 3.670250
v 12.938090 8.001040 17.436489

vt 0.856301 0.265607
vt 0.764624 0.294094
vt 0.850192 0.976825
vt 0.858158 0.265976
vt 0.949099 0.282658
vt 0.742843 0.255302
vt 0.692067 0.254404
vt 0.541488 0.402851
vt 0.893183 0.241135
vt 0.851577 0.242328
vt 0.847036 0.027305
vt 0.893183 0.027305
vt 0.742053 0.256467
vt 0.849952 0.242815
vt 0.544321 0.402080
vt 0.692550 0.250793
vt 0.800888 0.241135
vt 0.800888 0.027305
vt 0.697126 0.324563
vt 0.698569 0.321089
vt 0.345626 0.959903
vt 0.345626 0.724031
vt 0.085605 0.724031
vt 0.605647 0.724031
vt 0.345626 0.075832

vn 0.005482 0.999978 -0.003693
vn -0.962806 -0.252809 0.095357
vn 0.936748 0.348318 -0.034326
vn -0.101596 -0.992169 0.072649
vn -0.128262 0.234799 -0.963545
vn -0.336532 0.940732 -0.042072
vn -0.230931 0.972668 -0.024234
vn -0.343136 -0.041614 -0.938363
vn -0.998477 -0.010017 0.054249
vn -0.996474 0.078117 0.030600
vn -0.053836 -0.037643 -0.997840
vn 0.272102 0.014565 -0.962158
vn 0.993739 0.105770 -0.035994
vn 0.998477 0.010022 -0.054250
vn -0.025190 -0.365582 -0.930438
vn 0.230922 -0.972670 0.024235
vn 0.153168 -0.987072 0.047216
vn -0.200650 -0.418624 0.885716
vn -0.320882 -0.301449 0.897866
vn 0.429011 0.388624 0.815427
vn 0.286117 0.475211 0.832053
vn -0.158830 -0.405821 -0.900046
vn -0.173777 0.711383 0.680981
vn 0.589691 0.618269 0.519623
vn -0.308905 -0.387498 -0.868575
vn -0.151851 -0.302979 -0.940821
vn -0.230461 0.178125 0.956639
vn 0.615571 0.074940 0.784511
vn -0.304967 -0.284300 -0.908938

f 1/1/1 2/2/1 3/3/1
f 3/3/2 2/2/2 4/4/2
f 1/1/3 3/3/3 5/5/3
f 3/3/4 4/4/4 5/5/4
f 1/6/5 6/7/5 7/8/5
f 6/9/6 1/10/6 8/11/6
f 8/11/7 9/12/7 6/9/7
f 7/8/8 6/7/8 4/13/8
f 6/9/9 9/12/9 10/11/9
f 10/11/10 4/14/10 6/9/10
f 9/12/11 8/11/11 10/11/11
f 1/6/12 11/15/12 12/16/12
f 8/11/13 1/10/13 12/17/13
f 8/11/14 12/17/14 13/18/14
f 11/15/15 4/13/15 12/16/15
f 12/17/16 10/11/16 13/18/16
f 10/11/17 12/17/17 4/14/17
f 13/18/11 10/11/11 8/11/11
f 4/13/18 2/19/18 7/8/18
f 11/15/19 5/20/19 4/13/19
f 2/19/20 1/6/20 7/8/20
f 1/6/21 5/20/21 11/15/21
f 14/21/22 15/22/22 16/23/22
f 14/21/23 16/23/23 17/22/23
f 14/21/24 17/22/24 18/24/24
f 14/21/25 18/24/25 15/22/25
f 19/25/26 16/23/26 15/22/26
f 19/25/27 17/22/27 16/23/27
f 19/25/28 18/24/28 17/22/28
f 19/25/29 15/22/29 18/24/29

