mtllib anim_barb_attack6_axe_000072.mtl

o fat
usemtl axe.001
s off

v -14.941970 15.150470 40.323448
v -13.968420 18.475010 33.872070
v -17.673950 8.487160 35.719761
v -16.940910 11.137020 33.816952
v -17.966551 7.304380 33.959911
v -17.233509 9.954250 32.057091
v -17.378170 5.302780 25.671061
v -15.493099 12.311930 24.702011
v -16.371281 9.983620 44.033669
v -18.807480 0.135940 29.381279
v -18.256361 2.974480 45.002716
v -18.406990 5.837280 37.622589
v -18.699591 4.654510 35.862728
v -19.781031 -3.188610 35.832661
v -15.049870 10.631900 33.842010
v -15.782900 7.982030 35.744843
v -15.342470 9.449121 32.082161
v -16.075500 6.799260 33.984970
v -16.515930 5.332170 37.647652
v -16.808540 4.149390 35.887798
v -9.626080 37.579540 14.829060
v -9.918690 36.396759 13.069201
v -8.027630 35.891640 13.094271
v -9.313670 41.368252 16.033150
v -19.151421 -0.586860 40.762230
v -2.290200 63.966213 -6.728670
v -0.496690 63.462292 -6.761230
v -0.106600 64.643814 -4.943660
v -1.997630 65.149010 -4.968830

vt 0.033358 0.643728
vt 0.190411 0.923560
vt 0.402692 0.503812
vt 0.402692 0.647326
vt 0.408249 0.287497
vt 0.408249 0.367848
vt 0.492649 0.287497
vt 0.492649 0.367848
vt 0.403043 0.503812
vt 0.403044 0.647326
vt 0.033710 0.643728
vt 0.190763 0.923560
vt 0.033358 0.363896
vt 0.033710 0.363896
vt 0.190411 0.084064
vt 0.402692 0.360297
vt 0.408249 0.207147
vt 0.492649 0.207147
vt 0.403043 0.360297
vt 0.190763 0.084064
vt 0.408248 1.036942
vt 0.492649 1.036942
vt 0.483600 0.371280
vt 0.402049 0.371280
vt 0.402049 1.040375
vt 0.483600 1.040375
vt 0.450449 0.037941
vt 0.483600 0.210579
vt 0.402049 0.210579
vt 0.442825 0.041374
vt 0.000000 1.000000

vn -0.934210 0.354290 0.041596
vn -0.915026 0.369444 0.161984
vn -0.966048 0.258044 -0.012806
vn -0.975541 0.187608 -0.114553
vn -0.959645 0.237209 -0.151041
vn -0.941675 0.324504 0.089137
vn -0.953533 0.273824 0.125680
vn -0.973053 0.134886 -0.187012
vn -0.985099 0.158381 -0.067040
vn 0.973053 -0.134886 0.187011
vn 0.985099 -0.158381 0.067040
vn 0.966049 -0.258042 0.012806
vn 0.953533 -0.273823 -0.125679
vn 0.941675 -0.324503 -0.089137
vn 0.975541 -0.187608 0.114553
vn 0.959645 -0.237209 0.151041
vn 0.934210 -0.354290 -0.041596
vn 0.915026 -0.369443 -0.161982
vn 0.013770 0.001934 -0.999903
vn 0.237726 0.907213 0.347062
vn -0.013772 -0.001934 0.999903
vn -0.237723 -0.907213 -0.347062
vn 0.935093 0.030089 0.353121
vn 0.117084 0.481437 0.868625
vn -0.973443 0.138258 -0.182467
vn -0.136698 -0.552575 -0.822177
vn -0.987033 0.146471 0.065666
vn 0.926664 -0.364700 0.091036
vn -0.168094 -0.665392 -0.727322
vn 0.102206 0.427207 0.898359
vn -0.152062 -0.549159 -0.821767
vn -0.845052 0.475654 0.244214
vn 0.953282 -0.079849 0.291339
vn -0.966038 0.258080 -0.012843
vn 0.220064 0.795612 -0.564423
vn 0.212813 0.794203 -0.569169

f 1/1/1 2/2/1 3/3/1
f 4/4/2 3/3/2 2/2/2
f 3/5/3 4/6/3 5/7/3
f 6/8/3 5/7/3 4/6/3
f 5/9/4 6/10/4 7/11/4
f 8/12/5 7/11/5 6/10/5
f 9/13/6 1/1/6 3/3/6
f 7/11/4 10/14/4 5/9/4
f 11/15/7 9/13/7 12/16/7
f 3/3/6 12/16/6 9/13/6
f 12/17/3 3/5/3 13/18/3
f 5/7/3 13/18/3 3/5/3
f 13/19/8 5/9/8 14/20/8
f 10/14/9 14/20/9 5/9/9
f 15/4/10 2/2/10 16/3/10
f 1/1/11 16/3/11 2/2/11
f 17/8/12 15/6/12 18/7/12
f 16/5/12 18/7/12 15/6/12
f 8/12/13 17/10/13 7/11/13
f 18/9/14 7/11/14 17/10/14
f 16/3/15 1/1/15 9/13/15
f 7/11/14 18/9/14 10/14/14
f 16/3/15 9/13/15 19/16/15
f 11/15/16 19/16/16 9/13/16
f 18/7/12 16/5/12 20/18/12
f 19/17/12 20/18/12 16/5/12
f 10/14/17 18/9/17 14/20/17
f 20/19/18 14/20/18 18/9/18
f 4/4/19 2/2/19 15/4/19
f 17/10/20 8/12/20 6/10/20
f 13/19/21 14/20/21 20/19/21
f 19/16/22 11/15/22 12/16/22
f 6/8/3 4/6/3 21/21/3
f 21/21/3 22/22/3 6/8/3
f 15/6/12 17/8/12 23/22/12
f 23/22/23 24/21/23 15/6/23
f 4/23/24 15/24/24 24/25/24
f 24/25/25 21/26/25 4/23/25
f 17/24/26 6/23/26 22/26/26
f 22/26/26 23/25/26 17/24/26
f 12/17/27 13/18/27 25/27/27
f 20/18/28 19/17/28 25/27/28
f 13/28/29 20/29/29 25/30/29
f 19/29/30 12/28/30 25/30/30
f 23/22/31 22/21/31 26/22/31 27/31/31
f 21/21/32 24/22/32 28/21/32 29/31/32
f 24/21/33 23/22/33 27/21/33 28/31/33
f 22/22/34 21/21/34 29/22/34 26/31/34
f 28/21/35 27/22/35 29/21/35
f 26/22/36 29/21/36 27/22/36

