mtllib anim_barb_attack_barbonly_000035.mtl

o fat
usemtl fat.001
s off

v -0.137810 30.412550 -13.007000
v 1.860240 36.144421 6.136090
v 0.318890 29.781530 -8.489240
v 0.410170 51.778568 -18.193001
v 9.299520 56.415802 -19.371349
v 2.812830 48.079102 -16.768490
v -0.362600 44.205441 -14.265929
v 7.087200 57.172131 -14.869600
v 7.702180 50.303932 -11.606540
v 6.919220 44.803299 -10.238219
v 4.142630 44.075298 -14.258861
v 6.403020 48.560188 -16.169731
v 9.003679 28.860649 -5.179740
v 9.352560 31.557629 -11.380159
v 10.561490 31.081909 -11.932130
v 6.412290 29.492050 -5.273860
v 3.993900 28.997322 -2.701410
v 4.408740 30.738371 -16.764191
v 3.744780 31.796400 -15.442551
v 0.502520 30.884060 -14.293180
v -0.321370 27.100439 -12.609159
v 0.201120 57.375458 -18.627121
v 0.170300 59.143711 -19.163851
v 0.128960 53.113060 -4.805850
v 5.379790 52.700657 -7.296280
v 6.255160 56.981121 -7.477870
v 8.980730 56.074947 -9.750770
v 6.123870 59.670929 -8.266991
v 10.920230 59.341843 -14.833130
v 4.497020 44.880211 -5.725450
v 1.102870 45.501259 -4.109210
v 0.791740 60.029060 -6.542870
v 4.825240 61.533607 -18.559910
v 10.987600 58.571819 -16.765150
v 11.440479 59.852520 -16.411329
v 2.905110 63.811512 -10.260479
v 5.512380 63.754951 -14.888740
v 0.171630 63.199879 -9.360710
v 2.663080 68.395279 -14.452271
v 3.279240 65.262825 -17.030170
v 0.247260 65.186813 -17.878960
v 0.175950 68.710953 -15.821930
v 0.334850 62.728401 -19.090790
v 0.489180 40.540817 -3.897810
v 5.364230 40.277718 -4.747220
v 8.418850 39.925972 -9.924690
v 4.990360 39.326160 -15.101810
v -0.188040 38.897141 -15.102969
v 10.329141 60.445080 -17.833910
v 9.422560 58.248020 -13.406460
v 12.116241 60.702747 -16.406919
v 11.986710 59.668709 -15.444309
v 6.844720 60.712883 -18.076950
v 2.581520 69.252716 -9.002680
v 1.180830 68.229683 -6.938960
v 2.894370 64.675781 -9.299450
v 1.639600 64.173859 -7.011220
v 0.698310 66.892120 -6.643950
v 1.643460 70.084015 -7.633460
v -0.144470 70.026222 -7.343340
v 3.177320 69.853050 -11.962620
v 0.535690 73.923584 -8.246140
v -0.763210 73.944534 -7.972770
v 1.701340 71.472214 -7.354140
v 2.256590 73.011452 -8.814930
v 1.223440 74.531082 -11.206501
v -0.414440 74.476707 -11.393870
v 0.269850 68.369438 -6.433840
v -0.765430 70.820648 -7.256080
v -0.900690 69.161598 -5.605700
v -0.835060 68.436478 -6.065760
v -0.843340 66.910278 -5.647400
v 0.535200 64.129959 -5.358880
v -0.861440 64.230011 -4.879050
v 3.025130 72.120964 -12.531270
v 2.543030 73.178223 -13.390970
v -0.045170 73.119270 -14.588250
v 10.868360 63.208344 -17.831110
v 12.205510 62.568039 -14.397989
v 4.857310 65.661079 -12.761630
v 5.797060 66.451157 -17.206720
v 8.868990 61.947189 -10.889740
v 5.144750 70.528275 -12.338961
v 4.902430 75.465599 -14.328541
v 3.691330 72.749084 -14.951971
v 8.012600 71.953621 -10.816589
v 9.669990 71.085938 -13.234461
v 7.705300 75.457710 -15.270120
v 8.682840 71.606850 -15.122870
v 8.153720 73.747269 -17.074760
v 5.947030 72.407600 -15.150770
v 6.108330 71.952438 -17.495411
v 8.401860 68.990982 -11.073680
v 8.331410 70.325226 -10.893150
v 11.552800 66.151009 -13.919450
v 10.086821 66.598595 -17.085030
v 6.071610 70.619614 -15.658931
v 8.995060 66.196777 -10.481730
v 2.095620 78.027740 -20.438231
v 1.643560 76.383171 -21.265659
v 3.525700 78.388901 -20.946711
v 4.183450 77.032936 -22.087601
v 3.252500 75.710663 -22.451450
v 1.983920 76.070000 -27.492819
v 1.280800 76.538490 -27.124910
v 1.804330 76.987007 -26.007320
v 2.750750 76.943779 -25.816231
v 2.752090 78.597679 -26.190750
v 1.853130 75.043686 -25.243641
v 2.571480 75.962440 -26.012621
v 1.163190 75.356621 -27.325340
v 1.187570 76.500519 -28.653469
v 0.585170 75.964890 -28.406948
v 1.534230 79.349632 -27.905979
v -0.364200 80.401390 -22.899872
v -1.153260 81.381294 -24.417591
v -1.965200 82.471146 -27.006399
v 1.027200 78.194481 -27.633190
v -0.194860 81.726295 -24.691479
v 0.823250 80.997299 -23.194580
v -0.271230 79.902748 -29.990511
v 3.921370 18.642179 -14.219340
v 7.434240 18.136280 -22.899771
v 5.166040 13.006269 -19.583319
v 9.747220 19.774630 -14.947451
v 12.371830 15.401779 -20.166458
v 6.138390 20.734051 -17.697380
v 8.111240 15.688519 -13.511690
v 9.179430 11.387720 -16.991640
v 7.888700 17.401691 -11.769361
v 7.954090 20.000010 -11.411350
v 10.529190 23.624630 -14.818330
v 7.679530 23.677389 -7.939500
v 11.956290 8.942080 -28.777908
v 13.255110 7.670130 -31.643921
v 10.040040 9.055921 -32.714050
v 11.152040 6.716700 -28.639660
v 8.469640 8.376240 -29.243549
v 8.442739 6.223660 -31.381750
v 9.486020 4.757420 -35.812870
v 12.465950 5.398630 -35.973099
v 10.414320 0.872230 -28.162220
v 16.308090 2.729900 -28.577808
v 13.266920 2.058580 -24.327171
v 16.005100 0.795630 -24.893820
v 12.284340 -0.662790 -24.058741
v -9.792990 56.163269 -14.989460
v -1.892230 48.082638 -16.931660
v -6.113190 59.530949 -10.362130
v -7.318430 50.248760 -11.477539
v -4.956670 44.344200 -12.632400
v -6.374790 44.940029 -7.962810
v -5.753590 48.748760 -16.340420
v -9.006149 31.428371 -9.919490
v -7.268270 29.613918 -3.951600
v -10.268280 30.810070 -9.852790
v -4.827410 33.729340 -5.564070
v -5.057970 27.142220 -13.311720
v -4.554060 30.084021 -14.169001
v -1.041260 28.989880 -13.095200
v -4.829290 52.730591 -6.953880
v -5.086390 57.141262 -6.578660
v -10.035430 57.049149 -9.159590
v -4.769800 59.873108 -7.206490
v -9.977301 60.755150 -13.566320
v -2.454760 45.395187 -4.005980
v -11.628990 57.647228 -14.966299
v -4.955480 61.585201 -18.210581
v -11.457390 60.263130 -14.689321
v -2.595220 63.797741 -10.229011
v -5.906420 63.248009 -14.887361
v -2.505460 68.282829 -14.931089
v -2.831450 65.205139 -17.261200
v -3.837170 39.873459 -3.892820
v -7.887930 39.447300 -9.294640
v -5.416080 38.012569 -15.064811
v -11.073280 62.111313 -15.026430
v -10.135890 57.011269 -8.742370
v -13.056220 60.432621 -14.163980
v -12.852591 58.177040 -11.444830
v -9.485920 59.936108 -11.724410
v -2.612380 68.140457 -7.339550
v -3.597380 69.107391 -9.655210
v -3.200620 64.611237 -9.643470
v -2.856860 64.068100 -7.486080
v -2.140430 66.825348 -6.943730
v -1.316860 69.998657 -7.467130
v -3.005530 69.974670 -8.124439
v -3.589360 69.693901 -12.677240
v -1.974020 73.864563 -8.511189
v -3.184930 71.357285 -7.870160
v -3.493930 72.876190 -9.422230
v -2.056070 74.453949 -11.552810
v -1.834430 68.319946 -6.656070
v -2.120930 64.067490 -5.639410
v -3.427430 71.969193 -13.212690
v -2.826170 73.051926 -13.958000
v -12.338949 63.396118 -13.102770
v -13.846220 60.735558 -10.897551
v -8.768880 66.747940 -9.673550
v -7.978780 63.917206 -6.140280
v -10.900240 58.984550 -7.381070
v -7.924620 70.203156 -2.488990
v -9.841000 67.738159 -3.411550
v -9.195410 67.347839 -6.631530
v -13.124610 67.246292 -2.132020
v -14.188860 67.411308 -5.016430
v -9.801030 72.297806 -3.230090
v -13.363350 69.156670 -6.060360
v -10.809279 72.585213 -6.077490
v -9.917900 70.768082 -8.094240
v -11.109951 70.520851 -5.028640
v -12.454740 64.877945 -3.876470
v -12.799560 65.879730 -3.123590
v -14.374290 63.406940 -8.433130
v -12.880070 65.832550 -10.520110
v -10.313090 68.362495 -6.725030
v -12.143579 62.209961 -4.803640
v -2.575850 74.444588 -5.174510
v -2.862840 73.864220 -6.985570
v -3.837480 75.729752 -5.187100
v -4.613340 75.981644 -6.942880
v -4.189760 75.000908 -8.161800
v -0.619850 77.637619 -10.931840
v -1.451730 77.921860 -11.514111
v -1.131310 77.334930 -9.811171
v -2.300520 77.698158 -9.670151
v -1.586920 78.937576 -8.752930
v -2.441410 77.156517 -10.519080
v -2.186660 75.732285 -10.662240
v -1.036300 77.004791 -11.958540
v -0.253630 78.572258 -12.068850
v 0.012850 77.812431 -12.318060
v 0.261460 79.948631 -9.492650
v 2.034160 78.087578 -5.644570
v 0.736690 76.741890 -5.250640
v 3.646200 80.201912 -6.723310
v 0.163220 78.922470 -10.132370
v 1.722980 78.467163 -5.665590
v 0.124860 77.522102 -5.075560
v 2.451330 80.981407 -10.639991
v -6.751060 17.232471 -5.168980
v -3.220660 23.597149 1.403280
v -4.404820 15.486011 -0.694800
v -11.643810 17.079580 -1.942120
v -9.070810 23.782761 0.074870
v -5.489470 23.421471 -2.139190
v -7.293360 21.752811 2.935650
v -8.375540 15.227730 2.314330
v -7.160360 24.075970 3.700230
v -6.552380 26.209270 2.651270
v -10.019031 26.864740 -1.164560
v -5.989530 31.737179 -1.659440
v -12.424560 3.555260 -4.591380
v -11.149830 6.357880 -3.703320
v -9.261080 4.020540 -6.634350
v -10.279400 4.323030 -1.526890
v -7.592890 2.518370 -3.705900
v -7.645580 5.586460 -3.099450
v -8.567090 -1.063710 -6.740310
v -11.577720 -0.417660 -7.289110
v -9.320580 -0.701510 1.675350
v -15.279690 0.748980 0.627220
v -12.191710 2.827690 4.524280
v -14.886820 1.391000 4.817800
v -11.112190 0.737300 6.229650

vt 0.550479 0.485338
vt 0.414517 0.485338
vt 0.489174 0.497239
vt 0.490853 0.675485
vt 0.356970 0.710738
vt 0.458986 0.602657
vt 0.458693 0.603155
vt 0.491001 0.506534
vt 0.357039 0.710738
vt 0.272881 0.708251
vt 0.307767 0.663467
vt 0.329118 0.504113
vt 0.420682 0.504388
vt 0.307693 0.663467
vt 0.420389 0.504181
vt 0.390374 0.619683
vt 0.389206 0.622726
vt 0.390855 0.620128
vt 0.309151 0.663075
vt 0.578845 0.971377
vt 0.529882 0.993867
vt 0.501054 0.950636
vt 0.597833 0.993868
vt 0.684209 0.993870
vt 0.691613 0.940228
vt 0.584242 0.936155
vt 0.602549 0.993867
vt 0.689094 0.993870
vt 0.694409 0.971380
vt 0.730001 0.975635
vt 0.490853 0.781888
vt 0.490853 0.820915
vt 0.240556 0.660920
vt 0.133663 0.660928
vt 0.131880 0.753091
vt 0.060606 0.782384
vt 0.055577 0.663688
vt 0.136145 0.808744
vt 0.060014 0.783494
vt 0.058190 0.859642
vt 0.160773 0.512959
vt 0.067037 0.515196
vt 0.240700 0.512959
vt 0.131877 0.752996
vt 0.240556 0.781375
vt 0.390182 0.870896
vt 0.298691 0.847983
vt 0.294173 0.886121
vt 0.181129 0.899551
vt 0.052544 0.886601
vt 0.145152 0.921474
vt 0.235241 0.891030
vt 0.142740 0.921054
vt 0.172936 0.966074
vt 0.456563 0.999059
vt 0.389917 0.922986
vt 0.429989 0.941889
vt 0.491140 0.942697
vt 0.490646 0.999330
vt 0.490853 0.898039
vt 0.701416 0.118225
vt 0.813217 0.120956
vt 0.790107 0.184348
vt 0.877923 0.002315
vt 0.872775 0.120438
vt 0.505869 0.118716
vt 0.564263 0.119120
vt 0.507564 0.183764
vt 0.697589 0.180917
vt 0.580429 0.182675
vt 0.710756 0.001536
vt 0.701372 0.182427
vt 0.812168 0.002315
vt 0.857243 0.184348
vt 0.697567 0.116528
vt 0.503935 0.000692
vt 0.561277 0.000692
vt 0.688827 -0.000098
vt 0.002866 0.854679
vt 0.027518 0.706813
vt 0.061197 0.782654
vt 0.055608 0.663958
vt 0.251604 0.781884
vt 0.357109 0.710738
vt 0.243886 0.876138
vt 0.247300 0.848527
vt -0.000514 0.880403
vt 0.006948 0.782948
vt 0.674684 0.829607
vt 0.705811 0.784366
vt 0.654033 0.662928
vt 0.703232 0.671848
vt 0.720473 0.730776
vt 0.697736 0.853617
vt 0.729837 0.853035
vt 0.623758 0.856571
vt 0.587609 0.811448
vt 0.658187 0.605708
vt 0.748523 0.593788
vt 0.716351 0.931575
vt 0.747491 0.935506
vt 0.695349 0.885675
vt 0.676247 0.904603
vt 0.649719 0.961956
vt 0.745560 1.001324
vt 0.725611 0.781438
vt 0.747491 0.878462
vt 0.747491 0.808438
vt 0.720379 0.731031
vt 0.747491 0.790807
vt 0.720762 0.730332
vt 0.748639 0.732530
vt 0.746944 0.628012
vt 0.703659 0.671442
vt 0.731857 0.666086
vt 0.747085 0.666819
vt 0.703186 0.671176
vt 0.611291 0.885598
vt 0.604148 0.909350
vt 0.550618 0.823662
vt 0.550618 0.934468
vt 0.625864 0.557513
vt 0.571978 0.557920
vt 0.578607 0.510287
vt 0.669444 0.510287
vt 0.756032 0.560223
vt 0.679695 0.557918
vt 0.877240 0.461159
vt 0.992418 0.461159
vt 0.944262 0.560223
vt 0.756457 0.510287
vt 0.806202 0.560223
vt 0.498275 0.560223
vt 0.875566 0.382888
vt 0.758260 0.308662
vt 0.875912 0.308662
vt 0.759996 0.360654
vt 0.669163 0.382888
vt 0.671223 0.308662
vt 0.584325 0.382888
vt 0.577057 0.308662
vt 0.498223 0.363687
vt 0.498247 0.308662
vt 0.992597 0.308662
vt 0.992439 0.363687
vt 0.759483 0.410364
vt 0.758924 0.382888
vt 0.665903 0.461159
vt 0.580075 0.461159
vt 0.498223 0.402657
vt 0.992438 0.402657
vt 0.760539 0.449273
vt 0.498220 0.461159
vt 0.875438 0.575163
vt 0.762705 0.196431
vt 0.858161 0.196355
vt 0.690657 0.196417
vt 0.588027 0.196417
vt 0.498144 0.196431
vt 0.991918 0.196431
vt 0.375723 0.009258
vt 0.380090 0.017573
vt 0.356438 0.030356
vt 0.342839 0.029458
vt 0.369327 0.043627
vt 0.316032 0.012201
vt 0.336848 0.019568
vt 0.249292 0.041099
vt 0.371147 0.002582
vt 0.416197 0.004791
vt 0.408124 0.000758
vt 0.128136 0.016613
vt 0.154876 0.002573
vt 0.119423 0.002194
vt 0.160447 0.001473
vt 0.065726 0.014292
vt 0.105093 0.028910
vt 0.000825 0.069213
vt 0.000703 0.039244
vt 0.249314 0.055441
vt 0.429228 0.045736
vt 0.102506 0.115410
vt 0.153549 0.117195
vt 0.189513 0.114692
vt 0.228429 0.109580
vt 0.194639 0.033982
vt 0.406548 0.108121
vt 0.355355 0.108206
vt 0.448349 0.035630
vt 0.498209 0.039288
vt 0.461840 0.047992
vt 0.483032 0.114221
vt 0.406174 0.120334
vt 0.355217 0.119080
vt 0.243215 0.037501
vt 0.249314 0.089732
vt 0.000703 0.095058
vt 0.249292 0.105039
vt 0.160984 0.032072
vt 0.413806 0.033644
vt 0.442212 0.108407
vt 0.443088 0.117732
vt 0.023914 0.327327
vt 0.104127 0.227894
vt 0.000784 0.227894
vt 0.216171 0.327327
vt 0.216985 0.228421
vt 0.105699 0.228145
vt 0.104981 0.327662
vt 0.217575 0.327327
vt 0.351490 0.301452
vt 0.217290 0.227894
vt 0.351571 0.227894
vt 0.352420 0.301452
vt 0.489174 0.227894
vt 0.352342 0.227894
vt 0.471690 0.333380
vt 0.351597 0.328057
vt 0.217345 0.328075
vt 0.352312 0.363299
vt 0.470864 0.334174
vt 0.352330 0.328057
vt 0.216660 0.380224
vt 0.216104 0.328075
vt 0.104983 0.328371
vt 0.217232 0.380224
vt 0.351611 0.363299
vt 0.351459 0.420971
vt 0.352499 0.420971
vt 0.351589 0.497239
vt 0.229465 0.497239
vt 0.352627 0.497239
vt 0.229583 0.497239
vt 0.133020 0.497239
vt 0.072972 0.497239
vt 0.025422 0.328212
vt 0.002386 0.497239
vt 0.216130 0.152222
vt 0.223982 0.125749
vt 0.105883 0.155747
vt 0.351732 0.147623
vt 0.223132 0.128232
vt 0.218721 0.149411
vt 0.469070 0.149411
vt 0.483427 0.127273
vt 0.352306 0.146326
vt 0.017963 0.152222
vt 0.104256 0.155747
vt 0.009616 0.131504
vt 0.104128 0.227914
vt 0.000790 0.227921
vt 0.216984 0.228396
vt 0.351571 0.227971
vt 0.217291 0.227882
vt 0.352342 0.227879
vt 0.489111 0.227891
vt 0.948232 0.041698
vt 0.989968 0.003451
vt 0.971575 0.059997
vt 0.909211 0.004273
vt 0.996004 0.120663
vt 0.925604 0.058708
vt 0.885225 0.122889
vt 0.516483 0.798440
vt 0.501430 0.685191
vt 0.597947 0.686709
vt 0.594444 0.793024
vt 0.950876 0.082499
vt 0.943924 0.157220
vt 0.507177 0.624822
vt 0.600053 0.622523
vt 0.901715 0.182549
vt 0.982420 0.184037
vt 0.730212 0.975635
vt 0.685579 0.991654
vt 0.692830 0.969164

vn 0.994797 -0.007437 -0.101605
vn 0.048076 -0.331579 -0.942202
vn -0.156888 -0.441977 -0.883200
vn 0.882463 0.263983 0.389322
vn 0.817846 -0.245835 -0.520281
vn -0.014110 -0.534409 -0.845108
vn 0.206101 -0.469641 -0.858464
vn 0.916159 -0.384262 -0.113995
vn 0.204440 -0.433147 -0.877831
vn 0.878596 -0.472468 -0.069595
vn -0.482031 -0.793196 -0.372136
vn -0.203206 -0.893642 -0.400138
vn -0.207331 -0.905949 -0.369147
vn -0.209905 -0.919396 0.332641
vn -0.368425 -0.807230 0.461133
vn 0.524456 0.248287 0.814432
vn 0.411964 -0.599096 0.686564
vn 0.976081 -0.217160 -0.010371
vn -0.108405 -0.290470 -0.950724
vn 0.424914 -0.048549 0.903931
vn 0.729129 -0.350546 0.587782
vn 0.755749 0.380492 0.532982
vn 0.433216 0.130234 0.891831
vn 0.881062 -0.004450 0.472981
vn 0.446288 0.138023 0.884181
vn 0.277093 0.208992 0.937839
vn 0.458627 0.515698 -0.723683
vn -0.089678 -0.080349 -0.992724
vn 0.619117 -0.093534 0.779709
vn 0.337486 0.137917 -0.931172
vn 0.312288 0.281434 0.907343
vn 0.032774 0.184398 -0.982305
vn 0.667539 0.239422 0.705031
vn 0.611839 0.674523 0.413123
vn 0.572047 0.706246 0.417107
vn 0.269051 0.668647 0.693197
vn 0.157735 0.525218 0.836221
vn 0.784428 0.440603 0.436512
vn 0.750826 0.501464 -0.429876
vn 0.473773 0.451070 -0.756356
vn 0.190748 0.645879 -0.739226
vn 0.595575 0.733936 0.326540
vn 0.366594 0.764029 -0.530913
vn 0.752371 0.491717 -0.438350
vn 0.221457 0.447268 -0.866549
vn 0.232349 0.436683 -0.869093
vn 0.121243 0.014661 -0.992514
vn 0.179158 0.236718 0.954917
vn 0.860209 0.094667 0.501078
vn 0.803485 0.211268 -0.556576
vn 0.006626 0.175906 -0.984385
vn 0.177681 0.154672 0.971857
vn 0.427735 -0.014401 0.903790
vn 0.911497 0.279116 0.302105
vn 0.833530 0.286645 0.472295
vn 0.853282 0.257189 0.453611
vn 0.777406 0.241832 -0.580653
vn -0.012649 0.155341 -0.987780
vn 0.774944 0.312448 -0.549398
vn 0.610031 0.110568 -0.784625
vn -0.015608 0.191043 -0.981458
vn -0.577643 -0.162577 -0.799936
vn 0.443192 0.107563 0.889950
vn -0.078700 -0.940587 -0.330306
vn 0.927800 -0.089049 -0.362295
vn 0.623050 -0.751218 0.217899
vn 0.396420 -0.833639 -0.384575
vn 0.684003 -0.541112 -0.489222
vn 0.591889 -0.467031 -0.656925
vn 0.591914 -0.780651 0.200553
vn 0.846399 -0.158877 -0.508297
vn 0.251808 -0.926563 0.279417
vn 0.875785 -0.289741 -0.386070
vn -0.033928 -0.876782 -0.479690
vn 0.822767 0.019407 0.568048
vn 0.449121 0.034895 0.892789
vn 0.142009 0.315915 0.938100
vn 0.976795 0.053318 0.207432
vn 0.984482 -0.087254 -0.152256
vn 0.998594 -0.033390 0.041185
vn 0.360740 -0.691472 0.625886
vn 0.193737 0.415506 0.888719
vn 0.911170 0.058394 0.407872
vn 0.974672 0.073710 0.211140
vn -0.054130 0.980553 0.188644
vn 0.475327 0.511738 0.715673
vn 0.684974 0.474698 0.552696
vn 0.699335 0.474645 0.534457
vn 0.486843 0.016994 0.873324
vn 0.313347 -0.044034 0.948617
vn 0.049238 0.986143 0.158425
vn -0.020318 0.223582 0.974473
vn 0.245444 -0.503404 0.828457
vn 0.531247 0.221291 0.817806
vn 0.474289 -0.877774 0.067542
vn 0.864976 0.089040 0.493850
vn 0.007758 -0.974165 0.225704
vn 0.513965 0.336705 0.788967
vn 0.810867 0.206818 0.547468
vn 0.317129 -0.929710 0.187265
vn 0.330399 0.258030 0.907886
vn 0.977702 0.013059 -0.209592
vn 0.917814 0.107821 -0.382090
vn 0.767694 -0.157015 0.621282
vn 0.163229 -0.201147 0.965866
vn 0.826306 0.004786 0.563202
vn 0.056784 -0.065043 0.996265
vn 0.520852 0.804293 0.286053
vn 0.978250 0.109777 0.175997
vn 0.884046 0.461795 0.072168
vn 0.769132 0.635102 0.071291
vn 0.497930 0.495696 0.711583
vn 0.491996 0.200344 -0.847232
vn 0.399783 0.265565 -0.877296
vn 0.151112 0.915947 -0.371760
vn 0.030214 0.857846 -0.513018
vn 0.878832 -0.006414 0.477088
vn 0.630001 -0.122160 -0.766926
vn 0.688925 -0.291488 0.663639
vn 0.995296 -0.088959 0.038370
vn -0.963201 -0.141168 -0.228725
vn 0.910659 0.281812 -0.302129
vn 0.714592 -0.317242 0.623471
vn -0.230811 -0.570694 0.788058
vn 0.068627 -0.012381 -0.997566
vn -0.770782 0.205219 0.603143
vn -0.556506 0.286897 0.779738
vn 0.644167 0.744761 0.174297
vn 0.276150 0.504905 0.817809
vn 0.889035 0.210127 -0.406771
vn 0.969165 0.246304 0.007371
vn 0.625197 -0.756996 0.189964
vn -0.193866 -0.686769 -0.700545
vn -0.131689 -0.974780 0.180171
vn -0.171652 -0.795731 -0.580816
vn -0.384879 -0.057268 0.921189
vn -0.416461 -0.143463 0.897763
vn 0.870804 -0.020479 0.491204
vn 0.749300 0.198170 0.631884
vn 0.859964 0.376000 -0.345088
vn 0.859625 0.376359 -0.345543
vn 0.091154 0.278112 -0.956214
vn -0.974307 0.131946 -0.182529
vn -0.637023 -0.339218 0.692194
vn -0.488983 0.080205 0.868598
vn 0.770977 0.284394 0.569838
vn 0.720632 0.038826 0.692229
vn 0.923502 0.211020 -0.320335
vn 0.884483 0.285165 -0.369285
vn -0.029282 0.144647 -0.989050
vn 0.020133 0.219306 -0.975448
vn -0.963542 -0.212845 -0.162125
vn 0.839397 0.139642 0.525274
vn -0.416522 -0.123895 0.900644
vn -0.963194 0.009243 -0.268647
vn 0.047832 0.375966 -0.925398
vn -0.960662 0.079833 -0.265998
vn 0.014666 0.347203 -0.937675
vn 0.799151 -0.080898 0.595662
vn -0.474418 -0.070177 0.877498
vn -0.933512 0.080852 0.349310
vn -0.832158 0.258397 0.490658
vn -0.080510 0.905471 0.416702
vn 0.129552 0.916709 0.377969
vn 0.789663 0.531111 -0.307171
vn 0.779873 0.578803 -0.238297
vn 0.659758 -0.271714 -0.700636
vn 0.556985 -0.475089 -0.681218
vn -0.551850 -0.786181 -0.278175
vn -0.539368 -0.793517 -0.281803
vn 0.303025 0.826858 -0.473795
vn 0.183644 -0.217238 -0.958688
vn 0.694877 -0.695698 -0.182070
vn 0.587785 -0.748378 -0.307308
vn 0.615382 -0.730004 -0.297319
vn 0.468808 -0.673516 -0.571484
vn 0.380735 -0.704081 -0.599426
vn 0.771396 0.578950 -0.264132
vn 0.534145 0.843696 -0.053534
vn -0.880263 0.007135 0.474432
vn -0.659383 0.751498 0.021547
vn -0.946656 0.039973 0.319758
vn -0.916813 0.125895 0.378951
vn -0.998422 -0.040398 -0.038995
vn -0.165586 -0.937237 0.306867
vn 0.826413 -0.528082 -0.195374
vn 0.628155 -0.442511 -0.640005
vn -0.818652 -0.571490 0.056644
vn -0.818245 -0.574682 0.014696
vn 0.676820 0.717150 -0.166166
vn 0.691890 0.711238 -0.124209
vn 0.623765 -0.428203 -0.653880
vn 0.587183 0.747664 -0.310184
vn -0.122743 0.803464 0.582563
vn -0.257000 0.788480 0.558793
vn -0.816689 -0.576173 0.032303
vn 0.856596 0.504928 -0.106264
vn -0.875778 -0.474233 -0.090085
vn -0.756305 -0.116047 0.643844
vn 0.078029 0.695988 0.713802
vn 0.202339 0.156496 -0.966731
vn 0.725857 0.683192 -0.079880
vn -0.135117 0.642350 0.754407
vn 0.929682 -0.098816 -0.354863
vn 0.931019 -0.081325 -0.355795
vn -0.831906 -0.554730 -0.014341
vn 0.645728 -0.432097 -0.629546
vn 0.615017 0.755011 -0.227403
vn -0.193774 0.880981 0.431653
vn -0.911980 0.158653 -0.378314
vn 0.589228 0.740210 -0.323880
vn 0.454660 0.836936 -0.304668
vn 0.830643 -0.143532 0.537988
vn 0.815539 -0.227869 0.531952
vn -0.592177 -0.590624 0.548169
vn -0.542517 -0.638907 0.545410
vn 0.905367 -0.239208 0.350843
vn -0.545398 -0.100924 0.832079
vn 0.587833 -0.092440 -0.803684
vn 0.870303 -0.191978 0.453559
vn 0.885527 -0.282269 0.369008
vn -0.255926 -0.673666 0.693308
vn 0.886460 -0.084991 0.454933
vn -0.540171 -0.633534 0.553940
vn -0.875277 0.308787 -0.372211
vn 0.901277 -0.002187 0.433238
vn -0.433018 -0.451912 0.779917
vn 0.923398 -0.028926 0.382753
vn 0.548881 0.399612 -0.734194
vn 0.400376 0.265405 -0.877074
vn -0.359665 0.111016 -0.926454
vn -0.759376 -0.215777 -0.613831
vn -0.483057 -0.518980 0.705206
vn -0.959823 -0.268545 -0.081380
vn 0.441150 0.877220 -0.189396
vn 0.827122 -0.268236 0.493881
vn -0.510849 -0.602618 0.613095
vn -0.879934 0.340306 -0.331523
vn 0.737799 0.581758 -0.342359
vn -0.911322 0.152005 -0.382604
vn -0.910107 0.153597 -0.384855
vn 0.614134 0.616812 -0.492323
vn 0.847554 -0.443366 0.291683
vn 0.908630 -0.311066 0.278620
vn -0.548921 -0.803788 0.229369
vn -0.490121 -0.839454 0.234729
vn -0.881415 0.345666 -0.321905
vn -0.169508 0.590609 -0.788954
vn -0.916730 -0.389964 -0.086802
vn 0.880096 0.335170 -0.336291
vn 0.241976 -0.865730 -0.438131
vn 0.162691 -0.871631 -0.462376
vn 0.502328 0.658347 0.560576
vn 0.476880 0.739579 -0.474982
vn -0.716721 0.146172 0.681869
vn 0.530013 0.693036 0.488658
vn -0.814926 0.148627 0.560183
vn 0.242161 -0.867084 -0.435343
vn 0.242645 -0.867143 -0.434956
vn 0.449420 0.775185 0.443970
vn 0.211464 0.020038 0.977180
vn -0.802186 0.338174 0.492072
vn 0.035612 -0.987059 -0.156353
vn -0.339540 -0.107387 -0.934442
vn 0.285392 -0.463985 -0.838611
vn -0.792786 0.029785 0.608772
vn -0.917022 -0.320324 -0.237621
vn -0.280258 -0.616468 -0.735814
vn -0.223388 -0.651089 -0.725383
vn -0.879810 -0.453203 -0.143322
vn -0.132341 0.107439 -0.985364
vn -0.923221 -0.331151 -0.194940
vn 0.392801 -0.841769 -0.370313
vn 0.719613 -0.577732 -0.385205
vn 0.079050 -0.403964 -0.911353
vn 0.260881 -0.439822 0.859359
vn 0.701373 0.086058 0.707581
vn -0.142205 0.195432 0.970353
vn -0.190413 0.304581 0.933260
vn -0.911082 -0.266152 0.314791
vn -0.297754 -0.282027 -0.912033
vn -0.388965 -0.100576 0.915746
vn -0.643194 -0.464472 0.608742
vn -0.544735 0.645340 0.535537
vn -0.401850 0.226482 0.887256
vn -0.712397 0.050679 0.699944
vn 0.026062 0.094416 0.995192
vn -0.130250 0.253241 0.958595
vn -0.261739 -0.309560 -0.914147
vn -0.331635 -0.085262 -0.939547
vn -0.458505 -0.101830 0.882838
vn -0.491876 0.123523 -0.861858
vn -0.121660 0.235686 0.964184
vn -0.300597 -0.274452 -0.913410
vn -0.451452 0.249223 0.856784
vn -0.515385 0.683583 0.516809
vn -0.455521 0.861909 0.222741
vn -0.108096 0.648488 0.753510
vn -0.100146 0.641334 0.760698
vn -0.733003 0.499149 0.462122
vn -0.706966 0.472980 -0.525823
vn -0.345022 0.467934 -0.813633
vn -0.152907 0.606760 -0.780040
vn -0.455715 0.861944 0.222210
vn -0.424069 0.755506 -0.499375
vn -0.702624 0.535238 -0.468870
vn -0.229848 0.370851 -0.899800
vn -0.175129 0.430275 -0.885547
vn -0.169920 0.027875 -0.985064
vn -0.002088 0.021012 0.999777
vn -0.793610 0.181179 0.580825
vn -0.832596 0.336110 -0.440243
vn -0.302758 0.360849 -0.882114
vn -0.014100 0.098844 0.995003
vn 0.027817 0.039127 0.998847
vn -0.833090 0.275864 0.479437
vn -0.800588 0.076440 0.594320
vn -0.708201 0.191233 0.679618
vn -0.933362 0.185722 -0.307153
vn -0.033365 0.154602 -0.987413
vn -0.860646 0.265274 -0.434646
vn -0.616119 -0.145148 -0.774164
vn 0.019622 -0.158554 -0.987155
vn 0.141785 -0.206272 -0.968168
vn -0.108621 0.030634 0.993611
vn 0.637181 -0.264467 -0.723918
vn -0.379901 0.158834 -0.911289
vn -0.626478 -0.776201 0.070977
vn 0.087595 0.761821 0.641838
vn -0.276973 -0.749643 -0.601100
vn -0.320466 -0.105111 -0.941410
vn -0.395111 -0.918633 0.000919
vn -0.935485 0.097335 -0.339698
vn 0.565752 -0.812374 0.141328
vn 0.206741 -0.671516 -0.711565
vn 0.432272 -0.643496 -0.631707
vn -0.928924 -0.081029 0.361296
vn -0.626742 0.009589 0.779168
vn -0.349278 0.304362 0.886211
vn -0.995931 -0.087938 -0.019709
vn -0.922848 -0.269755 -0.274923
vn -0.844869 -0.320355 -0.428449
vn -0.346635 -0.704068 0.619784
vn -0.394119 0.401689 0.826630
vn -0.977951 0.013963 0.208365
vn -0.999624 0.027276 0.002642
vn -0.032094 0.981070 0.190974
vn -0.637535 0.485554 0.598152
vn -0.806568 0.439616 0.395204
vn -0.816797 0.438984 0.374347
vn -0.658689 -0.009948 0.752349
vn -0.502094 -0.063209 0.862500
vn -0.127029 0.981996 0.139810
vn -0.193988 0.219497 0.956133
vn -0.389318 -0.518331 0.761423
vn -0.699975 0.192330 0.687782
vn -0.368093 -0.913851 -0.171419
vn -0.983999 0.052952 0.170121
vn -0.008324 -0.974970 0.222182
vn -0.682440 0.308562 0.662620
vn -0.916013 0.166199 0.365100
vn -0.223376 -0.970688 0.088698
vn -0.524298 0.237927 0.817620
vn -0.908679 -0.033266 -0.416167
vn -0.818595 0.061474 -0.571073
vn -0.872331 -0.195593 0.448088
vn -0.351756 -0.213267 0.911474
vn -0.924985 -0.036402 0.378255
vn -0.260432 -0.072483 0.962767
vn -0.605916 0.777789 0.167064
vn -0.997460 0.063307 -0.032649
vn -0.900127 0.419831 -0.116252
vn -0.795748 0.598294 -0.093970
vn -0.658013 0.468514 0.589503
vn -0.334742 0.166726 -0.927443
vn -0.219665 0.252682 -0.942284
vn -0.112590 0.909745 -0.399609
vn 0.037694 0.858025 -0.512222
vn -0.896396 0.122666 0.425943
vn -0.625661 0.392785 -0.673995
vn -0.726737 -0.401460 0.557389
vn -0.927658 -0.318592 -0.194809
vn 0.970147 -0.029653 -0.240699
vn -0.916587 0.311576 -0.250576
vn -0.756661 -0.543647 0.363196
vn 0.525229 -0.335923 0.781850
vn 0.757258 0.649960 0.064129
vn 0.726864 -0.649082 0.224414
vn 0.371711 -0.564745 0.736813
vn -0.470342 0.854001 0.222397
vn -0.372219 -0.005062 0.928131
vn -0.758697 0.558960 0.334579
vn -0.757529 0.565941 0.325362
vn -0.929460 -0.050315 -0.365477
vn 0.579001 -0.434769 -0.689735
vn -0.867234 -0.339107 -0.364570
vn -0.875554 -0.468292 -0.118778
vn 0.329458 -0.437103 0.836898
vn 0.373919 -0.471517 0.798659
vn -0.848023 -0.472406 0.240186
vn -0.816157 -0.352722 0.457685
vn -0.905576 0.298817 -0.301065
vn -0.920061 0.259737 -0.293299
vn -0.011574 0.615257 -0.788242
vn 0.858896 0.475913 0.189220
vn 0.502811 -0.478825 0.719658
vn 0.390415 -0.261254 0.882792
vn -0.859086 -0.254513 0.444066
vn -0.767206 -0.510224 0.388673
vn -0.900806 0.184537 -0.393059
vn -0.895030 0.215274 -0.390613
vn 0.591903 0.174600 -0.786871
vn -0.019744 0.725190 -0.688266
vn 0.331444 0.723652 -0.605370
vn -0.860008 -0.417476 0.293428
vn 0.379835 -0.482381 0.789325
vn 0.920696 0.385876 -0.058468
vn 0.080583 0.803339 -0.590044
vn 0.886795 0.460465 -0.039583
vn -0.084776 0.854580 -0.512354
vn -0.783218 -0.543381 0.302170
vn 0.435474 -0.453522 0.777612
vn 0.715900 -0.689858 0.107625
vn 0.677317 -0.686224 0.265214
vn 0.258384 0.262759 0.929621
vn 0.075357 0.391911 0.916912
vn -0.424432 0.873496 0.238458
vn -0.423533 0.851440 0.309307
vn -0.432572 0.623085 -0.651649
vn -0.428608 0.568817 -0.701956
vn 0.239458 -0.338573 -0.909961
vn 0.379347 -0.413614 -0.827659
vn 0.109423 0.945909 0.305422
vn 0.076208 0.564413 -0.821967
vn -0.767770 -0.073351 -0.636513
vn -0.742256 -0.011537 -0.670017
vn -0.688450 -0.050417 -0.723529
vn -0.494612 0.187241 -0.848705
vn -0.419770 0.146563 -0.895719
vn -0.314938 0.877494 0.361689
vn -0.150059 0.786921 0.598530
vn 0.639653 -0.742645 0.198298
vn 0.887918 0.171394 0.426880
vn 0.775358 -0.627380 0.072207
vn 0.771504 -0.607836 0.187927
vn 0.854766 -0.509009 -0.101419
vn -0.290127 -0.830576 -0.475363
vn -0.865291 0.198410 -0.460331
vn -0.511744 0.367342 -0.776645
vn 0.622647 -0.701710 -0.346286
vn 0.627224 -0.675768 -0.387204
vn -0.289201 0.850353 0.439617
vn -0.316801 0.826376 0.465554
vn -0.573454 0.472239 -0.669433
vn -0.290615 0.917580 0.271274
vn 0.130178 0.160883 0.978351
vn 0.324072 0.042041 0.945098
vn 0.590990 -0.737406 -0.327052
vn -0.539911 0.766187 0.348502
vn 0.682279 -0.635146 -0.362056
vn 0.564261 -0.808006 0.169517
vn -0.022554 -0.012351 0.999669
vn 0.186487 0.813909 -0.550250
vn -0.372868 0.794465 0.479370
vn 0.113928 -0.131643 0.984729
vn -0.754048 0.603271 -0.259762
vn -0.748744 0.614685 -0.248081
vn 0.670662 -0.627054 -0.396251
vn -0.679148 0.434036 -0.591921
vn -0.438092 0.769265 0.465088
vn 0.266069 0.269362 0.925555
vn 0.884249 -0.008311 -0.466941
vn -0.508485 0.421169 -0.751039
vn -0.430734 0.466117 -0.772789
vn -0.798422 0.129544 0.587997
vn -0.776501 0.069145 0.626311
vn 0.601933 -0.174041 0.779350
vn 0.447813 -0.284626 0.847615
vn -0.876313 -0.104598 0.470249
vn 0.509823 0.258209 0.820615
vn -0.501774 -0.451175 -0.738014
vn -0.735482 0.045578 0.676010
vn -0.575575 0.538504 0.615408
vn 0.601349 0.452353 0.658602
vn -0.814132 0.426036 0.394566
vn 0.452485 -0.302052 0.839060
vn 0.836242 0.094010 -0.540243
vn -0.624078 0.755418 0.199674
vn 0.689120 0.541607 0.481431
vn -0.734834 0.632561 0.244716
vn -0.606121 -0.674400 -0.421665
vn -0.604542 -0.675986 -0.421393
vn -0.120052 -0.864482 -0.488117
vn 0.455549 -0.854567 -0.249380
vn 0.717632 0.445508 0.535282
vn 0.768025 -0.629336 -0.118634
vn -0.527502 0.465180 -0.710879
vn -0.824979 0.208817 0.525172
vn 0.559287 -0.151495 0.815014
vn 0.886249 0.104423 -0.451285
vn -0.736287 0.211183 -0.642871
vn 0.922446 -0.135129 -0.361709
vn 0.848731 -0.155035 -0.505588
vn -0.549587 0.110702 -0.828069
vn -0.813003 -0.130662 0.567409
vn -0.920528 0.023345 0.389978
vn 0.599141 -0.357038 0.716626
vn 0.577039 -0.366224 0.730004
vn 0.888783 0.130474 -0.439365
vn 0.188730 0.046205 -0.980942
vn 0.936037 -0.337879 0.098349
vn -0.894993 0.103814 -0.433831
vn -0.241385 -0.969963 0.030065
vn -0.213745 -0.976621 0.022895
vn -0.527405 0.834386 0.160141
vn -0.539153 0.391440 -0.745714
vn 0.724807 0.463293 0.509916
vn -0.575638 0.817458 0.020092
vn 0.844381 0.393108 0.363988
vn -0.229008 -0.958755 0.168354
vn -0.264153 -0.944660 0.194527
vn -0.476091 0.874840 -0.089395
vn -0.206453 0.552300 0.807677
vn 0.822897 0.547858 0.150637
vn -0.514843 -0.830032 0.214437

f 1/1/1 2/2/1 3/3/1
f 4/4/2 5/5/2 6/6/2
f 4/4/3 6/7/3 7/8/3
f 5/9/4 8/10/4 9/11/4
f 10/12/5 11/13/5 9/14/5
f 6/6/6 11/15/6 7/8/6
f 6/6/7 12/16/7 11/13/7
f 12/17/8 5/5/8 9/14/8
f 6/6/9 5/5/9 12/17/9
f 11/13/10 12/18/10 9/19/10
f 13/20/11 14/21/11 15/22/11
f 14/21/12 13/20/12 16/23/12
f 16/24/13 13/20/13 17/25/13
f 15/22/14 14/21/14 18/26/14
f 14/21/15 19/27/15 18/26/15
f 18/26/16 20/28/16 21/29/16
f 18/26/17 19/27/17 20/28/17
f 20/28/18 3/30/18 21/29/18
f 5/9/19 22/31/19 23/32/19
f 24/33/20 25/34/20 26/35/20
f 27/36/21 25/34/21 9/37/21
f 28/38/22 27/39/22 29/40/22
f 30/41/23 25/34/23 24/33/23
f 25/34/24 30/41/24 10/42/24
f 30/41/25 24/33/25 31/43/25
f 24/33/26 26/44/26 32/45/26
f 33/46/27 34/47/27 5/9/27
f 4/4/28 22/31/28 5/9/28
f 26/35/29 25/34/29 27/39/29
f 33/46/30 35/48/30 34/47/30
f 32/45/31 26/35/31 28/38/31
f 23/32/32 33/46/32 5/9/32
f 26/35/33 27/39/33 28/38/33
f 28/38/34 29/40/34 36/49/34
f 35/50/35 37/51/35 29/40/35
f 28/38/36 38/52/36 32/45/36
f 36/49/37 38/52/37 28/38/37
f 36/49/38 37/53/38 39/54/38
f 39/55/39 37/56/39 40/57/39
f 41/58/40 42/59/40 39/55/40
f 39/55/41 40/57/41 41/58/41
f 36/49/42 29/40/42 37/51/42
f 37/56/43 35/48/43 33/46/43
f 37/56/44 33/46/44 40/57/44
f 40/57/45 33/46/45 43/60/45
f 40/57/46 43/60/46 41/58/46
f 33/46/47 23/32/47 43/60/47
f 44/61/48 45/62/48 30/63/48
f 15/64/49 46/65/49 45/62/49
f 46/66/50 47/67/50 10/68/50
f 47/67/51 7/69/51 11/70/51
f 45/62/52 44/61/52 17/71/52
f 44/61/53 30/63/53 31/72/53
f 13/73/54 15/64/54 45/62/54
f 46/65/55 10/74/55 45/62/55
f 45/62/56 10/74/56 30/63/56
f 47/67/57 11/70/57 10/68/57
f 47/67/58 48/75/58 7/69/58
f 46/66/59 15/76/59 47/67/59
f 18/77/60 47/67/60 15/76/60
f 47/67/61 18/77/61 48/75/61
f 18/77/62 21/78/62 48/75/62
f 13/73/63 45/62/63 17/71/63
f 49/79/64 35/50/64 29/40/64
f 8/80/65 27/81/65 9/82/65
f 34/47/66 50/83/66 5/84/66
f 27/36/67 49/79/67 29/40/67
f 35/48/68 51/85/68 52/86/68
f 35/50/69 49/79/69 51/87/69
f 52/86/70 50/83/70 34/47/70
f 35/48/71 52/86/71 34/47/71
f 5/84/72 50/83/72 8/10/72
f 53/88/73 27/81/73 8/80/73
f 53/88/74 49/79/74 27/36/74
f 54/89/75 55/90/75 56/91/75
f 57/92/76 55/90/76 58/93/76
f 59/94/77 60/95/77 55/90/77
f 61/96/78 54/89/78 56/91/78
f 39/97/79 61/96/79 36/98/79
f 36/98/80 61/96/80 56/91/80
f 36/98/81 56/91/81 38/99/81
f 62/100/82 63/101/82 64/102/82
f 65/103/83 64/102/83 54/89/83
f 61/96/84 65/103/84 54/89/84
f 66/104/85 67/105/85 62/100/85
f 55/90/86 60/95/86 68/106/86
f 69/107/87 68/106/87 60/95/87
f 69/107/88 70/108/88 68/106/88
f 58/109/89 55/90/89 68/106/89
f 68/106/90 71/110/90 58/111/90
f 62/100/91 67/105/91 63/101/91
f 64/102/92 63/101/92 69/107/92
f 70/108/93 71/110/93 68/106/93
f 58/111/94 71/110/94 72/112/94
f 56/91/95 57/92/95 38/113/95
f 55/90/96 57/114/96 56/91/96
f 73/115/97 74/116/97 38/113/97
f 58/109/98 72/112/98 73/115/98
f 57/117/99 58/111/99 73/115/99
f 57/92/100 73/115/100 38/113/100
f 73/115/101 72/112/101 74/116/101
f 39/97/102 75/118/102 61/96/102
f 75/118/103 39/97/103 76/119/103
f 64/102/104 59/94/104 54/89/104
f 64/102/105 60/95/105 59/94/105
f 54/89/106 59/94/106 55/90/106
f 64/102/107 69/107/107 60/95/107
f 65/103/108 66/104/108 62/100/108
f 65/103/109 61/96/109 75/118/109
f 75/118/110 76/119/110 65/103/110
f 66/104/111 65/103/111 76/119/111
f 62/100/112 64/102/112 65/103/112
f 39/97/113 42/120/113 76/119/113
f 77/121/114 76/119/114 42/120/114
f 67/105/115 76/119/115 77/121/115
f 66/104/116 76/119/116 67/105/116
f 9/82/117 25/34/117 10/42/117
f 51/122/118 49/123/118 78/124/118
f 79/125/119 50/126/119 52/127/119
f 52/127/120 51/122/120 79/125/120
f 80/128/121 81/129/121 53/130/121
f 51/122/122 78/124/122 79/125/122
f 82/131/123 50/126/123 79/125/123
f 50/126/124 82/131/124 8/132/124
f 53/133/125 78/124/125 49/123/125
f 83/134/126 84/135/126 85/136/126
f 84/135/127 83/134/127 86/137/127
f 86/137/128 87/138/128 84/135/128
f 88/139/129 84/135/129 87/138/129
f 87/138/130 89/140/130 88/139/130
f 90/141/131 88/139/131 89/140/131
f 91/142/132 92/143/132 90/141/132
f 90/141/133 89/140/133 91/142/133
f 85/136/134 92/144/134 91/145/134
f 91/145/135 83/134/135 85/136/135
f 80/128/136 93/146/136 83/134/136
f 94/147/137 83/134/137 93/146/137
f 93/146/138 87/138/138 94/147/138
f 87/138/139 93/146/139 95/148/139
f 95/148/140 96/149/140 87/138/140
f 89/140/141 87/138/141 96/149/141
f 97/150/142 91/142/142 89/140/142
f 97/151/143 81/129/143 80/128/143
f 8/132/144 82/131/144 80/128/144
f 93/146/145 80/128/145 98/152/145
f 98/152/146 95/148/146 93/146/146
f 95/148/147 82/131/147 79/125/147
f 79/125/148 78/124/148 95/148/148
f 96/149/149 95/148/149 78/124/149
f 78/124/150 53/133/150 81/153/150
f 81/153/151 96/149/151 78/124/151
f 80/128/152 53/130/152 8/154/152
f 94/147/153 87/138/153 86/137/153
f 86/137/154 83/134/154 94/147/154
f 97/151/155 83/134/155 91/145/155
f 89/140/156 96/149/156 97/150/156
f 80/128/157 83/134/157 97/151/157
f 81/153/158 97/150/158 96/149/158
f 82/131/159 95/148/159 98/152/159
f 98/152/160 80/128/160 82/131/160
f 85/136/161 99/155/161 100/156/161
f 99/155/162 85/136/162 84/135/162
f 84/135/163 101/157/163 99/155/163
f 101/157/164 84/135/164 88/139/164
f 88/139/165 90/141/165 101/157/165
f 102/158/166 101/157/166 90/141/166
f 90/141/167 103/159/167 102/158/167
f 103/159/168 90/141/168 92/143/168
f 92/144/169 85/136/169 103/160/169
f 100/156/170 103/160/170 85/136/170
f 104/161/171 105/162/171 106/163/171
f 107/164/172 106/163/172 108/165/172
f 109/166/173 110/167/173 103/168/173
f 109/166/174 111/169/174 104/161/174
f 104/161/175 110/167/175 109/166/175
f 104/161/176 111/169/176 112/170/176
f 113/171/177 112/170/177 111/169/177
f 106/163/178 110/167/178 104/161/178
f 104/161/179 112/170/179 105/162/179
f 105/172/180 113/173/180 111/174/180
f 113/173/181 105/172/181 112/175/181
f 105/172/182 111/174/182 109/176/182
f 109/176/183 106/177/183 105/172/183
f 109/176/184 100/178/184 106/177/184
f 103/179/185 100/178/185 109/176/185
f 102/180/186 103/168/186 110/167/186
f 106/163/187 114/181/187 108/165/187
f 115/182/188 116/183/188 106/177/188
f 116/184/189 117/185/189 118/186/189
f 108/165/190 114/181/190 119/187/190
f 119/187/191 120/188/191 108/165/191
f 118/189/192 121/190/192 114/191/192
f 114/191/193 121/190/193 117/192/193
f 116/193/194 115/194/194 119/187/194
f 120/188/195 119/187/195 115/194/195
f 121/195/196 118/186/196 117/185/196
f 108/165/197 101/196/197 102/180/197
f 115/182/198 106/177/198 100/178/198
f 100/178/199 99/197/199 115/182/199
f 120/188/200 99/198/200 101/196/200
f 106/163/201 107/164/201 110/167/201
f 108/165/202 120/188/202 101/196/202
f 120/188/203 115/194/203 99/198/203
f 107/164/204 102/180/204 110/167/204
f 102/180/205 107/164/205 108/165/205
f 118/199/206 106/177/206 116/183/206
f 114/181/207 106/163/207 118/200/207
f 114/191/208 117/192/208 119/201/208
f 117/192/209 116/202/209 119/201/209
f 122/203/210 123/204/210 124/205/210
f 125/206/211 126/207/211 123/208/211
f 125/206/212 123/208/212 127/209/212
f 125/210/213 128/211/213 126/212/213
f 128/211/214 129/213/214 126/212/214
f 128/214/215 124/215/215 129/216/215
f 122/217/216 124/215/216 128/214/216
f 130/218/217 128/211/217 125/219/217
f 131/220/218 122/221/218 130/222/218
f 132/223/219 125/224/219 127/225/219
f 132/226/220 131/227/220 125/219/220
f 133/228/221 131/227/221 132/226/221
f 133/229/222 122/221/222 131/220/222
f 130/218/223 125/219/223 131/227/223
f 128/214/224 130/222/224 122/221/224
f 127/209/225 123/204/225 122/203/225
f 16/230/226 133/228/226 14/231/226
f 16/232/227 3/3/227 133/229/227
f 14/231/228 133/228/228 132/226/228
f 14/233/229 132/223/229 19/234/229
f 132/223/230 127/225/230 19/234/230
f 20/235/231 19/234/231 127/225/231
f 20/235/232 127/225/232 122/236/232
f 3/3/233 122/221/233 133/229/233
f 3/237/234 20/235/234 122/236/234
f 134/238/235 135/239/235 136/240/235
f 137/241/236 135/242/236 134/243/236
f 138/244/237 139/245/237 137/246/237
f 138/247/238 136/248/238 139/249/238
f 134/238/239 136/240/239 123/208/239
f 138/247/240 123/250/240 136/248/240
f 123/250/241 138/247/241 124/251/241
f 134/238/242 123/208/242 126/252/242
f 129/253/243 134/243/243 126/254/243
f 137/241/244 134/243/244 129/253/244
f 138/244/245 137/246/245 129/255/245
f 138/244/246 129/255/246 124/256/246
f 136/257/247 140/258/247 139/259/247
f 136/257/248 141/260/248 140/258/248
f 142/261/249 139/259/249 140/258/249
f 135/262/250 143/263/250 141/260/250
f 141/264/251 143/265/251 142/266/251
f 142/266/252 140/267/252 141/264/252
f 137/268/253 143/263/253 135/262/253
f 135/262/254 141/260/254 136/257/254
f 139/259/255 142/261/255 137/268/255
f 137/268/256 144/269/256 143/263/256
f 137/268/257 142/261/257 144/269/257
f 143/265/258 145/270/258 146/271/258
f 146/271/259 142/266/259 143/265/259
f 143/263/260 144/269/260 145/272/260
f 144/269/261 146/273/261 145/272/261
f 146/273/262 144/269/262 142/261/262
f 3/274/263 16/275/263 17/276/263
f 147/5/264 4/4/264 148/6/264
f 148/7/265 4/4/265 7/8/265
f 149/10/266 147/9/266 150/11/266
f 151/13/267 152/12/267 150/14/267
f 151/15/268 148/6/268 7/8/268
f 153/16/269 148/6/269 151/13/269
f 147/5/270 153/17/270 150/14/270
f 147/5/271 148/6/271 153/17/271
f 153/18/272 151/13/272 150/19/272
f 154/21/273 155/20/273 156/22/273
f 155/20/274 154/21/274 157/23/274
f 155/20/275 157/24/275 17/25/275
f 154/21/276 156/22/276 158/26/276
f 159/27/277 154/21/277 158/26/277
f 160/28/278 158/26/278 21/29/278
f 159/27/279 158/26/279 160/28/279
f 3/30/280 160/28/280 21/29/280
f 22/31/281 147/9/281 23/32/281
f 161/34/282 24/33/282 162/35/282
f 161/34/283 163/36/283 150/37/283
f 163/39/284 164/38/284 165/40/284
f 161/34/285 166/41/285 24/33/285
f 166/41/286 161/34/286 152/42/286
f 24/33/287 166/41/287 31/43/287
f 162/44/288 24/33/288 32/45/288
f 167/47/289 168/46/289 147/9/289
f 22/31/290 4/4/290 147/9/290
f 161/34/291 162/35/291 163/39/291
f 169/48/292 168/46/292 167/47/292
f 162/35/293 32/45/293 164/38/293
f 168/46/294 23/32/294 147/9/294
f 163/39/295 162/35/295 164/38/295
f 165/40/296 164/38/296 170/49/296
f 171/51/297 169/50/297 165/40/297
f 38/52/298 164/38/298 32/45/298
f 38/52/299 170/49/299 164/38/299
f 171/53/300 170/49/300 172/54/300
f 171/56/301 172/55/301 173/57/301
f 42/59/302 41/58/302 172/55/302
f 173/57/303 172/55/303 41/58/303
f 165/40/304 170/49/304 171/51/304
f 169/48/305 171/56/305 168/46/305
f 168/46/306 171/56/306 173/57/306
f 168/46/307 173/57/307 43/60/307
f 43/60/308 173/57/308 41/58/308
f 23/32/309 168/46/309 43/60/309
f 174/62/310 44/61/310 166/63/310
f 175/65/311 156/64/311 174/62/311
f 176/67/312 175/66/312 152/68/312
f 7/69/313 176/67/313 151/70/313
f 44/61/314 174/62/314 17/71/314
f 166/63/315 44/61/315 31/72/315
f 156/64/316 155/73/316 174/62/316
f 152/74/317 175/65/317 174/62/317
f 152/74/318 174/62/318 166/63/318
f 151/70/319 176/67/319 152/68/319
f 48/75/320 176/67/320 7/69/320
f 156/76/321 175/66/321 176/67/321
f 176/67/322 158/77/322 156/76/322
f 158/77/323 176/67/323 48/75/323
f 21/78/324 158/77/324 48/75/324
f 174/62/325 155/73/325 17/71/325
f 169/50/326 177/79/326 165/40/326
f 163/81/327 149/80/327 150/82/327
f 178/83/328 167/47/328 147/84/328
f 177/79/329 163/36/329 165/40/329
f 179/85/330 169/48/330 180/86/330
f 177/79/331 169/50/331 179/87/331
f 178/83/332 180/86/332 167/47/332
f 180/86/333 169/48/333 167/47/333
f 178/83/334 147/84/334 149/10/334
f 163/81/335 181/88/335 149/80/335
f 177/79/336 181/88/336 163/36/336
f 182/90/337 183/89/337 184/91/337
f 182/90/338 185/92/338 186/93/338
f 187/95/339 188/94/339 182/90/339
f 183/89/340 189/96/340 184/91/340
f 189/96/341 172/97/341 170/98/341
f 189/96/342 170/98/342 184/91/342
f 184/91/343 170/98/343 38/99/343
f 63/101/344 190/100/344 191/102/344
f 191/102/345 192/103/345 183/89/345
f 192/103/346 189/96/346 183/89/346
f 67/105/347 193/104/347 190/100/347
f 187/95/348 182/90/348 194/106/348
f 194/106/349 69/107/349 187/95/349
f 70/108/350 69/107/350 194/106/350
f 182/90/351 186/109/351 194/106/351
f 71/110/352 194/106/352 186/111/352
f 67/105/353 190/100/353 63/101/353
f 63/101/354 191/102/354 69/107/354
f 71/110/355 70/108/355 194/106/355
f 71/110/356 186/111/356 72/112/356
f 185/92/357 184/91/357 38/113/357
f 185/114/358 182/90/358 184/91/358
f 74/116/359 195/115/359 38/113/359
f 72/112/360 186/109/360 195/115/360
f 186/111/361 185/117/361 195/115/361
f 195/115/362 185/92/362 38/113/362
f 72/112/363 195/115/363 74/116/363
f 196/118/364 172/97/364 189/96/364
f 172/97/365 196/118/365 197/119/365
f 188/94/366 191/102/366 183/89/366
f 187/95/367 191/102/367 188/94/367
f 188/94/368 183/89/368 182/90/368
f 69/107/369 191/102/369 187/95/369
f 193/104/370 192/103/370 190/100/370
f 189/96/371 192/103/371 196/118/371
f 197/119/372 196/118/372 192/103/372
f 192/103/373 193/104/373 197/119/373
f 191/102/374 190/100/374 192/103/374
f 42/120/375 172/97/375 197/119/375
f 197/119/376 77/121/376 42/120/376
f 197/119/377 67/105/377 77/121/377
f 197/119/378 193/104/378 67/105/378
f 161/34/379 150/82/379 152/42/379
f 177/123/380 179/122/380 198/124/380
f 178/126/381 199/125/381 180/127/381
f 179/122/382 180/127/382 199/125/382
f 200/129/383 201/128/383 181/130/383
f 198/124/384 179/122/384 199/125/384
f 178/126/385 202/131/385 199/125/385
f 202/131/386 178/126/386 149/132/386
f 198/124/387 181/133/387 177/123/387
f 203/135/388 204/134/388 205/136/388
f 204/134/389 203/135/389 206/137/389
f 207/138/390 206/137/390 203/135/390
f 203/135/391 208/139/391 207/138/391
f 209/140/392 207/138/392 208/139/392
f 208/139/393 210/141/393 209/140/393
f 211/143/394 212/142/394 210/141/394
f 209/140/395 210/141/395 212/142/395
f 211/144/396 205/136/396 212/145/396
f 204/134/397 212/145/397 205/136/397
f 213/146/398 201/128/398 204/134/398
f 204/134/399 214/147/399 213/146/399
f 207/138/400 213/146/400 214/147/400
f 213/146/401 207/138/401 215/148/401
f 216/149/402 215/148/402 207/138/402
f 207/138/403 209/140/403 216/149/403
f 212/142/404 217/150/404 209/140/404
f 200/129/405 217/151/405 201/128/405
f 202/131/406 149/132/406 201/128/406
f 201/128/407 213/146/407 218/152/407
f 215/148/408 218/152/408 213/146/408
f 202/131/409 215/148/409 199/125/409
f 198/124/410 199/125/410 215/148/410
f 215/148/411 216/149/411 198/124/411
f 181/133/412 198/124/412 200/153/412
f 216/149/413 200/153/413 198/124/413
f 181/130/414 201/128/414 149/154/414
f 207/138/415 214/147/415 206/137/415
f 204/134/416 206/137/416 214/147/416
f 204/134/417 217/151/417 212/145/417
f 216/149/418 209/140/418 217/150/418
f 204/134/419 201/128/419 217/151/419
f 217/150/420 200/153/420 216/149/420
f 215/148/421 202/131/421 218/152/421
f 201/128/422 218/152/422 202/131/422
f 219/155/423 205/136/423 220/156/423
f 205/136/424 219/155/424 203/135/424
f 221/157/425 203/135/425 219/155/425
f 203/135/426 221/157/426 208/139/426
f 210/141/427 208/139/427 221/157/427
f 221/157/428 222/158/428 210/141/428
f 223/159/429 210/141/429 222/158/429
f 210/141/430 223/159/430 211/143/430
f 205/136/431 211/144/431 223/160/431
f 223/160/432 220/156/432 205/136/432
f 224/162/433 225/161/433 226/163/433
f 226/163/434 227/164/434 228/165/434
f 229/167/435 230/166/435 223/168/435
f 231/169/436 230/166/436 225/161/436
f 229/167/437 225/161/437 230/166/437
f 231/169/438 225/161/438 232/170/438
f 232/170/439 233/171/439 231/169/439
f 229/167/440 226/163/440 225/161/440
f 232/170/441 225/161/441 224/162/441
f 233/173/442 224/172/442 231/174/442
f 224/172/443 233/173/443 232/175/443
f 231/174/444 224/172/444 230/176/444
f 226/177/445 230/176/445 224/172/445
f 220/178/446 230/176/446 226/177/446
f 220/178/447 223/179/447 230/176/447
f 223/168/448 222/180/448 229/167/448
f 234/181/449 226/163/449 228/165/449
f 235/183/450 236/182/450 226/177/450
f 237/185/451 235/184/451 238/186/451
f 234/181/452 228/165/452 239/187/452
f 240/188/453 239/187/453 228/165/453
f 241/190/454 238/189/454 234/191/454
f 241/190/455 234/191/455 237/192/455
f 236/194/456 235/193/456 239/187/456
f 239/187/457 240/188/457 236/194/457
f 238/186/458 241/195/458 237/185/458
f 221/196/459 228/165/459 222/180/459
f 226/177/460 236/182/460 220/178/460
f 219/197/461 220/178/461 236/182/461
f 219/198/462 240/188/462 221/196/462
f 227/164/463 226/163/463 229/167/463
f 240/188/464 228/165/464 221/196/464
f 236/194/465 240/188/465 219/198/465
f 222/180/466 227/164/466 229/167/466
f 227/164/467 222/180/467 228/165/467
f 226/177/468 238/199/468 235/183/468
f 226/163/469 234/181/469 238/200/469
f 237/192/470 234/191/470 239/201/470
f 235/202/471 237/192/471 239/201/471
f 242/204/472 243/203/472 244/205/472
f 245/207/473 246/206/473 242/208/473
f 242/208/474 246/206/474 247/209/474
f 248/211/475 246/210/475 245/212/475
f 249/213/476 248/211/476 245/212/476
f 244/215/477 248/214/477 249/216/477
f 244/215/478 243/217/478 248/214/478
f 248/211/479 250/218/479 246/219/479
f 243/221/480 251/220/480 250/222/480
f 246/224/481 252/223/481 247/225/481
f 251/227/482 252/226/482 246/219/482
f 251/227/483 253/228/483 252/226/483
f 243/221/484 253/229/484 251/220/484
f 246/219/485 250/218/485 251/227/485
f 250/222/486 248/214/486 243/221/486
f 242/204/487 247/209/487 243/203/487
f 253/228/488 157/230/488 154/231/488
f 3/3/489 157/232/489 253/229/489
f 253/228/490 154/231/490 252/226/490
f 252/223/491 154/233/491 159/234/491
f 247/225/492 252/223/492 159/234/492
f 159/234/493 160/235/493 247/225/493
f 247/225/494 160/235/494 243/236/494
f 243/221/495 3/3/495 253/229/495
f 160/235/496 3/237/496 243/236/496
f 254/239/497 255/238/497 256/240/497
f 254/242/498 257/241/498 255/243/498
f 258/245/499 259/244/499 257/246/499
f 256/248/500 259/247/500 258/249/500
f 256/240/501 255/238/501 242/208/501
f 242/250/502 259/247/502 256/248/502
f 259/247/503 242/250/503 244/251/503
f 242/208/504 255/238/504 245/252/504
f 255/243/505 249/253/505 245/254/505
f 255/243/506 257/241/506 249/253/506
f 257/246/507 259/244/507 249/255/507
f 249/255/508 259/244/508 244/256/508
f 260/258/509 256/257/509 258/259/509
f 261/260/510 256/257/510 260/258/510
f 258/259/511 262/261/511 260/258/511
f 263/263/512 254/262/512 261/260/512
f 263/265/513 261/264/513 262/266/513
f 260/267/514 262/266/514 261/264/514
f 263/263/515 257/268/515 254/262/515
f 261/260/516 254/262/516 256/257/516
f 262/261/517 258/259/517 257/268/517
f 264/269/518 257/268/518 263/263/518
f 262/261/519 257/268/519 264/269/519
f 265/270/520 263/265/520 266/271/520
f 262/266/521 266/271/521 263/265/521
f 264/269/522 263/263/522 265/272/522
f 266/273/523 264/269/523 265/272/523
f 264/269/524 266/273/524 262/261/524
f 157/275/525 3/274/525 17/276/525

