mtllib anim_barb_run_000029.mtl

o fat
usemtl fat.001
s off

v -0.159950 41.713760 -3.323110
v 1.860240 36.144421 6.136090
v 0.306510 42.467861 1.543450
v 0.410170 63.791901 -7.899920
v 9.759871 69.449982 -6.472760
v 2.812830 59.988029 -6.939800
v -0.362600 55.710228 -4.953560
v 8.326680 65.752182 -3.017870
v 7.747220 61.561844 -0.853310
v 6.919220 55.786510 -0.848430
v 4.142630 55.597160 -4.975850
v 6.555420 60.765030 -5.986510
v 9.024430 42.551060 4.655280
v 9.345301 41.686256 -1.612820
v 10.505230 41.318851 -1.839140
v 6.564230 44.322128 3.789530
v 3.993900 39.971909 7.078080
v 3.739920 36.623188 -3.000360
v 3.564570 40.217117 -4.672370
v 0.288480 40.307396 -3.339720
v -0.315110 39.099468 -3.650330
v 0.201120 69.445007 -7.609260
v 0.170300 71.437660 -7.646910
v 0.002770 62.740387 6.065550
v 4.955310 62.781593 4.189950
v 5.776280 66.967117 5.146540
v 8.849080 66.669800 2.648750
v 5.563510 69.769211 5.147340
v 11.291370 69.936996 1.267170
v 4.497020 55.854801 4.054040
v 1.102870 55.584320 5.311190
v 0.063990 69.676353 6.278320
v 5.152350 74.192291 -4.682320
v 11.404830 71.326363 -5.607330
v 11.825750 71.703201 -1.836490
v 2.633530 74.280998 3.805390
v 5.572110 75.405228 -0.402440
v -0.148190 73.460350 4.317240
v 2.663080 79.781296 0.711300
v 3.432550 77.408836 -2.378070
v 0.419370 77.551521 -3.406740
v 0.177310 80.435448 -0.532350
v 0.538270 75.482887 -5.205550
v 0.489180 51.257481 5.632990
v 5.364230 51.252308 5.032270
v 8.418850 50.900558 -0.145200
v 4.993690 50.306480 -5.331640
v -0.188040 50.220863 -6.038870
v 11.848579 68.289246 0.688390
v 10.353140 67.816063 -6.884680
v 13.547111 68.661079 -1.853430
v 12.858710 69.919403 -5.013850
v 8.901640 65.672829 1.270920
v 2.581520 79.222328 6.199550
v 1.180830 77.707375 7.934600
v 2.606590 74.871964 4.917320
v 1.639600 73.803719 6.831610
v 0.698310 76.338760 7.879170
v 1.643460 79.677429 7.735350
v -0.144470 79.547646 8.001181
v 3.177320 80.556808 3.490150
v 0.535690 83.546417 8.120910
v -0.763210 83.497040 8.390590
v 1.701340 80.948685 8.359060
v 2.256590 82.809235 7.338530
v 1.223440 84.887939 5.412940
v -0.414440 84.883102 5.217900
v 0.269850 77.713837 8.458660
v -0.765430 80.293648 8.287920
v -0.900690 78.268921 9.461260
v -0.835060 77.684906 8.831680
v -0.843340 76.102493 8.847470
v 0.535200 73.340393 8.418261
v -0.861440 73.314911 8.907750
v 3.025130 82.894775 3.517950
v 2.543030 84.136154 2.955920
v -0.045170 84.384117 1.783120
v 13.735150 66.042412 -0.129840
v 14.435040 66.851120 -3.713200
v 9.435140 60.466389 -4.403740
v 10.844191 60.726936 -0.020490
v 11.056770 65.405792 -6.926280
v 12.022440 56.312927 -4.478270
v 12.770380 52.922760 -1.062000
v 11.419810 55.064812 -2.723290
v 15.147990 56.266296 -6.152330
v 16.288130 58.085598 -3.976050
v 14.641590 54.696598 -0.022180
v 15.764910 57.373699 -1.968240
v 13.920070 56.731674 0.472360
v 13.763050 55.374260 -1.619780
v 11.471280 57.203640 -0.496060
v 14.066171 59.063522 -6.160670
v 14.642000 57.846481 -6.231120
v 15.576650 63.362549 -3.852210
v 14.658541 62.630249 -0.536930
v 13.030029 57.049599 -1.263980
v 13.168000 61.593010 -7.071150
v 8.228100 51.774467 4.398790
v 6.934850 53.098202 3.987900
v 9.236520 52.445648 5.382020
v 8.769320 54.253510 5.675740
v 7.424180 54.904991 4.959040
v 3.973620 55.848061 8.748240
v 3.738420 54.981720 8.540009
v 4.863030 54.498348 8.064790
v 5.708370 54.960041 8.144490
v 6.035740 53.840942 9.375790
v 4.682050 55.718750 6.379570
v 5.159400 55.686432 7.692020
v 3.174640 55.895000 7.993280
v 2.881230 55.533653 9.683360
v 2.353320 55.530991 9.026200
v 4.424370 53.266457 10.812481
v 5.744980 49.587448 7.005630
v 4.649590 48.992008 8.532681
v 3.030290 48.701729 10.949810
v 3.793630 53.776352 9.808470
v 5.391170 49.338341 9.198040
v 6.738730 49.871487 7.890940
v 2.091580 52.671097 12.266630
v 1.876920 34.453339 9.167950
v 4.832180 37.553440 3.374520
v 1.958860 31.573528 7.349430
v 7.697470 33.461540 9.319240
v 9.391350 32.644939 5.861310
v 3.984550 31.844990 6.337260
v 5.647320 32.495930 11.152670
v 5.858360 30.001509 8.973460
v 5.841700 34.804920 11.442699
v 6.327300 36.934162 9.343821
v 8.996770 34.772579 4.919100
v 6.915700 41.521191 7.278570
v 7.591220 31.621210 -6.460680
v 8.493549 30.408932 -9.178220
v 5.833630 33.314590 -8.735770
v 5.858430 28.197470 -7.897350
v 3.946060 30.955870 -6.552890
v 3.500180 30.755159 -9.732990
v 4.846420 33.233570 -13.601190
v 8.066650 33.112259 -13.139030
v 3.436090 25.096300 -13.041151
v 9.556991 24.532129 -12.281931
v 5.633230 21.521629 -10.463039
v 8.051499 20.644091 -12.135080
v 4.001570 20.388561 -12.583700
v -8.975900 69.644615 -6.789510
v -1.864590 59.961361 -7.120540
v -5.678180 66.382645 -2.963120
v -7.256690 61.475639 -1.457720
v -4.956670 55.692841 -3.359810
v -6.374790 55.580540 1.356610
v -5.670870 60.694817 -6.462100
v -9.005070 41.725613 0.110450
v -7.178710 42.115898 6.052460
v -10.223711 41.233219 -0.147410
v -4.695370 42.518402 5.257240
v -4.811630 40.301510 -5.929730
v -4.533920 42.167938 -4.971740
v -1.006520 41.640949 -4.321860
v -4.940400 62.723331 3.842920
v -5.615380 66.892921 4.921880
v -10.493950 66.512161 2.581290
v -5.381640 69.694580 4.959190
v -10.481470 70.871346 1.809340
v -2.454760 55.467522 5.400970
v -10.849971 70.890160 -5.916840
v -4.623980 74.153191 -5.000190
v -11.470300 71.911682 -1.376210
v -2.805440 74.259651 3.472170
v -5.879930 75.492508 -0.875290
v -2.505460 79.794540 0.219630
v -2.731230 77.411880 -2.921430
v -3.837170 50.848049 5.886670
v -8.024440 50.549068 1.305190
v -5.650630 50.237232 -4.267650
v -11.651630 68.678810 0.956370
v -8.916720 66.638222 -6.784260
v -13.090059 69.584572 -1.692180
v -12.152550 68.050797 -4.893020
v -9.916600 66.500137 1.305110
v -2.612380 77.723129 7.524500
v -3.597380 79.248001 5.531520
v -3.453700 74.897171 4.211530
v -2.856860 73.822411 6.345470
v -2.140420 76.350563 7.572270
v -1.316860 79.552521 7.874450
v -3.005530 79.696747 7.232710
v -3.589360 80.584946 2.758570
v -1.974020 83.556839 7.849560
v -3.184930 80.969002 7.830780
v -3.493930 82.833145 6.716810
v -2.056070 84.901573 5.058400
v -1.834430 77.722595 8.231150
v -2.120930 73.351433 8.131081
v -3.427430 82.921585 2.820360
v -2.826160 84.158447 2.375420
v -12.817530 66.160828 0.229220
v -13.498690 66.046844 -3.477060
v -9.453180 61.405792 1.574730
v -8.548240 60.692669 -2.641290
v -9.820021 64.350830 -6.252190
v -11.912040 51.817680 1.027830
v -9.787020 55.849701 -1.644110
v -10.082100 54.054520 -0.473570
v -12.715560 55.132271 -3.533610
v -14.189691 57.306580 -1.927680
v -12.481541 53.947239 2.924750
v -13.844800 57.062840 0.226190
v -10.565310 56.265713 3.324380
v -8.143920 56.388950 1.812600
v -11.747680 55.417080 1.173210
v -11.888070 57.964329 -4.162530
v -12.295830 56.754387 -3.919440
v -14.140181 62.460632 -3.012310
v -13.413100 62.625271 0.439650
v -10.827169 58.082718 0.706100
v -11.240760 60.333717 -5.591370
v -7.775610 49.304260 6.283310
v -6.059500 49.955849 5.667410
v -8.340529 50.017250 7.235130
v -7.244800 51.584740 7.535920
v -5.853900 51.766361 6.723860
v -2.090800 50.303951 9.940890
v -2.025080 51.283997 10.241550
v -3.317580 50.265278 9.553010
v -3.997760 51.074810 9.756360
v -4.606410 50.081520 10.993130
v -3.262300 51.586540 9.275599
v -2.875590 51.475212 7.912830
v -1.279170 50.964531 9.350950
v -1.048760 50.572990 11.082660
v -0.599630 50.417763 10.386490
v -3.201140 48.926792 12.288400
v -5.269970 45.164673 9.993240
v -6.171860 46.215347 8.601359
v -3.682780 44.135750 12.217550
v -2.480750 49.121090 11.180100
v -5.574660 45.645950 10.682270
v -6.737340 46.664482 9.496510
v -1.133280 47.396896 13.480320
v -3.465920 23.003700 -8.311359
v -1.092990 29.043692 -0.672750
v -0.958950 21.309099 -3.904920
v -8.333691 21.833151 -5.260210
v -6.988570 29.077490 -2.035770
v -3.540110 30.589279 -4.345390
v -4.914530 25.978161 0.901890
v -4.895620 20.196899 -1.049430
v -4.911160 27.548679 1.778900
v -4.748800 30.333670 2.012680
v -8.540940 32.650818 -1.385860
v -4.947800 34.884499 4.464330
v -7.009190 8.521900 -8.058681
v -6.101070 11.491489 -7.783350
v -4.300700 10.425779 -9.800960
v -4.798720 8.949890 -5.363220
v -2.042770 8.387720 -7.875760
v -2.531110 11.237801 -7.127210
v -2.791430 6.184630 -11.968510
v -5.885630 6.267100 -12.079901
v -2.339900 2.983040 -4.580770
v -8.189939 2.663080 -4.828410
v -4.134800 1.953060 -1.296770
v -6.400930 -0.051760 -1.805870
v -2.327370 -0.290730 -1.673630

vt 0.550479 0.485338
vt 0.414517 0.485338
vt 0.489174 0.497239
vt 0.490853 0.675485
vt 0.356970 0.710738
vt 0.458986 0.602657
vt 0.458693 0.603155
vt 0.491001 0.506534
vt 0.357039 0.710738
vt 0.272881 0.708251
vt 0.307767 0.663467
vt 0.329118 0.504113
vt 0.420682 0.504388
vt 0.307693 0.663467
vt 0.420389 0.504181
vt 0.390374 0.619683
vt 0.389206 0.622726
vt 0.390855 0.620128
vt 0.309151 0.663075
vt 0.578845 0.971377
vt 0.529882 0.993867
vt 0.501054 0.950636
vt 0.597833 0.993868
vt 0.684209 0.993870
vt 0.691613 0.940228
vt 0.584242 0.936155
vt 0.602549 0.993867
vt 0.689094 0.993870
vt 0.694409 0.971380
vt 0.730001 0.975635
vt 0.490853 0.781888
vt 0.490853 0.820915
vt 0.240556 0.660920
vt 0.133663 0.660928
vt 0.131880 0.753091
vt 0.060606 0.782384
vt 0.055577 0.663688
vt 0.136145 0.808744
vt 0.060014 0.783494
vt 0.058190 0.859642
vt 0.160773 0.512959
vt 0.067037 0.515196
vt 0.240700 0.512959
vt 0.131877 0.752996
vt 0.240556 0.781375
vt 0.390182 0.870896
vt 0.298691 0.847983
vt 0.294173 0.886121
vt 0.181129 0.899551
vt 0.052544 0.886601
vt 0.145152 0.921474
vt 0.235241 0.891030
vt 0.142740 0.921054
vt 0.172936 0.966074
vt 0.456563 0.999059
vt 0.389917 0.922986
vt 0.429989 0.941889
vt 0.491140 0.942697
vt 0.490646 0.999330
vt 0.490853 0.898039
vt 0.701416 0.118225
vt 0.813217 0.120956
vt 0.790107 0.184348
vt 0.877923 0.002315
vt 0.872775 0.120438
vt 0.505869 0.118716
vt 0.564263 0.119120
vt 0.507564 0.183764
vt 0.697589 0.180917
vt 0.580429 0.182675
vt 0.710756 0.001536
vt 0.701372 0.182427
vt 0.812168 0.002315
vt 0.857243 0.184348
vt 0.697567 0.116528
vt 0.503935 0.000692
vt 0.561277 0.000692
vt 0.688827 -0.000098
vt 0.002866 0.854679
vt 0.027518 0.706813
vt 0.061197 0.782654
vt 0.055608 0.663958
vt 0.251604 0.781884
vt 0.357109 0.710738
vt 0.243886 0.876138
vt 0.247300 0.848527
vt -0.000514 0.880403
vt 0.006948 0.782948
vt 0.674684 0.829607
vt 0.705811 0.784366
vt 0.654033 0.662928
vt 0.703232 0.671848
vt 0.720473 0.730776
vt 0.697736 0.853617
vt 0.729837 0.853035
vt 0.623758 0.856571
vt 0.587609 0.811448
vt 0.658187 0.605708
vt 0.748523 0.593788
vt 0.716351 0.931575
vt 0.747491 0.935506
vt 0.695349 0.885675
vt 0.676247 0.904603
vt 0.649719 0.961956
vt 0.745560 1.001324
vt 0.725611 0.781438
vt 0.747491 0.878462
vt 0.747491 0.808438
vt 0.720379 0.731031
vt 0.747491 0.790807
vt 0.720762 0.730332
vt 0.748639 0.732530
vt 0.746944 0.628012
vt 0.703659 0.671442
vt 0.731857 0.666086
vt 0.747085 0.666819
vt 0.703186 0.671176
vt 0.611291 0.885598
vt 0.604148 0.909350
vt 0.550618 0.823662
vt 0.550618 0.934468
vt 0.625864 0.557513
vt 0.571978 0.557920
vt 0.578607 0.510287
vt 0.669444 0.510287
vt 0.756032 0.560223
vt 0.679695 0.557918
vt 0.877240 0.461159
vt 0.992418 0.461159
vt 0.944262 0.560223
vt 0.756457 0.510287
vt 0.806202 0.560223
vt 0.498275 0.560223
vt 0.875566 0.382888
vt 0.758260 0.308662
vt 0.875912 0.308662
vt 0.759996 0.360654
vt 0.669163 0.382888
vt 0.671223 0.308662
vt 0.584325 0.382888
vt 0.577057 0.308662
vt 0.498223 0.363687
vt 0.498247 0.308662
vt 0.992597 0.308662
vt 0.992439 0.363687
vt 0.759483 0.410364
vt 0.758924 0.382888
vt 0.665903 0.461159
vt 0.580075 0.461159
vt 0.498223 0.402657
vt 0.992438 0.402657
vt 0.760539 0.449273
vt 0.498220 0.461159
vt 0.875438 0.575163
vt 0.762705 0.196431
vt 0.858161 0.196355
vt 0.690657 0.196417
vt 0.588027 0.196417
vt 0.498144 0.196431
vt 0.991918 0.196431
vt 0.375723 0.009258
vt 0.380090 0.017573
vt 0.356438 0.030356
vt 0.342839 0.029458
vt 0.369327 0.043627
vt 0.316032 0.012201
vt 0.336848 0.019568
vt 0.249292 0.041099
vt 0.371147 0.002582
vt 0.416197 0.004791
vt 0.408124 0.000758
vt 0.128136 0.016613
vt 0.154876 0.002573
vt 0.119423 0.002194
vt 0.160447 0.001473
vt 0.065726 0.014292
vt 0.105093 0.028910
vt 0.000825 0.069213
vt 0.000703 0.039244
vt 0.249314 0.055441
vt 0.429228 0.045736
vt 0.102506 0.115410
vt 0.153549 0.117195
vt 0.189513 0.114692
vt 0.228429 0.109580
vt 0.194639 0.033982
vt 0.406548 0.108121
vt 0.355355 0.108206
vt 0.448349 0.035630
vt 0.498209 0.039288
vt 0.461840 0.047992
vt 0.483032 0.114221
vt 0.406174 0.120334
vt 0.355217 0.119080
vt 0.243215 0.037501
vt 0.249314 0.089732
vt 0.000703 0.095058
vt 0.249292 0.105039
vt 0.160984 0.032072
vt 0.413806 0.033644
vt 0.442212 0.108407
vt 0.443088 0.117732
vt 0.023914 0.327327
vt 0.104127 0.227894
vt 0.000784 0.227894
vt 0.216171 0.327327
vt 0.216985 0.228421
vt 0.105699 0.228145
vt 0.104981 0.327662
vt 0.217575 0.327327
vt 0.351490 0.301452
vt 0.217290 0.227894
vt 0.351571 0.227894
vt 0.352420 0.301452
vt 0.489174 0.227894
vt 0.352342 0.227894
vt 0.471690 0.333380
vt 0.351597 0.328057
vt 0.217345 0.328075
vt 0.352312 0.363299
vt 0.470864 0.334174
vt 0.352330 0.328057
vt 0.216660 0.380224
vt 0.216104 0.328075
vt 0.104983 0.328371
vt 0.217232 0.380224
vt 0.351611 0.363299
vt 0.351459 0.420971
vt 0.352499 0.420971
vt 0.351589 0.497239
vt 0.229465 0.497239
vt 0.352627 0.497239
vt 0.229583 0.497239
vt 0.133020 0.497239
vt 0.072972 0.497239
vt 0.025422 0.328212
vt 0.002386 0.497239
vt 0.216130 0.152222
vt 0.223982 0.125749
vt 0.105883 0.155747
vt 0.351732 0.147623
vt 0.223132 0.128232
vt 0.218721 0.149411
vt 0.469070 0.149411
vt 0.483427 0.127273
vt 0.352306 0.146326
vt 0.017963 0.152222
vt 0.104256 0.155747
vt 0.009616 0.131504
vt 0.104128 0.227914
vt 0.000790 0.227921
vt 0.216984 0.228396
vt 0.351571 0.227971
vt 0.217291 0.227882
vt 0.352342 0.227879
vt 0.489111 0.227891
vt 0.948232 0.041698
vt 0.989968 0.003451
vt 0.971575 0.059997
vt 0.909211 0.004273
vt 0.996004 0.120663
vt 0.925604 0.058708
vt 0.885225 0.122889
vt 0.516483 0.798440
vt 0.501430 0.685191
vt 0.597947 0.686709
vt 0.594444 0.793024
vt 0.950876 0.082499
vt 0.943924 0.157220
vt 0.507177 0.624822
vt 0.600053 0.622523
vt 0.901715 0.182549
vt 0.982420 0.184037
vt 0.730212 0.975635
vt 0.685579 0.991654
vt 0.692830 0.969164

vn -0.980796 -0.155242 0.118064
vn 0.214437 -0.109534 -0.970577
vn -0.144063 -0.326760 -0.934063
vn 0.849715 0.144432 0.507074
vn 0.826354 -0.118938 -0.550447
vn -0.014849 -0.411997 -0.911064
vn 0.295072 -0.314228 -0.902327
vn 0.923137 -0.349567 -0.160066
vn 0.273820 -0.154181 -0.949342
vn 0.886928 -0.440977 -0.137470
vn -0.279029 -0.953102 0.117214
vn -0.600586 -0.795645 0.079029
vn -0.111066 -0.556711 -0.823248
vn 0.075167 -0.340107 0.937378
vn -0.506033 0.343405 0.791204
vn -0.234222 -0.130687 0.963359
vn 0.353534 0.408701 0.841414
vn 0.852227 -0.479596 0.209040
vn 0.118057 -0.016934 -0.992862
vn 0.342729 -0.272685 0.898988
vn 0.700733 -0.500036 0.508858
vn 0.560869 -0.070438 0.824903
vn 0.354162 -0.041763 0.934251
vn 0.894099 -0.067841 0.442701
vn 0.350116 -0.044808 0.935634
vn 0.179745 -0.031747 0.983201
vn 0.041682 0.388094 -0.920677
vn 0.117856 0.055337 -0.991488
vn 0.587092 -0.288058 0.756535
vn 0.396294 0.908146 -0.134991
vn 0.201170 0.014996 0.979442
vn 0.208722 0.516358 -0.830548
vn 0.632826 0.047831 0.772815
vn 0.469426 0.517613 0.715343
vn 0.524858 0.697788 0.487458
vn 0.171293 0.460887 0.870771
vn 0.076027 0.329302 0.941159
vn 0.729196 0.332522 0.598083
vn 0.775153 0.579393 -0.251876
vn 0.471426 0.642103 -0.604534
vn 0.227883 0.798841 -0.556707
vn 0.499186 0.684372 0.531459
vn 0.439190 0.852133 -0.284573
vn 0.772846 0.586619 -0.242049
vn 0.262811 0.650801 -0.712312
vn 0.275266 0.639791 -0.717563
vn 0.231734 0.487104 -0.842039
vn 0.119320 0.227874 0.966352
vn 0.859988 0.098746 0.500670
vn 0.813333 0.169530 -0.556551
vn -0.003268 0.066572 -0.997776
vn 0.120836 0.162911 0.979213
vn 0.345799 0.020724 0.938080
vn 0.915211 0.379061 0.136757
vn 0.825278 0.320247 0.465144
vn 0.868515 0.254100 0.425575
vn 0.814290 0.168343 -0.555511
vn 0.129417 0.196285 -0.971969
vn 0.789120 0.269415 -0.552001
vn 0.290547 -0.186519 -0.938506
vn 0.135956 -0.178488 -0.974504
vn 0.028275 -0.210206 -0.977248
vn 0.380096 0.120154 0.917110
vn 0.934173 0.216190 0.283870
vn 0.983621 -0.168746 -0.063354
vn 0.158910 0.295216 -0.942123
vn 0.578239 -0.089316 0.810964
vn 0.870326 0.492434 0.006488
vn 0.729602 0.409793 0.547495
vn 0.501313 0.159283 -0.850479
vn 0.718304 0.679781 -0.148113
vn -0.832816 -0.169547 -0.526945
vn -0.966423 -0.224272 0.125411
vn 0.636706 -0.612977 0.467829
vn 0.830030 -0.153269 0.536245
vn 0.449122 -0.193670 0.872228
vn 0.142010 0.066540 0.987626
vn 0.980349 -0.050552 0.190683
vn 0.983363 -0.093044 -0.156010
vn 0.994245 -0.082732 0.068056
vn 0.327852 -0.830912 0.449554
vn 0.193736 0.175423 0.965242
vn 0.911170 -0.047426 0.409292
vn 0.974672 0.017497 0.222951
vn -0.054129 0.900157 0.432190
vn 0.475325 0.312558 0.822419
vn 0.684973 0.318254 0.655382
vn 0.699334 0.322849 0.637731
vn 0.486844 -0.206022 0.848845
vn 0.313348 -0.284215 0.906110
vn 0.049241 0.913260 0.404391
vn -0.020318 -0.032014 0.999281
vn 0.245445 -0.697825 0.672902
vn 0.531248 0.005677 0.847197
vn 0.482897 -0.845505 -0.227887
vn 0.896756 -0.019528 0.442094
vn 0.007549 -0.999506 -0.030494
vn 0.513966 0.124631 0.848708
vn 0.810867 0.060543 0.582091
vn 0.290525 -0.953820 -0.076313
vn 0.330398 0.018259 0.943665
vn 0.977702 0.066016 -0.199352
vn 0.917814 0.201590 -0.342022
vn 0.767696 -0.310090 0.560792
vn 0.163227 -0.440539 0.882769
vn 0.826306 -0.138833 0.545843
vn 0.056784 -0.316670 0.946835
vn 0.520856 0.704896 0.481488
vn 0.978250 0.061325 0.198155
vn 0.884046 0.428178 0.187418
vn 0.769131 0.595992 0.230716
vn 0.497932 0.298089 0.814375
vn 0.492103 0.409519 -0.768198
vn 0.399777 0.480314 -0.780690
vn 0.151110 0.980430 -0.126184
vn 0.030215 0.960227 -0.277580
vn 0.855505 -0.122226 0.503163
vn 0.728433 0.412399 0.547095
vn 0.610094 -0.022302 -0.792015
vn 0.891831 0.452144 -0.014238
vn -0.858398 -0.415647 0.300651
vn 0.946141 0.222643 0.235047
vn 0.630130 0.196917 -0.751106
vn -0.807818 -0.226431 -0.544206
vn 0.284337 -0.108162 0.952604
vn -0.350993 -0.701945 -0.619739
vn -0.343866 -0.703088 -0.622433
vn 0.832860 -0.552880 0.025860
vn 0.734638 -0.635162 -0.238488
vn 0.945396 -0.293161 0.142419
vn 0.775493 0.124535 0.618952
vn 0.357081 0.771128 -0.527119
vn -0.690589 0.629300 -0.356465
vn 0.226560 0.699901 -0.677354
vn -0.329306 0.819205 0.469533
vn -0.406624 -0.237466 -0.882194
vn -0.474858 -0.174746 -0.862539
vn 0.728340 0.377707 -0.571715
vn 0.721484 0.113307 -0.683098
vn 0.949413 0.121208 0.289697
vn 0.949311 0.120784 0.290208
vn 0.258456 -0.091161 0.961712
vn -0.779105 -0.559034 0.283684
vn -0.820526 -0.022315 -0.571173
vn -0.431760 -0.437271 -0.788909
vn 0.784351 0.056140 -0.617772
vn 0.616522 0.231737 -0.752461
vn 0.923943 0.292531 0.246484
vn 0.927994 0.214811 0.304441
vn 0.285332 -0.135668 0.948778
vn 0.168822 -0.071596 0.983043
vn -0.963965 -0.234892 0.124885
vn 0.776816 0.219310 -0.590305
vn -0.465572 -0.192159 -0.863897
vn -0.824801 -0.437061 0.358721
vn 0.266534 -0.200596 0.942720
vn -0.788545 -0.497689 0.361251
vn 0.224199 -0.189953 0.955852
vn 0.631266 0.375337 -0.678694
vn -0.511189 -0.251838 -0.821744
vn -0.512967 -0.668364 -0.538661
vn -0.463694 -0.706751 -0.534314
vn 0.427070 -0.888394 0.168426
vn 0.582895 -0.768900 0.262727
vn 0.690607 0.069923 0.719842
vn 0.694148 0.062889 0.717080
vn 0.126932 0.840881 0.526125
vn 0.018489 0.916389 0.399862
vn -0.799305 0.442555 -0.406517
vn -0.801895 0.436471 -0.407991
vn 0.262868 -0.292371 0.919467
vn -0.402780 0.621494 0.671947
vn 0.251462 0.965498 -0.067683
vn 0.085670 0.995909 -0.028746
vn 0.118655 0.992759 -0.018709
vn -0.119995 0.974887 0.187606
vn -0.214548 0.962077 0.168452
vn 0.668675 0.065586 0.740656
vn 0.666091 -0.340365 0.663682
vn -0.467916 -0.648373 -0.600556
vn -0.286384 -0.929147 0.233816
vn -0.589120 -0.650578 -0.479256
vn -0.508494 -0.722422 -0.468550
vn -0.836634 -0.482399 -0.259490
vn -0.270623 0.511613 -0.815485
vn 0.402930 0.912311 0.073044
vn 0.045794 0.908781 0.414752
vn -0.808981 -0.018566 -0.587542
vn -0.830786 -0.000215 -0.556592
vn 0.684878 -0.126375 0.717615
vn 0.716319 -0.129613 0.685629
vn 0.039717 0.900757 0.432504
vn 0.549591 -0.143084 0.823090
vn 0.444860 -0.895100 -0.029910
vn 0.320044 -0.945757 -0.055809
vn -0.821123 -0.004849 -0.570730
vn 0.793820 0.107912 0.598502
vn -0.898659 -0.067926 -0.433356
vn -0.321033 -0.552427 -0.769261
vn 0.639281 -0.756224 -0.139444
vn -0.275393 0.349662 0.895486
vn 0.757292 -0.106885 0.644270
vn 0.471311 -0.843235 -0.258496
vn 0.539433 0.699575 0.468621
vn 0.545488 0.687305 0.479640
vn -0.850211 -0.011765 -0.526311
vn 0.068459 0.906222 0.417223
vn 0.616020 -0.164961 0.770265
vn 0.335728 -0.935205 0.112599
vn -0.911977 0.200175 -0.358089
vn 0.679868 0.714701 0.164258
vn -0.672558 0.417128 0.611286
vn 0.682492 -0.562175 0.467081
vn 0.755649 -0.393500 0.523595
vn -0.501438 -0.592902 0.630101
vn -0.586923 -0.444165 0.676933
vn 0.696919 -0.146843 0.701956
vn -0.406613 0.686713 0.602571
vn 0.475360 -0.871659 -0.119347
vn 0.869364 0.340482 0.358161
vn 0.873099 0.102598 0.476626
vn -0.270443 0.423875 0.864402
vn 0.804392 0.313812 0.504455
vn -0.491993 -0.067608 0.867970
vn 0.850821 0.136956 0.507294
vn 0.874702 0.417140 0.246759
vn -0.417061 0.687782 0.594152
vn 0.944260 0.199676 0.261729
vn 0.485606 -0.613155 -0.623079
vn 0.277271 -0.759660 -0.588250
vn -0.256768 -0.774002 -0.578784
vn -0.838828 -0.526158 -0.139733
vn -0.505959 0.540419 0.672274
vn -0.988991 -0.133939 0.062911
vn 0.731722 0.678964 -0.059923
vn 0.689812 -0.547769 0.473400
vn -0.777672 -0.611096 0.147607
vn -0.749685 0.658738 0.063539
vn 0.779165 0.608925 -0.148704
vn -0.853140 0.466365 -0.233787
vn -0.926221 0.346798 -0.147802
vn 0.762764 0.625688 -0.163416
vn 0.588319 -0.808411 -0.018784
vn 0.882508 -0.467630 0.050009
vn -0.805542 -0.589180 0.062999
vn -0.369721 -0.929071 -0.011571
vn -0.758513 0.635702 0.143320
vn 0.041214 0.998838 -0.024994
vn -0.959643 0.149949 -0.237908
vn 0.984991 0.172228 0.011386
vn 0.115551 -0.078841 -0.990168
vn 0.138072 -0.091802 -0.986158
vn 0.601852 -0.285072 0.745995
vn 0.719467 0.607312 0.336957
vn -0.771553 -0.314528 0.552971
vn 0.584430 -0.308203 0.750635
vn -0.851043 -0.163114 0.499118
vn 0.114831 -0.081856 -0.990007
vn 0.115197 -0.082353 -0.989923
vn 0.518300 -0.169029 0.838329
vn 0.003773 -0.883196 0.468990
vn -0.783301 -0.033773 0.620725
vn 0.416659 -0.691909 -0.589624
vn -0.175324 -0.095258 -0.979891
vn 0.287962 -0.352197 -0.890525
vn -0.500211 0.396993 0.769535
vn -0.919553 -0.272660 -0.282982
vn -0.279681 -0.512619 -0.811788
vn -0.243145 -0.536089 -0.808387
vn -0.909134 -0.344303 -0.234371
vn -0.189226 -0.105592 -0.976240
vn -0.925343 -0.286284 -0.248560
vn 0.384461 -0.921339 -0.057653
vn 0.164418 -0.986288 0.014246
vn -0.085422 -0.755740 -0.649277
vn 0.271041 -0.877735 0.395117
vn 0.703816 -0.404471 0.583992
vn -0.422540 0.122334 0.898050
vn -0.224640 -0.418302 0.880091
vn -0.950856 -0.195168 0.240378
vn -0.089390 -0.020199 -0.995792
vn -0.391707 -0.289415 0.873387
vn -0.574981 -0.703950 0.416955
vn -0.493497 0.153030 0.856179
vn -0.409622 0.055205 0.910584
vn -0.716033 -0.096847 0.691316
vn 0.028398 -0.100474 0.994534
vn -0.219216 -0.027982 0.975275
vn -0.108667 0.455547 -0.883554
vn -0.087836 0.047911 -0.994982
vn -0.395563 -0.289575 0.871594
vn -0.419523 0.871655 -0.253412
vn -0.235400 0.006698 0.971875
vn -0.178435 0.506923 -0.843321
vn -0.433971 0.024213 0.900601
vn -0.381087 0.473686 0.793974
vn -0.518332 0.752339 0.406594
vn -0.209953 0.440571 0.872821
vn -0.170173 0.390713 0.904646
vn -0.695123 0.391851 0.602707
vn -0.656305 0.623088 -0.425471
vn -0.345123 0.647870 -0.679083
vn -0.126673 0.794662 -0.593688
vn -0.436870 0.735700 0.517581
vn -0.469054 0.788056 -0.398692
vn -0.653398 0.638721 -0.406333
vn -0.186177 0.602984 -0.775724
vn -0.144223 0.644586 -0.750805
vn -0.167387 0.520533 -0.837273
vn 0.049840 0.089673 0.994723
vn -0.738614 0.069821 0.670503
vn -0.874328 0.290634 -0.388692
vn -0.322111 0.195127 -0.926374
vn 0.044696 0.140528 0.989067
vn 0.022838 0.070929 0.997220
vn -0.863071 0.337408 0.375852
vn -0.725606 0.231278 0.648078
vn -0.686273 0.276123 0.672893
vn -0.945307 0.166881 -0.280259
vn -0.303171 0.175542 -0.936628
vn -0.880654 0.268741 -0.390162
vn -0.724707 0.053720 -0.686960
vn -0.305381 0.131967 -0.943041
vn 0.400961 -0.196740 -0.894720
vn -0.081745 0.050180 0.995389
vn -0.870652 0.318999 0.374440
vn -0.753850 0.041330 -0.655745
vn -0.427563 -0.009996 -0.903930
vn -0.723997 0.122292 0.678876
vn -0.695332 0.547236 -0.465883
vn -0.723410 0.430200 0.540006
vn -0.524643 -0.065381 -0.848808
vn -0.915670 0.346829 -0.203124
vn 0.763251 0.013894 -0.645952
vn -0.033495 -0.999422 -0.005747
vn -0.716138 -0.621238 -0.318135
vn -0.925720 -0.137467 0.352343
vn -0.626743 -0.189199 0.755908
vn -0.349276 0.068585 0.934506
vn -0.999472 -0.028030 -0.016404
vn -0.925140 -0.153811 -0.347070
vn -0.807512 -0.163999 -0.566594
vn -0.377171 -0.838821 0.392583
vn -0.394119 0.177877 0.901682
vn -0.977951 -0.039573 0.205049
vn -0.999624 0.025703 0.009502
vn -0.032094 0.900062 0.434577
vn -0.637534 0.317177 0.702104
vn -0.806573 0.324450 0.494138
vn -0.816796 0.329149 0.473820
vn -0.658689 -0.201259 0.724999
vn -0.502096 -0.280820 0.817949
vn -0.127036 0.913992 0.385332
vn -0.193988 -0.031292 0.980505
vn -0.389324 -0.695183 0.604275
vn -0.699976 0.010792 0.714085
vn -0.366635 -0.868086 -0.334671
vn -0.965235 -0.018315 0.260742
vn -0.008627 -0.999418 -0.033005
vn -0.682440 0.129599 0.719361
vn -0.916013 0.067717 0.395392
vn -0.242458 -0.958057 -0.152775
vn -0.524298 0.021811 0.851255
vn -0.908679 0.073839 -0.410913
vn -0.818594 0.204913 -0.536577
vn -0.872330 -0.303279 0.383486
vn -0.351757 -0.438405 0.827084
vn -0.924985 -0.131552 0.356506
vn -0.260432 -0.315330 0.912547
vn -0.605915 0.709578 0.359675
vn -0.997460 0.069535 -0.015446
vn -0.900125 0.435597 -0.005476
vn -0.795749 0.602493 0.061527
vn -0.658012 0.302899 0.689400
vn -0.334475 0.397526 -0.854459
vn -0.219672 0.484243 -0.846908
vn -0.112595 0.981525 -0.154694
vn 0.037695 0.960196 -0.276771
vn -0.919403 0.048780 0.390280
vn -0.820551 0.228664 0.523841
vn -0.557166 -0.195912 -0.806960
vn -0.866621 0.300913 -0.398020
vn 0.976231 0.099009 0.192796
vn -0.983397 0.022758 0.180034
vn -0.588453 0.044596 -0.807300
vn 0.682025 -0.410174 -0.605475
vn -0.333461 -0.115791 0.935626
vn -0.024610 -0.543184 -0.839253
vn 0.519536 -0.645105 -0.560288
vn -0.870737 -0.457881 -0.179337
vn -0.936666 -0.336612 0.096689
vn -0.942880 -0.312425 0.115621
vn -0.591119 0.364544 0.719504
vn -0.208759 0.943470 -0.257455
vn 0.653007 0.509832 -0.560048
vn -0.075966 0.729142 -0.680133
vn 0.776402 0.249695 0.578665
vn 0.589676 -0.304829 -0.747904
vn 0.561239 -0.340683 -0.754285
vn -0.707534 0.097828 -0.699875
vn -0.667044 -0.147282 -0.730316
vn -0.977695 0.052204 0.203440
vn -0.983733 0.070000 0.165439
vn -0.232559 0.245231 0.941158
vn 0.867101 -0.426006 0.258176
vn 0.682337 -0.379516 -0.624807
vn 0.665184 -0.510390 -0.545006
vn -0.728281 -0.196866 -0.656392
vn -0.601072 0.003948 -0.799185
vn -0.965703 0.194964 0.171487
vn -0.965212 0.174195 0.194993
vn -0.349507 0.017784 0.936765
vn -0.245956 0.098821 0.964230
vn 0.672520 -0.300983 0.676111
vn -0.721457 0.022057 -0.692108
vn 0.567616 -0.326630 -0.755728
vn 0.819453 -0.188105 0.541399
vn -0.148288 -0.026429 0.988591
vn 0.861368 -0.118626 0.493936
vn -0.307439 -0.119643 0.944016
vn -0.623001 0.092567 -0.776725
vn 0.712312 -0.351827 -0.607313
vn 0.090767 -0.799850 -0.593298
vn 0.354809 -0.703553 -0.615731
vn -0.655487 -0.737344 0.163282
vn -0.805652 -0.499346 0.318714
vn -0.532933 0.304385 0.789514
vn -0.590441 0.266558 0.761792
vn 0.263285 0.741747 0.616841
vn 0.315942 0.759978 0.567991
vn 0.827792 -0.160935 -0.537458
vn 0.872356 0.168678 -0.458849
vn -0.283208 -0.263874 0.922043
vn 0.659597 0.393322 0.640492
vn 0.116173 0.992065 -0.048078
vn 0.343719 0.937818 -0.048531
vn 0.244709 0.969547 -0.009764
vn 0.512104 0.849921 0.124029
vn 0.495688 0.858978 0.128261
vn -0.574589 0.191132 0.795812
vn -0.709369 -0.162813 0.685776
vn 0.230083 -0.790101 -0.568157
vn 0.007922 -0.974902 0.222492
vn 0.244721 -0.795607 -0.554184
vn 0.198474 -0.813513 -0.546630
vn 0.598000 -0.713475 -0.365170
vn 0.370054 0.436499 -0.820078
vn -0.055604 0.990437 0.126268
vn 0.329338 0.853580 0.403656
vn 0.670457 -0.314629 -0.671935
vn 0.703702 -0.303370 -0.642472
vn -0.636512 0.085224 0.766544
vn -0.669096 0.094396 0.737157
vn 0.386734 0.832232 0.397274
vn -0.479384 0.035224 0.876898
vn -0.798258 -0.598771 0.065250
vn -0.644788 -0.763984 -0.024002
vn 0.705377 -0.303389 -0.640624
vn -0.669618 0.341530 0.659522
vn 0.758141 -0.416397 -0.501833
vn -0.048595 -0.615535 -0.786610
vn -0.855903 -0.499524 -0.133815
vn 0.457007 0.164415 0.874135
vn -0.704133 0.133671 0.697373
vn -0.792209 -0.571633 -0.213637
vn -0.228982 0.820780 0.523343
vn -0.237995 0.811100 0.534300
vn 0.724989 -0.329702 -0.604721
vn 0.379622 0.837268 0.393534
vn -0.605436 0.049116 0.794377
vn -0.697590 -0.694403 0.176560
vn 0.882864 0.194019 -0.427676
vn -0.552137 0.422457 -0.718801
vn -0.622827 0.357695 -0.695802
vn -0.849931 -0.074358 0.521620
vn -0.795512 -0.196112 0.573324
vn 0.613816 -0.250663 0.748597
vn 0.564052 -0.310042 0.765323
vn -0.891037 -0.219860 0.397132
vn 0.565390 -0.101669 0.818534
vn -0.531190 -0.077311 -0.843718
vn -0.734565 -0.416539 0.535639
vn -0.734564 -0.346434 0.583437
vn 0.441263 -0.410579 0.797942
vn -0.876364 0.010670 0.481531
vn 0.600796 -0.390735 0.697402
vn 0.851017 0.249823 -0.461908
vn -0.762855 -0.041792 0.645218
vn 0.592315 -0.102591 0.799148
vn -0.820932 -0.133530 0.555194
vn -0.751975 0.069624 -0.655505
vn -0.534793 -0.091344 -0.840031
vn 0.175543 -0.038149 -0.983732
vn 0.782631 -0.178148 -0.596449
vn 0.670678 -0.188361 0.717433
vn 0.975618 -0.067218 -0.208929
vn -0.646190 0.263999 -0.716061
vn -0.774394 0.180591 0.606384
vn 0.662242 -0.082138 0.744775
vn 0.757558 0.284150 -0.587678
vn -0.704936 0.129375 -0.697372
vn 0.832406 0.010373 -0.554069
vn 0.872309 0.020138 -0.488541
vn -0.543924 0.086221 -0.834693
vn -0.792670 -0.300539 0.530425
vn -0.926185 -0.141964 0.349324
vn 0.734331 -0.237558 0.635864
vn 0.613704 -0.325889 0.719141
vn 0.778231 0.482414 -0.402036
vn 0.044241 0.467079 -0.883108
vn 0.985788 -0.123577 -0.113805
vn -0.957316 0.034721 -0.286950
vn 0.067392 -0.901832 -0.426799
vn -0.010164 -0.917724 -0.397088
vn -0.728092 0.437628 0.527601
vn -0.689826 0.531993 -0.491044
vn 0.667509 0.360501 0.651514
vn -0.572146 0.370855 0.731516
vn 0.755660 0.381230 0.532580
vn -0.022574 -0.750377 -0.660625
vn 0.067810 -0.662323 -0.746144
vn -0.546402 0.436043 0.715061
vn -0.043479 -0.199444 0.978944
vn 0.700811 0.475157 0.532062
vn -0.215994 -0.935931 -0.278172

f 1/1/1 2/2/1 3/3/1
f 4/4/2 5/5/2 6/6/2
f 4/4/3 6/7/3 7/8/3
f 5/9/4 8/10/4 9/11/4
f 10/12/5 11/13/5 9/14/5
f 6/6/6 11/15/6 7/8/6
f 6/6/7 12/16/7 11/13/7
f 12/17/8 5/5/8 9/14/8
f 6/6/9 5/5/9 12/17/9
f 11/13/10 12/18/10 9/19/10
f 13/20/11 14/21/11 15/22/11
f 14/21/12 13/20/12 16/23/12
f 16/24/13 13/20/13 17/25/13
f 15/22/14 14/21/14 18/26/14
f 14/21/15 19/27/15 18/26/15
f 18/26/16 20/28/16 21/29/16
f 18/26/17 19/27/17 20/28/17
f 20/28/18 3/30/18 21/29/18
f 5/9/19 22/31/19 23/32/19
f 24/33/20 25/34/20 26/35/20
f 27/36/21 25/34/21 9/37/21
f 28/38/22 27/39/22 29/40/22
f 30/41/23 25/34/23 24/33/23
f 25/34/24 30/41/24 10/42/24
f 30/41/25 24/33/25 31/43/25
f 24/33/26 26/44/26 32/45/26
f 33/46/27 34/47/27 5/9/27
f 4/4/28 22/31/28 5/9/28
f 26/35/29 25/34/29 27/39/29
f 33/46/30 35/48/30 34/47/30
f 32/45/31 26/35/31 28/38/31
f 23/32/32 33/46/32 5/9/32
f 26/35/33 27/39/33 28/38/33
f 28/38/34 29/40/34 36/49/34
f 35/50/35 37/51/35 29/40/35
f 28/38/36 38/52/36 32/45/36
f 36/49/37 38/52/37 28/38/37
f 36/49/38 37/53/38 39/54/38
f 39/55/39 37/56/39 40/57/39
f 41/58/40 42/59/40 39/55/40
f 39/55/41 40/57/41 41/58/41
f 36/49/42 29/40/42 37/51/42
f 37/56/43 35/48/43 33/46/43
f 37/56/44 33/46/44 40/57/44
f 40/57/45 33/46/45 43/60/45
f 40/57/46 43/60/46 41/58/46
f 33/46/47 23/32/47 43/60/47
f 44/61/48 45/62/48 30/63/48
f 15/64/49 46/65/49 45/62/49
f 46/66/50 47/67/50 10/68/50
f 47/67/51 7/69/51 11/70/51
f 45/62/52 44/61/52 17/71/52
f 44/61/53 30/63/53 31/72/53
f 13/73/54 15/64/54 45/62/54
f 46/65/55 10/74/55 45/62/55
f 45/62/56 10/74/56 30/63/56
f 47/67/57 11/70/57 10/68/57
f 47/67/58 48/75/58 7/69/58
f 46/66/59 15/76/59 47/67/59
f 18/77/60 47/67/60 15/76/60
f 47/67/61 18/77/61 48/75/61
f 18/77/62 21/78/62 48/75/62
f 13/73/63 45/62/63 17/71/63
f 49/79/64 35/50/64 29/40/64
f 8/80/65 27/81/65 9/82/65
f 34/47/66 50/83/66 5/84/66
f 27/36/67 49/79/67 29/40/67
f 35/48/68 51/85/68 52/86/68
f 35/50/69 49/79/69 51/87/69
f 52/86/70 50/83/70 34/47/70
f 35/48/71 52/86/71 34/47/71
f 5/84/72 50/83/72 8/10/72
f 53/88/73 27/81/73 8/80/73
f 53/88/74 49/79/74 27/36/74
f 54/89/75 55/90/75 56/91/75
f 57/92/76 55/90/76 58/93/76
f 59/94/77 60/95/77 55/90/77
f 61/96/78 54/89/78 56/91/78
f 39/97/79 61/96/79 36/98/79
f 36/98/80 61/96/80 56/91/80
f 36/98/81 56/91/81 38/99/81
f 62/100/82 63/101/82 64/102/82
f 65/103/83 64/102/83 54/89/83
f 61/96/84 65/103/84 54/89/84
f 66/104/85 67/105/85 62/100/85
f 55/90/86 60/95/86 68/106/86
f 69/107/87 68/106/87 60/95/87
f 69/107/88 70/108/88 68/106/88
f 58/109/89 55/90/89 68/106/89
f 68/106/90 71/110/90 58/111/90
f 62/100/91 67/105/91 63/101/91
f 64/102/92 63/101/92 69/107/92
f 70/108/93 71/110/93 68/106/93
f 58/111/94 71/110/94 72/112/94
f 56/91/95 57/92/95 38/113/95
f 55/90/96 57/114/96 56/91/96
f 73/115/97 74/116/97 38/113/97
f 58/109/98 72/112/98 73/115/98
f 57/117/99 58/111/99 73/115/99
f 57/92/100 73/115/100 38/113/100
f 73/115/101 72/112/101 74/116/101
f 39/97/102 75/118/102 61/96/102
f 75/118/103 39/97/103 76/119/103
f 64/102/104 59/94/104 54/89/104
f 64/102/105 60/95/105 59/94/105
f 54/89/106 59/94/106 55/90/106
f 64/102/107 69/107/107 60/95/107
f 65/103/108 66/104/108 62/100/108
f 65/103/109 61/96/109 75/118/109
f 75/118/110 76/119/110 65/103/110
f 66/104/111 65/103/111 76/119/111
f 62/100/112 64/102/112 65/103/112
f 39/97/113 42/120/113 76/119/113
f 77/121/114 76/119/114 42/120/114
f 67/105/115 76/119/115 77/121/115
f 66/104/116 76/119/116 67/105/116
f 9/82/117 25/34/117 10/42/117
f 51/122/118 49/123/118 78/124/118
f 79/125/119 50/126/119 52/127/119
f 52/127/120 51/122/120 79/125/120
f 80/128/121 81/129/121 53/130/121
f 51/122/122 78/124/122 79/125/122
f 82/131/123 50/126/123 79/125/123
f 50/126/124 82/131/124 8/132/124
f 53/133/125 78/124/125 49/123/125
f 83/134/126 84/135/126 85/136/126
f 84/135/127 83/134/127 86/137/127
f 86/137/128 87/138/128 84/135/128
f 88/139/129 84/135/129 87/138/129
f 87/138/130 89/140/130 88/139/130
f 90/141/131 88/139/131 89/140/131
f 91/142/132 92/143/132 90/141/132
f 90/141/133 89/140/133 91/142/133
f 85/136/134 92/144/134 91/145/134
f 91/145/135 83/134/135 85/136/135
f 80/128/136 93/146/136 83/134/136
f 94/147/137 83/134/137 93/146/137
f 93/146/138 87/138/138 94/147/138
f 87/138/139 93/146/139 95/148/139
f 95/148/140 96/149/140 87/138/140
f 89/140/141 87/138/141 96/149/141
f 97/150/142 91/142/142 89/140/142
f 97/151/143 81/129/143 80/128/143
f 8/132/144 82/131/144 80/128/144
f 93/146/145 80/128/145 98/152/145
f 98/152/146 95/148/146 93/146/146
f 95/148/147 82/131/147 79/125/147
f 79/125/148 78/124/148 95/148/148
f 96/149/149 95/148/149 78/124/149
f 78/124/150 53/133/150 81/153/150
f 81/153/151 96/149/151 78/124/151
f 80/128/152 53/130/152 8/154/152
f 94/147/153 87/138/153 86/137/153
f 86/137/154 83/134/154 94/147/154
f 97/151/155 83/134/155 91/145/155
f 89/140/156 96/149/156 97/150/156
f 80/128/157 83/134/157 97/151/157
f 81/153/158 97/150/158 96/149/158
f 82/131/159 95/148/159 98/152/159
f 98/152/160 80/128/160 82/131/160
f 85/136/161 99/155/161 100/156/161
f 99/155/162 85/136/162 84/135/162
f 84/135/163 101/157/163 99/155/163
f 101/157/164 84/135/164 88/139/164
f 88/139/165 90/141/165 101/157/165
f 102/158/166 101/157/166 90/141/166
f 90/141/167 103/159/167 102/158/167
f 103/159/168 90/141/168 92/143/168
f 92/144/169 85/136/169 103/160/169
f 100/156/170 103/160/170 85/136/170
f 104/161/171 105/162/171 106/163/171
f 107/164/172 106/163/172 108/165/172
f 109/166/173 110/167/173 103/168/173
f 109/166/174 111/169/174 104/161/174
f 104/161/175 110/167/175 109/166/175
f 104/161/176 111/169/176 112/170/176
f 113/171/177 112/170/177 111/169/177
f 106/163/178 110/167/178 104/161/178
f 104/161/179 112/170/179 105/162/179
f 105/172/180 113/173/180 111/174/180
f 113/173/181 105/172/181 112/175/181
f 105/172/182 111/174/182 109/176/182
f 109/176/183 106/177/183 105/172/183
f 109/176/184 100/178/184 106/177/184
f 103/179/185 100/178/185 109/176/185
f 102/180/186 103/168/186 110/167/186
f 106/163/187 114/181/187 108/165/187
f 115/182/188 116/183/188 106/177/188
f 116/184/189 117/185/189 118/186/189
f 108/165/190 114/181/190 119/187/190
f 119/187/191 120/188/191 108/165/191
f 118/189/192 121/190/192 114/191/192
f 114/191/193 121/190/193 117/192/193
f 116/193/194 115/194/194 119/187/194
f 120/188/195 119/187/195 115/194/195
f 121/195/196 118/186/196 117/185/196
f 108/165/197 101/196/197 102/180/197
f 115/182/198 106/177/198 100/178/198
f 100/178/199 99/197/199 115/182/199
f 120/188/200 99/198/200 101/196/200
f 106/163/201 107/164/201 110/167/201
f 108/165/202 120/188/202 101/196/202
f 120/188/203 115/194/203 99/198/203
f 107/164/204 102/180/204 110/167/204
f 102/180/205 107/164/205 108/165/205
f 118/199/206 106/177/206 116/183/206
f 114/181/207 106/163/207 118/200/207
f 114/191/208 117/192/208 119/201/208
f 117/192/209 116/202/209 119/201/209
f 122/203/210 123/204/210 124/205/210
f 125/206/211 126/207/211 123/208/211
f 125/206/212 123/208/212 127/209/212
f 125/210/213 128/211/213 126/212/213
f 128/211/214 129/213/214 126/212/214
f 128/214/215 124/215/215 129/216/215
f 122/217/216 124/215/216 128/214/216
f 130/218/217 128/211/217 125/219/217
f 131/220/218 122/221/218 130/222/218
f 132/223/219 125/224/219 127/225/219
f 132/226/220 131/227/220 125/219/220
f 133/228/221 131/227/221 132/226/221
f 133/229/222 122/221/222 131/220/222
f 130/218/223 125/219/223 131/227/223
f 128/214/224 130/222/224 122/221/224
f 127/209/225 123/204/225 122/203/225
f 16/230/226 133/228/226 14/231/226
f 16/232/227 3/3/227 133/229/227
f 14/231/228 133/228/228 132/226/228
f 14/233/229 132/223/229 19/234/229
f 132/223/230 127/225/230 19/234/230
f 20/235/231 19/234/231 127/225/231
f 20/235/232 127/225/232 122/236/232
f 3/3/233 122/221/233 133/229/233
f 3/237/234 20/235/234 122/236/234
f 134/238/235 135/239/235 136/240/235
f 137/241/236 135/242/236 134/243/236
f 138/244/237 139/245/237 137/246/237
f 138/247/238 136/248/238 139/249/238
f 134/238/239 136/240/239 123/208/239
f 138/247/240 123/250/240 136/248/240
f 123/250/241 138/247/241 124/251/241
f 134/238/242 123/208/242 126/252/242
f 129/253/243 134/243/243 126/254/243
f 137/241/244 134/243/244 129/253/244
f 138/244/245 137/246/245 129/255/245
f 138/244/246 129/255/246 124/256/246
f 136/257/247 140/258/247 139/259/247
f 136/257/248 141/260/248 140/258/248
f 142/261/249 139/259/249 140/258/249
f 135/262/250 143/263/250 141/260/250
f 141/264/251 143/265/251 142/266/251
f 142/266/252 140/267/252 141/264/252
f 137/268/253 143/263/253 135/262/253
f 135/262/254 141/260/254 136/257/254
f 139/259/255 142/261/255 137/268/255
f 137/268/256 144/269/256 143/263/256
f 137/268/257 142/261/257 144/269/257
f 143/265/258 145/270/258 146/271/258
f 146/271/259 142/266/259 143/265/259
f 143/263/260 144/269/260 145/272/260
f 144/269/261 146/273/261 145/272/261
f 146/273/262 144/269/262 142/261/262
f 3/274/263 16/275/263 17/276/263
f 147/5/264 4/4/264 148/6/264
f 148/7/265 4/4/265 7/8/265
f 149/10/266 147/9/266 150/11/266
f 151/13/267 152/12/267 150/14/267
f 151/15/268 148/6/268 7/8/268
f 153/16/269 148/6/269 151/13/269
f 147/5/270 153/17/270 150/14/270
f 147/5/271 148/6/271 153/17/271
f 153/18/272 151/13/272 150/19/272
f 154/21/273 155/20/273 156/22/273
f 155/20/274 154/21/274 157/23/274
f 155/20/275 157/24/275 17/25/275
f 154/21/276 156/22/276 158/26/276
f 159/27/277 154/21/277 158/26/277
f 160/28/278 158/26/278 21/29/278
f 159/27/279 158/26/279 160/28/279
f 3/30/280 160/28/280 21/29/280
f 22/31/281 147/9/281 23/32/281
f 161/34/282 24/33/282 162/35/282
f 161/34/283 163/36/283 150/37/283
f 163/39/284 164/38/284 165/40/284
f 161/34/285 166/41/285 24/33/285
f 166/41/286 161/34/286 152/42/286
f 24/33/287 166/41/287 31/43/287
f 162/44/288 24/33/288 32/45/288
f 167/47/289 168/46/289 147/9/289
f 22/31/290 4/4/290 147/9/290
f 161/34/291 162/35/291 163/39/291
f 169/48/292 168/46/292 167/47/292
f 162/35/293 32/45/293 164/38/293
f 168/46/294 23/32/294 147/9/294
f 163/39/295 162/35/295 164/38/295
f 165/40/296 164/38/296 170/49/296
f 171/51/297 169/50/297 165/40/297
f 38/52/298 164/38/298 32/45/298
f 38/52/299 170/49/299 164/38/299
f 171/53/300 170/49/300 172/54/300
f 171/56/301 172/55/301 173/57/301
f 42/59/302 41/58/302 172/55/302
f 173/57/303 172/55/303 41/58/303
f 165/40/304 170/49/304 171/51/304
f 169/48/305 171/56/305 168/46/305
f 168/46/306 171/56/306 173/57/306
f 168/46/307 173/57/307 43/60/307
f 43/60/308 173/57/308 41/58/308
f 23/32/309 168/46/309 43/60/309
f 174/62/310 44/61/310 166/63/310
f 175/65/311 156/64/311 174/62/311
f 176/67/312 175/66/312 152/68/312
f 7/69/313 176/67/313 151/70/313
f 44/61/314 174/62/314 17/71/314
f 166/63/315 44/61/315 31/72/315
f 156/64/316 155/73/316 174/62/316
f 152/74/317 175/65/317 174/62/317
f 152/74/318 174/62/318 166/63/318
f 151/70/319 176/67/319 152/68/319
f 48/75/320 176/67/320 7/69/320
f 156/76/321 175/66/321 176/67/321
f 176/67/322 158/77/322 156/76/322
f 158/77/323 176/67/323 48/75/323
f 21/78/324 158/77/324 48/75/324
f 174/62/325 155/73/325 17/71/325
f 169/50/326 177/79/326 165/40/326
f 163/81/327 149/80/327 150/82/327
f 178/83/328 167/47/328 147/84/328
f 177/79/329 163/36/329 165/40/329
f 179/85/330 169/48/330 180/86/330
f 177/79/331 169/50/331 179/87/331
f 178/83/332 180/86/332 167/47/332
f 180/86/333 169/48/333 167/47/333
f 178/83/334 147/84/334 149/10/334
f 163/81/335 181/88/335 149/80/335
f 177/79/336 181/88/336 163/36/336
f 182/90/337 183/89/337 184/91/337
f 182/90/338 185/92/338 186/93/338
f 187/95/339 188/94/339 182/90/339
f 183/89/340 189/96/340 184/91/340
f 189/96/341 172/97/341 170/98/341
f 189/96/342 170/98/342 184/91/342
f 184/91/343 170/98/343 38/99/343
f 63/101/344 190/100/344 191/102/344
f 191/102/345 192/103/345 183/89/345
f 192/103/346 189/96/346 183/89/346
f 67/105/347 193/104/347 190/100/347
f 187/95/348 182/90/348 194/106/348
f 194/106/349 69/107/349 187/95/349
f 70/108/350 69/107/350 194/106/350
f 182/90/351 186/109/351 194/106/351
f 71/110/352 194/106/352 186/111/352
f 67/105/353 190/100/353 63/101/353
f 63/101/354 191/102/354 69/107/354
f 71/110/355 70/108/355 194/106/355
f 71/110/356 186/111/356 72/112/356
f 185/92/357 184/91/357 38/113/357
f 185/114/358 182/90/358 184/91/358
f 74/116/359 195/115/359 38/113/359
f 72/112/360 186/109/360 195/115/360
f 186/111/361 185/117/361 195/115/361
f 195/115/362 185/92/362 38/113/362
f 72/112/363 195/115/363 74/116/363
f 196/118/364 172/97/364 189/96/364
f 172/97/365 196/118/365 197/119/365
f 188/94/366 191/102/366 183/89/366
f 187/95/367 191/102/367 188/94/367
f 188/94/368 183/89/368 182/90/368
f 69/107/369 191/102/369 187/95/369
f 193/104/370 192/103/370 190/100/370
f 189/96/371 192/103/371 196/118/371
f 197/119/372 196/118/372 192/103/372
f 192/103/373 193/104/373 197/119/373
f 191/102/374 190/100/374 192/103/374
f 42/120/375 172/97/375 197/119/375
f 197/119/376 77/121/376 42/120/376
f 197/119/377 67/105/377 77/121/377
f 197/119/378 193/104/378 67/105/378
f 161/34/379 150/82/379 152/42/379
f 177/123/380 179/122/380 198/124/380
f 178/126/381 199/125/381 180/127/381
f 179/122/382 180/127/382 199/125/382
f 200/129/383 201/128/383 181/130/383
f 198/124/384 179/122/384 199/125/384
f 178/126/385 202/131/385 199/125/385
f 202/131/386 178/126/386 149/132/386
f 198/124/387 181/133/387 177/123/387
f 203/135/388 204/134/388 205/136/388
f 204/134/389 203/135/389 206/137/389
f 207/138/390 206/137/390 203/135/390
f 203/135/391 208/139/391 207/138/391
f 209/140/392 207/138/392 208/139/392
f 208/139/393 210/141/393 209/140/393
f 211/143/394 212/142/394 210/141/394
f 209/140/395 210/141/395 212/142/395
f 211/144/396 205/136/396 212/145/396
f 204/134/397 212/145/397 205/136/397
f 213/146/398 201/128/398 204/134/398
f 204/134/399 214/147/399 213/146/399
f 207/138/400 213/146/400 214/147/400
f 213/146/401 207/138/401 215/148/401
f 216/149/402 215/148/402 207/138/402
f 207/138/403 209/140/403 216/149/403
f 212/142/404 217/150/404 209/140/404
f 200/129/405 217/151/405 201/128/405
f 202/131/406 149/132/406 201/128/406
f 201/128/407 213/146/407 218/152/407
f 215/148/408 218/152/408 213/146/408
f 202/131/409 215/148/409 199/125/409
f 198/124/410 199/125/410 215/148/410
f 215/148/411 216/149/411 198/124/411
f 181/133/412 198/124/412 200/153/412
f 216/149/413 200/153/413 198/124/413
f 181/130/414 201/128/414 149/154/414
f 207/138/415 214/147/415 206/137/415
f 204/134/416 206/137/416 214/147/416
f 204/134/417 217/151/417 212/145/417
f 216/149/418 209/140/418 217/150/418
f 204/134/419 201/128/419 217/151/419
f 217/150/420 200/153/420 216/149/420
f 215/148/421 202/131/421 218/152/421
f 201/128/422 218/152/422 202/131/422
f 219/155/423 205/136/423 220/156/423
f 205/136/424 219/155/424 203/135/424
f 221/157/425 203/135/425 219/155/425
f 203/135/426 221/157/426 208/139/426
f 210/141/427 208/139/427 221/157/427
f 221/157/428 222/158/428 210/141/428
f 223/159/429 210/141/429 222/158/429
f 210/141/430 223/159/430 211/143/430
f 205/136/431 211/144/431 223/160/431
f 223/160/432 220/156/432 205/136/432
f 224/162/433 225/161/433 226/163/433
f 226/163/434 227/164/434 228/165/434
f 229/167/435 230/166/435 223/168/435
f 231/169/436 230/166/436 225/161/436
f 229/167/437 225/161/437 230/166/437
f 231/169/438 225/161/438 232/170/438
f 232/170/439 233/171/439 231/169/439
f 229/167/440 226/163/440 225/161/440
f 232/170/441 225/161/441 224/162/441
f 233/173/442 224/172/442 231/174/442
f 224/172/443 233/173/443 232/175/443
f 231/174/444 224/172/444 230/176/444
f 226/177/445 230/176/445 224/172/445
f 220/178/446 230/176/446 226/177/446
f 220/178/447 223/179/447 230/176/447
f 223/168/448 222/180/448 229/167/448
f 234/181/449 226/163/449 228/165/449
f 235/183/450 236/182/450 226/177/450
f 237/185/451 235/184/451 238/186/451
f 234/181/452 228/165/452 239/187/452
f 240/188/453 239/187/453 228/165/453
f 241/190/454 238/189/454 234/191/454
f 241/190/455 234/191/455 237/192/455
f 236/194/456 235/193/456 239/187/456
f 239/187/457 240/188/457 236/194/457
f 238/186/458 241/195/458 237/185/458
f 221/196/459 228/165/459 222/180/459
f 226/177/460 236/182/460 220/178/460
f 219/197/461 220/178/461 236/182/461
f 219/198/462 240/188/462 221/196/462
f 227/164/463 226/163/463 229/167/463
f 240/188/464 228/165/464 221/196/464
f 236/194/465 240/188/465 219/198/465
f 222/180/466 227/164/466 229/167/466
f 227/164/467 222/180/467 228/165/467
f 226/177/468 238/199/468 235/183/468
f 226/163/469 234/181/469 238/200/469
f 237/192/470 234/191/470 239/201/470
f 235/202/471 237/192/471 239/201/471
f 242/204/472 243/203/472 244/205/472
f 245/207/473 246/206/473 242/208/473
f 242/208/474 246/206/474 247/209/474
f 248/211/475 246/210/475 245/212/475
f 249/213/476 248/211/476 245/212/476
f 244/215/477 248/214/477 249/216/477
f 244/215/478 243/217/478 248/214/478
f 248/211/479 250/218/479 246/219/479
f 243/221/480 251/220/480 250/222/480
f 246/224/481 252/223/481 247/225/481
f 251/227/482 252/226/482 246/219/482
f 251/227/483 253/228/483 252/226/483
f 243/221/484 253/229/484 251/220/484
f 246/219/485 250/218/485 251/227/485
f 250/222/486 248/214/486 243/221/486
f 242/204/487 247/209/487 243/203/487
f 253/228/488 157/230/488 154/231/488
f 3/3/489 157/232/489 253/229/489
f 253/228/490 154/231/490 252/226/490
f 252/223/491 154/233/491 159/234/491
f 247/225/492 252/223/492 159/234/492
f 159/234/493 160/235/493 247/225/493
f 247/225/494 160/235/494 243/236/494
f 243/221/495 3/3/495 253/229/495
f 160/235/496 3/237/496 243/236/496
f 254/239/497 255/238/497 256/240/497
f 254/242/498 257/241/498 255/243/498
f 258/245/499 259/244/499 257/246/499
f 256/248/500 259/247/500 258/249/500
f 256/240/501 255/238/501 242/208/501
f 242/250/502 259/247/502 256/248/502
f 259/247/503 242/250/503 244/251/503
f 242/208/504 255/238/504 245/252/504
f 255/243/505 249/253/505 245/254/505
f 255/243/506 257/241/506 249/253/506
f 257/246/507 259/244/507 249/255/507
f 249/255/508 259/244/508 244/256/508
f 260/258/509 256/257/509 258/259/509
f 261/260/510 256/257/510 260/258/510
f 258/259/511 262/261/511 260/258/511
f 263/263/512 254/262/512 261/260/512
f 263/265/513 261/264/513 262/266/513
f 260/267/514 262/266/514 261/264/514
f 263/263/515 257/268/515 254/262/515
f 261/260/516 254/262/516 256/257/516
f 262/261/517 258/259/517 257/268/517
f 264/269/518 257/268/518 263/263/518
f 262/261/519 257/268/519 264/269/519
f 265/270/520 263/265/520 266/271/520
f 262/266/521 266/271/521 263/265/521
f 264/269/522 263/263/522 265/272/522
f 266/273/523 264/269/523 265/272/523
f 264/269/524 266/273/524 262/261/524
f 157/275/525 3/274/525 17/276/525

o 
usemtl axe.001
s off

v 27.321430 75.792229 6.460840
v 22.987221 70.175613 8.274380
v 32.025421 73.471008 13.209310
v 29.264000 71.614578 12.880489
v 32.699612 72.189011 14.785251
v 29.938200 70.332581 14.456429
v 32.934738 65.118401 19.581980
v 26.500248 63.495499 16.486130
v 32.705780 79.411980 7.102000
v 38.319088 68.738159 20.223131
v 39.140259 81.034889 10.197850
v 34.786839 75.327438 13.538131
v 35.461029 74.045441 15.114070
v 42.653297 74.354767 18.409590
v 30.179480 70.484947 11.569901
v 32.940910 72.341377 11.898720
v 30.853680 69.202965 13.145840
v 33.615089 71.059372 13.474660
v 35.702309 74.197800 12.227540
v 36.376511 72.915810 13.803480
v 1.708370 53.089638 9.599239
v 2.382560 51.807640 11.175179
v 3.298050 50.678001 9.864580
v 2.205380 52.891800 8.848480
v 41.396782 78.030968 14.363260
v -26.348200 32.492691 7.753980
v -25.469000 31.451399 6.355180
v -26.106911 32.645061 4.867450
v -27.022400 33.774689 6.178040

vt 0.033358 0.643728
vt 0.190411 0.923560
vt 0.402692 0.503812
vt 0.402692 0.647326
vt 0.408249 0.287497
vt 0.408249 0.367848
vt 0.492649 0.287497
vt 0.492649 0.367848
vt 0.403043 0.503812
vt 0.403044 0.647326
vt 0.033710 0.643728
vt 0.190763 0.923560
vt 0.033358 0.363896
vt 0.033710 0.363896
vt 0.190411 0.084064
vt 0.402692 0.360297
vt 0.408249 0.207147
vt 0.492649 0.207147
vt 0.403043 0.360297
vt 0.190763 0.084064
vt 0.408248 1.036942
vt 0.492649 1.036942
vt 0.483600 0.371280
vt 0.402049 0.371280
vt 0.402049 1.040375
vt 0.483600 1.040375
vt 0.450449 0.037941
vt 0.483600 0.210579
vt 0.402049 0.210579
vt 0.442825 0.041374
vt 0.000000 1.000000

vn -0.539985 0.605472 0.584654
vn -0.523875 0.691049 0.498002
vn -0.467680 0.577080 0.669518
vn -0.425063 0.498442 0.755564
vn -0.476444 0.461697 0.748223
vn -0.503093 0.646825 0.573162
vn -0.449755 0.681159 0.577705
vn -0.390174 0.436815 0.810529
vn -0.389183 0.541045 0.745525
vn 0.390174 -0.436816 -0.810528
vn 0.389183 -0.541045 -0.745525
vn 0.467678 -0.577079 -0.669520
vn 0.449755 -0.681158 -0.577706
vn 0.503092 -0.646825 -0.573163
vn 0.425060 -0.498443 -0.755565
vn 0.476445 -0.461696 -0.748223
vn 0.539985 -0.605472 -0.584653
vn 0.523876 -0.691047 -0.498005
vn -0.215697 -0.809074 0.546693
vn -0.731721 0.172152 -0.659506
vn 0.215698 0.809075 -0.546692
vn 0.731722 -0.172153 0.659505
vn 0.270545 -0.288087 -0.918592
vn -0.308043 0.603563 -0.735405
vn -0.444735 0.748630 -0.491695
vn 0.314977 -0.598934 0.736252
vn -0.349518 0.648024 0.676684
vn 0.576932 -0.495141 -0.649603
vn 0.435502 -0.508697 0.742674
vn -0.187293 0.675564 -0.713117
vn 0.328737 -0.618729 0.713517
vn -0.363850 0.649542 -0.667614
vn 0.390491 -0.408064 -0.825228
vn -0.824233 -0.558305 -0.094533
vn -0.823364 -0.558287 -0.101918

f 267/277/526 268/278/526 269/279/526
f 270/280/527 269/279/527 268/278/527
f 269/281/528 270/282/528 271/283/528
f 272/284/528 271/283/528 270/282/528
f 271/285/529 272/286/529 273/287/529
f 274/288/530 273/287/530 272/286/530
f 275/289/531 267/277/531 269/279/531
f 273/287/529 276/290/529 271/285/529
f 277/291/532 275/289/532 278/292/532
f 269/279/531 278/292/531 275/289/531
f 278/293/528 269/281/528 279/294/528
f 271/283/528 279/294/528 269/281/528
f 279/295/533 271/285/533 280/296/533
f 276/290/534 280/296/534 271/285/534
f 281/280/535 268/278/535 282/279/535
f 267/277/536 282/279/536 268/278/536
f 283/284/537 281/282/537 284/283/537
f 282/281/537 284/283/537 281/282/537
f 274/288/538 283/286/538 273/287/538
f 284/285/539 273/287/539 283/286/539
f 282/279/540 267/277/540 275/289/540
f 273/287/539 284/285/539 276/290/539
f 282/279/540 275/289/540 285/292/540
f 277/291/541 285/292/541 275/289/541
f 284/283/537 282/281/537 286/294/537
f 285/293/537 286/294/537 282/281/537
f 276/290/542 284/285/542 280/296/542
f 286/295/543 280/296/543 284/285/543
f 270/280/544 268/278/544 281/280/544
f 283/286/545 274/288/545 272/286/545
f 279/295/546 280/296/546 286/295/546
f 285/292/547 277/291/547 278/292/547
f 272/284/528 270/282/528 287/297/528
f 287/297/528 288/298/528 272/284/528
f 281/282/537 283/284/537 289/298/537
f 289/298/548 290/297/548 281/282/548
f 270/299/549 281/300/549 290/301/549
f 290/301/550 287/302/550 270/299/550
f 283/300/551 272/299/551 288/302/551
f 288/302/551 289/301/551 283/300/551
f 278/293/552 279/294/552 291/303/552
f 286/294/553 285/293/553 291/303/553
f 279/304/554 286/305/554 291/306/554
f 285/305/555 278/304/555 291/306/555
f 289/298/556 288/297/556 292/298/556 293/307/556
f 287/297/557 290/298/557 294/297/557 295/307/557
f 290/297/558 289/298/558 293/297/558 294/307/558
f 288/298/528 287/297/528 295/298/528 292/307/528
f 294/297/559 293/298/559 295/297/559
f 292/298/560 295/297/560 293/298/560

