mtllib anim_barb_attack6_000063.mtl

o fat
usemtl fat.001
s off

v -0.525770 35.949509 -6.268430
v 1.860240 36.144421 6.136090
v 0.657510 36.383892 -1.424920
v -0.018870 58.276001 -11.338140
v 8.293440 63.754700 -9.823370
v 2.451810 54.487831 -11.250700
v -0.524670 49.918892 -9.804900
v 6.878460 59.613342 -7.884540
v 7.506980 54.259956 -6.752510
v 6.928970 49.535732 -6.092120
v 3.965230 49.942249 -10.081051
v 5.898700 55.148102 -11.110140
v 9.315320 35.881470 1.308670
v 9.021700 36.582932 -6.466850
v 10.271359 36.127911 -6.274310
v 7.191060 37.304420 0.502510
v 3.993900 34.581520 4.089910
v 3.107070 32.938961 -9.275260
v 2.736450 35.851273 -9.151370
v -0.250950 35.469391 -7.244080
v -0.971430 32.206768 -6.077140
v -0.303660 63.709949 -10.101740
v -0.456510 65.584305 -9.666300
v 0.550060 53.054180 1.218100
v 5.600810 53.686340 -1.677700
v 6.424010 57.378689 0.515600
v 8.920321 58.068192 -2.074570
v 6.197140 60.035290 1.390860
v 10.471279 62.379780 -2.854800
v 4.497020 50.464420 1.065870
v 1.460980 47.847881 -0.254860
v 0.804210 58.601471 3.101460
v 3.884110 67.257271 -5.929870
v 10.212430 64.630272 -8.948500
v 10.766620 64.424721 -5.177350
v 3.604310 63.752518 1.638120
v 5.281380 66.354378 -2.422060
v 1.004080 63.008381 2.726690
v 3.822220 70.290520 -0.310240
v 3.116140 68.852478 -3.225740
v 0.462190 69.491989 -3.063900
v 1.177270 71.461311 -0.282210
v -0.359680 68.334732 -5.224200
v 0.604350 45.289551 1.787390
v 5.364230 45.861923 2.044090
v 8.418850 45.510181 -3.133380
v 4.989040 44.916538 -8.353220
v -0.264000 44.796539 -10.692051
v 10.033680 61.331970 -2.998500
v 9.287940 61.057556 -10.848880
v 11.998251 61.112171 -5.042780
v 11.638780 62.801189 -8.395350
v 6.807530 59.521416 -2.718350
v 5.597060 68.252800 4.499910
v 4.655500 66.439590 6.258650
v 4.154530 63.841702 2.681450
v 3.978940 62.965691 4.224010
v 3.946030 65.183426 6.092260
v 5.364861 68.343582 6.339370
v 3.796220 68.293060 7.245460
v 5.421590 70.227150 2.144530
v 5.184980 72.034859 7.978559
v 4.080700 72.020119 8.715240
v 5.869290 69.385132 7.157400
v 6.351930 71.402405 6.443880
v 5.095600 74.007988 5.590150
v 3.523330 74.191544 6.053840
v 4.007480 66.376549 7.083670
v 3.463440 68.979858 7.910200
v 3.390630 66.728813 8.559791
v 3.121540 66.337059 7.841540
v 2.833670 64.817528 7.506090
v 3.446340 62.176342 5.969030
v 2.334880 62.132103 6.945530
v 5.714280 72.471634 2.749970
v 5.296670 73.854927 2.712720
v 2.551050 74.627579 2.730040
v 11.264549 58.759022 -3.096540
v 12.736990 58.929028 -6.529810
v 6.562360 53.742599 -7.632320
v 7.223500 54.254158 -3.097200
v 9.712299 57.847450 -10.205000
v 8.067570 49.153591 -6.840900
v 8.215990 44.370480 -5.906960
v 6.856120 46.576252 -4.352360
v 11.331960 48.216858 -7.860700
v 12.481280 50.011070 -5.668480
v 11.039341 44.409290 -4.502860
v 11.469689 49.693733 -3.748110
v 11.267641 45.899220 -2.108160
v 9.022511 48.236572 -3.627040
v 9.041480 47.280579 -1.442320
v 10.960160 51.156952 -8.321610
v 11.235150 49.845470 -8.172871
v 13.027630 55.287949 -6.141550
v 11.410290 55.204582 -3.019440
v 8.656860 50.062317 -3.567290
v 10.916090 53.763969 -9.610180
v 5.360120 40.151630 -0.825980
v 4.712630 41.496758 0.342350
v 6.790520 39.790119 -0.318630
v 7.257960 40.866871 1.162930
v 6.188400 41.978348 1.769670
v 4.706540 40.274231 6.465820
v 4.070610 39.857792 5.944860
v 4.690190 39.745060 4.792620
v 5.636670 39.909710 4.686920
v 5.776210 38.220181 4.646100
v 4.592680 41.814911 4.531250
v 5.355280 40.793682 5.103060
v 3.831270 40.939201 6.418260
v 3.897070 39.506088 7.425680
v 3.259730 40.036568 7.274170
v 4.550160 36.970058 6.033420
v 3.015690 37.051472 0.797960
v 2.247600 35.664680 1.969770
v 1.413080 33.903011 4.149010
v 3.950120 38.112633 6.014420
v 3.219370 35.339691 2.220010
v 4.237960 36.497341 1.023770
v 2.702390 35.773060 7.783800
v 2.789270 24.974831 0.290360
v 4.364680 23.198841 -7.874290
v 2.882350 18.465679 -2.509590
v 8.353870 24.757769 -1.385310
v 9.803300 20.402580 -5.294280
v 4.336660 24.254360 -3.902680
v 7.013120 22.180080 1.574290
v 7.353100 17.505400 -0.500440
v 7.143910 24.608929 2.362240
v 7.325560 27.164480 1.077030
v 9.289950 27.594320 -4.151070
v 7.830320 32.183880 1.527580
v 7.784260 13.511539 -13.705029
v 8.482059 11.749820 -15.656380
v 5.068980 13.271641 -16.058981
v 7.143050 9.625120 -12.953060
v 4.318800 12.004109 -12.716730
v 3.903630 9.659110 -15.142530
v 3.943130 10.260260 -19.926960
v 6.770600 11.694611 -20.190128
v 6.714540 3.711620 -15.502280
v 12.297911 6.341280 -16.022980
v 10.348149 3.274550 -12.207100
v 12.912270 2.842250 -13.835670
v 9.528370 0.657740 -13.168159
v -10.822170 64.474495 -5.847090
v -2.373250 54.437252 -11.157320
v -7.343660 60.030231 -1.648430
v -9.027090 54.795059 -5.164040
v -5.044430 49.382591 -8.336320
v -6.196020 48.221642 -3.868740
v -6.543380 55.120850 -10.237640
v -8.681661 36.900780 -1.233000
v -6.621880 36.538391 4.087640
v -10.048570 36.279758 -1.767000
v -3.588290 39.213829 3.215940
v -5.721390 33.238121 -6.622860
v -5.006910 35.977901 -7.109270
v -1.656840 34.820129 -6.657560
v -5.171480 53.258560 -0.598170
v -5.808680 57.341232 2.455770
v -10.826490 59.721542 2.363620
v -4.738070 59.806107 3.625400
v -9.528460 64.707558 2.854440
v -2.081810 47.606476 -0.021690
v -12.188410 65.911530 -3.194720
v -5.223820 67.528755 -4.116830
v -11.055790 66.423706 0.979630
v -1.220770 64.331909 3.167540
v -5.030640 67.652100 0.614150
v -1.090110 70.863022 1.269950
v -2.462720 69.551208 -1.634410
v -3.837170 45.457657 2.898500
v -7.929120 45.193310 -2.062340
v -5.677220 44.186218 -7.828730
v -10.921540 64.252449 2.950300
v -11.804760 60.108727 -3.939070
v -13.047210 65.012512 1.348420
v -13.769440 62.700809 -1.601560
v -10.033760 61.131638 2.308080
v 1.033900 66.879089 7.375700
v -0.302280 68.968719 6.319510
v -1.435000 64.719208 4.249920
v -0.314080 63.486679 5.548150
v 1.235730 65.512337 6.928240
v 2.676880 68.428886 7.590740
v 0.926210 68.882240 7.708420
v -1.038950 71.011185 4.137220
v 2.788810 72.325653 8.717630
v 1.204100 69.951294 8.596340
v 0.861580 72.068710 8.137321
v 1.964470 74.387970 6.555950
v 1.998410 66.620369 7.703350
v 0.910380 62.484100 6.751210
v -0.446330 73.219254 4.650180
v 0.170390 74.477036 4.293870
v -12.505760 62.377621 3.741670
v -14.657860 61.510017 0.770270
v -9.520340 57.434902 5.289730
v -9.739580 54.984299 1.408010
v -12.692551 58.322258 -2.405600
v -10.929650 49.073559 3.134490
v -11.850700 51.508133 4.403490
v -10.997120 50.955460 5.425500
v -15.362081 51.083149 4.015120
v -15.756650 53.883839 5.231720
v -13.206090 47.715130 4.330400
v -14.591410 54.110306 7.077909
v -13.737101 47.843319 7.315110
v -11.982620 49.329437 9.011300
v -12.518350 52.290833 7.706560
v -14.513260 53.374020 2.245290
v -14.935369 52.402222 2.998100
v -15.502110 58.426117 2.577270
v -13.406590 59.266151 5.292950
v -11.540240 54.443531 6.100210
v -14.214560 55.075588 -0.010820
v -6.483270 43.627556 6.192540
v -6.559760 44.098171 7.057990
v -8.368751 42.598839 5.593690
v -8.863420 42.656860 7.464540
v -7.947290 43.480919 8.517460
v -5.026850 39.612762 10.743390
v -5.716080 39.923882 11.621639
v -5.573890 39.911621 9.834320
v -6.762280 40.359989 9.922830
v -6.644790 38.932930 9.008290
v -6.575340 40.940472 10.736470
v -5.861380 42.002987 10.797549
v -4.963460 40.669781 11.918840
v -4.703640 38.937279 12.031260
v -4.173530 39.577160 12.172650
v -5.105620 37.400539 9.526590
v -3.513650 39.250351 5.192420
v -4.272620 40.806999 5.253970
v -2.646290 36.834648 5.624760
v -4.900490 38.275421 9.696730
v -3.950160 38.230419 5.409140
v -5.250060 39.623749 5.004000
v -3.350400 35.796871 9.849320
v -6.486250 20.033791 -1.755200
v -1.555470 25.411839 4.948780
v -3.367760 17.694981 1.902440
v -10.666580 19.443409 2.313130
v -7.549630 25.963070 4.798960
v -4.499170 26.192680 1.773710
v -5.298770 23.150829 7.390290
v -6.688550 17.029789 5.565520
v -4.934720 25.282459 8.158190
v -4.435480 27.757179 7.550879
v -8.560280 29.470192 4.577870
v -4.227380 33.952610 5.709290
v -12.300071 6.410070 -1.903810
v -10.806040 9.060909 -0.924930
v -9.578560 7.160040 -4.440330
v -9.584641 6.742580 0.756660
v -7.418690 5.257700 -2.128640
v -7.272820 8.214520 -1.123680
v -9.058460 2.138940 -5.384130
v -12.099500 2.856530 -5.241190
v -8.164220 1.302930 2.986560
v -14.172040 2.879710 3.327320
v -10.333950 4.354670 6.800680
v -12.961950 2.890460 7.403560
v -9.006280 2.036560 7.943930

vt 0.550479 0.485338
vt 0.414517 0.485338
vt 0.489174 0.497239
vt 0.490853 0.675485
vt 0.356970 0.710738
vt 0.458986 0.602657
vt 0.458693 0.603155
vt 0.491001 0.506534
vt 0.357039 0.710738
vt 0.272881 0.708251
vt 0.307767 0.663467
vt 0.329118 0.504113
vt 0.420682 0.504388
vt 0.307693 0.663467
vt 0.420389 0.504181
vt 0.390374 0.619683
vt 0.389206 0.622726
vt 0.390855 0.620128
vt 0.309151 0.663075
vt 0.578845 0.971377
vt 0.529882 0.993867
vt 0.501054 0.950636
vt 0.597833 0.993868
vt 0.684209 0.993870
vt 0.691613 0.940228
vt 0.584242 0.936155
vt 0.602549 0.993867
vt 0.689094 0.993870
vt 0.694409 0.971380
vt 0.730001 0.975635
vt 0.490853 0.781888
vt 0.490853 0.820915
vt 0.240556 0.660920
vt 0.133663 0.660928
vt 0.131880 0.753091
vt 0.060606 0.782384
vt 0.055577 0.663688
vt 0.136145 0.808744
vt 0.060014 0.783494
vt 0.058190 0.859642
vt 0.160773 0.512959
vt 0.067037 0.515196
vt 0.240700 0.512959
vt 0.131877 0.752996
vt 0.240556 0.781375
vt 0.390182 0.870896
vt 0.298691 0.847983
vt 0.294173 0.886121
vt 0.181129 0.899551
vt 0.052544 0.886601
vt 0.145152 0.921474
vt 0.235241 0.891030
vt 0.142740 0.921054
vt 0.172936 0.966074
vt 0.456563 0.999059
vt 0.389917 0.922986
vt 0.429989 0.941889
vt 0.491140 0.942697
vt 0.490646 0.999330
vt 0.490853 0.898039
vt 0.701416 0.118225
vt 0.813217 0.120956
vt 0.790107 0.184348
vt 0.877923 0.002315
vt 0.872775 0.120438
vt 0.505869 0.118716
vt 0.564263 0.119120
vt 0.507564 0.183764
vt 0.697589 0.180917
vt 0.580429 0.182675
vt 0.710756 0.001536
vt 0.701372 0.182427
vt 0.812168 0.002315
vt 0.857243 0.184348
vt 0.697567 0.116528
vt 0.503935 0.000692
vt 0.561277 0.000692
vt 0.688827 -0.000098
vt 0.002866 0.854679
vt 0.027518 0.706813
vt 0.061197 0.782654
vt 0.055608 0.663958
vt 0.251604 0.781884
vt 0.357109 0.710738
vt 0.243886 0.876138
vt 0.247300 0.848527
vt -0.000514 0.880403
vt 0.006948 0.782948
vt 0.674684 0.829607
vt 0.705811 0.784366
vt 0.654033 0.662928
vt 0.703232 0.671848
vt 0.720473 0.730776
vt 0.697736 0.853617
vt 0.729837 0.853035
vt 0.623758 0.856571
vt 0.587609 0.811448
vt 0.658187 0.605708
vt 0.748523 0.593788
vt 0.716351 0.931575
vt 0.747491 0.935506
vt 0.695349 0.885675
vt 0.676247 0.904603
vt 0.649719 0.961956
vt 0.745560 1.001324
vt 0.725611 0.781438
vt 0.747491 0.878462
vt 0.747491 0.808438
vt 0.720379 0.731031
vt 0.747491 0.790807
vt 0.720762 0.730332
vt 0.748639 0.732530
vt 0.746944 0.628012
vt 0.703659 0.671442
vt 0.731857 0.666086
vt 0.747085 0.666819
vt 0.703186 0.671176
vt 0.611291 0.885598
vt 0.604148 0.909350
vt 0.550618 0.823662
vt 0.550618 0.934468
vt 0.625864 0.557513
vt 0.571978 0.557920
vt 0.578607 0.510287
vt 0.669444 0.510287
vt 0.756032 0.560223
vt 0.679695 0.557918
vt 0.877240 0.461159
vt 0.992418 0.461159
vt 0.944262 0.560223
vt 0.756457 0.510287
vt 0.806202 0.560223
vt 0.498275 0.560223
vt 0.875566 0.382888
vt 0.758260 0.308662
vt 0.875912 0.308662
vt 0.759996 0.360654
vt 0.669163 0.382888
vt 0.671223 0.308662
vt 0.584325 0.382888
vt 0.577057 0.308662
vt 0.498223 0.363687
vt 0.498247 0.308662
vt 0.992597 0.308662
vt 0.992439 0.363687
vt 0.759483 0.410364
vt 0.758924 0.382888
vt 0.665903 0.461159
vt 0.580075 0.461159
vt 0.498223 0.402657
vt 0.992438 0.402657
vt 0.760539 0.449273
vt 0.498220 0.461159
vt 0.875438 0.575163
vt 0.762705 0.196431
vt 0.858161 0.196355
vt 0.690657 0.196417
vt 0.588027 0.196417
vt 0.498144 0.196431
vt 0.991918 0.196431
vt 0.375723 0.009258
vt 0.380090 0.017573
vt 0.356438 0.030356
vt 0.342839 0.029458
vt 0.369327 0.043627
vt 0.316032 0.012201
vt 0.336848 0.019568
vt 0.249292 0.041099
vt 0.371147 0.002582
vt 0.416197 0.004791
vt 0.408124 0.000758
vt 0.128136 0.016613
vt 0.154876 0.002573
vt 0.119423 0.002194
vt 0.160447 0.001473
vt 0.065726 0.014292
vt 0.105093 0.028910
vt 0.000825 0.069213
vt 0.000703 0.039244
vt 0.249314 0.055441
vt 0.429228 0.045736
vt 0.102506 0.115410
vt 0.153549 0.117195
vt 0.189513 0.114692
vt 0.228429 0.109580
vt 0.194639 0.033982
vt 0.406548 0.108121
vt 0.355355 0.108206
vt 0.448349 0.035630
vt 0.498209 0.039288
vt 0.461840 0.047992
vt 0.483032 0.114221
vt 0.406174 0.120334
vt 0.355217 0.119080
vt 0.243215 0.037501
vt 0.249314 0.089732
vt 0.000703 0.095058
vt 0.249292 0.105039
vt 0.160984 0.032072
vt 0.413806 0.033644
vt 0.442212 0.108407
vt 0.443088 0.117732
vt 0.023914 0.327327
vt 0.104127 0.227894
vt 0.000784 0.227894
vt 0.216171 0.327327
vt 0.216985 0.228421
vt 0.105699 0.228145
vt 0.104981 0.327662
vt 0.217575 0.327327
vt 0.351490 0.301452
vt 0.217290 0.227894
vt 0.351571 0.227894
vt 0.352420 0.301452
vt 0.489174 0.227894
vt 0.352342 0.227894
vt 0.471690 0.333380
vt 0.351597 0.328057
vt 0.217345 0.328075
vt 0.352312 0.363299
vt 0.470864 0.334174
vt 0.352330 0.328057
vt 0.216660 0.380224
vt 0.216104 0.328075
vt 0.104983 0.328371
vt 0.217232 0.380224
vt 0.351611 0.363299
vt 0.351459 0.420971
vt 0.352499 0.420971
vt 0.351589 0.497239
vt 0.229465 0.497239
vt 0.352627 0.497239
vt 0.229583 0.497239
vt 0.133020 0.497239
vt 0.072972 0.497239
vt 0.025422 0.328212
vt 0.002386 0.497239
vt 0.216130 0.152222
vt 0.223982 0.125749
vt 0.105883 0.155747
vt 0.351732 0.147623
vt 0.223132 0.128232
vt 0.218721 0.149411
vt 0.469070 0.149411
vt 0.483427 0.127273
vt 0.352306 0.146326
vt 0.017963 0.152222
vt 0.104256 0.155747
vt 0.009616 0.131504
vt 0.104128 0.227914
vt 0.000790 0.227921
vt 0.216984 0.228396
vt 0.351571 0.227971
vt 0.217291 0.227882
vt 0.352342 0.227879
vt 0.489111 0.227891
vt 0.948232 0.041698
vt 0.989968 0.003451
vt 0.971575 0.059997
vt 0.909211 0.004273
vt 0.996004 0.120663
vt 0.925604 0.058708
vt 0.885225 0.122889
vt 0.516483 0.798440
vt 0.501430 0.685191
vt 0.597947 0.686709
vt 0.594444 0.793024
vt 0.950876 0.082499
vt 0.943924 0.157220
vt 0.507177 0.624822
vt 0.600053 0.622523
vt 0.901715 0.182549
vt 0.982420 0.184037
vt 0.730212 0.975635
vt 0.685579 0.991654
vt 0.692830 0.969164

vn -0.809461 0.568535 0.146767
vn 0.136487 0.066205 -0.988427
vn -0.216584 -0.163473 -0.962480
vn 0.474376 0.235087 0.848352
vn 0.780869 -0.179193 -0.598443
vn -0.057781 -0.266782 -0.962023
vn 0.082252 -0.222582 -0.971438
vn 0.906255 -0.196176 -0.374456
vn 0.012690 0.144399 -0.989438
vn 0.836487 -0.387308 -0.387662
vn -0.331378 -0.940720 -0.072353
vn -0.541122 -0.839126 -0.055268
vn -0.196502 -0.688727 -0.697884
vn -0.251336 -0.301018 0.919901
vn -0.382607 -0.087815 0.919729
vn 0.592856 0.151941 0.790845
vn 0.534922 0.032161 0.844289
vn 0.961437 -0.251842 -0.110518
vn 0.030318 0.228531 -0.973065
vn 0.471684 -0.525682 0.707935
vn 0.785617 -0.574305 0.230173
vn 0.736226 -0.145223 0.660970
vn 0.373336 0.523985 0.765545
vn 0.944067 -0.045293 0.326627
vn -0.156640 -0.294154 0.942835
vn 0.338871 -0.316349 0.886053
vn -0.022232 0.730612 -0.682431
vn 0.030385 0.223272 -0.974282
vn 0.693110 -0.476049 0.541272
vn 0.381106 0.924514 -0.005612
vn 0.354858 -0.265080 0.896553
vn 0.161000 0.817449 -0.553043
vn 0.731642 -0.156142 0.663566
vn 0.561443 0.341475 0.753775
vn 0.516576 0.608995 0.601892
vn 0.285078 0.068377 0.956062
vn 0.337526 0.173892 0.925115
vn 0.895605 0.099367 0.433609
vn 0.745861 0.507788 -0.431096
vn 0.318205 0.733248 -0.600910
vn 0.179617 0.864302 -0.469808
vn 0.516126 0.608288 0.602992
vn 0.370570 0.924402 0.090327
vn 0.770373 0.620374 -0.147182
vn 0.142213 0.869695 -0.472659
vn 0.170994 0.839955 -0.515011
vn 0.126647 0.842133 -0.524188
vn -0.076027 0.193570 0.978136
vn 0.861274 -0.000055 0.508141
vn 0.837072 -0.087167 -0.540104
vn -0.056110 -0.334812 -0.940613
vn -0.075286 0.186790 0.979511
vn -0.688777 0.578955 0.436345
vn 0.925310 0.356863 0.128259
vn 0.730213 0.558987 0.392838
vn 0.929083 0.235652 0.285086
vn 0.799856 -0.042875 -0.598658
vn 0.397014 0.176203 -0.900740
vn 0.769837 0.334063 -0.543831
vn 0.382122 0.011093 -0.924045
vn 0.406609 0.006440 -0.913580
vn -0.567904 -0.254963 -0.782610
vn 0.439565 0.108313 0.891656
vn 0.914105 -0.354851 -0.196198
vn 0.946091 0.043195 -0.321007
vn 0.213783 0.415064 -0.884318
vn 0.917729 -0.360358 -0.167078
vn 0.933557 0.350207 0.076334
vn 0.705648 0.288654 0.647100
vn 0.607208 0.244925 -0.755851
vn 0.798003 0.596665 -0.084746
vn -0.766134 -0.038572 -0.641522
vn 0.561920 0.826888 0.022427
vn 0.084702 -0.298049 -0.950785
vn 0.925654 -0.355790 0.128755
vn 0.686898 -0.462237 0.560810
vn 0.493277 -0.219467 0.841732
vn 0.946763 -0.208491 -0.245297
vn 0.820665 -0.188142 -0.539548
vn 0.872068 -0.210204 -0.441941
vn 0.254676 -0.965640 -0.051772
vn 0.552429 -0.113258 0.825829
vn 0.972519 -0.232824 -0.000418
vn 0.976256 -0.124616 -0.177188
vn 0.266592 0.747920 0.607901
vn 0.784685 0.034244 0.618948
vn 0.918610 0.068402 0.389199
vn 0.926335 0.076475 0.368856
vn 0.710950 -0.470740 0.522449
vn 0.558066 -0.547136 0.623863
vn 0.353876 0.759622 0.545661
vn 0.330747 -0.303742 0.893503
vn 0.338183 -0.873651 0.349808
vn 0.789334 -0.271139 0.550850
vn 0.220499 -0.858727 -0.462567
vn 0.981293 -0.192503 0.002379
vn -0.109433 -0.979533 -0.168936
vn 0.795513 -0.156183 0.585462
vn 0.961455 -0.168665 0.217156
vn 0.169448 -0.916338 -0.362784
vn 0.641698 -0.269108 0.718195
vn 0.837704 0.037724 -0.544819
vn 0.756568 0.211743 -0.618684
vn 0.847332 -0.514309 0.132343
vn 0.383857 -0.678135 0.626728
vn 0.926710 -0.350958 0.134302
vn 0.331388 -0.568342 0.753107
vn 0.776147 0.500077 0.384083
vn 0.978642 -0.076107 -0.190964
vn 0.954710 0.286011 -0.082015
vn 0.895032 0.444302 0.038910
vn 0.799943 0.020737 0.599717
vn 0.242694 0.567117 -0.787069
vn 0.174752 0.637804 -0.750112
vn 0.270863 0.961475 0.046898
vn 0.102528 0.993680 -0.045693
vn 0.936520 -0.066459 0.344258
vn 0.701704 0.311266 0.640878
vn 0.752939 -0.099839 -0.650472
vn 0.955183 0.292579 0.044982
vn -0.984157 -0.088760 0.153484
vn 0.917531 0.041058 0.395540
vn 0.775371 -0.024075 -0.631047
vn -0.698039 -0.228400 -0.678656
vn 0.085009 0.002702 0.996377
vn -0.830992 -0.131335 -0.540558
vn -0.342075 -0.190292 -0.920203
vn 0.793627 -0.603412 0.077784
vn 0.429520 -0.288615 -0.855695
vn 0.885649 -0.135558 0.444129
vn 0.996052 -0.074141 -0.048830
vn 0.566934 0.756472 0.326093
vn -0.192565 0.397921 0.896983
vn -0.641533 0.700700 0.312178
vn -0.639417 0.668044 0.380609
vn -0.294505 -0.255414 -0.920886
vn -0.348293 -0.177422 -0.920442
vn 0.883597 0.134398 -0.448547
vn 0.833521 -0.134343 -0.535905
vn 0.887340 -0.050784 0.458310
vn 0.887055 -0.051106 0.458826
vn 0.061482 -0.020344 0.997901
vn -0.925869 -0.335979 0.172872
vn -0.633229 0.000844 -0.773964
vn -0.374441 -0.415941 -0.828726
vn 0.873465 -0.203794 -0.442184
vn 0.772974 -0.005949 -0.634409
vn 0.910875 0.114970 0.396345
vn 0.886473 0.046336 0.460454
vn 0.073187 -0.065797 0.995145
vn -0.023268 0.020727 0.999514
vn -0.998502 0.053215 -0.012762
vn 0.895677 -0.031779 -0.443569
vn -0.343297 -0.196459 -0.918450
vn -0.953540 -0.198391 0.226721
vn 0.046569 -0.130447 0.990361
vn -0.933632 -0.264583 0.241511
vn 0.006351 -0.109299 0.993989
vn 0.811380 0.157184 -0.562989
vn -0.399848 -0.246471 -0.882822
vn -0.892360 -0.039008 -0.449635
vn -0.822459 -0.114334 -0.557215
vn 0.027044 -0.776496 -0.629541
vn 0.289843 -0.775134 -0.561389
vn 0.814557 -0.524173 0.248473
vn 0.817855 -0.556490 0.146399
vn 0.559979 0.089227 0.823688
vn 0.432761 0.285202 0.855206
vn -0.699611 0.605888 0.378742
vn -0.624431 0.655735 0.424379
vn 0.355880 -0.892026 0.278636
vn 0.113487 -0.014634 0.993432
vn 0.615542 0.681387 0.396005
vn 0.497741 0.692499 0.522206
vn 0.527425 0.679451 0.510068
vn 0.373216 0.544942 0.750832
vn 0.281337 0.560471 0.778924
vn 0.808571 -0.563236 0.170228
vn 0.608496 -0.785155 -0.115165
vn -0.850498 0.041310 -0.524354
vn -0.583068 -0.772423 -0.251783
vn -0.921201 -0.034212 -0.387581
vn -0.880375 -0.100019 -0.463611
vn -0.998433 -0.050167 -0.024781
vn -0.238159 0.967898 -0.080332
vn 0.761569 0.526755 0.377546
vn 0.550122 0.317582 0.772339
vn -0.865330 0.500569 0.025199
vn -0.867349 0.493227 0.066577
vn 0.732625 -0.679735 0.034942
vn 0.749165 -0.662376 -0.003101
vn 0.546415 0.299967 0.781953
vn 0.639130 -0.752209 0.160293
vn -0.016251 -0.640069 -0.768146
vn -0.152360 -0.642213 -0.751231
vn -0.865054 0.499179 0.050025
vn 0.894222 -0.445671 0.041764
vn -0.920301 0.365586 0.139260
vn -0.730399 0.212283 -0.649194
vn 0.179774 -0.487654 -0.854327
vn 0.167173 -0.375866 0.911470
vn 0.782512 -0.621554 -0.036677
vn -0.035181 -0.442724 -0.895968
vn 0.896960 0.080910 0.434644
vn 0.899905 0.063899 0.431379
vn -0.880503 0.465649 0.088805
vn 0.569108 0.311536 0.760961
vn 0.671684 -0.736455 0.080459
vn -0.087129 -0.758145 -0.646238
vn -0.976081 0.073979 -0.204432
vn 0.572007 0.645087 -0.506627
vn 0.039639 0.965761 -0.256386
vn 0.922313 -0.038202 0.384552
vn 0.910475 -0.110643 0.398490
vn -0.445841 -0.390005 0.805681
vn -0.477975 -0.352848 0.804387
vn 0.942900 -0.147631 0.298570
vn -0.355399 0.440001 0.824676
vn 0.441522 -0.696831 -0.565230
vn 0.934460 0.036935 0.354149
vn 0.932167 -0.124264 0.340034
vn -0.135081 -0.075100 0.987984
vn 0.946889 0.088207 0.309225
vn -0.432728 -0.257026 0.864109
vn -0.243171 0.937015 -0.250742
vn 0.957791 0.166488 0.234348
vn -0.299238 0.151242 0.942116
vn 0.978942 0.077835 0.188718
vn 0.404680 -0.216803 -0.888386
vn 0.210281 -0.378880 -0.901239
vn -0.449946 -0.419024 -0.788649
vn -0.868894 -0.429003 -0.246942
vn -0.340479 0.077265 0.937072
vn -0.972063 -0.155147 0.176136
vn 0.396186 0.747500 -0.533180
vn 0.915697 -0.074676 0.394869
vn -0.451628 -0.601609 0.658862
vn -0.953829 0.280350 -0.107767
vn 0.509605 0.568576 -0.645774
vn -0.978596 0.085067 -0.187386
vn -0.977316 0.087444 -0.192893
vn 0.572248 0.561664 -0.597551
vn 0.871926 -0.460054 0.167618
vn 0.986023 -0.147802 0.076900
vn -0.552060 -0.700338 0.452500
vn -0.378160 -0.805313 0.456580
vn -0.948859 0.314111 0.031635
vn -0.433443 0.767889 -0.471671
vn -0.903856 -0.423512 -0.060674
vn 0.770437 0.563739 -0.297699
vn 0.156554 -0.500949 -0.851200
vn 0.174423 -0.499524 -0.848559
vn 0.645434 0.411763 0.643324
vn 0.417924 0.892694 -0.168634
vn -0.536157 -0.301098 0.788591
vn 0.643726 0.401415 0.651524
vn -0.666331 -0.253942 0.701083
vn 0.157418 -0.503444 -0.849567
vn 0.157980 -0.503615 -0.849361
vn 0.519405 0.516677 0.680634
vn 0.432371 -0.427106 0.794126
vn -0.674482 -0.058982 0.735931
vn 0.250003 -0.865477 -0.434106
vn -0.362202 0.179059 -0.914739
vn 0.235175 -0.189144 -0.953371
vn -0.820440 -0.112597 0.560535
vn -0.842350 -0.427462 -0.328210
vn -0.247253 -0.369292 -0.895818
vn -0.257085 -0.363804 -0.895295
vn -0.876188 -0.193637 -0.441360
vn -0.142734 0.366307 -0.919482
vn -0.829088 -0.358687 -0.428901
vn 0.478260 -0.844035 -0.242638
vn 0.588642 -0.758521 -0.279545
vn -0.047738 -0.260089 -0.964404
vn 0.122569 -0.788276 0.602990
vn 0.832917 -0.121352 0.539928
vn -0.069105 0.198990 0.977562
vn -0.066013 0.191088 0.979351
vn -0.890142 -0.136930 0.434624
vn -0.357100 0.183642 -0.915836
vn -0.260653 -0.604038 0.753126
vn -0.642494 -0.702475 0.306155
vn -0.202155 -0.043682 0.978379
vn -0.304087 -0.069320 0.950119
vn -0.675044 -0.300273 0.673907
vn 0.080955 -0.258201 0.962693
vn -0.031466 -0.320034 0.946883
vn -0.257053 0.788054 -0.559370
vn -0.356314 0.189505 -0.914947
vn -0.298752 -0.601092 0.741239
vn -0.232858 0.970900 -0.055944
vn -0.007112 -0.426170 0.904615
vn -0.278593 0.806272 -0.521835
vn -0.185022 -0.354557 0.916546
vn -0.031722 0.124977 0.991652
vn -0.097973 0.693044 0.714207
vn 0.110872 0.079221 0.990672
vn 0.173854 -0.035552 0.984129
vn -0.365531 0.266436 0.891851
vn -0.625043 0.778560 -0.056254
vn -0.487968 0.766642 -0.417310
vn -0.150777 0.925718 -0.346860
vn -0.002440 0.607858 0.794042
vn -0.200749 0.979489 -0.017339
vn -0.592789 0.805352 0.003210
vn -0.242836 0.866600 -0.435930
vn -0.182079 0.893914 -0.409592
vn -0.251824 0.825265 -0.505493
vn 0.191250 0.732165 0.653726
vn -0.760870 0.201357 0.616873
vn -0.879849 0.270407 -0.390826
vn -0.302506 -0.056106 -0.951495
vn 0.243047 0.276839 0.929671
vn 0.009154 0.621975 0.782984
vn -0.823858 0.319624 0.468079
vn -0.613511 0.632856 0.472331
vn -0.291555 0.845672 0.447029
vn -0.969617 0.096101 -0.224960
vn -0.474923 0.126658 -0.870865
vn -0.900026 0.201197 -0.386618
vn -0.765479 -0.067396 -0.639922
vn -0.456988 -0.095560 -0.884324
vn 0.032704 -0.345602 -0.937811
vn 0.022850 0.125107 0.991880
vn -0.164147 0.657376 0.735468
vn -0.647822 0.557178 -0.519499
vn -0.889002 -0.000038 -0.457904
vn 0.108826 -0.125403 0.986119
vn -0.576401 0.705746 -0.411928
vn -0.312779 0.627679 0.712874
vn -0.744872 0.036213 -0.666224
vn -0.848529 0.501540 0.168692
vn 0.403769 -0.441152 -0.801471
vn -0.713383 0.377801 -0.590213
vn -0.276220 0.117714 -0.953858
vn -0.732247 -0.130363 0.668445
vn -0.340289 -0.337582 0.877634
vn 0.024218 -0.162539 0.986405
vn -0.925480 0.064939 0.373190
vn -0.999555 0.024807 0.016553
vn -0.975221 0.057559 -0.213613
vn -0.467673 -0.857533 0.214286
vn -0.008826 -0.045136 0.998942
vn -0.831132 -0.013937 0.555901
vn -0.908715 0.104137 0.404217
vn 0.287637 0.745363 0.601415
vn -0.277826 0.163178 0.946671
vn -0.505449 0.241211 0.828456
vn -0.521200 0.252140 0.815338
vn -0.382752 -0.338012 0.859796
vn -0.220480 -0.452649 0.864001
vn 0.185584 0.780045 0.597568
vn 0.164935 -0.283620 0.944646
vn -0.267860 -0.800101 0.536739
vn -0.386184 -0.128484 0.913429
vn -0.634397 -0.754420 -0.168493
vn -0.772485 -0.034646 0.634088
vn -0.220938 -0.966444 -0.131044
vn -0.346764 -0.017566 0.937788
vn -0.687293 0.031418 0.725700
vn -0.555621 -0.822714 -0.120112
vn -0.174330 -0.170076 0.969888
vn -0.966039 0.258367 0.003886
vn -0.904407 0.411077 -0.114300
vn -0.718490 -0.324293 0.615310
vn -0.107833 -0.618469 0.778376
vn -0.745343 -0.148041 0.650036
vn 0.028532 -0.531569 0.846534
vn -0.299642 0.630628 0.715907
vn -0.907679 0.152808 0.390857
vn -0.748738 0.492735 0.443399
vn -0.599048 0.625617 0.499745
vn -0.303701 0.154676 0.940128
vn -0.540979 0.642641 -0.542545
vn -0.414773 0.715172 -0.562576
vn 0.019090 0.992029 0.124556
vn 0.109676 0.992813 -0.047893
vn -0.780534 -0.220936 0.584768
vn -0.337956 0.593790 0.730205
vn -0.859448 -0.248577 -0.446720
vn -0.894533 0.430952 -0.118704
vn 0.993588 0.061444 -0.094908
vn -0.813228 0.290758 0.504103
vn -0.857248 -0.015764 -0.514662
vn 0.314821 -0.703438 -0.637231
vn 0.485464 -0.041606 0.873266
vn 0.779700 0.494913 -0.383575
vn 0.039976 0.473703 -0.879777
vn 0.001697 -0.398224 0.917287
vn -0.440388 -0.051118 -0.896351
vn -0.756529 -0.389549 0.525276
vn -0.975944 -0.139385 -0.167643
vn -0.749528 0.148616 0.645074
vn -0.293240 -0.003789 0.956031
vn 0.863446 0.325857 0.385070
vn 0.598470 0.798239 -0.068182
vn 0.104549 -0.684888 -0.721109
vn 0.153477 -0.645942 -0.747799
vn -0.913851 0.090269 -0.395889
vn -0.920973 -0.156827 -0.356672
vn -0.792443 0.340241 0.506232
vn -0.811243 0.348871 0.469227
vn 0.207890 0.522554 0.826873
vn 0.831187 -0.490132 0.262485
vn 0.295522 -0.593685 -0.748468
vn 0.167436 -0.797645 -0.579420
vn -0.952193 -0.169681 -0.254040
vn -0.870475 -0.048690 -0.489798
vn -0.776589 0.462965 0.427284
vn -0.769130 0.449286 0.454512
vn 0.608865 0.547536 0.574011
vn 0.186655 0.394533 0.899724
vn 0.820384 -0.044213 0.570101
vn -0.932865 0.024689 -0.359379
vn 0.160427 -0.634713 -0.755911
vn 0.938304 -0.242016 0.247009
vn 0.268910 0.259339 0.927594
vn 0.906965 -0.278550 0.315950
vn 0.095062 0.200023 0.975169
vn -0.869776 0.045308 -0.491363
vn 0.219339 -0.643653 -0.733213
vn 0.843838 0.499181 -0.196864
vn 0.811773 0.462750 -0.356211
vn 0.389226 -0.188512 -0.901647
vn -0.213231 -0.419475 -0.882368
vn -0.711218 -0.696299 -0.096628
vn -0.715923 -0.677596 -0.168283
vn -0.484197 -0.433091 0.760253
vn -0.454692 -0.381675 0.804723
vn 0.759672 0.487847 0.430004
vn 0.513202 0.498432 0.698705
vn -0.441712 -0.896689 -0.028985
vn -0.142958 -0.542341 0.827906
vn -0.572462 0.341826 0.745280
vn -0.571500 0.267548 0.775761
vn -0.499638 0.288788 0.816678
vn -0.371213 0.004582 0.928537
vn -0.280373 0.020226 0.959678
vn -0.738856 -0.671682 -0.054168
vn -0.629432 -0.741881 -0.231145
vn 0.770471 0.452794 -0.448723
vn 0.733781 -0.508314 -0.450757
vn 0.887725 0.317495 -0.333379
vn 0.856448 0.308401 -0.413988
vn 0.980975 0.174259 -0.085570
vn 0.105754 0.875803 0.470941
vn -0.788931 0.103071 0.605775
vn -0.481443 -0.194512 0.854621
vn 0.855865 0.404549 0.322234
vn 0.861766 0.371287 0.345694
vn -0.613070 -0.723280 -0.317822
vn -0.635894 -0.692387 -0.340940
vn -0.283362 -0.118628 0.951648
vn -0.618011 -0.733402 -0.283169
vn -0.264300 -0.090899 -0.960147
vn 0.274375 -0.023556 -0.961334
vn 0.810483 0.523105 0.263588
vn -0.804785 -0.560478 -0.195411
vn 0.850929 0.414421 0.322761
vn 0.703882 0.648282 -0.290310
vn 0.125248 0.317596 -0.939918
vn -0.242979 -0.762403 0.599752
vn -0.680677 -0.644501 -0.348277
vn -0.072602 0.263212 -0.962002
vn -0.846912 -0.321213 0.423749
vn -0.847582 -0.334033 0.412343
vn 0.878587 0.332791 0.342541
vn -0.166501 -0.150472 0.974493
vn -0.666345 -0.672295 -0.322496
vn -0.041762 -0.190528 -0.980793
vn 0.779053 0.063277 -0.623756
vn -0.631987 0.520919 -0.573791
vn -0.616218 0.531712 -0.580997
vn -0.711768 0.073955 0.698511
vn -0.657785 -0.074102 0.749552
vn 0.726161 -0.342579 0.596095
vn 0.658414 -0.405054 0.634367
vn -0.794405 -0.081171 0.601940
vn 0.687325 0.039330 0.725284
vn -0.674742 -0.238471 -0.698466
vn -0.614328 -0.127947 0.778608
vn -0.489634 0.263507 0.831157
vn 0.733522 0.170900 0.657828
vn -0.722787 0.298741 0.623164
vn 0.651347 -0.353169 0.671580
vn 0.742956 0.135833 -0.655412
vn -0.700652 0.373280 0.608070
vn 0.779145 0.188651 0.597782
vn -0.641341 0.466117 0.609440
vn -0.813724 -0.366254 -0.451345
vn -0.726831 -0.481936 -0.489341
vn -0.133047 -0.669948 -0.730389
vn 0.430079 -0.699473 -0.570762
vn 0.778590 0.190329 0.597974
vn 0.891343 -0.348320 -0.290140
vn -0.643300 0.556668 -0.525630
vn -0.701739 0.137359 0.699067
vn 0.703440 -0.259587 0.661655
vn 0.784625 0.164458 -0.597760
vn -0.840355 0.296497 -0.453754
vn 0.830547 -0.084685 -0.550473
vn 0.730793 -0.084824 -0.677309
vn -0.695933 0.222308 -0.682830
vn -0.691389 -0.206628 0.692305
vn -0.827457 -0.029189 0.560769
vn 0.718194 -0.450211 0.530573
vn 0.697163 -0.462116 0.548100
vn 0.790769 0.191211 -0.581484
vn -0.002669 0.184466 -0.982835
vn 0.927853 -0.348086 -0.133886
vn -0.958695 0.164089 -0.232332
vn -0.256562 -0.964698 -0.059447
vn -0.232271 -0.969978 -0.072063
vn -0.465307 0.801932 0.374692
vn -0.662040 0.492884 -0.564596
vn 0.822083 0.386175 0.418387
vn -0.537052 0.805175 0.251533
vn 0.908334 0.338109 0.246193
vn -0.219349 -0.973296 0.067682
vn -0.247226 -0.963719 0.100624
vn -0.458721 0.878440 0.133863
vn -0.031073 0.427729 0.903373
vn 0.851056 0.520719 0.067500
vn -0.524228 -0.850678 0.039131

f 1/1/1 2/2/1 3/3/1
f 4/4/2 5/5/2 6/6/2
f 4/4/3 6/7/3 7/8/3
f 5/9/4 8/10/4 9/11/4
f 10/12/5 11/13/5 9/14/5
f 6/6/6 11/15/6 7/8/6
f 6/6/7 12/16/7 11/13/7
f 12/17/8 5/5/8 9/14/8
f 6/6/9 5/5/9 12/17/9
f 11/13/10 12/18/10 9/19/10
f 13/20/11 14/21/11 15/22/11
f 14/21/12 13/20/12 16/23/12
f 16/24/13 13/20/13 17/25/13
f 15/22/14 14/21/14 18/26/14
f 14/21/15 19/27/15 18/26/15
f 18/26/16 20/28/16 21/29/16
f 18/26/17 19/27/17 20/28/17
f 20/28/18 3/30/18 21/29/18
f 5/9/19 22/31/19 23/32/19
f 24/33/20 25/34/20 26/35/20
f 27/36/21 25/34/21 9/37/21
f 28/38/22 27/39/22 29/40/22
f 30/41/23 25/34/23 24/33/23
f 25/34/24 30/41/24 10/42/24
f 30/41/25 24/33/25 31/43/25
f 24/33/26 26/44/26 32/45/26
f 33/46/27 34/47/27 5/9/27
f 4/4/28 22/31/28 5/9/28
f 26/35/29 25/34/29 27/39/29
f 33/46/30 35/48/30 34/47/30
f 32/45/31 26/35/31 28/38/31
f 23/32/32 33/46/32 5/9/32
f 26/35/33 27/39/33 28/38/33
f 28/38/34 29/40/34 36/49/34
f 35/50/35 37/51/35 29/40/35
f 28/38/36 38/52/36 32/45/36
f 36/49/37 38/52/37 28/38/37
f 36/49/38 37/53/38 39/54/38
f 39/55/39 37/56/39 40/57/39
f 41/58/40 42/59/40 39/55/40
f 39/55/41 40/57/41 41/58/41
f 36/49/42 29/40/42 37/51/42
f 37/56/43 35/48/43 33/46/43
f 37/56/44 33/46/44 40/57/44
f 40/57/45 33/46/45 43/60/45
f 40/57/46 43/60/46 41/58/46
f 33/46/47 23/32/47 43/60/47
f 44/61/48 45/62/48 30/63/48
f 15/64/49 46/65/49 45/62/49
f 46/66/50 47/67/50 10/68/50
f 47/67/51 7/69/51 11/70/51
f 45/62/52 44/61/52 17/71/52
f 44/61/53 30/63/53 31/72/53
f 13/73/54 15/64/54 45/62/54
f 46/65/55 10/74/55 45/62/55
f 45/62/56 10/74/56 30/63/56
f 47/67/57 11/70/57 10/68/57
f 47/67/58 48/75/58 7/69/58
f 46/66/59 15/76/59 47/67/59
f 18/77/60 47/67/60 15/76/60
f 47/67/61 18/77/61 48/75/61
f 18/77/62 21/78/62 48/75/62
f 13/73/63 45/62/63 17/71/63
f 49/79/64 35/50/64 29/40/64
f 8/80/65 27/81/65 9/82/65
f 34/47/66 50/83/66 5/84/66
f 27/36/67 49/79/67 29/40/67
f 35/48/68 51/85/68 52/86/68
f 35/50/69 49/79/69 51/87/69
f 52/86/70 50/83/70 34/47/70
f 35/48/71 52/86/71 34/47/71
f 5/84/72 50/83/72 8/10/72
f 53/88/73 27/81/73 8/80/73
f 53/88/74 49/79/74 27/36/74
f 54/89/75 55/90/75 56/91/75
f 57/92/76 55/90/76 58/93/76
f 59/94/77 60/95/77 55/90/77
f 61/96/78 54/89/78 56/91/78
f 39/97/79 61/96/79 36/98/79
f 36/98/80 61/96/80 56/91/80
f 36/98/81 56/91/81 38/99/81
f 62/100/82 63/101/82 64/102/82
f 65/103/83 64/102/83 54/89/83
f 61/96/84 65/103/84 54/89/84
f 66/104/85 67/105/85 62/100/85
f 55/90/86 60/95/86 68/106/86
f 69/107/87 68/106/87 60/95/87
f 69/107/88 70/108/88 68/106/88
f 58/109/89 55/90/89 68/106/89
f 68/106/90 71/110/90 58/111/90
f 62/100/91 67/105/91 63/101/91
f 64/102/92 63/101/92 69/107/92
f 70/108/93 71/110/93 68/106/93
f 58/111/94 71/110/94 72/112/94
f 56/91/95 57/92/95 38/113/95
f 55/90/96 57/114/96 56/91/96
f 73/115/97 74/116/97 38/113/97
f 58/109/98 72/112/98 73/115/98
f 57/117/99 58/111/99 73/115/99
f 57/92/100 73/115/100 38/113/100
f 73/115/101 72/112/101 74/116/101
f 39/97/102 75/118/102 61/96/102
f 75/118/103 39/97/103 76/119/103
f 64/102/104 59/94/104 54/89/104
f 64/102/105 60/95/105 59/94/105
f 54/89/106 59/94/106 55/90/106
f 64/102/107 69/107/107 60/95/107
f 65/103/108 66/104/108 62/100/108
f 65/103/109 61/96/109 75/118/109
f 75/118/110 76/119/110 65/103/110
f 66/104/111 65/103/111 76/119/111
f 62/100/112 64/102/112 65/103/112
f 39/97/113 42/120/113 76/119/113
f 77/121/114 76/119/114 42/120/114
f 67/105/115 76/119/115 77/121/115
f 66/104/116 76/119/116 67/105/116
f 9/82/117 25/34/117 10/42/117
f 51/122/118 49/123/118 78/124/118
f 79/125/119 50/126/119 52/127/119
f 52/127/120 51/122/120 79/125/120
f 80/128/121 81/129/121 53/130/121
f 51/122/122 78/124/122 79/125/122
f 82/131/123 50/126/123 79/125/123
f 50/126/124 82/131/124 8/132/124
f 53/133/125 78/124/125 49/123/125
f 83/134/126 84/135/126 85/136/126
f 84/135/127 83/134/127 86/137/127
f 86/137/128 87/138/128 84/135/128
f 88/139/129 84/135/129 87/138/129
f 87/138/130 89/140/130 88/139/130
f 90/141/131 88/139/131 89/140/131
f 91/142/132 92/143/132 90/141/132
f 90/141/133 89/140/133 91/142/133
f 85/136/134 92/144/134 91/145/134
f 91/145/135 83/134/135 85/136/135
f 80/128/136 93/146/136 83/134/136
f 94/147/137 83/134/137 93/146/137
f 93/146/138 87/138/138 94/147/138
f 87/138/139 93/146/139 95/148/139
f 95/148/140 96/149/140 87/138/140
f 89/140/141 87/138/141 96/149/141
f 97/150/142 91/142/142 89/140/142
f 97/151/143 81/129/143 80/128/143
f 8/132/144 82/131/144 80/128/144
f 93/146/145 80/128/145 98/152/145
f 98/152/146 95/148/146 93/146/146
f 95/148/147 82/131/147 79/125/147
f 79/125/148 78/124/148 95/148/148
f 96/149/149 95/148/149 78/124/149
f 78/124/150 53/133/150 81/153/150
f 81/153/151 96/149/151 78/124/151
f 80/128/152 53/130/152 8/154/152
f 94/147/153 87/138/153 86/137/153
f 86/137/154 83/134/154 94/147/154
f 97/151/155 83/134/155 91/145/155
f 89/140/156 96/149/156 97/150/156
f 80/128/157 83/134/157 97/151/157
f 81/153/158 97/150/158 96/149/158
f 82/131/159 95/148/159 98/152/159
f 98/152/160 80/128/160 82/131/160
f 85/136/161 99/155/161 100/156/161
f 99/155/162 85/136/162 84/135/162
f 84/135/163 101/157/163 99/155/163
f 101/157/164 84/135/164 88/139/164
f 88/139/165 90/141/165 101/157/165
f 102/158/166 101/157/166 90/141/166
f 90/141/167 103/159/167 102/158/167
f 103/159/168 90/141/168 92/143/168
f 92/144/169 85/136/169 103/160/169
f 100/156/170 103/160/170 85/136/170
f 104/161/171 105/162/171 106/163/171
f 107/164/172 106/163/172 108/165/172
f 109/166/173 110/167/173 103/168/173
f 109/166/174 111/169/174 104/161/174
f 104/161/175 110/167/175 109/166/175
f 104/161/176 111/169/176 112/170/176
f 113/171/177 112/170/177 111/169/177
f 106/163/178 110/167/178 104/161/178
f 104/161/179 112/170/179 105/162/179
f 105/172/180 113/173/180 111/174/180
f 113/173/181 105/172/181 112/175/181
f 105/172/182 111/174/182 109/176/182
f 109/176/183 106/177/183 105/172/183
f 109/176/184 100/178/184 106/177/184
f 103/179/185 100/178/185 109/176/185
f 102/180/186 103/168/186 110/167/186
f 106/163/187 114/181/187 108/165/187
f 115/182/188 116/183/188 106/177/188
f 116/184/189 117/185/189 118/186/189
f 108/165/190 114/181/190 119/187/190
f 119/187/191 120/188/191 108/165/191
f 118/189/192 121/190/192 114/191/192
f 114/191/193 121/190/193 117/192/193
f 116/193/194 115/194/194 119/187/194
f 120/188/195 119/187/195 115/194/195
f 121/195/196 118/186/196 117/185/196
f 108/165/197 101/196/197 102/180/197
f 115/182/198 106/177/198 100/178/198
f 100/178/199 99/197/199 115/182/199
f 120/188/200 99/198/200 101/196/200
f 106/163/201 107/164/201 110/167/201
f 108/165/202 120/188/202 101/196/202
f 120/188/203 115/194/203 99/198/203
f 107/164/204 102/180/204 110/167/204
f 102/180/205 107/164/205 108/165/205
f 118/199/206 106/177/206 116/183/206
f 114/181/207 106/163/207 118/200/207
f 114/191/208 117/192/208 119/201/208
f 117/192/209 116/202/209 119/201/209
f 122/203/210 123/204/210 124/205/210
f 125/206/211 126/207/211 123/208/211
f 125/206/212 123/208/212 127/209/212
f 125/210/213 128/211/213 126/212/213
f 128/211/214 129/213/214 126/212/214
f 128/214/215 124/215/215 129/216/215
f 122/217/216 124/215/216 128/214/216
f 130/218/217 128/211/217 125/219/217
f 131/220/218 122/221/218 130/222/218
f 132/223/219 125/224/219 127/225/219
f 132/226/220 131/227/220 125/219/220
f 133/228/221 131/227/221 132/226/221
f 133/229/222 122/221/222 131/220/222
f 130/218/223 125/219/223 131/227/223
f 128/214/224 130/222/224 122/221/224
f 127/209/225 123/204/225 122/203/225
f 16/230/226 133/228/226 14/231/226
f 16/232/227 3/3/227 133/229/227
f 14/231/228 133/228/228 132/226/228
f 14/233/229 132/223/229 19/234/229
f 132/223/230 127/225/230 19/234/230
f 20/235/231 19/234/231 127/225/231
f 20/235/232 127/225/232 122/236/232
f 3/3/233 122/221/233 133/229/233
f 3/237/234 20/235/234 122/236/234
f 134/238/235 135/239/235 136/240/235
f 137/241/236 135/242/236 134/243/236
f 138/244/237 139/245/237 137/246/237
f 138/247/238 136/248/238 139/249/238
f 134/238/239 136/240/239 123/208/239
f 138/247/240 123/250/240 136/248/240
f 123/250/241 138/247/241 124/251/241
f 134/238/242 123/208/242 126/252/242
f 129/253/243 134/243/243 126/254/243
f 137/241/244 134/243/244 129/253/244
f 138/244/245 137/246/245 129/255/245
f 138/244/246 129/255/246 124/256/246
f 136/257/247 140/258/247 139/259/247
f 136/257/248 141/260/248 140/258/248
f 142/261/249 139/259/249 140/258/249
f 135/262/250 143/263/250 141/260/250
f 141/264/251 143/265/251 142/266/251
f 142/266/252 140/267/252 141/264/252
f 137/268/253 143/263/253 135/262/253
f 135/262/254 141/260/254 136/257/254
f 139/259/255 142/261/255 137/268/255
f 137/268/256 144/269/256 143/263/256
f 137/268/257 142/261/257 144/269/257
f 143/265/258 145/270/258 146/271/258
f 146/271/259 142/266/259 143/265/259
f 143/263/260 144/269/260 145/272/260
f 144/269/261 146/273/261 145/272/261
f 146/273/262 144/269/262 142/261/262
f 3/274/263 16/275/263 17/276/263
f 147/5/264 4/4/264 148/6/264
f 148/7/265 4/4/265 7/8/265
f 149/10/266 147/9/266 150/11/266
f 151/13/267 152/12/267 150/14/267
f 151/15/268 148/6/268 7/8/268
f 153/16/269 148/6/269 151/13/269
f 147/5/270 153/17/270 150/14/270
f 147/5/271 148/6/271 153/17/271
f 153/18/272 151/13/272 150/19/272
f 154/21/273 155/20/273 156/22/273
f 155/20/274 154/21/274 157/23/274
f 155/20/275 157/24/275 17/25/275
f 154/21/276 156/22/276 158/26/276
f 159/27/277 154/21/277 158/26/277
f 160/28/278 158/26/278 21/29/278
f 159/27/279 158/26/279 160/28/279
f 3/30/280 160/28/280 21/29/280
f 22/31/281 147/9/281 23/32/281
f 161/34/282 24/33/282 162/35/282
f 161/34/283 163/36/283 150/37/283
f 163/39/284 164/38/284 165/40/284
f 161/34/285 166/41/285 24/33/285
f 166/41/286 161/34/286 152/42/286
f 24/33/287 166/41/287 31/43/287
f 162/44/288 24/33/288 32/45/288
f 167/47/289 168/46/289 147/9/289
f 22/31/290 4/4/290 147/9/290
f 161/34/291 162/35/291 163/39/291
f 169/48/292 168/46/292 167/47/292
f 162/35/293 32/45/293 164/38/293
f 168/46/294 23/32/294 147/9/294
f 163/39/295 162/35/295 164/38/295
f 165/40/296 164/38/296 170/49/296
f 171/51/297 169/50/297 165/40/297
f 38/52/298 164/38/298 32/45/298
f 38/52/299 170/49/299 164/38/299
f 171/53/300 170/49/300 172/54/300
f 171/56/301 172/55/301 173/57/301
f 42/59/302 41/58/302 172/55/302
f 173/57/303 172/55/303 41/58/303
f 165/40/304 170/49/304 171/51/304
f 169/48/305 171/56/305 168/46/305
f 168/46/306 171/56/306 173/57/306
f 168/46/307 173/57/307 43/60/307
f 43/60/308 173/57/308 41/58/308
f 23/32/309 168/46/309 43/60/309
f 174/62/310 44/61/310 166/63/310
f 175/65/311 156/64/311 174/62/311
f 176/67/312 175/66/312 152/68/312
f 7/69/313 176/67/313 151/70/313
f 44/61/314 174/62/314 17/71/314
f 166/63/315 44/61/315 31/72/315
f 156/64/316 155/73/316 174/62/316
f 152/74/317 175/65/317 174/62/317
f 152/74/318 174/62/318 166/63/318
f 151/70/319 176/67/319 152/68/319
f 48/75/320 176/67/320 7/69/320
f 156/76/321 175/66/321 176/67/321
f 176/67/322 158/77/322 156/76/322
f 158/77/323 176/67/323 48/75/323
f 21/78/324 158/77/324 48/75/324
f 174/62/325 155/73/325 17/71/325
f 169/50/326 177/79/326 165/40/326
f 163/81/327 149/80/327 150/82/327
f 178/83/328 167/47/328 147/84/328
f 177/79/329 163/36/329 165/40/329
f 179/85/330 169/48/330 180/86/330
f 177/79/331 169/50/331 179/87/331
f 178/83/332 180/86/332 167/47/332
f 180/86/333 169/48/333 167/47/333
f 178/83/334 147/84/334 149/10/334
f 163/81/335 181/88/335 149/80/335
f 177/79/336 181/88/336 163/36/336
f 182/90/337 183/89/337 184/91/337
f 182/90/338 185/92/338 186/93/338
f 187/95/339 188/94/339 182/90/339
f 183/89/340 189/96/340 184/91/340
f 189/96/341 172/97/341 170/98/341
f 189/96/342 170/98/342 184/91/342
f 184/91/343 170/98/343 38/99/343
f 63/101/344 190/100/344 191/102/344
f 191/102/345 192/103/345 183/89/345
f 192/103/346 189/96/346 183/89/346
f 67/105/347 193/104/347 190/100/347
f 187/95/348 182/90/348 194/106/348
f 194/106/349 69/107/349 187/95/349
f 70/108/350 69/107/350 194/106/350
f 182/90/351 186/109/351 194/106/351
f 71/110/352 194/106/352 186/111/352
f 67/105/353 190/100/353 63/101/353
f 63/101/354 191/102/354 69/107/354
f 71/110/355 70/108/355 194/106/355
f 71/110/356 186/111/356 72/112/356
f 185/92/357 184/91/357 38/113/357
f 185/114/358 182/90/358 184/91/358
f 74/116/359 195/115/359 38/113/359
f 72/112/360 186/109/360 195/115/360
f 186/111/361 185/117/361 195/115/361
f 195/115/362 185/92/362 38/113/362
f 72/112/363 195/115/363 74/116/363
f 196/118/364 172/97/364 189/96/364
f 172/97/365 196/118/365 197/119/365
f 188/94/366 191/102/366 183/89/366
f 187/95/367 191/102/367 188/94/367
f 188/94/368 183/89/368 182/90/368
f 69/107/369 191/102/369 187/95/369
f 193/104/370 192/103/370 190/100/370
f 189/96/371 192/103/371 196/118/371
f 197/119/372 196/118/372 192/103/372
f 192/103/373 193/104/373 197/119/373
f 191/102/374 190/100/374 192/103/374
f 42/120/375 172/97/375 197/119/375
f 197/119/376 77/121/376 42/120/376
f 197/119/377 67/105/377 77/121/377
f 197/119/378 193/104/378 67/105/378
f 161/34/379 150/82/379 152/42/379
f 177/123/380 179/122/380 198/124/380
f 178/126/381 199/125/381 180/127/381
f 179/122/382 180/127/382 199/125/382
f 200/129/383 201/128/383 181/130/383
f 198/124/384 179/122/384 199/125/384
f 178/126/385 202/131/385 199/125/385
f 202/131/386 178/126/386 149/132/386
f 198/124/387 181/133/387 177/123/387
f 203/135/388 204/134/388 205/136/388
f 204/134/389 203/135/389 206/137/389
f 207/138/390 206/137/390 203/135/390
f 203/135/391 208/139/391 207/138/391
f 209/140/392 207/138/392 208/139/392
f 208/139/393 210/141/393 209/140/393
f 211/143/394 212/142/394 210/141/394
f 209/140/395 210/141/395 212/142/395
f 211/144/396 205/136/396 212/145/396
f 204/134/397 212/145/397 205/136/397
f 213/146/398 201/128/398 204/134/398
f 204/134/399 214/147/399 213/146/399
f 207/138/400 213/146/400 214/147/400
f 213/146/401 207/138/401 215/148/401
f 216/149/402 215/148/402 207/138/402
f 207/138/403 209/140/403 216/149/403
f 212/142/404 217/150/404 209/140/404
f 200/129/405 217/151/405 201/128/405
f 202/131/406 149/132/406 201/128/406
f 201/128/407 213/146/407 218/152/407
f 215/148/408 218/152/408 213/146/408
f 202/131/409 215/148/409 199/125/409
f 198/124/410 199/125/410 215/148/410
f 215/148/411 216/149/411 198/124/411
f 181/133/412 198/124/412 200/153/412
f 216/149/413 200/153/413 198/124/413
f 181/130/414 201/128/414 149/154/414
f 207/138/415 214/147/415 206/137/415
f 204/134/416 206/137/416 214/147/416
f 204/134/417 217/151/417 212/145/417
f 216/149/418 209/140/418 217/150/418
f 204/134/419 201/128/419 217/151/419
f 217/150/420 200/153/420 216/149/420
f 215/148/421 202/131/421 218/152/421
f 201/128/422 218/152/422 202/131/422
f 219/155/423 205/136/423 220/156/423
f 205/136/424 219/155/424 203/135/424
f 221/157/425 203/135/425 219/155/425
f 203/135/426 221/157/426 208/139/426
f 210/141/427 208/139/427 221/157/427
f 221/157/428 222/158/428 210/141/428
f 223/159/429 210/141/429 222/158/429
f 210/141/430 223/159/430 211/143/430
f 205/136/431 211/144/431 223/160/431
f 223/160/432 220/156/432 205/136/432
f 224/162/433 225/161/433 226/163/433
f 226/163/434 227/164/434 228/165/434
f 229/167/435 230/166/435 223/168/435
f 231/169/436 230/166/436 225/161/436
f 229/167/437 225/161/437 230/166/437
f 231/169/438 225/161/438 232/170/438
f 232/170/439 233/171/439 231/169/439
f 229/167/440 226/163/440 225/161/440
f 232/170/441 225/161/441 224/162/441
f 233/173/442 224/172/442 231/174/442
f 224/172/443 233/173/443 232/175/443
f 231/174/444 224/172/444 230/176/444
f 226/177/445 230/176/445 224/172/445
f 220/178/446 230/176/446 226/177/446
f 220/178/447 223/179/447 230/176/447
f 223/168/448 222/180/448 229/167/448
f 234/181/449 226/163/449 228/165/449
f 235/183/450 236/182/450 226/177/450
f 237/185/451 235/184/451 238/186/451
f 234/181/452 228/165/452 239/187/452
f 240/188/453 239/187/453 228/165/453
f 241/190/454 238/189/454 234/191/454
f 241/190/455 234/191/455 237/192/455
f 236/194/456 235/193/456 239/187/456
f 239/187/457 240/188/457 236/194/457
f 238/186/458 241/195/458 237/185/458
f 221/196/459 228/165/459 222/180/459
f 226/177/460 236/182/460 220/178/460
f 219/197/461 220/178/461 236/182/461
f 219/198/462 240/188/462 221/196/462
f 227/164/463 226/163/463 229/167/463
f 240/188/464 228/165/464 221/196/464
f 236/194/465 240/188/465 219/198/465
f 222/180/466 227/164/466 229/167/466
f 227/164/467 222/180/467 228/165/467
f 226/177/468 238/199/468 235/183/468
f 226/163/469 234/181/469 238/200/469
f 237/192/470 234/191/470 239/201/470
f 235/202/471 237/192/471 239/201/471
f 242/204/472 243/203/472 244/205/472
f 245/207/473 246/206/473 242/208/473
f 242/208/474 246/206/474 247/209/474
f 248/211/475 246/210/475 245/212/475
f 249/213/476 248/211/476 245/212/476
f 244/215/477 248/214/477 249/216/477
f 244/215/478 243/217/478 248/214/478
f 248/211/479 250/218/479 246/219/479
f 243/221/480 251/220/480 250/222/480
f 246/224/481 252/223/481 247/225/481
f 251/227/482 252/226/482 246/219/482
f 251/227/483 253/228/483 252/226/483
f 243/221/484 253/229/484 251/220/484
f 246/219/485 250/218/485 251/227/485
f 250/222/486 248/214/486 243/221/486
f 242/204/487 247/209/487 243/203/487
f 253/228/488 157/230/488 154/231/488
f 3/3/489 157/232/489 253/229/489
f 253/228/490 154/231/490 252/226/490
f 252/223/491 154/233/491 159/234/491
f 247/225/492 252/223/492 159/234/492
f 159/234/493 160/235/493 247/225/493
f 247/225/494 160/235/494 243/236/494
f 243/221/495 3/3/495 253/229/495
f 160/235/496 3/237/496 243/236/496
f 254/239/497 255/238/497 256/240/497
f 254/242/498 257/241/498 255/243/498
f 258/245/499 259/244/499 257/246/499
f 256/248/500 259/247/500 258/249/500
f 256/240/501 255/238/501 242/208/501
f 242/250/502 259/247/502 256/248/502
f 259/247/503 242/250/503 244/251/503
f 242/208/504 255/238/504 245/252/504
f 255/243/505 249/253/505 245/254/505
f 255/243/506 257/241/506 249/253/506
f 257/246/507 259/244/507 249/255/507
f 249/255/508 259/244/508 244/256/508
f 260/258/509 256/257/509 258/259/509
f 261/260/510 256/257/510 260/258/510
f 258/259/511 262/261/511 260/258/511
f 263/263/512 254/262/512 261/260/512
f 263/265/513 261/264/513 262/266/513
f 260/267/514 262/266/514 261/264/514
f 263/263/515 257/268/515 254/262/515
f 261/260/516 254/262/516 256/257/516
f 262/261/517 258/259/517 257/268/517
f 264/269/518 257/268/518 263/263/518
f 262/261/519 257/268/519 264/269/519
f 265/270/520 263/265/520 266/271/520
f 262/266/521 266/271/521 263/265/521
f 264/269/522 263/263/522 265/272/522
f 266/273/523 264/269/523 265/272/523
f 264/269/524 266/273/524 262/261/524
f 157/275/525 3/274/525 17/276/525

o 
usemtl axe.001
s off

v -0.302170 13.266040 40.075069
v -1.676490 16.267231 33.538639
v -4.319030 6.373320 37.007042
v -4.339160 8.927020 34.848789
v -5.176170 5.103340 35.512341
v -5.196290 7.657040 33.354088
v -7.438600 2.692220 27.630379
v -6.142760 9.649710 25.750259
v -0.262930 8.286680 44.283329
v -7.399360 -2.287120 31.838650
v -1.558770 1.329200 46.163448
v -4.298910 3.819610 39.165298
v -5.156040 2.549630 37.670589
v -6.025040 -5.288320 38.375069
v -2.545490 8.429280 34.243122
v -2.525360 5.875570 36.401371
v -3.402620 7.159300 32.748428
v -3.382500 4.605590 34.906670
v -2.505240 3.321880 38.559620
v -3.362370 2.051880 37.064930
v -4.539990 34.409958 13.312000
v -5.397120 33.139980 11.817310
v -3.603450 32.642231 11.211639
v -3.851510 37.602089 14.356411
v -3.788260 -2.441950 42.660049
v -5.604850 59.708771 -10.638840
v -3.900340 59.217991 -11.296650
v -2.954060 60.480961 -9.749720
v -4.747740 60.978790 -9.144160

vt 0.033358 0.643728
vt 0.190411 0.923560
vt 0.402692 0.503812
vt 0.402692 0.647326
vt 0.408249 0.287497
vt 0.408249 0.367848
vt 0.492649 0.287497
vt 0.492649 0.367848
vt 0.403043 0.503812
vt 0.403044 0.647326
vt 0.033710 0.643728
vt 0.190763 0.923560
vt 0.033358 0.363896
vt 0.033710 0.363896
vt 0.190411 0.084064
vt 0.402692 0.360297
vt 0.408249 0.207147
vt 0.492649 0.207147
vt 0.403043 0.360297
vt 0.190763 0.084064
vt 0.408248 1.036942
vt 0.492649 1.036942
vt 0.483600 0.371280
vt 0.402049 0.371280
vt 0.402049 1.040375
vt 0.483600 1.040375
vt 0.450449 0.037941
vt 0.483600 0.210579
vt 0.402049 0.210579
vt 0.442825 0.041374
vt 0.000000 1.000000

vn -0.869603 0.353208 0.345014
vn -0.810436 0.374408 0.450568
vn -0.916303 0.254274 0.309410
vn -0.958849 0.178820 0.220526
vn -0.957484 0.226584 0.178560
vn -0.859643 0.325810 0.393525
vn -0.857177 0.276983 0.434198
vn -0.980417 0.122555 0.154154
vn -0.950874 0.151974 0.269707
vn 0.980417 -0.122554 -0.154153
vn 0.950875 -0.151974 -0.269706
vn 0.916303 -0.254274 -0.309410
vn 0.857177 -0.276983 -0.434197
vn 0.859643 -0.325810 -0.393525
vn 0.958849 -0.178820 -0.220526
vn 0.957484 -0.226585 -0.178560
vn 0.869602 -0.353208 -0.345016
vn 0.810438 -0.374407 -0.450565
vn -0.331473 -0.047939 -0.942246
vn 0.324566 0.924092 0.201769
vn 0.331470 0.047939 0.942247
vn -0.324563 -0.924093 -0.201771
vn 0.998867 0.047432 0.003982
vn 0.399580 0.528488 0.749024
vn -0.971349 0.148895 0.185235
vn -0.400438 -0.593320 -0.698299
vn -0.906749 0.146697 0.395330
vn 0.908405 -0.357006 -0.217591
vn -0.394988 -0.701352 -0.593371
vn 0.396799 0.471811 0.787366
vn -0.416549 -0.589506 -0.692077
vn -0.660114 0.519818 0.542253
vn 0.995991 -0.067464 -0.058743
vn -0.916306 0.254314 0.309367
vn 0.001227 0.774250 -0.632879
vn -0.025176 0.768888 -0.638887

f 267/277/526 268/278/526 269/279/526
f 270/280/527 269/279/527 268/278/527
f 269/281/528 270/282/528 271/283/528
f 272/284/528 271/283/528 270/282/528
f 271/285/529 272/286/529 273/287/529
f 274/288/530 273/287/530 272/286/530
f 275/289/531 267/277/531 269/279/531
f 273/287/529 276/290/529 271/285/529
f 277/291/532 275/289/532 278/292/532
f 269/279/531 278/292/531 275/289/531
f 278/293/528 269/281/528 279/294/528
f 271/283/528 279/294/528 269/281/528
f 279/295/533 271/285/533 280/296/533
f 276/290/534 280/296/534 271/285/534
f 281/280/535 268/278/535 282/279/535
f 267/277/536 282/279/536 268/278/536
f 283/284/537 281/282/537 284/283/537
f 282/281/537 284/283/537 281/282/537
f 274/288/538 283/286/538 273/287/538
f 284/285/539 273/287/539 283/286/539
f 282/279/540 267/277/540 275/289/540
f 273/287/539 284/285/539 276/290/539
f 282/279/540 275/289/540 285/292/540
f 277/291/541 285/292/541 275/289/541
f 284/283/537 282/281/537 286/294/537
f 285/293/537 286/294/537 282/281/537
f 276/290/542 284/285/542 280/296/542
f 286/295/543 280/296/543 284/285/543
f 270/280/544 268/278/544 281/280/544
f 283/286/545 274/288/545 272/286/545
f 279/295/546 280/296/546 286/295/546
f 285/292/547 277/291/547 278/292/547
f 272/284/528 270/282/528 287/297/528
f 287/297/528 288/298/528 272/284/528
f 281/282/537 283/284/537 289/298/537
f 289/298/548 290/297/548 281/282/548
f 270/299/549 281/300/549 290/301/549
f 290/301/550 287/302/550 270/299/550
f 283/300/551 272/299/551 288/302/551
f 288/302/551 289/301/551 283/300/551
f 278/293/552 279/294/552 291/303/552
f 286/294/553 285/293/553 291/303/553
f 279/304/554 286/305/554 291/306/554
f 285/305/555 278/304/555 291/306/555
f 289/298/556 288/297/556 292/298/556 293/307/556
f 287/297/557 290/298/557 294/297/557 295/307/557
f 290/297/558 289/298/558 293/297/558 294/307/558
f 288/298/559 287/297/559 295/298/559 292/307/559
f 294/297/560 293/298/560 295/297/560
f 292/298/561 295/297/561 293/298/561

