mtllib anim_barb_attack_new1_axe_000061.mtl

o fat
usemtl axe.001
s off

v -24.911850 60.846390 58.575348
v -27.437771 59.285271 51.881821
v -32.453529 64.678787 59.797256
v -32.116302 63.488842 56.690796
v -34.497360 65.166153 59.388691
v -34.160122 63.976204 56.282230
v -41.928539 64.904099 55.173687
v -38.087498 61.824760 49.752930
v -25.569420 63.166618 64.632507
v -42.586098 67.224342 61.230850
v -29.410450 66.245964 70.053284
v -32.790771 65.868752 62.903740
v -34.834591 66.356102 62.495171
v -40.060192 68.785461 67.924393
v -32.663349 61.714622 57.311039
v -33.000599 62.904568 60.417500
v -34.707180 62.201981 56.902481
v -35.044411 63.391930 60.008942
v -33.337830 64.094521 63.523972
v -35.381653 64.581894 63.115421
v -28.751080 51.614517 25.691929
v -30.794899 52.101879 25.283371
v -31.341961 50.327648 25.903610
v -26.225130 50.831070 25.140751
v -34.796379 67.731171 69.551308
v -27.274019 39.738079 -7.043700
v -27.851610 38.021072 -6.490530
v -25.777472 37.475979 -6.015730
v -25.230330 39.250660 -6.634570

vt 0.033358 0.643728
vt 0.190411 0.923560
vt 0.402692 0.503812
vt 0.402692 0.647326
vt 0.408249 0.287497
vt 0.408249 0.367848
vt 0.492649 0.287497
vt 0.492649 0.367848
vt 0.403043 0.503812
vt 0.403044 0.647326
vt 0.033710 0.643728
vt 0.190763 0.923560
vt 0.033358 0.363896
vt 0.033710 0.363896
vt 0.190411 0.084064
vt 0.402692 0.360297
vt 0.408249 0.207147
vt 0.492649 0.207147
vt 0.403043 0.360297
vt 0.190763 0.084064
vt 0.408248 1.036942
vt 0.492649 1.036942
vt 0.483600 0.371280
vt 0.402049 0.371280
vt 0.402049 1.040375
vt 0.483600 1.040375
vt 0.450449 0.037941
vt 0.483600 0.210579
vt 0.402049 0.210579
vt 0.442825 0.041374
vt 0.000000 1.000000

vn 0.380538 0.858474 -0.343823
vn 0.475758 0.837394 -0.269121
vn 0.279468 0.906368 -0.316851
vn 0.159037 0.927592 -0.338055
vn 0.164463 0.903172 -0.396525
vn 0.395592 0.871184 -0.290767
vn 0.388998 0.891814 -0.230972
vn 0.070446 0.934044 -0.350143
vn 0.174697 0.942265 -0.285687
vn -0.070442 -0.934043 0.350145
vn -0.174697 -0.942265 0.285687
vn -0.279469 -0.906368 0.316850
vn -0.388997 -0.891814 0.230973
vn -0.395592 -0.871184 0.290766
vn -0.159037 -0.927592 0.338055
vn -0.164463 -0.903172 0.396525
vn -0.380538 -0.858474 0.343822
vn -0.475758 -0.837394 0.269121
vn -0.724306 -0.017623 -0.689254
vn 0.840007 -0.390641 -0.376547
vn 0.724305 0.017625 0.689254
vn -0.840009 0.390636 0.376549
vn 0.142447 -0.928597 0.342662
vn 0.945099 -0.201460 0.257298
vn 0.213466 0.919825 -0.329171
vn -0.954844 0.227685 -0.190874
vn 0.262917 0.946736 -0.185920
vn -0.290692 -0.848737 0.441750
vn -0.959157 0.278582 -0.049094
vn 0.928844 -0.171622 0.328320
vn -0.950820 0.240821 -0.194798
vn 0.778533 0.597113 -0.193242
vn 0.009647 -0.927006 0.374922
vn 0.279466 0.906564 -0.316291
vn 0.117572 -0.359102 -0.925863
vn 0.106808 -0.337263 -0.935332

f 1/1/1 2/2/1 3/3/1
f 4/4/2 3/3/2 2/2/2
f 3/5/3 4/6/3 5/7/3
f 6/8/3 5/7/3 4/6/3
f 5/9/4 6/10/4 7/11/4
f 8/12/5 7/11/5 6/10/5
f 9/13/6 1/1/6 3/3/6
f 7/11/4 10/14/4 5/9/4
f 11/15/7 9/13/7 12/16/7
f 3/3/6 12/16/6 9/13/6
f 12/17/3 3/5/3 13/18/3
f 5/7/3 13/18/3 3/5/3
f 13/19/8 5/9/8 14/20/8
f 10/14/9 14/20/9 5/9/9
f 15/4/10 2/2/10 16/3/10
f 1/1/11 16/3/11 2/2/11
f 17/8/12 15/6/12 18/7/12
f 16/5/12 18/7/12 15/6/12
f 8/12/13 17/10/13 7/11/13
f 18/9/14 7/11/14 17/10/14
f 16/3/15 1/1/15 9/13/15
f 7/11/14 18/9/14 10/14/14
f 16/3/15 9/13/15 19/16/15
f 11/15/16 19/16/16 9/13/16
f 18/7/12 16/5/12 20/18/12
f 19/17/12 20/18/12 16/5/12
f 10/14/17 18/9/17 14/20/17
f 20/19/18 14/20/18 18/9/18
f 4/4/19 2/2/19 15/4/19
f 17/10/20 8/12/20 6/10/20
f 13/19/21 14/20/21 20/19/21
f 19/16/22 11/15/22 12/16/22
f 6/8/3 4/6/3 21/21/3
f 21/21/3 22/22/3 6/8/3
f 15/6/12 17/8/12 23/22/12
f 23/22/23 24/21/23 15/6/23
f 4/23/24 15/24/24 24/25/24
f 24/25/25 21/26/25 4/23/25
f 17/24/26 6/23/26 22/26/26
f 22/26/26 23/25/26 17/24/26
f 12/17/27 13/18/27 25/27/27
f 20/18/28 19/17/28 25/27/28
f 13/28/29 20/29/29 25/30/29
f 19/29/30 12/28/30 25/30/30
f 23/22/31 22/21/31 26/22/31 27/31/31
f 21/21/32 24/22/32 28/21/32 29/31/32
f 24/21/33 23/22/33 27/21/33 28/31/33
f 22/22/34 21/21/34 29/22/34 26/31/34
f 28/21/35 27/22/35 29/21/35
f 26/22/36 29/21/36 27/22/36

