mtllib anim_skel_walk_body_000048.mtl

o msked
usemtl msked.001
s off

v 4.120180 39.315231 -0.274730
v 1.826320 38.985981 -2.840720
v 0.330370 37.523670 -0.215050
v -0.044230 32.328350 1.534590
v 0.606040 35.708050 -3.695730
v 4.335870 36.688789 2.997130
v 5.048400 37.989719 -1.028190
v -0.179750 46.044342 -1.608360
v 7.840650 19.314869 1.502580
v 8.997610 16.166119 0.100180
v 7.543940 16.289351 -0.778900
v 7.465220 19.465900 2.428890
v 7.996580 15.610340 1.398370
v 6.668580 19.194540 1.988920
v 6.409230 15.717890 0.497150
v 3.482400 35.736801 0.868160
v 8.288290 3.944820 -4.129370
v 9.879721 4.296320 -4.360990
v 8.220800 0.732800 -6.719000
v 9.345540 3.793790 -3.217180
v 10.766250 1.220560 -7.020830
v 9.090020 -0.991010 1.202040
v 12.789040 -0.220730 0.491580
v -3.289550 39.896568 -0.702500
v -0.785480 40.097099 -2.273540
v -4.395920 37.423889 2.015800
v -3.938350 38.363792 -0.897690
v -6.815010 20.051031 -0.162800
v -6.571220 16.701870 -2.290340
v -8.321490 16.871170 -1.539670
v -7.501160 16.194729 0.071700
v -6.589380 19.928480 0.958320
v -5.596830 19.743561 0.567330
v -5.608500 15.986750 -0.662340
v -2.570430 36.108299 0.437390
v -9.025000 4.551240 -5.450610
v -9.164060 1.114740 -7.775800
v -10.499500 4.748270 -5.307260
v -9.739650 4.468620 -4.384370
v -11.747750 1.438460 -7.555880
v -7.854580 -0.230350 -0.066450
v -11.739901 0.255400 0.257830
v -1.864960 46.707283 4.076770
v -5.071190 43.333858 1.315680
v -0.396700 51.550861 4.475110
v 0.516290 55.634289 -2.576810
v -5.999350 55.748978 -2.397610
v -1.402220 56.462723 -0.173190
v -5.387670 54.221249 -2.879750
v -5.451230 54.284702 -0.308690
v -0.364280 55.178940 0.492310
v -3.795310 53.305977 3.318810
v -0.300960 61.155380 1.696160
v -0.114300 61.520382 -0.483390
v 2.314590 56.757488 4.491480
v -0.115850 61.116848 6.757640
v -1.632840 56.319061 4.710550
v -3.456360 60.996269 4.080660
v -2.818220 60.522453 2.173220
v 2.305130 61.032219 2.096860
v -0.694370 66.808685 6.146770
v -2.902550 66.947716 3.950100
v -2.433180 64.657478 6.702090
v -3.596180 65.474258 1.466750
v -1.084460 67.655670 1.271780
v -4.123670 64.517838 4.362700
v -0.931830 65.713440 -0.090440
v -0.372160 64.742088 7.621570
v 1.135460 56.499893 0.518780
v 5.097610 56.285969 2.511120
v 4.874020 54.811531 0.292540
v 4.456270 43.381020 1.183260
v 4.508570 54.772522 2.869240
v 3.733090 51.963390 4.231990
v 2.327220 45.378109 3.789860
v 2.949880 61.685699 3.894090
v 1.531840 65.104698 6.462630
v 1.150620 67.404922 3.705200
v 1.861030 66.115967 1.152880
v 2.918950 65.346512 3.959190
v 5.868260 46.523071 5.382340
v 7.599950 46.769352 4.516090
v 6.033410 46.719688 3.706270
v 7.013640 38.986031 10.750290
v 6.873640 38.396332 9.433910
v 6.526360 37.466141 13.843750
v 7.967650 36.809361 13.216220
v 5.046520 35.026630 12.194610
v 5.312710 34.438751 13.310500
v 7.410740 36.474560 14.672960
v 6.266930 37.202530 14.906681
v 6.645510 34.397381 11.530930
v 6.025250 45.087563 3.513310
v 4.713720 35.658119 12.875139
v -8.779000 46.261848 -5.758810
v -10.180150 47.584099 -6.318880
v -8.503660 47.084332 -6.703360
v -15.983171 39.503609 -4.861360
v -15.155840 39.545040 -3.455070
v -16.775181 36.487228 -2.152240
v -17.886610 37.507652 -1.938590
v -17.785410 35.458569 -4.637640
v -18.459150 34.699760 -3.836310
v -16.517120 35.518791 -2.379950
v -18.192671 35.558479 -2.192390
v -19.134630 36.709019 -4.571290
v -9.753380 45.563961 -7.769890
v -16.829969 35.102280 -4.379490
v -0.963990 68.077408 4.052960

vt 0.041167 0.207596
vt 0.110151 0.210653
vt 0.155860 0.150950
vt 0.155860 0.004599
vt 0.155860 0.116597
vt 0.016826 0.121516
vt 0.041418 0.161189
vt 0.949447 0.134245
vt 0.995856 0.201252
vt 0.949499 0.409452
vt 0.551298 0.441597
vt 0.512470 0.342436
vt 0.575861 0.342435
vt 0.577815 0.441679
vt 0.612137 0.441505
vt 0.706701 0.502779
vt 0.696656 0.011408
vt 0.727269 0.011327
vt 0.645747 0.342436
vt 0.083576 0.100021
vt 0.929942 0.015737
vt 0.937563 0.081772
vt 0.976707 -0.002805
vt 0.541706 0.010011
vt 0.576207 0.008899
vt 0.614144 0.010012
vt 0.986514 0.082171
vt 0.745226 0.025720
vt 0.759970 0.153483
vt 0.893974 0.060016
vt 0.657033 0.011235
vt 0.644583 0.533150
vt 0.661859 0.447959
vt 0.577221 0.401965
vt 0.605389 0.404491
vt 0.544413 0.404514
vt 0.578392 0.404501
vt 0.041816 0.207204
vt 0.110952 0.210261
vt 0.017475 0.121124
vt 0.042068 0.160797
vt 0.903194 0.201252
vt 0.551124 0.441597
vt 0.575687 0.342435
vt 0.512296 0.342436
vt 0.577641 0.441679
vt 0.611963 0.441505
vt 0.706340 0.502779
vt 0.726909 0.011327
vt 0.696296 0.011408
vt 0.645573 0.342436
vt 0.084225 0.099629
vt 0.929963 0.015912
vt 0.976727 -0.002629
vt 0.937584 0.081947
vt 0.541532 0.010012
vt 0.576032 0.008899
vt 0.613969 0.010012
vt 0.986534 0.082346
vt 0.745246 0.025895
vt 0.759991 0.153658
vt 0.893994 0.060191
vt 0.656672 0.011235
vt 0.644015 0.533150
vt 0.661498 0.447959
vt 0.381082 0.518613
vt 0.473854 0.521496
vt 0.487486 0.708873
vt 0.014451 0.867957
vt 0.259309 0.958815
vt 0.064134 0.963664
vt 0.200040 0.895796
vt 0.262305 0.513873
vt 0.313315 0.867634
vt 0.208224 0.890630
vt 0.254415 0.957943
vt 0.481717 0.903440
vt 0.370073 0.709764
vt 0.432103 0.963629
vt 0.836118 0.400333
vt 0.829257 0.200049
vt 0.882028 0.148045
vt 0.017902 0.579199
vt 0.380473 0.519374
vt 0.489377 0.709146
vt 0.475746 0.521769
vt 0.017213 0.579344
vt 0.264196 0.514145
vt 0.202500 0.892108
vt 0.781778 0.385894
vt 0.843708 0.501773
vt 0.780162 0.719667
vt 0.716616 0.501773
vt 0.693215 0.695775
vt 0.686544 0.686130
vt 0.862344 0.686130
vt 0.780162 0.918634
vt 0.727648 0.914313
vt 0.726518 0.864095
vt 0.644622 0.875516
vt 0.727648 0.913360
vt 0.668670 0.934651
vt 0.662812 0.686130
vt 0.774444 0.696650
vt 0.675135 0.851794
vt 0.754605 0.153718
vt 0.774442 0.685255
vt 0.570516 0.685255
vt 0.557177 0.894376
vt 0.780162 0.858665
vt 0.378581 0.519101
vt 0.264520 0.510851
vt 0.867108 0.695776
vt 0.833805 0.864094
vt 0.832675 0.914313
vt 0.876407 0.940368
vt 0.829816 0.915266
vt 0.903910 0.879089
vt 0.886077 0.686130
vt 0.885188 0.851794
vt 0.978370 0.902000
vt 0.970745 0.689067
vt 0.015051 0.437421
vt 0.483254 0.495410
vt 0.019651 0.499739
vt 0.485816 0.465265
vt 0.061328 0.470496
vt 0.456904 0.444276
vt 0.016578 0.361735
vt 0.497541 0.430257
vt 0.497522 0.315677
vt 0.030493 0.438014
vt 0.305714 0.121311
vt 0.311705 0.269102
vt 0.476265 0.265798
vt 0.311331 0.122120
vt 0.478135 0.269445
vt 0.474964 0.122436
vt 0.461620 0.035542
vt 0.280508 0.010562
vt 0.320302 0.079754
vt 0.253177 0.093723
vt 0.315903 0.079819
vt 0.472325 0.121974
vt 0.070278 0.285701
vt 0.920818 0.191822
vt 0.868261 0.170952
vt 0.860894 0.212089
vt 0.752496 0.179666
vt 0.862106 0.210890
vt 0.867519 0.168135
vt 0.459195 0.079729
vt 0.317137 0.081379
vt 0.314453 0.074899
vt 0.488803 0.132862
vt 0.016472 0.437484
vt 0.021071 0.499801
vt 0.484674 0.495472
vt 0.487236 0.465328
vt 0.062748 0.470559
vt 0.458325 0.444339
vt 0.023005 0.360749
vt 0.503948 0.314690
vt 0.503967 0.429270
vt 0.036919 0.437028
vt 0.076705 0.284714
vt 0.780162 0.976831
vt 0.780162 0.974925
vt 0.774444 0.978737

vn -0.410071 0.875917 0.254187
vn 0.940789 -0.325823 -0.093573
vn -0.332984 0.724486 0.603525
vn -0.557718 0.300751 0.773628
vn 0.511294 0.666468 -0.542585
vn 0.825182 0.138933 0.547515
vn 0.479264 0.497982 -0.722717
vn 0.801006 -0.049079 0.596641
vn -0.361597 0.583689 -0.727018
vn 0.920835 0.185603 0.342950
vn 0.921003 0.184223 0.343243
vn -0.775739 0.296821 -0.556890
vn 0.698274 -0.714730 0.039671
vn -0.244603 0.611693 -0.752330
vn 0.508096 0.335849 -0.793123
vn 0.913539 -0.053222 0.403253
vn 0.813034 -0.150921 0.562316
vn -0.475022 -0.386486 0.790558
vn -0.207103 0.605096 -0.768743
vn -0.993685 -0.057030 0.096632
vn 0.900418 0.402422 -0.165239
vn 0.156656 -0.961304 -0.226612
vn 0.157339 -0.961230 -0.226453
vn -0.768445 0.124052 -0.627777
vn -0.192628 0.246197 -0.949885
vn -0.641464 -0.341543 0.686929
vn 0.359762 0.780671 0.511003
vn -0.000193 0.678491 0.734608
vn -0.463185 0.614538 0.638594
vn -0.487532 -0.287538 0.824400
vn -0.361058 -0.344841 0.866442
vn -0.339068 -0.300502 -0.891477
vn 0.478599 -0.047256 -0.876761
vn 0.606134 0.221640 0.763857
vn -0.798839 0.599269 0.052273
vn 0.853505 0.432380 0.290821
vn -0.172041 0.701618 0.691473
vn 0.426466 -0.577385 -0.696243
vn -0.946180 -0.163311 0.279416
vn -0.474862 -0.031876 0.879483
vn 0.353671 0.672985 0.649621
vn -0.942198 -0.215614 -0.256464
vn 0.319641 0.632548 0.705487
vn 0.407002 0.265037 0.874131
vn -0.521591 0.321421 -0.790336
vn -0.861874 0.031168 0.506163
vn -0.087593 0.281827 -0.955459
vn -0.159158 0.125732 -0.979214
vn -0.301444 0.495532 -0.814604
vn -0.869766 0.097528 0.483731
vn 0.536972 0.479845 -0.693837
vn -0.914917 0.337733 0.221050
vn -0.964194 0.159949 0.211533
vn 0.878320 0.146252 -0.455154
vn -0.728052 -0.588582 -0.351442
vn -0.005606 0.560539 -0.828109
vn -0.343953 0.334474 -0.877396
vn -0.781735 -0.085510 0.617720
vn -0.888160 0.016848 0.459226
vn 0.281991 -0.441017 0.852048
vn 0.000003 0.561959 -0.827165
vn 0.985581 0.065640 -0.155954
vn -0.945210 0.322641 0.049800
vn -0.134857 -0.979719 -0.148202
vn -0.135343 -0.979691 -0.147943
vn 0.852998 -0.036854 -0.520611
vn -0.058583 0.262348 -0.963193
vn 0.792365 -0.342978 0.504504
vn -0.367315 0.762005 0.533318
vn 0.145885 0.700477 0.698606
vn 0.600920 0.658028 0.453756
vn 0.317807 -0.291830 0.902128
vn 0.301439 -0.297454 0.905900
vn 0.457533 -0.228113 -0.859435
vn -0.412833 0.028317 -0.910366
vn -0.540642 0.160877 0.825727
vn 0.718425 0.621104 0.313201
vn -0.919918 0.391691 -0.018113
vn 0.069846 0.539163 0.839300
vn -0.295364 -0.443087 -0.846424
vn 0.918299 -0.166975 0.358952
vn 0.356429 -0.058512 0.932488
vn 0.739975 -0.170807 -0.650586
vn 0.007867 0.947310 -0.320221
vn -0.021128 0.293189 -0.955821
vn -0.998988 -0.038192 -0.023755
vn -0.229181 0.767776 0.598327
vn -0.598364 -0.083510 0.796861
vn -0.314102 0.017149 0.949234
vn -0.445955 0.100502 0.889395
vn -0.653355 -0.142834 0.743456
vn 0.076160 -0.105654 -0.991482
vn 0.150376 0.730245 0.666430
vn 0.630981 -0.563840 0.532867
vn -0.331660 -0.347600 -0.877027
vn -0.968829 0.244128 -0.042088
vn 0.096408 -0.416248 0.904125
vn -0.616549 -0.135937 0.775493
vn 0.037785 -0.508585 -0.860182
vn -0.547855 0.594710 0.588367
vn -0.646156 0.721850 -0.247820
vn -0.214907 0.913800 0.344652
vn -0.906055 0.031155 0.422012
vn -0.901663 -0.379464 -0.207393
vn 0.065141 -0.752794 -0.655025
vn -0.947626 -0.157308 -0.277955
vn -0.954660 -0.183436 -0.234470
vn -0.746745 0.150421 -0.647878
vn 0.215704 -0.965889 -0.143281
vn -0.686794 -0.066071 -0.723843
vn -0.387344 -0.239548 0.890270
vn -0.611489 -0.177627 0.771057
vn 0.201659 0.932070 -0.300963
vn 0.476055 0.709546 -0.519535
vn 0.989829 -0.025265 0.140001
vn -0.386449 0.352117 0.852450
vn 0.917284 -0.062423 0.393312
vn 0.066636 -0.080996 0.994484
vn -0.637974 -0.582095 0.504137
vn -0.839011 -0.321510 -0.438968
vn -0.388355 0.424526 0.817899
vn 0.156103 -0.196635 0.967970
vn 0.529423 -0.123190 -0.839366
vn -0.034204 0.738967 0.672873
vn 0.477414 -0.085593 -0.874499
vn -0.020925 -0.985756 -0.166873
vn 0.682539 0.000608 0.730848
vn 0.468152 0.709314 0.526979
vn 0.430875 0.848090 -0.308365
vn -0.350290 0.485325 0.801097
vn 0.682282 -0.193002 0.705154
vn 0.946395 -0.156267 -0.282695
vn 0.005862 -0.488705 -0.872430
vn 0.939540 0.014021 -0.342153
vn 0.418841 -0.130282 -0.898665
vn 0.951561 0.188368 -0.243000
vn 0.956465 0.263247 0.125997
vn 0.733111 0.203744 -0.648873
vn 0.842535 -0.315837 0.436328
vn 0.683296 -0.007212 0.730105
vn -0.969140 -0.202541 -0.140515
vn 0.952006 0.201848 -0.230092
vn -0.117265 0.271669 0.955220
vn 0.395414 0.287742 0.872269
vn 0.446405 -0.292768 -0.845582
vn -0.974719 -0.189557 -0.118282
vn 0.991700 -0.117147 -0.052990
vn 0.295379 0.583609 0.756407
vn -0.989747 -0.057194 0.130882
vn -0.962563 0.270407 -0.018765
vn 0.960136 0.202414 -0.192787
vn -0.865368 0.499750 0.037266
vn -0.117368 -0.465964 0.876985
vn 0.523998 0.728872 0.440650
vn -0.832435 0.550088 -0.066748
vn -0.479114 -0.386048 -0.788300
vn 0.900632 -0.241014 -0.361627
vn -0.992876 -0.118887 0.007912
vn 0.750877 -0.381695 -0.538973
vn 0.454245 0.102357 -0.884977
vn -0.995233 0.016343 -0.096149
vn -0.460145 -0.826056 -0.325420
vn 0.599143 -0.652555 0.463896
vn 0.665344 -0.741810 0.083873
vn 0.514476 0.771634 0.374026
vn 0.554136 0.766242 0.325280
vn -0.739104 -0.126875 0.661535
vn 0.100798 0.753387 -0.649806
vn -0.894160 -0.447193 -0.022296
vn 0.915188 -0.401712 0.032539
vn 0.165928 0.356592 -0.919407
vn -0.926051 0.148384 0.347005
vn -0.492166 -0.159021 0.855853
vn -0.053617 0.489656 -0.870266
vn 0.925672 -0.374162 -0.055974
vn -0.708788 0.581143 0.399865
vn -0.037459 0.355838 0.933797
vn 0.619397 -0.705894 -0.343600
vn 0.722878 -0.557025 -0.408865
vn -0.481335 0.837554 0.258498
vn 0.892117 -0.408189 -0.193673
vn 0.030337 -0.887960 0.458919
vn 0.358090 0.199035 0.912226
vn 0.819623 0.328733 -0.469205
vn -0.070887 -0.023570 -0.997206
vn -0.656786 0.749382 0.084023
vn 0.677357 -0.731903 -0.074194
vn -0.652018 0.346615 -0.674338
vn -0.013211 0.581487 -0.813448
vn 0.823270 -0.524608 -0.216826
vn -0.442164 -0.435478 -0.784124
vn -0.880347 -0.128990 0.456455
vn -0.985976 0.143787 0.084718
vn 0.062782 -0.138554 0.988363
vn 0.104257 -0.201232 0.973980
vn 0.284701 -0.946394 0.152592
vn 0.396348 0.884460 -0.246249
vn -0.066388 -0.696045 -0.714922
vn -0.369704 0.500853 0.782602
vn -0.454766 0.734529 0.503641
vn -0.734565 0.454674 0.503672
vn -0.474337 0.480216 -0.737832
vn -0.894454 0.446897 -0.015328
vn -0.496155 0.861349 -0.109123
vn -0.481384 -0.197464 -0.853977
vn -0.708531 -0.455273 0.539176
vn 0.339651 0.580870 0.739748
vn 0.659849 0.619358 0.425436
vn 0.336955 0.823834 0.455805
vn 0.265203 0.567536 -0.779468
vn 0.276007 0.948448 -0.155778
vn 0.760564 0.639646 -0.111333
vn 0.937124 0.017138 -0.348576
vn 0.535291 -0.159812 0.829412

f 1/1/1 2/2/1 3/3/1
f 4/4/2 5/5/2 2/2/2
f 6/6/3 1/1/3 3/3/3
f 6/6/4 3/3/4 4/4/4
f 2/2/5 1/1/5 7/7/5
f 3/8/6 2/9/6 8/10/6
f 9/11/7 10/12/7 11/13/7
f 10/12/8 12/14/8 13/13/8
f 14/15/9 9/11/9 11/13/9
f 10/12/10 9/11/10 12/14/10
f 7/16/11 12/17/11 9/18/11
f 15/19/12 14/15/12 11/13/12
f 6/6/13 4/4/13 16/20/13
f 17/21/14 18/22/14 19/23/14
f 11/13/15 10/12/15 18/24/15
f 18/24/16 13/13/16 20/25/16
f 10/12/17 13/13/17 18/24/17
f 13/13/18 15/19/18 17/26/18
f 19/23/19 18/22/19 21/27/19
f 17/21/20 19/23/20 22/28/20
f 21/27/21 18/22/21 23/29/21
f 22/28/22 21/27/22 23/29/22
f 21/27/23 22/28/23 19/23/23
f 17/26/24 15/19/24 11/13/24
f 11/13/25 18/24/25 17/26/25
f 13/13/26 17/26/26 20/25/26
f 18/22/27 20/30/27 23/29/27
f 20/30/28 22/28/28 23/29/28
f 20/30/29 17/21/29 22/28/29
f 15/19/30 13/13/30 12/14/30
f 15/19/31 12/14/31 14/15/31
f 14/31/32 2/32/32 9/18/32
f 9/18/33 2/32/33 7/16/33
f 16/33/34 12/17/34 7/16/34
f 7/34/35 16/35/35 6/36/35
f 7/7/36 1/1/36 6/6/36
f 7/34/37 2/35/37 16/37/37
f 16/20/38 4/4/38 2/2/38
f 14/31/39 16/33/39 2/32/39
f 14/31/40 12/17/40 16/33/40
f 24/38/41 3/3/41 25/39/41
f 4/4/42 25/39/42 5/5/42
f 26/40/43 3/3/43 24/38/43
f 26/40/44 4/4/44 3/3/44
f 27/41/45 24/38/45 25/39/45
f 3/8/46 8/10/46 25/42/46
f 25/39/47 2/2/47 5/5/47
f 2/9/48 25/42/48 8/10/48
f 28/43/49 29/44/49 30/45/49
f 30/45/50 31/44/50 32/46/50
f 33/47/51 29/44/51 28/43/51
f 30/45/52 32/46/52 28/43/52
f 27/48/53 28/49/53 32/50/53
f 34/51/54 29/44/54 33/47/54
f 26/40/55 35/52/55 4/4/55
f 36/53/56 37/54/56 38/55/56
f 29/44/57 38/56/57 30/45/57
f 38/56/58 39/57/58 31/44/58
f 30/45/59 38/56/59 31/44/59
f 31/44/60 36/58/60 34/51/60
f 37/54/61 40/59/61 38/55/61
f 36/53/62 41/60/62 37/54/62
f 40/59/63 42/61/63 38/55/63
f 41/60/64 42/61/64 40/59/64
f 40/59/65 37/54/65 41/60/65
f 36/58/66 29/44/66 34/51/66
f 29/44/67 36/58/67 38/56/67
f 31/44/68 39/57/68 36/58/68
f 38/55/69 42/61/69 39/62/69
f 39/62/70 42/61/70 41/60/70
f 39/62/71 41/60/71 36/53/71
f 34/51/72 32/46/72 31/44/72
f 34/51/73 33/47/73 32/46/73
f 33/63/74 28/49/74 25/64/74
f 28/49/75 27/48/75 25/64/75
f 35/65/76 27/48/76 32/50/76
f 27/34/77 26/36/77 35/35/77
f 26/40/78 24/38/78 27/41/78
f 27/34/79 35/37/79 25/35/79
f 35/52/80 25/39/80 4/4/80
f 33/63/81 25/64/81 35/65/81
f 33/63/82 35/65/82 32/50/82
f 43/66/83 44/67/83 45/68/83
f 46/69/84 47/70/84 48/71/84
f 46/69/85 49/72/85 47/70/85
f 44/73/86 50/74/86 49/75/86
f 47/76/87 50/74/87 51/77/87
f 52/78/88 44/73/88 43/66/88
f 52/78/89 43/66/89 45/68/89
f 51/77/90 48/79/90 47/76/90
f 53/80/91 48/81/91 51/82/91
f 46/69/92 8/83/92 49/72/92
f 52/78/93 45/68/93 51/77/93
f 8/84/94 45/85/94 44/86/94
f 8/87/95 44/88/95 49/89/95
f 54/90/96 48/81/96 53/80/96
f 55/91/97 56/92/97 57/93/97
f 57/93/98 56/92/98 58/94/98
f 59/95/99 60/96/99 57/93/99
f 61/97/100 62/98/100 63/99/100
f 64/100/101 62/101/101 65/102/101
f 50/74/102 52/78/102 51/77/102
f 50/74/103 44/73/103 52/78/103
f 57/93/104 58/94/104 59/103/104
f 60/96/105 59/95/105 53/104/105
f 58/94/106 66/105/106 59/103/106
f 59/95/107 66/105/107 64/100/107
f 46/106/108 48/81/108 54/90/108
f 53/104/109 59/95/109 54/107/109
f 54/108/110 59/95/110 67/109/110
f 56/92/111 68/110/111 63/99/111
f 66/105/112 58/94/112 56/92/112
f 46/69/113 69/71/113 70/70/113
f 46/69/114 70/70/114 71/72/114
f 72/73/115 71/75/115 73/74/115
f 70/76/116 51/77/116 73/74/116
f 73/74/117 74/78/117 72/73/117
f 74/78/118 45/68/118 75/66/118
f 72/67/119 45/68/119 8/111/119
f 72/67/120 75/66/120 45/68/120
f 51/77/121 70/76/121 69/79/121
f 53/80/122 51/82/122 69/81/122
f 46/69/123 71/72/123 8/83/123
f 74/78/124 51/77/124 45/68/124
f 8/87/125 71/89/125 72/112/125
f 60/96/126 53/104/126 54/107/126
f 55/91/127 76/113/127 56/92/127
f 77/114/128 78/115/128 61/97/128
f 65/116/129 78/117/129 79/118/129
f 73/74/130 51/77/130 74/78/130
f 72/73/131 74/78/131 75/66/131
f 55/91/132 60/119/132 76/113/132
f 55/91/133 57/93/133 60/96/133
f 76/113/134 60/119/134 80/120/134
f 60/96/135 67/121/135 79/118/135
f 46/106/136 54/90/136 69/81/136
f 69/81/137 54/90/137 53/80/137
f 54/122/138 67/121/138 60/96/138
f 56/92/139 80/120/139 77/114/139
f 80/120/140 56/92/140 76/113/140
f 71/123/141 81/124/141 73/125/141
f 82/126/142 71/123/142 70/127/142
f 73/125/143 81/124/143 70/127/143
f 81/124/144 82/126/144 70/127/144
f 83/128/145 71/123/145 82/126/145
f 71/123/146 83/128/146 81/124/146
f 82/129/147 84/130/147 85/131/147
f 81/132/148 84/130/148 82/129/148
f 81/132/149 85/131/149 84/130/149
f 86/133/150 84/134/150 85/135/150
f 84/134/151 87/136/151 85/137/151
f 85/135/152 88/138/152 86/133/152
f 89/139/153 90/140/153 91/141/153
f 87/142/154 84/134/154 86/133/154
f 88/138/155 91/143/155 86/133/155
f 92/144/156 88/138/156 85/137/156
f 85/137/157 87/136/157 92/144/157
f 93/145/158 85/131/158 81/132/158
f 82/129/159 85/131/159 93/145/159
f 82/146/160 93/147/160 83/148/160
f 81/149/161 83/150/161 93/151/161
f 89/152/162 88/138/162 92/144/162
f 92/144/163 87/136/163 89/152/163
f 89/152/164 87/136/164 90/153/164
f 90/154/165 87/136/165 86/133/165
f 91/141/166 90/154/166 86/133/166
f 94/155/167 89/139/167 91/143/167
f 88/138/168 94/155/168 91/143/168
f 94/155/169 88/138/169 89/152/169
f 49/156/170 50/157/170 95/158/170
f 96/159/171 47/160/171 49/156/171
f 50/157/172 47/160/172 95/158/172
f 95/158/173 47/160/173 96/159/173
f 97/161/174 96/159/174 49/156/174
f 49/156/175 95/158/175 97/161/175
f 96/162/176 98/163/176 99/164/176
f 95/165/177 96/162/177 99/164/177
f 95/165/178 99/164/178 98/163/178
f 100/133/179 98/135/179 99/134/179
f 99/134/180 98/137/180 101/136/180
f 98/135/181 100/133/181 102/138/181
f 103/139/182 104/141/182 105/140/182
f 101/142/183 100/133/183 99/134/183
f 102/138/184 100/133/184 104/143/184
f 106/144/185 98/137/185 102/138/185
f 98/137/186 106/144/186 101/136/186
f 107/166/187 95/165/187 98/163/187
f 96/162/188 107/166/188 98/163/188
f 96/146/189 97/148/189 107/147/189
f 95/149/190 107/151/190 97/150/190
f 103/152/191 106/144/191 102/138/191
f 106/144/192 103/152/192 101/136/192
f 103/152/193 105/153/193 101/136/193
f 105/154/194 100/133/194 101/136/194
f 104/141/195 100/133/195 105/154/195
f 108/155/196 104/143/196 103/139/196
f 102/138/197 104/143/197 108/155/197
f 108/155/198 103/152/198 102/138/198
f 68/110/199 61/97/199 63/99/199
f 61/97/200 109/167/200 62/98/200
f 63/99/201 62/98/201 66/105/201
f 67/109/202 64/100/202 65/102/202
f 64/100/203 66/105/203 62/101/203
f 65/102/204 62/101/204 109/168/204
f 59/95/205 64/100/205 67/109/205
f 56/92/206 63/99/206 66/105/206
f 68/110/207 77/114/207 61/97/207
f 77/114/208 80/120/208 78/115/208
f 61/97/209 78/115/209 109/167/209
f 67/121/210 65/116/210 79/118/210
f 65/116/211 109/169/211 78/117/211
f 79/118/212 78/117/212 80/120/212
f 60/96/213 79/118/213 80/120/213
f 56/92/214 77/114/214 68/110/214

