mtllib animateBarbarianAxe__000018.mtl

o fat
usemtl fat.001
s off

v -0.173360 37.607220 -2.621460
v 1.860240 37.156109 7.026690
v 0.436770 37.377098 2.380620
v -0.393050 59.282322 -7.842310
v 8.409220 66.285942 -7.887590
v 2.040470 55.514458 -6.808180
v -0.871500 51.295162 -4.370160
v 9.366139 61.318031 -4.302660
v 7.586980 57.260368 -1.388600
v 6.790450 51.488708 -1.123250
v 3.579130 51.181511 -4.900850
v 5.943851 56.317741 -6.211180
v 9.061010 40.123650 5.881920
v 9.683300 38.388050 -0.843340
v 10.769110 37.548782 -1.013820
v 6.672680 39.876171 5.228340
v 3.993900 35.907063 8.004780
v 4.557730 33.512672 -3.627610
v 4.051440 36.735188 -4.328440
v 0.740560 37.229431 -3.410500
v -0.398910 36.634289 -4.552320
v -0.562090 64.941429 -7.695880
v -1.275790 66.932190 -7.722640
v 0.745130 58.637310 6.255410
v 5.553120 58.671322 5.506880
v 6.056670 62.904949 7.512580
v 7.760800 63.014229 0.521750
v 6.241390 65.671204 5.758920
v 11.220030 64.747627 -0.846850
v 4.950450 51.697048 3.959230
v 1.750780 51.462612 5.589190
v 0.921530 64.242172 7.542880
v 4.105060 69.775055 -5.655420
v 10.483789 67.296272 -7.215010
v 11.521389 67.011391 -3.711240
v 3.210600 69.957741 3.356360
v 5.463280 71.068481 -1.120600
v 0.553650 69.157410 4.299680
v 2.869560 75.358704 1.069220
v 3.144010 73.133484 -2.602160
v 0.073850 73.378227 -3.140210
v 0.342740 76.146637 0.128020
v -0.646530 71.179245 -5.920650
v 0.900590 47.146729 6.156900
v 5.364230 47.124401 5.637480
v 8.418850 46.624863 0.472170
v 4.993240 45.882813 -4.695600
v -0.377290 45.777031 -5.370920
v 11.897230 64.379181 -1.596280
v 9.666830 64.468445 -8.699550
v 12.617770 66.052689 -4.087200
v 11.791650 66.333244 -7.119960
v 10.660380 61.494999 -1.041130
v 2.916080 74.173622 6.938510
v 1.494270 72.529465 8.533100
v 3.305840 70.471130 4.539260
v 2.391940 69.166885 6.683680
v 1.187030 71.349091 8.206760
v 2.015960 74.494843 8.529860
v 0.229000 74.391739 8.813280
v 3.513200 75.763481 4.370940
v 1.037050 78.334381 9.332690
v -0.258590 78.296181 9.619370
v 2.123360 75.692245 9.280280
v 2.721870 77.631165 8.447300
v 1.726310 79.928345 6.765590
v 0.086360 79.992752 6.600850
v 0.591890 72.508812 9.071470
v -0.363680 75.122215 9.186710
v -0.545370 72.991692 10.147090
v -0.507670 72.474419 9.459510
v -0.565780 70.899857 9.312070
v 1.217650 68.487061 8.421679
v -0.331650 68.334137 9.040550
v 3.435480 78.089455 4.642630
v 2.984550 79.396278 4.220560
v 0.388240 79.841881 3.126780
v 13.938190 64.054367 -2.927060
v 13.740950 65.435463 -6.318950
v 7.443410 57.527699 -8.822960
v 9.471770 56.262489 -4.873050
v 11.348890 63.468681 -9.307090
v 9.409930 53.410267 -10.580280
v 13.046221 50.784668 -14.498540
v 10.265110 49.275597 -12.379160
v 12.238621 53.610302 -12.708260
v 13.905830 54.555939 -10.326950
v 15.183680 50.470009 -12.551260
v 13.572249 53.305222 -8.556610
v 14.675550 49.228722 -9.829720
v 11.383380 51.481430 -8.467540
v 12.049120 48.345673 -9.134930
v 11.558531 56.355179 -11.711360
v 11.947351 55.174641 -12.232929
v 13.933170 59.565491 -8.505000
v 13.397490 57.901711 -5.454270
v 10.942360 53.020939 -7.516480
v 10.887240 59.114708 -11.645809
v 14.103140 43.839458 -16.053520
v 12.904600 43.072708 -14.800850
v 15.493179 43.890190 -15.346860
v 15.359711 43.236332 -13.578360
v 13.913870 42.676529 -12.992140
v 14.409229 37.528721 -12.353069
v 14.116480 37.546421 -13.226690
v 14.524350 38.727871 -13.629251
v 15.137759 39.273590 -13.119320
v 16.297470 38.763382 -14.246430
v 13.122300 39.643490 -12.381040
v 14.418420 39.123608 -12.416610
v 13.312950 37.436890 -12.336071
v 14.382830 36.113220 -12.755919
v 13.541401 36.160320 -12.774410
v 16.303650 36.643940 -14.952550
v 14.433950 40.391151 -18.450249
v 14.852290 38.595581 -19.148239
v 15.576490 35.798321 -19.595310
v 15.124060 36.814751 -14.457279
v 15.834829 38.680439 -18.774080
v 15.749901 40.520149 -18.128380
v 15.841650 33.978809 -15.723600
v 3.050300 28.056129 7.785190
v 5.899200 19.804951 3.596810
v 3.549500 20.138781 9.340670
v 8.923480 27.715139 6.411080
v 10.854490 20.335169 7.270390
v 5.357170 27.276279 3.900770
v 7.020290 26.485569 10.470480
v 7.571220 21.094849 12.229090
v 6.979230 28.568939 10.394300
v 7.250210 30.451889 9.261950
v 10.057581 30.515221 4.070350
v 7.381110 35.678471 7.657400
v 9.480960 9.609011 10.129890
v 10.521000 6.864210 9.737061
v 7.667340 7.874770 7.564830
v 8.158210 7.659680 12.422110
v 5.902620 9.378710 10.416531
v 5.573980 6.360990 10.024590
v 6.645850 3.116210 6.836900
v 9.710950 3.447980 6.663270
v 6.278010 2.019640 14.554970
v 12.063540 2.032040 14.488550
v 8.052270 1.968070 18.081921
v 10.526980 0.155060 18.133089
v 6.496960 -0.476540 18.301550
v -10.209880 65.691711 -4.790470
v -2.605380 55.482670 -6.459050
v -9.998890 60.981251 -1.916820
v -7.294210 57.159801 -0.273630
v -5.220260 51.323326 -2.271810
v -6.087950 51.345840 2.524050
v -6.216790 56.234909 -5.485090
v -9.352170 38.221779 0.966870
v -7.296500 33.751801 6.066970
v -10.502090 37.520489 0.605800
v -4.979820 35.183338 5.882850
v -5.387520 37.356049 -5.240890
v -4.760860 38.811928 -4.098510
v -1.280190 38.122410 -3.779590
v -4.251660 58.604851 6.252970
v -5.173450 62.828941 7.858570
v -9.957700 62.156658 4.073440
v -4.581330 65.596306 6.876220
v -9.891000 66.176407 4.174070
v -1.760290 51.348419 6.084690
v -11.832690 66.791672 -3.333720
v -5.614400 69.770805 -3.873400
v -11.495060 67.452568 1.265980
v -2.200210 69.979004 3.894350
v -5.283700 71.176193 0.124640
v -2.296720 75.515625 0.980080
v -3.021600 73.235931 -2.296110
v -3.837170 46.744709 6.503090
v -7.974770 46.410271 1.897630
v -5.576800 45.927246 -3.700200
v -11.611959 64.991631 3.339430
v -11.765300 63.352478 -4.718580
v -12.846070 66.352249 1.002980
v -12.980970 65.579857 -2.360550
v -9.794040 61.834633 3.318360
v -2.302250 72.701157 8.195740
v -3.268220 74.453300 6.388980
v -2.736800 70.587128 4.734280
v -2.097460 69.287941 6.698150
v -1.639910 71.467651 8.040040
v -0.944410 74.444809 8.709041
v -2.637090 74.705284 8.116380
v -3.259400 76.069771 3.769130
v -1.474850 78.447990 9.109470
v -2.767180 75.913437 8.845710
v -3.033680 77.891472 7.935860
v -1.556070 80.076782 6.473950
v -1.514220 72.604057 8.884320
v -1.429700 68.578712 8.349230
v -3.022710 78.381500 4.068780
v -2.389340 79.639320 3.743030
v -13.659670 64.060547 2.622680
v -14.650860 64.713638 -0.931720
v -10.401300 57.407578 -0.063390
v -9.834030 55.975708 -4.201610
v -13.108430 62.022938 -4.303820
v -12.663220 46.840191 -0.566320
v -10.497450 51.883476 -2.446520
v -9.240430 48.462082 -0.173820
v -13.408919 50.276817 -2.578430
v -14.778959 52.421509 -0.920950
v -13.919340 48.106380 1.730760
v -13.688721 52.869381 0.733800
v -12.394751 50.041580 3.502070
v -9.665950 50.657272 2.920420
v -11.090150 52.006401 0.818580
v -13.768210 52.712852 -3.893580
v -13.669471 51.656689 -3.328430
v -16.149380 57.057690 -2.265080
v -14.508620 57.864937 0.406260
v -11.265821 54.355961 -0.380150
v -13.981270 54.945179 -5.498040
v -9.821609 42.252888 4.184710
v -8.211390 43.183540 4.538050
v -10.837260 42.713161 5.278460
v -10.006121 44.015862 6.444800
v -8.463790 44.450630 6.201490
v -5.696360 41.833309 9.669889
v -5.748670 42.555580 10.239281
v -6.777940 41.976261 8.941230
v -7.481160 42.604980 9.159120
v -8.326190 41.235191 9.703450
v -6.686270 43.238758 9.139510
v -5.946440 43.663822 8.033510
v -4.822730 42.662842 9.654261
v -4.991070 41.549831 11.001320
v -4.353310 41.657150 10.460770
v -7.248380 39.633999 10.826150
v -8.034190 37.032009 6.808920
v -8.598600 38.523880 5.657460
v -7.084480 35.253872 8.932301
v -6.313690 40.290863 10.225450
v -8.790689 37.280418 7.500630
v -9.655760 38.706879 6.494590
v -5.496830 37.779091 12.010180
v -5.838740 23.475071 -12.851959
v -2.725700 25.269840 -3.581090
v -3.414660 19.639820 -9.648310
v -10.730669 21.235809 -10.198960
v -8.616410 26.300211 -4.475820
v -5.084680 28.274300 -6.191450
v -6.703090 22.155210 -3.443230
v -7.378660 17.754761 -7.227580
v -6.620730 23.287161 -1.709070
v -6.182170 25.702728 -0.448240
v -9.798380 29.493908 -2.592380
v -5.890610 29.945942 3.095580
v -10.674500 11.795731 -19.817711
v -9.571239 13.297481 -17.434130
v -7.548230 13.768179 -20.627480
v -8.583280 10.204740 -17.188391
v -5.786780 10.655830 -19.816130
v -6.029700 12.476540 -17.366230
v -6.541200 10.632160 -24.511759
v -9.586750 11.340179 -24.510900
v -7.300400 4.393320 -19.120680
v -13.328640 5.693090 -19.378469
v -10.330679 2.956750 -16.249050
v -12.930740 2.013710 -17.577271
v -9.112250 0.580470 -17.394520

vt 0.550479 0.485338
vt 0.414517 0.485338
vt 0.489174 0.497239
vt 0.490853 0.675485
vt 0.356970 0.710738
vt 0.458986 0.602657
vt 0.458693 0.603155
vt 0.491001 0.506534
vt 0.357039 0.710738
vt 0.272881 0.708251
vt 0.307767 0.663467
vt 0.329118 0.504113
vt 0.420682 0.504388
vt 0.307693 0.663467
vt 0.420389 0.504181
vt 0.390374 0.619683
vt 0.389206 0.622726
vt 0.390855 0.620128
vt 0.309151 0.663075
vt 0.578845 0.971377
vt 0.529882 0.993867
vt 0.501054 0.950636
vt 0.597833 0.993868
vt 0.684209 0.993870
vt 0.691613 0.940228
vt 0.584242 0.936155
vt 0.602549 0.993867
vt 0.689094 0.993870
vt 0.694409 0.971380
vt 0.730001 0.975635
vt 0.490853 0.781888
vt 0.490853 0.820915
vt 0.240556 0.660920
vt 0.133663 0.660928
vt 0.131880 0.753091
vt 0.060606 0.782384
vt 0.055577 0.663688
vt 0.136145 0.808744
vt 0.060014 0.783494
vt 0.058190 0.859642
vt 0.160773 0.512959
vt 0.067037 0.515196
vt 0.240700 0.512959
vt 0.131877 0.752996
vt 0.240556 0.781375
vt 0.390182 0.870896
vt 0.298691 0.847983
vt 0.294173 0.886121
vt 0.181129 0.899551
vt 0.052544 0.886601
vt 0.145152 0.921474
vt 0.235241 0.891030
vt 0.142740 0.921054
vt 0.172936 0.966074
vt 0.456563 0.999059
vt 0.389917 0.922986
vt 0.429989 0.941889
vt 0.491140 0.942697
vt 0.490646 0.999330
vt 0.490853 0.898039
vt 0.701416 0.118225
vt 0.813217 0.120956
vt 0.790107 0.184348
vt 0.877923 0.002315
vt 0.872775 0.120438
vt 0.505869 0.118716
vt 0.564263 0.119120
vt 0.507564 0.183764
vt 0.697589 0.180917
vt 0.580429 0.182675
vt 0.710756 0.001536
vt 0.701372 0.182427
vt 0.812168 0.002315
vt 0.857243 0.184348
vt 0.697567 0.116528
vt 0.503935 0.000692
vt 0.561277 0.000692
vt 0.688827 -0.000098
vt 0.002866 0.854679
vt 0.027518 0.706813
vt 0.061197 0.782654
vt 0.055608 0.663958
vt 0.251604 0.781884
vt 0.357109 0.710738
vt 0.243886 0.876138
vt 0.247300 0.848527
vt -0.000514 0.880403
vt 0.006948 0.782948
vt 0.674684 0.829607
vt 0.705811 0.784366
vt 0.654033 0.662928
vt 0.703232 0.671848
vt 0.720473 0.730776
vt 0.697736 0.853617
vt 0.729837 0.853035
vt 0.623758 0.856571
vt 0.587609 0.811448
vt 0.658187 0.605708
vt 0.748523 0.593788
vt 0.716351 0.931575
vt 0.747491 0.935506
vt 0.695349 0.885675
vt 0.676247 0.904603
vt 0.649719 0.961956
vt 0.745560 1.001324
vt 0.725611 0.781438
vt 0.747491 0.878462
vt 0.747491 0.808438
vt 0.720379 0.731031
vt 0.747491 0.790807
vt 0.720762 0.730332
vt 0.748639 0.732530
vt 0.746944 0.628012
vt 0.703659 0.671442
vt 0.731857 0.666086
vt 0.747085 0.666819
vt 0.703186 0.671176
vt 0.611291 0.885598
vt 0.604148 0.909350
vt 0.550618 0.823662
vt 0.550618 0.934468
vt 0.625864 0.557513
vt 0.571978 0.557920
vt 0.578607 0.510287
vt 0.669444 0.510287
vt 0.756032 0.560223
vt 0.679695 0.557918
vt 0.877240 0.461159
vt 0.992418 0.461159
vt 0.944262 0.560223
vt 0.756457 0.510287
vt 0.806202 0.560223
vt 0.498275 0.560223
vt 0.875566 0.382888
vt 0.758260 0.308662
vt 0.875912 0.308662
vt 0.759996 0.360654
vt 0.669163 0.382888
vt 0.671223 0.308662
vt 0.584325 0.382888
vt 0.577057 0.308662
vt 0.498223 0.363687
vt 0.498247 0.308662
vt 0.992597 0.308662
vt 0.992439 0.363687
vt 0.759483 0.410364
vt 0.758924 0.382888
vt 0.665903 0.461159
vt 0.580075 0.461159
vt 0.498223 0.402657
vt 0.992438 0.402657
vt 0.760539 0.449273
vt 0.498220 0.461159
vt 0.875438 0.575163
vt 0.762705 0.196431
vt 0.858161 0.196355
vt 0.690657 0.196417
vt 0.588027 0.196417
vt 0.498144 0.196431
vt 0.991918 0.196431
vt 0.375723 0.009258
vt 0.380090 0.017573
vt 0.356438 0.030356
vt 0.342839 0.029458
vt 0.369327 0.043627
vt 0.316032 0.012201
vt 0.336848 0.019568
vt 0.249292 0.041099
vt 0.371147 0.002582
vt 0.416197 0.004791
vt 0.408124 0.000758
vt 0.128136 0.016613
vt 0.154876 0.002573
vt 0.119423 0.002194
vt 0.160447 0.001473
vt 0.065726 0.014292
vt 0.105093 0.028910
vt 0.000825 0.069213
vt 0.000703 0.039244
vt 0.249314 0.055441
vt 0.429228 0.045736
vt 0.102506 0.115410
vt 0.153549 0.117195
vt 0.189513 0.114692
vt 0.228429 0.109580
vt 0.194639 0.033982
vt 0.406548 0.108121
vt 0.355355 0.108206
vt 0.448349 0.035630
vt 0.498209 0.039288
vt 0.461840 0.047992
vt 0.483032 0.114221
vt 0.406174 0.120334
vt 0.355217 0.119080
vt 0.243215 0.037501
vt 0.249314 0.089732
vt 0.000703 0.095058
vt 0.249292 0.105039
vt 0.160984 0.032072
vt 0.413806 0.033644
vt 0.442212 0.108407
vt 0.443088 0.117732
vt 0.023914 0.327327
vt 0.104127 0.227894
vt 0.000784 0.227894
vt 0.216171 0.327327
vt 0.216985 0.228421
vt 0.105699 0.228145
vt 0.104981 0.327662
vt 0.217575 0.327327
vt 0.351490 0.301452
vt 0.217290 0.227894
vt 0.351571 0.227894
vt 0.352420 0.301452
vt 0.489174 0.227894
vt 0.352342 0.227894
vt 0.471690 0.333380
vt 0.351597 0.328057
vt 0.217345 0.328075
vt 0.352312 0.363299
vt 0.470864 0.334174
vt 0.352330 0.328057
vt 0.216660 0.380224
vt 0.216104 0.328075
vt 0.104983 0.328371
vt 0.217232 0.380224
vt 0.351611 0.363299
vt 0.351459 0.420971
vt 0.352499 0.420971
vt 0.351589 0.497239
vt 0.229465 0.497239
vt 0.352627 0.497239
vt 0.229583 0.497239
vt 0.133020 0.497239
vt 0.072972 0.497239
vt 0.025422 0.328212
vt 0.002386 0.497239
vt 0.216130 0.152222
vt 0.223982 0.125749
vt 0.105883 0.155747
vt 0.351732 0.147623
vt 0.223132 0.128232
vt 0.218721 0.149411
vt 0.469070 0.149411
vt 0.483427 0.127273
vt 0.352306 0.146326
vt 0.017963 0.152222
vt 0.104256 0.155747
vt 0.009616 0.131504
vt 0.104128 0.227914
vt 0.000790 0.227921
vt 0.216984 0.228396
vt 0.351571 0.227971
vt 0.217291 0.227882
vt 0.352342 0.227879
vt 0.489111 0.227891
vt 0.948232 0.041698
vt 0.989968 0.003451
vt 0.971575 0.059997
vt 0.909211 0.004273
vt 0.996004 0.120663
vt 0.925604 0.058708
vt 0.885225 0.122889
vt 0.516483 0.798440
vt 0.501430 0.685191
vt 0.597947 0.686709
vt 0.594444 0.793024
vt 0.950876 0.082499
vt 0.943924 0.157220
vt 0.507177 0.624822
vt 0.600053 0.622523
vt 0.901715 0.182549
vt 0.982420 0.184037
vt 0.730212 0.975635
vt 0.685579 0.991654
vt 0.692830 0.969164

vn -0.008450 -0.998955 -0.044926
vn 0.137228 -0.178769 -0.974274
vn -0.204831 -0.379876 -0.902075
vn 0.004442 -0.584599 -0.811310
vn 0.760373 -0.134153 -0.635480
vn -0.117563 -0.434767 -0.892836
vn 0.208850 -0.330925 -0.920256
vn 0.925644 -0.272999 -0.262020
vn 0.189612 -0.208263 -0.959517
vn 0.867497 -0.452248 -0.207172
vn -0.589743 -0.793499 0.150211
vn 0.031123 -0.967106 0.252463
vn 0.260420 -0.665237 -0.699744
vn -0.143863 -0.372367 0.916868
vn -0.543976 0.095827 0.833611
vn -0.458648 -0.513406 0.725298
vn 0.292952 0.246909 0.923696
vn 0.426353 -0.903417 0.045401
vn -0.018361 -0.020018 -0.999631
vn 0.141348 -0.437520 0.888030
vn 0.943529 -0.129714 0.304841
vn 0.537922 -0.678497 0.500283
vn 0.151396 -0.226592 0.962151
vn 0.926711 -0.155947 0.341888
vn 0.454929 -0.018908 0.890327
vn -0.052070 -0.222014 0.973652
vn 0.006622 0.544678 -0.838619
vn -0.025118 0.025108 -0.999369
vn 0.948384 -0.220692 0.227734
vn 0.355799 0.934099 -0.029418
vn 0.141231 0.523313 0.840355
vn 0.023175 0.558892 -0.828917
vn 0.967661 0.085770 0.237224
vn 0.636828 0.667013 0.386709
vn 0.616869 0.584639 0.526944
vn 0.127616 0.552874 0.823434
vn 0.126563 0.551586 0.824460
vn 0.835842 0.257982 0.484576
vn 0.735022 0.602813 -0.310417
vn 0.433443 0.669739 -0.602973
vn 0.155973 0.849844 -0.503427
vn 0.641252 0.604494 0.472634
vn 0.407282 0.838826 -0.361237
vn 0.738572 0.556852 -0.380035
vn 0.241916 0.689699 -0.682490
vn 0.171661 0.750579 -0.638093
vn 0.159211 0.365522 -0.917086
vn 0.109958 0.351210 0.929818
vn 0.858039 0.141350 0.493751
vn 0.823787 0.092331 -0.559330
vn -0.119877 -0.070353 -0.990293
vn 0.114389 0.191738 0.974757
vn 0.452088 0.028215 0.891527
vn 0.882790 0.467700 0.044031
vn 0.801610 0.410839 0.434318
vn 0.923303 0.203172 0.325933
vn 0.743365 0.173363 -0.646029
vn 0.118916 0.187483 -0.975043
vn 0.777182 0.292477 -0.557176
vn 0.436732 -0.092630 -0.894810
vn 0.126001 -0.089733 -0.987963
vn 0.128384 -0.088743 -0.987746
vn 0.257673 0.169282 0.951288
vn 0.757054 0.471501 0.452279
vn 0.921942 -0.146848 0.358411
vn 0.071103 0.447459 -0.891473
vn 0.520119 -0.480405 0.706178
vn 0.634758 0.765942 -0.102054
vn 0.650188 0.530140 0.544250
vn 0.330086 0.362247 -0.871677
vn 0.594485 0.796367 -0.111300
vn -0.835173 -0.418436 -0.356928
vn -0.370069 -0.908067 0.196122
vn 0.462886 -0.027969 0.885976
vn 0.833411 -0.236073 0.499695
vn 0.432559 -0.343099 0.833772
vn 0.158802 -0.040527 0.986478
vn 0.977670 -0.031699 0.207743
vn 0.981778 -0.018114 -0.189168
vn 0.997202 -0.041058 -0.062472
vn 0.380325 -0.859187 0.342272
vn 0.213606 0.068493 0.974516
vn 0.915235 -0.116860 0.385603
vn 0.977964 -0.034890 0.205836
vn -0.019155 0.851694 0.523689
vn 0.497227 0.211217 0.841518
vn 0.704430 0.227930 0.672181
vn 0.718660 0.233898 0.654843
vn 0.486172 -0.348138 0.801522
vn 0.307945 -0.462072 0.831660
vn 0.084146 0.864511 0.495521
vn -0.006370 -0.134857 0.990845
vn 0.233280 -0.770883 0.592723
vn 0.548676 -0.097996 0.830272
vn 0.430027 -0.841030 -0.328247
vn 0.914744 0.022321 0.403416
vn 0.031254 -0.985741 -0.165342
vn 0.519295 0.069518 0.851763
vn 0.817975 0.051774 0.572920
vn 0.258386 -0.946058 -0.195477
vn 0.375602 -0.063571 0.924598
vn 0.978689 0.055785 -0.197626
vn 0.924438 0.217917 -0.312933
vn 0.765804 -0.389409 0.511767
vn 0.162396 -0.534404 0.829481
vn 0.829573 -0.219356 0.513510
vn 0.060895 -0.414718 0.907910
vn 0.550040 0.635258 0.542128
vn 0.982556 0.011147 0.185634
vn 0.899855 0.379789 0.214526
vn 0.790968 0.545570 0.276990
vn 0.519241 0.196989 0.831616
vn 0.436592 0.545780 -0.715200
vn 0.399521 0.574688 -0.714224
vn 0.180149 0.983267 -0.027048
vn 0.056420 0.982501 -0.177506
vn 0.945876 -0.116613 0.302853
vn 0.482761 0.655889 0.580302
vn 0.454218 0.214816 -0.864604
vn 0.429411 0.902488 -0.033487
vn -0.898004 -0.108311 0.426449
vn 0.755823 0.620610 0.208746
vn 0.203373 0.735152 -0.646677
vn -0.568474 -0.649856 -0.504504
vn 0.537221 -0.068572 0.840649
vn -0.656683 0.182538 -0.731743
vn -0.585811 0.307627 -0.749794
vn 0.565071 0.550731 -0.614321
vn 0.617049 0.516281 -0.593889
vn 0.948963 0.144043 0.280573
vn 0.949909 0.176555 0.257880
vn 0.296450 -0.138188 0.944998
vn 0.231937 -0.232230 0.944603
vn -0.874103 -0.271327 0.402897
vn -0.822797 -0.361116 0.438863
vn -0.555444 0.087647 -0.826922
vn -0.608550 0.144306 -0.780284
vn 0.687189 0.470781 -0.553297
vn 0.631333 0.262019 -0.729908
vn 0.988166 -0.057162 0.142341
vn 0.987780 -0.059630 0.143995
vn 0.373599 -0.407691 0.833194
vn -0.799682 -0.553177 0.233462
vn -0.835221 0.541039 -0.098403
vn -0.593676 -0.125539 -0.794851
vn 0.692087 0.184933 -0.697722
vn 0.648470 0.284227 -0.706188
vn 0.998132 0.047150 -0.038843
vn 0.986303 -0.128933 0.102872
vn 0.693346 -0.521607 0.497190
vn 0.290558 -0.385294 0.875857
vn -0.929589 0.033824 0.367043
vn 0.710543 0.322348 -0.625477
vn -0.602006 0.127425 -0.788259
vn -0.819304 -0.452344 0.352314
vn 0.363249 -0.511695 0.778601
vn -0.789705 -0.517676 0.329207
vn 0.328392 -0.502982 0.799479
vn 0.663447 0.298249 -0.686211
vn -0.684188 0.400081 -0.609772
vn -0.713012 -0.029915 -0.700514
vn -0.630420 0.077003 -0.772425
vn 0.430175 0.259080 -0.864770
vn 0.663537 0.318779 -0.676830
vn 0.984786 -0.026636 0.171716
vn 0.994008 0.054056 0.095002
vn 0.476766 -0.426423 0.768673
vn 0.364770 -0.438772 0.821232
vn -0.818820 -0.481742 0.312184
vn -0.807232 -0.478442 0.345644
vn 0.866241 -0.400727 -0.298404
vn 0.217362 -0.785615 0.579278
vn 0.096074 0.172442 0.980323
vn 0.013692 0.021555 0.999674
vn 0.043254 0.039526 0.998282
vn 0.037864 -0.274189 0.960930
vn -0.039232 -0.330781 0.942892
vn 0.996140 -0.002240 0.087748
vn 0.946145 0.072171 -0.315596
vn -0.744915 0.093512 -0.660574
vn 0.003442 -0.311486 -0.950244
vn -0.735511 -0.077263 -0.673093
vn -0.672123 -0.020166 -0.740165
vn -0.740938 -0.417966 -0.525658
vn -0.798901 0.312091 0.514156
vn 0.303099 0.194170 0.932968
vn 0.319050 -0.298726 0.899428
vn -0.976906 -0.206970 -0.053088
vn -0.968837 -0.244940 -0.036856
vn 0.994072 0.036962 -0.102253
vn 0.991330 0.081843 -0.102795
vn 0.328384 -0.314590 0.890616
vn 0.982618 -0.132807 -0.129709
vn 0.294604 0.405086 -0.865514
vn 0.193126 0.332865 -0.922986
vn -0.972805 -0.228047 -0.040547
vn 0.972957 0.182915 0.141056
vn -0.920936 -0.373405 -0.111558
vn -0.774534 0.309221 -0.551797
vn 0.339799 0.613937 -0.712473
vn 0.474797 -0.823598 0.310249
vn 0.987400 0.138458 -0.076619
vn 0.140997 0.574112 -0.806545
vn 0.693335 0.044482 0.719241
vn 0.705852 0.042374 0.707090
vn -0.959014 -0.278857 -0.050301
vn 0.336079 -0.283397 0.898185
vn 0.988140 -0.046908 -0.146219
vn 0.328691 0.231442 -0.915640
vn -0.920271 -0.130496 -0.368881
vn 0.590242 0.060715 -0.804940
vn 0.567848 0.074546 -0.819751
vn 0.836176 0.274105 0.475054
vn 0.824527 0.249879 0.507657
vn -0.602169 0.191321 0.775106
vn -0.518570 0.133235 0.844590
vn 0.900972 0.033572 0.432577
vn -0.525086 0.492821 0.693839
vn 0.481241 -0.668712 -0.566773
vn 0.878649 0.041739 0.475640
vn 0.872273 0.123422 0.473188
vn -0.453543 0.271921 0.848739
vn 0.902077 0.119559 0.414685
vn -0.554863 0.019478 0.831713
vn -0.862731 -0.042088 -0.503908
vn 0.871146 0.347668 0.346744
vn -0.504129 0.367237 0.781659
vn 0.912667 0.246742 0.325818
vn 0.563585 -0.417925 -0.712538
vn 0.414468 -0.564095 -0.714152
vn -0.291552 -0.650439 -0.701375
vn -0.744172 -0.583729 -0.324758
vn -0.525343 0.311760 0.791720
vn -0.955288 -0.292585 -0.042651
vn 0.642852 0.341701 -0.685552
vn 0.764152 0.201869 0.612634
vn -0.673845 -0.022536 0.738529
vn -0.798506 0.162251 -0.579710
vn 0.833511 -0.059175 -0.549325
vn -0.876281 -0.263936 -0.403076
vn -0.904649 -0.233483 -0.356505
vn 0.591127 -0.277588 -0.757307
vn 0.835897 0.038920 0.547505
vn 0.848366 0.044645 0.527524
vn -0.672299 -0.018741 0.740042
vn -0.575805 -0.044295 0.816387
vn -0.808166 0.254717 -0.531025
vn -0.073697 0.166243 -0.983327
vn -0.967285 -0.240651 -0.080292
vn 0.958657 0.027523 -0.283229
vn 0.000066 -0.984018 -0.178071
vn 0.099039 -0.985836 -0.135347
vn 0.672466 0.616847 0.409010
vn 0.638701 0.425431 -0.641147
vn -0.719282 0.442359 0.535679
vn 0.532605 0.591786 0.605080
vn -0.806323 0.424542 0.411835
vn 0.124199 -0.902484 -0.412428
vn -0.004578 -0.832324 -0.554271
vn 0.484822 0.677382 0.553264
vn 0.030703 0.070047 0.997071
vn -0.760558 0.518942 0.390193
vn 0.509686 -0.696907 -0.504520
vn -0.366588 -0.122321 -0.922307
vn 0.122768 -0.401835 -0.907445
vn -0.224710 -0.514791 -0.827342
vn -0.945503 -0.277859 -0.169760
vn -0.370523 -0.532904 -0.760740
vn -0.322489 -0.563174 -0.760812
vn -0.917494 -0.378407 -0.122526
vn -0.268421 -0.042652 -0.962357
vn -0.946946 -0.286898 -0.144855
vn 0.528389 -0.521448 -0.669998
vn 0.337918 -0.636081 -0.693695
vn 0.237698 -0.492365 -0.837303
vn 0.396183 -0.840230 0.370206
vn 0.607492 -0.635455 0.476602
vn -0.191218 -0.539149 0.820216
vn -0.184448 -0.556357 0.810213
vn -0.811445 -0.562640 0.158091
vn -0.294759 -0.118417 -0.948206
vn 0.001849 -0.354952 0.934883
vn -0.589771 -0.685612 0.426739
vn -0.454785 -0.014746 0.890479
vn -0.000337 -0.023299 0.999728
vn -0.618284 -0.229707 0.751638
vn 0.141671 -0.071821 0.987305
vn 0.102526 -0.225759 0.968773
vn -0.327025 0.542404 -0.773856
vn -0.287162 0.016204 -0.957745
vn -0.533528 -0.399742 0.745355
vn -0.436848 0.894351 -0.096438
vn -0.030176 0.340103 0.939904
vn -0.328880 0.544056 -0.771907
vn -0.606503 0.378059 0.699447
vn -0.291230 0.641241 0.709926
vn -0.360250 0.764698 0.534282
vn 0.034980 0.552226 0.832960
vn 0.040146 0.547067 0.836126
vn -0.674562 0.334604 0.658032
vn -0.779082 0.582137 -0.232697
vn -0.362302 0.725693 -0.584900
vn -0.183507 0.825466 -0.533789
vn -0.358443 0.764382 0.535947
vn -0.531211 0.812085 -0.241520
vn -0.753407 0.637357 -0.161721
vn -0.442351 0.624146 -0.644024
vn -0.193856 0.793284 -0.577166
vn -0.444158 0.404914 -0.799230
vn 0.067681 0.059977 0.995903
vn -0.743060 0.115457 0.659190
vn -0.841402 0.371476 -0.392489
vn -0.418487 0.258150 -0.870763
vn 0.056761 0.177159 0.982544
vn 0.135719 0.102884 0.985391
vn -0.784351 0.189000 0.590824
vn -0.736108 0.199309 0.646855
vn -0.598514 0.336098 0.727199
vn -0.977789 0.111574 -0.177429
vn -0.298935 0.144303 -0.943300
vn -0.865962 0.303905 -0.397180
vn -0.747353 0.101525 -0.656625
vn -0.297591 0.162531 -0.940757
vn 0.123577 -0.088786 -0.988355
vn -0.171480 0.012591 0.985107
vn -0.634308 0.515520 0.576102
vn -0.833183 -0.541539 0.111989
vn -0.508036 0.313148 -0.802395
vn -0.427645 -0.015531 0.903813
vn -0.605561 0.780566 -0.154961
vn -0.565593 0.546917 0.617241
vn -0.759086 0.230310 -0.608889
vn -0.741764 0.669362 -0.041729
vn 0.577883 -0.406011 -0.707959
vn 0.710293 0.689795 -0.140235
vn -0.866249 -0.498984 0.025056
vn -0.933544 -0.241642 0.264774
vn -0.508905 -0.371292 0.776632
vn -0.332913 -0.018286 0.942780
vn -0.991878 -0.106725 -0.069192
vn -0.941476 -0.169710 -0.291242
vn -0.880653 -0.162296 -0.445096
vn -0.315660 -0.852889 0.415860
vn -0.374759 0.095112 0.922231
vn -0.975537 -0.031347 0.217590
vn -0.998057 0.054476 0.030249
vn 0.002906 0.850694 0.525653
vn -0.616605 0.261581 0.742545
vn -0.788420 0.295436 0.539547
vn -0.798795 0.302523 0.520007
vn -0.626130 -0.419192 0.657449
vn -0.479492 -0.488551 0.728976
vn -0.092265 0.872488 0.479845
vn -0.180192 -0.126995 0.975399
vn -0.402034 -0.742147 0.536271
vn -0.770483 -0.031189 0.636698
vn -0.408684 -0.816763 -0.407278
vn -0.965024 -0.151711 0.213803
vn -0.099149 -0.977114 -0.188195
vn -0.760854 0.014071 0.648770
vn -0.930902 -0.028766 0.364135
vn -0.293531 -0.915656 -0.274614
vn -0.549465 -0.137355 0.824149
vn -0.927058 0.139999 -0.347800
vn -0.831035 0.296606 -0.470538
vn -0.875655 -0.315178 0.365911
vn -0.353038 -0.511096 0.783674
vn -0.923247 -0.140082 0.357759
vn -0.256598 -0.400339 0.879708
vn -0.577713 0.686260 0.441922
vn -0.994880 0.100575 0.009923
vn -0.885877 0.460546 0.055847
vn -0.775277 0.616403 0.137815
vn -0.637713 0.249317 0.728809
vn -0.372270 0.510834 -0.774896
vn -0.213048 0.617247 -0.757375
vn -0.083782 0.995204 -0.050501
vn 0.063912 0.982164 -0.176833
vn -0.907434 0.013816 0.419967
vn -0.494336 0.611886 0.617436
vn -0.705057 0.296951 -0.643984
vn -0.561068 0.811397 -0.163825
vn 0.924097 -0.303828 0.231803
vn -0.800901 0.508182 0.316716
vn -0.631701 0.438794 -0.639072
vn 0.358913 -0.588567 -0.724410
vn -0.261851 -0.157139 0.952230
vn 0.307528 -0.445521 -0.840796
vn 0.280829 -0.438816 -0.853566
vn -0.892471 -0.355923 -0.277153
vn -0.888609 -0.355281 -0.290085
vn -0.843777 0.148789 0.515657
vn -0.825666 0.153603 0.542845
vn -0.063608 0.819699 0.569251
vn 0.222110 0.732075 0.643998
vn 0.830974 0.501241 -0.241328
vn 0.893209 0.425233 0.146130
vn 0.277498 -0.416328 -0.865832
vn 0.269961 -0.434547 -0.859238
vn -0.905249 -0.263139 -0.333590
vn -0.874096 -0.354621 -0.331964
vn -0.836212 -0.090355 0.540913
vn -0.818788 -0.097286 0.565793
vn 0.123484 0.458294 0.880181
vn 0.930600 -0.287197 0.226940
vn 0.641760 0.335841 -0.689460
vn 0.369849 -0.518710 -0.770812
vn -0.868520 -0.341256 -0.359468
vn -0.788079 0.252062 -0.561601
vn -0.947708 0.135145 0.289112
vn -0.838869 -0.077787 0.538747
vn -0.428250 -0.510727 0.745493
vn 0.068717 -0.344373 0.936315
vn 0.997349 0.054732 -0.047946
vn -0.891864 -0.334111 -0.304875
vn 0.270863 -0.419712 -0.866299
vn 0.972334 0.159684 0.170491
vn 0.353632 0.118872 0.927800
vn 0.936656 -0.001634 0.350246
vn 0.098308 -0.130260 0.986594
vn -0.748801 0.199014 -0.632210
vn 0.266721 0.128277 -0.955199
vn 0.464981 -0.537389 -0.703567
vn 0.351291 -0.559720 -0.750539
vn -0.641619 -0.706571 -0.298466
vn -0.817595 -0.558738 -0.139104
vn -0.756657 -0.002330 0.653808
vn -0.800678 -0.025076 0.598570
vn 0.016188 0.443944 0.895908
vn 0.078700 0.477776 0.874949
vn 0.981746 0.190194 0.000076
vn 0.981203 0.192969 0.001889
vn -0.514396 -0.553574 0.654944
vn 0.391103 0.121264 0.912323
vn 0.020521 0.928567 0.370598
vn 0.169162 0.886680 0.430329
vn 0.138548 0.889866 0.434675
vn 0.314097 0.712236 0.627744
vn 0.404404 0.679591 0.612056
vn -0.773359 -0.043180 0.632496
vn -0.854358 -0.358487 0.376244
vn 0.409800 -0.446570 -0.795386
vn -0.008237 -0.978922 -0.204066
vn 0.499238 -0.538566 -0.678755
vn 0.401365 -0.579344 -0.709413
vn 0.724407 -0.567471 -0.391422
vn 0.548851 0.703025 -0.452236
vn -0.172116 0.869585 0.462816
vn 0.093000 0.612826 0.784726
vn 0.884901 -0.024234 -0.465149
vn 0.903405 -0.028403 -0.427846
vn -0.830767 -0.193190 0.522019
vn -0.854456 -0.172584 0.490020
vn 0.092999 0.596630 0.797110
vn -0.729267 -0.294356 0.617677
vn -0.635187 -0.607967 -0.476356
vn -0.524035 -0.679728 -0.513184
vn 0.896175 -0.023384 -0.443085
vn -0.854026 0.085422 0.513169
vn 0.924947 -0.159720 -0.344909
vn 0.341391 -0.246282 -0.907082
vn -0.751546 -0.384383 -0.536124
vn 0.154996 -0.164251 0.974165
vn -0.880112 -0.120126 0.459318
vn -0.599605 -0.456314 -0.657458
vn -0.434942 0.567155 0.699400
vn -0.445813 0.554316 0.702840
vn 0.912539 -0.057211 -0.404968
vn 0.070414 0.616769 0.783989
vn -0.786498 -0.269662 0.555610
vn -0.571949 -0.736579 -0.361007
vn 0.895462 0.270990 -0.353146
vn -0.557139 0.713232 -0.425319
vn -0.590291 0.685110 -0.426827
vn -0.817055 -0.247415 0.520776
vn -0.793058 -0.322609 0.516703
vn 0.608418 -0.569097 0.553134
vn 0.528839 -0.651238 0.544259
vn -0.898148 -0.347456 0.269453
vn 0.563863 -0.460285 0.685709
vn -0.538900 0.270935 -0.797609
vn -0.766595 -0.512146 0.387348
vn -0.740115 -0.400387 0.540296
vn 0.510619 -0.571549 0.642339
vn -0.857875 -0.106624 0.502675
vn 0.565308 -0.702783 0.431884
vn 0.859787 0.363152 -0.359008
vn -0.787255 -0.177383 0.590563
vn 0.606148 -0.453235 0.653577
vn -0.802123 -0.189876 0.566168
vn -0.725423 0.291386 -0.623583
vn -0.567913 0.177101 -0.803810
vn 0.126749 0.189491 -0.973667
vn 0.686326 -0.088340 -0.721909
vn 0.623104 -0.470437 0.624844
vn 0.953696 -0.111575 -0.279312
vn -0.561666 0.792073 -0.239066
vn -0.824094 -0.221840 0.521206
vn 0.587958 -0.620234 0.519245
vn 0.870954 0.431782 -0.234531
vn -0.774042 0.473235 -0.420604
vn 0.917652 0.137148 -0.372967
vn 0.873569 0.171745 -0.455392
vn -0.578462 0.501712 -0.643170
vn -0.806692 -0.458101 0.373351
vn -0.911857 -0.266478 0.312259
vn 0.617666 -0.660907 0.426252
vn 0.589031 -0.682035 0.433441
vn 0.876856 0.458933 -0.143193
vn 0.182928 0.787579 -0.588436
vn 0.956651 -0.248148 -0.152449
vn -0.895670 0.372002 -0.243699
vn -0.103101 -0.630719 -0.769132
vn -0.148124 -0.636234 -0.757143
vn -0.633775 0.326124 0.701407
vn -0.559875 0.802143 -0.207623
vn 0.689592 -0.086830 0.718973
vn -0.586486 0.241588 0.773091
vn 0.705114 -0.078663 0.704717
vn -0.125436 -0.447118 -0.885636
vn -0.045674 -0.393903 -0.918017
vn -0.521499 0.329004 0.787271
vn -0.233374 -0.516733 0.823726
vn 0.687285 0.002256 0.726384
vn 0.155325 -0.927285 -0.340612

f 1/1/1 2/2/1 3/3/1
f 4/4/2 5/5/2 6/6/2
f 4/4/3 6/7/3 7/8/3
f 5/9/4 8/10/4 9/11/4
f 10/12/5 11/13/5 9/14/5
f 6/6/6 11/15/6 7/8/6
f 6/6/7 12/16/7 11/13/7
f 12/17/8 5/5/8 9/14/8
f 6/6/9 5/5/9 12/17/9
f 11/13/10 12/18/10 9/19/10
f 13/20/11 14/21/11 15/22/11
f 14/21/12 13/20/12 16/23/12
f 16/24/13 13/20/13 17/25/13
f 15/22/14 14/21/14 18/26/14
f 14/21/15 19/27/15 18/26/15
f 18/26/16 20/28/16 21/29/16
f 18/26/17 19/27/17 20/28/17
f 20/28/18 3/30/18 21/29/18
f 5/9/19 22/31/19 23/32/19
f 24/33/20 25/34/20 26/35/20
f 27/36/21 25/34/21 9/37/21
f 28/38/22 27/39/22 29/40/22
f 30/41/23 25/34/23 24/33/23
f 25/34/24 30/41/24 10/42/24
f 30/41/25 24/33/25 31/43/25
f 24/33/26 26/44/26 32/45/26
f 33/46/27 34/47/27 5/9/27
f 4/4/28 22/31/28 5/9/28
f 26/35/29 25/34/29 27/39/29
f 33/46/30 35/48/30 34/47/30
f 32/45/31 26/35/31 28/38/31
f 23/32/32 33/46/32 5/9/32
f 26/35/33 27/39/33 28/38/33
f 28/38/34 29/40/34 36/49/34
f 35/50/35 37/51/35 29/40/35
f 28/38/36 38/52/36 32/45/36
f 36/49/37 38/52/37 28/38/37
f 36/49/38 37/53/38 39/54/38
f 39/55/39 37/56/39 40/57/39
f 41/58/40 42/59/40 39/55/40
f 39/55/41 40/57/41 41/58/41
f 36/49/42 29/40/42 37/51/42
f 37/56/43 35/48/43 33/46/43
f 37/56/44 33/46/44 40/57/44
f 40/57/45 33/46/45 43/60/45
f 40/57/46 43/60/46 41/58/46
f 33/46/47 23/32/47 43/60/47
f 44/61/48 45/62/48 30/63/48
f 15/64/49 46/65/49 45/62/49
f 46/66/50 47/67/50 10/68/50
f 47/67/51 7/69/51 11/70/51
f 45/62/52 44/61/52 17/71/52
f 44/61/53 30/63/53 31/72/53
f 13/73/54 15/64/54 45/62/54
f 46/65/55 10/74/55 45/62/55
f 45/62/56 10/74/56 30/63/56
f 47/67/57 11/70/57 10/68/57
f 47/67/58 48/75/58 7/69/58
f 46/66/59 15/76/59 47/67/59
f 18/77/60 47/67/60 15/76/60
f 47/67/61 18/77/61 48/75/61
f 18/77/62 21/78/62 48/75/62
f 13/73/63 45/62/63 17/71/63
f 49/79/64 35/50/64 29/40/64
f 8/80/65 27/81/65 9/82/65
f 34/47/66 50/83/66 5/84/66
f 27/36/67 49/79/67 29/40/67
f 35/48/68 51/85/68 52/86/68
f 35/50/69 49/79/69 51/87/69
f 52/86/70 50/83/70 34/47/70
f 35/48/71 52/86/71 34/47/71
f 5/84/72 50/83/72 8/10/72
f 53/88/73 27/81/73 8/80/73
f 53/88/74 49/79/74 27/36/74
f 54/89/75 55/90/75 56/91/75
f 57/92/76 55/90/76 58/93/76
f 59/94/77 60/95/77 55/90/77
f 61/96/78 54/89/78 56/91/78
f 39/97/79 61/96/79 36/98/79
f 36/98/80 61/96/80 56/91/80
f 36/98/81 56/91/81 38/99/81
f 62/100/82 63/101/82 64/102/82
f 65/103/83 64/102/83 54/89/83
f 61/96/84 65/103/84 54/89/84
f 66/104/85 67/105/85 62/100/85
f 55/90/86 60/95/86 68/106/86
f 69/107/87 68/106/87 60/95/87
f 69/107/88 70/108/88 68/106/88
f 58/109/89 55/90/89 68/106/89
f 68/106/90 71/110/90 58/111/90
f 62/100/91 67/105/91 63/101/91
f 64/102/92 63/101/92 69/107/92
f 70/108/93 71/110/93 68/106/93
f 58/111/94 71/110/94 72/112/94
f 56/91/95 57/92/95 38/113/95
f 55/90/96 57/114/96 56/91/96
f 73/115/97 74/116/97 38/113/97
f 58/109/98 72/112/98 73/115/98
f 57/117/99 58/111/99 73/115/99
f 57/92/100 73/115/100 38/113/100
f 73/115/101 72/112/101 74/116/101
f 39/97/102 75/118/102 61/96/102
f 75/118/103 39/97/103 76/119/103
f 64/102/104 59/94/104 54/89/104
f 64/102/105 60/95/105 59/94/105
f 54/89/106 59/94/106 55/90/106
f 64/102/107 69/107/107 60/95/107
f 65/103/108 66/104/108 62/100/108
f 65/103/109 61/96/109 75/118/109
f 75/118/110 76/119/110 65/103/110
f 66/104/111 65/103/111 76/119/111
f 62/100/112 64/102/112 65/103/112
f 39/97/113 42/120/113 76/119/113
f 77/121/114 76/119/114 42/120/114
f 67/105/115 76/119/115 77/121/115
f 66/104/116 76/119/116 67/105/116
f 9/82/117 25/34/117 10/42/117
f 51/122/118 49/123/118 78/124/118
f 79/125/119 50/126/119 52/127/119
f 52/127/120 51/122/120 79/125/120
f 80/128/121 81/129/121 53/130/121
f 51/122/122 78/124/122 79/125/122
f 82/131/123 50/126/123 79/125/123
f 50/126/124 82/131/124 8/132/124
f 53/133/125 78/124/125 49/123/125
f 83/134/126 84/135/126 85/136/126
f 84/135/127 83/134/127 86/137/127
f 86/137/128 87/138/128 84/135/128
f 88/139/129 84/135/129 87/138/129
f 87/138/130 89/140/130 88/139/130
f 90/141/131 88/139/131 89/140/131
f 91/142/132 92/143/132 90/141/132
f 90/141/133 89/140/133 91/142/133
f 85/136/134 92/144/134 91/145/134
f 91/145/135 83/134/135 85/136/135
f 80/128/136 93/146/136 83/134/136
f 94/147/137 83/134/137 93/146/137
f 93/146/138 87/138/138 94/147/138
f 87/138/139 93/146/139 95/148/139
f 95/148/140 96/149/140 87/138/140
f 89/140/141 87/138/141 96/149/141
f 97/150/142 91/142/142 89/140/142
f 97/151/143 81/129/143 80/128/143
f 8/132/144 82/131/144 80/128/144
f 93/146/145 80/128/145 98/152/145
f 98/152/146 95/148/146 93/146/146
f 95/148/147 82/131/147 79/125/147
f 79/125/148 78/124/148 95/148/148
f 96/149/149 95/148/149 78/124/149
f 78/124/150 53/133/150 81/153/150
f 81/153/151 96/149/151 78/124/151
f 80/128/152 53/130/152 8/154/152
f 94/147/153 87/138/153 86/137/153
f 86/137/154 83/134/154 94/147/154
f 97/151/155 83/134/155 91/145/155
f 89/140/156 96/149/156 97/150/156
f 80/128/157 83/134/157 97/151/157
f 81/153/158 97/150/158 96/149/158
f 82/131/159 95/148/159 98/152/159
f 98/152/160 80/128/160 82/131/160
f 85/136/161 99/155/161 100/156/161
f 99/155/162 85/136/162 84/135/162
f 84/135/163 101/157/163 99/155/163
f 101/157/164 84/135/164 88/139/164
f 88/139/165 90/141/165 101/157/165
f 102/158/166 101/157/166 90/141/166
f 90/141/167 103/159/167 102/158/167
f 103/159/168 90/141/168 92/143/168
f 92/144/169 85/136/169 103/160/169
f 100/156/170 103/160/170 85/136/170
f 104/161/171 105/162/171 106/163/171
f 107/164/172 106/163/172 108/165/172
f 109/166/173 110/167/173 103/168/173
f 109/166/174 111/169/174 104/161/174
f 104/161/175 110/167/175 109/166/175
f 104/161/176 111/169/176 112/170/176
f 113/171/177 112/170/177 111/169/177
f 106/163/178 110/167/178 104/161/178
f 104/161/179 112/170/179 105/162/179
f 105/172/180 113/173/180 111/174/180
f 113/173/181 105/172/181 112/175/181
f 105/172/182 111/174/182 109/176/182
f 109/176/183 106/177/183 105/172/183
f 109/176/184 100/178/184 106/177/184
f 103/179/185 100/178/185 109/176/185
f 102/180/186 103/168/186 110/167/186
f 106/163/187 114/181/187 108/165/187
f 115/182/188 116/183/188 106/177/188
f 116/184/189 117/185/189 118/186/189
f 108/165/190 114/181/190 119/187/190
f 119/187/191 120/188/191 108/165/191
f 118/189/192 121/190/192 114/191/192
f 114/191/193 121/190/193 117/192/193
f 116/193/194 115/194/194 119/187/194
f 120/188/195 119/187/195 115/194/195
f 121/195/196 118/186/196 117/185/196
f 108/165/197 101/196/197 102/180/197
f 115/182/198 106/177/198 100/178/198
f 100/178/199 99/197/199 115/182/199
f 120/188/200 99/198/200 101/196/200
f 106/163/201 107/164/201 110/167/201
f 108/165/202 120/188/202 101/196/202
f 120/188/203 115/194/203 99/198/203
f 107/164/204 102/180/204 110/167/204
f 102/180/205 107/164/205 108/165/205
f 118/199/206 106/177/206 116/183/206
f 114/181/207 106/163/207 118/200/207
f 114/191/208 117/192/208 119/201/208
f 117/192/209 116/202/209 119/201/209
f 122/203/210 123/204/210 124/205/210
f 125/206/211 126/207/211 123/208/211
f 125/206/212 123/208/212 127/209/212
f 125/210/213 128/211/213 126/212/213
f 128/211/214 129/213/214 126/212/214
f 128/214/215 124/215/215 129/216/215
f 122/217/216 124/215/216 128/214/216
f 130/218/217 128/211/217 125/219/217
f 131/220/218 122/221/218 130/222/218
f 132/223/219 125/224/219 127/225/219
f 132/226/220 131/227/220 125/219/220
f 133/228/221 131/227/221 132/226/221
f 133/229/222 122/221/222 131/220/222
f 130/218/223 125/219/223 131/227/223
f 128/214/224 130/222/224 122/221/224
f 127/209/225 123/204/225 122/203/225
f 16/230/226 133/228/226 14/231/226
f 16/232/227 3/3/227 133/229/227
f 14/231/228 133/228/228 132/226/228
f 14/233/229 132/223/229 19/234/229
f 132/223/230 127/225/230 19/234/230
f 20/235/231 19/234/231 127/225/231
f 20/235/232 127/225/232 122/236/232
f 3/3/233 122/221/233 133/229/233
f 3/237/234 20/235/234 122/236/234
f 134/238/235 135/239/235 136/240/235
f 137/241/236 135/242/236 134/243/236
f 138/244/237 139/245/237 137/246/237
f 138/247/238 136/248/238 139/249/238
f 134/238/239 136/240/239 123/208/239
f 138/247/240 123/250/240 136/248/240
f 123/250/241 138/247/241 124/251/241
f 134/238/242 123/208/242 126/252/242
f 129/253/243 134/243/243 126/254/243
f 137/241/244 134/243/244 129/253/244
f 138/244/245 137/246/245 129/255/245
f 138/244/246 129/255/246 124/256/246
f 136/257/247 140/258/247 139/259/247
f 136/257/248 141/260/248 140/258/248
f 142/261/249 139/259/249 140/258/249
f 135/262/250 143/263/250 141/260/250
f 141/264/251 143/265/251 142/266/251
f 142/266/252 140/267/252 141/264/252
f 137/268/253 143/263/253 135/262/253
f 135/262/254 141/260/254 136/257/254
f 139/259/255 142/261/255 137/268/255
f 137/268/256 144/269/256 143/263/256
f 137/268/257 142/261/257 144/269/257
f 143/265/258 145/270/258 146/271/258
f 146/271/259 142/266/259 143/265/259
f 143/263/260 144/269/260 145/272/260
f 144/269/261 146/273/261 145/272/261
f 146/273/262 144/269/262 142/261/262
f 3/274/263 16/275/263 17/276/263
f 147/5/264 4/4/264 148/6/264
f 148/7/265 4/4/265 7/8/265
f 149/10/266 147/9/266 150/11/266
f 151/13/267 152/12/267 150/14/267
f 151/15/268 148/6/268 7/8/268
f 153/16/269 148/6/269 151/13/269
f 147/5/270 153/17/270 150/14/270
f 147/5/271 148/6/271 153/17/271
f 153/18/272 151/13/272 150/19/272
f 154/21/273 155/20/273 156/22/273
f 155/20/274 154/21/274 157/23/274
f 155/20/275 157/24/275 17/25/275
f 154/21/276 156/22/276 158/26/276
f 159/27/277 154/21/277 158/26/277
f 160/28/278 158/26/278 21/29/278
f 159/27/279 158/26/279 160/28/279
f 3/30/280 160/28/280 21/29/280
f 22/31/281 147/9/281 23/32/281
f 161/34/282 24/33/282 162/35/282
f 161/34/283 163/36/283 150/37/283
f 163/39/284 164/38/284 165/40/284
f 161/34/285 166/41/285 24/33/285
f 166/41/286 161/34/286 152/42/286
f 24/33/287 166/41/287 31/43/287
f 162/44/288 24/33/288 32/45/288
f 167/47/289 168/46/289 147/9/289
f 22/31/290 4/4/290 147/9/290
f 161/34/291 162/35/291 163/39/291
f 169/48/292 168/46/292 167/47/292
f 162/35/293 32/45/293 164/38/293
f 168/46/294 23/32/294 147/9/294
f 163/39/295 162/35/295 164/38/295
f 165/40/296 164/38/296 170/49/296
f 171/51/297 169/50/297 165/40/297
f 38/52/298 164/38/298 32/45/298
f 38/52/299 170/49/299 164/38/299
f 171/53/300 170/49/300 172/54/300
f 171/56/301 172/55/301 173/57/301
f 42/59/302 41/58/302 172/55/302
f 173/57/303 172/55/303 41/58/303
f 165/40/304 170/49/304 171/51/304
f 169/48/305 171/56/305 168/46/305
f 168/46/306 171/56/306 173/57/306
f 168/46/307 173/57/307 43/60/307
f 43/60/308 173/57/308 41/58/308
f 23/32/309 168/46/309 43/60/309
f 174/62/310 44/61/310 166/63/310
f 175/65/311 156/64/311 174/62/311
f 176/67/312 175/66/312 152/68/312
f 7/69/313 176/67/313 151/70/313
f 44/61/314 174/62/314 17/71/314
f 166/63/315 44/61/315 31/72/315
f 156/64/316 155/73/316 174/62/316
f 152/74/317 175/65/317 174/62/317
f 152/74/318 174/62/318 166/63/318
f 151/70/319 176/67/319 152/68/319
f 48/75/320 176/67/320 7/69/320
f 156/76/321 175/66/321 176/67/321
f 176/67/322 158/77/322 156/76/322
f 158/77/323 176/67/323 48/75/323
f 21/78/324 158/77/324 48/75/324
f 174/62/325 155/73/325 17/71/325
f 169/50/326 177/79/326 165/40/326
f 163/81/327 149/80/327 150/82/327
f 178/83/328 167/47/328 147/84/328
f 177/79/329 163/36/329 165/40/329
f 179/85/330 169/48/330 180/86/330
f 177/79/331 169/50/331 179/87/331
f 178/83/332 180/86/332 167/47/332
f 180/86/333 169/48/333 167/47/333
f 178/83/334 147/84/334 149/10/334
f 163/81/335 181/88/335 149/80/335
f 177/79/336 181/88/336 163/36/336
f 182/90/337 183/89/337 184/91/337
f 182/90/338 185/92/338 186/93/338
f 187/95/339 188/94/339 182/90/339
f 183/89/340 189/96/340 184/91/340
f 189/96/341 172/97/341 170/98/341
f 189/96/342 170/98/342 184/91/342
f 184/91/343 170/98/343 38/99/343
f 63/101/344 190/100/344 191/102/344
f 191/102/345 192/103/345 183/89/345
f 192/103/346 189/96/346 183/89/346
f 67/105/347 193/104/347 190/100/347
f 187/95/348 182/90/348 194/106/348
f 194/106/349 69/107/349 187/95/349
f 70/108/350 69/107/350 194/106/350
f 182/90/351 186/109/351 194/106/351
f 71/110/352 194/106/352 186/111/352
f 67/105/353 190/100/353 63/101/353
f 63/101/354 191/102/354 69/107/354
f 71/110/355 70/108/355 194/106/355
f 71/110/356 186/111/356 72/112/356
f 185/92/357 184/91/357 38/113/357
f 185/114/358 182/90/358 184/91/358
f 74/116/359 195/115/359 38/113/359
f 72/112/360 186/109/360 195/115/360
f 186/111/361 185/117/361 195/115/361
f 195/115/362 185/92/362 38/113/362
f 72/112/363 195/115/363 74/116/363
f 196/118/364 172/97/364 189/96/364
f 172/97/365 196/118/365 197/119/365
f 188/94/366 191/102/366 183/89/366
f 187/95/367 191/102/367 188/94/367
f 188/94/368 183/89/368 182/90/368
f 69/107/369 191/102/369 187/95/369
f 193/104/370 192/103/370 190/100/370
f 189/96/371 192/103/371 196/118/371
f 197/119/372 196/118/372 192/103/372
f 192/103/373 193/104/373 197/119/373
f 191/102/374 190/100/374 192/103/374
f 42/120/375 172/97/375 197/119/375
f 197/119/376 77/121/376 42/120/376
f 197/119/377 67/105/377 77/121/377
f 197/119/378 193/104/378 67/105/378
f 161/34/379 150/82/379 152/42/379
f 177/123/380 179/122/380 198/124/380
f 178/126/381 199/125/381 180/127/381
f 179/122/382 180/127/382 199/125/382
f 200/129/383 201/128/383 181/130/383
f 198/124/384 179/122/384 199/125/384
f 178/126/385 202/131/385 199/125/385
f 202/131/386 178/126/386 149/132/386
f 198/124/387 181/133/387 177/123/387
f 203/135/388 204/134/388 205/136/388
f 204/134/389 203/135/389 206/137/389
f 207/138/390 206/137/390 203/135/390
f 203/135/391 208/139/391 207/138/391
f 209/140/392 207/138/392 208/139/392
f 208/139/393 210/141/393 209/140/393
f 211/143/394 212/142/394 210/141/394
f 209/140/395 210/141/395 212/142/395
f 211/144/396 205/136/396 212/145/396
f 204/134/397 212/145/397 205/136/397
f 213/146/398 201/128/398 204/134/398
f 204/134/399 214/147/399 213/146/399
f 207/138/400 213/146/400 214/147/400
f 213/146/401 207/138/401 215/148/401
f 216/149/402 215/148/402 207/138/402
f 207/138/403 209/140/403 216/149/403
f 212/142/404 217/150/404 209/140/404
f 200/129/405 217/151/405 201/128/405
f 202/131/406 149/132/406 201/128/406
f 201/128/407 213/146/407 218/152/407
f 215/148/408 218/152/408 213/146/408
f 202/131/409 215/148/409 199/125/409
f 198/124/410 199/125/410 215/148/410
f 215/148/411 216/149/411 198/124/411
f 181/133/412 198/124/412 200/153/412
f 216/149/413 200/153/413 198/124/413
f 181/130/414 201/128/414 149/154/414
f 207/138/415 214/147/415 206/137/415
f 204/134/416 206/137/416 214/147/416
f 204/134/417 217/151/417 212/145/417
f 216/149/418 209/140/418 217/150/418
f 204/134/419 201/128/419 217/151/419
f 217/150/420 200/153/420 216/149/420
f 215/148/421 202/131/421 218/152/421
f 201/128/422 218/152/422 202/131/422
f 219/155/423 205/136/423 220/156/423
f 205/136/424 219/155/424 203/135/424
f 221/157/425 203/135/425 219/155/425
f 203/135/426 221/157/426 208/139/426
f 210/141/427 208/139/427 221/157/427
f 221/157/428 222/158/428 210/141/428
f 223/159/429 210/141/429 222/158/429
f 210/141/430 223/159/430 211/143/430
f 205/136/431 211/144/431 223/160/431
f 223/160/432 220/156/432 205/136/432
f 224/162/433 225/161/433 226/163/433
f 226/163/434 227/164/434 228/165/434
f 229/167/435 230/166/435 223/168/435
f 231/169/436 230/166/436 225/161/436
f 229/167/437 225/161/437 230/166/437
f 231/169/438 225/161/438 232/170/438
f 232/170/439 233/171/439 231/169/439
f 229/167/440 226/163/440 225/161/440
f 232/170/441 225/161/441 224/162/441
f 233/173/442 224/172/442 231/174/442
f 224/172/443 233/173/443 232/175/443
f 231/174/444 224/172/444 230/176/444
f 226/177/445 230/176/445 224/172/445
f 220/178/446 230/176/446 226/177/446
f 220/178/447 223/179/447 230/176/447
f 223/168/448 222/180/448 229/167/448
f 234/181/449 226/163/449 228/165/449
f 235/183/450 236/182/450 226/177/450
f 237/185/451 235/184/451 238/186/451
f 234/181/452 228/165/452 239/187/452
f 240/188/453 239/187/453 228/165/453
f 241/190/454 238/189/454 234/191/454
f 241/190/455 234/191/455 237/192/455
f 236/194/456 235/193/456 239/187/456
f 239/187/457 240/188/457 236/194/457
f 238/186/458 241/195/458 237/185/458
f 221/196/459 228/165/459 222/180/459
f 226/177/460 236/182/460 220/178/460
f 219/197/461 220/178/461 236/182/461
f 219/198/462 240/188/462 221/196/462
f 227/164/463 226/163/463 229/167/463
f 240/188/464 228/165/464 221/196/464
f 236/194/465 240/188/465 219/198/465
f 222/180/466 227/164/466 229/167/466
f 227/164/467 222/180/467 228/165/467
f 226/177/468 238/199/468 235/183/468
f 226/163/469 234/181/469 238/200/469
f 237/192/470 234/191/470 239/201/470
f 235/202/471 237/192/471 239/201/471
f 242/204/472 243/203/472 244/205/472
f 245/207/473 246/206/473 242/208/473
f 242/208/474 246/206/474 247/209/474
f 248/211/475 246/210/475 245/212/475
f 249/213/476 248/211/476 245/212/476
f 244/215/477 248/214/477 249/216/477
f 244/215/478 243/217/478 248/214/478
f 248/211/479 250/218/479 246/219/479
f 243/221/480 251/220/480 250/222/480
f 246/224/481 252/223/481 247/225/481
f 251/227/482 252/226/482 246/219/482
f 251/227/483 253/228/483 252/226/483
f 243/221/484 253/229/484 251/220/484
f 246/219/485 250/218/485 251/227/485
f 250/222/486 248/214/486 243/221/486
f 242/204/487 247/209/487 243/203/487
f 253/228/488 157/230/488 154/231/488
f 3/3/489 157/232/489 253/229/489
f 253/228/490 154/231/490 252/226/490
f 252/223/491 154/233/491 159/234/491
f 247/225/492 252/223/492 159/234/492
f 159/234/493 160/235/493 247/225/493
f 247/225/494 160/235/494 243/236/494
f 243/221/495 3/3/495 253/229/495
f 160/235/496 3/237/496 243/236/496
f 254/239/497 255/238/497 256/240/497
f 254/242/498 257/241/498 255/243/498
f 258/245/499 259/244/499 257/246/499
f 256/248/500 259/247/500 258/249/500
f 256/240/501 255/238/501 242/208/501
f 242/250/502 259/247/502 256/248/502
f 259/247/503 242/250/503 244/251/503
f 242/208/504 255/238/504 245/252/504
f 255/243/505 249/253/505 245/254/505
f 255/243/506 257/241/506 249/253/506
f 257/246/507 259/244/507 249/255/507
f 249/255/508 259/244/508 244/256/508
f 260/258/509 256/257/509 258/259/509
f 261/260/510 256/257/510 260/258/510
f 258/259/511 262/261/511 260/258/511
f 263/263/512 254/262/512 261/260/512
f 263/265/513 261/264/513 262/266/513
f 260/267/514 262/266/514 261/264/514
f 263/263/515 257/268/515 254/262/515
f 261/260/516 254/262/516 256/257/516
f 262/261/517 258/259/517 257/268/517
f 264/269/518 257/268/518 263/263/518
f 262/261/519 257/268/519 264/269/519
f 265/270/520 263/265/520 266/271/520
f 262/266/521 266/271/521 263/265/521
f 264/269/522 263/263/522 265/272/522
f 266/273/523 264/269/523 265/272/523
f 264/269/524 266/273/524 262/261/524
f 157/275/525 3/274/525 17/276/525

o 
usemtl axe.001
s off

v 11.314190 71.480888 29.055809
v 8.795671 64.972969 26.836628
v 13.085400 67.531143 36.426010
v 11.547461 65.522095 34.240078
v 13.393730 65.867973 37.737671
v 11.855780 63.858910 35.551743
v 13.881281 57.633472 39.976589
v 10.402260 56.306702 33.671299
v 14.312969 75.398239 33.318058
v 16.880060 61.550823 44.238831
v 17.792000 76.725014 39.623352
v 14.623350 69.540199 38.611950
v 14.931680 67.877022 39.923599
v 19.398579 68.058731 46.458019
v 13.262569 65.154694 33.371052
v 14.800520 67.163742 35.556980
v 13.570900 63.491520 34.682709
v 15.108850 65.500557 36.868637
v 16.338470 69.172775 37.742912
v 16.646801 67.509621 39.054569
v -3.799470 45.474182 12.427080
v -3.491140 43.811012 13.738739
v -1.776020 43.443600 12.869710
v -2.084340 45.106770 11.558050
v 18.873751 72.755646 43.436478
v -19.492550 22.908138 -9.004490
v -17.777420 22.540741 -9.873520
v -18.085751 24.203911 -11.185189
v -19.800871 24.571321 -10.316160

vt 0.033358 0.643728
vt 0.190411 0.923560
vt 0.402692 0.503812
vt 0.402692 0.647326
vt 0.408249 0.287497
vt 0.408249 0.367848
vt 0.492649 0.287497
vt 0.492649 0.367848
vt 0.403043 0.503812
vt 0.403044 0.647326
vt 0.033710 0.643728
vt 0.190763 0.923560
vt 0.033358 0.363896
vt 0.033710 0.363896
vt 0.190411 0.084064
vt 0.402692 0.360297
vt 0.408249 0.207147
vt 0.492649 0.207147
vt 0.403043 0.360297
vt 0.190763 0.084064
vt 0.408248 1.036942
vt 0.492649 1.036942
vt 0.483600 0.371280
vt 0.402049 0.371280
vt 0.402049 1.040375
vt 0.483600 1.040375
vt 0.450449 0.037941
vt 0.483600 0.210579
vt 0.402049 0.210579
vt 0.442825 0.041374
vt 0.000000 1.000000

vn -0.909162 0.234485 0.344153
vn -0.886786 0.348327 0.303773
vn -0.876176 0.187690 0.443946
vn -0.851585 0.089995 0.516434
vn -0.878928 0.051087 0.474210
vn -0.887271 0.282494 0.364620
vn -0.856264 0.320619 0.404989
vn -0.825642 0.018502 0.563890
vn -0.831592 0.138410 0.537864
vn 0.825642 -0.018502 -0.563891
vn 0.831592 -0.138411 -0.537864
vn 0.876175 -0.187691 -0.443948
vn 0.856264 -0.320618 -0.404990
vn 0.887270 -0.282494 -0.364622
vn 0.851585 -0.089995 -0.516434
vn 0.878928 -0.051087 -0.474210
vn 0.909162 -0.234484 -0.344152
vn 0.886787 -0.348327 -0.303773
vn -0.145837 -0.981126 0.126978
vn -0.381824 0.291840 -0.876949
vn 0.145832 0.981127 -0.126975
vn 0.381825 -0.291840 0.876949
vn -0.144043 0.777008 -0.612789
vn 0.144048 -0.777009 0.612786
vn -0.804503 0.268627 0.529730
vn 0.931160 -0.103175 -0.349709
vn 0.211530 -0.677893 0.704071
vn -0.073287 0.858476 -0.507590
vn -0.459965 -0.600858 -0.653759

f 267/277/526 268/278/526 269/279/526
f 270/280/527 269/279/527 268/278/527
f 269/281/528 270/282/528 271/283/528
f 272/284/528 271/283/528 270/282/528
f 271/285/529 272/286/529 273/287/529
f 274/288/530 273/287/530 272/286/530
f 275/289/531 267/277/531 269/279/531
f 273/287/529 276/290/529 271/285/529
f 277/291/532 275/289/532 278/292/532
f 269/279/531 278/292/531 275/289/531
f 278/293/528 269/281/528 279/294/528
f 271/283/528 279/294/528 269/281/528
f 279/295/533 271/285/533 280/296/533
f 276/290/534 280/296/534 271/285/534
f 281/280/535 268/278/535 282/279/535
f 267/277/536 282/279/536 268/278/536
f 283/284/537 281/282/537 284/283/537
f 282/281/537 284/283/537 281/282/537
f 274/288/538 283/286/538 273/287/538
f 284/285/539 273/287/539 283/286/539
f 282/279/540 267/277/540 275/289/540
f 273/287/539 284/285/539 276/290/539
f 282/279/540 275/289/540 285/292/540
f 277/291/541 285/292/541 275/289/541
f 284/283/537 282/281/537 286/294/537
f 285/293/537 286/294/537 282/281/537
f 276/290/542 284/285/542 280/296/542
f 286/295/543 280/296/543 284/285/543
f 270/280/544 268/278/544 281/280/544
f 283/286/545 274/288/545 272/286/545
f 279/295/546 280/296/546 286/295/546
f 285/292/547 277/291/547 278/292/547
f 272/284/528 270/282/528 287/297/528
f 287/297/528 288/298/528 272/284/528
f 281/282/537 283/284/537 289/298/537
f 289/298/537 290/297/537 281/282/537
f 270/299/548 281/300/548 290/301/548
f 290/301/548 287/302/548 270/299/548
f 283/300/549 272/299/549 288/302/549
f 288/302/549 289/301/549 283/300/549
f 278/293/550 279/294/550 291/303/550
f 286/294/551 285/293/551 291/303/551
f 279/304/552 286/305/552 291/306/552
f 285/305/553 278/304/553 291/306/553
f 289/298/549 288/297/549 292/298/549 293/307/549
f 287/297/548 290/298/548 294/297/548 295/307/548
f 290/297/537 289/298/537 293/297/537 294/307/537
f 288/298/528 287/297/528 295/298/528 292/307/528
f 294/297/554 293/298/554 295/297/554
f 292/298/554 295/297/554 293/298/554

