mtllib anim_barb_attack_000070.mtl

o fat
usemtl fat.001
s off

v -0.137810 38.707630 -3.609700
v 1.860240 36.144421 6.136090
v 0.318890 37.897259 1.509700
v 0.410170 61.276569 -7.659290
v 9.299520 67.097824 -5.557150
v 2.812830 57.450310 -7.080760
v -0.362600 52.988831 -5.506040
v 7.890250 62.894512 -1.685520
v 7.702180 58.224022 -1.209390
v 6.919220 52.675129 -1.430930
v 4.142630 52.885433 -5.555920
v 6.403020 58.282478 -6.239040
v 9.003679 37.503830 4.882100
v 9.352560 39.503929 -1.692810
v 10.561490 39.008938 -2.167630
v 6.412290 38.411011 4.749200
v 3.993900 37.038410 7.078080
v 4.408740 37.296768 -6.691820
v 3.744780 39.182671 -5.718980
v 0.502520 38.465221 -4.570250
v -0.321370 36.005028 -5.193140
v 0.201120 66.850807 -6.835170
v 0.170300 68.882500 -6.524690
v 0.128960 58.211014 6.085230
v 5.379790 58.515320 3.713790
v 6.255160 62.451401 5.405750
v 8.980730 62.620121 2.964690
v 6.123870 65.217407 5.860680
v 11.318440 66.914764 1.622840
v 4.497020 52.921299 4.054040
v 1.102870 51.781090 4.558820
v 0.791740 64.792717 7.569620
v 4.825240 71.357979 -2.607330
v 10.748810 67.953682 -4.982240
v 11.536489 68.591522 -1.355840
v 2.905110 69.812881 5.859200
v 5.512380 71.768288 1.663910
v 0.171630 68.871658 6.404881
v 2.663080 75.760712 4.068830
v 3.279240 74.055428 0.387830
v 0.247260 74.354866 -0.410020
v 0.175950 76.638931 2.971410
v 0.334850 72.664810 -2.567790
v 0.489180 48.106598 5.323210
v 5.364230 48.318821 5.032270
v 8.418850 47.967072 -0.145200
v 4.990360 47.376553 -5.345540
v -0.188040 47.507782 -6.681200
v 11.740921 66.305000 1.500030
v 9.619800 63.715919 -5.469110
v 13.230551 65.782692 -1.128610
v 12.270620 66.314690 -4.152520
v 9.061920 64.377090 3.184550
v 2.581520 74.170982 9.351450
v 1.180830 72.354439 10.767690
v 2.894370 70.175117 7.099890
v 1.639600 68.730843 8.944350
v 0.698310 71.021202 10.453691
v 1.643460 74.326538 10.945690
v -0.144470 74.148689 11.182080
v 3.177320 75.995110 6.944330
v 0.535690 78.052185 12.058049
v -0.763210 77.952545 12.313470
v 1.701340 75.456429 11.799191
v 2.256590 77.476768 11.150060
v 1.223440 79.882950 9.653670
v -0.414440 79.915176 9.461240
v 0.269850 72.261398 11.283450
v -0.765430 74.826767 11.605100
v -0.900690 72.616257 12.373140
v -0.835060 72.162262 11.644220
v -0.843340 70.605560 11.359611
v 0.535200 67.974998 10.414320
v -0.861440 67.857147 10.890100
v 3.025130 78.285362 7.415040
v 2.543030 79.610802 7.098660
v -0.045170 80.076706 5.994160
v 13.524409 64.140686 1.532400
v 13.964109 63.320671 -2.089560
v 8.875820 57.447739 0.330930
v 10.606910 59.492996 4.084110
v 10.346189 60.778179 -4.156470
v 11.417160 53.560108 1.873280
v 11.672350 49.193977 2.689670
v 11.759050 51.268810 5.125790
v 14.410020 52.684708 0.185010
v 15.722370 55.211147 1.298900
v 14.968920 49.122009 2.662980
v 15.343241 55.441727 3.447150
v 16.466000 50.624527 4.795930
v 13.356629 53.859650 4.742170
v 15.005640 51.928059 6.525930
v 13.352990 55.252380 -0.948390
v 13.912279 54.099632 -0.528750
v 15.064321 60.062881 -0.797640
v 14.387819 60.846409 2.563720
v 12.665359 55.554272 4.394180
v 12.466980 57.263149 -2.811980
v 11.570930 44.572979 8.203939
v 11.753000 45.811249 9.627710
v 13.017189 44.110069 7.845880
v 14.284400 45.009422 8.922100
v 13.793850 46.088909 10.080339
v 14.866839 43.958687 14.713330
v 14.019099 43.621590 14.583189
v 13.927090 43.607552 13.273391
v 14.686170 43.748631 12.692020
v 14.638520 42.068649 12.466040
v 13.883671 45.695511 13.248390
v 14.742630 44.593880 13.254251
v 14.158120 44.655640 15.185080
v 14.621771 43.123978 15.900690
v 14.048140 43.689644 16.148781
v 14.224930 40.725151 14.202310
v 10.177899 41.405701 10.606520
v 10.026600 39.932549 11.907769
v 10.317420 37.984261 14.068450
v 13.804840 41.884060 14.584860
v 10.952660 39.549011 11.579309
v 11.283450 40.788059 10.108260
v 13.481030 39.418709 16.579430
v 3.921370 26.185110 -1.198410
v 7.434230 20.078739 -8.039420
v 5.166040 18.265989 -3.181040
v 9.747220 27.029400 -2.524910
v 12.371830 19.901299 -4.716100
v 6.138390 27.294159 -5.154080
v 8.111240 23.823690 0.585710
v 9.179430 18.233601 -0.169770
v 7.888700 25.857571 1.490580
v 7.954090 28.199999 1.182500
v 10.529190 30.861000 -3.020420
v 7.679530 32.626709 3.628150
v 11.956281 9.266680 -6.561150
v 13.255100 6.595240 -7.423460
v 10.040030 7.218380 -9.291580
v 11.152040 7.139060 -4.343790
v 8.469630 8.502010 -6.058060
v 8.442730 5.372470 -6.540500
v 9.486020 2.071730 -9.915640
v 12.465940 2.791880 -10.425369
v 10.414320 1.715940 -1.462080
v 16.308090 3.258750 -2.577160
v 13.266920 4.319650 1.593350
v 16.005110 2.935590 1.571180
v 12.284350 1.925180 2.914110
v -9.565350 65.928581 -4.482800
v -1.892230 57.418270 -7.246270
v -5.919220 62.973751 0.733910
v -7.318430 58.118393 -1.117060
v -4.956670 52.829281 -4.010370
v -6.374790 52.180237 0.602610
v -5.753590 58.128620 -6.465310
v -9.006149 39.099751 0.146540
v -7.268270 36.710312 6.381600
v -10.268280 38.568779 -0.103860
v -4.827410 37.753212 5.750550
v -5.057970 37.184540 -5.883400
v -4.554060 39.161522 -5.030830
v -1.041260 38.408360 -4.636830
v -4.829290 58.393879 4.035320
v -5.086390 62.205902 6.285490
v -10.123590 62.619446 4.643200
v -4.769800 64.939873 6.903990
v -10.245930 67.764610 4.181660
v -2.454760 51.660179 4.638850
v -11.440520 67.118858 -2.784190
v -4.955480 71.253044 -2.270170
v -11.564520 68.541412 1.484230
v -2.595220 69.786827 5.881580
v -5.925910 71.782463 1.825190
v -2.505460 75.866951 3.588600
v -2.831450 74.103592 0.154620
v -3.837170 47.914547 5.886670
v -7.887930 47.665840 1.273540
v -5.416080 47.271809 -4.335800
v -11.491430 66.652802 3.990930
v -9.542790 61.817596 -2.535280
v -13.194409 66.551872 1.674210
v -12.582990 63.941238 -1.021940
v -9.715759 63.790878 4.189580
v -2.612380 72.447701 10.368021
v -3.597380 74.322891 8.700410
v -3.200620 70.266083 6.761900
v -2.856860 68.841400 8.470580
v -2.140420 71.090981 10.154600
v -1.316860 74.177521 11.058579
v -3.005530 74.440842 10.455839
v -3.589360 76.161484 6.231370
v -1.974020 78.113876 11.793600
v -3.184930 75.576569 11.284350
v -3.493930 77.618164 10.544149
v -2.056070 79.963570 9.308140
v -1.834430 72.313148 11.061740
v -2.120930 68.040298 10.134450
v -3.427430 78.443993 6.735190
v -2.826160 79.742798 6.532920
v -12.681839 64.203079 4.471070
v -13.745030 62.680511 1.190090
v -9.127840 60.250378 7.206910
v -7.777800 57.640072 3.673510
v -10.352830 59.940971 -1.067870
v -8.985030 50.424469 6.490220
v -9.717130 53.892521 6.449910
v -9.498321 53.774681 8.018470
v -12.816620 52.579842 5.296110
v -14.145630 55.246292 6.072970
v -11.418150 49.609760 7.859110
v -13.574030 55.846901 8.105220
v -12.289820 50.920391 10.453210
v -10.708600 53.008049 11.595660
v -11.366159 54.639679 9.397970
v -12.099871 54.922920 3.536240
v -12.462690 53.913460 4.270180
v -14.283239 59.573769 3.073440
v -13.201700 61.043209 6.097150
v -10.537610 56.889557 7.841450
v -11.639300 56.534630 1.241710
v -5.050980 46.772469 11.912760
v -5.226240 47.568962 12.569860
v -6.888910 45.561619 11.636770
v -7.596510 46.358727 13.252960
v -6.789130 47.560383 13.981791
v -4.245670 45.014481 17.919739
v -5.023300 45.617836 18.495670
v -4.673480 44.916100 16.900459
v -5.853430 45.304100 16.656340
v -5.665570 43.632523 16.417181
v -5.748220 46.168350 17.181620
v -5.018860 47.195480 16.886980
v -4.292200 46.438507 18.551449
v -4.090190 44.906277 19.384020
v -3.564470 45.561554 19.315392
v -4.235620 42.478828 17.686110
v -2.108900 42.395592 13.198860
v -2.826420 43.834511 12.510320
v -1.364630 40.377789 14.710220
v -4.034620 43.361710 17.542620
v -2.588320 41.601700 13.749840
v -3.797320 42.679867 12.667650
v -2.577030 41.181549 18.873940
v -6.751060 18.992701 -6.805380
v -3.220660 25.671200 -0.209870
v -4.404820 17.654930 -2.192490
v -11.643810 19.130100 -3.577820
v -9.070810 26.510689 -1.511670
v -5.489470 27.207150 -4.007030
v -7.293360 23.164539 1.424400
v -8.375540 17.667801 0.827670
v -7.160360 25.066021 2.428910
v -6.552380 27.802259 2.366100
v -10.019031 30.340969 -1.216080
v -5.989530 32.196449 4.779080
v -12.424560 5.544640 -4.818830
v -11.149830 8.293590 -4.369460
v -9.261080 6.052440 -6.864600
v -10.279400 6.355640 -1.847260
v -7.592890 4.484470 -3.948410
v -7.645580 7.579480 -3.698780
v -8.567090 0.940710 -7.070260
v -11.577720 1.601200 -7.609660
v -9.320580 1.056950 1.358220
v -15.279690 2.364360 0.290570
v -12.191720 3.733120 4.333810
v -14.886820 2.270640 4.440610
v -11.112190 1.441240 5.756940

vt 0.550479 0.485338
vt 0.414517 0.485338
vt 0.489174 0.497239
vt 0.490853 0.675485
vt 0.356970 0.710738
vt 0.458986 0.602657
vt 0.458693 0.603155
vt 0.491001 0.506534
vt 0.357039 0.710738
vt 0.272881 0.708251
vt 0.307767 0.663467
vt 0.329118 0.504113
vt 0.420682 0.504388
vt 0.307693 0.663467
vt 0.420389 0.504181
vt 0.390374 0.619683
vt 0.389206 0.622726
vt 0.390855 0.620128
vt 0.309151 0.663075
vt 0.578845 0.971377
vt 0.529882 0.993867
vt 0.501054 0.950636
vt 0.597833 0.993868
vt 0.684209 0.993870
vt 0.691613 0.940228
vt 0.584242 0.936155
vt 0.602549 0.993867
vt 0.689094 0.993870
vt 0.694409 0.971380
vt 0.730001 0.975635
vt 0.490853 0.781888
vt 0.490853 0.820915
vt 0.240556 0.660920
vt 0.133663 0.660928
vt 0.131880 0.753091
vt 0.060606 0.782384
vt 0.055577 0.663688
vt 0.136145 0.808744
vt 0.060014 0.783494
vt 0.058190 0.859642
vt 0.160773 0.512959
vt 0.067037 0.515196
vt 0.240700 0.512959
vt 0.131877 0.752996
vt 0.240556 0.781375
vt 0.390182 0.870896
vt 0.298691 0.847983
vt 0.294173 0.886121
vt 0.181129 0.899551
vt 0.052544 0.886601
vt 0.145152 0.921474
vt 0.235241 0.891030
vt 0.142740 0.921054
vt 0.172936 0.966074
vt 0.456563 0.999059
vt 0.389917 0.922986
vt 0.429989 0.941889
vt 0.491140 0.942697
vt 0.490646 0.999330
vt 0.490853 0.898039
vt 0.701416 0.118225
vt 0.813217 0.120956
vt 0.790107 0.184348
vt 0.877923 0.002315
vt 0.872775 0.120438
vt 0.505869 0.118716
vt 0.564263 0.119120
vt 0.507564 0.183764
vt 0.697589 0.180917
vt 0.580429 0.182675
vt 0.710756 0.001536
vt 0.701372 0.182427
vt 0.812168 0.002315
vt 0.857243 0.184348
vt 0.697567 0.116528
vt 0.503935 0.000692
vt 0.561277 0.000692
vt 0.688827 -0.000098
vt 0.002866 0.854679
vt 0.027518 0.706813
vt 0.061197 0.782654
vt 0.055608 0.663958
vt 0.251604 0.781884
vt 0.357109 0.710738
vt 0.243886 0.876138
vt 0.247300 0.848527
vt -0.000514 0.880403
vt 0.006948 0.782948
vt 0.674684 0.829607
vt 0.705811 0.784366
vt 0.654033 0.662928
vt 0.703232 0.671848
vt 0.720473 0.730776
vt 0.697736 0.853617
vt 0.729837 0.853035
vt 0.623758 0.856571
vt 0.587609 0.811448
vt 0.658187 0.605708
vt 0.748523 0.593788
vt 0.716351 0.931575
vt 0.747491 0.935506
vt 0.695349 0.885675
vt 0.676247 0.904603
vt 0.649719 0.961956
vt 0.745560 1.001324
vt 0.725611 0.781438
vt 0.747491 0.878462
vt 0.747491 0.808438
vt 0.720379 0.731031
vt 0.747491 0.790807
vt 0.720762 0.730332
vt 0.748639 0.732530
vt 0.746944 0.628012
vt 0.703659 0.671442
vt 0.731857 0.666086
vt 0.747085 0.666819
vt 0.703186 0.671176
vt 0.611291 0.885598
vt 0.604148 0.909350
vt 0.550618 0.823662
vt 0.550618 0.934468
vt 0.625864 0.557513
vt 0.571978 0.557920
vt 0.578607 0.510287
vt 0.669444 0.510287
vt 0.756032 0.560223
vt 0.679695 0.557918
vt 0.877240 0.461159
vt 0.992418 0.461159
vt 0.944262 0.560223
vt 0.756457 0.510287
vt 0.806202 0.560223
vt 0.498275 0.560223
vt 0.875566 0.382888
vt 0.758260 0.308662
vt 0.875912 0.308662
vt 0.759996 0.360654
vt 0.669163 0.382888
vt 0.671223 0.308662
vt 0.584325 0.382888
vt 0.577057 0.308662
vt 0.498223 0.363687
vt 0.498247 0.308662
vt 0.992597 0.308662
vt 0.992439 0.363687
vt 0.759483 0.410364
vt 0.758924 0.382888
vt 0.665903 0.461159
vt 0.580075 0.461159
vt 0.498223 0.402657
vt 0.992438 0.402657
vt 0.760539 0.449273
vt 0.498220 0.461159
vt 0.875438 0.575163
vt 0.762705 0.196431
vt 0.858161 0.196355
vt 0.690657 0.196417
vt 0.588027 0.196417
vt 0.498144 0.196431
vt 0.991918 0.196431
vt 0.375723 0.009258
vt 0.380090 0.017573
vt 0.356438 0.030356
vt 0.342839 0.029458
vt 0.369327 0.043627
vt 0.316032 0.012201
vt 0.336848 0.019568
vt 0.249292 0.041099
vt 0.371147 0.002582
vt 0.416197 0.004791
vt 0.408124 0.000758
vt 0.128136 0.016613
vt 0.154876 0.002573
vt 0.119423 0.002194
vt 0.160447 0.001473
vt 0.065726 0.014292
vt 0.105093 0.028910
vt 0.000825 0.069213
vt 0.000703 0.039244
vt 0.249314 0.055441
vt 0.429228 0.045736
vt 0.102506 0.115410
vt 0.153549 0.117195
vt 0.189513 0.114692
vt 0.228429 0.109580
vt 0.194639 0.033982
vt 0.406548 0.108121
vt 0.355355 0.108206
vt 0.448349 0.035630
vt 0.498209 0.039288
vt 0.461840 0.047992
vt 0.483032 0.114221
vt 0.406174 0.120334
vt 0.355217 0.119080
vt 0.243215 0.037501
vt 0.249314 0.089732
vt 0.000703 0.095058
vt 0.249292 0.105039
vt 0.160984 0.032072
vt 0.413806 0.033644
vt 0.442212 0.108407
vt 0.443088 0.117732
vt 0.023914 0.327327
vt 0.104127 0.227894
vt 0.000784 0.227894
vt 0.216171 0.327327
vt 0.216985 0.228421
vt 0.105699 0.228145
vt 0.104981 0.327662
vt 0.217575 0.327327
vt 0.351490 0.301452
vt 0.217290 0.227894
vt 0.351571 0.227894
vt 0.352420 0.301452
vt 0.489174 0.227894
vt 0.352342 0.227894
vt 0.471690 0.333380
vt 0.351597 0.328057
vt 0.217345 0.328075
vt 0.352312 0.363299
vt 0.470864 0.334174
vt 0.352330 0.328057
vt 0.216660 0.380224
vt 0.216104 0.328075
vt 0.104983 0.328371
vt 0.217232 0.380224
vt 0.351611 0.363299
vt 0.351459 0.420971
vt 0.352499 0.420971
vt 0.351589 0.497239
vt 0.229465 0.497239
vt 0.352627 0.497239
vt 0.229583 0.497239
vt 0.133020 0.497239
vt 0.072972 0.497239
vt 0.025422 0.328212
vt 0.002386 0.497239
vt 0.216130 0.152222
vt 0.223982 0.125749
vt 0.105883 0.155747
vt 0.351732 0.147623
vt 0.223132 0.128232
vt 0.218721 0.149411
vt 0.469070 0.149411
vt 0.483427 0.127273
vt 0.352306 0.146326
vt 0.017963 0.152222
vt 0.104256 0.155747
vt 0.009616 0.131504
vt 0.104128 0.227914
vt 0.000790 0.227921
vt 0.216984 0.228396
vt 0.351571 0.227971
vt 0.217291 0.227882
vt 0.352342 0.227879
vt 0.489111 0.227891
vt 0.948232 0.041698
vt 0.989968 0.003451
vt 0.971575 0.059997
vt 0.909211 0.004273
vt 0.996004 0.120663
vt 0.925604 0.058708
vt 0.885225 0.122889
vt 0.516483 0.798440
vt 0.501430 0.685191
vt 0.597947 0.686709
vt 0.594444 0.793024
vt 0.950876 0.082499
vt 0.943924 0.157220
vt 0.507177 0.624822
vt 0.600053 0.622523
vt 0.901715 0.182549
vt 0.982420 0.184037
vt 0.730212 0.975635
vt 0.685579 0.991654
vt 0.692830 0.969164

vn -0.669579 -0.740513 -0.057485
vn 0.231287 -0.001865 -0.972884
vn -0.144710 -0.236153 -0.960880
vn 0.940840 -0.003343 0.338834
vn 0.823683 -0.093896 -0.559222
vn -0.017859 -0.321454 -0.946757
vn 0.272749 -0.232400 -0.933594
vn 0.927022 -0.285816 -0.242772
vn 0.228186 0.000336 -0.973617
vn 0.885987 -0.400626 -0.233507
vn -0.456112 -0.844373 -0.281062
vn -0.302631 -0.907261 -0.292049
vn -0.219688 -0.723433 -0.654509
vn -0.143646 -0.844985 0.515137
vn -0.474436 -0.529712 0.703076
vn 0.367428 -0.342025 0.864879
vn 0.378186 -0.315751 0.870216
vn 0.948315 -0.317328 -0.001003
vn 0.133452 0.151696 -0.979377
vn 0.391360 -0.435507 0.810661
vn 0.729130 -0.570700 0.377718
vn 0.650824 -0.120027 0.749681
vn 0.412044 -0.009605 0.911113
vn 0.906368 -0.118361 0.405571
vn 0.208326 -0.195923 0.958235
vn 0.267990 -0.237560 0.933674
vn -0.006225 0.564834 -0.825181
vn 0.133541 0.149842 -0.979650
vn 0.619116 -0.422295 0.662089
vn 0.408093 0.879895 -0.243403
vn 0.312288 -0.139722 0.939656
vn 0.208821 0.695420 -0.687594
vn 0.667539 -0.089879 0.739130
vn 0.515657 0.361427 0.776832
vn 0.580438 0.690704 0.431300
vn 0.269051 0.302049 0.914537
vn 0.157735 0.110797 0.981246
vn 0.784428 0.207820 0.584366
vn 0.750826 0.638248 -0.169997
vn 0.473773 0.734366 -0.486051
vn 0.190747 0.902493 -0.386164
vn 0.513896 0.609645 0.603526
vn 0.400699 0.903636 -0.151268
vn 0.752371 0.633138 -0.181859
vn 0.221457 0.778709 -0.587000
vn 0.232348 0.770273 -0.593880
vn 0.198963 0.704275 -0.681476
vn 0.048770 0.216435 0.975078
vn 0.860315 0.092602 0.501281
vn 0.823936 0.110666 -0.555772
vn -0.011979 -0.039999 -0.999128
vn 0.051212 0.172188 0.983732
vn 0.081719 0.189883 0.978400
vn 0.914484 0.304034 0.266989
vn 0.807633 0.380319 0.450652
vn 0.890068 0.248876 0.381890
vn 0.827377 0.106260 -0.551503
vn 0.249153 0.210607 -0.945287
vn 0.777342 0.309565 -0.547639
vn 0.577027 0.075323 -0.813245
vn 0.250834 0.113920 -0.961304
vn -0.269794 -0.120462 -0.955353
vn 0.389398 0.118357 0.913434
vn 0.804766 0.490146 0.334825
vn 0.970846 -0.062679 -0.231363
vn 0.363510 0.010177 -0.931535
vn 0.382357 0.079507 0.920588
vn 0.848465 0.497009 -0.181902
vn 0.790238 0.504722 0.347534
vn 0.461116 -0.020933 -0.887093
vn 0.769910 0.578680 -0.269012
vn -0.897205 -0.096189 -0.431011
vn 0.973246 -0.016293 -0.229189
vn -0.591862 0.126954 -0.795979
vn 0.822767 -0.228762 0.520310
vn 0.449119 -0.355582 0.819667
vn 0.142009 -0.121981 0.982321
vn 0.976795 -0.041875 0.210041
vn 0.984482 -0.012626 -0.175031
vn 0.998594 -0.047943 0.022639
vn 0.360741 -0.894444 0.264265
vn 0.193735 -0.010830 0.980994
vn 0.911170 -0.124191 0.392868
vn 0.974672 -0.025106 0.222223
vn -0.054130 0.801850 0.595068
vn 0.475325 0.150906 0.866772
vn 0.684976 0.188179 0.703844
vn 0.699334 0.196037 0.687387
vn 0.486842 -0.363276 0.794365
vn 0.313347 -0.450911 0.835759
vn 0.049235 0.819987 0.570260
vn -0.020318 -0.220956 0.975072
vn 0.245444 -0.812782 0.528340
vn 0.531248 -0.155104 0.832897
vn 0.474290 -0.820286 -0.319655
vn 0.864977 -0.133847 0.483633
vn 0.007763 -0.975714 -0.218909
vn 0.513966 -0.038597 0.856942
vn 0.810867 -0.050955 0.583008
vn 0.317123 -0.918993 -0.234276
vn 0.330399 -0.161048 0.930000
vn 0.977702 0.102627 -0.183213
vn 0.917814 0.262800 -0.297580
vn 0.767695 -0.410822 0.491802
vn 0.163228 -0.599971 0.783194
vn 0.826306 -0.239837 0.509605
vn 0.056784 -0.490500 0.869589
vn 0.520854 0.600785 0.606440
vn 0.978250 0.022630 0.206189
vn 0.884046 0.384861 0.265224
vn 0.769130 0.541419 0.339564
vn 0.497932 0.138224 0.856129
vn 0.491996 0.547818 -0.676635
vn 0.399784 0.619625 -0.675454
vn 0.151110 0.986567 0.062057
vn 0.030214 0.995445 -0.090424
vn 0.891839 -0.142975 0.429164
vn 0.735136 0.610200 0.295350
vn 0.589257 -0.205154 -0.781465
vn 0.906351 0.357779 -0.224772
vn -0.852559 -0.179273 0.490921
vn 0.962675 0.264597 0.056963
vn 0.589567 -0.203486 -0.781668
vn -0.798087 -0.399056 -0.451454
vn 0.345279 0.297835 0.889987
vn -0.996311 -0.044513 0.073368
vn -0.523463 -0.186069 -0.831484
vn 0.834215 -0.517413 0.190707
vn -0.012642 -0.217094 -0.976069
vn 0.980062 -0.080584 0.181617
vn 0.809983 0.024729 -0.585932
vn 0.717664 0.691181 0.085012
vn 0.321818 0.324091 0.889606
vn -0.430292 0.386140 0.815932
vn -0.733043 0.517389 0.441539
vn -0.472582 -0.574172 -0.668575
vn -0.538673 -0.506453 -0.673303
vn 0.687114 0.070115 -0.723158
vn 0.669929 -0.216068 -0.710289
vn 0.969162 0.195995 0.149366
vn 0.969095 0.195833 0.150013
vn 0.328064 0.316592 0.890025
vn -0.760473 -0.354610 0.543997
vn -0.795701 -0.331617 -0.506843
vn -0.491215 -0.698610 -0.520242
vn 0.745449 -0.245776 -0.619597
vn 0.561082 -0.134414 -0.816774
vn 0.941944 0.333515 0.038843
vn 0.949642 0.287733 0.124053
vn 0.346601 0.274824 0.896850
vn 0.240411 0.346832 0.906593
vn -0.963399 -0.079551 0.255997
vn 0.732814 -0.082898 -0.675361
vn -0.529652 -0.523137 -0.667680
vn -0.799521 -0.210633 0.562495
vn 0.333839 0.209249 0.919112
vn -0.763665 -0.265782 0.588367
vn 0.292677 0.226100 0.929096
vn 0.583654 0.041972 -0.810917
vn -0.558322 -0.568114 -0.604585
vn -0.995376 0.061778 0.073553
vn -0.999455 0.031929 0.008375
vn -0.374780 -0.707187 -0.599522
vn -0.021263 -0.714687 -0.699121
vn 0.822690 -0.530817 -0.203506
vn 0.728834 -0.566139 -0.385081
vn 0.905531 -0.041543 0.422241
vn 0.812560 0.170636 0.557342
vn -0.423963 0.533493 0.731875
vn -0.249506 0.616375 0.746879
vn 0.371597 -0.928254 -0.016153
vn 0.617689 -0.122020 0.776898
vn 0.787326 0.614173 0.053944
vn 0.755051 0.616256 0.223889
vn 0.772659 0.603498 0.196947
vn 0.757462 0.450204 0.472829
vn 0.695849 0.465974 0.546500
vn 0.725545 -0.606232 -0.325679
vn 0.387125 -0.789987 -0.475452
vn -0.991966 0.125840 0.012929
vn -0.691706 -0.720828 0.044158
vn -0.986227 0.039041 0.160724
vn -0.997329 -0.019897 0.070276
vn -0.861950 -0.011856 0.506856
vn -0.161146 0.978839 0.126118
vn 0.887943 0.457220 -0.050064
vn 0.899032 0.215708 0.381067
vn -0.676037 0.525610 0.516439
vn -0.656591 0.514076 0.551919
vn 0.580141 -0.705243 -0.407515
vn 0.575590 -0.684615 -0.447212
vn 0.899453 0.197331 0.389929
vn 0.560849 -0.787013 -0.257021
vn -0.472722 -0.555616 -0.683977
vn -0.579142 -0.554679 -0.597432
vn -0.662854 0.521634 0.537143
vn 0.740412 -0.479043 -0.471495
vn -0.674019 0.381520 0.632567
vn -0.941491 0.304514 -0.144447
vn -0.339250 -0.402108 -0.850422
vn 0.589132 -0.474431 0.654094
vn 0.589610 -0.641727 -0.490456
vn -0.539176 -0.345488 -0.768067
vn 0.994480 0.003331 -0.104870
vn 0.993801 -0.013339 -0.110373
vn -0.658371 0.484816 0.575761
vn 0.908588 0.210210 0.360943
vn 0.547708 -0.764196 -0.340619
vn -0.478589 -0.683156 -0.551589
vn -0.900812 -0.033193 -0.432939
vn 0.517139 0.419714 -0.745927
vn 0.560258 0.392338 -0.729508
vn 0.817218 0.128177 0.561895
vn 0.803268 0.073614 0.591052
vn -0.586904 -0.217548 0.779882
vn -0.506513 -0.283478 0.814301
vn 0.913228 -0.077997 0.399913
vn -0.549689 0.123994 0.826116
vn 0.564158 -0.218119 -0.796335
vn 0.878479 -0.119460 0.462605
vn 0.885527 -0.181381 0.427719
vn -0.255926 -0.479590 0.839342
vn 0.903600 0.030970 0.427257
vn -0.538284 -0.391035 0.746553
vn -0.875957 0.035075 -0.481112
vn 0.896452 0.113370 0.428393
vn -0.435649 -0.262322 0.861044
vn 0.923406 0.067677 0.377810
vn 0.563868 0.199852 -0.801319
vn 0.410657 0.039396 -0.910938
vn -0.310814 -0.107453 -0.944377
vn -0.767436 -0.359431 -0.530896
vn -0.473756 -0.334123 0.814811
vn -0.957866 -0.281848 -0.055259
vn 0.508659 0.478367 -0.715843
vn 0.821922 0.231637 0.520374
vn -0.577069 -0.119583 0.807893
vn -0.884126 0.078602 -0.460590
vn 0.719098 0.210197 -0.662356
vn -0.911434 -0.147271 -0.384186
vn -0.870963 -0.157552 -0.465404
vn 0.557266 0.120752 -0.821507
vn 0.833013 -0.126013 0.538711
vn 0.930698 0.028273 0.364693
vn -0.626399 -0.369582 0.686318
vn -0.551604 -0.401983 0.730851
vn -0.895096 0.147379 -0.420812
vn -0.199533 0.139092 -0.969969
vn -0.921659 -0.378514 0.085279
vn 0.881831 0.165540 -0.441555
vn 0.241977 -0.968372 -0.060857
vn 0.223801 -0.972431 -0.065504
vn 0.536408 0.814087 0.222551
vn 0.510429 0.465012 -0.723343
vn -0.720281 0.399369 0.567186
vn 0.547322 0.814628 0.191885
vn -0.814841 0.354543 0.458621
vn 0.242162 -0.968515 -0.057761
vn 0.242646 -0.968416 -0.057382
vn 0.449418 0.887484 0.101959
vn 0.211465 0.404105 0.889934
vn -0.802186 0.504938 0.318645
vn 0.236845 -0.924428 -0.298893
vn -0.276355 0.062250 -0.959037
vn 0.279895 -0.265775 -0.922509
vn -0.815660 0.014577 0.578347
vn -0.918632 -0.237440 -0.315814
vn -0.265839 -0.430650 -0.862479
vn -0.254910 -0.437754 -0.862202
vn -0.891732 -0.369284 -0.261618
vn -0.166075 0.165909 -0.972056
vn -0.925360 -0.264818 -0.271257
vn 0.421365 -0.801377 -0.424554
vn 0.267134 -0.872620 -0.408868
vn 0.066298 -0.625546 -0.777365
vn 0.269894 -0.852580 0.447510
vn 0.687734 -0.428130 0.586282
vn -0.206127 -0.278855 0.937951
vn -0.178351 -0.350967 0.919246
vn -0.930261 -0.320138 0.179236
vn -0.244494 0.142859 -0.959069
vn -0.347712 -0.493891 0.796974
vn -0.569497 -0.758949 0.315706
vn -0.414176 0.071548 0.907380
vn -0.383195 -0.052475 0.922176
vn -0.716226 -0.192443 0.670810
vn 0.029602 -0.226625 0.973532
vn -0.121102 -0.206767 0.970867
vn -0.311336 0.581797 -0.751386
vn -0.243931 0.132877 -0.960646
vn -0.305359 -0.499239 0.810874
vn -0.498647 0.817890 -0.287066
vn -0.121660 -0.205588 0.971047
vn -0.333661 0.593306 -0.732570
vn -0.318129 -0.173991 0.931945
vn -0.285072 0.318587 0.904011
vn -0.465834 0.763351 0.447542
vn -0.108097 0.257737 0.960149
vn -0.100146 0.248174 0.963525
vn -0.675263 0.268974 0.686784
vn -0.669273 0.684869 -0.288148
vn -0.345022 0.774392 -0.530356
vn -0.152907 0.884933 -0.439902
vn -0.326357 0.714117 0.619297
vn -0.475664 0.850964 -0.222720
vn -0.663489 0.705729 -0.248452
vn -0.229847 0.724260 -0.650091
vn -0.175128 0.771632 -0.611486
vn -0.226716 0.708743 -0.668044
vn 0.112027 0.276615 0.954429
vn -0.750450 0.097384 0.653714
vn -0.883091 0.235699 -0.405705
vn -0.311100 0.081167 -0.946905
vn 0.118366 0.191948 0.974241
vn 0.015193 0.201208 0.979431
vn -0.839140 0.277633 0.467723
vn -0.717708 0.331568 0.612338
vn -0.613509 0.443991 0.653053
vn -0.955185 0.095371 -0.280225
vn -0.409427 0.178777 -0.894655
vn -0.868599 0.288299 -0.403014
vn -0.731106 0.078032 -0.677787
vn -0.410811 0.123993 -0.903250
vn 0.111534 -0.128767 -0.985383
vn -0.063441 0.063423 0.995968
vn -0.623388 0.615660 0.482027
vn -0.634453 0.428168 -0.643538
vn -0.737297 -0.292527 -0.608951
vn -0.221882 0.081884 0.971629
vn -0.644853 0.470791 -0.602097
vn -0.663777 0.587933 0.462315
vn -0.560955 -0.238037 -0.792886
vn -0.953548 0.276388 -0.119813
vn 0.689658 -0.306927 -0.655872
vn -0.677983 -0.048004 -0.733509
vn -0.301787 -0.251082 -0.919719
vn -0.928924 -0.229643 0.290456
vn -0.626742 -0.329131 0.706305
vn -0.349276 -0.109899 0.930553
vn -0.995931 -0.070701 -0.055882
vn -0.922848 -0.123911 -0.364688
vn -0.844870 -0.102955 -0.524972
vn -0.346636 -0.903152 0.253297
vn -0.394117 0.003633 0.919053
vn -0.977951 -0.077744 0.193822
vn -0.999624 0.023434 0.014205
vn -0.032093 0.801306 0.597394
vn -0.637534 0.178258 0.749516
vn -0.806571 0.224840 0.546708
vn -0.816797 0.233310 0.527645
vn -0.658688 -0.335110 0.673669
vn -0.502094 -0.430857 0.749843
vn -0.127028 0.824320 0.551688
vn -0.193988 -0.216686 0.956773
vn -0.389321 -0.797172 0.461461
vn -0.699976 -0.124836 0.703171
vn -0.368092 -0.749208 -0.550632
vn -0.983999 -0.026031 0.176260
vn -0.008322 -0.974912 -0.222433
vn -0.682440 -0.009187 0.730883
vn -0.916013 -0.008502 0.401059
vn -0.223375 -0.913188 -0.340867
vn -0.524299 -0.140034 0.839941
vn -0.908679 0.150433 -0.389451
vn -0.818595 0.302959 -0.487974
vn -0.872330 -0.370507 0.319005
vn -0.351756 -0.587313 0.728925
vn -0.924985 -0.196779 0.325085
vn -0.260433 -0.482683 0.836177
vn -0.605917 0.628483 0.487723
vn -0.997460 0.071202 -0.001977
vn -0.900126 0.428727 0.077238
vn -0.795748 0.579890 0.174682
vn -0.658013 0.166649 0.734334
vn -0.334742 0.552295 -0.763491
vn -0.219666 0.636187 -0.739603
vn -0.112591 0.993050 0.034272
vn 0.037696 0.995261 -0.089632
vn -0.899949 -0.016843 0.435670
vn -0.727144 0.454230 0.514720
vn -0.635624 -0.477904 -0.606292
vn -0.909220 0.176469 -0.377063
vn 0.946445 0.285559 0.150661
vn -0.959279 0.103575 0.262785
vn -0.670199 -0.255561 -0.696794
vn 0.620768 -0.631374 -0.464773
vn 0.112582 0.138152 0.983992
vn 0.971620 0.203710 -0.120234
vn 0.326619 0.057982 -0.943376
vn -0.489564 -0.459850 0.740854
vn -0.330676 -0.426750 -0.841747
vn -0.883611 -0.318947 0.342788
vn -0.935708 -0.317349 -0.154079
vn -0.802307 0.338700 0.491514
vn -0.334106 0.333130 0.881701
vn 0.596153 0.719664 0.355929
vn 0.425460 0.904936 0.008637
vn 0.440400 -0.670357 -0.597218
vn 0.484110 -0.621684 -0.615749
vn -0.778144 -0.161601 -0.606940
vn -0.737569 -0.400368 -0.543781
vn -0.951714 0.153863 0.265644
vn -0.961944 0.155700 0.224545
vn -0.136367 0.597101 0.790490
vn 0.827129 -0.252123 0.502286
vn 0.605538 -0.535473 -0.588721
vn 0.489498 -0.756737 -0.433289
vn -0.790030 -0.415722 -0.450587
vn -0.681320 -0.289524 -0.672294
vn -0.945164 0.272694 0.179730
vn -0.941923 0.262654 0.209272
vn 0.161116 0.655521 0.737789
vn -0.145191 0.471502 0.869830
vn 0.683033 0.155326 0.713680
vn -0.790098 -0.228026 -0.568990
vn 0.490099 -0.609471 -0.623176
vn 0.874159 0.013920 0.485441
vn -0.043736 0.362843 0.930823
vn 0.835648 -0.025971 0.548650
vn -0.205330 0.264059 0.942397
vn -0.702041 -0.198558 -0.683895
vn 0.541704 -0.602204 -0.586436
vn 0.873925 0.408979 -0.262661
vn 0.856295 0.317148 -0.407646
vn 0.462717 -0.542546 -0.701097
vn -0.119328 -0.745467 -0.655774
vn -0.712130 -0.693225 0.110951
vn -0.707994 -0.705204 0.037837
vn -0.580007 -0.100600 0.808376
vn -0.554618 -0.034886 0.831373
vn 0.672315 0.643778 0.365434
vn 0.470536 0.709086 0.525160
vn -0.455382 -0.847431 0.272927
vn -0.251486 -0.164716 0.953742
vn -0.649875 0.596563 0.470930
vn -0.650331 0.543260 0.530979
vn -0.586656 0.579002 0.566207
vn -0.476598 0.370386 0.797288
vn -0.389645 0.399515 0.829798
vn -0.737884 -0.662374 0.129568
vn -0.610112 -0.792291 0.006241
vn 0.827996 0.249764 -0.502037
vn 0.767012 -0.628755 -0.127905
vn 0.929032 0.174979 -0.326010
vn 0.908855 0.135379 -0.394531
vn 0.988155 0.149524 -0.034531
vn 0.069233 0.994168 0.082683
vn -0.851319 0.319679 0.416006
vn -0.584675 0.151850 0.796930
vn 0.826734 0.517669 0.220294
vn 0.828486 0.497772 0.256581
vn -0.589589 -0.804888 -0.067382
vn -0.608793 -0.786549 -0.103499
vn -0.434159 0.239958 0.868289
vn -0.605726 -0.795345 -0.022844
vn -0.166996 -0.492102 -0.854370
vn 0.366688 -0.421360 -0.829455
vn 0.791985 0.599639 0.114858
vn -0.790168 -0.611275 -0.044467
vn 0.822837 0.525309 0.216771
vn 0.767744 0.499756 -0.401015
vn 0.219121 -0.111666 -0.969287
vn -0.322928 -0.462536 0.825698
vn -0.651219 -0.746835 -0.134728
vn 0.041366 -0.168969 -0.984753
vn -0.898184 -0.143268 0.415620
vn -0.897838 -0.159615 0.410378
vn 0.845160 0.459897 0.272397
vn -0.355630 0.228262 0.906324
vn -0.658544 -0.744505 -0.109694
vn 0.045655 -0.588027 -0.807552
vn 0.889041 -0.018186 -0.457466
vn -0.499243 0.390566 -0.773443
vn -0.581160 0.340975 -0.738911
vn -0.791486 0.107494 0.601661
vn -0.785757 0.088236 0.612210
vn 0.592578 -0.201337 0.779945
vn 0.499723 -0.276814 0.820762
vn -0.910145 -0.141951 0.389212
vn 0.564580 -0.106661 0.818458
vn -0.560208 -0.075023 -0.824947
vn -0.776694 -0.237304 0.583466
vn -0.775004 -0.225013 0.590540
vn 0.317256 -0.487367 0.813525
vn -0.850794 0.200195 0.485872
vn 0.548656 -0.420201 0.722777
vn 0.864505 0.037964 -0.501188
vn -0.793262 0.059969 0.605921
vn 0.618549 -0.259050 0.741816
vn -0.831298 0.009675 0.555742
vn -0.746117 0.185752 -0.639379
vn -0.539248 -0.029882 -0.841617
vn 0.091469 -0.092075 -0.991542
vn 0.746167 -0.328864 -0.578863
vn 0.630951 -0.284199 0.721894
vn 0.943209 -0.240894 -0.228752
vn -0.545063 0.375305 -0.749701
vn -0.811311 0.293573 0.505558
vn 0.591160 -0.054838 0.804688
vn 0.878846 0.053203 -0.474131
vn -0.722892 0.143312 -0.675935
vn 0.908596 -0.174503 -0.379477
vn 0.848731 -0.199794 -0.489630
vn -0.549587 0.035922 -0.834664
vn -0.813004 -0.079201 0.576847
vn -0.925859 0.067927 0.371713
vn 0.635449 -0.277348 0.720613
vn 0.577039 -0.299216 0.759932
vn 0.889895 0.138305 -0.434694
vn 0.189821 0.065185 -0.979652
vn 0.937792 -0.335737 0.088467
vn -0.895566 0.112357 -0.430507
vn -0.213339 -0.976962 -0.005595
vn -0.562913 0.805173 0.186614
vn -0.541441 0.405104 -0.736704
vn 0.723175 0.448569 0.525171
vn -0.571502 0.803984 0.164304
vn 0.812408 0.402330 0.422046
vn -0.214012 -0.976829 -0.001799
vn -0.213988 -0.976835 -0.001818
vn -0.473964 0.878164 0.064699
vn -0.206453 0.444130 0.871852
vn 0.792513 0.544208 0.275248
vn -0.063668 -0.991785 -0.110949

f 1/1/1 2/2/1 3/3/1
f 4/4/2 5/5/2 6/6/2
f 4/4/3 6/7/3 7/8/3
f 5/9/4 8/10/4 9/11/4
f 10/12/5 11/13/5 9/14/5
f 6/6/6 11/15/6 7/8/6
f 6/6/7 12/16/7 11/13/7
f 12/17/8 5/5/8 9/14/8
f 6/6/9 5/5/9 12/17/9
f 11/13/10 12/18/10 9/19/10
f 13/20/11 14/21/11 15/22/11
f 14/21/12 13/20/12 16/23/12
f 16/24/13 13/20/13 17/25/13
f 15/22/14 14/21/14 18/26/14
f 14/21/15 19/27/15 18/26/15
f 18/26/16 20/28/16 21/29/16
f 18/26/17 19/27/17 20/28/17
f 20/28/18 3/30/18 21/29/18
f 5/9/19 22/31/19 23/32/19
f 24/33/20 25/34/20 26/35/20
f 27/36/21 25/34/21 9/37/21
f 28/38/22 27/39/22 29/40/22
f 30/41/23 25/34/23 24/33/23
f 25/34/24 30/41/24 10/42/24
f 30/41/25 24/33/25 31/43/25
f 24/33/26 26/44/26 32/45/26
f 33/46/27 34/47/27 5/9/27
f 4/4/28 22/31/28 5/9/28
f 26/35/29 25/34/29 27/39/29
f 33/46/30 35/48/30 34/47/30
f 32/45/31 26/35/31 28/38/31
f 23/32/32 33/46/32 5/9/32
f 26/35/33 27/39/33 28/38/33
f 28/38/34 29/40/34 36/49/34
f 35/50/35 37/51/35 29/40/35
f 28/38/36 38/52/36 32/45/36
f 36/49/37 38/52/37 28/38/37
f 36/49/38 37/53/38 39/54/38
f 39/55/39 37/56/39 40/57/39
f 41/58/40 42/59/40 39/55/40
f 39/55/41 40/57/41 41/58/41
f 36/49/42 29/40/42 37/51/42
f 37/56/43 35/48/43 33/46/43
f 37/56/44 33/46/44 40/57/44
f 40/57/45 33/46/45 43/60/45
f 40/57/46 43/60/46 41/58/46
f 33/46/47 23/32/47 43/60/47
f 44/61/48 45/62/48 30/63/48
f 15/64/49 46/65/49 45/62/49
f 46/66/50 47/67/50 10/68/50
f 47/67/51 7/69/51 11/70/51
f 45/62/52 44/61/52 17/71/52
f 44/61/53 30/63/53 31/72/53
f 13/73/54 15/64/54 45/62/54
f 46/65/55 10/74/55 45/62/55
f 45/62/56 10/74/56 30/63/56
f 47/67/57 11/70/57 10/68/57
f 47/67/58 48/75/58 7/69/58
f 46/66/59 15/76/59 47/67/59
f 18/77/60 47/67/60 15/76/60
f 47/67/61 18/77/61 48/75/61
f 18/77/62 21/78/62 48/75/62
f 13/73/63 45/62/63 17/71/63
f 49/79/64 35/50/64 29/40/64
f 8/80/65 27/81/65 9/82/65
f 34/47/66 50/83/66 5/84/66
f 27/36/67 49/79/67 29/40/67
f 35/48/68 51/85/68 52/86/68
f 35/50/69 49/79/69 51/87/69
f 52/86/70 50/83/70 34/47/70
f 35/48/71 52/86/71 34/47/71
f 5/84/72 50/83/72 8/10/72
f 53/88/73 27/81/73 8/80/73
f 53/88/74 49/79/74 27/36/74
f 54/89/75 55/90/75 56/91/75
f 57/92/76 55/90/76 58/93/76
f 59/94/77 60/95/77 55/90/77
f 61/96/78 54/89/78 56/91/78
f 39/97/79 61/96/79 36/98/79
f 36/98/80 61/96/80 56/91/80
f 36/98/81 56/91/81 38/99/81
f 62/100/82 63/101/82 64/102/82
f 65/103/83 64/102/83 54/89/83
f 61/96/84 65/103/84 54/89/84
f 66/104/85 67/105/85 62/100/85
f 55/90/86 60/95/86 68/106/86
f 69/107/87 68/106/87 60/95/87
f 69/107/88 70/108/88 68/106/88
f 58/109/89 55/90/89 68/106/89
f 68/106/90 71/110/90 58/111/90
f 62/100/91 67/105/91 63/101/91
f 64/102/92 63/101/92 69/107/92
f 70/108/93 71/110/93 68/106/93
f 58/111/94 71/110/94 72/112/94
f 56/91/95 57/92/95 38/113/95
f 55/90/96 57/114/96 56/91/96
f 73/115/97 74/116/97 38/113/97
f 58/109/98 72/112/98 73/115/98
f 57/117/99 58/111/99 73/115/99
f 57/92/100 73/115/100 38/113/100
f 73/115/101 72/112/101 74/116/101
f 39/97/102 75/118/102 61/96/102
f 75/118/103 39/97/103 76/119/103
f 64/102/104 59/94/104 54/89/104
f 64/102/105 60/95/105 59/94/105
f 54/89/106 59/94/106 55/90/106
f 64/102/107 69/107/107 60/95/107
f 65/103/108 66/104/108 62/100/108
f 65/103/109 61/96/109 75/118/109
f 75/118/110 76/119/110 65/103/110
f 66/104/111 65/103/111 76/119/111
f 62/100/112 64/102/112 65/103/112
f 39/97/113 42/120/113 76/119/113
f 77/121/114 76/119/114 42/120/114
f 67/105/115 76/119/115 77/121/115
f 66/104/116 76/119/116 67/105/116
f 9/82/117 25/34/117 10/42/117
f 51/122/118 49/123/118 78/124/118
f 79/125/119 50/126/119 52/127/119
f 52/127/120 51/122/120 79/125/120
f 80/128/121 81/129/121 53/130/121
f 51/122/122 78/124/122 79/125/122
f 82/131/123 50/126/123 79/125/123
f 50/126/124 82/131/124 8/132/124
f 53/133/125 78/124/125 49/123/125
f 83/134/126 84/135/126 85/136/126
f 84/135/127 83/134/127 86/137/127
f 86/137/128 87/138/128 84/135/128
f 88/139/129 84/135/129 87/138/129
f 87/138/130 89/140/130 88/139/130
f 90/141/131 88/139/131 89/140/131
f 91/142/132 92/143/132 90/141/132
f 90/141/133 89/140/133 91/142/133
f 85/136/134 92/144/134 91/145/134
f 91/145/135 83/134/135 85/136/135
f 80/128/136 93/146/136 83/134/136
f 94/147/137 83/134/137 93/146/137
f 93/146/138 87/138/138 94/147/138
f 87/138/139 93/146/139 95/148/139
f 95/148/140 96/149/140 87/138/140
f 89/140/141 87/138/141 96/149/141
f 97/150/142 91/142/142 89/140/142
f 97/151/143 81/129/143 80/128/143
f 8/132/144 82/131/144 80/128/144
f 93/146/145 80/128/145 98/152/145
f 98/152/146 95/148/146 93/146/146
f 95/148/147 82/131/147 79/125/147
f 79/125/148 78/124/148 95/148/148
f 96/149/149 95/148/149 78/124/149
f 78/124/150 53/133/150 81/153/150
f 81/153/151 96/149/151 78/124/151
f 80/128/152 53/130/152 8/154/152
f 94/147/153 87/138/153 86/137/153
f 86/137/154 83/134/154 94/147/154
f 97/151/155 83/134/155 91/145/155
f 89/140/156 96/149/156 97/150/156
f 80/128/157 83/134/157 97/151/157
f 81/153/158 97/150/158 96/149/158
f 82/131/159 95/148/159 98/152/159
f 98/152/160 80/128/160 82/131/160
f 85/136/161 99/155/161 100/156/161
f 99/155/162 85/136/162 84/135/162
f 84/135/163 101/157/163 99/155/163
f 101/157/164 84/135/164 88/139/164
f 88/139/165 90/141/165 101/157/165
f 102/158/166 101/157/166 90/141/166
f 90/141/167 103/159/167 102/158/167
f 103/159/168 90/141/168 92/143/168
f 92/144/169 85/136/169 103/160/169
f 100/156/170 103/160/170 85/136/170
f 104/161/171 105/162/171 106/163/171
f 107/164/172 106/163/172 108/165/172
f 109/166/173 110/167/173 103/168/173
f 109/166/174 111/169/174 104/161/174
f 104/161/175 110/167/175 109/166/175
f 104/161/176 111/169/176 112/170/176
f 113/171/177 112/170/177 111/169/177
f 106/163/178 110/167/178 104/161/178
f 104/161/179 112/170/179 105/162/179
f 105/172/180 113/173/180 111/174/180
f 113/173/181 105/172/181 112/175/181
f 105/172/182 111/174/182 109/176/182
f 109/176/183 106/177/183 105/172/183
f 109/176/184 100/178/184 106/177/184
f 103/179/185 100/178/185 109/176/185
f 102/180/186 103/168/186 110/167/186
f 106/163/187 114/181/187 108/165/187
f 115/182/188 116/183/188 106/177/188
f 116/184/189 117/185/189 118/186/189
f 108/165/190 114/181/190 119/187/190
f 119/187/191 120/188/191 108/165/191
f 118/189/192 121/190/192 114/191/192
f 114/191/193 121/190/193 117/192/193
f 116/193/194 115/194/194 119/187/194
f 120/188/195 119/187/195 115/194/195
f 121/195/196 118/186/196 117/185/196
f 108/165/197 101/196/197 102/180/197
f 115/182/198 106/177/198 100/178/198
f 100/178/199 99/197/199 115/182/199
f 120/188/200 99/198/200 101/196/200
f 106/163/201 107/164/201 110/167/201
f 108/165/202 120/188/202 101/196/202
f 120/188/203 115/194/203 99/198/203
f 107/164/204 102/180/204 110/167/204
f 102/180/205 107/164/205 108/165/205
f 118/199/206 106/177/206 116/183/206
f 114/181/207 106/163/207 118/200/207
f 114/191/208 117/192/208 119/201/208
f 117/192/209 116/202/209 119/201/209
f 122/203/210 123/204/210 124/205/210
f 125/206/211 126/207/211 123/208/211
f 125/206/212 123/208/212 127/209/212
f 125/210/213 128/211/213 126/212/213
f 128/211/214 129/213/214 126/212/214
f 128/214/215 124/215/215 129/216/215
f 122/217/216 124/215/216 128/214/216
f 130/218/217 128/211/217 125/219/217
f 131/220/218 122/221/218 130/222/218
f 132/223/219 125/224/219 127/225/219
f 132/226/220 131/227/220 125/219/220
f 133/228/221 131/227/221 132/226/221
f 133/229/222 122/221/222 131/220/222
f 130/218/223 125/219/223 131/227/223
f 128/214/224 130/222/224 122/221/224
f 127/209/225 123/204/225 122/203/225
f 16/230/226 133/228/226 14/231/226
f 16/232/227 3/3/227 133/229/227
f 14/231/228 133/228/228 132/226/228
f 14/233/229 132/223/229 19/234/229
f 132/223/230 127/225/230 19/234/230
f 20/235/231 19/234/231 127/225/231
f 20/235/232 127/225/232 122/236/232
f 3/3/233 122/221/233 133/229/233
f 3/237/234 20/235/234 122/236/234
f 134/238/235 135/239/235 136/240/235
f 137/241/236 135/242/236 134/243/236
f 138/244/237 139/245/237 137/246/237
f 138/247/238 136/248/238 139/249/238
f 134/238/239 136/240/239 123/208/239
f 138/247/240 123/250/240 136/248/240
f 123/250/241 138/247/241 124/251/241
f 134/238/242 123/208/242 126/252/242
f 129/253/243 134/243/243 126/254/243
f 137/241/244 134/243/244 129/253/244
f 138/244/245 137/246/245 129/255/245
f 138/244/246 129/255/246 124/256/246
f 136/257/247 140/258/247 139/259/247
f 136/257/248 141/260/248 140/258/248
f 142/261/249 139/259/249 140/258/249
f 135/262/250 143/263/250 141/260/250
f 141/264/251 143/265/251 142/266/251
f 142/266/252 140/267/252 141/264/252
f 137/268/253 143/263/253 135/262/253
f 135/262/254 141/260/254 136/257/254
f 139/259/255 142/261/255 137/268/255
f 137/268/256 144/269/256 143/263/256
f 137/268/257 142/261/257 144/269/257
f 143/265/258 145/270/258 146/271/258
f 146/271/259 142/266/259 143/265/259
f 143/263/260 144/269/260 145/272/260
f 144/269/261 146/273/261 145/272/261
f 146/273/262 144/269/262 142/261/262
f 3/274/263 16/275/263 17/276/263
f 147/5/264 4/4/264 148/6/264
f 148/7/265 4/4/265 7/8/265
f 149/10/266 147/9/266 150/11/266
f 151/13/267 152/12/267 150/14/267
f 151/15/268 148/6/268 7/8/268
f 153/16/269 148/6/269 151/13/269
f 147/5/270 153/17/270 150/14/270
f 147/5/271 148/6/271 153/17/271
f 153/18/272 151/13/272 150/19/272
f 154/21/273 155/20/273 156/22/273
f 155/20/274 154/21/274 157/23/274
f 155/20/275 157/24/275 17/25/275
f 154/21/276 156/22/276 158/26/276
f 159/27/277 154/21/277 158/26/277
f 160/28/278 158/26/278 21/29/278
f 159/27/279 158/26/279 160/28/279
f 3/30/280 160/28/280 21/29/280
f 22/31/281 147/9/281 23/32/281
f 161/34/282 24/33/282 162/35/282
f 161/34/283 163/36/283 150/37/283
f 163/39/284 164/38/284 165/40/284
f 161/34/285 166/41/285 24/33/285
f 166/41/286 161/34/286 152/42/286
f 24/33/287 166/41/287 31/43/287
f 162/44/288 24/33/288 32/45/288
f 167/47/289 168/46/289 147/9/289
f 22/31/290 4/4/290 147/9/290
f 161/34/291 162/35/291 163/39/291
f 169/48/292 168/46/292 167/47/292
f 162/35/293 32/45/293 164/38/293
f 168/46/294 23/32/294 147/9/294
f 163/39/295 162/35/295 164/38/295
f 165/40/296 164/38/296 170/49/296
f 171/51/297 169/50/297 165/40/297
f 38/52/298 164/38/298 32/45/298
f 38/52/299 170/49/299 164/38/299
f 171/53/300 170/49/300 172/54/300
f 171/56/301 172/55/301 173/57/301
f 42/59/302 41/58/302 172/55/302
f 173/57/303 172/55/303 41/58/303
f 165/40/304 170/49/304 171/51/304
f 169/48/305 171/56/305 168/46/305
f 168/46/306 171/56/306 173/57/306
f 168/46/307 173/57/307 43/60/307
f 43/60/308 173/57/308 41/58/308
f 23/32/309 168/46/309 43/60/309
f 174/62/310 44/61/310 166/63/310
f 175/65/311 156/64/311 174/62/311
f 176/67/312 175/66/312 152/68/312
f 7/69/313 176/67/313 151/70/313
f 44/61/314 174/62/314 17/71/314
f 166/63/315 44/61/315 31/72/315
f 156/64/316 155/73/316 174/62/316
f 152/74/317 175/65/317 174/62/317
f 152/74/318 174/62/318 166/63/318
f 151/70/319 176/67/319 152/68/319
f 48/75/320 176/67/320 7/69/320
f 156/76/321 175/66/321 176/67/321
f 176/67/322 158/77/322 156/76/322
f 158/77/323 176/67/323 48/75/323
f 21/78/324 158/77/324 48/75/324
f 174/62/325 155/73/325 17/71/325
f 169/50/326 177/79/326 165/40/326
f 163/81/327 149/80/327 150/82/327
f 178/83/328 167/47/328 147/84/328
f 177/79/329 163/36/329 165/40/329
f 179/85/330 169/48/330 180/86/330
f 177/79/331 169/50/331 179/87/331
f 178/83/332 180/86/332 167/47/332
f 180/86/333 169/48/333 167/47/333
f 178/83/334 147/84/334 149/10/334
f 163/81/335 181/88/335 149/80/335
f 177/79/336 181/88/336 163/36/336
f 182/90/337 183/89/337 184/91/337
f 182/90/338 185/92/338 186/93/338
f 187/95/339 188/94/339 182/90/339
f 183/89/340 189/96/340 184/91/340
f 189/96/341 172/97/341 170/98/341
f 189/96/342 170/98/342 184/91/342
f 184/91/343 170/98/343 38/99/343
f 63/101/344 190/100/344 191/102/344
f 191/102/345 192/103/345 183/89/345
f 192/103/346 189/96/346 183/89/346
f 67/105/347 193/104/347 190/100/347
f 187/95/348 182/90/348 194/106/348
f 194/106/349 69/107/349 187/95/349
f 70/108/350 69/107/350 194/106/350
f 182/90/351 186/109/351 194/106/351
f 71/110/352 194/106/352 186/111/352
f 67/105/353 190/100/353 63/101/353
f 63/101/354 191/102/354 69/107/354
f 71/110/355 70/108/355 194/106/355
f 71/110/356 186/111/356 72/112/356
f 185/92/357 184/91/357 38/113/357
f 185/114/358 182/90/358 184/91/358
f 74/116/359 195/115/359 38/113/359
f 72/112/360 186/109/360 195/115/360
f 186/111/361 185/117/361 195/115/361
f 195/115/362 185/92/362 38/113/362
f 72/112/363 195/115/363 74/116/363
f 196/118/364 172/97/364 189/96/364
f 172/97/365 196/118/365 197/119/365
f 188/94/366 191/102/366 183/89/366
f 187/95/367 191/102/367 188/94/367
f 188/94/368 183/89/368 182/90/368
f 69/107/369 191/102/369 187/95/369
f 193/104/370 192/103/370 190/100/370
f 189/96/371 192/103/371 196/118/371
f 197/119/372 196/118/372 192/103/372
f 192/103/373 193/104/373 197/119/373
f 191/102/374 190/100/374 192/103/374
f 42/120/375 172/97/375 197/119/375
f 197/119/376 77/121/376 42/120/376
f 197/119/377 67/105/377 77/121/377
f 197/119/378 193/104/378 67/105/378
f 161/34/379 150/82/379 152/42/379
f 177/123/380 179/122/380 198/124/380
f 178/126/381 199/125/381 180/127/381
f 179/122/382 180/127/382 199/125/382
f 200/129/383 201/128/383 181/130/383
f 198/124/384 179/122/384 199/125/384
f 178/126/385 202/131/385 199/125/385
f 202/131/386 178/126/386 149/132/386
f 198/124/387 181/133/387 177/123/387
f 203/135/388 204/134/388 205/136/388
f 204/134/389 203/135/389 206/137/389
f 207/138/390 206/137/390 203/135/390
f 203/135/391 208/139/391 207/138/391
f 209/140/392 207/138/392 208/139/392
f 208/139/393 210/141/393 209/140/393
f 211/143/394 212/142/394 210/141/394
f 209/140/395 210/141/395 212/142/395
f 211/144/396 205/136/396 212/145/396
f 204/134/397 212/145/397 205/136/397
f 213/146/398 201/128/398 204/134/398
f 204/134/399 214/147/399 213/146/399
f 207/138/400 213/146/400 214/147/400
f 213/146/401 207/138/401 215/148/401
f 216/149/402 215/148/402 207/138/402
f 207/138/403 209/140/403 216/149/403
f 212/142/404 217/150/404 209/140/404
f 200/129/405 217/151/405 201/128/405
f 202/131/406 149/132/406 201/128/406
f 201/128/407 213/146/407 218/152/407
f 215/148/408 218/152/408 213/146/408
f 202/131/409 215/148/409 199/125/409
f 198/124/410 199/125/410 215/148/410
f 215/148/411 216/149/411 198/124/411
f 181/133/412 198/124/412 200/153/412
f 216/149/413 200/153/413 198/124/413
f 181/130/414 201/128/414 149/154/414
f 207/138/415 214/147/415 206/137/415
f 204/134/416 206/137/416 214/147/416
f 204/134/417 217/151/417 212/145/417
f 216/149/418 209/140/418 217/150/418
f 204/134/419 201/128/419 217/151/419
f 217/150/420 200/153/420 216/149/420
f 215/148/421 202/131/421 218/152/421
f 201/128/422 218/152/422 202/131/422
f 219/155/423 205/136/423 220/156/423
f 205/136/424 219/155/424 203/135/424
f 221/157/425 203/135/425 219/155/425
f 203/135/426 221/157/426 208/139/426
f 210/141/427 208/139/427 221/157/427
f 221/157/428 222/158/428 210/141/428
f 223/159/429 210/141/429 222/158/429
f 210/141/430 223/159/430 211/143/430
f 205/136/431 211/144/431 223/160/431
f 223/160/432 220/156/432 205/136/432
f 224/162/433 225/161/433 226/163/433
f 226/163/434 227/164/434 228/165/434
f 229/167/435 230/166/435 223/168/435
f 231/169/436 230/166/436 225/161/436
f 229/167/437 225/161/437 230/166/437
f 231/169/438 225/161/438 232/170/438
f 232/170/439 233/171/439 231/169/439
f 229/167/440 226/163/440 225/161/440
f 232/170/441 225/161/441 224/162/441
f 233/173/442 224/172/442 231/174/442
f 224/172/443 233/173/443 232/175/443
f 231/174/444 224/172/444 230/176/444
f 226/177/445 230/176/445 224/172/445
f 220/178/446 230/176/446 226/177/446
f 220/178/447 223/179/447 230/176/447
f 223/168/448 222/180/448 229/167/448
f 234/181/449 226/163/449 228/165/449
f 235/183/450 236/182/450 226/177/450
f 237/185/451 235/184/451 238/186/451
f 234/181/452 228/165/452 239/187/452
f 240/188/453 239/187/453 228/165/453
f 241/190/454 238/189/454 234/191/454
f 241/190/455 234/191/455 237/192/455
f 236/194/456 235/193/456 239/187/456
f 239/187/457 240/188/457 236/194/457
f 238/186/458 241/195/458 237/185/458
f 221/196/459 228/165/459 222/180/459
f 226/177/460 236/182/460 220/178/460
f 219/197/461 220/178/461 236/182/461
f 219/198/462 240/188/462 221/196/462
f 227/164/463 226/163/463 229/167/463
f 240/188/464 228/165/464 221/196/464
f 236/194/465 240/188/465 219/198/465
f 222/180/466 227/164/466 229/167/466
f 227/164/467 222/180/467 228/165/467
f 226/177/468 238/199/468 235/183/468
f 226/163/469 234/181/469 238/200/469
f 237/192/470 234/191/470 239/201/470
f 235/202/471 237/192/471 239/201/471
f 242/204/472 243/203/472 244/205/472
f 245/207/473 246/206/473 242/208/473
f 242/208/474 246/206/474 247/209/474
f 248/211/475 246/210/475 245/212/475
f 249/213/476 248/211/476 245/212/476
f 244/215/477 248/214/477 249/216/477
f 244/215/478 243/217/478 248/214/478
f 248/211/479 250/218/479 246/219/479
f 243/221/480 251/220/480 250/222/480
f 246/224/481 252/223/481 247/225/481
f 251/227/482 252/226/482 246/219/482
f 251/227/483 253/228/483 252/226/483
f 243/221/484 253/229/484 251/220/484
f 246/219/485 250/218/485 251/227/485
f 250/222/486 248/214/486 243/221/486
f 242/204/487 247/209/487 243/203/487
f 253/228/488 157/230/488 154/231/488
f 3/3/489 157/232/489 253/229/489
f 253/228/490 154/231/490 252/226/490
f 252/223/491 154/233/491 159/234/491
f 247/225/492 252/223/492 159/234/492
f 159/234/493 160/235/493 247/225/493
f 247/225/494 160/235/494 243/236/494
f 243/221/495 3/3/495 253/229/495
f 160/235/496 3/237/496 243/236/496
f 254/239/497 255/238/497 256/240/497
f 254/242/498 257/241/498 255/243/498
f 258/245/499 259/244/499 257/246/499
f 256/248/500 259/247/500 258/249/500
f 256/240/501 255/238/501 242/208/501
f 242/250/502 259/247/502 256/248/502
f 259/247/503 242/250/503 244/251/503
f 242/208/504 255/238/504 245/252/504
f 255/243/505 249/253/505 245/254/505
f 255/243/506 257/241/506 249/253/506
f 257/246/507 259/244/507 249/255/507
f 249/255/508 259/244/508 244/256/508
f 260/258/509 256/257/509 258/259/509
f 261/260/510 256/257/510 260/258/510
f 258/259/511 262/261/511 260/258/511
f 263/263/512 254/262/512 261/260/512
f 263/265/513 261/264/513 262/266/513
f 260/267/513 262/266/513 261/264/513
f 263/263/514 257/268/514 254/262/514
f 261/260/515 254/262/515 256/257/515
f 262/261/516 258/259/516 257/268/516
f 264/269/517 257/268/517 263/263/517
f 262/261/518 257/268/518 264/269/518
f 265/270/519 263/265/519 266/271/519
f 262/266/520 266/271/520 263/265/520
f 264/269/521 263/263/521 265/272/521
f 266/273/522 264/269/522 265/272/522
f 264/269/523 266/273/523 262/261/523
f 157/275/524 3/274/524 17/276/524

o 
usemtl axe.001
s off

v -3.573200 35.828472 56.428661
v -4.133550 35.366920 49.142120
v -7.463230 28.218410 56.539021
v -7.165260 29.453499 53.446178
v -8.195990 26.375990 55.732670
v -7.898020 27.611069 52.639828
v -9.674080 20.488602 49.715080
v -7.951730 25.766611 44.940491
v -4.154210 33.420219 62.459229
v -10.255080 18.080360 55.745651
v -5.876550 28.142208 67.233818
v -7.761210 26.983320 59.631859
v -8.493959 25.140900 58.825497
v -9.694730 18.541901 63.032188
v -5.334320 28.767929 53.348801
v -5.632290 27.532841 56.441643
v -6.067080 26.925508 52.542461
v -6.365050 25.690411 55.635292
v -5.930260 26.297750 59.534470
v -6.663020 24.455320 58.728134
v -4.191860 41.778214 22.583361
v -4.924610 39.935780 21.777010
v -3.093670 39.250210 21.679630
v -3.553530 44.876259 22.247541
v -7.839600 23.118420 65.693024
v -1.824370 52.785912 -10.402040
v -0.091930 52.130791 -10.546180
v 0.739330 53.942772 -9.693070
v -1.091610 54.628338 -9.595700

vt 0.033358 0.643728
vt 0.190411 0.923560
vt 0.402692 0.503812
vt 0.402692 0.647326
vt 0.408249 0.287497
vt 0.408249 0.367848
vt 0.492649 0.287497
vt 0.492649 0.367848
vt 0.403043 0.503812
vt 0.403044 0.647326
vt 0.033710 0.643728
vt 0.190763 0.923560
vt 0.033358 0.363896
vt 0.033710 0.363896
vt 0.190411 0.084064
vt 0.402692 0.360297
vt 0.408249 0.207147
vt 0.492649 0.207147
vt 0.403043 0.360297
vt 0.190763 0.084064
vt 0.408248 1.036942
vt 0.492649 1.036942
vt 0.483600 0.371280
vt 0.402049 0.371280
vt 0.402049 1.040375
vt 0.483600 1.040375
vt 0.450449 0.037941
vt 0.483600 0.210579
vt 0.402049 0.210579
vt 0.442825 0.041374
vt 0.000000 1.000000

vn -0.889484 0.455251 0.039567
vn -0.841376 0.524935 0.128566
vn -0.935342 0.350228 0.049746
vn -0.970544 0.240908 0.002698
vn -0.963068 0.263293 -0.056356
vn -0.885734 0.454153 0.096027
vn -0.889299 0.430303 0.154874
vn -0.986690 0.159563 -0.031339
vn -0.968821 0.240568 0.059266
vn 0.986690 -0.159562 0.031341
vn 0.968821 -0.240568 -0.059266
vn 0.935343 -0.350227 -0.049748
vn 0.889300 -0.430303 -0.154874
vn 0.885734 -0.454152 -0.096029
vn 0.970544 -0.240907 -0.002698
vn 0.963068 -0.263293 0.056356
vn 0.889483 -0.455251 -0.039567
vn 0.841377 -0.524934 -0.128564
vn -0.229306 -0.493208 -0.839145
vn 0.331535 0.916957 -0.221979
vn 0.229303 0.493209 0.839146
vn -0.331533 -0.916957 0.221979
vn 0.992990 0.071678 0.093981
vn 0.334242 0.828946 0.448476
vn -0.979632 0.200284 -0.014399
vn -0.342329 -0.860754 -0.376713
vn -0.938706 0.296032 0.176625
vn 0.914166 -0.397749 0.078082
vn -0.351838 -0.906487 -0.233435
vn 0.325055 0.795470 0.511436
vn -0.348516 -0.858567 -0.376030
vn -0.673596 0.719677 0.168325
vn 0.993687 -0.066832 0.090106
vn 0.096325 0.387470 -0.916836
vn 0.066064 0.377890 -0.923491

f 267/277/525 268/278/525 269/279/525
f 270/280/526 269/279/526 268/278/526
f 269/281/527 270/282/527 271/283/527
f 272/284/527 271/283/527 270/282/527
f 271/285/528 272/286/528 273/287/528
f 274/288/529 273/287/529 272/286/529
f 275/289/530 267/277/530 269/279/530
f 273/287/528 276/290/528 271/285/528
f 277/291/531 275/289/531 278/292/531
f 269/279/530 278/292/530 275/289/530
f 278/293/527 269/281/527 279/294/527
f 271/283/527 279/294/527 269/281/527
f 279/295/532 271/285/532 280/296/532
f 276/290/533 280/296/533 271/285/533
f 281/280/534 268/278/534 282/279/534
f 267/277/535 282/279/535 268/278/535
f 283/284/536 281/282/536 284/283/536
f 282/281/536 284/283/536 281/282/536
f 274/288/537 283/286/537 273/287/537
f 284/285/538 273/287/538 283/286/538
f 282/279/539 267/277/539 275/289/539
f 273/287/538 284/285/538 276/290/538
f 282/279/539 275/289/539 285/292/539
f 277/291/540 285/292/540 275/289/540
f 284/283/536 282/281/536 286/294/536
f 285/293/536 286/294/536 282/281/536
f 276/290/541 284/285/541 280/296/541
f 286/295/542 280/296/542 284/285/542
f 270/280/543 268/278/543 281/280/543
f 283/286/544 274/288/544 272/286/544
f 279/295/545 280/296/545 286/295/545
f 285/292/546 277/291/546 278/292/546
f 272/284/527 270/282/527 287/297/527
f 287/297/527 288/298/527 272/284/527
f 281/282/536 283/284/536 289/298/536
f 289/298/547 290/297/547 281/282/547
f 270/299/548 281/300/548 290/301/548
f 290/301/549 287/302/549 270/299/549
f 283/300/550 272/299/550 288/302/550
f 288/302/550 289/301/550 283/300/550
f 278/293/551 279/294/551 291/303/551
f 286/294/552 285/293/552 291/303/552
f 279/304/553 286/305/553 291/306/553
f 285/305/554 278/304/554 291/306/554
f 289/298/555 288/297/555 292/298/555 293/307/555
f 287/297/556 290/298/556 294/297/556 295/307/556
f 290/297/557 289/298/557 293/297/557 294/307/557
f 288/298/527 287/297/527 295/298/527 292/307/527
f 294/297/558 293/298/558 295/297/558
f 292/298/559 295/297/559 293/298/559

