mtllib anim_barb_run_000038.mtl

o fat
usemtl fat.001
s off

v -0.177800 39.226501 -3.390900
v 1.860240 36.144421 6.136090
v 0.298640 39.643459 1.552700
v 0.410170 61.125252 -7.899920
v 8.983380 66.783318 -7.517170
v 2.812830 57.321373 -6.939790
v -0.362600 53.043571 -4.953550
v 7.938440 63.086010 -3.833690
v 7.704510 58.895180 -1.134110
v 6.919220 53.119850 -0.848420
v 4.142630 52.930508 -4.975850
v 6.409140 58.098370 -6.134190
v 8.997620 39.643471 4.793050
v 9.349620 39.058491 -1.635030
v 10.507700 38.670189 -1.884180
v 6.531680 41.373211 4.035890
v 3.993900 37.305252 7.078090
v 3.771970 34.191338 -3.572950
v 3.585070 37.721069 -4.881720
v 0.296510 37.832748 -3.561690
v -0.406430 37.224659 -4.214920
v 0.201120 66.778358 -7.609250
v 0.170300 68.771011 -7.646910
v 0.124170 60.073730 6.060360
v 5.176590 60.114941 3.903410
v 6.238220 64.300468 4.571970
v 8.982550 64.003151 2.116310
v 6.104000 67.102562 4.497200
v 11.320029 67.343529 0.046020
v 4.497020 53.188137 4.054050
v 1.102870 52.917671 5.311190
v 0.764170 67.009689 6.232170
v 4.603310 71.525642 -5.225920
v 10.776410 68.547356 -6.822400
v 11.550220 69.032959 -3.102280
v 2.895230 71.614342 3.605730
v 5.515690 72.738571 -0.874250
v 0.159480 70.793694 4.312430
v 2.663080 77.114647 0.711310
v 3.285500 74.742180 -2.572130
v 0.253830 74.884865 -3.419500
v 0.176000 77.768791 -0.532750
v 0.106330 72.816238 -5.228040
v 0.489180 48.590820 5.633000
v 5.364230 48.585648 5.032270
v 8.418850 48.233902 -0.145200
v 4.990500 47.639816 -5.334410
v -0.188040 47.554203 -6.038870
v 11.747240 65.782562 -0.448550
v 9.649750 64.916168 -7.886520
v 13.245029 65.983719 -3.113160
v 12.295620 67.108292 -6.286960
v 8.813600 63.273220 0.584600
v 2.581520 76.555672 6.199550
v 1.180830 75.040710 7.934610
v 2.883790 72.205299 4.753810
v 1.639600 71.137070 6.831620
v 0.698310 73.672112 7.879180
v 1.643460 77.010773 7.735360
v -0.144470 76.880981 8.001181
v 3.177320 77.890160 3.490160
v 0.535690 80.879761 8.120910
v -0.763210 80.830376 8.390590
v 1.701340 78.282028 8.359070
v 2.256590 80.142586 7.338540
v 1.223440 82.221283 5.412950
v -0.414440 82.216431 5.217900
v 0.269850 75.047180 8.458660
v -0.765430 77.626991 8.287920
v -0.900690 75.602257 9.461260
v -0.835060 75.018250 8.831680
v -0.843340 73.435837 8.847480
v 0.535200 70.673729 8.418270
v -0.861440 70.648254 8.907750
v 3.025130 80.228111 3.517960
v 2.543030 81.469490 2.955930
v -0.045170 81.717453 1.783120
v 13.534221 63.490700 -1.225130
v 13.984070 64.035942 -4.897280
v 8.897020 57.683910 -4.778430
v 10.616079 58.234100 -0.534810
v 10.374560 62.411972 -7.753800
v 11.439290 53.502258 -4.739050
v 13.056830 50.379299 -1.016800
v 11.205530 51.948051 -2.719180
v 14.437490 53.297310 -6.621210
v 15.743880 55.250351 -4.665490
v 14.575769 52.444691 -0.330820
v 15.359040 54.688438 -2.580300
v 13.486561 54.309380 -0.018100
v 13.371140 52.744659 -1.950530
v 10.904520 54.332981 -0.856030
v 13.380131 56.100800 -6.752439
v 13.939790 54.874439 -6.776450
v 15.085079 60.531723 -4.867680
v 14.399119 60.046631 -1.452350
v 12.678640 54.450260 -1.664160
v 12.439710 58.571373 -7.775160
v 9.091929 49.144402 4.859050
v 7.564960 50.171341 4.403700
v 10.017940 50.089611 5.685620
v 9.255630 51.814480 5.814570
v 7.779710 52.138271 5.133170
v 4.427850 52.932911 9.043070
v 4.338290 52.020630 8.948510
v 5.503070 51.680771 8.446490
v 6.256710 52.284889 8.412350
v 6.842840 51.393452 9.730471
v 5.018270 52.641510 6.656500
v 5.564390 52.848320 7.925530
v 3.593310 52.753036 8.348980
v 3.460520 52.553047 10.085480
v 2.906470 52.382233 9.473590
v 5.438610 50.731720 11.336980
v 7.179110 46.898460 7.865950
v 6.290590 46.314320 9.525960
v 4.881640 46.047100 12.073980
v 4.674190 51.003242 10.333080
v 6.994420 46.858440 10.092649
v 8.153709 47.450699 8.638710
v 3.330000 49.929718 13.016700
v 1.786270 30.795361 8.283970
v 3.755690 21.448532 7.178370
v 1.572950 23.637280 12.227010
v 7.578979 29.576471 7.249490
v 8.825680 22.588789 10.321330
v 3.913190 28.331841 4.958720
v 5.639490 29.712711 11.564460
v 5.718150 24.952339 14.760760
v 5.806120 31.871550 10.736740
v 6.229740 33.248753 8.761271
v 8.949960 31.555281 4.166800
v 6.831020 38.024120 7.184400
v 6.516390 13.329110 15.301690
v 7.356880 10.862720 16.867750
v 4.408810 10.519030 14.338750
v 5.089160 13.211280 18.608820
v 2.958370 13.634300 15.979880
v 2.332680 10.716630 17.203659
v 3.139260 6.053710 16.513559
v 6.374790 6.149020 16.284180
v 2.760840 10.312930 23.721149
v 8.938730 10.587179 23.376671
v 5.519950 13.966570 25.535149
v 7.925410 12.616180 26.878290
v 3.916920 12.763539 27.639050
v -9.563280 66.993797 -5.916570
v -1.891200 57.294697 -7.112390
v -5.979250 63.711670 -2.346770
v -7.316980 58.808979 -1.050640
v -4.956670 53.026192 -3.359800
v -6.374790 52.913891 1.356610
v -5.750620 58.028160 -6.385730
v -8.987490 38.928570 0.098420
v -7.148080 38.893131 5.961970
v -10.215389 38.511978 -0.216170
v -4.536530 38.465149 4.894550
v -4.925580 38.509689 -6.115510
v -4.581480 39.868439 -4.939300
v -1.080010 39.582050 -4.396420
v -4.833790 60.056671 3.967520
v -5.107640 64.226273 5.439260
v -10.142550 63.837032 3.719950
v -4.794300 67.027931 5.526220
v -10.227840 68.186234 2.903000
v -2.454760 52.800869 5.400970
v -11.437000 68.240517 -4.674590
v -5.147820 71.486542 -4.455680
v -11.547670 69.242073 -0.088770
v -2.603530 71.593002 3.618830
v -5.916260 72.825821 -0.465640
v -2.505460 77.127884 0.219640
v -2.827860 74.745239 -2.821730
v -3.837170 48.181389 5.886680
v -8.014480 47.783760 1.518070
v -5.671950 47.680923 -3.829750
v -11.485820 65.983650 2.141580
v -9.621500 64.008629 -5.781940
v -13.196310 66.915367 -0.235140
v -12.623240 65.409256 -3.530150
v -9.712430 63.809071 2.381510
v -2.612380 75.056473 7.524510
v -3.597380 76.581352 5.531520
v -3.210630 72.230522 4.391070
v -2.856860 71.155746 6.345480
v -2.140420 73.683914 7.572270
v -1.316860 76.885864 7.874450
v -3.005530 77.030098 7.232720
v -3.589360 77.918289 2.758580
v -1.974020 80.890190 7.849560
v -3.184930 78.302353 7.830791
v -3.493930 80.166489 6.716810
v -2.056070 82.234917 5.058410
v -1.834430 75.055931 8.231160
v -2.120930 70.684769 8.131081
v -3.427430 80.254929 2.820360
v -2.826160 81.491791 2.375430
v -12.720390 63.472748 1.616890
v -13.809370 63.394569 -1.991630
v -9.240710 58.699413 2.537060
v -8.784620 58.021870 -1.924590
v -10.466500 61.717983 -5.173580
v -12.164600 49.165768 2.329510
v -9.945610 53.174179 -0.675030
v -10.298870 51.234150 0.603710
v -13.067921 52.479610 -2.233880
v -14.348430 54.641460 -0.454440
v -12.564310 51.345768 4.212470
v -13.767100 54.377022 1.645470
v -10.525331 53.572788 4.512120
v -8.154520 53.557201 2.917490
v -11.582380 52.718777 2.338640
v -12.307500 55.315952 -2.925130
v -12.689110 54.104519 -2.649230
v -14.405290 59.805313 -1.491050
v -13.298790 59.936451 1.860100
v -10.712000 55.387032 1.796350
v -11.816280 57.697411 -4.395490
v -7.975610 46.523216 7.478950
v -6.252260 47.081779 6.795560
v -8.472080 47.275627 8.438560
v -7.291930 48.791489 8.678500
v -5.922780 48.893982 7.817150
v -2.126000 47.292179 10.926419
v -2.002510 48.271751 11.209940
v -3.365880 47.308422 10.580950
v -3.998600 48.152908 10.795060
v -4.611540 47.207180 12.066500
v -3.256260 48.621567 10.282030
v -2.922740 48.473289 8.908770
v -1.304190 47.904312 10.299480
v -1.033290 47.525093 12.028060
v -0.616540 47.338799 11.319489
v -3.219940 46.002430 13.330601
v -5.546760 42.315796 11.163549
v -6.444250 43.390709 9.787420
v -3.935340 41.240181 13.347990
v -2.529730 46.146450 12.195740
v -5.803761 42.820557 11.855210
v -6.956010 43.878868 10.694380
v -1.188680 44.389198 14.474590
v -3.864320 30.411119 -12.306610
v -1.090000 26.086090 -4.253290
v -1.111260 25.833019 -12.493670
v -8.551370 26.888868 -12.325710
v -7.041410 26.712191 -4.947720
v -3.703250 29.120829 -5.591311
v -4.841080 23.406050 -4.875830
v -4.879730 22.564240 -12.537420
v -4.790780 23.588291 -3.507060
v -4.618410 25.207331 -1.730150
v -8.562620 28.578279 -2.458560
v -4.763170 31.074800 2.335090
v -7.357470 25.405600 -25.820921
v -6.439810 25.970951 -22.955830
v -4.760670 28.027020 -25.044529
v -4.999010 23.105890 -24.373180
v -2.388870 25.430519 -26.070099
v -2.838200 25.459770 -23.037130
v -3.358450 28.037579 -29.979538
v -6.453850 28.019190 -29.824100
v -2.473940 19.812860 -29.263229
v -8.322371 19.482439 -29.092340
v -4.066640 16.375120 -27.370579
v -6.344740 15.484341 -29.222759
v -2.268740 15.437270 -29.451780

vt 0.550479 0.485338
vt 0.414517 0.485338
vt 0.489174 0.497239
vt 0.490853 0.675485
vt 0.356970 0.710738
vt 0.458986 0.602657
vt 0.458693 0.603155
vt 0.491001 0.506534
vt 0.357039 0.710738
vt 0.272881 0.708251
vt 0.307767 0.663467
vt 0.329118 0.504113
vt 0.420682 0.504388
vt 0.307693 0.663467
vt 0.420389 0.504181
vt 0.390374 0.619683
vt 0.389206 0.622726
vt 0.390855 0.620128
vt 0.309151 0.663075
vt 0.578845 0.971377
vt 0.529882 0.993867
vt 0.501054 0.950636
vt 0.597833 0.993868
vt 0.684209 0.993870
vt 0.691613 0.940228
vt 0.584242 0.936155
vt 0.602549 0.993867
vt 0.689094 0.993870
vt 0.694409 0.971380
vt 0.730001 0.975635
vt 0.490853 0.781888
vt 0.490853 0.820915
vt 0.240556 0.660920
vt 0.133663 0.660928
vt 0.131880 0.753091
vt 0.060606 0.782384
vt 0.055577 0.663688
vt 0.136145 0.808744
vt 0.060014 0.783494
vt 0.058190 0.859642
vt 0.160773 0.512959
vt 0.067037 0.515196
vt 0.240700 0.512959
vt 0.131877 0.752996
vt 0.240556 0.781375
vt 0.390182 0.870896
vt 0.298691 0.847983
vt 0.294173 0.886121
vt 0.181129 0.899551
vt 0.052544 0.886601
vt 0.145152 0.921474
vt 0.235241 0.891030
vt 0.142740 0.921054
vt 0.172936 0.966074
vt 0.456563 0.999059
vt 0.389917 0.922986
vt 0.429989 0.941889
vt 0.491140 0.942697
vt 0.490646 0.999330
vt 0.490853 0.898039
vt 0.701416 0.118225
vt 0.813217 0.120956
vt 0.790107 0.184348
vt 0.877923 0.002315
vt 0.872775 0.120438
vt 0.505869 0.118716
vt 0.564263 0.119120
vt 0.507564 0.183764
vt 0.697589 0.180917
vt 0.580429 0.182675
vt 0.710756 0.001536
vt 0.701372 0.182427
vt 0.812168 0.002315
vt 0.857243 0.184348
vt 0.697567 0.116528
vt 0.503935 0.000692
vt 0.561277 0.000692
vt 0.688827 -0.000098
vt 0.002866 0.854679
vt 0.027518 0.706813
vt 0.061197 0.782654
vt 0.055608 0.663958
vt 0.251604 0.781884
vt 0.357109 0.710738
vt 0.243886 0.876138
vt 0.247300 0.848527
vt -0.000514 0.880403
vt 0.006948 0.782948
vt 0.674684 0.829607
vt 0.705811 0.784366
vt 0.654033 0.662928
vt 0.703232 0.671848
vt 0.720473 0.730776
vt 0.697736 0.853617
vt 0.729837 0.853035
vt 0.623758 0.856571
vt 0.587609 0.811448
vt 0.658187 0.605708
vt 0.748523 0.593788
vt 0.716351 0.931575
vt 0.747491 0.935506
vt 0.695349 0.885675
vt 0.676247 0.904603
vt 0.649719 0.961956
vt 0.745560 1.001324
vt 0.725611 0.781438
vt 0.747491 0.878462
vt 0.747491 0.808438
vt 0.720379 0.731031
vt 0.747491 0.790807
vt 0.720762 0.730332
vt 0.748639 0.732530
vt 0.746944 0.628012
vt 0.703659 0.671442
vt 0.731857 0.666086
vt 0.747085 0.666819
vt 0.703186 0.671176
vt 0.611291 0.885598
vt 0.604148 0.909350
vt 0.550618 0.823662
vt 0.550618 0.934468
vt 0.625864 0.557513
vt 0.571978 0.557920
vt 0.578607 0.510287
vt 0.669444 0.510287
vt 0.756032 0.560223
vt 0.679695 0.557918
vt 0.877240 0.461159
vt 0.992418 0.461159
vt 0.944262 0.560223
vt 0.756457 0.510287
vt 0.806202 0.560223
vt 0.498275 0.560223
vt 0.875566 0.382888
vt 0.758260 0.308662
vt 0.875912 0.308662
vt 0.759996 0.360654
vt 0.669163 0.382888
vt 0.671223 0.308662
vt 0.584325 0.382888
vt 0.577057 0.308662
vt 0.498223 0.363687
vt 0.498247 0.308662
vt 0.992597 0.308662
vt 0.992439 0.363687
vt 0.759483 0.410364
vt 0.758924 0.382888
vt 0.665903 0.461159
vt 0.580075 0.461159
vt 0.498223 0.402657
vt 0.992438 0.402657
vt 0.760539 0.449273
vt 0.498220 0.461159
vt 0.875438 0.575163
vt 0.762705 0.196431
vt 0.858161 0.196355
vt 0.690657 0.196417
vt 0.588027 0.196417
vt 0.498144 0.196431
vt 0.991918 0.196431
vt 0.375723 0.009258
vt 0.380090 0.017573
vt 0.356438 0.030356
vt 0.342839 0.029458
vt 0.369327 0.043627
vt 0.316032 0.012201
vt 0.336848 0.019568
vt 0.249292 0.041099
vt 0.371147 0.002582
vt 0.416197 0.004791
vt 0.408124 0.000758
vt 0.128136 0.016613
vt 0.154876 0.002573
vt 0.119423 0.002194
vt 0.160447 0.001473
vt 0.065726 0.014292
vt 0.105093 0.028910
vt 0.000825 0.069213
vt 0.000703 0.039244
vt 0.249314 0.055441
vt 0.429228 0.045736
vt 0.102506 0.115410
vt 0.153549 0.117195
vt 0.189513 0.114692
vt 0.228429 0.109580
vt 0.194639 0.033982
vt 0.406548 0.108121
vt 0.355355 0.108206
vt 0.448349 0.035630
vt 0.498209 0.039288
vt 0.461840 0.047992
vt 0.483032 0.114221
vt 0.406174 0.120334
vt 0.355217 0.119080
vt 0.243215 0.037501
vt 0.249314 0.089732
vt 0.000703 0.095058
vt 0.249292 0.105039
vt 0.160984 0.032072
vt 0.413806 0.033644
vt 0.442212 0.108407
vt 0.443088 0.117732
vt 0.023914 0.327327
vt 0.104127 0.227894
vt 0.000784 0.227894
vt 0.216171 0.327327
vt 0.216985 0.228421
vt 0.105699 0.228145
vt 0.104981 0.327662
vt 0.217575 0.327327
vt 0.351490 0.301452
vt 0.217290 0.227894
vt 0.351571 0.227894
vt 0.352420 0.301452
vt 0.489174 0.227894
vt 0.352342 0.227894
vt 0.471690 0.333380
vt 0.351597 0.328057
vt 0.217345 0.328075
vt 0.352312 0.363299
vt 0.470864 0.334174
vt 0.352330 0.328057
vt 0.216660 0.380224
vt 0.216104 0.328075
vt 0.104983 0.328371
vt 0.217232 0.380224
vt 0.351611 0.363299
vt 0.351459 0.420971
vt 0.352499 0.420971
vt 0.351589 0.497239
vt 0.229465 0.497239
vt 0.352627 0.497239
vt 0.229583 0.497239
vt 0.133020 0.497239
vt 0.072972 0.497239
vt 0.025422 0.328212
vt 0.002386 0.497239
vt 0.216130 0.152222
vt 0.223982 0.125749
vt 0.105883 0.155747
vt 0.351732 0.147623
vt 0.223132 0.128232
vt 0.218721 0.149411
vt 0.469070 0.149411
vt 0.483427 0.127273
vt 0.352306 0.146326
vt 0.017963 0.152222
vt 0.104256 0.155747
vt 0.009616 0.131504
vt 0.104128 0.227914
vt 0.000790 0.227921
vt 0.216984 0.228396
vt 0.351571 0.227971
vt 0.217291 0.227882
vt 0.352342 0.227879
vt 0.489111 0.227891
vt 0.948232 0.041698
vt 0.989968 0.003451
vt 0.971575 0.059997
vt 0.909211 0.004273
vt 0.996004 0.120663
vt 0.925604 0.058708
vt 0.885225 0.122889
vt 0.516483 0.798440
vt 0.501430 0.685191
vt 0.597947 0.686709
vt 0.594444 0.793024
vt 0.950876 0.082499
vt 0.943924 0.157220
vt 0.507177 0.624822
vt 0.600053 0.622523
vt 0.901715 0.182549
vt 0.982420 0.184037
vt 0.730212 0.975635
vt 0.685579 0.991654
vt 0.692830 0.969164

vn -0.954492 -0.275092 0.115192
vn 0.145677 -0.154631 -0.977173
vn -0.144063 -0.326759 -0.934063
vn 0.804803 0.289023 0.518418
vn 0.824589 -0.139246 -0.548328
vn -0.014849 -0.411997 -0.911064
vn 0.272760 -0.322772 -0.906322
vn 0.932051 -0.306925 -0.192555
vn 0.259229 -0.226348 -0.938918
vn 0.889706 -0.426631 -0.162508
vn -0.303578 -0.950242 0.069853
vn -0.582361 -0.811845 0.041992
vn -0.125663 -0.542681 -0.830485
vn 0.053390 -0.421605 0.905206
vn -0.519394 0.272770 0.809831
vn -0.415069 -0.398684 0.817783
vn 0.360130 0.341034 0.868333
vn 0.451173 -0.841327 0.297677
vn 0.010493 -0.018729 -0.999770
vn 0.382844 -0.239616 0.892196
vn 0.726375 -0.489046 0.482923
vn 0.648554 0.017787 0.760961
vn 0.392691 -0.018530 0.919484
vn 0.893375 -0.078025 0.442485
vn 0.350393 -0.049991 0.935268
vn 0.267810 -0.048548 0.962248
vn -0.042084 0.402869 -0.914290
vn 0.010441 0.051731 -0.998606
vn 0.624365 -0.275140 0.731072
vn 0.384036 0.901923 -0.197613
vn 0.308131 0.040122 0.950498
vn 0.131197 0.526897 -0.839742
vn 0.669043 0.051831 0.741414
vn 0.541941 0.516432 0.663022
vn 0.582437 0.697758 0.417015
vn 0.265420 0.469606 0.842035
vn 0.154623 0.296199 0.942528
vn 0.782448 0.315533 0.536856
vn 0.751761 0.593892 -0.286614
vn 0.473680 0.629404 -0.616018
vn 0.192121 0.812380 -0.550570
vn 0.549964 0.675475 0.491196
vn 0.405613 0.854945 -0.323338
vn 0.756047 0.572090 -0.317971
vn 0.192694 0.670244 -0.716688
vn 0.236423 0.629926 -0.739796
vn 0.146585 0.509367 -0.847973
vn 0.119320 0.227874 0.966352
vn 0.860096 0.096784 0.500867
vn 0.813247 0.169483 -0.556691
vn -0.003254 0.067097 -0.997741
vn 0.120836 0.162911 0.979213
vn 0.345800 0.020724 0.938080
vn 0.916869 0.368433 0.153649
vn 0.825278 0.320246 0.465144
vn 0.868515 0.254100 0.425576
vn 0.814322 0.168149 -0.555523
vn 0.128984 0.196283 -0.972027
vn 0.788137 0.272492 -0.551894
vn 0.334340 -0.152115 -0.930096
vn 0.135736 -0.140748 -0.980697
vn 0.024678 -0.174339 -0.984376
vn 0.364021 0.123212 0.923205
vn 0.961720 0.205915 0.180814
vn 0.977466 -0.150144 -0.148382
vn 0.137214 0.239120 -0.961246
vn 0.692827 -0.038534 0.720073
vn 0.870470 0.484136 -0.088850
vn 0.773537 0.428274 0.467141
vn 0.434265 0.126615 -0.891842
vn 0.710811 0.663171 -0.234420
vn -0.860723 -0.215995 -0.460979
vn -0.960663 -0.194214 0.198513
vn 0.678789 -0.689170 0.253554
vn 0.823017 -0.126817 0.553679
vn 0.449122 -0.193670 0.872228
vn 0.142009 0.066540 0.987626
vn 0.976971 -0.003020 0.213351
vn 0.984483 -0.047364 -0.168965
vn 0.998483 -0.044279 0.032734
vn 0.359495 -0.828221 0.429899
vn 0.193735 0.175423 0.965243
vn 0.911170 -0.047426 0.409292
vn 0.974673 0.017497 0.222951
vn -0.054129 0.900158 0.432187
vn 0.475327 0.312560 0.822418
vn 0.684976 0.318256 0.655378
vn 0.699334 0.322849 0.637731
vn 0.486843 -0.206022 0.848845
vn 0.313347 -0.284215 0.906110
vn 0.049234 0.913260 0.404390
vn -0.020318 -0.032013 0.999281
vn 0.245445 -0.697825 0.672901
vn 0.531248 0.005677 0.847197
vn 0.474489 -0.865447 -0.160815
vn 0.866017 -0.039074 0.498486
vn 0.007753 -0.999522 -0.029912
vn 0.513966 0.124631 0.848708
vn 0.810867 0.060543 0.582091
vn 0.316026 -0.947061 -0.056588
vn 0.330398 0.018259 0.943665
vn 0.977702 0.066017 -0.199352
vn 0.917814 0.201591 -0.342021
vn 0.767695 -0.310090 0.560793
vn 0.163229 -0.440539 0.882769
vn 0.826305 -0.138832 0.545843
vn 0.056784 -0.316669 0.946835
vn 0.520856 0.704897 0.481487
vn 0.978250 0.061326 0.198155
vn 0.884047 0.428178 0.187417
vn 0.769131 0.595994 0.230716
vn 0.497933 0.298090 0.814374
vn 0.492001 0.409544 -0.768250
vn 0.399783 0.480275 -0.780711
vn 0.151110 0.980430 -0.126184
vn 0.030215 0.960227 -0.277580
vn 0.880013 -0.096655 0.465010
vn 0.767709 0.441083 0.464832
vn 0.556979 -0.068293 -0.827714
vn 0.891285 0.439692 -0.110825
vn -0.836657 -0.385669 0.388928
vn 0.962199 0.226335 0.151481
vn 0.580387 0.125340 -0.804637
vn -0.838299 -0.267803 -0.474906
vn 0.359176 -0.035944 0.932577
vn -0.098952 -0.783077 -0.614003
vn -0.366993 -0.784981 -0.499120
vn 0.855397 -0.514793 -0.057305
vn 0.819262 -0.556251 -0.139262
vn 0.968593 -0.217726 0.120094
vn 0.737457 0.332143 0.588080
vn 0.209035 0.753858 -0.622899
vn -0.698103 0.576273 -0.424925
vn 0.050617 0.618797 -0.783918
vn -0.450634 0.731950 0.511056
vn -0.470178 -0.293689 -0.832274
vn -0.536341 -0.228858 -0.812381
vn 0.688849 0.327028 -0.646947
vn 0.671987 0.055553 -0.738477
vn 0.968538 0.128965 0.212845
vn 0.968469 0.128580 0.213391
vn 0.325422 -0.026573 0.945195
vn -0.761401 -0.527509 0.376832
vn -0.852427 -0.060435 -0.519342
vn -0.490212 -0.486086 -0.723473
vn 0.738881 0.002315 -0.673832
vn 0.563308 0.170159 -0.808536
vn 0.941427 0.297137 0.159449
vn 0.948967 0.223643 0.222361
vn 0.360002 -0.077758 0.929706
vn 0.237690 -0.004392 0.971331
vn -0.958461 -0.204793 0.198525
vn 0.734617 0.167099 -0.657583
vn -0.527314 -0.246444 -0.813146
vn -0.800674 -0.399974 0.446029
vn 0.331258 -0.137169 0.933516
vn -0.764816 -0.460737 0.450309
vn 0.290050 -0.125079 0.948803
vn 0.584402 0.318392 -0.746392
vn -0.570293 -0.302410 -0.763750
vn -0.419027 -0.807306 -0.415540
vn -0.341665 -0.846430 -0.408438
vn 0.585676 -0.776639 0.231979
vn 0.718751 -0.627810 0.298748
vn 0.700063 0.300271 0.647880
vn 0.720504 0.270700 0.638432
vn 0.015016 0.915331 0.402421
vn -0.089127 0.949331 0.301376
vn -0.896998 0.196222 -0.396095
vn -0.887031 0.242552 -0.392868
vn 0.359888 -0.131078 0.923742
vn -0.469053 0.620647 0.628320
vn 0.073050 0.978876 -0.190958
vn -0.093138 0.985281 -0.143344
vn -0.059628 0.988981 -0.135506
vn -0.279807 0.955950 0.088698
vn -0.371524 0.925130 0.078135
vn 0.685824 0.266204 0.677334
vn 0.750755 -0.140605 0.645444
vn -0.378043 -0.785543 -0.489903
vn -0.104759 -0.929254 0.354277
vn -0.490190 -0.793612 -0.360407
vn -0.397689 -0.848979 -0.347963
vn -0.751193 -0.644521 -0.142481
vn -0.400559 0.356738 -0.843973
vn 0.238942 0.969364 -0.056928
vn -0.092872 0.946604 0.308732
vn -0.823699 -0.225525 -0.520248
vn -0.846688 -0.207540 -0.489946
vn 0.734378 0.078389 0.674199
vn 0.764113 0.076692 0.640507
vn -0.096464 0.939861 0.327653
vn 0.610096 0.051849 0.790629
vn 0.593572 -0.804029 0.034784
vn 0.478434 -0.877798 0.023908
vn -0.837142 -0.212138 -0.504173
vn 0.793626 0.311683 0.522506
vn -0.894750 -0.270442 -0.355365
vn -0.259788 -0.687130 -0.678500
vn 0.754188 -0.648470 -0.103375
vn -0.283736 0.403122 0.870050
vn 0.798124 0.100881 0.593988
vn 0.597997 -0.776292 -0.199424
vn 0.432131 0.831867 0.348224
vn 0.440843 0.822214 0.360029
vn -0.862096 -0.218483 -0.457227
vn -0.070012 0.948229 0.309775
vn 0.676374 0.035329 0.735711
vn 0.501135 -0.844583 0.188529
vn -0.929489 -0.156330 -0.334083
vn 0.550189 -0.251836 -0.796160
vn 0.573942 -0.263190 -0.775449
vn 0.867377 0.321676 0.379712
vn 0.848889 0.304243 0.432231
vn -0.565135 0.453431 0.689219
vn -0.514360 0.425482 0.744580
vn 0.909764 0.085528 0.406220
vn -0.470671 0.767939 0.434441
vn 0.475854 -0.821028 -0.315399
vn 0.873354 0.127334 0.470147
vn 0.867817 0.053840 0.493958
vn -0.280375 0.332628 0.900416
vn 0.920289 0.199598 0.336496
vn -0.554497 0.334892 0.761827
vn -0.876123 -0.129681 -0.464318
vn 0.886490 0.356545 0.294975
vn -0.434435 0.596023 0.675295
vn 0.941423 0.173471 0.289191
vn 0.503873 -0.545014 -0.670128
vn 0.330172 -0.677403 -0.657352
vn -0.287108 -0.697802 -0.656232
vn -0.852835 -0.488975 -0.183238
vn -0.508962 0.465343 0.724165
vn -0.990289 -0.130921 0.046765
vn 0.648196 -0.238324 -0.723218
vn 0.790133 0.497018 0.358697
vn -0.678121 0.403164 0.614500
vn -0.810026 -0.070462 -0.582146
vn 0.729074 -0.344061 -0.591670
vn -0.913270 -0.260013 -0.313579
vn -0.924725 -0.239169 -0.296111
vn 0.534772 -0.499820 -0.681321
vn 0.836574 0.082657 0.541582
vn 0.914055 0.081267 0.397364
vn -0.732973 0.247000 0.633831
vn -0.558861 0.222326 0.798903
vn -0.810322 -0.053810 -0.583509
vn -0.051525 -0.425412 -0.903532
vn -0.982593 -0.177889 0.053532
vn 0.955980 -0.169525 -0.239507
vn 0.066563 -0.856474 0.511880
vn 0.061438 -0.857874 0.510174
vn 0.663363 0.736915 -0.130021
vn 0.653364 -0.042551 -0.755847
vn -0.693089 0.715232 0.089833
vn 0.657740 0.743306 -0.121963
vn -0.793846 0.607884 -0.016914
vn 0.066223 -0.854907 0.514537
vn 0.066651 -0.854650 0.514910
vn 0.582714 0.764885 -0.274580
vn 0.137738 0.810958 0.568660
vn -0.736111 0.649858 -0.189272
vn 0.423855 -0.696983 -0.578412
vn -0.229528 -0.061800 -0.971338
vn 0.280945 -0.352324 -0.892714
vn -0.484838 0.344787 0.803775
vn -0.922146 -0.263164 -0.283535
vn -0.279653 -0.512762 -0.811707
vn -0.253097 -0.529847 -0.809447
vn -0.903520 -0.373201 -0.210650
vn -0.190381 -0.029611 -0.981264
vn -0.929615 -0.287234 -0.230894
vn 0.345244 -0.931572 -0.113934
vn -0.145754 -0.988522 0.039749
vn -0.145040 -0.988555 0.041507
vn 0.258611 -0.937645 0.232255
vn 0.664591 -0.578111 0.473399
vn -0.397696 -0.043071 0.916506
vn -0.169478 -0.620144 0.765962
vn -0.942121 -0.252184 0.220931
vn -0.171222 -0.021261 -0.985003
vn -0.365996 -0.331032 0.869750
vn -0.533612 -0.720329 0.443152
vn -0.400922 0.161523 0.901761
vn -0.388473 0.054354 0.919856
vn -0.715957 -0.098194 0.691205
vn 0.028391 -0.100237 0.994558
vn -0.127866 -0.012768 0.991709
vn -0.226418 0.495249 -0.838727
vn -0.169688 0.044345 -0.984500
vn -0.281041 -0.335788 0.899034
vn -0.443696 0.873248 -0.201427
vn -0.126029 -0.016694 0.991886
vn -0.239619 0.505102 -0.829129
vn -0.323621 0.006825 0.946162
vn -0.294115 0.485203 0.823453
vn -0.452117 0.759610 0.467529
vn -0.112024 0.435294 0.893292
vn -0.102782 0.425075 0.899304
vn -0.644788 0.408276 0.646189
vn -0.684800 0.607130 -0.403040
vn -0.345028 0.659342 -0.668000
vn -0.151896 0.785817 -0.599516
vn -0.385349 0.749221 0.538678
vn -0.517891 0.775923 -0.360184
vn -0.672032 0.653282 -0.348705
vn -0.259451 0.574102 -0.776590
vn -0.172351 0.655282 -0.735460
vn -0.247596 0.494338 -0.833263
vn 0.049840 0.089673 0.994723
vn -0.724040 0.043107 0.688410
vn -0.880288 0.269059 -0.390770
vn -0.325568 0.125954 -0.937092
vn 0.044696 0.140528 0.989067
vn 0.022838 0.070929 0.997220
vn -0.859158 0.309559 0.407456
vn -0.711344 0.248055 0.657615
vn -0.686273 0.276123 0.672893
vn -0.947578 0.151533 -0.281308
vn -0.364886 0.169405 -0.915511
vn -0.877056 0.281063 -0.389585
vn -0.740370 0.105216 -0.663914
vn -0.362365 0.197527 -0.910865
vn 0.340417 -0.170475 -0.924692
vn -0.093734 0.041476 0.994733
vn -0.825531 0.308017 0.472889
vn -0.821497 0.074703 -0.565298
vn -0.564356 -0.026203 -0.825116
vn -0.664975 0.125262 0.736287
vn -0.742985 0.550416 -0.380809
vn -0.650030 0.420786 0.632772
vn -0.616520 -0.059048 -0.785122
vn -0.931416 0.350241 -0.098972
vn 0.683396 -0.046185 -0.728585
vn 0.000622 -0.999777 0.021087
vn -0.742676 -0.630543 -0.225494
vn -0.928819 -0.168998 0.329749
vn -0.626742 -0.189199 0.755909
vn -0.349277 0.068584 0.934506
vn -0.996137 -0.077942 -0.040459
vn -0.922962 -0.189417 -0.335055
vn -0.843578 -0.199295 -0.498656
vn -0.347813 -0.838739 0.418979
vn -0.394118 0.177876 0.901682
vn -0.977951 -0.039573 0.205049
vn -0.999624 0.025703 0.009502
vn -0.032089 0.900063 0.434578
vn -0.637534 0.317176 0.702104
vn -0.806571 0.324448 0.494143
vn -0.816797 0.329149 0.473818
vn -0.658689 -0.201260 0.724999
vn -0.502094 -0.280822 0.817949
vn -0.127030 0.913992 0.385333
vn -0.193988 -0.031292 0.980505
vn -0.389318 -0.695185 0.604276
vn -0.699975 0.010792 0.714085
vn -0.367923 -0.841297 -0.396045
vn -0.983333 0.006714 0.181688
vn -0.008333 -0.999405 -0.033482
vn -0.682440 0.129599 0.719361
vn -0.916013 0.067717 0.395392
vn -0.224018 -0.961162 -0.161194
vn -0.524298 0.021812 0.851255
vn -0.908679 0.073839 -0.410913
vn -0.818594 0.204912 -0.536577
vn -0.872330 -0.303280 0.383486
vn -0.351757 -0.438405 0.827084
vn -0.924985 -0.131551 0.356506
vn -0.260433 -0.315331 0.912546
vn -0.605915 0.709578 0.359675
vn -0.997460 0.069535 -0.015446
vn -0.900125 0.435597 -0.005476
vn -0.795749 0.602493 0.061527
vn -0.658012 0.302899 0.689400
vn -0.334733 0.397469 -0.854384
vn -0.219666 0.484364 -0.846840
vn -0.112591 0.981526 -0.154694
vn 0.037700 0.960196 -0.276773
vn -0.899117 0.034480 0.436347
vn -0.743141 0.234427 0.626725
vn -0.643907 -0.187386 -0.741802
vn -0.904594 0.305715 -0.297065
vn 0.991738 0.094205 0.087075
vn -0.957244 0.022809 0.288382
vn -0.674364 0.053169 -0.736482
vn 0.609392 -0.405717 -0.681201
vn -0.236409 -0.086005 0.967840
vn -0.203025 -0.512840 -0.834132
vn 0.442531 -0.681695 -0.582631
vn -0.896376 -0.423723 -0.130262
vn -0.942219 -0.300555 0.147955
vn -0.954539 -0.173477 0.242405
vn -0.548049 0.403167 0.732871
vn -0.182934 0.942056 -0.281188
vn 0.613190 0.586831 -0.528798
vn -0.065287 0.733794 -0.676228
vn 0.855586 0.167141 0.489935
vn 0.480947 -0.325070 -0.814260
vn 0.473018 -0.334627 -0.815033
vn -0.780625 0.105608 -0.616013
vn -0.744453 -0.139279 -0.652986
vn -0.948894 0.052038 0.311275
vn -0.959066 0.070198 0.274344
vn -0.125882 0.236853 0.963356
vn 0.889257 -0.429914 0.156191
vn 0.605824 -0.351658 -0.713663
vn 0.574804 -0.512451 -0.637960
vn -0.797238 -0.189442 -0.573169
vn -0.686117 0.012470 -0.727384
vn -0.940126 0.195068 0.279484
vn -0.937085 0.174082 0.302600
vn -0.247062 0.006689 0.968977
vn -0.137042 0.090258 0.986445
vn 0.740080 -0.321051 0.590938
vn -0.793811 0.029793 -0.607434
vn 0.479234 -0.320573 -0.817049
vn 0.873994 -0.194600 0.445270
vn -0.037624 -0.035387 0.998665
vn 0.913466 -0.118422 0.389302
vn -0.201002 -0.127899 0.971206
vn -0.705167 0.100914 -0.701823
vn 0.615096 -0.343815 -0.709541
vn 0.037809 -0.818333 -0.573500
vn 0.270921 -0.748939 -0.604724
vn -0.684410 -0.702136 0.196441
vn -0.817402 -0.455021 0.353284
vn -0.489944 0.340604 0.802461
vn -0.550141 0.305271 0.777274
vn 0.320084 0.736131 0.596370
vn 0.371845 0.751111 0.545494
vn 0.809228 -0.195002 -0.554188
vn 0.865484 0.117195 -0.487034
vn -0.263617 -0.237377 0.934964
vn 0.699627 0.369076 0.611804
vn 0.162377 0.984461 -0.066864
vn 0.386876 0.919141 -0.074212
vn 0.290919 0.956192 -0.032593
vn 0.556669 0.825417 0.093842
vn 0.540868 0.835321 0.098491
vn -0.536796 0.229621 0.811865
vn -0.692292 -0.118740 0.711781
vn 0.171746 -0.807920 -0.563710
vn -0.031645 -0.971068 0.236697
vn 0.186577 -0.813951 -0.550157
vn 0.139805 -0.829470 -0.540772
vn 0.549742 -0.746694 -0.374475
vn 0.362198 0.406891 -0.838601
vn -0.003148 0.993566 0.113208
vn 0.384070 0.841745 0.379416
vn 0.630793 -0.355998 -0.689468
vn 0.665543 -0.345987 -0.661320
vn -0.604752 0.126488 0.786305
vn -0.637852 0.136852 0.757903
vn 0.440108 0.817531 0.371414
vn -0.446513 0.070335 0.892008
vn -0.823603 -0.558059 0.101236
vn -0.681498 -0.731761 0.009325
vn 0.667278 -0.346064 -0.659530
vn -0.629080 0.382658 0.676632
vn 0.719270 -0.459658 -0.520927
vn -0.105528 -0.622853 -0.775189
vn -0.883217 -0.458775 -0.097230
vn 0.494382 0.153493 0.855585
vn -0.672298 0.177260 0.718745
vn -0.825891 -0.534971 -0.178071
vn -0.170712 0.837908 0.518428
vn -0.179798 0.828828 0.529826
vn 0.686822 -0.372824 -0.623922
vn 0.433123 0.822859 0.367842
vn -0.574520 0.089278 0.813607
vn -0.723899 -0.657010 0.210495
vn 0.856514 0.515807 -0.018050
vn -0.595145 0.791197 0.140748
vn -0.554898 0.814407 0.169791
vn -0.823908 -0.544953 0.155569
vn -0.758354 -0.647517 0.074971
vn 0.652648 -0.753479 0.079496
vn 0.578588 -0.815280 0.023545
vn -0.829043 -0.549499 0.103625
vn 0.543942 -0.645861 0.535715
vn -0.504598 0.513972 -0.693696
vn -0.658218 -0.737589 0.150703
vn -0.542809 -0.487312 0.684022
vn 0.590960 -0.449521 0.669848
vn -0.814372 -0.387472 0.432045
vn 0.569390 -0.817355 0.087897
vn 0.727891 0.676400 0.112505
vn -0.727265 -0.204594 0.655155
vn 0.591067 -0.280096 0.756429
vn -0.716747 -0.194833 0.669563
vn -0.758250 0.126860 -0.639502
vn -0.542355 0.006649 -0.840123
vn 0.158609 0.072696 -0.984661
vn 0.446667 -0.009819 -0.894646
vn 0.683866 -0.345297 0.642727
vn 0.974186 -0.003115 -0.225726
vn -0.721194 0.686104 0.095606
vn -0.755230 -0.553489 0.351109
vn 0.700116 -0.705423 0.110526
vn 0.754616 0.647622 0.105548
vn -0.800200 0.597163 -0.055459
vn 0.845140 0.511516 -0.155209
vn 0.843604 0.513695 -0.156361
vn -0.589902 0.785985 -0.185048
vn -0.761116 -0.641503 -0.095794
vn -0.895574 -0.444768 -0.011329
vn 0.746771 -0.663999 -0.037913
vn 0.653659 -0.752504 -0.080425
vn 0.761918 0.609957 0.217795
vn -0.005917 0.999982 0.000457
vn 0.979003 0.089326 -0.183234
vn -0.974801 0.206032 -0.085523
vn -0.024597 -0.080035 -0.996489
vn -0.049395 -0.091928 -0.994540
vn -0.679586 -0.266734 0.683386
vn -0.723636 0.641227 0.255300
vn 0.711051 -0.355571 0.606610
vn -0.578382 -0.397386 0.712432
vn 0.850564 -0.111078 0.514006
vn -0.056042 0.004849 -0.998417
vn -0.031529 0.041553 -0.998639
vn -0.533079 -0.289615 0.794953
vn 0.013132 -0.907329 0.420216
vn 0.758377 0.007480 0.651774
vn -0.030952 -0.927755 -0.371904

f 1/1/1 2/2/1 3/3/1
f 4/4/2 5/5/2 6/6/2
f 4/4/3 6/7/3 7/8/3
f 5/9/4 8/10/4 9/11/4
f 10/12/5 11/13/5 9/14/5
f 6/6/6 11/15/6 7/8/6
f 6/6/7 12/16/7 11/13/7
f 12/17/8 5/5/8 9/14/8
f 6/6/9 5/5/9 12/17/9
f 11/13/10 12/18/10 9/19/10
f 13/20/11 14/21/11 15/22/11
f 14/21/12 13/20/12 16/23/12
f 16/24/13 13/20/13 17/25/13
f 15/22/14 14/21/14 18/26/14
f 14/21/15 19/27/15 18/26/15
f 18/26/16 20/28/16 21/29/16
f 18/26/17 19/27/17 20/28/17
f 20/28/18 3/30/18 21/29/18
f 5/9/19 22/31/19 23/32/19
f 24/33/20 25/34/20 26/35/20
f 27/36/21 25/34/21 9/37/21
f 28/38/22 27/39/22 29/40/22
f 30/41/23 25/34/23 24/33/23
f 25/34/24 30/41/24 10/42/24
f 30/41/25 24/33/25 31/43/25
f 24/33/26 26/44/26 32/45/26
f 33/46/27 34/47/27 5/9/27
f 4/4/28 22/31/28 5/9/28
f 26/35/29 25/34/29 27/39/29
f 33/46/30 35/48/30 34/47/30
f 32/45/31 26/35/31 28/38/31
f 23/32/32 33/46/32 5/9/32
f 26/35/33 27/39/33 28/38/33
f 28/38/34 29/40/34 36/49/34
f 35/50/35 37/51/35 29/40/35
f 28/38/36 38/52/36 32/45/36
f 36/49/37 38/52/37 28/38/37
f 36/49/38 37/53/38 39/54/38
f 39/55/39 37/56/39 40/57/39
f 41/58/40 42/59/40 39/55/40
f 39/55/41 40/57/41 41/58/41
f 36/49/42 29/40/42 37/51/42
f 37/56/43 35/48/43 33/46/43
f 37/56/44 33/46/44 40/57/44
f 40/57/45 33/46/45 43/60/45
f 40/57/46 43/60/46 41/58/46
f 33/46/47 23/32/47 43/60/47
f 44/61/48 45/62/48 30/63/48
f 15/64/49 46/65/49 45/62/49
f 46/66/50 47/67/50 10/68/50
f 47/67/51 7/69/51 11/70/51
f 45/62/52 44/61/52 17/71/52
f 44/61/53 30/63/53 31/72/53
f 13/73/54 15/64/54 45/62/54
f 46/65/55 10/74/55 45/62/55
f 45/62/56 10/74/56 30/63/56
f 47/67/57 11/70/57 10/68/57
f 47/67/58 48/75/58 7/69/58
f 46/66/59 15/76/59 47/67/59
f 18/77/60 47/67/60 15/76/60
f 47/67/61 18/77/61 48/75/61
f 18/77/62 21/78/62 48/75/62
f 13/73/63 45/62/63 17/71/63
f 49/79/64 35/50/64 29/40/64
f 8/80/65 27/81/65 9/82/65
f 34/47/66 50/83/66 5/84/66
f 27/36/67 49/79/67 29/40/67
f 35/48/68 51/85/68 52/86/68
f 35/50/69 49/79/69 51/87/69
f 52/86/70 50/83/70 34/47/70
f 35/48/71 52/86/71 34/47/71
f 5/84/72 50/83/72 8/10/72
f 53/88/73 27/81/73 8/80/73
f 53/88/74 49/79/74 27/36/74
f 54/89/75 55/90/75 56/91/75
f 57/92/76 55/90/76 58/93/76
f 59/94/77 60/95/77 55/90/77
f 61/96/78 54/89/78 56/91/78
f 39/97/79 61/96/79 36/98/79
f 36/98/80 61/96/80 56/91/80
f 36/98/81 56/91/81 38/99/81
f 62/100/82 63/101/82 64/102/82
f 65/103/83 64/102/83 54/89/83
f 61/96/84 65/103/84 54/89/84
f 66/104/85 67/105/85 62/100/85
f 55/90/86 60/95/86 68/106/86
f 69/107/87 68/106/87 60/95/87
f 69/107/88 70/108/88 68/106/88
f 58/109/89 55/90/89 68/106/89
f 68/106/90 71/110/90 58/111/90
f 62/100/91 67/105/91 63/101/91
f 64/102/92 63/101/92 69/107/92
f 70/108/93 71/110/93 68/106/93
f 58/111/94 71/110/94 72/112/94
f 56/91/95 57/92/95 38/113/95
f 55/90/96 57/114/96 56/91/96
f 73/115/97 74/116/97 38/113/97
f 58/109/98 72/112/98 73/115/98
f 57/117/99 58/111/99 73/115/99
f 57/92/100 73/115/100 38/113/100
f 73/115/101 72/112/101 74/116/101
f 39/97/102 75/118/102 61/96/102
f 75/118/103 39/97/103 76/119/103
f 64/102/104 59/94/104 54/89/104
f 64/102/105 60/95/105 59/94/105
f 54/89/106 59/94/106 55/90/106
f 64/102/107 69/107/107 60/95/107
f 65/103/108 66/104/108 62/100/108
f 65/103/109 61/96/109 75/118/109
f 75/118/110 76/119/110 65/103/110
f 66/104/111 65/103/111 76/119/111
f 62/100/112 64/102/112 65/103/112
f 39/97/113 42/120/113 76/119/113
f 77/121/114 76/119/114 42/120/114
f 67/105/115 76/119/115 77/121/115
f 66/104/116 76/119/116 67/105/116
f 9/82/117 25/34/117 10/42/117
f 51/122/118 49/123/118 78/124/118
f 79/125/119 50/126/119 52/127/119
f 52/127/120 51/122/120 79/125/120
f 80/128/121 81/129/121 53/130/121
f 51/122/122 78/124/122 79/125/122
f 82/131/123 50/126/123 79/125/123
f 50/126/124 82/131/124 8/132/124
f 53/133/125 78/124/125 49/123/125
f 83/134/126 84/135/126 85/136/126
f 84/135/127 83/134/127 86/137/127
f 86/137/128 87/138/128 84/135/128
f 88/139/129 84/135/129 87/138/129
f 87/138/130 89/140/130 88/139/130
f 90/141/131 88/139/131 89/140/131
f 91/142/132 92/143/132 90/141/132
f 90/141/133 89/140/133 91/142/133
f 85/136/134 92/144/134 91/145/134
f 91/145/135 83/134/135 85/136/135
f 80/128/136 93/146/136 83/134/136
f 94/147/137 83/134/137 93/146/137
f 93/146/138 87/138/138 94/147/138
f 87/138/139 93/146/139 95/148/139
f 95/148/140 96/149/140 87/138/140
f 89/140/141 87/138/141 96/149/141
f 97/150/142 91/142/142 89/140/142
f 97/151/143 81/129/143 80/128/143
f 8/132/144 82/131/144 80/128/144
f 93/146/145 80/128/145 98/152/145
f 98/152/146 95/148/146 93/146/146
f 95/148/147 82/131/147 79/125/147
f 79/125/148 78/124/148 95/148/148
f 96/149/149 95/148/149 78/124/149
f 78/124/150 53/133/150 81/153/150
f 81/153/151 96/149/151 78/124/151
f 80/128/152 53/130/152 8/154/152
f 94/147/153 87/138/153 86/137/153
f 86/137/154 83/134/154 94/147/154
f 97/151/155 83/134/155 91/145/155
f 89/140/156 96/149/156 97/150/156
f 80/128/157 83/134/157 97/151/157
f 81/153/158 97/150/158 96/149/158
f 82/131/159 95/148/159 98/152/159
f 98/152/160 80/128/160 82/131/160
f 85/136/161 99/155/161 100/156/161
f 99/155/162 85/136/162 84/135/162
f 84/135/163 101/157/163 99/155/163
f 101/157/164 84/135/164 88/139/164
f 88/139/165 90/141/165 101/157/165
f 102/158/166 101/157/166 90/141/166
f 90/141/167 103/159/167 102/158/167
f 103/159/168 90/141/168 92/143/168
f 92/144/169 85/136/169 103/160/169
f 100/156/170 103/160/170 85/136/170
f 104/161/171 105/162/171 106/163/171
f 107/164/172 106/163/172 108/165/172
f 109/166/173 110/167/173 103/168/173
f 109/166/174 111/169/174 104/161/174
f 104/161/175 110/167/175 109/166/175
f 104/161/176 111/169/176 112/170/176
f 113/171/177 112/170/177 111/169/177
f 106/163/178 110/167/178 104/161/178
f 104/161/179 112/170/179 105/162/179
f 105/172/180 113/173/180 111/174/180
f 113/173/181 105/172/181 112/175/181
f 105/172/182 111/174/182 109/176/182
f 109/176/183 106/177/183 105/172/183
f 109/176/184 100/178/184 106/177/184
f 103/179/185 100/178/185 109/176/185
f 102/180/186 103/168/186 110/167/186
f 106/163/187 114/181/187 108/165/187
f 115/182/188 116/183/188 106/177/188
f 116/184/189 117/185/189 118/186/189
f 108/165/190 114/181/190 119/187/190
f 119/187/191 120/188/191 108/165/191
f 118/189/192 121/190/192 114/191/192
f 114/191/193 121/190/193 117/192/193
f 116/193/194 115/194/194 119/187/194
f 120/188/195 119/187/195 115/194/195
f 121/195/196 118/186/196 117/185/196
f 108/165/197 101/196/197 102/180/197
f 115/182/198 106/177/198 100/178/198
f 100/178/199 99/197/199 115/182/199
f 120/188/200 99/198/200 101/196/200
f 106/163/201 107/164/201 110/167/201
f 108/165/202 120/188/202 101/196/202
f 120/188/203 115/194/203 99/198/203
f 107/164/204 102/180/204 110/167/204
f 102/180/205 107/164/205 108/165/205
f 118/199/206 106/177/206 116/183/206
f 114/181/207 106/163/207 118/200/207
f 114/191/208 117/192/208 119/201/208
f 117/192/209 116/202/209 119/201/209
f 122/203/210 123/204/210 124/205/210
f 125/206/211 126/207/211 123/208/211
f 125/206/212 123/208/212 127/209/212
f 125/210/213 128/211/213 126/212/213
f 128/211/214 129/213/214 126/212/214
f 128/214/215 124/215/215 129/216/215
f 122/217/216 124/215/216 128/214/216
f 130/218/217 128/211/217 125/219/217
f 131/220/218 122/221/218 130/222/218
f 132/223/219 125/224/219 127/225/219
f 132/226/220 131/227/220 125/219/220
f 133/228/221 131/227/221 132/226/221
f 133/229/222 122/221/222 131/220/222
f 130/218/223 125/219/223 131/227/223
f 128/214/224 130/222/224 122/221/224
f 127/209/225 123/204/225 122/203/225
f 16/230/226 133/228/226 14/231/226
f 16/232/227 3/3/227 133/229/227
f 14/231/228 133/228/228 132/226/228
f 14/233/229 132/223/229 19/234/229
f 132/223/230 127/225/230 19/234/230
f 20/235/231 19/234/231 127/225/231
f 20/235/232 127/225/232 122/236/232
f 3/3/233 122/221/233 133/229/233
f 3/237/234 20/235/234 122/236/234
f 134/238/235 135/239/235 136/240/235
f 137/241/236 135/242/236 134/243/236
f 138/244/237 139/245/237 137/246/237
f 138/247/238 136/248/238 139/249/238
f 134/238/239 136/240/239 123/208/239
f 138/247/240 123/250/240 136/248/240
f 123/250/241 138/247/241 124/251/241
f 134/238/242 123/208/242 126/252/242
f 129/253/243 134/243/243 126/254/243
f 137/241/244 134/243/244 129/253/244
f 138/244/245 137/246/245 129/255/245
f 138/244/246 129/255/246 124/256/246
f 136/257/247 140/258/247 139/259/247
f 136/257/248 141/260/248 140/258/248
f 142/261/249 139/259/249 140/258/249
f 135/262/250 143/263/250 141/260/250
f 141/264/251 143/265/251 142/266/251
f 142/266/252 140/267/252 141/264/252
f 137/268/253 143/263/253 135/262/253
f 135/262/254 141/260/254 136/257/254
f 139/259/255 142/261/255 137/268/255
f 137/268/256 144/269/256 143/263/256
f 137/268/257 142/261/257 144/269/257
f 143/265/258 145/270/258 146/271/258
f 146/271/259 142/266/259 143/265/259
f 143/263/260 144/269/260 145/272/260
f 144/269/261 146/273/261 145/272/261
f 146/273/262 144/269/262 142/261/262
f 3/274/263 16/275/263 17/276/263
f 147/5/264 4/4/264 148/6/264
f 148/7/265 4/4/265 7/8/265
f 149/10/266 147/9/266 150/11/266
f 151/13/267 152/12/267 150/14/267
f 151/15/268 148/6/268 7/8/268
f 153/16/269 148/6/269 151/13/269
f 147/5/270 153/17/270 150/14/270
f 147/5/271 148/6/271 153/17/271
f 153/18/272 151/13/272 150/19/272
f 154/21/273 155/20/273 156/22/273
f 155/20/274 154/21/274 157/23/274
f 155/20/275 157/24/275 17/25/275
f 154/21/276 156/22/276 158/26/276
f 159/27/277 154/21/277 158/26/277
f 160/28/278 158/26/278 21/29/278
f 159/27/279 158/26/279 160/28/279
f 3/30/280 160/28/280 21/29/280
f 22/31/281 147/9/281 23/32/281
f 161/34/282 24/33/282 162/35/282
f 161/34/283 163/36/283 150/37/283
f 163/39/284 164/38/284 165/40/284
f 161/34/285 166/41/285 24/33/285
f 166/41/286 161/34/286 152/42/286
f 24/33/287 166/41/287 31/43/287
f 162/44/288 24/33/288 32/45/288
f 167/47/289 168/46/289 147/9/289
f 22/31/290 4/4/290 147/9/290
f 161/34/291 162/35/291 163/39/291
f 169/48/292 168/46/292 167/47/292
f 162/35/293 32/45/293 164/38/293
f 168/46/294 23/32/294 147/9/294
f 163/39/295 162/35/295 164/38/295
f 165/40/296 164/38/296 170/49/296
f 171/51/297 169/50/297 165/40/297
f 38/52/298 164/38/298 32/45/298
f 38/52/299 170/49/299 164/38/299
f 171/53/300 170/49/300 172/54/300
f 171/56/301 172/55/301 173/57/301
f 42/59/302 41/58/302 172/55/302
f 173/57/303 172/55/303 41/58/303
f 165/40/304 170/49/304 171/51/304
f 169/48/305 171/56/305 168/46/305
f 168/46/306 171/56/306 173/57/306
f 168/46/307 173/57/307 43/60/307
f 43/60/308 173/57/308 41/58/308
f 23/32/309 168/46/309 43/60/309
f 174/62/310 44/61/310 166/63/310
f 175/65/311 156/64/311 174/62/311
f 176/67/312 175/66/312 152/68/312
f 7/69/313 176/67/313 151/70/313
f 44/61/314 174/62/314 17/71/314
f 166/63/315 44/61/315 31/72/315
f 156/64/316 155/73/316 174/62/316
f 152/74/317 175/65/317 174/62/317
f 152/74/318 174/62/318 166/63/318
f 151/70/319 176/67/319 152/68/319
f 48/75/320 176/67/320 7/69/320
f 156/76/321 175/66/321 176/67/321
f 176/67/322 158/77/322 156/76/322
f 158/77/323 176/67/323 48/75/323
f 21/78/324 158/77/324 48/75/324
f 174/62/325 155/73/325 17/71/325
f 169/50/326 177/79/326 165/40/326
f 163/81/327 149/80/327 150/82/327
f 178/83/328 167/47/328 147/84/328
f 177/79/329 163/36/329 165/40/329
f 179/85/330 169/48/330 180/86/330
f 177/79/331 169/50/331 179/87/331
f 178/83/332 180/86/332 167/47/332
f 180/86/333 169/48/333 167/47/333
f 178/83/334 147/84/334 149/10/334
f 163/81/335 181/88/335 149/80/335
f 177/79/336 181/88/336 163/36/336
f 182/90/337 183/89/337 184/91/337
f 182/90/338 185/92/338 186/93/338
f 187/95/339 188/94/339 182/90/339
f 183/89/340 189/96/340 184/91/340
f 189/96/341 172/97/341 170/98/341
f 189/96/342 170/98/342 184/91/342
f 184/91/343 170/98/343 38/99/343
f 63/101/344 190/100/344 191/102/344
f 191/102/345 192/103/345 183/89/345
f 192/103/346 189/96/346 183/89/346
f 67/105/347 193/104/347 190/100/347
f 187/95/348 182/90/348 194/106/348
f 194/106/349 69/107/349 187/95/349
f 70/108/350 69/107/350 194/106/350
f 182/90/351 186/109/351 194/106/351
f 71/110/352 194/106/352 186/111/352
f 67/105/353 190/100/353 63/101/353
f 63/101/354 191/102/354 69/107/354
f 71/110/355 70/108/355 194/106/355
f 71/110/356 186/111/356 72/112/356
f 185/92/357 184/91/357 38/113/357
f 185/114/358 182/90/358 184/91/358
f 74/116/359 195/115/359 38/113/359
f 72/112/360 186/109/360 195/115/360
f 186/111/361 185/117/361 195/115/361
f 195/115/362 185/92/362 38/113/362
f 72/112/363 195/115/363 74/116/363
f 196/118/364 172/97/364 189/96/364
f 172/97/365 196/118/365 197/119/365
f 188/94/366 191/102/366 183/89/366
f 187/95/367 191/102/367 188/94/367
f 188/94/368 183/89/368 182/90/368
f 69/107/369 191/102/369 187/95/369
f 193/104/370 192/103/370 190/100/370
f 189/96/371 192/103/371 196/118/371
f 197/119/372 196/118/372 192/103/372
f 192/103/373 193/104/373 197/119/373
f 191/102/374 190/100/374 192/103/374
f 42/120/375 172/97/375 197/119/375
f 197/119/376 77/121/376 42/120/376
f 197/119/377 67/105/377 77/121/377
f 197/119/378 193/104/378 67/105/378
f 161/34/379 150/82/379 152/42/379
f 177/123/380 179/122/380 198/124/380
f 178/126/381 199/125/381 180/127/381
f 179/122/382 180/127/382 199/125/382
f 200/129/383 201/128/383 181/130/383
f 198/124/384 179/122/384 199/125/384
f 178/126/385 202/131/385 199/125/385
f 202/131/386 178/126/386 149/132/386
f 198/124/387 181/133/387 177/123/387
f 203/135/388 204/134/388 205/136/388
f 204/134/389 203/135/389 206/137/389
f 207/138/390 206/137/390 203/135/390
f 203/135/391 208/139/391 207/138/391
f 209/140/392 207/138/392 208/139/392
f 208/139/393 210/141/393 209/140/393
f 211/143/394 212/142/394 210/141/394
f 209/140/395 210/141/395 212/142/395
f 211/144/396 205/136/396 212/145/396
f 204/134/397 212/145/397 205/136/397
f 213/146/398 201/128/398 204/134/398
f 204/134/399 214/147/399 213/146/399
f 207/138/400 213/146/400 214/147/400
f 213/146/401 207/138/401 215/148/401
f 216/149/402 215/148/402 207/138/402
f 207/138/403 209/140/403 216/149/403
f 212/142/404 217/150/404 209/140/404
f 200/129/405 217/151/405 201/128/405
f 202/131/406 149/132/406 201/128/406
f 201/128/407 213/146/407 218/152/407
f 215/148/408 218/152/408 213/146/408
f 202/131/409 215/148/409 199/125/409
f 198/124/410 199/125/410 215/148/410
f 215/148/411 216/149/411 198/124/411
f 181/133/412 198/124/412 200/153/412
f 216/149/413 200/153/413 198/124/413
f 181/130/414 201/128/414 149/154/414
f 207/138/415 214/147/415 206/137/415
f 204/134/416 206/137/416 214/147/416
f 204/134/417 217/151/417 212/145/417
f 216/149/418 209/140/418 217/150/418
f 204/134/419 201/128/419 217/151/419
f 217/150/420 200/153/420 216/149/420
f 215/148/421 202/131/421 218/152/421
f 201/128/422 218/152/422 202/131/422
f 219/155/423 205/136/423 220/156/423
f 205/136/424 219/155/424 203/135/424
f 221/157/425 203/135/425 219/155/425
f 203/135/426 221/157/426 208/139/426
f 210/141/427 208/139/427 221/157/427
f 221/157/428 222/158/428 210/141/428
f 223/159/429 210/141/429 222/158/429
f 210/141/430 223/159/430 211/143/430
f 205/136/431 211/144/431 223/160/431
f 223/160/432 220/156/432 205/136/432
f 224/162/433 225/161/433 226/163/433
f 226/163/434 227/164/434 228/165/434
f 229/167/435 230/166/435 223/168/435
f 231/169/436 230/166/436 225/161/436
f 229/167/437 225/161/437 230/166/437
f 231/169/438 225/161/438 232/170/438
f 232/170/439 233/171/439 231/169/439
f 229/167/440 226/163/440 225/161/440
f 232/170/441 225/161/441 224/162/441
f 233/173/442 224/172/442 231/174/442
f 224/172/443 233/173/443 232/175/443
f 231/174/444 224/172/444 230/176/444
f 226/177/445 230/176/445 224/172/445
f 220/178/446 230/176/446 226/177/446
f 220/178/447 223/179/447 230/176/447
f 223/168/448 222/180/448 229/167/448
f 234/181/449 226/163/449 228/165/449
f 235/183/450 236/182/450 226/177/450
f 237/185/451 235/184/451 238/186/451
f 234/181/452 228/165/452 239/187/452
f 240/188/453 239/187/453 228/165/453
f 241/190/454 238/189/454 234/191/454
f 241/190/455 234/191/455 237/192/455
f 236/194/456 235/193/456 239/187/456
f 239/187/457 240/188/457 236/194/457
f 238/186/458 241/195/458 237/185/458
f 221/196/459 228/165/459 222/180/459
f 226/177/460 236/182/460 220/178/460
f 219/197/461 220/178/461 236/182/461
f 219/198/462 240/188/462 221/196/462
f 227/164/463 226/163/463 229/167/463
f 240/188/464 228/165/464 221/196/464
f 236/194/465 240/188/465 219/198/465
f 222/180/466 227/164/466 229/167/466
f 227/164/467 222/180/467 228/165/467
f 226/177/468 238/199/468 235/183/468
f 226/163/469 234/181/469 238/200/469
f 237/192/470 234/191/470 239/201/470
f 235/202/471 237/192/471 239/201/471
f 242/204/472 243/203/472 244/205/472
f 245/207/473 246/206/473 242/208/473
f 242/208/474 246/206/474 247/209/474
f 248/211/475 246/210/475 245/212/475
f 249/213/476 248/211/476 245/212/476
f 244/215/477 248/214/477 249/216/477
f 244/215/478 243/217/478 248/214/478
f 248/211/479 250/218/479 246/219/479
f 243/221/480 251/220/480 250/222/480
f 246/224/481 252/223/481 247/225/481
f 251/227/482 252/226/482 246/219/482
f 251/227/483 253/228/483 252/226/483
f 243/221/484 253/229/484 251/220/484
f 246/219/485 250/218/485 251/227/485
f 250/222/486 248/214/486 243/221/486
f 242/204/487 247/209/487 243/203/487
f 253/228/488 157/230/488 154/231/488
f 3/3/489 157/232/489 253/229/489
f 253/228/490 154/231/490 252/226/490
f 252/223/491 154/233/491 159/234/491
f 247/225/492 252/223/492 159/234/492
f 159/234/493 160/235/493 247/225/493
f 247/225/494 160/235/494 243/236/494
f 243/221/495 3/3/495 253/229/495
f 160/235/496 3/237/496 243/236/496
f 254/239/497 255/238/497 256/240/497
f 254/242/498 257/241/498 255/243/498
f 258/245/499 259/244/499 257/246/499
f 256/248/500 259/247/500 258/249/500
f 256/240/501 255/238/501 242/208/501
f 242/250/502 259/247/502 256/248/502
f 259/247/503 242/250/503 244/251/503
f 242/208/504 255/238/504 245/252/504
f 255/243/505 249/253/505 245/254/505
f 255/243/506 257/241/506 249/253/506
f 257/246/507 259/244/507 249/255/507
f 249/255/508 259/244/508 244/256/508
f 260/258/509 256/257/509 258/259/509
f 261/260/510 256/257/510 260/258/510
f 258/259/511 262/261/511 260/258/511
f 263/263/512 254/262/512 261/260/512
f 263/265/513 261/264/513 262/266/513
f 260/267/514 262/266/514 261/264/514
f 263/263/515 257/268/515 254/262/515
f 261/260/516 254/262/516 256/257/516
f 262/261/517 258/259/517 257/268/517
f 264/269/518 257/268/518 263/263/518
f 262/261/519 257/268/519 264/269/519
f 265/270/520 263/265/520 266/271/520
f 262/266/521 266/271/521 263/265/521
f 264/269/522 263/263/522 265/272/522
f 266/273/523 264/269/523 265/272/523
f 264/269/524 266/273/524 262/261/524
f 157/275/525 3/274/525 17/276/525

o 
usemtl axe.001
s off

v 28.348869 71.261719 6.069860
v 23.812870 65.888641 8.113270
v 33.165329 68.803261 12.689151
v 30.307491 67.079979 12.481960
v 33.830700 67.510918 14.260401
v 30.972851 65.787651 14.053210
v 33.888611 60.501869 19.151951
v 27.279871 59.154701 16.300581
v 33.921238 74.621849 6.473840
v 39.460979 63.862000 19.555929
v 40.529980 75.969017 9.325210
v 36.023182 70.526535 12.896339
v 36.688541 69.234192 14.467590
v 43.996979 69.235069 17.512529
v 31.121311 65.889526 11.158210
v 33.979149 67.612793 11.365390
v 31.786671 64.597198 12.729450
v 34.644512 66.320465 12.936640
v 36.836990 69.336060 11.572580
v 37.502361 68.043732 13.143830
v 1.789620 49.883781 10.414490
v 2.454970 48.591442 11.985740
v 3.268790 47.400978 10.661980
v 2.250200 49.651863 9.650380
v 42.780930 72.914070 13.456390
v -27.279070 30.661900 9.830080
v -26.499022 29.557878 8.413070
v -27.130621 30.763769 6.935070
v -27.944441 31.954229 8.258830

vt 0.033358 0.643728
vt 0.190411 0.923560
vt 0.402692 0.503812
vt 0.402692 0.647326
vt 0.408249 0.287497
vt 0.408249 0.367848
vt 0.492649 0.287497
vt 0.492649 0.367848
vt 0.403043 0.503812
vt 0.403044 0.647326
vt 0.033710 0.643728
vt 0.190763 0.923560
vt 0.033358 0.363896
vt 0.033710 0.363896
vt 0.190411 0.084064
vt 0.402692 0.360297
vt 0.408249 0.207147
vt 0.492649 0.207147
vt 0.403043 0.360297
vt 0.190763 0.084064
vt 0.408248 1.036942
vt 0.492649 1.036942
vt 0.483600 0.371280
vt 0.402049 0.371280
vt 0.402049 1.040375
vt 0.483600 1.040375
vt 0.450449 0.037941
vt 0.483600 0.210579
vt 0.402049 0.210579
vt 0.442825 0.041374
vt 0.000000 1.000000

vn -0.489477 0.638917 0.593462
vn -0.472245 0.722437 0.505045
vn -0.415742 0.608150 0.676249
vn -0.374034 0.528681 0.761968
vn -0.427361 0.494398 0.756924
vn -0.451044 0.678257 0.580108
vn -0.395978 0.709998 0.582326
vn -0.340295 0.466156 0.816638
vn -0.336503 0.569338 0.750080
vn 0.340294 -0.466158 -0.816637
vn 0.336502 -0.569338 -0.750081
vn 0.415740 -0.608153 -0.676247
vn 0.395979 -0.709997 -0.582327
vn 0.451043 -0.678258 -0.580109
vn 0.374034 -0.528679 -0.761969
vn 0.427360 -0.494398 -0.756925
vn 0.489476 -0.638917 -0.593462
vn 0.472243 -0.722441 -0.505040
vn -0.235620 -0.790187 0.565763
vn -0.744879 0.198945 -0.636848
vn 0.235621 0.790186 -0.565764
vn 0.744880 -0.198948 0.636846
vn 0.224348 -0.313207 -0.922805
vn -0.303674 0.608056 -0.733519
vn -0.424668 0.762875 -0.487523
vn 0.310848 -0.603760 0.734063
vn -0.294102 0.673319 0.678341
vn 0.529459 -0.531401 -0.661276
vn 0.435755 -0.519452 0.735043
vn -0.178876 0.674350 -0.716419
vn 0.322993 -0.624772 0.710870
vn -0.354810 0.657610 -0.664574
vn 0.341064 -0.436715 -0.832439
vn -0.853168 -0.518364 -0.058340
vn -0.852591 -0.518470 -0.065395

f 267/277/526 268/278/526 269/279/526
f 270/280/527 269/279/527 268/278/527
f 269/281/528 270/282/528 271/283/528
f 272/284/528 271/283/528 270/282/528
f 271/285/529 272/286/529 273/287/529
f 274/288/530 273/287/530 272/286/530
f 275/289/531 267/277/531 269/279/531
f 273/287/529 276/290/529 271/285/529
f 277/291/532 275/289/532 278/292/532
f 269/279/531 278/292/531 275/289/531
f 278/293/528 269/281/528 279/294/528
f 271/283/528 279/294/528 269/281/528
f 279/295/533 271/285/533 280/296/533
f 276/290/534 280/296/534 271/285/534
f 281/280/535 268/278/535 282/279/535
f 267/277/536 282/279/536 268/278/536
f 283/284/537 281/282/537 284/283/537
f 282/281/537 284/283/537 281/282/537
f 274/288/538 283/286/538 273/287/538
f 284/285/539 273/287/539 283/286/539
f 282/279/540 267/277/540 275/289/540
f 273/287/539 284/285/539 276/290/539
f 282/279/540 275/289/540 285/292/540
f 277/291/541 285/292/541 275/289/541
f 284/283/537 282/281/537 286/294/537
f 285/293/537 286/294/537 282/281/537
f 276/290/542 284/285/542 280/296/542
f 286/295/543 280/296/543 284/285/543
f 270/280/544 268/278/544 281/280/544
f 283/286/545 274/288/545 272/286/545
f 279/295/546 280/296/546 286/295/546
f 285/292/547 277/291/547 278/292/547
f 272/284/528 270/282/528 287/297/528
f 287/297/528 288/298/528 272/284/528
f 281/282/537 283/284/537 289/298/537
f 289/298/548 290/297/548 281/282/548
f 270/299/549 281/300/549 290/301/549
f 290/301/550 287/302/550 270/299/550
f 283/300/551 272/299/551 288/302/551
f 288/302/551 289/301/551 283/300/551
f 278/293/552 279/294/552 291/303/552
f 286/294/553 285/293/553 291/303/553
f 279/304/554 286/305/554 291/306/554
f 285/305/555 278/304/555 291/306/555
f 289/298/556 288/297/556 292/298/556 293/307/556
f 287/297/557 290/298/557 294/297/557 295/307/557
f 290/297/558 289/298/558 293/297/558 294/307/558
f 288/298/528 287/297/528 295/298/528 292/307/528
f 294/297/559 293/298/559 295/297/559
f 292/298/560 295/297/560 293/298/560

