mtllib anim_barb_walk_000015.mtl

o fat
usemtl fat.001
s off

v -0.098380 40.316029 -3.380890
v 1.860240 36.144421 6.136090
v 0.189000 39.879311 1.415500
v 0.410170 62.358406 -7.899920
v 10.086620 68.016495 -5.948350
v 2.812830 58.554531 -6.939800
v -0.362600 54.276730 -4.953560
v 8.480579 64.320488 -2.616290
v 7.756500 60.128349 -0.718780
v 6.919220 54.353008 -0.848430
v 4.142630 54.163670 -4.975850
v 6.618890 59.331532 -5.910940
v 8.790720 38.349289 4.698700
v 9.383880 40.706619 -1.665370
v 10.538960 40.261414 -2.186830
v 6.252020 39.243000 4.611380
v 3.993900 38.538410 7.078080
v 4.163650 39.945820 -6.905100
v 3.780070 41.269001 -5.689140
v 0.488990 40.880753 -4.516480
v -0.110070 37.470871 -3.566970
v 0.201120 68.011520 -7.609260
v 0.170300 70.004173 -7.646910
v -0.054870 61.306900 6.063280
v 4.839450 61.348091 4.316920
v 5.535330 65.533630 5.400430
v 8.765200 65.236313 2.895490
v 5.282470 68.335716 5.433920
v 11.231600 68.469955 1.843330
v 4.497020 54.421303 4.054040
v 1.102870 54.150818 5.311190
v -0.269100 68.242851 6.272900
v 5.390980 72.758789 -4.403730
v 11.654820 69.946373 -5.006680
v 11.907721 70.272331 -1.226600
v 2.501930 72.847504 3.889680
v 5.580440 73.971725 -0.177000
v -0.293960 72.026848 4.307540
v 2.663080 78.347809 0.711300
v 3.494570 75.975342 -2.280520
v 0.497190 76.118027 -3.394260
v 0.177910 79.001953 -0.532110
v 0.741770 74.049393 -5.178100
v 0.489180 49.823990 5.632990
v 5.364230 49.818810 5.032270
v 8.418850 49.467068 -0.145200
v 4.995090 48.872982 -5.330200
v -0.188040 48.787361 -6.038870
v 11.857420 66.784805 1.229680
v 10.648499 66.495430 -6.380250
v 13.646640 67.238533 -1.244170
v 13.077980 68.557289 -4.387340
v 8.923700 64.119339 1.597730
v 2.581520 77.788834 6.199550
v 1.180830 76.273872 7.934600
v 2.469060 73.438469 4.983900
v 1.639600 72.370232 6.831610
v 0.698310 74.905273 7.879170
v 1.643460 78.243942 7.735350
v -0.144470 78.114151 8.001181
v 3.177320 79.123329 3.490150
v 0.535690 82.112923 8.120910
v -0.763210 82.063530 8.390590
v 1.701340 79.515190 8.359060
v 2.256590 81.375748 7.338530
v 1.223440 83.454445 5.412940
v -0.414440 83.449600 5.217900
v 0.269850 76.280342 8.458660
v -0.765430 78.860153 8.287920
v -0.900690 76.835434 9.461260
v -0.835060 76.251419 8.831680
v -0.843340 74.668999 8.847470
v 0.535200 71.906898 8.418261
v -0.861440 71.881409 8.907750
v 3.025130 81.461273 3.517950
v 2.543030 82.702644 2.955920
v -0.045170 82.950623 1.783120
v 13.798510 64.565430 0.397500
v 14.611300 65.497780 -3.131590
v 9.690331 59.103889 -4.200620
v 10.949591 59.228703 0.233880
v 11.354589 64.135887 -6.502750
v 12.312950 54.973839 -4.324730
v 12.671360 51.511379 -1.091370
v 11.572209 53.885002 -2.680260
v 15.493090 55.005260 -5.892990
v 16.544611 56.759338 -3.620670
v 14.679110 53.116268 0.112920
v 15.960360 55.977379 -1.656230
v 14.129000 55.196373 0.721680
v 13.964569 53.953171 -1.441640
v 11.765929 55.869522 -0.275380
v 14.389050 57.793381 -5.845580
v 14.976970 56.583511 -5.936660
v 15.785750 62.024033 -3.346960
v 14.763221 61.175388 -0.090500
v 13.206210 55.610470 -1.055720
v 13.500980 60.345238 -6.701940
v 7.900540 50.412403 4.181450
v 6.725940 51.855690 3.819760
v 8.929610 50.943909 5.226740
v 8.595750 52.763069 5.616780
v 7.326030 53.559090 4.908500
v 3.852740 54.551628 8.664140
v 3.557110 53.720051 8.398970
v 4.653930 53.177563 7.922600
v 5.529900 53.565620 8.049830
v 5.734470 52.354969 9.219490
v 4.615980 54.503662 6.309490
v 5.051930 54.358028 7.628650
v 3.081550 54.705063 7.894540
v 2.713150 54.271088 9.552549
v 2.205500 54.348076 8.884030
v 4.043280 51.827660 10.580550
v 5.182390 48.281651 6.593120
v 4.001240 47.687511 8.055370
v 2.296330 47.387081 10.411640
v 3.482710 52.442898 9.594080
v 4.748230 47.935181 8.757690
v 6.169620 48.434700 7.517210
v 1.631030 51.335594 11.940620
v 1.560280 28.411720 -3.241150
v 3.837480 22.222591 -10.607780
v 1.325510 20.615950 -6.037670
v 7.453770 28.350040 -4.577960
v 8.699800 21.005239 -7.495200
v 3.998720 29.695990 -7.015590
v 5.239670 25.147600 -1.845550
v 5.265990 19.566509 -3.143720
v 5.373030 26.996592 -0.701850
v 5.857960 29.249361 -0.629720
v 8.939981 32.025150 -4.394390
v 6.363170 33.206528 2.490820
v 6.313660 10.696270 -9.868040
v 7.107130 7.651670 -9.955100
v 4.357270 9.505250 -12.165370
v 4.635770 7.789750 -7.265630
v 2.700100 10.384459 -8.976400
v 2.083150 7.488840 -10.228630
v 3.122130 5.278610 -14.336949
v 6.374300 5.560360 -14.212600
v 2.038180 1.816210 -6.940280
v 8.207020 2.015730 -6.424710
v 4.494220 2.221920 -2.691090
v 6.848160 0.264110 -2.890550
v 2.791350 -0.132360 -2.659190
v -8.663960 68.203621 -7.179640
v -1.851690 58.527870 -7.123360
v -5.513040 64.951302 -3.242820
v -7.212310 60.042137 -1.647990
v -4.956670 54.259346 -3.359810
v -6.374790 54.147049 1.356610
v -5.630170 59.261322 -6.495120
v -9.031140 40.648140 0.032280
v -7.455010 39.643600 6.205170
v -10.243610 40.047642 0.011320
v -5.115200 43.082802 5.014240
v -4.684160 36.986748 -4.261620
v -4.455640 39.917160 -4.641420
v -0.864980 39.271667 -3.844680
v -4.986000 61.289829 3.779820
v -5.835480 65.459427 4.657320
v -10.615979 65.082680 2.028840
v -5.637480 68.261093 4.668030
v -10.558749 69.446609 1.281910
v -2.454760 54.034027 5.400970
v -10.523840 69.448601 -6.481720
v -4.354930 72.719696 -5.237440
v -11.383400 70.479568 -1.982400
v -2.895270 72.826164 3.394910
v -5.846620 74.059021 -1.067740
v -2.505460 78.361038 0.219630
v -2.681630 75.978386 -2.964830
v -3.837170 49.414551 5.886670
v -8.015210 49.062981 0.660210
v -5.577210 47.924191 -5.176620
v -11.684460 67.258881 0.389110
v -8.545429 65.187241 -7.230740
v -12.983380 68.152306 -2.377420
v -11.877480 66.605461 -5.519350
v -9.972011 65.078293 0.787890
v -2.612380 76.289627 7.524500
v -3.597380 77.814514 5.531520
v -3.561720 73.463676 4.117120
v -2.856860 72.388924 6.345470
v -2.140420 74.917068 7.572270
v -1.316860 78.119019 7.874450
v -3.005530 78.263260 7.232710
v -3.589360 79.151451 2.758570
v -1.974020 82.123352 7.849560
v -3.184930 79.535507 7.830780
v -3.493930 81.399658 6.716810
v -2.056070 83.468063 5.058400
v -1.834430 76.289093 8.231150
v -2.120930 71.917931 8.131081
v -3.427430 81.488075 2.820360
v -2.826160 82.724960 2.375420
v -12.810889 64.737617 -0.430990
v -13.295300 64.606674 -4.167520
v -9.519410 59.991421 1.111520
v -8.411711 59.261433 -2.970670
v -9.474180 62.901466 -6.736910
v -11.667910 50.432320 0.494860
v -9.679420 54.420837 -2.095600
v -9.900260 52.742218 -0.993220
v -12.503651 53.692589 -4.133900
v -14.061851 55.872749 -2.617770
v -12.293230 52.567448 2.367800
v -13.831039 55.638840 -0.447630
v -10.445460 54.946743 2.730570
v -8.034760 55.123180 1.207020
v -11.785860 53.999062 0.616150
v -11.645821 56.522552 -4.730890
v -12.065110 55.313347 -4.504270
v -13.958260 61.021999 -3.721280
v -13.414591 61.202530 -0.236510
v -10.843591 56.663380 0.186400
v -10.925389 58.886131 -6.134120
v -7.330990 47.906097 5.642630
v -5.744310 48.803520 5.131920
v -8.019990 48.816490 6.708530
v -6.970330 50.419548 6.985260
v -5.588660 50.632370 6.165060
v -1.802330 49.419041 9.440770
v -1.733400 50.308079 9.671980
v -3.052590 49.329819 9.053400
v -3.700850 50.034218 9.197870
v -4.274750 49.038731 10.449400
v -2.982860 50.561592 8.707690
v -2.613390 50.476051 7.363280
v -1.019350 50.123119 8.855260
v -0.733020 49.636990 10.517599
v -0.282180 49.486542 9.821480
v -2.830600 47.942589 11.752779
v -4.568960 44.029449 9.474310
v -5.523450 44.983490 8.042930
v -2.953210 43.169323 11.759480
v -2.144940 48.255829 10.705060
v -5.111480 44.572769 10.197440
v -6.308670 45.541382 9.004200
v -0.709250 46.597363 13.018021
v -3.866570 24.261438 2.569810
v -1.435930 31.259949 9.050250
v -1.309040 23.042650 7.102680
v -8.698930 23.420151 5.781580
v -7.299810 30.698111 7.770130
v -3.789690 31.090630 5.316770
v -5.305260 28.734911 10.843830
v -5.212600 22.238710 10.103379
v -5.317330 30.929420 11.609870
v -5.119050 33.361462 10.714370
v -8.808530 33.916840 6.827960
v -5.408890 39.208389 8.029739
v -7.379270 9.955230 4.072630
v -6.481890 12.869640 4.342110
v -4.680490 11.074620 1.693350
v -5.141430 10.963490 6.755790
v -2.411740 9.674810 4.228740
v -2.904590 12.686891 4.981700
v -3.224940 6.164850 1.053070
v -6.319790 6.339340 0.958680
v -2.704970 5.781700 9.387940
v -8.566190 6.130990 9.572750
v -4.464980 7.897160 13.026520
v -6.764250 5.989180 13.724220
v -2.692340 5.782480 13.937160

vt 0.550479 0.485338
vt 0.414517 0.485338
vt 0.489174 0.497239
vt 0.490853 0.675485
vt 0.356970 0.710738
vt 0.458986 0.602657
vt 0.458693 0.603155
vt 0.491001 0.506534
vt 0.357039 0.710738
vt 0.272881 0.708251
vt 0.307767 0.663467
vt 0.329118 0.504113
vt 0.420682 0.504388
vt 0.307693 0.663467
vt 0.420389 0.504181
vt 0.390374 0.619683
vt 0.389206 0.622726
vt 0.390855 0.620128
vt 0.309151 0.663075
vt 0.578845 0.971377
vt 0.529882 0.993867
vt 0.501054 0.950636
vt 0.597833 0.993868
vt 0.684209 0.993870
vt 0.691613 0.940228
vt 0.584242 0.936155
vt 0.602549 0.993867
vt 0.689094 0.993870
vt 0.694409 0.971380
vt 0.730001 0.975635
vt 0.490853 0.781888
vt 0.490853 0.820915
vt 0.240556 0.660920
vt 0.133663 0.660928
vt 0.131880 0.753091
vt 0.060606 0.782384
vt 0.055577 0.663688
vt 0.136145 0.808744
vt 0.060014 0.783494
vt 0.058190 0.859642
vt 0.160773 0.512959
vt 0.067037 0.515196
vt 0.240700 0.512959
vt 0.131877 0.752996
vt 0.240556 0.781375
vt 0.390182 0.870896
vt 0.298691 0.847983
vt 0.294173 0.886121
vt 0.181129 0.899551
vt 0.052544 0.886601
vt 0.145152 0.921474
vt 0.235241 0.891030
vt 0.142740 0.921054
vt 0.172936 0.966074
vt 0.456563 0.999059
vt 0.389917 0.922986
vt 0.429989 0.941889
vt 0.491140 0.942697
vt 0.490646 0.999330
vt 0.490853 0.898039
vt 0.701416 0.118225
vt 0.813217 0.120956
vt 0.790107 0.184348
vt 0.877923 0.002315
vt 0.872775 0.120438
vt 0.505869 0.118716
vt 0.564263 0.119120
vt 0.507564 0.183764
vt 0.697589 0.180917
vt 0.580429 0.182675
vt 0.710756 0.001536
vt 0.701372 0.182427
vt 0.812168 0.002315
vt 0.857243 0.184348
vt 0.697567 0.116528
vt 0.503935 0.000692
vt 0.561277 0.000692
vt 0.688827 -0.000098
vt 0.002866 0.854679
vt 0.027518 0.706813
vt 0.061197 0.782654
vt 0.055608 0.663958
vt 0.251604 0.781884
vt 0.357109 0.710738
vt 0.243886 0.876138
vt 0.247300 0.848527
vt -0.000514 0.880403
vt 0.006948 0.782948
vt 0.674684 0.829607
vt 0.705811 0.784366
vt 0.654033 0.662928
vt 0.703232 0.671848
vt 0.720473 0.730776
vt 0.697736 0.853617
vt 0.729837 0.853035
vt 0.623758 0.856571
vt 0.587609 0.811448
vt 0.658187 0.605708
vt 0.748523 0.593788
vt 0.716351 0.931575
vt 0.747491 0.935506
vt 0.695349 0.885675
vt 0.676247 0.904603
vt 0.649719 0.961956
vt 0.745560 1.001324
vt 0.725611 0.781438
vt 0.747491 0.878462
vt 0.747491 0.808438
vt 0.720379 0.731031
vt 0.747491 0.790807
vt 0.720762 0.730332
vt 0.748639 0.732530
vt 0.746944 0.628012
vt 0.703659 0.671442
vt 0.731857 0.666086
vt 0.747085 0.666819
vt 0.703186 0.671176
vt 0.611291 0.885598
vt 0.604148 0.909350
vt 0.550618 0.823662
vt 0.550618 0.934468
vt 0.625864 0.557513
vt 0.571978 0.557920
vt 0.578607 0.510287
vt 0.669444 0.510287
vt 0.756032 0.560223
vt 0.679695 0.557918
vt 0.877240 0.461159
vt 0.992418 0.461159
vt 0.944262 0.560223
vt 0.756457 0.510287
vt 0.806202 0.560223
vt 0.498275 0.560223
vt 0.875566 0.382888
vt 0.758260 0.308662
vt 0.875912 0.308662
vt 0.759996 0.360654
vt 0.669163 0.382888
vt 0.671223 0.308662
vt 0.584325 0.382888
vt 0.577057 0.308662
vt 0.498223 0.363687
vt 0.498247 0.308662
vt 0.992597 0.308662
vt 0.992439 0.363687
vt 0.759483 0.410364
vt 0.758924 0.382888
vt 0.665903 0.461159
vt 0.580075 0.461159
vt 0.498223 0.402657
vt 0.992438 0.402657
vt 0.760539 0.449273
vt 0.498220 0.461159
vt 0.875438 0.575163
vt 0.762705 0.196431
vt 0.858161 0.196355
vt 0.690657 0.196417
vt 0.588027 0.196417
vt 0.498144 0.196431
vt 0.991918 0.196431
vt 0.375723 0.009258
vt 0.380090 0.017573
vt 0.356438 0.030356
vt 0.342839 0.029458
vt 0.369327 0.043627
vt 0.316032 0.012201
vt 0.336848 0.019568
vt 0.249292 0.041099
vt 0.371147 0.002582
vt 0.416197 0.004791
vt 0.408124 0.000758
vt 0.128136 0.016613
vt 0.154876 0.002573
vt 0.119423 0.002194
vt 0.160447 0.001473
vt 0.065726 0.014292
vt 0.105093 0.028910
vt 0.000825 0.069213
vt 0.000703 0.039244
vt 0.249314 0.055441
vt 0.429228 0.045736
vt 0.102506 0.115410
vt 0.153549 0.117195
vt 0.189513 0.114692
vt 0.228429 0.109580
vt 0.194639 0.033982
vt 0.406548 0.108121
vt 0.355355 0.108206
vt 0.448349 0.035630
vt 0.498209 0.039288
vt 0.461840 0.047992
vt 0.483032 0.114221
vt 0.406174 0.120334
vt 0.355217 0.119080
vt 0.243215 0.037501
vt 0.249314 0.089732
vt 0.000703 0.095058
vt 0.249292 0.105039
vt 0.160984 0.032072
vt 0.413806 0.033644
vt 0.442212 0.108407
vt 0.443088 0.117732
vt 0.023914 0.327327
vt 0.104127 0.227894
vt 0.000784 0.227894
vt 0.216171 0.327327
vt 0.216985 0.228421
vt 0.105699 0.228145
vt 0.104981 0.327662
vt 0.217575 0.327327
vt 0.351490 0.301452
vt 0.217290 0.227894
vt 0.351571 0.227894
vt 0.352420 0.301452
vt 0.489174 0.227894
vt 0.352342 0.227894
vt 0.471690 0.333380
vt 0.351597 0.328057
vt 0.217345 0.328075
vt 0.352312 0.363299
vt 0.470864 0.334174
vt 0.352330 0.328057
vt 0.216660 0.380224
vt 0.216104 0.328075
vt 0.104983 0.328371
vt 0.217232 0.380224
vt 0.351611 0.363299
vt 0.351459 0.420971
vt 0.352499 0.420971
vt 0.351589 0.497239
vt 0.229465 0.497239
vt 0.352627 0.497239
vt 0.229583 0.497239
vt 0.133020 0.497239
vt 0.072972 0.497239
vt 0.025422 0.328212
vt 0.002386 0.497239
vt 0.216130 0.152222
vt 0.223982 0.125749
vt 0.105883 0.155747
vt 0.351732 0.147623
vt 0.223132 0.128232
vt 0.218721 0.149411
vt 0.469070 0.149411
vt 0.483427 0.127273
vt 0.352306 0.146326
vt 0.017963 0.152222
vt 0.104256 0.155747
vt 0.009616 0.131504
vt 0.104128 0.227914
vt 0.000790 0.227921
vt 0.216984 0.228396
vt 0.351571 0.227971
vt 0.217291 0.227882
vt 0.352342 0.227879
vt 0.489111 0.227891
vt 0.948232 0.041698
vt 0.989968 0.003451
vt 0.971575 0.059997
vt 0.909211 0.004273
vt 0.996004 0.120663
vt 0.925604 0.058708
vt 0.885225 0.122889
vt 0.516483 0.798440
vt 0.501430 0.685191
vt 0.597947 0.686709
vt 0.594444 0.793024
vt 0.950876 0.082499
vt 0.943924 0.157220
vt 0.507177 0.624822
vt 0.600053 0.622523
vt 0.901715 0.182549
vt 0.982420 0.184037
vt 0.730212 0.975635
vt 0.685579 0.991654
vt 0.692830 0.969164

vn -0.921772 -0.387218 0.019973
vn 0.246192 -0.088121 -0.965207
vn -0.144064 -0.326759 -0.934063
vn 0.861147 0.078593 0.502245
vn 0.827192 -0.107540 -0.551533
vn -0.014849 -0.411997 -0.911064
vn 0.306537 -0.309739 -0.900054
vn 0.918691 -0.367439 -0.144898
vn 0.281258 -0.116405 -0.952546
vn 0.885658 -0.447073 -0.125439
vn -0.469069 -0.813040 -0.344879
vn -0.299414 -0.885289 -0.355829
vn -0.274815 -0.828343 -0.488185
vn -0.202956 -0.919824 0.335758
vn -0.478318 -0.665366 0.573149
vn 0.563244 0.128341 0.816262
vn 0.332725 -0.583985 0.740443
vn 0.985695 -0.167147 0.021630
vn 0.165679 -0.016069 -0.986049
vn 0.324046 -0.287218 0.901388
vn 0.688423 -0.504602 0.521010
vn 0.515130 -0.116611 0.849142
vn 0.335992 -0.052299 0.940412
vn 0.894532 -0.061027 0.442819
vn 0.349947 -0.041740 0.935839
vn 0.136851 -0.025700 0.990258
vn 0.082838 0.381842 -0.920508
vn 0.165397 0.056741 -0.984593
vn 0.568846 -0.293467 0.768304
vn 0.398878 0.910945 -0.105238
vn 0.149400 0.001664 0.988775
vn 0.243525 0.509862 -0.825068
vn 0.614839 0.046074 0.787306
vn 0.433040 0.519093 0.736898
vn 0.494049 0.697879 0.518537
vn 0.125345 0.457936 0.880104
vn 0.038908 0.344961 0.937810
vn 0.701804 0.340892 0.625511
vn 0.786087 0.571738 -0.234911
vn 0.470449 0.647295 -0.599739
vn 0.245576 0.791619 -0.559492
vn 0.473920 0.688417 0.549074
vn 0.453673 0.850998 -0.264545
vn 0.777745 0.594091 -0.205348
vn 0.295968 0.641602 -0.707637
vn 0.293214 0.643994 -0.706610
vn 0.270988 0.473274 -0.838199
vn 0.119320 0.227874 0.966352
vn 0.860590 0.086902 0.501830
vn 0.813361 0.169545 -0.556505
vn -0.003275 0.066300 -0.997794
vn 0.120836 0.162911 0.979213
vn 0.345800 0.020724 0.938080
vn 0.914701 0.264376 0.305660
vn 0.825278 0.320247 0.465144
vn 0.868515 0.254100 0.425575
vn 0.814280 0.168406 -0.555507
vn 0.129647 0.196287 -0.971938
vn 0.779463 0.301320 -0.549220
vn 0.589871 0.086695 -0.802830
vn 0.131112 0.160379 -0.978309
vn -0.536875 -0.183568 -0.823449
vn 0.445198 0.107147 0.888999
vn 0.917499 0.220097 0.331290
vn 0.983556 -0.179382 -0.020985
vn 0.160892 0.324135 -0.932229
vn 0.515916 -0.117401 0.848556
vn 0.866565 0.496400 0.051495
vn 0.705729 0.401128 0.583989
vn 0.531439 0.174929 -0.828838
vn 0.717981 0.687737 -0.107340
vn -0.818910 -0.144821 -0.555349
vn -0.966157 -0.241726 0.090056
vn 0.592146 -0.573591 0.566000
vn 0.833690 -0.168505 0.525896
vn 0.449121 -0.193670 0.872228
vn 0.142009 0.066540 0.987626
vn 0.981028 -0.075281 0.178652
vn 0.982016 -0.115205 -0.149576
vn 0.991262 -0.101299 0.084484
vn 0.312692 -0.831792 0.458634
vn 0.193735 0.175423 0.965243
vn 0.911170 -0.047426 0.409292
vn 0.974672 0.017497 0.222951
vn -0.054129 0.900157 0.432190
vn 0.475325 0.312559 0.822419
vn 0.684976 0.318255 0.655379
vn 0.699335 0.322849 0.637730
vn 0.486844 -0.206023 0.848845
vn 0.313347 -0.284216 0.906110
vn 0.049234 0.913259 0.404393
vn -0.020318 -0.032014 0.999281
vn 0.245443 -0.697826 0.672902
vn 0.531248 0.005677 0.847197
vn 0.489124 -0.832094 -0.261492
vn 0.913842 -0.007322 0.406005
vn 0.007485 -0.999501 -0.030676
vn 0.513966 0.124631 0.848708
vn 0.810867 0.060543 0.582091
vn 0.279975 -0.956292 -0.084378
vn 0.330398 0.018259 0.943665
vn 0.977702 0.066016 -0.199352
vn 0.917813 0.201591 -0.342023
vn 0.767694 -0.310092 0.560793
vn 0.163230 -0.440541 0.882768
vn 0.826305 -0.138832 0.545843
vn 0.056783 -0.316669 0.946835
vn 0.520853 0.704898 0.481489
vn 0.978250 0.061325 0.198155
vn 0.884045 0.428181 0.187417
vn 0.769132 0.595993 0.230714
vn 0.497931 0.298089 0.814375
vn 0.492137 0.409512 -0.768180
vn 0.399777 0.480324 -0.780684
vn 0.151113 0.980430 -0.126184
vn 0.030215 0.960226 -0.277583
vn 0.843096 -0.133918 0.520821
vn 0.706690 0.398989 0.584292
vn 0.634037 0.000360 -0.773302
vn 0.888328 0.458127 0.031499
vn -0.865120 -0.430253 0.257778
vn 0.935864 0.221478 0.274054
vn 0.650949 0.232317 -0.722699
vn -0.791307 -0.206928 -0.575338
vn 0.248861 -0.141610 0.958131
vn -0.459574 -0.631114 -0.624889
vn -0.325796 -0.663071 -0.673939
vn 0.817385 -0.572556 0.063729
vn 0.697688 -0.654897 -0.290417
vn 0.933505 -0.326798 0.147553
vn 0.787479 0.028070 0.615702
vn 0.420785 0.772351 -0.475830
vn -0.691434 0.647833 -0.319736
vn 0.301038 0.723471 -0.621261
vn -0.257439 0.855026 0.450173
vn -0.374873 -0.210920 -0.902764
vn -0.444244 -0.149377 -0.883365
vn 0.743928 0.401705 -0.534045
vn 0.742994 0.141111 -0.654254
vn 0.938143 0.118308 0.325409
vn 0.938028 0.117868 0.325901
vn 0.226849 -0.121221 0.966357
vn -0.783516 -0.573719 0.238642
vn -0.804158 -0.005966 -0.594386
vn -0.401465 -0.413891 -0.817019
vn 0.804108 0.082257 -0.588765
vn 0.639437 0.261028 -0.723177
vn 0.912718 0.290788 0.287034
vn 0.915468 0.211214 0.342501
vn 0.249897 -0.162666 0.954511
vn 0.136393 -0.103018 0.985284
vn -0.963932 -0.250689 0.089394
vn 0.794308 0.244366 -0.556202
vn -0.434774 -0.166670 -0.884982
vn -0.832707 -0.454637 0.316076
vn 0.236464 -0.229904 0.944049
vn -0.796056 -0.515054 0.317827
vn 0.193627 -0.220006 0.956089
vn 0.650514 0.402197 -0.644259
vn -0.481282 -0.228041 -0.846383
vn -0.545973 -0.592719 -0.592113
vn -0.506582 -0.629186 -0.589491
vn 0.351989 -0.927601 0.125144
vn 0.518126 -0.822975 0.232932
vn 0.672202 -0.038607 0.739360
vn 0.670928 -0.035669 0.740664
vn 0.169906 0.792353 0.585925
vn 0.063309 0.890269 0.451012
vn -0.740790 0.546183 -0.391041
vn -0.754169 0.521100 -0.399604
vn 0.213209 -0.364808 0.906343
vn -0.372323 0.611563 0.698117
vn 0.327343 0.944898 -0.003863
vn 0.163367 0.986018 0.032867
vn 0.195713 0.979697 0.043480
vn -0.049368 0.968864 0.242623
vn -0.144058 0.964692 0.220491
vn 0.650446 -0.030320 0.758947
vn 0.618598 -0.429674 0.657812
vn -0.499510 -0.573619 -0.649192
vn -0.364043 -0.915549 0.171003
vn -0.623917 -0.573236 -0.531157
vn -0.549434 -0.651729 -0.522849
vn -0.863793 -0.398990 -0.307682
vn -0.206900 0.577608 -0.789659
vn 0.470179 0.871874 0.136999
vn 0.104284 0.876863 0.469293
vn -0.790976 0.079364 -0.606678
vn -0.812164 0.097564 -0.575213
vn 0.652372 -0.221309 0.724868
vn 0.684363 -0.225171 0.693502
vn 0.097101 0.868333 0.486383
vn 0.513258 -0.233334 0.825907
vn 0.374832 -0.924234 -0.072756
vn 0.247247 -0.963290 -0.104598
vn -0.802492 0.093005 -0.589369
vn 0.782480 0.010119 0.622593
vn -0.888552 0.028430 -0.457894
vn -0.340904 -0.480007 -0.808318
vn 0.582459 -0.795068 -0.169142
vn -0.272783 0.318066 0.907978
vn 0.728132 -0.203403 0.654562
vn 0.411700 -0.861516 -0.297143
vn 0.578498 0.626541 0.522290
vn 0.583268 0.613216 0.532696
vn -0.833278 0.085857 -0.546147
vn 0.126601 0.872383 0.472145
vn 0.579264 -0.257307 0.773464
vn 0.258918 -0.963746 0.064465
vn -0.887396 0.179106 -0.424793
vn 0.563984 0.385693 -0.730180
vn 0.626518 0.326630 -0.707664
vn 0.820624 -0.085223 0.565078
vn 0.798943 -0.132673 0.586590
vn -0.613057 -0.181728 0.768854
vn -0.541179 -0.269450 0.796569
vn 0.881302 -0.292933 0.370807
vn -0.529646 0.086999 0.843745
vn 0.523091 -0.169819 -0.835187
vn 0.834360 -0.358335 0.418854
vn 0.830748 -0.406197 0.380607
vn -0.352066 -0.551440 0.756283
vn 0.890421 -0.204687 0.406515
vn -0.606312 -0.386242 0.695128
vn -0.850399 0.242724 -0.466805
vn 0.898973 -0.130343 0.418159
vn -0.469244 -0.300359 0.830418
vn 0.914495 -0.163146 0.370246
vn 0.583686 0.216187 -0.782671
vn 0.424381 0.111018 -0.898652
vn -0.344444 0.100476 -0.933415
vn -0.812640 -0.127969 -0.568542
vn -0.534326 -0.372091 0.758975
vn -0.993574 -0.092093 -0.065793
vn 0.692249 0.200236 -0.693323
vn 0.729819 0.171275 0.661838
vn -0.745462 -0.124360 0.654844
vn -0.771903 0.383680 -0.506907
vn 0.726898 0.112682 -0.677438
vn -0.884784 0.020854 -0.465534
vn -0.878963 0.018781 -0.476520
vn 0.549431 0.064570 -0.833040
vn 0.794086 -0.304834 0.525836
vn 0.906409 -0.181932 0.381212
vn -0.772087 -0.172741 0.611590
vn -0.615421 -0.292863 0.731771
vn -0.775772 0.452607 -0.439688
vn -0.005722 0.458310 -0.888774
vn -0.976086 -0.103180 -0.191339
vn 0.977551 0.065287 -0.200331
vn 0.064789 -0.902412 -0.425976
vn 0.094274 -0.906884 -0.410699
vn 0.654698 0.488893 0.576502
vn 0.712007 0.573964 -0.404489
vn -0.727341 0.348484 0.591213
vn 0.634889 0.480763 0.604800
vn -0.816480 0.378779 0.435760
vn 0.064184 -0.903742 -0.423239
vn 0.064572 -0.903926 -0.422787
vn 0.568235 0.629181 0.530321
vn 0.059810 -0.029741 0.997767
vn -0.747114 0.545541 0.379744
vn 0.029783 -0.967986 -0.249232
vn -0.149453 -0.110939 -0.982526
vn 0.290937 -0.352137 -0.889581
vn -0.506944 0.420012 0.752727
vn -0.918976 -0.274725 -0.282857
vn -0.279727 -0.512389 -0.811917
vn -0.238892 -0.538617 -0.807974
vn -0.912290 -0.328253 -0.244901
vn -0.188518 -0.138383 -0.972271
vn -0.923890 -0.284679 -0.255707
vn 0.433049 -0.865593 -0.251431
vn 0.742445 -0.604841 -0.287997
vn 0.037610 -0.349740 -0.936092
vn 0.272936 -0.577919 0.769100
vn 0.716833 0.034359 0.696398
vn -0.158414 0.085289 0.983682
vn -0.190282 0.140763 0.971586
vn -0.910861 -0.347503 0.222652
vn -0.048820 -0.019625 -0.998615
vn -0.404249 -0.266497 0.874964
vn -0.594214 -0.695687 0.403645
vn -0.535835 0.149265 0.831024
vn -0.419705 0.055993 0.905932
vn -0.716117 -0.095336 0.691439
vn 0.028382 -0.099939 0.994589
vn -0.261332 -0.037221 0.964531
vn -0.047995 0.432917 -0.900155
vn -0.047275 0.049548 -0.997652
vn -0.447380 -0.270544 0.852442
vn -0.405905 0.870893 -0.277103
vn -0.286332 0.016574 0.957987
vn -0.148187 0.506653 -0.849319
vn -0.483443 0.030822 0.874833
vn -0.420997 0.469355 0.776188
vn -0.546188 0.749032 0.375006
vn -0.255208 0.444339 0.858738
vn -0.202567 0.374071 0.905007
vn -0.717910 0.383760 0.580804
vn -0.643074 0.629811 -0.435654
vn -0.345145 0.641608 -0.684992
vn -0.114913 0.798423 -0.591029
vn -0.460996 0.728845 0.506229
vn -0.444905 0.794034 -0.414209
vn -0.642769 0.631987 -0.432944
vn -0.151894 0.616680 -0.772421
vn -0.130504 0.638572 -0.758416
vn -0.128457 0.529792 -0.838343
vn 0.049840 0.089673 0.994723
vn -0.777316 0.148128 0.611423
vn -0.846298 0.330313 -0.417938
vn -0.314645 0.290020 -0.903818
vn 0.044696 0.140528 0.989067
vn 0.022838 0.070929 0.997220
vn -0.852864 0.329001 0.405439
vn -0.775590 0.166862 0.608783
vn -0.686273 0.276123 0.672893
vn -0.944376 0.172756 -0.279840
vn -0.184084 0.185006 -0.965342
vn -0.876258 0.246396 -0.414079
vn -0.644601 -0.115852 -0.755691
vn -0.142579 -0.094070 -0.985303
vn 0.168430 -0.209245 -0.963249
vn -0.070280 0.058482 0.995812
vn -0.887996 0.323591 0.326728
vn -0.718047 0.022559 -0.695629
vn -0.350088 0.002114 -0.936714
vn -0.750502 0.121044 0.649689
vn -0.669279 0.545714 -0.504244
vn -0.753385 0.434116 0.493918
vn -0.478684 -0.068381 -0.875320
vn -0.904108 0.345213 -0.251825
vn 0.796508 0.041520 -0.603201
vn -0.047554 -0.998645 -0.021144
vn -0.700164 -0.615900 -0.361163
vn -0.924111 -0.124966 0.361112
vn -0.626742 -0.189199 0.755908
vn -0.349277 0.068584 0.934506
vn -0.999963 -0.006273 -0.005915
vn -0.925710 -0.137046 -0.352532
vn -0.788104 -0.146623 -0.597824
vn -0.390831 -0.838557 0.379570
vn -0.394117 0.177875 0.901683
vn -0.977951 -0.039573 0.205049
vn -0.999624 0.025703 0.009502
vn -0.032094 0.900064 0.434575
vn -0.637534 0.317177 0.702104
vn -0.806573 0.324449 0.494139
vn -0.816797 0.329149 0.473818
vn -0.658689 -0.201260 0.724998
vn -0.502094 -0.280822 0.817949
vn -0.127024 0.913992 0.385337
vn -0.193988 -0.031292 0.980505
vn -0.389318 -0.695184 0.604276
vn -0.699975 0.010792 0.714085
vn -0.368038 -0.877698 -0.306909
vn -0.956816 -0.027502 0.289391
vn -0.008824 -0.999427 -0.032685
vn -0.682440 0.129599 0.719361
vn -0.916013 0.067717 0.395392
vn -0.252773 -0.956136 -0.148017
vn -0.524298 0.021811 0.851256
vn -0.908679 0.073839 -0.410914
vn -0.818595 0.204912 -0.536576
vn -0.872330 -0.303279 0.383486
vn -0.351758 -0.438405 0.827084
vn -0.924985 -0.131551 0.356506
vn -0.260433 -0.315330 0.912547
vn -0.605914 0.709579 0.359673
vn -0.997460 0.069535 -0.015446
vn -0.900126 0.435594 -0.005477
vn -0.795747 0.602496 0.061528
vn -0.658012 0.302898 0.689400
vn -0.334341 0.397554 -0.854498
vn -0.219673 0.484179 -0.846944
vn -0.112591 0.981526 -0.154694
vn 0.037694 0.960197 -0.276768
vn -0.928190 0.055653 0.367921
vn -0.851463 0.226574 0.472942
vn -0.513654 -0.199952 -0.834374
vn -0.844632 0.298628 -0.444318
vn 0.964565 0.101321 0.243614
vn -0.991546 0.022732 0.127749
vn -0.545025 0.040526 -0.837440
vn 0.713297 -0.412275 -0.566777
vn -0.378077 -0.129265 0.916705
vn 0.016467 -0.550369 -0.834759
vn 0.554796 -0.629734 -0.543724
vn -0.855897 -0.482738 -0.185483
vn -0.930008 -0.355203 0.094428
vn -0.911524 -0.407820 0.052987
vn -0.599687 0.356483 0.716446
vn -0.237617 0.933699 -0.267850
vn 0.663192 0.429522 -0.612933
vn -0.107197 0.718777 -0.686927
vn 0.727902 0.306912 0.613159
vn 0.637543 -0.295581 -0.711457
vn 0.600496 -0.343546 -0.722066
vn -0.669645 0.094133 -0.736691
vn -0.627455 -0.151075 -0.763857
vn -0.987106 0.052280 0.151292
vn -0.991139 0.069903 0.112946
vn -0.282086 0.249199 0.926460
vn 0.851881 -0.424301 0.307031
vn 0.714290 -0.391633 -0.580012
vn 0.702156 -0.509381 -0.497501
vn -0.692481 -0.200383 -0.693049
vn -0.558030 -0.000096 -0.829821
vn -0.973530 0.194908 0.119379
vn -0.974268 0.174245 0.142971
vn -0.396757 0.023080 0.917633
vn -0.296594 0.102882 0.949446
vn 0.637116 -0.290425 0.713958
vn -0.683913 0.018386 -0.729332
vn 0.606932 -0.329494 -0.723234
vn 0.789832 -0.185015 0.584751
vn -0.200273 -0.022177 0.979489
vn 0.831742 -0.119832 0.542075
vn -0.356791 -0.115722 0.926989
vn -0.581168 0.088603 -0.808946
vn 0.751955 -0.355143 -0.555370
vn 0.219576 -0.746008 -0.628696
vn 0.357355 -0.683505 -0.636489
vn -0.657213 -0.727604 0.196628
vn -0.789145 -0.519103 0.328302
vn -0.538676 0.298194 0.787978
vn -0.595139 0.258329 0.760970
vn 0.243459 0.756884 0.606510
vn 0.295359 0.776065 0.557212
vn 0.827414 -0.147553 -0.541861
vn 0.864795 0.189159 -0.465133
vn -0.274059 -0.222107 0.935714
vn 0.625938 0.444639 0.640701
vn 0.070135 0.996561 -0.044137
vn 0.231807 0.972603 -0.017596
vn 0.203549 0.979044 -0.006357
vn 0.436772 0.880892 0.182370
vn 0.520679 0.839418 0.155789
vn -0.558304 0.253334 0.790011
vn -0.689960 -0.131623 0.711780
vn 0.192934 -0.745292 -0.638213
vn -0.008188 -0.978481 0.206176
vn 0.317025 -0.789537 -0.525478
vn 0.217048 -0.833169 -0.508645
vn 0.615726 -0.717186 -0.326383
vn 0.355735 0.436548 -0.826364
vn -0.084624 0.989838 0.114280
vn 0.275518 0.864024 0.421370
vn 0.716487 -0.256494 -0.648736
vn 0.745022 -0.246847 -0.619684
vn -0.635761 0.075777 0.768157
vn -0.668719 0.083608 0.738799
vn 0.279983 0.853984 0.438544
vn -0.505534 0.014197 0.862690
vn -0.707302 -0.706911 0.000483
vn -0.607138 -0.793814 -0.035236
vn 0.733486 -0.247761 -0.632939
vn -0.676917 0.329629 0.658125
vn 0.796884 -0.336350 -0.501842
vn 0.084000 -0.600891 -0.794905
vn -0.848772 -0.517975 -0.106243
vn 0.434278 0.220536 0.873365
vn -0.705068 0.121324 0.698684
vn -0.733522 -0.640473 -0.227465
vn -0.251308 0.820053 0.514158
vn -0.259984 0.810247 0.525270
vn 0.761948 -0.264913 -0.590980
vn 0.253461 0.868697 0.425586
vn -0.579366 0.016027 0.814910
vn -0.606499 -0.783740 0.133833
vn 0.878112 0.123137 -0.462338
vn -0.562657 0.316798 -0.763581
vn -0.567383 0.312786 -0.761736
vn -0.835700 0.010630 0.549084
vn -0.786471 -0.081009 0.612292
vn 0.617829 -0.080343 0.782197
vn 0.512461 -0.190535 0.837305
vn -0.872208 -0.165474 0.460295
vn 0.516375 0.258514 0.816411
vn -0.478775 -0.445805 -0.756329
vn -0.727842 -0.144972 0.670246
vn -0.676072 0.279518 0.681760
vn 0.549790 0.370901 0.748441
vn -0.870086 0.231219 0.435302
vn 0.545660 -0.273508 0.792116
vn 0.824048 0.203405 -0.528745
vn -0.805162 0.401061 0.436879
vn 0.669707 0.423845 0.609793
vn -0.798816 0.414111 0.436354
vn -0.634301 -0.559538 -0.533460
vn -0.530284 -0.651757 -0.542228
vn 0.012835 -0.747861 -0.663731
vn 0.650113 -0.657979 -0.380023
vn 0.673256 0.415085 0.611908
vn 0.938030 -0.311453 -0.151975
vn -0.697493 0.275917 -0.661342
vn -0.787872 0.188379 0.586320
vn 0.656549 -0.080062 0.750023
vn 0.786748 0.267763 -0.556175
vn -0.794546 0.088963 -0.600652
vn 0.884433 -0.023612 -0.466070
vn 0.866834 -0.031643 -0.497592
vn -0.553215 -0.002595 -0.833035
vn -0.786401 -0.242750 0.568020
vn -0.906099 -0.125658 0.403974
vn 0.698674 -0.199571 0.687042
vn 0.622002 -0.247952 0.742720
vn 0.787199 0.303392 -0.536908
vn 0.038084 0.140315 -0.989374
vn 0.983792 -0.165514 -0.068982
vn -0.965228 -0.064696 -0.253279
vn -0.060696 -0.997356 -0.039952
vn -0.054953 -0.997587 -0.042430
vn -0.677658 0.664215 0.315592
vn -0.697335 0.339357 -0.631316
vn 0.689989 0.558382 0.460569
vn -0.623951 0.673360 0.396575
vn 0.866516 0.478907 0.140706
vn -0.050047 -0.998670 -0.012391
vn -0.059477 -0.998230 0.000336
vn -0.564434 0.779511 0.271618
vn -0.029460 0.374407 0.926796
vn 0.766836 0.641839 -0.002238
vn -0.462527 -0.880690 0.102241

f 1/1/1 2/2/1 3/3/1
f 4/4/2 5/5/2 6/6/2
f 4/4/3 6/7/3 7/8/3
f 5/9/4 8/10/4 9/11/4
f 10/12/5 11/13/5 9/14/5
f 6/6/6 11/15/6 7/8/6
f 6/6/7 12/16/7 11/13/7
f 12/17/8 5/5/8 9/14/8
f 6/6/9 5/5/9 12/17/9
f 11/13/10 12/18/10 9/19/10
f 13/20/11 14/21/11 15/22/11
f 14/21/12 13/20/12 16/23/12
f 16/24/13 13/20/13 17/25/13
f 15/22/14 14/21/14 18/26/14
f 14/21/15 19/27/15 18/26/15
f 18/26/16 20/28/16 21/29/16
f 18/26/17 19/27/17 20/28/17
f 20/28/18 3/30/18 21/29/18
f 5/9/19 22/31/19 23/32/19
f 24/33/20 25/34/20 26/35/20
f 27/36/21 25/34/21 9/37/21
f 28/38/22 27/39/22 29/40/22
f 30/41/23 25/34/23 24/33/23
f 25/34/24 30/41/24 10/42/24
f 30/41/25 24/33/25 31/43/25
f 24/33/26 26/44/26 32/45/26
f 33/46/27 34/47/27 5/9/27
f 4/4/28 22/31/28 5/9/28
f 26/35/29 25/34/29 27/39/29
f 33/46/30 35/48/30 34/47/30
f 32/45/31 26/35/31 28/38/31
f 23/32/32 33/46/32 5/9/32
f 26/35/33 27/39/33 28/38/33
f 28/38/34 29/40/34 36/49/34
f 35/50/35 37/51/35 29/40/35
f 28/38/36 38/52/36 32/45/36
f 36/49/37 38/52/37 28/38/37
f 36/49/38 37/53/38 39/54/38
f 39/55/39 37/56/39 40/57/39
f 41/58/40 42/59/40 39/55/40
f 39/55/41 40/57/41 41/58/41
f 36/49/42 29/40/42 37/51/42
f 37/56/43 35/48/43 33/46/43
f 37/56/44 33/46/44 40/57/44
f 40/57/45 33/46/45 43/60/45
f 40/57/46 43/60/46 41/58/46
f 33/46/47 23/32/47 43/60/47
f 44/61/48 45/62/48 30/63/48
f 15/64/49 46/65/49 45/62/49
f 46/66/50 47/67/50 10/68/50
f 47/67/51 7/69/51 11/70/51
f 45/62/52 44/61/52 17/71/52
f 44/61/53 30/63/53 31/72/53
f 13/73/54 15/64/54 45/62/54
f 46/65/55 10/74/55 45/62/55
f 45/62/56 10/74/56 30/63/56
f 47/67/57 11/70/57 10/68/57
f 47/67/58 48/75/58 7/69/58
f 46/66/59 15/76/59 47/67/59
f 18/77/60 47/67/60 15/76/60
f 47/67/61 18/77/61 48/75/61
f 18/77/62 21/78/62 48/75/62
f 13/73/63 45/62/63 17/71/63
f 49/79/64 35/50/64 29/40/64
f 8/80/65 27/81/65 9/82/65
f 34/47/66 50/83/66 5/84/66
f 27/36/67 49/79/67 29/40/67
f 35/48/68 51/85/68 52/86/68
f 35/50/69 49/79/69 51/87/69
f 52/86/70 50/83/70 34/47/70
f 35/48/71 52/86/71 34/47/71
f 5/84/72 50/83/72 8/10/72
f 53/88/73 27/81/73 8/80/73
f 53/88/74 49/79/74 27/36/74
f 54/89/75 55/90/75 56/91/75
f 57/92/76 55/90/76 58/93/76
f 59/94/77 60/95/77 55/90/77
f 61/96/78 54/89/78 56/91/78
f 39/97/79 61/96/79 36/98/79
f 36/98/80 61/96/80 56/91/80
f 36/98/81 56/91/81 38/99/81
f 62/100/82 63/101/82 64/102/82
f 65/103/83 64/102/83 54/89/83
f 61/96/84 65/103/84 54/89/84
f 66/104/85 67/105/85 62/100/85
f 55/90/86 60/95/86 68/106/86
f 69/107/87 68/106/87 60/95/87
f 69/107/88 70/108/88 68/106/88
f 58/109/89 55/90/89 68/106/89
f 68/106/90 71/110/90 58/111/90
f 62/100/91 67/105/91 63/101/91
f 64/102/92 63/101/92 69/107/92
f 70/108/93 71/110/93 68/106/93
f 58/111/94 71/110/94 72/112/94
f 56/91/95 57/92/95 38/113/95
f 55/90/96 57/114/96 56/91/96
f 73/115/97 74/116/97 38/113/97
f 58/109/98 72/112/98 73/115/98
f 57/117/99 58/111/99 73/115/99
f 57/92/100 73/115/100 38/113/100
f 73/115/101 72/112/101 74/116/101
f 39/97/102 75/118/102 61/96/102
f 75/118/103 39/97/103 76/119/103
f 64/102/104 59/94/104 54/89/104
f 64/102/105 60/95/105 59/94/105
f 54/89/106 59/94/106 55/90/106
f 64/102/107 69/107/107 60/95/107
f 65/103/108 66/104/108 62/100/108
f 65/103/109 61/96/109 75/118/109
f 75/118/110 76/119/110 65/103/110
f 66/104/111 65/103/111 76/119/111
f 62/100/112 64/102/112 65/103/112
f 39/97/113 42/120/113 76/119/113
f 77/121/114 76/119/114 42/120/114
f 67/105/115 76/119/115 77/121/115
f 66/104/116 76/119/116 67/105/116
f 9/82/117 25/34/117 10/42/117
f 51/122/118 49/123/118 78/124/118
f 79/125/119 50/126/119 52/127/119
f 52/127/120 51/122/120 79/125/120
f 80/128/121 81/129/121 53/130/121
f 51/122/122 78/124/122 79/125/122
f 82/131/123 50/126/123 79/125/123
f 50/126/124 82/131/124 8/132/124
f 53/133/125 78/124/125 49/123/125
f 83/134/126 84/135/126 85/136/126
f 84/135/127 83/134/127 86/137/127
f 86/137/128 87/138/128 84/135/128
f 88/139/129 84/135/129 87/138/129
f 87/138/130 89/140/130 88/139/130
f 90/141/131 88/139/131 89/140/131
f 91/142/132 92/143/132 90/141/132
f 90/141/133 89/140/133 91/142/133
f 85/136/134 92/144/134 91/145/134
f 91/145/135 83/134/135 85/136/135
f 80/128/136 93/146/136 83/134/136
f 94/147/137 83/134/137 93/146/137
f 93/146/138 87/138/138 94/147/138
f 87/138/139 93/146/139 95/148/139
f 95/148/140 96/149/140 87/138/140
f 89/140/141 87/138/141 96/149/141
f 97/150/142 91/142/142 89/140/142
f 97/151/143 81/129/143 80/128/143
f 8/132/144 82/131/144 80/128/144
f 93/146/145 80/128/145 98/152/145
f 98/152/146 95/148/146 93/146/146
f 95/148/147 82/131/147 79/125/147
f 79/125/148 78/124/148 95/148/148
f 96/149/149 95/148/149 78/124/149
f 78/124/150 53/133/150 81/153/150
f 81/153/151 96/149/151 78/124/151
f 80/128/152 53/130/152 8/154/152
f 94/147/153 87/138/153 86/137/153
f 86/137/154 83/134/154 94/147/154
f 97/151/155 83/134/155 91/145/155
f 89/140/156 96/149/156 97/150/156
f 80/128/157 83/134/157 97/151/157
f 81/153/158 97/150/158 96/149/158
f 82/131/159 95/148/159 98/152/159
f 98/152/160 80/128/160 82/131/160
f 85/136/161 99/155/161 100/156/161
f 99/155/162 85/136/162 84/135/162
f 84/135/163 101/157/163 99/155/163
f 101/157/164 84/135/164 88/139/164
f 88/139/165 90/141/165 101/157/165
f 102/158/166 101/157/166 90/141/166
f 90/141/167 103/159/167 102/158/167
f 103/159/168 90/141/168 92/143/168
f 92/144/169 85/136/169 103/160/169
f 100/156/170 103/160/170 85/136/170
f 104/161/171 105/162/171 106/163/171
f 107/164/172 106/163/172 108/165/172
f 109/166/173 110/167/173 103/168/173
f 109/166/174 111/169/174 104/161/174
f 104/161/175 110/167/175 109/166/175
f 104/161/176 111/169/176 112/170/176
f 113/171/177 112/170/177 111/169/177
f 106/163/178 110/167/178 104/161/178
f 104/161/179 112/170/179 105/162/179
f 105/172/180 113/173/180 111/174/180
f 113/173/181 105/172/181 112/175/181
f 105/172/182 111/174/182 109/176/182
f 109/176/183 106/177/183 105/172/183
f 109/176/184 100/178/184 106/177/184
f 103/179/185 100/178/185 109/176/185
f 102/180/186 103/168/186 110/167/186
f 106/163/187 114/181/187 108/165/187
f 115/182/188 116/183/188 106/177/188
f 116/184/189 117/185/189 118/186/189
f 108/165/190 114/181/190 119/187/190
f 119/187/191 120/188/191 108/165/191
f 118/189/192 121/190/192 114/191/192
f 114/191/193 121/190/193 117/192/193
f 116/193/194 115/194/194 119/187/194
f 120/188/195 119/187/195 115/194/195
f 121/195/196 118/186/196 117/185/196
f 108/165/197 101/196/197 102/180/197
f 115/182/198 106/177/198 100/178/198
f 100/178/199 99/197/199 115/182/199
f 120/188/200 99/198/200 101/196/200
f 106/163/201 107/164/201 110/167/201
f 108/165/202 120/188/202 101/196/202
f 120/188/203 115/194/203 99/198/203
f 107/164/204 102/180/204 110/167/204
f 102/180/205 107/164/205 108/165/205
f 118/199/206 106/177/206 116/183/206
f 114/181/207 106/163/207 118/200/207
f 114/191/208 117/192/208 119/201/208
f 117/192/209 116/202/209 119/201/209
f 122/203/210 123/204/210 124/205/210
f 125/206/211 126/207/211 123/208/211
f 125/206/212 123/208/212 127/209/212
f 125/210/213 128/211/213 126/212/213
f 128/211/214 129/213/214 126/212/214
f 128/214/215 124/215/215 129/216/215
f 122/217/216 124/215/216 128/214/216
f 130/218/217 128/211/217 125/219/217
f 131/220/218 122/221/218 130/222/218
f 132/223/219 125/224/219 127/225/219
f 132/226/220 131/227/220 125/219/220
f 133/228/221 131/227/221 132/226/221
f 133/229/222 122/221/222 131/220/222
f 130/218/223 125/219/223 131/227/223
f 128/214/224 130/222/224 122/221/224
f 127/209/225 123/204/225 122/203/225
f 16/230/226 133/228/226 14/231/226
f 16/232/227 3/3/227 133/229/227
f 14/231/228 133/228/228 132/226/228
f 14/233/229 132/223/229 19/234/229
f 132/223/230 127/225/230 19/234/230
f 20/235/231 19/234/231 127/225/231
f 20/235/232 127/225/232 122/236/232
f 3/3/233 122/221/233 133/229/233
f 3/237/234 20/235/234 122/236/234
f 134/238/235 135/239/235 136/240/235
f 137/241/236 135/242/236 134/243/236
f 138/244/237 139/245/237 137/246/237
f 138/247/238 136/248/238 139/249/238
f 134/238/239 136/240/239 123/208/239
f 138/247/240 123/250/240 136/248/240
f 123/250/241 138/247/241 124/251/241
f 134/238/242 123/208/242 126/252/242
f 129/253/243 134/243/243 126/254/243
f 137/241/244 134/243/244 129/253/244
f 138/244/245 137/246/245 129/255/245
f 138/244/246 129/255/246 124/256/246
f 136/257/247 140/258/247 139/259/247
f 136/257/248 141/260/248 140/258/248
f 142/261/249 139/259/249 140/258/249
f 135/262/250 143/263/250 141/260/250
f 141/264/251 143/265/251 142/266/251
f 142/266/252 140/267/252 141/264/252
f 137/268/253 143/263/253 135/262/253
f 135/262/254 141/260/254 136/257/254
f 139/259/255 142/261/255 137/268/255
f 137/268/256 144/269/256 143/263/256
f 137/268/257 142/261/257 144/269/257
f 143/265/258 145/270/258 146/271/258
f 146/271/259 142/266/259 143/265/259
f 143/263/260 144/269/260 145/272/260
f 144/269/261 146/273/261 145/272/261
f 146/273/262 144/269/262 142/261/262
f 3/274/263 16/275/263 17/276/263
f 147/5/264 4/4/264 148/6/264
f 148/7/265 4/4/265 7/8/265
f 149/10/266 147/9/266 150/11/266
f 151/13/267 152/12/267 150/14/267
f 151/15/268 148/6/268 7/8/268
f 153/16/269 148/6/269 151/13/269
f 147/5/270 153/17/270 150/14/270
f 147/5/271 148/6/271 153/17/271
f 153/18/272 151/13/272 150/19/272
f 154/21/273 155/20/273 156/22/273
f 155/20/274 154/21/274 157/23/274
f 155/20/275 157/24/275 17/25/275
f 154/21/276 156/22/276 158/26/276
f 159/27/277 154/21/277 158/26/277
f 160/28/278 158/26/278 21/29/278
f 159/27/279 158/26/279 160/28/279
f 3/30/280 160/28/280 21/29/280
f 22/31/281 147/9/281 23/32/281
f 161/34/282 24/33/282 162/35/282
f 161/34/283 163/36/283 150/37/283
f 163/39/284 164/38/284 165/40/284
f 161/34/285 166/41/285 24/33/285
f 166/41/286 161/34/286 152/42/286
f 24/33/287 166/41/287 31/43/287
f 162/44/288 24/33/288 32/45/288
f 167/47/289 168/46/289 147/9/289
f 22/31/290 4/4/290 147/9/290
f 161/34/291 162/35/291 163/39/291
f 169/48/292 168/46/292 167/47/292
f 162/35/293 32/45/293 164/38/293
f 168/46/294 23/32/294 147/9/294
f 163/39/295 162/35/295 164/38/295
f 165/40/296 164/38/296 170/49/296
f 171/51/297 169/50/297 165/40/297
f 38/52/298 164/38/298 32/45/298
f 38/52/299 170/49/299 164/38/299
f 171/53/300 170/49/300 172/54/300
f 171/56/301 172/55/301 173/57/301
f 42/59/302 41/58/302 172/55/302
f 173/57/303 172/55/303 41/58/303
f 165/40/304 170/49/304 171/51/304
f 169/48/305 171/56/305 168/46/305
f 168/46/306 171/56/306 173/57/306
f 168/46/307 173/57/307 43/60/307
f 43/60/308 173/57/308 41/58/308
f 23/32/309 168/46/309 43/60/309
f 174/62/310 44/61/310 166/63/310
f 175/65/311 156/64/311 174/62/311
f 176/67/312 175/66/312 152/68/312
f 7/69/313 176/67/313 151/70/313
f 44/61/314 174/62/314 17/71/314
f 166/63/315 44/61/315 31/72/315
f 156/64/316 155/73/316 174/62/316
f 152/74/317 175/65/317 174/62/317
f 152/74/318 174/62/318 166/63/318
f 151/70/319 176/67/319 152/68/319
f 48/75/320 176/67/320 7/69/320
f 156/76/321 175/66/321 176/67/321
f 176/67/322 158/77/322 156/76/322
f 158/77/323 176/67/323 48/75/323
f 21/78/324 158/77/324 48/75/324
f 174/62/325 155/73/325 17/71/325
f 169/50/326 177/79/326 165/40/326
f 163/81/327 149/80/327 150/82/327
f 178/83/328 167/47/328 147/84/328
f 177/79/329 163/36/329 165/40/329
f 179/85/330 169/48/330 180/86/330
f 177/79/331 169/50/331 179/87/331
f 178/83/332 180/86/332 167/47/332
f 180/86/333 169/48/333 167/47/333
f 178/83/334 147/84/334 149/10/334
f 163/81/335 181/88/335 149/80/335
f 177/79/336 181/88/336 163/36/336
f 182/90/337 183/89/337 184/91/337
f 182/90/338 185/92/338 186/93/338
f 187/95/339 188/94/339 182/90/339
f 183/89/340 189/96/340 184/91/340
f 189/96/341 172/97/341 170/98/341
f 189/96/342 170/98/342 184/91/342
f 184/91/343 170/98/343 38/99/343
f 63/101/344 190/100/344 191/102/344
f 191/102/345 192/103/345 183/89/345
f 192/103/346 189/96/346 183/89/346
f 67/105/347 193/104/347 190/100/347
f 187/95/348 182/90/348 194/106/348
f 194/106/349 69/107/349 187/95/349
f 70/108/350 69/107/350 194/106/350
f 182/90/351 186/109/351 194/106/351
f 71/110/352 194/106/352 186/111/352
f 67/105/353 190/100/353 63/101/353
f 63/101/354 191/102/354 69/107/354
f 71/110/355 70/108/355 194/106/355
f 71/110/356 186/111/356 72/112/356
f 185/92/357 184/91/357 38/113/357
f 185/114/358 182/90/358 184/91/358
f 74/116/359 195/115/359 38/113/359
f 72/112/360 186/109/360 195/115/360
f 186/111/361 185/117/361 195/115/361
f 195/115/362 185/92/362 38/113/362
f 72/112/363 195/115/363 74/116/363
f 196/118/364 172/97/364 189/96/364
f 172/97/365 196/118/365 197/119/365
f 188/94/366 191/102/366 183/89/366
f 187/95/367 191/102/367 188/94/367
f 188/94/368 183/89/368 182/90/368
f 69/107/369 191/102/369 187/95/369
f 193/104/370 192/103/370 190/100/370
f 189/96/371 192/103/371 196/118/371
f 197/119/372 196/118/372 192/103/372
f 192/103/373 193/104/373 197/119/373
f 191/102/374 190/100/374 192/103/374
f 42/120/375 172/97/375 197/119/375
f 197/119/376 77/121/376 42/120/376
f 197/119/377 67/105/377 77/121/377
f 197/119/378 193/104/378 67/105/378
f 161/34/379 150/82/379 152/42/379
f 177/123/380 179/122/380 198/124/380
f 178/126/381 199/125/381 180/127/381
f 179/122/382 180/127/382 199/125/382
f 200/129/383 201/128/383 181/130/383
f 198/124/384 179/122/384 199/125/384
f 178/126/385 202/131/385 199/125/385
f 202/131/386 178/126/386 149/132/386
f 198/124/387 181/133/387 177/123/387
f 203/135/388 204/134/388 205/136/388
f 204/134/389 203/135/389 206/137/389
f 207/138/390 206/137/390 203/135/390
f 203/135/391 208/139/391 207/138/391
f 209/140/392 207/138/392 208/139/392
f 208/139/393 210/141/393 209/140/393
f 211/143/394 212/142/394 210/141/394
f 209/140/395 210/141/395 212/142/395
f 211/144/396 205/136/396 212/145/396
f 204/134/397 212/145/397 205/136/397
f 213/146/398 201/128/398 204/134/398
f 204/134/399 214/147/399 213/146/399
f 207/138/400 213/146/400 214/147/400
f 213/146/401 207/138/401 215/148/401
f 216/149/402 215/148/402 207/138/402
f 207/138/403 209/140/403 216/149/403
f 212/142/404 217/150/404 209/140/404
f 200/129/405 217/151/405 201/128/405
f 202/131/406 149/132/406 201/128/406
f 201/128/407 213/146/407 218/152/407
f 215/148/408 218/152/408 213/146/408
f 202/131/409 215/148/409 199/125/409
f 198/124/410 199/125/410 215/148/410
f 215/148/411 216/149/411 198/124/411
f 181/133/412 198/124/412 200/153/412
f 216/149/413 200/153/413 198/124/413
f 181/130/414 201/128/414 149/154/414
f 207/138/415 214/147/415 206/137/415
f 204/134/416 206/137/416 214/147/416
f 204/134/417 217/151/417 212/145/417
f 216/149/418 209/140/418 217/150/418
f 204/134/419 201/128/419 217/151/419
f 217/150/420 200/153/420 216/149/420
f 215/148/421 202/131/421 218/152/421
f 201/128/422 218/152/422 202/131/422
f 219/155/423 205/136/423 220/156/423
f 205/136/424 219/155/424 203/135/424
f 221/157/425 203/135/425 219/155/425
f 203/135/426 221/157/426 208/139/426
f 210/141/427 208/139/427 221/157/427
f 221/157/428 222/158/428 210/141/428
f 223/159/429 210/141/429 222/158/429
f 210/141/430 223/159/430 211/143/430
f 205/136/431 211/144/431 223/160/431
f 223/160/432 220/156/432 205/136/432
f 224/162/433 225/161/433 226/163/433
f 226/163/434 227/164/434 228/165/434
f 229/167/435 230/166/435 223/168/435
f 231/169/436 230/166/436 225/161/436
f 229/167/437 225/161/437 230/166/437
f 231/169/438 225/161/438 232/170/438
f 232/170/439 233/171/439 231/169/439
f 229/167/440 226/163/440 225/161/440
f 232/170/441 225/161/441 224/162/441
f 233/173/442 224/172/442 231/174/442
f 224/172/443 233/173/443 232/175/443
f 231/174/444 224/172/444 230/176/444
f 226/177/445 230/176/445 224/172/445
f 220/178/446 230/176/446 226/177/446
f 220/178/447 223/179/447 230/176/447
f 223/168/448 222/180/448 229/167/448
f 234/181/449 226/163/449 228/165/449
f 235/183/450 236/182/450 226/177/450
f 237/185/451 235/184/451 238/186/451
f 234/181/452 228/165/452 239/187/452
f 240/188/453 239/187/453 228/165/453
f 241/190/454 238/189/454 234/191/454
f 241/190/455 234/191/455 237/192/455
f 236/194/456 235/193/456 239/187/456
f 239/187/457 240/188/457 236/194/457
f 238/186/458 241/195/458 237/185/458
f 221/196/459 228/165/459 222/180/459
f 226/177/460 236/182/460 220/178/460
f 219/197/461 220/178/461 236/182/461
f 219/198/462 240/188/462 221/196/462
f 227/164/463 226/163/463 229/167/463
f 240/188/464 228/165/464 221/196/464
f 236/194/465 240/188/465 219/198/465
f 222/180/466 227/164/466 229/167/466
f 227/164/467 222/180/467 228/165/467
f 226/177/468 238/199/468 235/183/468
f 226/163/469 234/181/469 238/200/469
f 237/192/470 234/191/470 239/201/470
f 235/202/471 237/192/471 239/201/471
f 242/204/472 243/203/472 244/205/472
f 245/207/473 246/206/473 242/208/473
f 242/208/474 246/206/474 247/209/474
f 248/211/475 246/210/475 245/212/475
f 249/213/476 248/211/476 245/212/476
f 244/215/477 248/214/477 249/216/477
f 244/215/478 243/217/478 248/214/478
f 248/211/479 250/218/479 246/219/479
f 243/221/480 251/220/480 250/222/480
f 246/224/481 252/223/481 247/225/481
f 251/227/482 252/226/482 246/219/482
f 251/227/483 253/228/483 252/226/483
f 243/221/484 253/229/484 251/220/484
f 246/219/485 250/218/485 251/227/485
f 250/222/486 248/214/486 243/221/486
f 242/204/487 247/209/487 243/203/487
f 253/228/488 157/230/488 154/231/488
f 3/3/489 157/232/489 253/229/489
f 253/228/490 154/231/490 252/226/490
f 252/223/491 154/233/491 159/234/491
f 247/225/492 252/223/492 159/234/492
f 159/234/493 160/235/493 247/225/493
f 247/225/494 160/235/494 243/236/494
f 243/221/495 3/3/495 253/229/495
f 160/235/496 3/237/496 243/236/496
f 254/239/497 255/238/497 256/240/497
f 254/242/498 257/241/498 255/243/498
f 258/245/499 259/244/499 257/246/499
f 256/248/500 259/247/500 258/249/500
f 256/240/501 255/238/501 242/208/501
f 242/250/502 259/247/502 256/248/502
f 259/247/503 242/250/503 244/251/503
f 242/208/504 255/238/504 245/252/504
f 255/243/505 249/253/505 245/254/505
f 255/243/506 257/241/506 249/253/506
f 257/246/507 259/244/507 249/255/507
f 249/255/508 259/244/508 244/256/508
f 260/258/509 256/257/509 258/259/509
f 261/260/510 256/257/510 260/258/510
f 258/259/511 262/261/511 260/258/511
f 263/263/512 254/262/512 261/260/512
f 263/265/513 261/264/513 262/266/513
f 260/267/514 262/266/514 261/264/514
f 263/263/515 257/268/515 254/262/515
f 261/260/516 254/262/516 256/257/516
f 262/261/517 258/259/517 257/268/517
f 264/269/518 257/268/518 263/263/518
f 262/261/519 257/268/519 264/269/519
f 265/270/520 263/265/520 266/271/520
f 262/266/521 266/271/521 263/265/521
f 264/269/522 263/263/522 265/272/522
f 266/273/523 264/269/523 265/272/523
f 264/269/524 266/273/524 262/261/524
f 157/275/525 3/274/525 17/276/525

o 
usemtl axe.001
s off

v 18.233410 83.218414 10.009830
v 15.576190 76.522591 11.323549
v 22.251091 82.364662 17.505619
v 20.277290 79.756340 16.812389
v 23.015980 81.331055 19.216829
v 21.042179 78.722717 18.523600
v 24.601810 74.612671 24.257250
v 19.561790 71.136772 20.240158
v 22.082031 88.304276 11.361521
v 28.450430 79.698532 25.608940
v 27.122049 91.780167 15.378610
v 24.224890 84.973007 18.198839
v 24.989779 83.939392 19.910061
v 31.107658 86.394348 24.295231
v 21.694050 78.977554 15.708710
v 23.667860 81.585892 16.401941
v 22.458939 77.943947 17.419920
v 24.432739 80.552261 18.113150
v 25.641661 84.194214 17.095161
v 26.406551 83.160622 18.806379
v 0.581080 53.728271 9.894830
v 1.345970 52.694649 11.606040
v 2.762740 51.915871 10.502359
v 1.997850 52.949482 8.791150
v 29.472239 89.559540 19.962429
v -19.190201 25.556610 4.393460
v -17.828449 24.878769 3.209290
v -18.538321 25.811441 1.578570
v -19.955090 26.590221 2.682250

vt 0.033358 0.643728
vt 0.190411 0.923560
vt 0.402692 0.503812
vt 0.402692 0.647326
vt 0.408249 0.287497
vt 0.408249 0.367848
vt 0.492649 0.287497
vt 0.492649 0.367848
vt 0.403043 0.503812
vt 0.403044 0.647326
vt 0.033710 0.643728
vt 0.190763 0.923560
vt 0.033358 0.363896
vt 0.033710 0.363896
vt 0.190411 0.084064
vt 0.402692 0.360297
vt 0.408249 0.207147
vt 0.492649 0.207147
vt 0.403043 0.360297
vt 0.190763 0.084064
vt 0.408248 1.036942
vt 0.492649 1.036942
vt 0.483600 0.371280
vt 0.402049 0.371280
vt 0.402049 1.040375
vt 0.483600 1.040375
vt 0.450449 0.037941
vt 0.483600 0.210579
vt 0.402049 0.210579
vt 0.442825 0.041374
vt 0.000000 1.000000

vn -0.786386 0.403796 0.467489
vn -0.783115 0.491270 0.381294
vn -0.723761 0.397845 0.563817
vn -0.673922 0.334964 0.658505
vn -0.709780 0.284347 0.644483
vn -0.762452 0.454596 0.460446
vn -0.723567 0.503551 0.472109
vn -0.631428 0.286289 0.720650
vn -0.651556 0.386625 0.652683
vn 0.631429 -0.286293 -0.720648
vn 0.651556 -0.386625 -0.652684
vn 0.723760 -0.397845 -0.563818
vn 0.723568 -0.503549 -0.472111
vn 0.762450 -0.454597 -0.460446
vn 0.673922 -0.334963 -0.658505
vn 0.709780 -0.284347 -0.644483
vn 0.786386 -0.403797 -0.467488
vn 0.783116 -0.491264 -0.381299
vn -0.045882 -0.843001 0.535952
vn -0.631316 -0.051893 -0.773788
vn 0.045877 0.843005 -0.535945
vn 0.631317 0.051892 0.773787
vn -0.357343 0.482886 -0.799454
vn 0.357347 -0.482888 0.799451
vn -0.635592 0.501458 0.586995
vn 0.798144 -0.286652 -0.529903
vn 0.441996 -0.360179 0.821530
vn -0.264576 0.594628 -0.759221
vn 0.380756 -0.497714 0.779298
vn 0.726414 -0.402259 -0.557234
vn -0.584989 -0.787119 -0.195528
vn -0.579115 -0.786117 -0.215975

f 267/277/526 268/278/526 269/279/526
f 270/280/527 269/279/527 268/278/527
f 269/281/528 270/282/528 271/283/528
f 272/284/528 271/283/528 270/282/528
f 271/285/529 272/286/529 273/287/529
f 274/288/530 273/287/530 272/286/530
f 275/289/531 267/277/531 269/279/531
f 273/287/529 276/290/529 271/285/529
f 277/291/532 275/289/532 278/292/532
f 269/279/531 278/292/531 275/289/531
f 278/293/528 269/281/528 279/294/528
f 271/283/528 279/294/528 269/281/528
f 279/295/533 271/285/533 280/296/533
f 276/290/534 280/296/534 271/285/534
f 281/280/535 268/278/535 282/279/535
f 267/277/536 282/279/536 268/278/536
f 283/284/537 281/282/537 284/283/537
f 282/281/537 284/283/537 281/282/537
f 274/288/538 283/286/538 273/287/538
f 284/285/539 273/287/539 283/286/539
f 282/279/540 267/277/540 275/289/540
f 273/287/539 284/285/539 276/290/539
f 282/279/540 275/289/540 285/292/540
f 277/291/541 285/292/541 275/289/541
f 284/283/537 282/281/537 286/294/537
f 285/293/537 286/294/537 282/281/537
f 276/290/542 284/285/542 280/296/542
f 286/295/543 280/296/543 284/285/543
f 270/280/544 268/278/544 281/280/544
f 283/286/545 274/288/545 272/286/545
f 279/295/546 280/296/546 286/295/546
f 285/292/547 277/291/547 278/292/547
f 272/284/528 270/282/528 287/297/528
f 287/297/528 288/298/528 272/284/528
f 281/282/537 283/284/537 289/298/537
f 289/298/537 290/297/537 281/282/537
f 270/299/548 281/300/548 290/301/548
f 290/301/548 287/302/548 270/299/548
f 283/300/549 272/299/549 288/302/549
f 288/302/549 289/301/549 283/300/549
f 278/293/550 279/294/550 291/303/550
f 286/294/551 285/293/551 291/303/551
f 279/304/552 286/305/552 291/306/552
f 285/305/553 278/304/553 291/306/553
f 289/298/554 288/297/554 292/298/554 293/307/554
f 287/297/548 290/298/548 294/297/548 295/307/548
f 290/297/555 289/298/555 293/297/555 294/307/555
f 288/298/528 287/297/528 295/298/528 292/307/528
f 294/297/556 293/298/556 295/297/556
f 292/298/557 295/297/557 293/298/557

