mtllib anim_barb_run_000024.mtl

o fat
usemtl fat.001
s off

v -0.121830 39.885918 -3.512950
v 1.860240 36.144421 6.136090
v 0.219680 39.629559 1.593850
v 0.410170 61.876202 -7.899920
v 10.161200 67.534271 -5.819410
v 2.812830 58.072319 -6.939800
v -0.362600 53.794521 -4.953560
v 8.514680 63.838913 -2.518260
v 7.757670 59.646130 -0.686290
v 6.919220 53.870804 -0.848430
v 4.142630 53.681450 -4.975850
v 6.633580 58.849319 -5.892230
v 8.848900 38.566502 4.983070
v 9.373930 40.105537 -1.701150
v 10.527620 39.648479 -2.140230
v 6.336390 39.762608 4.794450
v 3.993900 38.056198 7.078080
v 4.024690 37.856091 -6.433500
v 3.717880 40.055241 -5.699340
v 0.425800 39.801270 -4.489470
v -0.188720 37.118549 -4.400910
v 0.201120 67.529312 -7.609260
v 0.170300 69.521957 -7.646910
v -0.068750 60.824680 6.062280
v 4.810530 60.865879 4.346600
v 5.475270 65.051407 5.459700
v 8.743040 64.754089 2.954280
v 5.212490 67.853500 5.500750
v 11.212780 67.979782 1.981640
v 4.497020 53.939091 4.054040
v 1.102870 53.668610 5.311190
v -0.349320 67.760628 6.268960
v 5.446270 72.276581 -4.334720
v 11.710280 69.477074 -4.859860
v 11.922730 69.790833 -1.078970
v 2.469550 72.365280 3.908950
v 5.580670 73.489517 -0.122610
v -0.329010 71.544640 4.304050
v 2.663080 77.865601 0.711300
v 3.508740 75.493134 -2.256520
v 0.515850 75.635811 -3.390640
v 0.178060 78.519737 -0.532050
v 0.790580 73.567184 -5.169870
v 0.489180 49.341770 5.632990
v 5.364230 49.336601 5.032270
v 8.418850 48.984863 -0.145200
v 4.995410 48.390770 -5.329840
v -0.188040 48.305149 -6.038870
v 11.855801 66.285965 1.360140
v 10.715790 66.040619 -6.256090
v 13.666340 66.759506 -1.096420
v 13.126060 68.092545 -4.234430
v 8.927150 63.608860 1.676550
v 2.581520 77.306618 6.199550
v 1.180830 75.791649 7.934600
v 2.435400 72.956253 4.998850
v 1.639600 71.888008 6.831610
v 0.698310 74.423058 7.879170
v 1.643460 77.761719 7.735350
v -0.144470 77.631943 8.001181
v 3.177320 78.641113 3.490150
v 0.535690 81.630707 8.120910
v -0.763210 81.581314 8.390590
v 1.701340 79.032982 8.359060
v 2.256590 80.893539 7.338530
v 1.223440 82.972229 5.412940
v -0.414440 82.967384 5.217900
v 0.269850 75.798126 8.458660
v -0.765430 78.377937 8.287920
v -0.900690 76.353210 9.461260
v -0.835060 75.769203 8.831680
v -0.843340 74.186775 8.847470
v 0.535200 71.424683 8.418261
v -0.861440 71.399200 8.907750
v 3.025130 80.979065 3.517950
v 2.543030 82.220428 2.955920
v -0.045170 82.468399 1.783120
v 13.810671 64.073822 0.525220
v 14.650001 65.035820 -2.989670
v 9.751630 58.640331 -4.149150
v 10.974680 58.732601 0.296270
v 11.423640 63.693890 -6.397820
v 12.384070 54.516876 -4.284650
v 12.651449 51.042061 -1.098170
v 11.613409 53.467186 -2.664890
v 15.576730 54.567379 -5.826760
v 16.606030 56.305580 -3.532180
v 14.689091 52.603729 0.144800
v 16.007580 55.506851 -1.578780
v 14.179489 54.691128 0.783340
v 14.014481 53.476830 -1.396420
v 11.838779 55.411221 -0.217370
v 14.466330 57.352730 -5.766250
v 15.057581 56.144863 -5.862130
v 15.833640 61.566330 -3.222990
v 14.786600 60.689758 0.018260
v 13.249450 55.129429 -1.003570
v 13.579730 59.909439 -6.609570
v 7.829760 49.955109 4.130690
v 6.684060 51.424919 3.783370
v 8.862150 50.452351 5.189490
v 8.559450 52.271507 5.604100
v 7.308840 53.101009 4.900270
v 3.831950 54.103031 8.650070
v 3.522680 53.280979 8.371110
v 4.612180 52.725281 7.893150
v 5.494350 53.095222 8.031031
v 5.669640 51.864182 9.184060
v 4.608260 54.075069 6.299370
v 5.033560 53.902328 7.618740
v 3.068330 54.281803 7.878390
v 2.682100 53.830727 9.527750
v 2.179960 53.926758 8.857530
v 3.960920 51.348530 10.527591
v 5.058530 47.840210 6.495440
v 3.857920 47.246872 7.942090
v 2.133700 46.943878 10.283930
v 3.417670 51.988239 9.547010
v 4.605120 47.470497 8.652200
v 6.042850 47.961613 7.427290
v 1.531930 50.881439 11.866520
v 1.529740 27.768610 0.363480
v 4.214440 31.300982 -5.795780
v 1.426120 24.399359 -4.054630
v 7.403490 27.263309 -0.093660
v 8.866660 26.136839 -4.986250
v 3.883180 28.020060 -3.423960
v 5.195450 24.442589 1.093930
v 5.296550 21.943380 -2.672510
v 5.361420 26.338961 2.809860
v 5.886610 29.277931 2.538560
v 8.872519 30.885990 -1.919580
v 6.457810 33.943119 4.425880
v 6.816590 26.967001 -16.471930
v 7.653950 25.938150 -19.428520
v 4.964250 28.659092 -18.227470
v 5.076820 23.461029 -18.809820
v 3.159550 25.935699 -16.661030
v 2.647130 26.321791 -19.788059
v 3.897280 29.870100 -22.719879
v 7.130470 29.756670 -22.249401
v 2.631330 22.077000 -24.796490
v 8.769740 21.411430 -24.309511
v 4.918580 17.891361 -23.571209
v 7.329100 17.667810 -25.456209
v 3.278420 17.497490 -25.937241
v -8.585710 67.719589 -7.271170
v -1.848560 58.045639 -7.123930
v -5.471170 64.469620 -3.308890
v -7.200120 59.559933 -1.693480
v -4.956670 53.777142 -3.359810
v -6.374790 53.664841 1.356610
v -5.620100 58.779110 -6.502760
v -9.017790 39.975071 0.109020
v -7.360130 39.077999 6.521330
v -10.231780 39.411991 -0.054210
v -4.934500 41.065178 5.812860
v -4.739730 37.391899 -5.372540
v -4.491950 39.885571 -4.945850
v -0.925390 39.352081 -4.384410
v -4.996490 60.807617 3.764250
v -5.886420 64.977219 4.591840
v -10.641030 64.601440 1.894750
v -5.696820 67.778877 4.595850
v -10.573191 68.966499 1.154200
v -2.454760 53.551811 5.400970
v -10.440789 68.964432 -6.615240
v -4.288220 72.237480 -5.292480
v -11.357640 69.997696 -2.127780
v -2.916310 72.343948 3.375590
v -5.837060 73.576797 -1.113850
v -2.505460 77.878815 0.219630
v -2.669340 75.496178 -2.974900
v -3.837170 48.932339 5.886670
v -8.024970 48.672180 1.014120
v -5.623220 48.019501 -4.755600
v -11.687941 66.779953 0.252170
v -8.452550 64.700821 -7.335360
v -12.952290 67.670395 -2.541680
v -11.806320 66.120392 -5.668070
v -9.981340 64.598900 0.662830
v -2.612380 75.807411 7.524500
v -3.597380 77.332298 5.531520
v -3.587000 72.981476 4.093520
v -2.856860 71.906700 6.345470
v -2.140420 74.434845 7.572270
v -1.316860 77.636810 7.874450
v -3.005530 77.781036 7.232710
v -3.589360 78.669228 2.758570
v -1.974020 81.641144 7.849560
v -3.184930 79.053291 7.830780
v -3.493930 80.917442 6.716810
v -2.056070 82.985855 5.058400
v -1.834430 75.806877 8.231150
v -2.120930 71.435715 8.131081
v -3.427430 81.005867 2.820360
v -2.826160 82.242744 2.375420
v -12.804211 64.257889 -0.590000
v -13.240980 64.122849 -4.332250
v -9.532000 59.513851 0.999430
v -8.376530 58.779778 -3.048900
v -9.387210 62.415436 -6.850930
v -11.669830 49.925270 0.316460
v -9.650420 53.939800 -2.203470
v -9.887239 52.254490 -1.097360
v -12.448359 53.208927 -4.276770
v -14.026040 55.390491 -2.782970
v -12.327641 52.039608 2.201810
v -13.822860 55.158951 -0.609820
v -10.490150 54.418213 2.617480
v -8.056890 54.614769 1.132750
v -11.791170 53.520622 0.481690
v -11.583380 56.038368 -4.865840
v -12.005360 54.829350 -4.643280
v -13.909081 60.538559 -3.890630
v -13.409870 60.722919 -0.399410
v -10.843860 56.184620 0.061100
v -10.845450 58.400539 -6.262330
v -7.515940 47.554260 5.624110
v -5.814380 48.258461 5.026020
v -8.113810 48.250969 6.567820
v -7.071540 49.852882 6.877200
v -5.677960 50.076679 6.080410
v -1.907270 48.740269 9.343040
v -1.875900 49.722500 9.642099
v -3.127740 48.662109 8.941480
v -3.835380 49.450169 9.135240
v -4.426360 48.440651 10.367440
v -3.111020 49.983887 8.661570
v -2.705590 49.882080 7.303510
v -1.110240 49.424938 8.760710
v -0.887220 49.044373 10.495820
v -0.425560 48.901993 9.805130
v -3.000120 47.333469 11.681170
v -4.923140 43.503300 9.371790
v -5.841910 44.522190 7.967370
v -3.329570 42.529469 11.616260
v -2.273710 47.548180 10.580589
v -5.250640 43.976112 10.056210
v -6.431370 44.955040 8.855040
v -0.898660 45.872021 12.899899
v -3.375510 19.202179 -0.531270
v -1.198970 28.003672 3.747950
v -1.056190 19.680300 4.260960
v -8.368071 19.508169 2.527450
v -7.048420 27.482201 2.286570
v -3.514020 27.973230 -0.322020
v -5.100930 25.467140 5.865540
v -5.110350 19.954321 7.155240
v -5.107240 27.583971 6.468230
v -4.923680 30.240728 5.591680
v -8.584140 31.028349 1.435680
v -5.135980 35.175491 6.601750
v -7.120530 6.368360 5.994950
v -6.187590 9.145810 5.010880
v -4.315980 7.158310 3.624980
v -5.006560 8.036770 8.299049
v -2.166680 6.317170 6.422000
v -2.648060 9.229140 5.850100
v -2.805210 2.343970 3.898800
v -5.891690 2.376140 3.635570
v -2.683260 3.254590 12.012110
v -8.530360 2.990390 11.750250
v -4.618320 4.397520 15.285140
v -6.908550 2.432650 15.840071
v -2.848090 2.302870 16.245399

vt 0.550479 0.485338
vt 0.414517 0.485338
vt 0.489174 0.497239
vt 0.490853 0.675485
vt 0.356970 0.710738
vt 0.458986 0.602657
vt 0.458693 0.603155
vt 0.491001 0.506534
vt 0.357039 0.710738
vt 0.272881 0.708251
vt 0.307767 0.663467
vt 0.329118 0.504113
vt 0.420682 0.504388
vt 0.307693 0.663467
vt 0.420389 0.504181
vt 0.390374 0.619683
vt 0.389206 0.622726
vt 0.390855 0.620128
vt 0.309151 0.663075
vt 0.578845 0.971377
vt 0.529882 0.993867
vt 0.501054 0.950636
vt 0.597833 0.993868
vt 0.684209 0.993870
vt 0.691613 0.940228
vt 0.584242 0.936155
vt 0.602549 0.993867
vt 0.689094 0.993870
vt 0.694409 0.971380
vt 0.730001 0.975635
vt 0.490853 0.781888
vt 0.490853 0.820915
vt 0.240556 0.660920
vt 0.133663 0.660928
vt 0.131880 0.753091
vt 0.060606 0.782384
vt 0.055577 0.663688
vt 0.136145 0.808744
vt 0.060014 0.783494
vt 0.058190 0.859642
vt 0.160773 0.512959
vt 0.067037 0.515196
vt 0.240700 0.512959
vt 0.131877 0.752996
vt 0.240556 0.781375
vt 0.390182 0.870896
vt 0.298691 0.847983
vt 0.294173 0.886121
vt 0.181129 0.899551
vt 0.052544 0.886601
vt 0.145152 0.921474
vt 0.235241 0.891030
vt 0.142740 0.921054
vt 0.172936 0.966074
vt 0.456563 0.999059
vt 0.389917 0.922986
vt 0.429989 0.941889
vt 0.491140 0.942697
vt 0.490646 0.999330
vt 0.490853 0.898039
vt 0.701416 0.118225
vt 0.813217 0.120956
vt 0.790107 0.184348
vt 0.877923 0.002315
vt 0.872775 0.120438
vt 0.505869 0.118716
vt 0.564263 0.119120
vt 0.507564 0.183764
vt 0.697589 0.180917
vt 0.580429 0.182675
vt 0.710756 0.001536
vt 0.701372 0.182427
vt 0.812168 0.002315
vt 0.857243 0.184348
vt 0.697567 0.116528
vt 0.503935 0.000692
vt 0.561277 0.000692
vt 0.688827 -0.000098
vt 0.002866 0.854679
vt 0.027518 0.706813
vt 0.061197 0.782654
vt 0.055608 0.663958
vt 0.251604 0.781884
vt 0.357109 0.710738
vt 0.243886 0.876138
vt 0.247300 0.848527
vt -0.000514 0.880403
vt 0.006948 0.782948
vt 0.674684 0.829607
vt 0.705811 0.784366
vt 0.654033 0.662928
vt 0.703232 0.671848
vt 0.720473 0.730776
vt 0.697736 0.853617
vt 0.729837 0.853035
vt 0.623758 0.856571
vt 0.587609 0.811448
vt 0.658187 0.605708
vt 0.748523 0.593788
vt 0.716351 0.931575
vt 0.747491 0.935506
vt 0.695349 0.885675
vt 0.676247 0.904603
vt 0.649719 0.961956
vt 0.745560 1.001324
vt 0.725611 0.781438
vt 0.747491 0.878462
vt 0.747491 0.808438
vt 0.720379 0.731031
vt 0.747491 0.790807
vt 0.720762 0.730332
vt 0.748639 0.732530
vt 0.746944 0.628012
vt 0.703659 0.671442
vt 0.731857 0.666086
vt 0.747085 0.666819
vt 0.703186 0.671176
vt 0.611291 0.885598
vt 0.604148 0.909350
vt 0.550618 0.823662
vt 0.550618 0.934468
vt 0.625864 0.557513
vt 0.571978 0.557920
vt 0.578607 0.510287
vt 0.669444 0.510287
vt 0.756032 0.560223
vt 0.679695 0.557918
vt 0.877240 0.461159
vt 0.992418 0.461159
vt 0.944262 0.560223
vt 0.756457 0.510287
vt 0.806202 0.560223
vt 0.498275 0.560223
vt 0.875566 0.382888
vt 0.758260 0.308662
vt 0.875912 0.308662
vt 0.759996 0.360654
vt 0.669163 0.382888
vt 0.671223 0.308662
vt 0.584325 0.382888
vt 0.577057 0.308662
vt 0.498223 0.363687
vt 0.498247 0.308662
vt 0.992597 0.308662
vt 0.992439 0.363687
vt 0.759483 0.410364
vt 0.758924 0.382888
vt 0.665903 0.461159
vt 0.580075 0.461159
vt 0.498223 0.402657
vt 0.992438 0.402657
vt 0.760539 0.449273
vt 0.498220 0.461159
vt 0.875438 0.575163
vt 0.762705 0.196431
vt 0.858161 0.196355
vt 0.690657 0.196417
vt 0.588027 0.196417
vt 0.498144 0.196431
vt 0.991918 0.196431
vt 0.375723 0.009258
vt 0.380090 0.017573
vt 0.356438 0.030356
vt 0.342839 0.029458
vt 0.369327 0.043627
vt 0.316032 0.012201
vt 0.336848 0.019568
vt 0.249292 0.041099
vt 0.371147 0.002582
vt 0.416197 0.004791
vt 0.408124 0.000758
vt 0.128136 0.016613
vt 0.154876 0.002573
vt 0.119423 0.002194
vt 0.160447 0.001473
vt 0.065726 0.014292
vt 0.105093 0.028910
vt 0.000825 0.069213
vt 0.000703 0.039244
vt 0.249314 0.055441
vt 0.429228 0.045736
vt 0.102506 0.115410
vt 0.153549 0.117195
vt 0.189513 0.114692
vt 0.228429 0.109580
vt 0.194639 0.033982
vt 0.406548 0.108121
vt 0.355355 0.108206
vt 0.448349 0.035630
vt 0.498209 0.039288
vt 0.461840 0.047992
vt 0.483032 0.114221
vt 0.406174 0.120334
vt 0.355217 0.119080
vt 0.243215 0.037501
vt 0.249314 0.089732
vt 0.000703 0.095058
vt 0.249292 0.105039
vt 0.160984 0.032072
vt 0.413806 0.033644
vt 0.442212 0.108407
vt 0.443088 0.117732
vt 0.023914 0.327327
vt 0.104127 0.227894
vt 0.000784 0.227894
vt 0.216171 0.327327
vt 0.216985 0.228421
vt 0.105699 0.228145
vt 0.104981 0.327662
vt 0.217575 0.327327
vt 0.351490 0.301452
vt 0.217290 0.227894
vt 0.351571 0.227894
vt 0.352420 0.301452
vt 0.489174 0.227894
vt 0.352342 0.227894
vt 0.471690 0.333380
vt 0.351597 0.328057
vt 0.217345 0.328075
vt 0.352312 0.363299
vt 0.470864 0.334174
vt 0.352330 0.328057
vt 0.216660 0.380224
vt 0.216104 0.328075
vt 0.104983 0.328371
vt 0.217232 0.380224
vt 0.351611 0.363299
vt 0.351459 0.420971
vt 0.352499 0.420971
vt 0.351589 0.497239
vt 0.229465 0.497239
vt 0.352627 0.497239
vt 0.229583 0.497239
vt 0.133020 0.497239
vt 0.072972 0.497239
vt 0.025422 0.328212
vt 0.002386 0.497239
vt 0.216130 0.152222
vt 0.223982 0.125749
vt 0.105883 0.155747
vt 0.351732 0.147623
vt 0.223132 0.128232
vt 0.218721 0.149411
vt 0.469070 0.149411
vt 0.483427 0.127273
vt 0.352306 0.146326
vt 0.017963 0.152222
vt 0.104256 0.155747
vt 0.009616 0.131504
vt 0.104128 0.227914
vt 0.000790 0.227921
vt 0.216984 0.228396
vt 0.351571 0.227971
vt 0.217291 0.227882
vt 0.352342 0.227879
vt 0.489111 0.227891
vt 0.948232 0.041698
vt 0.989968 0.003451
vt 0.971575 0.059997
vt 0.909211 0.004273
vt 0.996004 0.120663
vt 0.925604 0.058708
vt 0.885225 0.122889
vt 0.516483 0.798440
vt 0.501430 0.685191
vt 0.597947 0.686709
vt 0.594444 0.793024
vt 0.950876 0.082499
vt 0.943924 0.157220
vt 0.507177 0.624822
vt 0.600053 0.622523
vt 0.901715 0.182549
vt 0.982420 0.184037
vt 0.730212 0.975635
vt 0.685579 0.991654
vt 0.692830 0.969164

vn -0.924268 -0.379342 0.042766
vn 0.253758 -0.082963 -0.963703
vn -0.144064 -0.326759 -0.934063
vn 0.863050 0.063148 0.501155
vn 0.827388 -0.104627 -0.551799
vn -0.014849 -0.411997 -0.911064
vn 0.309376 -0.308617 -0.899467
vn 0.917611 -0.371528 -0.141269
vn 0.283081 -0.106990 -0.953110
vn 0.885357 -0.448476 -0.122527
vn -0.433860 -0.869959 -0.234387
vn -0.403314 -0.884295 -0.235288
vn -0.248202 -0.636522 -0.730230
vn -0.125459 -0.833540 0.538024
vn -0.542278 -0.333153 0.771326
vn 0.443576 -0.072117 0.893331
vn 0.350885 -0.252114 0.901841
vn 0.974597 -0.222364 0.026745
vn 0.176854 -0.015860 -0.984109
vn 0.319584 -0.290606 0.901895
vn 0.685442 -0.505642 0.523923
vn 0.503738 -0.128087 0.854308
vn 0.331631 -0.054788 0.941817
vn 0.894641 -0.059196 0.442847
vn 0.349903 -0.040943 0.935891
vn 0.126416 -0.024436 0.991676
vn 0.092873 0.380410 -0.920143
vn 0.176553 0.057053 -0.982636
vn 0.564397 -0.294705 0.771106
vn 0.399192 0.911606 -0.098082
vn 0.136850 -0.001679 0.990590
vn 0.251757 0.508164 -0.823643
vn 0.610429 0.045662 0.790753
vn 0.424104 0.519536 0.741767
vn 0.486302 0.697905 0.525774
vn 0.114178 0.457343 0.881930
vn 0.029991 0.348725 0.936745
vn 0.695000 0.342939 0.631955
vn 0.788704 0.569816 -0.230773
vn 0.470226 0.648466 -0.598649
vn 0.249914 0.789795 -0.560148
vn 0.467720 0.689375 0.553173
vn 0.457012 0.850744 -0.259566
vn 0.778625 0.595944 -0.196454
vn 0.303936 0.639391 -0.706259
vn 0.297494 0.644963 -0.703932
vn 0.280360 0.469635 -0.837162
vn 0.119320 0.227874 0.966352
vn 0.860579 0.087148 0.501807
vn 0.813367 0.169548 -0.556496
vn -0.003276 0.066233 -0.997799
vn 0.120836 0.162911 0.979213
vn 0.345799 0.020724 0.938080
vn 0.918688 0.296048 0.261471
vn 0.825278 0.320247 0.465144
vn 0.868515 0.254100 0.425576
vn 0.814278 0.168418 -0.555506
vn 0.129705 0.196287 -0.971930
vn 0.781754 0.294074 -0.549891
vn 0.543290 0.037803 -0.838693
vn 0.133484 0.091087 -0.986856
vn -0.411855 -0.131995 -0.901639
vn 0.382728 0.119647 0.916081
vn 0.913141 0.220959 0.342564
vn 0.983216 -0.182139 -0.010570
vn 0.160356 0.331361 -0.929777
vn 0.500156 -0.124554 0.856931
vn 0.865304 0.497361 0.062299
vn 0.699694 0.399049 0.592612
vn 0.538526 0.178715 -0.823438
vn 0.717531 0.689662 -0.097552
vn -0.815545 -0.138546 -0.561863
vn -0.965800 -0.246156 0.081468
vn 0.579062 -0.563875 0.588840
vn 0.834588 -0.172432 0.523192
vn 0.449121 -0.193670 0.872228
vn 0.142009 0.066540 0.987626
vn 0.981082 -0.081428 0.175636
vn 0.981609 -0.120579 -0.148001
vn 0.990450 -0.105800 0.088406
vn 0.309019 -0.831968 0.460799
vn 0.193735 0.175423 0.965243
vn 0.911170 -0.047426 0.409292
vn 0.974673 0.017497 0.222951
vn -0.054130 0.900157 0.432190
vn 0.475327 0.312559 0.822418
vn 0.684976 0.318255 0.655379
vn 0.699334 0.322849 0.637731
vn 0.486843 -0.206022 0.848845
vn 0.313347 -0.284215 0.906110
vn 0.049234 0.913259 0.404393
vn -0.020318 -0.032014 0.999281
vn 0.245445 -0.697825 0.672901
vn 0.531248 0.005677 0.847197
vn 0.490833 -0.828446 -0.269741
vn 0.918119 -0.004073 0.396284
vn 0.007469 -0.999500 -0.030711
vn 0.513966 0.124631 0.848708
vn 0.810867 0.060543 0.582091
vn 0.277576 -0.956828 -0.086204
vn 0.330399 0.018259 0.943665
vn 0.977702 0.066016 -0.199352
vn 0.917813 0.201591 -0.342023
vn 0.767695 -0.310090 0.560793
vn 0.163228 -0.440540 0.882769
vn 0.826306 -0.138832 0.545843
vn 0.056783 -0.316669 0.946835
vn 0.520853 0.704898 0.481489
vn 0.978250 0.061325 0.198155
vn 0.884045 0.428181 0.187417
vn 0.769132 0.595993 0.230714
vn 0.497931 0.298090 0.814375
vn 0.492145 0.409510 -0.768176
vn 0.399776 0.480327 -0.780682
vn 0.151113 0.980430 -0.126184
vn 0.030216 0.960226 -0.277583
vn 0.840034 -0.136693 0.525032
vn 0.701166 0.395777 0.593066
vn 0.639670 0.005905 -0.768627
vn 0.887120 0.459578 0.042492
vn -0.866382 -0.433811 0.247367
vn 0.933135 0.221254 0.283382
vn 0.655658 0.240984 -0.715570
vn -0.787150 -0.202240 -0.582660
vn 0.240355 -0.149586 0.959090
vn -0.483431 -0.611558 -0.626332
vn -0.320836 -0.653428 -0.685635
vn 0.813219 -0.577411 0.072608
vn 0.689258 -0.658041 -0.303157
vn 0.930616 -0.334610 0.148291
vn 0.789935 0.005279 0.613167
vn 0.435452 0.772001 -0.463029
vn -0.692074 0.651586 -0.310595
vn 0.317993 0.727923 -0.607460
vn -0.238833 0.862826 0.445523
vn -0.367096 -0.204538 -0.907416
vn -0.436753 -0.143297 -0.888095
vn 0.747360 0.407484 -0.524795
vn 0.747961 0.147848 -0.647067
vn 0.935220 0.117685 0.333936
vn 0.935102 0.117240 0.334425
vn 0.219278 -0.128405 0.967176
vn -0.784184 -0.577230 0.227730
vn -0.800107 -0.002193 -0.599853
vn -0.393944 -0.408236 -0.823499
vn 0.808670 0.088603 -0.581551
vn 0.644708 0.268090 -0.715877
vn 0.909736 0.290409 0.296722
vn 0.912208 0.210405 0.351577
vn 0.241388 -0.169128 0.955577
vn 0.128632 -0.110542 0.985512
vn -0.963655 -0.254639 0.080792
vn 0.798257 0.250427 -0.547787
vn -0.427234 -0.160554 -0.889772
vn -0.834257 -0.458869 0.305703
vn 0.229308 -0.236888 0.944088
vn -0.797492 -0.519221 0.307273
vn 0.186353 -0.227176 0.955858
vn 0.654841 0.408653 -0.635756
vn -0.473920 -0.222329 -0.852039
vn -0.552839 -0.573728 -0.604323
vn -0.515531 -0.609656 -0.602119
vn 0.334127 -0.935656 0.113610
vn 0.502710 -0.834749 0.224672
vn 0.666662 -0.064401 0.742573
vn 0.664493 -0.059214 0.744945
vn 0.179237 0.779507 0.600202
vn 0.073438 0.882993 0.463606
vn -0.725970 0.569518 -0.385510
vn -0.742171 0.540617 -0.396127
vn 0.201038 -0.381769 0.902129
vn -0.365193 0.608159 0.704824
vn 0.344669 0.938650 0.011793
vn 0.181265 0.982253 0.048182
vn 0.213418 0.975185 0.058885
vn -0.033006 0.965994 0.256449
vn -0.127621 0.963892 0.233718
vn 0.645224 -0.053309 0.762131
vn 0.606649 -0.450503 0.654999
vn -0.506070 -0.554839 -0.660338
vn -0.381823 -0.911054 0.155539
vn -0.631156 -0.553869 -0.543021
vn -0.558179 -0.633836 -0.535433
vn -0.869122 -0.378478 -0.318403
vn -0.191519 0.592704 -0.782319
vn 0.485294 0.860969 0.152389
vn 0.117569 0.867900 0.482625
vn -0.785738 0.102730 -0.609969
vn -0.806776 0.120861 -0.578364
vn 0.643844 -0.243789 0.725281
vn 0.675947 -0.247785 0.694045
vn 0.110130 0.859257 0.499549
vn 0.503929 -0.254706 0.825337
vn 0.358211 -0.929846 -0.084089
vn 0.230128 -0.966074 -0.117225
vn -0.797105 0.116330 -0.592529
vn 0.778793 -0.013345 0.627139
vn -0.885123 0.051457 -0.462504
vn -0.344822 -0.461877 -0.817170
vn 0.568752 -0.803153 -0.177388
vn -0.272322 0.309866 0.910946
vn 0.720340 -0.226269 0.655677
vn 0.397571 -0.864576 -0.307320
vn 0.586778 0.608124 0.534674
vn 0.591239 0.594566 0.544911
vn -0.828274 0.109126 -0.549593
vn 0.139786 0.862967 0.485539
vn 0.569796 -0.279131 0.772928
vn 0.240770 -0.969195 0.051878
vn -0.922463 0.317129 -0.220208
vn 0.736297 0.673517 0.065126
vn -0.516978 0.535164 0.668082
vn 0.803345 -0.481072 0.351008
vn 0.799973 -0.489863 0.346522
vn -0.587999 -0.681165 0.436201
vn -0.641437 -0.602704 0.474665
vn 0.792841 -0.445589 0.415757
vn -0.485907 0.166042 0.858094
vn 0.512499 -0.543072 -0.665145
vn 0.840288 -0.069766 0.537632
vn 0.840395 -0.288507 0.458803
vn -0.332849 -0.318336 0.887622
vn 0.828377 -0.097104 0.551691
vn -0.589684 -0.512898 0.623866
vn 0.803041 0.293749 0.518495
vn 0.905980 -0.007903 0.423247
vn -0.461499 -0.065660 0.884707
vn 0.923161 -0.059205 0.379826
vn 0.577260 -0.012051 -0.816471
vn 0.371572 -0.167540 -0.913162
vn -0.327069 -0.179888 -0.927721
vn -0.805972 -0.283522 -0.519638
vn -0.515265 -0.144540 0.844754
vn -0.993695 -0.105952 -0.036659
vn 0.699114 0.713246 -0.050197
vn 0.682269 -0.608651 0.405035
vn -0.769277 -0.637155 0.047391
vn -0.759449 0.618786 0.200852
vn 0.721866 0.684486 -0.101923
vn -0.862182 0.482455 -0.154530
vn -0.931097 0.354780 -0.084792
vn 0.746882 0.659418 -0.085649
vn 0.699938 -0.692437 -0.174979
vn 0.907835 -0.416153 -0.051499
vn -0.807972 -0.587556 -0.044256
vn -0.483597 -0.858403 -0.171109
vn -0.771271 0.544333 0.329914
vn -0.004145 0.965278 0.261192
vn -0.965038 0.201450 -0.167692
vn 0.982191 0.178335 0.059137
vn 0.104140 0.257597 -0.960624
vn 0.148037 0.232122 -0.961355
vn 0.623016 -0.497385 0.603705
vn 0.712563 0.477460 0.514088
vn -0.756646 -0.497604 0.424120
vn 0.599373 -0.529915 0.599952
vn -0.841921 -0.336613 0.421736
vn 0.103469 0.254689 -0.961471
vn 0.103845 0.254198 -0.961561
vn 0.531632 -0.428390 0.730650
vn 0.024003 -0.988704 0.147948
vn -0.774656 -0.253748 0.579241
vn 0.236049 -0.878863 -0.414584
vn -0.143209 -0.114696 -0.983024
vn 0.291620 -0.352123 -0.889364
vn -0.508515 0.425392 0.748635
vn -0.918903 -0.274989 -0.282841
vn -0.279741 -0.512319 -0.811957
vn -0.237916 -0.539183 -0.807884
vn -0.913097 -0.324140 -0.247359
vn -0.188340 -0.145946 -0.971199
vn -0.923603 -0.284172 -0.257299
vn 0.434804 -0.869577 -0.234054
vn 0.566750 -0.783088 -0.256064
vn 0.014298 -0.351223 -0.936183
vn 0.277971 -0.766957 0.578368
vn 0.730517 -0.185064 0.657340
vn -0.212607 -0.077316 0.974074
vn -0.175486 -0.149075 0.973130
vn -0.931449 -0.308635 0.192734
vn -0.038862 -0.019479 -0.999055
vn -0.407294 -0.260662 0.875310
vn -0.598812 -0.693645 0.400351
vn -0.545868 0.148386 0.824627
vn -0.422137 0.056220 0.904787
vn -0.716141 -0.094888 0.691475
vn 0.028376 -0.099748 0.994608
vn -0.271354 -0.039632 0.961663
vn -0.032922 0.427071 -0.903618
vn -0.037320 0.049937 -0.998055
vn -0.459583 -0.266259 0.847284
vn -0.402421 0.870710 -0.282705
vn -0.298490 0.018831 0.954227
vn -0.140758 0.506467 -0.850693
vn -0.495072 0.032258 0.868253
vn -0.430460 0.468425 0.771546
vn -0.552544 0.748254 0.367166
vn -0.265968 0.445365 0.854933
vn -0.210404 0.370033 0.904879
vn -0.723294 0.381781 0.575404
vn -0.639915 0.631353 -0.438067
vn -0.345149 0.640018 -0.686476
vn -0.112101 0.799289 -0.590399
vn -0.466778 0.727149 0.503361
vn -0.439016 0.795487 -0.417690
vn -0.640040 0.630381 -0.439282
vn -0.143695 0.619972 -0.771353
vn -0.127160 0.637029 -0.760279
vn -0.118964 0.531706 -0.838532
vn 0.049840 0.089673 0.994723
vn -0.756904 0.105982 0.644875
vn -0.863870 0.312621 -0.394965
vn -0.317530 0.257968 -0.912484
vn 0.044696 0.140528 0.989067
vn 0.022838 0.070929 0.997220
vn -0.858137 0.332009 0.391627
vn -0.747818 0.203825 0.631841
vn -0.686273 0.276123 0.672894
vn -0.943679 0.177012 -0.279529
vn -0.234995 0.181329 -0.954933
vn -0.881870 0.255850 -0.396037
vn -0.698696 -0.016564 -0.715227
vn -0.231480 0.037190 -0.972129
vn 0.198512 -0.142006 -0.969756
vn -0.041724 0.079062 0.995996
vn -0.891788 0.324640 0.315155
vn -0.709069 0.017764 -0.704916
vn -0.330065 0.005512 -0.943942
vn -0.756737 0.120759 0.642469
vn -0.662677 0.545348 -0.513278
vn -0.760142 0.435011 0.482648
vn -0.467401 -0.069104 -0.881341
vn -0.900933 0.344824 -0.263471
vn 0.804060 0.048069 -0.592602
vn -0.050722 -0.998397 -0.025102
vn -0.695987 -0.614524 -0.371432
vn -0.923725 -0.122193 0.363043
vn -0.626742 -0.189199 0.755909
vn -0.349276 0.068584 0.934506
vn -0.999993 -0.001233 -0.003486
vn -0.925804 -0.133027 -0.353824
vn -0.783205 -0.142379 -0.605242
vn -0.394098 -0.838464 0.376384
vn -0.394117 0.177875 0.901683
vn -0.977951 -0.039573 0.205049
vn -0.999624 0.025703 0.009502
vn -0.032094 0.900064 0.434575
vn -0.637534 0.317176 0.702104
vn -0.806572 0.324448 0.494141
vn -0.816797 0.329148 0.473818
vn -0.658689 -0.201260 0.724999
vn -0.502094 -0.280822 0.817949
vn -0.127024 0.913992 0.385337
vn -0.193988 -0.031292 0.980505
vn -0.389318 -0.695185 0.604276
vn -0.699975 0.010792 0.714085
vn -0.368569 -0.879738 -0.300362
vn -0.954879 -0.029479 0.295529
vn -0.008874 -0.999429 -0.032599
vn -0.682440 0.129599 0.719361
vn -0.916013 0.067717 0.395392
vn -0.255420 -0.955622 -0.146793
vn -0.524299 0.021812 0.851255
vn -0.908679 0.073839 -0.410913
vn -0.818595 0.204912 -0.536576
vn -0.872331 -0.303279 0.383485
vn -0.351757 -0.438405 0.827084
vn -0.924985 -0.131551 0.356506
vn -0.260432 -0.315330 0.912547
vn -0.605914 0.709579 0.359673
vn -0.997460 0.069535 -0.015446
vn -0.900126 0.435594 -0.005477
vn -0.795747 0.602496 0.061528
vn -0.658012 0.302898 0.689400
vn -0.334309 0.397561 -0.854508
vn -0.219673 0.484164 -0.846953
vn -0.112591 0.981526 -0.154694
vn 0.037694 0.960197 -0.276768
vn -0.930225 0.057316 0.362487
vn -0.858360 0.226134 0.460523
vn -0.502959 -0.200925 -0.840631
vn -0.838959 0.298076 -0.455301
vn 0.961318 0.101885 0.255906
vn -0.993095 0.022726 0.115087
vn -0.534321 0.039544 -0.844356
vn 0.720513 -0.412781 -0.557201
vn -0.388674 -0.132443 0.911807
vn 0.065534 -0.553941 -0.829973
vn 0.564031 -0.623535 -0.541362
vn -0.853769 -0.481044 -0.199183
vn -0.930650 -0.357812 0.076557
vn -0.915467 -0.400092 0.042962
vn -0.611154 0.347880 0.710964
vn -0.230898 0.939222 -0.254064
vn 0.673495 0.438963 -0.594740
vn -0.091194 0.720368 -0.687570
vn 0.720183 0.307108 0.622110
vn 0.648684 -0.293399 -0.702229
vn 0.609690 -0.344235 -0.713989
vn -0.660221 0.093241 -0.745261
vn -0.617656 -0.151990 -0.771622
vn -0.988959 0.052299 0.138652
vn -0.992507 0.069879 0.100238
vn -0.293896 0.250156 0.922522
vn 0.847736 -0.423903 0.318826
vn 0.721564 -0.394445 -0.568997
vn 0.710483 -0.509143 -0.485786
vn -0.683572 -0.201231 -0.701595
vn -0.547416 -0.001072 -0.836860
vn -0.974997 0.194893 0.106761
vn -0.976033 0.174256 0.130363
vn -0.407994 0.024360 0.912659
vn -0.308675 0.103861 0.945480
vn 0.628271 -0.287781 0.722813
vn -0.674572 0.017500 -0.738002
vn 0.616138 -0.330184 -0.715089
vn 0.782346 -0.184270 0.594962
vn -0.212728 -0.021151 0.976883
vn 0.824127 -0.120228 0.553498
vn -0.368552 -0.114775 0.922494
vn -0.570830 0.087646 -0.816377
vn 0.760876 -0.355900 -0.542589
vn 0.118654 -0.793572 -0.596795
vn 0.399153 -0.679283 -0.615833
vn -0.633711 -0.757337 0.157643
vn -0.793058 -0.523885 0.310811
vn -0.551173 0.289000 0.782744
vn -0.607143 0.249320 0.754465
vn 0.232757 0.750929 0.618005
vn 0.285363 0.770715 0.569707
vn 0.834068 -0.143510 -0.532668
vn 0.870661 0.196239 -0.451043
vn -0.285166 -0.270825 0.919420
vn 0.639567 0.415237 0.646940
vn 0.085361 0.995139 -0.049119
vn 0.314496 0.948101 -0.046882
vn 0.214101 0.976767 -0.009308
vn 0.483604 0.865911 0.127768
vn 0.466867 0.874452 0.131793
vn -0.589305 0.174500 0.788840
vn -0.711599 -0.183744 0.678133
vn 0.261306 -0.783588 -0.563658
vn 0.036145 -0.973716 0.224879
vn 0.275952 -0.788601 -0.549507
vn 0.230212 -0.807942 -0.542431
vn 0.624302 -0.694978 -0.356725
vn 0.365363 0.446311 -0.816894
vn -0.088243 0.988440 0.123287
vn 0.297655 0.864362 0.405313
vn 0.687611 -0.294660 -0.663601
vn 0.720150 -0.282298 -0.633792
vn -0.647521 0.066632 0.759129
vn -0.680044 0.074712 0.729355
vn 0.355770 0.844824 0.399625
vn -0.490155 0.021840 0.871362
vn -0.779663 -0.623537 0.057684
vn -0.620056 -0.784005 -0.029446
vn 0.721803 -0.282261 -0.631925
vn -0.687482 0.321548 0.651134
vn 0.776530 -0.393267 -0.492282
vn -0.020246 -0.618345 -0.785646
vn -0.838151 -0.526561 -0.142253
vn 0.441666 0.180517 0.878831
vn -0.715849 0.112781 0.689087
vn -0.771314 -0.596785 -0.221183
vn -0.260669 0.814193 0.518789
vn -0.269494 0.804257 0.529665
vn 0.741828 -0.307869 -0.595742
vn 0.348548 0.849624 0.395795
vn -0.615639 0.031580 0.787395
vn -0.677296 -0.715718 0.170346
vn 0.900507 -0.011345 -0.434693
vn -0.518783 0.060095 -0.852791
vn -0.594684 0.009788 -0.803900
vn -0.829136 0.153456 0.537574
vn -0.816448 0.132857 0.561927
vn 0.579272 0.184745 0.793923
vn 0.444251 0.062704 0.893705
vn -0.899078 -0.122359 0.420341
vn 0.539189 0.230042 0.810157
vn -0.506783 -0.402406 -0.762391
vn -0.755046 -0.175392 0.631778
vn -0.755529 -0.162409 0.634664
vn 0.351403 -0.173205 0.920063
vn -0.891171 0.196484 0.408911
vn 0.572915 -0.222853 0.788736
vn 0.868856 0.025515 -0.494407
vn -0.818009 0.103765 0.565768
vn 0.644607 0.079792 0.760338
vn -0.845006 0.038137 0.533395
vn -0.739506 -0.133674 -0.659745
vn -0.488212 -0.350339 -0.799320
vn 0.093622 -0.353574 -0.930710
vn 0.815327 -0.350119 -0.461150
vn 0.654844 0.059687 0.753404
vn 0.972042 -0.151805 -0.179138
vn -0.634379 -0.059976 -0.770692
vn -0.799457 0.420530 0.428980
vn 0.634351 0.248620 0.731975
vn 0.794638 0.012155 -0.606963
vn -0.702831 -0.182395 -0.687576
vn 0.867930 -0.221234 -0.444695
vn 0.889898 -0.198029 -0.410933
vn -0.511579 -0.300562 -0.804953
vn -0.815749 -0.033262 0.577450
vn -0.938132 0.024978 0.345377
vn 0.699980 0.074267 0.710290
vn 0.582238 0.034826 0.812272
vn 0.804306 0.221025 -0.551580
vn 0.084627 -0.030091 -0.995958
vn 0.987007 -0.160649 0.003195
vn -0.947233 -0.114663 -0.299335
vn 0.040998 -0.995217 0.088666
vn -0.019891 -0.993531 0.111811
vn -0.732835 0.649775 0.201857
vn -0.665014 0.217537 -0.714447
vn 0.654991 0.635557 0.408722
vn -0.604948 0.691921 0.394060
vn 0.775560 0.576496 0.257213
vn -0.018944 -0.991629 -0.127720
vn 0.053760 -0.974683 -0.217032
vn -0.568017 0.754757 0.328175
vn -0.081435 0.357659 0.930295
vn 0.708730 0.681893 0.180898
vn -0.311471 -0.948499 -0.057760

f 1/1/1 2/2/1 3/3/1
f 4/4/2 5/5/2 6/6/2
f 4/4/3 6/7/3 7/8/3
f 5/9/4 8/10/4 9/11/4
f 10/12/5 11/13/5 9/14/5
f 6/6/6 11/15/6 7/8/6
f 6/6/7 12/16/7 11/13/7
f 12/17/8 5/5/8 9/14/8
f 6/6/9 5/5/9 12/17/9
f 11/13/10 12/18/10 9/19/10
f 13/20/11 14/21/11 15/22/11
f 14/21/12 13/20/12 16/23/12
f 16/24/13 13/20/13 17/25/13
f 15/22/14 14/21/14 18/26/14
f 14/21/15 19/27/15 18/26/15
f 18/26/16 20/28/16 21/29/16
f 18/26/17 19/27/17 20/28/17
f 20/28/18 3/30/18 21/29/18
f 5/9/19 22/31/19 23/32/19
f 24/33/20 25/34/20 26/35/20
f 27/36/21 25/34/21 9/37/21
f 28/38/22 27/39/22 29/40/22
f 30/41/23 25/34/23 24/33/23
f 25/34/24 30/41/24 10/42/24
f 30/41/25 24/33/25 31/43/25
f 24/33/26 26/44/26 32/45/26
f 33/46/27 34/47/27 5/9/27
f 4/4/28 22/31/28 5/9/28
f 26/35/29 25/34/29 27/39/29
f 33/46/30 35/48/30 34/47/30
f 32/45/31 26/35/31 28/38/31
f 23/32/32 33/46/32 5/9/32
f 26/35/33 27/39/33 28/38/33
f 28/38/34 29/40/34 36/49/34
f 35/50/35 37/51/35 29/40/35
f 28/38/36 38/52/36 32/45/36
f 36/49/37 38/52/37 28/38/37
f 36/49/38 37/53/38 39/54/38
f 39/55/39 37/56/39 40/57/39
f 41/58/40 42/59/40 39/55/40
f 39/55/41 40/57/41 41/58/41
f 36/49/42 29/40/42 37/51/42
f 37/56/43 35/48/43 33/46/43
f 37/56/44 33/46/44 40/57/44
f 40/57/45 33/46/45 43/60/45
f 40/57/46 43/60/46 41/58/46
f 33/46/47 23/32/47 43/60/47
f 44/61/48 45/62/48 30/63/48
f 15/64/49 46/65/49 45/62/49
f 46/66/50 47/67/50 10/68/50
f 47/67/51 7/69/51 11/70/51
f 45/62/52 44/61/52 17/71/52
f 44/61/53 30/63/53 31/72/53
f 13/73/54 15/64/54 45/62/54
f 46/65/55 10/74/55 45/62/55
f 45/62/56 10/74/56 30/63/56
f 47/67/57 11/70/57 10/68/57
f 47/67/58 48/75/58 7/69/58
f 46/66/59 15/76/59 47/67/59
f 18/77/60 47/67/60 15/76/60
f 47/67/61 18/77/61 48/75/61
f 18/77/62 21/78/62 48/75/62
f 13/73/63 45/62/63 17/71/63
f 49/79/64 35/50/64 29/40/64
f 8/80/65 27/81/65 9/82/65
f 34/47/66 50/83/66 5/84/66
f 27/36/67 49/79/67 29/40/67
f 35/48/68 51/85/68 52/86/68
f 35/50/69 49/79/69 51/87/69
f 52/86/70 50/83/70 34/47/70
f 35/48/71 52/86/71 34/47/71
f 5/84/72 50/83/72 8/10/72
f 53/88/73 27/81/73 8/80/73
f 53/88/74 49/79/74 27/36/74
f 54/89/75 55/90/75 56/91/75
f 57/92/76 55/90/76 58/93/76
f 59/94/77 60/95/77 55/90/77
f 61/96/78 54/89/78 56/91/78
f 39/97/79 61/96/79 36/98/79
f 36/98/80 61/96/80 56/91/80
f 36/98/81 56/91/81 38/99/81
f 62/100/82 63/101/82 64/102/82
f 65/103/83 64/102/83 54/89/83
f 61/96/84 65/103/84 54/89/84
f 66/104/85 67/105/85 62/100/85
f 55/90/86 60/95/86 68/106/86
f 69/107/87 68/106/87 60/95/87
f 69/107/88 70/108/88 68/106/88
f 58/109/89 55/90/89 68/106/89
f 68/106/90 71/110/90 58/111/90
f 62/100/91 67/105/91 63/101/91
f 64/102/92 63/101/92 69/107/92
f 70/108/93 71/110/93 68/106/93
f 58/111/94 71/110/94 72/112/94
f 56/91/95 57/92/95 38/113/95
f 55/90/96 57/114/96 56/91/96
f 73/115/97 74/116/97 38/113/97
f 58/109/98 72/112/98 73/115/98
f 57/117/99 58/111/99 73/115/99
f 57/92/100 73/115/100 38/113/100
f 73/115/101 72/112/101 74/116/101
f 39/97/102 75/118/102 61/96/102
f 75/118/103 39/97/103 76/119/103
f 64/102/104 59/94/104 54/89/104
f 64/102/105 60/95/105 59/94/105
f 54/89/106 59/94/106 55/90/106
f 64/102/107 69/107/107 60/95/107
f 65/103/108 66/104/108 62/100/108
f 65/103/109 61/96/109 75/118/109
f 75/118/110 76/119/110 65/103/110
f 66/104/111 65/103/111 76/119/111
f 62/100/112 64/102/112 65/103/112
f 39/97/113 42/120/113 76/119/113
f 77/121/114 76/119/114 42/120/114
f 67/105/115 76/119/115 77/121/115
f 66/104/116 76/119/116 67/105/116
f 9/82/117 25/34/117 10/42/117
f 51/122/118 49/123/118 78/124/118
f 79/125/119 50/126/119 52/127/119
f 52/127/120 51/122/120 79/125/120
f 80/128/121 81/129/121 53/130/121
f 51/122/122 78/124/122 79/125/122
f 82/131/123 50/126/123 79/125/123
f 50/126/124 82/131/124 8/132/124
f 53/133/125 78/124/125 49/123/125
f 83/134/126 84/135/126 85/136/126
f 84/135/127 83/134/127 86/137/127
f 86/137/128 87/138/128 84/135/128
f 88/139/129 84/135/129 87/138/129
f 87/138/130 89/140/130 88/139/130
f 90/141/131 88/139/131 89/140/131
f 91/142/132 92/143/132 90/141/132
f 90/141/133 89/140/133 91/142/133
f 85/136/134 92/144/134 91/145/134
f 91/145/135 83/134/135 85/136/135
f 80/128/136 93/146/136 83/134/136
f 94/147/137 83/134/137 93/146/137
f 93/146/138 87/138/138 94/147/138
f 87/138/139 93/146/139 95/148/139
f 95/148/140 96/149/140 87/138/140
f 89/140/141 87/138/141 96/149/141
f 97/150/142 91/142/142 89/140/142
f 97/151/143 81/129/143 80/128/143
f 8/132/144 82/131/144 80/128/144
f 93/146/145 80/128/145 98/152/145
f 98/152/146 95/148/146 93/146/146
f 95/148/147 82/131/147 79/125/147
f 79/125/148 78/124/148 95/148/148
f 96/149/149 95/148/149 78/124/149
f 78/124/150 53/133/150 81/153/150
f 81/153/151 96/149/151 78/124/151
f 80/128/152 53/130/152 8/154/152
f 94/147/153 87/138/153 86/137/153
f 86/137/154 83/134/154 94/147/154
f 97/151/155 83/134/155 91/145/155
f 89/140/156 96/149/156 97/150/156
f 80/128/157 83/134/157 97/151/157
f 81/153/158 97/150/158 96/149/158
f 82/131/159 95/148/159 98/152/159
f 98/152/160 80/128/160 82/131/160
f 85/136/161 99/155/161 100/156/161
f 99/155/162 85/136/162 84/135/162
f 84/135/163 101/157/163 99/155/163
f 101/157/164 84/135/164 88/139/164
f 88/139/165 90/141/165 101/157/165
f 102/158/166 101/157/166 90/141/166
f 90/141/167 103/159/167 102/158/167
f 103/159/168 90/141/168 92/143/168
f 92/144/169 85/136/169 103/160/169
f 100/156/170 103/160/170 85/136/170
f 104/161/171 105/162/171 106/163/171
f 107/164/172 106/163/172 108/165/172
f 109/166/173 110/167/173 103/168/173
f 109/166/174 111/169/174 104/161/174
f 104/161/175 110/167/175 109/166/175
f 104/161/176 111/169/176 112/170/176
f 113/171/177 112/170/177 111/169/177
f 106/163/178 110/167/178 104/161/178
f 104/161/179 112/170/179 105/162/179
f 105/172/180 113/173/180 111/174/180
f 113/173/181 105/172/181 112/175/181
f 105/172/182 111/174/182 109/176/182
f 109/176/183 106/177/183 105/172/183
f 109/176/184 100/178/184 106/177/184
f 103/179/185 100/178/185 109/176/185
f 102/180/186 103/168/186 110/167/186
f 106/163/187 114/181/187 108/165/187
f 115/182/188 116/183/188 106/177/188
f 116/184/189 117/185/189 118/186/189
f 108/165/190 114/181/190 119/187/190
f 119/187/191 120/188/191 108/165/191
f 118/189/192 121/190/192 114/191/192
f 114/191/193 121/190/193 117/192/193
f 116/193/194 115/194/194 119/187/194
f 120/188/195 119/187/195 115/194/195
f 121/195/196 118/186/196 117/185/196
f 108/165/197 101/196/197 102/180/197
f 115/182/198 106/177/198 100/178/198
f 100/178/199 99/197/199 115/182/199
f 120/188/200 99/198/200 101/196/200
f 106/163/201 107/164/201 110/167/201
f 108/165/202 120/188/202 101/196/202
f 120/188/203 115/194/203 99/198/203
f 107/164/204 102/180/204 110/167/204
f 102/180/205 107/164/205 108/165/205
f 118/199/206 106/177/206 116/183/206
f 114/181/207 106/163/207 118/200/207
f 114/191/208 117/192/208 119/201/208
f 117/192/209 116/202/209 119/201/209
f 122/203/210 123/204/210 124/205/210
f 125/206/211 126/207/211 123/208/211
f 125/206/212 123/208/212 127/209/212
f 125/210/213 128/211/213 126/212/213
f 128/211/214 129/213/214 126/212/214
f 128/214/215 124/215/215 129/216/215
f 122/217/216 124/215/216 128/214/216
f 130/218/217 128/211/217 125/219/217
f 131/220/218 122/221/218 130/222/218
f 132/223/219 125/224/219 127/225/219
f 132/226/220 131/227/220 125/219/220
f 133/228/221 131/227/221 132/226/221
f 133/229/222 122/221/222 131/220/222
f 130/218/223 125/219/223 131/227/223
f 128/214/224 130/222/224 122/221/224
f 127/209/225 123/204/225 122/203/225
f 16/230/226 133/228/226 14/231/226
f 16/232/227 3/3/227 133/229/227
f 14/231/228 133/228/228 132/226/228
f 14/233/229 132/223/229 19/234/229
f 132/223/230 127/225/230 19/234/230
f 20/235/231 19/234/231 127/225/231
f 20/235/232 127/225/232 122/236/232
f 3/3/233 122/221/233 133/229/233
f 3/237/234 20/235/234 122/236/234
f 134/238/235 135/239/235 136/240/235
f 137/241/236 135/242/236 134/243/236
f 138/244/237 139/245/237 137/246/237
f 138/247/238 136/248/238 139/249/238
f 134/238/239 136/240/239 123/208/239
f 138/247/240 123/250/240 136/248/240
f 123/250/241 138/247/241 124/251/241
f 134/238/242 123/208/242 126/252/242
f 129/253/243 134/243/243 126/254/243
f 137/241/244 134/243/244 129/253/244
f 138/244/245 137/246/245 129/255/245
f 138/244/246 129/255/246 124/256/246
f 136/257/247 140/258/247 139/259/247
f 136/257/248 141/260/248 140/258/248
f 142/261/249 139/259/249 140/258/249
f 135/262/250 143/263/250 141/260/250
f 141/264/251 143/265/251 142/266/251
f 142/266/252 140/267/252 141/264/252
f 137/268/253 143/263/253 135/262/253
f 135/262/254 141/260/254 136/257/254
f 139/259/255 142/261/255 137/268/255
f 137/268/256 144/269/256 143/263/256
f 137/268/257 142/261/257 144/269/257
f 143/265/258 145/270/258 146/271/258
f 146/271/259 142/266/259 143/265/259
f 143/263/260 144/269/260 145/272/260
f 144/269/261 146/273/261 145/272/261
f 146/273/262 144/269/262 142/261/262
f 3/274/263 16/275/263 17/276/263
f 147/5/264 4/4/264 148/6/264
f 148/7/265 4/4/265 7/8/265
f 149/10/266 147/9/266 150/11/266
f 151/13/267 152/12/267 150/14/267
f 151/15/268 148/6/268 7/8/268
f 153/16/269 148/6/269 151/13/269
f 147/5/270 153/17/270 150/14/270
f 147/5/271 148/6/271 153/17/271
f 153/18/272 151/13/272 150/19/272
f 154/21/273 155/20/273 156/22/273
f 155/20/274 154/21/274 157/23/274
f 155/20/275 157/24/275 17/25/275
f 154/21/276 156/22/276 158/26/276
f 159/27/277 154/21/277 158/26/277
f 160/28/278 158/26/278 21/29/278
f 159/27/279 158/26/279 160/28/279
f 3/30/280 160/28/280 21/29/280
f 22/31/281 147/9/281 23/32/281
f 161/34/282 24/33/282 162/35/282
f 161/34/283 163/36/283 150/37/283
f 163/39/284 164/38/284 165/40/284
f 161/34/285 166/41/285 24/33/285
f 166/41/286 161/34/286 152/42/286
f 24/33/287 166/41/287 31/43/287
f 162/44/288 24/33/288 32/45/288
f 167/47/289 168/46/289 147/9/289
f 22/31/290 4/4/290 147/9/290
f 161/34/291 162/35/291 163/39/291
f 169/48/292 168/46/292 167/47/292
f 162/35/293 32/45/293 164/38/293
f 168/46/294 23/32/294 147/9/294
f 163/39/295 162/35/295 164/38/295
f 165/40/296 164/38/296 170/49/296
f 171/51/297 169/50/297 165/40/297
f 38/52/298 164/38/298 32/45/298
f 38/52/299 170/49/299 164/38/299
f 171/53/300 170/49/300 172/54/300
f 171/56/301 172/55/301 173/57/301
f 42/59/302 41/58/302 172/55/302
f 173/57/303 172/55/303 41/58/303
f 165/40/304 170/49/304 171/51/304
f 169/48/305 171/56/305 168/46/305
f 168/46/306 171/56/306 173/57/306
f 168/46/307 173/57/307 43/60/307
f 43/60/308 173/57/308 41/58/308
f 23/32/309 168/46/309 43/60/309
f 174/62/310 44/61/310 166/63/310
f 175/65/311 156/64/311 174/62/311
f 176/67/312 175/66/312 152/68/312
f 7/69/313 176/67/313 151/70/313
f 44/61/314 174/62/314 17/71/314
f 166/63/315 44/61/315 31/72/315
f 156/64/316 155/73/316 174/62/316
f 152/74/317 175/65/317 174/62/317
f 152/74/318 174/62/318 166/63/318
f 151/70/319 176/67/319 152/68/319
f 48/75/320 176/67/320 7/69/320
f 156/76/321 175/66/321 176/67/321
f 176/67/322 158/77/322 156/76/322
f 158/77/323 176/67/323 48/75/323
f 21/78/324 158/77/324 48/75/324
f 174/62/325 155/73/325 17/71/325
f 169/50/326 177/79/326 165/40/326
f 163/81/327 149/80/327 150/82/327
f 178/83/328 167/47/328 147/84/328
f 177/79/329 163/36/329 165/40/329
f 179/85/330 169/48/330 180/86/330
f 177/79/331 169/50/331 179/87/331
f 178/83/332 180/86/332 167/47/332
f 180/86/333 169/48/333 167/47/333
f 178/83/334 147/84/334 149/10/334
f 163/81/335 181/88/335 149/80/335
f 177/79/336 181/88/336 163/36/336
f 182/90/337 183/89/337 184/91/337
f 182/90/338 185/92/338 186/93/338
f 187/95/339 188/94/339 182/90/339
f 183/89/340 189/96/340 184/91/340
f 189/96/341 172/97/341 170/98/341
f 189/96/342 170/98/342 184/91/342
f 184/91/343 170/98/343 38/99/343
f 63/101/344 190/100/344 191/102/344
f 191/102/345 192/103/345 183/89/345
f 192/103/346 189/96/346 183/89/346
f 67/105/347 193/104/347 190/100/347
f 187/95/348 182/90/348 194/106/348
f 194/106/349 69/107/349 187/95/349
f 70/108/350 69/107/350 194/106/350
f 182/90/351 186/109/351 194/106/351
f 71/110/352 194/106/352 186/111/352
f 67/105/353 190/100/353 63/101/353
f 63/101/354 191/102/354 69/107/354
f 71/110/355 70/108/355 194/106/355
f 71/110/356 186/111/356 72/112/356
f 185/92/357 184/91/357 38/113/357
f 185/114/358 182/90/358 184/91/358
f 74/116/359 195/115/359 38/113/359
f 72/112/360 186/109/360 195/115/360
f 186/111/361 185/117/361 195/115/361
f 195/115/362 185/92/362 38/113/362
f 72/112/363 195/115/363 74/116/363
f 196/118/364 172/97/364 189/96/364
f 172/97/365 196/118/365 197/119/365
f 188/94/366 191/102/366 183/89/366
f 187/95/367 191/102/367 188/94/367
f 188/94/368 183/89/368 182/90/368
f 69/107/369 191/102/369 187/95/369
f 193/104/370 192/103/370 190/100/370
f 189/96/371 192/103/371 196/118/371
f 197/119/372 196/118/372 192/103/372
f 192/103/373 193/104/373 197/119/373
f 191/102/374 190/100/374 192/103/374
f 42/120/375 172/97/375 197/119/375
f 197/119/376 77/121/376 42/120/376
f 197/119/377 67/105/377 77/121/377
f 197/119/378 193/104/378 67/105/378
f 161/34/379 150/82/379 152/42/379
f 177/123/380 179/122/380 198/124/380
f 178/126/381 199/125/381 180/127/381
f 179/122/382 180/127/382 199/125/382
f 200/129/383 201/128/383 181/130/383
f 198/124/384 179/122/384 199/125/384
f 178/126/385 202/131/385 199/125/385
f 202/131/386 178/126/386 149/132/386
f 198/124/387 181/133/387 177/123/387
f 203/135/388 204/134/388 205/136/388
f 204/134/389 203/135/389 206/137/389
f 207/138/390 206/137/390 203/135/390
f 203/135/391 208/139/391 207/138/391
f 209/140/392 207/138/392 208/139/392
f 208/139/393 210/141/393 209/140/393
f 211/143/394 212/142/394 210/141/394
f 209/140/395 210/141/395 212/142/395
f 211/144/396 205/136/396 212/145/396
f 204/134/397 212/145/397 205/136/397
f 213/146/398 201/128/398 204/134/398
f 204/134/399 214/147/399 213/146/399
f 207/138/400 213/146/400 214/147/400
f 213/146/401 207/138/401 215/148/401
f 216/149/402 215/148/402 207/138/402
f 207/138/403 209/140/403 216/149/403
f 212/142/404 217/150/404 209/140/404
f 200/129/405 217/151/405 201/128/405
f 202/131/406 149/132/406 201/128/406
f 201/128/407 213/146/407 218/152/407
f 215/148/408 218/152/408 213/146/408
f 202/131/409 215/148/409 199/125/409
f 198/124/410 199/125/410 215/148/410
f 215/148/411 216/149/411 198/124/411
f 181/133/412 198/124/412 200/153/412
f 216/149/413 200/153/413 198/124/413
f 181/130/414 201/128/414 149/154/414
f 207/138/415 214/147/415 206/137/415
f 204/134/416 206/137/416 214/147/416
f 204/134/417 217/151/417 212/145/417
f 216/149/418 209/140/418 217/150/418
f 204/134/419 201/128/419 217/151/419
f 217/150/420 200/153/420 216/149/420
f 215/148/421 202/131/421 218/152/421
f 201/128/422 218/152/422 202/131/422
f 219/155/423 205/136/423 220/156/423
f 205/136/424 219/155/424 203/135/424
f 221/157/425 203/135/425 219/155/425
f 203/135/426 221/157/426 208/139/426
f 210/141/427 208/139/427 221/157/427
f 221/157/428 222/158/428 210/141/428
f 223/159/429 210/141/429 222/158/429
f 210/141/430 223/159/430 211/143/430
f 205/136/431 211/144/431 223/160/431
f 223/160/432 220/156/432 205/136/432
f 224/162/433 225/161/433 226/163/433
f 226/163/434 227/164/434 228/165/434
f 229/167/435 230/166/435 223/168/435
f 231/169/436 230/166/436 225/161/436
f 229/167/437 225/161/437 230/166/437
f 231/169/438 225/161/438 232/170/438
f 232/170/439 233/171/439 231/169/439
f 229/167/440 226/163/440 225/161/440
f 232/170/441 225/161/441 224/162/441
f 233/173/442 224/172/442 231/174/442
f 224/172/443 233/173/443 232/175/443
f 231/174/444 224/172/444 230/176/444
f 226/177/445 230/176/445 224/172/445
f 220/178/446 230/176/446 226/177/446
f 220/178/447 223/179/447 230/176/447
f 223/168/448 222/180/448 229/167/448
f 234/181/449 226/163/449 228/165/449
f 235/183/450 236/182/450 226/177/450
f 237/185/451 235/184/451 238/186/451
f 234/181/452 228/165/452 239/187/452
f 240/188/453 239/187/453 228/165/453
f 241/190/454 238/189/454 234/191/454
f 241/190/455 234/191/455 237/192/455
f 236/194/456 235/193/456 239/187/456
f 239/187/457 240/188/457 236/194/457
f 238/186/458 241/195/458 237/185/458
f 221/196/459 228/165/459 222/180/459
f 226/177/460 236/182/460 220/178/460
f 219/197/461 220/178/461 236/182/461
f 219/198/462 240/188/462 221/196/462
f 227/164/463 226/163/463 229/167/463
f 240/188/464 228/165/464 221/196/464
f 236/194/465 240/188/465 219/198/465
f 222/180/466 227/164/466 229/167/466
f 227/164/467 222/180/467 228/165/467
f 226/177/468 238/199/468 235/183/468
f 226/163/469 234/181/469 238/200/469
f 237/192/470 234/191/470 239/201/470
f 235/202/471 237/192/471 239/201/471
f 242/204/472 243/203/472 244/205/472
f 245/207/473 246/206/473 242/208/473
f 242/208/474 246/206/474 247/209/474
f 248/211/475 246/210/475 245/212/475
f 249/213/476 248/211/476 245/212/476
f 244/215/477 248/214/477 249/216/477
f 244/215/478 243/217/478 248/214/478
f 248/211/479 250/218/479 246/219/479
f 243/221/480 251/220/480 250/222/480
f 246/224/481 252/223/481 247/225/481
f 251/227/482 252/226/482 246/219/482
f 251/227/483 253/228/483 252/226/483
f 243/221/484 253/229/484 251/220/484
f 246/219/485 250/218/485 251/227/485
f 250/222/486 248/214/486 243/221/486
f 242/204/487 247/209/487 243/203/487
f 253/228/488 157/230/488 154/231/488
f 3/3/489 157/232/489 253/229/489
f 253/228/490 154/231/490 252/226/490
f 252/223/491 154/233/491 159/234/491
f 247/225/492 252/223/492 159/234/492
f 159/234/493 160/235/493 247/225/493
f 247/225/494 160/235/494 243/236/494
f 243/221/495 3/3/495 253/229/495
f 160/235/496 3/237/496 243/236/496
f 254/239/497 255/238/497 256/240/497
f 254/242/498 257/241/498 255/243/498
f 258/245/499 259/244/499 257/246/499
f 256/248/500 259/247/500 258/249/500
f 256/240/501 255/238/501 242/208/501
f 242/250/502 259/247/502 256/248/502
f 259/247/503 242/250/503 244/251/503
f 242/208/504 255/238/504 245/252/504
f 255/243/505 249/253/505 245/254/505
f 255/243/506 257/241/506 249/253/506
f 257/246/507 259/244/507 249/255/507
f 249/255/508 259/244/508 244/256/508
f 260/258/509 256/257/509 258/259/509
f 261/260/510 256/257/510 260/258/510
f 258/259/511 262/261/511 260/258/511
f 263/263/512 254/262/512 261/260/512
f 263/265/513 261/264/513 262/266/513
f 260/267/514 262/266/514 261/264/514
f 263/263/515 257/268/515 254/262/515
f 261/260/516 254/262/516 256/257/516
f 262/261/517 258/259/517 257/268/517
f 264/269/518 257/268/518 263/263/518
f 262/261/519 257/268/519 264/269/519
f 265/270/520 263/265/520 266/271/520
f 262/266/521 266/271/521 263/265/521
f 264/269/522 263/263/522 265/272/522
f 266/273/523 264/269/523 265/272/523
f 264/269/524 266/273/524 262/261/524
f 157/275/525 3/274/525 17/276/525

o 
usemtl axe.001
s off

v 26.723900 75.137238 6.133790
v 22.548750 69.390259 7.911750
v 31.422050 72.979248 12.940249
v 28.724480 71.035927 12.584770
v 32.118469 71.722351 14.526711
v 29.420891 69.779022 14.171229
v 32.522171 64.672363 19.342520
v 26.177540 62.840919 16.178310
v 31.983799 78.926437 6.826910
v 37.782063 68.461571 20.035639
v 38.328423 80.757874 9.991120
v 34.119648 74.922600 13.295731
v 34.816059 73.665680 14.882179
v 41.957222 74.208542 18.257679
v 29.689920 69.933121 11.287251
v 32.387501 71.876450 11.642719
v 30.386318 68.676208 12.873711
v 33.083912 70.619537 13.229180
v 35.085079 73.819778 11.998200
v 35.781502 72.562881 13.584661
v 1.805780 51.643799 9.037560
v 2.502180 50.386902 10.624020
v 3.467630 49.284081 9.326490
v 2.317250 51.460243 8.292910
v 40.631271 77.835068 14.188770
v -25.564480 30.167780 6.925520
v -24.637371 29.154251 5.541790
v -25.295450 30.321880 4.041540
v -26.260900 31.424690 5.339060

vt 0.033358 0.643728
vt 0.190411 0.923560
vt 0.402692 0.503812
vt 0.402692 0.647326
vt 0.408249 0.287497
vt 0.408249 0.367848
vt 0.492649 0.287497
vt 0.492649 0.367848
vt 0.403043 0.503812
vt 0.403044 0.647326
vt 0.033710 0.643728
vt 0.190763 0.923560
vt 0.033358 0.363896
vt 0.033710 0.363896
vt 0.190411 0.084064
vt 0.402692 0.360297
vt 0.408249 0.207147
vt 0.492649 0.207147
vt 0.403043 0.360297
vt 0.190763 0.084064
vt 0.408248 1.036942
vt 0.492649 1.036942
vt 0.483600 0.371280
vt 0.402049 0.371280
vt 0.402049 1.040375
vt 0.483600 1.040375
vt 0.450449 0.037941
vt 0.483600 0.210579
vt 0.402049 0.210579
vt 0.442825 0.041374
vt 0.000000 1.000000

vn -0.565399 0.589301 0.577104
vn -0.551016 0.675168 0.490438
vn -0.493200 0.563374 0.662845
vn -0.449099 0.486297 0.749550
vn -0.499211 0.447933 0.741717
vn -0.529702 0.631774 0.565930
vn -0.477528 0.667785 0.570991
vn -0.412910 0.425910 0.805050
vn -0.414471 0.529991 0.739813
vn 0.412909 -0.425910 -0.805051
vn 0.414471 -0.529990 -0.739813
vn 0.493199 -0.563375 -0.662845
vn 0.477529 -0.667784 -0.570991
vn 0.529702 -0.631774 -0.565930
vn 0.449098 -0.486297 -0.749550
vn 0.499211 -0.447932 -0.741718
vn 0.565399 -0.589301 -0.577103
vn 0.551017 -0.675168 -0.490438
vn -0.196247 -0.814377 0.546148
vn -0.729272 0.147640 -0.668105
vn 0.196246 0.814378 -0.546146
vn 0.729273 -0.147641 0.668104
vn 0.289880 -0.281253 -0.914804
vn -0.318581 0.592056 -0.740254
vn -0.462530 0.733226 -0.498443
vn 0.325355 -0.587208 0.741169
vn -0.377421 0.638028 0.671174
vn 0.599580 -0.477989 -0.641896
vn 0.442895 -0.493200 0.748730
vn -0.200421 0.667877 -0.716778
vn 0.339947 -0.606549 0.718703
vn -0.376575 0.636386 -0.673204
vn 0.412753 -0.397707 -0.819429
vn -0.804862 -0.584637 -0.101965
vn -0.803778 -0.584610 -0.110333

f 267/277/526 268/278/526 269/279/526
f 270/280/527 269/279/527 268/278/527
f 269/281/528 270/282/528 271/283/528
f 272/284/528 271/283/528 270/282/528
f 271/285/529 272/286/529 273/287/529
f 274/288/530 273/287/530 272/286/530
f 275/289/531 267/277/531 269/279/531
f 273/287/529 276/290/529 271/285/529
f 277/291/532 275/289/532 278/292/532
f 269/279/531 278/292/531 275/289/531
f 278/293/528 269/281/528 279/294/528
f 271/283/528 279/294/528 269/281/528
f 279/295/533 271/285/533 280/296/533
f 276/290/534 280/296/534 271/285/534
f 281/280/535 268/278/535 282/279/535
f 267/277/536 282/279/536 268/278/536
f 283/284/537 281/282/537 284/283/537
f 282/281/537 284/283/537 281/282/537
f 274/288/538 283/286/538 273/287/538
f 284/285/539 273/287/539 283/286/539
f 282/279/540 267/277/540 275/289/540
f 273/287/539 284/285/539 276/290/539
f 282/279/540 275/289/540 285/292/540
f 277/291/541 285/292/541 275/289/541
f 284/283/537 282/281/537 286/294/537
f 285/293/537 286/294/537 282/281/537
f 276/290/542 284/285/542 280/296/542
f 286/295/543 280/296/543 284/285/543
f 270/280/544 268/278/544 281/280/544
f 283/286/545 274/288/545 272/286/545
f 279/295/546 280/296/546 286/295/546
f 285/292/547 277/291/547 278/292/547
f 272/284/528 270/282/528 287/297/528
f 287/297/528 288/298/528 272/284/528
f 281/282/537 283/284/537 289/298/537
f 289/298/548 290/297/548 281/282/548
f 270/299/549 281/300/549 290/301/549
f 290/301/550 287/302/550 270/299/550
f 283/300/551 272/299/551 288/302/551
f 288/302/551 289/301/551 283/300/551
f 278/293/552 279/294/552 291/303/552
f 286/294/553 285/293/553 291/303/553
f 279/304/554 286/305/554 291/306/554
f 285/305/555 278/304/555 291/306/555
f 289/298/556 288/297/556 292/298/556 293/307/556
f 287/297/557 290/298/557 294/297/557 295/307/557
f 290/297/558 289/298/558 293/297/558 294/307/558
f 288/298/528 287/297/528 295/298/528 292/307/528
f 294/297/559 293/298/559 295/297/559
f 292/298/560 295/297/560 293/298/560

