mtllib anim_spider_000017.mtl

o spider_walk_00
usemtl spidsd
s off

v -0.095340 43.713650 -14.598050
v -0.001710 47.666740 -3.513910
v 17.361359 35.537540 -3.558800
v -0.168390 34.214027 -24.147930
v 0.019030 38.498280 7.263021
v 11.452000 33.718559 8.721960
v 7.795510 30.581301 -18.462259
v 17.646790 26.726921 1.189760
v 13.302719 26.095699 11.929111
v 7.103390 15.423141 12.026171
v 6.533760 16.274130 17.741470
v 0.135890 23.169178 23.065830
v 10.899910 31.338230 19.695660
v 10.472290 23.842800 -12.654420
v 9.105030 14.224690 -7.281230
v 15.282430 16.706930 -1.727240
v 1.714490 10.246830 -24.483641
v 5.462010 29.105661 -31.545311
v -0.131350 19.125231 -19.512520
v 10.352130 10.085870 -21.903919
v 8.033530 28.915211 -18.831421
v 8.519350 11.088820 -31.495819
v 0.283320 1.618260 -30.945450
v 17.417299 31.920031 -24.450590
v 16.263439 40.262207 -21.714020
v 6.297590 15.243030 -13.736071
v 22.038290 35.274319 -17.253099
v 28.631931 41.990360 -40.253372
v 33.563789 46.297359 -36.966888
v 32.292130 39.306320 -34.253819
v 41.416130 14.023490 -61.020809
v 27.699339 33.474072 -5.125100
v 27.340620 43.611290 -6.187440
v 29.602180 39.673542 2.280620
v 10.847301 15.231700 7.233380
v 43.185211 37.288353 -8.784679
v 50.167660 42.937580 -7.368070
v 46.256233 41.329559 -0.377690
v 47.460953 -1.960840 7.497430
v 28.956139 40.370201 5.663030
v 22.886049 48.419182 12.652760
v 26.804131 40.933952 15.946819
v 44.008869 46.977459 7.353730
v 45.978851 51.530411 14.825911
v 41.956001 36.978500 15.716229
v 59.925938 12.509350 8.443390
v 7.436530 39.603493 15.143641
v -0.002000 14.952280 -4.690150
v 6.346630 16.787640 -17.340040
v 17.351370 25.929798 -25.337860
v 11.280390 27.320831 -29.281809
v 11.408989 18.702940 -25.868839
v 20.409561 10.841829 -40.856979
v 13.888700 15.807570 -43.050072
v 13.776619 9.978810 -36.831928
v 11.911280 5.659030 -48.939930
v 5.818340 8.406650 -49.612930
v 6.129540 4.367830 -46.361198
v -17.378010 35.535439 -3.284250
v -11.432650 33.720310 8.719729
v -8.430980 30.559361 -18.485010
v -17.839920 28.497341 -1.905170
v -13.246079 26.060390 11.994751
v -7.202580 13.375330 9.062450
v -6.293630 16.237839 17.827379
v -10.718360 31.277069 19.840471
v -10.307111 23.934099 -12.422550
v -9.250370 14.232640 -7.487720
v -16.488050 18.561300 -4.834560
v -2.269090 10.246469 -21.770889
v -5.731550 29.104900 -31.475210
v -10.598830 10.083970 -21.677120
v -8.286320 28.913801 -18.705900
v -8.904400 11.087530 -31.294230
v -0.660210 1.618180 -30.938740
v -19.848690 31.215439 -22.157650
v -18.896730 39.815758 -20.154469
v -6.377380 15.392880 -13.752750
v -19.802191 33.968971 -13.564840
v -39.253849 35.184441 -25.247519
v -42.566360 38.775711 -19.723450
v -39.075771 33.710751 -16.525539
v -40.994713 -1.151010 -33.748802
v -27.008282 39.803650 -10.391050
v -24.306410 50.408600 -7.455670
v -28.194759 43.914143 -1.158960
v -11.017990 14.102469 4.525120
v -47.526176 49.664490 -10.870280
v -45.790710 54.714489 -3.431940
v -40.088482 49.022377 -4.482280
v -59.154209 9.295040 -1.415380
v -21.715759 37.459320 17.140890
v -13.476259 45.226730 20.039881
v -15.143761 37.859760 26.020309
v -34.816811 42.082371 25.338650
v -34.308109 47.766891 32.387939
v -26.754120 34.492718 31.391510
v -37.358971 0.967550 44.191124
v -7.398410 39.544201 15.231280
v -6.574490 16.786530 -17.240690
v -17.649500 25.926819 -25.009811
v -11.636061 27.319010 -29.040430
v -12.072670 18.700951 -26.412121
v -20.928431 10.838831 -40.483799
v -14.371270 15.805730 -42.720829
v -14.238120 9.976800 -36.554428
v -12.831600 5.657969 -48.714973
v -4.807990 8.406560 -49.960663
v -6.845000 4.367410 -46.655342
v 5.517900 27.253708 21.380751
v 9.168221 33.622192 16.923161
v 17.430349 30.157799 26.525459
v 12.048340 15.834610 23.580669
v 23.960781 16.562630 29.443409
v 0.001620 37.999062 11.278230
v 3.719080 38.801277 13.210930
v -5.291230 27.223129 21.453150
v -9.058391 36.916180 16.855780
v -17.149921 20.074471 23.753531
v -11.722790 15.711830 23.702320
v -23.581482 16.317070 29.686720
v -3.698400 38.771629 13.254749
v 10.407030 49.019989 52.734890
v 17.232891 42.890820 52.321930
v 22.133301 43.042759 43.200211
v 11.098690 49.208649 43.760471
v 0.110570 52.786102 52.175522
v 0.064070 55.374550 44.320751
v 21.449261 43.183781 34.089302
v 11.790340 49.397301 34.786068
v 0.017570 55.599907 35.493652
v 14.345890 10.317880 48.979568
v 0.335570 7.152320 48.699039
v 0.235730 11.129460 33.208481
v 13.197121 13.076250 36.280121
v 22.855989 17.871161 51.065479
v 26.158501 15.023030 39.351749
v 22.752981 28.187130 50.791019
v 24.145899 29.032890 41.275978
v 23.761940 29.878658 31.760950
v 12.434950 21.552921 60.082512
v 0.340050 18.398470 60.916958
v 10.524010 36.267708 62.728401
v 0.344530 32.301552 66.677582
v -11.696980 49.275990 34.906261
v -10.911430 49.094967 43.873108
v -10.125870 48.913940 52.839962
v -21.297668 42.962982 34.308060
v -21.886921 42.815380 43.425480
v -16.891710 42.678699 52.532089
v -25.661631 14.755381 39.616951
v -12.712950 12.942420 36.412720
v -22.241531 17.581421 51.352570
v -13.703099 10.173010 49.123119
v -23.496498 29.634571 32.002800
v -23.774271 28.785379 41.521221
v -22.275160 27.936201 51.039639
v 0.199070 40.581139 62.668419
v -10.008889 36.161659 62.833481
v -11.856001 21.427460 60.206818
v 15.499820 39.902222 25.297020
v 7.748870 46.800289 27.506760
v -0.002090 53.698368 29.716511
v 3.707390 44.203281 20.227461
v -0.021750 51.796841 23.939371
v 16.465080 30.077650 24.436790
v -3.710080 44.164970 20.265419
v -7.703530 46.720490 27.585840
v -15.404969 39.742588 25.455179
v -16.277451 29.908531 24.604349
v 0.004500 43.194641 15.262990

vt 0.775345 0.341683
vt 0.775876 0.247975
vt 0.859220 0.247112
vt 0.772128 0.424221
vt 0.775890 0.154291
vt 0.859827 0.141903
vt 0.875327 0.375553
vt 0.892505 0.219133
vt 0.897773 0.114296
vt 0.953133 0.141305
vt 0.949949 0.066123
vt 0.977975 0.018496
vt 0.873031 0.047317
vt 0.914347 0.327191
vt 0.946247 0.279296
vt 0.925279 0.240961
vt 0.931538 0.459675
vt 0.768930 0.471854
vt 0.800536 0.491124
vt 0.867513 0.453579
vt 0.477818 0.544580
vt 0.495999 0.473751
vt 0.457462 0.507453
vt 0.563267 0.479394
vt 0.793378 0.515313
vt 0.929596 0.495258
vt 0.990614 0.441185
vt 0.411300 0.524885
vt 0.939905 0.518219
vt 0.290756 0.676185
vt 0.333986 0.544775
vt 0.326637 0.668117
vt 0.294440 0.545074
vt 0.419736 0.674328
vt 0.359239 0.546980
vt 0.362150 0.676992
vt 0.424507 0.550840
vt 0.353113 0.548934
vt 0.354937 0.672422
vt 0.290943 0.859778
vt 0.324924 0.863033
vt 0.413481 0.864260
vt 0.355742 0.861684
vt 0.348682 0.862354
vt 0.311373 1.000258
vt 0.376172 1.002164
vt 0.159496 0.674128
vt 0.185555 0.550104
vt 0.185681 0.666147
vt 0.160294 0.542513
vt 0.284786 0.672128
vt 0.226999 0.546325
vt 0.226201 0.677940
vt 0.281807 0.552058
vt 0.215102 0.548247
vt 0.218081 0.668317
vt 0.150111 0.861017
vt 0.177469 0.863497
vt 0.280998 0.861230
vt 0.216815 0.864829
vt 0.214293 0.857419
vt 0.174267 0.992955
vt 0.240972 0.996766
vt 0.876456 0.657379
vt 0.910185 0.556160
vt 0.913662 0.658670
vt 0.876159 0.553592
vt 0.989137 0.661685
vt 0.941977 0.557404
vt 0.942685 0.660091
vt 0.991449 0.552362
vt 0.936903 0.552947
vt 0.935408 0.657873
vt 0.871892 0.848804
vt 0.899388 0.854490
vt 0.985760 0.847089
vt 0.939923 0.850417
vt 0.935080 0.844376
vt 0.891788 0.987324
vt 0.959816 0.991136
vt 0.811870 0.097918
vt 0.941640 0.180557
vt 0.977933 0.261082
vt 0.954340 0.335728
vt 0.960961 0.365731
vt 0.025670 0.875244
vt 0.023983 0.951413
vt 0.008915 0.884464
vt 0.888702 0.378592
vt 0.932696 0.369601
vt 0.967644 0.389437
vt 0.893416 0.385760
vt 0.979004 0.388825
vt 0.122691 0.772029
vt 0.105427 0.782143
vt 0.069123 0.732106
vt 0.076559 0.701409
vt 0.089433 0.808942
vt 0.055780 0.764742
vt 0.447575 0.041580
vt 0.455426 0.007181
vt 0.364876 0.024518
vt 0.386764 0.056902
vt 0.117731 0.945641
vt 0.103867 0.925337
vt 0.088386 0.917024
vt 0.511792 0.059264
vt 0.553387 0.034310
vt 0.062154 0.991654
vt 0.037597 0.984105
vt 0.036497 0.970812
vt 0.525175 0.122252
vt 0.562876 0.109196
vt 0.538257 0.138029
vt 0.692644 0.245132
vt 0.692111 0.141629
vt 0.676452 0.374359
vt 0.659497 0.216523
vt 0.653969 0.113403
vt 0.598608 0.140783
vt 0.601372 0.065256
vt 0.571845 0.018496
vt 0.678986 0.045939
vt 0.637463 0.325376
vt 0.605901 0.279694
vt 0.626699 0.241362
vt 0.608539 0.429278
vt 0.725602 0.482910
vt 0.768676 0.455537
vt 0.670790 0.428038
vt 0.013833 0.534843
vt 0.057723 0.498919
vt 0.108703 0.537752
vt 0.114337 0.623838
vt 0.727395 0.512149
vt 0.602094 0.474733
vt 0.556344 0.401069
vt 0.025928 0.446211
vt 0.587502 0.500905
vt 0.501558 0.665186
vt 0.475328 0.670746
vt 0.488643 0.557008
vt 0.510735 0.559631
vt 0.511941 0.673778
vt 0.564254 0.668997
vt 0.571052 0.562343
vt 0.526391 0.557600
vt 0.438845 0.555986
vt 0.438629 0.669967
vt 0.490638 0.863007
vt 0.465435 0.853431
vt 0.512914 0.866921
vt 0.550466 0.866819
vt 0.439943 0.863110
vt 0.464498 0.995689
vt 0.531103 0.999500
vt 0.645465 0.666359
vt 0.609423 0.665836
vt 0.609322 0.553240
vt 0.646303 0.558831
vt 0.644901 0.672566
vt 0.704038 0.670170
vt 0.704920 0.562643
vt 0.647846 0.566742
vt 0.574501 0.668755
vt 0.577814 0.562930
vt 0.641031 0.862073
vt 0.600000 0.859329
vt 0.641457 0.863412
vt 0.701931 0.862073
vt 0.568462 0.857695
vt 0.596238 0.994925
vt 0.667469 0.998524
vt 0.721119 0.672768
vt 0.757893 0.673412
vt 0.759085 0.544124
vt 0.727704 0.546469
vt 0.871675 0.666796
vt 0.802489 0.668417
vt 0.813164 0.548182
vt 0.871708 0.557439
vt 0.794309 0.670447
vt 0.792099 0.542839
vt 0.721696 0.854929
vt 0.760334 0.853734
vt 0.865583 0.855450
vt 0.803118 0.854637
vt 0.794191 0.855683
vt 0.759108 0.989579
vt 0.837549 0.987025
vt 0.740506 0.096989
vt 0.610236 0.179810
vt 0.572940 0.257297
vt 0.597908 0.334492
vt 0.594582 0.369084
vt 0.663706 0.377160
vt 0.574011 0.385040
vt 0.017354 0.698239
vt 0.077571 0.659930
vt 0.033577 0.712756
vt 0.065908 0.640817
vt 0.081021 0.683010
vt 0.049118 0.727721
vt 0.124151 0.041090
vt 0.200940 0.027137
vt 0.117444 0.009102
vt 0.180181 0.056209
vt 0.011554 0.832948
vt 0.034991 0.827342
vt 0.053450 0.820154
vt 0.064435 0.056501
vt 0.026347 0.032755
vt 0.055064 0.903823
vt 0.064933 0.894582
vt 0.079099 0.883106
vt 0.051025 0.114638
vt 0.016346 0.101972
vt 0.038659 0.129045
vt 0.925503 0.032906
vt 0.842451 0.072618
vt 0.512985 0.444113
vt 0.492284 0.459711
vt 0.475747 0.396794
vt 0.496448 0.381196
vt 0.533687 0.428515
vt 0.459209 0.333877
vt 0.776176 0.128462
vt 0.794023 0.113190
vt 0.625416 0.032217
vt 0.709746 0.071464
vt 0.073940 0.395267
vt 0.061035 0.456501
vt 0.037643 0.442369
vt 0.050548 0.381136
vt 0.086845 0.334034
vt 0.014250 0.428238
vt 0.758341 0.112725
vt 0.314099 0.254463
vt 0.355087 0.237392
vt 0.367313 0.312719
vt 0.317303 0.328713
vt 0.273111 0.271535
vt 0.272808 0.344687
vt 0.379539 0.388047
vt 0.326023 0.402942
vt 0.272506 0.417838
vt 0.488452 0.155869
vt 0.533191 0.147537
vt 0.533439 0.288026
vt 0.492907 0.267564
vt 0.443713 0.164201
vt 0.451461 0.249039
vt 0.399400 0.200796
vt 0.410174 0.281663
vt 0.419374 0.360962
vt 0.365347 0.092206
vt 0.403799 0.084931
vt 0.314748 0.129858
vt 0.274408 0.022325
vt 0.219709 0.401470
vt 0.228523 0.327334
vt 0.232299 0.253177
vt 0.166912 0.385102
vt 0.179200 0.309960
vt 0.191488 0.234818
vt 0.094962 0.247359
vt 0.053526 0.267631
vt 0.103079 0.160684
vt 0.058292 0.154110
vt 0.013878 0.287888
vt 0.013506 0.147537
vt 0.126878 0.359568
vt 0.136465 0.278653
vt 0.147283 0.197751
vt 0.273581 0.191382
vt 0.232948 0.128571
vt 0.143957 0.084931
vt 0.182552 0.090792
vt 0.367105 0.456462
vt 0.313805 0.452331
vt 0.272590 0.443412
vt 0.354671 0.524877
vt 0.313673 0.496932
vt 0.272674 0.468987
vt 0.398802 0.428704
vt 0.423478 0.492294
vt 0.231623 0.490320
vt 0.231938 0.449947
vt 0.190573 0.511653
vt 0.178742 0.448377
vt 0.125804 0.484077
vt 0.146958 0.422338
vt 0.314405 0.528232
vt 0.274139 0.531587
vt 0.232356 0.521620
vt 0.273793 0.512119

vn 0.548426 0.786132 -0.285002
vn 0.614308 0.557070 -0.558837
vn 0.229563 0.741535 0.630418
vn 0.532857 0.761424 0.369184
vn 0.642419 0.501802 -0.579217
vn 0.852189 -0.226582 -0.471630
vn 0.856336 0.362608 0.367701
vn 0.851424 0.269941 0.449678
vn 0.824558 -0.476179 0.305546
vn -0.720500 -0.692746 0.031338
vn 0.834164 -0.301667 0.461701
vn 0.863523 -0.333894 -0.377946
vn 0.890394 -0.037306 -0.453659
vn 0.652370 0.065868 -0.755033
vn -0.812661 -0.055718 -0.580067
vn -0.970463 -0.073020 -0.229933
vn -0.254531 -0.512203 0.820282
vn 0.096249 -0.148743 0.984181
vn 0.514690 0.836914 -0.186195
vn -0.704981 -0.121550 -0.698733
vn -0.641334 0.525230 -0.559306
vn -0.247687 -0.554095 0.794752
vn 0.732107 -0.648746 -0.207721
vn -0.872546 0.039058 -0.486968
vn -0.870037 0.448182 -0.205350
vn 0.754884 -0.626984 -0.192460
vn 0.687334 -0.609481 -0.395101
vn -0.028508 0.490596 0.870921
vn -0.197774 0.516266 0.833279
vn -0.522808 0.807374 -0.273531
vn -0.832892 0.065087 -0.549595
vn 0.125844 -0.874678 -0.468083
vn 0.489762 -0.867228 0.089719
vn 0.850116 0.048845 0.524325
vn 0.233283 0.784258 0.574908
vn 0.010234 0.599157 -0.800566
vn -0.800787 -0.547088 0.243791
vn 0.935739 -0.033973 0.351052
vn -0.475666 -0.108312 -0.872932
vn -0.655280 0.349566 -0.669635
vn 0.801790 -0.543340 0.248827
vn 0.785286 -0.541888 0.299471
vn -0.659826 0.598396 0.454481
vn -0.884902 0.432414 -0.173108
vn -0.040881 0.290274 -0.956070
vn -0.203064 -0.109158 -0.973062
vn 0.297624 -0.898343 0.323110
vn 0.173871 -0.776644 0.605469
vn -0.067486 0.979914 0.187652
vn 0.048109 0.910558 0.410572
vn 0.422018 -0.307778 -0.852745
vn -0.943850 0.033523 0.328668
vn 0.855237 0.115695 0.505157
vn -0.556433 0.264407 -0.787700
vn -0.601472 0.342813 -0.721602
vn 0.761939 -0.618120 0.193330
vn 0.767436 -0.618563 0.168590
vn -0.253160 0.275586 0.927342
vn -0.854538 0.378381 -0.355798
vn -0.068235 0.859864 -0.505943
vn -0.162059 0.574501 -0.802300
vn 0.357708 -0.641217 -0.678885
vn -0.252586 -0.967574 0.000185
vn 0.029038 0.053043 0.998170
vn -0.133398 0.339868 0.930964
vn 0.820928 0.365220 -0.438967
vn -0.720685 -0.351693 -0.597433
vn 0.333979 -0.034697 0.941942
vn 0.390068 0.787266 -0.477555
vn 0.954676 0.277294 0.108178
vn 0.777871 -0.137757 0.613140
vn 0.132060 -0.986480 -0.097044
vn -0.009756 -0.999431 0.032299
vn -0.521318 -0.817551 0.244618
vn 0.033236 -0.925714 0.376762
vn -0.109713 -0.988061 -0.108162
vn -0.469768 -0.809075 -0.353152
vn 0.971884 0.164460 -0.168506
vn -0.945434 -0.064299 -0.319405
vn 0.969762 0.152910 -0.190213
vn 0.956467 0.186403 -0.224555
vn 0.263844 -0.153800 -0.952225
vn -0.249252 -0.932765 -0.260427
vn 0.895250 -0.413818 -0.165175
vn 0.262906 0.962617 -0.065179
vn 0.524062 0.747969 0.407309
vn -0.815260 -0.223704 -0.534142
vn -0.946623 0.093745 -0.308411
vn 0.727902 -0.620038 0.292766
vn 0.727861 -0.620080 0.292779
vn 0.634880 0.647641 -0.421294
vn 0.507827 0.665533 -0.546971
vn -0.985957 -0.112604 -0.123324
vn -0.989063 -0.066832 -0.131486
vn 0.475907 -0.581877 0.659493
vn 0.614663 -0.547160 0.568160
vn 0.291127 0.437147 -0.850969
vn 0.525966 0.347928 -0.776084
vn -0.822035 0.317336 0.472818
vn -0.774812 0.468144 0.424863
vn 0.316939 -0.914106 0.252901
vn 0.297556 -0.907752 0.295715
vn -0.197855 -0.623930 -0.756019
vn -0.552690 0.786426 -0.275806
vn -0.623066 0.556913 -0.549215
vn -0.228983 0.741204 0.631018
vn -0.527031 0.762018 0.376254
vn -0.622823 0.557354 -0.549042
vn -0.866831 -0.040486 -0.496956
vn -0.867521 0.354539 0.348869
vn -0.877341 0.147082 0.456772
vn -0.864318 -0.459206 0.205144
vn 0.653541 -0.736883 0.172881
vn -0.827553 -0.306439 0.470373
vn -0.830276 -0.321886 -0.455006
vn -0.835734 -0.222663 -0.501966
vn -0.196219 0.252636 -0.947456
vn 0.830570 -0.126585 -0.542337
vn 0.911107 -0.118994 -0.394619
vn 0.015776 -0.250042 0.968106
vn -0.077778 -0.146066 0.986213
vn -0.507410 0.838339 -0.199308
vn 0.805340 -0.147587 -0.574148
vn 0.689303 0.584027 -0.428688
vn 0.021901 -0.726115 0.687224
vn -0.735717 -0.647933 -0.197238
vn 0.739334 0.074046 -0.669255
vn 0.784300 0.430428 -0.446772
vn -0.794979 -0.576438 0.189020
vn -0.732582 -0.525050 -0.433180
vn 0.044888 0.456807 0.888432
vn 0.653902 0.519085 0.550420
vn -0.046498 0.824522 -0.563916
vn 0.194182 0.202091 -0.959923
vn -0.173166 -0.971703 -0.160646
vn -0.034125 -0.951693 0.305150
vn -0.141014 0.457231 0.878097
vn -0.020869 0.749268 0.661938
vn -0.789892 0.175334 -0.587647
vn 0.998765 -0.041442 -0.027394
vn -0.813500 -0.220989 0.537942
vn 0.693861 0.022446 -0.719759
vn 0.810235 0.264449 -0.523055
vn -0.901239 -0.426914 0.074254
vn -0.852022 -0.435533 0.290463
vn 0.498663 0.430736 0.752198
vn 0.733541 0.044690 -0.678174
vn 0.057542 0.819683 -0.569920
vn 0.134211 0.232443 -0.963306
vn -0.406260 -0.826372 0.389952
vn -0.447501 -0.836924 0.315120
vn -0.438526 -0.567845 0.696597
vn 0.261154 0.586781 0.766477
vn -0.958494 0.283399 0.031227
vn 0.595158 -0.341772 -0.727310
vn 0.173941 -0.007457 0.984728
vn -0.039967 0.386322 -0.921498
vn -0.632049 -0.124311 -0.764892
vn -0.651858 -0.563166 0.507863
vn -0.865324 -0.443014 0.234419
vn 0.867809 0.179660 0.463281
vn 0.800289 0.240220 -0.549392
vn -0.259769 0.760785 -0.594748
vn -0.275820 0.578955 -0.767290
vn -0.495493 -0.798686 -0.341449
vn 0.223915 -0.966927 -0.122123
vn 0.379712 0.147529 0.913266
vn 0.489912 0.479916 0.727782
vn -0.997476 0.069122 0.016241
vn 0.262597 -0.415545 -0.870842
vn 0.450132 0.190674 0.872367
vn -0.390383 0.793122 -0.467503
vn -0.952819 0.277838 0.122241
vn -0.769216 -0.081429 0.633779
vn -0.199613 -0.924793 -0.323901
vn -0.033107 -0.990836 -0.130949
vn 0.597875 -0.769419 0.224809
vn -0.158216 -0.694653 0.701730
vn 0.115746 -0.984826 -0.129305
vn 0.445988 -0.822180 -0.353717
vn -0.973395 0.169870 -0.153775
vn -0.110002 -0.141724 0.983775
vn -0.966834 0.136062 -0.216147
vn -0.942094 -0.038095 -0.333179
vn -0.278439 -0.153846 -0.948052
vn 0.245190 -0.932638 -0.264706
vn -0.909384 -0.401422 -0.109002
vn -0.264783 0.962269 -0.062670
vn -0.520526 0.742718 0.421215
vn 0.820143 -0.204517 -0.534357
vn 0.942666 0.094386 -0.320113
vn -0.718445 -0.616865 0.321426
vn -0.736342 -0.597961 0.316613
vn -0.634716 0.649066 -0.419344
vn -0.515737 0.665475 -0.539591
vn 0.987152 -0.104931 -0.120505
vn 0.988424 -0.087808 -0.123724
vn -0.466289 -0.581964 0.666253
vn -0.571464 -0.557849 0.601858
vn -0.286662 0.454626 -0.843291
vn -0.537142 0.367084 -0.759426
vn 0.819683 0.053333 0.570330
vn 0.734335 0.501128 0.457845
vn -0.294546 -0.912310 0.284487
vn -0.289859 -0.910892 0.293695
vn 0.111976 -0.662533 -0.740615
vn 0.452705 -0.242521 0.858045
vn 0.905491 0.338357 0.256127
vn 0.656283 0.729852 0.191331
vn 0.407437 -0.751143 -0.519403
vn 0.387056 0.043918 -0.921010
vn -0.111946 -0.249338 -0.961925
vn 0.440559 0.018985 -0.897523
vn -0.267584 0.956314 0.117741
vn -0.439790 -0.245046 0.864024
vn -0.928740 0.345094 0.135471
vn -0.836785 0.546740 0.029429
vn 0.023823 -0.341830 -0.939460
vn -0.113188 -0.129243 -0.985132
vn -0.410101 -0.501224 -0.761966
vn 0.102823 -0.245775 -0.963858
vn 0.264002 0.957011 0.120134
vn 0.563752 0.803949 0.189342
vn 0.416423 0.894341 0.163545
vn 0.514020 0.857632 0.015850
vn 0.477996 0.877551 0.037733
vn 0.209203 -0.948966 -0.236005
vn 0.396597 -0.917191 0.038360
vn -0.103971 -0.837305 -0.536759
vn 0.178532 -0.961436 -0.209205
vn 0.975346 0.070647 0.209066
vn 0.924240 0.203597 0.323000
vn 0.987973 0.098462 -0.119225
vn 0.985386 0.163482 -0.047840
vn 0.546144 -0.334791 0.767881
vn 0.184126 -0.700076 0.689921
vn 0.724422 0.085875 0.683987
vn 0.279864 -0.253370 0.926002
vn -0.486626 0.872567 0.042683
vn -0.424202 0.889942 0.167501
vn -0.522667 0.852275 0.021160
vn -0.570752 0.797247 0.196569
vn -0.170723 -0.963240 -0.207417
vn -0.385398 -0.921864 0.040444
vn 0.107022 -0.836281 -0.537754
vn -0.201794 -0.951089 -0.233901
vn -0.987460 0.153292 -0.037741
vn -0.923058 0.194047 0.332130
vn -0.990106 0.088244 -0.109099
vn -0.973715 0.059677 0.219814
vn 0.000513 0.651921 0.758287
vn 0.365838 0.576142 0.730906
vn -0.365304 0.572116 0.734327
vn 0.002355 0.435849 0.900017
vn -0.265704 -0.255108 0.929689
vn -0.169465 -0.702195 0.691522
vn -0.718092 0.079530 0.691389
vn -0.533571 -0.340993 0.773967
vn 0.447393 0.713569 -0.539127
vn 0.463703 0.783262 -0.414102
vn 0.470803 0.757239 -0.452696
vn 0.619376 0.662684 -0.420978
vn 0.637526 0.069338 -0.767302
vn 0.739421 0.193679 -0.644783
vn 0.249119 -0.822606 -0.511136
vn 0.759769 0.092205 -0.643622
vn -0.630458 0.656228 -0.414593
vn -0.475983 0.778404 -0.409300
vn -0.483346 0.751754 -0.448602
vn -0.460238 0.708878 -0.534484
vn -0.779474 0.120231 -0.614789
vn -0.747943 0.185996 -0.637171
vn -0.650972 0.001857 -0.759100
vn -0.711808 0.124006 -0.691341
vn -0.007120 0.608561 -0.793475
vn 0.349666 0.742631 -0.571167
vn -0.361781 0.738616 -0.568824
vn -0.007271 0.710106 -0.704057

f 1/1/1 2/2/1 3/3/1
f 1/1/2 3/3/2 4/4/2
f 2/2/3 5/5/3 6/6/3
f 2/2/4 6/6/4 3/3/4
f 4/4/5 3/3/5 7/7/5
f 7/7/6 3/3/6 8/8/6
f 8/8/7 6/6/7 9/9/7
f 8/8/8 3/3/8 6/6/8
f 10/10/9 8/8/9 9/9/9
f 11/11/10 12/12/10 10/10/10
f 9/9/11 13/13/11 11/11/11
f 14/14/12 8/8/12 15/15/12
f 8/8/13 14/14/13 7/7/13
f 16/16/14 15/15/14 8/8/14
f 17/17/15 4/18/15 18/19/15
f 4/18/16 17/17/16 19/20/16
f 20/21/17 19/22/17 17/23/17
f 19/22/18 20/21/18 21/24/18
f 7/25/19 18/19/19 4/18/19
f 17/17/20 18/19/20 22/26/20
f 22/26/21 23/27/21 17/17/21
f 17/23/22 23/28/22 20/21/22
f 20/29/23 23/27/23 22/26/23
f 24/30/24 14/31/24 25/32/24
f 14/31/25 24/30/25 26/33/25
f 27/34/26 26/35/26 24/36/26
f 26/35/27 27/34/27 15/37/27
f 15/38/28 25/32/28 14/31/28
f 27/39/29 25/32/29 15/38/29
f 28/40/30 25/32/30 29/41/30
f 25/32/31 28/40/31 24/30/31
f 30/42/32 24/36/32 28/43/32
f 24/36/33 30/42/33 27/34/33
f 29/41/34 27/39/34 30/44/34
f 27/39/35 29/41/35 25/32/35
f 29/41/36 31/45/36 28/40/36
f 28/43/37 31/46/37 30/42/37
f 30/44/38 31/45/38 29/41/38
f 32/47/39 8/48/39 33/49/39
f 8/48/40 32/47/40 16/50/40
f 34/51/41 16/52/41 32/53/41
f 16/52/42 34/51/42 35/54/42
f 33/49/43 35/55/43 34/56/43
f 35/55/44 33/49/44 8/48/44
f 36/57/45 33/49/45 37/58/45
f 33/49/46 36/57/46 32/47/46
f 38/59/47 32/53/47 36/60/47
f 32/53/48 38/59/48 34/51/48
f 37/58/49 34/56/49 38/61/49
f 34/56/50 37/58/50 33/49/50
f 37/58/51 39/62/51 36/57/51
f 36/60/52 39/63/52 38/59/52
f 38/61/53 39/62/53 37/58/53
f 40/64/54 9/65/54 41/66/54
f 9/65/55 40/64/55 10/67/55
f 42/68/56 10/69/56 40/70/56
f 10/69/57 42/68/57 11/71/57
f 41/66/58 11/72/58 42/73/58
f 11/72/59 41/66/59 9/65/59
f 43/74/60 41/66/60 44/75/60
f 41/66/61 43/74/61 40/64/61
f 45/76/62 40/70/62 43/77/62
f 40/70/63 45/76/63 42/68/63
f 44/75/64 42/73/64 45/78/64
f 42/73/65 44/75/65 41/66/65
f 44/75/66 46/79/66 43/74/66
f 43/77/67 46/80/67 45/76/67
f 45/78/68 46/79/68 44/75/68
f 5/5/69 47/81/69 6/6/69
f 6/6/70 13/13/70 9/9/70
f 8/8/71 10/10/71 35/82/71
f 16/16/72 35/82/72 48/83/72
f 10/10/73 48/83/73 35/82/73
f 12/12/74 48/83/74 10/10/74
f 16/16/75 48/83/75 15/15/75
f 15/15/76 48/83/76 26/84/76
f 48/83/77 49/85/77 26/84/77
f 20/29/78 22/26/78 18/19/78
f 20/86/79 7/87/79 21/88/79
f 20/29/80 18/19/80 7/25/80
f 14/14/81 21/89/81 7/7/81
f 49/90/82 19/91/82 21/92/82
f 19/93/83 49/85/83 48/83/83
f 26/84/84 49/85/84 14/14/84
f 50/94/85 51/95/85 21/96/85
f 21/96/86 14/97/86 50/94/86
f 51/95/87 52/98/87 49/99/87
f 49/99/88 21/96/88 51/95/88
f 52/100/89 50/101/89 14/102/89
f 14/102/90 49/103/90 52/100/90
f 53/104/91 54/105/91 51/95/91
f 51/95/92 50/94/92 53/104/92
f 54/105/93 55/106/93 52/98/93
f 52/98/94 51/95/94 54/105/94
f 55/107/95 53/108/95 50/101/95
f 50/101/96 52/100/96 55/107/96
f 56/109/97 57/110/97 54/105/97
f 54/105/98 53/104/98 56/109/98
f 57/110/99 58/111/99 55/106/99
f 55/106/100 54/105/100 57/110/100
f 58/112/101 56/113/101 53/108/101
f 53/108/102 55/107/102 58/112/102
f 57/114/103 56/113/103 58/112/103
f 1/1/104 59/115/104 2/2/104
f 1/1/105 4/4/105 59/115/105
f 2/2/106 60/116/106 5/5/106
f 2/2/107 59/115/107 60/116/107
f 4/4/108 61/117/108 59/115/108
f 61/117/109 62/118/109 59/115/109
f 62/118/110 63/119/110 60/116/110
f 62/118/111 60/116/111 59/115/111
f 64/120/112 63/119/112 62/118/112
f 65/121/113 64/120/113 12/122/113
f 63/119/114 65/121/114 66/123/114
f 67/124/115 68/125/115 62/118/115
f 62/118/116 61/117/116 67/124/116
f 69/126/117 62/118/117 68/125/117
f 70/127/118 71/128/118 4/129/118
f 4/129/119 19/130/119 70/127/119
f 72/131/120 70/132/120 19/133/120
f 19/133/121 73/134/121 72/131/121
f 61/135/122 4/129/122 71/128/122
f 70/127/123 74/136/123 71/128/123
f 74/136/124 70/127/124 75/137/124
f 70/132/125 72/131/125 75/138/125
f 72/139/126 74/136/126 75/137/126
f 76/140/127 77/141/127 67/142/127
f 67/142/128 78/143/128 76/140/128
f 79/144/129 76/145/129 78/146/129
f 78/146/130 68/147/130 79/144/130
f 68/148/131 67/142/131 77/141/131
f 79/149/132 68/148/132 77/141/132
f 80/150/133 81/151/133 77/141/133
f 77/141/134 76/140/134 80/150/134
f 82/152/135 80/153/135 76/145/135
f 76/145/136 79/144/136 82/152/136
f 81/151/137 82/154/137 79/149/137
f 79/149/138 77/141/138 81/151/138
f 81/151/139 80/150/139 83/155/139
f 80/153/140 82/152/140 83/156/140
f 82/154/141 81/151/141 83/155/141
f 84/157/142 85/158/142 62/159/142
f 62/159/143 69/160/143 84/157/143
f 86/161/144 84/162/144 69/163/144
f 69/163/145 87/164/145 86/161/145
f 85/158/146 86/165/146 87/166/146
f 87/166/147 62/159/147 85/158/147
f 88/167/148 89/168/148 85/158/148
f 85/158/149 84/157/149 88/167/149
f 90/169/150 88/170/150 84/162/150
f 84/162/151 86/161/151 90/169/151
f 89/168/152 90/171/152 86/165/152
f 86/165/153 85/158/153 89/168/153
f 89/168/154 88/167/154 91/172/154
f 88/170/155 90/169/155 91/173/155
f 90/171/156 89/168/156 91/172/156
f 92/174/157 93/175/157 63/176/157
f 63/176/158 64/177/158 92/174/158
f 94/178/159 92/179/159 64/180/159
f 64/180/160 65/181/160 94/178/160
f 93/175/161 94/182/161 65/183/161
f 65/183/162 63/176/162 93/175/162
f 95/184/163 96/185/163 93/175/163
f 93/175/164 92/174/164 95/184/164
f 97/186/165 95/187/165 92/179/165
f 92/179/166 94/178/166 97/186/166
f 96/185/167 97/188/167 94/182/167
f 94/182/168 93/175/168 96/185/168
f 96/185/169 95/184/169 98/189/169
f 95/187/170 97/186/170 98/190/170
f 97/188/171 96/185/171 98/189/171
f 5/5/172 60/116/172 99/191/172
f 60/116/173 63/119/173 66/123/173
f 62/118/174 87/192/174 64/120/174
f 69/126/175 48/193/175 87/192/175
f 64/120/176 87/192/176 48/193/176
f 12/122/177 64/120/177 48/193/177
f 69/126/178 68/125/178 48/193/178
f 68/125/179 78/194/179 48/193/179
f 48/193/180 78/194/180 100/195/180
f 72/139/181 71/128/181 74/136/181
f 72/86/182 73/88/182 61/87/182
f 72/139/183 61/135/183 71/128/183
f 67/124/184 61/117/184 73/196/184
f 100/195/185 73/196/185 19/197/185
f 19/197/186 48/193/186 100/195/186
f 78/194/187 67/124/187 100/195/187
f 101/198/188 73/199/188 102/200/188
f 73/199/189 101/198/189 67/201/189
f 102/200/190 100/202/190 103/203/190
f 100/202/191 102/200/191 73/199/191
f 103/204/192 67/205/192 101/206/192
f 67/205/193 103/204/193 100/207/193
f 104/208/194 102/200/194 105/209/194
f 102/200/195 104/208/195 101/198/195
f 105/209/196 103/203/196 106/210/196
f 103/203/197 105/209/197 102/200/197
f 106/211/198 101/206/198 104/212/198
f 101/206/199 106/211/199 103/204/199
f 107/213/200 105/209/200 108/214/200
f 105/209/201 107/213/201 104/208/201
f 108/214/202 106/210/202 109/215/202
f 106/210/203 108/214/203 105/209/203
f 109/216/204 104/212/204 107/217/204
f 104/212/205 109/216/205 106/211/205
f 108/218/206 109/216/206 107/217/206
f 13/13/207 110/219/207 11/11/207
f 110/219/207 12/12/207 11/11/207
f 47/81/208 111/220/208 6/6/208
f 111/220/209 13/13/209 6/6/209
f 110/221/210 13/222/210 112/223/210
f 112/223/211 113/224/211 110/221/211
f 12/225/212 110/221/212 113/224/212
f 113/224/213 112/223/213 114/226/213
f 115/227/214 116/228/214 5/5/214
f 116/228/214 47/81/214 5/5/214
f 12/122/215 117/229/215 65/121/215
f 117/229/215 66/123/215 65/121/215
f 66/123/216 118/230/216 60/116/216
f 118/230/217 99/191/217 60/116/217
f 119/231/218 66/232/218 117/233/218
f 117/233/219 120/234/219 119/231/219
f 121/235/220 119/231/220 120/234/220
f 120/234/221 117/233/221 12/236/221
f 99/191/222 122/237/222 5/5/222
f 122/237/222 115/227/222 5/5/222
f 123/238/223 124/239/223 125/240/223 126/241/223
f 127/242/224 123/238/224 126/241/224 128/243/224
f 126/241/225 125/240/225 129/244/225 130/245/225
f 128/243/226 126/241/226 130/245/226 131/246/226
f 132/247/227 133/248/227 134/249/227 135/250/227
f 136/251/228 132/247/228 135/250/228 137/252/228
f 135/250/229 134/249/229 12/225/229 113/224/229
f 137/252/230 135/250/230 113/224/230 114/226/230
f 138/253/231 136/251/231 137/252/231 139/254/231
f 124/239/232 138/253/232 139/254/232 125/240/232
f 139/254/233 137/252/233 114/226/233 140/255/233
f 125/240/234 139/254/234 140/255/234 129/244/234
f 132/247/235 136/251/235 138/253/235 141/256/235
f 133/248/236 132/247/236 141/256/236 142/257/236
f 141/256/237 138/253/237 124/239/237 143/258/237
f 142/257/238 141/256/238 143/258/238 144/259/238
f 128/243/239 131/246/239 145/260/239 146/261/239
f 127/242/240 128/243/240 146/261/240 147/262/240
f 146/261/241 145/260/241 148/263/241 149/264/241
f 147/262/242 146/261/242 149/264/242 150/265/242
f 151/266/243 121/235/243 120/234/243 152/267/243
f 153/268/244 151/266/244 152/267/244 154/269/244
f 152/267/245 120/234/245 12/236/245 134/270/245
f 154/269/246 152/267/246 134/270/246 133/271/246
f 149/264/247 148/263/247 155/272/247 156/273/247
f 150/265/248 149/264/248 156/273/248 157/274/248
f 156/273/249 155/272/249 121/235/249 151/266/249
f 157/274/250 156/273/250 151/266/250 153/268/250
f 123/238/251 127/242/251 147/262/251 158/275/251
f 124/239/252 123/238/252 158/275/252 143/258/252
f 158/275/253 147/262/253 150/265/253 159/276/253
f 143/258/254 158/275/254 159/276/254 144/259/254
f 142/277/255 144/259/255 159/276/255 160/278/255
f 133/271/256 142/277/256 160/278/256 154/269/256
f 160/278/257 159/276/257 150/265/257 157/274/257
f 154/269/258 160/278/258 157/274/258 153/268/258
f 130/245/259 129/244/259 161/279/259 162/280/259
f 131/246/260 130/245/260 162/280/260 163/281/260
f 162/280/261 161/279/261 47/282/261 164/283/261
f 163/281/262 162/280/262 164/283/262 165/284/262
f 140/255/263 114/226/263 112/223/263 166/285/263
f 129/244/264 140/255/264 166/285/264 161/279/264
f 166/285/265 112/223/265 13/222/265 111/286/265
f 161/279/266 166/285/266 111/286/266 47/282/266
f 163/281/267 165/284/267 167/287/267 168/288/267
f 131/246/268 163/281/268 168/288/268 145/260/268
f 168/288/269 167/287/269 99/289/269 169/290/269
f 145/260/270 168/288/270 169/290/270 148/263/270
f 169/290/271 99/289/271 118/291/271 170/292/271
f 148/263/272 169/290/272 170/292/272 155/272/272
f 170/292/273 118/291/273 66/232/273 119/231/273
f 155/272/274 170/292/274 119/231/274 121/235/274
f 116/293/275 115/294/275 122/295/275 171/296/275
f 47/282/276 116/293/276 171/296/276 164/283/276
f 171/296/277 122/295/277 99/289/277 167/287/277
f 164/283/278 171/296/278 167/287/278 165/284/278

