mtllib animateBarbarianAxe__000036.mtl

o fat
usemtl fat.001
s off

v -0.157950 37.530628 -2.513030
v 1.860240 37.156109 7.026690
v 0.413660 37.187222 2.339600
v 0.751320 59.282322 -7.859140
v 11.471430 64.517822 -1.561690
v 3.121370 55.514458 -6.429010
v -0.141630 51.295162 -4.478640
v 9.799690 61.169811 0.802560
v 7.751930 57.260368 -0.231410
v 6.920580 51.488708 -0.044960
v 4.350690 51.181511 -4.278860
v 6.745740 56.317741 -5.402790
v 9.061010 34.290920 4.543300
v 9.683300 38.813000 -0.764510
v 10.769120 38.218342 -1.350350
v 6.672680 36.257378 5.139040
v 3.993900 35.907063 8.004780
v 4.557730 38.760250 -6.097450
v 4.051440 39.254200 -4.692280
v 0.746030 38.036671 -3.629580
v -0.330160 34.050392 -1.855000
v 0.526680 64.941429 -7.740250
v 0.787580 66.932190 -7.815470
v -0.290080 58.637310 6.327850
v 4.711900 58.671322 6.295350
v 5.745750 62.904949 7.782710
v 6.883160 63.871990 3.238100
v 5.350780 65.671204 6.654420
v 9.413920 66.167725 6.230070
v 4.266600 51.697048 4.735450
v 0.816350 51.462612 5.832540
v -0.158200 64.242172 7.638560
v 6.204990 69.775063 -2.954890
v 12.742410 65.939606 0.234460
v 11.557220 67.161301 3.647300
v 1.877810 70.097252 4.124620
v 5.464100 71.109665 0.722610
v -0.916440 69.291870 4.139440
v 2.591820 75.511765 0.855480
v 3.793350 73.066757 -1.791280
v 0.808430 73.190094 -3.443090
v 0.260780 76.142059 -0.663870
v 1.090310 71.042488 -5.982620
v 0.310620 47.146729 6.242980
v 5.364230 47.124401 5.637480
v 8.418850 46.624863 0.472170
v 4.993240 45.882813 -4.695600
v -0.106500 45.777031 -5.398490
v 10.211361 65.613060 6.382860
v 12.435511 62.674030 -0.464580
v 12.338440 66.257637 4.614180
v 13.420549 65.239410 1.706390
v 8.524630 63.044510 6.800820
v 1.875310 75.050369 6.343540
v 0.279580 73.569061 7.933130
v 1.761930 70.711914 5.166730
v 0.898060 69.676697 6.943020
v -0.179190 72.212265 7.839930
v 0.768650 75.534584 7.753020
v -1.038400 75.411949 7.814010
v 2.782750 76.334526 3.697000
v -0.363030 79.411362 7.939290
v -1.684470 79.368561 8.058840
v 0.758810 76.816902 8.356330
v 1.433830 78.657860 7.373110
v 0.635610 80.702454 5.304610
v -0.969050 80.696175 4.922840
v -0.685530 73.586250 8.348880
v -1.685660 76.163849 8.014090
v -1.961570 74.161011 9.200279
v -1.826040 73.565536 8.592979
v -1.841410 71.983681 8.636120
v -0.392010 69.237778 8.413440
v -1.849570 69.214180 8.745580
v 2.636240 78.672791 3.665180
v 2.226040 79.904343 3.029310
v -0.209530 80.134232 1.562720
v 12.270121 65.024338 7.216690
v 14.182560 64.946320 4.172920
v 8.900960 55.510971 3.127310
v 8.465200 58.549530 6.501090
v 13.654250 61.599579 0.989150
v 8.827740 52.477608 6.585470
v 10.461330 48.488041 10.581670
v 7.041980 49.986160 9.828450
v 11.640369 50.939781 7.813340
v 12.740601 53.559097 8.808220
v 11.325570 50.517540 12.477421
v 11.283489 54.646648 9.844030
v 9.547421 52.866932 13.201550
v 8.600230 53.852112 9.669460
v 6.964990 53.120110 12.006721
v 12.411539 52.747532 5.734360
v 12.177530 51.897141 6.670270
v 14.715790 57.381012 5.978840
v 12.486160 59.174507 7.684340
v 8.877851 55.208038 8.554220
v 13.259760 54.060410 3.425380
v 6.765890 45.642097 16.060291
v 5.141050 46.594360 15.844211
v 7.620811 46.469151 17.069859
v 6.707160 48.045357 17.573580
v 5.192140 48.368092 16.983650
v 1.874900 47.977638 20.983299
v 1.866960 47.103161 20.692720
v 3.045770 46.991539 20.125092
v 3.739960 47.657131 20.220890
v 4.436150 46.560989 21.311510
v 2.432980 48.266701 18.588680
v 2.987710 48.244598 19.870560
v 1.044160 47.874260 20.269339
v 0.971260 47.291599 21.921070
v 0.420870 47.205711 21.288422
v 3.136680 45.437706 22.739880
v 5.138090 42.628330 18.512230
v 4.346180 41.617569 20.008080
v 3.028150 40.673450 22.441271
v 2.327130 45.846630 21.821571
v 5.010460 42.090130 20.677399
v 6.076060 43.089752 19.383600
v 1.150530 44.095768 24.211390
v 3.050300 26.484320 -4.881890
v 5.899290 23.628981 -13.845550
v 3.549520 20.036440 -9.993690
v 8.923491 27.367352 -6.025750
v 10.854530 21.618250 -11.099319
v 5.357200 29.097290 -7.968270
v 7.020280 23.340530 -4.435870
v 7.571210 18.466850 -7.421140
v 6.979210 24.722250 -2.817570
v 7.250190 26.821781 -2.029160
v 10.057581 30.950319 -4.919650
v 7.381110 30.452099 1.684030
v 9.479860 13.057660 -17.606440
v 10.509230 10.715940 -19.222071
v 7.379160 12.338000 -20.637190
v 8.451230 10.123219 -16.153111
v 5.931700 12.395950 -17.151711
v 5.593430 9.674140 -18.776381
v 6.329180 8.040520 -23.254570
v 9.375230 8.703040 -23.518009
v 7.120840 4.110010 -15.770281
v 13.119070 5.487050 -16.165319
v 10.093170 5.323260 -11.752810
v 12.669410 3.759170 -12.327661
v 8.833250 2.731390 -11.381101
v -8.426790 66.823547 -6.947760
v -1.537910 55.482670 -6.832300
v -9.366640 61.372116 -4.397320
v -7.200700 57.159801 -1.421380
v -4.803420 51.323326 -3.114350
v -6.447380 51.345840 1.531930
v -5.414840 56.234909 -6.337220
v -9.372250 38.698563 0.795820
v -7.712800 40.987839 7.094310
v -10.531210 37.964569 0.784840
v -5.322600 41.604610 5.929530
v -5.297300 34.682011 -3.555450
v -4.671330 36.849430 -3.618600
v -1.228450 36.809349 -3.193630
v -5.177510 58.604851 5.567770
v -5.686410 62.828941 7.536580
v -10.538840 61.774940 1.981070
v -5.569260 65.596306 6.164630
v -10.648360 64.940178 0.780170
v -2.732640 51.348419 5.753250
v -10.389030 67.642220 -6.186700
v -4.211940 69.734337 -5.391510
v -11.375721 67.031067 -2.029110
v -3.344370 70.070351 2.813260
v -5.074350 71.109909 -1.544480
v -2.490910 75.519325 -0.203580
v -2.413930 73.061707 -3.288860
v -3.837170 46.744709 6.503090
v -7.974770 46.410271 1.897630
v -5.576800 45.927246 -3.700200
v -12.003480 64.274017 -1.029550
v -9.850590 64.855316 -8.241860
v -12.544980 66.252968 -3.170190
v -11.710770 66.423531 -6.237400
v -10.207260 61.192699 -1.067180
v -3.441390 73.582222 7.089840
v -4.185910 75.071823 4.969870
v -4.005540 70.724785 3.545690
v -3.519210 69.687897 5.974940
v -2.964300 72.221764 7.215540
v -2.188460 75.416023 7.553391
v -3.791790 75.550697 6.719460
v -3.855060 76.358009 2.192650
v -2.824930 79.420074 7.381330
v -4.034390 76.833862 7.270040
v -4.207160 78.677811 6.094670
v -2.581440 80.713837 4.575540
v -2.749720 73.593552 7.881060
v -2.999590 69.245583 7.835500
v -3.693420 78.695175 2.230690
v -3.040890 79.922981 1.835640
v -13.705420 63.846813 -2.823020
v -13.659520 65.463936 -6.056100
v -9.963680 57.937298 -6.660320
v -7.205290 59.246067 -9.939430
v -11.184530 63.891888 -9.003200
v -10.505070 51.209961 -15.604020
v -8.655790 54.937622 -11.669120
v -8.822750 50.517441 -12.258830
v -10.715509 54.837807 -14.429340
v -12.947281 55.879852 -12.764210
v -13.245749 51.191376 -14.631391
v -13.161530 54.770691 -10.969171
v -13.884069 50.701569 -11.705721
v -11.765730 50.252529 -9.841630
v -11.147710 53.144699 -10.133261
v -10.341681 57.650291 -13.626990
v -10.544710 56.454330 -14.008189
v -13.548909 60.739471 -11.084761
v -13.653670 59.211739 -8.065870
v -10.698370 55.752159 -9.229900
v -9.876170 60.465923 -13.397810
v -11.012720 44.038319 -15.592509
v -10.376169 43.719257 -13.838440
v -12.568470 44.120869 -15.480730
v -13.110810 43.893501 -13.636189
v -11.992360 43.644329 -12.489890
v -12.050131 38.581539 -11.539330
v -12.640730 38.729969 -10.848121
v -12.289090 39.599880 -12.331200
v -13.047810 40.190220 -12.216550
v -13.716210 39.333481 -13.522671
v -12.632140 40.265709 -11.291660
v -11.437989 40.893204 -10.928989
v -11.625280 38.748051 -10.424260
v -12.462930 37.269020 -10.863020
v -11.672740 37.387558 -10.594701
v -13.455091 37.119789 -13.654060
v -10.585320 38.218948 -17.406691
v -10.458179 40.151218 -17.059891
v -11.084270 35.333920 -17.394239
v -12.537431 37.503899 -12.831670
v -11.637020 38.293751 -17.434740
v -11.801569 40.227341 -17.263269
v -12.731780 34.403870 -13.548280
v -5.900860 21.386520 3.218170
v -3.312950 28.180941 9.477750
v -3.662830 20.341270 8.346400
v -10.953341 20.915001 6.684320
v -9.145590 28.115789 7.910130
v -5.532670 28.387110 5.639930
v -7.318140 26.096640 11.433149
v -7.742400 20.247681 11.176510
v -7.294820 27.997610 11.839460
v -6.884440 30.447750 11.099840
v -10.327589 31.410429 6.769050
v -6.409790 36.426849 8.764570
v -9.922170 7.685420 2.970000
v -9.010139 10.329680 4.150650
v -6.796760 9.044380 1.314300
v -7.968530 7.950150 6.133360
v -5.019510 7.007880 3.809280
v -5.462190 9.880320 4.811290
v -5.468670 4.317160 -0.109130
v -8.523610 4.738500 -0.629280
v -6.430590 2.123240 7.861710
v -12.461250 2.762860 6.698160
v -9.617820 2.557850 10.976020
v -12.105470 0.878570 10.339260
v -8.276960 0.028610 11.474410

vt 0.550479 0.485338
vt 0.414517 0.485338
vt 0.489174 0.497239
vt 0.490853 0.675485
vt 0.356970 0.710738
vt 0.458986 0.602657
vt 0.458693 0.603155
vt 0.491001 0.506534
vt 0.357039 0.710738
vt 0.272881 0.708251
vt 0.307767 0.663467
vt 0.329118 0.504113
vt 0.420682 0.504388
vt 0.307693 0.663467
vt 0.420389 0.504181
vt 0.390374 0.619683
vt 0.389206 0.622726
vt 0.390855 0.620128
vt 0.309151 0.663075
vt 0.578845 0.971377
vt 0.529882 0.993867
vt 0.501054 0.950636
vt 0.597833 0.993868
vt 0.684209 0.993870
vt 0.691613 0.940228
vt 0.584242 0.936155
vt 0.602549 0.993867
vt 0.689094 0.993870
vt 0.694409 0.971380
vt 0.730001 0.975635
vt 0.490853 0.781888
vt 0.490853 0.820915
vt 0.240556 0.660920
vt 0.133663 0.660928
vt 0.131880 0.753091
vt 0.060606 0.782384
vt 0.055577 0.663688
vt 0.136145 0.808744
vt 0.060014 0.783494
vt 0.058190 0.859642
vt 0.160773 0.512959
vt 0.067037 0.515196
vt 0.240700 0.512959
vt 0.131877 0.752996
vt 0.240556 0.781375
vt 0.390182 0.870896
vt 0.298691 0.847983
vt 0.294173 0.886121
vt 0.181129 0.899551
vt 0.052544 0.886601
vt 0.145152 0.921474
vt 0.235241 0.891030
vt 0.142740 0.921054
vt 0.172936 0.966074
vt 0.456563 0.999059
vt 0.389917 0.922986
vt 0.429989 0.941889
vt 0.491140 0.942697
vt 0.490646 0.999330
vt 0.490853 0.898039
vt 0.701416 0.118225
vt 0.813217 0.120956
vt 0.790107 0.184348
vt 0.877923 0.002315
vt 0.872775 0.120438
vt 0.505869 0.118716
vt 0.564263 0.119120
vt 0.507564 0.183764
vt 0.697589 0.180917
vt 0.580429 0.182675
vt 0.710756 0.001536
vt 0.701372 0.182427
vt 0.812168 0.002315
vt 0.857243 0.184348
vt 0.697567 0.116528
vt 0.503935 0.000692
vt 0.561277 0.000692
vt 0.688827 -0.000098
vt 0.002866 0.854679
vt 0.027518 0.706813
vt 0.061197 0.782654
vt 0.055608 0.663958
vt 0.251604 0.781884
vt 0.357109 0.710738
vt 0.243886 0.876138
vt 0.247300 0.848527
vt -0.000514 0.880403
vt 0.006948 0.782948
vt 0.674684 0.829607
vt 0.705811 0.784366
vt 0.654033 0.662928
vt 0.703232 0.671848
vt 0.720473 0.730776
vt 0.697736 0.853617
vt 0.729837 0.853035
vt 0.623758 0.856571
vt 0.587609 0.811448
vt 0.658187 0.605708
vt 0.748523 0.593788
vt 0.716351 0.931575
vt 0.747491 0.935506
vt 0.695349 0.885675
vt 0.676247 0.904603
vt 0.649719 0.961956
vt 0.745560 1.001324
vt 0.725611 0.781438
vt 0.747491 0.878462
vt 0.747491 0.808438
vt 0.720379 0.731031
vt 0.747491 0.790807
vt 0.720762 0.730332
vt 0.748639 0.732530
vt 0.746944 0.628012
vt 0.703659 0.671442
vt 0.731857 0.666086
vt 0.747085 0.666819
vt 0.703186 0.671176
vt 0.611291 0.885598
vt 0.604148 0.909350
vt 0.550618 0.823662
vt 0.550618 0.934468
vt 0.625864 0.557513
vt 0.571978 0.557920
vt 0.578607 0.510287
vt 0.669444 0.510287
vt 0.756032 0.560223
vt 0.679695 0.557918
vt 0.877240 0.461159
vt 0.992418 0.461159
vt 0.944262 0.560223
vt 0.756457 0.510287
vt 0.806202 0.560223
vt 0.498275 0.560223
vt 0.875566 0.382888
vt 0.758260 0.308662
vt 0.875912 0.308662
vt 0.759996 0.360654
vt 0.669163 0.382888
vt 0.671223 0.308662
vt 0.584325 0.382888
vt 0.577057 0.308662
vt 0.498223 0.363687
vt 0.498247 0.308662
vt 0.992597 0.308662
vt 0.992439 0.363687
vt 0.759483 0.410364
vt 0.758924 0.382888
vt 0.665903 0.461159
vt 0.580075 0.461159
vt 0.498223 0.402657
vt 0.992438 0.402657
vt 0.760539 0.449273
vt 0.498220 0.461159
vt 0.875438 0.575163
vt 0.762705 0.196431
vt 0.858161 0.196355
vt 0.690657 0.196417
vt 0.588027 0.196417
vt 0.498144 0.196431
vt 0.991918 0.196431
vt 0.375723 0.009258
vt 0.380090 0.017573
vt 0.356438 0.030356
vt 0.342839 0.029458
vt 0.369327 0.043627
vt 0.316032 0.012201
vt 0.336848 0.019568
vt 0.249292 0.041099
vt 0.371147 0.002582
vt 0.416197 0.004791
vt 0.408124 0.000758
vt 0.128136 0.016613
vt 0.154876 0.002573
vt 0.119423 0.002194
vt 0.160447 0.001473
vt 0.065726 0.014292
vt 0.105093 0.028910
vt 0.000825 0.069213
vt 0.000703 0.039244
vt 0.249314 0.055441
vt 0.429228 0.045736
vt 0.102506 0.115410
vt 0.153549 0.117195
vt 0.189513 0.114692
vt 0.228429 0.109580
vt 0.194639 0.033982
vt 0.406548 0.108121
vt 0.355355 0.108206
vt 0.448349 0.035630
vt 0.498209 0.039288
vt 0.461840 0.047992
vt 0.483032 0.114221
vt 0.406174 0.120334
vt 0.355217 0.119080
vt 0.243215 0.037501
vt 0.249314 0.089732
vt 0.000703 0.095058
vt 0.249292 0.105039
vt 0.160984 0.032072
vt 0.413806 0.033644
vt 0.442212 0.108407
vt 0.443088 0.117732
vt 0.023914 0.327327
vt 0.104127 0.227894
vt 0.000784 0.227894
vt 0.216171 0.327327
vt 0.216985 0.228421
vt 0.105699 0.228145
vt 0.104981 0.327662
vt 0.217575 0.327327
vt 0.351490 0.301452
vt 0.217290 0.227894
vt 0.351571 0.227894
vt 0.352420 0.301452
vt 0.489174 0.227894
vt 0.352342 0.227894
vt 0.471690 0.333380
vt 0.351597 0.328057
vt 0.217345 0.328075
vt 0.352312 0.363299
vt 0.470864 0.334174
vt 0.352330 0.328057
vt 0.216660 0.380224
vt 0.216104 0.328075
vt 0.104983 0.328371
vt 0.217232 0.380224
vt 0.351611 0.363299
vt 0.351459 0.420971
vt 0.352499 0.420971
vt 0.351589 0.497239
vt 0.229465 0.497239
vt 0.352627 0.497239
vt 0.229583 0.497239
vt 0.133020 0.497239
vt 0.072972 0.497239
vt 0.025422 0.328212
vt 0.002386 0.497239
vt 0.216130 0.152222
vt 0.223982 0.125749
vt 0.105883 0.155747
vt 0.351732 0.147623
vt 0.223132 0.128232
vt 0.218721 0.149411
vt 0.469070 0.149411
vt 0.483427 0.127273
vt 0.352306 0.146326
vt 0.017963 0.152222
vt 0.104256 0.155747
vt 0.009616 0.131504
vt 0.104128 0.227914
vt 0.000790 0.227921
vt 0.216984 0.228396
vt 0.351571 0.227971
vt 0.217291 0.227882
vt 0.352342 0.227879
vt 0.489111 0.227891
vt 0.948232 0.041698
vt 0.989968 0.003451
vt 0.971575 0.059997
vt 0.909211 0.004273
vt 0.996004 0.120663
vt 0.925604 0.058708
vt 0.885225 0.122889
vt 0.516483 0.798440
vt 0.501430 0.685191
vt 0.597947 0.686709
vt 0.594444 0.793024
vt 0.950876 0.082499
vt 0.943924 0.157220
vt 0.507177 0.624822
vt 0.600053 0.622523
vt 0.901715 0.182549
vt 0.982420 0.184037
vt 0.730212 0.975635
vt 0.685579 0.991654
vt 0.692830 0.969164

vn 0.316813 -0.942765 -0.104036
vn 0.508902 -0.006618 -0.860799
vn -0.054347 -0.384035 -0.921718
vn 0.888035 -0.459230 -0.022393
vn 0.850998 -0.138938 -0.506457
vn 0.028888 -0.437736 -0.898639
vn 0.325660 -0.344527 -0.880481
vn 0.880125 -0.466862 -0.086146
vn 0.190493 0.324255 -0.926591
vn 0.894221 -0.437597 -0.094223
vn -0.609492 -0.566776 -0.554332
vn -0.606713 -0.568574 -0.555538
vn -0.587459 -0.527591 -0.613628
vn -0.319143 -0.893623 0.315573
vn -0.242819 -0.939229 0.242668
vn 0.495614 0.238042 0.835286
vn 0.430896 -0.791472 0.433474
vn 0.967251 -0.253195 0.017825
vn 0.486464 -0.096565 -0.868348
vn 0.008392 -0.333272 0.942793
vn 0.891000 -0.113589 0.439565
vn 0.156751 -0.843135 0.514347
vn 0.007827 -0.218741 0.975752
vn 0.859539 -0.163204 0.484311
vn 0.304133 -0.018851 0.952443
vn -0.074771 -0.225403 0.971392
vn 0.578167 0.389132 -0.717146
vn 0.492357 0.037813 -0.869572
vn 0.940910 -0.290766 0.173617
vn 0.542294 0.832976 -0.109856
vn 0.064671 0.384783 0.920739
vn 0.531373 0.324984 -0.782322
vn 0.925945 0.248281 0.284573
vn 0.027102 0.511995 0.858561
vn 0.266587 0.804526 0.530726
vn -0.000874 0.569471 0.822011
vn -0.116894 0.422107 0.898978
vn 0.586299 0.360653 0.725385
vn 0.828969 0.544715 -0.126869
vn 0.536659 0.629051 -0.562399
vn 0.336885 0.762900 -0.551808
vn 0.272563 0.805038 0.526900
vn 0.591408 0.788861 -0.167137
vn 0.795260 0.603414 -0.058767
vn 0.513507 0.594836 -0.618450
vn 0.352002 0.733601 -0.581313
vn 0.540017 0.309278 -0.782770
vn 0.117028 0.219172 0.968642
vn 0.858705 0.132764 0.494975
vn 0.805866 0.188565 -0.561269
vn 0.046388 0.083912 -0.995393
vn 0.117602 0.191284 0.974464
vn 0.299127 0.055541 0.952596
vn 0.887385 0.221127 0.404538
vn 0.832242 0.305550 0.462615
vn 0.841616 0.291687 0.454535
vn 0.841424 0.143020 -0.521105
vn 0.131358 0.163816 -0.977706
vn 0.763073 0.333378 -0.553696
vn 0.609477 0.117062 -0.784113
vn 0.130471 0.183777 -0.974271
vn -0.491374 -0.243326 -0.836267
vn 0.582649 0.099061 0.806664
vn 0.381617 0.711270 0.590308
vn 0.338023 -0.402108 0.850911
vn 0.794036 0.054967 -0.605381
vn -0.467385 -0.464821 0.751992
vn 0.735962 0.676002 0.037163
vn 0.225741 0.796027 0.561589
vn 0.908930 0.003828 -0.416931
vn 0.718084 0.695957 0.000241
vn -0.090704 -0.543844 -0.834270
vn -0.625300 -0.772790 0.108607
vn -0.709879 0.539789 0.452437
vn 0.774271 -0.184443 0.605381
vn 0.344264 -0.179706 0.921514
vn 0.027896 0.084334 0.996047
vn 0.955102 -0.100555 0.278692
vn 0.989104 -0.145178 -0.024424
vn 0.974405 -0.128737 0.184284
vn 0.240270 -0.824175 0.512842
vn 0.082217 0.192725 0.977802
vn 0.857985 -0.041133 0.512025
vn 0.942681 0.020304 0.333077
vn -0.100359 0.907948 0.406889
vn 0.378805 0.326877 0.865828
vn 0.606264 0.329260 0.723901
vn 0.622569 0.333513 0.707939
vn 0.385359 -0.192296 0.902508
vn 0.206108 -0.272205 0.939906
vn 0.005554 0.920409 0.390918
vn -0.135027 -0.013782 0.990746
vn 0.164211 -0.685768 0.709054
vn 0.429613 0.020444 0.902782
vn 0.522419 -0.822406 -0.225228
vn 0.892590 0.027351 0.450039
vn 0.012942 -0.999815 -0.014242
vn 0.411294 0.144109 0.900039
vn 0.738077 0.076445 0.670372
vn 0.274534 -0.960484 -0.045842
vn 0.221438 0.037861 0.974439
vn 0.994541 0.061165 -0.084537
vn 0.952050 0.195670 -0.235190
vn 0.697179 -0.300812 0.650733
vn 0.059307 -0.424599 0.903437
vn 0.757696 -0.129929 0.639543
vn -0.053372 -0.299445 0.952620
vn 0.464495 0.712882 0.525399
vn 0.949230 0.063669 0.308073
vn 0.858118 0.430386 0.280004
vn 0.739557 0.599109 0.306797
vn 0.402134 0.312232 0.860697
vn 0.573843 0.401133 -0.714000
vn 0.487802 0.468344 -0.736684
vn 0.167902 0.977774 -0.125569
vn 0.065124 0.954973 -0.289458
vn 0.890898 -0.114121 0.439632
vn 0.083701 0.899643 0.428528
vn 0.946523 -0.105380 -0.304941
vn 0.565459 0.821163 -0.077119
vn -0.988664 0.022964 -0.148376
vn 0.596591 0.719060 0.356416
vn 0.828881 0.311319 -0.464797
vn 0.115165 -0.750244 -0.651053
vn -0.273095 0.326577 0.904857
vn -0.175454 -0.731651 -0.658714
vn -0.097756 -0.724000 -0.682838
vn 0.916249 -0.398901 0.036950
vn 0.914161 -0.405001 0.016825
vn 0.708086 0.384810 0.592060
vn 0.728017 0.373894 0.574626
vn -0.033995 0.960280 0.276961
vn -0.287770 0.899734 0.328127
vn -0.821659 0.311559 -0.477291
vn -0.906752 0.356206 -0.225649
vn -0.099848 -0.746965 -0.657323
vn -0.107855 -0.722228 -0.683194
vn 0.956320 -0.291208 -0.025490
vn 0.894710 -0.446105 0.022001
vn 0.682430 0.173057 0.710170
vn 0.654502 0.176782 0.735102
vn -0.238364 0.645563 0.725556
vn -0.991516 -0.129478 -0.011449
vn 0.087894 -0.390441 -0.916422
vn -0.231306 -0.806775 -0.543702
vn 0.891442 -0.447182 0.073211
vn 0.981796 0.024231 -0.188389
vn 0.834560 0.182876 0.519678
vn 0.647361 0.084464 0.757489
vn -0.075936 -0.065342 0.994969
vn -0.291060 0.065553 0.954456
vn -0.972198 0.061595 -0.225913
vn 0.907508 -0.412086 0.081331
vn -0.110577 -0.735742 -0.668174
vn -0.987395 0.104092 -0.119233
vn -0.326620 0.476178 0.816439
vn -0.999783 0.020588 -0.003108
vn -0.315644 0.468147 0.825353
vn 0.931382 -0.155154 -0.329325
vn -0.036618 -0.305546 -0.951473
vn -0.369998 -0.754370 -0.542244
vn -0.224002 -0.794828 -0.563978
vn 0.659579 -0.749582 0.055519
vn 0.823586 -0.532687 0.194811
vn 0.632079 0.252599 0.732578
vn 0.709967 0.195305 0.676611
vn -0.121788 0.705143 0.698528
vn -0.219396 0.743487 0.631737
vn -0.966712 0.129593 -0.220619
vn -0.963421 0.163939 -0.212001
vn 0.392083 -0.293294 0.871923
vn -0.508892 0.422835 0.749826
vn -0.021333 0.999422 0.026463
vn -0.186242 0.979649 0.074849
vn -0.153028 0.984713 0.083201
vn -0.363913 0.883305 0.295531
vn -0.452643 0.846985 0.278803
vn 0.674399 0.176858 0.716873
vn 0.775501 -0.205419 0.596994
vn -0.316064 -0.693011 -0.647950
vn -0.010922 -0.989541 0.143840
vn -0.423911 -0.739465 -0.522964
vn -0.326457 -0.787228 -0.523161
vn -0.692236 -0.666398 -0.276988
vn -0.451330 0.491471 -0.744820
vn 0.147852 0.976838 0.154685
vn -0.171760 0.844258 0.507668
vn -0.811669 -0.184342 -0.554266
vn -0.835485 -0.175592 -0.520704
vn 0.739844 -0.000384 0.672779
vn 0.768805 0.008066 0.639433
vn -0.174268 0.833271 0.524681
vn 0.621294 -0.063107 0.781032
vn 0.665292 -0.732774 -0.142930
vn 0.557158 -0.812977 -0.169240
vn -0.825896 -0.176080 -0.535622
vn 0.773902 0.264735 0.575319
vn -0.874400 -0.270379 -0.402890
vn -0.211789 -0.545401 -0.810977
vn 0.807694 -0.536551 -0.244425
vn -0.298798 0.176650 0.937824
vn 0.799352 0.044849 0.599187
vn 0.661628 -0.654720 -0.365500
vn 0.362320 0.773797 0.519579
vn 0.372159 0.762680 0.528977
vn -0.849050 -0.194763 -0.491102
vn -0.149121 0.847770 0.508968
vn 0.687490 -0.061016 0.723626
vn 0.580609 -0.814181 -0.001408
vn -0.909700 0.212442 -0.356810
vn 0.553136 0.647928 -0.523669
vn 0.585356 0.619805 -0.522685
vn 0.830378 -0.184941 0.525614
vn 0.815944 -0.232096 0.529497
vn -0.598608 -0.466528 0.651169
vn -0.514273 -0.556891 0.652224
vn 0.904393 -0.312905 0.290109
vn -0.532897 -0.236331 0.812507
vn 0.513136 0.100717 -0.852377
vn 0.872779 -0.373330 0.314453
vn 0.872147 -0.364847 0.325955
vn -0.389695 -0.651606 0.650805
vn 0.905465 -0.246584 0.345440
vn -0.562742 -0.635659 0.528450
vn -0.868605 0.320265 -0.378095
vn 0.904957 -0.130584 0.404970
vn -0.414129 -0.502300 0.759074
vn 0.920465 -0.147456 0.361940
vn 0.542622 0.412511 -0.731707
vn 0.420102 0.327036 -0.846500
vn -0.376194 0.240260 -0.894848
vn -0.763343 -0.082809 -0.640664
vn -0.486445 -0.567857 0.664010
vn -0.979104 -0.186508 -0.081058
vn 0.566647 0.621957 -0.540445
vn 0.831937 -0.016945 0.554611
vn -0.602080 -0.352735 0.716294
vn -0.870721 0.327304 -0.367039
vn 0.686378 0.438804 -0.579945
vn -0.917275 0.110009 -0.382759
vn -0.894306 0.123962 -0.429942
vn 0.565244 0.439752 -0.697938
vn 0.825539 -0.419507 0.377491
vn 0.941089 -0.192036 0.278340
vn -0.687608 -0.558320 0.464192
vn -0.573454 -0.648175 0.501018
vn -0.876319 0.388002 -0.285518
vn -0.189033 0.544067 -0.817470
vn -0.955653 -0.290008 -0.051217
vn 0.903147 0.244450 -0.352944
vn 0.168735 -0.868629 -0.465845
vn 0.148188 -0.869024 -0.472058
vn 0.602295 0.605037 0.520741
vn 0.564092 0.680457 -0.467738
vn -0.679684 0.195387 0.707003
vn 0.628361 0.631456 0.454341
vn -0.815039 0.214587 0.538204
vn 0.146685 -0.908297 -0.391766
vn 0.186194 -0.914259 -0.359808
vn 0.539386 0.742362 0.397443
vn 0.232850 0.026231 0.972159
vn -0.779607 0.442524 0.443154
vn -0.064972 -0.981389 -0.180704
vn -0.208184 -0.136319 -0.968544
vn 0.272725 -0.400693 -0.874681
vn 0.293817 -0.446151 -0.845353
vn -0.905605 -0.279418 -0.319070
vn -0.240225 -0.535266 -0.809804
vn -0.210406 -0.554508 -0.805140
vn -0.918558 -0.277516 -0.281489
vn -0.144736 -0.097942 -0.984611
vn -0.914457 -0.295362 -0.276641
vn 0.526648 -0.834038 0.164389
vn 0.349539 -0.906362 0.237339
vn -0.209503 -0.618442 -0.757389
vn 0.324405 -0.524015 0.787509
vn 0.640519 -0.163122 0.750418
vn -0.263152 0.350440 0.898857
vn -0.121521 0.063958 0.990526
vn -0.942291 -0.165629 0.290956
vn -0.093428 -0.025364 -0.995303
vn -0.135794 -0.431936 0.891623
vn -0.633761 -0.700416 0.328275
vn -0.722506 0.223254 0.654326
vn -0.153444 -0.026450 0.987803
vn -0.730571 -0.229711 0.643039
vn -0.019966 -0.071922 0.997210
vn 0.040450 -0.228425 0.972721
vn -0.084513 0.562211 -0.822664
vn -0.084487 0.017577 -0.996270
vn -0.659132 -0.381477 0.648090
vn -0.327225 0.942978 0.060958
vn -0.130059 0.444811 0.886131
vn -0.084123 0.561813 -0.822976
vn -0.742376 0.322550 0.587230
vn -0.590152 0.651044 0.477350
vn -0.465729 0.647879 0.602785
vn -0.084839 0.558868 0.824905
vn -0.194343 0.648169 0.736280
vn -0.833753 0.361601 0.417254
vn -0.701111 0.549106 -0.454891
vn -0.265040 0.634447 -0.726106
vn -0.060888 0.779987 -0.622827
vn -0.598510 0.692488 0.402799
vn -0.479381 0.786787 -0.388793
vn -0.695525 0.612846 -0.375052
vn -0.234359 0.606668 -0.759625
vn -0.061270 0.758770 -0.648471
vn -0.200593 0.411270 -0.889168
vn 0.047445 0.149478 0.987626
vn -0.741723 0.138034 0.656349
vn -0.883667 0.243859 -0.399583
vn -0.277195 0.142884 -0.950130
vn 0.045341 0.169183 0.984541
vn -0.025368 0.097589 0.994904
vn -0.820964 0.562661 0.097114
vn -0.725673 0.271417 0.632243
vn -0.721532 0.276501 0.634775
vn -0.928926 0.168910 -0.329494
vn -0.288983 0.155622 -0.944601
vn -0.862806 0.313425 -0.396649
vn -0.647694 -0.025900 -0.761460
vn -0.296931 -0.019669 -0.954696
vn 0.278304 -0.282689 -0.917951
vn -0.025502 0.119103 0.992554
vn -0.806306 0.355096 0.473052
vn -0.844830 -0.520854 -0.122366
vn -0.070584 0.583160 -0.809285
vn -0.818014 0.179081 0.546611
vn -0.492567 0.866034 -0.085810
vn -0.763211 0.366668 0.532037
vn -0.418125 0.485427 -0.767810
vn -0.675854 0.735176 -0.052326
vn 0.844882 -0.339195 -0.413668
vn 0.847314 -0.497042 0.187106
vn -0.863914 -0.503634 0.002226
vn -0.960154 -0.122185 0.251345
vn -0.702585 -0.182844 0.687708
vn -0.454032 0.086042 0.886821
vn -0.992860 -0.002123 -0.119263
vn -0.880123 -0.116900 -0.460128
vn -0.788982 -0.123489 -0.601879
vn -0.448706 -0.828445 0.335175
vn -0.494440 0.194774 0.847108
vn -0.995155 -0.034576 0.092041
vn -0.994012 0.027155 -0.105840
vn -0.078753 0.907870 0.411790
vn -0.712861 0.330730 0.618423
vn -0.856878 0.334430 0.392323
vn -0.864685 0.338772 0.370882
vn -0.736489 -0.198526 0.646662
vn -0.592164 -0.274868 0.757489
vn -0.167354 0.921020 0.351732
vn -0.305389 -0.013180 0.952136
vn -0.458464 -0.683563 0.567937
vn -0.782268 0.024574 0.622457
vn -0.351220 -0.884460 -0.307206
vn -0.982613 -0.032688 0.182765
vn -0.012021 -0.999741 -0.019298
vn -0.765245 0.139962 0.628339
vn -0.956285 0.070462 0.283821
vn -0.254984 -0.954333 -0.155667
vn -0.619668 0.032818 0.784177
vn -0.856705 0.067570 -0.511361
vn -0.752018 0.197315 -0.628916
vn -0.911609 -0.295125 0.286131
vn -0.445868 -0.422817 0.788941
vn -0.960239 -0.123849 0.250205
vn -0.364547 -0.298323 0.882105
vn -0.640813 0.716789 0.274905
vn -0.988850 0.070522 -0.131157
vn -0.892073 0.436577 -0.116645
vn -0.795516 0.604537 -0.041099
vn -0.731793 0.316248 0.603710
vn -0.236194 0.383872 -0.892667
vn -0.119430 0.472844 -0.873015
vn -0.090776 0.978689 -0.184194
vn 0.072449 0.954949 -0.287789
vn -0.961288 0.015200 0.275127
vn -0.705594 0.422386 0.568970
vn -0.344598 0.557050 -0.755610
vn -0.445983 0.892166 -0.071688
vn 0.720203 -0.585504 0.372148
vn -0.867840 0.449178 0.212349
vn -0.218311 0.772993 -0.595670
vn 0.672991 -0.504007 -0.541351
vn -0.626741 -0.373702 0.683771
vn 0.895207 0.025546 -0.444918
vn 0.774931 0.234940 -0.586758
vn -0.506580 0.238862 -0.828445
vn -0.313129 0.368521 -0.875296
vn -0.994011 0.088703 -0.063835
vn -0.963215 0.202924 -0.176179
vn -0.620729 0.208843 0.755698
vn -0.439083 -0.083950 0.894516
vn 0.636753 -0.058542 0.768842
vn 0.585857 -0.128873 0.800102
vn 0.760788 0.004414 -0.648985
vn 0.794662 0.057717 -0.604302
vn -0.495224 0.339027 -0.799884
vn -0.449053 0.241684 -0.860198
vn -0.992132 -0.094418 -0.082209
vn -0.990903 -0.023140 -0.132572
vn -0.510014 -0.201799 0.836160
vn 0.699246 -0.630754 0.336459
vn 0.763545 0.643752 0.050819
vn 0.775716 -0.077272 -0.626333
vn -0.518293 0.154158 -0.841194
vn -0.338657 0.682012 -0.648206
vn -0.999842 -0.005415 -0.016904
vn -0.999512 0.017854 -0.025650
vn -0.671384 -0.652856 0.350745
vn -0.454914 -0.669410 0.587318
vn 0.923939 0.290510 0.248880
vn -0.492724 0.267769 -0.827964
vn 0.798162 0.071510 -0.598184
vn 0.659717 -0.344993 0.667648
vn -0.329897 -0.541895 0.772993
vn 0.596882 -0.463788 0.654701
vn -0.457217 -0.608729 0.648384
vn -0.351088 0.684906 -0.638468
vn 0.692429 0.654333 -0.303958
vn 0.924607 -0.127907 -0.358805
vn 0.886248 -0.063470 -0.458841
vn -0.071482 0.003459 -0.997436
vn -0.333843 0.080838 -0.939156
vn -0.972494 -0.066333 -0.223282
vn -0.958077 -0.027964 -0.285143
vn -0.718406 -0.264079 0.643549
vn -0.668575 -0.256762 0.697912
vn 0.619923 -0.310116 0.720780
vn 0.617691 -0.309164 0.723101
vn -0.695335 -0.535708 -0.479089
vn -0.410717 -0.651693 0.637658
vn -0.443516 0.373011 0.814958
vn -0.377319 0.243194 0.893581
vn -0.401646 0.256183 0.879233
vn -0.383740 -0.056101 0.921736
vn -0.305094 -0.107897 0.946190
vn -0.960041 -0.072680 -0.270257
vn -0.766528 -0.086799 -0.636318
vn 0.933790 0.012230 -0.357611
vn 0.343970 -0.513320 -0.786249
vn 0.930246 -0.159025 -0.330687
vn 0.894777 -0.123663 -0.429047
vn 0.883446 -0.453427 -0.118012
vn 0.543246 0.494445 0.678534
vn -0.626161 0.363247 0.689908
vn -0.623078 -0.119376 0.772997
vn 0.930182 -0.123261 0.345787
vn 0.916984 -0.157007 0.366728
vn -0.888785 -0.078033 -0.451633
vn -0.886274 -0.034465 -0.461877
vn -0.628494 -0.137567 0.765553
vn -0.867406 -0.247815 -0.431502
vn 0.038630 0.174058 -0.983977
vn 0.154483 0.100313 -0.982890
vn 0.921904 -0.141193 0.360774
vn -0.956335 0.120334 -0.266350
vn 0.899969 -0.303363 0.313091
vn 0.925334 0.242147 -0.291756
vn -0.043810 0.408722 -0.911607
vn -0.553666 -0.772142 0.311851
vn -0.892660 0.030068 -0.449726
vn 0.159529 0.368489 -0.915842
vn -0.907681 0.136665 0.396785
vn -0.914747 0.130959 0.382214
vn 0.912885 -0.193931 0.359209
vn -0.638556 -0.106336 0.762193
vn -0.866927 -0.168318 -0.469156
vn 0.026041 -0.008815 -0.999622
vn 0.917618 0.016357 -0.397128
vn -0.561326 0.273867 -0.780968
vn -0.523234 0.303052 -0.796483
vn -0.849277 0.125929 0.512709
vn -0.810758 0.033166 0.584441
vn 0.569493 -0.077217 0.818362
vn 0.494250 -0.145736 0.857017
vn -0.902738 -0.079298 0.422818
vn 0.496465 0.173594 0.850522
vn -0.456067 -0.432919 -0.777550
vn -0.788424 -0.071244 0.610992
vn -0.711690 0.303874 0.633370
vn 0.535028 0.270168 0.800471
vn -0.867612 0.271141 0.416812
vn 0.507552 -0.186045 0.841296
vn 0.861764 0.124781 -0.491724
vn -0.816036 0.399869 0.417362
vn 0.647146 0.257092 0.717708
vn -0.788516 0.448371 0.420958
vn -0.707147 -0.390443 -0.589490
vn -0.522707 -0.604493 -0.601137
vn 0.073975 -0.739528 -0.669048
vn 0.596019 -0.705934 -0.382648
vn 0.635932 0.300318 0.710914
vn 0.832197 -0.512358 -0.211983
vn -0.564838 0.490962 -0.663260
vn -0.851509 0.061180 0.520759
vn 0.569122 -0.191254 0.799701
vn 0.874828 0.274147 -0.399398
vn -0.743792 0.154313 -0.650355
vn 0.935250 -0.013321 -0.353738
vn 0.914745 -0.020991 -0.403487
vn -0.569120 0.091124 -0.817189
vn -0.801138 -0.274378 0.531879
vn -0.931686 -0.123036 0.341795
vn 0.618465 -0.307868 0.722993
vn 0.539077 -0.351397 0.765451
vn 0.874210 0.347665 -0.338949
vn 0.202806 0.334136 -0.920447
vn 0.970057 -0.237298 0.051752
vn -0.887632 0.121367 -0.444274
vn -0.046900 -0.957837 -0.283457
vn -0.085470 -0.957930 -0.273978
vn -0.682428 0.631189 0.368636
vn -0.565301 0.516884 -0.642858
vn 0.645174 0.368765 0.669150
vn -0.646313 0.609729 0.458814
vn 0.675050 0.367862 0.639520
vn -0.062769 -0.888862 -0.453856
vn 0.004576 -0.866111 -0.499830
vn -0.579295 0.699442 0.418567
vn -0.275130 0.043395 0.960427
vn 0.650796 0.463512 0.601350
vn -0.540283 -0.827173 0.154528

f 1/1/1 2/2/1 3/3/1
f 4/4/2 5/5/2 6/6/2
f 4/4/3 6/7/3 7/8/3
f 5/9/4 8/10/4 9/11/4
f 10/12/5 11/13/5 9/14/5
f 6/6/6 11/15/6 7/8/6
f 6/6/7 12/16/7 11/13/7
f 12/17/8 5/5/8 9/14/8
f 6/6/9 5/5/9 12/17/9
f 11/13/10 12/18/10 9/19/10
f 13/20/11 14/21/11 15/22/11
f 14/21/12 13/20/12 16/23/12
f 16/24/13 13/20/13 17/25/13
f 15/22/14 14/21/14 18/26/14
f 14/21/15 19/27/15 18/26/15
f 18/26/16 20/28/16 21/29/16
f 18/26/17 19/27/17 20/28/17
f 20/28/18 3/30/18 21/29/18
f 5/9/19 22/31/19 23/32/19
f 24/33/20 25/34/20 26/35/20
f 27/36/21 25/34/21 9/37/21
f 28/38/22 27/39/22 29/40/22
f 30/41/23 25/34/23 24/33/23
f 25/34/24 30/41/24 10/42/24
f 30/41/25 24/33/25 31/43/25
f 24/33/26 26/44/26 32/45/26
f 33/46/27 34/47/27 5/9/27
f 4/4/28 22/31/28 5/9/28
f 26/35/29 25/34/29 27/39/29
f 33/46/30 35/48/30 34/47/30
f 32/45/31 26/35/31 28/38/31
f 23/32/32 33/46/32 5/9/32
f 26/35/33 27/39/33 28/38/33
f 28/38/34 29/40/34 36/49/34
f 35/50/35 37/51/35 29/40/35
f 28/38/36 38/52/36 32/45/36
f 36/49/37 38/52/37 28/38/37
f 36/49/38 37/53/38 39/54/38
f 39/55/39 37/56/39 40/57/39
f 41/58/40 42/59/40 39/55/40
f 39/55/41 40/57/41 41/58/41
f 36/49/42 29/40/42 37/51/42
f 37/56/43 35/48/43 33/46/43
f 37/56/44 33/46/44 40/57/44
f 40/57/45 33/46/45 43/60/45
f 40/57/46 43/60/46 41/58/46
f 33/46/47 23/32/47 43/60/47
f 44/61/48 45/62/48 30/63/48
f 15/64/49 46/65/49 45/62/49
f 46/66/50 47/67/50 10/68/50
f 47/67/51 7/69/51 11/70/51
f 45/62/52 44/61/52 17/71/52
f 44/61/53 30/63/53 31/72/53
f 13/73/54 15/64/54 45/62/54
f 46/65/55 10/74/55 45/62/55
f 45/62/56 10/74/56 30/63/56
f 47/67/57 11/70/57 10/68/57
f 47/67/58 48/75/58 7/69/58
f 46/66/59 15/76/59 47/67/59
f 18/77/60 47/67/60 15/76/60
f 47/67/61 18/77/61 48/75/61
f 18/77/62 21/78/62 48/75/62
f 13/73/63 45/62/63 17/71/63
f 49/79/64 35/50/64 29/40/64
f 8/80/65 27/81/65 9/82/65
f 34/47/66 50/83/66 5/84/66
f 27/36/67 49/79/67 29/40/67
f 35/48/68 51/85/68 52/86/68
f 35/50/69 49/79/69 51/87/69
f 52/86/70 50/83/70 34/47/70
f 35/48/71 52/86/71 34/47/71
f 5/84/72 50/83/72 8/10/72
f 53/88/73 27/81/73 8/80/73
f 53/88/74 49/79/74 27/36/74
f 54/89/75 55/90/75 56/91/75
f 57/92/76 55/90/76 58/93/76
f 59/94/77 60/95/77 55/90/77
f 61/96/78 54/89/78 56/91/78
f 39/97/79 61/96/79 36/98/79
f 36/98/80 61/96/80 56/91/80
f 36/98/81 56/91/81 38/99/81
f 62/100/82 63/101/82 64/102/82
f 65/103/83 64/102/83 54/89/83
f 61/96/84 65/103/84 54/89/84
f 66/104/85 67/105/85 62/100/85
f 55/90/86 60/95/86 68/106/86
f 69/107/87 68/106/87 60/95/87
f 69/107/88 70/108/88 68/106/88
f 58/109/89 55/90/89 68/106/89
f 68/106/90 71/110/90 58/111/90
f 62/100/91 67/105/91 63/101/91
f 64/102/92 63/101/92 69/107/92
f 70/108/93 71/110/93 68/106/93
f 58/111/94 71/110/94 72/112/94
f 56/91/95 57/92/95 38/113/95
f 55/90/96 57/114/96 56/91/96
f 73/115/97 74/116/97 38/113/97
f 58/109/98 72/112/98 73/115/98
f 57/117/99 58/111/99 73/115/99
f 57/92/100 73/115/100 38/113/100
f 73/115/101 72/112/101 74/116/101
f 39/97/102 75/118/102 61/96/102
f 75/118/103 39/97/103 76/119/103
f 64/102/104 59/94/104 54/89/104
f 64/102/105 60/95/105 59/94/105
f 54/89/106 59/94/106 55/90/106
f 64/102/107 69/107/107 60/95/107
f 65/103/108 66/104/108 62/100/108
f 65/103/109 61/96/109 75/118/109
f 75/118/110 76/119/110 65/103/110
f 66/104/111 65/103/111 76/119/111
f 62/100/112 64/102/112 65/103/112
f 39/97/113 42/120/113 76/119/113
f 77/121/114 76/119/114 42/120/114
f 67/105/115 76/119/115 77/121/115
f 66/104/116 76/119/116 67/105/116
f 9/82/117 25/34/117 10/42/117
f 51/122/118 49/123/118 78/124/118
f 79/125/119 50/126/119 52/127/119
f 52/127/120 51/122/120 79/125/120
f 80/128/121 81/129/121 53/130/121
f 51/122/122 78/124/122 79/125/122
f 82/131/123 50/126/123 79/125/123
f 50/126/124 82/131/124 8/132/124
f 53/133/125 78/124/125 49/123/125
f 83/134/126 84/135/126 85/136/126
f 84/135/127 83/134/127 86/137/127
f 86/137/128 87/138/128 84/135/128
f 88/139/129 84/135/129 87/138/129
f 87/138/130 89/140/130 88/139/130
f 90/141/131 88/139/131 89/140/131
f 91/142/132 92/143/132 90/141/132
f 90/141/133 89/140/133 91/142/133
f 85/136/134 92/144/134 91/145/134
f 91/145/135 83/134/135 85/136/135
f 80/128/136 93/146/136 83/134/136
f 94/147/137 83/134/137 93/146/137
f 93/146/138 87/138/138 94/147/138
f 87/138/139 93/146/139 95/148/139
f 95/148/140 96/149/140 87/138/140
f 89/140/141 87/138/141 96/149/141
f 97/150/142 91/142/142 89/140/142
f 97/151/143 81/129/143 80/128/143
f 8/132/144 82/131/144 80/128/144
f 93/146/145 80/128/145 98/152/145
f 98/152/146 95/148/146 93/146/146
f 95/148/147 82/131/147 79/125/147
f 79/125/148 78/124/148 95/148/148
f 96/149/149 95/148/149 78/124/149
f 78/124/150 53/133/150 81/153/150
f 81/153/151 96/149/151 78/124/151
f 80/128/152 53/130/152 8/154/152
f 94/147/153 87/138/153 86/137/153
f 86/137/154 83/134/154 94/147/154
f 97/151/155 83/134/155 91/145/155
f 89/140/156 96/149/156 97/150/156
f 80/128/157 83/134/157 97/151/157
f 81/153/158 97/150/158 96/149/158
f 82/131/159 95/148/159 98/152/159
f 98/152/160 80/128/160 82/131/160
f 85/136/161 99/155/161 100/156/161
f 99/155/162 85/136/162 84/135/162
f 84/135/163 101/157/163 99/155/163
f 101/157/164 84/135/164 88/139/164
f 88/139/165 90/141/165 101/157/165
f 102/158/166 101/157/166 90/141/166
f 90/141/167 103/159/167 102/158/167
f 103/159/168 90/141/168 92/143/168
f 92/144/169 85/136/169 103/160/169
f 100/156/170 103/160/170 85/136/170
f 104/161/171 105/162/171 106/163/171
f 107/164/172 106/163/172 108/165/172
f 109/166/173 110/167/173 103/168/173
f 109/166/174 111/169/174 104/161/174
f 104/161/175 110/167/175 109/166/175
f 104/161/176 111/169/176 112/170/176
f 113/171/177 112/170/177 111/169/177
f 106/163/178 110/167/178 104/161/178
f 104/161/179 112/170/179 105/162/179
f 105/172/180 113/173/180 111/174/180
f 113/173/181 105/172/181 112/175/181
f 105/172/182 111/174/182 109/176/182
f 109/176/183 106/177/183 105/172/183
f 109/176/184 100/178/184 106/177/184
f 103/179/185 100/178/185 109/176/185
f 102/180/186 103/168/186 110/167/186
f 106/163/187 114/181/187 108/165/187
f 115/182/188 116/183/188 106/177/188
f 116/184/189 117/185/189 118/186/189
f 108/165/190 114/181/190 119/187/190
f 119/187/191 120/188/191 108/165/191
f 118/189/192 121/190/192 114/191/192
f 114/191/193 121/190/193 117/192/193
f 116/193/194 115/194/194 119/187/194
f 120/188/195 119/187/195 115/194/195
f 121/195/196 118/186/196 117/185/196
f 108/165/197 101/196/197 102/180/197
f 115/182/198 106/177/198 100/178/198
f 100/178/199 99/197/199 115/182/199
f 120/188/200 99/198/200 101/196/200
f 106/163/201 107/164/201 110/167/201
f 108/165/202 120/188/202 101/196/202
f 120/188/203 115/194/203 99/198/203
f 107/164/204 102/180/204 110/167/204
f 102/180/205 107/164/205 108/165/205
f 118/199/206 106/177/206 116/183/206
f 114/181/207 106/163/207 118/200/207
f 114/191/208 117/192/208 119/201/208
f 117/192/209 116/202/209 119/201/209
f 122/203/210 123/204/210 124/205/210
f 125/206/211 126/207/211 123/208/211
f 125/206/212 123/208/212 127/209/212
f 125/210/213 128/211/213 126/212/213
f 128/211/214 129/213/214 126/212/214
f 128/214/215 124/215/215 129/216/215
f 122/217/216 124/215/216 128/214/216
f 130/218/217 128/211/217 125/219/217
f 131/220/218 122/221/218 130/222/218
f 132/223/219 125/224/219 127/225/219
f 132/226/220 131/227/220 125/219/220
f 133/228/221 131/227/221 132/226/221
f 133/229/222 122/221/222 131/220/222
f 130/218/223 125/219/223 131/227/223
f 128/214/224 130/222/224 122/221/224
f 127/209/225 123/204/225 122/203/225
f 16/230/226 133/228/226 14/231/226
f 16/232/227 3/3/227 133/229/227
f 14/231/228 133/228/228 132/226/228
f 14/233/229 132/223/229 19/234/229
f 132/223/230 127/225/230 19/234/230
f 20/235/231 19/234/231 127/225/231
f 20/235/232 127/225/232 122/236/232
f 3/3/233 122/221/233 133/229/233
f 3/237/234 20/235/234 122/236/234
f 134/238/235 135/239/235 136/240/235
f 137/241/236 135/242/236 134/243/236
f 138/244/237 139/245/237 137/246/237
f 138/247/238 136/248/238 139/249/238
f 134/238/239 136/240/239 123/208/239
f 138/247/240 123/250/240 136/248/240
f 123/250/241 138/247/241 124/251/241
f 134/238/242 123/208/242 126/252/242
f 129/253/243 134/243/243 126/254/243
f 137/241/244 134/243/244 129/253/244
f 138/244/245 137/246/245 129/255/245
f 138/244/246 129/255/246 124/256/246
f 136/257/247 140/258/247 139/259/247
f 136/257/248 141/260/248 140/258/248
f 142/261/249 139/259/249 140/258/249
f 135/262/250 143/263/250 141/260/250
f 141/264/251 143/265/251 142/266/251
f 142/266/252 140/267/252 141/264/252
f 137/268/253 143/263/253 135/262/253
f 135/262/254 141/260/254 136/257/254
f 139/259/255 142/261/255 137/268/255
f 137/268/256 144/269/256 143/263/256
f 137/268/257 142/261/257 144/269/257
f 143/265/258 145/270/258 146/271/258
f 146/271/259 142/266/259 143/265/259
f 143/263/260 144/269/260 145/272/260
f 144/269/261 146/273/261 145/272/261
f 146/273/262 144/269/262 142/261/262
f 3/274/263 16/275/263 17/276/263
f 147/5/264 4/4/264 148/6/264
f 148/7/265 4/4/265 7/8/265
f 149/10/266 147/9/266 150/11/266
f 151/13/267 152/12/267 150/14/267
f 151/15/268 148/6/268 7/8/268
f 153/16/269 148/6/269 151/13/269
f 147/5/270 153/17/270 150/14/270
f 147/5/271 148/6/271 153/17/271
f 153/18/272 151/13/272 150/19/272
f 154/21/273 155/20/273 156/22/273
f 155/20/274 154/21/274 157/23/274
f 155/20/275 157/24/275 17/25/275
f 154/21/276 156/22/276 158/26/276
f 159/27/277 154/21/277 158/26/277
f 160/28/278 158/26/278 21/29/278
f 159/27/279 158/26/279 160/28/279
f 3/30/280 160/28/280 21/29/280
f 22/31/281 147/9/281 23/32/281
f 161/34/282 24/33/282 162/35/282
f 161/34/283 163/36/283 150/37/283
f 163/39/284 164/38/284 165/40/284
f 161/34/285 166/41/285 24/33/285
f 166/41/286 161/34/286 152/42/286
f 24/33/287 166/41/287 31/43/287
f 162/44/288 24/33/288 32/45/288
f 167/47/289 168/46/289 147/9/289
f 22/31/290 4/4/290 147/9/290
f 161/34/291 162/35/291 163/39/291
f 169/48/292 168/46/292 167/47/292
f 162/35/293 32/45/293 164/38/293
f 168/46/294 23/32/294 147/9/294
f 163/39/295 162/35/295 164/38/295
f 165/40/296 164/38/296 170/49/296
f 171/51/297 169/50/297 165/40/297
f 38/52/298 164/38/298 32/45/298
f 38/52/299 170/49/299 164/38/299
f 171/53/300 170/49/300 172/54/300
f 171/56/301 172/55/301 173/57/301
f 42/59/302 41/58/302 172/55/302
f 173/57/303 172/55/303 41/58/303
f 165/40/304 170/49/304 171/51/304
f 169/48/305 171/56/305 168/46/305
f 168/46/306 171/56/306 173/57/306
f 168/46/307 173/57/307 43/60/307
f 43/60/308 173/57/308 41/58/308
f 23/32/309 168/46/309 43/60/309
f 174/62/310 44/61/310 166/63/310
f 175/65/311 156/64/311 174/62/311
f 176/67/312 175/66/312 152/68/312
f 7/69/313 176/67/313 151/70/313
f 44/61/314 174/62/314 17/71/314
f 166/63/315 44/61/315 31/72/315
f 156/64/316 155/73/316 174/62/316
f 152/74/317 175/65/317 174/62/317
f 152/74/318 174/62/318 166/63/318
f 151/70/319 176/67/319 152/68/319
f 48/75/320 176/67/320 7/69/320
f 156/76/321 175/66/321 176/67/321
f 176/67/322 158/77/322 156/76/322
f 158/77/323 176/67/323 48/75/323
f 21/78/324 158/77/324 48/75/324
f 174/62/325 155/73/325 17/71/325
f 169/50/326 177/79/326 165/40/326
f 163/81/327 149/80/327 150/82/327
f 178/83/328 167/47/328 147/84/328
f 177/79/329 163/36/329 165/40/329
f 179/85/330 169/48/330 180/86/330
f 177/79/331 169/50/331 179/87/331
f 178/83/332 180/86/332 167/47/332
f 180/86/333 169/48/333 167/47/333
f 178/83/334 147/84/334 149/10/334
f 163/81/335 181/88/335 149/80/335
f 177/79/336 181/88/336 163/36/336
f 182/90/337 183/89/337 184/91/337
f 182/90/338 185/92/338 186/93/338
f 187/95/339 188/94/339 182/90/339
f 183/89/340 189/96/340 184/91/340
f 189/96/341 172/97/341 170/98/341
f 189/96/342 170/98/342 184/91/342
f 184/91/343 170/98/343 38/99/343
f 63/101/344 190/100/344 191/102/344
f 191/102/345 192/103/345 183/89/345
f 192/103/346 189/96/346 183/89/346
f 67/105/347 193/104/347 190/100/347
f 187/95/348 182/90/348 194/106/348
f 194/106/349 69/107/349 187/95/349
f 70/108/350 69/107/350 194/106/350
f 182/90/351 186/109/351 194/106/351
f 71/110/352 194/106/352 186/111/352
f 67/105/353 190/100/353 63/101/353
f 63/101/354 191/102/354 69/107/354
f 71/110/355 70/108/355 194/106/355
f 71/110/356 186/111/356 72/112/356
f 185/92/357 184/91/357 38/113/357
f 185/114/358 182/90/358 184/91/358
f 74/116/359 195/115/359 38/113/359
f 72/112/360 186/109/360 195/115/360
f 186/111/361 185/117/361 195/115/361
f 195/115/362 185/92/362 38/113/362
f 72/112/363 195/115/363 74/116/363
f 196/118/364 172/97/364 189/96/364
f 172/97/365 196/118/365 197/119/365
f 188/94/366 191/102/366 183/89/366
f 187/95/367 191/102/367 188/94/367
f 188/94/368 183/89/368 182/90/368
f 69/107/369 191/102/369 187/95/369
f 193/104/370 192/103/370 190/100/370
f 189/96/371 192/103/371 196/118/371
f 197/119/372 196/118/372 192/103/372
f 192/103/373 193/104/373 197/119/373
f 191/102/374 190/100/374 192/103/374
f 42/120/375 172/97/375 197/119/375
f 197/119/376 77/121/376 42/120/376
f 197/119/377 67/105/377 77/121/377
f 197/119/378 193/104/378 67/105/378
f 161/34/379 150/82/379 152/42/379
f 177/123/380 179/122/380 198/124/380
f 178/126/381 199/125/381 180/127/381
f 179/122/382 180/127/382 199/125/382
f 200/129/383 201/128/383 181/130/383
f 198/124/384 179/122/384 199/125/384
f 178/126/385 202/131/385 199/125/385
f 202/131/386 178/126/386 149/132/386
f 198/124/387 181/133/387 177/123/387
f 203/135/388 204/134/388 205/136/388
f 204/134/389 203/135/389 206/137/389
f 207/138/390 206/137/390 203/135/390
f 203/135/391 208/139/391 207/138/391
f 209/140/392 207/138/392 208/139/392
f 208/139/393 210/141/393 209/140/393
f 211/143/394 212/142/394 210/141/394
f 209/140/395 210/141/395 212/142/395
f 211/144/396 205/136/396 212/145/396
f 204/134/397 212/145/397 205/136/397
f 213/146/398 201/128/398 204/134/398
f 204/134/399 214/147/399 213/146/399
f 207/138/400 213/146/400 214/147/400
f 213/146/401 207/138/401 215/148/401
f 216/149/402 215/148/402 207/138/402
f 207/138/403 209/140/403 216/149/403
f 212/142/404 217/150/404 209/140/404
f 200/129/405 217/151/405 201/128/405
f 202/131/406 149/132/406 201/128/406
f 201/128/407 213/146/407 218/152/407
f 215/148/408 218/152/408 213/146/408
f 202/131/409 215/148/409 199/125/409
f 198/124/410 199/125/410 215/148/410
f 215/148/411 216/149/411 198/124/411
f 181/133/412 198/124/412 200/153/412
f 216/149/413 200/153/413 198/124/413
f 181/130/414 201/128/414 149/154/414
f 207/138/415 214/147/415 206/137/415
f 204/134/416 206/137/416 214/147/416
f 204/134/417 217/151/417 212/145/417
f 216/149/418 209/140/418 217/150/418
f 204/134/419 201/128/419 217/151/419
f 217/150/420 200/153/420 216/149/420
f 215/148/421 202/131/421 218/152/421
f 201/128/422 218/152/422 202/131/422
f 219/155/423 205/136/423 220/156/423
f 205/136/424 219/155/424 203/135/424
f 221/157/425 203/135/425 219/155/425
f 203/135/426 221/157/426 208/139/426
f 210/141/427 208/139/427 221/157/427
f 221/157/428 222/158/428 210/141/428
f 223/159/429 210/141/429 222/158/429
f 210/141/430 223/159/430 211/143/430
f 205/136/431 211/144/431 223/160/431
f 223/160/432 220/156/432 205/136/432
f 224/162/433 225/161/433 226/163/433
f 226/163/434 227/164/434 228/165/434
f 229/167/435 230/166/435 223/168/435
f 231/169/436 230/166/436 225/161/436
f 229/167/437 225/161/437 230/166/437
f 231/169/438 225/161/438 232/170/438
f 232/170/439 233/171/439 231/169/439
f 229/167/440 226/163/440 225/161/440
f 232/170/441 225/161/441 224/162/441
f 233/173/442 224/172/442 231/174/442
f 224/172/443 233/173/443 232/175/443
f 231/174/444 224/172/444 230/176/444
f 226/177/445 230/176/445 224/172/445
f 220/178/446 230/176/446 226/177/446
f 220/178/447 223/179/447 230/176/447
f 223/168/448 222/180/448 229/167/448
f 234/181/449 226/163/449 228/165/449
f 235/183/450 236/182/450 226/177/450
f 237/185/451 235/184/451 238/186/451
f 234/181/452 228/165/452 239/187/452
f 240/188/453 239/187/453 228/165/453
f 241/190/454 238/189/454 234/191/454
f 241/190/455 234/191/455 237/192/455
f 236/194/456 235/193/456 239/187/456
f 239/187/457 240/188/457 236/194/457
f 238/186/458 241/195/458 237/185/458
f 221/196/459 228/165/459 222/180/459
f 226/177/460 236/182/460 220/178/460
f 219/197/461 220/178/461 236/182/461
f 219/198/462 240/188/462 221/196/462
f 227/164/463 226/163/463 229/167/463
f 240/188/464 228/165/464 221/196/464
f 236/194/465 240/188/465 219/198/465
f 222/180/466 227/164/466 229/167/466
f 227/164/467 222/180/467 228/165/467
f 226/177/468 238/199/468 235/183/468
f 226/163/469 234/181/469 238/200/469
f 237/192/470 234/191/470 239/201/470
f 235/202/471 237/192/471 239/201/471
f 242/204/472 243/203/472 244/205/472
f 245/207/473 246/206/473 242/208/473
f 242/208/474 246/206/474 247/209/474
f 248/211/475 246/210/475 245/212/475
f 249/213/476 248/211/476 245/212/476
f 244/215/477 248/214/477 249/216/477
f 244/215/478 243/217/478 248/214/478
f 248/211/479 250/218/479 246/219/479
f 243/221/480 251/220/480 250/222/480
f 246/224/481 252/223/481 247/225/481
f 251/227/482 252/226/482 246/219/482
f 251/227/483 253/228/483 252/226/483
f 243/221/484 253/229/484 251/220/484
f 246/219/485 250/218/485 251/227/485
f 250/222/486 248/214/486 243/221/486
f 242/204/487 247/209/487 243/203/487
f 253/228/488 157/230/488 154/231/488
f 3/3/489 157/232/489 253/229/489
f 253/228/490 154/231/490 252/226/490
f 252/223/491 154/233/491 159/234/491
f 247/225/492 252/223/492 159/234/492
f 159/234/493 160/235/493 247/225/493
f 247/225/494 160/235/494 243/236/494
f 243/221/495 3/3/495 253/229/495
f 160/235/496 3/237/496 243/236/496
f 254/239/497 255/238/497 256/240/497
f 254/242/498 257/241/498 255/243/498
f 258/245/499 259/244/499 257/246/499
f 256/248/500 259/247/500 258/249/500
f 256/240/501 255/238/501 242/208/501
f 242/250/502 259/247/502 256/248/502
f 259/247/503 242/250/503 244/251/503
f 242/208/504 255/238/504 245/252/504
f 255/243/505 249/253/505 245/254/505
f 255/243/506 257/241/506 249/253/506
f 257/246/507 259/244/507 249/255/507
f 249/255/508 259/244/508 244/256/508
f 260/258/509 256/257/509 258/259/509
f 261/260/510 256/257/510 260/258/510
f 258/259/511 262/261/511 260/258/511
f 263/263/512 254/262/512 261/260/512
f 263/265/513 261/264/513 262/266/513
f 260/267/514 262/266/514 261/264/514
f 263/263/515 257/268/515 254/262/515
f 261/260/516 254/262/516 256/257/516
f 262/261/517 258/259/517 257/268/517
f 264/269/518 257/268/518 263/263/518
f 262/261/519 257/268/519 264/269/519
f 265/270/520 263/265/520 266/271/520
f 262/266/521 266/271/521 263/265/521
f 264/269/522 263/263/522 265/272/522
f 266/273/523 264/269/523 265/272/523
f 264/269/524 266/273/524 262/261/524
f 157/275/525 3/274/525 17/276/525

o 
usemtl axe.001
s off

v -20.586960 38.628510 26.817829
v -19.342991 36.834549 19.828190
v -23.807981 30.746920 27.568140
v -22.868631 31.447830 24.436661
v -24.185230 28.717762 27.000790
v -23.245890 29.418680 23.869301
v -23.727951 21.733961 22.094181
v -21.308750 26.261261 16.871941
v -22.418539 37.261829 32.923759
v -25.559530 20.367290 28.200109
v -24.837740 32.734539 38.146000
v -24.747332 30.046009 30.699631
v -25.124580 28.016851 30.132278
v -26.803501 22.161240 35.189739
v -21.021910 30.978949 24.885658
v -21.961260 30.278038 28.017149
v -21.399170 28.949799 24.318321
v -22.338509 28.248880 27.449800
v -22.900600 29.577129 31.148628
v -23.277859 27.547970 30.581291
v -13.495081 38.442089 -6.811870
v -13.872330 36.412941 -7.379210
v -12.025610 35.944057 -6.930200
v -11.648350 37.973209 -6.362860
v -25.990700 27.320980 37.234871
v -4.099040 43.705490 -39.960339
v -2.252310 43.236610 -39.511330
v -1.875050 45.265770 -38.943989
v -3.721780 45.734638 -39.393002

vt 0.033358 0.643728
vt 0.190411 0.923560
vt 0.402692 0.503812
vt 0.402692 0.647326
vt 0.408249 0.287497
vt 0.408249 0.367848
vt 0.492649 0.287497
vt 0.492649 0.367848
vt 0.403043 0.503812
vt 0.403044 0.647326
vt 0.033710 0.643728
vt 0.190763 0.923560
vt 0.033358 0.363896
vt 0.033710 0.363896
vt 0.190411 0.084064
vt 0.402692 0.360297
vt 0.408249 0.207147
vt 0.492649 0.207147
vt 0.403043 0.360297
vt 0.190763 0.084064
vt 0.408248 1.036942
vt 0.492649 1.036942
vt 0.483600 0.371280
vt 0.402049 0.371280
vt 0.402049 1.040375
vt 0.483600 1.040375
vt 0.450449 0.037941
vt 0.483600 0.210579
vt 0.402049 0.210579
vt 0.442825 0.041374
vt 0.000000 1.000000

vn -0.904445 0.345851 -0.249733
vn -0.884504 0.435274 -0.167897
vn -0.943404 0.239529 -0.229378
vn -0.957971 0.120255 -0.260444
vn -0.938216 0.132681 -0.319604
vn -0.914306 0.355113 -0.194778
vn -0.930117 0.341686 -0.134660
vn -0.959318 0.032870 -0.280407
vn -0.969876 0.130036 -0.205987
vn 0.959318 -0.032869 0.280407
vn 0.969876 -0.130035 0.205987
vn 0.943404 -0.239530 0.229376
vn 0.930117 -0.341685 0.134661
vn 0.914307 -0.355112 0.194777
vn 0.957971 -0.120255 0.260444
vn 0.938216 -0.132681 0.319603
vn 0.904445 -0.345852 0.249733
vn 0.884504 -0.435273 0.167898
vn 0.016766 -0.656303 -0.754311
vn 0.305512 0.896780 -0.320076
vn -0.016771 0.656304 0.754310
vn -0.305510 -0.896781 0.320076
vn 0.176249 0.947989 0.265055
vn -0.176245 -0.947990 -0.265054
vn -0.973100 0.208384 -0.098249
vn 0.895740 -0.266109 0.356139
vn -0.216463 -0.968725 -0.121307
vn 0.132030 0.905723 0.402783
vn 0.280935 0.209626 -0.936553

f 267/277/526 268/278/526 269/279/526
f 270/280/527 269/279/527 268/278/527
f 269/281/528 270/282/528 271/283/528
f 272/284/528 271/283/528 270/282/528
f 271/285/529 272/286/529 273/287/529
f 274/288/530 273/287/530 272/286/530
f 275/289/531 267/277/531 269/279/531
f 273/287/529 276/290/529 271/285/529
f 277/291/532 275/289/532 278/292/532
f 269/279/531 278/292/531 275/289/531
f 278/293/528 269/281/528 279/294/528
f 271/283/528 279/294/528 269/281/528
f 279/295/533 271/285/533 280/296/533
f 276/290/534 280/296/534 271/285/534
f 281/280/535 268/278/535 282/279/535
f 267/277/536 282/279/536 268/278/536
f 283/284/537 281/282/537 284/283/537
f 282/281/537 284/283/537 281/282/537
f 274/288/538 283/286/538 273/287/538
f 284/285/539 273/287/539 283/286/539
f 282/279/540 267/277/540 275/289/540
f 273/287/539 284/285/539 276/290/539
f 282/279/540 275/289/540 285/292/540
f 277/291/541 285/292/541 275/289/541
f 284/283/537 282/281/537 286/294/537
f 285/293/537 286/294/537 282/281/537
f 276/290/542 284/285/542 280/296/542
f 286/295/543 280/296/543 284/285/543
f 270/280/544 268/278/544 281/280/544
f 283/286/545 274/288/545 272/286/545
f 279/295/546 280/296/546 286/295/546
f 285/292/547 277/291/547 278/292/547
f 272/284/528 270/282/528 287/297/528
f 287/297/528 288/298/528 272/284/528
f 281/282/537 283/284/537 289/298/537
f 289/298/537 290/297/537 281/282/537
f 270/299/548 281/300/548 290/301/548
f 290/301/548 287/302/548 270/299/548
f 283/300/549 272/299/549 288/302/549
f 288/302/549 289/301/549 283/300/549
f 278/293/550 279/294/550 291/303/550
f 286/294/551 285/293/551 291/303/551
f 279/304/552 286/305/552 291/306/552
f 285/305/553 278/304/553 291/306/553
f 289/298/549 288/297/549 292/298/549 293/307/549
f 287/297/548 290/298/548 294/297/548 295/307/548
f 290/297/537 289/298/537 293/297/537 294/307/537
f 288/298/528 287/297/528 295/298/528 292/307/528
f 294/297/554 293/298/554 295/297/554
f 292/298/554 295/297/554 293/298/554

