mtllib anim_barb_idle_axe_000003.mtl

o fat
usemtl axe.001
s off

v 20.478840 79.317314 10.826100
v 17.360889 72.847816 12.256100
v 24.660910 78.174446 18.192341
v 22.471722 75.723610 17.575319
v 25.399649 77.088982 19.882811
v 23.210449 74.638153 19.265789
v 26.629478 70.279831 24.900829
v 21.210211 67.191803 21.064629
v 24.747450 84.096062 12.029200
v 30.898090 75.058578 26.103920
v 30.166710 87.184082 15.865391
v 26.850121 80.625290 18.809361
v 27.588848 79.539803 20.499830
v 34.016029 81.528061 24.673920
v 23.788071 74.836090 16.430189
v 25.977280 77.286911 17.047199
v 24.526810 73.750618 18.120659
v 26.716002 76.201447 18.737671
v 28.166470 79.737740 17.664221
v 28.905210 78.652283 19.354700
v 0.626150 51.267250 11.418200
v 1.364880 50.181778 13.108681
v 2.681240 49.294247 11.963540
v 1.942500 50.379711 10.273070
v 32.487759 84.799835 20.381378
v -21.412319 24.682461 6.688980
v -20.154121 23.894611 5.471900
v -20.834702 24.880390 3.853370
v -22.151060 25.767920 4.998500

vt 0.033358 0.643728
vt 0.190411 0.923560
vt 0.402692 0.503812
vt 0.402692 0.647326
vt 0.408249 0.287497
vt 0.408249 0.367848
vt 0.492649 0.287497
vt 0.492649 0.367848
vt 0.403043 0.503812
vt 0.403044 0.647326
vt 0.033710 0.643728
vt 0.190763 0.923560
vt 0.033358 0.363896
vt 0.033710 0.363896
vt 0.190411 0.084064
vt 0.402692 0.360297
vt 0.408249 0.207147
vt 0.492649 0.207147
vt 0.403043 0.360297
vt 0.190763 0.084064
vt 0.408248 1.036942
vt 0.492649 1.036942
vt 0.483600 0.371280
vt 0.402049 0.371280
vt 0.402049 1.040375
vt 0.483600 1.040375
vt 0.450449 0.037941
vt 0.483600 0.210579
vt 0.402049 0.210579
vt 0.442825 0.041374
vt 0.000000 1.000000

vn -0.737549 0.463925 0.490709
vn -0.730395 0.550696 0.404051
vn -0.672466 0.453396 0.584997
vn -0.624535 0.387089 0.678320
vn -0.664600 0.339341 0.665699
vn -0.710037 0.512724 0.482661
vn -0.667160 0.558578 0.492837
vn -0.583894 0.335440 0.739288
vn -0.598479 0.436870 0.671541
vn 0.583895 -0.335443 -0.739287
vn 0.598479 -0.436871 -0.671540
vn 0.672464 -0.453398 -0.584998
vn 0.667161 -0.558577 -0.492837
vn 0.710036 -0.512724 -0.482662
vn 0.624534 -0.387089 -0.678321
vn 0.664599 -0.339341 -0.665699
vn 0.737548 -0.463924 -0.490711
vn 0.730393 -0.550701 -0.404047
vn -0.092838 -0.835828 0.541085
vn -0.658255 -0.005031 -0.752778
vn 0.092838 0.835829 -0.541083
vn 0.658258 0.005028 0.752775
vn -0.345125 0.507112 -0.789763
vn 0.345127 -0.507113 0.789762
vn -0.575915 0.549997 0.604835
vn 0.756205 -0.348162 -0.554019
vn 0.439595 -0.391207 0.808525
vn -0.242817 0.611501 -0.753064
vn 0.365848 -0.523110 0.769748
vn 0.675529 -0.458990 -0.577052
vn -0.650976 -0.738412 -0.176006
vn -0.647071 -0.738078 -0.191156

f 1/1/1 2/2/1 3/3/1
f 4/4/2 3/3/2 2/2/2
f 3/5/3 4/6/3 5/7/3
f 6/8/3 5/7/3 4/6/3
f 5/9/4 6/10/4 7/11/4
f 8/12/5 7/11/5 6/10/5
f 9/13/6 1/1/6 3/3/6
f 7/11/4 10/14/4 5/9/4
f 11/15/7 9/13/7 12/16/7
f 3/3/6 12/16/6 9/13/6
f 12/17/3 3/5/3 13/18/3
f 5/7/3 13/18/3 3/5/3
f 13/19/8 5/9/8 14/20/8
f 10/14/9 14/20/9 5/9/9
f 15/4/10 2/2/10 16/3/10
f 1/1/11 16/3/11 2/2/11
f 17/8/12 15/6/12 18/7/12
f 16/5/12 18/7/12 15/6/12
f 8/12/13 17/10/13 7/11/13
f 18/9/14 7/11/14 17/10/14
f 16/3/15 1/1/15 9/13/15
f 7/11/14 18/9/14 10/14/14
f 16/3/15 9/13/15 19/16/15
f 11/15/16 19/16/16 9/13/16
f 18/7/12 16/5/12 20/18/12
f 19/17/12 20/18/12 16/5/12
f 10/14/17 18/9/17 14/20/17
f 20/19/18 14/20/18 18/9/18
f 4/4/19 2/2/19 15/4/19
f 17/10/20 8/12/20 6/10/20
f 13/19/21 14/20/21 20/19/21
f 19/16/22 11/15/22 12/16/22
f 6/8/3 4/6/3 21/21/3
f 21/21/3 22/22/3 6/8/3
f 15/6/12 17/8/12 23/22/12
f 23/22/12 24/21/12 15/6/12
f 4/23/23 15/24/23 24/25/23
f 24/25/23 21/26/23 4/23/23
f 17/24/24 6/23/24 22/26/24
f 22/26/24 23/25/24 17/24/24
f 12/17/25 13/18/25 25/27/25
f 20/18/26 19/17/26 25/27/26
f 13/28/27 20/29/27 25/30/27
f 19/29/28 12/28/28 25/30/28
f 23/22/29 22/21/29 26/22/29 27/31/29
f 21/21/23 24/22/23 28/21/23 29/31/23
f 24/21/30 23/22/30 27/21/30 28/31/30
f 22/22/3 21/21/3 29/22/3 26/31/3
f 28/21/31 27/22/31 29/21/31
f 26/22/32 29/21/32 27/22/32

