mtllib anim_barb_attack6_axe_000093.mtl

o fat
usemtl axe.001
s off

v 11.814490 66.757370 39.871349
v 6.999400 62.201828 36.759651
v 7.012100 65.961411 46.897091
v 5.732340 64.313644 44.284256
v 5.522810 65.099442 48.170151
v 4.243040 63.451660 45.557308
v -0.585200 59.580658 50.470730
v -0.760830 57.710361 43.393169
v 14.309850 69.970291 44.965992
v 1.910160 62.793579 55.565361
v 14.485479 71.840591 52.043537
v 8.291870 67.609200 49.509930
v 6.802580 66.747223 50.782982
v 6.725250 67.349121 58.677067
v 6.922080 62.803730 44.653740
v 8.201850 64.451508 47.266571
v 5.432790 61.941761 45.926800
v 6.712550 63.589531 48.539619
v 9.481610 66.099289 49.879387
v 7.992320 65.237320 51.152458
v -7.038250 47.870781 18.211309
v -8.527540 47.008801 19.484369
v -7.337790 45.498890 19.853861
v -6.309930 48.266632 17.608660
v 10.837090 69.893211 55.833401
v -21.842861 29.864471 -7.700220
v -20.701080 28.443100 -7.385240
v -19.163830 29.216530 -8.603800
v -20.353569 30.726431 -8.973300

vt 0.033358 0.643728
vt 0.190411 0.923560
vt 0.402692 0.503812
vt 0.402692 0.647326
vt 0.408249 0.287497
vt 0.408249 0.367848
vt 0.492649 0.287497
vt 0.492649 0.367848
vt 0.403043 0.503812
vt 0.403044 0.647326
vt 0.033710 0.643728
vt 0.190763 0.923560
vt 0.033358 0.363896
vt 0.033710 0.363896
vt 0.190411 0.084064
vt 0.402692 0.360297
vt 0.408249 0.207147
vt 0.492649 0.207147
vt 0.403043 0.360297
vt 0.190763 0.084064
vt 0.408248 1.036942
vt 0.492649 1.036942
vt 0.483600 0.371280
vt 0.402049 0.371280
vt 0.402049 1.040375
vt 0.483600 1.040375
vt 0.450449 0.037941
vt 0.483600 0.210579
vt 0.402049 0.210579
vt 0.442825 0.041374
vt 0.000000 1.000000

vn -0.552627 0.781647 -0.289191
vn -0.446269 0.839238 -0.310682
vn -0.607786 0.771342 -0.188752
vn -0.689291 0.715519 -0.113626
vn -0.712639 0.682415 -0.162650
vn -0.516917 0.815286 -0.260971
vn -0.491028 0.845165 -0.211157
vn -0.741610 0.668300 -0.058221
vn -0.654899 0.750828 -0.085815
vn 0.741611 -0.668299 0.058220
vn 0.654899 -0.750828 0.085814
vn 0.607785 -0.771343 0.188752
vn 0.491028 -0.845165 0.211157
vn 0.516917 -0.815285 0.260971
vn 0.689291 -0.715519 0.113624
vn 0.712639 -0.682415 0.162650
vn 0.552627 -0.781647 0.289191
vn 0.446270 -0.839238 0.310682
vn -0.789480 -0.612538 0.038971
vn 0.350402 0.047200 -0.935409
vn 0.789476 0.612542 -0.038971
vn -0.350397 -0.047206 0.935411
vn 0.868125 -0.464434 -0.175097
vn 0.707195 0.417637 -0.570486
vn -0.591626 0.780399 -0.202378
vn -0.695772 -0.402702 0.594754
vn -0.549302 0.831847 -0.079364
vn 0.654694 -0.696147 0.294542
vn -0.630355 -0.324074 0.705428
vn 0.745389 0.472184 -0.470572
vn -0.690400 -0.409959 0.596056
vn 0.328827 0.699042 -0.634990
vn 0.809586 -0.587002 -0.000577
vn -0.377012 -0.489489 -0.786296
vn -0.388432 -0.485571 -0.783161

f 1/1/1 2/2/1 3/3/1
f 4/4/2 3/3/2 2/2/2
f 3/5/3 4/6/3 5/7/3
f 6/8/3 5/7/3 4/6/3
f 5/9/4 6/10/4 7/11/4
f 8/12/5 7/11/5 6/10/5
f 9/13/6 1/1/6 3/3/6
f 7/11/4 10/14/4 5/9/4
f 11/15/7 9/13/7 12/16/7
f 3/3/6 12/16/6 9/13/6
f 12/17/3 3/5/3 13/18/3
f 5/7/3 13/18/3 3/5/3
f 13/19/8 5/9/8 14/20/8
f 10/14/9 14/20/9 5/9/9
f 15/4/10 2/2/10 16/3/10
f 1/1/11 16/3/11 2/2/11
f 17/8/12 15/6/12 18/7/12
f 16/5/12 18/7/12 15/6/12
f 8/12/13 17/10/13 7/11/13
f 18/9/14 7/11/14 17/10/14
f 16/3/15 1/1/15 9/13/15
f 7/11/14 18/9/14 10/14/14
f 16/3/15 9/13/15 19/16/15
f 11/15/16 19/16/16 9/13/16
f 18/7/12 16/5/12 20/18/12
f 19/17/12 20/18/12 16/5/12
f 10/14/17 18/9/17 14/20/17
f 20/19/18 14/20/18 18/9/18
f 4/4/19 2/2/19 15/4/19
f 17/10/20 8/12/20 6/10/20
f 13/19/21 14/20/21 20/19/21
f 19/16/22 11/15/22 12/16/22
f 6/8/3 4/6/3 21/21/3
f 21/21/3 22/22/3 6/8/3
f 15/6/12 17/8/12 23/22/12
f 23/22/23 24/21/23 15/6/23
f 4/23/24 15/24/24 24/25/24
f 24/25/25 21/26/25 4/23/25
f 17/24/26 6/23/26 22/26/26
f 22/26/26 23/25/26 17/24/26
f 12/17/27 13/18/27 25/27/27
f 20/18/28 19/17/28 25/27/28
f 13/28/29 20/29/29 25/30/29
f 19/29/30 12/28/30 25/30/30
f 23/22/31 22/21/31 26/22/31 27/31/31
f 21/21/32 24/22/32 28/21/32 29/31/32
f 24/21/33 23/22/33 27/21/33 28/31/33
f 22/22/3 21/21/3 29/22/3 26/31/3
f 28/21/34 27/22/34 29/21/34
f 26/22/35 29/21/35 27/22/35

