mtllib anim_barb_idle_axe_000029.mtl

o fat
usemtl axe.001
s off

v -2.907310 90.411591 20.473539
v -2.525730 83.127930 21.124229
v -1.869390 90.552704 28.956470
v -2.065690 87.441544 27.747368
v -1.378660 89.771164 30.887812
v -1.574970 86.659996 29.678699
v 1.178390 83.904556 36.553642
v 0.031270 79.055565 31.187811
v -2.524540 96.477905 22.831112
v 1.561160 89.970863 38.911209
v -1.377420 101.326904 28.196930
v -1.673080 93.663879 30.165579
v -1.182360 92.882339 32.096909
v 1.179580 97.254532 38.260521
v -0.163790 87.500122 27.287842
v 0.032520 90.611298 28.496941
v 0.326920 86.718582 29.219170
v 0.523240 89.829750 30.428268
v 0.228820 93.722466 29.706039
v 0.719540 92.940918 31.637371
v -4.024600 56.395729 15.681980
v -3.533880 55.614182 17.613310
v -1.631980 55.672768 17.153770
v -2.122700 56.454311 15.222440
v -0.063380 99.854042 33.447651
v -5.576330 23.244400 5.033360
v -3.772750 23.403881 4.504260
v -4.165150 24.084530 2.642490
v -6.067050 24.025951 3.102030

vt 0.033358 0.643728
vt 0.190411 0.923560
vt 0.402692 0.503812
vt 0.402692 0.647326
vt 0.408249 0.287497
vt 0.408249 0.367848
vt 0.492649 0.287497
vt 0.492649 0.367848
vt 0.403043 0.503812
vt 0.403044 0.647326
vt 0.033710 0.643728
vt 0.190763 0.923560
vt 0.033358 0.363896
vt 0.033710 0.363896
vt 0.190411 0.084064
vt 0.402692 0.360297
vt 0.408249 0.207147
vt 0.492649 0.207147
vt 0.403043 0.360297
vt 0.190763 0.084064
vt 0.408248 1.036942
vt 0.492649 1.036942
vt 0.483600 0.371280
vt 0.402049 0.371280
vt 0.402049 1.040375
vt 0.483600 1.040375
vt 0.450449 0.037941
vt 0.483600 0.210579
vt 0.402049 0.210579
vt 0.442825 0.041374
vt 0.000000 1.000000

vn -0.991678 -0.041052 0.122019
vn -0.998116 0.048248 0.037904
vn -0.971594 -0.029928 0.234755
vn -0.935712 -0.074927 0.344715
vn -0.937317 -0.134158 0.321618
vn -0.992509 0.015531 0.121179
vn -0.986843 0.074888 0.143295
vn -0.900801 -0.106739 0.420909
vn -0.938648 -0.018409 0.344384
vn 0.900801 0.106740 -0.420909
vn 0.938648 0.018409 -0.344385
vn 0.971594 0.029926 -0.234755
vn 0.986843 -0.074888 -0.143295
vn 0.992509 -0.015532 -0.121180
vn 0.935712 0.074926 -0.344716
vn 0.937317 0.134158 -0.321618
vn 0.991679 0.041052 -0.122018
vn 0.998116 -0.048247 -0.037905
vn 0.154119 -0.832798 0.531691
vn -0.221472 -0.234618 -0.946522
vn -0.154119 0.832798 -0.531691
vn 0.221474 0.234618 0.946522
vn -0.229256 0.365124 -0.902289
vn 0.229258 -0.365124 0.902289
vn -0.954257 0.098464 0.282310
vn 0.970424 0.157752 -0.182732
vn 0.235475 -0.221154 0.946384
vn -0.217834 0.500803 -0.837702
vn 0.259962 -0.365653 0.893710
vn 0.975566 0.022181 -0.218584
vn -0.051537 -0.941407 -0.333313
vn -0.026189 -0.928956 -0.369263

f 1/1/1 2/2/1 3/3/1
f 4/4/2 3/3/2 2/2/2
f 3/5/3 4/6/3 5/7/3
f 6/8/3 5/7/3 4/6/3
f 5/9/4 6/10/4 7/11/4
f 8/12/5 7/11/5 6/10/5
f 9/13/6 1/1/6 3/3/6
f 7/11/4 10/14/4 5/9/4
f 11/15/7 9/13/7 12/16/7
f 3/3/6 12/16/6 9/13/6
f 12/17/3 3/5/3 13/18/3
f 5/7/3 13/18/3 3/5/3
f 13/19/8 5/9/8 14/20/8
f 10/14/9 14/20/9 5/9/9
f 15/4/10 2/2/10 16/3/10
f 1/1/11 16/3/11 2/2/11
f 17/8/12 15/6/12 18/7/12
f 16/5/12 18/7/12 15/6/12
f 8/12/13 17/10/13 7/11/13
f 18/9/14 7/11/14 17/10/14
f 16/3/15 1/1/15 9/13/15
f 7/11/14 18/9/14 10/14/14
f 16/3/15 9/13/15 19/16/15
f 11/15/16 19/16/16 9/13/16
f 18/7/12 16/5/12 20/18/12
f 19/17/12 20/18/12 16/5/12
f 10/14/17 18/9/17 14/20/17
f 20/19/18 14/20/18 18/9/18
f 4/4/19 2/2/19 15/4/19
f 17/10/20 8/12/20 6/10/20
f 13/19/21 14/20/21 20/19/21
f 19/16/22 11/15/22 12/16/22
f 6/8/3 4/6/3 21/21/3
f 21/21/3 22/22/3 6/8/3
f 15/6/12 17/8/12 23/22/12
f 23/22/12 24/21/12 15/6/12
f 4/23/23 15/24/23 24/25/23
f 24/25/23 21/26/23 4/23/23
f 17/24/24 6/23/24 22/26/24
f 22/26/24 23/25/24 17/24/24
f 12/17/25 13/18/25 25/27/25
f 20/18/26 19/17/26 25/27/26
f 13/28/27 20/29/27 25/30/27
f 19/29/28 12/28/28 25/30/28
f 23/22/29 22/21/29 26/22/29 27/31/29
f 21/21/23 24/22/23 28/21/23 29/31/23
f 24/21/30 23/22/30 27/21/30 28/31/30
f 22/22/3 21/21/3 29/22/3 26/31/3
f 28/21/31 27/22/31 29/21/31
f 26/22/32 29/21/32 27/22/32

