mtllib anim_barb_attack6_axe_000068.mtl

o fat
usemtl axe.001
s off

v -7.425750 14.719830 41.329498
v -7.674760 17.897739 34.737110
v -11.054150 8.002230 37.486820
v -10.673790 10.602150 35.419071
v -11.690150 6.787850 35.842911
v -11.309800 9.387771 33.775162
v -12.721120 4.608990 27.642479
v -10.988819 11.569969 26.171219
v -8.167399 9.650370 45.361320
v -13.462761 -0.460460 31.674299
v -9.899691 2.689400 46.832581
v -11.434509 5.402310 39.554581
v -12.070511 4.187930 37.910667
v -13.213750 -3.638380 38.266689
v -8.818000 10.071430 35.093132
v -9.198359 7.471510 37.160889
v -9.454010 8.857050 33.449230
v -9.834370 6.257140 35.516979
v -9.578720 4.871600 39.228638
v -10.214730 3.657220 37.584740
v -6.878250 36.546219 14.785290
v -7.514260 35.331841 13.141380
v -5.658470 34.801121 12.815451
v -6.297030 40.134857 15.897301
v -11.625600 -0.945240 42.924034
v -3.554330 62.381081 -8.373210
v -1.792890 61.853752 -8.753910
v -1.062590 63.064671 -7.055090
v -2.918370 63.595509 -6.729321

vt 0.033358 0.643728
vt 0.190411 0.923560
vt 0.402692 0.503812
vt 0.402692 0.647326
vt 0.408249 0.287497
vt 0.408249 0.367848
vt 0.492649 0.287497
vt 0.492649 0.367848
vt 0.403043 0.503812
vt 0.403044 0.647326
vt 0.033710 0.643728
vt 0.190763 0.923560
vt 0.033358 0.363896
vt 0.033710 0.363896
vt 0.190411 0.084064
vt 0.402692 0.360297
vt 0.408249 0.207147
vt 0.492649 0.207147
vt 0.403043 0.360297
vt 0.190763 0.084064
vt 0.408248 1.036942
vt 0.492649 1.036942
vt 0.483600 0.371280
vt 0.402049 0.371280
vt 0.402049 1.040375
vt 0.483600 1.040375
vt 0.450449 0.037941
vt 0.483600 0.210579
vt 0.402049 0.210579
vt 0.442825 0.041374
vt 0.000000 1.000000

vn -0.905426 0.368007 0.211601
vn -0.863372 0.385355 0.325715
vn -0.948036 0.271118 0.166504
vn -0.977540 0.198753 0.070088
vn -0.968453 0.247372 0.030111
vn -0.903927 0.339308 0.260357
vn -0.909051 0.289556 0.299638
vn -0.989500 0.144530 -0.000290
vn -0.978096 0.170642 0.119204
vn 0.989500 -0.144529 0.000290
vn 0.978096 -0.170642 -0.119204
vn 0.948035 -0.271118 -0.166505
vn 0.909052 -0.289556 -0.299637
vn 0.903927 -0.339307 -0.260357
vn 0.977540 -0.198753 -0.070088
vn 0.968453 -0.247372 -0.030112
vn 0.905426 -0.368007 -0.211601
vn 0.863374 -0.385355 -0.325711
vn -0.178149 -0.018731 -0.983825
vn 0.308647 0.910738 0.274395
vn 0.178145 0.018731 0.983826
vn -0.308641 -0.910740 -0.274396
vn 0.986027 0.022691 0.165032
vn 0.286270 0.498473 0.818275
vn -0.987716 0.155634 0.014000
vn -0.297134 -0.567340 -0.768008
vn -0.954670 0.161478 0.250061
vn 0.923344 -0.375594 -0.079776
vn -0.310853 -0.677746 -0.666356
vn 0.276665 0.444051 0.852218
vn -0.314051 -0.563223 -0.764299
vn -0.762335 0.502790 0.407490
vn 0.990732 -0.088903 0.102694
vn -0.948030 0.271176 0.166445
vn 0.117333 0.784147 -0.609382
vn 0.100718 0.781210 -0.616091

f 1/1/1 2/2/1 3/3/1
f 4/4/2 3/3/2 2/2/2
f 3/5/3 4/6/3 5/7/3
f 6/8/3 5/7/3 4/6/3
f 5/9/4 6/10/4 7/11/4
f 8/12/5 7/11/5 6/10/5
f 9/13/6 1/1/6 3/3/6
f 7/11/4 10/14/4 5/9/4
f 11/15/7 9/13/7 12/16/7
f 3/3/6 12/16/6 9/13/6
f 12/17/3 3/5/3 13/18/3
f 5/7/3 13/18/3 3/5/3
f 13/19/8 5/9/8 14/20/8
f 10/14/9 14/20/9 5/9/9
f 15/4/10 2/2/10 16/3/10
f 1/1/11 16/3/11 2/2/11
f 17/8/12 15/6/12 18/7/12
f 16/5/12 18/7/12 15/6/12
f 8/12/13 17/10/13 7/11/13
f 18/9/14 7/11/14 17/10/14
f 16/3/15 1/1/15 9/13/15
f 7/11/14 18/9/14 10/14/14
f 16/3/15 9/13/15 19/16/15
f 11/15/16 19/16/16 9/13/16
f 18/7/12 16/5/12 20/18/12
f 19/17/12 20/18/12 16/5/12
f 10/14/17 18/9/17 14/20/17
f 20/19/18 14/20/18 18/9/18
f 4/4/19 2/2/19 15/4/19
f 17/10/20 8/12/20 6/10/20
f 13/19/21 14/20/21 20/19/21
f 19/16/22 11/15/22 12/16/22
f 6/8/3 4/6/3 21/21/3
f 21/21/3 22/22/3 6/8/3
f 15/6/12 17/8/12 23/22/12
f 23/22/23 24/21/23 15/6/23
f 4/23/24 15/24/24 24/25/24
f 24/25/25 21/26/25 4/23/25
f 17/24/26 6/23/26 22/26/26
f 22/26/26 23/25/26 17/24/26
f 12/17/27 13/18/27 25/27/27
f 20/18/28 19/17/28 25/27/28
f 13/28/29 20/29/29 25/30/29
f 19/29/30 12/28/30 25/30/30
f 23/22/31 22/21/31 26/22/31 27/31/31
f 21/21/32 24/22/32 28/21/32 29/31/32
f 24/21/33 23/22/33 27/21/33 28/31/33
f 22/22/34 21/21/34 29/22/34 26/31/34
f 28/21/35 27/22/35 29/21/35
f 26/22/36 29/21/36 27/22/36

