mtllib anim_barb_idle_000036.mtl

o fat
usemtl fat.001
s off

v -0.115190 38.694260 -3.588130
v 1.860240 36.144421 6.136090
v 0.138150 37.902710 1.548310
v 0.432520 60.858421 -7.824900
v 9.883610 66.516487 -6.201850
v 2.894450 57.054527 -6.828360
v -0.343020 52.776726 -4.910120
v 8.201190 62.955772 -2.691300
v 7.730660 58.628342 -0.034950
v 6.853010 52.853012 -0.819650
v 4.137460 52.663670 -4.898780
v 6.847530 57.831532 -5.529920
v 9.150360 37.589157 4.469510
v 9.341690 39.515919 -1.001800
v 10.448960 39.017811 -2.220540
v 6.038630 38.513721 5.099730
v 4.973460 37.038410 6.464980
v 4.803960 37.134212 -6.290421
v 4.052240 39.102482 -5.419540
v 0.740120 38.366512 -4.497870
v -0.008560 35.957550 -5.154780
v -0.531670 66.511520 -7.561580
v -0.818690 68.504181 -7.602580
v -0.598420 59.806900 6.011970
v 4.518170 59.848091 4.589560
v 5.483650 64.033630 5.392630
v 8.538100 63.736309 3.355600
v 5.364861 66.835709 5.296710
v 11.129690 67.067810 1.614160
v 4.419740 52.921299 4.043920
v 0.957170 52.650829 5.280950
v -0.164060 66.742851 6.273890
v 5.227960 71.258797 -4.540590
v 11.569231 68.221138 -5.263870
v 11.820460 68.700188 -1.472270
v 2.304200 71.347496 3.971970
v 5.527280 72.471725 -0.098630
v -0.503370 70.526848 4.287660
v 2.477730 76.847809 1.081110
v 3.558550 74.475349 -2.087590
v 0.678040 74.618027 -3.353070
v 0.194260 77.501961 -0.506140
v 0.780440 72.549400 -5.165390
v 1.061240 48.323990 5.529240
v 6.052590 48.318821 4.251700
v 8.374120 47.967072 -1.293340
v 4.279100 47.372978 -5.961240
v -0.478490 47.287361 -5.974910
v 11.544220 65.466621 1.190980
v 10.488540 64.646675 -6.466500
v 13.412280 65.534729 -1.237580
v 12.940960 66.732361 -4.516710
v 8.370590 63.121010 1.815140
v 1.611480 76.288826 6.501170
v -0.023120 74.773857 8.017879
v 2.129050 71.938461 5.108070
v 0.588780 70.870224 6.991910
v -0.492740 73.405281 7.893960
v 0.463260 76.743942 7.886900
v -1.344310 76.614159 7.894080
v 2.588940 77.623322 3.904950
v -0.688290 80.612930 8.109930
v -2.012420 80.563538 8.190920
v 0.431270 78.015190 8.512470
v 1.126870 79.875748 7.581920
v 0.379970 81.954453 5.528280
v -1.213140 81.949608 5.100820
v -0.999740 74.780342 8.406150
v -1.999920 77.360146 8.088990
v -2.301730 75.335434 9.230890
v -2.146660 74.751419 8.617190
v -2.157120 73.168999 8.631640
v -0.731340 70.406898 8.404150
v -2.183660 70.381424 8.688700
v 2.434330 79.961281 3.910680
v 2.037640 81.202652 3.285440
v -0.356040 81.450623 1.754260
v 13.294810 63.052940 0.683480
v 14.283839 63.527771 -2.891530
v 8.883670 57.465099 -3.459720
v 10.019979 57.972496 0.980720
v 11.024620 62.068550 -6.219270
v 11.158020 53.151588 -3.045110
v 13.908390 48.417870 -2.532320
v 11.690840 50.067593 -1.499160
v 14.373930 52.760082 -4.486750
v 15.500751 54.662636 -2.375720
v 15.731740 49.501801 -0.612430
v 14.797140 54.148186 -0.362730
v 14.638910 50.698097 1.638170
v 12.635309 52.323780 -0.009620
v 11.828831 50.922470 1.759620
v 13.503489 55.615330 -4.777650
v 13.991670 54.360043 -4.717370
v 15.172549 59.969238 -2.691990
v 13.989410 59.564243 0.595330
v 12.005840 54.068062 0.169060
v 12.854820 58.120880 -5.933300
v 12.209169 42.892189 1.751440
v 10.671480 43.626808 2.581780
v 13.411570 43.240921 2.682430
v 12.828211 44.266510 4.159170
v 11.224529 44.641998 4.345460
v 9.505410 42.004608 8.497869
v 9.344050 41.377968 7.841740
v 10.239739 41.693008 6.934700
v 10.961619 42.313316 7.102670
v 11.929931 40.926140 7.219890
v 9.203520 43.457409 6.516100
v 10.170569 42.899719 7.355880
v 8.472340 42.150532 8.148530
v 8.949409 40.852089 9.225340
v 8.207900 41.009068 8.856450
v 11.150270 39.111732 8.264250
v 11.369720 38.903961 2.816310
v 11.094740 37.217850 3.800030
v 10.661100 35.082340 5.749530
v 10.095700 39.803902 7.991030
v 11.978520 37.394852 4.347930
v 12.579510 39.009148 3.430590
v 9.731091 37.002220 9.467080
v 4.023100 26.162939 -0.545690
v 8.041620 21.196680 -7.740750
v 5.439050 18.577740 -3.009270
v 9.930830 27.074169 -1.330840
v 12.729170 20.358000 -3.940130
v 6.517180 27.218922 -4.332760
v 8.084940 23.740999 1.482660
v 9.219970 18.247980 0.308180
v 7.784490 25.847721 2.450880
v 7.848010 28.288500 2.070290
v 10.700420 30.868111 -2.002290
v 7.348680 32.774761 4.367340
v 12.422410 10.227270 -7.616640
v 13.832980 7.625720 -8.661270
v 10.721940 8.766870 -10.564919
v 11.584980 7.519160 -5.646540
v 8.973740 9.399261 -7.279300
v 8.951740 6.429100 -8.279921
v 10.055120 4.000390 -12.340440
v 13.044330 4.774110 -12.569229
v 10.563101 1.475140 -4.282640
v 16.553490 2.975130 -4.757450
v 13.374090 3.043960 -0.555780
v 16.057131 1.586020 -0.855020
v 12.245999 0.435750 0.050880
v -8.994250 66.804863 -6.794150
v -1.819070 57.027859 -7.064890
v -5.182800 64.105751 -3.173670
v -7.151150 58.542152 -2.075300
v -4.837590 52.759354 -3.447670
v -6.369580 52.647053 1.128100
v -5.489370 57.761322 -6.536810
v -9.100470 39.081238 -0.521550
v -7.018660 36.722969 6.619440
v -10.264799 38.551098 -0.090480
v -5.332450 37.789768 5.397340
v -4.705620 37.175041 -6.230000
v -4.554830 39.152721 -5.018500
v -0.793830 38.403019 -4.691830
v -5.404230 59.789829 3.236050
v -5.871430 63.959431 4.670280
v -10.588680 63.632221 2.271140
v -5.570790 66.761086 4.803430
v -10.644079 67.839973 1.450890
v -2.562810 52.534031 5.287740
v -10.733310 67.873131 -6.220480
v -4.535710 71.219704 -5.130950
v -11.539620 68.772537 -1.692350
v -3.143350 71.326157 3.211350
v -5.914180 72.517540 -1.293590
v -2.567230 76.861038 -0.145270
v -2.455150 74.478386 -3.197870
v -2.946900 47.914547 6.350500
v -7.647200 47.664562 2.171120
v -5.774990 47.270660 -3.774890
v -11.514150 65.495201 0.512220
v -8.324920 63.972084 -7.080570
v -12.944970 66.268631 -2.072990
v -11.775550 64.881371 -5.261470
v -9.747200 63.735802 0.997980
v -3.718590 74.789627 7.069080
v -4.408190 76.314522 4.955640
v -3.853220 71.963684 3.890190
v -3.791800 70.888916 5.867200
v -3.258330 73.417068 7.183910
v -2.486490 76.619019 7.600850
v -4.065930 76.763260 6.724030
v -4.003370 77.651451 2.212390
v -3.133320 80.623360 7.482160
v -4.329080 78.035515 7.290260
v -4.475460 79.899651 6.143530
v -2.815030 81.968079 4.708000
v -3.049790 74.789093 7.879800
v -3.319020 70.417938 7.739760
v -3.851940 79.988083 2.296720
v -3.193190 81.224968 1.942420
v -12.299780 62.824852 -0.187280
v -12.861800 62.682899 -3.912520
v -8.334350 58.566719 1.185070
v -7.248410 58.152191 -3.176960
v -8.910020 61.571201 -6.606600
v -9.200670 49.268841 1.133270
v -7.797630 53.077679 -2.120230
v -8.642510 53.093220 0.948450
v -10.545740 51.989677 -4.101480
v -12.352940 53.905861 -2.507110
v -11.744410 50.435719 1.924120
v -12.033041 53.674339 -0.348050
v -11.949901 53.328438 2.816780
v -9.610480 54.967407 2.885240
v -9.749990 52.323059 0.634300
v -10.109989 54.920822 -4.666680
v -10.349160 53.661388 -4.452330
v -13.002840 59.034328 -3.516850
v -12.395930 59.237461 -0.043790
v -9.202900 55.099632 0.231100
v -9.766561 57.382988 -6.043030
v -7.957590 48.522141 8.175100
v -7.090830 50.177380 8.479530
v -9.468030 48.758488 8.495050
v -9.752280 50.601761 9.014370
v -8.497990 51.626400 9.076611
v -7.236120 52.010742 14.056440
v -7.772960 52.756401 14.122810
v -7.791820 51.356922 13.064020
v -8.655280 51.592831 12.695130
v -9.224060 50.253380 13.572081
v -8.179860 52.486668 12.600650
v -7.142520 52.826389 11.729000
v -6.754810 53.102459 13.888850
v -7.250010 52.566162 15.485359
v -6.489090 52.786087 15.197110
v -8.450540 49.857899 15.629061
v -6.320960 46.046337 13.516521
v -6.630220 46.594994 11.652811
v -6.104590 45.775753 16.423830
v -7.575370 50.646866 15.102220
v -7.356970 46.105530 13.705271
v -7.965631 46.502411 11.897711
v -7.085920 49.607121 18.075590
v -5.360160 19.559341 -7.632330
v -3.225720 25.919868 -0.368790
v -3.091190 18.225189 -2.979900
v -10.384350 18.683380 -4.740060
v -9.012980 26.322762 -2.051410
v -5.358990 27.405260 -4.260370
v -7.148130 23.011280 0.875140
v -7.175210 17.384520 -0.240870
v -7.251960 24.892290 1.960770
v -6.876080 27.660780 2.033260
v -10.283751 30.042328 -1.701970
v -6.357500 32.211460 4.354170
v -8.982110 5.201250 -7.016980
v -8.144350 8.150850 -6.272700
v -5.867660 6.400500 -8.835720
v -7.149590 6.179120 -3.864370
v -4.089240 4.969550 -5.916240
v -4.613880 7.929049 -5.420580
v -4.242630 1.522980 -9.283410
v -7.291530 1.667070 -9.966351
v -5.410140 0.965110 -0.917310
v -11.413740 1.197170 -2.240240
v -8.824170 2.938270 2.042140
v -11.159081 0.950120 1.945990
v -7.356720 0.848840 3.429310

vt 0.550479 0.485338
vt 0.414517 0.485338
vt 0.489174 0.497239
vt 0.490853 0.675485
vt 0.356970 0.710738
vt 0.458986 0.602657
vt 0.458693 0.603155
vt 0.491001 0.506534
vt 0.357039 0.710738
vt 0.272881 0.708251
vt 0.307767 0.663467
vt 0.329118 0.504113
vt 0.420682 0.504388
vt 0.307693 0.663467
vt 0.420389 0.504181
vt 0.390374 0.619683
vt 0.389206 0.622726
vt 0.390855 0.620128
vt 0.309151 0.663075
vt 0.578845 0.971377
vt 0.529882 0.993867
vt 0.501054 0.950636
vt 0.597833 0.993868
vt 0.684209 0.993870
vt 0.691613 0.940228
vt 0.584242 0.936155
vt 0.602549 0.993867
vt 0.689094 0.993870
vt 0.694409 0.971380
vt 0.730001 0.975635
vt 0.490853 0.781888
vt 0.490853 0.820915
vt 0.240556 0.660920
vt 0.133663 0.660928
vt 0.131880 0.753091
vt 0.060606 0.782384
vt 0.055577 0.663688
vt 0.136145 0.808744
vt 0.060014 0.783494
vt 0.058190 0.859642
vt 0.160773 0.512959
vt 0.067037 0.515196
vt 0.240700 0.512959
vt 0.131877 0.752996
vt 0.240556 0.781375
vt 0.390182 0.870896
vt 0.298691 0.847983
vt 0.294173 0.886121
vt 0.181129 0.899551
vt 0.052544 0.886601
vt 0.145152 0.921474
vt 0.235241 0.891030
vt 0.142740 0.921054
vt 0.172936 0.966074
vt 0.456563 0.999059
vt 0.389917 0.922986
vt 0.429989 0.941889
vt 0.491140 0.942697
vt 0.490646 0.999330
vt 0.490853 0.898039
vt 0.701416 0.118225
vt 0.813217 0.120956
vt 0.790107 0.184348
vt 0.877923 0.002315
vt 0.872775 0.120438
vt 0.505869 0.118716
vt 0.564263 0.119120
vt 0.507564 0.183764
vt 0.697589 0.180917
vt 0.580429 0.182675
vt 0.710756 0.001536
vt 0.701372 0.182427
vt 0.812168 0.002315
vt 0.857243 0.184348
vt 0.697567 0.116528
vt 0.503935 0.000692
vt 0.561277 0.000692
vt 0.688827 -0.000098
vt 0.002866 0.854679
vt 0.027518 0.706813
vt 0.061197 0.782654
vt 0.055608 0.663958
vt 0.251604 0.781884
vt 0.357109 0.710738
vt 0.243886 0.876138
vt 0.247300 0.848527
vt -0.000514 0.880403
vt 0.006948 0.782948
vt 0.674684 0.829607
vt 0.705811 0.784366
vt 0.654033 0.662928
vt 0.703232 0.671848
vt 0.720473 0.730776
vt 0.697736 0.853617
vt 0.729837 0.853035
vt 0.623758 0.856571
vt 0.587609 0.811448
vt 0.658187 0.605708
vt 0.748523 0.593788
vt 0.716351 0.931575
vt 0.747491 0.935506
vt 0.695349 0.885675
vt 0.676247 0.904603
vt 0.649719 0.961956
vt 0.745560 1.001324
vt 0.725611 0.781438
vt 0.747491 0.878462
vt 0.747491 0.808438
vt 0.720379 0.731031
vt 0.747491 0.790807
vt 0.720762 0.730332
vt 0.748639 0.732530
vt 0.746944 0.628012
vt 0.703659 0.671442
vt 0.731857 0.666086
vt 0.747085 0.666819
vt 0.703186 0.671176
vt 0.611291 0.885598
vt 0.604148 0.909350
vt 0.550618 0.823662
vt 0.550618 0.934468
vt 0.625864 0.557513
vt 0.571978 0.557920
vt 0.578607 0.510287
vt 0.669444 0.510287
vt 0.756032 0.560223
vt 0.679695 0.557918
vt 0.877240 0.461159
vt 0.992418 0.461159
vt 0.944262 0.560223
vt 0.756457 0.510287
vt 0.806202 0.560223
vt 0.498275 0.560223
vt 0.875566 0.382888
vt 0.758260 0.308662
vt 0.875912 0.308662
vt 0.759996 0.360654
vt 0.669163 0.382888
vt 0.671223 0.308662
vt 0.584325 0.382888
vt 0.577057 0.308662
vt 0.498223 0.363687
vt 0.498247 0.308662
vt 0.992597 0.308662
vt 0.992439 0.363687
vt 0.759483 0.410364
vt 0.758924 0.382888
vt 0.665903 0.461159
vt 0.580075 0.461159
vt 0.498223 0.402657
vt 0.992438 0.402657
vt 0.760539 0.449273
vt 0.498220 0.461159
vt 0.875438 0.575163
vt 0.762705 0.196431
vt 0.858161 0.196355
vt 0.690657 0.196417
vt 0.588027 0.196417
vt 0.498144 0.196431
vt 0.991918 0.196431
vt 0.375723 0.009258
vt 0.380090 0.017573
vt 0.356438 0.030356
vt 0.342839 0.029458
vt 0.369327 0.043627
vt 0.316032 0.012201
vt 0.336848 0.019568
vt 0.249292 0.041099
vt 0.371147 0.002582
vt 0.416197 0.004791
vt 0.408124 0.000758
vt 0.128136 0.016613
vt 0.154876 0.002573
vt 0.119423 0.002194
vt 0.160447 0.001473
vt 0.065726 0.014292
vt 0.105093 0.028910
vt 0.000825 0.069213
vt 0.000703 0.039244
vt 0.249314 0.055441
vt 0.429228 0.045736
vt 0.102506 0.115410
vt 0.153549 0.117195
vt 0.189513 0.114692
vt 0.228429 0.109580
vt 0.194639 0.033982
vt 0.406548 0.108121
vt 0.355355 0.108206
vt 0.448349 0.035630
vt 0.498209 0.039288
vt 0.461840 0.047992
vt 0.483032 0.114221
vt 0.406174 0.120334
vt 0.355217 0.119080
vt 0.243215 0.037501
vt 0.249314 0.089732
vt 0.000703 0.095058
vt 0.249292 0.105039
vt 0.160984 0.032072
vt 0.413806 0.033644
vt 0.442212 0.108407
vt 0.443088 0.117732
vt 0.023914 0.327327
vt 0.104127 0.227894
vt 0.000784 0.227894
vt 0.216171 0.327327
vt 0.216985 0.228421
vt 0.105699 0.228145
vt 0.104981 0.327662
vt 0.217575 0.327327
vt 0.351490 0.301452
vt 0.217290 0.227894
vt 0.351571 0.227894
vt 0.352420 0.301452
vt 0.489174 0.227894
vt 0.352342 0.227894
vt 0.471690 0.333380
vt 0.351597 0.328057
vt 0.217345 0.328075
vt 0.352312 0.363299
vt 0.470864 0.334174
vt 0.352330 0.328057
vt 0.216660 0.380224
vt 0.216104 0.328075
vt 0.104983 0.328371
vt 0.217232 0.380224
vt 0.351611 0.363299
vt 0.351459 0.420971
vt 0.352499 0.420971
vt 0.351589 0.497239
vt 0.229465 0.497239
vt 0.352627 0.497239
vt 0.229583 0.497239
vt 0.133020 0.497239
vt 0.072972 0.497239
vt 0.025422 0.328212
vt 0.002386 0.497239
vt 0.216130 0.152222
vt 0.223982 0.125749
vt 0.105883 0.155747
vt 0.351732 0.147623
vt 0.223132 0.128232
vt 0.218721 0.149411
vt 0.469070 0.149411
vt 0.483427 0.127273
vt 0.352306 0.146326
vt 0.017963 0.152222
vt 0.104256 0.155747
vt 0.009616 0.131504
vt 0.104128 0.227914
vt 0.000790 0.227921
vt 0.216984 0.228396
vt 0.351571 0.227971
vt 0.217291 0.227882
vt 0.352342 0.227879
vt 0.489111 0.227891
vt 0.948232 0.041698
vt 0.989968 0.003451
vt 0.971575 0.059997
vt 0.909211 0.004273
vt 0.996004 0.120663
vt 0.925604 0.058708
vt 0.885225 0.122889
vt 0.516483 0.798440
vt 0.501430 0.685191
vt 0.597947 0.686709
vt 0.594444 0.793024
vt 0.950876 0.082499
vt 0.943924 0.157220
vt 0.507177 0.624822
vt 0.600053 0.622523
vt 0.901715 0.182549
vt 0.982420 0.184037
vt 0.730212 0.975635
vt 0.685579 0.991654
vt 0.692830 0.969164

vn -0.572287 -0.814266 -0.097256
vn 0.229161 -0.105198 -0.967687
vn -0.124438 -0.326047 -0.937128
vn 0.674608 0.331508 0.659551
vn 0.832410 -0.051528 -0.551759
vn -0.007884 -0.404176 -0.914647
vn 0.349790 -0.292140 -0.890113
vn 0.936586 -0.335295 -0.101902
vn 0.339893 -0.190079 -0.921055
vn 0.879535 -0.470173 -0.073175
vn -0.631051 -0.724519 -0.277213
vn -0.329140 -0.887002 -0.323874
vn -0.314151 -0.512643 -0.799066
vn 0.021647 -0.918413 0.395031
vn -0.530059 -0.504126 0.681832
vn 0.293251 -0.335285 0.895314
vn 0.314723 -0.280960 0.906648
vn 0.946995 -0.313474 0.070239
vn 0.129453 -0.001758 -0.991584
vn 0.261822 -0.239765 0.934859
vn 0.650919 -0.488572 0.581035
vn 0.537556 0.022447 0.842929
vn 0.267590 -0.079443 0.960252
vn 0.893020 -0.047937 0.447456
vn 0.337915 -0.022661 0.940904
vn 0.132578 -0.045693 0.990119
vn 0.092136 0.408555 -0.908072
vn 0.129120 0.068104 -0.989288
vn 0.514870 -0.274583 0.812104
vn 0.414569 0.899019 -0.141058
vn 0.173228 0.041029 0.984027
vn 0.202506 0.494836 -0.845061
vn 0.557587 0.051999 0.828488
vn 0.445917 0.517027 0.730644
vn 0.524765 0.698328 0.486786
vn 0.145959 0.470018 0.870505
vn 0.021223 0.294889 0.955296
vn 0.699870 0.314880 0.641118
vn 0.784312 0.594423 -0.177531
vn 0.557137 0.628852 -0.542350
vn 0.267549 0.812873 -0.517353
vn 0.477403 0.673724 0.564077
vn 0.453043 0.851776 -0.263117
vn 0.793364 0.571552 -0.209530
vn 0.290548 0.671013 -0.682147
vn 0.338448 0.629506 -0.699410
vn 0.246132 0.426945 -0.870136
vn 0.245961 0.130619 0.960438
vn 0.912361 0.173089 0.370996
vn 0.703094 0.282170 -0.652716
vn 0.007455 0.197071 -0.980361
vn 0.244757 0.164080 0.955600
vn 0.331486 0.061995 0.941421
vn 0.931542 0.273804 0.239291
vn 0.899727 0.245093 0.361139
vn 0.849027 0.320187 0.420277
vn 0.822139 0.133161 -0.553494
vn -0.000606 0.190437 -0.981699
vn 0.715871 0.234125 -0.657810
vn 0.571640 0.055623 -0.818617
vn 0.002291 0.032252 -0.999477
vn -0.210548 -0.079264 -0.974365
vn 0.412195 0.137289 0.900693
vn 0.940355 0.164792 0.297616
vn 0.990618 -0.131197 -0.038259
vn 0.289693 0.225383 -0.930205
vn 0.603738 -0.053902 0.795358
vn 0.891708 0.451129 0.036596
vn 0.719642 0.403770 0.564876
vn 0.561969 0.106095 -0.820326
vn 0.760940 0.635518 -0.130716
vn -0.803612 -0.179683 -0.567381
vn -0.980866 0.192386 0.029817
vn 0.607154 -0.758442 0.236917
vn 0.734966 -0.125928 0.666309
vn 0.319654 -0.193671 0.927531
vn -0.000811 0.066540 0.997783
vn 0.936084 -0.001278 0.351774
vn 0.998600 -0.045593 -0.026806
vn 0.983829 -0.042779 0.173926
vn 0.295609 -0.828091 0.476320
vn 0.053585 0.175422 0.983034
vn 0.843207 -0.047426 0.535493
vn 0.932726 0.017497 0.360160
vn -0.115431 0.900157 0.419992
vn 0.352721 0.312558 0.881984
vn 0.584115 0.318254 0.746676
vn 0.600857 0.322849 0.731259
vn 0.360334 -0.206023 0.909788
vn 0.180431 -0.284215 0.941630
vn -0.009153 0.913259 0.407276
vn -0.163136 -0.032014 0.986084
vn 0.146607 -0.697822 0.701107
vn 0.404519 0.005677 0.914512
vn 0.492059 -0.866025 -0.088760
vn 0.784471 -0.039692 0.618893
vn 0.011961 -0.999523 -0.028463
vn 0.387199 0.124631 0.913534
vn 0.719204 0.060543 0.692156
vn 0.321840 -0.946744 -0.009764
vn 0.191931 0.018259 0.981239
vn 0.996168 0.066016 -0.057362
vn 0.957317 0.201591 -0.207135
vn 0.679525 -0.310090 0.664898
vn 0.035196 -0.440540 0.897043
vn 0.739672 -0.138832 0.658492
vn -0.079320 -0.316672 0.945213
vn 0.446576 0.704897 0.551081
vn 0.939817 0.061325 0.336131
vn 0.848118 0.428181 0.312021
vn 0.728191 0.595992 0.338424
vn 0.376244 0.298089 0.877259
vn 0.596891 0.409545 -0.689924
vn 0.507411 0.480272 -0.715453
vn 0.167618 0.980430 -0.103256
vn 0.069635 0.960226 -0.270400
vn 0.779441 -0.199151 0.593978
vn 0.719822 0.403274 0.565001
vn 0.667641 -0.094714 -0.738434
vn 0.920331 0.390999 0.010521
vn -0.903606 -0.333127 0.269299
vn 0.942651 0.175263 0.284063
vn 0.695468 0.076091 -0.714517
vn -0.787928 -0.219023 -0.575499
vn 0.223208 -0.042871 0.973828
vn -0.624953 -0.433443 -0.649277
vn -0.419087 -0.334916 -0.843918
vn 0.929350 -0.229728 -0.289022
vn 0.761828 -0.178644 -0.622659
vn 0.917166 0.164989 0.362748
vn 0.918861 0.165576 0.358161
vn 0.088535 0.760790 0.642931
vn -0.279819 0.491218 0.824868
vn -0.901706 0.426042 -0.073582
vn -0.888741 0.073287 0.452513
vn -0.364738 -0.277736 -0.888723
vn -0.429310 -0.209149 -0.878606
vn 0.789772 0.280951 -0.545276
vn 0.770759 0.009701 -0.637053
vn 0.934896 0.078451 0.346143
vn 0.934730 0.078078 0.346675
vn 0.187956 -0.032730 0.981632
vn -0.834887 -0.480463 0.268549
vn -0.781937 -0.009966 -0.623278
vn -0.410507 -0.467404 -0.782954
vn 0.824871 -0.046316 -0.563420
vn 0.679521 0.129207 -0.722189
vn 0.924954 0.247188 0.288720
vn 0.919502 0.174168 0.352395
vn 0.222008 -0.086283 0.971220
vn 0.098806 -0.005470 0.995092
vn -0.990753 -0.129024 0.041974
vn 0.827580 0.118641 -0.548667
vn -0.421261 -0.227209 -0.878018
vn -0.876277 -0.350133 0.330976
vn 0.189186 -0.143615 0.971382
vn -0.844818 -0.412709 0.340520
vn 0.146984 -0.129105 0.980677
vn 0.699951 0.276817 -0.658362
vn -0.473786 -0.280134 -0.834897
vn -0.572383 -0.372317 -0.730587
vn -0.602331 -0.365092 -0.709863
vn 0.591339 -0.599762 -0.539077
vn 0.750343 -0.503488 -0.428353
vn 0.879582 -0.079071 0.469130
vn 0.903362 -0.089958 0.419338
vn 0.181784 0.314074 0.931833
vn 0.069835 0.374037 0.924781
vn -0.994663 0.102027 0.015353
vn -0.955642 0.249955 0.155788
vn 0.655039 -0.620351 0.431380
vn -0.187236 -0.047789 0.981152
vn 0.048704 0.856987 0.513032
vn -0.089587 0.796703 0.597695
vn -0.055322 0.801230 0.595794
vn -0.183876 0.586566 0.788752
vn -0.274823 0.551942 0.787294
vn 0.892355 -0.102278 0.439593
vn 0.922050 -0.366813 0.123578
vn -0.563954 -0.336938 -0.753942
vn -0.018477 -0.932839 -0.359820
vn -0.623621 -0.449754 -0.639389
vn -0.535464 -0.479431 -0.695287
vn -0.783688 -0.535095 -0.315447
vn -0.654022 0.725937 -0.212771
vn 0.250474 0.797315 0.549138
vn 0.067833 0.475654 0.877013
vn -0.963997 0.002080 -0.265904
vn -0.973952 -0.009067 -0.226575
vn 0.927507 -0.228094 0.296149
vn 0.943368 -0.201412 0.263610
vn 0.070805 0.457714 0.886276
vn 0.850999 -0.348501 0.392871
vn 0.528013 -0.490554 -0.693224
vn 0.412971 -0.561307 -0.717210
vn -0.970257 -0.001266 -0.242073
vn 0.940868 0.053502 0.334521
vn -0.974591 -0.152245 -0.164299
vn -0.514972 -0.118297 -0.849005
vn 0.637114 -0.253933 -0.727739
vn 0.060463 -0.325846 0.943488
vn 0.959971 -0.146550 0.238702
vn 0.451102 -0.317639 -0.834034
vn 0.566920 0.473786 0.673891
vn 0.578752 0.460844 0.672807
vn -0.977376 -0.041450 -0.207409
vn 0.089651 0.480870 0.872196
vn 0.892832 -0.311442 0.325354
vn 0.493721 -0.638862 -0.589997
vn -0.874786 -0.005948 -0.484473
vn 0.599115 0.494325 -0.629844
vn 0.581139 0.507238 -0.636386
vn 0.782745 0.086709 0.616273
vn 0.765728 0.020780 0.642829
vn -0.646119 -0.284903 0.708068
vn -0.576563 -0.347760 0.739349
vn 0.878430 -0.090386 0.469245
vn -0.610103 0.137547 0.780292
vn 0.631909 -0.257554 -0.730997
vn 0.838363 -0.074489 0.540000
vn 0.853200 -0.159332 0.496651
vn -0.312547 -0.460250 0.830953
vn 0.860304 0.056610 0.506629
vn -0.590218 -0.405081 0.698249
vn -0.842963 0.087043 -0.530884
vn 0.862019 0.134406 0.488731
vn -0.486422 -0.218980 0.845838
vn 0.892176 0.088943 0.442844
vn 0.621289 0.185688 -0.761262
vn 0.474590 0.017961 -0.880024
vn -0.237150 -0.137144 -0.961744
vn -0.719558 -0.381493 -0.580258
vn -0.531953 -0.316150 0.785541
vn -0.948887 -0.293146 -0.116961
vn 0.572928 0.553401 -0.604567
vn 0.784218 0.187731 0.591404
vn -0.633911 -0.242696 0.734340
vn -0.855827 0.170825 -0.488241
vn 0.756811 0.295647 -0.582949
vn -0.886314 -0.087813 -0.454682
vn -0.851590 -0.087501 -0.516854
vn 0.636617 0.245972 -0.730901
vn 0.803129 -0.224591 0.551854
vn 0.924247 -0.008120 0.381708
vn -0.685061 -0.463116 0.562330
vn -0.589904 -0.516089 0.621020
vn -0.875252 0.271538 -0.400251
vn -0.164484 0.364439 -0.916585
vn -0.937573 -0.344346 -0.048809
vn 0.905946 0.233482 -0.353196
vn 0.208150 -0.928555 -0.307341
vn 0.216792 -0.927560 -0.304357
vn 0.560673 0.699690 0.442809
vn 0.564511 0.608381 -0.557853
vn -0.734481 0.265149 0.624687
vn 0.570382 0.705852 0.420045
vn -0.820567 0.254249 0.511887
vn 0.208193 -0.929517 -0.304390
vn 0.208664 -0.929545 -0.303983
vn 0.477284 0.806930 0.347942
vn 0.187167 0.145031 0.971563
vn -0.796005 0.440774 0.414843
vn 0.390500 -0.761151 -0.517841
vn -0.167840 -0.096007 -0.981128
vn 0.293582 -0.349128 -0.889899
vn -0.511865 0.337090 0.790168
vn -0.905727 -0.288714 -0.310327
vn -0.264825 -0.507543 -0.819920
vn -0.223918 -0.533068 -0.815904
vn -0.894839 -0.354519 -0.271256
vn -0.159386 -0.089747 -0.983128
vn -0.910852 -0.296199 -0.287427
vn 0.267268 -0.889115 -0.371541
vn 0.286338 -0.881825 -0.374694
vn 0.011672 -0.761220 -0.648388
vn 0.504894 -0.623515 0.596918
vn 0.635751 -0.437880 0.635674
vn -0.279836 -0.264567 0.922874
vn -0.174051 -0.504709 0.845562
vn -0.939362 -0.323292 0.114375
vn -0.091419 -0.033647 -0.995244
vn -0.470617 -0.333692 0.816805
vn -0.597330 -0.714480 0.364302
vn -0.521101 0.156690 0.838989
vn -0.499707 0.048852 0.864816
vn -0.735452 -0.098445 0.670387
vn 0.005255 -0.100493 0.994924
vn -0.261357 -0.020075 0.965033
vn -0.055571 0.400656 -0.914542
vn -0.089198 0.031158 -0.995526
vn -0.408023 -0.337510 0.848295
vn -0.426007 0.869882 -0.248642
vn -0.262451 -0.017688 0.964783
vn -0.188585 0.507249 -0.840913
vn -0.453668 0.006330 0.891148
vn -0.407429 0.486242 0.773026
vn -0.531714 0.758604 0.376563
vn -0.234918 0.435161 0.869165
vn -0.227784 0.426412 0.875378
vn -0.723834 0.411303 0.553980
vn -0.618611 0.608187 -0.497422
vn -0.245916 0.659749 -0.710110
vn -0.065491 0.785439 -0.615465
vn -0.459863 0.746848 0.480358
vn -0.478764 0.765025 -0.430724
vn -0.614001 0.654087 -0.441784
vn -0.148534 0.572965 -0.806008
vn -0.066477 0.655651 -0.752132
vn -0.143313 0.551685 -0.821648
vn 0.176074 0.206774 0.962415
vn -0.664635 0.005487 0.747148
vn -0.935584 0.175799 -0.306232
vn -0.307954 0.108942 -0.945143
vn 0.184428 0.144540 0.972160
vn 0.000026 0.057291 0.998357
vn -0.820030 0.309909 0.481152
vn -0.640674 0.311219 0.701912
vn -0.718026 0.212202 0.662879
vn -0.934431 0.177980 -0.308484
vn -0.377450 0.185305 -0.907300
vn -0.893273 0.331822 -0.303245
vn -0.728496 0.088047 -0.679368
vn -0.377759 0.180818 -0.908077
vn 0.207399 -0.062068 -0.976286
vn 0.012363 0.019526 0.999733
vn -0.921578 0.211711 0.325379
vn -0.709953 0.113974 -0.694965
vn -0.298810 0.025848 -0.953963
vn -0.836433 0.094236 0.539907
vn -0.732336 0.483868 -0.479120
vn -0.770514 0.351640 0.531655
vn -0.485851 -0.108743 -0.867251
vn -0.941123 0.257731 -0.218776
vn 0.752488 0.239815 -0.613393
vn 0.016855 -0.997404 -0.070008
vn -0.572495 -0.695040 -0.434937
vn -0.966412 -0.170387 0.192398
vn -0.728482 -0.189199 0.658420
vn -0.479436 0.068584 0.874893
vn -0.979743 -0.080017 -0.183578
vn -0.865460 -0.190828 -0.463210
vn -0.765192 -0.200652 -0.611735
vn -0.403180 -0.838714 0.366066
vn -0.519117 0.177875 0.835989
vn -0.997231 -0.039572 0.062964
vn -0.990692 0.025703 -0.133671
vn -0.093964 0.900064 0.425507
vn -0.731461 0.317176 0.603625
vn -0.868993 0.324449 0.373610
vn -0.876205 0.329149 0.352032
vn -0.755676 -0.201259 0.623257
vn -0.613998 -0.280821 0.737662
vn -0.180869 0.913992 0.363188
vn -0.332330 -0.031292 0.942644
vn -0.471804 -0.695181 0.542333
vn -0.794975 0.010792 0.606546
vn -0.307260 -0.840041 -0.447127
vn -0.999345 0.007871 0.035326
vn -0.003445 -0.999404 -0.034341
vn -0.778375 0.129599 0.614277
vn -0.963174 0.067717 0.260212
vn -0.197961 -0.961263 -0.191792
vn -0.640740 0.021812 0.767448
vn -0.840510 0.073839 -0.536741
vn -0.733367 0.204911 -0.648216
vn -0.918237 -0.303279 0.254681
vn -0.466515 -0.438405 0.768222
vn -0.966488 -0.131552 0.220442
vn -0.388364 -0.315331 0.865875
vn -0.651159 0.709577 0.269245
vn -0.984979 0.069535 -0.158053
vn -0.890075 0.435593 -0.134255
vn -0.796362 0.602494 -0.053000
vn -0.749912 0.302898 0.588120
vn -0.209008 0.397467 -0.893496
vn -0.096196 0.484368 -0.869560
vn -0.089291 0.981526 -0.169216
vn 0.076920 0.960197 -0.268523
vn -0.951897 0.038954 0.303932
vn -0.853420 0.118094 0.507669
vn -0.502866 -0.257766 -0.825035
vn -0.892315 0.189490 -0.409716
vn 0.941326 0.264861 0.209175
vn -0.983192 -0.100875 0.152176
vn -0.567745 -0.024081 -0.822852
vn 0.748518 -0.299237 -0.591758
vn -0.379636 -0.128308 0.916195
vn 0.956179 -0.126798 0.263902
vn 0.601039 -0.635449 -0.484723
vn -0.771794 -0.623331 -0.125672
vn -0.484694 -0.719724 -0.497061
vn -0.988829 0.015857 0.148209
vn -0.996923 -0.076324 0.017849
vn -0.403936 0.605220 -0.685962
vn 0.480986 0.872813 0.082757
vn -0.234916 0.637208 -0.734016
vn -0.535014 0.831146 -0.151513
vn 0.636079 -0.222692 -0.738791
vn 0.623034 -0.244756 -0.742915
vn -0.695886 0.009936 -0.718083
vn -0.620452 -0.226457 -0.750837
vn -0.980222 -0.089463 0.176523
vn -0.987724 -0.072013 0.138623
vn -0.289130 0.193125 0.937607
vn 0.918339 -0.300827 0.257211
vn 0.743540 -0.257633 -0.617069
vn 0.738073 -0.404726 -0.539857
vn -0.675978 -0.285481 -0.679378
vn -0.574709 -0.066239 -0.815672
vn -0.987663 0.054116 0.146945
vn -0.984857 0.033205 0.170158
vn -0.397629 -0.075587 0.914427
vn -0.282334 0.045896 0.958218
vn 0.666453 -0.231620 0.708656
vn -0.699179 -0.067167 -0.711785
vn 0.627400 -0.229923 -0.743979
vn 0.823488 -0.080712 0.561563
vn -0.168640 -0.064794 0.983546
vn 0.862785 0.011872 0.505432
vn -0.311842 -0.178644 0.933188
vn -0.609494 0.017997 -0.792587
vn 0.760491 -0.236886 -0.604598
vn 0.860264 -0.390098 -0.328283
vn 0.970665 -0.150718 -0.187331
vn -0.169506 -0.982726 -0.074283
vn -0.435610 -0.896751 -0.077987
vn -0.944986 -0.155872 0.287587
vn -0.946517 -0.213996 0.241477
vn -0.565353 0.662195 0.491807
vn -0.513588 0.713152 0.477118
vn 0.910129 0.410267 0.057855
vn 0.735038 0.669412 0.107734
vn -0.589675 -0.482212 0.647884
vn -0.175336 0.590304 0.787908
vn -0.436747 0.882212 -0.175936
vn -0.333639 0.940767 -0.060360
vn -0.361696 0.929808 -0.068070
vn -0.264746 0.935924 0.232283
vn -0.173882 0.948525 0.264699
vn -0.936125 -0.204062 0.286406
vn -0.782514 -0.582867 0.218947
vn 0.862644 -0.422907 -0.277482
vn 0.377415 -0.861889 0.338683
vn 0.903270 -0.414970 -0.109103
vn 0.850671 -0.505856 -0.143068
vn 0.950450 -0.233380 0.205375
vn 0.472759 0.686666 -0.552257
vn -0.623180 0.770871 -0.131926
vn -0.495348 0.799408 0.339967
vn 0.962172 0.259395 -0.083302
vn 0.959675 0.277389 -0.045603
vn -0.884179 -0.389729 0.257563
vn -0.893301 -0.395233 0.214021
vn -0.496930 0.790414 0.358198
vn -0.820530 -0.390227 0.417676
vn -0.103075 -0.958690 -0.265122
vn 0.026669 -0.974466 -0.222944
vn 0.960010 0.272877 -0.062607
vn -0.978772 -0.179040 0.099751
vn 0.973237 0.209261 0.094973
vn 0.805538 -0.331487 -0.491147
vn -0.232088 -0.854753 -0.464254
vn -0.316783 0.264761 0.910796
vn -0.913835 -0.375550 0.154491
vn -0.026523 -0.878631 -0.476765
vn -0.869486 0.476299 0.130892
vn -0.876386 0.461752 0.136866
vn 0.963885 0.266145 -0.009649
vn -0.514522 0.791305 0.330308
vn -0.843027 -0.418753 0.337567
vn -0.072626 -0.993552 -0.087066
vn 0.904876 0.150889 -0.398036
vn -0.511432 0.365521 -0.777709
vn -0.557986 0.327737 -0.762391
vn -0.856792 -0.027422 0.514932
vn -0.823771 -0.106479 0.556834
vn 0.572435 -0.162172 0.803753
vn 0.470551 -0.276155 0.838045
vn -0.918104 -0.234914 0.319218
vn 0.516226 -0.092386 0.851455
vn -0.496034 -0.088317 -0.863800
vn -0.792579 -0.319568 0.519321
vn -0.785012 -0.208124 0.583473
vn 0.325302 -0.458781 0.826861
vn -0.895045 0.110206 0.432144
vn 0.533320 -0.400571 0.745059
vn 0.889908 0.179994 -0.419124
vn -0.837240 0.052052 0.544352
vn 0.560522 -0.250604 0.789312
vn -0.845025 0.040995 0.533153
vn -0.693009 0.181826 -0.697623
vn -0.471222 -0.024642 -0.881670
vn 0.072630 -0.069182 -0.994957
vn 0.764481 -0.338849 -0.548407
vn 0.579419 -0.284829 0.763640
vn 0.956470 -0.242538 -0.162297
vn -0.569184 0.349460 -0.744250
vn -0.874210 0.130272 0.467747
vn 0.544349 -0.043804 0.837714
vn 0.877204 0.226412 -0.423381
vn -0.712829 0.091087 -0.695398
vn 0.939432 -0.004891 -0.342700
vn 0.895397 -0.027065 -0.444445
vn -0.501334 0.019256 -0.865039
vn -0.820995 -0.249343 0.513610
vn -0.946081 -0.101624 0.307577
vn 0.622531 -0.239503 0.745046
vn 0.574063 -0.268281 0.773613
vn 0.870167 0.323989 -0.371269
vn 0.222978 0.162512 -0.961182
vn 0.978106 -0.166065 0.125424
vn -0.881234 -0.027756 -0.471864
vn -0.022529 -0.997102 -0.072664
vn -0.031248 -0.996998 -0.070843
vn -0.710018 0.674101 0.203623
vn -0.569151 0.349031 -0.744476
vn 0.606094 0.534918 0.588653
vn -0.722454 0.671747 0.163756
vn 0.712495 0.510056 0.481865
vn -0.003697 -0.998270 -0.058687
vn -0.029778 -0.998754 -0.040054
vn -0.648014 0.756972 0.084092
vn -0.332615 0.348243 0.876410
vn 0.664982 0.676758 0.315907
vn -0.060384 -0.991538 -0.114917

f 1/1/1 2/2/1 3/3/1
f 4/4/2 5/5/2 6/6/2
f 4/4/3 6/7/3 7/8/3
f 5/9/4 8/10/4 9/11/4
f 10/12/5 11/13/5 9/14/5
f 6/6/6 11/15/6 7/8/6
f 6/6/7 12/16/7 11/13/7
f 12/17/8 5/5/8 9/14/8
f 6/6/9 5/5/9 12/17/9
f 11/13/10 12/18/10 9/19/10
f 13/20/11 14/21/11 15/22/11
f 14/21/12 13/20/12 16/23/12
f 16/24/13 13/20/13 17/25/13
f 15/22/14 14/21/14 18/26/14
f 14/21/15 19/27/15 18/26/15
f 18/26/16 20/28/16 21/29/16
f 18/26/17 19/27/17 20/28/17
f 20/28/18 3/30/18 21/29/18
f 5/9/19 22/31/19 23/32/19
f 24/33/20 25/34/20 26/35/20
f 27/36/21 25/34/21 9/37/21
f 28/38/22 27/39/22 29/40/22
f 30/41/23 25/34/23 24/33/23
f 25/34/24 30/41/24 10/42/24
f 30/41/25 24/33/25 31/43/25
f 24/33/26 26/44/26 32/45/26
f 33/46/27 34/47/27 5/9/27
f 4/4/28 22/31/28 5/9/28
f 26/35/29 25/34/29 27/39/29
f 33/46/30 35/48/30 34/47/30
f 32/45/31 26/35/31 28/38/31
f 23/32/32 33/46/32 5/9/32
f 26/35/33 27/39/33 28/38/33
f 28/38/34 29/40/34 36/49/34
f 35/50/35 37/51/35 29/40/35
f 28/38/36 38/52/36 32/45/36
f 36/49/37 38/52/37 28/38/37
f 36/49/38 37/53/38 39/54/38
f 39/55/39 37/56/39 40/57/39
f 41/58/40 42/59/40 39/55/40
f 39/55/41 40/57/41 41/58/41
f 36/49/42 29/40/42 37/51/42
f 37/56/43 35/48/43 33/46/43
f 37/56/44 33/46/44 40/57/44
f 40/57/45 33/46/45 43/60/45
f 40/57/46 43/60/46 41/58/46
f 33/46/47 23/32/47 43/60/47
f 44/61/48 45/62/48 30/63/48
f 15/64/49 46/65/49 45/62/49
f 46/66/50 47/67/50 10/68/50
f 47/67/51 7/69/51 11/70/51
f 45/62/52 44/61/52 17/71/52
f 44/61/53 30/63/53 31/72/53
f 13/73/54 15/64/54 45/62/54
f 46/65/55 10/74/55 45/62/55
f 45/62/56 10/74/56 30/63/56
f 47/67/57 11/70/57 10/68/57
f 47/67/58 48/75/58 7/69/58
f 46/66/59 15/76/59 47/67/59
f 18/77/60 47/67/60 15/76/60
f 47/67/61 18/77/61 48/75/61
f 18/77/62 21/78/62 48/75/62
f 13/73/63 45/62/63 17/71/63
f 49/79/64 35/50/64 29/40/64
f 8/80/65 27/81/65 9/82/65
f 34/47/66 50/83/66 5/84/66
f 27/36/67 49/79/67 29/40/67
f 35/48/68 51/85/68 52/86/68
f 35/50/69 49/79/69 51/87/69
f 52/86/70 50/83/70 34/47/70
f 35/48/71 52/86/71 34/47/71
f 5/84/72 50/83/72 8/10/72
f 53/88/73 27/81/73 8/80/73
f 53/88/74 49/79/74 27/36/74
f 54/89/75 55/90/75 56/91/75
f 57/92/76 55/90/76 58/93/76
f 59/94/77 60/95/77 55/90/77
f 61/96/78 54/89/78 56/91/78
f 39/97/79 61/96/79 36/98/79
f 36/98/80 61/96/80 56/91/80
f 36/98/81 56/91/81 38/99/81
f 62/100/82 63/101/82 64/102/82
f 65/103/83 64/102/83 54/89/83
f 61/96/84 65/103/84 54/89/84
f 66/104/85 67/105/85 62/100/85
f 55/90/86 60/95/86 68/106/86
f 69/107/87 68/106/87 60/95/87
f 69/107/88 70/108/88 68/106/88
f 58/109/89 55/90/89 68/106/89
f 68/106/90 71/110/90 58/111/90
f 62/100/91 67/105/91 63/101/91
f 64/102/92 63/101/92 69/107/92
f 70/108/93 71/110/93 68/106/93
f 58/111/94 71/110/94 72/112/94
f 56/91/95 57/92/95 38/113/95
f 55/90/96 57/114/96 56/91/96
f 73/115/97 74/116/97 38/113/97
f 58/109/98 72/112/98 73/115/98
f 57/117/99 58/111/99 73/115/99
f 57/92/100 73/115/100 38/113/100
f 73/115/101 72/112/101 74/116/101
f 39/97/102 75/118/102 61/96/102
f 75/118/103 39/97/103 76/119/103
f 64/102/104 59/94/104 54/89/104
f 64/102/105 60/95/105 59/94/105
f 54/89/106 59/94/106 55/90/106
f 64/102/107 69/107/107 60/95/107
f 65/103/108 66/104/108 62/100/108
f 65/103/109 61/96/109 75/118/109
f 75/118/110 76/119/110 65/103/110
f 66/104/111 65/103/111 76/119/111
f 62/100/112 64/102/112 65/103/112
f 39/97/113 42/120/113 76/119/113
f 77/121/114 76/119/114 42/120/114
f 67/105/115 76/119/115 77/121/115
f 66/104/116 76/119/116 67/105/116
f 9/82/117 25/34/117 10/42/117
f 51/122/118 49/123/118 78/124/118
f 79/125/119 50/126/119 52/127/119
f 52/127/120 51/122/120 79/125/120
f 80/128/121 81/129/121 53/130/121
f 51/122/122 78/124/122 79/125/122
f 82/131/123 50/126/123 79/125/123
f 50/126/124 82/131/124 8/132/124
f 53/133/125 78/124/125 49/123/125
f 83/134/126 84/135/126 85/136/126
f 84/135/127 83/134/127 86/137/127
f 86/137/128 87/138/128 84/135/128
f 88/139/129 84/135/129 87/138/129
f 87/138/130 89/140/130 88/139/130
f 90/141/131 88/139/131 89/140/131
f 91/142/132 92/143/132 90/141/132
f 90/141/133 89/140/133 91/142/133
f 85/136/134 92/144/134 91/145/134
f 91/145/135 83/134/135 85/136/135
f 80/128/136 93/146/136 83/134/136
f 94/147/137 83/134/137 93/146/137
f 93/146/138 87/138/138 94/147/138
f 87/138/139 93/146/139 95/148/139
f 95/148/140 96/149/140 87/138/140
f 89/140/141 87/138/141 96/149/141
f 97/150/142 91/142/142 89/140/142
f 97/151/143 81/129/143 80/128/143
f 8/132/144 82/131/144 80/128/144
f 93/146/145 80/128/145 98/152/145
f 98/152/146 95/148/146 93/146/146
f 95/148/147 82/131/147 79/125/147
f 79/125/148 78/124/148 95/148/148
f 96/149/149 95/148/149 78/124/149
f 78/124/150 53/133/150 81/153/150
f 81/153/151 96/149/151 78/124/151
f 80/128/152 53/130/152 8/154/152
f 94/147/153 87/138/153 86/137/153
f 86/137/154 83/134/154 94/147/154
f 97/151/155 83/134/155 91/145/155
f 89/140/156 96/149/156 97/150/156
f 80/128/157 83/134/157 97/151/157
f 81/153/158 97/150/158 96/149/158
f 82/131/159 95/148/159 98/152/159
f 98/152/160 80/128/160 82/131/160
f 85/136/161 99/155/161 100/156/161
f 99/155/162 85/136/162 84/135/162
f 84/135/163 101/157/163 99/155/163
f 101/157/164 84/135/164 88/139/164
f 88/139/165 90/141/165 101/157/165
f 102/158/166 101/157/166 90/141/166
f 90/141/167 103/159/167 102/158/167
f 103/159/168 90/141/168 92/143/168
f 92/144/169 85/136/169 103/160/169
f 100/156/170 103/160/170 85/136/170
f 104/161/171 105/162/171 106/163/171
f 107/164/172 106/163/172 108/165/172
f 109/166/173 110/167/173 103/168/173
f 109/166/174 111/169/174 104/161/174
f 104/161/175 110/167/175 109/166/175
f 104/161/176 111/169/176 112/170/176
f 113/171/177 112/170/177 111/169/177
f 106/163/178 110/167/178 104/161/178
f 104/161/179 112/170/179 105/162/179
f 105/172/180 113/173/180 111/174/180
f 113/173/181 105/172/181 112/175/181
f 105/172/182 111/174/182 109/176/182
f 109/176/183 106/177/183 105/172/183
f 109/176/184 100/178/184 106/177/184
f 103/179/185 100/178/185 109/176/185
f 102/180/186 103/168/186 110/167/186
f 106/163/187 114/181/187 108/165/187
f 115/182/188 116/183/188 106/177/188
f 116/184/189 117/185/189 118/186/189
f 108/165/190 114/181/190 119/187/190
f 119/187/191 120/188/191 108/165/191
f 118/189/192 121/190/192 114/191/192
f 114/191/193 121/190/193 117/192/193
f 116/193/194 115/194/194 119/187/194
f 120/188/195 119/187/195 115/194/195
f 121/195/196 118/186/196 117/185/196
f 108/165/197 101/196/197 102/180/197
f 115/182/198 106/177/198 100/178/198
f 100/178/199 99/197/199 115/182/199
f 120/188/200 99/198/200 101/196/200
f 106/163/201 107/164/201 110/167/201
f 108/165/202 120/188/202 101/196/202
f 120/188/203 115/194/203 99/198/203
f 107/164/204 102/180/204 110/167/204
f 102/180/205 107/164/205 108/165/205
f 118/199/206 106/177/206 116/183/206
f 114/181/207 106/163/207 118/200/207
f 114/191/208 117/192/208 119/201/208
f 117/192/209 116/202/209 119/201/209
f 122/203/210 123/204/210 124/205/210
f 125/206/211 126/207/211 123/208/211
f 125/206/212 123/208/212 127/209/212
f 125/210/213 128/211/213 126/212/213
f 128/211/214 129/213/214 126/212/214
f 128/214/215 124/215/215 129/216/215
f 122/217/216 124/215/216 128/214/216
f 130/218/217 128/211/217 125/219/217
f 131/220/218 122/221/218 130/222/218
f 132/223/219 125/224/219 127/225/219
f 132/226/220 131/227/220 125/219/220
f 133/228/221 131/227/221 132/226/221
f 133/229/222 122/221/222 131/220/222
f 130/218/223 125/219/223 131/227/223
f 128/214/224 130/222/224 122/221/224
f 127/209/225 123/204/225 122/203/225
f 16/230/226 133/228/226 14/231/226
f 16/232/227 3/3/227 133/229/227
f 14/231/228 133/228/228 132/226/228
f 14/233/229 132/223/229 19/234/229
f 132/223/230 127/225/230 19/234/230
f 20/235/231 19/234/231 127/225/231
f 20/235/232 127/225/232 122/236/232
f 3/3/233 122/221/233 133/229/233
f 3/237/234 20/235/234 122/236/234
f 134/238/235 135/239/235 136/240/235
f 137/241/236 135/242/236 134/243/236
f 138/244/237 139/245/237 137/246/237
f 138/247/238 136/248/238 139/249/238
f 134/238/239 136/240/239 123/208/239
f 138/247/240 123/250/240 136/248/240
f 123/250/241 138/247/241 124/251/241
f 134/238/242 123/208/242 126/252/242
f 129/253/243 134/243/243 126/254/243
f 137/241/244 134/243/244 129/253/244
f 138/244/245 137/246/245 129/255/245
f 138/244/246 129/255/246 124/256/246
f 136/257/247 140/258/247 139/259/247
f 136/257/248 141/260/248 140/258/248
f 142/261/249 139/259/249 140/258/249
f 135/262/250 143/263/250 141/260/250
f 141/264/251 143/265/251 142/266/251
f 142/266/252 140/267/252 141/264/252
f 137/268/253 143/263/253 135/262/253
f 135/262/254 141/260/254 136/257/254
f 139/259/255 142/261/255 137/268/255
f 137/268/256 144/269/256 143/263/256
f 137/268/257 142/261/257 144/269/257
f 143/265/258 145/270/258 146/271/258
f 146/271/259 142/266/259 143/265/259
f 143/263/260 144/269/260 145/272/260
f 144/269/261 146/273/261 145/272/261
f 146/273/262 144/269/262 142/261/262
f 3/274/263 16/275/263 17/276/263
f 147/5/264 4/4/264 148/6/264
f 148/7/265 4/4/265 7/8/265
f 149/10/266 147/9/266 150/11/266
f 151/13/267 152/12/267 150/14/267
f 151/15/268 148/6/268 7/8/268
f 153/16/269 148/6/269 151/13/269
f 147/5/270 153/17/270 150/14/270
f 147/5/271 148/6/271 153/17/271
f 153/18/272 151/13/272 150/19/272
f 154/21/273 155/20/273 156/22/273
f 155/20/274 154/21/274 157/23/274
f 155/20/275 157/24/275 17/25/275
f 154/21/276 156/22/276 158/26/276
f 159/27/277 154/21/277 158/26/277
f 160/28/278 158/26/278 21/29/278
f 159/27/279 158/26/279 160/28/279
f 3/30/280 160/28/280 21/29/280
f 22/31/281 147/9/281 23/32/281
f 161/34/282 24/33/282 162/35/282
f 161/34/283 163/36/283 150/37/283
f 163/39/284 164/38/284 165/40/284
f 161/34/285 166/41/285 24/33/285
f 166/41/286 161/34/286 152/42/286
f 24/33/287 166/41/287 31/43/287
f 162/44/288 24/33/288 32/45/288
f 167/47/289 168/46/289 147/9/289
f 22/31/290 4/4/290 147/9/290
f 161/34/291 162/35/291 163/39/291
f 169/48/292 168/46/292 167/47/292
f 162/35/293 32/45/293 164/38/293
f 168/46/294 23/32/294 147/9/294
f 163/39/295 162/35/295 164/38/295
f 165/40/296 164/38/296 170/49/296
f 171/51/297 169/50/297 165/40/297
f 38/52/298 164/38/298 32/45/298
f 38/52/299 170/49/299 164/38/299
f 171/53/300 170/49/300 172/54/300
f 171/56/301 172/55/301 173/57/301
f 42/59/302 41/58/302 172/55/302
f 173/57/303 172/55/303 41/58/303
f 165/40/304 170/49/304 171/51/304
f 169/48/305 171/56/305 168/46/305
f 168/46/306 171/56/306 173/57/306
f 168/46/307 173/57/307 43/60/307
f 43/60/308 173/57/308 41/58/308
f 23/32/309 168/46/309 43/60/309
f 174/62/310 44/61/310 166/63/310
f 175/65/311 156/64/311 174/62/311
f 176/67/312 175/66/312 152/68/312
f 7/69/313 176/67/313 151/70/313
f 44/61/314 174/62/314 17/71/314
f 166/63/315 44/61/315 31/72/315
f 156/64/316 155/73/316 174/62/316
f 152/74/317 175/65/317 174/62/317
f 152/74/318 174/62/318 166/63/318
f 151/70/319 176/67/319 152/68/319
f 48/75/320 176/67/320 7/69/320
f 156/76/321 175/66/321 176/67/321
f 176/67/322 158/77/322 156/76/322
f 158/77/323 176/67/323 48/75/323
f 21/78/324 158/77/324 48/75/324
f 174/62/325 155/73/325 17/71/325
f 169/50/326 177/79/326 165/40/326
f 163/81/327 149/80/327 150/82/327
f 178/83/328 167/47/328 147/84/328
f 177/79/329 163/36/329 165/40/329
f 179/85/330 169/48/330 180/86/330
f 177/79/331 169/50/331 179/87/331
f 178/83/332 180/86/332 167/47/332
f 180/86/333 169/48/333 167/47/333
f 178/83/334 147/84/334 149/10/334
f 163/81/335 181/88/335 149/80/335
f 177/79/336 181/88/336 163/36/336
f 182/90/337 183/89/337 184/91/337
f 182/90/338 185/92/338 186/93/338
f 187/95/339 188/94/339 182/90/339
f 183/89/340 189/96/340 184/91/340
f 189/96/341 172/97/341 170/98/341
f 189/96/342 170/98/342 184/91/342
f 184/91/343 170/98/343 38/99/343
f 63/101/344 190/100/344 191/102/344
f 191/102/345 192/103/345 183/89/345
f 192/103/346 189/96/346 183/89/346
f 67/105/347 193/104/347 190/100/347
f 187/95/348 182/90/348 194/106/348
f 194/106/349 69/107/349 187/95/349
f 70/108/350 69/107/350 194/106/350
f 182/90/351 186/109/351 194/106/351
f 71/110/352 194/106/352 186/111/352
f 67/105/353 190/100/353 63/101/353
f 63/101/354 191/102/354 69/107/354
f 71/110/355 70/108/355 194/106/355
f 71/110/356 186/111/356 72/112/356
f 185/92/357 184/91/357 38/113/357
f 185/114/358 182/90/358 184/91/358
f 74/116/359 195/115/359 38/113/359
f 72/112/360 186/109/360 195/115/360
f 186/111/361 185/117/361 195/115/361
f 195/115/362 185/92/362 38/113/362
f 72/112/363 195/115/363 74/116/363
f 196/118/364 172/97/364 189/96/364
f 172/97/365 196/118/365 197/119/365
f 188/94/366 191/102/366 183/89/366
f 187/95/367 191/102/367 188/94/367
f 188/94/368 183/89/368 182/90/368
f 69/107/369 191/102/369 187/95/369
f 193/104/370 192/103/370 190/100/370
f 189/96/371 192/103/371 196/118/371
f 197/119/372 196/118/372 192/103/372
f 192/103/373 193/104/373 197/119/373
f 191/102/374 190/100/374 192/103/374
f 42/120/375 172/97/375 197/119/375
f 197/119/376 77/121/376 42/120/376
f 197/119/377 67/105/377 77/121/377
f 197/119/378 193/104/378 67/105/378
f 161/34/379 150/82/379 152/42/379
f 177/123/380 179/122/380 198/124/380
f 178/126/381 199/125/381 180/127/381
f 179/122/382 180/127/382 199/125/382
f 200/129/383 201/128/383 181/130/383
f 198/124/384 179/122/384 199/125/384
f 178/126/385 202/131/385 199/125/385
f 202/131/386 178/126/386 149/132/386
f 198/124/387 181/133/387 177/123/387
f 203/135/388 204/134/388 205/136/388
f 204/134/389 203/135/389 206/137/389
f 207/138/390 206/137/390 203/135/390
f 203/135/391 208/139/391 207/138/391
f 209/140/392 207/138/392 208/139/392
f 208/139/393 210/141/393 209/140/393
f 211/143/394 212/142/394 210/141/394
f 209/140/395 210/141/395 212/142/395
f 211/144/396 205/136/396 212/145/396
f 204/134/397 212/145/397 205/136/397
f 213/146/398 201/128/398 204/134/398
f 204/134/399 214/147/399 213/146/399
f 207/138/400 213/146/400 214/147/400
f 213/146/401 207/138/401 215/148/401
f 216/149/402 215/148/402 207/138/402
f 207/138/403 209/140/403 216/149/403
f 212/142/404 217/150/404 209/140/404
f 200/129/405 217/151/405 201/128/405
f 202/131/406 149/132/406 201/128/406
f 201/128/407 213/146/407 218/152/407
f 215/148/408 218/152/408 213/146/408
f 202/131/409 215/148/409 199/125/409
f 198/124/410 199/125/410 215/148/410
f 215/148/411 216/149/411 198/124/411
f 181/133/412 198/124/412 200/153/412
f 216/149/413 200/153/413 198/124/413
f 181/130/414 201/128/414 149/154/414
f 207/138/415 214/147/415 206/137/415
f 204/134/416 206/137/416 214/147/416
f 204/134/417 217/151/417 212/145/417
f 216/149/418 209/140/418 217/150/418
f 204/134/419 201/128/419 217/151/419
f 217/150/420 200/153/420 216/149/420
f 215/148/421 202/131/421 218/152/421
f 201/128/422 218/152/422 202/131/422
f 219/155/423 205/136/423 220/156/423
f 205/136/424 219/155/424 203/135/424
f 221/157/425 203/135/425 219/155/425
f 203/135/426 221/157/426 208/139/426
f 210/141/427 208/139/427 221/157/427
f 221/157/428 222/158/428 210/141/428
f 223/159/429 210/141/429 222/158/429
f 210/141/430 223/159/430 211/143/430
f 205/136/431 211/144/431 223/160/431
f 223/160/432 220/156/432 205/136/432
f 224/162/433 225/161/433 226/163/433
f 226/163/434 227/164/434 228/165/434
f 229/167/435 230/166/435 223/168/435
f 231/169/436 230/166/436 225/161/436
f 229/167/437 225/161/437 230/166/437
f 231/169/438 225/161/438 232/170/438
f 232/170/439 233/171/439 231/169/439
f 229/167/440 226/163/440 225/161/440
f 232/170/441 225/161/441 224/162/441
f 233/173/442 224/172/442 231/174/442
f 224/172/443 233/173/443 232/175/443
f 231/174/444 224/172/444 230/176/444
f 226/177/445 230/176/445 224/172/445
f 220/178/446 230/176/446 226/177/446
f 220/178/447 223/179/447 230/176/447
f 223/168/448 222/180/448 229/167/448
f 234/181/449 226/163/449 228/165/449
f 235/183/450 236/182/450 226/177/450
f 237/185/451 235/184/451 238/186/451
f 234/181/452 228/165/452 239/187/452
f 240/188/453 239/187/453 228/165/453
f 241/190/454 238/189/454 234/191/454
f 241/190/455 234/191/455 237/192/455
f 236/194/456 235/193/456 239/187/456
f 239/187/457 240/188/457 236/194/457
f 238/186/458 241/195/458 237/185/458
f 221/196/459 228/165/459 222/180/459
f 226/177/460 236/182/460 220/178/460
f 219/197/461 220/178/461 236/182/461
f 219/198/462 240/188/462 221/196/462
f 227/164/463 226/163/463 229/167/463
f 240/188/464 228/165/464 221/196/464
f 236/194/465 240/188/465 219/198/465
f 222/180/466 227/164/466 229/167/466
f 227/164/467 222/180/467 228/165/467
f 226/177/468 238/199/468 235/183/468
f 226/163/469 234/181/469 238/200/469
f 237/192/470 234/191/470 239/201/470
f 235/202/471 237/192/471 239/201/471
f 242/204/472 243/203/472 244/205/472
f 245/207/473 246/206/473 242/208/473
f 242/208/474 246/206/474 247/209/474
f 248/211/475 246/210/475 245/212/475
f 249/213/476 248/211/476 245/212/476
f 244/215/477 248/214/477 249/216/477
f 244/215/478 243/217/478 248/214/478
f 248/211/479 250/218/479 246/219/479
f 243/221/480 251/220/480 250/222/480
f 246/224/481 252/223/481 247/225/481
f 251/227/482 252/226/482 246/219/482
f 251/227/483 253/228/483 252/226/483
f 243/221/484 253/229/484 251/220/484
f 246/219/485 250/218/485 251/227/485
f 250/222/486 248/214/486 243/221/486
f 242/204/487 247/209/487 243/203/487
f 253/228/488 157/230/488 154/231/488
f 3/3/489 157/232/489 253/229/489
f 253/228/490 154/231/490 252/226/490
f 252/223/491 154/233/491 159/234/491
f 247/225/492 252/223/492 159/234/492
f 159/234/493 160/235/493 247/225/493
f 247/225/494 160/235/494 243/236/494
f 243/221/495 3/3/495 253/229/495
f 160/235/496 3/237/496 243/236/496
f 254/239/497 255/238/497 256/240/497
f 254/242/498 257/241/498 255/243/498
f 258/245/499 259/244/499 257/246/499
f 256/248/500 259/247/500 258/249/500
f 256/240/501 255/238/501 242/208/501
f 242/250/502 259/247/502 256/248/502
f 259/247/503 242/250/503 244/251/503
f 242/208/504 255/238/504 245/252/504
f 255/243/505 249/253/505 245/254/505
f 255/243/506 257/241/506 249/253/506
f 257/246/507 259/244/507 249/255/507
f 249/255/508 259/244/508 244/256/508
f 260/258/509 256/257/509 258/259/509
f 261/260/510 256/257/510 260/258/510
f 258/259/511 262/261/511 260/258/511
f 263/263/512 254/262/512 261/260/512
f 263/265/513 261/264/513 262/266/513
f 260/267/514 262/266/514 261/264/514
f 263/263/515 257/268/515 254/262/515
f 261/260/516 254/262/516 256/257/516
f 262/261/517 258/259/517 257/268/517
f 264/269/518 257/268/518 263/263/518
f 262/261/519 257/268/519 264/269/519
f 265/270/520 263/265/520 266/271/520
f 262/266/521 266/271/521 263/265/521
f 264/269/522 263/263/522 265/272/522
f 266/273/523 264/269/523 265/272/523
f 264/269/524 266/273/524 262/261/524
f 157/275/525 3/274/525 17/276/525

o 
usemtl axe.001
s off

v -11.654620 90.666618 19.565680
v -10.719110 83.447678 20.360981
v -12.785320 90.776283 28.037220
v -12.360810 87.680504 26.847342
v -12.716110 90.017021 30.037319
v -12.291611 86.921242 28.847439
v -11.078449 84.345123 36.218342
v -10.358520 79.491432 30.782890
v -12.482340 96.702942 21.885769
v -11.906180 90.381432 38.538422
v -13.202271 101.556618 27.321209
v -13.209820 93.872070 29.227089
v -13.140620 93.112801 31.227190
v -12.841690 97.600365 37.743118
v -10.420180 87.935249 26.876900
v -10.844680 91.031036 28.066780
v -10.350980 87.175987 28.877001
v -10.775480 90.271767 30.066881
v -11.269190 94.126808 29.256649
v -11.199990 93.367554 31.256760
v -8.124750 56.788292 14.973821
v -8.055550 56.029018 16.973919
v -6.114910 56.283768 17.003481
v -6.184110 57.043030 15.003380
v -13.098850 100.139038 32.747608
v -3.638840 23.819399 4.594030
v -1.801360 24.173141 4.553900
v -1.767410 24.833401 2.623490
v -3.708050 24.578650 2.593930

vt 0.033358 0.643728
vt 0.190411 0.923560
vt 0.402692 0.503812
vt 0.402692 0.647326
vt 0.408249 0.287497
vt 0.408249 0.367848
vt 0.492649 0.287497
vt 0.492649 0.367848
vt 0.403043 0.503812
vt 0.403044 0.647326
vt 0.033710 0.643728
vt 0.190763 0.923560
vt 0.033358 0.363896
vt 0.033710 0.363896
vt 0.190411 0.084064
vt 0.402692 0.360297
vt 0.408249 0.207147
vt 0.492649 0.207147
vt 0.403043 0.360297
vt 0.190763 0.084064
vt 0.408248 1.036942
vt 0.492649 1.036942
vt 0.483600 0.371280
vt 0.402049 0.371280
vt 0.402049 1.040375
vt 0.483600 1.040375
vt 0.450449 0.037941
vt 0.483600 0.210579
vt 0.402049 0.210579
vt 0.442825 0.041374
vt 0.000000 1.000000

vn -0.981486 -0.141422 -0.129168
vn -0.975656 -0.051888 -0.213079
vn -0.991381 -0.130138 -0.015101
vn -0.979741 -0.173075 0.100763
vn -0.969585 -0.231800 0.078567
vn -0.987750 -0.085196 -0.130732
vn -0.993761 -0.025926 -0.108474
vn -0.961933 -0.202456 0.183563
vn -0.988153 -0.117131 0.099167
vn 0.961933 0.202456 -0.183564
vn 0.988153 0.117131 -0.099167
vn 0.991381 0.130136 0.015100
vn 0.993761 0.025927 0.108473
vn 0.987751 0.085195 0.130731
vn 0.979741 0.173075 -0.100763
vn 0.969586 0.231800 -0.078567
vn 0.981486 0.141422 0.129169
vn 0.975657 0.051891 0.213076
vn 0.099304 -0.821628 0.561307
vn 0.046338 -0.240507 -0.969541
vn -0.099308 0.821629 -0.561305
vn -0.046336 0.240507 0.969541
vn -0.032329 0.354713 -0.934416
vn 0.032331 -0.354713 0.934416
vn -0.999419 -0.001425 0.034041
vn 0.964460 0.256373 0.063953
vn 0.012883 -0.211552 0.977282
vn -0.051040 0.489818 -0.870329
vn 0.059379 -0.352468 0.933938
vn 0.992017 0.121187 0.034870
vn 0.128131 -0.939075 -0.318938
vn 0.169260 -0.919458 -0.354891

f 267/277/526 268/278/526 269/279/526
f 270/280/527 269/279/527 268/278/527
f 269/281/528 270/282/528 271/283/528
f 272/284/528 271/283/528 270/282/528
f 271/285/529 272/286/529 273/287/529
f 274/288/530 273/287/530 272/286/530
f 275/289/531 267/277/531 269/279/531
f 273/287/529 276/290/529 271/285/529
f 277/291/532 275/289/532 278/292/532
f 269/279/531 278/292/531 275/289/531
f 278/293/528 269/281/528 279/294/528
f 271/283/528 279/294/528 269/281/528
f 279/295/533 271/285/533 280/296/533
f 276/290/534 280/296/534 271/285/534
f 281/280/535 268/278/535 282/279/535
f 267/277/536 282/279/536 268/278/536
f 283/284/537 281/282/537 284/283/537
f 282/281/537 284/283/537 281/282/537
f 274/288/538 283/286/538 273/287/538
f 284/285/539 273/287/539 283/286/539
f 282/279/540 267/277/540 275/289/540
f 273/287/539 284/285/539 276/290/539
f 282/279/540 275/289/540 285/292/540
f 277/291/541 285/292/541 275/289/541
f 284/283/537 282/281/537 286/294/537
f 285/293/537 286/294/537 282/281/537
f 276/290/542 284/285/542 280/296/542
f 286/295/543 280/296/543 284/285/543
f 270/280/544 268/278/544 281/280/544
f 283/286/545 274/288/545 272/286/545
f 279/295/546 280/296/546 286/295/546
f 285/292/547 277/291/547 278/292/547
f 272/284/528 270/282/528 287/297/528
f 287/297/528 288/298/528 272/284/528
f 281/282/537 283/284/537 289/298/537
f 289/298/537 290/297/537 281/282/537
f 270/299/548 281/300/548 290/301/548
f 290/301/548 287/302/548 270/299/548
f 283/300/549 272/299/549 288/302/549
f 288/302/549 289/301/549 283/300/549
f 278/293/550 279/294/550 291/303/550
f 286/294/551 285/293/551 291/303/551
f 279/304/552 286/305/552 291/306/552
f 285/305/553 278/304/553 291/306/553
f 289/298/554 288/297/554 292/298/554 293/307/554
f 287/297/548 290/298/548 294/297/548 295/307/548
f 290/297/555 289/298/555 293/297/555 294/307/555
f 288/298/528 287/297/528 295/298/528 292/307/528
f 294/297/556 293/298/556 295/297/556
f 292/298/557 295/297/557 293/298/557

