mtllib anim_skel_walk_sword_000051.mtl

o msked
usemtl shield.001
s off

v -14.678640 37.041870 1.966720
v -15.645229 37.688301 2.831180
v -7.702600 41.853638 21.711891
v -15.942660 36.265339 2.682950
v -14.425171 35.697361 2.901690
v -15.598101 37.102600 2.286620
v -17.390221 40.820087 3.036050
v -16.249300 35.767391 -2.257220
v -17.236101 35.949749 -1.923200
v -17.532789 35.005928 -1.549300
v -12.436800 32.736870 3.322310
v -14.907980 35.976429 2.326500
v -16.545980 34.823570 -1.883320

vt 0.856301 0.265607
vt 0.764624 0.294094
vt 0.850192 0.976825
vt 0.858158 0.265976
vt 0.949099 0.282658
vt 0.742843 0.255302
vt 0.692067 0.254404
vt 0.541488 0.402851
vt 0.893183 0.241135
vt 0.851577 0.242328
vt 0.847036 0.027305
vt 0.893183 0.027305
vt 0.742053 0.256467
vt 0.849952 0.242815
vt 0.544321 0.402080
vt 0.692550 0.250793
vt 0.800888 0.241135
vt 0.800888 0.027305
vt 0.697126 0.324563
vt 0.698569 0.321089

vn 0.306368 0.894288 -0.326173
vn -0.922310 0.155949 0.353587
vn 0.945360 -0.046209 -0.322738
vn -0.371104 -0.835152 0.405960
vn -0.326470 0.033050 -0.944630
vn -0.033097 0.960182 -0.277407
vn 0.077592 0.953480 -0.291301
vn -0.597711 -0.128615 -0.791328
vn -0.893233 0.377515 0.244167
vn -0.871657 0.450303 0.193499
vn -0.351349 -0.247284 -0.902997
vn -0.029387 -0.314109 -0.948932
vn 0.923222 -0.285556 -0.257137
vn 0.893234 -0.377511 -0.244168
vn -0.404884 -0.536461 -0.740458
vn -0.077597 -0.953479 0.291302
vn -0.145806 -0.931909 0.332094
vn -0.050296 -0.093073 0.994388
vn -0.120410 0.059916 0.990915
vn 0.744732 0.379025 0.549285
vn 0.646109 0.514100 0.564132

f 1/1/1 2/2/1 3/3/1
f 3/3/2 2/2/2 4/4/2
f 1/1/3 3/3/3 5/5/3
f 3/3/4 4/4/4 5/5/4
f 1/6/5 6/7/5 7/8/5
f 6/9/6 1/10/6 8/11/6
f 8/11/7 9/12/7 6/9/7
f 7/8/8 6/7/8 4/13/8
f 6/9/9 9/12/9 10/11/9
f 10/11/10 4/14/10 6/9/10
f 9/12/11 8/11/11 10/11/11
f 1/6/12 11/15/12 12/16/12
f 8/11/13 1/10/13 12/17/13
f 8/11/14 12/17/14 13/18/14
f 11/15/15 4/13/15 12/16/15
f 12/17/16 10/11/16 13/18/16
f 10/11/17 12/17/17 4/14/17
f 13/18/11 10/11/11 8/11/11
f 4/13/18 2/19/18 7/8/18
f 11/15/19 5/20/19 4/13/19
f 2/19/20 1/6/20 7/8/20
f 1/6/21 5/20/21 11/15/21

