mtllib anim_spider_000032.mtl

o spider_walk_00
usemtl spidsd
s off

v -0.095340 43.713650 -14.598050
v -0.001710 47.666740 -3.513910
v 17.361359 35.537540 -3.558800
v -0.168390 34.214027 -24.147930
v 0.019030 38.498280 7.263021
v 11.452000 33.718559 8.721960
v 7.795510 30.581301 -18.462259
v 17.863529 31.924110 0.428020
v 13.302719 26.095699 11.929111
v 11.510449 17.722980 10.527740
v 6.533760 16.274130 17.741470
v 0.135890 23.169178 23.065830
v 10.899910 31.338230 19.695660
v 10.472290 23.842800 -12.654420
v 9.105030 14.224690 -7.281230
v 16.757940 19.232420 -2.466500
v 1.789790 10.246830 -23.027470
v 4.779450 29.105661 -30.441849
v -0.131350 19.125231 -19.512520
v 10.649570 10.085870 -21.363781
v 8.033530 28.915211 -18.831421
v 7.825250 11.088820 -30.711870
v 0.285290 1.618260 -29.380400
v 21.520060 30.396631 -21.097919
v 21.250132 38.830959 -18.495981
v 6.297590 15.243030 -13.736071
v 23.266102 32.881371 -12.277770
v 39.957329 36.556389 -29.617680
v 44.654690 39.690773 -24.972200
v 40.161472 34.433460 -22.120600
v 40.759220 0.551920 -39.168312
v 22.174240 47.665749 -6.122930
v 16.362459 57.320141 -5.085410
v 21.662590 53.616371 2.058310
v 14.924801 18.964581 5.629790
v 32.077190 62.148590 -9.360960
v 34.971767 70.492775 -5.707830
v 34.142780 64.839317 -0.261690
v 59.081230 29.746561 -6.591130
v 27.683811 32.076641 12.774130
v 22.227539 40.329430 18.275110
v 23.753170 31.330530 22.391100
v 43.223320 34.227070 18.330780
v 44.095081 38.721088 26.084280
v 36.364429 25.495890 25.537661
v 57.400322 -0.485780 24.824121
v 7.436530 41.291710 14.546090
v -0.002000 14.952280 -4.690150
v 6.346630 16.787640 -17.340040
v 17.251989 25.929798 -25.509800
v 10.802370 27.320831 -28.798260
v 11.408989 18.702940 -25.868839
v 18.672979 10.841829 -41.263409
v 11.957140 15.807570 -42.632988
v 12.496590 9.978810 -36.567760
v 8.442210 5.659030 -47.603550
v 2.406380 8.406650 -46.533241
v 3.620830 4.367830 -43.500790
v -17.378010 35.535439 -3.284250
v -11.432650 33.720310 8.719729
v -8.282290 30.384951 -18.464140
v -17.541111 26.333069 -0.519660
v -13.246079 26.060390 11.994751
v -7.202580 13.375330 9.062450
v -6.293630 16.237839 17.827379
v -10.718360 31.277069 19.840471
v -10.398291 23.933470 -12.394609
v -9.250370 14.232640 -7.487720
v -15.103910 16.497219 -3.574010
v -2.269090 10.246469 -21.770889
v -5.138150 29.104900 -30.371599
v -10.916739 10.083970 -21.166660
v -8.286320 28.913801 -18.705900
v -8.232680 11.087530 -30.555780
v -0.672300 1.618180 -29.373320
v -13.752480 33.106998 -24.725580
v -6.535960 38.069099 -23.247791
v -6.377380 15.392880 -13.752750
v -12.955740 37.941990 -17.148741
v -19.988230 48.584381 -35.711399
v -20.947020 54.837872 -32.461678
v -23.212650 50.681618 -27.769529
v -41.085320 20.864880 -47.941341
v -29.273451 32.615330 -5.609040
v -28.885769 43.579788 -2.778520
v -29.908901 36.355331 3.832560
v -11.017990 14.102469 4.525120
v -48.305923 36.995842 -5.102580
v -51.502602 42.294540 1.646370
v -44.903049 38.201099 4.035590
v -53.852001 -5.027230 2.487040
v -19.124100 49.503460 11.793040
v -8.841920 52.391529 16.542980
v -15.187950 47.547688 21.935890
v -29.241951 61.291199 17.258511
v -27.852919 66.217148 24.780920
v -27.699940 50.914211 24.310669
v -55.594631 26.085609 27.297329
v -7.398410 41.241241 14.640930
v -6.574490 16.786530 -17.240690
v -17.583160 25.926819 -25.213581
v -11.183640 27.319010 -28.597870
v -11.890850 18.700951 -26.029110
v -19.237301 10.838831 -40.944420
v -12.514900 15.805730 -42.384792
v -12.991249 9.976800 -36.341480
v -9.212150 5.657969 -47.491112
v -2.359480 8.406560 -46.727440
v -4.196470 4.367410 -43.627899
v 5.517900 27.253708 21.380751
v 9.168221 35.443470 16.983170
v 17.430349 30.157799 26.525459
v 12.048340 21.155159 26.586102
v 23.960781 23.096722 32.165710
v 0.001620 39.257969 10.815330
v 3.719080 40.274841 12.680711
v -5.291230 27.223129 21.453150
v -9.058391 36.916180 16.855780
v -17.149921 25.336950 25.865780
v -11.722790 21.060629 26.730801
v -23.581482 22.907660 32.455120
v -3.698400 40.249599 12.728129
v 10.407030 59.717552 48.130951
v 17.232891 53.638100 49.012798
v 22.133301 51.873329 40.062134
v 11.098690 58.019592 39.316601
v 0.110570 63.282543 46.794060
v 0.064070 64.165833 38.571083
v 21.449261 50.100151 31.124321
v 11.790340 56.321602 30.502270
v 0.017570 62.534660 29.893082
v 14.345890 21.088711 52.577137
v 0.335570 17.934731 52.966850
v 0.235730 18.574169 36.986660
v 13.197121 21.121941 39.581619
v 22.855989 28.911491 53.032299
v 26.158501 23.669710 42.176582
v 22.752981 38.940399 50.600121
v 24.145899 37.771523 41.119350
v 23.761940 36.602638 31.638588
v 12.434950 34.402710 61.076469
v 0.340050 31.493471 62.554020
v 10.524010 49.345150 60.577003
v 0.344530 46.295589 65.270241
v -11.696980 56.228199 30.645239
v -10.911430 57.932049 39.450581
v -10.125870 59.635891 48.255920
v -21.297668 49.930157 31.384529
v -21.886921 51.698269 40.330090
v -16.891710 53.474789 49.262772
v -25.661631 23.463640 42.492020
v -12.712950 21.018902 39.739338
v -22.241531 28.688410 53.373791
v -13.703099 20.977171 52.747879
v -23.496498 36.414711 31.926260
v -23.774271 37.580959 41.411053
v -22.275160 38.747200 50.895840
v 0.199070 53.550037 59.613590
v -10.008889 49.263500 60.701988
v -11.856001 34.306122 61.224331
v 15.499820 45.047371 23.215960
v 7.748870 52.255501 23.929638
v -0.002090 59.463631 24.643322
v 3.707390 48.189392 17.357010
v -0.021750 56.392609 19.393551
v 16.465080 35.260921 24.435619
v -3.710080 48.159901 17.402161
v -7.703530 52.194054 24.023701
v -15.404969 44.924469 23.404081
v -16.277451 35.130711 24.634932
v 0.004500 44.930149 14.282060

vt 0.775345 0.341683
vt 0.775876 0.247975
vt 0.859220 0.247112
vt 0.772128 0.424221
vt 0.775890 0.154291
vt 0.859827 0.141903
vt 0.875327 0.375553
vt 0.892505 0.219133
vt 0.897773 0.114296
vt 0.953133 0.141305
vt 0.949949 0.066123
vt 0.977975 0.018496
vt 0.873031 0.047317
vt 0.914347 0.327191
vt 0.946247 0.279296
vt 0.925279 0.240961
vt 0.931538 0.459675
vt 0.768930 0.471854
vt 0.800536 0.491124
vt 0.867513 0.453579
vt 0.477818 0.544580
vt 0.495999 0.473751
vt 0.457462 0.507453
vt 0.563267 0.479394
vt 0.793378 0.515313
vt 0.929596 0.495258
vt 0.990614 0.441185
vt 0.411300 0.524885
vt 0.939905 0.518219
vt 0.290756 0.676185
vt 0.333986 0.544775
vt 0.326637 0.668117
vt 0.294440 0.545074
vt 0.419736 0.674328
vt 0.359239 0.546980
vt 0.362150 0.676992
vt 0.424507 0.550840
vt 0.353113 0.548934
vt 0.354937 0.672422
vt 0.290943 0.859778
vt 0.324924 0.863033
vt 0.413481 0.864260
vt 0.355742 0.861684
vt 0.348682 0.862354
vt 0.311373 1.000258
vt 0.376172 1.002164
vt 0.159496 0.674128
vt 0.185555 0.550104
vt 0.185681 0.666147
vt 0.160294 0.542513
vt 0.284786 0.672128
vt 0.226999 0.546325
vt 0.226201 0.677940
vt 0.281807 0.552058
vt 0.215102 0.548247
vt 0.218081 0.668317
vt 0.150111 0.861017
vt 0.177469 0.863497
vt 0.280998 0.861230
vt 0.216815 0.864829
vt 0.214293 0.857419
vt 0.174267 0.992955
vt 0.240972 0.996766
vt 0.876456 0.657379
vt 0.910185 0.556160
vt 0.913662 0.658670
vt 0.876159 0.553592
vt 0.989137 0.661685
vt 0.941977 0.557404
vt 0.942685 0.660091
vt 0.991449 0.552362
vt 0.936903 0.552947
vt 0.935408 0.657873
vt 0.871892 0.848804
vt 0.899388 0.854490
vt 0.985760 0.847089
vt 0.939923 0.850417
vt 0.935080 0.844376
vt 0.891788 0.987324
vt 0.959816 0.991136
vt 0.811870 0.097918
vt 0.941640 0.180557
vt 0.977933 0.261082
vt 0.954340 0.335728
vt 0.960961 0.365731
vt 0.025670 0.875244
vt 0.023983 0.951413
vt 0.008915 0.884464
vt 0.888702 0.378592
vt 0.932696 0.369601
vt 0.967644 0.389437
vt 0.893416 0.385760
vt 0.979004 0.388825
vt 0.122691 0.772029
vt 0.105427 0.782143
vt 0.069123 0.732106
vt 0.076559 0.701409
vt 0.089433 0.808942
vt 0.055780 0.764742
vt 0.447575 0.041580
vt 0.455426 0.007181
vt 0.364876 0.024518
vt 0.386764 0.056902
vt 0.117731 0.945641
vt 0.103867 0.925337
vt 0.088386 0.917024
vt 0.511792 0.059264
vt 0.553387 0.034310
vt 0.062154 0.991654
vt 0.037597 0.984105
vt 0.036497 0.970812
vt 0.525175 0.122252
vt 0.562876 0.109196
vt 0.538257 0.138029
vt 0.692644 0.245132
vt 0.692111 0.141629
vt 0.676452 0.374359
vt 0.659497 0.216523
vt 0.653969 0.113403
vt 0.598608 0.140783
vt 0.601372 0.065256
vt 0.571845 0.018496
vt 0.678986 0.045939
vt 0.637463 0.325376
vt 0.605901 0.279694
vt 0.626699 0.241362
vt 0.608539 0.429278
vt 0.725602 0.482910
vt 0.768676 0.455537
vt 0.670790 0.428038
vt 0.013833 0.534843
vt 0.057723 0.498919
vt 0.108703 0.537752
vt 0.114337 0.623838
vt 0.727395 0.512149
vt 0.602094 0.474733
vt 0.556344 0.401069
vt 0.025928 0.446211
vt 0.587502 0.500905
vt 0.501558 0.665186
vt 0.475328 0.670746
vt 0.488643 0.557008
vt 0.510735 0.559631
vt 0.511941 0.673778
vt 0.564254 0.668997
vt 0.571052 0.562343
vt 0.526391 0.557600
vt 0.438845 0.555986
vt 0.438629 0.669967
vt 0.490638 0.863007
vt 0.465435 0.853431
vt 0.512914 0.866921
vt 0.550466 0.866819
vt 0.439943 0.863110
vt 0.464498 0.995689
vt 0.531103 0.999500
vt 0.645465 0.666359
vt 0.609423 0.665836
vt 0.609322 0.553240
vt 0.646303 0.558831
vt 0.644901 0.672566
vt 0.704038 0.670170
vt 0.704920 0.562643
vt 0.647846 0.566742
vt 0.574501 0.668755
vt 0.577814 0.562930
vt 0.641031 0.862073
vt 0.600000 0.859329
vt 0.641457 0.863412
vt 0.701931 0.862073
vt 0.568462 0.857695
vt 0.596238 0.994925
vt 0.667469 0.998524
vt 0.721119 0.672768
vt 0.757893 0.673412
vt 0.759085 0.544124
vt 0.727704 0.546469
vt 0.871675 0.666796
vt 0.802489 0.668417
vt 0.813164 0.548182
vt 0.871708 0.557439
vt 0.794309 0.670447
vt 0.792099 0.542839
vt 0.721696 0.854929
vt 0.760334 0.853734
vt 0.865583 0.855450
vt 0.803118 0.854637
vt 0.794191 0.855683
vt 0.759108 0.989579
vt 0.837549 0.987025
vt 0.740506 0.096989
vt 0.610236 0.179810
vt 0.572940 0.257297
vt 0.597908 0.334492
vt 0.594582 0.369084
vt 0.663706 0.377160
vt 0.574011 0.385040
vt 0.017354 0.698239
vt 0.077571 0.659930
vt 0.033577 0.712756
vt 0.065908 0.640817
vt 0.081021 0.683010
vt 0.049118 0.727721
vt 0.124151 0.041090
vt 0.200940 0.027137
vt 0.117444 0.009102
vt 0.180181 0.056209
vt 0.011554 0.832948
vt 0.034991 0.827342
vt 0.053450 0.820154
vt 0.064435 0.056501
vt 0.026347 0.032755
vt 0.055064 0.903823
vt 0.064933 0.894582
vt 0.079099 0.883106
vt 0.051025 0.114638
vt 0.016346 0.101972
vt 0.038659 0.129045
vt 0.925503 0.032906
vt 0.842451 0.072618
vt 0.512985 0.444113
vt 0.492284 0.459711
vt 0.475747 0.396794
vt 0.496448 0.381196
vt 0.533687 0.428515
vt 0.459209 0.333877
vt 0.776176 0.128462
vt 0.794023 0.113190
vt 0.625416 0.032217
vt 0.709746 0.071464
vt 0.073940 0.395267
vt 0.061035 0.456501
vt 0.037643 0.442369
vt 0.050548 0.381136
vt 0.086845 0.334034
vt 0.014250 0.428238
vt 0.758341 0.112725
vt 0.314099 0.254463
vt 0.355087 0.237392
vt 0.367313 0.312719
vt 0.317303 0.328713
vt 0.273111 0.271535
vt 0.272808 0.344687
vt 0.379539 0.388047
vt 0.326023 0.402942
vt 0.272506 0.417838
vt 0.488452 0.155869
vt 0.533191 0.147537
vt 0.533439 0.288026
vt 0.492907 0.267564
vt 0.443713 0.164201
vt 0.451461 0.249039
vt 0.399400 0.200796
vt 0.410174 0.281663
vt 0.419374 0.360962
vt 0.365347 0.092206
vt 0.403799 0.084931
vt 0.314748 0.129858
vt 0.274408 0.022325
vt 0.219709 0.401470
vt 0.228523 0.327334
vt 0.232299 0.253177
vt 0.166912 0.385102
vt 0.179200 0.309960
vt 0.191488 0.234818
vt 0.094962 0.247359
vt 0.053526 0.267631
vt 0.103079 0.160684
vt 0.058292 0.154110
vt 0.013878 0.287888
vt 0.013506 0.147537
vt 0.126878 0.359568
vt 0.136465 0.278653
vt 0.147283 0.197751
vt 0.273581 0.191382
vt 0.232948 0.128571
vt 0.143957 0.084931
vt 0.182552 0.090792
vt 0.367105 0.456462
vt 0.313805 0.452331
vt 0.272590 0.443412
vt 0.354671 0.524877
vt 0.313673 0.496932
vt 0.272674 0.468987
vt 0.398802 0.428704
vt 0.423478 0.492294
vt 0.231623 0.490320
vt 0.231938 0.449947
vt 0.190573 0.511653
vt 0.178742 0.448377
vt 0.125804 0.484077
vt 0.146958 0.422338
vt 0.314405 0.528232
vt 0.274139 0.531587
vt 0.232356 0.521620
vt 0.273793 0.512119

vn 0.548426 0.786132 -0.285002
vn 0.614308 0.557070 -0.558837
vn 0.229563 0.741535 0.630418
vn 0.532857 0.761424 0.369184
vn 0.642419 0.501802 -0.579217
vn 0.837183 -0.348618 -0.421415
vn 0.765351 0.398466 0.505434
vn 0.706941 0.566078 0.424017
vn 0.937679 -0.242396 0.249002
vn -0.768660 -0.262960 -0.583107
vn 0.834164 -0.301667 0.461701
vn 0.897423 -0.305422 -0.318354
vn 0.882826 -0.051681 -0.466849
vn 0.447595 0.161595 -0.879515
vn -0.818142 -0.093369 -0.567385
vn -0.952693 -0.091389 -0.289868
vn -0.176468 -0.395099 0.901530
vn 0.066063 -0.123978 0.990083
vn 0.537282 0.809990 -0.235043
vn -0.774087 -0.121550 -0.621300
vn -0.709259 0.493966 -0.502940
vn -0.162004 -0.566593 0.807915
vn 0.729359 -0.621025 -0.286989
vn -0.667107 0.200028 -0.717605
vn -0.694861 0.411496 -0.589778
vn 0.717400 -0.694592 0.053658
vn 0.678676 -0.620406 -0.393059
vn -0.243464 0.499181 0.831591
vn -0.482907 0.549203 0.682039
vn -0.154395 0.884346 -0.440562
vn -0.473080 0.245853 -0.846021
vn 0.189356 -0.943398 -0.272296
vn 0.217992 -0.949799 0.224415
vn 0.500076 0.041772 0.864974
vn 0.154509 0.738407 0.656416
vn 0.610002 0.215833 -0.762440
vn -0.999435 -0.027419 0.019450
vn 0.733678 -0.295039 0.612101
vn -0.501507 -0.211753 -0.838839
vn -0.950232 0.145592 -0.275430
vn 0.970529 -0.161926 0.178474
vn 0.963052 -0.165348 0.212582
vn -0.730379 0.209039 0.650268
vn -0.529778 -0.209724 -0.821797
vn -0.364143 0.476626 -0.800142
vn -0.249074 -0.045977 -0.967393
vn 0.823324 -0.567249 -0.019159
vn 0.634153 -0.605894 0.480356
vn -0.470318 0.647057 0.600098
vn -0.426906 0.633588 0.645227
vn 0.392296 0.251303 -0.884845
vn -0.736496 -0.584727 0.340099
vn 0.726817 0.418246 0.544800
vn -0.148268 0.478768 -0.865331
vn -0.011741 0.167511 -0.985800
vn 0.634384 -0.746326 0.201383
vn 0.595523 -0.760765 0.258049
vn -0.481408 0.295769 0.825086
vn -0.835962 0.546496 -0.050089
vn 0.241840 0.827451 -0.506792
vn 0.184108 0.626532 -0.757338
vn 0.315173 -0.739036 -0.595392
vn -0.364143 -0.905214 -0.219061
vn -0.206203 0.080227 0.975215
vn -0.290799 0.356760 0.887783
vn 0.904852 0.316231 -0.285028
vn -0.443972 -0.336654 -0.830393
vn -0.009940 -0.035493 0.999320
vn 0.365781 0.681449 -0.633902
vn 0.954676 0.277294 0.108178
vn 0.813647 0.048047 0.579370
vn 0.244470 -0.969377 0.023283
vn 0.286772 -0.957047 -0.042697
vn -0.143871 -0.948694 0.281567
vn 0.115180 -0.774294 0.622257
vn -0.109713 -0.988061 -0.108162
vn -0.469768 -0.809075 -0.353152
vn 0.948976 0.164460 -0.269068
vn -0.990297 -0.131572 -0.044718
vn 0.950619 0.169210 -0.260177
vn 0.956467 0.186403 -0.224555
vn 0.263844 -0.153800 -0.952225
vn -0.249252 -0.932765 -0.260427
vn 0.895250 -0.413818 -0.165175
vn 0.251060 0.964276 -0.084507
vn 0.532342 0.745141 0.401717
vn -0.810558 -0.238829 -0.534748
vn -0.954686 0.098246 -0.280933
vn 0.737199 -0.610426 0.289686
vn 0.727861 -0.620080 0.292779
vn 0.580287 0.649158 -0.491794
vn 0.447937 0.665533 -0.597008
vn -0.994195 -0.106669 -0.014085
vn -0.996863 -0.076744 -0.019340
vn 0.542169 -0.581877 0.606195
vn 0.652619 -0.553364 0.517567
vn 0.035565 0.429616 -0.902311
vn 0.393083 0.291054 -0.872223
vn -0.695562 0.285781 0.659183
vn -0.637588 0.526345 0.562532
vn 0.371969 -0.916247 0.148764
vn 0.342433 -0.894977 0.285928
vn -0.402778 -0.623931 -0.669687
vn -0.552690 0.786426 -0.275806
vn -0.623066 0.556913 -0.549215
vn -0.228983 0.741204 0.631018
vn -0.527031 0.762018 0.376254
vn -0.640550 0.523802 -0.561539
vn -0.869290 -0.128026 -0.477436
vn -0.886141 0.343014 0.311603
vn -0.876196 0.152844 0.457076
vn -0.840529 -0.464794 0.278348
vn 0.653541 -0.736883 0.172881
vn -0.827553 -0.306439 0.470373
vn -0.838709 -0.321559 -0.439508
vn -0.859136 -0.171743 -0.482068
vn -0.513852 0.135719 -0.847075
vn 0.823327 -0.127025 -0.553171
vn 0.911107 -0.118994 -0.394619
vn 0.072166 -0.262149 0.962325
vn -0.049194 -0.122666 0.991228
vn -0.542466 0.807953 -0.230092
vn 0.813898 -0.134010 -0.565341
vn 0.726739 0.524902 -0.443090
vn 0.064998 -0.652898 0.754651
vn -0.733981 -0.620497 -0.276144
vn 0.535102 -0.601582 -0.593098
vn 0.906772 0.416821 0.063436
vn -0.939063 -0.236369 0.249581
vn -0.840423 -0.311923 -0.443163
vn -0.500078 -0.437265 -0.747476
vn 0.634704 0.374602 0.675888
vn 0.770901 0.382767 -0.509119
vn 0.437810 -0.396393 -0.806967
vn -0.844439 -0.491453 -0.213065
vn -0.850477 -0.398289 0.343592
vn 0.152083 0.702260 0.695487
vn 0.482918 0.702363 0.522950
vn -0.076323 0.450535 -0.889490
vn 0.619630 -0.659419 0.425707
vn -0.865088 0.500946 0.026020
vn 0.479291 0.203453 -0.853749
vn 0.528934 0.368465 -0.764501
vn -0.748239 -0.632506 0.200189
vn -0.751082 -0.631628 0.192152
vn 0.573848 0.507163 0.643027
vn 0.765249 0.547678 0.338295
vn -0.170295 0.734271 -0.657149
vn 0.031501 0.248792 -0.968045
vn -0.214294 -0.954856 0.205738
vn -0.109199 -0.926651 0.359714
vn 0.084699 0.600600 0.795051
vn 0.107302 0.662884 0.740993
vn -0.891838 0.036267 -0.450899
vn 0.929247 -0.180827 -0.322183
vn -0.322172 0.032803 0.946113
vn 0.396315 0.091510 -0.913543
vn 0.715559 0.185211 0.673552
vn -0.902520 -0.319626 0.288611
vn -0.937052 -0.291433 0.192354
vn 0.613808 0.071196 0.786238
vn 0.658790 0.019717 -0.752068
vn 0.314709 0.766406 -0.559982
vn 0.214565 0.556371 -0.802753
vn -0.764525 -0.436159 -0.474622
vn -0.272957 -0.958781 -0.078948
vn 0.179007 -0.028431 0.983437
vn 0.522652 0.229430 0.821095
vn -0.810554 0.547227 -0.208673
vn 0.350828 -0.490135 -0.797927
vn 0.132012 -0.029127 0.990820
vn -0.366958 0.688943 -0.625059
vn -0.952819 0.277838 0.122241
vn -0.768281 -0.153425 0.621455
vn -0.115726 -0.966876 -0.227503
vn -0.033107 -0.990836 -0.130949
vn 0.597875 -0.769419 0.224809
vn -0.060269 -0.900405 0.430858
vn 0.115746 -0.984826 -0.129305
vn 0.445988 -0.822180 -0.353717
vn -0.952661 0.166224 -0.254569
vn 0.235588 -0.158222 0.958887
vn -0.950213 0.158984 -0.267992
vn -0.958165 0.048964 -0.281997
vn -0.278439 -0.153846 -0.948052
vn 0.245190 -0.932638 -0.264706
vn -0.905794 -0.408625 -0.112082
vn -0.252779 0.964094 -0.081394
vn -0.526721 0.744111 0.410930
vn 0.810481 -0.227412 -0.539820
vn 0.950602 0.098622 -0.294328
vn -0.728405 -0.609200 0.313531
vn -0.733368 -0.603973 0.312069
vn -0.584276 0.649785 -0.486210
vn -0.456909 0.665475 -0.590235
vn 0.994593 -0.101920 -0.019907
vn 0.995836 -0.088382 -0.022351
vn -0.532962 -0.581963 0.614223
vn -0.630880 -0.557849 0.539254
vn -0.071972 0.429541 -0.900175
vn -0.407324 0.301267 -0.862163
vn 0.699113 0.207187 0.684335
vn 0.630026 0.533539 0.564272
vn -0.364379 -0.916149 0.167028
vn -0.335055 -0.897562 0.286566
vn 0.340781 -0.664975 -0.664587
vn 0.452705 -0.242521 0.858045
vn 0.919735 0.348011 0.181594
vn 0.873846 0.464187 0.144651
vn 0.407437 -0.751143 -0.519403
vn 0.436170 -0.266543 -0.859483
vn 0.152582 -0.541991 -0.826416
vn 0.444164 -0.271284 -0.853887
vn -0.160039 0.965123 -0.207182
vn -0.439790 -0.245046 0.864024
vn -0.928740 0.345094 0.135471
vn -0.908762 0.403439 0.106723
vn -0.200635 -0.582067 -0.788000
vn -0.239470 -0.475179 -0.846675
vn -0.410102 -0.649900 -0.639881
vn -0.158947 -0.541254 -0.825700
vn 0.152578 0.966592 -0.205963
vn 0.563752 0.825779 0.016498
vn 0.416422 0.908750 -0.027685
vn 0.514021 0.841877 -0.164396
vn 0.477996 0.865944 -0.147178
vn 0.209203 -0.977358 -0.031704
vn 0.396597 -0.888741 0.229892
vn 0.063375 -0.983060 -0.171976
vn 0.178532 -0.983930 -0.002885
vn 0.975346 0.112928 0.189597
vn 0.924240 0.266819 0.273109
vn 0.987973 0.071264 -0.137226
vn 0.985386 0.149811 -0.081067
vn 0.546145 -0.166276 0.821023
vn 0.184126 -0.539787 0.821418
vn 0.724422 0.227435 0.650758
vn 0.279863 -0.053499 0.958548
vn -0.486627 0.862109 -0.141292
vn -0.424202 0.905278 -0.022896
vn -0.522666 0.837754 -0.158079
vn -0.570752 0.820743 0.024969
vn -0.170723 -0.985319 -0.000758
vn -0.385398 -0.892873 0.232910
vn -0.057632 -0.983540 -0.171253
vn -0.201794 -0.978993 -0.029202
vn -0.987460 0.141965 -0.069056
vn -0.923058 0.259396 0.284039
vn -0.990106 0.063397 -0.125182
vn -0.973715 0.104456 0.202406
vn 0.000513 0.796473 0.604673
vn 0.365838 0.716636 0.593798
vn -0.365304 0.713418 0.597987
vn 0.002355 0.614936 0.788574
vn -0.265704 -0.054425 0.962517
vn -0.169465 -0.541524 0.823428
vn -0.718092 0.222784 0.659327
vn -0.533571 -0.171064 0.828275
vn 0.447393 0.584611 -0.676809
vn 0.463703 0.678977 -0.569183
vn 0.483343 0.561246 -0.671851
vn 0.619376 0.559640 -0.550615
vn 0.665077 -0.063039 -0.744109
vn 0.739421 0.054124 -0.671065
vn 0.702074 -0.156654 -0.694660
vn 0.727416 -0.034807 -0.685314
vn -0.630459 0.554666 -0.543016
vn -0.475984 0.675234 -0.563469
vn -0.495983 0.556907 -0.666225
vn -0.460237 0.580997 -0.671285
vn -0.737248 -0.032458 -0.674842
vn -0.747943 0.048208 -0.662010
vn -0.684079 -0.085609 -0.724366
vn -0.711808 -0.023765 -0.701972
vn -0.007229 0.521482 -0.853232
vn 0.269420 0.490175 -0.828940
vn -0.283013 0.487602 -0.825922
vn -0.007179 0.407249 -0.913289

f 1/1/1 2/2/1 3/3/1
f 1/1/2 3/3/2 4/4/2
f 2/2/3 5/5/3 6/6/3
f 2/2/4 6/6/4 3/3/4
f 4/4/5 3/3/5 7/7/5
f 7/7/6 3/3/6 8/8/6
f 8/8/7 6/6/7 9/9/7
f 8/8/8 3/3/8 6/6/8
f 10/10/9 8/8/9 9/9/9
f 11/11/10 12/12/10 10/10/10
f 9/9/11 13/13/11 11/11/11
f 14/14/12 8/8/12 15/15/12
f 8/8/13 14/14/13 7/7/13
f 16/16/14 15/15/14 8/8/14
f 17/17/15 4/18/15 18/19/15
f 4/18/16 17/17/16 19/20/16
f 20/21/17 19/22/17 17/23/17
f 19/22/18 20/21/18 21/24/18
f 7/25/19 18/19/19 4/18/19
f 17/17/20 18/19/20 22/26/20
f 22/26/21 23/27/21 17/17/21
f 17/23/22 23/28/22 20/21/22
f 20/29/23 23/27/23 22/26/23
f 24/30/24 14/31/24 25/32/24
f 14/31/25 24/30/25 26/33/25
f 27/34/26 26/35/26 24/36/26
f 26/35/27 27/34/27 15/37/27
f 15/38/28 25/32/28 14/31/28
f 27/39/29 25/32/29 15/38/29
f 28/40/30 25/32/30 29/41/30
f 25/32/31 28/40/31 24/30/31
f 30/42/32 24/36/32 28/43/32
f 24/36/33 30/42/33 27/34/33
f 29/41/34 27/39/34 30/44/34
f 27/39/35 29/41/35 25/32/35
f 29/41/36 31/45/36 28/40/36
f 28/43/37 31/46/37 30/42/37
f 30/44/38 31/45/38 29/41/38
f 32/47/39 8/48/39 33/49/39
f 8/48/40 32/47/40 16/50/40
f 34/51/41 16/52/41 32/53/41
f 16/52/42 34/51/42 35/54/42
f 33/49/43 35/55/43 34/56/43
f 35/55/44 33/49/44 8/48/44
f 36/57/45 33/49/45 37/58/45
f 33/49/46 36/57/46 32/47/46
f 38/59/47 32/53/47 36/60/47
f 32/53/48 38/59/48 34/51/48
f 37/58/49 34/56/49 38/61/49
f 34/56/50 37/58/50 33/49/50
f 37/58/51 39/62/51 36/57/51
f 36/60/52 39/63/52 38/59/52
f 38/61/53 39/62/53 37/58/53
f 40/64/54 9/65/54 41/66/54
f 9/65/55 40/64/55 10/67/55
f 42/68/56 10/69/56 40/70/56
f 10/69/57 42/68/57 11/71/57
f 41/66/58 11/72/58 42/73/58
f 11/72/59 41/66/59 9/65/59
f 43/74/60 41/66/60 44/75/60
f 41/66/61 43/74/61 40/64/61
f 45/76/62 40/70/62 43/77/62
f 40/70/63 45/76/63 42/68/63
f 44/75/64 42/73/64 45/78/64
f 42/73/65 44/75/65 41/66/65
f 44/75/66 46/79/66 43/74/66
f 43/77/67 46/80/67 45/76/67
f 45/78/68 46/79/68 44/75/68
f 5/5/69 47/81/69 6/6/69
f 6/6/70 13/13/70 9/9/70
f 8/8/71 10/10/71 35/82/71
f 16/16/72 35/82/72 48/83/72
f 10/10/73 48/83/73 35/82/73
f 12/12/74 48/83/74 10/10/74
f 16/16/75 48/83/75 15/15/75
f 15/15/76 48/83/76 26/84/76
f 48/83/77 49/85/77 26/84/77
f 20/29/78 22/26/78 18/19/78
f 20/86/79 7/87/79 21/88/79
f 20/29/80 18/19/80 7/25/80
f 14/14/81 21/89/81 7/7/81
f 49/90/82 19/91/82 21/92/82
f 19/93/83 49/85/83 48/83/83
f 26/84/84 49/85/84 14/14/84
f 50/94/85 51/95/85 21/96/85
f 21/96/86 14/97/86 50/94/86
f 51/95/87 52/98/87 49/99/87
f 49/99/88 21/96/88 51/95/88
f 52/100/89 50/101/89 14/102/89
f 14/102/90 49/103/90 52/100/90
f 53/104/91 54/105/91 51/95/91
f 51/95/92 50/94/92 53/104/92
f 54/105/93 55/106/93 52/98/93
f 52/98/94 51/95/94 54/105/94
f 55/107/95 53/108/95 50/101/95
f 50/101/96 52/100/96 55/107/96
f 56/109/97 57/110/97 54/105/97
f 54/105/98 53/104/98 56/109/98
f 57/110/99 58/111/99 55/106/99
f 55/106/100 54/105/100 57/110/100
f 58/112/101 56/113/101 53/108/101
f 53/108/102 55/107/102 58/112/102
f 57/114/103 56/113/103 58/112/103
f 1/1/104 59/115/104 2/2/104
f 1/1/105 4/4/105 59/115/105
f 2/2/106 60/116/106 5/5/106
f 2/2/107 59/115/107 60/116/107
f 4/4/108 61/117/108 59/115/108
f 61/117/109 62/118/109 59/115/109
f 62/118/110 63/119/110 60/116/110
f 62/118/111 60/116/111 59/115/111
f 64/120/112 63/119/112 62/118/112
f 65/121/113 64/120/113 12/122/113
f 63/119/114 65/121/114 66/123/114
f 67/124/115 68/125/115 62/118/115
f 62/118/116 61/117/116 67/124/116
f 69/126/117 62/118/117 68/125/117
f 70/127/118 71/128/118 4/129/118
f 4/129/119 19/130/119 70/127/119
f 72/131/120 70/132/120 19/133/120
f 19/133/121 73/134/121 72/131/121
f 61/135/122 4/129/122 71/128/122
f 70/127/123 74/136/123 71/128/123
f 74/136/124 70/127/124 75/137/124
f 70/132/125 72/131/125 75/138/125
f 72/139/126 74/136/126 75/137/126
f 76/140/127 77/141/127 67/142/127
f 67/142/128 78/143/128 76/140/128
f 79/144/129 76/145/129 78/146/129
f 78/146/130 68/147/130 79/144/130
f 68/148/131 67/142/131 77/141/131
f 79/149/132 68/148/132 77/141/132
f 80/150/133 81/151/133 77/141/133
f 77/141/134 76/140/134 80/150/134
f 82/152/135 80/153/135 76/145/135
f 76/145/136 79/144/136 82/152/136
f 81/151/137 82/154/137 79/149/137
f 79/149/138 77/141/138 81/151/138
f 81/151/139 80/150/139 83/155/139
f 80/153/140 82/152/140 83/156/140
f 82/154/141 81/151/141 83/155/141
f 84/157/142 85/158/142 62/159/142
f 62/159/143 69/160/143 84/157/143
f 86/161/144 84/162/144 69/163/144
f 69/163/145 87/164/145 86/161/145
f 85/158/146 86/165/146 87/166/146
f 87/166/147 62/159/147 85/158/147
f 88/167/148 89/168/148 85/158/148
f 85/158/149 84/157/149 88/167/149
f 90/169/150 88/170/150 84/162/150
f 84/162/151 86/161/151 90/169/151
f 89/168/152 90/171/152 86/165/152
f 86/165/153 85/158/153 89/168/153
f 89/168/154 88/167/154 91/172/154
f 88/170/155 90/169/155 91/173/155
f 90/171/156 89/168/156 91/172/156
f 92/174/157 93/175/157 63/176/157
f 63/176/158 64/177/158 92/174/158
f 94/178/159 92/179/159 64/180/159
f 64/180/160 65/181/160 94/178/160
f 93/175/161 94/182/161 65/183/161
f 65/183/162 63/176/162 93/175/162
f 95/184/163 96/185/163 93/175/163
f 93/175/164 92/174/164 95/184/164
f 97/186/165 95/187/165 92/179/165
f 92/179/166 94/178/166 97/186/166
f 96/185/167 97/188/167 94/182/167
f 94/182/168 93/175/168 96/185/168
f 96/185/169 95/184/169 98/189/169
f 95/187/170 97/186/170 98/190/170
f 97/188/171 96/185/171 98/189/171
f 5/5/172 60/116/172 99/191/172
f 60/116/173 63/119/173 66/123/173
f 62/118/174 87/192/174 64/120/174
f 69/126/175 48/193/175 87/192/175
f 64/120/176 87/192/176 48/193/176
f 12/122/177 64/120/177 48/193/177
f 69/126/178 68/125/178 48/193/178
f 68/125/179 78/194/179 48/193/179
f 48/193/180 78/194/180 100/195/180
f 72/139/181 71/128/181 74/136/181
f 72/86/182 73/88/182 61/87/182
f 72/139/183 61/135/183 71/128/183
f 67/124/184 61/117/184 73/196/184
f 100/195/185 73/196/185 19/197/185
f 19/197/186 48/193/186 100/195/186
f 78/194/187 67/124/187 100/195/187
f 101/198/188 73/199/188 102/200/188
f 73/199/189 101/198/189 67/201/189
f 102/200/190 100/202/190 103/203/190
f 100/202/191 102/200/191 73/199/191
f 103/204/192 67/205/192 101/206/192
f 67/205/193 103/204/193 100/207/193
f 104/208/194 102/200/194 105/209/194
f 102/200/195 104/208/195 101/198/195
f 105/209/196 103/203/196 106/210/196
f 103/203/197 105/209/197 102/200/197
f 106/211/198 101/206/198 104/212/198
f 101/206/199 106/211/199 103/204/199
f 107/213/200 105/209/200 108/214/200
f 105/209/201 107/213/201 104/208/201
f 108/214/202 106/210/202 109/215/202
f 106/210/203 108/214/203 105/209/203
f 109/216/204 104/212/204 107/217/204
f 104/212/205 109/216/205 106/211/205
f 108/218/206 109/216/206 107/217/206
f 13/13/207 110/219/207 11/11/207
f 110/219/207 12/12/207 11/11/207
f 47/81/208 111/220/208 6/6/208
f 111/220/209 13/13/209 6/6/209
f 110/221/210 13/222/210 112/223/210
f 112/223/211 113/224/211 110/221/211
f 12/225/212 110/221/212 113/224/212
f 113/224/213 112/223/213 114/226/213
f 115/227/214 116/228/214 5/5/214
f 116/228/214 47/81/214 5/5/214
f 12/122/215 117/229/215 65/121/215
f 117/229/215 66/123/215 65/121/215
f 66/123/216 118/230/216 60/116/216
f 118/230/217 99/191/217 60/116/217
f 119/231/218 66/232/218 117/233/218
f 117/233/219 120/234/219 119/231/219
f 121/235/220 119/231/220 120/234/220
f 120/234/221 117/233/221 12/236/221
f 99/191/222 122/237/222 5/5/222
f 122/237/222 115/227/222 5/5/222
f 123/238/223 124/239/223 125/240/223 126/241/223
f 127/242/224 123/238/224 126/241/224 128/243/224
f 126/241/225 125/240/225 129/244/225 130/245/225
f 128/243/226 126/241/226 130/245/226 131/246/226
f 132/247/227 133/248/227 134/249/227 135/250/227
f 136/251/228 132/247/228 135/250/228 137/252/228
f 135/250/229 134/249/229 12/225/229 113/224/229
f 137/252/230 135/250/230 113/224/230 114/226/230
f 138/253/231 136/251/231 137/252/231 139/254/231
f 124/239/232 138/253/232 139/254/232 125/240/232
f 139/254/233 137/252/233 114/226/233 140/255/233
f 125/240/234 139/254/234 140/255/234 129/244/234
f 132/247/235 136/251/235 138/253/235 141/256/235
f 133/248/236 132/247/236 141/256/236 142/257/236
f 141/256/237 138/253/237 124/239/237 143/258/237
f 142/257/238 141/256/238 143/258/238 144/259/238
f 128/243/239 131/246/239 145/260/239 146/261/239
f 127/242/240 128/243/240 146/261/240 147/262/240
f 146/261/241 145/260/241 148/263/241 149/264/241
f 147/262/242 146/261/242 149/264/242 150/265/242
f 151/266/243 121/235/243 120/234/243 152/267/243
f 153/268/244 151/266/244 152/267/244 154/269/244
f 152/267/245 120/234/245 12/236/245 134/270/245
f 154/269/246 152/267/246 134/270/246 133/271/246
f 149/264/247 148/263/247 155/272/247 156/273/247
f 150/265/248 149/264/248 156/273/248 157/274/248
f 156/273/249 155/272/249 121/235/249 151/266/249
f 157/274/250 156/273/250 151/266/250 153/268/250
f 123/238/251 127/242/251 147/262/251 158/275/251
f 124/239/252 123/238/252 158/275/252 143/258/252
f 158/275/253 147/262/253 150/265/253 159/276/253
f 143/258/254 158/275/254 159/276/254 144/259/254
f 142/277/255 144/259/255 159/276/255 160/278/255
f 133/271/256 142/277/256 160/278/256 154/269/256
f 160/278/257 159/276/257 150/265/257 157/274/257
f 154/269/258 160/278/258 157/274/258 153/268/258
f 130/245/259 129/244/259 161/279/259 162/280/259
f 131/246/260 130/245/260 162/280/260 163/281/260
f 162/280/261 161/279/261 47/282/261 164/283/261
f 163/281/262 162/280/262 164/283/262 165/284/262
f 140/255/263 114/226/263 112/223/263 166/285/263
f 129/244/264 140/255/264 166/285/264 161/279/264
f 166/285/265 112/223/265 13/222/265 111/286/265
f 161/279/266 166/285/266 111/286/266 47/282/266
f 163/281/267 165/284/267 167/287/267 168/288/267
f 131/246/268 163/281/268 168/288/268 145/260/268
f 168/288/269 167/287/269 99/289/269 169/290/269
f 145/260/270 168/288/270 169/290/270 148/263/270
f 169/290/271 99/289/271 118/291/271 170/292/271
f 148/263/272 169/290/272 170/292/272 155/272/272
f 170/292/273 118/291/273 66/232/273 119/231/273
f 155/272/274 170/292/274 119/231/274 121/235/274
f 116/293/275 115/294/275 122/295/275 171/296/275
f 47/282/276 116/293/276 171/296/276 164/283/276
f 171/296/277 122/295/277 99/289/277 167/287/277
f 164/283/278 171/296/278 167/287/278 165/284/278

