mtllib animateBarbarianAxe__000026.mtl

o fat
usemtl fat.001
s off

v -0.138200 37.378170 -2.493000
v 1.860240 37.156109 7.026690
v 0.381230 37.347839 2.583380
v 0.982600 59.282322 -7.816020
v 10.990220 65.834389 -3.789640
v 3.323770 55.514458 -6.308670
v 0.009850 51.295162 -4.470830
v 10.211491 61.191441 -1.201400
v 7.738130 57.260368 0.008470
v 6.902980 51.488708 0.177620
v 4.480890 51.181511 -4.122160
v 6.874470 56.317741 -5.207300
v 9.061020 37.304501 6.028900
v 9.683300 38.591030 -0.862530
v 10.769110 37.809010 -1.253080
v 6.672680 38.222939 5.655790
v 3.993900 35.907063 8.004780
v 4.557730 35.573879 -5.426650
v 4.051440 37.830902 -4.819230
v 0.753010 37.504959 -3.601550
v -0.206890 34.050381 -2.261720
v 0.747880 64.941429 -7.704940
v 1.207150 66.932190 -7.750310
v -0.501630 58.637310 6.300370
v 4.510330 58.671322 6.420040
v 5.672120 62.904949 7.824510
v 7.210350 63.242222 2.816970
v 5.134910 65.671204 6.798680
v 10.478311 65.083801 4.151420
v 4.097250 51.697048 4.864070
v 0.618160 51.462612 5.843600
v -0.379670 64.242172 7.613960
v 6.042340 69.775063 -3.498700
v 12.578079 66.952103 -2.264640
v 12.017280 67.061661 1.458170
v 1.886270 70.010956 4.200990
v 5.504550 71.090897 0.914320
v -0.922410 69.206375 4.202510
v 2.363500 75.430214 1.717750
v 3.908050 73.118431 -1.382070
v 1.192630 73.317215 -3.068340
v 0.301060 76.158028 -0.074390
v 1.628210 71.132011 -5.783140
v 0.188230 47.146729 6.236350
v 5.364230 47.124401 5.637480
v 8.418850 46.624863 0.472170
v 4.993240 45.882813 -4.695600
v -0.050810 45.777031 -5.393030
v 11.383090 64.634499 3.843630
v 12.392900 63.916798 -3.714250
v 13.119320 66.060219 1.758720
v 13.669610 66.000481 -1.431790
v 9.966360 61.763741 4.045300
v 0.548100 74.509514 7.182600
v -1.310210 72.916672 8.312660
v 1.538350 70.562210 5.350400
v -0.088160 69.354591 7.077870
v -1.580920 71.667542 7.991130
v -0.813540 74.887161 8.386380
v -2.597340 74.771515 8.088280
v 1.936270 75.994171 4.870590
v -1.995180 78.743965 8.657690
v -3.314480 78.700172 8.516710
v -0.951020 76.117508 9.076150
v -0.116160 78.026459 8.390330
v -0.519870 80.234024 6.375390
v -2.020910 80.268257 5.692430
v -2.337410 72.906891 8.534770
v -3.277840 75.509216 8.218870
v -3.758660 73.420219 9.167250
v -3.503350 72.874062 8.552210
v -3.512320 71.293915 8.466140
v -1.715310 68.759361 8.321610
v -3.319840 68.649841 8.393539
v 1.777330 78.328453 4.996460
v 1.486010 79.609215 4.393080
v -0.623700 79.970367 2.507760
v 13.743361 64.178436 3.674970
v 15.035390 65.199371 0.351050
v 10.220930 56.709030 -3.416970
v 10.245600 56.639870 1.208000
v 14.100510 62.811661 -3.294450
v 12.239660 52.314072 -2.990770
v 16.688921 48.465500 -3.823180
v 13.065881 47.833309 -2.834440
v 15.689870 51.864517 -3.612860
v 16.319300 53.500946 -1.114310
v 17.728199 48.841091 -1.132740
v 15.118509 52.858501 0.592450
v 15.926519 48.650688 1.301080
v 12.877211 51.146667 0.210520
v 13.143250 48.097073 0.973050
v 15.026091 54.767433 -3.824220
v 15.436640 53.490910 -3.769940
v 16.142799 58.816891 -0.831570
v 14.205700 58.088490 1.988210
v 12.288341 52.894951 0.399370
v 14.689199 57.437748 -4.766300
v 17.115580 41.410324 -2.476570
v 15.392560 41.149376 -1.730440
v 18.068729 41.694832 -1.274610
v 17.099211 41.711990 0.347940
v 15.469340 41.410599 0.360720
v 14.778370 36.819469 2.726710
v 14.885870 36.529049 1.858760
v 15.617050 37.486912 1.337100
v 16.042700 38.171989 1.869620
v 17.463820 37.283951 1.609880
v 13.997130 38.799290 1.462100
v 15.081300 38.287991 2.179450
v 13.777460 36.750332 2.275080
v 14.685511 35.353439 2.820240
v 13.950260 35.399109 2.410500
v 17.408659 35.051899 1.684500
v 17.834600 37.333111 -3.253720
v 18.198311 35.402721 -3.087550
v 18.561520 32.621830 -2.260710
v 16.177309 35.398743 1.513080
v 18.932760 35.605190 -2.358050
v 18.895901 37.555050 -2.431310
v 16.871140 32.291180 1.664130
v 3.050290 25.703690 2.103730
v 5.899280 18.299629 -3.738570
v 3.549510 17.490499 1.378100
v 8.923480 25.821381 0.660480
v 10.854530 18.192570 -0.388980
v 5.357190 26.214849 -1.916180
v 7.020280 23.305229 4.194530
v 7.571210 17.592731 4.380860
v 6.979210 25.349691 4.800290
v 7.250190 27.544392 4.316830
v 10.057581 29.459282 -0.309860
v 7.381110 32.535069 5.623390
v 9.519979 7.288640 0.408340
v 10.537420 4.547860 -0.279270
v 7.613190 5.738400 -2.326430
v 8.253690 5.066170 2.599890
v 5.938030 6.970940 0.775250
v 5.581220 3.931190 0.098990
v 6.542250 0.946800 -3.488620
v 9.613280 1.348790 -3.716500
v 6.459750 -0.759680 4.414520
v 12.325660 -0.440650 4.157070
v 8.571400 -0.416130 7.967130
v 11.057600 -2.211470 7.870070
v 7.049160 -2.871890 8.275949
v -8.943100 66.020432 -6.777160
v -1.307640 55.482670 -6.864120
v -9.630890 61.046028 -3.486890
v -7.135210 57.159801 -1.648860
v -4.685170 51.323326 -3.267190
v -6.479480 51.345840 1.317400
v -5.218600 56.234909 -6.476340
v -9.392370 38.629299 0.726010
v -8.241180 39.311031 7.338780
v -10.553330 37.879410 0.575730
v -5.783120 40.168831 6.518810
v -5.148040 35.120621 -4.137930
v -4.546100 37.235149 -3.847720
v -1.158200 37.027668 -3.293710
v -5.336220 58.604851 5.392070
v -5.776680 62.828941 7.450840
v -10.457020 62.037247 2.738930
v -5.739410 65.596306 5.981090
v -10.556379 65.836311 1.935680
v -2.915110 51.348419 5.646940
v -10.840779 67.039886 -5.728270
v -4.217900 69.757294 -5.341560
v -11.498790 67.350952 -1.180020
v -3.369470 70.010910 2.887470
v -5.029880 71.149879 -1.616730
v -2.478880 75.522591 -0.126270
v -2.105910 73.174789 -3.273020
v -3.837170 46.744709 6.503090
v -7.974770 46.410271 1.897630
v -5.576800 45.927246 -3.700200
v -12.057199 64.757912 0.588140
v -10.476511 63.725792 -7.300070
v -12.761120 66.306549 -1.875000
v -12.170500 65.789680 -5.193210
v -10.276520 61.586617 0.809950
v -4.799220 73.020401 6.772220
v -5.135270 74.678459 4.673330
v -4.137000 70.635208 3.507150
v -4.314720 69.428757 5.513150
v -4.203310 71.739861 6.895100
v -3.675720 74.803581 7.612190
v -5.089690 75.014282 6.498400
v -4.287750 76.179207 2.122610
v -4.303620 78.812576 7.638470
v -5.445420 76.251129 7.091820
v -5.405500 78.183716 6.055010
v -3.536380 80.323708 5.043590
v -4.272930 72.964432 7.680220
v -4.190070 68.815407 7.347750
v -4.157760 78.504883 2.376070
v -3.452590 79.756027 2.212620
v -13.902491 63.929638 -0.713850
v -14.107500 64.860184 -4.333680
v -10.384340 57.452221 -3.051150
v -8.273870 56.863342 -6.954950
v -11.876420 62.448383 -7.404670
v -11.934180 47.218140 -6.647110
v -9.614510 52.466091 -6.156060
v -9.362050 48.557549 -4.179280
v -12.159250 50.998913 -7.869070
v -14.152230 52.790741 -6.536920
v -14.298920 47.904682 -5.099740
v -13.900200 52.827393 -4.471300
v -14.081970 49.267311 -2.397320
v -11.511149 49.908043 -1.327660
v -11.580959 51.872780 -3.431410
v -11.942850 53.714783 -8.731020
v -12.085910 52.540241 -8.386801
v -14.880440 57.720409 -7.392360
v -14.378530 57.927132 -4.117790
v -11.248680 54.471176 -4.124890
v -11.604390 56.235371 -9.936930
v -11.444401 41.470371 -2.356020
v -10.336451 42.219589 -1.016290
v -12.913870 41.675072 -1.867740
v -12.921881 42.606270 -0.170400
v -11.520730 43.030540 0.525160
v -10.642520 39.515511 4.187410
v -11.047520 40.070671 4.800900
v -11.214930 39.879452 3.064430
v -11.990490 40.457977 3.031310
v -12.853021 39.027431 2.721020
v -11.362810 41.045681 3.574020
v -10.211920 41.710011 3.143490
v -9.968940 40.288429 4.820260
v -10.683380 38.876560 5.580450
v -9.874220 39.093849 5.488270
v -12.337480 37.154182 3.821500
v -10.718729 35.690639 -0.510210
v -10.768920 37.446339 -1.396260
v -10.801440 33.396698 1.307340
v -11.298380 37.906731 3.962580
v -11.741630 35.783131 -0.270240
v -12.116460 37.449890 -1.206530
v -11.250319 34.994900 5.258920
v -5.777840 23.800289 -1.455080
v -3.877260 26.099310 7.159620
v -3.624190 20.379679 2.578080
v -10.887650 21.214121 0.952410
v -9.626790 26.419640 5.361330
v -5.994980 27.609890 3.905840
v -7.803120 23.532640 7.654080
v -7.737741 18.736351 4.535960
v -7.882020 24.933870 8.691580
v -7.574250 27.221201 9.026011
v -10.874800 29.543600 5.335730
v -6.999650 34.485199 8.017179
v -8.244810 12.668210 -10.095850
v -7.624530 13.932320 -7.459500
v -5.281300 14.991209 -10.217871
v -6.338460 10.985939 -7.432880
v -3.302070 12.028280 -9.536551
v -4.052090 13.464770 -6.988730
v -3.451670 12.530830 -14.198260
v -6.531500 12.927131 -14.545230
v -4.176600 5.692560 -9.843720
v -10.210190 6.383350 -10.904510
v -7.276330 3.337110 -8.061480
v -9.565300 2.428110 -9.891280
v -5.650830 1.360520 -9.437800

vt 0.550479 0.485338
vt 0.414517 0.485338
vt 0.489174 0.497239
vt 0.490853 0.675485
vt 0.356970 0.710738
vt 0.458986 0.602657
vt 0.458693 0.603155
vt 0.491001 0.506534
vt 0.357039 0.710738
vt 0.272881 0.708251
vt 0.307767 0.663467
vt 0.329118 0.504113
vt 0.420682 0.504388
vt 0.307693 0.663467
vt 0.420389 0.504181
vt 0.390374 0.619683
vt 0.389206 0.622726
vt 0.390855 0.620128
vt 0.309151 0.663075
vt 0.578845 0.971377
vt 0.529882 0.993867
vt 0.501054 0.950636
vt 0.597833 0.993868
vt 0.684209 0.993870
vt 0.691613 0.940228
vt 0.584242 0.936155
vt 0.602549 0.993867
vt 0.689094 0.993870
vt 0.694409 0.971380
vt 0.730001 0.975635
vt 0.490853 0.781888
vt 0.490853 0.820915
vt 0.240556 0.660920
vt 0.133663 0.660928
vt 0.131880 0.753091
vt 0.060606 0.782384
vt 0.055577 0.663688
vt 0.136145 0.808744
vt 0.060014 0.783494
vt 0.058190 0.859642
vt 0.160773 0.512959
vt 0.067037 0.515196
vt 0.240700 0.512959
vt 0.131877 0.752996
vt 0.240556 0.781375
vt 0.390182 0.870896
vt 0.298691 0.847983
vt 0.294173 0.886121
vt 0.181129 0.899551
vt 0.052544 0.886601
vt 0.145152 0.921474
vt 0.235241 0.891030
vt 0.142740 0.921054
vt 0.172936 0.966074
vt 0.456563 0.999059
vt 0.389917 0.922986
vt 0.429989 0.941889
vt 0.491140 0.942697
vt 0.490646 0.999330
vt 0.490853 0.898039
vt 0.701416 0.118225
vt 0.813217 0.120956
vt 0.790107 0.184348
vt 0.877923 0.002315
vt 0.872775 0.120438
vt 0.505869 0.118716
vt 0.564263 0.119120
vt 0.507564 0.183764
vt 0.697589 0.180917
vt 0.580429 0.182675
vt 0.710756 0.001536
vt 0.701372 0.182427
vt 0.812168 0.002315
vt 0.857243 0.184348
vt 0.697567 0.116528
vt 0.503935 0.000692
vt 0.561277 0.000692
vt 0.688827 -0.000098
vt 0.002866 0.854679
vt 0.027518 0.706813
vt 0.061197 0.782654
vt 0.055608 0.663958
vt 0.251604 0.781884
vt 0.357109 0.710738
vt 0.243886 0.876138
vt 0.247300 0.848527
vt -0.000514 0.880403
vt 0.006948 0.782948
vt 0.674684 0.829607
vt 0.705811 0.784366
vt 0.654033 0.662928
vt 0.703232 0.671848
vt 0.720473 0.730776
vt 0.697736 0.853617
vt 0.729837 0.853035
vt 0.623758 0.856571
vt 0.587609 0.811448
vt 0.658187 0.605708
vt 0.748523 0.593788
vt 0.716351 0.931575
vt 0.747491 0.935506
vt 0.695349 0.885675
vt 0.676247 0.904603
vt 0.649719 0.961956
vt 0.745560 1.001324
vt 0.725611 0.781438
vt 0.747491 0.878462
vt 0.747491 0.808438
vt 0.720379 0.731031
vt 0.747491 0.790807
vt 0.720762 0.730332
vt 0.748639 0.732530
vt 0.746944 0.628012
vt 0.703659 0.671442
vt 0.731857 0.666086
vt 0.747085 0.666819
vt 0.703186 0.671176
vt 0.611291 0.885598
vt 0.604148 0.909350
vt 0.550618 0.823662
vt 0.550618 0.934468
vt 0.625864 0.557513
vt 0.571978 0.557920
vt 0.578607 0.510287
vt 0.669444 0.510287
vt 0.756032 0.560223
vt 0.679695 0.557918
vt 0.877240 0.461159
vt 0.992418 0.461159
vt 0.944262 0.560223
vt 0.756457 0.510287
vt 0.806202 0.560223
vt 0.498275 0.560223
vt 0.875566 0.382888
vt 0.758260 0.308662
vt 0.875912 0.308662
vt 0.759996 0.360654
vt 0.669163 0.382888
vt 0.671223 0.308662
vt 0.584325 0.382888
vt 0.577057 0.308662
vt 0.498223 0.363687
vt 0.498247 0.308662
vt 0.992597 0.308662
vt 0.992439 0.363687
vt 0.759483 0.410364
vt 0.758924 0.382888
vt 0.665903 0.461159
vt 0.580075 0.461159
vt 0.498223 0.402657
vt 0.992438 0.402657
vt 0.760539 0.449273
vt 0.498220 0.461159
vt 0.875438 0.575163
vt 0.762705 0.196431
vt 0.858161 0.196355
vt 0.690657 0.196417
vt 0.588027 0.196417
vt 0.498144 0.196431
vt 0.991918 0.196431
vt 0.375723 0.009258
vt 0.380090 0.017573
vt 0.356438 0.030356
vt 0.342839 0.029458
vt 0.369327 0.043627
vt 0.316032 0.012201
vt 0.336848 0.019568
vt 0.249292 0.041099
vt 0.371147 0.002582
vt 0.416197 0.004791
vt 0.408124 0.000758
vt 0.128136 0.016613
vt 0.154876 0.002573
vt 0.119423 0.002194
vt 0.160447 0.001473
vt 0.065726 0.014292
vt 0.105093 0.028910
vt 0.000825 0.069213
vt 0.000703 0.039244
vt 0.249314 0.055441
vt 0.429228 0.045736
vt 0.102506 0.115410
vt 0.153549 0.117195
vt 0.189513 0.114692
vt 0.228429 0.109580
vt 0.194639 0.033982
vt 0.406548 0.108121
vt 0.355355 0.108206
vt 0.448349 0.035630
vt 0.498209 0.039288
vt 0.461840 0.047992
vt 0.483032 0.114221
vt 0.406174 0.120334
vt 0.355217 0.119080
vt 0.243215 0.037501
vt 0.249314 0.089732
vt 0.000703 0.095058
vt 0.249292 0.105039
vt 0.160984 0.032072
vt 0.413806 0.033644
vt 0.442212 0.108407
vt 0.443088 0.117732
vt 0.023914 0.327327
vt 0.104127 0.227894
vt 0.000784 0.227894
vt 0.216171 0.327327
vt 0.216985 0.228421
vt 0.105699 0.228145
vt 0.104981 0.327662
vt 0.217575 0.327327
vt 0.351490 0.301452
vt 0.217290 0.227894
vt 0.351571 0.227894
vt 0.352420 0.301452
vt 0.489174 0.227894
vt 0.352342 0.227894
vt 0.471690 0.333380
vt 0.351597 0.328057
vt 0.217345 0.328075
vt 0.352312 0.363299
vt 0.470864 0.334174
vt 0.352330 0.328057
vt 0.216660 0.380224
vt 0.216104 0.328075
vt 0.104983 0.328371
vt 0.217232 0.380224
vt 0.351611 0.363299
vt 0.351459 0.420971
vt 0.352499 0.420971
vt 0.351589 0.497239
vt 0.229465 0.497239
vt 0.352627 0.497239
vt 0.229583 0.497239
vt 0.133020 0.497239
vt 0.072972 0.497239
vt 0.025422 0.328212
vt 0.002386 0.497239
vt 0.216130 0.152222
vt 0.223982 0.125749
vt 0.105883 0.155747
vt 0.351732 0.147623
vt 0.223132 0.128232
vt 0.218721 0.149411
vt 0.469070 0.149411
vt 0.483427 0.127273
vt 0.352306 0.146326
vt 0.017963 0.152222
vt 0.104256 0.155747
vt 0.009616 0.131504
vt 0.104128 0.227914
vt 0.000790 0.227921
vt 0.216984 0.228396
vt 0.351571 0.227971
vt 0.217291 0.227882
vt 0.352342 0.227879
vt 0.489111 0.227891
vt 0.948232 0.041698
vt 0.989968 0.003451
vt 0.971575 0.059997
vt 0.909211 0.004273
vt 0.996004 0.120663
vt 0.925604 0.058708
vt 0.885225 0.122889
vt 0.516483 0.798440
vt 0.501430 0.685191
vt 0.597947 0.686709
vt 0.594444 0.793024
vt 0.950876 0.082499
vt 0.943924 0.157220
vt 0.507177 0.624822
vt 0.600053 0.622523
vt 0.901715 0.182549
vt 0.982420 0.184037
vt 0.730212 0.975635
vt 0.685579 0.991654
vt 0.692830 0.969164

vn -0.159194 -0.987193 0.010391
vn 0.424996 -0.096015 -0.900088
vn -0.023309 -0.383787 -0.923127
vn 0.413418 -0.495271 -0.764063
vn 0.866987 -0.139472 -0.478414
vn 0.058874 -0.437154 -0.897458
vn 0.348519 -0.346420 -0.870935
vn 0.919130 -0.385203 -0.082579
vn 0.292978 0.015704 -0.955990
vn 0.898381 -0.433538 -0.070408
vn -0.618724 -0.760299 -0.197806
vn -0.323920 -0.924311 -0.201804
vn -0.123752 -0.632444 -0.764657
vn -0.230936 -0.672029 0.703595
vn -0.512878 -0.328494 0.793125
vn 0.500873 0.188457 0.844754
vn 0.355958 -0.167570 0.919355
vn 0.967206 -0.248652 0.051822
vn 0.363062 -0.104859 -0.925846
vn -0.020596 -0.309704 0.950610
vn 0.870829 -0.143864 0.470063
vn 0.203526 -0.785074 0.585009
vn -0.021836 -0.216465 0.976046
vn 0.843112 -0.164179 0.512061
vn 0.272135 -0.018776 0.962076
vn -0.083632 -0.225658 0.970610
vn 0.370507 0.521930 -0.768319
vn 0.354357 0.033042 -0.934526
vn 0.907128 -0.333913 0.256165
vn 0.391240 0.919737 0.031869
vn 0.045996 0.355175 0.933668
vn 0.369867 0.521187 -0.769131
vn 0.909936 0.287550 0.298884
vn 0.387561 0.669459 0.633736
vn 0.346195 0.650786 0.675742
vn -0.024265 0.564397 0.825147
vn -0.125238 0.438856 0.889787
vn 0.594138 0.291250 0.749783
vn 0.806005 0.590631 -0.038871
vn 0.613535 0.655938 -0.439683
vn 0.338845 0.827267 -0.448122
vn 0.384442 0.663944 0.641391
vn 0.528250 0.829165 -0.182860
vn 0.820411 0.567564 -0.069254
vn 0.493616 0.667807 -0.557116
vn 0.389314 0.747045 -0.538849
vn 0.511337 0.321948 -0.796796
vn 0.113537 0.196194 0.973970
vn 0.858757 0.132055 0.495074
vn 0.799463 0.215196 -0.560848
vn 0.080135 0.114903 -0.990139
vn 0.113617 0.191847 0.974826
vn 0.266698 0.060963 0.961850
vn 0.906105 0.350551 0.236828
vn 0.836049 0.288814 0.466485
vn 0.822070 0.308699 0.478441
vn 0.858923 0.136470 -0.493587
vn 0.131823 0.161988 -0.977948
vn 0.769971 0.313978 -0.555483
vn 0.548377 0.036079 -0.835453
vn 0.135357 0.064395 -0.988702
vn -0.490419 -0.218733 -0.843590
vn 0.320630 0.157931 0.933946
vn 0.498416 0.537941 0.679853
vn 0.712289 -0.245821 0.657431
vn 0.512911 0.344272 -0.786384
vn -0.008534 -0.576770 0.816862
vn 0.654336 0.749719 0.098821
vn 0.356565 0.605831 0.711217
vn 0.719625 0.263004 -0.642627
vn 0.624105 0.778097 0.071116
vn -0.463675 -0.370805 -0.804680
vn -0.495994 -0.865400 0.071223
vn -0.299950 0.213342 0.929793
vn 0.625637 -0.193799 0.755659
vn 0.151277 -0.277028 0.948879
vn -0.165128 0.004722 0.986261
vn 0.862382 -0.018486 0.505920
vn 0.990089 -0.023765 0.138413
vn 0.950431 -0.042415 0.308029
vn 0.242102 -0.844237 0.478174
vn -0.109304 0.113873 0.987464
vn 0.743716 -0.087135 0.662793
vn 0.860711 -0.012207 0.508948
vn -0.185077 0.873355 0.450553
vn 0.202060 0.254618 0.945696
vn 0.452552 0.266833 0.850880
vn 0.471586 0.272238 0.838745
vn 0.205150 -0.285436 0.936184
vn 0.024721 -0.388889 0.920953
vn -0.078192 0.886374 0.456318
vn -0.323084 -0.091628 0.941924
vn 0.030891 -0.740984 0.670812
vn 0.248328 -0.054091 0.967165
vn 0.517445 -0.849081 -0.106362
vn 0.724622 0.009729 0.689078
vn 0.063518 -0.993393 -0.095578
vn 0.219310 0.100151 0.970501
vn 0.591140 0.064050 0.804022
vn 0.314516 -0.948306 -0.042370
vn 0.046409 -0.024041 0.998633
vn 0.990500 0.060792 0.123344
vn 0.976519 0.214883 -0.015365
vn 0.561590 -0.355992 0.746918
vn -0.111842 -0.495429 0.861418
vn 0.621569 -0.185147 0.761165
vn -0.233018 -0.373868 0.897734
vn 0.348161 0.665908 0.659810
vn 0.871555 0.032966 0.489188
vn 0.784212 0.401323 0.473235
vn 0.661178 0.568131 0.489970
vn 0.226075 0.240282 0.944010
vn 0.662305 0.497635 -0.560099
vn 0.610213 0.540399 -0.579318
vn 0.180014 0.983578 -0.013025
vn 0.110917 0.974526 -0.194926
vn 0.877217 -0.113260 0.466544
vn 0.188083 0.730688 0.656293
vn 0.813770 0.123483 -0.567917
vn 0.445488 0.893268 0.060111
vn -0.998370 -0.056888 0.004476
vn 0.616622 0.652713 0.440162
vn 0.544272 0.630972 -0.552849
vn -0.182931 -0.583277 -0.791406
vn 0.077357 0.031826 0.996495
vn -0.249477 -0.079674 -0.965098
vn -0.176289 0.009090 -0.984297
vn 0.870848 0.280920 -0.403370
vn 0.885181 0.269133 -0.379504
vn 0.754728 0.225754 0.615972
vn 0.769506 0.246952 0.588961
vn -0.158322 0.226492 0.961060
vn -0.250704 0.113760 0.961356
vn -0.996423 -0.080470 0.025822
vn -0.975827 -0.175388 0.130383
vn -0.148443 -0.162775 -0.975433
vn -0.198701 -0.105337 -0.974383
vn 0.910687 0.279977 -0.303747
vn 0.910514 0.052047 -0.410188
vn 0.824570 -0.002713 0.565753
vn 0.819565 -0.009853 0.572901
vn -0.069152 -0.130134 0.989082
vn -0.878112 -0.478449 -0.002469
vn -0.554840 0.367707 -0.746287
vn -0.218277 -0.349052 -0.911328
vn 0.938427 -0.003486 -0.345460
vn 0.897774 0.225840 -0.378151
vn 0.918976 0.088241 0.384312
vn 0.831545 -0.088742 0.548322
vn 0.360098 -0.436835 0.824320
vn -0.089215 -0.272145 0.958112
vn -0.998550 0.022151 -0.049069
vn 0.942369 0.116437 -0.313659
vn -0.191686 -0.123879 -0.973607
vn -0.943122 -0.325152 0.069257
vn -0.069005 -0.268463 0.960815
vn -0.908608 -0.409283 0.083176
vn -0.094581 -0.259138 0.961198
vn 0.891628 0.207845 -0.402243
vn -0.314590 0.218536 -0.923729
vn -0.348027 -0.269461 -0.897924
vn -0.226236 -0.195806 -0.954189
vn 0.789541 -0.068653 -0.609846
vn 0.929143 0.051543 -0.366110
vn 0.802469 0.026405 0.596109
vn 0.856386 0.074552 0.510926
vn 0.031938 -0.130718 0.990905
vn -0.092094 -0.122533 0.988182
vn -0.942439 -0.331714 0.042129
vn -0.945553 -0.316876 0.074298
vn 0.830627 -0.488923 0.266483
vn -0.180647 -0.531188 0.827772
vn -0.295738 0.507958 0.809023
vn -0.402727 0.374551 0.835178
vn -0.372741 0.390572 0.841735
vn -0.414656 0.084072 0.906086
vn -0.485420 0.025514 0.873909
vn 0.851861 0.019325 0.523412
vn 0.988638 -0.053663 0.140412
vn -0.372470 -0.139588 -0.917486
vn 0.348579 -0.628261 -0.695544
vn -0.387548 -0.303786 -0.870356
vn -0.293295 -0.274806 -0.915674
vn -0.511401 -0.569984 -0.643107
vn -0.875769 0.481916 -0.028045
vn -0.087501 0.509462 0.856033
vn -0.142091 0.036580 0.989177
vn -0.884381 -0.202820 -0.420397
vn -0.890361 -0.232641 -0.391326
vn 0.936160 -0.011388 0.351389
vn 0.941486 0.030410 0.335676
vn -0.132740 0.018531 0.990978
vn 0.908893 -0.179739 0.376307
vn 0.693411 0.068912 -0.717239
vn 0.614773 -0.018004 -0.788498
vn -0.889516 -0.218118 -0.401479
vn 0.839980 0.211566 0.499673
vn -0.837931 -0.379710 -0.392034
vn -0.408183 0.100956 -0.907301
vn 0.704778 0.318014 -0.634156
vn 0.155352 -0.664617 0.730856
vn 0.936538 0.092663 0.338099
vn 0.560057 0.249353 -0.790038
vn 0.325076 0.289913 0.900153
vn 0.340977 0.283512 0.896301
vn -0.881667 -0.269216 -0.387538
vn -0.123798 0.050305 0.991032
vn 0.935175 -0.105337 0.338159
vn 0.715627 -0.111546 -0.689518
vn -0.907517 -0.018088 -0.419626
vn 0.546161 0.248304 -0.800033
vn 0.587149 0.219596 -0.779124
vn 0.828986 0.135183 0.542685
vn 0.814065 0.097188 0.572584
vn -0.597465 -0.031486 0.801277
vn -0.512914 -0.106433 0.851817
vn 0.904733 -0.104209 0.413036
vn -0.533684 0.244246 0.809645
vn 0.517689 -0.367473 -0.772633
vn 0.871443 -0.146837 0.468002
vn 0.871389 -0.145516 0.468515
vn -0.374957 -0.225568 0.899181
vn 0.905802 -0.018595 0.423293
vn -0.563536 -0.245066 0.788904
vn -0.869011 0.053730 -0.491866
vn 0.899994 0.109692 0.421875
vn -0.431433 -0.058863 0.900223
vn 0.921323 0.061001 0.383982
vn 0.577000 -0.025757 -0.816338
vn 0.424088 -0.174421 -0.888666
vn -0.311118 -0.263197 -0.913199
vn -0.776183 -0.390437 -0.495074
vn -0.476276 -0.144897 0.867275
vn -0.973288 -0.220455 -0.064104
vn 0.629308 0.400674 -0.665907
vn 0.787809 0.142098 0.599304
vn -0.660332 -0.088399 0.745752
vn -0.821399 0.214031 -0.528673
vn 0.807601 0.044081 -0.588080
vn -0.893740 -0.168675 -0.415665
vn -0.883760 -0.175810 -0.433658
vn 0.553524 -0.127922 -0.822950
vn 0.825739 -0.060053 0.560846
vn 0.874804 -0.021153 0.484016
vn -0.681034 -0.139311 0.718877
vn -0.585773 -0.178311 0.790617
vn -0.829369 0.299727 -0.471498
vn -0.104871 0.256487 -0.960842
vn -0.969278 -0.238146 -0.061540
vn 0.947906 0.061909 -0.312476
vn 0.042481 -0.970991 -0.235313
vn 0.111698 -0.971596 -0.208625
vn 0.668826 0.613347 0.420092
vn 0.625824 0.479865 -0.614877
vn -0.711120 0.399234 0.578723
vn 0.578240 0.587620 0.565988
vn -0.808576 0.387027 0.443188
vn 0.109926 -0.911199 -0.397030
vn 0.026414 -0.875315 -0.482832
vn 0.517897 0.689838 0.505871
vn 0.089120 0.069701 0.993579
vn -0.755976 0.518802 0.399180
vn 0.332013 -0.832982 -0.442616
vn -0.189746 -0.129455 -0.973261
vn 0.302810 -0.399312 -0.865365
vn -0.200368 -0.521069 -0.829663
vn -0.894739 -0.278876 -0.348812
vn -0.212897 -0.534462 -0.817940
vn -0.186689 -0.551491 -0.813022
vn -0.892175 -0.348411 -0.287461
vn -0.112342 -0.073222 -0.990968
vn -0.905814 -0.296265 -0.302866
vn 0.543292 -0.839505 -0.008032
vn 0.340413 -0.939524 0.037597
vn -0.099585 -0.523504 -0.846183
vn 0.309114 -0.622627 0.718877
vn 0.616289 -0.276634 0.737334
vn -0.303132 0.224183 0.926204
vn -0.165982 -0.087558 0.982234
vn -0.942573 -0.211597 0.258422
vn -0.095376 -0.000685 -0.995441
vn -0.162376 -0.445938 0.880212
vn -0.634605 -0.708963 0.307649
vn -0.632141 0.144427 0.761274
vn -0.184402 -0.027018 0.982479
vn -0.751449 -0.228988 0.618780
vn -0.053120 -0.071701 0.996011
vn 0.030480 -0.228705 0.973018
vn -0.170774 0.534046 -0.828028
vn -0.093561 0.015661 -0.995490
vn -0.617463 -0.395719 0.679813
vn -0.371162 0.921206 -0.116700
vn -0.148246 0.465427 0.872583
vn -0.126750 0.491317 -0.861709
vn -0.694290 0.344847 0.631697
vn -0.462536 0.661773 0.590014
vn -0.414498 0.762860 0.496222
vn -0.111128 0.554578 0.824678
vn -0.195851 0.631111 0.750560
vn -0.844128 0.355730 0.401128
vn -0.666470 0.557522 -0.494962
vn -0.145872 0.695603 -0.703461
vn 0.002481 0.801635 -0.597808
vn -0.501572 0.776570 0.381267
vn -0.484553 0.779465 -0.397043
vn -0.662800 0.642437 -0.384670
vn -0.198637 0.594414 -0.779241
vn 0.005222 0.779393 -0.626514
vn -0.168490 0.431908 -0.886040
vn 0.047870 0.173349 0.983696
vn -0.742686 0.122472 0.658345
vn -0.889112 0.222337 -0.400058
vn -0.245940 0.117842 -0.962095
vn 0.048118 0.171125 0.984074
vn -0.058416 0.096243 0.993642
vn -0.837878 0.516308 0.177160
vn -0.721825 0.292427 0.627260
vn -0.744884 0.263205 0.613083
vn -0.915686 0.180135 -0.359264
vn -0.285077 0.161045 -0.944879
vn -0.860099 0.321364 -0.396175
vn -0.655916 0.004550 -0.754820
vn -0.292123 0.027133 -0.955996
vn 0.295882 -0.250109 -0.921900
vn -0.019725 0.123227 0.992182
vn -0.751927 0.474210 0.457963
vn -0.836071 -0.548111 -0.023676
vn -0.278413 0.386428 -0.879295
vn -0.711771 0.127434 0.690755
vn -0.545618 0.807833 -0.222950
vn -0.696869 0.500409 0.513774
vn -0.582348 0.295227 -0.757438
vn -0.708570 0.689584 -0.149673
vn 0.781188 -0.415946 -0.465548
vn 0.869299 -0.457087 0.188124
vn -0.872454 -0.487629 0.032276
vn -0.972303 -0.232082 -0.027664
vn -0.766228 -0.302161 0.567092
vn -0.617013 0.018159 0.786743
vn -0.919270 -0.118721 -0.375297
vn -0.791375 -0.189867 -0.581098
vn -0.705563 -0.189701 -0.682784
vn -0.441100 -0.844309 0.304260
vn -0.650009 0.129958 0.748732
vn -0.993904 -0.035476 -0.104388
vn -0.955254 0.041779 -0.292821
vn -0.164806 0.872747 0.459511
vn -0.821555 0.285040 0.493761
vn -0.919383 0.307612 0.245174
vn -0.922956 0.313694 0.223041
vn -0.822816 -0.339153 0.456015
vn -0.704173 -0.411169 0.578862
vn -0.240313 0.891193 0.384740
vn -0.482825 -0.086879 0.871396
vn -0.552965 -0.723624 0.413035
vn -0.916968 -0.016506 0.398619
vn -0.252676 -0.819099 -0.515007
vn -0.986766 -0.084626 -0.138316
vn -0.017994 -0.989743 -0.141721
vn -0.907287 0.060308 0.416165
vn -0.997535 0.006301 0.069882
vn -0.177767 -0.936864 -0.301139
vn -0.772290 -0.073547 0.630998
vn -0.757997 0.112390 -0.642502
vn -0.630031 0.259472 -0.731939
vn -0.946911 -0.311150 0.080901
vn -0.585526 -0.481350 0.652274
vn -0.989275 -0.137257 0.049962
vn -0.524796 -0.365174 0.768920
vn -0.688250 0.696717 0.202233
vn -0.945710 0.086988 -0.313154
vn -0.856875 0.450113 -0.251324
vn -0.778202 0.610917 -0.145537
vn -0.837168 0.271895 0.474577
vn -0.090015 0.465679 -0.880363
vn 0.042807 0.567371 -0.822349
vn -0.062540 0.990788 -0.120115
vn 0.117804 0.974321 -0.191889
vn -0.969514 0.015422 0.244549
vn -0.629982 0.563549 0.534356
vn -0.518222 0.364462 -0.773701
vn -0.499530 0.838040 -0.219452
vn 0.748752 -0.462745 0.474592
vn -0.851340 0.494451 0.175323
vn -0.430252 0.531276 -0.729814
vn 0.585379 -0.596554 -0.549049
vn -0.494942 -0.219102 0.840849
vn 0.735966 -0.267098 -0.622104
vn 0.625406 -0.206017 -0.752612
vn -0.687240 -0.260128 -0.678259
vn -0.577632 -0.214337 -0.787656
vn -0.990680 0.064958 0.119722
vn -0.996274 0.075334 0.041996
vn -0.423604 0.654976 0.625752
vn -0.173070 0.502362 0.847160
vn 0.802825 0.448794 0.392499
vn 0.722296 0.348711 0.597235
vn 0.620679 -0.319332 -0.716090
vn 0.637044 -0.287221 -0.715317
vn -0.669998 -0.132464 -0.730449
vn -0.638679 -0.222184 -0.736697
vn -0.980475 -0.117471 0.157698
vn -0.987337 -0.101083 0.122260
vn -0.293784 0.281373 0.913521
vn 0.779796 -0.399662 0.481859
vn 0.815281 0.502749 -0.287333
vn 0.652743 -0.396493 -0.645539
vn -0.662005 -0.249272 -0.706833
vn -0.587691 0.371531 -0.718738
vn -0.994292 0.075231 0.075652
vn -0.988352 -0.007803 0.151982
vn -0.597672 -0.538837 0.593669
vn -0.279816 -0.456696 0.844472
vn 0.969132 0.216243 0.118412
vn -0.666240 -0.208773 -0.715918
vn 0.640312 -0.271788 -0.718424
vn 0.803882 0.055254 0.592216
vn -0.082329 -0.076601 0.993657
vn 0.726085 -0.097713 0.680627
vn -0.277592 -0.253302 0.926704
vn -0.491485 0.310157 -0.813784
vn 0.595982 0.325315 -0.734149
vn 0.807989 -0.357826 -0.468096
vn 0.736568 -0.363204 -0.570570
vn -0.328188 -0.582901 -0.743316
vn -0.574346 -0.473972 -0.667440
vn -0.978810 -0.140182 0.149263
vn -0.986314 -0.146468 0.075705
vn -0.483672 0.200589 0.851954
vn -0.422888 0.236273 0.874838
vn 0.822141 0.147020 0.549973
vn 0.820481 0.149260 0.551844
vn -0.716740 -0.682262 0.144231
vn -0.138499 -0.129464 0.981864
vn -0.262653 0.802353 0.535951
vn -0.161322 0.741118 0.651705
vn -0.190074 0.744239 0.640297
vn -0.119571 0.516905 0.847651
vn -0.030999 0.485965 0.873429
vn -0.978259 -0.173615 0.113432
vn -0.886538 -0.410124 -0.214122
vn 0.798080 -0.244640 -0.550654
vn 0.193968 -0.893827 -0.404289
vn 0.824907 -0.366557 -0.430307
vn 0.760632 -0.394503 -0.515565
vn 0.875380 -0.475991 -0.084514
vn 0.628791 0.773854 0.075974
vn -0.468464 0.729115 0.498932
vn -0.378488 0.389193 0.839807
vn 0.995915 0.061731 0.065906
vn 0.993317 0.047525 0.105181
vn -0.956577 -0.288339 -0.042683
vn -0.962746 -0.259400 -0.076362
vn -0.383138 0.370392 0.846177
vn -0.907889 -0.414233 0.064403
vn -0.242541 -0.442612 -0.863289
vn -0.121503 -0.506760 -0.853482
vn 0.994328 0.056520 0.090092
vn -0.999864 -0.015967 0.004046
vn 0.982941 -0.101279 0.153524
vn 0.775957 -0.020118 -0.630465
vn -0.334346 -0.206986 -0.919440
vn -0.343560 -0.412270 0.843801
vn -0.974439 -0.199937 -0.102438
vn -0.135595 -0.251335 -0.958355
vn -0.783117 0.386525 0.487161
vn -0.792889 0.373651 0.481365
vn 0.992448 0.013523 0.121915
vn -0.397865 0.394038 0.828515
vn -0.927998 -0.372442 -0.010340
vn -0.233857 -0.598606 -0.766147
vn 0.925934 0.260230 -0.273727
vn -0.568729 0.607456 -0.554567
vn -0.448277 0.719979 -0.529791
vn -0.868041 -0.181242 0.462230
vn -0.810358 -0.327091 0.486139
vn 0.524627 -0.458984 0.717008
vn 0.446868 -0.547159 0.707761
vn -0.893683 -0.298419 0.335078
vn 0.397606 -0.184904 0.898732
vn -0.328798 -0.139007 -0.934114
vn -0.797298 -0.314295 0.515300
vn -0.686799 0.153011 0.710559
vn 0.469456 0.084922 0.878862
vn -0.875890 0.047647 0.480152
vn 0.432993 -0.520512 0.735924
vn 0.819535 0.482253 -0.309505
vn -0.843670 0.298261 0.446387
vn 0.566118 0.094705 0.818866
vn -0.799508 0.370369 0.472878
vn -0.702177 -0.227703 -0.674611
vn -0.424764 -0.528282 -0.735183
vn 0.087053 -0.632856 -0.769360
vn 0.432051 -0.677201 -0.595592
vn 0.556868 0.123346 0.821391
vn 0.883536 -0.419351 -0.208586
vn -0.607072 0.762745 -0.222898
vn -0.850334 -0.367762 0.376409
vn 0.577614 -0.626530 0.523281
vn 0.836407 0.544715 -0.060898
vn -0.761799 0.434777 -0.480240
vn 0.934321 0.276459 -0.224977
vn 0.924575 0.287955 -0.249488
vn -0.563469 0.503829 -0.654720
vn -0.753322 -0.612935 0.238363
vn -0.906705 -0.394418 0.149402
vn 0.598524 -0.638699 0.483562
vn 0.513960 -0.705970 0.487289
vn 0.827447 0.560522 0.033871
vn 0.164237 0.871049 -0.462926
vn 0.989849 -0.134388 -0.046254
vn -0.890203 0.320090 -0.324162
vn 0.089343 -0.522122 -0.848179
vn 0.025516 -0.538880 -0.841996
vn -0.754798 0.153996 0.637624
vn -0.610488 0.768814 -0.190340
vn 0.592953 -0.120447 0.796178
vn -0.682891 0.023728 0.730135
vn 0.569678 -0.136457 0.810460
vn 0.046654 -0.240744 -0.969467
vn 0.155281 -0.144414 -0.977258
vn -0.643408 0.089845 0.760233
vn -0.265942 -0.688508 0.674709
vn 0.558409 -0.113024 0.821830
vn -0.402669 -0.915000 0.025159

f 1/1/1 2/2/1 3/3/1
f 4/4/2 5/5/2 6/6/2
f 4/4/3 6/7/3 7/8/3
f 5/9/4 8/10/4 9/11/4
f 10/12/5 11/13/5 9/14/5
f 6/6/6 11/15/6 7/8/6
f 6/6/7 12/16/7 11/13/7
f 12/17/8 5/5/8 9/14/8
f 6/6/9 5/5/9 12/17/9
f 11/13/10 12/18/10 9/19/10
f 13/20/11 14/21/11 15/22/11
f 14/21/12 13/20/12 16/23/12
f 16/24/13 13/20/13 17/25/13
f 15/22/14 14/21/14 18/26/14
f 14/21/15 19/27/15 18/26/15
f 18/26/16 20/28/16 21/29/16
f 18/26/17 19/27/17 20/28/17
f 20/28/18 3/30/18 21/29/18
f 5/9/19 22/31/19 23/32/19
f 24/33/20 25/34/20 26/35/20
f 27/36/21 25/34/21 9/37/21
f 28/38/22 27/39/22 29/40/22
f 30/41/23 25/34/23 24/33/23
f 25/34/24 30/41/24 10/42/24
f 30/41/25 24/33/25 31/43/25
f 24/33/26 26/44/26 32/45/26
f 33/46/27 34/47/27 5/9/27
f 4/4/28 22/31/28 5/9/28
f 26/35/29 25/34/29 27/39/29
f 33/46/30 35/48/30 34/47/30
f 32/45/31 26/35/31 28/38/31
f 23/32/32 33/46/32 5/9/32
f 26/35/33 27/39/33 28/38/33
f 28/38/34 29/40/34 36/49/34
f 35/50/35 37/51/35 29/40/35
f 28/38/36 38/52/36 32/45/36
f 36/49/37 38/52/37 28/38/37
f 36/49/38 37/53/38 39/54/38
f 39/55/39 37/56/39 40/57/39
f 41/58/40 42/59/40 39/55/40
f 39/55/41 40/57/41 41/58/41
f 36/49/42 29/40/42 37/51/42
f 37/56/43 35/48/43 33/46/43
f 37/56/44 33/46/44 40/57/44
f 40/57/45 33/46/45 43/60/45
f 40/57/46 43/60/46 41/58/46
f 33/46/47 23/32/47 43/60/47
f 44/61/48 45/62/48 30/63/48
f 15/64/49 46/65/49 45/62/49
f 46/66/50 47/67/50 10/68/50
f 47/67/51 7/69/51 11/70/51
f 45/62/52 44/61/52 17/71/52
f 44/61/53 30/63/53 31/72/53
f 13/73/54 15/64/54 45/62/54
f 46/65/55 10/74/55 45/62/55
f 45/62/56 10/74/56 30/63/56
f 47/67/57 11/70/57 10/68/57
f 47/67/58 48/75/58 7/69/58
f 46/66/59 15/76/59 47/67/59
f 18/77/60 47/67/60 15/76/60
f 47/67/61 18/77/61 48/75/61
f 18/77/62 21/78/62 48/75/62
f 13/73/63 45/62/63 17/71/63
f 49/79/64 35/50/64 29/40/64
f 8/80/65 27/81/65 9/82/65
f 34/47/66 50/83/66 5/84/66
f 27/36/67 49/79/67 29/40/67
f 35/48/68 51/85/68 52/86/68
f 35/50/69 49/79/69 51/87/69
f 52/86/70 50/83/70 34/47/70
f 35/48/71 52/86/71 34/47/71
f 5/84/72 50/83/72 8/10/72
f 53/88/73 27/81/73 8/80/73
f 53/88/74 49/79/74 27/36/74
f 54/89/75 55/90/75 56/91/75
f 57/92/76 55/90/76 58/93/76
f 59/94/77 60/95/77 55/90/77
f 61/96/78 54/89/78 56/91/78
f 39/97/79 61/96/79 36/98/79
f 36/98/80 61/96/80 56/91/80
f 36/98/81 56/91/81 38/99/81
f 62/100/82 63/101/82 64/102/82
f 65/103/83 64/102/83 54/89/83
f 61/96/84 65/103/84 54/89/84
f 66/104/85 67/105/85 62/100/85
f 55/90/86 60/95/86 68/106/86
f 69/107/87 68/106/87 60/95/87
f 69/107/88 70/108/88 68/106/88
f 58/109/89 55/90/89 68/106/89
f 68/106/90 71/110/90 58/111/90
f 62/100/91 67/105/91 63/101/91
f 64/102/92 63/101/92 69/107/92
f 70/108/93 71/110/93 68/106/93
f 58/111/94 71/110/94 72/112/94
f 56/91/95 57/92/95 38/113/95
f 55/90/96 57/114/96 56/91/96
f 73/115/97 74/116/97 38/113/97
f 58/109/98 72/112/98 73/115/98
f 57/117/99 58/111/99 73/115/99
f 57/92/100 73/115/100 38/113/100
f 73/115/101 72/112/101 74/116/101
f 39/97/102 75/118/102 61/96/102
f 75/118/103 39/97/103 76/119/103
f 64/102/104 59/94/104 54/89/104
f 64/102/105 60/95/105 59/94/105
f 54/89/106 59/94/106 55/90/106
f 64/102/107 69/107/107 60/95/107
f 65/103/108 66/104/108 62/100/108
f 65/103/109 61/96/109 75/118/109
f 75/118/110 76/119/110 65/103/110
f 66/104/111 65/103/111 76/119/111
f 62/100/112 64/102/112 65/103/112
f 39/97/113 42/120/113 76/119/113
f 77/121/114 76/119/114 42/120/114
f 67/105/115 76/119/115 77/121/115
f 66/104/116 76/119/116 67/105/116
f 9/82/117 25/34/117 10/42/117
f 51/122/118 49/123/118 78/124/118
f 79/125/119 50/126/119 52/127/119
f 52/127/120 51/122/120 79/125/120
f 80/128/121 81/129/121 53/130/121
f 51/122/122 78/124/122 79/125/122
f 82/131/123 50/126/123 79/125/123
f 50/126/124 82/131/124 8/132/124
f 53/133/125 78/124/125 49/123/125
f 83/134/126 84/135/126 85/136/126
f 84/135/127 83/134/127 86/137/127
f 86/137/128 87/138/128 84/135/128
f 88/139/129 84/135/129 87/138/129
f 87/138/130 89/140/130 88/139/130
f 90/141/131 88/139/131 89/140/131
f 91/142/132 92/143/132 90/141/132
f 90/141/133 89/140/133 91/142/133
f 85/136/134 92/144/134 91/145/134
f 91/145/135 83/134/135 85/136/135
f 80/128/136 93/146/136 83/134/136
f 94/147/137 83/134/137 93/146/137
f 93/146/138 87/138/138 94/147/138
f 87/138/139 93/146/139 95/148/139
f 95/148/140 96/149/140 87/138/140
f 89/140/141 87/138/141 96/149/141
f 97/150/142 91/142/142 89/140/142
f 97/151/143 81/129/143 80/128/143
f 8/132/144 82/131/144 80/128/144
f 93/146/145 80/128/145 98/152/145
f 98/152/146 95/148/146 93/146/146
f 95/148/147 82/131/147 79/125/147
f 79/125/148 78/124/148 95/148/148
f 96/149/149 95/148/149 78/124/149
f 78/124/150 53/133/150 81/153/150
f 81/153/151 96/149/151 78/124/151
f 80/128/152 53/130/152 8/154/152
f 94/147/153 87/138/153 86/137/153
f 86/137/154 83/134/154 94/147/154
f 97/151/155 83/134/155 91/145/155
f 89/140/156 96/149/156 97/150/156
f 80/128/157 83/134/157 97/151/157
f 81/153/158 97/150/158 96/149/158
f 82/131/159 95/148/159 98/152/159
f 98/152/160 80/128/160 82/131/160
f 85/136/161 99/155/161 100/156/161
f 99/155/162 85/136/162 84/135/162
f 84/135/163 101/157/163 99/155/163
f 101/157/164 84/135/164 88/139/164
f 88/139/165 90/141/165 101/157/165
f 102/158/166 101/157/166 90/141/166
f 90/141/167 103/159/167 102/158/167
f 103/159/168 90/141/168 92/143/168
f 92/144/169 85/136/169 103/160/169
f 100/156/170 103/160/170 85/136/170
f 104/161/171 105/162/171 106/163/171
f 107/164/172 106/163/172 108/165/172
f 109/166/173 110/167/173 103/168/173
f 109/166/174 111/169/174 104/161/174
f 104/161/175 110/167/175 109/166/175
f 104/161/176 111/169/176 112/170/176
f 113/171/177 112/170/177 111/169/177
f 106/163/178 110/167/178 104/161/178
f 104/161/179 112/170/179 105/162/179
f 105/172/180 113/173/180 111/174/180
f 113/173/181 105/172/181 112/175/181
f 105/172/182 111/174/182 109/176/182
f 109/176/183 106/177/183 105/172/183
f 109/176/184 100/178/184 106/177/184
f 103/179/185 100/178/185 109/176/185
f 102/180/186 103/168/186 110/167/186
f 106/163/187 114/181/187 108/165/187
f 115/182/188 116/183/188 106/177/188
f 116/184/189 117/185/189 118/186/189
f 108/165/190 114/181/190 119/187/190
f 119/187/191 120/188/191 108/165/191
f 118/189/192 121/190/192 114/191/192
f 114/191/193 121/190/193 117/192/193
f 116/193/194 115/194/194 119/187/194
f 120/188/195 119/187/195 115/194/195
f 121/195/196 118/186/196 117/185/196
f 108/165/197 101/196/197 102/180/197
f 115/182/198 106/177/198 100/178/198
f 100/178/199 99/197/199 115/182/199
f 120/188/200 99/198/200 101/196/200
f 106/163/201 107/164/201 110/167/201
f 108/165/202 120/188/202 101/196/202
f 120/188/203 115/194/203 99/198/203
f 107/164/204 102/180/204 110/167/204
f 102/180/205 107/164/205 108/165/205
f 118/199/206 106/177/206 116/183/206
f 114/181/207 106/163/207 118/200/207
f 114/191/208 117/192/208 119/201/208
f 117/192/209 116/202/209 119/201/209
f 122/203/210 123/204/210 124/205/210
f 125/206/211 126/207/211 123/208/211
f 125/206/212 123/208/212 127/209/212
f 125/210/213 128/211/213 126/212/213
f 128/211/214 129/213/214 126/212/214
f 128/214/215 124/215/215 129/216/215
f 122/217/216 124/215/216 128/214/216
f 130/218/217 128/211/217 125/219/217
f 131/220/218 122/221/218 130/222/218
f 132/223/219 125/224/219 127/225/219
f 132/226/220 131/227/220 125/219/220
f 133/228/221 131/227/221 132/226/221
f 133/229/222 122/221/222 131/220/222
f 130/218/223 125/219/223 131/227/223
f 128/214/224 130/222/224 122/221/224
f 127/209/225 123/204/225 122/203/225
f 16/230/226 133/228/226 14/231/226
f 16/232/227 3/3/227 133/229/227
f 14/231/228 133/228/228 132/226/228
f 14/233/229 132/223/229 19/234/229
f 132/223/230 127/225/230 19/234/230
f 20/235/231 19/234/231 127/225/231
f 20/235/232 127/225/232 122/236/232
f 3/3/233 122/221/233 133/229/233
f 3/237/234 20/235/234 122/236/234
f 134/238/235 135/239/235 136/240/235
f 137/241/236 135/242/236 134/243/236
f 138/244/237 139/245/237 137/246/237
f 138/247/238 136/248/238 139/249/238
f 134/238/239 136/240/239 123/208/239
f 138/247/240 123/250/240 136/248/240
f 123/250/241 138/247/241 124/251/241
f 134/238/242 123/208/242 126/252/242
f 129/253/243 134/243/243 126/254/243
f 137/241/244 134/243/244 129/253/244
f 138/244/245 137/246/245 129/255/245
f 138/244/246 129/255/246 124/256/246
f 136/257/247 140/258/247 139/259/247
f 136/257/248 141/260/248 140/258/248
f 142/261/249 139/259/249 140/258/249
f 135/262/250 143/263/250 141/260/250
f 141/264/251 143/265/251 142/266/251
f 142/266/252 140/267/252 141/264/252
f 137/268/253 143/263/253 135/262/253
f 135/262/254 141/260/254 136/257/254
f 139/259/255 142/261/255 137/268/255
f 137/268/256 144/269/256 143/263/256
f 137/268/257 142/261/257 144/269/257
f 143/265/258 145/270/258 146/271/258
f 146/271/259 142/266/259 143/265/259
f 143/263/260 144/269/260 145/272/260
f 144/269/261 146/273/261 145/272/261
f 146/273/262 144/269/262 142/261/262
f 3/274/263 16/275/263 17/276/263
f 147/5/264 4/4/264 148/6/264
f 148/7/265 4/4/265 7/8/265
f 149/10/266 147/9/266 150/11/266
f 151/13/267 152/12/267 150/14/267
f 151/15/268 148/6/268 7/8/268
f 153/16/269 148/6/269 151/13/269
f 147/5/270 153/17/270 150/14/270
f 147/5/271 148/6/271 153/17/271
f 153/18/272 151/13/272 150/19/272
f 154/21/273 155/20/273 156/22/273
f 155/20/274 154/21/274 157/23/274
f 155/20/275 157/24/275 17/25/275
f 154/21/276 156/22/276 158/26/276
f 159/27/277 154/21/277 158/26/277
f 160/28/278 158/26/278 21/29/278
f 159/27/279 158/26/279 160/28/279
f 3/30/280 160/28/280 21/29/280
f 22/31/281 147/9/281 23/32/281
f 161/34/282 24/33/282 162/35/282
f 161/34/283 163/36/283 150/37/283
f 163/39/284 164/38/284 165/40/284
f 161/34/285 166/41/285 24/33/285
f 166/41/286 161/34/286 152/42/286
f 24/33/287 166/41/287 31/43/287
f 162/44/288 24/33/288 32/45/288
f 167/47/289 168/46/289 147/9/289
f 22/31/290 4/4/290 147/9/290
f 161/34/291 162/35/291 163/39/291
f 169/48/292 168/46/292 167/47/292
f 162/35/293 32/45/293 164/38/293
f 168/46/294 23/32/294 147/9/294
f 163/39/295 162/35/295 164/38/295
f 165/40/296 164/38/296 170/49/296
f 171/51/297 169/50/297 165/40/297
f 38/52/298 164/38/298 32/45/298
f 38/52/299 170/49/299 164/38/299
f 171/53/300 170/49/300 172/54/300
f 171/56/301 172/55/301 173/57/301
f 42/59/302 41/58/302 172/55/302
f 173/57/303 172/55/303 41/58/303
f 165/40/304 170/49/304 171/51/304
f 169/48/305 171/56/305 168/46/305
f 168/46/306 171/56/306 173/57/306
f 168/46/307 173/57/307 43/60/307
f 43/60/308 173/57/308 41/58/308
f 23/32/309 168/46/309 43/60/309
f 174/62/310 44/61/310 166/63/310
f 175/65/311 156/64/311 174/62/311
f 176/67/312 175/66/312 152/68/312
f 7/69/313 176/67/313 151/70/313
f 44/61/314 174/62/314 17/71/314
f 166/63/315 44/61/315 31/72/315
f 156/64/316 155/73/316 174/62/316
f 152/74/317 175/65/317 174/62/317
f 152/74/318 174/62/318 166/63/318
f 151/70/319 176/67/319 152/68/319
f 48/75/320 176/67/320 7/69/320
f 156/76/321 175/66/321 176/67/321
f 176/67/322 158/77/322 156/76/322
f 158/77/323 176/67/323 48/75/323
f 21/78/324 158/77/324 48/75/324
f 174/62/325 155/73/325 17/71/325
f 169/50/326 177/79/326 165/40/326
f 163/81/327 149/80/327 150/82/327
f 178/83/328 167/47/328 147/84/328
f 177/79/329 163/36/329 165/40/329
f 179/85/330 169/48/330 180/86/330
f 177/79/331 169/50/331 179/87/331
f 178/83/332 180/86/332 167/47/332
f 180/86/333 169/48/333 167/47/333
f 178/83/334 147/84/334 149/10/334
f 163/81/335 181/88/335 149/80/335
f 177/79/336 181/88/336 163/36/336
f 182/90/337 183/89/337 184/91/337
f 182/90/338 185/92/338 186/93/338
f 187/95/339 188/94/339 182/90/339
f 183/89/340 189/96/340 184/91/340
f 189/96/341 172/97/341 170/98/341
f 189/96/342 170/98/342 184/91/342
f 184/91/343 170/98/343 38/99/343
f 63/101/344 190/100/344 191/102/344
f 191/102/345 192/103/345 183/89/345
f 192/103/346 189/96/346 183/89/346
f 67/105/347 193/104/347 190/100/347
f 187/95/348 182/90/348 194/106/348
f 194/106/349 69/107/349 187/95/349
f 70/108/350 69/107/350 194/106/350
f 182/90/351 186/109/351 194/106/351
f 71/110/352 194/106/352 186/111/352
f 67/105/353 190/100/353 63/101/353
f 63/101/354 191/102/354 69/107/354
f 71/110/355 70/108/355 194/106/355
f 71/110/356 186/111/356 72/112/356
f 185/92/357 184/91/357 38/113/357
f 185/114/358 182/90/358 184/91/358
f 74/116/359 195/115/359 38/113/359
f 72/112/360 186/109/360 195/115/360
f 186/111/361 185/117/361 195/115/361
f 195/115/362 185/92/362 38/113/362
f 72/112/363 195/115/363 74/116/363
f 196/118/364 172/97/364 189/96/364
f 172/97/365 196/118/365 197/119/365
f 188/94/366 191/102/366 183/89/366
f 187/95/367 191/102/367 188/94/367
f 188/94/368 183/89/368 182/90/368
f 69/107/369 191/102/369 187/95/369
f 193/104/370 192/103/370 190/100/370
f 189/96/371 192/103/371 196/118/371
f 197/119/372 196/118/372 192/103/372
f 192/103/373 193/104/373 197/119/373
f 191/102/374 190/100/374 192/103/374
f 42/120/375 172/97/375 197/119/375
f 197/119/376 77/121/376 42/120/376
f 197/119/377 67/105/377 77/121/377
f 197/119/378 193/104/378 67/105/378
f 161/34/379 150/82/379 152/42/379
f 177/123/380 179/122/380 198/124/380
f 178/126/381 199/125/381 180/127/381
f 179/122/382 180/127/382 199/125/382
f 200/129/383 201/128/383 181/130/383
f 198/124/384 179/122/384 199/125/384
f 178/126/385 202/131/385 199/125/385
f 202/131/386 178/126/386 149/132/386
f 198/124/387 181/133/387 177/123/387
f 203/135/388 204/134/388 205/136/388
f 204/134/389 203/135/389 206/137/389
f 207/138/390 206/137/390 203/135/390
f 203/135/391 208/139/391 207/138/391
f 209/140/392 207/138/392 208/139/392
f 208/139/393 210/141/393 209/140/393
f 211/143/394 212/142/394 210/141/394
f 209/140/395 210/141/395 212/142/395
f 211/144/396 205/136/396 212/145/396
f 204/134/397 212/145/397 205/136/397
f 213/146/398 201/128/398 204/134/398
f 204/134/399 214/147/399 213/146/399
f 207/138/400 213/146/400 214/147/400
f 213/146/401 207/138/401 215/148/401
f 216/149/402 215/148/402 207/138/402
f 207/138/403 209/140/403 216/149/403
f 212/142/404 217/150/404 209/140/404
f 200/129/405 217/151/405 201/128/405
f 202/131/406 149/132/406 201/128/406
f 201/128/407 213/146/407 218/152/407
f 215/148/408 218/152/408 213/146/408
f 202/131/409 215/148/409 199/125/409
f 198/124/410 199/125/410 215/148/410
f 215/148/411 216/149/411 198/124/411
f 181/133/412 198/124/412 200/153/412
f 216/149/413 200/153/413 198/124/413
f 181/130/414 201/128/414 149/154/414
f 207/138/415 214/147/415 206/137/415
f 204/134/416 206/137/416 214/147/416
f 204/134/417 217/151/417 212/145/417
f 216/149/418 209/140/418 217/150/418
f 204/134/419 201/128/419 217/151/419
f 217/150/420 200/153/420 216/149/420
f 215/148/421 202/131/421 218/152/421
f 201/128/422 218/152/422 202/131/422
f 219/155/423 205/136/423 220/156/423
f 205/136/424 219/155/424 203/135/424
f 221/157/425 203/135/425 219/155/425
f 203/135/426 221/157/426 208/139/426
f 210/141/427 208/139/427 221/157/427
f 221/157/428 222/158/428 210/141/428
f 223/159/429 210/141/429 222/158/429
f 210/141/430 223/159/430 211/143/430
f 205/136/431 211/144/431 223/160/431
f 223/160/432 220/156/432 205/136/432
f 224/162/433 225/161/433 226/163/433
f 226/163/434 227/164/434 228/165/434
f 229/167/435 230/166/435 223/168/435
f 231/169/436 230/166/436 225/161/436
f 229/167/437 225/161/437 230/166/437
f 231/169/438 225/161/438 232/170/438
f 232/170/439 233/171/439 231/169/439
f 229/167/440 226/163/440 225/161/440
f 232/170/441 225/161/441 224/162/441
f 233/173/442 224/172/442 231/174/442
f 224/172/443 233/173/443 232/175/443
f 231/174/444 224/172/444 230/176/444
f 226/177/445 230/176/445 224/172/445
f 220/178/446 230/176/446 226/177/446
f 220/178/447 223/179/447 230/176/447
f 223/168/448 222/180/448 229/167/448
f 234/181/449 226/163/449 228/165/449
f 235/183/450 236/182/450 226/177/450
f 237/185/451 235/184/451 238/186/451
f 234/181/452 228/165/452 239/187/452
f 240/188/453 239/187/453 228/165/453
f 241/190/454 238/189/454 234/191/454
f 241/190/455 234/191/455 237/192/455
f 236/194/456 235/193/456 239/187/456
f 239/187/457 240/188/457 236/194/457
f 238/186/458 241/195/458 237/185/458
f 221/196/459 228/165/459 222/180/459
f 226/177/460 236/182/460 220/178/460
f 219/197/461 220/178/461 236/182/461
f 219/198/462 240/188/462 221/196/462
f 227/164/463 226/163/463 229/167/463
f 240/188/464 228/165/464 221/196/464
f 236/194/465 240/188/465 219/198/465
f 222/180/466 227/164/466 229/167/466
f 227/164/467 222/180/467 228/165/467
f 226/177/468 238/199/468 235/183/468
f 226/163/469 234/181/469 238/200/469
f 237/192/470 234/191/470 239/201/470
f 235/202/471 237/192/471 239/201/471
f 242/204/472 243/203/472 244/205/472
f 245/207/473 246/206/473 242/208/473
f 242/208/474 246/206/474 247/209/474
f 248/211/475 246/210/475 245/212/475
f 249/213/476 248/211/476 245/212/476
f 244/215/477 248/214/477 249/216/477
f 244/215/478 243/217/478 248/214/478
f 248/211/479 250/218/479 246/219/479
f 243/221/480 251/220/480 250/222/480
f 246/224/481 252/223/481 247/225/481
f 251/227/482 252/226/482 246/219/482
f 251/227/483 253/228/483 252/226/483
f 243/221/484 253/229/484 251/220/484
f 246/219/485 250/218/485 251/227/485
f 250/222/486 248/214/486 243/221/486
f 242/204/487 247/209/487 243/203/487
f 253/228/488 157/230/488 154/231/488
f 3/3/489 157/232/489 253/229/489
f 253/228/490 154/231/490 252/226/490
f 252/223/491 154/233/491 159/234/491
f 247/225/492 252/223/492 159/234/492
f 159/234/493 160/235/493 247/225/493
f 247/225/494 160/235/494 243/236/494
f 243/221/495 3/3/495 253/229/495
f 160/235/496 3/237/496 243/236/496
f 254/239/497 255/238/497 256/240/497
f 254/242/498 257/241/498 255/243/498
f 258/245/499 259/244/499 257/246/499
f 256/248/500 259/247/500 258/249/500
f 256/240/501 255/238/501 242/208/501
f 242/250/502 259/247/502 256/248/502
f 259/247/503 242/250/503 244/251/503
f 242/208/504 255/238/504 245/252/504
f 255/243/505 249/253/505 245/254/505
f 255/243/506 257/241/506 249/253/506
f 257/246/507 259/244/507 249/255/507
f 249/255/508 259/244/508 244/256/508
f 260/258/509 256/257/509 258/259/509
f 261/260/510 256/257/510 260/258/510
f 258/259/511 262/261/511 260/258/511
f 263/263/512 254/262/512 261/260/512
f 263/265/513 261/264/513 262/266/513
f 260/267/514 262/266/514 261/264/514
f 263/263/515 257/268/515 254/262/515
f 261/260/516 254/262/516 256/257/516
f 262/261/517 258/259/517 257/268/517
f 264/269/518 257/268/518 263/263/518
f 262/261/519 257/268/519 264/269/519
f 265/270/520 263/265/520 266/271/520
f 262/266/521 266/271/521 263/265/521
f 264/269/522 263/263/522 265/272/522
f 266/273/523 264/269/523 265/272/523
f 264/269/524 266/273/524 262/261/524
f 157/275/525 3/274/525 17/276/525

o 
usemtl axe.001
s off

v -8.835770 62.600002 35.936321
v -9.220940 56.969410 31.270609
v -10.651701 56.842381 41.986900
v -10.662990 55.514320 38.918358
v -10.884850 54.889980 42.832760
v -10.896140 53.561920 39.764198
v -10.776950 46.344551 42.978790
v -10.435810 46.796089 35.678078
v -8.813750 65.189522 41.919540
v -10.754940 48.934067 48.962013
v -9.154890 64.737976 49.220261
v -10.640410 58.170437 45.055470
v -10.873560 56.218052 45.901299
v -10.369760 54.564663 53.627708
v -8.717150 55.316029 38.997021
v -8.705851 56.644093 42.065567
v -8.950300 53.363640 39.842869
v -8.939000 54.691700 42.911419
v -8.694560 57.972149 45.134109
v -8.927710 56.019760 45.979973
v -10.775670 42.261841 8.297900
v -11.008821 40.309448 9.143750
v -9.062970 40.111160 9.222410
v -8.829821 42.063560 8.376560
v -9.760281 59.891781 51.979580
v -11.126300 26.491831 -22.782551
v -9.180449 26.293541 -22.703892
v -8.947300 28.245930 -23.549740
v -10.893150 28.444231 -23.628399

vt 0.033358 0.643728
vt 0.190411 0.923560
vt 0.402692 0.503812
vt 0.402692 0.647326
vt 0.408249 0.287497
vt 0.408249 0.367848
vt 0.492649 0.287497
vt 0.492649 0.367848
vt 0.403043 0.503812
vt 0.403044 0.647326
vt 0.033710 0.643728
vt 0.190763 0.923560
vt 0.033358 0.363896
vt 0.033710 0.363896
vt 0.190411 0.084064
vt 0.402692 0.360297
vt 0.408249 0.207147
vt 0.492649 0.207147
vt 0.403043 0.360297
vt 0.190763 0.084064
vt 0.408248 1.036942
vt 0.492649 1.036942
vt 0.483600 0.371280
vt 0.402049 0.371280
vt 0.402049 1.040375
vt 0.483600 1.040375
vt 0.450449 0.037941
vt 0.483600 0.210579
vt 0.402049 0.210579
vt 0.442825 0.041374
vt 0.000000 1.000000

vn -0.976503 0.173133 -0.128323
vn -0.948279 0.292581 -0.123139
vn -0.994044 0.101297 -0.040183
vn -0.999881 -0.012470 0.009076
vn -0.998064 -0.038309 -0.049006
vn -0.972896 0.213504 -0.088824
vn -0.970558 0.238921 -0.030574
vn -0.994516 -0.094602 0.044603
vn -0.998428 0.028121 0.048488
vn 0.994516 0.094601 -0.044603
vn 0.998428 -0.028121 -0.048488
vn 0.994044 -0.101297 0.040182
vn 0.970558 -0.238920 0.030574
vn 0.972896 -0.213504 0.088823
vn 0.999881 0.012470 -0.009076
vn 0.998064 0.038309 0.049006
vn 0.976503 -0.173133 0.128323
vn 0.948280 -0.292579 0.123139
vn -0.091161 -0.974990 -0.202695
vn 0.087288 0.519343 -0.850096
vn 0.091160 0.974989 0.202696
vn -0.087282 -0.519344 0.850096
vn 0.108923 0.912128 -0.395168
vn -0.108922 -0.912128 0.395168
vn -0.984113 0.155017 0.086554
vn 0.985043 -0.045647 0.166155
vn -0.107180 -0.842084 0.528589
vn 0.108194 0.961458 -0.252771
vn -0.003378 -0.397192 -0.917729

f 267/277/526 268/278/526 269/279/526
f 270/280/527 269/279/527 268/278/527
f 269/281/528 270/282/528 271/283/528
f 272/284/528 271/283/528 270/282/528
f 271/285/529 272/286/529 273/287/529
f 274/288/530 273/287/530 272/286/530
f 275/289/531 267/277/531 269/279/531
f 273/287/529 276/290/529 271/285/529
f 277/291/532 275/289/532 278/292/532
f 269/279/531 278/292/531 275/289/531
f 278/293/528 269/281/528 279/294/528
f 271/283/528 279/294/528 269/281/528
f 279/295/533 271/285/533 280/296/533
f 276/290/534 280/296/534 271/285/534
f 281/280/535 268/278/535 282/279/535
f 267/277/536 282/279/536 268/278/536
f 283/284/537 281/282/537 284/283/537
f 282/281/537 284/283/537 281/282/537
f 274/288/538 283/286/538 273/287/538
f 284/285/539 273/287/539 283/286/539
f 282/279/540 267/277/540 275/289/540
f 273/287/539 284/285/539 276/290/539
f 282/279/540 275/289/540 285/292/540
f 277/291/541 285/292/541 275/289/541
f 284/283/537 282/281/537 286/294/537
f 285/293/537 286/294/537 282/281/537
f 276/290/542 284/285/542 280/296/542
f 286/295/543 280/296/543 284/285/543
f 270/280/544 268/278/544 281/280/544
f 283/286/545 274/288/545 272/286/545
f 279/295/546 280/296/546 286/295/546
f 285/292/547 277/291/547 278/292/547
f 272/284/528 270/282/528 287/297/528
f 287/297/528 288/298/528 272/284/528
f 281/282/537 283/284/537 289/298/537
f 289/298/537 290/297/537 281/282/537
f 270/299/548 281/300/548 290/301/548
f 290/301/548 287/302/548 270/299/548
f 283/300/549 272/299/549 288/302/549
f 288/302/549 289/301/549 283/300/549
f 278/293/550 279/294/550 291/303/550
f 286/294/551 285/293/551 291/303/551
f 279/304/552 286/305/552 291/306/552
f 285/305/553 278/304/553 291/306/553
f 289/298/549 288/297/549 292/298/549 293/307/549
f 287/297/548 290/298/548 294/297/548 295/307/548
f 290/297/537 289/298/537 293/297/537 294/307/537
f 288/298/528 287/297/528 295/298/528 292/307/528
f 294/297/554 293/298/554 295/297/554
f 292/298/554 295/297/554 293/298/554

