mtllib anim_barb_attack6_axe_000005.mtl

o fat
usemtl axe.001
s off

v 29.984320 65.676208 9.126121
v 24.012430 62.483932 11.912971
v 31.264860 68.653931 17.035030
v 28.419161 66.918381 16.771080
v 30.993172 68.777061 19.154621
v 28.147459 67.041512 18.890680
v 27.722261 66.701347 26.773691
v 22.596741 63.125511 22.957531
v 35.533031 69.060280 9.640770
v 33.270969 70.085434 27.288330
v 40.658562 72.636108 13.456921
v 34.110580 70.389488 17.298969
v 33.838879 70.512611 19.418570
v 39.242859 73.277702 24.501492
v 29.416410 65.249016 16.995880
v 32.262131 66.984566 17.259830
v 29.144730 65.372154 19.115480
v 31.990431 67.107704 19.379429
v 35.107830 68.720123 17.523769
v 34.836140 68.843262 19.643370
v 0.022350 49.599663 14.137230
v -0.249340 49.722790 16.256830
v 0.747930 48.053432 16.481630
v 0.355990 49.554867 14.330430
v 40.465969 73.271164 19.027000
v -29.856018 31.663721 13.511830
v -28.886530 30.078362 13.629910
v -28.586969 29.871239 11.617100
v -29.584360 31.540510 11.392241

vt 0.033358 0.643728
vt 0.190411 0.923560
vt 0.402692 0.503812
vt 0.402692 0.647326
vt 0.408249 0.287497
vt 0.408249 0.367848
vt 0.492649 0.287497
vt 0.492649 0.367848
vt 0.403043 0.503812
vt 0.403044 0.647326
vt 0.033710 0.643728
vt 0.190763 0.923560
vt 0.033358 0.363896
vt 0.033710 0.363896
vt 0.190411 0.084064
vt 0.402692 0.360297
vt 0.408249 0.207147
vt 0.492649 0.207147
vt 0.403043 0.360297
vt 0.190763 0.084064
vt 0.408248 1.036942
vt 0.492649 1.036942
vt 0.483600 0.371280
vt 0.402049 0.371280
vt 0.402049 1.040375
vt 0.483600 1.040375
vt 0.450449 0.037941
vt 0.483600 0.210579
vt 0.402049 0.210579
vt 0.442825 0.041374
vt 0.000000 1.000000

vn -0.537613 0.814127 -0.219475
vn -0.470908 0.821161 -0.322397
vn -0.509455 0.852799 -0.114843
vn -0.521254 0.853357 0.008707
vn -0.574339 0.818606 0.004344
vn -0.489810 0.839105 -0.236619
vn -0.434594 0.870291 -0.231777
vn -0.524789 0.845579 0.097945
vn -0.474556 0.880182 -0.008687
vn 0.524787 -0.845581 -0.097941
vn 0.474556 -0.880183 0.008686
vn 0.509455 -0.852800 0.114841
vn 0.434596 -0.870291 0.231776
vn 0.489809 -0.839106 0.236619
vn 0.521256 -0.853356 -0.008707
vn 0.574338 -0.818607 -0.004344
vn 0.537613 -0.814127 0.219476
vn 0.470911 -0.821161 0.322392
vn -0.592144 -0.250603 0.765875
vn -0.384197 -0.344845 -0.856431
vn 0.592142 0.250607 -0.765874
vn 0.384198 0.344843 0.856432
vn 0.430827 -0.701289 -0.567962
vn 0.123163 -0.059820 -0.990582
vn 0.380369 -0.505938 -0.774174
vn -0.126928 0.057521 0.990243
vn -0.387426 0.916143 -0.102877
vn 0.621781 -0.773213 0.124616
vn 0.002406 0.134871 0.990860
vn 0.253383 0.021128 -0.967135
vn -0.115097 0.035035 0.992736
vn 0.163588 -0.112022 -0.980148
vn 0.539469 -0.800591 -0.260819
vn -0.509509 0.852765 -0.114859
vn -0.851741 -0.518800 -0.073378
vn -0.847910 -0.524341 -0.078193

f 1/1/1 2/2/1 3/3/1
f 4/4/2 3/3/2 2/2/2
f 3/5/3 4/6/3 5/7/3
f 6/8/3 5/7/3 4/6/3
f 5/9/4 6/10/4 7/11/4
f 8/12/5 7/11/5 6/10/5
f 9/13/6 1/1/6 3/3/6
f 7/11/4 10/14/4 5/9/4
f 11/15/7 9/13/7 12/16/7
f 3/3/6 12/16/6 9/13/6
f 12/17/3 3/5/3 13/18/3
f 5/7/3 13/18/3 3/5/3
f 13/19/8 5/9/8 14/20/8
f 10/14/9 14/20/9 5/9/9
f 15/4/10 2/2/10 16/3/10
f 1/1/11 16/3/11 2/2/11
f 17/8/12 15/6/12 18/7/12
f 16/5/12 18/7/12 15/6/12
f 8/12/13 17/10/13 7/11/13
f 18/9/14 7/11/14 17/10/14
f 16/3/15 1/1/15 9/13/15
f 7/11/14 18/9/14 10/14/14
f 16/3/15 9/13/15 19/16/15
f 11/15/16 19/16/16 9/13/16
f 18/7/12 16/5/12 20/18/12
f 19/17/12 20/18/12 16/5/12
f 10/14/17 18/9/17 14/20/17
f 20/19/18 14/20/18 18/9/18
f 4/4/19 2/2/19 15/4/19
f 17/10/20 8/12/20 6/10/20
f 13/19/21 14/20/21 20/19/21
f 19/16/22 11/15/22 12/16/22
f 6/8/3 4/6/3 21/21/3
f 21/21/3 22/22/3 6/8/3
f 15/6/12 17/8/12 23/22/12
f 23/22/23 24/21/23 15/6/23
f 4/23/24 15/24/24 24/25/24
f 24/25/25 21/26/25 4/23/25
f 17/24/26 6/23/26 22/26/26
f 22/26/26 23/25/26 17/24/26
f 12/17/27 13/18/27 25/27/27
f 20/18/28 19/17/28 25/27/28
f 13/28/29 20/29/29 25/30/29
f 19/29/30 12/28/30 25/30/30
f 23/22/31 22/21/31 26/22/31 27/31/31
f 21/21/32 24/22/32 28/21/32 29/31/32
f 24/21/33 23/22/33 27/21/33 28/31/33
f 22/22/34 21/21/34 29/22/34 26/31/34
f 28/21/35 27/22/35 29/21/35
f 26/22/36 29/21/36 27/22/36

