mtllib animateBarbarianAxe__000002.mtl

o fat
usemtl fat.001
s off

v -0.173360 37.550003 -2.602070
v 1.860240 37.156109 7.026690
v 0.436770 37.165890 2.301410
v 0.296580 59.282322 -7.897840
v 11.279460 64.318932 -2.384630
v 2.707510 55.514458 -6.622320
v -0.435540 51.295162 -4.464530
v 9.861540 61.206623 0.397550
v 7.732360 57.260368 -0.697120
v 6.911700 51.488708 -0.477970
v 4.069200 51.181511 -4.556250
v 6.459610 56.317741 -5.755340
v 9.060980 34.372890 4.616200
v 9.683300 38.806870 -0.769500
v 10.769120 38.204609 -1.350820
v 6.672660 36.314770 5.172350
v 3.993900 35.907063 8.004780
v 4.557770 38.654152 -6.103960
v 4.051450 39.210503 -4.708620
v 0.740570 38.027882 -3.657760
v -0.398890 34.168980 -2.452030
v 0.092910 64.941429 -7.765810
v -0.034820 66.932190 -7.860440
v 0.123560 58.637310 6.340150
v 5.076950 58.671322 6.015840
v 5.879830 62.904949 7.687860
v 7.127610 63.957249 2.732400
v 5.739670 65.671204 6.334410
v 9.890221 66.346092 5.434031
v 4.568720 51.697048 4.454570
v 1.196770 51.462612 5.773030
v 0.274020 64.242172 7.643400
v 5.843360 69.775063 -3.549580
v 12.695360 65.791092 -0.711420
v 11.816330 67.176170 2.704040
v 1.920720 70.105141 4.053760
v 5.472640 71.110092 0.187280
v -0.851270 69.300125 4.109870
v 2.679130 75.516678 0.439940
v 3.524280 73.060066 -2.257570
v 0.352610 73.176468 -3.535510
v 0.157380 76.138100 -0.745600
v 0.282330 71.033401 -6.080460
v 0.548130 47.146729 6.232220
v 5.364230 47.124401 5.637480
v 8.418850 46.624863 0.472170
v 4.993240 45.882813 -4.695600
v -0.215040 45.777031 -5.398290
v 10.676929 65.793961 5.574430
v 12.280530 62.535000 -1.249020
v 12.644139 66.317757 3.675520
v 13.464650 65.159058 0.761080
v 9.003571 63.298752 6.187950
v 2.754020 75.099365 5.950380
v 1.403780 73.630280 7.763130
v 2.058140 70.725723 4.991070
v 1.844710 69.707344 6.742750
v 0.925020 72.263954 7.754320
v 1.859740 75.594383 7.499890
v 0.080130 75.472076 7.819640
v 3.272120 76.363083 3.191530
v 0.761740 79.472397 7.816460
v -0.528960 79.430420 8.124090
v 1.934770 76.881325 8.088590
v 2.460050 78.714668 7.004890
v 1.371790 80.743141 5.056240
v -0.270970 80.733780 4.907960
v 0.508040 73.650597 8.312490
v -0.532750 76.225449 8.104480
v -0.633800 74.231819 9.333210
v -0.585820 73.631691 8.717350
v -0.592990 72.050209 8.774330
v 0.784080 69.284042 8.375260
v -0.601440 69.269409 8.906720
v 3.119790 78.701019 3.163100
v 2.621410 79.927582 2.583040
v 0.000870 80.145920 1.478150
v 12.757250 65.222672 6.338449
v 14.401130 64.975151 3.206420
v 8.883410 55.515388 3.278330
v 8.859990 58.917919 6.282850
v 13.565350 61.512951 0.217770
v 8.874351 52.946182 7.020200
v 10.419390 49.431950 11.455120
v 7.086060 51.083660 10.640000
v 11.641081 51.405731 8.277620
v 12.966410 54.027920 8.882481
v 11.530020 51.626549 13.007509
v 11.661030 55.318039 9.838910
v 9.971640 54.189301 13.465290
v 8.939470 54.691090 9.894899
v 7.356170 54.483562 12.354690
v 12.387119 52.872929 5.976190
v 12.161011 52.169182 7.011200
v 14.942980 57.351341 5.559000
v 12.961620 59.435730 7.155320
v 9.229980 55.866032 8.619870
v 13.137179 53.861828 3.504830
v 6.814490 47.675774 17.429369
v 5.255810 48.717468 17.148340
v 7.780150 48.562080 18.275600
v 7.013730 50.261322 18.588860
v 5.498080 50.621201 18.022501
v 2.374840 51.054768 22.171139
v 2.286770 50.152130 22.007671
v 3.422700 49.868450 21.413181
v 4.168490 50.482552 21.385099
v 4.837440 49.494354 22.589920
v 2.826780 50.965252 19.738659
v 3.444650 51.075081 20.986700
v 1.502500 50.921577 21.513988
v 1.473050 50.579739 23.233089
v 0.885450 50.452351 22.642281
v 3.534630 48.687256 24.215332
v 5.097850 45.169941 20.348019
v 4.312400 44.442173 22.003231
v 3.057010 43.951801 24.597940
v 2.710750 49.029953 23.282772
v 5.044070 44.947098 22.570930
v 6.111810 45.669571 21.105789
v 1.534010 47.725792 25.942760
v 3.050310 26.346371 -4.601820
v 5.899300 24.261629 -13.707870
v 3.549550 20.214331 -10.000771
v 8.923500 27.262722 -5.705470
v 10.854560 21.910500 -11.060539
v 5.357210 29.047401 -7.571590
v 7.020290 23.211821 -4.270170
v 7.571240 18.507021 -7.495800
v 6.979220 24.525509 -2.616000
v 7.250200 26.580589 -1.759830
v 10.057600 30.812050 -4.634300
v 7.381090 30.483511 1.826080
v 9.450670 14.171081 -18.591740
v 10.493580 11.924870 -20.309980
v 7.331680 13.563300 -21.618111
v 8.469680 11.178511 -17.265160
v 5.914330 13.452320 -18.135710
v 5.594020 10.813021 -19.867090
v 6.309700 9.391530 -24.397810
v 9.345590 10.096809 -24.658840
v 7.242660 5.214260 -17.059259
v 13.246130 6.770340 -17.429359
v 10.329480 6.595930 -12.924300
v 12.928180 5.088320 -13.546961
v 9.134920 3.977440 -12.524429
v -6.079540 66.927490 -8.996660
v -1.976270 55.482670 -6.726520
v -8.076900 61.438259 -6.026870
v -7.283310 57.159801 -0.969670
v -5.002220 51.323326 -2.796560
v -6.344100 51.345840 1.939850
v -5.766830 56.234909 -6.030900
v -9.352170 38.663300 0.923680
v -7.296520 40.411621 7.376660
v -10.502090 37.916451 0.923960
v -4.979840 41.132500 6.126250
v -5.387510 34.818378 -3.792270
v -4.760860 36.978348 -3.755650
v -1.280190 36.890789 -3.378840
v -4.837310 58.604851 5.876360
v -5.495640 62.828941 7.684680
v -10.496630 61.744209 0.100390
v -5.205470 65.596306 6.486150
v -10.382100 64.813095 -2.433630
v -2.359970 51.348419 5.923310
v -8.167900 67.721573 -8.866369
v -3.600810 69.732079 -5.643520
v -10.290070 66.980064 -5.257200
v -3.274910 70.076317 2.827610
v -4.998440 71.106422 -1.538740
v -2.501730 75.517967 0.101140
v -2.554550 73.050369 -3.130070
v -3.837170 46.744709 6.503090
v -7.974770 46.410271 1.897630
v -5.576800 45.927246 -3.700200
v -11.137859 64.225479 -4.595060
v -7.032340 65.036102 -10.732550
v -11.060480 66.257660 -6.730350
v -9.390650 66.527153 -9.368469
v -9.386540 61.172050 -4.164020
v -2.399550 73.636612 7.460600
v -3.441370 75.109711 5.457570
v -3.871930 70.733788 3.589840
v -2.664280 69.713753 6.392460
v -1.921160 72.268600 7.529650
v -1.095380 75.474037 7.726160
v -2.801650 75.602150 7.129100
v -3.512620 76.374405 2.651840
v -1.754660 79.476593 7.616280
v -2.964530 76.889511 7.698890
v -3.305810 78.724289 6.546250
v -1.916470 80.748611 4.794710
v -1.601850 73.654121 8.144660
v -1.879220 69.288132 8.166710
v -3.349980 78.711800 2.648500
v -2.762100 79.936562 2.154800
v -12.229919 63.875420 -6.842520
v -11.277451 65.584389 -9.839600
v -7.382720 58.082191 -9.673770
v -3.842260 59.680901 -11.930321
v -8.060320 64.143921 -11.917439
v -5.175690 52.226410 -19.035540
v -4.609160 55.516960 -14.369340
v -4.461620 51.184029 -15.443390
v -5.806700 55.678421 -17.610001
v -8.452050 56.561588 -16.547491
v -8.076350 52.097130 -18.870651
v -9.128690 55.282631 -14.983960
v -9.481970 51.295464 -16.303850
v -7.947740 50.654732 -13.980189
v -7.378920 53.578548 -13.758921
v -5.762000 58.413750 -16.481560
v -5.812060 57.254391 -17.012270
v -9.651180 61.274063 -14.713320
v -10.563780 59.479900 -11.969240
v -7.283720 56.099373 -12.530600
v -5.461180 61.205368 -15.906691
v -5.436220 45.093506 -19.898060
v -5.299100 44.590130 -18.078291
v -6.964130 45.159798 -20.215521
v -7.987330 44.734997 -18.627831
v -7.221660 44.367340 -17.247389
v -7.377200 39.231770 -16.872551
v -8.140200 39.303928 -16.361460
v -7.420670 40.328423 -17.591341
v -8.200080 40.901230 -17.632559
v -8.453780 40.187550 -19.153400
v -8.058730 40.878330 -16.625879
v -7.032030 41.466351 -15.883321
v -7.282480 39.279053 -15.672390
v -7.918400 37.853409 -16.475430
v -7.237300 37.944492 -15.987300
v -8.095590 38.001282 -19.432331
v -4.337660 39.502769 -22.106180
v -4.373390 41.387131 -21.542290
v -4.727730 36.631760 -22.527658
v -7.453660 38.297440 -18.352440
v -5.342520 39.577560 -22.417820
v -5.610040 41.481289 -22.102352
v -7.342830 35.291420 -19.407490
v -5.838730 19.333269 3.765070
v -2.725720 27.574841 8.312920
v -3.414670 19.336161 8.789760
v -10.730680 19.929560 7.218640
v -8.616420 27.524792 6.956440
v -5.084690 27.427809 4.356740
v -6.703120 25.737970 10.811470
v -7.378680 20.001610 11.783900
v -6.620760 27.787600 11.016870
v -6.182199 30.271641 9.932631
v -9.798390 30.966110 5.631560
v -5.890640 35.741779 8.604020
v -10.674490 6.401470 7.941960
v -9.571230 9.243480 8.114140
v -7.548220 6.899070 5.845390
v -8.583280 7.622519 10.797690
v -5.786780 5.730990 8.878770
v -6.029700 8.815340 8.827750
v -6.541190 1.861960 6.130950
v -9.586740 2.279930 5.550160
v -7.300430 2.678470 14.456100
v -13.328659 3.368430 13.271560
v -10.330720 4.810670 17.247210
v -12.930779 3.186640 17.373631
v -9.112290 2.606880 18.697069

vt 0.550479 0.485338
vt 0.414517 0.485338
vt 0.489174 0.497239
vt 0.490853 0.675485
vt 0.356970 0.710738
vt 0.458986 0.602657
vt 0.458693 0.603155
vt 0.491001 0.506534
vt 0.357039 0.710738
vt 0.272881 0.708251
vt 0.307767 0.663467
vt 0.329118 0.504113
vt 0.420682 0.504388
vt 0.307693 0.663467
vt 0.420389 0.504181
vt 0.390374 0.619683
vt 0.389206 0.622726
vt 0.390855 0.620128
vt 0.309151 0.663075
vt 0.578845 0.971377
vt 0.529882 0.993867
vt 0.501054 0.950636
vt 0.597833 0.993868
vt 0.684209 0.993870
vt 0.691613 0.940228
vt 0.584242 0.936155
vt 0.602549 0.993867
vt 0.689094 0.993870
vt 0.694409 0.971380
vt 0.730001 0.975635
vt 0.490853 0.781888
vt 0.490853 0.820915
vt 0.240556 0.660920
vt 0.133663 0.660928
vt 0.131880 0.753091
vt 0.060606 0.782384
vt 0.055577 0.663688
vt 0.136145 0.808744
vt 0.060014 0.783494
vt 0.058190 0.859642
vt 0.160773 0.512959
vt 0.067037 0.515196
vt 0.240700 0.512959
vt 0.131877 0.752996
vt 0.240556 0.781375
vt 0.390182 0.870896
vt 0.298691 0.847983
vt 0.294173 0.886121
vt 0.181129 0.899551
vt 0.052544 0.886601
vt 0.145152 0.921474
vt 0.235241 0.891030
vt 0.142740 0.921054
vt 0.172936 0.966074
vt 0.456563 0.999059
vt 0.389917 0.922986
vt 0.429989 0.941889
vt 0.491140 0.942697
vt 0.490646 0.999330
vt 0.490853 0.898039
vt 0.701416 0.118225
vt 0.813217 0.120956
vt 0.790107 0.184348
vt 0.877923 0.002315
vt 0.872775 0.120438
vt 0.505869 0.118716
vt 0.564263 0.119120
vt 0.507564 0.183764
vt 0.697589 0.180917
vt 0.580429 0.182675
vt 0.710756 0.001536
vt 0.701372 0.182427
vt 0.812168 0.002315
vt 0.857243 0.184348
vt 0.697567 0.116528
vt 0.503935 0.000692
vt 0.561277 0.000692
vt 0.688827 -0.000098
vt 0.002866 0.854679
vt 0.027518 0.706813
vt 0.061197 0.782654
vt 0.055608 0.663958
vt 0.251604 0.781884
vt 0.357109 0.710738
vt 0.243886 0.876138
vt 0.247300 0.848527
vt -0.000514 0.880403
vt 0.006948 0.782948
vt 0.674684 0.829607
vt 0.705811 0.784366
vt 0.654033 0.662928
vt 0.703232 0.671848
vt 0.720473 0.730776
vt 0.697736 0.853617
vt 0.729837 0.853035
vt 0.623758 0.856571
vt 0.587609 0.811448
vt 0.658187 0.605708
vt 0.748523 0.593788
vt 0.716351 0.931575
vt 0.747491 0.935506
vt 0.695349 0.885675
vt 0.676247 0.904603
vt 0.649719 0.961956
vt 0.745560 1.001324
vt 0.725611 0.781438
vt 0.747491 0.878462
vt 0.747491 0.808438
vt 0.720379 0.731031
vt 0.747491 0.790807
vt 0.720762 0.730332
vt 0.748639 0.732530
vt 0.746944 0.628012
vt 0.703659 0.671442
vt 0.731857 0.666086
vt 0.747085 0.666819
vt 0.703186 0.671176
vt 0.611291 0.885598
vt 0.604148 0.909350
vt 0.550618 0.823662
vt 0.550618 0.934468
vt 0.625864 0.557513
vt 0.571978 0.557920
vt 0.578607 0.510287
vt 0.669444 0.510287
vt 0.756032 0.560223
vt 0.679695 0.557918
vt 0.877240 0.461159
vt 0.992418 0.461159
vt 0.944262 0.560223
vt 0.756457 0.510287
vt 0.806202 0.560223
vt 0.498275 0.560223
vt 0.875566 0.382888
vt 0.758260 0.308662
vt 0.875912 0.308662
vt 0.759996 0.360654
vt 0.669163 0.382888
vt 0.671223 0.308662
vt 0.584325 0.382888
vt 0.577057 0.308662
vt 0.498223 0.363687
vt 0.498247 0.308662
vt 0.992597 0.308662
vt 0.992439 0.363687
vt 0.759483 0.410364
vt 0.758924 0.382888
vt 0.665903 0.461159
vt 0.580075 0.461159
vt 0.498223 0.402657
vt 0.992438 0.402657
vt 0.760539 0.449273
vt 0.498220 0.461159
vt 0.875438 0.575163
vt 0.762705 0.196431
vt 0.858161 0.196355
vt 0.690657 0.196417
vt 0.588027 0.196417
vt 0.498144 0.196431
vt 0.991918 0.196431
vt 0.375723 0.009258
vt 0.380090 0.017573
vt 0.356438 0.030356
vt 0.342839 0.029458
vt 0.369327 0.043627
vt 0.316032 0.012201
vt 0.336848 0.019568
vt 0.249292 0.041099
vt 0.371147 0.002582
vt 0.416197 0.004791
vt 0.408124 0.000758
vt 0.128136 0.016613
vt 0.154876 0.002573
vt 0.119423 0.002194
vt 0.160447 0.001473
vt 0.065726 0.014292
vt 0.105093 0.028910
vt 0.000825 0.069213
vt 0.000703 0.039244
vt 0.249314 0.055441
vt 0.429228 0.045736
vt 0.102506 0.115410
vt 0.153549 0.117195
vt 0.189513 0.114692
vt 0.228429 0.109580
vt 0.194639 0.033982
vt 0.406548 0.108121
vt 0.355355 0.108206
vt 0.448349 0.035630
vt 0.498209 0.039288
vt 0.461840 0.047992
vt 0.483032 0.114221
vt 0.406174 0.120334
vt 0.355217 0.119080
vt 0.243215 0.037501
vt 0.249314 0.089732
vt 0.000703 0.095058
vt 0.249292 0.105039
vt 0.160984 0.032072
vt 0.413806 0.033644
vt 0.442212 0.108407
vt 0.443088 0.117732
vt 0.023914 0.327327
vt 0.104127 0.227894
vt 0.000784 0.227894
vt 0.216171 0.327327
vt 0.216985 0.228421
vt 0.105699 0.228145
vt 0.104981 0.327662
vt 0.217575 0.327327
vt 0.351490 0.301452
vt 0.217290 0.227894
vt 0.351571 0.227894
vt 0.352420 0.301452
vt 0.489174 0.227894
vt 0.352342 0.227894
vt 0.471690 0.333380
vt 0.351597 0.328057
vt 0.217345 0.328075
vt 0.352312 0.363299
vt 0.470864 0.334174
vt 0.352330 0.328057
vt 0.216660 0.380224
vt 0.216104 0.328075
vt 0.104983 0.328371
vt 0.217232 0.380224
vt 0.351611 0.363299
vt 0.351459 0.420971
vt 0.352499 0.420971
vt 0.351589 0.497239
vt 0.229465 0.497239
vt 0.352627 0.497239
vt 0.229583 0.497239
vt 0.133020 0.497239
vt 0.072972 0.497239
vt 0.025422 0.328212
vt 0.002386 0.497239
vt 0.216130 0.152222
vt 0.223982 0.125749
vt 0.105883 0.155747
vt 0.351732 0.147623
vt 0.223132 0.128232
vt 0.218721 0.149411
vt 0.469070 0.149411
vt 0.483427 0.127273
vt 0.352306 0.146326
vt 0.017963 0.152222
vt 0.104256 0.155747
vt 0.009616 0.131504
vt 0.104128 0.227914
vt 0.000790 0.227921
vt 0.216984 0.228396
vt 0.351571 0.227971
vt 0.217291 0.227882
vt 0.352342 0.227879
vt 0.489111 0.227891
vt 0.948232 0.041698
vt 0.989968 0.003451
vt 0.971575 0.059997
vt 0.909211 0.004273
vt 0.996004 0.120663
vt 0.925604 0.058708
vt 0.885225 0.122889
vt 0.516483 0.798440
vt 0.501430 0.685191
vt 0.597947 0.686709
vt 0.594444 0.793024
vt 0.950876 0.082499
vt 0.943924 0.157220
vt 0.507177 0.624822
vt 0.600053 0.622523
vt 0.901715 0.182549
vt 0.982420 0.184037
vt 0.730212 0.975635
vt 0.685579 0.991654
vt 0.692830 0.969164

vn 0.393160 -0.911563 -0.120326
vn 0.452966 -0.011940 -0.891448
vn -0.114412 -0.383450 -0.916447
vn 0.885550 -0.460186 -0.063477
vn 0.817432 -0.137467 -0.559382
vn -0.029340 -0.437713 -0.898636
vn 0.280215 -0.339990 -0.897712
vn 0.872689 -0.470101 -0.131980
vn 0.152074 0.304513 -0.940290
vn 0.884830 -0.444441 -0.139816
vn -0.610516 -0.575381 -0.544249
vn -0.600707 -0.581760 -0.548367
vn -0.576279 -0.530796 -0.621417
vn -0.316724 -0.889343 0.329780
vn -0.258863 -0.925871 0.275231
vn 0.523524 0.109423 0.844955
vn 0.424912 -0.777227 0.464078
vn 0.959732 -0.280794 0.008311
vn 0.432762 -0.015080 -0.901382
vn 0.063090 -0.376922 0.924094
vn 0.915193 -0.115141 0.386219
vn 0.242619 -0.836412 0.491479
vn 0.065215 -0.222514 0.972746
vn 0.888870 -0.160812 0.429009
vn 0.365237 -0.018935 0.930722
vn -0.061263 -0.224494 0.972548
vn 0.528881 0.363162 -0.767071
vn 0.434857 0.036641 -0.899754
vn 0.949488 -0.253248 0.185303
vn 0.550727 0.813227 -0.188048
vn 0.098213 0.441375 0.891932
vn 0.470394 0.290775 -0.833174
vn 0.943440 0.183052 0.276429
vn 0.099099 0.521320 0.847588
vn 0.319929 0.819779 0.474982
vn 0.043745 0.578671 0.814387
vn -0.094626 0.389690 0.916072
vn 0.636596 0.364598 0.679568
vn 0.816501 0.530654 -0.227446
vn 0.452585 0.627070 -0.633995
vn 0.269699 0.752519 -0.600814
vn 0.301237 0.818360 0.489432
vn 0.576220 0.786092 -0.223675
vn 0.782343 0.607077 -0.139271
vn 0.442388 0.581003 -0.683175
vn 0.277939 0.730984 -0.623227
vn 0.451704 0.325579 -0.830640
vn 0.119298 0.268061 0.955987
vn 0.858723 0.132517 0.495010
vn 0.815348 0.143055 -0.561019
vn -0.019775 0.022838 -0.999544
vn 0.121179 0.190775 0.974125
vn 0.361089 0.044834 0.931453
vn 0.888630 0.225641 0.399278
vn 0.822577 0.343429 0.453237
vn 0.876982 0.257518 0.405693
vn 0.804892 0.155426 -0.572705
vn 0.128349 0.170448 -0.976972
vn 0.763239 0.332922 -0.553741
vn 0.608888 0.116203 -0.784699
vn 0.127831 0.182241 -0.974909
vn -0.446943 -0.213415 -0.868733
vn 0.574054 0.101347 0.812521
vn 0.424614 0.738283 0.524062
vn 0.318633 -0.409103 0.855048
vn 0.758556 0.010928 -0.651517
vn -0.431248 -0.410131 0.803628
vn 0.747874 0.661758 -0.052546
vn 0.265053 0.823421 0.501722
vn 0.879795 -0.033802 -0.474151
vn 0.727885 0.679975 -0.088415
vn -0.195845 -0.602455 -0.773752
vn -0.613073 -0.767689 0.186536
vn -0.673152 0.567900 0.473663
vn 0.861157 -0.235793 0.450344
vn 0.473514 -0.171491 0.863930
vn 0.169959 0.092040 0.981144
vn 0.978685 -0.178131 0.102197
vn 0.964043 -0.227181 -0.137878
vn 0.977370 -0.211511 -0.003257
vn 0.249564 -0.823868 0.508880
vn 0.220983 0.200291 0.954489
vn 0.922441 -0.037102 0.384352
vn 0.980601 0.022955 0.194666
vn -0.042211 0.911062 0.410103
vn 0.498348 0.333595 0.800228
vn 0.703171 0.334898 0.627212
vn 0.717019 0.339028 0.609051
vn 0.510799 -0.184399 0.839691
vn 0.338978 -0.261806 0.903632
vn 0.060314 0.923407 0.379054
vn 0.008069 -0.006127 0.999949
vn 0.264738 -0.680250 0.683501
vn 0.554852 0.027446 0.831496
vn 0.497717 -0.774808 -0.389809
vn 0.984682 0.069028 0.160113
vn 0.007947 -0.999945 -0.006815
vn 0.537212 0.147633 0.830427
vn 0.826834 0.076989 0.557152
vn 0.239009 -0.966332 -0.095278
vn 0.357400 0.043328 0.932946
vn 0.971766 0.060542 -0.228047
vn 0.907849 0.192788 -0.372347
vn 0.783433 -0.295712 0.546614
vn 0.188406 -0.417591 0.888887
vn 0.841525 -0.124916 0.525578
vn 0.083769 -0.292068 0.952722
vn 0.534016 0.716962 0.448098
vn 0.983455 0.066126 0.168652
vn 0.888831 0.432607 0.151100
vn 0.775119 0.601525 0.193284
vn 0.520723 0.318914 0.791923
vn 0.468735 0.390984 -0.792098
vn 0.377156 0.460561 -0.803515
vn 0.147057 0.976787 -0.155762
vn 0.021926 0.952711 -0.303085
vn 0.915135 -0.115455 0.386262
vn 0.115547 0.920372 0.373582
vn 0.921483 -0.137574 -0.363240
vn 0.572380 0.804485 -0.158698
vn -0.998536 0.031780 -0.043774
vn 0.629071 0.727966 0.272646
vn 0.808877 0.259982 -0.527378
vn 0.037703 -0.804089 -0.593313
vn -0.227602 0.373728 0.899180
vn -0.263427 -0.798650 -0.541077
vn -0.187056 -0.800611 -0.569238
vn 0.886015 -0.460425 0.054652
vn 0.882005 -0.470048 0.033490
vn 0.765661 0.403096 0.501274
vn 0.782681 0.389170 0.485754
vn 0.059666 0.990736 0.121991
vn -0.216241 0.956277 0.196911
vn -0.810172 0.314009 -0.494995
vn -0.884477 0.407476 -0.227296
vn -0.182391 -0.810350 -0.556836
vn -0.188915 -0.792371 -0.580050
vn 0.931523 -0.361236 -0.042114
vn 0.869204 -0.493916 0.023035
vn 0.736327 0.206449 0.644361
vn 0.706839 0.215780 0.673660
vn -0.157990 0.743825 0.649434
vn -0.995308 -0.067806 0.069029
vn -0.006046 -0.450782 -0.892614
vn -0.306607 -0.847970 -0.432364
vn 0.869219 -0.489751 0.067836
vn 0.966180 -0.010834 -0.257642
vn 0.874143 0.198858 0.443090
vn 0.698452 0.124156 0.704805
vn -0.051985 0.023330 0.998375
vn -0.221837 0.128604 0.966566
vn -0.981381 0.080364 -0.174448
vn 0.881742 -0.464560 0.081944
vn -0.191571 -0.803800 -0.563210
vn -0.984012 0.161266 -0.075595
vn -0.255242 0.583213 0.771177
vn -0.994306 0.088959 0.058673
vn -0.239116 0.571902 0.784698
vn 0.887961 -0.222598 -0.402463
vn -0.101990 -0.387850 -0.916062
vn -0.452881 -0.789431 -0.414365
vn -0.311632 -0.844170 -0.436191
vn 0.604071 -0.785660 0.133549
vn 0.790801 -0.565633 0.233867
vn 0.686561 0.299114 0.662695
vn 0.756943 0.228549 0.612211
vn -0.032350 0.802128 0.596275
vn -0.130201 0.838677 0.528837
vn -0.964631 0.175732 -0.196485
vn -0.958350 0.210557 -0.192952
vn 0.414297 -0.201178 0.887629
vn -0.436141 0.561813 0.702956
vn 0.054383 0.991966 -0.114218
vn -0.108784 0.992445 -0.056734
vn -0.074892 0.995909 -0.050565
vn -0.281327 0.942095 0.182517
vn -0.373263 0.911113 0.174781
vn 0.722259 0.218759 0.656115
vn 0.788272 -0.183296 0.587393
vn -0.400141 -0.747780 -0.529822
vn -0.076857 -0.956152 0.282607
vn -0.504450 -0.767705 -0.395170
vn -0.410966 -0.822759 -0.392650
vn -0.753372 -0.640002 -0.151091
vn -0.451929 0.419104 -0.787472
vn 0.227902 0.973644 0.008791
vn -0.081769 0.917219 0.389900
vn -0.851009 -0.192655 -0.488537
vn -0.872319 -0.177471 -0.455592
vn 0.771959 0.032427 0.634845
vn 0.799683 0.033835 0.599468
vn -0.084197 0.908919 0.408384
vn 0.654904 -0.004997 0.755696
vn 0.600624 -0.796856 -0.065350
vn 0.485607 -0.870906 -0.075555
vn -0.863588 -0.180781 -0.470674
vn 0.820471 0.277970 0.499561
vn -0.911949 -0.251671 -0.324052
vn -0.293865 -0.632942 -0.716259
vn 0.751704 -0.628643 -0.199372
vn -0.235366 0.327681 0.915002
vn 0.830730 0.062133 0.553198
vn 0.591129 -0.750154 -0.296370
vn 0.445493 0.806107 0.389522
vn 0.454954 0.795635 0.399977
vn -0.885703 -0.191222 -0.423042
vn -0.058899 0.919034 0.389752
vn 0.717977 -0.016192 0.695878
vn 0.517648 -0.850884 0.089646
vn -0.914830 0.222339 -0.337123
vn 0.570406 0.674605 -0.468556
vn 0.579109 0.666875 -0.468946
vn 0.833430 -0.210527 0.510953
vn 0.820246 -0.254996 0.512030
vn -0.600837 -0.498687 0.624745
vn -0.516943 -0.588996 0.621171
vn 0.903178 -0.324952 0.280491
vn -0.530100 -0.265587 0.805269
vn 0.500074 0.099821 -0.860210
vn 0.875782 -0.372489 0.307013
vn 0.873056 -0.345463 0.344136
vn -0.422597 -0.605461 0.674411
vn 0.904262 -0.260254 0.338494
vn -0.559922 -0.655540 0.506710
vn -0.866774 0.353219 -0.352051
vn 0.905123 -0.123490 0.406819
vn -0.418886 -0.489699 0.764676
vn 0.917539 -0.137426 0.373144
vn 0.547365 0.384872 -0.743145
vn 0.423973 0.295629 -0.856067
vn -0.362919 0.209170 -0.908041
vn -0.743312 -0.093440 -0.662387
vn -0.483501 -0.550844 0.680292
vn -0.979259 -0.187400 -0.077030
vn 0.552626 0.652862 -0.518049
vn 0.835898 -0.031090 0.548003
vn -0.589382 -0.391894 0.706434
vn -0.876844 0.333553 -0.346248
vn 0.657294 0.502974 -0.561233
vn -0.917439 0.149726 -0.368629
vn -0.903660 0.161257 -0.396730
vn 0.580934 0.511075 -0.633496
vn 0.826932 -0.461961 0.320585
vn 0.948862 -0.204394 0.240589
vn -0.681800 -0.613909 0.397824
vn -0.564751 -0.707871 0.424234
vn -0.882435 0.390735 -0.261982
vn -0.202061 0.576858 -0.791458
vn -0.950245 -0.306816 -0.053841
vn 0.892860 0.279434 -0.353153
vn 0.189686 -0.849084 -0.493027
vn 0.154201 -0.850117 -0.503510
vn 0.582152 0.610798 0.536680
vn 0.550092 0.708025 -0.442831
vn -0.673255 0.163403 0.721129
vn 0.621008 0.656967 0.427485
vn -0.816133 0.186781 0.546845
vn 0.163841 -0.910010 -0.380838
vn 0.216282 -0.915264 -0.339874
vn 0.530839 0.760909 0.373133
vn 0.251056 0.033200 0.967403
vn -0.787177 0.427060 0.444941
vn -0.048001 -0.981254 -0.186643
vn -0.111037 -0.231515 -0.966474
vn 0.213694 -0.402259 -0.890238
vn 0.642911 -0.532038 -0.550999
vn -0.924097 -0.279636 -0.260477
vn -0.292638 -0.535578 -0.792161
vn -0.255692 -0.559145 -0.788656
vn -0.957878 -0.102428 -0.268288
vn -0.224886 -0.266531 -0.937223
vn -0.929335 -0.292804 -0.224947
vn 0.543907 -0.837430 0.053620
vn 0.360242 -0.922993 0.135310
vn -0.208975 -0.628281 -0.749395
vn 0.359008 -0.552477 0.752251
vn 0.661045 -0.204023 0.722076
vn -0.220820 0.249552 0.942848
vn -0.107263 0.014265 0.994128
vn -0.934519 -0.203053 0.292308
vn 0.184648 -0.034841 -0.982187
vn -0.082573 -0.403055 0.911443
vn -0.713745 -0.588813 0.379299
vn -0.810718 0.390447 0.436220
vn -0.092890 -0.025272 0.995356
vn -0.687949 -0.230412 0.688213
vn 0.044417 -0.072117 0.996407
vn 0.062709 -0.227631 0.971726
vn 0.209555 0.668237 -0.713825
vn 0.204806 0.030195 -0.978337
vn -0.756991 -0.353295 0.549680
vn -0.381958 0.923523 -0.034849
vn -0.092412 0.403864 0.910139
vn 0.129273 0.711515 -0.690677
vn -0.815577 0.299851 0.494897
vn -0.712626 0.601687 0.360744
vn -0.722102 0.559965 0.406211
vn -0.033565 0.567346 0.822796
vn -0.170643 0.666317 0.725881
vn -0.849899 0.327567 0.412760
vn -0.716400 0.560090 -0.416018
vn -0.365394 0.625401 -0.689465
vn -0.118153 0.790115 -0.601463
vn -0.719580 0.556510 0.415332
vn -0.367725 0.836908 -0.405417
vn -0.716680 0.550388 -0.428302
vn -0.293062 0.634285 -0.715400
vn -0.121890 0.760871 -0.637352
vn -0.234385 0.402238 -0.885024
vn 0.051370 0.108541 0.992764
vn -0.741201 0.145419 0.655344
vn -0.870121 0.290885 -0.397838
vn -0.335778 0.190242 -0.922530
vn 0.045305 0.169158 0.984547
vn 0.038802 0.099951 0.994236
vn -0.840925 0.490788 0.227974
vn -0.731306 0.236145 0.639865
vn -0.674295 0.301271 0.674212
vn -0.951557 0.146585 -0.270282
vn -0.294830 0.147963 -0.944025
vn -0.866172 0.303261 -0.397214
vn -0.679687 -0.005503 -0.733482
vn -0.301852 0.002758 -0.953351
vn 0.222022 -0.243173 -0.944232
vn -0.000488 0.136905 0.990584
vn -0.913784 0.336079 0.228143
vn -0.813257 -0.500904 -0.296155
vn 0.184879 0.612341 -0.768673
vn -0.933408 0.248534 0.258805
vn -0.447487 0.872980 -0.194066
vn -0.890471 0.345301 0.296357
vn -0.159616 0.516939 -0.841010
vn -0.633798 0.741452 -0.220336
vn 0.919779 -0.382397 -0.088200
vn 0.514458 -0.822006 0.244211
vn -0.847843 -0.507824 -0.152571
vn -0.908269 -0.085445 0.409570
vn -0.602854 -0.171483 0.779205
vn -0.322638 0.092864 0.941956
vn -0.995622 0.073105 0.058239
vn -0.933804 -0.045150 -0.354924
vn -0.805629 -0.046888 -0.590562
vn -0.450045 -0.819632 0.354489
vn -0.368439 0.201284 0.907600
vn -0.971720 -0.033942 0.233683
vn -0.998963 0.026256 0.037206
vn -0.020126 0.911023 0.411864
vn -0.617480 0.335447 0.711473
vn -0.792358 0.337387 0.508270
vn -0.803156 0.341562 0.488135
vn -0.637368 -0.185128 0.747990
vn -0.478272 -0.261864 0.838262
vn -0.116423 0.923701 0.364995
vn -0.166065 -0.005837 0.986098
vn -0.371720 -0.679184 0.632876
vn -0.680920 0.029453 0.731766
vn -0.401601 -0.902528 -0.155435
vn -0.923011 -0.041858 0.382490
vn -0.011287 -0.999919 -0.005813
vn -0.663302 0.147483 0.733676
vn -0.904833 0.076778 0.418786
vn -0.321168 -0.943275 -0.084166
vn -0.500236 0.042693 0.864836
vn -0.920293 0.063484 -0.386045
vn -0.833810 0.191514 -0.517767
vn -0.860968 -0.292972 0.415815
vn -0.327955 -0.416733 0.847809
vn -0.914438 -0.121986 0.385905
vn -0.234292 -0.291516 0.927429
vn -0.595760 0.718843 0.358237
vn -0.997525 0.069427 0.011080
vn -0.900102 0.435591 0.008803
vn -0.793932 0.604139 0.068476
vn -0.638306 0.320852 0.699728
vn -0.359602 0.375776 -0.854095
vn -0.243770 0.463241 -0.852047
vn -0.117347 0.977228 -0.176793
vn 0.029416 0.952700 -0.302486
vn -0.942576 0.014710 0.333667
vn -0.847450 0.399554 0.349549
vn -0.093098 0.587890 -0.803566
vn -0.407276 0.898084 -0.166049
vn 0.608027 -0.577376 0.544922
vn -0.896563 0.441679 -0.033075
vn -0.019946 0.806940 -0.590296
vn 0.785097 -0.563675 -0.256697
vn -0.800396 -0.395475 0.450518
vn 0.981951 0.076333 -0.173050
vn 0.900672 0.295994 -0.318084
vn -0.255423 0.328778 -0.909211
vn -0.070754 0.455760 -0.887286
vn -0.939234 0.092921 -0.330461
vn -0.883236 0.216034 -0.416202
vn -0.814032 0.115287 0.569264
vn -0.674527 -0.177456 0.716605
vn 0.401671 -0.146554 0.903981
vn 0.350725 -0.214046 0.911689
vn 0.912240 0.068557 -0.403878
vn 0.930782 0.118176 -0.345948
vn -0.261610 0.411044 -0.873272
vn -0.192679 0.312950 -0.930020
vn -0.925244 -0.092206 -0.367997
vn -0.912193 -0.017854 -0.409372
vn -0.719272 -0.282177 0.634842
vn 0.594746 -0.650627 0.472189
vn 0.693165 0.654248 0.302460
vn 0.923221 -0.020469 -0.383723
vn -0.263739 0.221735 -0.938763
vn -0.114093 0.724985 -0.679249
vn -0.951255 -0.010387 -0.308230
vn -0.949818 0.004766 -0.312767
vn -0.736182 -0.668268 0.107024
vn -0.595762 -0.695111 0.402353
vn 0.815996 0.026452 0.577453
vn -0.249388 0.342684 -0.905745
vn 0.931990 0.131312 -0.337863
vn 0.457072 -0.403493 0.792640
vn -0.524235 -0.607712 0.596543
vn 0.405924 -0.516424 0.754011
vn -0.607486 -0.662261 0.438601
vn -0.174552 0.735040 -0.655170
vn 0.726339 0.686568 -0.032501
vn 0.991358 -0.086500 -0.098627
vn 0.980078 -0.011824 -0.198259
vn 0.206769 0.110006 -0.972186
vn -0.063826 0.180058 -0.981583
vn -0.870317 -0.044447 -0.490482
vn -0.840612 0.000356 -0.541638
vn -0.859364 -0.333198 0.387907
vn -0.826753 -0.331619 0.454432
vn 0.406309 -0.383945 0.829156
vn 0.403493 -0.383253 0.830850
vn -0.518358 -0.483065 -0.705658
vn -0.549737 -0.717203 0.428262
vn -0.663129 0.282564 0.693122
vn -0.617095 0.145241 0.773369
vn -0.636915 0.159631 0.754226
vn -0.621430 -0.155360 0.767911
vn -0.550976 -0.209285 0.807852
vn -0.845174 -0.045703 -0.532535
vn -0.557721 -0.020086 -0.829785
vn 0.995349 0.052727 -0.080626
vn 0.564085 -0.425383 -0.707713
vn 0.990005 -0.120436 -0.073383
vn 0.981973 -0.074842 -0.173573
vn 0.895753 -0.436021 0.086671
vn 0.318494 0.420326 0.849640
vn -0.803709 0.285790 0.521897
vn -0.808204 -0.202943 0.552829
vn 0.801920 -0.157270 0.576360
vn 0.784540 -0.193097 0.589246
vn -0.726453 -0.031437 -0.686496
vn -0.722610 0.012984 -0.691134
vn -0.810767 -0.220246 0.542355
vn -0.706027 -0.202344 -0.678662
vn 0.303345 0.278451 -0.911288
vn 0.416690 0.205301 -0.885562
vn 0.790403 -0.176725 0.586542
vn -0.848892 0.145795 -0.508061
vn 0.787715 -0.332914 0.518338
vn 0.961652 0.274253 0.003401
vn 0.196626 0.503822 -0.841131
vn -0.593174 -0.802444 0.065034
vn -0.734173 0.075827 -0.674715
vn 0.394405 0.464773 -0.792736
vn -0.985872 0.091187 0.140505
vn -0.988451 0.087055 0.124037
vn 0.783866 -0.229016 0.577153
vn -0.820507 -0.188860 0.539537
vn -0.697717 -0.119275 -0.706374
vn 0.301445 0.098276 -0.948405
vn 0.896179 -0.099961 -0.432285
vn -0.561514 0.128085 -0.817494
vn -0.586975 0.113275 -0.801641
vn -0.818121 0.245685 0.519921
vn -0.792581 0.191481 0.578921
vn 0.608202 0.062517 0.791317
vn 0.530371 0.004715 0.847753
vn -0.897221 -0.008193 0.441506
vn 0.561811 0.245617 0.789962
vn -0.535312 -0.457271 -0.710172
vn -0.766600 -0.016165 0.641922
vn -0.734546 0.196873 0.649371
vn 0.525980 0.174160 0.832474
vn -0.856666 0.325821 0.399954
vn 0.563256 -0.104768 0.819613
vn 0.858816 -0.042687 -0.510502
vn -0.791251 0.360659 0.493808
vn 0.664026 0.216728 0.715610
vn -0.798438 0.347159 0.491911
vn -0.730924 -0.324755 -0.600237
vn -0.565098 -0.522899 -0.638154
vn 0.065927 -0.647280 -0.759396
vn 0.696142 -0.600940 -0.392757
vn 0.660218 0.230373 0.714871
vn 0.866746 -0.436748 -0.240837
vn -0.565717 0.266878 -0.780219
vn -0.826877 0.291868 0.480715
vn 0.592014 0.059920 0.803697
vn 0.873160 0.060770 -0.483630
vn -0.750180 -0.007484 -0.661191
vn 0.918705 -0.184711 -0.349090
vn 0.878665 -0.219929 -0.423767
vn -0.582366 -0.130428 -0.802395
vn -0.805197 -0.037771 0.591803
vn -0.924452 0.059958 0.376555
vn 0.641502 -0.122751 0.757237
vn 0.581398 -0.141617 0.801200
vn 0.878983 0.150068 -0.452625
vn 0.184807 -0.018757 -0.982596
vn 0.956941 -0.267183 0.113476
vn -0.898827 0.016948 -0.437976
vn -0.128331 -0.988723 0.077191
vn -0.150986 -0.985058 0.082843
vn -0.624323 0.770664 0.127664
vn -0.563929 0.298096 -0.770144
vn 0.693181 0.536237 0.481612
vn -0.605220 0.776667 0.174630
vn 0.749001 0.508583 0.424665
vn -0.139765 -0.989721 -0.030305
vn -0.101810 -0.992977 -0.060258
vn -0.524593 0.846750 0.088407
vn -0.233378 0.441095 0.866585
vn 0.724321 0.610829 0.319762
vn -0.519819 -0.843035 0.138133

f 1/1/1 2/2/1 3/3/1
f 4/4/2 5/5/2 6/6/2
f 4/4/3 6/7/3 7/8/3
f 5/9/4 8/10/4 9/11/4
f 10/12/5 11/13/5 9/14/5
f 6/6/6 11/15/6 7/8/6
f 6/6/7 12/16/7 11/13/7
f 12/17/8 5/5/8 9/14/8
f 6/6/9 5/5/9 12/17/9
f 11/13/10 12/18/10 9/19/10
f 13/20/11 14/21/11 15/22/11
f 14/21/12 13/20/12 16/23/12
f 16/24/13 13/20/13 17/25/13
f 15/22/14 14/21/14 18/26/14
f 14/21/15 19/27/15 18/26/15
f 18/26/16 20/28/16 21/29/16
f 18/26/17 19/27/17 20/28/17
f 20/28/18 3/30/18 21/29/18
f 5/9/19 22/31/19 23/32/19
f 24/33/20 25/34/20 26/35/20
f 27/36/21 25/34/21 9/37/21
f 28/38/22 27/39/22 29/40/22
f 30/41/23 25/34/23 24/33/23
f 25/34/24 30/41/24 10/42/24
f 30/41/25 24/33/25 31/43/25
f 24/33/26 26/44/26 32/45/26
f 33/46/27 34/47/27 5/9/27
f 4/4/28 22/31/28 5/9/28
f 26/35/29 25/34/29 27/39/29
f 33/46/30 35/48/30 34/47/30
f 32/45/31 26/35/31 28/38/31
f 23/32/32 33/46/32 5/9/32
f 26/35/33 27/39/33 28/38/33
f 28/38/34 29/40/34 36/49/34
f 35/50/35 37/51/35 29/40/35
f 28/38/36 38/52/36 32/45/36
f 36/49/37 38/52/37 28/38/37
f 36/49/38 37/53/38 39/54/38
f 39/55/39 37/56/39 40/57/39
f 41/58/40 42/59/40 39/55/40
f 39/55/41 40/57/41 41/58/41
f 36/49/42 29/40/42 37/51/42
f 37/56/43 35/48/43 33/46/43
f 37/56/44 33/46/44 40/57/44
f 40/57/45 33/46/45 43/60/45
f 40/57/46 43/60/46 41/58/46
f 33/46/47 23/32/47 43/60/47
f 44/61/48 45/62/48 30/63/48
f 15/64/49 46/65/49 45/62/49
f 46/66/50 47/67/50 10/68/50
f 47/67/51 7/69/51 11/70/51
f 45/62/52 44/61/52 17/71/52
f 44/61/53 30/63/53 31/72/53
f 13/73/54 15/64/54 45/62/54
f 46/65/55 10/74/55 45/62/55
f 45/62/56 10/74/56 30/63/56
f 47/67/57 11/70/57 10/68/57
f 47/67/58 48/75/58 7/69/58
f 46/66/59 15/76/59 47/67/59
f 18/77/60 47/67/60 15/76/60
f 47/67/61 18/77/61 48/75/61
f 18/77/62 21/78/62 48/75/62
f 13/73/63 45/62/63 17/71/63
f 49/79/64 35/50/64 29/40/64
f 8/80/65 27/81/65 9/82/65
f 34/47/66 50/83/66 5/84/66
f 27/36/67 49/79/67 29/40/67
f 35/48/68 51/85/68 52/86/68
f 35/50/69 49/79/69 51/87/69
f 52/86/70 50/83/70 34/47/70
f 35/48/71 52/86/71 34/47/71
f 5/84/72 50/83/72 8/10/72
f 53/88/73 27/81/73 8/80/73
f 53/88/74 49/79/74 27/36/74
f 54/89/75 55/90/75 56/91/75
f 57/92/76 55/90/76 58/93/76
f 59/94/77 60/95/77 55/90/77
f 61/96/78 54/89/78 56/91/78
f 39/97/79 61/96/79 36/98/79
f 36/98/80 61/96/80 56/91/80
f 36/98/81 56/91/81 38/99/81
f 62/100/82 63/101/82 64/102/82
f 65/103/83 64/102/83 54/89/83
f 61/96/84 65/103/84 54/89/84
f 66/104/85 67/105/85 62/100/85
f 55/90/86 60/95/86 68/106/86
f 69/107/87 68/106/87 60/95/87
f 69/107/88 70/108/88 68/106/88
f 58/109/89 55/90/89 68/106/89
f 68/106/90 71/110/90 58/111/90
f 62/100/91 67/105/91 63/101/91
f 64/102/92 63/101/92 69/107/92
f 70/108/93 71/110/93 68/106/93
f 58/111/94 71/110/94 72/112/94
f 56/91/95 57/92/95 38/113/95
f 55/90/96 57/114/96 56/91/96
f 73/115/97 74/116/97 38/113/97
f 58/109/98 72/112/98 73/115/98
f 57/117/99 58/111/99 73/115/99
f 57/92/100 73/115/100 38/113/100
f 73/115/101 72/112/101 74/116/101
f 39/97/102 75/118/102 61/96/102
f 75/118/103 39/97/103 76/119/103
f 64/102/104 59/94/104 54/89/104
f 64/102/105 60/95/105 59/94/105
f 54/89/106 59/94/106 55/90/106
f 64/102/107 69/107/107 60/95/107
f 65/103/108 66/104/108 62/100/108
f 65/103/109 61/96/109 75/118/109
f 75/118/110 76/119/110 65/103/110
f 66/104/111 65/103/111 76/119/111
f 62/100/112 64/102/112 65/103/112
f 39/97/113 42/120/113 76/119/113
f 77/121/114 76/119/114 42/120/114
f 67/105/115 76/119/115 77/121/115
f 66/104/116 76/119/116 67/105/116
f 9/82/117 25/34/117 10/42/117
f 51/122/118 49/123/118 78/124/118
f 79/125/119 50/126/119 52/127/119
f 52/127/120 51/122/120 79/125/120
f 80/128/121 81/129/121 53/130/121
f 51/122/122 78/124/122 79/125/122
f 82/131/123 50/126/123 79/125/123
f 50/126/124 82/131/124 8/132/124
f 53/133/125 78/124/125 49/123/125
f 83/134/126 84/135/126 85/136/126
f 84/135/127 83/134/127 86/137/127
f 86/137/128 87/138/128 84/135/128
f 88/139/129 84/135/129 87/138/129
f 87/138/130 89/140/130 88/139/130
f 90/141/131 88/139/131 89/140/131
f 91/142/132 92/143/132 90/141/132
f 90/141/133 89/140/133 91/142/133
f 85/136/134 92/144/134 91/145/134
f 91/145/135 83/134/135 85/136/135
f 80/128/136 93/146/136 83/134/136
f 94/147/137 83/134/137 93/146/137
f 93/146/138 87/138/138 94/147/138
f 87/138/139 93/146/139 95/148/139
f 95/148/140 96/149/140 87/138/140
f 89/140/141 87/138/141 96/149/141
f 97/150/142 91/142/142 89/140/142
f 97/151/143 81/129/143 80/128/143
f 8/132/144 82/131/144 80/128/144
f 93/146/145 80/128/145 98/152/145
f 98/152/146 95/148/146 93/146/146
f 95/148/147 82/131/147 79/125/147
f 79/125/148 78/124/148 95/148/148
f 96/149/149 95/148/149 78/124/149
f 78/124/150 53/133/150 81/153/150
f 81/153/151 96/149/151 78/124/151
f 80/128/152 53/130/152 8/154/152
f 94/147/153 87/138/153 86/137/153
f 86/137/154 83/134/154 94/147/154
f 97/151/155 83/134/155 91/145/155
f 89/140/156 96/149/156 97/150/156
f 80/128/157 83/134/157 97/151/157
f 81/153/158 97/150/158 96/149/158
f 82/131/159 95/148/159 98/152/159
f 98/152/160 80/128/160 82/131/160
f 85/136/161 99/155/161 100/156/161
f 99/155/162 85/136/162 84/135/162
f 84/135/163 101/157/163 99/155/163
f 101/157/164 84/135/164 88/139/164
f 88/139/165 90/141/165 101/157/165
f 102/158/166 101/157/166 90/141/166
f 90/141/167 103/159/167 102/158/167
f 103/159/168 90/141/168 92/143/168
f 92/144/169 85/136/169 103/160/169
f 100/156/170 103/160/170 85/136/170
f 104/161/171 105/162/171 106/163/171
f 107/164/172 106/163/172 108/165/172
f 109/166/173 110/167/173 103/168/173
f 109/166/174 111/169/174 104/161/174
f 104/161/175 110/167/175 109/166/175
f 104/161/176 111/169/176 112/170/176
f 113/171/177 112/170/177 111/169/177
f 106/163/178 110/167/178 104/161/178
f 104/161/179 112/170/179 105/162/179
f 105/172/180 113/173/180 111/174/180
f 113/173/181 105/172/181 112/175/181
f 105/172/182 111/174/182 109/176/182
f 109/176/183 106/177/183 105/172/183
f 109/176/184 100/178/184 106/177/184
f 103/179/185 100/178/185 109/176/185
f 102/180/186 103/168/186 110/167/186
f 106/163/187 114/181/187 108/165/187
f 115/182/188 116/183/188 106/177/188
f 116/184/189 117/185/189 118/186/189
f 108/165/190 114/181/190 119/187/190
f 119/187/191 120/188/191 108/165/191
f 118/189/192 121/190/192 114/191/192
f 114/191/193 121/190/193 117/192/193
f 116/193/194 115/194/194 119/187/194
f 120/188/195 119/187/195 115/194/195
f 121/195/196 118/186/196 117/185/196
f 108/165/197 101/196/197 102/180/197
f 115/182/198 106/177/198 100/178/198
f 100/178/199 99/197/199 115/182/199
f 120/188/200 99/198/200 101/196/200
f 106/163/201 107/164/201 110/167/201
f 108/165/202 120/188/202 101/196/202
f 120/188/203 115/194/203 99/198/203
f 107/164/204 102/180/204 110/167/204
f 102/180/205 107/164/205 108/165/205
f 118/199/206 106/177/206 116/183/206
f 114/181/207 106/163/207 118/200/207
f 114/191/208 117/192/208 119/201/208
f 117/192/209 116/202/209 119/201/209
f 122/203/210 123/204/210 124/205/210
f 125/206/211 126/207/211 123/208/211
f 125/206/212 123/208/212 127/209/212
f 125/210/213 128/211/213 126/212/213
f 128/211/214 129/213/214 126/212/214
f 128/214/215 124/215/215 129/216/215
f 122/217/216 124/215/216 128/214/216
f 130/218/217 128/211/217 125/219/217
f 131/220/218 122/221/218 130/222/218
f 132/223/219 125/224/219 127/225/219
f 132/226/220 131/227/220 125/219/220
f 133/228/221 131/227/221 132/226/221
f 133/229/222 122/221/222 131/220/222
f 130/218/223 125/219/223 131/227/223
f 128/214/224 130/222/224 122/221/224
f 127/209/225 123/204/225 122/203/225
f 16/230/226 133/228/226 14/231/226
f 16/232/227 3/3/227 133/229/227
f 14/231/228 133/228/228 132/226/228
f 14/233/229 132/223/229 19/234/229
f 132/223/230 127/225/230 19/234/230
f 20/235/231 19/234/231 127/225/231
f 20/235/232 127/225/232 122/236/232
f 3/3/233 122/221/233 133/229/233
f 3/237/234 20/235/234 122/236/234
f 134/238/235 135/239/235 136/240/235
f 137/241/236 135/242/236 134/243/236
f 138/244/237 139/245/237 137/246/237
f 138/247/238 136/248/238 139/249/238
f 134/238/239 136/240/239 123/208/239
f 138/247/240 123/250/240 136/248/240
f 123/250/241 138/247/241 124/251/241
f 134/238/242 123/208/242 126/252/242
f 129/253/243 134/243/243 126/254/243
f 137/241/244 134/243/244 129/253/244
f 138/244/245 137/246/245 129/255/245
f 138/244/246 129/255/246 124/256/246
f 136/257/247 140/258/247 139/259/247
f 136/257/248 141/260/248 140/258/248
f 142/261/249 139/259/249 140/258/249
f 135/262/250 143/263/250 141/260/250
f 141/264/251 143/265/251 142/266/251
f 142/266/252 140/267/252 141/264/252
f 137/268/253 143/263/253 135/262/253
f 135/262/254 141/260/254 136/257/254
f 139/259/255 142/261/255 137/268/255
f 137/268/256 144/269/256 143/263/256
f 137/268/257 142/261/257 144/269/257
f 143/265/258 145/270/258 146/271/258
f 146/271/259 142/266/259 143/265/259
f 143/263/260 144/269/260 145/272/260
f 144/269/261 146/273/261 145/272/261
f 146/273/262 144/269/262 142/261/262
f 3/274/263 16/275/263 17/276/263
f 147/5/264 4/4/264 148/6/264
f 148/7/265 4/4/265 7/8/265
f 149/10/266 147/9/266 150/11/266
f 151/13/267 152/12/267 150/14/267
f 151/15/268 148/6/268 7/8/268
f 153/16/269 148/6/269 151/13/269
f 147/5/270 153/17/270 150/14/270
f 147/5/271 148/6/271 153/17/271
f 153/18/272 151/13/272 150/19/272
f 154/21/273 155/20/273 156/22/273
f 155/20/274 154/21/274 157/23/274
f 155/20/275 157/24/275 17/25/275
f 154/21/276 156/22/276 158/26/276
f 159/27/277 154/21/277 158/26/277
f 160/28/278 158/26/278 21/29/278
f 159/27/279 158/26/279 160/28/279
f 3/30/280 160/28/280 21/29/280
f 22/31/281 147/9/281 23/32/281
f 161/34/282 24/33/282 162/35/282
f 161/34/283 163/36/283 150/37/283
f 163/39/284 164/38/284 165/40/284
f 161/34/285 166/41/285 24/33/285
f 166/41/286 161/34/286 152/42/286
f 24/33/287 166/41/287 31/43/287
f 162/44/288 24/33/288 32/45/288
f 167/47/289 168/46/289 147/9/289
f 22/31/290 4/4/290 147/9/290
f 161/34/291 162/35/291 163/39/291
f 169/48/292 168/46/292 167/47/292
f 162/35/293 32/45/293 164/38/293
f 168/46/294 23/32/294 147/9/294
f 163/39/295 162/35/295 164/38/295
f 165/40/296 164/38/296 170/49/296
f 171/51/297 169/50/297 165/40/297
f 38/52/298 164/38/298 32/45/298
f 38/52/299 170/49/299 164/38/299
f 171/53/300 170/49/300 172/54/300
f 171/56/301 172/55/301 173/57/301
f 42/59/302 41/58/302 172/55/302
f 173/57/303 172/55/303 41/58/303
f 165/40/304 170/49/304 171/51/304
f 169/48/305 171/56/305 168/46/305
f 168/46/306 171/56/306 173/57/306
f 168/46/307 173/57/307 43/60/307
f 43/60/308 173/57/308 41/58/308
f 23/32/309 168/46/309 43/60/309
f 174/62/310 44/61/310 166/63/310
f 175/65/311 156/64/311 174/62/311
f 176/67/312 175/66/312 152/68/312
f 7/69/313 176/67/313 151/70/313
f 44/61/314 174/62/314 17/71/314
f 166/63/315 44/61/315 31/72/315
f 156/64/316 155/73/316 174/62/316
f 152/74/317 175/65/317 174/62/317
f 152/74/318 174/62/318 166/63/318
f 151/70/319 176/67/319 152/68/319
f 48/75/320 176/67/320 7/69/320
f 156/76/321 175/66/321 176/67/321
f 176/67/322 158/77/322 156/76/322
f 158/77/323 176/67/323 48/75/323
f 21/78/324 158/77/324 48/75/324
f 174/62/325 155/73/325 17/71/325
f 169/50/326 177/79/326 165/40/326
f 163/81/327 149/80/327 150/82/327
f 178/83/328 167/47/328 147/84/328
f 177/79/329 163/36/329 165/40/329
f 179/85/330 169/48/330 180/86/330
f 177/79/331 169/50/331 179/87/331
f 178/83/332 180/86/332 167/47/332
f 180/86/333 169/48/333 167/47/333
f 178/83/334 147/84/334 149/10/334
f 163/81/335 181/88/335 149/80/335
f 177/79/336 181/88/336 163/36/336
f 182/90/337 183/89/337 184/91/337
f 182/90/338 185/92/338 186/93/338
f 187/95/339 188/94/339 182/90/339
f 183/89/340 189/96/340 184/91/340
f 189/96/341 172/97/341 170/98/341
f 189/96/342 170/98/342 184/91/342
f 184/91/343 170/98/343 38/99/343
f 63/101/344 190/100/344 191/102/344
f 191/102/345 192/103/345 183/89/345
f 192/103/346 189/96/346 183/89/346
f 67/105/347 193/104/347 190/100/347
f 187/95/348 182/90/348 194/106/348
f 194/106/349 69/107/349 187/95/349
f 70/108/350 69/107/350 194/106/350
f 182/90/351 186/109/351 194/106/351
f 71/110/352 194/106/352 186/111/352
f 67/105/353 190/100/353 63/101/353
f 63/101/354 191/102/354 69/107/354
f 71/110/355 70/108/355 194/106/355
f 71/110/356 186/111/356 72/112/356
f 185/92/357 184/91/357 38/113/357
f 185/114/358 182/90/358 184/91/358
f 74/116/359 195/115/359 38/113/359
f 72/112/360 186/109/360 195/115/360
f 186/111/361 185/117/361 195/115/361
f 195/115/362 185/92/362 38/113/362
f 72/112/363 195/115/363 74/116/363
f 196/118/364 172/97/364 189/96/364
f 172/97/365 196/118/365 197/119/365
f 188/94/366 191/102/366 183/89/366
f 187/95/367 191/102/367 188/94/367
f 188/94/368 183/89/368 182/90/368
f 69/107/369 191/102/369 187/95/369
f 193/104/370 192/103/370 190/100/370
f 189/96/371 192/103/371 196/118/371
f 197/119/372 196/118/372 192/103/372
f 192/103/373 193/104/373 197/119/373
f 191/102/374 190/100/374 192/103/374
f 42/120/375 172/97/375 197/119/375
f 197/119/376 77/121/376 42/120/376
f 197/119/377 67/105/377 77/121/377
f 197/119/378 193/104/378 67/105/378
f 161/34/379 150/82/379 152/42/379
f 177/123/380 179/122/380 198/124/380
f 178/126/381 199/125/381 180/127/381
f 179/122/382 180/127/382 199/125/382
f 200/129/383 201/128/383 181/130/383
f 198/124/384 179/122/384 199/125/384
f 178/126/385 202/131/385 199/125/385
f 202/131/386 178/126/386 149/132/386
f 198/124/387 181/133/387 177/123/387
f 203/135/388 204/134/388 205/136/388
f 204/134/389 203/135/389 206/137/389
f 207/138/390 206/137/390 203/135/390
f 203/135/391 208/139/391 207/138/391
f 209/140/392 207/138/392 208/139/392
f 208/139/393 210/141/393 209/140/393
f 211/143/394 212/142/394 210/141/394
f 209/140/395 210/141/395 212/142/395
f 211/144/396 205/136/396 212/145/396
f 204/134/397 212/145/397 205/136/397
f 213/146/398 201/128/398 204/134/398
f 204/134/399 214/147/399 213/146/399
f 207/138/400 213/146/400 214/147/400
f 213/146/401 207/138/401 215/148/401
f 216/149/402 215/148/402 207/138/402
f 207/138/403 209/140/403 216/149/403
f 212/142/404 217/150/404 209/140/404
f 200/129/405 217/151/405 201/128/405
f 202/131/406 149/132/406 201/128/406
f 201/128/407 213/146/407 218/152/407
f 215/148/408 218/152/408 213/146/408
f 202/131/409 215/148/409 199/125/409
f 198/124/410 199/125/410 215/148/410
f 215/148/411 216/149/411 198/124/411
f 181/133/412 198/124/412 200/153/412
f 216/149/413 200/153/413 198/124/413
f 181/130/414 201/128/414 149/154/414
f 207/138/415 214/147/415 206/137/415
f 204/134/416 206/137/416 214/147/416
f 204/134/417 217/151/417 212/145/417
f 216/149/418 209/140/418 217/150/418
f 204/134/419 201/128/419 217/151/419
f 217/150/420 200/153/420 216/149/420
f 215/148/421 202/131/421 218/152/421
f 201/128/422 218/152/422 202/131/422
f 219/155/423 205/136/423 220/156/423
f 205/136/424 219/155/424 203/135/424
f 221/157/425 203/135/425 219/155/425
f 203/135/426 221/157/426 208/139/426
f 210/141/427 208/139/427 221/157/427
f 221/157/428 222/158/428 210/141/428
f 223/159/429 210/141/429 222/158/429
f 210/141/430 223/159/430 211/143/430
f 205/136/431 211/144/431 223/160/431
f 223/160/432 220/156/432 205/136/432
f 224/162/433 225/161/433 226/163/433
f 226/163/434 227/164/434 228/165/434
f 229/167/435 230/166/435 223/168/435
f 231/169/436 230/166/436 225/161/436
f 229/167/437 225/161/437 230/166/437
f 231/169/438 225/161/438 232/170/438
f 232/170/439 233/171/439 231/169/439
f 229/167/440 226/163/440 225/161/440
f 232/170/441 225/161/441 224/162/441
f 233/173/442 224/172/442 231/174/442
f 224/172/443 233/173/443 232/175/443
f 231/174/444 224/172/444 230/176/444
f 226/177/445 230/176/445 224/172/445
f 220/178/446 230/176/446 226/177/446
f 220/178/447 223/179/447 230/176/447
f 223/168/448 222/180/448 229/167/448
f 234/181/449 226/163/449 228/165/449
f 235/183/450 236/182/450 226/177/450
f 237/185/451 235/184/451 238/186/451
f 234/181/452 228/165/452 239/187/452
f 240/188/453 239/187/453 228/165/453
f 241/190/454 238/189/454 234/191/454
f 241/190/455 234/191/455 237/192/455
f 236/194/456 235/193/456 239/187/456
f 239/187/457 240/188/457 236/194/457
f 238/186/458 241/195/458 237/185/458
f 221/196/459 228/165/459 222/180/459
f 226/177/460 236/182/460 220/178/460
f 219/197/461 220/178/461 236/182/461
f 219/198/462 240/188/462 221/196/462
f 227/164/463 226/163/463 229/167/463
f 240/188/464 228/165/464 221/196/464
f 236/194/465 240/188/465 219/198/465
f 222/180/466 227/164/466 229/167/466
f 227/164/467 222/180/467 228/165/467
f 226/177/468 238/199/468 235/183/468
f 226/163/469 234/181/469 238/200/469
f 237/192/470 234/191/470 239/201/470
f 235/202/471 237/192/471 239/201/471
f 242/204/472 243/203/472 244/205/472
f 245/207/473 246/206/473 242/208/473
f 242/208/474 246/206/474 247/209/474
f 248/211/475 246/210/475 245/212/475
f 249/213/476 248/211/476 245/212/476
f 244/215/477 248/214/477 249/216/477
f 244/215/478 243/217/478 248/214/478
f 248/211/479 250/218/479 246/219/479
f 243/221/480 251/220/480 250/222/480
f 246/224/481 252/223/481 247/225/481
f 251/227/482 252/226/482 246/219/482
f 251/227/483 253/228/483 252/226/483
f 243/221/484 253/229/484 251/220/484
f 246/219/485 250/218/485 251/227/485
f 250/222/486 248/214/486 243/221/486
f 242/204/487 247/209/487 243/203/487
f 253/228/488 157/230/488 154/231/488
f 3/3/489 157/232/489 253/229/489
f 253/228/490 154/231/490 252/226/490
f 252/223/491 154/233/491 159/234/491
f 247/225/492 252/223/492 159/234/492
f 159/234/493 160/235/493 247/225/493
f 247/225/494 160/235/494 243/236/494
f 243/221/495 3/3/495 253/229/495
f 160/235/496 3/237/496 243/236/496
f 254/239/497 255/238/497 256/240/497
f 254/242/498 257/241/498 255/243/498
f 258/245/499 259/244/499 257/246/499
f 256/248/500 259/247/500 258/249/500
f 256/240/501 255/238/501 242/208/501
f 242/250/502 259/247/502 256/248/502
f 259/247/503 242/250/503 244/251/503
f 242/208/504 255/238/504 245/252/504
f 255/243/505 249/253/505 245/254/505
f 255/243/506 257/241/506 249/253/506
f 257/246/507 259/244/507 249/255/507
f 249/255/508 259/244/508 244/256/508
f 260/258/509 256/257/509 258/259/509
f 261/260/510 256/257/510 260/258/510
f 258/259/511 262/261/511 260/258/511
f 263/263/512 254/262/512 261/260/512
f 263/265/513 261/264/513 262/266/513
f 260/267/514 262/266/514 261/264/514
f 263/263/515 257/268/515 254/262/515
f 261/260/516 254/262/516 256/257/516
f 262/261/517 258/259/517 257/268/517
f 264/269/518 257/268/518 263/263/518
f 262/261/519 257/268/519 264/269/519
f 265/270/520 263/265/520 266/271/520
f 262/266/521 266/271/521 263/265/521
f 264/269/522 263/263/522 265/272/522
f 266/273/523 264/269/523 265/272/523
f 264/269/524 266/273/524 262/261/524
f 157/275/525 3/274/525 17/276/525

o 
usemtl axe.001
s off

v -26.174910 35.152649 17.393440
v -22.991531 34.120071 10.880329
v -29.223070 27.228142 16.409470
v -27.478210 28.262451 13.751369
v -29.363552 25.270432 15.555470
v -27.618690 26.304741 12.897360
v -27.344620 18.852970 10.283140
v -23.723581 23.919060 6.430420
v -29.577120 33.135891 22.576351
v -30.746830 16.836220 15.466050
v -33.198162 28.069799 26.429070
v -30.967930 26.193819 19.067579
v -31.108410 24.236122 18.213579
v -33.930210 17.868801 21.979160
v -25.813330 27.752750 14.645910
v -27.558178 26.718441 17.304020
v -25.953819 25.795050 13.791910
v -27.698669 24.760740 16.450020
v -29.303040 25.684130 19.962120
v -29.443531 23.726421 19.108130
v -10.066620 38.583660 -12.773390
v -10.207100 36.625950 -13.627380
v -8.542220 36.116261 -12.732840
v -8.401730 38.073959 -11.878839
v -33.880119 22.782021 24.685400
v 7.947020 47.387329 -41.283302
v 9.611900 46.877640 -40.388760
v 9.752390 48.835339 -39.534760
v 8.087500 49.345039 -40.429302

vt 0.033358 0.643728
vt 0.190411 0.923560
vt 0.402692 0.503812
vt 0.402692 0.647326
vt 0.408249 0.287497
vt 0.408249 0.367848
vt 0.492649 0.287497
vt 0.492649 0.367848
vt 0.403043 0.503812
vt 0.403044 0.647326
vt 0.033710 0.643728
vt 0.190763 0.923560
vt 0.033358 0.363896
vt 0.033710 0.363896
vt 0.190411 0.084064
vt 0.402692 0.360297
vt 0.408249 0.207147
vt 0.492649 0.207147
vt 0.403043 0.360297
vt 0.190763 0.084064
vt 0.408248 1.036942
vt 0.492649 1.036942
vt 0.483600 0.371280
vt 0.402049 0.371280
vt 0.402049 1.040375
vt 0.483600 1.040375
vt 0.450449 0.037941
vt 0.483600 0.210579
vt 0.402049 0.210579
vt 0.442825 0.041374
vt 0.000000 1.000000

vn -0.810880 0.368366 -0.454731
vn -0.817204 0.448566 -0.361892
vn -0.850511 0.260381 -0.456982
vn -0.852091 0.145081 -0.502884
vn -0.817173 0.163815 -0.552624
vn -0.835831 0.371670 -0.404040
vn -0.867194 0.351847 -0.352388
vn -0.845066 0.060332 -0.531248
vn -0.878885 0.148948 -0.453183
vn 0.845066 -0.060331 0.531248
vn 0.878885 -0.148948 0.453183
vn 0.850512 -0.260380 0.456981
vn 0.867195 -0.351846 0.352389
vn 0.835831 -0.371669 0.404040
vn 0.852091 -0.145081 0.502883
vn 0.817172 -0.163816 0.552625
vn 0.810880 -0.368367 0.454731
vn 0.817204 -0.448565 0.361894
vn 0.245557 -0.571768 -0.782805
vn 0.353085 0.926632 -0.129170
vn -0.245561 0.571768 0.782803
vn -0.353083 -0.926632 0.129170
vn 0.065636 0.914610 0.398975
vn -0.065630 -0.914611 -0.398972
vn -0.914260 0.215307 -0.343178
vn 0.770564 -0.300491 0.562082
vn -0.143307 -0.950710 -0.274980
vn -0.013530 0.857740 0.513906
vn 0.521844 0.309339 -0.794977

f 267/277/526 268/278/526 269/279/526
f 270/280/527 269/279/527 268/278/527
f 269/281/528 270/282/528 271/283/528
f 272/284/528 271/283/528 270/282/528
f 271/285/529 272/286/529 273/287/529
f 274/288/530 273/287/530 272/286/530
f 275/289/531 267/277/531 269/279/531
f 273/287/529 276/290/529 271/285/529
f 277/291/532 275/289/532 278/292/532
f 269/279/531 278/292/531 275/289/531
f 278/293/528 269/281/528 279/294/528
f 271/283/528 279/294/528 269/281/528
f 279/295/533 271/285/533 280/296/533
f 276/290/534 280/296/534 271/285/534
f 281/280/535 268/278/535 282/279/535
f 267/277/536 282/279/536 268/278/536
f 283/284/537 281/282/537 284/283/537
f 282/281/537 284/283/537 281/282/537
f 274/288/538 283/286/538 273/287/538
f 284/285/539 273/287/539 283/286/539
f 282/279/540 267/277/540 275/289/540
f 273/287/539 284/285/539 276/290/539
f 282/279/540 275/289/540 285/292/540
f 277/291/541 285/292/541 275/289/541
f 284/283/537 282/281/537 286/294/537
f 285/293/537 286/294/537 282/281/537
f 276/290/542 284/285/542 280/296/542
f 286/295/543 280/296/543 284/285/543
f 270/280/544 268/278/544 281/280/544
f 283/286/545 274/288/545 272/286/545
f 279/295/546 280/296/546 286/295/546
f 285/292/547 277/291/547 278/292/547
f 272/284/528 270/282/528 287/297/528
f 287/297/528 288/298/528 272/284/528
f 281/282/537 283/284/537 289/298/537
f 289/298/537 290/297/537 281/282/537
f 270/299/548 281/300/548 290/301/548
f 290/301/548 287/302/548 270/299/548
f 283/300/549 272/299/549 288/302/549
f 288/302/549 289/301/549 283/300/549
f 278/293/550 279/294/550 291/303/550
f 286/294/551 285/293/551 291/303/551
f 279/304/552 286/305/552 291/306/552
f 285/305/553 278/304/553 291/306/553
f 289/298/549 288/297/549 292/298/549 293/307/549
f 287/297/548 290/298/548 294/297/548 295/307/548
f 290/297/537 289/298/537 293/297/537 294/307/537
f 288/298/528 287/297/528 295/298/528 292/307/528
f 294/297/554 293/298/554 295/297/554
f 292/298/554 295/297/554 293/298/554

