mtllib anim_skel_walk_shield_000041.mtl

o msked
usemtl shield.001
s off

v 8.777890 43.396740 11.280251
v 4.250780 33.849720 16.690760
v -6.765060 36.192822 10.756511
v 2.933760 36.433460 21.089119
v 16.147980 30.713028 20.937941
v -7.284420 5.836730 28.534601

vt 0.345626 0.959903
vt 0.345626 0.724031
vt 0.085605 0.724031
vt 0.605647 0.724031
vt 0.345626 0.075832

vn 0.291153 -0.572456 -0.766502
vn -0.402518 0.842417 0.358208
vn 0.303067 0.682510 0.665079
vn 0.152593 -0.541054 -0.827029
vn 0.334514 -0.480504 -0.810689
vn -0.678919 0.379658 0.628433
vn 0.099375 0.203816 0.973953
vn 0.193265 -0.448526 -0.872624

f 1/1/1 2/2/1 3/3/1
f 1/1/2 3/3/2 4/2/2
f 1/1/3 4/2/3 5/4/3
f 1/1/4 5/4/4 2/2/4
f 6/5/5 3/3/5 2/2/5
f 6/5/6 4/2/6 3/3/6
f 6/5/7 5/4/7 4/2/7
f 6/5/8 2/2/8 5/4/8

