mtllib anim_spider_000067.mtl

o spider_walk_00
usemtl spidsd
s off

v -0.095340 43.713650 -15.166880
v -0.001710 47.666740 -4.082750
v 17.361359 35.537540 -4.127640
v -0.168390 34.214027 -24.716770
v 0.019030 38.498280 6.694190
v 11.452000 33.718559 8.153120
v 7.795510 30.581301 -19.031101
v 17.641890 26.476830 -1.039980
v 13.302719 26.095699 11.360281
v 7.448110 13.397270 8.305940
v 6.533760 16.274130 17.172630
v 0.135890 23.169178 22.496990
v 10.899910 31.338230 19.126831
v 10.472290 23.842800 -13.223259
v 9.105030 14.224690 -7.850060
v 15.228451 16.697830 -3.798320
v 2.104470 10.246830 -22.320408
v 4.611310 29.105661 -29.911650
v -0.131350 19.125231 -20.081360
v 11.052880 10.085840 -21.229780
v 8.033530 28.915211 -19.400261
v 7.633390 11.088810 -30.376949
v 0.283190 1.618280 -28.575050
v 21.840811 30.440290 -21.168510
v 21.644321 38.777050 -18.226980
v 6.297590 15.243030 -14.304910
v 23.221149 32.526978 -12.179001
v 43.677349 36.476330 -26.209391
v 43.308960 39.062943 -20.817949
v 39.311958 34.226501 -23.933941
v 56.644100 0.811650 -28.622740
v 31.150820 29.370890 -6.534540
v 27.084229 45.026451 -4.972300
v 32.581161 33.291870 1.386590
v 11.005811 13.993940 3.342510
v 43.706581 38.756508 -10.619330
v 45.954330 46.455330 -8.269440
v 45.929359 41.405941 -1.636600
v 62.938049 4.277490 -5.812830
v 29.723871 32.897438 6.239510
v 25.255611 39.843269 12.796709
v 28.643471 30.447979 16.550020
v 46.091644 35.523529 8.507780
v 47.984310 40.295162 15.893411
v 41.030651 26.575430 16.905151
v 69.061806 5.321980 12.525160
v 7.436530 42.411190 13.333340
v -0.002000 14.952280 -5.258980
v 6.346630 16.787640 -17.908871
v 17.375130 25.929749 -25.791700
v 10.727440 27.320808 -28.658699
v 11.408989 18.702940 -25.868839
v 17.780281 10.841800 -41.604099
v 11.004410 15.807570 -42.466888
v 11.918570 9.978800 -36.521069
v 6.740670 5.658800 -46.717831
v 0.965060 8.406450 -44.663811
v 2.664510 4.367760 -41.873898
v -17.378010 35.535439 -3.853090
v -11.432650 33.720310 8.150900
v -8.475080 30.485699 -19.050390
v -17.541389 26.473810 -1.584770
v -13.246079 26.060390 11.425910
v -7.202580 13.375330 8.493610
v -6.293630 16.237839 17.258551
v -10.718360 31.277069 19.271629
v -10.320520 23.928011 -12.980320
v -9.250370 14.232640 -8.056550
v -15.102369 16.613501 -4.553500
v -2.269090 10.246469 -22.339729
v -5.000170 29.104891 -29.845751
v -11.331850 10.083941 -21.052820
v -8.286320 28.913801 -19.274729
v -8.057159 11.087521 -30.252609
v -0.677870 1.618190 -28.567560
v -20.354959 31.141819 -22.213049
v -17.910950 39.674789 -21.897581
v -6.377380 15.392880 -14.321580
v -18.942749 35.242458 -14.300350
v -38.615231 37.499310 -23.941401
v -41.501808 42.676540 -19.324980
v -38.246468 37.712219 -15.553390
v -53.654480 3.724560 -30.479351
v -28.863489 33.087822 -7.992970
v -28.456919 44.063259 -5.208060
v -30.018749 36.903988 1.368520
v -11.017990 14.102469 3.956280
v -44.384842 37.803600 -8.856520
v -50.792587 43.204269 -5.166400
v -46.857761 39.012878 0.575380
v -54.061630 -4.062210 -6.043590
v -25.448311 32.025917 11.278469
v -19.889601 41.187038 15.947570
v -21.216339 33.358032 21.403259
v -39.718071 35.353828 17.280630
v -41.123772 39.601730 25.132450
v -33.150711 26.853508 23.632629
v -51.840977 -6.204210 20.912682
v -7.398410 42.367912 13.432120
v -6.574490 16.786530 -17.809521
v -17.727970 25.926760 -25.514759
v -11.126510 27.318981 -28.485970
v -11.995340 18.700920 -25.967300
v -18.380070 10.838790 -41.318897
v -11.611880 15.805720 -42.275501
v -12.438830 9.976780 -36.328720
v -7.437580 5.657640 -46.610321
v -1.357780 8.406270 -44.697819
v -3.250830 4.367320 -41.861309
v 5.517900 27.253708 20.811911
v 9.168221 36.743050 16.219450
v 17.430349 30.157799 26.525459
v 12.048330 25.320662 27.455219
v 23.960781 28.086021 32.675812
v 0.001620 40.090519 9.754049
v 3.719080 41.250858 11.543690
v -5.291230 27.223129 20.884308
v -9.058391 36.916180 16.286942
v -17.149921 29.344841 26.108971
v -11.722799 25.249180 27.612579
v -23.581490 27.943069 32.990528
v -3.698400 41.229210 11.593090
v 10.407040 66.704651 42.901989
v 17.232899 60.829300 44.695732
v 22.133310 57.727379 36.116272
v 11.098700 63.689453 34.447159
v 0.110580 70.025642 41.039856
v 0.064080 69.651520 32.778049
v 21.449270 54.619099 27.550810
v 11.790350 60.674229 25.992329
v 0.017580 66.723007 24.447851
v 14.345890 29.197081 53.155651
v 0.335560 26.138710 54.019222
v 0.235720 24.347000 38.126919
v 13.197109 27.258871 40.305439
v 22.855980 36.998390 52.419060
v 26.158501 30.170742 42.483940
v 22.752981 46.542381 48.493912
v 24.145910 43.949059 39.300110
v 23.761950 41.355740 30.106312
v 12.434950 43.646160 59.537300
v 0.340050 40.994690 61.438999
v 10.524020 58.339966 56.777260
v 0.344530 56.037529 61.878738
v -11.696970 60.603600 26.147808
v -10.911421 63.623260 34.592861
v -10.125860 66.642906 43.037910
v -21.297661 54.490562 27.833790
v -21.886909 57.595009 36.407681
v -16.891701 60.705799 44.967571
v -25.661631 30.014931 42.826992
v -12.712950 27.180960 40.476959
v -22.241531 36.829700 52.790417
v -13.703110 29.112740 53.341331
v -23.496498 41.213642 30.419159
v -23.774271 43.804970 39.617332
v -22.275160 46.396297 48.815498
v 0.199080 62.350113 55.187229
v -10.008880 58.278240 56.913181
v -11.855989 43.573120 59.698101
v 15.499830 48.425297 20.500299
v 7.748880 55.658279 20.112450
v -0.002080 62.891270 19.724600
v 3.707400 50.642338 14.232579
v -0.021740 59.059540 15.001360
v 16.465080 38.937061 23.190178
v -3.710070 50.620041 14.281681
v -7.703520 55.611820 20.214739
v -15.404969 48.332371 20.704889
v -16.277451 38.838600 23.406929
v 0.004500 46.033192 12.791220

vt 0.775345 0.341683
vt 0.775876 0.247975
vt 0.859220 0.247112
vt 0.772128 0.424221
vt 0.775890 0.154291
vt 0.859827 0.141903
vt 0.875327 0.375553
vt 0.892505 0.219133
vt 0.897773 0.114296
vt 0.953133 0.141305
vt 0.949949 0.066123
vt 0.977975 0.018496
vt 0.873031 0.047317
vt 0.914347 0.327191
vt 0.946247 0.279296
vt 0.925279 0.240961
vt 0.931538 0.459675
vt 0.768930 0.471854
vt 0.800536 0.491124
vt 0.867513 0.453579
vt 0.477818 0.544580
vt 0.495999 0.473751
vt 0.457462 0.507453
vt 0.563267 0.479394
vt 0.793378 0.515313
vt 0.929596 0.495258
vt 0.990614 0.441185
vt 0.411300 0.524885
vt 0.939905 0.518219
vt 0.290756 0.676185
vt 0.333986 0.544775
vt 0.326637 0.668117
vt 0.294440 0.545074
vt 0.419736 0.674328
vt 0.359239 0.546980
vt 0.362150 0.676992
vt 0.424507 0.550840
vt 0.353113 0.548934
vt 0.354937 0.672422
vt 0.290943 0.859778
vt 0.324924 0.863033
vt 0.413481 0.864260
vt 0.355742 0.861684
vt 0.348682 0.862354
vt 0.311373 1.000258
vt 0.376172 1.002164
vt 0.159496 0.674128
vt 0.185555 0.550104
vt 0.185681 0.666147
vt 0.160294 0.542513
vt 0.284786 0.672128
vt 0.226999 0.546325
vt 0.226201 0.677940
vt 0.281807 0.552058
vt 0.215102 0.548247
vt 0.218081 0.668317
vt 0.150111 0.861017
vt 0.177469 0.863497
vt 0.280998 0.861230
vt 0.216815 0.864829
vt 0.214293 0.857419
vt 0.174267 0.992955
vt 0.240972 0.996766
vt 0.876456 0.657379
vt 0.910185 0.556160
vt 0.913662 0.658670
vt 0.876159 0.553592
vt 0.989137 0.661685
vt 0.941977 0.557404
vt 0.942685 0.660091
vt 0.991449 0.552362
vt 0.936903 0.552947
vt 0.935408 0.657873
vt 0.871892 0.848804
vt 0.899388 0.854490
vt 0.985760 0.847089
vt 0.939923 0.850417
vt 0.935080 0.844376
vt 0.891788 0.987324
vt 0.959816 0.991136
vt 0.811870 0.097918
vt 0.941640 0.180557
vt 0.977933 0.261082
vt 0.954340 0.335728
vt 0.960961 0.365731
vt 0.025670 0.875244
vt 0.023983 0.951413
vt 0.008915 0.884464
vt 0.888702 0.378592
vt 0.932696 0.369601
vt 0.967644 0.389437
vt 0.893416 0.385760
vt 0.979004 0.388825
vt 0.122691 0.772029
vt 0.105427 0.782143
vt 0.069123 0.732106
vt 0.076559 0.701409
vt 0.089433 0.808942
vt 0.055780 0.764742
vt 0.447575 0.041580
vt 0.455426 0.007181
vt 0.364876 0.024518
vt 0.386764 0.056902
vt 0.117731 0.945641
vt 0.103867 0.925337
vt 0.088386 0.917024
vt 0.511792 0.059264
vt 0.553387 0.034310
vt 0.062154 0.991654
vt 0.037597 0.984105
vt 0.036497 0.970812
vt 0.525175 0.122252
vt 0.562876 0.109196
vt 0.538257 0.138029
vt 0.692644 0.245132
vt 0.692111 0.141629
vt 0.676452 0.374359
vt 0.659497 0.216523
vt 0.653969 0.113403
vt 0.598608 0.140783
vt 0.601372 0.065256
vt 0.571845 0.018496
vt 0.678986 0.045939
vt 0.637463 0.325376
vt 0.605901 0.279694
vt 0.626699 0.241362
vt 0.608539 0.429278
vt 0.725602 0.482910
vt 0.768676 0.455537
vt 0.670790 0.428038
vt 0.013833 0.534843
vt 0.057723 0.498919
vt 0.108703 0.537752
vt 0.114337 0.623838
vt 0.727395 0.512149
vt 0.602094 0.474733
vt 0.556344 0.401069
vt 0.025928 0.446211
vt 0.587502 0.500905
vt 0.501558 0.665186
vt 0.475328 0.670746
vt 0.488643 0.557008
vt 0.510735 0.559631
vt 0.511941 0.673778
vt 0.564254 0.668997
vt 0.571052 0.562343
vt 0.526391 0.557600
vt 0.438845 0.555986
vt 0.438629 0.669967
vt 0.490638 0.863007
vt 0.465435 0.853431
vt 0.512914 0.866921
vt 0.550466 0.866819
vt 0.439943 0.863110
vt 0.464498 0.995689
vt 0.531103 0.999500
vt 0.645465 0.666359
vt 0.609423 0.665836
vt 0.609322 0.553240
vt 0.646303 0.558831
vt 0.644901 0.672566
vt 0.704038 0.670170
vt 0.704920 0.562643
vt 0.647846 0.566742
vt 0.574501 0.668755
vt 0.577814 0.562930
vt 0.641031 0.862073
vt 0.600000 0.859329
vt 0.641457 0.863412
vt 0.701931 0.862073
vt 0.568462 0.857695
vt 0.596238 0.994925
vt 0.667469 0.998524
vt 0.721119 0.672768
vt 0.757893 0.673412
vt 0.759085 0.544124
vt 0.727704 0.546469
vt 0.871675 0.666796
vt 0.802489 0.668417
vt 0.813164 0.548182
vt 0.871708 0.557439
vt 0.794309 0.670447
vt 0.792099 0.542839
vt 0.721696 0.854929
vt 0.760334 0.853734
vt 0.865583 0.855450
vt 0.803118 0.854637
vt 0.794191 0.855683
vt 0.759108 0.989579
vt 0.837549 0.987025
vt 0.740506 0.096989
vt 0.610236 0.179810
vt 0.572940 0.257297
vt 0.597908 0.334492
vt 0.594582 0.369084
vt 0.663706 0.377160
vt 0.574011 0.385040
vt 0.017354 0.698239
vt 0.077571 0.659930
vt 0.033577 0.712756
vt 0.065908 0.640817
vt 0.081021 0.683010
vt 0.049118 0.727721
vt 0.124151 0.041090
vt 0.200940 0.027137
vt 0.117444 0.009102
vt 0.180181 0.056209
vt 0.011554 0.832948
vt 0.034991 0.827342
vt 0.053450 0.820154
vt 0.064435 0.056501
vt 0.026347 0.032755
vt 0.055064 0.903823
vt 0.064933 0.894582
vt 0.079099 0.883106
vt 0.051025 0.114638
vt 0.016346 0.101972
vt 0.038659 0.129045
vt 0.925503 0.032906
vt 0.842451 0.072618
vt 0.512985 0.444113
vt 0.492284 0.459711
vt 0.475747 0.396794
vt 0.496448 0.381196
vt 0.533687 0.428515
vt 0.459209 0.333877
vt 0.776176 0.128462
vt 0.794023 0.113190
vt 0.625416 0.032217
vt 0.709746 0.071464
vt 0.073940 0.395267
vt 0.061035 0.456501
vt 0.037643 0.442369
vt 0.050548 0.381136
vt 0.086845 0.334034
vt 0.014250 0.428238
vt 0.758341 0.112725
vt 0.314099 0.254463
vt 0.355087 0.237392
vt 0.367313 0.312719
vt 0.317303 0.328713
vt 0.273111 0.271535
vt 0.272808 0.344687
vt 0.379539 0.388047
vt 0.326023 0.402942
vt 0.272506 0.417838
vt 0.488452 0.155869
vt 0.533191 0.147537
vt 0.533439 0.288026
vt 0.492907 0.267564
vt 0.443713 0.164201
vt 0.451461 0.249039
vt 0.399400 0.200796
vt 0.410174 0.281663
vt 0.419374 0.360962
vt 0.365347 0.092206
vt 0.403799 0.084931
vt 0.314748 0.129858
vt 0.274408 0.022325
vt 0.219709 0.401470
vt 0.228523 0.327334
vt 0.232299 0.253177
vt 0.166912 0.385102
vt 0.179200 0.309960
vt 0.191488 0.234818
vt 0.094962 0.247359
vt 0.053526 0.267631
vt 0.103079 0.160684
vt 0.058292 0.154110
vt 0.013878 0.287888
vt 0.013506 0.147537
vt 0.126878 0.359568
vt 0.136465 0.278653
vt 0.147283 0.197751
vt 0.273581 0.191382
vt 0.232948 0.128571
vt 0.143957 0.084931
vt 0.182552 0.090792
vt 0.367105 0.456462
vt 0.313805 0.452331
vt 0.272590 0.443412
vt 0.354671 0.524877
vt 0.313673 0.496932
vt 0.272674 0.468987
vt 0.398802 0.428704
vt 0.423478 0.492294
vt 0.231623 0.490320
vt 0.231938 0.449947
vt 0.190573 0.511653
vt 0.178742 0.448377
vt 0.125804 0.484077
vt 0.146958 0.422338
vt 0.314405 0.528232
vt 0.274139 0.531587
vt 0.232356 0.521620
vt 0.273793 0.512119

vn 0.548426 0.786132 -0.285002
vn 0.614308 0.557070 -0.558836
vn 0.229563 0.741535 0.630418
vn 0.532857 0.761424 0.369184
vn 0.642419 0.501802 -0.579217
vn 0.853869 -0.144009 -0.500169
vn 0.881404 0.348258 0.319130
vn 0.875752 0.179792 0.448032
vn 0.843950 -0.456759 0.281281
vn -0.652215 -0.738202 0.172257
vn 0.834164 -0.301667 0.461702
vn 0.837949 -0.352074 -0.416996
vn 0.866552 -0.080324 -0.492581
vn 0.516495 0.111987 -0.848936
vn -0.791644 -0.134660 -0.595959
vn -0.906042 -0.126306 -0.403899
vn -0.121254 -0.271332 0.954817
vn 0.027620 -0.092283 0.995350
vn 0.551874 0.789494 -0.268578
vn -0.812432 -0.121547 -0.570246
vn -0.742264 0.488883 -0.458298
vn -0.109629 -0.568091 0.815631
vn 0.712757 -0.616742 -0.334075
vn -0.645912 0.240431 -0.724562
vn -0.669807 0.403550 -0.623302
vn 0.710156 -0.701978 0.053902
vn 0.680599 -0.618005 -0.393516
vn -0.300346 0.497376 0.813886
vn -0.489400 0.539514 0.685137
vn -0.063901 0.898054 -0.435219
vn -0.294703 0.311773 -0.903298
vn 0.066619 -0.770468 -0.633988
vn 0.236041 -0.953934 0.185187
vn 0.458903 -0.717165 0.524483
vn 0.075278 0.703163 0.707032
vn 0.932642 0.346005 -0.102275
vn -0.422325 -0.092530 -0.901709
vn -0.334783 -0.299039 0.893586
vn -0.375812 -0.005147 -0.926682
vn -0.415925 0.340502 -0.843247
vn 0.628869 -0.735968 0.250749
vn 0.667975 -0.734977 0.116697
vn -0.248700 0.368824 0.895610
vn -0.893849 0.424233 -0.145123
vn -0.186748 0.336268 -0.923065
vn -0.317539 0.012134 -0.948168
vn 0.613368 -0.785738 0.079974
vn 0.544220 -0.786786 0.291189
vn -0.327870 0.752287 0.571460
vn 0.109929 0.512864 0.851402
vn 0.459452 0.133866 -0.878057
vn -0.842393 -0.423397 0.333330
vn 0.882794 0.372169 0.286645
vn -0.431717 0.456637 -0.777884
vn -0.417455 0.389894 -0.820801
vn 0.648770 -0.752864 -0.110874
vn 0.519002 -0.795894 0.311753
vn -0.173023 0.310949 0.934545
vn -0.750233 0.632000 0.194231
vn 0.058716 0.831574 -0.552302
vn -0.008524 0.683542 -0.729862
vn 0.207368 -0.729236 -0.652084
vn -0.282410 -0.926242 -0.249639
vn -0.004833 0.075979 0.997098
vn -0.133995 0.325591 0.935968
vn 0.721400 0.482604 -0.496665
vn -0.462716 -0.453268 -0.761868
vn 0.151498 -0.003893 0.988450
vn 0.340830 0.592448 -0.729959
vn 0.954676 0.277294 0.108178
vn 0.803199 -0.234778 0.547495
vn 0.135749 -0.950465 -0.279623
vn 0.004376 -0.993209 -0.116259
vn -0.585792 -0.776326 0.232735
vn 0.058287 -0.888858 0.454461
vn -0.109713 -0.988061 -0.108162
vn -0.469768 -0.809075 -0.353152
vn 0.929714 0.164457 -0.329524
vn -0.975884 -0.169814 0.137167
vn 0.937012 0.180971 -0.298760
vn 0.956467 0.186403 -0.224555
vn 0.263844 -0.153800 -0.952225
vn -0.249252 -0.932765 -0.260427
vn 0.895250 -0.413818 -0.165175
vn 0.243165 0.965275 -0.095476
vn 0.520005 0.749319 0.410019
vn -0.790548 -0.244313 -0.561556
vn -0.951157 0.096231 -0.293327
vn 0.733616 -0.608863 0.301817
vn 0.718618 -0.624034 0.306872
vn 0.543862 0.649858 -0.530941
vn 0.408629 0.665532 -0.624571
vn -0.992837 -0.111232 0.043604
vn -0.997089 -0.067194 0.036026
vn 0.580019 -0.581879 0.570082
vn 0.669967 -0.558318 0.489311
vn -0.116972 0.425097 -0.897558
vn 0.304618 0.256268 -0.917352
vn -0.599197 0.268810 0.754125
vn -0.546241 0.554633 0.627697
vn 0.391010 -0.916474 0.084770
vn 0.373630 -0.884064 0.280770
vn -0.508015 -0.623960 -0.593796
vn -0.552690 0.786426 -0.275806
vn -0.623066 0.556913 -0.549215
vn -0.228983 0.741204 0.631018
vn -0.527031 0.762018 0.376254
vn -0.624221 0.554808 -0.550034
vn -0.872832 -0.103638 -0.476889
vn -0.889481 0.340759 0.304478
vn -0.880555 0.129966 0.455776
vn -0.845497 -0.463933 0.264388
vn 0.653541 -0.736882 0.172881
vn -0.827553 -0.306439 0.470373
vn -0.830511 -0.322356 -0.454244
vn -0.846044 -0.213913 -0.488314
vn -0.462673 0.148688 -0.873971
vn 0.782714 -0.128989 -0.608869
vn 0.911107 -0.118994 -0.394619
vn 0.139988 -0.275603 0.951024
vn -0.012034 -0.092075 0.995679
vn -0.544133 0.792138 -0.276472
vn 0.794949 -0.121456 -0.594394
vn 0.730321 0.483204 -0.482851
vn 0.125904 -0.565234 0.815266
vn -0.717842 -0.616845 -0.322808
vn 0.610858 -0.146193 -0.778126
vn 0.759064 0.427796 -0.490727
vn -0.776555 -0.492003 0.393568
vn -0.759985 -0.480625 -0.437519
vn -0.139799 0.436045 0.889000
vn 0.788516 0.478563 0.386291
vn 0.003537 0.666619 -0.745390
vn 0.097305 0.008924 -0.995215
vn -0.331807 -0.942561 0.038512
vn -0.141944 -0.868291 0.475313
vn 0.027744 0.616191 0.787108
vn 0.163193 0.842362 0.513610
vn -0.528014 0.381941 -0.758500
vn 0.915263 -0.401734 -0.030041
vn -0.733629 0.034540 0.678672
vn 0.563225 0.183563 -0.805656
vn 0.610473 0.362957 -0.703978
vn -0.773886 -0.614106 0.154835
vn -0.765165 -0.616589 0.185310
vn 0.522069 0.512425 0.681810
vn 0.781186 0.546829 0.301210
vn -0.022547 0.545637 -0.837718
vn 0.126346 0.239575 -0.962622
vn -0.292727 -0.955103 0.045706
vn -0.132611 -0.923450 0.360075
vn 0.077917 0.829913 0.552425
vn -0.024754 0.679218 0.733519
vn -0.467313 0.048703 -0.882750
vn 0.941334 -0.199279 0.272355
vn -0.808424 0.045021 0.586876
vn 0.184647 0.355037 -0.916436
vn 0.153960 0.291585 -0.944073
vn -0.640463 -0.679889 0.357153
vn -0.685832 -0.667821 0.289224
vn 0.620975 0.374577 0.688536
vn 0.854196 0.451985 -0.257020
vn -0.275674 0.823936 -0.495110
vn -0.214498 0.543698 -0.811408
vn -0.403311 -0.726929 -0.555800
vn 0.465705 -0.881435 -0.078686
vn 0.183942 -0.000600 0.982937
vn 0.309824 0.507697 0.803898
vn -0.923342 0.243393 -0.296982
vn 0.513754 -0.222288 -0.828641
vn 0.029545 -0.098547 0.994694
vn -0.342573 0.600880 -0.722209
vn -0.952819 0.277838 0.122241
vn -0.769145 -0.124847 0.626761
vn -0.117010 -0.966370 -0.228992
vn -0.033107 -0.990836 -0.130949
vn 0.597875 -0.769419 0.224809
vn -0.074548 -0.878245 0.472364
vn 0.115746 -0.984826 -0.129305
vn 0.445988 -0.822180 -0.353717
vn -0.934647 0.165685 -0.314616
vn 0.167680 -0.119526 0.978569
vn -0.933063 0.162167 -0.321086
vn -0.934273 -0.062084 -0.351112
vn -0.278439 -0.153846 -0.948052
vn 0.245190 -0.932637 -0.264706
vn -0.908784 -0.402638 -0.109521
vn -0.244806 0.965232 -0.091635
vn -0.515531 0.744929 0.423449
vn 0.779398 -0.246868 -0.575843
vn 0.946345 0.096312 -0.308472
vn -0.727892 -0.598437 0.334734
vn -0.720788 -0.605833 0.336794
vn -0.550995 0.650024 -0.523329
vn -0.418519 0.665474 -0.618050
vn 0.994220 -0.099229 0.040994
vn 0.995271 -0.088887 0.039183
vn -0.570878 -0.581966 0.579149
vn -0.663839 -0.557852 0.498115
vn 0.092312 0.423014 -0.901409
vn -0.318597 0.258499 -0.911962
vn 0.606062 0.246947 0.756112
vn 0.549260 0.557323 0.622660
vn -0.388710 -0.916589 0.093648
vn -0.368229 -0.884793 0.285568
vn 0.478803 -0.643685 -0.597007
vn 0.452705 -0.242521 0.858045
vn 0.927435 0.350187 0.131276
vn 0.923267 0.363175 0.125227
vn 0.422211 -0.760106 -0.493940
vn 0.455640 -0.628193 -0.630687
vn 0.371490 -0.727482 -0.576858
vn 0.432676 -0.609163 -0.664614
vn -0.054427 0.885644 -0.461164
vn -0.439790 -0.245046 0.864024
vn -0.928740 0.345094 0.135471
vn -0.926777 0.351510 0.132378
vn -0.379793 -0.732956 -0.564387
vn -0.383508 -0.720356 -0.577935
vn -0.410102 -0.739432 -0.533907
vn -0.374801 -0.729407 -0.572267
vn 0.043661 0.886343 -0.460966
vn 0.563752 0.818728 -0.108941
vn 0.416423 0.894037 -0.165196
vn 0.514021 0.807203 -0.290183
vn 0.477996 0.833603 -0.276814
vn 0.209203 -0.970860 0.116900
vn 0.396597 -0.843591 0.362030
vn 0.170914 -0.980223 0.099754
vn 0.178531 -0.972984 0.146383
vn 0.975346 0.140377 0.170276
vn 0.924240 0.305154 0.229481
vn 0.987973 0.049625 -0.146447
vn 0.985386 0.135782 -0.102852
vn 0.546144 -0.039826 0.836744
vn 0.184125 -0.408956 0.893786
vn 0.724422 0.323505 0.608734
vn 0.279864 0.092504 0.955573
vn -0.486626 0.830705 -0.270415
vn -0.424202 0.891333 -0.159935
vn -0.522666 0.804086 -0.283314
vn -0.570752 0.815035 -0.099803
vn -0.170723 -0.974034 0.148695
vn -0.385398 -0.847217 0.365639
vn -0.163680 -0.981230 0.101968
vn -0.201795 -0.972095 0.119622
vn -0.987460 0.129849 -0.089789
vn -0.923057 0.299477 0.241410
vn -0.990106 0.043677 -0.133349
vn -0.973715 0.133947 0.184222
vn 0.000514 0.878971 0.476875
vn 0.365838 0.798407 0.478235
vn -0.365304 0.795862 0.482863
vn 0.002355 0.727426 0.686182
vn -0.265704 0.092191 0.959637
vn -0.169465 -0.410368 0.896035
vn -0.718092 0.320208 0.617909
vn -0.533572 -0.043459 0.844638
vn 0.447393 0.475194 -0.757648
vn 0.463703 0.584793 -0.665580
vn 0.488361 0.388386 -0.781447
vn 0.619376 0.469652 -0.629126
vn 0.680502 -0.155816 -0.715988
vn 0.739421 -0.048285 -0.671510
vn 0.716715 -0.162227 -0.678235
vn 0.708076 -0.129391 -0.694180
vn -0.630458 0.465889 -0.620862
vn -0.475983 0.581961 -0.659365
vn -0.500995 0.385328 -0.774937
vn -0.460237 0.472461 -0.751640
vn -0.716403 -0.133240 -0.684846
vn -0.747943 -0.052757 -0.661663
vn -0.707655 -0.141697 -0.692204
vn -0.711808 -0.129959 -0.690246
vn -0.007258 0.455078 -0.890422
vn 0.200239 0.269907 -0.941836
vn -0.214291 0.268601 -0.939113
vn -0.007029 0.167258 -0.985888

f 1/1/1 2/2/1 3/3/1
f 1/1/2 3/3/2 4/4/2
f 2/2/3 5/5/3 6/6/3
f 2/2/4 6/6/4 3/3/4
f 4/4/5 3/3/5 7/7/5
f 7/7/6 3/3/6 8/8/6
f 8/8/7 6/6/7 9/9/7
f 8/8/8 3/3/8 6/6/8
f 10/10/9 8/8/9 9/9/9
f 11/11/10 12/12/10 10/10/10
f 9/9/11 13/13/11 11/11/11
f 14/14/12 8/8/12 15/15/12
f 8/8/13 14/14/13 7/7/13
f 16/16/14 15/15/14 8/8/14
f 17/17/15 4/18/15 18/19/15
f 4/18/16 17/17/16 19/20/16
f 20/21/17 19/22/17 17/23/17
f 19/22/18 20/21/18 21/24/18
f 7/25/19 18/19/19 4/18/19
f 17/17/20 18/19/20 22/26/20
f 22/26/21 23/27/21 17/17/21
f 17/23/22 23/28/22 20/21/22
f 20/29/23 23/27/23 22/26/23
f 24/30/24 14/31/24 25/32/24
f 14/31/25 24/30/25 26/33/25
f 27/34/26 26/35/26 24/36/26
f 26/35/27 27/34/27 15/37/27
f 15/38/28 25/32/28 14/31/28
f 27/39/29 25/32/29 15/38/29
f 28/40/30 25/32/30 29/41/30
f 25/32/31 28/40/31 24/30/31
f 30/42/32 24/36/32 28/43/32
f 24/36/33 30/42/33 27/34/33
f 29/41/34 27/39/34 30/44/34
f 27/39/35 29/41/35 25/32/35
f 29/41/36 31/45/36 28/40/36
f 28/43/37 31/46/37 30/42/37
f 30/44/38 31/45/38 29/41/38
f 32/47/39 8/48/39 33/49/39
f 8/48/40 32/47/40 16/50/40
f 34/51/41 16/52/41 32/53/41
f 16/52/42 34/51/42 35/54/42
f 33/49/43 35/55/43 34/56/43
f 35/55/44 33/49/44 8/48/44
f 36/57/45 33/49/45 37/58/45
f 33/49/46 36/57/46 32/47/46
f 38/59/47 32/53/47 36/60/47
f 32/53/48 38/59/48 34/51/48
f 37/58/49 34/56/49 38/61/49
f 34/56/50 37/58/50 33/49/50
f 37/58/51 39/62/51 36/57/51
f 36/60/52 39/63/52 38/59/52
f 38/61/53 39/62/53 37/58/53
f 40/64/54 9/65/54 41/66/54
f 9/65/55 40/64/55 10/67/55
f 42/68/56 10/69/56 40/70/56
f 10/69/57 42/68/57 11/71/57
f 41/66/58 11/72/58 42/73/58
f 11/72/59 41/66/59 9/65/59
f 43/74/60 41/66/60 44/75/60
f 41/66/61 43/74/61 40/64/61
f 45/76/62 40/70/62 43/77/62
f 40/70/63 45/76/63 42/68/63
f 44/75/64 42/73/64 45/78/64
f 42/73/65 44/75/65 41/66/65
f 44/75/66 46/79/66 43/74/66
f 43/77/67 46/80/67 45/76/67
f 45/78/68 46/79/68 44/75/68
f 5/5/69 47/81/69 6/6/69
f 6/6/70 13/13/70 9/9/70
f 8/8/71 10/10/71 35/82/71
f 16/16/72 35/82/72 48/83/72
f 10/10/73 48/83/73 35/82/73
f 12/12/74 48/83/74 10/10/74
f 16/16/75 48/83/75 15/15/75
f 15/15/76 48/83/76 26/84/76
f 48/83/77 49/85/77 26/84/77
f 20/29/78 22/26/78 18/19/78
f 20/86/79 7/87/79 21/88/79
f 20/29/80 18/19/80 7/25/80
f 14/14/81 21/89/81 7/7/81
f 49/90/82 19/91/82 21/92/82
f 19/93/83 49/85/83 48/83/83
f 26/84/84 49/85/84 14/14/84
f 50/94/85 51/95/85 21/96/85
f 21/96/86 14/97/86 50/94/86
f 51/95/87 52/98/87 49/99/87
f 49/99/88 21/96/88 51/95/88
f 52/100/89 50/101/89 14/102/89
f 14/102/90 49/103/90 52/100/90
f 53/104/91 54/105/91 51/95/91
f 51/95/92 50/94/92 53/104/92
f 54/105/93 55/106/93 52/98/93
f 52/98/94 51/95/94 54/105/94
f 55/107/95 53/108/95 50/101/95
f 50/101/96 52/100/96 55/107/96
f 56/109/97 57/110/97 54/105/97
f 54/105/98 53/104/98 56/109/98
f 57/110/99 58/111/99 55/106/99
f 55/106/100 54/105/100 57/110/100
f 58/112/101 56/113/101 53/108/101
f 53/108/102 55/107/102 58/112/102
f 57/114/103 56/113/103 58/112/103
f 1/1/104 59/115/104 2/2/104
f 1/1/105 4/4/105 59/115/105
f 2/2/106 60/116/106 5/5/106
f 2/2/107 59/115/107 60/116/107
f 4/4/108 61/117/108 59/115/108
f 61/117/109 62/118/109 59/115/109
f 62/118/110 63/119/110 60/116/110
f 62/118/111 60/116/111 59/115/111
f 64/120/112 63/119/112 62/118/112
f 65/121/113 64/120/113 12/122/113
f 63/119/114 65/121/114 66/123/114
f 67/124/115 68/125/115 62/118/115
f 62/118/116 61/117/116 67/124/116
f 69/126/117 62/118/117 68/125/117
f 70/127/118 71/128/118 4/129/118
f 4/129/119 19/130/119 70/127/119
f 72/131/120 70/132/120 19/133/120
f 19/133/121 73/134/121 72/131/121
f 61/135/122 4/129/122 71/128/122
f 70/127/123 74/136/123 71/128/123
f 74/136/124 70/127/124 75/137/124
f 70/132/125 72/131/125 75/138/125
f 72/139/126 74/136/126 75/137/126
f 76/140/127 77/141/127 67/142/127
f 67/142/128 78/143/128 76/140/128
f 79/144/129 76/145/129 78/146/129
f 78/146/130 68/147/130 79/144/130
f 68/148/131 67/142/131 77/141/131
f 79/149/132 68/148/132 77/141/132
f 80/150/133 81/151/133 77/141/133
f 77/141/134 76/140/134 80/150/134
f 82/152/135 80/153/135 76/145/135
f 76/145/136 79/144/136 82/152/136
f 81/151/137 82/154/137 79/149/137
f 79/149/138 77/141/138 81/151/138
f 81/151/139 80/150/139 83/155/139
f 80/153/140 82/152/140 83/156/140
f 82/154/141 81/151/141 83/155/141
f 84/157/142 85/158/142 62/159/142
f 62/159/143 69/160/143 84/157/143
f 86/161/144 84/162/144 69/163/144
f 69/163/145 87/164/145 86/161/145
f 85/158/146 86/165/146 87/166/146
f 87/166/147 62/159/147 85/158/147
f 88/167/148 89/168/148 85/158/148
f 85/158/149 84/157/149 88/167/149
f 90/169/150 88/170/150 84/162/150
f 84/162/151 86/161/151 90/169/151
f 89/168/152 90/171/152 86/165/152
f 86/165/153 85/158/153 89/168/153
f 89/168/154 88/167/154 91/172/154
f 88/170/155 90/169/155 91/173/155
f 90/171/156 89/168/156 91/172/156
f 92/174/157 93/175/157 63/176/157
f 63/176/158 64/177/158 92/174/158
f 94/178/159 92/179/159 64/180/159
f 64/180/160 65/181/160 94/178/160
f 93/175/161 94/182/161 65/183/161
f 65/183/162 63/176/162 93/175/162
f 95/184/163 96/185/163 93/175/163
f 93/175/164 92/174/164 95/184/164
f 97/186/165 95/187/165 92/179/165
f 92/179/166 94/178/166 97/186/166
f 96/185/167 97/188/167 94/182/167
f 94/182/168 93/175/168 96/185/168
f 96/185/169 95/184/169 98/189/169
f 95/187/170 97/186/170 98/190/170
f 97/188/171 96/185/171 98/189/171
f 5/5/172 60/116/172 99/191/172
f 60/116/173 63/119/173 66/123/173
f 62/118/174 87/192/174 64/120/174
f 69/126/175 48/193/175 87/192/175
f 64/120/176 87/192/176 48/193/176
f 12/122/177 64/120/177 48/193/177
f 69/126/178 68/125/178 48/193/178
f 68/125/179 78/194/179 48/193/179
f 48/193/180 78/194/180 100/195/180
f 72/139/181 71/128/181 74/136/181
f 72/86/182 73/88/182 61/87/182
f 72/139/183 61/135/183 71/128/183
f 67/124/184 61/117/184 73/196/184
f 100/195/185 73/196/185 19/197/185
f 19/197/186 48/193/186 100/195/186
f 78/194/187 67/124/187 100/195/187
f 101/198/188 73/199/188 102/200/188
f 73/199/189 101/198/189 67/201/189
f 102/200/190 100/202/190 103/203/190
f 100/202/191 102/200/191 73/199/191
f 103/204/192 67/205/192 101/206/192
f 67/205/193 103/204/193 100/207/193
f 104/208/194 102/200/194 105/209/194
f 102/200/195 104/208/195 101/198/195
f 105/209/196 103/203/196 106/210/196
f 103/203/197 105/209/197 102/200/197
f 106/211/198 101/206/198 104/212/198
f 101/206/199 106/211/199 103/204/199
f 107/213/200 105/209/200 108/214/200
f 105/209/201 107/213/201 104/208/201
f 108/214/202 106/210/202 109/215/202
f 106/210/203 108/214/203 105/209/203
f 109/216/204 104/212/204 107/217/204
f 104/212/205 109/216/205 106/211/205
f 108/218/206 109/216/206 107/217/206
f 13/13/207 110/219/207 11/11/207
f 110/219/207 12/12/207 11/11/207
f 47/81/208 111/220/208 6/6/208
f 111/220/209 13/13/209 6/6/209
f 110/221/210 13/222/210 112/223/210
f 112/223/211 113/224/211 110/221/211
f 12/225/212 110/221/212 113/224/212
f 113/224/213 112/223/213 114/226/213
f 115/227/214 116/228/214 5/5/214
f 116/228/214 47/81/214 5/5/214
f 12/122/215 117/229/215 65/121/215
f 117/229/215 66/123/215 65/121/215
f 66/123/216 118/230/216 60/116/216
f 118/230/217 99/191/217 60/116/217
f 119/231/218 66/232/218 117/233/218
f 117/233/219 120/234/219 119/231/219
f 121/235/220 119/231/220 120/234/220
f 120/234/221 117/233/221 12/236/221
f 99/191/222 122/237/222 5/5/222
f 122/237/222 115/227/222 5/5/222
f 123/238/223 124/239/223 125/240/223 126/241/223
f 127/242/224 123/238/224 126/241/224 128/243/224
f 126/241/225 125/240/225 129/244/225 130/245/225
f 128/243/226 126/241/226 130/245/226 131/246/226
f 132/247/227 133/248/227 134/249/227 135/250/227
f 136/251/228 132/247/228 135/250/228 137/252/228
f 135/250/229 134/249/229 12/225/229 113/224/229
f 137/252/230 135/250/230 113/224/230 114/226/230
f 138/253/231 136/251/231 137/252/231 139/254/231
f 124/239/232 138/253/232 139/254/232 125/240/232
f 139/254/233 137/252/233 114/226/233 140/255/233
f 125/240/234 139/254/234 140/255/234 129/244/234
f 132/247/235 136/251/235 138/253/235 141/256/235
f 133/248/236 132/247/236 141/256/236 142/257/236
f 141/256/237 138/253/237 124/239/237 143/258/237
f 142/257/238 141/256/238 143/258/238 144/259/238
f 128/243/239 131/246/239 145/260/239 146/261/239
f 127/242/240 128/243/240 146/261/240 147/262/240
f 146/261/241 145/260/241 148/263/241 149/264/241
f 147/262/242 146/261/242 149/264/242 150/265/242
f 151/266/243 121/235/243 120/234/243 152/267/243
f 153/268/244 151/266/244 152/267/244 154/269/244
f 152/267/245 120/234/245 12/236/245 134/270/245
f 154/269/246 152/267/246 134/270/246 133/271/246
f 149/264/247 148/263/247 155/272/247 156/273/247
f 150/265/248 149/264/248 156/273/248 157/274/248
f 156/273/249 155/272/249 121/235/249 151/266/249
f 157/274/250 156/273/250 151/266/250 153/268/250
f 123/238/251 127/242/251 147/262/251 158/275/251
f 124/239/252 123/238/252 158/275/252 143/258/252
f 158/275/253 147/262/253 150/265/253 159/276/253
f 143/258/254 158/275/254 159/276/254 144/259/254
f 142/277/255 144/259/255 159/276/255 160/278/255
f 133/271/256 142/277/256 160/278/256 154/269/256
f 160/278/257 159/276/257 150/265/257 157/274/257
f 154/269/258 160/278/258 157/274/258 153/268/258
f 130/245/259 129/244/259 161/279/259 162/280/259
f 131/246/260 130/245/260 162/280/260 163/281/260
f 162/280/261 161/279/261 47/282/261 164/283/261
f 163/281/262 162/280/262 164/283/262 165/284/262
f 140/255/263 114/226/263 112/223/263 166/285/263
f 129/244/264 140/255/264 166/285/264 161/279/264
f 166/285/265 112/223/265 13/222/265 111/286/265
f 161/279/266 166/285/266 111/286/266 47/282/266
f 163/281/267 165/284/267 167/287/267 168/288/267
f 131/246/268 163/281/268 168/288/268 145/260/268
f 168/288/269 167/287/269 99/289/269 169/290/269
f 145/260/270 168/288/270 169/290/270 148/263/270
f 169/290/271 99/289/271 118/291/271 170/292/271
f 148/263/272 169/290/272 170/292/272 155/272/272
f 170/292/273 118/291/273 66/232/273 119/231/273
f 155/272/274 170/292/274 119/231/274 121/235/274
f 116/293/275 115/294/275 122/295/275 171/296/275
f 47/282/276 116/293/276 171/296/276 164/283/276
f 171/296/277 122/295/277 99/289/277 167/287/277
f 164/283/278 171/296/278 167/287/278 165/284/278

