mtllib anim_spider_000011.mtl

o spider_walk_00
usemtl spidsd
s off

v -0.095340 43.713650 -14.598050
v -0.001710 47.666740 -3.513910
v 17.361359 35.537540 -3.558800
v -0.168390 34.214027 -24.147930
v 0.019030 38.498280 7.263021
v 11.452000 33.718559 8.721960
v 7.795510 30.581301 -18.462259
v 17.656559 26.519989 0.355400
v 13.302719 26.095699 11.929111
v 7.334610 14.377310 10.660450
v 6.533760 16.274130 17.741470
v 0.135890 23.169178 23.065830
v 10.899910 31.338230 19.695660
v 10.472290 23.842800 -12.654420
v 9.105030 14.224690 -7.281230
v 15.260260 16.630430 -2.440100
v 1.766790 10.246830 -23.268110
v 4.884520 29.105661 -30.629539
v -0.131350 19.125231 -19.512520
v 10.596400 10.085870 -21.451080
v 8.033530 28.915211 -18.831421
v 7.934540 11.088820 -30.846729
v 0.285120 1.618260 -29.643890
v 18.983521 35.241398 -21.824720
v 13.985380 42.172543 -19.223419
v 6.297590 15.243030 -13.736071
v 19.476391 38.769119 -13.190741
v 29.823721 50.689930 -31.860291
v 32.011909 56.137730 -27.468601
v 31.757160 49.235680 -24.493219
v 52.114601 22.969059 -42.784748
v 26.709290 34.241440 -6.482520
v 27.178240 44.234779 -5.757980
v 29.738970 37.931240 1.563070
v 10.966769 14.525530 5.736410
v 42.893101 38.967880 -10.168100
v 49.819180 44.618729 -6.976550
v 46.260838 40.553131 -1.156940
v 48.226810 -2.865540 -5.546200
v 21.068550 51.497093 11.460350
v 11.513550 54.186211 17.232899
v 18.721489 48.762161 21.219580
v 31.133850 63.817120 16.280361
v 29.080311 67.944267 24.012562
v 32.348751 52.996220 23.792282
v 64.722481 46.793728 21.658512
v 7.436530 41.020809 14.669780
v -0.002000 14.952280 -4.690150
v 6.346630 16.787640 -17.340040
v 17.269690 25.929798 -25.482040
v 10.878050 27.320831 -28.881809
v 11.408989 18.702940 -25.868839
v 18.963539 10.841829 -41.208649
v 12.271461 15.807570 -42.716122
v 12.706690 9.978810 -36.620770
v 8.991421 5.659030 -47.868729
v 2.911700 8.406650 -47.085262
v 3.981270 4.367830 -43.998741
v -17.378010 35.535439 -3.284250
v -11.432650 33.720310 8.719729
v -8.235390 30.510040 -18.466690
v -17.572201 32.264210 -0.958790
v -13.246079 26.060390 11.994751
v -7.202580 13.375330 9.062450
v -6.293630 16.237839 17.827379
v -10.718360 31.277069 19.840471
v -10.307150 23.939690 -12.392139
v -9.250370 14.232640 -7.487720
v -18.501680 22.990530 -3.933360
v -2.269090 10.246469 -21.770889
v -5.229920 29.104891 -30.559219
v -10.860410 10.083970 -21.248920
v -8.286320 28.913801 -18.705900
v -8.338620 11.087530 -30.682919
v -0.670860 1.618180 -29.636869
v -16.066170 29.732250 -24.687420
v -16.449209 38.532791 -23.552479
v -6.377380 15.392880 -13.752750
v -19.653481 33.262051 -17.197960
v -32.743481 31.062220 -35.571739
v -37.909050 35.350479 -32.370209
v -36.023449 30.869999 -27.522949
v -42.179829 -4.482590 -45.352913
v -22.350979 51.011547 -7.224400
v -15.179251 59.330669 -4.442360
v -20.826111 54.675850 2.144860
v -11.017990 14.102469 4.525120
v -34.747559 66.916550 -7.535070
v -33.505020 72.831352 -0.656510
v -30.911469 65.406372 1.383570
v -65.383751 37.795609 0.692550
v -24.729700 37.459370 12.402670
v -17.245319 45.226761 16.905750
v -20.086132 37.859798 22.426260
v -39.316891 42.425533 18.185280
v -40.356579 47.530731 25.646069
v -32.497269 34.392372 25.165119
v -44.030628 -0.930410 29.856201
v -7.398420 40.968781 14.763550
v -6.574490 16.786530 -17.240690
v -17.595619 25.926819 -25.180309
v -11.255389 27.319010 -28.674431
v -11.918210 18.700939 -26.093861
v -19.520710 10.838831 -40.880299
v -12.817600 15.805730 -42.453133
v -13.196239 9.976800 -36.385719
v -9.785300 5.657980 -47.745300
v -2.717520 8.406560 -47.313610
v -4.568720 4.367410 -44.158020
v 5.517900 27.253708 21.380751
v 9.168221 35.140911 16.999889
v 17.430349 30.157799 26.525459
v 12.048340 20.229870 26.166142
v 23.960781 21.974548 31.810410
v 0.001620 39.056221 10.910430
v 3.719080 40.038521 12.790110
v -5.291230 27.223129 21.453150
v -9.058391 36.916180 16.855780
v -17.149921 24.434349 25.592920
v -11.722790 20.130310 26.307430
v -23.581482 21.775459 32.093010
v -3.698400 40.012489 12.836990
v 10.407030 58.012947 49.050121
v 17.232891 51.906311 49.718231
v 22.133301 50.456528 40.711170
v 11.098680 56.625141 40.181660
v 0.110570 61.622620 47.839081
v 0.064070 62.793762 39.652142
v 21.449261 48.997898 31.716681
v 11.790340 55.237331 31.313190
v 0.017560 61.467918 30.922270
v 14.345900 19.251949 52.138859
v 0.335570 16.086239 52.417721
v 0.235730 17.285711 36.469791
v 13.197121 19.740910 39.152500
v 22.855989 27.053949 52.868088
v 26.158501 22.196100 41.835209
v 22.752981 37.161980 50.789108
v 24.145899 36.326321 41.273190
v 23.761940 35.490650 31.757259
v 12.434950 32.259689 61.099892
v 0.340050 29.300411 62.474499
v 10.524010 47.210449 61.124760
v 0.344530 43.998161 65.708168
v -11.696980 55.138969 31.452799
v -10.911430 56.532970 40.312481
v -10.125870 57.926960 49.172157
v -21.297668 48.818871 31.970770
v -21.886921 50.272179 40.972820
v -16.891710 51.734337 49.962318
v -25.661631 21.979092 42.143230
v -12.712950 19.632401 39.306511
v -22.241531 26.819019 53.201542
v -13.703099 19.134480 52.305580
v -23.496498 35.292740 32.038170
v -23.774271 36.125641 41.558018
v -22.275169 36.958538 51.077888
v 0.199070 51.446537 60.309410
v -10.008889 47.124447 61.246799
v -11.856001 32.157959 61.244270
v 15.499820 44.225559 23.635981
v 7.748860 51.404228 24.602011
v -0.002090 58.582901 25.568029
v 3.707390 47.571129 17.890820
v -0.021750 55.697880 20.213799
v 16.465080 34.402359 24.511671
v -3.710080 47.540058 17.934910
v -7.703530 51.339523 24.693850
v -15.404969 44.096142 23.819672
v -16.277451 34.265240 24.706299
v 0.004500 44.657028 14.469950

vt 0.775345 0.341683
vt 0.775876 0.247975
vt 0.859220 0.247112
vt 0.772128 0.424221
vt 0.775890 0.154291
vt 0.859827 0.141903
vt 0.875327 0.375553
vt 0.892505 0.219133
vt 0.897773 0.114296
vt 0.953133 0.141305
vt 0.949949 0.066123
vt 0.977975 0.018496
vt 0.873031 0.047317
vt 0.914347 0.327191
vt 0.946247 0.279296
vt 0.925279 0.240961
vt 0.931538 0.459675
vt 0.768930 0.471854
vt 0.800536 0.491124
vt 0.867513 0.453579
vt 0.477818 0.544580
vt 0.495999 0.473751
vt 0.457462 0.507453
vt 0.563267 0.479394
vt 0.793378 0.515313
vt 0.929596 0.495258
vt 0.990614 0.441185
vt 0.411300 0.524885
vt 0.939905 0.518219
vt 0.290756 0.676185
vt 0.333986 0.544775
vt 0.326637 0.668117
vt 0.294440 0.545074
vt 0.419736 0.674328
vt 0.359239 0.546980
vt 0.362150 0.676992
vt 0.424507 0.550840
vt 0.353113 0.548934
vt 0.354937 0.672422
vt 0.290943 0.859778
vt 0.324924 0.863033
vt 0.413481 0.864260
vt 0.355742 0.861684
vt 0.348682 0.862354
vt 0.311373 1.000258
vt 0.376172 1.002164
vt 0.159496 0.674128
vt 0.185555 0.550104
vt 0.185681 0.666147
vt 0.160294 0.542513
vt 0.284786 0.672128
vt 0.226999 0.546325
vt 0.226201 0.677940
vt 0.281807 0.552058
vt 0.215102 0.548247
vt 0.218081 0.668317
vt 0.150111 0.861017
vt 0.177469 0.863497
vt 0.280998 0.861230
vt 0.216815 0.864829
vt 0.214293 0.857419
vt 0.174267 0.992955
vt 0.240972 0.996766
vt 0.876456 0.657379
vt 0.910185 0.556160
vt 0.913662 0.658670
vt 0.876159 0.553592
vt 0.989137 0.661685
vt 0.941977 0.557404
vt 0.942685 0.660091
vt 0.991449 0.552362
vt 0.936903 0.552947
vt 0.935408 0.657873
vt 0.871892 0.848804
vt 0.899388 0.854490
vt 0.985760 0.847089
vt 0.939923 0.850417
vt 0.935080 0.844376
vt 0.891788 0.987324
vt 0.959816 0.991136
vt 0.811870 0.097918
vt 0.941640 0.180557
vt 0.977933 0.261082
vt 0.954340 0.335728
vt 0.960961 0.365731
vt 0.025670 0.875244
vt 0.023983 0.951413
vt 0.008915 0.884464
vt 0.888702 0.378592
vt 0.932696 0.369601
vt 0.967644 0.389437
vt 0.893416 0.385760
vt 0.979004 0.388825
vt 0.122691 0.772029
vt 0.105427 0.782143
vt 0.069123 0.732106
vt 0.076559 0.701409
vt 0.089433 0.808942
vt 0.055780 0.764742
vt 0.447575 0.041580
vt 0.455426 0.007181
vt 0.364876 0.024518
vt 0.386764 0.056902
vt 0.117731 0.945641
vt 0.103867 0.925337
vt 0.088386 0.917024
vt 0.511792 0.059264
vt 0.553387 0.034310
vt 0.062154 0.991654
vt 0.037597 0.984105
vt 0.036497 0.970812
vt 0.525175 0.122252
vt 0.562876 0.109196
vt 0.538257 0.138029
vt 0.692644 0.245132
vt 0.692111 0.141629
vt 0.676452 0.374359
vt 0.659497 0.216523
vt 0.653969 0.113403
vt 0.598608 0.140783
vt 0.601372 0.065256
vt 0.571845 0.018496
vt 0.678986 0.045939
vt 0.637463 0.325376
vt 0.605901 0.279694
vt 0.626699 0.241362
vt 0.608539 0.429278
vt 0.725602 0.482910
vt 0.768676 0.455537
vt 0.670790 0.428038
vt 0.013833 0.534843
vt 0.057723 0.498919
vt 0.108703 0.537752
vt 0.114337 0.623838
vt 0.727395 0.512149
vt 0.602094 0.474733
vt 0.556344 0.401069
vt 0.025928 0.446211
vt 0.587502 0.500905
vt 0.501558 0.665186
vt 0.475328 0.670746
vt 0.488643 0.557008
vt 0.510735 0.559631
vt 0.511941 0.673778
vt 0.564254 0.668997
vt 0.571052 0.562343
vt 0.526391 0.557600
vt 0.438845 0.555986
vt 0.438629 0.669967
vt 0.490638 0.863007
vt 0.465435 0.853431
vt 0.512914 0.866921
vt 0.550466 0.866819
vt 0.439943 0.863110
vt 0.464498 0.995689
vt 0.531103 0.999500
vt 0.645465 0.666359
vt 0.609423 0.665836
vt 0.609322 0.553240
vt 0.646303 0.558831
vt 0.644901 0.672566
vt 0.704038 0.670170
vt 0.704920 0.562643
vt 0.647846 0.566742
vt 0.574501 0.668755
vt 0.577814 0.562930
vt 0.641031 0.862073
vt 0.600000 0.859329
vt 0.641457 0.863412
vt 0.701931 0.862073
vt 0.568462 0.857695
vt 0.596238 0.994925
vt 0.667469 0.998524
vt 0.721119 0.672768
vt 0.757893 0.673412
vt 0.759085 0.544124
vt 0.727704 0.546469
vt 0.871675 0.666796
vt 0.802489 0.668417
vt 0.813164 0.548182
vt 0.871708 0.557439
vt 0.794309 0.670447
vt 0.792099 0.542839
vt 0.721696 0.854929
vt 0.760334 0.853734
vt 0.865583 0.855450
vt 0.803118 0.854637
vt 0.794191 0.855683
vt 0.759108 0.989579
vt 0.837549 0.987025
vt 0.740506 0.096989
vt 0.610236 0.179810
vt 0.572940 0.257297
vt 0.597908 0.334492
vt 0.594582 0.369084
vt 0.663706 0.377160
vt 0.574011 0.385040
vt 0.017354 0.698239
vt 0.077571 0.659930
vt 0.033577 0.712756
vt 0.065908 0.640817
vt 0.081021 0.683010
vt 0.049118 0.727721
vt 0.124151 0.041090
vt 0.200940 0.027137
vt 0.117444 0.009102
vt 0.180181 0.056209
vt 0.011554 0.832948
vt 0.034991 0.827342
vt 0.053450 0.820154
vt 0.064435 0.056501
vt 0.026347 0.032755
vt 0.055064 0.903823
vt 0.064933 0.894582
vt 0.079099 0.883106
vt 0.051025 0.114638
vt 0.016346 0.101972
vt 0.038659 0.129045
vt 0.925503 0.032906
vt 0.842451 0.072618
vt 0.512985 0.444113
vt 0.492284 0.459711
vt 0.475747 0.396794
vt 0.496448 0.381196
vt 0.533687 0.428515
vt 0.459209 0.333877
vt 0.776176 0.128462
vt 0.794023 0.113190
vt 0.625416 0.032217
vt 0.709746 0.071464
vt 0.073940 0.395267
vt 0.061035 0.456501
vt 0.037643 0.442369
vt 0.050548 0.381136
vt 0.086845 0.334034
vt 0.014250 0.428238
vt 0.758341 0.112725
vt 0.314099 0.254463
vt 0.355087 0.237392
vt 0.367313 0.312719
vt 0.317303 0.328713
vt 0.273111 0.271535
vt 0.272808 0.344687
vt 0.379539 0.388047
vt 0.326023 0.402942
vt 0.272506 0.417838
vt 0.488452 0.155869
vt 0.533191 0.147537
vt 0.533439 0.288026
vt 0.492907 0.267564
vt 0.443713 0.164201
vt 0.451461 0.249039
vt 0.399400 0.200796
vt 0.410174 0.281663
vt 0.419374 0.360962
vt 0.365347 0.092206
vt 0.403799 0.084931
vt 0.314748 0.129858
vt 0.274408 0.022325
vt 0.219709 0.401470
vt 0.228523 0.327334
vt 0.232299 0.253177
vt 0.166912 0.385102
vt 0.179200 0.309960
vt 0.191488 0.234818
vt 0.094962 0.247359
vt 0.053526 0.267631
vt 0.103079 0.160684
vt 0.058292 0.154110
vt 0.013878 0.287888
vt 0.013506 0.147537
vt 0.126878 0.359568
vt 0.136465 0.278653
vt 0.147283 0.197751
vt 0.273581 0.191382
vt 0.232948 0.128571
vt 0.143957 0.084931
vt 0.182552 0.090792
vt 0.367105 0.456462
vt 0.313805 0.452331
vt 0.272590 0.443412
vt 0.354671 0.524877
vt 0.313673 0.496932
vt 0.272674 0.468987
vt 0.398802 0.428704
vt 0.423478 0.492294
vt 0.231623 0.490320
vt 0.231938 0.449947
vt 0.190573 0.511653
vt 0.178742 0.448377
vt 0.125804 0.484077
vt 0.146958 0.422338
vt 0.314405 0.528232
vt 0.274139 0.531587
vt 0.232356 0.521620
vt 0.273793 0.512119

vn 0.548426 0.786132 -0.285002
vn 0.614308 0.557070 -0.558837
vn 0.229563 0.741535 0.630418
vn 0.532857 0.761424 0.369184
vn 0.642419 0.501802 -0.579217
vn 0.853883 -0.183462 -0.487058
vn 0.870752 0.354691 0.340566
vn 0.865005 0.223348 0.449312
vn 0.837137 -0.458623 0.298105
vn -0.681631 -0.722376 0.116414
vn 0.834164 -0.301667 0.461701
vn 0.850219 -0.343648 -0.398791
vn 0.878950 -0.058764 -0.473280
vn 0.596353 0.081241 -0.798601
vn -0.817738 -0.086914 -0.568990
vn -0.956900 -0.087429 -0.276946
vn -0.190510 -0.416715 0.888850
vn 0.070927 -0.127976 0.989238
vn 0.533425 0.814969 -0.226459
vn -0.763202 -0.121550 -0.634625
vn -0.698458 0.498995 -0.512992
vn -0.176148 -0.565243 0.805898
vn 0.730913 -0.625138 -0.273804
vn -0.618701 -0.157272 -0.769724
vn -0.860644 0.448193 -0.241690
vn 0.861173 -0.485873 0.149360
vn 0.797511 -0.437110 -0.415827
vn -0.936732 0.262519 0.231554
vn -0.548984 0.407659 0.729679
vn -0.667790 0.610972 -0.425169
vn -0.580533 -0.116169 -0.805907
vn 0.672293 -0.672615 -0.309212
vn 0.741220 -0.635151 0.217200
vn 0.467065 0.335443 0.818125
vn -0.262157 0.718654 0.644057
vn 0.273236 0.534816 -0.799571
vn -0.762872 -0.642369 0.073408
vn 0.792197 0.216694 0.570498
vn -0.645840 0.085313 -0.758691
vn -0.734761 0.343396 -0.584984
vn 0.830709 -0.553578 -0.058938
vn 0.775493 -0.575794 0.258983
vn -0.530498 0.541732 0.651996
vn -0.891171 0.418872 -0.174244
vn -0.054350 0.540725 -0.839442
vn -0.243879 0.081509 -0.966374
vn 0.292155 -0.954565 0.058740
vn 0.202179 -0.916820 0.344331
vn -0.040337 0.830513 0.555536
vn 0.021959 0.761407 0.647902
vn 0.446129 -0.041890 -0.893988
vn -0.929212 -0.078578 0.361097
vn 0.857171 -0.013236 0.514861
vn -0.485003 0.132325 -0.864443
vn -0.520348 0.174510 0.835933
vn 0.929454 -0.346612 0.126396
vn 0.910105 -0.362847 0.200127
vn -0.441929 0.070044 0.894311
vn -0.717171 0.084922 -0.691703
vn -0.398406 0.761003 -0.512003
vn -0.310003 0.555213 -0.771775
vn 0.713322 -0.343853 -0.610686
vn 0.322994 -0.928626 -0.182559
vn -0.169757 -0.051620 0.984133
vn -0.424188 0.097991 0.900257
vn 0.468684 0.824965 -0.315861
vn -0.162997 -0.574920 -0.801810
vn 0.065704 -0.000338 0.997839
vn 0.370681 0.700529 -0.609799
vn 0.954676 0.277294 0.108178
vn 0.793847 -0.182523 0.580079
vn 0.133767 -0.974417 -0.180606
vn -0.006047 -0.999385 -0.034543
vn -0.559736 -0.793823 0.237785
vn 0.041305 -0.914695 0.402029
vn -0.109713 -0.988061 -0.108162
vn -0.469768 -0.809075 -0.353152
vn 0.953497 0.164460 -0.252578
vn -0.989049 -0.123344 -0.081047
vn 0.954191 0.166637 -0.248497
vn 0.956467 0.186403 -0.224555
vn 0.263844 -0.153800 -0.952225
vn -0.249252 -0.932765 -0.260427
vn 0.895250 -0.413818 -0.165175
vn 0.253055 0.964029 -0.081311
vn 0.530951 0.745623 0.402663
vn -0.811168 -0.236909 -0.534679
vn -0.953455 0.097535 -0.285325
vn 0.735611 -0.612086 0.290219
vn 0.727861 -0.620080 0.292779
vn 0.589800 0.648931 -0.480650
vn 0.458218 0.665533 -0.589153
vn -0.993628 -0.107980 -0.032310
vn -0.996473 -0.074737 -0.038169
vn 0.531580 -0.581877 0.615502
vn 0.646451 -0.552413 0.526252
vn 0.078899 0.430909 -0.898940
vn 0.416542 0.300927 -0.857867
vn -0.719915 0.290918 0.630150
vn -0.662160 0.517411 0.542062
vn 0.364802 -0.916051 0.166642
vn 0.334388 -0.897614 0.287182
vn -0.370633 -0.623930 -0.687999
vn -0.552690 0.786426 -0.275806
vn -0.623066 0.556913 -0.549215
vn -0.228983 0.741204 0.631018
vn -0.527031 0.762018 0.376254
vn -0.637294 0.530178 -0.559257
vn -0.863067 -0.257612 -0.434455
vn -0.804717 0.384060 0.452690
vn -0.807993 0.372488 0.456509
vn -0.891749 -0.444488 0.084941
vn 0.653541 -0.736883 0.172881
vn -0.827553 -0.306439 0.470373
vn -0.889426 -0.279542 -0.361633
vn -0.879177 -0.143009 -0.454529
vn -0.069736 0.311014 -0.947844
vn 0.825227 -0.126912 -0.550357
vn 0.911107 -0.118994 -0.394619
vn 0.063458 -0.260333 0.963431
vn -0.053772 -0.126421 0.990518
vn -0.534017 0.814333 -0.227350
vn 0.812771 -0.136346 -0.566404
vn 0.720889 0.535080 -0.440464
vn 0.057756 -0.666719 0.743068
vn -0.735384 -0.624528 -0.263010
vn 0.917516 0.089895 -0.387406
vn 0.876404 0.435642 -0.205262
vn -0.790499 -0.605308 -0.093350
vn -0.685907 -0.591361 -0.424056
vn -0.609254 0.303758 0.732490
vn 0.418837 0.583857 0.695476
vn 0.172716 0.714343 -0.678147
vn 0.549149 0.130359 -0.825495
vn -0.050567 -0.997732 -0.044435
vn -0.106570 -0.918133 0.381674
vn -0.507536 0.525299 0.682985
vn -0.324913 0.801937 0.501327
vn -0.288826 0.324530 -0.900700
vn 0.877199 -0.329082 0.349609
vn -0.936205 -0.014080 0.351173
vn 0.507487 -0.153981 -0.847789
vn 0.877252 0.064644 -0.475658
vn -0.973299 -0.110045 0.201445
vn -0.818477 -0.165581 0.550162
vn 0.667685 0.203416 0.716113
vn 0.355696 -0.150171 -0.922458
vn 0.362802 0.673163 -0.644381
vn 0.208594 0.143685 -0.967390
vn -0.769711 -0.595426 0.230246
vn -0.693015 -0.625977 0.357609
vn 0.305589 0.350038 0.885488
vn 0.489850 0.456674 0.742628
vn -0.685692 0.608526 -0.399403
vn 0.584486 -0.720391 -0.373381
vn -0.180626 0.201419 0.962707
vn 0.254640 0.289549 -0.922670
vn 0.322633 0.356407 -0.876859
vn -0.729446 -0.580939 0.361134
vn -0.786786 -0.558000 0.263827
vn 0.659201 0.271335 0.701307
vn 0.823727 0.295817 -0.483700
vn -0.135816 0.808715 -0.572306
vn -0.120507 0.582247 -0.804031
vn -0.443361 -0.772051 -0.455377
vn 0.252185 -0.964506 -0.078298
vn 0.193458 0.079930 0.977847
vn 0.352818 0.470171 0.808986
vn -0.982379 0.059073 -0.177321
vn 0.510295 -0.274842 -0.814899
vn 0.179745 0.071608 0.981104
vn -0.371721 0.707778 -0.600728
vn -0.952819 0.277838 0.122241
vn -0.769284 -0.086478 0.633027
vn -0.361393 -0.784247 -0.504333
vn -0.033107 -0.990836 -0.130949
vn 0.597875 -0.769419 0.224809
vn -0.203590 -0.545119 0.813263
vn 0.115746 -0.984826 -0.129305
vn 0.445988 -0.822180 -0.353717
vn -0.956839 0.166727 -0.238035
vn 0.138256 -0.151090 0.978804
vn -0.953946 0.157380 -0.255381
vn -0.964625 0.068906 -0.254461
vn -0.278439 -0.153846 -0.948052
vn 0.245190 -0.932638 -0.264706
vn -0.909629 -0.400923 -0.108789
vn -0.254791 0.963820 -0.078306
vn -0.526876 0.741459 0.415500
vn 0.812262 -0.223768 -0.538664
vn 0.949388 0.097954 -0.298441
vn -0.725363 -0.610201 0.318595
vn -0.736720 -0.598172 0.315331
vn -0.593017 0.649692 -0.475638
vn -0.467016 0.665475 -0.582270
vn 0.994057 -0.102564 -0.036499
vn 0.995330 -0.088260 -0.039101
vn -0.522294 -0.581963 0.623320
vn -0.621490 -0.557849 0.550050
vn -0.113573 0.432524 -0.894441
vn -0.430497 0.312886 -0.846625
vn 0.722213 0.188839 0.665393
vn 0.649797 0.527477 0.547294
vn -0.355324 -0.915798 0.187239
vn -0.326777 -0.900432 0.287122
vn 0.301649 -0.668974 -0.679324
vn 0.452705 -0.242521 0.858045
vn 0.917685 0.346972 0.193560
vn 0.855054 0.496175 0.150644
vn 0.407437 -0.751143 -0.519403
vn 0.429258 -0.200834 -0.880570
vn 0.103330 -0.492633 -0.864081
vn 0.443554 -0.208910 -0.871560
vn -0.181228 0.972004 -0.149549
vn -0.439790 -0.245046 0.864024
vn -0.928740 0.345094 0.135471
vn -0.902102 0.420202 0.098195
vn -0.160260 -0.542569 -0.824582
vn -0.211719 -0.413941 -0.885340
vn -0.410102 -0.627059 -0.662279
vn -0.110268 -0.491312 -0.863975
vn 0.174495 0.973461 -0.148072
vn 0.563752 0.824693 0.045447
vn 0.416422 0.909162 0.004202
vn 0.514021 0.847125 -0.134769
vn 0.477996 0.870573 -0.116718
vn 0.209203 -0.975645 -0.065961
vn 0.396597 -0.896256 0.198583
vn 0.036011 -0.971042 -0.236180
vn 0.178532 -0.983223 -0.037390
vn 0.975346 0.106209 0.193441
vn 0.924240 0.257077 0.282299
vn 0.987973 0.076032 -0.134642
vn 0.985386 0.152562 -0.075763
vn 0.546145 -0.194967 0.814686
vn 0.184126 -0.568262 0.801982
vn 0.724422 0.204473 0.658334
vn 0.279864 -0.087083 0.956082
vn -0.486627 0.866533 -0.110971
vn -0.424201 0.905524 0.008867
vn -0.522666 0.842782 -0.128602
vn -0.570752 0.819362 0.053737
vn -0.170723 -0.984686 -0.035313
vn -0.385398 -0.900492 0.201453
vn -0.030673 -0.971319 -0.235794
vn -0.201794 -0.977366 -0.063517
vn -0.987460 0.144299 -0.064034
vn -0.923058 0.249275 0.292961
vn -0.990106 0.067748 -0.122882
vn -0.973715 0.097293 0.205945
vn 0.000513 0.774778 0.632234
vn 0.365838 0.695371 0.618565
vn -0.365305 0.692007 0.622639
vn 0.002354 0.586902 0.809654
vn -0.265704 -0.088147 0.960016
vn -0.169465 -0.570068 0.803930
vn -0.718092 0.199524 0.666734
vn -0.533571 -0.200007 0.821766
vn 0.447393 0.607986 -0.655890
vn 0.463703 0.698521 -0.545021
vn 0.481717 0.598135 -0.640455
vn 0.619376 0.578606 -0.530649
vn 0.658268 -0.044310 -0.751479
vn 0.739421 0.077625 -0.668754
vn 0.697308 -0.173336 -0.695497
vn 0.732402 -0.013187 -0.680744
vn -0.630459 0.573369 -0.523230
vn -0.475984 0.694580 -0.539442
vn -0.494351 0.593553 -0.635068
vn -0.460237 0.604182 -0.650496
vn -0.743172 -0.007993 -0.669053
vn -0.747943 0.071396 -0.659912
vn -0.678521 -0.071870 -0.731057
vn -0.711808 0.000868 -0.702374
vn -0.007217 0.536366 -0.843955
vn 0.284480 0.537832 -0.793605
vn -0.297887 0.534968 -0.790615
vn -0.007206 0.461492 -0.887115

f 1/1/1 2/2/1 3/3/1
f 1/1/2 3/3/2 4/4/2
f 2/2/3 5/5/3 6/6/3
f 2/2/4 6/6/4 3/3/4
f 4/4/5 3/3/5 7/7/5
f 7/7/6 3/3/6 8/8/6
f 8/8/7 6/6/7 9/9/7
f 8/8/8 3/3/8 6/6/8
f 10/10/9 8/8/9 9/9/9
f 11/11/10 12/12/10 10/10/10
f 9/9/11 13/13/11 11/11/11
f 14/14/12 8/8/12 15/15/12
f 8/8/13 14/14/13 7/7/13
f 16/16/14 15/15/14 8/8/14
f 17/17/15 4/18/15 18/19/15
f 4/18/16 17/17/16 19/20/16
f 20/21/17 19/22/17 17/23/17
f 19/22/18 20/21/18 21/24/18
f 7/25/19 18/19/19 4/18/19
f 17/17/20 18/19/20 22/26/20
f 22/26/21 23/27/21 17/17/21
f 17/23/22 23/28/22 20/21/22
f 20/29/23 23/27/23 22/26/23
f 24/30/24 14/31/24 25/32/24
f 14/31/25 24/30/25 26/33/25
f 27/34/26 26/35/26 24/36/26
f 26/35/27 27/34/27 15/37/27
f 15/38/28 25/32/28 14/31/28
f 27/39/29 25/32/29 15/38/29
f 28/40/30 25/32/30 29/41/30
f 25/32/31 28/40/31 24/30/31
f 30/42/32 24/36/32 28/43/32
f 24/36/33 30/42/33 27/34/33
f 29/41/34 27/39/34 30/44/34
f 27/39/35 29/41/35 25/32/35
f 29/41/36 31/45/36 28/40/36
f 28/43/37 31/46/37 30/42/37
f 30/44/38 31/45/38 29/41/38
f 32/47/39 8/48/39 33/49/39
f 8/48/40 32/47/40 16/50/40
f 34/51/41 16/52/41 32/53/41
f 16/52/42 34/51/42 35/54/42
f 33/49/43 35/55/43 34/56/43
f 35/55/44 33/49/44 8/48/44
f 36/57/45 33/49/45 37/58/45
f 33/49/46 36/57/46 32/47/46
f 38/59/47 32/53/47 36/60/47
f 32/53/48 38/59/48 34/51/48
f 37/58/49 34/56/49 38/61/49
f 34/56/50 37/58/50 33/49/50
f 37/58/51 39/62/51 36/57/51
f 36/60/52 39/63/52 38/59/52
f 38/61/53 39/62/53 37/58/53
f 40/64/54 9/65/54 41/66/54
f 9/65/55 40/64/55 10/67/55
f 42/68/56 10/69/56 40/70/56
f 10/69/57 42/68/57 11/71/57
f 41/66/58 11/72/58 42/73/58
f 11/72/59 41/66/59 9/65/59
f 43/74/60 41/66/60 44/75/60
f 41/66/61 43/74/61 40/64/61
f 45/76/62 40/70/62 43/77/62
f 40/70/63 45/76/63 42/68/63
f 44/75/64 42/73/64 45/78/64
f 42/73/65 44/75/65 41/66/65
f 44/75/66 46/79/66 43/74/66
f 43/77/67 46/80/67 45/76/67
f 45/78/68 46/79/68 44/75/68
f 5/5/69 47/81/69 6/6/69
f 6/6/70 13/13/70 9/9/70
f 8/8/71 10/10/71 35/82/71
f 16/16/72 35/82/72 48/83/72
f 10/10/73 48/83/73 35/82/73
f 12/12/74 48/83/74 10/10/74
f 16/16/75 48/83/75 15/15/75
f 15/15/76 48/83/76 26/84/76
f 48/83/77 49/85/77 26/84/77
f 20/29/78 22/26/78 18/19/78
f 20/86/79 7/87/79 21/88/79
f 20/29/80 18/19/80 7/25/80
f 14/14/81 21/89/81 7/7/81
f 49/90/82 19/91/82 21/92/82
f 19/93/83 49/85/83 48/83/83
f 26/84/84 49/85/84 14/14/84
f 50/94/85 51/95/85 21/96/85
f 21/96/86 14/97/86 50/94/86
f 51/95/87 52/98/87 49/99/87
f 49/99/88 21/96/88 51/95/88
f 52/100/89 50/101/89 14/102/89
f 14/102/90 49/103/90 52/100/90
f 53/104/91 54/105/91 51/95/91
f 51/95/92 50/94/92 53/104/92
f 54/105/93 55/106/93 52/98/93
f 52/98/94 51/95/94 54/105/94
f 55/107/95 53/108/95 50/101/95
f 50/101/96 52/100/96 55/107/96
f 56/109/97 57/110/97 54/105/97
f 54/105/98 53/104/98 56/109/98
f 57/110/99 58/111/99 55/106/99
f 55/106/100 54/105/100 57/110/100
f 58/112/101 56/113/101 53/108/101
f 53/108/102 55/107/102 58/112/102
f 57/114/103 56/113/103 58/112/103
f 1/1/104 59/115/104 2/2/104
f 1/1/105 4/4/105 59/115/105
f 2/2/106 60/116/106 5/5/106
f 2/2/107 59/115/107 60/116/107
f 4/4/108 61/117/108 59/115/108
f 61/117/109 62/118/109 59/115/109
f 62/118/110 63/119/110 60/116/110
f 62/118/111 60/116/111 59/115/111
f 64/120/112 63/119/112 62/118/112
f 65/121/113 64/120/113 12/122/113
f 63/119/114 65/121/114 66/123/114
f 67/124/115 68/125/115 62/118/115
f 62/118/116 61/117/116 67/124/116
f 69/126/117 62/118/117 68/125/117
f 70/127/118 71/128/118 4/129/118
f 4/129/119 19/130/119 70/127/119
f 72/131/120 70/132/120 19/133/120
f 19/133/121 73/134/121 72/131/121
f 61/135/122 4/129/122 71/128/122
f 70/127/123 74/136/123 71/128/123
f 74/136/124 70/127/124 75/137/124
f 70/132/125 72/131/125 75/138/125
f 72/139/126 74/136/126 75/137/126
f 76/140/127 77/141/127 67/142/127
f 67/142/128 78/143/128 76/140/128
f 79/144/129 76/145/129 78/146/129
f 78/146/130 68/147/130 79/144/130
f 68/148/131 67/142/131 77/141/131
f 79/149/132 68/148/132 77/141/132
f 80/150/133 81/151/133 77/141/133
f 77/141/134 76/140/134 80/150/134
f 82/152/135 80/153/135 76/145/135
f 76/145/136 79/144/136 82/152/136
f 81/151/137 82/154/137 79/149/137
f 79/149/138 77/141/138 81/151/138
f 81/151/139 80/150/139 83/155/139
f 80/153/140 82/152/140 83/156/140
f 82/154/141 81/151/141 83/155/141
f 84/157/142 85/158/142 62/159/142
f 62/159/143 69/160/143 84/157/143
f 86/161/144 84/162/144 69/163/144
f 69/163/145 87/164/145 86/161/145
f 85/158/146 86/165/146 87/166/146
f 87/166/147 62/159/147 85/158/147
f 88/167/148 89/168/148 85/158/148
f 85/158/149 84/157/149 88/167/149
f 90/169/150 88/170/150 84/162/150
f 84/162/151 86/161/151 90/169/151
f 89/168/152 90/171/152 86/165/152
f 86/165/153 85/158/153 89/168/153
f 89/168/154 88/167/154 91/172/154
f 88/170/155 90/169/155 91/173/155
f 90/171/156 89/168/156 91/172/156
f 92/174/157 93/175/157 63/176/157
f 63/176/158 64/177/158 92/174/158
f 94/178/159 92/179/159 64/180/159
f 64/180/160 65/181/160 94/178/160
f 93/175/161 94/182/161 65/183/161
f 65/183/162 63/176/162 93/175/162
f 95/184/163 96/185/163 93/175/163
f 93/175/164 92/174/164 95/184/164
f 97/186/165 95/187/165 92/179/165
f 92/179/166 94/178/166 97/186/166
f 96/185/167 97/188/167 94/182/167
f 94/182/168 93/175/168 96/185/168
f 96/185/169 95/184/169 98/189/169
f 95/187/170 97/186/170 98/190/170
f 97/188/171 96/185/171 98/189/171
f 5/5/172 60/116/172 99/191/172
f 60/116/173 63/119/173 66/123/173
f 62/118/174 87/192/174 64/120/174
f 69/126/175 48/193/175 87/192/175
f 64/120/176 87/192/176 48/193/176
f 12/122/177 64/120/177 48/193/177
f 69/126/178 68/125/178 48/193/178
f 68/125/179 78/194/179 48/193/179
f 48/193/180 78/194/180 100/195/180
f 72/139/181 71/128/181 74/136/181
f 72/86/182 73/88/182 61/87/182
f 72/139/183 61/135/183 71/128/183
f 67/124/184 61/117/184 73/196/184
f 100/195/185 73/196/185 19/197/185
f 19/197/186 48/193/186 100/195/186
f 78/194/187 67/124/187 100/195/187
f 101/198/188 73/199/188 102/200/188
f 73/199/189 101/198/189 67/201/189
f 102/200/190 100/202/190 103/203/190
f 100/202/191 102/200/191 73/199/191
f 103/204/192 67/205/192 101/206/192
f 67/205/193 103/204/193 100/207/193
f 104/208/194 102/200/194 105/209/194
f 102/200/195 104/208/195 101/198/195
f 105/209/196 103/203/196 106/210/196
f 103/203/197 105/209/197 102/200/197
f 106/211/198 101/206/198 104/212/198
f 101/206/199 106/211/199 103/204/199
f 107/213/200 105/209/200 108/214/200
f 105/209/201 107/213/201 104/208/201
f 108/214/202 106/210/202 109/215/202
f 106/210/203 108/214/203 105/209/203
f 109/216/204 104/212/204 107/217/204
f 104/212/205 109/216/205 106/211/205
f 108/218/206 109/216/206 107/217/206
f 13/13/207 110/219/207 11/11/207
f 110/219/207 12/12/207 11/11/207
f 47/81/208 111/220/208 6/6/208
f 111/220/209 13/13/209 6/6/209
f 110/221/210 13/222/210 112/223/210
f 112/223/211 113/224/211 110/221/211
f 12/225/212 110/221/212 113/224/212
f 113/224/213 112/223/213 114/226/213
f 115/227/214 116/228/214 5/5/214
f 116/228/214 47/81/214 5/5/214
f 12/122/215 117/229/215 65/121/215
f 117/229/215 66/123/215 65/121/215
f 66/123/216 118/230/216 60/116/216
f 118/230/217 99/191/217 60/116/217
f 119/231/218 66/232/218 117/233/218
f 117/233/219 120/234/219 119/231/219
f 121/235/220 119/231/220 120/234/220
f 120/234/221 117/233/221 12/236/221
f 99/191/222 122/237/222 5/5/222
f 122/237/222 115/227/222 5/5/222
f 123/238/223 124/239/223 125/240/223 126/241/223
f 127/242/224 123/238/224 126/241/224 128/243/224
f 126/241/225 125/240/225 129/244/225 130/245/225
f 128/243/226 126/241/226 130/245/226 131/246/226
f 132/247/227 133/248/227 134/249/227 135/250/227
f 136/251/228 132/247/228 135/250/228 137/252/228
f 135/250/229 134/249/229 12/225/229 113/224/229
f 137/252/230 135/250/230 113/224/230 114/226/230
f 138/253/231 136/251/231 137/252/231 139/254/231
f 124/239/232 138/253/232 139/254/232 125/240/232
f 139/254/233 137/252/233 114/226/233 140/255/233
f 125/240/234 139/254/234 140/255/234 129/244/234
f 132/247/235 136/251/235 138/253/235 141/256/235
f 133/248/236 132/247/236 141/256/236 142/257/236
f 141/256/237 138/253/237 124/239/237 143/258/237
f 142/257/238 141/256/238 143/258/238 144/259/238
f 128/243/239 131/246/239 145/260/239 146/261/239
f 127/242/240 128/243/240 146/261/240 147/262/240
f 146/261/241 145/260/241 148/263/241 149/264/241
f 147/262/242 146/261/242 149/264/242 150/265/242
f 151/266/243 121/235/243 120/234/243 152/267/243
f 153/268/244 151/266/244 152/267/244 154/269/244
f 152/267/245 120/234/245 12/236/245 134/270/245
f 154/269/246 152/267/246 134/270/246 133/271/246
f 149/264/247 148/263/247 155/272/247 156/273/247
f 150/265/248 149/264/248 156/273/248 157/274/248
f 156/273/249 155/272/249 121/235/249 151/266/249
f 157/274/250 156/273/250 151/266/250 153/268/250
f 123/238/251 127/242/251 147/262/251 158/275/251
f 124/239/252 123/238/252 158/275/252 143/258/252
f 158/275/253 147/262/253 150/265/253 159/276/253
f 143/258/254 158/275/254 159/276/254 144/259/254
f 142/277/255 144/259/255 159/276/255 160/278/255
f 133/271/256 142/277/256 160/278/256 154/269/256
f 160/278/257 159/276/257 150/265/257 157/274/257
f 154/269/258 160/278/258 157/274/258 153/268/258
f 130/245/259 129/244/259 161/279/259 162/280/259
f 131/246/260 130/245/260 162/280/260 163/281/260
f 162/280/261 161/279/261 47/282/261 164/283/261
f 163/281/262 162/280/262 164/283/262 165/284/262
f 140/255/263 114/226/263 112/223/263 166/285/263
f 129/244/264 140/255/264 166/285/264 161/279/264
f 166/285/265 112/223/265 13/222/265 111/286/265
f 161/279/266 166/285/266 111/286/266 47/282/266
f 163/281/267 165/284/267 167/287/267 168/288/267
f 131/246/268 163/281/268 168/288/268 145/260/268
f 168/288/269 167/287/269 99/289/269 169/290/269
f 145/260/270 168/288/270 169/290/270 148/263/270
f 169/290/271 99/289/271 118/291/271 170/292/271
f 148/263/272 169/290/272 170/292/272 155/272/272
f 170/292/273 118/291/273 66/232/273 119/231/273
f 155/272/274 170/292/274 119/231/274 121/235/274
f 116/293/275 115/294/275 122/295/275 171/296/275
f 47/282/276 116/293/276 171/296/276 164/283/276
f 171/296/277 122/295/277 99/289/277 167/287/277
f 164/283/278 171/296/278 167/287/278 165/284/278

