mtllib anim_barb_attack_axeonly_000074.mtl

o fat
usemtl axe.001
s off

v 1.348800 18.390921 46.552311
v 0.884370 21.163658 39.790871
v -0.371510 10.874129 42.865051
v -0.433600 13.408060 40.684399
v -0.591950 9.482240 41.253922
v -0.654040 12.016161 39.073280
v -0.486570 6.802100 33.138309
v -0.264280 13.910910 31.395851
v 1.469870 13.450140 50.804237
v -0.365510 1.861330 37.390259
v 1.247580 6.341340 52.546711
v -0.309420 8.340200 45.045700
v -0.529860 6.948310 43.434582
v 0.098920 -0.911410 44.151688
v 1.513160 13.303940 40.507980
v 1.575250 10.770010 42.688633
v 1.292720 11.912040 38.896870
v 1.354810 9.378119 41.077507
v 1.637340 8.236100 44.869278
v 1.416900 6.844190 43.258171
v -1.053200 38.693588 18.924089
v -1.273650 37.301701 17.312969
v 0.673120 37.197578 17.136559
v -1.448480 42.631489 19.751080
v 0.684490 2.256160 48.744041
v -1.918550 63.665318 -5.375550
v -0.070350 63.562798 -5.611710
v 0.248630 64.953072 -3.940790
v -1.698140 65.057228 -3.764450

vt 0.033358 0.643728
vt 0.190411 0.923560
vt 0.402692 0.503812
vt 0.402692 0.647326
vt 0.408249 0.287497
vt 0.408249 0.367848
vt 0.492649 0.287497
vt 0.492649 0.367848
vt 0.403043 0.503812
vt 0.403044 0.647326
vt 0.033710 0.643728
vt 0.190763 0.923560
vt 0.033358 0.363896
vt 0.033710 0.363896
vt 0.190411 0.084064
vt 0.402692 0.360297
vt 0.408249 0.207147
vt 0.492649 0.207147
vt 0.403043 0.360297
vt 0.190763 0.084064
vt 0.408248 1.036942
vt 0.492649 1.036942
vt 0.483600 0.371280
vt 0.402049 0.371280
vt 0.402049 1.040375
vt 0.483600 1.040375
vt 0.450449 0.037941
vt 0.483600 0.210579
vt 0.402049 0.210579
vt 0.442825 0.041374
vt 0.000000 1.000000

vn -0.978367 0.158968 0.132392
vn -0.949994 0.189992 0.247821
vn -0.994509 0.053188 0.090123
vn -0.999607 -0.027771 -0.003808
vn -0.998752 0.020014 -0.045764
vn -0.974093 0.133329 0.182666
vn -0.970790 0.085322 0.224246
vn -0.993710 -0.086037 -0.071679
vn -0.997488 -0.053295 0.046660
vn 0.993710 0.086038 0.071683
vn 0.997488 0.053295 -0.046660
vn 0.994509 -0.053189 -0.090124
vn 0.970791 -0.085322 -0.224245
vn 0.974093 -0.133328 -0.182666
vn 0.999607 0.027771 0.003808
vn 0.998752 -0.020013 0.045764
vn 0.978367 -0.158969 -0.132392
vn 0.949994 -0.189991 -0.247820
vn -0.095015 -0.097986 -0.990642
vn 0.073709 0.967352 0.242479
vn 0.095013 0.097985 0.990642
vn -0.073706 -0.967353 -0.242480
vn 0.939075 0.256646 0.228627
vn 0.104217 0.581551 0.806807
vn -0.993890 -0.084972 -0.070438
vn -0.102983 -0.650274 -0.752688
vn -0.982482 -0.051659 0.179055
vn 0.987595 -0.157022 0.000528
vn -0.099028 -0.756771 -0.646136
vn 0.104609 0.529008 0.842145
vn -0.117020 -0.650064 -0.750815
vn -0.899209 0.311815 0.306911
vn 0.973525 0.147498 0.174625
vn -0.994511 0.053209 0.090097
vn -0.016555 0.770156 -0.637640
vn -0.040963 0.758837 -0.649991

f 1/1/1 2/2/1 3/3/1
f 4/4/2 3/3/2 2/2/2
f 3/5/3 4/6/3 5/7/3
f 6/8/3 5/7/3 4/6/3
f 5/9/4 6/10/4 7/11/4
f 8/12/5 7/11/5 6/10/5
f 9/13/6 1/1/6 3/3/6
f 7/11/4 10/14/4 5/9/4
f 11/15/7 9/13/7 12/16/7
f 3/3/6 12/16/6 9/13/6
f 12/17/3 3/5/3 13/18/3
f 5/7/3 13/18/3 3/5/3
f 13/19/8 5/9/8 14/20/8
f 10/14/9 14/20/9 5/9/9
f 15/4/10 2/2/10 16/3/10
f 1/1/11 16/3/11 2/2/11
f 17/8/12 15/6/12 18/7/12
f 16/5/12 18/7/12 15/6/12
f 8/12/13 17/10/13 7/11/13
f 18/9/14 7/11/14 17/10/14
f 16/3/15 1/1/15 9/13/15
f 7/11/14 18/9/14 10/14/14
f 16/3/15 9/13/15 19/16/15
f 11/15/16 19/16/16 9/13/16
f 18/7/12 16/5/12 20/18/12
f 19/17/12 20/18/12 16/5/12
f 10/14/17 18/9/17 14/20/17
f 20/19/18 14/20/18 18/9/18
f 4/4/19 2/2/19 15/4/19
f 17/10/20 8/12/20 6/10/20
f 13/19/21 14/20/21 20/19/21
f 19/16/22 11/15/22 12/16/22
f 6/8/3 4/6/3 21/21/3
f 21/21/3 22/22/3 6/8/3
f 15/6/12 17/8/12 23/22/12
f 23/22/23 24/21/23 15/6/23
f 4/23/24 15/24/24 24/25/24
f 24/25/25 21/26/25 4/23/25
f 17/24/26 6/23/26 22/26/26
f 22/26/26 23/25/26 17/24/26
f 12/17/27 13/18/27 25/27/27
f 20/18/28 19/17/28 25/27/28
f 13/28/29 20/29/29 25/30/29
f 19/29/30 12/28/30 25/30/30
f 23/22/31 22/21/31 26/22/31 27/31/31
f 21/21/32 24/22/32 28/21/32 29/31/32
f 24/21/33 23/22/33 27/21/33 28/31/33
f 22/22/34 21/21/34 29/22/34 26/31/34
f 28/21/35 27/22/35 29/21/35
f 26/22/36 29/21/36 27/22/36

