mtllib anim_skel_walk_sword_000005.mtl

o msked
usemtl shield.001
s off

v -7.321170 30.482960 -7.225320
v -8.677720 30.198780 -6.802860
v -9.533880 24.074919 13.164160
v -8.161970 29.135399 -7.662210
v -6.695730 28.971930 -6.957490
v -8.192410 30.096050 -7.431930
v -11.740820 31.984428 -6.233640
v -6.788220 31.648170 -11.729899
v -7.779770 31.327009 -11.909560
v -7.650230 30.311890 -12.176690
v -3.693940 27.003410 -6.861420
v -7.071300 29.402088 -7.519400
v -6.658669 30.633039 -11.997030

vt 0.856301 0.265607
vt 0.764624 0.294094
vt 0.850192 0.976825
vt 0.858158 0.265976
vt 0.949099 0.282658
vt 0.742843 0.255302
vt 0.692067 0.254404
vt 0.541488 0.402851
vt 0.893183 0.241135
vt 0.851577 0.242328
vt 0.847036 0.027305
vt 0.893183 0.027305
vt 0.742053 0.256467
vt 0.849952 0.242815
vt 0.544321 0.402080
vt 0.692550 0.250793
vt 0.800888 0.241135
vt 0.800888 0.027305
vt 0.697126 0.324563
vt 0.698569 0.321089

vn -0.109920 0.951564 0.287131
vn -0.930952 -0.335989 -0.142966
vn 0.885871 0.406357 0.223847
vn 0.004992 -0.971789 -0.235801
vn -0.020973 0.507283 -0.861524
vn -0.434230 0.883223 0.177090
vn -0.336500 0.915465 0.220663
vn -0.203794 0.222103 -0.953487
vn -0.988516 -0.095285 -0.117290
vn -0.993504 -0.004221 -0.113718
vn 0.088509 0.264037 -0.960443
vn 0.398192 0.325397 -0.857648
vn 0.970256 0.180377 0.161453
vn 0.988515 0.095292 0.117292
vn 0.145410 -0.066048 -0.987164
vn 0.336489 -0.915468 -0.220664
vn 0.258513 -0.941535 -0.216063
vn -0.270599 -0.681076 0.680376
vn -0.404115 -0.581786 0.705844
vn 0.264971 0.150939 0.952369
vn 0.112089 0.218232 0.969438

f 1/1/1 2/2/1 3/3/1
f 3/3/2 2/2/2 4/4/2
f 1/1/3 3/3/3 5/5/3
f 3/3/4 4/4/4 5/5/4
f 1/6/5 6/7/5 7/8/5
f 6/9/6 1/10/6 8/11/6
f 8/11/7 9/12/7 6/9/7
f 7/8/8 6/7/8 4/13/8
f 6/9/9 9/12/9 10/11/9
f 10/11/10 4/14/10 6/9/10
f 9/12/11 8/11/11 10/11/11
f 1/6/12 11/15/12 12/16/12
f 8/11/13 1/10/13 12/17/13
f 8/11/14 12/17/14 13/18/14
f 11/15/15 4/13/15 12/16/15
f 12/17/16 10/11/16 13/18/16
f 10/11/17 12/17/17 4/14/17
f 13/18/11 10/11/11 8/11/11
f 4/13/18 2/19/18 7/8/18
f 11/15/19 5/20/19 4/13/19
f 2/19/20 1/6/20 7/8/20
f 1/6/21 5/20/21 11/15/21

