mtllib anim_barb_run_000034.mtl

o fat
usemtl fat.001
s off

v -0.172580 40.952858 -3.225600
v 1.860240 36.144421 6.136090
v 0.305890 41.693977 1.301280
v 0.410170 62.840862 -7.899920
v 9.238780 68.498932 -7.199750
v 2.812830 59.036972 -6.939790
v -0.362600 54.759171 -4.953550
v 8.069040 64.800842 -3.583220
v 7.721230 60.610790 -1.046780
v 6.919220 54.835457 -0.848420
v 4.142630 54.646111 -4.975850
v 6.456670 59.813980 -6.089740
v 9.015890 42.082462 4.310690
v 9.346760 40.673069 -1.501170
v 10.506170 40.357250 -1.691750
v 6.553610 43.898384 3.175590
v 3.993900 39.020859 7.078090
v 3.751200 35.357773 -1.721840
v 3.571370 38.964478 -4.186860
v 0.288450 39.221138 -2.892990
v -0.375710 39.296471 -3.595680
v 0.201120 68.493965 -7.609250
v 0.170300 70.486610 -7.646900
v 0.086260 61.789341 6.063440
v 5.110800 61.830540 3.995700
v 6.100590 66.016068 4.757240
v 8.947170 65.718750 2.284460
v 5.942710 68.818146 4.707050
v 11.325320 69.035866 0.428560
v 4.497020 54.903751 4.054050
v 1.102870 54.633270 5.311190
v 0.545700 68.725296 6.254990
v 4.781570 73.241241 -5.062440
v 10.987480 70.298027 -6.450220
v 11.651289 70.749405 -2.709660
v 2.815750 73.329941 3.671320
v 5.538990 74.454170 -0.727330
v 0.063300 72.509293 4.317620
v 2.663080 78.830254 0.711310
v 3.333820 76.457794 -2.513180
v 0.305770 76.600471 -3.417490
v 0.176410 79.484398 -0.532640
v 0.241720 74.531853 -5.226180
v 0.489180 50.306431 5.633000
v 5.364230 50.301262 5.032280
v 8.418850 49.949509 -0.145200
v 4.991530 49.355431 -5.333580
v -0.188040 49.269798 -6.038870
v 11.791039 67.446609 -0.093780
v 9.881140 66.704041 -7.582440
v 13.352840 67.700867 -2.723010
v 12.486160 68.868187 -5.896060
v 8.847310 64.903244 0.798860
v 2.581520 78.271271 6.199550
v 1.180830 76.756310 7.934610
v 2.799040 73.920906 4.808280
v 1.639600 72.852669 6.831620
v 0.698310 75.387718 7.879180
v 1.643460 78.726379 7.735360
v -0.144470 78.596588 8.001181
v 3.177320 79.605774 3.490160
v 0.535690 82.595367 8.120910
v -0.763210 82.545975 8.390600
v 1.701340 79.997627 8.359070
v 2.256590 81.858185 7.338540
v 1.223440 83.936890 5.412950
v -0.414440 83.932045 5.217900
v 0.269850 76.762787 8.458660
v -0.765430 79.342590 8.287920
v -0.900690 77.317871 9.461270
v -0.835060 76.733864 8.831680
v -0.843340 75.151436 8.847480
v 0.535200 72.389343 8.418270
v -0.861440 72.363861 8.907750
v 3.025130 81.943726 3.517960
v 2.543030 83.185089 2.955930
v -0.045170 83.433067 1.783120
v 13.606840 65.166946 -0.885010
v 14.136420 65.795021 -4.533210
v 9.065030 59.430809 -4.668770
v 10.688240 59.889889 -0.376850
v 10.595400 64.227325 -7.504590
v 11.617010 55.254890 -4.666100
v 12.957020 52.031349 -1.026160
v 11.256200 53.790798 -2.732560
v 14.656679 55.098549 -6.485370
v 15.914210 57.010311 -4.458130
v 14.595250 54.015816 -0.229900
v 15.484810 56.401146 -2.395020
v 13.620790 55.944473 0.130190
v 13.488670 54.439449 -1.852970
v 11.072500 56.110840 -0.758510
v 13.594970 57.901958 -6.577570
v 14.158310 56.677681 -6.616460
v 15.245890 62.293419 -4.557230
v 14.485800 61.730721 -1.169610
v 12.785430 56.136719 -1.544120
v 12.670799 60.392681 -7.565630
v 8.797290 50.819530 4.718340
v 7.340030 51.945210 4.267970
v 9.754950 51.682640 5.597010
v 9.086160 53.442001 5.771130
v 7.646240 53.870930 5.071030
v 4.255130 54.717350 8.935960
v 4.117580 53.815262 8.807270
v 5.272980 53.428223 8.317890
v 6.059360 53.990078 8.320910
v 6.565290 53.022659 9.618510
v 4.882770 54.475281 6.553380
v 5.410430 54.607658 7.840040
v 3.427970 54.608269 8.218700
v 3.244840 54.356682 9.943870
v 2.696290 54.238148 9.314890
v 5.090490 52.385841 11.170950
v 6.695570 48.582382 7.603220
v 5.738620 47.992321 9.222600
v 4.259430 47.717190 11.729640
v 4.365260 52.733879 10.161600
v 6.458300 48.476521 9.822761
v 7.681290 49.052502 8.415211
v 2.903170 51.645908 12.776880
v 1.851210 35.935482 10.629730
v 4.290390 31.755430 4.512660
v 1.733550 30.112690 11.485180
v 7.670070 35.069801 10.507191
v 9.090830 30.055901 9.225940
v 3.965180 32.727322 8.332661
v 5.651590 34.745659 13.746060
v 5.746400 30.124121 14.198210
v 5.845340 37.176899 12.940450
v 6.298870 38.399670 10.258941
v 8.984480 35.306629 6.438320
v 6.889970 42.408901 7.221010
v 6.872300 20.274879 3.480520
v 7.711800 17.453970 2.672040
v 4.942560 19.344770 0.643180
v 5.245550 17.517960 5.420650
v 3.267340 19.978159 3.981320
v 2.686920 17.224430 2.406390
v 3.728830 14.997890 -1.700070
v 6.966681 15.193740 -1.543090
v 2.729080 11.690760 5.905340
v 8.899410 11.973420 6.360610
v 5.214810 12.286461 10.114690
v 7.587650 10.346630 9.971400
v 3.537250 9.917871 10.252251
v -9.390000 68.704445 -6.196680
v -1.882970 59.010311 -7.115250
v -5.892050 65.428589 -2.543270
v -7.302990 60.524590 -1.178700
v -4.956670 54.741787 -3.359800
v -6.374790 54.629486 1.356620
v -5.726590 59.743771 -6.410570
v -8.993441 40.594391 0.028610
v -7.150710 40.989563 5.306890
v -10.218010 40.218628 -0.300480
v -4.583690 39.984402 4.100390
v -4.886300 40.663151 -6.110030
v -4.565830 41.726372 -4.844080
v -1.056120 41.485474 -4.136540
v -4.868630 61.772270 3.929820
v -5.272660 65.941864 5.283490
v -10.266070 65.555290 3.367970
v -4.984820 68.743530 5.355880
v -10.320320 69.907623 2.563950
v -2.454760 54.516468 5.400980
v -11.268240 69.950798 -5.070230
v -4.990470 73.202141 -4.632280
v -11.538939 70.958603 -0.492410
v -2.668450 73.308601 3.575370
v -5.909850 74.541443 -0.594200
v -2.505460 78.843475 0.219640
v -2.798830 76.460831 -2.854070
v -3.837170 49.896999 5.886680
v -8.018590 49.433079 1.602160
v -5.666230 49.407791 -3.611080
v -11.551720 67.708168 1.772800
v -9.412670 65.712601 -6.104040
v -13.180420 68.631767 -0.692220
v -12.492109 67.116982 -3.962180
v -9.788970 65.532295 2.047220
v -2.612380 76.772072 7.524510
v -3.597380 78.296959 5.531520
v -3.288820 73.946121 4.337820
v -2.856860 72.871361 6.345480
v -2.140420 75.399506 7.572270
v -1.316860 78.601471 7.874450
v -3.005530 78.745697 7.232720
v -3.589360 79.633888 2.758580
v -1.974020 82.605789 7.849560
v -3.184930 80.017944 7.830791
v -3.493930 81.882095 6.716820
v -2.056070 83.950516 5.058410
v -1.834430 76.771538 8.231160
v -2.120930 72.400375 8.131090
v -3.427430 81.970528 2.820360
v -2.826160 83.207405 2.375430
v -12.766960 65.195030 1.183890
v -13.729530 65.105637 -2.460130
v -9.317740 60.427368 2.238380
v -8.718280 59.738689 -2.151840
v -10.276570 63.422951 -5.518910
v -12.103000 50.871929 1.913590
v -9.906040 54.892422 -0.980440
v -10.244350 52.994442 0.262830
v -12.971621 54.190678 -2.645080
v -14.315010 56.356449 -0.917530
v -12.556911 53.034340 3.804520
v -13.806961 56.098499 1.202100
v -10.554990 55.289577 4.140880
v -8.165990 55.318851 2.573840
v -11.646420 54.444160 1.975700
v -12.189780 57.025711 -3.317570
v -12.579830 55.814739 -3.051650
v -14.339741 61.517292 -1.970310
v -13.350730 61.658920 1.416960
v -10.759749 57.111622 1.456400
v -11.649500 59.403412 -4.776750
v -7.934670 48.260933 7.095800
v -6.212090 48.849148 6.435760
v -8.453350 49.000084 8.053960
v -7.298820 50.531849 8.316480
v -5.921510 50.659851 7.471710
v -2.137340 49.095951 10.615459
v -2.031770 50.075531 10.906130
v -3.373260 49.095848 10.255700
v -4.020950 49.929527 10.467390
v -4.634320 48.967140 11.726060
v -3.279820 50.412258 9.965780
v -2.928310 50.277229 8.595640
v -1.317580 49.724003 10.001699
v -1.061010 49.338440 11.731071
v -0.633390 49.162632 11.026300
v -3.239550 47.775620 12.999170
v -5.485920 44.067940 10.783670
v -6.383430 45.137657 9.403521
v -3.883910 43.003239 12.980360
v -2.538530 47.936710 11.873270
v -5.758380 44.564636 11.475240
v -6.912850 45.612686 10.307321
v -1.197760 46.185879 14.157220
v -3.705170 24.977789 -14.693319
v -1.079390 29.260799 -5.978310
v -1.021960 22.478590 -10.803890
v -8.445980 23.163929 -11.759109
v -7.014320 29.630831 -7.098450
v -3.643690 31.795580 -8.961540
v -4.848450 26.026909 -4.917050
v -4.840180 20.772741 -8.083700
v -4.815030 27.067562 -3.963130
v -4.652680 29.662970 -2.922970
v -8.554420 32.834450 -5.363820
v -4.818440 32.442688 1.214270
v -7.155490 10.660991 -17.157890
v -6.253940 13.554920 -16.359390
v -4.526560 12.937191 -18.511379
v -4.845820 10.553009 -14.538230
v -2.185040 10.574680 -17.177509
v -2.660120 13.223141 -15.896930
v -3.077320 9.337330 -21.603241
v -6.173920 9.389421 -21.588791
v -2.325040 4.594510 -15.200970
v -8.178200 4.208290 -15.367140
v -3.986820 2.664260 -12.314759
v -6.259140 0.815610 -13.227360
v -2.182190 0.612930 -13.304070

vt 0.550479 0.485338
vt 0.414517 0.485338
vt 0.489174 0.497239
vt 0.490853 0.675485
vt 0.356970 0.710738
vt 0.458986 0.602657
vt 0.458693 0.603155
vt 0.491001 0.506534
vt 0.357039 0.710738
vt 0.272881 0.708251
vt 0.307767 0.663467
vt 0.329118 0.504113
vt 0.420682 0.504388
vt 0.307693 0.663467
vt 0.420389 0.504181
vt 0.390374 0.619683
vt 0.389206 0.622726
vt 0.390855 0.620128
vt 0.309151 0.663075
vt 0.578845 0.971377
vt 0.529882 0.993867
vt 0.501054 0.950636
vt 0.597833 0.993868
vt 0.684209 0.993870
vt 0.691613 0.940228
vt 0.584242 0.936155
vt 0.602549 0.993867
vt 0.689094 0.993870
vt 0.694409 0.971380
vt 0.730001 0.975635
vt 0.490853 0.781888
vt 0.490853 0.820915
vt 0.240556 0.660920
vt 0.133663 0.660928
vt 0.131880 0.753091
vt 0.060606 0.782384
vt 0.055577 0.663688
vt 0.136145 0.808744
vt 0.060014 0.783494
vt 0.058190 0.859642
vt 0.160773 0.512959
vt 0.067037 0.515196
vt 0.240700 0.512959
vt 0.131877 0.752996
vt 0.240556 0.781375
vt 0.390182 0.870896
vt 0.298691 0.847983
vt 0.294173 0.886121
vt 0.181129 0.899551
vt 0.052544 0.886601
vt 0.145152 0.921474
vt 0.235241 0.891030
vt 0.142740 0.921054
vt 0.172936 0.966074
vt 0.456563 0.999059
vt 0.389917 0.922986
vt 0.429989 0.941889
vt 0.491140 0.942697
vt 0.490646 0.999330
vt 0.490853 0.898039
vt 0.701416 0.118225
vt 0.813217 0.120956
vt 0.790107 0.184348
vt 0.877923 0.002315
vt 0.872775 0.120438
vt 0.505869 0.118716
vt 0.564263 0.119120
vt 0.507564 0.183764
vt 0.697589 0.180917
vt 0.580429 0.182675
vt 0.710756 0.001536
vt 0.701372 0.182427
vt 0.812168 0.002315
vt 0.857243 0.184348
vt 0.697567 0.116528
vt 0.503935 0.000692
vt 0.561277 0.000692
vt 0.688827 -0.000098
vt 0.002866 0.854679
vt 0.027518 0.706813
vt 0.061197 0.782654
vt 0.055608 0.663958
vt 0.251604 0.781884
vt 0.357109 0.710738
vt 0.243886 0.876138
vt 0.247300 0.848527
vt -0.000514 0.880403
vt 0.006948 0.782948
vt 0.674684 0.829607
vt 0.705811 0.784366
vt 0.654033 0.662928
vt 0.703232 0.671848
vt 0.720473 0.730776
vt 0.697736 0.853617
vt 0.729837 0.853035
vt 0.623758 0.856571
vt 0.587609 0.811448
vt 0.658187 0.605708
vt 0.748523 0.593788
vt 0.716351 0.931575
vt 0.747491 0.935506
vt 0.695349 0.885675
vt 0.676247 0.904603
vt 0.649719 0.961956
vt 0.745560 1.001324
vt 0.725611 0.781438
vt 0.747491 0.878462
vt 0.747491 0.808438
vt 0.720379 0.731031
vt 0.747491 0.790807
vt 0.720762 0.730332
vt 0.748639 0.732530
vt 0.746944 0.628012
vt 0.703659 0.671442
vt 0.731857 0.666086
vt 0.747085 0.666819
vt 0.703186 0.671176
vt 0.611291 0.885598
vt 0.604148 0.909350
vt 0.550618 0.823662
vt 0.550618 0.934468
vt 0.625864 0.557513
vt 0.571978 0.557920
vt 0.578607 0.510287
vt 0.669444 0.510287
vt 0.756032 0.560223
vt 0.679695 0.557918
vt 0.877240 0.461159
vt 0.992418 0.461159
vt 0.944262 0.560223
vt 0.756457 0.510287
vt 0.806202 0.560223
vt 0.498275 0.560223
vt 0.875566 0.382888
vt 0.758260 0.308662
vt 0.875912 0.308662
vt 0.759996 0.360654
vt 0.669163 0.382888
vt 0.671223 0.308662
vt 0.584325 0.382888
vt 0.577057 0.308662
vt 0.498223 0.363687
vt 0.498247 0.308662
vt 0.992597 0.308662
vt 0.992439 0.363687
vt 0.759483 0.410364
vt 0.758924 0.382888
vt 0.665903 0.461159
vt 0.580075 0.461159
vt 0.498223 0.402657
vt 0.992438 0.402657
vt 0.760539 0.449273
vt 0.498220 0.461159
vt 0.875438 0.575163
vt 0.762705 0.196431
vt 0.858161 0.196355
vt 0.690657 0.196417
vt 0.588027 0.196417
vt 0.498144 0.196431
vt 0.991918 0.196431
vt 0.375723 0.009258
vt 0.380090 0.017573
vt 0.356438 0.030356
vt 0.342839 0.029458
vt 0.369327 0.043627
vt 0.316032 0.012201
vt 0.336848 0.019568
vt 0.249292 0.041099
vt 0.371147 0.002582
vt 0.416197 0.004791
vt 0.408124 0.000758
vt 0.128136 0.016613
vt 0.154876 0.002573
vt 0.119423 0.002194
vt 0.160447 0.001473
vt 0.065726 0.014292
vt 0.105093 0.028910
vt 0.000825 0.069213
vt 0.000703 0.039244
vt 0.249314 0.055441
vt 0.429228 0.045736
vt 0.102506 0.115410
vt 0.153549 0.117195
vt 0.189513 0.114692
vt 0.228429 0.109580
vt 0.194639 0.033982
vt 0.406548 0.108121
vt 0.355355 0.108206
vt 0.448349 0.035630
vt 0.498209 0.039288
vt 0.461840 0.047992
vt 0.483032 0.114221
vt 0.406174 0.120334
vt 0.355217 0.119080
vt 0.243215 0.037501
vt 0.249314 0.089732
vt 0.000703 0.095058
vt 0.249292 0.105039
vt 0.160984 0.032072
vt 0.413806 0.033644
vt 0.442212 0.108407
vt 0.443088 0.117732
vt 0.023914 0.327327
vt 0.104127 0.227894
vt 0.000784 0.227894
vt 0.216171 0.327327
vt 0.216985 0.228421
vt 0.105699 0.228145
vt 0.104981 0.327662
vt 0.217575 0.327327
vt 0.351490 0.301452
vt 0.217290 0.227894
vt 0.351571 0.227894
vt 0.352420 0.301452
vt 0.489174 0.227894
vt 0.352342 0.227894
vt 0.471690 0.333380
vt 0.351597 0.328057
vt 0.217345 0.328075
vt 0.352312 0.363299
vt 0.470864 0.334174
vt 0.352330 0.328057
vt 0.216660 0.380224
vt 0.216104 0.328075
vt 0.104983 0.328371
vt 0.217232 0.380224
vt 0.351611 0.363299
vt 0.351459 0.420971
vt 0.352499 0.420971
vt 0.351589 0.497239
vt 0.229465 0.497239
vt 0.352627 0.497239
vt 0.229583 0.497239
vt 0.133020 0.497239
vt 0.072972 0.497239
vt 0.025422 0.328212
vt 0.002386 0.497239
vt 0.216130 0.152222
vt 0.223982 0.125749
vt 0.105883 0.155747
vt 0.351732 0.147623
vt 0.223132 0.128232
vt 0.218721 0.149411
vt 0.469070 0.149411
vt 0.483427 0.127273
vt 0.352306 0.146326
vt 0.017963 0.152222
vt 0.104256 0.155747
vt 0.009616 0.131504
vt 0.104128 0.227914
vt 0.000790 0.227921
vt 0.216984 0.228396
vt 0.351571 0.227971
vt 0.217291 0.227882
vt 0.352342 0.227879
vt 0.489111 0.227891
vt 0.948232 0.041698
vt 0.989968 0.003451
vt 0.971575 0.059997
vt 0.909211 0.004273
vt 0.996004 0.120663
vt 0.925604 0.058708
vt 0.885225 0.122889
vt 0.516483 0.798440
vt 0.501430 0.685191
vt 0.597947 0.686709
vt 0.594444 0.793024
vt 0.950876 0.082499
vt 0.943924 0.157220
vt 0.507177 0.624822
vt 0.600053 0.622523
vt 0.901715 0.182549
vt 0.982420 0.184037
vt 0.730212 0.975635
vt 0.685579 0.991654
vt 0.692830 0.969164

vn -0.978390 -0.160979 0.129766
vn 0.167452 -0.140533 -0.975813
vn -0.144064 -0.326759 -0.934063
vn 0.822079 0.243360 0.514744
vn 0.825130 -0.133439 -0.548958
vn -0.014849 -0.411997 -0.911064
vn 0.279451 -0.320236 -0.905183
vn 0.929360 -0.321011 -0.182324
vn 0.263593 -0.204914 -0.942618
vn 0.888822 -0.431342 -0.154726
vn -0.223037 -0.950184 0.217725
vn -0.630458 -0.761818 0.148851
vn -0.074196 -0.598990 -0.797311
vn 0.116540 -0.163358 0.979660
vn -0.482673 0.477647 0.734084
vn -0.679245 -0.428100 0.596118
vn 0.344589 0.541349 0.766942
vn -0.537247 -0.725572 0.430013
vn 0.045267 -0.018173 -0.998810
vn 0.370202 -0.250312 0.894592
vn 0.718397 -0.492688 0.491085
vn 0.622429 -0.008363 0.782631
vn 0.380616 -0.025940 0.924369
vn 0.893567 -0.075451 0.442544
vn 0.350317 -0.048559 0.935371
vn 0.240618 -0.042719 0.969679
vn -0.016348 0.398021 -0.917231
vn 0.045172 0.052962 -0.997574
vn 0.612880 -0.279414 0.739125
vn 0.388867 0.903918 -0.178084
vn 0.275032 0.032708 0.960878
vn 0.156157 0.524095 -0.837221
vn 0.657964 0.050532 0.751352
vn 0.519913 0.516517 0.680368
vn 0.565519 0.697737 0.439718
vn 0.236433 0.466523 0.852324
vn 0.130006 0.306561 0.942931
vn 0.766445 0.320751 0.556490
vn 0.759126 0.589587 -0.275888
vn 0.472950 0.633637 -0.612228
vn 0.203098 0.808373 -0.552525
vn 0.534442 0.678314 0.504244
vn 0.416533 0.854008 -0.311721
vn 0.762232 0.576450 -0.294462
vn 0.214638 0.664161 -0.716115
vn 0.248729 0.633163 -0.732966
vn 0.173645 0.503435 -0.846404
vn 0.119320 0.227874 0.966352
vn 0.859530 0.106443 0.499877
vn 0.813278 0.169500 -0.556641
vn -0.003258 0.066940 -0.997752
vn 0.120836 0.162911 0.979213
vn 0.345799 0.020724 0.938080
vn 0.911665 0.395158 0.112772
vn 0.825278 0.320247 0.465144
vn 0.868515 0.254100 0.425575
vn 0.814310 0.168219 -0.555519
vn 0.129112 0.196284 -0.972010
vn 0.791367 0.261313 -0.552679
vn 0.197598 -0.261295 -0.944817
vn 0.134526 -0.258730 -0.956536
vn 0.205475 -0.236505 -0.949655
vn 0.426940 0.110898 0.897454
vn 0.954227 0.209463 0.213486
vn 0.980234 -0.155450 -0.122379
vn 0.146152 0.256040 -0.955554
vn 0.659435 -0.053220 0.749876
vn 0.871561 0.486725 -0.058996
vn 0.760743 0.422457 0.492747
vn 0.455733 0.136796 -0.879542
vn 0.714344 0.668349 -0.207417
vn -0.852300 -0.202171 -0.482401
vn -0.963403 -0.202334 0.175830
vn 0.673059 -0.666481 0.320616
vn 0.825076 -0.134267 0.548836
vn 0.449120 -0.193670 0.872229
vn 0.142010 0.066540 0.987626
vn 0.978262 -0.017178 0.206662
vn 0.984375 -0.061476 -0.165007
vn 0.997455 -0.056200 0.043875
vn 0.349629 -0.829184 0.436134
vn 0.193735 0.175422 0.965243
vn 0.911170 -0.047426 0.409292
vn 0.974672 0.017497 0.222951
vn -0.054129 0.900157 0.432190
vn 0.475326 0.312559 0.822418
vn 0.684975 0.318255 0.655380
vn 0.699334 0.322849 0.637731
vn 0.486843 -0.206023 0.848845
vn 0.313347 -0.284216 0.906110
vn 0.049234 0.913259 0.404393
vn -0.020318 -0.032014 0.999281
vn 0.245442 -0.697829 0.672899
vn 0.531248 0.005677 0.847197
vn 0.476426 -0.860337 -0.181214
vn 0.874739 -0.033790 0.483415
vn 0.007676 -0.999517 -0.030123
vn 0.513966 0.124631 0.848708
vn 0.810867 0.060543 0.582091
vn 0.307566 -0.949428 -0.063169
vn 0.330398 0.018259 0.943665
vn 0.977702 0.066016 -0.199352
vn 0.917813 0.201591 -0.342023
vn 0.767695 -0.310090 0.560793
vn 0.163228 -0.440539 0.882769
vn 0.826306 -0.138832 0.545843
vn 0.056783 -0.316668 0.946835
vn 0.520856 0.704896 0.481488
vn 0.978250 0.061325 0.198155
vn 0.884045 0.428181 0.187418
vn 0.769133 0.595991 0.230715
vn 0.497933 0.298089 0.814375
vn 0.492038 0.409535 -0.768232
vn 0.399782 0.480289 -0.780703
vn 0.151113 0.980430 -0.126184
vn 0.030215 0.960226 -0.277583
vn 0.872591 -0.104789 0.477079
vn 0.756410 0.432046 0.491101
vn 0.573946 -0.054155 -0.817101
vn 0.892608 0.443567 -0.080622
vn -0.844535 -0.394931 0.361649
vn 0.957999 0.224999 0.177800
vn 0.596714 0.147291 -0.788820
vn -0.829434 -0.254823 -0.497096
vn 0.335846 -0.058774 0.940081
vn -0.177820 -0.768276 -0.614925
vn -0.362119 -0.759977 -0.539727
vn 0.849839 -0.526129 -0.031014
vn 0.792264 -0.586525 -0.168244
vn 0.961750 -0.241764 0.128791
vn 0.751593 0.267142 0.603111
vn 0.257215 0.761453 -0.595004
vn -0.694443 0.594706 -0.405061
vn 0.108025 0.649188 -0.752918
vn -0.417095 0.760343 0.497906
vn -0.450849 -0.276064 -0.848837
vn -0.517608 -0.211840 -0.828979
vn 0.702123 0.342895 -0.624056
vn 0.688020 0.073492 -0.721961
vn 0.963239 0.126298 0.237106
vn 0.963159 0.125901 0.237641
vn 0.304487 -0.046954 0.951358
vn -0.768140 -0.537453 0.348001
vn -0.842856 -0.047974 -0.535996
vn -0.472770 -0.470886 -0.744819
vn 0.753608 0.018972 -0.657050
vn 0.580612 0.189396 -0.791845
vn 0.936866 0.295562 0.186881
vn 0.943209 0.220699 0.248292
vn 0.336713 -0.096027 0.936698
vn 0.216139 -0.025554 0.976028
vn -0.960967 -0.213741 0.175664
vn 0.748545 0.183341 -0.637233
vn -0.508520 -0.229383 -0.829934
vn -0.809278 -0.411579 0.419132
vn 0.310877 -0.157249 0.937352
vn -0.773359 -0.472345 0.422853
vn 0.269308 -0.145593 0.951985
vn 0.599927 0.336251 -0.725964
vn -0.552433 -0.286531 -0.782763
vn -0.451981 -0.767199 -0.455104
vn -0.384503 -0.806782 -0.448621
vn 0.536528 -0.815651 0.216449
vn 0.676896 -0.675824 0.291674
vn 0.701874 0.228674 0.674597
vn 0.715966 0.206152 0.667004
vn 0.052968 0.896328 0.440216
vn -0.053735 0.942284 0.330475
vn -0.871167 0.276335 -0.405842
vn -0.863130 0.305066 -0.402419
vn 0.330985 -0.182543 0.925811
vn -0.448305 0.624015 0.640022
vn 0.131240 0.979226 -0.154570
vn -0.035387 0.993275 -0.110235
vn -0.001905 0.994826 -0.101573
vn -0.228625 0.966497 0.116683
vn -0.321631 0.941232 0.103126
vn 0.683856 0.204103 0.700487
vn 0.726968 -0.204369 0.655554
vn -0.409530 -0.745947 -0.525212
vn -0.163879 -0.933530 0.318851
vn -0.524867 -0.752164 -0.398452
vn -0.435864 -0.813010 -0.386053
vn -0.782148 -0.596267 -0.180860
vn -0.360957 0.407259 -0.838957
vn 0.293263 0.955871 -0.017531
vn -0.047542 0.939188 0.340096
vn -0.822821 -0.161183 -0.544964
vn -0.845466 -0.142989 -0.514530
vn 0.722040 0.014085 0.691708
vn 0.752396 0.011884 0.658604
vn -0.051931 0.932011 0.358689
vn 0.593865 -0.009438 0.804510
vn 0.547390 -0.836671 0.018615
vn 0.428642 -0.903470 0.002735
vn -0.835867 -0.147623 -0.528709
vn 0.797499 0.248760 0.549648
vn -0.899976 -0.207677 -0.383293
vn -0.281760 -0.647898 -0.707700
vn 0.719443 -0.685694 -0.110566
vn -0.280818 0.388324 0.877693
vn 0.788739 0.035712 0.613690
vn 0.558674 -0.801219 -0.214317
vn 0.469299 0.794000 0.386423
vn 0.477196 0.783475 0.398060
vn -0.862195 -0.154168 -0.482548
vn -0.024657 0.939496 0.341673
vn 0.660364 -0.027747 0.750433
vn 0.449381 -0.877235 0.168867
vn -0.935855 -0.032636 -0.350870
vn 0.715802 0.356301 -0.600564
vn -0.403757 0.877819 -0.257710
vn 0.839693 0.101616 0.533471
vn 0.828101 0.071387 0.556014
vn -0.558875 0.069379 0.826344
vn -0.604675 0.127718 0.786166
vn 0.838555 0.109986 0.533599
vn -0.440946 0.842453 0.309581
vn 0.485964 -0.867466 0.106494
vn 0.872668 0.382030 0.304144
vn 0.871465 0.208056 0.444142
vn -0.273601 0.606195 0.746773
vn 0.867266 0.381019 0.320427
vn -0.545999 0.302404 0.781305
vn 0.804573 0.588280 -0.081174
vn 0.834115 0.536491 0.128178
vn -0.402724 0.847587 0.345558
vn 0.942910 0.254381 0.214966
vn 0.448115 -0.750010 -0.486497
vn 0.275927 -0.856832 -0.435549
vn -0.236621 -0.872605 -0.427284
vn -0.844982 -0.533834 -0.032056
vn -0.529904 0.679595 0.507299
vn -0.987824 -0.132187 0.082041
vn 0.701481 0.381323 -0.602094
vn 0.744312 0.030300 0.667144
vn -0.734412 -0.213639 0.644203
vn -0.771239 0.430652 -0.468753
vn 0.769189 0.226700 -0.597457
vn -0.881984 0.097418 -0.461101
vn -0.941620 0.096349 -0.322595
vn 0.721996 0.221309 -0.655548
vn 0.733798 -0.460070 0.499876
vn 0.893442 -0.280036 0.351201
vn -0.788337 -0.330160 0.519152
vn -0.458018 -0.572711 0.679869
vn -0.773088 0.454417 -0.442539
vn 0.014238 0.471380 -0.881815
vn -0.975803 -0.122117 -0.181373
vn 0.975203 0.070028 -0.209939
vn 0.070897 -0.917572 -0.391197
vn 0.074411 -0.918049 -0.389422
vn 0.642235 0.518879 0.564180
vn 0.702225 0.568292 -0.428863
vn -0.727603 0.362649 0.582305
vn 0.632820 0.515044 0.578159
vn -0.816559 0.388169 0.427267
vn 0.070328 -0.918802 -0.388403
vn 0.070721 -0.918964 -0.387948
vn 0.565800 0.655110 0.500701
vn 0.068151 0.009672 0.997628
vn -0.749760 0.552197 0.364607
vn 0.420249 -0.691060 -0.588070
vn -0.212628 -0.072322 -0.974453
vn 0.283246 -0.352284 -0.892002
vn -0.489825 0.361660 0.793268
vn -0.921141 -0.266885 -0.283322
vn -0.279652 -0.512767 -0.811705
vn -0.249843 -0.531932 -0.809090
vn -0.905126 -0.364834 -0.218274
vn -0.190084 -0.054313 -0.980264
vn -0.928122 -0.287273 -0.236778
vn 0.301508 -0.952860 -0.033925
vn -0.288412 -0.942074 0.171219
vn -0.213512 -0.924456 0.315902
vn 0.250870 -0.955180 0.157149
vn 0.619489 -0.671281 0.406958
vn -0.468971 0.071735 0.880295
vn -0.182929 -0.729543 0.659017
vn -0.941397 -0.232155 0.244693
vn -0.146125 -0.020949 -0.989044
vn -0.373913 -0.318968 0.870889
vn -0.546683 -0.715345 0.435224
vn -0.430334 0.158788 0.888594
vn -0.395069 0.054501 0.917033
vn -0.715966 -0.098041 0.691217
vn 0.028399 -0.100511 0.994531
vn -0.156804 -0.016885 0.987485
vn -0.191056 0.483926 -0.853998
vn -0.144580 0.045476 -0.988448
vn -0.317536 -0.320502 0.892440
vn -0.436804 0.872750 -0.217965
vn -0.160489 -0.009012 0.986997
vn -0.220805 0.505998 -0.833794
vn -0.358994 0.012771 0.933252
vn -0.321685 0.481263 0.815417
vn -0.473888 0.757303 0.449357
vn -0.142966 0.436549 0.888249
vn -0.123719 0.414438 0.901629
vn -0.660867 0.403228 0.632979
vn -0.675801 0.612392 -0.410207
vn -0.345063 0.656001 -0.671263
vn -0.143937 0.788725 -0.597658
vn -0.401563 0.745121 0.532486
vn -0.502971 0.779630 -0.373093
vn -0.666763 0.648672 -0.366950
vn -0.236415 0.583120 -0.777226
vn -0.163657 0.652217 -0.740155
vn -0.222713 0.503491 -0.834803
vn 0.049840 0.089673 0.994723
vn -0.716873 0.027260 0.696671
vn -0.879806 0.259494 -0.398252
vn -0.326783 0.087801 -0.941012
vn 0.044696 0.140528 0.989067
vn 0.022838 0.070929 0.997220
vn -0.855746 0.290464 0.428170
vn -0.705732 0.254490 0.661194
vn -0.686273 0.276123 0.672893
vn -0.949188 0.139555 -0.282077
vn -0.396052 0.165961 -0.903106
vn -0.871903 0.289643 -0.394833
vn -0.735746 0.124615 -0.665695
vn -0.390539 0.220580 -0.893770
vn 0.422151 -0.223182 -0.878623
vn -0.157909 -0.005531 0.987438
vn -0.840903 0.311646 0.442446
vn -0.801482 0.065187 -0.594455
vn -0.525073 -0.022362 -0.850763
vn -0.683885 0.124285 0.718926
vn -0.729156 0.549424 -0.408001
vn -0.674475 0.423907 0.604472
vn -0.588545 -0.061032 -0.806158
vn -0.927754 0.349171 -0.131730
vn 0.709757 -0.027175 -0.703922
vn -0.010645 -0.999851 0.013554
vn -0.735414 -0.627915 -0.254734
vn -0.927931 -0.158387 0.337429
vn -0.626742 -0.189199 0.755908
vn -0.349277 0.068584 0.934506
vn -0.997555 -0.061783 -0.032672
vn -0.923788 -0.178257 -0.338882
vn -0.832997 -0.188451 -0.520195
vn -0.357086 -0.838856 0.410865
vn -0.394118 0.177876 0.901682
vn -0.977951 -0.039573 0.205049
vn -0.999624 0.025703 0.009502
vn -0.032094 0.900062 0.434578
vn -0.637535 0.317176 0.702103
vn -0.806572 0.324449 0.494140
vn -0.816797 0.329148 0.473819
vn -0.658689 -0.201260 0.724999
vn -0.502094 -0.280822 0.817949
vn -0.127031 0.913991 0.385336
vn -0.193988 -0.031292 0.980505
vn -0.389317 -0.695187 0.604274
vn -0.699976 0.010792 0.714085
vn -0.366901 -0.850684 -0.376457
vn -0.977844 -0.001984 0.209326
vn -0.008408 -0.999408 -0.033360
vn -0.682440 0.129599 0.719361
vn -0.916013 0.067717 0.395392
vn -0.229330 -0.960311 -0.158780
vn -0.524298 0.021811 0.851255
vn -0.908679 0.073839 -0.410913
vn -0.818595 0.204912 -0.536576
vn -0.872331 -0.303279 0.383485
vn -0.351757 -0.438405 0.827084
vn -0.924985 -0.131551 0.356506
vn -0.260432 -0.315330 0.912547
vn -0.605915 0.709578 0.359675
vn -0.997460 0.069535 -0.015446
vn -0.900126 0.435595 -0.005476
vn -0.795748 0.602494 0.061529
vn -0.658012 0.302899 0.689400
vn -0.334656 0.397485 -0.854407
vn -0.219667 0.484328 -0.846860
vn -0.112591 0.981526 -0.154694
vn 0.037694 0.960197 -0.276768
vn -0.905716 0.038923 0.422094
vn -0.769159 0.232433 0.595290
vn -0.617534 -0.190058 -0.763236
vn -0.893952 0.304213 -0.329096
vn 0.988160 0.095706 0.119915
vn -0.966724 0.022794 0.254803
vn -0.648345 0.050485 -0.759671
vn 0.633063 -0.407116 -0.658397
vn -0.267172 -0.095512 0.958904
vn -0.147627 -0.523403 -0.839200
vn 0.466720 -0.670318 -0.576928
vn -0.888771 -0.434219 -0.146767
vn -0.941032 -0.311976 0.130877
vn -0.954816 -0.217654 0.202368
vn -0.562039 0.390130 0.729322
vn -0.190227 0.943194 -0.272395
vn 0.625697 0.566269 -0.536510
vn -0.068061 0.733371 -0.676412
vn 0.832765 0.191763 0.519355
vn 0.516022 -0.318656 -0.795098
vn 0.501379 -0.336526 -0.797101
vn -0.758778 0.103173 -0.643126
vn -0.721150 -0.141787 -0.678115
vn -0.959200 0.052090 0.277889
vn -0.968094 0.070136 0.240574
vn -0.159542 0.239479 0.957704
vn 0.883718 -0.428642 0.187906
vn 0.631078 -0.360708 -0.686753
vn 0.604856 -0.511833 -0.610063
vn -0.776644 -0.191768 -0.600041
vn -0.660376 0.009801 -0.750871
vn -0.949441 0.195037 0.246012
vn -0.947191 0.174119 0.269280
vn -0.279485 0.010154 0.960096
vn -0.171386 0.092941 0.980810
vn 0.719992 -0.315091 0.618329
vn -0.772196 0.027371 -0.634795
vn 0.507650 -0.322472 -0.798939
vn 0.858106 -0.192568 0.475995
vn -0.072356 -0.032582 0.996846
vn 0.898664 -0.118145 0.422428
vn -0.234607 -0.125315 0.963979
vn -0.680374 0.098301 -0.726243
vn 0.647472 -0.346480 -0.678772
vn 0.054667 -0.812050 -0.581022
vn 0.297632 -0.734726 -0.609584
vn -0.676068 -0.713403 0.184359
vn -0.814536 -0.469244 0.341089
vn -0.504197 0.328440 0.798694
vn -0.563566 0.292368 0.772602
vn 0.302159 0.737199 0.604349
vn 0.354272 0.753252 0.554168
vn 0.815614 -0.183823 -0.548619
vn 0.868425 0.133782 -0.477431
vn -0.270810 -0.246900 0.930431
vn 0.686938 0.375736 0.622043
vn 0.148419 0.987151 -0.059206
vn 0.373938 0.925220 -0.064328
vn 0.276963 0.960591 -0.023610
vn 0.543161 0.833020 0.105136
vn 0.527169 0.842656 0.109657
vn -0.549492 0.216716 0.806903
vn -0.698603 -0.133306 0.702982
vn 0.190279 -0.801865 -0.566397
vn -0.019870 -0.972839 0.230628
vn 0.205041 -0.807756 -0.552710
vn 0.158402 -0.824024 -0.543960
vn 0.565112 -0.736169 -0.372428
vn 0.365728 0.417279 -0.831938
vn -0.019287 0.992710 0.118978
vn 0.367056 0.845058 0.388776
vn 0.643948 -0.342419 -0.684164
vn 0.678218 -0.332063 -0.655557
vn -0.615602 0.112742 0.779951
vn -0.648521 0.122783 0.751229
vn 0.423541 0.821728 0.381282
vn -0.457770 0.058311 0.887156
vn -0.816291 -0.570838 0.088391
vn -0.670556 -0.741853 -0.002879
vn 0.679933 -0.332125 -0.653747
vn -0.642486 0.369178 0.671506
vn 0.732014 -0.445766 -0.515217
vn -0.087268 -0.619667 -0.779998
vn -0.875087 -0.471258 -0.110173
vn 0.482137 0.155660 0.862156
vn -0.683114 0.162911 0.711910
vn -0.815703 -0.546104 -0.190786
vn -0.189172 0.832136 0.521309
vn -0.198252 0.822854 0.532547
vn 0.699461 -0.358805 -0.618072
vn 0.416521 0.826972 0.377661
vn -0.585134 0.075822 0.807384
vn -0.716388 -0.668953 0.198219
vn 0.864505 0.296230 -0.406053
vn -0.580674 0.556691 -0.594065
vn -0.641908 0.496816 -0.584062
vn -0.834631 -0.188280 0.517630
vn -0.772213 -0.328859 0.543635
vn 0.643538 -0.394356 0.656005
vn 0.586520 -0.466246 0.662275
vn -0.878760 -0.306858 0.365540
vn 0.591263 -0.331611 0.735148
vn -0.558487 0.171014 -0.811694
vn -0.715866 -0.565733 0.409245
vn -0.714329 -0.593789 0.370335
vn 0.366177 -0.765540 0.529021
vn -0.861162 -0.141773 0.488161
vn 0.622557 -0.539571 0.566821
vn 0.836478 0.348205 -0.423152
vn -0.675792 -0.245002 0.695183
vn 0.551910 -0.312975 0.772943
vn -0.821532 -0.355978 0.445382
vn -0.730316 0.361473 -0.579634
vn -0.527071 0.283257 -0.801225
vn 0.207601 0.391043 -0.896653
vn 0.791643 0.089550 -0.604386
vn 0.724558 -0.406570 0.556522
vn 0.969127 0.034928 -0.244076
vn -0.663175 0.383883 -0.642521
vn -0.748103 0.050490 0.661659
vn 0.689171 -0.211480 0.693051
vn 0.724229 0.401114 -0.560892
vn -0.717144 0.254637 -0.648741
vn 0.800028 0.131075 -0.585469
vn 0.852843 0.127667 -0.506320
vn -0.575948 0.242383 -0.780727
vn -0.770097 -0.409752 0.488931
vn -0.912507 -0.218075 0.346085
vn 0.762438 -0.345826 0.546894
vn 0.642589 -0.453556 0.617548
vn 0.757006 0.573571 -0.312981
vn 0.007455 0.653260 -0.757097
vn 0.981203 -0.080880 -0.175209
vn -0.967080 0.086900 -0.239174
vn 0.069046 -0.777430 -0.625169
vn -0.016304 -0.804342 -0.593943
vn -0.711821 0.290308 0.639556
vn -0.709389 0.620064 -0.335094
vn 0.687125 0.213449 0.694478
vn -0.536958 0.174182 0.825432
vn 0.755832 0.252569 0.604092
vn -0.043046 -0.550276 -0.833872
vn 0.053848 -0.427904 -0.902219
vn -0.516895 0.228028 0.825120
vn -0.004854 -0.437852 0.899034
vn 0.710311 0.323352 0.625221
vn 0.055370 -0.892214 -0.448206

f 1/1/1 2/2/1 3/3/1
f 4/4/2 5/5/2 6/6/2
f 4/4/3 6/7/3 7/8/3
f 5/9/4 8/10/4 9/11/4
f 10/12/5 11/13/5 9/14/5
f 6/6/6 11/15/6 7/8/6
f 6/6/7 12/16/7 11/13/7
f 12/17/8 5/5/8 9/14/8
f 6/6/9 5/5/9 12/17/9
f 11/13/10 12/18/10 9/19/10
f 13/20/11 14/21/11 15/22/11
f 14/21/12 13/20/12 16/23/12
f 16/24/13 13/20/13 17/25/13
f 15/22/14 14/21/14 18/26/14
f 14/21/15 19/27/15 18/26/15
f 18/26/16 20/28/16 21/29/16
f 18/26/17 19/27/17 20/28/17
f 20/28/18 3/30/18 21/29/18
f 5/9/19 22/31/19 23/32/19
f 24/33/20 25/34/20 26/35/20
f 27/36/21 25/34/21 9/37/21
f 28/38/22 27/39/22 29/40/22
f 30/41/23 25/34/23 24/33/23
f 25/34/24 30/41/24 10/42/24
f 30/41/25 24/33/25 31/43/25
f 24/33/26 26/44/26 32/45/26
f 33/46/27 34/47/27 5/9/27
f 4/4/28 22/31/28 5/9/28
f 26/35/29 25/34/29 27/39/29
f 33/46/30 35/48/30 34/47/30
f 32/45/31 26/35/31 28/38/31
f 23/32/32 33/46/32 5/9/32
f 26/35/33 27/39/33 28/38/33
f 28/38/34 29/40/34 36/49/34
f 35/50/35 37/51/35 29/40/35
f 28/38/36 38/52/36 32/45/36
f 36/49/37 38/52/37 28/38/37
f 36/49/38 37/53/38 39/54/38
f 39/55/39 37/56/39 40/57/39
f 41/58/40 42/59/40 39/55/40
f 39/55/41 40/57/41 41/58/41
f 36/49/42 29/40/42 37/51/42
f 37/56/43 35/48/43 33/46/43
f 37/56/44 33/46/44 40/57/44
f 40/57/45 33/46/45 43/60/45
f 40/57/46 43/60/46 41/58/46
f 33/46/47 23/32/47 43/60/47
f 44/61/48 45/62/48 30/63/48
f 15/64/49 46/65/49 45/62/49
f 46/66/50 47/67/50 10/68/50
f 47/67/51 7/69/51 11/70/51
f 45/62/52 44/61/52 17/71/52
f 44/61/53 30/63/53 31/72/53
f 13/73/54 15/64/54 45/62/54
f 46/65/55 10/74/55 45/62/55
f 45/62/56 10/74/56 30/63/56
f 47/67/57 11/70/57 10/68/57
f 47/67/58 48/75/58 7/69/58
f 46/66/59 15/76/59 47/67/59
f 18/77/60 47/67/60 15/76/60
f 47/67/61 18/77/61 48/75/61
f 18/77/62 21/78/62 48/75/62
f 13/73/63 45/62/63 17/71/63
f 49/79/64 35/50/64 29/40/64
f 8/80/65 27/81/65 9/82/65
f 34/47/66 50/83/66 5/84/66
f 27/36/67 49/79/67 29/40/67
f 35/48/68 51/85/68 52/86/68
f 35/50/69 49/79/69 51/87/69
f 52/86/70 50/83/70 34/47/70
f 35/48/71 52/86/71 34/47/71
f 5/84/72 50/83/72 8/10/72
f 53/88/73 27/81/73 8/80/73
f 53/88/74 49/79/74 27/36/74
f 54/89/75 55/90/75 56/91/75
f 57/92/76 55/90/76 58/93/76
f 59/94/77 60/95/77 55/90/77
f 61/96/78 54/89/78 56/91/78
f 39/97/79 61/96/79 36/98/79
f 36/98/80 61/96/80 56/91/80
f 36/98/81 56/91/81 38/99/81
f 62/100/82 63/101/82 64/102/82
f 65/103/83 64/102/83 54/89/83
f 61/96/84 65/103/84 54/89/84
f 66/104/85 67/105/85 62/100/85
f 55/90/86 60/95/86 68/106/86
f 69/107/87 68/106/87 60/95/87
f 69/107/88 70/108/88 68/106/88
f 58/109/89 55/90/89 68/106/89
f 68/106/90 71/110/90 58/111/90
f 62/100/91 67/105/91 63/101/91
f 64/102/92 63/101/92 69/107/92
f 70/108/93 71/110/93 68/106/93
f 58/111/94 71/110/94 72/112/94
f 56/91/95 57/92/95 38/113/95
f 55/90/96 57/114/96 56/91/96
f 73/115/97 74/116/97 38/113/97
f 58/109/98 72/112/98 73/115/98
f 57/117/99 58/111/99 73/115/99
f 57/92/100 73/115/100 38/113/100
f 73/115/101 72/112/101 74/116/101
f 39/97/102 75/118/102 61/96/102
f 75/118/103 39/97/103 76/119/103
f 64/102/104 59/94/104 54/89/104
f 64/102/105 60/95/105 59/94/105
f 54/89/106 59/94/106 55/90/106
f 64/102/107 69/107/107 60/95/107
f 65/103/108 66/104/108 62/100/108
f 65/103/109 61/96/109 75/118/109
f 75/118/110 76/119/110 65/103/110
f 66/104/111 65/103/111 76/119/111
f 62/100/112 64/102/112 65/103/112
f 39/97/113 42/120/113 76/119/113
f 77/121/114 76/119/114 42/120/114
f 67/105/115 76/119/115 77/121/115
f 66/104/116 76/119/116 67/105/116
f 9/82/117 25/34/117 10/42/117
f 51/122/118 49/123/118 78/124/118
f 79/125/119 50/126/119 52/127/119
f 52/127/120 51/122/120 79/125/120
f 80/128/121 81/129/121 53/130/121
f 51/122/122 78/124/122 79/125/122
f 82/131/123 50/126/123 79/125/123
f 50/126/124 82/131/124 8/132/124
f 53/133/125 78/124/125 49/123/125
f 83/134/126 84/135/126 85/136/126
f 84/135/127 83/134/127 86/137/127
f 86/137/128 87/138/128 84/135/128
f 88/139/129 84/135/129 87/138/129
f 87/138/130 89/140/130 88/139/130
f 90/141/131 88/139/131 89/140/131
f 91/142/132 92/143/132 90/141/132
f 90/141/133 89/140/133 91/142/133
f 85/136/134 92/144/134 91/145/134
f 91/145/135 83/134/135 85/136/135
f 80/128/136 93/146/136 83/134/136
f 94/147/137 83/134/137 93/146/137
f 93/146/138 87/138/138 94/147/138
f 87/138/139 93/146/139 95/148/139
f 95/148/140 96/149/140 87/138/140
f 89/140/141 87/138/141 96/149/141
f 97/150/142 91/142/142 89/140/142
f 97/151/143 81/129/143 80/128/143
f 8/132/144 82/131/144 80/128/144
f 93/146/145 80/128/145 98/152/145
f 98/152/146 95/148/146 93/146/146
f 95/148/147 82/131/147 79/125/147
f 79/125/148 78/124/148 95/148/148
f 96/149/149 95/148/149 78/124/149
f 78/124/150 53/133/150 81/153/150
f 81/153/151 96/149/151 78/124/151
f 80/128/152 53/130/152 8/154/152
f 94/147/153 87/138/153 86/137/153
f 86/137/154 83/134/154 94/147/154
f 97/151/155 83/134/155 91/145/155
f 89/140/156 96/149/156 97/150/156
f 80/128/157 83/134/157 97/151/157
f 81/153/158 97/150/158 96/149/158
f 82/131/159 95/148/159 98/152/159
f 98/152/160 80/128/160 82/131/160
f 85/136/161 99/155/161 100/156/161
f 99/155/162 85/136/162 84/135/162
f 84/135/163 101/157/163 99/155/163
f 101/157/164 84/135/164 88/139/164
f 88/139/165 90/141/165 101/157/165
f 102/158/166 101/157/166 90/141/166
f 90/141/167 103/159/167 102/158/167
f 103/159/168 90/141/168 92/143/168
f 92/144/169 85/136/169 103/160/169
f 100/156/170 103/160/170 85/136/170
f 104/161/171 105/162/171 106/163/171
f 107/164/172 106/163/172 108/165/172
f 109/166/173 110/167/173 103/168/173
f 109/166/174 111/169/174 104/161/174
f 104/161/175 110/167/175 109/166/175
f 104/161/176 111/169/176 112/170/176
f 113/171/177 112/170/177 111/169/177
f 106/163/178 110/167/178 104/161/178
f 104/161/179 112/170/179 105/162/179
f 105/172/180 113/173/180 111/174/180
f 113/173/181 105/172/181 112/175/181
f 105/172/182 111/174/182 109/176/182
f 109/176/183 106/177/183 105/172/183
f 109/176/184 100/178/184 106/177/184
f 103/179/185 100/178/185 109/176/185
f 102/180/186 103/168/186 110/167/186
f 106/163/187 114/181/187 108/165/187
f 115/182/188 116/183/188 106/177/188
f 116/184/189 117/185/189 118/186/189
f 108/165/190 114/181/190 119/187/190
f 119/187/191 120/188/191 108/165/191
f 118/189/192 121/190/192 114/191/192
f 114/191/193 121/190/193 117/192/193
f 116/193/194 115/194/194 119/187/194
f 120/188/195 119/187/195 115/194/195
f 121/195/196 118/186/196 117/185/196
f 108/165/197 101/196/197 102/180/197
f 115/182/198 106/177/198 100/178/198
f 100/178/199 99/197/199 115/182/199
f 120/188/200 99/198/200 101/196/200
f 106/163/201 107/164/201 110/167/201
f 108/165/202 120/188/202 101/196/202
f 120/188/203 115/194/203 99/198/203
f 107/164/204 102/180/204 110/167/204
f 102/180/205 107/164/205 108/165/205
f 118/199/206 106/177/206 116/183/206
f 114/181/207 106/163/207 118/200/207
f 114/191/208 117/192/208 119/201/208
f 117/192/209 116/202/209 119/201/209
f 122/203/210 123/204/210 124/205/210
f 125/206/211 126/207/211 123/208/211
f 125/206/212 123/208/212 127/209/212
f 125/210/213 128/211/213 126/212/213
f 128/211/214 129/213/214 126/212/214
f 128/214/215 124/215/215 129/216/215
f 122/217/216 124/215/216 128/214/216
f 130/218/217 128/211/217 125/219/217
f 131/220/218 122/221/218 130/222/218
f 132/223/219 125/224/219 127/225/219
f 132/226/220 131/227/220 125/219/220
f 133/228/221 131/227/221 132/226/221
f 133/229/222 122/221/222 131/220/222
f 130/218/223 125/219/223 131/227/223
f 128/214/224 130/222/224 122/221/224
f 127/209/225 123/204/225 122/203/225
f 16/230/226 133/228/226 14/231/226
f 16/232/227 3/3/227 133/229/227
f 14/231/228 133/228/228 132/226/228
f 14/233/229 132/223/229 19/234/229
f 132/223/230 127/225/230 19/234/230
f 20/235/231 19/234/231 127/225/231
f 20/235/232 127/225/232 122/236/232
f 3/3/233 122/221/233 133/229/233
f 3/237/234 20/235/234 122/236/234
f 134/238/235 135/239/235 136/240/235
f 137/241/236 135/242/236 134/243/236
f 138/244/237 139/245/237 137/246/237
f 138/247/238 136/248/238 139/249/238
f 134/238/239 136/240/239 123/208/239
f 138/247/240 123/250/240 136/248/240
f 123/250/241 138/247/241 124/251/241
f 134/238/242 123/208/242 126/252/242
f 129/253/243 134/243/243 126/254/243
f 137/241/244 134/243/244 129/253/244
f 138/244/245 137/246/245 129/255/245
f 138/244/246 129/255/246 124/256/246
f 136/257/247 140/258/247 139/259/247
f 136/257/248 141/260/248 140/258/248
f 142/261/249 139/259/249 140/258/249
f 135/262/250 143/263/250 141/260/250
f 141/264/251 143/265/251 142/266/251
f 142/266/252 140/267/252 141/264/252
f 137/268/253 143/263/253 135/262/253
f 135/262/254 141/260/254 136/257/254
f 139/259/255 142/261/255 137/268/255
f 137/268/256 144/269/256 143/263/256
f 137/268/257 142/261/257 144/269/257
f 143/265/258 145/270/258 146/271/258
f 146/271/259 142/266/259 143/265/259
f 143/263/260 144/269/260 145/272/260
f 144/269/261 146/273/261 145/272/261
f 146/273/262 144/269/262 142/261/262
f 3/274/263 16/275/263 17/276/263
f 147/5/264 4/4/264 148/6/264
f 148/7/265 4/4/265 7/8/265
f 149/10/266 147/9/266 150/11/266
f 151/13/267 152/12/267 150/14/267
f 151/15/268 148/6/268 7/8/268
f 153/16/269 148/6/269 151/13/269
f 147/5/270 153/17/270 150/14/270
f 147/5/271 148/6/271 153/17/271
f 153/18/272 151/13/272 150/19/272
f 154/21/273 155/20/273 156/22/273
f 155/20/274 154/21/274 157/23/274
f 155/20/275 157/24/275 17/25/275
f 154/21/276 156/22/276 158/26/276
f 159/27/277 154/21/277 158/26/277
f 160/28/278 158/26/278 21/29/278
f 159/27/279 158/26/279 160/28/279
f 3/30/280 160/28/280 21/29/280
f 22/31/281 147/9/281 23/32/281
f 161/34/282 24/33/282 162/35/282
f 161/34/283 163/36/283 150/37/283
f 163/39/284 164/38/284 165/40/284
f 161/34/285 166/41/285 24/33/285
f 166/41/286 161/34/286 152/42/286
f 24/33/287 166/41/287 31/43/287
f 162/44/288 24/33/288 32/45/288
f 167/47/289 168/46/289 147/9/289
f 22/31/290 4/4/290 147/9/290
f 161/34/291 162/35/291 163/39/291
f 169/48/292 168/46/292 167/47/292
f 162/35/293 32/45/293 164/38/293
f 168/46/294 23/32/294 147/9/294
f 163/39/295 162/35/295 164/38/295
f 165/40/296 164/38/296 170/49/296
f 171/51/297 169/50/297 165/40/297
f 38/52/298 164/38/298 32/45/298
f 38/52/299 170/49/299 164/38/299
f 171/53/300 170/49/300 172/54/300
f 171/56/301 172/55/301 173/57/301
f 42/59/302 41/58/302 172/55/302
f 173/57/303 172/55/303 41/58/303
f 165/40/304 170/49/304 171/51/304
f 169/48/305 171/56/305 168/46/305
f 168/46/306 171/56/306 173/57/306
f 168/46/307 173/57/307 43/60/307
f 43/60/308 173/57/308 41/58/308
f 23/32/309 168/46/309 43/60/309
f 174/62/310 44/61/310 166/63/310
f 175/65/311 156/64/311 174/62/311
f 176/67/312 175/66/312 152/68/312
f 7/69/313 176/67/313 151/70/313
f 44/61/314 174/62/314 17/71/314
f 166/63/315 44/61/315 31/72/315
f 156/64/316 155/73/316 174/62/316
f 152/74/317 175/65/317 174/62/317
f 152/74/318 174/62/318 166/63/318
f 151/70/319 176/67/319 152/68/319
f 48/75/320 176/67/320 7/69/320
f 156/76/321 175/66/321 176/67/321
f 176/67/322 158/77/322 156/76/322
f 158/77/323 176/67/323 48/75/323
f 21/78/324 158/77/324 48/75/324
f 174/62/325 155/73/325 17/71/325
f 169/50/326 177/79/326 165/40/326
f 163/81/327 149/80/327 150/82/327
f 178/83/328 167/47/328 147/84/328
f 177/79/329 163/36/329 165/40/329
f 179/85/330 169/48/330 180/86/330
f 177/79/331 169/50/331 179/87/331
f 178/83/332 180/86/332 167/47/332
f 180/86/333 169/48/333 167/47/333
f 178/83/334 147/84/334 149/10/334
f 163/81/335 181/88/335 149/80/335
f 177/79/336 181/88/336 163/36/336
f 182/90/337 183/89/337 184/91/337
f 182/90/338 185/92/338 186/93/338
f 187/95/339 188/94/339 182/90/339
f 183/89/340 189/96/340 184/91/340
f 189/96/341 172/97/341 170/98/341
f 189/96/342 170/98/342 184/91/342
f 184/91/343 170/98/343 38/99/343
f 63/101/344 190/100/344 191/102/344
f 191/102/345 192/103/345 183/89/345
f 192/103/346 189/96/346 183/89/346
f 67/105/347 193/104/347 190/100/347
f 187/95/348 182/90/348 194/106/348
f 194/106/349 69/107/349 187/95/349
f 70/108/350 69/107/350 194/106/350
f 182/90/351 186/109/351 194/106/351
f 71/110/352 194/106/352 186/111/352
f 67/105/353 190/100/353 63/101/353
f 63/101/354 191/102/354 69/107/354
f 71/110/355 70/108/355 194/106/355
f 71/110/356 186/111/356 72/112/356
f 185/92/357 184/91/357 38/113/357
f 185/114/358 182/90/358 184/91/358
f 74/116/359 195/115/359 38/113/359
f 72/112/360 186/109/360 195/115/360
f 186/111/361 185/117/361 195/115/361
f 195/115/362 185/92/362 38/113/362
f 72/112/363 195/115/363 74/116/363
f 196/118/364 172/97/364 189/96/364
f 172/97/365 196/118/365 197/119/365
f 188/94/366 191/102/366 183/89/366
f 187/95/367 191/102/367 188/94/367
f 188/94/368 183/89/368 182/90/368
f 69/107/369 191/102/369 187/95/369
f 193/104/370 192/103/370 190/100/370
f 189/96/371 192/103/371 196/118/371
f 197/119/372 196/118/372 192/103/372
f 192/103/373 193/104/373 197/119/373
f 191/102/374 190/100/374 192/103/374
f 42/120/375 172/97/375 197/119/375
f 197/119/376 77/121/376 42/120/376
f 197/119/377 67/105/377 77/121/377
f 197/119/378 193/104/378 67/105/378
f 161/34/379 150/82/379 152/42/379
f 177/123/380 179/122/380 198/124/380
f 178/126/381 199/125/381 180/127/381
f 179/122/382 180/127/382 199/125/382
f 200/129/383 201/128/383 181/130/383
f 198/124/384 179/122/384 199/125/384
f 178/126/385 202/131/385 199/125/385
f 202/131/386 178/126/386 149/132/386
f 198/124/387 181/133/387 177/123/387
f 203/135/388 204/134/388 205/136/388
f 204/134/389 203/135/389 206/137/389
f 207/138/390 206/137/390 203/135/390
f 203/135/391 208/139/391 207/138/391
f 209/140/392 207/138/392 208/139/392
f 208/139/393 210/141/393 209/140/393
f 211/143/394 212/142/394 210/141/394
f 209/140/395 210/141/395 212/142/395
f 211/144/396 205/136/396 212/145/396
f 204/134/397 212/145/397 205/136/397
f 213/146/398 201/128/398 204/134/398
f 204/134/399 214/147/399 213/146/399
f 207/138/400 213/146/400 214/147/400
f 213/146/401 207/138/401 215/148/401
f 216/149/402 215/148/402 207/138/402
f 207/138/403 209/140/403 216/149/403
f 212/142/404 217/150/404 209/140/404
f 200/129/405 217/151/405 201/128/405
f 202/131/406 149/132/406 201/128/406
f 201/128/407 213/146/407 218/152/407
f 215/148/408 218/152/408 213/146/408
f 202/131/409 215/148/409 199/125/409
f 198/124/410 199/125/410 215/148/410
f 215/148/411 216/149/411 198/124/411
f 181/133/412 198/124/412 200/153/412
f 216/149/413 200/153/413 198/124/413
f 181/130/414 201/128/414 149/154/414
f 207/138/415 214/147/415 206/137/415
f 204/134/416 206/137/416 214/147/416
f 204/134/417 217/151/417 212/145/417
f 216/149/418 209/140/418 217/150/418
f 204/134/419 201/128/419 217/151/419
f 217/150/420 200/153/420 216/149/420
f 215/148/421 202/131/421 218/152/421
f 201/128/422 218/152/422 202/131/422
f 219/155/423 205/136/423 220/156/423
f 205/136/424 219/155/424 203/135/424
f 221/157/425 203/135/425 219/155/425
f 203/135/426 221/157/426 208/139/426
f 210/141/427 208/139/427 221/157/427
f 221/157/428 222/158/428 210/141/428
f 223/159/429 210/141/429 222/158/429
f 210/141/430 223/159/430 211/143/430
f 205/136/431 211/144/431 223/160/431
f 223/160/432 220/156/432 205/136/432
f 224/162/433 225/161/433 226/163/433
f 226/163/434 227/164/434 228/165/434
f 229/167/435 230/166/435 223/168/435
f 231/169/436 230/166/436 225/161/436
f 229/167/437 225/161/437 230/166/437
f 231/169/438 225/161/438 232/170/438
f 232/170/439 233/171/439 231/169/439
f 229/167/440 226/163/440 225/161/440
f 232/170/441 225/161/441 224/162/441
f 233/173/442 224/172/442 231/174/442
f 224/172/443 233/173/443 232/175/443
f 231/174/444 224/172/444 230/176/444
f 226/177/445 230/176/445 224/172/445
f 220/178/446 230/176/446 226/177/446
f 220/178/447 223/179/447 230/176/447
f 223/168/448 222/180/448 229/167/448
f 234/181/449 226/163/449 228/165/449
f 235/183/450 236/182/450 226/177/450
f 237/185/451 235/184/451 238/186/451
f 234/181/452 228/165/452 239/187/452
f 240/188/453 239/187/453 228/165/453
f 241/190/454 238/189/454 234/191/454
f 241/190/455 234/191/455 237/192/455
f 236/194/456 235/193/456 239/187/456
f 239/187/457 240/188/457 236/194/457
f 238/186/458 241/195/458 237/185/458
f 221/196/459 228/165/459 222/180/459
f 226/177/460 236/182/460 220/178/460
f 219/197/461 220/178/461 236/182/461
f 219/198/462 240/188/462 221/196/462
f 227/164/463 226/163/463 229/167/463
f 240/188/464 228/165/464 221/196/464
f 236/194/465 240/188/465 219/198/465
f 222/180/466 227/164/466 229/167/466
f 227/164/467 222/180/467 228/165/467
f 226/177/468 238/199/468 235/183/468
f 226/163/469 234/181/469 238/200/469
f 237/192/470 234/191/470 239/201/470
f 235/202/471 237/192/471 239/201/471
f 242/204/472 243/203/472 244/205/472
f 245/207/473 246/206/473 242/208/473
f 242/208/474 246/206/474 247/209/474
f 248/211/475 246/210/475 245/212/475
f 249/213/476 248/211/476 245/212/476
f 244/215/477 248/214/477 249/216/477
f 244/215/478 243/217/478 248/214/478
f 248/211/479 250/218/479 246/219/479
f 243/221/480 251/220/480 250/222/480
f 246/224/481 252/223/481 247/225/481
f 251/227/482 252/226/482 246/219/482
f 251/227/483 253/228/483 252/226/483
f 243/221/484 253/229/484 251/220/484
f 246/219/485 250/218/485 251/227/485
f 250/222/486 248/214/486 243/221/486
f 242/204/487 247/209/487 243/203/487
f 253/228/488 157/230/488 154/231/488
f 3/3/489 157/232/489 253/229/489
f 253/228/490 154/231/490 252/226/490
f 252/223/491 154/233/491 159/234/491
f 247/225/492 252/223/492 159/234/492
f 159/234/493 160/235/493 247/225/493
f 247/225/494 160/235/494 243/236/494
f 243/221/495 3/3/495 253/229/495
f 160/235/496 3/237/496 243/236/496
f 254/239/497 255/238/497 256/240/497
f 254/242/498 257/241/498 255/243/498
f 258/245/499 259/244/499 257/246/499
f 256/248/500 259/247/500 258/249/500
f 256/240/501 255/238/501 242/208/501
f 242/250/502 259/247/502 256/248/502
f 259/247/503 242/250/503 244/251/503
f 242/208/504 255/238/504 245/252/504
f 255/243/505 249/253/505 245/254/505
f 255/243/506 257/241/506 249/253/506
f 257/246/507 259/244/507 249/255/507
f 249/255/508 259/244/508 244/256/508
f 260/258/509 256/257/509 258/259/509
f 261/260/510 256/257/510 260/258/510
f 258/259/511 262/261/511 260/258/511
f 263/263/512 254/262/512 261/260/512
f 263/265/513 261/264/513 262/266/513
f 260/267/514 262/266/514 261/264/514
f 263/263/515 257/268/515 254/262/515
f 261/260/516 254/262/516 256/257/516
f 262/261/517 258/259/517 257/268/517
f 264/269/518 257/268/518 263/263/518
f 262/261/519 257/268/519 264/269/519
f 265/270/520 263/265/520 266/271/520
f 262/266/521 266/271/521 263/265/521
f 264/269/522 263/263/522 265/272/522
f 266/273/523 264/269/523 265/272/523
f 264/269/524 266/273/524 262/261/524
f 157/275/525 3/274/525 17/276/525

o 
usemtl axe.001
s off

v 28.030182 73.544662 6.253820
v 23.551659 68.092545 8.212880
v 32.806160 71.118202 12.914129
v 29.976959 69.353928 12.663651
v 33.472580 69.826447 14.485411
v 30.643370 68.062172 14.234940
v 33.578739 62.789669 19.336170
v 27.024181 61.361633 16.400351
v 33.546719 76.984749 6.742210
v 39.095280 66.229759 19.824551
v 40.101280 78.412788 9.678030
v 35.635380 72.882492 13.164600
v 36.301800 71.590729 14.735880
v 43.573799 71.681885 17.865501
v 30.823660 68.183685 11.342489
v 33.652882 69.947975 11.592970
v 31.490089 66.891953 12.913780
v 34.319290 68.656219 13.164249
v 36.482079 71.712250 11.843441
v 37.148510 70.420502 13.414721
v 1.744780 51.748501 10.164250
v 2.411190 50.456749 11.735530
v 3.257910 49.286518 10.414360
v 2.217560 51.528072 9.404190
v 42.349819 75.366791 13.817120
v -27.024960 32.100540 9.129520
v -26.212709 31.017389 7.716810
v -26.844671 32.222061 6.237070
v -27.691381 33.392300 7.558230

vt 0.033358 0.643728
vt 0.190411 0.923560
vt 0.402692 0.503812
vt 0.402692 0.647326
vt 0.408249 0.287497
vt 0.408249 0.367848
vt 0.492649 0.287497
vt 0.492649 0.367848
vt 0.403043 0.503812
vt 0.403044 0.647326
vt 0.033710 0.643728
vt 0.190763 0.923560
vt 0.033358 0.363896
vt 0.033710 0.363896
vt 0.190411 0.084064
vt 0.402692 0.360297
vt 0.408249 0.207147
vt 0.492649 0.207147
vt 0.403043 0.360297
vt 0.190763 0.084064
vt 0.408248 1.036942
vt 0.492649 1.036942
vt 0.483600 0.371280
vt 0.402049 0.371280
vt 0.402049 1.040375
vt 0.483600 1.040375
vt 0.450449 0.037941
vt 0.483600 0.210579
vt 0.402049 0.210579
vt 0.442825 0.041374
vt 0.000000 1.000000

vn -0.505774 0.627982 0.591466
vn -0.488772 0.712282 0.503743
vn -0.432547 0.597817 0.674920
vn -0.390650 0.518458 0.760654
vn -0.443396 0.483418 0.754789
vn -0.467782 0.667968 0.578790
vn -0.413226 0.700510 0.581833
vn -0.356613 0.456116 0.815344
vn -0.353594 0.559741 0.749441
vn 0.356613 -0.456115 -0.815345
vn 0.353594 -0.559741 -0.749441
vn 0.432546 -0.597818 -0.674920
vn 0.413227 -0.700509 -0.581834
vn 0.467781 -0.667969 -0.578791
vn 0.390649 -0.518458 -0.760654
vn 0.443396 -0.483418 -0.754789
vn 0.505774 -0.627982 -0.591466
vn 0.488772 -0.712281 -0.503744
vn -0.230305 -0.796996 0.558352
vn -0.740374 0.191688 -0.644285
vn 0.230304 0.796999 -0.558349
vn 0.740375 -0.191692 0.644281
vn 0.239627 -0.304268 -0.921955
vn -0.304240 0.607886 -0.733425
vn -0.430362 0.759404 -0.487949
vn 0.311343 -0.603487 0.734077
vn -0.311927 0.664769 0.678810
vn 0.544926 -0.519476 -0.658179
vn 0.434960 -0.517343 0.736998
vn -0.180654 0.675925 -0.714485
vn 0.324009 -0.624082 0.711013
vn -0.356903 0.656259 -0.664789
vn 0.357260 -0.426860 -0.830756
vn -0.844602 -0.530628 -0.071283
vn -0.843939 -0.530687 -0.078342

f 267/277/526 268/278/526 269/279/526
f 270/280/527 269/279/527 268/278/527
f 269/281/528 270/282/528 271/283/528
f 272/284/528 271/283/528 270/282/528
f 271/285/529 272/286/529 273/287/529
f 274/288/530 273/287/530 272/286/530
f 275/289/531 267/277/531 269/279/531
f 273/287/529 276/290/529 271/285/529
f 277/291/532 275/289/532 278/292/532
f 269/279/531 278/292/531 275/289/531
f 278/293/528 269/281/528 279/294/528
f 271/283/528 279/294/528 269/281/528
f 279/295/533 271/285/533 280/296/533
f 276/290/534 280/296/534 271/285/534
f 281/280/535 268/278/535 282/279/535
f 267/277/536 282/279/536 268/278/536
f 283/284/537 281/282/537 284/283/537
f 282/281/537 284/283/537 281/282/537
f 274/288/538 283/286/538 273/287/538
f 284/285/539 273/287/539 283/286/539
f 282/279/540 267/277/540 275/289/540
f 273/287/539 284/285/539 276/290/539
f 282/279/540 275/289/540 285/292/540
f 277/291/541 285/292/541 275/289/541
f 284/283/537 282/281/537 286/294/537
f 285/293/537 286/294/537 282/281/537
f 276/290/542 284/285/542 280/296/542
f 286/295/543 280/296/543 284/285/543
f 270/280/544 268/278/544 281/280/544
f 283/286/545 274/288/545 272/286/545
f 279/295/546 280/296/546 286/295/546
f 285/292/547 277/291/547 278/292/547
f 272/284/528 270/282/528 287/297/528
f 287/297/528 288/298/528 272/284/528
f 281/282/537 283/284/537 289/298/537
f 289/298/548 290/297/548 281/282/548
f 270/299/549 281/300/549 290/301/549
f 290/301/550 287/302/550 270/299/550
f 283/300/551 272/299/551 288/302/551
f 288/302/551 289/301/551 283/300/551
f 278/293/552 279/294/552 291/303/552
f 286/294/553 285/293/553 291/303/553
f 279/304/554 286/305/554 291/306/554
f 285/305/555 278/304/555 291/306/555
f 289/298/556 288/297/556 292/298/556 293/307/556
f 287/297/557 290/298/557 294/297/557 295/307/557
f 290/297/558 289/298/558 293/297/558 294/307/558
f 288/298/528 287/297/528 295/298/528 292/307/528
f 294/297/559 293/298/559 295/297/559
f 292/298/560 295/297/560 293/298/560

