mtllib animateBarbarianAxe__000038.mtl

o fat
usemtl fat.001
s off

v -0.168940 37.552929 -2.561370
v 1.860240 37.156109 7.026690
v 0.431000 37.166828 2.286180
v 0.499690 59.282322 -7.887980
v 11.376400 64.338608 -1.900470
v 2.894930 55.514458 -6.542950
v -0.304890 51.295162 -4.475580
v 9.808110 61.202549 0.669590
v 7.748620 57.260368 -0.490060
v 6.922680 51.488708 -0.285300
v 4.199040 51.181511 -4.437300
v 6.592740 56.317741 -5.603000
v 9.061010 34.116272 4.378870
v 9.683300 38.826111 -0.753170
v 10.769110 38.248310 -1.348440
v 6.672680 36.134010 5.062660
v 3.993900 35.907063 8.004780
v 4.557730 38.991791 -6.076610
v 4.051440 39.348701 -4.653850
v 0.742100 38.077469 -3.634070
v -0.378710 34.111580 -2.144730
v 0.286480 64.941429 -7.761460
v 0.332110 66.932190 -7.853760
v -0.060830 58.637310 6.341380
v 4.918930 58.671322 6.146220
v 5.821671 62.904949 7.732270
v 7.015090 63.949059 2.969780
v 5.571690 65.671204 6.483210
v 9.642750 66.328232 5.862960
v 4.438750 51.697048 4.584540
v 1.028340 51.462612 5.805700
v 0.081480 64.242172 7.648260
v 6.022500 69.775063 -3.258890
v 12.717340 65.805611 -0.165370
v 11.686749 67.174576 3.217270
v 2.067900 70.104973 4.019850
v 5.479220 71.110092 0.380300
v -0.719050 69.299942 4.168330
v 2.648820 75.516594 0.597050
v 3.647520 73.060211 -2.061940
v 0.539800 73.176743 -3.516340
v 0.200890 76.138191 -0.734080
v 0.637380 71.033577 -6.053440
v 0.442540 47.146729 6.240860
v 5.364230 47.124401 5.637480
v 8.418850 46.624863 0.472170
v 4.993240 45.882813 -4.695600
v -0.166710 45.777031 -5.400140
v 10.424809 65.775581 6.032370
v 12.332090 62.548080 -0.733890
v 12.474421 66.311256 4.217120
v 13.424240 65.166389 1.333630
v 8.728930 63.272881 6.566500
v 2.400330 75.098427 6.102850
v 0.946070 73.629089 7.833060
v 2.057260 70.725441 5.036240
v 1.446720 69.706741 6.839410
v 0.468890 72.262947 7.795850
v 1.416700 75.593216 7.597320
v -0.378590 75.470917 7.812100
v 3.079390 76.362541 3.379330
v 0.302080 79.471230 7.849510
v -1.004450 79.429230 8.080891
v 1.457090 76.880089 8.189590
v 2.045060 78.713577 7.138850
v 1.073010 80.742371 5.130020
v -0.558230 80.733063 4.885630
v 0.019640 73.649353 8.328930
v -1.007120 76.224258 8.060619
v -1.180110 74.230461 9.281000
v -1.096090 73.630409 8.668920
v -1.106610 72.048920 8.725150
v 0.292030 69.283150 8.407030
v -1.122470 69.268341 8.856390
v 2.929020 78.700493 3.342370
v 2.465550 79.927139 2.734260
v -0.085670 80.145706 1.477580
v 12.474010 65.201958 6.876730
v 14.255239 64.971191 3.813190
v 8.759359 55.511772 3.574060
v 8.588389 58.880161 6.615580
v 13.556690 61.520126 0.776280
v 8.608220 52.893658 7.286700
v 9.999920 49.325882 11.731339
v 6.689560 50.965691 10.806060
v 11.332190 51.350819 8.638250
v 12.613879 53.974590 9.329580
v 11.030491 51.505543 13.358200
v 11.260200 55.245972 10.248441
v 9.435480 54.050339 13.789120
v 8.541490 54.602661 10.185360
v 6.864600 54.342224 12.578300
v 12.163879 52.853561 6.385560
v 11.899509 52.134392 7.402580
v 14.710211 57.350277 6.126160
v 12.648720 59.407722 7.664000
v 8.877000 55.796898 8.936760
v 13.012541 53.875751 3.957280
v 6.171290 47.458000 17.529930
v 4.617270 48.492653 17.201120
v 7.095370 48.338753 18.426880
v 6.304040 50.027817 18.733070
v 4.809680 50.385178 18.111259
v 1.519000 50.736599 22.136391
v 1.444450 49.835831 21.956711
v 2.605490 49.568802 21.404518
v 3.347100 50.188480 21.415230
v 3.974600 49.187668 22.631901
v 2.069020 50.685509 19.723080
v 2.635370 50.781597 20.996439
v 0.674820 50.606800 21.442799
v 0.578890 50.239891 23.154289
v 0.016510 50.116940 22.538530
v 2.613700 48.347961 24.191872
v 4.357870 44.898117 20.341179
v 3.512100 44.140938 21.952900
v 2.157200 43.604210 24.487690
v 1.825390 48.698318 23.231821
v 4.216490 44.642738 22.556728
v 5.336720 45.393871 21.146221
v 0.552650 47.347511 25.823450
v 3.050290 26.671150 -5.328390
v 5.899290 24.401510 -14.441580
v 3.549510 20.531212 -10.787420
v 8.923480 27.611469 -6.422680
v 10.854530 22.188251 -11.811300
v 5.357200 29.438030 -8.268950
v 7.020270 23.513220 -5.048250
v 7.571210 18.816690 -8.302790
v 6.979210 24.806171 -3.362360
v 7.250190 26.858290 -2.466350
v 10.057581 31.135111 -5.170120
v 7.381110 30.392288 1.371560
v 9.456630 14.182940 -19.051559
v 10.496720 11.907169 -20.736599
v 7.340730 13.534860 -22.075510
v 8.466510 11.209050 -17.681610
v 5.917920 13.477890 -18.590891
v 5.593890 10.811390 -20.285730
v 6.312920 9.320750 -24.798639
v 9.350861 10.016270 -25.064840
v 7.219490 5.235750 -17.404480
v 13.222380 6.755690 -17.790131
v 10.285540 6.612250 -13.301311
v 12.879849 5.089680 -13.905610
v 9.078210 4.001410 -12.889900
v -8.403030 66.917694 -6.887050
v -1.782790 55.482670 -6.780730
v -9.346340 61.431633 -4.475000
v -7.253850 57.159801 -1.172150
v -4.918850 51.323326 -2.941290
v -6.396700 51.345840 1.759880
v -5.615060 56.234909 -6.173010
v -9.358070 38.688850 0.879780
v -7.406470 40.844303 7.221060
v -10.510540 37.951008 0.891940
v -5.069840 41.488846 5.966090
v -5.363370 34.714588 -3.624110
v -4.737030 36.881172 -3.670180
v -1.265900 36.830090 -3.290480
v -4.993800 58.604851 5.744470
v -5.582980 62.828941 7.621830
v -10.538510 61.747242 1.904250
v -5.372670 65.596306 6.348890
v -10.644819 64.825806 0.654510
v -2.528670 51.348419 5.853630
v -10.366560 67.714180 -6.160470
v -4.380960 69.732216 -5.251040
v -11.365530 66.985443 -2.085230
v -3.203420 70.076210 2.958550
v -5.139100 71.106537 -1.303270
v -2.503280 75.517998 -0.044740
v -2.616420 73.050606 -3.148950
v -3.837170 46.744709 6.503090
v -7.974770 46.410271 1.897630
v -5.576800 45.927246 -3.700200
v -11.988920 64.230232 -1.195890
v -9.814321 65.018356 -8.268160
v -12.526360 66.257362 -3.271390
v -11.682570 66.517120 -6.283580
v -10.188101 61.173782 -1.279260
v -2.832970 73.635559 7.307950
v -3.755480 75.108963 5.247480
v -3.810550 70.733612 3.736610
v -3.034010 69.713242 6.225680
v -2.359220 72.267700 7.404710
v -1.546610 75.472931 7.649820
v -3.214910 75.601151 6.953720
v -3.662010 76.374092 2.442590
v -2.198250 79.475494 7.502060
v -3.410920 76.888443 7.513170
v -3.683970 78.723404 6.342770
v -2.194250 80.747971 4.676040
v -2.076780 73.652946 8.037621
v -2.354460 69.287308 8.042780
v -3.499420 78.711479 2.449140
v -2.883580 79.936287 1.990960
v -13.679850 63.872372 -3.032200
v -13.625940 65.572464 -6.185670
v -9.855590 58.067242 -7.106270
v -7.107790 59.636951 -10.293360
v -11.139480 64.118835 -9.101450
v -10.418071 52.120407 -16.645439
v -8.542650 55.456890 -12.372280
v -8.708900 51.112762 -13.395300
v -10.616020 55.592060 -15.135570
v -12.846709 56.491898 -13.370830
v -13.151091 52.002609 -15.658310
v -13.048981 55.229668 -11.667871
v -13.766010 51.232208 -12.788600
v -11.632660 50.610317 -10.992519
v -11.023220 53.532639 -10.978060
v -10.249300 58.336319 -14.093670
v -10.449520 57.172779 -14.576599
v -13.468241 61.220940 -11.312070
v -13.558969 59.453182 -8.407550
v -10.579690 56.063271 -9.852870
v -9.795120 61.131271 -13.652580
v -10.915930 44.979900 -17.320301
v -10.265350 44.494873 -15.609961
v -12.470880 45.048061 -17.189270
v -12.998570 44.643120 -15.371111
v -11.870910 44.287151 -14.262640
v -11.914471 39.156269 -13.803290
v -12.499880 39.236267 -13.096540
v -12.160940 40.245590 -14.491650
v -12.919550 40.820572 -14.314960
v -13.596910 40.092091 -15.692349
v -12.496810 40.807579 -13.390289
v -11.300730 41.399761 -12.978000
v -11.481200 39.215611 -12.680640
v -12.320230 37.783909 -13.253309
v -11.528130 37.877739 -12.980850
v -13.333820 37.901848 -16.038139
v -10.494770 39.362999 -19.689270
v -10.367550 41.253189 -19.159109
v -10.989700 36.489128 -19.950741
v -12.410330 38.206970 -15.189600
v -11.546750 39.437950 -19.702011
v -11.712580 41.345730 -19.344000
v -12.606050 35.189880 -16.199730
v -5.862070 19.983490 4.276790
v -2.875730 28.065861 9.034760
v -3.494460 19.887440 9.371201
v -10.802079 20.434629 7.753370
v -8.751480 27.968460 7.623310
v -5.192920 27.875320 5.099020
v -6.868430 26.245001 11.468550
v -7.494670 20.466070 12.326560
v -6.799250 28.271862 11.656719
v -6.362990 30.720251 10.571919
v -9.929520 31.334492 6.221900
v -6.026380 36.254261 8.743290
v -10.540990 6.849710 7.760530
v -9.478490 9.687400 8.107201
v -7.404780 7.509450 5.727540
v -8.490330 7.928450 10.697201
v -5.652350 6.191870 8.699500
v -5.937370 9.266220 8.825701
v -6.330740 2.485020 5.728550
v -9.376890 2.894940 5.146420
v -7.169260 2.792500 14.063230
v -13.196130 3.445490 12.860690
v -10.250071 4.604920 16.950109
v -12.828190 2.941520 16.934361
v -9.012720 2.317540 18.246349

vt 0.550479 0.485338
vt 0.414517 0.485338
vt 0.489174 0.497239
vt 0.490853 0.675485
vt 0.356970 0.710738
vt 0.458986 0.602657
vt 0.458693 0.603155
vt 0.491001 0.506534
vt 0.357039 0.710738
vt 0.272881 0.708251
vt 0.307767 0.663467
vt 0.329118 0.504113
vt 0.420682 0.504388
vt 0.307693 0.663467
vt 0.420389 0.504181
vt 0.390374 0.619683
vt 0.389206 0.622726
vt 0.390855 0.620128
vt 0.309151 0.663075
vt 0.578845 0.971377
vt 0.529882 0.993867
vt 0.501054 0.950636
vt 0.597833 0.993868
vt 0.684209 0.993870
vt 0.691613 0.940228
vt 0.584242 0.936155
vt 0.602549 0.993867
vt 0.689094 0.993870
vt 0.694409 0.971380
vt 0.730001 0.975635
vt 0.490853 0.781888
vt 0.490853 0.820915
vt 0.240556 0.660920
vt 0.133663 0.660928
vt 0.131880 0.753091
vt 0.060606 0.782384
vt 0.055577 0.663688
vt 0.136145 0.808744
vt 0.060014 0.783494
vt 0.058190 0.859642
vt 0.160773 0.512959
vt 0.067037 0.515196
vt 0.240700 0.512959
vt 0.131877 0.752996
vt 0.240556 0.781375
vt 0.390182 0.870896
vt 0.298691 0.847983
vt 0.294173 0.886121
vt 0.181129 0.899551
vt 0.052544 0.886601
vt 0.145152 0.921474
vt 0.235241 0.891030
vt 0.142740 0.921054
vt 0.172936 0.966074
vt 0.456563 0.999059
vt 0.389917 0.922986
vt 0.429989 0.941889
vt 0.491140 0.942697
vt 0.490646 0.999330
vt 0.490853 0.898039
vt 0.701416 0.118225
vt 0.813217 0.120956
vt 0.790107 0.184348
vt 0.877923 0.002315
vt 0.872775 0.120438
vt 0.505869 0.118716
vt 0.564263 0.119120
vt 0.507564 0.183764
vt 0.697589 0.180917
vt 0.580429 0.182675
vt 0.710756 0.001536
vt 0.701372 0.182427
vt 0.812168 0.002315
vt 0.857243 0.184348
vt 0.697567 0.116528
vt 0.503935 0.000692
vt 0.561277 0.000692
vt 0.688827 -0.000098
vt 0.002866 0.854679
vt 0.027518 0.706813
vt 0.061197 0.782654
vt 0.055608 0.663958
vt 0.251604 0.781884
vt 0.357109 0.710738
vt 0.243886 0.876138
vt 0.247300 0.848527
vt -0.000514 0.880403
vt 0.006948 0.782948
vt 0.674684 0.829607
vt 0.705811 0.784366
vt 0.654033 0.662928
vt 0.703232 0.671848
vt 0.720473 0.730776
vt 0.697736 0.853617
vt 0.729837 0.853035
vt 0.623758 0.856571
vt 0.587609 0.811448
vt 0.658187 0.605708
vt 0.748523 0.593788
vt 0.716351 0.931575
vt 0.747491 0.935506
vt 0.695349 0.885675
vt 0.676247 0.904603
vt 0.649719 0.961956
vt 0.745560 1.001324
vt 0.725611 0.781438
vt 0.747491 0.878462
vt 0.747491 0.808438
vt 0.720379 0.731031
vt 0.747491 0.790807
vt 0.720762 0.730332
vt 0.748639 0.732530
vt 0.746944 0.628012
vt 0.703659 0.671442
vt 0.731857 0.666086
vt 0.747085 0.666819
vt 0.703186 0.671176
vt 0.611291 0.885598
vt 0.604148 0.909350
vt 0.550618 0.823662
vt 0.550618 0.934468
vt 0.625864 0.557513
vt 0.571978 0.557920
vt 0.578607 0.510287
vt 0.669444 0.510287
vt 0.756032 0.560223
vt 0.679695 0.557918
vt 0.877240 0.461159
vt 0.992418 0.461159
vt 0.944262 0.560223
vt 0.756457 0.510287
vt 0.806202 0.560223
vt 0.498275 0.560223
vt 0.875566 0.382888
vt 0.758260 0.308662
vt 0.875912 0.308662
vt 0.759996 0.360654
vt 0.669163 0.382888
vt 0.671223 0.308662
vt 0.584325 0.382888
vt 0.577057 0.308662
vt 0.498223 0.363687
vt 0.498247 0.308662
vt 0.992597 0.308662
vt 0.992439 0.363687
vt 0.759483 0.410364
vt 0.758924 0.382888
vt 0.665903 0.461159
vt 0.580075 0.461159
vt 0.498223 0.402657
vt 0.992438 0.402657
vt 0.760539 0.449273
vt 0.498220 0.461159
vt 0.875438 0.575163
vt 0.762705 0.196431
vt 0.858161 0.196355
vt 0.690657 0.196417
vt 0.588027 0.196417
vt 0.498144 0.196431
vt 0.991918 0.196431
vt 0.375723 0.009258
vt 0.380090 0.017573
vt 0.356438 0.030356
vt 0.342839 0.029458
vt 0.369327 0.043627
vt 0.316032 0.012201
vt 0.336848 0.019568
vt 0.249292 0.041099
vt 0.371147 0.002582
vt 0.416197 0.004791
vt 0.408124 0.000758
vt 0.128136 0.016613
vt 0.154876 0.002573
vt 0.119423 0.002194
vt 0.160447 0.001473
vt 0.065726 0.014292
vt 0.105093 0.028910
vt 0.000825 0.069213
vt 0.000703 0.039244
vt 0.249314 0.055441
vt 0.429228 0.045736
vt 0.102506 0.115410
vt 0.153549 0.117195
vt 0.189513 0.114692
vt 0.228429 0.109580
vt 0.194639 0.033982
vt 0.406548 0.108121
vt 0.355355 0.108206
vt 0.448349 0.035630
vt 0.498209 0.039288
vt 0.461840 0.047992
vt 0.483032 0.114221
vt 0.406174 0.120334
vt 0.355217 0.119080
vt 0.243215 0.037501
vt 0.249314 0.089732
vt 0.000703 0.095058
vt 0.249292 0.105039
vt 0.160984 0.032072
vt 0.413806 0.033644
vt 0.442212 0.108407
vt 0.443088 0.117732
vt 0.023914 0.327327
vt 0.104127 0.227894
vt 0.000784 0.227894
vt 0.216171 0.327327
vt 0.216985 0.228421
vt 0.105699 0.228145
vt 0.104981 0.327662
vt 0.217575 0.327327
vt 0.351490 0.301452
vt 0.217290 0.227894
vt 0.351571 0.227894
vt 0.352420 0.301452
vt 0.489174 0.227894
vt 0.352342 0.227894
vt 0.471690 0.333380
vt 0.351597 0.328057
vt 0.217345 0.328075
vt 0.352312 0.363299
vt 0.470864 0.334174
vt 0.352330 0.328057
vt 0.216660 0.380224
vt 0.216104 0.328075
vt 0.104983 0.328371
vt 0.217232 0.380224
vt 0.351611 0.363299
vt 0.351459 0.420971
vt 0.352499 0.420971
vt 0.351589 0.497239
vt 0.229465 0.497239
vt 0.352627 0.497239
vt 0.229583 0.497239
vt 0.133020 0.497239
vt 0.072972 0.497239
vt 0.025422 0.328212
vt 0.002386 0.497239
vt 0.216130 0.152222
vt 0.223982 0.125749
vt 0.105883 0.155747
vt 0.351732 0.147623
vt 0.223132 0.128232
vt 0.218721 0.149411
vt 0.469070 0.149411
vt 0.483427 0.127273
vt 0.352306 0.146326
vt 0.017963 0.152222
vt 0.104256 0.155747
vt 0.009616 0.131504
vt 0.104128 0.227914
vt 0.000790 0.227921
vt 0.216984 0.228396
vt 0.351571 0.227971
vt 0.217291 0.227882
vt 0.352342 0.227879
vt 0.489111 0.227891
vt 0.948232 0.041698
vt 0.989968 0.003451
vt 0.971575 0.059997
vt 0.909211 0.004273
vt 0.996004 0.120663
vt 0.925604 0.058708
vt 0.885225 0.122889
vt 0.516483 0.798440
vt 0.501430 0.685191
vt 0.597947 0.686709
vt 0.594444 0.793024
vt 0.950876 0.082499
vt 0.943924 0.157220
vt 0.507177 0.624822
vt 0.600053 0.622523
vt 0.901715 0.182549
vt 0.982420 0.184037
vt 0.730212 0.975635
vt 0.685579 0.991654
vt 0.692830 0.969164

vn 0.396249 -0.910065 -0.121526
vn 0.483935 -0.004747 -0.875091
vn -0.087698 -0.383884 -0.919207
vn 0.888337 -0.458846 -0.017822
vn 0.832787 -0.138193 -0.536068
vn -0.003410 -0.437911 -0.899012
vn 0.300622 -0.342151 -0.890258
vn 0.875258 -0.470726 -0.111087
vn 0.164311 0.330950 -0.929233
vn 0.889221 -0.441562 -0.119620
vn -0.607078 -0.547428 -0.576003
vn -0.619229 -0.539672 -0.570359
vn -0.610800 -0.520899 -0.596312
vn -0.324320 -0.902250 0.284185
vn -0.206118 -0.963918 0.168458
vn 0.500200 0.176958 0.847635
vn 0.429204 -0.828152 0.360482
vn 0.963174 -0.268720 0.009280
vn 0.464438 -0.051633 -0.884099
vn 0.039007 -0.357836 0.932969
vn 0.905123 -0.112775 0.409919
vn 0.211646 -0.840425 0.498890
vn 0.039699 -0.220940 0.974479
vn 0.876230 -0.161958 0.453862
vn 0.338200 -0.018908 0.940884
vn -0.066635 -0.224967 0.972085
vn 0.560415 0.366297 -0.742807
vn 0.468517 0.037385 -0.882663
vn 0.946593 -0.268642 0.178309
vn 0.557103 0.814874 -0.160049
vn 0.083743 0.416359 0.905336
vn 0.506162 0.296072 -0.810025
vn 0.936141 0.211451 0.280943
vn 0.047631 0.513615 0.856698
vn 0.295527 0.819766 0.490559
vn 0.026134 0.569439 0.821618
vn -0.078244 0.436218 0.896433
vn 0.625557 0.367970 0.687951
vn 0.822224 0.537361 -0.187594
vn 0.489134 0.626291 -0.607048
vn 0.301347 0.754141 -0.583491
vn 0.287786 0.819252 0.495989
vn 0.588138 0.783717 -0.199704
vn 0.787274 0.607538 -0.105345
vn 0.477210 0.584193 -0.656498
vn 0.311167 0.731865 -0.606258
vn 0.494200 0.318319 -0.808975
vn 0.119056 0.245621 0.962027
vn 0.858661 0.133358 0.494892
vn 0.811574 0.162238 -0.561272
vn 0.009753 0.050146 -0.998694
vn 0.120302 0.190900 0.974210
vn 0.333668 0.049630 0.941383
vn 0.884481 0.211102 0.416088
vn 0.827269 0.325759 0.457720
vn 0.861672 0.272913 0.427832
vn 0.821571 0.149954 -0.550031
vn 0.130023 0.167009 -0.977344
vn 0.762726 0.334327 -0.553602
vn 0.610367 0.118388 -0.783222
vn 0.129134 0.187002 -0.973835
vn -0.455658 -0.231576 -0.859505
vn 0.601123 0.094048 0.793604
vn 0.401606 0.735566 0.545578
vn 0.303375 -0.411330 0.859518
vn 0.784853 0.015296 -0.619493
vn -0.468163 -0.425025 0.774711
vn 0.748259 0.663193 -0.016839
vn 0.243332 0.820708 0.516940
vn 0.899050 -0.030093 -0.436810
vn 0.729777 0.681589 -0.053500
vn -0.129622 -0.588927 -0.797724
vn -0.625314 -0.764998 0.154145
vn -0.697584 0.566363 0.438873
vn 0.825869 -0.193933 0.529463
vn 0.422004 -0.171648 0.890196
vn 0.112113 0.091891 0.989438
vn 0.974864 -0.121960 0.186456
vn 0.980526 -0.168774 -0.100423
vn 0.983711 -0.148666 0.101052
vn 0.264303 -0.821943 0.504534
vn 0.164613 0.200144 0.965839
vn 0.898306 -0.037180 0.437795
vn 0.967494 0.022904 0.251856
vn -0.066184 0.911001 0.407058
vn 0.450553 0.333465 0.828132
vn 0.665169 0.334789 0.667432
vn 0.680063 0.338923 0.650112
vn 0.460659 -0.184550 0.868179
vn 0.285379 -0.262006 0.921906
vn 0.037983 0.923349 0.382079
vn -0.050603 -0.006275 0.998699
vn 0.224178 -0.680355 0.697755
vn 0.505109 0.027311 0.862624
vn 0.507062 -0.812588 -0.287381
vn 0.940544 0.034446 0.337921
vn 0.008566 -0.999945 -0.006004
vn 0.487542 0.147566 0.860539
vn 0.792718 0.076980 0.604709
vn 0.262818 -0.962551 -0.066504
vn 0.302079 0.043223 0.952303
vn 0.983477 0.060555 -0.170608
vn 0.928139 0.192846 -0.318385
vn 0.750017 -0.295810 0.591584
vn 0.135933 -0.417727 0.898347
vn 0.809244 -0.125013 0.574018
vn 0.027735 -0.292212 0.955951
vn 0.506821 0.716883 0.478760
vn 0.971869 0.066079 0.226061
vn 0.878441 0.432567 0.203043
vn 0.762456 0.601477 0.238509
vn 0.473376 0.318785 0.821152
vn 0.514333 0.391182 -0.763177
vn 0.423641 0.460713 -0.779918
vn 0.155956 0.976806 -0.146723
vn 0.039680 0.952754 -0.301139
vn 0.904725 -0.114917 0.410204
vn 0.099237 0.918376 0.383064
vn 0.936327 -0.134418 -0.324382
vn 0.577186 0.806203 -0.129972
vn -0.995454 0.030843 -0.090115
vn 0.615922 0.727063 0.303348
vn 0.829254 0.265097 -0.491997
vn 0.084245 -0.790624 -0.606479
vn -0.263902 0.369021 0.891167
vn -0.235378 -0.792577 -0.562512
vn -0.157952 -0.793601 -0.587578
vn 0.886467 -0.455130 0.083865
vn 0.883410 -0.464402 0.062591
vn 0.741699 0.401284 0.537452
vn 0.759553 0.387618 0.522333
vn 0.046311 0.989054 0.140096
vn -0.229930 0.951818 0.202916
vn -0.793057 0.314826 -0.521483
vn -0.878071 0.403103 -0.257873
vn -0.154440 -0.804459 -0.573581
vn -0.160249 -0.785820 -0.597333
vn 0.934929 -0.354749 -0.007825
vn 0.870248 -0.489706 0.053451
vn 0.707535 0.202974 0.676902
vn 0.677172 0.211695 0.704715
vn -0.188924 0.734510 0.651769
vn -0.996932 -0.073898 0.025799
vn 0.064390 -0.463041 -0.883995
vn -0.283800 -0.844281 -0.454585
vn 0.868343 -0.486006 0.098891
vn 0.976314 -0.007342 -0.216231
vn 0.853907 0.197156 0.481636
vn 0.667757 0.119953 0.734651
vn -0.089703 0.013996 0.995870
vn -0.262983 0.122105 0.957042
vn -0.975868 0.075215 -0.204998
vn 0.880765 -0.459945 0.112712
vn -0.163520 -0.797472 -0.580775
vn -0.981111 0.155913 -0.114508
vn -0.289620 0.572817 0.766812
vn -0.996453 0.082317 0.017483
vn -0.274501 0.561812 0.780395
vn 0.906212 -0.215810 -0.363602
vn -0.062855 -0.379610 -0.923009
vn -0.429827 -0.786519 -0.443438
vn -0.287401 -0.839939 -0.460328
vn 0.604189 -0.783235 0.146626
vn 0.785050 -0.563374 0.257499
vn 0.657069 0.294314 0.694003
vn 0.729958 0.224987 0.645401
vn -0.062404 0.793160 0.605808
vn -0.157742 0.829992 0.535006
vn -0.957265 0.171758 -0.232688
vn -0.951397 0.206572 -0.228411
vn 0.379809 -0.211086 0.900660
vn -0.468314 0.548486 0.692708
vn 0.051367 0.993875 -0.097847
vn -0.113977 0.992372 -0.046984
vn -0.080389 0.995984 -0.039406
vn -0.295609 0.937347 0.184381
vn -0.386921 0.905833 0.172507
vn 0.693613 0.214315 0.687728
vn 0.765396 -0.186223 0.616028
vn -0.372811 -0.742828 -0.556075
vn -0.080868 -0.960664 0.265679
vn -0.482293 -0.765435 -0.426031
vn -0.388565 -0.819862 -0.420527
vn -0.741788 -0.643040 -0.190394
vn -0.423091 0.427272 -0.799020
vn 0.219936 0.974997 0.031782
vn -0.104364 0.910877 0.399264
vn -0.829190 -0.191552 -0.525121
vn -0.851922 -0.176996 -0.492850
vn 0.745547 0.028668 0.665836
vn 0.774659 0.030783 0.631630
vn -0.107467 0.902292 0.417516
vn 0.624018 -0.011327 0.781328
vn 0.608821 -0.791576 -0.052389
vn 0.494879 -0.866276 -0.068271
vn -0.842567 -0.180026 -0.507613
vn 0.797584 0.276481 0.536114
vn -0.896241 -0.253371 -0.364080
vn -0.260002 -0.624557 -0.736429
vn 0.763882 -0.620376 -0.177814
vn -0.274446 0.312728 0.909330
vn 0.807324 0.059968 0.587053
vn 0.608268 -0.741598 -0.282919
vn 0.423318 0.803500 0.418556
vn 0.432431 0.792943 0.429236
vn -0.866500 -0.191311 -0.461062
vn -0.081518 0.912855 0.400063
vn 0.689529 -0.021210 0.723948
vn 0.520098 -0.848425 0.098353
vn -0.911045 0.230106 -0.342122
vn 0.557540 0.676540 -0.481086
vn 0.584022 0.653309 -0.481774
vn 0.831211 -0.213913 0.513157
vn 0.817090 -0.260531 0.514284
vn -0.599260 -0.502279 0.623381
vn -0.515051 -0.592551 0.619360
vn 0.904137 -0.328103 0.273651
vn -0.532303 -0.278728 0.799352
vn 0.510058 0.137652 -0.849054
vn 0.873588 -0.386360 0.295923
vn 0.872512 -0.373895 0.314524
vn -0.398583 -0.667857 0.628569
vn 0.905212 -0.264692 0.332460
vn -0.562144 -0.662817 0.494639
vn -0.868257 0.344307 -0.357187
vn 0.904522 -0.145968 0.400666
vn -0.416640 -0.527405 0.740443
vn 0.919745 -0.160863 0.358040
vn 0.538723 0.439131 -0.718986
vn 0.419753 0.359331 -0.833480
vn -0.377536 0.273018 -0.884832
vn -0.758682 -0.057131 -0.648951
vn -0.489300 -0.588835 0.643319
vn -0.979230 -0.186259 -0.080107
vn 0.555359 0.643683 -0.526544
vn 0.835226 -0.025021 0.549337
vn -0.591852 -0.379927 0.710892
vn -0.875730 0.330260 -0.352172
vn 0.663025 0.487218 -0.568345
vn -0.917497 0.139867 -0.372338
vn -0.897530 0.155241 -0.412724
vn 0.569433 0.494487 -0.656680
vn 0.825568 -0.450963 0.339219
vn 0.947004 -0.199211 0.251991
vn -0.682412 -0.598198 0.420086
vn -0.570471 -0.687940 0.448667
vn -0.881314 0.388638 -0.268788
vn -0.199624 0.565697 -0.800086
vn -0.951347 -0.303836 -0.051217
vn 0.894885 0.270410 -0.355048
vn 0.185735 -0.855976 -0.482502
vn 0.153063 -0.856927 -0.492186
vn 0.586174 0.613085 0.529648
vn 0.552824 0.699962 -0.452150
vn -0.674497 0.174098 0.717456
vn 0.622804 0.654671 0.428393
vn -0.815922 0.195579 0.544077
vn 0.160381 -0.912189 -0.377079
vn 0.210611 -0.917443 -0.337552
vn 0.532725 0.759745 0.372816
vn 0.247778 0.037968 0.968073
vn -0.785693 0.432954 0.441857
vn -0.091757 -0.982946 -0.159369
vn -0.230224 -0.142238 -0.962687
vn 0.240080 -0.401742 -0.883722
vn 0.407284 -0.425371 -0.808195
vn -0.916288 -0.279675 -0.286703
vn -0.269401 -0.535642 -0.800319
vn -0.235648 -0.557276 -0.796187
vn -0.930779 -0.260085 -0.256916
vn -0.176967 -0.111546 -0.977875
vn -0.923023 -0.294074 -0.248089
vn 0.536247 -0.835631 0.119001
vn 0.358714 -0.911868 0.199552
vn -0.223309 -0.633260 -0.741022
vn 0.346869 -0.529029 0.774474
vn 0.655541 -0.173884 0.734867
vn -0.235609 0.311146 0.920693
vn -0.107832 0.052286 0.992793
vn -0.937760 -0.181164 0.296286
vn -0.109821 -0.043518 -0.992998
vn -0.106530 -0.416195 0.903013
vn -0.633782 -0.689242 0.351093
vn -0.728795 0.235798 0.642851
vn -0.119921 -0.025809 0.992448
vn -0.707265 -0.230214 0.668414
vn 0.015753 -0.072068 0.997275
vn 0.052354 -0.228026 0.972246
vn -0.069366 0.573570 -0.816214
vn -0.095909 0.018636 -0.995216
vn -0.662415 -0.379468 0.645918
vn -0.330129 0.939904 0.087151
vn -0.109543 0.422236 0.899843
vn -0.089537 0.593064 -0.800162
vn -0.744219 0.324979 0.583546
vn -0.601460 0.646467 0.469389
vn -0.487086 0.619021 0.616084
vn -0.058010 0.559626 0.826712
vn -0.162592 0.644282 0.747305
vn -0.815078 0.356784 0.456457
vn -0.725851 0.551114 -0.411599
vn -0.324355 0.627713 -0.707651
vn -0.102965 0.780495 -0.616625
vn -0.605057 0.666265 0.435887
vn -0.480246 0.795643 -0.369210
vn -0.718553 0.602330 -0.347678
vn -0.277505 0.615074 -0.738021
vn -0.105249 0.757681 -0.644082
vn -0.245814 0.404885 -0.880706
vn 0.048885 0.125885 0.990840
vn -0.741284 0.144278 0.655501
vn -0.876661 0.269170 -0.398765
vn -0.310053 0.169376 -0.935510
vn 0.044496 0.168592 0.984681
vn 0.010233 0.098940 0.995041
vn -0.834077 0.525118 0.169015
vn -0.729077 0.250883 0.636793
vn -0.695626 0.290413 0.657088
vn -0.941988 0.156610 -0.296871
vn -0.292518 0.150888 -0.944281
vn -0.865102 0.306527 -0.397038
vn -0.665692 -0.017734 -0.746015
vn -0.300052 -0.012185 -0.953845
vn 0.244796 -0.264741 -0.932731
vn -0.012611 0.128294 0.991656
vn -0.809852 0.338002 0.479473
vn -0.845817 -0.516756 -0.132503
vn -0.045658 0.609467 -0.791496
vn -0.822418 0.189368 0.536440
vn -0.485137 0.872331 -0.060671
vn -0.767868 0.347457 0.538194
vn -0.396169 0.513794 -0.760964
vn -0.670903 0.740855 -0.031978
vn 0.848359 -0.328437 -0.415230
vn 0.847506 -0.498228 0.183034
vn -0.861612 -0.507555 -0.003409
vn -0.933672 -0.106337 0.341979
vn -0.647412 -0.171704 0.742547
vn -0.377337 0.092732 0.921422
vn -0.999497 0.020837 -0.023907
vn -0.914612 -0.098722 -0.392096
vn -0.825270 -0.105545 -0.554789
vn -0.433412 -0.826217 0.359889
vn -0.421041 0.201157 0.884455
vn -0.983755 -0.033955 0.176274
vn -0.999425 0.026273 -0.021453
vn -0.044237 0.910961 0.410113
vn -0.658147 0.335354 0.674077
vn -0.820800 0.337328 0.460974
vn -0.830403 0.341508 0.440231
vn -0.680127 -0.185389 0.709266
vn -0.526604 -0.262118 0.808692
vn -0.137620 0.923649 0.357678
vn -0.223623 -0.005979 0.974657
vn -0.408213 -0.679268 0.609883
vn -0.722750 0.029357 0.690485
vn -0.379002 -0.891735 -0.247317
vn -0.957619 -0.029962 0.286474
vn -0.010359 -0.999917 -0.007632
vn -0.705275 0.147337 0.693455
vn -0.927860 0.076655 0.364966
vn -0.276824 -0.953404 -0.119956
vn -0.550122 0.042503 0.834002
vn -0.896080 0.063563 -0.439318
vn -0.802014 0.191626 -0.565733
vn -0.883879 -0.293017 0.364553
vn -0.377126 -0.416853 0.827049
vn -0.935502 -0.122023 0.331582
vn -0.288296 -0.291652 0.912044
vn -0.615738 0.718803 0.322783
vn -0.996457 0.069448 -0.047443
vn -0.899062 0.435610 -0.043947
vn -0.796575 0.604144 0.021874
vn -0.678248 0.320762 0.661129
vn -0.308924 0.375933 -0.873637
vn -0.193362 0.463428 -0.864781
vn -0.106762 0.977256 -0.183228
vn 0.047125 0.952742 -0.300102
vn -0.951353 0.014938 0.307741
vn -0.711303 0.401857 0.576679
vn -0.321795 0.584829 -0.744596
vn -0.438580 0.897542 -0.045455
vn 0.736744 -0.578321 0.350360
vn -0.868444 0.442456 0.223689
vn -0.191102 0.803635 -0.563604
vn 0.677580 -0.490820 -0.547706
vn -0.636867 -0.393319 0.663100
vn 0.891751 0.071117 -0.446904
vn 0.772282 0.289886 -0.565285
vn -0.505140 0.319822 -0.801591
vn -0.320837 0.447180 -0.834921
vn -0.994471 0.092631 -0.049463
vn -0.965178 0.214932 -0.149117
vn -0.617439 0.124921 0.776636
vn -0.441009 -0.168068 0.881626
vn 0.642886 -0.137802 0.753465
vn 0.595847 -0.205626 0.776327
vn 0.758732 0.062051 -0.648440
vn 0.793031 0.112065 -0.598786
vn -0.500039 0.403976 -0.766006
vn -0.450612 0.305890 -0.838678
vn -0.991895 -0.092395 -0.087218
vn -0.991172 -0.018321 -0.131309
vn -0.507763 -0.274139 0.816716
vn 0.704399 -0.648872 0.287726
vn 0.752092 0.653172 0.087886
vn 0.774877 -0.026248 -0.631567
vn -0.521067 0.215030 -0.825985
vn -0.307194 0.720828 -0.621321
vn -0.999701 -0.009845 -0.022397
vn -0.999603 0.006113 -0.027504
vn -0.674466 -0.666790 0.316995
vn -0.455673 -0.692607 0.559159
vn 0.920383 0.286983 0.265586
vn -0.497616 0.335296 -0.799971
vn 0.796505 0.125269 -0.591513
vn 0.664278 -0.397804 0.632840
vn -0.331431 -0.601274 0.727064
vn 0.603925 -0.511367 0.611375
vn -0.456646 -0.657058 0.599791
vn -0.354335 0.730287 -0.584061
vn 0.687270 0.683580 -0.245720
vn 0.921966 -0.090853 -0.376464
vn 0.882744 -0.017171 -0.469540
vn -0.079229 0.099270 -0.991901
vn -0.341233 0.170132 -0.924454
vn -0.974108 -0.046574 -0.221234
vn -0.960223 -0.002402 -0.279222
vn -0.713029 -0.326280 0.620590
vn -0.662789 -0.324124 0.675022
vn 0.625920 -0.376734 0.682859
vn 0.623704 -0.376015 0.685278
vn -0.698313 -0.488574 -0.523120
vn -0.404871 -0.710888 0.575081
vn -0.437680 0.291935 0.850418
vn -0.370697 0.155292 0.915679
vn -0.395155 0.169552 0.902831
vn -0.376496 -0.145334 0.914947
vn -0.297589 -0.199080 0.933706
vn -0.962011 -0.048345 -0.268695
vn -0.771329 -0.026771 -0.635873
vn 0.930968 0.048539 -0.361860
vn 0.338549 -0.434563 -0.834589
vn 0.927864 -0.124520 -0.351515
vn 0.891587 -0.079935 -0.445738
vn 0.883116 -0.438119 -0.167806
vn 0.547831 0.427996 0.718819
vn -0.621275 0.293867 0.726402
vn -0.616894 -0.194505 0.762633
vn 0.933004 -0.154017 0.325242
vn 0.920015 -0.189646 0.342939
vn -0.892159 -0.036074 -0.450279
vn -0.889786 0.008283 -0.456303
vn -0.622347 -0.211905 0.753512
vn -0.870395 -0.206956 -0.446745
vn 0.030756 0.268010 -0.962925
vn 0.146711 0.194747 -0.969819
vn 0.924866 -0.173325 0.338498
vn -0.958536 0.143404 -0.246259
vn 0.902782 -0.330199 0.275596
vn 0.922713 0.271032 -0.274122
vn -0.051439 0.494450 -0.867683
vn -0.550178 -0.799725 0.240301
vn -0.896165 0.071334 -0.437949
vn 0.151915 0.455236 -0.877315
vn -0.904755 0.095954 0.414983
vn -0.911928 0.091661 0.399981
vn 0.915908 -0.225686 0.331932
vn -0.632478 -0.180515 0.753250
vn -0.870315 -0.124207 -0.476576
vn 0.018292 0.087466 -0.996000
vn 0.902900 -0.085636 -0.421234
vn -0.561454 0.138736 -0.815795
vn -0.571131 0.132822 -0.810042
vn -0.827597 0.234067 0.510193
vn -0.798761 0.172152 0.576494
vn 0.598385 0.053844 0.799398
vn 0.521941 -0.004399 0.852970
vn -0.899776 -0.009790 0.436241
vn 0.546363 0.255977 0.797473
vn -0.516816 -0.476880 -0.710976
vn -0.773782 -0.007092 0.633412
vn -0.730045 0.254043 0.634426
vn 0.536334 0.235218 0.810567
vn -0.860091 0.326808 0.391714
vn 0.549582 -0.095807 0.829928
vn 0.861991 -0.020317 -0.506516
vn -0.798595 0.389409 0.458920
vn 0.666578 0.250654 0.702030
vn -0.795305 0.395510 0.459415
vn -0.721329 -0.369476 -0.585808
vn -0.556862 -0.564814 -0.609007
vn 0.067737 -0.697786 -0.713096
vn 0.675450 -0.639764 -0.366701
vn 0.659155 0.278488 0.698541
vn 0.847937 -0.478009 -0.229151
vn -0.562391 0.304491 -0.768766
vn -0.834401 0.252572 0.489879
vn 0.583976 0.020829 0.811504
vn 0.875901 0.100575 -0.471892
vn -0.746950 0.015072 -0.664709
vn 0.923939 -0.154944 -0.349755
vn 0.890157 -0.183314 -0.417153
vn -0.578723 -0.097929 -0.809623
vn -0.807425 -0.080195 0.584495
vn -0.928129 0.025442 0.371388
vn 0.634216 -0.148961 0.758670
vn 0.569111 -0.172192 0.804029
vn 0.880243 0.188077 -0.435660
vn 0.192873 0.041031 -0.980365
vn 0.959568 -0.260692 0.106156
vn -0.894875 0.030899 -0.445246
vn -0.110864 -0.993706 0.016031
vn -0.137592 -0.990229 0.022689
vn -0.637838 0.751305 0.169419
vn -0.561118 0.335120 -0.756863
vn 0.681272 0.515722 0.519519
vn -0.614385 0.755196 0.228496
vn 0.731058 0.495482 0.469097
vn -0.123150 -0.986174 -0.110882
vn -0.077679 -0.986199 -0.146207
vn -0.536571 0.830204 0.151172
vn -0.246437 0.373483 0.894304
vn 0.706735 0.597232 0.379262
vn -0.543218 -0.824832 0.156740

f 1/1/1 2/2/1 3/3/1
f 4/4/2 5/5/2 6/6/2
f 4/4/3 6/7/3 7/8/3
f 5/9/4 8/10/4 9/11/4
f 10/12/5 11/13/5 9/14/5
f 6/6/6 11/15/6 7/8/6
f 6/6/7 12/16/7 11/13/7
f 12/17/8 5/5/8 9/14/8
f 6/6/9 5/5/9 12/17/9
f 11/13/10 12/18/10 9/19/10
f 13/20/11 14/21/11 15/22/11
f 14/21/12 13/20/12 16/23/12
f 16/24/13 13/20/13 17/25/13
f 15/22/14 14/21/14 18/26/14
f 14/21/15 19/27/15 18/26/15
f 18/26/16 20/28/16 21/29/16
f 18/26/17 19/27/17 20/28/17
f 20/28/18 3/30/18 21/29/18
f 5/9/19 22/31/19 23/32/19
f 24/33/20 25/34/20 26/35/20
f 27/36/21 25/34/21 9/37/21
f 28/38/22 27/39/22 29/40/22
f 30/41/23 25/34/23 24/33/23
f 25/34/24 30/41/24 10/42/24
f 30/41/25 24/33/25 31/43/25
f 24/33/26 26/44/26 32/45/26
f 33/46/27 34/47/27 5/9/27
f 4/4/28 22/31/28 5/9/28
f 26/35/29 25/34/29 27/39/29
f 33/46/30 35/48/30 34/47/30
f 32/45/31 26/35/31 28/38/31
f 23/32/32 33/46/32 5/9/32
f 26/35/33 27/39/33 28/38/33
f 28/38/34 29/40/34 36/49/34
f 35/50/35 37/51/35 29/40/35
f 28/38/36 38/52/36 32/45/36
f 36/49/37 38/52/37 28/38/37
f 36/49/38 37/53/38 39/54/38
f 39/55/39 37/56/39 40/57/39
f 41/58/40 42/59/40 39/55/40
f 39/55/41 40/57/41 41/58/41
f 36/49/42 29/40/42 37/51/42
f 37/56/43 35/48/43 33/46/43
f 37/56/44 33/46/44 40/57/44
f 40/57/45 33/46/45 43/60/45
f 40/57/46 43/60/46 41/58/46
f 33/46/47 23/32/47 43/60/47
f 44/61/48 45/62/48 30/63/48
f 15/64/49 46/65/49 45/62/49
f 46/66/50 47/67/50 10/68/50
f 47/67/51 7/69/51 11/70/51
f 45/62/52 44/61/52 17/71/52
f 44/61/53 30/63/53 31/72/53
f 13/73/54 15/64/54 45/62/54
f 46/65/55 10/74/55 45/62/55
f 45/62/56 10/74/56 30/63/56
f 47/67/57 11/70/57 10/68/57
f 47/67/58 48/75/58 7/69/58
f 46/66/59 15/76/59 47/67/59
f 18/77/60 47/67/60 15/76/60
f 47/67/61 18/77/61 48/75/61
f 18/77/62 21/78/62 48/75/62
f 13/73/63 45/62/63 17/71/63
f 49/79/64 35/50/64 29/40/64
f 8/80/65 27/81/65 9/82/65
f 34/47/66 50/83/66 5/84/66
f 27/36/67 49/79/67 29/40/67
f 35/48/68 51/85/68 52/86/68
f 35/50/69 49/79/69 51/87/69
f 52/86/70 50/83/70 34/47/70
f 35/48/71 52/86/71 34/47/71
f 5/84/72 50/83/72 8/10/72
f 53/88/73 27/81/73 8/80/73
f 53/88/74 49/79/74 27/36/74
f 54/89/75 55/90/75 56/91/75
f 57/92/76 55/90/76 58/93/76
f 59/94/77 60/95/77 55/90/77
f 61/96/78 54/89/78 56/91/78
f 39/97/79 61/96/79 36/98/79
f 36/98/80 61/96/80 56/91/80
f 36/98/81 56/91/81 38/99/81
f 62/100/82 63/101/82 64/102/82
f 65/103/83 64/102/83 54/89/83
f 61/96/84 65/103/84 54/89/84
f 66/104/85 67/105/85 62/100/85
f 55/90/86 60/95/86 68/106/86
f 69/107/87 68/106/87 60/95/87
f 69/107/88 70/108/88 68/106/88
f 58/109/89 55/90/89 68/106/89
f 68/106/90 71/110/90 58/111/90
f 62/100/91 67/105/91 63/101/91
f 64/102/92 63/101/92 69/107/92
f 70/108/93 71/110/93 68/106/93
f 58/111/94 71/110/94 72/112/94
f 56/91/95 57/92/95 38/113/95
f 55/90/96 57/114/96 56/91/96
f 73/115/97 74/116/97 38/113/97
f 58/109/98 72/112/98 73/115/98
f 57/117/99 58/111/99 73/115/99
f 57/92/100 73/115/100 38/113/100
f 73/115/101 72/112/101 74/116/101
f 39/97/102 75/118/102 61/96/102
f 75/118/103 39/97/103 76/119/103
f 64/102/104 59/94/104 54/89/104
f 64/102/105 60/95/105 59/94/105
f 54/89/106 59/94/106 55/90/106
f 64/102/107 69/107/107 60/95/107
f 65/103/108 66/104/108 62/100/108
f 65/103/109 61/96/109 75/118/109
f 75/118/110 76/119/110 65/103/110
f 66/104/111 65/103/111 76/119/111
f 62/100/112 64/102/112 65/103/112
f 39/97/113 42/120/113 76/119/113
f 77/121/114 76/119/114 42/120/114
f 67/105/115 76/119/115 77/121/115
f 66/104/116 76/119/116 67/105/116
f 9/82/117 25/34/117 10/42/117
f 51/122/118 49/123/118 78/124/118
f 79/125/119 50/126/119 52/127/119
f 52/127/120 51/122/120 79/125/120
f 80/128/121 81/129/121 53/130/121
f 51/122/122 78/124/122 79/125/122
f 82/131/123 50/126/123 79/125/123
f 50/126/124 82/131/124 8/132/124
f 53/133/125 78/124/125 49/123/125
f 83/134/126 84/135/126 85/136/126
f 84/135/127 83/134/127 86/137/127
f 86/137/128 87/138/128 84/135/128
f 88/139/129 84/135/129 87/138/129
f 87/138/130 89/140/130 88/139/130
f 90/141/131 88/139/131 89/140/131
f 91/142/132 92/143/132 90/141/132
f 90/141/133 89/140/133 91/142/133
f 85/136/134 92/144/134 91/145/134
f 91/145/135 83/134/135 85/136/135
f 80/128/136 93/146/136 83/134/136
f 94/147/137 83/134/137 93/146/137
f 93/146/138 87/138/138 94/147/138
f 87/138/139 93/146/139 95/148/139
f 95/148/140 96/149/140 87/138/140
f 89/140/141 87/138/141 96/149/141
f 97/150/142 91/142/142 89/140/142
f 97/151/143 81/129/143 80/128/143
f 8/132/144 82/131/144 80/128/144
f 93/146/145 80/128/145 98/152/145
f 98/152/146 95/148/146 93/146/146
f 95/148/147 82/131/147 79/125/147
f 79/125/148 78/124/148 95/148/148
f 96/149/149 95/148/149 78/124/149
f 78/124/150 53/133/150 81/153/150
f 81/153/151 96/149/151 78/124/151
f 80/128/152 53/130/152 8/154/152
f 94/147/153 87/138/153 86/137/153
f 86/137/154 83/134/154 94/147/154
f 97/151/155 83/134/155 91/145/155
f 89/140/156 96/149/156 97/150/156
f 80/128/157 83/134/157 97/151/157
f 81/153/158 97/150/158 96/149/158
f 82/131/159 95/148/159 98/152/159
f 98/152/160 80/128/160 82/131/160
f 85/136/161 99/155/161 100/156/161
f 99/155/162 85/136/162 84/135/162
f 84/135/163 101/157/163 99/155/163
f 101/157/164 84/135/164 88/139/164
f 88/139/165 90/141/165 101/157/165
f 102/158/166 101/157/166 90/141/166
f 90/141/167 103/159/167 102/158/167
f 103/159/168 90/141/168 92/143/168
f 92/144/169 85/136/169 103/160/169
f 100/156/170 103/160/170 85/136/170
f 104/161/171 105/162/171 106/163/171
f 107/164/172 106/163/172 108/165/172
f 109/166/173 110/167/173 103/168/173
f 109/166/174 111/169/174 104/161/174
f 104/161/175 110/167/175 109/166/175
f 104/161/176 111/169/176 112/170/176
f 113/171/177 112/170/177 111/169/177
f 106/163/178 110/167/178 104/161/178
f 104/161/179 112/170/179 105/162/179
f 105/172/180 113/173/180 111/174/180
f 113/173/181 105/172/181 112/175/181
f 105/172/182 111/174/182 109/176/182
f 109/176/183 106/177/183 105/172/183
f 109/176/184 100/178/184 106/177/184
f 103/179/185 100/178/185 109/176/185
f 102/180/186 103/168/186 110/167/186
f 106/163/187 114/181/187 108/165/187
f 115/182/188 116/183/188 106/177/188
f 116/184/189 117/185/189 118/186/189
f 108/165/190 114/181/190 119/187/190
f 119/187/191 120/188/191 108/165/191
f 118/189/192 121/190/192 114/191/192
f 114/191/193 121/190/193 117/192/193
f 116/193/194 115/194/194 119/187/194
f 120/188/195 119/187/195 115/194/195
f 121/195/196 118/186/196 117/185/196
f 108/165/197 101/196/197 102/180/197
f 115/182/198 106/177/198 100/178/198
f 100/178/199 99/197/199 115/182/199
f 120/188/200 99/198/200 101/196/200
f 106/163/201 107/164/201 110/167/201
f 108/165/202 120/188/202 101/196/202
f 120/188/203 115/194/203 99/198/203
f 107/164/204 102/180/204 110/167/204
f 102/180/205 107/164/205 108/165/205
f 118/199/206 106/177/206 116/183/206
f 114/181/207 106/163/207 118/200/207
f 114/191/208 117/192/208 119/201/208
f 117/192/209 116/202/209 119/201/209
f 122/203/210 123/204/210 124/205/210
f 125/206/211 126/207/211 123/208/211
f 125/206/212 123/208/212 127/209/212
f 125/210/213 128/211/213 126/212/213
f 128/211/214 129/213/214 126/212/214
f 128/214/215 124/215/215 129/216/215
f 122/217/216 124/215/216 128/214/216
f 130/218/217 128/211/217 125/219/217
f 131/220/218 122/221/218 130/222/218
f 132/223/219 125/224/219 127/225/219
f 132/226/220 131/227/220 125/219/220
f 133/228/221 131/227/221 132/226/221
f 133/229/222 122/221/222 131/220/222
f 130/218/223 125/219/223 131/227/223
f 128/214/224 130/222/224 122/221/224
f 127/209/225 123/204/225 122/203/225
f 16/230/226 133/228/226 14/231/226
f 16/232/227 3/3/227 133/229/227
f 14/231/228 133/228/228 132/226/228
f 14/233/229 132/223/229 19/234/229
f 132/223/230 127/225/230 19/234/230
f 20/235/231 19/234/231 127/225/231
f 20/235/232 127/225/232 122/236/232
f 3/3/233 122/221/233 133/229/233
f 3/237/234 20/235/234 122/236/234
f 134/238/235 135/239/235 136/240/235
f 137/241/236 135/242/236 134/243/236
f 138/244/237 139/245/237 137/246/237
f 138/247/238 136/248/238 139/249/238
f 134/238/239 136/240/239 123/208/239
f 138/247/240 123/250/240 136/248/240
f 123/250/241 138/247/241 124/251/241
f 134/238/242 123/208/242 126/252/242
f 129/253/243 134/243/243 126/254/243
f 137/241/244 134/243/244 129/253/244
f 138/244/245 137/246/245 129/255/245
f 138/244/246 129/255/246 124/256/246
f 136/257/247 140/258/247 139/259/247
f 136/257/248 141/260/248 140/258/248
f 142/261/249 139/259/249 140/258/249
f 135/262/250 143/263/250 141/260/250
f 141/264/251 143/265/251 142/266/251
f 142/266/252 140/267/252 141/264/252
f 137/268/253 143/263/253 135/262/253
f 135/262/254 141/260/254 136/257/254
f 139/259/255 142/261/255 137/268/255
f 137/268/256 144/269/256 143/263/256
f 137/268/257 142/261/257 144/269/257
f 143/265/258 145/270/258 146/271/258
f 146/271/259 142/266/259 143/265/259
f 143/263/260 144/269/260 145/272/260
f 144/269/261 146/273/261 145/272/261
f 146/273/262 144/269/262 142/261/262
f 3/274/263 16/275/263 17/276/263
f 147/5/264 4/4/264 148/6/264
f 148/7/265 4/4/265 7/8/265
f 149/10/266 147/9/266 150/11/266
f 151/13/267 152/12/267 150/14/267
f 151/15/268 148/6/268 7/8/268
f 153/16/269 148/6/269 151/13/269
f 147/5/270 153/17/270 150/14/270
f 147/5/271 148/6/271 153/17/271
f 153/18/272 151/13/272 150/19/272
f 154/21/273 155/20/273 156/22/273
f 155/20/274 154/21/274 157/23/274
f 155/20/275 157/24/275 17/25/275
f 154/21/276 156/22/276 158/26/276
f 159/27/277 154/21/277 158/26/277
f 160/28/278 158/26/278 21/29/278
f 159/27/279 158/26/279 160/28/279
f 3/30/280 160/28/280 21/29/280
f 22/31/281 147/9/281 23/32/281
f 161/34/282 24/33/282 162/35/282
f 161/34/283 163/36/283 150/37/283
f 163/39/284 164/38/284 165/40/284
f 161/34/285 166/41/285 24/33/285
f 166/41/286 161/34/286 152/42/286
f 24/33/287 166/41/287 31/43/287
f 162/44/288 24/33/288 32/45/288
f 167/47/289 168/46/289 147/9/289
f 22/31/290 4/4/290 147/9/290
f 161/34/291 162/35/291 163/39/291
f 169/48/292 168/46/292 167/47/292
f 162/35/293 32/45/293 164/38/293
f 168/46/294 23/32/294 147/9/294
f 163/39/295 162/35/295 164/38/295
f 165/40/296 164/38/296 170/49/296
f 171/51/297 169/50/297 165/40/297
f 38/52/298 164/38/298 32/45/298
f 38/52/299 170/49/299 164/38/299
f 171/53/300 170/49/300 172/54/300
f 171/56/301 172/55/301 173/57/301
f 42/59/302 41/58/302 172/55/302
f 173/57/303 172/55/303 41/58/303
f 165/40/304 170/49/304 171/51/304
f 169/48/305 171/56/305 168/46/305
f 168/46/306 171/56/306 173/57/306
f 168/46/307 173/57/307 43/60/307
f 43/60/308 173/57/308 41/58/308
f 23/32/309 168/46/309 43/60/309
f 174/62/310 44/61/310 166/63/310
f 175/65/311 156/64/311 174/62/311
f 176/67/312 175/66/312 152/68/312
f 7/69/313 176/67/313 151/70/313
f 44/61/314 174/62/314 17/71/314
f 166/63/315 44/61/315 31/72/315
f 156/64/316 155/73/316 174/62/316
f 152/74/317 175/65/317 174/62/317
f 152/74/318 174/62/318 166/63/318
f 151/70/319 176/67/319 152/68/319
f 48/75/320 176/67/320 7/69/320
f 156/76/321 175/66/321 176/67/321
f 176/67/322 158/77/322 156/76/322
f 158/77/323 176/67/323 48/75/323
f 21/78/324 158/77/324 48/75/324
f 174/62/325 155/73/325 17/71/325
f 169/50/326 177/79/326 165/40/326
f 163/81/327 149/80/327 150/82/327
f 178/83/328 167/47/328 147/84/328
f 177/79/329 163/36/329 165/40/329
f 179/85/330 169/48/330 180/86/330
f 177/79/331 169/50/331 179/87/331
f 178/83/332 180/86/332 167/47/332
f 180/86/333 169/48/333 167/47/333
f 178/83/334 147/84/334 149/10/334
f 163/81/335 181/88/335 149/80/335
f 177/79/336 181/88/336 163/36/336
f 182/90/337 183/89/337 184/91/337
f 182/90/338 185/92/338 186/93/338
f 187/95/339 188/94/339 182/90/339
f 183/89/340 189/96/340 184/91/340
f 189/96/341 172/97/341 170/98/341
f 189/96/342 170/98/342 184/91/342
f 184/91/343 170/98/343 38/99/343
f 63/101/344 190/100/344 191/102/344
f 191/102/345 192/103/345 183/89/345
f 192/103/346 189/96/346 183/89/346
f 67/105/347 193/104/347 190/100/347
f 187/95/348 182/90/348 194/106/348
f 194/106/349 69/107/349 187/95/349
f 70/108/350 69/107/350 194/106/350
f 182/90/351 186/109/351 194/106/351
f 71/110/352 194/106/352 186/111/352
f 67/105/353 190/100/353 63/101/353
f 63/101/354 191/102/354 69/107/354
f 71/110/355 70/108/355 194/106/355
f 71/110/356 186/111/356 72/112/356
f 185/92/357 184/91/357 38/113/357
f 185/114/358 182/90/358 184/91/358
f 74/116/359 195/115/359 38/113/359
f 72/112/360 186/109/360 195/115/360
f 186/111/361 185/117/361 195/115/361
f 195/115/362 185/92/362 38/113/362
f 72/112/363 195/115/363 74/116/363
f 196/118/364 172/97/364 189/96/364
f 172/97/365 196/118/365 197/119/365
f 188/94/366 191/102/366 183/89/366
f 187/95/367 191/102/367 188/94/367
f 188/94/368 183/89/368 182/90/368
f 69/107/369 191/102/369 187/95/369
f 193/104/370 192/103/370 190/100/370
f 189/96/371 192/103/371 196/118/371
f 197/119/372 196/118/372 192/103/372
f 192/103/373 193/104/373 197/119/373
f 191/102/374 190/100/374 192/103/374
f 42/120/375 172/97/375 197/119/375
f 197/119/376 77/121/376 42/120/376
f 197/119/377 67/105/377 77/121/377
f 197/119/378 193/104/378 67/105/378
f 161/34/379 150/82/379 152/42/379
f 177/123/380 179/122/380 198/124/380
f 178/126/381 199/125/381 180/127/381
f 179/122/382 180/127/382 199/125/382
f 200/129/383 201/128/383 181/130/383
f 198/124/384 179/122/384 199/125/384
f 178/126/385 202/131/385 199/125/385
f 202/131/386 178/126/386 149/132/386
f 198/124/387 181/133/387 177/123/387
f 203/135/388 204/134/388 205/136/388
f 204/134/389 203/135/389 206/137/389
f 207/138/390 206/137/390 203/135/390
f 203/135/391 208/139/391 207/138/391
f 209/140/392 207/138/392 208/139/392
f 208/139/393 210/141/393 209/140/393
f 211/143/394 212/142/394 210/141/394
f 209/140/395 210/141/395 212/142/395
f 211/144/396 205/136/396 212/145/396
f 204/134/397 212/145/397 205/136/397
f 213/146/398 201/128/398 204/134/398
f 204/134/399 214/147/399 213/146/399
f 207/138/400 213/146/400 214/147/400
f 213/146/401 207/138/401 215/148/401
f 216/149/402 215/148/402 207/138/402
f 207/138/403 209/140/403 216/149/403
f 212/142/404 217/150/404 209/140/404
f 200/129/405 217/151/405 201/128/405
f 202/131/406 149/132/406 201/128/406
f 201/128/407 213/146/407 218/152/407
f 215/148/408 218/152/408 213/146/408
f 202/131/409 215/148/409 199/125/409
f 198/124/410 199/125/410 215/148/410
f 215/148/411 216/149/411 198/124/411
f 181/133/412 198/124/412 200/153/412
f 216/149/413 200/153/413 198/124/413
f 181/130/414 201/128/414 149/154/414
f 207/138/415 214/147/415 206/137/415
f 204/134/416 206/137/416 214/147/416
f 204/134/417 217/151/417 212/145/417
f 216/149/418 209/140/418 217/150/418
f 204/134/419 201/128/419 217/151/419
f 217/150/420 200/153/420 216/149/420
f 215/148/421 202/131/421 218/152/421
f 201/128/422 218/152/422 202/131/422
f 219/155/423 205/136/423 220/156/423
f 205/136/424 219/155/424 203/135/424
f 221/157/425 203/135/425 219/155/425
f 203/135/426 221/157/426 208/139/426
f 210/141/427 208/139/427 221/157/427
f 221/157/428 222/158/428 210/141/428
f 223/159/429 210/141/429 222/158/429
f 210/141/430 223/159/430 211/143/430
f 205/136/431 211/144/431 223/160/431
f 223/160/432 220/156/432 205/136/432
f 224/162/433 225/161/433 226/163/433
f 226/163/434 227/164/434 228/165/434
f 229/167/435 230/166/435 223/168/435
f 231/169/436 230/166/436 225/161/436
f 229/167/437 225/161/437 230/166/437
f 231/169/438 225/161/438 232/170/438
f 232/170/439 233/171/439 231/169/439
f 229/167/440 226/163/440 225/161/440
f 232/170/441 225/161/441 224/162/441
f 233/173/442 224/172/442 231/174/442
f 224/172/443 233/173/443 232/175/443
f 231/174/444 224/172/444 230/176/444
f 226/177/445 230/176/445 224/172/445
f 220/178/446 230/176/446 226/177/446
f 220/178/447 223/179/447 230/176/447
f 223/168/448 222/180/448 229/167/448
f 234/181/449 226/163/449 228/165/449
f 235/183/450 236/182/450 226/177/450
f 237/185/451 235/184/451 238/186/451
f 234/181/452 228/165/452 239/187/452
f 240/188/453 239/187/453 228/165/453
f 241/190/454 238/189/454 234/191/454
f 241/190/455 234/191/455 237/192/455
f 236/194/456 235/193/456 239/187/456
f 239/187/457 240/188/457 236/194/457
f 238/186/458 241/195/458 237/185/458
f 221/196/459 228/165/459 222/180/459
f 226/177/460 236/182/460 220/178/460
f 219/197/461 220/178/461 236/182/461
f 219/198/462 240/188/462 221/196/462
f 227/164/463 226/163/463 229/167/463
f 240/188/464 228/165/464 221/196/464
f 236/194/465 240/188/465 219/198/465
f 222/180/466 227/164/466 229/167/466
f 227/164/467 222/180/467 228/165/467
f 226/177/468 238/199/468 235/183/468
f 226/163/469 234/181/469 238/200/469
f 237/192/470 234/191/470 239/201/470
f 235/202/471 237/192/471 239/201/471
f 242/204/472 243/203/472 244/205/472
f 245/207/473 246/206/473 242/208/473
f 242/208/474 246/206/474 247/209/474
f 248/211/475 246/210/475 245/212/475
f 249/213/476 248/211/476 245/212/476
f 244/215/477 248/214/477 249/216/477
f 244/215/478 243/217/478 248/214/478
f 248/211/479 250/218/479 246/219/479
f 243/221/480 251/220/480 250/222/480
f 246/224/481 252/223/481 247/225/481
f 251/227/482 252/226/482 246/219/482
f 251/227/483 253/228/483 252/226/483
f 243/221/484 253/229/484 251/220/484
f 246/219/485 250/218/485 251/227/485
f 250/222/486 248/214/486 243/221/486
f 242/204/487 247/209/487 243/203/487
f 253/228/488 157/230/488 154/231/488
f 3/3/489 157/232/489 253/229/489
f 253/228/490 154/231/490 252/226/490
f 252/223/491 154/233/491 159/234/491
f 247/225/492 252/223/492 159/234/492
f 159/234/493 160/235/493 247/225/493
f 247/225/494 160/235/494 243/236/494
f 243/221/495 3/3/495 253/229/495
f 160/235/496 3/237/496 243/236/496
f 254/239/497 255/238/497 256/240/497
f 254/242/498 257/241/498 255/243/498
f 258/245/499 259/244/499 257/246/499
f 256/248/500 259/247/500 258/249/500
f 256/240/501 255/238/501 242/208/501
f 242/250/502 259/247/502 256/248/502
f 259/247/503 242/250/503 244/251/503
f 242/208/504 255/238/504 245/252/504
f 255/243/505 249/253/505 245/254/505
f 255/243/506 257/241/506 249/253/506
f 257/246/507 259/244/507 249/255/507
f 249/255/508 259/244/508 244/256/508
f 260/258/509 256/257/509 258/259/509
f 261/260/510 256/257/510 260/258/510
f 258/259/511 262/261/511 260/258/511
f 263/263/512 254/262/512 261/260/512
f 263/265/513 261/264/513 262/266/513
f 260/267/514 262/266/514 261/264/514
f 263/263/515 257/268/515 254/262/515
f 261/260/516 254/262/516 256/257/516
f 262/261/517 258/259/517 257/268/517
f 264/269/518 257/268/518 263/263/518
f 262/261/519 257/268/519 264/269/519
f 265/270/520 263/265/520 266/271/520
f 262/266/521 266/271/521 263/265/521
f 264/269/522 263/263/522 265/272/522
f 266/273/523 264/269/523 265/272/523
f 264/269/524 266/273/524 262/261/524
f 157/275/525 3/274/525 17/276/525

o 
usemtl axe.001
s off

v -20.153278 35.494362 24.444111
v -18.961189 34.383892 17.305019
v -23.357731 27.570419 24.456890
v -22.443668 28.571360 21.400349
v -23.736629 25.604488 23.699789
v -22.822580 26.605431 20.643238
v -23.308029 19.126190 18.140530
v -20.935558 24.140030 13.359990
v -21.935560 33.542667 30.403919
v -25.090302 17.174509 24.100340
v -24.308022 28.528841 35.184460
v -24.271791 26.569481 27.513449
v -24.650690 24.603550 26.756340
v -26.282379 18.284971 31.239418
v -20.592890 28.065319 21.788111
v -21.506939 27.064381 24.844662
v -20.971798 26.099392 21.031010
v -21.885851 25.098450 24.087551
v -22.421000 26.063440 27.901199
v -22.799910 24.097509 27.144100
v -13.322479 38.559563 -9.100350
v -13.701381 36.593639 -9.857460
v -11.850590 36.087589 -9.469700
v -11.471690 38.053520 -8.712589
v -25.460711 23.225670 33.765369
v -4.191210 47.007790 -41.658878
v -2.340420 46.501762 -41.271118
v -1.961510 48.467678 -40.514023
v -3.812300 48.973732 -40.901779

vt 0.033358 0.643728
vt 0.190411 0.923560
vt 0.402692 0.503812
vt 0.402692 0.647326
vt 0.408249 0.287497
vt 0.408249 0.367848
vt 0.492649 0.287497
vt 0.492649 0.367848
vt 0.403043 0.503812
vt 0.403044 0.647326
vt 0.033710 0.643728
vt 0.190763 0.923560
vt 0.033358 0.363896
vt 0.033710 0.363896
vt 0.190411 0.084064
vt 0.402692 0.360297
vt 0.408249 0.207147
vt 0.492649 0.207147
vt 0.403043 0.360297
vt 0.190763 0.084064
vt 0.408248 1.036942
vt 0.492649 1.036942
vt 0.483600 0.371280
vt 0.402049 0.371280
vt 0.402049 1.040375
vt 0.483600 1.040375
vt 0.450449 0.037941
vt 0.483600 0.210579
vt 0.402049 0.210579
vt 0.442825 0.041374
vt 0.000000 1.000000

vn -0.906823 0.366384 -0.208412
vn -0.886368 0.447558 -0.118505
vn -0.945479 0.258514 -0.198089
vn -0.960125 0.142753 -0.240377
vn -0.940848 0.160856 -0.298213
vn -0.916270 0.370294 -0.152748
vn -0.931595 0.351111 -0.094081
vn -0.961510 0.057692 -0.268645
vn -0.971621 0.147223 -0.185142
vn 0.961510 -0.057693 0.268645
vn 0.971621 -0.147223 0.185142
vn 0.945480 -0.258515 0.198087
vn 0.931595 -0.351110 0.094082
vn 0.916270 -0.370293 0.152747
vn 0.960125 -0.142753 0.240377
vn 0.940848 -0.160855 0.298214
vn 0.906823 -0.366384 0.208411
vn 0.886368 -0.447557 0.118504
vn 0.011796 -0.580640 -0.814075
vn 0.301806 0.924054 -0.234600
vn -0.011800 0.580640 0.814075
vn -0.301804 -0.924055 0.234600
vn 0.177021 0.918452 0.353707
vn -0.177016 -0.918454 -0.353707
vn -0.974114 0.214833 -0.070343
vn 0.898837 -0.297268 0.322061
vn -0.216089 -0.953009 -0.212321
vn 0.133930 0.863038 0.487061
vn 0.273371 0.299358 -0.914141

f 267/277/526 268/278/526 269/279/526
f 270/280/527 269/279/527 268/278/527
f 269/281/528 270/282/528 271/283/528
f 272/284/528 271/283/528 270/282/528
f 271/285/529 272/286/529 273/287/529
f 274/288/530 273/287/530 272/286/530
f 275/289/531 267/277/531 269/279/531
f 273/287/529 276/290/529 271/285/529
f 277/291/532 275/289/532 278/292/532
f 269/279/531 278/292/531 275/289/531
f 278/293/528 269/281/528 279/294/528
f 271/283/528 279/294/528 269/281/528
f 279/295/533 271/285/533 280/296/533
f 276/290/534 280/296/534 271/285/534
f 281/280/535 268/278/535 282/279/535
f 267/277/536 282/279/536 268/278/536
f 283/284/537 281/282/537 284/283/537
f 282/281/537 284/283/537 281/282/537
f 274/288/538 283/286/538 273/287/538
f 284/285/539 273/287/539 283/286/539
f 282/279/540 267/277/540 275/289/540
f 273/287/539 284/285/539 276/290/539
f 282/279/540 275/289/540 285/292/540
f 277/291/541 285/292/541 275/289/541
f 284/283/537 282/281/537 286/294/537
f 285/293/537 286/294/537 282/281/537
f 276/290/542 284/285/542 280/296/542
f 286/295/543 280/296/543 284/285/543
f 270/280/544 268/278/544 281/280/544
f 283/286/545 274/288/545 272/286/545
f 279/295/546 280/296/546 286/295/546
f 285/292/547 277/291/547 278/292/547
f 272/284/528 270/282/528 287/297/528
f 287/297/528 288/298/528 272/284/528
f 281/282/537 283/284/537 289/298/537
f 289/298/537 290/297/537 281/282/537
f 270/299/548 281/300/548 290/301/548
f 290/301/548 287/302/548 270/299/548
f 283/300/549 272/299/549 288/302/549
f 288/302/549 289/301/549 283/300/549
f 278/293/550 279/294/550 291/303/550
f 286/294/551 285/293/551 291/303/551
f 279/304/552 286/305/552 291/306/552
f 285/305/553 278/304/553 291/306/553
f 289/298/549 288/297/549 292/298/549 293/307/549
f 287/297/548 290/298/548 294/297/548 295/307/548
f 290/297/537 289/298/537 293/297/537 294/307/537
f 288/298/528 287/297/528 295/298/528 292/307/528
f 294/297/554 293/298/554 295/297/554
f 292/298/554 295/297/554 293/298/554

