mtllib anim_skel_walk_shield_000029.mtl

o msked
usemtl shield.001
s off

v 14.820271 49.383720 2.405610
v 14.480000 38.484119 7.095690
v 1.897590 39.876610 8.436621
v 15.618340 40.084873 11.984210
v 26.930420 36.732231 3.728400
v 12.762080 7.430120 16.622631

vt 0.345626 0.959903
vt 0.345626 0.724031
vt 0.085605 0.724031
vt 0.605647 0.724031
vt 0.345626 0.075832

vn -0.140001 -0.387675 -0.911102
vn -0.189498 0.696569 0.692013
vn 0.577271 0.609397 0.543501
vn -0.290720 -0.370515 -0.882157
vn -0.132630 -0.283990 -0.949610
vn -0.249439 0.157540 0.955490
vn 0.600122 0.060802 0.797594
vn -0.286400 -0.266492 -0.920303

f 1/1/1 2/2/1 3/3/1
f 1/1/2 3/3/2 4/2/2
f 1/1/3 4/2/3 5/4/3
f 1/1/4 5/4/4 2/2/4
f 6/5/5 3/3/5 2/2/5
f 6/5/6 4/2/6 3/3/6
f 6/5/7 5/4/7 4/2/7
f 6/5/8 2/2/8 5/4/8

