mtllib anim_barb_attack6_000006.mtl

o fat
usemtl fat.001
s off

v -0.153540 38.286942 -4.065310
v 1.860240 36.144421 6.136090
v 0.334590 37.537750 1.057170
v -0.151890 60.387539 -8.413879
v 8.143970 66.035812 -9.054359
v 2.279270 56.596687 -7.606690
v -0.671410 52.337719 -5.341220
v 7.447660 62.817749 -4.112430
v 7.488710 58.273842 -2.767780
v 6.865560 52.483978 -1.778760
v 3.799520 52.237911 -5.691310
v 5.675230 57.373028 -7.323870
v 9.021770 37.163319 4.397420
v 9.345490 39.109329 -2.237310
v 10.554900 38.613708 -2.685780
v 6.448920 38.090092 4.245020
v 3.993900 36.651642 6.607620
v 4.365500 36.805698 -7.158580
v 3.708490 38.748032 -6.214280
v 0.474790 38.024097 -5.028550
v -0.352960 35.472492 -5.550260
v -0.366400 66.042473 -8.170340
v -0.504940 68.020630 -8.244990
v 0.913640 59.549671 5.435620
v 5.860460 59.586037 2.266410
v 6.816990 63.796761 2.956810
v 9.170740 63.462391 0.170410
v 6.648870 66.595451 2.838450
v 11.050290 67.542023 -2.376090
v 4.497020 52.534527 3.583580
v 1.579750 52.342308 4.755560
v 1.617040 66.486732 5.338260
v 3.967990 70.794899 -6.450140
v 9.762390 66.872726 -8.742290
v 10.884439 68.444885 -5.565900
v 2.726430 71.006920 2.723930
v 5.291330 72.018616 -1.915060
v 0.059910 70.248024 3.385830
v 2.661740 76.362854 0.586800
v 3.376490 73.956055 -3.124750
v 0.693340 74.136391 -4.106340
v 0.674860 77.084862 -1.355430
v -0.276520 72.052124 -6.001450
v 0.623360 47.957649 5.166600
v 5.364230 47.932037 4.561810
v 8.418850 47.580292 -0.615660
v 4.986530 46.985741 -5.807040
v -0.405930 46.862431 -6.427900
v 11.363501 67.213890 -2.316540
v 8.887450 62.546978 -7.913870
v 12.696771 65.990097 -4.715470
v 11.480200 65.541000 -7.629450
v 8.913180 65.833122 0.071990
v 0.926300 75.977219 5.809780
v -1.000460 74.577873 7.073440
v 2.468510 71.612595 3.953540
v -0.431040 70.626022 6.222460
v -1.512690 73.230148 6.899490
v -0.401460 76.519211 6.988370
v -2.191830 76.474442 6.711320
v 2.365820 77.200851 3.379310
v -1.378470 80.442169 6.961760
v -2.699630 80.456841 6.832810
v -0.467780 77.805428 7.579730
v 0.457940 79.608139 6.740270
v 0.148650 81.668922 4.559940
v -1.355530 81.728287 3.885680
v -2.024450 74.639519 7.301950
v -2.831730 77.254852 6.787480
v -3.410560 75.274902 7.900700
v -3.190280 74.669487 7.329110
v -3.282140 73.090118 7.368060
v -1.978510 70.259552 7.415290
v -3.456950 70.309059 7.466590
v 2.329550 79.542915 3.321560
v 2.098910 80.785919 2.620800
v -0.008480 81.108368 0.725890
v 13.260880 65.352356 -1.692460
v 13.548059 63.386780 -4.860800
v 9.042150 58.428429 -0.239950
v 10.836329 61.695419 2.475530
v 10.008201 60.126846 -5.678030
v 11.940431 55.411049 2.299000
v 13.600101 54.581928 6.868270
v 13.333510 57.085091 5.749910
v 14.885691 54.165302 0.766920
v 16.075850 56.979179 0.874220
v 16.698730 54.237789 5.885310
v 15.806000 57.898659 2.847450
v 18.003561 56.398880 5.373640
v 14.016070 56.749008 4.745110
v 16.482630 58.363171 5.337420
v 13.583651 56.149658 -1.066600
v 14.247419 55.232941 -0.333960
v 14.951730 60.808418 -2.652960
v 14.416300 62.640831 0.301000
v 13.186190 58.193188 3.910650
v 12.446800 57.373230 -3.421870
v 15.566760 57.500309 13.144140
v 15.641520 59.318142 12.611680
v 17.009090 56.935459 12.957680
v 18.151529 58.262371 12.245580
v 17.585011 59.790478 11.943270
v 19.885941 62.981758 15.360169
v 19.145300 62.739910 15.852290
v 18.856241 61.560669 15.352210
v 19.451941 61.080090 14.762059
v 19.807480 60.139252 16.127359
v 18.268681 62.458309 13.560261
v 19.374220 61.955151 14.250220
v 19.103430 63.731369 15.169590
v 20.055061 63.686863 16.641140
v 19.400360 64.174225 16.430410
v 20.034069 61.117710 18.122829
v 15.437990 58.301121 17.277740
v 15.880110 58.824879 19.126120
v 17.001450 59.898750 21.603689
v 19.392651 61.982632 17.411230
v 16.810760 58.335819 19.040751
v 16.573910 57.551697 17.269381
v 20.036591 62.696747 20.450380
v 3.919400 25.794239 -1.458230
v 7.382390 19.625340 -8.257310
v 5.150020 17.853680 -3.346000
v 9.735350 26.616940 -2.836090
v 12.344260 19.472950 -4.958630
v 6.107360 26.831820 -5.448580
v 8.122390 23.457561 0.332550
v 9.185340 17.858120 -0.361690
v 7.906310 25.510620 1.208400
v 7.969200 27.852310 0.855810
v 10.513260 30.435711 -3.413890
v 7.712070 32.323109 3.221830
v 11.915501 8.827030 -6.713920
v 13.209869 6.163830 -7.421940
v 9.981930 6.846540 -9.302950
v 11.126910 6.551160 -4.320860
v 8.433640 8.035709 -6.052560
v 8.402289 4.886900 -6.577830
v 9.421700 1.780060 -10.144740
v 12.399290 2.580970 -10.656641
v 10.402170 0.880150 -1.778240
v 16.290211 2.495010 -2.819050
v 13.275729 3.262150 1.434390
v 16.012590 1.881970 1.298240
v 12.299351 0.781370 2.590150
v -10.271300 66.206886 -5.325100
v -2.389110 56.558411 -7.418620
v -6.337750 63.008263 -1.897190
v -7.428810 58.141678 -0.518950
v -5.152730 52.316322 -3.369320
v -6.165030 52.259651 1.468770
v -6.269060 57.281120 -6.332100
v -8.999280 38.735130 -0.262680
v -7.242460 36.427910 5.975690
v -10.264920 38.193600 -0.518870
v -4.779360 37.617661 5.360670
v -5.094630 36.660839 -6.257610
v -4.575010 38.712112 -5.473280
v -1.069320 37.917149 -5.069750
v -4.220460 59.477592 4.057010
v -4.321280 63.701660 5.474140
v -9.547320 63.367573 4.547000
v -3.990870 66.508339 5.464090
v -9.740089 67.769890 3.624070
v -1.951510 52.213139 5.136040
v -12.084841 67.497833 -3.644300
v -5.646560 70.748871 -4.694540
v -11.494531 68.712929 0.853650
v -2.765080 71.096809 2.489400
v -5.680010 72.287781 -1.423890
v -2.120240 76.582489 -1.423230
v -2.126660 74.102211 -3.991900
v -3.837170 47.527779 5.416210
v -7.886620 47.288177 0.770570
v -5.421780 46.852432 -4.866400
v -11.085461 65.646889 3.202690
v -10.470329 63.080788 -4.738160
v -13.144130 66.423096 1.082300
v -13.088360 64.676910 -2.161130
v -9.334340 63.390598 3.232310
v -4.495040 74.743584 5.551150
v -4.766140 76.247169 3.330070
v -3.393190 71.768555 3.170240
v -4.573490 70.822464 4.417940
v -4.127940 73.354172 5.760260
v -3.271920 76.525658 6.240840
v -4.684430 76.722321 5.122630
v -3.868140 77.496483 0.663710
v -3.690590 80.551826 5.954550
v -4.969360 78.018906 5.618780
v -4.839850 79.859398 4.432470
v -2.872670 81.812202 3.243830
v -3.963060 74.731461 6.457470
v -4.425520 70.375603 6.349320
v -3.615010 79.824821 0.732050
v -2.847580 81.020493 0.466030
v -12.380260 63.135662 3.070950
v -14.016800 62.795921 -0.308360
v -8.790180 58.411430 3.800740
v -8.166420 57.060333 -0.547440
v -11.205840 60.851040 -3.833470
v -12.239350 48.894302 4.813300
v -9.974640 52.666622 1.166950
v -10.299020 51.006451 3.512430
v -13.299910 51.887070 0.168880
v -14.292610 54.189610 1.955660
v -12.992740 51.156090 6.478950
v -13.391370 54.078789 3.953900
v -11.120220 53.506550 6.898360
v -8.557030 53.528370 5.636080
v -11.122089 52.456223 4.423900
v -12.661940 54.655491 -0.845860
v -12.993560 53.472179 -0.422690
v -14.520390 59.260750 0.550380
v -12.906651 59.633671 3.669440
v -10.352000 55.067211 3.551610
v -12.410099 56.914181 -2.551600
v -8.431700 46.307266 10.536460
v -6.895690 47.408562 10.150180
v -9.324400 47.575649 11.468530
v -8.260290 49.166142 11.762100
v -6.793350 49.293369 11.084681
v -3.378690 48.057930 14.844180
v -3.344370 49.090801 15.000071
v -4.502660 47.878159 14.279270
v -5.257970 48.837181 14.333381
v -5.992470 47.935600 15.572070
v -4.475800 49.315189 13.893360
v -3.897810 48.979149 12.602520
v -2.553790 48.837963 14.277460
v -2.460990 48.448620 15.986700
v -1.943730 48.244217 15.353350
v -4.729990 46.886581 17.085880
v -6.700220 43.144032 15.205420
v -7.332770 43.855110 13.548289
v -5.520480 42.625751 17.768440
v -3.989670 47.162178 16.159599
v -6.937390 43.484810 15.494480
v -7.970110 44.407238 14.124140
v -2.961560 45.764198 18.755871
v -6.790510 18.623230 -6.609110
v -3.211970 25.301340 -0.034310
v -4.410660 17.267670 -2.018680
v -11.659540 18.748171 -3.345380
v -9.071600 26.113930 -1.309750
v -5.508690 26.759310 -3.844130
v -7.272420 22.819021 1.660500
v -8.359221 17.268879 1.030440
v -7.132210 24.749779 2.644190
v -6.525110 27.483721 2.521310
v -10.018240 29.948271 -1.089380
v -5.946630 32.067390 4.658740
v -12.449790 5.162720 -4.642480
v -11.171670 7.914800 -4.182430
v -9.301340 5.667670 -6.711990
v -10.282950 5.973120 -1.681820
v -7.611880 4.103770 -3.805940
v -7.662630 7.198110 -3.540130
v -8.608820 0.555740 -6.915630
v -11.623321 1.215470 -7.433930
v -9.300700 0.687670 1.519900
v -15.267449 2.001800 0.496000
v -12.150060 3.407010 4.510610
v -14.844240 1.945280 4.646790
v -11.060061 1.124620 5.940980

vt 0.550479 0.485338
vt 0.414517 0.485338
vt 0.489174 0.497239
vt 0.490853 0.675485
vt 0.356970 0.710738
vt 0.458986 0.602657
vt 0.458693 0.603155
vt 0.491001 0.506534
vt 0.357039 0.710738
vt 0.272881 0.708251
vt 0.307767 0.663467
vt 0.329118 0.504113
vt 0.420682 0.504388
vt 0.307693 0.663467
vt 0.420389 0.504181
vt 0.390374 0.619683
vt 0.389206 0.622726
vt 0.390855 0.620128
vt 0.309151 0.663075
vt 0.578845 0.971377
vt 0.529882 0.993867
vt 0.501054 0.950636
vt 0.597833 0.993868
vt 0.684209 0.993870
vt 0.691613 0.940228
vt 0.584242 0.936155
vt 0.602549 0.993867
vt 0.689094 0.993870
vt 0.694409 0.971380
vt 0.730001 0.975635
vt 0.490853 0.781888
vt 0.490853 0.820915
vt 0.240556 0.660920
vt 0.133663 0.660928
vt 0.131880 0.753091
vt 0.060606 0.782384
vt 0.055577 0.663688
vt 0.136145 0.808744
vt 0.060014 0.783494
vt 0.058190 0.859642
vt 0.160773 0.512959
vt 0.067037 0.515196
vt 0.240700 0.512959
vt 0.131877 0.752996
vt 0.240556 0.781375
vt 0.390182 0.870896
vt 0.298691 0.847983
vt 0.294173 0.886121
vt 0.181129 0.899551
vt 0.052544 0.886601
vt 0.145152 0.921474
vt 0.235241 0.891030
vt 0.142740 0.921054
vt 0.172936 0.966074
vt 0.456563 0.999059
vt 0.389917 0.922986
vt 0.429989 0.941889
vt 0.491140 0.942697
vt 0.490646 0.999330
vt 0.490853 0.898039
vt 0.701416 0.118225
vt 0.813217 0.120956
vt 0.790107 0.184348
vt 0.877923 0.002315
vt 0.872775 0.120438
vt 0.505869 0.118716
vt 0.564263 0.119120
vt 0.507564 0.183764
vt 0.697589 0.180917
vt 0.580429 0.182675
vt 0.710756 0.001536
vt 0.701372 0.182427
vt 0.812168 0.002315
vt 0.857243 0.184348
vt 0.697567 0.116528
vt 0.503935 0.000692
vt 0.561277 0.000692
vt 0.688827 -0.000098
vt 0.002866 0.854679
vt 0.027518 0.706813
vt 0.061197 0.782654
vt 0.055608 0.663958
vt 0.251604 0.781884
vt 0.357109 0.710738
vt 0.243886 0.876138
vt 0.247300 0.848527
vt -0.000514 0.880403
vt 0.006948 0.782948
vt 0.674684 0.829607
vt 0.705811 0.784366
vt 0.654033 0.662928
vt 0.703232 0.671848
vt 0.720473 0.730776
vt 0.697736 0.853617
vt 0.729837 0.853035
vt 0.623758 0.856571
vt 0.587609 0.811448
vt 0.658187 0.605708
vt 0.748523 0.593788
vt 0.716351 0.931575
vt 0.747491 0.935506
vt 0.695349 0.885675
vt 0.676247 0.904603
vt 0.649719 0.961956
vt 0.745560 1.001324
vt 0.725611 0.781438
vt 0.747491 0.878462
vt 0.747491 0.808438
vt 0.720379 0.731031
vt 0.747491 0.790807
vt 0.720762 0.730332
vt 0.748639 0.732530
vt 0.746944 0.628012
vt 0.703659 0.671442
vt 0.731857 0.666086
vt 0.747085 0.666819
vt 0.703186 0.671176
vt 0.611291 0.885598
vt 0.604148 0.909350
vt 0.550618 0.823662
vt 0.550618 0.934468
vt 0.625864 0.557513
vt 0.571978 0.557920
vt 0.578607 0.510287
vt 0.669444 0.510287
vt 0.756032 0.560223
vt 0.679695 0.557918
vt 0.877240 0.461159
vt 0.992418 0.461159
vt 0.944262 0.560223
vt 0.756457 0.510287
vt 0.806202 0.560223
vt 0.498275 0.560223
vt 0.875566 0.382888
vt 0.758260 0.308662
vt 0.875912 0.308662
vt 0.759996 0.360654
vt 0.669163 0.382888
vt 0.671223 0.308662
vt 0.584325 0.382888
vt 0.577057 0.308662
vt 0.498223 0.363687
vt 0.498247 0.308662
vt 0.992597 0.308662
vt 0.992439 0.363687
vt 0.759483 0.410364
vt 0.758924 0.382888
vt 0.665903 0.461159
vt 0.580075 0.461159
vt 0.498223 0.402657
vt 0.992438 0.402657
vt 0.760539 0.449273
vt 0.498220 0.461159
vt 0.875438 0.575163
vt 0.762705 0.196431
vt 0.858161 0.196355
vt 0.690657 0.196417
vt 0.588027 0.196417
vt 0.498144 0.196431
vt 0.991918 0.196431
vt 0.375723 0.009258
vt 0.380090 0.017573
vt 0.356438 0.030356
vt 0.342839 0.029458
vt 0.369327 0.043627
vt 0.316032 0.012201
vt 0.336848 0.019568
vt 0.249292 0.041099
vt 0.371147 0.002582
vt 0.416197 0.004791
vt 0.408124 0.000758
vt 0.128136 0.016613
vt 0.154876 0.002573
vt 0.119423 0.002194
vt 0.160447 0.001473
vt 0.065726 0.014292
vt 0.105093 0.028910
vt 0.000825 0.069213
vt 0.000703 0.039244
vt 0.249314 0.055441
vt 0.429228 0.045736
vt 0.102506 0.115410
vt 0.153549 0.117195
vt 0.189513 0.114692
vt 0.228429 0.109580
vt 0.194639 0.033982
vt 0.406548 0.108121
vt 0.355355 0.108206
vt 0.448349 0.035630
vt 0.498209 0.039288
vt 0.461840 0.047992
vt 0.483032 0.114221
vt 0.406174 0.120334
vt 0.355217 0.119080
vt 0.243215 0.037501
vt 0.249314 0.089732
vt 0.000703 0.095058
vt 0.249292 0.105039
vt 0.160984 0.032072
vt 0.413806 0.033644
vt 0.442212 0.108407
vt 0.443088 0.117732
vt 0.023914 0.327327
vt 0.104127 0.227894
vt 0.000784 0.227894
vt 0.216171 0.327327
vt 0.216985 0.228421
vt 0.105699 0.228145
vt 0.104981 0.327662
vt 0.217575 0.327327
vt 0.351490 0.301452
vt 0.217290 0.227894
vt 0.351571 0.227894
vt 0.352420 0.301452
vt 0.489174 0.227894
vt 0.352342 0.227894
vt 0.471690 0.333380
vt 0.351597 0.328057
vt 0.217345 0.328075
vt 0.352312 0.363299
vt 0.470864 0.334174
vt 0.352330 0.328057
vt 0.216660 0.380224
vt 0.216104 0.328075
vt 0.104983 0.328371
vt 0.217232 0.380224
vt 0.351611 0.363299
vt 0.351459 0.420971
vt 0.352499 0.420971
vt 0.351589 0.497239
vt 0.229465 0.497239
vt 0.352627 0.497239
vt 0.229583 0.497239
vt 0.133020 0.497239
vt 0.072972 0.497239
vt 0.025422 0.328212
vt 0.002386 0.497239
vt 0.216130 0.152222
vt 0.223982 0.125749
vt 0.105883 0.155747
vt 0.351732 0.147623
vt 0.223132 0.128232
vt 0.218721 0.149411
vt 0.469070 0.149411
vt 0.483427 0.127273
vt 0.352306 0.146326
vt 0.017963 0.152222
vt 0.104256 0.155747
vt 0.009616 0.131504
vt 0.104128 0.227914
vt 0.000790 0.227921
vt 0.216984 0.228396
vt 0.351571 0.227971
vt 0.217291 0.227882
vt 0.352342 0.227879
vt 0.489111 0.227891
vt 0.948232 0.041698
vt 0.989968 0.003451
vt 0.971575 0.059997
vt 0.909211 0.004273
vt 0.996004 0.120663
vt 0.925604 0.058708
vt 0.885225 0.122889
vt 0.516483 0.798440
vt 0.501430 0.685191
vt 0.597947 0.686709
vt 0.594444 0.793024
vt 0.950876 0.082499
vt 0.943924 0.157220
vt 0.507177 0.624822
vt 0.600053 0.622523
vt 0.901715 0.182549
vt 0.982420 0.184037
vt 0.730212 0.975635
vt 0.685579 0.991654
vt 0.692830 0.969164

vn -0.528257 -0.845907 -0.073380
vn 0.046355 -0.179512 -0.982663
vn -0.219063 -0.335576 -0.916188
vn 0.981996 0.061705 0.178542
vn 0.779005 -0.186121 -0.598757
vn -0.080101 -0.424291 -0.901976
vn 0.157092 -0.350870 -0.923154
vn 0.901304 -0.316037 -0.296264
vn 0.132962 -0.230454 -0.963956
vn 0.874343 -0.404583 -0.268025
vn -0.449451 -0.851033 -0.271544
vn -0.310395 -0.907983 -0.281463
vn -0.218615 -0.715935 -0.663057
vn -0.143066 -0.832880 0.534643
vn -0.474009 -0.509483 0.718152
vn 0.383007 -0.302691 0.872745
vn 0.386402 -0.294269 0.874128
vn 0.951359 -0.308072 -0.002702
vn -0.103251 -0.044729 -0.993649
vn 0.523304 -0.252330 0.813930
vn 0.794729 -0.473018 0.380341
vn 0.757867 0.056540 0.649954
vn 0.538411 0.052992 0.841015
vn 0.909743 -0.100666 0.402782
vn 0.375248 -0.052639 0.925429
vn 0.404148 -0.028149 0.914260
vn -0.055539 0.441355 -0.895612
vn -0.103212 0.038889 -0.993899
vn 0.719754 -0.268474 0.640216
vn 0.334442 0.792307 -0.510292
vn 0.442879 0.064423 0.894264
vn 0.034601 0.502946 -0.863625
vn 0.766185 0.073026 0.638457
vn 0.591471 0.541415 0.597521
vn 0.612268 0.768534 0.185696
vn 0.364060 0.543375 0.756442
vn 0.185315 0.189802 0.964175
vn 0.834721 0.212751 0.507916
vn 0.761498 0.600889 -0.243010
vn 0.692857 0.494224 -0.525063
vn 0.237554 0.835261 -0.495891
vn 0.567002 0.681826 0.462193
vn 0.341232 0.877718 -0.336411
vn 0.765969 0.528450 -0.366104
vn 0.145578 0.729859 -0.667917
vn 0.318941 0.552063 -0.770392
vn 0.050817 0.483447 -0.873897
vn 0.124407 0.228656 0.965525
vn 0.860484 0.089180 0.501612
vn 0.820534 0.127765 -0.557136
vn -0.077968 0.004347 -0.996946
vn 0.125730 0.162226 0.978711
vn 0.372447 0.005760 0.928036
vn 0.915275 0.306885 0.260947
vn 0.812447 0.365157 0.454522
vn 0.886612 0.249791 0.389261
vn 0.767486 0.186966 -0.613195
vn 0.107619 0.198559 -0.974162
vn 0.775863 0.311494 -0.548643
vn 0.569850 0.073893 -0.818419
vn 0.110691 0.124161 -0.986069
vn -0.302776 -0.074620 -0.950136
vn 0.389480 0.118341 0.913401
vn 0.699208 0.696597 0.160814
vn 0.928296 -0.097779 -0.358757
vn 0.301015 -0.237744 -0.923508
vn 0.271411 0.416546 0.867655
vn 0.797589 0.449487 -0.402261
vn 0.778759 0.616018 0.118559
vn 0.383940 -0.247991 -0.889432
vn 0.709359 0.499164 -0.497640
vn -0.899975 -0.296313 -0.319756
vn 0.920003 0.084060 -0.382790
vn -0.663985 -0.102883 -0.740634
vn 0.604458 -0.121272 0.787352
vn 0.159577 -0.185785 0.969546
vn -0.154511 0.090783 0.983811
vn 0.842337 0.070387 0.534335
vn 0.994687 0.048292 0.090915
vn 0.981554 0.037307 0.187510
vn 0.347726 -0.810134 0.471985
vn -0.093085 0.196607 0.976054
vn 0.744966 -0.073813 0.663006
vn 0.864105 -0.017443 0.503009
vn -0.134856 0.914536 0.381363
vn 0.224713 0.317081 0.921392
vn 0.474519 0.308635 0.824364
vn 0.493681 0.312064 0.811723
vn 0.201873 -0.200457 0.958678
vn 0.015508 -0.269341 0.962920
vn -0.027380 0.922333 0.385425
vn -0.317701 -0.000316 0.948191
vn -0.000716 -0.686645 0.726993
vn 0.255310 0.008993 0.966817
vn 0.448579 -0.872457 0.193898
vn 0.630316 -0.075557 0.772653
vn -0.033962 -0.999321 -0.014321
vn 0.244341 0.128568 0.961128
vn 0.603418 0.043628 0.796231
vn 0.358576 -0.915184 0.184015
vn 0.035769 0.033138 0.998810
vn 0.994821 0.017871 0.100058
vn 0.986869 0.151428 -0.056213
vn 0.550007 -0.325292 0.769205
vn -0.128542 -0.419729 0.898501
vn 0.618915 -0.157247 0.769556
vn -0.242865 -0.289494 0.925856
vn 0.389020 0.696417 0.603048
vn 0.877075 0.025407 0.479681
vn 0.808810 0.395457 0.435248
vn 0.694779 0.569297 0.439526
vn 0.247936 0.301415 0.920694
vn 0.715230 0.365072 -0.595960
vn 0.637547 0.436623 -0.634739
vn 0.230680 0.968698 -0.091708
vn 0.159338 0.949043 -0.271900
vn 0.946708 -0.047473 0.318575
vn 0.696593 0.717150 0.021301
vn 0.550639 -0.407643 -0.728439
vn 0.861431 0.304388 -0.406552
vn -0.811668 -0.038691 0.582836
vn 0.942921 0.314459 -0.109618
vn 0.549681 -0.415156 -0.724911
vn -0.769888 -0.587275 -0.249761
vn 0.356407 0.602640 0.714002
vn -0.935054 0.056759 0.349932
vn -0.398911 -0.916739 -0.021454
vn 0.896427 -0.387362 0.215334
vn -0.236695 -0.864459 -0.443493
vn 0.968238 0.249509 0.016146
vn 0.504396 -0.475238 -0.720925
vn 0.164108 0.108990 -0.980403
vn -0.005738 0.857663 0.514180
vn -0.379431 0.768731 -0.514863
vn -0.126795 0.911601 -0.391034
vn -0.468088 -0.787298 -0.401318
vn -0.539022 -0.728363 -0.423017
vn 0.637362 -0.143559 -0.757074
vn 0.641499 -0.409307 -0.648804
vn 0.959638 0.281238 -0.000514
vn 0.959620 0.281301 0.000153
vn 0.355442 0.612308 0.706215
vn -0.700382 -0.187745 0.688634
vn -0.772287 -0.554324 -0.310319
vn -0.469106 -0.855775 -0.218147
vn 0.724475 -0.403136 -0.559122
vn 0.521107 -0.373466 -0.767444
vn 0.916291 0.372218 -0.147864
vn 0.932164 0.358110 -0.053179
vn 0.359160 0.587952 0.724787
vn 0.266953 0.642090 0.718649
vn -0.936141 -0.031061 0.350249
vn 0.696594 -0.269269 -0.665020
vn -0.528521 -0.741735 -0.412911
vn -0.748511 -0.047970 0.661385
vn 0.370566 0.521359 0.768678
vn -0.707360 -0.089444 0.701172
vn 0.328950 0.538577 0.775711
vn 0.531295 -0.203333 -0.822424
vn -0.551068 -0.763649 -0.336397
vn -0.952078 0.121382 0.280737
vn -0.957365 0.026560 0.287658
vn -0.267312 -0.839013 0.473922
vn 0.009161 -0.934432 0.356025
vn 0.861766 -0.485436 0.147345
vn 0.787038 -0.599473 0.145614
vn 0.938898 0.326558 -0.108771
vn 0.766774 0.588998 -0.255222
vn -0.387593 0.912268 -0.132431
vn -0.296822 0.932939 -0.203770
vn 0.592650 -0.433226 0.679030
vn 0.741905 0.626614 0.238606
vn 0.599188 0.297063 -0.743456
vn 0.594495 0.451400 -0.665443
vn 0.610369 0.421120 -0.670901
vn 0.678884 0.601686 -0.420822
vn 0.627604 0.676447 -0.385399
vn 0.797850 -0.579049 0.167741
vn 0.499642 -0.785040 0.366155
vn -0.975917 0.094254 0.196728
vn -0.465013 -0.258582 0.846698
vn -0.924771 0.188545 0.330528
vn -0.934201 0.081735 0.347257
vn -0.738946 0.473398 0.479431
vn -0.388038 0.548401 -0.740731
vn 0.719549 0.131875 -0.681805
vn 0.860326 0.412238 -0.299832
vn -0.699875 0.713419 -0.034754
vn -0.672796 0.739653 -0.016086
vn 0.672199 -0.692075 0.263023
vn 0.656291 -0.718501 0.230301
vn 0.866887 0.412094 -0.280509
vn 0.698608 -0.592458 0.401173
vn -0.413224 -0.845418 0.338399
vn -0.501331 -0.764403 0.405409
vn -0.683039 0.729890 -0.026781
vn 0.756162 -0.654356 -0.006188
vn -0.642352 0.754181 0.136364
vn -0.998858 0.030246 -0.036976
vn -0.351963 -0.930919 0.097526
vn 0.786995 0.362084 0.499533
vn 0.651743 -0.738824 0.171377
vn -0.544288 -0.826590 0.143181
vn 0.930374 -0.119996 -0.346418
vn 0.933194 -0.132253 -0.334152
vn -0.663161 0.748224 0.019430
vn 0.867709 0.391496 -0.306287
vn 0.667075 -0.657086 0.351069
vn -0.364968 -0.782563 0.504374
vn -0.904289 -0.039077 -0.425129
vn 0.513367 0.411260 -0.753206
vn 0.554098 0.385582 -0.737768
vn 0.821720 0.135628 0.553518
vn 0.807947 0.081009 0.583660
vn -0.581468 -0.207901 0.786557
vn -0.501518 -0.272903 0.820977
vn 0.916039 -0.071921 0.394588
vn -0.543677 0.139221 0.827667
vn 0.558927 -0.234213 -0.795453
vn 0.881736 -0.110213 0.458689
vn 0.888646 -0.173539 0.424491
vn -0.249739 -0.464113 0.849841
vn 0.906420 0.038984 0.420574
vn -0.532981 -0.378852 0.756573
vn -0.879662 0.029373 -0.474692
vn 0.898856 0.122207 0.420860
vn -0.430119 -0.248209 0.867980
vn 0.926134 0.074532 0.369757
vn 0.558602 0.184889 -0.808567
vn 0.403897 0.022545 -0.914527
vn -0.316964 -0.124227 -0.940267
vn -0.771311 -0.368697 -0.518789
vn -0.467538 -0.319281 0.824298
vn -0.958108 -0.282900 -0.044681
vn 0.519164 0.446130 -0.728997
vn 0.816358 0.259607 0.515911
vn -0.585256 -0.127747 0.800722
vn -0.887227 0.084487 -0.453531
vn 0.705972 0.199226 -0.679641
vn -0.912719 -0.154727 -0.378157
vn -0.873744 -0.166211 -0.457106
vn 0.552447 0.113896 -0.825730
vn 0.837472 -0.121574 0.532785
vn 0.937212 0.039603 0.346505
vn -0.635466 -0.350094 0.688199
vn -0.547850 -0.387603 0.741366
vn -0.900298 0.166379 -0.402220
vn -0.214202 0.183100 -0.959475
vn -0.922571 -0.379921 0.067251
vn 0.879641 0.193336 -0.434572
vn 0.240794 -0.961819 -0.130090
vn 0.236394 -0.962751 -0.131258
vn 0.545920 0.793981 0.267516
vn 0.511149 0.509376 -0.692288
vn -0.715667 0.359849 0.598607
vn 0.552734 0.795522 0.248253
vn -0.811710 0.322161 0.487174
vn 0.240998 -0.962179 -0.127013
vn 0.241484 -0.962107 -0.126631
vn 0.450774 0.877976 0.161122
vn 0.217290 0.340642 0.914739
vn -0.799785 0.481674 0.358237
vn 0.243318 -0.919984 -0.307288
vn -0.321662 -0.057712 -0.945094
vn 0.212817 -0.360399 -0.908197
vn -0.449124 0.335240 0.828192
vn -0.941809 -0.270013 -0.200222
vn -0.341139 -0.523210 -0.780945
vn -0.318742 -0.537542 -0.780674
vn -0.910627 -0.394409 -0.123287
vn -0.271948 -0.013383 -0.962219
vn -0.943575 -0.298160 -0.144109
vn 0.427579 -0.802031 -0.417039
vn 0.313390 -0.858559 -0.405788
vn 0.057804 -0.550262 -0.832989
vn 0.266761 -0.843778 0.465701
vn 0.696649 -0.403329 0.593300
vn -0.202993 -0.245782 0.947832
vn -0.178123 -0.311747 0.933320
vn -0.930480 -0.310783 0.193963
vn -0.276516 -0.055572 -0.959401
vn -0.242122 -0.313790 0.918103
vn -0.466429 -0.705868 0.533098
vn -0.261977 0.187018 0.946780
vn -0.259644 0.062049 0.963709
vn -0.654266 -0.092869 0.750541
vn 0.109767 -0.083311 0.990460
vn 0.017109 0.012296 0.999778
vn -0.376654 0.492446 -0.784620
vn -0.275484 0.030929 -0.960808
vn -0.145891 -0.317790 0.936870
vn -0.466302 0.867513 -0.173159
vn 0.022436 0.000937 0.999748
vn -0.331539 0.452509 -0.827839
vn -0.176131 0.024257 0.984068
vn -0.136733 0.564335 0.814144
vn -0.315972 0.819036 0.478896
vn 0.021629 0.467646 0.883651
vn -0.093450 0.559061 0.823844
vn -0.610737 0.506129 0.608962
vn -0.655968 0.543794 -0.523445
vn -0.104232 0.678121 -0.727522
vn -0.036882 0.718931 -0.694103
vn -0.312188 0.818817 0.481743
vn -0.586266 0.730703 -0.349807
vn -0.611495 0.713527 -0.341984
vn -0.317602 0.501944 -0.804476
vn -0.037910 0.681851 -0.730508
vn -0.315233 0.475057 -0.821553
vn 0.052113 0.038698 0.997891
vn -0.752355 0.104530 0.650411
vn -0.848197 0.349611 -0.397912
vn -0.389827 0.261156 -0.883081
vn 0.042010 0.138636 0.989452
vn 0.104322 0.070246 0.992060
vn -0.838677 0.280815 0.466652
vn -0.747327 0.168531 0.642728
vn -0.625465 0.294919 0.722368
vn -0.973795 0.103446 -0.202540
vn -0.293104 0.172429 -0.940403
vn -0.870079 0.284592 -0.402454
vn -0.731933 0.069038 -0.677870
vn -0.295316 0.119907 -0.947845
vn 0.128564 -0.075594 -0.988816
vn -0.057368 0.067804 0.996048
vn -0.733455 0.349026 0.583288
vn -0.891109 0.072937 -0.447889
vn -0.709524 -0.086142 -0.699396
vn -0.509766 0.155086 0.846219
vn -0.787405 0.537022 -0.302657
vn -0.545399 0.462691 0.698898
vn -0.727822 -0.097946 -0.678736
vn -0.936885 0.348447 0.028823
vn 0.554214 -0.187548 -0.810970
vn -0.212768 -0.975741 -0.051566
vn -0.781637 -0.608437 -0.137288
vn -0.953842 -0.289568 -0.079602
vn -0.831585 -0.138783 0.537779
vn -0.607117 0.112249 0.786645
vn -0.874638 -0.253379 -0.413289
vn -0.792411 -0.289718 -0.536794
vn -0.827511 -0.281255 -0.485922
vn -0.384143 -0.809399 0.444193
vn -0.634654 0.222299 0.740133
vn -0.995426 0.008723 -0.095136
vn -0.954758 0.068813 -0.289312
vn -0.114553 0.913571 0.390213
vn -0.800532 0.365693 0.474781
vn -0.899608 0.373795 0.225795
vn -0.903088 0.378301 0.203275
vn -0.853474 -0.150409 0.498957
vn -0.735735 -0.233709 0.635669
vn -0.189762 0.930033 0.314688
vn -0.477698 0.007272 0.878494
vn -0.585507 -0.658909 0.472250
vn -0.878981 0.062782 0.472705
vn -0.241133 -0.649810 -0.720834
vn -0.780667 0.187874 -0.596039
vn -0.043052 -0.998827 -0.022162
vn -0.857875 0.180833 0.480989
vn -0.987507 0.119071 0.103204
vn -0.166263 -0.963423 -0.210175
vn -0.751637 0.070479 0.655801
vn -0.740787 0.100032 -0.664250
vn -0.611003 0.223189 -0.759514
vn -0.960903 -0.253648 0.111037
vn -0.602984 -0.397236 0.691820
vn -0.994499 -0.080733 0.066734
vn -0.535108 -0.275615 0.798558
vn -0.649042 0.745645 0.150861
vn -0.943090 0.111722 -0.313207
vn -0.834897 0.473406 -0.280774
vn -0.746898 0.637664 -0.188491
vn -0.817002 0.351921 0.456792
vn -0.046792 0.384756 -0.921832
vn 0.066230 0.467299 -0.881615
vn -0.012261 0.980219 -0.197536
vn 0.166232 0.948716 -0.268895
vn -0.820944 0.016498 0.570771
vn -0.632150 0.288208 0.719251
vn -0.751015 -0.236522 -0.616468
vn -0.940221 0.292860 -0.173834
vn 0.987292 0.119816 0.104400
vn -0.900841 0.051458 0.431089
vn -0.780763 0.004035 -0.624815
vn 0.496909 -0.461972 -0.734618
vn -0.050695 -0.026237 0.998370
vn 0.499550 -0.738161 -0.453397
vn 0.345016 -0.751141 -0.562806
vn -0.926262 -0.375641 -0.030543
vn -0.938732 -0.342296 0.040207
vn -0.881237 0.234416 0.410452
vn -0.673142 0.428750 0.602539
vn -0.196296 0.902651 -0.383000
vn 0.594352 0.740114 -0.314604
vn 0.135999 0.581494 -0.802103
vn 0.894274 0.297542 0.334281
vn 0.296978 -0.450697 -0.841829
vn 0.341242 -0.399855 -0.850688
vn -0.867110 0.066464 -0.493663
vn -0.836629 -0.180860 -0.517051
vn -0.889072 0.084727 0.449858
vn -0.904899 0.100145 0.413678
vn 0.024928 0.310148 0.950361
vn 0.868281 -0.424614 0.256498
vn 0.471627 -0.330517 -0.817512
vn 0.362133 -0.587120 -0.723981
vn -0.876263 -0.224330 -0.426426
vn -0.790876 -0.035743 -0.610932
vn -0.885643 0.224855 0.406296
vn -0.879003 0.205645 0.430191
vn -0.061495 0.106573 0.992401
vn 0.017789 0.165833 0.985993
vn 0.849416 -0.146073 0.507105
vn -0.878649 -0.008353 -0.477396
vn 0.347042 -0.386053 -0.854708
vn 0.932981 -0.169009 0.317777
vn 0.118154 0.040498 0.992169
vn 0.900916 -0.226266 0.370343
vn -0.047319 -0.052212 0.997514
vn -0.805900 0.054561 -0.589533
vn 0.403777 -0.392577 -0.826346
vn 0.371801 -0.722857 -0.582445
vn 0.388325 -0.714883 -0.581503
vn -0.731371 -0.654805 0.190596
vn -0.835439 -0.478005 0.271207
vn -0.609687 0.359676 0.706339
vn -0.664185 0.319634 0.675790
vn 0.201298 0.786658 0.583651
vn 0.258715 0.801456 0.539199
vn 0.865671 -0.218790 -0.450271
vn 0.910059 0.143395 -0.388883
vn -0.430313 -0.120715 0.894572
vn 0.599807 0.434486 0.671903
vn 0.191919 0.967291 -0.165876
vn 0.222129 0.970234 -0.096456
vn 0.298520 0.947685 -0.113040
vn 0.442356 0.879342 0.176289
vn 0.527266 0.834230 0.161403
vn -0.663161 0.205658 0.719669
vn -0.765667 -0.071046 0.639301
vn 0.305615 -0.749682 -0.587006
vn 0.011265 -0.948884 0.315423
vn 0.449195 -0.784996 -0.426622
vn 0.346963 -0.836506 -0.424115
vn 0.610385 -0.745022 -0.269022
vn 0.462134 0.373659 -0.804246
vn -0.065191 0.996810 0.046046
vn 0.327515 0.882235 0.338223
vn 0.756324 -0.444912 -0.479613
vn 0.786866 -0.424413 -0.448012
vn -0.711048 0.138943 0.689279
vn -0.740440 0.145761 0.656126
vn 0.180220 0.894077 0.410057
vn -0.585418 0.233005 0.776527
vn -0.799960 -0.598072 0.048720
vn -0.659416 -0.751724 -0.009068
vn 0.733475 -0.433254 -0.523742
vn -0.732302 0.386450 0.560705
vn 0.782478 -0.477933 -0.399135
vn 0.316965 -0.675572 -0.665684
vn -0.857131 -0.492591 -0.150598
vn 0.363339 0.235293 0.901455
vn -0.771122 0.181815 0.610175
vn -0.748346 -0.621158 -0.232683
vn -0.278640 0.856284 0.434898
vn -0.288749 0.847405 0.445566
vn 0.803559 -0.449372 -0.390331
vn 0.072870 0.938509 0.337478
vn -0.781665 0.237410 0.576747
vn -0.719002 -0.666762 0.196123
vn 0.885533 -0.017457 -0.464248
vn -0.505698 0.390302 -0.769372
vn -0.585028 0.342071 -0.735344
vn -0.790490 0.111288 0.602280
vn -0.781940 0.082982 0.617806
vn 0.598162 -0.205073 0.774691
vn 0.509490 -0.277230 0.814594
vn -0.907221 -0.136790 0.397793
vn 0.570456 -0.089981 0.816384
vn -0.565949 -0.092641 -0.819219
vn -0.772501 -0.224850 0.593872
vn -0.767083 -0.189066 0.613056
vn 0.355358 -0.431502 0.829172
vn -0.847183 0.210060 0.488012
vn 0.553219 -0.409713 0.725317
vn 0.861907 0.036093 -0.505780
vn -0.788137 0.088724 0.609071
vn 0.625153 -0.225956 0.747080
vn -0.822545 0.042026 0.567146
vn -0.753604 0.147654 -0.640531
vn -0.555400 -0.069562 -0.828669
vn 0.081630 -0.140856 -0.986659
vn 0.734024 -0.355599 -0.578583
vn 0.635989 -0.249472 0.730261
vn 0.939822 -0.251795 -0.230940
vn -0.549891 0.379738 -0.743921
vn -0.808412 0.289798 0.512335
vn 0.595693 -0.059040 0.801039
vn 0.875884 0.055538 -0.479315
vn -0.728702 0.146537 -0.668970
vn 0.906591 -0.172643 -0.385081
vn 0.845126 -0.197903 -0.496586
vn -0.555670 0.039144 -0.830481
vn -0.808770 -0.081427 0.582462
vn -0.922901 0.066094 0.379323
vn 0.639084 -0.280774 0.716057
vn 0.582567 -0.302147 0.754535
vn 0.886691 0.137704 -0.441380
vn 0.182656 0.063829 -0.981103
vn 0.938366 -0.335724 0.082215
vn -0.898709 0.111729 -0.424073
vn -0.214782 -0.976660 -0.001857
vn -0.213428 -0.976956 -0.002225
vn -0.560032 0.806604 0.189088
vn -0.546808 0.404086 -0.733291
vn 0.727168 0.449447 0.518868
vn -0.570838 0.805027 0.161481
vn 0.817185 0.402045 0.412999
vn -0.214738 -0.976634 0.008596
vn -0.216748 -0.976174 0.010223
vn -0.473664 0.878642 0.060257
vn -0.200099 0.449899 0.870374
vn 0.796132 0.545003 0.262955
vn -0.095576 -0.990862 -0.095176

f 1/1/1 2/2/1 3/3/1
f 4/4/2 5/5/2 6/6/2
f 4/4/3 6/7/3 7/8/3
f 5/9/4 8/10/4 9/11/4
f 10/12/5 11/13/5 9/14/5
f 6/6/6 11/15/6 7/8/6
f 6/6/7 12/16/7 11/13/7
f 12/17/8 5/5/8 9/14/8
f 6/6/9 5/5/9 12/17/9
f 11/13/10 12/18/10 9/19/10
f 13/20/11 14/21/11 15/22/11
f 14/21/12 13/20/12 16/23/12
f 16/24/13 13/20/13 17/25/13
f 15/22/14 14/21/14 18/26/14
f 14/21/15 19/27/15 18/26/15
f 18/26/16 20/28/16 21/29/16
f 18/26/17 19/27/17 20/28/17
f 20/28/18 3/30/18 21/29/18
f 5/9/19 22/31/19 23/32/19
f 24/33/20 25/34/20 26/35/20
f 27/36/21 25/34/21 9/37/21
f 28/38/22 27/39/22 29/40/22
f 30/41/23 25/34/23 24/33/23
f 25/34/24 30/41/24 10/42/24
f 30/41/25 24/33/25 31/43/25
f 24/33/26 26/44/26 32/45/26
f 33/46/27 34/47/27 5/9/27
f 4/4/28 22/31/28 5/9/28
f 26/35/29 25/34/29 27/39/29
f 33/46/30 35/48/30 34/47/30
f 32/45/31 26/35/31 28/38/31
f 23/32/32 33/46/32 5/9/32
f 26/35/33 27/39/33 28/38/33
f 28/38/34 29/40/34 36/49/34
f 35/50/35 37/51/35 29/40/35
f 28/38/36 38/52/36 32/45/36
f 36/49/37 38/52/37 28/38/37
f 36/49/38 37/53/38 39/54/38
f 39/55/39 37/56/39 40/57/39
f 41/58/40 42/59/40 39/55/40
f 39/55/41 40/57/41 41/58/41
f 36/49/42 29/40/42 37/51/42
f 37/56/43 35/48/43 33/46/43
f 37/56/44 33/46/44 40/57/44
f 40/57/45 33/46/45 43/60/45
f 40/57/46 43/60/46 41/58/46
f 33/46/47 23/32/47 43/60/47
f 44/61/48 45/62/48 30/63/48
f 15/64/49 46/65/49 45/62/49
f 46/66/50 47/67/50 10/68/50
f 47/67/51 7/69/51 11/70/51
f 45/62/52 44/61/52 17/71/52
f 44/61/53 30/63/53 31/72/53
f 13/73/54 15/64/54 45/62/54
f 46/65/55 10/74/55 45/62/55
f 45/62/56 10/74/56 30/63/56
f 47/67/57 11/70/57 10/68/57
f 47/67/58 48/75/58 7/69/58
f 46/66/59 15/76/59 47/67/59
f 18/77/60 47/67/60 15/76/60
f 47/67/61 18/77/61 48/75/61
f 18/77/62 21/78/62 48/75/62
f 13/73/63 45/62/63 17/71/63
f 49/79/64 35/50/64 29/40/64
f 8/80/65 27/81/65 9/82/65
f 34/47/66 50/83/66 5/84/66
f 27/36/67 49/79/67 29/40/67
f 35/48/68 51/85/68 52/86/68
f 35/50/69 49/79/69 51/87/69
f 52/86/70 50/83/70 34/47/70
f 35/48/71 52/86/71 34/47/71
f 5/84/72 50/83/72 8/10/72
f 53/88/73 27/81/73 8/80/73
f 53/88/74 49/79/74 27/36/74
f 54/89/75 55/90/75 56/91/75
f 57/92/76 55/90/76 58/93/76
f 59/94/77 60/95/77 55/90/77
f 61/96/78 54/89/78 56/91/78
f 39/97/79 61/96/79 36/98/79
f 36/98/80 61/96/80 56/91/80
f 36/98/81 56/91/81 38/99/81
f 62/100/82 63/101/82 64/102/82
f 65/103/83 64/102/83 54/89/83
f 61/96/84 65/103/84 54/89/84
f 66/104/85 67/105/85 62/100/85
f 55/90/86 60/95/86 68/106/86
f 69/107/87 68/106/87 60/95/87
f 69/107/88 70/108/88 68/106/88
f 58/109/89 55/90/89 68/106/89
f 68/106/90 71/110/90 58/111/90
f 62/100/91 67/105/91 63/101/91
f 64/102/92 63/101/92 69/107/92
f 70/108/93 71/110/93 68/106/93
f 58/111/94 71/110/94 72/112/94
f 56/91/95 57/92/95 38/113/95
f 55/90/96 57/114/96 56/91/96
f 73/115/97 74/116/97 38/113/97
f 58/109/98 72/112/98 73/115/98
f 57/117/99 58/111/99 73/115/99
f 57/92/100 73/115/100 38/113/100
f 73/115/101 72/112/101 74/116/101
f 39/97/102 75/118/102 61/96/102
f 75/118/103 39/97/103 76/119/103
f 64/102/104 59/94/104 54/89/104
f 64/102/105 60/95/105 59/94/105
f 54/89/106 59/94/106 55/90/106
f 64/102/107 69/107/107 60/95/107
f 65/103/108 66/104/108 62/100/108
f 65/103/109 61/96/109 75/118/109
f 75/118/110 76/119/110 65/103/110
f 66/104/111 65/103/111 76/119/111
f 62/100/112 64/102/112 65/103/112
f 39/97/113 42/120/113 76/119/113
f 77/121/114 76/119/114 42/120/114
f 67/105/115 76/119/115 77/121/115
f 66/104/116 76/119/116 67/105/116
f 9/82/117 25/34/117 10/42/117
f 51/122/118 49/123/118 78/124/118
f 79/125/119 50/126/119 52/127/119
f 52/127/120 51/122/120 79/125/120
f 80/128/121 81/129/121 53/130/121
f 51/122/122 78/124/122 79/125/122
f 82/131/123 50/126/123 79/125/123
f 50/126/124 82/131/124 8/132/124
f 53/133/125 78/124/125 49/123/125
f 83/134/126 84/135/126 85/136/126
f 84/135/127 83/134/127 86/137/127
f 86/137/128 87/138/128 84/135/128
f 88/139/129 84/135/129 87/138/129
f 87/138/130 89/140/130 88/139/130
f 90/141/131 88/139/131 89/140/131
f 91/142/132 92/143/132 90/141/132
f 90/141/133 89/140/133 91/142/133
f 85/136/134 92/144/134 91/145/134
f 91/145/135 83/134/135 85/136/135
f 80/128/136 93/146/136 83/134/136
f 94/147/137 83/134/137 93/146/137
f 93/146/138 87/138/138 94/147/138
f 87/138/139 93/146/139 95/148/139
f 95/148/140 96/149/140 87/138/140
f 89/140/141 87/138/141 96/149/141
f 97/150/142 91/142/142 89/140/142
f 97/151/143 81/129/143 80/128/143
f 8/132/144 82/131/144 80/128/144
f 93/146/145 80/128/145 98/152/145
f 98/152/146 95/148/146 93/146/146
f 95/148/147 82/131/147 79/125/147
f 79/125/148 78/124/148 95/148/148
f 96/149/149 95/148/149 78/124/149
f 78/124/150 53/133/150 81/153/150
f 81/153/151 96/149/151 78/124/151
f 80/128/152 53/130/152 8/154/152
f 94/147/153 87/138/153 86/137/153
f 86/137/154 83/134/154 94/147/154
f 97/151/155 83/134/155 91/145/155
f 89/140/156 96/149/156 97/150/156
f 80/128/157 83/134/157 97/151/157
f 81/153/158 97/150/158 96/149/158
f 82/131/159 95/148/159 98/152/159
f 98/152/160 80/128/160 82/131/160
f 85/136/161 99/155/161 100/156/161
f 99/155/162 85/136/162 84/135/162
f 84/135/163 101/157/163 99/155/163
f 101/157/164 84/135/164 88/139/164
f 88/139/165 90/141/165 101/157/165
f 102/158/166 101/157/166 90/141/166
f 90/141/167 103/159/167 102/158/167
f 103/159/168 90/141/168 92/143/168
f 92/144/169 85/136/169 103/160/169
f 100/156/170 103/160/170 85/136/170
f 104/161/171 105/162/171 106/163/171
f 107/164/172 106/163/172 108/165/172
f 109/166/173 110/167/173 103/168/173
f 109/166/174 111/169/174 104/161/174
f 104/161/175 110/167/175 109/166/175
f 104/161/176 111/169/176 112/170/176
f 113/171/177 112/170/177 111/169/177
f 106/163/178 110/167/178 104/161/178
f 104/161/179 112/170/179 105/162/179
f 105/172/180 113/173/180 111/174/180
f 113/173/181 105/172/181 112/175/181
f 105/172/182 111/174/182 109/176/182
f 109/176/183 106/177/183 105/172/183
f 109/176/184 100/178/184 106/177/184
f 103/179/185 100/178/185 109/176/185
f 102/180/186 103/168/186 110/167/186
f 106/163/187 114/181/187 108/165/187
f 115/182/188 116/183/188 106/177/188
f 116/184/189 117/185/189 118/186/189
f 108/165/190 114/181/190 119/187/190
f 119/187/191 120/188/191 108/165/191
f 118/189/192 121/190/192 114/191/192
f 114/191/193 121/190/193 117/192/193
f 116/193/194 115/194/194 119/187/194
f 120/188/195 119/187/195 115/194/195
f 121/195/196 118/186/196 117/185/196
f 108/165/197 101/196/197 102/180/197
f 115/182/198 106/177/198 100/178/198
f 100/178/199 99/197/199 115/182/199
f 120/188/200 99/198/200 101/196/200
f 106/163/201 107/164/201 110/167/201
f 108/165/202 120/188/202 101/196/202
f 120/188/203 115/194/203 99/198/203
f 107/164/204 102/180/204 110/167/204
f 102/180/205 107/164/205 108/165/205
f 118/199/206 106/177/206 116/183/206
f 114/181/207 106/163/207 118/200/207
f 114/191/208 117/192/208 119/201/208
f 117/192/209 116/202/209 119/201/209
f 122/203/210 123/204/210 124/205/210
f 125/206/211 126/207/211 123/208/211
f 125/206/212 123/208/212 127/209/212
f 125/210/213 128/211/213 126/212/213
f 128/211/214 129/213/214 126/212/214
f 128/214/215 124/215/215 129/216/215
f 122/217/216 124/215/216 128/214/216
f 130/218/217 128/211/217 125/219/217
f 131/220/218 122/221/218 130/222/218
f 132/223/219 125/224/219 127/225/219
f 132/226/220 131/227/220 125/219/220
f 133/228/221 131/227/221 132/226/221
f 133/229/222 122/221/222 131/220/222
f 130/218/223 125/219/223 131/227/223
f 128/214/224 130/222/224 122/221/224
f 127/209/225 123/204/225 122/203/225
f 16/230/226 133/228/226 14/231/226
f 16/232/227 3/3/227 133/229/227
f 14/231/228 133/228/228 132/226/228
f 14/233/229 132/223/229 19/234/229
f 132/223/230 127/225/230 19/234/230
f 20/235/231 19/234/231 127/225/231
f 20/235/232 127/225/232 122/236/232
f 3/3/233 122/221/233 133/229/233
f 3/237/234 20/235/234 122/236/234
f 134/238/235 135/239/235 136/240/235
f 137/241/236 135/242/236 134/243/236
f 138/244/237 139/245/237 137/246/237
f 138/247/238 136/248/238 139/249/238
f 134/238/239 136/240/239 123/208/239
f 138/247/240 123/250/240 136/248/240
f 123/250/241 138/247/241 124/251/241
f 134/238/242 123/208/242 126/252/242
f 129/253/243 134/243/243 126/254/243
f 137/241/244 134/243/244 129/253/244
f 138/244/245 137/246/245 129/255/245
f 138/244/246 129/255/246 124/256/246
f 136/257/247 140/258/247 139/259/247
f 136/257/248 141/260/248 140/258/248
f 142/261/249 139/259/249 140/258/249
f 135/262/250 143/263/250 141/260/250
f 141/264/251 143/265/251 142/266/251
f 142/266/252 140/267/252 141/264/252
f 137/268/253 143/263/253 135/262/253
f 135/262/254 141/260/254 136/257/254
f 139/259/255 142/261/255 137/268/255
f 137/268/256 144/269/256 143/263/256
f 137/268/257 142/261/257 144/269/257
f 143/265/258 145/270/258 146/271/258
f 146/271/259 142/266/259 143/265/259
f 143/263/260 144/269/260 145/272/260
f 144/269/261 146/273/261 145/272/261
f 146/273/262 144/269/262 142/261/262
f 3/274/263 16/275/263 17/276/263
f 147/5/264 4/4/264 148/6/264
f 148/7/265 4/4/265 7/8/265
f 149/10/266 147/9/266 150/11/266
f 151/13/267 152/12/267 150/14/267
f 151/15/268 148/6/268 7/8/268
f 153/16/269 148/6/269 151/13/269
f 147/5/270 153/17/270 150/14/270
f 147/5/271 148/6/271 153/17/271
f 153/18/272 151/13/272 150/19/272
f 154/21/273 155/20/273 156/22/273
f 155/20/274 154/21/274 157/23/274
f 155/20/275 157/24/275 17/25/275
f 154/21/276 156/22/276 158/26/276
f 159/27/277 154/21/277 158/26/277
f 160/28/278 158/26/278 21/29/278
f 159/27/279 158/26/279 160/28/279
f 3/30/280 160/28/280 21/29/280
f 22/31/281 147/9/281 23/32/281
f 161/34/282 24/33/282 162/35/282
f 161/34/283 163/36/283 150/37/283
f 163/39/284 164/38/284 165/40/284
f 161/34/285 166/41/285 24/33/285
f 166/41/286 161/34/286 152/42/286
f 24/33/287 166/41/287 31/43/287
f 162/44/288 24/33/288 32/45/288
f 167/47/289 168/46/289 147/9/289
f 22/31/290 4/4/290 147/9/290
f 161/34/291 162/35/291 163/39/291
f 169/48/292 168/46/292 167/47/292
f 162/35/293 32/45/293 164/38/293
f 168/46/294 23/32/294 147/9/294
f 163/39/295 162/35/295 164/38/295
f 165/40/296 164/38/296 170/49/296
f 171/51/297 169/50/297 165/40/297
f 38/52/298 164/38/298 32/45/298
f 38/52/299 170/49/299 164/38/299
f 171/53/300 170/49/300 172/54/300
f 171/56/301 172/55/301 173/57/301
f 42/59/302 41/58/302 172/55/302
f 173/57/303 172/55/303 41/58/303
f 165/40/304 170/49/304 171/51/304
f 169/48/305 171/56/305 168/46/305
f 168/46/306 171/56/306 173/57/306
f 168/46/307 173/57/307 43/60/307
f 43/60/308 173/57/308 41/58/308
f 23/32/309 168/46/309 43/60/309
f 174/62/310 44/61/310 166/63/310
f 175/65/311 156/64/311 174/62/311
f 176/67/312 175/66/312 152/68/312
f 7/69/313 176/67/313 151/70/313
f 44/61/314 174/62/314 17/71/314
f 166/63/315 44/61/315 31/72/315
f 156/64/316 155/73/316 174/62/316
f 152/74/317 175/65/317 174/62/317
f 152/74/318 174/62/318 166/63/318
f 151/70/319 176/67/319 152/68/319
f 48/75/320 176/67/320 7/69/320
f 156/76/321 175/66/321 176/67/321
f 176/67/322 158/77/322 156/76/322
f 158/77/323 176/67/323 48/75/323
f 21/78/324 158/77/324 48/75/324
f 174/62/325 155/73/325 17/71/325
f 169/50/326 177/79/326 165/40/326
f 163/81/327 149/80/327 150/82/327
f 178/83/328 167/47/328 147/84/328
f 177/79/329 163/36/329 165/40/329
f 179/85/330 169/48/330 180/86/330
f 177/79/331 169/50/331 179/87/331
f 178/83/332 180/86/332 167/47/332
f 180/86/333 169/48/333 167/47/333
f 178/83/334 147/84/334 149/10/334
f 163/81/335 181/88/335 149/80/335
f 177/79/336 181/88/336 163/36/336
f 182/90/337 183/89/337 184/91/337
f 182/90/338 185/92/338 186/93/338
f 187/95/339 188/94/339 182/90/339
f 183/89/340 189/96/340 184/91/340
f 189/96/341 172/97/341 170/98/341
f 189/96/342 170/98/342 184/91/342
f 184/91/343 170/98/343 38/99/343
f 63/101/344 190/100/344 191/102/344
f 191/102/345 192/103/345 183/89/345
f 192/103/346 189/96/346 183/89/346
f 67/105/347 193/104/347 190/100/347
f 187/95/348 182/90/348 194/106/348
f 194/106/349 69/107/349 187/95/349
f 70/108/350 69/107/350 194/106/350
f 182/90/351 186/109/351 194/106/351
f 71/110/352 194/106/352 186/111/352
f 67/105/353 190/100/353 63/101/353
f 63/101/354 191/102/354 69/107/354
f 71/110/355 70/108/355 194/106/355
f 71/110/356 186/111/356 72/112/356
f 185/92/357 184/91/357 38/113/357
f 185/114/358 182/90/358 184/91/358
f 74/116/359 195/115/359 38/113/359
f 72/112/360 186/109/360 195/115/360
f 186/111/361 185/117/361 195/115/361
f 195/115/362 185/92/362 38/113/362
f 72/112/363 195/115/363 74/116/363
f 196/118/364 172/97/364 189/96/364
f 172/97/365 196/118/365 197/119/365
f 188/94/366 191/102/366 183/89/366
f 187/95/367 191/102/367 188/94/367
f 188/94/368 183/89/368 182/90/368
f 69/107/369 191/102/369 187/95/369
f 193/104/370 192/103/370 190/100/370
f 189/96/371 192/103/371 196/118/371
f 197/119/372 196/118/372 192/103/372
f 192/103/373 193/104/373 197/119/373
f 191/102/374 190/100/374 192/103/374
f 42/120/375 172/97/375 197/119/375
f 197/119/376 77/121/376 42/120/376
f 197/119/377 67/105/377 77/121/377
f 197/119/378 193/104/378 67/105/378
f 161/34/379 150/82/379 152/42/379
f 177/123/380 179/122/380 198/124/380
f 178/126/381 199/125/381 180/127/381
f 179/122/382 180/127/382 199/125/382
f 200/129/383 201/128/383 181/130/383
f 198/124/384 179/122/384 199/125/384
f 178/126/385 202/131/385 199/125/385
f 202/131/386 178/126/386 149/132/386
f 198/124/387 181/133/387 177/123/387
f 203/135/388 204/134/388 205/136/388
f 204/134/389 203/135/389 206/137/389
f 207/138/390 206/137/390 203/135/390
f 203/135/391 208/139/391 207/138/391
f 209/140/392 207/138/392 208/139/392
f 208/139/393 210/141/393 209/140/393
f 211/143/394 212/142/394 210/141/394
f 209/140/395 210/141/395 212/142/395
f 211/144/396 205/136/396 212/145/396
f 204/134/397 212/145/397 205/136/397
f 213/146/398 201/128/398 204/134/398
f 204/134/399 214/147/399 213/146/399
f 207/138/400 213/146/400 214/147/400
f 213/146/401 207/138/401 215/148/401
f 216/149/402 215/148/402 207/138/402
f 207/138/403 209/140/403 216/149/403
f 212/142/404 217/150/404 209/140/404
f 200/129/405 217/151/405 201/128/405
f 202/131/406 149/132/406 201/128/406
f 201/128/407 213/146/407 218/152/407
f 215/148/408 218/152/408 213/146/408
f 202/131/409 215/148/409 199/125/409
f 198/124/410 199/125/410 215/148/410
f 215/148/411 216/149/411 198/124/411
f 181/133/412 198/124/412 200/153/412
f 216/149/413 200/153/413 198/124/413
f 181/130/414 201/128/414 149/154/414
f 207/138/415 214/147/415 206/137/415
f 204/134/416 206/137/416 214/147/416
f 204/134/417 217/151/417 212/145/417
f 216/149/418 209/140/418 217/150/418
f 204/134/419 201/128/419 217/151/419
f 217/150/420 200/153/420 216/149/420
f 215/148/421 202/131/421 218/152/421
f 201/128/422 218/152/422 202/131/422
f 219/155/423 205/136/423 220/156/423
f 205/136/424 219/155/424 203/135/424
f 221/157/425 203/135/425 219/155/425
f 203/135/426 221/157/426 208/139/426
f 210/141/427 208/139/427 221/157/427
f 221/157/428 222/158/428 210/141/428
f 223/159/429 210/141/429 222/158/429
f 210/141/430 223/159/430 211/143/430
f 205/136/431 211/144/431 223/160/431
f 223/160/432 220/156/432 205/136/432
f 224/162/433 225/161/433 226/163/433
f 226/163/434 227/164/434 228/165/434
f 229/167/435 230/166/435 223/168/435
f 231/169/436 230/166/436 225/161/436
f 229/167/437 225/161/437 230/166/437
f 231/169/438 225/161/438 232/170/438
f 232/170/439 233/171/439 231/169/439
f 229/167/440 226/163/440 225/161/440
f 232/170/441 225/161/441 224/162/441
f 233/173/442 224/172/442 231/174/442
f 224/172/443 233/173/443 232/175/443
f 231/174/444 224/172/444 230/176/444
f 226/177/445 230/176/445 224/172/445
f 220/178/446 230/176/446 226/177/446
f 220/178/447 223/179/447 230/176/447
f 223/168/448 222/180/448 229/167/448
f 234/181/449 226/163/449 228/165/449
f 235/183/450 236/182/450 226/177/450
f 237/185/451 235/184/451 238/186/451
f 234/181/452 228/165/452 239/187/452
f 240/188/453 239/187/453 228/165/453
f 241/190/454 238/189/454 234/191/454
f 241/190/455 234/191/455 237/192/455
f 236/194/456 235/193/456 239/187/456
f 239/187/457 240/188/457 236/194/457
f 238/186/458 241/195/458 237/185/458
f 221/196/459 228/165/459 222/180/459
f 226/177/460 236/182/460 220/178/460
f 219/197/461 220/178/461 236/182/461
f 219/198/462 240/188/462 221/196/462
f 227/164/463 226/163/463 229/167/463
f 240/188/464 228/165/464 221/196/464
f 236/194/465 240/188/465 219/198/465
f 222/180/466 227/164/466 229/167/466
f 227/164/467 222/180/467 228/165/467
f 226/177/468 238/199/468 235/183/468
f 226/163/469 234/181/469 238/200/469
f 237/192/470 234/191/470 239/201/470
f 235/202/471 237/192/471 239/201/471
f 242/204/472 243/203/472 244/205/472
f 245/207/473 246/206/473 242/208/473
f 242/208/474 246/206/474 247/209/474
f 248/211/475 246/210/475 245/212/475
f 249/213/476 248/211/476 245/212/476
f 244/215/477 248/214/477 249/216/477
f 244/215/478 243/217/478 248/214/478
f 248/211/479 250/218/479 246/219/479
f 243/221/480 251/220/480 250/222/480
f 246/224/481 252/223/481 247/225/481
f 251/227/482 252/226/482 246/219/482
f 251/227/483 253/228/483 252/226/483
f 243/221/484 253/229/484 251/220/484
f 246/219/485 250/218/485 251/227/485
f 250/222/486 248/214/486 243/221/486
f 242/204/487 247/209/487 243/203/487
f 253/228/488 157/230/488 154/231/488
f 3/3/489 157/232/489 253/229/489
f 253/228/490 154/231/490 252/226/490
f 252/223/491 154/233/491 159/234/491
f 247/225/492 252/223/492 159/234/492
f 159/234/493 160/235/493 247/225/493
f 247/225/494 160/235/494 243/236/494
f 243/221/495 3/3/495 253/229/495
f 160/235/496 3/237/496 243/236/496
f 254/239/497 255/238/497 256/240/497
f 254/242/498 257/241/498 255/243/498
f 258/245/499 259/244/499 257/246/499
f 256/248/500 259/247/500 258/249/500
f 256/240/501 255/238/501 242/208/501
f 242/250/502 259/247/502 256/248/502
f 259/247/503 242/250/503 244/251/503
f 242/208/504 255/238/504 245/252/504
f 255/243/505 249/253/505 245/254/505
f 255/243/506 257/241/506 249/253/506
f 257/246/507 259/244/507 249/255/507
f 249/255/508 259/244/508 244/256/508
f 260/258/509 256/257/509 258/259/509
f 261/260/510 256/257/510 260/258/510
f 258/259/511 262/261/511 260/258/511
f 263/263/512 254/262/512 261/260/512
f 263/265/513 261/264/513 262/266/513
f 260/267/514 262/266/514 261/264/514
f 263/263/515 257/268/515 254/262/515
f 261/260/516 254/262/516 256/257/516
f 262/261/517 258/259/517 257/268/517
f 264/269/518 257/268/518 263/263/518
f 262/261/519 257/268/519 264/269/519
f 265/270/520 263/265/520 266/271/520
f 262/266/521 266/271/521 263/265/521
f 264/269/522 263/263/522 265/272/522
f 266/273/523 264/269/523 265/272/523
f 264/269/524 266/273/524 262/261/524
f 157/275/525 3/274/525 17/276/525

o 
usemtl axe.001
s off

v 30.243589 66.424309 7.169390
v 24.495489 63.199089 10.359690
v 31.929100 69.582397 14.931020
v 29.101751 67.798660 14.866500
v 31.778109 69.744720 17.059999
v 28.950760 67.960968 16.995480
v 28.986500 67.775749 24.895010
v 23.708761 64.044884 21.453112
v 35.756519 69.902359 7.295200
v 34.499420 71.253792 25.020809
v 41.034260 73.633217 10.737100
v 34.756462 71.366165 14.995550
v 34.605469 71.528458 17.124521
v 40.247520 74.479004 21.830521
v 30.137550 66.149643 15.065690
v 32.964909 67.933380 15.130210
v 29.986561 66.311958 17.194660
v 32.813919 68.095688 17.259180
v 35.792259 69.717133 15.194730
v 35.641270 69.879448 17.323700
v 0.888090 49.998970 14.222690
v 0.737100 50.161289 16.351660
v 1.772910 48.512260 16.550840
v 1.232110 49.964470 14.397480
v 41.152832 74.379089 16.295490
v -28.677849 31.599829 15.682159
v -27.672729 30.034630 15.768980
v -27.490910 29.788511 13.752450
v -28.526918 31.437399 13.553200

vt 0.033358 0.643728
vt 0.190411 0.923560
vt 0.402692 0.503812
vt 0.402692 0.647326
vt 0.408249 0.287497
vt 0.408249 0.367848
vt 0.492649 0.287497
vt 0.492649 0.367848
vt 0.403043 0.503812
vt 0.403044 0.647326
vt 0.033710 0.643728
vt 0.190763 0.923560
vt 0.033358 0.363896
vt 0.033710 0.363896
vt 0.190411 0.084064
vt 0.402692 0.360297
vt 0.408249 0.207147
vt 0.492649 0.207147
vt 0.403043 0.360297
vt 0.190763 0.084064
vt 0.408248 1.036942
vt 0.492649 1.036942
vt 0.483600 0.371280
vt 0.402049 0.371280
vt 0.402049 1.040375
vt 0.483600 1.040375
vt 0.450449 0.037941
vt 0.483600 0.210579
vt 0.402049 0.210579
vt 0.442825 0.041374
vt 0.000000 1.000000

vn -0.562651 0.801179 -0.203804
vn -0.502118 0.807122 -0.310536
vn -0.529144 0.842409 -0.101753
vn -0.533807 0.845314 0.022236
vn -0.586477 0.809677 0.021638
vn -0.516332 0.826527 -0.224176
vn -0.461448 0.858643 -0.223153
vn -0.532060 0.839311 0.111663
vn -0.488634 0.872487 0.001643
vn 0.532059 -0.839312 -0.111661
vn 0.488634 -0.872487 -0.001643
vn 0.529142 -0.842411 0.101754
vn 0.461450 -0.858643 0.223152
vn 0.516328 -0.826529 0.224175
vn 0.533808 -0.845314 -0.022236
vn 0.586476 -0.809677 -0.021639
vn 0.562651 -0.801179 0.203804
vn 0.502121 -0.807121 0.310531
vn -0.542801 -0.243876 0.803674
vn -0.427241 -0.368110 -0.825809
vn 0.542801 0.243878 -0.803673
vn 0.427242 0.368108 0.825809
vn 0.408605 -0.705848 -0.578637
vn 0.066782 -0.078201 -0.994698
vn 0.345260 -0.518976 -0.781959
vn -0.070536 0.075829 0.994623
vn -0.407683 0.907836 -0.098125
vn 0.640527 -0.760937 0.103444
vn 0.057331 0.155138 0.986228
vn 0.196807 0.005196 -0.980429
vn -0.057450 0.052230 0.996981
vn 0.108778 -0.129813 -0.985554
vn 0.536536 -0.797200 -0.276771
vn -0.529228 0.842354 -0.101773
vn -0.846072 -0.532951 -0.011237
vn -0.840838 -0.540977 -0.018336

f 267/277/526 268/278/526 269/279/526
f 270/280/527 269/279/527 268/278/527
f 269/281/528 270/282/528 271/283/528
f 272/284/528 271/283/528 270/282/528
f 271/285/529 272/286/529 273/287/529
f 274/288/530 273/287/530 272/286/530
f 275/289/531 267/277/531 269/279/531
f 273/287/529 276/290/529 271/285/529
f 277/291/532 275/289/532 278/292/532
f 269/279/531 278/292/531 275/289/531
f 278/293/528 269/281/528 279/294/528
f 271/283/528 279/294/528 269/281/528
f 279/295/533 271/285/533 280/296/533
f 276/290/534 280/296/534 271/285/534
f 281/280/535 268/278/535 282/279/535
f 267/277/536 282/279/536 268/278/536
f 283/284/537 281/282/537 284/283/537
f 282/281/537 284/283/537 281/282/537
f 274/288/538 283/286/538 273/287/538
f 284/285/539 273/287/539 283/286/539
f 282/279/540 267/277/540 275/289/540
f 273/287/539 284/285/539 276/290/539
f 282/279/540 275/289/540 285/292/540
f 277/291/541 285/292/541 275/289/541
f 284/283/537 282/281/537 286/294/537
f 285/293/537 286/294/537 282/281/537
f 276/290/542 284/285/542 280/296/542
f 286/295/543 280/296/543 284/285/543
f 270/280/544 268/278/544 281/280/544
f 283/286/545 274/288/545 272/286/545
f 279/295/546 280/296/546 286/295/546
f 285/292/547 277/291/547 278/292/547
f 272/284/528 270/282/528 287/297/528
f 287/297/528 288/298/528 272/284/528
f 281/282/537 283/284/537 289/298/537
f 289/298/548 290/297/548 281/282/548
f 270/299/549 281/300/549 290/301/549
f 290/301/550 287/302/550 270/299/550
f 283/300/551 272/299/551 288/302/551
f 288/302/551 289/301/551 283/300/551
f 278/293/552 279/294/552 291/303/552
f 286/294/553 285/293/553 291/303/553
f 279/304/554 286/305/554 291/306/554
f 285/305/555 278/304/555 291/306/555
f 289/298/556 288/297/556 292/298/556 293/307/556
f 287/297/557 290/298/557 294/297/557 295/307/557
f 290/297/558 289/298/558 293/297/558 294/307/558
f 288/298/559 287/297/559 295/298/559 292/307/559
f 294/297/560 293/298/560 295/297/560
f 292/298/561 295/297/561 293/298/561

