mtllib anim_barb_attack6_axe_000008.mtl

o fat
usemtl axe.001
s off

v 30.343229 68.362572 1.955630
v 25.304790 65.074722 6.129951
v 33.014210 71.999298 9.214940
v 30.300911 70.097778 9.664420
v 33.176060 72.268829 11.332199
v 30.462761 70.367294 11.781691
v 31.690809 70.606720 19.583799
v 26.148159 66.479202 17.162369
v 35.633770 72.070259 1.079190
v 36.981350 74.314400 18.707359
v 41.176411 76.197769 3.500620
v 35.727520 73.900818 8.765440
v 35.889370 74.170364 10.882710
v 42.019791 77.602272 14.533041
v 31.435211 68.506622 9.780280
v 34.148510 70.408142 9.330780
v 31.597061 68.776154 11.897540
v 34.310360 70.677681 11.448050
v 36.861809 72.309662 8.881290
v 37.023682 72.579208 10.998560
v 3.225350 51.122818 14.149810
v 3.387210 51.392349 16.267080
v 4.521510 49.801201 16.382931
v 3.590610 51.115433 14.272929
v 42.089382 77.244324 8.935450
v -24.838699 31.603420 20.946819
v -23.744522 30.095160 20.936520
v -23.865950 29.742771 18.945499
v -25.000639 31.333649 18.829590

vt 0.033358 0.643728
vt 0.190411 0.923560
vt 0.402692 0.503812
vt 0.402692 0.647326
vt 0.408249 0.287497
vt 0.408249 0.367848
vt 0.492649 0.287497
vt 0.492649 0.367848
vt 0.403043 0.503812
vt 0.403044 0.647326
vt 0.033710 0.643728
vt 0.190763 0.923560
vt 0.033358 0.363896
vt 0.033710 0.363896
vt 0.190411 0.084064
vt 0.402692 0.360297
vt 0.408249 0.207147
vt 0.492649 0.207147
vt 0.403043 0.360297
vt 0.190763 0.084064
vt 0.408248 1.036942
vt 0.492649 1.036942
vt 0.483600 0.371280
vt 0.402049 0.371280
vt 0.402049 1.040375
vt 0.483600 1.040375
vt 0.450449 0.037941
vt 0.483600 0.210579
vt 0.402049 0.210579
vt 0.442825 0.041374
vt 0.000000 1.000000

vn -0.625796 0.764850 -0.152916
vn -0.582307 0.767603 -0.267775
vn -0.579461 0.812849 -0.059182
vn -0.565632 0.822186 0.063801
vn -0.615967 0.784394 0.072883
vn -0.584364 0.790990 -0.181256
vn -0.531606 0.825385 -0.190091
vn -0.550210 0.821056 0.152104
vn -0.525455 0.850087 0.035334
vn 0.550210 -0.821057 -0.152103
vn 0.525455 -0.850088 -0.035334
vn 0.579461 -0.812848 0.059182
vn 0.531606 -0.825385 0.190090
vn 0.584365 -0.790990 0.181255
vn 0.565631 -0.822187 -0.063801
vn 0.615966 -0.784394 -0.072883
vn 0.625796 -0.764850 0.152915
vn 0.582308 -0.767604 0.267773
vn -0.403516 -0.223046 0.887370
vn -0.527395 -0.429350 -0.733153
vn 0.403513 0.223051 -0.887370
vn 0.527398 0.429346 0.733153
vn 0.351012 -0.717439 -0.601724
vn -0.079255 -0.128476 -0.988541
vn 0.256091 -0.552859 -0.792947
vn 0.075616 0.125923 0.989154
vn -0.462217 0.883406 -0.077128
vn 0.685669 -0.726808 0.040110
vn 0.196700 0.209955 0.957720
vn 0.047188 -0.039035 -0.998123
vn 0.092063 0.099934 0.990726
vn -0.033330 -0.178350 -0.983402
vn 0.527311 -0.787142 -0.319923
vn -0.579618 0.812736 -0.059188
vn -0.810078 -0.566880 0.149735
vn -0.801528 -0.582399 0.135515

f 1/1/1 2/2/1 3/3/1
f 4/4/2 3/3/2 2/2/2
f 3/5/3 4/6/3 5/7/3
f 6/8/3 5/7/3 4/6/3
f 5/9/4 6/10/4 7/11/4
f 8/12/5 7/11/5 6/10/5
f 9/13/6 1/1/6 3/3/6
f 7/11/4 10/14/4 5/9/4
f 11/15/7 9/13/7 12/16/7
f 3/3/6 12/16/6 9/13/6
f 12/17/3 3/5/3 13/18/3
f 5/7/3 13/18/3 3/5/3
f 13/19/8 5/9/8 14/20/8
f 10/14/9 14/20/9 5/9/9
f 15/4/10 2/2/10 16/3/10
f 1/1/11 16/3/11 2/2/11
f 17/8/12 15/6/12 18/7/12
f 16/5/12 18/7/12 15/6/12
f 8/12/13 17/10/13 7/11/13
f 18/9/14 7/11/14 17/10/14
f 16/3/15 1/1/15 9/13/15
f 7/11/14 18/9/14 10/14/14
f 16/3/15 9/13/15 19/16/15
f 11/15/16 19/16/16 9/13/16
f 18/7/12 16/5/12 20/18/12
f 19/17/12 20/18/12 16/5/12
f 10/14/17 18/9/17 14/20/17
f 20/19/18 14/20/18 18/9/18
f 4/4/19 2/2/19 15/4/19
f 17/10/20 8/12/20 6/10/20
f 13/19/21 14/20/21 20/19/21
f 19/16/22 11/15/22 12/16/22
f 6/8/3 4/6/3 21/21/3
f 21/21/3 22/22/3 6/8/3
f 15/6/12 17/8/12 23/22/12
f 23/22/23 24/21/23 15/6/23
f 4/23/24 15/24/24 24/25/24
f 24/25/25 21/26/25 4/23/25
f 17/24/26 6/23/26 22/26/26
f 22/26/26 23/25/26 17/24/26
f 12/17/27 13/18/27 25/27/27
f 20/18/28 19/17/28 25/27/28
f 13/28/29 20/29/29 25/30/29
f 19/29/30 12/28/30 25/30/30
f 23/22/31 22/21/31 26/22/31 27/31/31
f 21/21/32 24/22/32 28/21/32 29/31/32
f 24/21/33 23/22/33 27/21/33 28/31/33
f 22/22/34 21/21/34 29/22/34 26/31/34
f 28/21/35 27/22/35 29/21/35
f 26/22/36 29/21/36 27/22/36

