mtllib anim_skel_walk_000049.mtl

o msked
usemtl msked.001
s off

v 4.127030 39.315231 -0.290120
v 1.824370 38.985981 -2.846590
v 0.339080 37.523670 -0.216210
v -0.028590 32.328350 1.534150
v 0.601160 35.708050 -3.696830
v 4.349910 36.688789 2.983070
v 5.056780 37.989719 -1.054600
v -0.179750 46.044342 -1.608360
v 7.863490 19.314869 1.460040
v 9.004770 16.138531 0.095130
v 7.546470 16.253330 -0.777400
v 7.493270 19.465900 2.388450
v 8.009720 15.603160 1.406420
v 6.694180 19.194540 1.952970
v 6.417580 15.702300 0.512720
v 3.494120 35.736801 0.854800
v 8.241860 3.862100 -3.961900
v 9.832810 4.206380 -4.207240
v 8.151959 0.614980 -6.506690
v 9.303870 3.720950 -3.053650
v 10.696840 1.092150 -6.829450
v 9.061600 -1.002010 1.432320
v 12.758410 -0.250870 0.690620
v -3.280860 39.896568 -0.689830
v -0.783540 40.097099 -2.269740
v -4.380880 37.423889 2.026850
v -3.930250 38.363792 -0.882530
v -6.801300 20.051031 -0.122970
v -6.561720 16.750000 -2.313910
v -8.308190 16.898560 -1.550090
v -7.477040 16.190392 0.041990
v -6.569370 19.928480 0.996870
v -5.579030 19.742661 0.600250
v -5.587990 16.003191 -0.706810
v -2.557890 36.108299 0.446930
v -9.001330 4.662350 -5.717330
v -9.144430 1.275510 -8.114040
v -10.475511 4.852250 -5.561640
v -9.709750 4.555200 -4.649130
v -11.727680 1.587420 -7.872940
v -7.788130 -0.228990 -0.442340
v -11.672831 0.239130 -0.086230
v -1.864960 46.707283 4.076770
v -5.071190 43.333858 1.315680
v -0.352730 51.550861 4.491360
v 0.486190 55.634289 -2.596750
v -6.031250 55.755722 -2.143490
v -1.361350 56.462723 -0.123740
v -5.445040 54.216690 -2.720090
v -5.428870 54.292229 -0.136730
v -0.297410 55.178940 0.510890
v -3.710270 53.332741 3.396180
v -0.246280 61.155380 1.700690
v -0.095780 61.520382 -0.481650
v 2.415240 56.757488 4.452280
v 0.022710 61.116848 6.758410
v -1.575220 56.319061 4.724370
v -3.361720 60.996269 4.137170
v -2.755280 60.522453 2.219410
v 2.366090 61.032219 2.058150
v -0.565870 66.808685 6.157220
v -2.810160 66.947716 3.997450
v -2.295230 64.657478 6.741280
v -3.544860 65.474258 1.525940
v -1.036710 67.655670 1.289360
v -4.024270 64.517838 4.430230
v -0.906680 65.713440 -0.075200
v -0.219250 64.742088 7.626480
v 1.202120 56.499893 0.490310
v 5.284800 56.285969 2.274320
v 4.952540 54.811531 0.145420
v 4.456270 43.381020 1.183260
v 4.669500 54.772522 2.738360
v 3.733090 51.963390 4.231990
v 2.327220 45.378109 3.789860
v 3.040540 61.685699 3.844440
v 1.665280 65.104698 6.436130
v 1.238400 67.404922 3.685400
v 1.906410 66.115967 1.121650
v 3.010700 65.346512 3.910050
v 6.198400 46.523071 5.090980
v 7.886271 46.769352 4.142170
v 6.282470 46.719688 3.408900
v 7.601520 38.986031 10.397400
v 7.398150 38.396320 9.089310
v 7.266030 37.456593 13.519569
v 8.673440 36.809361 12.814400
v 5.706400 35.026619 11.934969
v 6.026130 34.438751 13.036719
v 8.187700 36.456341 14.304029
v 7.055450 37.173508 14.594120
v 7.271500 34.397381 11.194901
v 6.265010 45.087563 3.216550
v 5.403930 35.655701 12.624050
v -9.045011 46.303371 -5.196390
v -10.487120 47.577129 -5.720920
v -8.823310 47.071537 -6.171860
v -16.017839 39.409882 -3.700120
v -15.122770 39.521900 -2.339920
v -16.595320 36.474808 -0.851070
v -17.720798 37.475132 -0.616900
v -17.701210 35.333191 -3.244750
v -18.314260 34.587700 -2.384360
v -16.323910 35.505310 -1.057780
v -17.988489 35.511261 -0.786940
v -19.077410 36.552280 -3.153520
v -10.102030 45.509029 -7.130910
v -16.725170 35.009609 -3.023190
v -0.870160 68.077408 4.068160

vt 0.041167 0.207596
vt 0.110151 0.210653
vt 0.155860 0.150950
vt 0.155860 0.004599
vt 0.155860 0.116597
vt 0.016826 0.121516
vt 0.041418 0.161189
vt 0.949447 0.134245
vt 0.995856 0.201252
vt 0.949499 0.409452
vt 0.551298 0.441597
vt 0.512470 0.342436
vt 0.575861 0.342435
vt 0.577815 0.441679
vt 0.612137 0.441505
vt 0.706701 0.502779
vt 0.696656 0.011408
vt 0.727269 0.011327
vt 0.645747 0.342436
vt 0.083576 0.100021
vt 0.929942 0.015737
vt 0.937563 0.081772
vt 0.976707 -0.002805
vt 0.541706 0.010011
vt 0.576207 0.008899
vt 0.614144 0.010012
vt 0.986514 0.082171
vt 0.745226 0.025720
vt 0.759970 0.153483
vt 0.893974 0.060016
vt 0.657033 0.011235
vt 0.644583 0.533150
vt 0.661859 0.447959
vt 0.577221 0.401965
vt 0.605389 0.404491
vt 0.544413 0.404514
vt 0.578392 0.404501
vt 0.041816 0.207204
vt 0.110952 0.210261
vt 0.017475 0.121124
vt 0.042068 0.160797
vt 0.903194 0.201252
vt 0.551124 0.441597
vt 0.575687 0.342435
vt 0.512296 0.342436
vt 0.577641 0.441679
vt 0.611963 0.441505
vt 0.706340 0.502779
vt 0.726909 0.011327
vt 0.696296 0.011408
vt 0.645573 0.342436
vt 0.084225 0.099629
vt 0.929963 0.015912
vt 0.976727 -0.002629
vt 0.937584 0.081947
vt 0.541532 0.010012
vt 0.576032 0.008899
vt 0.613969 0.010012
vt 0.986534 0.082346
vt 0.745246 0.025895
vt 0.759991 0.153658
vt 0.893994 0.060191
vt 0.656672 0.011235
vt 0.644015 0.533150
vt 0.661498 0.447959
vt 0.381082 0.518613
vt 0.473854 0.521496
vt 0.487486 0.708873
vt 0.014451 0.867957
vt 0.259309 0.958815
vt 0.064134 0.963664
vt 0.200040 0.895796
vt 0.262305 0.513873
vt 0.313315 0.867634
vt 0.208224 0.890630
vt 0.254415 0.957943
vt 0.481717 0.903440
vt 0.370073 0.709764
vt 0.432103 0.963629
vt 0.836118 0.400333
vt 0.829257 0.200049
vt 0.882028 0.148045
vt 0.017902 0.579199
vt 0.380473 0.519374
vt 0.489377 0.709146
vt 0.475746 0.521769
vt 0.017213 0.579344
vt 0.264196 0.514145
vt 0.202500 0.892108
vt 0.781778 0.385894
vt 0.843708 0.501773
vt 0.780162 0.719667
vt 0.716616 0.501773
vt 0.693215 0.695775
vt 0.686544 0.686130
vt 0.862344 0.686130
vt 0.780162 0.918634
vt 0.727648 0.914313
vt 0.726518 0.864095
vt 0.644622 0.875516
vt 0.727648 0.913360
vt 0.668670 0.934651
vt 0.662812 0.686130
vt 0.774444 0.696650
vt 0.675135 0.851794
vt 0.754605 0.153718
vt 0.774442 0.685255
vt 0.570516 0.685255
vt 0.557177 0.894376
vt 0.780162 0.858665
vt 0.378581 0.519101
vt 0.264520 0.510851
vt 0.867108 0.695776
vt 0.833805 0.864094
vt 0.832675 0.914313
vt 0.876407 0.940368
vt 0.829816 0.915266
vt 0.903910 0.879089
vt 0.886077 0.686130
vt 0.885188 0.851794
vt 0.978370 0.902000
vt 0.970745 0.689067
vt 0.015051 0.437421
vt 0.483254 0.495410
vt 0.019651 0.499739
vt 0.485816 0.465265
vt 0.061328 0.470496
vt 0.456904 0.444276
vt 0.016578 0.361735
vt 0.497541 0.430257
vt 0.497522 0.315677
vt 0.030493 0.438014
vt 0.305714 0.121311
vt 0.311705 0.269102
vt 0.476265 0.265798
vt 0.311331 0.122120
vt 0.478135 0.269445
vt 0.474964 0.122436
vt 0.461620 0.035542
vt 0.280508 0.010562
vt 0.320302 0.079754
vt 0.253177 0.093723
vt 0.315903 0.079819
vt 0.472325 0.121974
vt 0.070278 0.285701
vt 0.920818 0.191822
vt 0.868261 0.170952
vt 0.860894 0.212089
vt 0.752496 0.179666
vt 0.862106 0.210890
vt 0.867519 0.168135
vt 0.459195 0.079729
vt 0.317137 0.081379
vt 0.314453 0.074899
vt 0.488803 0.132862
vt 0.016472 0.437484
vt 0.021071 0.499801
vt 0.484674 0.495472
vt 0.487236 0.465328
vt 0.062748 0.470559
vt 0.458325 0.444339
vt 0.023005 0.360749
vt 0.503948 0.314690
vt 0.503967 0.429270
vt 0.036919 0.437028
vt 0.076705 0.284714
vt 0.780162 0.976831
vt 0.780162 0.974925
vt 0.774444 0.978737

vn -0.409244 0.875831 0.255813
vn 0.940452 -0.325725 -0.097229
vn -0.331036 0.724844 0.604165
vn -0.555753 0.300485 0.775144
vn 0.507310 0.669077 -0.543114
vn 0.827109 0.139326 0.544498
vn 0.476572 0.486029 -0.732567
vn 0.804274 -0.043148 0.592690
vn -0.367676 0.573232 -0.732270
vn 0.922643 0.186443 0.337593
vn 0.922916 0.184230 0.338062
vn -0.778137 0.291154 -0.556536
vn 0.698673 -0.714398 0.038612
vn -0.247347 0.601911 -0.759291
vn 0.504435 0.323642 -0.800500
vn 0.915665 -0.049972 0.398823
vn 0.815819 -0.145224 0.559776
vn -0.471501 -0.374393 0.798447
vn -0.209960 0.594996 -0.775820
vn -0.993261 -0.053199 0.102971
vn 0.900450 0.397851 -0.175799
vn 0.153035 -0.964718 -0.214244
vn 0.153722 -0.964643 -0.214089
vn -0.771666 0.117345 -0.625110
vn -0.197376 0.233606 -0.952088
vn -0.638414 -0.330460 0.695143
vn 0.364534 0.786712 0.498195
vn 0.005598 0.688519 0.725196
vn -0.458078 0.624418 0.632667
vn -0.483495 -0.275845 0.830748
vn -0.362576 -0.330633 0.871333
vn -0.344092 -0.300397 -0.889585
vn 0.473114 -0.047352 -0.879728
vn 0.610019 0.221641 0.760758
vn -0.798843 0.599182 0.053205
vn 0.854112 0.432487 0.288875
vn -0.167127 0.702351 0.691934
vn 0.423909 -0.577226 -0.697934
vn -0.945178 -0.164100 0.282330
vn -0.469791 -0.032316 0.882186
vn 0.356192 0.672809 0.648426
vn -0.943252 -0.215410 -0.252732
vn 0.321807 0.631698 0.705265
vn 0.409281 0.265168 0.873026
vn -0.524570 0.321354 -0.788389
vn -0.860306 0.030753 0.508849
vn -0.091214 0.281782 -0.955133
vn -0.163045 0.125383 -0.978619
vn -0.307716 0.510558 -0.802895
vn -0.867189 0.085238 0.490630
vn 0.531592 0.494832 -0.687423
vn -0.914730 0.334888 0.226097
vn -0.962986 0.159974 0.216948
vn 0.875333 0.157668 -0.457091
vn -0.728565 -0.588384 -0.350711
vn -0.011731 0.577938 -0.815997
vn -0.349753 0.352041 -0.868182
vn -0.778025 -0.100719 0.620107
vn -0.885606 0.004680 0.464413
vn 0.287929 -0.458192 0.840926
vn -0.006119 0.579353 -0.815054
vn 0.984513 0.071631 -0.160007
vn -0.945759 0.318921 0.061884
vn -0.133118 -0.976726 -0.168184
vn -0.133601 -0.976705 -0.167923
vn 0.850153 -0.023478 -0.526012
vn -0.064682 0.282531 -0.957075
vn 0.796084 -0.351414 0.492705
vn -0.366311 0.749527 0.551385
vn 0.147970 0.685919 0.712475
vn 0.601730 0.649914 0.464254
vn 0.324199 -0.307267 0.894697
vn 0.301248 -0.315271 0.899919
vn 0.452520 -0.228166 -0.862071
vn -0.415877 0.027498 -0.909005
vn -0.537035 0.161290 0.827997
vn 0.718785 0.621271 0.312042
vn -0.919935 0.391747 -0.015932
vn 0.073009 0.539026 0.839119
vn -0.298579 -0.442942 -0.845371
vn 0.919467 -0.166398 0.356220
vn 0.361743 -0.058062 0.930468
vn 0.742301 -0.176426 -0.646423
vn -0.004662 0.947147 -0.320767
vn -0.059359 0.330317 -0.942002
vn -0.999473 -0.031670 0.007183
vn -0.208982 0.759197 0.616398
vn -0.597639 -0.084553 0.797294
vn -0.303701 0.013276 0.952675
vn -0.408492 0.109429 0.906179
vn -0.630972 -0.146280 0.761890
vn 0.045888 -0.105567 -0.993353
vn 0.168981 0.727265 0.665231
vn 0.630831 -0.566967 0.529718
vn -0.338198 -0.337403 -0.878511
vn -0.970188 0.240885 -0.026620
vn 0.107448 -0.418186 0.901984
vn -0.604019 -0.132038 0.785956
vn 0.023328 -0.506947 -0.861662
vn -0.538027 0.594710 0.597367
vn -0.650175 0.721850 -0.237075
vn -0.202051 0.915836 0.347017
vn -0.895670 0.029578 0.443734
vn -0.907757 -0.371248 -0.195328
vn 0.054275 -0.752794 -0.656015
vn -0.952103 -0.157308 -0.262209
vn -0.958415 -0.183436 -0.218614
vn -0.767877 0.148040 -0.623257
vn 0.213300 -0.965889 -0.146836
vn -0.698698 -0.066071 -0.712359
vn -0.372534 -0.239548 0.896569
vn -0.598625 -0.177627 0.781087
vn 0.181994 0.935004 -0.304378
vn 0.466145 0.691589 -0.551737
vn 0.993597 -0.033336 0.107956
vn -0.347314 0.401097 0.847640
vn 0.902189 -0.074878 0.424791
vn 0.071380 -0.081981 0.994074
vn -0.638086 -0.580442 0.505899
vn -0.838873 -0.313646 -0.444880
vn -0.347592 0.407743 0.844349
vn 0.183634 -0.193441 0.963773
vn 0.502672 -0.123096 -0.855668
vn -0.031881 0.738908 0.673052
vn 0.470465 -0.100029 -0.876731
vn -0.023688 -0.985756 -0.166503
vn 0.694560 0.000608 0.719434
vn 0.476822 0.709314 0.519147
vn 0.425705 0.848090 -0.315465
vn -0.312121 0.525038 0.791780
vn 0.682282 -0.193002 0.705154
vn 0.941579 -0.156267 -0.298344
vn -0.005795 -0.488690 -0.872438
vn 0.933739 0.014021 -0.357679
vn 0.403887 -0.130282 -0.905484
vn 0.943052 0.191084 -0.272287
vn 0.956778 0.268825 0.110945
vn 0.722255 0.203744 -0.660936
vn 0.849652 -0.315837 0.422302
vn 0.695305 -0.007212 0.718679
vn -0.971331 -0.211164 -0.109204
vn 0.937361 0.200296 -0.285019
vn 0.034726 0.280032 0.959362
vn 0.437288 0.286831 0.852354
vn 0.405984 -0.283645 -0.868748
vn -0.979278 -0.189628 -0.071110
vn 0.987987 -0.117148 -0.100791
vn 0.331541 0.583608 0.741270
vn -0.982277 -0.057193 0.178498
vn -0.962700 0.269081 0.028367
vn 0.949713 0.202413 -0.238902
vn -0.861878 0.500686 0.080501
vn -0.074124 -0.472291 0.878320
vn 0.543594 0.729217 0.415629
vn -0.835685 0.548875 -0.019177
vn -0.516600 -0.386049 -0.764258
vn 0.882129 -0.241014 -0.404673
vn -0.991337 -0.118887 0.055822
vn 0.723990 -0.381695 -0.574585
vn 0.411004 0.102357 -0.905869
vn -0.998713 0.016344 -0.048005
vn -0.475314 -0.826055 -0.302834
vn 0.620833 -0.652555 0.434440
vn 0.668469 -0.742553 0.042000
vn 0.531655 0.768723 0.355539
vn 0.564146 0.764477 0.311951
vn -0.709438 -0.127692 0.693104
vn 0.084119 0.754021 -0.651441
vn -0.892804 -0.450047 0.018957
vn 0.909454 -0.415755 0.006463
vn 0.062811 0.371040 -0.926490
vn -0.906049 0.162713 0.390640
vn -0.447148 -0.142628 0.883015
vn -0.095366 0.469208 -0.877923
vn 0.917022 -0.387020 -0.096365
vn -0.702541 0.578348 0.414668
vn 0.004291 0.384914 0.922942
vn 0.619587 -0.702653 -0.349843
vn 0.715791 -0.553777 -0.425411
vn -0.489399 0.834457 0.253319
vn 0.891633 -0.393243 -0.224389
vn 0.076192 -0.869860 0.487378
vn 0.397848 0.240355 0.885408
vn 0.786412 0.331307 -0.521337
vn -0.119885 -0.061182 -0.990901
vn -0.670987 0.735846 0.091143
vn 0.691523 -0.717545 -0.083217
vn -0.696158 0.311380 -0.646843
vn -0.056164 0.555267 -0.829774
vn 0.817563 -0.527938 -0.229940
vn -0.469271 -0.473990 -0.745062
vn -0.852853 -0.133680 0.504749
vn -0.983921 0.122899 0.129595
vn 0.115555 -0.101303 0.988122
vn 0.157872 -0.163439 0.973840
vn 0.316395 -0.933133 0.170754
vn 0.360513 0.884327 -0.296641
vn -0.083885 -0.722747 -0.686003
vn -0.356681 0.500853 0.788622
vn -0.446355 0.734529 0.511110
vn -0.726115 0.454674 0.515779
vn -0.486502 0.480217 -0.729868
vn -0.894585 0.446897 -0.000499
vn -0.497896 0.861349 -0.100884
vn -0.495473 -0.197464 -0.845881
vn -0.699496 -0.455273 0.550846
vn 0.351866 0.580871 0.734016
vn 0.666811 0.619357 0.414439
vn 0.344464 0.823834 0.450157
vn 0.252246 0.567536 -0.783757
vn 0.273387 0.948448 -0.160332
vn 0.758614 0.639647 -0.123925
vn 0.931217 0.017138 -0.364062
vn 0.548966 -0.159812 0.820425

f 1/1/1 2/2/1 3/3/1
f 4/4/2 5/5/2 2/2/2
f 6/6/3 1/1/3 3/3/3
f 6/6/4 3/3/4 4/4/4
f 2/2/5 1/1/5 7/7/5
f 3/8/6 2/9/6 8/10/6
f 9/11/7 10/12/7 11/13/7
f 10/12/8 12/14/8 13/13/8
f 14/15/9 9/11/9 11/13/9
f 10/12/10 9/11/10 12/14/10
f 7/16/11 12/17/11 9/18/11
f 15/19/12 14/15/12 11/13/12
f 6/6/13 4/4/13 16/20/13
f 17/21/14 18/22/14 19/23/14
f 11/13/15 10/12/15 18/24/15
f 18/24/16 13/13/16 20/25/16
f 10/12/17 13/13/17 18/24/17
f 13/13/18 15/19/18 17/26/18
f 19/23/19 18/22/19 21/27/19
f 17/21/20 19/23/20 22/28/20
f 21/27/21 18/22/21 23/29/21
f 22/28/22 21/27/22 23/29/22
f 21/27/23 22/28/23 19/23/23
f 17/26/24 15/19/24 11/13/24
f 11/13/25 18/24/25 17/26/25
f 13/13/26 17/26/26 20/25/26
f 18/22/27 20/30/27 23/29/27
f 20/30/28 22/28/28 23/29/28
f 20/30/29 17/21/29 22/28/29
f 15/19/30 13/13/30 12/14/30
f 15/19/31 12/14/31 14/15/31
f 14/31/32 2/32/32 9/18/32
f 9/18/33 2/32/33 7/16/33
f 16/33/34 12/17/34 7/16/34
f 7/34/35 16/35/35 6/36/35
f 7/7/36 1/1/36 6/6/36
f 7/34/37 2/35/37 16/37/37
f 16/20/38 4/4/38 2/2/38
f 14/31/39 16/33/39 2/32/39
f 14/31/40 12/17/40 16/33/40
f 24/38/41 3/3/41 25/39/41
f 4/4/42 25/39/42 5/5/42
f 26/40/43 3/3/43 24/38/43
f 26/40/44 4/4/44 3/3/44
f 27/41/45 24/38/45 25/39/45
f 3/8/46 8/10/46 25/42/46
f 25/39/47 2/2/47 5/5/47
f 2/9/48 25/42/48 8/10/48
f 28/43/49 29/44/49 30/45/49
f 30/45/50 31/44/50 32/46/50
f 33/47/51 29/44/51 28/43/51
f 30/45/52 32/46/52 28/43/52
f 27/48/53 28/49/53 32/50/53
f 34/51/54 29/44/54 33/47/54
f 26/40/55 35/52/55 4/4/55
f 36/53/56 37/54/56 38/55/56
f 29/44/57 38/56/57 30/45/57
f 38/56/58 39/57/58 31/44/58
f 30/45/59 38/56/59 31/44/59
f 31/44/60 36/58/60 34/51/60
f 37/54/61 40/59/61 38/55/61
f 36/53/62 41/60/62 37/54/62
f 40/59/63 42/61/63 38/55/63
f 41/60/64 42/61/64 40/59/64
f 40/59/65 37/54/65 41/60/65
f 36/58/66 29/44/66 34/51/66
f 29/44/67 36/58/67 38/56/67
f 31/44/68 39/57/68 36/58/68
f 38/55/69 42/61/69 39/62/69
f 39/62/70 42/61/70 41/60/70
f 39/62/71 41/60/71 36/53/71
f 34/51/72 32/46/72 31/44/72
f 34/51/73 33/47/73 32/46/73
f 33/63/74 28/49/74 25/64/74
f 28/49/75 27/48/75 25/64/75
f 35/65/76 27/48/76 32/50/76
f 27/34/77 26/36/77 35/35/77
f 26/40/78 24/38/78 27/41/78
f 27/34/79 35/37/79 25/35/79
f 35/52/80 25/39/80 4/4/80
f 33/63/81 25/64/81 35/65/81
f 33/63/82 35/65/82 32/50/82
f 43/66/83 44/67/83 45/68/83
f 46/69/84 47/70/84 48/71/84
f 46/69/85 49/72/85 47/70/85
f 44/73/86 50/74/86 49/75/86
f 47/76/87 50/74/87 51/77/87
f 52/78/88 44/73/88 43/66/88
f 52/78/89 43/66/89 45/68/89
f 51/77/90 48/79/90 47/76/90
f 53/80/91 48/81/91 51/82/91
f 46/69/92 8/83/92 49/72/92
f 52/78/93 45/68/93 51/77/93
f 8/84/94 45/85/94 44/86/94
f 8/87/95 44/88/95 49/89/95
f 54/90/96 48/81/96 53/80/96
f 55/91/97 56/92/97 57/93/97
f 57/93/98 56/92/98 58/94/98
f 59/95/99 60/96/99 57/93/99
f 61/97/100 62/98/100 63/99/100
f 64/100/101 62/101/101 65/102/101
f 50/74/102 52/78/102 51/77/102
f 50/74/103 44/73/103 52/78/103
f 57/93/104 58/94/104 59/103/104
f 60/96/105 59/95/105 53/104/105
f 58/94/106 66/105/106 59/103/106
f 59/95/107 66/105/107 64/100/107
f 46/106/108 48/81/108 54/90/108
f 53/104/109 59/95/109 54/107/109
f 54/108/110 59/95/110 67/109/110
f 56/92/111 68/110/111 63/99/111
f 66/105/112 58/94/112 56/92/112
f 46/69/113 69/71/113 70/70/113
f 46/69/114 70/70/114 71/72/114
f 72/73/115 71/75/115 73/74/115
f 70/76/116 51/77/116 73/74/116
f 73/74/117 74/78/117 72/73/117
f 74/78/118 45/68/118 75/66/118
f 72/67/119 45/68/119 8/111/119
f 72/67/120 75/66/120 45/68/120
f 51/77/121 70/76/121 69/79/121
f 53/80/122 51/82/122 69/81/122
f 46/69/123 71/72/123 8/83/123
f 74/78/124 51/77/124 45/68/124
f 8/87/125 71/89/125 72/112/125
f 60/96/126 53/104/126 54/107/126
f 55/91/127 76/113/127 56/92/127
f 77/114/128 78/115/128 61/97/128
f 65/116/129 78/117/129 79/118/129
f 73/74/130 51/77/130 74/78/130
f 72/73/131 74/78/131 75/66/131
f 55/91/132 60/119/132 76/113/132
f 55/91/133 57/93/133 60/96/133
f 76/113/134 60/119/134 80/120/134
f 60/96/135 67/121/135 79/118/135
f 46/106/136 54/90/136 69/81/136
f 69/81/137 54/90/137 53/80/137
f 54/122/138 67/121/138 60/96/138
f 56/92/139 80/120/139 77/114/139
f 80/120/140 56/92/140 76/113/140
f 71/123/141 81/124/141 73/125/141
f 82/126/142 71/123/142 70/127/142
f 73/125/143 81/124/143 70/127/143
f 81/124/144 82/126/144 70/127/144
f 83/128/145 71/123/145 82/126/145
f 71/123/146 83/128/146 81/124/146
f 82/129/147 84/130/147 85/131/147
f 81/132/148 84/130/148 82/129/148
f 81/132/149 85/131/149 84/130/149
f 86/133/150 84/134/150 85/135/150
f 84/134/151 87/136/151 85/137/151
f 85/135/152 88/138/152 86/133/152
f 89/139/153 90/140/153 91/141/153
f 87/142/154 84/134/154 86/133/154
f 88/138/155 91/143/155 86/133/155
f 92/144/156 88/138/156 85/137/156
f 85/137/157 87/136/157 92/144/157
f 93/145/158 85/131/158 81/132/158
f 82/129/159 85/131/159 93/145/159
f 82/146/160 93/147/160 83/148/160
f 81/149/161 83/150/161 93/151/161
f 89/152/162 88/138/162 92/144/162
f 92/144/163 87/136/163 89/152/163
f 89/152/164 87/136/164 90/153/164
f 90/154/165 87/136/165 86/133/165
f 91/141/166 90/154/166 86/133/166
f 94/155/167 89/139/167 91/143/167
f 88/138/168 94/155/168 91/143/168
f 94/155/169 88/138/169 89/152/169
f 49/156/170 50/157/170 95/158/170
f 96/159/171 47/160/171 49/156/171
f 50/157/172 47/160/172 95/158/172
f 95/158/173 47/160/173 96/159/173
f 97/161/174 96/159/174 49/156/174
f 49/156/175 95/158/175 97/161/175
f 96/162/176 98/163/176 99/164/176
f 95/165/177 96/162/177 99/164/177
f 95/165/178 99/164/178 98/163/178
f 100/133/179 98/135/179 99/134/179
f 99/134/180 98/137/180 101/136/180
f 98/135/181 100/133/181 102/138/181
f 103/139/182 104/141/182 105/140/182
f 101/142/183 100/133/183 99/134/183
f 102/138/184 100/133/184 104/143/184
f 106/144/185 98/137/185 102/138/185
f 98/137/186 106/144/186 101/136/186
f 107/166/187 95/165/187 98/163/187
f 96/162/188 107/166/188 98/163/188
f 96/146/189 97/148/189 107/147/189
f 95/149/190 107/151/190 97/150/190
f 103/152/191 106/144/191 102/138/191
f 106/144/192 103/152/192 101/136/192
f 103/152/193 105/153/193 101/136/193
f 105/154/194 100/133/194 101/136/194
f 104/141/195 100/133/195 105/154/195
f 108/155/196 104/143/196 103/139/196
f 102/138/197 104/143/197 108/155/197
f 108/155/198 103/152/198 102/138/198
f 68/110/199 61/97/199 63/99/199
f 61/97/200 109/167/200 62/98/200
f 63/99/201 62/98/201 66/105/201
f 67/109/202 64/100/202 65/102/202
f 64/100/203 66/105/203 62/101/203
f 65/102/204 62/101/204 109/168/204
f 59/95/205 64/100/205 67/109/205
f 56/92/206 63/99/206 66/105/206
f 68/110/207 77/114/207 61/97/207
f 77/114/208 80/120/208 78/115/208
f 61/97/209 78/115/209 109/167/209
f 67/121/210 65/116/210 79/118/210
f 65/116/211 109/169/211 78/117/211
f 79/118/212 78/117/212 80/120/212
f 60/96/213 79/118/213 80/120/213
f 56/92/214 77/114/214 68/110/214

o 
usemtl shield.001
s off

v -15.729240 37.089142 -0.409570
v -16.722080 37.768021 0.398420
v -10.516159 39.926651 20.241390
v -17.126600 36.392620 0.115760
v -15.697630 35.669018 0.443880
v -16.668751 37.216858 -0.180540
v -18.194990 41.032738 0.657790
v -16.943689 36.246140 -4.853380
v -17.940639 36.500210 -4.608110
v -18.358110 35.566990 -4.337130
v -14.035749 32.510792 0.842360
v -16.089270 36.029572 -0.154830
v -17.361160 35.312912 -4.582400
v 10.954781 49.401329 10.340969
v 7.139320 39.653370 15.938580
v -4.615350 42.378601 11.850651
v 6.549890 42.037979 20.599279
v 19.488129 36.199780 18.174620
v -2.940600 11.225120 28.116199

vt 0.856301 0.265607
vt 0.764624 0.294094
vt 0.850192 0.976825
vt 0.858158 0.265976
vt 0.949099 0.282658
vt 0.742843 0.255302
vt 0.692067 0.254404
vt 0.541488 0.402851
vt 0.893183 0.241135
vt 0.851577 0.242328
vt 0.847036 0.027305
vt 0.893183 0.027305
vt 0.742053 0.256467
vt 0.849952 0.242815
vt 0.544321 0.402080
vt 0.692550 0.250793
vt 0.800888 0.241135
vt 0.800888 0.027305
vt 0.697126 0.324563
vt 0.698569 0.321089
vt 0.345626 0.959903
vt 0.345626 0.724031
vt 0.085605 0.724031
vt 0.605647 0.724031
vt 0.345626 0.075832

vn 0.417551 0.880017 -0.226323
vn -0.937515 0.220406 0.269232
vn 0.966737 -0.115598 -0.228157
vn -0.484995 -0.820226 0.303331
vn -0.218905 0.125043 -0.967701
vn 0.081981 0.974830 -0.207332
vn 0.192494 0.958469 -0.210436
vn -0.518279 -0.019460 -0.854990
vn -0.877364 0.444765 0.180047
vn -0.844113 0.518272 0.137357
vn -0.272819 -0.153721 -0.949705
vn 0.045032 -0.247963 -0.967722
vn 0.916591 -0.355456 -0.183065
vn 0.877365 -0.444763 -0.180048
vn -0.368882 -0.446325 -0.815304
vn -0.192501 -0.958467 0.210437
vn -0.262519 -0.933142 0.245621
vn -0.164850 -0.151799 0.974567
vn -0.220371 0.007105 0.975390
vn 0.712024 0.269734 0.648279
vn 0.624719 0.412392 0.663068
vn 0.162698 -0.538457 -0.826797
vn -0.329679 0.828315 0.452996
vn 0.412178 0.647048 0.641435
vn 0.015954 -0.502597 -0.864373
vn 0.200392 -0.444950 -0.872847
vn -0.569574 0.356146 0.740773
vn 0.249602 0.156258 0.955658
vn 0.050805 -0.408416 -0.911381

f 110/170/215 111/171/215 112/172/215
f 112/172/216 111/171/216 113/173/216
f 110/170/217 112/172/217 114/174/217
f 112/172/218 113/173/218 114/174/218
f 110/175/219 115/176/219 116/177/219
f 115/178/220 110/179/220 117/180/220
f 117/180/221 118/181/221 115/178/221
f 116/177/222 115/176/222 113/182/222
f 115/178/223 118/181/223 119/180/223
f 119/180/224 113/183/224 115/178/224
f 118/181/225 117/180/225 119/180/225
f 110/175/226 120/184/226 121/185/226
f 117/180/227 110/179/227 121/186/227
f 117/180/228 121/186/228 122/187/228
f 120/184/229 113/182/229 121/185/229
f 121/186/230 119/180/230 122/187/230
f 119/180/231 121/186/231 113/183/231
f 122/187/225 119/180/225 117/180/225
f 113/182/232 111/188/232 116/177/232
f 120/184/233 114/189/233 113/182/233
f 111/188/234 110/175/234 116/177/234
f 110/175/235 114/189/235 120/184/235
f 123/190/236 124/191/236 125/192/236
f 123/190/237 125/192/237 126/191/237
f 123/190/238 126/191/238 127/193/238
f 123/190/239 127/193/239 124/191/239
f 128/194/240 125/192/240 124/191/240
f 128/194/241 126/191/241 125/192/241
f 128/194/242 127/193/242 126/191/242
f 128/194/243 124/191/243 127/193/243

