mtllib anim_barb_run_000040.mtl

o fat
usemtl fat.001
s off

v -0.178230 38.961239 -3.459160
v 1.860240 36.144421 6.136090
v 0.294900 39.178959 1.637190
v 0.410170 60.858421 -7.899920
v 8.950310 66.516487 -7.556670
v 2.812830 57.054527 -6.939800
v -0.362600 52.776726 -4.953560
v 7.921350 62.819309 -3.865030
v 7.702180 58.628342 -1.145110
v 6.919220 52.853020 -0.848430
v 4.142630 52.663670 -4.975850
v 6.403020 57.831539 -6.139700
v 8.989280 38.951851 4.941710
v 9.351100 38.859520 -1.690660
v 10.508820 38.442322 -1.978310
v 6.520880 40.590012 4.363800
v 3.993900 37.038410 7.078080
v 3.785050 34.436680 -4.430970
v 3.592240 37.780060 -5.169490
v 0.301870 37.809761 -3.847540
v -0.410000 36.822971 -4.482250
v 0.201120 66.511528 -7.609260
v 0.170300 68.504181 -7.646910
v 0.128960 59.806900 6.059870
v 5.184680 59.848099 3.891580
v 6.255160 64.033615 4.548200
v 8.986600 63.736309 2.094960
v 6.123870 66.835709 4.470270
v 11.318440 67.079651 -0.002340
v 4.497020 52.921299 4.054040
v 1.102870 52.650829 5.311190
v 0.791740 66.742851 6.228740
v 4.580370 71.258789 -5.246150
v 10.748810 68.276100 -6.868900
v 11.536489 68.766029 -3.151660
v 2.905110 71.347496 3.597240
v 5.512380 72.471725 -0.892770
v 0.171630 70.526863 4.311530
v 2.663080 76.847809 0.711300
v 3.279240 74.475349 -2.579470
v 0.247260 74.618027 -3.419630
v 0.175950 77.501961 -0.532770
v 0.089210 72.549400 -5.227950
v 0.489180 48.323978 5.632990
v 5.364230 48.318821 5.032270
v 8.418850 47.967072 -0.145200
v 4.990360 47.372978 -5.334510
v -0.188040 47.287361 -6.038870
v 11.740921 65.522331 -0.493320
v 9.619800 64.640228 -7.924340
v 13.230551 65.716812 -3.162210
v 12.270620 66.835907 -6.335860
v 8.808929 63.017330 0.557550
v 2.581520 76.288841 6.199550
v 1.180830 74.773872 7.934600
v 2.894370 71.938469 4.746710
v 1.639600 70.870224 6.831610
v 0.698310 73.405281 7.879170
v 1.643460 76.743935 7.735350
v -0.144470 76.614159 8.001181
v 3.177320 77.623329 3.490150
v 0.535690 80.612930 8.120910
v -0.763210 80.563538 8.390590
v 1.701340 78.015190 8.359060
v 2.256590 79.875748 7.338530
v 1.223440 81.954453 5.412940
v -0.414440 81.949608 5.217900
v 0.269850 74.780350 8.458660
v -0.765430 77.360146 8.287920
v -0.900690 75.335434 9.461260
v -0.835060 74.751419 8.831680
v -0.843340 73.168999 8.847470
v 0.535200 70.406898 8.418261
v -0.861440 70.381424 8.907750
v 3.025130 79.961281 3.517950
v 2.543030 81.202660 2.955920
v -0.045170 81.450623 1.783120
v 13.524409 63.229050 -1.267950
v 13.964109 63.763802 -4.942870
v 8.875820 57.413429 -4.791820
v 10.606910 57.975166 -0.554610
v 10.346189 62.132702 -7.784670
v 11.417160 53.231270 -4.747740
v 13.070020 50.122116 -1.016060
v 11.200210 51.666100 -2.716820
v 14.410020 53.020218 -6.637720
v 15.722370 54.978451 -4.691190
v 14.573320 52.197033 -0.343900
v 15.343241 54.422531 -2.603350
v 13.469700 54.052967 -0.036510
v 13.356629 52.481041 -1.962520
v 10.883970 54.058426 -0.867410
v 13.352990 55.823597 -6.773900
v 13.912279 54.597050 -6.796021
v 15.064321 60.259392 -4.906450
v 14.387819 59.784142 -1.487860
v 12.665359 54.187630 -1.679030
v 12.410330 58.291512 -7.800960
v 9.130670 48.884640 4.876410
v 7.595170 49.898758 4.421020
v 10.052299 49.839958 5.696230
v 9.278140 51.559929 5.819940
v 7.798040 51.870308 5.141380
v 4.451730 52.658127 9.057409
v 4.368370 51.744827 8.967050
v 5.534110 51.411060 8.463160
v 6.283340 52.020348 8.424250
v 6.879530 51.138802 9.744510
v 5.037420 52.360580 6.670440
v 5.585670 52.576744 7.936990
v 3.616530 52.469349 8.366510
v 3.490090 52.275948 10.104219
v 2.935530 52.098572 9.494659
v 5.484590 50.474110 11.357890
v 7.242380 46.638260 7.898440
v 6.362730 46.055050 9.563490
v 4.962960 45.788898 12.116680
v 4.715410 50.735859 10.355020
v 7.064290 46.606579 10.125810
v 8.215230 47.200741 8.666010
v 3.386500 49.664478 13.047090
v 1.767760 29.108789 6.671120
v 3.709050 19.337799 6.579680
v 1.581170 21.872101 10.722509
v 7.551880 27.873098 5.378580
v 8.818590 20.789080 9.027230
v 3.903480 27.183210 2.980790
v 5.633410 27.841640 9.725510
v 5.746410 23.233221 13.097820
v 5.786360 29.880508 9.141690
v 6.207300 31.448509 7.569760
v 8.942949 30.556650 2.763800
v 6.808470 36.421890 6.823920
v 6.613760 12.559071 15.807150
v 7.482620 10.355989 17.711620
v 4.493800 9.624189 15.320640
v 5.240490 12.953820 19.096901
v 3.066200 12.961750 16.479151
v 2.464910 10.269650 18.150219
v 3.267500 5.556120 18.197720
v 6.498730 5.609500 17.906610
v 3.002530 10.915119 24.639681
v 9.173340 11.124320 24.152229
v 5.785420 14.809429 25.798229
v 8.215240 13.689290 27.299919
v 4.219780 13.960760 28.094290
v -9.584490 66.727592 -5.880730
v -1.892230 57.027859 -7.112010
v -5.989810 63.444672 -2.321710
v -7.318430 58.542152 -1.034430
v -4.956670 52.759354 -3.359810
v -6.374790 52.647053 1.356610
v -5.753590 57.761322 -6.382540
v -8.986110 38.696472 0.128190
v -7.151170 38.391212 6.226090
v -10.214610 38.256680 -0.174510
v -4.529320 38.304932 5.244890
v -4.933240 37.985371 -6.090300
v -4.584550 39.515568 -4.977580
v -1.084210 39.207481 -4.498410
v -4.829290 59.789829 3.972200
v -5.086390 63.959431 5.458530
v -10.126060 63.569862 3.764130
v -4.769800 66.761086 5.547280
v -10.215310 67.918655 2.945620
v -2.454760 52.534031 5.400970
v -11.457339 67.974350 -4.624160
v -5.167270 71.219704 -4.432970
v -11.547771 68.975113 -0.037730
v -2.595220 71.326157 3.624160
v -5.916750 72.558983 -0.449370
v -2.505460 76.861046 0.219630
v -2.831450 74.478401 -2.817580
v -3.837170 47.914547 5.886670
v -8.014000 47.550850 1.463230
v -5.673900 47.394089 -3.957900
v -11.476589 65.715683 2.188030
v -9.647120 63.743271 -5.740710
v -13.197180 66.648438 -0.177330
v -12.638760 65.143410 -3.475210
v -9.701940 63.541260 2.423580
v -2.612380 74.789627 7.524500
v -3.597380 76.314514 5.531520
v -3.200620 71.963684 4.397600
v -2.856860 70.888916 6.345470
v -2.140420 73.417068 7.572270
v -1.316860 76.619019 7.874450
v -3.005530 76.763245 7.232710
v -3.589360 77.651451 2.758570
v -1.974020 80.623360 7.849560
v -3.184930 78.035515 7.830780
v -3.493930 79.899658 6.716810
v -2.056070 81.968079 5.058400
v -1.834430 74.789093 8.231150
v -2.120930 70.417938 8.131081
v -3.427430 79.988091 2.820360
v -2.826160 81.224968 2.375420
v -12.713450 63.205078 1.671510
v -13.818320 63.128311 -1.932210
v -9.230300 58.431019 2.574640
v -8.792510 57.754890 -1.895680
v -10.489700 61.452499 -5.129450
v -12.171220 48.900459 2.382640
v -9.949960 52.907021 -0.636310
v -10.304880 50.961899 0.647050
v -13.079180 52.213348 -2.181640
v -14.351601 54.374699 -0.395800
v -12.564020 51.082802 4.264340
v -13.761061 54.109451 1.701430
v -10.520450 53.306278 4.558980
v -8.152110 53.284931 2.960770
v -11.573490 52.450718 2.384380
v -12.321490 55.049858 -2.875210
v -12.702021 53.838383 -2.598070
v -14.412440 59.538940 -1.430290
v -13.291169 59.668751 1.916000
v -10.705200 55.119072 1.839230
v -11.836480 57.431789 -4.346860
v -7.979321 46.254532 7.527980
v -6.255980 46.809303 6.841490
v -8.472930 47.008682 8.487690
v -7.289610 48.522549 8.724540
v -5.921570 48.621750 7.861020
v -2.123050 47.015549 10.965900
v -1.997310 47.995140 11.248389
v -3.363430 47.033810 10.622300
v -3.994260 47.879658 10.836639
v -4.607020 46.936150 12.109831
v -3.251830 48.346500 10.322090
v -2.920670 48.196430 8.948450
v -1.301060 47.625633 10.337180
v -1.028240 47.247383 12.065680
v -0.612920 47.059708 11.356630
v -3.215730 45.729900 13.372840
v -5.552680 42.045750 11.212481
v -6.450270 43.121151 9.836790
v -3.939950 40.969002 13.395400
v -2.526980 45.871658 12.236810
v -5.807690 42.551571 11.904100
v -6.959750 43.611038 10.744110
v -1.185740 44.113869 14.515131
v -3.892270 32.460472 -8.182690
v -1.084300 25.204279 -3.494960
v -1.151500 28.560902 -10.602370
v -8.587880 29.393631 -9.891680
v -7.036650 25.776979 -3.918020
v -3.696080 27.736471 -4.005450
v -4.844260 23.372810 -4.548460
v -4.928090 25.727949 -12.214830
v -4.787320 23.155519 -3.348260
v -4.606280 24.096142 -1.715340
v -8.546869 26.824120 -1.726800
v -4.748160 31.080521 2.974210
v -7.480160 34.817860 -22.354300
v -6.542490 33.793179 -19.626209
v -4.876800 36.913048 -20.613621
v -5.117130 32.063519 -22.122749
v -2.513640 34.968079 -22.655050
v -2.942680 33.390018 -19.970261
v -3.500250 38.951012 -25.150831
v -6.594360 38.854710 -24.964458
v -2.620380 31.079340 -27.824781
v -8.464100 30.542778 -27.554359
v -4.198240 26.922531 -26.803320
v -6.483960 26.677570 -28.835390
v -2.408930 26.712740 -29.083179

vt 0.550479 0.485338
vt 0.414517 0.485338
vt 0.489174 0.497239
vt 0.490853 0.675485
vt 0.356970 0.710738
vt 0.458986 0.602657
vt 0.458693 0.603155
vt 0.491001 0.506534
vt 0.357039 0.710738
vt 0.272881 0.708251
vt 0.307767 0.663467
vt 0.329118 0.504113
vt 0.420682 0.504388
vt 0.307693 0.663467
vt 0.420389 0.504181
vt 0.390374 0.619683
vt 0.389206 0.622726
vt 0.390855 0.620128
vt 0.309151 0.663075
vt 0.578845 0.971377
vt 0.529882 0.993867
vt 0.501054 0.950636
vt 0.597833 0.993868
vt 0.684209 0.993870
vt 0.691613 0.940228
vt 0.584242 0.936155
vt 0.602549 0.993867
vt 0.689094 0.993870
vt 0.694409 0.971380
vt 0.730001 0.975635
vt 0.490853 0.781888
vt 0.490853 0.820915
vt 0.240556 0.660920
vt 0.133663 0.660928
vt 0.131880 0.753091
vt 0.060606 0.782384
vt 0.055577 0.663688
vt 0.136145 0.808744
vt 0.060014 0.783494
vt 0.058190 0.859642
vt 0.160773 0.512959
vt 0.067037 0.515196
vt 0.240700 0.512959
vt 0.131877 0.752996
vt 0.240556 0.781375
vt 0.390182 0.870896
vt 0.298691 0.847983
vt 0.294173 0.886121
vt 0.181129 0.899551
vt 0.052544 0.886601
vt 0.145152 0.921474
vt 0.235241 0.891030
vt 0.142740 0.921054
vt 0.172936 0.966074
vt 0.456563 0.999059
vt 0.389917 0.922986
vt 0.429989 0.941889
vt 0.491140 0.942697
vt 0.490646 0.999330
vt 0.490853 0.898039
vt 0.701416 0.118225
vt 0.813217 0.120956
vt 0.790107 0.184348
vt 0.877923 0.002315
vt 0.872775 0.120438
vt 0.505869 0.118716
vt 0.564263 0.119120
vt 0.507564 0.183764
vt 0.697589 0.180917
vt 0.580429 0.182675
vt 0.710756 0.001536
vt 0.701372 0.182427
vt 0.812168 0.002315
vt 0.857243 0.184348
vt 0.697567 0.116528
vt 0.503935 0.000692
vt 0.561277 0.000692
vt 0.688827 -0.000098
vt 0.002866 0.854679
vt 0.027518 0.706813
vt 0.061197 0.782654
vt 0.055608 0.663958
vt 0.251604 0.781884
vt 0.357109 0.710738
vt 0.243886 0.876138
vt 0.247300 0.848527
vt -0.000514 0.880403
vt 0.006948 0.782948
vt 0.674684 0.829607
vt 0.705811 0.784366
vt 0.654033 0.662928
vt 0.703232 0.671848
vt 0.720473 0.730776
vt 0.697736 0.853617
vt 0.729837 0.853035
vt 0.623758 0.856571
vt 0.587609 0.811448
vt 0.658187 0.605708
vt 0.748523 0.593788
vt 0.716351 0.931575
vt 0.747491 0.935506
vt 0.695349 0.885675
vt 0.676247 0.904603
vt 0.649719 0.961956
vt 0.745560 1.001324
vt 0.725611 0.781438
vt 0.747491 0.878462
vt 0.747491 0.808438
vt 0.720379 0.731031
vt 0.747491 0.790807
vt 0.720762 0.730332
vt 0.748639 0.732530
vt 0.746944 0.628012
vt 0.703659 0.671442
vt 0.731857 0.666086
vt 0.747085 0.666819
vt 0.703186 0.671176
vt 0.611291 0.885598
vt 0.604148 0.909350
vt 0.550618 0.823662
vt 0.550618 0.934468
vt 0.625864 0.557513
vt 0.571978 0.557920
vt 0.578607 0.510287
vt 0.669444 0.510287
vt 0.756032 0.560223
vt 0.679695 0.557918
vt 0.877240 0.461159
vt 0.992418 0.461159
vt 0.944262 0.560223
vt 0.756457 0.510287
vt 0.806202 0.560223
vt 0.498275 0.560223
vt 0.875566 0.382888
vt 0.758260 0.308662
vt 0.875912 0.308662
vt 0.759996 0.360654
vt 0.669163 0.382888
vt 0.671223 0.308662
vt 0.584325 0.382888
vt 0.577057 0.308662
vt 0.498223 0.363687
vt 0.498247 0.308662
vt 0.992597 0.308662
vt 0.992439 0.363687
vt 0.759483 0.410364
vt 0.758924 0.382888
vt 0.665903 0.461159
vt 0.580075 0.461159
vt 0.498223 0.402657
vt 0.992438 0.402657
vt 0.760539 0.449273
vt 0.498220 0.461159
vt 0.875438 0.575163
vt 0.762705 0.196431
vt 0.858161 0.196355
vt 0.690657 0.196417
vt 0.588027 0.196417
vt 0.498144 0.196431
vt 0.991918 0.196431
vt 0.375723 0.009258
vt 0.380090 0.017573
vt 0.356438 0.030356
vt 0.342839 0.029458
vt 0.369327 0.043627
vt 0.316032 0.012201
vt 0.336848 0.019568
vt 0.249292 0.041099
vt 0.371147 0.002582
vt 0.416197 0.004791
vt 0.408124 0.000758
vt 0.128136 0.016613
vt 0.154876 0.002573
vt 0.119423 0.002194
vt 0.160447 0.001473
vt 0.065726 0.014292
vt 0.105093 0.028910
vt 0.000825 0.069213
vt 0.000703 0.039244
vt 0.249314 0.055441
vt 0.429228 0.045736
vt 0.102506 0.115410
vt 0.153549 0.117195
vt 0.189513 0.114692
vt 0.228429 0.109580
vt 0.194639 0.033982
vt 0.406548 0.108121
vt 0.355355 0.108206
vt 0.448349 0.035630
vt 0.498209 0.039288
vt 0.461840 0.047992
vt 0.483032 0.114221
vt 0.406174 0.120334
vt 0.355217 0.119080
vt 0.243215 0.037501
vt 0.249314 0.089732
vt 0.000703 0.095058
vt 0.249292 0.105039
vt 0.160984 0.032072
vt 0.413806 0.033644
vt 0.442212 0.108407
vt 0.443088 0.117732
vt 0.023914 0.327327
vt 0.104127 0.227894
vt 0.000784 0.227894
vt 0.216171 0.327327
vt 0.216985 0.228421
vt 0.105699 0.228145
vt 0.104981 0.327662
vt 0.217575 0.327327
vt 0.351490 0.301452
vt 0.217290 0.227894
vt 0.351571 0.227894
vt 0.352420 0.301452
vt 0.489174 0.227894
vt 0.352342 0.227894
vt 0.471690 0.333380
vt 0.351597 0.328057
vt 0.217345 0.328075
vt 0.352312 0.363299
vt 0.470864 0.334174
vt 0.352330 0.328057
vt 0.216660 0.380224
vt 0.216104 0.328075
vt 0.104983 0.328371
vt 0.217232 0.380224
vt 0.351611 0.363299
vt 0.351459 0.420971
vt 0.352499 0.420971
vt 0.351589 0.497239
vt 0.229465 0.497239
vt 0.352627 0.497239
vt 0.229583 0.497239
vt 0.133020 0.497239
vt 0.072972 0.497239
vt 0.025422 0.328212
vt 0.002386 0.497239
vt 0.216130 0.152222
vt 0.223982 0.125749
vt 0.105883 0.155747
vt 0.351732 0.147623
vt 0.223132 0.128232
vt 0.218721 0.149411
vt 0.469070 0.149411
vt 0.483427 0.127273
vt 0.352306 0.146326
vt 0.017963 0.152222
vt 0.104256 0.155747
vt 0.009616 0.131504
vt 0.104128 0.227914
vt 0.000790 0.227921
vt 0.216984 0.228396
vt 0.351571 0.227971
vt 0.217291 0.227882
vt 0.352342 0.227879
vt 0.489111 0.227891
vt 0.948232 0.041698
vt 0.989968 0.003451
vt 0.971575 0.059997
vt 0.909211 0.004273
vt 0.996004 0.120663
vt 0.925604 0.058708
vt 0.885225 0.122889
vt 0.516483 0.798440
vt 0.501430 0.685191
vt 0.597947 0.686709
vt 0.594444 0.793024
vt 0.950876 0.082499
vt 0.943924 0.157220
vt 0.507177 0.624822
vt 0.600053 0.622523
vt 0.901715 0.182549
vt 0.982420 0.184037
vt 0.730212 0.975635
vt 0.685579 0.991654
vt 0.692830 0.969164

vn -0.937336 -0.333388 0.101262
vn 0.142907 -0.156411 -0.977299
vn -0.144064 -0.326759 -0.934063
vn 0.802403 0.294794 0.518888
vn 0.824522 -0.139945 -0.548251
vn -0.014849 -0.411997 -0.911064
vn 0.271934 -0.323084 -0.906459
vn 0.932383 -0.305095 -0.193852
vn 0.258693 -0.228981 -0.938427
vn 0.889819 -0.426021 -0.163489
vn -0.340216 -0.940331 -0.005468
vn -0.549876 -0.835044 -0.018372
vn -0.154883 -0.527961 -0.835026
vn 0.014588 -0.539829 0.841648
vn -0.531845 0.153297 0.832851
vn -0.237502 -0.398484 0.885891
vn 0.365313 0.220821 0.904314
vn 0.748080 -0.643626 0.161625
vn 0.006021 -0.018799 -0.999805
vn 0.384447 -0.238242 0.891875
vn 0.727380 -0.488572 0.481888
vn 0.651771 0.020993 0.758125
vn 0.394218 -0.017585 0.918849
vn 0.893354 -0.078310 0.442478
vn 0.350402 -0.050160 0.935255
vn 0.271222 -0.049321 0.961252
vn -0.045304 0.403497 -0.913859
vn 0.005974 0.051568 -0.998652
vn 0.625805 -0.274584 0.730049
vn 0.383360 0.901668 -0.200073
vn 0.312288 0.041029 0.949101
vn 0.127990 0.527217 -0.840036
vn 0.670427 0.051999 0.740151
vn 0.544680 0.516439 0.660768
vn 0.584504 0.697763 0.414104
vn 0.269052 0.470018 0.840651
vn 0.157736 0.294889 0.942422
vn 0.784428 0.314880 0.534345
vn 0.750827 0.594422 -0.287960
vn 0.473775 0.628852 -0.616509
vn 0.190746 0.812873 -0.550320
vn 0.551902 0.675112 0.489518
vn 0.404208 0.855066 -0.324774
vn 0.755206 0.571551 -0.320926
vn 0.189921 0.671012 -0.716710
vn 0.234858 0.629505 -0.740652
vn 0.143133 0.510048 -0.848153
vn 0.119320 0.227874 0.966352
vn 0.860331 0.092297 0.501310
vn 0.813243 0.169481 -0.556698
vn -0.003254 0.067116 -0.997740
vn 0.120836 0.162911 0.979213
vn 0.345799 0.020724 0.938080
vn 0.918664 0.353829 0.175673
vn 0.825278 0.320247 0.465144
vn 0.868515 0.254100 0.425575
vn 0.814323 0.168140 -0.555524
vn 0.128968 0.196283 -0.972029
vn 0.786319 0.278661 -0.551408
vn 0.393234 -0.100473 -0.913932
vn 0.135652 -0.081604 -0.987390
vn -0.070589 -0.145303 -0.986866
vn 0.348878 0.126040 0.928654
vn 0.962593 0.205443 0.176657
vn 0.977065 -0.149504 -0.151632
vn 0.135966 0.237017 -0.961944
vn 0.696891 -0.036754 0.716235
vn 0.870257 0.483811 -0.092623
vn 0.775091 0.429014 0.463877
vn 0.431522 0.125330 -0.893354
vn 0.710287 0.662518 -0.237829
vn -0.861763 -0.217702 -0.458225
vn -0.960252 -0.193305 0.201371
vn 0.679048 -0.691958 0.245127
vn 0.822767 -0.125928 0.554253
vn 0.449121 -0.193670 0.872228
vn 0.142010 0.066540 0.987626
vn 0.976795 -0.001278 0.214171
vn 0.984482 -0.045593 -0.169459
vn 0.998594 -0.042779 0.031321
vn 0.360739 -0.828090 0.429108
vn 0.193735 0.175422 0.965243
vn 0.911170 -0.047426 0.409292
vn 0.974673 0.017497 0.222951
vn -0.054129 0.900157 0.432190
vn 0.475326 0.312559 0.822418
vn 0.684972 0.318255 0.655383
vn 0.699334 0.322850 0.637730
vn 0.486843 -0.206022 0.848846
vn 0.313348 -0.284215 0.906110
vn 0.049234 0.913259 0.404393
vn -0.020318 -0.032014 0.999281
vn 0.245445 -0.697825 0.672902
vn 0.531248 0.005677 0.847197
vn 0.474289 -0.866025 -0.158276
vn 0.864976 -0.039692 0.500240
vn 0.007760 -0.999523 -0.029883
vn 0.513966 0.124631 0.848708
vn 0.810867 0.060543 0.582091
vn 0.317127 -0.946744 -0.055729
vn 0.330399 0.018259 0.943665
vn 0.977702 0.066016 -0.199352
vn 0.917814 0.201590 -0.342022
vn 0.767696 -0.310090 0.560791
vn 0.163226 -0.440540 0.882769
vn 0.826306 -0.138833 0.545843
vn 0.056784 -0.316671 0.946834
vn 0.520856 0.704896 0.481488
vn 0.978250 0.061325 0.198155
vn 0.884046 0.428178 0.187418
vn 0.769131 0.595992 0.230716
vn 0.497932 0.298089 0.814375
vn 0.491997 0.409544 -0.768253
vn 0.399783 0.480272 -0.780712
vn 0.151110 0.980430 -0.126184
vn 0.030215 0.960227 -0.277580
vn 0.880935 -0.095619 0.463477
vn 0.769071 0.442228 0.461480
vn 0.554814 -0.070064 -0.829019
vn 0.891043 0.439203 -0.114640
vn -0.835593 -0.384506 0.392352
vn 0.962676 0.226515 0.148144
vn 0.578279 0.122594 -0.806576
vn -0.839374 -0.269448 -0.472070
vn 0.362114 -0.033043 0.931548
vn -0.089174 -0.784289 -0.613954
vn -0.367447 -0.788087 -0.493864
vn 0.856003 -0.513403 -0.060632
vn 0.822676 -0.552061 -0.135767
vn 0.969423 -0.214678 0.118880
vn 0.735503 0.340330 0.585842
vn 0.202836 0.752752 -0.626276
vn -0.698647 0.573835 -0.427325
vn 0.043241 0.614610 -0.787645
vn -0.454593 0.728320 0.512733
vn -0.472582 -0.295918 -0.830120
vn -0.538672 -0.231016 -0.810225
vn 0.687114 0.325024 -0.649795
vn 0.669928 0.053294 -0.740510
vn 0.969162 0.129317 0.209765
vn 0.969095 0.128934 0.210312
vn 0.328063 -0.023985 0.944351
vn -0.760473 -0.526247 0.380453
vn -0.853608 -0.062045 -0.517207
vn -0.492358 -0.488003 -0.720720
vn 0.736990 0.000222 -0.675904
vn 0.561082 0.167730 -0.810588
vn 0.941944 0.297346 0.155971
vn 0.949642 0.224027 0.219069
vn 0.362937 -0.075439 0.928755
vn 0.240411 -0.001709 0.970670
vn -0.958095 -0.203692 0.201403
vn 0.732814 0.165051 -0.660108
vn -0.529652 -0.248604 -0.810965
vn -0.799521 -0.398505 0.449399
vn 0.333839 -0.134616 0.932968
vn -0.763665 -0.459267 0.453751
vn 0.292677 -0.122472 0.948336
vn 0.582387 0.316131 -0.748924
vn -0.572507 -0.304419 -0.761291
vn -0.414631 -0.812140 -0.410500
vn -0.335949 -0.851147 -0.403344
vn 0.591825 -0.771462 0.233644
vn 0.723965 -0.621499 0.299355
vn 0.699502 0.309248 0.644254
vn 0.720816 0.278799 0.634583
vn 0.010043 0.917445 0.397736
vn -0.093698 0.950010 0.297829
vn -0.899906 0.185967 -0.394443
vn -0.889847 0.234556 -0.391350
vn 0.363429 -0.124524 0.923262
vn -0.471659 0.620025 0.626982
vn 0.065563 0.978533 -0.195384
vn -0.100532 0.983966 -0.147325
vn -0.067022 0.987938 -0.139598
vn -0.286330 0.954320 0.085377
vn -0.377850 0.922807 0.075211
vn 0.685838 0.273985 0.674209
vn 0.753562 -0.132489 0.643887
vn -0.373855 -0.790313 -0.485425
vn -0.097164 -0.928428 0.358580
vn -0.485572 -0.798615 -0.355576
vn -0.392639 -0.853274 -0.343158
vn -0.747005 -0.650435 -0.137544
vn -0.405472 0.350232 -0.844352
vn 0.231898 0.970776 -0.061792
vn -0.098708 0.947251 0.304913
vn -0.823552 -0.233604 -0.516905
vn -0.846582 -0.215651 -0.486615
vn 0.735714 0.086507 0.671745
vn 0.765365 0.084875 0.637976
vn -0.102195 0.940564 0.323876
vn 0.611954 0.059592 0.788645
vn 0.599356 -0.799648 0.036547
vn 0.484716 -0.874275 0.026320
vn -0.837044 -0.220243 -0.500850
vn 0.792875 0.319554 0.518878
vn -0.893814 -0.278307 -0.351627
vn -0.256830 -0.691886 -0.674783
vn 0.758472 -0.643556 -0.102742
vn -0.284119 0.404868 0.869113
vn 0.799071 0.109103 0.591255
vn 0.602921 -0.772894 -0.197789
vn 0.427206 0.836407 0.343392
vn 0.436020 0.826867 0.355214
vn -0.861818 -0.226561 -0.453805
vn -0.075851 0.949043 0.305883
vn 0.678191 0.043304 0.733608
vn 0.507645 -0.840189 0.190733
vn -0.915341 -0.178481 -0.360963
vn 0.482500 -0.331333 -0.810810
vn 0.559231 -0.357066 -0.748174
vn 0.856369 0.349096 0.380478
vn 0.837738 0.335710 0.430690
vn -0.547388 0.485431 0.681706
vn -0.462328 0.442200 0.768577
vn 0.913724 0.047024 0.403605
vn -0.472886 0.683905 0.555565
vn 0.466689 -0.729349 -0.500251
vn 0.870883 0.026747 0.490761
vn 0.866281 -0.029931 0.498659
vn -0.283403 0.175643 0.942779
vn 0.921942 0.121273 0.367852
vn -0.541386 0.268735 0.796669
vn -0.888888 -0.172632 -0.424353
vn 0.900256 0.265680 0.344896
vn -0.442140 0.433089 0.785459
vn 0.940624 0.123413 0.316222
vn 0.525393 -0.422160 -0.738744
vn 0.346328 -0.565515 -0.748498
vn -0.306651 -0.585928 -0.750103
vn -0.853128 -0.454139 -0.256769
vn -0.499747 0.327708 0.801786
vn -0.991102 -0.129435 0.031053
vn 0.636360 -0.345318 -0.689784
vn 0.795390 0.544258 0.266717
vn -0.667901 0.494460 0.556253
vn -0.819155 -0.159101 -0.551065
vn 0.720773 -0.430589 -0.543213
vn -0.917826 -0.303947 -0.255367
vn -0.907323 -0.324179 -0.267717
vn 0.473389 -0.632157 -0.613416
vn 0.835863 0.197883 0.512031
vn 0.916878 0.166576 0.362751
vn -0.710903 0.380262 0.591624
vn -0.548959 0.387113 0.740801
vn -0.819454 -0.145119 -0.554469
vn -0.064921 -0.563083 -0.823846
vn -0.981247 -0.166094 0.097813
vn 0.952130 -0.206619 -0.225294
vn 0.076541 -0.763438 0.641330
vn 0.070274 -0.765443 0.639655
vn 0.659408 0.706360 -0.257364
vn 0.640381 -0.163572 -0.750437
vn -0.692565 0.721212 -0.014360
vn 0.654249 0.713493 -0.250769
vn -0.794997 0.598149 -0.100982
vn 0.076243 -0.761464 0.643707
vn 0.076677 -0.761151 0.644027
vn 0.576762 0.710400 -0.403334
vn 0.145856 0.891469 0.428963
vn -0.740259 0.611877 -0.278608
vn 0.408850 -0.719721 -0.561109
vn -0.231660 -0.060467 -0.970916
vn 0.280649 -0.352329 -0.892805
vn -0.484196 0.342618 0.805088
vn -0.922284 -0.262645 -0.283564
vn -0.279654 -0.512759 -0.811709
vn -0.253518 -0.529575 -0.809493
vn -0.903326 -0.374217 -0.209674
vn -0.190413 -0.026433 -0.981348
vn -0.929813 -0.287208 -0.230128
vn 0.366811 -0.917074 -0.156286
vn -0.046337 -0.998276 -0.036030
vn -0.103818 -0.975970 -0.191586
vn 0.262666 -0.924305 0.276887
vn 0.684795 -0.524180 0.506252
vn -0.354851 -0.094032 0.930182
vn -0.160576 -0.556292 0.815325
vn -0.941125 -0.264676 0.210308
vn -0.174363 -0.021299 -0.984451
vn -0.365005 -0.332496 0.869608
vn -0.531951 -0.720951 0.444137
vn -0.397177 0.161873 0.903353
vn -0.387641 0.054343 0.920207
vn -0.715957 -0.098196 0.691204
vn 0.028389 -0.100190 0.994563
vn -0.124185 -0.012290 0.992183
vn -0.230794 0.496614 -0.836725
vn -0.172830 0.044201 -0.983959
vn -0.276392 -0.337771 0.899733
vn -0.444523 0.873310 -0.199320
vn -0.121660 -0.017688 0.992414
vn -0.241978 0.504969 -0.828525
vn -0.319097 0.006040 0.947703
vn -0.290610 0.485723 0.824390
vn -0.449300 0.759902 0.469764
vn -0.108097 0.435161 0.893840
vn -0.100147 0.426412 0.898968
vn -0.642734 0.408907 0.647834
vn -0.685943 0.606447 -0.402125
vn -0.345021 0.659749 -0.667601
vn -0.152907 0.785439 -0.599755
vn -0.383293 0.749731 0.539435
vn -0.519750 0.775461 -0.358496
vn -0.672661 0.653869 -0.346386
vn -0.262368 0.572964 -0.776451
vn -0.173444 0.655650 -0.734874
vn -0.250730 0.493120 -0.833047
vn 0.049840 0.089673 0.994723
vn -0.728232 0.052010 0.683355
vn -0.879827 0.274887 -0.387739
vn -0.324663 0.147546 -0.934250
vn 0.044696 0.140528 0.989067
vn 0.022838 0.070929 0.997220
vn -0.859121 0.313383 0.404602
vn -0.715084 0.243716 0.655178
vn -0.686273 0.276123 0.672893
vn -0.946670 0.157862 -0.280884
vn -0.346515 0.171325 -0.922266
vn -0.879382 0.276512 -0.387593
vn -0.740663 0.092519 -0.665476
vn -0.345700 0.181440 -0.920636
vn 0.297679 -0.146639 -0.943337
vn -0.068910 0.059472 0.995849
vn -0.823506 0.307546 0.476711
vn -0.823953 0.075845 -0.561560
vn -0.569114 -0.026616 -0.821828
vn -0.662556 0.125388 0.738442
vn -0.744663 0.550541 -0.377337
vn -0.646844 0.420380 0.636297
vn -0.620005 -0.058796 -0.782392
vn -0.931797 0.350376 -0.094824
vn 0.679978 -0.048598 -0.731620
vn 0.002094 -0.999756 0.021989
vn -0.743527 -0.630857 -0.221780
vn -0.928924 -0.170387 0.328739
vn -0.626742 -0.189199 0.755909
vn -0.349276 0.068585 0.934506
vn -0.995931 -0.080017 -0.041459
vn -0.922848 -0.190828 -0.334568
vn -0.844871 -0.200652 -0.495915
vn -0.346633 -0.838714 0.420005
vn -0.394117 0.177875 0.901683
vn -0.977951 -0.039573 0.205049
vn -0.999624 0.025703 0.009502
vn -0.032094 0.900064 0.434575
vn -0.637533 0.317177 0.702104
vn -0.806573 0.324449 0.494139
vn -0.816797 0.329149 0.473818
vn -0.658689 -0.201260 0.724999
vn -0.502094 -0.280822 0.817949
vn -0.127024 0.913992 0.385337
vn -0.193988 -0.031292 0.980505
vn -0.389319 -0.695184 0.604276
vn -0.699976 0.010792 0.714085
vn -0.368093 -0.840043 -0.398542
vn -0.983999 0.007871 0.177998
vn -0.008321 -0.999404 -0.033494
vn -0.682440 0.129599 0.719361
vn -0.916013 0.067717 0.395392
vn -0.223377 -0.961262 -0.161487
vn -0.524298 0.021812 0.851255
vn -0.908679 0.073839 -0.410913
vn -0.818594 0.204912 -0.536577
vn -0.872332 -0.303277 0.383485
vn -0.351757 -0.438402 0.827086
vn -0.924985 -0.131552 0.356506
vn -0.260433 -0.315330 0.912547
vn -0.605916 0.709578 0.359673
vn -0.997460 0.069535 -0.015446
vn -0.900126 0.435596 -0.005476
vn -0.795748 0.602495 0.061528
vn -0.658013 0.302898 0.689400
vn -0.334741 0.397467 -0.854382
vn -0.219666 0.484368 -0.846838
vn -0.112591 0.981526 -0.154694
vn 0.037694 0.960197 -0.276768
vn -0.898267 0.033920 0.438138
vn -0.739736 0.234691 0.630643
vn -0.647189 -0.187047 -0.739026
vn -0.905858 0.305905 -0.292990
vn 0.992110 0.094015 0.082941
vn -0.955962 0.022812 0.292604
vn -0.677595 0.053509 -0.733486
vn 0.606341 -0.405540 -0.684023
vn -0.232496 -0.084792 0.968894
vn -0.209955 -0.511463 -0.833262
vn 0.439470 -0.683133 -0.583262
vn -0.897306 -0.422413 -0.128102
vn -0.942328 -0.299103 0.150181
vn -0.954246 -0.167849 0.247470
vn -0.546248 0.404879 0.733271
vn -0.182073 0.941862 -0.282393
vn 0.611606 0.589214 -0.527982
vn -0.064984 0.733782 -0.676270
vn 0.858342 0.164116 0.486122
vn 0.476451 -0.325884 -0.816575
vn 0.469386 -0.334386 -0.817229
vn -0.783319 0.105916 -0.612530
vn -0.747337 -0.138962 -0.649751
vn -0.947508 0.052031 0.315470
vn -0.957841 0.070206 0.278591
vn -0.121611 0.236520 0.963986
vn 0.889870 -0.430079 0.152196
vn 0.602548 -0.350492 -0.717002
vn 0.570894 -0.512527 -0.641402
vn -0.799776 -0.189146 -0.569721
vn -0.689312 0.012808 -0.724351
vn -0.938864 0.195072 0.283692
vn -0.935724 0.174077 0.306787
vn -0.242941 0.006252 0.970021
vn -0.132686 0.089919 0.987071
vn 0.742551 -0.321784 0.587429
vn -0.796475 0.030099 -0.603921
vn 0.475595 -0.320331 -0.819267
vn 0.875924 -0.194857 0.441347
vn -0.033229 -0.035742 0.998808
vn 0.915241 -0.118479 0.385093
vn -0.196737 -0.128226 0.972035
vn -0.708240 0.101244 -0.698674
vn 0.610879 -0.343467 -0.713342
vn 0.035662 -0.819160 -0.572456
vn 0.267524 -0.750736 -0.604009
vn -0.685413 -0.700695 0.198081
vn -0.817707 -0.453201 0.354913
vn -0.488090 0.342199 0.802912
vn -0.548392 0.306956 0.777846
vn 0.322358 0.736045 0.595251
vn 0.374067 0.750884 0.544286
vn 0.808383 -0.196449 -0.554910
vn 0.865059 0.115067 -0.488295
vn -0.262638 -0.236087 0.935566
vn 0.701240 0.368299 0.610425
vn 0.164103 0.984100 -0.067955
vn 0.388468 0.918357 -0.075588
vn 0.292643 0.955622 -0.033855
vn 0.558344 0.824460 0.092290
vn 0.542567 0.834399 0.096955
vn -0.535134 0.231308 0.812483
vn -0.691429 -0.116843 0.712933
vn 0.169390 -0.808718 -0.563278
vn -0.033085 -0.970805 0.237577
vn 0.184229 -0.814765 -0.549743
vn 0.137442 -0.830189 -0.540274
vn 0.547785 -0.748033 -0.374670
vn 0.361678 0.405501 -0.839499
vn -0.001129 0.993667 0.112358
vn 0.386207 0.841353 0.378111
vn 0.629082 -0.357758 -0.690120
vn 0.663894 -0.347788 -0.662033
vn -0.603321 0.128283 0.787113
vn -0.636443 0.138684 0.758753
vn 0.442191 0.817028 0.370043
vn -0.445026 0.071926 0.892625
vn -0.824483 -0.556441 0.102964
vn -0.682838 -0.730487 0.010985
vn 0.665631 -0.347866 -0.660246
vn -0.627340 0.384402 0.677259
vn 0.717623 -0.461438 -0.521625
vn -0.107864 -0.623318 -0.774494
vn -0.884214 -0.457216 -0.095496
vn 0.495965 0.153304 0.854703
vn -0.670875 0.179122 0.719613
vn -0.827152 -0.533589 -0.176361
vn -0.168368 0.838665 0.517971
vn -0.177452 0.829613 0.529389
vn 0.685180 -0.374632 -0.624643
vn 0.435213 0.822364 0.366478
vn -0.573116 0.091040 0.814401
vn -0.724797 -0.655484 0.212156
vn 0.856674 0.469535 0.213648
vn -0.591112 0.612774 0.524494
vn -0.341849 0.614509 0.710997
vn -0.749752 -0.634093 -0.189206
vn -0.751773 -0.632611 -0.186121
vn 0.645012 -0.728471 -0.230843
vn 0.488813 -0.787048 -0.376321
vn -0.747154 -0.659332 -0.083921
vn 0.454644 -0.792658 0.406192
vn -0.413273 0.677400 -0.608551
vn -0.569193 -0.822204 0.000618
vn -0.365039 -0.524070 0.769479
vn 0.511375 -0.471854 0.718226
vn -0.737501 -0.546604 0.396630
vn 0.470886 -0.863897 -0.178739
vn 0.453842 0.600778 0.658098
vn -0.748721 -0.178016 0.638535
vn 0.608308 -0.254699 0.751725
vn -0.707636 -0.134559 0.693647
vn -0.761138 0.072543 -0.644520
vn -0.406464 -0.105559 -0.907548
vn 0.129064 -0.071890 -0.989027
vn 0.124678 -0.070918 -0.989660
vn 0.677163 -0.311632 0.666585
vn 0.975521 -0.015724 -0.219343
vn -0.722910 0.527279 0.446516
vn -0.759551 -0.650229 0.016839
vn 0.687861 -0.668418 -0.282958
vn 0.764350 0.495065 0.413134
vn -0.819101 0.516388 0.249836
vn 0.862934 0.493545 0.108436
vn 0.843894 0.525238 0.109402
vn -0.589093 0.775597 0.226755
vn -0.763233 -0.513339 -0.392374
vn -0.888799 -0.393617 -0.234739
vn 0.725984 -0.573015 -0.380263
vn 0.651335 -0.616515 -0.442349
vn 0.766003 0.466735 0.442038
vn -0.003781 0.912628 0.408773
vn 0.978116 0.156070 -0.137593
vn -0.975979 0.217791 0.005621
vn -0.072448 0.311519 -0.947474
vn -0.066822 0.314218 -0.946996
vn -0.656477 -0.517036 0.549283
vn -0.720800 0.480915 0.499167
vn 0.715062 -0.565668 0.410739
vn -0.599193 -0.594898 0.535784
vn 0.876628 -0.228729 0.423328
vn -0.060620 0.285901 -0.956340
vn -0.069479 0.273141 -0.959462
vn -0.544126 -0.501644 0.672518
vn 0.014857 -0.994552 0.103177
vn 0.772446 -0.141047 0.619220
vn -0.070716 -0.943689 -0.323189

f 1/1/1 2/2/1 3/3/1
f 4/4/2 5/5/2 6/6/2
f 4/4/3 6/7/3 7/8/3
f 5/9/4 8/10/4 9/11/4
f 10/12/5 11/13/5 9/14/5
f 6/6/6 11/15/6 7/8/6
f 6/6/7 12/16/7 11/13/7
f 12/17/8 5/5/8 9/14/8
f 6/6/9 5/5/9 12/17/9
f 11/13/10 12/18/10 9/19/10
f 13/20/11 14/21/11 15/22/11
f 14/21/12 13/20/12 16/23/12
f 16/24/13 13/20/13 17/25/13
f 15/22/14 14/21/14 18/26/14
f 14/21/15 19/27/15 18/26/15
f 18/26/16 20/28/16 21/29/16
f 18/26/17 19/27/17 20/28/17
f 20/28/18 3/30/18 21/29/18
f 5/9/19 22/31/19 23/32/19
f 24/33/20 25/34/20 26/35/20
f 27/36/21 25/34/21 9/37/21
f 28/38/22 27/39/22 29/40/22
f 30/41/23 25/34/23 24/33/23
f 25/34/24 30/41/24 10/42/24
f 30/41/25 24/33/25 31/43/25
f 24/33/26 26/44/26 32/45/26
f 33/46/27 34/47/27 5/9/27
f 4/4/28 22/31/28 5/9/28
f 26/35/29 25/34/29 27/39/29
f 33/46/30 35/48/30 34/47/30
f 32/45/31 26/35/31 28/38/31
f 23/32/32 33/46/32 5/9/32
f 26/35/33 27/39/33 28/38/33
f 28/38/34 29/40/34 36/49/34
f 35/50/35 37/51/35 29/40/35
f 28/38/36 38/52/36 32/45/36
f 36/49/37 38/52/37 28/38/37
f 36/49/38 37/53/38 39/54/38
f 39/55/39 37/56/39 40/57/39
f 41/58/40 42/59/40 39/55/40
f 39/55/41 40/57/41 41/58/41
f 36/49/42 29/40/42 37/51/42
f 37/56/43 35/48/43 33/46/43
f 37/56/44 33/46/44 40/57/44
f 40/57/45 33/46/45 43/60/45
f 40/57/46 43/60/46 41/58/46
f 33/46/47 23/32/47 43/60/47
f 44/61/48 45/62/48 30/63/48
f 15/64/49 46/65/49 45/62/49
f 46/66/50 47/67/50 10/68/50
f 47/67/51 7/69/51 11/70/51
f 45/62/52 44/61/52 17/71/52
f 44/61/53 30/63/53 31/72/53
f 13/73/54 15/64/54 45/62/54
f 46/65/55 10/74/55 45/62/55
f 45/62/56 10/74/56 30/63/56
f 47/67/57 11/70/57 10/68/57
f 47/67/58 48/75/58 7/69/58
f 46/66/59 15/76/59 47/67/59
f 18/77/60 47/67/60 15/76/60
f 47/67/61 18/77/61 48/75/61
f 18/77/62 21/78/62 48/75/62
f 13/73/63 45/62/63 17/71/63
f 49/79/64 35/50/64 29/40/64
f 8/80/65 27/81/65 9/82/65
f 34/47/66 50/83/66 5/84/66
f 27/36/67 49/79/67 29/40/67
f 35/48/68 51/85/68 52/86/68
f 35/50/69 49/79/69 51/87/69
f 52/86/70 50/83/70 34/47/70
f 35/48/71 52/86/71 34/47/71
f 5/84/72 50/83/72 8/10/72
f 53/88/73 27/81/73 8/80/73
f 53/88/74 49/79/74 27/36/74
f 54/89/75 55/90/75 56/91/75
f 57/92/76 55/90/76 58/93/76
f 59/94/77 60/95/77 55/90/77
f 61/96/78 54/89/78 56/91/78
f 39/97/79 61/96/79 36/98/79
f 36/98/80 61/96/80 56/91/80
f 36/98/81 56/91/81 38/99/81
f 62/100/82 63/101/82 64/102/82
f 65/103/83 64/102/83 54/89/83
f 61/96/84 65/103/84 54/89/84
f 66/104/85 67/105/85 62/100/85
f 55/90/86 60/95/86 68/106/86
f 69/107/87 68/106/87 60/95/87
f 69/107/88 70/108/88 68/106/88
f 58/109/89 55/90/89 68/106/89
f 68/106/90 71/110/90 58/111/90
f 62/100/91 67/105/91 63/101/91
f 64/102/92 63/101/92 69/107/92
f 70/108/93 71/110/93 68/106/93
f 58/111/94 71/110/94 72/112/94
f 56/91/95 57/92/95 38/113/95
f 55/90/96 57/114/96 56/91/96
f 73/115/97 74/116/97 38/113/97
f 58/109/98 72/112/98 73/115/98
f 57/117/99 58/111/99 73/115/99
f 57/92/100 73/115/100 38/113/100
f 73/115/101 72/112/101 74/116/101
f 39/97/102 75/118/102 61/96/102
f 75/118/103 39/97/103 76/119/103
f 64/102/104 59/94/104 54/89/104
f 64/102/105 60/95/105 59/94/105
f 54/89/106 59/94/106 55/90/106
f 64/102/107 69/107/107 60/95/107
f 65/103/108 66/104/108 62/100/108
f 65/103/109 61/96/109 75/118/109
f 75/118/110 76/119/110 65/103/110
f 66/104/111 65/103/111 76/119/111
f 62/100/112 64/102/112 65/103/112
f 39/97/113 42/120/113 76/119/113
f 77/121/114 76/119/114 42/120/114
f 67/105/115 76/119/115 77/121/115
f 66/104/116 76/119/116 67/105/116
f 9/82/117 25/34/117 10/42/117
f 51/122/118 49/123/118 78/124/118
f 79/125/119 50/126/119 52/127/119
f 52/127/120 51/122/120 79/125/120
f 80/128/121 81/129/121 53/130/121
f 51/122/122 78/124/122 79/125/122
f 82/131/123 50/126/123 79/125/123
f 50/126/124 82/131/124 8/132/124
f 53/133/125 78/124/125 49/123/125
f 83/134/126 84/135/126 85/136/126
f 84/135/127 83/134/127 86/137/127
f 86/137/128 87/138/128 84/135/128
f 88/139/129 84/135/129 87/138/129
f 87/138/130 89/140/130 88/139/130
f 90/141/131 88/139/131 89/140/131
f 91/142/132 92/143/132 90/141/132
f 90/141/133 89/140/133 91/142/133
f 85/136/134 92/144/134 91/145/134
f 91/145/135 83/134/135 85/136/135
f 80/128/136 93/146/136 83/134/136
f 94/147/137 83/134/137 93/146/137
f 93/146/138 87/138/138 94/147/138
f 87/138/139 93/146/139 95/148/139
f 95/148/140 96/149/140 87/138/140
f 89/140/141 87/138/141 96/149/141
f 97/150/142 91/142/142 89/140/142
f 97/151/143 81/129/143 80/128/143
f 8/132/144 82/131/144 80/128/144
f 93/146/145 80/128/145 98/152/145
f 98/152/146 95/148/146 93/146/146
f 95/148/147 82/131/147 79/125/147
f 79/125/148 78/124/148 95/148/148
f 96/149/149 95/148/149 78/124/149
f 78/124/150 53/133/150 81/153/150
f 81/153/151 96/149/151 78/124/151
f 80/128/152 53/130/152 8/154/152
f 94/147/153 87/138/153 86/137/153
f 86/137/154 83/134/154 94/147/154
f 97/151/155 83/134/155 91/145/155
f 89/140/156 96/149/156 97/150/156
f 80/128/157 83/134/157 97/151/157
f 81/153/158 97/150/158 96/149/158
f 82/131/159 95/148/159 98/152/159
f 98/152/160 80/128/160 82/131/160
f 85/136/161 99/155/161 100/156/161
f 99/155/162 85/136/162 84/135/162
f 84/135/163 101/157/163 99/155/163
f 101/157/164 84/135/164 88/139/164
f 88/139/165 90/141/165 101/157/165
f 102/158/166 101/157/166 90/141/166
f 90/141/167 103/159/167 102/158/167
f 103/159/168 90/141/168 92/143/168
f 92/144/169 85/136/169 103/160/169
f 100/156/170 103/160/170 85/136/170
f 104/161/171 105/162/171 106/163/171
f 107/164/172 106/163/172 108/165/172
f 109/166/173 110/167/173 103/168/173
f 109/166/174 111/169/174 104/161/174
f 104/161/175 110/167/175 109/166/175
f 104/161/176 111/169/176 112/170/176
f 113/171/177 112/170/177 111/169/177
f 106/163/178 110/167/178 104/161/178
f 104/161/179 112/170/179 105/162/179
f 105/172/180 113/173/180 111/174/180
f 113/173/181 105/172/181 112/175/181
f 105/172/182 111/174/182 109/176/182
f 109/176/183 106/177/183 105/172/183
f 109/176/184 100/178/184 106/177/184
f 103/179/185 100/178/185 109/176/185
f 102/180/186 103/168/186 110/167/186
f 106/163/187 114/181/187 108/165/187
f 115/182/188 116/183/188 106/177/188
f 116/184/189 117/185/189 118/186/189
f 108/165/190 114/181/190 119/187/190
f 119/187/191 120/188/191 108/165/191
f 118/189/192 121/190/192 114/191/192
f 114/191/193 121/190/193 117/192/193
f 116/193/194 115/194/194 119/187/194
f 120/188/195 119/187/195 115/194/195
f 121/195/196 118/186/196 117/185/196
f 108/165/197 101/196/197 102/180/197
f 115/182/198 106/177/198 100/178/198
f 100/178/199 99/197/199 115/182/199
f 120/188/200 99/198/200 101/196/200
f 106/163/201 107/164/201 110/167/201
f 108/165/202 120/188/202 101/196/202
f 120/188/203 115/194/203 99/198/203
f 107/164/204 102/180/204 110/167/204
f 102/180/205 107/164/205 108/165/205
f 118/199/206 106/177/206 116/183/206
f 114/181/207 106/163/207 118/200/207
f 114/191/208 117/192/208 119/201/208
f 117/192/209 116/202/209 119/201/209
f 122/203/210 123/204/210 124/205/210
f 125/206/211 126/207/211 123/208/211
f 125/206/212 123/208/212 127/209/212
f 125/210/213 128/211/213 126/212/213
f 128/211/214 129/213/214 126/212/214
f 128/214/215 124/215/215 129/216/215
f 122/217/216 124/215/216 128/214/216
f 130/218/217 128/211/217 125/219/217
f 131/220/218 122/221/218 130/222/218
f 132/223/219 125/224/219 127/225/219
f 132/226/220 131/227/220 125/219/220
f 133/228/221 131/227/221 132/226/221
f 133/229/222 122/221/222 131/220/222
f 130/218/223 125/219/223 131/227/223
f 128/214/224 130/222/224 122/221/224
f 127/209/225 123/204/225 122/203/225
f 16/230/226 133/228/226 14/231/226
f 16/232/227 3/3/227 133/229/227
f 14/231/228 133/228/228 132/226/228
f 14/233/229 132/223/229 19/234/229
f 132/223/230 127/225/230 19/234/230
f 20/235/231 19/234/231 127/225/231
f 20/235/232 127/225/232 122/236/232
f 3/3/233 122/221/233 133/229/233
f 3/237/234 20/235/234 122/236/234
f 134/238/235 135/239/235 136/240/235
f 137/241/236 135/242/236 134/243/236
f 138/244/237 139/245/237 137/246/237
f 138/247/238 136/248/238 139/249/238
f 134/238/239 136/240/239 123/208/239
f 138/247/240 123/250/240 136/248/240
f 123/250/241 138/247/241 124/251/241
f 134/238/242 123/208/242 126/252/242
f 129/253/243 134/243/243 126/254/243
f 137/241/244 134/243/244 129/253/244
f 138/244/245 137/246/245 129/255/245
f 138/244/246 129/255/246 124/256/246
f 136/257/247 140/258/247 139/259/247
f 136/257/248 141/260/248 140/258/248
f 142/261/249 139/259/249 140/258/249
f 135/262/250 143/263/250 141/260/250
f 141/264/251 143/265/251 142/266/251
f 142/266/252 140/267/252 141/264/252
f 137/268/253 143/263/253 135/262/253
f 135/262/254 141/260/254 136/257/254
f 139/259/255 142/261/255 137/268/255
f 137/268/256 144/269/256 143/263/256
f 137/268/257 142/261/257 144/269/257
f 143/265/258 145/270/258 146/271/258
f 146/271/259 142/266/259 143/265/259
f 143/263/260 144/269/260 145/272/260
f 144/269/261 146/273/261 145/272/261
f 146/273/262 144/269/262 142/261/262
f 3/274/263 16/275/263 17/276/263
f 147/5/264 4/4/264 148/6/264
f 148/7/265 4/4/265 7/8/265
f 149/10/266 147/9/266 150/11/266
f 151/13/267 152/12/267 150/14/267
f 151/15/268 148/6/268 7/8/268
f 153/16/269 148/6/269 151/13/269
f 147/5/270 153/17/270 150/14/270
f 147/5/271 148/6/271 153/17/271
f 153/18/272 151/13/272 150/19/272
f 154/21/273 155/20/273 156/22/273
f 155/20/274 154/21/274 157/23/274
f 155/20/275 157/24/275 17/25/275
f 154/21/276 156/22/276 158/26/276
f 159/27/277 154/21/277 158/26/277
f 160/28/278 158/26/278 21/29/278
f 159/27/279 158/26/279 160/28/279
f 3/30/280 160/28/280 21/29/280
f 22/31/281 147/9/281 23/32/281
f 161/34/282 24/33/282 162/35/282
f 161/34/283 163/36/283 150/37/283
f 163/39/284 164/38/284 165/40/284
f 161/34/285 166/41/285 24/33/285
f 166/41/286 161/34/286 152/42/286
f 24/33/287 166/41/287 31/43/287
f 162/44/288 24/33/288 32/45/288
f 167/47/289 168/46/289 147/9/289
f 22/31/290 4/4/290 147/9/290
f 161/34/291 162/35/291 163/39/291
f 169/48/292 168/46/292 167/47/292
f 162/35/293 32/45/293 164/38/293
f 168/46/294 23/32/294 147/9/294
f 163/39/295 162/35/295 164/38/295
f 165/40/296 164/38/296 170/49/296
f 171/51/297 169/50/297 165/40/297
f 38/52/298 164/38/298 32/45/298
f 38/52/299 170/49/299 164/38/299
f 171/53/300 170/49/300 172/54/300
f 171/56/301 172/55/301 173/57/301
f 42/59/302 41/58/302 172/55/302
f 173/57/303 172/55/303 41/58/303
f 165/40/304 170/49/304 171/51/304
f 169/48/305 171/56/305 168/46/305
f 168/46/306 171/56/306 173/57/306
f 168/46/307 173/57/307 43/60/307
f 43/60/308 173/57/308 41/58/308
f 23/32/309 168/46/309 43/60/309
f 174/62/310 44/61/310 166/63/310
f 175/65/311 156/64/311 174/62/311
f 176/67/312 175/66/312 152/68/312
f 7/69/313 176/67/313 151/70/313
f 44/61/314 174/62/314 17/71/314
f 166/63/315 44/61/315 31/72/315
f 156/64/316 155/73/316 174/62/316
f 152/74/317 175/65/317 174/62/317
f 152/74/318 174/62/318 166/63/318
f 151/70/319 176/67/319 152/68/319
f 48/75/320 176/67/320 7/69/320
f 156/76/321 175/66/321 176/67/321
f 176/67/322 158/77/322 156/76/322
f 158/77/323 176/67/323 48/75/323
f 21/78/324 158/77/324 48/75/324
f 174/62/325 155/73/325 17/71/325
f 169/50/326 177/79/326 165/40/326
f 163/81/327 149/80/327 150/82/327
f 178/83/328 167/47/328 147/84/328
f 177/79/329 163/36/329 165/40/329
f 179/85/330 169/48/330 180/86/330
f 177/79/331 169/50/331 179/87/331
f 178/83/332 180/86/332 167/47/332
f 180/86/333 169/48/333 167/47/333
f 178/83/334 147/84/334 149/10/334
f 163/81/335 181/88/335 149/80/335
f 177/79/336 181/88/336 163/36/336
f 182/90/337 183/89/337 184/91/337
f 182/90/338 185/92/338 186/93/338
f 187/95/339 188/94/339 182/90/339
f 183/89/340 189/96/340 184/91/340
f 189/96/341 172/97/341 170/98/341
f 189/96/342 170/98/342 184/91/342
f 184/91/343 170/98/343 38/99/343
f 63/101/344 190/100/344 191/102/344
f 191/102/345 192/103/345 183/89/345
f 192/103/346 189/96/346 183/89/346
f 67/105/347 193/104/347 190/100/347
f 187/95/348 182/90/348 194/106/348
f 194/106/349 69/107/349 187/95/349
f 70/108/350 69/107/350 194/106/350
f 182/90/351 186/109/351 194/106/351
f 71/110/352 194/106/352 186/111/352
f 67/105/353 190/100/353 63/101/353
f 63/101/354 191/102/354 69/107/354
f 71/110/355 70/108/355 194/106/355
f 71/110/356 186/111/356 72/112/356
f 185/92/357 184/91/357 38/113/357
f 185/114/358 182/90/358 184/91/358
f 74/116/359 195/115/359 38/113/359
f 72/112/360 186/109/360 195/115/360
f 186/111/361 185/117/361 195/115/361
f 195/115/362 185/92/362 38/113/362
f 72/112/363 195/115/363 74/116/363
f 196/118/364 172/97/364 189/96/364
f 172/97/365 196/118/365 197/119/365
f 188/94/366 191/102/366 183/89/366
f 187/95/367 191/102/367 188/94/367
f 188/94/368 183/89/368 182/90/368
f 69/107/369 191/102/369 187/95/369
f 193/104/370 192/103/370 190/100/370
f 189/96/371 192/103/371 196/118/371
f 197/119/372 196/118/372 192/103/372
f 192/103/373 193/104/373 197/119/373
f 191/102/374 190/100/374 192/103/374
f 42/120/375 172/97/375 197/119/375
f 197/119/376 77/121/376 42/120/376
f 197/119/377 67/105/377 77/121/377
f 197/119/378 193/104/378 67/105/378
f 161/34/379 150/82/379 152/42/379
f 177/123/380 179/122/380 198/124/380
f 178/126/381 199/125/381 180/127/381
f 179/122/382 180/127/382 199/125/382
f 200/129/383 201/128/383 181/130/383
f 198/124/384 179/122/384 199/125/384
f 178/126/385 202/131/385 199/125/385
f 202/131/386 178/126/386 149/132/386
f 198/124/387 181/133/387 177/123/387
f 203/135/388 204/134/388 205/136/388
f 204/134/389 203/135/389 206/137/389
f 207/138/390 206/137/390 203/135/390
f 203/135/391 208/139/391 207/138/391
f 209/140/392 207/138/392 208/139/392
f 208/139/393 210/141/393 209/140/393
f 211/143/394 212/142/394 210/141/394
f 209/140/395 210/141/395 212/142/395
f 211/144/396 205/136/396 212/145/396
f 204/134/397 212/145/397 205/136/397
f 213/146/398 201/128/398 204/134/398
f 204/134/399 214/147/399 213/146/399
f 207/138/400 213/146/400 214/147/400
f 213/146/401 207/138/401 215/148/401
f 216/149/402 215/148/402 207/138/402
f 207/138/403 209/140/403 216/149/403
f 212/142/404 217/150/404 209/140/404
f 200/129/405 217/151/405 201/128/405
f 202/131/406 149/132/406 201/128/406
f 201/128/407 213/146/407 218/152/407
f 215/148/408 218/152/408 213/146/408
f 202/131/409 215/148/409 199/125/409
f 198/124/410 199/125/410 215/148/410
f 215/148/411 216/149/411 198/124/411
f 181/133/412 198/124/412 200/153/412
f 216/149/413 200/153/413 198/124/413
f 181/130/414 201/128/414 149/154/414
f 207/138/415 214/147/415 206/137/415
f 204/134/416 206/137/416 214/147/416
f 204/134/417 217/151/417 212/145/417
f 216/149/418 209/140/418 217/150/418
f 204/134/419 201/128/419 217/151/419
f 217/150/420 200/153/420 216/149/420
f 215/148/421 202/131/421 218/152/421
f 201/128/422 218/152/422 202/131/422
f 219/155/423 205/136/423 220/156/423
f 205/136/424 219/155/424 203/135/424
f 221/157/425 203/135/425 219/155/425
f 203/135/426 221/157/426 208/139/426
f 210/141/427 208/139/427 221/157/427
f 221/157/428 222/158/428 210/141/428
f 223/159/429 210/141/429 222/158/429
f 210/141/430 223/159/430 211/143/430
f 205/136/431 211/144/431 223/160/431
f 223/160/432 220/156/432 205/136/432
f 224/162/433 225/161/433 226/163/433
f 226/163/434 227/164/434 228/165/434
f 229/167/435 230/166/435 223/168/435
f 231/169/436 230/166/436 225/161/436
f 229/167/437 225/161/437 230/166/437
f 231/169/438 225/161/438 232/170/438
f 232/170/439 233/171/439 231/169/439
f 229/167/440 226/163/440 225/161/440
f 232/170/441 225/161/441 224/162/441
f 233/173/442 224/172/442 231/174/442
f 224/172/443 233/173/443 232/175/443
f 231/174/444 224/172/444 230/176/444
f 226/177/445 230/176/445 224/172/445
f 220/178/446 230/176/446 226/177/446
f 220/178/447 223/179/447 230/176/447
f 223/168/448 222/180/448 229/167/448
f 234/181/449 226/163/449 228/165/449
f 235/183/450 236/182/450 226/177/450
f 237/185/451 235/184/451 238/186/451
f 234/181/452 228/165/452 239/187/452
f 240/188/453 239/187/453 228/165/453
f 241/190/454 238/189/454 234/191/454
f 241/190/455 234/191/455 237/192/455
f 236/194/456 235/193/456 239/187/456
f 239/187/457 240/188/457 236/194/457
f 238/186/458 241/195/458 237/185/458
f 221/196/459 228/165/459 222/180/459
f 226/177/460 236/182/460 220/178/460
f 219/197/461 220/178/461 236/182/461
f 219/198/462 240/188/462 221/196/462
f 227/164/463 226/163/463 229/167/463
f 240/188/464 228/165/464 221/196/464
f 236/194/465 240/188/465 219/198/465
f 222/180/466 227/164/466 229/167/466
f 227/164/467 222/180/467 228/165/467
f 226/177/468 238/199/468 235/183/468
f 226/163/469 234/181/469 238/200/469
f 237/192/470 234/191/470 239/201/470
f 235/202/471 237/192/471 239/201/471
f 242/204/472 243/203/472 244/205/472
f 245/207/473 246/206/473 242/208/473
f 242/208/474 246/206/474 247/209/474
f 248/211/475 246/210/475 245/212/475
f 249/213/476 248/211/476 245/212/476
f 244/215/477 248/214/477 249/216/477
f 244/215/478 243/217/478 248/214/478
f 248/211/479 250/218/479 246/219/479
f 243/221/480 251/220/480 250/222/480
f 246/224/481 252/223/481 247/225/481
f 251/227/482 252/226/482 246/219/482
f 251/227/483 253/228/483 252/226/483
f 243/221/484 253/229/484 251/220/484
f 246/219/485 250/218/485 251/227/485
f 250/222/486 248/214/486 243/221/486
f 242/204/487 247/209/487 243/203/487
f 253/228/488 157/230/488 154/231/488
f 3/3/489 157/232/489 253/229/489
f 253/228/490 154/231/490 252/226/490
f 252/223/491 154/233/491 159/234/491
f 247/225/492 252/223/492 159/234/492
f 159/234/493 160/235/493 247/225/493
f 247/225/494 160/235/494 243/236/494
f 243/221/495 3/3/495 253/229/495
f 160/235/496 3/237/496 243/236/496
f 254/239/497 255/238/497 256/240/497
f 254/242/498 257/241/498 255/243/498
f 258/245/499 259/244/499 257/246/499
f 256/248/500 259/247/500 258/249/500
f 256/240/501 255/238/501 242/208/501
f 242/250/502 259/247/502 256/248/502
f 259/247/503 242/250/503 244/251/503
f 242/208/504 255/238/504 245/252/504
f 255/243/505 249/253/505 245/254/505
f 255/243/506 257/241/506 249/253/506
f 257/246/507 259/244/507 249/255/507
f 249/255/508 259/244/508 244/256/508
f 260/258/509 256/257/509 258/259/509
f 261/260/510 256/257/510 260/258/510
f 258/259/511 262/261/511 260/258/511
f 263/263/512 254/262/512 261/260/512
f 263/265/513 261/264/513 262/266/513
f 260/267/514 262/266/514 261/264/514
f 263/263/515 257/268/515 254/262/515
f 261/260/516 254/262/516 256/257/516
f 262/261/517 258/259/517 257/268/517
f 264/269/518 257/268/518 263/263/518
f 262/261/519 257/268/519 264/269/519
f 265/270/520 263/265/520 266/271/520
f 262/266/521 266/271/521 263/265/521
f 264/269/522 263/263/522 265/272/522
f 266/273/523 264/269/523 265/272/523
f 264/269/524 266/273/524 262/261/524
f 157/275/525 3/274/525 17/276/525

o 
usemtl axe.001
s off

v 28.388851 70.924294 6.042540
v 23.845999 65.561386 8.097440
v 33.210800 68.462532 12.656610
v 30.349449 66.744400 12.455240
v 33.876148 67.170311 14.227961
v 31.014801 65.452171 14.026590
v 33.928482 60.165329 19.125420
v 27.312920 58.828011 16.285240
v 33.968060 74.274399 6.435190
v 39.507690 63.515438 19.518059
v 40.583618 75.611732 9.275371
v 36.072151 70.180672 12.857990
v 36.737499 68.888443 14.429330
v 44.050552 68.878342 17.463171
v 31.159040 65.551300 11.131269
v 34.020390 67.269432 11.332640
v 31.824390 64.259071 12.702610
v 34.685730 65.977211 12.903980
v 36.881741 68.987572 11.534010
v 37.547089 67.695343 13.105360
v 1.796580 49.599438 10.445800
v 2.461920 48.307209 12.017150
v 3.271520 47.114109 10.693170
v 2.255580 49.366020 9.681190
v 42.835167 72.556129 13.405729
v -27.308599 30.431099 9.922000
v -26.532690 29.324369 8.504539
v -27.164360 30.530231 7.026680
v -27.973949 31.723330 8.350650

vt 0.033358 0.643728
vt 0.190411 0.923560
vt 0.402692 0.503812
vt 0.402692 0.647326
vt 0.408249 0.287497
vt 0.408249 0.367848
vt 0.492649 0.287497
vt 0.492649 0.367848
vt 0.403043 0.503812
vt 0.403044 0.647326
vt 0.033710 0.643728
vt 0.190763 0.923560
vt 0.033358 0.363896
vt 0.033710 0.363896
vt 0.190411 0.084064
vt 0.402692 0.360297
vt 0.408249 0.207147
vt 0.492649 0.207147
vt 0.403043 0.360297
vt 0.190763 0.084064
vt 0.408248 1.036942
vt 0.492649 1.036942
vt 0.483600 0.371280
vt 0.402049 0.371280
vt 0.402049 1.040375
vt 0.483600 1.040375
vt 0.450449 0.037941
vt 0.483600 0.210579
vt 0.402049 0.210579
vt 0.442825 0.041374
vt 0.000000 1.000000

vn -0.487387 0.640332 0.593658
vn -0.470133 0.723748 0.505138
vn -0.413582 0.609501 0.676357
vn -0.371892 0.530025 0.762083
vn -0.425291 0.495837 0.757148
vn -0.448902 0.679589 0.580212
vn -0.393775 0.711229 0.582318
vn -0.338187 0.467484 0.816755
vn -0.334304 0.570602 0.750103
vn 0.338187 -0.467483 -0.816755
vn 0.334305 -0.570602 -0.750102
vn 0.413583 -0.609500 -0.676357
vn 0.393774 -0.711229 -0.582319
vn 0.448902 -0.679589 -0.580212
vn 0.371893 -0.530024 -0.762082
vn 0.425291 -0.495837 -0.757148
vn 0.487386 -0.640332 -0.593658
vn 0.470133 -0.723747 -0.505139
vn -0.236228 -0.789263 0.566799
vn -0.745476 0.199786 -0.635886
vn 0.236226 0.789265 -0.566796
vn 0.745477 -0.199788 0.635885
vn 0.222364 -0.314411 -0.922876
vn -0.303658 0.607992 -0.733579
vn -0.423991 0.763246 -0.487532
vn 0.310842 -0.603709 0.734107
vn -0.291821 0.674442 0.678210
vn 0.527466 -0.532949 -0.661623
vn 0.435908 -0.519635 0.734822
vn -0.178714 0.674070 -0.716722
vn 0.322920 -0.624777 0.710898
vn -0.354598 0.657701 -0.664597
vn 0.338970 -0.438022 -0.832608
vn -0.854214 -0.516831 -0.056599
vn -0.853649 -0.516944 -0.063660

f 267/277/526 268/278/526 269/279/526
f 270/280/527 269/279/527 268/278/527
f 269/281/528 270/282/528 271/283/528
f 272/284/528 271/283/528 270/282/528
f 271/285/529 272/286/529 273/287/529
f 274/288/530 273/287/530 272/286/530
f 275/289/531 267/277/531 269/279/531
f 273/287/529 276/290/529 271/285/529
f 277/291/532 275/289/532 278/292/532
f 269/279/531 278/292/531 275/289/531
f 278/293/528 269/281/528 279/294/528
f 271/283/528 279/294/528 269/281/528
f 279/295/533 271/285/533 280/296/533
f 276/290/534 280/296/534 271/285/534
f 281/280/535 268/278/535 282/279/535
f 267/277/536 282/279/536 268/278/536
f 283/284/537 281/282/537 284/283/537
f 282/281/537 284/283/537 281/282/537
f 274/288/538 283/286/538 273/287/538
f 284/285/539 273/287/539 283/286/539
f 282/279/540 267/277/540 275/289/540
f 273/287/539 284/285/539 276/290/539
f 282/279/540 275/289/540 285/292/540
f 277/291/541 285/292/541 275/289/541
f 284/283/537 282/281/537 286/294/537
f 285/293/537 286/294/537 282/281/537
f 276/290/542 284/285/542 280/296/542
f 286/295/543 280/296/543 284/285/543
f 270/280/544 268/278/544 281/280/544
f 283/286/545 274/288/545 272/286/545
f 279/295/546 280/296/546 286/295/546
f 285/292/547 277/291/547 278/292/547
f 272/284/528 270/282/528 287/297/528
f 287/297/528 288/298/528 272/284/528
f 281/282/537 283/284/537 289/298/537
f 289/298/548 290/297/548 281/282/548
f 270/299/549 281/300/549 290/301/549
f 290/301/550 287/302/550 270/299/550
f 283/300/551 272/299/551 288/302/551
f 288/302/551 289/301/551 283/300/551
f 278/293/552 279/294/552 291/303/552
f 286/294/553 285/293/553 291/303/553
f 279/304/554 286/305/554 291/306/554
f 285/305/555 278/304/555 291/306/555
f 289/298/556 288/297/556 292/298/556 293/307/556
f 287/297/557 290/298/557 294/297/557 295/307/557
f 290/297/558 289/298/558 293/297/558 294/307/558
f 288/298/528 287/297/528 295/298/528 292/307/528
f 294/297/559 293/298/559 295/297/559
f 292/298/560 295/297/560 293/298/560

