mtllib anim_skel_walk_body_000058.mtl

o msked
usemtl msked.001
s off

v 4.178150 39.315231 -0.413010
v 1.807790 38.985981 -2.892570
v 0.407600 37.523670 -0.227090
v 0.094870 32.328350 1.527560
v 0.562410 35.708050 -3.704570
v 4.458020 36.688789 2.869240
v 5.117710 37.989719 -1.264860
v -0.179750 46.044342 -1.608360
v 8.035520 19.314869 1.119570
v 9.066299 15.939079 0.076030
v 7.571900 15.985030 -0.739930
v 7.706870 19.465900 2.063490
v 8.123770 15.572061 1.480730
v 6.889240 19.194540 1.663900
v 6.494500 15.602740 0.651290
v 3.583970 35.736801 0.746950
v 7.940420 3.305850 -2.548150
v 9.523550 3.589490 -2.899020
v 7.687870 -0.201030 -4.708210
v 9.040211 3.245460 -1.676640
v 10.222310 0.187340 -5.192060
v 8.931540 -0.945280 3.314850
v 12.601700 -0.353760 2.334630
v -3.209710 39.896568 -0.591470
v -0.767490 40.097099 -2.240080
v -4.259940 37.423889 2.111150
v -3.863240 38.363792 -0.764370
v -6.685070 20.051031 0.188930
v -6.453990 16.924519 -2.228990
v -8.171860 16.962469 -1.390460
v -7.258730 16.161591 0.110150
v -6.403680 19.928480 1.297370
v -5.432040 19.740501 0.857140
v -5.396800 16.088291 -0.721770
v -2.456980 36.108299 0.519810
v -8.699310 5.060010 -6.452500
v -8.846390 1.860750 -9.094180
v -10.170680 5.193210 -6.227030
v -9.361220 4.851360 -5.369560
v -11.425420 2.075750 -8.732280
v -7.143690 -0.176440 -1.616970
v -11.022281 0.146450 -1.079240
v -1.864960 46.707283 4.076770
v -5.071190 43.333858 1.315680
v 0.022810 51.550850 4.541710
v 0.213470 55.634289 -2.700780
v -5.865290 55.777031 -0.041020
v -0.951540 56.462723 0.194080
v -5.623550 54.201897 -1.353310
v -4.950170 54.326019 1.182360
v 0.262940 55.178940 0.539270
v -2.887970 53.459503 3.836520
v 0.667150 61.155380 1.641940
v 0.214190 61.520382 -0.498180
v 3.980510 56.757488 3.559360
v 2.311080 61.116837 6.432590
v -0.590490 56.319061 4.811530
v -1.661850 60.996269 4.838520
v -1.603850 60.522453 2.828000
v 3.277530 61.032219 1.270240
v 1.580360 66.808685 6.015590
v -1.169640 66.947716 4.553080
v 0.077090 64.657471 7.050960
v -2.553150 65.474274 2.377290
v -0.205700 67.655670 1.462820
v -2.218800 64.517838 5.301840
v -0.454380 65.713440 0.114820
v 2.316120 64.742081 7.333740
v 1.677560 56.499893 0.147830
v 6.342630 56.285969 0.075490
v 5.311760 54.811531 -1.153880
v 4.456270 43.381020 1.183260
v 5.707450 54.772511 1.421440
v 3.733090 51.963390 4.231990
v 2.327220 45.378109 3.789860
v 4.415430 61.685692 2.803510
v 3.802580 65.104698 5.672760
v 2.638650 67.404907 3.144130
v 2.578940 66.115959 0.495450
v 4.404700 65.346497 2.874780
v 8.287371 46.523060 2.209040
v 9.483560 46.769337 0.686440
v 7.721220 46.719681 0.622860
v 11.614670 38.986019 6.574340
v 10.926121 38.396309 5.443690
v 12.560261 37.271683 9.688810
v 13.530069 36.809349 8.397020
v 10.452370 35.026611 8.720180
v 11.169439 34.438740 9.615650
v 13.660709 36.134201 10.034090
v 12.694670 36.671009 10.738991
v 11.615020 34.397369 7.437420
v 7.631470 45.087551 0.451850
v 10.347231 35.639050 9.380990
v -9.874050 47.065311 -0.933990
v -11.569429 47.314064 -0.852430
v -10.093340 47.127640 -1.911370
v -10.021870 38.484001 4.037800
v -9.035330 39.509922 4.836590
v -7.699740 36.862549 7.045090
v -9.059381 37.106899 7.688390
v -8.505930 34.580711 5.496150
v -8.205650 33.963329 6.591830
v -6.958680 36.190712 6.808900
v -8.062990 35.388721 7.799630
v -10.226211 34.810841 6.109440
v -10.757120 45.192333 -2.119010
v -7.538820 34.931492 5.276800
v 0.715550 68.077408 4.089750

vt 0.041167 0.207596
vt 0.110151 0.210653
vt 0.155860 0.150950
vt 0.155860 0.004599
vt 0.155860 0.116597
vt 0.016826 0.121516
vt 0.041418 0.161189
vt 0.949447 0.134245
vt 0.995856 0.201252
vt 0.949499 0.409452
vt 0.551298 0.441597
vt 0.512470 0.342436
vt 0.575861 0.342435
vt 0.577815 0.441679
vt 0.612137 0.441505
vt 0.706701 0.502779
vt 0.696656 0.011408
vt 0.727269 0.011327
vt 0.645747 0.342436
vt 0.083576 0.100021
vt 0.929942 0.015737
vt 0.937563 0.081772
vt 0.976707 -0.002805
vt 0.541706 0.010011
vt 0.576207 0.008899
vt 0.614144 0.010012
vt 0.986514 0.082171
vt 0.745226 0.025720
vt 0.759970 0.153483
vt 0.893974 0.060016
vt 0.657033 0.011235
vt 0.644583 0.533150
vt 0.661859 0.447959
vt 0.577221 0.401965
vt 0.605389 0.404491
vt 0.544413 0.404514
vt 0.578392 0.404501
vt 0.041816 0.207204
vt 0.110952 0.210261
vt 0.017475 0.121124
vt 0.042068 0.160797
vt 0.903194 0.201252
vt 0.551124 0.441597
vt 0.575687 0.342435
vt 0.512296 0.342436
vt 0.577641 0.441679
vt 0.611963 0.441505
vt 0.706340 0.502779
vt 0.726909 0.011327
vt 0.696296 0.011408
vt 0.645573 0.342436
vt 0.084225 0.099629
vt 0.929963 0.015912
vt 0.976727 -0.002629
vt 0.937584 0.081947
vt 0.541532 0.010012
vt 0.576032 0.008899
vt 0.613969 0.010012
vt 0.986534 0.082346
vt 0.745246 0.025895
vt 0.759991 0.153658
vt 0.893994 0.060191
vt 0.656672 0.011235
vt 0.644015 0.533150
vt 0.661498 0.447959
vt 0.381082 0.518613
vt 0.473854 0.521496
vt 0.487486 0.708873
vt 0.014451 0.867957
vt 0.259309 0.958815
vt 0.064134 0.963664
vt 0.200040 0.895796
vt 0.262305 0.513873
vt 0.313315 0.867634
vt 0.208224 0.890630
vt 0.254415 0.957943
vt 0.481717 0.903440
vt 0.370073 0.709764
vt 0.432103 0.963629
vt 0.836118 0.400333
vt 0.829257 0.200049
vt 0.882028 0.148045
vt 0.017902 0.579199
vt 0.380473 0.519374
vt 0.489377 0.709146
vt 0.475746 0.521769
vt 0.017213 0.579344
vt 0.264196 0.514145
vt 0.202500 0.892108
vt 0.781778 0.385894
vt 0.843708 0.501773
vt 0.780162 0.719667
vt 0.716616 0.501773
vt 0.693215 0.695775
vt 0.686544 0.686130
vt 0.862344 0.686130
vt 0.780162 0.918634
vt 0.727648 0.914313
vt 0.726518 0.864095
vt 0.644622 0.875516
vt 0.727648 0.913360
vt 0.668670 0.934651
vt 0.662812 0.686130
vt 0.774444 0.696650
vt 0.675135 0.851794
vt 0.754605 0.153718
vt 0.774442 0.685255
vt 0.570516 0.685255
vt 0.557177 0.894376
vt 0.780162 0.858665
vt 0.378581 0.519101
vt 0.264520 0.510851
vt 0.867108 0.695776
vt 0.833805 0.864094
vt 0.832675 0.914313
vt 0.876407 0.940368
vt 0.829816 0.915266
vt 0.903910 0.879089
vt 0.886077 0.686130
vt 0.885188 0.851794
vt 0.978370 0.902000
vt 0.970745 0.689067
vt 0.015051 0.437421
vt 0.483254 0.495410
vt 0.019651 0.499739
vt 0.485816 0.465265
vt 0.061328 0.470496
vt 0.456904 0.444276
vt 0.016578 0.361735
vt 0.497541 0.430257
vt 0.497522 0.315677
vt 0.030493 0.438014
vt 0.305714 0.121311
vt 0.311705 0.269102
vt 0.476265 0.265798
vt 0.311331 0.122120
vt 0.478135 0.269445
vt 0.474964 0.122436
vt 0.461620 0.035542
vt 0.280508 0.010562
vt 0.320302 0.079754
vt 0.253177 0.093723
vt 0.315903 0.079819
vt 0.472325 0.121974
vt 0.070278 0.285701
vt 0.920818 0.191822
vt 0.868261 0.170952
vt 0.860894 0.212089
vt 0.752496 0.179666
vt 0.862106 0.210890
vt 0.867519 0.168135
vt 0.459195 0.079729
vt 0.317137 0.081379
vt 0.314453 0.074899
vt 0.488803 0.132862
vt 0.016472 0.437484
vt 0.021071 0.499801
vt 0.484674 0.495472
vt 0.487236 0.465328
vt 0.062748 0.470559
vt 0.458325 0.444339
vt 0.023005 0.360749
vt 0.503948 0.314690
vt 0.503967 0.429270
vt 0.036919 0.437028
vt 0.076705 0.284714
vt 0.780162 0.976831
vt 0.780162 0.974925
vt 0.774444 0.978737

vn -0.402553 0.875096 0.268622
vn 0.937313 -0.324876 -0.126096
vn -0.315664 0.727561 0.609107
vn -0.540105 0.298298 0.786960
vn 0.476149 0.688814 -0.546642
vn 0.841960 0.142401 0.520408
vn 0.451129 0.386426 -0.804461
vn 0.829739 0.005307 0.558127
vn -0.415866 0.486853 -0.768134
vn 0.935591 0.194603 0.294617
vn 0.937001 0.184290 0.296758
vn -0.798112 0.243130 -0.551276
vn 0.701915 -0.711623 0.030134
vn -0.272538 0.518746 -0.810324
vn 0.472443 0.222912 -0.852706
vn 0.931921 -0.023415 0.361904
vn 0.838063 -0.098252 0.536654
vn -0.440384 -0.274215 0.854908
vn -0.236040 0.509308 -0.827581
vn -0.988266 -0.021935 0.151157
vn 0.897335 0.358141 -0.257924
vn 0.128997 -0.985343 -0.111617
vn 0.129691 -0.985265 -0.111501
vn -0.797322 0.062439 -0.600316
vn -0.236751 0.130424 -0.962776
vn -0.611132 -0.238738 0.754667
vn 0.398203 0.829791 0.391000
vn 0.048490 0.764444 0.642864
vn -0.419787 0.699596 0.578225
vn -0.449020 -0.179088 0.875391
vn -0.370646 -0.214059 0.903770
vn -0.383415 -0.299575 -0.873640
vn 0.429082 -0.048125 -0.901982
vn 0.639742 0.221652 0.735935
vn -0.799037 0.598206 0.060740
vn 0.858880 0.433130 0.273355
vn -0.128553 0.707797 0.694621
vn 0.403490 -0.575879 -0.711027
vn -0.936932 -0.170287 0.305223
vn -0.429206 -0.035733 0.902499
vn 0.376031 0.671311 0.638703
vn -0.951081 -0.213752 -0.223061
vn 0.338999 0.624788 0.703363
vn 0.427193 0.266127 0.864108
vn -0.547888 0.320755 -0.772615
vn -0.847605 0.027475 0.529917
vn -0.119826 0.281374 -0.952087
vn -0.193749 0.122540 -0.973368
vn -0.354837 0.555401 -0.752078
vn -0.847879 0.025554 0.529574
vn 0.494419 0.554329 -0.669529
vn -0.914700 0.304368 0.265863
vn -0.952357 0.160258 0.259489
vn 0.851608 0.214907 -0.478100
vn -0.732650 -0.586621 -0.345107
vn -0.060057 0.637203 -0.768352
vn -0.393654 0.405820 -0.824832
vn -0.749554 -0.170543 0.639597
vn -0.866101 -0.056988 0.496610
vn 0.333688 -0.511425 0.791894
vn -0.054458 0.638710 -0.767518
vn 0.975012 0.113071 -0.191222
vn -0.950821 0.284756 0.121873
vn -0.113215 -0.964825 -0.237264
vn -0.113687 -0.964839 -0.236985
vn 0.828732 0.041830 -0.558080
vn -0.110589 0.351816 -0.929514
vn 0.824409 -0.363460 0.433874
vn -0.364121 0.694462 0.620596
vn 0.157729 0.634385 0.756754
vn 0.601997 0.630863 0.489502
vn 0.369756 -0.354603 0.858800
vn 0.322059 -0.373059 0.870118
vn 0.413310 -0.228806 -0.881375
vn -0.439773 0.021025 -0.897863
vn -0.508097 0.164567 0.845432
vn 0.721631 0.622442 0.303008
vn -0.919927 0.392087 0.001248
vn 0.098006 0.537845 0.837328
vn -0.323881 -0.441709 -0.836657
vn 0.928424 -0.161861 0.334411
vn 0.403320 -0.054483 0.913436
vn 0.766595 -0.241672 -0.594917
vn -0.116257 0.941533 -0.316228
vn -0.315586 0.578327 -0.752292
vn -0.966575 0.013748 0.256015
vn -0.010148 0.640811 0.767632
vn -0.611320 -0.064554 0.788746
vn -0.236208 -0.001213 0.971702
vn -0.073781 0.193266 0.978368
vn -0.404309 -0.139434 0.903931
vn -0.199720 -0.102813 -0.974444
vn 0.299943 0.697770 0.650501
vn 0.629385 -0.589132 0.506753
vn -0.397895 -0.237825 -0.886069
vn -0.937984 0.249184 0.241024
vn 0.275689 -0.453157 0.847729
vn -0.368528 -0.089753 0.925274
vn -0.226049 -0.459752 -0.858796
vn -0.353844 0.594710 0.721883
vn -0.690244 0.721851 -0.049938
vn -0.103433 0.919018 0.380404
vn -0.786999 0.016146 0.616743
vn -0.974431 -0.223344 0.024523
vn -0.127474 -0.752792 -0.645798
vn -0.987512 -0.157307 0.008582
vn -0.981643 -0.183434 0.052239
vn -0.901061 0.152093 -0.406148
vn 0.164928 -0.965889 -0.199641
vn -0.867085 -0.066069 -0.493759
vn -0.112734 -0.239548 0.964317
vn -0.361808 -0.177627 0.915174
vn 0.038792 0.950361 -0.308721
vn 0.324945 0.461220 -0.825643
vn 0.982725 -0.104746 -0.152577
vn -0.067812 0.678757 0.731225
vn 0.860046 -0.104902 0.499316
vn 0.092404 -0.086328 0.991972
vn -0.639047 -0.562460 0.524651
vn -0.835103 -0.252216 -0.488867
vn 0.026787 0.257539 0.965896
vn 0.424154 -0.191974 0.885008
vn 0.270482 -0.119904 -0.955229
vn -0.026468 0.741437 0.670500
vn 0.411849 -0.212029 -0.886241
vn -0.068386 -0.985756 -0.153648
vn 0.865043 0.000606 0.501697
vn 0.600776 0.709314 0.368703
vn 0.323028 0.848090 -0.419996
vn -0.056890 0.725840 0.685507
vn 0.682282 -0.193002 0.705154
vn 0.823865 -0.156268 -0.544819
vn -0.186888 -0.487467 -0.852906
vn 0.800074 0.014020 -0.599738
vn 0.140447 -0.130282 -0.981479
vn 0.850249 0.184390 -0.493029
vn 0.953286 0.257554 -0.157838
vn 0.513619 0.203744 -0.833477
vn 0.932825 -0.315838 0.173449
vn 0.865552 -0.007213 0.500766
vn -0.948585 -0.283155 0.141455
vn 0.648288 0.166264 -0.743020
vn 0.705012 0.282587 0.650463
vn 0.731938 0.281412 0.620543
vn 0.041008 -0.202618 -0.978399
vn -0.928843 -0.209483 0.305563
vn 0.874176 -0.117148 -0.471268
vn 0.590017 0.583608 0.557927
vn -0.839158 -0.057193 0.540872
vn -0.879383 0.250512 0.404881
vn 0.785955 0.202412 -0.584213
vn -0.744446 0.516306 0.423353
vn 0.255213 -0.568096 0.782389
vn 0.637605 0.740101 0.213800
vn -0.748092 0.530229 0.399017
vn -0.769783 -0.386047 -0.508332
vn 0.660068 -0.241014 -0.711493
vn -0.894483 -0.118886 0.431006
vn 0.448936 -0.381696 -0.807939
vn 0.032986 0.102357 -0.994201
vn -0.941037 0.016345 0.337909
vn -0.555031 -0.826055 -0.097846
vn 0.739839 -0.652556 0.163734
vn 0.566263 -0.745064 -0.352457
vn 0.660004 0.711622 0.240809
vn 0.628987 0.706793 0.323756
vn -0.450565 -0.136145 0.882302
vn 0.065160 0.737029 -0.672712
vn -0.808512 -0.490165 0.325649
vn 0.837123 -0.510179 -0.197337
vn -0.590211 0.461323 -0.662444
vn -0.639188 0.218548 0.737344
vn 0.030751 -0.115913 0.992783
vn -0.506651 0.381127 -0.773335
vn 0.832539 -0.508736 -0.219241
vn -0.741987 0.220574 0.633090
vn 0.127229 0.610930 0.781395
vn 0.776117 -0.326079 -0.539737
vn 0.727246 -0.184601 -0.661087
vn -0.796512 0.465656 0.385659
vn 0.813172 0.101704 -0.573068
vn 0.753829 -0.467062 0.462164
vn 0.405041 0.697489 0.591144
vn 0.189258 0.504837 -0.842212
vn -0.352969 -0.444657 -0.823221
vn -0.913598 0.237123 0.330321
vn 0.914633 -0.214354 -0.342782
vn -0.949903 -0.261382 -0.171359
vn -0.538438 0.270307 -0.798135
vn 0.928421 -0.294069 -0.227063
vn -0.265027 -0.869313 -0.417201
vn -0.366378 -0.393601 0.843117
vn -0.737516 -0.392095 0.549848
vn 0.451574 0.315897 0.834440
vn 0.516482 0.285929 0.807150
vn 0.866785 -0.492739 0.076762
vn -0.393308 0.777761 -0.490303
vn 0.184405 -0.833799 -0.520360
vn -0.127052 0.500853 0.856157
vn -0.289303 0.734529 0.613817
vn -0.557087 0.454674 0.694929
vn -0.667798 0.480218 -0.568716
vn -0.860515 0.446898 0.244532
vn -0.506488 0.861349 0.039339
vn -0.708201 -0.197463 -0.677835
vn -0.521883 -0.455272 0.721364
vn 0.539447 0.580870 0.609579
vn 0.754823 0.619356 0.215963
vn 0.454586 0.823833 0.338602
vn 0.027944 0.567536 -0.822874
vn 0.219023 0.948447 -0.229078
vn 0.695667 0.639645 -0.326958
vn 0.795900 0.017137 -0.605186
vn 0.752676 -0.159813 0.638701

f 1/1/1 2/2/1 3/3/1
f 4/4/2 5/5/2 2/2/2
f 6/6/3 1/1/3 3/3/3
f 6/6/4 3/3/4 4/4/4
f 2/2/5 1/1/5 7/7/5
f 3/8/6 2/9/6 8/10/6
f 9/11/7 10/12/7 11/13/7
f 10/12/8 12/14/8 13/13/8
f 14/15/9 9/11/9 11/13/9
f 10/12/10 9/11/10 12/14/10
f 7/16/11 12/17/11 9/18/11
f 15/19/12 14/15/12 11/13/12
f 6/6/13 4/4/13 16/20/13
f 17/21/14 18/22/14 19/23/14
f 11/13/15 10/12/15 18/24/15
f 18/24/16 13/13/16 20/25/16
f 10/12/17 13/13/17 18/24/17
f 13/13/18 15/19/18 17/26/18
f 19/23/19 18/22/19 21/27/19
f 17/21/20 19/23/20 22/28/20
f 21/27/21 18/22/21 23/29/21
f 22/28/22 21/27/22 23/29/22
f 21/27/23 22/28/23 19/23/23
f 17/26/24 15/19/24 11/13/24
f 11/13/25 18/24/25 17/26/25
f 13/13/26 17/26/26 20/25/26
f 18/22/27 20/30/27 23/29/27
f 20/30/28 22/28/28 23/29/28
f 20/30/29 17/21/29 22/28/29
f 15/19/30 13/13/30 12/14/30
f 15/19/31 12/14/31 14/15/31
f 14/31/32 2/32/32 9/18/32
f 9/18/33 2/32/33 7/16/33
f 16/33/34 12/17/34 7/16/34
f 7/34/35 16/35/35 6/36/35
f 7/7/36 1/1/36 6/6/36
f 7/34/37 2/35/37 16/37/37
f 16/20/38 4/4/38 2/2/38
f 14/31/39 16/33/39 2/32/39
f 14/31/40 12/17/40 16/33/40
f 24/38/41 3/3/41 25/39/41
f 4/4/42 25/39/42 5/5/42
f 26/40/43 3/3/43 24/38/43
f 26/40/44 4/4/44 3/3/44
f 27/41/45 24/38/45 25/39/45
f 3/8/46 8/10/46 25/42/46
f 25/39/47 2/2/47 5/5/47
f 2/9/48 25/42/48 8/10/48
f 28/43/49 29/44/49 30/45/49
f 30/45/50 31/44/50 32/46/50
f 33/47/51 29/44/51 28/43/51
f 30/45/52 32/46/52 28/43/52
f 27/48/53 28/49/53 32/50/53
f 34/51/54 29/44/54 33/47/54
f 26/40/55 35/52/55 4/4/55
f 36/53/56 37/54/56 38/55/56
f 29/44/57 38/56/57 30/45/57
f 38/56/58 39/57/58 31/44/58
f 30/45/59 38/56/59 31/44/59
f 31/44/60 36/58/60 34/51/60
f 37/54/61 40/59/61 38/55/61
f 36/53/62 41/60/62 37/54/62
f 40/59/63 42/61/63 38/55/63
f 41/60/64 42/61/64 40/59/64
f 40/59/65 37/54/65 41/60/65
f 36/58/66 29/44/66 34/51/66
f 29/44/67 36/58/67 38/56/67
f 31/44/68 39/57/68 36/58/68
f 38/55/69 42/61/69 39/62/69
f 39/62/70 42/61/70 41/60/70
f 39/62/71 41/60/71 36/53/71
f 34/51/72 32/46/72 31/44/72
f 34/51/73 33/47/73 32/46/73
f 33/63/74 28/49/74 25/64/74
f 28/49/75 27/48/75 25/64/75
f 35/65/76 27/48/76 32/50/76
f 27/34/77 26/36/77 35/35/77
f 26/40/78 24/38/78 27/41/78
f 27/34/79 35/37/79 25/35/79
f 35/52/80 25/39/80 4/4/80
f 33/63/81 25/64/81 35/65/81
f 33/63/82 35/65/82 32/50/82
f 43/66/83 44/67/83 45/68/83
f 46/69/84 47/70/84 48/71/84
f 46/69/85 49/72/85 47/70/85
f 44/73/86 50/74/86 49/75/86
f 47/76/87 50/74/87 51/77/87
f 52/78/88 44/73/88 43/66/88
f 52/78/89 43/66/89 45/68/89
f 51/77/90 48/79/90 47/76/90
f 53/80/91 48/81/91 51/82/91
f 46/69/92 8/83/92 49/72/92
f 52/78/93 45/68/93 51/77/93
f 8/84/94 45/85/94 44/86/94
f 8/87/95 44/88/95 49/89/95
f 54/90/96 48/81/96 53/80/96
f 55/91/97 56/92/97 57/93/97
f 57/93/98 56/92/98 58/94/98
f 59/95/99 60/96/99 57/93/99
f 61/97/100 62/98/100 63/99/100
f 64/100/101 62/101/101 65/102/101
f 50/74/102 52/78/102 51/77/102
f 50/74/103 44/73/103 52/78/103
f 57/93/104 58/94/104 59/103/104
f 60/96/105 59/95/105 53/104/105
f 58/94/106 66/105/106 59/103/106
f 59/95/107 66/105/107 64/100/107
f 46/106/108 48/81/108 54/90/108
f 53/104/109 59/95/109 54/107/109
f 54/108/110 59/95/110 67/109/110
f 56/92/111 68/110/111 63/99/111
f 66/105/112 58/94/112 56/92/112
f 46/69/113 69/71/113 70/70/113
f 46/69/114 70/70/114 71/72/114
f 72/73/115 71/75/115 73/74/115
f 70/76/116 51/77/116 73/74/116
f 73/74/117 74/78/117 72/73/117
f 74/78/118 45/68/118 75/66/118
f 72/67/119 45/68/119 8/111/119
f 72/67/120 75/66/120 45/68/120
f 51/77/121 70/76/121 69/79/121
f 53/80/122 51/82/122 69/81/122
f 46/69/123 71/72/123 8/83/123
f 74/78/124 51/77/124 45/68/124
f 8/87/125 71/89/125 72/112/125
f 60/96/126 53/104/126 54/107/126
f 55/91/127 76/113/127 56/92/127
f 77/114/128 78/115/128 61/97/128
f 65/116/129 78/117/129 79/118/129
f 73/74/130 51/77/130 74/78/130
f 72/73/131 74/78/131 75/66/131
f 55/91/132 60/119/132 76/113/132
f 55/91/133 57/93/133 60/96/133
f 76/113/134 60/119/134 80/120/134
f 60/96/135 67/121/135 79/118/135
f 46/106/136 54/90/136 69/81/136
f 69/81/137 54/90/137 53/80/137
f 54/122/138 67/121/138 60/96/138
f 56/92/139 80/120/139 77/114/139
f 80/120/140 56/92/140 76/113/140
f 71/123/141 81/124/141 73/125/141
f 82/126/142 71/123/142 70/127/142
f 73/125/143 81/124/143 70/127/143
f 81/124/144 82/126/144 70/127/144
f 83/128/145 71/123/145 82/126/145
f 71/123/146 83/128/146 81/124/146
f 82/129/147 84/130/147 85/131/147
f 81/132/148 84/130/148 82/129/148
f 81/132/149 85/131/149 84/130/149
f 86/133/150 84/134/150 85/135/150
f 84/134/151 87/136/151 85/137/151
f 85/135/152 88/138/152 86/133/152
f 89/139/153 90/140/153 91/141/153
f 87/142/154 84/134/154 86/133/154
f 88/138/155 91/143/155 86/133/155
f 92/144/156 88/138/156 85/137/156
f 85/137/157 87/136/157 92/144/157
f 93/145/158 85/131/158 81/132/158
f 82/129/159 85/131/159 93/145/159
f 82/146/160 93/147/160 83/148/160
f 81/149/161 83/150/161 93/151/161
f 89/152/162 88/138/162 92/144/162
f 92/144/163 87/136/163 89/152/163
f 89/152/164 87/136/164 90/153/164
f 90/154/165 87/136/165 86/133/165
f 91/141/166 90/154/166 86/133/166
f 94/155/167 89/139/167 91/143/167
f 88/138/168 94/155/168 91/143/168
f 94/155/169 88/138/169 89/152/169
f 49/156/170 50/157/170 95/158/170
f 96/159/171 47/160/171 49/156/171
f 50/157/172 47/160/172 95/158/172
f 95/158/173 47/160/173 96/159/173
f 97/161/174 96/159/174 49/156/174
f 49/156/175 95/158/175 97/161/175
f 96/162/176 98/163/176 99/164/176
f 95/165/177 96/162/177 99/164/177
f 95/165/178 99/164/178 98/163/178
f 100/133/179 98/135/179 99/134/179
f 99/134/180 98/137/180 101/136/180
f 98/135/181 100/133/181 102/138/181
f 103/139/182 104/141/182 105/140/182
f 101/142/183 100/133/183 99/134/183
f 102/138/184 100/133/184 104/143/184
f 106/144/185 98/137/185 102/138/185
f 98/137/186 106/144/186 101/136/186
f 107/166/187 95/165/187 98/163/187
f 96/162/188 107/166/188 98/163/188
f 96/146/189 97/148/189 107/147/189
f 95/149/190 107/151/190 97/150/190
f 103/152/191 106/144/191 102/138/191
f 106/144/192 103/152/192 101/136/192
f 103/152/193 105/153/193 101/136/193
f 105/154/194 100/133/194 101/136/194
f 104/141/195 100/133/195 105/154/195
f 108/155/196 104/143/196 103/139/196
f 102/138/197 104/143/197 108/155/197
f 108/155/198 103/152/198 102/138/198
f 68/110/199 61/97/199 63/99/199
f 61/97/200 109/167/200 62/98/200
f 63/99/201 62/98/201 66/105/201
f 67/109/202 64/100/202 65/102/202
f 64/100/203 66/105/203 62/101/203
f 65/102/204 62/101/204 109/168/204
f 59/95/205 64/100/205 67/109/205
f 56/92/206 63/99/206 66/105/206
f 68/110/207 77/114/207 61/97/207
f 77/114/208 80/120/208 78/115/208
f 61/97/209 78/115/209 109/167/209
f 67/121/210 65/116/210 79/118/210
f 65/116/211 109/169/211 78/117/211
f 79/118/212 78/117/212 80/120/212
f 60/96/213 79/118/213 80/120/213
f 56/92/214 77/114/214 68/110/214

