mtllib anim_skel_walk_body_000024.mtl

o msked
usemtl msked.001
s off

v 4.092650 35.214371 -0.296680
v 1.787260 34.795670 -2.835870
v 0.114630 33.472561 -0.208400
v -0.394290 28.277241 1.525300
v 0.488500 31.609001 -3.465780
v 4.091290 32.637669 3.204330
v 4.873950 33.821220 -0.740380
v -0.179940 41.993271 -1.598780
v 5.227040 16.281580 6.599810
v 6.100970 12.829660 7.958120
v 4.564240 12.435360 7.338360
v 4.933050 16.738520 7.452210
v 5.231020 13.476900 9.307380
v 4.080900 16.483000 7.119950
v 3.558530 13.069640 8.690639
v 3.292290 31.865480 1.141250
v 4.574280 1.526320 13.950620
v 6.178440 1.466500 13.580280
v 3.948830 -2.513590 13.596820
v 5.668900 1.778370 14.803820
v 6.499940 -2.530930 12.822670
v 4.775240 -0.355190 21.045078
v 8.696500 -0.227240 20.209789
v -3.685480 35.843597 -0.698110
v -1.173590 36.305630 -2.172860
v -4.678060 33.372780 1.858980
v -4.260200 34.320469 -1.036550
v -4.721230 16.298250 -4.889270
v -4.230070 15.514200 -8.558311
v -5.941800 14.892560 -7.975950
v -4.960910 13.373751 -7.299120
v -4.430360 15.935260 -3.837380
v -3.438980 15.985450 -4.280060
v -3.102710 13.973440 -7.892170
v -2.795860 32.075428 0.131010
v -5.532810 8.975730 -19.733719
v -6.039050 6.396910 -23.314360
v -6.996180 8.923491 -19.438841
v -6.100590 8.364890 -18.940670
v -8.560300 6.531380 -22.640690
v -3.644600 2.631710 -16.753260
v -7.436970 2.835060 -15.746551
v -1.864960 46.707283 4.076770
v -4.908760 39.282791 1.581560
v 0.299150 47.499779 4.536370
v 0.029000 51.583210 -2.696090
v -6.024370 51.622410 0.051140
v -0.650240 52.411652 0.278410
v -5.656390 50.222511 -1.226530
v -4.954140 50.351028 1.302390
v 0.597420 51.127857 0.421210
v -2.840830 49.807411 3.992220
v -0.113990 57.104301 1.707910
v -0.050940 57.469299 -0.478710
v 2.655530 52.706417 4.350770
v 0.357200 57.065777 6.750810
v -1.282800 52.267990 4.790780
v -3.129420 56.945190 4.267110
v -2.600220 56.471382 2.326620
v 2.510600 56.981148 1.960520
v -0.254960 62.757610 6.173650
v -2.583890 62.896652 4.105430
v -1.959560 60.606400 6.826460
v -3.416910 61.423191 1.665310
v -0.920240 63.604588 1.328540
v -3.779700 60.466763 4.586460
v -0.844930 61.662361 -0.040130
v 0.150180 60.691010 7.627860
v 1.820090 52.441540 -0.068930
v 6.486290 52.293869 -2.499940
v 5.129060 50.845291 -2.826750
v 4.598150 39.329941 0.942040
v 6.147180 50.569767 -0.531640
v 4.038310 47.912323 4.024960
v 2.610900 41.327026 3.658300
v 3.256000 57.634621 3.718390
v 1.985560 61.053627 6.363040
v 1.448940 63.353848 3.631610
v 2.013800 62.064892 1.043170
v 3.228810 61.295437 3.785140
v 8.794510 42.455349 -4.191650
v 9.547330 43.260788 -5.802340
v 7.830720 43.103050 -5.427260
v 13.059669 34.191288 -3.522710
v 12.088190 33.941872 -4.568780
v 14.675699 31.879070 -1.509570
v 15.360680 31.697071 -3.061170
v 12.455400 29.680441 -2.563760
v 13.376360 28.893559 -2.122960
v 15.876080 30.919891 -1.784640
v 15.170040 31.330162 -0.670040
v 13.227850 29.579580 -4.232990
v 7.677140 41.607891 -6.092150
v 12.662820 30.037552 -1.660390
v -7.151360 41.668072 -1.289640
v -8.897170 42.361980 -1.761360
v -7.227360 42.380253 -2.543320
v -11.397710 32.917809 0.654830
v -10.610480 33.403519 1.999520
v -10.983339 30.127800 3.672990
v -12.383800 30.699551 3.857400
v -11.607531 28.544880 1.357660
v -11.942801 27.686100 2.264270
v -10.397261 29.297371 3.520630
v -11.968870 28.754749 3.803170
v -13.316140 29.229080 1.388610
v -7.967950 40.438087 -3.216800
v -10.582419 28.584070 1.590230
v -0.642610 64.026329 4.098450

vt 0.041167 0.207596
vt 0.110151 0.210653
vt 0.155860 0.150950
vt 0.155860 0.004599
vt 0.155860 0.116597
vt 0.016826 0.121516
vt 0.041418 0.161189
vt 0.949447 0.134245
vt 0.995856 0.201252
vt 0.949499 0.409452
vt 0.551298 0.441597
vt 0.512470 0.342436
vt 0.575861 0.342435
vt 0.577815 0.441679
vt 0.612137 0.441505
vt 0.706701 0.502779
vt 0.696656 0.011408
vt 0.727269 0.011327
vt 0.645747 0.342436
vt 0.083576 0.100021
vt 0.929942 0.015737
vt 0.937563 0.081772
vt 0.976707 -0.002805
vt 0.541706 0.010011
vt 0.576207 0.008899
vt 0.614144 0.010012
vt 0.986514 0.082171
vt 0.745226 0.025720
vt 0.759970 0.153483
vt 0.893974 0.060016
vt 0.657033 0.011235
vt 0.644583 0.533150
vt 0.661859 0.447959
vt 0.577221 0.401965
vt 0.605389 0.404491
vt 0.544413 0.404514
vt 0.578392 0.404501
vt 0.041816 0.207204
vt 0.110952 0.210261
vt 0.017475 0.121124
vt 0.042068 0.160797
vt 0.903194 0.201252
vt 0.551124 0.441597
vt 0.575687 0.342435
vt 0.512296 0.342436
vt 0.577641 0.441679
vt 0.611963 0.441505
vt 0.706340 0.502779
vt 0.726909 0.011327
vt 0.696296 0.011408
vt 0.645573 0.342436
vt 0.084225 0.099629
vt 0.929963 0.015912
vt 0.976727 -0.002629
vt 0.937584 0.081947
vt 0.541532 0.010012
vt 0.576032 0.008899
vt 0.613969 0.010012
vt 0.986534 0.082346
vt 0.745246 0.025895
vt 0.759991 0.153658
vt 0.893994 0.060191
vt 0.656672 0.011235
vt 0.644015 0.533150
vt 0.661498 0.447959
vt 0.381082 0.518613
vt 0.473854 0.521496
vt 0.487486 0.708873
vt 0.014451 0.867957
vt 0.259309 0.958815
vt 0.064134 0.963664
vt 0.200040 0.895796
vt 0.262305 0.513873
vt 0.313315 0.867634
vt 0.208224 0.890630
vt 0.254415 0.957943
vt 0.481717 0.903440
vt 0.370073 0.709764
vt 0.432103 0.963629
vt 0.836118 0.400333
vt 0.829257 0.200049
vt 0.882028 0.148045
vt 0.017902 0.579199
vt 0.380473 0.519374
vt 0.489377 0.709146
vt 0.475746 0.521769
vt 0.017213 0.579344
vt 0.264196 0.514145
vt 0.202500 0.892108
vt 0.781778 0.385894
vt 0.843708 0.501773
vt 0.780162 0.719667
vt 0.716616 0.501773
vt 0.693215 0.695775
vt 0.686544 0.686130
vt 0.862344 0.686130
vt 0.780162 0.918634
vt 0.727648 0.914313
vt 0.726518 0.864095
vt 0.644622 0.875516
vt 0.727648 0.913360
vt 0.668670 0.934651
vt 0.662812 0.686130
vt 0.774444 0.696650
vt 0.675135 0.851794
vt 0.754605 0.153718
vt 0.774442 0.685255
vt 0.570516 0.685255
vt 0.557177 0.894376
vt 0.780162 0.858665
vt 0.378581 0.519101
vt 0.264520 0.510851
vt 0.867108 0.695776
vt 0.833805 0.864094
vt 0.832675 0.914313
vt 0.876407 0.940368
vt 0.829816 0.915266
vt 0.903910 0.879089
vt 0.886077 0.686130
vt 0.885188 0.851794
vt 0.978370 0.902000
vt 0.970745 0.689067
vt 0.015051 0.437421
vt 0.483254 0.495410
vt 0.019651 0.499739
vt 0.485816 0.465265
vt 0.061328 0.470496
vt 0.456904 0.444276
vt 0.016578 0.361735
vt 0.497541 0.430257
vt 0.497522 0.315677
vt 0.030493 0.438014
vt 0.305714 0.121311
vt 0.311705 0.269102
vt 0.476265 0.265798
vt 0.311331 0.122120
vt 0.478135 0.269445
vt 0.474964 0.122436
vt 0.461620 0.035542
vt 0.280508 0.010562
vt 0.320302 0.079754
vt 0.253177 0.093723
vt 0.315903 0.079819
vt 0.472325 0.121974
vt 0.070278 0.285701
vt 0.920818 0.191822
vt 0.868261 0.170952
vt 0.860894 0.212089
vt 0.752496 0.179666
vt 0.862106 0.210890
vt 0.867519 0.168135
vt 0.459195 0.079729
vt 0.317137 0.081379
vt 0.314453 0.074899
vt 0.488803 0.132862
vt 0.016472 0.437484
vt 0.021071 0.499801
vt 0.484674 0.495472
vt 0.487236 0.465328
vt 0.062748 0.470559
vt 0.458325 0.444339
vt 0.023005 0.360749
vt 0.503948 0.314690
vt 0.503967 0.429270
vt 0.036919 0.437028
vt 0.076705 0.284714
vt 0.780162 0.976831
vt 0.780162 0.974925
vt 0.774444 0.978737

vn -0.388770 0.898273 0.204852
vn 0.928514 -0.362993 -0.078084
vn -0.321495 0.762688 0.561203
vn -0.581454 0.308216 0.752937
vn 0.585247 0.525020 -0.617932
vn 0.808324 0.121930 0.575974
vn 0.415439 -0.240063 -0.877371
vn 0.859890 0.309471 0.405976
vn -0.425638 -0.099359 -0.899422
vn 0.939484 0.301714 0.162294
vn 0.956723 0.128521 0.261083
vn -0.823639 -0.128162 -0.552443
vn 0.697385 -0.716694 -0.001835
vn -0.219148 0.118740 -0.968440
vn 0.429137 -0.398198 -0.810728
vn 0.922381 0.192007 0.335181
vn 0.864472 0.227641 0.448183
vn -0.398029 0.351159 0.847502
vn -0.285843 0.156198 -0.945461
vn -0.986881 0.146926 0.066921
vn 0.937175 0.136241 -0.321155
vn 0.089254 -0.958081 0.272240
vn 0.075356 -0.959957 0.269821
vn -0.827988 -0.291216 -0.479197
vn -0.211825 -0.506723 -0.835681
vn -0.627747 0.311644 0.713310
vn 0.539598 0.841862 0.010129
vn 0.039124 0.943787 0.328232
vn -0.395437 0.884965 0.245901
vn -0.402454 0.424545 0.811044
vn -0.436999 0.430330 0.789840
vn -0.431774 -0.471962 -0.768650
vn 0.454038 -0.336170 -0.825130
vn 0.471905 0.382575 0.794319
vn -0.754149 0.655026 0.046901
vn 0.870936 0.395601 0.291495
vn -0.187573 0.755561 0.627650
vn 0.508771 -0.589833 -0.627096
vn -0.895906 0.120284 0.427650
vn -0.424496 0.309020 0.851064
vn 0.302516 0.632179 0.713326
vn -0.917371 -0.236515 -0.320143
vn 0.297805 0.626131 0.720605
vn 0.377949 0.259541 0.888703
vn -0.520203 0.367577 -0.770893
vn -0.781626 0.074039 0.619337
vn -0.098655 0.231515 -0.967816
vn -0.155152 0.126003 -0.979822
vn -0.402999 0.882480 -0.242529
vn -0.840987 -0.365257 0.399160
vn 0.304955 0.938864 -0.159805
vn -0.940926 0.139772 0.308417
vn -0.966017 -0.030167 0.256712
vn 0.830095 0.516415 -0.210375
vn -0.728010 -0.589063 -0.350722
vn -0.142868 0.812598 -0.565043
vn -0.428103 0.817097 -0.386109
vn -0.629394 -0.689553 0.358301
vn -0.856913 -0.420676 0.297879
vn 0.377131 -0.878470 0.293363
vn -0.106207 0.820762 -0.561311
vn 0.953247 0.164682 -0.253378
vn -0.930991 0.236194 0.278332
vn -0.165314 -0.880158 -0.444964
vn -0.165755 -0.880235 -0.444647
vn 0.820713 0.446259 -0.356768
vn -0.129415 0.862367 -0.489464
vn 0.817276 -0.554055 0.158376
vn -0.143332 0.520753 0.841589
vn 0.252557 0.437470 0.863038
vn 0.489063 0.485884 0.724385
vn 0.406597 -0.763105 0.502343
vn 0.260187 -0.833025 0.488234
vn 0.437520 0.044358 -0.898114
vn -0.448172 0.197831 -0.871782
vn -0.709302 -0.099741 0.697813
vn 0.715350 0.627004 0.308447
vn -0.934122 0.356494 -0.018126
vn 0.020899 0.471992 0.881355
vn -0.155781 -0.425708 -0.891350
vn 0.912849 -0.141486 0.382999
vn 0.404868 -0.256772 0.877582
vn -0.100323 -0.279764 0.954813
vn -0.126790 0.947699 -0.292899
vn -0.331414 0.587016 -0.738632
vn -0.963574 0.002794 0.267429
vn 0.013291 0.707041 0.707048
vn -0.445156 -0.115912 0.887919
vn -0.195408 -0.034781 0.980105
vn -0.051139 0.061182 0.996816
vn -0.347407 -0.236701 0.907348
vn -0.225008 -0.105925 -0.968582
vn 0.389110 0.676816 0.624910
vn 0.655822 -0.586553 0.475239
vn -0.436704 -0.251550 -0.863720
vn -0.993171 0.116303 -0.009221
vn 0.146619 -0.416637 0.897172
vn -0.571767 -0.135140 0.809210
vn -0.010989 -0.508265 -0.861130
vn -0.513689 0.594709 0.618421
vn -0.659142 0.721851 -0.210864
vn -0.092010 0.959513 0.266211
vn -0.785057 0.012401 0.619300
vn -0.912540 -0.377816 -0.156610
vn 0.027977 -0.752794 -0.657662
vn -0.961834 -0.157308 -0.223895
vn -0.966396 -0.183436 -0.180082
vn -0.966963 0.078260 -0.242608
vn 0.207252 -0.965889 -0.155255
vn -0.726648 -0.066070 -0.683826
vn -0.336353 -0.239548 0.910760
vn -0.566885 -0.177627 0.804419
vn -0.098549 0.963811 -0.247703
vn 0.006039 0.214685 -0.976665
vn 0.891505 -0.177509 -0.416783
vn 0.186914 0.722786 0.665314
vn 0.921176 -0.076939 0.381463
vn 0.144332 -0.086171 0.985770
vn -0.610239 -0.565293 0.555025
vn -0.860389 -0.259860 -0.438411
vn 0.457515 -0.095994 0.884005
vn 0.484886 -0.128529 0.865082
vn -0.041739 -0.112684 -0.992754
vn 0.007766 0.749802 0.661617
vn 0.306639 -0.308805 -0.900340
vn -0.030333 -0.985756 -0.165421
vn 0.722796 0.000608 0.691061
vn 0.497217 0.709314 0.499648
vn 0.412738 0.848090 -0.332251
vn 0.177096 0.812299 0.555704
vn 0.718859 -0.193002 0.667826
vn 0.928885 -0.156267 -0.335788
vn -0.042951 -0.488702 -0.871393
vn 0.918676 0.014021 -0.394762
vn 0.367325 -0.130282 -0.920923
vn 0.765301 0.235991 -0.598851
vn 0.931436 0.353625 0.085883
vn 0.695225 0.203744 -0.689312
vn 0.865872 -0.315837 0.387960
vn 0.723510 -0.007212 0.690276
vn -0.846213 -0.422515 0.324660
vn -0.103680 0.310332 -0.944957
vn 0.936773 0.166890 0.307576
vn 0.873682 0.124091 0.470404
vn -0.228135 0.237538 -0.944209
vn -0.809081 -0.420302 0.410774
vn 0.716296 0.103965 -0.690009
vn 0.724534 0.418281 0.547806
vn -0.666397 -0.288275 0.687614
vn -0.739025 0.067111 0.670327
vn 0.605541 0.435362 -0.666168
vn -0.627499 0.286558 0.723968
vn 0.477862 -0.681946 0.553713
vn 0.694633 0.682752 0.226571
vn -0.672499 0.372490 0.639528
vn -0.882074 -0.260651 -0.392435
vn 0.444529 0.047279 -0.894516
vn -0.749687 -0.315801 0.581583
vn 0.213531 -0.070758 -0.974370
vn -0.230446 0.415058 -0.880126
vn -0.817457 -0.161855 0.552781
vn -0.572039 -0.791023 -0.216918
vn 0.748031 -0.613864 -0.252231
vn 0.557324 -0.589983 -0.584218
vn 0.639150 0.743977 0.194896
vn 0.636560 0.761358 0.122984
vn -0.125632 -0.438237 0.890036
vn -0.353668 0.894792 -0.272517
vn -0.698660 -0.595884 0.395977
vn 0.952527 -0.164573 -0.256139
vn -0.733882 0.342483 -0.586620
vn -0.760605 -0.001332 0.649214
vn -0.294592 -0.094729 0.950916
vn -0.414706 0.230866 -0.880182
vn 0.973360 -0.168960 -0.154996
vn -0.862250 0.327206 0.386602
vn -0.087624 0.399798 0.912405
vn 0.825164 -0.470057 -0.313292
vn 0.866240 -0.301958 -0.398057
vn -0.746071 0.632435 0.208336
vn 0.974841 -0.080201 -0.207974
vn 0.359993 -0.763440 0.536250
vn 0.281902 0.410850 0.867026
vn 0.634329 0.547772 -0.545502
vn -0.079688 -0.154455 -0.984781
vn -0.881522 0.469103 0.053498
vn 0.888233 -0.450752 -0.088686
vn -0.802874 0.060855 -0.593035
vn -0.386678 0.430302 -0.815672
vn 0.934845 -0.281389 -0.216528
vn -0.271787 -0.646478 -0.712880
vn -0.763524 -0.385600 0.518019
vn -0.968989 -0.210353 0.129658
vn 0.130642 0.000224 0.991430
vn 0.191667 -0.044619 0.980445
vn 0.611380 -0.759555 0.222016
vn 0.043616 0.935753 -0.349950
vn 0.174278 -0.746257 -0.642438
vn -0.324834 0.500852 0.802266
vn -0.425543 0.734530 0.528563
vn -0.704891 0.454674 0.544426
vn -0.515322 0.480217 -0.709813
vn -0.893888 0.446897 0.035304
vn -0.501535 0.861349 -0.080877
vn -0.528930 -0.197464 -0.825374
vn -0.676890 -0.455272 0.578400
vn 0.380960 0.580870 0.719347
vn 0.682864 0.619357 0.387420
vn 0.362202 0.823835 0.436010
vn 0.220677 0.567536 -0.793224
vn 0.266749 0.948448 -0.171145
vn 0.753047 0.639646 -0.154187
vn 0.915901 0.017138 -0.401038
vn 0.581361 -0.159812 0.797797

f 1/1/1 2/2/1 3/3/1
f 4/4/2 5/5/2 2/2/2
f 6/6/3 1/1/3 3/3/3
f 6/6/4 3/3/4 4/4/4
f 2/2/5 1/1/5 7/7/5
f 3/8/6 2/9/6 8/10/6
f 9/11/7 10/12/7 11/13/7
f 10/12/8 12/14/8 13/13/8
f 14/15/9 9/11/9 11/13/9
f 10/12/10 9/11/10 12/14/10
f 7/16/11 12/17/11 9/18/11
f 15/19/12 14/15/12 11/13/12
f 6/6/13 4/4/13 16/20/13
f 17/21/14 18/22/14 19/23/14
f 11/13/15 10/12/15 18/24/15
f 18/24/16 13/13/16 20/25/16
f 10/12/17 13/13/17 18/24/17
f 13/13/18 15/19/18 17/26/18
f 19/23/19 18/22/19 21/27/19
f 17/21/20 19/23/20 22/28/20
f 21/27/21 18/22/21 23/29/21
f 22/28/22 21/27/22 23/29/22
f 21/27/23 22/28/23 19/23/23
f 17/26/24 15/19/24 11/13/24
f 11/13/25 18/24/25 17/26/25
f 13/13/26 17/26/26 20/25/26
f 18/22/27 20/30/27 23/29/27
f 20/30/28 22/28/28 23/29/28
f 20/30/29 17/21/29 22/28/29
f 15/19/30 13/13/30 12/14/30
f 15/19/31 12/14/31 14/15/31
f 14/31/32 2/32/32 9/18/32
f 9/18/33 2/32/33 7/16/33
f 16/33/34 12/17/34 7/16/34
f 7/34/35 16/35/35 6/36/35
f 7/7/36 1/1/36 6/6/36
f 7/34/37 2/35/37 16/37/37
f 16/20/38 4/4/38 2/2/38
f 14/31/39 16/33/39 2/32/39
f 14/31/40 12/17/40 16/33/40
f 24/38/41 3/3/41 25/39/41
f 4/4/42 25/39/42 5/5/42
f 26/40/43 3/3/43 24/38/43
f 26/40/44 4/4/44 3/3/44
f 27/41/45 24/38/45 25/39/45
f 3/8/46 8/10/46 25/42/46
f 25/39/47 2/2/47 5/5/47
f 2/9/48 25/42/48 8/10/48
f 28/43/49 29/44/49 30/45/49
f 30/45/50 31/44/50 32/46/50
f 33/47/51 29/44/51 28/43/51
f 30/45/52 32/46/52 28/43/52
f 27/48/53 28/49/53 32/50/53
f 34/51/54 29/44/54 33/47/54
f 26/40/55 35/52/55 4/4/55
f 36/53/56 37/54/56 38/55/56
f 29/44/57 38/56/57 30/45/57
f 38/56/58 39/57/58 31/44/58
f 30/45/59 38/56/59 31/44/59
f 31/44/60 36/58/60 34/51/60
f 37/54/61 40/59/61 38/55/61
f 36/53/62 41/60/62 37/54/62
f 40/59/63 42/61/63 38/55/63
f 41/60/64 42/61/64 40/59/64
f 40/59/65 37/54/65 41/60/65
f 36/58/66 29/44/66 34/51/66
f 29/44/67 36/58/67 38/56/67
f 31/44/68 39/57/68 36/58/68
f 38/55/69 42/61/69 39/62/69
f 39/62/70 42/61/70 41/60/70
f 39/62/71 41/60/71 36/53/71
f 34/51/72 32/46/72 31/44/72
f 34/51/73 33/47/73 32/46/73
f 33/63/74 28/49/74 25/64/74
f 28/49/75 27/48/75 25/64/75
f 35/65/76 27/48/76 32/50/76
f 27/34/77 26/36/77 35/35/77
f 26/40/78 24/38/78 27/41/78
f 27/34/79 35/37/79 25/35/79
f 35/52/80 25/39/80 4/4/80
f 33/63/81 25/64/81 35/65/81
f 33/63/82 35/65/82 32/50/82
f 43/66/83 44/67/83 45/68/83
f 46/69/84 47/70/84 48/71/84
f 46/69/85 49/72/85 47/70/85
f 44/73/86 50/74/86 49/75/86
f 47/76/87 50/74/87 51/77/87
f 52/78/88 44/73/88 43/66/88
f 52/78/89 43/66/89 45/68/89
f 51/77/90 48/79/90 47/76/90
f 53/80/91 48/81/91 51/82/91
f 46/69/92 8/83/92 49/72/92
f 52/78/93 45/68/93 51/77/93
f 8/84/94 45/85/94 44/86/94
f 8/87/95 44/88/95 49/89/95
f 54/90/96 48/81/96 53/80/96
f 55/91/97 56/92/97 57/93/97
f 57/93/98 56/92/98 58/94/98
f 59/95/99 60/96/99 57/93/99
f 61/97/100 62/98/100 63/99/100
f 64/100/101 62/101/101 65/102/101
f 50/74/102 52/78/102 51/77/102
f 50/74/103 44/73/103 52/78/103
f 57/93/104 58/94/104 59/103/104
f 60/96/105 59/95/105 53/104/105
f 58/94/106 66/105/106 59/103/106
f 59/95/107 66/105/107 64/100/107
f 46/106/108 48/81/108 54/90/108
f 53/104/109 59/95/109 54/107/109
f 54/108/110 59/95/110 67/109/110
f 56/92/111 68/110/111 63/99/111
f 66/105/112 58/94/112 56/92/112
f 46/69/113 69/71/113 70/70/113
f 46/69/114 70/70/114 71/72/114
f 72/73/115 71/75/115 73/74/115
f 70/76/116 51/77/116 73/74/116
f 73/74/117 74/78/117 72/73/117
f 74/78/118 45/68/118 75/66/118
f 72/67/119 45/68/119 8/111/119
f 72/67/120 75/66/120 45/68/120
f 51/77/121 70/76/121 69/79/121
f 53/80/122 51/82/122 69/81/122
f 46/69/123 71/72/123 8/83/123
f 74/78/124 51/77/124 45/68/124
f 8/87/125 71/89/125 72/112/125
f 60/96/126 53/104/126 54/107/126
f 55/91/127 76/113/127 56/92/127
f 77/114/128 78/115/128 61/97/128
f 65/116/129 78/117/129 79/118/129
f 73/74/130 51/77/130 74/78/130
f 72/73/131 74/78/131 75/66/131
f 55/91/132 60/119/132 76/113/132
f 55/91/133 57/93/133 60/96/133
f 76/113/134 60/119/134 80/120/134
f 60/96/135 67/121/135 79/118/135
f 46/106/136 54/90/136 69/81/136
f 69/81/137 54/90/137 53/80/137
f 54/122/138 67/121/138 60/96/138
f 56/92/139 80/120/139 77/114/139
f 80/120/140 56/92/140 76/113/140
f 71/123/141 81/124/141 73/125/141
f 82/126/142 71/123/142 70/127/142
f 73/125/143 81/124/143 70/127/143
f 81/124/144 82/126/144 70/127/144
f 83/128/145 71/123/145 82/126/145
f 71/123/146 83/128/146 81/124/146
f 82/129/147 84/130/147 85/131/147
f 81/132/148 84/130/148 82/129/148
f 81/132/149 85/131/149 84/130/149
f 86/133/150 84/134/150 85/135/150
f 84/134/151 87/136/151 85/137/151
f 85/135/152 88/138/152 86/133/152
f 89/139/153 90/140/153 91/141/153
f 87/142/154 84/134/154 86/133/154
f 88/138/155 91/143/155 86/133/155
f 92/144/156 88/138/156 85/137/156
f 85/137/157 87/136/157 92/144/157
f 93/145/158 85/131/158 81/132/158
f 82/129/159 85/131/159 93/145/159
f 82/146/160 93/147/160 83/148/160
f 81/149/161 83/150/161 93/151/161
f 89/152/162 88/138/162 92/144/162
f 92/144/163 87/136/163 89/152/163
f 89/152/164 87/136/164 90/153/164
f 90/154/165 87/136/165 86/133/165
f 91/141/166 90/154/166 86/133/166
f 94/155/167 89/139/167 91/143/167
f 88/138/168 94/155/168 91/143/168
f 94/155/169 88/138/169 89/152/169
f 49/156/170 50/157/170 95/158/170
f 96/159/171 47/160/171 49/156/171
f 50/157/172 47/160/172 95/158/172
f 95/158/173 47/160/173 96/159/173
f 97/161/174 96/159/174 49/156/174
f 49/156/175 95/158/175 97/161/175
f 96/162/176 98/163/176 99/164/176
f 95/165/177 96/162/177 99/164/177
f 95/165/178 99/164/178 98/163/178
f 100/133/179 98/135/179 99/134/179
f 99/134/180 98/137/180 101/136/180
f 98/135/181 100/133/181 102/138/181
f 103/139/182 104/141/182 105/140/182
f 101/142/183 100/133/183 99/134/183
f 102/138/184 100/133/184 104/143/184
f 106/144/185 98/137/185 102/138/185
f 98/137/186 106/144/186 101/136/186
f 107/166/187 95/165/187 98/163/187
f 96/162/188 107/166/188 98/163/188
f 96/146/189 97/148/189 107/147/189
f 95/149/190 107/151/190 97/150/190
f 103/152/191 106/144/191 102/138/191
f 106/144/192 103/152/192 101/136/192
f 103/152/193 105/153/193 101/136/193
f 105/154/194 100/133/194 101/136/194
f 104/141/195 100/133/195 105/154/195
f 108/155/196 104/143/196 103/139/196
f 102/138/197 104/143/197 108/155/197
f 108/155/198 103/152/198 102/138/198
f 68/110/199 61/97/199 63/99/199
f 61/97/200 109/167/200 62/98/200
f 63/99/201 62/98/201 66/105/201
f 67/109/202 64/100/202 65/102/202
f 64/100/203 66/105/203 62/101/203
f 65/102/204 62/101/204 109/168/204
f 59/95/205 64/100/205 67/109/205
f 56/92/206 63/99/206 66/105/206
f 68/110/207 77/114/207 61/97/207
f 77/114/208 80/120/208 78/115/208
f 61/97/209 78/115/209 109/167/209
f 67/121/210 65/116/210 79/118/210
f 65/116/211 109/169/211 78/117/211
f 79/118/212 78/117/212 80/120/212
f 60/96/213 79/118/213 80/120/213
f 56/92/214 77/114/214 68/110/214

