mtllib anim_barb_run2_body_000013.mtl

o fat
usemtl fat.001
s off

v -0.359690 36.569820 -2.160580
v 1.860240 37.156109 7.026690
v 0.621340 36.448841 2.107070
v 0.410170 58.362881 -7.893790
v 10.753250 64.047661 -4.482000
v 2.812830 54.595024 -6.579310
v -0.362600 50.375717 -4.471650
v 10.016650 60.251343 -1.131730
v 7.742940 56.340919 -0.581510
v 6.919220 50.569271 -0.370370
v 4.142630 50.262062 -4.490710
v 6.535110 55.398289 -5.671160
v 9.419880 32.803181 3.001990
v 9.557440 37.936359 -1.716280
v 10.574189 37.400669 -2.439930
v 7.137220 34.930111 4.146770
v 3.993900 35.907063 8.004780
v 3.917310 38.625931 -6.426400
v 3.562180 38.650391 -4.938930
v 0.417280 37.208961 -3.548790
v -0.301650 33.306763 1.127810
v 0.201120 64.021980 -7.764780
v 0.170300 66.012741 -7.859350
v 0.020510 57.717873 6.342170
v 4.989570 57.751869 6.089850
v 5.847640 61.985512 7.713099
v 7.403010 62.784447 2.301780
v 5.646860 64.751747 6.418780
v 10.647970 64.855484 3.703940
v 4.497020 50.777611 4.528140
v 1.102870 50.543171 5.792500
v 0.166440 63.322731 7.647500
v 5.614570 68.855606 -4.098060
v 12.421660 65.322563 -3.029000
v 12.094311 66.167450 0.698870
v 2.226180 69.188393 3.975860
v 5.560900 70.190727 -0.071520
v -0.579280 68.383530 4.224340
v 2.663080 74.598831 0.503100
v 3.526850 72.138222 -2.350770
v 0.430160 72.252213 -3.544650
v 0.177120 75.217171 -0.758810
v 0.475420 70.110748 -6.070420
v 0.489180 46.227280 6.237810
v 5.364230 46.204948 5.637480
v 8.418850 45.705410 0.472170
v 4.993240 44.963360 -4.695600
v -0.188040 44.857578 -5.399670
v 11.467890 64.307442 3.539450
v 11.978960 62.120438 -3.944340
v 13.101540 65.188072 1.271520
v 13.450750 64.492851 -1.924850
v 9.948300 61.651787 4.186330
v 2.581520 74.196899 6.005070
v 1.180830 72.732132 7.782710
v 2.264600 69.811035 4.983280
v 1.639600 68.798569 6.791710
v 0.698310 71.362511 7.766410
v 1.643460 74.695702 7.527250
v -0.144470 74.573563 7.796679
v 3.177320 75.453430 3.258660
v 0.535690 78.574127 7.802100
v -0.763210 78.532471 8.073080
v 1.701340 75.984261 8.114380
v 2.256590 77.814896 7.041110
v 1.223440 79.837715 5.056910
v -0.414440 79.827309 4.862080
v 0.269850 72.753586 8.306370
v -0.765430 75.327446 8.061980
v -0.900690 73.337082 9.292700
v -0.835060 72.735321 8.680059
v -0.843340 71.153999 8.741070
v 0.535200 68.380760 8.390950
v -0.861440 68.369278 8.880970
v 3.025130 77.791222 3.219640
v 2.543030 79.016029 2.622370
v -0.045170 79.230377 1.442960
v 13.685330 63.691181 3.620610
v 14.802560 63.972160 0.136940
v 10.250170 53.266830 -1.899160
v 11.473989 55.962082 1.069940
v 13.538610 60.959839 -3.108500
v 10.466730 51.171570 1.284050
v 10.787081 48.187210 6.164090
v 8.449861 51.030357 5.185530
v 12.683670 49.302670 2.383200
v 14.714299 51.137863 2.854130
v 12.899680 49.839157 7.289980
v 14.119240 52.536476 3.732240
v 12.677450 52.864361 7.357580
v 11.561990 52.683441 3.861270
v 10.356421 54.146152 6.294310
v 13.332180 50.227753 0.250830
v 13.123831 49.749733 1.207850
v 16.421680 53.884922 0.061260
v 15.410310 55.780331 1.707980
v 11.917900 53.519688 2.676700
v 13.717609 51.175419 -1.951460
v 7.412100 49.071991 12.456760
v 6.447470 50.653019 12.052489
v 8.749650 49.537056 13.111600
v 8.841630 51.424469 13.157789
v 7.587480 52.345051 12.585850
v 5.414250 54.697510 16.696419
v 4.923440 53.917580 16.690010
v 5.752600 53.075863 16.117081
v 6.684740 53.279572 15.963100
v 6.973090 52.271561 17.295910
v 5.528780 54.082718 14.300981
v 6.256910 54.073181 15.493111
v 4.509330 54.881512 16.098221
v 4.509900 54.828110 17.850420
v 3.868630 54.898510 17.307850
v 5.623040 52.366028 19.073290
v 5.081240 48.029091 15.806990
v 4.231030 47.965488 17.584459
v 3.161630 48.451019 20.262070
v 4.941550 52.910820 18.122150
v 5.163960 48.160671 18.036280
v 6.283490 48.118912 16.438290
v 3.592650 52.651348 20.998640
v 2.637010 26.091040 -6.189160
v 2.542480 27.634960 -15.292160
v 1.298020 22.062769 -12.736681
v 8.201150 27.241030 -8.226069
v 8.050030 24.142910 -15.205680
v 4.542680 29.405210 -8.702210
v 6.271920 23.075260 -7.532170
v 5.615070 19.658819 -11.958740
v 6.666910 23.861160 -5.691650
v 7.276850 25.552149 -4.456130
v 9.638790 30.447321 -6.690380
v 7.404740 29.379230 -0.152350
v 3.322520 18.391750 -23.861870
v 3.424080 18.212940 -26.751179
v 0.552380 20.181292 -25.375210
v 1.965850 15.549001 -24.788750
v -0.092840 17.612850 -22.919741
v -1.374690 17.190300 -25.638279
v -1.969880 19.560911 -29.528849
v 1.010180 20.195179 -30.199360
v -0.821610 11.851370 -29.097860
v 4.899070 13.157710 -30.925550
v 2.312900 8.920250 -29.506020
v 4.239250 9.125050 -31.885309
v 0.395160 7.837610 -31.401690
v -7.176530 63.084888 -8.180610
v -1.868530 54.563232 -6.758210
v -9.127940 60.395580 -3.514890
v -7.268310 56.240349 -1.083040
v -4.956670 50.403881 -2.878050
v -6.374790 50.426388 1.839650
v -5.683030 55.315472 -6.111420
v -9.208460 37.950203 1.755550
v -6.995830 43.992500 4.862700
v -10.342530 37.396248 2.095740
v -4.785350 43.676182 3.293010
v -5.536230 33.384060 -0.677930
v -5.002590 35.254761 -1.753370
v -1.499350 35.545910 -2.131080
v -4.925720 57.685410 5.803780
v -5.544910 61.909489 7.650180
v -10.743441 62.008648 1.493050
v -5.299910 64.676865 6.410640
v -10.783979 66.810112 -1.148450
v -2.454760 50.428982 5.885590
v -9.270820 64.468460 -7.661970
v -4.053690 68.811981 -5.459661
v -10.934910 66.715088 -4.185530
v -3.125290 69.158966 3.091270
v -5.148580 70.185837 -1.308390
v -2.505460 74.598015 0.011250
v -2.599840 72.126984 -3.151230
v -3.837170 45.825272 6.503090
v -7.974770 45.490833 1.897630
v -5.576800 45.007820 -3.700200
v -12.097589 65.506355 -1.609970
v -8.800270 61.195038 -7.455670
v -12.148180 65.700546 -4.169520
v -10.843320 63.828392 -6.586170
v -10.570540 63.009293 -0.172320
v -2.612380 72.736168 7.372330
v -3.597380 74.203491 5.336580
v -3.755550 69.817497 3.823920
v -2.856860 68.803360 6.305240
v -2.140420 71.365524 7.459290
v -1.316860 74.574806 7.669860
v -3.005530 74.700661 7.024260
v -3.589360 75.460640 2.526570
v -1.974020 78.576797 7.530560
v -3.184930 75.989479 7.585740
v -3.493930 77.821030 6.418950
v -2.056070 79.841217 4.702120
v -1.834430 72.755821 8.078700
v -2.120930 68.383591 8.103570
v -3.427430 77.798088 2.521570
v -2.826160 79.021744 2.041470
v -13.754040 64.441917 -2.119610
v -13.083930 63.621986 -5.350710
v -11.073340 60.479897 2.992440
v -10.177111 57.436401 0.332920
v -10.339621 60.132271 -6.498030
v -12.077950 49.254421 5.320960
v -10.620570 54.115273 2.956180
v -8.747280 50.835663 4.368930
v -12.983951 52.036812 3.471850
v -14.250760 54.522091 4.315840
v -12.533780 50.815941 7.731690
v -13.232010 55.655190 5.516250
v -10.548860 52.916443 8.656290
v -8.174470 53.396931 7.141300
v -10.901800 55.189472 5.696170
v -13.627769 54.017757 1.678240
v -13.398180 53.149078 2.454760
v -15.671169 57.971020 0.997830
v -14.568380 60.250351 2.900240
v -11.370310 57.146931 4.015480
v -13.573299 55.132324 -0.524450
v -7.747940 45.211929 9.395200
v -6.128820 46.142532 9.085051
v -8.356600 45.823132 10.697360
v -7.213280 47.238289 11.359420
v -5.844840 47.606293 10.572680
v -2.043170 45.365829 13.230949
v -1.919220 46.152481 13.694010
v -3.306530 45.443741 12.885931
v -3.910930 46.109573 13.244639
v -4.504390 44.834480 14.197850
v -3.178640 46.718613 12.888620
v -2.851150 46.990681 11.558209
v -1.238910 46.167877 12.829100
v -0.934590 45.229469 14.281170
v -0.511820 45.256672 13.552480
v -3.087730 43.356937 15.089960
v -5.099870 40.307430 11.899710
v -6.039090 41.661640 10.825439
v -3.472260 38.777809 13.792749
v -2.414670 43.915703 14.140890
v -5.591840 40.654140 12.765861
v -6.766010 41.967640 11.934410
v -1.009870 41.620079 15.849180
v -5.228500 26.475410 12.939579
v -1.647910 35.254040 14.112411
v -1.976300 28.177240 17.323641
v -9.447650 28.239191 17.050499
v -7.633440 34.626579 13.873920
v -4.458400 33.424271 11.369970
v -5.214000 34.859951 17.432890
v -5.431340 29.847410 20.418999
v -5.172890 36.594379 16.699070
v -4.951440 38.119667 14.707580
v -9.056860 36.604080 11.282500
v -5.277720 41.444122 8.843161
v -8.612910 14.844609 20.489071
v -7.511570 17.577620 19.676620
v -6.196609 14.673580 17.571840
v -5.829530 16.549709 22.293070
v -3.678870 14.118680 20.197201
v -3.926840 17.115520 19.483980
v -5.152210 9.789180 18.759741
v -8.225821 10.242350 18.944309
v -3.547430 12.486580 26.502111
v -9.462130 13.387840 27.037840
v -5.024130 15.430070 29.402311
v -7.452120 14.169180 30.791130
v -3.429100 13.475630 30.844330

vt 0.550479 0.485338
vt 0.414517 0.485338
vt 0.489174 0.497239
vt 0.490853 0.675485
vt 0.356970 0.710738
vt 0.458986 0.602657
vt 0.458693 0.603155
vt 0.491001 0.506534
vt 0.357039 0.710738
vt 0.272881 0.708251
vt 0.307767 0.663467
vt 0.329118 0.504113
vt 0.420682 0.504388
vt 0.307693 0.663467
vt 0.420389 0.504181
vt 0.390374 0.619683
vt 0.389206 0.622726
vt 0.390855 0.620128
vt 0.309151 0.663075
vt 0.578845 0.971377
vt 0.529882 0.993867
vt 0.501054 0.950636
vt 0.597833 0.993868
vt 0.684209 0.993870
vt 0.691613 0.940228
vt 0.584242 0.936155
vt 0.602549 0.993867
vt 0.689094 0.993870
vt 0.694409 0.971380
vt 0.730001 0.975635
vt 0.490853 0.781888
vt 0.490853 0.820915
vt 0.240556 0.660920
vt 0.133663 0.660928
vt 0.131880 0.753091
vt 0.060606 0.782384
vt 0.055577 0.663688
vt 0.136145 0.808744
vt 0.060014 0.783494
vt 0.058190 0.859642
vt 0.160773 0.512959
vt 0.067037 0.515196
vt 0.240700 0.512959
vt 0.131877 0.752996
vt 0.240556 0.781375
vt 0.390182 0.870896
vt 0.298691 0.847983
vt 0.294173 0.886121
vt 0.181129 0.899551
vt 0.052544 0.886601
vt 0.145152 0.921474
vt 0.235241 0.891030
vt 0.142740 0.921054
vt 0.172936 0.966074
vt 0.456563 0.999059
vt 0.389917 0.922986
vt 0.429989 0.941889
vt 0.491140 0.942697
vt 0.490646 0.999330
vt 0.490853 0.898039
vt 0.701416 0.118225
vt 0.813217 0.120956
vt 0.790107 0.184348
vt 0.877923 0.002315
vt 0.872775 0.120438
vt 0.505869 0.118716
vt 0.564263 0.119120
vt 0.507564 0.183764
vt 0.697589 0.180917
vt 0.580429 0.182675
vt 0.710756 0.001536
vt 0.701372 0.182427
vt 0.812168 0.002315
vt 0.857243 0.184348
vt 0.697567 0.116528
vt 0.503935 0.000692
vt 0.561277 0.000692
vt 0.688827 -0.000098
vt 0.002866 0.854679
vt 0.027518 0.706813
vt 0.061197 0.782654
vt 0.055608 0.663958
vt 0.251604 0.781884
vt 0.357109 0.710738
vt 0.243886 0.876138
vt 0.247300 0.848527
vt -0.000514 0.880403
vt 0.006948 0.782948
vt 0.674684 0.829607
vt 0.705811 0.784366
vt 0.654033 0.662928
vt 0.703232 0.671848
vt 0.720473 0.730776
vt 0.697736 0.853617
vt 0.729837 0.853035
vt 0.623758 0.856571
vt 0.587609 0.811448
vt 0.658187 0.605708
vt 0.748523 0.593788
vt 0.716351 0.931575
vt 0.747491 0.935506
vt 0.695349 0.885675
vt 0.676247 0.904603
vt 0.649719 0.961956
vt 0.745560 1.001324
vt 0.725611 0.781438
vt 0.747491 0.878462
vt 0.747491 0.808438
vt 0.720379 0.731031
vt 0.747491 0.790807
vt 0.720762 0.730332
vt 0.748639 0.732530
vt 0.746944 0.628012
vt 0.703659 0.671442
vt 0.731857 0.666086
vt 0.747085 0.666819
vt 0.703186 0.671176
vt 0.611291 0.885598
vt 0.604148 0.909350
vt 0.550618 0.823662
vt 0.550618 0.934468
vt 0.625864 0.557513
vt 0.571978 0.557920
vt 0.578607 0.510287
vt 0.669444 0.510287
vt 0.756032 0.560223
vt 0.679695 0.557918
vt 0.877240 0.461159
vt 0.992418 0.461159
vt 0.944262 0.560223
vt 0.756457 0.510287
vt 0.806202 0.560223
vt 0.498275 0.560223
vt 0.875566 0.382888
vt 0.758260 0.308662
vt 0.875912 0.308662
vt 0.759996 0.360654
vt 0.669163 0.382888
vt 0.671223 0.308662
vt 0.584325 0.382888
vt 0.577057 0.308662
vt 0.498223 0.363687
vt 0.498247 0.308662
vt 0.992597 0.308662
vt 0.992439 0.363687
vt 0.759483 0.410364
vt 0.758924 0.382888
vt 0.665903 0.461159
vt 0.580075 0.461159
vt 0.498223 0.402657
vt 0.992438 0.402657
vt 0.760539 0.449273
vt 0.498220 0.461159
vt 0.875438 0.575163
vt 0.762705 0.196431
vt 0.858161 0.196355
vt 0.690657 0.196417
vt 0.588027 0.196417
vt 0.498144 0.196431
vt 0.991918 0.196431
vt 0.375723 0.009258
vt 0.380090 0.017573
vt 0.356438 0.030356
vt 0.342839 0.029458
vt 0.369327 0.043627
vt 0.316032 0.012201
vt 0.336848 0.019568
vt 0.249292 0.041099
vt 0.371147 0.002582
vt 0.416197 0.004791
vt 0.408124 0.000758
vt 0.128136 0.016613
vt 0.154876 0.002573
vt 0.119423 0.002194
vt 0.160447 0.001473
vt 0.065726 0.014292
vt 0.105093 0.028910
vt 0.000825 0.069213
vt 0.000703 0.039244
vt 0.249314 0.055441
vt 0.429228 0.045736
vt 0.102506 0.115410
vt 0.153549 0.117195
vt 0.189513 0.114692
vt 0.228429 0.109580
vt 0.194639 0.033982
vt 0.406548 0.108121
vt 0.355355 0.108206
vt 0.448349 0.035630
vt 0.498209 0.039288
vt 0.461840 0.047992
vt 0.483032 0.114221
vt 0.406174 0.120334
vt 0.355217 0.119080
vt 0.243215 0.037501
vt 0.249314 0.089732
vt 0.000703 0.095058
vt 0.249292 0.105039
vt 0.160984 0.032072
vt 0.413806 0.033644
vt 0.442212 0.108407
vt 0.443088 0.117732
vt 0.023914 0.327327
vt 0.104127 0.227894
vt 0.000784 0.227894
vt 0.216171 0.327327
vt 0.216985 0.228421
vt 0.105699 0.228145
vt 0.104981 0.327662
vt 0.217575 0.327327
vt 0.351490 0.301452
vt 0.217290 0.227894
vt 0.351571 0.227894
vt 0.352420 0.301452
vt 0.489174 0.227894
vt 0.352342 0.227894
vt 0.471690 0.333380
vt 0.351597 0.328057
vt 0.217345 0.328075
vt 0.352312 0.363299
vt 0.470864 0.334174
vt 0.352330 0.328057
vt 0.216660 0.380224
vt 0.216104 0.328075
vt 0.104983 0.328371
vt 0.217232 0.380224
vt 0.351611 0.363299
vt 0.351459 0.420971
vt 0.352499 0.420971
vt 0.351589 0.497239
vt 0.229465 0.497239
vt 0.352627 0.497239
vt 0.229583 0.497239
vt 0.133020 0.497239
vt 0.072972 0.497239
vt 0.025422 0.328212
vt 0.002386 0.497239
vt 0.216130 0.152222
vt 0.223982 0.125749
vt 0.105883 0.155747
vt 0.351732 0.147623
vt 0.223132 0.128232
vt 0.218721 0.149411
vt 0.469070 0.149411
vt 0.483427 0.127273
vt 0.352306 0.146326
vt 0.017963 0.152222
vt 0.104256 0.155747
vt 0.009616 0.131504
vt 0.104128 0.227914
vt 0.000790 0.227921
vt 0.216984 0.228396
vt 0.351571 0.227971
vt 0.217291 0.227882
vt 0.352342 0.227879
vt 0.489111 0.227891
vt 0.948232 0.041698
vt 0.989968 0.003451
vt 0.971575 0.059997
vt 0.909211 0.004273
vt 0.996004 0.120663
vt 0.925604 0.058708
vt 0.885225 0.122889
vt 0.516483 0.798440
vt 0.501430 0.685191
vt 0.597947 0.686709
vt 0.594444 0.793024
vt 0.950876 0.082499
vt 0.943924 0.157220
vt 0.507177 0.624822
vt 0.600053 0.622523
vt 0.901715 0.182549
vt 0.982420 0.184037
vt 0.730212 0.975635
vt 0.685579 0.991654
vt 0.692830 0.969164

vn 0.966382 -0.123257 -0.225642
vn 0.358660 -0.095249 -0.928596
vn -0.099491 -0.383727 -0.918071
vn 0.766581 -0.502060 -0.400360
vn 0.826093 -0.137887 -0.546404
vn -0.014849 -0.437862 -0.898920
vn 0.291653 -0.341226 -0.893590
vn 0.897741 -0.419196 -0.135407
vn 0.232879 0.020106 -0.972298
vn 0.887325 -0.442865 -0.128551
vn -0.661488 -0.497829 -0.560892
vn -0.704549 -0.469916 -0.531780
vn -0.718843 -0.528243 -0.451912
vn -0.313043 -0.918827 0.240337
vn -0.112658 -0.993578 -0.010559
vn 0.234439 0.728385 0.643812
vn 0.458176 -0.880189 0.123863
vn 0.962794 -0.261061 -0.069822
vn 0.296902 -0.040726 -0.954039
vn 0.049687 -0.366326 0.929159
vn 0.906118 -0.132033 0.401892
vn 0.294337 -0.807389 0.511361
vn 0.050963 -0.221655 0.973792
vn 0.881890 -0.161469 0.442942
vn 0.350163 -0.018922 0.936498
vn -0.064132 -0.224773 0.972298
vn 0.362993 0.452986 -0.814272
vn 0.296826 0.032722 -0.954371
vn 0.933690 -0.276486 0.227548
vn 0.474162 0.866723 -0.154798
vn 0.090223 0.427436 0.899532
vn 0.346078 0.436214 -0.830631
vn 0.931674 0.207238 0.298388
vn 0.353976 0.645545 0.676737
vn 0.401816 0.752441 0.521897
vn 0.038003 0.563705 0.825101
vn -0.050625 0.451487 0.890840
vn 0.674578 0.359403 0.644805
vn 0.797272 0.555041 -0.237250
vn 0.471340 0.624948 -0.622317
vn 0.254323 0.769195 -0.586225
vn 0.404133 0.752906 0.519432
vn 0.528316 0.807979 -0.260869
vn 0.780687 0.596198 -0.187283
vn 0.408725 0.617609 -0.671940
vn 0.266388 0.737538 -0.620544
vn 0.408158 0.339540 -0.847420
vn 0.119320 0.255393 0.959446
vn 0.861784 0.046532 0.505136
vn 0.813323 0.153552 -0.561184
vn -0.003266 0.038116 -0.999268
vn 0.120505 0.207148 0.970860
vn 0.345800 0.047519 0.937104
vn 0.908728 0.203316 0.364522
vn 0.825278 0.333407 0.455803
vn 0.868515 0.266156 0.418141
vn 0.814294 0.152378 -0.560095
vn 0.129349 0.168432 -0.977189
vn 0.742894 0.384863 -0.547713
vn 0.527508 0.139320 -0.838049
vn 0.125826 0.241429 -0.962226
vn -0.690537 -0.350693 -0.632593
vn 0.697794 0.070999 0.712771
vn 0.539621 0.644865 0.541256
vn 0.652703 -0.280488 0.703779
vn 0.582888 0.147810 -0.798996
vn -0.110071 -0.433187 0.894558
vn 0.716220 0.694076 -0.072714
vn 0.388789 0.729154 0.563186
vn 0.758469 0.080024 -0.646778
vn 0.688551 0.717943 -0.102252
vn -0.504354 -0.514283 -0.693643
vn -0.523404 -0.825625 0.210691
vn -0.406374 0.429037 0.806714
vn 0.839328 -0.180144 0.512909
vn 0.449122 -0.168668 0.877406
vn 0.142009 0.094733 0.985322
vn 0.980615 -0.108821 0.162946
vn 0.977704 -0.163514 -0.131747
vn 0.988221 -0.144144 0.051406
vn 0.279683 -0.821427 0.497026
vn 0.193735 0.202931 0.959836
vn 0.911170 -0.035712 0.410480
vn 0.974672 0.023860 0.222360
vn -0.054128 0.912139 0.406291
vn 0.475327 0.335932 0.813151
vn 0.684976 0.336852 0.646018
vn 0.699334 0.340940 0.628246
vn 0.486843 -0.181683 0.854386
vn 0.313347 -0.258208 0.913861
vn 0.049236 0.924442 0.378131
vn -0.020318 -0.003448 0.999788
vn 0.245444 -0.678315 0.692565
vn 0.531248 0.029883 0.846689
vn 0.490078 -0.821774 -0.290706
vn 0.940576 0.024365 0.338709
vn 0.007303 -0.999970 -0.002618
vn 0.513967 0.148831 0.844800
vn 0.810867 0.077151 0.580123
vn 0.261807 -0.962529 -0.070667
vn 0.330398 0.045215 0.942758
vn 0.977702 0.060293 -0.201157
vn 0.917814 0.191736 -0.347643
vn 0.767695 -0.293939 0.569424
vn 0.163228 -0.415135 0.894997
vn 0.826306 -0.123179 0.549587
vn 0.056784 -0.289485 0.955497
vn 0.520854 0.718368 0.461149
vn 0.978250 0.066962 0.196322
vn 0.884046 0.433359 0.175106
vn 0.769131 0.602343 0.213591
vn 0.497932 0.321237 0.805525
vn 0.492091 0.387405 -0.779592
vn 0.399777 0.457807 -0.794097
vn 0.151110 0.976424 -0.154148
vn 0.030216 0.951904 -0.304903
vn 0.909393 -0.115165 0.399676
vn 0.217551 0.846738 0.485496
vn 0.830558 -0.042565 -0.555304
vn 0.519319 0.845081 -0.127071
vn -0.522337 -0.513112 0.681087
vn 0.672892 0.688193 0.271306
vn 0.649767 0.414116 -0.637426
vn -0.209220 -0.740827 -0.638281
vn 0.026147 0.222439 0.974596
vn -0.654866 -0.663113 -0.362535
vn -0.435454 -0.780427 -0.448680
vn 0.653012 -0.749844 0.106345
vn 0.610042 -0.792173 0.017629
vn 0.904063 0.128777 0.407538
vn 0.929386 0.060135 0.364178
vn 0.546002 0.809439 -0.216079
vn 0.053781 0.996186 -0.068706
vn -0.557982 0.559521 -0.612856
vn -0.534457 0.808288 -0.247034
vn -0.425361 -0.768979 -0.477220
vn -0.425309 -0.769253 -0.476825
vn 0.739837 -0.652305 -0.164741
vn 0.747938 -0.640811 -0.173060
vn 0.852701 0.001134 0.522398
vn 0.835411 0.010423 0.549526
vn 0.075963 0.803683 0.590189
vn -0.939175 0.052574 0.339390
vn -0.499849 0.078065 -0.862587
vn -0.474100 -0.775609 -0.416725
vn 0.752112 -0.642883 -0.145013
vn 0.870032 0.143189 -0.471743
vn 0.938169 0.148240 0.312831
vn 0.889978 0.085781 0.447863
vn 0.338075 -0.380750 0.860660
vn -0.166191 -0.265823 0.949588
vn -0.999448 -0.032957 -0.004166
vn 0.673857 -0.738313 -0.028476
vn -0.429781 -0.778666 -0.457129
vn -0.869027 0.487718 0.083207
vn -0.138834 0.563462 0.814393
vn -0.880711 0.365907 0.300766
vn -0.111497 0.531948 0.839404
vn 0.644469 -0.078156 -0.760626
vn -0.086429 -0.118555 -0.989179
vn -0.792802 -0.550561 -0.261433
vn -0.692873 -0.665285 -0.278069
vn 0.209085 -0.946646 0.245243
vn 0.482524 -0.822430 0.301297
vn 0.812246 0.046675 0.581444
vn 0.839009 -0.054137 0.541418
vn 0.383700 0.804459 0.453454
vn 0.305393 0.871424 0.383870
vn -0.804708 0.561257 -0.193484
vn -0.783482 0.589675 -0.196059
vn 0.373068 -0.242131 0.895652
vn -0.071219 0.788081 0.611438
vn 0.471323 0.835936 -0.281185
vn 0.331715 0.917462 -0.219609
vn 0.364136 0.906153 -0.215156
vn 0.180141 0.983186 0.029901
vn 0.083676 0.996032 0.030323
vn 0.808254 -0.041205 0.587390
vn 0.684050 -0.435280 0.585327
vn -0.739318 -0.553254 -0.383822
vn -0.458412 -0.771178 0.441750
vn -0.827370 -0.505603 -0.244592
vn -0.767734 -0.595837 -0.235718
vn -0.968670 -0.247703 -0.017948
vn -0.300932 0.465173 -0.832499
vn 0.630901 0.758709 -0.162246
vn 0.368776 0.900030 0.232273
vn -0.894590 0.144978 -0.422716
vn -0.903588 0.172461 -0.392156
vn 0.768841 -0.230967 0.596270
vn 0.790583 -0.247009 0.560326
vn 0.364874 0.896318 0.251955
vn 0.660325 -0.194939 0.725237
vn 0.180661 -0.982208 0.051267
vn 0.044464 -0.997371 0.057216
vn -0.898790 0.163555 -0.406726
vn 0.905819 -0.054425 0.420155
vn -0.957969 0.142726 -0.248847
vn -0.613257 -0.525059 -0.590109
vn 0.375507 -0.919814 -0.113741
vn 0.027318 0.520232 0.853588
vn 0.825954 -0.242286 0.509016
vn 0.168910 -0.968321 -0.183915
vn 0.790957 0.565203 0.234377
vn 0.795894 0.553139 0.246150
vn -0.918220 0.170780 -0.357361
vn 0.389983 0.891346 0.231117
vn 0.705606 -0.241320 0.666247
vn 0.098816 -0.971464 0.215622
vn -0.969498 0.239790 0.050738
vn 0.503688 0.785497 -0.359572
vn 0.508852 0.780108 -0.364008
vn 0.906028 -0.393750 0.155161
vn 0.911249 -0.380239 0.158251
vn -0.473344 -0.661973 0.581152
vn -0.412172 -0.735971 0.537086
vn 0.906414 -0.422150 -0.014265
vn -0.356758 -0.463816 0.810925
vn 0.296196 0.301300 -0.906359
vn 0.905970 -0.422050 0.033051
vn 0.910901 -0.321417 0.258747
vn -0.318921 -0.703533 0.635083
vn 0.924745 -0.376105 0.058237
vn -0.477213 -0.766553 0.429725
vn -0.826821 0.553068 0.102389
vn 0.938305 -0.182347 0.293827
vn -0.363390 -0.581345 0.728001
vn 0.939056 -0.183057 0.290971
vn 0.456257 0.495758 -0.738954
vn 0.268884 0.387457 -0.881804
vn -0.493199 0.282591 -0.822738
vn -0.789228 -0.011757 -0.613987
vn -0.419658 -0.615791 0.666850
vn -0.980206 -0.197787 0.008783
vn 0.554616 0.831493 -0.031961
vn 0.893311 -0.445552 0.058974
vn -0.483354 -0.801335 0.352464
vn -0.812362 0.496496 0.305875
vn 0.644994 0.548122 -0.532490
vn -0.968330 0.249585 0.006619
vn -0.972291 0.231629 0.031581
vn 0.414309 0.637345 -0.649723
vn 0.840020 -0.532273 -0.105129
vn 0.910630 -0.390973 -0.133769
vn -0.454107 -0.802830 0.386330
vn -0.499590 -0.766672 0.403267
vn -0.784071 0.469462 0.406002
vn -0.211866 0.977146 -0.017292
vn -0.987597 -0.143538 0.063624
vn 0.822491 0.485142 -0.296894
vn -0.290830 -0.062192 -0.954751
vn -0.201557 -0.084572 -0.975819
vn 0.873204 -0.132498 0.468998
vn 0.583080 0.810366 0.057666
vn -0.441378 -0.519722 0.731488
vn 0.800784 -0.318882 0.507010
vn -0.412003 -0.542532 0.732060
vn -0.205261 0.258259 -0.944018
vn -0.359140 0.380319 -0.852277
vn 0.760361 -0.265485 0.592763
vn 0.333216 -0.923447 0.190295
vn -0.413967 -0.544295 0.729640
vn -0.241220 -0.969238 0.048902
vn -0.104508 -0.226726 -0.968335
vn 0.228459 -0.402006 -0.886678
vn -0.564982 -0.590264 -0.576527
vn -0.919817 -0.279685 -0.275159
vn -0.279672 -0.535654 -0.796780
vn -0.244514 -0.558139 -0.792902
vn -0.936370 -0.246540 -0.249859
vn -0.215270 -0.289750 -0.932579
vn -0.925870 -0.293540 -0.237904
vn 0.471311 -0.533674 0.702181
vn 0.437973 -0.532750 0.724125
vn -0.437168 -0.772913 -0.459881
vn 0.366351 -0.190728 0.910719
vn 0.699176 0.195848 0.687602
vn -0.196709 0.772860 0.603318
vn 0.053639 0.486138 0.872234
vn -0.897417 0.132462 0.420829
vn 0.062088 -0.046402 -0.996991
vn -0.096011 -0.410454 0.906813
vn -0.714676 -0.594871 0.367923
vn -0.716731 0.331479 0.613530
vn -0.108008 -0.025575 0.993821
vn -0.698810 -0.230324 0.677212
vn 0.028400 -0.072097 0.996993
vn 0.056838 -0.227861 0.972033
vn 0.044379 0.408864 -0.911516
vn 0.053127 0.024721 -0.998282
vn -0.714069 -0.365632 0.597008
vn -0.331579 0.712064 -0.618886
vn -0.102057 0.414158 0.904465
vn -0.159114 0.493111 -0.855292
vn -0.716722 0.336932 0.610562
vn -0.509014 0.657961 0.554970
vn -0.513905 0.857846 -0.001301
vn -0.050616 0.554428 0.830691
vn -0.145337 0.633397 0.760056
vn -0.816407 0.352193 0.457645
vn -0.721671 0.555756 -0.412706
vn -0.345193 0.626846 -0.698503
vn -0.111606 0.784674 -0.609780
vn -0.463128 0.791989 0.397828
vn -0.333028 0.865462 -0.374258
vn -0.718678 0.581104 -0.381865
vn -0.278110 0.628062 -0.726769
vn -0.114841 0.756688 -0.643610
vn -0.234961 0.403518 -0.884289
vn 0.049840 0.118059 0.991755
vn -0.732201 0.229868 0.641126
vn -0.873879 0.278609 -0.398388
vn -0.321476 0.178627 -0.929917
vn 0.043234 0.182847 0.982190
vn 0.022838 0.099394 0.994786
vn 0.356721 0.201652 -0.912188
vn -0.730112 0.244181 0.638210
vn -0.686273 0.295238 0.664729
vn -0.946311 0.152204 -0.285184
vn -0.293597 0.149499 -0.944167
vn -0.882470 0.248355 -0.399458
vn -0.610246 -0.201348 -0.766198
vn -0.298001 -0.241182 -0.923594
vn 0.280828 -0.474280 -0.834383
vn -0.379362 -0.161594 0.911028
vn -0.706673 0.707422 0.012985
vn -0.873972 -0.467929 -0.131212
vn -0.302833 -0.103241 -0.947435
vn -0.616090 0.375673 0.692318
vn -0.472733 0.554536 -0.684846
vn -0.639323 0.765678 0.070729
vn -0.523844 -0.128371 -0.842086
vn -0.619182 0.490388 -0.613298
vn 0.742357 -0.665974 -0.073380
vn -0.946257 -0.224289 -0.233007
vn -0.623471 -0.639909 -0.449222
vn -0.921467 -0.096541 0.376270
vn -0.626742 -0.167523 0.761006
vn -0.349277 0.095259 0.932165
vn -0.999419 0.032075 0.011498
vn -0.925783 -0.100828 -0.364361
vn -0.800775 -0.111704 -0.588457
vn -0.420004 -0.824310 0.379617
vn -0.394118 0.203567 0.896232
vn -0.977951 -0.033697 0.206096
vn -0.999624 0.025964 0.008764
vn -0.032093 0.912113 0.408680
vn -0.637534 0.337108 0.692754
vn -0.806572 0.338435 0.484668
vn -0.816797 0.342553 0.464220
vn -0.658688 -0.180462 0.730454
vn -0.502094 -0.257335 0.825639
vn -0.127029 0.924629 0.359061
vn -0.193988 -0.003263 0.980998
vn -0.389317 -0.677636 0.623892
vn -0.699976 0.031192 0.713485
vn -0.376092 -0.897435 -0.230578
vn -0.943738 -0.030674 0.329267
vn -0.009134 -0.999952 -0.003614
vn -0.682440 0.150101 0.715364
vn -0.916013 0.078987 0.393295
vn -0.276307 -0.954777 -0.109793
vn -0.524298 0.046126 0.850285
vn -0.908679 0.062068 -0.412855
vn -0.818594 0.189496 -0.542213
vn -0.872330 -0.292198 0.391995
vn -0.351758 -0.414593 0.839273
vn -0.924985 -0.121311 0.360119
vn -0.260432 -0.289127 0.921184
vn -0.605915 0.719566 0.339251
vn -0.997460 0.069065 -0.017426
vn -0.900126 0.435261 -0.017921
vn -0.795748 0.604007 0.044287
vn -0.658013 0.322473 0.680463
vn -0.334515 0.372939 -0.865457
vn -0.219669 0.459866 -0.860388
vn -0.112591 0.976705 -0.182677
vn 0.037695 0.951897 -0.304092
vn -0.947569 0.014840 0.319207
vn -0.555108 0.828495 0.073831
vn -0.475670 -0.079799 -0.875997
vn -0.432354 0.584715 -0.686424
vn 0.970244 0.088914 0.225212
vn -0.795096 0.527757 -0.298822
vn -0.480140 -0.090734 -0.872487
vn 0.506929 -0.852022 -0.130699
vn -0.424372 0.242724 0.872350
vn -0.057868 -0.422657 -0.904440
vn 0.239948 -0.481922 -0.842720
vn -0.900266 -0.402837 -0.165056
vn -0.926798 -0.369995 0.064416
vn -0.815952 0.139157 0.561122
vn -0.615419 0.252960 0.746506
vn 0.210422 0.787340 0.579499
vn 0.112727 0.794531 0.596669
vn 0.637984 0.495425 -0.589517
vn 0.881147 0.463917 -0.091435
vn 0.325924 -0.612407 -0.720230
vn 0.335185 -0.577108 -0.744713
vn -0.916696 -0.372212 -0.145352
vn -0.874022 -0.471779 -0.116235
vn -0.893320 0.060520 0.445329
vn -0.803373 0.100502 0.586934
vn 0.074131 0.659795 0.747780
vn 0.951028 0.010089 0.308941
vn 0.758084 -0.600265 -0.254934
vn 0.584585 -0.729666 -0.354751
vn -0.837938 -0.478347 -0.262764
vn -0.709091 -0.357888 -0.607541
vn -0.956068 0.167279 -0.240730
vn -0.931106 0.339768 0.132658
vn -0.027731 0.783005 0.621398
vn -0.067352 0.771197 0.633023
vn 0.939050 0.096216 0.330043
vn -0.899739 -0.425164 -0.098518
vn 0.332980 -0.565779 -0.754333
vn 0.971253 0.237962 0.006399
vn 0.231324 0.531261 0.815016
vn 0.941233 0.122837 0.314630
vn -0.044658 0.296772 0.953903
vn -0.758790 -0.235008 -0.607461
vn 0.586127 -0.748792 -0.309460
vn 0.218216 -0.628488 -0.746582
vn 0.095849 -0.653800 -0.750572
vn -0.690611 -0.723037 0.016564
vn -0.807254 -0.553203 0.205690
vn -0.499830 0.093297 0.861084
vn -0.559114 0.065033 0.826536
vn 0.301101 0.548299 0.780197
vn 0.352615 0.577964 0.735948
vn 0.923567 0.167038 -0.345141
vn 0.923597 0.170023 -0.343601
vn -0.260285 -0.459013 0.849446
vn 0.666631 0.221734 0.711644
vn 0.123571 0.965805 0.227926
vn 0.284340 0.928150 0.240184
vn 0.256801 0.932514 0.253913
vn 0.489326 0.775625 0.398705
vn 0.570067 0.739338 0.358333
vn -0.521833 0.050553 0.851548
vn -0.676527 -0.291490 0.676273
vn 0.134245 -0.548208 -0.825498
vn -0.056334 -0.995965 -0.069852
vn 0.258740 -0.627422 -0.734436
vn 0.157013 -0.669424 -0.726098
vn 0.566271 -0.626436 -0.535645
vn 0.356569 0.631023 -0.688962
vn -0.026959 0.922655 0.384682
vn 0.333952 0.700796 0.630366
vn 0.683389 -0.099742 -0.723209
vn 0.713192 -0.099791 -0.693830
vn -0.609497 -0.110377 0.785067
vn -0.642762 -0.093263 0.760368
vn 0.338321 0.686216 0.643931
vn -0.480326 -0.201489 0.853633
vn -0.744808 -0.646775 -0.164147
vn -0.650578 -0.724899 -0.226429
vn 0.701265 -0.096488 -0.706341
vn -0.639618 0.165576 0.750649
vn 0.763243 -0.220590 -0.607290
vn 0.029191 -0.361391 -0.931957
vn -0.878531 -0.429514 -0.209047
vn 0.469345 -0.048940 0.881657
vn -0.678060 -0.044336 0.733668
vn -0.773528 -0.518902 -0.363861
vn -0.191778 0.656860 0.729216
vn -0.200672 0.644776 0.737560
vn 0.729873 -0.125824 -0.671903
vn 0.312304 0.705120 0.636610
vn -0.555219 -0.183201 0.811276
vn -0.644788 -0.761903 -0.061252
vn 0.820671 -0.267257 -0.505048
vn -0.719768 -0.134289 -0.681103
vn -0.639421 -0.101293 -0.762155
vn -0.751017 0.452465 0.480883
vn -0.677852 0.397742 0.618318
vn 0.713380 0.335568 0.615209
vn 0.633412 0.295188 0.715300
vn -0.809168 0.245111 0.534011
vn 0.610205 0.594751 0.523375
vn -0.537826 -0.786149 -0.304489
vn -0.672327 0.362125 0.645633
vn -0.600965 0.680517 0.419210
vn 0.649393 0.676484 0.347358
vn -0.787240 0.528694 0.317389
vn 0.635318 0.288083 0.716504
vn 0.751365 -0.223513 -0.620881
vn -0.801509 0.576027 0.160552
vn 0.788830 0.542810 0.288278
vn -0.758141 0.643897 0.103043
vn -0.596204 -0.796196 -0.103012
vn -0.565231 -0.819906 -0.090925
vn 0.066940 -0.987807 -0.140558
vn 0.552364 -0.833544 -0.009925
vn 0.758172 0.619019 0.204916
vn 0.412902 -0.910688 -0.012587
vn -0.761423 0.117307 -0.637554
vn -0.662946 0.445924 0.601377
vn 0.791309 0.202755 0.576819
vn 0.705992 -0.108157 -0.699913
vn -0.897898 -0.095051 -0.429819
vn 0.777808 -0.283893 -0.560732
vn 0.821738 -0.245350 -0.514344
vn -0.727371 -0.285767 -0.623914
vn -0.656564 0.065852 0.751390
vn -0.817439 0.104314 0.566491
vn 0.821465 0.055389 0.567562
vn 0.673843 0.025396 0.738438
vn 0.720109 -0.014735 -0.693705
vn -0.095302 -0.254432 -0.962384
vn 0.951600 -0.292138 -0.095461
vn -0.989909 -0.037382 -0.136683
vn -0.110733 -0.931944 0.345279
vn -0.116240 -0.930197 0.348169
vn -0.569099 0.815206 0.107543
vn -0.757113 0.149758 -0.635887
vn 0.797190 0.588288 0.135667
vn -0.492002 0.849706 0.189560
vn 0.882933 0.468767 -0.026200
vn -0.166479 -0.943772 0.285621
vn -0.127003 -0.966376 0.223577
vn -0.438561 0.897416 0.048046
vn 0.100741 0.642613 0.759539
vn 0.817124 0.556846 -0.149103
vn -0.719144 -0.596472 0.356444

f 1/1/1 2/2/1 3/3/1
f 4/4/2 5/5/2 6/6/2
f 4/4/3 6/7/3 7/8/3
f 5/9/4 8/10/4 9/11/4
f 10/12/5 11/13/5 9/14/5
f 6/6/6 11/15/6 7/8/6
f 6/6/7 12/16/7 11/13/7
f 12/17/8 5/5/8 9/14/8
f 6/6/9 5/5/9 12/17/9
f 11/13/10 12/18/10 9/19/10
f 13/20/11 14/21/11 15/22/11
f 14/21/12 13/20/12 16/23/12
f 16/24/13 13/20/13 17/25/13
f 15/22/14 14/21/14 18/26/14
f 14/21/15 19/27/15 18/26/15
f 18/26/16 20/28/16 21/29/16
f 18/26/17 19/27/17 20/28/17
f 20/28/18 3/30/18 21/29/18
f 5/9/19 22/31/19 23/32/19
f 24/33/20 25/34/20 26/35/20
f 27/36/21 25/34/21 9/37/21
f 28/38/22 27/39/22 29/40/22
f 30/41/23 25/34/23 24/33/23
f 25/34/24 30/41/24 10/42/24
f 30/41/25 24/33/25 31/43/25
f 24/33/26 26/44/26 32/45/26
f 33/46/27 34/47/27 5/9/27
f 4/4/28 22/31/28 5/9/28
f 26/35/29 25/34/29 27/39/29
f 33/46/30 35/48/30 34/47/30
f 32/45/31 26/35/31 28/38/31
f 23/32/32 33/46/32 5/9/32
f 26/35/33 27/39/33 28/38/33
f 28/38/34 29/40/34 36/49/34
f 35/50/35 37/51/35 29/40/35
f 28/38/36 38/52/36 32/45/36
f 36/49/37 38/52/37 28/38/37
f 36/49/38 37/53/38 39/54/38
f 39/55/39 37/56/39 40/57/39
f 41/58/40 42/59/40 39/55/40
f 39/55/41 40/57/41 41/58/41
f 36/49/42 29/40/42 37/51/42
f 37/56/43 35/48/43 33/46/43
f 37/56/44 33/46/44 40/57/44
f 40/57/45 33/46/45 43/60/45
f 40/57/46 43/60/46 41/58/46
f 33/46/47 23/32/47 43/60/47
f 44/61/48 45/62/48 30/63/48
f 15/64/49 46/65/49 45/62/49
f 46/66/50 47/67/50 10/68/50
f 47/67/51 7/69/51 11/70/51
f 45/62/52 44/61/52 17/71/52
f 44/61/53 30/63/53 31/72/53
f 13/73/54 15/64/54 45/62/54
f 46/65/55 10/74/55 45/62/55
f 45/62/56 10/74/56 30/63/56
f 47/67/57 11/70/57 10/68/57
f 47/67/58 48/75/58 7/69/58
f 46/66/59 15/76/59 47/67/59
f 18/77/60 47/67/60 15/76/60
f 47/67/61 18/77/61 48/75/61
f 18/77/62 21/78/62 48/75/62
f 13/73/63 45/62/63 17/71/63
f 49/79/64 35/50/64 29/40/64
f 8/80/65 27/81/65 9/82/65
f 34/47/66 50/83/66 5/84/66
f 27/36/67 49/79/67 29/40/67
f 35/48/68 51/85/68 52/86/68
f 35/50/69 49/79/69 51/87/69
f 52/86/70 50/83/70 34/47/70
f 35/48/71 52/86/71 34/47/71
f 5/84/72 50/83/72 8/10/72
f 53/88/73 27/81/73 8/80/73
f 53/88/74 49/79/74 27/36/74
f 54/89/75 55/90/75 56/91/75
f 57/92/76 55/90/76 58/93/76
f 59/94/77 60/95/77 55/90/77
f 61/96/78 54/89/78 56/91/78
f 39/97/79 61/96/79 36/98/79
f 36/98/80 61/96/80 56/91/80
f 36/98/81 56/91/81 38/99/81
f 62/100/82 63/101/82 64/102/82
f 65/103/83 64/102/83 54/89/83
f 61/96/84 65/103/84 54/89/84
f 66/104/85 67/105/85 62/100/85
f 55/90/86 60/95/86 68/106/86
f 69/107/87 68/106/87 60/95/87
f 69/107/88 70/108/88 68/106/88
f 58/109/89 55/90/89 68/106/89
f 68/106/90 71/110/90 58/111/90
f 62/100/91 67/105/91 63/101/91
f 64/102/92 63/101/92 69/107/92
f 70/108/93 71/110/93 68/106/93
f 58/111/94 71/110/94 72/112/94
f 56/91/95 57/92/95 38/113/95
f 55/90/96 57/114/96 56/91/96
f 73/115/97 74/116/97 38/113/97
f 58/109/98 72/112/98 73/115/98
f 57/117/99 58/111/99 73/115/99
f 57/92/100 73/115/100 38/113/100
f 73/115/101 72/112/101 74/116/101
f 39/97/102 75/118/102 61/96/102
f 75/118/103 39/97/103 76/119/103
f 64/102/104 59/94/104 54/89/104
f 64/102/105 60/95/105 59/94/105
f 54/89/106 59/94/106 55/90/106
f 64/102/107 69/107/107 60/95/107
f 65/103/108 66/104/108 62/100/108
f 65/103/109 61/96/109 75/118/109
f 75/118/110 76/119/110 65/103/110
f 66/104/111 65/103/111 76/119/111
f 62/100/112 64/102/112 65/103/112
f 39/97/113 42/120/113 76/119/113
f 77/121/114 76/119/114 42/120/114
f 67/105/115 76/119/115 77/121/115
f 66/104/116 76/119/116 67/105/116
f 9/82/117 25/34/117 10/42/117
f 51/122/118 49/123/118 78/124/118
f 79/125/119 50/126/119 52/127/119
f 52/127/120 51/122/120 79/125/120
f 80/128/121 81/129/121 53/130/121
f 51/122/122 78/124/122 79/125/122
f 82/131/123 50/126/123 79/125/123
f 50/126/124 82/131/124 8/132/124
f 53/133/125 78/124/125 49/123/125
f 83/134/126 84/135/126 85/136/126
f 84/135/127 83/134/127 86/137/127
f 86/137/128 87/138/128 84/135/128
f 88/139/129 84/135/129 87/138/129
f 87/138/130 89/140/130 88/139/130
f 90/141/131 88/139/131 89/140/131
f 91/142/132 92/143/132 90/141/132
f 90/141/133 89/140/133 91/142/133
f 85/136/134 92/144/134 91/145/134
f 91/145/135 83/134/135 85/136/135
f 80/128/136 93/146/136 83/134/136
f 94/147/137 83/134/137 93/146/137
f 93/146/138 87/138/138 94/147/138
f 87/138/139 93/146/139 95/148/139
f 95/148/140 96/149/140 87/138/140
f 89/140/141 87/138/141 96/149/141
f 97/150/142 91/142/142 89/140/142
f 97/151/143 81/129/143 80/128/143
f 8/132/144 82/131/144 80/128/144
f 93/146/145 80/128/145 98/152/145
f 98/152/146 95/148/146 93/146/146
f 95/148/147 82/131/147 79/125/147
f 79/125/148 78/124/148 95/148/148
f 96/149/149 95/148/149 78/124/149
f 78/124/150 53/133/150 81/153/150
f 81/153/151 96/149/151 78/124/151
f 80/128/152 53/130/152 8/154/152
f 94/147/153 87/138/153 86/137/153
f 86/137/154 83/134/154 94/147/154
f 97/151/155 83/134/155 91/145/155
f 89/140/156 96/149/156 97/150/156
f 80/128/157 83/134/157 97/151/157
f 81/153/158 97/150/158 96/149/158
f 82/131/159 95/148/159 98/152/159
f 98/152/160 80/128/160 82/131/160
f 85/136/161 99/155/161 100/156/161
f 99/155/162 85/136/162 84/135/162
f 84/135/163 101/157/163 99/155/163
f 101/157/164 84/135/164 88/139/164
f 88/139/165 90/141/165 101/157/165
f 102/158/166 101/157/166 90/141/166
f 90/141/167 103/159/167 102/158/167
f 103/159/168 90/141/168 92/143/168
f 92/144/169 85/136/169 103/160/169
f 100/156/170 103/160/170 85/136/170
f 104/161/171 105/162/171 106/163/171
f 107/164/172 106/163/172 108/165/172
f 109/166/173 110/167/173 103/168/173
f 109/166/174 111/169/174 104/161/174
f 104/161/175 110/167/175 109/166/175
f 104/161/176 111/169/176 112/170/176
f 113/171/177 112/170/177 111/169/177
f 106/163/178 110/167/178 104/161/178
f 104/161/179 112/170/179 105/162/179
f 105/172/180 113/173/180 111/174/180
f 113/173/181 105/172/181 112/175/181
f 105/172/182 111/174/182 109/176/182
f 109/176/183 106/177/183 105/172/183
f 109/176/184 100/178/184 106/177/184
f 103/179/185 100/178/185 109/176/185
f 102/180/186 103/168/186 110/167/186
f 106/163/187 114/181/187 108/165/187
f 115/182/188 116/183/188 106/177/188
f 116/184/189 117/185/189 118/186/189
f 108/165/190 114/181/190 119/187/190
f 119/187/191 120/188/191 108/165/191
f 118/189/192 121/190/192 114/191/192
f 114/191/193 121/190/193 117/192/193
f 116/193/194 115/194/194 119/187/194
f 120/188/195 119/187/195 115/194/195
f 121/195/196 118/186/196 117/185/196
f 108/165/197 101/196/197 102/180/197
f 115/182/198 106/177/198 100/178/198
f 100/178/199 99/197/199 115/182/199
f 120/188/200 99/198/200 101/196/200
f 106/163/201 107/164/201 110/167/201
f 108/165/202 120/188/202 101/196/202
f 120/188/203 115/194/203 99/198/203
f 107/164/204 102/180/204 110/167/204
f 102/180/205 107/164/205 108/165/205
f 118/199/206 106/177/206 116/183/206
f 114/181/207 106/163/207 118/200/207
f 114/191/208 117/192/208 119/201/208
f 117/192/209 116/202/209 119/201/209
f 122/203/210 123/204/210 124/205/210
f 125/206/211 126/207/211 123/208/211
f 125/206/212 123/208/212 127/209/212
f 125/210/213 128/211/213 126/212/213
f 128/211/214 129/213/214 126/212/214
f 128/214/215 124/215/215 129/216/215
f 122/217/216 124/215/216 128/214/216
f 130/218/217 128/211/217 125/219/217
f 131/220/218 122/221/218 130/222/218
f 132/223/219 125/224/219 127/225/219
f 132/226/220 131/227/220 125/219/220
f 133/228/221 131/227/221 132/226/221
f 133/229/222 122/221/222 131/220/222
f 130/218/223 125/219/223 131/227/223
f 128/214/224 130/222/224 122/221/224
f 127/209/225 123/204/225 122/203/225
f 16/230/226 133/228/226 14/231/226
f 16/232/227 3/3/227 133/229/227
f 14/231/228 133/228/228 132/226/228
f 14/233/229 132/223/229 19/234/229
f 132/223/230 127/225/230 19/234/230
f 20/235/231 19/234/231 127/225/231
f 20/235/232 127/225/232 122/236/232
f 3/3/233 122/221/233 133/229/233
f 3/237/234 20/235/234 122/236/234
f 134/238/235 135/239/235 136/240/235
f 137/241/236 135/242/236 134/243/236
f 138/244/237 139/245/237 137/246/237
f 138/247/238 136/248/238 139/249/238
f 134/238/239 136/240/239 123/208/239
f 138/247/240 123/250/240 136/248/240
f 123/250/241 138/247/241 124/251/241
f 134/238/242 123/208/242 126/252/242
f 129/253/243 134/243/243 126/254/243
f 137/241/244 134/243/244 129/253/244
f 138/244/245 137/246/245 129/255/245
f 138/244/246 129/255/246 124/256/246
f 136/257/247 140/258/247 139/259/247
f 136/257/248 141/260/248 140/258/248
f 142/261/249 139/259/249 140/258/249
f 135/262/250 143/263/250 141/260/250
f 141/264/251 143/265/251 142/266/251
f 142/266/252 140/267/252 141/264/252
f 137/268/253 143/263/253 135/262/253
f 135/262/254 141/260/254 136/257/254
f 139/259/255 142/261/255 137/268/255
f 137/268/256 144/269/256 143/263/256
f 137/268/257 142/261/257 144/269/257
f 143/265/258 145/270/258 146/271/258
f 146/271/259 142/266/259 143/265/259
f 143/263/260 144/269/260 145/272/260
f 144/269/261 146/273/261 145/272/261
f 146/273/262 144/269/262 142/261/262
f 3/274/263 16/275/263 17/276/263
f 147/5/264 4/4/264 148/6/264
f 148/7/265 4/4/265 7/8/265
f 149/10/266 147/9/266 150/11/266
f 151/13/267 152/12/267 150/14/267
f 151/15/268 148/6/268 7/8/268
f 153/16/269 148/6/269 151/13/269
f 147/5/270 153/17/270 150/14/270
f 147/5/271 148/6/271 153/17/271
f 153/18/272 151/13/272 150/19/272
f 154/21/273 155/20/273 156/22/273
f 155/20/274 154/21/274 157/23/274
f 155/20/275 157/24/275 17/25/275
f 154/21/276 156/22/276 158/26/276
f 159/27/277 154/21/277 158/26/277
f 160/28/278 158/26/278 21/29/278
f 159/27/279 158/26/279 160/28/279
f 3/30/280 160/28/280 21/29/280
f 22/31/281 147/9/281 23/32/281
f 161/34/282 24/33/282 162/35/282
f 161/34/283 163/36/283 150/37/283
f 163/39/284 164/38/284 165/40/284
f 161/34/285 166/41/285 24/33/285
f 166/41/286 161/34/286 152/42/286
f 24/33/287 166/41/287 31/43/287
f 162/44/288 24/33/288 32/45/288
f 167/47/289 168/46/289 147/9/289
f 22/31/290 4/4/290 147/9/290
f 161/34/291 162/35/291 163/39/291
f 169/48/292 168/46/292 167/47/292
f 162/35/293 32/45/293 164/38/293
f 168/46/294 23/32/294 147/9/294
f 163/39/295 162/35/295 164/38/295
f 165/40/296 164/38/296 170/49/296
f 171/51/297 169/50/297 165/40/297
f 38/52/298 164/38/298 32/45/298
f 38/52/299 170/49/299 164/38/299
f 171/53/300 170/49/300 172/54/300
f 171/56/301 172/55/301 173/57/301
f 42/59/302 41/58/302 172/55/302
f 173/57/303 172/55/303 41/58/303
f 165/40/304 170/49/304 171/51/304
f 169/48/305 171/56/305 168/46/305
f 168/46/306 171/56/306 173/57/306
f 168/46/307 173/57/307 43/60/307
f 43/60/308 173/57/308 41/58/308
f 23/32/309 168/46/309 43/60/309
f 174/62/310 44/61/310 166/63/310
f 175/65/311 156/64/311 174/62/311
f 176/67/312 175/66/312 152/68/312
f 7/69/313 176/67/313 151/70/313
f 44/61/314 174/62/314 17/71/314
f 166/63/315 44/61/315 31/72/315
f 156/64/316 155/73/316 174/62/316
f 152/74/317 175/65/317 174/62/317
f 152/74/318 174/62/318 166/63/318
f 151/70/319 176/67/319 152/68/319
f 48/75/320 176/67/320 7/69/320
f 156/76/321 175/66/321 176/67/321
f 176/67/322 158/77/322 156/76/322
f 158/77/323 176/67/323 48/75/323
f 21/78/324 158/77/324 48/75/324
f 174/62/325 155/73/325 17/71/325
f 169/50/326 177/79/326 165/40/326
f 163/81/327 149/80/327 150/82/327
f 178/83/328 167/47/328 147/84/328
f 177/79/329 163/36/329 165/40/329
f 179/85/330 169/48/330 180/86/330
f 177/79/331 169/50/331 179/87/331
f 178/83/332 180/86/332 167/47/332
f 180/86/333 169/48/333 167/47/333
f 178/83/334 147/84/334 149/10/334
f 163/81/335 181/88/335 149/80/335
f 177/79/336 181/88/336 163/36/336
f 182/90/337 183/89/337 184/91/337
f 182/90/338 185/92/338 186/93/338
f 187/95/339 188/94/339 182/90/339
f 183/89/340 189/96/340 184/91/340
f 189/96/341 172/97/341 170/98/341
f 189/96/342 170/98/342 184/91/342
f 184/91/343 170/98/343 38/99/343
f 63/101/344 190/100/344 191/102/344
f 191/102/345 192/103/345 183/89/345
f 192/103/346 189/96/346 183/89/346
f 67/105/347 193/104/347 190/100/347
f 187/95/348 182/90/348 194/106/348
f 194/106/349 69/107/349 187/95/349
f 70/108/350 69/107/350 194/106/350
f 182/90/351 186/109/351 194/106/351
f 71/110/352 194/106/352 186/111/352
f 67/105/353 190/100/353 63/101/353
f 63/101/354 191/102/354 69/107/354
f 71/110/355 70/108/355 194/106/355
f 71/110/356 186/111/356 72/112/356
f 185/92/357 184/91/357 38/113/357
f 185/114/358 182/90/358 184/91/358
f 74/116/359 195/115/359 38/113/359
f 72/112/360 186/109/360 195/115/360
f 186/111/361 185/117/361 195/115/361
f 195/115/362 185/92/362 38/113/362
f 72/112/363 195/115/363 74/116/363
f 196/118/364 172/97/364 189/96/364
f 172/97/365 196/118/365 197/119/365
f 188/94/366 191/102/366 183/89/366
f 187/95/367 191/102/367 188/94/367
f 188/94/368 183/89/368 182/90/368
f 69/107/369 191/102/369 187/95/369
f 193/104/370 192/103/370 190/100/370
f 189/96/371 192/103/371 196/118/371
f 197/119/372 196/118/372 192/103/372
f 192/103/373 193/104/373 197/119/373
f 191/102/374 190/100/374 192/103/374
f 42/120/375 172/97/375 197/119/375
f 197/119/376 77/121/376 42/120/376
f 197/119/377 67/105/377 77/121/377
f 197/119/378 193/104/378 67/105/378
f 161/34/379 150/82/379 152/42/379
f 177/123/380 179/122/380 198/124/380
f 178/126/381 199/125/381 180/127/381
f 179/122/382 180/127/382 199/125/382
f 200/129/383 201/128/383 181/130/383
f 198/124/384 179/122/384 199/125/384
f 178/126/385 202/131/385 199/125/385
f 202/131/386 178/126/386 149/132/386
f 198/124/387 181/133/387 177/123/387
f 203/135/388 204/134/388 205/136/388
f 204/134/389 203/135/389 206/137/389
f 207/138/390 206/137/390 203/135/390
f 203/135/391 208/139/391 207/138/391
f 209/140/392 207/138/392 208/139/392
f 208/139/393 210/141/393 209/140/393
f 211/143/394 212/142/394 210/141/394
f 209/140/395 210/141/395 212/142/395
f 211/144/396 205/136/396 212/145/396
f 204/134/397 212/145/397 205/136/397
f 213/146/398 201/128/398 204/134/398
f 204/134/399 214/147/399 213/146/399
f 207/138/400 213/146/400 214/147/400
f 213/146/401 207/138/401 215/148/401
f 216/149/402 215/148/402 207/138/402
f 207/138/403 209/140/403 216/149/403
f 212/142/404 217/150/404 209/140/404
f 200/129/405 217/151/405 201/128/405
f 202/131/406 149/132/406 201/128/406
f 201/128/407 213/146/407 218/152/407
f 215/148/408 218/152/408 213/146/408
f 202/131/409 215/148/409 199/125/409
f 198/124/410 199/125/410 215/148/410
f 215/148/411 216/149/411 198/124/411
f 181/133/412 198/124/412 200/153/412
f 216/149/413 200/153/413 198/124/413
f 181/130/414 201/128/414 149/154/414
f 207/138/415 214/147/415 206/137/415
f 204/134/416 206/137/416 214/147/416
f 204/134/417 217/151/417 212/145/417
f 216/149/418 209/140/418 217/150/418
f 204/134/419 201/128/419 217/151/419
f 217/150/420 200/153/420 216/149/420
f 215/148/421 202/131/421 218/152/421
f 201/128/422 218/152/422 202/131/422
f 219/155/423 205/136/423 220/156/423
f 205/136/424 219/155/424 203/135/424
f 221/157/425 203/135/425 219/155/425
f 203/135/426 221/157/426 208/139/426
f 210/141/427 208/139/427 221/157/427
f 221/157/428 222/158/428 210/141/428
f 223/159/429 210/141/429 222/158/429
f 210/141/430 223/159/430 211/143/430
f 205/136/431 211/144/431 223/160/431
f 223/160/432 220/156/432 205/136/432
f 224/162/433 225/161/433 226/163/433
f 226/163/434 227/164/434 228/165/434
f 229/167/435 230/166/435 223/168/435
f 231/169/436 230/166/436 225/161/436
f 229/167/437 225/161/437 230/166/437
f 231/169/438 225/161/438 232/170/438
f 232/170/439 233/171/439 231/169/439
f 229/167/440 226/163/440 225/161/440
f 232/170/441 225/161/441 224/162/441
f 233/173/442 224/172/442 231/174/442
f 224/172/443 233/173/443 232/175/443
f 231/174/444 224/172/444 230/176/444
f 226/177/445 230/176/445 224/172/445
f 220/178/446 230/176/446 226/177/446
f 220/178/447 223/179/447 230/176/447
f 223/168/448 222/180/448 229/167/448
f 234/181/449 226/163/449 228/165/449
f 235/183/450 236/182/450 226/177/450
f 237/185/451 235/184/451 238/186/451
f 234/181/452 228/165/452 239/187/452
f 240/188/453 239/187/453 228/165/453
f 241/190/454 238/189/454 234/191/454
f 241/190/455 234/191/455 237/192/455
f 236/194/456 235/193/456 239/187/456
f 239/187/457 240/188/457 236/194/457
f 238/186/458 241/195/458 237/185/458
f 221/196/459 228/165/459 222/180/459
f 226/177/460 236/182/460 220/178/460
f 219/197/461 220/178/461 236/182/461
f 219/198/462 240/188/462 221/196/462
f 227/164/463 226/163/463 229/167/463
f 240/188/464 228/165/464 221/196/464
f 236/194/465 240/188/465 219/198/465
f 222/180/466 227/164/466 229/167/466
f 227/164/467 222/180/467 228/165/467
f 226/177/468 238/199/468 235/183/468
f 226/163/469 234/181/469 238/200/469
f 237/192/470 234/191/470 239/201/470
f 235/202/471 237/192/471 239/201/471
f 242/204/472 243/203/472 244/205/472
f 245/207/473 246/206/473 242/208/473
f 242/208/474 246/206/474 247/209/474
f 248/211/475 246/210/475 245/212/475
f 249/213/476 248/211/476 245/212/476
f 244/215/477 248/214/477 249/216/477
f 244/215/478 243/217/478 248/214/478
f 248/211/479 250/218/479 246/219/479
f 243/221/480 251/220/480 250/222/480
f 246/224/481 252/223/481 247/225/481
f 251/227/482 252/226/482 246/219/482
f 251/227/483 253/228/483 252/226/483
f 243/221/484 253/229/484 251/220/484
f 246/219/485 250/218/485 251/227/485
f 250/222/486 248/214/486 243/221/486
f 242/204/487 247/209/487 243/203/487
f 253/228/488 157/230/488 154/231/488
f 3/3/489 157/232/489 253/229/489
f 253/228/490 154/231/490 252/226/490
f 252/223/491 154/233/491 159/234/491
f 247/225/492 252/223/492 159/234/492
f 159/234/493 160/235/493 247/225/493
f 247/225/494 160/235/494 243/236/494
f 243/221/495 3/3/495 253/229/495
f 160/235/496 3/237/496 243/236/496
f 254/239/497 255/238/497 256/240/497
f 254/242/498 257/241/498 255/243/498
f 258/245/499 259/244/499 257/246/499
f 256/248/500 259/247/500 258/249/500
f 256/240/501 255/238/501 242/208/501
f 242/250/502 259/247/502 256/248/502
f 259/247/503 242/250/503 244/251/503
f 242/208/504 255/238/504 245/252/504
f 255/243/505 249/253/505 245/254/505
f 255/243/506 257/241/506 249/253/506
f 257/246/507 259/244/507 249/255/507
f 249/255/508 259/244/508 244/256/508
f 260/258/509 256/257/509 258/259/509
f 261/260/510 256/257/510 260/258/510
f 258/259/511 262/261/511 260/258/511
f 263/263/512 254/262/512 261/260/512
f 263/265/513 261/264/513 262/266/513
f 260/267/514 262/266/514 261/264/514
f 263/263/515 257/268/515 254/262/515
f 261/260/516 254/262/516 256/257/516
f 262/261/517 258/259/517 257/268/517
f 264/269/518 257/268/518 263/263/518
f 262/261/519 257/268/519 264/269/519
f 265/270/520 263/265/520 266/271/520
f 262/266/521 266/271/521 263/265/521
f 264/269/522 263/263/522 265/272/522
f 266/273/523 264/269/523 265/272/523
f 264/269/524 266/273/524 262/261/524
f 157/275/525 3/274/525 17/276/525

