mtllib anim_spider_000019.mtl

o spider_walk_00
usemtl spidsd
s off

v -0.095340 43.713650 -14.598050
v -0.001710 47.666740 -3.513910
v 17.361359 35.537540 -3.558800
v -0.168390 34.214027 -24.147930
v 0.019030 38.498280 7.263021
v 11.452000 33.718559 8.721960
v 7.795510 30.581301 -18.462259
v 17.641521 26.794729 1.366660
v 13.302719 26.095699 11.929111
v 7.038610 15.617380 12.246639
v 6.533760 16.274130 17.741470
v 0.135890 23.169178 23.065830
v 10.899910 31.338230 19.695660
v 10.472290 23.842800 -12.654420
v 9.105030 14.224690 -7.281230
v 15.288580 16.738380 -1.595660
v 1.716010 10.246830 -24.680828
v 5.563020 29.105661 -31.688808
v -0.131350 19.125231 -19.512520
v 10.316300 10.085870 -21.979229
v 8.033530 28.915211 -18.831421
v 8.619350 11.088820 -31.596079
v 0.282890 1.618260 -31.151991
v 16.843010 30.778990 -24.915760
v 17.222179 39.235020 -22.481388
v 6.297590 15.243030 -13.736071
v 22.504910 33.524170 -18.285339
v 28.115871 38.473122 -42.032341
v 33.857430 42.009384 -39.210342
v 31.771700 35.289238 -36.332088
v 35.713898 9.318200 -63.698219
v 27.930729 33.292969 -4.860980
v 27.372950 43.577770 -6.103590
v 29.548409 40.044880 2.482070
v 10.813809 15.378860 7.490191
v 43.256279 37.167629 -8.286310
v 50.235619 42.765068 -7.093360
v 46.231270 41.581577 -0.035130
v 47.308311 -1.297180 9.770040
v 30.078772 35.192760 4.334550
v 25.899611 44.518208 11.335800
v 28.457890 36.636471 14.677440
v 46.107201 39.041878 5.265780
v 49.228584 43.255890 12.531051
v 42.687820 29.735630 13.967751
v 54.358540 1.999100 6.654800
v 7.436530 39.368050 15.196361
v -0.002000 14.952280 -4.690150
v 6.346630 16.787640 -17.340040
v 17.363411 25.929798 -25.313850
v 11.348800 27.320831 -29.343250
v 11.408989 18.702940 -25.868839
v 20.640739 10.841829 -40.788170
v 14.155630 15.807570 -43.090401
v 13.951550 9.978810 -36.857319
v 12.404700 5.659030 -49.069561
v 6.342190 8.406650 -49.976669
v 6.527950 4.367830 -46.715359
v -17.378010 35.535439 -3.284250
v -11.432650 33.720310 8.719729
v -8.465759 30.571489 -18.478800
v -17.503469 27.038630 -2.115450
v -13.246079 26.060390 11.994751
v -7.202580 13.375330 9.062450
v -6.293630 16.237839 17.827379
v -10.718360 31.277069 19.840471
v -10.311580 23.931749 -12.427979
v -9.250370 14.232640 -7.487720
v -15.234529 17.121691 -4.967330
v -2.269090 10.246469 -21.770889
v -5.818890 29.104900 -31.618851
v -10.559979 10.083970 -21.748569
v -8.286320 28.913801 -18.705900
v -9.000980 11.087530 -31.388559
v -0.657950 1.618180 -31.145329
v -20.356390 31.753429 -21.492401
v -18.814920 40.253109 -19.427521
v -6.377380 15.392880 -13.752750
v -19.492220 34.322300 -12.885751
v -39.723831 36.860508 -22.964939
v -42.451302 40.315319 -17.096661
v -38.927658 35.073181 -14.301110
v -41.332222 1.077360 -33.068802
v -27.516590 35.009319 -11.213130
v -26.730381 45.951302 -8.378270
v -29.644958 38.964317 -2.082780
v -11.017990 14.102469 4.525120
v -49.712601 41.269920 -11.978500
v -48.450012 46.582458 -4.628250
v -41.931992 41.933769 -6.015310
v -53.784889 -0.433180 -2.050400
v -21.143179 37.459309 17.842390
v -12.813220 45.226711 20.470171
v -14.284101 37.859741 26.501970
v -33.968262 42.020821 26.403580
v -33.228230 47.791290 33.348228
v -25.712769 34.511673 32.278091
v -35.903019 1.366220 46.336029
v -7.398410 39.307701 15.282900
v -6.574490 16.786530 -17.240690
v -17.656830 25.926819 -24.981770
v -11.700669 27.319010 -29.096569
v -12.100269 18.700951 -26.462368
v -21.153070 10.838831 -40.408112
v -14.627260 15.805730 -42.751709
v -14.408160 9.976800 -36.573219
v -13.344750 5.657969 -48.820511
v -5.187480 8.406560 -50.333450
v -7.273800 4.367410 -47.024708
v 5.517900 27.253708 21.380751
v 9.168221 33.379539 16.885790
v 17.430349 30.157799 26.525459
v 12.048340 15.171371 23.092958
v 23.960781 15.732510 28.974020
v 0.001620 37.823219 11.319860
v 3.719080 38.595642 13.258110
v -5.291230 27.223129 21.453150
v -9.058391 36.916180 16.855780
v -17.149921 19.404610 23.386221
v -11.722790 15.045190 23.211069
v -23.581482 15.480141 29.210251
v -3.698400 38.565460 13.301380
v 10.407030 47.514957 53.178349
v 17.232891 41.399990 52.591400
v 22.133301 41.811050 43.477669
v 11.098690 47.958549 44.212917
v 0.110570 51.295429 52.726212
v 0.064070 54.106030 44.948158
v 21.449261 42.210899 34.374462
v 11.790340 48.402119 35.247501
v 0.017570 54.582119 36.131042
v 14.345890 8.935180 48.324852
v 0.335570 5.778870 47.954487
v 0.235730 10.194560 32.583191
v 13.197121 12.053280 35.708900
v 22.855980 16.426140 50.624542
v 26.158501 13.912000 38.834610
v 22.752981 26.745739 50.643311
v 24.145899 27.861519 41.156139
v 23.761940 28.977310 31.668989
v 12.434950 19.850201 59.742542
v 0.340050 16.673309 60.487030
v 10.524010 34.483868 62.805481
v 0.344530 30.407101 66.640373
v -11.696980 48.277439 35.364201
v -10.911430 47.841702 44.322281
v -10.125870 47.405960 53.280369
v -21.297668 41.983982 34.586861
v -21.886921 41.577381 43.696400
v -16.891710 41.181988 52.795448
v -25.661631 13.636921 39.092098
v -12.712950 11.915740 35.837650
v -22.241531 16.128351 50.903282
v -13.703099 8.786280 48.464222
v -23.496498 28.726448 31.903811
v -23.774271 27.607151 41.394249
v -22.275160 26.487850 50.884701
v 0.199070 38.797260 62.868080
v -10.008889 34.374870 62.907509
v -11.856001 19.721251 59.863239
v 15.499820 39.180492 25.492479
v 7.748870 46.012989 27.897339
v -0.002090 52.845501 30.302200
v 3.707390 43.623871 20.547180
v -0.021750 51.108891 24.473360
v 16.465080 29.384329 24.353439
v -3.710080 43.584499 20.584040
v -7.703530 45.930973 27.974119
v -15.404969 39.016441 25.646040
v -16.277451 29.210520 24.516129
v 0.004500 42.946701 15.366230

vt 0.775345 0.341683
vt 0.775876 0.247975
vt 0.859220 0.247112
vt 0.772128 0.424221
vt 0.775890 0.154291
vt 0.859827 0.141903
vt 0.875327 0.375553
vt 0.892505 0.219133
vt 0.897773 0.114296
vt 0.953133 0.141305
vt 0.949949 0.066123
vt 0.977975 0.018496
vt 0.873031 0.047317
vt 0.914347 0.327191
vt 0.946247 0.279296
vt 0.925279 0.240961
vt 0.931538 0.459675
vt 0.768930 0.471854
vt 0.800536 0.491124
vt 0.867513 0.453579
vt 0.477818 0.544580
vt 0.495999 0.473751
vt 0.457462 0.507453
vt 0.563267 0.479394
vt 0.793378 0.515313
vt 0.929596 0.495258
vt 0.990614 0.441185
vt 0.411300 0.524885
vt 0.939905 0.518219
vt 0.290756 0.676185
vt 0.333986 0.544775
vt 0.326637 0.668117
vt 0.294440 0.545074
vt 0.419736 0.674328
vt 0.359239 0.546980
vt 0.362150 0.676992
vt 0.424507 0.550840
vt 0.353113 0.548934
vt 0.354937 0.672422
vt 0.290943 0.859778
vt 0.324924 0.863033
vt 0.413481 0.864260
vt 0.355742 0.861684
vt 0.348682 0.862354
vt 0.311373 1.000258
vt 0.376172 1.002164
vt 0.159496 0.674128
vt 0.185555 0.550104
vt 0.185681 0.666147
vt 0.160294 0.542513
vt 0.284786 0.672128
vt 0.226999 0.546325
vt 0.226201 0.677940
vt 0.281807 0.552058
vt 0.215102 0.548247
vt 0.218081 0.668317
vt 0.150111 0.861017
vt 0.177469 0.863497
vt 0.280998 0.861230
vt 0.216815 0.864829
vt 0.214293 0.857419
vt 0.174267 0.992955
vt 0.240972 0.996766
vt 0.876456 0.657379
vt 0.910185 0.556160
vt 0.913662 0.658670
vt 0.876159 0.553592
vt 0.989137 0.661685
vt 0.941977 0.557404
vt 0.942685 0.660091
vt 0.991449 0.552362
vt 0.936903 0.552947
vt 0.935408 0.657873
vt 0.871892 0.848804
vt 0.899388 0.854490
vt 0.985760 0.847089
vt 0.939923 0.850417
vt 0.935080 0.844376
vt 0.891788 0.987324
vt 0.959816 0.991136
vt 0.811870 0.097918
vt 0.941640 0.180557
vt 0.977933 0.261082
vt 0.954340 0.335728
vt 0.960961 0.365731
vt 0.025670 0.875244
vt 0.023983 0.951413
vt 0.008915 0.884464
vt 0.888702 0.378592
vt 0.932696 0.369601
vt 0.967644 0.389437
vt 0.893416 0.385760
vt 0.979004 0.388825
vt 0.122691 0.772029
vt 0.105427 0.782143
vt 0.069123 0.732106
vt 0.076559 0.701409
vt 0.089433 0.808942
vt 0.055780 0.764742
vt 0.447575 0.041580
vt 0.455426 0.007181
vt 0.364876 0.024518
vt 0.386764 0.056902
vt 0.117731 0.945641
vt 0.103867 0.925337
vt 0.088386 0.917024
vt 0.511792 0.059264
vt 0.553387 0.034310
vt 0.062154 0.991654
vt 0.037597 0.984105
vt 0.036497 0.970812
vt 0.525175 0.122252
vt 0.562876 0.109196
vt 0.538257 0.138029
vt 0.692644 0.245132
vt 0.692111 0.141629
vt 0.676452 0.374359
vt 0.659497 0.216523
vt 0.653969 0.113403
vt 0.598608 0.140783
vt 0.601372 0.065256
vt 0.571845 0.018496
vt 0.678986 0.045939
vt 0.637463 0.325376
vt 0.605901 0.279694
vt 0.626699 0.241362
vt 0.608539 0.429278
vt 0.725602 0.482910
vt 0.768676 0.455537
vt 0.670790 0.428038
vt 0.013833 0.534843
vt 0.057723 0.498919
vt 0.108703 0.537752
vt 0.114337 0.623838
vt 0.727395 0.512149
vt 0.602094 0.474733
vt 0.556344 0.401069
vt 0.025928 0.446211
vt 0.587502 0.500905
vt 0.501558 0.665186
vt 0.475328 0.670746
vt 0.488643 0.557008
vt 0.510735 0.559631
vt 0.511941 0.673778
vt 0.564254 0.668997
vt 0.571052 0.562343
vt 0.526391 0.557600
vt 0.438845 0.555986
vt 0.438629 0.669967
vt 0.490638 0.863007
vt 0.465435 0.853431
vt 0.512914 0.866921
vt 0.550466 0.866819
vt 0.439943 0.863110
vt 0.464498 0.995689
vt 0.531103 0.999500
vt 0.645465 0.666359
vt 0.609423 0.665836
vt 0.609322 0.553240
vt 0.646303 0.558831
vt 0.644901 0.672566
vt 0.704038 0.670170
vt 0.704920 0.562643
vt 0.647846 0.566742
vt 0.574501 0.668755
vt 0.577814 0.562930
vt 0.641031 0.862073
vt 0.600000 0.859329
vt 0.641457 0.863412
vt 0.701931 0.862073
vt 0.568462 0.857695
vt 0.596238 0.994925
vt 0.667469 0.998524
vt 0.721119 0.672768
vt 0.757893 0.673412
vt 0.759085 0.544124
vt 0.727704 0.546469
vt 0.871675 0.666796
vt 0.802489 0.668417
vt 0.813164 0.548182
vt 0.871708 0.557439
vt 0.794309 0.670447
vt 0.792099 0.542839
vt 0.721696 0.854929
vt 0.760334 0.853734
vt 0.865583 0.855450
vt 0.803118 0.854637
vt 0.794191 0.855683
vt 0.759108 0.989579
vt 0.837549 0.987025
vt 0.740506 0.096989
vt 0.610236 0.179810
vt 0.572940 0.257297
vt 0.597908 0.334492
vt 0.594582 0.369084
vt 0.663706 0.377160
vt 0.574011 0.385040
vt 0.017354 0.698239
vt 0.077571 0.659930
vt 0.033577 0.712756
vt 0.065908 0.640817
vt 0.081021 0.683010
vt 0.049118 0.727721
vt 0.124151 0.041090
vt 0.200940 0.027137
vt 0.117444 0.009102
vt 0.180181 0.056209
vt 0.011554 0.832948
vt 0.034991 0.827342
vt 0.053450 0.820154
vt 0.064435 0.056501
vt 0.026347 0.032755
vt 0.055064 0.903823
vt 0.064933 0.894582
vt 0.079099 0.883106
vt 0.051025 0.114638
vt 0.016346 0.101972
vt 0.038659 0.129045
vt 0.925503 0.032906
vt 0.842451 0.072618
vt 0.512985 0.444113
vt 0.492284 0.459711
vt 0.475747 0.396794
vt 0.496448 0.381196
vt 0.533687 0.428515
vt 0.459209 0.333877
vt 0.776176 0.128462
vt 0.794023 0.113190
vt 0.625416 0.032217
vt 0.709746 0.071464
vt 0.073940 0.395267
vt 0.061035 0.456501
vt 0.037643 0.442369
vt 0.050548 0.381136
vt 0.086845 0.334034
vt 0.014250 0.428238
vt 0.758341 0.112725
vt 0.314099 0.254463
vt 0.355087 0.237392
vt 0.367313 0.312719
vt 0.317303 0.328713
vt 0.273111 0.271535
vt 0.272808 0.344687
vt 0.379539 0.388047
vt 0.326023 0.402942
vt 0.272506 0.417838
vt 0.488452 0.155869
vt 0.533191 0.147537
vt 0.533439 0.288026
vt 0.492907 0.267564
vt 0.443713 0.164201
vt 0.451461 0.249039
vt 0.399400 0.200796
vt 0.410174 0.281663
vt 0.419374 0.360962
vt 0.365347 0.092206
vt 0.403799 0.084931
vt 0.314748 0.129858
vt 0.274408 0.022325
vt 0.219709 0.401470
vt 0.228523 0.327334
vt 0.232299 0.253177
vt 0.166912 0.385102
vt 0.179200 0.309960
vt 0.191488 0.234818
vt 0.094962 0.247359
vt 0.053526 0.267631
vt 0.103079 0.160684
vt 0.058292 0.154110
vt 0.013878 0.287888
vt 0.013506 0.147537
vt 0.126878 0.359568
vt 0.136465 0.278653
vt 0.147283 0.197751
vt 0.273581 0.191382
vt 0.232948 0.128571
vt 0.143957 0.084931
vt 0.182552 0.090792
vt 0.367105 0.456462
vt 0.313805 0.452331
vt 0.272590 0.443412
vt 0.354671 0.524877
vt 0.313673 0.496932
vt 0.272674 0.468987
vt 0.398802 0.428704
vt 0.423478 0.492294
vt 0.231623 0.490320
vt 0.231938 0.449947
vt 0.190573 0.511653
vt 0.178742 0.448377
vt 0.125804 0.484077
vt 0.146958 0.422338
vt 0.314405 0.528232
vt 0.274139 0.531587
vt 0.232356 0.521620
vt 0.273793 0.512119

vn 0.548426 0.786132 -0.285002
vn 0.614308 0.557070 -0.558837
vn 0.229563 0.741535 0.630418
vn 0.532857 0.761424 0.369184
vn 0.642419 0.501802 -0.579217
vn 0.851551 -0.236355 -0.467971
vn 0.852632 0.364512 0.374365
vn 0.848046 0.280475 0.449613
vn 0.821333 -0.481748 0.305502
vn -0.727062 -0.686403 0.015240
vn 0.834164 -0.301667 0.461701
vn 0.866443 -0.331659 -0.373202
vn 0.892665 -0.032839 -0.449522
vn 0.660794 0.065639 -0.747691
vn -0.811410 -0.050850 -0.582261
vn -0.971810 -0.071412 -0.224689
vn -0.263881 -0.525680 0.808719
vn 0.100465 -0.152193 0.983232
vn 0.511762 0.840038 -0.180099
vn -0.695029 -0.121550 -0.708632
vn -0.631720 0.529524 -0.566158
vn -0.259370 -0.551511 0.792820
vn 0.731287 -0.652960 -0.197138
vn -0.909626 0.152081 -0.386590
vn -0.871475 0.448119 -0.199300
vn 0.676102 -0.673668 -0.298424
vn 0.641487 -0.664225 -0.383797
vn 0.232271 0.448997 0.862816
vn -0.085260 0.537531 0.838923
vn -0.409380 0.873888 -0.262160
vn -0.856664 0.177824 -0.484258
vn -0.074672 -0.890230 -0.449349
vn 0.349193 -0.932904 0.088064
vn 0.889747 -0.083989 0.448660
vn 0.399577 0.753367 0.522279
vn 0.023290 0.600206 -0.799506
vn -0.846923 -0.441221 0.296726
vn 0.941343 -0.166434 0.293554
vn -0.451409 -0.131121 -0.882631
vn -0.637086 0.351181 -0.686144
vn 0.782502 -0.534611 0.319188
vn 0.786808 -0.535186 0.307423
vn -0.679724 0.601494 0.419738
vn -0.883572 0.433700 -0.176649
vn -0.033115 0.247656 -0.968282
vn -0.185459 -0.127774 -0.974309
vn 0.303720 -0.881329 0.361957
vn 0.166194 -0.743849 0.647355
vn -0.072303 0.989531 0.124900
vn 0.048980 0.927965 0.369435
vn 0.422391 -0.348325 -0.836813
vn -0.947602 0.048405 0.315766
vn 0.851517 0.137115 0.506082
vn -0.534827 0.340802 -0.773185
vn -0.519652 0.286262 -0.804994
vn 0.673645 -0.710143 0.204695
vn 0.684052 -0.714217 0.148213
vn -0.180584 0.333660 0.925235
vn -0.825567 0.564247 -0.007989
vn 0.072757 0.848847 -0.523608
vn -0.089956 0.571864 -0.815401
vn 0.209172 -0.707789 -0.674746
vn -0.433295 -0.899407 0.057640
vn 0.081681 0.066159 0.994460
vn -0.026594 0.382872 0.923418
vn 0.863855 0.174709 -0.472473
vn -0.818256 -0.202443 -0.538028
vn 0.377174 -0.084463 0.922283
vn 0.392323 0.799702 -0.454489
vn 0.954676 0.277294 0.108178
vn 0.773463 -0.129811 0.620406
vn 0.132125 -0.987775 -0.082729
vn -0.008984 -0.999036 0.042966
vn -0.513822 -0.821909 0.245871
vn 0.032481 -0.926704 0.374386
vn -0.109713 -0.988061 -0.108162
vn -0.469768 -0.809075 -0.353152
vn 0.974170 0.164460 -0.154746
vn -0.928027 -0.050816 -0.369030
vn 0.971917 0.150572 -0.180847
vn 0.956467 0.186403 -0.224555
vn 0.263844 -0.153800 -0.952225
vn -0.249252 -0.932765 -0.260427
vn 0.895250 -0.413818 -0.165175
vn 0.264478 0.962361 -0.062553
vn 0.522965 0.748337 0.408043
vn -0.816078 -0.220996 -0.534020
vn -0.945414 0.093100 -0.312290
vn 0.726700 -0.621262 0.293157
vn 0.727861 -0.620080 0.292779
vn 0.641705 0.647411 -0.411187
vn 0.515511 0.665533 -0.539735
vn -0.983970 -0.113042 -0.137927
vn -0.987037 -0.065894 -0.146343
vn 0.466534 -0.581877 0.666157
vn 0.609400 -0.546236 0.574681
vn 0.324018 0.438108 -0.838495
vn 0.542238 0.355097 -0.761501
vn -0.835277 0.321660 0.445923
vn -0.791095 0.459488 0.403781
vn 0.307344 -0.913630 0.266122
vn 0.292058 -0.908975 0.297434
vn -0.168599 -0.623930 -0.763076
vn -0.552690 0.786426 -0.275806
vn -0.623066 0.556913 -0.549215
vn -0.228983 0.741204 0.631018
vn -0.527031 0.762018 0.376254
vn -0.620519 0.561519 -0.547405
vn -0.868987 -0.054818 -0.491789
vn -0.894586 0.337186 0.293295
vn -0.888998 0.075259 0.451685
vn -0.857838 -0.461138 0.226861
vn 0.653541 -0.736883 0.172881
vn -0.827553 -0.306439 0.470373
vn -0.818113 -0.329551 -0.471262
vn -0.829222 -0.232616 -0.508213
vn -0.296368 0.200716 -0.933745
vn 0.830879 -0.126566 -0.541868
vn 0.911107 -0.118994 -0.394619
vn 0.007472 -0.248189 0.968683
vn -0.081801 -0.149351 0.985395
vn -0.503035 0.841912 -0.195297
vn 0.803882 -0.149334 -0.575737
vn 0.683903 0.591590 -0.426964
vn 0.016219 -0.734295 0.678636
vn -0.734742 -0.652145 -0.186715
vn 0.690343 0.050140 -0.721743
vn 0.766050 0.427432 -0.480073
vn -0.791315 -0.559534 0.246460
vn -0.749016 -0.498976 -0.435887
vn 0.170228 0.461968 0.870407
vn 0.695958 0.494668 0.520525
vn -0.049402 0.850489 -0.523667
vn 0.129512 0.211841 -0.968685
vn -0.238566 -0.955204 -0.175134
vn -0.058079 -0.954997 0.290874
vn -0.047950 0.444728 0.894381
vn 0.068398 0.735586 0.673969
vn -0.847642 0.179118 -0.499419
vn 0.995302 -0.017870 -0.095151
vn -0.799907 -0.245689 0.547527
vn 0.719904 0.125147 -0.682698
vn 0.765459 0.333408 -0.550374
vn -0.830981 -0.554361 0.046424
vn -0.809534 -0.558126 0.182073
vn 0.411628 0.509274 0.755780
vn 0.905288 0.419488 -0.066962
vn -0.075706 0.814271 -0.575526
vn 0.101708 0.242645 -0.964769
vn -0.258464 -0.863368 0.433351
vn -0.316770 -0.895064 0.313873
vn -0.365837 -0.696973 0.616759
vn 0.150257 0.626460 0.764833
vn -0.989456 0.116958 0.085431
vn 0.603347 -0.239970 -0.760517
vn 0.226879 0.027634 0.973531
vn -0.090066 0.404484 -0.910100
vn -0.771805 -0.230741 -0.592516
vn -0.635970 -0.561222 0.529691
vn -0.880261 -0.416499 0.227309
vn 0.894085 0.163048 0.417167
vn 0.795392 0.230005 -0.560757
vn -0.281060 0.752638 -0.595434
vn -0.300360 0.578640 -0.758261
vn -0.500968 -0.803108 -0.322568
vn 0.218520 -0.967354 -0.128353
vn 0.408005 0.158450 0.899125
vn 0.510051 0.481650 0.712644
vn -0.996370 0.070679 0.047446
vn 0.221836 -0.437746 -0.871302
vn 0.489331 0.208695 0.846760
vn -0.392516 0.805308 -0.444308
vn -0.952819 0.277838 0.122241
vn -0.768651 -0.058366 0.637000
vn -0.132242 -0.960048 -0.246617
vn -0.033107 -0.990836 -0.130949
vn 0.597875 -0.769419 0.224809
vn -0.122797 -0.784563 0.607768
vn 0.115746 -0.984826 -0.129305
vn 0.445988 -0.822180 -0.353717
vn -0.975367 0.170473 -0.139992
vn -0.105631 -0.146184 0.983602
vn -0.968696 0.132522 -0.209920
vn -0.936958 -0.054132 -0.345222
vn -0.278439 -0.153846 -0.948052
vn 0.245190 -0.932638 -0.264706
vn -0.909133 -0.401930 -0.109219
vn -0.266386 0.961990 -0.060115
vn -0.519489 0.742982 0.422030
vn 0.821251 -0.201268 -0.533890
vn 0.941480 0.093778 -0.323762
vn -0.717586 -0.617726 0.321691
vn -0.735976 -0.598313 0.316799
vn -0.641074 0.648941 -0.409757
vn -0.523275 0.665475 -0.532284
vn 0.985362 -0.105175 -0.134167
vn 0.986612 -0.087761 -0.137456
vn -0.456873 -0.581963 0.672745
vn -0.562942 -0.557849 0.609836
vn -0.309150 0.459036 -0.832894
vn -0.552767 0.375154 -0.744116
vn 0.831779 0.024643 0.554560
vn 0.745790 0.497568 0.442971
vn -0.282289 -0.911444 0.299304
vn -0.284474 -0.912063 0.295324
vn 0.082191 -0.656614 -0.749735
vn 0.452705 -0.242521 0.858045
vn 0.903188 0.336393 0.266630
vn 0.595183 0.778603 0.198832
vn 0.407437 -0.751143 -0.519403
vn 0.379967 0.074715 -0.921978
vn -0.140919 -0.213173 -0.966799
vn 0.440401 0.047189 -0.896560
vn -0.278488 0.947605 0.156489
vn -0.439790 -0.245046 0.864024
vn -0.928740 0.345094 0.135471
vn -0.817580 0.575680 0.012457
vn 0.050051 -0.310602 -0.949222
vn -0.103109 -0.088558 -0.990720
vn -0.410101 -0.479371 -0.775900
vn 0.131548 -0.209346 -0.968953
vn 0.275322 0.948121 0.158950
vn 0.563752 0.798244 0.212109
vn 0.416422 0.889333 0.188892
vn 0.514021 0.856835 0.040213
vn 0.477996 0.876125 0.062653
vn 0.209203 -0.941877 -0.262874
vn 0.396597 -0.917910 0.012283
vn -0.125509 -0.805768 -0.578779
vn 0.178532 -0.955104 -0.236439
vn 0.975346 0.064678 0.210990
vn 0.924240 0.194337 0.328655
vn 0.987973 0.101810 -0.116380
vn 0.985386 0.164776 -0.043176
vn 0.546145 -0.356474 0.758058
vn 0.184126 -0.719397 0.669751
vn 0.724422 0.066405 0.686150
vn 0.279864 -0.279579 0.918429
vn -0.486627 0.871001 0.067460
vn -0.424202 0.884823 0.192720
vn -0.522666 0.851330 0.045369
vn -0.570752 0.791340 0.219142
vn -0.170723 -0.956958 -0.234703
vn -0.385398 -0.922641 0.014233
vn 0.128172 -0.804520 -0.579930
vn -0.201794 -0.944058 -0.260831
vn -0.987460 0.154302 -0.033371
vn -0.923058 0.184531 0.337510
vn -0.990106 0.091309 -0.106548
vn -0.973715 0.053407 0.221421
vn 0.000513 0.630112 0.776504
vn 0.365838 0.555141 0.746982
vn -0.365304 0.551019 0.750287
vn 0.002355 0.410100 0.912037
vn -0.265704 -0.281421 0.922065
vn -0.169465 -0.721561 0.671291
vn -0.718092 0.059853 0.693370
vn -0.533571 -0.362847 0.763966
vn 0.447393 0.728600 -0.518634
vn 0.463703 0.794712 -0.391679
vn 0.468647 0.777946 -0.418533
vn 0.619376 0.674379 -0.401979
vn 0.638110 0.091618 -0.764475
vn 0.739421 0.211922 -0.639020
vn -0.243241 -0.963306 -0.113472
vn 0.764460 0.108457 -0.635483
vn -0.630459 0.667743 -0.395779
vn -0.475984 0.789720 -0.387017
vn -0.481164 0.772365 -0.414649
vn -0.460238 0.723779 -0.514126
vn -0.786276 0.141404 -0.601478
vn -0.747943 0.204026 -0.631628
vn -0.646757 0.014471 -0.762559
vn -0.711808 0.143600 -0.687538
vn -0.007099 0.619774 -0.784748
vn 0.358094 0.768827 -0.529787
vn -0.369959 0.764698 -0.527605
vn -0.007269 0.744654 -0.667411

f 1/1/1 2/2/1 3/3/1
f 1/1/2 3/3/2 4/4/2
f 2/2/3 5/5/3 6/6/3
f 2/2/4 6/6/4 3/3/4
f 4/4/5 3/3/5 7/7/5
f 7/7/6 3/3/6 8/8/6
f 8/8/7 6/6/7 9/9/7
f 8/8/8 3/3/8 6/6/8
f 10/10/9 8/8/9 9/9/9
f 11/11/10 12/12/10 10/10/10
f 9/9/11 13/13/11 11/11/11
f 14/14/12 8/8/12 15/15/12
f 8/8/13 14/14/13 7/7/13
f 16/16/14 15/15/14 8/8/14
f 17/17/15 4/18/15 18/19/15
f 4/18/16 17/17/16 19/20/16
f 20/21/17 19/22/17 17/23/17
f 19/22/18 20/21/18 21/24/18
f 7/25/19 18/19/19 4/18/19
f 17/17/20 18/19/20 22/26/20
f 22/26/21 23/27/21 17/17/21
f 17/23/22 23/28/22 20/21/22
f 20/29/23 23/27/23 22/26/23
f 24/30/24 14/31/24 25/32/24
f 14/31/25 24/30/25 26/33/25
f 27/34/26 26/35/26 24/36/26
f 26/35/27 27/34/27 15/37/27
f 15/38/28 25/32/28 14/31/28
f 27/39/29 25/32/29 15/38/29
f 28/40/30 25/32/30 29/41/30
f 25/32/31 28/40/31 24/30/31
f 30/42/32 24/36/32 28/43/32
f 24/36/33 30/42/33 27/34/33
f 29/41/34 27/39/34 30/44/34
f 27/39/35 29/41/35 25/32/35
f 29/41/36 31/45/36 28/40/36
f 28/43/37 31/46/37 30/42/37
f 30/44/38 31/45/38 29/41/38
f 32/47/39 8/48/39 33/49/39
f 8/48/40 32/47/40 16/50/40
f 34/51/41 16/52/41 32/53/41
f 16/52/42 34/51/42 35/54/42
f 33/49/43 35/55/43 34/56/43
f 35/55/44 33/49/44 8/48/44
f 36/57/45 33/49/45 37/58/45
f 33/49/46 36/57/46 32/47/46
f 38/59/47 32/53/47 36/60/47
f 32/53/48 38/59/48 34/51/48
f 37/58/49 34/56/49 38/61/49
f 34/56/50 37/58/50 33/49/50
f 37/58/51 39/62/51 36/57/51
f 36/60/52 39/63/52 38/59/52
f 38/61/53 39/62/53 37/58/53
f 40/64/54 9/65/54 41/66/54
f 9/65/55 40/64/55 10/67/55
f 42/68/56 10/69/56 40/70/56
f 10/69/57 42/68/57 11/71/57
f 41/66/58 11/72/58 42/73/58
f 11/72/59 41/66/59 9/65/59
f 43/74/60 41/66/60 44/75/60
f 41/66/61 43/74/61 40/64/61
f 45/76/62 40/70/62 43/77/62
f 40/70/63 45/76/63 42/68/63
f 44/75/64 42/73/64 45/78/64
f 42/73/65 44/75/65 41/66/65
f 44/75/66 46/79/66 43/74/66
f 43/77/67 46/80/67 45/76/67
f 45/78/68 46/79/68 44/75/68
f 5/5/69 47/81/69 6/6/69
f 6/6/70 13/13/70 9/9/70
f 8/8/71 10/10/71 35/82/71
f 16/16/72 35/82/72 48/83/72
f 10/10/73 48/83/73 35/82/73
f 12/12/74 48/83/74 10/10/74
f 16/16/75 48/83/75 15/15/75
f 15/15/76 48/83/76 26/84/76
f 48/83/77 49/85/77 26/84/77
f 20/29/78 22/26/78 18/19/78
f 20/86/79 7/87/79 21/88/79
f 20/29/80 18/19/80 7/25/80
f 14/14/81 21/89/81 7/7/81
f 49/90/82 19/91/82 21/92/82
f 19/93/83 49/85/83 48/83/83
f 26/84/84 49/85/84 14/14/84
f 50/94/85 51/95/85 21/96/85
f 21/96/86 14/97/86 50/94/86
f 51/95/87 52/98/87 49/99/87
f 49/99/88 21/96/88 51/95/88
f 52/100/89 50/101/89 14/102/89
f 14/102/90 49/103/90 52/100/90
f 53/104/91 54/105/91 51/95/91
f 51/95/92 50/94/92 53/104/92
f 54/105/93 55/106/93 52/98/93
f 52/98/94 51/95/94 54/105/94
f 55/107/95 53/108/95 50/101/95
f 50/101/96 52/100/96 55/107/96
f 56/109/97 57/110/97 54/105/97
f 54/105/98 53/104/98 56/109/98
f 57/110/99 58/111/99 55/106/99
f 55/106/100 54/105/100 57/110/100
f 58/112/101 56/113/101 53/108/101
f 53/108/102 55/107/102 58/112/102
f 57/114/103 56/113/103 58/112/103
f 1/1/104 59/115/104 2/2/104
f 1/1/105 4/4/105 59/115/105
f 2/2/106 60/116/106 5/5/106
f 2/2/107 59/115/107 60/116/107
f 4/4/108 61/117/108 59/115/108
f 61/117/109 62/118/109 59/115/109
f 62/118/110 63/119/110 60/116/110
f 62/118/111 60/116/111 59/115/111
f 64/120/112 63/119/112 62/118/112
f 65/121/113 64/120/113 12/122/113
f 63/119/114 65/121/114 66/123/114
f 67/124/115 68/125/115 62/118/115
f 62/118/116 61/117/116 67/124/116
f 69/126/117 62/118/117 68/125/117
f 70/127/118 71/128/118 4/129/118
f 4/129/119 19/130/119 70/127/119
f 72/131/120 70/132/120 19/133/120
f 19/133/121 73/134/121 72/131/121
f 61/135/122 4/129/122 71/128/122
f 70/127/123 74/136/123 71/128/123
f 74/136/124 70/127/124 75/137/124
f 70/132/125 72/131/125 75/138/125
f 72/139/126 74/136/126 75/137/126
f 76/140/127 77/141/127 67/142/127
f 67/142/128 78/143/128 76/140/128
f 79/144/129 76/145/129 78/146/129
f 78/146/130 68/147/130 79/144/130
f 68/148/131 67/142/131 77/141/131
f 79/149/132 68/148/132 77/141/132
f 80/150/133 81/151/133 77/141/133
f 77/141/134 76/140/134 80/150/134
f 82/152/135 80/153/135 76/145/135
f 76/145/136 79/144/136 82/152/136
f 81/151/137 82/154/137 79/149/137
f 79/149/138 77/141/138 81/151/138
f 81/151/139 80/150/139 83/155/139
f 80/153/140 82/152/140 83/156/140
f 82/154/141 81/151/141 83/155/141
f 84/157/142 85/158/142 62/159/142
f 62/159/143 69/160/143 84/157/143
f 86/161/144 84/162/144 69/163/144
f 69/163/145 87/164/145 86/161/145
f 85/158/146 86/165/146 87/166/146
f 87/166/147 62/159/147 85/158/147
f 88/167/148 89/168/148 85/158/148
f 85/158/149 84/157/149 88/167/149
f 90/169/150 88/170/150 84/162/150
f 84/162/151 86/161/151 90/169/151
f 89/168/152 90/171/152 86/165/152
f 86/165/153 85/158/153 89/168/153
f 89/168/154 88/167/154 91/172/154
f 88/170/155 90/169/155 91/173/155
f 90/171/156 89/168/156 91/172/156
f 92/174/157 93/175/157 63/176/157
f 63/176/158 64/177/158 92/174/158
f 94/178/159 92/179/159 64/180/159
f 64/180/160 65/181/160 94/178/160
f 93/175/161 94/182/161 65/183/161
f 65/183/162 63/176/162 93/175/162
f 95/184/163 96/185/163 93/175/163
f 93/175/164 92/174/164 95/184/164
f 97/186/165 95/187/165 92/179/165
f 92/179/166 94/178/166 97/186/166
f 96/185/167 97/188/167 94/182/167
f 94/182/168 93/175/168 96/185/168
f 96/185/169 95/184/169 98/189/169
f 95/187/170 97/186/170 98/190/170
f 97/188/171 96/185/171 98/189/171
f 5/5/172 60/116/172 99/191/172
f 60/116/173 63/119/173 66/123/173
f 62/118/174 87/192/174 64/120/174
f 69/126/175 48/193/175 87/192/175
f 64/120/176 87/192/176 48/193/176
f 12/122/177 64/120/177 48/193/177
f 69/126/178 68/125/178 48/193/178
f 68/125/179 78/194/179 48/193/179
f 48/193/180 78/194/180 100/195/180
f 72/139/181 71/128/181 74/136/181
f 72/86/182 73/88/182 61/87/182
f 72/139/183 61/135/183 71/128/183
f 67/124/184 61/117/184 73/196/184
f 100/195/185 73/196/185 19/197/185
f 19/197/186 48/193/186 100/195/186
f 78/194/187 67/124/187 100/195/187
f 101/198/188 73/199/188 102/200/188
f 73/199/189 101/198/189 67/201/189
f 102/200/190 100/202/190 103/203/190
f 100/202/191 102/200/191 73/199/191
f 103/204/192 67/205/192 101/206/192
f 67/205/193 103/204/193 100/207/193
f 104/208/194 102/200/194 105/209/194
f 102/200/195 104/208/195 101/198/195
f 105/209/196 103/203/196 106/210/196
f 103/203/197 105/209/197 102/200/197
f 106/211/198 101/206/198 104/212/198
f 101/206/199 106/211/199 103/204/199
f 107/213/200 105/209/200 108/214/200
f 105/209/201 107/213/201 104/208/201
f 108/214/202 106/210/202 109/215/202
f 106/210/203 108/214/203 105/209/203
f 109/216/204 104/212/204 107/217/204
f 104/212/205 109/216/205 106/211/205
f 108/218/206 109/216/206 107/217/206
f 13/13/207 110/219/207 11/11/207
f 110/219/207 12/12/207 11/11/207
f 47/81/208 111/220/208 6/6/208
f 111/220/209 13/13/209 6/6/209
f 110/221/210 13/222/210 112/223/210
f 112/223/211 113/224/211 110/221/211
f 12/225/212 110/221/212 113/224/212
f 113/224/213 112/223/213 114/226/213
f 115/227/214 116/228/214 5/5/214
f 116/228/214 47/81/214 5/5/214
f 12/122/215 117/229/215 65/121/215
f 117/229/215 66/123/215 65/121/215
f 66/123/216 118/230/216 60/116/216
f 118/230/217 99/191/217 60/116/217
f 119/231/218 66/232/218 117/233/218
f 117/233/219 120/234/219 119/231/219
f 121/235/220 119/231/220 120/234/220
f 120/234/221 117/233/221 12/236/221
f 99/191/222 122/237/222 5/5/222
f 122/237/222 115/227/222 5/5/222
f 123/238/223 124/239/223 125/240/223 126/241/223
f 127/242/224 123/238/224 126/241/224 128/243/224
f 126/241/225 125/240/225 129/244/225 130/245/225
f 128/243/226 126/241/226 130/245/226 131/246/226
f 132/247/227 133/248/227 134/249/227 135/250/227
f 136/251/228 132/247/228 135/250/228 137/252/228
f 135/250/229 134/249/229 12/225/229 113/224/229
f 137/252/230 135/250/230 113/224/230 114/226/230
f 138/253/231 136/251/231 137/252/231 139/254/231
f 124/239/232 138/253/232 139/254/232 125/240/232
f 139/254/233 137/252/233 114/226/233 140/255/233
f 125/240/234 139/254/234 140/255/234 129/244/234
f 132/247/235 136/251/235 138/253/235 141/256/235
f 133/248/236 132/247/236 141/256/236 142/257/236
f 141/256/237 138/253/237 124/239/237 143/258/237
f 142/257/238 141/256/238 143/258/238 144/259/238
f 128/243/239 131/246/239 145/260/239 146/261/239
f 127/242/240 128/243/240 146/261/240 147/262/240
f 146/261/241 145/260/241 148/263/241 149/264/241
f 147/262/242 146/261/242 149/264/242 150/265/242
f 151/266/243 121/235/243 120/234/243 152/267/243
f 153/268/244 151/266/244 152/267/244 154/269/244
f 152/267/245 120/234/245 12/236/245 134/270/245
f 154/269/246 152/267/246 134/270/246 133/271/246
f 149/264/247 148/263/247 155/272/247 156/273/247
f 150/265/248 149/264/248 156/273/248 157/274/248
f 156/273/249 155/272/249 121/235/249 151/266/249
f 157/274/250 156/273/250 151/266/250 153/268/250
f 123/238/251 127/242/251 147/262/251 158/275/251
f 124/239/252 123/238/252 158/275/252 143/258/252
f 158/275/253 147/262/253 150/265/253 159/276/253
f 143/258/254 158/275/254 159/276/254 144/259/254
f 142/277/255 144/259/255 159/276/255 160/278/255
f 133/271/256 142/277/256 160/278/256 154/269/256
f 160/278/257 159/276/257 150/265/257 157/274/257
f 154/269/258 160/278/258 157/274/258 153/268/258
f 130/245/259 129/244/259 161/279/259 162/280/259
f 131/246/260 130/245/260 162/280/260 163/281/260
f 162/280/261 161/279/261 47/282/261 164/283/261
f 163/281/262 162/280/262 164/283/262 165/284/262
f 140/255/263 114/226/263 112/223/263 166/285/263
f 129/244/264 140/255/264 166/285/264 161/279/264
f 166/285/265 112/223/265 13/222/265 111/286/265
f 161/279/266 166/285/266 111/286/266 47/282/266
f 163/281/267 165/284/267 167/287/267 168/288/267
f 131/246/268 163/281/268 168/288/268 145/260/268
f 168/288/269 167/287/269 99/289/269 169/290/269
f 145/260/270 168/288/270 169/290/270 148/263/270
f 169/290/271 99/289/271 118/291/271 170/292/271
f 148/263/272 169/290/272 170/292/272 155/272/272
f 170/292/273 118/291/273 66/232/273 119/231/273
f 155/272/274 170/292/274 119/231/274 121/235/274
f 116/293/275 115/294/275 122/295/275 171/296/275
f 47/282/276 116/293/276 171/296/276 164/283/276
f 171/296/277 122/295/277 99/289/277 167/287/277
f 164/283/278 171/296/278 167/287/278 165/284/278

