mtllib anim_barb_idle_axe_000054.mtl

o fat
usemtl axe.001
s off

v -3.041160 89.978836 19.594810
v -3.172060 82.688583 20.269850
v -2.921370 90.097504 28.140499
v -3.172770 86.998070 26.911631
v -2.690700 89.297035 30.112230
v -2.942100 86.197594 28.883350
v -1.120570 83.314209 36.011208
v -1.970080 78.517593 30.543900
v -2.550960 96.022278 21.990940
v -0.630370 89.357651 38.407341
v -1.701450 100.818901 27.458241
v -2.669970 93.196953 29.369390
v -2.439290 92.396469 31.341110
v -0.499470 96.647919 37.732300
v -1.232240 86.940018 26.661041
v -0.980840 90.039459 27.889910
v -1.001570 86.139542 28.632759
v -0.750160 89.238983 29.861629
v -0.729430 93.138901 29.118790
v -0.498760 92.338425 31.090519
v -5.681500 56.069359 14.648880
v -5.450830 55.268890 16.620609
v -3.510290 55.210838 16.370010
v -3.740960 56.011311 14.398290
v -1.054940 99.294601 32.817768
v -8.066530 23.021210 3.834900
v -6.218320 23.064880 3.517160
v -6.356680 23.763639 1.612580
v -8.297210 23.821690 1.863170

vt 0.033358 0.643728
vt 0.190411 0.923560
vt 0.402692 0.503812
vt 0.402692 0.647326
vt 0.408249 0.287497
vt 0.408249 0.367848
vt 0.492649 0.287497
vt 0.492649 0.367848
vt 0.403043 0.503812
vt 0.403044 0.647326
vt 0.033710 0.643728
vt 0.190763 0.923560
vt 0.033358 0.363896
vt 0.033710 0.363896
vt 0.190411 0.084064
vt 0.402692 0.360297
vt 0.408249 0.207147
vt 0.492649 0.207147
vt 0.403043 0.360297
vt 0.190763 0.084064
vt 0.408248 1.036942
vt 0.492649 1.036942
vt 0.483600 0.371280
vt 0.402049 0.371280
vt 0.402049 1.040375
vt 0.483600 1.040375
vt 0.450449 0.037941
vt 0.483600 0.210579
vt 0.402049 0.210579
vt 0.442825 0.041374
vt 0.000000 1.000000

vn -0.999721 0.019223 0.013747
vn -0.991617 0.108348 -0.070408
vn -0.991329 0.029653 0.128015
vn -0.970344 -0.016899 0.241136
vn -0.973006 -0.076036 0.217894
vn -0.997043 0.075749 0.012924
vn -0.990237 0.134763 0.035631
vn -0.945871 -0.050393 0.320607
vn -0.969815 0.039691 0.240591
vn 0.945871 0.050392 -0.320606
vn 0.969815 -0.039691 -0.240591
vn 0.991329 -0.029654 -0.128017
vn 0.990237 -0.134763 -0.035632
vn 0.997043 -0.075750 -0.012925
vn 0.970344 0.016899 -0.241136
vn 0.973006 0.076036 -0.217894
vn 0.999721 -0.019223 -0.013746
vn 0.991617 -0.108348 0.070408
vn 0.045149 -0.838028 0.543756
vn -0.131407 -0.225362 -0.965373
vn -0.045153 0.838028 -0.543756
vn 0.131410 0.225362 0.965372
vn -0.107767 0.373967 -0.921160
vn 0.107772 -0.373967 0.921159
vn -0.971536 0.156995 0.177401
vn 0.992240 0.098255 -0.076196
vn 0.117844 -0.230423 0.965929
vn -0.095245 0.509018 -0.855470
vn 0.136053 -0.376161 0.916511
vn 0.993244 -0.038534 -0.109462
vn -0.071830 -0.938062 -0.338940
vn -0.041973 -0.927441 -0.371607

f 1/1/1 2/2/1 3/3/1
f 4/4/2 3/3/2 2/2/2
f 3/5/3 4/6/3 5/7/3
f 6/8/3 5/7/3 4/6/3
f 5/9/4 6/10/4 7/11/4
f 8/12/5 7/11/5 6/10/5
f 9/13/6 1/1/6 3/3/6
f 7/11/4 10/14/4 5/9/4
f 11/15/7 9/13/7 12/16/7
f 3/3/6 12/16/6 9/13/6
f 12/17/3 3/5/3 13/18/3
f 5/7/3 13/18/3 3/5/3
f 13/19/8 5/9/8 14/20/8
f 10/14/9 14/20/9 5/9/9
f 15/4/10 2/2/10 16/3/10
f 1/1/11 16/3/11 2/2/11
f 17/8/12 15/6/12 18/7/12
f 16/5/12 18/7/12 15/6/12
f 8/12/13 17/10/13 7/11/13
f 18/9/14 7/11/14 17/10/14
f 16/3/15 1/1/15 9/13/15
f 7/11/14 18/9/14 10/14/14
f 16/3/15 9/13/15 19/16/15
f 11/15/16 19/16/16 9/13/16
f 18/7/12 16/5/12 20/18/12
f 19/17/12 20/18/12 16/5/12
f 10/14/17 18/9/17 14/20/17
f 20/19/18 14/20/18 18/9/18
f 4/4/19 2/2/19 15/4/19
f 17/10/20 8/12/20 6/10/20
f 13/19/21 14/20/21 20/19/21
f 19/16/22 11/15/22 12/16/22
f 6/8/3 4/6/3 21/21/3
f 21/21/3 22/22/3 6/8/3
f 15/6/12 17/8/12 23/22/12
f 23/22/12 24/21/12 15/6/12
f 4/23/23 15/24/23 24/25/23
f 24/25/23 21/26/23 4/23/23
f 17/24/24 6/23/24 22/26/24
f 22/26/24 23/25/24 17/24/24
f 12/17/25 13/18/25 25/27/25
f 20/18/26 19/17/26 25/27/26
f 13/28/27 20/29/27 25/30/27
f 19/29/28 12/28/28 25/30/28
f 23/22/29 22/21/29 26/22/29 27/31/29
f 21/21/23 24/22/23 28/21/23 29/31/23
f 24/21/30 23/22/30 27/21/30 28/31/30
f 22/22/3 21/21/3 29/22/3 26/31/3
f 28/21/31 27/22/31 29/21/31
f 26/22/32 29/21/32 27/22/32

