mtllib anim_barb_attack_new1_body_000048.mtl

o fat
usemtl fat.001
s off

v -0.590970 31.784000 -11.105920
v 1.860240 36.144421 6.136090
v 0.784770 32.063377 -6.484920
v -0.987570 54.841419 -15.276771
v 6.016790 61.788479 -15.053149
v 1.461670 51.227169 -15.358419
v -1.076720 46.498371 -13.578650
v 8.037100 56.379883 -12.990860
v 6.863010 52.438011 -11.581650
v 6.684480 46.517868 -10.823500
v 3.262000 46.720337 -14.372450
v 4.439270 52.542091 -15.534730
v 9.422170 31.405972 -3.966850
v 8.847159 32.603699 -11.998579
v 10.141810 32.132549 -11.690399
v 7.408440 32.664867 -4.798200
v 3.993900 30.472441 -0.907420
v 2.755330 29.529810 -14.978630
v 2.410620 32.090412 -14.421149
v -0.445060 31.547562 -12.307700
v -0.872720 28.004261 -10.316500
v -1.247620 60.306149 -14.112980
v -1.567830 62.306526 -13.547489
v 1.961630 50.853008 -2.305360
v 6.279630 51.980827 -6.181010
v 7.256330 55.839600 -4.370600
v 8.990479 56.592579 -7.507750
v 6.999880 58.511436 -3.551760
v 10.660310 61.224251 -9.444250
v 4.497020 46.355328 -3.931460
v 2.254790 44.937721 -4.287050
v 2.604410 57.209057 -0.308910
v 2.355890 65.120110 -10.323690
v 6.541830 63.673969 -14.602840
v 8.848120 63.837799 -11.676300
v 3.578680 62.496609 -1.975760
v 4.519270 65.047012 -6.528080
v 1.222930 61.311832 -0.702650
v 3.206530 68.311096 -3.390800
v 2.088890 67.057053 -6.901720
v -0.944540 67.222473 -6.743870
v 0.516600 69.314720 -3.633270
v -1.900140 65.771408 -8.739340
v 0.825700 41.472820 -2.926110
v 5.364230 41.752838 -2.953230
v 8.418850 41.401100 -8.130700
v 4.980920 40.816021 -13.342700
v -0.672390 41.070370 -14.895760
v 11.583060 61.186272 -11.144810
v 6.171610 59.690369 -16.248930
v 10.424670 62.854973 -13.791141
v 8.226480 63.049820 -15.319830
v 11.858630 57.457169 -10.311460
v 4.639760 66.437439 1.596710
v 3.649610 64.586029 3.287670
v 3.971670 62.733849 -0.775560
v 3.385340 61.056282 1.253860
v 3.038210 63.286018 3.075280
v 4.228950 66.531700 3.404500
v 2.587580 66.391327 4.159740
v 4.566680 68.373222 -0.795800
v 3.666350 70.220421 4.960680
v 2.500210 70.143372 5.590380
v 4.588100 67.611099 4.249700
v 5.010500 69.647591 3.552780
v 3.682020 72.160095 2.543420
v 2.064530 72.248680 2.854210
v 2.931400 64.490463 4.049000
v 2.151390 67.062363 4.779250
v 2.156710 64.817772 5.454770
v 1.981720 64.402702 4.720710
v 1.821540 62.864769 4.383860
v 2.739480 60.252319 2.953370
v 1.545280 60.147762 3.821590
v 4.661180 70.637619 -0.201230
v 4.164210 71.991379 -0.299550
v 1.386800 72.589355 -0.552800
v 13.102050 61.213371 -13.810019
v 10.576659 62.096859 -16.422720
v 11.065021 54.015816 -17.258801
v 14.605721 55.412651 -14.655260
v 7.492210 58.535889 -17.699940
v 14.538811 52.875172 -20.511890
v 14.879410 50.042892 -23.580790
v 14.614440 50.276901 -20.575399
v 14.978170 54.949707 -23.353889
v 16.043951 57.153450 -21.522619
v 17.912069 50.891571 -23.467741
v 17.533340 56.382553 -20.108660
v 19.365250 51.253399 -20.938831
v 17.853701 53.574673 -19.734730
v 17.950550 50.722561 -18.807930
v 12.927080 56.178406 -21.543331
v 13.821340 55.713821 -22.438980
v 12.929940 60.411209 -18.684010
v 15.123400 59.415287 -16.121361
v 16.828369 54.269260 -18.343010
v 10.540080 57.342228 -20.584909
v 15.551330 43.037079 -22.084702
v 15.359430 43.119770 -20.200579
v 17.083380 43.121078 -22.367401
v 18.043449 43.322647 -20.751678
v 17.250500 43.350670 -19.296370
v 18.530361 38.976879 -16.769381
v 17.793371 38.674999 -17.233000
v 17.780540 39.471149 -18.277140
v 18.517010 40.055599 -18.501040
v 18.875540 38.904419 -19.693460
v 17.252420 41.078308 -17.052320
v 18.343081 40.358627 -17.546230
v 17.653299 39.109890 -16.118500
v 18.420910 37.558010 -16.393259
v 17.718140 37.750641 -15.969501
v 18.690580 36.727390 -19.227640
v 14.804020 38.902000 -22.379961
v 14.928270 36.937061 -22.280540
v 15.544569 34.135521 -21.714399
v 17.990860 37.312511 -18.314461
v 15.935150 36.986290 -22.590950
v 16.049280 38.904999 -22.928869
v 18.140480 34.128387 -18.303780
v 2.968100 20.189569 -6.774450
v 4.406290 18.553459 -15.375610
v 2.875130 13.773910 -10.269211
v 8.460230 20.223801 -8.880580
v 9.778240 15.554990 -13.114559
v 4.269040 20.138641 -11.144700
v 7.183400 17.258739 -6.016120
v 7.355400 12.526740 -8.409520
v 7.402250 19.589180 -4.996650
v 7.554400 22.249109 -5.928570
v 9.205310 23.497351 -11.133660
v 8.110820 27.138960 -4.731910
v 7.206870 8.693470 -21.246891
v 7.771640 6.989460 -23.363899
v 4.437070 8.637950 -23.733120
v 6.382820 5.132190 -20.452311
v 3.682590 7.540430 -20.271011
v 3.110410 5.186920 -22.594841
v 3.087980 5.373920 -27.424620
v 5.970180 6.566690 -27.866400
v 5.635150 -0.888670 -22.388010
v 11.323280 1.403020 -23.256039
v 9.308001 -1.164210 -19.118980
v 11.817130 -1.882060 -20.732290
v 8.349180 -3.822380 -19.795860
v -11.659309 57.191929 -7.595130
v -3.047000 50.846191 -14.727550
v -7.286040 53.500782 -2.353770
v -7.189980 50.251999 -6.747030
v -5.297960 45.912354 -11.339180
v -5.698480 44.891338 -6.659420
v -6.836420 51.173328 -13.080720
v -8.552111 32.886570 -5.850760
v -6.416020 32.417709 -0.906750
v -9.939840 32.263729 -6.412120
v -3.372270 36.065601 -2.294650
v -5.645610 28.681561 -10.396410
v -5.041310 31.587200 -11.621321
v -1.683440 30.377380 -11.045700
v -3.181240 50.423779 -2.658100
v -3.070140 53.955742 0.020310
v -8.193990 53.823151 -0.364700
v -2.849020 56.643711 0.846880
v -8.221880 59.633598 -1.443900
v -1.163650 44.536381 -3.572560
v -12.969280 58.780861 -4.614690
v -6.699570 63.637142 -6.919780
v -10.749440 60.674099 -2.373620
v -1.579950 62.118713 -0.270600
v -5.990150 64.023087 -3.215560
v -1.859510 68.588211 -2.288880
v -3.558680 66.859810 -5.356590
v -3.837170 41.348579 -2.098830
v -7.995350 40.962219 -7.244150
v -5.797010 39.608208 -12.950840
v -8.596730 60.551811 -1.146080
v -12.245840 53.289207 -1.639500
v -11.600970 60.280640 -1.183090
v -13.083281 57.185711 -1.241050
v -7.787110 55.741440 -0.880630
v -0.081840 64.807259 4.052060
v -1.438520 66.797798 2.841840
v -1.888690 62.504173 0.788890
v -1.037890 61.318512 2.159950
v 0.245700 63.451580 3.647320
v 1.434290 66.459702 4.396020
v -0.344340 66.802841 4.341320
v -2.089820 68.767845 0.567780
v 1.197510 70.366776 5.466410
v -0.218600 67.896072 5.234350
v -0.646390 69.982979 4.711580
v 0.455920 72.351349 3.204300
v 0.861390 64.613182 4.473040
v 0.126600 60.407219 3.488600
v -1.686300 71.013931 1.099060
v -1.117560 72.304512 0.782400
v -9.221630 60.101501 1.373780
v -12.441501 58.141460 1.309940
v -5.181390 56.806038 4.298850
v -7.004370 52.602257 3.943610
v -11.947550 53.276993 0.858910
v -6.832620 50.893192 12.977780
v -6.742260 52.691849 8.987101
v -5.943510 51.819359 9.545790
v -9.848100 53.106720 10.673190
v -9.964849 55.984749 9.585530
v -6.952970 53.418430 14.415250
v -8.063990 57.029640 9.920850
v -5.167420 55.754070 13.664590
v -3.322600 55.497608 11.497880
v -5.723110 55.586353 10.584520
v -10.374390 53.330761 7.711140
v -10.202530 53.254162 8.997180
v -11.776570 57.381458 4.841050
v -8.731939 59.170570 4.807840
v -6.035920 55.784191 7.750050
v -11.529680 52.973309 5.139740
v -0.741220 49.238510 16.789230
v 0.251340 50.163559 15.898319
v -1.455730 50.611858 18.031281
v -0.429580 52.199448 17.613251
v 0.639400 52.173218 16.395220
v 5.330620 51.509327 18.735220
v 5.367870 52.525703 18.582470
v 4.137580 51.295570 18.707560
v 3.359370 52.217690 18.786739
v 3.217170 51.553150 20.343931
v 3.880970 52.595108 17.999710
v 3.967790 52.069328 16.698801
v 5.814860 52.135700 17.655529
v 6.596940 52.031311 19.223690
v 6.827040 51.711239 18.478670
v 5.020460 50.734322 21.375219
v 2.490410 46.694687 20.895432
v 1.333150 47.184380 19.496639
v 4.456160 46.517921 22.914820
v 5.241330 50.819202 20.320700
v 2.504670 47.177929 21.372601
v 0.974290 47.889370 20.399429
v 7.204070 49.804302 22.459061
v -5.413820 18.180031 -2.735620
v -0.266390 24.221581 3.044120
v -2.041200 16.220730 0.919500
v -9.341810 17.872360 1.606180
v -6.261620 24.489611 3.231940
v -3.359940 24.262020 0.156050
v -3.840100 22.284620 5.742910
v -5.132650 15.818239 4.814260
v -3.492230 24.562450 6.297590
v -3.135840 26.771490 5.250600
v -7.444460 27.665270 2.448980
v -3.561090 32.550072 1.371590
v -10.925440 4.490860 -1.387670
v -9.434950 7.247610 -0.719040
v -8.370420 5.053720 -4.135930
v -8.070860 5.110590 1.071920
v -6.039040 3.412650 -1.793560
v -5.900850 6.448080 -1.051380
v -7.786610 -0.019580 -4.649040
v -10.830610 0.652080 -4.393290
v -6.399880 -0.061940 3.693460
v -12.413389 1.437220 4.244550
v -8.421499 3.326380 7.333170
v -10.973860 1.877250 8.227221
v -6.973890 1.156510 8.613590

vt 0.550479 0.485338
vt 0.414517 0.485338
vt 0.489174 0.497239
vt 0.490853 0.675485
vt 0.356970 0.710738
vt 0.458986 0.602657
vt 0.458693 0.603155
vt 0.491001 0.506534
vt 0.357039 0.710738
vt 0.272881 0.708251
vt 0.307767 0.663467
vt 0.329118 0.504113
vt 0.420682 0.504388
vt 0.307693 0.663467
vt 0.420389 0.504181
vt 0.390374 0.619683
vt 0.389206 0.622726
vt 0.390855 0.620128
vt 0.309151 0.663075
vt 0.578845 0.971377
vt 0.529882 0.993867
vt 0.501054 0.950636
vt 0.597833 0.993868
vt 0.684209 0.993870
vt 0.691613 0.940228
vt 0.584242 0.936155
vt 0.602549 0.993867
vt 0.689094 0.993870
vt 0.694409 0.971380
vt 0.730001 0.975635
vt 0.490853 0.781888
vt 0.490853 0.820915
vt 0.240556 0.660920
vt 0.133663 0.660928
vt 0.131880 0.753091
vt 0.060606 0.782384
vt 0.055577 0.663688
vt 0.136145 0.808744
vt 0.060014 0.783494
vt 0.058190 0.859642
vt 0.160773 0.512959
vt 0.067037 0.515196
vt 0.240700 0.512959
vt 0.131877 0.752996
vt 0.240556 0.781375
vt 0.390182 0.870896
vt 0.298691 0.847983
vt 0.294173 0.886121
vt 0.181129 0.899551
vt 0.052544 0.886601
vt 0.145152 0.921474
vt 0.235241 0.891030
vt 0.142740 0.921054
vt 0.172936 0.966074
vt 0.456563 0.999059
vt 0.389917 0.922986
vt 0.429989 0.941889
vt 0.491140 0.942697
vt 0.490646 0.999330
vt 0.490853 0.898039
vt 0.701416 0.118225
vt 0.813217 0.120956
vt 0.790107 0.184348
vt 0.877923 0.002315
vt 0.872775 0.120438
vt 0.505869 0.118716
vt 0.564263 0.119120
vt 0.507564 0.183764
vt 0.697589 0.180917
vt 0.580429 0.182675
vt 0.710756 0.001536
vt 0.701372 0.182427
vt 0.812168 0.002315
vt 0.857243 0.184348
vt 0.697567 0.116528
vt 0.503935 0.000692
vt 0.561277 0.000692
vt 0.688827 -0.000098
vt 0.002866 0.854679
vt 0.027518 0.706813
vt 0.061197 0.782654
vt 0.055608 0.663958
vt 0.251604 0.781884
vt 0.357109 0.710738
vt 0.243886 0.876138
vt 0.247300 0.848527
vt -0.000514 0.880403
vt 0.006948 0.782948
vt 0.674684 0.829607
vt 0.705811 0.784366
vt 0.654033 0.662928
vt 0.703232 0.671848
vt 0.720473 0.730776
vt 0.697736 0.853617
vt 0.729837 0.853035
vt 0.623758 0.856571
vt 0.587609 0.811448
vt 0.658187 0.605708
vt 0.748523 0.593788
vt 0.716351 0.931575
vt 0.747491 0.935506
vt 0.695349 0.885675
vt 0.676247 0.904603
vt 0.649719 0.961956
vt 0.745560 1.001324
vt 0.725611 0.781438
vt 0.747491 0.878462
vt 0.747491 0.808438
vt 0.720379 0.731031
vt 0.747491 0.790807
vt 0.720762 0.730332
vt 0.748639 0.732530
vt 0.746944 0.628012
vt 0.703659 0.671442
vt 0.731857 0.666086
vt 0.747085 0.666819
vt 0.703186 0.671176
vt 0.611291 0.885598
vt 0.604148 0.909350
vt 0.550618 0.823662
vt 0.550618 0.934468
vt 0.625864 0.557513
vt 0.571978 0.557920
vt 0.578607 0.510287
vt 0.669444 0.510287
vt 0.756032 0.560223
vt 0.679695 0.557918
vt 0.877240 0.461159
vt 0.992418 0.461159
vt 0.944262 0.560223
vt 0.756457 0.510287
vt 0.806202 0.560223
vt 0.498275 0.560223
vt 0.875566 0.382888
vt 0.758260 0.308662
vt 0.875912 0.308662
vt 0.759996 0.360654
vt 0.669163 0.382888
vt 0.671223 0.308662
vt 0.584325 0.382888
vt 0.577057 0.308662
vt 0.498223 0.363687
vt 0.498247 0.308662
vt 0.992597 0.308662
vt 0.992439 0.363687
vt 0.759483 0.410364
vt 0.758924 0.382888
vt 0.665903 0.461159
vt 0.580075 0.461159
vt 0.498223 0.402657
vt 0.992438 0.402657
vt 0.760539 0.449273
vt 0.498220 0.461159
vt 0.875438 0.575163
vt 0.762705 0.196431
vt 0.858161 0.196355
vt 0.690657 0.196417
vt 0.588027 0.196417
vt 0.498144 0.196431
vt 0.991918 0.196431
vt 0.375723 0.009258
vt 0.380090 0.017573
vt 0.356438 0.030356
vt 0.342839 0.029458
vt 0.369327 0.043627
vt 0.316032 0.012201
vt 0.336848 0.019568
vt 0.249292 0.041099
vt 0.371147 0.002582
vt 0.416197 0.004791
vt 0.408124 0.000758
vt 0.128136 0.016613
vt 0.154876 0.002573
vt 0.119423 0.002194
vt 0.160447 0.001473
vt 0.065726 0.014292
vt 0.105093 0.028910
vt 0.000825 0.069213
vt 0.000703 0.039244
vt 0.249314 0.055441
vt 0.429228 0.045736
vt 0.102506 0.115410
vt 0.153549 0.117195
vt 0.189513 0.114692
vt 0.228429 0.109580
vt 0.194639 0.033982
vt 0.406548 0.108121
vt 0.355355 0.108206
vt 0.448349 0.035630
vt 0.498209 0.039288
vt 0.461840 0.047992
vt 0.483032 0.114221
vt 0.406174 0.120334
vt 0.355217 0.119080
vt 0.243215 0.037501
vt 0.249314 0.089732
vt 0.000703 0.095058
vt 0.249292 0.105039
vt 0.160984 0.032072
vt 0.413806 0.033644
vt 0.442212 0.108407
vt 0.443088 0.117732
vt 0.023914 0.327327
vt 0.104127 0.227894
vt 0.000784 0.227894
vt 0.216171 0.327327
vt 0.216985 0.228421
vt 0.105699 0.228145
vt 0.104981 0.327662
vt 0.217575 0.327327
vt 0.351490 0.301452
vt 0.217290 0.227894
vt 0.351571 0.227894
vt 0.352420 0.301452
vt 0.489174 0.227894
vt 0.352342 0.227894
vt 0.471690 0.333380
vt 0.351597 0.328057
vt 0.217345 0.328075
vt 0.352312 0.363299
vt 0.470864 0.334174
vt 0.352330 0.328057
vt 0.216660 0.380224
vt 0.216104 0.328075
vt 0.104983 0.328371
vt 0.217232 0.380224
vt 0.351611 0.363299
vt 0.351459 0.420971
vt 0.352499 0.420971
vt 0.351589 0.497239
vt 0.229465 0.497239
vt 0.352627 0.497239
vt 0.229583 0.497239
vt 0.133020 0.497239
vt 0.072972 0.497239
vt 0.025422 0.328212
vt 0.002386 0.497239
vt 0.216130 0.152222
vt 0.223982 0.125749
vt 0.105883 0.155747
vt 0.351732 0.147623
vt 0.223132 0.128232
vt 0.218721 0.149411
vt 0.469070 0.149411
vt 0.483427 0.127273
vt 0.352306 0.146326
vt 0.017963 0.152222
vt 0.104256 0.155747
vt 0.009616 0.131504
vt 0.104128 0.227914
vt 0.000790 0.227921
vt 0.216984 0.228396
vt 0.351571 0.227971
vt 0.217291 0.227882
vt 0.352342 0.227879
vt 0.489111 0.227891
vt 0.948232 0.041698
vt 0.989968 0.003451
vt 0.971575 0.059997
vt 0.909211 0.004273
vt 0.996004 0.120663
vt 0.925604 0.058708
vt 0.885225 0.122889
vt 0.516483 0.798440
vt 0.501430 0.685191
vt 0.597947 0.686709
vt 0.594444 0.793024
vt 0.950876 0.082499
vt 0.943924 0.157220
vt 0.507177 0.624822
vt 0.600053 0.622523
vt 0.901715 0.182549
vt 0.982420 0.184037
vt 0.730212 0.975635
vt 0.685579 0.991654
vt 0.692830 0.969164

vn 0.750900 0.606974 -0.260253
vn 0.005691 0.026439 -0.999634
vn -0.306610 -0.186694 -0.933347
vn 0.033250 -0.345213 -0.937935
vn 0.712278 -0.110251 -0.693185
vn -0.159755 -0.271454 -0.949100
vn 0.031119 -0.201735 -0.978946
vn 0.845280 -0.117059 -0.521344
vn -0.088366 0.066839 -0.993843
vn 0.818400 -0.267079 -0.508813
vn -0.314683 -0.941843 -0.117923
vn -0.500055 -0.861029 -0.092601
vn -0.217843 -0.756045 -0.617204
vn -0.313178 -0.263809 0.912318
vn -0.324704 -0.242734 0.914138
vn 0.712506 0.276426 0.644922
vn 0.603552 -0.091197 0.792091
vn 0.958493 -0.218570 -0.183082
vn -0.172976 0.242193 -0.954684
vn 0.658793 -0.449713 0.603117
vn 0.867374 -0.494954 0.051795
vn 0.866011 -0.108101 0.488199
vn 0.651125 0.094796 0.753027
vn 0.938787 -0.180031 0.293715
vn 0.048905 -0.315099 0.947798
vn 0.576796 -0.297319 0.760860
vn -0.611880 0.340846 -0.713741
vn -0.165421 0.197886 -0.966166
vn 0.842837 -0.388204 0.372725
vn 0.155164 0.971959 -0.176689
vn 0.617625 -0.175661 0.766604
vn -0.066829 0.790606 -0.608667
vn 0.879646 -0.060166 0.471809
vn 0.705668 0.365841 0.606789
vn 0.608461 0.715341 0.343601
vn 0.524175 0.254493 0.812696
vn 0.458399 0.042462 0.887731
vn 0.955055 0.126382 0.268136
vn 0.613398 0.661459 -0.431527
vn 0.321141 0.709060 -0.627776
vn 0.033162 0.937821 -0.345532
vn 0.616471 0.625733 0.477935
vn 0.176688 0.980860 -0.081817
vn 0.629097 0.696496 -0.345152
vn -0.051526 0.867375 -0.494981
vn 0.013123 0.805705 -0.592172
vn -0.095149 0.804481 -0.586308
vn -0.006903 0.206649 0.978391
vn 0.859650 -0.035922 0.509619
vn 0.835071 -0.006448 -0.550104
vn -0.165026 -0.215886 -0.962372
vn -0.005168 0.179055 0.983826
vn -0.423783 0.477180 0.769875
vn 0.928205 0.352313 0.119629
vn 0.768595 0.481933 0.420717
vn 0.924201 0.237676 0.298936
vn 0.719480 0.089341 -0.688743
vn 0.267037 0.245984 -0.931763
vn 0.763287 0.350361 -0.542808
vn 0.389366 0.056478 -0.919350
vn 0.267522 0.086350 -0.959675
vn -0.735763 -0.213918 -0.642567
vn 0.475288 0.100779 0.874040
vn 0.625476 0.710003 0.323536
vn 0.931809 -0.330873 -0.149184
vn -0.643433 0.342656 -0.684530
vn 0.871980 -0.115466 0.475729
vn 0.253747 0.935565 -0.245624
vn 0.670219 0.724006 0.163162
vn -0.234598 0.389781 -0.890525
vn 0.243638 0.938531 -0.244541
vn -0.927079 -0.234907 0.292135
vn 0.278562 -0.960353 -0.011181
vn 0.649972 0.211173 0.730029
vn 0.929030 -0.303317 0.211901
vn 0.657882 -0.412366 0.630194
vn 0.423840 -0.179510 0.887770
vn 0.987857 -0.104641 -0.114841
vn 0.884874 -0.055911 -0.462462
vn 0.951207 -0.101408 -0.291412
vn 0.459866 -0.887640 0.024878
vn 0.477549 -0.069945 0.875817
vn 0.980707 -0.170991 0.094742
vn 0.994492 -0.064528 -0.082588
vn 0.160941 0.769269 0.618323
vn 0.718807 0.089850 0.689379
vn 0.871551 0.130100 0.472729
vn 0.880656 0.138441 0.453077
vn 0.685944 -0.419717 0.594406
vn 0.529150 -0.504593 0.682193
vn 0.252841 0.785834 0.564390
vn 0.262659 -0.273354 0.925358
vn 0.356876 -0.847048 0.393890
vn 0.748780 -0.215294 0.626879
vn 0.381229 -0.763627 -0.521093
vn 0.975727 -0.159507 0.150047
vn -0.091388 -0.965957 -0.242025
vn 0.744524 -0.099839 0.660088
vn 0.945107 -0.105493 0.309265
vn 0.210315 -0.912219 -0.351601
vn 0.586096 -0.220916 0.779544
vn 0.881660 0.085076 -0.464153
vn 0.797285 0.252884 -0.548075
vn 0.861149 -0.458476 0.219596
vn 0.363898 -0.646286 0.670740
vn 0.929724 -0.290430 0.226416
vn 0.292984 -0.538768 0.789867
vn 0.703781 0.551853 0.447383
vn 0.995169 -0.016105 -0.096848
vn 0.938652 0.344848 0.003603
vn 0.858092 0.500256 0.115851
vn 0.736627 0.077142 0.671885
vn 0.283006 0.572627 -0.769419
vn 0.205447 0.641048 -0.739493
vn 0.205180 0.977070 0.056887
vn 0.044724 0.997665 -0.051620
vn 0.994230 -0.016407 0.106009
vn 0.501130 0.813940 0.293888
vn -0.252362 0.398255 -0.881877
vn 0.258939 0.932023 -0.253542
vn 0.029642 -0.897037 0.440959
vn 0.509879 0.834015 -0.210814
vn -0.337226 0.562783 -0.754688
vn -0.758789 -0.620985 -0.196512
vn 0.855027 0.172476 0.489062
vn -0.995957 -0.026897 -0.085713
vn -0.990628 0.026137 -0.134066
vn 0.861013 0.006187 -0.508545
vn -0.043887 0.284397 -0.957702
vn 0.731987 0.391569 -0.557556
vn 0.785023 0.361765 -0.502857
vn 0.788351 0.214183 0.576740
vn 0.760538 0.170216 0.626585
vn -0.479026 0.256525 0.839482
vn -0.222090 -0.030285 0.974556
vn -0.673995 -0.498961 -0.544765
vn -0.728338 -0.501254 -0.467192
vn -0.230616 0.750363 -0.619493
vn -0.167239 0.551960 -0.816928
vn 0.603357 0.766995 -0.218356
vn 0.603883 0.766648 -0.218121
vn 0.831628 0.165479 0.530106
vn 0.107252 -0.929517 0.352840
vn -0.759938 -0.619793 -0.195833
vn -0.533883 -0.638518 -0.554314
vn -0.059667 0.558797 -0.827155
vn -0.330404 0.558966 -0.760519
vn 0.468953 0.868696 -0.159529
vn 0.552282 0.819247 -0.154333
vn 0.866306 0.155393 0.474728
vn 0.791057 0.117584 0.600336
vn -0.063378 -0.891389 0.448787
vn -0.133785 0.670846 -0.729429
vn -0.715260 -0.507185 -0.480798
vn 0.069829 -0.871065 0.486179
vn 0.881719 0.092399 0.462637
vn 0.122246 -0.888591 0.442111
vn 0.863881 0.070929 0.498677
vn -0.350303 0.674995 -0.649361
vn -0.669771 -0.575239 -0.469582
vn -0.989498 -0.108027 -0.096042
vn -0.990615 -0.111801 -0.078631
vn -0.165233 -0.221101 -0.961152
vn 0.078154 -0.147943 -0.985903
vn 0.865631 -0.159520 -0.474591
vn 0.857704 -0.154523 -0.490374
vn 0.869155 -0.133624 0.476146
vn 0.840548 -0.114898 0.529413
vn -0.466617 -0.014284 0.884344
vn -0.431598 0.002317 0.902063
vn 0.578313 -0.645304 -0.499136
vn 0.584679 -0.488676 0.647569
vn 0.617932 0.552718 0.559163
vn 0.576613 0.443078 0.686440
vn 0.598191 0.452798 0.661167
vn 0.603796 0.160410 0.780833
vn 0.536185 0.117214 0.835922
vn 0.864051 -0.152598 -0.479718
vn 0.586790 -0.249471 -0.770352
vn -0.993064 -0.058550 -0.101956
vn -0.505697 -0.681650 -0.528795
vn -0.975495 -0.216710 -0.038032
vn -0.967458 -0.206799 -0.145802
vn -0.862321 -0.454104 0.224036
vn -0.391973 0.646265 0.654751
vn 0.758058 0.512642 0.403170
vn 0.801094 0.059377 0.595587
vn -0.807836 -0.021278 0.589023
vn -0.788250 -0.049454 0.613364
vn 0.750586 -0.198618 -0.630216
vn 0.743571 -0.158635 -0.649566
vn 0.805297 0.039824 0.591533
vn 0.742531 -0.358324 -0.565908
vn -0.290970 -0.066689 -0.954405
vn -0.399335 -0.135930 -0.906672
vn -0.795269 -0.035340 0.605226
vn 0.856948 0.038285 -0.513979
vn -0.778736 -0.203999 0.593258
vn -0.976973 0.184246 -0.107594
vn -0.187928 0.174807 -0.966502
vn 0.646082 -0.685675 0.335303
vn 0.749588 -0.096651 -0.654811
vn -0.399828 0.136971 -0.906298
vn 0.970494 0.215371 0.108432
vn 0.974032 0.205961 0.094027
vn -0.784481 -0.087046 0.614013
vn 0.812778 0.069189 0.578450
vn 0.729122 -0.290439 -0.619699
vn -0.274296 -0.248095 -0.929091
vn -0.975982 0.114950 -0.185058
vn 0.572625 0.633525 -0.520334
vn 0.165569 0.925261 -0.341292
vn 0.932972 -0.058678 0.355133
vn 0.915343 -0.154755 0.371749
vn -0.445035 -0.417011 0.792493
vn -0.438067 -0.425112 0.792072
vn 0.954722 -0.189855 0.229044
vn -0.312465 0.329963 0.890780
vn 0.396259 -0.580039 -0.711712
vn 0.953882 -0.010632 0.299994
vn 0.950159 -0.171788 0.260166
vn -0.076233 -0.228824 0.970478
vn 0.962473 0.039036 0.268555
vn -0.389301 -0.338236 0.856762
vn -0.783828 0.572722 -0.240005
vn 0.973007 0.125995 0.193347
vn -0.245063 -0.019521 0.969311
vn 0.988862 0.052133 0.139407
vn 0.356470 -0.074438 -0.931337
vn 0.163471 -0.237106 -0.957632
vn -0.530029 -0.299861 -0.793192
vn -0.883253 -0.391293 -0.258367
vn -0.279276 -0.074695 0.957301
vn -0.958765 -0.181626 0.218591
vn 0.428596 0.756242 -0.494371
vn 0.925004 -0.134776 0.355251
vn -0.458351 -0.565542 0.685621
vn -0.939335 0.327865 -0.100770
vn 0.558030 0.535814 -0.633645
vn -0.975830 0.139059 -0.168576
vn -0.976794 0.137270 -0.164410
vn 0.563538 0.534918 -0.629513
vn 0.865039 -0.483387 0.134332
vn 0.975423 -0.213967 0.052606
vn -0.572832 -0.677068 0.461997
vn -0.409806 -0.788618 0.458411
vn -0.931197 0.364050 0.018421
vn -0.392986 0.755415 -0.524318
vn -0.923262 -0.384025 -0.010580
vn 0.789669 0.495043 -0.362431
vn 0.116559 -0.591505 -0.797832
vn 0.122502 -0.591254 -0.797127
vn 0.670424 0.437795 0.599055
vn 0.450888 0.853702 -0.260562
vn -0.539405 -0.196276 0.818852
vn 0.670523 0.438270 0.598597
vn -0.663396 -0.153097 0.732439
vn 0.117337 -0.593860 -0.795966
vn 0.117896 -0.594036 -0.795752
vn 0.555956 0.557337 0.616675
vn 0.427466 -0.364818 0.827152
vn -0.662045 0.048356 0.747902
vn 0.175329 -0.915531 -0.362027
vn -0.550414 0.171396 -0.817110
vn 0.127177 -0.199132 -0.971685
vn -0.809673 -0.480199 0.337400
vn -0.953330 -0.267533 -0.139961
vn -0.387003 -0.395482 -0.832960
vn -0.395054 -0.390748 -0.831414
vn -0.826980 -0.547960 -0.125873
vn -0.310917 0.492014 -0.813175
vn -0.946023 -0.309005 -0.097759
vn 0.486763 -0.824517 -0.288501
vn 0.651655 -0.675216 -0.345585
vn -0.058377 -0.312073 -0.948263
vn 0.042665 -0.719661 0.693013
vn 0.857469 0.037984 0.513131
vn 0.026901 0.302002 0.952928
vn -0.016723 0.391353 0.920089
vn -0.850007 -0.133835 0.509486
vn -0.555495 0.142659 -0.819191
vn -0.004231 -0.604153 0.796857
vn -0.378411 -0.831877 0.405939
vn -0.303490 0.172589 0.937074
vn -0.053203 -0.171045 0.983826
vn -0.551535 -0.309335 0.774675
vn 0.228740 -0.299026 0.926424
vn 0.232751 -0.312784 0.920866
vn -0.625452 0.540286 -0.562940
vn -0.556161 0.147705 -0.817844
vn -0.044267 -0.602766 0.796689
vn -0.621914 0.781823 -0.044455
vn 0.227554 -0.303267 0.925337
vn -0.613699 0.533264 -0.582239
vn -0.064320 -0.288478 0.955324
vn -0.258486 0.250349 0.933011
vn -0.148202 0.434015 0.888632
vn 0.189195 0.156733 0.969350
vn 0.193422 0.152969 0.969117
vn -0.462678 0.245738 0.851788
vn -0.744735 0.666330 0.037079
vn -0.447416 0.825163 -0.344856
vn -0.301870 0.892342 -0.335559
vn -0.326595 0.491817 0.807126
vn -0.572438 0.819590 0.024235
vn -0.731001 0.678852 0.069266
vn -0.501802 0.720920 -0.477985
vn -0.347089 0.829723 -0.437138
vn -0.504088 0.683775 -0.527586
vn 0.158770 0.301483 0.940160
vn -0.765486 0.228650 0.601457
vn -0.758596 0.504771 -0.411994
vn -0.480588 0.252725 -0.839741
vn 0.164485 0.223670 0.960685
vn 0.160819 0.302660 0.939433
vn -0.807021 0.300858 0.508135
vn -0.741689 0.348266 0.573243
vn -0.398298 0.638492 0.658549
vn -0.993393 0.095072 -0.064278
vn -0.395062 0.188728 -0.899059
vn -0.906484 0.165481 -0.388461
vn -0.740601 -0.162676 -0.651956
vn -0.290083 -0.221663 -0.930977
vn -0.031056 -0.330161 -0.943414
vn 0.023532 0.125590 0.991803
vn 0.463771 0.438944 -0.769574
vn -0.725264 0.545879 -0.419532
vn -0.926699 -0.265934 -0.265532
vn 0.778839 0.118150 0.615996
vn -0.804301 0.393557 -0.445211
vn -0.090054 0.963038 0.253868
vn -0.972493 -0.196163 -0.125611
vn -0.763433 0.593494 0.254823
vn -0.043731 -0.833633 -0.550585
vn -0.902201 0.077233 -0.424344
vn -0.485771 -0.129460 -0.864446
vn -0.794927 -0.191858 0.575570
vn -0.400463 -0.349620 0.846992
vn -0.059447 -0.150854 0.986767
vn -0.965984 -0.021923 0.257669
vn -0.994873 -0.066705 -0.076015
vn -0.963131 -0.040317 -0.265995
vn -0.226825 -0.934617 0.273937
vn -0.100732 -0.035650 0.994275
vn -0.877652 -0.060813 0.475424
vn -0.947655 0.050615 0.315260
vn 0.182618 0.767980 0.613887
vn -0.375931 0.154744 0.913636
vn -0.595706 0.217078 0.773312
vn -0.610785 0.226860 0.758601
vn -0.440933 -0.352906 0.825248
vn -0.273010 -0.457029 0.846516
vn 0.079443 0.796113 0.599910
vn 0.091818 -0.263225 0.960355
vn -0.267544 -0.810025 0.521804
vn -0.462393 -0.143491 0.874987
vn -0.484323 -0.787732 -0.380670
vn -0.863043 -0.036723 0.503794
vn -0.120032 -0.963486 -0.239349
vn -0.432400 -0.030068 0.901180
vn -0.753653 -0.004783 0.657256
vn -0.365719 -0.885445 -0.286771
vn -0.254684 -0.171068 0.951773
vn -0.976178 0.196924 -0.091086
vn -0.913180 0.352035 -0.205364
vn -0.752168 -0.362837 0.550084
vn -0.142707 -0.616258 0.774507
vn -0.793048 -0.188293 0.579328
vn -0.019059 -0.520251 0.853801
vn -0.404640 0.617565 0.674448
vn -0.948368 0.099117 0.301286
vn -0.816465 0.448904 0.363138
vn -0.681305 0.591520 0.431194
vn -0.400493 0.144562 0.904824
vn -0.524623 0.602125 -0.601844
vn -0.403112 0.681593 -0.610682
vn -0.054226 0.992448 0.110026
vn 0.052082 0.997229 -0.053124
vn -0.698170 -0.182941 0.692164
vn -0.090707 0.984000 0.153349
vn -0.919846 -0.230176 0.317651
vn -0.900437 0.430039 0.065415
vn 0.865189 -0.344391 -0.364476
vn -0.462419 0.743928 0.482431
vn -0.986867 -0.111083 0.117282
vn 0.041206 -0.999103 -0.009809
vn 0.948025 0.174251 0.266242
vn -0.569491 -0.744490 -0.348446
vn -0.328671 -0.858219 -0.394253
vn -0.427200 0.304419 0.851369
vn -0.874851 -0.270452 0.401861
vn -0.458398 0.634055 0.622773
vn -0.523913 0.596074 0.608450
vn 0.061686 0.995953 -0.065361
vn 0.548589 0.823630 -0.143821
vn 0.353529 0.229378 -0.906865
vn 0.676435 0.158735 -0.719194
vn -0.182355 -0.982864 0.026935
vn -0.160395 -0.986347 -0.037322
vn -0.989133 0.056889 0.135569
vn -0.938954 -0.089688 0.332146
vn -0.459299 0.789185 0.407714
vn -0.495469 0.776268 0.389767
vn 0.524503 0.851407 0.001540
vn 0.909016 -0.403130 0.105714
vn -0.048290 -0.989119 -0.138969
vn -0.039924 -0.987083 0.155154
vn -0.910720 -0.023065 0.412380
vn -0.980465 -0.114395 0.160006
vn -0.504374 0.819723 0.271404
vn -0.482081 0.825818 0.292613
vn 0.736745 0.485660 -0.470469
vn 0.562670 0.814636 0.140604
vn 0.974207 0.225366 -0.011418
vn -0.976875 0.039767 0.210081
vn -0.160327 -0.985651 -0.052803
vn 0.955418 -0.267893 -0.124139
vn 0.666246 0.714875 0.212297
vn 0.969689 -0.239948 -0.046133
vn 0.552395 0.752095 0.359461
vn -0.994389 -0.049354 0.093565
vn -0.097558 -0.993362 -0.060945
vn 0.301170 -0.809123 -0.504595
vn -0.084580 -0.956274 -0.279977
vn -0.502311 -0.708995 0.494985
vn -0.637665 -0.403808 0.655990
vn -0.292134 0.487730 0.822665
vn -0.352583 0.444694 0.823367
vn 0.384406 0.866404 0.318711
vn 0.418692 0.872097 0.253267
vn 0.716763 -0.149225 -0.681163
vn 0.719776 0.032474 -0.693447
vn -0.049812 0.150221 0.987397
vn 0.737174 0.594560 0.321051
vn 0.062710 0.926762 -0.370378
vn 0.136146 0.934920 -0.327704
vn 0.183001 0.915665 -0.357865
vn 0.439153 0.884019 -0.160172
vn 0.512896 0.834773 -0.200228
vn -0.317281 0.404538 0.857719
vn -0.409115 0.150257 0.900027
vn 0.033460 -0.870937 -0.490254
vn 0.193455 -0.878359 0.437105
vn 0.240926 -0.882500 -0.403916
vn 0.172307 -0.914235 -0.366720
vn 0.486032 -0.800966 -0.349609
vn 0.095431 0.221531 -0.970473
vn -0.082648 0.992145 -0.093901
vn 0.379783 0.922543 0.068402
vn 0.566225 -0.510462 -0.647161
vn 0.602880 -0.489854 -0.629745
vn -0.382669 0.270048 0.883538
vn -0.423091 0.272100 0.864266
vn 0.326605 0.934189 0.143600
vn -0.286052 0.362211 0.887117
vn -0.760312 -0.444895 0.473280
vn -0.569600 -0.742183 0.353158
vn 0.497254 -0.512832 -0.699815
vn -0.463610 0.493433 0.735927
vn 0.594183 -0.522663 -0.611367
vn 0.111349 -0.748771 -0.653410
vn -0.803687 -0.570654 0.168647
vn 0.617507 0.466774 0.633094
vn -0.471002 0.300899 0.829227
vn -0.788497 -0.595968 0.151969
vn -0.117496 0.923558 0.365015
vn -0.122141 0.916839 0.380115
vn 0.635434 -0.505186 -0.583961
vn 0.231848 0.964531 0.126195
vn -0.502760 0.355071 0.788135
vn -0.627147 -0.537825 0.563410
vn 0.738850 0.015004 -0.673703
vn -0.675577 0.456677 -0.578828
vn -0.611832 0.498575 -0.614072
vn -0.657807 0.123659 0.742966
vn -0.604203 0.006342 0.796805
vn 0.772443 -0.238909 0.588433
vn 0.675824 -0.325521 0.661285
vn -0.740527 -0.050096 0.670157
vn 0.705453 0.207401 0.677732
vn -0.680098 -0.404126 -0.611677
vn -0.544545 0.003959 0.838723
vn -0.401534 0.489888 0.773808
vn 0.755366 0.402644 0.517011
vn -0.685022 0.399315 0.609337
vn 0.669271 -0.270706 0.691949
vn 0.678641 0.115669 -0.725305
vn -0.675137 0.549518 0.492159
vn 0.812522 0.399280 0.424715
vn -0.637900 0.610628 0.469273
vn -0.720825 -0.625976 -0.297598
vn -0.704371 -0.643476 -0.299666
vn -0.219019 -0.842251 -0.492588
vn 0.365525 -0.838904 -0.403276
vn 0.810283 0.405508 0.423091
vn 0.841108 -0.459478 -0.285337
vn -0.683351 0.498781 -0.533150
vn -0.664226 0.183356 0.724696
vn 0.744031 -0.190459 0.640425
vn 0.745850 0.125974 -0.654093
vn -0.871440 0.241811 -0.426755
vn 0.800473 -0.117603 -0.587718
vn 0.692779 -0.130577 -0.709230
vn -0.738410 0.150340 -0.657380
vn -0.646131 -0.157760 0.746744
vn -0.792872 0.004590 0.609371
vn 0.755439 -0.391040 0.525736
vn 0.737292 -0.400858 0.543796
vn 0.751608 0.151422 -0.641995
vn -0.062907 0.093259 -0.993653
vn 0.926622 -0.342212 -0.155765
vn -0.973899 0.124528 -0.189774
vn -0.237801 -0.970288 0.044621
vn -0.212928 -0.976594 0.030436
vn -0.460243 0.825732 0.326102
vn -0.704259 0.426799 -0.567329
vn 0.835103 0.438271 0.332448
vn -0.542275 0.815550 0.202031
vn 0.913378 0.375175 0.158061
vn -0.190987 -0.965734 0.175733
vn -0.218266 -0.952912 0.210520
vn -0.472701 0.878124 0.073837
vn 0.009496 0.512876 0.858410
vn 0.840916 0.539992 -0.035620
vn -0.615096 -0.777292 0.132192

f 1/1/1 2/2/1 3/3/1
f 4/4/2 5/5/2 6/6/2
f 4/4/3 6/7/3 7/8/3
f 5/9/4 8/10/4 9/11/4
f 10/12/5 11/13/5 9/14/5
f 6/6/6 11/15/6 7/8/6
f 6/6/7 12/16/7 11/13/7
f 12/17/8 5/5/8 9/14/8
f 6/6/9 5/5/9 12/17/9
f 11/13/10 12/18/10 9/19/10
f 13/20/11 14/21/11 15/22/11
f 14/21/12 13/20/12 16/23/12
f 16/24/13 13/20/13 17/25/13
f 15/22/14 14/21/14 18/26/14
f 14/21/15 19/27/15 18/26/15
f 18/26/16 20/28/16 21/29/16
f 18/26/17 19/27/17 20/28/17
f 20/28/18 3/30/18 21/29/18
f 5/9/19 22/31/19 23/32/19
f 24/33/20 25/34/20 26/35/20
f 27/36/21 25/34/21 9/37/21
f 28/38/22 27/39/22 29/40/22
f 30/41/23 25/34/23 24/33/23
f 25/34/24 30/41/24 10/42/24
f 30/41/25 24/33/25 31/43/25
f 24/33/26 26/44/26 32/45/26
f 33/46/27 34/47/27 5/9/27
f 4/4/28 22/31/28 5/9/28
f 26/35/29 25/34/29 27/39/29
f 33/46/30 35/48/30 34/47/30
f 32/45/31 26/35/31 28/38/31
f 23/32/32 33/46/32 5/9/32
f 26/35/33 27/39/33 28/38/33
f 28/38/34 29/40/34 36/49/34
f 35/50/35 37/51/35 29/40/35
f 28/38/36 38/52/36 32/45/36
f 36/49/37 38/52/37 28/38/37
f 36/49/38 37/53/38 39/54/38
f 39/55/39 37/56/39 40/57/39
f 41/58/40 42/59/40 39/55/40
f 39/55/41 40/57/41 41/58/41
f 36/49/42 29/40/42 37/51/42
f 37/56/43 35/48/43 33/46/43
f 37/56/44 33/46/44 40/57/44
f 40/57/45 33/46/45 43/60/45
f 40/57/46 43/60/46 41/58/46
f 33/46/47 23/32/47 43/60/47
f 44/61/48 45/62/48 30/63/48
f 15/64/49 46/65/49 45/62/49
f 46/66/50 47/67/50 10/68/50
f 47/67/51 7/69/51 11/70/51
f 45/62/52 44/61/52 17/71/52
f 44/61/53 30/63/53 31/72/53
f 13/73/54 15/64/54 45/62/54
f 46/65/55 10/74/55 45/62/55
f 45/62/56 10/74/56 30/63/56
f 47/67/57 11/70/57 10/68/57
f 47/67/58 48/75/58 7/69/58
f 46/66/59 15/76/59 47/67/59
f 18/77/60 47/67/60 15/76/60
f 47/67/61 18/77/61 48/75/61
f 18/77/62 21/78/62 48/75/62
f 13/73/63 45/62/63 17/71/63
f 49/79/64 35/50/64 29/40/64
f 8/80/65 27/81/65 9/82/65
f 34/47/66 50/83/66 5/84/66
f 27/36/67 49/79/67 29/40/67
f 35/48/68 51/85/68 52/86/68
f 35/50/69 49/79/69 51/87/69
f 52/86/70 50/83/70 34/47/70
f 35/48/71 52/86/71 34/47/71
f 5/84/72 50/83/72 8/10/72
f 53/88/73 27/81/73 8/80/73
f 53/88/74 49/79/74 27/36/74
f 54/89/75 55/90/75 56/91/75
f 57/92/76 55/90/76 58/93/76
f 59/94/77 60/95/77 55/90/77
f 61/96/78 54/89/78 56/91/78
f 39/97/79 61/96/79 36/98/79
f 36/98/80 61/96/80 56/91/80
f 36/98/81 56/91/81 38/99/81
f 62/100/82 63/101/82 64/102/82
f 65/103/83 64/102/83 54/89/83
f 61/96/84 65/103/84 54/89/84
f 66/104/85 67/105/85 62/100/85
f 55/90/86 60/95/86 68/106/86
f 69/107/87 68/106/87 60/95/87
f 69/107/88 70/108/88 68/106/88
f 58/109/89 55/90/89 68/106/89
f 68/106/90 71/110/90 58/111/90
f 62/100/91 67/105/91 63/101/91
f 64/102/92 63/101/92 69/107/92
f 70/108/93 71/110/93 68/106/93
f 58/111/94 71/110/94 72/112/94
f 56/91/95 57/92/95 38/113/95
f 55/90/96 57/114/96 56/91/96
f 73/115/97 74/116/97 38/113/97
f 58/109/98 72/112/98 73/115/98
f 57/117/99 58/111/99 73/115/99
f 57/92/100 73/115/100 38/113/100
f 73/115/101 72/112/101 74/116/101
f 39/97/102 75/118/102 61/96/102
f 75/118/103 39/97/103 76/119/103
f 64/102/104 59/94/104 54/89/104
f 64/102/105 60/95/105 59/94/105
f 54/89/106 59/94/106 55/90/106
f 64/102/107 69/107/107 60/95/107
f 65/103/108 66/104/108 62/100/108
f 65/103/109 61/96/109 75/118/109
f 75/118/110 76/119/110 65/103/110
f 66/104/111 65/103/111 76/119/111
f 62/100/112 64/102/112 65/103/112
f 39/97/113 42/120/113 76/119/113
f 77/121/114 76/119/114 42/120/114
f 67/105/115 76/119/115 77/121/115
f 66/104/116 76/119/116 67/105/116
f 9/82/117 25/34/117 10/42/117
f 51/122/118 49/123/118 78/124/118
f 79/125/119 50/126/119 52/127/119
f 52/127/120 51/122/120 79/125/120
f 80/128/121 81/129/121 53/130/121
f 51/122/122 78/124/122 79/125/122
f 82/131/123 50/126/123 79/125/123
f 50/126/124 82/131/124 8/132/124
f 53/133/125 78/124/125 49/123/125
f 83/134/126 84/135/126 85/136/126
f 84/135/127 83/134/127 86/137/127
f 86/137/128 87/138/128 84/135/128
f 88/139/129 84/135/129 87/138/129
f 87/138/130 89/140/130 88/139/130
f 90/141/131 88/139/131 89/140/131
f 91/142/132 92/143/132 90/141/132
f 90/141/133 89/140/133 91/142/133
f 85/136/134 92/144/134 91/145/134
f 91/145/135 83/134/135 85/136/135
f 80/128/136 93/146/136 83/134/136
f 94/147/137 83/134/137 93/146/137
f 93/146/138 87/138/138 94/147/138
f 87/138/139 93/146/139 95/148/139
f 95/148/140 96/149/140 87/138/140
f 89/140/141 87/138/141 96/149/141
f 97/150/142 91/142/142 89/140/142
f 97/151/143 81/129/143 80/128/143
f 8/132/144 82/131/144 80/128/144
f 93/146/145 80/128/145 98/152/145
f 98/152/146 95/148/146 93/146/146
f 95/148/147 82/131/147 79/125/147
f 79/125/148 78/124/148 95/148/148
f 96/149/149 95/148/149 78/124/149
f 78/124/150 53/133/150 81/153/150
f 81/153/151 96/149/151 78/124/151
f 80/128/152 53/130/152 8/154/152
f 94/147/153 87/138/153 86/137/153
f 86/137/154 83/134/154 94/147/154
f 97/151/155 83/134/155 91/145/155
f 89/140/156 96/149/156 97/150/156
f 80/128/157 83/134/157 97/151/157
f 81/153/158 97/150/158 96/149/158
f 82/131/159 95/148/159 98/152/159
f 98/152/160 80/128/160 82/131/160
f 85/136/161 99/155/161 100/156/161
f 99/155/162 85/136/162 84/135/162
f 84/135/163 101/157/163 99/155/163
f 101/157/164 84/135/164 88/139/164
f 88/139/165 90/141/165 101/157/165
f 102/158/166 101/157/166 90/141/166
f 90/141/167 103/159/167 102/158/167
f 103/159/168 90/141/168 92/143/168
f 92/144/169 85/136/169 103/160/169
f 100/156/170 103/160/170 85/136/170
f 104/161/171 105/162/171 106/163/171
f 107/164/172 106/163/172 108/165/172
f 109/166/173 110/167/173 103/168/173
f 109/166/174 111/169/174 104/161/174
f 104/161/175 110/167/175 109/166/175
f 104/161/176 111/169/176 112/170/176
f 113/171/177 112/170/177 111/169/177
f 106/163/178 110/167/178 104/161/178
f 104/161/179 112/170/179 105/162/179
f 105/172/180 113/173/180 111/174/180
f 113/173/181 105/172/181 112/175/181
f 105/172/182 111/174/182 109/176/182
f 109/176/183 106/177/183 105/172/183
f 109/176/184 100/178/184 106/177/184
f 103/179/185 100/178/185 109/176/185
f 102/180/186 103/168/186 110/167/186
f 106/163/187 114/181/187 108/165/187
f 115/182/188 116/183/188 106/177/188
f 116/184/189 117/185/189 118/186/189
f 108/165/190 114/181/190 119/187/190
f 119/187/191 120/188/191 108/165/191
f 118/189/192 121/190/192 114/191/192
f 114/191/193 121/190/193 117/192/193
f 116/193/194 115/194/194 119/187/194
f 120/188/195 119/187/195 115/194/195
f 121/195/196 118/186/196 117/185/196
f 108/165/197 101/196/197 102/180/197
f 115/182/198 106/177/198 100/178/198
f 100/178/199 99/197/199 115/182/199
f 120/188/200 99/198/200 101/196/200
f 106/163/201 107/164/201 110/167/201
f 108/165/202 120/188/202 101/196/202
f 120/188/203 115/194/203 99/198/203
f 107/164/204 102/180/204 110/167/204
f 102/180/205 107/164/205 108/165/205
f 118/199/206 106/177/206 116/183/206
f 114/181/207 106/163/207 118/200/207
f 114/191/208 117/192/208 119/201/208
f 117/192/209 116/202/209 119/201/209
f 122/203/210 123/204/210 124/205/210
f 125/206/211 126/207/211 123/208/211
f 125/206/212 123/208/212 127/209/212
f 125/210/213 128/211/213 126/212/213
f 128/211/214 129/213/214 126/212/214
f 128/214/215 124/215/215 129/216/215
f 122/217/216 124/215/216 128/214/216
f 130/218/217 128/211/217 125/219/217
f 131/220/218 122/221/218 130/222/218
f 132/223/219 125/224/219 127/225/219
f 132/226/220 131/227/220 125/219/220
f 133/228/221 131/227/221 132/226/221
f 133/229/222 122/221/222 131/220/222
f 130/218/223 125/219/223 131/227/223
f 128/214/224 130/222/224 122/221/224
f 127/209/225 123/204/225 122/203/225
f 16/230/226 133/228/226 14/231/226
f 16/232/227 3/3/227 133/229/227
f 14/231/228 133/228/228 132/226/228
f 14/233/229 132/223/229 19/234/229
f 132/223/230 127/225/230 19/234/230
f 20/235/231 19/234/231 127/225/231
f 20/235/232 127/225/232 122/236/232
f 3/3/233 122/221/233 133/229/233
f 3/237/234 20/235/234 122/236/234
f 134/238/235 135/239/235 136/240/235
f 137/241/236 135/242/236 134/243/236
f 138/244/237 139/245/237 137/246/237
f 138/247/238 136/248/238 139/249/238
f 134/238/239 136/240/239 123/208/239
f 138/247/240 123/250/240 136/248/240
f 123/250/241 138/247/241 124/251/241
f 134/238/242 123/208/242 126/252/242
f 129/253/243 134/243/243 126/254/243
f 137/241/244 134/243/244 129/253/244
f 138/244/245 137/246/245 129/255/245
f 138/244/246 129/255/246 124/256/246
f 136/257/247 140/258/247 139/259/247
f 136/257/248 141/260/248 140/258/248
f 142/261/249 139/259/249 140/258/249
f 135/262/250 143/263/250 141/260/250
f 141/264/251 143/265/251 142/266/251
f 142/266/252 140/267/252 141/264/252
f 137/268/253 143/263/253 135/262/253
f 135/262/254 141/260/254 136/257/254
f 139/259/255 142/261/255 137/268/255
f 137/268/256 144/269/256 143/263/256
f 137/268/257 142/261/257 144/269/257
f 143/265/258 145/270/258 146/271/258
f 146/271/259 142/266/259 143/265/259
f 143/263/260 144/269/260 145/272/260
f 144/269/261 146/273/261 145/272/261
f 146/273/262 144/269/262 142/261/262
f 3/274/263 16/275/263 17/276/263
f 147/5/264 4/4/264 148/6/264
f 148/7/265 4/4/265 7/8/265
f 149/10/266 147/9/266 150/11/266
f 151/13/267 152/12/267 150/14/267
f 151/15/268 148/6/268 7/8/268
f 153/16/269 148/6/269 151/13/269
f 147/5/270 153/17/270 150/14/270
f 147/5/271 148/6/271 153/17/271
f 153/18/272 151/13/272 150/19/272
f 154/21/273 155/20/273 156/22/273
f 155/20/274 154/21/274 157/23/274
f 155/20/275 157/24/275 17/25/275
f 154/21/276 156/22/276 158/26/276
f 159/27/277 154/21/277 158/26/277
f 160/28/278 158/26/278 21/29/278
f 159/27/279 158/26/279 160/28/279
f 3/30/280 160/28/280 21/29/280
f 22/31/281 147/9/281 23/32/281
f 161/34/282 24/33/282 162/35/282
f 161/34/283 163/36/283 150/37/283
f 163/39/284 164/38/284 165/40/284
f 161/34/285 166/41/285 24/33/285
f 166/41/286 161/34/286 152/42/286
f 24/33/287 166/41/287 31/43/287
f 162/44/288 24/33/288 32/45/288
f 167/47/289 168/46/289 147/9/289
f 22/31/290 4/4/290 147/9/290
f 161/34/291 162/35/291 163/39/291
f 169/48/292 168/46/292 167/47/292
f 162/35/293 32/45/293 164/38/293
f 168/46/294 23/32/294 147/9/294
f 163/39/295 162/35/295 164/38/295
f 165/40/296 164/38/296 170/49/296
f 171/51/297 169/50/297 165/40/297
f 38/52/298 164/38/298 32/45/298
f 38/52/299 170/49/299 164/38/299
f 171/53/300 170/49/300 172/54/300
f 171/56/301 172/55/301 173/57/301
f 42/59/302 41/58/302 172/55/302
f 173/57/303 172/55/303 41/58/303
f 165/40/304 170/49/304 171/51/304
f 169/48/305 171/56/305 168/46/305
f 168/46/306 171/56/306 173/57/306
f 168/46/307 173/57/307 43/60/307
f 43/60/308 173/57/308 41/58/308
f 23/32/309 168/46/309 43/60/309
f 174/62/310 44/61/310 166/63/310
f 175/65/311 156/64/311 174/62/311
f 176/67/312 175/66/312 152/68/312
f 7/69/313 176/67/313 151/70/313
f 44/61/314 174/62/314 17/71/314
f 166/63/315 44/61/315 31/72/315
f 156/64/316 155/73/316 174/62/316
f 152/74/317 175/65/317 174/62/317
f 152/74/318 174/62/318 166/63/318
f 151/70/319 176/67/319 152/68/319
f 48/75/320 176/67/320 7/69/320
f 156/76/321 175/66/321 176/67/321
f 176/67/322 158/77/322 156/76/322
f 158/77/323 176/67/323 48/75/323
f 21/78/324 158/77/324 48/75/324
f 174/62/325 155/73/325 17/71/325
f 169/50/326 177/79/326 165/40/326
f 163/81/327 149/80/327 150/82/327
f 178/83/328 167/47/328 147/84/328
f 177/79/329 163/36/329 165/40/329
f 179/85/330 169/48/330 180/86/330
f 177/79/331 169/50/331 179/87/331
f 178/83/332 180/86/332 167/47/332
f 180/86/333 169/48/333 167/47/333
f 178/83/334 147/84/334 149/10/334
f 163/81/335 181/88/335 149/80/335
f 177/79/336 181/88/336 163/36/336
f 182/90/337 183/89/337 184/91/337
f 182/90/338 185/92/338 186/93/338
f 187/95/339 188/94/339 182/90/339
f 183/89/340 189/96/340 184/91/340
f 189/96/341 172/97/341 170/98/341
f 189/96/342 170/98/342 184/91/342
f 184/91/343 170/98/343 38/99/343
f 63/101/344 190/100/344 191/102/344
f 191/102/345 192/103/345 183/89/345
f 192/103/346 189/96/346 183/89/346
f 67/105/347 193/104/347 190/100/347
f 187/95/348 182/90/348 194/106/348
f 194/106/349 69/107/349 187/95/349
f 70/108/350 69/107/350 194/106/350
f 182/90/351 186/109/351 194/106/351
f 71/110/352 194/106/352 186/111/352
f 67/105/353 190/100/353 63/101/353
f 63/101/354 191/102/354 69/107/354
f 71/110/355 70/108/355 194/106/355
f 71/110/356 186/111/356 72/112/356
f 185/92/357 184/91/357 38/113/357
f 185/114/358 182/90/358 184/91/358
f 74/116/359 195/115/359 38/113/359
f 72/112/360 186/109/360 195/115/360
f 186/111/361 185/117/361 195/115/361
f 195/115/362 185/92/362 38/113/362
f 72/112/363 195/115/363 74/116/363
f 196/118/364 172/97/364 189/96/364
f 172/97/365 196/118/365 197/119/365
f 188/94/366 191/102/366 183/89/366
f 187/95/367 191/102/367 188/94/367
f 188/94/368 183/89/368 182/90/368
f 69/107/369 191/102/369 187/95/369
f 193/104/370 192/103/370 190/100/370
f 189/96/371 192/103/371 196/118/371
f 197/119/372 196/118/372 192/103/372
f 192/103/373 193/104/373 197/119/373
f 191/102/374 190/100/374 192/103/374
f 42/120/375 172/97/375 197/119/375
f 197/119/376 77/121/376 42/120/376
f 197/119/377 67/105/377 77/121/377
f 197/119/378 193/104/378 67/105/378
f 161/34/379 150/82/379 152/42/379
f 177/123/380 179/122/380 198/124/380
f 178/126/381 199/125/381 180/127/381
f 179/122/382 180/127/382 199/125/382
f 200/129/383 201/128/383 181/130/383
f 198/124/384 179/122/384 199/125/384
f 178/126/385 202/131/385 199/125/385
f 202/131/386 178/126/386 149/132/386
f 198/124/387 181/133/387 177/123/387
f 203/135/388 204/134/388 205/136/388
f 204/134/389 203/135/389 206/137/389
f 207/138/390 206/137/390 203/135/390
f 203/135/391 208/139/391 207/138/391
f 209/140/392 207/138/392 208/139/392
f 208/139/393 210/141/393 209/140/393
f 211/143/394 212/142/394 210/141/394
f 209/140/395 210/141/395 212/142/395
f 211/144/396 205/136/396 212/145/396
f 204/134/397 212/145/397 205/136/397
f 213/146/398 201/128/398 204/134/398
f 204/134/399 214/147/399 213/146/399
f 207/138/400 213/146/400 214/147/400
f 213/146/401 207/138/401 215/148/401
f 216/149/402 215/148/402 207/138/402
f 207/138/403 209/140/403 216/149/403
f 212/142/404 217/150/404 209/140/404
f 200/129/405 217/151/405 201/128/405
f 202/131/406 149/132/406 201/128/406
f 201/128/407 213/146/407 218/152/407
f 215/148/408 218/152/408 213/146/408
f 202/131/409 215/148/409 199/125/409
f 198/124/410 199/125/410 215/148/410
f 215/148/411 216/149/411 198/124/411
f 181/133/412 198/124/412 200/153/412
f 216/149/413 200/153/413 198/124/413
f 181/130/414 201/128/414 149/154/414
f 207/138/415 214/147/415 206/137/415
f 204/134/416 206/137/416 214/147/416
f 204/134/417 217/151/417 212/145/417
f 216/149/418 209/140/418 217/150/418
f 204/134/419 201/128/419 217/151/419
f 217/150/420 200/153/420 216/149/420
f 215/148/421 202/131/421 218/152/421
f 201/128/422 218/152/422 202/131/422
f 219/155/423 205/136/423 220/156/423
f 205/136/424 219/155/424 203/135/424
f 221/157/425 203/135/425 219/155/425
f 203/135/426 221/157/426 208/139/426
f 210/141/427 208/139/427 221/157/427
f 221/157/428 222/158/428 210/141/428
f 223/159/429 210/141/429 222/158/429
f 210/141/430 223/159/430 211/143/430
f 205/136/431 211/144/431 223/160/431
f 223/160/432 220/156/432 205/136/432
f 224/162/433 225/161/433 226/163/433
f 226/163/434 227/164/434 228/165/434
f 229/167/435 230/166/435 223/168/435
f 231/169/436 230/166/436 225/161/436
f 229/167/437 225/161/437 230/166/437
f 231/169/438 225/161/438 232/170/438
f 232/170/439 233/171/439 231/169/439
f 229/167/440 226/163/440 225/161/440
f 232/170/441 225/161/441 224/162/441
f 233/173/442 224/172/442 231/174/442
f 224/172/443 233/173/443 232/175/443
f 231/174/444 224/172/444 230/176/444
f 226/177/445 230/176/445 224/172/445
f 220/178/446 230/176/446 226/177/446
f 220/178/447 223/179/447 230/176/447
f 223/168/448 222/180/448 229/167/448
f 234/181/449 226/163/449 228/165/449
f 235/183/450 236/182/450 226/177/450
f 237/185/451 235/184/451 238/186/451
f 234/181/452 228/165/452 239/187/452
f 240/188/453 239/187/453 228/165/453
f 241/190/454 238/189/454 234/191/454
f 241/190/455 234/191/455 237/192/455
f 236/194/456 235/193/456 239/187/456
f 239/187/457 240/188/457 236/194/457
f 238/186/458 241/195/458 237/185/458
f 221/196/459 228/165/459 222/180/459
f 226/177/460 236/182/460 220/178/460
f 219/197/461 220/178/461 236/182/461
f 219/198/462 240/188/462 221/196/462
f 227/164/463 226/163/463 229/167/463
f 240/188/464 228/165/464 221/196/464
f 236/194/465 240/188/465 219/198/465
f 222/180/466 227/164/466 229/167/466
f 227/164/467 222/180/467 228/165/467
f 226/177/468 238/199/468 235/183/468
f 226/163/469 234/181/469 238/200/469
f 237/192/470 234/191/470 239/201/470
f 235/202/471 237/192/471 239/201/471
f 242/204/472 243/203/472 244/205/472
f 245/207/473 246/206/473 242/208/473
f 242/208/474 246/206/474 247/209/474
f 248/211/475 246/210/475 245/212/475
f 249/213/476 248/211/476 245/212/476
f 244/215/477 248/214/477 249/216/477
f 244/215/478 243/217/478 248/214/478
f 248/211/479 250/218/479 246/219/479
f 243/221/480 251/220/480 250/222/480
f 246/224/481 252/223/481 247/225/481
f 251/227/482 252/226/482 246/219/482
f 251/227/483 253/228/483 252/226/483
f 243/221/484 253/229/484 251/220/484
f 246/219/485 250/218/485 251/227/485
f 250/222/486 248/214/486 243/221/486
f 242/204/487 247/209/487 243/203/487
f 253/228/488 157/230/488 154/231/488
f 3/3/489 157/232/489 253/229/489
f 253/228/490 154/231/490 252/226/490
f 252/223/491 154/233/491 159/234/491
f 247/225/492 252/223/492 159/234/492
f 159/234/493 160/235/493 247/225/493
f 247/225/494 160/235/494 243/236/494
f 243/221/495 3/3/495 253/229/495
f 160/235/496 3/237/496 243/236/496
f 254/239/497 255/238/497 256/240/497
f 254/242/498 257/241/498 255/243/498
f 258/245/499 259/244/499 257/246/499
f 256/248/500 259/247/500 258/249/500
f 256/240/501 255/238/501 242/208/501
f 242/250/502 259/247/502 256/248/502
f 259/247/503 242/250/503 244/251/503
f 242/208/504 255/238/504 245/252/504
f 255/243/505 249/253/505 245/254/505
f 255/243/506 257/241/506 249/253/506
f 257/246/507 259/244/507 249/255/507
f 249/255/508 259/244/508 244/256/508
f 260/258/509 256/257/509 258/259/509
f 261/260/510 256/257/510 260/258/510
f 258/259/511 262/261/511 260/258/511
f 263/263/512 254/262/512 261/260/512
f 263/265/513 261/264/513 262/266/513
f 260/267/514 262/266/514 261/264/514
f 263/263/515 257/268/515 254/262/515
f 261/260/516 254/262/516 256/257/516
f 262/261/517 258/259/517 257/268/517
f 264/269/518 257/268/518 263/263/518
f 262/261/519 257/268/519 264/269/519
f 265/270/520 263/265/520 266/271/520
f 262/266/521 266/271/521 263/265/521
f 264/269/522 263/263/522 265/272/522
f 266/273/523 264/269/523 265/272/523
f 264/269/524 266/273/524 262/261/524
f 157/275/525 3/274/525 17/276/525

