mtllib anim_barb_attack_new1_axe_000013.mtl

o fat
usemtl axe.001
s off

v 22.081430 71.499840 -21.089039
v 21.509211 68.285988 -14.534310
v 28.265282 76.187378 -17.505129
v 26.807539 74.116241 -15.322190
v 29.722740 76.716774 -16.029591
v 28.264999 74.645607 -13.846641
v 34.216141 75.907402 -8.803820
v 29.103611 71.044418 -6.845730
v 24.923820 75.538261 -25.345449
v 37.058510 79.945816 -13.060230
v 30.036339 80.401237 -27.303551
v 29.723019 78.258537 -19.688070
v 31.180479 78.787903 -18.212530
v 37.630730 83.159668 -19.614960
v 27.959459 72.657753 -15.936750
v 29.417210 74.728889 -18.119690
v 29.416931 73.187134 -14.461210
v 30.874670 75.258263 -16.644140
v 30.874950 76.800034 -20.302620
v 32.332413 77.329414 -18.827091
v 12.261020 53.448719 6.460970
v 13.718490 53.978100 7.936510
v 14.870420 52.519600 7.321950
v 12.608460 53.500671 6.321560
v 34.097488 82.155464 -23.854500
v -1.432870 32.418720 30.647581
v -0.377970 31.037930 29.880108
v -1.737650 30.431070 28.557140
v -2.890360 31.888721 29.172279

vt 0.033358 0.643728
vt 0.190411 0.923560
vt 0.402692 0.503812
vt 0.402692 0.647326
vt 0.408249 0.287497
vt 0.408249 0.367848
vt 0.492649 0.287497
vt 0.492649 0.367848
vt 0.403043 0.503812
vt 0.403044 0.647326
vt 0.033710 0.643728
vt 0.190763 0.923560
vt 0.033358 0.363896
vt 0.033710 0.363896
vt 0.190411 0.084064
vt 0.402692 0.360297
vt 0.408249 0.207147
vt 0.492649 0.207147
vt 0.403043 0.360297
vt 0.190763 0.084064
vt 0.408248 1.036942
vt 0.492649 1.036942
vt 0.483600 0.371280
vt 0.402049 0.371280
vt 0.402049 1.040375
vt 0.483600 1.040375
vt 0.450449 0.037941
vt 0.483600 0.210579
vt 0.402049 0.210579
vt 0.442825 0.041374
vt 0.000000 1.000000

vn -0.677005 0.682462 0.275516
vn -0.719577 0.675613 0.160486
vn -0.588470 0.745078 0.313945
vn -0.499593 0.769974 0.396922
vn -0.525788 0.729151 0.438049
vn -0.668281 0.708705 0.226139
vn -0.639626 0.746415 0.183696
vn -0.430546 0.780595 0.453101
vn -0.492141 0.797833 0.348223
vn 0.430547 -0.780595 -0.453101
vn 0.492141 -0.797833 -0.348222
vn 0.588467 -0.745079 -0.313949
vn 0.639625 -0.746415 -0.183697
vn 0.668281 -0.708705 -0.226138
vn 0.499591 -0.769976 -0.396921
vn 0.525787 -0.729151 -0.438049
vn 0.677006 -0.682462 -0.275516
vn 0.719577 -0.675613 -0.160487
vn 0.307693 -0.152707 0.939152
vn -0.807828 -0.557885 -0.190204
vn -0.307693 0.152708 -0.939151
vn 0.807831 0.557882 0.190203
vn -0.030387 -0.747126 -0.663987
vn -0.682918 -0.250184 -0.686317
vn -0.201981 -0.639586 -0.741710
vn 0.680906 0.247315 0.689349
vn -0.522835 0.823268 0.221074
vn 0.642889 -0.652700 -0.400846
vn 0.738687 0.337591 0.583415
vn -0.607657 -0.151426 -0.779630
vn 0.702796 0.216384 0.677684
vn -0.636233 -0.296711 -0.712159
vn 0.288181 -0.767360 -0.572809
vn -0.588746 0.744746 0.314215
vn -0.399080 -0.605984 0.688127
vn -0.402262 -0.659992 0.634504

f 1/1/1 2/2/1 3/3/1
f 4/4/2 3/3/2 2/2/2
f 3/5/3 4/6/3 5/7/3
f 6/8/3 5/7/3 4/6/3
f 5/9/4 6/10/4 7/11/4
f 8/12/5 7/11/5 6/10/5
f 9/13/6 1/1/6 3/3/6
f 7/11/4 10/14/4 5/9/4
f 11/15/7 9/13/7 12/16/7
f 3/3/6 12/16/6 9/13/6
f 12/17/3 3/5/3 13/18/3
f 5/7/3 13/18/3 3/5/3
f 13/19/8 5/9/8 14/20/8
f 10/14/9 14/20/9 5/9/9
f 15/4/10 2/2/10 16/3/10
f 1/1/11 16/3/11 2/2/11
f 17/8/12 15/6/12 18/7/12
f 16/5/12 18/7/12 15/6/12
f 8/12/13 17/10/13 7/11/13
f 18/9/14 7/11/14 17/10/14
f 16/3/15 1/1/15 9/13/15
f 7/11/14 18/9/14 10/14/14
f 16/3/15 9/13/15 19/16/15
f 11/15/16 19/16/16 9/13/16
f 18/7/12 16/5/12 20/18/12
f 19/17/12 20/18/12 16/5/12
f 10/14/17 18/9/17 14/20/17
f 20/19/18 14/20/18 18/9/18
f 4/4/19 2/2/19 15/4/19
f 17/10/20 8/12/20 6/10/20
f 13/19/21 14/20/21 20/19/21
f 19/16/22 11/15/22 12/16/22
f 6/8/3 4/6/3 21/21/3
f 21/21/3 22/22/3 6/8/3
f 15/6/12 17/8/12 23/22/12
f 23/22/23 24/21/23 15/6/23
f 4/23/24 15/24/24 24/25/24
f 24/25/25 21/26/25 4/23/25
f 17/24/26 6/23/26 22/26/26
f 22/26/26 23/25/26 17/24/26
f 12/17/27 13/18/27 25/27/27
f 20/18/28 19/17/28 25/27/28
f 13/28/29 20/29/29 25/30/29
f 19/29/30 12/28/30 25/30/30
f 23/22/31 22/21/31 26/22/31 27/31/31
f 21/21/32 24/22/32 28/21/32 29/31/32
f 24/21/33 23/22/33 27/21/33 28/31/33
f 22/22/34 21/21/34 29/22/34 26/31/34
f 28/21/35 27/22/35 29/21/35
f 26/22/36 29/21/36 27/22/36

