mtllib anim_skel_walk_swordshield_000014.mtl

o msked
usemtl shield.001
s off

v -9.538330 33.254028 0.686490
v -10.790830 33.345791 1.409160
v -7.821080 35.007420 22.032831
v -10.550390 31.980591 0.946880
v -8.983840 31.865231 1.400550
v -10.459790 32.952888 0.794460
v -13.521251 35.650921 1.764650
v -9.893300 32.629330 -3.941330
v -10.921360 32.416328 -3.813550
v -10.927310 31.365881 -3.690640
v -6.184850 29.639832 1.729720
v -9.437670 32.115417 0.789590
v -9.899240 31.578861 -3.818420
v 15.185530 48.146191 0.523490
v 15.386710 37.151150 4.993670
v 3.030910 38.468739 7.759930
v 17.061779 38.655170 9.756860
v 27.385481 35.515450 0.221410
v 14.787641 5.901410 14.002520

vt 0.856301 0.265607
vt 0.764624 0.294094
vt 0.850192 0.976825
vt 0.858158 0.265976
vt 0.949099 0.282658
vt 0.742843 0.255302
vt 0.692067 0.254404
vt 0.541488 0.402851
vt 0.893183 0.241135
vt 0.851577 0.242328
vt 0.847036 0.027305
vt 0.893183 0.027305
vt 0.742053 0.256467
vt 0.849952 0.242815
vt 0.544321 0.402080
vt 0.692550 0.250793
vt 0.800888 0.241135
vt 0.800888 0.027305
vt 0.697126 0.324563
vt 0.698569 0.321089
vt 0.345626 0.959903
vt 0.345626 0.724031
vt 0.085605 0.724031
vt 0.605647 0.724031
vt 0.345626 0.075832

vn 0.024623 0.996178 -0.083807
vn -0.962297 -0.222473 0.156493
vn 0.940837 0.323073 -0.102225
vn -0.117398 -0.980759 0.155981
vn -0.166552 0.160835 -0.972827
vn -0.319843 0.941898 -0.102613
vn -0.212955 0.972727 -0.091933
vn -0.385388 -0.107755 -0.916442
vn -0.995071 0.017062 0.097688
vn -0.992423 0.102986 0.067008
vn -0.099006 -0.115091 -0.988409
vn 0.229147 -0.067671 -0.971037
vn 0.993002 0.079915 -0.086954
vn 0.995071 -0.017058 -0.097688
vn -0.073721 -0.437249 -0.896314
vn 0.212944 -0.972730 0.091935
vn 0.136030 -0.983494 0.119309
vn -0.168992 -0.342686 0.924126
vn -0.286277 -0.222207 0.932024
vn 0.472380 0.441925 0.762600
vn 0.332068 0.532788 0.778375
vn -0.240359 -0.369357 -0.897665
vn -0.111988 0.681463 0.723234
vn 0.633513 0.600230 0.488247
vn -0.386925 -0.353359 -0.851720
vn -0.237483 -0.264874 -0.934582
vn -0.141360 0.136904 0.980446
vn 0.685381 0.046609 0.726691
vn -0.387040 -0.248557 -0.887930

f 1/1/1 2/2/1 3/3/1
f 3/3/2 2/2/2 4/4/2
f 1/1/3 3/3/3 5/5/3
f 3/3/4 4/4/4 5/5/4
f 1/6/5 6/7/5 7/8/5
f 6/9/6 1/10/6 8/11/6
f 8/11/7 9/12/7 6/9/7
f 7/8/8 6/7/8 4/13/8
f 6/9/9 9/12/9 10/11/9
f 10/11/10 4/14/10 6/9/10
f 9/12/11 8/11/11 10/11/11
f 1/6/12 11/15/12 12/16/12
f 8/11/13 1/10/13 12/17/13
f 8/11/14 12/17/14 13/18/14
f 11/15/15 4/13/15 12/16/15
f 12/17/16 10/11/16 13/18/16
f 10/11/17 12/17/17 4/14/17
f 13/18/11 10/11/11 8/11/11
f 4/13/18 2/19/18 7/8/18
f 11/15/19 5/20/19 4/13/19
f 2/19/20 1/6/20 7/8/20
f 1/6/21 5/20/21 11/15/21
f 14/21/22 15/22/22 16/23/22
f 14/21/23 16/23/23 17/22/23
f 14/21/24 17/22/24 18/24/24
f 14/21/25 18/24/25 15/22/25
f 19/25/26 16/23/26 15/22/26
f 19/25/27 17/22/27 16/23/27
f 19/25/28 18/24/28 17/22/28
f 19/25/29 15/22/29 18/24/29

