mtllib anim_barb_idle_axe_000041.mtl

o fat
usemtl axe.001
s off

v -13.006660 90.654755 19.130480
v -12.001590 83.450546 19.973030
v -14.495521 90.752838 27.546598
v -13.976570 87.662857 26.379339
v -14.499901 89.995796 29.548731
v -13.980941 86.905807 28.381470
v -13.043099 84.351624 35.800022
v -12.024401 79.505798 30.405500
v -14.018550 96.679779 21.406469
v -14.054980 90.376663 38.076000
v -15.037251 101.525620 26.800980
v -15.014490 93.842850 28.713860
v -15.018850 93.085777 30.715990
v -15.060051 97.580879 37.233459
v -12.042789 87.945641 26.490499
v -12.561740 91.035629 27.657749
v -12.047171 87.188583 28.492620
v -12.566119 90.278580 29.659880
v -13.080700 94.125626 28.825008
v -13.085070 93.368576 30.827141
v -8.798010 56.828407 14.731470
v -8.802390 56.071358 16.733591
v -6.868600 56.354141 16.844749
v -6.864230 57.111191 14.842620
v -15.142611 100.112732 32.228569
v -3.402990 23.921959 4.588980
v -1.572920 24.303419 4.630260
v -1.464830 24.961800 2.698000
v -3.398610 24.679010 2.586850

vt 0.033358 0.643728
vt 0.190411 0.923560
vt 0.402692 0.503812
vt 0.402692 0.647326
vt 0.408249 0.287497
vt 0.408249 0.367848
vt 0.492649 0.287497
vt 0.492649 0.367848
vt 0.403043 0.503812
vt 0.403044 0.647326
vt 0.033710 0.643728
vt 0.190763 0.923560
vt 0.033358 0.363896
vt 0.033710 0.363896
vt 0.190411 0.084064
vt 0.402692 0.360297
vt 0.408249 0.207147
vt 0.492649 0.207147
vt 0.403043 0.360297
vt 0.190763 0.084064
vt 0.408248 1.036942
vt 0.492649 1.036942
vt 0.483600 0.371280
vt 0.402049 0.371280
vt 0.402049 1.040375
vt 0.483600 1.040375
vt 0.450449 0.037941
vt 0.483600 0.210579
vt 0.402049 0.210579
vt 0.442825 0.041374
vt 0.000000 1.000000

vn -0.973016 -0.155666 -0.170318
vn -0.964939 -0.066105 -0.254012
vn -0.987880 -0.144462 -0.056782
vn -0.980525 -0.187160 0.059518
vn -0.968596 -0.245745 0.037840
vn -0.980018 -0.099537 -0.172211
vn -0.987817 -0.040348 -0.150296
vn -0.965807 -0.216236 0.143033
vn -0.989668 -0.131345 0.057503
vn 0.965807 0.216236 -0.143033
vn 0.989668 0.131345 -0.057503
vn 0.987880 0.144459 0.056784
vn 0.987817 0.040349 0.150295
vn 0.980018 0.099536 0.172210
vn 0.980525 0.187160 -0.059519
vn 0.968596 0.245745 -0.037841
vn 0.973016 0.155666 0.170318
vn 0.964939 0.066105 0.254012
vn 0.087348 -0.819791 0.565962
vn 0.090697 -0.240358 -0.966438
vn -0.087352 0.819791 -0.565961
vn -0.090694 0.240359 0.966438
vn 0.002047 0.353682 -0.935363
vn -0.002042 -0.353682 0.935364
vn -0.999841 -0.015850 -0.008175
vn 0.957103 0.270323 0.104307
vn -0.025346 -0.210794 0.977202
vn -0.021303 0.488539 -0.872282
vn 0.024060 -0.351139 0.936014
vn 0.987804 0.135367 0.076935
vn 0.154996 -0.937738 -0.310844
vn 0.198913 -0.916817 -0.346236

f 1/1/1 2/2/1 3/3/1
f 4/4/2 3/3/2 2/2/2
f 3/5/3 4/6/3 5/7/3
f 6/8/3 5/7/3 4/6/3
f 5/9/4 6/10/4 7/11/4
f 8/12/5 7/11/5 6/10/5
f 9/13/6 1/1/6 3/3/6
f 7/11/4 10/14/4 5/9/4
f 11/15/7 9/13/7 12/16/7
f 3/3/6 12/16/6 9/13/6
f 12/17/3 3/5/3 13/18/3
f 5/7/3 13/18/3 3/5/3
f 13/19/8 5/9/8 14/20/8
f 10/14/9 14/20/9 5/9/9
f 15/4/10 2/2/10 16/3/10
f 1/1/11 16/3/11 2/2/11
f 17/8/12 15/6/12 18/7/12
f 16/5/12 18/7/12 15/6/12
f 8/12/13 17/10/13 7/11/13
f 18/9/14 7/11/14 17/10/14
f 16/3/15 1/1/15 9/13/15
f 7/11/14 18/9/14 10/14/14
f 16/3/15 9/13/15 19/16/15
f 11/15/16 19/16/16 9/13/16
f 18/7/12 16/5/12 20/18/12
f 19/17/12 20/18/12 16/5/12
f 10/14/17 18/9/17 14/20/17
f 20/19/18 14/20/18 18/9/18
f 4/4/19 2/2/19 15/4/19
f 17/10/20 8/12/20 6/10/20
f 13/19/21 14/20/21 20/19/21
f 19/16/22 11/15/22 12/16/22
f 6/8/3 4/6/3 21/21/3
f 21/21/3 22/22/3 6/8/3
f 15/6/12 17/8/12 23/22/12
f 23/22/12 24/21/12 15/6/12
f 4/23/23 15/24/23 24/25/23
f 24/25/23 21/26/23 4/23/23
f 17/24/24 6/23/24 22/26/24
f 22/26/24 23/25/24 17/24/24
f 12/17/25 13/18/25 25/27/25
f 20/18/26 19/17/26 25/27/26
f 13/28/27 20/29/27 25/30/27
f 19/29/28 12/28/28 25/30/28
f 23/22/29 22/21/29 26/22/29 27/31/29
f 21/21/23 24/22/23 28/21/23 29/31/23
f 24/21/30 23/22/30 27/21/30 28/31/30
f 22/22/3 21/21/3 29/22/3 26/31/3
f 28/21/31 27/22/31 29/21/31
f 26/22/32 29/21/32 27/22/32

