mtllib anim_barb_run_attack1_axe_000022.mtl

o fat
usemtl axe.001
s off

v -4.731710 13.688240 9.945200
v -4.302960 16.275370 3.108270
v -5.220680 5.980659 6.283000
v -5.126880 8.455960 4.037130
v -5.062840 4.543000 4.705070
v -4.969040 7.018300 2.459190
v -3.417510 1.718360 -3.192510
v -3.480480 8.784150 -5.113840
v -4.914600 8.861770 14.324330
v -3.600410 -3.108090 1.186620
v -4.851630 1.795990 16.245670
v -5.314480 3.505360 8.528890
v -5.156631 2.067710 6.950950
v -4.029150 -5.695240 8.023550
v -3.175480 8.512440 4.180880
v -3.269280 6.037140 6.426760
v -3.017640 7.074780 2.602950
v -3.111430 4.599480 4.848820
v -3.363080 3.561850 8.672630
v -3.205230 2.124180 7.094700
v -4.190900 33.156467 -18.374069
v -4.033050 31.718809 -19.952009
v -2.081640 31.775291 -19.808250
v -2.239490 33.212952 -18.230320
v -4.457380 -2.397810 12.541260
v -3.057150 57.472710 -43.318932
v -1.105740 57.529179 -43.175194
v -1.263590 58.966850 -41.597260
v -3.214990 58.910370 -41.740997

vt 0.033358 0.643728
vt 0.190411 0.923560
vt 0.402692 0.503812
vt 0.402692 0.647326
vt 0.408249 0.287497
vt 0.408249 0.367848
vt 0.492649 0.287497
vt 0.492649 0.367848
vt 0.403043 0.503812
vt 0.403044 0.647326
vt 0.033710 0.643728
vt 0.190763 0.923560
vt 0.033358 0.363896
vt 0.033710 0.363896
vt 0.190411 0.084064
vt 0.402692 0.360297
vt 0.408249 0.207147
vt 0.492649 0.207147
vt 0.403043 0.360297
vt 0.190763 0.084064
vt 0.408248 1.036942
vt 0.492649 1.036942
vt 0.483600 0.371280
vt 0.402049 0.371280
vt 0.402049 1.040375
vt 0.483600 1.040375
vt 0.450449 0.037941
vt 0.483600 0.210579
vt 0.402049 0.210579
vt 0.442825 0.041374
vt 0.000000 1.000000

vn -0.996359 0.078741 -0.032687
vn -0.989822 0.114358 0.084701
vn -0.996883 -0.028852 -0.073434
vn -0.980070 -0.111829 -0.164184
vn -0.976173 -0.064996 -0.207032
vn -0.998340 0.054569 0.018449
vn -0.998070 0.007857 0.061605
vn -0.958520 -0.170747 -0.228220
vn -0.984211 -0.136062 -0.113208
vn 0.958520 0.170747 0.228220
vn 0.984211 0.136062 0.113208
vn 0.996883 0.028852 0.073432
vn 0.998070 -0.007856 -0.061603
vn 0.998340 -0.054568 -0.018449
vn 0.980070 0.111829 0.164184
vn 0.976173 0.064996 0.207032
vn 0.996359 -0.078741 0.032686
vn 0.989822 -0.114357 -0.084698
vn 0.076495 -0.125558 -0.989133
vn -0.044316 0.974810 0.218591
vn -0.076498 0.125557 0.989133
vn 0.044318 -0.974809 -0.218592
vn -0.073742 0.671655 0.737185
vn 0.073745 -0.671655 -0.737185
vn -0.991251 -0.130505 0.019743
vn 0.983527 -0.073348 0.165212
vn 0.068690 -0.775274 -0.627878
vn -0.077119 0.552781 0.829750
vn 0.028050 0.740301 -0.671690

f 1/1/1 2/2/1 3/3/1
f 4/4/2 3/3/2 2/2/2
f 3/5/3 4/6/3 5/7/3
f 6/8/3 5/7/3 4/6/3
f 5/9/4 6/10/4 7/11/4
f 8/12/5 7/11/5 6/10/5
f 9/13/6 1/1/6 3/3/6
f 7/11/4 10/14/4 5/9/4
f 11/15/7 9/13/7 12/16/7
f 3/3/6 12/16/6 9/13/6
f 12/17/3 3/5/3 13/18/3
f 5/7/3 13/18/3 3/5/3
f 13/19/8 5/9/8 14/20/8
f 10/14/9 14/20/9 5/9/9
f 15/4/10 2/2/10 16/3/10
f 1/1/11 16/3/11 2/2/11
f 17/8/12 15/6/12 18/7/12
f 16/5/12 18/7/12 15/6/12
f 8/12/13 17/10/13 7/11/13
f 18/9/14 7/11/14 17/10/14
f 16/3/15 1/1/15 9/13/15
f 7/11/14 18/9/14 10/14/14
f 16/3/15 9/13/15 19/16/15
f 11/15/16 19/16/16 9/13/16
f 18/7/12 16/5/12 20/18/12
f 19/17/12 20/18/12 16/5/12
f 10/14/17 18/9/17 14/20/17
f 20/19/18 14/20/18 18/9/18
f 4/4/19 2/2/19 15/4/19
f 17/10/20 8/12/20 6/10/20
f 13/19/21 14/20/21 20/19/21
f 19/16/22 11/15/22 12/16/22
f 6/8/3 4/6/3 21/21/3
f 21/21/3 22/22/3 6/8/3
f 15/6/12 17/8/12 23/22/12
f 23/22/12 24/21/12 15/6/12
f 4/23/23 15/24/23 24/25/23
f 24/25/23 21/26/23 4/23/23
f 17/24/24 6/23/24 22/26/24
f 22/26/24 23/25/24 17/24/24
f 12/17/25 13/18/25 25/27/25
f 20/18/26 19/17/26 25/27/26
f 13/28/27 20/29/27 25/30/27
f 19/29/28 12/28/28 25/30/28
f 23/22/24 22/21/24 26/22/24 27/31/24
f 21/21/23 24/22/23 28/21/23 29/31/23
f 24/21/12 23/22/12 27/21/12 28/31/12
f 22/22/3 21/21/3 29/22/3 26/31/3
f 28/21/29 27/22/29 29/21/29
f 26/22/29 29/21/29 27/22/29

