mtllib anim_barb_attack_new1_axe_000036.mtl

o fat
usemtl axe.001
s off

v -2.371850 58.373333 -44.291519
v 1.918770 58.749279 -38.369530
v 3.914530 62.565697 -48.286892
v 4.538800 62.132950 -45.030689
v 5.887660 63.348778 -48.561100
v 6.511940 62.916031 -45.304890
v 14.056250 64.893257 -46.574612
v 12.200140 62.829708 -39.798389
v -3.589100 59.217129 -50.640633
v 12.838989 65.737053 -52.923740
v -1.732990 61.280670 -57.416870
v 3.290240 62.998451 -51.543114
v 5.263380 63.781528 -51.817314
v 8.548380 65.361107 -58.845730
v 5.203770 60.328850 -45.397942
v 4.579490 60.761589 -48.654152
v 7.176900 61.111942 -45.672157
v 6.552620 61.544689 -48.928360
v 3.955210 61.194347 -51.910339
v 5.928340 61.977440 -52.184570
v 10.768380 57.814606 -12.537650
v 12.741509 58.597698 -12.811860
v 13.406481 56.793591 -13.179111
v 10.869020 57.777069 -12.833671
v 3.294650 63.399246 -58.720879
v 19.232939 54.099277 21.068439
v 19.750731 52.305420 20.554609
v 17.924679 51.512142 20.975649
v 17.259739 53.316322 21.342522

vt 0.033358 0.643728
vt 0.190411 0.923560
vt 0.402692 0.503812
vt 0.402692 0.647326
vt 0.408249 0.287497
vt 0.408249 0.367848
vt 0.492649 0.287497
vt 0.492649 0.367848
vt 0.403043 0.503812
vt 0.403044 0.647326
vt 0.033710 0.643728
vt 0.190763 0.923560
vt 0.033358 0.363896
vt 0.033710 0.363896
vt 0.190411 0.084064
vt 0.402692 0.360297
vt 0.408249 0.207147
vt 0.492649 0.207147
vt 0.403043 0.360297
vt 0.190763 0.084064
vt 0.408248 1.036942
vt 0.492649 1.036942
vt 0.483600 0.371280
vt 0.402049 0.371280
vt 0.402049 1.040375
vt 0.483600 1.040375
vt 0.450449 0.037941
vt 0.483600 0.210579
vt 0.402049 0.210579
vt 0.442825 0.041374
vt 0.000000 1.000000

vn -0.421957 0.871351 0.250401
vn -0.527606 0.822988 0.210529
vn -0.339699 0.921632 0.187614
vn -0.222897 0.959851 0.170300
vn -0.209934 0.949852 0.231751
vn -0.451271 0.869215 0.202036
vn -0.462815 0.875362 0.139800
vn -0.136317 0.978282 0.156148
vn -0.252947 0.959714 0.122341
vn 0.136314 -0.978282 -0.156148
vn 0.252947 -0.959714 -0.122340
vn 0.339702 -0.921631 -0.187612
vn 0.462814 -0.875363 -0.139799
vn 0.451271 -0.869216 -0.202036
vn 0.222897 -0.959852 -0.170298
vn 0.209934 -0.949852 -0.231751
vn 0.421956 -0.871351 -0.250401
vn 0.527607 -0.822988 -0.210529
vn 0.862194 0.225447 0.453646
vn -0.648007 -0.373921 0.663528
vn -0.862195 -0.225442 -0.453646
vn 0.648012 0.373912 -0.663529
vn -0.362546 -0.931913 -0.009953
vn -0.921150 -0.366302 0.131550
vn -0.438678 -0.897953 -0.035235
vn 0.921816 0.365846 -0.128110
vn -0.362168 0.930676 0.051745
vn 0.310759 -0.895036 -0.319907
vn 0.883292 0.381141 -0.272998
vn -0.939405 -0.342244 -0.019688
vn 0.931661 0.338555 -0.131867
vn -0.902079 -0.416141 0.114367
vn -0.068262 -0.987274 -0.143635
vn -0.339705 0.921662 0.187458
vn 0.263792 -0.097906 0.959598
vn 0.216038 -0.210727 0.953374

f 1/1/1 2/2/1 3/3/1
f 4/4/2 3/3/2 2/2/2
f 3/5/3 4/6/3 5/7/3
f 6/8/3 5/7/3 4/6/3
f 5/9/4 6/10/4 7/11/4
f 8/12/5 7/11/5 6/10/5
f 9/13/6 1/1/6 3/3/6
f 7/11/4 10/14/4 5/9/4
f 11/15/7 9/13/7 12/16/7
f 3/3/6 12/16/6 9/13/6
f 12/17/3 3/5/3 13/18/3
f 5/7/3 13/18/3 3/5/3
f 13/19/8 5/9/8 14/20/8
f 10/14/9 14/20/9 5/9/9
f 15/4/10 2/2/10 16/3/10
f 1/1/11 16/3/11 2/2/11
f 17/8/12 15/6/12 18/7/12
f 16/5/12 18/7/12 15/6/12
f 8/12/13 17/10/13 7/11/13
f 18/9/14 7/11/14 17/10/14
f 16/3/15 1/1/15 9/13/15
f 7/11/14 18/9/14 10/14/14
f 16/3/15 9/13/15 19/16/15
f 11/15/16 19/16/16 9/13/16
f 18/7/12 16/5/12 20/18/12
f 19/17/12 20/18/12 16/5/12
f 10/14/17 18/9/17 14/20/17
f 20/19/18 14/20/18 18/9/18
f 4/4/19 2/2/19 15/4/19
f 17/10/20 8/12/20 6/10/20
f 13/19/21 14/20/21 20/19/21
f 19/16/22 11/15/22 12/16/22
f 6/8/3 4/6/3 21/21/3
f 21/21/3 22/22/3 6/8/3
f 15/6/12 17/8/12 23/22/12
f 23/22/23 24/21/23 15/6/23
f 4/23/24 15/24/24 24/25/24
f 24/25/25 21/26/25 4/23/25
f 17/24/26 6/23/26 22/26/26
f 22/26/26 23/25/26 17/24/26
f 12/17/27 13/18/27 25/27/27
f 20/18/28 19/17/28 25/27/28
f 13/28/29 20/29/29 25/30/29
f 19/29/30 12/28/30 25/30/30
f 23/22/31 22/21/31 26/22/31 27/31/31
f 21/21/32 24/22/32 28/21/32 29/31/32
f 24/21/33 23/22/33 27/21/33 28/31/33
f 22/22/34 21/21/34 29/22/34 26/31/34
f 28/21/35 27/22/35 29/21/35
f 26/22/36 29/21/36 27/22/36

