mtllib anim_barb_attack6_axe_000086.mtl

o fat
usemtl axe.001
s off

v -31.368320 31.379271 45.205658
v -28.222330 31.711731 38.601650
v -34.363419 23.790501 42.656662
v -32.644810 25.355740 40.253292
v -34.495060 22.044529 41.425430
v -32.776451 23.609770 39.022049
v -32.464321 16.842470 34.954552
v -28.908251 22.614019 32.186092
v -34.719360 28.327259 49.891891
v -35.815350 13.790480 39.640789
v -38.275421 22.555721 52.660351
v -36.082039 22.225239 45.060047
v -36.213669 20.479280 43.828812
v -38.961338 13.458000 46.244789
v -30.969999 24.690460 41.017628
v -32.688610 23.125210 43.421021
v -31.101639 22.944500 39.786411
v -32.820240 21.379250 42.189770
v -34.407219 21.559971 45.824390
v -34.538860 19.813992 44.593170
v -15.495140 40.975071 16.270401
v -15.626770 39.229099 15.039169
v -13.951950 38.563820 15.803519
v -14.890520 44.271950 16.496620
v -38.929562 17.723450 49.887737
v 2.254290 55.514458 -9.966490
v 3.821010 54.872910 -9.252080
v 4.060740 56.595150 -7.970910
v 2.385930 57.260433 -8.735260

vt 0.033358 0.643728
vt 0.190411 0.923560
vt 0.402692 0.503812
vt 0.402692 0.647326
vt 0.408249 0.287497
vt 0.408249 0.367848
vt 0.492649 0.287497
vt 0.492649 0.367848
vt 0.403043 0.503812
vt 0.403044 0.647326
vt 0.033710 0.643728
vt 0.190763 0.923560
vt 0.033358 0.363896
vt 0.033710 0.363896
vt 0.190411 0.084064
vt 0.402692 0.360297
vt 0.408249 0.207147
vt 0.492649 0.207147
vt 0.403043 0.360297
vt 0.190763 0.084064
vt 0.408248 1.036942
vt 0.492649 1.036942
vt 0.483600 0.371280
vt 0.402049 0.371280
vt 0.402049 1.040375
vt 0.483600 1.040375
vt 0.450449 0.037941
vt 0.483600 0.210579
vt 0.402049 0.210579
vt 0.442825 0.041374
vt 0.000000 1.000000

vn -0.816754 0.445508 -0.366654
vn -0.823041 0.505239 -0.259494
vn -0.855585 0.339861 -0.390472
vn -0.856614 0.236203 -0.458717
vn -0.822182 0.264905 -0.503828
vn -0.841378 0.438284 -0.316212
vn -0.872234 0.408160 -0.269467
vn -0.849146 0.158995 -0.503658
vn -0.883093 0.229714 -0.409120
vn 0.849146 -0.158995 0.503658
vn 0.883093 -0.229714 0.409120
vn 0.855586 -0.339861 0.390470
vn 0.872234 -0.408160 0.269468
vn 0.841379 -0.438283 0.316211
vn 0.856614 -0.236202 0.458717
vn 0.822182 -0.264904 0.503827
vn 0.816754 -0.445509 0.366654
vn 0.823041 -0.505239 0.259494
vn 0.244442 -0.399658 -0.883472
vn 0.345196 0.936681 0.058892
vn -0.244446 0.399658 0.883470
vn -0.345193 -0.936682 -0.058890
vn 0.810907 0.062690 0.581808
vn 0.019554 0.774977 0.631687
vn -0.852927 0.189787 -0.486308
vn -0.061496 -0.815691 -0.575210
vn -0.918205 0.272169 -0.287790
vn 0.776670 -0.401075 0.485718
vn -0.138040 -0.876774 -0.460665
vn -0.016438 0.736080 0.676694
vn -0.065233 -0.814360 -0.576682
vn -0.720485 0.678325 -0.144144
vn 0.820888 -0.073280 0.566368
vn 0.513750 0.464888 -0.721069
vn 0.517973 0.466539 -0.716970

f 1/1/1 2/2/1 3/3/1
f 4/4/2 3/3/2 2/2/2
f 3/5/3 4/6/3 5/7/3
f 6/8/3 5/7/3 4/6/3
f 5/9/4 6/10/4 7/11/4
f 8/12/5 7/11/5 6/10/5
f 9/13/6 1/1/6 3/3/6
f 7/11/4 10/14/4 5/9/4
f 11/15/7 9/13/7 12/16/7
f 3/3/6 12/16/6 9/13/6
f 12/17/3 3/5/3 13/18/3
f 5/7/3 13/18/3 3/5/3
f 13/19/8 5/9/8 14/20/8
f 10/14/9 14/20/9 5/9/9
f 15/4/10 2/2/10 16/3/10
f 1/1/11 16/3/11 2/2/11
f 17/8/12 15/6/12 18/7/12
f 16/5/12 18/7/12 15/6/12
f 8/12/13 17/10/13 7/11/13
f 18/9/14 7/11/14 17/10/14
f 16/3/15 1/1/15 9/13/15
f 7/11/14 18/9/14 10/14/14
f 16/3/15 9/13/15 19/16/15
f 11/15/16 19/16/16 9/13/16
f 18/7/12 16/5/12 20/18/12
f 19/17/12 20/18/12 16/5/12
f 10/14/17 18/9/17 14/20/17
f 20/19/18 14/20/18 18/9/18
f 4/4/19 2/2/19 15/4/19
f 17/10/20 8/12/20 6/10/20
f 13/19/21 14/20/21 20/19/21
f 19/16/22 11/15/22 12/16/22
f 6/8/3 4/6/3 21/21/3
f 21/21/3 22/22/3 6/8/3
f 15/6/12 17/8/12 23/22/12
f 23/22/23 24/21/23 15/6/23
f 4/23/24 15/24/24 24/25/24
f 24/25/25 21/26/25 4/23/25
f 17/24/26 6/23/26 22/26/26
f 22/26/26 23/25/26 17/24/26
f 12/17/27 13/18/27 25/27/27
f 20/18/28 19/17/28 25/27/28
f 13/28/29 20/29/29 25/30/29
f 19/29/30 12/28/30 25/30/30
f 23/22/31 22/21/31 26/22/31 27/31/31
f 21/21/32 24/22/32 28/21/32 29/31/32
f 24/21/33 23/22/33 27/21/33 28/31/33
f 22/22/3 21/21/3 29/22/3 26/31/3
f 28/21/34 27/22/34 29/21/34
f 26/22/35 29/21/35 27/22/35

