mtllib anim_barb_attack_000064.mtl

o fat
usemtl fat.001
s off

v -0.137810 38.697411 -3.619740
v 1.860240 36.144421 6.136090
v 0.318890 37.888851 1.499320
v 0.410170 61.090431 -7.918510
v 9.299520 66.602631 -5.719680
v 2.812830 57.244057 -7.502240
v -0.362600 52.767609 -6.041180
v 7.888600 62.159153 -2.129410
v 7.702180 57.466389 -1.954540
v 6.919220 52.323917 -1.993040
v 4.142630 52.659332 -6.110460
v 6.403020 57.937321 -6.820000
v 9.003679 37.494900 4.871430
v 9.352560 39.495251 -1.703390
v 10.561490 39.000259 -2.178240
v 6.412290 38.401989 4.738550
v 3.993900 37.029701 7.067480
v 4.408740 37.288528 -6.702580
v 3.744780 39.174179 -5.729600
v 0.502520 38.456089 -4.580750
v -0.321370 35.989498 -5.198840
v 0.201120 66.615051 -6.918230
v 0.170300 68.594070 -6.546190
v 0.128960 57.115768 5.394880
v 5.379790 57.438889 2.977180
v 6.255160 61.257381 4.919990
v 8.980730 61.583500 2.494940
v 6.123870 63.988197 5.552740
v 11.316650 65.956871 1.434090
v 4.497020 52.912579 4.043440
v 1.102870 51.159958 3.859500
v 0.791740 63.453949 7.230659
v 4.825240 70.663239 -2.500680
v 10.751049 67.417938 -5.089130
v 11.536510 67.821350 -1.428840
v 2.905110 68.574173 5.848280
v 5.512380 70.796616 1.788140
v 0.171630 67.599640 6.331990
v 2.663080 74.625267 4.446080
v 3.279240 73.161469 0.662550
v 0.247260 73.511841 -0.114280
v 0.175950 75.572578 3.407710
v 0.334850 71.964767 -2.376770
v 0.489180 47.949051 5.098320
v 5.364230 48.310089 5.021660
v 8.418850 47.958351 -0.155810
v 4.990360 47.366291 -5.363330
v -0.188040 47.415081 -7.108570
v 11.736140 65.357658 1.274680
v 9.623030 63.219864 -5.848650
v 13.229150 65.003708 -1.378750
v 12.272550 65.728500 -4.364650
v 9.054060 63.327198 2.828520
v 2.581520 72.697433 9.614900
v 1.180830 70.793159 10.910760
v 2.894370 68.855446 7.109790
v 1.639600 67.294983 8.857039
v 0.698310 69.483002 10.511260
v 1.643460 72.749626 11.215859
v -0.144470 72.556885 11.440260
v 3.177320 74.673325 7.330710
v 0.535690 76.395584 12.566680
v -0.763210 76.279648 12.815130
v 1.701340 73.821999 12.140599
v 2.256590 75.880058 11.623410
v 1.223440 78.377930 10.285660
v -0.414440 78.422539 10.095720
v 0.269850 70.666992 11.419450
v -0.765430 73.206200 11.906231
v -0.900690 70.950684 12.529779
v -0.835060 70.544724 11.773050
v -0.843340 69.009689 11.388420
v 0.535200 66.445709 10.275089
v -0.861440 66.297363 10.742249
v 3.025130 76.928360 7.948460
v 2.543030 78.271477 7.718400
v -0.045170 78.807785 6.646330
v 13.518420 63.195511 1.172770
v 13.963831 62.607658 -2.493340
v 8.870610 56.593952 -0.459870
v 10.595990 58.395611 3.418690
v 10.348810 60.202950 -4.723740
v 11.408770 52.615299 0.835880
v 11.822550 48.162098 0.108180
v 11.531469 49.481201 3.235290
v 14.404190 51.848339 -0.899900
v 15.715190 54.298359 0.374690
v 15.094670 48.154312 0.467830
v 15.332621 54.391781 2.532650
v 16.344690 49.145050 3.116910
v 13.343650 52.731018 3.721130
v 14.657050 49.918098 5.058140
v 13.349449 54.483253 -1.869200
v 13.907850 53.305969 -1.522910
v 15.061379 59.273918 -1.409720
v 14.379589 59.842018 1.993620
v 12.653240 54.444550 3.480640
v 12.466760 56.608902 -3.602520
v 11.379900 42.148289 4.033640
v 11.347341 42.927551 5.761440
v 12.877660 41.835800 3.728380
v 13.976780 42.411350 5.154430
v 13.312310 43.102150 6.506740
v 14.000501 39.749371 10.435990
v 13.189610 39.447853 10.118541
v 13.236629 39.809689 8.857150
v 14.044360 40.126629 8.431440
v 14.107209 38.582230 7.733940
v 13.088731 41.815239 9.421061
v 13.997840 40.775181 9.213090
v 13.211210 40.267330 11.001060
v 13.675241 38.603672 11.300980
v 13.050370 39.062878 11.631480
v 13.583070 36.788147 8.957530
v 9.906820 38.397430 5.260680
v 9.695560 36.609451 6.063670
v 9.857480 34.127583 7.600900
v 13.066030 37.779621 9.602150
v 10.669510 36.354469 5.749050
v 11.088920 37.970619 4.738710
v 12.661600 34.838741 10.763530
v 3.921370 26.176418 -1.210120
v 7.434220 21.704140 -8.962790
v 5.166040 18.713230 -4.155060
v 9.747220 27.075310 -2.372120
v 12.371820 20.637760 -5.535210
v 6.138390 27.314320 -5.135740
v 8.111240 23.633980 0.412010
v 9.179430 18.233360 -1.141960
v 7.888700 25.717541 1.490240
v 7.954090 28.191111 1.170960
v 10.529190 30.852470 -3.031730
v 7.679530 32.617599 3.616990
v 11.956270 10.834841 -9.934470
v 13.255090 8.424490 -11.609350
v 10.040020 9.313570 -13.259581
v 11.152030 8.586400 -8.468340
v 8.469630 10.058939 -9.824680
v 8.442730 7.127370 -10.870600
v 9.486010 4.232180 -14.577600
v 12.465930 4.905320 -14.972200
v 10.414320 3.040670 -6.139230
v 16.308090 4.676070 -7.113460
v 13.266920 5.363880 -2.865450
v 16.005110 3.987210 -3.009970
v 12.284350 2.861960 -1.761680
v -9.555850 65.119408 -4.558010
v -1.892230 57.228500 -7.644750
v -5.901870 62.244621 0.971180
v -7.318430 57.355007 -1.869230
v -4.956670 52.520069 -4.634780
v -6.374790 51.673889 -0.103480
v -5.753590 57.868126 -6.916060
v -9.006149 39.092361 0.135690
v -7.268270 36.705379 6.372200
v -10.268280 38.560741 -0.114010
v -4.827410 37.757511 5.742320
v -5.057970 37.167530 -5.890620
v -4.554060 39.149189 -5.041200
v -1.041260 38.393978 -4.646000
v -4.829290 57.296909 3.290180
v -5.086390 60.955528 5.782030
v -10.126920 61.626038 4.147380
v -4.769800 63.643806 6.575930
v -10.258699 66.958687 3.802140
v -2.454760 51.039848 3.938070
v -11.432160 66.167816 -2.833640
v -4.955480 70.536720 -2.171010
v -11.570149 67.662468 1.255050
v -2.595220 68.546707 5.868930
v -5.928100 70.774223 1.861100
v -2.505460 74.762329 3.973710
v -2.831450 73.224594 0.432940
v -3.837170 47.905842 5.876070
v -7.887930 47.657719 1.260670
v -5.416080 47.261219 -4.350480
v -11.504830 66.234970 3.739260
v -9.507680 60.673290 -2.140680
v -13.196779 65.824799 1.520020
v -12.564720 62.949238 -0.908900
v -9.720660 63.200478 3.939870
v -2.612380 70.912048 10.517960
v -3.597380 72.891113 8.975039
v -3.200620 68.968071 6.778390
v -2.856860 67.435928 8.391410
v -2.140420 69.571976 10.217299
v -1.316860 72.593620 11.318880
v -3.005530 72.895363 10.734420
v -3.589360 74.885429 6.629990
v -1.974020 76.474258 12.306780
v -3.184930 73.975159 11.634609
v -3.493930 76.060318 11.027909
v -2.056070 78.480721 9.946070
v -1.834430 70.732948 11.201540
v -2.120930 66.528969 10.000030
v -3.427430 77.130608 7.280290
v -2.826160 78.439774 7.162380
v -12.684060 63.885120 4.509710
v -13.727480 61.963768 1.438370
v -9.117890 60.320492 7.721480
v -7.741280 57.302799 4.540320
v -10.312470 58.986961 -0.455510
v -7.903230 51.667191 7.287570
v -9.669600 53.914452 7.751880
v -9.351780 54.535187 9.198820
v -12.757820 52.451439 6.760030
v -14.104139 55.185398 7.198790
v -10.022860 49.934940 8.269480
v -13.542900 56.035118 9.143140
v -11.321140 50.397919 10.972630
v -10.467290 52.579979 12.607670
v -11.332920 55.009342 10.580870
v -12.047850 54.564072 4.726890
v -12.407660 53.650589 5.578590
v -14.255131 59.109570 3.688620
v -13.192169 60.946598 6.511240
v -10.511360 57.055191 8.761320
v -11.588201 55.883553 2.252570
v -3.190360 48.256958 12.569990
v -3.645790 48.857159 13.051460
v -4.607440 46.685440 11.628990
v -5.567520 46.908577 13.295300
v -5.176210 48.120979 14.297290
v -2.104010 45.611809 17.835270
v -3.046090 45.907742 18.519958
v -2.442900 45.551674 16.808811
v -3.690640 45.741966 16.589230
v -3.006840 44.276527 16.068079
v -3.862940 46.477654 17.269661
v -3.453760 47.641811 17.229040
v -2.594340 46.875092 18.786930
v -1.970080 45.331150 19.342119
v -1.661430 46.109436 19.439390
v -1.336370 43.352020 17.225990
v 0.819380 44.997250 13.046900
v -0.253930 46.206478 12.661320
v 2.059630 43.096130 14.074269
v -1.415020 44.265526 17.131260
v 0.612580 43.784298 13.354059
v -0.830080 44.664120 12.384560
v 0.572430 42.444080 18.143230
v -6.751060 18.990860 -6.786010
v -3.220660 25.662079 -0.182640
v -4.404820 17.646490 -2.175030
v -11.643810 19.123640 -3.558260
v -9.070810 26.500759 -1.484960
v -5.489470 27.195671 -3.980750
v -7.293360 23.141489 1.424760
v -8.375540 17.655041 0.845140
v -7.160360 25.058519 2.456500
v -6.552380 27.794731 2.392000
v -10.019031 30.331221 -1.192100
v -5.989530 32.202789 4.787170
v -12.424560 5.539410 -4.819770
v -11.149830 8.288270 -4.365390
v -9.261070 6.048900 -6.865120
v -10.279400 6.347410 -1.846840
v -7.592890 4.478520 -3.950230
v -7.645580 7.573210 -3.695730
v -8.567090 0.937350 -7.075010
v -11.577720 1.598290 -7.613870
v -9.320580 1.047070 1.353800
v -15.279690 2.356300 0.287460
v -12.191720 3.725250 4.331380
v -14.886820 2.262750 4.437850
v -11.112190 1.433050 5.753990

vt 0.550479 0.485338
vt 0.414517 0.485338
vt 0.489174 0.497239
vt 0.490853 0.675485
vt 0.356970 0.710738
vt 0.458986 0.602657
vt 0.458693 0.603155
vt 0.491001 0.506534
vt 0.357039 0.710738
vt 0.272881 0.708251
vt 0.307767 0.663467
vt 0.329118 0.504113
vt 0.420682 0.504388
vt 0.307693 0.663467
vt 0.420389 0.504181
vt 0.390374 0.619683
vt 0.389206 0.622726
vt 0.390855 0.620128
vt 0.309151 0.663075
vt 0.578845 0.971377
vt 0.529882 0.993867
vt 0.501054 0.950636
vt 0.597833 0.993868
vt 0.684209 0.993870
vt 0.691613 0.940228
vt 0.584242 0.936155
vt 0.602549 0.993867
vt 0.689094 0.993870
vt 0.694409 0.971380
vt 0.730001 0.975635
vt 0.490853 0.781888
vt 0.490853 0.820915
vt 0.240556 0.660920
vt 0.133663 0.660928
vt 0.131880 0.753091
vt 0.060606 0.782384
vt 0.055577 0.663688
vt 0.136145 0.808744
vt 0.060014 0.783494
vt 0.058190 0.859642
vt 0.160773 0.512959
vt 0.067037 0.515196
vt 0.240700 0.512959
vt 0.131877 0.752996
vt 0.240556 0.781375
vt 0.390182 0.870896
vt 0.298691 0.847983
vt 0.294173 0.886121
vt 0.181129 0.899551
vt 0.052544 0.886601
vt 0.145152 0.921474
vt 0.235241 0.891030
vt 0.142740 0.921054
vt 0.172936 0.966074
vt 0.456563 0.999059
vt 0.389917 0.922986
vt 0.429989 0.941889
vt 0.491140 0.942697
vt 0.490646 0.999330
vt 0.490853 0.898039
vt 0.701416 0.118225
vt 0.813217 0.120956
vt 0.790107 0.184348
vt 0.877923 0.002315
vt 0.872775 0.120438
vt 0.505869 0.118716
vt 0.564263 0.119120
vt 0.507564 0.183764
vt 0.697589 0.180917
vt 0.580429 0.182675
vt 0.710756 0.001536
vt 0.701372 0.182427
vt 0.812168 0.002315
vt 0.857243 0.184348
vt 0.697567 0.116528
vt 0.503935 0.000692
vt 0.561277 0.000692
vt 0.688827 -0.000098
vt 0.002866 0.854679
vt 0.027518 0.706813
vt 0.061197 0.782654
vt 0.055608 0.663958
vt 0.251604 0.781884
vt 0.357109 0.710738
vt 0.243886 0.876138
vt 0.247300 0.848527
vt -0.000514 0.880403
vt 0.006948 0.782948
vt 0.674684 0.829607
vt 0.705811 0.784366
vt 0.654033 0.662928
vt 0.703232 0.671848
vt 0.720473 0.730776
vt 0.697736 0.853617
vt 0.729837 0.853035
vt 0.623758 0.856571
vt 0.587609 0.811448
vt 0.658187 0.605708
vt 0.748523 0.593788
vt 0.716351 0.931575
vt 0.747491 0.935506
vt 0.695349 0.885675
vt 0.676247 0.904603
vt 0.649719 0.961956
vt 0.745560 1.001324
vt 0.725611 0.781438
vt 0.747491 0.878462
vt 0.747491 0.808438
vt 0.720379 0.731031
vt 0.747491 0.790807
vt 0.720762 0.730332
vt 0.748639 0.732530
vt 0.746944 0.628012
vt 0.703659 0.671442
vt 0.731857 0.666086
vt 0.747085 0.666819
vt 0.703186 0.671176
vt 0.611291 0.885598
vt 0.604148 0.909350
vt 0.550618 0.823662
vt 0.550618 0.934468
vt 0.625864 0.557513
vt 0.571978 0.557920
vt 0.578607 0.510287
vt 0.669444 0.510287
vt 0.756032 0.560223
vt 0.679695 0.557918
vt 0.877240 0.461159
vt 0.992418 0.461159
vt 0.944262 0.560223
vt 0.756457 0.510287
vt 0.806202 0.560223
vt 0.498275 0.560223
vt 0.875566 0.382888
vt 0.758260 0.308662
vt 0.875912 0.308662
vt 0.759996 0.360654
vt 0.669163 0.382888
vt 0.671223 0.308662
vt 0.584325 0.382888
vt 0.577057 0.308662
vt 0.498223 0.363687
vt 0.498247 0.308662
vt 0.992597 0.308662
vt 0.992439 0.363687
vt 0.759483 0.410364
vt 0.758924 0.382888
vt 0.665903 0.461159
vt 0.580075 0.461159
vt 0.498223 0.402657
vt 0.992438 0.402657
vt 0.760539 0.449273
vt 0.498220 0.461159
vt 0.875438 0.575163
vt 0.762705 0.196431
vt 0.858161 0.196355
vt 0.690657 0.196417
vt 0.588027 0.196417
vt 0.498144 0.196431
vt 0.991918 0.196431
vt 0.375723 0.009258
vt 0.380090 0.017573
vt 0.356438 0.030356
vt 0.342839 0.029458
vt 0.369327 0.043627
vt 0.316032 0.012201
vt 0.336848 0.019568
vt 0.249292 0.041099
vt 0.371147 0.002582
vt 0.416197 0.004791
vt 0.408124 0.000758
vt 0.128136 0.016613
vt 0.154876 0.002573
vt 0.119423 0.002194
vt 0.160447 0.001473
vt 0.065726 0.014292
vt 0.105093 0.028910
vt 0.000825 0.069213
vt 0.000703 0.039244
vt 0.249314 0.055441
vt 0.429228 0.045736
vt 0.102506 0.115410
vt 0.153549 0.117195
vt 0.189513 0.114692
vt 0.228429 0.109580
vt 0.194639 0.033982
vt 0.406548 0.108121
vt 0.355355 0.108206
vt 0.448349 0.035630
vt 0.498209 0.039288
vt 0.461840 0.047992
vt 0.483032 0.114221
vt 0.406174 0.120334
vt 0.355217 0.119080
vt 0.243215 0.037501
vt 0.249314 0.089732
vt 0.000703 0.095058
vt 0.249292 0.105039
vt 0.160984 0.032072
vt 0.413806 0.033644
vt 0.442212 0.108407
vt 0.443088 0.117732
vt 0.023914 0.327327
vt 0.104127 0.227894
vt 0.000784 0.227894
vt 0.216171 0.327327
vt 0.216985 0.228421
vt 0.105699 0.228145
vt 0.104981 0.327662
vt 0.217575 0.327327
vt 0.351490 0.301452
vt 0.217290 0.227894
vt 0.351571 0.227894
vt 0.352420 0.301452
vt 0.489174 0.227894
vt 0.352342 0.227894
vt 0.471690 0.333380
vt 0.351597 0.328057
vt 0.217345 0.328075
vt 0.352312 0.363299
vt 0.470864 0.334174
vt 0.352330 0.328057
vt 0.216660 0.380224
vt 0.216104 0.328075
vt 0.104983 0.328371
vt 0.217232 0.380224
vt 0.351611 0.363299
vt 0.351459 0.420971
vt 0.352499 0.420971
vt 0.351589 0.497239
vt 0.229465 0.497239
vt 0.352627 0.497239
vt 0.229583 0.497239
vt 0.133020 0.497239
vt 0.072972 0.497239
vt 0.025422 0.328212
vt 0.002386 0.497239
vt 0.216130 0.152222
vt 0.223982 0.125749
vt 0.105883 0.155747
vt 0.351732 0.147623
vt 0.223132 0.128232
vt 0.218721 0.149411
vt 0.469070 0.149411
vt 0.483427 0.127273
vt 0.352306 0.146326
vt 0.017963 0.152222
vt 0.104256 0.155747
vt 0.009616 0.131504
vt 0.104128 0.227914
vt 0.000790 0.227921
vt 0.216984 0.228396
vt 0.351571 0.227971
vt 0.217291 0.227882
vt 0.352342 0.227879
vt 0.489111 0.227891
vt 0.948232 0.041698
vt 0.989968 0.003451
vt 0.971575 0.059997
vt 0.909211 0.004273
vt 0.996004 0.120663
vt 0.925604 0.058708
vt 0.885225 0.122889
vt 0.516483 0.798440
vt 0.501430 0.685191
vt 0.597947 0.686709
vt 0.594444 0.793024
vt 0.950876 0.082499
vt 0.943924 0.157220
vt 0.507177 0.624822
vt 0.600053 0.622523
vt 0.901715 0.182549
vt 0.982420 0.184037
vt 0.730212 0.975635
vt 0.685579 0.991654
vt 0.692830 0.969164

vn -0.666806 -0.742981 -0.057864
vn 0.220942 0.032523 -0.974744
vn -0.158025 -0.203287 -0.966283
vn 0.940467 -0.024727 0.338985
vn 0.818490 -0.120413 -0.561760
vn -0.021803 -0.296195 -0.954879
vn 0.223408 -0.223232 -0.948818
vn 0.922336 -0.273667 -0.272768
vn 0.173835 0.066654 -0.982516
vn 0.870769 -0.409509 -0.272146
vn -0.456123 -0.844357 -0.281094
vn -0.302600 -0.907259 -0.292085
vn -0.219694 -0.723492 -0.654442
vn -0.143668 -0.845016 0.515079
vn -0.474413 -0.529805 0.703021
vn 0.368428 -0.339893 0.865294
vn 0.378271 -0.315805 0.870160
vn 0.948554 -0.316614 -0.000891
vn 0.128595 0.185159 -0.974258
vn 0.389833 -0.487020 0.781563
vn 0.729129 -0.593921 0.340043
vn 0.650905 -0.168085 0.740317
vn 0.407727 0.133277 0.903325
vn 0.921182 -0.090505 0.378461
vn 0.070498 -0.238186 0.968657
vn 0.269714 -0.293810 0.917022
vn -0.005280 0.617630 -0.786451
vn 0.128681 0.181393 -0.974955
vn 0.619116 -0.464204 0.633411
vn 0.408174 0.893736 -0.186092
vn 0.312288 -0.200162 0.928661
vn 0.219323 0.742969 -0.632372
vn 0.667539 -0.137462 0.731776
vn 0.515669 0.310471 0.798557
vn 0.580388 0.661288 0.475234
vn 0.269052 0.242309 0.932147
vn 0.157735 0.047145 0.986355
vn 0.784428 0.169617 0.596576
vn 0.750827 0.647900 -0.128390
vn 0.473771 0.764246 -0.437572
vn 0.190746 0.925564 -0.327027
vn 0.513893 0.569367 0.641666
vn 0.400756 0.911498 -0.092555
vn 0.752372 0.643568 -0.140557
vn 0.221456 0.815020 -0.535444
vn 0.232347 0.807046 -0.542855
vn 0.202475 0.757630 -0.620485
vn -0.000016 0.207896 0.978151
vn 0.860315 0.092603 0.501281
vn 0.831310 0.052710 -0.553304
vn -0.018647 -0.142671 -0.989595
vn 0.002277 0.178181 0.983995
vn -0.249269 0.389694 0.886568
vn 0.914483 0.304026 0.267000
vn 0.782177 0.450028 0.430898
vn 0.908111 0.243509 0.340644
vn 0.829917 0.054550 -0.555213
vn 0.314863 0.195485 -0.928788
vn 0.777669 0.309543 -0.547188
vn 0.577173 0.074756 -0.813193
vn 0.318449 0.106792 -0.941905
vn -0.260021 -0.156234 -0.952880
vn 0.389413 0.118354 0.913427
vn 0.805375 0.466531 0.365676
vn 0.970802 -0.047327 -0.235165
vn 0.364005 0.070222 -0.928746
vn 0.380933 0.020760 0.924370
vn 0.848838 0.507277 -0.148808
vn 0.789836 0.481236 0.380224
vn 0.462073 0.036156 -0.886104
vn 0.770159 0.594629 -0.230804
vn -0.896447 -0.069043 -0.437740
vn 0.973305 0.002970 -0.229496
vn -0.589658 0.175610 -0.788330
vn 0.822767 -0.261912 0.504437
vn 0.449119 -0.407816 0.794971
vn 0.142010 -0.185215 0.972383
vn 0.976795 -0.055362 0.206895
vn 0.984482 -0.001287 -0.175481
vn 0.998594 -0.049306 0.019493
vn 0.360739 -0.909655 0.205898
vn 0.193735 -0.074210 0.978243
vn 0.911170 -0.149324 0.384020
vn 0.974672 -0.039416 0.220136
vn -0.054128 0.761713 0.645650
vn 0.475327 0.094570 0.874712
vn 0.684976 0.142295 0.714535
vn 0.699334 0.151200 0.698620
vn 0.486842 -0.413858 0.769225
vn 0.313349 -0.503983 0.804869
vn 0.049234 0.781415 0.622067
vn -0.020318 -0.283515 0.958753
vn 0.245448 -0.845226 0.474709
vn 0.531248 -0.208614 0.821131
vn 0.474288 -0.797912 -0.372004
vn 0.864976 -0.164825 0.473971
vn 0.007755 -0.959525 -0.281517
vn 0.513966 -0.093902 0.852655
vn 0.810867 -0.088529 0.578496
vn 0.317126 -0.901928 -0.293186
vn 0.330397 -0.220819 0.917647
vn 0.977702 0.114254 -0.176197
vn 0.917814 0.281483 -0.279972
vn 0.767694 -0.441750 0.464222
vn 0.163230 -0.649336 0.742778
vn 0.826306 -0.272272 0.493039
vn 0.056784 -0.545676 0.836070
vn 0.520855 0.560332 0.644001
vn 0.978250 0.009257 0.207221
vn 0.884047 0.366914 0.289544
vn 0.769131 0.518339 0.373847
vn 0.497932 0.082603 0.863273
vn 0.491994 0.590406 -0.639814
vn 0.399782 0.661986 -0.633995
vn 0.151110 0.980494 0.125687
vn 0.030217 0.999208 -0.025898
vn 0.896148 -0.139595 0.421227
vn 0.734797 0.589924 0.334757
vn 0.590401 -0.154994 -0.792088
vn 0.906673 0.371211 -0.200365
vn -0.853456 -0.209749 0.477094
vn 0.962629 0.260164 0.075235
vn 0.590720 -0.153271 -0.792186
vn -0.797221 -0.369728 -0.477221
vn 0.343754 0.240578 0.907720
vn -0.994882 -0.083033 -0.057582
vn -0.480102 0.097843 -0.871739
vn 0.828366 -0.532979 0.172463
vn 0.109157 -0.026087 -0.993682
vn 0.979354 -0.096215 0.177788
vn 0.880140 0.118588 -0.459663
vn 0.729731 0.540042 0.419342
vn 0.392320 0.176208 0.902793
vn -0.513903 0.160586 0.842684
vn -0.781578 0.359626 0.509711
vn -0.471603 -0.530306 -0.704533
vn -0.537673 -0.462406 -0.705045
vn 0.688294 0.115826 -0.716126
vn 0.671037 -0.170590 -0.721532
vn 0.968954 0.185816 0.163094
vn 0.968886 0.185614 0.163730
vn 0.326681 0.259189 0.908901
vn -0.761413 -0.388316 0.519096
vn -0.794717 -0.298742 -0.528373
vn -0.490498 -0.663944 -0.564438
vn 0.746415 -0.206039 -0.632782
vn 0.562377 -0.082292 -0.822776
vn 0.941939 0.330102 0.061507
vn 0.949491 0.278986 0.143642
vn 0.345062 0.217162 0.913112
vn 0.239007 0.288336 0.927221
vn -0.963791 -0.095359 0.249025
vn 0.733889 -0.039932 -0.678095
vn -0.528665 -0.479415 -0.700482
vn -0.800466 -0.245799 0.546660
vn 0.332391 0.150209 0.931103
vn -0.764661 -0.302494 0.569026
vn 0.291215 0.166401 0.942074
vn 0.584973 0.093384 -0.805659
vn -0.557462 -0.528297 -0.640420
vn -0.999483 0.017738 -0.026832
vn -0.995247 0.010025 -0.096870
vn -0.272806 -0.511707 -0.814698
vn 0.094560 -0.482521 -0.870765
vn 0.867189 -0.432053 -0.247616
vn 0.794129 -0.413911 -0.445013
vn 0.854778 -0.150270 0.496763
vn 0.752935 -0.008695 0.658038
vn -0.512797 0.274083 0.813583
vn -0.359546 0.344389 0.867250
vn 0.418492 -0.877028 -0.235979
vn 0.538054 -0.328657 0.776197
vn 0.744650 0.587590 0.316597
vn 0.694627 0.540046 0.475231
vn 0.715601 0.535923 0.447997
vn 0.679395 0.309442 0.665334
vn 0.609650 0.302155 0.732823
vn 0.785979 -0.472829 -0.398333
vn 0.475081 -0.612129 -0.632136
vn -0.992983 0.097792 -0.066501
vn -0.654514 -0.716120 -0.242452
vn -0.998353 -0.027749 0.050204
vn -0.996840 -0.058356 -0.053900
vn -0.908696 -0.173741 0.379586
vn -0.223650 0.897833 0.379310
vn 0.863583 0.469177 0.184656
vn 0.841700 0.114039 0.527765
vn -0.752717 0.341669 0.562742
vn -0.736541 0.320783 0.595488
vn 0.655272 -0.546852 -0.521125
vn 0.653864 -0.515761 -0.553582
vn 0.842132 0.093900 0.531033
vn 0.624498 -0.668835 -0.403313
vn -0.368994 -0.344146 -0.863370
vn -0.483827 -0.370197 -0.793010
vn -0.741597 0.332152 0.582845
vn 0.809530 -0.308788 -0.499310
vn -0.755508 0.170314 0.632614
vn -0.935503 0.315139 -0.159758
vn -0.226840 -0.146696 -0.962821
vn 0.540730 -0.631278 0.555967
vn 0.670126 -0.461981 -0.580951
vn -0.436960 -0.120014 -0.891438
vn 0.998499 0.052399 0.015941
vn 0.999260 0.038008 0.005892
vn -0.739310 0.285870 0.609671
vn 0.853588 0.114750 0.508153
vn 0.619062 -0.623176 -0.477927
vn -0.382176 -0.504481 -0.774235
vn -0.907676 0.014130 -0.419433
vn 0.556007 0.537994 -0.633577
vn 0.527310 0.558566 -0.640272
vn 0.825724 0.061124 0.560753
vn 0.811002 -0.007917 0.584989
vn -0.591834 -0.328818 0.735942
vn -0.527448 -0.386508 0.756578
vn 0.910182 -0.109509 0.399470
vn -0.548901 0.121261 0.827045
vn 0.577201 -0.254971 -0.775776
vn 0.875081 -0.098414 0.473865
vn 0.885527 -0.181417 0.427703
vn -0.255925 -0.479661 0.839302
vn 0.895951 0.033483 0.442889
vn -0.541204 -0.431349 0.721828
vn -0.878830 0.113199 -0.463512
vn 0.896455 0.113331 0.428398
vn -0.435627 -0.262388 0.861035
vn 0.923406 0.067645 0.377816
vn 0.563865 0.199920 -0.801304
vn 0.407707 0.036601 -0.912379
vn -0.310251 -0.109899 -0.944281
vn -0.763936 -0.359739 -0.535713
vn -0.473747 -0.334198 0.814785
vn -0.957870 -0.281844 -0.055223
vn 0.479375 0.660143 -0.578282
vn 0.830779 0.063416 0.552978
vn -0.550099 -0.276137 0.788124
vn -0.882989 0.164897 -0.439476
vn 0.729990 0.355867 -0.583501
vn -0.912416 -0.051071 -0.406064
vn -0.892086 -0.046048 -0.449514
vn 0.586389 0.310831 -0.748019
vn 0.843211 -0.249450 0.476204
vn 0.925203 -0.090660 0.368484
vn -0.597539 -0.558864 0.574995
vn -0.525945 -0.597383 0.605406
vn -0.889655 0.203082 -0.408989
vn -0.185280 0.265605 -0.946111
vn -0.919531 -0.390311 0.046045
vn 0.881068 0.208243 -0.424681
vn 0.241977 -0.959191 -0.146284
vn 0.197564 -0.967418 -0.158336
vn 0.522001 0.795194 0.308515
vn 0.497884 0.538191 -0.680045
vn -0.719891 0.347984 0.600553
vn 0.540200 0.801338 0.256985
vn -0.814859 0.313237 0.487738
vn 0.242162 -0.959608 -0.143213
vn 0.242646 -0.959543 -0.142827
vn 0.449419 0.874984 0.180070
vn 0.211465 0.323793 0.922193
vn -0.802186 0.474770 0.362065
vn 0.236740 -0.924456 -0.298891
vn -0.281350 0.100082 -0.954372
vn 0.285452 -0.236025 -0.928875
vn -0.847073 -0.061275 0.527933
vn -0.908517 -0.254023 -0.331767
vn -0.248168 -0.401935 -0.881397
vn -0.234320 -0.410768 -0.881115
vn -0.879837 -0.360708 -0.309479
vn -0.141888 0.238054 -0.960832
vn -0.912103 -0.268181 -0.310076
vn 0.421515 -0.801476 -0.424219
vn 0.270200 -0.871654 -0.408914
vn 0.066100 -0.620950 -0.781058
vn 0.269969 -0.851803 0.448941
vn 0.688049 -0.426591 0.587034
vn -0.206055 -0.277448 0.938384
vn -0.178521 -0.348949 0.919981
vn -0.930296 -0.319825 0.179616
vn -0.256723 0.174703 -0.950564
vn -0.344424 -0.544896 0.764500
vn -0.582090 -0.766211 0.272199
vn -0.427320 0.047889 0.902831
vn -0.391834 -0.053598 0.918473
vn -0.718533 -0.203829 0.664954
vn 0.029671 -0.244970 0.969076
vn -0.123466 -0.264144 0.956548
vn -0.331564 0.601733 -0.726624
vn -0.255497 0.162879 -0.952991
vn -0.323101 -0.548138 0.771460
vn -0.509534 0.802457 -0.310543
vn -0.121660 -0.267918 0.955729
vn -0.363017 0.616231 -0.698912
vn -0.327849 -0.231855 0.915837
vn -0.302004 0.265956 0.915457
vn -0.467720 0.760230 0.450876
vn -0.108097 0.195142 0.974800
vn -0.100146 0.185381 0.977550
vn -0.685813 0.221304 0.693315
vn -0.668437 0.702728 -0.243651
vn -0.345019 0.807052 -0.479197
vn -0.152908 0.911513 -0.381789
vn -0.318213 0.691229 0.648801
vn -0.463003 0.871239 -0.163003
vn -0.663392 0.720363 -0.202454
vn -0.229848 0.764762 -0.601921
vn -0.175129 0.809539 -0.560335
vn -0.229111 0.761375 -0.606479
vn 0.151556 0.470647 0.869208
vn -0.750589 0.097647 0.653514
vn -0.891821 0.197813 -0.406847
vn -0.291330 -0.026247 -0.956262
vn 0.170092 0.227502 0.958807
vn 0.008510 0.358525 0.933481
vn -0.839166 0.277779 0.467589
vn -0.682267 0.452185 0.574491
vn -0.523206 0.603108 0.602093
vn -0.955695 0.068006 -0.286396
vn -0.464347 0.158616 -0.871334
vn -0.868632 0.288191 -0.403018
vn -0.730964 0.077519 -0.677999
vn -0.466084 0.117271 -0.876934
vn 0.102194 -0.165154 -0.980959
vn -0.063316 0.063513 0.995970
vn -0.465335 0.762110 0.450168
vn -0.557234 0.531860 -0.637664
vn -0.732116 -0.331477 -0.595087
vn -0.086320 0.062239 0.994321
vn -0.600535 0.434813 -0.671040
vn -0.662315 0.641957 0.386303
vn -0.534273 -0.287389 -0.794959
vn -0.957015 0.260498 -0.127527
vn 0.694989 -0.337619 -0.634825
vn -0.604897 0.051353 -0.794647
vn -0.076936 -0.110741 -0.990867
vn -0.928924 -0.247935 0.275007
vn -0.626743 -0.374092 0.683556
vn -0.349277 -0.169812 0.921504
vn -0.995931 -0.066942 -0.060335
vn -0.922848 -0.100081 -0.371934
vn -0.844870 -0.068810 -0.530528
vn -0.346633 -0.917635 0.194398
vn -0.394118 -0.055773 0.917366
vn -0.977951 -0.090108 0.188392
vn -0.999624 0.022467 0.015689
vn -0.032094 0.761019 0.647936
vn -0.637534 0.129443 0.759470
vn -0.806573 0.189037 0.560094
vn -0.816797 0.198720 0.541620
vn -0.658688 -0.377950 0.650602
vn -0.502096 -0.478418 0.720427
vn -0.127029 0.786939 0.603813
vn -0.193989 -0.278071 0.940768
vn -0.389324 -0.825327 0.408977
vn -0.699975 -0.170024 0.693633
vn -0.368091 -0.712054 -0.597904
vn -0.983999 -0.037368 0.174209
vn -0.008323 -0.958498 -0.284979
vn -0.682440 -0.056406 0.728762
vn -0.916013 -0.034405 0.399670
vn -0.223374 -0.889249 -0.399175
vn -0.524297 -0.194028 0.829135
vn -0.908679 0.175289 -0.378914
vn -0.818593 0.333867 -0.467374
vn -0.872331 -0.390349 0.294391
vn -0.351759 -0.633196 0.689441
vn -0.924985 -0.217378 0.311687
vn -0.260433 -0.535715 0.803234
vn -0.605915 0.595647 0.527325
vn -0.997460 0.071181 0.002629
vn -0.900125 0.422842 0.104787
vn -0.795748 0.567388 0.211794
vn -0.658012 0.118839 0.743571
vn -0.334740 0.600487 -0.726199
vn -0.219666 0.682659 -0.696939
vn -0.112592 0.988759 0.098379
vn 0.037693 0.998973 -0.025122
vn -0.900630 -0.014598 0.434341
vn -0.725262 0.514101 0.457925
vn -0.630882 -0.552677 -0.544552
vn -0.909209 0.133312 -0.394421
vn 0.940405 0.325604 0.098078
vn -0.960672 0.126820 0.247033
vn -0.666365 -0.343382 -0.661851
vn 0.625836 -0.680152 -0.381735
vn 0.228945 0.197625 0.953168
vn 0.673353 0.614269 -0.411424
vn 0.152499 0.313514 -0.937258
vn -0.141007 -0.224194 0.964289
vn -0.168994 -0.321367 -0.931753
vn -0.752068 -0.496114 0.433895
vn -0.837887 -0.436567 -0.327650
vn -0.903770 0.033938 0.426671
vn -0.520596 0.070954 0.850850
vn 0.534851 0.645476 0.545248
vn -0.047908 0.921716 -0.384896
vn 0.446146 -0.736215 -0.508864
vn 0.489649 -0.689941 -0.533128
vn -0.775135 -0.239707 -0.584556
vn -0.733467 -0.468632 -0.492351
vn -0.953461 0.179812 0.242034
vn -0.963559 0.176513 0.200993
vn -0.142387 0.689111 0.710529
vn 0.826756 -0.183464 0.531805
vn 0.610510 -0.600341 -0.516593
vn 0.495149 -0.801454 -0.335409
vn -0.786166 -0.472698 -0.398121
vn -0.677383 -0.374133 -0.633385
vn -0.947266 0.287193 0.142153
vn -0.944072 0.280887 0.172716
vn 0.286990 0.783590 0.551021
vn -0.150795 0.574194 0.804712
vn 0.631731 0.285400 0.720737
vn -0.786855 -0.301019 -0.538746
vn 0.495598 -0.678698 -0.541989
vn 0.872380 0.078751 0.482443
vn -0.048956 0.474473 0.878908
vn 0.833871 0.046724 0.549978
vn -0.210045 0.376918 0.902116
vn -0.698564 -0.285413 -0.656161
vn 0.547035 -0.666658 -0.506280
vn 0.740528 0.660656 -0.123093
vn 0.756402 0.581563 -0.299401
vn 0.674072 -0.178661 -0.716734
vn 0.127323 -0.602435 -0.787947
vn -0.476490 -0.875635 -0.078875
vn -0.466822 -0.871136 -0.152314
vn -0.547342 -0.421081 0.723261
vn -0.543352 -0.356797 0.759911
vn 0.427870 0.716490 0.550971
vn 0.225467 0.691938 0.685848
vn -0.212203 -0.968961 0.126825
vn -0.218775 -0.415980 0.882665
vn -0.800455 0.299464 0.519224
vn -0.803169 0.222569 0.552614
vn -0.739612 0.281296 0.611430
vn -0.588513 0.052173 0.806803
vn -0.515164 0.097896 0.851482
vn -0.550760 -0.834412 -0.020515
vn -0.385371 -0.912722 -0.135747
vn 0.730816 0.568381 -0.377956
vn 0.925608 -0.348682 -0.147207
vn 0.841255 0.493257 -0.221331
vn 0.832938 0.463589 -0.302158
vn 0.903570 0.420739 0.080870
vn -0.219853 0.933942 0.281812
vn -0.919756 -0.026758 0.391577
vn -0.622803 -0.168389 0.764043
vn 0.605127 0.672819 0.425601
vn 0.615212 0.645746 0.452245
vn -0.321068 -0.909753 -0.263180
vn -0.343786 -0.890877 -0.296900
vn -0.409354 0.059177 0.910455
vn -0.310102 -0.914491 -0.259889
vn 0.059867 -0.254623 -0.965185
vn 0.536287 -0.049131 -0.842605
vn 0.544719 0.773875 0.323108
vn -0.570762 -0.790245 -0.223033
vn 0.588390 0.691146 0.419660
vn 0.528304 0.737855 -0.420077
vn 0.320080 0.257330 -0.911773
vn -0.226242 -0.689428 0.688116
vn -0.395171 -0.859582 -0.323973
vn 0.122045 0.130953 -0.983848
vn -0.826683 -0.474011 0.303164
vn -0.821334 -0.488191 0.295094
vn 0.634558 0.622115 0.458595
vn -0.201197 0.083889 0.975952
vn -0.307676 -0.916085 -0.257146
vn 0.316007 -0.283183 -0.905509
vn 0.889030 -0.017617 -0.457510
vn -0.499314 0.391393 -0.772980
vn -0.581047 0.341869 -0.738587
vn -0.789713 0.105596 0.604320
vn -0.785104 0.090123 0.612772
vn 0.592964 -0.199380 0.780155
vn 0.496492 -0.277767 0.822399
vn -0.910140 -0.145608 0.387870
vn 0.564579 -0.106152 0.818524
vn -0.560195 -0.075606 -0.824903
vn -0.776712 -0.236893 0.583609
vn -0.774737 -0.222633 0.591791
vn 0.320057 -0.483547 0.814706
vn -0.850793 0.200495 0.485749
vn 0.547722 -0.425659 0.720289
vn 0.864603 0.038348 -0.500990
vn -0.793165 0.061761 0.605867
vn 0.618657 -0.257090 0.742407
vn -0.830911 0.011756 0.556281
vn -0.746342 0.183255 -0.639836
vn -0.540129 -0.032338 -0.840961
vn 0.091084 -0.095070 -0.991295
vn 0.745502 -0.330513 -0.578782
vn 0.630929 -0.282073 0.722748
vn 0.943076 -0.241567 -0.228589
vn -0.544993 0.376556 -0.749125
vn -0.811407 0.292642 0.505945
vn 0.591008 -0.056114 0.804712
vn 0.878906 0.053939 -0.473936
vn -0.722997 0.144350 -0.675602
vn 0.908686 -0.173914 -0.379530
vn 0.848731 -0.199094 -0.489915
vn -0.549587 0.037115 -0.834612
vn -0.813004 -0.080026 0.576733
vn -0.925835 0.067350 0.371877
vn 0.635264 -0.278451 0.720350
vn 0.577039 -0.300302 0.759503
vn 0.889895 0.138665 -0.434579
vn 0.189822 0.065996 -0.979598
vn 0.937786 -0.335822 0.088205
vn -0.895569 0.112710 -0.430410
vn -0.213502 -0.976922 -0.006311
vn -0.213340 -0.976957 -0.006354
vn -0.562741 0.805152 0.187223
vn -0.541441 0.405715 -0.736368
vn 0.723196 0.448151 0.525499
vn -0.571561 0.803943 0.164297
vn 0.812609 0.401881 0.422089
vn -0.214102 -0.976810 -0.001750
vn -0.214314 -0.976764 -0.001581
vn -0.473979 0.878159 0.064659
vn -0.206453 0.443931 0.871953
vn 0.792706 0.544030 0.275042
vn -0.065316 -0.991792 -0.109922

f 1/1/1 2/2/1 3/3/1
f 4/4/2 5/5/2 6/6/2
f 4/4/3 6/7/3 7/8/3
f 5/9/4 8/10/4 9/11/4
f 10/12/5 11/13/5 9/14/5
f 6/6/6 11/15/6 7/8/6
f 6/6/7 12/16/7 11/13/7
f 12/17/8 5/5/8 9/14/8
f 6/6/9 5/5/9 12/17/9
f 11/13/10 12/18/10 9/19/10
f 13/20/11 14/21/11 15/22/11
f 14/21/12 13/20/12 16/23/12
f 16/24/13 13/20/13 17/25/13
f 15/22/14 14/21/14 18/26/14
f 14/21/15 19/27/15 18/26/15
f 18/26/16 20/28/16 21/29/16
f 18/26/17 19/27/17 20/28/17
f 20/28/18 3/30/18 21/29/18
f 5/9/19 22/31/19 23/32/19
f 24/33/20 25/34/20 26/35/20
f 27/36/21 25/34/21 9/37/21
f 28/38/22 27/39/22 29/40/22
f 30/41/23 25/34/23 24/33/23
f 25/34/24 30/41/24 10/42/24
f 30/41/25 24/33/25 31/43/25
f 24/33/26 26/44/26 32/45/26
f 33/46/27 34/47/27 5/9/27
f 4/4/28 22/31/28 5/9/28
f 26/35/29 25/34/29 27/39/29
f 33/46/30 35/48/30 34/47/30
f 32/45/31 26/35/31 28/38/31
f 23/32/32 33/46/32 5/9/32
f 26/35/33 27/39/33 28/38/33
f 28/38/34 29/40/34 36/49/34
f 35/50/35 37/51/35 29/40/35
f 28/38/36 38/52/36 32/45/36
f 36/49/37 38/52/37 28/38/37
f 36/49/38 37/53/38 39/54/38
f 39/55/39 37/56/39 40/57/39
f 41/58/40 42/59/40 39/55/40
f 39/55/41 40/57/41 41/58/41
f 36/49/42 29/40/42 37/51/42
f 37/56/43 35/48/43 33/46/43
f 37/56/44 33/46/44 40/57/44
f 40/57/45 33/46/45 43/60/45
f 40/57/46 43/60/46 41/58/46
f 33/46/47 23/32/47 43/60/47
f 44/61/48 45/62/48 30/63/48
f 15/64/49 46/65/49 45/62/49
f 46/66/50 47/67/50 10/68/50
f 47/67/51 7/69/51 11/70/51
f 45/62/52 44/61/52 17/71/52
f 44/61/53 30/63/53 31/72/53
f 13/73/54 15/64/54 45/62/54
f 46/65/55 10/74/55 45/62/55
f 45/62/56 10/74/56 30/63/56
f 47/67/57 11/70/57 10/68/57
f 47/67/58 48/75/58 7/69/58
f 46/66/59 15/76/59 47/67/59
f 18/77/60 47/67/60 15/76/60
f 47/67/61 18/77/61 48/75/61
f 18/77/62 21/78/62 48/75/62
f 13/73/63 45/62/63 17/71/63
f 49/79/64 35/50/64 29/40/64
f 8/80/65 27/81/65 9/82/65
f 34/47/66 50/83/66 5/84/66
f 27/36/67 49/79/67 29/40/67
f 35/48/68 51/85/68 52/86/68
f 35/50/69 49/79/69 51/87/69
f 52/86/70 50/83/70 34/47/70
f 35/48/71 52/86/71 34/47/71
f 5/84/72 50/83/72 8/10/72
f 53/88/73 27/81/73 8/80/73
f 53/88/74 49/79/74 27/36/74
f 54/89/75 55/90/75 56/91/75
f 57/92/76 55/90/76 58/93/76
f 59/94/77 60/95/77 55/90/77
f 61/96/78 54/89/78 56/91/78
f 39/97/79 61/96/79 36/98/79
f 36/98/80 61/96/80 56/91/80
f 36/98/81 56/91/81 38/99/81
f 62/100/82 63/101/82 64/102/82
f 65/103/83 64/102/83 54/89/83
f 61/96/84 65/103/84 54/89/84
f 66/104/85 67/105/85 62/100/85
f 55/90/86 60/95/86 68/106/86
f 69/107/87 68/106/87 60/95/87
f 69/107/88 70/108/88 68/106/88
f 58/109/89 55/90/89 68/106/89
f 68/106/90 71/110/90 58/111/90
f 62/100/91 67/105/91 63/101/91
f 64/102/92 63/101/92 69/107/92
f 70/108/93 71/110/93 68/106/93
f 58/111/94 71/110/94 72/112/94
f 56/91/95 57/92/95 38/113/95
f 55/90/96 57/114/96 56/91/96
f 73/115/97 74/116/97 38/113/97
f 58/109/98 72/112/98 73/115/98
f 57/117/99 58/111/99 73/115/99
f 57/92/100 73/115/100 38/113/100
f 73/115/101 72/112/101 74/116/101
f 39/97/102 75/118/102 61/96/102
f 75/118/103 39/97/103 76/119/103
f 64/102/104 59/94/104 54/89/104
f 64/102/105 60/95/105 59/94/105
f 54/89/106 59/94/106 55/90/106
f 64/102/107 69/107/107 60/95/107
f 65/103/108 66/104/108 62/100/108
f 65/103/109 61/96/109 75/118/109
f 75/118/110 76/119/110 65/103/110
f 66/104/111 65/103/111 76/119/111
f 62/100/112 64/102/112 65/103/112
f 39/97/113 42/120/113 76/119/113
f 77/121/114 76/119/114 42/120/114
f 67/105/115 76/119/115 77/121/115
f 66/104/116 76/119/116 67/105/116
f 9/82/117 25/34/117 10/42/117
f 51/122/118 49/123/118 78/124/118
f 79/125/119 50/126/119 52/127/119
f 52/127/120 51/122/120 79/125/120
f 80/128/121 81/129/121 53/130/121
f 51/122/122 78/124/122 79/125/122
f 82/131/123 50/126/123 79/125/123
f 50/126/124 82/131/124 8/132/124
f 53/133/125 78/124/125 49/123/125
f 83/134/126 84/135/126 85/136/126
f 84/135/127 83/134/127 86/137/127
f 86/137/128 87/138/128 84/135/128
f 88/139/129 84/135/129 87/138/129
f 87/138/130 89/140/130 88/139/130
f 90/141/131 88/139/131 89/140/131
f 91/142/132 92/143/132 90/141/132
f 90/141/133 89/140/133 91/142/133
f 85/136/134 92/144/134 91/145/134
f 91/145/135 83/134/135 85/136/135
f 80/128/136 93/146/136 83/134/136
f 94/147/137 83/134/137 93/146/137
f 93/146/138 87/138/138 94/147/138
f 87/138/139 93/146/139 95/148/139
f 95/148/140 96/149/140 87/138/140
f 89/140/141 87/138/141 96/149/141
f 97/150/142 91/142/142 89/140/142
f 97/151/143 81/129/143 80/128/143
f 8/132/144 82/131/144 80/128/144
f 93/146/145 80/128/145 98/152/145
f 98/152/146 95/148/146 93/146/146
f 95/148/147 82/131/147 79/125/147
f 79/125/148 78/124/148 95/148/148
f 96/149/149 95/148/149 78/124/149
f 78/124/150 53/133/150 81/153/150
f 81/153/151 96/149/151 78/124/151
f 80/128/152 53/130/152 8/154/152
f 94/147/153 87/138/153 86/137/153
f 86/137/154 83/134/154 94/147/154
f 97/151/155 83/134/155 91/145/155
f 89/140/156 96/149/156 97/150/156
f 80/128/157 83/134/157 97/151/157
f 81/153/158 97/150/158 96/149/158
f 82/131/159 95/148/159 98/152/159
f 98/152/160 80/128/160 82/131/160
f 85/136/161 99/155/161 100/156/161
f 99/155/162 85/136/162 84/135/162
f 84/135/163 101/157/163 99/155/163
f 101/157/164 84/135/164 88/139/164
f 88/139/165 90/141/165 101/157/165
f 102/158/166 101/157/166 90/141/166
f 90/141/167 103/159/167 102/158/167
f 103/159/168 90/141/168 92/143/168
f 92/144/169 85/136/169 103/160/169
f 100/156/170 103/160/170 85/136/170
f 104/161/171 105/162/171 106/163/171
f 107/164/172 106/163/172 108/165/172
f 109/166/173 110/167/173 103/168/173
f 109/166/174 111/169/174 104/161/174
f 104/161/175 110/167/175 109/166/175
f 104/161/176 111/169/176 112/170/176
f 113/171/177 112/170/177 111/169/177
f 106/163/178 110/167/178 104/161/178
f 104/161/179 112/170/179 105/162/179
f 105/172/180 113/173/180 111/174/180
f 113/173/181 105/172/181 112/175/181
f 105/172/182 111/174/182 109/176/182
f 109/176/183 106/177/183 105/172/183
f 109/176/184 100/178/184 106/177/184
f 103/179/185 100/178/185 109/176/185
f 102/180/186 103/168/186 110/167/186
f 106/163/187 114/181/187 108/165/187
f 115/182/188 116/183/188 106/177/188
f 116/184/189 117/185/189 118/186/189
f 108/165/190 114/181/190 119/187/190
f 119/187/191 120/188/191 108/165/191
f 118/189/192 121/190/192 114/191/192
f 114/191/193 121/190/193 117/192/193
f 116/193/194 115/194/194 119/187/194
f 120/188/195 119/187/195 115/194/195
f 121/195/196 118/186/196 117/185/196
f 108/165/197 101/196/197 102/180/197
f 115/182/198 106/177/198 100/178/198
f 100/178/199 99/197/199 115/182/199
f 120/188/200 99/198/200 101/196/200
f 106/163/201 107/164/201 110/167/201
f 108/165/202 120/188/202 101/196/202
f 120/188/203 115/194/203 99/198/203
f 107/164/204 102/180/204 110/167/204
f 102/180/205 107/164/205 108/165/205
f 118/199/206 106/177/206 116/183/206
f 114/181/207 106/163/207 118/200/207
f 114/191/208 117/192/208 119/201/208
f 117/192/209 116/202/209 119/201/209
f 122/203/210 123/204/210 124/205/210
f 125/206/211 126/207/211 123/208/211
f 125/206/212 123/208/212 127/209/212
f 125/210/213 128/211/213 126/212/213
f 128/211/214 129/213/214 126/212/214
f 128/214/215 124/215/215 129/216/215
f 122/217/216 124/215/216 128/214/216
f 130/218/217 128/211/217 125/219/217
f 131/220/218 122/221/218 130/222/218
f 132/223/219 125/224/219 127/225/219
f 132/226/220 131/227/220 125/219/220
f 133/228/221 131/227/221 132/226/221
f 133/229/222 122/221/222 131/220/222
f 130/218/223 125/219/223 131/227/223
f 128/214/224 130/222/224 122/221/224
f 127/209/225 123/204/225 122/203/225
f 16/230/226 133/228/226 14/231/226
f 16/232/227 3/3/227 133/229/227
f 14/231/228 133/228/228 132/226/228
f 14/233/229 132/223/229 19/234/229
f 132/223/230 127/225/230 19/234/230
f 20/235/231 19/234/231 127/225/231
f 20/235/232 127/225/232 122/236/232
f 3/3/233 122/221/233 133/229/233
f 3/237/234 20/235/234 122/236/234
f 134/238/235 135/239/235 136/240/235
f 137/241/236 135/242/236 134/243/236
f 138/244/237 139/245/237 137/246/237
f 138/247/238 136/248/238 139/249/238
f 134/238/239 136/240/239 123/208/239
f 138/247/240 123/250/240 136/248/240
f 123/250/241 138/247/241 124/251/241
f 134/238/242 123/208/242 126/252/242
f 129/253/243 134/243/243 126/254/243
f 137/241/244 134/243/244 129/253/244
f 138/244/245 137/246/245 129/255/245
f 138/244/246 129/255/246 124/256/246
f 136/257/247 140/258/247 139/259/247
f 136/257/248 141/260/248 140/258/248
f 142/261/249 139/259/249 140/258/249
f 135/262/250 143/263/250 141/260/250
f 141/264/251 143/265/251 142/266/251
f 142/266/252 140/267/252 141/264/252
f 137/268/253 143/263/253 135/262/253
f 135/262/254 141/260/254 136/257/254
f 139/259/255 142/261/255 137/268/255
f 137/268/256 144/269/256 143/263/256
f 137/268/257 142/261/257 144/269/257
f 143/265/258 145/270/258 146/271/258
f 146/271/259 142/266/259 143/265/259
f 143/263/260 144/269/260 145/272/260
f 144/269/261 146/273/261 145/272/261
f 146/273/262 144/269/262 142/261/262
f 3/274/263 16/275/263 17/276/263
f 147/5/264 4/4/264 148/6/264
f 148/7/265 4/4/265 7/8/265
f 149/10/266 147/9/266 150/11/266
f 151/13/267 152/12/267 150/14/267
f 151/15/268 148/6/268 7/8/268
f 153/16/269 148/6/269 151/13/269
f 147/5/270 153/17/270 150/14/270
f 147/5/271 148/6/271 153/17/271
f 153/18/272 151/13/272 150/19/272
f 154/21/273 155/20/273 156/22/273
f 155/20/274 154/21/274 157/23/274
f 155/20/275 157/24/275 17/25/275
f 154/21/276 156/22/276 158/26/276
f 159/27/277 154/21/277 158/26/277
f 160/28/278 158/26/278 21/29/278
f 159/27/279 158/26/279 160/28/279
f 3/30/280 160/28/280 21/29/280
f 22/31/281 147/9/281 23/32/281
f 161/34/282 24/33/282 162/35/282
f 161/34/283 163/36/283 150/37/283
f 163/39/284 164/38/284 165/40/284
f 161/34/285 166/41/285 24/33/285
f 166/41/286 161/34/286 152/42/286
f 24/33/287 166/41/287 31/43/287
f 162/44/288 24/33/288 32/45/288
f 167/47/289 168/46/289 147/9/289
f 22/31/290 4/4/290 147/9/290
f 161/34/291 162/35/291 163/39/291
f 169/48/292 168/46/292 167/47/292
f 162/35/293 32/45/293 164/38/293
f 168/46/294 23/32/294 147/9/294
f 163/39/295 162/35/295 164/38/295
f 165/40/296 164/38/296 170/49/296
f 171/51/297 169/50/297 165/40/297
f 38/52/298 164/38/298 32/45/298
f 38/52/299 170/49/299 164/38/299
f 171/53/300 170/49/300 172/54/300
f 171/56/301 172/55/301 173/57/301
f 42/59/302 41/58/302 172/55/302
f 173/57/303 172/55/303 41/58/303
f 165/40/304 170/49/304 171/51/304
f 169/48/305 171/56/305 168/46/305
f 168/46/306 171/56/306 173/57/306
f 168/46/307 173/57/307 43/60/307
f 43/60/308 173/57/308 41/58/308
f 23/32/309 168/46/309 43/60/309
f 174/62/310 44/61/310 166/63/310
f 175/65/311 156/64/311 174/62/311
f 176/67/312 175/66/312 152/68/312
f 7/69/313 176/67/313 151/70/313
f 44/61/314 174/62/314 17/71/314
f 166/63/315 44/61/315 31/72/315
f 156/64/316 155/73/316 174/62/316
f 152/74/317 175/65/317 174/62/317
f 152/74/318 174/62/318 166/63/318
f 151/70/319 176/67/319 152/68/319
f 48/75/320 176/67/320 7/69/320
f 156/76/321 175/66/321 176/67/321
f 176/67/322 158/77/322 156/76/322
f 158/77/323 176/67/323 48/75/323
f 21/78/324 158/77/324 48/75/324
f 174/62/325 155/73/325 17/71/325
f 169/50/326 177/79/326 165/40/326
f 163/81/327 149/80/327 150/82/327
f 178/83/328 167/47/328 147/84/328
f 177/79/329 163/36/329 165/40/329
f 179/85/330 169/48/330 180/86/330
f 177/79/331 169/50/331 179/87/331
f 178/83/332 180/86/332 167/47/332
f 180/86/333 169/48/333 167/47/333
f 178/83/334 147/84/334 149/10/334
f 163/81/335 181/88/335 149/80/335
f 177/79/336 181/88/336 163/36/336
f 182/90/337 183/89/337 184/91/337
f 182/90/338 185/92/338 186/93/338
f 187/95/339 188/94/339 182/90/339
f 183/89/340 189/96/340 184/91/340
f 189/96/341 172/97/341 170/98/341
f 189/96/342 170/98/342 184/91/342
f 184/91/343 170/98/343 38/99/343
f 63/101/344 190/100/344 191/102/344
f 191/102/345 192/103/345 183/89/345
f 192/103/346 189/96/346 183/89/346
f 67/105/347 193/104/347 190/100/347
f 187/95/348 182/90/348 194/106/348
f 194/106/349 69/107/349 187/95/349
f 70/108/350 69/107/350 194/106/350
f 182/90/351 186/109/351 194/106/351
f 71/110/352 194/106/352 186/111/352
f 67/105/353 190/100/353 63/101/353
f 63/101/354 191/102/354 69/107/354
f 71/110/355 70/108/355 194/106/355
f 71/110/356 186/111/356 72/112/356
f 185/92/357 184/91/357 38/113/357
f 185/114/358 182/90/358 184/91/358
f 74/116/359 195/115/359 38/113/359
f 72/112/360 186/109/360 195/115/360
f 186/111/361 185/117/361 195/115/361
f 195/115/362 185/92/362 38/113/362
f 72/112/363 195/115/363 74/116/363
f 196/118/364 172/97/364 189/96/364
f 172/97/365 196/118/365 197/119/365
f 188/94/366 191/102/366 183/89/366
f 187/95/367 191/102/367 188/94/367
f 188/94/368 183/89/368 182/90/368
f 69/107/369 191/102/369 187/95/369
f 193/104/370 192/103/370 190/100/370
f 189/96/371 192/103/371 196/118/371
f 197/119/372 196/118/372 192/103/372
f 192/103/373 193/104/373 197/119/373
f 191/102/374 190/100/374 192/103/374
f 42/120/375 172/97/375 197/119/375
f 197/119/376 77/121/376 42/120/376
f 197/119/377 67/105/377 77/121/377
f 197/119/378 193/104/378 67/105/378
f 161/34/379 150/82/379 152/42/379
f 177/123/380 179/122/380 198/124/380
f 178/126/381 199/125/381 180/127/381
f 179/122/382 180/127/382 199/125/382
f 200/129/383 201/128/383 181/130/383
f 198/124/384 179/122/384 199/125/384
f 178/126/385 202/131/385 199/125/385
f 202/131/386 178/126/386 149/132/386
f 198/124/387 181/133/387 177/123/387
f 203/135/388 204/134/388 205/136/388
f 204/134/389 203/135/389 206/137/389
f 207/138/390 206/137/390 203/135/390
f 203/135/391 208/139/391 207/138/391
f 209/140/392 207/138/392 208/139/392
f 208/139/393 210/141/393 209/140/393
f 211/143/394 212/142/394 210/141/394
f 209/140/395 210/141/395 212/142/395
f 211/144/396 205/136/396 212/145/396
f 204/134/397 212/145/397 205/136/397
f 213/146/398 201/128/398 204/134/398
f 204/134/399 214/147/399 213/146/399
f 207/138/400 213/146/400 214/147/400
f 213/146/401 207/138/401 215/148/401
f 216/149/402 215/148/402 207/138/402
f 207/138/403 209/140/403 216/149/403
f 212/142/404 217/150/404 209/140/404
f 200/129/405 217/151/405 201/128/405
f 202/131/406 149/132/406 201/128/406
f 201/128/407 213/146/407 218/152/407
f 215/148/408 218/152/408 213/146/408
f 202/131/409 215/148/409 199/125/409
f 198/124/410 199/125/410 215/148/410
f 215/148/411 216/149/411 198/124/411
f 181/133/412 198/124/412 200/153/412
f 216/149/413 200/153/413 198/124/413
f 181/130/414 201/128/414 149/154/414
f 207/138/415 214/147/415 206/137/415
f 204/134/416 206/137/416 214/147/416
f 204/134/417 217/151/417 212/145/417
f 216/149/418 209/140/418 217/150/418
f 204/134/419 201/128/419 217/151/419
f 217/150/420 200/153/420 216/149/420
f 215/148/421 202/131/421 218/152/421
f 201/128/422 218/152/422 202/131/422
f 219/155/423 205/136/423 220/156/423
f 205/136/424 219/155/424 203/135/424
f 221/157/425 203/135/425 219/155/425
f 203/135/426 221/157/426 208/139/426
f 210/141/427 208/139/427 221/157/427
f 221/157/428 222/158/428 210/141/428
f 223/159/429 210/141/429 222/158/429
f 210/141/430 223/159/430 211/143/430
f 205/136/431 211/144/431 223/160/431
f 223/160/432 220/156/432 205/136/432
f 224/162/433 225/161/433 226/163/433
f 226/163/434 227/164/434 228/165/434
f 229/167/435 230/166/435 223/168/435
f 231/169/436 230/166/436 225/161/436
f 229/167/437 225/161/437 230/166/437
f 231/169/438 225/161/438 232/170/438
f 232/170/439 233/171/439 231/169/439
f 229/167/440 226/163/440 225/161/440
f 232/170/441 225/161/441 224/162/441
f 233/173/442 224/172/442 231/174/442
f 224/172/443 233/173/443 232/175/443
f 231/174/444 224/172/444 230/176/444
f 226/177/445 230/176/445 224/172/445
f 220/178/446 230/176/446 226/177/446
f 220/178/447 223/179/447 230/176/447
f 223/168/448 222/180/448 229/167/448
f 234/181/449 226/163/449 228/165/449
f 235/183/450 236/182/450 226/177/450
f 237/185/451 235/184/451 238/186/451
f 234/181/452 228/165/452 239/187/452
f 240/188/453 239/187/453 228/165/453
f 241/190/454 238/189/454 234/191/454
f 241/190/455 234/191/455 237/192/455
f 236/194/456 235/193/456 239/187/456
f 239/187/457 240/188/457 236/194/457
f 238/186/458 241/195/458 237/185/458
f 221/196/459 228/165/459 222/180/459
f 226/177/460 236/182/460 220/178/460
f 219/197/461 220/178/461 236/182/461
f 219/198/462 240/188/462 221/196/462
f 227/164/463 226/163/463 229/167/463
f 240/188/464 228/165/464 221/196/464
f 236/194/465 240/188/465 219/198/465
f 222/180/466 227/164/466 229/167/466
f 227/164/467 222/180/467 228/165/467
f 226/177/468 238/199/468 235/183/468
f 226/163/469 234/181/469 238/200/469
f 237/192/470 234/191/470 239/201/470
f 235/202/471 237/192/471 239/201/471
f 242/204/472 243/203/472 244/205/472
f 245/207/473 246/206/473 242/208/473
f 242/208/474 246/206/474 247/209/474
f 248/211/475 246/210/475 245/212/475
f 249/213/476 248/211/476 245/212/476
f 244/215/477 248/214/477 249/216/477
f 244/215/478 243/217/478 248/214/478
f 248/211/479 250/218/479 246/219/479
f 243/221/480 251/220/480 250/222/480
f 246/224/481 252/223/481 247/225/481
f 251/227/482 252/226/482 246/219/482
f 251/227/483 253/228/483 252/226/483
f 243/221/484 253/229/484 251/220/484
f 246/219/485 250/218/485 251/227/485
f 250/222/486 248/214/486 243/221/486
f 242/204/487 247/209/487 243/203/487
f 253/228/488 157/230/488 154/231/488
f 3/3/489 157/232/489 253/229/489
f 253/228/490 154/231/490 252/226/490
f 252/223/491 154/233/491 159/234/491
f 247/225/492 252/223/492 159/234/492
f 159/234/493 160/235/493 247/225/493
f 247/225/494 160/235/494 243/236/494
f 243/221/495 3/3/495 253/229/495
f 160/235/496 3/237/496 243/236/496
f 254/239/497 255/238/497 256/240/497
f 254/242/498 257/241/498 255/243/498
f 258/245/499 259/244/499 257/246/499
f 256/248/500 259/247/500 258/249/500
f 256/240/501 255/238/501 242/208/501
f 242/250/502 259/247/502 256/248/502
f 259/247/503 242/250/503 244/251/503
f 242/208/504 255/238/504 245/252/504
f 255/243/505 249/253/505 245/254/505
f 255/243/506 257/241/506 249/253/506
f 257/246/507 259/244/507 249/255/507
f 249/255/508 259/244/508 244/256/508
f 260/258/509 256/257/509 258/259/509
f 261/260/510 256/257/510 260/258/510
f 258/259/511 262/261/511 260/258/511
f 263/263/512 254/262/512 261/260/512
f 263/265/513 261/264/513 262/266/513
f 260/267/514 262/266/514 261/264/514
f 263/263/515 257/268/515 254/262/515
f 261/260/516 254/262/516 256/257/516
f 262/261/517 258/259/517 257/268/517
f 264/269/518 257/268/518 263/263/518
f 262/261/519 257/268/519 264/269/519
f 265/270/520 263/265/520 266/271/520
f 262/266/521 266/271/521 263/265/521
f 264/269/522 263/263/522 265/272/522
f 266/273/523 264/269/523 265/272/523
f 264/269/524 266/273/524 262/261/524
f 157/275/525 3/274/525 17/276/525

o 
usemtl axe.001
s off

v 1.208160 19.186569 47.821087
v 0.754120 22.096319 41.116772
v -0.575100 11.757640 43.988537
v -0.621370 14.334721 41.858658
v -0.808670 10.399680 42.350540
v -0.854950 12.976760 40.220650
v -0.736540 7.880340 34.183208
v -0.462960 15.020420 32.581631
v 1.298400 14.161640 51.974037
v -0.646310 2.855420 38.336170
v 1.024810 7.021560 53.575623
v -0.528830 9.180550 46.118431
v -0.762400 7.822610 44.480408
v -0.192270 -0.054340 45.040478
v 1.324250 14.219379 41.676849
v 1.370530 11.642300 43.806721
v 1.090680 12.861429 40.038837
v 1.136960 10.284349 42.168709
v 1.416800 9.065229 45.936600
v 1.183230 7.707270 44.298599
v -1.083150 40.050888 20.604990
v -1.316730 38.692940 18.966980
v 0.628910 38.577599 18.785160
v -1.464020 44.037518 21.480310
v 0.424650 3.016990 49.693699
v -1.798160 65.505798 -3.193060
v 0.048620 65.388390 -3.439100
v 0.381040 66.748413 -1.736880
v -1.564590 66.863754 -1.555060

vt 0.033358 0.643728
vt 0.190411 0.923560
vt 0.402692 0.503812
vt 0.402692 0.647326
vt 0.408249 0.287497
vt 0.408249 0.367848
vt 0.492649 0.287497
vt 0.492649 0.367848
vt 0.403043 0.503812
vt 0.403044 0.647326
vt 0.033710 0.643728
vt 0.190763 0.923560
vt 0.033358 0.363896
vt 0.033710 0.363896
vt 0.190411 0.084064
vt 0.402692 0.360297
vt 0.408249 0.207147
vt 0.492649 0.207147
vt 0.403043 0.360297
vt 0.190763 0.084064
vt 0.408248 1.036942
vt 0.492649 1.036942
vt 0.483600 0.371280
vt 0.402049 0.371280
vt 0.402049 1.040375
vt 0.483600 1.040375
vt 0.450449 0.037941
vt 0.483600 0.210579
vt 0.402049 0.210579
vt 0.442825 0.041374
vt 0.000000 1.000000

vn -0.976918 0.163714 0.137215
vn -0.948128 0.192226 0.253185
vn -0.993932 0.058919 0.092884
vn -0.999794 -0.020120 -0.002624
vn -0.998642 0.028479 -0.043625
vn -0.972760 0.137052 0.186963
vn -0.969757 0.088205 0.227577
vn -0.994448 -0.077072 -0.071647
vn -0.997789 -0.046656 0.047325
vn 0.994448 0.077072 0.071648
vn 0.997789 0.046656 -0.047325
vn 0.993932 -0.058918 -0.092885
vn 0.969757 -0.088205 -0.227576
vn 0.972760 -0.137051 -0.186963
vn 0.999794 0.020121 0.002623
vn 0.998642 -0.028479 0.043626
vn 0.976918 -0.163714 -0.137215
vn 0.948129 -0.192225 -0.253183
vn -0.097323 -0.077595 -0.992224
vn 0.081447 0.961766 0.261480
vn 0.097320 0.077593 0.992224
vn -0.081444 -0.961767 -0.261480
vn 0.940946 0.245729 0.232890
vn 0.109913 0.564421 0.818137
vn -0.994161 -0.078790 -0.073732
vn -0.109116 -0.634417 -0.765251
vn -0.982561 -0.047760 0.179701
vn 0.986372 -0.164475 -0.004299
vn -0.105802 -0.743033 -0.660838
vn 0.109962 0.511392 0.852284
vn -0.125006 -0.634086 -0.763091
vn -0.899621 0.308209 0.309338
vn 0.974570 0.137482 0.176951
vn -0.011820 0.782331 -0.622751
vn -0.035505 0.771844 -0.634819

f 267/277/526 268/278/526 269/279/526
f 270/280/527 269/279/527 268/278/527
f 269/281/528 270/282/528 271/283/528
f 272/284/528 271/283/528 270/282/528
f 271/285/529 272/286/529 273/287/529
f 274/288/530 273/287/530 272/286/530
f 275/289/531 267/277/531 269/279/531
f 273/287/529 276/290/529 271/285/529
f 277/291/532 275/289/532 278/292/532
f 269/279/531 278/292/531 275/289/531
f 278/293/528 269/281/528 279/294/528
f 271/283/528 279/294/528 269/281/528
f 279/295/533 271/285/533 280/296/533
f 276/290/534 280/296/534 271/285/534
f 281/280/535 268/278/535 282/279/535
f 267/277/536 282/279/536 268/278/536
f 283/284/537 281/282/537 284/283/537
f 282/281/537 284/283/537 281/282/537
f 274/288/538 283/286/538 273/287/538
f 284/285/539 273/287/539 283/286/539
f 282/279/540 267/277/540 275/289/540
f 273/287/539 284/285/539 276/290/539
f 282/279/540 275/289/540 285/292/540
f 277/291/541 285/292/541 275/289/541
f 284/283/537 282/281/537 286/294/537
f 285/293/537 286/294/537 282/281/537
f 276/290/542 284/285/542 280/296/542
f 286/295/543 280/296/543 284/285/543
f 270/280/544 268/278/544 281/280/544
f 283/286/545 274/288/545 272/286/545
f 279/295/546 280/296/546 286/295/546
f 285/292/547 277/291/547 278/292/547
f 272/284/528 270/282/528 287/297/528
f 287/297/528 288/298/528 272/284/528
f 281/282/537 283/284/537 289/298/537
f 289/298/548 290/297/548 281/282/548
f 270/299/549 281/300/549 290/301/549
f 290/301/550 287/302/550 270/299/550
f 283/300/551 272/299/551 288/302/551
f 288/302/551 289/301/551 283/300/551
f 278/293/552 279/294/552 291/303/552
f 286/294/553 285/293/553 291/303/553
f 279/304/554 286/305/554 291/306/554
f 285/305/555 278/304/555 291/306/555
f 289/298/556 288/297/556 292/298/556 293/307/556
f 287/297/557 290/298/557 294/297/557 295/307/557
f 290/297/558 289/298/558 293/297/558 294/307/558
f 288/298/528 287/297/528 295/298/528 292/307/528
f 294/297/559 293/298/559 295/297/559
f 292/298/560 295/297/560 293/298/560

