mtllib anim_barb_attack_000038.mtl

o fat
usemtl fat.001
s off

v -0.137810 33.100590 -9.760210
v 1.860240 36.144421 6.136090
v 0.318890 32.611191 -5.020410
v 0.410170 55.565548 -14.585810
v 9.299520 61.030907 -13.075190
v 2.812830 51.705124 -14.001101
v -0.362600 47.294849 -12.333500
v 7.065320 58.356529 -9.049160
v 7.702180 52.261154 -8.521240
v 6.919220 47.028519 -8.250720
v 4.142630 47.179409 -12.393170
v 6.403020 52.354321 -13.383060
v 9.003670 31.914070 -1.686530
v 9.352560 34.235840 -8.116549
v 10.561490 33.747021 -8.626290
v 6.412280 32.699780 -1.793590
v 3.993900 31.725290 0.616300
v 4.408750 32.634121 -13.330080
v 3.744780 34.162590 -12.176290
v 0.502530 33.278152 -10.976900
v -0.321370 29.588600 -9.637730
v 0.201120 61.154900 -13.826099
v 0.170300 63.127800 -13.629629
v 0.128960 52.471191 -1.130970
v 5.379790 52.667431 -3.606210
v 6.255160 56.641968 -2.006700
v 8.980730 56.753586 -4.451040
v 6.123870 59.417858 -1.616540
v 10.829240 61.987473 -6.573730
v 4.497020 47.608181 -2.407740
v 1.102870 46.166958 -2.295240
v 0.791740 59.033222 0.101860
v 4.825240 65.358856 -10.225739
v 11.036010 61.099747 -10.745749
v 11.390700 62.797371 -8.426741
v 2.905110 64.012039 -1.725420
v 5.512380 65.868858 -5.965261
v 0.171630 63.083832 -1.157890
v 2.663080 69.916412 -3.654300
v 3.279240 68.125572 -7.294450
v 0.247260 68.406281 -8.099071
v 0.175950 70.768738 -4.771950
v 0.334850 66.666252 -10.216760
v 0.489180 42.715832 -1.223180
v 5.364230 43.005692 -1.429520
v 8.418850 42.653954 -6.606990
v 4.990360 42.059242 -11.810511
v -0.188040 41.950119 -13.327130
v 10.042959 63.518021 -6.819750
v 9.505500 57.229088 -9.177060
v 11.869780 61.845520 -6.457780
v 11.953501 60.333321 -8.637800
v 6.505050 63.372070 -6.500850
v 2.581520 68.450562 1.664030
v 1.180830 66.667618 3.122330
v 2.894370 64.403168 -0.493530
v 1.639600 63.002399 1.384180
v 0.698310 65.327400 2.839580
v 1.643460 68.643341 3.254200
v -0.144470 68.471062 3.494680
v 3.177320 70.217941 -0.785060
v 0.535690 72.393959 4.279180
v -0.763210 72.300308 4.536860
v 1.701340 69.792870 4.081060
v 2.256590 71.797478 3.384890
v 1.223440 74.168030 1.832670
v -0.414440 74.195770 1.639540
v 0.269850 66.586662 3.640130
v -0.765430 69.158844 3.901740
v -0.900690 66.966888 4.721220
v -0.835060 66.495972 4.003110
v -0.843340 64.933052 3.754960
v 0.535200 62.281109 2.871410
v -0.861440 62.174412 3.349810
v 3.025130 72.518555 -0.368000
v 2.543030 73.836250 -0.715280
v -0.045170 74.276207 -1.830360
v 10.370980 63.491013 -4.242050
v 11.905960 60.082924 -4.356590
v 4.423250 58.436272 -1.610990
v 5.099300 62.988209 -1.312800
v 8.787590 56.350807 -4.772310
v 4.355660 58.617359 3.279160
v 3.550500 62.774082 6.390020
v 2.653990 61.287132 3.762970
v 7.171310 57.434002 5.080700
v 8.780130 59.815941 4.039560
v 6.337450 63.469528 6.129330
v 7.672240 61.697269 4.251800
v 6.928200 63.924141 4.044340
v 4.884640 61.673660 4.847920
v 5.074600 63.153481 2.191540
v 7.774460 57.354004 2.143930
v 7.610170 57.331490 3.481920
v 11.002810 60.003708 -0.796980
v 9.366290 63.116489 -0.849170
v 5.122890 61.969360 3.024060
v 8.606050 56.434231 -0.520810
v 0.344800 69.006218 4.760590
v 0.054900 68.712021 2.910460
v 1.715450 69.743187 4.871680
v 2.490160 69.959221 3.161100
v 1.699900 69.430161 1.803520
v 0.285830 73.659256 -0.892570
v -0.455370 73.567749 -0.352690
v 0.041710 72.950104 0.694050
v 0.991330 72.845413 0.840170
v 0.805030 74.092529 1.974030
v 0.318030 71.223862 -0.448700
v 0.915010 72.433716 -0.086350
v -0.448780 73.050316 -1.440380
v -0.578580 74.790001 -1.267890
v -1.113680 74.235031 -1.608850
v -0.525720 75.826027 1.510640
v -2.412850 72.172699 5.097180
v -3.337640 73.908722 4.965500
v -4.321370 76.582253 4.307120
v -0.898320 74.904991 0.686790
v -2.428700 74.406403 5.162290
v -1.303930 72.848579 5.503970
v -2.427290 77.701424 0.628670
v 3.921370 20.992630 -9.117700
v 7.434260 21.213770 -17.526991
v 5.166050 15.597410 -14.228311
v 9.747220 21.968451 -9.822800
v 12.371840 18.054029 -14.843550
v 6.138400 22.587582 -12.811319
v 8.111240 18.098881 -8.247169
v 9.179430 13.964890 -11.683969
v 7.888690 19.985020 -6.581870
v 7.954080 22.728529 -6.526320
v 10.529190 25.843000 -10.405169
v 7.679520 26.853849 -3.600820
v 11.956320 12.605020 -24.233330
v 13.255139 11.672230 -27.443291
v 10.040081 13.007120 -28.385990
v 11.152081 10.758671 -24.434080
v 8.469669 12.225180 -24.937099
v 8.442780 10.257690 -27.139832
v 9.486071 8.688680 -31.487679
v 12.466001 9.215390 -31.685890
v 10.414341 5.076280 -23.663061
v 16.308121 6.911400 -24.168961
v 13.266931 6.448690 -19.890591
v 16.005119 5.159550 -20.394810
v 12.284360 3.743700 -19.489429
v -9.644090 58.884369 -10.211591
v -1.892230 51.694878 -14.141370
v -6.114850 59.534168 -3.707730
v -7.318430 52.157700 -8.426470
v -4.956670 47.101330 -10.886509
v -6.374790 46.493103 -6.284690
v -5.753590 52.339691 -13.451509
v -9.006149 34.118889 -6.534580
v -7.268280 32.396400 -0.313510
v -10.268280 33.493340 -6.521490
v -4.827410 36.092091 -1.640290
v -5.057970 30.021320 -10.478860
v -4.554060 32.913120 -11.016420
v -1.041260 31.781549 -10.067510
v -4.829290 52.553528 -3.281930
v -5.086390 56.417088 -1.121470
v -10.099581 57.409611 -3.310720
v -4.769800 59.164780 -0.567030
v -10.134161 62.762169 -5.478630
v -2.454760 46.048462 -2.211500
v -11.507720 60.217152 -8.952550
v -4.955480 65.261810 -9.886230
v -11.509000 62.665749 -7.051830
v -2.595220 63.986519 -1.702430
v -5.901430 65.514099 -6.165860
v -2.505460 70.011391 -4.136890
v -2.831450 68.168251 -7.528710
v -3.837170 42.601429 -0.575110
v -7.887930 42.252998 -5.869050
v -5.416080 40.986107 -11.682020
v -11.394400 64.118263 -5.844820
v -9.875930 56.245079 -4.144510
v -13.179860 62.170982 -6.372210
v -12.753420 58.628429 -5.587590
v -9.700480 60.805969 -4.055010
v -2.612380 66.751495 2.720590
v -3.597380 68.587219 1.009620
v -3.200620 64.486206 -0.833550
v -2.856860 63.101841 0.907950
v -2.140430 65.390182 2.538930
v -1.316860 68.496994 3.370530
v -3.005530 68.746162 2.761810
v -3.589360 70.367599 -1.501730
v -1.974020 72.449471 4.013360
v -3.184930 69.900940 3.563550
v -3.493930 71.924683 2.775840
v -2.056070 74.240562 1.485360
v -1.834430 66.633202 3.417270
v -2.120930 62.339859 2.590090
v -3.427430 72.661263 -1.051380
v -2.826160 73.954994 -1.283950
v -12.704801 63.749290 -3.581120
v -13.931419 60.184349 -3.581520
v -9.315750 64.472298 1.290350
v -8.201500 60.124630 2.279000
v -10.755481 56.854900 -1.867290
v -8.578490 59.994640 8.698990
v -10.282741 61.216549 6.749990
v -9.859961 63.018051 6.270210
v -13.478611 59.769211 7.344020
v -14.635130 61.624840 5.176350
v -10.739141 60.296150 10.622100
v -13.981561 63.697281 5.485080
v -11.979490 63.004807 11.197979
v -11.028470 65.326416 9.830700
v -11.815180 64.284332 7.207120
v -12.672760 59.087051 4.518040
v -13.074450 59.361263 5.723340
v -14.599390 60.659729 -0.001530
v -13.363661 63.967537 -0.057280
v -10.898140 63.744560 4.554030
v -12.177000 57.630684 2.128940
v -3.959980 62.864609 13.778040
v -4.328460 64.128479 13.607460
v -5.383600 62.010048 15.043970
v -6.309920 63.660248 15.452480
v -5.863120 65.038811 14.726561
v -2.837510 67.461983 18.375120
v -3.742900 68.034828 18.440760
v -3.218250 66.467209 17.917210
v -4.422300 66.205643 17.838171
v -3.795710 65.145409 19.008631
v -4.559540 67.120087 17.415260
v -4.139540 67.554825 16.201059
v -3.255180 68.639206 17.661011
v -2.674120 68.544624 19.314831
v -2.338300 68.923790 18.641100
v -2.139250 65.816170 20.347321
v 0.090820 62.335938 17.713669
v -0.991050 62.319550 16.233780
v 1.338640 62.797680 20.125639
v -2.168440 66.353111 19.529091
v -0.236920 62.352909 18.513161
v -1.664310 61.832909 17.293560
v -0.194760 66.551361 21.801710
v -6.751060 18.848169 -3.710900
v -3.220660 24.633511 3.419190
v -4.404810 16.730999 0.600250
v -11.643810 18.423981 -0.508390
v -9.070810 24.980700 2.097380
v -5.489470 24.880800 -0.186170
v -7.293360 22.582399 4.898800
v -8.375540 16.220119 3.576910
v -7.160360 24.842899 5.800490
v -6.552380 27.126711 4.995320
v -10.019031 28.249760 1.219400
v -5.989530 33.102440 1.641860
v -12.424550 5.170930 -4.287590
v -11.149830 7.888770 -3.166580
v -9.261070 5.806660 -6.284100
v -10.279400 5.677790 -1.169310
v -7.592890 4.063130 -3.492610
v -7.645580 7.069220 -2.629840
v -8.567080 0.749410 -6.818000
v -11.577710 1.439390 -7.310430
v -9.320570 0.401340 1.598250
v -15.279680 1.934980 0.676040
v -12.191710 3.677990 4.734370
v -14.886820 2.221670 4.905810
v -11.112180 1.451370 6.257570

vt 0.550479 0.485338
vt 0.414517 0.485338
vt 0.489174 0.497239
vt 0.490853 0.675485
vt 0.356970 0.710738
vt 0.458986 0.602657
vt 0.458693 0.603155
vt 0.491001 0.506534
vt 0.357039 0.710738
vt 0.272881 0.708251
vt 0.307767 0.663467
vt 0.329118 0.504113
vt 0.420682 0.504388
vt 0.307693 0.663467
vt 0.420389 0.504181
vt 0.390374 0.619683
vt 0.389206 0.622726
vt 0.390855 0.620128
vt 0.309151 0.663075
vt 0.578845 0.971377
vt 0.529882 0.993867
vt 0.501054 0.950636
vt 0.597833 0.993868
vt 0.684209 0.993870
vt 0.691613 0.940228
vt 0.584242 0.936155
vt 0.602549 0.993867
vt 0.689094 0.993870
vt 0.694409 0.971380
vt 0.730001 0.975635
vt 0.490853 0.781888
vt 0.490853 0.820915
vt 0.240556 0.660920
vt 0.133663 0.660928
vt 0.131880 0.753091
vt 0.060606 0.782384
vt 0.055577 0.663688
vt 0.136145 0.808744
vt 0.060014 0.783494
vt 0.058190 0.859642
vt 0.160773 0.512959
vt 0.067037 0.515196
vt 0.240700 0.512959
vt 0.131877 0.752996
vt 0.240556 0.781375
vt 0.390182 0.870896
vt 0.298691 0.847983
vt 0.294173 0.886121
vt 0.181129 0.899551
vt 0.052544 0.886601
vt 0.145152 0.921474
vt 0.235241 0.891030
vt 0.142740 0.921054
vt 0.172936 0.966074
vt 0.456563 0.999059
vt 0.389917 0.922986
vt 0.429989 0.941889
vt 0.491140 0.942697
vt 0.490646 0.999330
vt 0.490853 0.898039
vt 0.701416 0.118225
vt 0.813217 0.120956
vt 0.790107 0.184348
vt 0.877923 0.002315
vt 0.872775 0.120438
vt 0.505869 0.118716
vt 0.564263 0.119120
vt 0.507564 0.183764
vt 0.697589 0.180917
vt 0.580429 0.182675
vt 0.710756 0.001536
vt 0.701372 0.182427
vt 0.812168 0.002315
vt 0.857243 0.184348
vt 0.697567 0.116528
vt 0.503935 0.000692
vt 0.561277 0.000692
vt 0.688827 -0.000098
vt 0.002866 0.854679
vt 0.027518 0.706813
vt 0.061197 0.782654
vt 0.055608 0.663958
vt 0.251604 0.781884
vt 0.357109 0.710738
vt 0.243886 0.876138
vt 0.247300 0.848527
vt -0.000514 0.880403
vt 0.006948 0.782948
vt 0.674684 0.829607
vt 0.705811 0.784366
vt 0.654033 0.662928
vt 0.703232 0.671848
vt 0.720473 0.730776
vt 0.697736 0.853617
vt 0.729837 0.853035
vt 0.623758 0.856571
vt 0.587609 0.811448
vt 0.658187 0.605708
vt 0.748523 0.593788
vt 0.716351 0.931575
vt 0.747491 0.935506
vt 0.695349 0.885675
vt 0.676247 0.904603
vt 0.649719 0.961956
vt 0.745560 1.001324
vt 0.725611 0.781438
vt 0.747491 0.878462
vt 0.747491 0.808438
vt 0.720379 0.731031
vt 0.747491 0.790807
vt 0.720762 0.730332
vt 0.748639 0.732530
vt 0.746944 0.628012
vt 0.703659 0.671442
vt 0.731857 0.666086
vt 0.747085 0.666819
vt 0.703186 0.671176
vt 0.611291 0.885598
vt 0.604148 0.909350
vt 0.550618 0.823662
vt 0.550618 0.934468
vt 0.625864 0.557513
vt 0.571978 0.557920
vt 0.578607 0.510287
vt 0.669444 0.510287
vt 0.756032 0.560223
vt 0.679695 0.557918
vt 0.877240 0.461159
vt 0.992418 0.461159
vt 0.944262 0.560223
vt 0.756457 0.510287
vt 0.806202 0.560223
vt 0.498275 0.560223
vt 0.875566 0.382888
vt 0.758260 0.308662
vt 0.875912 0.308662
vt 0.759996 0.360654
vt 0.669163 0.382888
vt 0.671223 0.308662
vt 0.584325 0.382888
vt 0.577057 0.308662
vt 0.498223 0.363687
vt 0.498247 0.308662
vt 0.992597 0.308662
vt 0.992439 0.363687
vt 0.759483 0.410364
vt 0.758924 0.382888
vt 0.665903 0.461159
vt 0.580075 0.461159
vt 0.498223 0.402657
vt 0.992438 0.402657
vt 0.760539 0.449273
vt 0.498220 0.461159
vt 0.875438 0.575163
vt 0.762705 0.196431
vt 0.858161 0.196355
vt 0.690657 0.196417
vt 0.588027 0.196417
vt 0.498144 0.196431
vt 0.991918 0.196431
vt 0.375723 0.009258
vt 0.380090 0.017573
vt 0.356438 0.030356
vt 0.342839 0.029458
vt 0.369327 0.043627
vt 0.316032 0.012201
vt 0.336848 0.019568
vt 0.249292 0.041099
vt 0.371147 0.002582
vt 0.416197 0.004791
vt 0.408124 0.000758
vt 0.128136 0.016613
vt 0.154876 0.002573
vt 0.119423 0.002194
vt 0.160447 0.001473
vt 0.065726 0.014292
vt 0.105093 0.028910
vt 0.000825 0.069213
vt 0.000703 0.039244
vt 0.249314 0.055441
vt 0.429228 0.045736
vt 0.102506 0.115410
vt 0.153549 0.117195
vt 0.189513 0.114692
vt 0.228429 0.109580
vt 0.194639 0.033982
vt 0.406548 0.108121
vt 0.355355 0.108206
vt 0.448349 0.035630
vt 0.498209 0.039288
vt 0.461840 0.047992
vt 0.483032 0.114221
vt 0.406174 0.120334
vt 0.355217 0.119080
vt 0.243215 0.037501
vt 0.249314 0.089732
vt 0.000703 0.095058
vt 0.249292 0.105039
vt 0.160984 0.032072
vt 0.413806 0.033644
vt 0.442212 0.108407
vt 0.443088 0.117732
vt 0.023914 0.327327
vt 0.104127 0.227894
vt 0.000784 0.227894
vt 0.216171 0.327327
vt 0.216985 0.228421
vt 0.105699 0.228145
vt 0.104981 0.327662
vt 0.217575 0.327327
vt 0.351490 0.301452
vt 0.217290 0.227894
vt 0.351571 0.227894
vt 0.352420 0.301452
vt 0.489174 0.227894
vt 0.352342 0.227894
vt 0.471690 0.333380
vt 0.351597 0.328057
vt 0.217345 0.328075
vt 0.352312 0.363299
vt 0.470864 0.334174
vt 0.352330 0.328057
vt 0.216660 0.380224
vt 0.216104 0.328075
vt 0.104983 0.328371
vt 0.217232 0.380224
vt 0.351611 0.363299
vt 0.351459 0.420971
vt 0.352499 0.420971
vt 0.351589 0.497239
vt 0.229465 0.497239
vt 0.352627 0.497239
vt 0.229583 0.497239
vt 0.133020 0.497239
vt 0.072972 0.497239
vt 0.025422 0.328212
vt 0.002386 0.497239
vt 0.216130 0.152222
vt 0.223982 0.125749
vt 0.105883 0.155747
vt 0.351732 0.147623
vt 0.223132 0.128232
vt 0.218721 0.149411
vt 0.469070 0.149411
vt 0.483427 0.127273
vt 0.352306 0.146326
vt 0.017963 0.152222
vt 0.104256 0.155747
vt 0.009616 0.131504
vt 0.104128 0.227914
vt 0.000790 0.227921
vt 0.216984 0.228396
vt 0.351571 0.227971
vt 0.217291 0.227882
vt 0.352342 0.227879
vt 0.489111 0.227891
vt 0.948232 0.041698
vt 0.989968 0.003451
vt 0.971575 0.059997
vt 0.909211 0.004273
vt 0.996004 0.120663
vt 0.925604 0.058708
vt 0.885225 0.122889
vt 0.516483 0.798440
vt 0.501430 0.685191
vt 0.597947 0.686709
vt 0.594444 0.793024
vt 0.950876 0.082499
vt 0.943924 0.157220
vt 0.507177 0.624822
vt 0.600053 0.622523
vt 0.901715 0.182549
vt 0.982420 0.184037
vt 0.730212 0.975635
vt 0.685579 0.991654
vt 0.692830 0.969164

vn 0.989528 -0.098496 -0.105516
vn 0.186804 -0.032450 -0.981861
vn -0.161404 -0.245242 -0.955931
vn 0.826179 0.133724 0.547308
vn 0.818567 -0.151132 -0.554173
vn -0.021169 -0.340228 -0.940105
vn 0.210778 -0.271689 -0.939020
vn 0.920645 -0.298405 -0.251730
vn 0.173651 -0.023035 -0.984538
vn 0.871603 -0.426832 -0.241086
vn -0.468523 -0.822516 -0.322419
vn -0.259922 -0.903644 -0.340394
vn -0.221770 -0.806175 -0.548544
vn -0.173381 -0.883208 0.435755
vn -0.437441 -0.655067 0.616063
vn 0.529256 0.182560 0.828589
vn 0.413893 -0.427064 0.803933
vn 0.976401 -0.215883 0.005929
vn 0.083194 0.100036 -0.991500
vn 0.400321 -0.416633 0.816186
vn 0.729129 -0.561718 0.390952
vn 0.717469 0.028875 0.695991
vn 0.417938 0.139721 0.897667
vn 0.919177 -0.068509 0.387841
vn 0.102696 -0.165285 0.980884
vn 0.273396 -0.204210 0.939975
vn 0.497279 0.773197 -0.393548
vn 0.083332 0.137274 -0.987022
vn 0.619116 -0.406707 0.671777
vn 0.429274 0.696223 -0.575324
vn 0.312288 -0.117724 0.942665
vn 0.197954 0.673524 -0.712165
vn 0.667539 -0.072580 0.741029
vn 0.550364 0.402924 0.731267
vn 0.555242 0.687134 0.468565
vn 0.269051 0.323339 0.907228
vn 0.157736 0.133699 0.978388
vn 0.784428 0.221420 0.579350
vn 0.750828 0.634100 -0.184866
vn 0.473775 0.722805 -0.503081
vn 0.190746 0.893222 -0.407150
vn 0.519013 0.618467 0.590020
vn 0.398616 0.900822 -0.172123
vn 0.752373 0.628715 -0.196605
vn 0.221457 0.764778 -0.605038
vn 0.232348 0.756184 -0.611719
vn 0.195430 0.676110 -0.710410
vn 0.028673 0.212979 0.976636
vn 0.860279 0.093317 0.501211
vn 0.828651 0.075666 -0.554628
vn -0.016118 -0.115687 -0.993155
vn 0.031267 0.174683 0.984128
vn -0.100935 0.311466 0.944881
vn 0.913384 0.293159 0.282465
vn 0.788518 0.434031 0.435726
vn 0.904009 0.244824 0.350469
vn 0.829612 0.074386 -0.553362
vn 0.272663 0.184451 -0.944263
vn 0.776912 0.311003 -0.547435
vn 0.594190 0.092157 -0.799028
vn 0.275793 0.136386 -0.951492
vn -0.494409 -0.243692 -0.834370
vn 0.411382 0.114030 0.904302
vn -0.769715 -0.465621 -0.436733
vn 0.929030 0.065529 -0.364157
vn 0.706958 -0.487287 -0.512603
vn -0.260727 -0.282338 -0.923205
vn 0.965129 0.230990 -0.123169
vn 0.638974 0.741909 0.203183
vn 0.723404 -0.485137 -0.491253
vn 0.919384 0.236890 -0.314033
vn -0.348103 -0.680249 -0.645046
vn 0.921210 0.253056 -0.295526
vn -0.071983 -0.319550 -0.944831
vn 0.822767 -0.216540 0.525515
vn 0.449122 -0.336328 0.827752
vn 0.142009 -0.098991 0.984903
vn 0.976795 -0.036954 0.210962
vn 0.984482 -0.016713 -0.174688
vn 0.998594 -0.047401 0.023753
vn 0.360739 -0.888025 0.285096
vn 0.193735 0.012100 0.980979
vn 0.911170 -0.114976 0.395664
vn 0.974673 -0.019905 0.222749
vn -0.054128 0.815538 0.576167
vn 0.475326 0.171122 0.863008
vn 0.684975 0.204577 0.699256
vn 0.699335 0.212049 0.682617
vn 0.486844 -0.344611 0.802637
vn 0.313348 -0.431254 0.846069
vn 0.049234 0.833090 0.550942
vn -0.020318 -0.198108 0.979970
vn 0.245448 -0.800207 0.547196
vn 0.531248 -0.135598 0.836295
vn 0.474288 -0.827534 -0.300397
vn 0.864976 -0.122508 0.486629
vn 0.007757 -0.980563 -0.196049
vn 0.513966 -0.018560 0.857610
vn 0.810867 -0.037316 0.584040
vn 0.317126 -0.924215 -0.212738
vn 0.330398 -0.139270 0.933510
vn 0.977702 0.098318 -0.185562
vn 0.917814 0.255774 -0.303641
vn 0.767693 -0.399218 0.501270
vn 0.163229 -0.581503 0.797001
vn 0.826305 -0.227862 0.515072
vn 0.056784 -0.470043 0.880815
vn 0.520856 0.614792 0.592233
vn 0.978250 0.027443 0.205604
vn 0.884046 0.390955 0.256158
vn 0.769132 0.549205 0.326818
vn 0.497932 0.158195 0.852665
vn 0.491997 0.531856 -0.689252
vn 0.399784 0.603671 -0.689750
vn 0.151112 0.987748 0.038981
vn 0.030217 0.993060 -0.113664
vn 0.894910 -0.111568 0.432075
vn 0.681632 0.727406 -0.079116
vn 0.787223 -0.616064 -0.027291
vn 0.999255 0.036263 0.013217
vn -0.955937 0.158176 -0.247316
vn 0.871917 0.382428 0.305792
vn 0.767530 -0.641007 -0.002718
vn -0.417342 -0.875757 -0.242641
vn -0.039815 0.999086 0.015536
vn -0.671304 -0.523045 0.525143
vn -0.601722 -0.549997 0.579166
vn 0.448474 0.085953 0.889653
vn 0.182455 -0.393411 0.901076
vn 0.859318 0.489216 0.149128
vn 0.888196 0.326849 0.322921
vn 0.631491 -0.695689 -0.342397
vn -0.205190 -0.158536 -0.965797
vn 0.355128 -0.827215 -0.435431
vn 0.350879 0.378834 -0.856370
vn -0.337636 -0.940793 0.030171
vn -0.363543 -0.929625 -0.060276
vn 0.890976 -0.442455 0.101957
vn 0.759514 -0.562199 0.327216
vn 0.812280 0.433593 0.390126
vn 0.811893 0.434069 0.390401
vn 0.026582 0.986208 0.163363
vn -0.988758 0.144277 0.039273
vn -0.526261 -0.831480 -0.178015
vn -0.459546 -0.873943 0.158242
vn 0.771960 -0.486702 0.408900
vn 0.745875 -0.642702 0.174943
vn 0.889316 0.392665 0.234375
vn 0.842574 0.447991 0.298952
vn -0.063650 0.996373 0.056473
vn -0.040517 0.994385 0.097765
vn -0.940106 0.065002 -0.334626
vn 0.848956 -0.458689 0.262447
vn -0.364973 -0.930135 -0.040549
vn -0.972154 0.215507 -0.092054
vn -0.022683 0.965078 0.260977
vn -0.974920 0.221496 -0.021676
vn -0.054065 0.972007 0.228647
vn 0.830973 -0.554377 0.046361
vn -0.431578 -0.902075 -0.000731
vn -0.932571 -0.304116 0.194488
vn -0.833150 -0.308556 0.458971
vn -0.168643 0.167228 0.971388
vn 0.035818 0.221731 0.974450
vn 0.724694 0.601350 0.336448
vn 0.711341 0.580988 0.395534
vn 0.697794 0.429213 -0.573462
vn 0.615533 0.285536 -0.734567
vn -0.378056 -0.258225 -0.889041
vn -0.459175 -0.258325 -0.849957
vn 0.200856 0.882466 0.425336
vn 0.184301 0.676117 -0.713371
vn 0.761836 -0.190480 -0.619131
vn 0.658268 -0.126544 -0.742071
vn 0.683929 -0.122049 -0.719267
vn 0.525920 0.122693 -0.841638
vn 0.441064 0.121084 -0.889270
vn 0.697955 0.607642 0.378985
vn 0.438266 0.566637 0.697744
vn -0.864869 -0.455332 0.211366
vn -0.736245 0.356485 0.575206
vn -0.937917 -0.315395 0.144354
vn -0.916222 -0.312590 0.250650
vn -0.988798 -0.071576 -0.130978
vn -0.056085 -0.797489 -0.600722
vn 0.874106 -0.073672 -0.480115
vn 0.657711 0.322990 -0.680510
vn -0.750435 -0.437352 -0.495551
vn -0.750637 -0.404792 -0.522195
vn 0.591211 0.598396 0.540732
vn 0.607780 0.561904 0.561130
vn 0.651484 0.342129 -0.677139
vn 0.495556 0.726415 0.476178
vn -0.195803 -0.029960 0.980186
vn -0.328158 -0.029850 0.944151
vn -0.748529 -0.419929 -0.513189
vn 0.794232 0.443185 0.415671
vn -0.821074 -0.266539 -0.504772
vn -0.724484 -0.654067 0.217530
vn 0.018353 -0.182318 0.983068
vn 0.162218 0.896716 -0.411809
vn 0.645584 0.512404 0.566272
vn -0.186756 -0.263250 0.946478
vn 0.926625 0.309304 -0.213768
vn 0.926039 0.320121 -0.199938
vn -0.767034 -0.370780 -0.523623
vn 0.674283 0.321767 -0.664686
vn 0.524301 0.665068 0.531783
vn -0.278215 0.131927 0.951416
vn -0.914050 0.147154 -0.377965
vn 0.616322 0.744060 -0.257919
vn 0.313227 0.931430 -0.185277
vn 0.832185 -0.132600 0.538410
vn 0.817002 -0.228893 0.529259
vn -0.587692 -0.601614 0.540998
vn -0.551818 -0.637082 0.538167
vn 0.898295 -0.226463 0.376537
vn -0.539315 -0.004195 0.842094
vn 0.595554 -0.235630 -0.767981
vn 0.864134 -0.100276 0.493171
vn 0.885526 -0.228091 0.404745
vn -0.255928 -0.570476 0.780422
vn 0.875054 -0.030636 0.483054
vn -0.534971 -0.593779 0.601026
vn -0.855205 0.384868 -0.347132
vn 0.899308 0.061077 0.433030
vn -0.434291 -0.350645 0.829723
vn 0.923406 0.025016 0.383008
vn 0.558685 0.290190 -0.776956
vn 0.399108 0.132309 -0.907308
vn -0.342262 -0.019239 -0.939407
vn -0.755920 -0.298531 -0.582636
vn -0.477479 -0.420176 0.771664
vn -0.959227 -0.276089 -0.060487
vn 0.406310 0.908297 -0.099540
vn 0.804222 -0.398273 0.441141
vn -0.469378 -0.655692 0.591399
vn -0.875583 0.365539 -0.315811
vn 0.740721 0.609392 -0.282796
vn -0.908117 0.199071 -0.368367
vn -0.924306 0.173688 -0.339840
vn 0.638935 0.652733 -0.407065
vn 0.846302 -0.476149 0.238864
vn 0.880400 -0.409495 0.239186
vn -0.494996 -0.857689 0.139096
vn -0.447900 -0.883070 0.139906
vn -0.872372 0.354029 -0.337090
vn -0.156881 0.589339 -0.792507
vn -0.914058 -0.398489 -0.075532
vn 0.879203 0.322777 -0.350453
vn 0.241976 -0.886115 -0.395282
vn 0.129589 -0.894318 -0.428255
vn 0.483017 0.684922 0.545505
vn 0.453107 0.732307 -0.508351
vn -0.711387 0.184378 0.678183
vn 0.519717 0.727395 0.448097
vn -0.815012 0.180521 0.550606
vn 0.242160 -0.887330 -0.392432
vn 0.242645 -0.887370 -0.392042
vn 0.449419 0.795963 0.405543
vn 0.211462 0.067788 0.975033
vn -0.802187 0.361828 0.474949
vn 0.143218 -0.959112 -0.244115
vn -0.365370 0.111216 -0.924195
vn 0.287998 -0.276581 -0.916821
vn -0.859146 -0.168841 0.483074
vn -0.909244 -0.270950 -0.316009
vn -0.252575 -0.441550 -0.860952
vn -0.229756 -0.455974 -0.859825
vn -0.879067 -0.380228 -0.287519
vn -0.097376 0.394458 -0.913740
vn -0.912769 -0.283064 -0.294495
vn 0.413350 -0.841283 -0.348404
vn 0.711214 -0.600777 -0.365022
vn 0.054600 -0.369138 -0.927769
vn 0.267197 -0.522159 0.809911
vn 0.710387 0.007038 0.703776
vn -0.160857 0.138704 0.977183
vn -0.190829 0.211445 0.958580
vn -0.924734 -0.246777 0.289773
vn -0.360924 0.086828 -0.928544
vn -0.357068 -0.473880 0.804948
vn -0.633448 -0.685350 0.359220
vn -0.514718 0.318994 0.795807
vn -0.397893 0.005722 0.917414
vn -0.720411 -0.151605 0.676774
vn 0.029058 -0.177190 0.983748
vn -0.127369 -0.170698 0.977056
vn -0.366767 0.314315 -0.875607
vn -0.365126 0.111962 -0.924201
vn -0.430149 -0.462242 0.775439
vn -0.504647 0.529215 -0.682101
vn -0.121660 -0.182838 0.975587
vn -0.443664 0.367869 -0.817212
vn -0.418648 -0.133033 0.898352
vn -0.461894 0.395275 0.793984
vn -0.467164 0.808128 0.358729
vn -0.108097 0.280106 0.953864
vn -0.100146 0.270624 0.957462
vn -0.728921 0.265785 0.630899
vn -0.696330 0.656584 -0.289867
vn -0.345023 0.761785 -0.548309
vn -0.152909 0.874409 -0.460464
vn -0.393151 0.740740 0.544735
vn -0.425126 0.889330 -0.168402
vn -0.692277 0.686451 -0.222571
vn -0.229849 0.708869 -0.666839
vn -0.175130 0.757130 -0.629351
vn -0.224516 0.681885 -0.696150
vn 0.126899 0.383397 0.914824
vn -0.787983 0.170051 0.591748
vn -0.864589 0.266802 -0.425796
vn -0.302796 0.145279 -0.941918
vn 0.139602 0.206600 0.968415
vn 0.012680 0.294575 0.955544
vn -0.839241 0.293895 0.457493
vn -0.760904 0.326505 0.560731
vn -0.582739 0.527269 0.618387
vn -0.953986 0.108055 -0.279704
vn -0.323339 0.162740 -0.932184
vn -0.864635 0.266669 -0.425787
vn -0.644642 -0.104158 -0.757356
vn -0.279069 -0.113742 -0.953511
vn 0.142365 -0.284489 -0.948050
vn -0.079084 0.052109 0.995505
vn 0.658847 0.449363 -0.603319
vn -0.364971 0.543233 -0.756105
vn -0.683260 -0.659654 -0.313071
vn 0.134296 0.372744 0.918165
vn -0.303680 -0.240734 -0.921860
vn -0.447840 0.592079 -0.669986
vn -0.384857 -0.771451 -0.506704
vn -0.945945 0.198564 -0.256437
vn 0.649905 -0.705698 -0.282157
vn 0.017924 -0.216037 -0.976221
vn 0.441414 -0.241265 -0.864259
vn -0.928924 -0.222792 0.295744
vn -0.626741 -0.312535 0.713805
vn -0.349277 -0.088122 0.932867
vn -0.995931 -0.071988 -0.054214
vn -0.922848 -0.132400 -0.361692
vn -0.844870 -0.115195 -0.522422
vn -0.346635 -0.896985 0.274340
vn -0.394118 0.025112 0.918717
vn -0.977951 -0.073193 0.195586
vn -0.999624 0.023760 0.013653
vn -0.032097 0.815049 0.578503
vn -0.637534 0.195726 0.745146
vn -0.806571 0.237556 0.541304
vn -0.816798 0.245578 0.522047
vn -0.658689 -0.319275 0.681316
vn -0.502094 -0.413216 0.759706
vn -0.127025 0.836988 0.532275
vn -0.193988 -0.194267 0.961576
vn -0.389322 -0.786166 0.479970
vn -0.699975 -0.108370 0.705897
vn -0.368092 -0.761871 -0.532974
vn -0.983999 -0.021904 0.176820
vn -0.008322 -0.979844 -0.199589
vn -0.682440 0.007896 0.730899
vn -0.916013 0.000873 0.401147
vn -0.223374 -0.920906 -0.319432
vn -0.524298 -0.120365 0.842985
vn -0.908679 0.141291 -0.392860
vn -0.818595 0.291472 -0.494920
vn -0.872330 -0.362952 0.327577
vn -0.351757 -0.570118 0.742450
vn -0.924985 -0.189127 0.329595
vn -0.260432 -0.463008 0.847230
vn -0.605916 0.639711 0.472901
vn -0.997460 0.071137 -0.003641
vn -0.900127 0.430414 0.067196
vn -0.795747 0.583815 0.161081
vn -0.658013 0.183765 0.730240
vn -0.334743 0.534301 -0.776190
vn -0.219665 0.618730 -0.754268
vn -0.112591 0.993580 0.011052
vn 0.037690 0.992895 -0.112866
vn -0.900509 0.014311 0.434602
vn -0.670174 0.689130 -0.275621
vn -0.676138 -0.719046 0.160657
vn -0.904136 -0.193233 -0.381051
vn 0.958260 0.198884 -0.205383
vn -0.945339 0.325275 -0.023033
vn -0.700220 -0.709376 -0.080486
vn 0.572575 -0.709333 0.411101
vn 0.653133 0.590305 0.474298
vn 0.595614 -0.334300 -0.730402
vn 0.212256 -0.733634 -0.645545
vn -0.224771 0.677741 0.700104
vn -0.212153 -0.973468 -0.085736
vn -0.784426 0.158036 0.599751
vn -0.859999 -0.446381 0.247278
vn -0.898726 0.426981 0.099894
vn -0.438379 0.860968 0.257989
vn 0.334694 0.837038 -0.432836
vn -0.489075 -0.115475 -0.864564
vn 0.387145 -0.837864 0.384841
vn 0.433084 -0.836897 0.334726
vn -0.800464 -0.584245 -0.133847
vn -0.771984 -0.625819 0.111318
vn -0.934774 0.348010 -0.071319
vn -0.945872 0.311738 -0.090251
vn -0.083185 0.970522 -0.226203
vn 0.823369 0.317917 0.470099
vn 0.559825 -0.782588 0.272310
vn 0.435204 -0.725796 0.532746
vn -0.822969 -0.544714 0.161275
vn -0.712655 -0.700376 -0.039969
vn -0.923569 0.317806 -0.214524
vn -0.920191 0.340509 -0.193140
vn 0.567964 0.659103 -0.492951
vn -0.097202 0.992075 -0.079619
vn 0.332241 0.942919 0.022802
vn -0.815247 -0.576174 -0.058271
vn 0.439577 -0.838962 0.320803
vn 0.884991 0.408891 0.222707
vn -0.000631 0.998816 0.048635
vn 0.845816 0.452016 0.283332
vn -0.167242 0.976402 0.136632
vn -0.728458 -0.672934 -0.128488
vn 0.492382 -0.804824 0.331388
vn 0.779400 0.144972 -0.609524
vn 0.774096 -0.163258 -0.611655
vn 0.520565 -0.853774 0.009070
vn 0.095065 -0.961573 0.257564
vn -0.506494 -0.394895 0.766500
vn -0.497815 -0.461260 0.734452
vn -0.549822 0.521701 0.652322
vn -0.543132 0.580030 0.607103
vn 0.418458 0.818614 -0.393401
vn 0.279080 0.895781 -0.345965
vn -0.161757 -0.360882 0.918476
vn -0.193156 0.673515 0.713490
vn -0.804422 0.590277 -0.066911
vn -0.776613 0.629973 0.002518
vn -0.738152 0.674493 -0.013835
vn -0.573948 0.780969 0.246317
vn -0.498436 0.837746 0.223033
vn -0.490072 -0.419252 0.764237
vn -0.321400 -0.592586 0.738609
vn 0.742801 -0.134332 -0.655897
vn 0.901348 -0.353374 0.250398
vn 0.857747 -0.007484 -0.514017
vn 0.852777 -0.089532 -0.514544
vn 0.910728 0.216170 -0.351916
vn -0.209993 0.597422 -0.773944
vn -0.913991 0.376224 0.151907
vn -0.622157 0.641893 0.448211
vn 0.666755 0.558377 -0.493612
vn 0.669976 0.583952 -0.458402
vn -0.355153 -0.582356 0.731251
vn -0.377746 -0.605664 0.700342
vn -0.592472 0.663667 0.456644
vn -0.387489 -0.503193 0.772431
vn -0.008902 -0.999806 0.017580
vn 0.436512 -0.890052 -0.131391
vn 0.623601 0.516690 -0.586645
vn -0.600087 -0.492834 0.630087
vn 0.678433 0.558176 -0.477669
vn 0.644294 0.085271 -0.760009
vn 0.193232 -0.900160 -0.390351
vn -0.145765 0.397166 0.906097
vn -0.428476 -0.617314 0.659797
vn 0.119483 -0.928866 -0.350616
vn -0.837212 0.121000 0.533325
vn -0.832462 0.107978 0.543460
vn 0.700092 0.581197 -0.414827
vn -0.616333 0.648121 0.447294
vn -0.481821 -0.601921 0.636819
vn 0.179730 -0.979169 0.094469
vn 0.884643 0.033339 -0.465075
vn -0.508501 0.482876 -0.712922
vn -0.449255 0.518882 -0.727276
vn -0.807070 0.084466 0.584383
vn -0.780148 0.002720 0.625590
vn 0.600443 -0.259301 0.756460
vn 0.472827 -0.358052 0.805129
vn -0.883334 -0.127911 0.450955
vn 0.516883 0.158957 0.841169
vn -0.509097 -0.357899 -0.782770
vn -0.741348 -0.035036 0.670206
vn -0.594985 0.435230 0.675698
vn 0.600664 0.347494 0.720035
vn -0.819221 0.371970 0.436481
vn 0.470724 -0.350643 0.809610
vn 0.843291 0.128554 -0.521857
vn -0.693639 0.637593 0.335173
vn 0.677753 0.408060 0.611668
vn -0.736846 0.581887 0.344188
vn -0.660011 -0.555008 -0.506312
vn -0.610477 -0.610028 -0.505157
vn -0.094689 -0.795666 -0.598288
vn 0.471629 -0.808390 -0.352239
vn 0.691097 0.357749 0.628013
vn 0.841122 -0.522185 -0.140840
vn -0.527502 0.523415 -0.669163
vn -0.824979 0.163832 0.540896
vn 0.559287 -0.219617 0.799354
vn 0.886249 0.142070 -0.440884
vn -0.736287 0.264591 -0.622795
vn 0.922446 -0.104176 -0.371807
vn 0.848731 -0.111890 -0.516852
vn -0.549587 0.180069 -0.815800
vn -0.813004 -0.177999 0.554384
vn -0.920528 -0.009592 0.390558
vn 0.599141 -0.416141 0.684000
vn 0.577039 -0.426421 0.696557
vn 0.888783 0.167024 -0.426812
vn 0.188730 0.128680 -0.973562
vn 0.936037 -0.344964 0.069535
vn -0.894993 0.139993 -0.423544
vn -0.241385 -0.969048 -0.051756
vn -0.213745 -0.975078 -0.059462
vn -0.527404 0.817928 0.229865
vn -0.539152 0.452871 -0.710086
vn 0.724806 0.418689 0.547134
vn -0.575638 0.812859 0.088887
vn 0.844380 0.361047 0.395812
vn -0.229007 -0.969530 0.086985
vn -0.264153 -0.957690 0.114252
vn -0.476092 0.879261 -0.015376
vn -0.206454 0.482294 0.851334
vn 0.822897 0.533220 0.196255
vn -0.472003 -0.864688 0.171836

f 1/1/1 2/2/1 3/3/1
f 4/4/2 5/5/2 6/6/2
f 4/4/3 6/7/3 7/8/3
f 5/9/4 8/10/4 9/11/4
f 10/12/5 11/13/5 9/14/5
f 6/6/6 11/15/6 7/8/6
f 6/6/7 12/16/7 11/13/7
f 12/17/8 5/5/8 9/14/8
f 6/6/9 5/5/9 12/17/9
f 11/13/10 12/18/10 9/19/10
f 13/20/11 14/21/11 15/22/11
f 14/21/12 13/20/12 16/23/12
f 16/24/13 13/20/13 17/25/13
f 15/22/14 14/21/14 18/26/14
f 14/21/15 19/27/15 18/26/15
f 18/26/16 20/28/16 21/29/16
f 18/26/17 19/27/17 20/28/17
f 20/28/18 3/30/18 21/29/18
f 5/9/19 22/31/19 23/32/19
f 24/33/20 25/34/20 26/35/20
f 27/36/21 25/34/21 9/37/21
f 28/38/22 27/39/22 29/40/22
f 30/41/23 25/34/23 24/33/23
f 25/34/24 30/41/24 10/42/24
f 30/41/25 24/33/25 31/43/25
f 24/33/26 26/44/26 32/45/26
f 33/46/27 34/47/27 5/9/27
f 4/4/28 22/31/28 5/9/28
f 26/35/29 25/34/29 27/39/29
f 33/46/30 35/48/30 34/47/30
f 32/45/31 26/35/31 28/38/31
f 23/32/32 33/46/32 5/9/32
f 26/35/33 27/39/33 28/38/33
f 28/38/34 29/40/34 36/49/34
f 35/50/35 37/51/35 29/40/35
f 28/38/36 38/52/36 32/45/36
f 36/49/37 38/52/37 28/38/37
f 36/49/38 37/53/38 39/54/38
f 39/55/39 37/56/39 40/57/39
f 41/58/40 42/59/40 39/55/40
f 39/55/41 40/57/41 41/58/41
f 36/49/42 29/40/42 37/51/42
f 37/56/43 35/48/43 33/46/43
f 37/56/44 33/46/44 40/57/44
f 40/57/45 33/46/45 43/60/45
f 40/57/46 43/60/46 41/58/46
f 33/46/47 23/32/47 43/60/47
f 44/61/48 45/62/48 30/63/48
f 15/64/49 46/65/49 45/62/49
f 46/66/50 47/67/50 10/68/50
f 47/67/51 7/69/51 11/70/51
f 45/62/52 44/61/52 17/71/52
f 44/61/53 30/63/53 31/72/53
f 13/73/54 15/64/54 45/62/54
f 46/65/55 10/74/55 45/62/55
f 45/62/56 10/74/56 30/63/56
f 47/67/57 11/70/57 10/68/57
f 47/67/58 48/75/58 7/69/58
f 46/66/59 15/76/59 47/67/59
f 18/77/60 47/67/60 15/76/60
f 47/67/61 18/77/61 48/75/61
f 18/77/62 21/78/62 48/75/62
f 13/73/63 45/62/63 17/71/63
f 49/79/64 35/50/64 29/40/64
f 8/80/65 27/81/65 9/82/65
f 34/47/66 50/83/66 5/84/66
f 27/36/67 49/79/67 29/40/67
f 35/48/68 51/85/68 52/86/68
f 35/50/69 49/79/69 51/87/69
f 52/86/70 50/83/70 34/47/70
f 35/48/71 52/86/71 34/47/71
f 5/84/72 50/83/72 8/10/72
f 53/88/73 27/81/73 8/80/73
f 53/88/74 49/79/74 27/36/74
f 54/89/75 55/90/75 56/91/75
f 57/92/76 55/90/76 58/93/76
f 59/94/77 60/95/77 55/90/77
f 61/96/78 54/89/78 56/91/78
f 39/97/79 61/96/79 36/98/79
f 36/98/80 61/96/80 56/91/80
f 36/98/81 56/91/81 38/99/81
f 62/100/82 63/101/82 64/102/82
f 65/103/83 64/102/83 54/89/83
f 61/96/84 65/103/84 54/89/84
f 66/104/85 67/105/85 62/100/85
f 55/90/86 60/95/86 68/106/86
f 69/107/87 68/106/87 60/95/87
f 69/107/88 70/108/88 68/106/88
f 58/109/89 55/90/89 68/106/89
f 68/106/90 71/110/90 58/111/90
f 62/100/91 67/105/91 63/101/91
f 64/102/92 63/101/92 69/107/92
f 70/108/93 71/110/93 68/106/93
f 58/111/94 71/110/94 72/112/94
f 56/91/95 57/92/95 38/113/95
f 55/90/96 57/114/96 56/91/96
f 73/115/97 74/116/97 38/113/97
f 58/109/98 72/112/98 73/115/98
f 57/117/99 58/111/99 73/115/99
f 57/92/100 73/115/100 38/113/100
f 73/115/101 72/112/101 74/116/101
f 39/97/102 75/118/102 61/96/102
f 75/118/103 39/97/103 76/119/103
f 64/102/104 59/94/104 54/89/104
f 64/102/105 60/95/105 59/94/105
f 54/89/106 59/94/106 55/90/106
f 64/102/107 69/107/107 60/95/107
f 65/103/108 66/104/108 62/100/108
f 65/103/109 61/96/109 75/118/109
f 75/118/110 76/119/110 65/103/110
f 66/104/111 65/103/111 76/119/111
f 62/100/112 64/102/112 65/103/112
f 39/97/113 42/120/113 76/119/113
f 77/121/114 76/119/114 42/120/114
f 67/105/115 76/119/115 77/121/115
f 66/104/116 76/119/116 67/105/116
f 9/82/117 25/34/117 10/42/117
f 51/122/118 49/123/118 78/124/118
f 79/125/119 50/126/119 52/127/119
f 52/127/120 51/122/120 79/125/120
f 80/128/121 81/129/121 53/130/121
f 51/122/122 78/124/122 79/125/122
f 82/131/123 50/126/123 79/125/123
f 50/126/124 82/131/124 8/132/124
f 53/133/125 78/124/125 49/123/125
f 83/134/126 84/135/126 85/136/126
f 84/135/127 83/134/127 86/137/127
f 86/137/128 87/138/128 84/135/128
f 88/139/129 84/135/129 87/138/129
f 87/138/130 89/140/130 88/139/130
f 90/141/131 88/139/131 89/140/131
f 91/142/132 92/143/132 90/141/132
f 90/141/133 89/140/133 91/142/133
f 85/136/134 92/144/134 91/145/134
f 91/145/135 83/134/135 85/136/135
f 80/128/136 93/146/136 83/134/136
f 94/147/137 83/134/137 93/146/137
f 93/146/138 87/138/138 94/147/138
f 87/138/139 93/146/139 95/148/139
f 95/148/140 96/149/140 87/138/140
f 89/140/141 87/138/141 96/149/141
f 97/150/142 91/142/142 89/140/142
f 97/151/143 81/129/143 80/128/143
f 8/132/144 82/131/144 80/128/144
f 93/146/145 80/128/145 98/152/145
f 98/152/146 95/148/146 93/146/146
f 95/148/147 82/131/147 79/125/147
f 79/125/148 78/124/148 95/148/148
f 96/149/149 95/148/149 78/124/149
f 78/124/150 53/133/150 81/153/150
f 81/153/151 96/149/151 78/124/151
f 80/128/152 53/130/152 8/154/152
f 94/147/153 87/138/153 86/137/153
f 86/137/154 83/134/154 94/147/154
f 97/151/155 83/134/155 91/145/155
f 89/140/156 96/149/156 97/150/156
f 80/128/157 83/134/157 97/151/157
f 81/153/158 97/150/158 96/149/158
f 82/131/159 95/148/159 98/152/159
f 98/152/160 80/128/160 82/131/160
f 85/136/161 99/155/161 100/156/161
f 99/155/162 85/136/162 84/135/162
f 84/135/163 101/157/163 99/155/163
f 101/157/164 84/135/164 88/139/164
f 88/139/165 90/141/165 101/157/165
f 102/158/166 101/157/166 90/141/166
f 90/141/167 103/159/167 102/158/167
f 103/159/168 90/141/168 92/143/168
f 92/144/169 85/136/169 103/160/169
f 100/156/170 103/160/170 85/136/170
f 104/161/171 105/162/171 106/163/171
f 107/164/172 106/163/172 108/165/172
f 109/166/173 110/167/173 103/168/173
f 109/166/174 111/169/174 104/161/174
f 104/161/175 110/167/175 109/166/175
f 104/161/176 111/169/176 112/170/176
f 113/171/177 112/170/177 111/169/177
f 106/163/178 110/167/178 104/161/178
f 104/161/179 112/170/179 105/162/179
f 105/172/180 113/173/180 111/174/180
f 113/173/181 105/172/181 112/175/181
f 105/172/182 111/174/182 109/176/182
f 109/176/183 106/177/183 105/172/183
f 109/176/184 100/178/184 106/177/184
f 103/179/185 100/178/185 109/176/185
f 102/180/186 103/168/186 110/167/186
f 106/163/187 114/181/187 108/165/187
f 115/182/188 116/183/188 106/177/188
f 116/184/189 117/185/189 118/186/189
f 108/165/190 114/181/190 119/187/190
f 119/187/191 120/188/191 108/165/191
f 118/189/192 121/190/192 114/191/192
f 114/191/193 121/190/193 117/192/193
f 116/193/194 115/194/194 119/187/194
f 120/188/195 119/187/195 115/194/195
f 121/195/196 118/186/196 117/185/196
f 108/165/197 101/196/197 102/180/197
f 115/182/198 106/177/198 100/178/198
f 100/178/199 99/197/199 115/182/199
f 120/188/200 99/198/200 101/196/200
f 106/163/201 107/164/201 110/167/201
f 108/165/202 120/188/202 101/196/202
f 120/188/203 115/194/203 99/198/203
f 107/164/204 102/180/204 110/167/204
f 102/180/205 107/164/205 108/165/205
f 118/199/206 106/177/206 116/183/206
f 114/181/207 106/163/207 118/200/207
f 114/191/208 117/192/208 119/201/208
f 117/192/209 116/202/209 119/201/209
f 122/203/210 123/204/210 124/205/210
f 125/206/211 126/207/211 123/208/211
f 125/206/212 123/208/212 127/209/212
f 125/210/213 128/211/213 126/212/213
f 128/211/214 129/213/214 126/212/214
f 128/214/215 124/215/215 129/216/215
f 122/217/216 124/215/216 128/214/216
f 130/218/217 128/211/217 125/219/217
f 131/220/218 122/221/218 130/222/218
f 132/223/219 125/224/219 127/225/219
f 132/226/220 131/227/220 125/219/220
f 133/228/221 131/227/221 132/226/221
f 133/229/222 122/221/222 131/220/222
f 130/218/223 125/219/223 131/227/223
f 128/214/224 130/222/224 122/221/224
f 127/209/225 123/204/225 122/203/225
f 16/230/226 133/228/226 14/231/226
f 16/232/227 3/3/227 133/229/227
f 14/231/228 133/228/228 132/226/228
f 14/233/229 132/223/229 19/234/229
f 132/223/230 127/225/230 19/234/230
f 20/235/231 19/234/231 127/225/231
f 20/235/232 127/225/232 122/236/232
f 3/3/233 122/221/233 133/229/233
f 3/237/234 20/235/234 122/236/234
f 134/238/235 135/239/235 136/240/235
f 137/241/236 135/242/236 134/243/236
f 138/244/237 139/245/237 137/246/237
f 138/247/238 136/248/238 139/249/238
f 134/238/239 136/240/239 123/208/239
f 138/247/240 123/250/240 136/248/240
f 123/250/241 138/247/241 124/251/241
f 134/238/242 123/208/242 126/252/242
f 129/253/243 134/243/243 126/254/243
f 137/241/244 134/243/244 129/253/244
f 138/244/245 137/246/245 129/255/245
f 138/244/246 129/255/246 124/256/246
f 136/257/247 140/258/247 139/259/247
f 136/257/248 141/260/248 140/258/248
f 142/261/249 139/259/249 140/258/249
f 135/262/250 143/263/250 141/260/250
f 141/264/251 143/265/251 142/266/251
f 142/266/252 140/267/252 141/264/252
f 137/268/253 143/263/253 135/262/253
f 135/262/254 141/260/254 136/257/254
f 139/259/255 142/261/255 137/268/255
f 137/268/256 144/269/256 143/263/256
f 137/268/257 142/261/257 144/269/257
f 143/265/258 145/270/258 146/271/258
f 146/271/259 142/266/259 143/265/259
f 143/263/260 144/269/260 145/272/260
f 144/269/261 146/273/261 145/272/261
f 146/273/262 144/269/262 142/261/262
f 3/274/263 16/275/263 17/276/263
f 147/5/264 4/4/264 148/6/264
f 148/7/265 4/4/265 7/8/265
f 149/10/266 147/9/266 150/11/266
f 151/13/267 152/12/267 150/14/267
f 151/15/268 148/6/268 7/8/268
f 153/16/269 148/6/269 151/13/269
f 147/5/270 153/17/270 150/14/270
f 147/5/271 148/6/271 153/17/271
f 153/18/272 151/13/272 150/19/272
f 154/21/273 155/20/273 156/22/273
f 155/20/274 154/21/274 157/23/274
f 155/20/275 157/24/275 17/25/275
f 154/21/276 156/22/276 158/26/276
f 159/27/277 154/21/277 158/26/277
f 160/28/278 158/26/278 21/29/278
f 159/27/279 158/26/279 160/28/279
f 3/30/280 160/28/280 21/29/280
f 22/31/281 147/9/281 23/32/281
f 161/34/282 24/33/282 162/35/282
f 161/34/283 163/36/283 150/37/283
f 163/39/284 164/38/284 165/40/284
f 161/34/285 166/41/285 24/33/285
f 166/41/286 161/34/286 152/42/286
f 24/33/287 166/41/287 31/43/287
f 162/44/288 24/33/288 32/45/288
f 167/47/289 168/46/289 147/9/289
f 22/31/290 4/4/290 147/9/290
f 161/34/291 162/35/291 163/39/291
f 169/48/292 168/46/292 167/47/292
f 162/35/293 32/45/293 164/38/293
f 168/46/294 23/32/294 147/9/294
f 163/39/295 162/35/295 164/38/295
f 165/40/296 164/38/296 170/49/296
f 171/51/297 169/50/297 165/40/297
f 38/52/298 164/38/298 32/45/298
f 38/52/299 170/49/299 164/38/299
f 171/53/300 170/49/300 172/54/300
f 171/56/301 172/55/301 173/57/301
f 42/59/302 41/58/302 172/55/302
f 173/57/303 172/55/303 41/58/303
f 165/40/304 170/49/304 171/51/304
f 169/48/305 171/56/305 168/46/305
f 168/46/306 171/56/306 173/57/306
f 168/46/307 173/57/307 43/60/307
f 43/60/308 173/57/308 41/58/308
f 23/32/309 168/46/309 43/60/309
f 174/62/310 44/61/310 166/63/310
f 175/65/311 156/64/311 174/62/311
f 176/67/312 175/66/312 152/68/312
f 7/69/313 176/67/313 151/70/313
f 44/61/314 174/62/314 17/71/314
f 166/63/315 44/61/315 31/72/315
f 156/64/316 155/73/316 174/62/316
f 152/74/317 175/65/317 174/62/317
f 152/74/318 174/62/318 166/63/318
f 151/70/319 176/67/319 152/68/319
f 48/75/320 176/67/320 7/69/320
f 156/76/321 175/66/321 176/67/321
f 176/67/322 158/77/322 156/76/322
f 158/77/323 176/67/323 48/75/323
f 21/78/324 158/77/324 48/75/324
f 174/62/325 155/73/325 17/71/325
f 169/50/326 177/79/326 165/40/326
f 163/81/327 149/80/327 150/82/327
f 178/83/328 167/47/328 147/84/328
f 177/79/329 163/36/329 165/40/329
f 179/85/330 169/48/330 180/86/330
f 177/79/331 169/50/331 179/87/331
f 178/83/332 180/86/332 167/47/332
f 180/86/333 169/48/333 167/47/333
f 178/83/334 147/84/334 149/10/334
f 163/81/335 181/88/335 149/80/335
f 177/79/336 181/88/336 163/36/336
f 182/90/337 183/89/337 184/91/337
f 182/90/338 185/92/338 186/93/338
f 187/95/339 188/94/339 182/90/339
f 183/89/340 189/96/340 184/91/340
f 189/96/341 172/97/341 170/98/341
f 189/96/342 170/98/342 184/91/342
f 184/91/343 170/98/343 38/99/343
f 63/101/344 190/100/344 191/102/344
f 191/102/345 192/103/345 183/89/345
f 192/103/346 189/96/346 183/89/346
f 67/105/347 193/104/347 190/100/347
f 187/95/348 182/90/348 194/106/348
f 194/106/349 69/107/349 187/95/349
f 70/108/350 69/107/350 194/106/350
f 182/90/351 186/109/351 194/106/351
f 71/110/352 194/106/352 186/111/352
f 67/105/353 190/100/353 63/101/353
f 63/101/354 191/102/354 69/107/354
f 71/110/355 70/108/355 194/106/355
f 71/110/356 186/111/356 72/112/356
f 185/92/357 184/91/357 38/113/357
f 185/114/358 182/90/358 184/91/358
f 74/116/359 195/115/359 38/113/359
f 72/112/360 186/109/360 195/115/360
f 186/111/361 185/117/361 195/115/361
f 195/115/362 185/92/362 38/113/362
f 72/112/363 195/115/363 74/116/363
f 196/118/364 172/97/364 189/96/364
f 172/97/365 196/118/365 197/119/365
f 188/94/366 191/102/366 183/89/366
f 187/95/367 191/102/367 188/94/367
f 188/94/368 183/89/368 182/90/368
f 69/107/369 191/102/369 187/95/369
f 193/104/370 192/103/370 190/100/370
f 189/96/371 192/103/371 196/118/371
f 197/119/372 196/118/372 192/103/372
f 192/103/373 193/104/373 197/119/373
f 191/102/374 190/100/374 192/103/374
f 42/120/375 172/97/375 197/119/375
f 197/119/376 77/121/376 42/120/376
f 197/119/377 67/105/377 77/121/377
f 197/119/378 193/104/378 67/105/378
f 161/34/379 150/82/379 152/42/379
f 177/123/380 179/122/380 198/124/380
f 178/126/381 199/125/381 180/127/381
f 179/122/382 180/127/382 199/125/382
f 200/129/383 201/128/383 181/130/383
f 198/124/384 179/122/384 199/125/384
f 178/126/385 202/131/385 199/125/385
f 202/131/386 178/126/386 149/132/386
f 198/124/387 181/133/387 177/123/387
f 203/135/388 204/134/388 205/136/388
f 204/134/389 203/135/389 206/137/389
f 207/138/390 206/137/390 203/135/390
f 203/135/391 208/139/391 207/138/391
f 209/140/392 207/138/392 208/139/392
f 208/139/393 210/141/393 209/140/393
f 211/143/394 212/142/394 210/141/394
f 209/140/395 210/141/395 212/142/395
f 211/144/396 205/136/396 212/145/396
f 204/134/397 212/145/397 205/136/397
f 213/146/398 201/128/398 204/134/398
f 204/134/399 214/147/399 213/146/399
f 207/138/400 213/146/400 214/147/400
f 213/146/401 207/138/401 215/148/401
f 216/149/402 215/148/402 207/138/402
f 207/138/403 209/140/403 216/149/403
f 212/142/404 217/150/404 209/140/404
f 200/129/405 217/151/405 201/128/405
f 202/131/406 149/132/406 201/128/406
f 201/128/407 213/146/407 218/152/407
f 215/148/408 218/152/408 213/146/408
f 202/131/409 215/148/409 199/125/409
f 198/124/410 199/125/410 215/148/410
f 215/148/411 216/149/411 198/124/411
f 181/133/412 198/124/412 200/153/412
f 216/149/413 200/153/413 198/124/413
f 181/130/414 201/128/414 149/154/414
f 207/138/415 214/147/415 206/137/415
f 204/134/416 206/137/416 214/147/416
f 204/134/417 217/151/417 212/145/417
f 216/149/418 209/140/418 217/150/418
f 204/134/419 201/128/419 217/151/419
f 217/150/420 200/153/420 216/149/420
f 215/148/421 202/131/421 218/152/421
f 201/128/422 218/152/422 202/131/422
f 219/155/423 205/136/423 220/156/423
f 205/136/424 219/155/424 203/135/424
f 221/157/425 203/135/425 219/155/425
f 203/135/426 221/157/426 208/139/426
f 210/141/427 208/139/427 221/157/427
f 221/157/428 222/158/428 210/141/428
f 223/159/429 210/141/429 222/158/429
f 210/141/430 223/159/430 211/143/430
f 205/136/431 211/144/431 223/160/431
f 223/160/432 220/156/432 205/136/432
f 224/162/433 225/161/433 226/163/433
f 226/163/434 227/164/434 228/165/434
f 229/167/435 230/166/435 223/168/435
f 231/169/436 230/166/436 225/161/436
f 229/167/437 225/161/437 230/166/437
f 231/169/438 225/161/438 232/170/438
f 232/170/439 233/171/439 231/169/439
f 229/167/440 226/163/440 225/161/440
f 232/170/441 225/161/441 224/162/441
f 233/173/442 224/172/442 231/174/442
f 224/172/443 233/173/443 232/175/443
f 231/174/444 224/172/444 230/176/444
f 226/177/445 230/176/445 224/172/445
f 220/178/446 230/176/446 226/177/446
f 220/178/447 223/179/447 230/176/447
f 223/168/448 222/180/448 229/167/448
f 234/181/449 226/163/449 228/165/449
f 235/183/450 236/182/450 226/177/450
f 237/185/451 235/184/451 238/186/451
f 234/181/452 228/165/452 239/187/452
f 240/188/453 239/187/453 228/165/453
f 241/190/454 238/189/454 234/191/454
f 241/190/455 234/191/455 237/192/455
f 236/194/456 235/193/456 239/187/456
f 239/187/457 240/188/457 236/194/457
f 238/186/458 241/195/458 237/185/458
f 221/196/459 228/165/459 222/180/459
f 226/177/460 236/182/460 220/178/460
f 219/197/461 220/178/461 236/182/461
f 219/198/462 240/188/462 221/196/462
f 227/164/463 226/163/463 229/167/463
f 240/188/464 228/165/464 221/196/464
f 236/194/465 240/188/465 219/198/465
f 222/180/466 227/164/466 229/167/466
f 227/164/467 222/180/467 228/165/467
f 226/177/468 238/199/468 235/183/468
f 226/163/469 234/181/469 238/200/469
f 237/192/470 234/191/470 239/201/470
f 235/202/471 237/192/471 239/201/471
f 242/204/472 243/203/472 244/205/472
f 245/207/473 246/206/473 242/208/473
f 242/208/474 246/206/474 247/209/474
f 248/211/475 246/210/475 245/212/475
f 249/213/476 248/211/476 245/212/476
f 244/215/477 248/214/477 249/216/477
f 244/215/478 243/217/478 248/214/478
f 248/211/479 250/218/479 246/219/479
f 243/221/480 251/220/480 250/222/480
f 246/224/481 252/223/481 247/225/481
f 251/227/482 252/226/482 246/219/482
f 251/227/483 253/228/483 252/226/483
f 243/221/484 253/229/484 251/220/484
f 246/219/485 250/218/485 251/227/485
f 250/222/486 248/214/486 243/221/486
f 242/204/487 247/209/487 243/203/487
f 253/228/488 157/230/488 154/231/488
f 3/3/489 157/232/489 253/229/489
f 253/228/490 154/231/490 252/226/490
f 252/223/491 154/233/491 159/234/491
f 247/225/492 252/223/492 159/234/492
f 159/234/493 160/235/493 247/225/493
f 247/225/494 160/235/494 243/236/494
f 243/221/495 3/3/495 253/229/495
f 160/235/496 3/237/496 243/236/496
f 254/239/497 255/238/497 256/240/497
f 254/242/498 257/241/498 255/243/498
f 258/245/499 259/244/499 257/246/499
f 256/248/500 259/247/500 258/249/500
f 256/240/501 255/238/501 242/208/501
f 242/250/502 259/247/502 256/248/502
f 259/247/503 242/250/503 244/251/503
f 242/208/504 255/238/504 245/252/504
f 255/243/505 249/253/505 245/254/505
f 255/243/506 257/241/506 249/253/506
f 257/246/507 259/244/507 249/255/507
f 249/255/508 259/244/508 244/256/508
f 260/258/509 256/257/509 258/259/509
f 261/260/510 256/257/510 260/258/510
f 258/259/511 262/261/511 260/258/511
f 263/263/512 254/262/512 261/260/512
f 263/265/513 261/264/513 262/266/513
f 260/267/514 262/266/514 261/264/514
f 263/263/515 257/268/515 254/262/515
f 261/260/516 254/262/516 256/257/516
f 262/261/517 258/259/517 257/268/517
f 264/269/518 257/268/518 263/263/518
f 262/261/519 257/268/519 264/269/519
f 265/270/520 263/265/520 266/271/520
f 262/266/521 266/271/521 263/265/521
f 264/269/522 263/263/522 265/272/522
f 266/273/523 264/269/523 265/272/523
f 264/269/524 266/273/524 262/261/524
f 157/275/525 3/274/525 17/276/525

o 
usemtl axe.001
s off

v -3.297050 102.410057 36.102909
v -2.991240 95.216377 34.769409
v -4.695750 100.164497 44.230541
v -4.490480 97.520378 42.194290
v -4.756370 98.856056 45.923462
v -4.551110 96.211937 43.887211
v -3.801800 91.516129 50.198013
v -3.307140 88.398514 43.590698
v -3.697290 107.565697 40.073311
v -4.202050 96.671783 54.168411
v -4.191960 110.683319 46.680607
v -4.901020 102.808624 46.266800
v -4.961640 101.500175 47.959717
v -4.507860 103.865463 55.501900
v -2.537460 97.581665 42.311592
v -2.742720 100.225784 44.347847
v -2.598080 96.273224 44.004501
v -2.803340 98.917343 46.040760
v -2.947990 102.869904 46.384102
v -3.008620 101.561470 48.077030
v -2.442160 71.135170 21.874849
v -2.502780 69.826744 23.567770
v -0.549750 69.888016 23.685081
v -2.419920 71.907692 19.946409
v -4.387080 107.753143 51.459953
v -0.381660 42.318237 2.376660
v 1.469090 42.419899 2.399020
v 1.632080 43.687401 0.800680
v -0.321010 43.626972 0.683980

vt 0.033358 0.643728
vt 0.190411 0.923560
vt 0.402692 0.503812
vt 0.402692 0.647326
vt 0.408249 0.287497
vt 0.408249 0.367848
vt 0.492649 0.287497
vt 0.492649 0.367848
vt 0.403043 0.503812
vt 0.403044 0.647326
vt 0.033710 0.643728
vt 0.190763 0.923560
vt 0.033358 0.363896
vt 0.033710 0.363896
vt 0.190411 0.084064
vt 0.402692 0.360297
vt 0.408249 0.207147
vt 0.492649 0.207147
vt 0.403043 0.360297
vt 0.190763 0.084064
vt 0.408248 1.036942
vt 0.492649 1.036942
vt 0.483600 0.371280
vt 0.402049 0.371280
vt 0.402049 1.040375
vt 0.483600 1.040375
vt 0.450449 0.037941
vt 0.483600 0.210579
vt 0.402049 0.210579
vt 0.442825 0.041374
vt 0.000000 1.000000

vn -0.985002 -0.009942 -0.172258
vn -0.968970 0.099146 -0.226422
vn -0.997712 -0.031306 -0.059925
vn -0.993536 -0.106785 0.038508
vn -0.987561 -0.157238 0.000257
vn -0.986519 0.044656 -0.157434
vn -0.988324 0.095242 -0.118932
vn -0.980993 -0.160332 0.109304
vn -0.997216 -0.052255 0.053202
vn 0.980993 0.160331 -0.109304
vn 0.997216 0.052255 -0.053202
vn 0.997712 0.031305 0.059924
vn 0.988324 -0.095241 0.118931
vn 0.986520 -0.044656 0.157433
vn 0.993536 0.106786 -0.038508
vn 0.987561 0.157239 -0.000257
vn 0.985002 0.009942 0.172258
vn 0.968970 -0.099145 0.226421
vn 0.012013 -0.954316 0.298558
vn 0.058411 0.047140 -0.997179
vn -0.012017 0.954316 -0.298558
vn -0.058411 -0.047142 0.997179
vn 0.911270 0.272859 -0.308439
vn 0.024664 0.656712 -0.753738
vn -0.998094 -0.052443 -0.032516
vn -0.028320 -0.611281 0.790906
vn -0.996663 0.077868 0.024495
vn 0.979758 0.139885 0.143200
vn -0.037226 -0.485506 0.873441
vn 0.018777 0.723175 -0.690410
vn -0.002854 -0.611537 0.791211
vn -0.708473 0.360616 -0.606648
vn 0.959543 0.226268 -0.167572
vn -0.997737 -0.030963 -0.059677
vn 0.061121 -0.785092 -0.616356
vn 0.050812 -0.790974 -0.609736

f 267/277/526 268/278/526 269/279/526
f 270/280/527 269/279/527 268/278/527
f 269/281/528 270/282/528 271/283/528
f 272/284/528 271/283/528 270/282/528
f 271/285/529 272/286/529 273/287/529
f 274/288/530 273/287/530 272/286/530
f 275/289/531 267/277/531 269/279/531
f 273/287/529 276/290/529 271/285/529
f 277/291/532 275/289/532 278/292/532
f 269/279/531 278/292/531 275/289/531
f 278/293/528 269/281/528 279/294/528
f 271/283/528 279/294/528 269/281/528
f 279/295/533 271/285/533 280/296/533
f 276/290/534 280/296/534 271/285/534
f 281/280/535 268/278/535 282/279/535
f 267/277/536 282/279/536 268/278/536
f 283/284/537 281/282/537 284/283/537
f 282/281/537 284/283/537 281/282/537
f 274/288/538 283/286/538 273/287/538
f 284/285/539 273/287/539 283/286/539
f 282/279/540 267/277/540 275/289/540
f 273/287/539 284/285/539 276/290/539
f 282/279/540 275/289/540 285/292/540
f 277/291/541 285/292/541 275/289/541
f 284/283/537 282/281/537 286/294/537
f 285/293/537 286/294/537 282/281/537
f 276/290/542 284/285/542 280/296/542
f 286/295/543 280/296/543 284/285/543
f 270/280/544 268/278/544 281/280/544
f 283/286/545 274/288/545 272/286/545
f 279/295/546 280/296/546 286/295/546
f 285/292/547 277/291/547 278/292/547
f 272/284/528 270/282/528 287/297/528
f 287/297/528 288/298/528 272/284/528
f 281/282/537 283/284/537 289/298/537
f 289/298/548 290/297/548 281/282/548
f 270/299/549 281/300/549 290/301/549
f 290/301/550 287/302/550 270/299/550
f 283/300/551 272/299/551 288/302/551
f 288/302/551 289/301/551 283/300/551
f 278/293/552 279/294/552 291/303/552
f 286/294/553 285/293/553 291/303/553
f 279/304/554 286/305/554 291/306/554
f 285/305/555 278/304/555 291/306/555
f 289/298/556 288/297/556 292/298/556 293/307/556
f 287/297/557 290/298/557 294/297/557 295/307/557
f 290/297/558 289/298/558 293/297/558 294/307/558
f 288/298/559 287/297/559 295/298/559 292/307/559
f 294/297/560 293/298/560 295/297/560
f 292/298/561 295/297/561 293/298/561

