mtllib anim_barb_run_000035.mtl

o fat
usemtl fat.001
s off

v -0.174110 40.481758 -3.224770
v 1.860240 36.144421 6.136090
v 0.304880 41.211758 1.292290
v 0.410170 62.358742 -7.899910
v 9.153851 68.016808 -7.307840
v 2.812830 58.554848 -6.939790
v -0.362600 54.277058 -4.953550
v 8.025890 64.318916 -3.668240
v 7.715930 60.128670 -1.076300
v 6.919220 54.353340 -0.848420
v 4.142630 54.163990 -4.975850
v 6.440810 59.331860 -6.104920
v 9.012950 41.605942 4.307870
v 9.347190 40.190857 -1.497410
v 10.506320 39.875641 -1.687930
v 6.550270 43.421822 3.168600
v 3.993900 38.538731 7.078090
v 3.753700 34.873249 -1.708460
v 3.573360 38.479191 -4.182080
v 0.289260 38.740562 -2.890900
v -0.384230 38.875729 -3.605230
v 0.201120 68.011848 -7.609250
v 0.170300 70.004501 -7.646900
v 0.099060 61.307220 6.062550
v 5.133360 61.348419 3.964820
v 6.147750 65.533951 4.695270
v 8.959760 65.236633 2.227870
v 5.997940 68.336037 4.636880
v 11.324989 68.561569 0.299500
v 4.497020 54.421631 4.054050
v 1.102870 54.151150 5.311190
v 0.619500 68.243179 6.248150
v 4.722060 72.759117 -5.118290
v 10.917710 69.804070 -6.576650
v 11.618690 70.266968 -2.842520
v 2.842820 72.847816 3.649510
v 5.531700 73.972046 -0.776990
v 0.095770 72.027168 4.316250
v 2.663080 78.348145 0.711310
v 3.317750 75.975670 -2.533260
v 0.288250 76.118347 -3.418360
v 0.176280 79.002281 -0.532670
v 0.196050 74.049728 -5.227330
v 0.489180 49.824310 5.633000
v 5.364230 49.819141 5.032280
v 8.418850 49.467392 -0.145190
v 4.991180 48.873310 -5.333860
v -0.188040 48.787689 -6.038860
v 11.777500 66.981743 -0.213610
v 9.804190 66.197464 -7.686020
v 13.317800 67.218048 -2.855090
v 12.423310 68.371033 -6.028750
v 8.836570 64.449791 0.726510
v 2.581520 77.789162 6.199550
v 1.180830 76.274193 7.934610
v 2.827850 73.438789 4.790230
v 1.639600 72.370544 6.831620
v 0.698310 74.905602 7.879180
v 1.643460 78.244263 7.735360
v -0.144470 78.114479 8.001190
v 3.177320 79.123650 3.490160
v 0.535690 82.113258 8.120920
v -0.763210 82.063866 8.390600
v 1.701340 79.515518 8.359070
v 2.256590 81.376068 7.338540
v 1.223440 83.454773 5.412950
v -0.414440 83.449928 5.217910
v 0.269850 76.280670 8.458670
v -0.765430 78.860481 8.287930
v -0.900690 76.835754 9.461270
v -0.835060 76.251747 8.831690
v -0.843340 74.669319 8.847480
v 0.535200 71.907219 8.418270
v -0.861440 71.881737 8.907760
v 3.025130 81.461601 3.517960
v 2.543030 82.702980 2.955930
v -0.045170 82.950935 1.783130
v 13.583330 64.697762 -1.000040
v 14.086141 65.297928 -4.656720
v 9.008270 58.937630 -4.706520
v 10.663969 59.427399 -0.430430
v 10.521601 63.711288 -7.589680
v 11.556530 54.759460 -4.691560
v 12.989750 51.568123 -1.022350
v 11.237400 53.264290 -2.729140
v 14.582359 54.586632 -6.532280
v 15.856709 56.512371 -4.528920
v 14.588619 53.581001 -0.263450
v 15.442220 55.919117 -2.458140
v 13.575320 55.489128 0.079630
v 13.448481 53.963409 -1.886440
v 11.014771 55.607491 -0.792920
v 13.522461 57.390251 -6.637600
v 14.084410 56.165180 -6.671500
v 15.192320 61.795212 -4.662720
v 14.457100 61.258667 -1.265380
v 12.749061 55.663620 -1.585120
v 12.593121 59.874340 -7.637410
v 8.894310 50.348011 4.766410
v 7.413110 51.440922 4.313440
v 9.841900 51.239239 5.627770
v 9.141610 52.987808 5.785940
v 7.688990 53.381470 5.091390
v 4.310200 54.210884 8.970770
v 4.188620 53.304920 8.853780
v 5.347540 52.933613 8.360559
v 6.123290 53.509987 8.351170
v 6.656410 52.567749 9.656390
v 4.925320 53.952042 6.586690
v 5.459540 54.109589 7.867790
v 3.480150 54.077869 8.260930
v 3.314020 53.843578 9.990250
v 2.763330 53.707352 9.366760
v 5.204840 51.922241 11.227020
v 6.855310 48.106850 7.692890
v 5.921080 47.518532 9.326110
v 4.465150 47.245960 11.847000
v 4.466080 52.244629 10.218960
v 6.635830 48.023182 9.915210
v 7.837820 48.604908 8.492020
v 3.043180 51.161041 12.857580
v 1.838160 35.482971 10.639200
v 4.143320 29.574739 5.527380
v 1.675980 29.211281 12.499360
v 7.653820 34.551991 10.369420
v 9.009210 28.799341 10.217590
v 3.953850 32.238819 8.320840
v 5.648100 34.495361 13.938890
v 5.720120 29.685299 15.269190
v 5.839870 36.869820 12.939169
v 6.285610 37.947380 10.267449
v 8.976880 34.844910 6.458470
v 6.879460 41.948662 7.219610
v 6.708370 18.170000 7.226560
v 7.534380 15.240580 7.076120
v 4.729390 16.575890 4.697730
v 5.117240 16.006660 9.764910
v 3.113070 18.023149 7.811800
v 2.505580 14.971700 6.962350
v 3.474580 11.770210 3.540800
v 6.714360 11.974699 3.594010
v 2.611130 10.525089 11.765260
v 8.788580 10.887860 12.025539
v 5.171640 12.172720 15.635851
v 7.541820 10.250770 15.955520
v 3.497150 9.926769 16.407339
v -9.449550 68.224014 -6.102850
v -1.885760 58.528179 -7.114320
v -5.922190 64.946022 -2.477320
v -7.308210 60.042473 -1.135550
v -4.956670 54.259674 -3.359800
v -6.374790 54.147373 1.356620
v -5.734790 59.261650 -6.402280
v -8.991990 40.103310 0.025910
v -7.148730 40.488037 5.275580
v -10.217430 39.734081 -0.305780
v -4.570860 39.424061 4.033330
v -4.896340 40.247131 -6.105750
v -4.569840 41.268700 -4.834020
v -1.062380 41.044350 -4.127830
v -4.857020 61.290161 3.942680
v -5.217590 65.459763 5.336690
v -10.225760 65.072266 3.487210
v -4.921200 68.261406 5.414100
v -10.290441 69.423561 2.678710
v -2.454760 54.034351 5.400980
v -11.326719 69.470482 -4.937400
v -5.044250 72.720024 -4.573310
v -11.543460 70.476158 -0.356260
v -2.646720 72.826492 3.590290
v -5.912520 74.059319 -0.550850
v -2.505460 78.361366 0.219640
v -2.808750 75.978706 -2.843270
v -3.837170 49.414879 5.886680
v -8.017460 48.939663 1.615490
v -5.667470 48.924717 -3.577560
v -11.530910 67.223038 1.897480
v -9.484350 65.234398 -5.996190
v -13.187551 68.149391 -0.538070
v -12.538019 66.637520 -3.816930
v -9.764420 65.047615 2.160310
v -2.612380 76.289963 7.524510
v -3.597380 77.814842 5.531530
v -3.262650 73.464012 4.356100
v -2.856860 72.389252 6.345480
v -2.140420 74.917404 7.572280
v -1.316860 78.119347 7.874460
v -3.005530 78.263580 7.232720
v -3.589360 79.151779 2.758580
v -1.974020 82.123680 7.849570
v -3.184930 79.535828 7.830791
v -3.493930 81.399986 6.716820
v -2.056070 83.468399 5.058410
v -1.834430 76.289421 8.231160
v -2.120930 71.918259 8.131090
v -3.427430 81.488411 2.820370
v -2.826160 82.725288 2.375430
v -12.752891 64.710663 1.330160
v -13.758250 64.625038 -2.302390
v -9.292810 59.941082 2.339440
v -8.741449 59.256157 -2.075450
v -10.341930 62.944412 -5.403150
v -12.125530 50.392517 2.053120
v -9.920420 54.409401 -0.877580
v -10.264091 52.496918 0.377450
v -13.005541 53.710079 -2.506760
v -14.327940 55.874527 -0.761450
v -12.561240 52.560699 3.941730
v -13.795090 55.614391 1.351810
v -10.546670 54.806389 4.266200
v -8.163580 54.820663 2.689970
v -11.626060 53.958733 2.098370
v -12.230890 56.545547 -3.185650
v -12.618111 55.334419 -2.916340
v -14.363641 61.036392 -1.808880
v -13.334850 61.174477 1.566660
v -10.744830 56.626457 1.571250
v -11.707150 58.924519 -4.648790
v -7.950590 47.770039 7.224190
v -6.227610 48.348312 6.556460
v -8.461850 48.513569 8.182950
v -7.298580 50.039948 8.438169
v -5.923890 50.159431 7.587900
v -2.135640 48.582191 10.720039
v -2.024000 49.561760 11.008471
v -3.372920 48.587681 10.365029
v -4.015560 49.425018 10.577630
v -4.628960 48.468079 11.840440
v -3.273940 49.903061 10.072280
v -2.928380 49.763733 8.701059
v -1.315080 49.204948 10.101980
v -1.053820 48.821278 11.831059
v -0.629800 48.642010 11.125000
v -3.235350 47.271873 13.110419
v -5.508930 43.571518 10.910471
v -6.406310 44.643230 9.531780
v -3.903900 42.502781 13.102990
v -2.537850 47.427322 11.981540
v -5.776220 44.070877 11.602160
v -6.929850 45.122601 10.436701
v -1.197190 45.673950 14.263610
v -3.735410 24.629230 -14.951320
v -1.085110 28.901031 -6.237000
v -1.034940 22.134521 -11.070971
v -8.463260 22.809170 -12.000070
v -7.024010 29.275801 -7.333420
v -3.661850 31.461161 -9.185440
v -4.848050 25.680029 -5.167310
v -4.841110 20.423729 -8.337020
v -4.811740 26.685459 -4.232000
v -4.648930 29.269421 -3.167500
v -8.562030 32.458641 -5.561840
v -4.805430 31.921940 1.039010
v -7.174120 10.306240 -17.400410
v -6.273860 13.202480 -16.606449
v -4.553210 12.586870 -18.761021
v -4.855060 10.201210 -14.789770
v -2.203650 10.227520 -17.437269
v -2.677960 12.875871 -16.156620
v -3.109810 8.992280 -21.859770
v -6.206400 9.039650 -21.834568
v -2.328190 4.246750 -15.465719
v -8.181351 3.850750 -15.613660
v -3.977020 2.306470 -12.580021
v -6.249940 0.456060 -13.487600
v -2.173000 0.259300 -13.579021

vt 0.550479 0.485338
vt 0.414517 0.485338
vt 0.489174 0.497239
vt 0.490853 0.675485
vt 0.356970 0.710738
vt 0.458986 0.602657
vt 0.458693 0.603155
vt 0.491001 0.506534
vt 0.357039 0.710738
vt 0.272881 0.708251
vt 0.307767 0.663467
vt 0.329118 0.504113
vt 0.420682 0.504388
vt 0.307693 0.663467
vt 0.420389 0.504181
vt 0.390374 0.619683
vt 0.389206 0.622726
vt 0.390855 0.620128
vt 0.309151 0.663075
vt 0.578845 0.971377
vt 0.529882 0.993867
vt 0.501054 0.950636
vt 0.597833 0.993868
vt 0.684209 0.993870
vt 0.691613 0.940228
vt 0.584242 0.936155
vt 0.602549 0.993867
vt 0.689094 0.993870
vt 0.694409 0.971380
vt 0.730001 0.975635
vt 0.490853 0.781888
vt 0.490853 0.820915
vt 0.240556 0.660920
vt 0.133663 0.660928
vt 0.131880 0.753091
vt 0.060606 0.782384
vt 0.055577 0.663688
vt 0.136145 0.808744
vt 0.060014 0.783494
vt 0.058190 0.859642
vt 0.160773 0.512959
vt 0.067037 0.515196
vt 0.240700 0.512959
vt 0.131877 0.752996
vt 0.240556 0.781375
vt 0.390182 0.870896
vt 0.298691 0.847983
vt 0.294173 0.886121
vt 0.181129 0.899551
vt 0.052544 0.886601
vt 0.145152 0.921474
vt 0.235241 0.891030
vt 0.142740 0.921054
vt 0.172936 0.966074
vt 0.456563 0.999059
vt 0.389917 0.922986
vt 0.429989 0.941889
vt 0.491140 0.942697
vt 0.490646 0.999330
vt 0.490853 0.898039
vt 0.701416 0.118225
vt 0.813217 0.120956
vt 0.790107 0.184348
vt 0.877923 0.002315
vt 0.872775 0.120438
vt 0.505869 0.118716
vt 0.564263 0.119120
vt 0.507564 0.183764
vt 0.697589 0.180917
vt 0.580429 0.182675
vt 0.710756 0.001536
vt 0.701372 0.182427
vt 0.812168 0.002315
vt 0.857243 0.184348
vt 0.697567 0.116528
vt 0.503935 0.000692
vt 0.561277 0.000692
vt 0.688827 -0.000098
vt 0.002866 0.854679
vt 0.027518 0.706813
vt 0.061197 0.782654
vt 0.055608 0.663958
vt 0.251604 0.781884
vt 0.357109 0.710738
vt 0.243886 0.876138
vt 0.247300 0.848527
vt -0.000514 0.880403
vt 0.006948 0.782948
vt 0.674684 0.829607
vt 0.705811 0.784366
vt 0.654033 0.662928
vt 0.703232 0.671848
vt 0.720473 0.730776
vt 0.697736 0.853617
vt 0.729837 0.853035
vt 0.623758 0.856571
vt 0.587609 0.811448
vt 0.658187 0.605708
vt 0.748523 0.593788
vt 0.716351 0.931575
vt 0.747491 0.935506
vt 0.695349 0.885675
vt 0.676247 0.904603
vt 0.649719 0.961956
vt 0.745560 1.001324
vt 0.725611 0.781438
vt 0.747491 0.878462
vt 0.747491 0.808438
vt 0.720379 0.731031
vt 0.747491 0.790807
vt 0.720762 0.730332
vt 0.748639 0.732530
vt 0.746944 0.628012
vt 0.703659 0.671442
vt 0.731857 0.666086
vt 0.747085 0.666819
vt 0.703186 0.671176
vt 0.611291 0.885598
vt 0.604148 0.909350
vt 0.550618 0.823662
vt 0.550618 0.934468
vt 0.625864 0.557513
vt 0.571978 0.557920
vt 0.578607 0.510287
vt 0.669444 0.510287
vt 0.756032 0.560223
vt 0.679695 0.557918
vt 0.877240 0.461159
vt 0.992418 0.461159
vt 0.944262 0.560223
vt 0.756457 0.510287
vt 0.806202 0.560223
vt 0.498275 0.560223
vt 0.875566 0.382888
vt 0.758260 0.308662
vt 0.875912 0.308662
vt 0.759996 0.360654
vt 0.669163 0.382888
vt 0.671223 0.308662
vt 0.584325 0.382888
vt 0.577057 0.308662
vt 0.498223 0.363687
vt 0.498247 0.308662
vt 0.992597 0.308662
vt 0.992439 0.363687
vt 0.759483 0.410364
vt 0.758924 0.382888
vt 0.665903 0.461159
vt 0.580075 0.461159
vt 0.498223 0.402657
vt 0.992438 0.402657
vt 0.760539 0.449273
vt 0.498220 0.461159
vt 0.875438 0.575163
vt 0.762705 0.196431
vt 0.858161 0.196355
vt 0.690657 0.196417
vt 0.588027 0.196417
vt 0.498144 0.196431
vt 0.991918 0.196431
vt 0.375723 0.009258
vt 0.380090 0.017573
vt 0.356438 0.030356
vt 0.342839 0.029458
vt 0.369327 0.043627
vt 0.316032 0.012201
vt 0.336848 0.019568
vt 0.249292 0.041099
vt 0.371147 0.002582
vt 0.416197 0.004791
vt 0.408124 0.000758
vt 0.128136 0.016613
vt 0.154876 0.002573
vt 0.119423 0.002194
vt 0.160447 0.001473
vt 0.065726 0.014292
vt 0.105093 0.028910
vt 0.000825 0.069213
vt 0.000703 0.039244
vt 0.249314 0.055441
vt 0.429228 0.045736
vt 0.102506 0.115410
vt 0.153549 0.117195
vt 0.189513 0.114692
vt 0.228429 0.109580
vt 0.194639 0.033982
vt 0.406548 0.108121
vt 0.355355 0.108206
vt 0.448349 0.035630
vt 0.498209 0.039288
vt 0.461840 0.047992
vt 0.483032 0.114221
vt 0.406174 0.120334
vt 0.355217 0.119080
vt 0.243215 0.037501
vt 0.249314 0.089732
vt 0.000703 0.095058
vt 0.249292 0.105039
vt 0.160984 0.032072
vt 0.413806 0.033644
vt 0.442212 0.108407
vt 0.443088 0.117732
vt 0.023914 0.327327
vt 0.104127 0.227894
vt 0.000784 0.227894
vt 0.216171 0.327327
vt 0.216985 0.228421
vt 0.105699 0.228145
vt 0.104981 0.327662
vt 0.217575 0.327327
vt 0.351490 0.301452
vt 0.217290 0.227894
vt 0.351571 0.227894
vt 0.352420 0.301452
vt 0.489174 0.227894
vt 0.352342 0.227894
vt 0.471690 0.333380
vt 0.351597 0.328057
vt 0.217345 0.328075
vt 0.352312 0.363299
vt 0.470864 0.334174
vt 0.352330 0.328057
vt 0.216660 0.380224
vt 0.216104 0.328075
vt 0.104983 0.328371
vt 0.217232 0.380224
vt 0.351611 0.363299
vt 0.351459 0.420971
vt 0.352499 0.420971
vt 0.351589 0.497239
vt 0.229465 0.497239
vt 0.352627 0.497239
vt 0.229583 0.497239
vt 0.133020 0.497239
vt 0.072972 0.497239
vt 0.025422 0.328212
vt 0.002386 0.497239
vt 0.216130 0.152222
vt 0.223982 0.125749
vt 0.105883 0.155747
vt 0.351732 0.147623
vt 0.223132 0.128232
vt 0.218721 0.149411
vt 0.469070 0.149411
vt 0.483427 0.127273
vt 0.352306 0.146326
vt 0.017963 0.152222
vt 0.104256 0.155747
vt 0.009616 0.131504
vt 0.104128 0.227914
vt 0.000790 0.227921
vt 0.216984 0.228396
vt 0.351571 0.227971
vt 0.217291 0.227882
vt 0.352342 0.227879
vt 0.489111 0.227891
vt 0.948232 0.041698
vt 0.989968 0.003451
vt 0.971575 0.059997
vt 0.909211 0.004273
vt 0.996004 0.120663
vt 0.925604 0.058708
vt 0.885225 0.122889
vt 0.516483 0.798440
vt 0.501430 0.685191
vt 0.597947 0.686709
vt 0.594444 0.793024
vt 0.950876 0.082499
vt 0.943924 0.157220
vt 0.507177 0.624822
vt 0.600053 0.622523
vt 0.901715 0.182549
vt 0.982420 0.184037
vt 0.730212 0.975635
vt 0.685579 0.991654
vt 0.692830 0.969164

vn -0.975954 -0.173786 0.131575
vn 0.160132 -0.145291 -0.976344
vn -0.144064 -0.326759 -0.934063
vn 0.816587 0.258759 0.515974
vn 0.824945 -0.135454 -0.548742
vn -0.014849 -0.411997 -0.911064
vn 0.277163 -0.321106 -0.905578
vn 0.930280 -0.316335 -0.185770
vn 0.262098 -0.212266 -0.941408
vn 0.889119 -0.429775 -0.157357
vn -0.222414 -0.950087 0.218784
vn -0.630637 -0.761576 0.149330
vn -0.073443 -0.599589 -0.796931
vn 0.117008 -0.161967 0.979835
vn -0.482864 0.478815 0.733197
vn -0.691786 -0.446104 0.567824
vn 0.344379 0.542729 0.766060
vn -0.581151 -0.699717 0.415524
vn 0.033653 -0.018361 -0.999265
vn 0.374460 -0.246738 0.893812
vn 0.721093 -0.491480 0.488335
vn 0.631379 0.000615 0.775474
vn 0.384689 -0.023453 0.922748
vn 0.893499 -0.076382 0.442523
vn 0.350344 -0.049062 0.935335
vn 0.249831 -0.044628 0.967260
vn -0.025082 0.399635 -0.916331
vn 0.033572 0.052558 -0.998053
vn 0.616774 -0.277996 0.736415
vn 0.387338 0.903250 -0.184683
vn 0.286241 0.035256 0.957509
vn 0.147814 0.525095 -0.838109
vn 0.661729 0.050965 0.748009
vn 0.527416 0.516460 0.674612
vn 0.571341 0.697741 0.432120
vn 0.246265 0.467529 0.848982
vn 0.138311 0.303064 0.942880
vn 0.771912 0.318980 0.549912
vn 0.756646 0.591062 -0.279522
vn 0.473194 0.632235 -0.613487
vn 0.199375 0.809747 -0.551869
vn 0.539717 0.677362 0.499886
vn 0.412888 0.854319 -0.315694
vn 0.760238 0.574959 -0.302422
vn 0.207232 0.666214 -0.716389
vn 0.244594 0.632085 -0.735283
vn 0.164563 0.505545 -0.846961
vn 0.119320 0.227874 0.966352
vn 0.859517 0.106661 0.499854
vn 0.813268 0.169495 -0.556657
vn -0.003257 0.066994 -0.997748
vn 0.120836 0.162911 0.979213
vn 0.345799 0.020724 0.938080
vn 0.911678 0.395042 0.113067
vn 0.825278 0.320247 0.465144
vn 0.868515 0.254100 0.425575
vn 0.814314 0.168196 -0.555520
vn 0.129068 0.196284 -0.972016
vn 0.791407 0.261133 -0.552707
vn 0.197005 -0.262057 -0.944730
vn 0.134467 -0.259532 -0.956327
vn 0.205785 -0.237180 -0.949420
vn 0.427500 0.110784 0.897201
vn 0.956871 0.208302 0.202504
vn 0.979381 -0.153610 -0.131212
vn 0.143332 0.250271 -0.957507
vn 0.670950 -0.048145 0.739938
vn 0.871308 0.485851 -0.069070
vn 0.765159 0.424416 0.484152
vn 0.448538 0.133356 -0.883759
vn 0.713273 0.666600 -0.216532
vn -0.855181 -0.206900 -0.475246
vn -0.962577 -0.199430 0.183500
vn 0.675731 -0.674262 0.297924
vn 0.824366 -0.131669 0.550531
vn 0.449120 -0.193670 0.872229
vn 0.142010 0.066540 0.987626
vn 0.977846 -0.012326 0.208960
vn 0.984435 -0.056694 -0.166353
vn 0.997832 -0.052166 0.040124
vn 0.352961 -0.828871 0.434040
vn 0.193735 0.175422 0.965243
vn 0.911170 -0.047426 0.409292
vn 0.974673 0.017497 0.222951
vn -0.054129 0.900158 0.432187
vn 0.475326 0.312559 0.822418
vn 0.684976 0.318255 0.655380
vn 0.699334 0.322849 0.637731
vn 0.486843 -0.206023 0.848845
vn 0.313347 -0.284216 0.906110
vn 0.049234 0.913260 0.404390
vn -0.020318 -0.032014 0.999281
vn 0.245442 -0.697829 0.672899
vn 0.531248 0.005677 0.847197
vn 0.475702 -0.862171 -0.174268
vn 0.871700 -0.035653 0.488742
vn 0.007700 -0.999519 -0.030053
vn 0.513966 0.124631 0.848708
vn 0.810867 0.060543 0.582091
vn 0.310372 -0.948656 -0.060990
vn 0.330398 0.018259 0.943665
vn 0.977702 0.066016 -0.199352
vn 0.917814 0.201591 -0.342022
vn 0.767695 -0.310090 0.560793
vn 0.163228 -0.440540 0.882769
vn 0.826306 -0.138832 0.545843
vn 0.056783 -0.316669 0.946835
vn 0.520859 0.704895 0.481486
vn 0.978250 0.061325 0.198155
vn 0.884046 0.428178 0.187418
vn 0.769131 0.595992 0.230716
vn 0.497934 0.298089 0.814374
vn 0.492026 0.409538 -0.768238
vn 0.399781 0.480285 -0.780706
vn 0.151110 0.980430 -0.126184
vn 0.030215 0.960227 -0.277580
vn 0.875121 -0.102058 0.473019
vn 0.760326 0.435089 0.482289
vn 0.568254 -0.058950 -0.820739
vn 0.892278 0.442258 -0.090818
vn -0.841985 -0.391794 0.370891
vn 0.959500 0.225432 0.168936
vn 0.591277 0.139840 -0.794252
vn -0.832496 -0.259199 -0.489658
vn 0.343733 -0.051094 0.937676
vn -0.150968 -0.774327 -0.614513
vn -0.364016 -0.768494 -0.526221
vn 0.851866 -0.522240 -0.039873
vn 0.801358 -0.576883 -0.158214
vn 0.964111 -0.233679 0.126032
vn 0.747079 0.289108 0.598573
vn 0.241135 0.759116 -0.604646
vn -0.695549 0.588659 -0.411937
vn 0.088858 0.639469 -0.763665
vn -0.428853 0.750837 0.502323
vn -0.457432 -0.282008 -0.843343
vn -0.523985 -0.217573 -0.823469
vn 0.697734 0.337541 -0.631849
vn 0.682661 0.067426 -0.727618
vn 0.965097 0.127174 0.228941
vn 0.965021 0.126780 0.229480
vn 0.311558 -0.040094 0.949381
vn -0.765987 -0.534106 0.357764
vn -0.846130 -0.052124 -0.530422
vn -0.478746 -0.476023 -0.737702
vn 0.748687 0.013332 -0.662790
vn 0.574835 0.182901 -0.797566
vn 0.938499 0.296079 0.177644
vn 0.945235 0.221673 0.239566
vn 0.344583 -0.089879 0.934443
vn 0.223415 -0.018427 0.974549
vn -0.960199 -0.210674 0.183397
vn 0.743915 0.177851 -0.644173
vn -0.514919 -0.235132 -0.824361
vn -0.806480 -0.407662 0.428253
vn 0.317745 -0.150497 0.936156
vn -0.770588 -0.468433 0.432163
vn 0.276297 -0.138693 0.951012
vn 0.594773 0.330229 -0.732936
vn -0.558528 -0.291883 -0.776435
vn -0.441223 -0.781097 -0.441826
vn -0.370519 -0.820613 -0.435098
vn 0.553199 -0.802882 0.222151
vn 0.691126 -0.660008 0.294506
vn 0.701778 0.252931 0.665983
vn 0.717901 0.228014 0.657745
vn 0.040444 0.903191 0.427330
vn -0.065518 0.944994 0.320458
vn -0.880427 0.249531 -0.403214
vn -0.871506 0.284129 -0.399685
vn 0.340910 -0.165261 0.925456
vn -0.455325 0.623188 0.635858
vn 0.111823 0.979578 -0.167104
vn -0.054722 0.991055 -0.121720
vn -0.021209 0.993332 -0.113321
vn -0.245806 0.963406 0.106906
vn -0.338416 0.936256 0.094331
vn 0.684885 0.225157 0.692992
vn 0.735298 -0.182952 0.652584
vn -0.399243 -0.759669 -0.513330
vn -0.144141 -0.932532 0.331069
vn -0.513539 -0.766512 -0.385665
vn -0.423330 -0.825538 -0.373200
vn -0.772137 -0.612831 -0.168055
vn -0.374455 0.390405 -0.841052
vn 0.275220 0.960882 -0.030992
vn -0.062664 0.942145 0.329297
vn -0.823518 -0.182969 -0.536974
vn -0.846282 -0.164836 -0.506592
vn 0.726548 0.035789 0.686183
vn 0.756702 0.033757 0.652888
vn -0.066782 0.935111 0.348006
vn 0.599638 0.011239 0.800192
vn 0.563046 -0.826062 0.024505
vn 0.445452 -0.895247 0.010287
vn -0.836698 -0.169461 -0.520787
vn 0.796598 0.270110 0.540807
vn -0.898639 -0.228951 -0.374204
vn -0.274629 -0.661451 -0.697898
vn 0.731325 -0.673470 -0.107711
vn -0.281780 0.393514 0.875069
vn 0.792275 0.057718 0.607428
vn 0.572005 -0.793200 -0.208908
vn 0.457116 0.807159 0.373550
vn 0.465290 0.796924 0.385251
vn -0.862571 -0.175941 -0.474358
vn -0.039772 0.942897 0.330702
vn 0.666083 -0.006476 0.745849
vn 0.466882 -0.866641 0.175940
vn -0.938779 -0.075428 -0.336161
vn 0.697252 0.182576 -0.693185
vn -0.067394 0.719734 -0.690971
vn 0.854859 0.188658 0.483347
vn 0.840035 0.156265 0.519541
vn -0.569052 0.211267 0.794699
vn -0.598623 0.241965 0.763612
vn 0.862854 0.135350 0.486994
vn -0.449601 0.851895 0.268576
vn 0.487143 -0.867599 0.099818
vn 0.874429 0.362061 0.322932
vn 0.870848 0.209475 0.444685
vn -0.274707 0.608106 0.744811
vn 0.883297 0.364780 0.294486
vn -0.555562 0.360357 0.749328
vn 0.362245 0.686665 -0.630293
vn 0.833662 0.537320 0.127652
vn -0.403061 0.849062 0.341519
vn 0.942589 0.255227 0.215373
vn 0.447950 -0.751600 -0.484188
vn 0.282169 -0.854928 -0.435292
vn -0.237664 -0.871978 -0.427983
vn -0.847133 -0.530491 -0.030747
vn -0.531060 0.680842 0.504410
vn -0.987956 -0.131580 0.081419
vn 0.690759 0.229976 -0.685539
vn 0.756476 0.181028 0.628469
vn -0.721720 -0.048532 0.690482
vn -0.778700 0.307296 -0.546988
vn 0.761650 0.075417 -0.643585
vn -0.889588 -0.010963 -0.456632
vn -0.942850 0.018293 -0.332715
vn 0.697254 0.050285 -0.715058
vn 0.766482 -0.322248 0.555573
vn 0.897585 -0.198046 0.393852
vn -0.780604 -0.203413 0.590999
vn -0.488843 -0.389781 0.780450
vn -0.779852 0.331461 -0.531003
vn 0.001213 0.233755 -0.972295
vn -0.978828 -0.160474 -0.127058
vn 0.971289 0.009572 -0.237710
vn 0.064028 -0.987641 -0.143060
vn 0.064683 -0.987646 -0.142731
vn 0.650919 0.644218 0.401606
vn 0.693632 0.436660 -0.572890
vn -0.716892 0.503670 0.482060
vn 0.642747 0.644135 0.414689
vn -0.808730 0.489012 0.326837
vn 0.063510 -0.988108 -0.140034
vn 0.063910 -0.988149 -0.139561
vn 0.574565 0.759356 0.305376
vn 0.085976 0.265733 0.960205
vn -0.743203 0.630755 0.223151
vn 0.421049 -0.690919 -0.587664
vn -0.218337 -0.068776 -0.973447
vn 0.282480 -0.352298 -0.892239
vn -0.488160 0.356022 0.796836
vn -0.921461 -0.265706 -0.283390
vn -0.279651 -0.512771 -0.811703
vn -0.250928 -0.531241 -0.809208
vn -0.904569 -0.367723 -0.215720
vn -0.190192 -0.046067 -0.980666
vn -0.928611 -0.287293 -0.234827
vn 0.296821 -0.954318 -0.034281
vn -0.302459 -0.936984 0.174868
vn -0.215011 -0.916093 0.338443
vn 0.249496 -0.957581 0.144191
vn 0.612820 -0.685420 0.393257
vn -0.468270 0.065902 0.881124
vn -0.177208 -0.744564 0.643601
vn -0.940670 -0.235226 0.244556
vn -0.154643 -0.021056 -0.987746
vn -0.371228 -0.323135 0.870502
vn -0.542286 -0.717040 0.437926
vn -0.420452 0.159703 0.893149
vn -0.392841 0.054439 0.917994
vn -0.715961 -0.098120 0.691211
vn 0.028397 -0.100439 0.994538
vn -0.147074 -0.015429 0.989005
vn -0.203137 0.487854 -0.848960
vn -0.153101 0.045096 -0.987181
vn -0.305281 -0.325581 0.894875
vn -0.439198 0.872919 -0.212409
vn -0.148882 -0.011567 0.988787
vn -0.227184 0.505728 -0.832242
vn -0.347142 0.010817 0.937750
vn -0.312414 0.482558 0.818251
vn -0.466648 0.758079 0.455583
vn -0.132552 0.436085 0.890090
vn -0.116638 0.418038 0.900910
vn -0.655475 0.404941 0.637477
vn -0.678829 0.610644 -0.407806
vn -0.345051 0.657154 -0.670141
vn -0.146617 0.787757 -0.598283
vn -0.396101 0.746517 0.534618
vn -0.508047 0.778367 -0.368827
vn -0.668598 0.650222 -0.360816
vn -0.244179 0.580074 -0.777104
vn -0.166602 0.653279 -0.738560
vn -0.231128 0.500499 -0.834314
vn 0.049840 0.089673 0.994723
vn -0.715854 0.025444 0.697786
vn -0.879998 0.257745 -0.398962
vn -0.326926 0.081988 -0.941487
vn 0.044696 0.140528 0.989067
vn 0.022839 0.070929 0.997220
vn -0.855115 0.287694 0.431289
vn -0.705039 0.255278 0.661629
vn -0.686273 0.276123 0.672893
vn -0.949385 0.138009 -0.282173
vn -0.400658 0.165432 -0.901169
vn -0.871394 0.290721 -0.395163
vn -0.736421 0.128096 -0.664286
vn -0.394610 0.224521 -0.890995
vn 0.419336 -0.224286 -0.879689
vn -0.161020 -0.007828 0.986920
vn -0.835845 0.310441 0.452758
vn -0.808353 0.068494 -0.584699
vn -0.538662 -0.023775 -0.842186
vn -0.677549 0.124610 0.724844
vn -0.733934 0.549759 -0.398881
vn -0.666377 0.422872 0.614101
vn -0.598066 -0.060363 -0.799170
vn -0.929119 0.349532 -0.120691
vn 0.700999 -0.033572 -0.712372
vn -0.006903 -0.999845 0.016183
vn -0.737970 -0.628831 -0.244892
vn -0.928242 -0.161893 0.334900
vn -0.626742 -0.189199 0.755909
vn -0.349277 0.068585 0.934506
vn -0.997117 -0.067184 -0.035275
vn -0.923524 -0.182022 -0.337597
vn -0.836638 -0.192131 -0.512955
vn -0.353968 -0.838825 0.413617
vn -0.394118 0.177876 0.901682
vn -0.977951 -0.039573 0.205049
vn -0.999624 0.025703 0.009502
vn -0.032093 0.900064 0.434575
vn -0.637534 0.317177 0.702104
vn -0.806572 0.324449 0.494140
vn -0.816797 0.329149 0.473819
vn -0.658689 -0.201260 0.724998
vn -0.502094 -0.280822 0.817949
vn -0.127029 0.913992 0.385333
vn -0.193988 -0.031292 0.980505
vn -0.389317 -0.695187 0.604274
vn -0.699976 0.010792 0.714085
vn -0.367184 -0.847622 -0.383030
vn -0.979733 0.000861 0.200306
vn -0.008382 -0.999407 -0.033402
vn -0.682440 0.129599 0.719361
vn -0.916013 0.067717 0.395391
vn -0.227494 -0.960609 -0.159615
vn -0.524298 0.021811 0.851256
vn -0.908679 0.073839 -0.410913
vn -0.818595 0.204912 -0.536576
vn -0.872331 -0.303279 0.383485
vn -0.351757 -0.438405 0.827084
vn -0.924985 -0.131552 0.356506
vn -0.260432 -0.315330 0.912547
vn -0.605914 0.709579 0.359673
vn -0.997460 0.069535 -0.015446
vn -0.900126 0.435594 -0.005477
vn -0.795747 0.602496 0.061528
vn -0.658012 0.302898 0.689400
vn -0.334682 0.397480 -0.854399
vn -0.219667 0.484341 -0.846853
vn -0.112591 0.981526 -0.154694
vn 0.037694 0.960197 -0.276768
vn -0.903515 0.037420 0.426920
vn -0.760563 0.233087 0.605982
vn -0.626514 -0.189156 -0.756109
vn -0.897670 0.304720 -0.318330
vn 0.989494 0.095200 0.108807
vn -0.963657 0.022799 0.266169
vn -0.657215 0.051390 -0.751949
vn 0.625170 -0.406645 -0.666185
vn -0.256830 -0.092322 0.962037
vn -0.166453 -0.519913 -0.837845
vn 0.458564 -0.674161 -0.578987
vn -0.891383 -0.430663 -0.141303
vn -0.941491 -0.308139 0.136550
vn -0.955122 -0.202844 0.215861
vn -0.557359 0.394436 0.730597
vn -0.187689 0.942879 -0.275229
vn 0.621475 0.573528 -0.533699
vn -0.067078 0.733615 -0.676247
vn 0.840663 0.183338 0.509581
vn 0.504288 -0.320814 -0.801731
vn 0.491883 -0.335886 -0.803263
vn -0.766256 0.103993 -0.634064
vn -0.729109 -0.140941 -0.669728
vn -0.955853 0.052073 0.289193
vn -0.965180 0.070157 0.252003
vn -0.148210 0.238593 0.959743
vn 0.885725 -0.429066 0.177182
vn 0.622689 -0.357688 -0.695929
vn 0.594893 -0.512046 -0.619606
vn -0.783695 -0.190984 -0.591056
vn -0.669152 0.010701 -0.743048
vn -0.946431 0.195048 0.257342
vn -0.943913 0.174106 0.280562
vn -0.268580 0.008985 0.963216
vn -0.159822 0.092036 0.982846
vn 0.726878 -0.317134 0.609159
vn -0.779596 0.028188 -0.625648
vn 0.498137 -0.321832 -0.805161
vn 0.863589 -0.193253 0.465691
vn -0.060644 -0.033528 0.997596
vn 0.903810 -0.118204 0.411286
vn -0.223295 -0.126186 0.966549
vn -0.688835 0.099182 -0.718101
vn 0.636744 -0.345598 -0.689289
vn 0.048999 -0.814126 -0.578617
vn 0.288649 -0.739529 -0.608094
vn -0.678955 -0.709627 0.188281
vn -0.815582 -0.464482 0.345083
vn -0.499458 0.332465 0.800006
vn -0.559109 0.296645 0.774208
vn 0.308200 0.736776 0.601809
vn 0.360201 0.752472 0.551399
vn 0.813512 -0.187543 -0.550477
vn 0.867508 0.128233 -0.480610
vn -0.268479 -0.243804 0.931922
vn 0.691212 0.373404 0.618705
vn 0.153179 0.986276 -0.061615
vn 0.378364 0.923193 -0.067489
vn 0.281719 0.959132 -0.026464
vn 0.547771 0.830449 0.101499
vn 0.531835 0.840179 0.106066
vn -0.545286 0.220988 0.808596
vn -0.696564 -0.128464 0.705901
vn 0.184046 -0.803863 -0.565624
vn -0.023901 -0.972299 0.232515
vn 0.198830 -0.809804 -0.551982
vn 0.152143 -0.825819 -0.543024
vn 0.559949 -0.739708 -0.373215
vn 0.364636 0.413883 -0.834111
vn -0.013811 0.993012 0.117199
vn 0.372814 0.843906 0.385787
vn 0.639576 -0.346940 -0.685985
vn 0.674007 -0.336705 -0.657529
vn -0.612024 0.117300 0.782091
vn -0.645003 0.127454 0.753477
vn 0.429154 0.820276 0.378120
vn -0.454059 0.062268 0.888793
vn -0.818822 -0.566533 0.092582
vn -0.674304 -0.738453 0.001073
vn 0.675728 -0.336771 -0.655726
vn -0.638027 0.373667 0.673271
vn 0.727766 -0.450419 -0.517184
vn -0.093396 -0.620659 -0.778499
vn -0.877877 -0.467022 -0.105938
vn 0.486224 0.154812 0.860011
vn -0.679543 0.167683 0.714216
vn -0.819178 -0.542321 -0.186642
vn -0.182958 0.834046 0.520475
vn -0.192041 0.824832 0.531764
vn 0.695259 -0.363484 -0.620075
vn 0.422148 0.825548 0.374516
vn -0.581638 0.080276 0.809477
vn -0.718995 -0.664949 0.202209
vn 0.862617 0.298272 -0.408564
vn -0.583449 0.556635 -0.591392
vn -0.643702 0.497613 -0.581403
vn -0.832457 -0.190269 0.520396
vn -0.769830 -0.330338 0.546112
vn 0.646410 -0.393384 0.653761
vn 0.587790 -0.467388 0.660342
vn -0.877148 -0.309726 0.366990
vn 0.593841 -0.338178 0.730061
vn -0.561251 0.178608 -0.808144
vn -0.713660 -0.570836 0.405999
vn -0.711522 -0.606006 0.355659
vn 0.356313 -0.784317 0.507826
vn -0.859316 -0.147590 0.489687
vn 0.624762 -0.543798 0.560317
vn 0.834563 0.350044 -0.425411
vn -0.670422 -0.256870 0.696097
vn 0.551107 -0.324127 0.768910
vn -0.821267 -0.366067 0.437625
vn -0.728224 0.377254 -0.572162
vn -0.525703 0.303856 -0.794549
vn 0.205083 0.412737 -0.887462
vn 0.791605 0.103127 -0.602268
vn 0.728312 -0.415499 0.544906
vn 0.968516 0.040842 -0.245576
vn -0.665570 0.382558 -0.640832
vn -0.745710 0.049653 0.664418
vn 0.691852 -0.210131 0.690786
vn 0.721360 0.401923 -0.564002
vn -0.719271 0.253478 -0.646837
vn 0.797397 0.132124 -0.588813
vn 0.850868 0.128786 -0.509351
vn -0.579046 0.241431 -0.778728
vn -0.767784 -0.410757 0.491718
vn -0.911006 -0.219237 0.349288
vn 0.764950 -0.344550 0.544185
vn 0.645409 -0.452537 0.615351
vn 0.754992 0.574962 -0.315287
vn 0.003845 0.653815 -0.756645
vn 0.980685 -0.079353 -0.178774
vn -0.968017 0.085782 -0.235764
vn 0.068374 -0.776703 -0.626145
vn -0.017135 -0.803888 -0.594534
vn -0.710026 0.288568 0.642332
vn -0.711383 0.619353 -0.332168
vn 0.689172 0.213869 0.692316
vn -0.533980 0.172301 0.827754
vn 0.756986 0.252840 0.602531
vn -0.045198 -0.548588 -0.834870
vn 0.051622 -0.425487 -0.903491
vn -0.514156 0.225706 0.827466
vn -0.001057 -0.439310 0.898335
vn 0.711797 0.322854 0.623787
vn 0.069887 -0.887871 -0.454754

f 1/1/1 2/2/1 3/3/1
f 4/4/2 5/5/2 6/6/2
f 4/4/3 6/7/3 7/8/3
f 5/9/4 8/10/4 9/11/4
f 10/12/5 11/13/5 9/14/5
f 6/6/6 11/15/6 7/8/6
f 6/6/7 12/16/7 11/13/7
f 12/17/8 5/5/8 9/14/8
f 6/6/9 5/5/9 12/17/9
f 11/13/10 12/18/10 9/19/10
f 13/20/11 14/21/11 15/22/11
f 14/21/12 13/20/12 16/23/12
f 16/24/13 13/20/13 17/25/13
f 15/22/14 14/21/14 18/26/14
f 14/21/15 19/27/15 18/26/15
f 18/26/16 20/28/16 21/29/16
f 18/26/17 19/27/17 20/28/17
f 20/28/18 3/30/18 21/29/18
f 5/9/19 22/31/19 23/32/19
f 24/33/20 25/34/20 26/35/20
f 27/36/21 25/34/21 9/37/21
f 28/38/22 27/39/22 29/40/22
f 30/41/23 25/34/23 24/33/23
f 25/34/24 30/41/24 10/42/24
f 30/41/25 24/33/25 31/43/25
f 24/33/26 26/44/26 32/45/26
f 33/46/27 34/47/27 5/9/27
f 4/4/28 22/31/28 5/9/28
f 26/35/29 25/34/29 27/39/29
f 33/46/30 35/48/30 34/47/30
f 32/45/31 26/35/31 28/38/31
f 23/32/32 33/46/32 5/9/32
f 26/35/33 27/39/33 28/38/33
f 28/38/34 29/40/34 36/49/34
f 35/50/35 37/51/35 29/40/35
f 28/38/36 38/52/36 32/45/36
f 36/49/37 38/52/37 28/38/37
f 36/49/38 37/53/38 39/54/38
f 39/55/39 37/56/39 40/57/39
f 41/58/40 42/59/40 39/55/40
f 39/55/41 40/57/41 41/58/41
f 36/49/42 29/40/42 37/51/42
f 37/56/43 35/48/43 33/46/43
f 37/56/44 33/46/44 40/57/44
f 40/57/45 33/46/45 43/60/45
f 40/57/46 43/60/46 41/58/46
f 33/46/47 23/32/47 43/60/47
f 44/61/48 45/62/48 30/63/48
f 15/64/49 46/65/49 45/62/49
f 46/66/50 47/67/50 10/68/50
f 47/67/51 7/69/51 11/70/51
f 45/62/52 44/61/52 17/71/52
f 44/61/53 30/63/53 31/72/53
f 13/73/54 15/64/54 45/62/54
f 46/65/55 10/74/55 45/62/55
f 45/62/56 10/74/56 30/63/56
f 47/67/57 11/70/57 10/68/57
f 47/67/58 48/75/58 7/69/58
f 46/66/59 15/76/59 47/67/59
f 18/77/60 47/67/60 15/76/60
f 47/67/61 18/77/61 48/75/61
f 18/77/62 21/78/62 48/75/62
f 13/73/63 45/62/63 17/71/63
f 49/79/64 35/50/64 29/40/64
f 8/80/65 27/81/65 9/82/65
f 34/47/66 50/83/66 5/84/66
f 27/36/67 49/79/67 29/40/67
f 35/48/68 51/85/68 52/86/68
f 35/50/69 49/79/69 51/87/69
f 52/86/70 50/83/70 34/47/70
f 35/48/71 52/86/71 34/47/71
f 5/84/72 50/83/72 8/10/72
f 53/88/73 27/81/73 8/80/73
f 53/88/74 49/79/74 27/36/74
f 54/89/75 55/90/75 56/91/75
f 57/92/76 55/90/76 58/93/76
f 59/94/77 60/95/77 55/90/77
f 61/96/78 54/89/78 56/91/78
f 39/97/79 61/96/79 36/98/79
f 36/98/80 61/96/80 56/91/80
f 36/98/81 56/91/81 38/99/81
f 62/100/82 63/101/82 64/102/82
f 65/103/83 64/102/83 54/89/83
f 61/96/84 65/103/84 54/89/84
f 66/104/85 67/105/85 62/100/85
f 55/90/86 60/95/86 68/106/86
f 69/107/87 68/106/87 60/95/87
f 69/107/88 70/108/88 68/106/88
f 58/109/89 55/90/89 68/106/89
f 68/106/90 71/110/90 58/111/90
f 62/100/91 67/105/91 63/101/91
f 64/102/92 63/101/92 69/107/92
f 70/108/93 71/110/93 68/106/93
f 58/111/94 71/110/94 72/112/94
f 56/91/95 57/92/95 38/113/95
f 55/90/96 57/114/96 56/91/96
f 73/115/97 74/116/97 38/113/97
f 58/109/98 72/112/98 73/115/98
f 57/117/99 58/111/99 73/115/99
f 57/92/100 73/115/100 38/113/100
f 73/115/101 72/112/101 74/116/101
f 39/97/102 75/118/102 61/96/102
f 75/118/103 39/97/103 76/119/103
f 64/102/104 59/94/104 54/89/104
f 64/102/105 60/95/105 59/94/105
f 54/89/106 59/94/106 55/90/106
f 64/102/107 69/107/107 60/95/107
f 65/103/108 66/104/108 62/100/108
f 65/103/109 61/96/109 75/118/109
f 75/118/110 76/119/110 65/103/110
f 66/104/111 65/103/111 76/119/111
f 62/100/112 64/102/112 65/103/112
f 39/97/113 42/120/113 76/119/113
f 77/121/114 76/119/114 42/120/114
f 67/105/115 76/119/115 77/121/115
f 66/104/116 76/119/116 67/105/116
f 9/82/117 25/34/117 10/42/117
f 51/122/118 49/123/118 78/124/118
f 79/125/119 50/126/119 52/127/119
f 52/127/120 51/122/120 79/125/120
f 80/128/121 81/129/121 53/130/121
f 51/122/122 78/124/122 79/125/122
f 82/131/123 50/126/123 79/125/123
f 50/126/124 82/131/124 8/132/124
f 53/133/125 78/124/125 49/123/125
f 83/134/126 84/135/126 85/136/126
f 84/135/127 83/134/127 86/137/127
f 86/137/128 87/138/128 84/135/128
f 88/139/129 84/135/129 87/138/129
f 87/138/130 89/140/130 88/139/130
f 90/141/131 88/139/131 89/140/131
f 91/142/132 92/143/132 90/141/132
f 90/141/133 89/140/133 91/142/133
f 85/136/134 92/144/134 91/145/134
f 91/145/135 83/134/135 85/136/135
f 80/128/136 93/146/136 83/134/136
f 94/147/137 83/134/137 93/146/137
f 93/146/138 87/138/138 94/147/138
f 87/138/139 93/146/139 95/148/139
f 95/148/140 96/149/140 87/138/140
f 89/140/141 87/138/141 96/149/141
f 97/150/142 91/142/142 89/140/142
f 97/151/143 81/129/143 80/128/143
f 8/132/144 82/131/144 80/128/144
f 93/146/145 80/128/145 98/152/145
f 98/152/146 95/148/146 93/146/146
f 95/148/147 82/131/147 79/125/147
f 79/125/148 78/124/148 95/148/148
f 96/149/149 95/148/149 78/124/149
f 78/124/150 53/133/150 81/153/150
f 81/153/151 96/149/151 78/124/151
f 80/128/152 53/130/152 8/154/152
f 94/147/153 87/138/153 86/137/153
f 86/137/154 83/134/154 94/147/154
f 97/151/155 83/134/155 91/145/155
f 89/140/156 96/149/156 97/150/156
f 80/128/157 83/134/157 97/151/157
f 81/153/158 97/150/158 96/149/158
f 82/131/159 95/148/159 98/152/159
f 98/152/160 80/128/160 82/131/160
f 85/136/161 99/155/161 100/156/161
f 99/155/162 85/136/162 84/135/162
f 84/135/163 101/157/163 99/155/163
f 101/157/164 84/135/164 88/139/164
f 88/139/165 90/141/165 101/157/165
f 102/158/166 101/157/166 90/141/166
f 90/141/167 103/159/167 102/158/167
f 103/159/168 90/141/168 92/143/168
f 92/144/169 85/136/169 103/160/169
f 100/156/170 103/160/170 85/136/170
f 104/161/171 105/162/171 106/163/171
f 107/164/172 106/163/172 108/165/172
f 109/166/173 110/167/173 103/168/173
f 109/166/174 111/169/174 104/161/174
f 104/161/175 110/167/175 109/166/175
f 104/161/176 111/169/176 112/170/176
f 113/171/177 112/170/177 111/169/177
f 106/163/178 110/167/178 104/161/178
f 104/161/179 112/170/179 105/162/179
f 105/172/180 113/173/180 111/174/180
f 113/173/181 105/172/181 112/175/181
f 105/172/182 111/174/182 109/176/182
f 109/176/183 106/177/183 105/172/183
f 109/176/184 100/178/184 106/177/184
f 103/179/185 100/178/185 109/176/185
f 102/180/186 103/168/186 110/167/186
f 106/163/187 114/181/187 108/165/187
f 115/182/188 116/183/188 106/177/188
f 116/184/189 117/185/189 118/186/189
f 108/165/190 114/181/190 119/187/190
f 119/187/191 120/188/191 108/165/191
f 118/189/192 121/190/192 114/191/192
f 114/191/193 121/190/193 117/192/193
f 116/193/194 115/194/194 119/187/194
f 120/188/195 119/187/195 115/194/195
f 121/195/196 118/186/196 117/185/196
f 108/165/197 101/196/197 102/180/197
f 115/182/198 106/177/198 100/178/198
f 100/178/199 99/197/199 115/182/199
f 120/188/200 99/198/200 101/196/200
f 106/163/201 107/164/201 110/167/201
f 108/165/202 120/188/202 101/196/202
f 120/188/203 115/194/203 99/198/203
f 107/164/204 102/180/204 110/167/204
f 102/180/205 107/164/205 108/165/205
f 118/199/206 106/177/206 116/183/206
f 114/181/207 106/163/207 118/200/207
f 114/191/208 117/192/208 119/201/208
f 117/192/209 116/202/209 119/201/209
f 122/203/210 123/204/210 124/205/210
f 125/206/211 126/207/211 123/208/211
f 125/206/212 123/208/212 127/209/212
f 125/210/213 128/211/213 126/212/213
f 128/211/214 129/213/214 126/212/214
f 128/214/215 124/215/215 129/216/215
f 122/217/216 124/215/216 128/214/216
f 130/218/217 128/211/217 125/219/217
f 131/220/218 122/221/218 130/222/218
f 132/223/219 125/224/219 127/225/219
f 132/226/220 131/227/220 125/219/220
f 133/228/221 131/227/221 132/226/221
f 133/229/222 122/221/222 131/220/222
f 130/218/223 125/219/223 131/227/223
f 128/214/224 130/222/224 122/221/224
f 127/209/225 123/204/225 122/203/225
f 16/230/226 133/228/226 14/231/226
f 16/232/227 3/3/227 133/229/227
f 14/231/228 133/228/228 132/226/228
f 14/233/229 132/223/229 19/234/229
f 132/223/230 127/225/230 19/234/230
f 20/235/231 19/234/231 127/225/231
f 20/235/232 127/225/232 122/236/232
f 3/3/233 122/221/233 133/229/233
f 3/237/234 20/235/234 122/236/234
f 134/238/235 135/239/235 136/240/235
f 137/241/236 135/242/236 134/243/236
f 138/244/237 139/245/237 137/246/237
f 138/247/238 136/248/238 139/249/238
f 134/238/239 136/240/239 123/208/239
f 138/247/240 123/250/240 136/248/240
f 123/250/241 138/247/241 124/251/241
f 134/238/242 123/208/242 126/252/242
f 129/253/243 134/243/243 126/254/243
f 137/241/244 134/243/244 129/253/244
f 138/244/245 137/246/245 129/255/245
f 138/244/246 129/255/246 124/256/246
f 136/257/247 140/258/247 139/259/247
f 136/257/248 141/260/248 140/258/248
f 142/261/249 139/259/249 140/258/249
f 135/262/250 143/263/250 141/260/250
f 141/264/251 143/265/251 142/266/251
f 142/266/252 140/267/252 141/264/252
f 137/268/253 143/263/253 135/262/253
f 135/262/254 141/260/254 136/257/254
f 139/259/255 142/261/255 137/268/255
f 137/268/256 144/269/256 143/263/256
f 137/268/257 142/261/257 144/269/257
f 143/265/258 145/270/258 146/271/258
f 146/271/259 142/266/259 143/265/259
f 143/263/260 144/269/260 145/272/260
f 144/269/261 146/273/261 145/272/261
f 146/273/262 144/269/262 142/261/262
f 3/274/263 16/275/263 17/276/263
f 147/5/264 4/4/264 148/6/264
f 148/7/265 4/4/265 7/8/265
f 149/10/266 147/9/266 150/11/266
f 151/13/267 152/12/267 150/14/267
f 151/15/268 148/6/268 7/8/268
f 153/16/269 148/6/269 151/13/269
f 147/5/270 153/17/270 150/14/270
f 147/5/271 148/6/271 153/17/271
f 153/18/272 151/13/272 150/19/272
f 154/21/273 155/20/273 156/22/273
f 155/20/274 154/21/274 157/23/274
f 155/20/275 157/24/275 17/25/275
f 154/21/276 156/22/276 158/26/276
f 159/27/277 154/21/277 158/26/277
f 160/28/278 158/26/278 21/29/278
f 159/27/279 158/26/279 160/28/279
f 3/30/280 160/28/280 21/29/280
f 22/31/281 147/9/281 23/32/281
f 161/34/282 24/33/282 162/35/282
f 161/34/283 163/36/283 150/37/283
f 163/39/284 164/38/284 165/40/284
f 161/34/285 166/41/285 24/33/285
f 166/41/286 161/34/286 152/42/286
f 24/33/287 166/41/287 31/43/287
f 162/44/288 24/33/288 32/45/288
f 167/47/289 168/46/289 147/9/289
f 22/31/290 4/4/290 147/9/290
f 161/34/291 162/35/291 163/39/291
f 169/48/292 168/46/292 167/47/292
f 162/35/293 32/45/293 164/38/293
f 168/46/294 23/32/294 147/9/294
f 163/39/295 162/35/295 164/38/295
f 165/40/296 164/38/296 170/49/296
f 171/51/297 169/50/297 165/40/297
f 38/52/298 164/38/298 32/45/298
f 38/52/299 170/49/299 164/38/299
f 171/53/300 170/49/300 172/54/300
f 171/56/301 172/55/301 173/57/301
f 42/59/302 41/58/302 172/55/302
f 173/57/303 172/55/303 41/58/303
f 165/40/304 170/49/304 171/51/304
f 169/48/305 171/56/305 168/46/305
f 168/46/306 171/56/306 173/57/306
f 168/46/307 173/57/307 43/60/307
f 43/60/308 173/57/308 41/58/308
f 23/32/309 168/46/309 43/60/309
f 174/62/310 44/61/310 166/63/310
f 175/65/311 156/64/311 174/62/311
f 176/67/312 175/66/312 152/68/312
f 7/69/313 176/67/313 151/70/313
f 44/61/314 174/62/314 17/71/314
f 166/63/315 44/61/315 31/72/315
f 156/64/316 155/73/316 174/62/316
f 152/74/317 175/65/317 174/62/317
f 152/74/318 174/62/318 166/63/318
f 151/70/319 176/67/319 152/68/319
f 48/75/320 176/67/320 7/69/320
f 156/76/321 175/66/321 176/67/321
f 176/67/322 158/77/322 156/76/322
f 158/77/323 176/67/323 48/75/323
f 21/78/324 158/77/324 48/75/324
f 174/62/325 155/73/325 17/71/325
f 169/50/326 177/79/326 165/40/326
f 163/81/327 149/80/327 150/82/327
f 178/83/328 167/47/328 147/84/328
f 177/79/329 163/36/329 165/40/329
f 179/85/330 169/48/330 180/86/330
f 177/79/331 169/50/331 179/87/331
f 178/83/332 180/86/332 167/47/332
f 180/86/333 169/48/333 167/47/333
f 178/83/334 147/84/334 149/10/334
f 163/81/335 181/88/335 149/80/335
f 177/79/336 181/88/336 163/36/336
f 182/90/337 183/89/337 184/91/337
f 182/90/338 185/92/338 186/93/338
f 187/95/339 188/94/339 182/90/339
f 183/89/340 189/96/340 184/91/340
f 189/96/341 172/97/341 170/98/341
f 189/96/342 170/98/342 184/91/342
f 184/91/343 170/98/343 38/99/343
f 63/101/344 190/100/344 191/102/344
f 191/102/345 192/103/345 183/89/345
f 192/103/346 189/96/346 183/89/346
f 67/105/347 193/104/347 190/100/347
f 187/95/348 182/90/348 194/106/348
f 194/106/349 69/107/349 187/95/349
f 70/108/350 69/107/350 194/106/350
f 182/90/351 186/109/351 194/106/351
f 71/110/352 194/106/352 186/111/352
f 67/105/353 190/100/353 63/101/353
f 63/101/354 191/102/354 69/107/354
f 71/110/355 70/108/355 194/106/355
f 71/110/356 186/111/356 72/112/356
f 185/92/357 184/91/357 38/113/357
f 185/114/358 182/90/358 184/91/358
f 74/116/359 195/115/359 38/113/359
f 72/112/360 186/109/360 195/115/360
f 186/111/361 185/117/361 195/115/361
f 195/115/362 185/92/362 38/113/362
f 72/112/363 195/115/363 74/116/363
f 196/118/364 172/97/364 189/96/364
f 172/97/365 196/118/365 197/119/365
f 188/94/366 191/102/366 183/89/366
f 187/95/367 191/102/367 188/94/367
f 188/94/368 183/89/368 182/90/368
f 69/107/369 191/102/369 187/95/369
f 193/104/370 192/103/370 190/100/370
f 189/96/371 192/103/371 196/118/371
f 197/119/372 196/118/372 192/103/372
f 192/103/373 193/104/373 197/119/373
f 191/102/374 190/100/374 192/103/374
f 42/120/375 172/97/375 197/119/375
f 197/119/376 77/121/376 42/120/376
f 197/119/377 67/105/377 77/121/377
f 197/119/378 193/104/378 67/105/378
f 161/34/379 150/82/379 152/42/379
f 177/123/380 179/122/380 198/124/380
f 178/126/381 199/125/381 180/127/381
f 179/122/382 180/127/382 199/125/382
f 200/129/383 201/128/383 181/130/383
f 198/124/384 179/122/384 199/125/384
f 178/126/385 202/131/385 199/125/385
f 202/131/386 178/126/386 149/132/386
f 198/124/387 181/133/387 177/123/387
f 203/135/388 204/134/388 205/136/388
f 204/134/389 203/135/389 206/137/389
f 207/138/390 206/137/390 203/135/390
f 203/135/391 208/139/391 207/138/391
f 209/140/392 207/138/392 208/139/392
f 208/139/393 210/141/393 209/140/393
f 211/143/394 212/142/394 210/141/394
f 209/140/395 210/141/395 212/142/395
f 211/144/396 205/136/396 212/145/396
f 204/134/397 212/145/397 205/136/397
f 213/146/398 201/128/398 204/134/398
f 204/134/399 214/147/399 213/146/399
f 207/138/400 213/146/400 214/147/400
f 213/146/401 207/138/401 215/148/401
f 216/149/402 215/148/402 207/138/402
f 207/138/403 209/140/403 216/149/403
f 212/142/404 217/150/404 209/140/404
f 200/129/405 217/151/405 201/128/405
f 202/131/406 149/132/406 201/128/406
f 201/128/407 213/146/407 218/152/407
f 215/148/408 218/152/408 213/146/408
f 202/131/409 215/148/409 199/125/409
f 198/124/410 199/125/410 215/148/410
f 215/148/411 216/149/411 198/124/411
f 181/133/412 198/124/412 200/153/412
f 216/149/413 200/153/413 198/124/413
f 181/130/414 201/128/414 149/154/414
f 207/138/415 214/147/415 206/137/415
f 204/134/416 206/137/416 214/147/416
f 204/134/417 217/151/417 212/145/417
f 216/149/418 209/140/418 217/150/418
f 204/134/419 201/128/419 217/151/419
f 217/150/420 200/153/420 216/149/420
f 215/148/421 202/131/421 218/152/421
f 201/128/422 218/152/422 202/131/422
f 219/155/423 205/136/423 220/156/423
f 205/136/424 219/155/424 203/135/424
f 221/157/425 203/135/425 219/155/425
f 203/135/426 221/157/426 208/139/426
f 210/141/427 208/139/427 221/157/427
f 221/157/428 222/158/428 210/141/428
f 223/159/429 210/141/429 222/158/429
f 210/141/430 223/159/430 211/143/430
f 205/136/431 211/144/431 223/160/431
f 223/160/432 220/156/432 205/136/432
f 224/162/433 225/161/433 226/163/433
f 226/163/434 227/164/434 228/165/434
f 229/167/435 230/166/435 223/168/435
f 231/169/436 230/166/436 225/161/436
f 229/167/437 225/161/437 230/166/437
f 231/169/438 225/161/438 232/170/438
f 232/170/439 233/171/439 231/169/439
f 229/167/440 226/163/440 225/161/440
f 232/170/441 225/161/441 224/162/441
f 233/173/442 224/172/442 231/174/442
f 224/172/443 233/173/443 232/175/443
f 231/174/444 224/172/444 230/176/444
f 226/177/445 230/176/445 224/172/445
f 220/178/446 230/176/446 226/177/446
f 220/178/447 223/179/447 230/176/447
f 223/168/448 222/180/448 229/167/448
f 234/181/449 226/163/449 228/165/449
f 235/183/450 236/182/450 226/177/450
f 237/185/451 235/184/451 238/186/451
f 234/181/452 228/165/452 239/187/452
f 240/188/453 239/187/453 228/165/453
f 241/190/454 238/189/454 234/191/454
f 241/190/455 234/191/455 237/192/455
f 236/194/456 235/193/456 239/187/456
f 239/187/457 240/188/457 236/194/457
f 238/186/458 241/195/458 237/185/458
f 221/196/459 228/165/459 222/180/459
f 226/177/460 236/182/460 220/178/460
f 219/197/461 220/178/461 236/182/461
f 219/198/462 240/188/462 221/196/462
f 227/164/463 226/163/463 229/167/463
f 240/188/464 228/165/464 221/196/464
f 236/194/465 240/188/465 219/198/465
f 222/180/466 227/164/466 229/167/466
f 227/164/467 222/180/467 228/165/467
f 226/177/468 238/199/468 235/183/468
f 226/163/469 234/181/469 238/200/469
f 237/192/470 234/191/470 239/201/470
f 235/202/471 237/192/471 239/201/471
f 242/204/472 243/203/472 244/205/472
f 245/207/473 246/206/473 242/208/473
f 242/208/474 246/206/474 247/209/474
f 248/211/475 246/210/475 245/212/475
f 249/213/476 248/211/476 245/212/476
f 244/215/477 248/214/477 249/216/477
f 244/215/478 243/217/478 248/214/478
f 248/211/479 250/218/479 246/219/479
f 243/221/480 251/220/480 250/222/480
f 246/224/481 252/223/481 247/225/481
f 251/227/482 252/226/482 246/219/482
f 251/227/483 253/228/483 252/226/483
f 243/221/484 253/229/484 251/220/484
f 246/219/485 250/218/485 251/227/485
f 250/222/486 248/214/486 243/221/486
f 242/204/487 247/209/487 243/203/487
f 253/228/488 157/230/488 154/231/488
f 3/3/489 157/232/489 253/229/489
f 253/228/490 154/231/490 252/226/490
f 252/223/491 154/233/491 159/234/491
f 247/225/492 252/223/492 159/234/492
f 159/234/493 160/235/493 247/225/493
f 247/225/494 160/235/494 243/236/494
f 243/221/495 3/3/495 253/229/495
f 160/235/496 3/237/496 243/236/496
f 254/239/497 255/238/497 256/240/497
f 254/242/498 257/241/498 255/243/498
f 258/245/499 259/244/499 257/246/499
f 256/248/500 259/247/500 258/249/500
f 256/240/501 255/238/501 242/208/501
f 242/250/502 259/247/502 256/248/502
f 259/247/503 242/250/503 244/251/503
f 242/208/504 255/238/504 245/252/504
f 255/243/505 249/253/505 245/254/505
f 255/243/506 257/241/506 249/253/506
f 257/246/507 259/244/507 249/255/507
f 249/255/508 259/244/508 244/256/508
f 260/258/509 256/257/509 258/259/509
f 261/260/510 256/257/510 260/258/510
f 258/259/511 262/261/511 260/258/511
f 263/263/512 254/262/512 261/260/512
f 263/265/513 261/264/513 262/266/513
f 260/267/514 262/266/514 261/264/514
f 263/263/515 257/268/515 254/262/515
f 261/260/516 254/262/516 256/257/516
f 262/261/517 258/259/517 257/268/517
f 264/269/518 257/268/518 263/263/518
f 262/261/519 257/268/519 264/269/519
f 265/270/520 263/265/520 266/271/520
f 262/266/521 266/271/521 263/265/521
f 264/269/522 263/263/522 265/272/522
f 266/273/523 264/269/523 265/272/523
f 264/269/524 266/273/524 262/261/524
f 157/275/525 3/274/525 17/276/525

o 
usemtl axe.001
s off

v 28.138151 72.869728 6.197210
v 23.639679 67.443985 8.183599
v 32.927353 70.431419 12.843690
v 30.088320 68.681038 12.607350
v 33.593258 69.139221 14.414820
v 30.754221 67.388832 14.178480
v 33.682461 62.110958 19.278271
v 27.109529 60.710712 16.370251
v 33.673862 76.282722 6.658040
v 39.218163 65.523972 19.739090
v 40.246792 77.682983 9.566051
v 35.766399 72.181824 13.080029
v 36.432301 70.889610 14.651160
v 43.716652 70.949715 17.752710
v 30.924019 67.504089 11.285151
v 33.763062 69.254478 11.521490
v 31.589930 66.211891 12.856270
v 34.428959 67.962273 13.092609
v 36.602089 71.004875 11.757820
v 37.268009 69.712669 13.328951
v 1.758080 51.214211 10.249010
v 2.423990 49.922009 11.820140
v 3.259700 48.745060 10.497931
v 2.226820 50.989990 9.487560
v 42.495770 74.633278 13.702181
v -27.114410 31.710310 9.361199
v -26.312922 30.620241 7.946890
v -26.944620 31.825571 6.467870
v -27.780321 33.002518 7.790070

vt 0.033358 0.643728
vt 0.190411 0.923560
vt 0.402692 0.503812
vt 0.402692 0.647326
vt 0.408249 0.287497
vt 0.408249 0.367848
vt 0.492649 0.287497
vt 0.492649 0.367848
vt 0.403043 0.503812
vt 0.403044 0.647326
vt 0.033710 0.643728
vt 0.190763 0.923560
vt 0.033358 0.363896
vt 0.033710 0.363896
vt 0.190411 0.084064
vt 0.402692 0.360297
vt 0.408249 0.207147
vt 0.492649 0.207147
vt 0.403043 0.360297
vt 0.190763 0.084064
vt 0.408248 1.036942
vt 0.492649 1.036942
vt 0.483600 0.371280
vt 0.402049 0.371280
vt 0.402049 1.040375
vt 0.483600 1.040375
vt 0.450449 0.037941
vt 0.483600 0.210579
vt 0.402049 0.210579
vt 0.442825 0.041374
vt 0.000000 1.000000

vn -0.500316 0.631627 0.592226
vn -0.483225 0.715678 0.504280
vn -0.426924 0.601248 0.675453
vn -0.385100 0.521834 0.761175
vn -0.438044 0.487052 0.755578
vn -0.462171 0.671398 0.579330
vn -0.407441 0.703668 0.582103
vn -0.351167 0.459422 0.815851
vn -0.347878 0.562909 0.749743
vn 0.351168 -0.459418 -0.815853
vn 0.347878 -0.562908 -0.749743
vn 0.426922 -0.601248 -0.675454
vn 0.407441 -0.703667 -0.582103
vn 0.462171 -0.671398 -0.579330
vn 0.385098 -0.521836 -0.761175
vn 0.438044 -0.487052 -0.755578
vn 0.500316 -0.631627 -0.592225
vn 0.483226 -0.715676 -0.504283
vn -0.232186 -0.794786 0.560718
vn -0.741864 0.194244 -0.641800
vn 0.232185 0.794789 -0.560714
vn 0.741865 -0.194247 0.641797
vn 0.234543 -0.307181 -0.922296
vn -0.303976 0.608062 -0.733389
vn -0.428388 0.760671 -0.487712
vn 0.311104 -0.603698 0.734005
vn -0.305953 0.667596 0.678755
vn 0.539760 -0.523444 -0.659291
vn 0.435165 -0.518175 0.736292
vn -0.179976 0.675509 -0.715049
vn 0.323596 -0.624431 0.710895
vn -0.356130 0.656828 -0.664642
vn 0.351858 -0.430100 -0.831390
vn -0.847545 -0.526470 -0.067061
vn -0.846911 -0.526544 -0.074109

f 267/277/526 268/278/526 269/279/526
f 270/280/527 269/279/527 268/278/527
f 269/281/528 270/282/528 271/283/528
f 272/284/528 271/283/528 270/282/528
f 271/285/529 272/286/529 273/287/529
f 274/288/530 273/287/530 272/286/530
f 275/289/531 267/277/531 269/279/531
f 273/287/529 276/290/529 271/285/529
f 277/291/532 275/289/532 278/292/532
f 269/279/531 278/292/531 275/289/531
f 278/293/528 269/281/528 279/294/528
f 271/283/528 279/294/528 269/281/528
f 279/295/533 271/285/533 280/296/533
f 276/290/534 280/296/534 271/285/534
f 281/280/535 268/278/535 282/279/535
f 267/277/536 282/279/536 268/278/536
f 283/284/537 281/282/537 284/283/537
f 282/281/537 284/283/537 281/282/537
f 274/288/538 283/286/538 273/287/538
f 284/285/539 273/287/539 283/286/539
f 282/279/540 267/277/540 275/289/540
f 273/287/539 284/285/539 276/290/539
f 282/279/540 275/289/540 285/292/540
f 277/291/541 285/292/541 275/289/541
f 284/283/537 282/281/537 286/294/537
f 285/293/537 286/294/537 282/281/537
f 276/290/542 284/285/542 280/296/542
f 286/295/543 280/296/543 284/285/543
f 270/280/544 268/278/544 281/280/544
f 283/286/545 274/288/545 272/286/545
f 279/295/546 280/296/546 286/295/546
f 285/292/547 277/291/547 278/292/547
f 272/284/528 270/282/528 287/297/528
f 287/297/528 288/298/528 272/284/528
f 281/282/537 283/284/537 289/298/537
f 289/298/548 290/297/548 281/282/548
f 270/299/549 281/300/549 290/301/549
f 290/301/550 287/302/550 270/299/550
f 283/300/551 272/299/551 288/302/551
f 288/302/551 289/301/551 283/300/551
f 278/293/552 279/294/552 291/303/552
f 286/294/553 285/293/553 291/303/553
f 279/304/554 286/305/554 291/306/554
f 285/305/555 278/304/555 291/306/555
f 289/298/556 288/297/556 292/298/556 293/307/556
f 287/297/557 290/298/557 294/297/557 295/307/557
f 290/297/558 289/298/558 293/297/558 294/307/558
f 288/298/528 287/297/528 295/298/528 292/307/528
f 294/297/559 293/298/559 295/297/559
f 292/298/560 295/297/560 293/298/560

