mtllib anim_barb_attack6_axe_000059.mtl

o fat
usemtl axe.001
s off

v 4.732020 13.615050 39.659821
v 2.624430 16.182631 33.133999
v 0.781800 6.396870 37.346561
v 0.443290 8.821850 35.069572
v -0.147540 5.009630 36.007332
v -0.486050 7.434620 33.730331
v -3.005600 2.065030 28.509441
v -2.218080 8.954161 26.155642
v 5.392060 8.886680 44.099621
v -2.345550 -2.663330 32.949242
v 4.604550 1.997550 46.453419
v 1.120310 3.971880 39.623569
v 0.190970 2.584640 38.284321
v -0.237960 -5.230930 39.475060
v 2.195500 8.367070 34.324738
v 2.534010 5.942080 36.601738
v 1.266160 6.979840 32.985500
v 1.604670 4.554850 35.262489
v 2.872520 3.517100 38.878731
v 1.943170 2.129860 37.539501
v -2.934630 33.020329 12.347840
v -3.863970 31.633101 11.008600
v -2.111750 31.178310 10.263769
v -2.260850 35.842190 13.244930
v 2.244590 -2.055770 43.376522
v -7.386770 56.864017 -12.681540
v -5.719280 56.420448 -13.476690
v -4.705220 57.796513 -12.087179
v -6.457410 58.251236 -11.342289

vt 0.033358 0.643728
vt 0.190411 0.923560
vt 0.402692 0.503812
vt 0.402692 0.647326
vt 0.408249 0.287497
vt 0.408249 0.367848
vt 0.492649 0.287497
vt 0.492649 0.367848
vt 0.403043 0.503812
vt 0.403044 0.647326
vt 0.033710 0.643728
vt 0.190763 0.923560
vt 0.033358 0.363896
vt 0.033710 0.363896
vt 0.190411 0.084064
vt 0.402692 0.360297
vt 0.408249 0.207147
vt 0.492649 0.207147
vt 0.403043 0.360297
vt 0.190763 0.084064
vt 0.408248 1.036942
vt 0.492649 1.036942
vt 0.483600 0.371280
vt 0.402049 0.371280
vt 0.402049 1.040375
vt 0.483600 1.040375
vt 0.450449 0.037941
vt 0.483600 0.210579
vt 0.402049 0.210579
vt 0.442825 0.041374
vt 0.000000 1.000000

vn -0.850092 0.334995 0.406352
vn -0.782579 0.364587 0.504624
vn -0.895122 0.232328 0.380501
vn -0.942010 0.150258 0.300066
vn -0.946756 0.195598 0.255725
vn -0.834446 0.310819 0.455072
vn -0.825958 0.264507 0.497824
vn -0.966878 0.089482 0.239040
vn -0.928304 0.126584 0.349611
vn 0.966878 -0.089482 -0.239039
vn 0.928304 -0.126585 -0.349612
vn 0.895122 -0.232327 -0.380500
vn 0.825959 -0.264507 -0.497824
vn 0.834446 -0.310819 -0.455073
vn 0.942010 -0.150258 -0.300066
vn 0.946756 -0.195598 -0.255725
vn 0.850092 -0.334995 -0.406352
vn 0.782581 -0.364586 -0.504622
vn -0.413722 -0.114890 -0.903125
vn 0.297581 0.946881 0.121907
vn 0.413719 0.114890 0.903126
vn -0.297578 -0.946882 -0.121909
vn 0.991664 0.090395 -0.091822
vn 0.440681 0.590321 0.676255
vn -0.948692 0.135729 0.285588
vn -0.434172 -0.648097 -0.625672
vn -0.872660 0.130260 0.470635
vn 0.900536 -0.329969 -0.283117
vn -0.414030 -0.749722 -0.516232
vn 0.444456 0.531751 0.720902
vn -0.448181 -0.644981 -0.618978
vn -0.576736 0.552375 0.601878
vn 0.987871 -0.031434 -0.152062
vn -0.895118 0.232307 0.380522
vn -0.091207 0.740058 -0.666330
vn -0.125227 0.731238 -0.670529

f 1/1/1 2/2/1 3/3/1
f 4/4/2 3/3/2 2/2/2
f 3/5/3 4/6/3 5/7/3
f 6/8/3 5/7/3 4/6/3
f 5/9/4 6/10/4 7/11/4
f 8/12/5 7/11/5 6/10/5
f 9/13/6 1/1/6 3/3/6
f 7/11/4 10/14/4 5/9/4
f 11/15/7 9/13/7 12/16/7
f 3/3/6 12/16/6 9/13/6
f 12/17/3 3/5/3 13/18/3
f 5/7/3 13/18/3 3/5/3
f 13/19/8 5/9/8 14/20/8
f 10/14/9 14/20/9 5/9/9
f 15/4/10 2/2/10 16/3/10
f 1/1/11 16/3/11 2/2/11
f 17/8/12 15/6/12 18/7/12
f 16/5/12 18/7/12 15/6/12
f 8/12/13 17/10/13 7/11/13
f 18/9/14 7/11/14 17/10/14
f 16/3/15 1/1/15 9/13/15
f 7/11/14 18/9/14 10/14/14
f 16/3/15 9/13/15 19/16/15
f 11/15/16 19/16/16 9/13/16
f 18/7/12 16/5/12 20/18/12
f 19/17/12 20/18/12 16/5/12
f 10/14/17 18/9/17 14/20/17
f 20/19/18 14/20/18 18/9/18
f 4/4/19 2/2/19 15/4/19
f 17/10/20 8/12/20 6/10/20
f 13/19/21 14/20/21 20/19/21
f 19/16/22 11/15/22 12/16/22
f 6/8/3 4/6/3 21/21/3
f 21/21/3 22/22/3 6/8/3
f 15/6/12 17/8/12 23/22/12
f 23/22/23 24/21/23 15/6/23
f 4/23/24 15/24/24 24/25/24
f 24/25/25 21/26/25 4/23/25
f 17/24/26 6/23/26 22/26/26
f 22/26/26 23/25/26 17/24/26
f 12/17/27 13/18/27 25/27/27
f 20/18/28 19/17/28 25/27/28
f 13/28/29 20/29/29 25/30/29
f 19/29/30 12/28/30 25/30/30
f 23/22/31 22/21/31 26/22/31 27/31/31
f 21/21/32 24/22/32 28/21/32 29/31/32
f 24/21/33 23/22/33 27/21/33 28/31/33
f 22/22/34 21/21/34 29/22/34 26/31/34
f 28/21/35 27/22/35 29/21/35
f 26/22/36 29/21/36 27/22/36

