mtllib anim_barb_attack_new1_body_000079.mtl

o fat
usemtl fat.001
s off

v -0.309680 38.697300 -3.605020
v 1.860240 36.144421 6.136090
v 0.486880 37.892262 1.470500
v 2.151300 60.812889 -7.546500
v 9.729260 66.031555 -0.112070
v 4.472320 56.938728 -6.315860
v 1.215410 52.489662 -5.988720
v 6.464730 61.578362 1.929390
v 6.210280 56.888889 1.943940
v 6.599160 52.036980 -0.168880
v 5.329680 52.370129 -4.672430
v 7.826010 57.485653 -3.539990
v 9.187650 37.498039 4.553380
v 9.249390 39.493271 -2.444220
v 10.471049 38.998352 -2.694690
v 6.792850 38.407490 4.260530
v 3.993900 37.029701 7.067480
v 3.923330 37.279800 -7.031280
v 3.339340 39.170471 -6.011580
v 0.198320 38.454239 -4.607980
v -0.672530 35.988201 -5.157370
v 1.453810 66.335724 -6.768780
v 1.470990 68.268097 -6.433140
v -3.728010 56.595379 3.598150
v 1.411910 56.853241 4.530560
v 0.960310 60.666279 6.623030
v 4.593390 60.994450 6.292890
v 0.477830 63.395840 7.060880
v 7.103560 65.365883 6.839490
v 4.497020 52.912579 4.043440
v -0.620350 50.828228 3.305500
v -4.807740 62.864460 5.240760
v 4.216460 70.090500 -0.171300
v 10.520830 66.846718 1.256210
v 8.979780 67.239059 4.669440
v -1.331030 67.871765 5.264490
v 2.649690 69.989922 3.139840
v -3.994000 67.074142 4.484990
v 1.322060 73.588112 3.447390
v 1.698260 72.262169 0.671810
v -0.642160 72.815399 -1.267630
v -0.822010 74.901482 2.006220
v 0.457110 71.370567 -2.826390
v 0.138250 47.865540 4.926060
v 5.364230 48.310089 5.021660
v 8.418850 47.958351 -0.155810
v 5.008700 47.363392 -5.345730
v 1.192980 47.248741 -6.905330
v 7.541780 64.764847 6.958740
v 10.067010 62.652092 -0.036320
v 10.318780 64.420403 5.704320
v 11.317680 65.154640 2.736450
v 4.464320 62.729057 6.615170
v 0.087100 71.868423 8.542240
v -1.804100 70.264839 9.600220
v -1.498260 68.133759 6.342340
v -1.616830 66.674408 7.666500
v -2.429750 69.040268 9.133390
v -1.073780 72.126724 9.967510
v -2.881110 72.239578 9.896730
v 1.366500 73.643730 6.377040
v -1.754330 75.947403 11.100740
v -3.077010 76.055893 11.133471
v -0.985590 73.204086 10.884000
v -0.015880 75.124229 10.454830
v -0.384940 77.713951 8.953690
v -1.939770 78.022568 8.497630
v -2.793080 70.307526 9.953290
v -3.450580 72.997360 10.251440
v -4.062200 70.816582 10.855350
v -3.945060 70.381119 10.121590
v -4.149770 68.856949 9.748270
v -3.061880 66.065720 8.888451
v -4.520230 66.165489 9.121070
v 1.498900 75.911659 6.950521
v 1.293210 77.307846 6.638021
v -0.961190 78.229759 5.153600
v 9.043950 62.602348 7.925370
v 11.575960 62.028469 5.233910
v 6.280590 56.008228 3.835170
v 5.369010 57.794571 7.987780
v 9.990040 59.633213 1.287610
v 7.565970 52.024021 6.369880
v 8.333260 47.578018 6.002850
v 6.249250 48.880657 8.363300
v 11.009060 51.263000 6.743670
v 11.304999 53.707802 8.555110
v 10.760020 47.561512 8.228410
v 9.718140 53.793030 10.067220
v 10.200640 48.535938 11.109869
v 7.415150 52.128212 9.840930
v 7.691450 49.301491 11.682449
v 10.728130 53.901882 5.346450
v 10.975270 52.723141 5.952430
v 11.825100 58.690319 6.746330
v 9.258380 59.245529 9.085990
v 6.997860 53.842812 9.243700
v 11.039439 56.034248 3.434180
v 5.664220 41.543610 8.872190
v 4.615940 42.313343 10.251410
v 7.053290 41.229118 9.509150
v 7.096520 41.793999 11.312470
v 5.760470 42.478928 12.014830
v 3.998040 39.102673 15.571300
v 3.531850 38.804928 14.834240
v 4.314720 39.173653 13.846621
v 5.217480 39.490959 13.982390
v 5.682350 37.950302 13.447670
v 3.859600 41.176399 14.226050
v 4.717230 40.135262 14.589310
v 3.026720 39.619431 15.563810
v 3.225970 37.952991 16.070070
v 2.525990 38.411911 15.970160
v 4.538760 36.150749 14.114350
v 3.755580 37.789650 8.969260
v 3.112940 35.997761 9.481560
v 2.338360 33.507000 10.802570
v 3.739450 37.139900 14.334730
v 4.084890 35.742130 9.801780
v 5.018210 37.362831 9.244180
v 2.730690 34.193630 15.015140
v 3.867500 26.176889 -1.498570
v 6.833820 19.847490 -8.431350
v 4.959850 18.207050 -3.418830
v 9.567679 27.005159 -3.306760
v 12.019030 19.795839 -5.543550
v 5.763740 27.273750 -5.623040
v 8.187030 23.843689 -0.029970
v 9.199990 18.240391 -0.745840
v 8.035550 25.868950 0.863600
v 8.077520 28.192829 0.551560
v 10.312380 30.845549 -3.846740
v 8.000280 32.623528 3.004150
v 11.487970 9.089910 -6.965680
v 12.643820 6.520690 -7.553670
v 9.274500 7.135740 -9.160200
v 10.886050 6.610860 -4.267260
v 8.019930 8.192290 -5.810470
v 8.007670 4.936350 -6.316160
v 8.764270 2.166750 -10.206309
v 11.627090 3.225130 -10.992420
v 10.704900 0.614040 -2.158440
v 16.363100 2.638300 -3.657550
v 13.807640 2.847260 0.946080
v 16.571461 1.637780 0.387270
v 13.077331 0.221470 1.953660
v -6.570100 64.734314 -9.255960
v 0.205240 56.943230 -7.959220
v -10.080939 59.605362 -6.175110
v -5.921710 56.795990 -6.912960
v -3.159510 52.203350 -6.309130
v -5.935540 51.333271 -2.927840
v -3.127000 57.530132 -8.821950
v -8.905250 39.092369 0.848770
v -6.980790 36.711151 6.643120
v -10.213309 38.560741 0.408100
v -4.294580 37.762051 6.106020
v -5.446760 37.167530 -5.474490
v -4.773770 39.149189 -4.792690
v -1.345740 38.393749 -4.550790
v -6.985360 56.723251 -1.284270
v -8.674020 60.376591 0.576470
v -12.341290 60.608768 -3.954210
v -8.892000 63.062702 1.409970
v -11.875481 66.118698 -3.999830
v -3.792430 50.712227 2.177010
v -7.707180 66.510139 -9.986960
v -3.846190 69.975388 -5.718150
v -10.422480 67.771271 -6.709430
v -5.923900 68.250648 3.109850
v -6.772470 70.610992 -1.701870
v -3.605430 74.562469 2.133530
v -3.648690 72.870338 -1.739230
v -3.837170 47.905842 5.876070
v -7.868700 47.657719 1.319740
v -5.470290 47.261219 -4.272100
v -13.241700 66.211670 -6.598030
v -8.097130 60.986336 -10.569640
v -11.666109 67.072411 -8.806340
v -9.521230 64.718529 -10.862009
v -13.402969 61.613548 -5.319410
v -5.409910 70.996483 8.590370
v -5.786520 73.060219 6.897260
v -6.771700 68.737961 3.707500
v -5.891130 67.541702 6.469430
v -5.128240 69.587791 8.377660
v -3.995590 72.465721 9.584630
v -5.493080 73.023430 8.729820
v -5.065870 74.948898 4.575580
v -4.140040 76.431473 10.432579
v -5.630440 74.146568 9.583160
v -5.482280 76.233398 8.923890
v -3.502430 78.346497 8.080629
v -4.793390 70.713409 9.393080
v -5.586770 66.578041 8.181311
v -4.634860 77.156219 5.232700
v -3.810710 78.343460 5.208590
v -14.604011 65.391869 -8.871180
v -12.191640 64.760193 -11.698700
v -17.577360 60.299538 -7.887840
v -14.749560 57.212311 -9.783570
v -10.176810 60.283501 -11.799340
v -20.485649 53.132248 -13.240800
v -18.824331 56.016411 -12.518450
v -23.267630 55.819130 -13.163310
v -18.757309 57.086239 -15.911421
v -18.986151 59.991531 -14.918160
v -20.259720 53.707153 -16.082651
v -20.596981 60.192780 -13.440920
v -22.133400 55.658413 -17.456991
v -24.169449 56.979759 -15.949570
v -21.703350 57.907082 -12.194010
v -16.288530 58.170029 -14.558120
v -17.340490 57.738091 -15.187500
v -14.959789 63.008217 -13.358940
v -17.143101 63.569252 -10.640440
v -19.428820 58.862221 -10.749901
v -13.583040 58.855690 -14.024490
v -26.975540 49.054531 -14.969990
v -27.257521 49.903290 -14.961300
v -25.363880 48.721901 -16.599300
v -26.442150 49.993340 -17.583620
v -27.619810 50.810661 -16.827230
v -31.909019 47.987419 -18.199940
v -32.127090 49.024231 -18.766270
v -30.838169 47.898148 -18.067560
v -30.104990 48.825779 -18.560350
v -29.810669 47.229721 -19.063000
v -30.701941 49.624519 -18.361401
v -30.954161 50.109882 -17.254421
v -32.654282 49.433212 -17.891100
v -33.285370 48.122551 -18.873751
v -33.580429 48.457012 -18.158529
v -31.500608 45.777557 -19.208790
v -28.885811 44.237171 -15.257900
v -28.175400 45.680771 -14.839459
v -30.179150 42.392509 -16.322880
v -31.465061 46.416939 -18.545919
v -28.956680 43.653824 -16.381210
v -27.531830 44.970798 -16.206249
v -33.083931 44.105530 -19.119831
v -7.207560 18.990860 -6.230300
v -3.163380 25.662079 0.071510
v -4.502180 17.646490 -1.820430
v -11.828220 19.123640 -2.623810
v -9.098550 26.500759 -0.761610
v -5.726950 27.195671 -3.534210
v -7.093200 23.158171 2.028720
v -8.220250 17.655041 1.505840
v -6.880810 25.058519 3.015500
v -6.279880 27.794731 2.902870
v -10.020490 30.331221 -0.394300
v -5.528410 32.202789 5.245710
v -12.706790 5.539410 -3.819260
v -11.399970 8.288270 -3.467660
v -9.715910 6.048900 -6.109620
v -10.332080 6.347420 -1.026280
v -7.821290 4.478520 -3.336570
v -7.853580 7.573210 -3.078690
v -9.040810 0.937350 -6.374020
v -12.084741 1.598300 -6.671840
v -9.121850 1.047070 2.088020
v -15.146870 2.356300 1.498770
v -11.747200 3.725250 5.284420
v -14.425310 2.262750 5.604800
v -10.557990 1.433050 6.616710

vt 0.550479 0.485338
vt 0.414517 0.485338
vt 0.489174 0.497239
vt 0.490853 0.675485
vt 0.356970 0.710738
vt 0.458986 0.602657
vt 0.458693 0.603155
vt 0.491001 0.506534
vt 0.357039 0.710738
vt 0.272881 0.708251
vt 0.307767 0.663467
vt 0.329118 0.504113
vt 0.420682 0.504388
vt 0.307693 0.663467
vt 0.420389 0.504181
vt 0.390374 0.619683
vt 0.389206 0.622726
vt 0.390855 0.620128
vt 0.309151 0.663075
vt 0.578845 0.971377
vt 0.529882 0.993867
vt 0.501054 0.950636
vt 0.597833 0.993868
vt 0.684209 0.993870
vt 0.691613 0.940228
vt 0.584242 0.936155
vt 0.602549 0.993867
vt 0.689094 0.993870
vt 0.694409 0.971380
vt 0.730001 0.975635
vt 0.490853 0.781888
vt 0.490853 0.820915
vt 0.240556 0.660920
vt 0.133663 0.660928
vt 0.131880 0.753091
vt 0.060606 0.782384
vt 0.055577 0.663688
vt 0.136145 0.808744
vt 0.060014 0.783494
vt 0.058190 0.859642
vt 0.160773 0.512959
vt 0.067037 0.515196
vt 0.240700 0.512959
vt 0.131877 0.752996
vt 0.240556 0.781375
vt 0.390182 0.870896
vt 0.298691 0.847983
vt 0.294173 0.886121
vt 0.181129 0.899551
vt 0.052544 0.886601
vt 0.145152 0.921474
vt 0.235241 0.891030
vt 0.142740 0.921054
vt 0.172936 0.966074
vt 0.456563 0.999059
vt 0.389917 0.922986
vt 0.429989 0.941889
vt 0.491140 0.942697
vt 0.490646 0.999330
vt 0.490853 0.898039
vt 0.701416 0.118225
vt 0.813217 0.120956
vt 0.790107 0.184348
vt 0.877923 0.002315
vt 0.872775 0.120438
vt 0.505869 0.118716
vt 0.564263 0.119120
vt 0.507564 0.183764
vt 0.697589 0.180917
vt 0.580429 0.182675
vt 0.710756 0.001536
vt 0.701372 0.182427
vt 0.812168 0.002315
vt 0.857243 0.184348
vt 0.697567 0.116528
vt 0.503935 0.000692
vt 0.561277 0.000692
vt 0.688827 -0.000098
vt 0.002866 0.854679
vt 0.027518 0.706813
vt 0.061197 0.782654
vt 0.055608 0.663958
vt 0.251604 0.781884
vt 0.357109 0.710738
vt 0.243886 0.876138
vt 0.247300 0.848527
vt -0.000514 0.880403
vt 0.006948 0.782948
vt 0.674684 0.829607
vt 0.705811 0.784366
vt 0.654033 0.662928
vt 0.703232 0.671848
vt 0.720473 0.730776
vt 0.697736 0.853617
vt 0.729837 0.853035
vt 0.623758 0.856571
vt 0.587609 0.811448
vt 0.658187 0.605708
vt 0.748523 0.593788
vt 0.716351 0.931575
vt 0.747491 0.935506
vt 0.695349 0.885675
vt 0.676247 0.904603
vt 0.649719 0.961956
vt 0.745560 1.001324
vt 0.725611 0.781438
vt 0.747491 0.878462
vt 0.747491 0.808438
vt 0.720379 0.731031
vt 0.747491 0.790807
vt 0.720762 0.730332
vt 0.748639 0.732530
vt 0.746944 0.628012
vt 0.703659 0.671442
vt 0.731857 0.666086
vt 0.747085 0.666819
vt 0.703186 0.671176
vt 0.611291 0.885598
vt 0.604148 0.909350
vt 0.550618 0.823662
vt 0.550618 0.934468
vt 0.625864 0.557513
vt 0.571978 0.557920
vt 0.578607 0.510287
vt 0.669444 0.510287
vt 0.756032 0.560223
vt 0.679695 0.557918
vt 0.877240 0.461159
vt 0.992418 0.461159
vt 0.944262 0.560223
vt 0.756457 0.510287
vt 0.806202 0.560223
vt 0.498275 0.560223
vt 0.875566 0.382888
vt 0.758260 0.308662
vt 0.875912 0.308662
vt 0.759996 0.360654
vt 0.669163 0.382888
vt 0.671223 0.308662
vt 0.584325 0.382888
vt 0.577057 0.308662
vt 0.498223 0.363687
vt 0.498247 0.308662
vt 0.992597 0.308662
vt 0.992439 0.363687
vt 0.759483 0.410364
vt 0.758924 0.382888
vt 0.665903 0.461159
vt 0.580075 0.461159
vt 0.498223 0.402657
vt 0.992438 0.402657
vt 0.760539 0.449273
vt 0.498220 0.461159
vt 0.875438 0.575163
vt 0.762705 0.196431
vt 0.858161 0.196355
vt 0.690657 0.196417
vt 0.588027 0.196417
vt 0.498144 0.196431
vt 0.991918 0.196431
vt 0.375723 0.009258
vt 0.380090 0.017573
vt 0.356438 0.030356
vt 0.342839 0.029458
vt 0.369327 0.043627
vt 0.316032 0.012201
vt 0.336848 0.019568
vt 0.249292 0.041099
vt 0.371147 0.002582
vt 0.416197 0.004791
vt 0.408124 0.000758
vt 0.128136 0.016613
vt 0.154876 0.002573
vt 0.119423 0.002194
vt 0.160447 0.001473
vt 0.065726 0.014292
vt 0.105093 0.028910
vt 0.000825 0.069213
vt 0.000703 0.039244
vt 0.249314 0.055441
vt 0.429228 0.045736
vt 0.102506 0.115410
vt 0.153549 0.117195
vt 0.189513 0.114692
vt 0.228429 0.109580
vt 0.194639 0.033982
vt 0.406548 0.108121
vt 0.355355 0.108206
vt 0.448349 0.035630
vt 0.498209 0.039288
vt 0.461840 0.047992
vt 0.483032 0.114221
vt 0.406174 0.120334
vt 0.355217 0.119080
vt 0.243215 0.037501
vt 0.249314 0.089732
vt 0.000703 0.095058
vt 0.249292 0.105039
vt 0.160984 0.032072
vt 0.413806 0.033644
vt 0.442212 0.108407
vt 0.443088 0.117732
vt 0.023914 0.327327
vt 0.104127 0.227894
vt 0.000784 0.227894
vt 0.216171 0.327327
vt 0.216985 0.228421
vt 0.105699 0.228145
vt 0.104981 0.327662
vt 0.217575 0.327327
vt 0.351490 0.301452
vt 0.217290 0.227894
vt 0.351571 0.227894
vt 0.352420 0.301452
vt 0.489174 0.227894
vt 0.352342 0.227894
vt 0.471690 0.333380
vt 0.351597 0.328057
vt 0.217345 0.328075
vt 0.352312 0.363299
vt 0.470864 0.334174
vt 0.352330 0.328057
vt 0.216660 0.380224
vt 0.216104 0.328075
vt 0.104983 0.328371
vt 0.217232 0.380224
vt 0.351611 0.363299
vt 0.351459 0.420971
vt 0.352499 0.420971
vt 0.351589 0.497239
vt 0.229465 0.497239
vt 0.352627 0.497239
vt 0.229583 0.497239
vt 0.133020 0.497239
vt 0.072972 0.497239
vt 0.025422 0.328212
vt 0.002386 0.497239
vt 0.216130 0.152222
vt 0.223982 0.125749
vt 0.105883 0.155747
vt 0.351732 0.147623
vt 0.223132 0.128232
vt 0.218721 0.149411
vt 0.469070 0.149411
vt 0.483427 0.127273
vt 0.352306 0.146326
vt 0.017963 0.152222
vt 0.104256 0.155747
vt 0.009616 0.131504
vt 0.104128 0.227914
vt 0.000790 0.227921
vt 0.216984 0.228396
vt 0.351571 0.227971
vt 0.217291 0.227882
vt 0.352342 0.227879
vt 0.489111 0.227891
vt 0.948232 0.041698
vt 0.989968 0.003451
vt 0.971575 0.059997
vt 0.909211 0.004273
vt 0.996004 0.120663
vt 0.925604 0.058708
vt 0.885225 0.122889
vt 0.516483 0.798440
vt 0.501430 0.685191
vt 0.597947 0.686709
vt 0.594444 0.793024
vt 0.950876 0.082499
vt 0.943924 0.157220
vt 0.507177 0.624822
vt 0.600053 0.622523
vt 0.901715 0.182549
vt 0.982420 0.184037
vt 0.730212 0.975635
vt 0.685579 0.991654
vt 0.692830 0.969164

vn -0.842794 -0.536160 0.047226
vn 0.640607 0.144213 -0.754205
vn 0.176731 -0.200235 -0.963676
vn 0.556839 -0.027638 0.830160
vn 0.949110 0.186566 -0.253740
vn 0.285542 -0.276502 -0.917612
vn 0.644813 -0.148692 -0.749738
vn 0.922997 -0.301482 0.239135
vn 0.610957 0.173743 -0.772363
vn 0.861480 -0.465373 0.203176
vn -0.407431 -0.877279 -0.253735
vn -0.314276 -0.912211 -0.262873
vn -0.219748 -0.771085 -0.597610
vn -0.192324 -0.777648 0.598561
vn -0.417587 -0.527863 0.739582
vn 0.435375 -0.339500 0.833780
vn 0.446117 -0.314172 0.838018
vn 0.945408 -0.317327 -0.074218
vn 0.624460 0.128272 -0.770452
vn -0.131909 -0.488847 0.862339
vn 0.384594 -0.595586 0.705242
vn 0.083573 -0.170748 0.981764
vn -0.161197 -0.244398 0.956183
vn 0.774501 0.573303 0.267342
vn -0.100236 -0.104224 0.989490
vn -0.326640 -0.291805 0.898975
vn 0.462096 0.618337 -0.635709
vn 0.620018 0.185651 -0.762307
vn 0.121746 -0.466390 0.876161
vn 0.438320 0.893767 0.095164
vn -0.300566 -0.202628 0.931988
vn 0.534436 0.719389 -0.443686
vn 0.102137 -0.139929 0.984880
vn -0.071743 0.346400 0.935339
vn 0.129454 0.692511 0.709697
vn -0.337446 0.229146 0.913029
vn -0.336332 0.230542 0.913089
vn 0.434247 0.083563 0.896909
vn 0.936325 0.348875 -0.039756
vn 0.655305 0.652832 -0.379981
vn 0.466658 0.820989 -0.328950
vn 0.053823 0.654928 0.753772
vn 0.351184 0.915989 0.193996
vn 0.676863 0.652827 0.340107
vn 0.527495 0.759472 -0.380724
vn 0.496249 0.782742 -0.375569
vn 0.554822 0.701433 -0.447398
vn -0.035044 0.201449 0.978872
vn 0.861614 0.054349 0.504646
vn 0.767364 0.340619 -0.543260
vn 0.305783 0.107615 -0.946000
vn -0.033483 0.182286 0.982675
vn -0.288848 0.401451 0.869139
vn 0.920928 0.315770 0.228430
vn 0.812779 0.364080 0.454792
vn 0.886132 0.249916 0.390272
vn 0.961708 -0.024948 -0.272938
vn 0.369474 0.158555 -0.915614
vn 0.770829 0.330814 -0.544413
vn 0.535054 0.082943 -0.840736
vn 0.372957 0.113782 -0.920846
vn -0.355454 -0.085594 -0.930767
vn 0.424842 0.111324 0.898397
vn 0.429108 0.466348 0.773554
vn 0.920302 -0.048732 0.388162
vn 0.844006 0.072439 -0.531420
vn -0.240826 0.016947 0.970420
vn 0.770830 0.507537 0.385003
vn 0.409948 0.479599 0.775840
vn 0.897487 0.038291 -0.439376
vn 0.756061 0.594857 0.272979
vn -0.462716 -0.066062 -0.884041
vn 0.919267 -0.004726 0.393607
vn -0.010552 0.181894 -0.983261
vn 0.711631 -0.555469 0.430156
vn 0.240295 -0.450539 0.859810
vn -0.049416 -0.174611 0.983397
vn 0.877664 -0.457222 0.143714
vn 0.906354 -0.422480 -0.005725
vn 0.860130 -0.448728 0.242528
vn 0.206004 -0.943047 0.261198
vn 0.018640 -0.073555 0.997117
vn 0.799246 -0.285420 0.528905
vn 0.905860 -0.192880 0.377115
vn -0.028179 0.780650 0.624333
vn 0.337560 0.042910 0.940326
vn 0.575237 0.050113 0.816450
vn 0.593258 0.056002 0.803062
vn 0.280107 -0.463566 0.840623
vn 0.090466 -0.522569 0.847784
vn 0.079453 0.782219 0.617916
vn -0.221644 -0.245108 0.943820
vn 0.020046 -0.858384 0.512616
vn 0.349506 -0.266917 0.898110
vn 0.636924 -0.545783 -0.544471
vn 0.995768 0.002456 0.091874
vn -0.098914 -0.974338 -0.202192
vn 0.346947 -0.149970 0.925817
vn 0.680670 -0.202624 0.704011
vn 0.183206 -0.949120 -0.256137
vn 0.136602 -0.242622 0.960455
vn 0.998402 -0.054721 -0.014103
vn 0.985005 0.116665 -0.127103
vn 0.597580 -0.547350 0.585924
vn -0.070022 -0.643026 0.762637
vn 0.678483 -0.389058 0.623133
vn -0.171083 -0.520235 0.836711
vn 0.497360 0.487030 0.717937
vn 0.919612 -0.145913 0.364725
vn 0.874988 0.224870 0.428753
vn 0.775177 0.395855 0.492341
vn 0.359368 0.027006 0.932805
vn 0.672690 0.484734 -0.559035
vn 0.602868 0.561350 -0.566954
vn 0.291860 0.945560 0.143992
vn 0.201808 0.979094 -0.025455
vn 0.450487 -0.325847 0.831195
vn 0.392324 0.588516 0.706917
vn 0.945200 -0.152529 -0.288673
vn 0.848220 0.371591 0.377417
vn -0.969719 -0.211673 -0.121816
vn 0.730390 0.259640 0.631757
vn 0.945539 -0.150652 -0.288548
vn -0.358828 -0.367191 -0.858145
vn -0.261167 0.236872 0.935780
vn -0.768790 -0.080303 -0.634440
vn 0.130001 0.103838 -0.986062
vn 0.562426 -0.535120 0.630336
vn 0.675674 -0.020741 -0.736909
vn 0.683665 -0.099051 0.723043
vn 0.981398 0.119823 0.150002
vn 0.339938 0.536450 0.772440
vn -0.217755 0.170606 0.960977
vn -0.912980 0.156286 0.376885
vn -0.932303 0.358028 -0.051256
vn 0.038570 -0.527483 -0.848690
vn -0.014495 -0.459564 -0.888026
vn 0.978519 0.118408 -0.168762
vn 0.968415 -0.167983 -0.184268
vn 0.683590 0.184954 0.706043
vn 0.683158 0.184749 0.706515
vn -0.275832 0.255619 0.926594
vn -0.920129 -0.390121 -0.034167
vn -0.326840 -0.296250 -0.897447
vn -0.059365 -0.661644 -0.747464
vn 0.976634 -0.203784 -0.068246
vn 0.940675 -0.079269 -0.329920
vn 0.721710 0.329636 0.608666
vn 0.679240 0.278202 0.679144
vn -0.263257 0.213439 0.940819
vn -0.357378 0.284717 0.889504
vn -0.923743 -0.096297 -0.370709
vn 0.993043 -0.037506 -0.111616
vn -0.009906 -0.476593 -0.879068
vn -0.968217 -0.247701 -0.034636
vn -0.284160 0.146553 0.947510
vn -0.952505 -0.304490 0.004411
vn -0.323864 0.162713 0.932007
vn 0.948374 0.096297 -0.302182
vn -0.068571 -0.525713 -0.847894
vn -0.790412 0.020561 -0.612230
vn -0.745922 0.013291 -0.665901
vn 0.262013 -0.506495 -0.821469
vn 0.591986 -0.477797 -0.649047
vn 0.846382 -0.432618 0.310611
vn 0.904286 -0.413113 0.107727
vn 0.396174 -0.155211 0.904962
vn 0.218319 -0.014252 0.975773
vn -0.895014 0.270590 0.354586
vn -0.803006 0.340360 0.489220
vn 0.478182 -0.876737 0.051718
vn -0.024199 -0.334297 0.942157
vn 0.412883 0.583974 0.698929
vn 0.278846 0.535674 0.797056
vn 0.311867 0.531651 0.787456
vn 0.154517 0.304056 0.940040
vn 0.058381 0.296568 0.953226
vn 0.870061 -0.472555 0.140310
vn 0.757594 -0.609781 -0.232846
vn -0.761888 0.100619 -0.639846
vn -0.383820 -0.713137 -0.586616
vn -0.835024 -0.025555 -0.549620
vn -0.772243 -0.055587 -0.632890
vn -0.957150 -0.173597 -0.231795
vn -0.405724 0.896263 0.179168
vn 0.586947 0.466002 0.662068
vn 0.366997 0.109020 0.923812
vn -0.940215 0.340399 0.011195
vn -0.946488 0.319290 0.047046
vn 0.837274 -0.545569 -0.036425
vn 0.855278 -0.514295 -0.063256
vn 0.365439 0.088862 0.926584
vn 0.742986 -0.668128 0.039705
vn 0.212962 -0.338428 -0.916577
vn 0.078780 -0.364585 -0.927831
vn -0.943111 0.330744 0.033926
vn 0.948520 -0.308012 0.073744
vn -0.983535 0.168666 0.064892
vn -0.660688 0.318337 -0.679819
vn 0.386155 -0.140782 -0.911628
vn 0.108491 -0.635697 0.764276
vn 0.884502 -0.460403 -0.075405
vn 0.174431 -0.113976 -0.978051
vn 0.796022 0.049837 0.603213
vn 0.802593 0.035500 0.595470
vn -0.957058 0.284307 0.056643
vn 0.388175 0.109811 0.915020
vn 0.782634 -0.622041 -0.023429
vn 0.149862 -0.499223 -0.853415
vn -0.931483 -0.040566 -0.361517
vn 0.448880 0.400477 -0.798827
vn 0.502370 0.368231 -0.782324
vn 0.857937 0.138196 0.494819
vn 0.846573 0.085934 0.525289
vn -0.521354 -0.200228 0.829517
vn -0.436298 -0.266846 0.859324
vn 0.942434 -0.073448 0.326225
vn -0.482166 0.125138 0.867097
vn 0.496873 -0.214583 -0.840876
vn 0.912647 -0.122128 0.390077
vn 0.916580 -0.181298 0.356388
vn -0.188767 -0.478107 0.857777
vn 0.935519 0.030367 0.351969
vn -0.476492 -0.384484 0.790650
vn -0.910770 0.024632 -0.412179
vn 0.926472 0.115604 0.358170
vn -0.370972 -0.270419 0.888400
vn 0.950513 0.067660 0.303229
vn 0.498564 0.198152 -0.843901
vn 0.337433 0.038046 -0.940580
vn -0.384875 -0.108368 -0.916585
vn -0.807775 -0.359693 -0.467033
vn -0.407136 -0.333027 0.850490
vn -0.959289 -0.281754 0.019490
vn 0.453437 0.387668 -0.802563
vn 0.849693 0.280012 0.446783
vn -0.524275 -0.128762 0.841758
vn -0.928348 0.060457 -0.366762
vn 0.618445 0.162822 -0.768775
vn -0.939723 -0.163200 -0.300478
vn -0.900424 -0.180622 -0.395742
vn 0.485217 0.091445 -0.869599
vn 0.871984 -0.106718 0.477761
vn 0.961647 0.058261 0.268032
vn -0.578127 -0.312098 0.753899
vn -0.499081 -0.342582 0.795962
vn -0.941710 0.159103 -0.296427
vn -0.335003 0.226922 -0.914483
vn -0.893092 -0.429949 0.132404
vn 0.817469 0.275554 -0.505781
vn 0.267635 -0.931240 -0.247311
vn 0.276016 -0.929184 -0.245828
vn 0.545457 0.793468 0.269970
vn 0.433952 0.582914 -0.686948
vn -0.657226 0.267623 0.704579
vn 0.546136 0.793966 0.267120
vn -0.766589 0.233509 0.598176
vn 0.268195 -0.931868 -0.244322
vn 0.268716 -0.931805 -0.243990
vn 0.426161 0.883053 0.196479
vn 0.301945 0.267174 0.915121
vn -0.775852 0.402287 0.486024
vn 0.195638 -0.943355 -0.267968
vn 0.195141 0.006465 -0.980754
vn 0.587577 -0.212213 -0.780845
vn -0.354345 -0.291216 -0.888613
vn -0.625117 -0.458977 -0.631324
vn 0.092457 -0.385273 -0.918159
vn 0.156811 -0.422150 -0.892860
vn -0.489035 -0.283423 -0.824934
vn 0.261083 0.066764 -0.963005
vn -0.452333 -0.378243 -0.807668
vn 0.463207 -0.755006 -0.464118
vn 0.250239 -0.863466 -0.437958
vn 0.048202 -0.549501 -0.834101
vn 0.228264 -0.889586 0.395643
vn 0.730254 -0.430511 0.530461
vn -0.131614 -0.276852 0.951857
vn -0.129428 -0.283018 0.950341
vn -0.913724 -0.319134 0.251518
vn 0.262318 0.162874 -0.951137
vn -0.699404 -0.553555 0.452118
vn -0.545595 -0.830283 -0.113831
vn -0.854202 0.076472 0.514287
vn -0.826988 -0.123440 0.548501
vn -0.897029 -0.279194 0.342622
vn -0.319904 -0.219156 0.921755
vn -0.652243 -0.295262 0.698140
vn 0.677292 0.136049 -0.723026
vn 0.261381 0.166887 -0.950699
vn -0.657569 -0.560406 0.503536
vn -0.207683 0.842894 -0.496385
vn -0.665659 -0.269906 0.695736
vn 0.059325 0.537131 -0.841410
vn -0.759119 -0.248320 0.601727
vn -0.777597 0.256823 0.573920
vn -0.678898 0.729749 0.081019
vn -0.655015 0.254355 0.711518
vn -0.559586 0.049068 0.827318
vn -0.866724 0.370093 0.334396
vn -0.556303 0.763729 -0.327482
vn -0.126121 0.833456 -0.538001
vn 0.079405 0.913129 -0.399862
vn -0.699670 0.584901 0.410307
vn -0.254982 0.909023 -0.329638
vn -0.515606 0.704821 -0.487214
vn 0.135952 0.797892 -0.587270
vn 0.113054 0.767185 -0.631385
vn 0.164427 0.770176 -0.616273
vn 0.151031 0.786650 0.598641
vn -0.746288 0.126863 0.653422
vn -0.918066 0.025700 -0.395593
vn 0.093485 -0.416457 -0.904336
vn 0.226612 0.265810 0.937012
vn -0.321283 0.389807 0.863034
vn -0.821565 0.265283 0.504634
vn -0.514952 0.750183 0.414789
vn -0.764268 0.518189 0.383895
vn -0.782004 0.112998 -0.612945
vn -0.362406 0.162074 -0.917820
vn -0.878892 0.266190 -0.395843
vn -0.766137 0.074259 -0.638373
vn -0.365150 0.109280 -0.924513
vn 0.026628 -0.157643 -0.987137
vn -0.040825 0.079708 0.995982
vn -0.457735 0.846782 0.270994
vn -0.572457 -0.788001 -0.226600
vn 0.587688 0.043735 -0.807905
vn -0.881213 0.078358 0.466179
vn 0.387380 0.780914 -0.490010
vn -0.484199 0.874946 -0.004437
vn 0.375654 0.070954 -0.924040
vn -0.398561 0.695531 -0.597817
vn 0.862427 -0.439435 0.251231
vn -0.542571 -0.820130 -0.181667
vn -0.686729 0.217003 0.693767
vn -0.966516 0.032450 0.254545
vn -0.782412 -0.243026 0.573384
vn -0.516427 -0.079847 0.852601
vn -0.958862 0.273817 -0.074881
vn -0.821388 0.220339 -0.526091
vn -0.460226 0.245641 -0.853143
vn -0.509385 -0.860279 -0.021136
vn -0.540167 0.039842 0.840614
vn -0.996540 0.078957 0.025974
vn -0.970894 0.187924 -0.148490
vn -0.007230 0.776395 0.630205
vn -0.720319 0.257550 0.644056
vn -0.842624 0.337794 0.419382
vn -0.847966 0.348431 0.399435
vn -0.808832 -0.242612 0.535659
vn -0.684686 -0.365278 0.630696
vn -0.088098 0.816215 0.570992
vn -0.386733 -0.211611 0.897585
vn -0.583354 -0.735947 0.343628
vn -0.820889 -0.029440 0.570329
vn -0.452173 -0.861983 -0.229184
vn -0.957082 -0.042671 0.286660
vn -0.186824 -0.959833 -0.209328
vn -0.790350 0.080790 0.607305
vn -0.960891 0.130455 0.244275
vn -0.542153 -0.769770 -0.336932
vn -0.675866 -0.077766 0.732910
vn -0.793272 0.310769 -0.523586
vn -0.664739 0.449324 -0.596851
vn -0.961421 -0.231030 0.149312
vn -0.559560 -0.543701 0.625525
vn -0.986283 -0.051264 0.156901
vn -0.472625 -0.459034 0.752272
vn -0.573740 0.704360 0.417971
vn -0.958486 0.235162 -0.161256
vn -0.821034 0.569003 -0.046237
vn -0.712388 0.697688 0.075730
vn -0.739464 0.249971 0.625066
vn -0.111329 0.623396 -0.773940
vn 0.013411 0.687320 -0.726231
vn 0.041185 0.996423 0.073787
vn 0.208921 0.977651 -0.023460
vn -0.973565 -0.133001 -0.185693
vn -0.496204 0.868064 -0.015685
vn 0.299315 0.039530 -0.953335
vn 0.210102 0.744680 -0.633490
vn -0.234995 -0.655792 0.717436
vn -0.415169 0.745890 -0.520848
vn 0.441063 0.218083 -0.870576
vn 0.379426 -0.917778 -0.117128
vn -0.871082 0.159701 0.464447
vn -0.134326 -0.167249 0.976721
vn 0.872896 -0.470004 -0.130954
vn -0.888720 0.084074 -0.450675
vn 0.978100 -0.204944 0.036303
vn -0.633980 0.263224 -0.727174
vn 0.742152 0.285572 -0.606349
vn 0.274736 0.875880 -0.396678
vn -0.915135 0.392311 -0.092841
vn -0.806952 0.405000 0.429887
vn -0.120015 -0.342645 0.931768
vn 0.455201 -0.833237 -0.313861
vn 0.495512 -0.829002 -0.259274
vn 0.362068 0.366837 -0.856935
vn 0.242382 0.170172 -0.955140
vn -0.398587 0.780728 -0.481241
vn -0.361702 0.785930 -0.501483
vn -0.594992 0.587315 0.548677
vn -0.373548 -0.709262 0.597836
vn 0.519925 -0.846971 -0.110986
vn 0.286973 -0.917174 -0.276474
vn 0.140055 0.201800 -0.969361
vn 0.406074 0.202795 -0.891055
vn -0.282592 0.856258 -0.432393
vn -0.312463 0.848975 -0.426156
vn -0.565681 0.462170 0.682937
vn -0.707251 0.507914 0.491752
vn -0.215382 -0.662131 0.717769
vn 0.304959 0.329507 -0.893547
vn 0.507209 -0.824756 -0.250033
vn -0.271410 -0.548951 0.790562
vn -0.774924 0.364291 0.516512
vn -0.349917 -0.546959 0.760522
vn -0.847281 0.403404 0.345516
vn 0.438939 0.282249 -0.853035
vn 0.485485 -0.851861 -0.196561
vn -0.278603 -0.102332 0.954939
vn -0.146355 -0.179590 0.972794
vn 0.355407 -0.782468 0.511302
vn 0.700563 -0.708197 -0.087569
vn 0.362211 -0.278671 -0.889464
vn 0.422936 -0.302585 -0.854147
vn -0.362582 0.295530 -0.883853
vn -0.402891 0.345889 -0.847372
vn -0.813539 0.394188 0.427515
vn -0.818018 0.438609 0.372114
vn 0.070065 -0.466802 -0.881582
vn -0.651094 0.116156 -0.750056
vn -0.134062 0.895974 -0.423389
vn -0.155692 0.855623 -0.493628
vn -0.241631 0.867251 -0.435304
vn -0.461988 0.663592 -0.588399
vn -0.538592 0.655876 -0.528910
vn 0.339481 -0.183801 -0.922480
vn 0.375801 -0.382108 -0.844256
vn -0.040085 -0.228452 0.972730
vn -0.248399 -0.912740 0.324349
vn -0.221908 -0.311744 0.923890
vn -0.143538 -0.348118 0.926397
vn -0.512286 -0.319889 0.797015
vn -0.238702 0.854280 0.461765
vn 0.062490 0.724910 -0.686003
vn -0.388400 0.527831 -0.755341
vn -0.709763 0.149764 0.688337
vn -0.735519 0.132050 0.664511
vn 0.460447 -0.459595 -0.759448
vn 0.498868 -0.440585 -0.746335
vn -0.634370 0.573109 -0.518769
vn 0.453039 -0.469328 -0.757949
vn 0.856717 -0.477867 0.194113
vn 0.516955 -0.635486 0.573511
vn -0.600830 0.230782 0.765338
vn 0.524769 -0.196228 -0.828319
vn -0.698711 0.171921 0.694440
vn 0.070936 0.013359 0.997391
vn 0.646760 -0.300338 0.701069
vn -0.449491 -0.115304 -0.885812
vn 0.542977 -0.391648 -0.742825
vn 0.810453 -0.268083 0.520862
vn 0.140783 0.337078 -0.930891
vn 0.146892 0.321673 -0.935387
vn -0.747628 0.104620 0.655826
vn -0.787419 0.464229 -0.405541
vn 0.449929 -0.471155 -0.758668
vn 0.692370 -0.657285 0.297657
vn 0.849846 -0.017617 -0.526737
vn -0.559183 0.391393 -0.730840
vn -0.637923 0.341869 -0.690058
vn -0.741880 0.107435 0.661870
vn -0.734788 0.086564 0.672751
vn 0.652604 -0.203015 0.729995
vn 0.564205 -0.277755 0.777512
vn -0.876302 -0.141230 0.460595
vn 0.627862 -0.106152 0.771052
vn -0.623999 -0.075606 -0.777759
vn -0.727859 -0.236893 0.643508
vn -0.725240 -0.222633 0.651507
vn 0.383810 -0.483547 0.786684
vn -0.809485 0.200495 0.551847
vn 0.604491 -0.419280 0.677344
vn 0.822040 0.038348 -0.568138
vn -0.742617 0.061617 0.666876
vn 0.676296 -0.256934 0.690369
vn -0.784059 0.011756 0.620575
vn -0.793994 0.183310 -0.579630
vn -0.606580 -0.035249 -0.794241
vn 0.046220 -0.108235 -0.993050
vn 0.697133 -0.330508 -0.636215
vn 0.686875 -0.281645 0.669985
vn 0.922708 -0.240975 -0.300902
vn -0.602821 0.376556 -0.703429
vn -0.768618 0.292642 0.568848
vn 0.653109 -0.056115 0.755182
vn 0.838448 0.053939 -0.542306
vn -0.774417 0.144351 -0.615988
vn 0.875639 -0.173914 -0.450567
vn 0.807099 -0.199094 -0.555836
vn -0.614196 0.037116 -0.788280
vn -0.764582 -0.080026 0.639539
vn -0.893342 0.067350 0.444301
vn 0.690519 -0.278452 0.667569
vn 0.635590 -0.300302 0.711227
vn 0.852531 0.138665 -0.503947
vn 0.111347 0.065997 -0.991588
vn 0.941830 -0.335823 0.013375
vn -0.926951 0.112710 -0.357853
vn -0.213328 -0.976922 0.010681
vn -0.213171 -0.976957 0.010626
vn -0.546077 0.805152 0.231366
vn -0.598266 0.405715 -0.690995
vn 0.762683 0.448151 0.466344
vn -0.556691 0.803943 0.209215
vn 0.843591 0.401881 0.356154
vn -0.213565 -0.976810 0.015276
vn -0.213761 -0.976764 0.015460
vn -0.467339 0.878159 0.102134
vn -0.136482 0.443931 0.885606
vn 0.812062 0.544030 0.211155
vn -0.075363 -0.991550 -0.105588

f 1/1/1 2/2/1 3/3/1
f 4/4/2 5/5/2 6/6/2
f 4/4/3 6/7/3 7/8/3
f 5/9/4 8/10/4 9/11/4
f 10/12/5 11/13/5 9/14/5
f 6/6/6 11/15/6 7/8/6
f 6/6/7 12/16/7 11/13/7
f 12/17/8 5/5/8 9/14/8
f 6/6/9 5/5/9 12/17/9
f 11/13/10 12/18/10 9/19/10
f 13/20/11 14/21/11 15/22/11
f 14/21/12 13/20/12 16/23/12
f 16/24/13 13/20/13 17/25/13
f 15/22/14 14/21/14 18/26/14
f 14/21/15 19/27/15 18/26/15
f 18/26/16 20/28/16 21/29/16
f 18/26/17 19/27/17 20/28/17
f 20/28/18 3/30/18 21/29/18
f 5/9/19 22/31/19 23/32/19
f 24/33/20 25/34/20 26/35/20
f 27/36/21 25/34/21 9/37/21
f 28/38/22 27/39/22 29/40/22
f 30/41/23 25/34/23 24/33/23
f 25/34/24 30/41/24 10/42/24
f 30/41/25 24/33/25 31/43/25
f 24/33/26 26/44/26 32/45/26
f 33/46/27 34/47/27 5/9/27
f 4/4/28 22/31/28 5/9/28
f 26/35/29 25/34/29 27/39/29
f 33/46/30 35/48/30 34/47/30
f 32/45/31 26/35/31 28/38/31
f 23/32/32 33/46/32 5/9/32
f 26/35/33 27/39/33 28/38/33
f 28/38/34 29/40/34 36/49/34
f 35/50/35 37/51/35 29/40/35
f 28/38/36 38/52/36 32/45/36
f 36/49/37 38/52/37 28/38/37
f 36/49/38 37/53/38 39/54/38
f 39/55/39 37/56/39 40/57/39
f 41/58/40 42/59/40 39/55/40
f 39/55/41 40/57/41 41/58/41
f 36/49/42 29/40/42 37/51/42
f 37/56/43 35/48/43 33/46/43
f 37/56/44 33/46/44 40/57/44
f 40/57/45 33/46/45 43/60/45
f 40/57/46 43/60/46 41/58/46
f 33/46/47 23/32/47 43/60/47
f 44/61/48 45/62/48 30/63/48
f 15/64/49 46/65/49 45/62/49
f 46/66/50 47/67/50 10/68/50
f 47/67/51 7/69/51 11/70/51
f 45/62/52 44/61/52 17/71/52
f 44/61/53 30/63/53 31/72/53
f 13/73/54 15/64/54 45/62/54
f 46/65/55 10/74/55 45/62/55
f 45/62/56 10/74/56 30/63/56
f 47/67/57 11/70/57 10/68/57
f 47/67/58 48/75/58 7/69/58
f 46/66/59 15/76/59 47/67/59
f 18/77/60 47/67/60 15/76/60
f 47/67/61 18/77/61 48/75/61
f 18/77/62 21/78/62 48/75/62
f 13/73/63 45/62/63 17/71/63
f 49/79/64 35/50/64 29/40/64
f 8/80/65 27/81/65 9/82/65
f 34/47/66 50/83/66 5/84/66
f 27/36/67 49/79/67 29/40/67
f 35/48/68 51/85/68 52/86/68
f 35/50/69 49/79/69 51/87/69
f 52/86/70 50/83/70 34/47/70
f 35/48/71 52/86/71 34/47/71
f 5/84/72 50/83/72 8/10/72
f 53/88/73 27/81/73 8/80/73
f 53/88/74 49/79/74 27/36/74
f 54/89/75 55/90/75 56/91/75
f 57/92/76 55/90/76 58/93/76
f 59/94/77 60/95/77 55/90/77
f 61/96/78 54/89/78 56/91/78
f 39/97/79 61/96/79 36/98/79
f 36/98/80 61/96/80 56/91/80
f 36/98/81 56/91/81 38/99/81
f 62/100/82 63/101/82 64/102/82
f 65/103/83 64/102/83 54/89/83
f 61/96/84 65/103/84 54/89/84
f 66/104/85 67/105/85 62/100/85
f 55/90/86 60/95/86 68/106/86
f 69/107/87 68/106/87 60/95/87
f 69/107/88 70/108/88 68/106/88
f 58/109/89 55/90/89 68/106/89
f 68/106/90 71/110/90 58/111/90
f 62/100/91 67/105/91 63/101/91
f 64/102/92 63/101/92 69/107/92
f 70/108/93 71/110/93 68/106/93
f 58/111/94 71/110/94 72/112/94
f 56/91/95 57/92/95 38/113/95
f 55/90/96 57/114/96 56/91/96
f 73/115/97 74/116/97 38/113/97
f 58/109/98 72/112/98 73/115/98
f 57/117/99 58/111/99 73/115/99
f 57/92/100 73/115/100 38/113/100
f 73/115/101 72/112/101 74/116/101
f 39/97/102 75/118/102 61/96/102
f 75/118/103 39/97/103 76/119/103
f 64/102/104 59/94/104 54/89/104
f 64/102/105 60/95/105 59/94/105
f 54/89/106 59/94/106 55/90/106
f 64/102/107 69/107/107 60/95/107
f 65/103/108 66/104/108 62/100/108
f 65/103/109 61/96/109 75/118/109
f 75/118/110 76/119/110 65/103/110
f 66/104/111 65/103/111 76/119/111
f 62/100/112 64/102/112 65/103/112
f 39/97/113 42/120/113 76/119/113
f 77/121/114 76/119/114 42/120/114
f 67/105/115 76/119/115 77/121/115
f 66/104/116 76/119/116 67/105/116
f 9/82/117 25/34/117 10/42/117
f 51/122/118 49/123/118 78/124/118
f 79/125/119 50/126/119 52/127/119
f 52/127/120 51/122/120 79/125/120
f 80/128/121 81/129/121 53/130/121
f 51/122/122 78/124/122 79/125/122
f 82/131/123 50/126/123 79/125/123
f 50/126/124 82/131/124 8/132/124
f 53/133/125 78/124/125 49/123/125
f 83/134/126 84/135/126 85/136/126
f 84/135/127 83/134/127 86/137/127
f 86/137/128 87/138/128 84/135/128
f 88/139/129 84/135/129 87/138/129
f 87/138/130 89/140/130 88/139/130
f 90/141/131 88/139/131 89/140/131
f 91/142/132 92/143/132 90/141/132
f 90/141/133 89/140/133 91/142/133
f 85/136/134 92/144/134 91/145/134
f 91/145/135 83/134/135 85/136/135
f 80/128/136 93/146/136 83/134/136
f 94/147/137 83/134/137 93/146/137
f 93/146/138 87/138/138 94/147/138
f 87/138/139 93/146/139 95/148/139
f 95/148/140 96/149/140 87/138/140
f 89/140/141 87/138/141 96/149/141
f 97/150/142 91/142/142 89/140/142
f 97/151/143 81/129/143 80/128/143
f 8/132/144 82/131/144 80/128/144
f 93/146/145 80/128/145 98/152/145
f 98/152/146 95/148/146 93/146/146
f 95/148/147 82/131/147 79/125/147
f 79/125/148 78/124/148 95/148/148
f 96/149/149 95/148/149 78/124/149
f 78/124/150 53/133/150 81/153/150
f 81/153/151 96/149/151 78/124/151
f 80/128/152 53/130/152 8/154/152
f 94/147/153 87/138/153 86/137/153
f 86/137/154 83/134/154 94/147/154
f 97/151/155 83/134/155 91/145/155
f 89/140/156 96/149/156 97/150/156
f 80/128/157 83/134/157 97/151/157
f 81/153/158 97/150/158 96/149/158
f 82/131/159 95/148/159 98/152/159
f 98/152/160 80/128/160 82/131/160
f 85/136/161 99/155/161 100/156/161
f 99/155/162 85/136/162 84/135/162
f 84/135/163 101/157/163 99/155/163
f 101/157/164 84/135/164 88/139/164
f 88/139/165 90/141/165 101/157/165
f 102/158/166 101/157/166 90/141/166
f 90/141/167 103/159/167 102/158/167
f 103/159/168 90/141/168 92/143/168
f 92/144/169 85/136/169 103/160/169
f 100/156/170 103/160/170 85/136/170
f 104/161/171 105/162/171 106/163/171
f 107/164/172 106/163/172 108/165/172
f 109/166/173 110/167/173 103/168/173
f 109/166/174 111/169/174 104/161/174
f 104/161/175 110/167/175 109/166/175
f 104/161/176 111/169/176 112/170/176
f 113/171/177 112/170/177 111/169/177
f 106/163/178 110/167/178 104/161/178
f 104/161/179 112/170/179 105/162/179
f 105/172/180 113/173/180 111/174/180
f 113/173/181 105/172/181 112/175/181
f 105/172/182 111/174/182 109/176/182
f 109/176/183 106/177/183 105/172/183
f 109/176/184 100/178/184 106/177/184
f 103/179/185 100/178/185 109/176/185
f 102/180/186 103/168/186 110/167/186
f 106/163/187 114/181/187 108/165/187
f 115/182/188 116/183/188 106/177/188
f 116/184/189 117/185/189 118/186/189
f 108/165/190 114/181/190 119/187/190
f 119/187/191 120/188/191 108/165/191
f 118/189/192 121/190/192 114/191/192
f 114/191/193 121/190/193 117/192/193
f 116/193/194 115/194/194 119/187/194
f 120/188/195 119/187/195 115/194/195
f 121/195/196 118/186/196 117/185/196
f 108/165/197 101/196/197 102/180/197
f 115/182/198 106/177/198 100/178/198
f 100/178/199 99/197/199 115/182/199
f 120/188/200 99/198/200 101/196/200
f 106/163/201 107/164/201 110/167/201
f 108/165/202 120/188/202 101/196/202
f 120/188/203 115/194/203 99/198/203
f 107/164/204 102/180/204 110/167/204
f 102/180/205 107/164/205 108/165/205
f 118/199/206 106/177/206 116/183/206
f 114/181/207 106/163/207 118/200/207
f 114/191/208 117/192/208 119/201/208
f 117/192/209 116/202/209 119/201/209
f 122/203/210 123/204/210 124/205/210
f 125/206/211 126/207/211 123/208/211
f 125/206/212 123/208/212 127/209/212
f 125/210/213 128/211/213 126/212/213
f 128/211/214 129/213/214 126/212/214
f 128/214/215 124/215/215 129/216/215
f 122/217/216 124/215/216 128/214/216
f 130/218/217 128/211/217 125/219/217
f 131/220/218 122/221/218 130/222/218
f 132/223/219 125/224/219 127/225/219
f 132/226/220 131/227/220 125/219/220
f 133/228/221 131/227/221 132/226/221
f 133/229/222 122/221/222 131/220/222
f 130/218/223 125/219/223 131/227/223
f 128/214/224 130/222/224 122/221/224
f 127/209/225 123/204/225 122/203/225
f 16/230/226 133/228/226 14/231/226
f 16/232/227 3/3/227 133/229/227
f 14/231/228 133/228/228 132/226/228
f 14/233/229 132/223/229 19/234/229
f 132/223/230 127/225/230 19/234/230
f 20/235/231 19/234/231 127/225/231
f 20/235/232 127/225/232 122/236/232
f 3/3/233 122/221/233 133/229/233
f 3/237/234 20/235/234 122/236/234
f 134/238/235 135/239/235 136/240/235
f 137/241/236 135/242/236 134/243/236
f 138/244/237 139/245/237 137/246/237
f 138/247/238 136/248/238 139/249/238
f 134/238/239 136/240/239 123/208/239
f 138/247/240 123/250/240 136/248/240
f 123/250/241 138/247/241 124/251/241
f 134/238/242 123/208/242 126/252/242
f 129/253/243 134/243/243 126/254/243
f 137/241/244 134/243/244 129/253/244
f 138/244/245 137/246/245 129/255/245
f 138/244/246 129/255/246 124/256/246
f 136/257/247 140/258/247 139/259/247
f 136/257/248 141/260/248 140/258/248
f 142/261/249 139/259/249 140/258/249
f 135/262/250 143/263/250 141/260/250
f 141/264/251 143/265/251 142/266/251
f 142/266/252 140/267/252 141/264/252
f 137/268/253 143/263/253 135/262/253
f 135/262/254 141/260/254 136/257/254
f 139/259/255 142/261/255 137/268/255
f 137/268/256 144/269/256 143/263/256
f 137/268/257 142/261/257 144/269/257
f 143/265/258 145/270/258 146/271/258
f 146/271/259 142/266/259 143/265/259
f 143/263/260 144/269/260 145/272/260
f 144/269/261 146/273/261 145/272/261
f 146/273/262 144/269/262 142/261/262
f 3/274/263 16/275/263 17/276/263
f 147/5/264 4/4/264 148/6/264
f 148/7/265 4/4/265 7/8/265
f 149/10/266 147/9/266 150/11/266
f 151/13/267 152/12/267 150/14/267
f 151/15/268 148/6/268 7/8/268
f 153/16/269 148/6/269 151/13/269
f 147/5/270 153/17/270 150/14/270
f 147/5/271 148/6/271 153/17/271
f 153/18/272 151/13/272 150/19/272
f 154/21/273 155/20/273 156/22/273
f 155/20/274 154/21/274 157/23/274
f 155/20/275 157/24/275 17/25/275
f 154/21/276 156/22/276 158/26/276
f 159/27/277 154/21/277 158/26/277
f 160/28/278 158/26/278 21/29/278
f 159/27/279 158/26/279 160/28/279
f 3/30/280 160/28/280 21/29/280
f 22/31/281 147/9/281 23/32/281
f 161/34/282 24/33/282 162/35/282
f 161/34/283 163/36/283 150/37/283
f 163/39/284 164/38/284 165/40/284
f 161/34/285 166/41/285 24/33/285
f 166/41/286 161/34/286 152/42/286
f 24/33/287 166/41/287 31/43/287
f 162/44/288 24/33/288 32/45/288
f 167/47/289 168/46/289 147/9/289
f 22/31/290 4/4/290 147/9/290
f 161/34/291 162/35/291 163/39/291
f 169/48/292 168/46/292 167/47/292
f 162/35/293 32/45/293 164/38/293
f 168/46/294 23/32/294 147/9/294
f 163/39/295 162/35/295 164/38/295
f 165/40/296 164/38/296 170/49/296
f 171/51/297 169/50/297 165/40/297
f 38/52/298 164/38/298 32/45/298
f 38/52/299 170/49/299 164/38/299
f 171/53/300 170/49/300 172/54/300
f 171/56/301 172/55/301 173/57/301
f 42/59/302 41/58/302 172/55/302
f 173/57/303 172/55/303 41/58/303
f 165/40/304 170/49/304 171/51/304
f 169/48/305 171/56/305 168/46/305
f 168/46/306 171/56/306 173/57/306
f 168/46/307 173/57/307 43/60/307
f 43/60/308 173/57/308 41/58/308
f 23/32/309 168/46/309 43/60/309
f 174/62/310 44/61/310 166/63/310
f 175/65/311 156/64/311 174/62/311
f 176/67/312 175/66/312 152/68/312
f 7/69/313 176/67/313 151/70/313
f 44/61/314 174/62/314 17/71/314
f 166/63/315 44/61/315 31/72/315
f 156/64/316 155/73/316 174/62/316
f 152/74/317 175/65/317 174/62/317
f 152/74/318 174/62/318 166/63/318
f 151/70/319 176/67/319 152/68/319
f 48/75/320 176/67/320 7/69/320
f 156/76/321 175/66/321 176/67/321
f 176/67/322 158/77/322 156/76/322
f 158/77/323 176/67/323 48/75/323
f 21/78/324 158/77/324 48/75/324
f 174/62/325 155/73/325 17/71/325
f 169/50/326 177/79/326 165/40/326
f 163/81/327 149/80/327 150/82/327
f 178/83/328 167/47/328 147/84/328
f 177/79/329 163/36/329 165/40/329
f 179/85/330 169/48/330 180/86/330
f 177/79/331 169/50/331 179/87/331
f 178/83/332 180/86/332 167/47/332
f 180/86/333 169/48/333 167/47/333
f 178/83/334 147/84/334 149/10/334
f 163/81/335 181/88/335 149/80/335
f 177/79/336 181/88/336 163/36/336
f 182/90/337 183/89/337 184/91/337
f 182/90/338 185/92/338 186/93/338
f 187/95/339 188/94/339 182/90/339
f 183/89/340 189/96/340 184/91/340
f 189/96/341 172/97/341 170/98/341
f 189/96/342 170/98/342 184/91/342
f 184/91/343 170/98/343 38/99/343
f 63/101/344 190/100/344 191/102/344
f 191/102/345 192/103/345 183/89/345
f 192/103/346 189/96/346 183/89/346
f 67/105/347 193/104/347 190/100/347
f 187/95/348 182/90/348 194/106/348
f 194/106/349 69/107/349 187/95/349
f 70/108/350 69/107/350 194/106/350
f 182/90/351 186/109/351 194/106/351
f 71/110/352 194/106/352 186/111/352
f 67/105/353 190/100/353 63/101/353
f 63/101/354 191/102/354 69/107/354
f 71/110/355 70/108/355 194/106/355
f 71/110/356 186/111/356 72/112/356
f 185/92/357 184/91/357 38/113/357
f 185/114/358 182/90/358 184/91/358
f 74/116/359 195/115/359 38/113/359
f 72/112/360 186/109/360 195/115/360
f 186/111/361 185/117/361 195/115/361
f 195/115/362 185/92/362 38/113/362
f 72/112/363 195/115/363 74/116/363
f 196/118/364 172/97/364 189/96/364
f 172/97/365 196/118/365 197/119/365
f 188/94/366 191/102/366 183/89/366
f 187/95/367 191/102/367 188/94/367
f 188/94/368 183/89/368 182/90/368
f 69/107/369 191/102/369 187/95/369
f 193/104/370 192/103/370 190/100/370
f 189/96/371 192/103/371 196/118/371
f 197/119/372 196/118/372 192/103/372
f 192/103/373 193/104/373 197/119/373
f 191/102/374 190/100/374 192/103/374
f 42/120/375 172/97/375 197/119/375
f 197/119/376 77/121/376 42/120/376
f 197/119/377 67/105/377 77/121/377
f 197/119/378 193/104/378 67/105/378
f 161/34/379 150/82/379 152/42/379
f 177/123/380 179/122/380 198/124/380
f 178/126/381 199/125/381 180/127/381
f 179/122/382 180/127/382 199/125/382
f 200/129/383 201/128/383 181/130/383
f 198/124/384 179/122/384 199/125/384
f 178/126/385 202/131/385 199/125/385
f 202/131/386 178/126/386 149/132/386
f 198/124/387 181/133/387 177/123/387
f 203/135/388 204/134/388 205/136/388
f 204/134/389 203/135/389 206/137/389
f 207/138/390 206/137/390 203/135/390
f 203/135/391 208/139/391 207/138/391
f 209/140/392 207/138/392 208/139/392
f 208/139/393 210/141/393 209/140/393
f 211/143/394 212/142/394 210/141/394
f 209/140/395 210/141/395 212/142/395
f 211/144/396 205/136/396 212/145/396
f 204/134/397 212/145/397 205/136/397
f 213/146/398 201/128/398 204/134/398
f 204/134/399 214/147/399 213/146/399
f 207/138/400 213/146/400 214/147/400
f 213/146/401 207/138/401 215/148/401
f 216/149/402 215/148/402 207/138/402
f 207/138/403 209/140/403 216/149/403
f 212/142/404 217/150/404 209/140/404
f 200/129/405 217/151/405 201/128/405
f 202/131/406 149/132/406 201/128/406
f 201/128/407 213/146/407 218/152/407
f 215/148/408 218/152/408 213/146/408
f 202/131/409 215/148/409 199/125/409
f 198/124/410 199/125/410 215/148/410
f 215/148/411 216/149/411 198/124/411
f 181/133/412 198/124/412 200/153/412
f 216/149/413 200/153/413 198/124/413
f 181/130/414 201/128/414 149/154/414
f 207/138/415 214/147/415 206/137/415
f 204/134/416 206/137/416 214/147/416
f 204/134/417 217/151/417 212/145/417
f 216/149/418 209/140/418 217/150/418
f 204/134/419 201/128/419 217/151/419
f 217/150/420 200/153/420 216/149/420
f 215/148/421 202/131/421 218/152/421
f 201/128/422 218/152/422 202/131/422
f 219/155/423 205/136/423 220/156/423
f 205/136/424 219/155/424 203/135/424
f 221/157/425 203/135/425 219/155/425
f 203/135/426 221/157/426 208/139/426
f 210/141/427 208/139/427 221/157/427
f 221/157/428 222/158/428 210/141/428
f 223/159/429 210/141/429 222/158/429
f 210/141/430 223/159/430 211/143/430
f 205/136/431 211/144/431 223/160/431
f 223/160/432 220/156/432 205/136/432
f 224/162/433 225/161/433 226/163/433
f 226/163/434 227/164/434 228/165/434
f 229/167/435 230/166/435 223/168/435
f 231/169/436 230/166/436 225/161/436
f 229/167/437 225/161/437 230/166/437
f 231/169/438 225/161/438 232/170/438
f 232/170/439 233/171/439 231/169/439
f 229/167/440 226/163/440 225/161/440
f 232/170/441 225/161/441 224/162/441
f 233/173/442 224/172/442 231/174/442
f 224/172/443 233/173/443 232/175/443
f 231/174/444 224/172/444 230/176/444
f 226/177/445 230/176/445 224/172/445
f 220/178/446 230/176/446 226/177/446
f 220/178/447 223/179/447 230/176/447
f 223/168/448 222/180/448 229/167/448
f 234/181/449 226/163/449 228/165/449
f 235/183/450 236/182/450 226/177/450
f 237/185/451 235/184/451 238/186/451
f 234/181/452 228/165/452 239/187/452
f 240/188/453 239/187/453 228/165/453
f 241/190/454 238/189/454 234/191/454
f 241/190/455 234/191/455 237/192/455
f 236/194/456 235/193/456 239/187/456
f 239/187/457 240/188/457 236/194/457
f 238/186/458 241/195/458 237/185/458
f 221/196/459 228/165/459 222/180/459
f 226/177/460 236/182/460 220/178/460
f 219/197/461 220/178/461 236/182/461
f 219/198/462 240/188/462 221/196/462
f 227/164/463 226/163/463 229/167/463
f 240/188/464 228/165/464 221/196/464
f 236/194/465 240/188/465 219/198/465
f 222/180/466 227/164/466 229/167/466
f 227/164/467 222/180/467 228/165/467
f 226/177/468 238/199/468 235/183/468
f 226/163/469 234/181/469 238/200/469
f 237/192/470 234/191/470 239/201/470
f 235/202/471 237/192/471 239/201/471
f 242/204/472 243/203/472 244/205/472
f 245/207/473 246/206/473 242/208/473
f 242/208/474 246/206/474 247/209/474
f 248/211/475 246/210/475 245/212/475
f 249/213/476 248/211/476 245/212/476
f 244/215/477 248/214/477 249/216/477
f 244/215/478 243/217/478 248/214/478
f 248/211/479 250/218/479 246/219/479
f 243/221/480 251/220/480 250/222/480
f 246/224/481 252/223/481 247/225/481
f 251/227/482 252/226/482 246/219/482
f 251/227/483 253/228/483 252/226/483
f 243/221/484 253/229/484 251/220/484
f 246/219/485 250/218/485 251/227/485
f 250/222/486 248/214/486 243/221/486
f 242/204/487 247/209/487 243/203/487
f 253/228/488 157/230/488 154/231/488
f 3/3/489 157/232/489 253/229/489
f 253/228/490 154/231/490 252/226/490
f 252/223/491 154/233/491 159/234/491
f 247/225/492 252/223/492 159/234/492
f 159/234/493 160/235/493 247/225/493
f 247/225/494 160/235/494 243/236/494
f 243/221/495 3/3/495 253/229/495
f 160/235/496 3/237/496 243/236/496
f 254/239/497 255/238/497 256/240/497
f 254/242/498 257/241/498 255/243/498
f 258/245/499 259/244/499 257/246/499
f 256/248/500 259/247/500 258/249/500
f 256/240/501 255/238/501 242/208/501
f 242/250/502 259/247/502 256/248/502
f 259/247/503 242/250/503 244/251/503
f 242/208/504 255/238/504 245/252/504
f 255/243/505 249/253/505 245/254/505
f 255/243/506 257/241/506 249/253/506
f 257/246/507 259/244/507 249/255/507
f 249/255/508 259/244/508 244/256/508
f 260/258/509 256/257/509 258/259/509
f 261/260/510 256/257/510 260/258/510
f 258/259/511 262/261/511 260/258/511
f 263/263/512 254/262/512 261/260/512
f 263/265/513 261/264/513 262/266/513
f 260/267/514 262/266/514 261/264/514
f 263/263/515 257/268/515 254/262/515
f 261/260/516 254/262/516 256/257/516
f 262/261/517 258/259/517 257/268/517
f 264/269/518 257/268/518 263/263/518
f 262/261/519 257/268/519 264/269/519
f 265/270/520 263/265/520 266/271/520
f 262/266/521 266/271/521 263/265/521
f 264/269/522 263/263/522 265/272/522
f 266/273/523 264/269/523 265/272/523
f 264/269/524 266/273/524 262/261/524
f 157/275/525 3/274/525 17/276/525

