mtllib anim_barb_attack6_000059.mtl

o fat
usemtl fat.001
s off

v -0.557630 34.778542 -7.546830
v 1.860240 36.144421 6.136090
v 0.702780 35.504681 -2.829280
v -0.326980 57.496799 -12.203321
v 7.592130 63.512657 -10.371590
v 2.160580 53.824181 -12.305309
v -0.679380 49.144283 -10.967360
v 6.356410 59.357399 -8.683940
v 7.344840 53.807213 -7.934031
v 6.890770 48.798580 -7.542030
v 3.781740 49.282700 -11.381390
v 5.483850 54.769890 -12.171160
v 9.351140 35.019630 -0.169370
v 8.957680 35.344242 -8.011311
v 10.221530 34.908039 -7.724030
v 7.274540 36.560741 -1.136720
v 3.993900 33.456230 2.721340
v 2.954010 31.360100 -10.238260
v 2.608180 34.487888 -10.454250
v -0.333460 34.204361 -8.459950
v -0.966690 30.934490 -6.922710
v -0.626900 62.841248 -10.776030
v -0.845650 64.727119 -10.146500
v 0.946550 51.822327 0.277340
v 5.809750 52.814842 -2.798380
v 6.652520 56.378513 -0.408480
v 8.941299 57.340179 -3.101560
v 6.394260 58.958351 0.665200
v 10.183400 61.833183 -3.644330
v 4.497020 49.339119 -0.302700
v 1.717190 46.814171 -1.641850
v 1.140170 57.158951 2.583170
v 3.340040 66.566345 -5.959760
v 9.612950 64.221466 -9.483810
v 10.321440 63.898159 -5.776350
v 3.645090 62.449989 1.430100
v 5.065070 65.403191 -2.555070
v 1.112200 61.570969 2.581560
v 3.505130 69.142372 0.209050
v 2.856200 67.888931 -2.987420
v 0.259400 68.447563 -2.690650
v 0.831810 70.236839 0.292840
v -0.805700 67.432716 -4.894620
v 0.679550 44.197632 0.376020
v 5.364230 44.736629 0.675530
v 8.418850 44.384888 -4.501940
v 4.987100 43.797039 -9.722890
v -0.366730 43.949619 -12.039360
v 9.555420 60.869003 -3.691790
v 8.683451 60.699993 -11.518400
v 11.480060 60.555099 -5.692850
v 11.052710 62.355690 -9.018801
v 6.281960 59.190094 -3.431300
v 5.288750 66.798050 4.874110
v 4.380550 64.833511 6.481350
v 4.205220 62.460209 2.492430
v 3.819900 61.505051 4.185160
v 3.707670 63.574810 6.213300
v 5.036290 66.744408 6.712360
v 3.460920 66.584091 7.593660
v 5.081730 68.938019 2.670850
v 4.738710 70.296257 8.620410
v 3.628160 70.196747 9.340910
v 5.503820 67.734840 7.611760
v 5.937510 69.812141 7.056590
v 4.618100 72.439796 6.385140
v 3.036940 72.545891 6.842740
v 3.726540 64.691460 7.291700
v 3.102880 67.209961 8.303880
v 3.085910 64.915398 8.782650
v 2.834720 64.571541 8.034039
v 2.592160 63.074261 7.582690
v 3.292370 60.573112 5.859980
v 2.173120 60.426022 6.817330
v 5.306480 71.137833 3.445620
v 4.851240 72.508339 3.506880
v 2.085300 73.203667 3.549600
v 10.651050 58.243500 -3.735090
v 12.134809 58.336330 -7.166440
v 5.762720 53.390778 -8.252131
v 6.435860 53.901192 -3.718640
v 9.076070 57.354141 -10.841360
v 7.084830 48.750603 -7.432630
v 6.963480 44.247089 -5.348790
v 5.728390 46.819073 -4.639380
v 10.311550 47.680489 -8.441060
v 11.526900 49.440269 -6.256570
v 9.781100 44.459099 -4.067070
v 10.500380 49.173668 -4.336400
v 10.079411 46.330570 -2.166940
v 7.997560 47.814621 -4.211960
v 7.928020 47.939610 -1.919160
v 10.056500 50.630310 -8.918850
v 10.279419 49.309879 -8.762370
v 12.281280 54.688850 -6.757620
v 10.656671 54.686569 -3.638170
v 7.703940 49.653648 -4.162950
v 10.114430 53.238213 -10.226430
v 3.830440 41.601509 0.563570
v 3.248390 43.229679 1.340660
v 5.233750 41.306389 1.178190
v 5.747020 42.696709 2.351410
v 4.735660 43.979141 2.634260
v 3.118270 43.595089 7.572920
v 2.464860 43.094048 7.159100
v 3.087670 42.662128 6.086810
v 4.042780 42.745598 5.964780
v 4.088190 41.095638 6.353640
v 3.108190 44.601078 5.310810
v 3.807380 43.719330 6.138520
v 2.281930 44.270840 7.339520
v 2.258470 43.137150 8.676400
v 1.653140 43.644390 8.381721
v 2.781710 40.301479 7.982460
v 1.301970 39.137379 2.861270
v 0.447030 38.133072 4.326450
v -0.504310 37.024368 6.859179
v 2.246550 41.431660 7.662810
v 1.396840 37.832008 4.672610
v 2.489300 38.595810 3.247190
v 0.854140 39.682461 9.934939
v 2.750600 24.586029 0.220990
v 4.220960 23.660339 -7.749920
v 2.719710 18.566479 -2.428600
v 8.287991 24.100790 -1.346430
v 9.636630 20.459919 -5.248160
v 4.208730 23.359959 -3.844960
v 6.955710 21.843319 1.526480
v 7.196940 17.511480 -0.590370
v 7.134320 24.301500 2.189520
v 7.323120 26.798590 0.654530
v 9.185950 26.577070 -4.623480
v 7.886190 31.829359 0.491760
v 7.356820 14.558721 -14.595490
v 7.984830 12.989440 -16.704390
v 4.602440 14.609320 -16.903151
v 6.635310 10.593280 -14.252230
v 3.863960 13.001360 -13.719850
v 3.374970 10.927971 -16.384550
v 3.377470 12.083130 -21.064220
v 6.227300 13.500340 -21.188719
v 6.078850 5.019320 -17.479610
v 11.701519 7.602410 -17.750439
v 9.736279 4.136100 -14.302271
v 12.276550 3.859120 -16.000540
v 8.862030 1.665320 -15.556999
v -11.116090 63.508820 -5.183620
v -2.646970 53.652321 -12.058801
v -7.394280 58.875698 -1.275390
v -9.200400 53.785492 -5.137010
v -5.125910 48.488968 -9.341360
v -6.058150 47.136139 -4.901350
v -6.840300 54.276382 -10.833879
v -8.630030 35.813000 -2.441220
v -6.540630 35.938889 2.657280
v -10.006880 35.187538 -2.991120
v -3.478600 38.849510 1.611840
v -5.718760 31.923971 -7.560740
v -5.031290 34.738159 -8.302930
v -1.685140 33.526001 -7.782820
v -4.910700 51.944691 -1.030340
v -5.507020 55.860718 2.383690
v -10.522290 58.255684 2.933270
v -4.348430 58.245857 3.652030
v -9.165560 63.192062 3.672740
v -1.801650 46.481911 -1.292080
v -12.354589 64.826088 -1.964380
v -5.526930 66.454613 -3.453060
v -10.850739 65.044319 2.101260
v -1.136950 62.806072 3.209740
v -5.040450 66.264885 1.109300
v -1.436240 69.462982 1.769790
v -2.647660 68.344315 -1.192060
v -3.837170 44.332371 1.529930
v -7.951040 44.033600 -3.498250
v -5.724040 42.903790 -9.254650
v -10.531380 62.747910 3.871840
v -12.049200 59.068951 -3.132530
v -12.797851 63.614712 2.552550
v -13.789721 61.495537 -0.463260
v -9.718090 59.693489 2.936610
v 0.737530 65.090843 7.585490
v -0.645480 67.217232 6.672690
v -1.314560 63.105350 4.324560
v -0.498510 61.810097 5.493999
v 0.981330 63.767391 7.039610
v 2.334960 66.663620 7.934950
v 0.571380 67.059799 8.065590
v -1.417020 69.397064 4.640520
v 2.328370 70.466522 9.350940
v 0.811040 68.066330 9.034070
v 0.414690 70.202263 8.730470
v 1.468460 72.662270 7.339770
v 1.705590 64.834221 7.904220
v 0.741410 60.753311 6.633120
v -0.890570 71.575562 5.323860
v -0.305350 72.872589 5.069750
v -12.034160 60.844643 4.708370
v -14.452761 60.151821 1.900560
v -8.914150 55.834011 5.656400
v -9.491840 53.631493 1.664350
v -12.789190 57.183571 -1.639560
v -10.508011 47.613121 3.123620
v -11.312630 49.959610 4.616560
v -10.341001 49.286518 5.458020
v -14.844609 49.536774 4.529600
v -15.126270 52.252560 5.952550
v -12.659500 46.167313 4.442110
v -13.794470 52.369938 7.693260
v -12.909130 46.111568 7.465600
v -11.006939 47.506790 9.077681
v -11.670630 50.528179 8.010250
v -14.165760 51.940170 2.837350
v -14.515320 50.920101 3.562990
v -15.123039 56.954670 3.579080
v -12.784550 57.635723 6.136300
v -10.847740 52.784237 6.459690
v -14.079480 53.782467 0.675610
v -5.826440 42.062038 5.310380
v -5.779030 42.445404 6.313560
v -7.713770 41.022629 4.936210
v -8.031320 40.964123 6.845110
v -7.022500 41.730572 7.855980
v -3.884590 37.780739 9.595610
v -4.502650 38.010990 10.517150
v -4.518280 38.151218 8.754090
v -5.704220 38.540211 8.952909
v -5.669660 37.171700 7.946590
v -5.443250 39.072159 9.779250
v -4.727540 40.161461 9.842840
v -3.727190 38.743580 10.787520
v -3.454130 37.009560 10.769989
v -2.914530 37.643932 10.899840
v -4.085320 35.623100 8.225210
v -2.920550 37.653221 3.851200
v -3.686450 39.232868 4.047830
v -1.989420 35.180431 4.105890
v -3.846920 36.478542 8.478240
v -3.322120 36.708199 4.075840
v -4.657330 38.113079 3.878920
v -2.281510 33.977322 8.339420
v -6.152170 19.712799 -1.688480
v -1.094500 25.187111 4.783720
v -2.945110 17.418240 1.920260
v -10.236530 19.155840 2.480780
v -7.090730 25.649590 4.770870
v -4.101410 25.736980 1.717730
v -4.783650 23.047731 7.373860
v -6.179300 16.784060 5.665390
v -4.410100 25.203609 8.020431
v -3.953470 27.592220 7.273710
v -8.149920 29.048531 4.376660
v -3.954260 33.759850 4.679960
v -11.938860 6.071360 -1.573070
v -10.426660 8.740250 -0.646500
v -9.278690 6.789540 -4.181810
v -9.163370 6.448160 1.022500
v -7.060060 4.931470 -1.892630
v -6.897010 7.899090 -0.917770
v -8.762890 1.758860 -5.058530
v -11.802259 2.468720 -4.856570
v -7.674250 1.061210 3.299120
v -13.677330 2.631860 3.756870
v -9.766291 4.204650 7.114520
v -12.372931 2.742470 7.808270
v -8.401970 1.916630 8.275110

vt 0.550479 0.485338
vt 0.414517 0.485338
vt 0.489174 0.497239
vt 0.490853 0.675485
vt 0.356970 0.710738
vt 0.458986 0.602657
vt 0.458693 0.603155
vt 0.491001 0.506534
vt 0.357039 0.710738
vt 0.272881 0.708251
vt 0.307767 0.663467
vt 0.329118 0.504113
vt 0.420682 0.504388
vt 0.307693 0.663467
vt 0.420389 0.504181
vt 0.390374 0.619683
vt 0.389206 0.622726
vt 0.390855 0.620128
vt 0.309151 0.663075
vt 0.578845 0.971377
vt 0.529882 0.993867
vt 0.501054 0.950636
vt 0.597833 0.993868
vt 0.684209 0.993870
vt 0.691613 0.940228
vt 0.584242 0.936155
vt 0.602549 0.993867
vt 0.689094 0.993870
vt 0.694409 0.971380
vt 0.730001 0.975635
vt 0.490853 0.781888
vt 0.490853 0.820915
vt 0.240556 0.660920
vt 0.133663 0.660928
vt 0.131880 0.753091
vt 0.060606 0.782384
vt 0.055577 0.663688
vt 0.136145 0.808744
vt 0.060014 0.783494
vt 0.058190 0.859642
vt 0.160773 0.512959
vt 0.067037 0.515196
vt 0.240700 0.512959
vt 0.131877 0.752996
vt 0.240556 0.781375
vt 0.390182 0.870896
vt 0.298691 0.847983
vt 0.294173 0.886121
vt 0.181129 0.899551
vt 0.052544 0.886601
vt 0.145152 0.921474
vt 0.235241 0.891030
vt 0.142740 0.921054
vt 0.172936 0.966074
vt 0.456563 0.999059
vt 0.389917 0.922986
vt 0.429989 0.941889
vt 0.491140 0.942697
vt 0.490646 0.999330
vt 0.490853 0.898039
vt 0.701416 0.118225
vt 0.813217 0.120956
vt 0.790107 0.184348
vt 0.877923 0.002315
vt 0.872775 0.120438
vt 0.505869 0.118716
vt 0.564263 0.119120
vt 0.507564 0.183764
vt 0.697589 0.180917
vt 0.580429 0.182675
vt 0.710756 0.001536
vt 0.701372 0.182427
vt 0.812168 0.002315
vt 0.857243 0.184348
vt 0.697567 0.116528
vt 0.503935 0.000692
vt 0.561277 0.000692
vt 0.688827 -0.000098
vt 0.002866 0.854679
vt 0.027518 0.706813
vt 0.061197 0.782654
vt 0.055608 0.663958
vt 0.251604 0.781884
vt 0.357109 0.710738
vt 0.243886 0.876138
vt 0.247300 0.848527
vt -0.000514 0.880403
vt 0.006948 0.782948
vt 0.674684 0.829607
vt 0.705811 0.784366
vt 0.654033 0.662928
vt 0.703232 0.671848
vt 0.720473 0.730776
vt 0.697736 0.853617
vt 0.729837 0.853035
vt 0.623758 0.856571
vt 0.587609 0.811448
vt 0.658187 0.605708
vt 0.748523 0.593788
vt 0.716351 0.931575
vt 0.747491 0.935506
vt 0.695349 0.885675
vt 0.676247 0.904603
vt 0.649719 0.961956
vt 0.745560 1.001324
vt 0.725611 0.781438
vt 0.747491 0.878462
vt 0.747491 0.808438
vt 0.720379 0.731031
vt 0.747491 0.790807
vt 0.720762 0.730332
vt 0.748639 0.732530
vt 0.746944 0.628012
vt 0.703659 0.671442
vt 0.731857 0.666086
vt 0.747085 0.666819
vt 0.703186 0.671176
vt 0.611291 0.885598
vt 0.604148 0.909350
vt 0.550618 0.823662
vt 0.550618 0.934468
vt 0.625864 0.557513
vt 0.571978 0.557920
vt 0.578607 0.510287
vt 0.669444 0.510287
vt 0.756032 0.560223
vt 0.679695 0.557918
vt 0.877240 0.461159
vt 0.992418 0.461159
vt 0.944262 0.560223
vt 0.756457 0.510287
vt 0.806202 0.560223
vt 0.498275 0.560223
vt 0.875566 0.382888
vt 0.758260 0.308662
vt 0.875912 0.308662
vt 0.759996 0.360654
vt 0.669163 0.382888
vt 0.671223 0.308662
vt 0.584325 0.382888
vt 0.577057 0.308662
vt 0.498223 0.363687
vt 0.498247 0.308662
vt 0.992597 0.308662
vt 0.992439 0.363687
vt 0.759483 0.410364
vt 0.758924 0.382888
vt 0.665903 0.461159
vt 0.580075 0.461159
vt 0.498223 0.402657
vt 0.992438 0.402657
vt 0.760539 0.449273
vt 0.498220 0.461159
vt 0.875438 0.575163
vt 0.762705 0.196431
vt 0.858161 0.196355
vt 0.690657 0.196417
vt 0.588027 0.196417
vt 0.498144 0.196431
vt 0.991918 0.196431
vt 0.375723 0.009258
vt 0.380090 0.017573
vt 0.356438 0.030356
vt 0.342839 0.029458
vt 0.369327 0.043627
vt 0.316032 0.012201
vt 0.336848 0.019568
vt 0.249292 0.041099
vt 0.371147 0.002582
vt 0.416197 0.004791
vt 0.408124 0.000758
vt 0.128136 0.016613
vt 0.154876 0.002573
vt 0.119423 0.002194
vt 0.160447 0.001473
vt 0.065726 0.014292
vt 0.105093 0.028910
vt 0.000825 0.069213
vt 0.000703 0.039244
vt 0.249314 0.055441
vt 0.429228 0.045736
vt 0.102506 0.115410
vt 0.153549 0.117195
vt 0.189513 0.114692
vt 0.228429 0.109580
vt 0.194639 0.033982
vt 0.406548 0.108121
vt 0.355355 0.108206
vt 0.448349 0.035630
vt 0.498209 0.039288
vt 0.461840 0.047992
vt 0.483032 0.114221
vt 0.406174 0.120334
vt 0.355217 0.119080
vt 0.243215 0.037501
vt 0.249314 0.089732
vt 0.000703 0.095058
vt 0.249292 0.105039
vt 0.160984 0.032072
vt 0.413806 0.033644
vt 0.442212 0.108407
vt 0.443088 0.117732
vt 0.023914 0.327327
vt 0.104127 0.227894
vt 0.000784 0.227894
vt 0.216171 0.327327
vt 0.216985 0.228421
vt 0.105699 0.228145
vt 0.104981 0.327662
vt 0.217575 0.327327
vt 0.351490 0.301452
vt 0.217290 0.227894
vt 0.351571 0.227894
vt 0.352420 0.301452
vt 0.489174 0.227894
vt 0.352342 0.227894
vt 0.471690 0.333380
vt 0.351597 0.328057
vt 0.217345 0.328075
vt 0.352312 0.363299
vt 0.470864 0.334174
vt 0.352330 0.328057
vt 0.216660 0.380224
vt 0.216104 0.328075
vt 0.104983 0.328371
vt 0.217232 0.380224
vt 0.351611 0.363299
vt 0.351459 0.420971
vt 0.352499 0.420971
vt 0.351589 0.497239
vt 0.229465 0.497239
vt 0.352627 0.497239
vt 0.229583 0.497239
vt 0.133020 0.497239
vt 0.072972 0.497239
vt 0.025422 0.328212
vt 0.002386 0.497239
vt 0.216130 0.152222
vt 0.223982 0.125749
vt 0.105883 0.155747
vt 0.351732 0.147623
vt 0.223132 0.128232
vt 0.218721 0.149411
vt 0.469070 0.149411
vt 0.483427 0.127273
vt 0.352306 0.146326
vt 0.017963 0.152222
vt 0.104256 0.155747
vt 0.009616 0.131504
vt 0.104128 0.227914
vt 0.000790 0.227921
vt 0.216984 0.228396
vt 0.351571 0.227971
vt 0.217291 0.227882
vt 0.352342 0.227879
vt 0.489111 0.227891
vt 0.948232 0.041698
vt 0.989968 0.003451
vt 0.971575 0.059997
vt 0.909211 0.004273
vt 0.996004 0.120663
vt 0.925604 0.058708
vt 0.885225 0.122889
vt 0.516483 0.798440
vt 0.501430 0.685191
vt 0.597947 0.686709
vt 0.594444 0.793024
vt 0.950876 0.082499
vt 0.943924 0.157220
vt 0.507177 0.624822
vt 0.600053 0.622523
vt 0.901715 0.182549
vt 0.982420 0.184037
vt 0.730212 0.975635
vt 0.685579 0.991654
vt 0.692830 0.969164

vn -0.513219 0.858243 0.005016
vn 0.136486 0.119754 -0.983377
vn -0.235184 -0.132557 -0.962869
vn 0.485076 0.201366 0.850972
vn 0.764250 -0.118894 -0.633866
vn -0.083010 -0.227038 -0.970342
vn 0.087575 -0.168477 -0.981808
vn 0.896779 -0.129142 -0.423215
vn -0.019128 0.205995 -0.978366
vn 0.837218 -0.323197 -0.441145
vn -0.321474 -0.946638 -0.023056
vn -0.594915 -0.803781 -0.003422
vn -0.180394 -0.685707 -0.705169
vn -0.263980 -0.135954 0.954898
vn -0.361837 0.024347 0.931924
vn 0.612393 0.236100 0.754474
vn 0.549434 0.117871 0.827181
vn 0.962398 -0.243233 -0.120944
vn 0.020594 0.318722 -0.947624
vn 0.522199 -0.556738 0.646027
vn 0.818823 -0.557448 0.137038
vn 0.789235 -0.146131 0.596450
vn 0.423331 0.417459 0.804064
vn 0.939172 -0.125026 0.319881
vn -0.108199 -0.370210 0.922625
vn 0.400415 -0.375656 0.835794
vn -0.026555 0.809800 -0.586104
vn 0.026325 0.259305 -0.965437
vn 0.744389 -0.484323 0.459692
vn 0.356665 0.934138 0.013305
vn 0.418428 -0.312960 0.852628
vn 0.111277 0.864107 -0.490852
vn 0.780098 -0.172232 0.601484
vn 0.600746 0.311733 0.736157
vn 0.538405 0.587621 0.604005
vn 0.342150 0.002512 0.939642
vn 0.382748 0.100166 0.918407
vn 0.914884 0.090902 0.393350
vn 0.724591 0.578822 -0.374078
vn 0.306446 0.789256 -0.532133
vn 0.151370 0.909423 -0.387346
vn 0.534009 0.577075 0.617915
vn 0.350352 0.926257 0.138930
vn 0.751448 0.639532 -0.162245
vn 0.090419 0.915278 -0.392544
vn 0.134555 0.873768 -0.467359
vn 0.067806 0.886712 -0.457322
vn -0.084588 0.191879 0.977766
vn 0.860968 -0.009142 0.508578
vn 0.837029 -0.082749 -0.540865
vn -0.078662 -0.304296 -0.949324
vn -0.084162 0.187705 0.978613
vn -0.715136 0.582065 0.387015
vn 0.923481 0.370131 0.100929
vn 0.743353 0.534429 0.402258
vn 0.927688 0.236245 0.289109
vn 0.775739 -0.020237 -0.630729
vn 0.393372 0.208462 -0.895434
vn 0.770804 0.331574 -0.543985
vn 0.333646 -0.015483 -0.942571
vn 0.396313 -0.026757 -0.917725
vn -0.605231 -0.266933 -0.749962
vn 0.447895 0.106586 0.887710
vn 0.771012 -0.481657 -0.416591
vn 0.916528 0.111317 -0.384169
vn 0.226405 0.441786 -0.868082
vn 0.403073 -0.218779 -0.888632
vn 0.942915 0.328203 0.056526
vn 0.715507 0.264131 0.646749
vn 0.599831 0.275657 -0.751143
vn 0.799668 0.591852 -0.101201
vn -0.764458 -0.034126 -0.643770
vn 0.567852 0.822418 0.034245
vn 0.006723 -0.166103 -0.986086
vn 0.938038 -0.314364 0.145808
vn 0.693916 -0.484412 0.532753
vn 0.490952 -0.268660 0.828726
vn 0.969051 -0.125263 -0.212718
vn 0.836224 -0.081456 -0.542304
vn 0.879979 -0.106318 -0.462962
vn 0.270289 -0.953501 -0.133343
vn 0.547304 -0.160012 0.821496
vn 0.978532 -0.205998 -0.006384
vn 0.980997 -0.084781 -0.174521
vn 0.239942 0.707112 0.665147
vn 0.777396 0.008755 0.628950
vn 0.912552 0.063616 0.403983
vn 0.920248 0.073396 0.384391
vn 0.718564 -0.489368 0.494150
vn 0.566872 -0.577218 0.587772
vn 0.327466 0.725781 0.604986
vn 0.330314 -0.360905 0.872147
vn 0.358755 -0.888043 0.287532
vn 0.791132 -0.290429 0.538295
vn 0.237044 -0.868197 -0.435941
vn 0.969461 -0.227125 0.092522
vn -0.079480 -0.967137 -0.241515
vn 0.793800 -0.178268 0.581466
vn 0.963590 -0.158651 0.215230
vn 0.226277 -0.879705 -0.418232
vn 0.641879 -0.304906 0.703579
vn 0.841593 0.100893 -0.530605
vn 0.756407 0.277723 -0.592215
vn 0.859877 -0.499898 0.103507
vn 0.396322 -0.712685 0.578799
vn 0.934695 -0.335085 0.118591
vn 0.339620 -0.614123 0.712399
vn 0.758286 0.490488 0.429446
vn 0.982177 -0.035329 -0.184608
vn 0.947205 0.316828 -0.049209
vn 0.882010 0.463954 0.082492
vn 0.793207 -0.002859 0.608945
vn 0.235013 0.630659 -0.739620
vn 0.164401 0.696865 -0.698105
vn 0.243759 0.962164 0.121747
vn 0.075512 0.996698 0.029853
vn 0.959458 -0.065528 0.274129
vn 0.712541 0.286786 0.640343
vn 0.753583 -0.096764 -0.650191
vn 0.962772 0.269405 0.022142
vn -0.987868 -0.036939 0.150839
vn 0.917770 0.007130 0.397048
vn 0.772961 -0.037456 -0.633347
vn -0.700450 -0.219604 -0.679076
vn 0.072318 0.013731 0.997287
vn -0.801638 -0.233116 -0.550485
vn -0.388119 -0.378384 -0.840351
vn 0.756026 -0.646792 0.100423
vn 0.392598 -0.481919 -0.783340
vn 0.882865 -0.108592 0.456899
vn 0.988488 -0.151168 -0.006295
vn 0.596836 0.801954 -0.025616
vn -0.292907 0.607051 0.738711
vn -0.391190 0.918225 -0.061920
vn -0.430853 0.826503 0.362297
vn -0.302781 -0.248755 -0.920024
vn -0.353459 -0.168706 -0.920111
vn 0.888953 0.097031 -0.447603
vn 0.828487 -0.170015 -0.533577
vn 0.883884 -0.083102 0.460264
vn 0.883586 -0.083410 0.460781
vn 0.058959 -0.017188 0.998112
vn -0.938662 -0.298325 0.172961
vn -0.619296 0.004799 -0.785143
vn -0.389349 -0.405916 -0.826825
vn 0.865269 -0.239919 -0.440169
vn 0.773205 -0.039889 -0.632900
vn 0.914027 0.081250 0.397434
vn 0.886836 0.013987 0.461873
vn 0.057949 -0.052475 0.996939
vn -0.024112 0.027193 0.999339
vn -0.995104 0.098221 -0.010975
vn 0.894475 -0.069463 -0.441688
vn -0.349220 -0.187913 -0.918005
vn -0.960988 -0.159456 0.226000
vn 0.039737 -0.126660 0.991150
vn -0.943725 -0.226296 0.241191
vn 0.000376 -0.103926 0.994585
vn 0.817952 0.122371 -0.562120
vn -0.408416 -0.234821 -0.882075
vn -0.892767 -0.110722 -0.436701
vn -0.808997 -0.240552 -0.536338
vn -0.010588 -0.910630 -0.413087
vn 0.227299 -0.909017 -0.349318
vn 0.779406 -0.503199 0.373252
vn 0.778927 -0.546747 0.307149
vn 0.570626 0.279720 0.772103
vn 0.452811 0.490810 0.744358
vn -0.633467 0.746155 0.204871
vn -0.586778 0.778217 0.223762
vn 0.302992 -0.809920 0.502220
vn 0.103432 0.230859 0.967474
vn 0.648972 0.726539 0.225781
vn 0.530827 0.775235 0.342394
vn 0.559846 0.758028 0.334612
vn 0.396184 0.696835 0.597879
vn 0.305061 0.723684 0.619047
vn 0.774297 -0.543017 0.324957
vn 0.564760 -0.819164 0.100088
vn -0.842051 -0.048531 -0.537210
vn -0.622942 -0.779760 -0.062587
vn -0.918102 -0.083308 -0.387489
vn -0.880322 -0.168200 -0.443557
vn -0.999410 -0.003114 -0.034216
vn -0.183036 0.927218 -0.326750
vn 0.786302 0.564925 0.250177
vn 0.559921 0.473446 0.679954
vn -0.836244 0.534751 -0.121401
vn -0.839047 0.538210 -0.079564
vn 0.693206 -0.685815 0.221639
vn 0.711035 -0.679504 0.180842
vn 0.555150 0.459045 0.693604
vn 0.594674 -0.719352 0.359021
vn -0.044942 -0.811574 -0.582519
vn -0.181105 -0.802338 -0.568731
vn -0.836272 0.539662 -0.097027
vn 0.867542 -0.466292 0.173038
vn -0.899698 0.435975 0.021667
vn -0.711467 0.078932 -0.698272
vn 0.160066 -0.696206 -0.699768
vn 0.137624 -0.141641 0.980305
vn 0.746912 -0.650264 0.138846
vn -0.051662 -0.652197 -0.756287
vn 0.896078 0.141564 0.420719
vn 0.898098 0.124154 0.421907
vn -0.853921 0.517856 -0.051419
vn 0.578644 0.463749 0.670901
vn 0.628783 -0.725974 0.278556
vn -0.123407 -0.891211 -0.436479
vn -0.977617 0.088941 -0.190666
vn 0.598028 0.678574 -0.426497
vn -0.221947 0.972240 0.074092
vn 0.923467 -0.063441 0.378397
vn 0.910713 -0.139300 0.388840
vn -0.427545 -0.416011 0.802583
vn -0.479016 -0.351576 0.804325
vn 0.936914 -0.152867 0.314364
vn -0.323667 0.513133 0.794943
vn 0.427032 -0.773858 -0.467747
vn 0.940120 0.093028 0.327903
vn 0.937560 -0.094103 0.334854
vn -0.115888 0.045073 0.992239
vn 0.946347 0.114261 0.302279
vn -0.411848 -0.209293 0.886892
vn 0.727792 0.683600 0.054864
vn 0.960346 0.193304 0.200920
vn -0.281352 0.279584 0.917973
vn 0.983229 0.087446 0.160045
vn 0.377452 -0.325217 -0.867043
vn 0.178381 -0.483375 -0.857047
vn -0.451345 -0.502782 -0.737223
vn -0.877427 -0.444393 -0.180658
vn -0.326585 0.196995 0.924411
vn -0.970386 -0.124102 0.207244
vn 0.404400 0.787301 -0.465422
vn 0.917798 -0.134659 0.373517
vn -0.457927 -0.658936 0.596747
vn -0.949363 0.307392 -0.064965
vn 0.509320 0.622445 -0.594268
vn -0.978546 0.124652 -0.164042
vn -0.979620 0.122125 -0.159466
vn 0.599468 0.602683 -0.526699
vn 0.848765 -0.515357 0.118344
vn 0.983434 -0.174773 0.048074
vn -0.559048 -0.730212 0.392753
vn -0.358011 -0.851395 0.383347
vn -0.942201 0.325401 0.079821
vn -0.425923 0.823567 -0.374602
vn -0.911662 -0.398852 -0.098942
vn 0.777169 0.582455 -0.238233
vn 0.139567 -0.398826 -0.906344
vn 0.158429 -0.397964 -0.903618
vn 0.659454 0.323185 0.678728
vn 0.434181 0.898269 -0.067826
vn -0.532738 -0.383593 0.754352
vn 0.657378 0.310374 0.686675
vn -0.663823 -0.324015 0.674057
vn 0.140404 -0.401510 -0.905028
vn 0.140965 -0.401713 -0.904851
vn 0.534869 0.423856 0.730931
vn 0.432634 -0.525210 0.732791
vn -0.668201 -0.135099 0.731612
vn 0.255884 -0.847753 -0.464583
vn -0.436910 0.230980 -0.869343
vn 0.190742 -0.151562 -0.969869
vn -0.800648 -0.154969 0.578746
vn -0.856394 -0.415561 -0.306429
vn -0.278595 -0.339140 -0.898537
vn -0.309314 -0.322351 -0.894659
vn -0.903223 -0.179821 -0.389682
vn -0.188735 0.447551 -0.874115
vn -0.853657 -0.351899 -0.383976
vn 0.462571 -0.870506 -0.168070
vn 0.625282 -0.743256 -0.237892
vn -0.060308 -0.280621 -0.957922
vn 0.094206 -0.766224 0.635630
vn 0.844855 -0.066382 0.530862
vn -0.065852 0.297823 0.952347
vn -0.052954 0.266729 0.962316
vn -0.882273 -0.091329 0.461793
vn -0.445343 0.236606 -0.863532
vn -0.176466 -0.661960 0.728471
vn -0.607682 -0.732726 0.306325
vn -0.115038 -0.116167 0.986545
vn -0.218101 -0.170172 0.960975
vn -0.629569 -0.390490 0.671685
vn 0.124654 -0.338262 0.932759
vn 0.050174 -0.397671 0.916155
vn -0.299476 0.837123 -0.457755
vn -0.450026 0.206753 -0.868752
vn -0.236289 -0.658728 0.714314
vn -0.225469 0.973753 0.031132
vn 0.070661 -0.494879 0.866084
vn -0.310585 0.845012 -0.435305
vn -0.105260 -0.426562 0.898312
vn 0.060092 0.054350 0.996712
vn -0.004816 0.644388 0.764683
vn 0.191450 0.001572 0.981501
vn 0.232635 -0.069746 0.970060
vn -0.333528 0.184966 0.924417
vn -0.662434 0.749025 -0.011961
vn -0.506596 0.778813 -0.369880
vn -0.179169 0.942346 -0.282636
vn 0.074650 0.577809 0.812751
vn -0.195125 0.978848 0.061511
vn -0.598160 0.795501 0.096862
vn -0.294211 0.883734 -0.363943
vn -0.201650 0.923055 -0.327577
vn -0.307896 0.846734 -0.433869
vn 0.194662 0.707533 0.679341
vn -0.762475 0.212241 0.611216
vn -0.852413 0.340686 -0.396642
vn -0.346275 0.022523 -0.937863
vn 0.245523 0.278496 0.928525
vn 0.021976 0.605061 0.795876
vn -0.824103 0.327509 0.462160
vn -0.633621 0.604771 0.482469
vn -0.259369 0.849288 0.459824
vn -0.979343 0.102171 -0.174495
vn -0.478862 0.149691 -0.865034
vn -0.903095 0.187739 -0.386230
vn -0.760052 -0.099442 -0.642209
vn -0.435574 -0.137452 -0.889597
vn 0.048213 -0.367371 -0.928824
vn 0.023573 0.125618 0.991799
vn -0.079804 0.601671 0.794747
vn -0.695207 0.574459 -0.432070
vn -0.929492 0.025358 -0.367969
vn 0.204653 -0.199790 0.958228
vn -0.608177 0.729627 -0.312674
vn -0.238100 0.572059 0.784893
vn -0.801242 0.077871 -0.593251
vn -0.828997 0.483719 0.280675
vn 0.314346 -0.451772 -0.834918
vn -0.755722 0.423850 -0.499235
vn -0.338999 0.191748 -0.921039
vn -0.755581 -0.227786 0.614175
vn -0.339348 -0.411424 0.845916
vn 0.019119 -0.235327 0.971728
vn -0.945232 -0.031707 0.324856
vn -0.999029 -0.043685 0.005686
vn -0.987856 -0.008296 -0.155152
vn -0.438253 -0.883150 0.167274
vn -0.017273 -0.120121 0.992609
vn -0.835787 -0.077837 0.543509
vn -0.915124 0.049157 0.400165
vn 0.261101 0.705615 0.658736
vn -0.291399 0.084244 0.952885
vn -0.519929 0.164793 0.838163
vn -0.535847 0.176249 0.825715
vn -0.381604 -0.411653 0.827599
vn -0.216283 -0.521891 0.825137
vn 0.158184 0.737738 0.656293
vn 0.163521 -0.349123 0.922699
vn -0.250881 -0.844977 0.472306
vn -0.391339 -0.206904 0.896685
vn -0.656067 -0.689796 -0.306199
vn -0.836598 -0.033392 0.546799
vn -0.191957 -0.958454 -0.210996
vn -0.355233 -0.097108 0.929720
vn -0.694911 -0.041502 0.717898
vn -0.511745 -0.831874 -0.214717
vn -0.178976 -0.246921 0.952364
vn -0.972793 0.231374 0.011825
vn -0.914253 0.394112 -0.093896
vn -0.715207 -0.388642 0.580893
vn -0.098274 -0.677749 0.728696
vn -0.747249 -0.216274 0.628366
vn 0.034970 -0.592584 0.804749
vn -0.323867 0.566926 0.757433
vn -0.915301 0.098701 0.390491
vn -0.766317 0.437870 0.470136
vn -0.620905 0.570116 0.538001
vn -0.316965 0.075566 0.945422
vn -0.552873 0.666893 -0.499585
vn -0.428929 0.743854 -0.512544
vn -0.009505 0.980053 0.198507
vn 0.082690 0.996191 0.027683
vn -0.723214 -0.320076 0.611975
vn -0.253130 0.549747 0.796055
vn -0.897105 -0.225602 -0.379876
vn -0.901710 0.432281 -0.007194
vn 0.980198 0.075043 -0.183249
vn -0.763039 0.252642 0.594931
vn -0.901402 0.011039 -0.432842
vn 0.254668 -0.659789 -0.706981
vn 0.574228 -0.096048 0.813042
vn 0.735135 0.524979 -0.428921
vn -0.042060 0.526023 -0.849429
vn 0.085267 -0.455466 0.886161
vn -0.522447 -0.000138 -0.852671
vn -0.704294 -0.426383 0.567598
vn -0.987060 -0.136578 -0.084013
vn -0.686198 0.103634 0.719995
vn -0.201427 -0.064050 0.977407
vn 0.896744 0.308932 0.316877
vn 0.607517 0.791348 -0.068494
vn 0.037492 -0.637380 -0.769637
vn 0.083695 -0.596509 -0.798231
vn -0.946784 0.109003 -0.302850
vn -0.950050 -0.140116 -0.278876
vn -0.742148 0.302425 0.598127
vn -0.764316 0.313245 0.563648
vn 0.283548 0.470771 0.835449
vn 0.852352 -0.500201 0.152629
vn 0.225026 -0.543376 -0.808768
vn 0.113369 -0.758424 -0.641826
vn -0.971577 -0.159619 -0.174811
vn -0.912235 -0.023474 -0.408994
vn -0.733796 0.429982 0.525984
vn -0.723826 0.414664 0.551480
vn 0.667200 0.516924 0.536315
vn 0.269274 0.338276 0.901699
vn 0.867483 -0.070960 0.492379
vn -0.962273 0.041127 -0.268961
vn 0.089854 -0.584743 -0.806227
vn 0.957388 -0.250901 0.143030
vn 0.353862 0.202141 0.913193
vn 0.932625 -0.291913 0.212127
vn 0.185236 0.138798 0.972843
vn -0.911751 0.070438 -0.404659
vn 0.150628 -0.594707 -0.789705
vn 0.821712 0.518328 -0.236908
vn 0.771049 0.490134 -0.406512
vn 0.269791 -0.147328 -0.951581
vn -0.293936 -0.367318 -0.882428
vn -0.715585 -0.694817 -0.071890
vn -0.727017 -0.671874 -0.141531
vn -0.409955 -0.481836 0.774449
vn -0.376533 -0.432956 0.819007
vn 0.797542 0.470212 0.377925
vn 0.571145 0.465424 0.676146
vn -0.435183 -0.897805 -0.067548
vn -0.059583 -0.592343 0.803480
vn -0.507788 0.286198 0.812553
vn -0.494598 0.212528 0.842737
vn -0.427108 0.229568 0.874572
vn -0.282695 -0.054197 0.957677
vn -0.189374 -0.039739 0.981101
vn -0.730802 -0.680922 -0.047676
vn -0.637940 -0.729911 -0.245482
vn 0.724947 0.485878 -0.488235
vn 0.684796 -0.468175 -0.558449
vn 0.854530 0.343064 -0.389981
vn 0.817323 0.337860 -0.466726
vn 0.967738 0.190221 -0.165222
vn 0.141380 0.849788 0.507810
vn -0.729004 0.060226 0.681854
vn -0.401998 -0.252942 0.880010
vn 0.883547 0.397577 0.247544
vn 0.891369 0.363533 0.270750
vn -0.638510 -0.707669 -0.302504
vn -0.663464 -0.675625 -0.321476
vn -0.251036 -0.209561 0.945021
vn -0.643934 -0.723109 -0.249925
vn -0.369118 -0.063555 -0.927207
vn 0.158094 0.011858 -0.987353
vn 0.835058 0.511365 0.202938
vn -0.818289 -0.554042 -0.153103
vn 0.882384 0.399942 0.247882
vn 0.699625 0.655788 -0.283669
vn -0.001116 0.340498 -0.940245
vn -0.168019 -0.803884 0.570561
vn -0.708847 -0.627737 -0.321688
vn -0.171313 0.290531 -0.941405
vn -0.802819 -0.352788 0.480648
vn -0.804525 -0.364902 0.468600
vn 0.909437 0.321533 0.263705
vn -0.183844 -0.231340 0.955344
vn -0.716710 -0.631037 -0.296848
vn -0.163567 -0.161825 -0.973169
vn 0.763530 0.055267 -0.643403
vn -0.646626 0.512500 -0.564995
vn -0.610392 0.537018 -0.582265
vn -0.699626 0.088903 0.708956
vn -0.639772 -0.066298 0.765700
vn 0.742253 -0.325201 0.585921
vn 0.669966 -0.391973 0.630477
vn -0.773930 -0.055103 0.630869
vn 0.695957 0.089683 0.712462
vn -0.679678 -0.289947 -0.673772
vn -0.586688 -0.089480 0.804854
vn -0.448555 0.346421 0.823887
vn 0.748582 0.257114 0.611161
vn -0.705168 0.330854 0.627116
vn 0.661404 -0.318285 0.679146
vn 0.719359 0.139839 -0.680418
vn -0.700970 0.415105 0.579939
vn 0.792890 0.258535 0.551803
vn -0.632748 0.526966 0.567396
vn -0.791519 -0.460798 -0.401450
vn -0.723761 -0.545395 -0.422746
vn -0.167412 -0.741110 -0.650176
vn 0.392901 -0.757613 -0.521202
vn 0.788964 0.269869 0.552002
vn 0.887708 -0.363311 -0.282808
vn -0.655452 0.550781 -0.516743
vn -0.686351 0.141204 0.713431
vn 0.717488 -0.252659 0.649134
vn 0.770635 0.160276 -0.616793
vn -0.851519 0.290253 -0.436655
vn 0.818739 -0.088629 -0.567283
vn 0.715225 -0.090307 -0.693035
vn -0.711948 0.213828 -0.668885
vn -0.674821 -0.200893 0.710111
vn -0.813824 -0.025820 0.580537
vn 0.729570 -0.444217 0.519999
vn 0.710629 -0.455010 0.536630
vn 0.776388 0.184623 -0.602607
vn -0.025989 0.169042 -0.985266
vn 0.925651 -0.347556 -0.149584
vn -0.964299 0.157480 -0.212903
vn -0.255608 -0.966059 -0.037346
vn -0.230357 -0.971763 -0.051112
vn -0.457507 0.807665 0.371974
vn -0.676347 0.481999 -0.556985
vn 0.830059 0.395581 0.393088
vn -0.535241 0.808461 0.244760
vn 0.913401 0.344280 0.217187
vn -0.213409 -0.972308 0.095254
vn -0.241687 -0.961612 0.129964
vn -0.460110 0.879141 0.124138
vn -0.012328 0.446485 0.894706
vn 0.850661 0.524600 0.034222
vn -0.589516 -0.806078 0.052059

f 1/1/1 2/2/1 3/3/1
f 4/4/2 5/5/2 6/6/2
f 4/4/3 6/7/3 7/8/3
f 5/9/4 8/10/4 9/11/4
f 10/12/5 11/13/5 9/14/5
f 6/6/6 11/15/6 7/8/6
f 6/6/7 12/16/7 11/13/7
f 12/17/8 5/5/8 9/14/8
f 6/6/9 5/5/9 12/17/9
f 11/13/10 12/18/10 9/19/10
f 13/20/11 14/21/11 15/22/11
f 14/21/12 13/20/12 16/23/12
f 16/24/13 13/20/13 17/25/13
f 15/22/14 14/21/14 18/26/14
f 14/21/15 19/27/15 18/26/15
f 18/26/16 20/28/16 21/29/16
f 18/26/17 19/27/17 20/28/17
f 20/28/18 3/30/18 21/29/18
f 5/9/19 22/31/19 23/32/19
f 24/33/20 25/34/20 26/35/20
f 27/36/21 25/34/21 9/37/21
f 28/38/22 27/39/22 29/40/22
f 30/41/23 25/34/23 24/33/23
f 25/34/24 30/41/24 10/42/24
f 30/41/25 24/33/25 31/43/25
f 24/33/26 26/44/26 32/45/26
f 33/46/27 34/47/27 5/9/27
f 4/4/28 22/31/28 5/9/28
f 26/35/29 25/34/29 27/39/29
f 33/46/30 35/48/30 34/47/30
f 32/45/31 26/35/31 28/38/31
f 23/32/32 33/46/32 5/9/32
f 26/35/33 27/39/33 28/38/33
f 28/38/34 29/40/34 36/49/34
f 35/50/35 37/51/35 29/40/35
f 28/38/36 38/52/36 32/45/36
f 36/49/37 38/52/37 28/38/37
f 36/49/38 37/53/38 39/54/38
f 39/55/39 37/56/39 40/57/39
f 41/58/40 42/59/40 39/55/40
f 39/55/41 40/57/41 41/58/41
f 36/49/42 29/40/42 37/51/42
f 37/56/43 35/48/43 33/46/43
f 37/56/44 33/46/44 40/57/44
f 40/57/45 33/46/45 43/60/45
f 40/57/46 43/60/46 41/58/46
f 33/46/47 23/32/47 43/60/47
f 44/61/48 45/62/48 30/63/48
f 15/64/49 46/65/49 45/62/49
f 46/66/50 47/67/50 10/68/50
f 47/67/51 7/69/51 11/70/51
f 45/62/52 44/61/52 17/71/52
f 44/61/53 30/63/53 31/72/53
f 13/73/54 15/64/54 45/62/54
f 46/65/55 10/74/55 45/62/55
f 45/62/56 10/74/56 30/63/56
f 47/67/57 11/70/57 10/68/57
f 47/67/58 48/75/58 7/69/58
f 46/66/59 15/76/59 47/67/59
f 18/77/60 47/67/60 15/76/60
f 47/67/61 18/77/61 48/75/61
f 18/77/62 21/78/62 48/75/62
f 13/73/63 45/62/63 17/71/63
f 49/79/64 35/50/64 29/40/64
f 8/80/65 27/81/65 9/82/65
f 34/47/66 50/83/66 5/84/66
f 27/36/67 49/79/67 29/40/67
f 35/48/68 51/85/68 52/86/68
f 35/50/69 49/79/69 51/87/69
f 52/86/70 50/83/70 34/47/70
f 35/48/71 52/86/71 34/47/71
f 5/84/72 50/83/72 8/10/72
f 53/88/73 27/81/73 8/80/73
f 53/88/74 49/79/74 27/36/74
f 54/89/75 55/90/75 56/91/75
f 57/92/76 55/90/76 58/93/76
f 59/94/77 60/95/77 55/90/77
f 61/96/78 54/89/78 56/91/78
f 39/97/79 61/96/79 36/98/79
f 36/98/80 61/96/80 56/91/80
f 36/98/81 56/91/81 38/99/81
f 62/100/82 63/101/82 64/102/82
f 65/103/83 64/102/83 54/89/83
f 61/96/84 65/103/84 54/89/84
f 66/104/85 67/105/85 62/100/85
f 55/90/86 60/95/86 68/106/86
f 69/107/87 68/106/87 60/95/87
f 69/107/88 70/108/88 68/106/88
f 58/109/89 55/90/89 68/106/89
f 68/106/90 71/110/90 58/111/90
f 62/100/91 67/105/91 63/101/91
f 64/102/92 63/101/92 69/107/92
f 70/108/93 71/110/93 68/106/93
f 58/111/94 71/110/94 72/112/94
f 56/91/95 57/92/95 38/113/95
f 55/90/96 57/114/96 56/91/96
f 73/115/97 74/116/97 38/113/97
f 58/109/98 72/112/98 73/115/98
f 57/117/99 58/111/99 73/115/99
f 57/92/100 73/115/100 38/113/100
f 73/115/101 72/112/101 74/116/101
f 39/97/102 75/118/102 61/96/102
f 75/118/103 39/97/103 76/119/103
f 64/102/104 59/94/104 54/89/104
f 64/102/105 60/95/105 59/94/105
f 54/89/106 59/94/106 55/90/106
f 64/102/107 69/107/107 60/95/107
f 65/103/108 66/104/108 62/100/108
f 65/103/109 61/96/109 75/118/109
f 75/118/110 76/119/110 65/103/110
f 66/104/111 65/103/111 76/119/111
f 62/100/112 64/102/112 65/103/112
f 39/97/113 42/120/113 76/119/113
f 77/121/114 76/119/114 42/120/114
f 67/105/115 76/119/115 77/121/115
f 66/104/116 76/119/116 67/105/116
f 9/82/117 25/34/117 10/42/117
f 51/122/118 49/123/118 78/124/118
f 79/125/119 50/126/119 52/127/119
f 52/127/120 51/122/120 79/125/120
f 80/128/121 81/129/121 53/130/121
f 51/122/122 78/124/122 79/125/122
f 82/131/123 50/126/123 79/125/123
f 50/126/124 82/131/124 8/132/124
f 53/133/125 78/124/125 49/123/125
f 83/134/126 84/135/126 85/136/126
f 84/135/127 83/134/127 86/137/127
f 86/137/128 87/138/128 84/135/128
f 88/139/129 84/135/129 87/138/129
f 87/138/130 89/140/130 88/139/130
f 90/141/131 88/139/131 89/140/131
f 91/142/132 92/143/132 90/141/132
f 90/141/133 89/140/133 91/142/133
f 85/136/134 92/144/134 91/145/134
f 91/145/135 83/134/135 85/136/135
f 80/128/136 93/146/136 83/134/136
f 94/147/137 83/134/137 93/146/137
f 93/146/138 87/138/138 94/147/138
f 87/138/139 93/146/139 95/148/139
f 95/148/140 96/149/140 87/138/140
f 89/140/141 87/138/141 96/149/141
f 97/150/142 91/142/142 89/140/142
f 97/151/143 81/129/143 80/128/143
f 8/132/144 82/131/144 80/128/144
f 93/146/145 80/128/145 98/152/145
f 98/152/146 95/148/146 93/146/146
f 95/148/147 82/131/147 79/125/147
f 79/125/148 78/124/148 95/148/148
f 96/149/149 95/148/149 78/124/149
f 78/124/150 53/133/150 81/153/150
f 81/153/151 96/149/151 78/124/151
f 80/128/152 53/130/152 8/154/152
f 94/147/153 87/138/153 86/137/153
f 86/137/154 83/134/154 94/147/154
f 97/151/155 83/134/155 91/145/155
f 89/140/156 96/149/156 97/150/156
f 80/128/157 83/134/157 97/151/157
f 81/153/158 97/150/158 96/149/158
f 82/131/159 95/148/159 98/152/159
f 98/152/160 80/128/160 82/131/160
f 85/136/161 99/155/161 100/156/161
f 99/155/162 85/136/162 84/135/162
f 84/135/163 101/157/163 99/155/163
f 101/157/164 84/135/164 88/139/164
f 88/139/165 90/141/165 101/157/165
f 102/158/166 101/157/166 90/141/166
f 90/141/167 103/159/167 102/158/167
f 103/159/168 90/141/168 92/143/168
f 92/144/169 85/136/169 103/160/169
f 100/156/170 103/160/170 85/136/170
f 104/161/171 105/162/171 106/163/171
f 107/164/172 106/163/172 108/165/172
f 109/166/173 110/167/173 103/168/173
f 109/166/174 111/169/174 104/161/174
f 104/161/175 110/167/175 109/166/175
f 104/161/176 111/169/176 112/170/176
f 113/171/177 112/170/177 111/169/177
f 106/163/178 110/167/178 104/161/178
f 104/161/179 112/170/179 105/162/179
f 105/172/180 113/173/180 111/174/180
f 113/173/181 105/172/181 112/175/181
f 105/172/182 111/174/182 109/176/182
f 109/176/183 106/177/183 105/172/183
f 109/176/184 100/178/184 106/177/184
f 103/179/185 100/178/185 109/176/185
f 102/180/186 103/168/186 110/167/186
f 106/163/187 114/181/187 108/165/187
f 115/182/188 116/183/188 106/177/188
f 116/184/189 117/185/189 118/186/189
f 108/165/190 114/181/190 119/187/190
f 119/187/191 120/188/191 108/165/191
f 118/189/192 121/190/192 114/191/192
f 114/191/193 121/190/193 117/192/193
f 116/193/194 115/194/194 119/187/194
f 120/188/195 119/187/195 115/194/195
f 121/195/196 118/186/196 117/185/196
f 108/165/197 101/196/197 102/180/197
f 115/182/198 106/177/198 100/178/198
f 100/178/199 99/197/199 115/182/199
f 120/188/200 99/198/200 101/196/200
f 106/163/201 107/164/201 110/167/201
f 108/165/202 120/188/202 101/196/202
f 120/188/203 115/194/203 99/198/203
f 107/164/204 102/180/204 110/167/204
f 102/180/205 107/164/205 108/165/205
f 118/199/206 106/177/206 116/183/206
f 114/181/207 106/163/207 118/200/207
f 114/191/208 117/192/208 119/201/208
f 117/192/209 116/202/209 119/201/209
f 122/203/210 123/204/210 124/205/210
f 125/206/211 126/207/211 123/208/211
f 125/206/212 123/208/212 127/209/212
f 125/210/213 128/211/213 126/212/213
f 128/211/214 129/213/214 126/212/214
f 128/214/215 124/215/215 129/216/215
f 122/217/216 124/215/216 128/214/216
f 130/218/217 128/211/217 125/219/217
f 131/220/218 122/221/218 130/222/218
f 132/223/219 125/224/219 127/225/219
f 132/226/220 131/227/220 125/219/220
f 133/228/221 131/227/221 132/226/221
f 133/229/222 122/221/222 131/220/222
f 130/218/223 125/219/223 131/227/223
f 128/214/224 130/222/224 122/221/224
f 127/209/225 123/204/225 122/203/225
f 16/230/226 133/228/226 14/231/226
f 16/232/227 3/3/227 133/229/227
f 14/231/228 133/228/228 132/226/228
f 14/233/229 132/223/229 19/234/229
f 132/223/230 127/225/230 19/234/230
f 20/235/231 19/234/231 127/225/231
f 20/235/232 127/225/232 122/236/232
f 3/3/233 122/221/233 133/229/233
f 3/237/234 20/235/234 122/236/234
f 134/238/235 135/239/235 136/240/235
f 137/241/236 135/242/236 134/243/236
f 138/244/237 139/245/237 137/246/237
f 138/247/238 136/248/238 139/249/238
f 134/238/239 136/240/239 123/208/239
f 138/247/240 123/250/240 136/248/240
f 123/250/241 138/247/241 124/251/241
f 134/238/242 123/208/242 126/252/242
f 129/253/243 134/243/243 126/254/243
f 137/241/244 134/243/244 129/253/244
f 138/244/245 137/246/245 129/255/245
f 138/244/246 129/255/246 124/256/246
f 136/257/247 140/258/247 139/259/247
f 136/257/248 141/260/248 140/258/248
f 142/261/249 139/259/249 140/258/249
f 135/262/250 143/263/250 141/260/250
f 141/264/251 143/265/251 142/266/251
f 142/266/252 140/267/252 141/264/252
f 137/268/253 143/263/253 135/262/253
f 135/262/254 141/260/254 136/257/254
f 139/259/255 142/261/255 137/268/255
f 137/268/256 144/269/256 143/263/256
f 137/268/257 142/261/257 144/269/257
f 143/265/258 145/270/258 146/271/258
f 146/271/259 142/266/259 143/265/259
f 143/263/260 144/269/260 145/272/260
f 144/269/261 146/273/261 145/272/261
f 146/273/262 144/269/262 142/261/262
f 3/274/263 16/275/263 17/276/263
f 147/5/264 4/4/264 148/6/264
f 148/7/265 4/4/265 7/8/265
f 149/10/266 147/9/266 150/11/266
f 151/13/267 152/12/267 150/14/267
f 151/15/268 148/6/268 7/8/268
f 153/16/269 148/6/269 151/13/269
f 147/5/270 153/17/270 150/14/270
f 147/5/271 148/6/271 153/17/271
f 153/18/272 151/13/272 150/19/272
f 154/21/273 155/20/273 156/22/273
f 155/20/274 154/21/274 157/23/274
f 155/20/275 157/24/275 17/25/275
f 154/21/276 156/22/276 158/26/276
f 159/27/277 154/21/277 158/26/277
f 160/28/278 158/26/278 21/29/278
f 159/27/279 158/26/279 160/28/279
f 3/30/280 160/28/280 21/29/280
f 22/31/281 147/9/281 23/32/281
f 161/34/282 24/33/282 162/35/282
f 161/34/283 163/36/283 150/37/283
f 163/39/284 164/38/284 165/40/284
f 161/34/285 166/41/285 24/33/285
f 166/41/286 161/34/286 152/42/286
f 24/33/287 166/41/287 31/43/287
f 162/44/288 24/33/288 32/45/288
f 167/47/289 168/46/289 147/9/289
f 22/31/290 4/4/290 147/9/290
f 161/34/291 162/35/291 163/39/291
f 169/48/292 168/46/292 167/47/292
f 162/35/293 32/45/293 164/38/293
f 168/46/294 23/32/294 147/9/294
f 163/39/295 162/35/295 164/38/295
f 165/40/296 164/38/296 170/49/296
f 171/51/297 169/50/297 165/40/297
f 38/52/298 164/38/298 32/45/298
f 38/52/299 170/49/299 164/38/299
f 171/53/300 170/49/300 172/54/300
f 171/56/301 172/55/301 173/57/301
f 42/59/302 41/58/302 172/55/302
f 173/57/303 172/55/303 41/58/303
f 165/40/304 170/49/304 171/51/304
f 169/48/305 171/56/305 168/46/305
f 168/46/306 171/56/306 173/57/306
f 168/46/307 173/57/307 43/60/307
f 43/60/308 173/57/308 41/58/308
f 23/32/309 168/46/309 43/60/309
f 174/62/310 44/61/310 166/63/310
f 175/65/311 156/64/311 174/62/311
f 176/67/312 175/66/312 152/68/312
f 7/69/313 176/67/313 151/70/313
f 44/61/314 174/62/314 17/71/314
f 166/63/315 44/61/315 31/72/315
f 156/64/316 155/73/316 174/62/316
f 152/74/317 175/65/317 174/62/317
f 152/74/318 174/62/318 166/63/318
f 151/70/319 176/67/319 152/68/319
f 48/75/320 176/67/320 7/69/320
f 156/76/321 175/66/321 176/67/321
f 176/67/322 158/77/322 156/76/322
f 158/77/323 176/67/323 48/75/323
f 21/78/324 158/77/324 48/75/324
f 174/62/325 155/73/325 17/71/325
f 169/50/326 177/79/326 165/40/326
f 163/81/327 149/80/327 150/82/327
f 178/83/328 167/47/328 147/84/328
f 177/79/329 163/36/329 165/40/329
f 179/85/330 169/48/330 180/86/330
f 177/79/331 169/50/331 179/87/331
f 178/83/332 180/86/332 167/47/332
f 180/86/333 169/48/333 167/47/333
f 178/83/334 147/84/334 149/10/334
f 163/81/335 181/88/335 149/80/335
f 177/79/336 181/88/336 163/36/336
f 182/90/337 183/89/337 184/91/337
f 182/90/338 185/92/338 186/93/338
f 187/95/339 188/94/339 182/90/339
f 183/89/340 189/96/340 184/91/340
f 189/96/341 172/97/341 170/98/341
f 189/96/342 170/98/342 184/91/342
f 184/91/343 170/98/343 38/99/343
f 63/101/344 190/100/344 191/102/344
f 191/102/345 192/103/345 183/89/345
f 192/103/346 189/96/346 183/89/346
f 67/105/347 193/104/347 190/100/347
f 187/95/348 182/90/348 194/106/348
f 194/106/349 69/107/349 187/95/349
f 70/108/350 69/107/350 194/106/350
f 182/90/351 186/109/351 194/106/351
f 71/110/352 194/106/352 186/111/352
f 67/105/353 190/100/353 63/101/353
f 63/101/354 191/102/354 69/107/354
f 71/110/355 70/108/355 194/106/355
f 71/110/356 186/111/356 72/112/356
f 185/92/357 184/91/357 38/113/357
f 185/114/358 182/90/358 184/91/358
f 74/116/359 195/115/359 38/113/359
f 72/112/360 186/109/360 195/115/360
f 186/111/361 185/117/361 195/115/361
f 195/115/362 185/92/362 38/113/362
f 72/112/363 195/115/363 74/116/363
f 196/118/364 172/97/364 189/96/364
f 172/97/365 196/118/365 197/119/365
f 188/94/366 191/102/366 183/89/366
f 187/95/367 191/102/367 188/94/367
f 188/94/368 183/89/368 182/90/368
f 69/107/369 191/102/369 187/95/369
f 193/104/370 192/103/370 190/100/370
f 189/96/371 192/103/371 196/118/371
f 197/119/372 196/118/372 192/103/372
f 192/103/373 193/104/373 197/119/373
f 191/102/374 190/100/374 192/103/374
f 42/120/375 172/97/375 197/119/375
f 197/119/376 77/121/376 42/120/376
f 197/119/377 67/105/377 77/121/377
f 197/119/378 193/104/378 67/105/378
f 161/34/379 150/82/379 152/42/379
f 177/123/380 179/122/380 198/124/380
f 178/126/381 199/125/381 180/127/381
f 179/122/382 180/127/382 199/125/382
f 200/129/383 201/128/383 181/130/383
f 198/124/384 179/122/384 199/125/384
f 178/126/385 202/131/385 199/125/385
f 202/131/386 178/126/386 149/132/386
f 198/124/387 181/133/387 177/123/387
f 203/135/388 204/134/388 205/136/388
f 204/134/389 203/135/389 206/137/389
f 207/138/390 206/137/390 203/135/390
f 203/135/391 208/139/391 207/138/391
f 209/140/392 207/138/392 208/139/392
f 208/139/393 210/141/393 209/140/393
f 211/143/394 212/142/394 210/141/394
f 209/140/395 210/141/395 212/142/395
f 211/144/396 205/136/396 212/145/396
f 204/134/397 212/145/397 205/136/397
f 213/146/398 201/128/398 204/134/398
f 204/134/399 214/147/399 213/146/399
f 207/138/400 213/146/400 214/147/400
f 213/146/401 207/138/401 215/148/401
f 216/149/402 215/148/402 207/138/402
f 207/138/403 209/140/403 216/149/403
f 212/142/404 217/150/404 209/140/404
f 200/129/405 217/151/405 201/128/405
f 202/131/406 149/132/406 201/128/406
f 201/128/407 213/146/407 218/152/407
f 215/148/408 218/152/408 213/146/408
f 202/131/409 215/148/409 199/125/409
f 198/124/410 199/125/410 215/148/410
f 215/148/411 216/149/411 198/124/411
f 181/133/412 198/124/412 200/153/412
f 216/149/413 200/153/413 198/124/413
f 181/130/414 201/128/414 149/154/414
f 207/138/415 214/147/415 206/137/415
f 204/134/416 206/137/416 214/147/416
f 204/134/417 217/151/417 212/145/417
f 216/149/418 209/140/418 217/150/418
f 204/134/419 201/128/419 217/151/419
f 217/150/420 200/153/420 216/149/420
f 215/148/421 202/131/421 218/152/421
f 201/128/422 218/152/422 202/131/422
f 219/155/423 205/136/423 220/156/423
f 205/136/424 219/155/424 203/135/424
f 221/157/425 203/135/425 219/155/425
f 203/135/426 221/157/426 208/139/426
f 210/141/427 208/139/427 221/157/427
f 221/157/428 222/158/428 210/141/428
f 223/159/429 210/141/429 222/158/429
f 210/141/430 223/159/430 211/143/430
f 205/136/431 211/144/431 223/160/431
f 223/160/432 220/156/432 205/136/432
f 224/162/433 225/161/433 226/163/433
f 226/163/434 227/164/434 228/165/434
f 229/167/435 230/166/435 223/168/435
f 231/169/436 230/166/436 225/161/436
f 229/167/437 225/161/437 230/166/437
f 231/169/438 225/161/438 232/170/438
f 232/170/439 233/171/439 231/169/439
f 229/167/440 226/163/440 225/161/440
f 232/170/441 225/161/441 224/162/441
f 233/173/442 224/172/442 231/174/442
f 224/172/443 233/173/443 232/175/443
f 231/174/444 224/172/444 230/176/444
f 226/177/445 230/176/445 224/172/445
f 220/178/446 230/176/446 226/177/446
f 220/178/447 223/179/447 230/176/447
f 223/168/448 222/180/448 229/167/448
f 234/181/449 226/163/449 228/165/449
f 235/183/450 236/182/450 226/177/450
f 237/185/451 235/184/451 238/186/451
f 234/181/452 228/165/452 239/187/452
f 240/188/453 239/187/453 228/165/453
f 241/190/454 238/189/454 234/191/454
f 241/190/455 234/191/455 237/192/455
f 236/194/456 235/193/456 239/187/456
f 239/187/457 240/188/457 236/194/457
f 238/186/458 241/195/458 237/185/458
f 221/196/459 228/165/459 222/180/459
f 226/177/460 236/182/460 220/178/460
f 219/197/461 220/178/461 236/182/461
f 219/198/462 240/188/462 221/196/462
f 227/164/463 226/163/463 229/167/463
f 240/188/464 228/165/464 221/196/464
f 236/194/465 240/188/465 219/198/465
f 222/180/466 227/164/466 229/167/466
f 227/164/467 222/180/467 228/165/467
f 226/177/468 238/199/468 235/183/468
f 226/163/469 234/181/469 238/200/469
f 237/192/470 234/191/470 239/201/470
f 235/202/471 237/192/471 239/201/471
f 242/204/472 243/203/472 244/205/472
f 245/207/473 246/206/473 242/208/473
f 242/208/474 246/206/474 247/209/474
f 248/211/475 246/210/475 245/212/475
f 249/213/476 248/211/476 245/212/476
f 244/215/477 248/214/477 249/216/477
f 244/215/478 243/217/478 248/214/478
f 248/211/479 250/218/479 246/219/479
f 243/221/480 251/220/480 250/222/480
f 246/224/481 252/223/481 247/225/481
f 251/227/482 252/226/482 246/219/482
f 251/227/483 253/228/483 252/226/483
f 243/221/484 253/229/484 251/220/484
f 246/219/485 250/218/485 251/227/485
f 250/222/486 248/214/486 243/221/486
f 242/204/487 247/209/487 243/203/487
f 253/228/488 157/230/488 154/231/488
f 3/3/489 157/232/489 253/229/489
f 253/228/490 154/231/490 252/226/490
f 252/223/491 154/233/491 159/234/491
f 247/225/492 252/223/492 159/234/492
f 159/234/493 160/235/493 247/225/493
f 247/225/494 160/235/494 243/236/494
f 243/221/495 3/3/495 253/229/495
f 160/235/496 3/237/496 243/236/496
f 254/239/497 255/238/497 256/240/497
f 254/242/498 257/241/498 255/243/498
f 258/245/499 259/244/499 257/246/499
f 256/248/500 259/247/500 258/249/500
f 256/240/501 255/238/501 242/208/501
f 242/250/502 259/247/502 256/248/502
f 259/247/503 242/250/503 244/251/503
f 242/208/504 255/238/504 245/252/504
f 255/243/505 249/253/505 245/254/505
f 255/243/506 257/241/506 249/253/506
f 257/246/507 259/244/507 249/255/507
f 249/255/508 259/244/508 244/256/508
f 260/258/509 256/257/509 258/259/509
f 261/260/510 256/257/510 260/258/510
f 258/259/511 262/261/511 260/258/511
f 263/263/512 254/262/512 261/260/512
f 263/265/513 261/264/513 262/266/513
f 260/267/514 262/266/514 261/264/514
f 263/263/515 257/268/515 254/262/515
f 261/260/516 254/262/516 256/257/516
f 262/261/517 258/259/517 257/268/517
f 264/269/518 257/268/518 263/263/518
f 262/261/519 257/268/519 264/269/519
f 265/270/520 263/265/520 266/271/520
f 262/266/521 266/271/521 263/265/521
f 264/269/522 263/263/522 265/272/522
f 266/273/523 264/269/523 265/272/523
f 264/269/524 266/273/524 262/261/524
f 157/275/525 3/274/525 17/276/525

o 
usemtl axe.001
s off

v 4.732000 13.615050 39.659840
v 2.624410 16.182631 33.134018
v 0.781780 6.396870 37.346581
v 0.443270 8.821850 35.069588
v -0.147570 5.009630 36.007339
v -0.486070 7.434620 33.730339
v -3.005610 2.065030 28.509449
v -2.218100 8.954161 26.155661
v 5.392030 8.886680 44.099640
v -2.345580 -2.663330 32.949261
v 4.604530 1.997550 46.453438
v 1.120280 3.971880 39.623581
v 0.190940 2.584640 38.284340
v -0.237990 -5.230920 39.475082
v 2.195480 8.367070 34.324760
v 2.533990 5.942080 36.601761
v 1.266140 6.979830 32.985519
v 1.604640 4.554850 35.262512
v 2.872490 3.517100 38.878750
v 1.943150 2.129860 37.539520
v -2.934630 33.020329 12.347850
v -3.863980 31.633091 11.008610
v -2.111760 31.178310 10.263781
v -2.260860 35.842190 13.244940
v 2.244560 -2.055770 43.376541
v -7.386760 56.864010 -12.681540
v -5.719270 56.420441 -13.476690
v -4.705210 57.796501 -12.087170
v -6.457410 58.251228 -11.342279

vt 0.033358 0.643728
vt 0.190411 0.923560
vt 0.402692 0.503812
vt 0.402692 0.647326
vt 0.408249 0.287497
vt 0.408249 0.367848
vt 0.492649 0.287497
vt 0.492649 0.367848
vt 0.403043 0.503812
vt 0.403044 0.647326
vt 0.033710 0.643728
vt 0.190763 0.923560
vt 0.033358 0.363896
vt 0.033710 0.363896
vt 0.190411 0.084064
vt 0.402692 0.360297
vt 0.408249 0.207147
vt 0.492649 0.207147
vt 0.403043 0.360297
vt 0.190763 0.084064
vt 0.408248 1.036942
vt 0.492649 1.036942
vt 0.483600 0.371280
vt 0.402049 0.371280
vt 0.402049 1.040375
vt 0.483600 1.040375
vt 0.450449 0.037941
vt 0.483600 0.210579
vt 0.402049 0.210579
vt 0.442825 0.041374
vt 0.000000 1.000000

vn -0.850092 0.334996 0.406351
vn -0.782579 0.364587 0.504624
vn -0.895122 0.232329 0.380500
vn -0.942010 0.150259 0.300065
vn -0.946756 0.195598 0.255725
vn -0.834446 0.310819 0.455072
vn -0.825958 0.264507 0.497824
vn -0.966877 0.089483 0.239041
vn -0.928304 0.126585 0.349611
vn 0.966879 -0.089482 -0.239037
vn 0.928304 -0.126585 -0.349611
vn 0.895121 -0.232328 -0.380501
vn 0.825959 -0.264507 -0.497823
vn 0.834446 -0.310818 -0.455073
vn 0.942010 -0.150258 -0.300066
vn 0.946756 -0.195598 -0.255724
vn 0.850092 -0.334996 -0.406351
vn 0.782581 -0.364587 -0.504622
vn -0.413722 -0.114890 -0.903125
vn 0.297582 0.946881 0.121907
vn 0.413719 0.114890 0.903126
vn -0.297578 -0.946882 -0.121909
vn 0.991664 0.090395 -0.091822
vn 0.440681 0.590322 0.676255
vn -0.948693 0.135729 0.285587
vn -0.434172 -0.648096 -0.625672
vn -0.872660 0.130260 0.470635
vn 0.900536 -0.329970 -0.283117
vn -0.414029 -0.749722 -0.516233
vn 0.444456 0.531751 0.720902
vn -0.448180 -0.644981 -0.618978
vn -0.576736 0.552375 0.601878
vn 0.987871 -0.031434 -0.152062
vn -0.895118 0.232308 0.380523
vn -0.091207 0.740058 -0.666330
vn -0.125226 0.731238 -0.670529

f 267/277/526 268/278/526 269/279/526
f 270/280/527 269/279/527 268/278/527
f 269/281/528 270/282/528 271/283/528
f 272/284/528 271/283/528 270/282/528
f 271/285/529 272/286/529 273/287/529
f 274/288/530 273/287/530 272/286/530
f 275/289/531 267/277/531 269/279/531
f 273/287/529 276/290/529 271/285/529
f 277/291/532 275/289/532 278/292/532
f 269/279/531 278/292/531 275/289/531
f 278/293/528 269/281/528 279/294/528
f 271/283/528 279/294/528 269/281/528
f 279/295/533 271/285/533 280/296/533
f 276/290/534 280/296/534 271/285/534
f 281/280/535 268/278/535 282/279/535
f 267/277/536 282/279/536 268/278/536
f 283/284/537 281/282/537 284/283/537
f 282/281/537 284/283/537 281/282/537
f 274/288/538 283/286/538 273/287/538
f 284/285/539 273/287/539 283/286/539
f 282/279/540 267/277/540 275/289/540
f 273/287/539 284/285/539 276/290/539
f 282/279/540 275/289/540 285/292/540
f 277/291/541 285/292/541 275/289/541
f 284/283/537 282/281/537 286/294/537
f 285/293/537 286/294/537 282/281/537
f 276/290/542 284/285/542 280/296/542
f 286/295/543 280/296/543 284/285/543
f 270/280/544 268/278/544 281/280/544
f 283/286/545 274/288/545 272/286/545
f 279/295/546 280/296/546 286/295/546
f 285/292/547 277/291/547 278/292/547
f 272/284/528 270/282/528 287/297/528
f 287/297/528 288/298/528 272/284/528
f 281/282/537 283/284/537 289/298/537
f 289/298/548 290/297/548 281/282/548
f 270/299/549 281/300/549 290/301/549
f 290/301/550 287/302/550 270/299/550
f 283/300/551 272/299/551 288/302/551
f 288/302/551 289/301/551 283/300/551
f 278/293/552 279/294/552 291/303/552
f 286/294/553 285/293/553 291/303/553
f 279/304/554 286/305/554 291/306/554
f 285/305/555 278/304/555 291/306/555
f 289/298/556 288/297/556 292/298/556 293/307/556
f 287/297/557 290/298/557 294/297/557 295/307/557
f 290/297/558 289/298/558 293/297/558 294/307/558
f 288/298/559 287/297/559 295/298/559 292/307/559
f 294/297/560 293/298/560 295/297/560
f 292/298/561 295/297/561 293/298/561

