mtllib anim_barb_attack_000043.mtl

o fat
usemtl fat.001
s off

v -0.137810 34.544899 -8.057560
v 1.860240 36.144421 6.136090
v 0.318890 34.076031 -3.226860
v 0.410170 57.008438 -12.880791
v 9.299520 62.319878 -10.980950
v 2.812830 53.141571 -12.473730
v -0.362600 48.688641 -10.972680
v 7.200580 58.771053 -7.820260
v 7.702180 53.210941 -7.150230
v 6.919220 48.259319 -6.921120
v 4.142630 48.573700 -11.048550
v 6.403020 53.730667 -11.919630
v 9.003670 33.459599 0.108840
v 9.352560 35.657688 -6.382060
v 10.561490 35.165989 -6.878250
v 6.412280 34.293091 -0.006690
v 3.993900 33.164211 2.366250
v 4.408740 33.816650 -11.519890
v 3.744780 35.487129 -10.432000
v 0.502520 34.621601 -9.227250
v -0.321370 31.007280 -8.149350
v 0.201120 62.539139 -11.899930
v 0.170300 64.485405 -11.582240
v 0.128960 52.949570 0.257510
v 5.379790 53.218887 -2.218440
v 6.255160 57.051247 -0.303130
v 8.980730 57.359940 -2.730460
v 6.123870 59.786560 0.309970
v 10.787320 62.291698 -3.926250
v 4.497020 49.047096 -0.657790
v 1.102870 47.090969 -1.094170
v 0.791740 59.264378 1.991690
v 4.825240 66.403519 -7.791230
v 11.136540 62.371719 -9.405830
v 11.395411 63.476868 -6.127650
v 2.905110 64.374527 0.572530
v 5.512380 66.567741 -3.503480
v 0.171630 63.403511 1.063230
v 2.663080 70.415405 -0.873140
v 3.279240 68.924431 -4.646040
v 0.247260 69.269211 -5.425370
v 0.175950 71.355217 -1.918290
v 0.334850 67.705925 -7.676680
v 0.489180 44.031311 0.337700
v 5.364230 44.444611 0.320430
v 8.418850 44.092861 -4.857040
v 4.990360 43.498501 -10.066780
v -0.188040 43.415371 -11.937961
v 10.018950 62.677597 -3.614440
v 9.831880 58.093750 -9.521521
v 11.998970 61.089512 -4.462150
v 12.156500 60.811050 -7.751520
v 6.503740 61.950039 -3.194570
v 2.581520 68.524765 4.309410
v 1.180830 66.629860 5.618940
v 2.894370 64.664871 1.831980
v 1.639600 63.117008 3.590420
v 0.698310 65.316856 5.228860
v 1.643460 68.588478 5.909960
v -0.144470 68.397339 6.135740
v 3.177320 70.484192 2.011080
v 0.535690 72.244049 7.234540
v -0.763210 72.129898 7.483810
v 1.701340 69.667458 6.826970
v 2.256590 71.721748 6.294990
v 1.223440 74.209938 4.939310
v -0.414440 74.253166 4.749060
v 0.269850 66.507339 6.128510
v -0.765430 69.049988 6.597020
v -0.900690 66.799004 7.236780
v -0.835060 66.387627 6.482980
v -0.843340 64.849861 6.109400
v 0.535200 62.277950 5.014530
v -0.861440 62.132957 5.482750
v 3.025130 72.743614 2.612600
v 2.543030 74.085037 2.372890
v -0.045170 74.613617 1.296990
v 10.549789 60.932468 -1.680290
v 12.288280 58.431580 -3.849970
v 5.126710 54.792728 -2.541750
v 5.528970 58.294941 0.431270
v 9.393929 55.428612 -6.385840
v 5.375230 51.998592 1.468480
v 4.469670 51.919632 6.609110
v 3.439950 53.207870 4.057530
v 8.375020 50.234726 2.149540
v 9.755031 52.899788 2.731770
v 7.111760 53.045269 7.217310
v 8.545900 54.167191 4.052200
v 7.452070 55.274902 6.345370
v 5.811680 53.536400 4.554970
v 5.513270 56.066891 4.583650
v 8.784081 51.986992 -0.249850
v 8.711510 51.151890 0.806110
v 11.632380 56.151909 -1.045400
v 9.800490 58.508690 0.814720
v 5.907910 54.886780 3.275180
v 9.494280 52.907349 -2.943750
v 0.494050 56.352272 10.648570
v 0.052420 57.637093 9.326530
v 1.785960 56.877842 11.347790
v 2.359490 58.492241 10.549231
v 1.496010 59.174217 9.309550
v -0.607350 63.573898 11.145960
v -1.277530 62.980991 11.366261
v -0.617510 61.852051 11.485041
v 0.347670 61.807999 11.509239
v 0.148540 61.580170 13.177790
v -0.280950 61.825390 9.423941
v 0.221810 62.309742 10.633930
v -1.326590 63.564037 10.313410
v -1.616500 64.402618 11.825290
v -2.123140 64.284737 11.161980
v -1.392850 62.759430 14.284200
v -2.526720 57.504848 13.348760
v -3.633440 58.474888 14.660439
v -4.947430 60.398849 16.427010
v -1.749350 62.844810 13.046670
v -2.765340 58.729118 15.202980
v -1.458010 57.719723 14.163429
v -3.555570 64.277489 15.248050
v 3.921370 22.364990 -6.800150
v 7.434250 22.584141 -15.153900
v 5.166040 16.939810 -11.764211
v 9.747220 23.297441 -7.514960
v 12.371840 19.393391 -12.426950
v 6.138400 23.797520 -10.551890
v 8.111240 19.503630 -5.851140
v 9.179430 15.350170 -9.205180
v 7.888700 21.447470 -4.236870
v 7.954090 24.212648 -4.287240
v 10.529190 27.154350 -8.298710
v 7.679520 28.462082 -1.545120
v 11.956300 13.980160 -21.866381
v 13.255120 13.051530 -25.086020
v 10.040060 14.381731 -26.027588
v 11.152060 12.147770 -22.074371
v 8.469650 13.605530 -22.577751
v 8.442750 11.639100 -24.777149
v 9.486050 10.054450 -29.117290
v 12.465971 10.576340 -29.318420
v 10.414330 6.473810 -21.276819
v 16.308100 8.306610 -21.791079
v 13.266920 7.863390 -17.510639
v 16.005110 6.571960 -18.008999
v 12.284350 5.160250 -17.097170
v -9.559200 60.801182 -9.653880
v -1.892230 53.138451 -12.601399
v -5.920830 58.073711 -4.014800
v -7.318430 53.100182 -7.064120
v -4.956670 48.416672 -9.597770
v -6.374790 47.576134 -5.076420
v -5.753590 53.739319 -11.923740
v -9.006149 35.527981 -4.744050
v -7.268280 33.779999 1.555480
v -10.268280 34.902119 -4.766370
v -4.827410 37.184200 0.409780
v -5.057970 31.598101 -9.031390
v -4.554060 34.437889 -9.363891
v -1.041260 33.313530 -8.496120
v -4.829290 53.079170 -1.904420
v -5.086390 56.755608 0.561050
v -10.126430 57.465481 -1.094490
v -4.769800 59.449532 1.335610
v -10.252360 62.852577 -1.567380
v -2.454760 46.972122 -1.013780
v -11.435221 61.816139 -8.034050
v -4.955480 66.279381 -7.460660
v -11.566271 63.459557 -4.071790
v -2.595220 64.347221 0.593380
v -5.925580 66.533478 -3.462060
v -2.505460 70.549042 -1.346480
v -2.831450 68.985901 -4.876100
v -3.837170 44.040352 1.174840
v -7.887930 43.733559 -4.042670
v -5.416080 42.579170 -9.869679
v -11.504689 62.283859 -1.570050
v -9.532550 56.284309 -6.999450
v -13.199000 61.703102 -3.725970
v -12.578501 58.664841 -5.951530
v -9.725330 59.179039 -1.269550
v -2.612380 66.745918 5.225290
v -3.597380 68.713829 3.668180
v -3.200620 64.775101 1.499780
v -2.856860 63.254601 3.123780
v -2.140430 65.403717 4.934270
v -1.316860 68.433212 6.014090
v -3.005530 68.730728 5.427490
v -3.589360 70.691254 1.308850
v -1.974020 72.320839 6.974070
v -3.184930 69.816978 6.319880
v -3.493930 71.897728 5.698210
v -2.056070 74.310280 4.599000
v -1.834430 66.571732 5.910130
v -2.120930 62.359230 4.738870
v -3.427430 72.941040 1.942990
v -2.826160 74.249321 1.815670
v -12.696919 60.019070 -0.622040
v -13.748159 57.870567 -3.536190
v -9.151939 56.696018 2.860790
v -7.788870 53.433441 -0.074990
v -10.347461 54.738068 -5.189400
v -7.974750 48.035351 3.138190
v -9.737370 50.314621 3.387650
v -9.416720 51.092766 4.762080
v -12.832500 48.795082 2.508790
v -14.164740 51.561810 2.732500
v -10.100729 46.403351 4.267120
v -13.600481 52.556938 4.605680
v -11.402450 47.109852 6.915380
v -10.545569 49.427418 8.350110
v -11.397000 51.634411 6.121210
v -12.109920 50.739830 0.318640
v -12.475170 49.897079 1.238260
v -14.292490 55.202423 -1.071820
v -13.221970 57.247448 1.600940
v -10.563340 53.528572 4.149320
v -11.641500 51.860882 -2.250100
v -3.337690 45.094971 8.335930
v -3.734890 45.742119 9.138960
v -4.699920 43.454151 7.914810
v -5.662280 43.828056 9.552549
v -5.269450 45.124329 10.442700
v -2.213400 43.037163 14.286680
v -3.152620 43.292831 14.850800
v -2.566650 42.942772 13.226270
v -3.794260 42.956409 12.941410
v -3.113510 41.448471 12.554950
v -3.965770 43.750519 13.552880
v -3.569070 44.991688 13.400120
v -2.698730 44.279060 15.030951
v -2.079600 42.789467 15.723420
v -1.769020 43.572559 15.751200
v -1.447550 40.627178 13.794290
v 0.764070 41.599842 9.467820
v -0.337340 42.847008 8.845850
v 2.041470 39.722210 10.871000
v -1.501670 41.553532 13.786690
v 0.509280 40.706009 9.903050
v -0.929320 41.499092 8.855810
v 0.499670 39.739708 15.003220
v -6.751060 19.569319 -3.189910
v -3.220660 25.093540 4.181240
v -4.404810 17.302080 1.044240
v -11.643810 19.032940 -0.004270
v -9.070810 25.535919 2.864230
v -5.489470 25.590460 0.541210
v -7.293360 22.931110 5.628430
v -8.375540 16.687000 4.001130
v -7.160360 25.143900 6.610740
v -6.552380 27.514820 5.950090
v -10.019031 28.913109 2.202800
v -5.989530 33.657761 3.269510
v -12.424550 5.920750 -4.246480
v -11.149830 8.597560 -3.030730
v -9.261070 6.626200 -6.219440
v -10.279400 6.317830 -1.112330
v -7.592890 4.785720 -3.490890
v -7.645580 7.759670 -2.523110
v -8.567080 1.590810 -6.930590
v -11.577710 2.297670 -7.398490
v -9.320570 0.947450 1.468250
v -15.279690 2.512520 0.600460
v -12.191710 4.111950 4.717490
v -14.886820 2.650520 4.837690
v -11.112190 1.833220 6.161570

vt 0.550479 0.485338
vt 0.414517 0.485338
vt 0.489174 0.497239
vt 0.490853 0.675485
vt 0.356970 0.710738
vt 0.458986 0.602657
vt 0.458693 0.603155
vt 0.491001 0.506534
vt 0.357039 0.710738
vt 0.272881 0.708251
vt 0.307767 0.663467
vt 0.329118 0.504113
vt 0.420682 0.504388
vt 0.307693 0.663467
vt 0.420389 0.504181
vt 0.390374 0.619683
vt 0.389206 0.622726
vt 0.390855 0.620128
vt 0.309151 0.663075
vt 0.578845 0.971377
vt 0.529882 0.993867
vt 0.501054 0.950636
vt 0.597833 0.993868
vt 0.684209 0.993870
vt 0.691613 0.940228
vt 0.584242 0.936155
vt 0.602549 0.993867
vt 0.689094 0.993870
vt 0.694409 0.971380
vt 0.730001 0.975635
vt 0.490853 0.781888
vt 0.490853 0.820915
vt 0.240556 0.660920
vt 0.133663 0.660928
vt 0.131880 0.753091
vt 0.060606 0.782384
vt 0.055577 0.663688
vt 0.136145 0.808744
vt 0.060014 0.783494
vt 0.058190 0.859642
vt 0.160773 0.512959
vt 0.067037 0.515196
vt 0.240700 0.512959
vt 0.131877 0.752996
vt 0.240556 0.781375
vt 0.390182 0.870896
vt 0.298691 0.847983
vt 0.294173 0.886121
vt 0.181129 0.899551
vt 0.052544 0.886601
vt 0.145152 0.921474
vt 0.235241 0.891030
vt 0.142740 0.921054
vt 0.172936 0.966074
vt 0.456563 0.999059
vt 0.389917 0.922986
vt 0.429989 0.941889
vt 0.491140 0.942697
vt 0.490646 0.999330
vt 0.490853 0.898039
vt 0.701416 0.118225
vt 0.813217 0.120956
vt 0.790107 0.184348
vt 0.877923 0.002315
vt 0.872775 0.120438
vt 0.505869 0.118716
vt 0.564263 0.119120
vt 0.507564 0.183764
vt 0.697589 0.180917
vt 0.580429 0.182675
vt 0.710756 0.001536
vt 0.701372 0.182427
vt 0.812168 0.002315
vt 0.857243 0.184348
vt 0.697567 0.116528
vt 0.503935 0.000692
vt 0.561277 0.000692
vt 0.688827 -0.000098
vt 0.002866 0.854679
vt 0.027518 0.706813
vt 0.061197 0.782654
vt 0.055608 0.663958
vt 0.251604 0.781884
vt 0.357109 0.710738
vt 0.243886 0.876138
vt 0.247300 0.848527
vt -0.000514 0.880403
vt 0.006948 0.782948
vt 0.674684 0.829607
vt 0.705811 0.784366
vt 0.654033 0.662928
vt 0.703232 0.671848
vt 0.720473 0.730776
vt 0.697736 0.853617
vt 0.729837 0.853035
vt 0.623758 0.856571
vt 0.587609 0.811448
vt 0.658187 0.605708
vt 0.748523 0.593788
vt 0.716351 0.931575
vt 0.747491 0.935506
vt 0.695349 0.885675
vt 0.676247 0.904603
vt 0.649719 0.961956
vt 0.745560 1.001324
vt 0.725611 0.781438
vt 0.747491 0.878462
vt 0.747491 0.808438
vt 0.720379 0.731031
vt 0.747491 0.790807
vt 0.720762 0.730332
vt 0.748639 0.732530
vt 0.746944 0.628012
vt 0.703659 0.671442
vt 0.731857 0.666086
vt 0.747085 0.666819
vt 0.703186 0.671176
vt 0.611291 0.885598
vt 0.604148 0.909350
vt 0.550618 0.823662
vt 0.550618 0.934468
vt 0.625864 0.557513
vt 0.571978 0.557920
vt 0.578607 0.510287
vt 0.669444 0.510287
vt 0.756032 0.560223
vt 0.679695 0.557918
vt 0.877240 0.461159
vt 0.992418 0.461159
vt 0.944262 0.560223
vt 0.756457 0.510287
vt 0.806202 0.560223
vt 0.498275 0.560223
vt 0.875566 0.382888
vt 0.758260 0.308662
vt 0.875912 0.308662
vt 0.759996 0.360654
vt 0.669163 0.382888
vt 0.671223 0.308662
vt 0.584325 0.382888
vt 0.577057 0.308662
vt 0.498223 0.363687
vt 0.498247 0.308662
vt 0.992597 0.308662
vt 0.992439 0.363687
vt 0.759483 0.410364
vt 0.758924 0.382888
vt 0.665903 0.461159
vt 0.580075 0.461159
vt 0.498223 0.402657
vt 0.992438 0.402657
vt 0.760539 0.449273
vt 0.498220 0.461159
vt 0.875438 0.575163
vt 0.762705 0.196431
vt 0.858161 0.196355
vt 0.690657 0.196417
vt 0.588027 0.196417
vt 0.498144 0.196431
vt 0.991918 0.196431
vt 0.375723 0.009258
vt 0.380090 0.017573
vt 0.356438 0.030356
vt 0.342839 0.029458
vt 0.369327 0.043627
vt 0.316032 0.012201
vt 0.336848 0.019568
vt 0.249292 0.041099
vt 0.371147 0.002582
vt 0.416197 0.004791
vt 0.408124 0.000758
vt 0.128136 0.016613
vt 0.154876 0.002573
vt 0.119423 0.002194
vt 0.160447 0.001473
vt 0.065726 0.014292
vt 0.105093 0.028910
vt 0.000825 0.069213
vt 0.000703 0.039244
vt 0.249314 0.055441
vt 0.429228 0.045736
vt 0.102506 0.115410
vt 0.153549 0.117195
vt 0.189513 0.114692
vt 0.228429 0.109580
vt 0.194639 0.033982
vt 0.406548 0.108121
vt 0.355355 0.108206
vt 0.448349 0.035630
vt 0.498209 0.039288
vt 0.461840 0.047992
vt 0.483032 0.114221
vt 0.406174 0.120334
vt 0.355217 0.119080
vt 0.243215 0.037501
vt 0.249314 0.089732
vt 0.000703 0.095058
vt 0.249292 0.105039
vt 0.160984 0.032072
vt 0.413806 0.033644
vt 0.442212 0.108407
vt 0.443088 0.117732
vt 0.023914 0.327327
vt 0.104127 0.227894
vt 0.000784 0.227894
vt 0.216171 0.327327
vt 0.216985 0.228421
vt 0.105699 0.228145
vt 0.104981 0.327662
vt 0.217575 0.327327
vt 0.351490 0.301452
vt 0.217290 0.227894
vt 0.351571 0.227894
vt 0.352420 0.301452
vt 0.489174 0.227894
vt 0.352342 0.227894
vt 0.471690 0.333380
vt 0.351597 0.328057
vt 0.217345 0.328075
vt 0.352312 0.363299
vt 0.470864 0.334174
vt 0.352330 0.328057
vt 0.216660 0.380224
vt 0.216104 0.328075
vt 0.104983 0.328371
vt 0.217232 0.380224
vt 0.351611 0.363299
vt 0.351459 0.420971
vt 0.352499 0.420971
vt 0.351589 0.497239
vt 0.229465 0.497239
vt 0.352627 0.497239
vt 0.229583 0.497239
vt 0.133020 0.497239
vt 0.072972 0.497239
vt 0.025422 0.328212
vt 0.002386 0.497239
vt 0.216130 0.152222
vt 0.223982 0.125749
vt 0.105883 0.155747
vt 0.351732 0.147623
vt 0.223132 0.128232
vt 0.218721 0.149411
vt 0.469070 0.149411
vt 0.483427 0.127273
vt 0.352306 0.146326
vt 0.017963 0.152222
vt 0.104256 0.155747
vt 0.009616 0.131504
vt 0.104128 0.227914
vt 0.000790 0.227921
vt 0.216984 0.228396
vt 0.351571 0.227971
vt 0.217291 0.227882
vt 0.352342 0.227879
vt 0.489111 0.227891
vt 0.948232 0.041698
vt 0.989968 0.003451
vt 0.971575 0.059997
vt 0.909211 0.004273
vt 0.996004 0.120663
vt 0.925604 0.058708
vt 0.885225 0.122889
vt 0.516483 0.798440
vt 0.501430 0.685191
vt 0.597947 0.686709
vt 0.594444 0.793024
vt 0.950876 0.082499
vt 0.943924 0.157220
vt 0.507177 0.624822
vt 0.600053 0.622523
vt 0.901715 0.182549
vt 0.982420 0.184037
vt 0.730212 0.975635
vt 0.685579 0.991654
vt 0.692830 0.969164

vn 0.970365 -0.213861 -0.112498
vn 0.197704 0.019674 -0.980064
vn -0.167505 -0.205576 -0.964199
vn 0.740797 0.145847 0.655704
vn 0.814249 -0.154640 -0.559539
vn -0.023796 -0.304063 -0.952355
vn 0.186741 -0.242652 -0.951971
vn 0.918378 -0.279038 -0.280569
vn 0.142657 0.059863 -0.987960
vn 0.860715 -0.424687 -0.280734
vn -0.463845 -0.831236 -0.306422
vn -0.276912 -0.905506 -0.321526
vn -0.222153 -0.773050 -0.594173
vn -0.161797 -0.869242 0.467162
vn -0.453574 -0.605911 0.653561
vn 0.521868 0.132355 0.842695
vn 0.409445 -0.378012 0.830338
vn 0.975578 -0.219432 0.009904
vn 0.103028 0.161829 -0.981426
vn 0.393920 -0.481322 0.783042
vn 0.729129 -0.591460 0.344304
vn 0.693546 -0.080476 0.715903
vn 0.403258 0.244548 0.881804
vn 0.928506 -0.059353 0.366544
vn 0.003914 -0.224191 0.974537
vn 0.272533 -0.281286 0.920111
vn 0.384480 0.791866 -0.474471
vn 0.103130 0.177470 -0.978708
vn 0.619116 -0.459639 0.636732
vn 0.451725 0.834002 -0.316835
vn 0.312288 -0.193480 0.930076
vn 0.217048 0.737414 -0.639618
vn 0.667539 -0.132197 0.732745
vn 0.532171 0.328701 0.780224
vn 0.567144 0.649567 0.506370
vn 0.269051 0.249004 0.930381
vn 0.157735 0.054235 0.985991
vn 0.784428 0.173902 0.595341
vn 0.750827 0.646960 -0.133045
vn 0.473773 0.761079 -0.443055
vn 0.190746 0.923190 -0.333672
vn 0.515265 0.572585 0.637691
vn 0.426340 0.898709 -0.102744
vn 0.752372 0.642540 -0.145181
vn 0.221457 0.811149 -0.541290
vn 0.232347 0.803122 -0.548643
vn 0.201924 0.751440 -0.628143
vn -0.013944 0.205364 0.978586
vn 0.860295 0.092999 0.501242
vn 0.833638 0.026753 -0.551663
vn -0.021452 -0.193334 -0.980898
vn -0.011761 0.179820 0.983629
vn -0.365929 0.453668 0.812577
vn 0.913856 0.297446 0.276393
vn 0.767537 0.484296 0.419933
vn 0.914975 0.241162 0.323514
vn 0.830420 0.031101 -0.556269
vn 0.331693 0.180478 -0.925963
vn 0.777416 0.310454 -0.547030
vn 0.588045 0.085390 -0.804308
vn 0.335674 0.120060 -0.934296
vn -0.455839 -0.255436 -0.852621
vn 0.402371 0.115818 0.908121
vn -0.542292 -0.668095 -0.509480
vn 0.946882 0.047088 -0.318116
vn 0.643599 -0.176139 -0.744819
vn -0.405961 -0.072185 -0.911035
vn 0.965084 0.260826 0.024141
vn 0.656919 0.535997 0.530249
vn 0.733919 -0.206325 -0.647142
vn 0.903558 0.379328 -0.199233
vn -0.570946 -0.331324 -0.751163
vn 0.873181 0.453020 -0.179797
vn -0.087315 -0.146745 -0.985313
vn 0.822767 -0.258280 0.506307
vn 0.449121 -0.402090 0.797881
vn 0.142009 -0.178220 0.973690
vn 0.976795 -0.053874 0.207288
vn 0.984482 -0.002549 -0.175467
vn 0.998594 -0.049165 0.019847
vn 0.360740 -0.908152 0.212431
vn 0.193735 -0.067176 0.978751
vn 0.911170 -0.146559 0.385084
vn 0.974673 -0.037832 0.220414
vn -0.054131 0.766335 0.640157
vn 0.475326 0.100856 0.874010
vn 0.684976 0.147428 0.713494
vn 0.699334 0.156218 0.697516
vn 0.486842 -0.408317 0.772180
vn 0.313346 -0.498185 0.808472
vn 0.049235 0.785868 0.616432
vn -0.020319 -0.276615 0.960766
vn 0.245440 -0.841800 0.480762
vn 0.531248 -0.202703 0.822610
vn 0.474288 -0.800567 -0.366256
vn 0.864976 -0.161414 0.475144
vn 0.007759 -0.961524 -0.274611
vn 0.513966 -0.087770 0.853308
vn 0.810867 -0.084369 0.579117
vn 0.317128 -0.904011 -0.286693
vn 0.330398 -0.214217 0.919211
vn 0.977702 0.112984 -0.177014
vn 0.917813 0.279464 -0.281990
vn 0.767693 -0.438402 0.467387
vn 0.163228 -0.643979 0.747427
vn 0.826305 -0.268720 0.494984
vn 0.056783 -0.539652 0.839971
vn 0.520855 0.564947 0.639957
vn 0.978250 0.010746 0.207149
vn 0.884046 0.368988 0.286900
vn 0.769132 0.521013 0.370110
vn 0.497932 0.088806 0.862657
vn 0.491996 0.585791 -0.644041
vn 0.399783 0.657412 -0.638736
vn 0.151110 0.981372 0.118635
vn 0.030213 0.998996 -0.033084
vn 0.897831 -0.122395 0.422989
vn 0.672092 0.632023 0.385797
vn 0.812740 -0.484813 -0.323127
vn 0.992453 0.116699 0.037652
vn -0.980119 0.181197 -0.080835
vn 0.864212 0.200364 0.461511
vn 0.802417 -0.505334 -0.317434
vn -0.536347 -0.604658 -0.588830
vn -0.070213 0.730961 0.678798
vn -0.640153 -0.758107 -0.124413
vn -0.487533 -0.867450 -0.099207
vn 0.581133 -0.449178 0.678619
vn 0.336720 -0.913570 0.228056
vn 0.828225 0.291514 0.478606
vn 0.907075 0.025873 0.420173
vn 0.689575 0.089462 -0.718668
vn -0.281750 0.804436 -0.522973
vn 0.200535 0.034743 -0.979070
vn -0.031428 0.896382 -0.442167
vn -0.274055 -0.796951 -0.538296
vn -0.306618 -0.736213 -0.603304
vn 0.922249 -0.331549 -0.198827
vn 0.814084 -0.573819 -0.089434
vn 0.807207 0.185034 0.560516
vn 0.806810 0.185213 0.561029
vn -0.025611 0.688617 0.724673
vn -0.991104 0.000859 0.133088
vn -0.487544 -0.594391 -0.639532
vn -0.395101 -0.832419 -0.388553
vn 0.827499 -0.560839 0.026548
vn 0.795452 -0.547776 -0.259225
vn 0.876100 0.252911 0.410468
vn 0.830348 0.253913 0.496035
vn -0.081461 0.712784 0.696637
vn -0.097336 0.728317 0.678292
vn -0.953846 0.160357 -0.253896
vn 0.892191 -0.444516 -0.079999
vn -0.306689 -0.748571 -0.587864
vn -0.987914 0.137750 0.071063
vn -0.066780 0.608790 0.790516
vn -0.986340 0.100063 0.130844
vn -0.100634 0.630815 0.769380
vn 0.867016 -0.389593 -0.310644
vn -0.374857 -0.753084 -0.540692
vn -0.868227 -0.468003 -0.164787
vn -0.755638 -0.654494 -0.025495
vn -0.086976 -0.712506 0.696255
vn 0.107452 -0.655911 0.747151
vn 0.678990 0.175178 0.712941
vn 0.675889 0.119613 0.727233
vn 0.566691 0.821925 0.057448
vn 0.487980 0.859781 -0.150506
vn -0.483112 0.484543 -0.729261
vn -0.508528 0.469614 -0.721708
vn 0.150658 0.190153 0.970126
vn 0.041638 0.989269 0.140046
vn 0.711646 0.498352 -0.495182
vn 0.590292 0.619645 -0.517296
vn 0.617506 0.607421 -0.499726
vn 0.423759 0.824115 -0.375849
vn 0.335177 0.849698 -0.407024
vn 0.666220 0.140304 0.732438
vn 0.445286 -0.177219 0.877675
vn -0.788041 -0.553384 -0.269737
vn -0.707763 -0.364208 0.605329
vn -0.881408 -0.429432 -0.196743
vn -0.849599 -0.510613 -0.132123
vn -0.984330 -0.074633 -0.159763
vn -0.033644 0.020562 -0.999222
vn 0.824654 0.468803 -0.316495
vn 0.549721 0.827269 -0.115902
vn -0.747301 0.043948 -0.663031
vn -0.753508 0.084082 -0.652039
vn 0.577696 -0.010669 0.816182
vn 0.599881 -0.045701 0.798783
vn 0.541927 0.834629 -0.098537
vn 0.463425 0.101286 0.880329
vn -0.092726 -0.836357 0.540286
vn -0.227323 -0.825855 0.516031
vn -0.748967 0.068438 -0.659063
vn 0.782061 0.030077 0.622476
vn -0.835677 0.139248 -0.531276
vn -0.628078 -0.652369 -0.424184
vn 0.135161 -0.895734 0.423548
vn 0.027268 0.868939 0.494167
vn 0.642893 -0.072869 0.762482
vn -0.063175 -0.941449 0.331182
vn 0.863919 0.480413 0.151151
vn 0.863610 0.475354 0.167975
vn -0.773372 0.102400 -0.625627
vn 0.567829 0.816127 -0.107275
vn 0.503733 0.025303 0.863489
vn -0.193791 -0.732041 0.653116
vn -0.914199 0.138690 -0.380796
vn 0.620661 0.740731 -0.257096
vn 0.275607 0.945799 -0.171767
vn 0.832094 -0.121483 0.541167
vn 0.816930 -0.220313 0.532999
vn -0.586268 -0.594863 0.549934
vn -0.552906 -0.627973 0.547672
vn 0.896657 -0.217557 0.385584
vn -0.537880 0.028067 0.842554
vn 0.596666 -0.274225 -0.754182
vn 0.862841 -0.073309 0.500131
vn 0.885526 -0.210156 0.414340
vn -0.255927 -0.535768 0.804645
vn 0.872685 -0.011744 0.488143
vn -0.533496 -0.575677 0.619660
vn -0.846337 0.405601 -0.345257
vn 0.898336 0.081332 0.431714
vn -0.434314 -0.316853 0.843194
vn 0.923407 0.041776 0.381541
vn 0.560991 0.255134 -0.787525
vn 0.398713 0.091001 -0.912550
vn -0.333895 -0.058721 -0.940779
vn -0.755339 -0.323546 -0.569895
vn -0.475827 -0.387316 0.789668
vn -0.958936 -0.278307 -0.054651
vn 0.405005 0.908962 -0.098788
vn 0.802874 -0.402318 0.439924
vn -0.467697 -0.656079 0.592301
vn -0.875388 0.365654 -0.316216
vn 0.740766 0.609568 -0.282299
vn -0.907954 0.199856 -0.368344
vn -0.926390 0.170700 -0.335653
vn 0.643170 0.651689 -0.402037
vn 0.845432 -0.478520 0.237199
vn 0.879272 -0.412875 0.237518
vn -0.492812 -0.859085 0.138237
vn -0.440068 -0.887126 0.139096
vn -0.872000 0.353447 -0.338662
vn -0.156435 0.587120 -0.794241
vn -0.913955 -0.399010 -0.074013
vn 0.879169 0.321344 -0.351853
vn 0.241977 -0.887906 -0.391242
vn 0.128320 -0.896283 -0.424513
vn 0.482263 0.687400 0.543050
vn 0.452127 0.730650 -0.511598
vn -0.711140 0.187698 0.677532
vn 0.519312 0.729865 0.444536
vn -0.815015 0.183236 0.549704
vn 0.242160 -0.889108 -0.388388
vn 0.242646 -0.889146 -0.387997
vn 0.449420 0.797801 0.401914
vn 0.211463 0.072227 0.974714
vn -0.802187 0.363986 0.473297
vn 0.176565 -0.946445 -0.270308
vn -0.274059 0.093950 -0.957113
vn 0.290036 -0.239446 -0.926577
vn -0.854117 -0.075478 0.514575
vn -0.901870 -0.274187 -0.333845
vn -0.239994 -0.405362 -0.882091
vn -0.219747 -0.418081 -0.881430
vn -0.871513 -0.364062 -0.328517
vn -0.131790 0.238260 -0.962218
vn -0.902996 -0.278258 -0.327370
vn 0.421336 -0.837250 -0.348554
vn 0.694669 -0.620537 -0.363826
vn 0.048251 -0.349508 -0.935690
vn 0.270313 -0.572722 0.773899
vn 0.714019 -0.044895 0.698685
vn -0.170898 0.094125 0.980783
vn -0.192370 0.147724 0.970140
vn -0.928605 -0.248415 0.275648
vn -0.247316 0.152276 -0.956894
vn -0.348517 -0.538738 0.767005
vn -0.586548 -0.760023 0.279868
vn -0.433169 0.068761 0.898686
vn -0.400071 -0.021935 0.916222
vn -0.720937 -0.182828 0.668449
vn 0.029383 -0.220074 0.975041
vn -0.126787 -0.250284 0.959835
vn -0.331724 0.577437 -0.746007
vn -0.248346 0.160045 -0.955359
vn -0.330222 -0.541545 0.773099
vn -0.511933 0.787356 -0.343503
vn -0.121660 -0.261041 0.957631
vn -0.366975 0.594753 -0.715261
vn -0.332494 -0.224306 0.916043
vn -0.310528 0.275735 0.909694
vn -0.467111 0.771459 0.432039
vn -0.108097 0.202145 0.973372
vn -0.100147 0.192403 0.976192
vn -0.689930 0.225172 0.687964
vn -0.668873 0.700612 -0.248500
vn -0.345024 0.803584 -0.484986
vn -0.152907 0.908746 -0.388329
vn -0.317059 0.701324 0.638450
vn -0.457883 0.873266 -0.166582
vn -0.664022 0.718557 -0.206762
vn -0.229848 0.760414 -0.607404
vn -0.175129 0.805490 -0.566141
vn -0.228844 0.755763 -0.613558
vn 0.160913 0.540573 0.825765
vn -0.784023 0.162219 0.599160
vn -0.877788 0.233061 -0.418534
vn -0.289718 0.067273 -0.954745
vn 0.185009 0.237668 0.953565
vn 0.006351 0.422809 0.906196
vn -0.840841 0.297945 0.451902
vn -0.725137 0.430199 0.537685
vn -0.490721 0.657879 0.571304
vn -0.955008 0.088347 -0.283115
vn -0.384672 0.153868 -0.910138
vn -0.866664 0.268072 -0.420751
vn -0.660811 -0.078532 -0.746433
vn -0.355151 -0.082665 -0.931147
vn 0.140028 -0.290523 -0.946567
vn -0.068421 0.059825 0.995861
vn -0.379470 0.833716 0.401148
vn -0.529527 0.546557 -0.648750
vn -0.713613 -0.358059 -0.602122
vn -0.041364 0.086410 0.995401
vn -0.580902 0.400457 -0.708652
vn -0.656701 0.676186 0.333941
vn -0.526106 -0.327720 -0.784737
vn -0.956791 0.256029 -0.137839
vn 0.693815 -0.361824 -0.622659
vn -0.574590 0.051047 -0.816848
vn -0.006625 -0.100093 -0.994956
vn -0.928924 -0.245952 0.276782
vn -0.626742 -0.369169 0.686228
vn -0.349276 -0.163183 0.922701
vn -0.995931 -0.067374 -0.059852
vn -0.922848 -0.102752 -0.371204
vn -0.844870 -0.072622 -0.530020
vn -0.346634 -0.916214 0.200990
vn -0.394117 -0.049177 0.917744
vn -0.977951 -0.088752 0.189035
vn -0.999624 0.022579 0.015528
vn -0.032092 0.765657 0.642448
vn -0.637534 0.134899 0.758520
vn -0.806572 0.193057 0.558722
vn -0.816797 0.202608 0.540178
vn -0.658689 -0.373264 0.653301
vn -0.502091 -0.473231 0.723849
vn -0.127029 0.791261 0.598139
vn -0.193988 -0.271301 0.942743
vn -0.389312 -0.822375 0.414892
vn -0.699976 -0.165032 0.694837
vn -0.368091 -0.716333 -0.592769
vn -0.983999 -0.036115 0.174473
vn -0.008323 -0.960521 -0.278082
vn -0.682440 -0.051166 0.729149
vn -0.916013 -0.031531 0.399907
vn -0.223374 -0.892095 -0.392772
vn -0.524298 -0.188062 0.830508
vn -0.908679 0.172560 -0.380165
vn -0.818594 0.330497 -0.469762
vn -0.872330 -0.388223 0.297191
vn -0.351757 -0.628223 0.693976
vn -0.924985 -0.215132 0.313242
vn -0.260432 -0.529927 0.807064
vn -0.605915 0.599423 0.523029
vn -0.997460 0.071198 0.002117
vn -0.900125 0.423583 0.101744
vn -0.795748 0.568896 0.207710
vn -0.658012 0.124182 0.742697
vn -0.334743 0.595249 -0.730497
vn -0.219665 0.677633 -0.701827
vn -0.112590 0.989441 0.091269
vn 0.037696 0.998767 -0.032303
vn -0.900664 0.002493 0.434508
vn -0.720576 0.553910 0.417078
vn -0.633378 -0.589996 -0.500737
vn -0.908271 0.110158 -0.403619
vn 0.940990 0.331408 0.068598
vn -0.960145 0.149280 0.236300
vn -0.667672 -0.390254 -0.633968
vn 0.622532 -0.710968 -0.327077
vn 0.272257 0.246062 0.930231
vn 0.668582 0.569381 -0.478334
vn 0.160216 0.228982 -0.960155
vn -0.150257 -0.151350 0.976993
vn -0.169732 -0.401469 -0.900008
vn -0.755965 -0.455793 0.469862
vn -0.838835 -0.461157 -0.289292
vn -0.904642 0.074735 0.419568
vn -0.517432 0.148544 0.842733
vn 0.525787 0.696290 0.488599
vn -0.086829 0.875474 -0.475401
vn 0.442642 -0.775795 -0.449679
vn 0.486408 -0.731768 -0.477413
vn -0.775953 -0.280328 -0.565078
vn -0.735558 -0.501621 -0.455336
vn -0.952680 0.203000 0.226255
vn -0.962765 0.196577 0.185583
vn -0.139286 0.742911 0.654738
vn 0.825385 -0.145921 0.545387
vn 0.607726 -0.641786 -0.467740
vn 0.491173 -0.827628 -0.271626
vn -0.788347 -0.498088 -0.361134
vn -0.678873 -0.418646 -0.603214
vn -0.945847 0.302271 0.118348
vn -0.942709 0.298340 0.149312
vn 0.332460 0.827970 0.451593
vn -0.148367 0.635696 0.757548
vn 0.612733 0.353469 0.706836
vn -0.788029 -0.337841 -0.514659
vn 0.492421 -0.721280 -0.487110
vn 0.872425 0.111432 0.475876
vn -0.047111 0.541507 0.839375
vn 0.833698 0.084944 0.545648
vn -0.208726 0.446885 0.869901
vn -0.699570 -0.331853 -0.632831
vn 0.543895 -0.706772 -0.452385
vn 0.739510 0.653619 -0.160954
vn 0.753825 0.548049 -0.362478
vn 0.609747 -0.320128 -0.725071
vn 0.127070 -0.670905 -0.730575
vn -0.478705 -0.877975 -0.001075
vn -0.468899 -0.880096 -0.074601
vn -0.549727 -0.353228 0.756988
vn -0.545627 -0.285929 0.787741
vn 0.427369 0.761209 0.487767
vn 0.226691 0.749503 0.621978
vn -0.177413 -0.973287 0.145732
vn -0.216649 -0.332995 0.917702
vn -0.815081 0.319955 0.482983
vn -0.796596 0.267596 0.542058
vn -0.751831 0.311800 0.580974
vn -0.589771 0.125709 0.797727
vn -0.516378 0.175064 0.838276
vn -0.498773 -0.866705 0.006851
vn -0.332413 -0.934121 -0.130078
vn 0.732374 0.537058 -0.418565
vn 0.921130 -0.360078 -0.147859
vn 0.845199 0.475977 -0.243073
vn 0.840378 0.438214 -0.318956
vn 0.898869 0.436216 0.041842
vn -0.234066 0.955890 0.177449
vn -0.920503 0.010743 0.390588
vn -0.628860 -0.115302 0.768922
vn 0.632521 0.711382 0.306354
vn 0.638075 0.689783 0.342140
vn -0.323056 -0.928856 -0.181276
vn -0.345665 -0.913018 -0.216596
vn -0.535290 -0.024342 0.844317
vn -0.346058 -0.929824 -0.125182
vn 0.009062 -0.439851 -0.898025
vn 0.490966 -0.221852 -0.842457
vn 0.581539 0.784961 0.213657
vn -0.572499 -0.805601 -0.152486
vn 0.632567 0.711330 0.306379
vn 0.604379 0.739324 -0.296862
vn 0.258263 0.033385 -0.965498
vn -0.183154 -0.624307 0.759404
vn -0.396920 -0.884144 -0.246465
vn 0.122542 -0.061142 -0.990578
vn -0.828481 -0.442863 0.342770
vn -0.823155 -0.457725 0.336012
vn 0.666424 0.654743 0.356637
vn -0.487192 -0.021297 0.873035
vn -0.419520 -0.878448 -0.228764
vn 0.228729 -0.478108 -0.847995
vn 0.885012 0.051779 -0.462680
vn -0.508430 0.507899 -0.695369
vn -0.465614 0.534596 -0.705274
vn -0.810786 0.064157 0.581816
vn -0.782124 -0.026692 0.622551
vn 0.599432 -0.297542 0.743068
vn 0.484897 -0.389055 0.783269
vn -0.887848 -0.141065 0.437979
vn 0.523112 0.101641 0.846181
vn -0.515573 -0.301819 -0.801929
vn -0.746435 -0.080196 0.660608
vn -0.612783 0.362554 0.702176
vn 0.598589 0.273677 0.752856
vn -0.823616 0.338085 0.455362
vn 0.482100 -0.379519 0.789648
vn 0.848858 0.138303 -0.510209
vn -0.720604 0.564237 0.402946
vn 0.668480 0.322984 0.669937
vn -0.740042 0.537655 0.404060
vn -0.687475 -0.473227 -0.550849
vn -0.614282 -0.558796 -0.557139
vn -0.071944 -0.740485 -0.668211
vn 0.493194 -0.766171 -0.411998
vn 0.676967 0.290847 0.676109
vn 0.868322 -0.470827 -0.156008
vn -0.527502 0.546587 -0.650372
vn -0.824979 0.144739 0.546315
vn 0.559286 -0.247549 0.791150
vn 0.886249 0.157463 -0.435623
vn -0.736287 0.286295 -0.613120
vn 0.922446 -0.091057 -0.375235
vn 0.848731 -0.093674 -0.520462
vn -0.549587 0.208603 -0.808974
vn -0.813004 -0.197355 0.547792
vn -0.920528 -0.023299 0.389980
vn 0.599141 -0.439902 0.668967
vn 0.577039 -0.450616 0.681155
vn 0.888783 0.181908 -0.420684
vn 0.188730 0.162785 -0.968443
vn 0.936037 -0.347192 0.057380
vn -0.894993 0.154779 -0.418367
vn -0.241384 -0.966634 -0.085750
vn -0.213747 -0.972389 -0.093662
vn -0.527406 0.809352 0.258441
vn -0.539153 0.477525 -0.693747
vn 0.724807 0.399219 0.561498
vn -0.575638 0.809237 0.117375
vn 0.844380 0.346926 0.408245
vn -0.229009 -0.971986 0.052890
vn -0.264152 -0.961111 0.080555
vn -0.476091 0.879259 0.015506
vn -0.206453 0.452104 0.867743
vn 0.822897 0.526000 0.214857
vn -0.436372 -0.888511 0.141873

f 1/1/1 2/2/1 3/3/1
f 4/4/2 5/5/2 6/6/2
f 4/4/3 6/7/3 7/8/3
f 5/9/4 8/10/4 9/11/4
f 10/12/5 11/13/5 9/14/5
f 6/6/6 11/15/6 7/8/6
f 6/6/7 12/16/7 11/13/7
f 12/17/8 5/5/8 9/14/8
f 6/6/9 5/5/9 12/17/9
f 11/13/10 12/18/10 9/19/10
f 13/20/11 14/21/11 15/22/11
f 14/21/12 13/20/12 16/23/12
f 16/24/13 13/20/13 17/25/13
f 15/22/14 14/21/14 18/26/14
f 14/21/15 19/27/15 18/26/15
f 18/26/16 20/28/16 21/29/16
f 18/26/17 19/27/17 20/28/17
f 20/28/18 3/30/18 21/29/18
f 5/9/19 22/31/19 23/32/19
f 24/33/20 25/34/20 26/35/20
f 27/36/21 25/34/21 9/37/21
f 28/38/22 27/39/22 29/40/22
f 30/41/23 25/34/23 24/33/23
f 25/34/24 30/41/24 10/42/24
f 30/41/25 24/33/25 31/43/25
f 24/33/26 26/44/26 32/45/26
f 33/46/27 34/47/27 5/9/27
f 4/4/28 22/31/28 5/9/28
f 26/35/29 25/34/29 27/39/29
f 33/46/30 35/48/30 34/47/30
f 32/45/31 26/35/31 28/38/31
f 23/32/32 33/46/32 5/9/32
f 26/35/33 27/39/33 28/38/33
f 28/38/34 29/40/34 36/49/34
f 35/50/35 37/51/35 29/40/35
f 28/38/36 38/52/36 32/45/36
f 36/49/37 38/52/37 28/38/37
f 36/49/38 37/53/38 39/54/38
f 39/55/39 37/56/39 40/57/39
f 41/58/40 42/59/40 39/55/40
f 39/55/41 40/57/41 41/58/41
f 36/49/42 29/40/42 37/51/42
f 37/56/43 35/48/43 33/46/43
f 37/56/44 33/46/44 40/57/44
f 40/57/45 33/46/45 43/60/45
f 40/57/46 43/60/46 41/58/46
f 33/46/47 23/32/47 43/60/47
f 44/61/48 45/62/48 30/63/48
f 15/64/49 46/65/49 45/62/49
f 46/66/50 47/67/50 10/68/50
f 47/67/51 7/69/51 11/70/51
f 45/62/52 44/61/52 17/71/52
f 44/61/53 30/63/53 31/72/53
f 13/73/54 15/64/54 45/62/54
f 46/65/55 10/74/55 45/62/55
f 45/62/56 10/74/56 30/63/56
f 47/67/57 11/70/57 10/68/57
f 47/67/58 48/75/58 7/69/58
f 46/66/59 15/76/59 47/67/59
f 18/77/60 47/67/60 15/76/60
f 47/67/61 18/77/61 48/75/61
f 18/77/62 21/78/62 48/75/62
f 13/73/63 45/62/63 17/71/63
f 49/79/64 35/50/64 29/40/64
f 8/80/65 27/81/65 9/82/65
f 34/47/66 50/83/66 5/84/66
f 27/36/67 49/79/67 29/40/67
f 35/48/68 51/85/68 52/86/68
f 35/50/69 49/79/69 51/87/69
f 52/86/70 50/83/70 34/47/70
f 35/48/71 52/86/71 34/47/71
f 5/84/72 50/83/72 8/10/72
f 53/88/73 27/81/73 8/80/73
f 53/88/74 49/79/74 27/36/74
f 54/89/75 55/90/75 56/91/75
f 57/92/76 55/90/76 58/93/76
f 59/94/77 60/95/77 55/90/77
f 61/96/78 54/89/78 56/91/78
f 39/97/79 61/96/79 36/98/79
f 36/98/80 61/96/80 56/91/80
f 36/98/81 56/91/81 38/99/81
f 62/100/82 63/101/82 64/102/82
f 65/103/83 64/102/83 54/89/83
f 61/96/84 65/103/84 54/89/84
f 66/104/85 67/105/85 62/100/85
f 55/90/86 60/95/86 68/106/86
f 69/107/87 68/106/87 60/95/87
f 69/107/88 70/108/88 68/106/88
f 58/109/89 55/90/89 68/106/89
f 68/106/90 71/110/90 58/111/90
f 62/100/91 67/105/91 63/101/91
f 64/102/92 63/101/92 69/107/92
f 70/108/93 71/110/93 68/106/93
f 58/111/94 71/110/94 72/112/94
f 56/91/95 57/92/95 38/113/95
f 55/90/96 57/114/96 56/91/96
f 73/115/97 74/116/97 38/113/97
f 58/109/98 72/112/98 73/115/98
f 57/117/99 58/111/99 73/115/99
f 57/92/100 73/115/100 38/113/100
f 73/115/101 72/112/101 74/116/101
f 39/97/102 75/118/102 61/96/102
f 75/118/103 39/97/103 76/119/103
f 64/102/104 59/94/104 54/89/104
f 64/102/105 60/95/105 59/94/105
f 54/89/106 59/94/106 55/90/106
f 64/102/107 69/107/107 60/95/107
f 65/103/108 66/104/108 62/100/108
f 65/103/109 61/96/109 75/118/109
f 75/118/110 76/119/110 65/103/110
f 66/104/111 65/103/111 76/119/111
f 62/100/112 64/102/112 65/103/112
f 39/97/113 42/120/113 76/119/113
f 77/121/114 76/119/114 42/120/114
f 67/105/115 76/119/115 77/121/115
f 66/104/116 76/119/116 67/105/116
f 9/82/117 25/34/117 10/42/117
f 51/122/118 49/123/118 78/124/118
f 79/125/119 50/126/119 52/127/119
f 52/127/120 51/122/120 79/125/120
f 80/128/121 81/129/121 53/130/121
f 51/122/122 78/124/122 79/125/122
f 82/131/123 50/126/123 79/125/123
f 50/126/124 82/131/124 8/132/124
f 53/133/125 78/124/125 49/123/125
f 83/134/126 84/135/126 85/136/126
f 84/135/127 83/134/127 86/137/127
f 86/137/128 87/138/128 84/135/128
f 88/139/129 84/135/129 87/138/129
f 87/138/130 89/140/130 88/139/130
f 90/141/131 88/139/131 89/140/131
f 91/142/132 92/143/132 90/141/132
f 90/141/133 89/140/133 91/142/133
f 85/136/134 92/144/134 91/145/134
f 91/145/135 83/134/135 85/136/135
f 80/128/136 93/146/136 83/134/136
f 94/147/137 83/134/137 93/146/137
f 93/146/138 87/138/138 94/147/138
f 87/138/139 93/146/139 95/148/139
f 95/148/140 96/149/140 87/138/140
f 89/140/141 87/138/141 96/149/141
f 97/150/142 91/142/142 89/140/142
f 97/151/143 81/129/143 80/128/143
f 8/132/144 82/131/144 80/128/144
f 93/146/145 80/128/145 98/152/145
f 98/152/146 95/148/146 93/146/146
f 95/148/147 82/131/147 79/125/147
f 79/125/148 78/124/148 95/148/148
f 96/149/149 95/148/149 78/124/149
f 78/124/150 53/133/150 81/153/150
f 81/153/151 96/149/151 78/124/151
f 80/128/152 53/130/152 8/154/152
f 94/147/153 87/138/153 86/137/153
f 86/137/154 83/134/154 94/147/154
f 97/151/155 83/134/155 91/145/155
f 89/140/156 96/149/156 97/150/156
f 80/128/157 83/134/157 97/151/157
f 81/153/158 97/150/158 96/149/158
f 82/131/159 95/148/159 98/152/159
f 98/152/160 80/128/160 82/131/160
f 85/136/161 99/155/161 100/156/161
f 99/155/162 85/136/162 84/135/162
f 84/135/163 101/157/163 99/155/163
f 101/157/164 84/135/164 88/139/164
f 88/139/165 90/141/165 101/157/165
f 102/158/166 101/157/166 90/141/166
f 90/141/167 103/159/167 102/158/167
f 103/159/168 90/141/168 92/143/168
f 92/144/169 85/136/169 103/160/169
f 100/156/170 103/160/170 85/136/170
f 104/161/171 105/162/171 106/163/171
f 107/164/172 106/163/172 108/165/172
f 109/166/173 110/167/173 103/168/173
f 109/166/174 111/169/174 104/161/174
f 104/161/175 110/167/175 109/166/175
f 104/161/176 111/169/176 112/170/176
f 113/171/177 112/170/177 111/169/177
f 106/163/178 110/167/178 104/161/178
f 104/161/179 112/170/179 105/162/179
f 105/172/180 113/173/180 111/174/180
f 113/173/181 105/172/181 112/175/181
f 105/172/182 111/174/182 109/176/182
f 109/176/183 106/177/183 105/172/183
f 109/176/184 100/178/184 106/177/184
f 103/179/185 100/178/185 109/176/185
f 102/180/186 103/168/186 110/167/186
f 106/163/187 114/181/187 108/165/187
f 115/182/188 116/183/188 106/177/188
f 116/184/189 117/185/189 118/186/189
f 108/165/190 114/181/190 119/187/190
f 119/187/191 120/188/191 108/165/191
f 118/189/192 121/190/192 114/191/192
f 114/191/193 121/190/193 117/192/193
f 116/193/194 115/194/194 119/187/194
f 120/188/195 119/187/195 115/194/195
f 121/195/196 118/186/196 117/185/196
f 108/165/197 101/196/197 102/180/197
f 115/182/198 106/177/198 100/178/198
f 100/178/199 99/197/199 115/182/199
f 120/188/200 99/198/200 101/196/200
f 106/163/201 107/164/201 110/167/201
f 108/165/202 120/188/202 101/196/202
f 120/188/203 115/194/203 99/198/203
f 107/164/204 102/180/204 110/167/204
f 102/180/205 107/164/205 108/165/205
f 118/199/206 106/177/206 116/183/206
f 114/181/207 106/163/207 118/200/207
f 114/191/208 117/192/208 119/201/208
f 117/192/209 116/202/209 119/201/209
f 122/203/210 123/204/210 124/205/210
f 125/206/211 126/207/211 123/208/211
f 125/206/212 123/208/212 127/209/212
f 125/210/213 128/211/213 126/212/213
f 128/211/214 129/213/214 126/212/214
f 128/214/215 124/215/215 129/216/215
f 122/217/216 124/215/216 128/214/216
f 130/218/217 128/211/217 125/219/217
f 131/220/218 122/221/218 130/222/218
f 132/223/219 125/224/219 127/225/219
f 132/226/220 131/227/220 125/219/220
f 133/228/221 131/227/221 132/226/221
f 133/229/222 122/221/222 131/220/222
f 130/218/223 125/219/223 131/227/223
f 128/214/224 130/222/224 122/221/224
f 127/209/225 123/204/225 122/203/225
f 16/230/226 133/228/226 14/231/226
f 16/232/227 3/3/227 133/229/227
f 14/231/228 133/228/228 132/226/228
f 14/233/229 132/223/229 19/234/229
f 132/223/230 127/225/230 19/234/230
f 20/235/231 19/234/231 127/225/231
f 20/235/232 127/225/232 122/236/232
f 3/3/233 122/221/233 133/229/233
f 3/237/234 20/235/234 122/236/234
f 134/238/235 135/239/235 136/240/235
f 137/241/236 135/242/236 134/243/236
f 138/244/237 139/245/237 137/246/237
f 138/247/238 136/248/238 139/249/238
f 134/238/239 136/240/239 123/208/239
f 138/247/240 123/250/240 136/248/240
f 123/250/241 138/247/241 124/251/241
f 134/238/242 123/208/242 126/252/242
f 129/253/243 134/243/243 126/254/243
f 137/241/244 134/243/244 129/253/244
f 138/244/245 137/246/245 129/255/245
f 138/244/246 129/255/246 124/256/246
f 136/257/247 140/258/247 139/259/247
f 136/257/248 141/260/248 140/258/248
f 142/261/249 139/259/249 140/258/249
f 135/262/250 143/263/250 141/260/250
f 141/264/251 143/265/251 142/266/251
f 142/266/252 140/267/252 141/264/252
f 137/268/253 143/263/253 135/262/253
f 135/262/254 141/260/254 136/257/254
f 139/259/255 142/261/255 137/268/255
f 137/268/256 144/269/256 143/263/256
f 137/268/257 142/261/257 144/269/257
f 143/265/258 145/270/258 146/271/258
f 146/271/259 142/266/259 143/265/259
f 143/263/260 144/269/260 145/272/260
f 144/269/261 146/273/261 145/272/261
f 146/273/262 144/269/262 142/261/262
f 3/274/263 16/275/263 17/276/263
f 147/5/264 4/4/264 148/6/264
f 148/7/265 4/4/265 7/8/265
f 149/10/266 147/9/266 150/11/266
f 151/13/267 152/12/267 150/14/267
f 151/15/268 148/6/268 7/8/268
f 153/16/269 148/6/269 151/13/269
f 147/5/270 153/17/270 150/14/270
f 147/5/271 148/6/271 153/17/271
f 153/18/272 151/13/272 150/19/272
f 154/21/273 155/20/273 156/22/273
f 155/20/274 154/21/274 157/23/274
f 155/20/275 157/24/275 17/25/275
f 154/21/276 156/22/276 158/26/276
f 159/27/277 154/21/277 158/26/277
f 160/28/278 158/26/278 21/29/278
f 159/27/279 158/26/279 160/28/279
f 3/30/280 160/28/280 21/29/280
f 22/31/281 147/9/281 23/32/281
f 161/34/282 24/33/282 162/35/282
f 161/34/283 163/36/283 150/37/283
f 163/39/284 164/38/284 165/40/284
f 161/34/285 166/41/285 24/33/285
f 166/41/286 161/34/286 152/42/286
f 24/33/287 166/41/287 31/43/287
f 162/44/288 24/33/288 32/45/288
f 167/47/289 168/46/289 147/9/289
f 22/31/290 4/4/290 147/9/290
f 161/34/291 162/35/291 163/39/291
f 169/48/292 168/46/292 167/47/292
f 162/35/293 32/45/293 164/38/293
f 168/46/294 23/32/294 147/9/294
f 163/39/295 162/35/295 164/38/295
f 165/40/296 164/38/296 170/49/296
f 171/51/297 169/50/297 165/40/297
f 38/52/298 164/38/298 32/45/298
f 38/52/299 170/49/299 164/38/299
f 171/53/300 170/49/300 172/54/300
f 171/56/301 172/55/301 173/57/301
f 42/59/302 41/58/302 172/55/302
f 173/57/303 172/55/303 41/58/303
f 165/40/304 170/49/304 171/51/304
f 169/48/305 171/56/305 168/46/305
f 168/46/306 171/56/306 173/57/306
f 168/46/307 173/57/307 43/60/307
f 43/60/308 173/57/308 41/58/308
f 23/32/309 168/46/309 43/60/309
f 174/62/310 44/61/310 166/63/310
f 175/65/311 156/64/311 174/62/311
f 176/67/312 175/66/312 152/68/312
f 7/69/313 176/67/313 151/70/313
f 44/61/314 174/62/314 17/71/314
f 166/63/315 44/61/315 31/72/315
f 156/64/316 155/73/316 174/62/316
f 152/74/317 175/65/317 174/62/317
f 152/74/318 174/62/318 166/63/318
f 151/70/319 176/67/319 152/68/319
f 48/75/320 176/67/320 7/69/320
f 156/76/321 175/66/321 176/67/321
f 176/67/322 158/77/322 156/76/322
f 158/77/323 176/67/323 48/75/323
f 21/78/324 158/77/324 48/75/324
f 174/62/325 155/73/325 17/71/325
f 169/50/326 177/79/326 165/40/326
f 163/81/327 149/80/327 150/82/327
f 178/83/328 167/47/328 147/84/328
f 177/79/329 163/36/329 165/40/329
f 179/85/330 169/48/330 180/86/330
f 177/79/331 169/50/331 179/87/331
f 178/83/332 180/86/332 167/47/332
f 180/86/333 169/48/333 167/47/333
f 178/83/334 147/84/334 149/10/334
f 163/81/335 181/88/335 149/80/335
f 177/79/336 181/88/336 163/36/336
f 182/90/337 183/89/337 184/91/337
f 182/90/338 185/92/338 186/93/338
f 187/95/339 188/94/339 182/90/339
f 183/89/340 189/96/340 184/91/340
f 189/96/341 172/97/341 170/98/341
f 189/96/342 170/98/342 184/91/342
f 184/91/343 170/98/343 38/99/343
f 63/101/344 190/100/344 191/102/344
f 191/102/345 192/103/345 183/89/345
f 192/103/346 189/96/346 183/89/346
f 67/105/347 193/104/347 190/100/347
f 187/95/348 182/90/348 194/106/348
f 194/106/349 69/107/349 187/95/349
f 70/108/350 69/107/350 194/106/350
f 182/90/351 186/109/351 194/106/351
f 71/110/352 194/106/352 186/111/352
f 67/105/353 190/100/353 63/101/353
f 63/101/354 191/102/354 69/107/354
f 71/110/355 70/108/355 194/106/355
f 71/110/356 186/111/356 72/112/356
f 185/92/357 184/91/357 38/113/357
f 185/114/358 182/90/358 184/91/358
f 74/116/359 195/115/359 38/113/359
f 72/112/360 186/109/360 195/115/360
f 186/111/361 185/117/361 195/115/361
f 195/115/362 185/92/362 38/113/362
f 72/112/363 195/115/363 74/116/363
f 196/118/364 172/97/364 189/96/364
f 172/97/365 196/118/365 197/119/365
f 188/94/366 191/102/366 183/89/366
f 187/95/367 191/102/367 188/94/367
f 188/94/368 183/89/368 182/90/368
f 69/107/369 191/102/369 187/95/369
f 193/104/370 192/103/370 190/100/370
f 189/96/371 192/103/371 196/118/371
f 197/119/372 196/118/372 192/103/372
f 192/103/373 193/104/373 197/119/373
f 191/102/374 190/100/374 192/103/374
f 42/120/375 172/97/375 197/119/375
f 197/119/376 77/121/376 42/120/376
f 197/119/377 67/105/377 77/121/377
f 197/119/378 193/104/378 67/105/378
f 161/34/379 150/82/379 152/42/379
f 177/123/380 179/122/380 198/124/380
f 178/126/381 199/125/381 180/127/381
f 179/122/382 180/127/382 199/125/382
f 200/129/383 201/128/383 181/130/383
f 198/124/384 179/122/384 199/125/384
f 178/126/385 202/131/385 199/125/385
f 202/131/386 178/126/386 149/132/386
f 198/124/387 181/133/387 177/123/387
f 203/135/388 204/134/388 205/136/388
f 204/134/389 203/135/389 206/137/389
f 207/138/390 206/137/390 203/135/390
f 203/135/391 208/139/391 207/138/391
f 209/140/392 207/138/392 208/139/392
f 208/139/393 210/141/393 209/140/393
f 211/143/394 212/142/394 210/141/394
f 209/140/395 210/141/395 212/142/395
f 211/144/396 205/136/396 212/145/396
f 204/134/397 212/145/397 205/136/397
f 213/146/398 201/128/398 204/134/398
f 204/134/399 214/147/399 213/146/399
f 207/138/400 213/146/400 214/147/400
f 213/146/401 207/138/401 215/148/401
f 216/149/402 215/148/402 207/138/402
f 207/138/403 209/140/403 216/149/403
f 212/142/404 217/150/404 209/140/404
f 200/129/405 217/151/405 201/128/405
f 202/131/406 149/132/406 201/128/406
f 201/128/407 213/146/407 218/152/407
f 215/148/408 218/152/408 213/146/408
f 202/131/409 215/148/409 199/125/409
f 198/124/410 199/125/410 215/148/410
f 215/148/411 216/149/411 198/124/411
f 181/133/412 198/124/412 200/153/412
f 216/149/413 200/153/413 198/124/413
f 181/130/414 201/128/414 149/154/414
f 207/138/415 214/147/415 206/137/415
f 204/134/416 206/137/416 214/147/416
f 204/134/417 217/151/417 212/145/417
f 216/149/418 209/140/418 217/150/418
f 204/134/419 201/128/419 217/151/419
f 217/150/420 200/153/420 216/149/420
f 215/148/421 202/131/421 218/152/421
f 201/128/422 218/152/422 202/131/422
f 219/155/423 205/136/423 220/156/423
f 205/136/424 219/155/424 203/135/424
f 221/157/425 203/135/425 219/155/425
f 203/135/426 221/157/426 208/139/426
f 210/141/427 208/139/427 221/157/427
f 221/157/428 222/158/428 210/141/428
f 223/159/429 210/141/429 222/158/429
f 210/141/430 223/159/430 211/143/430
f 205/136/431 211/144/431 223/160/431
f 223/160/432 220/156/432 205/136/432
f 224/162/433 225/161/433 226/163/433
f 226/163/434 227/164/434 228/165/434
f 229/167/435 230/166/435 223/168/435
f 231/169/436 230/166/436 225/161/436
f 229/167/437 225/161/437 230/166/437
f 231/169/438 225/161/438 232/170/438
f 232/170/439 233/171/439 231/169/439
f 229/167/440 226/163/440 225/161/440
f 232/170/441 225/161/441 224/162/441
f 233/173/442 224/172/442 231/174/442
f 224/172/443 233/173/443 232/175/443
f 231/174/444 224/172/444 230/176/444
f 226/177/445 230/176/445 224/172/445
f 220/178/446 230/176/446 226/177/446
f 220/178/447 223/179/447 230/176/447
f 223/168/448 222/180/448 229/167/448
f 234/181/449 226/163/449 228/165/449
f 235/183/450 236/182/450 226/177/450
f 237/185/451 235/184/451 238/186/451
f 234/181/452 228/165/452 239/187/452
f 240/188/453 239/187/453 228/165/453
f 241/190/454 238/189/454 234/191/454
f 241/190/455 234/191/455 237/192/455
f 236/194/456 235/193/456 239/187/456
f 239/187/457 240/188/457 236/194/457
f 238/186/458 241/195/458 237/185/458
f 221/196/459 228/165/459 222/180/459
f 226/177/460 236/182/460 220/178/460
f 219/197/461 220/178/461 236/182/461
f 219/198/462 240/188/462 221/196/462
f 227/164/463 226/163/463 229/167/463
f 240/188/464 228/165/464 221/196/464
f 236/194/465 240/188/465 219/198/465
f 222/180/466 227/164/466 229/167/466
f 227/164/467 222/180/467 228/165/467
f 226/177/468 238/199/468 235/183/468
f 226/163/469 234/181/469 238/200/469
f 237/192/470 234/191/470 239/201/470
f 235/202/471 237/192/471 239/201/471
f 242/204/472 243/203/472 244/205/472
f 245/207/473 246/206/473 242/208/473
f 242/208/474 246/206/474 247/209/474
f 248/211/475 246/210/475 245/212/475
f 249/213/476 248/211/476 245/212/476
f 244/215/477 248/214/477 249/216/477
f 244/215/478 243/217/478 248/214/478
f 248/211/479 250/218/479 246/219/479
f 243/221/480 251/220/480 250/222/480
f 246/224/481 252/223/481 247/225/481
f 251/227/482 252/226/482 246/219/482
f 251/227/483 253/228/483 252/226/483
f 243/221/484 253/229/484 251/220/484
f 246/219/485 250/218/485 251/227/485
f 250/222/486 248/214/486 243/221/486
f 242/204/487 247/209/487 243/203/487
f 253/228/488 157/230/488 154/231/488
f 3/3/489 157/232/489 253/229/489
f 253/228/490 154/231/490 252/226/490
f 252/223/491 154/233/491 159/234/491
f 247/225/492 252/223/492 159/234/492
f 159/234/493 160/235/493 247/225/493
f 247/225/494 160/235/494 243/236/494
f 243/221/495 3/3/495 253/229/495
f 160/235/496 3/237/496 243/236/496
f 254/239/497 255/238/497 256/240/497
f 254/242/498 257/241/498 255/243/498
f 258/245/499 259/244/499 257/246/499
f 256/248/500 259/247/500 258/249/500
f 256/240/501 255/238/501 242/208/501
f 242/250/502 259/247/502 256/248/502
f 259/247/503 242/250/503 244/251/503
f 242/208/504 255/238/504 245/252/504
f 255/243/505 249/253/505 245/254/505
f 255/243/506 257/241/506 249/253/506
f 257/246/507 259/244/507 249/255/507
f 249/255/508 259/244/508 244/256/508
f 260/258/509 256/257/509 258/259/509
f 261/260/510 256/257/510 260/258/510
f 258/259/511 262/261/511 260/258/511
f 263/263/512 254/262/512 261/260/512
f 263/265/513 261/264/513 262/266/513
f 260/267/514 262/266/514 261/264/514
f 263/263/515 257/268/515 254/262/515
f 261/260/516 254/262/516 256/257/516
f 262/261/517 258/259/517 257/268/517
f 264/269/518 257/268/518 263/263/518
f 262/261/519 257/268/519 264/269/519
f 265/270/520 263/265/520 266/271/520
f 262/266/521 266/271/521 263/265/521
f 264/269/522 263/263/522 265/272/522
f 266/273/523 264/269/523 265/272/523
f 264/269/524 266/273/524 262/261/524
f 157/275/525 3/274/525 17/276/525

o 
usemtl axe.001
s off

v -0.456300 33.672768 52.589840
v -0.497700 33.254139 45.279312
v -1.674390 25.214510 52.412460
v -1.648790 26.563599 49.353188
v -1.733030 23.256920 51.548710
v -1.707420 24.606010 48.489433
v -0.944480 17.374069 45.398277
v -0.803220 23.053751 40.778549
v -0.506230 31.042231 58.554970
v -0.994400 14.743540 51.363411
v -0.647480 25.362560 63.174709
v -1.700000 23.865410 55.471748
v -1.758630 21.907829 54.607979
v -0.953000 15.162170 58.673939
v 0.307930 26.508492 49.345268
v 0.282320 25.159389 52.404552
v 0.249300 24.550900 48.481522
v 0.223690 23.201809 51.540779
v 0.256720 23.810310 55.463810
v 0.198080 21.852720 54.600063
v -1.393280 40.025921 18.825270
v -1.451910 38.068340 17.961510
v 0.504810 38.013229 17.953590
v -1.667290 42.924061 18.734070
v -0.804880 20.018089 61.478249
v -1.188050 52.105579 -13.868090
v 0.668300 52.071617 -13.926220
v 0.827330 54.008080 -13.012380
v -1.129390 54.063148 -13.004280

vt 0.033358 0.643728
vt 0.190411 0.923560
vt 0.402692 0.503812
vt 0.402692 0.647326
vt 0.408249 0.287497
vt 0.408249 0.367848
vt 0.492649 0.287497
vt 0.492649 0.367848
vt 0.403043 0.503812
vt 0.403044 0.647326
vt 0.033710 0.643728
vt 0.190763 0.923560
vt 0.033358 0.363896
vt 0.033710 0.363896
vt 0.190411 0.084064
vt 0.402692 0.360297
vt 0.408249 0.207147
vt 0.492649 0.207147
vt 0.403043 0.360297
vt 0.190763 0.084064
vt 0.408248 1.036942
vt 0.492649 1.036942
vt 0.483600 0.371280
vt 0.402049 0.371280
vt 0.402049 1.040375
vt 0.483600 1.040375
vt 0.450449 0.037941
vt 0.483600 0.210579
vt 0.402049 0.210579
vt 0.442825 0.041374
vt 0.000000 1.000000

vn -0.989778 0.142594 -0.002560
vn -0.971008 0.221618 0.089603
vn -0.999595 0.028154 0.004049
vn -0.995290 -0.085350 -0.045970
vn -0.992725 -0.060147 -0.104301
vn -0.988504 0.141224 0.054004
vn -0.986889 0.115903 0.112320
vn -0.982636 -0.166593 -0.081688
vn -0.996181 -0.086660 0.010604
vn 0.982636 0.166594 0.081689
vn 0.996182 0.086660 -0.010604
vn 0.999595 -0.028153 -0.004048
vn 0.986890 -0.115902 -0.112320
vn 0.988504 -0.141224 -0.054004
vn 0.995290 0.085351 0.045969
vn 0.992725 0.060148 0.104301
vn 0.989778 -0.142593 0.002560
vn 0.971008 -0.221618 -0.089603
vn -0.018045 -0.517724 -0.855357
vn 0.026830 0.980585 -0.194253
vn 0.018042 0.517724 0.855358
vn -0.026826 -0.980585 0.194252
vn 0.913167 0.380810 0.145290
vn 0.026739 0.881682 0.471086
vn -0.994141 -0.095582 -0.050471
vn -0.027388 -0.914555 -0.403533
vn -0.991130 -0.027670 0.129981
vn 0.989022 -0.083437 0.121962
vn -0.028232 -0.964801 -0.261459
vn 0.025932 0.843538 0.536444
vn -0.028353 -0.914540 -0.403500
vn -0.846474 0.506707 0.163491
vn 0.958940 0.247782 0.137975
vn -0.999596 0.028130 0.004119
vn 0.008249 0.426210 -0.904586
vn -0.021244 0.404152 -0.914445

f 267/277/526 268/278/526 269/279/526
f 270/280/527 269/279/527 268/278/527
f 269/281/528 270/282/528 271/283/528
f 272/284/528 271/283/528 270/282/528
f 271/285/529 272/286/529 273/287/529
f 274/288/530 273/287/530 272/286/530
f 275/289/531 267/277/531 269/279/531
f 273/287/529 276/290/529 271/285/529
f 277/291/532 275/289/532 278/292/532
f 269/279/531 278/292/531 275/289/531
f 278/293/528 269/281/528 279/294/528
f 271/283/528 279/294/528 269/281/528
f 279/295/533 271/285/533 280/296/533
f 276/290/534 280/296/534 271/285/534
f 281/280/535 268/278/535 282/279/535
f 267/277/536 282/279/536 268/278/536
f 283/284/537 281/282/537 284/283/537
f 282/281/537 284/283/537 281/282/537
f 274/288/538 283/286/538 273/287/538
f 284/285/539 273/287/539 283/286/539
f 282/279/540 267/277/540 275/289/540
f 273/287/539 284/285/539 276/290/539
f 282/279/540 275/289/540 285/292/540
f 277/291/541 285/292/541 275/289/541
f 284/283/537 282/281/537 286/294/537
f 285/293/537 286/294/537 282/281/537
f 276/290/542 284/285/542 280/296/542
f 286/295/543 280/296/543 284/285/543
f 270/280/544 268/278/544 281/280/544
f 283/286/545 274/288/545 272/286/545
f 279/295/546 280/296/546 286/295/546
f 285/292/547 277/291/547 278/292/547
f 272/284/528 270/282/528 287/297/528
f 287/297/528 288/298/528 272/284/528
f 281/282/537 283/284/537 289/298/537
f 289/298/548 290/297/548 281/282/548
f 270/299/549 281/300/549 290/301/549
f 290/301/550 287/302/550 270/299/550
f 283/300/551 272/299/551 288/302/551
f 288/302/551 289/301/551 283/300/551
f 278/293/552 279/294/552 291/303/552
f 286/294/553 285/293/553 291/303/553
f 279/304/554 286/305/554 291/306/554
f 285/305/555 278/304/555 291/306/555
f 289/298/556 288/297/556 292/298/556 293/307/556
f 287/297/557 290/298/557 294/297/557 295/307/557
f 290/297/558 289/298/558 293/297/558 294/307/558
f 288/298/559 287/297/559 295/298/559 292/307/559
f 294/297/560 293/298/560 295/297/560
f 292/298/561 295/297/561 293/298/561

