mtllib anim_skel_walk_body_000010.mtl

o msked
usemtl msked.001
s off

v 4.041720 39.926300 -0.149850
v 1.791220 39.578091 -2.781430
v 0.024400 38.172009 -0.216780
v -0.518220 32.976681 1.510850
v 0.471070 36.371292 -3.520250
v 4.045840 37.337120 3.205040
v 4.739970 38.529503 -0.446440
v -0.179620 46.692730 -1.589210
v 4.263720 20.464689 5.625080
v 5.460710 20.490601 2.354280
v 4.303560 21.711510 2.086880
v 3.905130 20.861771 6.482730
v 4.104570 19.415751 2.397260
v 3.080670 20.647770 6.062850
v 2.822930 20.686911 2.105700
v 3.162230 36.524681 1.187580
v 4.483050 19.399399 -10.488251
v 6.114560 19.259840 -10.302780
v 4.618290 20.342550 -14.499821
v 5.229010 18.232229 -10.249209
v 7.173930 19.992929 -14.276170
v 2.975120 12.587841 -12.587641
v 6.868940 12.342649 -12.333260
v -3.798370 40.495892 -1.176150
v -1.208490 40.790756 -2.624760
v -4.738110 38.072220 1.860680
v -4.336910 38.922699 -1.335050
v -4.078200 20.360270 1.241860
v -2.866120 16.704350 0.052600
v -4.706230 16.643400 0.568280
v -4.014010 16.570370 2.368980
v -3.965660 20.425220 2.384650
v -2.919110 20.404949 2.114350
v -2.030700 16.631060 1.892530
v -2.907350 36.834198 0.194940
v -2.404430 3.904940 -0.066020
v -1.853600 0.053280 -1.619380
v -3.894080 3.818230 -0.060790
v -3.170760 3.912600 0.939850
v -4.461590 -0.051350 -1.492520
v -0.684040 0.679050 6.203570
v -4.605410 0.519300 6.388300
v -1.864960 46.707283 4.076770
v -4.732550 43.982246 1.838190
v 0.384710 52.199249 4.510100
v 0.234150 56.282677 -2.690700
v -6.214760 56.265862 -0.937840
v -0.985150 57.111099 0.163700
v -5.646100 54.950161 -1.805270
v -5.182750 55.006008 0.755250
v 0.219150 55.827339 0.533100
v -3.012180 54.360691 3.860750
v -0.654750 61.803772 1.644460
v -0.234080 62.168770 -0.502230
v 1.644010 57.405884 4.705610
v -1.016690 61.765244 6.696380
v -1.695660 56.967449 4.663130
v -4.048950 61.644661 3.674680
v -3.208780 61.170849 1.847210
v 1.892910 61.680607 2.323940
v -1.525950 67.457077 6.026670
v -3.484290 67.596115 3.604620
v -3.314510 65.305870 6.391191
v -3.906000 66.122658 1.060950
v -1.387910 68.304062 1.138050
v -4.742790 65.166229 3.883100
v -1.089220 66.361832 -0.199760
v -1.364700 65.390480 7.527630
v 1.608870 57.146751 0.202440
v 6.384740 56.972778 -0.022690
v 5.357600 55.500290 -1.476650
v 4.726860 44.029411 0.693830
v 5.825670 55.343189 1.093380
v 4.331830 52.611778 3.802160
v 2.886930 46.026501 3.511960
v 2.340030 62.334080 4.180230
v 0.653200 65.753090 6.580820
v 0.571640 68.053314 3.798360
v 1.553230 66.764351 1.337560
v 2.302260 65.994904 4.241620
v 8.693180 47.059742 0.757900
v 9.956580 47.602280 -0.627480
v 8.205860 47.483742 -0.809870
v 12.182040 39.075912 4.077560
v 11.590600 38.645699 2.826430
v 12.969210 37.145721 6.846210
v 14.110050 36.722820 5.650630
v 11.121640 34.773727 5.491520
v 11.819170 34.082230 6.326350
v 14.154940 36.171452 7.131550
v 13.144170 36.748001 7.876590
v 12.386360 34.412930 4.201760
v 8.215420 45.898190 -1.242400
v 11.040770 35.276218 6.344510
v -6.686490 46.454330 -3.547410
v -8.392760 47.161369 -4.161480
v -6.628730 47.493359 -4.654580
v -9.688440 37.200462 -5.479640
v -9.187060 37.251629 -3.927270
v -9.255140 33.574440 -3.548470
v -10.741590 33.895439 -3.450530
v -9.283110 32.868359 -6.333540
v -9.598640 31.712730 -5.846930
v -8.526670 32.918209 -3.856710
v -10.013410 32.152100 -4.073300
v -11.067229 33.316940 -6.397690
v -7.018070 45.834087 -5.903890
v -8.320860 32.926918 -5.912700
v -1.568140 68.725800 3.915990

vt 0.041167 0.207596
vt 0.110151 0.210653
vt 0.155860 0.150950
vt 0.155860 0.004599
vt 0.155860 0.116597
vt 0.016826 0.121516
vt 0.041418 0.161189
vt 0.949447 0.134245
vt 0.995856 0.201252
vt 0.949499 0.409452
vt 0.551298 0.441597
vt 0.512470 0.342436
vt 0.575861 0.342435
vt 0.577815 0.441679
vt 0.612137 0.441505
vt 0.706701 0.502779
vt 0.696656 0.011408
vt 0.727269 0.011327
vt 0.645747 0.342436
vt 0.083576 0.100021
vt 0.929942 0.015737
vt 0.937563 0.081772
vt 0.976707 -0.002805
vt 0.541706 0.010011
vt 0.576207 0.008899
vt 0.614144 0.010012
vt 0.986514 0.082171
vt 0.745226 0.025720
vt 0.759970 0.153483
vt 0.893974 0.060016
vt 0.657033 0.011235
vt 0.644583 0.533150
vt 0.661859 0.447959
vt 0.577221 0.401965
vt 0.605389 0.404491
vt 0.544413 0.404514
vt 0.578392 0.404501
vt 0.041816 0.207204
vt 0.110952 0.210261
vt 0.017475 0.121124
vt 0.042068 0.160797
vt 0.903194 0.201252
vt 0.551124 0.441597
vt 0.575687 0.342435
vt 0.512296 0.342436
vt 0.577641 0.441679
vt 0.611963 0.441505
vt 0.706340 0.502779
vt 0.726909 0.011327
vt 0.696296 0.011408
vt 0.645573 0.342436
vt 0.084225 0.099629
vt 0.929963 0.015912
vt 0.976727 -0.002629
vt 0.937584 0.081947
vt 0.541532 0.010012
vt 0.576032 0.008899
vt 0.613969 0.010012
vt 0.986534 0.082346
vt 0.745246 0.025895
vt 0.759991 0.153658
vt 0.893994 0.060191
vt 0.656672 0.011235
vt 0.644015 0.533150
vt 0.661498 0.447959
vt 0.381082 0.518613
vt 0.473854 0.521496
vt 0.487486 0.708873
vt 0.014451 0.867957
vt 0.259309 0.958815
vt 0.064134 0.963664
vt 0.200040 0.895796
vt 0.262305 0.513873
vt 0.313315 0.867634
vt 0.208224 0.890630
vt 0.254415 0.957943
vt 0.481717 0.903440
vt 0.370073 0.709764
vt 0.432103 0.963629
vt 0.836118 0.400333
vt 0.829257 0.200049
vt 0.882028 0.148045
vt 0.017902 0.579199
vt 0.380473 0.519374
vt 0.489377 0.709146
vt 0.475746 0.521769
vt 0.017213 0.579344
vt 0.264196 0.514145
vt 0.202500 0.892108
vt 0.781778 0.385894
vt 0.843708 0.501773
vt 0.780162 0.719667
vt 0.716616 0.501773
vt 0.693215 0.695775
vt 0.686544 0.686130
vt 0.862344 0.686130
vt 0.780162 0.918634
vt 0.727648 0.914313
vt 0.726518 0.864095
vt 0.644622 0.875516
vt 0.727648 0.913360
vt 0.668670 0.934651
vt 0.662812 0.686130
vt 0.774444 0.696650
vt 0.675135 0.851794
vt 0.754605 0.153718
vt 0.774442 0.685255
vt 0.570516 0.685255
vt 0.557177 0.894376
vt 0.780162 0.858665
vt 0.378581 0.519101
vt 0.264520 0.510851
vt 0.867108 0.695776
vt 0.833805 0.864094
vt 0.832675 0.914313
vt 0.876407 0.940368
vt 0.829816 0.915266
vt 0.903910 0.879089
vt 0.886077 0.686130
vt 0.885188 0.851794
vt 0.978370 0.902000
vt 0.970745 0.689067
vt 0.015051 0.437421
vt 0.483254 0.495410
vt 0.019651 0.499739
vt 0.485816 0.465265
vt 0.061328 0.470496
vt 0.456904 0.444276
vt 0.016578 0.361735
vt 0.497541 0.430257
vt 0.497522 0.315677
vt 0.030493 0.438014
vt 0.305714 0.121311
vt 0.311705 0.269102
vt 0.476265 0.265798
vt 0.311331 0.122120
vt 0.478135 0.269445
vt 0.474964 0.122436
vt 0.461620 0.035542
vt 0.280508 0.010562
vt 0.320302 0.079754
vt 0.253177 0.093723
vt 0.315903 0.079819
vt 0.472325 0.121974
vt 0.070278 0.285701
vt 0.920818 0.191822
vt 0.868261 0.170952
vt 0.860894 0.212089
vt 0.752496 0.179666
vt 0.862106 0.210890
vt 0.867519 0.168135
vt 0.459195 0.079729
vt 0.317137 0.081379
vt 0.314453 0.074899
vt 0.488803 0.132862
vt 0.016472 0.437484
vt 0.021071 0.499801
vt 0.484674 0.495472
vt 0.487236 0.465328
vt 0.062748 0.470559
vt 0.458325 0.444339
vt 0.023005 0.360749
vt 0.503948 0.314690
vt 0.503967 0.429270
vt 0.036919 0.437028
vt 0.076705 0.284714
vt 0.780162 0.976831
vt 0.780162 0.974925
vt 0.774444 0.978737

vn -0.393579 0.892963 0.218432
vn 0.927939 -0.366994 -0.065155
vn -0.335207 0.745654 0.575879
vn -0.577535 0.311281 0.754690
vn 0.646805 0.453527 -0.613152
vn 0.786924 0.116445 0.605963
vn 0.674158 0.694189 0.252215
vn 0.599588 -0.744792 0.292882
vn 0.260475 0.909674 0.323491
vn -0.933792 -0.103393 -0.342552
vn 0.933148 0.092183 0.347473
vn -0.568072 0.821741 0.045129
vn 0.693353 -0.720471 -0.013541
vn 0.056916 0.971450 0.230315
vn 0.728655 0.684271 -0.028896
vn 0.754632 -0.643674 0.127335
vn 0.619627 -0.777484 0.107611
vn -0.701794 -0.712107 -0.019709
vn 0.114494 0.971043 0.209683
vn -0.977299 0.211203 0.016709
vn 0.964557 0.028179 0.262367
vn 0.047623 -0.247655 -0.967677
vn 0.050546 -0.249190 -0.967135
vn -0.563316 0.811153 -0.157182
vn 0.103980 0.978446 -0.178417
vn -0.840129 -0.541855 -0.023989
vn 0.326175 -0.233330 0.916061
vn -0.083106 -0.352918 0.931956
vn -0.506317 -0.149663 0.849261
vn -0.712427 -0.671749 0.202981
vn 0.263878 -0.964186 -0.026724
vn -0.371571 -0.413633 -0.831170
vn 0.531811 -0.282361 -0.798404
vn 0.473071 0.302214 0.827569
vn -0.755910 0.651039 0.068900
vn 0.879141 0.377793 0.290488
vn -0.252321 0.722867 0.643271
vn 0.510769 -0.587063 -0.628070
vn -0.901504 0.131260 0.412386
vn -0.490796 0.258056 0.832182
vn 0.275875 0.717746 0.639323
vn -0.894993 -0.267850 -0.356712
vn 0.268767 0.710573 0.650270
vn 0.382063 0.255432 0.888134
vn -0.494054 0.253136 -0.831765
vn -0.859980 0.061017 0.506666
vn 0.034264 0.210965 -0.976893
vn 0.017216 0.169881 -0.985314
vn -0.270113 0.215692 -0.938358
vn -0.933221 0.010245 0.359158
vn 0.536420 0.416598 -0.733962
vn -0.984671 0.150353 0.088419
vn -0.995185 -0.000264 0.098014
vn 0.889041 0.232473 -0.394413
vn -0.727631 -0.577134 -0.370769
vn -0.024848 0.370850 -0.928360
vn -0.270648 0.030057 -0.962209
vn -0.799205 -0.119745 0.589010
vn -0.931714 -0.076416 0.355064
vn 0.235248 -0.154585 0.959563
vn -0.059603 0.354067 -0.933319
vn 0.965927 0.202924 -0.160643
vn -0.987379 0.155644 -0.029290
vn 0.044026 -0.996363 0.072949
vn 0.043532 -0.996367 0.073192
vn 0.910471 0.036660 -0.411944
vn -0.004044 0.009122 -0.999950
vn 0.795299 -0.015441 0.606021
vn -0.555290 0.763648 0.329384
vn -0.009809 0.849953 0.526767
vn 0.426540 0.846527 0.318520
vn 0.233780 -0.006883 0.972265
vn 0.250107 0.001969 0.968216
vn 0.590991 -0.229380 -0.773379
vn -0.307653 -0.135042 -0.941867
vn -0.618237 0.143010 0.772872
vn 0.693985 0.669347 0.265254
vn -0.944641 0.326571 -0.031681
vn -0.014505 0.584425 0.811318
vn -0.295255 -0.467167 -0.833414
vn 0.809902 0.067493 0.582670
vn 0.250530 0.112162 0.961590
vn 0.732144 -0.249912 -0.633648
vn -0.087230 0.946119 -0.311848
vn -0.233635 0.462795 -0.855123
vn -0.983680 -0.022637 0.178498
vn -0.091392 0.771420 0.629729
vn -0.576021 -0.063340 0.814977
vn -0.188044 -0.000465 0.982161
vn -0.217288 0.076173 0.973131
vn -0.499783 -0.228445 0.835481
vn -0.124065 -0.107942 -0.986385
vn 0.328092 0.704637 0.629160
vn 0.682632 -0.572711 0.453889
vn -0.443577 -0.315600 -0.838831
vn -0.977650 0.122704 -0.170719
vn 0.040140 -0.394691 0.917937
vn -0.687848 -0.198535 0.698175
vn 0.130789 -0.518862 -0.844794
vn -0.608125 0.594709 0.525838
vn -0.615654 0.721851 -0.316073
vn -0.132238 0.948022 0.289426
vn -0.817147 0.023209 0.575962
vn -0.838782 -0.477363 -0.261857
vn 0.135416 -0.752792 -0.644180
vn -0.912114 -0.157308 -0.378552
vn -0.923798 -0.183436 -0.336079
vn -0.907942 0.080681 -0.411256
vn 0.229901 -0.965889 -0.119177
vn -0.604708 -0.066071 -0.793702
vn -0.481115 -0.239548 0.843294
vn -0.691094 -0.177627 0.700598
vn 0.020881 0.955205 -0.295206
vn 0.270771 0.574112 -0.772709
vn 0.978979 -0.088592 -0.183713
vn -0.032463 0.572319 0.819388
vn 0.911172 -0.102587 0.399051
vn 0.184379 -0.083611 0.979292
vn -0.580525 -0.576935 0.574576
vn -0.882105 -0.298674 -0.364260
vn 0.053125 0.189744 0.980395
vn 0.339381 -0.123774 0.932470
vn 0.211428 -0.120528 -0.969934
vn 0.043353 0.738974 0.672338
vn 0.325860 -0.193038 -0.925501
vn -0.002804 -0.985756 -0.168156
vn 0.599722 0.000608 0.800208
vn 0.408577 0.709313 0.574403
vn 0.461624 0.848090 -0.260090
vn -0.009657 0.706783 0.707364
vn 0.753368 -0.193002 0.628639
vn 0.971367 -0.156267 -0.178960
vn 0.075207 -0.488667 -0.869223
vn 0.970965 0.014021 -0.238810
vn 0.513334 -0.130282 -0.848242
vn 0.845737 0.243760 -0.474668
vn 0.900441 0.363879 0.238322
vn 0.798826 0.203744 -0.566008
vn 0.790554 -0.315837 0.524664
vn 0.600555 -0.007212 0.799551
vn -0.932439 -0.328848 0.149720
vn 0.623204 0.284567 -0.728449
vn 0.707544 0.217703 0.672300
vn 0.678813 0.213400 0.702619
vn 0.106514 -0.044775 -0.993303
vn -0.927738 -0.312670 0.203812
vn 0.904057 0.000112 -0.427411
vn 0.525275 0.512110 0.679581
vn -0.863436 -0.181629 0.470626
vn -0.912392 0.165132 0.374530
vn 0.804828 0.329376 -0.493724
vn -0.815467 0.391927 0.425918
vn 0.246243 -0.575783 0.779640
vn 0.611106 0.720226 0.328367
vn -0.827378 0.462303 0.318938
vn -0.718084 -0.333483 -0.610855
vn 0.710712 -0.092960 -0.697315
vn -0.909119 -0.227238 0.349092
vn 0.513288 -0.225663 -0.828017
vn 0.082363 0.262746 -0.961343
vn -0.957793 -0.081014 0.275807
vn -0.502587 -0.823746 -0.262391
vn 0.764322 -0.636225 0.105021
vn 0.691951 -0.669463 -0.270228
vn 0.571285 0.774683 0.271106
vn 0.592714 0.780070 0.200451
vn -0.423246 -0.288988 0.858690
vn -0.210964 0.833344 -0.510913
vn -0.812176 -0.533089 0.237036
vn 0.980853 -0.084094 -0.175659
vn -0.381362 0.388272 -0.838933
vn -0.877306 -0.083519 0.472608
vn -0.408696 -0.216184 0.886697
vn -0.314337 0.374709 -0.872230
vn 0.992466 -0.110827 -0.052226
vn -0.949096 0.083253 0.303787
vn -0.320550 0.048051 0.946012
vn 0.926155 -0.239636 -0.291223
vn 0.950925 -0.049077 -0.305504
vn -0.860492 0.436002 0.263543
vn 0.994360 0.100001 -0.035338
vn 0.400098 -0.863366 0.307442
vn 0.087006 0.100490 0.991126
vn 0.607352 0.768596 -0.200955
vn 0.085469 0.200373 -0.975985
vn -0.944573 0.325805 0.040415
vn 0.953081 -0.297528 -0.055796
vn -0.699565 0.182425 -0.690890
vn -0.317423 0.616798 -0.720280
vn 0.982728 -0.157741 -0.096761
vn -0.060568 -0.373271 -0.925743
vn -0.755973 -0.621502 0.205525
vn -0.930544 -0.341133 -0.133105
vn -0.011630 -0.340688 0.940104
vn 0.056788 -0.372123 0.926445
vn 0.689122 -0.721640 0.065926
vn -0.059968 0.998199 -0.001773
vn 0.381402 -0.445254 -0.810112
vn -0.451965 0.500852 0.738156
vn -0.506439 0.734530 0.451646
vn -0.784609 0.454674 0.421498
vn -0.391981 0.480217 -0.784693
vn -0.887582 0.446897 -0.111720
vn -0.481490 0.861349 -0.162006
vn -0.386459 -0.197464 -0.900920
vn -0.762557 -0.455272 0.459602
vn 0.257875 0.580870 0.772069
vn 0.610109 0.619357 0.494130
vn 0.285821 0.823835 0.489491
vn 0.347735 0.567536 -0.746313
vn 0.291198 0.948448 -0.125098
vn 0.768136 0.639645 -0.028644
vn 0.969256 0.017138 -0.245456
vn 0.442701 -0.159812 0.882313

f 1/1/1 2/2/1 3/3/1
f 4/4/2 5/5/2 2/2/2
f 6/6/3 1/1/3 3/3/3
f 6/6/4 3/3/4 4/4/4
f 2/2/5 1/1/5 7/7/5
f 3/8/6 2/9/6 8/10/6
f 9/11/7 10/12/7 11/13/7
f 10/12/8 12/14/8 13/13/8
f 14/15/9 9/11/9 11/13/9
f 10/12/10 9/11/10 12/14/10
f 7/16/11 12/17/11 9/18/11
f 15/19/12 14/15/12 11/13/12
f 6/6/13 4/4/13 16/20/13
f 17/21/14 18/22/14 19/23/14
f 11/13/15 10/12/15 18/24/15
f 18/24/16 13/13/16 20/25/16
f 10/12/17 13/13/17 18/24/17
f 13/13/18 15/19/18 17/26/18
f 19/23/19 18/22/19 21/27/19
f 17/21/20 19/23/20 22/28/20
f 21/27/21 18/22/21 23/29/21
f 22/28/22 21/27/22 23/29/22
f 21/27/23 22/28/23 19/23/23
f 17/26/24 15/19/24 11/13/24
f 11/13/25 18/24/25 17/26/25
f 13/13/26 17/26/26 20/25/26
f 18/22/27 20/30/27 23/29/27
f 20/30/28 22/28/28 23/29/28
f 20/30/29 17/21/29 22/28/29
f 15/19/30 13/13/30 12/14/30
f 15/19/31 12/14/31 14/15/31
f 14/31/32 2/32/32 9/18/32
f 9/18/33 2/32/33 7/16/33
f 16/33/34 12/17/34 7/16/34
f 7/34/35 16/35/35 6/36/35
f 7/7/36 1/1/36 6/6/36
f 7/34/37 2/35/37 16/37/37
f 16/20/38 4/4/38 2/2/38
f 14/31/39 16/33/39 2/32/39
f 14/31/40 12/17/40 16/33/40
f 24/38/41 3/3/41 25/39/41
f 4/4/42 25/39/42 5/5/42
f 26/40/43 3/3/43 24/38/43
f 26/40/44 4/4/44 3/3/44
f 27/41/45 24/38/45 25/39/45
f 3/8/46 8/10/46 25/42/46
f 25/39/47 2/2/47 5/5/47
f 2/9/48 25/42/48 8/10/48
f 28/43/49 29/44/49 30/45/49
f 30/45/50 31/44/50 32/46/50
f 33/47/51 29/44/51 28/43/51
f 30/45/52 32/46/52 28/43/52
f 27/48/53 28/49/53 32/50/53
f 34/51/54 29/44/54 33/47/54
f 26/40/55 35/52/55 4/4/55
f 36/53/56 37/54/56 38/55/56
f 29/44/57 38/56/57 30/45/57
f 38/56/58 39/57/58 31/44/58
f 30/45/59 38/56/59 31/44/59
f 31/44/60 36/58/60 34/51/60
f 37/54/61 40/59/61 38/55/61
f 36/53/62 41/60/62 37/54/62
f 40/59/63 42/61/63 38/55/63
f 41/60/64 42/61/64 40/59/64
f 40/59/65 37/54/65 41/60/65
f 36/58/66 29/44/66 34/51/66
f 29/44/67 36/58/67 38/56/67
f 31/44/68 39/57/68 36/58/68
f 38/55/69 42/61/69 39/62/69
f 39/62/70 42/61/70 41/60/70
f 39/62/71 41/60/71 36/53/71
f 34/51/72 32/46/72 31/44/72
f 34/51/73 33/47/73 32/46/73
f 33/63/74 28/49/74 25/64/74
f 28/49/75 27/48/75 25/64/75
f 35/65/76 27/48/76 32/50/76
f 27/34/77 26/36/77 35/35/77
f 26/40/78 24/38/78 27/41/78
f 27/34/79 35/37/79 25/35/79
f 35/52/80 25/39/80 4/4/80
f 33/63/81 25/64/81 35/65/81
f 33/63/82 35/65/82 32/50/82
f 43/66/83 44/67/83 45/68/83
f 46/69/84 47/70/84 48/71/84
f 46/69/85 49/72/85 47/70/85
f 44/73/86 50/74/86 49/75/86
f 47/76/87 50/74/87 51/77/87
f 52/78/88 44/73/88 43/66/88
f 52/78/89 43/66/89 45/68/89
f 51/77/90 48/79/90 47/76/90
f 53/80/91 48/81/91 51/82/91
f 46/69/92 8/83/92 49/72/92
f 52/78/93 45/68/93 51/77/93
f 8/84/94 45/85/94 44/86/94
f 8/87/95 44/88/95 49/89/95
f 54/90/96 48/81/96 53/80/96
f 55/91/97 56/92/97 57/93/97
f 57/93/98 56/92/98 58/94/98
f 59/95/99 60/96/99 57/93/99
f 61/97/100 62/98/100 63/99/100
f 64/100/101 62/101/101 65/102/101
f 50/74/102 52/78/102 51/77/102
f 50/74/103 44/73/103 52/78/103
f 57/93/104 58/94/104 59/103/104
f 60/96/105 59/95/105 53/104/105
f 58/94/106 66/105/106 59/103/106
f 59/95/107 66/105/107 64/100/107
f 46/106/108 48/81/108 54/90/108
f 53/104/109 59/95/109 54/107/109
f 54/108/110 59/95/110 67/109/110
f 56/92/111 68/110/111 63/99/111
f 66/105/112 58/94/112 56/92/112
f 46/69/113 69/71/113 70/70/113
f 46/69/114 70/70/114 71/72/114
f 72/73/115 71/75/115 73/74/115
f 70/76/116 51/77/116 73/74/116
f 73/74/117 74/78/117 72/73/117
f 74/78/118 45/68/118 75/66/118
f 72/67/119 45/68/119 8/111/119
f 72/67/120 75/66/120 45/68/120
f 51/77/121 70/76/121 69/79/121
f 53/80/122 51/82/122 69/81/122
f 46/69/123 71/72/123 8/83/123
f 74/78/124 51/77/124 45/68/124
f 8/87/125 71/89/125 72/112/125
f 60/96/126 53/104/126 54/107/126
f 55/91/127 76/113/127 56/92/127
f 77/114/128 78/115/128 61/97/128
f 65/116/129 78/117/129 79/118/129
f 73/74/130 51/77/130 74/78/130
f 72/73/131 74/78/131 75/66/131
f 55/91/132 60/119/132 76/113/132
f 55/91/133 57/93/133 60/96/133
f 76/113/134 60/119/134 80/120/134
f 60/96/135 67/121/135 79/118/135
f 46/106/136 54/90/136 69/81/136
f 69/81/137 54/90/137 53/80/137
f 54/122/138 67/121/138 60/96/138
f 56/92/139 80/120/139 77/114/139
f 80/120/140 56/92/140 76/113/140
f 71/123/141 81/124/141 73/125/141
f 82/126/142 71/123/142 70/127/142
f 73/125/143 81/124/143 70/127/143
f 81/124/144 82/126/144 70/127/144
f 83/128/145 71/123/145 82/126/145
f 71/123/146 83/128/146 81/124/146
f 82/129/147 84/130/147 85/131/147
f 81/132/148 84/130/148 82/129/148
f 81/132/149 85/131/149 84/130/149
f 86/133/150 84/134/150 85/135/150
f 84/134/151 87/136/151 85/137/151
f 85/135/152 88/138/152 86/133/152
f 89/139/153 90/140/153 91/141/153
f 87/142/154 84/134/154 86/133/154
f 88/138/155 91/143/155 86/133/155
f 92/144/156 88/138/156 85/137/156
f 85/137/157 87/136/157 92/144/157
f 93/145/158 85/131/158 81/132/158
f 82/129/159 85/131/159 93/145/159
f 82/146/160 93/147/160 83/148/160
f 81/149/161 83/150/161 93/151/161
f 89/152/162 88/138/162 92/144/162
f 92/144/163 87/136/163 89/152/163
f 89/152/164 87/136/164 90/153/164
f 90/154/165 87/136/165 86/133/165
f 91/141/166 90/154/166 86/133/166
f 94/155/167 89/139/167 91/143/167
f 88/138/168 94/155/168 91/143/168
f 94/155/169 88/138/169 89/152/169
f 49/156/170 50/157/170 95/158/170
f 96/159/171 47/160/171 49/156/171
f 50/157/172 47/160/172 95/158/172
f 95/158/173 47/160/173 96/159/173
f 97/161/174 96/159/174 49/156/174
f 49/156/175 95/158/175 97/161/175
f 96/162/176 98/163/176 99/164/176
f 95/165/177 96/162/177 99/164/177
f 95/165/178 99/164/178 98/163/178
f 100/133/179 98/135/179 99/134/179
f 99/134/180 98/137/180 101/136/180
f 98/135/181 100/133/181 102/138/181
f 103/139/182 104/141/182 105/140/182
f 101/142/183 100/133/183 99/134/183
f 102/138/184 100/133/184 104/143/184
f 106/144/185 98/137/185 102/138/185
f 98/137/186 106/144/186 101/136/186
f 107/166/187 95/165/187 98/163/187
f 96/162/188 107/166/188 98/163/188
f 96/146/189 97/148/189 107/147/189
f 95/149/190 107/151/190 97/150/190
f 103/152/191 106/144/191 102/138/191
f 106/144/192 103/152/192 101/136/192
f 103/152/193 105/153/193 101/136/193
f 105/154/194 100/133/194 101/136/194
f 104/141/195 100/133/195 105/154/195
f 108/155/196 104/143/196 103/139/196
f 102/138/197 104/143/197 108/155/197
f 108/155/198 103/152/198 102/138/198
f 68/110/199 61/97/199 63/99/199
f 61/97/200 109/167/200 62/98/200
f 63/99/201 62/98/201 66/105/201
f 67/109/202 64/100/202 65/102/202
f 64/100/203 66/105/203 62/101/203
f 65/102/204 62/101/204 109/168/204
f 59/95/205 64/100/205 67/109/205
f 56/92/206 63/99/206 66/105/206
f 68/110/207 77/114/207 61/97/207
f 77/114/208 80/120/208 78/115/208
f 61/97/209 78/115/209 109/167/209
f 67/121/210 65/116/210 79/118/210
f 65/116/211 109/169/211 78/117/211
f 79/118/212 78/117/212 80/120/212
f 60/96/213 79/118/213 80/120/213
f 56/92/214 77/114/214 68/110/214

