mtllib animateBarbarianAxe__000016.mtl

o fat
usemtl fat.001
s off

v -0.173360 37.598660 -2.614780
v 1.860240 37.156109 7.026690
v 0.436770 37.391449 2.380540
v -0.735110 59.282322 -7.762050
v 8.656651 66.059677 -7.699380
v 1.691420 55.514458 -6.850850
v -1.083240 51.295162 -4.289670
v 9.495770 61.246452 -3.974380
v 7.461460 57.260368 -1.724780
v 6.680560 51.488708 -1.438050
v 3.306880 51.181511 -5.036660
v 5.650260 56.317741 -6.400890
v 9.061010 40.254093 5.842200
v 9.683300 38.378761 -0.840080
v 10.769110 37.539371 -0.999580
v 6.672680 39.948689 5.189050
v 3.993900 35.907063 8.004780
v 4.557730 33.437000 -3.519270
v 4.051440 36.689537 -4.292670
v 0.740560 37.212978 -3.394330
v -0.398910 36.602100 -4.530210
v -0.885670 64.941429 -7.611020
v -1.888450 66.932190 -7.559190
v 1.050810 58.637310 6.165650
v 5.753560 58.671322 5.215150
v 6.132150 62.904949 7.411140
v 7.740010 63.129730 0.537720
v 6.449610 65.671204 5.431850
v 11.256340 64.913437 -0.351340
v 5.104510 51.697048 3.681520
v 2.015000 51.462612 5.454800
v 1.239020 64.242172 7.443230
v 3.946970 69.775055 -5.724850
v 10.710640 67.123611 -6.931810
v 11.638240 67.037285 -3.327880
v 3.411890 69.976570 3.139930
v 5.382000 71.077263 -1.476210
v 0.819230 69.174454 4.248800
v 2.943400 75.385643 0.635580
v 2.924020 73.129456 -2.884660
v -0.285800 73.357979 -3.182090
v 0.312780 76.152313 -0.013550
v -1.274430 71.163147 -5.837350
v 1.071850 47.146729 6.092310
v 5.364230 47.124401 5.637480
v 8.418850 46.624863 0.472170
v 4.993240 45.882813 -4.695600
v -0.456690 45.777031 -5.344860
v 11.963950 64.501160 -1.033540
v 9.959470 64.182961 -8.321830
v 12.758590 66.051567 -3.572540
v 12.027750 66.160797 -6.688710
v 10.723690 61.617733 -0.405400
v 3.717340 74.292648 6.416230
v 2.519320 72.665321 8.200600
v 3.648170 70.503265 4.253730
v 3.144960 69.232468 6.358440
v 2.160940 71.460426 7.955300
v 3.022490 74.633141 8.103540
v 1.286210 74.524971 8.611300
v 3.975160 75.846718 3.771410
v 2.125230 78.479179 8.968309
v 0.876300 78.438507 9.416470
v 3.215010 75.842270 8.817250
v 3.690110 77.771515 7.887860
v 2.474480 80.037804 6.312300
v 0.826420 80.091156 6.354590
v 1.692070 72.648071 8.848620
v 0.740090 75.257881 9.045940
v 0.695880 73.141159 10.051929
v 0.650380 72.613777 9.372550
v 0.585350 71.036880 9.256140
v 2.207620 68.581673 8.215839
v 0.764730 68.443359 9.009510
v 3.915760 78.176079 4.017430
v 3.406020 79.474022 3.636890
v 0.689560 79.889458 2.872690
v 14.060201 64.104073 -2.202910
v 13.965120 65.305672 -5.695160
v 7.908460 57.087448 -7.846290
v 9.770190 56.423058 -3.666720
v 11.678400 63.121811 -8.736100
v 9.934300 52.775940 -8.885600
v 13.704840 49.463448 -12.079411
v 10.803841 48.391453 -9.857100
v 12.851070 52.636909 -10.889560
v 14.421491 53.950428 -8.621710
v 15.743860 49.497242 -10.005540
v 14.005409 52.999439 -6.693660
v 15.089370 48.782570 -7.130360
v 11.803750 51.213570 -6.411490
v 12.419400 48.062157 -6.414140
v 12.146950 55.500759 -10.374201
v 12.549930 54.254360 -10.683060
v 14.377399 59.174152 -7.551610
v 13.717240 57.976891 -4.319490
v 11.332740 52.882217 -5.739040
v 11.470739 58.244583 -10.732130
v 14.719991 42.343002 -12.278470
v 13.452070 41.829140 -10.966240
v 16.076229 42.512798 -11.526190
v 15.849900 42.197071 -9.676320
v 14.369420 41.765617 -9.068480
v 14.750690 36.820229 -7.471120
v 14.499281 36.678802 -8.346340
v 14.944620 37.762772 -8.938730
v 15.542400 38.388550 -8.508430
v 16.744921 37.670792 -9.464670
v 13.501019 38.903091 -7.949900
v 14.788751 38.375980 -7.826070
v 13.653450 36.741230 -7.491040
v 14.720070 35.354969 -7.607850
v 13.881290 35.404079 -7.675700
v 16.749519 35.457539 -9.768220
v 15.105980 38.509701 -13.981820
v 15.527140 36.613190 -14.316770
v 16.225811 33.776180 -14.206440
v 15.551080 35.725430 -9.370910
v 16.492430 36.758278 -13.917101
v 16.407440 38.686050 -13.625309
v 16.280670 32.699448 -10.058100
v 3.050300 28.231010 8.280630
v 5.899190 21.819601 1.963280
v 3.549490 20.567829 8.210320
v 8.923480 28.103380 6.947280
v 10.854490 21.197691 6.056110
v 5.357170 28.042440 4.537090
v 7.020290 26.387230 10.574599
v 7.571210 20.943079 11.201591
v 6.979230 28.347380 10.793571
v 7.250220 30.267128 9.996300
v 10.057581 30.776939 4.721750
v 7.381110 35.849499 7.716130
v 9.500920 10.213730 4.827640
v 10.529610 7.664700 3.672830
v 7.645920 9.226210 1.867700
v 8.200570 7.670300 6.530480
v 5.920050 9.878820 5.078820
v 5.577180 7.052530 3.862750
v 6.599710 4.795080 -0.150610
v 9.668270 5.192530 -0.258340
v 6.352330 1.632550 7.121620
v 12.174330 1.805220 7.003940
v 8.272860 0.913690 10.581079
v 10.751200 -0.840760 10.141140
v 6.727910 -1.525490 10.254120
v -10.442840 65.861145 -4.191250
v -2.900960 55.482670 -6.276970
v -10.068330 61.010319 -1.651560
v -7.246830 57.159801 0.076700
v -5.289890 51.323326 -1.991750
v -5.914960 51.345840 2.797950
v -6.401280 56.234909 -5.176860
v -9.352170 38.224701 0.967960
v -7.296500 33.789680 6.095830
v -10.502090 37.521999 0.609030
v -4.979820 35.220039 5.902790
v -5.387520 37.335590 -5.239620
v -4.760860 38.799320 -4.102020
v -1.280190 38.113419 -3.780880
v -3.928990 58.604851 6.397600
v -4.998460 62.828941 7.921420
v -9.799550 62.094261 4.339740
v -4.238310 65.596306 7.024680
v -9.651180 66.002640 4.700680
v -1.446930 51.348419 6.120180
v -11.987500 66.919968 -2.659790
v -5.896340 69.766075 -3.430510
v -11.402020 67.402145 1.913210
v -1.953080 69.989922 4.010750
v -5.262090 71.166748 0.522950
v -2.202760 75.518784 1.160630
v -3.258320 73.214958 -2.019170
v -3.837170 46.744709 6.503090
v -7.974770 46.410271 1.897630
v -5.576800 45.927246 -3.700200
v -11.437500 64.869148 3.878290
v -12.027650 63.539711 -4.163660
v -12.785730 66.327621 1.649830
v -13.104269 65.685402 -1.708290
v -9.643520 61.701370 3.686250
v -1.290600 72.812027 8.341850
v -2.488760 74.531639 6.646320
v -2.369430 70.603592 4.914400
v -1.319890 69.336304 6.888910
v -0.669160 71.562050 8.134880
v 0.108660 74.570305 8.654980
v -1.646970 74.812950 8.276649
v -2.821320 76.108444 4.023380
v -0.395530 78.576241 9.061750
v -1.692760 76.031273 8.999210
v -2.085720 77.993935 8.101980
v -0.819470 80.164642 6.434440
v -0.421470 72.729446 8.926970
v -0.433970 68.660263 8.457530
v -2.565200 78.425629 4.257730
v -1.986820 79.681679 3.836810
v -13.543630 63.987640 3.191650
v -14.718270 64.783691 -0.277300
v -10.587690 57.433502 0.147820
v -9.939780 56.425240 -4.149390
v -13.376841 62.232670 -3.786650
v -13.017859 46.950432 -1.578300
v -10.759171 52.164921 -2.673260
v -9.668620 48.494293 -0.630090
v -13.705681 50.588223 -3.137660
v -15.125299 52.550579 -1.331980
v -14.512891 47.908478 0.724900
v -14.117160 52.804798 0.448550
v -13.194910 49.588699 2.880510
v -10.427341 50.265560 2.665540
v -11.537060 51.919609 0.602480
v -13.935831 53.174690 -4.246550
v -13.892920 52.054173 -3.774250
v -16.317829 57.346348 -2.294310
v -14.720230 57.867771 0.532980
v -11.591780 54.405499 -0.386480
v -14.087891 55.559639 -5.680480
v -10.628080 41.768551 2.795170
v -9.071210 42.638870 3.429570
v -11.753901 42.084850 3.830620
v -11.058189 43.220039 5.236140
v -9.503460 43.677402 5.210270
v -7.076650 40.617172 8.569480
v -7.193530 41.258560 9.220280
v -8.080080 40.858498 7.759490
v -8.807910 41.455696 7.985120
v -9.690320 40.029358 8.256340
v -8.021370 42.083679 8.129789
v -7.177360 42.647636 7.170190
v -6.214120 41.438377 8.751750
v -6.507330 40.158691 9.917140
v -5.819100 40.333763 9.463110
v -8.716340 38.290668 9.263440
v -9.065010 36.241768 4.880930
v -9.524290 37.874001 3.883440
v -8.318230 34.196690 6.838590
v -7.732010 39.017349 8.852340
v -9.890181 36.399902 5.518540
v -10.662660 37.949291 4.625260
v -7.075840 36.289970 10.366390
v -5.838730 23.091299 -12.711010
v -2.725700 25.280472 -3.503580
v -3.414660 19.412621 -9.364020
v -10.730669 20.991131 -9.981180
v -8.616410 26.288900 -4.430570
v -5.084680 28.220881 -6.208000
v -6.703090 22.159319 -3.276820
v -7.378660 17.621820 -6.873490
v -6.620730 23.344309 -1.568990
v -6.182170 25.803772 -0.372520
v -9.798380 29.536049 -2.611130
v -5.890610 29.965391 3.148200
v -10.674500 11.046430 -19.080711
v -9.571239 12.701859 -16.793280
v -7.548230 12.967139 -20.017601
v -8.583280 9.624390 -16.348459
v -5.786780 9.906410 -19.005739
v -6.029710 11.885190 -16.672569
v -6.541190 9.580470 -23.700760
v -9.586750 10.288679 -23.745480
v -7.300400 3.691230 -17.895531
v -13.328629 4.984620 -18.215740
v -10.330690 2.515920 -14.858730
v -12.930740 1.472020 -16.109240
v -9.112250 0.057430 -15.815100

vt 0.550479 0.485338
vt 0.414517 0.485338
vt 0.489174 0.497239
vt 0.490853 0.675485
vt 0.356970 0.710738
vt 0.458986 0.602657
vt 0.458693 0.603155
vt 0.491001 0.506534
vt 0.357039 0.710738
vt 0.272881 0.708251
vt 0.307767 0.663467
vt 0.329118 0.504113
vt 0.420682 0.504388
vt 0.307693 0.663467
vt 0.420389 0.504181
vt 0.390374 0.619683
vt 0.389206 0.622726
vt 0.390855 0.620128
vt 0.309151 0.663075
vt 0.578845 0.971377
vt 0.529882 0.993867
vt 0.501054 0.950636
vt 0.597833 0.993868
vt 0.684209 0.993870
vt 0.691613 0.940228
vt 0.584242 0.936155
vt 0.602549 0.993867
vt 0.689094 0.993870
vt 0.694409 0.971380
vt 0.730001 0.975635
vt 0.490853 0.781888
vt 0.490853 0.820915
vt 0.240556 0.660920
vt 0.133663 0.660928
vt 0.131880 0.753091
vt 0.060606 0.782384
vt 0.055577 0.663688
vt 0.136145 0.808744
vt 0.060014 0.783494
vt 0.058190 0.859642
vt 0.160773 0.512959
vt 0.067037 0.515196
vt 0.240700 0.512959
vt 0.131877 0.752996
vt 0.240556 0.781375
vt 0.390182 0.870896
vt 0.298691 0.847983
vt 0.294173 0.886121
vt 0.181129 0.899551
vt 0.052544 0.886601
vt 0.145152 0.921474
vt 0.235241 0.891030
vt 0.142740 0.921054
vt 0.172936 0.966074
vt 0.456563 0.999059
vt 0.389917 0.922986
vt 0.429989 0.941889
vt 0.491140 0.942697
vt 0.490646 0.999330
vt 0.490853 0.898039
vt 0.701416 0.118225
vt 0.813217 0.120956
vt 0.790107 0.184348
vt 0.877923 0.002315
vt 0.872775 0.120438
vt 0.505869 0.118716
vt 0.564263 0.119120
vt 0.507564 0.183764
vt 0.697589 0.180917
vt 0.580429 0.182675
vt 0.710756 0.001536
vt 0.701372 0.182427
vt 0.812168 0.002315
vt 0.857243 0.184348
vt 0.697567 0.116528
vt 0.503935 0.000692
vt 0.561277 0.000692
vt 0.688827 -0.000098
vt 0.002866 0.854679
vt 0.027518 0.706813
vt 0.061197 0.782654
vt 0.055608 0.663958
vt 0.251604 0.781884
vt 0.357109 0.710738
vt 0.243886 0.876138
vt 0.247300 0.848527
vt -0.000514 0.880403
vt 0.006948 0.782948
vt 0.674684 0.829607
vt 0.705811 0.784366
vt 0.654033 0.662928
vt 0.703232 0.671848
vt 0.720473 0.730776
vt 0.697736 0.853617
vt 0.729837 0.853035
vt 0.623758 0.856571
vt 0.587609 0.811448
vt 0.658187 0.605708
vt 0.748523 0.593788
vt 0.716351 0.931575
vt 0.747491 0.935506
vt 0.695349 0.885675
vt 0.676247 0.904603
vt 0.649719 0.961956
vt 0.745560 1.001324
vt 0.725611 0.781438
vt 0.747491 0.878462
vt 0.747491 0.808438
vt 0.720379 0.731031
vt 0.747491 0.790807
vt 0.720762 0.730332
vt 0.748639 0.732530
vt 0.746944 0.628012
vt 0.703659 0.671442
vt 0.731857 0.666086
vt 0.747085 0.666819
vt 0.703186 0.671176
vt 0.611291 0.885598
vt 0.604148 0.909350
vt 0.550618 0.823662
vt 0.550618 0.934468
vt 0.625864 0.557513
vt 0.571978 0.557920
vt 0.578607 0.510287
vt 0.669444 0.510287
vt 0.756032 0.560223
vt 0.679695 0.557918
vt 0.877240 0.461159
vt 0.992418 0.461159
vt 0.944262 0.560223
vt 0.756457 0.510287
vt 0.806202 0.560223
vt 0.498275 0.560223
vt 0.875566 0.382888
vt 0.758260 0.308662
vt 0.875912 0.308662
vt 0.759996 0.360654
vt 0.669163 0.382888
vt 0.671223 0.308662
vt 0.584325 0.382888
vt 0.577057 0.308662
vt 0.498223 0.363687
vt 0.498247 0.308662
vt 0.992597 0.308662
vt 0.992439 0.363687
vt 0.759483 0.410364
vt 0.758924 0.382888
vt 0.665903 0.461159
vt 0.580075 0.461159
vt 0.498223 0.402657
vt 0.992438 0.402657
vt 0.760539 0.449273
vt 0.498220 0.461159
vt 0.875438 0.575163
vt 0.762705 0.196431
vt 0.858161 0.196355
vt 0.690657 0.196417
vt 0.588027 0.196417
vt 0.498144 0.196431
vt 0.991918 0.196431
vt 0.375723 0.009258
vt 0.380090 0.017573
vt 0.356438 0.030356
vt 0.342839 0.029458
vt 0.369327 0.043627
vt 0.316032 0.012201
vt 0.336848 0.019568
vt 0.249292 0.041099
vt 0.371147 0.002582
vt 0.416197 0.004791
vt 0.408124 0.000758
vt 0.128136 0.016613
vt 0.154876 0.002573
vt 0.119423 0.002194
vt 0.160447 0.001473
vt 0.065726 0.014292
vt 0.105093 0.028910
vt 0.000825 0.069213
vt 0.000703 0.039244
vt 0.249314 0.055441
vt 0.429228 0.045736
vt 0.102506 0.115410
vt 0.153549 0.117195
vt 0.189513 0.114692
vt 0.228429 0.109580
vt 0.194639 0.033982
vt 0.406548 0.108121
vt 0.355355 0.108206
vt 0.448349 0.035630
vt 0.498209 0.039288
vt 0.461840 0.047992
vt 0.483032 0.114221
vt 0.406174 0.120334
vt 0.355217 0.119080
vt 0.243215 0.037501
vt 0.249314 0.089732
vt 0.000703 0.095058
vt 0.249292 0.105039
vt 0.160984 0.032072
vt 0.413806 0.033644
vt 0.442212 0.108407
vt 0.443088 0.117732
vt 0.023914 0.327327
vt 0.104127 0.227894
vt 0.000784 0.227894
vt 0.216171 0.327327
vt 0.216985 0.228421
vt 0.105699 0.228145
vt 0.104981 0.327662
vt 0.217575 0.327327
vt 0.351490 0.301452
vt 0.217290 0.227894
vt 0.351571 0.227894
vt 0.352420 0.301452
vt 0.489174 0.227894
vt 0.352342 0.227894
vt 0.471690 0.333380
vt 0.351597 0.328057
vt 0.217345 0.328075
vt 0.352312 0.363299
vt 0.470864 0.334174
vt 0.352330 0.328057
vt 0.216660 0.380224
vt 0.216104 0.328075
vt 0.104983 0.328371
vt 0.217232 0.380224
vt 0.351611 0.363299
vt 0.351459 0.420971
vt 0.352499 0.420971
vt 0.351589 0.497239
vt 0.229465 0.497239
vt 0.352627 0.497239
vt 0.229583 0.497239
vt 0.133020 0.497239
vt 0.072972 0.497239
vt 0.025422 0.328212
vt 0.002386 0.497239
vt 0.216130 0.152222
vt 0.223982 0.125749
vt 0.105883 0.155747
vt 0.351732 0.147623
vt 0.223132 0.128232
vt 0.218721 0.149411
vt 0.469070 0.149411
vt 0.483427 0.127273
vt 0.352306 0.146326
vt 0.017963 0.152222
vt 0.104256 0.155747
vt 0.009616 0.131504
vt 0.104128 0.227914
vt 0.000790 0.227921
vt 0.216984 0.228396
vt 0.351571 0.227971
vt 0.217291 0.227882
vt 0.352342 0.227879
vt 0.489111 0.227891
vt 0.948232 0.041698
vt 0.989968 0.003451
vt 0.971575 0.059997
vt 0.909211 0.004273
vt 0.996004 0.120663
vt 0.925604 0.058708
vt 0.885225 0.122889
vt 0.516483 0.798440
vt 0.501430 0.685191
vt 0.597947 0.686709
vt 0.594444 0.793024
vt 0.950876 0.082499
vt 0.943924 0.157220
vt 0.507177 0.624822
vt 0.600053 0.622523
vt 0.901715 0.182549
vt 0.982420 0.184037
vt 0.730212 0.975635
vt 0.685579 0.991654
vt 0.692830 0.969164

vn -0.049687 -0.998140 -0.035336
vn 0.121205 -0.158900 -0.979827
vn -0.250216 -0.376822 -0.891850
vn 0.240981 -0.567373 -0.787411
vn 0.728754 -0.131980 -0.671937
vn -0.162144 -0.431925 -0.887215
vn 0.171700 -0.325323 -0.929884
vn 0.904132 -0.317174 -0.286262
vn 0.146153 -0.174884 -0.973681
vn 0.857415 -0.455037 -0.240376
vn -0.587451 -0.791738 0.167489
vn 0.047885 -0.960530 0.274025
vn 0.274863 -0.665582 -0.693867
vn -0.139592 -0.356138 0.923948
vn -0.543734 0.113102 0.831602
vn -0.465738 -0.495088 0.733468
vn 0.291225 0.263976 0.919513
vn 0.432274 -0.900324 0.050563
vn -0.011622 0.020172 -0.999729
vn 0.178562 -0.465581 0.866804
vn 0.953095 -0.147182 0.264478
vn 0.488988 -0.714716 0.500072
vn 0.194481 -0.227897 0.954065
vn 0.942729 -0.152921 0.296441
vn 0.498784 -0.018823 0.866522
vn -0.053792 -0.220200 0.973970
vn 0.050726 0.518071 -0.853832
vn -0.012344 0.026348 -0.999577
vn 0.955835 -0.198093 0.217115
vn 0.353470 0.932925 -0.068629
vn 0.159006 0.562364 0.811458
vn 0.029700 0.498184 -0.866562
vn 0.971997 0.052366 0.229086
vn 0.616798 0.661928 0.425924
vn 0.565779 0.635163 0.525796
vn 0.167184 0.545940 0.820975
vn 0.175366 0.556178 0.812350
vn 0.859060 0.274454 0.432078
vn 0.711405 0.589903 -0.381993
vn 0.355890 0.666529 -0.655043
vn 0.109299 0.836604 -0.536793
vn 0.616712 0.664707 0.421700
vn 0.414482 0.821418 -0.391762
vn 0.711384 0.567716 -0.414284
vn 0.192986 0.667651 -0.719026
vn 0.113957 0.744497 -0.657828
vn 0.115644 0.359972 -0.925768
vn 0.098793 0.396096 0.912879
vn 0.857987 0.141980 0.493659
vn 0.826048 0.075888 -0.558467
vn -0.169533 -0.116943 -0.978562
vn 0.104383 0.193139 0.975603
vn 0.496579 0.019664 0.867769
vn 0.879784 0.474333 0.031436
vn 0.787997 0.447635 0.422709
vn 0.943016 0.174698 0.283197
vn 0.709554 0.182004 -0.680741
vn 0.112125 0.198903 -0.973584
vn 0.777531 0.291403 -0.557252
vn 0.429952 -0.099855 -0.897313
vn 0.119599 -0.097568 -0.988016
vn 0.145714 -0.086588 -0.985530
vn 0.260920 0.168719 0.950502
vn 0.733110 0.505635 0.454843
vn 0.879473 -0.206953 0.428601
vn 0.134944 0.395061 -0.908690
vn 0.439266 -0.490961 0.752332
vn 0.640143 0.758255 -0.123557
vn 0.618952 0.569153 0.541261
vn 0.387611 0.311153 -0.867722
vn 0.600888 0.787715 -0.135789
vn -0.813570 -0.437898 -0.382557
vn -0.382929 -0.895969 0.224956
vn 0.329823 0.063324 0.941916
vn 0.892594 -0.235648 0.384378
vn 0.540466 -0.319234 0.778451
vn 0.282023 -0.024812 0.959087
vn 0.996379 -0.055130 0.064733
vn 0.950800 -0.058506 -0.304232
vn 0.982089 -0.075674 -0.172551
vn 0.402311 -0.857670 0.320232
vn 0.334109 0.084301 0.938757
vn 0.957306 -0.106236 0.268847
vn 0.996320 -0.026660 0.081455
vn 0.040899 0.859385 0.509690
vn 0.597710 0.226486 0.769056
vn 0.781818 0.241728 0.574741
vn 0.793711 0.247508 0.555664
vn 0.587275 -0.325540 0.741034
vn 0.415762 -0.436152 0.798068
vn 0.139729 0.872315 0.468554
vn 0.119388 -0.119928 0.985578
vn 0.311517 -0.760618 0.569576
vn 0.647606 -0.082629 0.757482
vn 0.389082 -0.826813 -0.406197
vn 0.966198 0.039374 0.254775
vn 0.011322 -0.988369 -0.151651
vn 0.621623 0.080599 0.779159
vn 0.883240 0.056455 0.465510
vn 0.223285 -0.949593 -0.220040
vn 0.485001 -0.049483 0.873112
vn 0.945755 0.057878 -0.319685
vn 0.875650 0.217472 -0.431212
vn 0.826885 -0.377631 0.416719
vn 0.269325 -0.520975 0.809968
vn 0.889159 -0.207238 0.407981
vn 0.177659 -0.400651 0.898841
vn 0.609399 0.646236 0.459361
vn 0.998005 0.019090 0.060180
vn 0.916987 0.387687 0.093985
vn 0.815655 0.553823 0.167294
vn 0.618402 0.212225 0.756664
vn 0.345509 0.529607 -0.774687
vn 0.302456 0.563324 -0.768887
vn 0.168328 0.983677 -0.063597
vn 0.026661 0.979995 -0.197227
vn 0.958611 -0.116800 0.259659
vn 0.446228 0.694857 0.563963
vn 0.507384 0.167393 -0.845305
vn 0.432618 0.898859 -0.069957
vn -0.915213 -0.079970 0.394956
vn 0.744317 0.637466 0.199073
vn 0.256892 0.683043 -0.683709
vn -0.537393 -0.671150 -0.510652
vn 0.484503 -0.017872 0.874607
vn -0.619111 0.050855 -0.783655
vn -0.554106 0.157411 -0.817428
vn 0.616593 0.416400 -0.668150
vn 0.651933 0.394772 -0.647409
vn 0.937240 0.186822 0.294411
vn 0.939646 0.213882 0.267058
vn 0.246848 0.047412 0.967894
vn 0.172629 -0.057458 0.983310
vn -0.897565 -0.175685 0.404367
vn -0.842526 -0.270327 0.465911
vn -0.522945 -0.040479 -0.851405
vn -0.573065 0.017749 -0.819318
vn 0.712722 0.377008 -0.591518
vn 0.667056 0.154912 -0.728724
vn 0.981470 -0.030470 0.189180
vn 0.980362 -0.035747 0.193937
vn 0.334379 -0.269543 0.903071
vn -0.808358 -0.519160 0.277545
vn -0.844945 0.499793 -0.190460
vn -0.562191 -0.241725 -0.790892
vn 0.722256 0.088519 -0.685938
vn 0.676079 0.254788 -0.691375
vn 0.997665 0.068202 -0.003696
vn 0.981027 -0.110049 0.159612
vn 0.665684 -0.480594 0.570871
vn 0.278255 -0.327492 0.902953
vn -0.945682 0.064243 0.318682
vn 0.738256 0.218907 -0.638011
vn -0.566281 -0.000204 -0.824212
vn -0.836067 -0.391065 0.384786
vn 0.324663 -0.391819 0.860855
vn -0.802239 -0.466692 0.372306
vn 0.295268 -0.382182 0.875644
vn 0.675714 0.254387 -0.691880
vn -0.657247 0.309266 -0.687299
vn -0.679992 -0.153222 -0.717031
vn -0.592413 -0.062004 -0.803245
vn 0.474153 0.092078 -0.875614
vn 0.699446 0.183661 -0.690684
vn 0.975153 -0.001825 0.221524
vn 0.989250 0.063277 0.131834
vn 0.433439 -0.280975 0.856262
vn 0.318930 -0.282596 0.904667
vn -0.840201 -0.409880 0.355051
vn -0.830131 -0.400556 0.387862
vn 0.872570 -0.455263 -0.177078
vn 0.177334 -0.666990 0.723655
vn 0.053088 0.349439 0.935454
vn -0.032549 0.205318 0.978154
vn -0.002667 0.222505 0.974928
vn -0.011411 -0.092670 0.995632
vn -0.088492 -0.151045 0.984558
vn 0.990802 0.006594 0.135162
vn 0.960869 0.005765 -0.276944
vn -0.711711 -0.024316 -0.702052
vn 0.042645 -0.481292 -0.875522
vn -0.704512 -0.194539 -0.682508
vn -0.637147 -0.151250 -0.755756
vn -0.722341 -0.502184 -0.475431
vn -0.816807 0.407408 0.408466
vn 0.262422 0.360534 0.895070
vn 0.271899 -0.130205 0.953477
vn -0.976608 -0.205969 -0.061755
vn -0.969923 -0.240355 -0.038449
vn 0.998226 0.010121 -0.058681
vn 0.996242 0.054154 -0.067593
vn 0.281375 -0.147489 0.948196
vn 0.985304 -0.161709 -0.055005
vn 0.341157 0.236445 -0.909784
vn 0.241305 0.155623 -0.957890
vn -0.973440 -0.224404 -0.045370
vn 0.968174 0.198568 0.152346
vn -0.920688 -0.380740 -0.085851
vn -0.742853 0.207959 -0.636335
vn 0.382563 0.469584 -0.795699
vn 0.446370 -0.755807 0.479072
vn 0.992018 0.114651 -0.052488
vn 0.187739 0.414577 -0.890438
vn 0.659706 0.171136 0.731779
vn 0.672736 0.166733 0.720851
vn -0.960037 -0.276243 -0.044939
vn 0.289215 -0.115493 0.950271
vn 0.992985 -0.080367 -0.086726
vn 0.374714 0.056289 -0.925430
vn -0.930605 -0.057304 -0.361511
vn 0.633021 0.270608 -0.725297
vn 0.516967 0.365232 -0.774177
vn 0.838218 0.167410 0.519003
vn 0.830686 0.145938 0.537273
vn -0.598401 0.031644 0.800571
vn -0.514213 -0.041357 0.856665
vn 0.891190 -0.031885 0.452508
vn -0.504117 0.390969 0.770071
vn 0.418857 -0.679291 -0.602597
vn 0.881880 0.018092 0.471127
vn 0.862192 0.174097 0.475727
vn -0.491952 0.339071 0.801882
vn 0.892385 0.059797 0.447295
vn -0.533633 -0.104922 0.839182
vn -0.839238 0.143799 -0.524406
vn 0.868806 0.359838 0.340136
vn -0.505984 0.387589 0.770555
vn 0.901829 0.283183 0.326362
vn 0.559383 -0.471337 -0.681859
vn 0.391639 -0.627770 -0.672699
vn -0.287354 -0.705223 -0.648142
vn -0.658399 -0.653866 -0.372787
vn -0.519507 0.352977 0.778152
vn -0.953555 -0.298423 -0.040939
vn 0.637529 0.516330 -0.571804
vn 0.774907 0.026622 0.631514
vn -0.668439 -0.224064 0.709214
vn -0.808793 0.312481 -0.498205
vn 0.823140 0.118386 -0.555361
vn -0.884456 -0.119252 -0.451129
vn -0.924929 -0.097484 -0.367428
vn 0.637369 0.007633 -0.770521
vn 0.835517 -0.161694 0.525134
vn 0.870321 -0.126260 0.476025
vn -0.689121 -0.269421 0.672700
vn -0.539306 -0.344698 0.768330
vn -0.817672 0.387129 -0.426080
vn -0.087232 0.429914 -0.898646
vn -0.968564 -0.214389 -0.126180
vn 0.954260 0.109754 -0.278103
vn 0.018154 -0.903703 -0.427775
vn 0.104474 -0.913314 -0.393627
vn 0.672029 0.499454 0.546739
vn 0.633689 0.584689 -0.506534
vn -0.715941 0.281703 0.638805
vn 0.553625 0.432542 0.711622
vn -0.807312 0.297053 0.509908
vn 0.116436 -0.784620 -0.608945
vn 0.006515 -0.703824 -0.710345
vn 0.500424 0.536509 0.679510
vn 0.056146 -0.167498 0.984272
vn -0.757624 0.412014 0.506212
vn 0.512539 -0.692964 -0.507055
vn -0.412297 -0.118064 -0.903367
vn 0.076153 -0.400330 -0.913202
vn -0.100106 -0.467557 -0.878276
vn -0.953245 -0.275989 -0.123104
vn -0.409231 -0.530087 -0.742656
vn -0.355466 -0.563856 -0.745460
vn -0.921908 -0.378695 -0.081709
vn -0.305728 -0.030926 -0.951616
vn -0.953511 -0.282973 -0.103647
vn 0.529046 -0.525331 -0.666437
vn 0.338033 -0.640550 -0.689514
vn 0.234069 -0.492257 -0.838388
vn 0.396168 -0.838920 0.373182
vn 0.608282 -0.632792 0.479131
vn -0.194982 -0.524592 0.828725
vn -0.183935 -0.552881 0.812706
vn -0.815353 -0.555814 0.162081
vn -0.345861 -0.150103 -0.926202
vn 0.046080 -0.328637 0.943332
vn -0.567431 -0.686441 0.454776
vn -0.397963 -0.069372 0.914775
vn 0.046660 -0.022219 0.998664
vn -0.580809 -0.228535 0.781302
vn 0.190534 -0.071400 0.979081
vn 0.124953 -0.224484 0.966433
vn -0.356556 0.560724 -0.747299
vn -0.335476 0.016213 -0.941909
vn -0.506760 -0.403190 0.761992
vn -0.427180 0.903257 -0.040548
vn 0.003294 0.307441 0.951561
vn -0.362377 0.566151 -0.740376
vn -0.588047 0.390968 0.708057
vn -0.263954 0.635202 0.725842
vn -0.326416 0.746499 0.579820
vn 0.071345 0.546491 0.834421
vn 0.084614 0.533347 0.841654
vn -0.624293 0.335483 0.705485
vn -0.796756 0.583255 -0.158090
vn -0.435559 0.714357 -0.547707
vn -0.241267 0.822169 -0.515586
vn -0.336389 0.748369 0.571653
vn -0.544716 0.814162 -0.201059
vn -0.770249 0.629917 -0.099601
vn -0.500415 0.627058 -0.596979
vn -0.256082 0.789733 -0.557444
vn -0.515179 0.386158 -0.765162
vn 0.079953 0.041324 0.995942
vn -0.743047 0.115717 0.659159
vn -0.823101 0.414353 -0.388349
vn -0.457231 0.290447 -0.840583
vn 0.066963 0.184260 0.980594
vn 0.184409 0.104065 0.977325
vn -0.785303 0.191185 0.588853
vn -0.737219 0.189362 0.648575
vn -0.558529 0.352442 0.750886
vn -0.987199 0.093418 -0.129271
vn -0.298632 0.146428 -0.943068
vn -0.865990 0.303821 -0.397184
vn -0.747302 0.101207 -0.656732
vn -0.297472 0.162030 -0.940881
vn 0.127718 -0.086920 -0.987994
vn -0.169287 0.014225 0.985464
vn -0.602299 0.494561 0.626614
vn -0.827224 -0.545226 0.135754
vn -0.527110 0.350647 -0.774081
vn -0.379744 -0.070766 0.922381
vn -0.599185 0.794931 -0.095190
vn -0.532940 0.523309 0.664923
vn -0.777570 0.263282 -0.571023
vn -0.732876 0.680003 0.022131
vn 0.520156 -0.364283 -0.772486
vn 0.821095 0.554087 -0.137082
vn -0.864141 -0.494913 0.091228
vn -0.885985 -0.209350 0.413768
vn -0.418934 -0.347199 0.839016
vn -0.211426 -0.005807 0.977377
vn -0.994048 -0.067797 0.085277
vn -0.973600 -0.137782 -0.181987
vn -0.931262 -0.131448 -0.339811
vn -0.287747 -0.848688 0.443768
vn -0.256331 0.107048 0.960643
vn -0.940132 -0.033170 0.339194
vn -0.986667 0.049699 0.154975
vn 0.063022 0.858530 0.508876
vn -0.520049 0.269517 0.810499
vn -0.716292 0.299408 0.630302
vn -0.729095 0.306145 0.612124
vn -0.539192 -0.391526 0.745640
vn -0.382512 -0.461823 0.800253
vn -0.037310 0.879131 0.475117
vn -0.055046 -0.113211 0.992045
vn -0.326040 -0.736066 0.593216
vn -0.672392 -0.026878 0.739707
vn -0.441847 -0.843176 -0.306309
vn -0.909976 -0.153376 0.385253
vn -0.107735 -0.982474 -0.152109
vn -0.659055 0.030141 0.751491
vn -0.873678 -0.016750 0.486216
vn -0.329513 -0.920373 -0.210559
vn -0.432583 -0.114956 0.894235
vn -0.963243 0.130230 -0.234953
vn -0.884832 0.283558 -0.369686
vn -0.820358 -0.314206 0.477794
vn -0.247928 -0.501062 0.829138
vn -0.869840 -0.139502 0.473198
vn -0.140951 -0.388363 0.910663
vn -0.522332 0.689812 0.501327
vn -0.986402 0.095502 0.133754
vn -0.875039 0.456695 0.160425
vn -0.756110 0.614344 0.225566
vn -0.542632 0.256938 0.799708
vn -0.466738 0.495252 -0.732721
vn -0.311910 0.600245 -0.736491
vn -0.096532 0.993876 -0.053777
vn 0.034163 0.979707 -0.197504
vn -0.886604 0.013296 0.462339
vn -0.462395 0.587403 0.664191
vn -0.722795 0.331319 -0.606461
vn -0.554516 0.825488 -0.105271
vn 0.895112 -0.384763 0.225236
vn -0.778027 0.501400 0.378514
vn -0.637892 0.486191 -0.597254
vn 0.305522 -0.541324 -0.783342
vn -0.231899 -0.189174 0.954168
vn 0.401462 -0.351489 -0.845745
vn 0.313740 -0.323362 -0.892751
vn -0.881906 -0.316509 -0.349377
vn -0.852106 -0.301857 -0.427548
vn -0.871952 0.097553 0.479774
vn -0.881081 0.097335 0.462842
vn -0.129235 0.738577 0.661667
vn 0.168898 0.624844 0.762262
vn 0.865463 0.496398 -0.067547
vn 0.885923 0.396855 0.240098
vn 0.317706 -0.364405 -0.875370
vn 0.320792 -0.357425 -0.877120
vn -0.889863 -0.205720 -0.407215
vn -0.860123 -0.297085 -0.414642
vn -0.856209 -0.111692 0.504412
vn -0.858008 -0.110567 0.501594
vn 0.071704 0.370063 0.926236
vn 0.914208 -0.341619 0.217992
vn 0.596713 0.396725 -0.697527
vn 0.390366 -0.455987 -0.799806
vn -0.861669 -0.300712 -0.408778
vn -0.788690 0.313113 -0.529082
vn -0.933780 0.108335 0.341054
vn -0.865544 -0.050080 0.498324
vn -0.404670 -0.528943 0.745963
vn 0.042569 -0.404969 0.913339
vn 0.993114 0.076282 -0.088914
vn -0.878741 -0.280069 -0.386491
vn 0.322205 -0.342147 -0.882677
vn 0.964415 0.115789 0.237689
vn 0.302355 0.020122 0.952983
vn 0.923475 -0.045625 0.380936
vn 0.070563 -0.195983 0.978065
vn -0.740066 0.255425 -0.622142
vn 0.293887 0.231853 -0.927294
vn 0.539203 -0.442002 -0.716865
vn 0.431088 -0.457557 -0.777692
vn -0.601077 -0.658912 -0.452262
vn -0.793750 -0.532655 -0.293664
vn -0.819021 -0.085444 0.567366
vn -0.856987 -0.100577 0.505429
vn -0.079136 0.322357 0.943305
vn -0.015153 0.358423 0.933436
vn 0.974762 0.184973 0.124994
vn 0.974011 0.187487 0.127088
vn -0.572733 -0.632937 0.520929
vn 0.295326 -0.001041 0.955396
vn -0.026282 0.871762 0.489224
vn 0.115935 0.821854 0.557777
vn 0.085008 0.824553 0.559362
vn 0.241799 0.622465 0.744359
vn 0.333547 0.591836 0.733809
vn -0.833074 -0.123081 0.539294
vn -0.884565 -0.401699 0.237029
vn 0.492733 -0.339707 -0.801133
vn 0.022098 -0.943600 -0.330349
vn 0.570777 -0.446552 -0.689061
vn 0.476924 -0.482594 -0.734606
vn 0.765905 -0.513765 -0.386568
vn 0.584982 0.754339 -0.297941
vn -0.226696 0.801876 0.552814
vn 0.006904 0.504100 0.863618
vn 0.927719 0.033863 -0.371741
vn 0.942383 0.024765 -0.333618
vn -0.877506 -0.257068 0.404846
vn -0.898026 -0.232352 0.373579
vn 0.005800 0.486418 0.873707
vn -0.785246 -0.370291 0.496260
vn -0.577597 -0.537819 -0.614112
vn -0.462582 -0.604525 -0.648512
vn 0.936687 0.031768 -0.348724
vn -0.902476 0.020373 0.430259
vn 0.956686 -0.116386 -0.266845
vn 0.434049 -0.126239 -0.892001
vn -0.689478 -0.307904 -0.655603
vn 0.056973 -0.291348 0.954919
vn -0.920948 -0.176224 0.347564
vn -0.525312 -0.363826 -0.769206
vn -0.509188 0.471949 0.719717
vn -0.520226 0.458808 0.720319
vn 0.949432 -0.006834 -0.313899
vn -0.015535 0.508188 0.861106
vn -0.836126 -0.337450 0.432460
vn -0.525129 -0.680698 -0.510774
vn 0.894820 0.258471 -0.363993
vn -0.553419 0.697616 -0.455038
vn -0.592628 0.664405 -0.455365
vn -0.816040 -0.229931 0.530292
vn -0.793309 -0.301253 0.529063
vn 0.608426 -0.546630 0.575338
vn 0.527327 -0.630620 0.569425
vn -0.898796 -0.338669 0.278331
vn 0.565303 -0.440177 0.697622
vn -0.541562 0.252209 -0.801936
vn -0.766420 -0.502894 0.399622
vn -0.744175 -0.400279 0.534771
vn 0.496559 -0.580633 0.645208
vn -0.858721 -0.092106 0.504097
vn 0.566748 -0.689456 0.451051
vn 0.860397 0.346860 -0.373370
vn -0.787212 -0.173734 0.591704
vn 0.606612 -0.449049 0.656031
vn -0.805851 -0.189673 0.560918
vn -0.724835 0.293893 -0.623091
vn -0.565164 0.177684 -0.805617
vn 0.127245 0.189915 -0.973520
vn 0.697441 -0.093912 -0.710463
vn 0.624286 -0.467203 0.626090
vn 0.953563 -0.113439 -0.279016
vn -0.562533 0.774537 -0.289221
vn -0.824693 -0.187632 0.533551
vn 0.588827 -0.585145 0.557573
vn 0.871428 0.415114 -0.261329
vn -0.771571 0.452773 -0.446849
vn 0.918017 0.118171 -0.378525
vn 0.871731 0.150041 -0.466446
vn -0.575318 0.469778 -0.669566
vn -0.807174 -0.438071 0.395682
vn -0.913382 -0.246380 0.324084
vn 0.621194 -0.636000 0.457845
vn 0.590618 -0.658306 0.466695
vn 0.877314 0.448009 -0.172073
vn 0.183328 0.748102 -0.637757
vn 0.956739 -0.257272 -0.135872
vn -0.896293 0.354400 -0.266571
vn -0.107421 -0.680191 -0.725122
vn -0.148675 -0.684420 -0.713768
vn -0.632399 0.373714 0.678535
vn -0.560743 0.786593 -0.258532
vn 0.690375 -0.039090 0.722395
vn -0.589919 0.301958 0.748877
vn 0.713068 -0.028479 0.700516
vn -0.127872 -0.520696 -0.844112
vn -0.055307 -0.475183 -0.878147
vn -0.522064 0.394383 0.756248
vn -0.233376 -0.450818 0.861567
vn 0.693732 0.064778 0.717314
vn 0.150773 -0.928143 -0.340321

f 1/1/1 2/2/1 3/3/1
f 4/4/2 5/5/2 6/6/2
f 4/4/3 6/7/3 7/8/3
f 5/9/4 8/10/4 9/11/4
f 10/12/5 11/13/5 9/14/5
f 6/6/6 11/15/6 7/8/6
f 6/6/7 12/16/7 11/13/7
f 12/17/8 5/5/8 9/14/8
f 6/6/9 5/5/9 12/17/9
f 11/13/10 12/18/10 9/19/10
f 13/20/11 14/21/11 15/22/11
f 14/21/12 13/20/12 16/23/12
f 16/24/13 13/20/13 17/25/13
f 15/22/14 14/21/14 18/26/14
f 14/21/15 19/27/15 18/26/15
f 18/26/16 20/28/16 21/29/16
f 18/26/17 19/27/17 20/28/17
f 20/28/18 3/30/18 21/29/18
f 5/9/19 22/31/19 23/32/19
f 24/33/20 25/34/20 26/35/20
f 27/36/21 25/34/21 9/37/21
f 28/38/22 27/39/22 29/40/22
f 30/41/23 25/34/23 24/33/23
f 25/34/24 30/41/24 10/42/24
f 30/41/25 24/33/25 31/43/25
f 24/33/26 26/44/26 32/45/26
f 33/46/27 34/47/27 5/9/27
f 4/4/28 22/31/28 5/9/28
f 26/35/29 25/34/29 27/39/29
f 33/46/30 35/48/30 34/47/30
f 32/45/31 26/35/31 28/38/31
f 23/32/32 33/46/32 5/9/32
f 26/35/33 27/39/33 28/38/33
f 28/38/34 29/40/34 36/49/34
f 35/50/35 37/51/35 29/40/35
f 28/38/36 38/52/36 32/45/36
f 36/49/37 38/52/37 28/38/37
f 36/49/38 37/53/38 39/54/38
f 39/55/39 37/56/39 40/57/39
f 41/58/40 42/59/40 39/55/40
f 39/55/41 40/57/41 41/58/41
f 36/49/42 29/40/42 37/51/42
f 37/56/43 35/48/43 33/46/43
f 37/56/44 33/46/44 40/57/44
f 40/57/45 33/46/45 43/60/45
f 40/57/46 43/60/46 41/58/46
f 33/46/47 23/32/47 43/60/47
f 44/61/48 45/62/48 30/63/48
f 15/64/49 46/65/49 45/62/49
f 46/66/50 47/67/50 10/68/50
f 47/67/51 7/69/51 11/70/51
f 45/62/52 44/61/52 17/71/52
f 44/61/53 30/63/53 31/72/53
f 13/73/54 15/64/54 45/62/54
f 46/65/55 10/74/55 45/62/55
f 45/62/56 10/74/56 30/63/56
f 47/67/57 11/70/57 10/68/57
f 47/67/58 48/75/58 7/69/58
f 46/66/59 15/76/59 47/67/59
f 18/77/60 47/67/60 15/76/60
f 47/67/61 18/77/61 48/75/61
f 18/77/62 21/78/62 48/75/62
f 13/73/63 45/62/63 17/71/63
f 49/79/64 35/50/64 29/40/64
f 8/80/65 27/81/65 9/82/65
f 34/47/66 50/83/66 5/84/66
f 27/36/67 49/79/67 29/40/67
f 35/48/68 51/85/68 52/86/68
f 35/50/69 49/79/69 51/87/69
f 52/86/70 50/83/70 34/47/70
f 35/48/71 52/86/71 34/47/71
f 5/84/72 50/83/72 8/10/72
f 53/88/73 27/81/73 8/80/73
f 53/88/74 49/79/74 27/36/74
f 54/89/75 55/90/75 56/91/75
f 57/92/76 55/90/76 58/93/76
f 59/94/77 60/95/77 55/90/77
f 61/96/78 54/89/78 56/91/78
f 39/97/79 61/96/79 36/98/79
f 36/98/80 61/96/80 56/91/80
f 36/98/81 56/91/81 38/99/81
f 62/100/82 63/101/82 64/102/82
f 65/103/83 64/102/83 54/89/83
f 61/96/84 65/103/84 54/89/84
f 66/104/85 67/105/85 62/100/85
f 55/90/86 60/95/86 68/106/86
f 69/107/87 68/106/87 60/95/87
f 69/107/88 70/108/88 68/106/88
f 58/109/89 55/90/89 68/106/89
f 68/106/90 71/110/90 58/111/90
f 62/100/91 67/105/91 63/101/91
f 64/102/92 63/101/92 69/107/92
f 70/108/93 71/110/93 68/106/93
f 58/111/94 71/110/94 72/112/94
f 56/91/95 57/92/95 38/113/95
f 55/90/96 57/114/96 56/91/96
f 73/115/97 74/116/97 38/113/97
f 58/109/98 72/112/98 73/115/98
f 57/117/99 58/111/99 73/115/99
f 57/92/100 73/115/100 38/113/100
f 73/115/101 72/112/101 74/116/101
f 39/97/102 75/118/102 61/96/102
f 75/118/103 39/97/103 76/119/103
f 64/102/104 59/94/104 54/89/104
f 64/102/105 60/95/105 59/94/105
f 54/89/106 59/94/106 55/90/106
f 64/102/107 69/107/107 60/95/107
f 65/103/108 66/104/108 62/100/108
f 65/103/109 61/96/109 75/118/109
f 75/118/110 76/119/110 65/103/110
f 66/104/111 65/103/111 76/119/111
f 62/100/112 64/102/112 65/103/112
f 39/97/113 42/120/113 76/119/113
f 77/121/114 76/119/114 42/120/114
f 67/105/115 76/119/115 77/121/115
f 66/104/116 76/119/116 67/105/116
f 9/82/117 25/34/117 10/42/117
f 51/122/118 49/123/118 78/124/118
f 79/125/119 50/126/119 52/127/119
f 52/127/120 51/122/120 79/125/120
f 80/128/121 81/129/121 53/130/121
f 51/122/122 78/124/122 79/125/122
f 82/131/123 50/126/123 79/125/123
f 50/126/124 82/131/124 8/132/124
f 53/133/125 78/124/125 49/123/125
f 83/134/126 84/135/126 85/136/126
f 84/135/127 83/134/127 86/137/127
f 86/137/128 87/138/128 84/135/128
f 88/139/129 84/135/129 87/138/129
f 87/138/130 89/140/130 88/139/130
f 90/141/131 88/139/131 89/140/131
f 91/142/132 92/143/132 90/141/132
f 90/141/133 89/140/133 91/142/133
f 85/136/134 92/144/134 91/145/134
f 91/145/135 83/134/135 85/136/135
f 80/128/136 93/146/136 83/134/136
f 94/147/137 83/134/137 93/146/137
f 93/146/138 87/138/138 94/147/138
f 87/138/139 93/146/139 95/148/139
f 95/148/140 96/149/140 87/138/140
f 89/140/141 87/138/141 96/149/141
f 97/150/142 91/142/142 89/140/142
f 97/151/143 81/129/143 80/128/143
f 8/132/144 82/131/144 80/128/144
f 93/146/145 80/128/145 98/152/145
f 98/152/146 95/148/146 93/146/146
f 95/148/147 82/131/147 79/125/147
f 79/125/148 78/124/148 95/148/148
f 96/149/149 95/148/149 78/124/149
f 78/124/150 53/133/150 81/153/150
f 81/153/151 96/149/151 78/124/151
f 80/128/152 53/130/152 8/154/152
f 94/147/153 87/138/153 86/137/153
f 86/137/154 83/134/154 94/147/154
f 97/151/155 83/134/155 91/145/155
f 89/140/156 96/149/156 97/150/156
f 80/128/157 83/134/157 97/151/157
f 81/153/158 97/150/158 96/149/158
f 82/131/159 95/148/159 98/152/159
f 98/152/160 80/128/160 82/131/160
f 85/136/161 99/155/161 100/156/161
f 99/155/162 85/136/162 84/135/162
f 84/135/163 101/157/163 99/155/163
f 101/157/164 84/135/164 88/139/164
f 88/139/165 90/141/165 101/157/165
f 102/158/166 101/157/166 90/141/166
f 90/141/167 103/159/167 102/158/167
f 103/159/168 90/141/168 92/143/168
f 92/144/169 85/136/169 103/160/169
f 100/156/170 103/160/170 85/136/170
f 104/161/171 105/162/171 106/163/171
f 107/164/172 106/163/172 108/165/172
f 109/166/173 110/167/173 103/168/173
f 109/166/174 111/169/174 104/161/174
f 104/161/175 110/167/175 109/166/175
f 104/161/176 111/169/176 112/170/176
f 113/171/177 112/170/177 111/169/177
f 106/163/178 110/167/178 104/161/178
f 104/161/179 112/170/179 105/162/179
f 105/172/180 113/173/180 111/174/180
f 113/173/181 105/172/181 112/175/181
f 105/172/182 111/174/182 109/176/182
f 109/176/183 106/177/183 105/172/183
f 109/176/184 100/178/184 106/177/184
f 103/179/185 100/178/185 109/176/185
f 102/180/186 103/168/186 110/167/186
f 106/163/187 114/181/187 108/165/187
f 115/182/188 116/183/188 106/177/188
f 116/184/189 117/185/189 118/186/189
f 108/165/190 114/181/190 119/187/190
f 119/187/191 120/188/191 108/165/191
f 118/189/192 121/190/192 114/191/192
f 114/191/193 121/190/193 117/192/193
f 116/193/194 115/194/194 119/187/194
f 120/188/195 119/187/195 115/194/195
f 121/195/196 118/186/196 117/185/196
f 108/165/197 101/196/197 102/180/197
f 115/182/198 106/177/198 100/178/198
f 100/178/199 99/197/199 115/182/199
f 120/188/200 99/198/200 101/196/200
f 106/163/201 107/164/201 110/167/201
f 108/165/202 120/188/202 101/196/202
f 120/188/203 115/194/203 99/198/203
f 107/164/204 102/180/204 110/167/204
f 102/180/205 107/164/205 108/165/205
f 118/199/206 106/177/206 116/183/206
f 114/181/207 106/163/207 118/200/207
f 114/191/208 117/192/208 119/201/208
f 117/192/209 116/202/209 119/201/209
f 122/203/210 123/204/210 124/205/210
f 125/206/211 126/207/211 123/208/211
f 125/206/212 123/208/212 127/209/212
f 125/210/213 128/211/213 126/212/213
f 128/211/214 129/213/214 126/212/214
f 128/214/215 124/215/215 129/216/215
f 122/217/216 124/215/216 128/214/216
f 130/218/217 128/211/217 125/219/217
f 131/220/218 122/221/218 130/222/218
f 132/223/219 125/224/219 127/225/219
f 132/226/220 131/227/220 125/219/220
f 133/228/221 131/227/221 132/226/221
f 133/229/222 122/221/222 131/220/222
f 130/218/223 125/219/223 131/227/223
f 128/214/224 130/222/224 122/221/224
f 127/209/225 123/204/225 122/203/225
f 16/230/226 133/228/226 14/231/226
f 16/232/227 3/3/227 133/229/227
f 14/231/228 133/228/228 132/226/228
f 14/233/229 132/223/229 19/234/229
f 132/223/230 127/225/230 19/234/230
f 20/235/231 19/234/231 127/225/231
f 20/235/232 127/225/232 122/236/232
f 3/3/233 122/221/233 133/229/233
f 3/237/234 20/235/234 122/236/234
f 134/238/235 135/239/235 136/240/235
f 137/241/236 135/242/236 134/243/236
f 138/244/237 139/245/237 137/246/237
f 138/247/238 136/248/238 139/249/238
f 134/238/239 136/240/239 123/208/239
f 138/247/240 123/250/240 136/248/240
f 123/250/241 138/247/241 124/251/241
f 134/238/242 123/208/242 126/252/242
f 129/253/243 134/243/243 126/254/243
f 137/241/244 134/243/244 129/253/244
f 138/244/245 137/246/245 129/255/245
f 138/244/246 129/255/246 124/256/246
f 136/257/247 140/258/247 139/259/247
f 136/257/248 141/260/248 140/258/248
f 142/261/249 139/259/249 140/258/249
f 135/262/250 143/263/250 141/260/250
f 141/264/251 143/265/251 142/266/251
f 142/266/252 140/267/252 141/264/252
f 137/268/253 143/263/253 135/262/253
f 135/262/254 141/260/254 136/257/254
f 139/259/255 142/261/255 137/268/255
f 137/268/256 144/269/256 143/263/256
f 137/268/257 142/261/257 144/269/257
f 143/265/258 145/270/258 146/271/258
f 146/271/259 142/266/259 143/265/259
f 143/263/260 144/269/260 145/272/260
f 144/269/261 146/273/261 145/272/261
f 146/273/262 144/269/262 142/261/262
f 3/274/263 16/275/263 17/276/263
f 147/5/264 4/4/264 148/6/264
f 148/7/265 4/4/265 7/8/265
f 149/10/266 147/9/266 150/11/266
f 151/13/267 152/12/267 150/14/267
f 151/15/268 148/6/268 7/8/268
f 153/16/269 148/6/269 151/13/269
f 147/5/270 153/17/270 150/14/270
f 147/5/271 148/6/271 153/17/271
f 153/18/272 151/13/272 150/19/272
f 154/21/273 155/20/273 156/22/273
f 155/20/274 154/21/274 157/23/274
f 155/20/275 157/24/275 17/25/275
f 154/21/276 156/22/276 158/26/276
f 159/27/277 154/21/277 158/26/277
f 160/28/278 158/26/278 21/29/278
f 159/27/279 158/26/279 160/28/279
f 3/30/280 160/28/280 21/29/280
f 22/31/281 147/9/281 23/32/281
f 161/34/282 24/33/282 162/35/282
f 161/34/283 163/36/283 150/37/283
f 163/39/284 164/38/284 165/40/284
f 161/34/285 166/41/285 24/33/285
f 166/41/286 161/34/286 152/42/286
f 24/33/287 166/41/287 31/43/287
f 162/44/288 24/33/288 32/45/288
f 167/47/289 168/46/289 147/9/289
f 22/31/290 4/4/290 147/9/290
f 161/34/291 162/35/291 163/39/291
f 169/48/292 168/46/292 167/47/292
f 162/35/293 32/45/293 164/38/293
f 168/46/294 23/32/294 147/9/294
f 163/39/295 162/35/295 164/38/295
f 165/40/296 164/38/296 170/49/296
f 171/51/297 169/50/297 165/40/297
f 38/52/298 164/38/298 32/45/298
f 38/52/299 170/49/299 164/38/299
f 171/53/300 170/49/300 172/54/300
f 171/56/301 172/55/301 173/57/301
f 42/59/302 41/58/302 172/55/302
f 173/57/303 172/55/303 41/58/303
f 165/40/304 170/49/304 171/51/304
f 169/48/305 171/56/305 168/46/305
f 168/46/306 171/56/306 173/57/306
f 168/46/307 173/57/307 43/60/307
f 43/60/308 173/57/308 41/58/308
f 23/32/309 168/46/309 43/60/309
f 174/62/310 44/61/310 166/63/310
f 175/65/311 156/64/311 174/62/311
f 176/67/312 175/66/312 152/68/312
f 7/69/313 176/67/313 151/70/313
f 44/61/314 174/62/314 17/71/314
f 166/63/315 44/61/315 31/72/315
f 156/64/316 155/73/316 174/62/316
f 152/74/317 175/65/317 174/62/317
f 152/74/318 174/62/318 166/63/318
f 151/70/319 176/67/319 152/68/319
f 48/75/320 176/67/320 7/69/320
f 156/76/321 175/66/321 176/67/321
f 176/67/322 158/77/322 156/76/322
f 158/77/323 176/67/323 48/75/323
f 21/78/324 158/77/324 48/75/324
f 174/62/325 155/73/325 17/71/325
f 169/50/326 177/79/326 165/40/326
f 163/81/327 149/80/327 150/82/327
f 178/83/328 167/47/328 147/84/328
f 177/79/329 163/36/329 165/40/329
f 179/85/330 169/48/330 180/86/330
f 177/79/331 169/50/331 179/87/331
f 178/83/332 180/86/332 167/47/332
f 180/86/333 169/48/333 167/47/333
f 178/83/334 147/84/334 149/10/334
f 163/81/335 181/88/335 149/80/335
f 177/79/336 181/88/336 163/36/336
f 182/90/337 183/89/337 184/91/337
f 182/90/338 185/92/338 186/93/338
f 187/95/339 188/94/339 182/90/339
f 183/89/340 189/96/340 184/91/340
f 189/96/341 172/97/341 170/98/341
f 189/96/342 170/98/342 184/91/342
f 184/91/343 170/98/343 38/99/343
f 63/101/344 190/100/344 191/102/344
f 191/102/345 192/103/345 183/89/345
f 192/103/346 189/96/346 183/89/346
f 67/105/347 193/104/347 190/100/347
f 187/95/348 182/90/348 194/106/348
f 194/106/349 69/107/349 187/95/349
f 70/108/350 69/107/350 194/106/350
f 182/90/351 186/109/351 194/106/351
f 71/110/352 194/106/352 186/111/352
f 67/105/353 190/100/353 63/101/353
f 63/101/354 191/102/354 69/107/354
f 71/110/355 70/108/355 194/106/355
f 71/110/356 186/111/356 72/112/356
f 185/92/357 184/91/357 38/113/357
f 185/114/358 182/90/358 184/91/358
f 74/116/359 195/115/359 38/113/359
f 72/112/360 186/109/360 195/115/360
f 186/111/361 185/117/361 195/115/361
f 195/115/362 185/92/362 38/113/362
f 72/112/363 195/115/363 74/116/363
f 196/118/364 172/97/364 189/96/364
f 172/97/365 196/118/365 197/119/365
f 188/94/366 191/102/366 183/89/366
f 187/95/367 191/102/367 188/94/367
f 188/94/368 183/89/368 182/90/368
f 69/107/369 191/102/369 187/95/369
f 193/104/370 192/103/370 190/100/370
f 189/96/371 192/103/371 196/118/371
f 197/119/372 196/118/372 192/103/372
f 192/103/373 193/104/373 197/119/373
f 191/102/374 190/100/374 192/103/374
f 42/120/375 172/97/375 197/119/375
f 197/119/376 77/121/376 42/120/376
f 197/119/377 67/105/377 77/121/377
f 197/119/378 193/104/378 67/105/378
f 161/34/379 150/82/379 152/42/379
f 177/123/380 179/122/380 198/124/380
f 178/126/381 199/125/381 180/127/381
f 179/122/382 180/127/382 199/125/382
f 200/129/383 201/128/383 181/130/383
f 198/124/384 179/122/384 199/125/384
f 178/126/385 202/131/385 199/125/385
f 202/131/386 178/126/386 149/132/386
f 198/124/387 181/133/387 177/123/387
f 203/135/388 204/134/388 205/136/388
f 204/134/389 203/135/389 206/137/389
f 207/138/390 206/137/390 203/135/390
f 203/135/391 208/139/391 207/138/391
f 209/140/392 207/138/392 208/139/392
f 208/139/393 210/141/393 209/140/393
f 211/143/394 212/142/394 210/141/394
f 209/140/395 210/141/395 212/142/395
f 211/144/396 205/136/396 212/145/396
f 204/134/397 212/145/397 205/136/397
f 213/146/398 201/128/398 204/134/398
f 204/134/399 214/147/399 213/146/399
f 207/138/400 213/146/400 214/147/400
f 213/146/401 207/138/401 215/148/401
f 216/149/402 215/148/402 207/138/402
f 207/138/403 209/140/403 216/149/403
f 212/142/404 217/150/404 209/140/404
f 200/129/405 217/151/405 201/128/405
f 202/131/406 149/132/406 201/128/406
f 201/128/407 213/146/407 218/152/407
f 215/148/408 218/152/408 213/146/408
f 202/131/409 215/148/409 199/125/409
f 198/124/410 199/125/410 215/148/410
f 215/148/411 216/149/411 198/124/411
f 181/133/412 198/124/412 200/153/412
f 216/149/413 200/153/413 198/124/413
f 181/130/414 201/128/414 149/154/414
f 207/138/415 214/147/415 206/137/415
f 204/134/416 206/137/416 214/147/416
f 204/134/417 217/151/417 212/145/417
f 216/149/418 209/140/418 217/150/418
f 204/134/419 201/128/419 217/151/419
f 217/150/420 200/153/420 216/149/420
f 215/148/421 202/131/421 218/152/421
f 201/128/422 218/152/422 202/131/422
f 219/155/423 205/136/423 220/156/423
f 205/136/424 219/155/424 203/135/424
f 221/157/425 203/135/425 219/155/425
f 203/135/426 221/157/426 208/139/426
f 210/141/427 208/139/427 221/157/427
f 221/157/428 222/158/428 210/141/428
f 223/159/429 210/141/429 222/158/429
f 210/141/430 223/159/430 211/143/430
f 205/136/431 211/144/431 223/160/431
f 223/160/432 220/156/432 205/136/432
f 224/162/433 225/161/433 226/163/433
f 226/163/434 227/164/434 228/165/434
f 229/167/435 230/166/435 223/168/435
f 231/169/436 230/166/436 225/161/436
f 229/167/437 225/161/437 230/166/437
f 231/169/438 225/161/438 232/170/438
f 232/170/439 233/171/439 231/169/439
f 229/167/440 226/163/440 225/161/440
f 232/170/441 225/161/441 224/162/441
f 233/173/442 224/172/442 231/174/442
f 224/172/443 233/173/443 232/175/443
f 231/174/444 224/172/444 230/176/444
f 226/177/445 230/176/445 224/172/445
f 220/178/446 230/176/446 226/177/446
f 220/178/447 223/179/447 230/176/447
f 223/168/448 222/180/448 229/167/448
f 234/181/449 226/163/449 228/165/449
f 235/183/450 236/182/450 226/177/450
f 237/185/451 235/184/451 238/186/451
f 234/181/452 228/165/452 239/187/452
f 240/188/453 239/187/453 228/165/453
f 241/190/454 238/189/454 234/191/454
f 241/190/455 234/191/455 237/192/455
f 236/194/456 235/193/456 239/187/456
f 239/187/457 240/188/457 236/194/457
f 238/186/458 241/195/458 237/185/458
f 221/196/459 228/165/459 222/180/459
f 226/177/460 236/182/460 220/178/460
f 219/197/461 220/178/461 236/182/461
f 219/198/462 240/188/462 221/196/462
f 227/164/463 226/163/463 229/167/463
f 240/188/464 228/165/464 221/196/464
f 236/194/465 240/188/465 219/198/465
f 222/180/466 227/164/466 229/167/466
f 227/164/467 222/180/467 228/165/467
f 226/177/468 238/199/468 235/183/468
f 226/163/469 234/181/469 238/200/469
f 237/192/470 234/191/470 239/201/470
f 235/202/471 237/192/471 239/201/471
f 242/204/472 243/203/472 244/205/472
f 245/207/473 246/206/473 242/208/473
f 242/208/474 246/206/474 247/209/474
f 248/211/475 246/210/475 245/212/475
f 249/213/476 248/211/476 245/212/476
f 244/215/477 248/214/477 249/216/477
f 244/215/478 243/217/478 248/214/478
f 248/211/479 250/218/479 246/219/479
f 243/221/480 251/220/480 250/222/480
f 246/224/481 252/223/481 247/225/481
f 251/227/482 252/226/482 246/219/482
f 251/227/483 253/228/483 252/226/483
f 243/221/484 253/229/484 251/220/484
f 246/219/485 250/218/485 251/227/485
f 250/222/486 248/214/486 243/221/486
f 242/204/487 247/209/487 243/203/487
f 253/228/488 157/230/488 154/231/488
f 3/3/489 157/232/489 253/229/489
f 253/228/490 154/231/490 252/226/490
f 252/223/491 154/233/491 159/234/491
f 247/225/492 252/223/492 159/234/492
f 159/234/493 160/235/493 247/225/493
f 247/225/494 160/235/494 243/236/494
f 243/221/495 3/3/495 253/229/495
f 160/235/496 3/237/496 243/236/496
f 254/239/497 255/238/497 256/240/497
f 254/242/498 257/241/498 255/243/498
f 258/245/499 259/244/499 257/246/499
f 256/248/500 259/247/500 258/249/500
f 256/240/501 255/238/501 242/208/501
f 242/250/502 259/247/502 256/248/502
f 259/247/503 242/250/503 244/251/503
f 242/208/504 255/238/504 245/252/504
f 255/243/505 249/253/505 245/254/505
f 255/243/506 257/241/506 249/253/506
f 257/246/507 259/244/507 249/255/507
f 249/255/508 259/244/508 244/256/508
f 260/258/509 256/257/509 258/259/509
f 261/260/510 256/257/510 260/258/510
f 258/259/511 262/261/511 260/258/511
f 263/263/512 254/262/512 261/260/512
f 263/265/513 261/264/513 262/266/513
f 260/267/514 262/266/514 261/264/514
f 263/263/515 257/268/515 254/262/515
f 261/260/516 254/262/516 256/257/516
f 262/261/517 258/259/517 257/268/517
f 264/269/518 257/268/518 263/263/518
f 262/261/519 257/268/519 264/269/519
f 265/270/520 263/265/520 266/271/520
f 262/266/521 266/271/521 263/265/521
f 264/269/522 263/263/522 265/272/522
f 266/273/523 264/269/523 265/272/523
f 264/269/524 266/273/524 262/261/524
f 157/275/525 3/274/525 17/276/525

o 
usemtl axe.001
s off

v 7.588080 67.399590 33.304039
v 5.371590 61.248734 30.006340
v 8.641089 62.509579 40.234871
v 7.352600 60.810661 37.659348
v 8.831040 60.687416 41.341812
v 7.542550 58.988499 38.766293
v 9.169640 52.228470 42.520332
v 6.361390 51.754032 35.774269
v 10.100451 70.712242 38.325920
v 11.682010 55.541119 47.542210
v 12.908699 71.186684 45.071980
v 9.929580 64.208511 42.810402
v 10.119539 62.386353 43.917332
v 13.898500 61.691978 50.839920
v 9.150550 60.554371 36.928921
v 10.439051 62.253288 39.504448
v 9.340500 58.732208 38.035858
v 10.629000 60.431133 40.611382
v 11.727530 63.952213 42.079960
v 11.917490 62.130058 43.186909
v -5.505030 43.857422 11.958719
v -5.315080 42.035259 13.065660
v -3.517120 41.778961 12.335230
v -3.707080 43.601120 11.228290
v 13.636900 66.746948 48.422279
v -18.721029 24.359039 -13.730989
v -16.923080 24.102749 -14.461420
v -17.113039 25.924900 -15.568360
v -18.910990 26.181200 -14.837931

vt 0.033358 0.643728
vt 0.190411 0.923560
vt 0.402692 0.503812
vt 0.402692 0.647326
vt 0.408249 0.287497
vt 0.408249 0.367848
vt 0.492649 0.287497
vt 0.492649 0.367848
vt 0.403043 0.503812
vt 0.403044 0.647326
vt 0.033710 0.643728
vt 0.190763 0.923560
vt 0.033358 0.363896
vt 0.033710 0.363896
vt 0.190411 0.084064
vt 0.402692 0.360297
vt 0.408249 0.207147
vt 0.492649 0.207147
vt 0.403043 0.360297
vt 0.190763 0.084064
vt 0.408248 1.036942
vt 0.492649 1.036942
vt 0.483600 0.371280
vt 0.402049 0.371280
vt 0.402049 1.040375
vt 0.483600 1.040375
vt 0.450449 0.037941
vt 0.483600 0.210579
vt 0.402049 0.210579
vt 0.442825 0.041374
vt 0.000000 1.000000

vn -0.941640 0.190545 0.277502
vn -0.916400 0.308621 0.254880
vn -0.918490 0.130927 0.373140
vn -0.900423 0.024470 0.434326
vn -0.922960 -0.008456 0.384804
vn -0.922409 0.235370 0.306207
vn -0.896033 0.267749 0.354169
vn -0.878729 -0.052733 0.474399
vn -0.883183 0.069578 0.463839
vn 0.878729 0.052729 -0.474399
vn 0.883183 -0.069578 -0.463839
vn 0.918490 -0.130929 -0.373141
vn 0.896033 -0.267748 -0.354170
vn 0.922409 -0.235370 -0.306208
vn 0.900423 -0.024470 -0.434327
vn 0.922960 0.008456 -0.384804
vn 0.941639 -0.190545 -0.277503
vn 0.916400 -0.308621 -0.254880
vn -0.148342 -0.988769 -0.018200
vn -0.293730 0.405883 -0.865438
vn 0.148339 0.988769 0.018202
vn 0.293734 -0.405883 0.865436
vn -0.088744 0.851284 -0.517146
vn 0.088745 -0.851284 0.517146
vn -0.856686 0.199636 0.475641
vn 0.962799 -0.059725 -0.263535
vn 0.145644 -0.765263 0.627025
vn -0.029828 0.917971 -0.395523
vn -0.385359 -0.508108 -0.770275

f 267/277/526 268/278/526 269/279/526
f 270/280/527 269/279/527 268/278/527
f 269/281/528 270/282/528 271/283/528
f 272/284/528 271/283/528 270/282/528
f 271/285/529 272/286/529 273/287/529
f 274/288/530 273/287/530 272/286/530
f 275/289/531 267/277/531 269/279/531
f 273/287/529 276/290/529 271/285/529
f 277/291/532 275/289/532 278/292/532
f 269/279/531 278/292/531 275/289/531
f 278/293/528 269/281/528 279/294/528
f 271/283/528 279/294/528 269/281/528
f 279/295/533 271/285/533 280/296/533
f 276/290/534 280/296/534 271/285/534
f 281/280/535 268/278/535 282/279/535
f 267/277/536 282/279/536 268/278/536
f 283/284/537 281/282/537 284/283/537
f 282/281/537 284/283/537 281/282/537
f 274/288/538 283/286/538 273/287/538
f 284/285/539 273/287/539 283/286/539
f 282/279/540 267/277/540 275/289/540
f 273/287/539 284/285/539 276/290/539
f 282/279/540 275/289/540 285/292/540
f 277/291/541 285/292/541 275/289/541
f 284/283/537 282/281/537 286/294/537
f 285/293/537 286/294/537 282/281/537
f 276/290/542 284/285/542 280/296/542
f 286/295/543 280/296/543 284/285/543
f 270/280/544 268/278/544 281/280/544
f 283/286/545 274/288/545 272/286/545
f 279/295/546 280/296/546 286/295/546
f 285/292/547 277/291/547 278/292/547
f 272/284/528 270/282/528 287/297/528
f 287/297/528 288/298/528 272/284/528
f 281/282/537 283/284/537 289/298/537
f 289/298/537 290/297/537 281/282/537
f 270/299/548 281/300/548 290/301/548
f 290/301/548 287/302/548 270/299/548
f 283/300/549 272/299/549 288/302/549
f 288/302/549 289/301/549 283/300/549
f 278/293/550 279/294/550 291/303/550
f 286/294/551 285/293/551 291/303/551
f 279/304/552 286/305/552 291/306/552
f 285/305/553 278/304/553 291/306/553
f 289/298/549 288/297/549 292/298/549 293/307/549
f 287/297/548 290/298/548 294/297/548 295/307/548
f 290/297/537 289/298/537 293/297/537 294/307/537
f 288/298/528 287/297/528 295/298/528 292/307/528
f 294/297/554 293/298/554 295/297/554
f 292/298/554 295/297/554 293/298/554

