mtllib anim_barb_walk_000019.mtl

o fat
usemtl fat.001
s off

v -0.097340 38.958599 -3.425240
v 1.860240 36.144421 6.136090
v 0.182360 38.343639 1.341590
v 0.410170 60.924919 -7.899920
v 10.255099 66.582993 -5.651480
v 2.812830 57.121040 -6.939800
v -0.362600 52.843243 -4.953560
v 8.556970 62.888550 -2.390980
v 7.758570 58.694847 -0.644310
v 6.919220 52.919521 -0.848430
v 4.142630 52.730171 -4.975850
v 6.652210 57.898041 -5.867780
v 8.771100 36.707970 4.565930
v 9.387190 39.308189 -1.645010
v 10.543110 38.871880 -2.192370
v 6.222690 37.498920 4.491960
v 3.993900 37.104919 7.078080
v 4.215110 39.057232 -6.959470
v 3.802210 40.070019 -5.642020
v 0.508700 39.684811 -4.520720
v -0.102010 36.299259 -3.899800
v 0.201120 66.578033 -7.609260
v 0.170300 68.570679 -7.646910
v -0.086640 59.873398 6.060730
v 4.772620 59.914597 4.384380
v 5.396580 64.100128 5.535120
v 8.713320 63.802811 3.029790
v 5.120840 66.902222 5.585750
v 11.185960 67.018288 2.159900
v 4.497020 52.987808 4.054040
v 1.102870 52.717327 5.311190
v -0.452850 66.809357 6.262360
v 5.516390 71.325302 -4.244550
v 11.779119 68.542480 -4.669130
v 11.939390 68.840546 -0.888000
v 2.427380 71.414001 3.933230
v 5.579940 72.538239 -0.052370
v -0.374200 70.593361 4.298890
v 2.663080 76.914322 0.711300
v 3.526590 74.541847 -2.225260
v 0.539870 74.684540 -3.385610
v 0.178240 77.568459 -0.531970
v 0.853480 72.615906 -5.158330
v 0.489180 48.390488 5.632990
v 5.364230 48.385319 5.032270
v 8.418850 48.033581 -0.145200
v 4.995830 47.439491 -5.329380
v -0.188040 47.353867 -6.038870
v 11.851550 65.313507 1.528590
v 10.800400 65.124840 -6.094290
v 13.689300 65.812691 -0.905140
v 13.185390 67.163979 -4.035920
v 8.930560 62.621468 1.778360
v 2.581520 76.355339 6.199550
v 1.180830 74.840370 7.934600
v 2.391640 72.004982 5.017529
v 1.639600 70.936745 6.831610
v 0.698310 73.471779 7.879170
v 1.643460 76.810440 7.735350
v -0.144470 76.680664 8.001181
v 3.177320 77.689827 3.490150
v 0.535690 80.679436 8.120910
v -0.763210 80.630035 8.390590
v 1.701340 78.081696 8.359060
v 2.256590 79.942261 7.338530
v 1.223440 82.020950 5.412940
v -0.414440 82.016106 5.217900
v 0.269850 74.846848 8.458651
v -0.765430 77.426659 8.287920
v -0.900690 75.401932 9.461260
v -0.835060 74.817917 8.831680
v -0.843340 73.235504 8.847470
v 0.535200 70.473396 8.418261
v -0.861440 70.447922 8.907750
v 3.025130 80.027779 3.517950
v 2.543030 81.269157 2.955920
v -0.045170 81.517120 1.783120
v 13.824579 63.111000 0.690510
v 14.697770 64.111206 -2.805410
v 9.830650 57.714008 -4.081210
v 11.006880 57.764366 0.377490
v 11.511181 62.794991 -6.260680
v 12.476490 53.599648 -4.231070
v 12.628070 50.111698 -1.106520
v 11.669040 52.600807 -2.642010
v 15.684930 53.674961 -5.739030
v 16.685070 55.392563 -3.416210
v 14.702579 51.616219 0.185720
v 16.068581 54.572227 -1.477430
v 14.244740 53.711052 0.863870
v 14.079670 52.534809 -1.336640
v 11.933770 54.490753 -0.139690
v 14.565760 56.456379 -5.661820
v 15.161530 55.251232 -5.763780
v 15.893990 60.647667 -3.061610
v 14.815721 59.735088 0.159390
v 13.305720 54.181133 -0.935030
v 13.680500 59.019043 -6.488330
v 7.743040 49.040207 4.066430
v 6.634750 50.542908 3.739080
v 8.778810 49.492889 5.141790
v 8.515710 51.310539 5.588830
v 7.290210 52.182430 4.892090
v 3.809650 53.195160 8.635600
v 3.483310 52.386040 8.338850
v 4.563050 51.813942 7.858120
v 5.452590 52.160309 8.009260
v 5.590300 50.903938 9.139840
v 4.602750 53.193287 6.290350
v 5.013950 52.985691 7.609160
v 3.056250 53.406410 7.862080
v 2.647160 52.933533 9.499780
v 2.152470 53.053989 8.827980
v 3.859920 50.403450 10.461180
v 4.905300 46.946960 6.370800
v 3.680270 46.354881 7.797360
v 1.931870 46.048470 10.120740
v 3.339190 51.074181 9.489150
v 4.427150 46.547390 8.516870
v 5.885170 47.027512 7.311740
v 1.410650 49.968536 11.773749
v 1.585920 27.249729 -4.391040
v 4.013180 22.649611 -12.658760
v 1.404660 20.020500 -8.348680
v 7.492890 27.330780 -5.596060
v 8.806470 20.701271 -9.660480
v 4.057580 28.885719 -7.993560
v 5.246460 23.786060 -3.364190
v 5.299530 18.488131 -5.577610
v 5.370740 25.538818 -1.960610
v 5.860570 27.843460 -1.676980
v 8.973870 30.950539 -5.145400
v 6.337250 31.498621 1.796470
v 6.497970 11.214460 -14.270491
v 7.299200 8.252080 -14.969799
v 4.589260 10.528279 -16.802238
v 4.775520 7.836020 -12.358700
v 2.868330 10.732369 -13.533360
v 2.281870 8.159590 -15.369149
v 3.405400 6.844640 -19.824659
v 6.653940 7.087950 -19.581230
v 2.184270 1.929640 -13.326540
v 8.341440 2.005630 -12.660480
v 4.556020 1.442810 -9.038170
v 6.917400 -0.436220 -9.592190
v 2.857660 -0.863690 -9.527090
v -8.482930 66.765968 -7.387910
v -1.844500 57.094368 -7.124620
v -5.415920 63.519039 -3.393420
v -7.183510 58.608650 -1.752010
v -4.956670 52.825859 -3.359810
v -6.374790 52.713562 1.356610
v -5.606950 57.827831 -6.512430
v -9.027580 39.178978 0.059300
v -7.457950 37.908600 6.152790
v -10.240311 38.581059 0.007030
v -5.089880 41.113892 5.174470
v -4.698540 35.697552 -4.524850
v -4.463480 38.585720 -4.721050
v -0.872830 38.014431 -3.991580
v -5.009740 59.856339 3.743950
v -5.950980 64.025940 4.506300
v -10.670860 63.651421 1.721110
v -5.772100 66.827591 4.501520
v -10.589419 68.017952 0.988990
v -2.454760 52.600540 5.400970
v -10.331010 68.010643 -6.786130
v -4.201030 71.286201 -5.362310
v -11.321640 69.046844 -2.315060
v -2.943110 71.392662 3.350230
v -5.823830 72.625519 -1.173220
v -2.505460 76.927551 0.219630
v -2.653270 74.544899 -2.987670
v -3.837170 47.981064 5.886670
v -8.018371 47.661201 0.731070
v -5.590640 46.625427 -5.109820
v -11.689880 65.832909 0.075230
v -8.330690 63.744110 -7.468710
v -12.909060 66.719505 -2.753240
v -11.711640 65.165428 -5.858800
v -9.991070 63.651272 0.501140
v -2.612380 74.856140 7.524500
v -3.597380 76.381020 5.531520
v -3.619210 72.030190 4.062560
v -2.856860 70.955421 6.345470
v -2.140420 73.483582 7.572270
v -1.316860 76.685532 7.874450
v -3.005530 76.829773 7.232710
v -3.589360 77.717964 2.758570
v -1.974020 80.689857 7.849560
v -3.184930 78.102013 7.830780
v -3.493930 79.966156 6.716810
v -2.056070 82.034576 5.058400
v -1.834430 74.855598 8.231150
v -2.120930 70.484436 8.131081
v -3.427430 80.054596 2.820360
v -2.826160 81.291466 2.375420
v -12.792660 63.309853 -0.795230
v -13.167790 63.169498 -4.543970
v -9.546340 58.568577 0.854430
v -8.329790 57.829262 -3.149250
v -9.272861 61.459251 -6.996531
v -11.552870 49.010391 0.180650
v -9.611219 52.990051 -2.342180
v -9.806680 51.360039 -1.267900
v -12.374571 52.255821 -4.460210
v -13.976931 54.439194 -2.995620
v -12.217390 51.138229 2.048380
v -13.809490 54.210709 -0.819090
v -10.404449 53.542999 2.418810
v -7.988380 53.751350 0.907840
v -11.795799 52.574249 0.307980
v -11.500440 55.084572 -5.038930
v -11.925840 53.875801 -4.821640
v -13.842540 59.585720 -4.108390
v -13.400850 59.775040 -0.609700
v -10.842080 55.237816 -0.100690
v -10.739980 57.444920 -6.426390
v -7.208920 46.548218 5.353470
v -5.632050 47.466969 4.850350
v -7.916000 47.449917 6.414910
v -6.889960 49.067478 6.695770
v -5.507030 49.298622 5.882690
v -1.721750 48.140141 9.179400
v -1.666280 49.030228 9.410200
v -2.968610 48.033409 8.785521
v -3.627250 48.728947 8.925950
v -4.194010 47.726669 10.175310
v -2.913990 49.265751 8.439100
v -2.536270 49.184196 7.096740
v -0.945440 48.854443 8.597420
v -0.661250 48.373650 10.261680
v -0.204720 48.228851 9.568080
v -2.741840 46.651539 11.487260
v -4.414160 42.713032 9.203090
v -5.374090 43.652702 7.765850
v -2.798850 41.877060 11.497509
v -2.055030 46.973339 10.442900
v -4.967920 43.249420 9.922870
v -6.171970 44.200512 8.722480
v -0.608920 45.336651 12.764860
v -3.537380 19.524780 6.735530
v -1.381270 29.278339 7.611680
v -1.318920 21.707689 11.081400
v -8.592540 20.918800 9.357940
v -7.201630 28.279751 6.289040
v -3.608070 27.835150 3.754420
v -5.339530 27.637480 10.103580
v -5.432640 23.012310 13.584100
v -5.350480 29.828661 10.217490
v -5.127690 32.014900 8.477560
v -8.691530 31.309851 4.226710
v -5.330430 36.987801 7.859980
v -7.505830 9.789700 17.163599
v -6.554360 12.161670 15.478320
v -4.627120 9.103880 14.831210
v -5.426440 12.387751 18.629959
v -2.568450 9.811710 17.796980
v -3.033350 12.543591 16.312670
v -3.257840 5.059210 17.729530
v -6.334110 5.047260 17.337200
v -3.303340 10.349390 24.202480
v -9.153060 10.583390 23.716591
v -5.246970 14.307290 25.372738
v -7.635450 13.294149 27.010592
v -3.593320 13.386130 27.577341

vt 0.550479 0.485338
vt 0.414517 0.485338
vt 0.489174 0.497239
vt 0.490853 0.675485
vt 0.356970 0.710738
vt 0.458986 0.602657
vt 0.458693 0.603155
vt 0.491001 0.506534
vt 0.357039 0.710738
vt 0.272881 0.708251
vt 0.307767 0.663467
vt 0.329118 0.504113
vt 0.420682 0.504388
vt 0.307693 0.663467
vt 0.420389 0.504181
vt 0.390374 0.619683
vt 0.389206 0.622726
vt 0.390855 0.620128
vt 0.309151 0.663075
vt 0.578845 0.971377
vt 0.529882 0.993867
vt 0.501054 0.950636
vt 0.597833 0.993868
vt 0.684209 0.993870
vt 0.691613 0.940228
vt 0.584242 0.936155
vt 0.602549 0.993867
vt 0.689094 0.993870
vt 0.694409 0.971380
vt 0.730001 0.975635
vt 0.490853 0.781888
vt 0.490853 0.820915
vt 0.240556 0.660920
vt 0.133663 0.660928
vt 0.131880 0.753091
vt 0.060606 0.782384
vt 0.055577 0.663688
vt 0.136145 0.808744
vt 0.060014 0.783494
vt 0.058190 0.859642
vt 0.160773 0.512959
vt 0.067037 0.515196
vt 0.240700 0.512959
vt 0.131877 0.752996
vt 0.240556 0.781375
vt 0.390182 0.870896
vt 0.298691 0.847983
vt 0.294173 0.886121
vt 0.181129 0.899551
vt 0.052544 0.886601
vt 0.145152 0.921474
vt 0.235241 0.891030
vt 0.142740 0.921054
vt 0.172936 0.966074
vt 0.456563 0.999059
vt 0.389917 0.922986
vt 0.429989 0.941889
vt 0.491140 0.942697
vt 0.490646 0.999330
vt 0.490853 0.898039
vt 0.701416 0.118225
vt 0.813217 0.120956
vt 0.790107 0.184348
vt 0.877923 0.002315
vt 0.872775 0.120438
vt 0.505869 0.118716
vt 0.564263 0.119120
vt 0.507564 0.183764
vt 0.697589 0.180917
vt 0.580429 0.182675
vt 0.710756 0.001536
vt 0.701372 0.182427
vt 0.812168 0.002315
vt 0.857243 0.184348
vt 0.697567 0.116528
vt 0.503935 0.000692
vt 0.561277 0.000692
vt 0.688827 -0.000098
vt 0.002866 0.854679
vt 0.027518 0.706813
vt 0.061197 0.782654
vt 0.055608 0.663958
vt 0.251604 0.781884
vt 0.357109 0.710738
vt 0.243886 0.876138
vt 0.247300 0.848527
vt -0.000514 0.880403
vt 0.006948 0.782948
vt 0.674684 0.829607
vt 0.705811 0.784366
vt 0.654033 0.662928
vt 0.703232 0.671848
vt 0.720473 0.730776
vt 0.697736 0.853617
vt 0.729837 0.853035
vt 0.623758 0.856571
vt 0.587609 0.811448
vt 0.658187 0.605708
vt 0.748523 0.593788
vt 0.716351 0.931575
vt 0.747491 0.935506
vt 0.695349 0.885675
vt 0.676247 0.904603
vt 0.649719 0.961956
vt 0.745560 1.001324
vt 0.725611 0.781438
vt 0.747491 0.878462
vt 0.747491 0.808438
vt 0.720379 0.731031
vt 0.747491 0.790807
vt 0.720762 0.730332
vt 0.748639 0.732530
vt 0.746944 0.628012
vt 0.703659 0.671442
vt 0.731857 0.666086
vt 0.747085 0.666819
vt 0.703186 0.671176
vt 0.611291 0.885598
vt 0.604148 0.909350
vt 0.550618 0.823662
vt 0.550618 0.934468
vt 0.625864 0.557513
vt 0.571978 0.557920
vt 0.578607 0.510287
vt 0.669444 0.510287
vt 0.756032 0.560223
vt 0.679695 0.557918
vt 0.877240 0.461159
vt 0.992418 0.461159
vt 0.944262 0.560223
vt 0.756457 0.510287
vt 0.806202 0.560223
vt 0.498275 0.560223
vt 0.875566 0.382888
vt 0.758260 0.308662
vt 0.875912 0.308662
vt 0.759996 0.360654
vt 0.669163 0.382888
vt 0.671223 0.308662
vt 0.584325 0.382888
vt 0.577057 0.308662
vt 0.498223 0.363687
vt 0.498247 0.308662
vt 0.992597 0.308662
vt 0.992439 0.363687
vt 0.759483 0.410364
vt 0.758924 0.382888
vt 0.665903 0.461159
vt 0.580075 0.461159
vt 0.498223 0.402657
vt 0.992438 0.402657
vt 0.760539 0.449273
vt 0.498220 0.461159
vt 0.875438 0.575163
vt 0.762705 0.196431
vt 0.858161 0.196355
vt 0.690657 0.196417
vt 0.588027 0.196417
vt 0.498144 0.196431
vt 0.991918 0.196431
vt 0.375723 0.009258
vt 0.380090 0.017573
vt 0.356438 0.030356
vt 0.342839 0.029458
vt 0.369327 0.043627
vt 0.316032 0.012201
vt 0.336848 0.019568
vt 0.249292 0.041099
vt 0.371147 0.002582
vt 0.416197 0.004791
vt 0.408124 0.000758
vt 0.128136 0.016613
vt 0.154876 0.002573
vt 0.119423 0.002194
vt 0.160447 0.001473
vt 0.065726 0.014292
vt 0.105093 0.028910
vt 0.000825 0.069213
vt 0.000703 0.039244
vt 0.249314 0.055441
vt 0.429228 0.045736
vt 0.102506 0.115410
vt 0.153549 0.117195
vt 0.189513 0.114692
vt 0.228429 0.109580
vt 0.194639 0.033982
vt 0.406548 0.108121
vt 0.355355 0.108206
vt 0.448349 0.035630
vt 0.498209 0.039288
vt 0.461840 0.047992
vt 0.483032 0.114221
vt 0.406174 0.120334
vt 0.355217 0.119080
vt 0.243215 0.037501
vt 0.249314 0.089732
vt 0.000703 0.095058
vt 0.249292 0.105039
vt 0.160984 0.032072
vt 0.413806 0.033644
vt 0.442212 0.108407
vt 0.443088 0.117732
vt 0.023914 0.327327
vt 0.104127 0.227894
vt 0.000784 0.227894
vt 0.216171 0.327327
vt 0.216985 0.228421
vt 0.105699 0.228145
vt 0.104981 0.327662
vt 0.217575 0.327327
vt 0.351490 0.301452
vt 0.217290 0.227894
vt 0.351571 0.227894
vt 0.352420 0.301452
vt 0.489174 0.227894
vt 0.352342 0.227894
vt 0.471690 0.333380
vt 0.351597 0.328057
vt 0.217345 0.328075
vt 0.352312 0.363299
vt 0.470864 0.334174
vt 0.352330 0.328057
vt 0.216660 0.380224
vt 0.216104 0.328075
vt 0.104983 0.328371
vt 0.217232 0.380224
vt 0.351611 0.363299
vt 0.351459 0.420971
vt 0.352499 0.420971
vt 0.351589 0.497239
vt 0.229465 0.497239
vt 0.352627 0.497239
vt 0.229583 0.497239
vt 0.133020 0.497239
vt 0.072972 0.497239
vt 0.025422 0.328212
vt 0.002386 0.497239
vt 0.216130 0.152222
vt 0.223982 0.125749
vt 0.105883 0.155747
vt 0.351732 0.147623
vt 0.223132 0.128232
vt 0.218721 0.149411
vt 0.469070 0.149411
vt 0.483427 0.127273
vt 0.352306 0.146326
vt 0.017963 0.152222
vt 0.104256 0.155747
vt 0.009616 0.131504
vt 0.104128 0.227914
vt 0.000790 0.227921
vt 0.216984 0.228396
vt 0.351571 0.227971
vt 0.217291 0.227882
vt 0.352342 0.227879
vt 0.489111 0.227891
vt 0.948232 0.041698
vt 0.989968 0.003451
vt 0.971575 0.059997
vt 0.909211 0.004273
vt 0.996004 0.120663
vt 0.925604 0.058708
vt 0.885225 0.122889
vt 0.516483 0.798440
vt 0.501430 0.685191
vt 0.597947 0.686709
vt 0.594444 0.793024
vt 0.950876 0.082499
vt 0.943924 0.157220
vt 0.507177 0.624822
vt 0.600053 0.622523
vt 0.901715 0.182549
vt 0.982420 0.184037
vt 0.730212 0.975635
vt 0.685579 0.991654
vt 0.692830 0.969164

vn -0.748766 -0.661539 -0.041408
vn 0.263478 -0.076303 -0.961643
vn -0.144064 -0.326759 -0.934063
vn 0.865050 0.043476 0.499798
vn 0.827637 -0.100769 -0.552144
vn -0.014849 -0.411997 -0.911064
vn 0.313087 -0.307144 -0.898687
vn 0.916215 -0.376684 -0.136599
vn 0.285448 -0.094664 -0.953708
vn 0.884970 -0.450249 -0.118759
vn -0.478473 -0.792070 -0.379063
vn -0.261890 -0.880702 -0.394686
vn -0.266242 -0.891982 -0.365352
vn -0.227701 -0.936741 0.265835
vn -0.434460 -0.774721 0.459404
vn 0.555064 0.052130 0.830173
vn 0.300313 -0.708416 0.638717
vn 0.984480 -0.174873 0.014797
vn 0.191121 -0.015588 -0.981443
vn 0.313848 -0.294916 0.902510
vn 0.681585 -0.506950 0.527678
vn 0.488825 -0.143086 0.860567
vn 0.326010 -0.057971 0.943587
vn 0.894783 -0.056722 0.442883
vn 0.349844 -0.039882 0.935959
vn 0.112886 -0.022917 0.993344
vn 0.105896 0.378605 -0.919481
vn 0.190794 0.057441 -0.979948
vn 0.558622 -0.296268 0.774704
vn 0.399421 0.912451 -0.088858
vn 0.120607 -0.006069 0.992682
vn 0.262306 0.505899 -0.821743
vn 0.604692 0.045137 0.795179
vn 0.412473 0.520158 0.747865
vn 0.476113 0.697941 0.534972
vn 0.099710 0.456647 0.884043
vn 0.018493 0.353580 0.935221
vn 0.686099 0.345598 0.640180
vn 0.792072 0.567288 -0.225402
vn 0.469941 0.649935 -0.597277
vn 0.255561 0.787390 -0.560987
vn 0.459651 0.690603 0.558380
vn 0.461232 0.850430 -0.253050
vn 0.779585 0.598366 -0.184945
vn 0.314210 0.636541 -0.704334
vn 0.302998 0.646190 -0.700451
vn 0.292419 0.464762 -0.835755
vn 0.119320 0.227874 0.966352
vn 0.860566 0.087411 0.501782
vn 0.813373 0.169552 -0.556486
vn -0.003278 0.066144 -0.997805
vn 0.120836 0.162911 0.979213
vn 0.345799 0.020724 0.938080
vn 0.912711 0.253486 0.320473
vn 0.825278 0.320247 0.465144
vn 0.868515 0.254100 0.425575
vn 0.814276 0.168433 -0.555505
vn 0.129781 0.196287 -0.971920
vn 0.778853 0.303264 -0.549016
vn 0.600622 0.098362 -0.793460
vn 0.130569 0.177527 -0.975416
vn -0.495941 -0.168686 -0.851814
vn 0.469632 0.101994 0.876951
vn 0.907321 0.222028 0.357032
vn 0.982580 -0.185815 0.003000
vn 0.159015 0.340846 -0.926573
vn 0.479394 -0.134010 0.867308
vn 0.863473 0.498603 0.076224
vn 0.691741 0.396367 0.603645
vn 0.547575 0.183615 -0.816362
vn 0.716733 0.692155 -0.084942
vn -0.811207 -0.130242 -0.570070
vn -0.965166 -0.252004 0.070340
vn 0.560851 -0.551235 0.617727
vn 0.835752 -0.177649 0.519576
vn 0.449120 -0.193670 0.872229
vn 0.142010 0.066540 0.987626
vn 0.981082 -0.089466 0.171677
vn 0.981036 -0.127536 -0.145953
vn 0.989347 -0.111627 0.093447
vn 0.304267 -0.832173 0.463584
vn 0.193735 0.175422 0.965243
vn 0.911170 -0.047426 0.409292
vn 0.974672 0.017497 0.222951
vn -0.054129 0.900158 0.432187
vn 0.475326 0.312559 0.822418
vn 0.684975 0.318254 0.655380
vn 0.699334 0.322849 0.637731
vn 0.486842 -0.206023 0.848846
vn 0.313347 -0.284216 0.906110
vn 0.049234 0.913260 0.404390
vn -0.020318 -0.032014 0.999281
vn 0.245441 -0.697829 0.672899
vn 0.531248 0.005677 0.847197
vn 0.493160 -0.823485 -0.280473
vn 0.923703 0.000305 0.383110
vn 0.007455 -0.999499 -0.030753
vn 0.513966 0.124631 0.848708
vn 0.810867 0.060543 0.582091
vn 0.274563 -0.957488 -0.088497
vn 0.330399 0.018259 0.943665
vn 0.977702 0.066017 -0.199352
vn 0.917814 0.201591 -0.342022
vn 0.767695 -0.310090 0.560793
vn 0.163228 -0.440540 0.882769
vn 0.826306 -0.138832 0.545843
vn 0.056783 -0.316669 0.946835
vn 0.520856 0.704897 0.481486
vn 0.978250 0.061326 0.198155
vn 0.884047 0.428178 0.187417
vn 0.769131 0.595994 0.230715
vn 0.497932 0.298089 0.814375
vn 0.492153 0.409508 -0.768173
vn 0.399775 0.480329 -0.780682
vn 0.151110 0.980430 -0.126184
vn 0.030215 0.960227 -0.277580
vn 0.836038 -0.140251 0.530444
vn 0.693873 0.391639 0.604284
vn 0.646860 0.013116 -0.762496
vn 0.885351 0.461457 0.056670
vn -0.867803 -0.438425 0.233883
vn 0.929466 0.220997 0.295386
vn 0.661550 0.252256 -0.706200
vn -0.781684 -0.196195 -0.592011
vn 0.229405 -0.159834 0.960118
vn -0.512690 -0.585129 -0.628310
vn -0.314104 -0.641007 -0.700321
vn 0.807598 -0.583733 0.083912
vn 0.678675 -0.661211 -0.319687
vn 0.926888 -0.344514 0.148961
vn 0.792895 -0.023821 0.608893
vn 0.453991 0.771188 -0.446275
vn -0.693149 0.656008 -0.298660
vn 0.339301 0.733026 -0.589532
vn -0.214124 0.872335 0.439526
vn -0.356986 -0.196306 -0.913250
vn -0.427022 -0.135462 -0.894037
vn 0.751602 0.414939 -0.512758
vn 0.754246 0.156567 -0.637652
vn 0.931328 0.116924 0.344902
vn 0.931205 0.116474 0.345384
vn 0.209532 -0.137649 0.968065
vn -0.784819 -0.581748 0.213610
vn -0.794817 0.002583 -0.606843
vn -0.384110 -0.400925 -0.831696
vn 0.814441 0.096830 -0.572110
vn 0.651364 0.277212 -0.706313
vn 0.905725 0.289946 0.309183
vn 0.907859 0.209393 0.363244
vn 0.230423 -0.177448 0.956774
vn 0.118648 -0.120231 0.985630
vn -0.963140 -0.259824 0.069658
vn 0.803199 0.258271 -0.536812
vn -0.417434 -0.152676 -0.895789
vn -0.836052 -0.464333 0.292254
vn 0.220122 -0.245861 0.943980
vn -0.799128 -0.524592 0.293595
vn 0.177019 -0.236391 0.955397
vn 0.660245 0.416978 -0.624665
vn -0.464331 -0.214963 -0.859178
vn -0.561094 -0.548812 -0.619660
vn -0.526318 -0.584016 -0.617993
vn 0.311245 -0.945250 0.098128
vn 0.482958 -0.849237 0.213420
vn 0.658941 -0.097437 0.745857
vn 0.655753 -0.089454 0.749657
vn 0.190696 0.762294 0.618501
vn 0.086119 0.873042 0.479981
vn -0.706537 0.598646 -0.377397
vn -0.726446 0.565275 -0.390821
vn 0.185246 -0.403362 0.896093
vn -0.356135 0.603185 0.713677
vn 0.366473 0.929874 0.032112
vn 0.203862 0.976624 0.068164
vn 0.235767 0.968596 0.078960
vn -0.012289 0.961491 0.274560
vn -0.106753 0.962050 0.251125
vn 0.638047 -0.082882 0.765524
vn 0.590981 -0.476962 0.650576
vn -0.513952 -0.530194 -0.674350
vn -0.404226 -0.904574 0.135452
vn -0.639858 -0.528490 -0.557925
vn -0.568837 -0.610281 -0.551345
vn -0.875333 -0.351808 -0.331697
vn -0.171688 0.611715 -0.772223
vn 0.504175 0.846261 0.172193
vn 0.134239 0.855624 0.499887
vn -0.778505 0.132718 -0.613446
vn -0.799350 0.150740 -0.581651
vn 0.632481 -0.272544 0.725043
vn 0.664714 -0.276706 0.693966
vn 0.126472 0.846841 0.516590
vn 0.491600 -0.282047 0.823880
vn 0.336946 -0.936278 -0.099248
vn 0.208295 -0.968847 -0.133976
vn -0.789681 0.146250 -0.595831
vn 0.773527 -0.043534 0.632266
vn -0.880170 0.081027 -0.467692
vn -0.349395 -0.438113 -0.828239
vn 0.551093 -0.812845 -0.188627
vn -0.271833 0.298951 0.914732
vn 0.709888 -0.255521 0.656329
vn 0.379498 -0.867753 -0.320915
vn 0.596828 0.583928 0.550296
vn 0.600894 0.570072 0.560307
vn -0.821333 0.138974 -0.553261
vn 0.156313 0.850114 0.502864
vn 0.557270 -0.307024 0.771483
vn 0.217597 -0.975407 0.035109
vn -0.888421 0.237365 -0.392894
vn 0.596034 0.502207 -0.626523
vn 0.638769 0.457966 -0.618256
vn 0.818365 -0.173706 0.547819
vn 0.796164 -0.226451 0.561108
vn -0.628850 -0.305090 0.715169
vn -0.567817 -0.384279 0.727952
vn 0.875774 -0.338043 0.344597
vn -0.537001 0.010322 0.843518
vn 0.533402 -0.113883 -0.838160
vn 0.831054 -0.389453 0.397085
vn 0.827592 -0.439617 0.349040
vn -0.358363 -0.618124 0.699642
vn 0.885333 -0.237373 0.399799
vn -0.617558 -0.464486 0.634724
vn -0.841953 0.327035 -0.429144
vn 0.895461 -0.168070 0.412191
vn -0.469837 -0.369181 0.801847
vn 0.911356 -0.196544 0.361664
vn 0.582889 0.289205 -0.759342
vn 0.428958 0.195233 -0.881975
vn -0.336110 0.186429 -0.923187
vn -0.805783 -0.075928 -0.587323
vn -0.541271 -0.439044 0.717123
vn -0.993383 -0.086838 -0.075166
vn 0.705247 0.337877 -0.623270
vn 0.716403 0.029212 0.697075
vn -0.757853 -0.255575 0.600283
vn -0.762638 0.481792 -0.431578
vn 0.739758 0.248859 -0.625162
vn -0.875564 0.118484 -0.468347
vn -0.879834 0.118306 -0.460322
vn 0.582504 0.236196 -0.777753
vn 0.789422 -0.412848 0.454280
vn 0.900705 -0.263961 0.345043
vn -0.788638 -0.302112 0.535518
vn -0.628293 -0.452333 0.632963
vn -0.767959 0.535335 -0.351647
vn 0.010701 0.632216 -0.774718
vn -0.971950 -0.059386 -0.227567
vn 0.981141 0.103309 -0.163368
vn 0.074939 -0.794939 -0.602043
vn 0.104129 -0.802535 -0.587447
vn 0.642314 0.357763 0.677819
vn 0.718597 0.643752 -0.263062
vn -0.739459 0.220168 0.636181
vn 0.621973 0.343997 0.703431
vn -0.825606 0.282139 0.488643
vn 0.074284 -0.796807 -0.599651
vn 0.074662 -0.797080 -0.599240
vn 0.556483 0.504746 0.659968
vn 0.040372 -0.235563 0.971020
vn -0.755500 0.456739 0.469691
vn -0.040906 -0.981915 -0.184853
vn -0.135141 -0.119535 -0.983590
vn 0.292478 -0.352105 -0.889089
vn -0.510515 0.432245 0.743330
vn -0.918845 -0.275193 -0.282829
vn -0.279761 -0.512219 -0.812013
vn -0.236681 -0.539890 -0.807775
vn -0.914167 -0.318681 -0.250483
vn -0.188106 -0.155513 -0.969759
vn -0.923273 -0.283446 -0.259278
vn 0.433277 -0.853484 -0.289544
vn 0.715140 -0.624298 -0.314368
vn 0.053257 -0.327298 -0.943419
vn 0.275297 -0.622417 0.732672
vn 0.722492 -0.011840 0.691278
vn -0.133825 -0.007113 0.990979
vn -0.185934 0.081650 0.979164
vn -0.897352 -0.392489 0.201773
vn -0.025893 -0.019286 -0.999479
vn -0.411236 -0.252946 0.875730
vn -0.604731 -0.690975 0.396048
vn -0.558722 0.147266 0.816175
vn -0.425280 0.056533 0.903295
vn -0.716175 -0.094262 0.691526
vn 0.028367 -0.099465 0.994637
vn -0.284221 -0.042850 0.957801
vn -0.013202 0.419289 -0.907757
vn -0.024357 0.050435 -0.998430
vn -0.475171 -0.260905 0.840322
vn -0.397808 0.870471 -0.289878
vn -0.314120 0.021676 0.949136
vn -0.131077 0.506153 -0.852425
vn -0.509918 0.034024 0.859550
vn -0.442585 0.467288 0.765349
vn -0.560542 0.747260 0.356923
vn -0.279775 0.446757 0.849785
vn -0.220543 0.364803 0.904588
vn -0.730182 0.379209 0.568361
vn -0.635852 0.633299 -0.441163
vn -0.345148 0.637919 -0.688427
vn -0.108478 0.800384 -0.589592
vn -0.474226 0.724931 0.499584
vn -0.431376 0.797368 -0.422041
vn -0.636419 0.628317 -0.447423
vn -0.133148 0.624216 -0.769822
vn -0.122818 0.634982 -0.762702
vn -0.106631 0.533991 -0.838739
vn 0.049840 0.089673 0.994723
vn -0.773273 0.139908 0.618445
vn -0.850451 0.327619 -0.411582
vn -0.314886 0.287494 -0.904541
vn 0.044696 0.140528 0.989067
vn 0.022838 0.070929 0.997220
vn -0.850549 0.316839 0.419736
vn -0.770033 0.174520 0.613670
vn -0.686273 0.276123 0.672893
vn -0.943938 0.175441 -0.279644
vn -0.190684 0.184560 -0.964146
vn -0.878332 0.247541 -0.408971
vn -0.659035 -0.093747 -0.746247
vn -0.160484 -0.065820 -0.984841
vn 0.156306 -0.186469 -0.969947
vn -0.076663 0.053862 0.995601
vn -0.896463 0.325960 0.300173
vn -0.697275 0.011420 -0.716713
vn -0.303394 0.010193 -0.952811
vn -0.764701 0.120401 0.633037
vn -0.653974 0.544871 -0.524817
vn -0.768605 0.436135 0.468008
vn -0.452714 -0.070039 -0.888901
vn -0.896608 0.344322 -0.278455
vn 0.813545 0.056459 -0.578755
vn -0.054663 -0.998044 -0.030330
vn -0.690409 -0.612696 -0.384627
vn -0.923231 -0.118748 0.365435
vn -0.626742 -0.189199 0.755909
vn -0.349276 0.068584 0.934506
vn -0.999987 0.005154 -0.000406
vn -0.925900 -0.127850 -0.355476
vn -0.776751 -0.136864 -0.614757
vn -0.398304 -0.838326 0.372240
vn -0.394118 0.177876 0.901682
vn -0.977951 -0.039573 0.205049
vn -0.999624 0.025703 0.009502
vn -0.032094 0.900064 0.434575
vn -0.637534 0.317177 0.702104
vn -0.806573 0.324449 0.494139
vn -0.816797 0.329148 0.473819
vn -0.658689 -0.201260 0.724998
vn -0.502093 -0.280823 0.817949
vn -0.127029 0.913992 0.385333
vn -0.193988 -0.031292 0.980505
vn -0.389316 -0.695188 0.604274
vn -0.699975 0.010792 0.714085
vn -0.369364 -0.882219 -0.291992
vn -0.952444 -0.031902 0.303039
vn -0.008948 -0.999432 -0.032485
vn -0.682440 0.129599 0.719361
vn -0.916013 0.067717 0.395391
vn -0.258927 -0.954927 -0.145161
vn -0.524298 0.021812 0.851255
vn -0.908679 0.073839 -0.410913
vn -0.818594 0.204912 -0.536577
vn -0.872330 -0.303281 0.383486
vn -0.351758 -0.438406 0.827083
vn -0.924985 -0.131551 0.356506
vn -0.260432 -0.315330 0.912547
vn -0.605914 0.709579 0.359673
vn -0.997460 0.069535 -0.015446
vn -0.900125 0.435597 -0.005476
vn -0.795747 0.602496 0.061528
vn -0.658012 0.302898 0.689400
vn -0.334264 0.397571 -0.854520
vn -0.219674 0.484143 -0.846965
vn -0.112591 0.981526 -0.154694
vn 0.037694 0.960197 -0.276768
vn -0.932804 0.059467 0.355444
vn -0.866951 0.225606 0.444407
vn -0.489033 -0.202183 -0.848510
vn -0.831421 0.297362 -0.469378
vn 0.956866 0.102618 0.271802
vn -0.994858 0.022717 0.098703
vn -0.520365 0.038275 -0.853086
vn 0.729643 -0.413434 -0.544696
vn -0.402266 -0.136506 0.905289
vn 0.056727 -0.554148 -0.830483
vn 0.574588 -0.619442 -0.534920
vn -0.848427 -0.492424 -0.194139
vn -0.927383 -0.364308 0.085092
vn -0.896034 -0.443420 0.022383
vn -0.608826 0.349270 0.712279
vn -0.246361 0.932130 -0.265407
vn 0.672224 0.396643 -0.625131
vn -0.111817 0.713937 -0.691224
vn 0.701846 0.331409 0.630539
vn 0.662839 -0.290609 -0.690066
vn 0.621403 -0.345127 -0.703382
vn -0.647886 0.092088 -0.756150
vn -0.604856 -0.153172 -0.781465
vn -0.991114 0.052322 0.122292
vn -0.994031 0.069849 0.083801
vn -0.309069 0.251392 0.917212
vn 0.842103 -0.423394 0.334064
vn 0.730712 -0.398016 -0.554655
vn 0.720900 -0.508838 -0.470517
vn -0.671908 -0.202326 -0.712463
vn -0.533576 -0.002333 -0.845749
vn -0.976650 0.194875 0.090435
vn -0.978071 0.174270 0.114047
vn -0.422414 0.026017 0.906029
vn -0.324202 0.105127 0.940128
vn 0.616670 -0.284309 0.734089
vn -0.662343 0.016355 -0.749023
vn 0.627866 -0.331075 -0.704396
vn 0.772480 -0.183306 0.608008
vn -0.228766 -0.019825 0.973280
vn 0.814018 -0.120802 0.568139
vn -0.383660 -0.113552 0.916466
vn -0.557337 0.086409 -0.825778
vn 0.772033 -0.356855 -0.525947
vn 0.231212 -0.741652 -0.629678
vn 0.376946 -0.672674 -0.636727
vn -0.648178 -0.736416 0.193796
vn -0.783659 -0.529643 0.324588
vn -0.546886 0.291394 0.784860
vn -0.602652 0.250734 0.757590
vn 0.229817 0.760651 0.607119
vn 0.281708 0.780505 0.558080
vn 0.830151 -0.140264 -0.539607
vn 0.864012 0.201156 -0.461540
vn -0.275926 -0.225100 0.934449
vn 0.616364 0.453727 0.643605
vn 0.056658 0.997395 -0.044646
vn 0.218504 0.975684 -0.017232
vn 0.190099 0.981746 -0.006146
vn 0.423650 0.886963 0.183895
vn 0.508262 0.846624 0.157793
vn -0.565907 0.246267 0.786830
vn -0.691841 -0.140527 0.708243
vn 0.206535 -0.743086 -0.636527
vn 0.004173 -0.978334 0.206993
vn 0.330624 -0.785528 -0.523099
vn 0.231174 -0.830516 -0.506757
vn 0.627246 -0.708913 -0.322496
vn 0.354066 0.440733 -0.824859
vn -0.098830 0.988672 0.112958
vn 0.261379 0.868072 0.422058
vn 0.723368 -0.247139 -0.644717
vn 0.751615 -0.237077 -0.615524
vn -0.640798 0.067646 0.764723
vn -0.673706 0.075000 0.735184
vn 0.265887 0.858108 0.439266
vn -0.510237 0.007940 0.859997
vn -0.697510 -0.716570 -0.002628
vn -0.595971 -0.802119 -0.037742
vn 0.740161 -0.238161 -0.628841
vn -0.684857 0.320820 0.654251
vn 0.804077 -0.325762 -0.497332
vn 0.096463 -0.600320 -0.793921
vn -0.840995 -0.529687 -0.110266
vn 0.426576 0.227195 0.875452
vn -0.710356 0.112179 0.694845
vn -0.723431 -0.650686 -0.230770
vn -0.265278 0.816933 0.512102
vn -0.273875 0.807019 0.523175
vn 0.768634 -0.254885 -0.586715
vn 0.239231 0.872446 0.426154
vn -0.583835 0.008715 0.811825
vn -0.596367 -0.791897 0.131322
vn 0.909598 -0.166894 -0.380497
vn -0.499411 -0.251304 -0.829117
vn -0.576188 -0.280308 -0.767747
vn -0.818980 0.345701 0.457998
vn -0.825059 0.350265 0.443386
vn 0.561173 0.490443 0.666746
vn 0.369532 0.389661 0.843570
vn -0.900105 -0.027101 0.434829
vn 0.523244 0.497386 0.691970
vn -0.493360 -0.642015 -0.586866
vn -0.769611 0.054573 0.636177
vn -0.769326 0.047752 0.637069
vn 0.312189 0.129607 0.941138
vn -0.898236 0.326073 0.294700
vn 0.544386 -0.040839 0.837840
vn 0.879570 -0.153999 -0.450156
vn -0.800259 0.359184 0.480179
vn 0.666142 0.379177 0.642245
vn -0.859268 0.210260 0.466314
vn -0.696995 -0.358618 -0.620959
vn -0.455172 -0.573314 -0.681271
vn 0.061889 -0.614884 -0.786185
vn 0.832920 -0.459023 -0.309100
vn 0.685685 0.330351 0.648617
vn 0.944807 -0.280293 -0.169632
vn -0.644699 -0.253731 -0.721099
vn -0.820066 0.511413 0.256803
vn 0.602953 0.457647 0.653457
vn 0.828569 -0.151807 -0.538914
vn -0.750309 -0.354857 -0.557775
vn 0.912584 -0.306066 -0.271133
vn 0.896922 -0.333528 -0.290327
vn -0.496468 -0.571935 -0.653001
vn -0.828373 0.178339 0.531031
vn -0.933870 0.152971 0.323243
vn 0.646114 0.327738 0.689293
vn 0.564700 0.326930 0.757780
vn 0.828646 -0.112419 -0.548368
vn 0.107372 -0.554831 -0.825005
vn 0.981661 -0.144168 0.124725
vn -0.947579 -0.241765 -0.208912
vn -0.083311 -0.770564 0.631894
vn -0.077422 -0.772244 0.630591
vn -0.679994 0.687733 -0.254228
vn -0.644922 -0.186470 -0.741151
vn 0.671838 0.740548 0.014916
vn -0.631577 0.749950 -0.196686
vn 0.867165 0.472435 -0.157574
vn -0.074555 -0.752880 0.653922
vn -0.084798 -0.744298 0.662442
vn -0.561194 0.747090 -0.356255
vn -0.081484 0.896410 0.435670
vn 0.781400 0.495779 -0.378968
vn -0.416636 -0.905430 0.081313

f 1/1/1 2/2/1 3/3/1
f 4/4/2 5/5/2 6/6/2
f 4/4/3 6/7/3 7/8/3
f 5/9/4 8/10/4 9/11/4
f 10/12/5 11/13/5 9/14/5
f 6/6/6 11/15/6 7/8/6
f 6/6/7 12/16/7 11/13/7
f 12/17/8 5/5/8 9/14/8
f 6/6/9 5/5/9 12/17/9
f 11/13/10 12/18/10 9/19/10
f 13/20/11 14/21/11 15/22/11
f 14/21/12 13/20/12 16/23/12
f 16/24/13 13/20/13 17/25/13
f 15/22/14 14/21/14 18/26/14
f 14/21/15 19/27/15 18/26/15
f 18/26/16 20/28/16 21/29/16
f 18/26/17 19/27/17 20/28/17
f 20/28/18 3/30/18 21/29/18
f 5/9/19 22/31/19 23/32/19
f 24/33/20 25/34/20 26/35/20
f 27/36/21 25/34/21 9/37/21
f 28/38/22 27/39/22 29/40/22
f 30/41/23 25/34/23 24/33/23
f 25/34/24 30/41/24 10/42/24
f 30/41/25 24/33/25 31/43/25
f 24/33/26 26/44/26 32/45/26
f 33/46/27 34/47/27 5/9/27
f 4/4/28 22/31/28 5/9/28
f 26/35/29 25/34/29 27/39/29
f 33/46/30 35/48/30 34/47/30
f 32/45/31 26/35/31 28/38/31
f 23/32/32 33/46/32 5/9/32
f 26/35/33 27/39/33 28/38/33
f 28/38/34 29/40/34 36/49/34
f 35/50/35 37/51/35 29/40/35
f 28/38/36 38/52/36 32/45/36
f 36/49/37 38/52/37 28/38/37
f 36/49/38 37/53/38 39/54/38
f 39/55/39 37/56/39 40/57/39
f 41/58/40 42/59/40 39/55/40
f 39/55/41 40/57/41 41/58/41
f 36/49/42 29/40/42 37/51/42
f 37/56/43 35/48/43 33/46/43
f 37/56/44 33/46/44 40/57/44
f 40/57/45 33/46/45 43/60/45
f 40/57/46 43/60/46 41/58/46
f 33/46/47 23/32/47 43/60/47
f 44/61/48 45/62/48 30/63/48
f 15/64/49 46/65/49 45/62/49
f 46/66/50 47/67/50 10/68/50
f 47/67/51 7/69/51 11/70/51
f 45/62/52 44/61/52 17/71/52
f 44/61/53 30/63/53 31/72/53
f 13/73/54 15/64/54 45/62/54
f 46/65/55 10/74/55 45/62/55
f 45/62/56 10/74/56 30/63/56
f 47/67/57 11/70/57 10/68/57
f 47/67/58 48/75/58 7/69/58
f 46/66/59 15/76/59 47/67/59
f 18/77/60 47/67/60 15/76/60
f 47/67/61 18/77/61 48/75/61
f 18/77/62 21/78/62 48/75/62
f 13/73/63 45/62/63 17/71/63
f 49/79/64 35/50/64 29/40/64
f 8/80/65 27/81/65 9/82/65
f 34/47/66 50/83/66 5/84/66
f 27/36/67 49/79/67 29/40/67
f 35/48/68 51/85/68 52/86/68
f 35/50/69 49/79/69 51/87/69
f 52/86/70 50/83/70 34/47/70
f 35/48/71 52/86/71 34/47/71
f 5/84/72 50/83/72 8/10/72
f 53/88/73 27/81/73 8/80/73
f 53/88/74 49/79/74 27/36/74
f 54/89/75 55/90/75 56/91/75
f 57/92/76 55/90/76 58/93/76
f 59/94/77 60/95/77 55/90/77
f 61/96/78 54/89/78 56/91/78
f 39/97/79 61/96/79 36/98/79
f 36/98/80 61/96/80 56/91/80
f 36/98/81 56/91/81 38/99/81
f 62/100/82 63/101/82 64/102/82
f 65/103/83 64/102/83 54/89/83
f 61/96/84 65/103/84 54/89/84
f 66/104/85 67/105/85 62/100/85
f 55/90/86 60/95/86 68/106/86
f 69/107/87 68/106/87 60/95/87
f 69/107/88 70/108/88 68/106/88
f 58/109/89 55/90/89 68/106/89
f 68/106/90 71/110/90 58/111/90
f 62/100/91 67/105/91 63/101/91
f 64/102/92 63/101/92 69/107/92
f 70/108/93 71/110/93 68/106/93
f 58/111/94 71/110/94 72/112/94
f 56/91/95 57/92/95 38/113/95
f 55/90/96 57/114/96 56/91/96
f 73/115/97 74/116/97 38/113/97
f 58/109/98 72/112/98 73/115/98
f 57/117/99 58/111/99 73/115/99
f 57/92/100 73/115/100 38/113/100
f 73/115/101 72/112/101 74/116/101
f 39/97/102 75/118/102 61/96/102
f 75/118/103 39/97/103 76/119/103
f 64/102/104 59/94/104 54/89/104
f 64/102/105 60/95/105 59/94/105
f 54/89/106 59/94/106 55/90/106
f 64/102/107 69/107/107 60/95/107
f 65/103/108 66/104/108 62/100/108
f 65/103/109 61/96/109 75/118/109
f 75/118/110 76/119/110 65/103/110
f 66/104/111 65/103/111 76/119/111
f 62/100/112 64/102/112 65/103/112
f 39/97/113 42/120/113 76/119/113
f 77/121/114 76/119/114 42/120/114
f 67/105/115 76/119/115 77/121/115
f 66/104/116 76/119/116 67/105/116
f 9/82/117 25/34/117 10/42/117
f 51/122/118 49/123/118 78/124/118
f 79/125/119 50/126/119 52/127/119
f 52/127/120 51/122/120 79/125/120
f 80/128/121 81/129/121 53/130/121
f 51/122/122 78/124/122 79/125/122
f 82/131/123 50/126/123 79/125/123
f 50/126/124 82/131/124 8/132/124
f 53/133/125 78/124/125 49/123/125
f 83/134/126 84/135/126 85/136/126
f 84/135/127 83/134/127 86/137/127
f 86/137/128 87/138/128 84/135/128
f 88/139/129 84/135/129 87/138/129
f 87/138/130 89/140/130 88/139/130
f 90/141/131 88/139/131 89/140/131
f 91/142/132 92/143/132 90/141/132
f 90/141/133 89/140/133 91/142/133
f 85/136/134 92/144/134 91/145/134
f 91/145/135 83/134/135 85/136/135
f 80/128/136 93/146/136 83/134/136
f 94/147/137 83/134/137 93/146/137
f 93/146/138 87/138/138 94/147/138
f 87/138/139 93/146/139 95/148/139
f 95/148/140 96/149/140 87/138/140
f 89/140/141 87/138/141 96/149/141
f 97/150/142 91/142/142 89/140/142
f 97/151/143 81/129/143 80/128/143
f 8/132/144 82/131/144 80/128/144
f 93/146/145 80/128/145 98/152/145
f 98/152/146 95/148/146 93/146/146
f 95/148/147 82/131/147 79/125/147
f 79/125/148 78/124/148 95/148/148
f 96/149/149 95/148/149 78/124/149
f 78/124/150 53/133/150 81/153/150
f 81/153/151 96/149/151 78/124/151
f 80/128/152 53/130/152 8/154/152
f 94/147/153 87/138/153 86/137/153
f 86/137/154 83/134/154 94/147/154
f 97/151/155 83/134/155 91/145/155
f 89/140/156 96/149/156 97/150/156
f 80/128/157 83/134/157 97/151/157
f 81/153/158 97/150/158 96/149/158
f 82/131/159 95/148/159 98/152/159
f 98/152/160 80/128/160 82/131/160
f 85/136/161 99/155/161 100/156/161
f 99/155/162 85/136/162 84/135/162
f 84/135/163 101/157/163 99/155/163
f 101/157/164 84/135/164 88/139/164
f 88/139/165 90/141/165 101/157/165
f 102/158/166 101/157/166 90/141/166
f 90/141/167 103/159/167 102/158/167
f 103/159/168 90/141/168 92/143/168
f 92/144/169 85/136/169 103/160/169
f 100/156/170 103/160/170 85/136/170
f 104/161/171 105/162/171 106/163/171
f 107/164/172 106/163/172 108/165/172
f 109/166/173 110/167/173 103/168/173
f 109/166/174 111/169/174 104/161/174
f 104/161/175 110/167/175 109/166/175
f 104/161/176 111/169/176 112/170/176
f 113/171/177 112/170/177 111/169/177
f 106/163/178 110/167/178 104/161/178
f 104/161/179 112/170/179 105/162/179
f 105/172/180 113/173/180 111/174/180
f 113/173/181 105/172/181 112/175/181
f 105/172/182 111/174/182 109/176/182
f 109/176/183 106/177/183 105/172/183
f 109/176/184 100/178/184 106/177/184
f 103/179/185 100/178/185 109/176/185
f 102/180/186 103/168/186 110/167/186
f 106/163/187 114/181/187 108/165/187
f 115/182/188 116/183/188 106/177/188
f 116/184/189 117/185/189 118/186/189
f 108/165/190 114/181/190 119/187/190
f 119/187/191 120/188/191 108/165/191
f 118/189/192 121/190/192 114/191/192
f 114/191/193 121/190/193 117/192/193
f 116/193/194 115/194/194 119/187/194
f 120/188/195 119/187/195 115/194/195
f 121/195/196 118/186/196 117/185/196
f 108/165/197 101/196/197 102/180/197
f 115/182/198 106/177/198 100/178/198
f 100/178/199 99/197/199 115/182/199
f 120/188/200 99/198/200 101/196/200
f 106/163/201 107/164/201 110/167/201
f 108/165/202 120/188/202 101/196/202
f 120/188/203 115/194/203 99/198/203
f 107/164/204 102/180/204 110/167/204
f 102/180/205 107/164/205 108/165/205
f 118/199/206 106/177/206 116/183/206
f 114/181/207 106/163/207 118/200/207
f 114/191/208 117/192/208 119/201/208
f 117/192/209 116/202/209 119/201/209
f 122/203/210 123/204/210 124/205/210
f 125/206/211 126/207/211 123/208/211
f 125/206/212 123/208/212 127/209/212
f 125/210/213 128/211/213 126/212/213
f 128/211/214 129/213/214 126/212/214
f 128/214/215 124/215/215 129/216/215
f 122/217/216 124/215/216 128/214/216
f 130/218/217 128/211/217 125/219/217
f 131/220/218 122/221/218 130/222/218
f 132/223/219 125/224/219 127/225/219
f 132/226/220 131/227/220 125/219/220
f 133/228/221 131/227/221 132/226/221
f 133/229/222 122/221/222 131/220/222
f 130/218/223 125/219/223 131/227/223
f 128/214/224 130/222/224 122/221/224
f 127/209/225 123/204/225 122/203/225
f 16/230/226 133/228/226 14/231/226
f 16/232/227 3/3/227 133/229/227
f 14/231/228 133/228/228 132/226/228
f 14/233/229 132/223/229 19/234/229
f 132/223/230 127/225/230 19/234/230
f 20/235/231 19/234/231 127/225/231
f 20/235/232 127/225/232 122/236/232
f 3/3/233 122/221/233 133/229/233
f 3/237/234 20/235/234 122/236/234
f 134/238/235 135/239/235 136/240/235
f 137/241/236 135/242/236 134/243/236
f 138/244/237 139/245/237 137/246/237
f 138/247/238 136/248/238 139/249/238
f 134/238/239 136/240/239 123/208/239
f 138/247/240 123/250/240 136/248/240
f 123/250/241 138/247/241 124/251/241
f 134/238/242 123/208/242 126/252/242
f 129/253/243 134/243/243 126/254/243
f 137/241/244 134/243/244 129/253/244
f 138/244/245 137/246/245 129/255/245
f 138/244/246 129/255/246 124/256/246
f 136/257/247 140/258/247 139/259/247
f 136/257/248 141/260/248 140/258/248
f 142/261/249 139/259/249 140/258/249
f 135/262/250 143/263/250 141/260/250
f 141/264/251 143/265/251 142/266/251
f 142/266/252 140/267/252 141/264/252
f 137/268/253 143/263/253 135/262/253
f 135/262/254 141/260/254 136/257/254
f 139/259/255 142/261/255 137/268/255
f 137/268/256 144/269/256 143/263/256
f 137/268/257 142/261/257 144/269/257
f 143/265/258 145/270/258 146/271/258
f 146/271/259 142/266/259 143/265/259
f 143/263/260 144/269/260 145/272/260
f 144/269/261 146/273/261 145/272/261
f 146/273/262 144/269/262 142/261/262
f 3/274/263 16/275/263 17/276/263
f 147/5/264 4/4/264 148/6/264
f 148/7/265 4/4/265 7/8/265
f 149/10/266 147/9/266 150/11/266
f 151/13/267 152/12/267 150/14/267
f 151/15/268 148/6/268 7/8/268
f 153/16/269 148/6/269 151/13/269
f 147/5/270 153/17/270 150/14/270
f 147/5/271 148/6/271 153/17/271
f 153/18/272 151/13/272 150/19/272
f 154/21/273 155/20/273 156/22/273
f 155/20/274 154/21/274 157/23/274
f 155/20/275 157/24/275 17/25/275
f 154/21/276 156/22/276 158/26/276
f 159/27/277 154/21/277 158/26/277
f 160/28/278 158/26/278 21/29/278
f 159/27/279 158/26/279 160/28/279
f 3/30/280 160/28/280 21/29/280
f 22/31/281 147/9/281 23/32/281
f 161/34/282 24/33/282 162/35/282
f 161/34/283 163/36/283 150/37/283
f 163/39/284 164/38/284 165/40/284
f 161/34/285 166/41/285 24/33/285
f 166/41/286 161/34/286 152/42/286
f 24/33/287 166/41/287 31/43/287
f 162/44/288 24/33/288 32/45/288
f 167/47/289 168/46/289 147/9/289
f 22/31/290 4/4/290 147/9/290
f 161/34/291 162/35/291 163/39/291
f 169/48/292 168/46/292 167/47/292
f 162/35/293 32/45/293 164/38/293
f 168/46/294 23/32/294 147/9/294
f 163/39/295 162/35/295 164/38/295
f 165/40/296 164/38/296 170/49/296
f 171/51/297 169/50/297 165/40/297
f 38/52/298 164/38/298 32/45/298
f 38/52/299 170/49/299 164/38/299
f 171/53/300 170/49/300 172/54/300
f 171/56/301 172/55/301 173/57/301
f 42/59/302 41/58/302 172/55/302
f 173/57/303 172/55/303 41/58/303
f 165/40/304 170/49/304 171/51/304
f 169/48/305 171/56/305 168/46/305
f 168/46/306 171/56/306 173/57/306
f 168/46/307 173/57/307 43/60/307
f 43/60/308 173/57/308 41/58/308
f 23/32/309 168/46/309 43/60/309
f 174/62/310 44/61/310 166/63/310
f 175/65/311 156/64/311 174/62/311
f 176/67/312 175/66/312 152/68/312
f 7/69/313 176/67/313 151/70/313
f 44/61/314 174/62/314 17/71/314
f 166/63/315 44/61/315 31/72/315
f 156/64/316 155/73/316 174/62/316
f 152/74/317 175/65/317 174/62/317
f 152/74/318 174/62/318 166/63/318
f 151/70/319 176/67/319 152/68/319
f 48/75/320 176/67/320 7/69/320
f 156/76/321 175/66/321 176/67/321
f 176/67/322 158/77/322 156/76/322
f 158/77/323 176/67/323 48/75/323
f 21/78/324 158/77/324 48/75/324
f 174/62/325 155/73/325 17/71/325
f 169/50/326 177/79/326 165/40/326
f 163/81/327 149/80/327 150/82/327
f 178/83/328 167/47/328 147/84/328
f 177/79/329 163/36/329 165/40/329
f 179/85/330 169/48/330 180/86/330
f 177/79/331 169/50/331 179/87/331
f 178/83/332 180/86/332 167/47/332
f 180/86/333 169/48/333 167/47/333
f 178/83/334 147/84/334 149/10/334
f 163/81/335 181/88/335 149/80/335
f 177/79/336 181/88/336 163/36/336
f 182/90/337 183/89/337 184/91/337
f 182/90/338 185/92/338 186/93/338
f 187/95/339 188/94/339 182/90/339
f 183/89/340 189/96/340 184/91/340
f 189/96/341 172/97/341 170/98/341
f 189/96/342 170/98/342 184/91/342
f 184/91/343 170/98/343 38/99/343
f 63/101/344 190/100/344 191/102/344
f 191/102/345 192/103/345 183/89/345
f 192/103/346 189/96/346 183/89/346
f 67/105/347 193/104/347 190/100/347
f 187/95/348 182/90/348 194/106/348
f 194/106/349 69/107/349 187/95/349
f 70/108/350 69/107/350 194/106/350
f 182/90/351 186/109/351 194/106/351
f 71/110/352 194/106/352 186/111/352
f 67/105/353 190/100/353 63/101/353
f 63/101/354 191/102/354 69/107/354
f 71/110/355 70/108/355 194/106/355
f 71/110/356 186/111/356 72/112/356
f 185/92/357 184/91/357 38/113/357
f 185/114/358 182/90/358 184/91/358
f 74/116/359 195/115/359 38/113/359
f 72/112/360 186/109/360 195/115/360
f 186/111/361 185/117/361 195/115/361
f 195/115/362 185/92/362 38/113/362
f 72/112/363 195/115/363 74/116/363
f 196/118/364 172/97/364 189/96/364
f 172/97/365 196/118/365 197/119/365
f 188/94/366 191/102/366 183/89/366
f 187/95/367 191/102/367 188/94/367
f 188/94/368 183/89/368 182/90/368
f 69/107/369 191/102/369 187/95/369
f 193/104/370 192/103/370 190/100/370
f 189/96/371 192/103/371 196/118/371
f 197/119/372 196/118/372 192/103/372
f 192/103/373 193/104/373 197/119/373
f 191/102/374 190/100/374 192/103/374
f 42/120/375 172/97/375 197/119/375
f 197/119/376 77/121/376 42/120/376
f 197/119/377 67/105/377 77/121/377
f 197/119/378 193/104/378 67/105/378
f 161/34/379 150/82/379 152/42/379
f 177/123/380 179/122/380 198/124/380
f 178/126/381 199/125/381 180/127/381
f 179/122/382 180/127/382 199/125/382
f 200/129/383 201/128/383 181/130/383
f 198/124/384 179/122/384 199/125/384
f 178/126/385 202/131/385 199/125/385
f 202/131/386 178/126/386 149/132/386
f 198/124/387 181/133/387 177/123/387
f 203/135/388 204/134/388 205/136/388
f 204/134/389 203/135/389 206/137/389
f 207/138/390 206/137/390 203/135/390
f 203/135/391 208/139/391 207/138/391
f 209/140/392 207/138/392 208/139/392
f 208/139/393 210/141/393 209/140/393
f 211/143/394 212/142/394 210/141/394
f 209/140/395 210/141/395 212/142/395
f 211/144/396 205/136/396 212/145/396
f 204/134/397 212/145/397 205/136/397
f 213/146/398 201/128/398 204/134/398
f 204/134/399 214/147/399 213/146/399
f 207/138/400 213/146/400 214/147/400
f 213/146/401 207/138/401 215/148/401
f 216/149/402 215/148/402 207/138/402
f 207/138/403 209/140/403 216/149/403
f 212/142/404 217/150/404 209/140/404
f 200/129/405 217/151/405 201/128/405
f 202/131/406 149/132/406 201/128/406
f 201/128/407 213/146/407 218/152/407
f 215/148/408 218/152/408 213/146/408
f 202/131/409 215/148/409 199/125/409
f 198/124/410 199/125/410 215/148/410
f 215/148/411 216/149/411 198/124/411
f 181/133/412 198/124/412 200/153/412
f 216/149/413 200/153/413 198/124/413
f 181/130/414 201/128/414 149/154/414
f 207/138/415 214/147/415 206/137/415
f 204/134/416 206/137/416 214/147/416
f 204/134/417 217/151/417 212/145/417
f 216/149/418 209/140/418 217/150/418
f 204/134/419 201/128/419 217/151/419
f 217/150/420 200/153/420 216/149/420
f 215/148/421 202/131/421 218/152/421
f 201/128/422 218/152/422 202/131/422
f 219/155/423 205/136/423 220/156/423
f 205/136/424 219/155/424 203/135/424
f 221/157/425 203/135/425 219/155/425
f 203/135/426 221/157/426 208/139/426
f 210/141/427 208/139/427 221/157/427
f 221/157/428 222/158/428 210/141/428
f 223/159/429 210/141/429 222/158/429
f 210/141/430 223/159/430 211/143/430
f 205/136/431 211/144/431 223/160/431
f 223/160/432 220/156/432 205/136/432
f 224/162/433 225/161/433 226/163/433
f 226/163/434 227/164/434 228/165/434
f 229/167/435 230/166/435 223/168/435
f 231/169/436 230/166/436 225/161/436
f 229/167/437 225/161/437 230/166/437
f 231/169/438 225/161/438 232/170/438
f 232/170/439 233/171/439 231/169/439
f 229/167/440 226/163/440 225/161/440
f 232/170/441 225/161/441 224/162/441
f 233/173/442 224/172/442 231/174/442
f 224/172/443 233/173/443 232/175/443
f 231/174/444 224/172/444 230/176/444
f 226/177/445 230/176/445 224/172/445
f 220/178/446 230/176/446 226/177/446
f 220/178/447 223/179/447 230/176/447
f 223/168/448 222/180/448 229/167/448
f 234/181/449 226/163/449 228/165/449
f 235/183/450 236/182/450 226/177/450
f 237/185/451 235/184/451 238/186/451
f 234/181/452 228/165/452 239/187/452
f 240/188/453 239/187/453 228/165/453
f 241/190/454 238/189/454 234/191/454
f 241/190/455 234/191/455 237/192/455
f 236/194/456 235/193/456 239/187/456
f 239/187/457 240/188/457 236/194/457
f 238/186/458 241/195/458 237/185/458
f 221/196/459 228/165/459 222/180/459
f 226/177/460 236/182/460 220/178/460
f 219/197/461 220/178/461 236/182/461
f 219/198/462 240/188/462 221/196/462
f 227/164/463 226/163/463 229/167/463
f 240/188/464 228/165/464 221/196/464
f 236/194/465 240/188/465 219/198/465
f 222/180/466 227/164/466 229/167/466
f 227/164/467 222/180/467 228/165/467
f 226/177/468 238/199/468 235/183/468
f 226/163/469 234/181/469 238/200/469
f 237/192/470 234/191/470 239/201/470
f 235/202/471 237/192/471 239/201/471
f 242/204/472 243/203/472 244/205/472
f 245/207/473 246/206/473 242/208/473
f 242/208/474 246/206/474 247/209/474
f 248/211/475 246/210/475 245/212/475
f 249/213/476 248/211/476 245/212/476
f 244/215/477 248/214/477 249/216/477
f 244/215/478 243/217/478 248/214/478
f 248/211/479 250/218/479 246/219/479
f 243/221/480 251/220/480 250/222/480
f 246/224/481 252/223/481 247/225/481
f 251/227/482 252/226/482 246/219/482
f 251/227/483 253/228/483 252/226/483
f 243/221/484 253/229/484 251/220/484
f 246/219/485 250/218/485 251/227/485
f 250/222/486 248/214/486 243/221/486
f 242/204/487 247/209/487 243/203/487
f 253/228/488 157/230/488 154/231/488
f 3/3/489 157/232/489 253/229/489
f 253/228/490 154/231/490 252/226/490
f 252/223/491 154/233/491 159/234/491
f 247/225/492 252/223/492 159/234/492
f 159/234/493 160/235/493 247/225/493
f 247/225/494 160/235/494 243/236/494
f 243/221/495 3/3/495 253/229/495
f 160/235/496 3/237/496 243/236/496
f 254/239/497 255/238/497 256/240/497
f 254/242/498 257/241/498 255/243/498
f 258/245/499 259/244/499 257/246/499
f 256/248/500 259/247/500 258/249/500
f 256/240/501 255/238/501 242/208/501
f 242/250/502 259/247/502 256/248/502
f 259/247/503 242/250/503 244/251/503
f 242/208/504 255/238/504 245/252/504
f 255/243/505 249/253/505 245/254/505
f 255/243/506 257/241/506 249/253/506
f 257/246/507 259/244/507 249/255/507
f 249/255/508 259/244/508 244/256/508
f 260/258/509 256/257/509 258/259/509
f 261/260/510 256/257/510 260/258/510
f 258/259/511 262/261/511 260/258/511
f 263/263/512 254/262/512 261/260/512
f 263/265/513 261/264/513 262/266/513
f 260/267/514 262/266/514 261/264/514
f 263/263/515 257/268/515 254/262/515
f 261/260/516 254/262/516 256/257/516
f 262/261/517 258/259/517 257/268/517
f 264/269/518 257/268/518 263/263/518
f 262/261/519 257/268/519 264/269/519
f 265/270/520 263/265/520 266/271/520
f 262/266/521 266/271/521 263/265/521
f 264/269/522 263/263/522 265/272/522
f 266/273/523 264/269/523 265/272/523
f 264/269/524 266/273/524 262/261/524
f 157/275/525 3/274/525 17/276/525

o 
usemtl axe.001
s off

v 17.844049 82.212334 9.824450
v 15.272230 75.481659 11.130019
v 21.833370 81.419998 17.342089
v 19.899330 78.784210 16.640751
v 22.603340 80.398392 19.058229
v 20.669291 77.762589 18.356890
v 24.254711 73.706528 24.112871
v 19.284290 70.158394 20.072290
v 21.615170 87.351753 11.191960
v 28.025829 78.845940 25.480370
v 26.585600 90.899895 15.232530
v 23.767441 84.055817 18.043430
v 24.537399 83.034180 19.759560
v 30.597651 85.576614 24.174801
v 21.332491 78.024094 15.545259
v 23.266541 80.659882 16.246590
v 22.102449 77.002495 17.261389
v 24.036501 79.638283 17.962730
v 25.200592 83.295677 16.947929
v 25.970558 82.274078 18.664070
v 0.599740 52.482101 9.642240
v 1.369710 51.460491 11.358380
v 2.802870 50.700378 10.262880
v 2.032910 51.721989 8.546740
v 28.941811 88.715508 19.830650
v -18.752920 24.036720 4.061400
v -17.375891 23.377720 2.886200
v -18.089720 24.298220 1.249770
v -19.522890 25.058329 2.345260

vt 0.033358 0.643728
vt 0.190411 0.923560
vt 0.402692 0.503812
vt 0.402692 0.647326
vt 0.408249 0.287497
vt 0.408249 0.367848
vt 0.492649 0.287497
vt 0.492649 0.367848
vt 0.403043 0.503812
vt 0.403044 0.647326
vt 0.033710 0.643728
vt 0.190763 0.923560
vt 0.033358 0.363896
vt 0.033710 0.363896
vt 0.190411 0.084064
vt 0.402692 0.360297
vt 0.408249 0.207147
vt 0.492649 0.207147
vt 0.403043 0.360297
vt 0.190763 0.084064
vt 0.408248 1.036942
vt 0.492649 1.036942
vt 0.483600 0.371280
vt 0.402049 0.371280
vt 0.402049 1.040375
vt 0.483600 1.040375
vt 0.450449 0.037941
vt 0.483600 0.210579
vt 0.402049 0.210579
vt 0.442825 0.041374
vt 0.000000 1.000000

vn -0.794327 0.393320 0.462974
vn -0.791803 0.480756 0.376725
vn -0.732137 0.388305 0.559639
vn -0.681939 0.326194 0.654642
vn -0.717023 0.275078 0.640476
vn -0.771056 0.444437 0.456013
vn -0.732911 0.493931 0.467840
vn -0.639110 0.278163 0.717052
vn -0.660254 0.378154 0.648894
vn 0.639109 -0.278161 -0.717054
vn 0.660255 -0.378154 -0.648894
vn 0.732136 -0.388308 -0.559637
vn 0.732911 -0.493931 -0.467840
vn 0.771055 -0.444438 -0.456014
vn 0.681939 -0.326194 -0.654643
vn 0.717023 -0.275079 -0.640477
vn 0.794326 -0.393320 -0.462974
vn 0.791803 -0.480757 -0.376724
vn -0.037119 -0.843120 0.536444
vn -0.626439 -0.061198 -0.777065
vn 0.037117 0.843121 -0.536441
vn 0.626441 0.061196 0.777062
vn -0.359716 0.477279 -0.801754
vn 0.359718 -0.477280 0.801752
vn -0.645524 0.493141 0.583190
vn 0.804802 -0.276074 -0.525431
vn 0.442553 -0.353400 0.824169
vn -0.268708 0.590319 -0.761130
vn 0.383371 -0.491760 0.781792
vn 0.734903 -0.392825 -0.552816
vn -0.572897 -0.795465 -0.197546
vn -0.566732 -0.794370 -0.218612

f 267/277/526 268/278/526 269/279/526
f 270/280/527 269/279/527 268/278/527
f 269/281/528 270/282/528 271/283/528
f 272/284/528 271/283/528 270/282/528
f 271/285/529 272/286/529 273/287/529
f 274/288/530 273/287/530 272/286/530
f 275/289/531 267/277/531 269/279/531
f 273/287/529 276/290/529 271/285/529
f 277/291/532 275/289/532 278/292/532
f 269/279/531 278/292/531 275/289/531
f 278/293/528 269/281/528 279/294/528
f 271/283/528 279/294/528 269/281/528
f 279/295/533 271/285/533 280/296/533
f 276/290/534 280/296/534 271/285/534
f 281/280/535 268/278/535 282/279/535
f 267/277/536 282/279/536 268/278/536
f 283/284/537 281/282/537 284/283/537
f 282/281/537 284/283/537 281/282/537
f 274/288/538 283/286/538 273/287/538
f 284/285/539 273/287/539 283/286/539
f 282/279/540 267/277/540 275/289/540
f 273/287/539 284/285/539 276/290/539
f 282/279/540 275/289/540 285/292/540
f 277/291/541 285/292/541 275/289/541
f 284/283/537 282/281/537 286/294/537
f 285/293/537 286/294/537 282/281/537
f 276/290/542 284/285/542 280/296/542
f 286/295/543 280/296/543 284/285/543
f 270/280/544 268/278/544 281/280/544
f 283/286/545 274/288/545 272/286/545
f 279/295/546 280/296/546 286/295/546
f 285/292/547 277/291/547 278/292/547
f 272/284/528 270/282/528 287/297/528
f 287/297/528 288/298/528 272/284/528
f 281/282/537 283/284/537 289/298/537
f 289/298/537 290/297/537 281/282/537
f 270/299/548 281/300/548 290/301/548
f 290/301/548 287/302/548 270/299/548
f 283/300/549 272/299/549 288/302/549
f 288/302/549 289/301/549 283/300/549
f 278/293/550 279/294/550 291/303/550
f 286/294/551 285/293/551 291/303/551
f 279/304/552 286/305/552 291/306/552
f 285/305/553 278/304/553 291/306/553
f 289/298/554 288/297/554 292/298/554 293/307/554
f 287/297/548 290/298/548 294/297/548 295/307/548
f 290/297/555 289/298/555 293/297/555 294/307/555
f 288/298/528 287/297/528 295/298/528 292/307/528
f 294/297/556 293/298/556 295/297/556
f 292/298/557 295/297/557 293/298/557

