mtllib anim_barb_attack_axeonly_000016.mtl

o fat
usemtl axe.001
s off

v 22.782490 80.401413 -4.703940
v 18.442461 77.413910 0.381300
v 23.121651 87.160126 0.517370
v 21.086819 84.766090 1.661000
v 22.882568 88.239029 2.350540
v 20.847740 85.844994 3.494160
v 20.791920 89.384270 10.558769
v 17.196680 83.035744 9.933320
v 26.750122 85.069435 -6.933840
v 24.759560 94.052284 8.328870
v 30.345360 91.417961 -6.308390
v 25.156500 89.554176 -0.626250
v 24.917419 90.633072 1.206910
v 29.099579 97.039803 3.243630
v 22.624630 83.820633 2.418010
v 24.659470 86.214668 1.274380
v 22.385550 84.899536 4.251160
v 24.420391 87.293564 3.107550
v 26.694309 88.608704 0.130770
v 26.455231 89.687614 1.963920
v 0.781550 60.876442 13.073010
v 0.542460 61.955341 14.906170
v 2.080280 61.009869 15.663180
v 1.085580 61.055962 13.189330
v 30.090908 94.662361 -1.739460
v -20.610069 37.041290 26.822418
v -19.123100 36.158958 27.429680
v -18.832230 35.017609 25.746552
v -20.371052 35.961590 24.989719

vt 0.033358 0.643728
vt 0.190411 0.923560
vt 0.402692 0.503812
vt 0.402692 0.647326
vt 0.408249 0.287497
vt 0.408249 0.367848
vt 0.492649 0.287497
vt 0.492649 0.367848
vt 0.403043 0.503812
vt 0.403044 0.647326
vt 0.033710 0.643728
vt 0.190763 0.923560
vt 0.033358 0.363896
vt 0.033710 0.363896
vt 0.190411 0.084064
vt 0.402692 0.360297
vt 0.408249 0.207147
vt 0.492649 0.207147
vt 0.403043 0.360297
vt 0.190763 0.084064
vt 0.408248 1.036942
vt 0.492649 1.036942
vt 0.483600 0.371280
vt 0.402049 0.371280
vt 0.402049 1.040375
vt 0.483600 1.040375
vt 0.450449 0.037941
vt 0.483600 0.210579
vt 0.402049 0.210579
vt 0.442825 0.041374
vt 0.000000 1.000000

vn -0.800803 0.390805 -0.453858
vn -0.743996 0.365009 -0.559677
vn -0.785599 0.482991 -0.386721
vn -0.793384 0.541709 -0.277657
vn -0.830469 0.495402 -0.254751
vn -0.765712 0.416834 -0.489831
vn -0.725341 0.461124 -0.511121
vn -0.791406 0.578967 -0.196147
vn -0.759996 0.568785 -0.314468
vn 0.791406 -0.578968 0.196144
vn 0.759995 -0.568786 0.314469
vn 0.785596 -0.482993 0.386727
vn 0.725342 -0.461124 0.511120
vn 0.765710 -0.416838 0.489831
vn 0.793384 -0.541709 0.277657
vn 0.830469 -0.495402 0.254750
vn 0.800803 -0.390804 0.453857
vn 0.743996 -0.365009 0.559677
vn -0.440563 0.002203 0.897719
vn -0.257573 -0.823575 -0.505352
vn 0.440562 -0.002201 -0.897720
vn 0.257576 0.823573 0.505354
vn 0.633240 -0.726021 -0.268142
vn 0.108822 -0.507420 -0.854800
vn 0.575360 -0.695010 -0.431186
vn -0.111693 0.504046 0.856424
vn -0.694329 0.576973 -0.430128
vn 0.861905 -0.379811 0.335950
vn -0.018977 0.605918 0.795301
vn 0.201879 -0.390729 -0.898096
vn -0.093459 0.491575 0.865806
vn 0.170295 -0.534799 -0.827641
vn 0.784492 -0.619395 0.030371
vn -0.786012 0.482428 -0.386586
vn -0.611099 -0.700181 0.369193
vn -0.580105 -0.732643 0.355967

f 1/1/1 2/2/1 3/3/1
f 4/4/2 3/3/2 2/2/2
f 3/5/3 4/6/3 5/7/3
f 6/8/3 5/7/3 4/6/3
f 5/9/4 6/10/4 7/11/4
f 8/12/5 7/11/5 6/10/5
f 9/13/6 1/1/6 3/3/6
f 7/11/4 10/14/4 5/9/4
f 11/15/7 9/13/7 12/16/7
f 3/3/6 12/16/6 9/13/6
f 12/17/3 3/5/3 13/18/3
f 5/7/3 13/18/3 3/5/3
f 13/19/8 5/9/8 14/20/8
f 10/14/9 14/20/9 5/9/9
f 15/4/10 2/2/10 16/3/10
f 1/1/11 16/3/11 2/2/11
f 17/8/12 15/6/12 18/7/12
f 16/5/12 18/7/12 15/6/12
f 8/12/13 17/10/13 7/11/13
f 18/9/14 7/11/14 17/10/14
f 16/3/15 1/1/15 9/13/15
f 7/11/14 18/9/14 10/14/14
f 16/3/15 9/13/15 19/16/15
f 11/15/16 19/16/16 9/13/16
f 18/7/12 16/5/12 20/18/12
f 19/17/12 20/18/12 16/5/12
f 10/14/17 18/9/17 14/20/17
f 20/19/18 14/20/18 18/9/18
f 4/4/19 2/2/19 15/4/19
f 17/10/20 8/12/20 6/10/20
f 13/19/21 14/20/21 20/19/21
f 19/16/22 11/15/22 12/16/22
f 6/8/3 4/6/3 21/21/3
f 21/21/3 22/22/3 6/8/3
f 15/6/12 17/8/12 23/22/12
f 23/22/23 24/21/23 15/6/23
f 4/23/24 15/24/24 24/25/24
f 24/25/25 21/26/25 4/23/25
f 17/24/26 6/23/26 22/26/26
f 22/26/26 23/25/26 17/24/26
f 12/17/27 13/18/27 25/27/27
f 20/18/28 19/17/28 25/27/28
f 13/28/29 20/29/29 25/30/29
f 19/29/30 12/28/30 25/30/30
f 23/22/31 22/21/31 26/22/31 27/31/31
f 21/21/32 24/22/32 28/21/32 29/31/32
f 24/21/33 23/22/33 27/21/33 28/31/33
f 22/22/34 21/21/34 29/22/34 26/31/34
f 28/21/35 27/22/35 29/21/35
f 26/22/36 29/21/36 27/22/36

