mtllib anim_barb_attack_axeonly_000012.mtl

o fat
usemtl axe.001
s off

v 26.504709 74.808815 5.009210
v 21.167620 71.391350 8.677600
v 26.951672 79.974518 11.804280
v 24.498070 77.719337 12.076050
v 26.596680 80.603569 13.819210
v 24.143070 78.348381 14.090990
v 23.549070 80.046227 21.785332
v 19.317860 74.669144 19.176771
v 31.288870 79.206078 4.479290
v 28.333229 84.443481 21.255400
v 35.520092 84.583145 7.087830
v 29.405270 82.229706 11.532499
v 29.050282 82.858742 13.547440
v 33.670330 87.860947 17.587009
v 25.787670 76.393539 12.717170
v 28.241270 78.648720 12.445391
v 25.432671 77.022598 14.732090
v 27.886269 79.277756 14.460320
v 30.694859 80.903900 12.173620
v 30.339880 81.532967 14.188540
v 0.014040 55.215321 14.788060
v -0.340950 55.844360 16.802990
v 0.948650 54.518562 17.444111
v 0.330970 55.301098 14.978909
v 35.039471 86.630386 12.288210
v -25.859720 32.372929 19.641369
v -24.607780 31.125391 20.155161
v -24.214520 30.418350 18.267891
v -25.504860 31.743351 17.626579

vt 0.033358 0.643728
vt 0.190411 0.923560
vt 0.402692 0.503812
vt 0.402692 0.647326
vt 0.408249 0.287497
vt 0.408249 0.367848
vt 0.492649 0.287497
vt 0.492649 0.367848
vt 0.403043 0.503812
vt 0.403044 0.647326
vt 0.033710 0.643728
vt 0.190763 0.923560
vt 0.033358 0.363896
vt 0.033710 0.363896
vt 0.190411 0.084064
vt 0.402692 0.360297
vt 0.408249 0.207147
vt 0.492649 0.207147
vt 0.403043 0.360297
vt 0.190763 0.084064
vt 0.408248 1.036942
vt 0.492649 1.036942
vt 0.483600 0.371280
vt 0.402049 0.371280
vt 0.402049 1.040375
vt 0.483600 1.040375
vt 0.450449 0.037941
vt 0.483600 0.210579
vt 0.402049 0.210579
vt 0.442825 0.041374
vt 0.000000 1.000000

vn -0.675852 0.607482 -0.417360
vn -0.608586 0.599486 -0.519846
vn -0.658796 0.677290 -0.327515
vn -0.674266 0.708478 -0.208386
vn -0.719600 0.664316 -0.202141
vn -0.633179 0.635671 -0.441597
vn -0.585089 0.677002 -0.446474
vn -0.678985 0.724234 -0.120266
vn -0.633021 0.738134 -0.233331
vn 0.678986 -0.724234 0.120262
vn 0.633021 -0.738134 0.233331
vn 0.658793 -0.677292 0.327516
vn 0.585090 -0.677002 0.446472
vn 0.633176 -0.635673 0.441597
vn 0.674266 -0.708478 0.208385
vn 0.719599 -0.664316 0.202141
vn 0.675852 -0.607481 0.417361
vn 0.608590 -0.599486 0.519841
vn -0.556758 -0.146133 0.817720
vn -0.285050 -0.627601 -0.724475
vn 0.556757 0.146135 -0.817720
vn 0.285053 0.627598 0.724476
vn 0.571501 -0.729952 -0.374909
vn 0.162469 -0.296984 -0.940959
vn 0.517899 -0.632832 -0.575591
vn -0.165846 0.293882 0.941344
vn -0.551491 0.763704 -0.335580
vn 0.753554 -0.577979 0.313204
vn -0.053694 0.391900 0.918440
vn 0.274237 -0.189192 -0.942868
vn -0.150916 0.276849 0.948988
vn 0.214087 -0.337801 -0.916546
vn 0.690066 -0.722146 -0.048109
vn -0.659102 0.676976 -0.327548
vn -0.736178 -0.669728 0.097505
vn -0.720985 -0.687365 0.087805

f 1/1/1 2/2/1 3/3/1
f 4/4/2 3/3/2 2/2/2
f 3/5/3 4/6/3 5/7/3
f 6/8/3 5/7/3 4/6/3
f 5/9/4 6/10/4 7/11/4
f 8/12/5 7/11/5 6/10/5
f 9/13/6 1/1/6 3/3/6
f 7/11/4 10/14/4 5/9/4
f 11/15/7 9/13/7 12/16/7
f 3/3/6 12/16/6 9/13/6
f 12/17/3 3/5/3 13/18/3
f 5/7/3 13/18/3 3/5/3
f 13/19/8 5/9/8 14/20/8
f 10/14/9 14/20/9 5/9/9
f 15/4/10 2/2/10 16/3/10
f 1/1/11 16/3/11 2/2/11
f 17/8/12 15/6/12 18/7/12
f 16/5/12 18/7/12 15/6/12
f 8/12/13 17/10/13 7/11/13
f 18/9/14 7/11/14 17/10/14
f 16/3/15 1/1/15 9/13/15
f 7/11/14 18/9/14 10/14/14
f 16/3/15 9/13/15 19/16/15
f 11/15/16 19/16/16 9/13/16
f 18/7/12 16/5/12 20/18/12
f 19/17/12 20/18/12 16/5/12
f 10/14/17 18/9/17 14/20/17
f 20/19/18 14/20/18 18/9/18
f 4/4/19 2/2/19 15/4/19
f 17/10/20 8/12/20 6/10/20
f 13/19/21 14/20/21 20/19/21
f 19/16/22 11/15/22 12/16/22
f 6/8/3 4/6/3 21/21/3
f 21/21/3 22/22/3 6/8/3
f 15/6/12 17/8/12 23/22/12
f 23/22/23 24/21/23 15/6/23
f 4/23/24 15/24/24 24/25/24
f 24/25/25 21/26/25 4/23/25
f 17/24/26 6/23/26 22/26/26
f 22/26/26 23/25/26 17/24/26
f 12/17/27 13/18/27 25/27/27
f 20/18/28 19/17/28 25/27/28
f 13/28/29 20/29/29 25/30/29
f 19/29/30 12/28/30 25/30/30
f 23/22/31 22/21/31 26/22/31 27/31/31
f 21/21/32 24/22/32 28/21/32 29/31/32
f 24/21/33 23/22/33 27/21/33 28/31/33
f 22/22/34 21/21/34 29/22/34 26/31/34
f 28/21/35 27/22/35 29/21/35
f 26/22/36 29/21/36 27/22/36

