mtllib anim_barb_attack_000039.mtl

o fat
usemtl fat.001
s off

v -0.137810 33.379299 -9.429540
v 1.860240 36.144421 6.136090
v 0.318890 32.896950 -4.670720
v 0.410170 55.867001 -14.238091
v 9.299520 61.313301 -12.594120
v 2.812830 52.005318 -13.701960
v -0.362600 47.579479 -12.083481
v 7.083070 58.380470 -8.788230
v 7.702180 52.440910 -8.243521
v 6.919220 47.266441 -8.008260
v 4.142630 47.464699 -12.147130
v 6.403020 52.647789 -13.090960
v 9.003670 32.217590 -1.336210
v 9.352560 34.511063 -7.780760
v 10.561490 34.021530 -8.287390
v 6.412280 33.014351 -1.445040
v 3.993900 32.004379 0.955720
v 4.408750 32.853828 -12.977751
v 3.744780 34.415318 -11.838610
v 0.502530 33.534428 -10.637160
v -0.321370 29.857769 -9.345440
v 0.201120 61.441467 -13.414860
v 0.170300 63.411339 -13.180140
v 0.128960 52.512012 -0.849010
v 5.379790 52.733799 -3.320420
v 6.255160 56.670410 -1.629730
v 8.980730 56.838348 -4.070850
v 6.123870 59.436569 -1.175700
v 10.809680 62.043251 -5.922560
v 4.497020 47.887283 -2.068320
v 1.102870 46.319489 -2.083830
v 0.791740 59.012432 0.533380
v 4.825240 65.574432 -9.645680
v 11.058320 61.314621 -10.443710
v 11.384150 62.917946 -7.858640
v 2.905110 64.032043 -1.178660
v 5.512380 65.986099 -5.374580
v 0.171630 63.091003 -0.632670
v 2.663080 69.979301 -2.970930
v 3.279240 68.272842 -6.651390
v 0.247260 68.572021 -7.449330
v 0.175950 70.857170 -4.068640
v 0.334850 66.881264 -9.606560
v 0.489180 42.964439 -0.930510
v 5.364230 43.284790 -1.090090
v 8.418850 42.933041 -6.267560
v 4.990360 42.338600 -11.472640
v -0.188040 42.246799 -13.077980
v 9.997930 63.327690 -5.952020
v 9.567470 57.250908 -9.296850
v 11.853770 61.591450 -5.866340
v 11.979660 60.320393 -8.401240
v 6.455990 63.060242 -5.614730
v 2.581520 68.391258 2.312190
v 1.180830 66.575180 3.729010
v 2.894370 64.394676 0.061920
v 1.639600 62.951004 1.906850
v 0.698310 65.241844 3.415450
v 1.643460 68.547333 3.906390
v -0.144470 68.369568 4.142830
v 3.177320 70.214622 -0.095510
v 0.535690 72.273338 5.017540
v -0.763210 72.173782 5.272990
v 1.701340 69.677513 4.759520
v 2.256590 71.697639 4.109740
v 1.223440 74.103333 2.612570
v -0.414440 74.135498 2.420140
v 0.269850 66.482307 4.244810
v -0.765430 69.047783 4.565640
v -0.900690 66.837524 5.334380
v -0.835060 66.383278 4.605610
v -0.843340 64.826500 4.321500
v 0.535200 62.195629 3.377060
v -0.861440 62.077934 3.852870
v 3.025130 72.505020 0.374470
v 2.543030 73.830360 0.057650
v -0.045170 74.295898 -1.046990
v 10.326380 62.828449 -3.416760
v 11.920990 59.511490 -4.079620
v 4.468480 57.310757 -1.659390
v 5.064480 61.764641 -0.623100
v 8.868650 55.843182 -5.105440
v 4.397930 56.692959 3.194910
v 3.488360 60.096977 7.089060
v 2.623500 59.209770 4.218770
v 7.234000 55.281380 4.787980
v 8.800690 57.828461 4.152540
v 6.252570 60.937263 6.994270
v 7.659930 59.630730 4.664750
v 6.829930 61.858730 5.029040
v 4.873200 59.462162 5.241241
v 4.994120 61.442181 3.048170
v 7.838340 55.690506 1.878990
v 7.674530 55.447868 3.195050
v 11.019530 58.838810 -0.582820
v 9.328569 61.889782 -0.132780
v 5.106140 60.054623 3.490420
v 8.685770 55.225758 -0.897370
v 0.104340 66.439972 6.795710
v -0.182100 66.533333 4.924120
v 1.454010 67.175262 7.063790
v 2.217780 67.767769 5.439440
v 1.439100 67.514000 3.998360
v -0.100510 72.174057 2.247010
v -0.837400 71.950333 2.753120
v -0.320370 71.140587 3.648250
v 0.632210 71.034225 3.772240
v 0.413920 72.009331 5.142330
v 0.001350 69.701660 2.169040
v 0.565030 70.824562 2.779630
v -0.819160 71.673561 1.580980
v -0.997380 73.333733 2.114950
v -1.517550 72.848068 1.663160
v -0.966280 73.763481 5.049350
v -2.740370 69.386269 7.781370
v -3.713960 71.084511 8.014550
v -4.774230 73.808044 7.929730
v -1.315020 73.026161 4.049040
v -2.818860 71.555000 8.314580
v -1.649820 69.992355 8.324841
v -2.922170 75.728279 4.575080
v 3.921370 21.254169 -8.647580
v 7.434260 21.494251 -17.040560
v 5.166050 15.861700 -13.729351
v 9.747220 22.219360 -9.353360
v 12.371840 18.319160 -14.352340
v 6.138400 22.811899 -12.354799
v 8.111240 18.367191 -7.761370
v 9.179430 14.235320 -11.184460
v 7.888690 20.266071 -6.105860
v 7.954080 23.016150 -6.073870
v 10.529190 26.091270 -9.983990
v 7.679520 27.170820 -3.190190
v 11.956320 12.902670 -23.768890
v 13.255139 11.978730 -26.984251
v 10.040081 13.314219 -27.923479
v 11.152069 11.061489 -23.976341
v 8.469669 12.526220 -24.476080
v 8.442780 10.564190 -26.682251
v 9.486071 8.999980 -31.031151
v 12.466001 9.525539 -31.229118
v 10.414341 5.380130 -23.209551
v 16.308121 7.215650 -23.714001
v 13.266931 6.749580 -19.436001
v 16.005119 5.460840 -19.941231
v 12.284360 4.044280 -19.036959
v -9.613379 59.189621 -10.245000
v -1.892230 51.995911 -13.839980
v -6.071290 58.817581 -3.667110
v -7.318430 52.335312 -8.151150
v -4.956670 47.366119 -10.653330
v -6.374790 46.692482 -6.071100
v -5.753590 52.632362 -13.149060
v -9.006149 34.392742 -6.187380
v -7.268280 32.669289 0.051820
v -10.268280 33.766869 -6.180870
v -4.827410 36.311741 -1.240260
v -5.057970 30.323790 -10.196751
v -4.554060 33.207172 -10.695790
v -1.041260 32.075470 -9.762010
v -4.829290 52.612450 -2.998860
v -5.086390 56.425201 -0.749920
v -10.110630 57.390553 -2.745870
v -4.769800 59.159370 -0.132300
v -10.173000 62.890869 -4.434280
v -2.454760 46.200737 -2.001160
v -11.481951 60.463600 -8.857960
v -4.955480 65.469589 -9.308490
v -11.525919 62.889801 -6.323310
v -2.595220 64.005989 -1.156260
v -5.906480 65.747391 -5.541550
v -2.505460 70.085381 -3.451200
v -2.831450 68.320908 -6.884610
v -3.837170 42.880531 -0.235690
v -7.887930 42.540421 -5.515720
v -5.416080 41.294350 -11.332150
v -11.444260 63.749329 -4.494790
v -9.778350 55.694817 -4.955760
v -13.193800 62.018692 -5.607570
v -12.706300 58.322960 -5.705930
v -9.722790 60.361217 -3.149490
v -2.612380 66.668312 3.329320
v -3.597380 68.542969 1.661110
v -3.200620 64.485542 -0.276100
v -2.856860 63.061390 1.433040
v -2.140430 65.311531 3.116330
v -1.316860 68.398354 4.019320
v -3.005530 68.661484 3.416500
v -3.589360 70.380760 -0.808530
v -1.974020 72.334953 4.753070
v -3.184930 69.797470 4.244650
v -3.493930 71.838829 3.503790
v -2.056070 74.183853 2.267030
v -1.834430 66.533981 4.023080
v -2.120930 62.260841 3.097170
v -3.427430 72.663437 -0.305440
v -2.826160 73.962181 -0.508130
v -12.731520 62.724983 -2.408490
v -13.896790 59.266819 -3.355450
v -9.321460 62.187420 2.472300
v -8.125920 57.754688 2.265210
v -10.652309 55.660191 -2.596480
v -8.478060 55.814812 8.344510
v -10.194320 57.578651 6.870020
v -9.810790 59.305748 7.047000
v -13.360670 55.966869 7.064130
v -14.563960 58.310963 5.471310
v -10.640600 55.488438 10.261420
v -13.943900 60.238110 6.319300
v -11.914430 57.876648 11.632820
v -10.993939 60.516289 11.042210
v -11.775940 60.385342 8.130810
v -12.562990 56.076488 4.156800
v -12.960891 56.012539 5.392470
v -14.547811 58.759750 0.223310
v -13.369419 61.985222 1.047660
v -10.868310 60.588230 5.427800
v -12.059000 55.317978 1.465100
v -3.894760 57.105042 14.090870
v -4.275990 58.305000 14.293129
v -5.303080 55.836430 15.011370
v -6.249740 57.271721 15.901279
v -5.820980 58.811432 15.632091
v -2.818430 60.024399 19.862770
v -3.735320 60.556599 20.089790
v -3.185170 59.215103 19.132130
v -4.392170 58.990421 18.955639
v -3.751230 57.631294 19.748520
v -4.541290 59.988560 18.831610
v -4.124800 60.774658 17.820629
v -3.255940 61.376041 19.533171
v -2.672250 60.788342 21.080940
v -2.341830 61.359138 20.556089
v -2.102140 57.881718 21.233009
v 0.157680 55.416267 17.629820
v -0.923340 55.852409 16.229729
v 1.400600 55.110989 20.049889
v -2.136680 58.618088 20.610722
v -0.158020 55.167152 18.435040
v -1.579840 55.026749 17.110661
v -0.166520 58.136360 22.827621
v -6.751060 18.990349 -3.597310
v -3.220660 24.722549 3.582320
v -4.404810 16.841709 0.698250
v -11.643810 18.542759 -0.397980
v -9.070810 25.087841 2.261200
v -5.489470 25.017181 -0.030220
v -7.293360 22.649889 5.056080
v -8.375540 16.309090 3.671100
v -7.160360 24.901831 5.973160
v -6.552380 27.202549 5.195240
v -10.019031 28.377970 1.423990
v -5.989530 33.216232 1.965170
v -12.424550 5.317690 -4.273990
v -11.149830 8.027269 -3.133140
v -9.261070 5.968010 -6.265800
v -10.279400 5.801750 -1.152090
v -7.592890 4.204110 -3.487140
v -7.645580 7.203810 -2.602410
v -8.567080 0.914800 -6.836670
v -11.577710 1.608360 -7.324040
v -9.320570 0.505200 1.576810
v -15.279690 2.045540 0.665840
v -12.191710 3.758820 4.736800
v -14.886820 2.301300 4.897590
v -11.112190 1.521120 6.243690

vt 0.550479 0.485338
vt 0.414517 0.485338
vt 0.489174 0.497239
vt 0.490853 0.675485
vt 0.356970 0.710738
vt 0.458986 0.602657
vt 0.458693 0.603155
vt 0.491001 0.506534
vt 0.357039 0.710738
vt 0.272881 0.708251
vt 0.307767 0.663467
vt 0.329118 0.504113
vt 0.420682 0.504388
vt 0.307693 0.663467
vt 0.420389 0.504181
vt 0.390374 0.619683
vt 0.389206 0.622726
vt 0.390855 0.620128
vt 0.309151 0.663075
vt 0.578845 0.971377
vt 0.529882 0.993867
vt 0.501054 0.950636
vt 0.597833 0.993868
vt 0.684209 0.993870
vt 0.691613 0.940228
vt 0.584242 0.936155
vt 0.602549 0.993867
vt 0.689094 0.993870
vt 0.694409 0.971380
vt 0.730001 0.975635
vt 0.490853 0.781888
vt 0.490853 0.820915
vt 0.240556 0.660920
vt 0.133663 0.660928
vt 0.131880 0.753091
vt 0.060606 0.782384
vt 0.055577 0.663688
vt 0.136145 0.808744
vt 0.060014 0.783494
vt 0.058190 0.859642
vt 0.160773 0.512959
vt 0.067037 0.515196
vt 0.240700 0.512959
vt 0.131877 0.752996
vt 0.240556 0.781375
vt 0.390182 0.870896
vt 0.298691 0.847983
vt 0.294173 0.886121
vt 0.181129 0.899551
vt 0.052544 0.886601
vt 0.145152 0.921474
vt 0.235241 0.891030
vt 0.142740 0.921054
vt 0.172936 0.966074
vt 0.456563 0.999059
vt 0.389917 0.922986
vt 0.429989 0.941889
vt 0.491140 0.942697
vt 0.490646 0.999330
vt 0.490853 0.898039
vt 0.701416 0.118225
vt 0.813217 0.120956
vt 0.790107 0.184348
vt 0.877923 0.002315
vt 0.872775 0.120438
vt 0.505869 0.118716
vt 0.564263 0.119120
vt 0.507564 0.183764
vt 0.697589 0.180917
vt 0.580429 0.182675
vt 0.710756 0.001536
vt 0.701372 0.182427
vt 0.812168 0.002315
vt 0.857243 0.184348
vt 0.697567 0.116528
vt 0.503935 0.000692
vt 0.561277 0.000692
vt 0.688827 -0.000098
vt 0.002866 0.854679
vt 0.027518 0.706813
vt 0.061197 0.782654
vt 0.055608 0.663958
vt 0.251604 0.781884
vt 0.357109 0.710738
vt 0.243886 0.876138
vt 0.247300 0.848527
vt -0.000514 0.880403
vt 0.006948 0.782948
vt 0.674684 0.829607
vt 0.705811 0.784366
vt 0.654033 0.662928
vt 0.703232 0.671848
vt 0.720473 0.730776
vt 0.697736 0.853617
vt 0.729837 0.853035
vt 0.623758 0.856571
vt 0.587609 0.811448
vt 0.658187 0.605708
vt 0.748523 0.593788
vt 0.716351 0.931575
vt 0.747491 0.935506
vt 0.695349 0.885675
vt 0.676247 0.904603
vt 0.649719 0.961956
vt 0.745560 1.001324
vt 0.725611 0.781438
vt 0.747491 0.878462
vt 0.747491 0.808438
vt 0.720379 0.731031
vt 0.747491 0.790807
vt 0.720762 0.730332
vt 0.748639 0.732530
vt 0.746944 0.628012
vt 0.703659 0.671442
vt 0.731857 0.666086
vt 0.747085 0.666819
vt 0.703186 0.671176
vt 0.611291 0.885598
vt 0.604148 0.909350
vt 0.550618 0.823662
vt 0.550618 0.934468
vt 0.625864 0.557513
vt 0.571978 0.557920
vt 0.578607 0.510287
vt 0.669444 0.510287
vt 0.756032 0.560223
vt 0.679695 0.557918
vt 0.877240 0.461159
vt 0.992418 0.461159
vt 0.944262 0.560223
vt 0.756457 0.510287
vt 0.806202 0.560223
vt 0.498275 0.560223
vt 0.875566 0.382888
vt 0.758260 0.308662
vt 0.875912 0.308662
vt 0.759996 0.360654
vt 0.669163 0.382888
vt 0.671223 0.308662
vt 0.584325 0.382888
vt 0.577057 0.308662
vt 0.498223 0.363687
vt 0.498247 0.308662
vt 0.992597 0.308662
vt 0.992439 0.363687
vt 0.759483 0.410364
vt 0.758924 0.382888
vt 0.665903 0.461159
vt 0.580075 0.461159
vt 0.498223 0.402657
vt 0.992438 0.402657
vt 0.760539 0.449273
vt 0.498220 0.461159
vt 0.875438 0.575163
vt 0.762705 0.196431
vt 0.858161 0.196355
vt 0.690657 0.196417
vt 0.588027 0.196417
vt 0.498144 0.196431
vt 0.991918 0.196431
vt 0.375723 0.009258
vt 0.380090 0.017573
vt 0.356438 0.030356
vt 0.342839 0.029458
vt 0.369327 0.043627
vt 0.316032 0.012201
vt 0.336848 0.019568
vt 0.249292 0.041099
vt 0.371147 0.002582
vt 0.416197 0.004791
vt 0.408124 0.000758
vt 0.128136 0.016613
vt 0.154876 0.002573
vt 0.119423 0.002194
vt 0.160447 0.001473
vt 0.065726 0.014292
vt 0.105093 0.028910
vt 0.000825 0.069213
vt 0.000703 0.039244
vt 0.249314 0.055441
vt 0.429228 0.045736
vt 0.102506 0.115410
vt 0.153549 0.117195
vt 0.189513 0.114692
vt 0.228429 0.109580
vt 0.194639 0.033982
vt 0.406548 0.108121
vt 0.355355 0.108206
vt 0.448349 0.035630
vt 0.498209 0.039288
vt 0.461840 0.047992
vt 0.483032 0.114221
vt 0.406174 0.120334
vt 0.355217 0.119080
vt 0.243215 0.037501
vt 0.249314 0.089732
vt 0.000703 0.095058
vt 0.249292 0.105039
vt 0.160984 0.032072
vt 0.413806 0.033644
vt 0.442212 0.108407
vt 0.443088 0.117732
vt 0.023914 0.327327
vt 0.104127 0.227894
vt 0.000784 0.227894
vt 0.216171 0.327327
vt 0.216985 0.228421
vt 0.105699 0.228145
vt 0.104981 0.327662
vt 0.217575 0.327327
vt 0.351490 0.301452
vt 0.217290 0.227894
vt 0.351571 0.227894
vt 0.352420 0.301452
vt 0.489174 0.227894
vt 0.352342 0.227894
vt 0.471690 0.333380
vt 0.351597 0.328057
vt 0.217345 0.328075
vt 0.352312 0.363299
vt 0.470864 0.334174
vt 0.352330 0.328057
vt 0.216660 0.380224
vt 0.216104 0.328075
vt 0.104983 0.328371
vt 0.217232 0.380224
vt 0.351611 0.363299
vt 0.351459 0.420971
vt 0.352499 0.420971
vt 0.351589 0.497239
vt 0.229465 0.497239
vt 0.352627 0.497239
vt 0.229583 0.497239
vt 0.133020 0.497239
vt 0.072972 0.497239
vt 0.025422 0.328212
vt 0.002386 0.497239
vt 0.216130 0.152222
vt 0.223982 0.125749
vt 0.105883 0.155747
vt 0.351732 0.147623
vt 0.223132 0.128232
vt 0.218721 0.149411
vt 0.469070 0.149411
vt 0.483427 0.127273
vt 0.352306 0.146326
vt 0.017963 0.152222
vt 0.104256 0.155747
vt 0.009616 0.131504
vt 0.104128 0.227914
vt 0.000790 0.227921
vt 0.216984 0.228396
vt 0.351571 0.227971
vt 0.217291 0.227882
vt 0.352342 0.227879
vt 0.489111 0.227891
vt 0.948232 0.041698
vt 0.989968 0.003451
vt 0.971575 0.059997
vt 0.909211 0.004273
vt 0.996004 0.120663
vt 0.925604 0.058708
vt 0.885225 0.122889
vt 0.516483 0.798440
vt 0.501430 0.685191
vt 0.597947 0.686709
vt 0.594444 0.793024
vt 0.950876 0.082499
vt 0.943924 0.157220
vt 0.507177 0.624822
vt 0.600053 0.622523
vt 0.901715 0.182549
vt 0.982420 0.184037
vt 0.730212 0.975635
vt 0.685579 0.991654
vt 0.692830 0.969164

vn 0.987688 -0.114673 -0.106412
vn 0.191821 -0.016886 -0.981285
vn -0.162326 -0.234075 -0.958571
vn 0.806538 0.136814 0.575134
vn 0.817850 -0.149020 -0.555800
vn -0.021732 -0.329575 -0.943879
vn 0.207298 -0.262038 -0.942531
vn 0.920386 -0.292784 -0.259167
vn 0.167693 0.000471 -0.985839
vn 0.869636 -0.425002 -0.251209
vn -0.467461 -0.824549 -0.318746
vn -0.263875 -0.904126 -0.336044
vn -0.222012 -0.798502 -0.559558
vn -0.170711 -0.880097 0.443043
vn -0.441371 -0.643730 0.625143
vn 0.528266 0.173623 0.831138
vn 0.413168 -0.415480 0.810351
vn 0.976294 -0.216340 0.006934
vn 0.090867 0.119232 -0.988700
vn 0.398378 -0.435319 0.807336
vn 0.729130 -0.570579 0.377901
vn 0.711717 -0.000179 0.702466
vn 0.415252 0.155911 0.896246
vn 0.921233 -0.068884 0.382863
vn 0.079967 -0.182818 0.979889
vn 0.273002 -0.226659 0.934931
vn 0.483138 0.781060 -0.395631
vn 0.090921 0.148825 -0.984675
vn 0.619117 -0.422082 0.662224
vn 0.438621 0.737899 -0.512949
vn 0.312288 -0.139419 0.939701
vn 0.203589 0.692596 -0.691999
vn 0.667539 -0.089641 0.739159
vn 0.544339 0.381747 0.746970
vn 0.556890 0.682381 0.473530
vn 0.269051 0.302343 0.914440
vn 0.157736 0.111113 0.981210
vn 0.784428 0.208008 0.584299
vn 0.750827 0.638193 -0.170202
vn 0.473775 0.734208 -0.486288
vn 0.190747 0.902369 -0.386454
vn 0.515301 0.608435 0.603549
vn 0.406370 0.900941 -0.152215
vn 0.752372 0.633079 -0.182062
vn 0.221457 0.778520 -0.587251
vn 0.232348 0.770082 -0.594128
vn 0.197372 0.698764 -0.687585
vn 0.018117 0.211130 0.977290
vn 0.860283 0.093239 0.501218
vn 0.829960 0.064655 -0.554063
vn -0.017395 -0.133263 -0.990928
vn 0.020652 0.175982 0.984177
vn -0.164710 0.347454 0.923118
vn 0.913498 0.294153 0.281061
vn 0.784175 0.445071 0.432413
vn 0.906636 0.243989 0.344209
vn 0.830141 0.064414 -0.553821
vn 0.288023 0.184665 -0.939650
vn 0.777039 0.310880 -0.547324
vn 0.592822 0.090632 -0.800217
vn 0.291351 0.132474 -0.947399
vn -0.486803 -0.247175 -0.837811
vn 0.409258 0.114453 0.905212
vn -0.753181 -0.486167 -0.443126
vn 0.932953 0.064770 -0.354125
vn 0.702649 -0.419896 -0.574432
vn -0.312809 -0.218895 -0.924249
vn 0.968959 0.236904 -0.070670
vn 0.640549 0.700233 0.315231
vn 0.733034 -0.419938 -0.535082
vn 0.920115 0.270172 -0.283542
vn -0.410769 -0.590758 -0.694460
vn 0.914027 0.304348 -0.268193
vn -0.071318 -0.267387 -0.960946
vn 0.822767 -0.228595 0.520383
vn 0.449120 -0.355319 0.819780
vn 0.142009 -0.121665 0.982360
vn 0.976795 -0.041807 0.210054
vn 0.984482 -0.012682 -0.175027
vn 0.998594 -0.047936 0.022654
vn 0.360739 -0.894359 0.264554
vn 0.193735 -0.010514 0.980997
vn 0.911170 -0.124065 0.392908
vn 0.974672 -0.025034 0.222231
vn -0.054128 0.802042 0.594810
vn 0.475326 0.151185 0.866723
vn 0.684976 0.188405 0.703784
vn 0.699334 0.196258 0.687324
vn 0.486843 -0.363021 0.794481
vn 0.313347 -0.450642 0.835904
vn 0.049232 0.820170 0.569997
vn -0.020318 -0.220643 0.975143
vn 0.245445 -0.812612 0.528601
vn 0.531248 -0.154838 0.832947
vn 0.474289 -0.820390 -0.319389
vn 0.864976 -0.133692 0.483676
vn 0.007759 -0.975784 -0.218597
vn 0.513966 -0.038321 0.856954
vn 0.810867 -0.050768 0.583024
vn 0.317128 -0.919066 -0.233982
vn 0.330398 -0.160749 0.930052
vn 0.977702 0.102568 -0.183246
vn 0.917814 0.262704 -0.297665
vn 0.767696 -0.410662 0.491935
vn 0.163226 -0.599716 0.783389
vn 0.826306 -0.239673 0.509682
vn 0.056783 -0.490218 0.869748
vn 0.520854 0.600980 0.606246
vn 0.978250 0.022697 0.206182
vn 0.884046 0.384947 0.265101
vn 0.769131 0.541528 0.339390
vn 0.497932 0.138500 0.856085
vn 0.491997 0.547601 -0.676810
vn 0.399783 0.619409 -0.675652
vn 0.151111 0.986587 0.061737
vn 0.030217 0.995416 -0.090744
vn 0.895633 -0.115997 0.429403
vn 0.680754 0.730396 0.055633
vn 0.796335 -0.596394 -0.100818
vn 0.998358 0.052318 0.023346
vn -0.958676 0.179619 -0.220629
vn 0.865077 0.342667 0.366361
vn 0.777122 -0.624233 -0.080089
vn -0.446157 -0.823294 -0.350899
vn -0.054852 0.978309 0.199755
vn -0.666831 -0.631254 0.396049
vn -0.587578 -0.672238 0.450386
vn 0.461925 -0.063427 0.884648
vn 0.199726 -0.566867 0.799232
vn 0.848512 0.465596 0.251492
vn 0.883830 0.266378 0.384561
vn 0.655459 -0.578186 -0.485875
vn -0.206672 0.082417 -0.974933
vn 0.358219 -0.702723 -0.614703
vn 0.299747 0.533168 -0.791128
vn -0.321057 -0.938886 -0.124157
vn -0.347159 -0.913610 -0.211654
vn 0.898615 -0.437630 0.031164
vn 0.769287 -0.594673 0.233583
vn 0.804554 0.378394 0.457723
vn 0.804159 0.378813 0.458071
vn 0.009261 0.946822 0.321624
vn -0.991138 0.118803 0.059426
vn -0.508863 -0.804132 -0.307294
vn -0.445175 -0.895334 0.013993
vn 0.780469 -0.532625 0.327382
vn 0.757057 -0.649566 0.070208
vn 0.882291 0.364682 0.297607
vn 0.834587 0.407951 0.370189
vn -0.073293 0.970103 0.231362
vn -0.057975 0.964393 0.258040
vn -0.939002 0.097769 -0.329721
vn 0.856893 -0.480474 0.186758
vn -0.348579 -0.917344 -0.192281
vn -0.975793 0.210719 -0.058523
vn -0.039621 0.909248 0.414364
vn -0.978662 0.205134 0.011883
vn -0.071122 0.920797 0.383503
vn 0.840928 -0.539467 -0.042606
vn -0.416331 -0.896809 -0.149674
vn -0.922717 -0.365331 0.122993
vn -0.823756 -0.421968 0.378642
vn -0.170694 -0.045546 0.984271
vn 0.030523 0.012340 0.999458
vn 0.706308 0.538199 0.459860
vn 0.694364 0.506460 0.511231
vn 0.680930 0.563933 -0.467240
vn 0.603115 0.455584 -0.654748
vn -0.380768 -0.078760 -0.921310
vn -0.453192 -0.088180 -0.887041
vn 0.177097 0.778590 0.602025
vn 0.163310 0.815892 -0.554663
vn 0.765240 -0.034599 -0.642814
vn 0.659590 0.050823 -0.749906
vn 0.685174 0.051142 -0.726582
vn 0.520021 0.311612 -0.795283
vn 0.435116 0.317675 -0.842470
vn 0.681595 0.533713 0.500578
vn 0.424014 0.419337 0.802726
vn -0.851154 -0.513676 0.108045
vn -0.744448 0.206779 0.634855
vn -0.928289 -0.364879 0.071710
vn -0.906400 -0.383878 0.176288
vn -0.986739 -0.070149 -0.146373
vn -0.035236 -0.654612 -0.755144
vn 0.874552 0.053472 -0.481975
vn 0.646553 0.477171 -0.595212
vn -0.739154 -0.344262 -0.578908
vn -0.740343 -0.306845 -0.598112
vn 0.575584 0.487675 0.656411
vn 0.593227 0.448190 0.668736
vn 0.639801 0.494990 -0.587911
vn 0.476196 0.623669 0.619898
vn -0.192275 -0.240858 0.951324
vn -0.324674 -0.236887 0.915681
vn -0.737787 -0.323473 -0.592483
vn 0.782556 0.367985 0.502188
vn -0.814593 -0.177379 -0.552245
vn -0.705223 -0.705244 0.072750
vn 0.026089 -0.384347 0.922820
vn 0.135833 0.967445 -0.213539
vn 0.632423 0.399794 0.663481
vn -0.176759 -0.461498 0.869354
vn 0.916988 0.373206 -0.140890
vn 0.916134 0.380853 -0.125097
vn -0.757693 -0.273767 -0.592412
vn 0.663198 0.473113 -0.579942
vn 0.506803 0.552833 0.661458
vn -0.279283 -0.078919 0.956960
vn -0.914100 0.145637 -0.378432
vn 0.617585 0.743685 -0.255971
vn 0.302911 0.935976 -0.179429
vn 0.832171 -0.130706 0.538894
vn 0.816993 -0.227696 0.529789
vn -0.587306 -0.600969 0.542133
vn -0.552150 -0.635759 0.539390
vn 0.897839 -0.224844 0.378589
vn -0.538916 0.003017 0.842354
vn 0.595882 -0.244912 -0.764816
vn 0.863769 -0.093813 0.495078
vn 0.885526 -0.223990 0.407029
vn -0.255928 -0.562562 0.786145
vn 0.874386 -0.026425 0.484511
vn -0.534568 -0.590104 0.604992
vn -0.852970 0.390953 -0.345828
vn 0.899099 0.065731 0.432782
vn -0.434320 -0.342937 0.832923
vn 0.923406 0.028892 0.382735
vn 0.559250 0.282131 -0.779514
vn 0.398992 0.122731 -0.908704
vn -0.340530 -0.028438 -0.939804
vn -0.755749 -0.304344 -0.579843
vn -0.477101 -0.412664 0.775940
vn -0.959166 -0.276604 -0.059074
vn 0.405872 0.908748 -0.097181
vn 0.803773 -0.400649 0.439806
vn -0.468813 -0.657191 0.590182
vn -0.875518 0.366308 -0.315100
vn 0.740737 0.610104 -0.281215
vn -0.908062 0.200187 -0.367897
vn -0.924912 0.173633 -0.338215
vn 0.640158 0.653387 -0.404083
vn 0.846075 -0.477359 0.237246
vn 0.880009 -0.411181 0.237726
vn -0.494259 -0.858486 0.136781
vn -0.445676 -0.884565 0.137540
vn -0.872247 0.354615 -0.336798
vn -0.156730 0.590429 -0.791726
vn -0.914023 -0.398490 -0.075945
vn 0.879192 0.323108 -0.350177
vn 0.241977 -0.885804 -0.395977
vn 0.129162 -0.893989 -0.429069
vn 0.482764 0.684493 0.546267
vn 0.452779 0.732928 -0.507747
vn -0.711305 0.183923 0.678393
vn 0.519581 0.727190 0.448587
vn -0.815014 0.180158 0.550723
vn 0.242161 -0.887022 -0.393129
vn 0.242646 -0.887062 -0.392739
vn 0.449419 0.795644 0.406168
vn 0.211462 0.067023 0.975085
vn -0.802187 0.361455 0.475233
vn 0.150921 -0.956336 -0.250288
vn -0.337882 0.104769 -0.935339
vn 0.288221 -0.266025 -0.919869
vn -0.873857 -0.151454 0.461992
vn -0.907884 -0.270030 -0.320672
vn -0.249841 -0.431321 -0.866915
vn -0.228286 -0.444941 -0.865975
vn -0.874625 -0.383456 -0.296635
vn -0.109232 0.348060 -0.931087
vn -0.910993 -0.280945 -0.301929
vn 0.415078 -0.840668 -0.347833
vn 0.708725 -0.604152 -0.364293
vn 0.053032 -0.365224 -0.929408
vn 0.267836 -0.531770 0.803420
vn 0.711191 -0.002620 0.702994
vn -0.162893 0.130815 0.977933
vn -0.191117 0.199729 0.961032
vn -0.925638 -0.246551 0.287068
vn -0.327680 0.106729 -0.938741
vn -0.354560 -0.492668 0.794711
vn -0.622293 -0.705762 0.338601
vn -0.491209 0.250513 0.834241
vn -0.397880 -0.004596 0.917426
vn -0.720446 -0.161880 0.674353
vn 0.029176 -0.191057 0.981145
vn -0.127018 -0.193918 0.972760
vn -0.359976 0.393170 -0.846070
vn -0.330907 0.125707 -0.935253
vn -0.401759 -0.485194 0.776645
vn -0.513366 0.615470 -0.598040
vn -0.121660 -0.205276 0.971113
vn -0.425511 0.434024 -0.794081
vn -0.390792 -0.159528 0.906550
vn -0.414453 0.362334 0.834831
vn -0.463870 0.821439 0.331757
vn -0.108097 0.258046 0.960066
vn -0.100147 0.248484 0.963445
vn -0.720631 0.254146 0.645058
vn -0.685124 0.672278 -0.280441
vn -0.345024 0.774220 -0.530605
vn -0.152908 0.884791 -0.440186
vn -0.353627 0.746607 0.563495
vn -0.427161 0.887415 -0.173285
vn -0.681115 0.697270 -0.223376
vn -0.229847 0.724051 -0.650323
vn -0.175129 0.771434 -0.611734
vn -0.225811 0.704080 -0.673261
vn 0.135921 0.420422 0.897090
vn -0.787262 0.168625 0.593114
vn -0.867577 0.259420 -0.424277
vn -0.300204 0.128386 -0.945196
vn 0.150833 0.214318 0.965048
vn 0.011198 0.323231 0.946254
vn -0.839631 0.294968 0.456086
vn -0.754181 0.349231 0.556101
vn -0.562757 0.558404 0.609499
vn -0.954361 0.103529 -0.280138
vn -0.338957 0.161744 -0.926794
vn -0.865047 0.266901 -0.424804
vn -0.647794 -0.099317 -0.755314
vn -0.297155 -0.107887 -0.948714
vn 0.142036 -0.286946 -0.947358
vn -0.076730 0.053814 0.995599
vn 0.530005 0.758076 -0.380020
vn -0.369707 0.575647 -0.729347
vn -0.701368 -0.584451 -0.408045
vn 0.151974 0.291617 0.944385
vn -0.382759 -0.025913 -0.923485
vn -0.545358 0.767688 -0.336510
vn -0.433296 -0.658395 -0.615443
vn -0.950709 0.215599 -0.222867
vn 0.668260 -0.630095 -0.395485
vn -0.184399 -0.108645 -0.976828
vn 0.372872 -0.172550 -0.911698
vn -0.928924 -0.229549 0.290530
vn -0.626742 -0.328904 0.706411
vn -0.349276 -0.109600 0.930588
vn -0.995931 -0.070719 -0.055859
vn -0.922848 -0.124028 -0.364648
vn -0.844870 -0.103124 -0.524938
vn -0.346634 -0.903069 0.253596
vn -0.394118 0.003930 0.919051
vn -0.977952 -0.077681 0.193847
vn -0.999624 0.023439 0.014197
vn -0.032092 0.801496 0.597138
vn -0.637534 0.178499 0.749459
vn -0.806572 0.225016 0.546634
vn -0.816797 0.233479 0.527570
vn -0.658689 -0.334894 0.673776
vn -0.502095 -0.430616 0.749980
vn -0.127029 0.824497 0.551424
vn -0.193988 -0.216379 0.956843
vn -0.389322 -0.797024 0.461716
vn -0.699975 -0.124611 0.703211
vn -0.368092 -0.749384 -0.550393
vn -0.983999 -0.025974 0.176268
vn -0.008322 -0.974984 -0.222120
vn -0.682440 -0.008952 0.730887
vn -0.916013 -0.008373 0.401061
vn -0.223373 -0.913299 -0.340573
vn -0.524298 -0.139763 0.839987
vn -0.908679 0.150307 -0.389499
vn -0.818594 0.302803 -0.488072
vn -0.872330 -0.370406 0.319124
vn -0.351756 -0.587080 0.729112
vn -0.924985 -0.196674 0.325148
vn -0.260431 -0.482413 0.836333
vn -0.605914 0.628641 0.487524
vn -0.997460 0.071202 -0.002000
vn -0.900125 0.428754 0.077100
vn -0.795748 0.579946 0.174493
vn -0.658012 0.166885 0.734282
vn -0.334743 0.552049 -0.763668
vn -0.219665 0.635951 -0.739806
vn -0.112590 0.993061 0.033950
vn 0.037697 0.995232 -0.089956
vn -0.900587 0.009587 0.434570
vn -0.681507 0.729138 -0.062500
vn -0.662565 -0.748179 -0.035139
vn -0.903701 -0.108182 -0.414271
vn 0.952194 0.263995 -0.153733
vn -0.950977 0.301010 0.070962
vn -0.688493 -0.675114 -0.264950
vn 0.587514 -0.782515 0.206150
vn 0.574151 0.537093 0.617966
vn 0.616602 -0.056460 -0.785248
vn 0.204547 -0.502968 -0.839752
vn -0.209563 0.473676 0.855403
vn -0.195057 -0.906522 -0.374395
vn -0.780276 -0.023948 0.624976
vn -0.853446 -0.511785 0.098518
vn -0.902950 0.365462 0.226092
vn -0.468854 0.726720 0.502049
vn 0.410814 0.899164 -0.150784
vn -0.397165 0.180407 -0.899841
vn 0.404138 -0.902806 0.147017
vn 0.449704 -0.887689 0.098868
vn -0.791239 -0.542159 -0.282851
vn -0.760339 -0.646962 -0.057667
vn -0.941082 0.337183 0.025938
vn -0.951688 0.307062 -0.001945
vn -0.101398 0.994019 0.040562
vn 0.821056 0.196404 0.535998
vn 0.575054 -0.816404 0.052894
vn 0.451298 -0.833286 0.319319
vn -0.812358 -0.583032 0.012192
vn -0.700797 -0.677454 -0.223471
vn -0.930360 0.346399 -0.120162
vn -0.927222 0.362649 -0.093514
vn 0.544650 0.785433 -0.294025
vn -0.114758 0.975515 0.187620
vn 0.407222 0.864083 0.295857
vn -0.805630 -0.554770 -0.207822
vn 0.456133 -0.885854 0.084885
vn 0.879379 0.351064 0.321630
vn -0.017426 0.949649 0.312830
vn 0.839895 0.375768 0.391632
vn -0.183008 0.901560 0.392042
vn -0.717686 -0.627736 -0.301454
vn 0.508417 -0.854800 0.104064
vn 0.770286 0.336078 -0.541951
vn 0.773618 0.060920 -0.630717
vn 0.547879 -0.795669 -0.258338
vn 0.107392 -0.993061 -0.047924
vn -0.500793 -0.616184 0.607884
vn -0.491309 -0.669487 0.557138
vn -0.555760 0.290919 0.778780
vn -0.549845 0.360344 0.753540
vn 0.423688 0.894058 -0.145425
vn 0.259436 0.963564 -0.065089
vn -0.168170 -0.617495 0.768387
vn -0.207173 0.418237 0.884396
vn -0.810628 0.574589 0.112826
vn -0.784996 0.589206 0.191360
vn -0.745787 0.638698 0.189386
vn -0.583510 0.661425 0.471204
vn -0.508744 0.723518 0.466586
vn -0.492503 -0.630354 0.600079
vn -0.323571 -0.783653 0.530273
vn 0.743968 0.079012 -0.663528
vn 0.907278 -0.396599 0.139840
vn 0.857130 0.157881 -0.490308
vn 0.852733 0.079642 -0.516240
vn 0.908091 0.323772 -0.265599
vn -0.216288 0.804128 -0.553712
vn -0.918518 0.300667 0.256756
vn -0.629799 0.466736 0.620894
vn 0.657916 0.694303 -0.291701
vn 0.661316 0.707060 -0.250455
vn -0.347134 -0.782069 0.517558
vn -0.369461 -0.795108 0.480938
vn -0.587020 0.506313 0.631708
vn -0.378837 -0.724701 0.575579
vn -0.001746 -0.955130 -0.296182
vn 0.455049 -0.793326 -0.404430
vn 0.613671 0.682451 -0.397075
vn -0.593271 -0.668951 0.447810
vn 0.666928 0.690433 -0.280195
vn 0.638681 0.320806 -0.699406
vn 0.216034 -0.719081 -0.660494
vn -0.161800 0.097853 0.981960
vn -0.420076 -0.794448 0.438622
vn 0.126690 -0.769109 -0.626435
vn -0.838189 -0.057832 0.542304
vn -0.833266 -0.073268 0.547996
vn 0.691000 0.691429 -0.210818
vn -0.597552 0.501019 0.626029
vn -0.468681 -0.774170 0.425439
vn 0.193450 -0.956134 -0.219964
vn 0.884708 0.037115 -0.464666
vn -0.508495 0.488102 -0.709358
vn -0.452191 0.522493 -0.722858
vn -0.807858 0.080365 0.583872
vn -0.780537 -0.003322 0.625100
vn 0.600257 -0.267112 0.753885
vn 0.475266 -0.364474 0.800800
vn -0.884195 -0.130442 0.448536
vn 0.518001 0.147977 0.842483
vn -0.510258 -0.347265 -0.786793
vn -0.742268 -0.043771 0.668673
vn -0.598131 0.421937 0.681329
vn 0.600405 0.334064 0.726577
vn -0.820016 0.365590 0.440361
vn 0.472886 -0.356140 0.805943
vn 0.844334 0.130796 -0.519608
vn -0.699432 0.623792 0.348825
vn 0.676053 0.392169 0.623823
vn -0.737334 0.574293 0.355706
vn -0.665559 -0.539947 -0.515255
vn -0.611229 -0.600930 -0.515056
vn -0.090669 -0.786013 -0.611524
vn 0.475245 -0.801115 -0.363809
vn 0.688304 0.345796 0.637700
vn 0.846988 -0.511824 -0.143692
vn -0.527502 0.528294 -0.665318
vn -0.824979 0.159872 0.542080
vn 0.559287 -0.225457 0.797727
vn 0.886249 0.145291 -0.439833
vn -0.736287 0.269138 -0.620843
vn 0.922446 -0.101455 -0.372558
vn 0.848731 -0.108108 -0.517656
vn -0.549587 0.186030 -0.814461
vn -0.813004 -0.182049 0.553067
vn -0.920528 -0.012448 0.390477
vn 0.599141 -0.421132 0.680939
vn 0.577039 -0.431503 0.693420
vn 0.888783 0.170141 -0.425579
vn 0.188730 0.135796 -0.972595
vn 0.936037 -0.345463 0.067011
vn -0.894993 0.143086 -0.422509
vn -0.241385 -0.968644 -0.058841
vn -0.213743 -0.974618 -0.066591
vn -0.527405 0.816225 0.235839
vn -0.539152 0.458051 -0.706756
vn 0.724806 0.414676 0.550182
vn -0.575639 0.812187 0.094829
vn 0.844381 0.358142 0.398441
vn -0.229008 -0.970140 0.079894
vn -0.264153 -0.958500 0.107247
vn -0.476091 0.879350 -0.008947
vn -0.206453 0.476056 0.854838
vn 0.822897 0.531771 0.200149
vn -0.465795 -0.869113 0.166368

f 1/1/1 2/2/1 3/3/1
f 4/4/2 5/5/2 6/6/2
f 4/4/3 6/7/3 7/8/3
f 5/9/4 8/10/4 9/11/4
f 10/12/5 11/13/5 9/14/5
f 6/6/6 11/15/6 7/8/6
f 6/6/7 12/16/7 11/13/7
f 12/17/8 5/5/8 9/14/8
f 6/6/9 5/5/9 12/17/9
f 11/13/10 12/18/10 9/19/10
f 13/20/11 14/21/11 15/22/11
f 14/21/12 13/20/12 16/23/12
f 16/24/13 13/20/13 17/25/13
f 15/22/14 14/21/14 18/26/14
f 14/21/15 19/27/15 18/26/15
f 18/26/16 20/28/16 21/29/16
f 18/26/17 19/27/17 20/28/17
f 20/28/18 3/30/18 21/29/18
f 5/9/19 22/31/19 23/32/19
f 24/33/20 25/34/20 26/35/20
f 27/36/21 25/34/21 9/37/21
f 28/38/22 27/39/22 29/40/22
f 30/41/23 25/34/23 24/33/23
f 25/34/24 30/41/24 10/42/24
f 30/41/25 24/33/25 31/43/25
f 24/33/26 26/44/26 32/45/26
f 33/46/27 34/47/27 5/9/27
f 4/4/28 22/31/28 5/9/28
f 26/35/29 25/34/29 27/39/29
f 33/46/30 35/48/30 34/47/30
f 32/45/31 26/35/31 28/38/31
f 23/32/32 33/46/32 5/9/32
f 26/35/33 27/39/33 28/38/33
f 28/38/34 29/40/34 36/49/34
f 35/50/35 37/51/35 29/40/35
f 28/38/36 38/52/36 32/45/36
f 36/49/37 38/52/37 28/38/37
f 36/49/38 37/53/38 39/54/38
f 39/55/39 37/56/39 40/57/39
f 41/58/40 42/59/40 39/55/40
f 39/55/41 40/57/41 41/58/41
f 36/49/42 29/40/42 37/51/42
f 37/56/43 35/48/43 33/46/43
f 37/56/44 33/46/44 40/57/44
f 40/57/45 33/46/45 43/60/45
f 40/57/46 43/60/46 41/58/46
f 33/46/47 23/32/47 43/60/47
f 44/61/48 45/62/48 30/63/48
f 15/64/49 46/65/49 45/62/49
f 46/66/50 47/67/50 10/68/50
f 47/67/51 7/69/51 11/70/51
f 45/62/52 44/61/52 17/71/52
f 44/61/53 30/63/53 31/72/53
f 13/73/54 15/64/54 45/62/54
f 46/65/55 10/74/55 45/62/55
f 45/62/56 10/74/56 30/63/56
f 47/67/57 11/70/57 10/68/57
f 47/67/58 48/75/58 7/69/58
f 46/66/59 15/76/59 47/67/59
f 18/77/60 47/67/60 15/76/60
f 47/67/61 18/77/61 48/75/61
f 18/77/62 21/78/62 48/75/62
f 13/73/63 45/62/63 17/71/63
f 49/79/64 35/50/64 29/40/64
f 8/80/65 27/81/65 9/82/65
f 34/47/66 50/83/66 5/84/66
f 27/36/67 49/79/67 29/40/67
f 35/48/68 51/85/68 52/86/68
f 35/50/69 49/79/69 51/87/69
f 52/86/70 50/83/70 34/47/70
f 35/48/71 52/86/71 34/47/71
f 5/84/72 50/83/72 8/10/72
f 53/88/73 27/81/73 8/80/73
f 53/88/74 49/79/74 27/36/74
f 54/89/75 55/90/75 56/91/75
f 57/92/76 55/90/76 58/93/76
f 59/94/77 60/95/77 55/90/77
f 61/96/78 54/89/78 56/91/78
f 39/97/79 61/96/79 36/98/79
f 36/98/80 61/96/80 56/91/80
f 36/98/81 56/91/81 38/99/81
f 62/100/82 63/101/82 64/102/82
f 65/103/83 64/102/83 54/89/83
f 61/96/84 65/103/84 54/89/84
f 66/104/85 67/105/85 62/100/85
f 55/90/86 60/95/86 68/106/86
f 69/107/87 68/106/87 60/95/87
f 69/107/88 70/108/88 68/106/88
f 58/109/89 55/90/89 68/106/89
f 68/106/90 71/110/90 58/111/90
f 62/100/91 67/105/91 63/101/91
f 64/102/92 63/101/92 69/107/92
f 70/108/93 71/110/93 68/106/93
f 58/111/94 71/110/94 72/112/94
f 56/91/95 57/92/95 38/113/95
f 55/90/96 57/114/96 56/91/96
f 73/115/97 74/116/97 38/113/97
f 58/109/98 72/112/98 73/115/98
f 57/117/99 58/111/99 73/115/99
f 57/92/100 73/115/100 38/113/100
f 73/115/101 72/112/101 74/116/101
f 39/97/102 75/118/102 61/96/102
f 75/118/103 39/97/103 76/119/103
f 64/102/104 59/94/104 54/89/104
f 64/102/105 60/95/105 59/94/105
f 54/89/106 59/94/106 55/90/106
f 64/102/107 69/107/107 60/95/107
f 65/103/108 66/104/108 62/100/108
f 65/103/109 61/96/109 75/118/109
f 75/118/110 76/119/110 65/103/110
f 66/104/111 65/103/111 76/119/111
f 62/100/112 64/102/112 65/103/112
f 39/97/113 42/120/113 76/119/113
f 77/121/114 76/119/114 42/120/114
f 67/105/115 76/119/115 77/121/115
f 66/104/116 76/119/116 67/105/116
f 9/82/117 25/34/117 10/42/117
f 51/122/118 49/123/118 78/124/118
f 79/125/119 50/126/119 52/127/119
f 52/127/120 51/122/120 79/125/120
f 80/128/121 81/129/121 53/130/121
f 51/122/122 78/124/122 79/125/122
f 82/131/123 50/126/123 79/125/123
f 50/126/124 82/131/124 8/132/124
f 53/133/125 78/124/125 49/123/125
f 83/134/126 84/135/126 85/136/126
f 84/135/127 83/134/127 86/137/127
f 86/137/128 87/138/128 84/135/128
f 88/139/129 84/135/129 87/138/129
f 87/138/130 89/140/130 88/139/130
f 90/141/131 88/139/131 89/140/131
f 91/142/132 92/143/132 90/141/132
f 90/141/133 89/140/133 91/142/133
f 85/136/134 92/144/134 91/145/134
f 91/145/135 83/134/135 85/136/135
f 80/128/136 93/146/136 83/134/136
f 94/147/137 83/134/137 93/146/137
f 93/146/138 87/138/138 94/147/138
f 87/138/139 93/146/139 95/148/139
f 95/148/140 96/149/140 87/138/140
f 89/140/141 87/138/141 96/149/141
f 97/150/142 91/142/142 89/140/142
f 97/151/143 81/129/143 80/128/143
f 8/132/144 82/131/144 80/128/144
f 93/146/145 80/128/145 98/152/145
f 98/152/146 95/148/146 93/146/146
f 95/148/147 82/131/147 79/125/147
f 79/125/148 78/124/148 95/148/148
f 96/149/149 95/148/149 78/124/149
f 78/124/150 53/133/150 81/153/150
f 81/153/151 96/149/151 78/124/151
f 80/128/152 53/130/152 8/154/152
f 94/147/153 87/138/153 86/137/153
f 86/137/154 83/134/154 94/147/154
f 97/151/155 83/134/155 91/145/155
f 89/140/156 96/149/156 97/150/156
f 80/128/157 83/134/157 97/151/157
f 81/153/158 97/150/158 96/149/158
f 82/131/159 95/148/159 98/152/159
f 98/152/160 80/128/160 82/131/160
f 85/136/161 99/155/161 100/156/161
f 99/155/162 85/136/162 84/135/162
f 84/135/163 101/157/163 99/155/163
f 101/157/164 84/135/164 88/139/164
f 88/139/165 90/141/165 101/157/165
f 102/158/166 101/157/166 90/141/166
f 90/141/167 103/159/167 102/158/167
f 103/159/168 90/141/168 92/143/168
f 92/144/169 85/136/169 103/160/169
f 100/156/170 103/160/170 85/136/170
f 104/161/171 105/162/171 106/163/171
f 107/164/172 106/163/172 108/165/172
f 109/166/173 110/167/173 103/168/173
f 109/166/174 111/169/174 104/161/174
f 104/161/175 110/167/175 109/166/175
f 104/161/176 111/169/176 112/170/176
f 113/171/177 112/170/177 111/169/177
f 106/163/178 110/167/178 104/161/178
f 104/161/179 112/170/179 105/162/179
f 105/172/180 113/173/180 111/174/180
f 113/173/181 105/172/181 112/175/181
f 105/172/182 111/174/182 109/176/182
f 109/176/183 106/177/183 105/172/183
f 109/176/184 100/178/184 106/177/184
f 103/179/185 100/178/185 109/176/185
f 102/180/186 103/168/186 110/167/186
f 106/163/187 114/181/187 108/165/187
f 115/182/188 116/183/188 106/177/188
f 116/184/189 117/185/189 118/186/189
f 108/165/190 114/181/190 119/187/190
f 119/187/191 120/188/191 108/165/191
f 118/189/192 121/190/192 114/191/192
f 114/191/193 121/190/193 117/192/193
f 116/193/194 115/194/194 119/187/194
f 120/188/195 119/187/195 115/194/195
f 121/195/196 118/186/196 117/185/196
f 108/165/197 101/196/197 102/180/197
f 115/182/198 106/177/198 100/178/198
f 100/178/199 99/197/199 115/182/199
f 120/188/200 99/198/200 101/196/200
f 106/163/201 107/164/201 110/167/201
f 108/165/202 120/188/202 101/196/202
f 120/188/203 115/194/203 99/198/203
f 107/164/204 102/180/204 110/167/204
f 102/180/205 107/164/205 108/165/205
f 118/199/206 106/177/206 116/183/206
f 114/181/207 106/163/207 118/200/207
f 114/191/208 117/192/208 119/201/208
f 117/192/209 116/202/209 119/201/209
f 122/203/210 123/204/210 124/205/210
f 125/206/211 126/207/211 123/208/211
f 125/206/212 123/208/212 127/209/212
f 125/210/213 128/211/213 126/212/213
f 128/211/214 129/213/214 126/212/214
f 128/214/215 124/215/215 129/216/215
f 122/217/216 124/215/216 128/214/216
f 130/218/217 128/211/217 125/219/217
f 131/220/218 122/221/218 130/222/218
f 132/223/219 125/224/219 127/225/219
f 132/226/220 131/227/220 125/219/220
f 133/228/221 131/227/221 132/226/221
f 133/229/222 122/221/222 131/220/222
f 130/218/223 125/219/223 131/227/223
f 128/214/224 130/222/224 122/221/224
f 127/209/225 123/204/225 122/203/225
f 16/230/226 133/228/226 14/231/226
f 16/232/227 3/3/227 133/229/227
f 14/231/228 133/228/228 132/226/228
f 14/233/229 132/223/229 19/234/229
f 132/223/230 127/225/230 19/234/230
f 20/235/231 19/234/231 127/225/231
f 20/235/232 127/225/232 122/236/232
f 3/3/233 122/221/233 133/229/233
f 3/237/234 20/235/234 122/236/234
f 134/238/235 135/239/235 136/240/235
f 137/241/236 135/242/236 134/243/236
f 138/244/237 139/245/237 137/246/237
f 138/247/238 136/248/238 139/249/238
f 134/238/239 136/240/239 123/208/239
f 138/247/240 123/250/240 136/248/240
f 123/250/241 138/247/241 124/251/241
f 134/238/242 123/208/242 126/252/242
f 129/253/243 134/243/243 126/254/243
f 137/241/244 134/243/244 129/253/244
f 138/244/245 137/246/245 129/255/245
f 138/244/246 129/255/246 124/256/246
f 136/257/247 140/258/247 139/259/247
f 136/257/248 141/260/248 140/258/248
f 142/261/249 139/259/249 140/258/249
f 135/262/250 143/263/250 141/260/250
f 141/264/251 143/265/251 142/266/251
f 142/266/252 140/267/252 141/264/252
f 137/268/253 143/263/253 135/262/253
f 135/262/254 141/260/254 136/257/254
f 139/259/255 142/261/255 137/268/255
f 137/268/256 144/269/256 143/263/256
f 137/268/257 142/261/257 144/269/257
f 143/265/258 145/270/258 146/271/258
f 146/271/259 142/266/259 143/265/259
f 143/263/260 144/269/260 145/272/260
f 144/269/261 146/273/261 145/272/261
f 146/273/262 144/269/262 142/261/262
f 3/274/263 16/275/263 17/276/263
f 147/5/264 4/4/264 148/6/264
f 148/7/265 4/4/265 7/8/265
f 149/10/266 147/9/266 150/11/266
f 151/13/267 152/12/267 150/14/267
f 151/15/268 148/6/268 7/8/268
f 153/16/269 148/6/269 151/13/269
f 147/5/270 153/17/270 150/14/270
f 147/5/271 148/6/271 153/17/271
f 153/18/272 151/13/272 150/19/272
f 154/21/273 155/20/273 156/22/273
f 155/20/274 154/21/274 157/23/274
f 155/20/275 157/24/275 17/25/275
f 154/21/276 156/22/276 158/26/276
f 159/27/277 154/21/277 158/26/277
f 160/28/278 158/26/278 21/29/278
f 159/27/279 158/26/279 160/28/279
f 3/30/280 160/28/280 21/29/280
f 22/31/281 147/9/281 23/32/281
f 161/34/282 24/33/282 162/35/282
f 161/34/283 163/36/283 150/37/283
f 163/39/284 164/38/284 165/40/284
f 161/34/285 166/41/285 24/33/285
f 166/41/286 161/34/286 152/42/286
f 24/33/287 166/41/287 31/43/287
f 162/44/288 24/33/288 32/45/288
f 167/47/289 168/46/289 147/9/289
f 22/31/290 4/4/290 147/9/290
f 161/34/291 162/35/291 163/39/291
f 169/48/292 168/46/292 167/47/292
f 162/35/293 32/45/293 164/38/293
f 168/46/294 23/32/294 147/9/294
f 163/39/295 162/35/295 164/38/295
f 165/40/296 164/38/296 170/49/296
f 171/51/297 169/50/297 165/40/297
f 38/52/298 164/38/298 32/45/298
f 38/52/299 170/49/299 164/38/299
f 171/53/300 170/49/300 172/54/300
f 171/56/301 172/55/301 173/57/301
f 42/59/302 41/58/302 172/55/302
f 173/57/303 172/55/303 41/58/303
f 165/40/304 170/49/304 171/51/304
f 169/48/305 171/56/305 168/46/305
f 168/46/306 171/56/306 173/57/306
f 168/46/307 173/57/307 43/60/307
f 43/60/308 173/57/308 41/58/308
f 23/32/309 168/46/309 43/60/309
f 174/62/310 44/61/310 166/63/310
f 175/65/311 156/64/311 174/62/311
f 176/67/312 175/66/312 152/68/312
f 7/69/313 176/67/313 151/70/313
f 44/61/314 174/62/314 17/71/314
f 166/63/315 44/61/315 31/72/315
f 156/64/316 155/73/316 174/62/316
f 152/74/317 175/65/317 174/62/317
f 152/74/318 174/62/318 166/63/318
f 151/70/319 176/67/319 152/68/319
f 48/75/320 176/67/320 7/69/320
f 156/76/321 175/66/321 176/67/321
f 176/67/322 158/77/322 156/76/322
f 158/77/323 176/67/323 48/75/323
f 21/78/324 158/77/324 48/75/324
f 174/62/325 155/73/325 17/71/325
f 169/50/326 177/79/326 165/40/326
f 163/81/327 149/80/327 150/82/327
f 178/83/328 167/47/328 147/84/328
f 177/79/329 163/36/329 165/40/329
f 179/85/330 169/48/330 180/86/330
f 177/79/331 169/50/331 179/87/331
f 178/83/332 180/86/332 167/47/332
f 180/86/333 169/48/333 167/47/333
f 178/83/334 147/84/334 149/10/334
f 163/81/335 181/88/335 149/80/335
f 177/79/336 181/88/336 163/36/336
f 182/90/337 183/89/337 184/91/337
f 182/90/338 185/92/338 186/93/338
f 187/95/339 188/94/339 182/90/339
f 183/89/340 189/96/340 184/91/340
f 189/96/341 172/97/341 170/98/341
f 189/96/342 170/98/342 184/91/342
f 184/91/343 170/98/343 38/99/343
f 63/101/344 190/100/344 191/102/344
f 191/102/345 192/103/345 183/89/345
f 192/103/346 189/96/346 183/89/346
f 67/105/347 193/104/347 190/100/347
f 187/95/348 182/90/348 194/106/348
f 194/106/349 69/107/349 187/95/349
f 70/108/350 69/107/350 194/106/350
f 182/90/351 186/109/351 194/106/351
f 71/110/352 194/106/352 186/111/352
f 67/105/353 190/100/353 63/101/353
f 63/101/354 191/102/354 69/107/354
f 71/110/355 70/108/355 194/106/355
f 71/110/356 186/111/356 72/112/356
f 185/92/357 184/91/357 38/113/357
f 185/114/358 182/90/358 184/91/358
f 74/116/359 195/115/359 38/113/359
f 72/112/360 186/109/360 195/115/360
f 186/111/361 185/117/361 195/115/361
f 195/115/362 185/92/362 38/113/362
f 72/112/363 195/115/363 74/116/363
f 196/118/364 172/97/364 189/96/364
f 172/97/365 196/118/365 197/119/365
f 188/94/366 191/102/366 183/89/366
f 187/95/367 191/102/367 188/94/367
f 188/94/368 183/89/368 182/90/368
f 69/107/369 191/102/369 187/95/369
f 193/104/370 192/103/370 190/100/370
f 189/96/371 192/103/371 196/118/371
f 197/119/372 196/118/372 192/103/372
f 192/103/373 193/104/373 197/119/373
f 191/102/374 190/100/374 192/103/374
f 42/120/375 172/97/375 197/119/375
f 197/119/376 77/121/376 42/120/376
f 197/119/377 67/105/377 77/121/377
f 197/119/378 193/104/378 67/105/378
f 161/34/379 150/82/379 152/42/379
f 177/123/380 179/122/380 198/124/380
f 178/126/381 199/125/381 180/127/381
f 179/122/382 180/127/382 199/125/382
f 200/129/383 201/128/383 181/130/383
f 198/124/384 179/122/384 199/125/384
f 178/126/385 202/131/385 199/125/385
f 202/131/386 178/126/386 149/132/386
f 198/124/387 181/133/387 177/123/387
f 203/135/388 204/134/388 205/136/388
f 204/134/389 203/135/389 206/137/389
f 207/138/390 206/137/390 203/135/390
f 203/135/391 208/139/391 207/138/391
f 209/140/392 207/138/392 208/139/392
f 208/139/393 210/141/393 209/140/393
f 211/143/394 212/142/394 210/141/394
f 209/140/395 210/141/395 212/142/395
f 211/144/396 205/136/396 212/145/396
f 204/134/397 212/145/397 205/136/397
f 213/146/398 201/128/398 204/134/398
f 204/134/399 214/147/399 213/146/399
f 207/138/400 213/146/400 214/147/400
f 213/146/401 207/138/401 215/148/401
f 216/149/402 215/148/402 207/138/402
f 207/138/403 209/140/403 216/149/403
f 212/142/404 217/150/404 209/140/404
f 200/129/405 217/151/405 201/128/405
f 202/131/406 149/132/406 201/128/406
f 201/128/407 213/146/407 218/152/407
f 215/148/408 218/152/408 213/146/408
f 202/131/409 215/148/409 199/125/409
f 198/124/410 199/125/410 215/148/410
f 215/148/411 216/149/411 198/124/411
f 181/133/412 198/124/412 200/153/412
f 216/149/413 200/153/413 198/124/413
f 181/130/414 201/128/414 149/154/414
f 207/138/415 214/147/415 206/137/415
f 204/134/416 206/137/416 214/147/416
f 204/134/417 217/151/417 212/145/417
f 216/149/418 209/140/418 217/150/418
f 204/134/419 201/128/419 217/151/419
f 217/150/420 200/153/420 216/149/420
f 215/148/421 202/131/421 218/152/421
f 201/128/422 218/152/422 202/131/422
f 219/155/423 205/136/423 220/156/423
f 205/136/424 219/155/424 203/135/424
f 221/157/425 203/135/425 219/155/425
f 203/135/426 221/157/426 208/139/426
f 210/141/427 208/139/427 221/157/427
f 221/157/428 222/158/428 210/141/428
f 223/159/429 210/141/429 222/158/429
f 210/141/430 223/159/430 211/143/430
f 205/136/431 211/144/431 223/160/431
f 223/160/432 220/156/432 205/136/432
f 224/162/433 225/161/433 226/163/433
f 226/163/434 227/164/434 228/165/434
f 229/167/435 230/166/435 223/168/435
f 231/169/436 230/166/436 225/161/436
f 229/167/437 225/161/437 230/166/437
f 231/169/438 225/161/438 232/170/438
f 232/170/439 233/171/439 231/169/439
f 229/167/440 226/163/440 225/161/440
f 232/170/441 225/161/441 224/162/441
f 233/173/442 224/172/442 231/174/442
f 224/172/443 233/173/443 232/175/443
f 231/174/444 224/172/444 230/176/444
f 226/177/445 230/176/445 224/172/445
f 220/178/446 230/176/446 226/177/446
f 220/178/447 223/179/447 230/176/447
f 223/168/448 222/180/448 229/167/448
f 234/181/449 226/163/449 228/165/449
f 235/183/450 236/182/450 226/177/450
f 237/185/451 235/184/451 238/186/451
f 234/181/452 228/165/452 239/187/452
f 240/188/453 239/187/453 228/165/453
f 241/190/454 238/189/454 234/191/454
f 241/190/455 234/191/455 237/192/455
f 236/194/456 235/193/456 239/187/456
f 239/187/457 240/188/457 236/194/457
f 238/186/458 241/195/458 237/185/458
f 221/196/459 228/165/459 222/180/459
f 226/177/460 236/182/460 220/178/460
f 219/197/461 220/178/461 236/182/461
f 219/198/462 240/188/462 221/196/462
f 227/164/463 226/163/463 229/167/463
f 240/188/464 228/165/464 221/196/464
f 236/194/465 240/188/465 219/198/465
f 222/180/466 227/164/466 229/167/466
f 227/164/467 222/180/467 228/165/467
f 226/177/468 238/199/468 235/183/468
f 226/163/469 234/181/469 238/200/469
f 237/192/470 234/191/470 239/201/470
f 235/202/471 237/192/471 239/201/471
f 242/204/472 243/203/472 244/205/472
f 245/207/473 246/206/473 242/208/473
f 242/208/474 246/206/474 247/209/474
f 248/211/475 246/210/475 245/212/475
f 249/213/476 248/211/476 245/212/476
f 244/215/477 248/214/477 249/216/477
f 244/215/478 243/217/478 248/214/478
f 248/211/479 250/218/479 246/219/479
f 243/221/480 251/220/480 250/222/480
f 246/224/481 252/223/481 247/225/481
f 251/227/482 252/226/482 246/219/482
f 251/227/483 253/228/483 252/226/483
f 243/221/484 253/229/484 251/220/484
f 246/219/485 250/218/485 251/227/485
f 250/222/486 248/214/486 243/221/486
f 242/204/487 247/209/487 243/203/487
f 253/228/488 157/230/488 154/231/488
f 3/3/489 157/232/489 253/229/489
f 253/228/490 154/231/490 252/226/490
f 252/223/491 154/233/491 159/234/491
f 247/225/492 252/223/492 159/234/492
f 159/234/493 160/235/493 247/225/493
f 247/225/494 160/235/494 243/236/494
f 243/221/495 3/3/495 253/229/495
f 160/235/496 3/237/496 243/236/496
f 254/239/497 255/238/497 256/240/497
f 254/242/498 257/241/498 255/243/498
f 258/245/499 259/244/499 257/246/499
f 256/248/500 259/247/500 258/249/500
f 256/240/501 255/238/501 242/208/501
f 242/250/502 259/247/502 256/248/502
f 259/247/503 242/250/503 244/251/503
f 242/208/504 255/238/504 245/252/504
f 255/243/505 249/253/505 245/254/505
f 255/243/506 257/241/506 249/253/506
f 257/246/507 259/244/507 249/255/507
f 249/255/508 259/244/508 244/256/508
f 260/258/509 256/257/509 258/259/509
f 261/260/510 256/257/510 260/258/510
f 258/259/511 262/261/511 260/258/511
f 263/263/512 254/262/512 261/260/512
f 263/265/513 261/264/513 262/266/513
f 260/267/514 262/266/514 261/264/514
f 263/263/515 257/268/515 254/262/515
f 261/260/516 254/262/516 256/257/516
f 262/261/517 258/259/517 257/268/517
f 264/269/518 257/268/518 263/263/518
f 262/261/519 257/268/519 264/269/519
f 265/270/520 263/265/520 266/271/520
f 262/266/521 266/271/521 263/265/521
f 264/269/522 263/263/522 265/272/522
f 266/273/523 264/269/523 265/272/523
f 264/269/524 266/273/524 262/261/524
f 157/275/525 3/274/525 17/276/525

o 
usemtl axe.001
s off

v -3.108350 86.314804 48.994389
v -2.820220 80.068825 45.183159
v -4.472880 81.319748 55.794758
v -4.281290 79.575027 52.948872
v -4.527740 79.493874 56.910461
v -4.336150 77.749138 54.064568
v -3.565060 71.112625 58.283619
v -3.106050 70.554703 50.996727
v -3.481910 89.716759 54.543472
v -3.938630 74.514587 63.832680
v -3.940920 90.274696 61.830349
v -4.664480 83.064484 58.640663
v -4.719320 81.238594 59.756351
v -4.226760 80.760559 67.643921
v -2.327650 79.590805 53.070732
v -2.519240 81.335526 55.916618
v -2.382500 77.764923 54.186432
v -2.574090 79.509644 57.032310
v -2.710830 83.080254 58.762497
v -2.765680 81.254364 59.878212
v -2.369480 62.164749 24.550259
v -2.424330 60.338860 25.665960
v -0.470680 60.354630 25.787821
v -2.408550 63.629753 22.822439
v -4.118530 85.833527 65.252426
v -0.442800 42.188988 -3.946970
v 1.408710 42.246597 -3.903870
v 1.565800 44.030300 -4.941250
v -0.387900 44.015030 -5.062420

vt 0.033358 0.643728
vt 0.190411 0.923560
vt 0.402692 0.503812
vt 0.402692 0.647326
vt 0.408249 0.287497
vt 0.408249 0.367848
vt 0.492649 0.287497
vt 0.492649 0.367848
vt 0.403043 0.503812
vt 0.403044 0.647326
vt 0.033710 0.643728
vt 0.190763 0.923560
vt 0.033358 0.363896
vt 0.033710 0.363896
vt 0.190411 0.084064
vt 0.402692 0.360297
vt 0.408249 0.207147
vt 0.492649 0.207147
vt 0.403043 0.360297
vt 0.190763 0.084064
vt 0.408248 1.036942
vt 0.492649 1.036942
vt 0.483600 0.371280
vt 0.402049 0.371280
vt 0.402049 1.040375
vt 0.483600 1.040375
vt 0.450449 0.037941
vt 0.483600 0.210579
vt 0.402049 0.210579
vt 0.442825 0.041374
vt 0.000000 1.000000

vn -0.985806 0.051944 -0.159654
vn -0.969851 0.173177 -0.171460
vn -0.998028 -0.008054 -0.062251
vn -0.993516 -0.113659 0.002795
vn -0.987799 -0.147165 -0.050955
vn -0.987167 0.097674 -0.126337
vn -0.988712 0.131215 -0.072327
vn -0.980730 -0.188916 0.049796
vn -0.997040 -0.067947 0.035977
vn 0.980730 0.188918 -0.049796
vn 0.997040 0.067946 -0.035977
vn 0.998028 0.008054 0.062250
vn 0.988712 -0.131214 0.072326
vn 0.987167 -0.097673 0.126337
vn 0.993516 0.113658 -0.002796
vn 0.987799 0.147165 0.050954
vn 0.985806 -0.051944 0.159654
vn 0.969852 -0.173175 0.171460
vn 0.011875 -0.998053 -0.061228
vn 0.053859 0.399454 -0.915170
vn -0.011878 0.998053 0.061230
vn -0.053853 -0.399454 0.915170
vn 0.911196 0.363349 -0.194165
vn 0.021968 0.884187 -0.466616
vn -0.997676 -0.061417 -0.029512
vn -0.025625 -0.853026 0.521238
vn -0.996413 0.063862 0.055530
vn 0.980634 0.079821 0.178843
vn -0.033946 -0.764928 0.643221
vn 0.016720 0.921753 -0.387417
vn -0.006142 -0.853340 0.521319
vn -0.748525 0.515625 -0.416942
vn 0.958568 0.272961 -0.081480
vn -0.998047 -0.007862 -0.061966
vn 0.057341 -0.505686 -0.860810
vn 0.036079 -0.521740 -0.852341

f 267/277/526 268/278/526 269/279/526
f 270/280/527 269/279/527 268/278/527
f 269/281/528 270/282/528 271/283/528
f 272/284/528 271/283/528 270/282/528
f 271/285/529 272/286/529 273/287/529
f 274/288/530 273/287/530 272/286/530
f 275/289/531 267/277/531 269/279/531
f 273/287/529 276/290/529 271/285/529
f 277/291/532 275/289/532 278/292/532
f 269/279/531 278/292/531 275/289/531
f 278/293/528 269/281/528 279/294/528
f 271/283/528 279/294/528 269/281/528
f 279/295/533 271/285/533 280/296/533
f 276/290/534 280/296/534 271/285/534
f 281/280/535 268/278/535 282/279/535
f 267/277/536 282/279/536 268/278/536
f 283/284/537 281/282/537 284/283/537
f 282/281/537 284/283/537 281/282/537
f 274/288/538 283/286/538 273/287/538
f 284/285/539 273/287/539 283/286/539
f 282/279/540 267/277/540 275/289/540
f 273/287/539 284/285/539 276/290/539
f 282/279/540 275/289/540 285/292/540
f 277/291/541 285/292/541 275/289/541
f 284/283/537 282/281/537 286/294/537
f 285/293/537 286/294/537 282/281/537
f 276/290/542 284/285/542 280/296/542
f 286/295/543 280/296/543 284/285/543
f 270/280/544 268/278/544 281/280/544
f 283/286/545 274/288/545 272/286/545
f 279/295/546 280/296/546 286/295/546
f 285/292/547 277/291/547 278/292/547
f 272/284/528 270/282/528 287/297/528
f 287/297/528 288/298/528 272/284/528
f 281/282/537 283/284/537 289/298/537
f 289/298/548 290/297/548 281/282/548
f 270/299/549 281/300/549 290/301/549
f 290/301/550 287/302/550 270/299/550
f 283/300/551 272/299/551 288/302/551
f 288/302/551 289/301/551 283/300/551
f 278/293/552 279/294/552 291/303/552
f 286/294/553 285/293/553 291/303/553
f 279/304/554 286/305/554 291/306/554
f 285/305/555 278/304/555 291/306/555
f 289/298/556 288/297/556 292/298/556 293/307/556
f 287/297/557 290/298/557 294/297/557 295/307/557
f 290/297/558 289/298/558 293/297/558 294/307/558
f 288/298/559 287/297/559 295/298/559 292/307/559
f 294/297/560 293/298/560 295/297/560
f 292/298/561 295/297/561 293/298/561

