mtllib anim_barb_run2_axe_000028.mtl

o fat
usemtl axe.001
s off

v 25.056650 76.872810 16.090910
v 22.057049 70.202087 16.443790
v 30.894279 73.802673 21.527241
v 28.491671 71.579163 20.846529
v 31.976139 72.303429 22.605911
v 29.573540 70.079918 21.925211
v 34.064182 64.390358 25.071831
v 27.694330 62.390060 22.064421
v 29.741381 81.208336 17.418171
v 38.748901 68.725883 26.399099
v 36.111217 83.208626 20.425579
v 33.296890 76.026192 22.207939
v 34.378761 74.526939 23.286610
v 41.748501 75.396599 26.046209
v 29.426800 71.071739 19.203400
v 31.829411 73.295250 19.884100
v 30.508659 69.572517 20.282070
v 32.911270 71.796021 20.962770
v 34.231998 75.518761 20.564789
v 35.313881 74.019531 21.643469
v 4.516530 49.391178 14.053960
v 5.598390 47.891953 15.132629
v 6.533510 47.384529 13.489480
v 5.451650 48.883762 12.410810
v 39.364880 79.705208 23.359150
v -19.399200 24.757750 8.050370
v -18.464081 24.250332 6.407230
v -19.545950 25.749559 5.328550
v -20.481070 26.256981 6.971700

vt 0.033358 0.643728
vt 0.190411 0.923560
vt 0.402692 0.503812
vt 0.402692 0.647326
vt 0.408249 0.287497
vt 0.408249 0.367848
vt 0.492649 0.287497
vt 0.492649 0.367848
vt 0.403043 0.503812
vt 0.403044 0.647326
vt 0.033710 0.643728
vt 0.190763 0.923560
vt 0.033358 0.363896
vt 0.033710 0.363896
vt 0.190411 0.084064
vt 0.402692 0.360297
vt 0.408249 0.207147
vt 0.492649 0.207147
vt 0.403043 0.360297
vt 0.190763 0.084064
vt 0.408248 1.036942
vt 0.492649 1.036942
vt 0.483600 0.371280
vt 0.402049 0.371280
vt 0.402049 1.040375
vt 0.483600 1.040375
vt 0.450449 0.037941
vt 0.483600 0.210579
vt 0.402049 0.210579
vt 0.442825 0.041374
vt 0.000000 1.000000

vn -0.563815 0.294349 0.771668
vn -0.574100 0.401965 0.713325
vn -0.477711 0.259214 0.839405
vn -0.411423 0.170456 0.895363
vn -0.455884 0.127354 0.880880
vn -0.536640 0.343980 0.770516
vn -0.490181 0.386001 0.781490
vn -0.359554 0.104654 0.927237
vn -0.385283 0.220649 0.896031
vn 0.359554 -0.104654 -0.927237
vn 0.385283 -0.220649 -0.896031
vn 0.477710 -0.259216 -0.839405
vn 0.490181 -0.386000 -0.781490
vn 0.536639 -0.343981 -0.770517
vn 0.411422 -0.170456 -0.895364
vn 0.455884 -0.127354 -0.880880
vn 0.563815 -0.294350 -0.771668
vn 0.574100 -0.401966 -0.713325
vn 0.001865 -0.955177 0.296030
vn -0.826180 0.192311 -0.529569
vn -0.001867 0.955178 -0.296025
vn 0.826180 -0.192312 0.529568
vn -0.505431 0.700417 -0.503940
vn 0.505435 -0.700419 0.503933
vn -0.374226 0.348300 0.859443
vn 0.572093 -0.165188 -0.803382
vn 0.607673 -0.592533 0.528808
vn -0.391711 0.792394 -0.467627
vn -0.718563 -0.664998 -0.203581

f 1/1/1 2/2/1 3/3/1
f 4/4/2 3/3/2 2/2/2
f 3/5/3 4/6/3 5/7/3
f 6/8/3 5/7/3 4/6/3
f 5/9/4 6/10/4 7/11/4
f 8/12/5 7/11/5 6/10/5
f 9/13/6 1/1/6 3/3/6
f 7/11/4 10/14/4 5/9/4
f 11/15/7 9/13/7 12/16/7
f 3/3/6 12/16/6 9/13/6
f 12/17/3 3/5/3 13/18/3
f 5/7/3 13/18/3 3/5/3
f 13/19/8 5/9/8 14/20/8
f 10/14/9 14/20/9 5/9/9
f 15/4/10 2/2/10 16/3/10
f 1/1/11 16/3/11 2/2/11
f 17/8/12 15/6/12 18/7/12
f 16/5/12 18/7/12 15/6/12
f 8/12/13 17/10/13 7/11/13
f 18/9/14 7/11/14 17/10/14
f 16/3/15 1/1/15 9/13/15
f 7/11/14 18/9/14 10/14/14
f 16/3/15 9/13/15 19/16/15
f 11/15/16 19/16/16 9/13/16
f 18/7/12 16/5/12 20/18/12
f 19/17/12 20/18/12 16/5/12
f 10/14/17 18/9/17 14/20/17
f 20/19/18 14/20/18 18/9/18
f 4/4/19 2/2/19 15/4/19
f 17/10/20 8/12/20 6/10/20
f 13/19/21 14/20/21 20/19/21
f 19/16/22 11/15/22 12/16/22
f 6/8/3 4/6/3 21/21/3
f 21/21/3 22/22/3 6/8/3
f 15/6/12 17/8/12 23/22/12
f 23/22/12 24/21/12 15/6/12
f 4/23/23 15/24/23 24/25/23
f 24/25/23 21/26/23 4/23/23
f 17/24/24 6/23/24 22/26/24
f 22/26/24 23/25/24 17/24/24
f 12/17/25 13/18/25 25/27/25
f 20/18/26 19/17/26 25/27/26
f 13/28/27 20/29/27 25/30/27
f 19/29/28 12/28/28 25/30/28
f 23/22/24 22/21/24 26/22/24 27/31/24
f 21/21/23 24/22/23 28/21/23 29/31/23
f 24/21/12 23/22/12 27/21/12 28/31/12
f 22/22/3 21/21/3 29/22/3 26/31/3
f 28/21/29 27/22/29 29/21/29
f 26/22/29 29/21/29 27/22/29

