mtllib anim_barb_run_000004.mtl

o fat
usemtl fat.001
s off

v -0.162050 39.523170 -3.495520
v 1.860240 36.144421 6.136090
v 0.278680 39.686962 1.699400
v 0.410170 61.583473 -7.899910
v 9.032700 67.241539 -7.457620
v 2.812830 57.779587 -6.939790
v -0.362600 53.501793 -4.953550
v 7.963850 63.544029 -3.786510
v 7.707920 59.353401 -1.117580
v 6.919220 53.578072 -0.848410
v 4.142630 53.388729 -4.975840
v 6.418280 58.556591 -6.125880
v 8.960550 39.062969 5.034630
v 9.355210 39.680569 -1.733710
v 10.510790 39.236443 -2.082100
v 6.486830 40.534348 4.665770
v 3.993900 37.763470 7.078090
v 3.816400 36.084942 -5.446710
v 3.613430 39.022659 -5.471780
v 0.324130 38.876759 -4.167130
v -0.331030 36.633770 -4.239120
v 0.201120 67.236580 -7.609250
v 0.170300 69.229233 -7.646900
v 0.116980 60.531952 6.061050
v 5.164351 60.573151 3.921110
v 6.212600 64.758682 4.607500
v 8.976280 64.461357 2.148320
v 6.073950 67.560768 4.537460
v 11.322041 67.797302 0.118620
v 4.497020 53.646358 4.054050
v 1.102870 53.375889 5.311200
v 0.722780 67.467911 6.237090
v 4.637570 71.983849 -5.195370
v 10.817451 69.012230 -6.752360
v 11.570430 69.491310 -3.028040
v 2.880320 72.072548 3.618400
v 5.520500 73.196785 -0.846430
v 0.141240 71.251915 4.313680
v 2.663080 77.572868 0.711310
v 3.294830 75.200409 -2.561070
v 0.263690 75.343079 -3.419250
v 0.176080 78.227013 -0.532720
v 0.132030 73.274460 -5.228050
v 0.489180 49.049038 5.633010
v 5.364230 49.043869 5.032280
v 8.418850 48.692131 -0.145190
v 4.990690 48.098038 -5.334249
v -0.188040 48.012421 -6.038860
v 11.756400 66.230881 -0.381320
v 9.694430 65.388039 -7.829500
v 13.266410 66.442108 -3.039430
v 12.332760 67.574852 -6.213320
v 8.820430 63.715050 0.625220
v 2.581520 77.013885 6.199560
v 1.180830 75.498917 7.934610
v 2.867860 72.663521 4.764380
v 1.639600 71.595276 6.831620
v 0.698310 74.130333 7.879180
v 1.643460 77.468994 7.735360
v -0.144470 77.339211 8.001190
v 3.177320 78.348381 3.490160
v 0.535690 81.337975 8.120920
v -0.763210 81.288589 8.390600
v 1.701340 78.740250 8.359070
v 2.256590 80.600807 7.338550
v 1.223440 82.679504 5.412950
v -0.414440 82.674652 5.217910
v 0.269850 75.505402 8.458670
v -0.765430 78.085205 8.287930
v -0.900690 76.060478 9.461270
v -0.835060 75.476471 8.831690
v -0.843340 73.894051 8.847480
v 0.535200 71.131950 8.418270
v -0.861440 71.106476 8.907760
v 3.025130 80.686333 3.517960
v 2.543030 81.927711 2.955940
v -0.045170 82.175674 1.783130
v 13.548680 63.941212 -1.160780
v 14.013750 64.502197 -4.828650
v 8.928850 58.147720 -4.758130
v 10.629830 58.680592 -0.505030
v 10.416950 62.888943 -7.707200
v 11.472660 53.966942 -4.725770
v 13.037251 50.823700 -1.018110
v 11.213960 52.429359 -2.722450
v 14.478830 53.771149 -6.596160
v 15.776180 55.716400 -4.626700
v 14.579440 52.874496 -0.311320
v 15.382800 55.145500 -2.545550
v 13.511900 54.752048 0.009680
v 13.393069 53.198280 -1.932390
v 10.935659 54.802853 -0.838560
v 13.420879 56.574749 -6.719960
v 13.981131 55.348740 -6.746810
v 15.116060 60.998310 -4.809270
v 14.415950 60.498482 -1.398950
v 12.698669 54.902382 -1.641710
v 12.483760 59.049259 -7.736140
v 9.034389 49.592819 4.832800
v 7.520350 50.638870 4.377760
v 9.966820 50.522743 5.669420
v 9.222290 52.254738 5.806460
v 7.752820 52.598610 5.120990
v 4.392860 53.403400 9.021860
v 4.294040 52.492752 8.920950
v 5.457290 52.143814 8.421620
v 6.217430 52.740093 8.394620
v 6.788440 51.833920 9.709320
v 4.990360 53.121262 6.635940
v 5.533220 53.313988 7.908580
v 3.559450 53.236908 8.323110
v 3.417110 53.027058 10.057679
v 2.863910 52.866119 9.442350
v 5.370420 51.176712 11.305540
v 7.085030 47.347824 7.816850
v 6.183270 46.762383 9.469240
v 4.760690 46.493576 12.009510
v 4.613220 51.462868 10.300241
v 6.890400 47.295288 10.042430
v 8.062120 47.884651 8.597300
v 3.246260 50.386261 12.971090
v 1.662890 28.396349 4.111680
v 3.587950 18.908470 1.776090
v 1.416600 20.420330 6.379290
v 7.459350 27.466549 2.634230
v 8.671260 19.727539 4.554810
v 3.837630 27.358410 0.101860
v 5.490670 26.442221 6.836050
v 5.556460 21.177010 9.051480
v 5.654040 28.562500 6.738240
v 6.095960 30.448530 5.570360
v 8.885330 30.668991 0.717800
v 6.714660 35.457848 5.990050
v 6.373630 10.155560 9.203150
v 7.228370 7.635230 10.778410
v 4.272140 7.714450 8.153510
v 4.972070 9.593410 12.921930
v 2.834510 10.502481 10.195511
v 2.204040 7.472390 11.084451
v 2.981050 3.054790 9.409070
v 6.215970 3.227480 9.108980
v 2.611420 5.512230 17.324480
v 8.792070 5.813720 17.061941
v 5.391750 8.602380 19.965139
v 7.783640 6.950660 20.947220
v 3.774210 6.941880 21.717190
v -9.531150 67.451080 -5.970180
v -1.889640 57.752918 -7.112950
v -5.963200 64.170143 -2.384290
v -7.314670 59.267200 -1.074980
v -4.956670 53.484413 -3.359800
v -6.374790 53.372112 1.356620
v -5.746120 58.486382 -6.390510
v -8.995070 39.628460 0.182010
v -7.198770 39.281059 6.607610
v -10.215440 39.082027 -0.015960
v -4.642320 40.824753 5.815640
v -4.850960 37.345699 -5.568860
v -4.553440 39.675381 -4.978370
v -1.031660 39.108017 -4.475060
v -4.840500 60.514889 3.960470
v -5.139370 64.684494 5.410151
v -10.166930 64.295746 3.653490
v -4.830910 67.486145 5.494410
v -10.246300 68.645546 2.838920
v -2.454760 53.259083 5.400980
v -11.406030 68.697731 -4.750110
v -5.118430 71.944763 -4.489610
v -11.547100 69.700462 -0.165380
v -2.615970 72.051224 3.610760
v -5.915390 73.284042 -0.490040
v -2.505460 77.586098 0.219640
v -2.822440 75.203453 -2.827940
v -3.837170 48.639610 5.886690
v -8.028580 48.377079 1.104340
v -5.676870 47.822319 -4.632840
v -11.499300 66.443558 2.071780
v -9.582710 64.464638 -5.843630
v -13.194510 67.373741 -0.321920
v -12.599501 65.865967 -3.612480
v -9.727830 64.268738 2.318290
v -2.612380 75.514679 7.524510
v -3.597380 77.039574 5.531530
v -3.225610 72.688744 4.381180
v -2.856860 71.613968 6.345480
v -2.140420 74.142120 7.572280
v -1.316860 77.344078 7.874460
v -3.005530 77.488312 7.232720
v -3.589360 78.376495 2.758580
v -1.974020 81.348412 7.849570
v -3.184930 78.760559 7.830800
v -3.493930 80.624710 6.716820
v -2.056070 82.693130 5.058410
v -1.834430 75.514137 8.231160
v -2.120930 71.142990 8.131090
v -3.427430 80.713135 2.820370
v -2.826160 81.950012 2.375430
v -12.730350 63.932236 1.534850
v -13.795441 63.851921 -2.080750
v -9.256060 59.159969 2.480580
v -8.772570 58.480320 -1.967900
v -10.431339 62.174168 -5.239630
v -12.068800 49.988827 2.788630
v -9.938810 53.632889 -0.733110
v -10.238770 51.907192 0.868760
v -13.050631 52.936951 -2.312190
v -14.343229 55.099541 -0.542430
v -12.488400 52.383453 4.384680
v -13.775750 54.836342 1.561420
v -10.483299 54.660831 4.379670
v -8.125561 54.479008 2.775980
v -11.595390 53.178841 2.269920
v -12.286119 55.773048 -2.999930
v -12.669350 54.561710 -2.725910
v -14.394079 60.262829 -1.582180
v -13.309770 60.395969 1.776140
v -10.721869 55.846947 1.731960
v -11.785580 58.153801 -4.468300
v -7.796040 48.082710 8.188420
v -6.087540 48.576031 7.422520
v -8.296801 48.943039 9.050120
v -7.139390 50.494617 9.084490
v -5.779100 50.507732 8.203320
v -1.931850 49.369659 11.451750
v -1.821900 50.378998 11.607840
v -3.174590 49.323429 11.119530
v -3.819120 50.178650 11.231480
v -4.406370 49.392429 12.618450
v -3.088630 50.589661 10.655840
v -2.763910 50.273701 9.309060
v -1.125140 49.909740 10.744161
v -0.834150 49.756561 12.504010
v -0.420210 49.488319 11.820520
v -2.985280 48.378456 14.010670
v -5.269730 44.412617 12.350889
v -6.195600 45.291042 10.858980
v -3.623480 43.646549 14.637460
v -2.306710 48.387951 12.859800
v -5.529230 44.996983 12.975710
v -6.707810 45.882393 11.702030
v -0.919010 46.953720 15.328960
v -3.885920 32.925343 -1.873140
v -0.906870 25.949591 2.557470
v -1.070570 29.080761 -4.295190
v -8.520280 29.751129 -3.553070
v -6.854250 26.153830 2.107090
v -3.512660 27.619980 1.759100
v -4.672490 24.241829 1.783040
v -4.790860 26.160919 -5.883330
v -4.610570 24.417440 2.955550
v -4.430340 25.362680 3.977570
v -8.366529 27.262449 3.459570
v -4.787340 34.230820 6.091880
v -7.587900 35.159489 -16.035910
v -6.615891 34.168850 -13.307951
v -5.023240 37.308090 -14.301810
v -5.163770 32.460159 -15.813399
v -2.627260 35.418579 -16.356380
v -3.009630 33.844280 -13.667220
v -3.712860 39.383472 -18.841000
v -6.803250 39.219353 -18.642340
v -2.672370 31.539719 -21.535450
v -8.501960 30.881760 -21.249809
v -4.154430 27.358521 -20.547550
v -6.443910 27.075739 -22.570459
v -2.371870 27.202011 -22.836960

vt 0.550479 0.485338
vt 0.414517 0.485338
vt 0.489174 0.497239
vt 0.490853 0.675485
vt 0.356970 0.710738
vt 0.458986 0.602657
vt 0.458693 0.603155
vt 0.491001 0.506534
vt 0.357039 0.710738
vt 0.272881 0.708251
vt 0.307767 0.663467
vt 0.329118 0.504113
vt 0.420682 0.504388
vt 0.307693 0.663467
vt 0.420389 0.504181
vt 0.390374 0.619683
vt 0.389206 0.622726
vt 0.390855 0.620128
vt 0.309151 0.663075
vt 0.578845 0.971377
vt 0.529882 0.993867
vt 0.501054 0.950636
vt 0.597833 0.993868
vt 0.684209 0.993870
vt 0.691613 0.940228
vt 0.584242 0.936155
vt 0.602549 0.993867
vt 0.689094 0.993870
vt 0.694409 0.971380
vt 0.730001 0.975635
vt 0.490853 0.781888
vt 0.490853 0.820915
vt 0.240556 0.660920
vt 0.133663 0.660928
vt 0.131880 0.753091
vt 0.060606 0.782384
vt 0.055577 0.663688
vt 0.136145 0.808744
vt 0.060014 0.783494
vt 0.058190 0.859642
vt 0.160773 0.512959
vt 0.067037 0.515196
vt 0.240700 0.512959
vt 0.131877 0.752996
vt 0.240556 0.781375
vt 0.390182 0.870896
vt 0.298691 0.847983
vt 0.294173 0.886121
vt 0.181129 0.899551
vt 0.052544 0.886601
vt 0.145152 0.921474
vt 0.235241 0.891030
vt 0.142740 0.921054
vt 0.172936 0.966074
vt 0.456563 0.999059
vt 0.389917 0.922986
vt 0.429989 0.941889
vt 0.491140 0.942697
vt 0.490646 0.999330
vt 0.490853 0.898039
vt 0.701416 0.118225
vt 0.813217 0.120956
vt 0.790107 0.184348
vt 0.877923 0.002315
vt 0.872775 0.120438
vt 0.505869 0.118716
vt 0.564263 0.119120
vt 0.507564 0.183764
vt 0.697589 0.180917
vt 0.580429 0.182675
vt 0.710756 0.001536
vt 0.701372 0.182427
vt 0.812168 0.002315
vt 0.857243 0.184348
vt 0.697567 0.116528
vt 0.503935 0.000692
vt 0.561277 0.000692
vt 0.688827 -0.000098
vt 0.002866 0.854679
vt 0.027518 0.706813
vt 0.061197 0.782654
vt 0.055608 0.663958
vt 0.251604 0.781884
vt 0.357109 0.710738
vt 0.243886 0.876138
vt 0.247300 0.848527
vt -0.000514 0.880403
vt 0.006948 0.782948
vt 0.674684 0.829607
vt 0.705811 0.784366
vt 0.654033 0.662928
vt 0.703232 0.671848
vt 0.720473 0.730776
vt 0.697736 0.853617
vt 0.729837 0.853035
vt 0.623758 0.856571
vt 0.587609 0.811448
vt 0.658187 0.605708
vt 0.748523 0.593788
vt 0.716351 0.931575
vt 0.747491 0.935506
vt 0.695349 0.885675
vt 0.676247 0.904603
vt 0.649719 0.961956
vt 0.745560 1.001324
vt 0.725611 0.781438
vt 0.747491 0.878462
vt 0.747491 0.808438
vt 0.720379 0.731031
vt 0.747491 0.790807
vt 0.720762 0.730332
vt 0.748639 0.732530
vt 0.746944 0.628012
vt 0.703659 0.671442
vt 0.731857 0.666086
vt 0.747085 0.666819
vt 0.703186 0.671176
vt 0.611291 0.885598
vt 0.604148 0.909350
vt 0.550618 0.823662
vt 0.550618 0.934468
vt 0.625864 0.557513
vt 0.571978 0.557920
vt 0.578607 0.510287
vt 0.669444 0.510287
vt 0.756032 0.560223
vt 0.679695 0.557918
vt 0.877240 0.461159
vt 0.992418 0.461159
vt 0.944262 0.560223
vt 0.756457 0.510287
vt 0.806202 0.560223
vt 0.498275 0.560223
vt 0.875566 0.382888
vt 0.758260 0.308662
vt 0.875912 0.308662
vt 0.759996 0.360654
vt 0.669163 0.382888
vt 0.671223 0.308662
vt 0.584325 0.382888
vt 0.577057 0.308662
vt 0.498223 0.363687
vt 0.498247 0.308662
vt 0.992597 0.308662
vt 0.992439 0.363687
vt 0.759483 0.410364
vt 0.758924 0.382888
vt 0.665903 0.461159
vt 0.580075 0.461159
vt 0.498223 0.402657
vt 0.992438 0.402657
vt 0.760539 0.449273
vt 0.498220 0.461159
vt 0.875438 0.575163
vt 0.762705 0.196431
vt 0.858161 0.196355
vt 0.690657 0.196417
vt 0.588027 0.196417
vt 0.498144 0.196431
vt 0.991918 0.196431
vt 0.375723 0.009258
vt 0.380090 0.017573
vt 0.356438 0.030356
vt 0.342839 0.029458
vt 0.369327 0.043627
vt 0.316032 0.012201
vt 0.336848 0.019568
vt 0.249292 0.041099
vt 0.371147 0.002582
vt 0.416197 0.004791
vt 0.408124 0.000758
vt 0.128136 0.016613
vt 0.154876 0.002573
vt 0.119423 0.002194
vt 0.160447 0.001473
vt 0.065726 0.014292
vt 0.105093 0.028910
vt 0.000825 0.069213
vt 0.000703 0.039244
vt 0.249314 0.055441
vt 0.429228 0.045736
vt 0.102506 0.115410
vt 0.153549 0.117195
vt 0.189513 0.114692
vt 0.228429 0.109580
vt 0.194639 0.033982
vt 0.406548 0.108121
vt 0.355355 0.108206
vt 0.448349 0.035630
vt 0.498209 0.039288
vt 0.461840 0.047992
vt 0.483032 0.114221
vt 0.406174 0.120334
vt 0.355217 0.119080
vt 0.243215 0.037501
vt 0.249314 0.089732
vt 0.000703 0.095058
vt 0.249292 0.105039
vt 0.160984 0.032072
vt 0.413806 0.033644
vt 0.442212 0.108407
vt 0.443088 0.117732
vt 0.023914 0.327327
vt 0.104127 0.227894
vt 0.000784 0.227894
vt 0.216171 0.327327
vt 0.216985 0.228421
vt 0.105699 0.228145
vt 0.104981 0.327662
vt 0.217575 0.327327
vt 0.351490 0.301452
vt 0.217290 0.227894
vt 0.351571 0.227894
vt 0.352420 0.301452
vt 0.489174 0.227894
vt 0.352342 0.227894
vt 0.471690 0.333380
vt 0.351597 0.328057
vt 0.217345 0.328075
vt 0.352312 0.363299
vt 0.470864 0.334174
vt 0.352330 0.328057
vt 0.216660 0.380224
vt 0.216104 0.328075
vt 0.104983 0.328371
vt 0.217232 0.380224
vt 0.351611 0.363299
vt 0.351459 0.420971
vt 0.352499 0.420971
vt 0.351589 0.497239
vt 0.229465 0.497239
vt 0.352627 0.497239
vt 0.229583 0.497239
vt 0.133020 0.497239
vt 0.072972 0.497239
vt 0.025422 0.328212
vt 0.002386 0.497239
vt 0.216130 0.152222
vt 0.223982 0.125749
vt 0.105883 0.155747
vt 0.351732 0.147623
vt 0.223132 0.128232
vt 0.218721 0.149411
vt 0.469070 0.149411
vt 0.483427 0.127273
vt 0.352306 0.146326
vt 0.017963 0.152222
vt 0.104256 0.155747
vt 0.009616 0.131504
vt 0.104128 0.227914
vt 0.000790 0.227921
vt 0.216984 0.228396
vt 0.351571 0.227971
vt 0.217291 0.227882
vt 0.352342 0.227879
vt 0.489111 0.227891
vt 0.948232 0.041698
vt 0.989968 0.003451
vt 0.971575 0.059997
vt 0.909211 0.004273
vt 0.996004 0.120663
vt 0.925604 0.058708
vt 0.885225 0.122889
vt 0.516483 0.798440
vt 0.501430 0.685191
vt 0.597947 0.686709
vt 0.594444 0.793024
vt 0.950876 0.082499
vt 0.943924 0.157220
vt 0.507177 0.624822
vt 0.600053 0.622523
vt 0.901715 0.182549
vt 0.982420 0.184037
vt 0.730212 0.975635
vt 0.685579 0.991654
vt 0.692830 0.969164

vn -0.946534 -0.309775 0.090070
vn 0.149827 -0.151957 -0.976965
vn -0.144064 -0.326759 -0.934063
vn 0.808313 0.280357 0.517715
vn 0.824690 -0.138183 -0.548445
vn -0.014848 -0.411997 -0.911064
vn 0.274009 -0.322301 -0.906113
vn 0.931549 -0.309651 -0.190610
vn 0.260041 -0.222364 -0.939645
vn 0.889537 -0.427541 -0.161035
vn -0.384431 -0.917037 -0.106094
vn -0.496348 -0.861436 -0.107546
vn -0.197030 -0.536900 -0.820316
vn -0.043608 -0.684392 0.727809
vn -0.542899 -0.030348 0.839249
vn 0.264708 -0.108076 0.958253
vn 0.367211 0.033303 0.929541
vn 0.958459 -0.281447 0.046296
vn 0.017174 -0.018624 -0.999679
vn 0.380440 -0.241669 0.892671
vn 0.724864 -0.489751 0.484475
vn 0.643689 0.012932 0.765178
vn 0.390399 -0.019946 0.920430
vn 0.893409 -0.077579 0.442495
vn 0.350379 -0.049733 0.935287
vn 0.262676 -0.047403 0.963719
vn -0.037235 0.401935 -0.914911
vn 0.017114 0.051973 -0.998502
vn 0.622199 -0.275968 0.732605
vn 0.385022 0.902306 -0.193914
vn 0.301879 0.038747 0.952559
vn 0.135989 0.526403 -0.839289
vn 0.666959 0.051581 0.743307
vn 0.537810 0.516428 0.666380
vn 0.579305 0.697751 0.421366
vn 0.259956 0.468996 0.844076
vn 0.149952 0.298165 0.942662
vn 0.779457 0.316516 0.540614
vn 0.753162 0.593091 -0.284588
vn 0.473540 0.630226 -0.615285
vn 0.194188 0.811636 -0.550943
vn 0.547044 0.676017 0.493703
vn 0.407712 0.854763 -0.321172
vn 0.757285 0.572903 -0.313530
vn 0.196857 0.669089 -0.716636
vn 0.238768 0.630551 -0.738509
vn 0.151754 0.508316 -0.847694
vn 0.119320 0.227874 0.966352
vn 0.860557 0.087605 0.501763
vn 0.813253 0.169487 -0.556681
vn -0.003255 0.067068 -0.997743
vn 0.120836 0.162911 0.979213
vn 0.345799 0.020724 0.938080
vn 0.920098 0.331579 0.208508
vn 0.825278 0.320247 0.465144
vn 0.868515 0.254100 0.425575
vn 0.814320 0.168163 -0.555522
vn 0.129008 0.196284 -0.972024
vn 0.784040 0.286275 -0.550752
vn 0.462589 -0.036926 -0.885803
vn 0.134879 -0.003908 -0.990854
vn -0.294299 -0.145698 -0.944542
vn 0.349085 0.126001 0.928581
vn 0.960378 0.206613 0.187043
vn 0.978046 -0.151117 -0.143489
vn 0.139044 0.242289 -0.960189
vn 0.686661 -0.041239 0.725807
vn 0.870756 0.484627 -0.083186
vn 0.771177 0.427167 0.472031
vn 0.438372 0.128544 -0.889554
vn 0.711564 0.664153 -0.229299
vn -0.859152 -0.213415 -0.465093
vn -0.961252 -0.195633 0.194220
vn 0.678207 -0.684952 0.266227
vn 0.823397 -0.128173 0.552802
vn 0.449121 -0.193670 0.872228
vn 0.142009 0.066540 0.987626
vn 0.977229 -0.005655 0.212111
vn 0.984479 -0.050027 -0.168221
vn 0.998308 -0.046533 0.034854
vn 0.357624 -0.828412 0.431091
vn 0.193735 0.175423 0.965243
vn 0.911170 -0.047426 0.409292
vn 0.974673 0.017497 0.222951
vn -0.054130 0.900157 0.432190
vn 0.475327 0.312559 0.822418
vn 0.684976 0.318255 0.655379
vn 0.699334 0.322849 0.637731
vn 0.486843 -0.206022 0.848845
vn 0.313348 -0.284215 0.906110
vn 0.049234 0.913259 0.404393
vn -0.020318 -0.032014 0.999281
vn 0.245445 -0.697825 0.672902
vn 0.531248 0.005677 0.847197
vn 0.474807 -0.864552 -0.164644
vn 0.867605 -0.038125 0.495790
vn 0.007735 -0.999521 -0.029955
vn 0.513966 0.124631 0.848708
vn 0.810867 0.060543 0.582091
vn 0.314386 -0.947530 -0.057867
vn 0.330398 0.018259 0.943665
vn 0.977702 0.066016 -0.199352
vn 0.917814 0.201591 -0.342022
vn 0.767695 -0.310090 0.560793
vn 0.163228 -0.440539 0.882769
vn 0.826306 -0.138832 0.545843
vn 0.056784 -0.316669 0.946835
vn 0.520853 0.704898 0.481489
vn 0.978250 0.061325 0.198155
vn 0.884047 0.428178 0.187417
vn 0.769131 0.595994 0.230715
vn 0.497931 0.298089 0.814376
vn 0.492008 0.409542 -0.768247
vn 0.399782 0.480278 -0.780710
vn 0.151110 0.980430 -0.126184
vn 0.030215 0.960227 -0.277580
vn 0.878622 -0.098208 0.467309
vn 0.765635 0.439365 0.469852
vn 0.560221 -0.065627 -0.825739
vn 0.891616 0.440426 -0.105097
vn -0.838225 -0.387418 0.383777
vn 0.961460 0.226069 0.156486
vn 0.583534 0.129475 -0.801701
vn -0.836666 -0.265339 -0.479151
vn 0.354760 -0.040292 0.934089
vn -0.113725 -0.780987 -0.614105
vn -0.366242 -0.780294 -0.506958
vn 0.854446 -0.516899 -0.052309
vn 0.814133 -0.562390 -0.144586
vn 0.967332 -0.222304 0.121863
vn 0.740319 0.319836 0.591297
vn 0.218297 0.755454 -0.617766
vn -0.697320 0.579888 -0.421278
vn 0.061645 0.624935 -0.778239
vn -0.444572 0.737386 0.508545
vn -0.466553 -0.290342 -0.835482
vn -0.532824 -0.225624 -0.815593
vn 0.691429 0.330041 -0.642650
vn 0.675064 0.058947 -0.735400
vn 0.967581 0.128442 0.217462
vn 0.967510 0.128054 0.218007
vn 0.321455 -0.030452 0.946435
vn -0.762762 -0.529401 0.371386
vn -0.850642 -0.058033 -0.522533
vn -0.486965 -0.483207 -0.727582
vn 0.741708 0.005463 -0.670701
vn 0.566634 0.173807 -0.805430
vn 0.940626 0.296829 0.164667
vn 0.947932 0.223072 0.227298
vn 0.355592 -0.081236 0.931104
vn 0.233604 -0.008417 0.972295
vn -0.958990 -0.206458 0.194200
vn 0.737308 0.170174 -0.653772
vn -0.523787 -0.243202 -0.816395
vn -0.802379 -0.402176 0.440957
vn 0.327385 -0.140996 0.934312
vn -0.766513 -0.462943 0.445131
vn 0.286108 -0.128987 0.949476
vn 0.587405 0.321783 -0.742570
vn -0.566952 -0.299392 -0.767417
vn -0.425525 -0.799952 -0.423091
vn -0.350116 -0.839223 -0.416081
vn 0.576411 -0.784314 0.229350
vn 0.710888 -0.637186 0.297713
vn 0.700765 0.286760 0.653221
vn 0.719923 0.258512 0.644113
vn 0.022408 0.912036 0.409497
vn -0.082305 0.948222 0.306759
vn -0.892478 0.211569 -0.398398
vn -0.882714 0.254518 -0.395016
vn 0.354524 -0.140899 0.924370
vn -0.465132 0.621496 0.630393
vn 0.084235 0.979266 -0.184238
vn -0.082084 0.987125 -0.137286
vn -0.048564 0.990418 -0.129281
vn -0.270045 0.958270 0.093774
vn -0.362027 0.928499 0.082624
vn 0.685703 0.254493 0.681942
vn 0.746454 -0.152769 0.647663
vn -0.384248 -0.778281 -0.496620
vn -0.116118 -0.930373 0.347740
vn -0.497025 -0.786000 -0.367655
vn -0.405167 -0.842428 -0.355184
vn -0.757365 -0.635565 -0.149856
vn -0.393141 0.366454 -0.843298
vn 0.249444 0.967119 -0.049574
vn -0.084153 0.945509 0.314532
vn -0.823810 -0.213373 -0.525175
vn -0.846736 -0.195342 -0.494853
vn 0.732277 0.066196 0.677782
vn 0.762136 0.064402 0.644206
vn -0.087895 0.938682 0.333393
vn 0.607223 0.040222 0.793513
vn 0.584864 -0.810499 0.032018
vn 0.468999 -0.882968 0.020175
vn -0.837178 -0.199948 -0.509071
vn 0.794642 0.299829 0.527871
vn -0.896037 -0.258603 -0.360890
vn -0.264147 -0.679905 -0.684072
vn 0.747706 -0.655764 -0.104447
vn -0.283168 0.400449 0.871468
vn 0.796600 0.088531 0.597989
vn 0.590586 -0.781288 -0.201984
vn 0.439430 0.824947 0.355477
vn 0.447990 0.815124 0.367258
vn -0.862398 -0.206333 -0.462273
vn -0.061281 0.946884 0.315682
vn 0.673557 0.023356 0.738766
vn 0.491346 -0.851067 0.185103
vn -0.911684 -0.086074 -0.401776
vn 0.491996 -0.136343 -0.859855
vn 0.567601 -0.176120 -0.804245
vn 0.852728 0.247670 0.459906
vn 0.833513 0.223093 0.505455
vn -0.554577 0.316832 0.769456
vn -0.471083 0.254651 0.844532
vn 0.909075 -0.050972 0.413503
vn -0.478052 0.540652 0.692214
vn 0.471249 -0.597879 -0.648433
vn 0.865210 -0.090086 0.493250
vn 0.860409 -0.147145 0.487898
vn -0.293955 -0.043690 0.954820
vn 0.917868 0.029990 0.395751
vn -0.550283 0.080738 0.831065
vn -0.884161 -0.065525 -0.462565
vn 0.910188 0.142321 0.388977
vn -0.444659 0.207353 0.871369
vn 0.937485 0.045000 0.345103
vn 0.548469 -0.246002 -0.799165
vn 0.362716 -0.396100 -0.843530
vn -0.319788 -0.413503 -0.852497
vn -0.847581 -0.391367 -0.358382
vn -0.492957 0.123569 0.861234
vn -0.992756 -0.119819 0.008856
vn 0.641235 -0.238403 -0.729371
vn 0.784135 0.497664 0.370759
vn -0.685100 0.332668 0.648051
vn -0.817106 0.000893 -0.576487
vn 0.695693 -0.323018 -0.641616
vn -0.916916 -0.238386 -0.320059
vn -0.903441 -0.260250 -0.340682
vn 0.479956 -0.473772 -0.738365
vn 0.830374 0.069176 0.552895
vn 0.929452 0.073887 0.361468
vn -0.718726 0.252693 0.647749
vn -0.557107 0.227652 0.798628
vn -0.817727 0.072720 -0.570994
vn -0.077002 -0.239454 -0.967849
vn -0.984267 -0.176469 0.008825
vn 0.955340 -0.116584 -0.271538
vn 0.058952 -0.954785 0.291394
vn 0.078499 -0.951041 0.298929
vn 0.678255 0.733517 0.043848
vn 0.660375 0.128539 -0.739853
vn -0.689618 0.676800 0.257623
vn 0.665384 0.743667 0.064991
vn -0.790137 0.598696 0.131323
vn 0.058616 -0.953899 0.294349
vn 0.059045 -0.953741 0.294773
vn 0.588983 0.803935 -0.082382
vn 0.141998 0.649679 0.746830
vn -0.730872 0.681921 -0.028468
vn 0.355507 -0.774877 -0.522666
vn -0.226326 -0.063800 -0.971960
vn 0.281389 -0.352316 -0.892577
vn -0.485797 0.348026 0.801797
vn -0.921942 -0.263923 -0.283492
vn -0.279653 -0.512767 -0.811705
vn -0.252470 -0.530252 -0.809377
vn -0.903814 -0.371658 -0.212110
vn -0.190330 -0.034358 -0.981119
vn -0.929322 -0.287264 -0.232034
vn 0.425363 -0.889481 -0.167002
vn 0.467798 -0.865811 -0.177585
vn -0.020294 -0.429565 -0.902808
vn 0.277231 -0.807683 0.520377
vn 0.734319 -0.253392 0.629736
vn -0.280458 0.012108 0.959790
vn -0.172804 -0.221203 0.959796
vn -0.943263 -0.245814 0.223226
vn -0.166494 -0.021203 -0.985814
vn -0.367489 -0.328809 0.869964
vn -0.536102 -0.719393 0.441666
vn -0.406532 0.160999 0.899339
vn -0.389723 0.054373 0.919326
vn -0.715958 -0.098184 0.691205
vn 0.028393 -0.100303 0.994552
vn -0.133381 -0.013503 0.990973
vn -0.219811 0.493174 -0.841703
vn -0.164957 0.044561 -0.985294
vn -0.288005 -0.332834 0.897928
vn -0.442436 0.873153 -0.204582
vn -0.132581 -0.015211 0.991055
vn -0.236069 0.505294 -0.830030
vn -0.330390 0.007988 0.943811
vn -0.299368 0.484433 0.822012
vn -0.456320 0.759171 0.464147
vn -0.117912 0.435504 0.892431
vn -0.106744 0.423066 0.899790
vn -0.647862 0.407324 0.643710
vn -0.683087 0.608148 -0.404411
vn -0.345034 0.658726 -0.668605
vn -0.150381 0.786379 -0.599161
vn -0.388432 0.748452 0.537532
vn -0.515089 0.776619 -0.362694
vn -0.671072 0.652404 -0.352181
vn -0.255074 0.575810 -0.776775
vn -0.170708 0.654719 -0.736343
vn -0.242886 0.496141 -0.833577
vn 0.049840 0.089673 0.994723
vn -0.751082 0.098017 0.652893
vn -0.869667 0.307441 -0.386211
vn -0.318485 0.246317 -0.915366
vn 0.044696 0.140528 0.989067
vn 0.022838 0.070929 0.997220
vn -0.860170 0.338369 0.381593
vn -0.740551 0.212997 0.637351
vn -0.686273 0.276123 0.672893
vn -0.942726 0.182665 -0.279108
vn -0.249940 0.180147 -0.951355
vn -0.885755 0.255127 -0.387747
vn -0.718328 0.005527 -0.695682
vn -0.249762 0.066618 -0.966013
vn 0.256438 -0.154145 -0.954190
vn -0.029994 0.087477 0.995715
vn -0.828536 0.308719 0.467140
vn -0.817780 0.072964 -0.570887
vn -0.557129 -0.025554 -0.830033
vn -0.668594 0.125073 0.733034
vn -0.740438 0.550228 -0.386007
vn -0.654772 0.421391 0.627458
vn -0.611268 -0.059424 -0.789189
vn -0.930810 0.350037 -0.105197
vn 0.688492 -0.042566 -0.723994
vn -0.001553 -0.999804 0.019720
vn -0.741371 -0.630064 -0.231058
vn -0.928659 -0.166933 0.331250
vn -0.626742 -0.189199 0.755909
vn -0.349276 0.068584 0.934506
vn -0.996434 -0.074841 -0.038964
vn -0.923129 -0.187299 -0.335786
vn -0.841619 -0.197252 -0.502761
vn -0.349578 -0.838766 0.417452
vn -0.394117 0.177875 0.901683
vn -0.977951 -0.039573 0.205049
vn -0.999624 0.025703 0.009502
vn -0.032094 0.900064 0.434575
vn -0.637534 0.317176 0.702104
vn -0.806572 0.324448 0.494141
vn -0.816797 0.329148 0.473819
vn -0.658689 -0.201260 0.724999
vn -0.502094 -0.280822 0.817949
vn -0.127024 0.913992 0.385337
vn -0.193988 -0.031292 0.980505
vn -0.389319 -0.695184 0.604277
vn -0.699976 0.010792 0.714085
vn -0.367685 -0.843152 -0.392304
vn -0.982320 0.005001 0.187144
vn -0.008342 -0.999405 -0.033460
vn -0.682440 0.129599 0.719361
vn -0.916013 0.067717 0.395392
vn -0.224996 -0.961007 -0.160752
vn -0.524298 0.021812 0.851255
vn -0.908679 0.073839 -0.410913
vn -0.818595 0.204912 -0.536576
vn -0.872331 -0.303279 0.383485
vn -0.351757 -0.438405 0.827084
vn -0.924985 -0.131551 0.356506
vn -0.260432 -0.315330 0.912547
vn -0.605914 0.709579 0.359673
vn -0.997460 0.069535 -0.015446
vn -0.900126 0.435594 -0.005477
vn -0.795747 0.602496 0.061528
vn -0.658012 0.302898 0.689400
vn -0.334718 0.397472 -0.854389
vn -0.219666 0.484357 -0.846844
vn -0.112591 0.981526 -0.154694
vn 0.037694 0.960197 -0.276768
vn -0.900387 0.035320 0.433654
vn -0.748204 0.234036 0.620820
vn -0.638958 -0.187893 -0.745941
vn -0.902662 0.305431 -0.303172
vn 0.991145 0.094490 0.093288
vn -0.959133 0.022807 0.282036
vn -0.669489 0.052660 -0.740953
vn 0.613949 -0.405983 -0.676938
vn -0.242272 -0.087821 0.966226
vn -0.068534 -0.672299 -0.737100
vn 0.426783 -0.744967 -0.512719
vn -0.886078 -0.454311 -0.092021
vn -0.936995 -0.292002 0.191768
vn -0.945101 -0.236680 0.225316
vn -0.552469 0.487906 0.675815
vn -0.250503 0.849358 -0.464585
vn 0.582372 0.488260 -0.649957
vn -0.140505 0.661649 -0.736532
vn 0.808909 0.318267 0.494341
vn 0.487672 -0.323848 -0.810739
vn 0.478450 -0.334988 -0.811707
vn -0.776553 0.105146 -0.621217
vn -0.740097 -0.139755 -0.657818
vn -0.950939 0.052048 0.304968
vn -0.960870 0.070186 0.267960
vn -0.132286 0.237351 0.962375
vn 0.888301 -0.429669 0.162193
vn 0.610707 -0.353398 -0.708623
vn 0.580628 -0.512337 -0.632758
vn -0.793401 -0.189883 -0.578325
vn -0.681295 0.011963 -0.731911
vn -0.941985 0.195062 0.273158
vn -0.939093 0.174089 0.296305
vn -0.253238 0.007346 0.967376
vn -0.143575 0.090768 0.985468
vn 0.736343 -0.319942 0.596185
vn -0.789783 0.029333 -0.612684
vn 0.484678 -0.320932 -0.813689
vn 0.871063 -0.194214 0.451143
vn -0.044219 -0.034854 0.998414
vn 0.910762 -0.118346 0.395611
vn -0.207397 -0.127408 0.969925
vn -0.700529 0.100418 -0.706524
vn 0.621374 -0.344333 -0.703796
vn 0.041718 -0.879757 -0.473590
vn 0.297092 -0.802007 -0.518190
vn -0.671361 -0.681797 0.290564
vn -0.807052 -0.418837 0.416225
vn -0.488860 0.432083 0.757839
vn -0.548681 0.392946 0.737931
vn 0.312977 0.810438 0.495213
vn 0.364073 0.819629 0.442334
vn 0.802077 -0.260524 -0.537401
vn 0.858193 0.068598 -0.508723
vn -0.252158 -0.121006 0.960090
vn 0.698511 0.454027 0.553120
vn 0.145902 0.970395 -0.192475
vn 0.371364 0.908042 -0.193772
vn 0.275151 0.948626 -0.156204
vn 0.544008 0.838909 -0.016933
vn 0.528080 0.849089 -0.013413
vn -0.533836 0.322492 0.781677
vn -0.684489 -0.038027 0.728031
vn 0.180201 -0.870128 -0.458699
vn -0.014030 -0.933645 0.357925
vn 0.195234 -0.874171 -0.444645
vn 0.148800 -0.889075 -0.432902
vn 0.558679 -0.779770 -0.282554
vn 0.348764 0.302819 -0.886941
vn -0.018279 0.999744 -0.013346
vn 0.373483 0.888678 0.266010
vn 0.630851 -0.430932 -0.645232
vn 0.665662 -0.416917 -0.618930
vn -0.600322 0.215947 0.770052
vn -0.633813 0.222133 0.740904
vn 0.429841 0.864488 0.260568
vn -0.440343 0.176010 0.880408
vn -0.813631 -0.553039 0.179310
vn -0.669486 -0.734832 0.108676
vn 0.667413 -0.416740 -0.617161
vn -0.629674 0.455773 0.629112
vn 0.722355 -0.511077 -0.465837
vn -0.101734 -0.717508 -0.689081
vn -0.876449 -0.480590 -0.029508
vn 0.498759 0.267992 0.824269
vn -0.669224 0.256736 0.697299
vn -0.818555 -0.565544 -0.100639
vn -0.180017 0.894152 0.409984
vn -0.188861 0.886455 0.422528
vn 0.687674 -0.438481 -0.578653
vn 0.422745 0.869215 0.256423
vn -0.569272 0.182951 0.801535
vn -0.711459 -0.635853 0.299195
vn 0.846682 0.491327 0.204275
vn -0.598792 0.584394 0.547660
vn -0.156128 0.550494 0.820110
vn -0.658341 -0.707822 -0.256077
vn -0.733581 -0.661842 -0.154349
vn 0.655438 -0.730197 -0.192907
vn 0.445722 -0.810129 -0.380819
vn -0.639522 -0.754629 0.146790
vn 0.360356 -0.715641 0.598332
vn -0.314786 0.530663 -0.786961
vn -0.447272 -0.868885 0.212099
vn -0.237164 -0.234323 0.942786
vn 0.394615 -0.198034 0.897252
vn -0.622320 -0.516904 0.587816
vn 0.390311 -0.913324 0.116176
vn 0.113235 0.566702 0.816104
vn -0.794973 0.042835 0.605130
vn 0.643927 0.017881 0.764877
vn -0.744485 0.135435 0.653758
vn -0.740556 -0.207083 -0.639291
vn -0.256271 -0.488329 -0.834182
vn 0.046851 -0.484235 -0.873682
vn -0.032117 -0.471349 -0.881362
vn 0.661324 -0.010224 0.750031
vn 0.975445 -0.096546 -0.197955
vn -0.732445 0.513224 0.447354
vn -0.744765 -0.666924 0.023183
vn 0.701883 -0.653705 -0.282896
vn 0.754854 0.513561 0.407984
vn -0.828425 0.500123 0.252168
vn 0.851566 0.513966 0.103316
vn 0.832575 0.544014 0.104247
vn -0.605051 0.763014 0.227428
vn -0.753459 -0.531091 -0.387610
vn -0.881367 -0.413207 -0.229023
vn 0.737753 -0.557174 -0.381154
vn 0.662805 -0.603170 -0.443707
vn 0.757526 0.482774 0.439414
vn -0.022027 0.911619 0.410445
vn 0.973806 0.177846 -0.141679
vn -0.980465 0.196398 0.010754
vn -0.081653 0.312600 -0.946369
vn -0.077524 0.314691 -0.946023
vn -0.643509 -0.532585 0.549772
vn -0.729000 0.463988 0.503263
vn 0.729246 -0.550710 0.406102
vn -0.582333 -0.611893 0.535234
vn 0.882578 -0.213912 0.418686
vn -0.071478 0.292261 -0.953664
vn -0.078631 0.281497 -0.956335
vn -0.529064 -0.519032 0.671340
vn 0.037187 -0.994595 0.096947
vn 0.777938 -0.130525 0.614634
vn -0.316388 -0.941254 -0.118067

f 1/1/1 2/2/1 3/3/1
f 4/4/2 5/5/2 6/6/2
f 4/4/3 6/7/3 7/8/3
f 5/9/4 8/10/4 9/11/4
f 10/12/5 11/13/5 9/14/5
f 6/6/6 11/15/6 7/8/6
f 6/6/7 12/16/7 11/13/7
f 12/17/8 5/5/8 9/14/8
f 6/6/9 5/5/9 12/17/9
f 11/13/10 12/18/10 9/19/10
f 13/20/11 14/21/11 15/22/11
f 14/21/12 13/20/12 16/23/12
f 16/24/13 13/20/13 17/25/13
f 15/22/14 14/21/14 18/26/14
f 14/21/15 19/27/15 18/26/15
f 18/26/16 20/28/16 21/29/16
f 18/26/17 19/27/17 20/28/17
f 20/28/18 3/30/18 21/29/18
f 5/9/19 22/31/19 23/32/19
f 24/33/20 25/34/20 26/35/20
f 27/36/21 25/34/21 9/37/21
f 28/38/22 27/39/22 29/40/22
f 30/41/23 25/34/23 24/33/23
f 25/34/24 30/41/24 10/42/24
f 30/41/25 24/33/25 31/43/25
f 24/33/26 26/44/26 32/45/26
f 33/46/27 34/47/27 5/9/27
f 4/4/28 22/31/28 5/9/28
f 26/35/29 25/34/29 27/39/29
f 33/46/30 35/48/30 34/47/30
f 32/45/31 26/35/31 28/38/31
f 23/32/32 33/46/32 5/9/32
f 26/35/33 27/39/33 28/38/33
f 28/38/34 29/40/34 36/49/34
f 35/50/35 37/51/35 29/40/35
f 28/38/36 38/52/36 32/45/36
f 36/49/37 38/52/37 28/38/37
f 36/49/38 37/53/38 39/54/38
f 39/55/39 37/56/39 40/57/39
f 41/58/40 42/59/40 39/55/40
f 39/55/41 40/57/41 41/58/41
f 36/49/42 29/40/42 37/51/42
f 37/56/43 35/48/43 33/46/43
f 37/56/44 33/46/44 40/57/44
f 40/57/45 33/46/45 43/60/45
f 40/57/46 43/60/46 41/58/46
f 33/46/47 23/32/47 43/60/47
f 44/61/48 45/62/48 30/63/48
f 15/64/49 46/65/49 45/62/49
f 46/66/50 47/67/50 10/68/50
f 47/67/51 7/69/51 11/70/51
f 45/62/52 44/61/52 17/71/52
f 44/61/53 30/63/53 31/72/53
f 13/73/54 15/64/54 45/62/54
f 46/65/55 10/74/55 45/62/55
f 45/62/56 10/74/56 30/63/56
f 47/67/57 11/70/57 10/68/57
f 47/67/58 48/75/58 7/69/58
f 46/66/59 15/76/59 47/67/59
f 18/77/60 47/67/60 15/76/60
f 47/67/61 18/77/61 48/75/61
f 18/77/62 21/78/62 48/75/62
f 13/73/63 45/62/63 17/71/63
f 49/79/64 35/50/64 29/40/64
f 8/80/65 27/81/65 9/82/65
f 34/47/66 50/83/66 5/84/66
f 27/36/67 49/79/67 29/40/67
f 35/48/68 51/85/68 52/86/68
f 35/50/69 49/79/69 51/87/69
f 52/86/70 50/83/70 34/47/70
f 35/48/71 52/86/71 34/47/71
f 5/84/72 50/83/72 8/10/72
f 53/88/73 27/81/73 8/80/73
f 53/88/74 49/79/74 27/36/74
f 54/89/75 55/90/75 56/91/75
f 57/92/76 55/90/76 58/93/76
f 59/94/77 60/95/77 55/90/77
f 61/96/78 54/89/78 56/91/78
f 39/97/79 61/96/79 36/98/79
f 36/98/80 61/96/80 56/91/80
f 36/98/81 56/91/81 38/99/81
f 62/100/82 63/101/82 64/102/82
f 65/103/83 64/102/83 54/89/83
f 61/96/84 65/103/84 54/89/84
f 66/104/85 67/105/85 62/100/85
f 55/90/86 60/95/86 68/106/86
f 69/107/87 68/106/87 60/95/87
f 69/107/88 70/108/88 68/106/88
f 58/109/89 55/90/89 68/106/89
f 68/106/90 71/110/90 58/111/90
f 62/100/91 67/105/91 63/101/91
f 64/102/92 63/101/92 69/107/92
f 70/108/93 71/110/93 68/106/93
f 58/111/94 71/110/94 72/112/94
f 56/91/95 57/92/95 38/113/95
f 55/90/96 57/114/96 56/91/96
f 73/115/97 74/116/97 38/113/97
f 58/109/98 72/112/98 73/115/98
f 57/117/99 58/111/99 73/115/99
f 57/92/100 73/115/100 38/113/100
f 73/115/101 72/112/101 74/116/101
f 39/97/102 75/118/102 61/96/102
f 75/118/103 39/97/103 76/119/103
f 64/102/104 59/94/104 54/89/104
f 64/102/105 60/95/105 59/94/105
f 54/89/106 59/94/106 55/90/106
f 64/102/107 69/107/107 60/95/107
f 65/103/108 66/104/108 62/100/108
f 65/103/109 61/96/109 75/118/109
f 75/118/110 76/119/110 65/103/110
f 66/104/111 65/103/111 76/119/111
f 62/100/112 64/102/112 65/103/112
f 39/97/113 42/120/113 76/119/113
f 77/121/114 76/119/114 42/120/114
f 67/105/115 76/119/115 77/121/115
f 66/104/116 76/119/116 67/105/116
f 9/82/117 25/34/117 10/42/117
f 51/122/118 49/123/118 78/124/118
f 79/125/119 50/126/119 52/127/119
f 52/127/120 51/122/120 79/125/120
f 80/128/121 81/129/121 53/130/121
f 51/122/122 78/124/122 79/125/122
f 82/131/123 50/126/123 79/125/123
f 50/126/124 82/131/124 8/132/124
f 53/133/125 78/124/125 49/123/125
f 83/134/126 84/135/126 85/136/126
f 84/135/127 83/134/127 86/137/127
f 86/137/128 87/138/128 84/135/128
f 88/139/129 84/135/129 87/138/129
f 87/138/130 89/140/130 88/139/130
f 90/141/131 88/139/131 89/140/131
f 91/142/132 92/143/132 90/141/132
f 90/141/133 89/140/133 91/142/133
f 85/136/134 92/144/134 91/145/134
f 91/145/135 83/134/135 85/136/135
f 80/128/136 93/146/136 83/134/136
f 94/147/137 83/134/137 93/146/137
f 93/146/138 87/138/138 94/147/138
f 87/138/139 93/146/139 95/148/139
f 95/148/140 96/149/140 87/138/140
f 89/140/141 87/138/141 96/149/141
f 97/150/142 91/142/142 89/140/142
f 97/151/143 81/129/143 80/128/143
f 8/132/144 82/131/144 80/128/144
f 93/146/145 80/128/145 98/152/145
f 98/152/146 95/148/146 93/146/146
f 95/148/147 82/131/147 79/125/147
f 79/125/148 78/124/148 95/148/148
f 96/149/149 95/148/149 78/124/149
f 78/124/150 53/133/150 81/153/150
f 81/153/151 96/149/151 78/124/151
f 80/128/152 53/130/152 8/154/152
f 94/147/153 87/138/153 86/137/153
f 86/137/154 83/134/154 94/147/154
f 97/151/155 83/134/155 91/145/155
f 89/140/156 96/149/156 97/150/156
f 80/128/157 83/134/157 97/151/157
f 81/153/158 97/150/158 96/149/158
f 82/131/159 95/148/159 98/152/159
f 98/152/160 80/128/160 82/131/160
f 85/136/161 99/155/161 100/156/161
f 99/155/162 85/136/162 84/135/162
f 84/135/163 101/157/163 99/155/163
f 101/157/164 84/135/164 88/139/164
f 88/139/165 90/141/165 101/157/165
f 102/158/166 101/157/166 90/141/166
f 90/141/167 103/159/167 102/158/167
f 103/159/168 90/141/168 92/143/168
f 92/144/169 85/136/169 103/160/169
f 100/156/170 103/160/170 85/136/170
f 104/161/171 105/162/171 106/163/171
f 107/164/172 106/163/172 108/165/172
f 109/166/173 110/167/173 103/168/173
f 109/166/174 111/169/174 104/161/174
f 104/161/175 110/167/175 109/166/175
f 104/161/176 111/169/176 112/170/176
f 113/171/177 112/170/177 111/169/177
f 106/163/178 110/167/178 104/161/178
f 104/161/179 112/170/179 105/162/179
f 105/172/180 113/173/180 111/174/180
f 113/173/181 105/172/181 112/175/181
f 105/172/182 111/174/182 109/176/182
f 109/176/183 106/177/183 105/172/183
f 109/176/184 100/178/184 106/177/184
f 103/179/185 100/178/185 109/176/185
f 102/180/186 103/168/186 110/167/186
f 106/163/187 114/181/187 108/165/187
f 115/182/188 116/183/188 106/177/188
f 116/184/189 117/185/189 118/186/189
f 108/165/190 114/181/190 119/187/190
f 119/187/191 120/188/191 108/165/191
f 118/189/192 121/190/192 114/191/192
f 114/191/193 121/190/193 117/192/193
f 116/193/194 115/194/194 119/187/194
f 120/188/195 119/187/195 115/194/195
f 121/195/196 118/186/196 117/185/196
f 108/165/197 101/196/197 102/180/197
f 115/182/198 106/177/198 100/178/198
f 100/178/199 99/197/199 115/182/199
f 120/188/200 99/198/200 101/196/200
f 106/163/201 107/164/201 110/167/201
f 108/165/202 120/188/202 101/196/202
f 120/188/203 115/194/203 99/198/203
f 107/164/204 102/180/204 110/167/204
f 102/180/205 107/164/205 108/165/205
f 118/199/206 106/177/206 116/183/206
f 114/181/207 106/163/207 118/200/207
f 114/191/208 117/192/208 119/201/208
f 117/192/209 116/202/209 119/201/209
f 122/203/210 123/204/210 124/205/210
f 125/206/211 126/207/211 123/208/211
f 125/206/212 123/208/212 127/209/212
f 125/210/213 128/211/213 126/212/213
f 128/211/214 129/213/214 126/212/214
f 128/214/215 124/215/215 129/216/215
f 122/217/216 124/215/216 128/214/216
f 130/218/217 128/211/217 125/219/217
f 131/220/218 122/221/218 130/222/218
f 132/223/219 125/224/219 127/225/219
f 132/226/220 131/227/220 125/219/220
f 133/228/221 131/227/221 132/226/221
f 133/229/222 122/221/222 131/220/222
f 130/218/223 125/219/223 131/227/223
f 128/214/224 130/222/224 122/221/224
f 127/209/225 123/204/225 122/203/225
f 16/230/226 133/228/226 14/231/226
f 16/232/227 3/3/227 133/229/227
f 14/231/228 133/228/228 132/226/228
f 14/233/229 132/223/229 19/234/229
f 132/223/230 127/225/230 19/234/230
f 20/235/231 19/234/231 127/225/231
f 20/235/232 127/225/232 122/236/232
f 3/3/233 122/221/233 133/229/233
f 3/237/234 20/235/234 122/236/234
f 134/238/235 135/239/235 136/240/235
f 137/241/236 135/242/236 134/243/236
f 138/244/237 139/245/237 137/246/237
f 138/247/238 136/248/238 139/249/238
f 134/238/239 136/240/239 123/208/239
f 138/247/240 123/250/240 136/248/240
f 123/250/241 138/247/241 124/251/241
f 134/238/242 123/208/242 126/252/242
f 129/253/243 134/243/243 126/254/243
f 137/241/244 134/243/244 129/253/244
f 138/244/245 137/246/245 129/255/245
f 138/244/246 129/255/246 124/256/246
f 136/257/247 140/258/247 139/259/247
f 136/257/248 141/260/248 140/258/248
f 142/261/249 139/259/249 140/258/249
f 135/262/250 143/263/250 141/260/250
f 141/264/251 143/265/251 142/266/251
f 142/266/252 140/267/252 141/264/252
f 137/268/253 143/263/253 135/262/253
f 135/262/254 141/260/254 136/257/254
f 139/259/255 142/261/255 137/268/255
f 137/268/256 144/269/256 143/263/256
f 137/268/257 142/261/257 144/269/257
f 143/265/258 145/270/258 146/271/258
f 146/271/259 142/266/259 143/265/259
f 143/263/260 144/269/260 145/272/260
f 144/269/261 146/273/261 145/272/261
f 146/273/262 144/269/262 142/261/262
f 3/274/263 16/275/263 17/276/263
f 147/5/264 4/4/264 148/6/264
f 148/7/265 4/4/265 7/8/265
f 149/10/266 147/9/266 150/11/266
f 151/13/267 152/12/267 150/14/267
f 151/15/268 148/6/268 7/8/268
f 153/16/269 148/6/269 151/13/269
f 147/5/270 153/17/270 150/14/270
f 147/5/271 148/6/271 153/17/271
f 153/18/272 151/13/272 150/19/272
f 154/21/273 155/20/273 156/22/273
f 155/20/274 154/21/274 157/23/274
f 155/20/275 157/24/275 17/25/275
f 154/21/276 156/22/276 158/26/276
f 159/27/277 154/21/277 158/26/277
f 160/28/278 158/26/278 21/29/278
f 159/27/279 158/26/279 160/28/279
f 3/30/280 160/28/280 21/29/280
f 22/31/281 147/9/281 23/32/281
f 161/34/282 24/33/282 162/35/282
f 161/34/283 163/36/283 150/37/283
f 163/39/284 164/38/284 165/40/284
f 161/34/285 166/41/285 24/33/285
f 166/41/286 161/34/286 152/42/286
f 24/33/287 166/41/287 31/43/287
f 162/44/288 24/33/288 32/45/288
f 167/47/289 168/46/289 147/9/289
f 22/31/290 4/4/290 147/9/290
f 161/34/291 162/35/291 163/39/291
f 169/48/292 168/46/292 167/47/292
f 162/35/293 32/45/293 164/38/293
f 168/46/294 23/32/294 147/9/294
f 163/39/295 162/35/295 164/38/295
f 165/40/296 164/38/296 170/49/296
f 171/51/297 169/50/297 165/40/297
f 38/52/298 164/38/298 32/45/298
f 38/52/299 170/49/299 164/38/299
f 171/53/300 170/49/300 172/54/300
f 171/56/301 172/55/301 173/57/301
f 42/59/302 41/58/302 172/55/302
f 173/57/303 172/55/303 41/58/303
f 165/40/304 170/49/304 171/51/304
f 169/48/305 171/56/305 168/46/305
f 168/46/306 171/56/306 173/57/306
f 168/46/307 173/57/307 43/60/307
f 43/60/308 173/57/308 41/58/308
f 23/32/309 168/46/309 43/60/309
f 174/62/310 44/61/310 166/63/310
f 175/65/311 156/64/311 174/62/311
f 176/67/312 175/66/312 152/68/312
f 7/69/313 176/67/313 151/70/313
f 44/61/314 174/62/314 17/71/314
f 166/63/315 44/61/315 31/72/315
f 156/64/316 155/73/316 174/62/316
f 152/74/317 175/65/317 174/62/317
f 152/74/318 174/62/318 166/63/318
f 151/70/319 176/67/319 152/68/319
f 48/75/320 176/67/320 7/69/320
f 156/76/321 175/66/321 176/67/321
f 176/67/322 158/77/322 156/76/322
f 158/77/323 176/67/323 48/75/323
f 21/78/324 158/77/324 48/75/324
f 174/62/325 155/73/325 17/71/325
f 169/50/326 177/79/326 165/40/326
f 163/81/327 149/80/327 150/82/327
f 178/83/328 167/47/328 147/84/328
f 177/79/329 163/36/329 165/40/329
f 179/85/330 169/48/330 180/86/330
f 177/79/331 169/50/331 179/87/331
f 178/83/332 180/86/332 167/47/332
f 180/86/333 169/48/333 167/47/333
f 178/83/334 147/84/334 149/10/334
f 163/81/335 181/88/335 149/80/335
f 177/79/336 181/88/336 163/36/336
f 182/90/337 183/89/337 184/91/337
f 182/90/338 185/92/338 186/93/338
f 187/95/339 188/94/339 182/90/339
f 183/89/340 189/96/340 184/91/340
f 189/96/341 172/97/341 170/98/341
f 189/96/342 170/98/342 184/91/342
f 184/91/343 170/98/343 38/99/343
f 63/101/344 190/100/344 191/102/344
f 191/102/345 192/103/345 183/89/345
f 192/103/346 189/96/346 183/89/346
f 67/105/347 193/104/347 190/100/347
f 187/95/348 182/90/348 194/106/348
f 194/106/349 69/107/349 187/95/349
f 70/108/350 69/107/350 194/106/350
f 182/90/351 186/109/351 194/106/351
f 71/110/352 194/106/352 186/111/352
f 67/105/353 190/100/353 63/101/353
f 63/101/354 191/102/354 69/107/354
f 71/110/355 70/108/355 194/106/355
f 71/110/356 186/111/356 72/112/356
f 185/92/357 184/91/357 38/113/357
f 185/114/358 182/90/358 184/91/358
f 74/116/359 195/115/359 38/113/359
f 72/112/360 186/109/360 195/115/360
f 186/111/361 185/117/361 195/115/361
f 195/115/362 185/92/362 38/113/362
f 72/112/363 195/115/363 74/116/363
f 196/118/364 172/97/364 189/96/364
f 172/97/365 196/118/365 197/119/365
f 188/94/366 191/102/366 183/89/366
f 187/95/367 191/102/367 188/94/367
f 188/94/368 183/89/368 182/90/368
f 69/107/369 191/102/369 187/95/369
f 193/104/370 192/103/370 190/100/370
f 189/96/371 192/103/371 196/118/371
f 197/119/372 196/118/372 192/103/372
f 192/103/373 193/104/373 197/119/373
f 191/102/374 190/100/374 192/103/374
f 42/120/375 172/97/375 197/119/375
f 197/119/376 77/121/376 42/120/376
f 197/119/377 67/105/377 77/121/377
f 197/119/378 193/104/378 67/105/378
f 161/34/379 150/82/379 152/42/379
f 177/123/380 179/122/380 198/124/380
f 178/126/381 199/125/381 180/127/381
f 179/122/382 180/127/382 199/125/382
f 200/129/383 201/128/383 181/130/383
f 198/124/384 179/122/384 199/125/384
f 178/126/385 202/131/385 199/125/385
f 202/131/386 178/126/386 149/132/386
f 198/124/387 181/133/387 177/123/387
f 203/135/388 204/134/388 205/136/388
f 204/134/389 203/135/389 206/137/389
f 207/138/390 206/137/390 203/135/390
f 203/135/391 208/139/391 207/138/391
f 209/140/392 207/138/392 208/139/392
f 208/139/393 210/141/393 209/140/393
f 211/143/394 212/142/394 210/141/394
f 209/140/395 210/141/395 212/142/395
f 211/144/396 205/136/396 212/145/396
f 204/134/397 212/145/397 205/136/397
f 213/146/398 201/128/398 204/134/398
f 204/134/399 214/147/399 213/146/399
f 207/138/400 213/146/400 214/147/400
f 213/146/401 207/138/401 215/148/401
f 216/149/402 215/148/402 207/138/402
f 207/138/403 209/140/403 216/149/403
f 212/142/404 217/150/404 209/140/404
f 200/129/405 217/151/405 201/128/405
f 202/131/406 149/132/406 201/128/406
f 201/128/407 213/146/407 218/152/407
f 215/148/408 218/152/408 213/146/408
f 202/131/409 215/148/409 199/125/409
f 198/124/410 199/125/410 215/148/410
f 215/148/411 216/149/411 198/124/411
f 181/133/412 198/124/412 200/153/412
f 216/149/413 200/153/413 198/124/413
f 181/130/414 201/128/414 149/154/414
f 207/138/415 214/147/415 206/137/415
f 204/134/416 206/137/416 214/147/416
f 204/134/417 217/151/417 212/145/417
f 216/149/418 209/140/418 217/150/418
f 204/134/419 201/128/419 217/151/419
f 217/150/420 200/153/420 216/149/420
f 215/148/421 202/131/421 218/152/421
f 201/128/422 218/152/422 202/131/422
f 219/155/423 205/136/423 220/156/423
f 205/136/424 219/155/424 203/135/424
f 221/157/425 203/135/425 219/155/425
f 203/135/426 221/157/426 208/139/426
f 210/141/427 208/139/427 221/157/427
f 221/157/428 222/158/428 210/141/428
f 223/159/429 210/141/429 222/158/429
f 210/141/430 223/159/430 211/143/430
f 205/136/431 211/144/431 223/160/431
f 223/160/432 220/156/432 205/136/432
f 224/162/433 225/161/433 226/163/433
f 226/163/434 227/164/434 228/165/434
f 229/167/435 230/166/435 223/168/435
f 231/169/436 230/166/436 225/161/436
f 229/167/437 225/161/437 230/166/437
f 231/169/438 225/161/438 232/170/438
f 232/170/439 233/171/439 231/169/439
f 229/167/440 226/163/440 225/161/440
f 232/170/441 225/161/441 224/162/441
f 233/173/442 224/172/442 231/174/442
f 224/172/443 233/173/443 232/175/443
f 231/174/444 224/172/444 230/176/444
f 226/177/445 230/176/445 224/172/445
f 220/178/446 230/176/446 226/177/446
f 220/178/447 223/179/447 230/176/447
f 223/168/448 222/180/448 229/167/448
f 234/181/449 226/163/449 228/165/449
f 235/183/450 236/182/450 226/177/450
f 237/185/451 235/184/451 238/186/451
f 234/181/452 228/165/452 239/187/452
f 240/188/453 239/187/453 228/165/453
f 241/190/454 238/189/454 234/191/454
f 241/190/455 234/191/455 237/192/455
f 236/194/456 235/193/456 239/187/456
f 239/187/457 240/188/457 236/194/457
f 238/186/458 241/195/458 237/185/458
f 221/196/459 228/165/459 222/180/459
f 226/177/460 236/182/460 220/178/460
f 219/197/461 220/178/461 236/182/461
f 219/198/462 240/188/462 221/196/462
f 227/164/463 226/163/463 229/167/463
f 240/188/464 228/165/464 221/196/464
f 236/194/465 240/188/465 219/198/465
f 222/180/466 227/164/466 229/167/466
f 227/164/467 222/180/467 228/165/467
f 226/177/468 238/199/468 235/183/468
f 226/163/469 234/181/469 238/200/469
f 237/192/470 234/191/470 239/201/470
f 235/202/471 237/192/471 239/201/471
f 242/204/472 243/203/472 244/205/472
f 245/207/473 246/206/473 242/208/473
f 242/208/474 246/206/474 247/209/474
f 248/211/475 246/210/475 245/212/475
f 249/213/476 248/211/476 245/212/476
f 244/215/477 248/214/477 249/216/477
f 244/215/478 243/217/478 248/214/478
f 248/211/479 250/218/479 246/219/479
f 243/221/480 251/220/480 250/222/480
f 246/224/481 252/223/481 247/225/481
f 251/227/482 252/226/482 246/219/482
f 251/227/483 253/228/483 252/226/483
f 243/221/484 253/229/484 251/220/484
f 246/219/485 250/218/485 251/227/485
f 250/222/486 248/214/486 243/221/486
f 242/204/487 247/209/487 243/203/487
f 253/228/488 157/230/488 154/231/488
f 3/3/489 157/232/489 253/229/489
f 253/228/490 154/231/490 252/226/490
f 252/223/491 154/233/491 159/234/491
f 247/225/492 252/223/492 159/234/492
f 159/234/493 160/235/493 247/225/493
f 247/225/494 160/235/494 243/236/494
f 243/221/495 3/3/495 253/229/495
f 160/235/496 3/237/496 243/236/496
f 254/239/497 255/238/497 256/240/497
f 254/242/498 257/241/498 255/243/498
f 258/245/499 259/244/499 257/246/499
f 256/248/500 259/247/500 258/249/500
f 256/240/501 255/238/501 242/208/501
f 242/250/502 259/247/502 256/248/502
f 259/247/503 242/250/503 244/251/503
f 242/208/504 255/238/504 245/252/504
f 255/243/505 249/253/505 245/254/505
f 255/243/506 257/241/506 249/253/506
f 257/246/507 259/244/507 249/255/507
f 249/255/508 259/244/508 244/256/508
f 260/258/509 256/257/509 258/259/509
f 261/260/510 256/257/510 260/258/510
f 258/259/511 262/261/511 260/258/511
f 263/263/512 254/262/512 261/260/512
f 263/265/513 261/264/513 262/266/513
f 260/267/514 262/266/514 261/264/514
f 263/263/515 257/268/515 254/262/515
f 261/260/516 254/262/516 256/257/516
f 262/261/517 258/259/517 257/268/517
f 264/269/518 257/268/518 263/263/518
f 262/261/519 257/268/519 264/269/519
f 265/270/520 263/265/520 266/271/520
f 262/266/521 266/271/521 263/265/521
f 264/269/522 263/263/522 265/272/522
f 266/273/523 264/269/523 265/272/523
f 264/269/524 266/273/524 262/261/524
f 157/275/525 3/274/525 17/276/525

o 
usemtl axe.001
s off

v 28.111380 72.985756 3.295350
v 23.679508 67.847229 6.047590
v 33.020462 71.457748 10.123490
v 30.189240 69.679451 10.164770
v 33.719330 70.384911 11.838790
v 30.888121 68.606598 11.880070
v 33.930149 64.053314 17.576719
v 27.321129 62.256962 14.985451
v 33.631828 76.453186 3.214870
v 39.450592 67.520760 17.496229
v 40.240852 78.249557 5.806130
v 35.851677 73.236069 10.082220
v 36.550552 72.163208 11.797510
v 43.882469 72.659271 14.744000
v 31.011429 68.343292 8.994070
v 33.842640 70.121597 8.952790
v 31.710300 67.270447 10.709360
v 34.541508 69.048752 10.668091
v 36.673851 71.899910 8.911520
v 37.372730 70.827057 10.626810
v 1.937100 51.934017 10.576670
v 2.635970 50.861168 12.291970
v 3.458160 49.525017 11.121260
v 2.395160 51.614159 9.843420
v 42.574280 75.776413 10.267591
v -26.821011 32.358990 12.721420
v -26.033730 31.106609 11.450020
v -26.697701 32.095688 9.835430
v -27.519878 33.431839 11.006130

vt 0.033358 0.643728
vt 0.190411 0.923560
vt 0.402692 0.503812
vt 0.402692 0.647326
vt 0.408249 0.287497
vt 0.408249 0.367848
vt 0.492649 0.287497
vt 0.492649 0.367848
vt 0.403043 0.503812
vt 0.403044 0.647326
vt 0.033710 0.643728
vt 0.190763 0.923560
vt 0.033358 0.363896
vt 0.033710 0.363896
vt 0.190411 0.084064
vt 0.402692 0.360297
vt 0.408249 0.207147
vt 0.492649 0.207147
vt 0.403043 0.360297
vt 0.190763 0.084064
vt 0.408248 1.036942
vt 0.492649 1.036942
vt 0.483600 0.371280
vt 0.402049 0.371280
vt 0.402049 1.040375
vt 0.483600 1.040375
vt 0.450449 0.037941
vt 0.483600 0.210579
vt 0.402049 0.210579
vt 0.442825 0.041374
vt 0.000000 1.000000

vn -0.494907 0.701505 0.512794
vn -0.479743 0.773409 0.414348
vn -0.420015 0.682581 0.598056
vn -0.376336 0.615235 0.692717
vn -0.429140 0.579795 0.692587
vn -0.457225 0.739410 0.494185
vn -0.402664 0.771998 0.491814
vn -0.341148 0.560652 0.754511
vn -0.339564 0.654620 0.675403
vn 0.341148 -0.560651 -0.754512
vn 0.339564 -0.654619 -0.675404
vn 0.420015 -0.682581 -0.598056
vn 0.402663 -0.771998 -0.491815
vn 0.457224 -0.739410 -0.494186
vn 0.376336 -0.615236 -0.692717
vn 0.429141 -0.579795 -0.692587
vn 0.494907 -0.701505 -0.512794
vn 0.479744 -0.773407 -0.414352
vn -0.218229 -0.715630 0.663513
vn -0.753137 0.105511 -0.649347
vn 0.218228 0.715633 -0.663510
vn 0.753138 -0.105513 0.649346
vn 0.221889 -0.424132 -0.877996
vn -0.319395 0.505656 -0.801435
vn -0.440878 0.688548 -0.575785
vn 0.326505 -0.501222 0.801356
vn -0.299433 0.749303 0.590665
vn 0.532596 -0.602853 -0.594062
vn 0.450039 -0.415605 0.790403
vn -0.195553 0.575450 -0.794114
vn 0.339097 -0.525389 0.780372
vn -0.370766 0.562771 -0.738797
vn 0.341879 -0.534488 -0.772943
vn -0.844077 -0.535891 0.018833
vn -0.843213 -0.537530 0.007350

f 267/277/526 268/278/526 269/279/526
f 270/280/527 269/279/527 268/278/527
f 269/281/528 270/282/528 271/283/528
f 272/284/528 271/283/528 270/282/528
f 271/285/529 272/286/529 273/287/529
f 274/288/530 273/287/530 272/286/530
f 275/289/531 267/277/531 269/279/531
f 273/287/529 276/290/529 271/285/529
f 277/291/532 275/289/532 278/292/532
f 269/279/531 278/292/531 275/289/531
f 278/293/528 269/281/528 279/294/528
f 271/283/528 279/294/528 269/281/528
f 279/295/533 271/285/533 280/296/533
f 276/290/534 280/296/534 271/285/534
f 281/280/535 268/278/535 282/279/535
f 267/277/536 282/279/536 268/278/536
f 283/284/537 281/282/537 284/283/537
f 282/281/537 284/283/537 281/282/537
f 274/288/538 283/286/538 273/287/538
f 284/285/539 273/287/539 283/286/539
f 282/279/540 267/277/540 275/289/540
f 273/287/539 284/285/539 276/290/539
f 282/279/540 275/289/540 285/292/540
f 277/291/541 285/292/541 275/289/541
f 284/283/537 282/281/537 286/294/537
f 285/293/537 286/294/537 282/281/537
f 276/290/542 284/285/542 280/296/542
f 286/295/543 280/296/543 284/285/543
f 270/280/544 268/278/544 281/280/544
f 283/286/545 274/288/545 272/286/545
f 279/295/546 280/296/546 286/295/546
f 285/292/547 277/291/547 278/292/547
f 272/284/528 270/282/528 287/297/528
f 287/297/528 288/298/528 272/284/528
f 281/282/537 283/284/537 289/298/537
f 289/298/548 290/297/548 281/282/548
f 270/299/549 281/300/549 290/301/549
f 290/301/550 287/302/550 270/299/550
f 283/300/551 272/299/551 288/302/551
f 288/302/551 289/301/551 283/300/551
f 278/293/552 279/294/552 291/303/552
f 286/294/553 285/293/553 291/303/553
f 279/304/554 286/305/554 291/306/554
f 285/305/555 278/304/555 291/306/555
f 289/298/556 288/297/556 292/298/556 293/307/556
f 287/297/557 290/298/557 294/297/557 295/307/557
f 290/297/558 289/298/558 293/297/558 294/307/558
f 288/298/528 287/297/528 295/298/528 292/307/528
f 294/297/559 293/298/559 295/297/559
f 292/298/560 295/297/560 293/298/560

