mtllib anim_skel_walk_shield_000035.mtl

o msked
usemtl shield.001
s off

v 12.246260 47.859032 7.860980
v 9.791260 37.628731 13.358980
v -2.479590 39.508869 10.540200
v 9.471340 39.785263 18.155109
v 22.536699 35.147381 14.263060
v 3.264700 8.031850 25.169699

vt 0.345626 0.959903
vt 0.345626 0.724031
vt 0.085605 0.724031
vt 0.605647 0.724031
vt 0.345626 0.075832

vn 0.122480 -0.492472 -0.861667
vn -0.348441 0.780859 0.518506
vn 0.419721 0.655807 0.627496
vn -0.028436 -0.467897 -0.883326
vn 0.147882 -0.394516 -0.906911
vn -0.520478 0.279937 0.806683
vn 0.328574 0.142046 0.933736
vn -0.006020 -0.369480 -0.929219

f 1/1/1 2/2/1 3/3/1
f 1/1/2 3/3/2 4/2/2
f 1/1/3 4/2/3 5/4/3
f 1/1/4 5/4/4 2/2/4
f 6/5/5 3/3/5 2/2/5
f 6/5/6 4/2/6 3/3/6
f 6/5/7 5/4/7 4/2/7
f 6/5/8 2/2/8 5/4/8

