mtllib anim_skel_walk_swordshield_000054.mtl

o msked
usemtl shield.001
s off

v -11.804481 37.094902 4.895510
v -12.755240 37.608959 5.860520
v -3.291530 45.279560 22.846300
v -12.744380 36.147739 5.861540
v -11.122931 35.937771 5.866410
v -12.657650 36.993309 5.357260
v -15.109159 40.307060 6.133330
v -13.646111 35.089222 1.085180
v -14.589390 35.093140 1.563530
v -14.609370 34.151760 2.045210
v -8.481990 33.521999 6.157270
v -11.734341 36.048000 5.360590
v -13.666080 34.147831 1.566860
v 14.833760 49.268860 9.511690
v 11.262530 38.992249 14.260530
v -0.779950 43.119843 13.193880
v 11.863150 40.591030 19.244410
v 23.399101 34.398510 13.249730
v 1.035410 9.651630 23.883360

vt 0.856301 0.265607
vt 0.764624 0.294094
vt 0.850192 0.976825
vt 0.858158 0.265976
vt 0.949099 0.282658
vt 0.742843 0.255302
vt 0.692067 0.254404
vt 0.541488 0.402851
vt 0.893183 0.241135
vt 0.851577 0.242328
vt 0.847036 0.027305
vt 0.893183 0.027305
vt 0.742053 0.256467
vt 0.849952 0.242815
vt 0.544321 0.402080
vt 0.692550 0.250793
vt 0.800888 0.241135
vt 0.800888 0.027305
vt 0.697126 0.324563
vt 0.698569 0.321089
vt 0.345626 0.959903
vt 0.345626 0.724031
vt 0.085605 0.724031
vt 0.605647 0.724031
vt 0.345626 0.075832

vn 0.047341 0.900199 -0.432897
vn -0.872366 -0.006141 0.488815
vn 0.874457 0.120859 -0.469806
vn -0.111386 -0.848111 0.517977
vn -0.459280 -0.134125 -0.878107
vn -0.287470 0.897800 -0.333641
vn -0.181321 0.913161 -0.365048
vn -0.662141 -0.332580 -0.671536
vn -0.909919 0.204076 0.361110
vn -0.912808 0.274148 0.302695
vn -0.414356 -0.407582 -0.813748
vn -0.095790 -0.409479 -0.907277
vn 0.916317 -0.109704 -0.385135
vn 0.909919 -0.204072 -0.361112
vn -0.377495 -0.683192 -0.625097
vn 0.181314 -0.913161 0.365052
vn 0.116679 -0.902347 0.414917
vn 0.116897 0.001566 0.993143
vn 0.014528 0.135163 0.990717
vn 0.712506 0.581985 0.391956
vn 0.589342 0.694056 0.413476
vn -0.056997 -0.402408 -0.913684
vn -0.150372 0.760266 0.631968
vn 0.595338 0.500847 0.628271
vn -0.208419 -0.349656 -0.913401
vn -0.020274 -0.305186 -0.952077
vn -0.372923 0.263886 0.889546
vn 0.450811 -0.023980 0.892297
vn -0.174456 -0.251426 -0.952024

f 1/1/1 2/2/1 3/3/1
f 3/3/2 2/2/2 4/4/2
f 1/1/3 3/3/3 5/5/3
f 3/3/4 4/4/4 5/5/4
f 1/6/5 6/7/5 7/8/5
f 6/9/6 1/10/6 8/11/6
f 8/11/7 9/12/7 6/9/7
f 7/8/8 6/7/8 4/13/8
f 6/9/9 9/12/9 10/11/9
f 10/11/10 4/14/10 6/9/10
f 9/12/11 8/11/11 10/11/11
f 1/6/12 11/15/12 12/16/12
f 8/11/13 1/10/13 12/17/13
f 8/11/14 12/17/14 13/18/14
f 11/15/15 4/13/15 12/16/15
f 12/17/16 10/11/16 13/18/16
f 10/11/17 12/17/17 4/14/17
f 13/18/11 10/11/11 8/11/11
f 4/13/18 2/19/18 7/8/18
f 11/15/19 5/20/19 4/13/19
f 2/19/20 1/6/20 7/8/20
f 1/6/21 5/20/21 11/15/21
f 14/21/22 15/22/22 16/23/22
f 14/21/23 16/23/23 17/22/23
f 14/21/24 17/22/24 18/24/24
f 14/21/25 18/24/25 15/22/25
f 19/25/26 16/23/26 15/22/26
f 19/25/27 17/22/27 16/23/27
f 19/25/28 18/24/28 17/22/28
f 19/25/29 15/22/29 18/24/29

