mtllib anim_barb_attack_000065.mtl

o fat
usemtl fat.001
s off

v -0.137810 38.707630 -3.609700
v 1.860240 36.144421 6.136090
v 0.318890 37.897259 1.509700
v 0.410170 61.169849 -7.821910
v 9.299520 66.752769 -5.537070
v 2.812830 57.330170 -7.397520
v -0.362600 52.847042 -5.944570
v 7.890250 62.308022 -1.945210
v 7.702180 57.616520 -1.771940
v 6.919220 52.403351 -1.896430
v 4.142630 52.740898 -6.011250
v 6.403020 58.059200 -6.671780
v 9.003679 37.503830 4.882100
v 9.352560 39.503929 -1.692810
v 10.561490 39.008938 -2.167630
v 6.412290 38.411011 4.749200
v 3.993900 37.038410 7.078080
v 4.408740 37.296768 -6.691820
v 3.744780 39.182671 -5.718980
v 0.502520 38.465221 -4.570250
v -0.321370 36.005028 -5.193140
v 0.201120 66.694481 -6.821630
v 0.170300 68.685158 -6.435400
v 0.128960 57.250427 5.558650
v 5.379790 57.589031 3.159780
v 6.255160 61.407516 5.102590
v 8.980730 61.733650 2.677540
v 6.123870 64.138351 5.735340
v 11.318440 66.106041 1.616070
v 4.497020 52.921299 4.054040
v 1.102870 51.249580 3.968500
v 0.791740 63.604088 7.413260
v 4.825240 70.813377 -2.318080
v 10.748810 67.569687 -4.908060
v 11.536489 67.971809 -1.248010
v 2.905110 68.724304 6.030880
v 5.512380 70.946762 1.970740
v 0.171630 67.749779 6.514590
v 2.663080 74.775406 4.628680
v 3.279240 73.311607 0.845150
v 0.247260 73.661987 0.068320
v 0.175950 75.722725 3.590310
v 0.334850 72.114922 -2.194170
v 0.489180 47.978218 5.133800
v 5.364230 48.318821 5.032270
v 8.418850 47.967072 -0.145200
v 4.990360 47.375751 -5.351830
v -0.188040 47.466522 -7.046010
v 11.740921 65.505493 1.454100
v 9.619800 63.372250 -5.667800
v 13.230551 65.154175 -1.202790
v 12.270620 65.880493 -4.186000
v 9.061920 63.472740 3.010500
v 2.581520 72.847580 9.797500
v 1.180830 70.943306 11.093369
v 2.894370 69.005592 7.292390
v 1.639600 67.445129 9.039650
v 0.698310 69.633141 10.693860
v 1.643460 72.899773 11.398459
v -0.144470 72.707016 11.622860
v 3.177320 74.823471 7.513309
v 0.535690 76.545731 12.749290
v -0.763210 76.429794 12.997730
v 1.701340 73.972137 12.323199
v 2.256590 76.030212 11.806010
v 1.223440 78.528069 10.468260
v -0.414440 78.572678 10.278320
v 0.269850 70.817116 11.602050
v -0.765430 73.356339 12.088831
v -0.900690 71.100815 12.712391
v -0.835060 70.694870 11.955650
v -0.843340 69.159836 11.571020
v 0.535200 66.595848 10.457689
v -0.861440 66.447502 10.924850
v 3.025130 77.078499 8.131060
v 2.543030 78.421631 7.901000
v -0.045170 78.957932 6.828930
v 13.524409 63.343613 1.346520
v 13.964109 62.759399 -2.320860
v 8.875820 56.742321 -0.285010
v 10.606910 58.540730 3.592510
v 10.346189 60.355820 -4.547780
v 11.417160 52.763130 1.002850
v 11.791700 48.319771 0.293480
v 11.564150 49.636742 3.425250
v 14.410020 51.998680 -0.738460
v 15.722370 54.447842 0.536380
v 15.071140 48.296219 0.605290
v 15.343241 54.539089 2.695040
v 16.363300 49.278187 3.236410
v 13.356629 52.876629 3.885100
v 14.711720 50.055618 5.198860
v 13.352990 54.634228 -1.703540
v 13.912279 53.456760 -1.359280
v 15.064321 59.424919 -1.242200
v 14.387819 59.989571 2.162770
v 12.665359 54.590191 3.647370
v 12.466980 56.761242 -3.433280
v 11.382580 42.304440 4.220260
v 11.384560 43.082043 5.949110
v 12.872991 41.983662 3.888710
v 14.000020 42.551350 5.295990
v 13.363160 43.244530 6.660310
v 14.100130 39.883671 10.573780
v 13.282120 39.587170 10.270180
v 13.309309 39.950069 9.008511
v 14.111330 40.262810 8.569139
v 14.153130 38.718811 7.869160
v 13.182820 41.955830 9.576839
v 14.082150 40.910778 9.352090
v 13.323790 40.405571 11.152981
v 13.783340 38.738949 11.443191
v 13.166970 39.201401 11.784940
v 13.639970 36.926468 9.099950
v 9.909400 38.560829 5.469110
v 9.701790 36.773251 6.273940
v 9.876060 34.288849 7.805730
v 13.139950 37.920219 9.754420
v 10.668640 36.512989 5.942190
v 11.079770 38.127781 4.926260
v 12.738780 34.980492 10.919820
v 3.921370 26.185110 -1.198410
v 7.434220 21.395720 -8.810460
v 5.166040 18.621410 -3.973230
v 9.747220 27.076649 -2.391710
v 12.371820 20.495159 -5.386960
v 6.138390 27.317928 -5.130130
v 8.111240 23.673401 0.456810
v 9.179430 18.224230 -0.952860
v 7.888700 25.750811 1.502110
v 7.954090 28.199999 1.182500
v 10.529190 30.861000 -3.020420
v 7.679530 32.626709 3.628150
v 11.956270 10.495400 -9.328939
v 13.255090 8.021450 -10.858420
v 10.040020 8.865280 -12.552450
v 11.152030 8.255199 -7.724400
v 8.469630 9.713530 -9.147050
v 8.442730 6.736680 -10.092320
v 9.486010 3.762920 -13.741850
v 12.465930 4.446210 -14.155970
v 10.414320 2.727890 -5.293370
v 16.308090 4.346960 -6.294510
v 13.266920 5.104930 -2.058460
v 16.005110 3.726050 -2.180190
v 12.284350 2.621600 -0.913470
v -9.555850 65.247009 -4.402820
v -1.892230 57.310337 -7.545220
v -5.901870 62.394760 1.153780
v -7.318430 57.505150 -1.686630
v -4.956670 52.609703 -4.525780
v -6.374790 51.768322 0.011370
v -5.753590 57.963921 -6.799560
v -9.006149 39.099751 0.146540
v -7.268270 36.710312 6.381600
v -10.268280 38.568779 -0.103860
v -4.827410 37.753212 5.750550
v -5.057970 37.184540 -5.883400
v -4.554060 39.161522 -5.030830
v -1.041260 38.408360 -4.636830
v -4.829290 57.447052 3.472790
v -5.086390 61.105671 5.964630
v -10.126920 61.776180 4.329980
v -4.769800 63.793949 6.758530
v -10.258699 67.108833 3.984740
v -2.454760 51.129059 4.046570
v -11.432160 66.317947 -2.651030
v -4.955480 70.686859 -1.988410
v -11.570149 67.812607 1.437650
v -2.595220 68.696861 6.051530
v -5.928100 70.924362 2.043700
v -2.505460 74.912476 4.156310
v -2.831450 73.374725 0.615550
v -3.837170 47.914547 5.886670
v -7.887930 47.665840 1.273540
v -5.416080 47.271809 -4.335800
v -11.504830 66.385109 3.921860
v -9.507680 60.823433 -1.958080
v -13.196779 65.974953 1.702620
v -12.564720 63.099380 -0.726300
v -9.720660 63.350632 4.122470
v -2.612380 71.062187 10.700560
v -3.597380 73.041245 9.157640
v -3.200620 69.118210 6.960990
v -2.856860 67.586067 8.574010
v -2.140420 69.722107 10.399899
v -1.316860 72.743759 11.501480
v -3.005530 73.045494 10.917030
v -3.589360 75.035568 6.812590
v -1.974020 76.624390 12.489380
v -3.184930 74.125298 11.817209
v -3.493930 76.210472 11.210509
v -2.056070 78.630844 10.128670
v -1.834430 70.883080 11.384140
v -2.120930 66.679108 10.182630
v -3.427430 77.280746 7.462890
v -2.826160 78.589912 7.344980
v -12.684060 64.035255 4.692310
v -13.727480 62.113911 1.620970
v -9.117890 60.470627 7.904080
v -7.741280 57.452950 4.722920
v -10.312470 59.137112 -0.272910
v -7.903230 51.817329 7.470170
v -9.669600 54.064590 7.934480
v -9.351780 54.685329 9.381410
v -12.757820 52.601582 6.942630
v -14.104139 55.335548 7.381390
v -10.022860 50.085068 8.452080
v -13.542900 56.185261 9.325740
v -11.321140 50.548061 11.155230
v -10.467290 52.730110 12.790280
v -11.332920 55.159489 10.763470
v -12.047850 54.714207 4.909490
v -12.407660 53.800732 5.761190
v -14.255131 59.259712 3.871220
v -13.192169 61.096741 6.693840
v -10.511360 57.205330 8.943920
v -11.588201 56.033691 2.435170
v -3.190140 48.406979 12.753020
v -3.645790 49.007309 13.234060
v -4.607440 46.835579 11.811590
v -5.567520 47.058720 13.477900
v -5.176210 48.271122 14.479899
v -2.104060 45.761829 18.017750
v -3.046090 46.057892 18.702560
v -2.442940 45.701618 16.991310
v -3.690640 45.892109 16.771830
v -3.006840 44.426670 16.250679
v -3.862940 46.627789 17.452261
v -3.453760 47.791828 17.411631
v -2.594340 47.025242 18.969530
v -1.970080 45.481293 19.524731
v -1.661430 46.259579 19.621990
v -1.336370 43.502159 17.408590
v 0.819430 45.147682 13.229630
v -0.253820 46.356777 12.844171
v 2.059570 43.246723 14.256790
v -1.415110 44.415688 17.313669
v 0.612580 43.934448 13.536659
v -0.830080 44.814259 12.567160
v 0.572320 42.594353 18.325619
v -6.751060 18.992701 -6.805380
v -3.220660 25.671200 -0.209870
v -4.404820 17.654930 -2.192490
v -11.643810 19.130100 -3.577820
v -9.070810 26.510689 -1.511670
v -5.489470 27.207150 -4.007030
v -7.293360 23.152540 1.403010
v -8.375540 17.667801 0.827670
v -7.160360 25.066021 2.428910
v -6.552380 27.802259 2.366100
v -10.019031 30.340969 -1.216080
v -5.989530 32.196449 4.779080
v -12.424560 5.544640 -4.818830
v -11.149830 8.293590 -4.369460
v -9.261080 6.052440 -6.864600
v -10.279400 6.355640 -1.847260
v -7.592890 4.484470 -3.948410
v -7.645580 7.579480 -3.698780
v -8.567090 0.940710 -7.070260
v -11.577720 1.601200 -7.609660
v -9.320580 1.056950 1.358220
v -15.279690 2.364360 0.290570
v -12.191720 3.733120 4.333810
v -14.886820 2.270640 4.440610
v -11.112190 1.441240 5.756940

vt 0.550479 0.485338
vt 0.414517 0.485338
vt 0.489174 0.497239
vt 0.490853 0.675485
vt 0.356970 0.710738
vt 0.458986 0.602657
vt 0.458693 0.603155
vt 0.491001 0.506534
vt 0.357039 0.710738
vt 0.272881 0.708251
vt 0.307767 0.663467
vt 0.329118 0.504113
vt 0.420682 0.504388
vt 0.307693 0.663467
vt 0.420389 0.504181
vt 0.390374 0.619683
vt 0.389206 0.622726
vt 0.390855 0.620128
vt 0.309151 0.663075
vt 0.578845 0.971377
vt 0.529882 0.993867
vt 0.501054 0.950636
vt 0.597833 0.993868
vt 0.684209 0.993870
vt 0.691613 0.940228
vt 0.584242 0.936155
vt 0.602549 0.993867
vt 0.689094 0.993870
vt 0.694409 0.971380
vt 0.730001 0.975635
vt 0.490853 0.781888
vt 0.490853 0.820915
vt 0.240556 0.660920
vt 0.133663 0.660928
vt 0.131880 0.753091
vt 0.060606 0.782384
vt 0.055577 0.663688
vt 0.136145 0.808744
vt 0.060014 0.783494
vt 0.058190 0.859642
vt 0.160773 0.512959
vt 0.067037 0.515196
vt 0.240700 0.512959
vt 0.131877 0.752996
vt 0.240556 0.781375
vt 0.390182 0.870896
vt 0.298691 0.847983
vt 0.294173 0.886121
vt 0.181129 0.899551
vt 0.052544 0.886601
vt 0.145152 0.921474
vt 0.235241 0.891030
vt 0.142740 0.921054
vt 0.172936 0.966074
vt 0.456563 0.999059
vt 0.389917 0.922986
vt 0.429989 0.941889
vt 0.491140 0.942697
vt 0.490646 0.999330
vt 0.490853 0.898039
vt 0.701416 0.118225
vt 0.813217 0.120956
vt 0.790107 0.184348
vt 0.877923 0.002315
vt 0.872775 0.120438
vt 0.505869 0.118716
vt 0.564263 0.119120
vt 0.507564 0.183764
vt 0.697589 0.180917
vt 0.580429 0.182675
vt 0.710756 0.001536
vt 0.701372 0.182427
vt 0.812168 0.002315
vt 0.857243 0.184348
vt 0.697567 0.116528
vt 0.503935 0.000692
vt 0.561277 0.000692
vt 0.688827 -0.000098
vt 0.002866 0.854679
vt 0.027518 0.706813
vt 0.061197 0.782654
vt 0.055608 0.663958
vt 0.251604 0.781884
vt 0.357109 0.710738
vt 0.243886 0.876138
vt 0.247300 0.848527
vt -0.000514 0.880403
vt 0.006948 0.782948
vt 0.674684 0.829607
vt 0.705811 0.784366
vt 0.654033 0.662928
vt 0.703232 0.671848
vt 0.720473 0.730776
vt 0.697736 0.853617
vt 0.729837 0.853035
vt 0.623758 0.856571
vt 0.587609 0.811448
vt 0.658187 0.605708
vt 0.748523 0.593788
vt 0.716351 0.931575
vt 0.747491 0.935506
vt 0.695349 0.885675
vt 0.676247 0.904603
vt 0.649719 0.961956
vt 0.745560 1.001324
vt 0.725611 0.781438
vt 0.747491 0.878462
vt 0.747491 0.808438
vt 0.720379 0.731031
vt 0.747491 0.790807
vt 0.720762 0.730332
vt 0.748639 0.732530
vt 0.746944 0.628012
vt 0.703659 0.671442
vt 0.731857 0.666086
vt 0.747085 0.666819
vt 0.703186 0.671176
vt 0.611291 0.885598
vt 0.604148 0.909350
vt 0.550618 0.823662
vt 0.550618 0.934468
vt 0.625864 0.557513
vt 0.571978 0.557920
vt 0.578607 0.510287
vt 0.669444 0.510287
vt 0.756032 0.560223
vt 0.679695 0.557918
vt 0.877240 0.461159
vt 0.992418 0.461159
vt 0.944262 0.560223
vt 0.756457 0.510287
vt 0.806202 0.560223
vt 0.498275 0.560223
vt 0.875566 0.382888
vt 0.758260 0.308662
vt 0.875912 0.308662
vt 0.759996 0.360654
vt 0.669163 0.382888
vt 0.671223 0.308662
vt 0.584325 0.382888
vt 0.577057 0.308662
vt 0.498223 0.363687
vt 0.498247 0.308662
vt 0.992597 0.308662
vt 0.992439 0.363687
vt 0.759483 0.410364
vt 0.758924 0.382888
vt 0.665903 0.461159
vt 0.580075 0.461159
vt 0.498223 0.402657
vt 0.992438 0.402657
vt 0.760539 0.449273
vt 0.498220 0.461159
vt 0.875438 0.575163
vt 0.762705 0.196431
vt 0.858161 0.196355
vt 0.690657 0.196417
vt 0.588027 0.196417
vt 0.498144 0.196431
vt 0.991918 0.196431
vt 0.375723 0.009258
vt 0.380090 0.017573
vt 0.356438 0.030356
vt 0.342839 0.029458
vt 0.369327 0.043627
vt 0.316032 0.012201
vt 0.336848 0.019568
vt 0.249292 0.041099
vt 0.371147 0.002582
vt 0.416197 0.004791
vt 0.408124 0.000758
vt 0.128136 0.016613
vt 0.154876 0.002573
vt 0.119423 0.002194
vt 0.160447 0.001473
vt 0.065726 0.014292
vt 0.105093 0.028910
vt 0.000825 0.069213
vt 0.000703 0.039244
vt 0.249314 0.055441
vt 0.429228 0.045736
vt 0.102506 0.115410
vt 0.153549 0.117195
vt 0.189513 0.114692
vt 0.228429 0.109580
vt 0.194639 0.033982
vt 0.406548 0.108121
vt 0.355355 0.108206
vt 0.448349 0.035630
vt 0.498209 0.039288
vt 0.461840 0.047992
vt 0.483032 0.114221
vt 0.406174 0.120334
vt 0.355217 0.119080
vt 0.243215 0.037501
vt 0.249314 0.089732
vt 0.000703 0.095058
vt 0.249292 0.105039
vt 0.160984 0.032072
vt 0.413806 0.033644
vt 0.442212 0.108407
vt 0.443088 0.117732
vt 0.023914 0.327327
vt 0.104127 0.227894
vt 0.000784 0.227894
vt 0.216171 0.327327
vt 0.216985 0.228421
vt 0.105699 0.228145
vt 0.104981 0.327662
vt 0.217575 0.327327
vt 0.351490 0.301452
vt 0.217290 0.227894
vt 0.351571 0.227894
vt 0.352420 0.301452
vt 0.489174 0.227894
vt 0.352342 0.227894
vt 0.471690 0.333380
vt 0.351597 0.328057
vt 0.217345 0.328075
vt 0.352312 0.363299
vt 0.470864 0.334174
vt 0.352330 0.328057
vt 0.216660 0.380224
vt 0.216104 0.328075
vt 0.104983 0.328371
vt 0.217232 0.380224
vt 0.351611 0.363299
vt 0.351459 0.420971
vt 0.352499 0.420971
vt 0.351589 0.497239
vt 0.229465 0.497239
vt 0.352627 0.497239
vt 0.229583 0.497239
vt 0.133020 0.497239
vt 0.072972 0.497239
vt 0.025422 0.328212
vt 0.002386 0.497239
vt 0.216130 0.152222
vt 0.223982 0.125749
vt 0.105883 0.155747
vt 0.351732 0.147623
vt 0.223132 0.128232
vt 0.218721 0.149411
vt 0.469070 0.149411
vt 0.483427 0.127273
vt 0.352306 0.146326
vt 0.017963 0.152222
vt 0.104256 0.155747
vt 0.009616 0.131504
vt 0.104128 0.227914
vt 0.000790 0.227921
vt 0.216984 0.228396
vt 0.351571 0.227971
vt 0.217291 0.227882
vt 0.352342 0.227879
vt 0.489111 0.227891
vt 0.948232 0.041698
vt 0.989968 0.003451
vt 0.971575 0.059997
vt 0.909211 0.004273
vt 0.996004 0.120663
vt 0.925604 0.058708
vt 0.885225 0.122889
vt 0.516483 0.798440
vt 0.501430 0.685191
vt 0.597947 0.686709
vt 0.594444 0.793024
vt 0.950876 0.082499
vt 0.943924 0.157220
vt 0.507177 0.624822
vt 0.600053 0.622523
vt 0.901715 0.182549
vt 0.982420 0.184037
vt 0.730212 0.975635
vt 0.685579 0.991654
vt 0.692830 0.969164

vn -0.669579 -0.740513 -0.057485
vn 0.228026 0.035141 -0.973021
vn -0.154760 -0.203690 -0.966726
vn 0.940840 -0.025236 0.337910
vn 0.819736 -0.109691 -0.562140
vn -0.021082 -0.294692 -0.955360
vn 0.235679 -0.217800 -0.947111
vn 0.923622 -0.272551 -0.269515
vn 0.184720 0.066439 -0.980543
vn 0.874122 -0.404850 -0.268343
vn -0.456112 -0.844373 -0.281062
vn -0.302631 -0.907261 -0.292049
vn -0.219688 -0.723433 -0.654509
vn -0.143646 -0.844985 0.515137
vn -0.474436 -0.529712 0.703076
vn 0.367428 -0.342025 0.864879
vn 0.378186 -0.315751 0.870216
vn 0.948315 -0.317328 -0.001003
vn 0.136034 0.190724 -0.972172
vn 0.388716 -0.487041 0.782107
vn 0.729129 -0.593920 0.340043
vn 0.650824 -0.168230 0.740356
vn 0.408435 0.096649 0.907656
vn 0.918443 -0.100397 0.382601
vn 0.094203 -0.240693 0.966019
vn 0.268846 -0.295625 0.916694
vn -0.006227 0.616983 -0.786952
vn 0.136337 0.181491 -0.973896
vn 0.619116 -0.464204 0.633411
vn 0.408094 0.893787 -0.186022
vn 0.312288 -0.200161 0.928661
vn 0.219493 0.743042 -0.632227
vn 0.667539 -0.137462 0.731776
vn 0.515658 0.310463 0.798567
vn 0.580438 0.661384 0.475040
vn 0.269051 0.242309 0.932147
vn 0.157735 0.047145 0.986355
vn 0.784428 0.169617 0.596576
vn 0.750827 0.647900 -0.128390
vn 0.473775 0.764244 -0.437571
vn 0.190747 0.925565 -0.327026
vn 0.513896 0.569364 0.641666
vn 0.400699 0.911523 -0.092548
vn 0.752372 0.643568 -0.140558
vn 0.221457 0.815019 -0.535444
vn 0.232348 0.807045 -0.542856
vn 0.202470 0.757610 -0.620510
vn 0.005771 0.208935 0.977912
vn 0.860315 0.092602 0.501281
vn 0.830328 0.062065 -0.553807
vn -0.017620 -0.124713 -0.992036
vn 0.008096 0.177491 0.984089
vn -0.201225 0.361978 0.910209
vn 0.914484 0.304034 0.266989
vn 0.787110 0.437650 0.434649
vn 0.905361 0.244398 0.347264
vn 0.829676 0.062920 -0.554688
vn 0.307808 0.200386 -0.930107
vn 0.777644 0.309544 -0.547222
vn 0.577143 0.074810 -0.813209
vn 0.310842 0.107612 -0.944350
vn -0.260834 -0.151106 -0.953485
vn 0.389398 0.118357 0.913434
vn 0.804764 0.467483 0.365805
vn 0.970846 -0.047595 -0.234931
vn 0.363509 0.070362 -0.928930
vn 0.382357 0.019842 0.923802
vn 0.848465 0.507728 -0.149399
vn 0.790237 0.481206 0.379429
vn 0.461116 0.036445 -0.886591
vn 0.769911 0.594856 -0.231048
vn -0.897205 -0.068131 -0.436326
vn 0.973246 -0.001446 -0.229763
vn -0.591862 0.178133 -0.786109
vn 0.822767 -0.261913 0.504437
vn 0.449121 -0.407814 0.794970
vn 0.142009 -0.185216 0.972383
vn 0.976795 -0.055362 0.206895
vn 0.984482 -0.001287 -0.175481
vn 0.998594 -0.049306 0.019493
vn 0.360741 -0.909655 0.205898
vn 0.193735 -0.074211 0.978243
vn 0.911170 -0.149324 0.384020
vn 0.974672 -0.039416 0.220136
vn -0.054128 0.761712 0.645650
vn 0.475325 0.094569 0.874713
vn 0.684975 0.142294 0.714535
vn 0.699334 0.151200 0.698620
vn 0.486846 -0.413857 0.769223
vn 0.313346 -0.503986 0.804868
vn 0.049237 0.781415 0.622066
vn -0.020318 -0.283515 0.958753
vn 0.245443 -0.845230 0.474705
vn 0.531248 -0.208613 0.821131
vn 0.474289 -0.797912 -0.372003
vn 0.864976 -0.164825 0.473971
vn 0.007762 -0.959525 -0.281515
vn 0.513966 -0.093902 0.852655
vn 0.810867 -0.088530 0.578496
vn 0.317125 -0.901928 -0.293184
vn 0.330399 -0.220819 0.917647
vn 0.977702 0.114254 -0.176197
vn 0.917814 0.281483 -0.279972
vn 0.767696 -0.441747 0.464221
vn 0.163228 -0.649334 0.742780
vn 0.826306 -0.272273 0.493038
vn 0.056784 -0.545676 0.836070
vn 0.520854 0.560332 0.644002
vn 0.978250 0.009257 0.207221
vn 0.884047 0.366914 0.289544
vn 0.769131 0.518339 0.373847
vn 0.497932 0.082602 0.863273
vn 0.491997 0.590405 -0.639813
vn 0.399782 0.661987 -0.633994
vn 0.151110 0.980494 0.125687
vn 0.030217 0.999208 -0.025898
vn 0.895516 -0.144547 0.420901
vn 0.735135 0.589836 0.334171
vn 0.589257 -0.154217 -0.793091
vn 0.906351 0.371558 -0.201179
vn -0.852559 -0.210628 0.478308
vn 0.962675 0.260362 0.073945
vn 0.589567 -0.152541 -0.793185
vn -0.798087 -0.369045 -0.476301
vn 0.345278 0.239692 0.907376
vn -0.996190 -0.077627 -0.039739
vn -0.481549 0.098442 -0.870873
vn 0.824543 -0.536055 0.181036
vn 0.094482 -0.021151 -0.995302
vn 0.979079 -0.101675 0.176259
vn 0.872537 0.120459 -0.473465
vn 0.736278 0.542214 0.404843
vn 0.397881 0.169922 0.901564
vn -0.500581 0.156089 0.851502
vn -0.780722 0.359380 0.511194
vn -0.472582 -0.529760 -0.704287
vn -0.538672 -0.461878 -0.704628
vn 0.687114 0.116707 -0.717115
vn 0.669929 -0.169709 -0.722769
vn 0.969162 0.185931 0.161722
vn 0.969095 0.185728 0.162357
vn 0.328064 0.258407 0.908625
vn -0.760473 -0.389028 0.519940
vn -0.795701 -0.298166 -0.527217
vn -0.491215 -0.663526 -0.564306
vn 0.745449 -0.205217 -0.634186
vn 0.561082 -0.081343 -0.823754
vn 0.941944 0.330307 0.060317
vn 0.949642 0.279113 0.142391
vn 0.346600 0.216285 0.912737
vn 0.240411 0.287512 0.927113
vn -0.963399 -0.095930 0.250320
vn 0.732814 -0.039075 -0.679306
vn -0.529652 -0.478890 -0.700095
vn -0.799520 -0.246548 0.547705
vn 0.333839 0.149408 0.930714
vn -0.763665 -0.303254 0.569959
vn 0.292677 0.165578 0.941766
vn 0.583654 0.094296 -0.806509
vn -0.558323 -0.527851 -0.640039
vn -0.999673 0.023721 -0.009526
vn -0.996730 0.016095 -0.079190
vn -0.289872 -0.509262 -0.810325
vn 0.079524 -0.481645 -0.872751
vn 0.861612 -0.435569 -0.260584
vn 0.784201 -0.416368 -0.460072
vn 0.862464 -0.155539 0.481626
vn 0.762654 -0.012241 0.646691
vn -0.499497 0.275158 0.821457
vn -0.342414 0.345763 0.873614
vn 0.409252 -0.879174 -0.244060
vn 0.549553 -0.332576 0.766411
vn 0.753422 0.582955 0.304170
vn 0.705889 0.535530 0.463603
vn 0.726362 0.531316 0.436006
vn 0.692630 0.304815 0.653721
vn 0.624028 0.297859 0.722405
vn 0.776194 -0.476926 -0.412390
vn 0.460480 -0.614185 -0.640886
vn -0.993407 0.103581 -0.049136
vn -0.662755 -0.712080 -0.231728
vn -0.997474 -0.022051 0.067524
vn -0.997946 -0.052556 -0.036621
vn -0.902952 -0.168907 0.395155
vn -0.211833 0.898704 0.384003
vn 0.869357 0.463999 0.170069
vn 0.851388 0.108628 0.513165
vn -0.740839 0.345402 0.576069
vn -0.724217 0.324388 0.608509
vn 0.642947 -0.550064 -0.532962
vn 0.641155 -0.518932 -0.565358
vn 0.851761 0.088482 0.516405
vn 0.613521 -0.671994 -0.414748
vn -0.385924 -0.341096 -0.857156
vn -0.499666 -0.366560 -0.784836
vn -0.729426 0.335801 0.595966
vn 0.798934 -0.312917 -0.513603
vn -0.743405 0.173992 0.645814
vn -0.936301 0.320692 -0.143169
vn -0.244379 -0.144365 -0.958873
vn 0.546653 -0.634974 0.545875
vn 0.657250 -0.465216 -0.592955
vn -0.453071 -0.116548 -0.883823
vn 0.998911 0.046629 -0.001366
vn 0.999415 0.032245 -0.011441
vn -0.726941 0.289476 0.622704
vn 0.862939 0.109292 0.493347
vn 0.607053 -0.626224 -0.489214
vn -0.398481 -0.501449 -0.767960
vn -0.906621 0.005590 -0.421910
vn 0.549270 0.517606 -0.656038
vn 0.535763 0.527139 -0.659608
vn 0.824440 0.073385 0.561172
vn 0.809827 0.006991 0.586627
vn -0.591269 -0.308651 0.745074
vn -0.524045 -0.368013 0.768078
vn 0.910865 -0.103457 0.399527
vn -0.549258 0.122533 0.826621
vn 0.574960 -0.248321 -0.779589
vn 0.875805 -0.102617 0.471630
vn 0.885527 -0.181381 0.427719
vn -0.255926 -0.479590 0.839342
vn 0.897496 0.033426 0.439754
vn -0.540961 -0.423560 0.726608
vn -0.878687 0.098084 -0.467214
vn 0.896452 0.113370 0.428393
vn -0.435649 -0.262322 0.861044
vn 0.923406 0.067677 0.377810
vn 0.563868 0.199852 -0.801319
vn 0.408306 0.037105 -0.912091
vn -0.310340 -0.109474 -0.944301
vn -0.764602 -0.359709 -0.534784
vn -0.473756 -0.334123 0.814811
vn -0.957866 -0.281848 -0.055259
vn 0.485001 0.629755 -0.606780
vn 0.829841 0.095815 0.549711
vn -0.555445 -0.247106 0.793989
vn -0.883293 0.149121 -0.444474
vn 0.728306 0.330689 -0.600178
vn -0.912361 -0.069238 -0.403488
vn -0.888451 -0.065656 -0.454252
vn 0.581081 0.277457 -0.765090
vn 0.841789 -0.227885 0.489346
vn 0.926643 -0.067815 0.369776
vn -0.603702 -0.526232 0.598853
vn -0.531416 -0.564126 0.631949
vn -0.890750 0.192673 -0.411633
vn -0.187832 0.242278 -0.951851
vn -0.919938 -0.388397 0.053499
vn 0.881212 0.200385 -0.428148
vn 0.241977 -0.961479 -0.130401
vn 0.202611 -0.969058 -0.140983
vn 0.524796 0.799381 0.292538
vn 0.500539 0.524653 -0.688622
vn -0.720114 0.357625 0.594592
vn 0.541610 0.804151 0.244947
vn -0.814853 0.321035 0.482650
vn 0.242162 -0.961845 -0.127324
vn 0.242646 -0.961774 -0.126939
vn 0.449419 0.877843 0.165574
vn 0.211465 0.339000 0.916712
vn -0.802186 0.480692 0.354164
vn 0.236845 -0.924428 -0.298893
vn -0.285283 0.101863 -0.953015
vn 0.283906 -0.235991 -0.929358
vn -0.847938 -0.060282 0.526656
vn -0.910710 -0.247645 -0.330573
vn -0.251186 -0.401876 -0.880569
vn -0.239315 -0.409487 -0.880369
vn -0.882164 -0.361038 -0.302386
vn -0.144672 0.240341 -0.959847
vn -0.915053 -0.265235 -0.303856
vn 0.421365 -0.801377 -0.424554
vn 0.267134 -0.872620 -0.408868
vn 0.066298 -0.625546 -0.777365
vn 0.269894 -0.852580 0.447510
vn 0.687734 -0.428130 0.586282
vn -0.206127 -0.278855 0.937951
vn -0.178351 -0.350967 0.919246
vn -0.930261 -0.320138 0.179236
vn -0.261759 0.179916 -0.948215
vn -0.343377 -0.545062 0.764853
vn -0.582090 -0.766211 0.272199
vn -0.427320 0.047889 0.902831
vn -0.389119 -0.062780 0.919046
vn -0.717735 -0.209442 0.664071
vn 0.029749 -0.251519 0.967395
vn -0.122432 -0.266306 0.956081
vn -0.332651 0.603096 -0.724996
vn -0.260068 0.162494 -0.951820
vn -0.323101 -0.548137 0.771460
vn -0.509534 0.802457 -0.310543
vn -0.121660 -0.267918 0.955729
vn -0.363979 0.617352 -0.697421
vn -0.327849 -0.231855 0.915837
vn -0.302004 0.265956 0.915457
vn -0.467719 0.760229 0.450877
vn -0.108096 0.195142 0.974800
vn -0.100146 0.185380 0.977550
vn -0.685813 0.221304 0.693315
vn -0.668437 0.702728 -0.243650
vn -0.345023 0.807050 -0.479197
vn -0.152910 0.911513 -0.381788
vn -0.318214 0.691229 0.648800
vn -0.463003 0.871240 -0.163002
vn -0.663392 0.720363 -0.202453
vn -0.229848 0.764762 -0.601921
vn -0.175131 0.809538 -0.560336
vn -0.229077 0.761220 -0.606686
vn 0.147383 0.442873 0.884388
vn -0.750450 0.097384 0.653714
vn -0.890619 0.203351 -0.406750
vn -0.294661 -0.008648 -0.955563
vn 0.163924 0.223286 0.960871
vn 0.009369 0.333985 0.942532
vn -0.839140 0.277633 0.467723
vn -0.688792 0.432950 0.581481
vn -0.535809 0.581087 0.612573
vn -0.955709 0.072099 -0.285345
vn -0.458814 0.163883 -0.873288
vn -0.868599 0.288299 -0.403014
vn -0.731106 0.078032 -0.677787
vn -0.460462 0.118620 -0.879718
vn 0.103245 -0.159906 -0.981718
vn -0.063441 0.063423 0.995968
vn -0.465333 0.762111 0.450168
vn -0.557234 0.531860 -0.637664
vn -0.738005 -0.332541 -0.587167
vn -0.086320 0.062239 0.994321
vn -0.600535 0.434813 -0.671040
vn -0.662315 0.641957 0.386303
vn -0.534274 -0.287389 -0.794959
vn -0.957015 0.260498 -0.127527
vn 0.694928 -0.342010 -0.632538
vn -0.604897 0.051353 -0.794646
vn -0.076936 -0.110741 -0.990867
vn -0.928924 -0.247935 0.275007
vn -0.626742 -0.374093 0.683556
vn -0.349277 -0.169813 0.921504
vn -0.995931 -0.066942 -0.060335
vn -0.922848 -0.100081 -0.371934
vn -0.844870 -0.068810 -0.530528
vn -0.346635 -0.917635 0.194397
vn -0.394118 -0.055773 0.917366
vn -0.977951 -0.090108 0.188392
vn -0.999624 0.022467 0.015689
vn -0.032097 0.761019 0.647935
vn -0.637534 0.129442 0.759471
vn -0.806571 0.189035 0.560097
vn -0.816797 0.198719 0.541621
vn -0.658690 -0.377950 0.650601
vn -0.502094 -0.478421 0.720427
vn -0.127031 0.786939 0.603813
vn -0.193988 -0.278071 0.940768
vn -0.389319 -0.825331 0.408974
vn -0.699976 -0.170024 0.693633
vn -0.368092 -0.712054 -0.597902
vn -0.983999 -0.037368 0.174209
vn -0.008322 -0.958498 -0.284979
vn -0.682440 -0.056407 0.728762
vn -0.916013 -0.034405 0.399671
vn -0.223378 -0.889246 -0.399178
vn -0.524298 -0.194027 0.829135
vn -0.908679 0.175289 -0.378914
vn -0.818594 0.333865 -0.467373
vn -0.872332 -0.390348 0.294391
vn -0.351756 -0.633196 0.689442
vn -0.924985 -0.217378 0.311686
vn -0.260433 -0.535717 0.803233
vn -0.605914 0.595648 0.527325
vn -0.997460 0.071181 0.002629
vn -0.900126 0.422840 0.104786
vn -0.795747 0.567389 0.211795
vn -0.658012 0.118839 0.743571
vn -0.334742 0.600486 -0.726198
vn -0.219665 0.682660 -0.696938
vn -0.112592 0.988759 0.098379
vn 0.037690 0.998974 -0.025119
vn -0.900575 -0.019601 0.434258
vn -0.725262 0.514101 0.457925
vn -0.630882 -0.552678 -0.544551
vn -0.909208 0.133312 -0.394421
vn 0.940405 0.325604 0.098078
vn -0.960672 0.126820 0.247033
vn -0.666365 -0.343382 -0.661851
vn 0.625836 -0.680152 -0.381735
vn 0.228945 0.197625 0.953168
vn 0.673354 0.614268 -0.411423
vn 0.152499 0.313513 -0.937259
vn -0.141007 -0.224194 0.964289
vn -0.168994 -0.321367 -0.931753
vn -0.752068 -0.496114 0.433895
vn -0.837887 -0.436567 -0.327650
vn -0.903770 0.033938 0.426671
vn -0.520596 0.070954 0.850850
vn 0.534853 0.645474 0.545248
vn -0.047905 0.921716 -0.384895
vn 0.446145 -0.736215 -0.508863
vn 0.489652 -0.689937 -0.533130
vn -0.775135 -0.239705 -0.584557
vn -0.733467 -0.468632 -0.492352
vn -0.953461 0.179812 0.242034
vn -0.963559 0.176512 0.200993
vn -0.142387 0.689112 0.710528
vn 0.826756 -0.183464 0.531805
vn 0.610510 -0.600341 -0.516593
vn 0.495149 -0.801455 -0.335408
vn -0.786165 -0.472698 -0.398120
vn -0.677383 -0.374132 -0.633385
vn -0.947266 0.287193 0.142154
vn -0.944072 0.280887 0.172716
vn 0.286990 0.783590 0.551021
vn -0.150795 0.574194 0.804712
vn 0.631732 0.285401 0.720737
vn -0.786855 -0.301020 -0.538745
vn 0.495599 -0.678699 -0.541987
vn 0.872380 0.078751 0.482443
vn -0.048957 0.474473 0.878908
vn 0.833871 0.046724 0.549978
vn -0.210045 0.376918 0.902116
vn -0.698564 -0.285413 -0.656161
vn 0.547035 -0.666658 -0.506280
vn 0.740523 0.660666 -0.123070
vn 0.756405 0.581561 -0.299397
vn 0.674108 -0.178617 -0.716711
vn 0.127324 -0.602434 -0.787948
vn -0.476490 -0.875635 -0.078875
vn -0.466822 -0.871136 -0.152312
vn -0.547342 -0.421081 0.723261
vn -0.543351 -0.356797 0.759911
vn 0.427869 0.716490 0.550972
vn 0.225465 0.691937 0.685848
vn -0.212258 -0.968938 0.126909
vn -0.218774 -0.415981 0.882665
vn -0.800440 0.299490 0.519232
vn -0.803175 0.222577 0.552602
vn -0.739601 0.281323 0.611431
vn -0.588512 0.052175 0.806803
vn -0.515165 0.097897 0.851482
vn -0.550832 -0.834366 -0.020441
vn -0.385448 -0.912705 -0.135640
vn 0.730820 0.568355 -0.377987
vn 0.925609 -0.348683 -0.147201
vn 0.841256 0.493232 -0.221381
vn 0.832937 0.463575 -0.302184
vn 0.903583 0.420711 0.080873
vn -0.219833 0.933939 0.281837
vn -0.919756 -0.026758 0.391577
vn -0.622799 -0.168379 0.764048
vn 0.605082 0.672803 0.425689
vn 0.615173 0.645730 0.452322
vn -0.321067 -0.909754 -0.263180
vn -0.343786 -0.890877 -0.296901
vn -0.409226 0.059339 0.910502
vn -0.310056 -0.914488 -0.259956
vn 0.059961 -0.254484 -0.965216
vn 0.536326 -0.049047 -0.842585
vn 0.544665 0.773888 0.323168
vn -0.570764 -0.790244 -0.223032
vn 0.588322 0.691154 0.419742
vn 0.528165 0.737755 -0.420427
vn 0.320141 0.257467 -0.911713
vn -0.226294 -0.689425 0.688101
vn -0.395170 -0.859582 -0.323973
vn 0.122063 0.131080 -0.983829
vn -0.826684 -0.474010 0.303164
vn -0.821334 -0.488191 0.295093
vn 0.634499 0.622123 0.458665
vn -0.200882 0.084103 0.975999
vn -0.307500 -0.916166 -0.257067
vn 0.316121 -0.283049 -0.905511
vn 0.889041 -0.018186 -0.457466
vn -0.499243 0.390566 -0.773443
vn -0.581160 0.340975 -0.738911
vn -0.789823 0.106241 0.604064
vn -0.785183 0.090664 0.612591
vn 0.592892 -0.198839 0.780347
vn 0.496907 -0.276820 0.822469
vn -0.910143 -0.144844 0.388150
vn 0.564580 -0.106661 0.818458
vn -0.560208 -0.075023 -0.824947
vn -0.776694 -0.237304 0.583466
vn -0.775004 -0.225013 0.590540
vn 0.317256 -0.487367 0.813525
vn -0.850794 0.200195 0.485872
vn 0.547974 -0.424522 0.720767
vn 0.864505 0.037964 -0.501188
vn -0.793262 0.059969 0.605921
vn 0.618549 -0.259050 0.741816
vn -0.831298 0.009675 0.555742
vn -0.746117 0.185752 -0.639379
vn -0.539248 -0.029882 -0.841617
vn 0.091469 -0.092075 -0.991542
vn 0.746167 -0.328864 -0.578863
vn 0.630951 -0.284199 0.721894
vn 0.943209 -0.240894 -0.228752
vn -0.545063 0.375305 -0.749701
vn -0.811311 0.293573 0.505558
vn 0.591160 -0.054838 0.804688
vn 0.878846 0.053203 -0.474131
vn -0.722892 0.143312 -0.675935
vn 0.908596 -0.174503 -0.379477
vn 0.848731 -0.199794 -0.489630
vn -0.549587 0.035922 -0.834664
vn -0.813004 -0.079201 0.576847
vn -0.925859 0.067927 0.371713
vn 0.635449 -0.277348 0.720613
vn 0.577039 -0.299216 0.759932
vn 0.889895 0.138305 -0.434694
vn 0.189821 0.065185 -0.979652
vn 0.937792 -0.335737 0.088467
vn -0.895566 0.112357 -0.430507
vn -0.213339 -0.976962 -0.005595
vn -0.562913 0.805173 0.186614
vn -0.541441 0.405104 -0.736704
vn 0.723175 0.448569 0.525171
vn -0.571502 0.803984 0.164304
vn 0.812408 0.402330 0.422046
vn -0.214012 -0.976829 -0.001799
vn -0.213988 -0.976835 -0.001818
vn -0.473964 0.878164 0.064699
vn -0.206453 0.444130 0.871852
vn 0.792513 0.544208 0.275248
vn -0.063668 -0.991785 -0.110949

f 1/1/1 2/2/1 3/3/1
f 4/4/2 5/5/2 6/6/2
f 4/4/3 6/7/3 7/8/3
f 5/9/4 8/10/4 9/11/4
f 10/12/5 11/13/5 9/14/5
f 6/6/6 11/15/6 7/8/6
f 6/6/7 12/16/7 11/13/7
f 12/17/8 5/5/8 9/14/8
f 6/6/9 5/5/9 12/17/9
f 11/13/10 12/18/10 9/19/10
f 13/20/11 14/21/11 15/22/11
f 14/21/12 13/20/12 16/23/12
f 16/24/13 13/20/13 17/25/13
f 15/22/14 14/21/14 18/26/14
f 14/21/15 19/27/15 18/26/15
f 18/26/16 20/28/16 21/29/16
f 18/26/17 19/27/17 20/28/17
f 20/28/18 3/30/18 21/29/18
f 5/9/19 22/31/19 23/32/19
f 24/33/20 25/34/20 26/35/20
f 27/36/21 25/34/21 9/37/21
f 28/38/22 27/39/22 29/40/22
f 30/41/23 25/34/23 24/33/23
f 25/34/24 30/41/24 10/42/24
f 30/41/25 24/33/25 31/43/25
f 24/33/26 26/44/26 32/45/26
f 33/46/27 34/47/27 5/9/27
f 4/4/28 22/31/28 5/9/28
f 26/35/29 25/34/29 27/39/29
f 33/46/30 35/48/30 34/47/30
f 32/45/31 26/35/31 28/38/31
f 23/32/32 33/46/32 5/9/32
f 26/35/33 27/39/33 28/38/33
f 28/38/34 29/40/34 36/49/34
f 35/50/35 37/51/35 29/40/35
f 28/38/36 38/52/36 32/45/36
f 36/49/37 38/52/37 28/38/37
f 36/49/38 37/53/38 39/54/38
f 39/55/39 37/56/39 40/57/39
f 41/58/40 42/59/40 39/55/40
f 39/55/41 40/57/41 41/58/41
f 36/49/42 29/40/42 37/51/42
f 37/56/43 35/48/43 33/46/43
f 37/56/44 33/46/44 40/57/44
f 40/57/45 33/46/45 43/60/45
f 40/57/46 43/60/46 41/58/46
f 33/46/47 23/32/47 43/60/47
f 44/61/48 45/62/48 30/63/48
f 15/64/49 46/65/49 45/62/49
f 46/66/50 47/67/50 10/68/50
f 47/67/51 7/69/51 11/70/51
f 45/62/52 44/61/52 17/71/52
f 44/61/53 30/63/53 31/72/53
f 13/73/54 15/64/54 45/62/54
f 46/65/55 10/74/55 45/62/55
f 45/62/56 10/74/56 30/63/56
f 47/67/57 11/70/57 10/68/57
f 47/67/58 48/75/58 7/69/58
f 46/66/59 15/76/59 47/67/59
f 18/77/60 47/67/60 15/76/60
f 47/67/61 18/77/61 48/75/61
f 18/77/62 21/78/62 48/75/62
f 13/73/63 45/62/63 17/71/63
f 49/79/64 35/50/64 29/40/64
f 8/80/65 27/81/65 9/82/65
f 34/47/66 50/83/66 5/84/66
f 27/36/67 49/79/67 29/40/67
f 35/48/68 51/85/68 52/86/68
f 35/50/69 49/79/69 51/87/69
f 52/86/70 50/83/70 34/47/70
f 35/48/71 52/86/71 34/47/71
f 5/84/72 50/83/72 8/10/72
f 53/88/73 27/81/73 8/80/73
f 53/88/74 49/79/74 27/36/74
f 54/89/75 55/90/75 56/91/75
f 57/92/76 55/90/76 58/93/76
f 59/94/77 60/95/77 55/90/77
f 61/96/78 54/89/78 56/91/78
f 39/97/79 61/96/79 36/98/79
f 36/98/80 61/96/80 56/91/80
f 36/98/81 56/91/81 38/99/81
f 62/100/82 63/101/82 64/102/82
f 65/103/83 64/102/83 54/89/83
f 61/96/84 65/103/84 54/89/84
f 66/104/85 67/105/85 62/100/85
f 55/90/86 60/95/86 68/106/86
f 69/107/87 68/106/87 60/95/87
f 69/107/88 70/108/88 68/106/88
f 58/109/89 55/90/89 68/106/89
f 68/106/90 71/110/90 58/111/90
f 62/100/91 67/105/91 63/101/91
f 64/102/92 63/101/92 69/107/92
f 70/108/93 71/110/93 68/106/93
f 58/111/94 71/110/94 72/112/94
f 56/91/95 57/92/95 38/113/95
f 55/90/96 57/114/96 56/91/96
f 73/115/97 74/116/97 38/113/97
f 58/109/98 72/112/98 73/115/98
f 57/117/99 58/111/99 73/115/99
f 57/92/100 73/115/100 38/113/100
f 73/115/101 72/112/101 74/116/101
f 39/97/102 75/118/102 61/96/102
f 75/118/103 39/97/103 76/119/103
f 64/102/104 59/94/104 54/89/104
f 64/102/105 60/95/105 59/94/105
f 54/89/106 59/94/106 55/90/106
f 64/102/107 69/107/107 60/95/107
f 65/103/108 66/104/108 62/100/108
f 65/103/109 61/96/109 75/118/109
f 75/118/110 76/119/110 65/103/110
f 66/104/111 65/103/111 76/119/111
f 62/100/112 64/102/112 65/103/112
f 39/97/113 42/120/113 76/119/113
f 77/121/114 76/119/114 42/120/114
f 67/105/115 76/119/115 77/121/115
f 66/104/116 76/119/116 67/105/116
f 9/82/117 25/34/117 10/42/117
f 51/122/118 49/123/118 78/124/118
f 79/125/119 50/126/119 52/127/119
f 52/127/120 51/122/120 79/125/120
f 80/128/121 81/129/121 53/130/121
f 51/122/122 78/124/122 79/125/122
f 82/131/123 50/126/123 79/125/123
f 50/126/124 82/131/124 8/132/124
f 53/133/125 78/124/125 49/123/125
f 83/134/126 84/135/126 85/136/126
f 84/135/127 83/134/127 86/137/127
f 86/137/128 87/138/128 84/135/128
f 88/139/129 84/135/129 87/138/129
f 87/138/130 89/140/130 88/139/130
f 90/141/131 88/139/131 89/140/131
f 91/142/132 92/143/132 90/141/132
f 90/141/133 89/140/133 91/142/133
f 85/136/134 92/144/134 91/145/134
f 91/145/135 83/134/135 85/136/135
f 80/128/136 93/146/136 83/134/136
f 94/147/137 83/134/137 93/146/137
f 93/146/138 87/138/138 94/147/138
f 87/138/139 93/146/139 95/148/139
f 95/148/140 96/149/140 87/138/140
f 89/140/141 87/138/141 96/149/141
f 97/150/142 91/142/142 89/140/142
f 97/151/143 81/129/143 80/128/143
f 8/132/144 82/131/144 80/128/144
f 93/146/145 80/128/145 98/152/145
f 98/152/146 95/148/146 93/146/146
f 95/148/147 82/131/147 79/125/147
f 79/125/148 78/124/148 95/148/148
f 96/149/149 95/148/149 78/124/149
f 78/124/150 53/133/150 81/153/150
f 81/153/151 96/149/151 78/124/151
f 80/128/152 53/130/152 8/154/152
f 94/147/153 87/138/153 86/137/153
f 86/137/154 83/134/154 94/147/154
f 97/151/155 83/134/155 91/145/155
f 89/140/156 96/149/156 97/150/156
f 80/128/157 83/134/157 97/151/157
f 81/153/158 97/150/158 96/149/158
f 82/131/159 95/148/159 98/152/159
f 98/152/160 80/128/160 82/131/160
f 85/136/161 99/155/161 100/156/161
f 99/155/162 85/136/162 84/135/162
f 84/135/163 101/157/163 99/155/163
f 101/157/164 84/135/164 88/139/164
f 88/139/165 90/141/165 101/157/165
f 102/158/166 101/157/166 90/141/166
f 90/141/167 103/159/167 102/158/167
f 103/159/168 90/141/168 92/143/168
f 92/144/169 85/136/169 103/160/169
f 100/156/170 103/160/170 85/136/170
f 104/161/171 105/162/171 106/163/171
f 107/164/172 106/163/172 108/165/172
f 109/166/173 110/167/173 103/168/173
f 109/166/174 111/169/174 104/161/174
f 104/161/175 110/167/175 109/166/175
f 104/161/176 111/169/176 112/170/176
f 113/171/177 112/170/177 111/169/177
f 106/163/178 110/167/178 104/161/178
f 104/161/179 112/170/179 105/162/179
f 105/172/180 113/173/180 111/174/180
f 113/173/181 105/172/181 112/175/181
f 105/172/182 111/174/182 109/176/182
f 109/176/183 106/177/183 105/172/183
f 109/176/184 100/178/184 106/177/184
f 103/179/185 100/178/185 109/176/185
f 102/180/186 103/168/186 110/167/186
f 106/163/187 114/181/187 108/165/187
f 115/182/188 116/183/188 106/177/188
f 116/184/189 117/185/189 118/186/189
f 108/165/190 114/181/190 119/187/190
f 119/187/191 120/188/191 108/165/191
f 118/189/192 121/190/192 114/191/192
f 114/191/193 121/190/193 117/192/193
f 116/193/194 115/194/194 119/187/194
f 120/188/195 119/187/195 115/194/195
f 121/195/196 118/186/196 117/185/196
f 108/165/197 101/196/197 102/180/197
f 115/182/198 106/177/198 100/178/198
f 100/178/199 99/197/199 115/182/199
f 120/188/200 99/198/200 101/196/200
f 106/163/201 107/164/201 110/167/201
f 108/165/202 120/188/202 101/196/202
f 120/188/203 115/194/203 99/198/203
f 107/164/204 102/180/204 110/167/204
f 102/180/205 107/164/205 108/165/205
f 118/199/206 106/177/206 116/183/206
f 114/181/207 106/163/207 118/200/207
f 114/191/208 117/192/208 119/201/208
f 117/192/209 116/202/209 119/201/209
f 122/203/210 123/204/210 124/205/210
f 125/206/211 126/207/211 123/208/211
f 125/206/212 123/208/212 127/209/212
f 125/210/213 128/211/213 126/212/213
f 128/211/214 129/213/214 126/212/214
f 128/214/215 124/215/215 129/216/215
f 122/217/216 124/215/216 128/214/216
f 130/218/217 128/211/217 125/219/217
f 131/220/218 122/221/218 130/222/218
f 132/223/219 125/224/219 127/225/219
f 132/226/220 131/227/220 125/219/220
f 133/228/221 131/227/221 132/226/221
f 133/229/222 122/221/222 131/220/222
f 130/218/223 125/219/223 131/227/223
f 128/214/224 130/222/224 122/221/224
f 127/209/225 123/204/225 122/203/225
f 16/230/226 133/228/226 14/231/226
f 16/232/227 3/3/227 133/229/227
f 14/231/228 133/228/228 132/226/228
f 14/233/229 132/223/229 19/234/229
f 132/223/230 127/225/230 19/234/230
f 20/235/231 19/234/231 127/225/231
f 20/235/232 127/225/232 122/236/232
f 3/3/233 122/221/233 133/229/233
f 3/237/234 20/235/234 122/236/234
f 134/238/235 135/239/235 136/240/235
f 137/241/236 135/242/236 134/243/236
f 138/244/237 139/245/237 137/246/237
f 138/247/238 136/248/238 139/249/238
f 134/238/239 136/240/239 123/208/239
f 138/247/240 123/250/240 136/248/240
f 123/250/241 138/247/241 124/251/241
f 134/238/242 123/208/242 126/252/242
f 129/253/243 134/243/243 126/254/243
f 137/241/244 134/243/244 129/253/244
f 138/244/245 137/246/245 129/255/245
f 138/244/246 129/255/246 124/256/246
f 136/257/247 140/258/247 139/259/247
f 136/257/248 141/260/248 140/258/248
f 142/261/249 139/259/249 140/258/249
f 135/262/250 143/263/250 141/260/250
f 141/264/251 143/265/251 142/266/251
f 142/266/252 140/267/252 141/264/252
f 137/268/253 143/263/253 135/262/253
f 135/262/254 141/260/254 136/257/254
f 139/259/255 142/261/255 137/268/255
f 137/268/256 144/269/256 143/263/256
f 137/268/257 142/261/257 144/269/257
f 143/265/258 145/270/258 146/271/258
f 146/271/259 142/266/259 143/265/259
f 143/263/260 144/269/260 145/272/260
f 144/269/261 146/273/261 145/272/261
f 146/273/262 144/269/262 142/261/262
f 3/274/263 16/275/263 17/276/263
f 147/5/264 4/4/264 148/6/264
f 148/7/265 4/4/265 7/8/265
f 149/10/266 147/9/266 150/11/266
f 151/13/267 152/12/267 150/14/267
f 151/15/268 148/6/268 7/8/268
f 153/16/269 148/6/269 151/13/269
f 147/5/270 153/17/270 150/14/270
f 147/5/271 148/6/271 153/17/271
f 153/18/272 151/13/272 150/19/272
f 154/21/273 155/20/273 156/22/273
f 155/20/274 154/21/274 157/23/274
f 155/20/275 157/24/275 17/25/275
f 154/21/276 156/22/276 158/26/276
f 159/27/277 154/21/277 158/26/277
f 160/28/278 158/26/278 21/29/278
f 159/27/279 158/26/279 160/28/279
f 3/30/280 160/28/280 21/29/280
f 22/31/281 147/9/281 23/32/281
f 161/34/282 24/33/282 162/35/282
f 161/34/283 163/36/283 150/37/283
f 163/39/284 164/38/284 165/40/284
f 161/34/285 166/41/285 24/33/285
f 166/41/286 161/34/286 152/42/286
f 24/33/287 166/41/287 31/43/287
f 162/44/288 24/33/288 32/45/288
f 167/47/289 168/46/289 147/9/289
f 22/31/290 4/4/290 147/9/290
f 161/34/291 162/35/291 163/39/291
f 169/48/292 168/46/292 167/47/292
f 162/35/293 32/45/293 164/38/293
f 168/46/294 23/32/294 147/9/294
f 163/39/295 162/35/295 164/38/295
f 165/40/296 164/38/296 170/49/296
f 171/51/297 169/50/297 165/40/297
f 38/52/298 164/38/298 32/45/298
f 38/52/299 170/49/299 164/38/299
f 171/53/300 170/49/300 172/54/300
f 171/56/301 172/55/301 173/57/301
f 42/59/302 41/58/302 172/55/302
f 173/57/303 172/55/303 41/58/303
f 165/40/304 170/49/304 171/51/304
f 169/48/305 171/56/305 168/46/305
f 168/46/306 171/56/306 173/57/306
f 168/46/307 173/57/307 43/60/307
f 43/60/308 173/57/308 41/58/308
f 23/32/309 168/46/309 43/60/309
f 174/62/310 44/61/310 166/63/310
f 175/65/311 156/64/311 174/62/311
f 176/67/312 175/66/312 152/68/312
f 7/69/313 176/67/313 151/70/313
f 44/61/314 174/62/314 17/71/314
f 166/63/315 44/61/315 31/72/315
f 156/64/316 155/73/316 174/62/316
f 152/74/317 175/65/317 174/62/317
f 152/74/318 174/62/318 166/63/318
f 151/70/319 176/67/319 152/68/319
f 48/75/320 176/67/320 7/69/320
f 156/76/321 175/66/321 176/67/321
f 176/67/322 158/77/322 156/76/322
f 158/77/323 176/67/323 48/75/323
f 21/78/324 158/77/324 48/75/324
f 174/62/325 155/73/325 17/71/325
f 169/50/326 177/79/326 165/40/326
f 163/81/327 149/80/327 150/82/327
f 178/83/328 167/47/328 147/84/328
f 177/79/329 163/36/329 165/40/329
f 179/85/330 169/48/330 180/86/330
f 177/79/331 169/50/331 179/87/331
f 178/83/332 180/86/332 167/47/332
f 180/86/333 169/48/333 167/47/333
f 178/83/334 147/84/334 149/10/334
f 163/81/335 181/88/335 149/80/335
f 177/79/336 181/88/336 163/36/336
f 182/90/337 183/89/337 184/91/337
f 182/90/338 185/92/338 186/93/338
f 187/95/339 188/94/339 182/90/339
f 183/89/340 189/96/340 184/91/340
f 189/96/341 172/97/341 170/98/341
f 189/96/342 170/98/342 184/91/342
f 184/91/343 170/98/343 38/99/343
f 63/101/344 190/100/344 191/102/344
f 191/102/345 192/103/345 183/89/345
f 192/103/346 189/96/346 183/89/346
f 67/105/347 193/104/347 190/100/347
f 187/95/348 182/90/348 194/106/348
f 194/106/349 69/107/349 187/95/349
f 70/108/350 69/107/350 194/106/350
f 182/90/351 186/109/351 194/106/351
f 71/110/352 194/106/352 186/111/352
f 67/105/353 190/100/353 63/101/353
f 63/101/354 191/102/354 69/107/354
f 71/110/355 70/108/355 194/106/355
f 71/110/356 186/111/356 72/112/356
f 185/92/357 184/91/357 38/113/357
f 185/114/358 182/90/358 184/91/358
f 74/116/359 195/115/359 38/113/359
f 72/112/360 186/109/360 195/115/360
f 186/111/361 185/117/361 195/115/361
f 195/115/362 185/92/362 38/113/362
f 72/112/363 195/115/363 74/116/363
f 196/118/364 172/97/364 189/96/364
f 172/97/365 196/118/365 197/119/365
f 188/94/366 191/102/366 183/89/366
f 187/95/367 191/102/367 188/94/367
f 188/94/368 183/89/368 182/90/368
f 69/107/369 191/102/369 187/95/369
f 193/104/370 192/103/370 190/100/370
f 189/96/371 192/103/371 196/118/371
f 197/119/372 196/118/372 192/103/372
f 192/103/373 193/104/373 197/119/373
f 191/102/374 190/100/374 192/103/374
f 42/120/375 172/97/375 197/119/375
f 197/119/376 77/121/376 42/120/376
f 197/119/377 67/105/377 77/121/377
f 197/119/378 193/104/378 67/105/378
f 161/34/379 150/82/379 152/42/379
f 177/123/380 179/122/380 198/124/380
f 178/126/381 199/125/381 180/127/381
f 179/122/382 180/127/382 199/125/382
f 200/129/383 201/128/383 181/130/383
f 198/124/384 179/122/384 199/125/384
f 178/126/385 202/131/385 199/125/385
f 202/131/386 178/126/386 149/132/386
f 198/124/387 181/133/387 177/123/387
f 203/135/388 204/134/388 205/136/388
f 204/134/389 203/135/389 206/137/389
f 207/138/390 206/137/390 203/135/390
f 203/135/391 208/139/391 207/138/391
f 209/140/392 207/138/392 208/139/392
f 208/139/393 210/141/393 209/140/393
f 211/143/394 212/142/394 210/141/394
f 209/140/395 210/141/395 212/142/395
f 211/144/396 205/136/396 212/145/396
f 204/134/397 212/145/397 205/136/397
f 213/146/398 201/128/398 204/134/398
f 204/134/399 214/147/399 213/146/399
f 207/138/400 213/146/400 214/147/400
f 213/146/401 207/138/401 215/148/401
f 216/149/402 215/148/402 207/138/402
f 207/138/403 209/140/403 216/149/403
f 212/142/404 217/150/404 209/140/404
f 200/129/405 217/151/405 201/128/405
f 202/131/406 149/132/406 201/128/406
f 201/128/407 213/146/407 218/152/407
f 215/148/408 218/152/408 213/146/408
f 202/131/409 215/148/409 199/125/409
f 198/124/410 199/125/410 215/148/410
f 215/148/411 216/149/411 198/124/411
f 181/133/412 198/124/412 200/153/412
f 216/149/413 200/153/413 198/124/413
f 181/130/414 201/128/414 149/154/414
f 207/138/415 214/147/415 206/137/415
f 204/134/416 206/137/416 214/147/416
f 204/134/417 217/151/417 212/145/417
f 216/149/418 209/140/418 217/150/418
f 204/134/419 201/128/419 217/151/419
f 217/150/420 200/153/420 216/149/420
f 215/148/421 202/131/421 218/152/421
f 201/128/422 218/152/422 202/131/422
f 219/155/423 205/136/423 220/156/423
f 205/136/424 219/155/424 203/135/424
f 221/157/425 203/135/425 219/155/425
f 203/135/426 221/157/426 208/139/426
f 210/141/427 208/139/427 221/157/427
f 221/157/428 222/158/428 210/141/428
f 223/159/429 210/141/429 222/158/429
f 210/141/430 223/159/430 211/143/430
f 205/136/431 211/144/431 223/160/431
f 223/160/432 220/156/432 205/136/432
f 224/162/433 225/161/433 226/163/433
f 226/163/434 227/164/434 228/165/434
f 229/167/435 230/166/435 223/168/435
f 231/169/436 230/166/436 225/161/436
f 229/167/437 225/161/437 230/166/437
f 231/169/438 225/161/438 232/170/438
f 232/170/439 233/171/439 231/169/439
f 229/167/440 226/163/440 225/161/440
f 232/170/441 225/161/441 224/162/441
f 233/173/442 224/172/442 231/174/442
f 224/172/443 233/173/443 232/175/443
f 231/174/444 224/172/444 230/176/444
f 226/177/445 230/176/445 224/172/445
f 220/178/446 230/176/446 226/177/446
f 220/178/447 223/179/447 230/176/447
f 223/168/448 222/180/448 229/167/448
f 234/181/449 226/163/449 228/165/449
f 235/183/450 236/182/450 226/177/450
f 237/185/451 235/184/451 238/186/451
f 234/181/452 228/165/452 239/187/452
f 240/188/453 239/187/453 228/165/453
f 241/190/454 238/189/454 234/191/454
f 241/190/455 234/191/455 237/192/455
f 236/194/456 235/193/456 239/187/456
f 239/187/457 240/188/457 236/194/457
f 238/186/458 241/195/458 237/185/458
f 221/196/459 228/165/459 222/180/459
f 226/177/460 236/182/460 220/178/460
f 219/197/461 220/178/461 236/182/461
f 219/198/462 240/188/462 221/196/462
f 227/164/463 226/163/463 229/167/463
f 240/188/464 228/165/464 221/196/464
f 236/194/465 240/188/465 219/198/465
f 222/180/466 227/164/466 229/167/466
f 227/164/467 222/180/467 228/165/467
f 226/177/468 238/199/468 235/183/468
f 226/163/469 234/181/469 238/200/469
f 237/192/470 234/191/470 239/201/470
f 235/202/471 237/192/471 239/201/471
f 242/204/472 243/203/472 244/205/472
f 245/207/473 246/206/473 242/208/473
f 242/208/474 246/206/474 247/209/474
f 248/211/475 246/210/475 245/212/475
f 249/213/476 248/211/476 245/212/476
f 244/215/477 248/214/477 249/216/477
f 244/215/478 243/217/478 248/214/478
f 248/211/479 250/218/479 246/219/479
f 243/221/480 251/220/480 250/222/480
f 246/224/481 252/223/481 247/225/481
f 251/227/482 252/226/482 246/219/482
f 251/227/483 253/228/483 252/226/483
f 243/221/484 253/229/484 251/220/484
f 246/219/485 250/218/485 251/227/485
f 250/222/486 248/214/486 243/221/486
f 242/204/487 247/209/487 243/203/487
f 253/228/488 157/230/488 154/231/488
f 3/3/489 157/232/489 253/229/489
f 253/228/490 154/231/490 252/226/490
f 252/223/491 154/233/491 159/234/491
f 247/225/492 252/223/492 159/234/492
f 159/234/493 160/235/493 247/225/493
f 247/225/494 160/235/494 243/236/494
f 243/221/495 3/3/495 253/229/495
f 160/235/496 3/237/496 243/236/496
f 254/239/497 255/238/497 256/240/497
f 254/242/498 257/241/498 255/243/498
f 258/245/499 259/244/499 257/246/499
f 256/248/500 259/247/500 258/249/500
f 256/240/501 255/238/501 242/208/501
f 242/250/502 259/247/502 256/248/502
f 259/247/503 242/250/503 244/251/503
f 242/208/504 255/238/504 245/252/504
f 255/243/505 249/253/505 245/254/505
f 255/243/506 257/241/506 249/253/506
f 257/246/507 259/244/507 249/255/507
f 249/255/508 259/244/508 244/256/508
f 260/258/509 256/257/509 258/259/509
f 261/260/510 256/257/510 260/258/510
f 258/259/511 262/261/511 260/258/511
f 263/263/512 254/262/512 261/260/512
f 263/265/513 261/264/513 262/266/513
f 260/267/513 262/266/513 261/264/513
f 263/263/514 257/268/514 254/262/514
f 261/260/515 254/262/515 256/257/515
f 262/261/516 258/259/516 257/268/516
f 264/269/517 257/268/517 263/263/517
f 262/261/518 257/268/518 264/269/518
f 265/270/519 263/265/519 266/271/519
f 262/266/520 266/271/520 263/265/520
f 264/269/521 263/263/521 265/272/521
f 266/273/522 264/269/522 265/272/522
f 264/269/523 266/273/523 262/261/523
f 157/275/524 3/274/524 17/276/524

o 
usemtl axe.001
s off

v 1.203290 19.321840 47.992218
v 0.749730 22.234631 41.289181
v -0.581620 11.894979 44.156441
v -0.627390 14.473000 42.027702
v -0.815520 10.537790 42.517838
v -0.861290 13.115810 40.389091
v -0.744080 8.022020 34.349411
v -0.469010 15.162740 32.750969
v 1.292540 14.295071 52.142948
v -0.654830 2.995260 38.500149
v 1.017470 7.154350 53.741413
v -0.535860 9.316950 46.285202
v -0.769740 7.959770 44.646591
v -0.201270 0.082460 45.203190
v 1.318200 14.357329 41.845779
v 1.363980 11.779300 43.974529
v 1.084310 13.000140 40.207199
v 1.130080 10.422120 42.335930
v 1.409750 9.201290 46.103283
v 1.175850 7.844090 44.464680
v -1.084140 40.198597 20.785320
v -1.318030 38.841408 19.146730
v 0.627570 38.725750 18.964821
v -1.464530 44.186291 21.661730
v 0.416390 3.151620 49.857742
v -1.794250 65.664108 -3.001520
v 0.052490 65.546013 -3.248100
v 0.385240 66.905640 -1.544840
v -1.560360 67.021301 -1.362930

vt 0.033358 0.643728
vt 0.190411 0.923560
vt 0.402692 0.503812
vt 0.402692 0.647326
vt 0.408249 0.287497
vt 0.408249 0.367848
vt 0.492649 0.287497
vt 0.492649 0.367848
vt 0.403043 0.503812
vt 0.403044 0.647326
vt 0.033710 0.643728
vt 0.190763 0.923560
vt 0.033358 0.363896
vt 0.033710 0.363896
vt 0.190411 0.084064
vt 0.402692 0.360297
vt 0.408249 0.207147
vt 0.492649 0.207147
vt 0.403043 0.360297
vt 0.190763 0.084064
vt 0.408248 1.036942
vt 0.492649 1.036942
vt 0.483600 0.371280
vt 0.402049 0.371280
vt 0.402049 1.040375
vt 0.483600 1.040375
vt 0.450449 0.037941
vt 0.483600 0.210579
vt 0.402049 0.210579
vt 0.442825 0.041374
vt 0.000000 1.000000

vn -0.976881 0.163861 0.137306
vn -0.948082 0.192316 0.253289
vn -0.993918 0.059089 0.092930
vn -0.999798 -0.019908 -0.002613
vn -0.998637 0.028709 -0.043594
vn -0.972727 0.137176 0.187042
vn -0.969734 0.088311 0.227635
vn -0.994465 -0.076830 -0.071662
vn -0.997798 -0.046465 0.047324
vn 0.994465 0.076830 0.071663
vn 0.997798 0.046465 -0.047325
vn 0.993918 -0.059088 -0.092930
vn 0.969734 -0.088310 -0.227634
vn 0.972727 -0.137175 -0.187042
vn 0.999798 0.019908 0.002613
vn 0.998637 -0.028709 0.043594
vn 0.976881 -0.163861 -0.137306
vn 0.948083 -0.192315 -0.253286
vn -0.097362 -0.077138 -0.992255
vn 0.081657 0.961634 0.261901
vn 0.097357 0.077138 0.992256
vn -0.081653 -0.961634 -0.261901
vn 0.940992 0.245447 0.233000
vn 0.110051 0.564035 0.818385
vn -0.994168 -0.078610 -0.073824
vn -0.109267 -0.634058 -0.765527
vn -0.982568 -0.047631 0.179699
vn 0.986337 -0.164682 -0.004391
vn -0.105972 -0.742721 -0.661162
vn 0.110087 0.510994 0.852506
vn -0.125311 -0.633720 -0.763345
vn -0.899621 0.308170 0.309376
vn 0.974598 0.137210 0.177008
vn -0.011671 0.782593 -0.622424
vn -0.035338 0.772129 -0.634483

f 267/277/525 268/278/525 269/279/525
f 270/280/526 269/279/526 268/278/526
f 269/281/527 270/282/527 271/283/527
f 272/284/527 271/283/527 270/282/527
f 271/285/528 272/286/528 273/287/528
f 274/288/529 273/287/529 272/286/529
f 275/289/530 267/277/530 269/279/530
f 273/287/528 276/290/528 271/285/528
f 277/291/531 275/289/531 278/292/531
f 269/279/530 278/292/530 275/289/530
f 278/293/527 269/281/527 279/294/527
f 271/283/527 279/294/527 269/281/527
f 279/295/532 271/285/532 280/296/532
f 276/290/533 280/296/533 271/285/533
f 281/280/534 268/278/534 282/279/534
f 267/277/535 282/279/535 268/278/535
f 283/284/536 281/282/536 284/283/536
f 282/281/536 284/283/536 281/282/536
f 274/288/537 283/286/537 273/287/537
f 284/285/538 273/287/538 283/286/538
f 282/279/539 267/277/539 275/289/539
f 273/287/538 284/285/538 276/290/538
f 282/279/539 275/289/539 285/292/539
f 277/291/540 285/292/540 275/289/540
f 284/283/536 282/281/536 286/294/536
f 285/293/536 286/294/536 282/281/536
f 276/290/541 284/285/541 280/296/541
f 286/295/542 280/296/542 284/285/542
f 270/280/543 268/278/543 281/280/543
f 283/286/544 274/288/544 272/286/544
f 279/295/545 280/296/545 286/295/545
f 285/292/546 277/291/546 278/292/546
f 272/284/527 270/282/527 287/297/527
f 287/297/527 288/298/527 272/284/527
f 281/282/536 283/284/536 289/298/536
f 289/298/547 290/297/547 281/282/547
f 270/299/548 281/300/548 290/301/548
f 290/301/549 287/302/549 270/299/549
f 283/300/550 272/299/550 288/302/550
f 288/302/550 289/301/550 283/300/550
f 278/293/551 279/294/551 291/303/551
f 286/294/552 285/293/552 291/303/552
f 279/304/553 286/305/553 291/306/553
f 285/305/554 278/304/554 291/306/554
f 289/298/555 288/297/555 292/298/555 293/307/555
f 287/297/556 290/298/556 294/297/556 295/307/556
f 290/297/557 289/298/557 293/297/557 294/307/557
f 288/298/527 287/297/527 295/298/527 292/307/527
f 294/297/558 293/298/558 295/297/558
f 292/298/559 295/297/559 293/298/559

