mtllib anim_barb_attack_new1_axe_000056.mtl

o fat
usemtl axe.001
s off

v 4.212520 56.912819 55.058990
v -1.460090 55.307869 50.715443
v -1.624950 60.293167 60.308243
v -2.969340 59.169304 57.460541
v -3.583880 60.669670 61.084450
v -4.928270 59.545788 58.236752
v -12.097350 60.047459 61.521702
v -11.667460 57.269661 54.760071
v 6.833870 59.104198 60.611591
v -9.475990 62.238850 67.074295
v 6.403990 61.882000 67.373207
v -0.280560 61.417049 63.155941
v -2.239490 61.793533 63.932152
v -3.803390 63.843800 71.417839
v -3.023980 57.358131 58.201134
v -1.679590 58.481987 61.048832
v -4.982910 57.734619 58.977352
v -3.638520 58.858490 61.825050
v -0.335200 59.605862 63.896519
v -2.294130 59.982361 64.672752
v -16.384750 47.954422 29.043869
v -18.343679 48.330910 29.820089
v -18.398319 46.519730 30.560680
v -14.803659 47.393341 27.921141
v 1.543720 63.066402 69.911140
v -32.322880 36.660480 0.177160
v -32.397690 34.910431 0.828240
v -30.419189 34.472301 0.140610
v -30.363678 36.284100 -0.598420

vt 0.033358 0.643728
vt 0.190411 0.923560
vt 0.402692 0.503812
vt 0.402692 0.647326
vt 0.408249 0.287497
vt 0.408249 0.367848
vt 0.492649 0.287497
vt 0.492649 0.367848
vt 0.403043 0.503812
vt 0.403044 0.647326
vt 0.033710 0.643728
vt 0.190763 0.923560
vt 0.033358 0.363896
vt 0.033710 0.363896
vt 0.190411 0.084064
vt 0.402692 0.360297
vt 0.408249 0.207147
vt 0.492649 0.207147
vt 0.403043 0.360297
vt 0.190763 0.084064
vt 0.408248 1.036942
vt 0.492649 1.036942
vt 0.483600 0.371280
vt 0.402049 0.371280
vt 0.402049 1.040375
vt 0.483600 1.040375
vt 0.450449 0.037941
vt 0.483600 0.210579
vt 0.402049 0.210579
vt 0.442825 0.041374
vt 0.000000 1.000000

vn 0.100291 0.883559 -0.457455
vn 0.221515 0.866837 -0.446682
vn 0.027913 0.925248 -0.378335
vn -0.085667 0.939910 -0.330501
vn -0.111664 0.916685 -0.383691
vn 0.141063 0.896334 -0.420341
vn 0.166945 0.915690 -0.365569
vn -0.166959 0.941500 -0.292749
vn -0.044835 0.954690 -0.294207
vn 0.166961 -0.941500 0.292748
vn 0.044835 -0.954690 0.294206
vn -0.027916 -0.925248 0.378334
vn -0.166943 -0.915691 0.365569
vn -0.141063 -0.896335 0.420339
vn 0.085668 -0.939910 0.330500
vn 0.111665 -0.916685 0.383691
vn -0.100291 -0.883559 0.457456
vn -0.221514 -0.866837 0.446682
vn -0.980291 -0.048713 -0.191457
vn 0.519043 -0.336877 -0.785563
vn 0.980291 0.048716 0.191457
vn -0.519043 0.336870 0.785565
vn 0.347722 -0.922374 0.168270
vn 0.936805 -0.156256 -0.313019
vn 0.051442 0.920418 -0.387536
vn -0.915181 0.175890 0.362637
vn 0.083001 0.962715 -0.257471
vn 0.027711 -0.870158 0.491993
vn -0.844368 0.224405 0.486502
vn 0.965210 -0.123384 -0.230535
vn -0.915326 0.175009 0.362699
vn 0.655039 0.511127 -0.556483
vn 0.237132 -0.931664 0.275266
vn 0.028249 0.925500 -0.377694
vn -0.375041 -0.340247 -0.862309
vn -0.400592 -0.304394 -0.864217

f 1/1/1 2/2/1 3/3/1
f 4/4/2 3/3/2 2/2/2
f 3/5/3 4/6/3 5/7/3
f 6/8/3 5/7/3 4/6/3
f 5/9/4 6/10/4 7/11/4
f 8/12/5 7/11/5 6/10/5
f 9/13/6 1/1/6 3/3/6
f 7/11/4 10/14/4 5/9/4
f 11/15/7 9/13/7 12/16/7
f 3/3/6 12/16/6 9/13/6
f 12/17/3 3/5/3 13/18/3
f 5/7/3 13/18/3 3/5/3
f 13/19/8 5/9/8 14/20/8
f 10/14/9 14/20/9 5/9/9
f 15/4/10 2/2/10 16/3/10
f 1/1/11 16/3/11 2/2/11
f 17/8/12 15/6/12 18/7/12
f 16/5/12 18/7/12 15/6/12
f 8/12/13 17/10/13 7/11/13
f 18/9/14 7/11/14 17/10/14
f 16/3/15 1/1/15 9/13/15
f 7/11/14 18/9/14 10/14/14
f 16/3/15 9/13/15 19/16/15
f 11/15/16 19/16/16 9/13/16
f 18/7/12 16/5/12 20/18/12
f 19/17/12 20/18/12 16/5/12
f 10/14/17 18/9/17 14/20/17
f 20/19/18 14/20/18 18/9/18
f 4/4/19 2/2/19 15/4/19
f 17/10/20 8/12/20 6/10/20
f 13/19/21 14/20/21 20/19/21
f 19/16/22 11/15/22 12/16/22
f 6/8/3 4/6/3 21/21/3
f 21/21/3 22/22/3 6/8/3
f 15/6/12 17/8/12 23/22/12
f 23/22/23 24/21/23 15/6/23
f 4/23/24 15/24/24 24/25/24
f 24/25/25 21/26/25 4/23/25
f 17/24/26 6/23/26 22/26/26
f 22/26/26 23/25/26 17/24/26
f 12/17/27 13/18/27 25/27/27
f 20/18/28 19/17/28 25/27/28
f 13/28/29 20/29/29 25/30/29
f 19/29/30 12/28/30 25/30/30
f 23/22/31 22/21/31 26/22/31 27/31/31
f 21/21/32 24/22/32 28/21/32 29/31/32
f 24/21/33 23/22/33 27/21/33 28/31/33
f 22/22/34 21/21/34 29/22/34 26/31/34
f 28/21/35 27/22/35 29/21/35
f 26/22/36 29/21/36 27/22/36

