mtllib animateBarbarianAxe__000012.mtl

o fat
usemtl fat.001
s off

v -0.173360 37.574669 -2.604190
v 1.860240 37.156109 7.026690
v 0.436770 37.420078 2.385500
v -1.267550 59.282322 -7.559870
v 9.052940 65.530403 -7.342600
v 1.121440 55.514458 -6.844690
v -1.406230 51.295162 -4.115000
v 9.676770 61.144253 -3.334050
v 7.187830 57.260368 -2.238060
v 6.436610 51.488708 -1.920340
v 2.840370 51.181511 -5.196600
v 5.137920 56.317741 -6.642870
v 9.061010 40.463837 5.771570
v 9.683300 38.363842 -0.834340
v 10.769110 37.524769 -0.976020
v 6.672680 40.064491 5.121860
v 3.993900 35.907063 8.004780
v 4.557730 33.319370 -3.339920
v 4.051440 36.617180 -4.232470
v 0.740560 37.183868 -3.367820
v -0.398910 36.460899 -4.468480
v -1.387420 64.941429 -7.405410
v -2.837850 66.932190 -7.165430
v 1.522740 58.637310 5.956000
v 6.013180 58.671322 4.703500
v 6.231720 62.904949 7.232000
v 7.660570 63.393867 0.537840
v 6.714160 65.671204 4.861760
v 11.270531 65.320557 0.455660
v 5.292600 51.697048 3.202330
v 2.410770 51.462612 5.182310
v 1.727830 64.242172 7.215140
v 3.655410 69.775063 -5.772130
v 11.064481 66.717545 -6.430090
v 11.799830 67.088577 -2.712220
v 3.666240 70.017403 2.746480
v 5.129140 71.093102 -2.048230
v 1.216800 69.212479 4.098860
v 2.901890 75.437859 -0.147790
v 2.452120 73.115822 -3.307390
v -0.923000 73.309013 -3.174680
v 0.168590 76.158401 -0.277620
v -2.288770 71.125923 -5.561400
v 1.333200 47.146729 5.951880
v 5.364230 47.124401 5.637480
v 8.418850 46.624863 0.472170
v 4.993240 45.882813 -4.695600
v -0.578670 45.777031 -5.285990
v 12.020940 64.829941 -0.073470
v 10.408489 63.583229 -7.548620
v 12.944970 66.081062 -2.678790
v 12.380350 65.795776 -5.887980
v 10.763770 61.997910 0.738250
v 4.876570 74.550072 5.245900
v 4.131070 72.964302 7.294550
v 4.120000 70.573311 3.694350
v 4.313860 69.377838 5.607260
v 3.717050 71.706940 7.226439
v 4.559150 74.935005 7.033880
v 2.977990 74.818237 7.911650
v 4.518700 76.021126 2.565490
v 3.790630 78.793655 7.963890
v 2.670560 78.749489 8.675100
v 4.876930 76.169296 7.653520
v 5.097020 78.074059 6.588200
v 3.519430 80.270248 5.252460
v 1.919460 80.301086 5.652320
v 3.465510 72.956093 8.107900
v 2.524320 75.556885 8.434050
v 2.745340 73.473465 9.485280
v 2.564040 72.923744 8.847560
v 2.508640 71.343132 8.793140
v 3.816790 68.793419 7.587560
v 2.610610 68.689606 8.636260
v 4.464990 78.356125 2.752090
v 3.857150 79.633545 2.455320
v 1.031260 79.984634 2.291660
v 14.191380 64.309952 -0.897510
v 14.277040 65.082336 -4.528600
v 8.623210 56.280651 -5.668420
v 10.158210 56.998272 -1.367970
v 12.166981 62.441132 -7.546350
v 10.602450 51.926086 -5.098080
v 14.435890 47.575562 -6.339080
v 11.291570 47.533470 -4.190810
v 13.650599 51.098244 -6.652560
v 15.087759 53.099861 -4.861230
v 16.282219 48.393101 -4.245660
v 14.494300 52.882179 -2.784400
v 15.335190 48.895348 -1.407240
v 12.219581 51.323372 -2.104870
v 12.574420 48.571449 -0.748510
v 13.012650 53.941513 -7.216750
v 13.392720 52.674652 -7.041140
v 15.079010 58.367020 -5.511220
v 14.168410 58.271210 -2.159600
v 11.759280 53.108711 -2.093820
v 12.412310 56.432228 -8.463420
v 15.040810 40.946697 -3.607170
v 13.633749 41.022522 -2.339090
v 16.332991 41.375828 -2.845440
v 15.925879 41.827351 -1.055660
v 14.374540 41.702328 -0.485410
v 14.319460 37.795822 2.962770
v 14.138380 37.322411 2.193140
v 14.697761 38.071991 1.271470
v 15.291241 38.805710 1.480120
v 16.528839 37.743431 1.015830
v 13.242620 39.539410 1.573700
v 14.480881 39.080460 2.029260
v 13.225531 37.736610 2.860970
v 14.214240 36.398201 3.412460
v 13.389130 36.432411 3.243410
v 16.429029 35.592739 1.611810
v 15.347810 36.745468 -3.610590
v 15.683750 34.864708 -3.124600
v 16.200541 32.293411 -1.832210
v 15.218181 36.019772 1.743590
v 16.616871 35.138309 -2.715940
v 16.620861 37.024059 -3.218510
v 15.824961 32.956959 2.385570
v 3.050300 28.365480 9.034590
v 5.899270 26.039040 0.780580
v 3.549510 22.170151 6.731760
v 8.923480 28.527250 7.910070
v 10.854520 23.477520 4.743550
v 5.357190 28.959589 5.911260
v 7.020280 26.386440 10.556220
v 7.571210 21.626080 9.480980
v 6.979220 27.958231 11.129180
v 7.250200 29.700201 10.856420
v 10.057581 30.897829 5.802570
v 7.381110 36.129791 7.803330
v 9.531650 15.029591 -2.732740
v 10.540990 13.110060 -4.839140
v 7.563510 15.193550 -5.887990
v 8.316401 11.909750 -2.090130
v 5.952110 14.485901 -2.561310
v 5.585640 12.279980 -4.809580
v 6.474280 11.757751 -9.506970
v 9.544880 12.285319 -9.508810
v 6.612000 5.980330 -3.622190
v 12.526740 6.651200 -3.662440
v 8.964060 4.772410 -0.165410
v 11.465389 3.330940 -1.204310
v 7.485910 2.431990 -1.049090
v -10.629140 66.223221 -3.430490
v -3.336900 55.482670 -5.921130
v -10.162300 61.103382 -1.444730
v -7.095690 57.159801 0.629450
v -5.341830 51.323326 -1.526870
v -5.578390 51.345840 3.200990
v -6.631730 56.234909 -4.642100
v -9.352170 38.239361 0.973160
v -7.296500 33.981651 6.236490
v -10.502090 37.529839 0.625020
v -4.979820 35.405319 5.999020
v -5.387510 37.233459 -5.231380
v -4.760860 38.736008 -4.118410
v -1.280190 38.068348 -3.786480
v -3.379570 58.604851 6.560910
v -4.703850 62.828941 7.984950
v -9.627510 61.966759 4.573090
v -3.655380 65.596306 7.189790
v -9.371570 65.619942 5.216140
v -0.935820 51.348419 6.110120
v -12.091760 67.192268 -1.845050
v -6.226240 69.755630 -2.753400
v -11.252860 67.280685 2.633960
v -1.543620 70.014999 4.124390
v -5.147440 71.146767 1.129550
v -2.040970 75.523003 1.411460
v -3.597050 73.166977 -1.532390
v -3.837170 46.744709 6.503090
v -7.974770 46.410271 1.897630
v -5.576800 45.927246 -3.700200
v -11.257800 64.622429 4.336990
v -12.299761 63.978081 -3.582050
v -12.700359 66.283821 2.300010
v -13.211020 65.931023 -1.013390
v -9.531099 61.455521 3.879230
v 0.441310 73.060364 8.260690
v -1.133790 74.706558 6.819670
v -1.752480 70.641373 5.102460
v 0.024940 69.446724 6.997530
v 0.980360 71.774017 7.997830
v 1.837580 74.847931 8.210279
v 0.036960 75.052734 8.217960
v -2.063420 76.192497 4.288970
v 1.349370 78.857231 8.603109
v 0.123940 76.293060 8.898060
v -0.496650 78.219696 8.052860
v 0.329370 80.353310 6.087770
v 1.418630 73.009392 8.643860
v 1.270640 68.845436 8.359600
v -1.811560 78.519539 4.395580
v -1.365600 79.769524 3.822840
v -13.455130 63.872562 3.612570
v -14.802019 64.974907 0.314880
v -11.162200 57.494987 -0.037480
v -10.110821 57.386223 -4.370030
v -13.700820 62.751572 -3.357710
v -13.880110 47.776062 -4.378820
v -11.416930 52.888378 -3.653200
v -10.897170 48.732353 -2.213720
v -14.320520 51.657330 -4.932500
v -15.878181 53.274040 -3.007930
v -15.934059 48.231068 -2.370840
v -15.187700 53.035549 -1.053060
v -15.232571 49.179886 0.424610
v -12.503060 49.651340 1.125560
v -12.763380 51.938740 -0.651200
v -14.166420 54.482788 -5.510070
v -14.287120 53.264771 -5.277340
v -16.532499 58.309189 -3.108810
v -15.241990 58.109200 -0.052670
v -12.466411 54.624271 -1.103450
v -14.056640 57.138191 -6.499320
v -12.833950 41.457481 -1.112130
v -11.498240 41.998978 0.115220
v -14.195251 41.590508 -0.357920
v -13.894840 42.261238 1.433180
v -12.386410 42.575832 1.935840
v -11.002911 38.557621 4.847660
v -11.284820 39.016949 5.594750
v -11.744920 39.084202 3.902500
v -12.499430 39.662651 4.085290
v -13.439489 38.295029 3.721170
v -11.774481 40.162777 4.593460
v -10.694360 40.881310 4.075470
v -10.212740 39.227570 5.462800
v -10.827570 37.720291 6.119920
v -10.039660 37.947372 5.924730
v -12.797520 36.279060 4.435080
v -11.964550 35.467461 -0.273790
v -12.115191 37.334721 -0.874420
v -11.803670 32.930721 1.179320
v -11.729760 37.000740 4.506040
v -12.930160 35.525352 0.146550
v -13.411530 37.312630 -0.461060
v -11.543520 33.929501 5.339300
v -5.838730 22.496189 -12.181081
v -2.725710 25.200060 -3.097960
v -3.414660 19.023020 -8.645440
v -10.730669 20.569250 -9.349690
v -8.616410 26.166660 -4.072910
v -5.084680 28.018471 -5.942210
v -6.703090 22.085630 -2.725990
v -7.378660 17.367809 -6.064120
v -6.620740 23.351360 -1.071110
v -6.182170 25.869390 0.012610
v -9.798380 29.495541 -2.387710
v -5.890620 30.067471 3.409310
v -10.674490 10.072250 -17.831989
v -9.571239 11.934170 -15.694099
v -7.548220 11.908230 -18.942350
v -8.583270 8.897100 -14.971400
v -5.786770 8.939050 -17.654030
v -6.029700 11.128520 -15.499730
v -6.541180 8.188980 -22.319391
v -9.586730 8.893120 -22.428091
v -7.300400 2.834270 -15.959640
v -13.328629 4.122920 -16.355120
v -10.330690 2.102940 -12.683901
v -12.930740 0.918360 -13.802070
v -9.112250 -0.451460 -13.342550

vt 0.550479 0.485338
vt 0.414517 0.485338
vt 0.489174 0.497239
vt 0.490853 0.675485
vt 0.356970 0.710738
vt 0.458986 0.602657
vt 0.458693 0.603155
vt 0.491001 0.506534
vt 0.357039 0.710738
vt 0.272881 0.708251
vt 0.307767 0.663467
vt 0.329118 0.504113
vt 0.420682 0.504388
vt 0.307693 0.663467
vt 0.420389 0.504181
vt 0.390374 0.619683
vt 0.389206 0.622726
vt 0.390855 0.620128
vt 0.309151 0.663075
vt 0.578845 0.971377
vt 0.529882 0.993867
vt 0.501054 0.950636
vt 0.597833 0.993868
vt 0.684209 0.993870
vt 0.691613 0.940228
vt 0.584242 0.936155
vt 0.602549 0.993867
vt 0.689094 0.993870
vt 0.694409 0.971380
vt 0.730001 0.975635
vt 0.490853 0.781888
vt 0.490853 0.820915
vt 0.240556 0.660920
vt 0.133663 0.660928
vt 0.131880 0.753091
vt 0.060606 0.782384
vt 0.055577 0.663688
vt 0.136145 0.808744
vt 0.060014 0.783494
vt 0.058190 0.859642
vt 0.160773 0.512959
vt 0.067037 0.515196
vt 0.240700 0.512959
vt 0.131877 0.752996
vt 0.240556 0.781375
vt 0.390182 0.870896
vt 0.298691 0.847983
vt 0.294173 0.886121
vt 0.181129 0.899551
vt 0.052544 0.886601
vt 0.145152 0.921474
vt 0.235241 0.891030
vt 0.142740 0.921054
vt 0.172936 0.966074
vt 0.456563 0.999059
vt 0.389917 0.922986
vt 0.429989 0.941889
vt 0.491140 0.942697
vt 0.490646 0.999330
vt 0.490853 0.898039
vt 0.701416 0.118225
vt 0.813217 0.120956
vt 0.790107 0.184348
vt 0.877923 0.002315
vt 0.872775 0.120438
vt 0.505869 0.118716
vt 0.564263 0.119120
vt 0.507564 0.183764
vt 0.697589 0.180917
vt 0.580429 0.182675
vt 0.710756 0.001536
vt 0.701372 0.182427
vt 0.812168 0.002315
vt 0.857243 0.184348
vt 0.697567 0.116528
vt 0.503935 0.000692
vt 0.561277 0.000692
vt 0.688827 -0.000098
vt 0.002866 0.854679
vt 0.027518 0.706813
vt 0.061197 0.782654
vt 0.055608 0.663958
vt 0.251604 0.781884
vt 0.357109 0.710738
vt 0.243886 0.876138
vt 0.247300 0.848527
vt -0.000514 0.880403
vt 0.006948 0.782948
vt 0.674684 0.829607
vt 0.705811 0.784366
vt 0.654033 0.662928
vt 0.703232 0.671848
vt 0.720473 0.730776
vt 0.697736 0.853617
vt 0.729837 0.853035
vt 0.623758 0.856571
vt 0.587609 0.811448
vt 0.658187 0.605708
vt 0.748523 0.593788
vt 0.716351 0.931575
vt 0.747491 0.935506
vt 0.695349 0.885675
vt 0.676247 0.904603
vt 0.649719 0.961956
vt 0.745560 1.001324
vt 0.725611 0.781438
vt 0.747491 0.878462
vt 0.747491 0.808438
vt 0.720379 0.731031
vt 0.747491 0.790807
vt 0.720762 0.730332
vt 0.748639 0.732530
vt 0.746944 0.628012
vt 0.703659 0.671442
vt 0.731857 0.666086
vt 0.747085 0.666819
vt 0.703186 0.671176
vt 0.611291 0.885598
vt 0.604148 0.909350
vt 0.550618 0.823662
vt 0.550618 0.934468
vt 0.625864 0.557513
vt 0.571978 0.557920
vt 0.578607 0.510287
vt 0.669444 0.510287
vt 0.756032 0.560223
vt 0.679695 0.557918
vt 0.877240 0.461159
vt 0.992418 0.461159
vt 0.944262 0.560223
vt 0.756457 0.510287
vt 0.806202 0.560223
vt 0.498275 0.560223
vt 0.875566 0.382888
vt 0.758260 0.308662
vt 0.875912 0.308662
vt 0.759996 0.360654
vt 0.669163 0.382888
vt 0.671223 0.308662
vt 0.584325 0.382888
vt 0.577057 0.308662
vt 0.498223 0.363687
vt 0.498247 0.308662
vt 0.992597 0.308662
vt 0.992439 0.363687
vt 0.759483 0.410364
vt 0.758924 0.382888
vt 0.665903 0.461159
vt 0.580075 0.461159
vt 0.498223 0.402657
vt 0.992438 0.402657
vt 0.760539 0.449273
vt 0.498220 0.461159
vt 0.875438 0.575163
vt 0.762705 0.196431
vt 0.858161 0.196355
vt 0.690657 0.196417
vt 0.588027 0.196417
vt 0.498144 0.196431
vt 0.991918 0.196431
vt 0.375723 0.009258
vt 0.380090 0.017573
vt 0.356438 0.030356
vt 0.342839 0.029458
vt 0.369327 0.043627
vt 0.316032 0.012201
vt 0.336848 0.019568
vt 0.249292 0.041099
vt 0.371147 0.002582
vt 0.416197 0.004791
vt 0.408124 0.000758
vt 0.128136 0.016613
vt 0.154876 0.002573
vt 0.119423 0.002194
vt 0.160447 0.001473
vt 0.065726 0.014292
vt 0.105093 0.028910
vt 0.000825 0.069213
vt 0.000703 0.039244
vt 0.249314 0.055441
vt 0.429228 0.045736
vt 0.102506 0.115410
vt 0.153549 0.117195
vt 0.189513 0.114692
vt 0.228429 0.109580
vt 0.194639 0.033982
vt 0.406548 0.108121
vt 0.355355 0.108206
vt 0.448349 0.035630
vt 0.498209 0.039288
vt 0.461840 0.047992
vt 0.483032 0.114221
vt 0.406174 0.120334
vt 0.355217 0.119080
vt 0.243215 0.037501
vt 0.249314 0.089732
vt 0.000703 0.095058
vt 0.249292 0.105039
vt 0.160984 0.032072
vt 0.413806 0.033644
vt 0.442212 0.108407
vt 0.443088 0.117732
vt 0.023914 0.327327
vt 0.104127 0.227894
vt 0.000784 0.227894
vt 0.216171 0.327327
vt 0.216985 0.228421
vt 0.105699 0.228145
vt 0.104981 0.327662
vt 0.217575 0.327327
vt 0.351490 0.301452
vt 0.217290 0.227894
vt 0.351571 0.227894
vt 0.352420 0.301452
vt 0.489174 0.227894
vt 0.352342 0.227894
vt 0.471690 0.333380
vt 0.351597 0.328057
vt 0.217345 0.328075
vt 0.352312 0.363299
vt 0.470864 0.334174
vt 0.352330 0.328057
vt 0.216660 0.380224
vt 0.216104 0.328075
vt 0.104983 0.328371
vt 0.217232 0.380224
vt 0.351611 0.363299
vt 0.351459 0.420971
vt 0.352499 0.420971
vt 0.351589 0.497239
vt 0.229465 0.497239
vt 0.352627 0.497239
vt 0.229583 0.497239
vt 0.133020 0.497239
vt 0.072972 0.497239
vt 0.025422 0.328212
vt 0.002386 0.497239
vt 0.216130 0.152222
vt 0.223982 0.125749
vt 0.105883 0.155747
vt 0.351732 0.147623
vt 0.223132 0.128232
vt 0.218721 0.149411
vt 0.469070 0.149411
vt 0.483427 0.127273
vt 0.352306 0.146326
vt 0.017963 0.152222
vt 0.104256 0.155747
vt 0.009616 0.131504
vt 0.104128 0.227914
vt 0.000790 0.227921
vt 0.216984 0.228396
vt 0.351571 0.227971
vt 0.217291 0.227882
vt 0.352342 0.227879
vt 0.489111 0.227891
vt 0.948232 0.041698
vt 0.989968 0.003451
vt 0.971575 0.059997
vt 0.909211 0.004273
vt 0.996004 0.120663
vt 0.925604 0.058708
vt 0.885225 0.122889
vt 0.516483 0.798440
vt 0.501430 0.685191
vt 0.597947 0.686709
vt 0.594444 0.793024
vt 0.950876 0.082499
vt 0.943924 0.157220
vt 0.507177 0.624822
vt 0.600053 0.622523
vt 0.901715 0.182549
vt 0.982420 0.184037
vt 0.730212 0.975635
vt 0.685579 0.991654
vt 0.692830 0.969164

vn -0.139036 -0.990193 -0.013676
vn 0.097003 -0.125896 -0.987289
vn -0.322921 -0.370085 -0.871068
vn 0.533161 -0.528167 -0.660892
vn 0.673878 -0.127769 -0.727711
vn -0.234048 -0.425373 -0.874231
vn 0.110329 -0.314806 -0.942722
vn 0.863573 -0.391152 -0.318184
vn 0.070936 -0.105482 -0.991888
vn 0.839443 -0.457910 -0.292668
vn -0.583547 -0.788174 0.195587
vn 0.074644 -0.948294 0.308492
vn 0.297452 -0.666015 -0.684066
vn -0.132663 -0.329509 0.934786
vn -0.543101 0.140667 0.827801
vn -0.458289 -0.447130 0.768144
vn 0.288079 0.291137 0.912277
vn 0.491611 -0.868632 0.061621
vn -0.000748 0.119139 -0.992877
vn 0.235095 -0.507297 0.829084
vn 0.966692 -0.163591 0.196835
vn 0.418298 -0.762707 0.493259
vn 0.263144 -0.228917 0.937204
vn 0.964032 -0.147234 0.221279
vn 0.567211 -0.018583 0.823363
vn -0.067870 -0.216318 0.973961
vn 0.117406 0.472475 -0.873489
vn 0.004468 0.027380 -0.999615
vn 0.966819 -0.165919 0.194246
vn 0.363893 0.916981 -0.163485
vn 0.181637 0.621380 0.762165
vn 0.031209 0.381496 -0.923843
vn 0.977800 0.008854 0.209355
vn 0.556256 0.645070 0.523893
vn 0.484742 0.726792 0.486620
vn 0.230959 0.533778 0.813473
vn 0.251508 0.560426 0.789092
vn 0.888903 0.306927 0.340070
vn 0.658939 0.558289 -0.504096
vn 0.207655 0.657157 -0.724586
vn 0.022662 0.804047 -0.594133
vn 0.566223 0.750360 0.341103
vn 0.427219 0.785808 -0.447202
vn 0.662186 0.584477 -0.468931
vn 0.112300 0.615807 -0.779853
vn 0.015260 0.733433 -0.679590
vn 0.046736 0.351509 -0.935017
vn 0.071233 0.469723 0.879936
vn 0.857901 0.143032 0.493506
vn 0.827660 0.062986 -0.557683
vn -0.247088 -0.190230 -0.950137
vn 0.077321 0.196821 0.977386
vn 0.565958 0.005696 0.824414
vn 0.874227 0.485418 0.009869
vn 0.762020 0.508055 0.401504
vn 0.969065 0.127666 0.211223
vn 0.651318 0.195301 -0.733241
vn 0.098627 0.220704 -0.970341
vn 0.778094 0.289658 -0.557375
vn 0.418659 -0.111763 -0.901240
vn 0.106797 -0.110329 -0.988141
vn 0.171026 -0.082853 -0.981777
vn 0.267500 0.167572 0.948875
vn 0.687534 0.579118 0.438086
vn 0.751913 -0.319053 0.576916
vn 0.256760 0.276723 -0.926012
vn 0.274655 -0.479050 0.833712
vn 0.652698 0.735864 -0.180248
vn 0.559094 0.652437 0.511606
vn 0.489853 0.200273 -0.848490
vn 0.615780 0.762659 -0.197905
vn -0.766284 -0.489419 -0.416267
vn -0.408104 -0.865526 0.290370
vn 0.051810 0.253835 0.965859
vn 0.956601 -0.244091 0.159168
vn 0.711071 -0.269322 0.649495
vn 0.484753 0.010386 0.874589
vn 0.975273 -0.110977 -0.191120
vn 0.863614 -0.137247 -0.485113
vn 0.922682 -0.141818 -0.358532
vn 0.439032 -0.850793 0.288794
vn 0.528831 0.119524 0.840269
vn 0.994920 -0.083599 0.056077
vn 0.990455 -0.009585 -0.137501
vn 0.132781 0.875961 0.463748
vn 0.746028 0.259929 0.613090
vn 0.882991 0.271525 0.382886
vn 0.890314 0.276855 0.361514
vn 0.744763 -0.278094 0.606624
vn 0.594829 -0.380057 0.708333
vn 0.219977 0.888979 0.401654
vn 0.333857 -0.086165 0.938677
vn 0.444228 -0.737163 0.509169
vn 0.796324 -0.048670 0.602909
vn 0.299278 -0.795226 -0.527304
vn 0.995681 0.075901 -0.053467
vn -0.011079 -0.993746 -0.111111
vn 0.775768 0.103708 0.622438
vn 0.963119 0.065326 0.261025
vn 0.167946 -0.956132 -0.240013
vn 0.656945 -0.019316 0.753691
vn 0.851598 0.061192 -0.520611
vn 0.753485 0.214118 -0.621621
vn 0.905651 -0.351914 0.236544
vn 0.450379 -0.490483 0.746046
vn 0.960896 -0.181011 0.209558
vn 0.377759 -0.368679 0.849337
vn 0.681031 0.669541 0.296499
vn 0.986492 0.035471 -0.159925
vn 0.906995 0.403759 -0.119747
vn 0.820581 0.570698 -0.030832
vn 0.763819 0.245577 0.596886
vn 0.170082 0.491269 -0.854241
vn 0.115008 0.535770 -0.836495
vn 0.129527 0.983430 -0.126838
vn -0.037757 0.973366 -0.226127
vn 0.975098 -0.116529 0.188692
vn 0.377925 0.775148 0.506279
vn 0.597739 0.066900 -0.798895
vn 0.444048 0.882221 -0.156549
vn -0.939819 -0.029565 0.340391
vn 0.724508 0.670505 0.159719
vn 0.364347 0.559505 -0.744450
vn -0.470710 -0.725750 -0.501716
vn 0.373747 0.098437 0.922293
vn -0.543817 -0.250731 -0.800872
vn -0.485791 -0.184328 -0.854418
vn 0.719167 0.099119 -0.687731
vn 0.727665 0.095835 -0.679205
vn 0.917690 0.270896 0.290623
vn 0.923528 0.283873 0.257900
vn 0.156321 0.452803 0.877800
vn 0.050968 0.335660 0.940603
vn -0.940449 0.044819 0.336967
vn -0.882531 -0.041704 0.468402
vn -0.461676 -0.318285 -0.827979
vn -0.502219 -0.264782 -0.823205
vn 0.767472 0.143641 -0.624783
vn 0.733092 -0.082100 -0.675156
vn 0.964211 0.034050 0.262939
vn 0.960470 0.025948 0.277173
vn 0.248924 0.058197 0.966773
vn -0.834305 -0.411825 0.366517
vn -0.845500 0.368591 -0.386357
vn -0.508136 -0.480310 -0.714912
vn 0.775251 -0.123227 -0.619517
vn 0.722747 0.183798 -0.666224
vn 0.992629 0.111641 0.047165
vn 0.963809 -0.058048 0.260197
vn 0.592294 -0.372677 0.714353
vn 0.250208 -0.198984 0.947524
vn -0.966580 0.095117 0.238067
vn 0.791253 -0.021199 -0.611122
vn -0.495652 -0.283449 -0.820966
vn -0.875065 -0.228253 0.426805
vn 0.236013 -0.097819 0.966814
vn -0.834691 -0.320752 0.447670
vn 0.220444 -0.090498 0.971192
vn 0.688859 0.136771 -0.711876
vn -0.593305 0.097723 -0.799024
vn -0.621901 -0.412947 -0.665368
vn -0.521798 -0.365317 -0.770889
vn 0.554243 -0.273419 -0.786166
vn 0.767355 -0.120132 -0.629868
vn 0.949953 0.067726 0.304963
vn 0.975749 0.091439 0.198879
vn 0.338715 0.074961 0.937898
vn 0.220484 0.094962 0.970757
vn -0.891083 -0.218276 0.397903
vn -0.883416 -0.196854 0.425235
vn 0.856275 -0.504869 0.109086
vn 0.072891 -0.326909 0.942241
vn -0.009108 0.691979 0.721861
vn -0.106569 0.578467 0.808715
vn -0.075555 0.592366 0.802118
vn -0.104757 0.311741 0.944375
vn -0.183884 0.255284 0.949219
vn 0.973638 0.040749 0.224428
vn 0.980217 -0.123548 -0.154632
vn -0.647120 -0.288155 -0.705834
vn 0.091186 -0.790878 -0.605142
vn -0.651778 -0.436616 -0.620122
vn -0.575762 -0.427388 -0.697021
vn -0.706027 -0.635938 -0.311624
vn -0.824095 0.552060 0.126876
vn 0.203266 0.682030 0.702508
vn 0.178444 0.255064 0.950316
vn -0.977824 -0.194635 -0.077313
vn -0.975274 -0.217016 -0.041780
vn 0.998346 -0.033353 0.046834
vn 0.999771 0.003516 0.021129
vn 0.187306 0.236925 0.953301
vn 0.974988 -0.189223 0.116590
vn 0.433573 -0.152064 -0.888195
vn 0.333746 -0.243415 -0.910694
vn -0.977213 -0.205075 -0.054756
vn 0.961000 0.224085 0.162061
vn -0.930454 -0.365586 -0.024557
vn -0.670122 -0.048366 -0.740673
vn 0.478491 0.106376 -0.871625
vn 0.356735 -0.510959 0.782088
vn 0.997823 0.065094 0.010626
vn 0.289875 0.021961 -0.956812
vn 0.601489 0.435640 0.669648
vn 0.615151 0.426998 0.662769
vn -0.966998 -0.252702 -0.032521
vn 0.196815 0.266943 0.943401
vn 0.990248 -0.127407 0.056359
vn 0.457643 -0.324160 -0.827939
vn -0.939650 0.050087 -0.338450
vn 0.674415 0.559798 -0.481447
vn 0.345335 0.830820 -0.436443
vn 0.825415 -0.037568 0.563275
vn 0.827142 -0.031018 0.561136
vn -0.569599 -0.243255 0.785101
vn -0.479402 -0.339445 0.809290
vn 0.857450 -0.156309 0.490251
vn -0.443711 0.205602 0.872266
vn 0.277395 -0.709057 -0.648297
vn 0.872330 0.017066 0.488619
vn 0.827538 0.226976 0.513480
vn -0.467688 0.386896 0.794720
vn 0.858930 -0.053877 0.509251
vn -0.471879 -0.312809 0.824306
vn -0.701674 0.584797 -0.407021
vn 0.864754 0.379693 0.328686
vn -0.508169 0.420669 0.751533
vn 0.887118 0.330690 0.321972
vn 0.551420 -0.538641 -0.637026
vn 0.293144 -0.744529 -0.599786
vn -0.279125 -0.783330 -0.555412
vn -0.433883 -0.770477 -0.467023
vn -0.513883 0.406438 0.755468
vn -0.952339 -0.302684 -0.037858
vn 0.616688 0.706121 -0.347978
vn 0.802390 -0.196476 0.563532
vn -0.648234 -0.488020 0.584491
vn -0.836176 0.453418 -0.308582
vn 0.784016 0.407971 -0.467845
vn -0.903375 0.115348 -0.413047
vn -0.944642 0.087176 -0.316309
vn 0.689341 0.416574 -0.592685
vn 0.803818 -0.459848 0.377381
vn 0.907482 -0.291100 0.302881
vn -0.702884 -0.566373 0.430320
vn -0.442829 -0.743851 0.500587
vn -0.843182 0.493061 -0.214327
vn -0.127223 0.738167 -0.662513
vn -0.968591 -0.188395 -0.162290
vn 0.938675 0.244253 -0.243371
vn 0.074422 -0.698824 -0.711411
vn 0.121043 -0.706922 -0.696857
vn 0.660117 0.326221 0.676628
vn 0.613581 0.744751 -0.262421
vn -0.704212 0.019042 0.709735
vn 0.603996 0.258146 0.754023
vn -0.810194 0.082960 0.580261
vn 0.108105 -0.613624 -0.782163
vn 0.059820 -0.576302 -0.815044
vn 0.534614 0.385775 0.751908
vn 0.130140 -0.421112 0.897624
vn -0.757380 0.250690 0.602935
vn 0.515874 -0.687142 -0.511576
vn -0.473140 -0.118808 -0.872940
vn 0.000025 -0.396036 -0.918235
vn 0.185453 -0.340591 -0.921740
vn -0.961279 -0.271573 -0.046805
vn -0.470801 -0.523391 -0.710217
vn -0.407625 -0.563032 -0.718914
vn -0.928982 -0.369738 -0.016893
vn -0.368563 -0.034818 -0.928951
vn -0.960677 -0.275291 -0.036253
vn 0.532220 -0.544465 -0.648305
vn 0.338626 -0.662486 -0.668166
vn 0.216004 -0.492156 -0.843282
vn 0.396039 -0.832236 0.387990
vn 0.612128 -0.619406 0.491565
vn -0.204467 -0.475190 0.855797
vn -0.181364 -0.535386 0.824906
vn -0.830038 -0.529441 0.175296
vn -0.410083 -0.191282 -0.891764
vn 0.119290 -0.283393 0.951556
vn -0.528394 -0.687255 0.498478
vn -0.323584 -0.141999 0.935484
vn 0.122570 -0.020363 0.992251
vn -0.517223 -0.225474 0.825616
vn 0.268729 -0.070331 0.960645
vn 0.163810 -0.221930 0.961204
vn -0.371671 0.599182 -0.709113
vn -0.393091 0.016768 -0.919347
vn -0.469635 -0.410701 0.781516
vn -0.392618 0.918031 0.055412
vn 0.059540 0.254766 0.965168
vn -0.386109 0.613327 -0.689021
vn -0.565664 0.418481 0.710562
vn -0.251155 0.629893 0.734953
vn -0.281878 0.700341 0.655796
vn 0.130968 0.536260 0.833830
vn 0.156491 0.511399 0.844974
vn -0.538776 0.332588 0.774019
vn -0.813939 0.579959 -0.033917
vn -0.555171 0.687951 -0.467448
vn -0.334718 0.814077 -0.474597
vn -0.307765 0.706468 0.637325
vn -0.554113 0.820578 -0.140038
vn -0.792321 0.610103 0.001550
vn -0.583529 0.632187 -0.509739
vn -0.355804 0.782027 -0.511701
vn -0.621587 0.349521 -0.701045
vn 0.104529 0.018999 0.994340
vn -0.742981 0.117009 0.659006
vn -0.788873 0.483277 -0.379634
vn -0.515143 0.339419 -0.787034
vn 0.088555 0.199218 0.975946
vn 0.262326 0.105537 0.959191
vn -0.789921 0.202008 0.578980
vn -0.737504 0.186692 0.649025
vn -0.491953 0.377023 0.784752
vn -0.996713 0.063611 -0.050174
vn -0.294461 0.155921 -0.942858
vn -0.866122 0.303414 -0.397206
vn -0.746960 0.099517 -0.657379
vn -0.294185 0.159562 -0.942335
vn 0.137923 -0.083940 -0.986880
vn -0.158408 0.022316 0.987122
vn -0.561145 0.447248 0.696481
vn -0.817428 -0.555521 0.152345
vn -0.514935 0.433107 -0.739770
vn -0.357769 -0.137517 0.923629
vn -0.567146 0.823617 -0.000288
vn -0.492686 0.470079 0.732316
vn -0.776232 0.337875 -0.532263
vn -0.702909 0.701456 0.117804
vn 0.458854 -0.284615 -0.841693
vn 0.925236 0.355245 -0.133192
vn -0.835674 -0.491163 0.245781
vn -0.750833 -0.156761 0.641619
vn -0.250717 -0.293565 0.922475
vn 0.006865 0.022831 0.999716
vn -0.939095 -0.002242 0.343651
vn -0.996383 -0.084155 0.011804
vn -0.984014 -0.078541 -0.159835
vn -0.239708 -0.840002 0.486762
vn -0.042988 0.134422 0.989991
vn -0.842674 -0.035753 0.537236
vn -0.929991 0.040416 0.365354
vn 0.154213 0.875401 0.458139
vn -0.336477 0.288106 0.896537
vn -0.567868 0.309294 0.762799
vn -0.584462 0.315251 0.747677
vn -0.359513 -0.329085 0.873186
vn -0.189382 -0.401424 0.896099
vn 0.048521 0.893443 0.446548
vn 0.164924 -0.081767 0.982911
vn -0.173225 -0.721083 0.670845
vn -0.464729 -0.014194 0.885339
vn -0.463006 -0.878276 -0.119404
vn -0.763363 -0.133006 0.632128
vn -0.097935 -0.991626 -0.084186
vn -0.445899 0.066071 0.892642
vn -0.735511 0.010780 0.677427
vn -0.365480 -0.927768 -0.075304
vn -0.209089 -0.065720 0.975686
vn -0.993485 0.109044 -0.033124
vn -0.949492 0.254916 -0.182985
vn -0.689640 -0.310384 0.654262
vn -0.050562 -0.477445 0.877206
vn -0.742626 -0.136656 0.655616
vn 0.069200 -0.360625 0.930140
vn -0.415004 0.698075 0.583493
vn -0.935329 0.085506 0.343291
vn -0.828513 0.448947 0.334684
vn -0.701616 0.610328 0.367743
vn -0.360596 0.274857 0.891305
vn -0.618956 0.459963 -0.636653
vn -0.480848 0.560932 -0.673900
vn -0.126981 0.990109 -0.059674
vn -0.030484 0.973178 -0.228027
vn -0.848710 0.012360 0.528714
vn -0.423301 0.531780 0.733503
vn -0.717023 0.408401 -0.564877
vn -0.521475 0.853202 -0.010477
vn 0.812687 -0.543215 0.210852
vn -0.740912 0.484877 0.464698
vn -0.602450 0.589840 -0.537721
vn 0.254770 -0.447794 -0.857072
vn -0.222298 -0.257142 0.940458
vn 0.615697 -0.188039 -0.765218
vn 0.429955 -0.079509 -0.899343
vn -0.830925 -0.169866 -0.529820
vn -0.705884 -0.081075 -0.703672
vn -0.939524 0.053152 0.338333
vn -0.972723 0.092797 0.212598
vn -0.295428 0.564863 0.770488
vn 0.007084 0.357787 0.933776
vn 0.877591 0.352373 0.325066
vn 0.845268 0.266186 0.463322
vn 0.430760 -0.262687 -0.863389
vn 0.460415 -0.210406 -0.862408
vn -0.818534 -0.028514 -0.573750
vn -0.793087 -0.115046 -0.598144
vn -0.918069 -0.111683 0.380364
vn -0.943127 -0.073994 0.324094
vn -0.083695 0.174473 0.981099
vn 0.855052 -0.469891 0.219291
vn 0.580609 0.508467 -0.635889
vn 0.464753 -0.325919 -0.823275
vn -0.822857 -0.168195 -0.542786
vn -0.745316 0.447385 -0.494318
vn -0.920403 0.039141 0.389007
vn -0.919754 0.036638 0.390782
vn -0.393982 -0.559147 0.729474
vn -0.080986 -0.516869 0.852225
vn 0.985970 0.111449 -0.124267
vn -0.814447 -0.105480 -0.570570
vn 0.463525 -0.195056 -0.864348
vn 0.915864 -0.033907 0.400056
vn 0.129231 -0.190497 0.973144
vn 0.862823 -0.174968 0.474259
vn -0.052667 -0.326500 0.943729
vn -0.672414 0.393486 -0.626920
vn 0.408811 0.425835 -0.807179
vn 0.708633 -0.286308 -0.644878
vn 0.620983 -0.276389 -0.733477
vn -0.463139 -0.466332 -0.753682
vn -0.690177 -0.369350 -0.622283
vn -0.943518 -0.158935 0.290711
vn -0.963367 -0.154291 0.219358
vn -0.329070 0.073611 0.941432
vn -0.264390 0.105424 0.958637
vn 0.906068 0.062858 0.418437
vn 0.904804 0.064801 0.420868
vn -0.700514 -0.694809 0.162853
vn 0.024026 -0.272599 0.961828
vn -0.147971 0.715006 0.683280
vn -0.030400 0.637191 0.770106
vn -0.060558 0.642011 0.764300
vn 0.037498 0.386460 0.921544
vn 0.128271 0.351902 0.927206
vn -0.949851 -0.186719 0.250836
vn -0.920460 -0.372501 -0.118304
vn 0.688096 -0.162169 -0.707266
vn 0.099828 -0.824773 -0.556582
vn 0.731385 -0.300547 -0.612166
vn 0.653053 -0.315500 -0.688464
vn 0.835966 -0.459867 -0.299473
vn 0.653050 0.753080 0.079974
vn -0.358950 0.648392 0.671374
vn -0.222403 0.261759 0.939159
vn 0.994220 0.049582 -0.095223
vn 0.997841 0.029740 -0.058553
vn -0.957612 -0.277204 0.078338
vn -0.968546 -0.243606 0.050748
vn -0.226423 0.242233 0.943428
vn -0.895098 -0.417599 0.156238
vn -0.395025 -0.310036 -0.864773
vn -0.275804 -0.375142 -0.884986
vn 0.996558 0.040862 -0.072131
vn -0.985211 -0.014627 0.170721
vn 0.991721 -0.124546 -0.031257
vn 0.658949 0.071708 -0.748762
vn -0.488603 -0.068543 -0.869810
vn -0.208677 -0.531591 0.820893
vn -0.982840 -0.180926 0.035929
vn -0.300398 -0.107019 -0.947791
vn -0.680170 0.311839 0.663419
vn -0.691113 0.299977 0.657554
vn 0.998873 -0.006354 -0.047026
vn -0.243258 0.268251 0.932131
vn -0.926286 -0.365207 0.092835
vn -0.374401 -0.478664 -0.794169
vn 0.894343 0.239573 -0.377831
vn -0.550761 0.673196 -0.493426
vn -0.594067 0.636635 -0.491711
vn -0.815260 -0.203253 0.542254
vn -0.793410 -0.271761 0.544652
vn 0.608344 -0.514628 0.604214
vn 0.526143 -0.599948 0.602691
vn -0.899192 -0.324808 0.293178
vn 0.566184 -0.407086 0.716740
vn -0.543274 0.217592 -0.810868
vn -0.766209 -0.485287 0.421212
vn -0.746732 -0.386254 0.541479
vn 0.485960 -0.569886 0.662626
vn -0.859238 -0.068537 0.506965
vn 0.567630 -0.667327 0.482152
vn 0.860729 0.325068 -0.391761
vn -0.787008 -0.155380 0.597056
vn 0.606301 -0.428476 0.669931
vn -0.808345 -0.174824 0.562152
vn -0.726622 0.278490 -0.628064
vn -0.563348 0.155118 -0.811528
vn 0.124566 0.162792 -0.978766
vn 0.704618 -0.116601 -0.699941
vn 0.624625 -0.448513 0.639281
vn 0.952851 -0.121903 -0.277875
vn -0.564077 0.744437 -0.357253
vn -0.825753 -0.138511 0.546760
vn 0.590372 -0.531858 0.607114
vn 0.872269 0.388727 -0.296711
vn -0.764860 0.429875 -0.479788
vn 0.918562 0.096475 -0.383323
vn 0.871041 0.124116 -0.475271
vn -0.573219 0.433787 -0.695161
vn -0.807404 -0.415887 0.418493
vn -0.917247 -0.219248 0.332550
vn 0.629058 -0.604015 0.489338
vn 0.590708 -0.631623 0.502111
vn 0.878124 0.429377 -0.211030
vn 0.184043 0.687591 -0.702387
vn 0.956870 -0.268224 -0.111607
vn -0.897450 0.326834 -0.296248
vn -0.116179 -0.745053 -0.656809
vn -0.149715 -0.747463 -0.647213
vn -0.629313 0.439808 0.640730
vn -0.562288 0.759178 -0.327843
vn 0.691751 0.028757 0.721563
vn -0.596605 0.389658 0.701590
vn 0.728628 0.042752 0.683574
vn -0.132841 -0.627632 -0.767092
vn -0.074874 -0.595689 -0.799718
vn -0.523166 0.490359 0.697026
vn -0.233378 -0.345672 0.908870
vn 0.706706 0.159352 0.689328
vn 0.126420 -0.934861 -0.331743

f 1/1/1 2/2/1 3/3/1
f 4/4/2 5/5/2 6/6/2
f 4/4/3 6/7/3 7/8/3
f 5/9/4 8/10/4 9/11/4
f 10/12/5 11/13/5 9/14/5
f 6/6/6 11/15/6 7/8/6
f 6/6/7 12/16/7 11/13/7
f 12/17/8 5/5/8 9/14/8
f 6/6/9 5/5/9 12/17/9
f 11/13/10 12/18/10 9/19/10
f 13/20/11 14/21/11 15/22/11
f 14/21/12 13/20/12 16/23/12
f 16/24/13 13/20/13 17/25/13
f 15/22/14 14/21/14 18/26/14
f 14/21/15 19/27/15 18/26/15
f 18/26/16 20/28/16 21/29/16
f 18/26/17 19/27/17 20/28/17
f 20/28/18 3/30/18 21/29/18
f 5/9/19 22/31/19 23/32/19
f 24/33/20 25/34/20 26/35/20
f 27/36/21 25/34/21 9/37/21
f 28/38/22 27/39/22 29/40/22
f 30/41/23 25/34/23 24/33/23
f 25/34/24 30/41/24 10/42/24
f 30/41/25 24/33/25 31/43/25
f 24/33/26 26/44/26 32/45/26
f 33/46/27 34/47/27 5/9/27
f 4/4/28 22/31/28 5/9/28
f 26/35/29 25/34/29 27/39/29
f 33/46/30 35/48/30 34/47/30
f 32/45/31 26/35/31 28/38/31
f 23/32/32 33/46/32 5/9/32
f 26/35/33 27/39/33 28/38/33
f 28/38/34 29/40/34 36/49/34
f 35/50/35 37/51/35 29/40/35
f 28/38/36 38/52/36 32/45/36
f 36/49/37 38/52/37 28/38/37
f 36/49/38 37/53/38 39/54/38
f 39/55/39 37/56/39 40/57/39
f 41/58/40 42/59/40 39/55/40
f 39/55/41 40/57/41 41/58/41
f 36/49/42 29/40/42 37/51/42
f 37/56/43 35/48/43 33/46/43
f 37/56/44 33/46/44 40/57/44
f 40/57/45 33/46/45 43/60/45
f 40/57/46 43/60/46 41/58/46
f 33/46/47 23/32/47 43/60/47
f 44/61/48 45/62/48 30/63/48
f 15/64/49 46/65/49 45/62/49
f 46/66/50 47/67/50 10/68/50
f 47/67/51 7/69/51 11/70/51
f 45/62/52 44/61/52 17/71/52
f 44/61/53 30/63/53 31/72/53
f 13/73/54 15/64/54 45/62/54
f 46/65/55 10/74/55 45/62/55
f 45/62/56 10/74/56 30/63/56
f 47/67/57 11/70/57 10/68/57
f 47/67/58 48/75/58 7/69/58
f 46/66/59 15/76/59 47/67/59
f 18/77/60 47/67/60 15/76/60
f 47/67/61 18/77/61 48/75/61
f 18/77/62 21/78/62 48/75/62
f 13/73/63 45/62/63 17/71/63
f 49/79/64 35/50/64 29/40/64
f 8/80/65 27/81/65 9/82/65
f 34/47/66 50/83/66 5/84/66
f 27/36/67 49/79/67 29/40/67
f 35/48/68 51/85/68 52/86/68
f 35/50/69 49/79/69 51/87/69
f 52/86/70 50/83/70 34/47/70
f 35/48/71 52/86/71 34/47/71
f 5/84/72 50/83/72 8/10/72
f 53/88/73 27/81/73 8/80/73
f 53/88/74 49/79/74 27/36/74
f 54/89/75 55/90/75 56/91/75
f 57/92/76 55/90/76 58/93/76
f 59/94/77 60/95/77 55/90/77
f 61/96/78 54/89/78 56/91/78
f 39/97/79 61/96/79 36/98/79
f 36/98/80 61/96/80 56/91/80
f 36/98/81 56/91/81 38/99/81
f 62/100/82 63/101/82 64/102/82
f 65/103/83 64/102/83 54/89/83
f 61/96/84 65/103/84 54/89/84
f 66/104/85 67/105/85 62/100/85
f 55/90/86 60/95/86 68/106/86
f 69/107/87 68/106/87 60/95/87
f 69/107/88 70/108/88 68/106/88
f 58/109/89 55/90/89 68/106/89
f 68/106/90 71/110/90 58/111/90
f 62/100/91 67/105/91 63/101/91
f 64/102/92 63/101/92 69/107/92
f 70/108/93 71/110/93 68/106/93
f 58/111/94 71/110/94 72/112/94
f 56/91/95 57/92/95 38/113/95
f 55/90/96 57/114/96 56/91/96
f 73/115/97 74/116/97 38/113/97
f 58/109/98 72/112/98 73/115/98
f 57/117/99 58/111/99 73/115/99
f 57/92/100 73/115/100 38/113/100
f 73/115/101 72/112/101 74/116/101
f 39/97/102 75/118/102 61/96/102
f 75/118/103 39/97/103 76/119/103
f 64/102/104 59/94/104 54/89/104
f 64/102/105 60/95/105 59/94/105
f 54/89/106 59/94/106 55/90/106
f 64/102/107 69/107/107 60/95/107
f 65/103/108 66/104/108 62/100/108
f 65/103/109 61/96/109 75/118/109
f 75/118/110 76/119/110 65/103/110
f 66/104/111 65/103/111 76/119/111
f 62/100/112 64/102/112 65/103/112
f 39/97/113 42/120/113 76/119/113
f 77/121/114 76/119/114 42/120/114
f 67/105/115 76/119/115 77/121/115
f 66/104/116 76/119/116 67/105/116
f 9/82/117 25/34/117 10/42/117
f 51/122/118 49/123/118 78/124/118
f 79/125/119 50/126/119 52/127/119
f 52/127/120 51/122/120 79/125/120
f 80/128/121 81/129/121 53/130/121
f 51/122/122 78/124/122 79/125/122
f 82/131/123 50/126/123 79/125/123
f 50/126/124 82/131/124 8/132/124
f 53/133/125 78/124/125 49/123/125
f 83/134/126 84/135/126 85/136/126
f 84/135/127 83/134/127 86/137/127
f 86/137/128 87/138/128 84/135/128
f 88/139/129 84/135/129 87/138/129
f 87/138/130 89/140/130 88/139/130
f 90/141/131 88/139/131 89/140/131
f 91/142/132 92/143/132 90/141/132
f 90/141/133 89/140/133 91/142/133
f 85/136/134 92/144/134 91/145/134
f 91/145/135 83/134/135 85/136/135
f 80/128/136 93/146/136 83/134/136
f 94/147/137 83/134/137 93/146/137
f 93/146/138 87/138/138 94/147/138
f 87/138/139 93/146/139 95/148/139
f 95/148/140 96/149/140 87/138/140
f 89/140/141 87/138/141 96/149/141
f 97/150/142 91/142/142 89/140/142
f 97/151/143 81/129/143 80/128/143
f 8/132/144 82/131/144 80/128/144
f 93/146/145 80/128/145 98/152/145
f 98/152/146 95/148/146 93/146/146
f 95/148/147 82/131/147 79/125/147
f 79/125/148 78/124/148 95/148/148
f 96/149/149 95/148/149 78/124/149
f 78/124/150 53/133/150 81/153/150
f 81/153/151 96/149/151 78/124/151
f 80/128/152 53/130/152 8/154/152
f 94/147/153 87/138/153 86/137/153
f 86/137/154 83/134/154 94/147/154
f 97/151/155 83/134/155 91/145/155
f 89/140/156 96/149/156 97/150/156
f 80/128/157 83/134/157 97/151/157
f 81/153/158 97/150/158 96/149/158
f 82/131/159 95/148/159 98/152/159
f 98/152/160 80/128/160 82/131/160
f 85/136/161 99/155/161 100/156/161
f 99/155/162 85/136/162 84/135/162
f 84/135/163 101/157/163 99/155/163
f 101/157/164 84/135/164 88/139/164
f 88/139/165 90/141/165 101/157/165
f 102/158/166 101/157/166 90/141/166
f 90/141/167 103/159/167 102/158/167
f 103/159/168 90/141/168 92/143/168
f 92/144/169 85/136/169 103/160/169
f 100/156/170 103/160/170 85/136/170
f 104/161/171 105/162/171 106/163/171
f 107/164/172 106/163/172 108/165/172
f 109/166/173 110/167/173 103/168/173
f 109/166/174 111/169/174 104/161/174
f 104/161/175 110/167/175 109/166/175
f 104/161/176 111/169/176 112/170/176
f 113/171/177 112/170/177 111/169/177
f 106/163/178 110/167/178 104/161/178
f 104/161/179 112/170/179 105/162/179
f 105/172/180 113/173/180 111/174/180
f 113/173/181 105/172/181 112/175/181
f 105/172/182 111/174/182 109/176/182
f 109/176/183 106/177/183 105/172/183
f 109/176/184 100/178/184 106/177/184
f 103/179/185 100/178/185 109/176/185
f 102/180/186 103/168/186 110/167/186
f 106/163/187 114/181/187 108/165/187
f 115/182/188 116/183/188 106/177/188
f 116/184/189 117/185/189 118/186/189
f 108/165/190 114/181/190 119/187/190
f 119/187/191 120/188/191 108/165/191
f 118/189/192 121/190/192 114/191/192
f 114/191/193 121/190/193 117/192/193
f 116/193/194 115/194/194 119/187/194
f 120/188/195 119/187/195 115/194/195
f 121/195/196 118/186/196 117/185/196
f 108/165/197 101/196/197 102/180/197
f 115/182/198 106/177/198 100/178/198
f 100/178/199 99/197/199 115/182/199
f 120/188/200 99/198/200 101/196/200
f 106/163/201 107/164/201 110/167/201
f 108/165/202 120/188/202 101/196/202
f 120/188/203 115/194/203 99/198/203
f 107/164/204 102/180/204 110/167/204
f 102/180/205 107/164/205 108/165/205
f 118/199/206 106/177/206 116/183/206
f 114/181/207 106/163/207 118/200/207
f 114/191/208 117/192/208 119/201/208
f 117/192/209 116/202/209 119/201/209
f 122/203/210 123/204/210 124/205/210
f 125/206/211 126/207/211 123/208/211
f 125/206/212 123/208/212 127/209/212
f 125/210/213 128/211/213 126/212/213
f 128/211/214 129/213/214 126/212/214
f 128/214/215 124/215/215 129/216/215
f 122/217/216 124/215/216 128/214/216
f 130/218/217 128/211/217 125/219/217
f 131/220/218 122/221/218 130/222/218
f 132/223/219 125/224/219 127/225/219
f 132/226/220 131/227/220 125/219/220
f 133/228/221 131/227/221 132/226/221
f 133/229/222 122/221/222 131/220/222
f 130/218/223 125/219/223 131/227/223
f 128/214/224 130/222/224 122/221/224
f 127/209/225 123/204/225 122/203/225
f 16/230/226 133/228/226 14/231/226
f 16/232/227 3/3/227 133/229/227
f 14/231/228 133/228/228 132/226/228
f 14/233/229 132/223/229 19/234/229
f 132/223/230 127/225/230 19/234/230
f 20/235/231 19/234/231 127/225/231
f 20/235/232 127/225/232 122/236/232
f 3/3/233 122/221/233 133/229/233
f 3/237/234 20/235/234 122/236/234
f 134/238/235 135/239/235 136/240/235
f 137/241/236 135/242/236 134/243/236
f 138/244/237 139/245/237 137/246/237
f 138/247/238 136/248/238 139/249/238
f 134/238/239 136/240/239 123/208/239
f 138/247/240 123/250/240 136/248/240
f 123/250/241 138/247/241 124/251/241
f 134/238/242 123/208/242 126/252/242
f 129/253/243 134/243/243 126/254/243
f 137/241/244 134/243/244 129/253/244
f 138/244/245 137/246/245 129/255/245
f 138/244/246 129/255/246 124/256/246
f 136/257/247 140/258/247 139/259/247
f 136/257/248 141/260/248 140/258/248
f 142/261/249 139/259/249 140/258/249
f 135/262/250 143/263/250 141/260/250
f 141/264/251 143/265/251 142/266/251
f 142/266/252 140/267/252 141/264/252
f 137/268/253 143/263/253 135/262/253
f 135/262/254 141/260/254 136/257/254
f 139/259/255 142/261/255 137/268/255
f 137/268/256 144/269/256 143/263/256
f 137/268/257 142/261/257 144/269/257
f 143/265/258 145/270/258 146/271/258
f 146/271/259 142/266/259 143/265/259
f 143/263/260 144/269/260 145/272/260
f 144/269/261 146/273/261 145/272/261
f 146/273/262 144/269/262 142/261/262
f 3/274/263 16/275/263 17/276/263
f 147/5/264 4/4/264 148/6/264
f 148/7/265 4/4/265 7/8/265
f 149/10/266 147/9/266 150/11/266
f 151/13/267 152/12/267 150/14/267
f 151/15/268 148/6/268 7/8/268
f 153/16/269 148/6/269 151/13/269
f 147/5/270 153/17/270 150/14/270
f 147/5/271 148/6/271 153/17/271
f 153/18/272 151/13/272 150/19/272
f 154/21/273 155/20/273 156/22/273
f 155/20/274 154/21/274 157/23/274
f 155/20/275 157/24/275 17/25/275
f 154/21/276 156/22/276 158/26/276
f 159/27/277 154/21/277 158/26/277
f 160/28/278 158/26/278 21/29/278
f 159/27/279 158/26/279 160/28/279
f 3/30/280 160/28/280 21/29/280
f 22/31/281 147/9/281 23/32/281
f 161/34/282 24/33/282 162/35/282
f 161/34/283 163/36/283 150/37/283
f 163/39/284 164/38/284 165/40/284
f 161/34/285 166/41/285 24/33/285
f 166/41/286 161/34/286 152/42/286
f 24/33/287 166/41/287 31/43/287
f 162/44/288 24/33/288 32/45/288
f 167/47/289 168/46/289 147/9/289
f 22/31/290 4/4/290 147/9/290
f 161/34/291 162/35/291 163/39/291
f 169/48/292 168/46/292 167/47/292
f 162/35/293 32/45/293 164/38/293
f 168/46/294 23/32/294 147/9/294
f 163/39/295 162/35/295 164/38/295
f 165/40/296 164/38/296 170/49/296
f 171/51/297 169/50/297 165/40/297
f 38/52/298 164/38/298 32/45/298
f 38/52/299 170/49/299 164/38/299
f 171/53/300 170/49/300 172/54/300
f 171/56/301 172/55/301 173/57/301
f 42/59/302 41/58/302 172/55/302
f 173/57/303 172/55/303 41/58/303
f 165/40/304 170/49/304 171/51/304
f 169/48/305 171/56/305 168/46/305
f 168/46/306 171/56/306 173/57/306
f 168/46/307 173/57/307 43/60/307
f 43/60/308 173/57/308 41/58/308
f 23/32/309 168/46/309 43/60/309
f 174/62/310 44/61/310 166/63/310
f 175/65/311 156/64/311 174/62/311
f 176/67/312 175/66/312 152/68/312
f 7/69/313 176/67/313 151/70/313
f 44/61/314 174/62/314 17/71/314
f 166/63/315 44/61/315 31/72/315
f 156/64/316 155/73/316 174/62/316
f 152/74/317 175/65/317 174/62/317
f 152/74/318 174/62/318 166/63/318
f 151/70/319 176/67/319 152/68/319
f 48/75/320 176/67/320 7/69/320
f 156/76/321 175/66/321 176/67/321
f 176/67/322 158/77/322 156/76/322
f 158/77/323 176/67/323 48/75/323
f 21/78/324 158/77/324 48/75/324
f 174/62/325 155/73/325 17/71/325
f 169/50/326 177/79/326 165/40/326
f 163/81/327 149/80/327 150/82/327
f 178/83/328 167/47/328 147/84/328
f 177/79/329 163/36/329 165/40/329
f 179/85/330 169/48/330 180/86/330
f 177/79/331 169/50/331 179/87/331
f 178/83/332 180/86/332 167/47/332
f 180/86/333 169/48/333 167/47/333
f 178/83/334 147/84/334 149/10/334
f 163/81/335 181/88/335 149/80/335
f 177/79/336 181/88/336 163/36/336
f 182/90/337 183/89/337 184/91/337
f 182/90/338 185/92/338 186/93/338
f 187/95/339 188/94/339 182/90/339
f 183/89/340 189/96/340 184/91/340
f 189/96/341 172/97/341 170/98/341
f 189/96/342 170/98/342 184/91/342
f 184/91/343 170/98/343 38/99/343
f 63/101/344 190/100/344 191/102/344
f 191/102/345 192/103/345 183/89/345
f 192/103/346 189/96/346 183/89/346
f 67/105/347 193/104/347 190/100/347
f 187/95/348 182/90/348 194/106/348
f 194/106/349 69/107/349 187/95/349
f 70/108/350 69/107/350 194/106/350
f 182/90/351 186/109/351 194/106/351
f 71/110/352 194/106/352 186/111/352
f 67/105/353 190/100/353 63/101/353
f 63/101/354 191/102/354 69/107/354
f 71/110/355 70/108/355 194/106/355
f 71/110/356 186/111/356 72/112/356
f 185/92/357 184/91/357 38/113/357
f 185/114/358 182/90/358 184/91/358
f 74/116/359 195/115/359 38/113/359
f 72/112/360 186/109/360 195/115/360
f 186/111/361 185/117/361 195/115/361
f 195/115/362 185/92/362 38/113/362
f 72/112/363 195/115/363 74/116/363
f 196/118/364 172/97/364 189/96/364
f 172/97/365 196/118/365 197/119/365
f 188/94/366 191/102/366 183/89/366
f 187/95/367 191/102/367 188/94/367
f 188/94/368 183/89/368 182/90/368
f 69/107/369 191/102/369 187/95/369
f 193/104/370 192/103/370 190/100/370
f 189/96/371 192/103/371 196/118/371
f 197/119/372 196/118/372 192/103/372
f 192/103/373 193/104/373 197/119/373
f 191/102/374 190/100/374 192/103/374
f 42/120/375 172/97/375 197/119/375
f 197/119/376 77/121/376 42/120/376
f 197/119/377 67/105/377 77/121/377
f 197/119/378 193/104/378 67/105/378
f 161/34/379 150/82/379 152/42/379
f 177/123/380 179/122/380 198/124/380
f 178/126/381 199/125/381 180/127/381
f 179/122/382 180/127/382 199/125/382
f 200/129/383 201/128/383 181/130/383
f 198/124/384 179/122/384 199/125/384
f 178/126/385 202/131/385 199/125/385
f 202/131/386 178/126/386 149/132/386
f 198/124/387 181/133/387 177/123/387
f 203/135/388 204/134/388 205/136/388
f 204/134/389 203/135/389 206/137/389
f 207/138/390 206/137/390 203/135/390
f 203/135/391 208/139/391 207/138/391
f 209/140/392 207/138/392 208/139/392
f 208/139/393 210/141/393 209/140/393
f 211/143/394 212/142/394 210/141/394
f 209/140/395 210/141/395 212/142/395
f 211/144/396 205/136/396 212/145/396
f 204/134/397 212/145/397 205/136/397
f 213/146/398 201/128/398 204/134/398
f 204/134/399 214/147/399 213/146/399
f 207/138/400 213/146/400 214/147/400
f 213/146/401 207/138/401 215/148/401
f 216/149/402 215/148/402 207/138/402
f 207/138/403 209/140/403 216/149/403
f 212/142/404 217/150/404 209/140/404
f 200/129/405 217/151/405 201/128/405
f 202/131/406 149/132/406 201/128/406
f 201/128/407 213/146/407 218/152/407
f 215/148/408 218/152/408 213/146/408
f 202/131/409 215/148/409 199/125/409
f 198/124/410 199/125/410 215/148/410
f 215/148/411 216/149/411 198/124/411
f 181/133/412 198/124/412 200/153/412
f 216/149/413 200/153/413 198/124/413
f 181/130/414 201/128/414 149/154/414
f 207/138/415 214/147/415 206/137/415
f 204/134/416 206/137/416 214/147/416
f 204/134/417 217/151/417 212/145/417
f 216/149/418 209/140/418 217/150/418
f 204/134/419 201/128/419 217/151/419
f 217/150/420 200/153/420 216/149/420
f 215/148/421 202/131/421 218/152/421
f 201/128/422 218/152/422 202/131/422
f 219/155/423 205/136/423 220/156/423
f 205/136/424 219/155/424 203/135/424
f 221/157/425 203/135/425 219/155/425
f 203/135/426 221/157/426 208/139/426
f 210/141/427 208/139/427 221/157/427
f 221/157/428 222/158/428 210/141/428
f 223/159/429 210/141/429 222/158/429
f 210/141/430 223/159/430 211/143/430
f 205/136/431 211/144/431 223/160/431
f 223/160/432 220/156/432 205/136/432
f 224/162/433 225/161/433 226/163/433
f 226/163/434 227/164/434 228/165/434
f 229/167/435 230/166/435 223/168/435
f 231/169/436 230/166/436 225/161/436
f 229/167/437 225/161/437 230/166/437
f 231/169/438 225/161/438 232/170/438
f 232/170/439 233/171/439 231/169/439
f 229/167/440 226/163/440 225/161/440
f 232/170/441 225/161/441 224/162/441
f 233/173/442 224/172/442 231/174/442
f 224/172/443 233/173/443 232/175/443
f 231/174/444 224/172/444 230/176/444
f 226/177/445 230/176/445 224/172/445
f 220/178/446 230/176/446 226/177/446
f 220/178/447 223/179/447 230/176/447
f 223/168/448 222/180/448 229/167/448
f 234/181/449 226/163/449 228/165/449
f 235/183/450 236/182/450 226/177/450
f 237/185/451 235/184/451 238/186/451
f 234/181/452 228/165/452 239/187/452
f 240/188/453 239/187/453 228/165/453
f 241/190/454 238/189/454 234/191/454
f 241/190/455 234/191/455 237/192/455
f 236/194/456 235/193/456 239/187/456
f 239/187/457 240/188/457 236/194/457
f 238/186/458 241/195/458 237/185/458
f 221/196/459 228/165/459 222/180/459
f 226/177/460 236/182/460 220/178/460
f 219/197/461 220/178/461 236/182/461
f 219/198/462 240/188/462 221/196/462
f 227/164/463 226/163/463 229/167/463
f 240/188/464 228/165/464 221/196/464
f 236/194/465 240/188/465 219/198/465
f 222/180/466 227/164/466 229/167/466
f 227/164/467 222/180/467 228/165/467
f 226/177/468 238/199/468 235/183/468
f 226/163/469 234/181/469 238/200/469
f 237/192/470 234/191/470 239/201/470
f 235/202/471 237/192/471 239/201/471
f 242/204/472 243/203/472 244/205/472
f 245/207/473 246/206/473 242/208/473
f 242/208/474 246/206/474 247/209/474
f 248/211/475 246/210/475 245/212/475
f 249/213/476 248/211/476 245/212/476
f 244/215/477 248/214/477 249/216/477
f 244/215/478 243/217/478 248/214/478
f 248/211/479 250/218/479 246/219/479
f 243/221/480 251/220/480 250/222/480
f 246/224/481 252/223/481 247/225/481
f 251/227/482 252/226/482 246/219/482
f 251/227/483 253/228/483 252/226/483
f 243/221/484 253/229/484 251/220/484
f 246/219/485 250/218/485 251/227/485
f 250/222/486 248/214/486 243/221/486
f 242/204/487 247/209/487 243/203/487
f 253/228/488 157/230/488 154/231/488
f 3/3/489 157/232/489 253/229/489
f 253/228/490 154/231/490 252/226/490
f 252/223/491 154/233/491 159/234/491
f 247/225/492 252/223/492 159/234/492
f 159/234/493 160/235/493 247/225/493
f 247/225/494 160/235/494 243/236/494
f 243/221/495 3/3/495 253/229/495
f 160/235/496 3/237/496 243/236/496
f 254/239/497 255/238/497 256/240/497
f 254/242/498 257/241/498 255/243/498
f 258/245/499 259/244/499 257/246/499
f 256/248/500 259/247/500 258/249/500
f 256/240/501 255/238/501 242/208/501
f 242/250/502 259/247/502 256/248/502
f 259/247/503 242/250/503 244/251/503
f 242/208/504 255/238/504 245/252/504
f 255/243/505 249/253/505 245/254/505
f 255/243/506 257/241/506 249/253/506
f 257/246/507 259/244/507 249/255/507
f 249/255/508 259/244/508 244/256/508
f 260/258/509 256/257/509 258/259/509
f 261/260/510 256/257/510 260/258/510
f 258/259/511 262/261/511 260/258/511
f 263/263/512 254/262/512 261/260/512
f 263/265/513 261/264/513 262/266/513
f 260/267/514 262/266/514 261/264/514
f 263/263/515 257/268/515 254/262/515
f 261/260/516 254/262/516 256/257/516
f 262/261/517 258/259/517 257/268/517
f 264/269/518 257/268/518 263/263/518
f 262/261/519 257/268/519 264/269/519
f 265/270/520 263/265/520 266/271/520
f 262/266/521 266/271/521 263/265/521
f 264/269/522 263/263/522 265/272/522
f 266/273/523 264/269/523 265/272/523
f 264/269/524 266/273/524 262/261/524
f 157/275/525 3/274/525 17/276/525

o 
usemtl axe.001
s off

v -3.304370 56.704487 38.841400
v -4.613320 51.824196 33.541401
v -4.237120 50.120750 44.211861
v -4.796130 49.259750 41.029720
v -4.377690 48.065380 44.792679
v -4.936710 47.204380 41.610531
v -4.474770 39.591660 43.677284
v -5.345810 41.114304 36.567883
v -2.214370 58.383312 45.046120
v -3.384780 41.270489 49.881977
v -1.343330 56.860680 52.155510
v -3.678110 50.981758 47.394009
v -3.818680 48.926384 47.974819
v -2.075820 46.150772 55.181999
v -2.870470 49.048599 40.748558
v -2.311450 49.909599 43.930710
v -3.011040 46.993233 41.329380
v -2.452030 47.854218 44.511528
v -1.752440 50.770588 47.112850
v -1.893010 48.715229 47.693680
v -10.374440 40.667992 9.275700
v -10.515011 38.612610 9.856530
v -8.589340 38.401459 9.575370
v -8.448760 40.456829 8.994550
v -1.608360 51.661621 54.244926
v -16.331200 29.654461 -23.251659
v -14.405529 29.443300 -23.532820
v -14.264960 31.498680 -24.113640
v -16.190630 31.709831 -23.832491

vt 0.033358 0.643728
vt 0.190411 0.923560
vt 0.402692 0.503812
vt 0.402692 0.647326
vt 0.408249 0.287497
vt 0.408249 0.367848
vt 0.492649 0.287497
vt 0.492649 0.367848
vt 0.403043 0.503812
vt 0.403044 0.647326
vt 0.033710 0.643728
vt 0.190763 0.923560
vt 0.033358 0.363896
vt 0.033710 0.363896
vt 0.190411 0.084064
vt 0.402692 0.360297
vt 0.408249 0.207147
vt 0.492649 0.207147
vt 0.403043 0.360297
vt 0.190763 0.084064
vt 0.408248 1.036942
vt 0.492649 1.036942
vt 0.483600 0.371280
vt 0.402049 0.371280
vt 0.402049 1.040375
vt 0.483600 1.040375
vt 0.450449 0.037941
vt 0.483600 0.210579
vt 0.402049 0.210579
vt 0.442825 0.041374
vt 0.000000 1.000000

vn -0.979252 0.191886 0.065158
vn -0.947384 0.309213 0.082765
vn -0.983735 0.107868 0.143628
vn -0.984294 -0.011908 0.176134
vn -0.992892 -0.028903 0.115458
vn -0.968024 0.225984 0.108910
vn -0.955313 0.242529 0.168987
vn -0.975262 -0.098391 0.197948
vn -0.975197 0.022424 0.220199
vn 0.975262 0.098390 -0.197949
vn 0.975197 -0.022424 -0.220199
vn 0.983735 -0.107869 -0.143629
vn 0.955314 -0.242528 -0.168986
vn 0.968024 -0.225984 -0.108911
vn 0.984294 0.011909 -0.176135
vn 0.992892 0.028903 -0.115458
vn 0.979252 -0.191886 -0.065158
vn 0.947385 -0.309211 -0.082765
vn -0.149693 -0.934276 -0.323606
vn -0.042101 0.638873 -0.768159
vn 0.149689 0.934276 0.323608
vn 0.042102 -0.638874 0.768159
vn 0.065673 0.960237 -0.271351
vn -0.065670 -0.960238 0.271350
vn -0.951348 0.142292 0.273293
vn 0.997386 -0.071387 -0.011230
vn -0.039803 -0.910638 0.411284
vn 0.090055 0.988029 -0.125256
vn -0.167188 -0.257504 -0.951704

f 267/277/526 268/278/526 269/279/526
f 270/280/527 269/279/527 268/278/527
f 269/281/528 270/282/528 271/283/528
f 272/284/528 271/283/528 270/282/528
f 271/285/529 272/286/529 273/287/529
f 274/288/530 273/287/530 272/286/530
f 275/289/531 267/277/531 269/279/531
f 273/287/529 276/290/529 271/285/529
f 277/291/532 275/289/532 278/292/532
f 269/279/531 278/292/531 275/289/531
f 278/293/528 269/281/528 279/294/528
f 271/283/528 279/294/528 269/281/528
f 279/295/533 271/285/533 280/296/533
f 276/290/534 280/296/534 271/285/534
f 281/280/535 268/278/535 282/279/535
f 267/277/536 282/279/536 268/278/536
f 283/284/537 281/282/537 284/283/537
f 282/281/537 284/283/537 281/282/537
f 274/288/538 283/286/538 273/287/538
f 284/285/539 273/287/539 283/286/539
f 282/279/540 267/277/540 275/289/540
f 273/287/539 284/285/539 276/290/539
f 282/279/540 275/289/540 285/292/540
f 277/291/541 285/292/541 275/289/541
f 284/283/537 282/281/537 286/294/537
f 285/293/537 286/294/537 282/281/537
f 276/290/542 284/285/542 280/296/542
f 286/295/543 280/296/543 284/285/543
f 270/280/544 268/278/544 281/280/544
f 283/286/545 274/288/545 272/286/545
f 279/295/546 280/296/546 286/295/546
f 285/292/547 277/291/547 278/292/547
f 272/284/528 270/282/528 287/297/528
f 287/297/528 288/298/528 272/284/528
f 281/282/537 283/284/537 289/298/537
f 289/298/537 290/297/537 281/282/537
f 270/299/548 281/300/548 290/301/548
f 290/301/548 287/302/548 270/299/548
f 283/300/549 272/299/549 288/302/549
f 288/302/549 289/301/549 283/300/549
f 278/293/550 279/294/550 291/303/550
f 286/294/551 285/293/551 291/303/551
f 279/304/552 286/305/552 291/306/552
f 285/305/553 278/304/553 291/306/553
f 289/298/549 288/297/549 292/298/549 293/307/549
f 287/297/548 290/298/548 294/297/548 295/307/548
f 290/297/537 289/298/537 293/297/537 294/307/537
f 288/298/528 287/297/528 295/298/528 292/307/528
f 294/297/554 293/298/554 295/297/554
f 292/298/554 295/297/554 293/298/554

