mtllib anim_skel_walk_shield_000030.mtl

o msked
usemtl shield.001
s off

v 14.539861 50.120770 3.388270
v 13.895390 39.321663 8.274750
v 1.266450 40.790501 8.912440
v 14.779190 41.018482 13.183470
v 26.498871 37.452209 5.614280
v 11.516531 8.477740 18.327511

vt 0.345626 0.959903
vt 0.345626 0.724031
vt 0.085605 0.724031
vt 0.605647 0.724031
vt 0.345626 0.075832

vn -0.093111 -0.405841 -0.909188
vn -0.222680 0.711429 0.666544
vn 0.550477 0.618227 0.561044
vn -0.245072 -0.387500 -0.888697
vn -0.083178 -0.303001 -0.949353
vn -0.299287 0.178188 0.937377
vn 0.556998 0.074906 0.827129
vn -0.238204 -0.284304 -0.928671

f 1/1/1 2/2/1 3/3/1
f 1/1/2 3/3/2 4/2/2
f 1/1/3 4/2/3 5/4/3
f 1/1/4 5/4/4 2/2/4
f 6/5/5 3/3/5 2/2/5
f 6/5/6 4/2/6 3/3/6
f 6/5/7 5/4/7 4/2/7
f 6/5/8 2/2/8 5/4/8

