mtllib anim_barb_attack_axeonly_000037.mtl

o fat
usemtl axe.001
s off

v -1.676120 62.372669 -49.352688
v -0.986110 66.890808 -43.631584
v -1.692390 69.476242 -54.106258
v -1.571890 70.134369 -50.830261
v -1.400230 71.553047 -54.534241
v -1.279740 72.211189 -51.258221
v 0.756340 79.664017 -52.915951
v 0.536220 77.712440 -45.861622
v -1.911060 61.089394 -55.740391
v 0.521400 78.380730 -59.303669
v -1.690940 63.040970 -62.794727
v -1.812880 68.818092 -57.382271
v -1.520720 70.894897 -57.810242
v -0.168600 73.862602 -65.024765
v 0.366010 69.858498 -50.846107
v 0.245520 69.200348 -54.122120
v 0.658160 71.935310 -51.274090
v 0.537670 71.277161 -54.550091
v 0.125020 68.542206 -57.398102
v 0.417180 70.619019 -57.826088
v -0.369520 76.701874 -18.139650
v -0.077360 78.778679 -18.567621
v 1.860550 78.502800 -18.583471
v -0.230710 76.717209 -18.417459
v -0.951590 68.332619 -64.502922
v 1.165700 85.623711 15.518560
v 2.997520 85.277328 15.369281
v 2.811210 83.270935 15.931120
v 0.873310 83.546867 15.946220

vt 0.033358 0.643728
vt 0.190411 0.923560
vt 0.402692 0.503812
vt 0.402692 0.647326
vt 0.408249 0.287497
vt 0.408249 0.367848
vt 0.492649 0.287497
vt 0.492649 0.367848
vt 0.403043 0.503812
vt 0.403044 0.647326
vt 0.033710 0.643728
vt 0.190763 0.923560
vt 0.033358 0.363896
vt 0.033710 0.363896
vt 0.190411 0.084064
vt 0.402692 0.360297
vt 0.408249 0.207147
vt 0.492649 0.207147
vt 0.403043 0.360297
vt 0.190763 0.084064
vt 0.408248 1.036942
vt 0.492649 1.036942
vt 0.483600 0.371280
vt 0.402049 0.371280
vt 0.402049 1.040375
vt 0.483600 1.040375
vt 0.450449 0.037941
vt 0.483600 0.210579
vt 0.402049 0.210579
vt 0.442825 0.041374
vt 0.000000 1.000000

vn -0.995507 0.051074 0.079731
vn -0.996400 -0.068203 0.050350
vn -0.989986 0.140935 0.008099
vn -0.965454 0.260037 -0.016730
vn -0.961037 0.272659 0.045443
vn -0.999268 0.019663 0.032804
vn -0.999547 0.006450 -0.029405
vn -0.938463 0.343651 -0.034523
vn -0.971360 0.228931 -0.063641
vn 0.938463 -0.343651 0.034523
vn 0.971360 -0.228931 0.063641
vn 0.989986 -0.140935 -0.008098
vn 0.999547 -0.006451 0.029405
vn 0.999268 -0.019663 -0.032803
vn 0.965454 -0.260037 0.016731
vn 0.961037 -0.272659 -0.045443
vn 0.995507 -0.051074 -0.079731
vn 0.996400 0.068201 -0.050351
vn 0.132473 0.907682 0.398201
vn -0.091134 -0.681878 0.725767
vn -0.132476 -0.907681 -0.398202
vn 0.091141 0.681878 -0.725766
vn 0.647725 -0.742885 0.169040
vn -0.136389 -0.969720 0.202587
vn 0.425049 -0.890330 0.163233
vn 0.136493 0.970254 -0.199943
vn -0.985519 0.112495 -0.126875
vn 0.975596 -0.166693 -0.142917
vn 0.129527 0.929658 -0.344903
vn -0.140355 -0.988816 0.050439
vn 0.151107 0.968258 -0.199105
vn -0.094670 -0.975825 0.196983
vn 0.860242 -0.507766 0.046453
vn -0.989989 0.140927 0.007799
vn 0.045304 0.265471 0.963054
vn 0.114497 0.184873 0.976070

f 1/1/1 2/2/1 3/3/1
f 4/4/2 3/3/2 2/2/2
f 3/5/3 4/6/3 5/7/3
f 6/8/3 5/7/3 4/6/3
f 5/9/4 6/10/4 7/11/4
f 8/12/5 7/11/5 6/10/5
f 9/13/6 1/1/6 3/3/6
f 7/11/4 10/14/4 5/9/4
f 11/15/7 9/13/7 12/16/7
f 3/3/6 12/16/6 9/13/6
f 12/17/3 3/5/3 13/18/3
f 5/7/3 13/18/3 3/5/3
f 13/19/8 5/9/8 14/20/8
f 10/14/9 14/20/9 5/9/9
f 15/4/10 2/2/10 16/3/10
f 1/1/11 16/3/11 2/2/11
f 17/8/12 15/6/12 18/7/12
f 16/5/12 18/7/12 15/6/12
f 8/12/13 17/10/13 7/11/13
f 18/9/14 7/11/14 17/10/14
f 16/3/15 1/1/15 9/13/15
f 7/11/14 18/9/14 10/14/14
f 16/3/15 9/13/15 19/16/15
f 11/15/16 19/16/16 9/13/16
f 18/7/12 16/5/12 20/18/12
f 19/17/12 20/18/12 16/5/12
f 10/14/17 18/9/17 14/20/17
f 20/19/18 14/20/18 18/9/18
f 4/4/19 2/2/19 15/4/19
f 17/10/20 8/12/20 6/10/20
f 13/19/21 14/20/21 20/19/21
f 19/16/22 11/15/22 12/16/22
f 6/8/3 4/6/3 21/21/3
f 21/21/3 22/22/3 6/8/3
f 15/6/12 17/8/12 23/22/12
f 23/22/23 24/21/23 15/6/23
f 4/23/24 15/24/24 24/25/24
f 24/25/25 21/26/25 4/23/25
f 17/24/26 6/23/26 22/26/26
f 22/26/26 23/25/26 17/24/26
f 12/17/27 13/18/27 25/27/27
f 20/18/28 19/17/28 25/27/28
f 13/28/29 20/29/29 25/30/29
f 19/29/30 12/28/30 25/30/30
f 23/22/31 22/21/31 26/22/31 27/31/31
f 21/21/32 24/22/32 28/21/32 29/31/32
f 24/21/33 23/22/33 27/21/33 28/31/33
f 22/22/34 21/21/34 29/22/34 26/31/34
f 28/21/35 27/22/35 29/21/35
f 26/22/36 29/21/36 27/22/36

