mtllib anim_barb_attack_000017.mtl

o fat
usemtl fat.001
s off

v -0.137820 30.830021 -12.487560
v 1.860240 36.144421 6.136090
v 0.318900 30.283180 -7.866710
v 0.410170 52.281998 -17.630699
v 9.299520 56.985420 -18.711819
v 2.812830 48.574081 -16.229841
v -0.362600 44.675934 -13.751730
v 7.128620 57.643311 -14.033180
v 7.702180 50.768883 -11.030550
v 6.919220 45.246967 -9.716619
v 4.142630 44.546501 -13.746300
v 6.403020 49.071960 -15.622430
v 9.003679 29.473570 -4.540190
v 9.352560 31.978249 -10.867280
v 10.561490 31.494949 -11.397390
v 6.412290 30.185930 -4.638390
v 3.993900 29.443031 -2.159360
v 4.408730 30.746660 -16.175751
v 3.744770 32.053741 -14.933730
v 0.502520 31.151180 -13.752119
v -0.321380 27.404089 -12.163850
v 0.201120 57.886490 -18.027220
v 0.170300 59.669689 -18.539249
v 0.128960 53.495213 -4.198230
v 5.379790 53.106979 -6.688210
v 6.255160 57.389511 -6.811780
v 8.980730 56.514229 -9.096750
v 6.123870 60.089767 -7.564370
v 10.909949 59.948776 -14.072849
v 4.497020 45.325920 -5.183400
v 1.102870 45.897987 -3.580220
v 0.791740 60.424492 -5.835550
v 4.825240 62.091770 -17.831100
v 11.017751 58.954967 -16.096960
v 11.443871 60.383209 -15.686609
v 2.905110 64.256981 -9.501560
v 5.512380 64.263145 -14.130171
v 0.171630 63.633209 -8.610170
v 2.663080 68.897141 -13.630859
v 3.279240 65.799911 -16.250971
v 0.247260 65.735390 -17.100710
v 0.175950 69.231339 -14.996110
v 0.334850 63.293640 -18.345751
v 0.489180 40.971432 -3.367120
v 5.364230 40.723427 -4.205170
v 8.418850 40.371689 -9.382640
v 4.990360 39.772102 -14.560431
v -0.188040 39.356552 -14.600610
v 10.330300 61.201248 -16.875799
v 9.521150 58.390099 -12.620489
v 12.164650 61.214554 -15.464049
v 12.051291 59.981098 -14.647490
v 6.853230 61.565250 -16.971260
v 2.581520 69.680641 -8.170139
v 1.180830 68.629745 -6.120480
v 2.894370 65.108154 -8.528920
v 1.639600 64.575249 -6.247690
v 0.698310 67.288292 -5.843620
v 1.643460 70.493309 -6.789780
v -0.144470 70.431587 -6.500470
v 3.177320 70.321030 -11.121679
v 0.535690 74.340836 -7.350370
v -0.763210 74.358070 -7.076750
v 1.701340 71.877586 -6.491680
v 2.256590 73.436478 -7.931470
v 1.223440 74.988388 -10.302220
v -0.414440 74.936569 -10.490320
v 0.269850 68.762634 -5.613510
v -0.765430 71.224770 -6.402460
v -0.900690 69.543503 -4.774710
v -0.835060 68.824684 -5.244550
v -0.843340 67.292946 -4.846920
v 0.535200 64.508980 -4.596110
v -0.861440 64.602509 -4.114960
v 3.025130 72.596443 -11.659540
v 2.543030 73.665268 -12.504830
v -0.045170 73.622543 -13.702801
v 10.939230 63.885189 -16.572891
v 12.334200 62.842987 -13.263470
v 5.086990 65.867851 -11.125999
v 5.949930 67.130043 -15.476670
v 9.059460 61.896629 -9.769740
v 5.483380 70.651863 -10.173590
v 5.048450 75.733047 -11.280510
v 4.089460 73.217659 -12.548380
v 8.411100 71.846786 -8.569110
v 9.999490 71.223351 -11.105700
v 7.929250 76.061447 -12.160010
v 8.984140 71.968834 -12.901581
v 8.539360 74.753937 -14.304649
v 6.265410 72.817268 -12.777680
v 6.606090 73.019836 -15.132851
v 8.733810 68.924530 -9.161631
v 8.694631 70.231468 -8.832870
v 11.765551 66.361809 -12.376170
v 10.243420 67.185112 -15.438129
v 6.342510 71.094887 -13.483459
v 9.282340 66.070671 -8.893431
v 2.294990 79.381470 -16.837360
v 1.967710 77.927887 -18.009359
v 3.717030 79.914024 -17.195570
v 4.490190 78.864738 -18.564560
v 3.651080 77.603546 -19.237431
v 2.527590 78.954308 -24.143240
v 1.786520 79.298218 -23.716900
v 2.246200 79.526657 -22.508280
v 3.186830 79.492203 -22.288921
v 3.102830 81.185760 -22.309029
v 2.384680 77.470947 -22.166269
v 3.072180 78.566635 -22.693789
v 1.745330 78.180893 -24.164921
v 1.745280 79.579155 -25.222229
v 1.167830 78.973663 -25.119911
v 1.898990 82.220062 -23.881180
v -0.219370 82.093246 -18.854481
v -1.015220 83.330124 -20.167130
v -1.805650 84.899338 -22.504169
v 1.452360 81.009125 -23.878490
v -0.070440 83.773415 -20.320330
v 0.939810 82.797485 -18.965490
v 0.132580 83.108383 -25.881569
v 3.921370 18.859270 -12.750560
v 7.434220 18.557810 -21.320009
v 5.166030 13.251170 -17.941420
v 9.747211 19.916300 -13.484190
v 12.371820 15.669431 -18.569691
v 6.138380 20.694901 -16.353970
v 8.111240 15.936010 -11.933821
v 9.179420 11.656931 -15.345850
v 7.888700 17.748840 -10.243879
v 7.954090 20.418671 -10.049310
v 10.529180 23.784620 -13.712070
v 7.679530 24.339931 -6.855480
v 11.956261 9.529280 -27.449579
v 13.255080 8.308781 -30.261410
v 10.040010 9.777380 -31.289001
v 11.152020 7.156600 -27.328119
v 8.469610 8.921850 -27.862261
v 8.442710 6.839080 -30.105841
v 9.485990 5.692410 -34.644272
v 12.465920 6.383890 -34.748581
v 10.414290 1.243580 -27.327311
v 16.308060 3.128660 -27.592051
v 13.266890 2.117430 -23.409222
v 16.005079 0.904190 -24.075680
v 12.284321 -0.616710 -23.360670
v -9.800610 56.412102 -14.842041
v -1.892230 48.575970 -16.393290
v -6.058010 58.809059 -9.558920
v -7.318430 50.711979 -10.902320
v -4.956670 44.806259 -12.119270
v -6.374790 45.365299 -7.442690
v -5.753590 49.246521 -15.795240
v -9.006149 31.862541 -9.354050
v -7.268270 30.123871 -3.257470
v -10.268280 31.240881 -9.305370
v -4.827410 34.097580 -4.781460
v -5.057970 27.630861 -12.936410
v -4.554060 30.557571 -13.684920
v -1.041260 29.437279 -12.652870
v -4.829290 53.132271 -6.345440
v -5.086390 57.537453 -5.910490
v -10.029210 57.515293 -8.289070
v -4.769800 60.277550 -6.501240
v -9.977110 61.658661 -12.368360
v -2.454760 45.791267 -3.477630
v -11.634750 57.972111 -14.654570
v -4.955480 62.138611 -17.481110
v -11.462851 61.039589 -13.809950
v -2.595220 64.242775 -9.470290
v -5.914170 63.900063 -14.173380
v -2.505460 68.791191 -14.111160
v -2.831450 65.745338 -16.482759
v -3.837170 40.319172 -3.350770
v -7.887930 39.921169 -8.717381
v -5.416080 38.542542 -14.504900
v -11.037160 62.783108 -13.156320
v -10.095700 55.951561 -8.730451
v -13.036810 60.932961 -12.939340
v -12.826300 57.914501 -10.906110
v -9.447470 60.178982 -10.265501
v -2.612380 68.545959 -6.522240
v -3.597380 69.544174 -8.824590
v -3.200620 65.048271 -8.873770
v -2.856860 64.475952 -6.723950
v -2.140430 67.225586 -6.144280
v -1.316860 70.405701 -6.624630
v -3.005530 70.390617 -7.282200
v -3.589360 70.171577 -11.838380
v -1.974020 74.285400 -7.616200
v -3.184930 71.769684 -7.009210
v -3.493930 73.309471 -8.540560
v -2.056070 74.915947 -10.649549
v -1.834430 68.716148 -5.836390
v -2.120930 64.450302 -4.877450
v -3.427430 72.453918 -12.342950
v -2.826160 73.546661 -13.073530
v -12.261749 63.385567 -10.893030
v -13.779800 60.191303 -9.587050
v -8.609980 65.492035 -6.654280
v -7.818630 61.707550 -4.169800
v -10.818760 57.419708 -6.819200
v -7.885070 66.908951 1.438930
v -9.599820 64.525497 -0.375060
v -8.877930 64.994194 -3.150550
v -12.875381 63.695580 0.739940
v -13.969049 64.746445 -1.939480
v -9.751081 69.088226 0.963070
v -13.132010 66.720009 -2.410520
v -10.543690 69.908264 -1.848730
v -9.453791 68.522293 -4.097070
v -10.849480 67.681480 -1.043430
v -12.256230 61.969688 -1.655650
v -12.579420 62.695698 -0.627170
v -14.245210 61.983681 -6.415420
v -12.742020 64.918205 -7.680620
v -10.100060 66.139557 -3.330800
v -11.990729 59.711452 -3.359890
v -2.452960 71.643463 0.057110
v -2.585760 71.417473 -1.852710
v -3.743020 72.892090 0.184640
v -4.387290 73.469482 -1.547330
v -3.846320 72.745979 -2.893040
v -0.142570 75.900612 -4.812480
v -0.932640 76.284782 -5.393850
v -0.731680 75.382523 -3.814330
v -1.915170 75.701874 -3.701070
v -1.305980 76.748627 -2.509490
v -1.976440 75.332382 -4.646390
v -1.676420 73.964203 -5.037790
v -0.461120 75.474609 -5.970400
v 0.287850 77.041740 -5.715770
v 0.591870 76.346786 -6.083280
v 0.567790 77.901566 -2.891080
v 2.088580 75.355080 0.658350
v 0.798440 73.945915 0.684050
v 3.725390 77.652962 0.134100
v 0.544480 77.015572 -3.722990
v 1.766810 75.725845 0.687430
v 0.152340 74.668961 0.955350
v 2.813040 79.156998 -3.642770
v -6.751060 17.071480 -5.060020
v -3.220660 23.466438 1.521150
v -4.404820 15.345010 -0.578090
v -11.643810 16.932991 -1.832510
v -9.070810 23.686590 0.176630
v -5.489470 23.372469 -2.080280
v -7.293360 21.574551 3.097410
v -8.375540 15.100150 2.432160
v -7.160360 23.898331 3.864820
v -6.552380 26.089201 2.850690
v -10.019031 26.847889 -1.003480
v -5.989530 31.721201 -1.099780
v -12.424560 3.403940 -4.411340
v -11.149830 6.203550 -3.545850
v -9.261080 3.872760 -6.454890
v -10.279400 4.172680 -1.350720
v -7.592900 2.364980 -3.526930
v -7.645580 5.434830 -2.938540
v -8.567090 -1.214600 -6.568980
v -11.577720 -0.567270 -7.117110
v -9.320580 -0.870220 1.850360
v -15.279690 0.573290 0.801720
v -12.191710 2.611420 4.709820
v -14.886820 1.172530 4.992370
v -11.112190 0.508090 6.399190

vt 0.550479 0.485338
vt 0.414517 0.485338
vt 0.489174 0.497239
vt 0.490853 0.675485
vt 0.356970 0.710738
vt 0.458986 0.602657
vt 0.458693 0.603155
vt 0.491001 0.506534
vt 0.357039 0.710738
vt 0.272881 0.708251
vt 0.307767 0.663467
vt 0.329118 0.504113
vt 0.420682 0.504388
vt 0.307693 0.663467
vt 0.420389 0.504181
vt 0.390374 0.619683
vt 0.389206 0.622726
vt 0.390855 0.620128
vt 0.309151 0.663075
vt 0.578845 0.971377
vt 0.529882 0.993867
vt 0.501054 0.950636
vt 0.597833 0.993868
vt 0.684209 0.993870
vt 0.691613 0.940228
vt 0.584242 0.936155
vt 0.602549 0.993867
vt 0.689094 0.993870
vt 0.694409 0.971380
vt 0.730001 0.975635
vt 0.490853 0.781888
vt 0.490853 0.820915
vt 0.240556 0.660920
vt 0.133663 0.660928
vt 0.131880 0.753091
vt 0.060606 0.782384
vt 0.055577 0.663688
vt 0.136145 0.808744
vt 0.060014 0.783494
vt 0.058190 0.859642
vt 0.160773 0.512959
vt 0.067037 0.515196
vt 0.240700 0.512959
vt 0.131877 0.752996
vt 0.240556 0.781375
vt 0.390182 0.870896
vt 0.298691 0.847983
vt 0.294173 0.886121
vt 0.181129 0.899551
vt 0.052544 0.886601
vt 0.145152 0.921474
vt 0.235241 0.891030
vt 0.142740 0.921054
vt 0.172936 0.966074
vt 0.456563 0.999059
vt 0.389917 0.922986
vt 0.429989 0.941889
vt 0.491140 0.942697
vt 0.490646 0.999330
vt 0.490853 0.898039
vt 0.701416 0.118225
vt 0.813217 0.120956
vt 0.790107 0.184348
vt 0.877923 0.002315
vt 0.872775 0.120438
vt 0.505869 0.118716
vt 0.564263 0.119120
vt 0.507564 0.183764
vt 0.697589 0.180917
vt 0.580429 0.182675
vt 0.710756 0.001536
vt 0.701372 0.182427
vt 0.812168 0.002315
vt 0.857243 0.184348
vt 0.697567 0.116528
vt 0.503935 0.000692
vt 0.561277 0.000692
vt 0.688827 -0.000098
vt 0.002866 0.854679
vt 0.027518 0.706813
vt 0.061197 0.782654
vt 0.055608 0.663958
vt 0.251604 0.781884
vt 0.357109 0.710738
vt 0.243886 0.876138
vt 0.247300 0.848527
vt -0.000514 0.880403
vt 0.006948 0.782948
vt 0.674684 0.829607
vt 0.705811 0.784366
vt 0.654033 0.662928
vt 0.703232 0.671848
vt 0.720473 0.730776
vt 0.697736 0.853617
vt 0.729837 0.853035
vt 0.623758 0.856571
vt 0.587609 0.811448
vt 0.658187 0.605708
vt 0.748523 0.593788
vt 0.716351 0.931575
vt 0.747491 0.935506
vt 0.695349 0.885675
vt 0.676247 0.904603
vt 0.649719 0.961956
vt 0.745560 1.001324
vt 0.725611 0.781438
vt 0.747491 0.878462
vt 0.747491 0.808438
vt 0.720379 0.731031
vt 0.747491 0.790807
vt 0.720762 0.730332
vt 0.748639 0.732530
vt 0.746944 0.628012
vt 0.703659 0.671442
vt 0.731857 0.666086
vt 0.747085 0.666819
vt 0.703186 0.671176
vt 0.611291 0.885598
vt 0.604148 0.909350
vt 0.550618 0.823662
vt 0.550618 0.934468
vt 0.625864 0.557513
vt 0.571978 0.557920
vt 0.578607 0.510287
vt 0.669444 0.510287
vt 0.756032 0.560223
vt 0.679695 0.557918
vt 0.877240 0.461159
vt 0.992418 0.461159
vt 0.944262 0.560223
vt 0.756457 0.510287
vt 0.806202 0.560223
vt 0.498275 0.560223
vt 0.875566 0.382888
vt 0.758260 0.308662
vt 0.875912 0.308662
vt 0.759996 0.360654
vt 0.669163 0.382888
vt 0.671223 0.308662
vt 0.584325 0.382888
vt 0.577057 0.308662
vt 0.498223 0.363687
vt 0.498247 0.308662
vt 0.992597 0.308662
vt 0.992439 0.363687
vt 0.759483 0.410364
vt 0.758924 0.382888
vt 0.665903 0.461159
vt 0.580075 0.461159
vt 0.498223 0.402657
vt 0.992438 0.402657
vt 0.760539 0.449273
vt 0.498220 0.461159
vt 0.875438 0.575163
vt 0.762705 0.196431
vt 0.858161 0.196355
vt 0.690657 0.196417
vt 0.588027 0.196417
vt 0.498144 0.196431
vt 0.991918 0.196431
vt 0.375723 0.009258
vt 0.380090 0.017573
vt 0.356438 0.030356
vt 0.342839 0.029458
vt 0.369327 0.043627
vt 0.316032 0.012201
vt 0.336848 0.019568
vt 0.249292 0.041099
vt 0.371147 0.002582
vt 0.416197 0.004791
vt 0.408124 0.000758
vt 0.128136 0.016613
vt 0.154876 0.002573
vt 0.119423 0.002194
vt 0.160447 0.001473
vt 0.065726 0.014292
vt 0.105093 0.028910
vt 0.000825 0.069213
vt 0.000703 0.039244
vt 0.249314 0.055441
vt 0.429228 0.045736
vt 0.102506 0.115410
vt 0.153549 0.117195
vt 0.189513 0.114692
vt 0.228429 0.109580
vt 0.194639 0.033982
vt 0.406548 0.108121
vt 0.355355 0.108206
vt 0.448349 0.035630
vt 0.498209 0.039288
vt 0.461840 0.047992
vt 0.483032 0.114221
vt 0.406174 0.120334
vt 0.355217 0.119080
vt 0.243215 0.037501
vt 0.249314 0.089732
vt 0.000703 0.095058
vt 0.249292 0.105039
vt 0.160984 0.032072
vt 0.413806 0.033644
vt 0.442212 0.108407
vt 0.443088 0.117732
vt 0.023914 0.327327
vt 0.104127 0.227894
vt 0.000784 0.227894
vt 0.216171 0.327327
vt 0.216985 0.228421
vt 0.105699 0.228145
vt 0.104981 0.327662
vt 0.217575 0.327327
vt 0.351490 0.301452
vt 0.217290 0.227894
vt 0.351571 0.227894
vt 0.352420 0.301452
vt 0.489174 0.227894
vt 0.352342 0.227894
vt 0.471690 0.333380
vt 0.351597 0.328057
vt 0.217345 0.328075
vt 0.352312 0.363299
vt 0.470864 0.334174
vt 0.352330 0.328057
vt 0.216660 0.380224
vt 0.216104 0.328075
vt 0.104983 0.328371
vt 0.217232 0.380224
vt 0.351611 0.363299
vt 0.351459 0.420971
vt 0.352499 0.420971
vt 0.351589 0.497239
vt 0.229465 0.497239
vt 0.352627 0.497239
vt 0.229583 0.497239
vt 0.133020 0.497239
vt 0.072972 0.497239
vt 0.025422 0.328212
vt 0.002386 0.497239
vt 0.216130 0.152222
vt 0.223982 0.125749
vt 0.105883 0.155747
vt 0.351732 0.147623
vt 0.223132 0.128232
vt 0.218721 0.149411
vt 0.469070 0.149411
vt 0.483427 0.127273
vt 0.352306 0.146326
vt 0.017963 0.152222
vt 0.104256 0.155747
vt 0.009616 0.131504
vt 0.104128 0.227914
vt 0.000790 0.227921
vt 0.216984 0.228396
vt 0.351571 0.227971
vt 0.217291 0.227882
vt 0.352342 0.227879
vt 0.489111 0.227891
vt 0.948232 0.041698
vt 0.989968 0.003451
vt 0.971575 0.059997
vt 0.909211 0.004273
vt 0.996004 0.120663
vt 0.925604 0.058708
vt 0.885225 0.122889
vt 0.516483 0.798440
vt 0.501430 0.685191
vt 0.597947 0.686709
vt 0.594444 0.793024
vt 0.950876 0.082499
vt 0.943924 0.157220
vt 0.507177 0.624822
vt 0.600053 0.622523
vt 0.901715 0.182549
vt 0.982420 0.184037
vt 0.730212 0.975635
vt 0.685579 0.991654
vt 0.692830 0.969164

vn 0.994691 -0.020817 -0.100776
vn 0.055106 -0.321439 -0.945325
vn -0.156278 -0.436086 -0.886231
vn 0.892923 0.240685 0.380474
vn 0.818341 -0.240267 -0.522101
vn -0.014152 -0.528196 -0.849004
vn 0.209857 -0.462044 -0.861670
vn 0.916682 -0.381707 -0.118294
vn 0.207753 -0.420783 -0.883052
vn 0.879319 -0.470293 -0.074986
vn -0.475231 -0.808809 -0.346385
vn -0.233328 -0.899660 -0.369011
vn -0.217570 -0.856093 -0.468794
vn -0.190900 -0.902071 0.387073
vn -0.408105 -0.729224 0.549256
vn 0.530203 0.229401 0.816247
vn 0.416194 -0.506283 0.755288
vn 0.976555 -0.215263 -0.001280
vn -0.099285 -0.276208 -0.955956
vn 0.424023 -0.060600 0.903622
vn 0.729129 -0.358480 0.582977
vn 0.752961 0.367731 0.545732
vn 0.432633 0.123629 0.893054
vn 0.881891 -0.008891 0.471370
vn 0.441199 0.128805 0.888118
vn 0.276869 0.195807 0.940746
vn 0.467022 0.531144 -0.706948
vn -0.082054 -0.073381 -0.993923
vn 0.619116 -0.104092 0.778370
vn 0.342080 0.163784 -0.925287
vn 0.312288 0.269111 0.911074
vn 0.041898 0.205356 -0.977790
vn 0.667539 0.229845 0.708212
vn 0.605995 0.668494 0.431144
vn 0.573871 0.723060 0.384521
vn 0.269051 0.659192 0.702195
vn 0.157734 0.513837 0.843262
vn 0.784428 0.434646 0.442443
vn 0.750827 0.507243 -0.423040
vn 0.473774 0.461278 -0.750174
vn 0.190747 0.655838 -0.730405
vn 0.586896 0.738653 0.331579
vn 0.367585 0.770727 -0.520443
vn 0.752372 0.497612 -0.431646
vn 0.221457 0.458971 -0.860408
vn 0.232348 0.448422 -0.863095
vn 0.126193 0.047179 -0.990883
vn 0.176287 0.236312 0.955552
vn 0.860249 0.093898 0.501154
vn 0.804013 0.209183 -0.556602
vn 0.006046 0.169133 -0.985575
vn 0.175029 0.155070 0.972275
vn 0.425145 -0.013812 0.905020
vn 0.912559 0.286534 0.291779
vn 0.833085 0.288582 0.471901
vn 0.854216 0.257011 0.451952
vn 0.780189 0.237229 -0.578815
vn -0.004971 0.157428 -0.987518
vn 0.775195 0.311812 -0.549405
vn 0.602284 0.102867 -0.791627
vn -0.006533 0.176579 -0.984265
vn -0.571503 -0.157799 -0.805285
vn 0.426023 0.111085 0.897866
vn -0.295219 -0.893560 -0.338226
vn 0.926676 -0.082818 -0.366625
vn 0.636658 -0.756176 0.151212
vn 0.339957 -0.830433 -0.441373
vn 0.688502 -0.443274 -0.573997
vn 0.582570 -0.303209 -0.754106
vn 0.600505 -0.788929 0.130326
vn 0.841967 -0.098810 -0.530404
vn 0.172841 -0.961120 0.215348
vn 0.893506 -0.227358 -0.387240
vn -0.074428 -0.848403 -0.524092
vn 0.822767 0.011707 0.568259
vn 0.449122 0.022793 0.893180
vn 0.142009 0.303175 0.942294
vn 0.976795 0.050502 0.208135
vn 0.984482 -0.085183 -0.153424
vn 0.998594 -0.033945 0.040728
vn 0.360741 -0.699891 0.616457
vn 0.193736 0.403423 0.894269
vn 0.911170 0.052861 0.408625
vn 0.974673 0.070842 0.212120
vn -0.054129 0.977907 0.201913
vn 0.475325 0.501993 0.722543
vn 0.684977 0.467164 0.559074
vn 0.699334 0.467358 0.540840
vn 0.486843 0.005157 0.873474
vn 0.313347 -0.056884 0.947933
vn 0.049235 0.983905 0.171773
vn -0.020319 0.210355 0.977414
vn 0.245445 -0.514583 0.821560
vn 0.531248 0.210188 0.820729
vn 0.474290 -0.878609 0.055638
vn 0.864976 0.082339 0.495011
vn 0.007763 -0.977134 0.212482
vn 0.513967 0.325983 0.793457
vn 0.810867 0.199379 0.550220
vn 0.317124 -0.932164 0.174651
vn 0.330398 0.245702 0.911300
vn 0.977702 0.015898 -0.209396
vn 0.917814 0.112988 -0.380593
vn 0.767695 -0.165421 0.619097
vn 0.163229 -0.214218 0.963051
vn 0.826306 -0.002847 0.563215
vn 0.056783 -0.078538 0.995293
vn 0.520855 0.800341 0.296925
vn 0.978250 0.107382 0.177469
vn 0.884047 0.460772 0.078420
vn 0.769131 0.634078 0.079893
vn 0.497932 0.486007 0.718235
vn 0.491996 0.211807 -0.844439
vn 0.399783 0.277430 -0.873617
vn 0.151110 0.920902 -0.359313
vn 0.030216 0.864721 -0.501342
vn 0.879201 -0.011324 0.476317
vn 0.609394 -0.048948 -0.791355
vn 0.710793 -0.361942 0.603135
vn 0.995413 -0.095483 -0.006034
vn -0.970333 -0.098168 -0.220944
vn 0.909775 0.297071 -0.289929
vn 0.724962 -0.374512 0.578075
vn -0.238642 -0.631316 0.737895
vn 0.038125 0.103521 -0.993896
vn -0.838805 0.046373 0.542453
vn -0.519023 0.139291 0.843334
vn 0.650923 0.723534 0.229777
vn 0.245969 0.305696 0.919809
vn 0.879098 0.294499 -0.374777
vn 0.964831 0.223662 0.138120
vn 0.660029 -0.750604 0.030912
vn -0.184726 -0.465537 -0.865535
vn -0.191198 -0.975194 -0.111533
vn -0.202582 -0.722186 -0.661368
vn -0.366688 -0.152332 0.917788
vn -0.400521 -0.234801 0.885693
vn 0.880249 -0.090774 0.465749
vn 0.766235 0.113049 0.632538
vn 0.860146 0.396357 -0.321014
vn 0.859806 0.396769 -0.321417
vn 0.076908 0.380997 -0.921372
vn -0.974975 0.169093 -0.144329
vn -0.623923 -0.393536 0.675166
vn -0.469491 -0.007265 0.882908
vn 0.788537 0.206018 0.579454
vn 0.735555 -0.051469 0.675507
vn 0.920774 0.228520 -0.316154
vn 0.882278 0.308345 -0.355681
vn -0.048673 0.251703 -0.966580
vn 0.004306 0.325995 -0.945362
vn -0.970092 -0.185449 -0.156624
vn 0.852865 0.065109 0.518056
vn -0.400118 -0.215674 0.890725
vn -0.968191 0.056542 -0.243740
vn 0.036262 0.475590 -0.878920
vn -0.964150 0.126344 -0.233348
vn 0.002263 0.448977 -0.893540
vn 0.809857 -0.161635 0.563920
vn -0.457777 -0.159194 0.874698
vn -0.944560 -0.049089 0.324648
vn -0.869145 0.085868 0.487045
vn -0.147202 0.791786 0.592796
vn 0.078329 0.822317 0.563612
vn 0.764694 0.623540 -0.162608
vn 0.750136 0.656485 -0.079521
vn 0.687425 -0.071795 -0.722698
vn 0.587729 -0.295530 -0.753151
vn -0.515507 -0.731687 -0.445967
vn -0.479092 -0.748114 -0.459125
vn 0.268962 0.922558 -0.276669
vn 0.227104 -0.000300 -0.973870
vn 0.740208 -0.605349 -0.292651
vn 0.640525 -0.635767 -0.430730
vn 0.666649 -0.618541 -0.415916
vn 0.525967 -0.512958 -0.678404
vn 0.440798 -0.541369 -0.715973
vn 0.744084 0.660096 -0.103018
vn 0.484943 0.862001 0.147594
vn -0.894067 -0.137933 0.426167
vn -0.702881 0.695514 0.149057
vn -0.957231 -0.076594 0.279001
vn -0.934439 -0.003702 0.356105
vn -0.992516 -0.081926 -0.090552
vn -0.119917 -0.988075 0.096584
vn 0.862000 -0.432238 -0.264813
vn 0.673557 -0.264901 -0.690035
vn -0.784949 -0.611404 -0.100203
vn -0.782996 -0.605641 -0.141836
vn 0.638403 0.769506 0.017406
vn 0.652426 0.755644 0.057818
vn 0.668783 -0.248231 -0.700793
vn 0.551839 0.825146 -0.120864
vn -0.188704 0.655048 0.731644
vn -0.321006 0.638620 0.699371
vn -0.781925 -0.610737 -0.124874
vn 0.828338 0.558835 0.039489
vn -0.842923 -0.488389 -0.225735
vn -0.768619 -0.287646 0.571388
vn 0.013695 0.532626 0.846240
vn 0.223987 0.367163 -0.902785
vn 0.686534 0.720631 0.096761
vn -0.197124 0.460866 0.865300
vn 0.944902 0.025706 -0.326343
vn 0.945235 0.043043 -0.323539
vn -0.796861 -0.580728 -0.166635
vn 0.690134 -0.256053 -0.676869
vn 0.576495 0.816252 -0.037227
vn -0.259248 0.758967 0.597293
vn -0.913149 0.148651 -0.379554
vn 0.601834 0.737850 -0.305571
vn 0.403801 0.873880 -0.270699
vn 0.831731 -0.131789 0.539310
vn 0.816557 -0.221295 0.533163
vn -0.590839 -0.587986 0.552432
vn -0.547286 -0.630705 0.550172
vn 0.902601 -0.229003 0.364513
vn -0.543060 -0.047796 0.838332
vn 0.591568 -0.166060 -0.788968
vn 0.867775 -0.147463 0.474574
vn 0.885527 -0.254548 0.388647
vn -0.255925 -0.621199 0.740685
vn 0.881733 -0.055734 0.468445
vn -0.538435 -0.609014 0.582400
vn -0.869980 0.328006 -0.368167
vn 0.900456 0.030649 0.433867
vn -0.434016 -0.400190 0.807142
vn 0.923405 -0.000659 0.383827
vn 0.554474 0.342893 -0.758276
vn 0.400422 0.196293 -0.895060
vn -0.352545 0.042594 -0.934825
vn -0.757889 -0.259566 -0.598522
vn -0.480141 -0.468463 0.741625
vn -0.959565 -0.272607 -0.070143
vn 0.453886 0.874690 -0.170012
vn 0.830418 -0.256152 0.494764
vn -0.524558 -0.620815 0.582605
vn -0.881144 0.351765 -0.315986
vn 0.735813 0.591897 -0.328994
vn -0.911963 0.158837 -0.378277
vn -0.915273 0.154297 -0.372113
vn 0.625382 0.627829 -0.463388
vn 0.847699 -0.454058 0.274296
vn 0.917775 -0.297633 0.262876
vn -0.566238 -0.797960 0.206481
vn -0.476738 -0.852754 0.213379
vn -0.884330 0.362044 -0.294760
vn -0.174500 0.638998 -0.749154
vn -0.917675 -0.380373 -0.114848
vn 0.880420 0.359606 -0.309102
vn 0.241975 -0.827662 -0.506382
vn 0.174449 -0.831374 -0.527621
vn 0.509035 0.611936 0.605325
vn 0.484454 0.769870 -0.415457
vn -0.718087 0.089686 0.690150
vn 0.533531 0.647285 0.544395
vn -0.814899 0.101748 0.570602
vn 0.242162 -0.829236 -0.503712
vn 0.242644 -0.829325 -0.503333
vn 0.449420 0.736941 0.504916
vn 0.211464 -0.058670 0.975623
vn -0.802186 0.297476 0.517693
vn 0.091789 -0.974946 -0.202620
vn -0.307727 -0.123811 -0.943385
vn 0.285250 -0.458281 -0.841790
vn -0.822722 0.033925 0.567430
vn -0.917368 -0.317361 -0.240244
vn -0.280337 -0.611249 -0.740125
vn -0.225112 -0.644987 -0.730286
vn -0.870236 -0.473332 -0.136551
vn -0.144395 0.049911 -0.988261
vn -0.923642 -0.328797 -0.196920
vn 0.401976 -0.843922 -0.355263
vn 0.720359 -0.585247 -0.372249
vn 0.065747 -0.392263 -0.917501
vn 0.263232 -0.468390 0.843398
vn 0.704941 0.059385 0.706775
vn -0.149893 0.180722 0.972045
vn -0.189698 0.273808 0.942891
vn -0.918339 -0.251687 0.305462
vn -0.255615 -0.270898 -0.928049
vn -0.387877 -0.112959 0.914763
vn -0.633664 -0.484227 0.603319
vn -0.521652 0.601876 0.604669
vn -0.401237 0.217786 0.889707
vn -0.712779 0.042932 0.700073
vn 0.026194 0.084387 0.996089
vn -0.130026 0.239768 0.962083
vn -0.270346 -0.204799 -0.940729
vn -0.292012 -0.078331 -0.953202
vn -0.430407 -0.113536 0.895466
vn -0.507423 0.255068 -0.823081
vn -0.121660 0.222599 0.967289
vn -0.285825 -0.190937 -0.939067
vn -0.422092 0.237396 0.874918
vn -0.461683 0.679840 0.569796
vn -0.452179 0.887893 0.084731
vn -0.108097 0.638218 0.762229
vn -0.100146 0.630966 0.769319
vn -0.724744 0.499042 0.475082
vn -0.691282 0.488539 -0.532409
vn -0.345023 0.478916 -0.807217
vn -0.152908 0.617274 -0.771746
vn -0.396788 0.892380 0.214983
vn -0.418418 0.745771 -0.518413
vn -0.687309 0.539413 -0.486456
vn -0.229848 0.383012 -0.894691
vn -0.175129 0.442237 -0.879634
vn -0.173828 0.060377 -0.982923
vn 0.000296 0.023102 0.999733
vn -0.791762 0.177530 0.584462
vn -0.835319 0.334349 -0.436409
vn -0.303528 0.358493 -0.882810
vn -0.011429 0.100750 0.994846
vn 0.027611 0.039766 0.998827
vn -0.836427 0.285769 0.467681
vn -0.798374 0.082230 0.596520
vn -0.707912 0.194580 0.678970
vn -0.934131 0.184814 -0.305358
vn -0.042371 0.156092 -0.986833
vn -0.862120 0.265643 -0.431489
vn -0.626324 -0.131018 -0.768474
vn 0.004011 -0.142151 -0.989837
vn 0.148459 -0.199138 -0.968661
vn -0.094513 0.040910 0.994683
vn 0.667223 0.113096 -0.736222
vn -0.358480 0.206837 -0.910335
vn -0.650578 -0.754294 -0.088252
vn 0.207464 0.684985 0.698394
vn -0.381005 -0.534667 -0.754298
vn -0.462911 0.408030 -0.786909
vn -0.484228 -0.858832 -0.167123
vn -0.944873 0.135080 -0.298277
vn 0.572675 -0.819074 -0.034071
vn -0.067904 -0.584894 -0.808263
vn 0.322098 -0.608482 -0.725261
vn -0.928924 -0.085918 0.360165
vn -0.626742 -0.000971 0.779226
vn -0.349277 0.292325 0.890254
vn -0.995931 -0.087663 -0.020899
vn -0.922848 -0.266005 -0.278554
vn -0.844871 -0.314519 -0.432749
vn -0.346635 -0.712402 0.610187
vn -0.394119 0.390449 0.831997
vn -0.977951 0.011138 0.208535
vn -0.999624 0.027237 0.003011
vn -0.032097 0.978392 0.204251
vn -0.637534 0.477406 0.604677
vn -0.806573 0.434219 0.401116
vn -0.816797 0.433870 0.380262
vn -0.658690 -0.020143 0.752145
vn -0.502093 -0.074893 0.861565
vn -0.127032 0.980011 0.153104
vn -0.193988 0.206519 0.959020
vn -0.389319 -0.528600 0.754329
vn -0.699976 0.182992 0.690324
vn -0.368093 -0.911444 -0.183787
vn -0.983999 0.050641 0.170823
vn -0.008320 -0.977891 0.208949
vn -0.682441 0.299553 0.666740
vn -0.916013 0.161236 0.367319
vn -0.223378 -0.971801 0.075532
vn -0.524298 0.226824 0.820769
vn -0.908679 -0.027622 -0.416580
vn -0.818595 0.069208 -0.570187
vn -0.872331 -0.201647 0.445396
vn -0.351757 -0.225599 0.908500
vn -0.924985 -0.041525 0.377727
vn -0.260431 -0.085522 0.961697
vn -0.605914 0.775455 0.177588
vn -0.997460 0.063744 -0.031788
vn -0.900126 0.421369 -0.110552
vn -0.795747 0.599514 -0.085854
vn -0.658012 0.460481 0.595800
vn -0.334742 0.179279 -0.925098
vn -0.219666 0.265428 -0.938773
vn -0.112592 0.915077 -0.387243
vn 0.037691 0.864889 -0.500546
vn -0.896511 0.118069 0.426999
vn -0.617899 0.609589 -0.496591
vn -0.725816 -0.546214 0.418141
vn -0.935004 -0.240665 -0.260477
vn 0.963962 0.027878 -0.264573
vn -0.914691 0.386801 -0.117155
vn -0.759761 -0.621766 0.190187
vn 0.529307 -0.564204 0.633647
vn 0.714409 0.667859 0.208768
vn 0.772455 -0.627943 0.094874
vn 0.380396 -0.717642 0.583343
vn -0.519975 0.701498 0.487366
vn -0.429844 -0.174622 0.885856
vn -0.769958 0.437435 0.464559
vn -0.751893 0.545055 0.370907
vn -0.906190 -0.028145 -0.421932
vn 0.585023 -0.345665 -0.733665
vn -0.848473 -0.261873 -0.459908
vn -0.865875 -0.405037 -0.293608
vn 0.332829 -0.675570 0.657898
vn 0.376404 -0.697019 0.610316
vn -0.851519 -0.515413 0.096255
vn -0.815673 -0.468441 0.339470
vn -0.904794 0.385067 -0.181856
vn -0.919709 0.345625 -0.186224
vn -0.012093 0.827293 -0.561641
vn 0.867167 0.387059 0.313380
vn 0.504311 -0.680958 0.531005
vn 0.396615 -0.522818 0.754558
vn -0.857443 -0.370391 0.357213
vn -0.769580 -0.597662 0.224827
vn -0.902553 0.304440 -0.304491
vn -0.896344 0.332892 -0.292832
vn 0.595886 0.385066 -0.704730
vn -0.017700 0.901368 -0.432691
vn 0.411771 0.851878 -0.323650
vn -0.862186 -0.479335 0.163928
vn 0.382074 -0.704556 0.598013
vn 0.925034 0.376691 0.049149
vn 0.084728 0.944726 -0.316723
vn 0.892336 0.442214 0.090464
vn -0.079069 0.971220 -0.224676
vn -0.786982 -0.602565 0.132569
vn 0.437958 -0.674011 0.594897
vn 0.710534 -0.702853 0.033763
vn 0.671288 -0.724379 0.156994
vn 0.177197 0.082915 0.980676
vn -0.005507 0.208825 0.977938
vn -0.463499 0.806977 0.366000
vn -0.467509 0.771706 0.431168
vn -0.396640 0.732510 -0.553268
vn -0.387438 0.688984 -0.612530
vn 0.341553 -0.191128 -0.920224
vn 0.439666 -0.256791 -0.860670
vn 0.063267 0.870025 0.488931
vn 0.126170 0.712409 -0.690329
vn -0.714457 0.043107 -0.698351
vn -0.687746 0.110339 -0.717517
vn -0.629204 0.083096 -0.772786
vn -0.432264 0.342147 -0.834316
vn -0.353014 0.312029 -0.882054
vn -0.363631 0.788198 0.496504
vn -0.214913 0.654706 0.724688
vn 0.641022 -0.760519 0.103452
vn 0.847268 0.094214 0.522743
vn 0.783051 -0.621814 0.013349
vn 0.769810 -0.624897 0.129987
vn 0.872727 -0.471232 -0.127625
vn -0.231655 -0.726452 -0.646996
vn -0.831953 0.274650 -0.482102
vn -0.459456 0.504847 -0.730774
vn 0.664545 -0.616126 -0.422810
vn 0.671590 -0.582765 -0.457550
vn -0.343642 0.746899 0.569255
vn -0.372545 0.718104 0.587824
vn -0.532377 0.586838 -0.610079
vn -0.333123 0.845565 0.417192
vn 0.054104 -0.031333 0.998044
vn 0.248965 -0.137271 0.958735
vn 0.632675 -0.654743 -0.413563
vn -0.584370 0.679345 0.443849
vn 0.723900 -0.546694 -0.420826
vn 0.569563 -0.819939 0.057420
vn -0.100144 -0.202952 0.974054
vn 0.209304 0.906078 -0.367715
vn -0.428687 0.683571 0.590726
vn 0.042290 -0.317649 0.947265
vn -0.746775 0.634429 -0.199570
vn -0.742680 0.643430 -0.185540
vn 0.714322 -0.532834 -0.453687
vn -0.642947 0.533189 -0.549844
vn -0.490906 0.661653 0.566768
vn 0.189727 0.087954 0.977889
vn 0.884576 -0.008442 -0.466319
vn -0.508506 0.417727 -0.752945
vn -0.446185 0.454041 -0.771211
vn -0.801569 0.131895 0.583173
vn -0.778129 0.065881 0.624640
vn 0.601251 -0.180481 0.778411
vn 0.458088 -0.284474 0.842158
vn -0.880887 -0.102209 0.462160
vn 0.515713 0.237879 0.823076
vn -0.507882 -0.430805 -0.745964
vn -0.740383 0.028623 0.671575
vn -0.591715 0.501728 0.630985
vn 0.600887 0.417900 0.681392
vn -0.818385 0.412374 0.400241
vn 0.462778 -0.301755 0.833535
vn 0.842178 0.083304 -0.532726
vn -0.656177 0.711290 0.251987
vn 0.686134 0.493101 0.534856
vn -0.737138 0.615035 0.279927
vn -0.627891 -0.631270 -0.455249
vn -0.608017 -0.652147 -0.452791
vn -0.112523 -0.840739 -0.529619
vn 0.476149 -0.834200 -0.278196
vn 0.707037 0.418219 0.570256
vn 0.800563 -0.586303 -0.123887
vn -0.528701 0.461052 -0.712676
vn -0.824417 0.213305 0.524250
vn 0.561268 -0.146493 0.814566
vn 0.886013 0.101903 -0.452324
vn -0.735820 0.208036 -0.644430
vn 0.921804 -0.136975 -0.362651
vn 0.848731 -0.157289 -0.504892
vn -0.549587 0.107006 -0.828555
vn -0.813003 -0.128129 0.567986
vn -0.920876 0.025776 0.389002
vn 0.601291 -0.352925 0.716863
vn 0.577039 -0.362963 0.731631
vn 0.888903 0.131103 -0.438934
vn 0.188847 0.047758 -0.980844
vn 0.936172 -0.337723 0.097597
vn -0.895080 0.104486 -0.433490
vn -0.239924 -0.970399 0.027607
vn -0.213786 -0.976659 0.020816
vn -0.529595 0.832626 0.162056
vn -0.539400 0.392547 -0.744953
vn 0.724837 0.462136 0.510923
vn -0.575774 0.817101 0.028817
vn 0.842823 0.393389 0.367280
vn -0.228256 -0.960571 0.158754
vn -0.261865 -0.947416 0.183930
vn -0.476001 0.875743 -0.080601
vn -0.206453 0.546120 0.811868
vn 0.821462 0.548090 0.157470
vn -0.503110 -0.840714 0.200199

f 1/1/1 2/2/1 3/3/1
f 4/4/2 5/5/2 6/6/2
f 4/4/3 6/7/3 7/8/3
f 5/9/4 8/10/4 9/11/4
f 10/12/5 11/13/5 9/14/5
f 6/6/6 11/15/6 7/8/6
f 6/6/7 12/16/7 11/13/7
f 12/17/8 5/5/8 9/14/8
f 6/6/9 5/5/9 12/17/9
f 11/13/10 12/18/10 9/19/10
f 13/20/11 14/21/11 15/22/11
f 14/21/12 13/20/12 16/23/12
f 16/24/13 13/20/13 17/25/13
f 15/22/14 14/21/14 18/26/14
f 14/21/15 19/27/15 18/26/15
f 18/26/16 20/28/16 21/29/16
f 18/26/17 19/27/17 20/28/17
f 20/28/18 3/30/18 21/29/18
f 5/9/19 22/31/19 23/32/19
f 24/33/20 25/34/20 26/35/20
f 27/36/21 25/34/21 9/37/21
f 28/38/22 27/39/22 29/40/22
f 30/41/23 25/34/23 24/33/23
f 25/34/24 30/41/24 10/42/24
f 30/41/25 24/33/25 31/43/25
f 24/33/26 26/44/26 32/45/26
f 33/46/27 34/47/27 5/9/27
f 4/4/28 22/31/28 5/9/28
f 26/35/29 25/34/29 27/39/29
f 33/46/30 35/48/30 34/47/30
f 32/45/31 26/35/31 28/38/31
f 23/32/32 33/46/32 5/9/32
f 26/35/33 27/39/33 28/38/33
f 28/38/34 29/40/34 36/49/34
f 35/50/35 37/51/35 29/40/35
f 28/38/36 38/52/36 32/45/36
f 36/49/37 38/52/37 28/38/37
f 36/49/38 37/53/38 39/54/38
f 39/55/39 37/56/39 40/57/39
f 41/58/40 42/59/40 39/55/40
f 39/55/41 40/57/41 41/58/41
f 36/49/42 29/40/42 37/51/42
f 37/56/43 35/48/43 33/46/43
f 37/56/44 33/46/44 40/57/44
f 40/57/45 33/46/45 43/60/45
f 40/57/46 43/60/46 41/58/46
f 33/46/47 23/32/47 43/60/47
f 44/61/48 45/62/48 30/63/48
f 15/64/49 46/65/49 45/62/49
f 46/66/50 47/67/50 10/68/50
f 47/67/51 7/69/51 11/70/51
f 45/62/52 44/61/52 17/71/52
f 44/61/53 30/63/53 31/72/53
f 13/73/54 15/64/54 45/62/54
f 46/65/55 10/74/55 45/62/55
f 45/62/56 10/74/56 30/63/56
f 47/67/57 11/70/57 10/68/57
f 47/67/58 48/75/58 7/69/58
f 46/66/59 15/76/59 47/67/59
f 18/77/60 47/67/60 15/76/60
f 47/67/61 18/77/61 48/75/61
f 18/77/62 21/78/62 48/75/62
f 13/73/63 45/62/63 17/71/63
f 49/79/64 35/50/64 29/40/64
f 8/80/65 27/81/65 9/82/65
f 34/47/66 50/83/66 5/84/66
f 27/36/67 49/79/67 29/40/67
f 35/48/68 51/85/68 52/86/68
f 35/50/69 49/79/69 51/87/69
f 52/86/70 50/83/70 34/47/70
f 35/48/71 52/86/71 34/47/71
f 5/84/72 50/83/72 8/10/72
f 53/88/73 27/81/73 8/80/73
f 53/88/74 49/79/74 27/36/74
f 54/89/75 55/90/75 56/91/75
f 57/92/76 55/90/76 58/93/76
f 59/94/77 60/95/77 55/90/77
f 61/96/78 54/89/78 56/91/78
f 39/97/79 61/96/79 36/98/79
f 36/98/80 61/96/80 56/91/80
f 36/98/81 56/91/81 38/99/81
f 62/100/82 63/101/82 64/102/82
f 65/103/83 64/102/83 54/89/83
f 61/96/84 65/103/84 54/89/84
f 66/104/85 67/105/85 62/100/85
f 55/90/86 60/95/86 68/106/86
f 69/107/87 68/106/87 60/95/87
f 69/107/88 70/108/88 68/106/88
f 58/109/89 55/90/89 68/106/89
f 68/106/90 71/110/90 58/111/90
f 62/100/91 67/105/91 63/101/91
f 64/102/92 63/101/92 69/107/92
f 70/108/93 71/110/93 68/106/93
f 58/111/94 71/110/94 72/112/94
f 56/91/95 57/92/95 38/113/95
f 55/90/96 57/114/96 56/91/96
f 73/115/97 74/116/97 38/113/97
f 58/109/98 72/112/98 73/115/98
f 57/117/99 58/111/99 73/115/99
f 57/92/100 73/115/100 38/113/100
f 73/115/101 72/112/101 74/116/101
f 39/97/102 75/118/102 61/96/102
f 75/118/103 39/97/103 76/119/103
f 64/102/104 59/94/104 54/89/104
f 64/102/105 60/95/105 59/94/105
f 54/89/106 59/94/106 55/90/106
f 64/102/107 69/107/107 60/95/107
f 65/103/108 66/104/108 62/100/108
f 65/103/109 61/96/109 75/118/109
f 75/118/110 76/119/110 65/103/110
f 66/104/111 65/103/111 76/119/111
f 62/100/112 64/102/112 65/103/112
f 39/97/113 42/120/113 76/119/113
f 77/121/114 76/119/114 42/120/114
f 67/105/115 76/119/115 77/121/115
f 66/104/116 76/119/116 67/105/116
f 9/82/117 25/34/117 10/42/117
f 51/122/118 49/123/118 78/124/118
f 79/125/119 50/126/119 52/127/119
f 52/127/120 51/122/120 79/125/120
f 80/128/121 81/129/121 53/130/121
f 51/122/122 78/124/122 79/125/122
f 82/131/123 50/126/123 79/125/123
f 50/126/124 82/131/124 8/132/124
f 53/133/125 78/124/125 49/123/125
f 83/134/126 84/135/126 85/136/126
f 84/135/127 83/134/127 86/137/127
f 86/137/128 87/138/128 84/135/128
f 88/139/129 84/135/129 87/138/129
f 87/138/130 89/140/130 88/139/130
f 90/141/131 88/139/131 89/140/131
f 91/142/132 92/143/132 90/141/132
f 90/141/133 89/140/133 91/142/133
f 85/136/134 92/144/134 91/145/134
f 91/145/135 83/134/135 85/136/135
f 80/128/136 93/146/136 83/134/136
f 94/147/137 83/134/137 93/146/137
f 93/146/138 87/138/138 94/147/138
f 87/138/139 93/146/139 95/148/139
f 95/148/140 96/149/140 87/138/140
f 89/140/141 87/138/141 96/149/141
f 97/150/142 91/142/142 89/140/142
f 97/151/143 81/129/143 80/128/143
f 8/132/144 82/131/144 80/128/144
f 93/146/145 80/128/145 98/152/145
f 98/152/146 95/148/146 93/146/146
f 95/148/147 82/131/147 79/125/147
f 79/125/148 78/124/148 95/148/148
f 96/149/149 95/148/149 78/124/149
f 78/124/150 53/133/150 81/153/150
f 81/153/151 96/149/151 78/124/151
f 80/128/152 53/130/152 8/154/152
f 94/147/153 87/138/153 86/137/153
f 86/137/154 83/134/154 94/147/154
f 97/151/155 83/134/155 91/145/155
f 89/140/156 96/149/156 97/150/156
f 80/128/157 83/134/157 97/151/157
f 81/153/158 97/150/158 96/149/158
f 82/131/159 95/148/159 98/152/159
f 98/152/160 80/128/160 82/131/160
f 85/136/161 99/155/161 100/156/161
f 99/155/162 85/136/162 84/135/162
f 84/135/163 101/157/163 99/155/163
f 101/157/164 84/135/164 88/139/164
f 88/139/165 90/141/165 101/157/165
f 102/158/166 101/157/166 90/141/166
f 90/141/167 103/159/167 102/158/167
f 103/159/168 90/141/168 92/143/168
f 92/144/169 85/136/169 103/160/169
f 100/156/170 103/160/170 85/136/170
f 104/161/171 105/162/171 106/163/171
f 107/164/172 106/163/172 108/165/172
f 109/166/173 110/167/173 103/168/173
f 109/166/174 111/169/174 104/161/174
f 104/161/175 110/167/175 109/166/175
f 104/161/176 111/169/176 112/170/176
f 113/171/177 112/170/177 111/169/177
f 106/163/178 110/167/178 104/161/178
f 104/161/179 112/170/179 105/162/179
f 105/172/180 113/173/180 111/174/180
f 113/173/181 105/172/181 112/175/181
f 105/172/182 111/174/182 109/176/182
f 109/176/183 106/177/183 105/172/183
f 109/176/184 100/178/184 106/177/184
f 103/179/185 100/178/185 109/176/185
f 102/180/186 103/168/186 110/167/186
f 106/163/187 114/181/187 108/165/187
f 115/182/188 116/183/188 106/177/188
f 116/184/189 117/185/189 118/186/189
f 108/165/190 114/181/190 119/187/190
f 119/187/191 120/188/191 108/165/191
f 118/189/192 121/190/192 114/191/192
f 114/191/193 121/190/193 117/192/193
f 116/193/194 115/194/194 119/187/194
f 120/188/195 119/187/195 115/194/195
f 121/195/196 118/186/196 117/185/196
f 108/165/197 101/196/197 102/180/197
f 115/182/198 106/177/198 100/178/198
f 100/178/199 99/197/199 115/182/199
f 120/188/200 99/198/200 101/196/200
f 106/163/201 107/164/201 110/167/201
f 108/165/202 120/188/202 101/196/202
f 120/188/203 115/194/203 99/198/203
f 107/164/204 102/180/204 110/167/204
f 102/180/205 107/164/205 108/165/205
f 118/199/206 106/177/206 116/183/206
f 114/181/207 106/163/207 118/200/207
f 114/191/208 117/192/208 119/201/208
f 117/192/209 116/202/209 119/201/209
f 122/203/210 123/204/210 124/205/210
f 125/206/211 126/207/211 123/208/211
f 125/206/212 123/208/212 127/209/212
f 125/210/213 128/211/213 126/212/213
f 128/211/214 129/213/214 126/212/214
f 128/214/215 124/215/215 129/216/215
f 122/217/216 124/215/216 128/214/216
f 130/218/217 128/211/217 125/219/217
f 131/220/218 122/221/218 130/222/218
f 132/223/219 125/224/219 127/225/219
f 132/226/220 131/227/220 125/219/220
f 133/228/221 131/227/221 132/226/221
f 133/229/222 122/221/222 131/220/222
f 130/218/223 125/219/223 131/227/223
f 128/214/224 130/222/224 122/221/224
f 127/209/225 123/204/225 122/203/225
f 16/230/226 133/228/226 14/231/226
f 16/232/227 3/3/227 133/229/227
f 14/231/228 133/228/228 132/226/228
f 14/233/229 132/223/229 19/234/229
f 132/223/230 127/225/230 19/234/230
f 20/235/231 19/234/231 127/225/231
f 20/235/232 127/225/232 122/236/232
f 3/3/233 122/221/233 133/229/233
f 3/237/234 20/235/234 122/236/234
f 134/238/235 135/239/235 136/240/235
f 137/241/236 135/242/236 134/243/236
f 138/244/237 139/245/237 137/246/237
f 138/247/238 136/248/238 139/249/238
f 134/238/239 136/240/239 123/208/239
f 138/247/240 123/250/240 136/248/240
f 123/250/241 138/247/241 124/251/241
f 134/238/242 123/208/242 126/252/242
f 129/253/243 134/243/243 126/254/243
f 137/241/244 134/243/244 129/253/244
f 138/244/245 137/246/245 129/255/245
f 138/244/246 129/255/246 124/256/246
f 136/257/247 140/258/247 139/259/247
f 136/257/248 141/260/248 140/258/248
f 142/261/249 139/259/249 140/258/249
f 135/262/250 143/263/250 141/260/250
f 141/264/251 143/265/251 142/266/251
f 142/266/252 140/267/252 141/264/252
f 137/268/253 143/263/253 135/262/253
f 135/262/254 141/260/254 136/257/254
f 139/259/255 142/261/255 137/268/255
f 137/268/256 144/269/256 143/263/256
f 137/268/257 142/261/257 144/269/257
f 143/265/258 145/270/258 146/271/258
f 146/271/259 142/266/259 143/265/259
f 143/263/260 144/269/260 145/272/260
f 144/269/261 146/273/261 145/272/261
f 146/273/262 144/269/262 142/261/262
f 3/274/263 16/275/263 17/276/263
f 147/5/264 4/4/264 148/6/264
f 148/7/265 4/4/265 7/8/265
f 149/10/266 147/9/266 150/11/266
f 151/13/267 152/12/267 150/14/267
f 151/15/268 148/6/268 7/8/268
f 153/16/269 148/6/269 151/13/269
f 147/5/270 153/17/270 150/14/270
f 147/5/271 148/6/271 153/17/271
f 153/18/272 151/13/272 150/19/272
f 154/21/273 155/20/273 156/22/273
f 155/20/274 154/21/274 157/23/274
f 155/20/275 157/24/275 17/25/275
f 154/21/276 156/22/276 158/26/276
f 159/27/277 154/21/277 158/26/277
f 160/28/278 158/26/278 21/29/278
f 159/27/279 158/26/279 160/28/279
f 3/30/280 160/28/280 21/29/280
f 22/31/281 147/9/281 23/32/281
f 161/34/282 24/33/282 162/35/282
f 161/34/283 163/36/283 150/37/283
f 163/39/284 164/38/284 165/40/284
f 161/34/285 166/41/285 24/33/285
f 166/41/286 161/34/286 152/42/286
f 24/33/287 166/41/287 31/43/287
f 162/44/288 24/33/288 32/45/288
f 167/47/289 168/46/289 147/9/289
f 22/31/290 4/4/290 147/9/290
f 161/34/291 162/35/291 163/39/291
f 169/48/292 168/46/292 167/47/292
f 162/35/293 32/45/293 164/38/293
f 168/46/294 23/32/294 147/9/294
f 163/39/295 162/35/295 164/38/295
f 165/40/296 164/38/296 170/49/296
f 171/51/297 169/50/297 165/40/297
f 38/52/298 164/38/298 32/45/298
f 38/52/299 170/49/299 164/38/299
f 171/53/300 170/49/300 172/54/300
f 171/56/301 172/55/301 173/57/301
f 42/59/302 41/58/302 172/55/302
f 173/57/303 172/55/303 41/58/303
f 165/40/304 170/49/304 171/51/304
f 169/48/305 171/56/305 168/46/305
f 168/46/306 171/56/306 173/57/306
f 168/46/307 173/57/307 43/60/307
f 43/60/308 173/57/308 41/58/308
f 23/32/309 168/46/309 43/60/309
f 174/62/310 44/61/310 166/63/310
f 175/65/311 156/64/311 174/62/311
f 176/67/312 175/66/312 152/68/312
f 7/69/313 176/67/313 151/70/313
f 44/61/314 174/62/314 17/71/314
f 166/63/315 44/61/315 31/72/315
f 156/64/316 155/73/316 174/62/316
f 152/74/317 175/65/317 174/62/317
f 152/74/318 174/62/318 166/63/318
f 151/70/319 176/67/319 152/68/319
f 48/75/320 176/67/320 7/69/320
f 156/76/321 175/66/321 176/67/321
f 176/67/322 158/77/322 156/76/322
f 158/77/323 176/67/323 48/75/323
f 21/78/324 158/77/324 48/75/324
f 174/62/325 155/73/325 17/71/325
f 169/50/326 177/79/326 165/40/326
f 163/81/327 149/80/327 150/82/327
f 178/83/328 167/47/328 147/84/328
f 177/79/329 163/36/329 165/40/329
f 179/85/330 169/48/330 180/86/330
f 177/79/331 169/50/331 179/87/331
f 178/83/332 180/86/332 167/47/332
f 180/86/333 169/48/333 167/47/333
f 178/83/334 147/84/334 149/10/334
f 163/81/335 181/88/335 149/80/335
f 177/79/336 181/88/336 163/36/336
f 182/90/337 183/89/337 184/91/337
f 182/90/338 185/92/338 186/93/338
f 187/95/339 188/94/339 182/90/339
f 183/89/340 189/96/340 184/91/340
f 189/96/341 172/97/341 170/98/341
f 189/96/342 170/98/342 184/91/342
f 184/91/343 170/98/343 38/99/343
f 63/101/344 190/100/344 191/102/344
f 191/102/345 192/103/345 183/89/345
f 192/103/346 189/96/346 183/89/346
f 67/105/347 193/104/347 190/100/347
f 187/95/348 182/90/348 194/106/348
f 194/106/349 69/107/349 187/95/349
f 70/108/350 69/107/350 194/106/350
f 182/90/351 186/109/351 194/106/351
f 71/110/352 194/106/352 186/111/352
f 67/105/353 190/100/353 63/101/353
f 63/101/354 191/102/354 69/107/354
f 71/110/355 70/108/355 194/106/355
f 71/110/356 186/111/356 72/112/356
f 185/92/357 184/91/357 38/113/357
f 185/114/358 182/90/358 184/91/358
f 74/116/359 195/115/359 38/113/359
f 72/112/360 186/109/360 195/115/360
f 186/111/361 185/117/361 195/115/361
f 195/115/362 185/92/362 38/113/362
f 72/112/363 195/115/363 74/116/363
f 196/118/364 172/97/364 189/96/364
f 172/97/365 196/118/365 197/119/365
f 188/94/366 191/102/366 183/89/366
f 187/95/367 191/102/367 188/94/367
f 188/94/368 183/89/368 182/90/368
f 69/107/369 191/102/369 187/95/369
f 193/104/370 192/103/370 190/100/370
f 189/96/371 192/103/371 196/118/371
f 197/119/372 196/118/372 192/103/372
f 192/103/373 193/104/373 197/119/373
f 191/102/374 190/100/374 192/103/374
f 42/120/375 172/97/375 197/119/375
f 197/119/376 77/121/376 42/120/376
f 197/119/377 67/105/377 77/121/377
f 197/119/378 193/104/378 67/105/378
f 161/34/379 150/82/379 152/42/379
f 177/123/380 179/122/380 198/124/380
f 178/126/381 199/125/381 180/127/381
f 179/122/382 180/127/382 199/125/382
f 200/129/383 201/128/383 181/130/383
f 198/124/384 179/122/384 199/125/384
f 178/126/385 202/131/385 199/125/385
f 202/131/386 178/126/386 149/132/386
f 198/124/387 181/133/387 177/123/387
f 203/135/388 204/134/388 205/136/388
f 204/134/389 203/135/389 206/137/389
f 207/138/390 206/137/390 203/135/390
f 203/135/391 208/139/391 207/138/391
f 209/140/392 207/138/392 208/139/392
f 208/139/393 210/141/393 209/140/393
f 211/143/394 212/142/394 210/141/394
f 209/140/395 210/141/395 212/142/395
f 211/144/396 205/136/396 212/145/396
f 204/134/397 212/145/397 205/136/397
f 213/146/398 201/128/398 204/134/398
f 204/134/399 214/147/399 213/146/399
f 207/138/400 213/146/400 214/147/400
f 213/146/401 207/138/401 215/148/401
f 216/149/402 215/148/402 207/138/402
f 207/138/403 209/140/403 216/149/403
f 212/142/404 217/150/404 209/140/404
f 200/129/405 217/151/405 201/128/405
f 202/131/406 149/132/406 201/128/406
f 201/128/407 213/146/407 218/152/407
f 215/148/408 218/152/408 213/146/408
f 202/131/409 215/148/409 199/125/409
f 198/124/410 199/125/410 215/148/410
f 215/148/411 216/149/411 198/124/411
f 181/133/412 198/124/412 200/153/412
f 216/149/413 200/153/413 198/124/413
f 181/130/414 201/128/414 149/154/414
f 207/138/415 214/147/415 206/137/415
f 204/134/416 206/137/416 214/147/416
f 204/134/417 217/151/417 212/145/417
f 216/149/418 209/140/418 217/150/418
f 204/134/419 201/128/419 217/151/419
f 217/150/420 200/153/420 216/149/420
f 215/148/421 202/131/421 218/152/421
f 201/128/422 218/152/422 202/131/422
f 219/155/423 205/136/423 220/156/423
f 205/136/424 219/155/424 203/135/424
f 221/157/425 203/135/425 219/155/425
f 203/135/426 221/157/426 208/139/426
f 210/141/427 208/139/427 221/157/427
f 221/157/428 222/158/428 210/141/428
f 223/159/429 210/141/429 222/158/429
f 210/141/430 223/159/430 211/143/430
f 205/136/431 211/144/431 223/160/431
f 223/160/432 220/156/432 205/136/432
f 224/162/433 225/161/433 226/163/433
f 226/163/434 227/164/434 228/165/434
f 229/167/435 230/166/435 223/168/435
f 231/169/436 230/166/436 225/161/436
f 229/167/437 225/161/437 230/166/437
f 231/169/438 225/161/438 232/170/438
f 232/170/439 233/171/439 231/169/439
f 229/167/440 226/163/440 225/161/440
f 232/170/441 225/161/441 224/162/441
f 233/173/442 224/172/442 231/174/442
f 224/172/443 233/173/443 232/175/443
f 231/174/444 224/172/444 230/176/444
f 226/177/445 230/176/445 224/172/445
f 220/178/446 230/176/446 226/177/446
f 220/178/447 223/179/447 230/176/447
f 223/168/448 222/180/448 229/167/448
f 234/181/449 226/163/449 228/165/449
f 235/183/450 236/182/450 226/177/450
f 237/185/451 235/184/451 238/186/451
f 234/181/452 228/165/452 239/187/452
f 240/188/453 239/187/453 228/165/453
f 241/190/454 238/189/454 234/191/454
f 241/190/455 234/191/455 237/192/455
f 236/194/456 235/193/456 239/187/456
f 239/187/457 240/188/457 236/194/457
f 238/186/458 241/195/458 237/185/458
f 221/196/459 228/165/459 222/180/459
f 226/177/460 236/182/460 220/178/460
f 219/197/461 220/178/461 236/182/461
f 219/198/462 240/188/462 221/196/462
f 227/164/463 226/163/463 229/167/463
f 240/188/464 228/165/464 221/196/464
f 236/194/465 240/188/465 219/198/465
f 222/180/466 227/164/466 229/167/466
f 227/164/467 222/180/467 228/165/467
f 226/177/468 238/199/468 235/183/468
f 226/163/469 234/181/469 238/200/469
f 237/192/470 234/191/470 239/201/470
f 235/202/471 237/192/471 239/201/471
f 242/204/472 243/203/472 244/205/472
f 245/207/473 246/206/473 242/208/473
f 242/208/474 246/206/474 247/209/474
f 248/211/475 246/210/475 245/212/475
f 249/213/476 248/211/476 245/212/476
f 244/215/477 248/214/477 249/216/477
f 244/215/478 243/217/478 248/214/478
f 248/211/479 250/218/479 246/219/479
f 243/221/480 251/220/480 250/222/480
f 246/224/481 252/223/481 247/225/481
f 251/227/482 252/226/482 246/219/482
f 251/227/483 253/228/483 252/226/483
f 243/221/484 253/229/484 251/220/484
f 246/219/485 250/218/485 251/227/485
f 250/222/486 248/214/486 243/221/486
f 242/204/487 247/209/487 243/203/487
f 253/228/488 157/230/488 154/231/488
f 3/3/489 157/232/489 253/229/489
f 253/228/490 154/231/490 252/226/490
f 252/223/491 154/233/491 159/234/491
f 247/225/492 252/223/492 159/234/492
f 159/234/493 160/235/493 247/225/493
f 247/225/494 160/235/494 243/236/494
f 243/221/495 3/3/495 253/229/495
f 160/235/496 3/237/496 243/236/496
f 254/239/497 255/238/497 256/240/497
f 254/242/498 257/241/498 255/243/498
f 258/245/499 259/244/499 257/246/499
f 256/248/500 259/247/500 258/249/500
f 256/240/501 255/238/501 242/208/501
f 242/250/502 259/247/502 256/248/502
f 259/247/503 242/250/503 244/251/503
f 242/208/504 255/238/504 245/252/504
f 255/243/505 249/253/505 245/254/505
f 255/243/506 257/241/506 249/253/506
f 257/246/507 259/244/507 249/255/507
f 249/255/508 259/244/508 244/256/508
f 260/258/509 256/257/509 258/259/509
f 261/260/510 256/257/510 260/258/510
f 258/259/511 262/261/511 260/258/511
f 263/263/512 254/262/512 261/260/512
f 263/265/513 261/264/513 262/266/513
f 260/267/514 262/266/514 261/264/514
f 263/263/515 257/268/515 254/262/515
f 261/260/516 254/262/516 256/257/516
f 262/261/517 258/259/517 257/268/517
f 264/269/518 257/268/518 263/263/518
f 262/261/519 257/268/519 264/269/519
f 265/270/520 263/265/520 266/271/520
f 262/266/521 266/271/521 263/265/521
f 264/269/522 263/263/522 265/272/522
f 266/273/523 264/269/523 265/272/523
f 264/269/524 266/273/524 262/261/524
f 157/275/525 3/274/525 17/276/525

o 
usemtl axe.001
s off

v 2.480340 70.316620 -43.393639
v 2.526120 73.077011 -36.611389
v 2.638000 78.459221 -45.988029
v 2.454550 78.184311 -42.660782
v 2.897050 80.575523 -45.798889
v 2.713590 80.300629 -42.471638
v 4.637150 87.936867 -41.818928
v 3.875940 84.104469 -35.625870
v 2.838060 70.852654 -49.881302
v 4.994870 88.472870 -48.306580
v 3.599270 74.685043 -56.074337
v 2.821460 78.734116 -49.315300
v 3.080520 80.850433 -49.126148
v 4.949090 85.712502 -55.088829
v 4.394690 77.939079 -42.574074
v 4.578150 78.213974 -45.901321
v 4.653740 80.055389 -42.384918
v 4.837200 80.330292 -45.712181
v 4.761610 78.488876 -49.228569
v 5.020660 80.605179 -49.039440
v 0.623840 75.441162 -9.458710
v 0.882890 77.557465 -9.269580
v 2.823040 77.312241 -9.182860
v 0.792140 75.593071 -9.705971
v 4.307400 80.248550 -56.184040
v -1.001210 74.704254 25.349022
v 0.838300 74.416809 25.276850
v 0.680520 72.343178 25.245720
v -1.259780 72.587807 25.160648

vt 0.033358 0.643728
vt 0.190411 0.923560
vt 0.402692 0.503812
vt 0.402692 0.647326
vt 0.408249 0.287497
vt 0.408249 0.367848
vt 0.492649 0.287497
vt 0.492649 0.367848
vt 0.403043 0.503812
vt 0.403044 0.647326
vt 0.033710 0.643728
vt 0.190763 0.923560
vt 0.033358 0.363896
vt 0.033710 0.363896
vt 0.190411 0.084064
vt 0.402692 0.360297
vt 0.408249 0.207147
vt 0.492649 0.207147
vt 0.403043 0.360297
vt 0.190763 0.084064
vt 0.408248 1.036942
vt 0.492649 1.036942
vt 0.483600 0.371280
vt 0.402049 0.371280
vt 0.402049 1.040375
vt 0.483600 1.040375
vt 0.450449 0.037941
vt 0.483600 0.210579
vt 0.402049 0.210579
vt 0.442825 0.041374
vt 0.000000 1.000000

vn -0.999818 0.019041 -0.001001
vn -0.994238 -0.087419 -0.062042
vn -0.991132 0.125280 -0.044298
vn -0.968507 0.246787 -0.033012
vn -0.969872 0.241714 0.030367
vn -0.998490 0.001841 -0.054903
vn -0.992981 0.006390 -0.118097
vn -0.942865 0.332269 -0.024536
vn -0.969327 0.229859 -0.087010
vn 0.942866 -0.332267 0.024537
vn 0.969327 -0.229859 0.087010
vn 0.991132 -0.125280 0.044300
vn 0.992982 -0.006391 0.118096
vn 0.998490 -0.001841 0.054904
vn 0.968507 -0.246787 0.033012
vn 0.969872 -0.241714 -0.030366
vn 0.999818 -0.019041 0.001001
vn 0.994238 0.087419 0.062042
vn 0.067666 0.762740 0.643156
vn -0.130610 -0.857054 0.498397
vn -0.067671 -0.762739 -0.643157
vn 0.130607 0.857055 -0.498396
vn 0.643625 -0.765175 0.015930
vn -0.121268 -0.989069 -0.083888
vn 0.647427 -0.761640 -0.027228
vn 0.121025 0.988709 0.088360
vn -0.974139 0.135408 -0.180883
vn 0.989247 -0.112768 -0.093130
vn 0.127900 0.989836 -0.062178
vn -0.111399 -0.965128 -0.236893
vn 0.138648 0.986258 0.089841
vn -0.050569 -0.994772 -0.088718
vn 0.867123 -0.497772 -0.017881
vn -0.991184 0.125103 -0.043626
vn -0.045252 -0.011549 0.998909
vn 0.024743 -0.091624 0.995486

f 267/277/526 268/278/526 269/279/526
f 270/280/527 269/279/527 268/278/527
f 269/281/528 270/282/528 271/283/528
f 272/284/528 271/283/528 270/282/528
f 271/285/529 272/286/529 273/287/529
f 274/288/530 273/287/530 272/286/530
f 275/289/531 267/277/531 269/279/531
f 273/287/529 276/290/529 271/285/529
f 277/291/532 275/289/532 278/292/532
f 269/279/531 278/292/531 275/289/531
f 278/293/528 269/281/528 279/294/528
f 271/283/528 279/294/528 269/281/528
f 279/295/533 271/285/533 280/296/533
f 276/290/534 280/296/534 271/285/534
f 281/280/535 268/278/535 282/279/535
f 267/277/536 282/279/536 268/278/536
f 283/284/537 281/282/537 284/283/537
f 282/281/537 284/283/537 281/282/537
f 274/288/538 283/286/538 273/287/538
f 284/285/539 273/287/539 283/286/539
f 282/279/540 267/277/540 275/289/540
f 273/287/539 284/285/539 276/290/539
f 282/279/540 275/289/540 285/292/540
f 277/291/541 285/292/541 275/289/541
f 284/283/537 282/281/537 286/294/537
f 285/293/537 286/294/537 282/281/537
f 276/290/542 284/285/542 280/296/542
f 286/295/543 280/296/543 284/285/543
f 270/280/544 268/278/544 281/280/544
f 283/286/545 274/288/545 272/286/545
f 279/295/546 280/296/546 286/295/546
f 285/292/547 277/291/547 278/292/547
f 272/284/528 270/282/528 287/297/528
f 287/297/528 288/298/528 272/284/528
f 281/282/537 283/284/537 289/298/537
f 289/298/548 290/297/548 281/282/548
f 270/299/549 281/300/549 290/301/549
f 290/301/550 287/302/550 270/299/550
f 283/300/551 272/299/551 288/302/551
f 288/302/551 289/301/551 283/300/551
f 278/293/552 279/294/552 291/303/552
f 286/294/553 285/293/553 291/303/553
f 279/304/554 286/305/554 291/306/554
f 285/305/555 278/304/555 291/306/555
f 289/298/556 288/297/556 292/298/556 293/307/556
f 287/297/557 290/298/557 294/297/557 295/307/557
f 290/297/558 289/298/558 293/297/558 294/307/558
f 288/298/559 287/297/559 295/298/559 292/307/559
f 294/297/560 293/298/560 295/297/560
f 292/298/561 295/297/561 293/298/561

