mtllib anim_barb_attack_000067.mtl

o fat
usemtl fat.001
s off

v -0.137810 38.707630 -3.609700
v 1.860240 36.144421 6.136090
v 0.318890 37.897259 1.509700
v 0.410170 61.274956 -7.690740
v 9.299520 66.985992 -5.330540
v 2.812830 57.445141 -7.231300
v -0.362600 52.956650 -5.768210
v 7.890250 62.579422 -1.691930
v 7.702180 57.890018 -1.469130
v 6.919220 52.534069 -1.715090
v 4.142630 52.853569 -5.828980
v 6.403020 58.235203 -6.433490
v 9.003679 37.503830 4.882100
v 9.352560 39.503929 -1.692810
v 10.561490 39.008938 -2.167630
v 6.412290 38.411011 4.749200
v 3.993900 37.038410 7.078080
v 4.408740 37.296768 -6.691820
v 3.744780 39.182671 -5.718980
v 0.502520 38.465221 -4.570250
v -0.321370 36.005028 -5.193140
v 0.201120 66.808472 -6.719010
v 0.170300 68.820747 -6.327790
v 0.128960 57.562378 5.834340
v 5.379790 57.914612 3.462610
v 6.255160 61.753403 5.364980
v 8.980730 62.053902 2.936630
v 6.123870 64.490761 5.968860
v 11.318440 66.414856 1.829030
v 4.497020 52.921299 4.054040
v 1.102870 51.434879 4.186380
v 0.791740 63.974251 7.652330
v 4.825240 71.080368 -2.154610
v 10.748810 67.809509 -4.710190
v 11.536489 68.250259 -1.054590
v 2.905110 69.079590 6.215950
v 5.512380 71.259041 2.132560
v 0.171630 68.110214 6.709920
v 2.663080 75.115555 4.749920
v 3.279240 73.611870 0.982060
v 0.247260 73.954018 0.201580
v 0.175950 76.051842 3.701600
v 0.334850 72.383148 -2.044450
v 0.489180 48.023918 5.195420
v 5.364230 48.318821 5.032270
v 8.418850 47.967072 -0.145200
v 4.990360 47.376781 -5.349710
v -0.188040 47.525047 -6.923350
v 11.740921 65.812614 1.673420
v 9.619800 63.604279 -5.425560
v 13.230551 65.433250 -0.979620
v 12.270620 66.128029 -3.970330
v 9.061920 63.796410 3.251200
v 2.581520 73.242401 9.938810
v 1.180830 71.351921 11.254720
v 2.894370 69.374176 7.474410
v 1.639600 67.832253 9.238060
v 0.698310 70.037621 10.869070
v 1.643460 73.311501 11.539140
v -0.144470 73.121124 11.765560
v 3.177320 75.194069 7.633890
v 0.535690 76.971519 12.851380
v -0.763210 76.858223 13.101040
v 1.701340 74.393570 12.452499
v 2.256590 76.446068 11.913600
v 1.223440 78.929672 10.549541
v -0.414440 78.972260 10.359139
v 0.269850 71.231133 11.764700
v -0.765430 73.775330 12.224640
v -0.900690 71.526520 12.871980
v -0.835060 71.112610 12.119570
v -0.843340 69.573578 11.751180
v 0.535200 66.998001 10.664989
v -0.861440 66.854591 11.133690
v 3.025130 77.455505 8.227790
v 2.543030 78.796112 7.983550
v -0.045170 79.321068 6.905880
v 13.524409 63.649712 1.588680
v 13.964109 63.026810 -2.072330
v 8.875820 57.031559 0.026950
v 10.606910 58.870831 3.885260
v 10.346189 60.599854 -4.273740
v 11.417160 53.066200 1.356760
v 11.725830 48.612972 0.936980
v 11.618349 50.075897 3.967890
v 14.410020 52.283401 -0.376380
v 15.722370 54.745888 0.872530
v 15.015960 48.572613 1.142110
v 15.343241 54.859928 3.030100
v 16.386110 49.647423 3.679240
v 13.356629 53.210129 4.237660
v 14.804440 50.526360 5.632380
v 13.352990 54.908607 -1.369240
v 13.912279 53.734852 -1.012560
v 15.064321 59.703907 -0.958520
v 14.387819 60.304489 2.440300
v 12.665359 54.921078 3.981840
v 12.466980 57.017242 -3.121340
v 11.395840 42.806049 5.172770
v 11.464500 43.668907 6.859290
v 12.870911 42.452667 4.807480
v 14.050900 43.077431 6.145470
v 13.467810 43.844837 7.494000
v 14.307500 40.675602 11.544260
v 13.476800 40.373360 11.283831
v 13.463980 40.672497 10.005321
v 14.253310 40.954052 9.523870
v 14.256620 39.376659 8.901370
v 13.375830 42.705421 10.476060
v 14.257120 41.640583 10.273800
v 13.556431 41.234299 12.122450
v 14.010110 39.579269 12.480340
v 13.410200 40.064980 12.819090
v 13.769360 37.653778 10.237380
v 9.931590 39.145939 6.657400
v 9.735100 37.403160 7.557640
v 9.938740 34.996559 9.205590
v 13.301430 38.684410 10.857620
v 10.687500 37.116009 7.206840
v 11.078510 38.673431 6.097680
v 12.913150 35.811142 12.182240
v 3.921370 26.185110 -1.198410
v 7.434220 20.808929 -8.506750
v 5.166040 18.449890 -3.638710
v 9.747220 27.059219 -2.450370
v 12.371820 20.223278 -5.110280
v 6.138390 27.308189 -5.141020
v 8.111240 23.735481 0.515930
v 9.179430 18.210649 -0.614060
v 7.888700 25.797230 1.499530
v 7.954090 28.199999 1.182500
v 10.529190 30.861000 -3.020420
v 7.679530 32.626709 3.628150
v 11.956281 9.901800 -8.159890
v 13.255090 7.325690 -9.405420
v 10.040030 8.078210 -11.178711
v 11.152040 7.694950 -6.290250
v 8.469630 9.118620 -7.839390
v 8.442730 6.066220 -8.588039
v 9.486010 2.947110 -12.123050
v 12.465940 3.648030 -12.576651
v 10.414320 2.207980 -3.664610
v 16.308090 3.794920 -4.715940
v 13.266920 4.685120 -0.505690
v 16.005110 3.303100 -0.584200
v 12.284350 2.238850 0.716480
v -9.557470 65.505478 -4.240090
v -1.892230 57.418060 -7.388240
v -5.904450 62.662640 1.298900
v -7.318430 57.779549 -1.382650
v -4.956670 52.744408 -4.321510
v -6.374790 51.940113 0.235950
v -5.753590 58.098190 -6.616030
v -9.006149 39.099751 0.146540
v -7.268270 36.710312 6.381600
v -10.268280 38.568779 -0.103860
v -4.827410 37.753212 5.750550
v -5.057970 37.184540 -5.883400
v -4.554060 39.161522 -5.030830
v -1.041260 38.408360 -4.636830
v -4.829290 57.775951 3.777090
v -5.086390 61.460682 6.230160
v -10.126329 62.089790 4.594340
v -4.769800 64.157196 6.995630
v -10.256580 67.394508 4.230220
v -2.454760 51.313789 4.264170
v -11.433580 66.624535 -2.462990
v -4.955480 70.957344 -1.823620
v -11.569241 68.109558 1.657070
v -2.595220 69.052345 6.236890
v -5.927780 71.242897 2.219700
v -2.505460 75.247612 4.276130
v -2.831450 73.672562 0.751800
v -3.837170 47.914547 5.886670
v -7.887930 47.665840 1.273540
v -5.416080 47.271809 -4.335800
v -11.502410 66.607140 4.148280
v -9.513310 61.156559 -1.841560
v -13.196301 66.246078 1.910890
v -12.567640 63.410412 -0.563260
v -9.719640 63.598919 4.348360
v -2.612380 71.466660 10.860681
v -3.597380 73.429306 9.296950
v -3.200620 69.483292 7.141840
v -2.856860 67.968269 8.770960
v -2.140420 70.123482 10.574189
v -1.316860 73.156601 11.643790
v -3.005530 73.452141 11.056190
v -3.589360 75.398758 6.930960
v -1.974020 77.047440 12.590660
v -3.184930 74.541382 11.944920
v -3.493930 76.620033 11.316231
v -2.056070 79.028847 10.208891
v -1.834430 71.294777 11.546110
v -2.120930 67.078354 10.389060
v -3.427430 77.650673 7.557510
v -2.826160 78.958519 7.425790
v -12.683300 64.238808 4.872910
v -13.730070 62.379662 1.764650
v -9.118720 60.607990 8.011470
v -7.746520 57.652721 4.770370
v -10.318760 59.437889 -0.189700
v -8.044280 51.745537 7.514760
v -9.676260 54.203110 7.915180
v -9.363520 54.708488 9.380880
v -12.766319 52.762829 6.896180
v -14.109921 55.488781 7.389780
v -10.233621 50.140491 8.557990
v -13.546890 56.299282 9.350289
v -11.489640 50.738010 11.254710
v -10.525089 52.923489 12.822220
v -11.337110 55.243221 10.766211
v -12.055490 54.914707 4.904950
v -12.415690 53.984852 5.738570
v -14.259159 59.481888 3.958160
v -13.193049 61.261650 6.816070
v -10.514621 57.323990 8.987130
v -11.595921 56.282558 2.457010
v -3.459190 48.281906 12.818060
v -3.877730 48.905560 13.330160
v -4.947950 46.741291 11.975490
v -5.884650 47.054771 13.640570
v -5.431060 48.275509 14.605490
v -2.450700 45.737438 18.207870
v -3.373530 46.085922 18.876211
v -2.800680 45.672268 17.182091
v -4.039050 45.895920 16.954840
v -3.426730 44.386650 16.471260
v -4.172590 46.657490 17.615210
v -3.711970 47.810440 17.540489
v -2.876120 47.038620 19.112989
v -2.319020 45.483799 19.707880
v -1.974430 46.249542 19.781229
v -1.791850 43.419262 17.644810
v 0.408980 44.811890 13.397221
v -0.613390 46.070480 12.971020
v 1.572330 42.870697 14.493031
v -1.827130 44.330322 17.545370
v 0.146530 43.653160 13.750561
v -1.261460 44.570751 12.765240
v 0.083850 42.437283 18.599079
v -6.751060 18.992701 -6.805380
v -3.220660 25.671200 -0.209870
v -4.404820 17.654930 -2.192490
v -11.643810 19.130100 -3.577820
v -9.070810 26.510689 -1.511670
v -5.489470 27.207150 -4.007030
v -7.293360 23.157251 1.412530
v -8.375540 17.667801 0.827670
v -7.160360 25.066021 2.428910
v -6.552380 27.802259 2.366100
v -10.019031 30.340969 -1.216080
v -5.989530 32.196449 4.779080
v -12.424560 5.544640 -4.818830
v -11.149830 8.293590 -4.369460
v -9.261080 6.052440 -6.864600
v -10.279400 6.355640 -1.847260
v -7.592890 4.484470 -3.948410
v -7.645580 7.579480 -3.698780
v -8.567090 0.940710 -7.070260
v -11.577720 1.601200 -7.609660
v -9.320580 1.056950 1.358220
v -15.279690 2.364360 0.290570
v -12.191720 3.733120 4.333810
v -14.886820 2.270640 4.440610
v -11.112190 1.441240 5.756940

vt 0.550479 0.485338
vt 0.414517 0.485338
vt 0.489174 0.497239
vt 0.490853 0.675485
vt 0.356970 0.710738
vt 0.458986 0.602657
vt 0.458693 0.603155
vt 0.491001 0.506534
vt 0.357039 0.710738
vt 0.272881 0.708251
vt 0.307767 0.663467
vt 0.329118 0.504113
vt 0.420682 0.504388
vt 0.307693 0.663467
vt 0.420389 0.504181
vt 0.390374 0.619683
vt 0.389206 0.622726
vt 0.390855 0.620128
vt 0.309151 0.663075
vt 0.578845 0.971377
vt 0.529882 0.993867
vt 0.501054 0.950636
vt 0.597833 0.993868
vt 0.684209 0.993870
vt 0.691613 0.940228
vt 0.584242 0.936155
vt 0.602549 0.993867
vt 0.689094 0.993870
vt 0.694409 0.971380
vt 0.730001 0.975635
vt 0.490853 0.781888
vt 0.490853 0.820915
vt 0.240556 0.660920
vt 0.133663 0.660928
vt 0.131880 0.753091
vt 0.060606 0.782384
vt 0.055577 0.663688
vt 0.136145 0.808744
vt 0.060014 0.783494
vt 0.058190 0.859642
vt 0.160773 0.512959
vt 0.067037 0.515196
vt 0.240700 0.512959
vt 0.131877 0.752996
vt 0.240556 0.781375
vt 0.390182 0.870896
vt 0.298691 0.847983
vt 0.294173 0.886121
vt 0.181129 0.899551
vt 0.052544 0.886601
vt 0.145152 0.921474
vt 0.235241 0.891030
vt 0.142740 0.921054
vt 0.172936 0.966074
vt 0.456563 0.999059
vt 0.389917 0.922986
vt 0.429989 0.941889
vt 0.491140 0.942697
vt 0.490646 0.999330
vt 0.490853 0.898039
vt 0.701416 0.118225
vt 0.813217 0.120956
vt 0.790107 0.184348
vt 0.877923 0.002315
vt 0.872775 0.120438
vt 0.505869 0.118716
vt 0.564263 0.119120
vt 0.507564 0.183764
vt 0.697589 0.180917
vt 0.580429 0.182675
vt 0.710756 0.001536
vt 0.701372 0.182427
vt 0.812168 0.002315
vt 0.857243 0.184348
vt 0.697567 0.116528
vt 0.503935 0.000692
vt 0.561277 0.000692
vt 0.688827 -0.000098
vt 0.002866 0.854679
vt 0.027518 0.706813
vt 0.061197 0.782654
vt 0.055608 0.663958
vt 0.251604 0.781884
vt 0.357109 0.710738
vt 0.243886 0.876138
vt 0.247300 0.848527
vt -0.000514 0.880403
vt 0.006948 0.782948
vt 0.674684 0.829607
vt 0.705811 0.784366
vt 0.654033 0.662928
vt 0.703232 0.671848
vt 0.720473 0.730776
vt 0.697736 0.853617
vt 0.729837 0.853035
vt 0.623758 0.856571
vt 0.587609 0.811448
vt 0.658187 0.605708
vt 0.748523 0.593788
vt 0.716351 0.931575
vt 0.747491 0.935506
vt 0.695349 0.885675
vt 0.676247 0.904603
vt 0.649719 0.961956
vt 0.745560 1.001324
vt 0.725611 0.781438
vt 0.747491 0.878462
vt 0.747491 0.808438
vt 0.720379 0.731031
vt 0.747491 0.790807
vt 0.720762 0.730332
vt 0.748639 0.732530
vt 0.746944 0.628012
vt 0.703659 0.671442
vt 0.731857 0.666086
vt 0.747085 0.666819
vt 0.703186 0.671176
vt 0.611291 0.885598
vt 0.604148 0.909350
vt 0.550618 0.823662
vt 0.550618 0.934468
vt 0.625864 0.557513
vt 0.571978 0.557920
vt 0.578607 0.510287
vt 0.669444 0.510287
vt 0.756032 0.560223
vt 0.679695 0.557918
vt 0.877240 0.461159
vt 0.992418 0.461159
vt 0.944262 0.560223
vt 0.756457 0.510287
vt 0.806202 0.560223
vt 0.498275 0.560223
vt 0.875566 0.382888
vt 0.758260 0.308662
vt 0.875912 0.308662
vt 0.759996 0.360654
vt 0.669163 0.382888
vt 0.671223 0.308662
vt 0.584325 0.382888
vt 0.577057 0.308662
vt 0.498223 0.363687
vt 0.498247 0.308662
vt 0.992597 0.308662
vt 0.992439 0.363687
vt 0.759483 0.410364
vt 0.758924 0.382888
vt 0.665903 0.461159
vt 0.580075 0.461159
vt 0.498223 0.402657
vt 0.992438 0.402657
vt 0.760539 0.449273
vt 0.498220 0.461159
vt 0.875438 0.575163
vt 0.762705 0.196431
vt 0.858161 0.196355
vt 0.690657 0.196417
vt 0.588027 0.196417
vt 0.498144 0.196431
vt 0.991918 0.196431
vt 0.375723 0.009258
vt 0.380090 0.017573
vt 0.356438 0.030356
vt 0.342839 0.029458
vt 0.369327 0.043627
vt 0.316032 0.012201
vt 0.336848 0.019568
vt 0.249292 0.041099
vt 0.371147 0.002582
vt 0.416197 0.004791
vt 0.408124 0.000758
vt 0.128136 0.016613
vt 0.154876 0.002573
vt 0.119423 0.002194
vt 0.160447 0.001473
vt 0.065726 0.014292
vt 0.105093 0.028910
vt 0.000825 0.069213
vt 0.000703 0.039244
vt 0.249314 0.055441
vt 0.429228 0.045736
vt 0.102506 0.115410
vt 0.153549 0.117195
vt 0.189513 0.114692
vt 0.228429 0.109580
vt 0.194639 0.033982
vt 0.406548 0.108121
vt 0.355355 0.108206
vt 0.448349 0.035630
vt 0.498209 0.039288
vt 0.461840 0.047992
vt 0.483032 0.114221
vt 0.406174 0.120334
vt 0.355217 0.119080
vt 0.243215 0.037501
vt 0.249314 0.089732
vt 0.000703 0.095058
vt 0.249292 0.105039
vt 0.160984 0.032072
vt 0.413806 0.033644
vt 0.442212 0.108407
vt 0.443088 0.117732
vt 0.023914 0.327327
vt 0.104127 0.227894
vt 0.000784 0.227894
vt 0.216171 0.327327
vt 0.216985 0.228421
vt 0.105699 0.228145
vt 0.104981 0.327662
vt 0.217575 0.327327
vt 0.351490 0.301452
vt 0.217290 0.227894
vt 0.351571 0.227894
vt 0.352420 0.301452
vt 0.489174 0.227894
vt 0.352342 0.227894
vt 0.471690 0.333380
vt 0.351597 0.328057
vt 0.217345 0.328075
vt 0.352312 0.363299
vt 0.470864 0.334174
vt 0.352330 0.328057
vt 0.216660 0.380224
vt 0.216104 0.328075
vt 0.104983 0.328371
vt 0.217232 0.380224
vt 0.351611 0.363299
vt 0.351459 0.420971
vt 0.352499 0.420971
vt 0.351589 0.497239
vt 0.229465 0.497239
vt 0.352627 0.497239
vt 0.229583 0.497239
vt 0.133020 0.497239
vt 0.072972 0.497239
vt 0.025422 0.328212
vt 0.002386 0.497239
vt 0.216130 0.152222
vt 0.223982 0.125749
vt 0.105883 0.155747
vt 0.351732 0.147623
vt 0.223132 0.128232
vt 0.218721 0.149411
vt 0.469070 0.149411
vt 0.483427 0.127273
vt 0.352306 0.146326
vt 0.017963 0.152222
vt 0.104256 0.155747
vt 0.009616 0.131504
vt 0.104128 0.227914
vt 0.000790 0.227921
vt 0.216984 0.228396
vt 0.351571 0.227971
vt 0.217291 0.227882
vt 0.352342 0.227879
vt 0.489111 0.227891
vt 0.948232 0.041698
vt 0.989968 0.003451
vt 0.971575 0.059997
vt 0.909211 0.004273
vt 0.996004 0.120663
vt 0.925604 0.058708
vt 0.885225 0.122889
vt 0.516483 0.798440
vt 0.501430 0.685191
vt 0.597947 0.686709
vt 0.594444 0.793024
vt 0.950876 0.082499
vt 0.943924 0.157220
vt 0.507177 0.624822
vt 0.600053 0.622523
vt 0.901715 0.182549
vt 0.982420 0.184037
vt 0.730212 0.975635
vt 0.685579 0.991654
vt 0.692830 0.969164

vn -0.669579 -0.740513 -0.057485
vn 0.237078 0.032251 -0.970955
vn -0.149138 -0.209493 -0.966370
vn 0.940840 -0.021666 0.338157
vn 0.821767 -0.094323 -0.561963
vn -0.019677 -0.297245 -0.954598
vn 0.256481 -0.213615 -0.942648
vn 0.925714 -0.273478 -0.261272
vn 0.204978 0.055320 -0.977202
vn 0.880066 -0.398630 -0.258028
vn -0.456112 -0.844373 -0.281062
vn -0.302631 -0.907261 -0.292049
vn -0.219688 -0.723433 -0.654509
vn -0.143646 -0.844985 0.515137
vn -0.474436 -0.529712 0.703076
vn 0.367428 -0.342025 0.864879
vn 0.378186 -0.315751 0.870216
vn 0.948315 -0.317328 -0.001003
vn 0.144440 0.190969 -0.970911
vn 0.387873 -0.478765 0.787616
vn 0.729130 -0.590296 0.346296
vn 0.650824 -0.160401 0.742091
vn 0.409398 0.035605 0.911661
vn 0.913120 -0.115106 0.391105
vn 0.140917 -0.236177 0.961438
vn 0.267692 -0.288337 0.919349
vn -0.006227 0.608639 -0.793423
vn 0.145127 0.176448 -0.973552
vn 0.619117 -0.457489 0.638278
vn 0.408093 0.891773 -0.195452
vn 0.312288 -0.190343 0.930723
vn 0.217907 0.735630 -0.641377
vn 0.667539 -0.129726 0.733187
vn 0.515657 0.318879 0.795244
vn 0.580438 0.666364 0.468028
vn 0.269051 0.252140 0.929536
vn 0.157735 0.057560 0.985802
vn 0.784428 0.175908 0.594752
vn 0.750827 0.646508 -0.135226
vn 0.473774 0.759581 -0.445618
vn 0.190748 0.922059 -0.336783
vn 0.513896 0.576109 0.635617
vn 0.400699 0.910496 -0.102169
vn 0.752372 0.642048 -0.147347
vn 0.221458 0.809319 -0.544021
vn 0.232349 0.801268 -0.551348
vn 0.201882 0.749187 -0.630843
vn 0.019913 0.211446 0.977187
vn 0.860315 0.092602 0.501281
vn 0.828071 0.081228 -0.554707
vn -0.015481 -0.089542 -0.995863
vn 0.022304 0.175781 0.984177
vn -0.093396 0.297846 0.950034
vn 0.914484 0.304034 0.266989
vn 0.796283 0.413306 0.441715
vn 0.899432 0.246223 0.361105
vn 0.829091 0.079908 -0.553375
vn 0.289844 0.207991 -0.934200
vn 0.777565 0.309549 -0.547332
vn 0.577105 0.074977 -0.813221
vn 0.291875 0.109666 -0.950149
vn -0.264039 -0.140265 -0.954258
vn 0.389398 0.118357 0.913434
vn 0.804769 0.471316 0.360844
vn 0.970846 -0.050073 -0.234415
vn 0.363509 0.060548 -0.929621
vn 0.382357 0.029596 0.923540
vn 0.848465 0.506121 -0.154753
vn 0.790237 0.485185 0.374326
vn 0.461116 0.027080 -0.886927
vn 0.769911 0.592383 -0.237317
vn -0.897205 -0.072735 -0.435583
vn 0.973246 -0.003872 -0.229735
vn -0.591862 0.169822 -0.787946
vn 0.822767 -0.256571 0.507175
vn 0.449119 -0.399397 0.799234
vn 0.142008 -0.174936 0.974285
vn 0.976795 -0.053174 0.207469
vn 0.984482 -0.003140 -0.175457
vn 0.998594 -0.049098 0.020012
vn 0.360740 -0.907430 0.215494
vn 0.193735 -0.063875 0.978972
vn 0.911170 -0.145259 0.385575
vn 0.974672 -0.037089 0.220540
vn -0.054130 0.768488 0.637571
vn 0.475326 0.103803 0.873665
vn 0.684976 0.149834 0.712992
vn 0.699333 0.158570 0.696985
vn 0.486843 -0.405711 0.773552
vn 0.313347 -0.495456 0.810146
vn 0.049241 0.787941 0.613779
vn -0.020319 -0.273374 0.961693
vn 0.245443 -0.840172 0.483600
vn 0.531248 -0.199928 0.823288
vn 0.474289 -0.801796 -0.363555
vn 0.864976 -0.159810 0.475685
vn 0.007760 -0.962445 -0.271367
vn 0.513966 -0.084892 0.853599
vn 0.810867 -0.082415 0.579399
vn 0.317126 -0.904974 -0.283643
vn 0.330399 -0.211116 0.919928
vn 0.977702 0.112387 -0.177394
vn 0.917814 0.278511 -0.282930
vn 0.767696 -0.436821 0.468861
vn 0.163226 -0.641454 0.749596
vn 0.826306 -0.267051 0.495885
vn 0.056784 -0.536818 0.841785
vn 0.520853 0.567102 0.638049
vn 0.978250 0.011444 0.207112
vn 0.884046 0.369952 0.285653
vn 0.769132 0.522258 0.368352
vn 0.497932 0.091715 0.862353
vn 0.491996 0.583615 -0.646013
vn 0.399782 0.655254 -0.640950
vn 0.151109 0.981767 0.115325
vn 0.030215 0.998879 -0.036451
vn 0.894171 -0.150086 0.421821
vn 0.735135 0.593331 0.327924
vn 0.589257 -0.162585 -0.791418
vn 0.906351 0.369413 -0.205092
vn -0.852559 -0.205565 0.480506
vn 0.962675 0.261128 0.071191
vn 0.589567 -0.160909 -0.791530
vn -0.798087 -0.374054 -0.472378
vn 0.345279 0.249261 0.904794
vn -0.997618 -0.068950 -0.002095
vn -0.491133 0.047946 -0.869764
vn 0.823637 -0.534741 0.188877
vn 0.061529 -0.050571 -0.996823
vn 0.978591 -0.104230 0.177471
vn 0.854938 0.107861 -0.507392
vn 0.741872 0.577398 0.340936
vn 0.389761 0.190194 0.901062
vn -0.475575 0.189827 0.858950
vn -0.774032 0.386095 0.501801
vn -0.472582 -0.537169 -0.698653
vn -0.538672 -0.469294 -0.699711
vn 0.687114 0.109128 -0.718307
vn 0.669929 -0.177333 -0.720936
vn 0.969162 0.187629 0.159749
vn 0.969095 0.187433 0.160386
vn 0.328064 0.267988 0.905846
vn -0.760473 -0.383515 0.524020
vn -0.795701 -0.303717 -0.524039
vn -0.491214 -0.669448 -0.557268
vn 0.745449 -0.211903 -0.631984
vn 0.561082 -0.090038 -0.822849
vn 0.941944 0.330926 0.056826
vn 0.949642 0.280602 0.139435
vn 0.346601 0.225912 0.910402
vn 0.240411 0.297288 0.924025
vn -0.963399 -0.093281 0.251320
vn 0.732814 -0.046247 -0.678856
vn -0.529651 -0.486257 -0.694999
vn -0.799521 -0.240750 0.550278
vn 0.333839 0.159229 0.929084
vn -0.763665 -0.297218 0.573130
vn 0.292677 0.175515 0.939965
vn 0.583654 0.085773 -0.807460
vn -0.558322 -0.534581 -0.634429
vn -0.999142 0.034406 0.023076
vn -0.998659 0.022868 -0.046450
vn -0.322300 -0.545846 -0.773418
vn 0.046534 -0.525213 -0.849697
vn 0.849258 -0.456522 -0.265234
vn 0.764210 -0.446381 -0.465540
vn 0.877464 -0.139633 0.458867
vn 0.780906 0.017752 0.624396
vn -0.473696 0.323039 0.819303
vn -0.308696 0.397400 0.864164
vn 0.392398 -0.894727 -0.213277
vn 0.572450 -0.299949 0.763107
vn 0.768842 0.589055 0.248790
vn 0.726376 0.550178 0.411925
vn 0.745850 0.544365 0.383894
vn 0.717509 0.329401 0.613739
vn 0.651247 0.326641 0.684970
vn 0.757074 -0.505459 -0.413945
vn 0.432424 -0.650459 -0.624430
vn -0.993499 0.111964 -0.020607
vn -0.676946 -0.715398 -0.173060
vn -0.994725 -0.007636 0.102292
vn -0.999062 -0.043296 -0.000114
vn -0.890370 -0.138989 0.433501
vn -0.190111 0.919037 0.345296
vn 0.878982 0.462282 0.116989
vn 0.869503 0.124701 0.477927
vn -0.717341 0.381888 0.582738
vn -0.699810 0.362336 0.615612
vn 0.619083 -0.583050 -0.526107
vn 0.616469 -0.553555 -0.559949
vn 0.869800 0.104740 0.482160
vn 0.592603 -0.698593 -0.400985
vn -0.418329 -0.379178 -0.825364
vn -0.529751 -0.399742 -0.748044
vn -0.705341 0.373166 0.602694
vn 0.777850 -0.346968 -0.523988
vn -0.719107 0.214212 0.661058
vn -0.937636 0.323464 -0.127317
vn -0.278536 -0.189343 -0.941577
vn 0.559149 -0.612930 0.558273
vn 0.632107 -0.501465 -0.590740
vn -0.484256 -0.155512 -0.860995
vn 0.998665 0.035469 -0.037539
vn 0.998688 0.020597 -0.046888
vn -0.702370 0.328210 0.631629
vn 0.880372 0.124247 0.457721
vn 0.584006 -0.656529 -0.477396
vn -0.429309 -0.534729 -0.727845
vn -0.904348 -0.010916 -0.426657
vn 0.535848 0.476851 -0.696764
vn 0.548725 0.468107 -0.692659
vn 0.821636 0.096893 0.561718
vn 0.807270 0.035590 0.589108
vn -0.589757 -0.269715 0.761210
vn -0.516970 -0.332086 0.788962
vn 0.912014 -0.092224 0.399657
vn -0.549679 0.123959 0.826128
vn 0.570455 -0.235323 -0.786895
vn 0.877064 -0.110296 0.467540
vn 0.885527 -0.181381 0.427719
vn -0.255926 -0.479590 0.839342
vn 0.900281 0.032774 0.434073
vn -0.540124 -0.409152 0.735432
vn -0.877904 0.070250 -0.473655
vn 0.896452 0.113370 0.428393
vn -0.435649 -0.262322 0.861044
vn 0.923406 0.067677 0.377810
vn 0.563868 0.199852 -0.801319
vn 0.409382 0.038154 -0.911565
vn -0.310554 -0.108563 -0.944336
vn -0.765845 -0.359588 -0.533083
vn -0.473756 -0.334123 0.814811
vn -0.957866 -0.281848 -0.055259
vn 0.495487 0.567682 -0.657442
vn 0.827141 0.155982 0.539914
vn -0.565179 -0.191810 0.802360
vn -0.883754 0.118800 -0.452621
vn 0.724695 0.280440 -0.629421
vn -0.912098 -0.103431 -0.396712
vn -0.881166 -0.104369 -0.461143
vn 0.570827 0.211433 -0.793380
vn 0.838505 -0.185173 0.512465
vn 0.928819 -0.025305 0.369668
vn -0.614432 -0.460905 0.640343
vn -0.540974 -0.496968 0.678506
vn -0.892724 0.172967 -0.416085
vn -0.192803 0.197703 -0.961114
vn -0.920697 -0.384405 0.067456
vn 0.881484 0.185358 -0.434315
vn 0.241977 -0.965090 -0.100239
vn 0.211994 -0.971269 -0.108140
vn 0.529963 0.806474 0.262182
vn 0.505182 0.498851 -0.704229
vn -0.720350 0.375816 0.582974
vn 0.544183 0.809058 0.222013
vn -0.814845 0.335697 0.472584
vn 0.242162 -0.965360 -0.097152
vn 0.242646 -0.965276 -0.096769
vn 0.449418 0.882596 0.138014
vn 0.211465 0.367531 0.905651
vn -0.802186 0.491544 0.338943
vn 0.236845 -0.924428 -0.298893
vn -0.288396 0.097449 -0.952539
vn 0.281379 -0.240825 -0.928886
vn -0.844954 -0.047857 0.532694
vn -0.914599 -0.238340 -0.326654
vn -0.257283 -0.406544 -0.876657
vn -0.247961 -0.412571 -0.876528
vn -0.886403 -0.363090 -0.287152
vn -0.151635 0.230442 -0.961199
vn -0.920200 -0.261727 -0.291086
vn 0.421365 -0.801377 -0.424554
vn 0.267134 -0.872620 -0.408868
vn 0.066298 -0.625546 -0.777365
vn 0.269894 -0.852580 0.447510
vn 0.687734 -0.428130 0.586282
vn -0.206127 -0.278855 0.937951
vn -0.178351 -0.350967 0.919246
vn -0.930261 -0.320138 0.179236
vn -0.264702 0.180123 -0.947359
vn -0.342916 -0.537025 0.770722
vn -0.580068 -0.765188 0.279299
vn -0.425037 0.051595 0.903704
vn -0.384886 -0.072073 0.920146
vn -0.716546 -0.213238 0.664147
vn 0.029817 -0.255180 0.966434
vn -0.121005 -0.259180 0.958219
vn -0.330400 0.601340 -0.727479
vn -0.262813 0.157243 -0.951947
vn -0.320028 -0.540391 0.778177
vn -0.508026 0.804840 -0.306824
vn -0.121660 -0.257810 0.958506
vn -0.360134 0.614940 -0.701536
vn -0.325997 -0.222549 0.918803
vn -0.298779 0.274398 0.914023
vn -0.467498 0.760921 0.449940
vn -0.108097 0.205426 0.972685
vn -0.100146 0.195694 0.975538
vn -0.684135 0.229068 0.692450
vn -0.668415 0.700133 -0.251067
vn -0.345022 0.801945 -0.487693
vn -0.152909 0.907431 -0.391393
vn -0.319125 0.695365 0.643915
vn -0.464963 0.868237 -0.173129
vn -0.663267 0.718250 -0.210222
vn -0.229848 0.758362 -0.609964
vn -0.175130 0.803577 -0.568854
vn -0.228649 0.752777 -0.617289
vn 0.136478 0.380979 0.914455
vn -0.750450 0.097384 0.653714
vn -0.887876 0.215662 -0.406406
vn -0.301417 0.027793 -0.953087
vn 0.148903 0.212993 0.965641
vn 0.011387 0.281768 0.959415
vn -0.839140 0.277633 0.467723
vn -0.701452 0.392704 0.594768
vn -0.564450 0.531157 0.631877
vn -0.955672 0.080966 -0.283083
vn -0.443618 0.172766 -0.879406
vn -0.868599 0.288299 -0.403014
vn -0.731106 0.078032 -0.677787
vn -0.445031 0.120345 -0.887392
vn 0.106196 -0.148888 -0.983135
vn -0.063441 0.063423 0.995968
vn -0.496232 0.737500 0.458090
vn -0.569416 0.516208 -0.639761
vn -0.745372 -0.327741 -0.580523
vn -0.106636 0.065483 0.992139
vn -0.608126 0.441066 -0.660033
vn -0.662845 0.633182 0.399647
vn -0.538867 -0.279555 -0.794651
vn -0.956533 0.262879 -0.126248
vn 0.694021 -0.342281 -0.633387
vn -0.618098 0.038595 -0.785153
vn -0.110263 -0.130874 -0.985248
vn -0.928924 -0.245017 0.277610
vn -0.626743 -0.366852 0.687468
vn -0.349276 -0.160071 0.923246
vn -0.995931 -0.067575 -0.059624
vn -0.922848 -0.104003 -0.370856
vn -0.844870 -0.074409 -0.529771
vn -0.346635 -0.915529 0.204084
vn -0.394118 -0.046082 0.917904
vn -0.977952 -0.088114 0.189333
vn -0.999624 0.022632 0.015451
vn -0.032097 0.767819 0.639862
vn -0.637535 0.137457 0.758060
vn -0.806571 0.194940 0.558069
vn -0.816797 0.204428 0.539493
vn -0.658689 -0.371058 0.654557
vn -0.502093 -0.470785 0.725440
vn -0.127033 0.793273 0.595467
vn -0.193987 -0.268121 0.943653
vn -0.389316 -0.820969 0.417663
vn -0.699975 -0.162688 0.695390
vn -0.368093 -0.718327 -0.590351
vn -0.983999 -0.035526 0.174594
vn -0.008324 -0.961454 -0.274841
vn -0.682440 -0.048707 0.729317
vn -0.916013 -0.030182 0.400012
vn -0.223375 -0.893414 -0.389762
vn -0.524298 -0.185261 0.831138
vn -0.908679 0.171278 -0.380744
vn -0.818594 0.328912 -0.470873
vn -0.872329 -0.387222 0.298498
vn -0.351756 -0.625883 0.696088
vn -0.924985 -0.214074 0.313966
vn -0.260432 -0.527206 0.808844
vn -0.605914 0.601184 0.521005
vn -0.997460 0.071205 0.001877
vn -0.900125 0.423924 0.100315
vn -0.795747 0.569593 0.205791
vn -0.658012 0.126686 0.742274
vn -0.334742 0.592784 -0.732499
vn -0.219666 0.675262 -0.704108
vn -0.112592 0.989743 0.087932
vn 0.037691 0.998653 -0.035668
vn -0.900395 -0.025108 0.434347
vn -0.725474 0.504854 0.467772
vn -0.631669 -0.541205 -0.555059
vn -0.909245 0.140348 -0.391887
vn 0.941390 0.319961 0.106817
vn -0.960437 0.123144 0.249792
vn -0.667022 -0.329593 -0.668169
vn 0.625016 -0.673017 -0.395478
vn 0.210487 0.188541 0.959243
vn 0.752098 0.556870 -0.352485
vn 0.182936 0.275257 -0.943805
vn -0.180395 -0.260650 0.948430
vn -0.190331 -0.339176 -0.921267
vn -0.776529 -0.471519 0.417939
vn -0.854544 -0.420508 -0.304839
vn -0.893999 0.078108 0.441208
vn -0.498379 0.110117 0.859938
vn 0.544971 0.654855 0.523615
vn 0.023730 0.943544 -0.330398
vn 0.445208 -0.726385 -0.523597
vn 0.488744 -0.679675 -0.546965
vn -0.775658 -0.227371 -0.588776
vn -0.734151 -0.458119 -0.501149
vn -0.953170 0.175840 0.246064
vn -0.963292 0.173364 0.204971
vn -0.141388 0.675021 0.724125
vn 0.826864 -0.194715 0.527618
vn 0.609693 -0.590534 -0.528719
vn 0.494242 -0.795095 -0.351494
vn -0.786804 -0.464004 -0.406988
vn -0.678054 -0.360893 -0.640312
vn -0.946929 0.285173 0.148328
vn -0.943725 0.278260 0.178759
vn 0.268726 0.767230 0.582361
vn -0.149852 0.558265 0.816017
vn 0.640916 0.263834 0.720846
vn -0.787410 -0.289571 -0.544182
vn 0.494697 -0.668268 -0.555601
vn 0.872703 0.068385 0.483439
vn -0.048066 0.457002 0.888166
vn 0.834200 0.035061 0.550347
vn -0.209231 0.359152 0.909523
vn -0.699166 -0.271720 -0.661313
vn 0.546163 -0.656985 -0.519690
vn 0.765279 0.628345 -0.139752
vn 0.776829 0.544789 -0.315819
vn 0.652781 -0.237363 -0.719400
vn 0.093918 -0.629454 -0.771341
vn -0.516558 -0.854719 -0.051211
vn -0.507231 -0.852725 -0.124803
vn -0.560717 -0.375125 0.738158
vn -0.553527 -0.310092 0.772949
vn 0.465239 0.711783 0.526231
vn 0.261812 0.699817 0.664613
vn -0.254169 -0.955855 0.147445
vn -0.233017 -0.381185 0.894651
vn -0.784369 0.346703 0.514357
vn -0.787174 0.273616 0.552713
vn -0.723448 0.328386 0.607278
vn -0.579614 0.101670 0.808524
vn -0.503930 0.145211 0.851450
vn -0.583051 -0.812434 0.001217
vn -0.422683 -0.898964 -0.114899
vn 0.753246 0.523381 -0.398363
vn 0.907274 -0.394268 -0.146311
vn 0.861855 0.447624 -0.238409
vn 0.852098 0.416332 -0.317171
vn 0.921870 0.382319 0.063149
vn -0.176897 0.950816 0.254276
vn -0.917138 0.026429 0.397694
vn -0.625316 -0.121686 0.770826
vn 0.642606 0.656039 0.395815
vn 0.651048 0.629544 0.424042
vn -0.364206 -0.901076 -0.235406
vn -0.386283 -0.882128 -0.269510
vn -0.417194 0.082627 0.905054
vn -0.359197 -0.905534 -0.225798
vn 0.030948 -0.297945 -0.954081
vn 0.521227 -0.109098 -0.846416
vn 0.586778 0.755104 0.292420
vn -0.607881 -0.769161 -0.197157
vn 0.627916 0.673603 0.389846
vn 0.576055 0.713744 -0.398409
vn 0.316821 0.200813 -0.926984
vn -0.249243 -0.659035 0.709613
vn -0.436381 -0.849279 -0.297148
vn 0.118775 0.084418 -0.989326
vn -0.845241 -0.426924 0.321410
vn -0.840605 -0.441551 0.313713
vn 0.670623 0.603346 0.431553
vn -0.227932 0.096919 0.968841
vn -0.369231 -0.898412 -0.237748
vn 0.282239 -0.337739 -0.897927
vn 0.889041 -0.018186 -0.457466
vn -0.499243 0.390566 -0.773443
vn -0.581160 0.340975 -0.738911
vn -0.790557 0.106794 0.603005
vn -0.785437 0.089592 0.612423
vn 0.592750 -0.199975 0.780165
vn 0.498197 -0.276817 0.821688
vn -0.910145 -0.143523 0.388635
vn 0.564580 -0.106661 0.818458
vn -0.560208 -0.075023 -0.824947
vn -0.776694 -0.237304 0.583466
vn -0.775004 -0.225013 0.590540
vn 0.317256 -0.487367 0.813525
vn -0.850794 0.200195 0.485872
vn 0.548295 -0.422499 0.721711
vn 0.864505 0.037964 -0.501188
vn -0.793262 0.059969 0.605921
vn 0.618549 -0.259050 0.741816
vn -0.831298 0.009675 0.555742
vn -0.746117 0.185752 -0.639379
vn -0.539248 -0.029882 -0.841617
vn 0.091469 -0.092075 -0.991542
vn 0.746167 -0.328864 -0.578863
vn 0.630951 -0.284199 0.721894
vn 0.943209 -0.240894 -0.228752
vn -0.545063 0.375305 -0.749701
vn -0.811311 0.293573 0.505558
vn 0.591160 -0.054838 0.804688
vn 0.878846 0.053203 -0.474131
vn -0.722892 0.143312 -0.675935
vn 0.908596 -0.174503 -0.379477
vn 0.848731 -0.199794 -0.489630
vn -0.549587 0.035922 -0.834664
vn -0.813004 -0.079201 0.576847
vn -0.925859 0.067927 0.371713
vn 0.635449 -0.277348 0.720613
vn 0.577039 -0.299216 0.759932
vn 0.889895 0.138305 -0.434694
vn 0.189821 0.065185 -0.979652
vn 0.937792 -0.335737 0.088467
vn -0.895566 0.112357 -0.430507
vn -0.213339 -0.976962 -0.005595
vn -0.562913 0.805173 0.186614
vn -0.541441 0.405104 -0.736704
vn 0.723175 0.448569 0.525171
vn -0.571502 0.803984 0.164304
vn 0.812408 0.402330 0.422046
vn -0.214012 -0.976829 -0.001799
vn -0.213988 -0.976835 -0.001818
vn -0.473964 0.878164 0.064699
vn -0.206453 0.444130 0.871852
vn 0.792513 0.544208 0.275248
vn -0.063668 -0.991785 -0.110949

f 1/1/1 2/2/1 3/3/1
f 4/4/2 5/5/2 6/6/2
f 4/4/3 6/7/3 7/8/3
f 5/9/4 8/10/4 9/11/4
f 10/12/5 11/13/5 9/14/5
f 6/6/6 11/15/6 7/8/6
f 6/6/7 12/16/7 11/13/7
f 12/17/8 5/5/8 9/14/8
f 6/6/9 5/5/9 12/17/9
f 11/13/10 12/18/10 9/19/10
f 13/20/11 14/21/11 15/22/11
f 14/21/12 13/20/12 16/23/12
f 16/24/13 13/20/13 17/25/13
f 15/22/14 14/21/14 18/26/14
f 14/21/15 19/27/15 18/26/15
f 18/26/16 20/28/16 21/29/16
f 18/26/17 19/27/17 20/28/17
f 20/28/18 3/30/18 21/29/18
f 5/9/19 22/31/19 23/32/19
f 24/33/20 25/34/20 26/35/20
f 27/36/21 25/34/21 9/37/21
f 28/38/22 27/39/22 29/40/22
f 30/41/23 25/34/23 24/33/23
f 25/34/24 30/41/24 10/42/24
f 30/41/25 24/33/25 31/43/25
f 24/33/26 26/44/26 32/45/26
f 33/46/27 34/47/27 5/9/27
f 4/4/28 22/31/28 5/9/28
f 26/35/29 25/34/29 27/39/29
f 33/46/30 35/48/30 34/47/30
f 32/45/31 26/35/31 28/38/31
f 23/32/32 33/46/32 5/9/32
f 26/35/33 27/39/33 28/38/33
f 28/38/34 29/40/34 36/49/34
f 35/50/35 37/51/35 29/40/35
f 28/38/36 38/52/36 32/45/36
f 36/49/37 38/52/37 28/38/37
f 36/49/38 37/53/38 39/54/38
f 39/55/39 37/56/39 40/57/39
f 41/58/40 42/59/40 39/55/40
f 39/55/41 40/57/41 41/58/41
f 36/49/42 29/40/42 37/51/42
f 37/56/43 35/48/43 33/46/43
f 37/56/44 33/46/44 40/57/44
f 40/57/45 33/46/45 43/60/45
f 40/57/46 43/60/46 41/58/46
f 33/46/47 23/32/47 43/60/47
f 44/61/48 45/62/48 30/63/48
f 15/64/49 46/65/49 45/62/49
f 46/66/50 47/67/50 10/68/50
f 47/67/51 7/69/51 11/70/51
f 45/62/52 44/61/52 17/71/52
f 44/61/53 30/63/53 31/72/53
f 13/73/54 15/64/54 45/62/54
f 46/65/55 10/74/55 45/62/55
f 45/62/56 10/74/56 30/63/56
f 47/67/57 11/70/57 10/68/57
f 47/67/58 48/75/58 7/69/58
f 46/66/59 15/76/59 47/67/59
f 18/77/60 47/67/60 15/76/60
f 47/67/61 18/77/61 48/75/61
f 18/77/62 21/78/62 48/75/62
f 13/73/63 45/62/63 17/71/63
f 49/79/64 35/50/64 29/40/64
f 8/80/65 27/81/65 9/82/65
f 34/47/66 50/83/66 5/84/66
f 27/36/67 49/79/67 29/40/67
f 35/48/68 51/85/68 52/86/68
f 35/50/69 49/79/69 51/87/69
f 52/86/70 50/83/70 34/47/70
f 35/48/71 52/86/71 34/47/71
f 5/84/72 50/83/72 8/10/72
f 53/88/73 27/81/73 8/80/73
f 53/88/74 49/79/74 27/36/74
f 54/89/75 55/90/75 56/91/75
f 57/92/76 55/90/76 58/93/76
f 59/94/77 60/95/77 55/90/77
f 61/96/78 54/89/78 56/91/78
f 39/97/79 61/96/79 36/98/79
f 36/98/80 61/96/80 56/91/80
f 36/98/81 56/91/81 38/99/81
f 62/100/82 63/101/82 64/102/82
f 65/103/83 64/102/83 54/89/83
f 61/96/84 65/103/84 54/89/84
f 66/104/85 67/105/85 62/100/85
f 55/90/86 60/95/86 68/106/86
f 69/107/87 68/106/87 60/95/87
f 69/107/88 70/108/88 68/106/88
f 58/109/89 55/90/89 68/106/89
f 68/106/90 71/110/90 58/111/90
f 62/100/91 67/105/91 63/101/91
f 64/102/92 63/101/92 69/107/92
f 70/108/93 71/110/93 68/106/93
f 58/111/94 71/110/94 72/112/94
f 56/91/95 57/92/95 38/113/95
f 55/90/96 57/114/96 56/91/96
f 73/115/97 74/116/97 38/113/97
f 58/109/98 72/112/98 73/115/98
f 57/117/99 58/111/99 73/115/99
f 57/92/100 73/115/100 38/113/100
f 73/115/101 72/112/101 74/116/101
f 39/97/102 75/118/102 61/96/102
f 75/118/103 39/97/103 76/119/103
f 64/102/104 59/94/104 54/89/104
f 64/102/105 60/95/105 59/94/105
f 54/89/106 59/94/106 55/90/106
f 64/102/107 69/107/107 60/95/107
f 65/103/108 66/104/108 62/100/108
f 65/103/109 61/96/109 75/118/109
f 75/118/110 76/119/110 65/103/110
f 66/104/111 65/103/111 76/119/111
f 62/100/112 64/102/112 65/103/112
f 39/97/113 42/120/113 76/119/113
f 77/121/114 76/119/114 42/120/114
f 67/105/115 76/119/115 77/121/115
f 66/104/116 76/119/116 67/105/116
f 9/82/117 25/34/117 10/42/117
f 51/122/118 49/123/118 78/124/118
f 79/125/119 50/126/119 52/127/119
f 52/127/120 51/122/120 79/125/120
f 80/128/121 81/129/121 53/130/121
f 51/122/122 78/124/122 79/125/122
f 82/131/123 50/126/123 79/125/123
f 50/126/124 82/131/124 8/132/124
f 53/133/125 78/124/125 49/123/125
f 83/134/126 84/135/126 85/136/126
f 84/135/127 83/134/127 86/137/127
f 86/137/128 87/138/128 84/135/128
f 88/139/129 84/135/129 87/138/129
f 87/138/130 89/140/130 88/139/130
f 90/141/131 88/139/131 89/140/131
f 91/142/132 92/143/132 90/141/132
f 90/141/133 89/140/133 91/142/133
f 85/136/134 92/144/134 91/145/134
f 91/145/135 83/134/135 85/136/135
f 80/128/136 93/146/136 83/134/136
f 94/147/137 83/134/137 93/146/137
f 93/146/138 87/138/138 94/147/138
f 87/138/139 93/146/139 95/148/139
f 95/148/140 96/149/140 87/138/140
f 89/140/141 87/138/141 96/149/141
f 97/150/142 91/142/142 89/140/142
f 97/151/143 81/129/143 80/128/143
f 8/132/144 82/131/144 80/128/144
f 93/146/145 80/128/145 98/152/145
f 98/152/146 95/148/146 93/146/146
f 95/148/147 82/131/147 79/125/147
f 79/125/148 78/124/148 95/148/148
f 96/149/149 95/148/149 78/124/149
f 78/124/150 53/133/150 81/153/150
f 81/153/151 96/149/151 78/124/151
f 80/128/152 53/130/152 8/154/152
f 94/147/153 87/138/153 86/137/153
f 86/137/154 83/134/154 94/147/154
f 97/151/155 83/134/155 91/145/155
f 89/140/156 96/149/156 97/150/156
f 80/128/157 83/134/157 97/151/157
f 81/153/158 97/150/158 96/149/158
f 82/131/159 95/148/159 98/152/159
f 98/152/160 80/128/160 82/131/160
f 85/136/161 99/155/161 100/156/161
f 99/155/162 85/136/162 84/135/162
f 84/135/163 101/157/163 99/155/163
f 101/157/164 84/135/164 88/139/164
f 88/139/165 90/141/165 101/157/165
f 102/158/166 101/157/166 90/141/166
f 90/141/167 103/159/167 102/158/167
f 103/159/168 90/141/168 92/143/168
f 92/144/169 85/136/169 103/160/169
f 100/156/170 103/160/170 85/136/170
f 104/161/171 105/162/171 106/163/171
f 107/164/172 106/163/172 108/165/172
f 109/166/173 110/167/173 103/168/173
f 109/166/174 111/169/174 104/161/174
f 104/161/175 110/167/175 109/166/175
f 104/161/176 111/169/176 112/170/176
f 113/171/177 112/170/177 111/169/177
f 106/163/178 110/167/178 104/161/178
f 104/161/179 112/170/179 105/162/179
f 105/172/180 113/173/180 111/174/180
f 113/173/181 105/172/181 112/175/181
f 105/172/182 111/174/182 109/176/182
f 109/176/183 106/177/183 105/172/183
f 109/176/184 100/178/184 106/177/184
f 103/179/185 100/178/185 109/176/185
f 102/180/186 103/168/186 110/167/186
f 106/163/187 114/181/187 108/165/187
f 115/182/188 116/183/188 106/177/188
f 116/184/189 117/185/189 118/186/189
f 108/165/190 114/181/190 119/187/190
f 119/187/191 120/188/191 108/165/191
f 118/189/192 121/190/192 114/191/192
f 114/191/193 121/190/193 117/192/193
f 116/193/194 115/194/194 119/187/194
f 120/188/195 119/187/195 115/194/195
f 121/195/196 118/186/196 117/185/196
f 108/165/197 101/196/197 102/180/197
f 115/182/198 106/177/198 100/178/198
f 100/178/199 99/197/199 115/182/199
f 120/188/200 99/198/200 101/196/200
f 106/163/201 107/164/201 110/167/201
f 108/165/202 120/188/202 101/196/202
f 120/188/203 115/194/203 99/198/203
f 107/164/204 102/180/204 110/167/204
f 102/180/205 107/164/205 108/165/205
f 118/199/206 106/177/206 116/183/206
f 114/181/207 106/163/207 118/200/207
f 114/191/208 117/192/208 119/201/208
f 117/192/209 116/202/209 119/201/209
f 122/203/210 123/204/210 124/205/210
f 125/206/211 126/207/211 123/208/211
f 125/206/212 123/208/212 127/209/212
f 125/210/213 128/211/213 126/212/213
f 128/211/214 129/213/214 126/212/214
f 128/214/215 124/215/215 129/216/215
f 122/217/216 124/215/216 128/214/216
f 130/218/217 128/211/217 125/219/217
f 131/220/218 122/221/218 130/222/218
f 132/223/219 125/224/219 127/225/219
f 132/226/220 131/227/220 125/219/220
f 133/228/221 131/227/221 132/226/221
f 133/229/222 122/221/222 131/220/222
f 130/218/223 125/219/223 131/227/223
f 128/214/224 130/222/224 122/221/224
f 127/209/225 123/204/225 122/203/225
f 16/230/226 133/228/226 14/231/226
f 16/232/227 3/3/227 133/229/227
f 14/231/228 133/228/228 132/226/228
f 14/233/229 132/223/229 19/234/229
f 132/223/230 127/225/230 19/234/230
f 20/235/231 19/234/231 127/225/231
f 20/235/232 127/225/232 122/236/232
f 3/3/233 122/221/233 133/229/233
f 3/237/234 20/235/234 122/236/234
f 134/238/235 135/239/235 136/240/235
f 137/241/236 135/242/236 134/243/236
f 138/244/237 139/245/237 137/246/237
f 138/247/238 136/248/238 139/249/238
f 134/238/239 136/240/239 123/208/239
f 138/247/240 123/250/240 136/248/240
f 123/250/241 138/247/241 124/251/241
f 134/238/242 123/208/242 126/252/242
f 129/253/243 134/243/243 126/254/243
f 137/241/244 134/243/244 129/253/244
f 138/244/245 137/246/245 129/255/245
f 138/244/246 129/255/246 124/256/246
f 136/257/247 140/258/247 139/259/247
f 136/257/248 141/260/248 140/258/248
f 142/261/249 139/259/249 140/258/249
f 135/262/250 143/263/250 141/260/250
f 141/264/251 143/265/251 142/266/251
f 142/266/252 140/267/252 141/264/252
f 137/268/253 143/263/253 135/262/253
f 135/262/254 141/260/254 136/257/254
f 139/259/255 142/261/255 137/268/255
f 137/268/256 144/269/256 143/263/256
f 137/268/257 142/261/257 144/269/257
f 143/265/258 145/270/258 146/271/258
f 146/271/259 142/266/259 143/265/259
f 143/263/260 144/269/260 145/272/260
f 144/269/261 146/273/261 145/272/261
f 146/273/262 144/269/262 142/261/262
f 3/274/263 16/275/263 17/276/263
f 147/5/264 4/4/264 148/6/264
f 148/7/265 4/4/265 7/8/265
f 149/10/266 147/9/266 150/11/266
f 151/13/267 152/12/267 150/14/267
f 151/15/268 148/6/268 7/8/268
f 153/16/269 148/6/269 151/13/269
f 147/5/270 153/17/270 150/14/270
f 147/5/271 148/6/271 153/17/271
f 153/18/272 151/13/272 150/19/272
f 154/21/273 155/20/273 156/22/273
f 155/20/274 154/21/274 157/23/274
f 155/20/275 157/24/275 17/25/275
f 154/21/276 156/22/276 158/26/276
f 159/27/277 154/21/277 158/26/277
f 160/28/278 158/26/278 21/29/278
f 159/27/279 158/26/279 160/28/279
f 3/30/280 160/28/280 21/29/280
f 22/31/281 147/9/281 23/32/281
f 161/34/282 24/33/282 162/35/282
f 161/34/283 163/36/283 150/37/283
f 163/39/284 164/38/284 165/40/284
f 161/34/285 166/41/285 24/33/285
f 166/41/286 161/34/286 152/42/286
f 24/33/287 166/41/287 31/43/287
f 162/44/288 24/33/288 32/45/288
f 167/47/289 168/46/289 147/9/289
f 22/31/290 4/4/290 147/9/290
f 161/34/291 162/35/291 163/39/291
f 169/48/292 168/46/292 167/47/292
f 162/35/293 32/45/293 164/38/293
f 168/46/294 23/32/294 147/9/294
f 163/39/295 162/35/295 164/38/295
f 165/40/296 164/38/296 170/49/296
f 171/51/297 169/50/297 165/40/297
f 38/52/298 164/38/298 32/45/298
f 38/52/299 170/49/299 164/38/299
f 171/53/300 170/49/300 172/54/300
f 171/56/301 172/55/301 173/57/301
f 42/59/302 41/58/302 172/55/302
f 173/57/303 172/55/303 41/58/303
f 165/40/304 170/49/304 171/51/304
f 169/48/305 171/56/305 168/46/305
f 168/46/306 171/56/306 173/57/306
f 168/46/307 173/57/307 43/60/307
f 43/60/308 173/57/308 41/58/308
f 23/32/309 168/46/309 43/60/309
f 174/62/310 44/61/310 166/63/310
f 175/65/311 156/64/311 174/62/311
f 176/67/312 175/66/312 152/68/312
f 7/69/313 176/67/313 151/70/313
f 44/61/314 174/62/314 17/71/314
f 166/63/315 44/61/315 31/72/315
f 156/64/316 155/73/316 174/62/316
f 152/74/317 175/65/317 174/62/317
f 152/74/318 174/62/318 166/63/318
f 151/70/319 176/67/319 152/68/319
f 48/75/320 176/67/320 7/69/320
f 156/76/321 175/66/321 176/67/321
f 176/67/322 158/77/322 156/76/322
f 158/77/323 176/67/323 48/75/323
f 21/78/324 158/77/324 48/75/324
f 174/62/325 155/73/325 17/71/325
f 169/50/326 177/79/326 165/40/326
f 163/81/327 149/80/327 150/82/327
f 178/83/328 167/47/328 147/84/328
f 177/79/329 163/36/329 165/40/329
f 179/85/330 169/48/330 180/86/330
f 177/79/331 169/50/331 179/87/331
f 178/83/332 180/86/332 167/47/332
f 180/86/333 169/48/333 167/47/333
f 178/83/334 147/84/334 149/10/334
f 163/81/335 181/88/335 149/80/335
f 177/79/336 181/88/336 163/36/336
f 182/90/337 183/89/337 184/91/337
f 182/90/338 185/92/338 186/93/338
f 187/95/339 188/94/339 182/90/339
f 183/89/340 189/96/340 184/91/340
f 189/96/341 172/97/341 170/98/341
f 189/96/342 170/98/342 184/91/342
f 184/91/343 170/98/343 38/99/343
f 63/101/344 190/100/344 191/102/344
f 191/102/345 192/103/345 183/89/345
f 192/103/346 189/96/346 183/89/346
f 67/105/347 193/104/347 190/100/347
f 187/95/348 182/90/348 194/106/348
f 194/106/349 69/107/349 187/95/349
f 70/108/350 69/107/350 194/106/350
f 182/90/351 186/109/351 194/106/351
f 71/110/352 194/106/352 186/111/352
f 67/105/353 190/100/353 63/101/353
f 63/101/354 191/102/354 69/107/354
f 71/110/355 70/108/355 194/106/355
f 71/110/356 186/111/356 72/112/356
f 185/92/357 184/91/357 38/113/357
f 185/114/358 182/90/358 184/91/358
f 74/116/359 195/115/359 38/113/359
f 72/112/360 186/109/360 195/115/360
f 186/111/361 185/117/361 195/115/361
f 195/115/362 185/92/362 38/113/362
f 72/112/363 195/115/363 74/116/363
f 196/118/364 172/97/364 189/96/364
f 172/97/365 196/118/365 197/119/365
f 188/94/366 191/102/366 183/89/366
f 187/95/367 191/102/367 188/94/367
f 188/94/368 183/89/368 182/90/368
f 69/107/369 191/102/369 187/95/369
f 193/104/370 192/103/370 190/100/370
f 189/96/371 192/103/371 196/118/371
f 197/119/372 196/118/372 192/103/372
f 192/103/373 193/104/373 197/119/373
f 191/102/374 190/100/374 192/103/374
f 42/120/375 172/97/375 197/119/375
f 197/119/376 77/121/376 42/120/376
f 197/119/377 67/105/377 77/121/377
f 197/119/378 193/104/378 67/105/378
f 161/34/379 150/82/379 152/42/379
f 177/123/380 179/122/380 198/124/380
f 178/126/381 199/125/381 180/127/381
f 179/122/382 180/127/382 199/125/382
f 200/129/383 201/128/383 181/130/383
f 198/124/384 179/122/384 199/125/384
f 178/126/385 202/131/385 199/125/385
f 202/131/386 178/126/386 149/132/386
f 198/124/387 181/133/387 177/123/387
f 203/135/388 204/134/388 205/136/388
f 204/134/389 203/135/389 206/137/389
f 207/138/390 206/137/390 203/135/390
f 203/135/391 208/139/391 207/138/391
f 209/140/392 207/138/392 208/139/392
f 208/139/393 210/141/393 209/140/393
f 211/143/394 212/142/394 210/141/394
f 209/140/395 210/141/395 212/142/395
f 211/144/396 205/136/396 212/145/396
f 204/134/397 212/145/397 205/136/397
f 213/146/398 201/128/398 204/134/398
f 204/134/399 214/147/399 213/146/399
f 207/138/400 213/146/400 214/147/400
f 213/146/401 207/138/401 215/148/401
f 216/149/402 215/148/402 207/138/402
f 207/138/403 209/140/403 216/149/403
f 212/142/404 217/150/404 209/140/404
f 200/129/405 217/151/405 201/128/405
f 202/131/406 149/132/406 201/128/406
f 201/128/407 213/146/407 218/152/407
f 215/148/408 218/152/408 213/146/408
f 202/131/409 215/148/409 199/125/409
f 198/124/410 199/125/410 215/148/410
f 215/148/411 216/149/411 198/124/411
f 181/133/412 198/124/412 200/153/412
f 216/149/413 200/153/413 198/124/413
f 181/130/414 201/128/414 149/154/414
f 207/138/415 214/147/415 206/137/415
f 204/134/416 206/137/416 214/147/416
f 204/134/417 217/151/417 212/145/417
f 216/149/418 209/140/418 217/150/418
f 204/134/419 201/128/419 217/151/419
f 217/150/420 200/153/420 216/149/420
f 215/148/421 202/131/421 218/152/421
f 201/128/422 218/152/422 202/131/422
f 219/155/423 205/136/423 220/156/423
f 205/136/424 219/155/424 203/135/424
f 221/157/425 203/135/425 219/155/425
f 203/135/426 221/157/426 208/139/426
f 210/141/427 208/139/427 221/157/427
f 221/157/428 222/158/428 210/141/428
f 223/159/429 210/141/429 222/158/429
f 210/141/430 223/159/430 211/143/430
f 205/136/431 211/144/431 223/160/431
f 223/160/432 220/156/432 205/136/432
f 224/162/433 225/161/433 226/163/433
f 226/163/434 227/164/434 228/165/434
f 229/167/435 230/166/435 223/168/435
f 231/169/436 230/166/436 225/161/436
f 229/167/437 225/161/437 230/166/437
f 231/169/438 225/161/438 232/170/438
f 232/170/439 233/171/439 231/169/439
f 229/167/440 226/163/440 225/161/440
f 232/170/441 225/161/441 224/162/441
f 233/173/442 224/172/442 231/174/442
f 224/172/443 233/173/443 232/175/443
f 231/174/444 224/172/444 230/176/444
f 226/177/445 230/176/445 224/172/445
f 220/178/446 230/176/446 226/177/446
f 220/178/447 223/179/447 230/176/447
f 223/168/448 222/180/448 229/167/448
f 234/181/449 226/163/449 228/165/449
f 235/183/450 236/182/450 226/177/450
f 237/185/451 235/184/451 238/186/451
f 234/181/452 228/165/452 239/187/452
f 240/188/453 239/187/453 228/165/453
f 241/190/454 238/189/454 234/191/454
f 241/190/455 234/191/455 237/192/455
f 236/194/456 235/193/456 239/187/456
f 239/187/457 240/188/457 236/194/457
f 238/186/458 241/195/458 237/185/458
f 221/196/459 228/165/459 222/180/459
f 226/177/460 236/182/460 220/178/460
f 219/197/461 220/178/461 236/182/461
f 219/198/462 240/188/462 221/196/462
f 227/164/463 226/163/463 229/167/463
f 240/188/464 228/165/464 221/196/464
f 236/194/465 240/188/465 219/198/465
f 222/180/466 227/164/466 229/167/466
f 227/164/467 222/180/467 228/165/467
f 226/177/468 238/199/468 235/183/468
f 226/163/469 234/181/469 238/200/469
f 237/192/470 234/191/470 239/201/470
f 235/202/471 237/192/471 239/201/471
f 242/204/472 243/203/472 244/205/472
f 245/207/473 246/206/473 242/208/473
f 242/208/474 246/206/474 247/209/474
f 248/211/475 246/210/475 245/212/475
f 249/213/476 248/211/476 245/212/476
f 244/215/477 248/214/477 249/216/477
f 244/215/478 243/217/478 248/214/478
f 248/211/479 250/218/479 246/219/479
f 243/221/480 251/220/480 250/222/480
f 246/224/481 252/223/481 247/225/481
f 251/227/482 252/226/482 246/219/482
f 251/227/483 253/228/483 252/226/483
f 243/221/484 253/229/484 251/220/484
f 246/219/485 250/218/485 251/227/485
f 250/222/486 248/214/486 243/221/486
f 242/204/487 247/209/487 243/203/487
f 253/228/488 157/230/488 154/231/488
f 3/3/489 157/232/489 253/229/489
f 253/228/490 154/231/490 252/226/490
f 252/223/491 154/233/491 159/234/491
f 247/225/492 252/223/492 159/234/492
f 159/234/493 160/235/493 247/225/493
f 247/225/494 160/235/494 243/236/494
f 243/221/495 3/3/495 253/229/495
f 160/235/496 3/237/496 243/236/496
f 254/239/497 255/238/497 256/240/497
f 254/242/498 257/241/498 255/243/498
f 258/245/499 259/244/499 257/246/499
f 256/248/500 259/247/500 258/249/500
f 256/240/501 255/238/501 242/208/501
f 242/250/502 259/247/502 256/248/502
f 259/247/503 242/250/503 244/251/503
f 242/208/504 255/238/504 245/252/504
f 255/243/505 249/253/505 245/254/505
f 255/243/506 257/241/506 249/253/506
f 257/246/507 259/244/507 249/255/507
f 249/255/508 259/244/508 244/256/508
f 260/258/509 256/257/509 258/259/509
f 261/260/510 256/257/510 260/258/510
f 258/259/511 262/261/511 260/258/511
f 263/263/512 254/262/512 261/260/512
f 263/265/513 261/264/513 262/266/513
f 260/267/513 262/266/513 261/264/513
f 263/263/514 257/268/514 254/262/514
f 261/260/515 254/262/515 256/257/515
f 262/261/516 258/259/516 257/268/516
f 264/269/517 257/268/517 263/263/517
f 262/261/518 257/268/518 264/269/518
f 265/270/519 263/265/519 266/271/519
f 262/266/520 266/271/520 263/265/520
f 264/269/521 263/263/521 265/272/521
f 266/273/522 264/269/522 265/272/522
f 264/269/523 266/273/523 262/261/523
f 157/275/524 3/274/524 17/276/524

o 
usemtl axe.001
s off

v -0.189480 21.575710 50.027599
v -0.536320 23.998959 43.126266
v -2.287430 13.964640 46.752300
v -2.231150 16.377150 44.437889
v -2.580560 12.500340 45.218803
v -2.524280 14.912861 42.904400
v -2.629990 9.384160 37.259880
v -2.063690 16.368999 35.135719
v -0.299210 16.871651 54.540337
v -2.739720 4.680120 41.772617
v -0.865510 9.886820 56.664501
v -2.343710 11.552110 49.066700
v -2.636830 10.087830 47.533211
v -2.392880 2.256850 48.673939
v -0.292370 16.167990 44.267021
v -0.348650 13.755480 46.581421
v -0.585490 14.703711 42.733532
v -0.641770 12.291189 45.047920
v -0.404930 11.342959 48.895821
v -0.698050 9.878670 47.362331
v -1.669580 40.451187 21.342899
v -1.962700 38.986900 19.809410
v -0.023910 38.777748 19.638531
v -1.858350 44.351532 22.002689
v -1.639390 5.635020 53.088268
v -1.377180 64.087616 -4.270460
v 0.461750 63.880112 -4.502930
v 0.854730 65.342751 -2.907850
v -1.084060 65.551903 -2.736970

vt 0.033358 0.643728
vt 0.190411 0.923560
vt 0.402692 0.503812
vt 0.402692 0.647326
vt 0.408249 0.287497
vt 0.408249 0.367848
vt 0.492649 0.287497
vt 0.492649 0.367848
vt 0.403043 0.503812
vt 0.403044 0.647326
vt 0.033710 0.643728
vt 0.190763 0.923560
vt 0.033358 0.363896
vt 0.033710 0.363896
vt 0.190411 0.084064
vt 0.402692 0.360297
vt 0.408249 0.207147
vt 0.492649 0.207147
vt 0.403043 0.360297
vt 0.190763 0.084064
vt 0.408248 1.036942
vt 0.492649 1.036942
vt 0.483600 0.371280
vt 0.402049 0.371280
vt 0.402049 1.040375
vt 0.483600 1.040375
vt 0.450449 0.037941
vt 0.483600 0.210579
vt 0.402049 0.210579
vt 0.442825 0.041374
vt 0.000000 1.000000

vn -0.968997 0.213832 0.123781
vn -0.938807 0.249606 0.237358
vn -0.990436 0.106848 0.087293
vn -0.999771 0.021286 -0.002124
vn -0.996689 0.066635 -0.046601
vn -0.965845 0.190764 0.175366
vn -0.964787 0.144966 0.219480
vn -0.996936 -0.040779 -0.066748
vn -0.998765 -0.001552 0.049650
vn 0.996936 0.040780 0.066750
vn 0.998765 0.001551 -0.049650
vn 0.990436 -0.106848 -0.087294
vn 0.964787 -0.144966 -0.219478
vn 0.965845 -0.190763 -0.175366
vn 0.999771 -0.021284 0.002124
vn 0.996689 -0.066635 0.046601
vn 0.968997 -0.213831 -0.123781
vn 0.938807 -0.249605 -0.237359
vn -0.102523 -0.146516 -0.983881
vn 0.121829 0.974229 0.189830
vn 0.102523 0.146515 0.983881
vn -0.121825 -0.974229 -0.189831
vn 0.951169 0.222148 0.214307
vn 0.134964 0.618822 0.773850
vn -0.997283 -0.037545 -0.063386
vn -0.136940 -0.684094 -0.716424
vn -0.983321 0.006487 0.181760
vn 0.978687 -0.205170 0.008839
vn -0.137918 -0.784750 -0.604273
vn 0.132856 0.567900 0.812305
vn -0.151619 -0.683036 -0.714474
vn -0.877774 0.377006 0.295599
vn 0.980336 0.107838 0.165263
vn 0.019454 0.734511 -0.678318
vn -0.005557 0.723758 -0.690032

f 267/277/525 268/278/525 269/279/525
f 270/280/526 269/279/526 268/278/526
f 269/281/527 270/282/527 271/283/527
f 272/284/527 271/283/527 270/282/527
f 271/285/528 272/286/528 273/287/528
f 274/288/529 273/287/529 272/286/529
f 275/289/530 267/277/530 269/279/530
f 273/287/528 276/290/528 271/285/528
f 277/291/531 275/289/531 278/292/531
f 269/279/530 278/292/530 275/289/530
f 278/293/527 269/281/527 279/294/527
f 271/283/527 279/294/527 269/281/527
f 279/295/532 271/285/532 280/296/532
f 276/290/533 280/296/533 271/285/533
f 281/280/534 268/278/534 282/279/534
f 267/277/535 282/279/535 268/278/535
f 283/284/536 281/282/536 284/283/536
f 282/281/536 284/283/536 281/282/536
f 274/288/537 283/286/537 273/287/537
f 284/285/538 273/287/538 283/286/538
f 282/279/539 267/277/539 275/289/539
f 273/287/538 284/285/538 276/290/538
f 282/279/539 275/289/539 285/292/539
f 277/291/540 285/292/540 275/289/540
f 284/283/536 282/281/536 286/294/536
f 285/293/536 286/294/536 282/281/536
f 276/290/541 284/285/541 280/296/541
f 286/295/542 280/296/542 284/285/542
f 270/280/543 268/278/543 281/280/543
f 283/286/544 274/288/544 272/286/544
f 279/295/545 280/296/545 286/295/545
f 285/292/546 277/291/546 278/292/546
f 272/284/527 270/282/527 287/297/527
f 287/297/527 288/298/527 272/284/527
f 281/282/536 283/284/536 289/298/536
f 289/298/547 290/297/547 281/282/547
f 270/299/548 281/300/548 290/301/548
f 290/301/549 287/302/549 270/299/549
f 283/300/550 272/299/550 288/302/550
f 288/302/550 289/301/550 283/300/550
f 278/293/551 279/294/551 291/303/551
f 286/294/552 285/293/552 291/303/552
f 279/304/553 286/305/553 291/306/553
f 285/305/554 278/304/554 291/306/554
f 289/298/555 288/297/555 292/298/555 293/307/555
f 287/297/556 290/298/556 294/297/556 295/307/556
f 290/297/557 289/298/557 293/297/557 294/307/557
f 288/298/527 287/297/527 295/298/527 292/307/527
f 294/297/558 293/298/558 295/297/558
f 292/298/559 295/297/559 293/298/559

