mtllib anim_spider_000008.mtl

o spider_walk_00
usemtl spidsd
s off

v -0.095340 43.713650 -14.598050
v -0.001710 47.666740 -3.513910
v 17.361359 35.537540 -3.558800
v -0.168390 34.214027 -24.147930
v 0.019030 38.498280 7.263021
v 11.452000 33.718559 8.721960
v 7.795510 30.581301 -18.462259
v 17.650890 26.475479 -0.085970
v 13.302719 26.095699 11.929111
v 7.422460 13.875051 9.822690
v 6.533760 16.274130 17.741470
v 0.135890 23.169178 23.065830
v 10.899910 31.338230 19.695660
v 10.472290 23.842800 -12.654420
v 9.105030 14.224690 -7.281230
v 15.243120 16.641869 -2.833680
v 1.844310 10.246830 -22.576260
v 4.590770 29.105661 -30.084118
v -0.131350 19.125231 -19.512520
v 10.753611 10.085870 -21.202160
v 8.033530 28.915211 -18.831421
v 7.626160 11.088820 -30.453251
v 0.285450 1.618260 -28.881050
v 20.750721 34.570042 -20.274948
v 16.421989 42.005280 -17.992538
v 6.297590 15.243030 -13.736071
v 20.323889 37.581020 -11.410069
v 34.935459 48.423809 -27.276590
v 37.508701 53.320671 -22.578051
v 35.343212 46.933052 -19.566460
v 49.302841 14.467569 -33.352707
v 26.497641 34.688103 -7.209300
v 27.103809 44.620033 -5.307360
v 29.788561 37.139561 1.006380
v 11.004010 14.231440 4.858760
v 42.741398 40.135189 -10.457259
v 49.647949 45.435043 -6.179340
v 46.243671 40.258297 -1.467690
v 48.469028 -1.349430 -12.661560
v 22.245270 48.213749 13.901920
v 12.981620 51.371330 18.945839
v 19.580530 44.911919 23.475681
v 33.399090 58.991207 20.036800
v 30.939240 63.150002 27.634079
v 32.492260 47.867069 27.185211
v 66.102188 41.627850 28.966450
v 7.436530 41.788101 14.288430
v -0.002000 14.952280 -4.690150
v 6.346630 16.787640 -17.340040
v 17.217409 25.929798 -25.561131
v 10.664061 27.320831 -28.637680
v 11.408989 18.702940 -25.868839
v 18.124279 10.841829 -41.352692
v 11.373020 15.807570 -42.462318
v 12.104191 9.978810 -36.458271
v 7.442020 5.659040 -47.061821
v 1.525190 8.406660 -45.459370
v 3.004310 4.367830 -42.546841
v -17.378010 35.535439 -3.284250
v -11.432650 33.720310 8.719729
v -8.135680 30.486401 -18.420929
v -17.900400 31.156940 -0.719080
v -13.246079 26.060390 11.994751
v -7.202580 13.375330 9.062450
v -6.293630 16.237839 17.827379
v -10.718360 31.277069 19.840471
v -10.315430 23.941952 -12.377330
v -9.250370 14.232640 -7.487720
v -18.255751 21.597879 -3.660670
v -2.269090 10.246469 -21.770889
v -4.972860 29.104891 -30.014132
v -11.026450 10.083970 -21.014669
v -8.286320 28.913801 -18.705900
v -8.039490 11.087530 -30.311871
v -0.674400 1.618180 -28.873880
v -13.630751 29.127970 -25.283470
v -14.234951 37.973148 -24.752310
v -6.377380 15.392880 -13.752750
v -18.800880 33.025719 -18.998770
v -27.501509 29.507799 -39.658897
v -33.069401 34.088291 -37.877308
v -32.435711 29.914610 -32.589802
v -39.249710 -3.669210 -55.045128
v -24.747299 47.952919 -6.497070
v -18.653601 57.129002 -3.842310
v -23.462460 51.748192 2.856030
v -11.017990 14.102469 4.525120
v -37.479610 61.102272 -6.969240
v -38.615379 68.156471 -1.242820
v -35.810631 61.628540 2.699060
v -65.843491 29.382328 -0.363560
v -26.004219 37.459358 9.442719
v -19.094280 45.226749 14.785600
v -22.557791 37.859791 19.938311
v -41.257111 42.590069 13.732210
v -43.236752 47.331383 21.230162
v -35.163658 34.348789 21.111300
v -45.928459 -1.560730 21.180531
v -7.398420 41.740662 14.385110
v -6.574490 16.786530 -17.240690
v -17.558210 25.926819 -25.275539
v -11.052350 27.319010 -28.450640
v -11.842450 18.700939 -25.906151
v -18.701611 10.838831 -41.051731
v -11.951500 15.805730 -42.243351
v -12.608041 9.976800 -36.248760
v -8.170050 5.657980 -46.962799
v -1.742190 8.406560 -45.583221
v -3.570770 4.367410 -42.612171
v 5.517900 27.253708 21.380751
v 9.168221 36.009392 16.923149
v 17.430349 30.157799 26.525459
v 12.048340 22.930500 27.286119
v 23.960781 25.235199 32.725800
v 0.001620 39.627380 10.617840
v 3.719080 40.707741 12.453140
v -5.291230 27.223129 21.453150
v -9.058391 36.916180 16.855780
v -17.149921 27.055799 26.292049
v -11.722790 22.845699 27.436731
v -23.581482 25.065601 33.027031
v -3.698400 40.684017 12.501470
v 10.407030 62.827679 46.245369
v 17.232891 56.819481 47.525558
v 22.133301 54.469254 38.710499
v 11.098680 60.553078 37.561943
v 0.110570 66.296921 44.676670
v 0.064060 66.636909 36.413380
v 21.449261 52.111477 29.908831
v 11.790340 58.278469 28.878519
v 0.017560 64.437927 27.861599
v 14.345890 24.575390 53.225151
v 0.335570 21.453899 53.821648
v 0.235730 21.039850 37.834049
v 13.197121 23.752939 40.255627
v 22.855989 32.411160 53.164291
v 26.158501 26.466030 42.677223
v 22.752981 42.258171 50.077099
v 24.145899 40.467640 40.693859
v 23.761940 38.677109 31.310619
v 12.434950 38.420071 60.829468
v 0.340050 35.614418 62.495350
v 10.524010 53.297199 59.347309
v 0.344530 50.563240 64.231148
v -11.696980 58.194679 29.027330
v -10.911430 60.474548 37.701382
v -10.125870 62.754433 46.375450
v -21.297668 51.958981 30.179670
v -21.886921 54.312210 38.989403
v -16.891710 56.672977 47.785740
v -25.661631 26.281170 43.005539
v -12.712950 23.660509 40.419788
v -22.241531 32.211040 53.519711
v -13.703099 24.475319 53.402859
v -23.496511 38.508522 31.610041
v -23.774271 40.296688 40.997471
v -22.275169 42.084869 50.384899
v 0.199070 57.429550 58.109150
v -10.008889 53.223957 59.477409
v -11.856001 38.333420 60.983383
v 15.499820 46.548992 22.350290
v 7.748860 53.788460 22.587851
v -0.002090 61.027943 22.825411
v 3.707390 49.298447 16.297180
v -0.021750 57.617950 17.789230
v 16.465080 36.864071 24.211609
v -3.710080 49.271988 16.344181
v -7.703530 53.733330 22.685749
v -15.404969 46.438732 22.546101
v -16.277451 36.747261 24.419069
v 0.004500 45.424618 13.903780

vt 0.775345 0.341683
vt 0.775876 0.247975
vt 0.859220 0.247112
vt 0.772128 0.424221
vt 0.775890 0.154291
vt 0.859827 0.141903
vt 0.875327 0.375553
vt 0.892505 0.219133
vt 0.897773 0.114296
vt 0.953133 0.141305
vt 0.949949 0.066123
vt 0.977975 0.018496
vt 0.873031 0.047317
vt 0.914347 0.327191
vt 0.946247 0.279296
vt 0.925279 0.240961
vt 0.931538 0.459675
vt 0.768930 0.471854
vt 0.800536 0.491124
vt 0.867513 0.453579
vt 0.477818 0.544580
vt 0.495999 0.473751
vt 0.457462 0.507453
vt 0.563267 0.479394
vt 0.793378 0.515313
vt 0.929596 0.495258
vt 0.990614 0.441185
vt 0.411300 0.524885
vt 0.939905 0.518219
vt 0.290756 0.676185
vt 0.333986 0.544775
vt 0.326637 0.668117
vt 0.294440 0.545074
vt 0.419736 0.674328
vt 0.359239 0.546980
vt 0.362150 0.676992
vt 0.424507 0.550840
vt 0.353113 0.548934
vt 0.354937 0.672422
vt 0.290943 0.859778
vt 0.324924 0.863033
vt 0.413481 0.864260
vt 0.355742 0.861684
vt 0.348682 0.862354
vt 0.311373 1.000258
vt 0.376172 1.002164
vt 0.159496 0.674128
vt 0.185555 0.550104
vt 0.185681 0.666147
vt 0.160294 0.542513
vt 0.284786 0.672128
vt 0.226999 0.546325
vt 0.226201 0.677940
vt 0.281807 0.552058
vt 0.215102 0.548247
vt 0.218081 0.668317
vt 0.150111 0.861017
vt 0.177469 0.863497
vt 0.280998 0.861230
vt 0.216815 0.864829
vt 0.214293 0.857419
vt 0.174267 0.992955
vt 0.240972 0.996766
vt 0.876456 0.657379
vt 0.910185 0.556160
vt 0.913662 0.658670
vt 0.876159 0.553592
vt 0.989137 0.661685
vt 0.941977 0.557404
vt 0.942685 0.660091
vt 0.991449 0.552362
vt 0.936903 0.552947
vt 0.935408 0.657873
vt 0.871892 0.848804
vt 0.899388 0.854490
vt 0.985760 0.847089
vt 0.939923 0.850417
vt 0.935080 0.844376
vt 0.891788 0.987324
vt 0.959816 0.991136
vt 0.811870 0.097918
vt 0.941640 0.180557
vt 0.977933 0.261082
vt 0.954340 0.335728
vt 0.960961 0.365731
vt 0.025670 0.875244
vt 0.023983 0.951413
vt 0.008915 0.884464
vt 0.888702 0.378592
vt 0.932696 0.369601
vt 0.967644 0.389437
vt 0.893416 0.385760
vt 0.979004 0.388825
vt 0.122691 0.772029
vt 0.105427 0.782143
vt 0.069123 0.732106
vt 0.076559 0.701409
vt 0.089433 0.808942
vt 0.055780 0.764742
vt 0.447575 0.041580
vt 0.455426 0.007181
vt 0.364876 0.024518
vt 0.386764 0.056902
vt 0.117731 0.945641
vt 0.103867 0.925337
vt 0.088386 0.917024
vt 0.511792 0.059264
vt 0.553387 0.034310
vt 0.062154 0.991654
vt 0.037597 0.984105
vt 0.036497 0.970812
vt 0.525175 0.122252
vt 0.562876 0.109196
vt 0.538257 0.138029
vt 0.692644 0.245132
vt 0.692111 0.141629
vt 0.676452 0.374359
vt 0.659497 0.216523
vt 0.653969 0.113403
vt 0.598608 0.140783
vt 0.601372 0.065256
vt 0.571845 0.018496
vt 0.678986 0.045939
vt 0.637463 0.325376
vt 0.605901 0.279694
vt 0.626699 0.241362
vt 0.608539 0.429278
vt 0.725602 0.482910
vt 0.768676 0.455537
vt 0.670790 0.428038
vt 0.013833 0.534843
vt 0.057723 0.498919
vt 0.108703 0.537752
vt 0.114337 0.623838
vt 0.727395 0.512149
vt 0.602094 0.474733
vt 0.556344 0.401069
vt 0.025928 0.446211
vt 0.587502 0.500905
vt 0.501558 0.665186
vt 0.475328 0.670746
vt 0.488643 0.557008
vt 0.510735 0.559631
vt 0.511941 0.673778
vt 0.564254 0.668997
vt 0.571052 0.562343
vt 0.526391 0.557600
vt 0.438845 0.555986
vt 0.438629 0.669967
vt 0.490638 0.863007
vt 0.465435 0.853431
vt 0.512914 0.866921
vt 0.550466 0.866819
vt 0.439943 0.863110
vt 0.464498 0.995689
vt 0.531103 0.999500
vt 0.645465 0.666359
vt 0.609423 0.665836
vt 0.609322 0.553240
vt 0.646303 0.558831
vt 0.644901 0.672566
vt 0.704038 0.670170
vt 0.704920 0.562643
vt 0.647846 0.566742
vt 0.574501 0.668755
vt 0.577814 0.562930
vt 0.641031 0.862073
vt 0.600000 0.859329
vt 0.641457 0.863412
vt 0.701931 0.862073
vt 0.568462 0.857695
vt 0.596238 0.994925
vt 0.667469 0.998524
vt 0.721119 0.672768
vt 0.757893 0.673412
vt 0.759085 0.544124
vt 0.727704 0.546469
vt 0.871675 0.666796
vt 0.802489 0.668417
vt 0.813164 0.548182
vt 0.871708 0.557439
vt 0.794309 0.670447
vt 0.792099 0.542839
vt 0.721696 0.854929
vt 0.760334 0.853734
vt 0.865583 0.855450
vt 0.803118 0.854637
vt 0.794191 0.855683
vt 0.759108 0.989579
vt 0.837549 0.987025
vt 0.740506 0.096989
vt 0.610236 0.179810
vt 0.572940 0.257297
vt 0.597908 0.334492
vt 0.594582 0.369084
vt 0.663706 0.377160
vt 0.574011 0.385040
vt 0.017354 0.698239
vt 0.077571 0.659930
vt 0.033577 0.712756
vt 0.065908 0.640817
vt 0.081021 0.683010
vt 0.049118 0.727721
vt 0.124151 0.041090
vt 0.200940 0.027137
vt 0.117444 0.009102
vt 0.180181 0.056209
vt 0.011554 0.832948
vt 0.034991 0.827342
vt 0.053450 0.820154
vt 0.064435 0.056501
vt 0.026347 0.032755
vt 0.055064 0.903823
vt 0.064933 0.894582
vt 0.079099 0.883106
vt 0.051025 0.114638
vt 0.016346 0.101972
vt 0.038659 0.129045
vt 0.925503 0.032906
vt 0.842451 0.072618
vt 0.512985 0.444113
vt 0.492284 0.459711
vt 0.475747 0.396794
vt 0.496448 0.381196
vt 0.533687 0.428515
vt 0.459209 0.333877
vt 0.776176 0.128462
vt 0.794023 0.113190
vt 0.625416 0.032217
vt 0.709746 0.071464
vt 0.073940 0.395267
vt 0.061035 0.456501
vt 0.037643 0.442369
vt 0.050548 0.381136
vt 0.086845 0.334034
vt 0.014250 0.428238
vt 0.758341 0.112725
vt 0.314099 0.254463
vt 0.355087 0.237392
vt 0.367313 0.312719
vt 0.317303 0.328713
vt 0.273111 0.271535
vt 0.272808 0.344687
vt 0.379539 0.388047
vt 0.326023 0.402942
vt 0.272506 0.417838
vt 0.488452 0.155869
vt 0.533191 0.147537
vt 0.533439 0.288026
vt 0.492907 0.267564
vt 0.443713 0.164201
vt 0.451461 0.249039
vt 0.399400 0.200796
vt 0.410174 0.281663
vt 0.419374 0.360962
vt 0.365347 0.092206
vt 0.403799 0.084931
vt 0.314748 0.129858
vt 0.274408 0.022325
vt 0.219709 0.401470
vt 0.228523 0.327334
vt 0.232299 0.253177
vt 0.166912 0.385102
vt 0.179200 0.309960
vt 0.191488 0.234818
vt 0.094962 0.247359
vt 0.053526 0.267631
vt 0.103079 0.160684
vt 0.058292 0.154110
vt 0.013878 0.287888
vt 0.013506 0.147537
vt 0.126878 0.359568
vt 0.136465 0.278653
vt 0.147283 0.197751
vt 0.273581 0.191382
vt 0.232948 0.128571
vt 0.143957 0.084931
vt 0.182552 0.090792
vt 0.367105 0.456462
vt 0.313805 0.452331
vt 0.272590 0.443412
vt 0.354671 0.524877
vt 0.313673 0.496932
vt 0.272674 0.468987
vt 0.398802 0.428704
vt 0.423478 0.492294
vt 0.231623 0.490320
vt 0.231938 0.449947
vt 0.190573 0.511653
vt 0.178742 0.448377
vt 0.125804 0.484077
vt 0.146958 0.422338
vt 0.314405 0.528232
vt 0.274139 0.531587
vt 0.232356 0.521620
vt 0.273793 0.512119

vn 0.548426 0.786132 -0.285002
vn 0.614308 0.557070 -0.558837
vn 0.229563 0.741535 0.630418
vn 0.532857 0.761424 0.369184
vn 0.642419 0.501802 -0.579217
vn 0.854059 -0.162130 -0.494265
vn 0.876862 0.351067 0.328427
vn 0.871047 0.199795 0.448731
vn 0.841810 -0.455088 0.290260
vn -0.666000 -0.731358 0.146830
vn 0.834164 -0.301667 0.461701
vn 0.843528 -0.348306 -0.408831
vn 0.872464 -0.070238 -0.483604
vn 0.559947 0.092943 -0.823299
vn -0.818276 -0.105768 -0.565011
vn -0.942774 -0.100030 -0.318075
vn -0.148882 -0.352009 0.924080
vn 0.057088 -0.116594 0.991538
vn 0.544653 0.799981 -0.251762
vn -0.793923 -0.121550 -0.595745
vn -0.728981 0.484814 -0.483262
vn -0.135426 -0.568472 0.811480
vn 0.725236 -0.613887 -0.311729
vn -0.549967 -0.064575 -0.832686
vn -0.783415 0.436009 -0.442896
vn 0.815423 -0.535025 0.220984
vn 0.789441 -0.452513 -0.414747
vn -0.750562 0.400377 0.525695
vn -0.629865 0.418242 0.654479
vn -0.493199 0.723140 -0.483553
vn -0.451326 0.011150 -0.892289
vn 0.641088 -0.746484 -0.178237
vn 0.612499 -0.739028 0.280504
vn 0.284837 0.328084 0.900682
vn -0.251647 0.727583 0.638198
vn 0.588515 0.376989 -0.715213
vn -0.922296 -0.385623 -0.025785
vn 0.757943 0.049705 0.650425
vn -0.710500 0.173939 -0.681862
vn -0.760897 0.340623 -0.552278
vn 0.818743 -0.550313 -0.163753
vn 0.770167 -0.591320 0.239130
vn -0.435111 0.484420 0.758957
vn -0.893221 0.416885 -0.168414
vn -0.052860 0.668022 -0.742262
vn -0.255289 0.196855 -0.946613
vn 0.297675 -0.949097 -0.102974
vn 0.211474 -0.956552 0.200715
vn -0.018556 0.679636 0.733315
vn 0.006152 0.646272 0.763082
vn 0.460746 0.110406 -0.880638
vn -0.921072 -0.146343 0.360846
vn 0.852654 -0.092728 0.514181
vn -0.399658 0.240483 -0.884557
vn -0.714710 0.230052 0.660504
vn 0.907302 -0.405055 0.112839
vn 0.867118 -0.441296 0.231008
vn -0.519797 0.066267 0.851716
vn -0.767760 0.162318 -0.619836
vn -0.271942 0.804310 -0.528331
vn -0.194824 0.629698 -0.752014
vn 0.713626 -0.418957 -0.561439
vn 0.281954 -0.928475 -0.241737
vn -0.264037 -0.055113 0.962937
vn -0.489154 0.107289 0.865573
vn 0.508763 0.813836 -0.280770
vn -0.054989 -0.536612 -0.842035
vn -0.059431 -0.035340 0.997607
vn 0.355701 0.644128 -0.677182
vn 0.954676 0.277294 0.108178
vn 0.800339 -0.207281 0.562576
vn 0.134635 -0.964314 -0.227974
vn -0.001966 -0.997328 -0.073022
vn -0.573523 -0.784712 0.235156
vn 0.048521 -0.904158 0.424433
vn -0.109713 -0.988061 -0.108162
vn -0.469768 -0.809075 -0.353152
vn 0.939704 0.164460 -0.299849
vn -0.989296 -0.144987 0.016472
vn 0.943452 0.173899 -0.282237
vn 0.956467 0.186403 -0.224555
vn 0.263844 -0.153800 -0.952225
vn -0.249252 -0.932765 -0.260427
vn 0.895250 -0.413818 -0.165175
vn 0.247268 0.964710 -0.090520
vn 0.534976 0.744220 0.399921
vn -0.809601 -0.241825 -0.534853
vn -0.956887 0.099544 -0.272869
vn 0.740231 -0.607234 0.288660
vn 0.727861 -0.620080 0.292779
vn 0.561945 0.649561 -0.512141
vn 0.428244 0.665533 -0.611287
vn -0.994386 -0.103852 0.020277
vn -0.996588 -0.080915 0.016279
vn 0.561635 -0.581877 0.588205
vn 0.664083 -0.555068 0.500892
vn -0.046201 0.427151 -0.902999
vn 0.347580 0.272047 -0.897317
vn -0.646287 0.276273 0.711327
vn -0.589723 0.542386 0.598368
vn 0.383345 -0.916456 0.114695
vn 0.358367 -0.889344 0.283973
vn -0.460696 -0.623929 -0.631246
vn -0.552690 0.786426 -0.275806
vn -0.623066 0.556913 -0.549215
vn -0.228983 0.741204 0.631018
vn -0.527031 0.762018 0.376254
vn -0.646241 0.512415 -0.565512
vn -0.865231 -0.172561 -0.470743
vn -0.807197 0.383101 0.449073
vn -0.811359 0.364520 0.456971
vn -0.880679 -0.452202 0.141129
vn 0.653541 -0.736883 0.172881
vn -0.827553 -0.306439 0.470373
vn -0.874191 -0.291478 -0.388368
vn -0.868340 -0.147944 -0.473390
vn -0.158429 0.295778 -0.942028
vn 0.818819 -0.127283 -0.559763
vn 0.911107 -0.118994 -0.394619
vn 0.087834 -0.265365 0.960139
vn -0.040775 -0.115752 0.992441
vn -0.549813 0.798503 -0.245152
vn 0.815672 -0.129513 -0.563831
vn 0.737285 0.505361 -0.448354
vn 0.078668 -0.624889 0.776740
vn -0.730119 -0.613552 -0.300797
vn 0.972722 0.079531 -0.217914
vn 0.902827 0.425673 -0.060871
vn -0.756292 -0.606121 -0.246252
vn -0.677161 -0.602699 -0.422145
vn -0.907398 0.105355 0.406854
vn 0.286618 0.602103 0.745200
vn 0.330916 0.663314 -0.671200
vn 0.717867 0.090488 -0.690274
vn -0.050420 -0.998480 0.022268
vn -0.192218 -0.896952 0.398158
vn -0.645490 0.559986 0.519384
vn -0.427787 0.824794 0.369747
vn 0.043471 0.407613 -0.912120
vn 0.701912 -0.488808 0.518060
vn -0.980559 0.078790 0.179710
vn 0.506751 -0.088427 -0.857545
vn 0.817665 0.141339 -0.558074
vn -0.953065 -0.211428 0.216716
vn -0.827721 -0.251375 0.501685
vn 0.677103 0.254443 0.690500
vn 0.445162 -0.094174 -0.890484
vn 0.255056 0.633830 -0.730209
vn 0.193116 0.152186 -0.969302
vn -0.712005 -0.683673 0.160123
vn -0.582551 -0.722128 0.373049
vn 0.468117 0.595413 0.652954
vn 0.400363 0.552378 0.731156
vn -0.628584 0.426661 -0.650263
vn 0.733057 -0.674207 -0.089845
vn -0.432331 0.322687 0.841999
vn 0.400117 0.250455 -0.881577
vn 0.524122 0.420855 -0.740390
vn -0.756634 -0.594962 0.271155
vn -0.755868 -0.595198 0.272770
vn 0.518838 0.312593 0.795671
vn 0.832074 0.319872 -0.453139
vn -0.073241 0.834078 -0.546763
vn -0.031089 0.585084 -0.810377
vn -0.399912 -0.757592 -0.515873
vn 0.263669 -0.963325 -0.049828
vn 0.081149 0.041344 0.995844
vn 0.265921 0.465435 0.844190
vn -0.956737 0.052963 -0.286092
vn 0.639664 -0.193190 -0.743981
vn 0.012025 -0.001677 0.999926
vn -0.357130 0.652055 -0.668792
vn -0.952819 0.277838 0.122241
vn -0.769264 -0.117311 0.628069
vn -0.325851 -0.822929 -0.465413
vn -0.033107 -0.990836 -0.130949
vn 0.597875 -0.769419 0.224809
vn -0.182624 -0.619846 0.763177
vn 0.115746 -0.984826 -0.129305
vn 0.445988 -0.822180 -0.353717
vn -0.944019 0.165393 -0.285437
vn 0.748963 -0.186934 0.635697
vn -0.945503 0.169324 -0.278127
vn -0.969329 0.130579 -0.208209
vn -0.278439 -0.153846 -0.948052
vn 0.245190 -0.932638 -0.264706
vn -0.909406 -0.401377 -0.108982
vn -0.248964 0.964580 -0.087192
vn -0.530535 0.740847 0.411920
vn 0.806935 -0.234086 -0.542272
vn 0.952778 0.099840 -0.286785
vn -0.730221 -0.605270 0.316900
vn -0.736094 -0.599038 0.315149
vn -0.567477 0.649931 -0.505528
vn -0.437538 0.665475 -0.604734
vn 0.994868 -0.100559 0.011180
vn 0.996023 -0.088640 0.009060
vn -0.552590 -0.581963 0.596626
vn -0.648027 -0.557849 0.518523
vn 0.012298 0.425431 -0.904907
vn -0.362121 0.278733 -0.889481
vn 0.652746 0.234397 0.720403
vn 0.590083 0.545564 0.595115
vn -0.378746 -0.916535 0.128513
vn -0.351684 -0.891290 0.286218
vn 0.415263 -0.653497 -0.632849
vn 0.452705 -0.242521 0.858045
vn 0.923294 0.349407 0.159510
vn 0.900241 0.413909 0.135073
vn 0.407437 -0.751143 -0.519403
vn 0.444100 -0.414324 -0.794425
vn 0.248005 -0.630293 -0.735680
vn 0.443184 -0.413728 -0.795246
vn -0.116830 0.941089 -0.317338
vn -0.439790 -0.245046 0.864024
vn -0.928740 0.345094 0.135471
vn -0.918311 0.377304 0.119775
vn -0.278279 -0.652815 -0.704552
vn -0.298253 -0.588738 -0.751287
vn -0.410101 -0.690618 -0.595705
vn -0.253167 -0.630729 -0.733545
vn 0.107943 0.942394 -0.316611
vn 0.563752 0.825074 -0.037906
vn 0.416422 0.904955 -0.087455
vn 0.514021 0.829227 -0.219466
vn 0.477996 0.854375 -0.203870
vn 0.209203 -0.977325 0.032712
vn 0.396597 -0.871677 0.287906
vn 0.112549 -0.992294 -0.051819
vn 0.178532 -0.981985 0.061901
vn 0.975346 0.125166 0.181751
vn 0.924240 0.284221 0.254950
vn 0.987973 0.062074 -0.141620
vn 0.985386 0.144149 -0.090755
vn 0.546144 -0.111861 0.830189
vn 0.184126 -0.484536 0.855174
vn 0.724422 0.269786 0.634372
vn 0.279864 0.009725 0.959990
vn -0.486627 0.850936 -0.197745
vn -0.424202 0.901807 -0.082447
vn -0.522666 0.825529 -0.212892
vn -0.570752 0.820606 -0.029121
vn -0.170723 -0.983231 0.064114
vn -0.385398 -0.875601 0.291189
vn -0.106105 -0.993075 -0.050444
vn -0.201794 -0.978791 0.035316
vn -0.987460 0.137111 -0.078253
vn -0.923058 0.277534 0.266345
vn -0.990106 0.055017 -0.129084
vn -0.973715 0.117555 0.195090
vn 0.000513 0.834556 0.550923
vn 0.365838 0.754175 0.545328
vn -0.365305 0.751240 0.549719
vn 0.002355 0.665520 0.746377
vn -0.265704 0.009062 0.964012
vn -0.169465 -0.486136 0.857294
vn -0.718092 0.265709 0.643228
vn -0.533571 -0.116161 0.837740
vn 0.447393 0.538783 -0.713830
vn 0.463703 0.640031 -0.612650
vn 0.485906 0.488561 -0.724709
vn 0.619376 0.522174 -0.586266
vn 0.678799 -0.095535 -0.728083
vn 0.739421 0.009825 -0.673172
vn 0.705422 -0.143124 -0.694187
vn 0.718561 -0.075684 -0.691334
vn -0.630459 0.517712 -0.578356
vn -0.475984 0.636672 -0.606703
vn -0.498550 0.484735 -0.718666
vn -0.460238 0.535541 -0.708080
vn -0.727282 -0.077190 -0.681984
vn -0.747943 0.004519 -0.663748
vn -0.694425 -0.110582 -0.711017
vn -0.711808 -0.069930 -0.698884
vn -0.007246 0.493097 -0.869944
vn 0.239998 0.396775 -0.885986
vn -0.253861 0.394762 -0.883016
vn -0.007120 0.303590 -0.952776

f 1/1/1 2/2/1 3/3/1
f 1/1/2 3/3/2 4/4/2
f 2/2/3 5/5/3 6/6/3
f 2/2/4 6/6/4 3/3/4
f 4/4/5 3/3/5 7/7/5
f 7/7/6 3/3/6 8/8/6
f 8/8/7 6/6/7 9/9/7
f 8/8/8 3/3/8 6/6/8
f 10/10/9 8/8/9 9/9/9
f 11/11/10 12/12/10 10/10/10
f 9/9/11 13/13/11 11/11/11
f 14/14/12 8/8/12 15/15/12
f 8/8/13 14/14/13 7/7/13
f 16/16/14 15/15/14 8/8/14
f 17/17/15 4/18/15 18/19/15
f 4/18/16 17/17/16 19/20/16
f 20/21/17 19/22/17 17/23/17
f 19/22/18 20/21/18 21/24/18
f 7/25/19 18/19/19 4/18/19
f 17/17/20 18/19/20 22/26/20
f 22/26/21 23/27/21 17/17/21
f 17/23/22 23/28/22 20/21/22
f 20/29/23 23/27/23 22/26/23
f 24/30/24 14/31/24 25/32/24
f 14/31/25 24/30/25 26/33/25
f 27/34/26 26/35/26 24/36/26
f 26/35/27 27/34/27 15/37/27
f 15/38/28 25/32/28 14/31/28
f 27/39/29 25/32/29 15/38/29
f 28/40/30 25/32/30 29/41/30
f 25/32/31 28/40/31 24/30/31
f 30/42/32 24/36/32 28/43/32
f 24/36/33 30/42/33 27/34/33
f 29/41/34 27/39/34 30/44/34
f 27/39/35 29/41/35 25/32/35
f 29/41/36 31/45/36 28/40/36
f 28/43/37 31/46/37 30/42/37
f 30/44/38 31/45/38 29/41/38
f 32/47/39 8/48/39 33/49/39
f 8/48/40 32/47/40 16/50/40
f 34/51/41 16/52/41 32/53/41
f 16/52/42 34/51/42 35/54/42
f 33/49/43 35/55/43 34/56/43
f 35/55/44 33/49/44 8/48/44
f 36/57/45 33/49/45 37/58/45
f 33/49/46 36/57/46 32/47/46
f 38/59/47 32/53/47 36/60/47
f 32/53/48 38/59/48 34/51/48
f 37/58/49 34/56/49 38/61/49
f 34/56/50 37/58/50 33/49/50
f 37/58/51 39/62/51 36/57/51
f 36/60/52 39/63/52 38/59/52
f 38/61/53 39/62/53 37/58/53
f 40/64/54 9/65/54 41/66/54
f 9/65/55 40/64/55 10/67/55
f 42/68/56 10/69/56 40/70/56
f 10/69/57 42/68/57 11/71/57
f 41/66/58 11/72/58 42/73/58
f 11/72/59 41/66/59 9/65/59
f 43/74/60 41/66/60 44/75/60
f 41/66/61 43/74/61 40/64/61
f 45/76/62 40/70/62 43/77/62
f 40/70/63 45/76/63 42/68/63
f 44/75/64 42/73/64 45/78/64
f 42/73/65 44/75/65 41/66/65
f 44/75/66 46/79/66 43/74/66
f 43/77/67 46/80/67 45/76/67
f 45/78/68 46/79/68 44/75/68
f 5/5/69 47/81/69 6/6/69
f 6/6/70 13/13/70 9/9/70
f 8/8/71 10/10/71 35/82/71
f 16/16/72 35/82/72 48/83/72
f 10/10/73 48/83/73 35/82/73
f 12/12/74 48/83/74 10/10/74
f 16/16/75 48/83/75 15/15/75
f 15/15/76 48/83/76 26/84/76
f 48/83/77 49/85/77 26/84/77
f 20/29/78 22/26/78 18/19/78
f 20/86/79 7/87/79 21/88/79
f 20/29/80 18/19/80 7/25/80
f 14/14/81 21/89/81 7/7/81
f 49/90/82 19/91/82 21/92/82
f 19/93/83 49/85/83 48/83/83
f 26/84/84 49/85/84 14/14/84
f 50/94/85 51/95/85 21/96/85
f 21/96/86 14/97/86 50/94/86
f 51/95/87 52/98/87 49/99/87
f 49/99/88 21/96/88 51/95/88
f 52/100/89 50/101/89 14/102/89
f 14/102/90 49/103/90 52/100/90
f 53/104/91 54/105/91 51/95/91
f 51/95/92 50/94/92 53/104/92
f 54/105/93 55/106/93 52/98/93
f 52/98/94 51/95/94 54/105/94
f 55/107/95 53/108/95 50/101/95
f 50/101/96 52/100/96 55/107/96
f 56/109/97 57/110/97 54/105/97
f 54/105/98 53/104/98 56/109/98
f 57/110/99 58/111/99 55/106/99
f 55/106/100 54/105/100 57/110/100
f 58/112/101 56/113/101 53/108/101
f 53/108/102 55/107/102 58/112/102
f 57/114/103 56/113/103 58/112/103
f 1/1/104 59/115/104 2/2/104
f 1/1/105 4/4/105 59/115/105
f 2/2/106 60/116/106 5/5/106
f 2/2/107 59/115/107 60/116/107
f 4/4/108 61/117/108 59/115/108
f 61/117/109 62/118/109 59/115/109
f 62/118/110 63/119/110 60/116/110
f 62/118/111 60/116/111 59/115/111
f 64/120/112 63/119/112 62/118/112
f 65/121/113 64/120/113 12/122/113
f 63/119/114 65/121/114 66/123/114
f 67/124/115 68/125/115 62/118/115
f 62/118/116 61/117/116 67/124/116
f 69/126/117 62/118/117 68/125/117
f 70/127/118 71/128/118 4/129/118
f 4/129/119 19/130/119 70/127/119
f 72/131/120 70/132/120 19/133/120
f 19/133/121 73/134/121 72/131/121
f 61/135/122 4/129/122 71/128/122
f 70/127/123 74/136/123 71/128/123
f 74/136/124 70/127/124 75/137/124
f 70/132/125 72/131/125 75/138/125
f 72/139/126 74/136/126 75/137/126
f 76/140/127 77/141/127 67/142/127
f 67/142/128 78/143/128 76/140/128
f 79/144/129 76/145/129 78/146/129
f 78/146/130 68/147/130 79/144/130
f 68/148/131 67/142/131 77/141/131
f 79/149/132 68/148/132 77/141/132
f 80/150/133 81/151/133 77/141/133
f 77/141/134 76/140/134 80/150/134
f 82/152/135 80/153/135 76/145/135
f 76/145/136 79/144/136 82/152/136
f 81/151/137 82/154/137 79/149/137
f 79/149/138 77/141/138 81/151/138
f 81/151/139 80/150/139 83/155/139
f 80/153/140 82/152/140 83/156/140
f 82/154/141 81/151/141 83/155/141
f 84/157/142 85/158/142 62/159/142
f 62/159/143 69/160/143 84/157/143
f 86/161/144 84/162/144 69/163/144
f 69/163/145 87/164/145 86/161/145
f 85/158/146 86/165/146 87/166/146
f 87/166/147 62/159/147 85/158/147
f 88/167/148 89/168/148 85/158/148
f 85/158/149 84/157/149 88/167/149
f 90/169/150 88/170/150 84/162/150
f 84/162/151 86/161/151 90/169/151
f 89/168/152 90/171/152 86/165/152
f 86/165/153 85/158/153 89/168/153
f 89/168/154 88/167/154 91/172/154
f 88/170/155 90/169/155 91/173/155
f 90/171/156 89/168/156 91/172/156
f 92/174/157 93/175/157 63/176/157
f 63/176/158 64/177/158 92/174/158
f 94/178/159 92/179/159 64/180/159
f 64/180/160 65/181/160 94/178/160
f 93/175/161 94/182/161 65/183/161
f 65/183/162 63/176/162 93/175/162
f 95/184/163 96/185/163 93/175/163
f 93/175/164 92/174/164 95/184/164
f 97/186/165 95/187/165 92/179/165
f 92/179/166 94/178/166 97/186/166
f 96/185/167 97/188/167 94/182/167
f 94/182/168 93/175/168 96/185/168
f 96/185/169 95/184/169 98/189/169
f 95/187/170 97/186/170 98/190/170
f 97/188/171 96/185/171 98/189/171
f 5/5/172 60/116/172 99/191/172
f 60/116/173 63/119/173 66/123/173
f 62/118/174 87/192/174 64/120/174
f 69/126/175 48/193/175 87/192/175
f 64/120/176 87/192/176 48/193/176
f 12/122/177 64/120/177 48/193/177
f 69/126/178 68/125/178 48/193/178
f 68/125/179 78/194/179 48/193/179
f 48/193/180 78/194/180 100/195/180
f 72/139/181 71/128/181 74/136/181
f 72/86/182 73/88/182 61/87/182
f 72/139/183 61/135/183 71/128/183
f 67/124/184 61/117/184 73/196/184
f 100/195/185 73/196/185 19/197/185
f 19/197/186 48/193/186 100/195/186
f 78/194/187 67/124/187 100/195/187
f 101/198/188 73/199/188 102/200/188
f 73/199/189 101/198/189 67/201/189
f 102/200/190 100/202/190 103/203/190
f 100/202/191 102/200/191 73/199/191
f 103/204/192 67/205/192 101/206/192
f 67/205/193 103/204/193 100/207/193
f 104/208/194 102/200/194 105/209/194
f 102/200/195 104/208/195 101/198/195
f 105/209/196 103/203/196 106/210/196
f 103/203/197 105/209/197 102/200/197
f 106/211/198 101/206/198 104/212/198
f 101/206/199 106/211/199 103/204/199
f 107/213/200 105/209/200 108/214/200
f 105/209/201 107/213/201 104/208/201
f 108/214/202 106/210/202 109/215/202
f 106/210/203 108/214/203 105/209/203
f 109/216/204 104/212/204 107/217/204
f 104/212/205 109/216/205 106/211/205
f 108/218/206 109/216/206 107/217/206
f 13/13/207 110/219/207 11/11/207
f 110/219/207 12/12/207 11/11/207
f 47/81/208 111/220/208 6/6/208
f 111/220/209 13/13/209 6/6/209
f 110/221/210 13/222/210 112/223/210
f 112/223/211 113/224/211 110/221/211
f 12/225/212 110/221/212 113/224/212
f 113/224/213 112/223/213 114/226/213
f 115/227/214 116/228/214 5/5/214
f 116/228/214 47/81/214 5/5/214
f 12/122/215 117/229/215 65/121/215
f 117/229/215 66/123/215 65/121/215
f 66/123/216 118/230/216 60/116/216
f 118/230/217 99/191/217 60/116/217
f 119/231/218 66/232/218 117/233/218
f 117/233/219 120/234/219 119/231/219
f 121/235/220 119/231/220 120/234/220
f 120/234/221 117/233/221 12/236/221
f 99/191/222 122/237/222 5/5/222
f 122/237/222 115/227/222 5/5/222
f 123/238/223 124/239/223 125/240/223 126/241/223
f 127/242/224 123/238/224 126/241/224 128/243/224
f 126/241/225 125/240/225 129/244/225 130/245/225
f 128/243/226 126/241/226 130/245/226 131/246/226
f 132/247/227 133/248/227 134/249/227 135/250/227
f 136/251/228 132/247/228 135/250/228 137/252/228
f 135/250/229 134/249/229 12/225/229 113/224/229
f 137/252/230 135/250/230 113/224/230 114/226/230
f 138/253/231 136/251/231 137/252/231 139/254/231
f 124/239/232 138/253/232 139/254/232 125/240/232
f 139/254/233 137/252/233 114/226/233 140/255/233
f 125/240/234 139/254/234 140/255/234 129/244/234
f 132/247/235 136/251/235 138/253/235 141/256/235
f 133/248/236 132/247/236 141/256/236 142/257/236
f 141/256/237 138/253/237 124/239/237 143/258/237
f 142/257/238 141/256/238 143/258/238 144/259/238
f 128/243/239 131/246/239 145/260/239 146/261/239
f 127/242/240 128/243/240 146/261/240 147/262/240
f 146/261/241 145/260/241 148/263/241 149/264/241
f 147/262/242 146/261/242 149/264/242 150/265/242
f 151/266/243 121/235/243 120/234/243 152/267/243
f 153/268/244 151/266/244 152/267/244 154/269/244
f 152/267/245 120/234/245 12/236/245 134/270/245
f 154/269/246 152/267/246 134/270/246 133/271/246
f 149/264/247 148/263/247 155/272/247 156/273/247
f 150/265/248 149/264/248 156/273/248 157/274/248
f 156/273/249 155/272/249 121/235/249 151/266/249
f 157/274/250 156/273/250 151/266/250 153/268/250
f 123/238/251 127/242/251 147/262/251 158/275/251
f 124/239/252 123/238/252 158/275/252 143/258/252
f 158/275/253 147/262/253 150/265/253 159/276/253
f 143/258/254 158/275/254 159/276/254 144/259/254
f 142/277/255 144/259/255 159/276/255 160/278/255
f 133/271/256 142/277/256 160/278/256 154/269/256
f 160/278/257 159/276/257 150/265/257 157/274/257
f 154/269/258 160/278/258 157/274/258 153/268/258
f 130/245/259 129/244/259 161/279/259 162/280/259
f 131/246/260 130/245/260 162/280/260 163/281/260
f 162/280/261 161/279/261 47/282/261 164/283/261
f 163/281/262 162/280/262 164/283/262 165/284/262
f 140/255/263 114/226/263 112/223/263 166/285/263
f 129/244/264 140/255/264 166/285/264 161/279/264
f 166/285/265 112/223/265 13/222/265 111/286/265
f 161/279/266 166/285/266 111/286/266 47/282/266
f 163/281/267 165/284/267 167/287/267 168/288/267
f 131/246/268 163/281/268 168/288/268 145/260/268
f 168/288/269 167/287/269 99/289/269 169/290/269
f 145/260/270 168/288/270 169/290/270 148/263/270
f 169/290/271 99/289/271 118/291/271 170/292/271
f 148/263/272 169/290/272 170/292/272 155/272/272
f 170/292/273 118/291/273 66/232/273 119/231/273
f 155/272/274 170/292/274 119/231/274 121/235/274
f 116/293/275 115/294/275 122/295/275 171/296/275
f 47/282/276 116/293/276 171/296/276 164/283/276
f 171/296/277 122/295/277 99/289/277 167/287/277
f 164/283/278 171/296/278 167/287/278 165/284/278

