mtllib anim_skel_walk_sword_000042.mtl

o msked
usemtl shield.001
s off

v -8.082069 28.537861 -5.389000
v -9.331750 28.661591 -4.666190
v -6.447300 28.486061 16.035641
v -9.183980 27.323191 -5.233750
v -7.633860 27.061441 -4.784520
v -9.023479 28.295528 -5.308670
v -11.895750 31.120209 -4.140610
v -8.436481 28.304661 -10.053000
v -9.478189 28.156012 -9.946400
v -9.559480 27.102251 -9.906720
v -5.002300 24.623562 -4.621030
v -8.063070 27.390400 -5.375610
v -8.517770 27.250879 -10.013330

vt 0.856301 0.265607
vt 0.764624 0.294094
vt 0.850192 0.976825
vt 0.858158 0.265976
vt 0.949099 0.282658
vt 0.742843 0.255302
vt 0.692067 0.254404
vt 0.541488 0.402851
vt 0.893183 0.241135
vt 0.851577 0.242328
vt 0.847036 0.027305
vt 0.893183 0.027305
vt 0.742053 0.256467
vt 0.849952 0.242815
vt 0.544321 0.402080
vt 0.692550 0.250793
vt 0.800888 0.241135
vt 0.800888 0.027305
vt 0.697126 0.324563
vt 0.698569 0.321089

vn 0.095721 0.995396 -0.004897
vn -0.977046 -0.165010 0.134736
vn 0.962233 0.262316 -0.072787
vn -0.187854 -0.979119 0.077702
vn -0.145564 0.248034 -0.957753
vn -0.251525 0.967409 -0.029258
vn -0.142833 0.989621 -0.015767
vn -0.383349 -0.007893 -0.923570
vn -0.992260 0.080123 0.094876
vn -0.983259 0.167778 0.071078
vn -0.097532 -0.029927 -0.994782
vn 0.232970 -0.007488 -0.972455
vn 0.996944 0.015616 -0.076537
vn 0.992260 -0.080120 -0.094876
vn -0.095940 -0.359293 -0.928280
vn 0.142819 -0.989623 0.015768
vn 0.065083 -0.996999 0.041910
vn -0.201512 -0.401168 0.893565
vn -0.310064 -0.273638 0.910485
vn 0.495180 0.346053 0.796896
vn 0.361494 0.445154 0.819244

f 1/1/1 2/2/1 3/3/1
f 3/3/2 2/2/2 4/4/2
f 1/1/3 3/3/3 5/5/3
f 3/3/4 4/4/4 5/5/4
f 1/6/5 6/7/5 7/8/5
f 6/9/6 1/10/6 8/11/6
f 8/11/7 9/12/7 6/9/7
f 7/8/8 6/7/8 4/13/8
f 6/9/9 9/12/9 10/11/9
f 10/11/10 4/14/10 6/9/10
f 9/12/11 8/11/11 10/11/11
f 1/6/12 11/15/12 12/16/12
f 8/11/13 1/10/13 12/17/13
f 8/11/14 12/17/14 13/18/14
f 11/15/15 4/13/15 12/16/15
f 12/17/16 10/11/16 13/18/16
f 10/11/17 12/17/17 4/14/17
f 13/18/11 10/11/11 8/11/11
f 4/13/18 2/19/18 7/8/18
f 11/15/19 5/20/19 4/13/19
f 2/19/20 1/6/20 7/8/20
f 1/6/21 5/20/21 11/15/21

