mtllib anim_spider_000085.mtl

o spider_walk_00
usemtl spidsd
s off

v -0.095340 43.713650 -14.598050
v -0.001710 47.666740 -3.513910
v 17.361359 35.537540 -3.558800
v -0.168390 34.214027 -24.147930
v 0.019030 38.498280 7.263021
v 11.452000 33.718559 8.721960
v 7.795510 30.581301 -18.462259
v 17.988689 31.369709 -0.575660
v 13.302719 26.095699 11.929111
v 11.849600 16.683189 8.826920
v 6.533760 16.274130 17.741470
v 0.135890 23.169178 23.065830
v 10.899910 31.338230 19.695660
v 10.472290 23.842800 -12.654420
v 9.105030 14.224690 -7.281230
v 16.612310 18.981871 -3.271720
v 0.348380 10.246830 -22.164650
v 0.399760 29.105661 -30.158920
v -0.131350 19.125231 -19.512520
v 9.198680 10.085870 -23.878099
v 8.033530 28.915211 -18.831421
v 3.132450 11.088820 -31.530840
v -0.124730 1.618260 -27.646019
v 18.669540 36.350330 -21.170179
v 13.164550 42.665211 -18.036291
v 6.297590 15.243030 -13.736071
v 18.654200 39.172321 -12.053710
v 31.216581 52.475780 -27.248499
v 29.825420 56.252380 -21.563450
v 26.319260 52.715969 -24.352320
v 27.919519 16.260889 -34.716042
v 23.296200 46.130909 -6.293720
v 17.189529 56.836201 -4.713240
v 23.502258 51.925713 1.641280
v 14.991430 18.101080 3.843410
v 33.410412 60.060928 -10.555571
v 35.851921 68.324890 -8.241580
v 35.461731 63.470200 -1.606880
v 61.778252 28.606710 -6.206360
v 22.013359 50.275620 11.625490
v 13.186501 60.738888 16.375240
v 15.462721 58.153538 20.692230
v 32.453438 61.600578 16.123230
v 32.402729 65.563797 23.666050
v 32.319931 51.835251 24.774981
v 24.755840 24.017971 18.198709
v 7.436530 38.836800 15.289930
v -0.002000 14.952280 -4.690150
v 6.346630 16.787640 -17.340040
v 13.812040 25.929798 -30.162859
v 6.604870 27.320841 -30.847099
v 11.408989 18.702940 -25.868839
v 9.335990 10.841829 -45.333900
v 2.643570 15.807570 -44.040459
v 5.321020 9.978810 -38.694862
v -2.832370 5.659030 -46.465229
v -7.498220 8.406650 -42.489479
v -4.916970 4.367830 -40.487541
v -17.378010 35.535439 -3.284250
v -11.432650 33.720310 8.719729
v -8.448930 30.549992 -18.483929
v -17.561031 32.216888 -1.158380
v -13.246079 26.060390 11.994751
v -7.202580 13.375330 9.062450
v -6.293630 16.237839 17.827379
v -10.718360 31.277069 19.840471
v -10.400790 23.931028 -12.410530
v -9.250370 14.232640 -7.487720
v -18.445890 22.913740 -4.117550
v -2.269090 10.246469 -21.770889
v -2.109660 29.104891 -29.952860
v -10.020980 10.083970 -23.061069
v -8.286320 28.913801 -18.705900
v -4.636050 11.087530 -31.207371
v -1.054710 1.618180 -27.606020
v -16.310410 36.634830 -21.871309
v -8.289140 40.428169 -21.478441
v -6.377380 15.392880 -13.752750
v -12.449560 38.439270 -13.917800
v -22.138432 55.520283 -24.010941
v -22.862360 60.346634 -19.592899
v -23.285620 54.553116 -15.714291
v -27.292450 20.277611 -31.794359
v -22.274179 50.820869 -7.910740
v -15.187880 59.206169 -5.108520
v -20.943811 54.621929 1.433640
v -11.017990 14.102469 4.525120
v -28.559879 64.851997 -9.020230
v -36.129501 68.566177 -5.449620
v -31.401350 65.431686 0.367440
v -28.014231 21.885071 -6.219570
v -20.802679 47.335869 11.847370
v -10.875760 51.370930 16.516479
v -16.611731 45.879787 21.972160
v -33.993523 56.949402 17.849730
v -34.409939 61.180481 25.701649
v -28.647369 48.131310 24.201479
v -33.265911 11.317390 21.479420
v -7.398410 38.774181 15.373899
v -6.574490 16.786530 -17.240690
v -15.160690 25.926819 -28.926411
v -8.039390 27.319010 -30.228180
v -9.486790 18.700939 -27.991280
v -12.004600 10.838820 -44.425922
v -5.226560 15.805720 -43.713150
v -7.433110 9.976800 -38.156811
v 0.021960 5.657960 -46.599468
v 2.681650 8.406550 -42.891048
v 2.613410 4.367410 -40.823170
v 5.517900 27.253708 21.380751
v 9.168221 32.841461 16.777390
v 17.430349 30.157799 26.525459
v 12.048340 13.740191 21.935511
v 23.960781 13.926720 27.840340
v 0.001620 37.426201 11.394779
v 3.719080 38.131500 13.342350
v -5.291230 27.223129 21.453150
v -9.058391 36.916180 16.855780
v -17.149921 17.946260 22.497009
v -11.722790 13.606760 22.045368
v -23.581482 13.659860 28.060070
v -3.698400 38.100189 13.384340
v 10.407030 44.107952 54.014122
v 17.232891 38.042599 53.040028
v 22.133301 39.031590 43.970810
v 11.098690 45.119980 45.094948
v 0.110570 47.909508 53.802982
v 0.064070 51.208374 46.219101
v 21.449261 40.008720 34.911350
v 11.790340 46.132011 36.175789
v 0.017570 52.243420 37.450012
v 14.345890 5.914260 46.720451
v 0.335570 2.787840 46.150398
v 0.235730 8.170750 31.090542
v 13.197121 9.827230 34.327980
v 22.855989 13.244061 49.491211
v 26.158501 11.483700 37.565418
v 22.752981 23.541639 50.165272
v 24.145899 25.257641 40.768108
v 23.761940 26.973650 31.370960
v 12.434950 16.082180 58.808250
v 0.340050 12.864429 59.349480
v 10.524010 30.491800 62.794289
v 0.344530 26.179741 66.362549
v -11.696980 46.000160 36.284348
v -10.911430 44.996429 45.196682
v -10.125870 43.992699 54.109009
v -21.297668 39.768768 35.108917
v -21.886921 38.784489 44.174252
v -16.891710 37.812088 53.229820
v -25.661631 11.192829 37.804920
v -12.712950 9.681789 34.447731
v -22.241531 12.929171 49.750473
v -13.703099 5.756810 46.850090
v -23.496498 26.708382 31.589371
v -23.774271 24.988661 40.989578
v -22.275160 23.268940 50.389801
v 0.199070 34.792522 63.130688
v -10.008889 30.376551 62.889191
v -11.856001 15.945830 58.920513
v 15.499820 37.548470 25.854858
v 7.748870 44.214458 28.688759
v -0.002090 50.880470 31.522652
v 3.707390 42.296921 21.201721
v -0.021750 49.517513 25.595291
v 16.465080 27.844410 24.096020
v -3.710080 42.255291 21.236000
v -7.703530 44.127731 28.760170
v -15.404969 37.374989 25.997692
v -16.277451 27.660620 24.247351
v 0.004500 42.382332 15.571341

vt 0.775345 0.341683
vt 0.775876 0.247975
vt 0.859220 0.247112
vt 0.772128 0.424221
vt 0.775890 0.154291
vt 0.859827 0.141903
vt 0.875327 0.375553
vt 0.892505 0.219133
vt 0.897773 0.114296
vt 0.953133 0.141305
vt 0.949949 0.066123
vt 0.977975 0.018496
vt 0.873031 0.047317
vt 0.914347 0.327191
vt 0.946247 0.279296
vt 0.925279 0.240961
vt 0.931538 0.459675
vt 0.768930 0.471854
vt 0.800536 0.491124
vt 0.867513 0.453579
vt 0.477818 0.544580
vt 0.495999 0.473751
vt 0.457462 0.507453
vt 0.563267 0.479394
vt 0.793378 0.515313
vt 0.929596 0.495258
vt 0.990614 0.441185
vt 0.411300 0.524885
vt 0.939905 0.518219
vt 0.290756 0.676185
vt 0.333986 0.544775
vt 0.326637 0.668117
vt 0.294440 0.545074
vt 0.419736 0.674328
vt 0.359239 0.546980
vt 0.362150 0.676992
vt 0.424507 0.550840
vt 0.353113 0.548934
vt 0.354937 0.672422
vt 0.290943 0.859778
vt 0.324924 0.863033
vt 0.413481 0.864260
vt 0.355742 0.861684
vt 0.348682 0.862354
vt 0.311373 1.000258
vt 0.376172 1.002164
vt 0.159496 0.674128
vt 0.185555 0.550104
vt 0.185681 0.666147
vt 0.160294 0.542513
vt 0.284786 0.672128
vt 0.226999 0.546325
vt 0.226201 0.677940
vt 0.281807 0.552058
vt 0.215102 0.548247
vt 0.218081 0.668317
vt 0.150111 0.861017
vt 0.177469 0.863497
vt 0.280998 0.861230
vt 0.216815 0.864829
vt 0.214293 0.857419
vt 0.174267 0.992955
vt 0.240972 0.996766
vt 0.876456 0.657379
vt 0.910185 0.556160
vt 0.913662 0.658670
vt 0.876159 0.553592
vt 0.989137 0.661685
vt 0.941977 0.557404
vt 0.942685 0.660091
vt 0.991449 0.552362
vt 0.936903 0.552947
vt 0.935408 0.657873
vt 0.871892 0.848804
vt 0.899388 0.854490
vt 0.985760 0.847089
vt 0.939923 0.850417
vt 0.935080 0.844376
vt 0.891788 0.987324
vt 0.959816 0.991136
vt 0.811870 0.097918
vt 0.941640 0.180557
vt 0.977933 0.261082
vt 0.954340 0.335728
vt 0.960961 0.365731
vt 0.025670 0.875244
vt 0.023983 0.951413
vt 0.008915 0.884464
vt 0.888702 0.378592
vt 0.932696 0.369601
vt 0.967644 0.389437
vt 0.893416 0.385760
vt 0.979004 0.388825
vt 0.122691 0.772029
vt 0.105427 0.782143
vt 0.069123 0.732106
vt 0.076559 0.701409
vt 0.089433 0.808942
vt 0.055780 0.764742
vt 0.447575 0.041580
vt 0.455426 0.007181
vt 0.364876 0.024518
vt 0.386764 0.056902
vt 0.117731 0.945641
vt 0.103867 0.925337
vt 0.088386 0.917024
vt 0.511792 0.059264
vt 0.553387 0.034310
vt 0.062154 0.991654
vt 0.037597 0.984105
vt 0.036497 0.970812
vt 0.525175 0.122252
vt 0.562876 0.109196
vt 0.538257 0.138029
vt 0.692644 0.245132
vt 0.692111 0.141629
vt 0.676452 0.374359
vt 0.659497 0.216523
vt 0.653969 0.113403
vt 0.598608 0.140783
vt 0.601372 0.065256
vt 0.571845 0.018496
vt 0.678986 0.045939
vt 0.637463 0.325376
vt 0.605901 0.279694
vt 0.626699 0.241362
vt 0.608539 0.429278
vt 0.725602 0.482910
vt 0.768676 0.455537
vt 0.670790 0.428038
vt 0.013833 0.534843
vt 0.057723 0.498919
vt 0.108703 0.537752
vt 0.114337 0.623838
vt 0.727395 0.512149
vt 0.602094 0.474733
vt 0.556344 0.401069
vt 0.025928 0.446211
vt 0.587502 0.500905
vt 0.501558 0.665186
vt 0.475328 0.670746
vt 0.488643 0.557008
vt 0.510735 0.559631
vt 0.511941 0.673778
vt 0.564254 0.668997
vt 0.571052 0.562343
vt 0.526391 0.557600
vt 0.438845 0.555986
vt 0.438629 0.669967
vt 0.490638 0.863007
vt 0.465435 0.853431
vt 0.512914 0.866921
vt 0.550466 0.866819
vt 0.439943 0.863110
vt 0.464498 0.995689
vt 0.531103 0.999500
vt 0.645465 0.666359
vt 0.609423 0.665836
vt 0.609322 0.553240
vt 0.646303 0.558831
vt 0.644901 0.672566
vt 0.704038 0.670170
vt 0.704920 0.562643
vt 0.647846 0.566742
vt 0.574501 0.668755
vt 0.577814 0.562930
vt 0.641031 0.862073
vt 0.600000 0.859329
vt 0.641457 0.863412
vt 0.701931 0.862073
vt 0.568462 0.857695
vt 0.596238 0.994925
vt 0.667469 0.998524
vt 0.721119 0.672768
vt 0.757893 0.673412
vt 0.759085 0.544124
vt 0.727704 0.546469
vt 0.871675 0.666796
vt 0.802489 0.668417
vt 0.813164 0.548182
vt 0.871708 0.557439
vt 0.794309 0.670447
vt 0.792099 0.542839
vt 0.721696 0.854929
vt 0.760334 0.853734
vt 0.865583 0.855450
vt 0.803118 0.854637
vt 0.794191 0.855683
vt 0.759108 0.989579
vt 0.837549 0.987025
vt 0.740506 0.096989
vt 0.610236 0.179810
vt 0.572940 0.257297
vt 0.597908 0.334492
vt 0.594582 0.369084
vt 0.663706 0.377160
vt 0.574011 0.385040
vt 0.017354 0.698239
vt 0.077571 0.659930
vt 0.033577 0.712756
vt 0.065908 0.640817
vt 0.081021 0.683010
vt 0.049118 0.727721
vt 0.124151 0.041090
vt 0.200940 0.027137
vt 0.117444 0.009102
vt 0.180181 0.056209
vt 0.011554 0.832948
vt 0.034991 0.827342
vt 0.053450 0.820154
vt 0.064435 0.056501
vt 0.026347 0.032755
vt 0.055064 0.903823
vt 0.064933 0.894582
vt 0.079099 0.883106
vt 0.051025 0.114638
vt 0.016346 0.101972
vt 0.038659 0.129045
vt 0.925503 0.032906
vt 0.842451 0.072618
vt 0.512985 0.444113
vt 0.492284 0.459711
vt 0.475747 0.396794
vt 0.496448 0.381196
vt 0.533687 0.428515
vt 0.459209 0.333877
vt 0.776176 0.128462
vt 0.794023 0.113190
vt 0.625416 0.032217
vt 0.709746 0.071464
vt 0.073940 0.395267
vt 0.061035 0.456501
vt 0.037643 0.442369
vt 0.050548 0.381136
vt 0.086845 0.334034
vt 0.014250 0.428238
vt 0.758341 0.112725
vt 0.314099 0.254463
vt 0.355087 0.237392
vt 0.367313 0.312719
vt 0.317303 0.328713
vt 0.273111 0.271535
vt 0.272808 0.344687
vt 0.379539 0.388047
vt 0.326023 0.402942
vt 0.272506 0.417838
vt 0.488452 0.155869
vt 0.533191 0.147537
vt 0.533439 0.288026
vt 0.492907 0.267564
vt 0.443713 0.164201
vt 0.451461 0.249039
vt 0.399400 0.200796
vt 0.410174 0.281663
vt 0.419374 0.360962
vt 0.365347 0.092206
vt 0.403799 0.084931
vt 0.314748 0.129858
vt 0.274408 0.022325
vt 0.219709 0.401470
vt 0.228523 0.327334
vt 0.232299 0.253177
vt 0.166912 0.385102
vt 0.179200 0.309960
vt 0.191488 0.234818
vt 0.094962 0.247359
vt 0.053526 0.267631
vt 0.103079 0.160684
vt 0.058292 0.154110
vt 0.013878 0.287888
vt 0.013506 0.147537
vt 0.126878 0.359568
vt 0.136465 0.278653
vt 0.147283 0.197751
vt 0.273581 0.191382
vt 0.232948 0.128571
vt 0.143957 0.084931
vt 0.182552 0.090792
vt 0.367105 0.456462
vt 0.313805 0.452331
vt 0.272590 0.443412
vt 0.354671 0.524877
vt 0.313673 0.496932
vt 0.272674 0.468987
vt 0.398802 0.428704
vt 0.423478 0.492294
vt 0.231623 0.490320
vt 0.231938 0.449947
vt 0.190573 0.511653
vt 0.178742 0.448377
vt 0.125804 0.484077
vt 0.146958 0.422338
vt 0.314405 0.528232
vt 0.274139 0.531587
vt 0.232356 0.521620
vt 0.273793 0.512119

vn 0.548426 0.786132 -0.285002
vn 0.614308 0.557070 -0.558837
vn 0.229563 0.741535 0.630418
vn 0.532857 0.761424 0.369184
vn 0.642419 0.501802 -0.579217
vn 0.852927 -0.212809 -0.476684
vn 0.797205 0.388105 0.462427
vn 0.784784 0.434473 0.441981
vn 0.939301 -0.229165 0.255337
vn -0.794425 -0.358624 -0.490181
vn 0.834164 -0.301667 0.461701
vn 0.880888 -0.320040 -0.348728
vn 0.867625 -0.078517 -0.490980
vn 0.387333 0.154766 -0.908857
vn -0.997102 -0.027373 -0.070983
vn -0.995992 -0.028491 -0.084783
vn 0.178080 -0.272798 0.945446
vn 0.209898 -0.240979 0.947561
vn 0.621999 0.624693 -0.472098
vn -0.948405 -0.121550 -0.292837
vn -0.940889 0.216871 -0.260181
vn 0.151065 -0.535946 0.830627
vn 0.661708 -0.467894 -0.585848
vn -0.604668 -0.137812 -0.784465
vn -0.874883 0.447890 -0.184323
vn 0.875028 -0.462005 0.144486
vn 0.818763 -0.393393 -0.418173
vn -0.989791 0.142489 0.003197
vn -0.573060 0.360170 0.736125
vn -0.597645 0.592673 -0.539962
vn -0.467568 0.030813 -0.883420
vn 0.505313 -0.068943 0.860178
vn 0.907901 -0.400003 0.125349
vn 0.768591 -0.610014 -0.192747
vn -0.360701 0.622580 0.694470
vn 0.931723 -0.152764 0.329479
vn -0.488747 0.218650 -0.844582
vn -0.422266 -0.264979 0.866878
vn -0.492658 -0.154598 -0.856380
vn -0.909530 0.182344 -0.373504
vn 0.965248 -0.222352 0.137315
vn 0.955075 -0.227985 0.189351
vn -0.611372 0.203617 0.764699
vn -0.546254 -0.151002 -0.823896
vn -0.378314 0.351549 -0.856325
vn -0.329828 -0.048959 -0.942771
vn 0.813709 -0.580246 0.034535
vn 0.687410 -0.594905 0.416599
vn -0.540497 0.693823 0.475891
vn -0.249270 0.630635 0.734959
vn 0.325303 0.164629 -0.931169
vn -0.710770 -0.587547 0.386774
vn 0.750625 0.511413 0.418352
vn -0.358820 0.117635 -0.925965
vn -0.820217 0.289281 -0.493518
vn 0.662070 -0.258908 0.703300
vn 0.843193 -0.214508 0.492962
vn -0.838158 0.141588 0.526729
vn -0.718094 0.086221 -0.690584
vn -0.045625 0.884193 -0.464888
vn -0.029574 0.392377 -0.919329
vn 0.723280 -0.463449 -0.511938
vn -0.405720 -0.814547 0.414615
vn -0.206205 0.080019 0.975232
vn -0.403744 0.675250 0.617274
vn 0.975055 -0.193726 0.108344
vn -0.953350 0.207377 0.219358
vn 0.765134 -0.056424 -0.641394
vn 0.396423 0.825788 -0.401152
vn 0.954676 0.277294 0.108178
vn 0.847737 -0.014913 0.530207
vn 0.240450 -0.968475 -0.065112
vn 0.262489 -0.958945 -0.107350
vn -0.181638 -0.942668 0.279971
vn 0.125723 -0.747828 0.651880
vn -0.109713 -0.988061 -0.108162
vn -0.469768 -0.809075 -0.353152
vn 0.783366 0.164459 -0.599409
vn 0.481107 0.254607 -0.838875
vn 0.816771 0.199021 -0.541549
vn 0.956467 0.186403 -0.224555
vn 0.263844 -0.153800 -0.952225
vn -0.249252 -0.932765 -0.260427
vn 0.895250 -0.413818 -0.165175
vn 0.201221 0.967630 -0.152321
vn 0.749525 0.625225 0.217499
vn -0.602763 -0.623585 -0.497813
vn -0.984067 0.148841 0.097256
vn 0.961320 -0.226760 0.156343
vn 0.727861 -0.620080 0.292779
vn 0.352323 0.650172 -0.673161
vn 0.196805 0.665533 -0.719954
vn -0.899777 -0.013321 0.436147
vn -0.864267 -0.220658 0.452054
vn 0.727202 -0.581877 0.364138
vn 0.904296 -0.395778 -0.160027
vn -0.430500 0.422817 -0.797431
vn -0.011087 0.238028 -0.971195
vn -0.303272 0.260512 0.916602
vn -0.296903 0.567760 0.767787
vn 0.395865 -0.916354 -0.059885
vn 0.452771 -0.877192 0.159787
vn -0.686146 -0.623930 -0.374051
vn -0.552690 0.786426 -0.275806
vn -0.623066 0.556913 -0.549215
vn -0.228983 0.741204 0.631018
vn -0.527031 0.762018 0.376254
vn -0.622331 0.558247 -0.548693
vn -0.870111 -0.230933 -0.435403
vn -0.810259 0.381897 0.444562
vn -0.821714 0.338854 0.458219
vn -0.891816 -0.444428 0.084544
vn 0.653541 -0.736883 0.172881
vn -0.827553 -0.306439 0.470373
vn -0.889798 -0.286039 -0.355584
vn -0.880733 -0.151900 -0.448593
vn -0.057705 0.307593 -0.949767
vn 0.967489 -0.107503 -0.228927
vn 0.911107 -0.118994 -0.394619
vn -0.156343 -0.207954 0.965563
vn -0.155365 -0.208998 0.965496
vn -0.589746 0.693764 -0.413389
vn 0.960752 -0.117210 -0.251432
vn 0.938151 0.274626 -0.210840
vn -0.123551 -0.567781 0.813855
vn -0.709329 -0.468548 -0.526607
vn 0.272297 -0.490026 -0.828088
vn 0.904946 0.425483 0.006063
vn -0.856341 -0.222288 0.466121
vn -0.867287 -0.231666 -0.440619
vn -0.149190 -0.461569 -0.874469
vn 0.820561 0.245547 0.516127
vn 0.683552 0.545974 -0.484427
vn 0.088817 -0.085026 -0.992412
vn -0.936931 -0.307879 -0.165442
vn -0.755730 -0.455777 0.470255
vn 0.537611 0.441608 0.718301
vn 0.713412 0.473022 0.517005
vn -0.898123 0.215947 -0.383069
vn 0.978855 -0.168700 0.115683
vn -0.994421 0.098285 0.038290
vn 0.528215 -0.168257 -0.832273
vn 0.888629 0.060102 -0.454671
vn -0.976956 -0.109082 0.183463
vn -0.823407 -0.160171 0.544377
vn 0.653340 0.215418 0.725770
vn 0.344420 -0.165537 -0.924106
vn 0.407803 0.909429 -0.081462
vn 0.303858 0.060942 -0.950766
vn -0.878598 -0.412610 -0.240456
vn -0.689146 -0.631671 0.355063
vn 0.711955 0.667137 -0.219199
vn 0.280249 0.652667 0.703908
vn -0.451170 -0.063751 -0.890158
vn 0.957187 0.030916 0.287813
vn -0.805162 -0.149439 0.573918
vn 0.378942 0.128244 -0.916491
vn 0.848797 0.304469 0.432253
vn -0.874247 -0.375356 0.307896
vn -0.914303 -0.347382 0.208267
vn 0.627332 0.110581 0.770861
vn 0.692557 0.063513 -0.718562
vn 0.183341 0.869430 -0.458778
vn 0.107138 0.628178 -0.770658
vn -0.651266 -0.662021 -0.370920
vn -0.194337 -0.979076 -0.060362
vn 0.175577 -0.035568 0.983823
vn 0.460557 0.335418 0.821816
vn -0.998907 -0.019314 -0.042569
vn 0.734809 -0.042131 -0.676964
vn 0.071906 -0.082518 0.993992
vn -0.396342 0.830815 -0.390718
vn -0.952819 0.277838 0.122241
vn -0.769174 -0.078861 0.634155
vn -0.356465 -0.789916 -0.498965
vn -0.033107 -0.990836 -0.130949
vn 0.597875 -0.769419 0.224809
vn -0.205949 -0.535994 0.818716
vn 0.115746 -0.984826 -0.129305
vn 0.445988 -0.822180 -0.353717
vn -0.832900 0.153805 -0.531622
vn -0.440734 -0.163539 0.882615
vn -0.852043 0.175726 -0.493096
vn -0.935561 -0.045473 -0.350226
vn -0.278439 -0.153846 -0.948052
vn 0.245190 -0.932638 -0.264706
vn -0.905566 -0.409078 -0.112276
vn -0.214330 0.966903 -0.138422
vn -0.702479 0.653690 0.281447
vn 0.927729 -0.231756 -0.292589
vn 0.990152 0.139988 0.001843
vn -0.786678 -0.597721 0.154492
vn -0.834483 -0.535301 0.130735
vn -0.409044 0.650092 -0.640362
vn -0.258125 0.665475 -0.700367
vn 0.955875 -0.097778 0.277024
vn 0.957081 -0.089164 0.275764
vn -0.693086 -0.581963 0.425383
vn -0.763907 -0.557849 0.324423
vn 0.514356 0.470046 -0.717283
vn -0.072532 0.237972 -0.968560
vn 0.438500 0.403680 0.802969
vn 0.424827 0.535178 0.730141
vn -0.399400 -0.916420 -0.025564
vn -0.437207 -0.877252 0.198190
vn 0.864360 -0.240658 -0.441550
vn 0.452705 -0.242521 0.858045
vn 0.897645 0.331366 0.290570
vn 0.410692 0.886554 0.212966
vn 0.407437 -0.751143 -0.519403
vn 0.364105 0.138143 -0.921056
vn -0.200138 -0.136547 -0.970206
vn 0.440347 0.104935 -0.891674
vn -0.300131 0.923629 0.238393
vn -0.439790 -0.245046 0.864024
vn -0.928740 0.345094 0.135471
vn -0.758674 0.650574 -0.034151
vn 0.105123 -0.242889 -0.964341
vn -0.085335 -0.003028 -0.996348
vn -0.410102 -0.429130 -0.804776
vn 0.190312 -0.132201 -0.972782
vn 0.297819 0.923717 0.240936
vn 0.563752 0.783163 0.262373
vn 0.416422 0.875542 0.244986
vn 0.514021 0.852551 0.094544
vn 0.477996 0.870378 0.118164
vn 0.209203 -0.923282 -0.322156
vn 0.396597 -0.916838 -0.046032
vn -0.171249 -0.728004 -0.663840
vn 0.178532 -0.938161 -0.296615
vn 0.975346 0.051149 0.214671
vn 0.924240 0.173074 0.340333
vn 0.987973 0.108995 -0.109679
vn 0.985386 0.167185 -0.032625
vn 0.546144 -0.403895 0.733891
vn 0.184126 -0.760476 0.622714
vn 0.724422 0.022698 0.688983
vn 0.279864 -0.337339 0.898821
vn -0.486627 0.864960 0.122635
vn -0.424202 0.870799 0.248521
vn -0.522666 0.846730 0.099340
vn -0.570752 0.775826 0.268953
vn -0.170723 -0.940122 -0.295000
vn -0.385398 -0.921682 -0.044387
vn 0.173051 -0.726272 -0.665268
vn -0.201794 -0.925589 -0.320256
vn -0.987460 0.156110 -0.023504
vn -0.923058 0.162726 0.348547
vn -0.990106 0.097890 -0.100534
vn -0.973715 0.039238 0.224365
vn 0.000513 0.579529 0.814951
vn 0.365838 0.506584 0.780728
vn -0.365304 0.502261 0.783764
vn 0.002355 0.351354 0.936240
vn -0.265704 -0.339408 0.902332
vn -0.169465 -0.762734 0.624114
vn -0.718092 0.015700 0.695771
vn -0.533571 -0.410630 0.739381
vn 0.447393 0.760065 -0.471319
vn 0.463702 0.817981 -0.340421
vn 0.463501 0.818548 -0.339332
vn 0.619376 0.698545 -0.358342
vn 0.646686 0.146924 -0.748473
vn 0.739421 0.252074 -0.624272
vn -0.700335 -0.563233 0.438521
vn 0.775131 0.143792 -0.615220
vn -0.630459 0.691529 -0.352575
vn -0.475984 0.812703 -0.336086
vn -0.475950 0.812796 -0.335908
vn -0.460238 0.754967 -0.467126
vn -0.802234 0.188697 -0.566404
vn -0.747943 0.243725 -0.617397
vn -0.637811 0.043381 -0.768970
vn -0.711808 0.186972 -0.677031
vn -0.007048 0.644391 -0.764663
vn 0.374525 0.819496 -0.433772
vn -0.385804 0.815200 -0.431978
vn -0.007253 0.814655 -0.579901

f 1/1/1 2/2/1 3/3/1
f 1/1/2 3/3/2 4/4/2
f 2/2/3 5/5/3 6/6/3
f 2/2/4 6/6/4 3/3/4
f 4/4/5 3/3/5 7/7/5
f 7/7/6 3/3/6 8/8/6
f 8/8/7 6/6/7 9/9/7
f 8/8/8 3/3/8 6/6/8
f 10/10/9 8/8/9 9/9/9
f 11/11/10 12/12/10 10/10/10
f 9/9/11 13/13/11 11/11/11
f 14/14/12 8/8/12 15/15/12
f 8/8/13 14/14/13 7/7/13
f 16/16/14 15/15/14 8/8/14
f 17/17/15 4/18/15 18/19/15
f 4/18/16 17/17/16 19/20/16
f 20/21/17 19/22/17 17/23/17
f 19/22/18 20/21/18 21/24/18
f 7/25/19 18/19/19 4/18/19
f 17/17/20 18/19/20 22/26/20
f 22/26/21 23/27/21 17/17/21
f 17/23/22 23/28/22 20/21/22
f 20/29/23 23/27/23 22/26/23
f 24/30/24 14/31/24 25/32/24
f 14/31/25 24/30/25 26/33/25
f 27/34/26 26/35/26 24/36/26
f 26/35/27 27/34/27 15/37/27
f 15/38/28 25/32/28 14/31/28
f 27/39/29 25/32/29 15/38/29
f 28/40/30 25/32/30 29/41/30
f 25/32/31 28/40/31 24/30/31
f 30/42/32 24/36/32 28/43/32
f 24/36/33 30/42/33 27/34/33
f 29/41/34 27/39/34 30/44/34
f 27/39/35 29/41/35 25/32/35
f 29/41/36 31/45/36 28/40/36
f 28/43/37 31/46/37 30/42/37
f 30/44/38 31/45/38 29/41/38
f 32/47/39 8/48/39 33/49/39
f 8/48/40 32/47/40 16/50/40
f 34/51/41 16/52/41 32/53/41
f 16/52/42 34/51/42 35/54/42
f 33/49/43 35/55/43 34/56/43
f 35/55/44 33/49/44 8/48/44
f 36/57/45 33/49/45 37/58/45
f 33/49/46 36/57/46 32/47/46
f 38/59/47 32/53/47 36/60/47
f 32/53/48 38/59/48 34/51/48
f 37/58/49 34/56/49 38/61/49
f 34/56/50 37/58/50 33/49/50
f 37/58/51 39/62/51 36/57/51
f 36/60/52 39/63/52 38/59/52
f 38/61/53 39/62/53 37/58/53
f 40/64/54 9/65/54 41/66/54
f 9/65/55 40/64/55 10/67/55
f 42/68/56 10/69/56 40/70/56
f 10/69/57 42/68/57 11/71/57
f 41/66/58 11/72/58 42/73/58
f 11/72/59 41/66/59 9/65/59
f 43/74/60 41/66/60 44/75/60
f 41/66/61 43/74/61 40/64/61
f 45/76/62 40/70/62 43/77/62
f 40/70/63 45/76/63 42/68/63
f 44/75/64 42/73/64 45/78/64
f 42/73/65 44/75/65 41/66/65
f 44/75/66 46/79/66 43/74/66
f 43/77/67 46/80/67 45/76/67
f 45/78/68 46/79/68 44/75/68
f 5/5/69 47/81/69 6/6/69
f 6/6/70 13/13/70 9/9/70
f 8/8/71 10/10/71 35/82/71
f 16/16/72 35/82/72 48/83/72
f 10/10/73 48/83/73 35/82/73
f 12/12/74 48/83/74 10/10/74
f 16/16/75 48/83/75 15/15/75
f 15/15/76 48/83/76 26/84/76
f 48/83/77 49/85/77 26/84/77
f 20/29/78 22/26/78 18/19/78
f 20/86/79 7/87/79 21/88/79
f 20/29/80 18/19/80 7/25/80
f 14/14/81 21/89/81 7/7/81
f 49/90/82 19/91/82 21/92/82
f 19/93/83 49/85/83 48/83/83
f 26/84/84 49/85/84 14/14/84
f 50/94/85 51/95/85 21/96/85
f 21/96/86 14/97/86 50/94/86
f 51/95/87 52/98/87 49/99/87
f 49/99/88 21/96/88 51/95/88
f 52/100/89 50/101/89 14/102/89
f 14/102/90 49/103/90 52/100/90
f 53/104/91 54/105/91 51/95/91
f 51/95/92 50/94/92 53/104/92
f 54/105/93 55/106/93 52/98/93
f 52/98/94 51/95/94 54/105/94
f 55/107/95 53/108/95 50/101/95
f 50/101/96 52/100/96 55/107/96
f 56/109/97 57/110/97 54/105/97
f 54/105/98 53/104/98 56/109/98
f 57/110/99 58/111/99 55/106/99
f 55/106/100 54/105/100 57/110/100
f 58/112/101 56/113/101 53/108/101
f 53/108/102 55/107/102 58/112/102
f 57/114/103 56/113/103 58/112/103
f 1/1/104 59/115/104 2/2/104
f 1/1/105 4/4/105 59/115/105
f 2/2/106 60/116/106 5/5/106
f 2/2/107 59/115/107 60/116/107
f 4/4/108 61/117/108 59/115/108
f 61/117/109 62/118/109 59/115/109
f 62/118/110 63/119/110 60/116/110
f 62/118/111 60/116/111 59/115/111
f 64/120/112 63/119/112 62/118/112
f 65/121/113 64/120/113 12/122/113
f 63/119/114 65/121/114 66/123/114
f 67/124/115 68/125/115 62/118/115
f 62/118/116 61/117/116 67/124/116
f 69/126/117 62/118/117 68/125/117
f 70/127/118 71/128/118 4/129/118
f 4/129/119 19/130/119 70/127/119
f 72/131/120 70/132/120 19/133/120
f 19/133/121 73/134/121 72/131/121
f 61/135/122 4/129/122 71/128/122
f 70/127/123 74/136/123 71/128/123
f 74/136/124 70/127/124 75/137/124
f 70/132/125 72/131/125 75/138/125
f 72/139/126 74/136/126 75/137/126
f 76/140/127 77/141/127 67/142/127
f 67/142/128 78/143/128 76/140/128
f 79/144/129 76/145/129 78/146/129
f 78/146/130 68/147/130 79/144/130
f 68/148/131 67/142/131 77/141/131
f 79/149/132 68/148/132 77/141/132
f 80/150/133 81/151/133 77/141/133
f 77/141/134 76/140/134 80/150/134
f 82/152/135 80/153/135 76/145/135
f 76/145/136 79/144/136 82/152/136
f 81/151/137 82/154/137 79/149/137
f 79/149/138 77/141/138 81/151/138
f 81/151/139 80/150/139 83/155/139
f 80/153/140 82/152/140 83/156/140
f 82/154/141 81/151/141 83/155/141
f 84/157/142 85/158/142 62/159/142
f 62/159/143 69/160/143 84/157/143
f 86/161/144 84/162/144 69/163/144
f 69/163/145 87/164/145 86/161/145
f 85/158/146 86/165/146 87/166/146
f 87/166/147 62/159/147 85/158/147
f 88/167/148 89/168/148 85/158/148
f 85/158/149 84/157/149 88/167/149
f 90/169/150 88/170/150 84/162/150
f 84/162/151 86/161/151 90/169/151
f 89/168/152 90/171/152 86/165/152
f 86/165/153 85/158/153 89/168/153
f 89/168/154 88/167/154 91/172/154
f 88/170/155 90/169/155 91/173/155
f 90/171/156 89/168/156 91/172/156
f 92/174/157 93/175/157 63/176/157
f 63/176/158 64/177/158 92/174/158
f 94/178/159 92/179/159 64/180/159
f 64/180/160 65/181/160 94/178/160
f 93/175/161 94/182/161 65/183/161
f 65/183/162 63/176/162 93/175/162
f 95/184/163 96/185/163 93/175/163
f 93/175/164 92/174/164 95/184/164
f 97/186/165 95/187/165 92/179/165
f 92/179/166 94/178/166 97/186/166
f 96/185/167 97/188/167 94/182/167
f 94/182/168 93/175/168 96/185/168
f 96/185/169 95/184/169 98/189/169
f 95/187/170 97/186/170 98/190/170
f 97/188/171 96/185/171 98/189/171
f 5/5/172 60/116/172 99/191/172
f 60/116/173 63/119/173 66/123/173
f 62/118/174 87/192/174 64/120/174
f 69/126/175 48/193/175 87/192/175
f 64/120/176 87/192/176 48/193/176
f 12/122/177 64/120/177 48/193/177
f 69/126/178 68/125/178 48/193/178
f 68/125/179 78/194/179 48/193/179
f 48/193/180 78/194/180 100/195/180
f 72/139/181 71/128/181 74/136/181
f 72/86/182 73/88/182 61/87/182
f 72/139/183 61/135/183 71/128/183
f 67/124/184 61/117/184 73/196/184
f 100/195/185 73/196/185 19/197/185
f 19/197/186 48/193/186 100/195/186
f 78/194/187 67/124/187 100/195/187
f 101/198/188 73/199/188 102/200/188
f 73/199/189 101/198/189 67/201/189
f 102/200/190 100/202/190 103/203/190
f 100/202/191 102/200/191 73/199/191
f 103/204/192 67/205/192 101/206/192
f 67/205/193 103/204/193 100/207/193
f 104/208/194 102/200/194 105/209/194
f 102/200/195 104/208/195 101/198/195
f 105/209/196 103/203/196 106/210/196
f 103/203/197 105/209/197 102/200/197
f 106/211/198 101/206/198 104/212/198
f 101/206/199 106/211/199 103/204/199
f 107/213/200 105/209/200 108/214/200
f 105/209/201 107/213/201 104/208/201
f 108/214/202 106/210/202 109/215/202
f 106/210/203 108/214/203 105/209/203
f 109/216/204 104/212/204 107/217/204
f 104/212/205 109/216/205 106/211/205
f 108/218/206 109/216/206 107/217/206
f 13/13/207 110/219/207 11/11/207
f 110/219/207 12/12/207 11/11/207
f 47/81/208 111/220/208 6/6/208
f 111/220/209 13/13/209 6/6/209
f 110/221/210 13/222/210 112/223/210
f 112/223/211 113/224/211 110/221/211
f 12/225/212 110/221/212 113/224/212
f 113/224/213 112/223/213 114/226/213
f 115/227/214 116/228/214 5/5/214
f 116/228/214 47/81/214 5/5/214
f 12/122/215 117/229/215 65/121/215
f 117/229/215 66/123/215 65/121/215
f 66/123/216 118/230/216 60/116/216
f 118/230/217 99/191/217 60/116/217
f 119/231/218 66/232/218 117/233/218
f 117/233/219 120/234/219 119/231/219
f 121/235/220 119/231/220 120/234/220
f 120/234/221 117/233/221 12/236/221
f 99/191/222 122/237/222 5/5/222
f 122/237/222 115/227/222 5/5/222
f 123/238/223 124/239/223 125/240/223 126/241/223
f 127/242/224 123/238/224 126/241/224 128/243/224
f 126/241/225 125/240/225 129/244/225 130/245/225
f 128/243/226 126/241/226 130/245/226 131/246/226
f 132/247/227 133/248/227 134/249/227 135/250/227
f 136/251/228 132/247/228 135/250/228 137/252/228
f 135/250/229 134/249/229 12/225/229 113/224/229
f 137/252/230 135/250/230 113/224/230 114/226/230
f 138/253/231 136/251/231 137/252/231 139/254/231
f 124/239/232 138/253/232 139/254/232 125/240/232
f 139/254/233 137/252/233 114/226/233 140/255/233
f 125/240/234 139/254/234 140/255/234 129/244/234
f 132/247/235 136/251/235 138/253/235 141/256/235
f 133/248/236 132/247/236 141/256/236 142/257/236
f 141/256/237 138/253/237 124/239/237 143/258/237
f 142/257/238 141/256/238 143/258/238 144/259/238
f 128/243/239 131/246/239 145/260/239 146/261/239
f 127/242/240 128/243/240 146/261/240 147/262/240
f 146/261/241 145/260/241 148/263/241 149/264/241
f 147/262/242 146/261/242 149/264/242 150/265/242
f 151/266/243 121/235/243 120/234/243 152/267/243
f 153/268/244 151/266/244 152/267/244 154/269/244
f 152/267/245 120/234/245 12/236/245 134/270/245
f 154/269/246 152/267/246 134/270/246 133/271/246
f 149/264/247 148/263/247 155/272/247 156/273/247
f 150/265/248 149/264/248 156/273/248 157/274/248
f 156/273/249 155/272/249 121/235/249 151/266/249
f 157/274/250 156/273/250 151/266/250 153/268/250
f 123/238/251 127/242/251 147/262/251 158/275/251
f 124/239/252 123/238/252 158/275/252 143/258/252
f 158/275/253 147/262/253 150/265/253 159/276/253
f 143/258/254 158/275/254 159/276/254 144/259/254
f 142/277/255 144/259/255 159/276/255 160/278/255
f 133/271/256 142/277/256 160/278/256 154/269/256
f 160/278/257 159/276/257 150/265/257 157/274/257
f 154/269/258 160/278/258 157/274/258 153/268/258
f 130/245/259 129/244/259 161/279/259 162/280/259
f 131/246/260 130/245/260 162/280/260 163/281/260
f 162/280/261 161/279/261 47/282/261 164/283/261
f 163/281/262 162/280/262 164/283/262 165/284/262
f 140/255/263 114/226/263 112/223/263 166/285/263
f 129/244/264 140/255/264 166/285/264 161/279/264
f 166/285/265 112/223/265 13/222/265 111/286/265
f 161/279/266 166/285/266 111/286/266 47/282/266
f 163/281/267 165/284/267 167/287/267 168/288/267
f 131/246/268 163/281/268 168/288/268 145/260/268
f 168/288/269 167/287/269 99/289/269 169/290/269
f 145/260/270 168/288/270 169/290/270 148/263/270
f 169/290/271 99/289/271 118/291/271 170/292/271
f 148/263/272 169/290/272 170/292/272 155/272/272
f 170/292/273 118/291/273 66/232/273 119/231/273
f 155/272/274 170/292/274 119/231/274 121/235/274
f 116/293/275 115/294/275 122/295/275 171/296/275
f 47/282/276 116/293/276 171/296/276 164/283/276
f 171/296/277 122/295/277 99/289/277 167/287/277
f 164/283/278 171/296/278 167/287/278 165/284/278

