mtllib anim_barb_attack_000072.mtl

o fat
usemtl fat.001
s off

v -0.137810 38.707630 -3.609700
v 1.860240 36.144421 6.136090
v 0.318890 37.897259 1.509700
v 0.410170 61.185791 -7.718850
v 9.299520 67.009949 -5.974520
v 2.812830 57.360779 -7.028920
v -0.362600 52.941582 -5.334390
v 7.890250 63.024639 -1.878830
v 7.702180 58.387188 -1.148030
v 6.919220 52.739010 -1.243070
v 4.142630 52.835621 -5.376030
v 6.403020 58.190250 -6.191330
v 9.003679 37.503830 4.882100
v 9.352560 39.503929 -1.692810
v 10.561490 39.008938 -2.167630
v 6.412290 38.411011 4.749200
v 3.993900 37.038410 7.078080
v 4.408740 37.296768 -6.691820
v 3.744780 39.182671 -5.718980
v 0.502520 38.465221 -4.570250
v -0.321370 36.005028 -5.193140
v 0.201120 66.793045 -7.046010
v 0.170300 68.824348 -6.833110
v 0.128960 58.711929 6.140350
v 5.379790 58.947273 3.751860
v 6.255160 62.969971 5.226050
v 8.980730 63.004951 2.779420
v 6.123870 65.756721 5.529050
v 11.318440 67.219803 1.204730
v 4.497020 52.921299 4.054040
v 1.102870 52.043339 4.811370
v 0.791740 65.426117 7.258660
v 4.825240 71.425049 -3.262070
v 10.748810 67.895981 -5.447280
v 11.536489 68.731163 -1.861170
v 2.905110 70.345238 5.276280
v 5.512380 72.068298 0.980340
v 0.171630 69.435257 5.872610
v 2.663080 76.186272 3.163350
v 3.279240 74.282249 -0.418900
v 0.247260 74.537613 -1.231930
v 0.175950 77.003159 2.019540
v 0.334850 72.732094 -3.294050
v 0.489180 48.169853 5.421260
v 5.364230 48.318821 5.032270
v 8.418850 47.967072 -0.145200
v 4.990360 47.375561 -5.342270
v -0.188040 47.446781 -6.490910
v 11.740921 66.604218 1.115450
v 9.619800 63.637928 -5.701680
v 13.230551 65.938957 -1.480690
v 12.270620 66.304794 -4.529170
v 9.061920 64.771309 2.902880
v 2.581520 74.887779 8.524990
v 1.180830 73.151413 10.038441
v 2.894370 70.774773 6.495300
v 1.639600 69.433525 8.415979
v 0.698310 71.802979 9.797820
v 1.643460 75.130295 10.108339
v -0.144470 74.965630 10.354100
v 3.177320 76.577545 6.021729
v 0.535690 78.911179 11.015300
v -0.763210 78.825653 11.275789
v 1.701340 76.305161 10.898780
v 2.256590 78.286972 10.140141
v 1.223440 80.607727 8.514410
v -0.414440 80.629395 8.320510
v 0.269850 73.086708 10.558530
v -0.765430 75.665833 10.739410
v -0.900690 73.500618 11.627170
v -0.835060 73.007439 10.924170
v -0.843340 71.437515 10.725109
v 0.535200 68.759186 9.925090
v -0.861440 68.667534 10.406590
v 3.025130 78.890121 6.366500
v 2.543030 80.196266 5.978100
v -0.045170 80.601074 4.849790
v 13.524409 64.444916 1.266130
v 13.964109 63.428070 -2.305570
v 8.875820 57.696289 0.432440
v 10.606910 59.943729 4.068160
v 10.346189 60.776371 -4.230360
v 11.417160 53.898819 2.185070
v 11.701631 49.911682 4.172060
v 11.897140 52.434269 5.869810
v 14.410020 52.932419 0.547200
v 15.722370 55.515991 1.521270
v 14.991360 49.770477 3.970920
v 15.343241 55.863689 3.653690
v 16.561340 51.604801 5.623230
v 13.356629 54.354801 5.033290
v 15.177660 53.262062 7.010590
v 13.352990 55.434261 -0.724910
v 13.912279 54.306179 -0.242860
v 15.064321 60.245800 -0.837440
v 14.387819 61.211983 2.476040
v 12.665359 56.027851 4.593150
v 12.466980 57.340111 -2.695670
v 11.842600 46.768379 10.642839
v 12.094589 48.312332 11.713510
v 13.269180 46.211773 10.344151
v 14.587899 47.327087 11.112221
v 14.155149 48.662239 11.994030
v 15.435990 47.704437 16.953451
v 14.582070 47.358032 16.946890
v 14.429140 47.027969 15.685181
v 15.160780 47.012909 15.053840
v 15.097441 45.329163 15.245210
v 14.391119 49.047897 15.155510
v 15.245980 47.968403 15.390750
v 14.752180 48.505093 17.272690
v 15.243860 47.186321 18.317730
v 14.684160 47.803421 18.446150
v 14.760941 44.453068 17.272499
v 10.553060 44.298866 13.802441
v 10.457911 43.187729 15.428061
v 10.842920 41.817852 17.982300
v 14.362720 45.676048 17.380239
v 11.366470 42.722733 15.161860
v 11.632290 43.563034 13.420630
v 14.124420 43.773121 19.926451
v 3.921370 26.185110 -1.198410
v 7.434230 19.705231 -7.755770
v 5.166040 18.186649 -2.926260
v 9.747220 27.010080 -2.563820
v 12.371830 19.744751 -4.489590
v 6.138390 27.286018 -5.160510
v 8.111240 23.874290 0.619520
v 9.179430 18.265240 0.068820
v 7.888700 25.889721 1.483130
v 7.954090 28.199999 1.182500
v 10.529190 30.861000 -3.020420
v 7.679530 32.626709 3.628150
v 11.956281 8.993481 -5.671490
v 13.255100 6.289160 -6.322930
v 10.040040 6.838190 -8.237700
v 11.152040 6.925340 -3.267410
v 8.469640 8.248370 -5.070030
v 8.442739 5.087780 -5.405510
v 9.486020 1.693550 -8.690110
v 12.465950 2.422150 -9.232080
v 10.414320 1.541760 -0.247480
v 16.308090 3.059910 -1.395910
v 13.266920 4.211440 2.750490
v 16.005110 2.827220 2.758490
v 12.284350 1.846310 4.123120
v -9.572350 66.199959 -4.877860
v -1.892230 57.328941 -7.197300
v -5.936440 63.127750 -0.058930
v -7.318430 58.286762 -1.050060
v -4.956670 52.824348 -3.805320
v -6.374790 52.328690 0.848950
v -5.753590 58.051720 -6.427190
v -9.006149 39.099751 0.146540
v -7.268270 36.710312 6.381600
v -10.268280 38.568779 -0.103860
v -4.827410 37.753212 5.750550
v -5.057970 37.184540 -5.883400
v -4.554060 39.161522 -5.030830
v -1.041260 38.408360 -4.636830
v -4.829290 58.843578 4.079550
v -5.086390 62.772949 6.117900
v -10.121370 62.964676 4.467540
v -4.769800 65.536652 6.585970
v -10.235920 67.921761 3.903860
v -2.454760 51.923271 4.894180
v -11.446680 67.425888 -3.294570
v -4.955480 71.338715 -2.919680
v -11.559700 68.765572 1.098580
v -2.595220 70.320450 5.300060
v -5.923710 72.109467 1.218220
v -2.505460 76.266090 2.678020
v -2.831450 74.317581 -0.654390
v -3.837170 47.914547 5.886670
v -7.887930 47.665840 1.273540
v -5.416080 47.271809 -4.335800
v -11.483069 66.489899 3.585120
v -9.572850 62.345711 -3.423380
v -13.193609 66.661720 1.214170
v -12.598810 64.310249 -1.683550
v -9.714340 63.794479 3.786970
v -2.612380 73.222664 9.634270
v -3.597380 75.003860 7.866620
v -3.200620 70.847122 6.152850
v -2.856860 69.517998 7.936870
v -2.140420 71.856308 9.495360
v -1.316860 74.987648 10.229210
v -3.005530 75.217628 9.612980
v -3.589360 76.704689 5.300730
v -1.974020 78.958328 10.747880
v -3.184930 76.396957 10.378140
v -3.493930 78.395020 9.527411
v -2.056070 80.669334 8.165000
v -1.834430 73.126251 10.334311
v -2.120930 68.809090 9.642059
v -3.427430 79.011330 5.678990
v -2.826160 80.297134 5.406000
v -12.684700 63.983597 3.806200
v -13.762680 62.825897 0.384050
v -9.145430 59.743530 6.094220
v -7.816381 57.519478 2.298370
v -10.389490 60.326912 -2.162920
v -10.220090 49.315071 5.375160
v -9.769210 53.506081 4.663230
v -9.770110 52.759052 6.366990
v -12.877890 52.339600 3.383910
v -14.191429 54.914169 4.444980
v -12.609210 49.465862 7.026540
v -13.612440 55.291172 6.528280
v -12.808770 51.409039 9.348420
v -10.619499 53.145592 9.944480
v -11.408120 53.941769 7.678650
v -12.152740 54.853901 1.882800
v -12.519230 53.773533 2.505540
v -14.312981 59.538250 1.925800
v -13.217460 60.670528 5.086420
v -10.571230 56.341099 6.369460
v -11.688690 56.699471 -0.227440
v -6.878119 45.641331 10.957380
v -6.666950 46.665112 11.667790
v -8.889600 45.064438 11.264971
v -9.176750 46.302380 12.725520
v -8.007040 47.343170 13.144489
v -5.738370 45.018593 17.371120
v -6.305520 45.827560 17.842840
v -6.288730 44.881950 16.375370
v -7.392440 45.432480 16.159630
v -7.674410 43.759682 16.254089
v -7.006930 46.313110 16.490971
v -6.058040 47.071949 15.913920
v -5.384660 46.409439 17.686121
v -5.494820 45.056053 18.798740
v -4.828090 45.516510 18.566540
v -6.459030 42.501141 17.641479
v -5.020680 40.862141 13.236629
v -5.428770 42.303410 12.213140
v -4.623230 39.037003 15.226181
v -6.005370 43.311264 17.400000
v -5.555740 40.511818 13.872680
v -6.557650 41.671219 12.669670
v -5.031190 41.051502 19.110449
v -6.751060 18.992701 -6.805380
v -3.220660 25.671200 -0.209870
v -4.404820 17.654930 -2.192490
v -11.643810 19.130100 -3.577820
v -9.070810 26.510689 -1.511670
v -5.489470 27.207150 -4.007030
v -7.293360 23.168991 1.430490
v -8.375540 17.667801 0.827670
v -7.160360 25.066021 2.428910
v -6.552380 27.802259 2.366100
v -10.019031 30.340969 -1.216080
v -5.989530 32.196449 4.779080
v -12.424560 5.544640 -4.818830
v -11.149830 8.293590 -4.369460
v -9.261080 6.052440 -6.864600
v -10.279400 6.355640 -1.847260
v -7.592890 4.484470 -3.948410
v -7.645580 7.579480 -3.698780
v -8.567090 0.940710 -7.070260
v -11.577720 1.601200 -7.609660
v -9.320580 1.056950 1.358220
v -15.279690 2.364360 0.290570
v -12.191720 3.733120 4.333810
v -14.886820 2.270640 4.440610
v -11.112190 1.441240 5.756940

vt 0.550479 0.485338
vt 0.414517 0.485338
vt 0.489174 0.497239
vt 0.490853 0.675485
vt 0.356970 0.710738
vt 0.458986 0.602657
vt 0.458693 0.603155
vt 0.491001 0.506534
vt 0.357039 0.710738
vt 0.272881 0.708251
vt 0.307767 0.663467
vt 0.329118 0.504113
vt 0.420682 0.504388
vt 0.307693 0.663467
vt 0.420389 0.504181
vt 0.390374 0.619683
vt 0.389206 0.622726
vt 0.390855 0.620128
vt 0.309151 0.663075
vt 0.578845 0.971377
vt 0.529882 0.993867
vt 0.501054 0.950636
vt 0.597833 0.993868
vt 0.684209 0.993870
vt 0.691613 0.940228
vt 0.584242 0.936155
vt 0.602549 0.993867
vt 0.689094 0.993870
vt 0.694409 0.971380
vt 0.730001 0.975635
vt 0.490853 0.781888
vt 0.490853 0.820915
vt 0.240556 0.660920
vt 0.133663 0.660928
vt 0.131880 0.753091
vt 0.060606 0.782384
vt 0.055577 0.663688
vt 0.136145 0.808744
vt 0.060014 0.783494
vt 0.058190 0.859642
vt 0.160773 0.512959
vt 0.067037 0.515196
vt 0.240700 0.512959
vt 0.131877 0.752996
vt 0.240556 0.781375
vt 0.390182 0.870896
vt 0.298691 0.847983
vt 0.294173 0.886121
vt 0.181129 0.899551
vt 0.052544 0.886601
vt 0.145152 0.921474
vt 0.235241 0.891030
vt 0.142740 0.921054
vt 0.172936 0.966074
vt 0.456563 0.999059
vt 0.389917 0.922986
vt 0.429989 0.941889
vt 0.491140 0.942697
vt 0.490646 0.999330
vt 0.490853 0.898039
vt 0.701416 0.118225
vt 0.813217 0.120956
vt 0.790107 0.184348
vt 0.877923 0.002315
vt 0.872775 0.120438
vt 0.505869 0.118716
vt 0.564263 0.119120
vt 0.507564 0.183764
vt 0.697589 0.180917
vt 0.580429 0.182675
vt 0.710756 0.001536
vt 0.701372 0.182427
vt 0.812168 0.002315
vt 0.857243 0.184348
vt 0.697567 0.116528
vt 0.503935 0.000692
vt 0.561277 0.000692
vt 0.688827 -0.000098
vt 0.002866 0.854679
vt 0.027518 0.706813
vt 0.061197 0.782654
vt 0.055608 0.663958
vt 0.251604 0.781884
vt 0.357109 0.710738
vt 0.243886 0.876138
vt 0.247300 0.848527
vt -0.000514 0.880403
vt 0.006948 0.782948
vt 0.674684 0.829607
vt 0.705811 0.784366
vt 0.654033 0.662928
vt 0.703232 0.671848
vt 0.720473 0.730776
vt 0.697736 0.853617
vt 0.729837 0.853035
vt 0.623758 0.856571
vt 0.587609 0.811448
vt 0.658187 0.605708
vt 0.748523 0.593788
vt 0.716351 0.931575
vt 0.747491 0.935506
vt 0.695349 0.885675
vt 0.676247 0.904603
vt 0.649719 0.961956
vt 0.745560 1.001324
vt 0.725611 0.781438
vt 0.747491 0.878462
vt 0.747491 0.808438
vt 0.720379 0.731031
vt 0.747491 0.790807
vt 0.720762 0.730332
vt 0.748639 0.732530
vt 0.746944 0.628012
vt 0.703659 0.671442
vt 0.731857 0.666086
vt 0.747085 0.666819
vt 0.703186 0.671176
vt 0.611291 0.885598
vt 0.604148 0.909350
vt 0.550618 0.823662
vt 0.550618 0.934468
vt 0.625864 0.557513
vt 0.571978 0.557920
vt 0.578607 0.510287
vt 0.669444 0.510287
vt 0.756032 0.560223
vt 0.679695 0.557918
vt 0.877240 0.461159
vt 0.992418 0.461159
vt 0.944262 0.560223
vt 0.756457 0.510287
vt 0.806202 0.560223
vt 0.498275 0.560223
vt 0.875566 0.382888
vt 0.758260 0.308662
vt 0.875912 0.308662
vt 0.759996 0.360654
vt 0.669163 0.382888
vt 0.671223 0.308662
vt 0.584325 0.382888
vt 0.577057 0.308662
vt 0.498223 0.363687
vt 0.498247 0.308662
vt 0.992597 0.308662
vt 0.992439 0.363687
vt 0.759483 0.410364
vt 0.758924 0.382888
vt 0.665903 0.461159
vt 0.580075 0.461159
vt 0.498223 0.402657
vt 0.992438 0.402657
vt 0.760539 0.449273
vt 0.498220 0.461159
vt 0.875438 0.575163
vt 0.762705 0.196431
vt 0.858161 0.196355
vt 0.690657 0.196417
vt 0.588027 0.196417
vt 0.498144 0.196431
vt 0.991918 0.196431
vt 0.375723 0.009258
vt 0.380090 0.017573
vt 0.356438 0.030356
vt 0.342839 0.029458
vt 0.369327 0.043627
vt 0.316032 0.012201
vt 0.336848 0.019568
vt 0.249292 0.041099
vt 0.371147 0.002582
vt 0.416197 0.004791
vt 0.408124 0.000758
vt 0.128136 0.016613
vt 0.154876 0.002573
vt 0.119423 0.002194
vt 0.160447 0.001473
vt 0.065726 0.014292
vt 0.105093 0.028910
vt 0.000825 0.069213
vt 0.000703 0.039244
vt 0.249314 0.055441
vt 0.429228 0.045736
vt 0.102506 0.115410
vt 0.153549 0.117195
vt 0.189513 0.114692
vt 0.228429 0.109580
vt 0.194639 0.033982
vt 0.406548 0.108121
vt 0.355355 0.108206
vt 0.448349 0.035630
vt 0.498209 0.039288
vt 0.461840 0.047992
vt 0.483032 0.114221
vt 0.406174 0.120334
vt 0.355217 0.119080
vt 0.243215 0.037501
vt 0.249314 0.089732
vt 0.000703 0.095058
vt 0.249292 0.105039
vt 0.160984 0.032072
vt 0.413806 0.033644
vt 0.442212 0.108407
vt 0.443088 0.117732
vt 0.023914 0.327327
vt 0.104127 0.227894
vt 0.000784 0.227894
vt 0.216171 0.327327
vt 0.216985 0.228421
vt 0.105699 0.228145
vt 0.104981 0.327662
vt 0.217575 0.327327
vt 0.351490 0.301452
vt 0.217290 0.227894
vt 0.351571 0.227894
vt 0.352420 0.301452
vt 0.489174 0.227894
vt 0.352342 0.227894
vt 0.471690 0.333380
vt 0.351597 0.328057
vt 0.217345 0.328075
vt 0.352312 0.363299
vt 0.470864 0.334174
vt 0.352330 0.328057
vt 0.216660 0.380224
vt 0.216104 0.328075
vt 0.104983 0.328371
vt 0.217232 0.380224
vt 0.351611 0.363299
vt 0.351459 0.420971
vt 0.352499 0.420971
vt 0.351589 0.497239
vt 0.229465 0.497239
vt 0.352627 0.497239
vt 0.229583 0.497239
vt 0.133020 0.497239
vt 0.072972 0.497239
vt 0.025422 0.328212
vt 0.002386 0.497239
vt 0.216130 0.152222
vt 0.223982 0.125749
vt 0.105883 0.155747
vt 0.351732 0.147623
vt 0.223132 0.128232
vt 0.218721 0.149411
vt 0.469070 0.149411
vt 0.483427 0.127273
vt 0.352306 0.146326
vt 0.017963 0.152222
vt 0.104256 0.155747
vt 0.009616 0.131504
vt 0.104128 0.227914
vt 0.000790 0.227921
vt 0.216984 0.228396
vt 0.351571 0.227971
vt 0.217291 0.227882
vt 0.352342 0.227879
vt 0.489111 0.227891
vt 0.948232 0.041698
vt 0.989968 0.003451
vt 0.971575 0.059997
vt 0.909211 0.004273
vt 0.996004 0.120663
vt 0.925604 0.058708
vt 0.885225 0.122889
vt 0.516483 0.798440
vt 0.501430 0.685191
vt 0.597947 0.686709
vt 0.594444 0.793024
vt 0.950876 0.082499
vt 0.943924 0.157220
vt 0.507177 0.624822
vt 0.600053 0.622523
vt 0.901715 0.182549
vt 0.982420 0.184037
vt 0.730212 0.975635
vt 0.685579 0.991654
vt 0.692830 0.969164

vn -0.669579 -0.740513 -0.057485
vn 0.217240 -0.039463 -0.975320
vn -0.143880 -0.262480 -0.954150
vn 0.940840 0.015190 0.338510
vn 0.824354 -0.104913 -0.556268
vn -0.016836 -0.347408 -0.937563
vn 0.275537 -0.257340 -0.926205
vn 0.926894 -0.298820 -0.227100
vn 0.238803 -0.054592 -0.969532
vn 0.888127 -0.407325 -0.212876
vn -0.456112 -0.844373 -0.281062
vn -0.302631 -0.907261 -0.292049
vn -0.219688 -0.723433 -0.654509
vn -0.143646 -0.844985 0.515137
vn -0.474436 -0.529712 0.703076
vn 0.367428 -0.342025 0.864879
vn 0.378186 -0.315751 0.870216
vn 0.948315 -0.317328 -0.001003
vn 0.113833 0.105265 -0.987907
vn 0.395597 -0.390687 0.831184
vn 0.729130 -0.549192 0.408360
vn 0.650824 -0.078853 0.755122
vn 0.414567 -0.015104 0.909894
vn 0.902326 -0.111303 0.416436
vn 0.252838 -0.153447 0.955263
vn 0.268997 -0.184019 0.945398
vn -0.006226 0.518864 -0.854834
vn 0.113195 0.122534 -0.985988
vn 0.619117 -0.385459 0.684190
vn 0.408093 0.865269 -0.291153
vn 0.312288 -0.088130 0.945891
vn 0.198304 0.651072 -0.732653
vn 0.667539 -0.049327 0.742939
vn 0.515657 0.403365 0.755906
vn 0.580438 0.713255 0.392885
vn 0.269052 0.351607 0.896652
vn 0.157735 0.164288 0.973719
vn 0.784428 0.239464 0.572128
vn 0.750827 0.627996 -0.204643
vn 0.473774 0.706687 -0.525482
vn 0.190746 0.880026 -0.434937
vn 0.513896 0.641736 0.569285
vn 0.400699 0.894013 -0.200454
vn 0.752372 0.622246 -0.216208
vn 0.221459 0.745445 -0.628704
vn 0.232347 0.736647 -0.635111
vn 0.195508 0.653787 -0.730985
vn 0.070902 0.220140 0.972888
vn 0.860315 0.092602 0.501281
vn 0.820784 0.129961 -0.556259
vn -0.009421 -0.007645 -0.999926
vn 0.073248 0.169348 0.982831
vn 0.185401 0.124109 0.974794
vn 0.914484 0.304034 0.266989
vn 0.813848 0.360591 0.455659
vn 0.883656 0.250549 0.395446
vn 0.824942 0.124673 -0.551297
vn 0.214551 0.207688 -0.954376
vn 0.777143 0.309580 -0.547913
vn 0.576963 0.075600 -0.813264
vn 0.216594 0.117275 -0.969192
vn -0.274133 -0.105230 -0.955917
vn 0.389398 0.118357 0.913434
vn 0.804768 0.507720 0.307520
vn 0.970846 -0.075237 -0.227590
vn 0.363510 -0.040777 -0.930698
vn 0.382358 0.129727 0.914862
vn 0.848465 0.486319 -0.208808
vn 0.790238 0.522971 0.319415
vn 0.461116 -0.069410 -0.884621
vn 0.769911 0.563103 -0.300253
vn -0.897205 -0.119614 -0.425106
vn 0.973246 -0.028801 -0.227955
vn -0.591862 0.083238 -0.801730
vn 0.822767 -0.199968 0.532041
vn 0.449124 -0.310227 0.837882
vn 0.142009 -0.068083 0.987521
vn 0.976795 -0.030326 0.212017
vn 0.984482 -0.022178 -0.174078
vn 0.998594 -0.046634 0.025226
vn 0.360740 -0.878657 0.312776
vn 0.193735 0.042830 0.980119
vn 0.911170 -0.102523 0.399072
vn 0.974672 -0.012916 0.223264
vn -0.054129 0.833189 0.550332
vn 0.475324 0.198077 0.857224
vn 0.684976 0.226385 0.692501
vn 0.699335 0.233332 0.675638
vn 0.486845 -0.319292 0.813040
vn 0.313345 -0.404535 0.859166
vn 0.049235 0.849942 0.524570
vn -0.020318 -0.167306 0.985696
vn 0.245438 -0.782677 0.571993
vn 0.531248 -0.109328 0.840133
vn 0.474289 -0.836540 -0.274319
vn 0.864976 -0.107200 0.490229
vn 0.007763 -0.986225 -0.165228
vn 0.513967 0.008320 0.857770
vn 0.810867 -0.018999 0.584922
vn 0.317127 -0.930427 -0.183674
vn 0.330399 -0.109952 0.937415
vn 0.977702 0.092455 -0.188551
vn 0.917813 0.246135 -0.311507
vn 0.767694 -0.383315 0.513532
vn 0.163230 -0.556246 0.814829
vn 0.826305 -0.211612 0.521958
vn 0.056784 -0.442212 0.895111
vn 0.520855 0.633046 0.572681
vn 0.978250 0.033871 0.204644
vn 0.884045 0.398791 0.243783
vn 0.769132 0.559175 0.309449
vn 0.497932 0.184834 0.847290
vn 0.491996 0.509999 -0.705578
vn 0.399783 0.581764 -0.708325
vn 0.151111 0.988484 0.008011
vn 0.030217 0.989010 -0.144725
vn 0.890018 -0.130726 0.436783
vn 0.735134 0.625439 0.261540
vn 0.589257 -0.247580 -0.769077
vn 0.906351 0.344952 -0.244001
vn -0.852559 -0.152160 0.499990
vn 0.962675 0.267316 0.042408
vn 0.589567 -0.245926 -0.769371
vn -0.798087 -0.423147 -0.428957
vn 0.345278 0.346058 0.872369
vn -0.991991 -0.007953 0.126058
vn -0.536135 -0.406841 -0.739621
vn 0.838655 -0.503927 0.206677
vn -0.072747 -0.383315 -0.920748
vn 0.982106 -0.047224 0.182315
vn 0.764288 -0.077468 -0.640205
vn 0.658778 0.723304 -0.206986
vn 0.240499 0.463247 0.852973
vn -0.393526 0.601772 0.694988
vn -0.666841 0.658615 0.348639
vn -0.472582 -0.609873 -0.636177
vn -0.538672 -0.542514 -0.644601
vn 0.687114 0.030466 -0.725910
vn 0.669929 -0.254586 -0.697411
vn 0.969162 0.203869 0.138425
vn 0.969095 0.203744 0.139080
vn 0.328064 0.364788 0.871380
vn -0.760473 -0.324332 0.562574
vn -0.795701 -0.358836 -0.487951
vn -0.491215 -0.726013 -0.481262
vn 0.745449 -0.279290 -0.605230
vn 0.561082 -0.178876 -0.808202
vn 0.941944 0.335140 0.020547
vn 0.949642 0.294086 0.108133
vn 0.346600 0.323455 0.880480
vn 0.240411 0.395888 0.886271
vn -0.963399 -0.065433 0.259964
vn 0.732814 -0.119705 -0.669817
vn -0.529652 -0.558864 -0.638075
vn -0.799521 -0.179560 0.573171
vn 0.333839 0.259196 0.906294
vn -0.763665 -0.233212 0.602020
vn 0.292677 0.276567 0.915342
vn 0.583654 -0.002434 -0.811999
vn -0.558322 -0.600324 -0.572614
vn -0.990725 0.092996 0.099071
vn -0.997882 0.047260 0.044698
vn -0.404478 -0.826058 -0.392461
vn -0.067637 -0.863216 -0.500284
vn 0.802169 -0.586717 -0.110851
vn 0.707171 -0.658057 -0.258594
vn 0.925853 0.052975 0.374152
vn 0.832476 0.311422 0.458257
vn -0.383440 0.716538 0.582706
vn -0.212357 0.795135 0.568036
vn 0.367548 -0.909670 0.193416
vn 0.652797 0.061260 0.755052
vn 0.790892 0.597566 -0.131924
vn 0.766569 0.641278 0.033683
vn 0.782865 0.622114 0.009892
vn 0.780047 0.540562 0.315150
vn 0.721981 0.574613 0.385440
vn 0.707708 -0.677462 -0.200483
vn 0.362112 -0.887194 -0.285941
vn -0.989893 0.139417 0.025990
vn -0.691143 -0.678595 0.248657
vn -0.977551 0.090992 0.190039
vn -0.993034 0.012039 0.117211
vn -0.837456 0.123811 0.532296
vn -0.152056 0.982400 -0.108490
vn 0.886070 0.418647 -0.199037
vn 0.916461 0.288808 0.276929
vn -0.649627 0.644824 0.402724
vn -0.628586 0.641963 0.439047
vn 0.558347 -0.791274 -0.249269
vn 0.552016 -0.780828 -0.292549
vn 0.917238 0.273122 0.289963
vn 0.545825 -0.833806 -0.082713
vn -0.505773 -0.698118 -0.506779
vn -0.608044 -0.674689 -0.418421
vn -0.635508 0.645800 0.423169
vn 0.716170 -0.589671 -0.373348
vn -0.642655 0.533196 0.550179
vn -0.946242 0.273831 -0.172170
vn -0.379716 -0.591502 -0.711296
vn 0.617457 -0.309972 0.722955
vn 0.564141 -0.749919 -0.345494
vn -0.575414 -0.513736 -0.636376
vn 0.988527 -0.036458 -0.146580
vn 0.987540 -0.053952 -0.147831
vn -0.629346 0.619391 0.469338
vn 0.925055 0.278453 0.258336
vn 0.528879 -0.831766 -0.168681
vn -0.505868 -0.789632 -0.347244
vn -0.898614 -0.045571 -0.436366
vn 0.506518 0.387187 -0.770406
vn 0.564247 0.352101 -0.746760
vn 0.814459 0.145332 0.561726
vn 0.800783 0.094430 0.591464
vn -0.584948 -0.188841 0.788781
vn -0.500289 -0.256501 0.826993
vn 0.913752 -0.070548 0.400099
vn -0.549423 0.123092 0.826428
vn 0.560607 -0.208849 -0.801313
vn 0.879139 -0.123958 0.460161
vn 0.885527 -0.181381 0.427719
vn -0.255926 -0.479590 0.839342
vn 0.905230 0.029541 0.423894
vn -0.536936 -0.381669 0.752349
vn -0.874495 0.016470 -0.484754
vn 0.896452 0.113370 0.428393
vn -0.435649 -0.262322 0.861044
vn 0.923406 0.067677 0.377810
vn 0.563868 0.199852 -0.801319
vn 0.411277 0.040001 -0.910632
vn -0.310944 -0.106896 -0.944398
vn -0.768273 -0.359347 -0.529742
vn -0.473756 -0.334123 0.814811
vn -0.957866 -0.281848 -0.055259
vn 0.515459 0.426587 -0.743186
vn 0.818352 0.270941 0.506845
vn -0.583106 -0.080842 0.808364
vn -0.884217 0.056737 -0.463617
vn 0.715626 0.170299 -0.677405
vn -0.910924 -0.170405 -0.375738
vn -0.865172 -0.187244 -0.465207
vn 0.549955 0.070233 -0.832236
vn 0.829458 -0.092614 0.550837
vn 0.931320 0.056138 0.359849
vn -0.631844 -0.317886 0.706910
vn -0.556379 -0.347734 0.754668
vn -0.896281 0.133704 -0.422851
vn -0.203277 0.107474 -0.973205
vn -0.922163 -0.375040 0.094653
vn 0.882015 0.154823 -0.445061
vn 0.241977 -0.969468 -0.039742
vn 0.229946 -0.972263 -0.042763
vn 0.539737 0.817412 0.201300
vn 0.512865 0.446800 -0.733034
vn -0.720065 0.411917 0.558418
vn 0.548909 0.817221 0.175639
vn -0.814843 0.364503 0.450742
vn 0.242162 -0.969544 -0.036643
vn 0.242646 -0.969437 -0.036267
vn 0.449419 0.889495 0.082597
vn 0.211464 0.423399 0.880918
vn -0.802186 0.511761 0.307567
vn 0.236845 -0.924428 -0.298893
vn -0.261658 0.025732 -0.964817
vn 0.279981 -0.290854 -0.914885
vn -0.767046 0.088883 0.635405
vn -0.920286 -0.243390 -0.306324
vn -0.270803 -0.454687 -0.848484
vn -0.256008 -0.464294 -0.847875
vn -0.895096 -0.373066 -0.244182
vn -0.175824 0.103737 -0.978941
vn -0.927399 -0.270814 -0.258052
vn 0.421365 -0.801377 -0.424554
vn 0.267134 -0.872620 -0.408868
vn 0.066298 -0.625546 -0.777365
vn 0.269894 -0.852580 0.447510
vn 0.687734 -0.428130 0.586282
vn -0.206127 -0.278855 0.937951
vn -0.178351 -0.350967 0.919246
vn -0.930261 -0.320138 0.179236
vn -0.221208 0.098331 -0.970257
vn -0.353090 -0.448919 0.820853
vn -0.558717 -0.750671 0.352603
vn -0.405181 0.094047 0.909386
vn -0.384221 -0.023191 0.922950
vn -0.716426 -0.166059 0.677612
vn 0.029289 -0.191246 0.981105
vn -0.122059 -0.151332 0.980918
vn -0.291441 0.557938 -0.777024
vn -0.221551 0.108033 -0.969146
vn -0.292923 -0.455312 0.840766
vn -0.486281 0.832236 -0.266297
vn -0.121660 -0.152181 0.980836
vn -0.306153 0.566581 -0.765020
vn -0.313332 -0.123574 0.941569
vn -0.276973 0.364850 0.888915
vn -0.463090 0.764472 0.448475
vn -0.108097 0.309855 0.944619
vn -0.100146 0.300490 0.948513
vn -0.666054 0.309371 0.678721
vn -0.671812 0.666194 -0.323813
vn -0.345022 0.744231 -0.571909
vn -0.152906 0.859554 -0.487634
vn -0.337690 0.729326 0.595021
vn -0.487257 0.830867 -0.268777
vn -0.665182 0.690457 -0.284256
vn -0.229848 0.687627 -0.688723
vn -0.175127 0.737041 -0.652764
vn -0.224436 0.659327 -0.717577
vn 0.092383 0.209167 0.973506
vn -0.750450 0.097384 0.653714
vn -0.879795 0.248609 -0.405160
vn -0.316334 0.116124 -0.941514
vn 0.095035 0.175762 0.979835
vn 0.017842 0.152751 0.988104
vn -0.839140 0.277633 0.467723
vn -0.726355 0.292351 0.622045
vn -0.642992 0.385573 0.661736
vn -0.954309 0.105664 -0.279518
vn -0.380073 0.178929 -0.907485
vn -0.868599 0.288299 -0.403014
vn -0.731106 0.078032 -0.677787
vn -0.381657 0.126915 -0.915549
vn 0.115600 -0.113276 -0.986816
vn -0.063441 0.063423 0.995968
vn -0.709154 0.509094 0.487774
vn -0.699148 0.329502 -0.634524
vn -0.714487 -0.246942 -0.654620
vn -0.350379 0.097826 0.931485
vn -0.677822 0.496630 -0.542140
vn -0.662070 0.542586 0.516975
vn -0.580643 -0.194124 -0.790676
vn -0.949529 0.292390 -0.113590
vn 0.685505 -0.257137 -0.681148
vn -0.716226 -0.197620 -0.669303
vn -0.502362 -0.387532 -0.772950
vn -0.928924 -0.213416 0.302579
vn -0.626742 -0.290016 0.723246
vn -0.349276 -0.058850 0.935170
vn -0.995931 -0.073651 -0.051932
vn -0.922848 -0.143667 -0.357366
vn -0.844869 -0.131508 -0.518557
vn -0.346636 -0.887950 0.302306
vn -0.394117 0.053884 0.917479
vn -0.977951 -0.067029 0.197783
vn -0.999624 0.024176 0.012902
vn -0.032095 0.832773 0.552684
vn -0.637534 0.218977 0.738647
vn -0.806572 0.254400 0.533594
vn -0.816797 0.261814 0.514097
vn -0.658688 -0.297771 0.690987
vn -0.502094 -0.389208 0.772281
vn -0.127028 0.853253 0.505789
vn -0.193988 -0.164044 0.967191
vn -0.389318 -0.770748 0.504361
vn -0.699976 -0.086198 0.708946
vn -0.368092 -0.778196 -0.508840
vn -0.983999 -0.016353 0.177420
vn -0.008322 -0.985617 -0.168790
vn -0.682440 0.030793 0.730293
vn -0.916013 0.013442 0.400923
vn -0.223375 -0.930461 -0.290422
vn -0.524298 -0.093894 0.846343
vn -0.908679 0.128912 -0.397094
vn -0.818595 0.275823 -0.503810
vn -0.872330 -0.352508 0.338788
vn -0.351757 -0.546574 0.759950
vn -0.924985 -0.178708 0.335359
vn -0.260432 -0.436234 0.861322
vn -0.605914 0.654214 0.452628
vn -0.997460 0.070988 -0.005868
vn -0.900127 0.432309 0.053677
vn -0.795748 0.588574 0.142709
vn -0.658012 0.206555 0.724124
vn -0.334742 0.509719 -0.792549
vn -0.219665 0.594793 -0.773284
vn -0.112591 0.993438 -0.020087
vn 0.037693 0.988871 -0.143924
vn -0.899530 -0.003232 0.436847
vn -0.729719 0.398847 0.555365
vn -0.639369 -0.407189 -0.652231
vn -0.908816 0.212525 -0.359008
vn 0.951189 0.242384 0.191023
vn -0.958209 0.082906 0.273791
vn -0.672984 -0.176273 -0.718345
vn 0.616507 -0.581092 -0.531273
vn 0.011693 0.082300 0.996539
vn 0.992081 -0.115223 -0.049997
vn 0.435201 -0.196088 -0.878720
vn -0.804845 -0.524828 0.277093
vn -0.517902 -0.484466 -0.705032
vn -0.947447 -0.138502 0.288379
vn -0.984837 -0.165034 0.053471
vn -0.628017 0.639578 0.443321
vn -0.071935 0.576420 0.813981
vn 0.616171 0.785211 0.061456
vn 0.701034 0.652970 0.286673
vn 0.435661 -0.604799 -0.666646
vn 0.479582 -0.554639 -0.679983
vn -0.780251 -0.091932 -0.618673
vn -0.740779 -0.336281 -0.581517
vn -0.950341 0.129250 0.283101
vn -0.960649 0.135523 0.242460
vn -0.131603 0.509798 0.850169
vn 0.826873 -0.308463 0.470247
vn 0.601513 -0.472411 -0.644212
vn 0.484658 -0.708457 -0.513026
vn -0.793122 -0.361256 -0.490359
vn -0.684228 -0.212606 -0.697589
vn -0.943358 0.256556 0.210369
vn -0.940106 0.243397 0.238660
vn 0.037348 0.498523 0.866071
vn -0.140910 0.376479 0.915646
vn 0.716907 0.051910 0.695233
vn -0.792468 -0.161975 -0.588012
vn 0.485619 -0.541730 -0.686077
vn 0.875242 -0.042379 0.481824
vn -0.039890 0.261422 0.964400
vn 0.836661 -0.088611 0.540507
vn -0.201968 0.162763 0.965773
vn -0.704504 -0.120821 -0.699340
vn 0.537339 -0.538689 -0.648907
vn 0.904721 0.100630 -0.413950
vn 0.866289 0.030410 -0.498617
vn 0.134532 -0.788842 -0.599691
vn -0.382990 -0.787947 -0.482139
vn -0.850534 -0.436997 0.292620
vn -0.858006 -0.462537 0.223349
vn -0.490296 0.210581 0.845734
vn -0.446240 0.269684 0.853311
vn 0.866268 0.475141 0.154337
vn 0.691241 0.641448 0.332763
vn -0.604684 -0.672640 0.426514
vn -0.152018 0.081245 0.985033
vn -0.425663 0.821230 0.379989
vn -0.419688 0.786304 0.453418
vn -0.355893 0.805431 0.473942
vn -0.269879 0.624500 0.732915
vn -0.175227 0.633697 0.753474
vn -0.848953 -0.448599 0.279352
vn -0.767460 -0.623945 0.147299
vn 0.807898 -0.073017 -0.584782
vn 0.549708 -0.832253 -0.071941
vn 0.906893 -0.140680 -0.397182
vn 0.870345 -0.187616 -0.455302
vn 0.983075 -0.130623 -0.128461
vn 0.323735 0.936303 -0.136135
vn -0.685759 0.612335 0.393422
vn -0.431030 0.447518 0.783544
vn 0.958007 0.285994 0.020757
vn 0.958561 0.277763 0.063317
vn -0.782384 -0.608305 0.133569
vn -0.800136 -0.592132 0.095717
vn -0.374904 0.451322 0.809787
vn -0.794911 -0.568688 0.211449
vn -0.416188 -0.601852 -0.681587
vn 0.086654 -0.680294 -0.727799
vn 0.935893 0.343156 -0.079675
vn -0.921729 -0.365810 0.128838
vn 0.960723 0.276152 0.027415
vn 0.844579 0.176553 -0.505485
vn -0.026198 -0.397678 -0.917151
vn -0.292511 -0.221925 0.930154
vn -0.834039 -0.548464 0.059711
vn -0.141002 -0.401650 -0.904873
vn -0.851178 0.188265 0.489952
vn -0.855696 0.171800 0.488128
vn 0.967922 0.234112 0.091208
vn -0.384409 0.454740 0.803394
vn -0.865925 -0.497154 0.054876
vn -0.259512 -0.736921 -0.624180
vn 0.889041 -0.018186 -0.457466
vn -0.499243 0.390566 -0.773443
vn -0.581160 0.340975 -0.738911
vn -0.791969 0.107858 0.600959
vn -0.785922 0.087532 0.612099
vn 0.592493 -0.202009 0.779836
vn 0.500465 -0.276812 0.820311
vn -0.910144 -0.141183 0.389493
vn 0.564580 -0.106661 0.818458
vn -0.560208 -0.075023 -0.824947
vn -0.776694 -0.237304 0.583466
vn -0.775004 -0.225013 0.590540
vn 0.317256 -0.487367 0.813525
vn -0.850794 0.200195 0.485872
vn 0.548822 -0.419138 0.723269
vn 0.864505 0.037964 -0.501188
vn -0.793262 0.059969 0.605921
vn 0.618549 -0.259050 0.741816
vn -0.831298 0.009675 0.555742
vn -0.746117 0.185752 -0.639379
vn -0.539248 -0.029882 -0.841617
vn 0.091469 -0.092075 -0.991542
vn 0.746167 -0.328864 -0.578863
vn 0.630951 -0.284199 0.721894
vn 0.943209 -0.240894 -0.228752
vn -0.545063 0.375305 -0.749701
vn -0.811311 0.293573 0.505558
vn 0.591160 -0.054838 0.804688
vn 0.878846 0.053203 -0.474131
vn -0.722892 0.143312 -0.675935
vn 0.908596 -0.174503 -0.379477
vn 0.848731 -0.199794 -0.489630
vn -0.549587 0.035922 -0.834664
vn -0.813004 -0.079201 0.576847
vn -0.925859 0.067927 0.371713
vn 0.635449 -0.277348 0.720613
vn 0.577039 -0.299216 0.759932
vn 0.889895 0.138305 -0.434694
vn 0.189821 0.065185 -0.979652
vn 0.937792 -0.335737 0.088467
vn -0.895566 0.112357 -0.430507
vn -0.213339 -0.976962 -0.005595
vn -0.562913 0.805173 0.186614
vn -0.541441 0.405104 -0.736704
vn 0.723175 0.448569 0.525171
vn -0.571502 0.803984 0.164304
vn 0.812408 0.402330 0.422046
vn -0.214012 -0.976829 -0.001799
vn -0.213988 -0.976835 -0.001818
vn -0.473964 0.878164 0.064699
vn -0.206453 0.444130 0.871852
vn 0.792513 0.544208 0.275248
vn -0.063668 -0.991785 -0.110949

f 1/1/1 2/2/1 3/3/1
f 4/4/2 5/5/2 6/6/2
f 4/4/3 6/7/3 7/8/3
f 5/9/4 8/10/4 9/11/4
f 10/12/5 11/13/5 9/14/5
f 6/6/6 11/15/6 7/8/6
f 6/6/7 12/16/7 11/13/7
f 12/17/8 5/5/8 9/14/8
f 6/6/9 5/5/9 12/17/9
f 11/13/10 12/18/10 9/19/10
f 13/20/11 14/21/11 15/22/11
f 14/21/12 13/20/12 16/23/12
f 16/24/13 13/20/13 17/25/13
f 15/22/14 14/21/14 18/26/14
f 14/21/15 19/27/15 18/26/15
f 18/26/16 20/28/16 21/29/16
f 18/26/17 19/27/17 20/28/17
f 20/28/18 3/30/18 21/29/18
f 5/9/19 22/31/19 23/32/19
f 24/33/20 25/34/20 26/35/20
f 27/36/21 25/34/21 9/37/21
f 28/38/22 27/39/22 29/40/22
f 30/41/23 25/34/23 24/33/23
f 25/34/24 30/41/24 10/42/24
f 30/41/25 24/33/25 31/43/25
f 24/33/26 26/44/26 32/45/26
f 33/46/27 34/47/27 5/9/27
f 4/4/28 22/31/28 5/9/28
f 26/35/29 25/34/29 27/39/29
f 33/46/30 35/48/30 34/47/30
f 32/45/31 26/35/31 28/38/31
f 23/32/32 33/46/32 5/9/32
f 26/35/33 27/39/33 28/38/33
f 28/38/34 29/40/34 36/49/34
f 35/50/35 37/51/35 29/40/35
f 28/38/36 38/52/36 32/45/36
f 36/49/37 38/52/37 28/38/37
f 36/49/38 37/53/38 39/54/38
f 39/55/39 37/56/39 40/57/39
f 41/58/40 42/59/40 39/55/40
f 39/55/41 40/57/41 41/58/41
f 36/49/42 29/40/42 37/51/42
f 37/56/43 35/48/43 33/46/43
f 37/56/44 33/46/44 40/57/44
f 40/57/45 33/46/45 43/60/45
f 40/57/46 43/60/46 41/58/46
f 33/46/47 23/32/47 43/60/47
f 44/61/48 45/62/48 30/63/48
f 15/64/49 46/65/49 45/62/49
f 46/66/50 47/67/50 10/68/50
f 47/67/51 7/69/51 11/70/51
f 45/62/52 44/61/52 17/71/52
f 44/61/53 30/63/53 31/72/53
f 13/73/54 15/64/54 45/62/54
f 46/65/55 10/74/55 45/62/55
f 45/62/56 10/74/56 30/63/56
f 47/67/57 11/70/57 10/68/57
f 47/67/58 48/75/58 7/69/58
f 46/66/59 15/76/59 47/67/59
f 18/77/60 47/67/60 15/76/60
f 47/67/61 18/77/61 48/75/61
f 18/77/62 21/78/62 48/75/62
f 13/73/63 45/62/63 17/71/63
f 49/79/64 35/50/64 29/40/64
f 8/80/65 27/81/65 9/82/65
f 34/47/66 50/83/66 5/84/66
f 27/36/67 49/79/67 29/40/67
f 35/48/68 51/85/68 52/86/68
f 35/50/69 49/79/69 51/87/69
f 52/86/70 50/83/70 34/47/70
f 35/48/71 52/86/71 34/47/71
f 5/84/72 50/83/72 8/10/72
f 53/88/73 27/81/73 8/80/73
f 53/88/74 49/79/74 27/36/74
f 54/89/75 55/90/75 56/91/75
f 57/92/76 55/90/76 58/93/76
f 59/94/77 60/95/77 55/90/77
f 61/96/78 54/89/78 56/91/78
f 39/97/79 61/96/79 36/98/79
f 36/98/80 61/96/80 56/91/80
f 36/98/81 56/91/81 38/99/81
f 62/100/82 63/101/82 64/102/82
f 65/103/83 64/102/83 54/89/83
f 61/96/84 65/103/84 54/89/84
f 66/104/85 67/105/85 62/100/85
f 55/90/86 60/95/86 68/106/86
f 69/107/87 68/106/87 60/95/87
f 69/107/88 70/108/88 68/106/88
f 58/109/89 55/90/89 68/106/89
f 68/106/90 71/110/90 58/111/90
f 62/100/91 67/105/91 63/101/91
f 64/102/92 63/101/92 69/107/92
f 70/108/93 71/110/93 68/106/93
f 58/111/94 71/110/94 72/112/94
f 56/91/95 57/92/95 38/113/95
f 55/90/96 57/114/96 56/91/96
f 73/115/97 74/116/97 38/113/97
f 58/109/98 72/112/98 73/115/98
f 57/117/99 58/111/99 73/115/99
f 57/92/100 73/115/100 38/113/100
f 73/115/101 72/112/101 74/116/101
f 39/97/102 75/118/102 61/96/102
f 75/118/103 39/97/103 76/119/103
f 64/102/104 59/94/104 54/89/104
f 64/102/105 60/95/105 59/94/105
f 54/89/106 59/94/106 55/90/106
f 64/102/107 69/107/107 60/95/107
f 65/103/108 66/104/108 62/100/108
f 65/103/109 61/96/109 75/118/109
f 75/118/110 76/119/110 65/103/110
f 66/104/111 65/103/111 76/119/111
f 62/100/112 64/102/112 65/103/112
f 39/97/113 42/120/113 76/119/113
f 77/121/114 76/119/114 42/120/114
f 67/105/115 76/119/115 77/121/115
f 66/104/116 76/119/116 67/105/116
f 9/82/117 25/34/117 10/42/117
f 51/122/118 49/123/118 78/124/118
f 79/125/119 50/126/119 52/127/119
f 52/127/120 51/122/120 79/125/120
f 80/128/121 81/129/121 53/130/121
f 51/122/122 78/124/122 79/125/122
f 82/131/123 50/126/123 79/125/123
f 50/126/124 82/131/124 8/132/124
f 53/133/125 78/124/125 49/123/125
f 83/134/126 84/135/126 85/136/126
f 84/135/127 83/134/127 86/137/127
f 86/137/128 87/138/128 84/135/128
f 88/139/129 84/135/129 87/138/129
f 87/138/130 89/140/130 88/139/130
f 90/141/131 88/139/131 89/140/131
f 91/142/132 92/143/132 90/141/132
f 90/141/133 89/140/133 91/142/133
f 85/136/134 92/144/134 91/145/134
f 91/145/135 83/134/135 85/136/135
f 80/128/136 93/146/136 83/134/136
f 94/147/137 83/134/137 93/146/137
f 93/146/138 87/138/138 94/147/138
f 87/138/139 93/146/139 95/148/139
f 95/148/140 96/149/140 87/138/140
f 89/140/141 87/138/141 96/149/141
f 97/150/142 91/142/142 89/140/142
f 97/151/143 81/129/143 80/128/143
f 8/132/144 82/131/144 80/128/144
f 93/146/145 80/128/145 98/152/145
f 98/152/146 95/148/146 93/146/146
f 95/148/147 82/131/147 79/125/147
f 79/125/148 78/124/148 95/148/148
f 96/149/149 95/148/149 78/124/149
f 78/124/150 53/133/150 81/153/150
f 81/153/151 96/149/151 78/124/151
f 80/128/152 53/130/152 8/154/152
f 94/147/153 87/138/153 86/137/153
f 86/137/154 83/134/154 94/147/154
f 97/151/155 83/134/155 91/145/155
f 89/140/156 96/149/156 97/150/156
f 80/128/157 83/134/157 97/151/157
f 81/153/158 97/150/158 96/149/158
f 82/131/159 95/148/159 98/152/159
f 98/152/160 80/128/160 82/131/160
f 85/136/161 99/155/161 100/156/161
f 99/155/162 85/136/162 84/135/162
f 84/135/163 101/157/163 99/155/163
f 101/157/164 84/135/164 88/139/164
f 88/139/165 90/141/165 101/157/165
f 102/158/166 101/157/166 90/141/166
f 90/141/167 103/159/167 102/158/167
f 103/159/168 90/141/168 92/143/168
f 92/144/169 85/136/169 103/160/169
f 100/156/170 103/160/170 85/136/170
f 104/161/171 105/162/171 106/163/171
f 107/164/172 106/163/172 108/165/172
f 109/166/173 110/167/173 103/168/173
f 109/166/174 111/169/174 104/161/174
f 104/161/175 110/167/175 109/166/175
f 104/161/176 111/169/176 112/170/176
f 113/171/177 112/170/177 111/169/177
f 106/163/178 110/167/178 104/161/178
f 104/161/179 112/170/179 105/162/179
f 105/172/180 113/173/180 111/174/180
f 113/173/181 105/172/181 112/175/181
f 105/172/182 111/174/182 109/176/182
f 109/176/183 106/177/183 105/172/183
f 109/176/184 100/178/184 106/177/184
f 103/179/185 100/178/185 109/176/185
f 102/180/186 103/168/186 110/167/186
f 106/163/187 114/181/187 108/165/187
f 115/182/188 116/183/188 106/177/188
f 116/184/189 117/185/189 118/186/189
f 108/165/190 114/181/190 119/187/190
f 119/187/191 120/188/191 108/165/191
f 118/189/192 121/190/192 114/191/192
f 114/191/193 121/190/193 117/192/193
f 116/193/194 115/194/194 119/187/194
f 120/188/195 119/187/195 115/194/195
f 121/195/196 118/186/196 117/185/196
f 108/165/197 101/196/197 102/180/197
f 115/182/198 106/177/198 100/178/198
f 100/178/199 99/197/199 115/182/199
f 120/188/200 99/198/200 101/196/200
f 106/163/201 107/164/201 110/167/201
f 108/165/202 120/188/202 101/196/202
f 120/188/203 115/194/203 99/198/203
f 107/164/204 102/180/204 110/167/204
f 102/180/205 107/164/205 108/165/205
f 118/199/206 106/177/206 116/183/206
f 114/181/207 106/163/207 118/200/207
f 114/191/208 117/192/208 119/201/208
f 117/192/209 116/202/209 119/201/209
f 122/203/210 123/204/210 124/205/210
f 125/206/211 126/207/211 123/208/211
f 125/206/212 123/208/212 127/209/212
f 125/210/213 128/211/213 126/212/213
f 128/211/214 129/213/214 126/212/214
f 128/214/215 124/215/215 129/216/215
f 122/217/216 124/215/216 128/214/216
f 130/218/217 128/211/217 125/219/217
f 131/220/218 122/221/218 130/222/218
f 132/223/219 125/224/219 127/225/219
f 132/226/220 131/227/220 125/219/220
f 133/228/221 131/227/221 132/226/221
f 133/229/222 122/221/222 131/220/222
f 130/218/223 125/219/223 131/227/223
f 128/214/224 130/222/224 122/221/224
f 127/209/225 123/204/225 122/203/225
f 16/230/226 133/228/226 14/231/226
f 16/232/227 3/3/227 133/229/227
f 14/231/228 133/228/228 132/226/228
f 14/233/229 132/223/229 19/234/229
f 132/223/230 127/225/230 19/234/230
f 20/235/231 19/234/231 127/225/231
f 20/235/232 127/225/232 122/236/232
f 3/3/233 122/221/233 133/229/233
f 3/237/234 20/235/234 122/236/234
f 134/238/235 135/239/235 136/240/235
f 137/241/236 135/242/236 134/243/236
f 138/244/237 139/245/237 137/246/237
f 138/247/238 136/248/238 139/249/238
f 134/238/239 136/240/239 123/208/239
f 138/247/240 123/250/240 136/248/240
f 123/250/241 138/247/241 124/251/241
f 134/238/242 123/208/242 126/252/242
f 129/253/243 134/243/243 126/254/243
f 137/241/244 134/243/244 129/253/244
f 138/244/245 137/246/245 129/255/245
f 138/244/246 129/255/246 124/256/246
f 136/257/247 140/258/247 139/259/247
f 136/257/248 141/260/248 140/258/248
f 142/261/249 139/259/249 140/258/249
f 135/262/250 143/263/250 141/260/250
f 141/264/251 143/265/251 142/266/251
f 142/266/252 140/267/252 141/264/252
f 137/268/253 143/263/253 135/262/253
f 135/262/254 141/260/254 136/257/254
f 139/259/255 142/261/255 137/268/255
f 137/268/256 144/269/256 143/263/256
f 137/268/257 142/261/257 144/269/257
f 143/265/258 145/270/258 146/271/258
f 146/271/259 142/266/259 143/265/259
f 143/263/260 144/269/260 145/272/260
f 144/269/261 146/273/261 145/272/261
f 146/273/262 144/269/262 142/261/262
f 3/274/263 16/275/263 17/276/263
f 147/5/264 4/4/264 148/6/264
f 148/7/265 4/4/265 7/8/265
f 149/10/266 147/9/266 150/11/266
f 151/13/267 152/12/267 150/14/267
f 151/15/268 148/6/268 7/8/268
f 153/16/269 148/6/269 151/13/269
f 147/5/270 153/17/270 150/14/270
f 147/5/271 148/6/271 153/17/271
f 153/18/272 151/13/272 150/19/272
f 154/21/273 155/20/273 156/22/273
f 155/20/274 154/21/274 157/23/274
f 155/20/275 157/24/275 17/25/275
f 154/21/276 156/22/276 158/26/276
f 159/27/277 154/21/277 158/26/277
f 160/28/278 158/26/278 21/29/278
f 159/27/279 158/26/279 160/28/279
f 3/30/280 160/28/280 21/29/280
f 22/31/281 147/9/281 23/32/281
f 161/34/282 24/33/282 162/35/282
f 161/34/283 163/36/283 150/37/283
f 163/39/284 164/38/284 165/40/284
f 161/34/285 166/41/285 24/33/285
f 166/41/286 161/34/286 152/42/286
f 24/33/287 166/41/287 31/43/287
f 162/44/288 24/33/288 32/45/288
f 167/47/289 168/46/289 147/9/289
f 22/31/290 4/4/290 147/9/290
f 161/34/291 162/35/291 163/39/291
f 169/48/292 168/46/292 167/47/292
f 162/35/293 32/45/293 164/38/293
f 168/46/294 23/32/294 147/9/294
f 163/39/295 162/35/295 164/38/295
f 165/40/296 164/38/296 170/49/296
f 171/51/297 169/50/297 165/40/297
f 38/52/298 164/38/298 32/45/298
f 38/52/299 170/49/299 164/38/299
f 171/53/300 170/49/300 172/54/300
f 171/56/301 172/55/301 173/57/301
f 42/59/302 41/58/302 172/55/302
f 173/57/303 172/55/303 41/58/303
f 165/40/304 170/49/304 171/51/304
f 169/48/305 171/56/305 168/46/305
f 168/46/306 171/56/306 173/57/306
f 168/46/307 173/57/307 43/60/307
f 43/60/308 173/57/308 41/58/308
f 23/32/309 168/46/309 43/60/309
f 174/62/310 44/61/310 166/63/310
f 175/65/311 156/64/311 174/62/311
f 176/67/312 175/66/312 152/68/312
f 7/69/313 176/67/313 151/70/313
f 44/61/314 174/62/314 17/71/314
f 166/63/315 44/61/315 31/72/315
f 156/64/316 155/73/316 174/62/316
f 152/74/317 175/65/317 174/62/317
f 152/74/318 174/62/318 166/63/318
f 151/70/319 176/67/319 152/68/319
f 48/75/320 176/67/320 7/69/320
f 156/76/321 175/66/321 176/67/321
f 176/67/322 158/77/322 156/76/322
f 158/77/323 176/67/323 48/75/323
f 21/78/324 158/77/324 48/75/324
f 174/62/325 155/73/325 17/71/325
f 169/50/326 177/79/326 165/40/326
f 163/81/327 149/80/327 150/82/327
f 178/83/328 167/47/328 147/84/328
f 177/79/329 163/36/329 165/40/329
f 179/85/330 169/48/330 180/86/330
f 177/79/331 169/50/331 179/87/331
f 178/83/332 180/86/332 167/47/332
f 180/86/333 169/48/333 167/47/333
f 178/83/334 147/84/334 149/10/334
f 163/81/335 181/88/335 149/80/335
f 177/79/336 181/88/336 163/36/336
f 182/90/337 183/89/337 184/91/337
f 182/90/338 185/92/338 186/93/338
f 187/95/339 188/94/339 182/90/339
f 183/89/340 189/96/340 184/91/340
f 189/96/341 172/97/341 170/98/341
f 189/96/342 170/98/342 184/91/342
f 184/91/343 170/98/343 38/99/343
f 63/101/344 190/100/344 191/102/344
f 191/102/345 192/103/345 183/89/345
f 192/103/346 189/96/346 183/89/346
f 67/105/347 193/104/347 190/100/347
f 187/95/348 182/90/348 194/106/348
f 194/106/349 69/107/349 187/95/349
f 70/108/350 69/107/350 194/106/350
f 182/90/351 186/109/351 194/106/351
f 71/110/352 194/106/352 186/111/352
f 67/105/353 190/100/353 63/101/353
f 63/101/354 191/102/354 69/107/354
f 71/110/355 70/108/355 194/106/355
f 71/110/356 186/111/356 72/112/356
f 185/92/357 184/91/357 38/113/357
f 185/114/358 182/90/358 184/91/358
f 74/116/359 195/115/359 38/113/359
f 72/112/360 186/109/360 195/115/360
f 186/111/361 185/117/361 195/115/361
f 195/115/362 185/92/362 38/113/362
f 72/112/363 195/115/363 74/116/363
f 196/118/364 172/97/364 189/96/364
f 172/97/365 196/118/365 197/119/365
f 188/94/366 191/102/366 183/89/366
f 187/95/367 191/102/367 188/94/367
f 188/94/368 183/89/368 182/90/368
f 69/107/369 191/102/369 187/95/369
f 193/104/370 192/103/370 190/100/370
f 189/96/371 192/103/371 196/118/371
f 197/119/372 196/118/372 192/103/372
f 192/103/373 193/104/373 197/119/373
f 191/102/374 190/100/374 192/103/374
f 42/120/375 172/97/375 197/119/375
f 197/119/376 77/121/376 42/120/376
f 197/119/377 67/105/377 77/121/377
f 197/119/378 193/104/378 67/105/378
f 161/34/379 150/82/379 152/42/379
f 177/123/380 179/122/380 198/124/380
f 178/126/381 199/125/381 180/127/381
f 179/122/382 180/127/382 199/125/382
f 200/129/383 201/128/383 181/130/383
f 198/124/384 179/122/384 199/125/384
f 178/126/385 202/131/385 199/125/385
f 202/131/386 178/126/386 149/132/386
f 198/124/387 181/133/387 177/123/387
f 203/135/388 204/134/388 205/136/388
f 204/134/389 203/135/389 206/137/389
f 207/138/390 206/137/390 203/135/390
f 203/135/391 208/139/391 207/138/391
f 209/140/392 207/138/392 208/139/392
f 208/139/393 210/141/393 209/140/393
f 211/143/394 212/142/394 210/141/394
f 209/140/395 210/141/395 212/142/395
f 211/144/396 205/136/396 212/145/396
f 204/134/397 212/145/397 205/136/397
f 213/146/398 201/128/398 204/134/398
f 204/134/399 214/147/399 213/146/399
f 207/138/400 213/146/400 214/147/400
f 213/146/401 207/138/401 215/148/401
f 216/149/402 215/148/402 207/138/402
f 207/138/403 209/140/403 216/149/403
f 212/142/404 217/150/404 209/140/404
f 200/129/405 217/151/405 201/128/405
f 202/131/406 149/132/406 201/128/406
f 201/128/407 213/146/407 218/152/407
f 215/148/408 218/152/408 213/146/408
f 202/131/409 215/148/409 199/125/409
f 198/124/410 199/125/410 215/148/410
f 215/148/411 216/149/411 198/124/411
f 181/133/412 198/124/412 200/153/412
f 216/149/413 200/153/413 198/124/413
f 181/130/414 201/128/414 149/154/414
f 207/138/415 214/147/415 206/137/415
f 204/134/416 206/137/416 214/147/416
f 204/134/417 217/151/417 212/145/417
f 216/149/418 209/140/418 217/150/418
f 204/134/419 201/128/419 217/151/419
f 217/150/420 200/153/420 216/149/420
f 215/148/421 202/131/421 218/152/421
f 201/128/422 218/152/422 202/131/422
f 219/155/423 205/136/423 220/156/423
f 205/136/424 219/155/424 203/135/424
f 221/157/425 203/135/425 219/155/425
f 203/135/426 221/157/426 208/139/426
f 210/141/427 208/139/427 221/157/427
f 221/157/428 222/158/428 210/141/428
f 223/159/429 210/141/429 222/158/429
f 210/141/430 223/159/430 211/143/430
f 205/136/431 211/144/431 223/160/431
f 223/160/432 220/156/432 205/136/432
f 224/162/433 225/161/433 226/163/433
f 226/163/434 227/164/434 228/165/434
f 229/167/435 230/166/435 223/168/435
f 231/169/436 230/166/436 225/161/436
f 229/167/437 225/161/437 230/166/437
f 231/169/438 225/161/438 232/170/438
f 232/170/439 233/171/439 231/169/439
f 229/167/440 226/163/440 225/161/440
f 232/170/441 225/161/441 224/162/441
f 233/173/442 224/172/442 231/174/442
f 224/172/443 233/173/443 232/175/443
f 231/174/444 224/172/444 230/176/444
f 226/177/445 230/176/445 224/172/445
f 220/178/446 230/176/446 226/177/446
f 220/178/447 223/179/447 230/176/447
f 223/168/448 222/180/448 229/167/448
f 234/181/449 226/163/449 228/165/449
f 235/183/450 236/182/450 226/177/450
f 237/185/451 235/184/451 238/186/451
f 234/181/452 228/165/452 239/187/452
f 240/188/453 239/187/453 228/165/453
f 241/190/454 238/189/454 234/191/454
f 241/190/455 234/191/455 237/192/455
f 236/194/456 235/193/456 239/187/456
f 239/187/457 240/188/457 236/194/457
f 238/186/458 241/195/458 237/185/458
f 221/196/459 228/165/459 222/180/459
f 226/177/460 236/182/460 220/178/460
f 219/197/461 220/178/461 236/182/461
f 219/198/462 240/188/462 221/196/462
f 227/164/463 226/163/463 229/167/463
f 240/188/464 228/165/464 221/196/464
f 236/194/465 240/188/465 219/198/465
f 222/180/466 227/164/466 229/167/466
f 227/164/467 222/180/467 228/165/467
f 226/177/468 238/199/468 235/183/468
f 226/163/469 234/181/469 238/200/469
f 237/192/470 234/191/470 239/201/470
f 235/202/471 237/192/471 239/201/471
f 242/204/472 243/203/472 244/205/472
f 245/207/473 246/206/473 242/208/473
f 242/208/474 246/206/474 247/209/474
f 248/211/475 246/210/475 245/212/475
f 249/213/476 248/211/476 245/212/476
f 244/215/477 248/214/477 249/216/477
f 244/215/478 243/217/478 248/214/478
f 248/211/479 250/218/479 246/219/479
f 243/221/480 251/220/480 250/222/480
f 246/224/481 252/223/481 247/225/481
f 251/227/482 252/226/482 246/219/482
f 251/227/483 253/228/483 252/226/483
f 243/221/484 253/229/484 251/220/484
f 246/219/485 250/218/485 251/227/485
f 250/222/486 248/214/486 243/221/486
f 242/204/487 247/209/487 243/203/487
f 253/228/488 157/230/488 154/231/488
f 3/3/489 157/232/489 253/229/489
f 253/228/490 154/231/490 252/226/490
f 252/223/491 154/233/491 159/234/491
f 247/225/492 252/223/492 159/234/492
f 159/234/493 160/235/493 247/225/493
f 247/225/494 160/235/494 243/236/494
f 243/221/495 3/3/495 253/229/495
f 160/235/496 3/237/496 243/236/496
f 254/239/497 255/238/497 256/240/497
f 254/242/498 257/241/498 255/243/498
f 258/245/499 259/244/499 257/246/499
f 256/248/500 259/247/500 258/249/500
f 256/240/501 255/238/501 242/208/501
f 242/250/502 259/247/502 256/248/502
f 259/247/503 242/250/503 244/251/503
f 242/208/504 255/238/504 245/252/504
f 255/243/505 249/253/505 245/254/505
f 255/243/506 257/241/506 249/253/506
f 257/246/507 259/244/507 249/255/507
f 249/255/508 259/244/508 244/256/508
f 260/258/509 256/257/509 258/259/509
f 261/260/510 256/257/510 260/258/510
f 258/259/511 262/261/511 260/258/511
f 263/263/512 254/262/512 261/260/512
f 263/265/513 261/264/513 262/266/513
f 260/267/513 262/266/513 261/264/513
f 263/263/514 257/268/514 254/262/514
f 261/260/515 254/262/515 256/257/515
f 262/261/516 258/259/516 257/268/516
f 264/269/517 257/268/517 263/263/517
f 262/261/518 257/268/518 264/269/518
f 265/270/519 263/265/519 266/271/519
f 262/266/520 266/271/520 263/265/520
f 264/269/521 263/263/521 265/272/521
f 266/273/522 264/269/522 265/272/522
f 264/269/523 266/273/523 262/261/523
f 157/275/524 3/274/524 17/276/524

o 
usemtl axe.001
s off

v 1.512390 52.597260 55.203438
v -0.654840 49.405861 48.979378
v -3.577100 46.937618 59.092258
v -3.723470 46.705379 55.759930
v -4.785240 45.179428 59.267860
v -4.931620 44.947189 55.935532
v -8.546520 37.958778 56.665478
v -6.950110 40.244507 49.894390
v 1.797790 53.050087 61.701012
v -8.261110 38.411621 63.163052
v 0.201380 50.764370 68.472092
v -3.430730 47.169861 62.424614
v -4.638870 45.411667 62.600197
v -6.093890 41.603020 69.387100
v -2.109860 45.597210 55.766281
v -1.963480 45.829449 59.098629
v -3.318000 43.839031 55.941883
v -3.171630 44.071259 59.274212
v -1.817110 46.061691 62.430950
v -3.025260 44.303509 62.606567
v -5.184100 44.387878 22.507118
v -6.392250 42.629692 22.682720
v -4.778630 41.521530 22.689072
v -4.209490 46.265350 21.577450
v -2.919750 46.225746 69.532974
v -7.915230 40.212860 -11.988111
v -6.384690 39.166931 -12.024879
v -5.093470 40.862869 -12.157370
v -6.707090 41.971039 -12.163750

vt 0.033358 0.643728
vt 0.190411 0.923560
vt 0.402692 0.503812
vt 0.402692 0.647326
vt 0.408249 0.287497
vt 0.408249 0.367848
vt 0.492649 0.287497
vt 0.492649 0.367848
vt 0.403043 0.503812
vt 0.403044 0.647326
vt 0.033710 0.643728
vt 0.190763 0.923560
vt 0.033358 0.363896
vt 0.033710 0.363896
vt 0.190411 0.084064
vt 0.402692 0.360297
vt 0.408249 0.207147
vt 0.492649 0.207147
vt 0.403043 0.360297
vt 0.190763 0.084064
vt 0.408248 1.036942
vt 0.492649 1.036942
vt 0.483600 0.371280
vt 0.402049 0.371280
vt 0.402049 1.040375
vt 0.483600 1.040375
vt 0.450449 0.037941
vt 0.483600 0.210579
vt 0.402049 0.210579
vt 0.442825 0.041374
vt 0.000000 1.000000

vn -0.763435 0.642733 -0.063734
vn -0.685747 0.727549 -0.020584
vn -0.824322 0.566112 -0.003246
vn -0.887889 0.460005 0.006942
vn -0.889185 0.454063 -0.056363
vn -0.748056 0.663501 -0.013383
vn -0.743314 0.667076 0.049936
vn -0.925335 0.378882 0.014240
vn -0.874297 0.481999 0.057285
vn 0.925335 -0.378882 -0.014241
vn 0.874297 -0.481999 -0.057285
vn 0.824322 -0.566112 0.003246
vn 0.743314 -0.667076 -0.049936
vn 0.748056 -0.663500 0.013383
vn 0.887889 -0.460005 -0.006941
vn 0.889185 -0.454063 0.056363
vn 0.763435 -0.642733 0.063734
vn 0.685748 -0.727548 0.020585
vn -0.487458 -0.712684 -0.504446
vn 0.437236 0.633005 -0.638850
vn 0.487454 0.712686 0.504448
vn -0.437236 -0.633005 0.638850
vn 0.989022 -0.133503 -0.063348
vn 0.566068 0.824148 -0.018658
vn -0.886172 0.463308 0.006636
vn -0.564425 -0.821398 0.082038
vn -0.810446 0.570281 0.134001
vn 0.822498 -0.551159 0.140431
vn -0.551439 -0.801632 0.230871
vn 0.564597 0.822506 0.068658
vn -0.562750 -0.822556 0.081943
vn -0.315154 0.944088 -0.096828
vn 0.960533 -0.278146 -0.003421
vn -0.032575 -0.053170 -0.998054
vn -0.062580 -0.056540 -0.996437

f 267/277/525 268/278/525 269/279/525
f 270/280/526 269/279/526 268/278/526
f 269/281/527 270/282/527 271/283/527
f 272/284/527 271/283/527 270/282/527
f 271/285/528 272/286/528 273/287/528
f 274/288/529 273/287/529 272/286/529
f 275/289/530 267/277/530 269/279/530
f 273/287/528 276/290/528 271/285/528
f 277/291/531 275/289/531 278/292/531
f 269/279/530 278/292/530 275/289/530
f 278/293/527 269/281/527 279/294/527
f 271/283/527 279/294/527 269/281/527
f 279/295/532 271/285/532 280/296/532
f 276/290/533 280/296/533 271/285/533
f 281/280/534 268/278/534 282/279/534
f 267/277/535 282/279/535 268/278/535
f 283/284/536 281/282/536 284/283/536
f 282/281/536 284/283/536 281/282/536
f 274/288/537 283/286/537 273/287/537
f 284/285/538 273/287/538 283/286/538
f 282/279/539 267/277/539 275/289/539
f 273/287/538 284/285/538 276/290/538
f 282/279/539 275/289/539 285/292/539
f 277/291/540 285/292/540 275/289/540
f 284/283/536 282/281/536 286/294/536
f 285/293/536 286/294/536 282/281/536
f 276/290/541 284/285/541 280/296/541
f 286/295/542 280/296/542 284/285/542
f 270/280/543 268/278/543 281/280/543
f 283/286/544 274/288/544 272/286/544
f 279/295/545 280/296/545 286/295/545
f 285/292/546 277/291/546 278/292/546
f 272/284/527 270/282/527 287/297/527
f 287/297/527 288/298/527 272/284/527
f 281/282/536 283/284/536 289/298/536
f 289/298/547 290/297/547 281/282/547
f 270/299/548 281/300/548 290/301/548
f 290/301/549 287/302/549 270/299/549
f 283/300/550 272/299/550 288/302/550
f 288/302/550 289/301/550 283/300/550
f 278/293/551 279/294/551 291/303/551
f 286/294/552 285/293/552 291/303/552
f 279/304/553 286/305/553 291/306/553
f 285/305/554 278/304/554 291/306/554
f 289/298/555 288/297/555 292/298/555 293/307/555
f 287/297/556 290/298/556 294/297/556 295/307/556
f 290/297/557 289/298/557 293/297/557 294/307/557
f 288/298/527 287/297/527 295/298/527 292/307/527
f 294/297/558 293/298/558 295/297/558
f 292/298/559 295/297/559 293/298/559

