mtllib anim_barb_attack_new1_axe_000084.mtl

o fat
usemtl axe.001
s off

v -62.414021 33.437519 -34.265480
v -55.611992 33.943291 -31.601379
v -58.892651 28.834021 -40.547600
v -56.616787 30.010860 -38.399269
v -57.374657 27.685539 -41.526569
v -55.098801 28.862370 -39.378231
v -49.775429 23.875340 -42.416248
v -47.702259 27.958889 -36.702469
v -66.851624 31.142868 -38.454422
v -54.213028 21.580688 -46.605190
v -68.924797 27.059330 -44.168209
v -61.168518 27.657181 -42.695961
v -59.650532 26.508701 -43.674908
v -61.015049 21.074928 -49.269291
v -56.976517 28.509520 -37.195770
v -59.252392 27.332680 -39.344109
v -55.458542 27.361040 -38.174728
v -57.734398 26.184198 -40.323063
v -61.528240 26.155861 -41.492439
v -60.010269 25.007370 -42.471409
v -33.906349 41.754261 -16.961390
v -32.388359 40.605770 -17.940361
v -32.748100 39.104439 -16.736849
v -34.495472 44.618851 -14.568029
v -65.381996 23.854050 -47.107738
v -8.709420 52.849968 4.411740
v -9.145471 51.380928 5.529070
v -10.587140 52.497120 6.594210
v -10.227409 53.998459 5.390710

vt 0.033358 0.643728
vt 0.190411 0.923560
vt 0.402692 0.503812
vt 0.402692 0.647326
vt 0.408249 0.287497
vt 0.408249 0.367848
vt 0.492649 0.287497
vt 0.492649 0.367848
vt 0.403043 0.503812
vt 0.403044 0.647326
vt 0.033710 0.643728
vt 0.190763 0.923560
vt 0.033358 0.363896
vt 0.033710 0.363896
vt 0.190411 0.084064
vt 0.402692 0.360297
vt 0.408249 0.207147
vt 0.492649 0.207147
vt 0.403043 0.360297
vt 0.190763 0.084064
vt 0.408248 1.036942
vt 0.492649 1.036942
vt 0.483600 0.371280
vt 0.402049 0.371280
vt 0.402049 1.040375
vt 0.483600 1.040375
vt 0.450449 0.037941
vt 0.483600 0.210579
vt 0.402049 0.210579
vt 0.442825 0.041374
vt 0.000000 1.000000

vn 0.145629 0.835163 -0.530372
vn 0.029066 0.863368 -0.503736
vn 0.183770 0.766963 -0.614814
vn 0.270205 0.694592 -0.666732
vn 0.313380 0.715135 -0.624800
vn 0.094510 0.827519 -0.553425
vn 0.050565 0.803770 -0.592787
vn 0.330100 0.635611 -0.697877
vn 0.219484 0.688610 -0.691118
vn -0.330100 -0.635611 0.697877
vn -0.219483 -0.688610 0.691118
vn -0.183770 -0.766962 0.614816
vn -0.050567 -0.803770 0.592788
vn -0.094508 -0.827518 0.553428
vn -0.270204 -0.694591 0.666733
vn -0.313379 -0.715135 0.624800
vn -0.145629 -0.835163 0.530372
vn -0.029075 -0.863367 0.503738
vn 0.971335 -0.237634 -0.006107
vn -0.190506 0.641397 0.743181
vn -0.971335 0.237636 0.006104
vn 0.190505 -0.641401 -0.743178
vn -0.454880 -0.447062 0.770208
vn -0.764814 0.504472 0.400708
vn 0.320824 0.645260 -0.693334
vn 0.709178 -0.536556 -0.457356
vn 0.088312 0.711198 -0.697423
vn -0.275735 -0.808117 0.520497
vn 0.598842 -0.583350 -0.548717
vn -0.803409 0.477571 0.355612
vn 0.707942 -0.542758 -0.451920
vn -0.057062 0.928485 -0.366959
vn -0.421876 -0.553240 0.718293
vn 0.712193 0.327208 0.621061
vn 0.670486 0.312704 0.672803

f 1/1/1 2/2/1 3/3/1
f 4/4/2 3/3/2 2/2/2
f 3/5/3 4/6/3 5/7/3
f 6/8/3 5/7/3 4/6/3
f 5/9/4 6/10/4 7/11/4
f 8/12/5 7/11/5 6/10/5
f 9/13/6 1/1/6 3/3/6
f 7/11/4 10/14/4 5/9/4
f 11/15/7 9/13/7 12/16/7
f 3/3/6 12/16/6 9/13/6
f 12/17/3 3/5/3 13/18/3
f 5/7/3 13/18/3 3/5/3
f 13/19/8 5/9/8 14/20/8
f 10/14/9 14/20/9 5/9/9
f 15/4/10 2/2/10 16/3/10
f 1/1/11 16/3/11 2/2/11
f 17/8/12 15/6/12 18/7/12
f 16/5/12 18/7/12 15/6/12
f 8/12/13 17/10/13 7/11/13
f 18/9/14 7/11/14 17/10/14
f 16/3/15 1/1/15 9/13/15
f 7/11/14 18/9/14 10/14/14
f 16/3/15 9/13/15 19/16/15
f 11/15/16 19/16/16 9/13/16
f 18/7/12 16/5/12 20/18/12
f 19/17/12 20/18/12 16/5/12
f 10/14/17 18/9/17 14/20/17
f 20/19/18 14/20/18 18/9/18
f 4/4/19 2/2/19 15/4/19
f 17/10/20 8/12/20 6/10/20
f 13/19/21 14/20/21 20/19/21
f 19/16/22 11/15/22 12/16/22
f 6/8/3 4/6/3 21/21/3
f 21/21/3 22/22/3 6/8/3
f 15/6/12 17/8/12 23/22/12
f 23/22/23 24/21/23 15/6/23
f 4/23/24 15/24/24 24/25/24
f 24/25/25 21/26/25 4/23/25
f 17/24/26 6/23/26 22/26/26
f 22/26/26 23/25/26 17/24/26
f 12/17/27 13/18/27 25/27/27
f 20/18/28 19/17/28 25/27/28
f 13/28/29 20/29/29 25/30/29
f 19/29/30 12/28/30 25/30/30
f 23/22/31 22/21/31 26/22/31 27/31/31
f 21/21/32 24/22/32 28/21/32 29/31/32
f 24/21/33 23/22/33 27/21/33 28/31/33
f 22/22/3 21/21/3 29/22/3 26/31/3
f 28/21/34 27/22/34 29/21/34
f 26/22/35 29/21/35 27/22/35

