mtllib anim_barb_attack_barbonly_000072.mtl

o fat
usemtl fat.001
s off

v -0.137820 38.106010 -4.273440
v 1.860240 36.144421 6.136090
v 0.318890 37.229851 0.724960
v 0.410170 59.885067 -9.384490
v 9.299520 64.748466 -7.974710
v 2.812830 55.977448 -9.042720
v -0.362600 51.562252 -7.507150
v 7.770230 60.406960 -4.483100
v 7.702180 55.612221 -4.209580
v 6.919220 51.118568 -3.459010
v 4.142630 51.434311 -7.600350
v 6.403020 56.342529 -8.759600
v 9.003679 36.630219 4.073140
v 9.352560 38.988720 -2.337490
v 10.561490 38.500877 -2.851290
v 6.412290 37.401470 3.968220
v 3.993900 36.473152 6.390560
v 4.408740 37.459690 -7.571750
v 3.744780 38.944839 -6.399340
v 0.502520 38.167690 -5.308930
v -0.321370 35.240120 -5.666610
v 0.201120 65.409698 -8.384210
v 0.170300 67.281761 -8.142260
v 0.128960 55.403671 3.312610
v 5.379790 55.584721 0.722140
v 6.255160 59.403210 2.664950
v 8.980730 59.729340 0.239900
v 6.123870 62.134041 3.297700
v 11.197140 64.175247 -0.788860
v 4.497020 52.356037 3.366520
v 1.102870 49.861076 2.279790
v 0.791740 61.599777 4.975630
v 4.825240 68.809067 -4.755720
v 10.890590 65.443527 -7.227770
v 11.532190 65.942970 -3.566580
v 2.905110 66.719986 3.593240
v 5.512380 68.942459 -0.466900
v 0.171630 65.745468 4.076950
v 2.663080 72.771103 2.191040
v 3.279240 71.307304 -1.592490
v 0.247260 71.657684 -2.369310
v 0.175950 73.718422 1.152670
v 0.334850 70.110611 -4.631810
v 0.489180 47.204800 4.193130
v 5.364230 47.753548 4.344750
v 8.418850 47.401810 -0.832720
v 4.990360 46.802986 -6.048480
v -0.188040 46.466560 -8.262190
v 11.405060 63.680428 -0.787450
v 9.810850 61.204498 -7.949800
v 13.104730 63.129951 -3.188620
v 12.375760 63.739647 -6.335510
v 8.519650 61.826492 0.591070
v 2.581520 70.843262 7.359860
v 1.180830 68.938988 8.655730
v 2.894370 67.001282 4.854750
v 1.639600 65.440819 6.602010
v 0.698310 67.628830 8.256220
v 1.643460 70.895470 8.960830
v -0.144470 70.702713 9.185220
v 3.177320 72.819168 5.075670
v 0.535690 74.541420 10.311650
v -0.763210 74.425491 10.560091
v 1.701340 71.967834 9.885560
v 2.256590 74.025894 9.368370
v 1.223440 76.523758 8.030621
v -0.414440 76.568367 7.840680
v 0.269850 68.812820 9.164411
v -0.765430 71.352036 9.651190
v -0.900690 69.096497 10.274750
v -0.835060 68.690559 9.518010
v -0.843340 67.155510 9.133380
v 0.535200 64.591553 8.020050
v -0.861440 64.443192 8.487220
v 3.025130 75.074203 5.693420
v 2.543030 76.417320 5.463360
v -0.045170 76.953629 4.391290
v 13.072330 61.505501 -0.500940
v 13.884560 60.644821 -4.048310
v 8.437241 54.900940 -2.157470
v 9.794849 56.942329 1.748400
v 10.457920 58.160530 -6.479790
v 10.711109 50.974689 -0.323100
v 11.518350 46.334518 -0.004900
v 10.449120 48.232841 2.464470
v 13.849770 50.022179 -1.670430
v 15.088080 52.530281 -0.436780
v 14.615740 46.625973 0.892110
v 14.483160 52.787518 1.656010
v 15.274281 48.171318 3.421490
v 12.333840 51.258720 2.737600
v 13.169850 49.226631 4.776580
v 12.978030 52.601360 -2.928480
v 13.463289 51.440891 -2.443140
v 14.767019 57.376171 -2.623560
v 13.746930 58.203056 0.639260
v 11.721410 52.964291 2.305660
v 12.341060 54.617428 -4.899120
v 10.468110 41.327709 5.054720
v 10.019550 42.464619 6.503800
v 12.008060 41.095383 5.148020
v 12.737480 42.072411 6.592420
v 11.760570 42.981583 7.575540
v 11.698890 40.663254 12.241950
v 10.992280 40.224998 11.844620
v 11.303190 40.300552 10.571099
v 12.171240 40.588509 10.258570
v 12.452559 38.940437 9.975110
v 10.949289 42.358688 10.600969
v 11.924879 41.387218 10.837460
v 10.782650 41.218319 12.492849
v 11.238090 39.713081 13.267350
v 10.536619 40.174290 13.343410
v 11.745649 37.422100 11.453470
v 8.918540 37.822899 6.803940
v 8.609620 36.246109 7.946130
v 8.530260 34.193359 10.026731
v 11.056971 38.479660 11.723949
v 9.639000 36.019001 7.908820
v 10.204000 37.402271 6.653430
v 10.528820 35.845482 13.439550
v 3.921370 25.765409 -3.513750
v 7.434240 19.729700 -10.548491
v 5.166040 17.941000 -5.956690
v 9.747220 26.736382 -4.808990
v 12.371830 19.600451 -7.349320
v 6.138390 27.344429 -7.314780
v 8.111240 23.297998 -1.958460
v 9.179430 17.766350 -2.984810
v 7.888700 25.172680 -0.895890
v 7.954090 27.466980 -0.899710
v 10.529190 30.632320 -4.737160
v 7.679530 31.553371 2.079940
v 11.956290 8.906530 -9.153920
v 13.255110 6.144940 -10.409920
v 10.040040 6.584249 -12.167379
v 11.152040 7.171150 -7.431070
v 8.469640 8.178630 -9.019130
v 8.442739 5.121700 -9.338610
v 9.486020 1.306180 -12.060451
v 12.465950 1.782980 -12.596701
v 10.414320 2.629260 -3.608830
v 16.308090 3.900990 -5.025280
v 13.266920 5.820880 -1.173960
v 16.005110 4.463500 -0.902560
v 12.284340 3.760350 0.623850
v -9.555850 63.472061 -6.561530
v -1.892230 56.001019 -9.137630
v -5.901870 60.390450 -1.283860
v -7.318430 55.500851 -4.124270
v -4.956670 51.221199 -6.214490
v -6.374790 50.330910 -1.736830
v -5.753590 56.512661 -8.564610
v -9.006149 38.620251 -0.564540
v -7.268270 36.164429 5.611260
v -10.268280 38.050930 -0.765530
v -4.827400 37.856949 5.065240
v -5.057980 36.097080 -6.302720
v -4.554070 38.378090 -5.685940
v -1.041260 37.547173 -5.216240
v -4.829290 55.442749 1.035150
v -5.086390 59.101372 3.526990
v -10.126920 59.771881 1.892340
v -4.769800 61.789650 4.320890
v -10.258699 65.104530 1.547100
v -2.454760 49.744701 2.362890
v -11.432160 64.313652 -5.088670
v -4.955480 68.682564 -4.426050
v -11.570149 65.808311 -0.999990
v -2.595220 66.692551 3.613890
v -5.928100 68.920059 -0.393940
v -2.505460 72.908157 1.718670
v -2.831450 71.370422 -1.822090
v -3.837170 47.349300 5.199150
v -7.887930 47.126560 0.434520
v -5.416080 46.561260 -5.278530
v -11.504830 64.380798 1.484220
v -9.507680 58.819122 -4.395720
v -13.196779 63.970642 -0.735010
v -12.564720 61.095081 -3.163940
v -9.720660 61.346321 1.684830
v -2.612380 69.057892 8.262919
v -3.597380 71.036942 6.720010
v -3.200620 67.113899 4.523350
v -2.856860 65.581772 6.136370
v -2.140420 67.717812 7.962260
v -1.316860 70.739456 9.063840
v -3.005530 71.041191 8.479390
v -3.589360 73.031258 4.374950
v -1.974020 74.620087 10.051741
v -3.184930 72.120987 9.379570
v -3.493930 74.206161 8.772870
v -2.056070 76.626541 7.691030
v -1.834430 68.878769 8.946500
v -2.120930 64.674805 7.744990
v -3.427430 75.276443 5.025249
v -2.826160 76.585609 4.907340
v -12.684060 62.030949 2.254670
v -13.727480 60.109612 -0.816670
v -9.117890 58.466320 5.466440
v -7.741280 55.448643 2.285280
v -10.312470 57.132801 -2.710540
v -7.903230 49.813019 5.032530
v -9.669600 52.060280 5.496840
v -9.351780 52.681023 6.943780
v -12.757820 50.597271 4.504990
v -14.104139 53.331242 4.943750
v -10.022860 48.080769 6.014440
v -13.542900 54.180950 6.888100
v -11.321140 48.543747 8.717590
v -10.467290 50.725807 10.352640
v -11.332920 53.155178 8.325830
v -12.047850 52.709900 2.471860
v -12.407660 51.796421 3.323560
v -14.255131 57.255409 1.433580
v -13.192169 59.092442 4.256200
v -10.511360 55.201031 6.506280
v -11.588201 54.029381 -0.002470
v -3.204560 46.412880 10.276621
v -3.645790 47.003002 10.796421
v -4.607440 44.831280 9.373950
v -5.567520 45.054420 11.040270
v -5.176210 46.266808 12.042260
v -2.101060 43.766979 15.591450
v -3.046090 44.053577 16.264919
v -2.441570 43.713688 14.562240
v -3.690640 43.887802 14.334190
v -3.006840 42.422363 13.813049
v -3.862940 44.623482 15.014620
v -3.454360 45.797520 14.975080
v -2.594340 45.020927 16.531889
v -1.970080 43.476982 17.087090
v -1.661430 44.255280 17.184351
v -1.336370 41.497860 14.970950
v 0.818370 43.116249 10.781260
v -0.259720 44.336380 10.384940
v 2.066420 41.202068 11.827511
v -1.408940 42.410149 14.893511
v 0.612580 41.930141 11.099020
v -0.830080 42.809948 10.129519
v 0.580180 40.578651 15.907470
v -6.751030 19.087990 -5.475580
v -3.220660 25.291901 1.569470
v -4.404810 17.348120 -0.998820
v -11.643800 18.939850 -2.248520
v -9.070810 26.067171 0.243990
v -5.489470 26.649321 -2.257380
v -7.293360 22.824690 3.117020
v -8.375550 17.094261 2.010660
v -7.160370 24.804440 4.209120
v -6.552390 27.513521 4.028730
v -10.019031 29.872551 0.349280
v -5.989530 32.721680 5.228420
v -12.424530 5.486080 -4.752490
v -11.149811 8.215580 -3.993950
v -9.261040 6.097820 -6.768090
v -10.279389 6.107600 -1.704570
v -7.592870 4.383380 -3.938190
v -7.645560 7.445040 -3.388930
v -8.567050 1.006890 -7.235600
v -11.577681 1.693740 -7.740050
v -9.320580 0.718070 1.197950
v -15.279690 2.134890 0.216530
v -12.191730 3.512790 4.305110
v -14.886841 2.048940 4.390960
v -11.112209 1.200780 5.695310

vt 0.550479 0.485338
vt 0.414517 0.485338
vt 0.489174 0.497239
vt 0.490853 0.675485
vt 0.356970 0.710738
vt 0.458986 0.602657
vt 0.458693 0.603155
vt 0.491001 0.506534
vt 0.357039 0.710738
vt 0.272881 0.708251
vt 0.307767 0.663467
vt 0.329118 0.504113
vt 0.420682 0.504388
vt 0.307693 0.663467
vt 0.420389 0.504181
vt 0.390374 0.619683
vt 0.389206 0.622726
vt 0.390855 0.620128
vt 0.309151 0.663075
vt 0.578845 0.971377
vt 0.529882 0.993867
vt 0.501054 0.950636
vt 0.597833 0.993868
vt 0.684209 0.993870
vt 0.691613 0.940228
vt 0.584242 0.936155
vt 0.602549 0.993867
vt 0.689094 0.993870
vt 0.694409 0.971380
vt 0.730001 0.975635
vt 0.490853 0.781888
vt 0.490853 0.820915
vt 0.240556 0.660920
vt 0.133663 0.660928
vt 0.131880 0.753091
vt 0.060606 0.782384
vt 0.055577 0.663688
vt 0.136145 0.808744
vt 0.060014 0.783494
vt 0.058190 0.859642
vt 0.160773 0.512959
vt 0.067037 0.515196
vt 0.240700 0.512959
vt 0.131877 0.752996
vt 0.240556 0.781375
vt 0.390182 0.870896
vt 0.298691 0.847983
vt 0.294173 0.886121
vt 0.181129 0.899551
vt 0.052544 0.886601
vt 0.145152 0.921474
vt 0.235241 0.891030
vt 0.142740 0.921054
vt 0.172936 0.966074
vt 0.456563 0.999059
vt 0.389917 0.922986
vt 0.429989 0.941889
vt 0.491140 0.942697
vt 0.490646 0.999330
vt 0.490853 0.898039
vt 0.701416 0.118225
vt 0.813217 0.120956
vt 0.790107 0.184348
vt 0.877923 0.002315
vt 0.872775 0.120438
vt 0.505869 0.118716
vt 0.564263 0.119120
vt 0.507564 0.183764
vt 0.697589 0.180917
vt 0.580429 0.182675
vt 0.710756 0.001536
vt 0.701372 0.182427
vt 0.812168 0.002315
vt 0.857243 0.184348
vt 0.697567 0.116528
vt 0.503935 0.000692
vt 0.561277 0.000692
vt 0.688827 -0.000098
vt 0.002866 0.854679
vt 0.027518 0.706813
vt 0.061197 0.782654
vt 0.055608 0.663958
vt 0.251604 0.781884
vt 0.357109 0.710738
vt 0.243886 0.876138
vt 0.247300 0.848527
vt -0.000514 0.880403
vt 0.006948 0.782948
vt 0.674684 0.829607
vt 0.705811 0.784366
vt 0.654033 0.662928
vt 0.703232 0.671848
vt 0.720473 0.730776
vt 0.697736 0.853617
vt 0.729837 0.853035
vt 0.623758 0.856571
vt 0.587609 0.811448
vt 0.658187 0.605708
vt 0.748523 0.593788
vt 0.716351 0.931575
vt 0.747491 0.935506
vt 0.695349 0.885675
vt 0.676247 0.904603
vt 0.649719 0.961956
vt 0.745560 1.001324
vt 0.725611 0.781438
vt 0.747491 0.878462
vt 0.747491 0.808438
vt 0.720379 0.731031
vt 0.747491 0.790807
vt 0.720762 0.730332
vt 0.748639 0.732530
vt 0.746944 0.628012
vt 0.703659 0.671442
vt 0.731857 0.666086
vt 0.747085 0.666819
vt 0.703186 0.671176
vt 0.611291 0.885598
vt 0.604148 0.909350
vt 0.550618 0.823662
vt 0.550618 0.934468
vt 0.625864 0.557513
vt 0.571978 0.557920
vt 0.578607 0.510287
vt 0.669444 0.510287
vt 0.756032 0.560223
vt 0.679695 0.557918
vt 0.877240 0.461159
vt 0.992418 0.461159
vt 0.944262 0.560223
vt 0.756457 0.510287
vt 0.806202 0.560223
vt 0.498275 0.560223
vt 0.875566 0.382888
vt 0.758260 0.308662
vt 0.875912 0.308662
vt 0.759996 0.360654
vt 0.669163 0.382888
vt 0.671223 0.308662
vt 0.584325 0.382888
vt 0.577057 0.308662
vt 0.498223 0.363687
vt 0.498247 0.308662
vt 0.992597 0.308662
vt 0.992439 0.363687
vt 0.759483 0.410364
vt 0.758924 0.382888
vt 0.665903 0.461159
vt 0.580075 0.461159
vt 0.498223 0.402657
vt 0.992438 0.402657
vt 0.760539 0.449273
vt 0.498220 0.461159
vt 0.875438 0.575163
vt 0.762705 0.196431
vt 0.858161 0.196355
vt 0.690657 0.196417
vt 0.588027 0.196417
vt 0.498144 0.196431
vt 0.991918 0.196431
vt 0.375723 0.009258
vt 0.380090 0.017573
vt 0.356438 0.030356
vt 0.342839 0.029458
vt 0.369327 0.043627
vt 0.316032 0.012201
vt 0.336848 0.019568
vt 0.249292 0.041099
vt 0.371147 0.002582
vt 0.416197 0.004791
vt 0.408124 0.000758
vt 0.128136 0.016613
vt 0.154876 0.002573
vt 0.119423 0.002194
vt 0.160447 0.001473
vt 0.065726 0.014292
vt 0.105093 0.028910
vt 0.000825 0.069213
vt 0.000703 0.039244
vt 0.249314 0.055441
vt 0.429228 0.045736
vt 0.102506 0.115410
vt 0.153549 0.117195
vt 0.189513 0.114692
vt 0.228429 0.109580
vt 0.194639 0.033982
vt 0.406548 0.108121
vt 0.355355 0.108206
vt 0.448349 0.035630
vt 0.498209 0.039288
vt 0.461840 0.047992
vt 0.483032 0.114221
vt 0.406174 0.120334
vt 0.355217 0.119080
vt 0.243215 0.037501
vt 0.249314 0.089732
vt 0.000703 0.095058
vt 0.249292 0.105039
vt 0.160984 0.032072
vt 0.413806 0.033644
vt 0.442212 0.108407
vt 0.443088 0.117732
vt 0.023914 0.327327
vt 0.104127 0.227894
vt 0.000784 0.227894
vt 0.216171 0.327327
vt 0.216985 0.228421
vt 0.105699 0.228145
vt 0.104981 0.327662
vt 0.217575 0.327327
vt 0.351490 0.301452
vt 0.217290 0.227894
vt 0.351571 0.227894
vt 0.352420 0.301452
vt 0.489174 0.227894
vt 0.352342 0.227894
vt 0.471690 0.333380
vt 0.351597 0.328057
vt 0.217345 0.328075
vt 0.352312 0.363299
vt 0.470864 0.334174
vt 0.352330 0.328057
vt 0.216660 0.380224
vt 0.216104 0.328075
vt 0.104983 0.328371
vt 0.217232 0.380224
vt 0.351611 0.363299
vt 0.351459 0.420971
vt 0.352499 0.420971
vt 0.351589 0.497239
vt 0.229465 0.497239
vt 0.352627 0.497239
vt 0.229583 0.497239
vt 0.133020 0.497239
vt 0.072972 0.497239
vt 0.025422 0.328212
vt 0.002386 0.497239
vt 0.216130 0.152222
vt 0.223982 0.125749
vt 0.105883 0.155747
vt 0.351732 0.147623
vt 0.223132 0.128232
vt 0.218721 0.149411
vt 0.469070 0.149411
vt 0.483427 0.127273
vt 0.352306 0.146326
vt 0.017963 0.152222
vt 0.104256 0.155747
vt 0.009616 0.131504
vt 0.104128 0.227914
vt 0.000790 0.227921
vt 0.216984 0.228396
vt 0.351571 0.227971
vt 0.217291 0.227882
vt 0.352342 0.227879
vt 0.489111 0.227891
vt 0.948232 0.041698
vt 0.989968 0.003451
vt 0.971575 0.059997
vt 0.909211 0.004273
vt 0.996004 0.120663
vt 0.925604 0.058708
vt 0.885225 0.122889
vt 0.516483 0.798440
vt 0.501430 0.685191
vt 0.597947 0.686709
vt 0.594444 0.793024
vt 0.950876 0.082499
vt 0.943924 0.157220
vt 0.507177 0.624822
vt 0.600053 0.622523
vt 0.901715 0.182549
vt 0.982420 0.184037
vt 0.730212 0.975635
vt 0.685579 0.991654
vt 0.692830 0.969164

vn -0.128010 -0.978802 -0.159876
vn 0.152662 0.007433 -0.988251
vn -0.187677 -0.199512 -0.961755
vn 0.911039 0.010584 0.412184
vn 0.799695 -0.231843 -0.553839
vn -0.028462 -0.310036 -0.950299
vn 0.103219 -0.273411 -0.956343
vn 0.908764 -0.284645 -0.305164
vn 0.071531 0.068268 -0.995099
vn 0.833120 -0.457196 -0.311261
vn -0.469890 -0.819845 -0.327197
vn -0.254729 -0.902967 -0.346068
vn -0.221303 -0.816184 -0.533730
vn -0.176859 -0.887170 0.426205
vn -0.432114 -0.669843 0.603811
vn 0.455457 -0.233148 0.859186
vn 0.380222 -0.462365 0.801030
vn 0.962930 -0.269457 -0.012577
vn 0.053932 0.128865 -0.990194
vn 0.399913 -0.486802 0.776591
vn 0.729129 -0.593920 0.340043
vn 0.657063 -0.156953 0.737316
vn 0.360383 0.530102 0.767539
vn 0.943129 0.014155 0.332126
vn -0.156666 -0.207464 0.965616
vn 0.277853 -0.276627 0.919932
vn 0.062155 0.661178 -0.747650
vn 0.057277 0.179967 -0.982004
vn 0.619116 -0.464204 0.633411
vn 0.414369 0.889210 -0.193917
vn 0.312288 -0.200161 0.928661
vn 0.217595 0.742229 -0.633836
vn 0.667539 -0.137462 0.731776
vn 0.516954 0.311452 0.797343
vn 0.577303 0.655539 0.486817
vn 0.269051 0.242309 0.932147
vn 0.157735 0.047146 0.986355
vn 0.784428 0.169617 0.596576
vn 0.750827 0.647901 -0.128390
vn 0.473775 0.764244 -0.437572
vn 0.190747 0.925565 -0.327026
vn 0.513847 0.569412 0.641663
vn 0.405173 0.909477 -0.093202
vn 0.752372 0.643568 -0.140559
vn 0.221458 0.815019 -0.535444
vn 0.232348 0.807046 -0.542855
vn 0.202548 0.757846 -0.620196
vn -0.052738 0.198092 0.978764
vn 0.860273 0.093423 0.501200
vn 0.837181 -0.047236 -0.544883
vn -0.028726 -0.322311 -0.946198
vn -0.051266 0.184240 0.981543
vn -0.594591 0.555836 0.580954
vn 0.913232 0.291859 0.284300
vn 0.725303 0.567756 0.389345
vn 0.928512 0.235896 0.286737
vn 0.828823 -0.035395 -0.558391
vn 0.380572 0.148285 -0.912785
vn 0.777375 0.311115 -0.546713
vn 0.596126 0.092910 -0.797497
vn 0.383081 0.125356 -0.915169
vn -0.277233 -0.213304 -0.936826
vn 0.414193 0.113469 0.903089
vn 0.867558 0.365514 0.337258
vn 0.967330 -0.028102 -0.251957
vn 0.405641 0.052111 -0.912546
vn 0.240101 0.103646 0.965199
vn 0.873769 0.473588 -0.110649
vn 0.762726 0.484011 0.428932
vn 0.524529 0.011400 -0.851316
vn 0.789294 0.574508 -0.216691
vn -0.842145 -0.125194 -0.524517
vn 0.947443 0.243124 -0.207947
vn -0.455827 0.048601 -0.888741
vn 0.822767 -0.261913 0.504437
vn 0.449121 -0.407815 0.794970
vn 0.142010 -0.185215 0.972383
vn 0.976795 -0.055362 0.206895
vn 0.984482 -0.001287 -0.175481
vn 0.998594 -0.049306 0.019493
vn 0.360740 -0.909655 0.205901
vn 0.193735 -0.074211 0.978243
vn 0.911170 -0.149324 0.384020
vn 0.974672 -0.039416 0.220136
vn -0.054130 0.761713 0.645650
vn 0.475327 0.094570 0.874712
vn 0.684976 0.142295 0.714535
vn 0.699334 0.151200 0.698621
vn 0.486841 -0.413857 0.769225
vn 0.313348 -0.503982 0.804870
vn 0.049239 0.781416 0.622065
vn -0.020319 -0.283516 0.958752
vn 0.245445 -0.845231 0.474701
vn 0.531248 -0.208613 0.821131
vn 0.474289 -0.797913 -0.372001
vn 0.864976 -0.164825 0.473971
vn 0.007762 -0.959525 -0.281515
vn 0.513966 -0.093902 0.852655
vn 0.810867 -0.088530 0.578496
vn 0.317128 -0.901927 -0.293184
vn 0.330399 -0.220819 0.917647
vn 0.977702 0.114254 -0.176197
vn 0.917814 0.281483 -0.279973
vn 0.767692 -0.441752 0.464223
vn 0.163229 -0.649337 0.742777
vn 0.826305 -0.272272 0.493040
vn 0.056782 -0.545675 0.836071
vn 0.520855 0.560332 0.644002
vn 0.978250 0.009257 0.207221
vn 0.884046 0.366915 0.289545
vn 0.769131 0.518339 0.373847
vn 0.497932 0.082602 0.863273
vn 0.491997 0.590405 -0.639813
vn 0.399783 0.661986 -0.633994
vn 0.151111 0.980494 0.125689
vn 0.030214 0.999208 -0.025899
vn 0.901520 -0.086249 0.424054
vn 0.713671 0.595648 0.368615
vn 0.661028 -0.210099 -0.720348
vn 0.927702 0.342498 -0.148541
vn -0.908793 -0.144527 0.391417
vn 0.956330 0.244903 0.159548
vn 0.661637 -0.207340 -0.720588
vn -0.739864 -0.413539 -0.530647
vn 0.242394 0.307050 0.920307
vn -0.945654 -0.182948 -0.268826
vn -0.425231 -0.135344 -0.894908
vn 0.863283 -0.488554 0.126718
vn 0.290665 -0.232171 -0.928230
vn 0.960120 -0.013961 0.279240
vn 0.957407 0.055725 -0.283314
vn 0.608440 0.672731 0.420991
vn 0.186795 0.378697 0.906475
vn -0.676780 0.363773 0.640029
vn -0.799827 0.463794 0.381015
vn -0.409603 -0.569997 -0.712270
vn -0.473303 -0.500954 -0.724589
vn 0.762893 0.049405 -0.644634
vn 0.738198 -0.236232 -0.631869
vn 0.951259 0.176992 0.252548
vn 0.951118 0.176837 0.253186
vn 0.236343 0.317442 0.918353
vn -0.822542 -0.333862 0.460393
vn -0.727182 -0.339975 -0.596341
vn -0.447124 -0.693482 -0.564945
vn 0.803145 -0.266902 -0.532656
vn 0.643350 -0.153255 -0.750076
vn 0.939190 0.314078 0.138840
vn 0.936599 0.268893 0.224674
vn 0.242531 0.283191 0.927891
vn 0.148088 0.349650 0.925103
vn -0.985744 -0.051800 0.160079
vn 0.799800 -0.104105 -0.591170
vn -0.465311 -0.517773 -0.717911
vn -0.860228 -0.188945 0.473612
vn 0.236594 0.210259 0.948586
vn -0.828598 -0.244603 0.503581
vn 0.194967 0.228053 0.953928
vn 0.669117 0.024265 -0.742761
vn -0.502760 -0.560720 -0.657894
vn -0.969077 -0.088999 -0.230151
vn -0.941435 -0.120697 -0.314854
vn -0.063100 -0.702810 -0.708573
vn 0.265066 -0.663427 -0.699718
vn 0.909391 -0.415588 0.017140
vn 0.884110 -0.443793 -0.146279
vn 0.731075 0.049709 0.680483
vn 0.601528 0.209734 0.770828
vn -0.671411 0.423943 0.607849
vn -0.556337 0.504048 0.660624
vn 0.497048 -0.864892 0.070034
vn 0.365439 -0.096855 0.925783
vn 0.630224 0.709601 0.315093
vn 0.548242 0.694035 0.466633
vn 0.574901 0.685930 0.446082
vn 0.500870 0.510992 0.698582
vn 0.418241 0.512440 0.749986
vn 0.874058 -0.474563 -0.103983
vn 0.629057 -0.690471 -0.357123
vn -0.956582 -0.011828 -0.291223
vn -0.553489 -0.809548 -0.195659
vn -0.982463 -0.108275 -0.151801
vn -0.956560 -0.160954 -0.243077
vn -0.962185 -0.168555 0.213984
vn -0.339989 0.934955 0.101323
vn 0.780388 0.576392 0.242420
vn 0.697776 0.305823 0.647750
vn -0.872675 0.386831 0.297995
vn -0.863315 0.375324 0.337370
vn 0.777151 -0.585777 -0.230004
vn 0.781683 -0.562935 -0.268471
vn 0.698320 0.287040 0.655711
vn 0.726131 -0.680876 -0.095617
vn -0.153038 -0.559884 -0.814315
vn -0.279436 -0.580189 -0.765047
vn -0.865910 0.383086 0.321630
vn 0.912531 -0.335570 -0.233837
vn -0.883703 0.235759 0.404336
vn -0.889023 0.183757 -0.419370
vn -0.000784 -0.377140 -0.926156
vn 0.429744 -0.439234 0.788919
vn 0.801341 -0.515302 -0.303835
vn -0.222449 -0.354860 -0.908070
vn 0.966864 0.146899 0.208792
vn 0.970445 0.130771 0.202817
vn -0.867694 0.344328 0.358532
vn 0.713686 0.303261 0.631415
vn 0.735495 -0.653624 -0.178390
vn -0.178933 -0.696946 -0.694441
vn -0.895974 -0.003873 -0.444090
vn 0.494573 0.447209 -0.745253
vn 0.566987 0.401847 -0.719058
vn 0.811144 0.092777 0.577441
vn 0.797813 0.042476 0.601407
vn -0.582485 -0.255642 0.771595
vn -0.493055 -0.329792 0.805068
vn 0.914221 -0.112177 0.389379
vn -0.548903 0.017037 0.835713
vn 0.556658 -0.096516 -0.825116
vn 0.879779 -0.184661 0.438052
vn 0.885527 -0.233408 0.401700
vn -0.255926 -0.580717 0.772832
vn 0.906867 -0.025144 0.420666
vn -0.535183 -0.463732 0.706067
vn -0.872586 0.057497 -0.485065
vn 0.899566 0.055020 0.433305
vn -0.430332 -0.360464 0.827575
vn 0.923407 0.019950 0.383304
vn 0.557918 0.300684 -0.773509
vn 0.410810 0.155658 -0.898335
vn -0.320604 0.008593 -0.947174
vn -0.767421 -0.294019 -0.569753
vn -0.474697 -0.432566 0.766518
vn -0.958834 -0.274719 -0.071879
vn 0.459797 0.537685 -0.706740
vn 0.831204 0.147076 0.536160
vn -0.530694 -0.083480 0.843442
vn -0.881639 0.056722 -0.468503
vn 0.734698 0.224478 -0.640179
vn -0.912167 -0.133083 -0.387608
vn -0.864614 -0.141338 -0.482148
vn 0.542076 0.119305 -0.831817
vn 0.825102 -0.125039 0.550973
vn 0.908497 -0.006204 0.417846
vn -0.573640 -0.405469 0.711711
vn -0.553276 -0.413984 0.722844
vn -0.885622 0.083705 -0.456801
vn -0.176898 -0.001373 -0.984228
vn -0.918108 -0.363579 0.157759
vn 0.880570 0.075262 -0.467901
vn 0.241977 -0.959301 0.145561
vn 0.179855 -0.974684 0.132829
vn 0.512091 0.856351 0.066524
vn 0.487773 0.319111 -0.812555
vn -0.718618 0.512386 0.470158
vn 0.535120 0.844775 0.001433
vn -0.814888 0.444953 0.371448
vn 0.242161 -0.958786 0.148616
vn 0.242646 -0.958610 0.148966
vn 0.449419 0.888950 -0.088262
vn 0.211464 0.583371 0.784194
vn -0.802186 0.560958 0.204507
vn 0.146088 -0.963700 -0.223473
vn -0.243791 0.083102 -0.966261
vn 0.299544 -0.236314 -0.924353
vn -0.838916 -0.070462 0.539680
vn -0.883146 -0.319716 -0.343271
vn -0.220177 -0.402294 -0.888640
vn -0.187551 -0.422154 -0.886911
vn -0.852915 -0.356118 -0.381728
vn -0.115247 0.216093 -0.969547
vn -0.876416 -0.299478 -0.377104
vn 0.426865 -0.792645 -0.435317
vn 0.444812 -0.782212 -0.436218
vn 0.074172 -0.401463 -0.912867
vn 0.273651 -0.796838 0.538669
vn 0.705789 -0.325989 0.628962
vn -0.171753 -0.240108 0.955431
vn -0.180125 -0.219476 0.958846
vn -0.924984 -0.326565 0.194321
vn -0.205636 0.122108 -0.970981
vn -0.353945 -0.543348 0.761246
vn -0.582090 -0.766211 0.272199
vn -0.427320 0.047889 0.902831
vn -0.416855 0.037907 0.908182
vn -0.725385 -0.145518 0.672786
vn 0.028804 -0.178220 0.983569
vn -0.133220 -0.243594 0.960684
vn -0.320112 0.587296 -0.743378
vn -0.212884 0.166272 -0.962826
vn -0.323101 -0.548137 0.771460
vn -0.509534 0.802458 -0.310542
vn -0.121660 -0.267919 0.955729
vn -0.352803 0.604284 -0.714403
vn -0.327849 -0.231855 0.915837
vn -0.302004 0.265956 0.915457
vn -0.467720 0.760230 0.450875
vn -0.108096 0.195142 0.974800
vn -0.100146 0.185381 0.977550
vn -0.685812 0.221305 0.693315
vn -0.668436 0.702729 -0.243650
vn -0.345023 0.807050 -0.479197
vn -0.152910 0.911513 -0.381788
vn -0.318213 0.691229 0.648801
vn -0.463004 0.871239 -0.163004
vn -0.663391 0.720364 -0.202454
vn -0.229848 0.764762 -0.601920
vn -0.175130 0.809539 -0.560335
vn -0.229485 0.763094 -0.604173
vn 0.182808 0.705385 0.684845
vn -0.759497 0.114527 0.640350
vn -0.901673 0.151281 -0.405093
vn -0.255652 -0.166088 -0.952395
vn 0.226754 0.265905 0.936951
vn -0.000168 0.584494 0.811398
vn -0.836446 0.274077 0.474594
vn -0.611212 0.621070 0.490603
vn -0.383559 0.789220 0.479597
vn -0.954723 0.034781 -0.295456
vn -0.491070 0.111197 -0.863994
vn -0.870143 0.281687 -0.404355
vn -0.719953 0.043158 -0.692680
vn -0.493589 0.067970 -0.867035
vn 0.089515 -0.225365 -0.970153
vn -0.070505 0.058319 0.995805
vn -0.465338 0.762109 0.450167
vn -0.557233 0.531860 -0.637664
vn -0.669598 -0.319113 -0.670675
vn -0.086321 0.062239 0.994321
vn -0.600535 0.434813 -0.671040
vn -0.662315 0.641957 0.386303
vn -0.534273 -0.287389 -0.794959
vn -0.957015 0.260498 -0.127526
vn 0.694767 -0.297588 -0.654782
vn -0.604896 0.051353 -0.794647
vn -0.076936 -0.110741 -0.990867
vn -0.928924 -0.247935 0.275007
vn -0.626742 -0.374093 0.683556
vn -0.349277 -0.169812 0.921504
vn -0.995931 -0.066942 -0.060335
vn -0.922848 -0.100081 -0.371934
vn -0.844870 -0.068810 -0.530528
vn -0.346635 -0.917634 0.194401
vn -0.394118 -0.055773 0.917366
vn -0.977951 -0.090108 0.188392
vn -0.999624 0.022467 0.015689
vn -0.032094 0.761020 0.647934
vn -0.637533 0.129442 0.759471
vn -0.806573 0.189036 0.560094
vn -0.816797 0.198719 0.541621
vn -0.658691 -0.377950 0.650600
vn -0.502092 -0.478423 0.720427
vn -0.127028 0.786941 0.603812
vn -0.193987 -0.278072 0.940768
vn -0.389314 -0.825334 0.408972
vn -0.699976 -0.170023 0.693632
vn -0.368093 -0.712053 -0.597903
vn -0.983999 -0.037368 0.174209
vn -0.008322 -0.958498 -0.284979
vn -0.682440 -0.056406 0.728762
vn -0.916013 -0.034405 0.399670
vn -0.223378 -0.889246 -0.399178
vn -0.524298 -0.194028 0.829135
vn -0.908679 0.175289 -0.378914
vn -0.818595 0.333865 -0.467373
vn -0.872329 -0.390352 0.294392
vn -0.351758 -0.633198 0.689439
vn -0.924985 -0.217378 0.311687
vn -0.260430 -0.535714 0.803235
vn -0.605915 0.595648 0.527323
vn -0.997460 0.071181 0.002629
vn -0.900126 0.422839 0.104785
vn -0.795747 0.567389 0.211795
vn -0.658013 0.118839 0.743570
vn -0.334742 0.600485 -0.726199
vn -0.219665 0.682660 -0.696938
vn -0.112591 0.988759 0.098382
vn 0.037693 0.998974 -0.025118
vn -0.899904 0.036425 0.434565
vn -0.725262 0.514102 0.457925
vn -0.630882 -0.552678 -0.544551
vn -0.909208 0.133312 -0.394421
vn 0.940405 0.325605 0.098078
vn -0.960672 0.126820 0.247033
vn -0.666365 -0.343382 -0.661851
vn 0.625836 -0.680152 -0.381735
vn 0.228945 0.197625 0.953168
vn 0.673354 0.614268 -0.411423
vn 0.152499 0.313513 -0.937259
vn -0.141007 -0.224194 0.964289
vn -0.168994 -0.321368 -0.931753
vn -0.752068 -0.496114 0.433896
vn -0.837887 -0.436567 -0.327650
vn -0.903770 0.033938 0.426671
vn -0.520596 0.070954 0.850850
vn 0.534852 0.645475 0.545248
vn -0.047905 0.921716 -0.384895
vn 0.446146 -0.736215 -0.508864
vn 0.489650 -0.689939 -0.533129
vn -0.775135 -0.239706 -0.584557
vn -0.733467 -0.468632 -0.492352
vn -0.953461 0.179812 0.242034
vn -0.963559 0.176512 0.200993
vn -0.142387 0.689112 0.710528
vn 0.826756 -0.183464 0.531805
vn 0.610510 -0.600341 -0.516592
vn 0.495149 -0.801454 -0.335407
vn -0.786166 -0.472698 -0.398120
vn -0.677383 -0.374133 -0.633385
vn -0.947266 0.287193 0.142153
vn -0.944072 0.280887 0.172716
vn 0.286991 0.783589 0.551021
vn -0.150794 0.574194 0.804713
vn 0.631732 0.285401 0.720737
vn -0.786855 -0.301019 -0.538746
vn 0.495600 -0.678696 -0.541990
vn 0.872380 0.078751 0.482443
vn -0.048956 0.474473 0.878908
vn 0.833871 0.046724 0.549978
vn -0.210044 0.376918 0.902117
vn -0.698564 -0.285413 -0.656161
vn 0.547036 -0.666658 -0.506280
vn 0.740303 0.661088 -0.122123
vn 0.755945 0.581797 -0.300099
vn 0.669930 -0.183677 -0.719345
vn 0.127323 -0.602435 -0.787947
vn -0.476490 -0.875635 -0.078875
vn -0.466822 -0.871136 -0.152312
vn -0.547342 -0.421081 0.723261
vn -0.543351 -0.356797 0.759911
vn 0.427870 0.716490 0.550971
vn 0.225467 0.691938 0.685848
vn -0.209205 -0.970547 0.119465
vn -0.219129 -0.416095 0.882523
vn -0.802084 0.296593 0.518357
vn -0.802439 0.221856 0.553960
vn -0.741004 0.278458 0.611043
vn -0.588513 0.052173 0.806802
vn -0.515167 0.097895 0.851481
vn -0.544802 -0.838158 -0.026112
vn -0.379717 -0.913837 -0.143934
vn 0.730690 0.569648 -0.376289
vn 0.925472 -0.348451 -0.148607
vn 0.841350 0.494535 -0.218095
vn 0.833346 0.464413 -0.299758
vn 0.902658 0.422744 0.080604
vn -0.221717 0.934152 0.279646
vn -0.919756 -0.026758 0.391577
vn -0.623226 -0.170051 0.763329
vn 0.608864 0.673917 0.418474
vn 0.618411 0.647003 0.446044
vn -0.321067 -0.909754 -0.263179
vn -0.343786 -0.890877 -0.296900
vn -0.421763 0.043337 0.905670
vn -0.314404 -0.914599 -0.254283
vn 0.051824 -0.266806 -0.962356
vn 0.532402 -0.057623 -0.844528
vn 0.549285 0.772696 0.318162
vn -0.570764 -0.790244 -0.223032
vn 0.593897 0.690381 0.413111
vn 0.540522 0.746293 -0.388437
vn 0.314380 0.244638 -0.917234
vn -0.221983 -0.689574 0.689356
vn -0.395171 -0.859582 -0.323973
vn 0.120712 0.119786 -0.985434
vn -0.826684 -0.474010 0.303164
vn -0.821334 -0.488191 0.295093
vn 0.639224 0.621484 0.452936
vn -0.230579 0.064085 0.970941
vn -0.322874 -0.908879 -0.263990
vn 0.305568 -0.295506 -0.905154
vn 0.888170 0.016078 -0.459233
vn -0.503303 0.441470 -0.742826
vn -0.567498 0.400802 -0.719239
vn -0.802692 0.083251 0.590554
vn -0.786776 0.029550 0.616531
vn 0.593856 -0.259204 0.761675
vn 0.504366 -0.332791 0.796784
vn -0.908441 -0.153462 0.388825
vn 0.561269 -0.071055 0.824578
vn -0.556037 -0.115779 -0.823054
vn -0.775182 -0.209649 0.595936
vn -0.748334 -0.071042 0.659507
vn 0.463979 -0.246160 0.850957
vn -0.848738 0.222422 0.479763
vn 0.537797 -0.434632 0.722405
vn 0.868265 0.064490 -0.491891
vn -0.774845 0.194462 0.601498
vn 0.631670 -0.118605 0.766111
vn -0.803997 0.153117 0.574581
vn -0.754130 0.018743 -0.656458
vn -0.585395 -0.184120 -0.789565
vn 0.060632 -0.284515 -0.956752
vn 0.696239 -0.438487 -0.568313
vn 0.637995 -0.135539 0.758018
vn 0.928922 -0.291567 -0.228237
vn -0.540147 0.449906 -0.711214
vn -0.816773 0.235012 0.526926
vn 0.581295 -0.133977 0.802587
vn 0.882133 0.097834 -0.460727
vn -0.728671 0.205790 -0.653215
vn 0.913863 -0.138608 -0.381630
vn 0.848734 -0.155778 -0.505356
vn -0.549583 0.109484 -0.828234
vn -0.813006 -0.129828 0.567596
vn -0.924273 0.031519 0.380429
vn 0.623757 -0.345222 0.701249
vn 0.577035 -0.365150 0.730545
vn 0.889770 0.160528 -0.427248
vn 0.189701 0.115399 -0.975037
vn 0.937356 -0.340835 0.072080
vn -0.895606 0.134139 -0.424142
vn -0.223237 -0.973487 -0.049892
vn -0.213747 -0.975477 -0.052506
vn -0.551815 0.803155 0.224594
vn -0.541174 0.442483 -0.715080
vn 0.724241 0.422377 0.545044
vn -0.574412 0.802066 0.163526
vn 0.824215 0.375098 0.424230
vn -0.219417 -0.975631 0.000560
vn -0.233089 -0.972387 0.011513
vn -0.474807 0.877850 0.062759
vn -0.206457 0.431607 0.878118
vn 0.803886 0.533483 0.262987
vn -0.149773 -0.988107 -0.034822

f 1/1/1 2/2/1 3/3/1
f 4/4/2 5/5/2 6/6/2
f 4/4/3 6/7/3 7/8/3
f 5/9/4 8/10/4 9/11/4
f 10/12/5 11/13/5 9/14/5
f 6/6/6 11/15/6 7/8/6
f 6/6/7 12/16/7 11/13/7
f 12/17/8 5/5/8 9/14/8
f 6/6/9 5/5/9 12/17/9
f 11/13/10 12/18/10 9/19/10
f 13/20/11 14/21/11 15/22/11
f 14/21/12 13/20/12 16/23/12
f 16/24/13 13/20/13 17/25/13
f 15/22/14 14/21/14 18/26/14
f 14/21/15 19/27/15 18/26/15
f 18/26/16 20/28/16 21/29/16
f 18/26/17 19/27/17 20/28/17
f 20/28/18 3/30/18 21/29/18
f 5/9/19 22/31/19 23/32/19
f 24/33/20 25/34/20 26/35/20
f 27/36/21 25/34/21 9/37/21
f 28/38/22 27/39/22 29/40/22
f 30/41/23 25/34/23 24/33/23
f 25/34/24 30/41/24 10/42/24
f 30/41/25 24/33/25 31/43/25
f 24/33/26 26/44/26 32/45/26
f 33/46/27 34/47/27 5/9/27
f 4/4/28 22/31/28 5/9/28
f 26/35/29 25/34/29 27/39/29
f 33/46/30 35/48/30 34/47/30
f 32/45/31 26/35/31 28/38/31
f 23/32/32 33/46/32 5/9/32
f 26/35/33 27/39/33 28/38/33
f 28/38/34 29/40/34 36/49/34
f 35/50/35 37/51/35 29/40/35
f 28/38/36 38/52/36 32/45/36
f 36/49/37 38/52/37 28/38/37
f 36/49/38 37/53/38 39/54/38
f 39/55/39 37/56/39 40/57/39
f 41/58/40 42/59/40 39/55/40
f 39/55/41 40/57/41 41/58/41
f 36/49/42 29/40/42 37/51/42
f 37/56/43 35/48/43 33/46/43
f 37/56/44 33/46/44 40/57/44
f 40/57/45 33/46/45 43/60/45
f 40/57/46 43/60/46 41/58/46
f 33/46/47 23/32/47 43/60/47
f 44/61/48 45/62/48 30/63/48
f 15/64/49 46/65/49 45/62/49
f 46/66/50 47/67/50 10/68/50
f 47/67/51 7/69/51 11/70/51
f 45/62/52 44/61/52 17/71/52
f 44/61/53 30/63/53 31/72/53
f 13/73/54 15/64/54 45/62/54
f 46/65/55 10/74/55 45/62/55
f 45/62/56 10/74/56 30/63/56
f 47/67/57 11/70/57 10/68/57
f 47/67/58 48/75/58 7/69/58
f 46/66/59 15/76/59 47/67/59
f 18/77/60 47/67/60 15/76/60
f 47/67/61 18/77/61 48/75/61
f 18/77/62 21/78/62 48/75/62
f 13/73/63 45/62/63 17/71/63
f 49/79/64 35/50/64 29/40/64
f 8/80/65 27/81/65 9/82/65
f 34/47/66 50/83/66 5/84/66
f 27/36/67 49/79/67 29/40/67
f 35/48/68 51/85/68 52/86/68
f 35/50/69 49/79/69 51/87/69
f 52/86/70 50/83/70 34/47/70
f 35/48/71 52/86/71 34/47/71
f 5/84/72 50/83/72 8/10/72
f 53/88/73 27/81/73 8/80/73
f 53/88/74 49/79/74 27/36/74
f 54/89/75 55/90/75 56/91/75
f 57/92/76 55/90/76 58/93/76
f 59/94/77 60/95/77 55/90/77
f 61/96/78 54/89/78 56/91/78
f 39/97/79 61/96/79 36/98/79
f 36/98/80 61/96/80 56/91/80
f 36/98/81 56/91/81 38/99/81
f 62/100/82 63/101/82 64/102/82
f 65/103/83 64/102/83 54/89/83
f 61/96/84 65/103/84 54/89/84
f 66/104/85 67/105/85 62/100/85
f 55/90/86 60/95/86 68/106/86
f 69/107/87 68/106/87 60/95/87
f 69/107/88 70/108/88 68/106/88
f 58/109/89 55/90/89 68/106/89
f 68/106/90 71/110/90 58/111/90
f 62/100/91 67/105/91 63/101/91
f 64/102/92 63/101/92 69/107/92
f 70/108/93 71/110/93 68/106/93
f 58/111/94 71/110/94 72/112/94
f 56/91/95 57/92/95 38/113/95
f 55/90/96 57/114/96 56/91/96
f 73/115/97 74/116/97 38/113/97
f 58/109/98 72/112/98 73/115/98
f 57/117/99 58/111/99 73/115/99
f 57/92/100 73/115/100 38/113/100
f 73/115/101 72/112/101 74/116/101
f 39/97/102 75/118/102 61/96/102
f 75/118/103 39/97/103 76/119/103
f 64/102/104 59/94/104 54/89/104
f 64/102/105 60/95/105 59/94/105
f 54/89/106 59/94/106 55/90/106
f 64/102/107 69/107/107 60/95/107
f 65/103/108 66/104/108 62/100/108
f 65/103/109 61/96/109 75/118/109
f 75/118/110 76/119/110 65/103/110
f 66/104/111 65/103/111 76/119/111
f 62/100/112 64/102/112 65/103/112
f 39/97/113 42/120/113 76/119/113
f 77/121/114 76/119/114 42/120/114
f 67/105/115 76/119/115 77/121/115
f 66/104/116 76/119/116 67/105/116
f 9/82/117 25/34/117 10/42/117
f 51/122/118 49/123/118 78/124/118
f 79/125/119 50/126/119 52/127/119
f 52/127/120 51/122/120 79/125/120
f 80/128/121 81/129/121 53/130/121
f 51/122/122 78/124/122 79/125/122
f 82/131/123 50/126/123 79/125/123
f 50/126/124 82/131/124 8/132/124
f 53/133/125 78/124/125 49/123/125
f 83/134/126 84/135/126 85/136/126
f 84/135/127 83/134/127 86/137/127
f 86/137/128 87/138/128 84/135/128
f 88/139/129 84/135/129 87/138/129
f 87/138/130 89/140/130 88/139/130
f 90/141/131 88/139/131 89/140/131
f 91/142/132 92/143/132 90/141/132
f 90/141/133 89/140/133 91/142/133
f 85/136/134 92/144/134 91/145/134
f 91/145/135 83/134/135 85/136/135
f 80/128/136 93/146/136 83/134/136
f 94/147/137 83/134/137 93/146/137
f 93/146/138 87/138/138 94/147/138
f 87/138/139 93/146/139 95/148/139
f 95/148/140 96/149/140 87/138/140
f 89/140/141 87/138/141 96/149/141
f 97/150/142 91/142/142 89/140/142
f 97/151/143 81/129/143 80/128/143
f 8/132/144 82/131/144 80/128/144
f 93/146/145 80/128/145 98/152/145
f 98/152/146 95/148/146 93/146/146
f 95/148/147 82/131/147 79/125/147
f 79/125/148 78/124/148 95/148/148
f 96/149/149 95/148/149 78/124/149
f 78/124/150 53/133/150 81/153/150
f 81/153/151 96/149/151 78/124/151
f 80/128/152 53/130/152 8/154/152
f 94/147/153 87/138/153 86/137/153
f 86/137/154 83/134/154 94/147/154
f 97/151/155 83/134/155 91/145/155
f 89/140/156 96/149/156 97/150/156
f 80/128/157 83/134/157 97/151/157
f 81/153/158 97/150/158 96/149/158
f 82/131/159 95/148/159 98/152/159
f 98/152/160 80/128/160 82/131/160
f 85/136/161 99/155/161 100/156/161
f 99/155/162 85/136/162 84/135/162
f 84/135/163 101/157/163 99/155/163
f 101/157/164 84/135/164 88/139/164
f 88/139/165 90/141/165 101/157/165
f 102/158/166 101/157/166 90/141/166
f 90/141/167 103/159/167 102/158/167
f 103/159/168 90/141/168 92/143/168
f 92/144/169 85/136/169 103/160/169
f 100/156/170 103/160/170 85/136/170
f 104/161/171 105/162/171 106/163/171
f 107/164/172 106/163/172 108/165/172
f 109/166/173 110/167/173 103/168/173
f 109/166/174 111/169/174 104/161/174
f 104/161/175 110/167/175 109/166/175
f 104/161/176 111/169/176 112/170/176
f 113/171/177 112/170/177 111/169/177
f 106/163/178 110/167/178 104/161/178
f 104/161/179 112/170/179 105/162/179
f 105/172/180 113/173/180 111/174/180
f 113/173/181 105/172/181 112/175/181
f 105/172/182 111/174/182 109/176/182
f 109/176/183 106/177/183 105/172/183
f 109/176/184 100/178/184 106/177/184
f 103/179/185 100/178/185 109/176/185
f 102/180/186 103/168/186 110/167/186
f 106/163/187 114/181/187 108/165/187
f 115/182/188 116/183/188 106/177/188
f 116/184/189 117/185/189 118/186/189
f 108/165/190 114/181/190 119/187/190
f 119/187/191 120/188/191 108/165/191
f 118/189/192 121/190/192 114/191/192
f 114/191/193 121/190/193 117/192/193
f 116/193/194 115/194/194 119/187/194
f 120/188/195 119/187/195 115/194/195
f 121/195/196 118/186/196 117/185/196
f 108/165/197 101/196/197 102/180/197
f 115/182/198 106/177/198 100/178/198
f 100/178/199 99/197/199 115/182/199
f 120/188/200 99/198/200 101/196/200
f 106/163/201 107/164/201 110/167/201
f 108/165/202 120/188/202 101/196/202
f 120/188/203 115/194/203 99/198/203
f 107/164/204 102/180/204 110/167/204
f 102/180/205 107/164/205 108/165/205
f 118/199/206 106/177/206 116/183/206
f 114/181/207 106/163/207 118/200/207
f 114/191/208 117/192/208 119/201/208
f 117/192/209 116/202/209 119/201/209
f 122/203/210 123/204/210 124/205/210
f 125/206/211 126/207/211 123/208/211
f 125/206/212 123/208/212 127/209/212
f 125/210/213 128/211/213 126/212/213
f 128/211/214 129/213/214 126/212/214
f 128/214/215 124/215/215 129/216/215
f 122/217/216 124/215/216 128/214/216
f 130/218/217 128/211/217 125/219/217
f 131/220/218 122/221/218 130/222/218
f 132/223/219 125/224/219 127/225/219
f 132/226/220 131/227/220 125/219/220
f 133/228/221 131/227/221 132/226/221
f 133/229/222 122/221/222 131/220/222
f 130/218/223 125/219/223 131/227/223
f 128/214/224 130/222/224 122/221/224
f 127/209/225 123/204/225 122/203/225
f 16/230/226 133/228/226 14/231/226
f 16/232/227 3/3/227 133/229/227
f 14/231/228 133/228/228 132/226/228
f 14/233/229 132/223/229 19/234/229
f 132/223/230 127/225/230 19/234/230
f 20/235/231 19/234/231 127/225/231
f 20/235/232 127/225/232 122/236/232
f 3/3/233 122/221/233 133/229/233
f 3/237/234 20/235/234 122/236/234
f 134/238/235 135/239/235 136/240/235
f 137/241/236 135/242/236 134/243/236
f 138/244/237 139/245/237 137/246/237
f 138/247/238 136/248/238 139/249/238
f 134/238/239 136/240/239 123/208/239
f 138/247/240 123/250/240 136/248/240
f 123/250/241 138/247/241 124/251/241
f 134/238/242 123/208/242 126/252/242
f 129/253/243 134/243/243 126/254/243
f 137/241/244 134/243/244 129/253/244
f 138/244/245 137/246/245 129/255/245
f 138/244/246 129/255/246 124/256/246
f 136/257/247 140/258/247 139/259/247
f 136/257/248 141/260/248 140/258/248
f 142/261/249 139/259/249 140/258/249
f 135/262/250 143/263/250 141/260/250
f 141/264/251 143/265/251 142/266/251
f 142/266/252 140/267/252 141/264/252
f 137/268/253 143/263/253 135/262/253
f 135/262/254 141/260/254 136/257/254
f 139/259/255 142/261/255 137/268/255
f 137/268/256 144/269/256 143/263/256
f 137/268/257 142/261/257 144/269/257
f 143/265/258 145/270/258 146/271/258
f 146/271/259 142/266/259 143/265/259
f 143/263/260 144/269/260 145/272/260
f 144/269/261 146/273/261 145/272/261
f 146/273/262 144/269/262 142/261/262
f 3/274/263 16/275/263 17/276/263
f 147/5/264 4/4/264 148/6/264
f 148/7/265 4/4/265 7/8/265
f 149/10/266 147/9/266 150/11/266
f 151/13/267 152/12/267 150/14/267
f 151/15/268 148/6/268 7/8/268
f 153/16/269 148/6/269 151/13/269
f 147/5/270 153/17/270 150/14/270
f 147/5/271 148/6/271 153/17/271
f 153/18/272 151/13/272 150/19/272
f 154/21/273 155/20/273 156/22/273
f 155/20/274 154/21/274 157/23/274
f 155/20/275 157/24/275 17/25/275
f 154/21/276 156/22/276 158/26/276
f 159/27/277 154/21/277 158/26/277
f 160/28/278 158/26/278 21/29/278
f 159/27/279 158/26/279 160/28/279
f 3/30/280 160/28/280 21/29/280
f 22/31/281 147/9/281 23/32/281
f 161/34/282 24/33/282 162/35/282
f 161/34/283 163/36/283 150/37/283
f 163/39/284 164/38/284 165/40/284
f 161/34/285 166/41/285 24/33/285
f 166/41/286 161/34/286 152/42/286
f 24/33/287 166/41/287 31/43/287
f 162/44/288 24/33/288 32/45/288
f 167/47/289 168/46/289 147/9/289
f 22/31/290 4/4/290 147/9/290
f 161/34/291 162/35/291 163/39/291
f 169/48/292 168/46/292 167/47/292
f 162/35/293 32/45/293 164/38/293
f 168/46/294 23/32/294 147/9/294
f 163/39/295 162/35/295 164/38/295
f 165/40/296 164/38/296 170/49/296
f 171/51/297 169/50/297 165/40/297
f 38/52/298 164/38/298 32/45/298
f 38/52/299 170/49/299 164/38/299
f 171/53/300 170/49/300 172/54/300
f 171/56/301 172/55/301 173/57/301
f 42/59/302 41/58/302 172/55/302
f 173/57/303 172/55/303 41/58/303
f 165/40/304 170/49/304 171/51/304
f 169/48/305 171/56/305 168/46/305
f 168/46/306 171/56/306 173/57/306
f 168/46/307 173/57/307 43/60/307
f 43/60/308 173/57/308 41/58/308
f 23/32/309 168/46/309 43/60/309
f 174/62/310 44/61/310 166/63/310
f 175/65/311 156/64/311 174/62/311
f 176/67/312 175/66/312 152/68/312
f 7/69/313 176/67/313 151/70/313
f 44/61/314 174/62/314 17/71/314
f 166/63/315 44/61/315 31/72/315
f 156/64/316 155/73/316 174/62/316
f 152/74/317 175/65/317 174/62/317
f 152/74/318 174/62/318 166/63/318
f 151/70/319 176/67/319 152/68/319
f 48/75/320 176/67/320 7/69/320
f 156/76/321 175/66/321 176/67/321
f 176/67/322 158/77/322 156/76/322
f 158/77/323 176/67/323 48/75/323
f 21/78/324 158/77/324 48/75/324
f 174/62/325 155/73/325 17/71/325
f 169/50/326 177/79/326 165/40/326
f 163/81/327 149/80/327 150/82/327
f 178/83/328 167/47/328 147/84/328
f 177/79/329 163/36/329 165/40/329
f 179/85/330 169/48/330 180/86/330
f 177/79/331 169/50/331 179/87/331
f 178/83/332 180/86/332 167/47/332
f 180/86/333 169/48/333 167/47/333
f 178/83/334 147/84/334 149/10/334
f 163/81/335 181/88/335 149/80/335
f 177/79/336 181/88/336 163/36/336
f 182/90/337 183/89/337 184/91/337
f 182/90/338 185/92/338 186/93/338
f 187/95/339 188/94/339 182/90/339
f 183/89/340 189/96/340 184/91/340
f 189/96/341 172/97/341 170/98/341
f 189/96/342 170/98/342 184/91/342
f 184/91/343 170/98/343 38/99/343
f 63/101/344 190/100/344 191/102/344
f 191/102/345 192/103/345 183/89/345
f 192/103/346 189/96/346 183/89/346
f 67/105/347 193/104/347 190/100/347
f 187/95/348 182/90/348 194/106/348
f 194/106/349 69/107/349 187/95/349
f 70/108/350 69/107/350 194/106/350
f 182/90/351 186/109/351 194/106/351
f 71/110/352 194/106/352 186/111/352
f 67/105/353 190/100/353 63/101/353
f 63/101/354 191/102/354 69/107/354
f 71/110/355 70/108/355 194/106/355
f 71/110/356 186/111/356 72/112/356
f 185/92/357 184/91/357 38/113/357
f 185/114/358 182/90/358 184/91/358
f 74/116/359 195/115/359 38/113/359
f 72/112/360 186/109/360 195/115/360
f 186/111/361 185/117/361 195/115/361
f 195/115/362 185/92/362 38/113/362
f 72/112/363 195/115/363 74/116/363
f 196/118/364 172/97/364 189/96/364
f 172/97/365 196/118/365 197/119/365
f 188/94/366 191/102/366 183/89/366
f 187/95/367 191/102/367 188/94/367
f 188/94/368 183/89/368 182/90/368
f 69/107/369 191/102/369 187/95/369
f 193/104/370 192/103/370 190/100/370
f 189/96/371 192/103/371 196/118/371
f 197/119/372 196/118/372 192/103/372
f 192/103/373 193/104/373 197/119/373
f 191/102/374 190/100/374 192/103/374
f 42/120/375 172/97/375 197/119/375
f 197/119/376 77/121/376 42/120/376
f 197/119/377 67/105/377 77/121/377
f 197/119/378 193/104/378 67/105/378
f 161/34/379 150/82/379 152/42/379
f 177/123/380 179/122/380 198/124/380
f 178/126/381 199/125/381 180/127/381
f 179/122/382 180/127/382 199/125/382
f 200/129/383 201/128/383 181/130/383
f 198/124/384 179/122/384 199/125/384
f 178/126/385 202/131/385 199/125/385
f 202/131/386 178/126/386 149/132/386
f 198/124/387 181/133/387 177/123/387
f 203/135/388 204/134/388 205/136/388
f 204/134/389 203/135/389 206/137/389
f 207/138/390 206/137/390 203/135/390
f 203/135/391 208/139/391 207/138/391
f 209/140/392 207/138/392 208/139/392
f 208/139/393 210/141/393 209/140/393
f 211/143/394 212/142/394 210/141/394
f 209/140/395 210/141/395 212/142/395
f 211/144/396 205/136/396 212/145/396
f 204/134/397 212/145/397 205/136/397
f 213/146/398 201/128/398 204/134/398
f 204/134/399 214/147/399 213/146/399
f 207/138/400 213/146/400 214/147/400
f 213/146/401 207/138/401 215/148/401
f 216/149/402 215/148/402 207/138/402
f 207/138/403 209/140/403 216/149/403
f 212/142/404 217/150/404 209/140/404
f 200/129/405 217/151/405 201/128/405
f 202/131/406 149/132/406 201/128/406
f 201/128/407 213/146/407 218/152/407
f 215/148/408 218/152/408 213/146/408
f 202/131/409 215/148/409 199/125/409
f 198/124/410 199/125/410 215/148/410
f 215/148/411 216/149/411 198/124/411
f 181/133/412 198/124/412 200/153/412
f 216/149/413 200/153/413 198/124/413
f 181/130/414 201/128/414 149/154/414
f 207/138/415 214/147/415 206/137/415
f 204/134/416 206/137/416 214/147/416
f 204/134/417 217/151/417 212/145/417
f 216/149/418 209/140/418 217/150/418
f 204/134/419 201/128/419 217/151/419
f 217/150/420 200/153/420 216/149/420
f 215/148/421 202/131/421 218/152/421
f 201/128/422 218/152/422 202/131/422
f 219/155/423 205/136/423 220/156/423
f 205/136/424 219/155/424 203/135/424
f 221/157/425 203/135/425 219/155/425
f 203/135/426 221/157/426 208/139/426
f 210/141/427 208/139/427 221/157/427
f 221/157/428 222/158/428 210/141/428
f 223/159/429 210/141/429 222/158/429
f 210/141/430 223/159/430 211/143/430
f 205/136/431 211/144/431 223/160/431
f 223/160/432 220/156/432 205/136/432
f 224/162/433 225/161/433 226/163/433
f 226/163/434 227/164/434 228/165/434
f 229/167/435 230/166/435 223/168/435
f 231/169/436 230/166/436 225/161/436
f 229/167/437 225/161/437 230/166/437
f 231/169/438 225/161/438 232/170/438
f 232/170/439 233/171/439 231/169/439
f 229/167/440 226/163/440 225/161/440
f 232/170/441 225/161/441 224/162/441
f 233/173/442 224/172/442 231/174/442
f 224/172/443 233/173/443 232/175/443
f 231/174/444 224/172/444 230/176/444
f 226/177/445 230/176/445 224/172/445
f 220/178/446 230/176/446 226/177/446
f 220/178/447 223/179/447 230/176/447
f 223/168/448 222/180/448 229/167/448
f 234/181/449 226/163/449 228/165/449
f 235/183/450 236/182/450 226/177/450
f 237/185/451 235/184/451 238/186/451
f 234/181/452 228/165/452 239/187/452
f 240/188/453 239/187/453 228/165/453
f 241/190/454 238/189/454 234/191/454
f 241/190/455 234/191/455 237/192/455
f 236/194/456 235/193/456 239/187/456
f 239/187/457 240/188/457 236/194/457
f 238/186/458 241/195/458 237/185/458
f 221/196/459 228/165/459 222/180/459
f 226/177/460 236/182/460 220/178/460
f 219/197/461 220/178/461 236/182/461
f 219/198/462 240/188/462 221/196/462
f 227/164/463 226/163/463 229/167/463
f 240/188/464 228/165/464 221/196/464
f 236/194/465 240/188/465 219/198/465
f 222/180/466 227/164/466 229/167/466
f 227/164/467 222/180/467 228/165/467
f 226/177/468 238/199/468 235/183/468
f 226/163/469 234/181/469 238/200/469
f 237/192/470 234/191/470 239/201/470
f 235/202/471 237/192/471 239/201/471
f 242/204/472 243/203/472 244/205/472
f 245/207/473 246/206/473 242/208/473
f 242/208/474 246/206/474 247/209/474
f 248/211/475 246/210/475 245/212/475
f 249/213/476 248/211/476 245/212/476
f 244/215/477 248/214/477 249/216/477
f 244/215/478 243/217/478 248/214/478
f 248/211/479 250/218/479 246/219/479
f 243/221/480 251/220/480 250/222/480
f 246/224/481 252/223/481 247/225/481
f 251/227/482 252/226/482 246/219/482
f 251/227/483 253/228/483 252/226/483
f 243/221/484 253/229/484 251/220/484
f 246/219/485 250/218/485 251/227/485
f 250/222/486 248/214/486 243/221/486
f 242/204/487 247/209/487 243/203/487
f 253/228/488 157/230/488 154/231/488
f 3/3/489 157/232/489 253/229/489
f 253/228/490 154/231/490 252/226/490
f 252/223/491 154/233/491 159/234/491
f 247/225/492 252/223/492 159/234/492
f 159/234/493 160/235/493 247/225/493
f 247/225/494 160/235/494 243/236/494
f 243/221/495 3/3/495 253/229/495
f 160/235/496 3/237/496 243/236/496
f 254/239/497 255/238/497 256/240/497
f 254/242/498 257/241/498 255/243/498
f 258/245/499 259/244/499 257/246/499
f 256/248/500 259/247/500 258/249/500
f 256/240/501 255/238/501 242/208/501
f 242/250/502 259/247/502 256/248/502
f 259/247/503 242/250/503 244/251/503
f 242/208/504 255/238/504 245/252/504
f 255/243/505 249/253/505 245/254/505
f 255/243/506 257/241/506 249/253/506
f 257/246/507 259/244/507 249/255/507
f 249/255/508 259/244/508 244/256/508
f 260/258/509 256/257/509 258/259/509
f 261/260/510 256/257/510 260/258/510
f 258/259/511 262/261/511 260/258/511
f 263/263/512 254/262/512 261/260/512
f 263/265/513 261/264/513 262/266/513
f 260/267/514 262/266/514 261/264/514
f 263/263/515 257/268/515 254/262/515
f 261/260/516 254/262/516 256/257/516
f 262/261/517 258/259/517 257/268/517
f 264/269/518 257/268/518 263/263/518
f 262/261/519 257/268/519 264/269/519
f 265/270/520 263/265/520 266/271/520
f 262/266/521 266/271/521 263/265/521
f 264/269/522 263/263/522 265/272/522
f 266/273/523 264/269/523 265/272/523
f 264/269/524 266/273/524 262/261/524
f 157/275/525 3/274/525 17/276/525

