mtllib anim_barb_idle_axe_000016.mtl

o fat
usemtl axe.001
s off

v 15.068350 85.253433 13.333301
v 13.343990 78.253906 14.619370
v 19.333490 84.863441 20.730200
v 17.703930 82.024933 20.046631
v 20.266340 83.922997 22.411560
v 18.636780 81.084480 21.728001
v 22.835251 77.423355 27.332211
v 18.204830 73.353531 23.380449
v 18.245750 90.788109 14.666161
v 26.012650 82.958031 28.665062
v 22.876169 94.857933 18.617910
v 20.963039 87.701965 21.413761
v 21.895901 86.761505 23.095131
v 27.737019 89.957550 27.379000
v 19.185101 81.449959 18.903240
v 20.814659 84.288475 19.586800
v 20.117960 80.509521 20.584600
v 21.747520 83.348015 21.268169
v 22.444210 87.126984 20.270359
v 23.377079 86.186531 21.951740
v 1.442880 53.699970 13.225470
v 2.375740 52.759518 14.906840
v 3.856920 52.184540 13.763439
v 2.924060 53.124992 12.082070
v 25.601650 92.921692 23.122231
v -14.578780 23.226622 7.794770
v -13.172870 22.754120 6.576730
v -14.030460 23.592091 4.970000
v -15.511641 24.167070 6.113400

vt 0.033358 0.643728
vt 0.190411 0.923560
vt 0.402692 0.503812
vt 0.402692 0.647326
vt 0.408249 0.287497
vt 0.408249 0.367848
vt 0.492649 0.287497
vt 0.492649 0.367848
vt 0.403043 0.503812
vt 0.403044 0.647326
vt 0.033710 0.643728
vt 0.190763 0.923560
vt 0.033358 0.363896
vt 0.033710 0.363896
vt 0.190411 0.084064
vt 0.402692 0.360297
vt 0.408249 0.207147
vt 0.492649 0.207147
vt 0.403043 0.360297
vt 0.190763 0.084064
vt 0.408248 1.036942
vt 0.492649 1.036942
vt 0.483600 0.371280
vt 0.402049 0.371280
vt 0.402049 1.040375
vt 0.483600 1.040375
vt 0.450449 0.037941
vt 0.483600 0.210579
vt 0.402049 0.210579
vt 0.442825 0.041374
vt 0.000000 1.000000

vn -0.821713 0.292320 0.489221
vn -0.831924 0.380287 0.404083
vn -0.756665 0.293729 0.584107
vn -0.696852 0.237042 0.676911
vn -0.726065 0.182286 0.663025
vn -0.804823 0.345892 0.482306
vn -0.772447 0.399421 0.493750
vn -0.646928 0.193789 0.737516
vn -0.681601 0.291251 0.671262
vn 0.646928 -0.193786 -0.737517
vn 0.681601 -0.291250 -0.671262
vn 0.756665 -0.293730 -0.584107
vn 0.772447 -0.399420 -0.493751
vn 0.804822 -0.345892 -0.482307
vn 0.696852 -0.237043 -0.676911
vn 0.726065 -0.182286 -0.663025
vn 0.821713 -0.292320 -0.489221
vn 0.831924 -0.380288 -0.404082
vn 0.077454 -0.846835 0.526185
vn -0.636541 -0.127033 -0.760709
vn -0.077456 0.846837 -0.526183
vn 0.636546 0.127031 0.760706
vn -0.435817 0.439362 -0.785509
vn 0.435821 -0.439364 0.785506
vn -0.682356 0.407812 0.606696
vn 0.816558 -0.174050 -0.550399
vn 0.504105 -0.306803 0.807310
vn -0.357631 0.561945 -0.745867
vn 0.461247 -0.451125 0.764028
vn 0.760880 -0.298870 -0.575967
vn -0.479666 -0.856484 -0.190668
vn -0.473426 -0.854166 -0.215099

f 1/1/1 2/2/1 3/3/1
f 4/4/2 3/3/2 2/2/2
f 3/5/3 4/6/3 5/7/3
f 6/8/3 5/7/3 4/6/3
f 5/9/4 6/10/4 7/11/4
f 8/12/5 7/11/5 6/10/5
f 9/13/6 1/1/6 3/3/6
f 7/11/4 10/14/4 5/9/4
f 11/15/7 9/13/7 12/16/7
f 3/3/6 12/16/6 9/13/6
f 12/17/3 3/5/3 13/18/3
f 5/7/3 13/18/3 3/5/3
f 13/19/8 5/9/8 14/20/8
f 10/14/9 14/20/9 5/9/9
f 15/4/10 2/2/10 16/3/10
f 1/1/11 16/3/11 2/2/11
f 17/8/12 15/6/12 18/7/12
f 16/5/12 18/7/12 15/6/12
f 8/12/13 17/10/13 7/11/13
f 18/9/14 7/11/14 17/10/14
f 16/3/15 1/1/15 9/13/15
f 7/11/14 18/9/14 10/14/14
f 16/3/15 9/13/15 19/16/15
f 11/15/16 19/16/16 9/13/16
f 18/7/12 16/5/12 20/18/12
f 19/17/12 20/18/12 16/5/12
f 10/14/17 18/9/17 14/20/17
f 20/19/18 14/20/18 18/9/18
f 4/4/19 2/2/19 15/4/19
f 17/10/20 8/12/20 6/10/20
f 13/19/21 14/20/21 20/19/21
f 19/16/22 11/15/22 12/16/22
f 6/8/3 4/6/3 21/21/3
f 21/21/3 22/22/3 6/8/3
f 15/6/12 17/8/12 23/22/12
f 23/22/12 24/21/12 15/6/12
f 4/23/23 15/24/23 24/25/23
f 24/25/23 21/26/23 4/23/23
f 17/24/24 6/23/24 22/26/24
f 22/26/24 23/25/24 17/24/24
f 12/17/25 13/18/25 25/27/25
f 20/18/26 19/17/26 25/27/26
f 13/28/27 20/29/27 25/30/27
f 19/29/28 12/28/28 25/30/28
f 23/22/29 22/21/29 26/22/29 27/31/29
f 21/21/23 24/22/23 28/21/23 29/31/23
f 24/21/30 23/22/30 27/21/30 28/31/30
f 22/22/3 21/21/3 29/22/3 26/31/3
f 28/21/31 27/22/31 29/21/31
f 26/22/32 29/21/32 27/22/32

