mtllib anim_barb_attack6_axe_000081.mtl

o fat
usemtl axe.001
s off

v -30.355011 17.309580 34.889709
v -26.755489 20.487709 29.361279
v -30.222198 10.269250 30.044762
v -28.876400 12.908991 28.495430
v -29.595970 9.005140 28.434929
v -28.250170 11.644890 26.885601
v -25.141088 6.784740 21.486450
v -23.492411 13.900841 20.972969
v -32.979118 12.162451 37.910667
v -27.765200 1.637620 24.507420
v -34.627800 5.046360 38.424160
v -31.568010 7.629490 31.594090
v -30.941771 6.365390 29.984261
v -31.364719 -1.540520 30.035851
v -27.178440 12.581800 29.412870
v -28.524239 9.942050 30.962200
v -26.552219 11.317700 27.803049
v -27.897999 8.677950 29.352369
v -29.870031 7.302310 32.511520
v -29.243811 6.038200 30.901699
v -15.446950 39.250549 13.034981
v -14.820720 37.986443 11.425150
v -13.122750 37.659248 12.342590
v -15.962520 43.200142 13.924450
v -33.239941 1.274950 34.510529
v -0.818570 65.451347 -4.694610
v 0.778760 65.122772 -3.840380
v 0.253170 66.388275 -2.167340
v -1.444800 66.715462 -3.084780

vt 0.033358 0.643728
vt 0.190411 0.923560
vt 0.402692 0.503812
vt 0.402692 0.647326
vt 0.408249 0.287497
vt 0.408249 0.367848
vt 0.492649 0.287497
vt 0.492649 0.367848
vt 0.403043 0.503812
vt 0.403044 0.647326
vt 0.033710 0.643728
vt 0.190763 0.923560
vt 0.033358 0.363896
vt 0.033710 0.363896
vt 0.190411 0.084064
vt 0.402692 0.360297
vt 0.408249 0.207147
vt 0.492649 0.207147
vt 0.403043 0.360297
vt 0.190763 0.084064
vt 0.408248 1.036942
vt 0.492649 1.036942
vt 0.483600 0.371280
vt 0.402049 0.371280
vt 0.402049 1.040375
vt 0.483600 1.040375
vt 0.450449 0.037941
vt 0.483600 0.210579
vt 0.402049 0.210579
vt 0.442825 0.041374
vt 0.000000 1.000000

vn -0.870541 0.267722 -0.412897
vn -0.909744 0.288682 -0.298378
vn -0.867411 0.167147 -0.468679
vn -0.824491 0.092705 -0.558230
vn -0.796973 0.142287 -0.587017
vn -0.896972 0.239015 -0.371906
vn -0.920864 0.188731 -0.341159
vn -0.785556 0.037995 -0.617623
vn -0.852801 0.064359 -0.518255
vn 0.785556 -0.037995 0.617622
vn 0.852801 -0.064359 0.518255
vn 0.867413 -0.167146 0.468677
vn 0.920864 -0.188731 0.341160
vn 0.896972 -0.239013 0.371906
vn 0.824490 -0.092704 0.558230
vn 0.796973 -0.142287 0.587017
vn 0.870541 -0.267722 0.412897
vn 0.909743 -0.288681 0.298380
vn 0.470519 -0.030927 -0.881848
vn -0.008788 0.936602 0.350286
vn -0.470519 0.030926 0.881848
vn 0.008789 -0.936601 -0.350286
vn 0.663500 0.129690 0.736850
vn -0.326684 0.519176 0.789768
vn -0.784722 0.036910 -0.618748
vn 0.292567 -0.590571 -0.752084
vn -0.914567 0.056856 -0.400419
vn 0.803735 -0.274252 0.528011
vn 0.228757 -0.702502 -0.673914
vn -0.349723 0.465227 0.813178
vn 0.288126 -0.589952 -0.754281
vn -0.892696 0.397398 -0.212530
vn 0.715374 0.019697 0.698464
vn 0.404158 0.786102 -0.467653
vn 0.408293 0.788349 -0.460220

f 1/1/1 2/2/1 3/3/1
f 4/4/2 3/3/2 2/2/2
f 3/5/3 4/6/3 5/7/3
f 6/8/3 5/7/3 4/6/3
f 5/9/4 6/10/4 7/11/4
f 8/12/5 7/11/5 6/10/5
f 9/13/6 1/1/6 3/3/6
f 7/11/4 10/14/4 5/9/4
f 11/15/7 9/13/7 12/16/7
f 3/3/6 12/16/6 9/13/6
f 12/17/3 3/5/3 13/18/3
f 5/7/3 13/18/3 3/5/3
f 13/19/8 5/9/8 14/20/8
f 10/14/9 14/20/9 5/9/9
f 15/4/10 2/2/10 16/3/10
f 1/1/11 16/3/11 2/2/11
f 17/8/12 15/6/12 18/7/12
f 16/5/12 18/7/12 15/6/12
f 8/12/13 17/10/13 7/11/13
f 18/9/14 7/11/14 17/10/14
f 16/3/15 1/1/15 9/13/15
f 7/11/14 18/9/14 10/14/14
f 16/3/15 9/13/15 19/16/15
f 11/15/16 19/16/16 9/13/16
f 18/7/12 16/5/12 20/18/12
f 19/17/12 20/18/12 16/5/12
f 10/14/17 18/9/17 14/20/17
f 20/19/18 14/20/18 18/9/18
f 4/4/19 2/2/19 15/4/19
f 17/10/20 8/12/20 6/10/20
f 13/19/21 14/20/21 20/19/21
f 19/16/22 11/15/22 12/16/22
f 6/8/3 4/6/3 21/21/3
f 21/21/3 22/22/3 6/8/3
f 15/6/12 17/8/12 23/22/12
f 23/22/23 24/21/23 15/6/23
f 4/23/24 15/24/24 24/25/24
f 24/25/25 21/26/25 4/23/25
f 17/24/26 6/23/26 22/26/26
f 22/26/26 23/25/26 17/24/26
f 12/17/27 13/18/27 25/27/27
f 20/18/28 19/17/28 25/27/28
f 13/28/29 20/29/29 25/30/29
f 19/29/30 12/28/30 25/30/30
f 23/22/31 22/21/31 26/22/31 27/31/31
f 21/21/32 24/22/32 28/21/32 29/31/32
f 24/21/33 23/22/33 27/21/33 28/31/33
f 22/22/3 21/21/3 29/22/3 26/31/3
f 28/21/34 27/22/34 29/21/34
f 26/22/35 29/21/35 27/22/35

