mtllib anim_barb_attack_barbonly_000062.mtl

o fat
usemtl fat.001
s off

v -0.137810 35.869362 -6.744980
v 1.860240 36.144421 6.136090
v 0.318890 34.942978 -2.142710
v 0.410170 57.801380 -11.918690
v 9.299520 62.744186 -10.412260
v 2.812830 53.901249 -11.567801
v -0.362600 49.478550 -10.041350
v 7.362710 58.890228 -7.227030
v 7.702180 53.607948 -6.647130
v 6.919220 49.034874 -5.993210
v 4.142630 49.353020 -10.131620
v 6.403020 54.306503 -11.235790
v 9.003679 33.937111 1.112970
v 9.352560 36.903790 -4.872050
v 10.561490 36.442398 -5.455620
v 6.412290 34.447121 1.013870
v 3.993900 34.310032 3.759720
v 4.408740 36.710392 -10.312450
v 3.744780 37.385750 -8.906060
v 0.502520 36.513458 -7.894150
v -0.321370 32.818981 -7.325710
v 0.201120 63.326000 -10.918409
v 0.170300 65.211151 -10.660520
v 0.128960 53.382011 0.853900
v 5.379790 53.580452 -1.715410
v 6.255160 57.398930 0.227400
v 8.980730 57.725071 -2.197650
v 6.123870 60.129772 0.860150
v 10.863670 62.478962 -3.262240
v 4.497020 50.192917 0.735670
v 1.102870 47.788830 -0.240480
v 0.791740 59.595509 2.538080
v 4.825240 66.804802 -7.193270
v 11.146689 62.989922 -9.135110
v 11.447790 63.866302 -5.658040
v 2.905110 64.715721 1.155690
v 5.512380 66.938187 -2.904450
v 0.171630 63.741203 1.639400
v 2.663080 70.766830 -0.246510
v 3.279240 69.303032 -4.030040
v 0.247260 69.653412 -4.806860
v 0.175950 71.714142 -1.284880
v 0.334850 68.106339 -7.069360
v 0.489180 45.064659 1.590240
v 5.364230 45.590431 1.713900
v 8.418850 45.238689 -3.463570
v 4.990360 44.640690 -8.678320
v -0.188040 44.351429 -10.834650
v 10.341850 62.496292 -2.956990
v 9.992360 58.689709 -9.557940
v 12.371040 61.222900 -4.334030
v 12.340000 61.317501 -7.711800
v 6.940620 61.383041 -2.258140
v 2.581520 68.839005 4.922310
v 1.180830 66.934723 6.218180
v 2.894370 64.997009 2.417200
v 1.639600 63.436550 4.164460
v 0.698310 65.624557 5.818670
v 1.643460 68.891205 6.523280
v -0.144470 68.698441 6.747670
v 3.177320 70.814888 2.638120
v 0.535690 72.537148 7.874100
v -0.763210 72.421211 8.122540
v 1.701340 69.963562 7.448010
v 2.256590 72.021622 6.930820
v 1.223440 74.519493 5.593070
v -0.414440 74.564087 5.403130
v 0.269850 66.808548 6.726860
v -0.765430 69.347755 7.213640
v -0.900690 67.092224 7.837200
v -0.835060 66.686295 7.080460
v -0.843340 65.151237 6.695830
v 0.535200 62.587273 5.582510
v -0.861440 62.438923 6.049670
v 3.025130 73.069931 3.255870
v 2.543030 74.413040 3.025810
v -0.045170 74.949356 1.953740
v 11.272301 60.468704 -1.490190
v 12.918200 58.536957 -4.236770
v 6.235850 54.097672 -2.865820
v 6.733400 57.070168 0.624570
v 9.967730 55.755611 -6.954200
v 7.150020 50.701317 0.537120
v 6.947870 48.242668 5.034451
v 5.490110 50.571907 3.813640
v 10.326620 49.126228 0.581700
v 11.572371 51.768551 1.482900
v 9.560890 49.364647 6.054230
v 10.439100 52.680630 3.124760
v 9.618441 51.986500 6.371640
v 7.834320 51.729660 3.786130
v 7.410400 53.275879 5.393980
v 10.326441 51.287697 -1.497440
v 10.437510 50.283390 -0.604830
v 12.758780 55.767189 -1.829360
v 10.994360 57.601242 0.598280
v 7.683870 53.279610 2.763560
v 10.652920 52.698040 -4.035640
v 3.277100 49.624702 11.066570
v 2.575860 51.323143 10.600590
v 4.614860 49.901192 11.820290
v 4.966770 51.757320 11.882730
v 3.899420 52.841522 11.224900
v 1.781230 55.496861 15.176630
v 1.187790 54.793373 15.130200
v 1.930650 53.840782 14.615450
v 2.890910 53.911060 14.531410
v 2.936470 52.879601 15.876650
v 1.984150 54.859501 12.792970
v 2.614190 54.754299 14.035320
v 0.957450 55.802689 14.514509
v 0.821800 55.758957 16.261719
v 0.238330 55.915649 15.673861
v 1.486090 53.171650 17.550489
v 0.583350 48.936310 14.231120
v -0.395640 49.001801 15.940980
v -1.580250 49.646458 18.535210
v 0.959390 53.801552 16.554640
v 0.519690 49.066719 16.461109
v 1.736660 48.860092 14.949501
v -0.620200 53.748772 19.322889
v 3.921370 24.422970 -9.110280
v 7.434240 20.635170 -17.520519
v 5.166040 17.536440 -13.533381
v 9.747220 25.677031 -10.100060
v 12.371830 19.540140 -14.449840
v 6.138390 26.853741 -12.427630
v 8.111240 21.622332 -8.222300
v 9.179430 16.561960 -10.702000
v 7.888700 23.201500 -6.706270
v 7.954090 25.465309 -6.170540
v 10.529190 29.441061 -9.160330
v 7.679530 28.740589 -2.317050
v 11.956290 9.868090 -19.296930
v 13.255110 7.569630 -21.425419
v 10.040040 8.423220 -22.956121
v 11.152040 7.873050 -18.288120
v 8.469640 9.163720 -19.498219
v 8.442739 6.341940 -20.616268
v 9.486030 3.253210 -24.116249
v 12.465950 3.781660 -24.515791
v 10.414320 2.682580 -15.555310
v 16.308090 4.228260 -16.666389
v 13.266920 5.278400 -12.493171
v 16.005100 3.894390 -12.518900
v 12.284340 2.880520 -11.178590
v -9.555850 61.442471 -9.029890
v -1.892230 53.920040 -11.668530
v -5.901870 58.386169 -3.721410
v -7.318430 53.496571 -6.561820
v -4.956670 49.148949 -8.734760
v -6.374790 48.264061 -4.250530
v -5.753590 54.447342 -11.076440
v -9.006149 36.641151 -3.314240
v -7.268280 34.265053 2.576910
v -10.268280 36.018349 -3.370770
v -4.827410 37.456970 1.763630
v -5.057970 32.905659 -7.916900
v -4.554060 35.721878 -8.059160
v -1.041260 34.755558 -7.290180
v -4.829290 53.438469 -1.402400
v -5.086390 57.097092 1.089440
v -10.126920 57.767601 -0.545210
v -4.769800 59.785381 1.883340
v -10.258699 63.100262 -0.890450
v -2.454760 47.672001 -0.157930
v -11.432160 62.309380 -7.526220
v -4.955480 66.678291 -6.863600
v -11.570149 63.804031 -3.437540
v -2.595220 64.688271 1.176340
v -5.928100 66.915779 -2.831490
v -2.505460 70.903877 -0.718880
v -2.831450 69.366150 -4.259640
v -3.837170 45.186172 2.568310
v -7.887930 44.912338 -2.571470
v -5.416080 43.867897 -8.401390
v -11.504830 62.376518 -0.953330
v -9.507680 56.814850 -6.833270
v -13.196779 61.966362 -3.172560
v -12.564720 59.090801 -5.601490
v -9.720660 59.342049 -0.752720
v -2.612380 67.053612 5.825370
v -3.597380 69.032669 4.282460
v -3.200620 65.109627 2.085800
v -2.856860 63.577492 3.698820
v -2.140430 65.713539 5.524710
v -1.316860 68.735184 6.626290
v -3.005530 69.036919 6.041840
v -3.589360 71.026985 1.937400
v -1.974020 72.615822 7.614190
v -3.184930 70.116722 6.942020
v -3.493930 72.201881 6.335320
v -2.056070 74.622269 5.253480
v -1.834430 66.874496 6.508950
v -2.120930 62.670532 5.307440
v -3.427430 73.272163 2.587700
v -2.826160 74.581329 2.469790
v -12.684060 60.026680 -0.182880
v -13.727480 58.105331 -3.254220
v -9.117890 56.462051 3.028890
v -7.741280 53.444370 -0.152270
v -10.312470 55.128532 -5.148090
v -7.903230 47.808754 2.594980
v -9.669600 50.056007 3.059290
v -9.351780 50.676750 4.506230
v -12.757820 48.593002 2.067440
v -14.104139 51.326962 2.506200
v -10.022860 46.076488 3.576890
v -13.542900 52.176682 4.450550
v -11.321140 46.539478 6.280040
v -10.467290 48.721527 7.915090
v -11.332920 51.150898 5.888280
v -12.047850 50.705627 0.034310
v -12.407660 49.792152 0.886010
v -14.255131 55.251129 -1.003970
v -13.192169 57.088169 1.818650
v -10.511360 53.196751 4.068730
v -11.588201 52.025108 -2.440020
v -3.242160 44.433853 7.629790
v -3.645790 44.998734 8.358871
v -4.607440 42.827000 6.936400
v -5.567520 43.050140 8.602720
v -5.176210 44.262539 9.604710
v -2.100990 41.813358 13.210540
v -3.046090 42.049309 13.827371
v -2.450610 41.794502 12.162041
v -3.690640 41.883530 11.896640
v -3.006840 40.418091 11.375500
v -3.862940 42.619209 12.577070
v -3.462710 43.841938 12.538851
v -2.594340 43.016659 14.094339
v -1.970080 41.472710 14.649540
v -1.661430 42.250999 14.746799
v -1.336370 39.493580 12.533400
v 0.840420 40.955849 8.309640
v -0.256820 42.226608 7.848640
v 2.115500 38.985962 9.464760
v -1.394210 40.407410 12.550631
v 0.612580 39.925858 8.661469
v -0.830080 40.805679 7.691970
v 0.606390 38.525570 13.581181
v -6.751070 20.026058 -2.998370
v -3.220660 25.397739 4.525330
v -4.404820 17.679750 1.192480
v -11.643810 19.429991 0.176640
v -9.070810 25.924610 3.212270
v -5.489470 26.116070 0.853710
v -7.293360 23.179790 5.862350
v -8.375540 17.009291 4.137310
v -7.160360 25.307291 6.998110
v -6.552380 27.755798 6.465430
v -10.019031 29.398151 2.744750
v -5.989530 33.962090 4.461220
v -12.424560 6.401930 -4.306550
v -11.149840 9.053250 -3.045150
v -9.261080 7.149210 -6.264640
v -10.279409 6.735100 -1.166370
v -7.592900 5.250840 -3.574990
v -7.645580 8.205980 -2.553340
v -8.567090 2.128700 -7.082520
v -11.577720 2.845490 -7.535460
v -9.320580 1.305600 1.301830
v -15.279690 2.885450 0.465800
v -12.191720 4.383250 4.616970
v -14.886820 2.919390 4.702650
v -11.112190 2.071070 6.006870

vt 0.550479 0.485338
vt 0.414517 0.485338
vt 0.489174 0.497239
vt 0.490853 0.675485
vt 0.356970 0.710738
vt 0.458986 0.602657
vt 0.458693 0.603155
vt 0.491001 0.506534
vt 0.357039 0.710738
vt 0.272881 0.708251
vt 0.307767 0.663467
vt 0.329118 0.504113
vt 0.420682 0.504388
vt 0.307693 0.663467
vt 0.420389 0.504181
vt 0.390374 0.619683
vt 0.389206 0.622726
vt 0.390855 0.620128
vt 0.309151 0.663075
vt 0.578845 0.971377
vt 0.529882 0.993867
vt 0.501054 0.950636
vt 0.597833 0.993868
vt 0.684209 0.993870
vt 0.691613 0.940228
vt 0.584242 0.936155
vt 0.602549 0.993867
vt 0.689094 0.993870
vt 0.694409 0.971380
vt 0.730001 0.975635
vt 0.490853 0.781888
vt 0.490853 0.820915
vt 0.240556 0.660920
vt 0.133663 0.660928
vt 0.131880 0.753091
vt 0.060606 0.782384
vt 0.055577 0.663688
vt 0.136145 0.808744
vt 0.060014 0.783494
vt 0.058190 0.859642
vt 0.160773 0.512959
vt 0.067037 0.515196
vt 0.240700 0.512959
vt 0.131877 0.752996
vt 0.240556 0.781375
vt 0.390182 0.870896
vt 0.298691 0.847983
vt 0.294173 0.886121
vt 0.181129 0.899551
vt 0.052544 0.886601
vt 0.145152 0.921474
vt 0.235241 0.891030
vt 0.142740 0.921054
vt 0.172936 0.966074
vt 0.456563 0.999059
vt 0.389917 0.922986
vt 0.429989 0.941889
vt 0.491140 0.942697
vt 0.490646 0.999330
vt 0.490853 0.898039
vt 0.701416 0.118225
vt 0.813217 0.120956
vt 0.790107 0.184348
vt 0.877923 0.002315
vt 0.872775 0.120438
vt 0.505869 0.118716
vt 0.564263 0.119120
vt 0.507564 0.183764
vt 0.697589 0.180917
vt 0.580429 0.182675
vt 0.710756 0.001536
vt 0.701372 0.182427
vt 0.812168 0.002315
vt 0.857243 0.184348
vt 0.697567 0.116528
vt 0.503935 0.000692
vt 0.561277 0.000692
vt 0.688827 -0.000098
vt 0.002866 0.854679
vt 0.027518 0.706813
vt 0.061197 0.782654
vt 0.055608 0.663958
vt 0.251604 0.781884
vt 0.357109 0.710738
vt 0.243886 0.876138
vt 0.247300 0.848527
vt -0.000514 0.880403
vt 0.006948 0.782948
vt 0.674684 0.829607
vt 0.705811 0.784366
vt 0.654033 0.662928
vt 0.703232 0.671848
vt 0.720473 0.730776
vt 0.697736 0.853617
vt 0.729837 0.853035
vt 0.623758 0.856571
vt 0.587609 0.811448
vt 0.658187 0.605708
vt 0.748523 0.593788
vt 0.716351 0.931575
vt 0.747491 0.935506
vt 0.695349 0.885675
vt 0.676247 0.904603
vt 0.649719 0.961956
vt 0.745560 1.001324
vt 0.725611 0.781438
vt 0.747491 0.878462
vt 0.747491 0.808438
vt 0.720379 0.731031
vt 0.747491 0.790807
vt 0.720762 0.730332
vt 0.748639 0.732530
vt 0.746944 0.628012
vt 0.703659 0.671442
vt 0.731857 0.666086
vt 0.747085 0.666819
vt 0.703186 0.671176
vt 0.611291 0.885598
vt 0.604148 0.909350
vt 0.550618 0.823662
vt 0.550618 0.934468
vt 0.625864 0.557513
vt 0.571978 0.557920
vt 0.578607 0.510287
vt 0.669444 0.510287
vt 0.756032 0.560223
vt 0.679695 0.557918
vt 0.877240 0.461159
vt 0.992418 0.461159
vt 0.944262 0.560223
vt 0.756457 0.510287
vt 0.806202 0.560223
vt 0.498275 0.560223
vt 0.875566 0.382888
vt 0.758260 0.308662
vt 0.875912 0.308662
vt 0.759996 0.360654
vt 0.669163 0.382888
vt 0.671223 0.308662
vt 0.584325 0.382888
vt 0.577057 0.308662
vt 0.498223 0.363687
vt 0.498247 0.308662
vt 0.992597 0.308662
vt 0.992439 0.363687
vt 0.759483 0.410364
vt 0.758924 0.382888
vt 0.665903 0.461159
vt 0.580075 0.461159
vt 0.498223 0.402657
vt 0.992438 0.402657
vt 0.760539 0.449273
vt 0.498220 0.461159
vt 0.875438 0.575163
vt 0.762705 0.196431
vt 0.858161 0.196355
vt 0.690657 0.196417
vt 0.588027 0.196417
vt 0.498144 0.196431
vt 0.991918 0.196431
vt 0.375723 0.009258
vt 0.380090 0.017573
vt 0.356438 0.030356
vt 0.342839 0.029458
vt 0.369327 0.043627
vt 0.316032 0.012201
vt 0.336848 0.019568
vt 0.249292 0.041099
vt 0.371147 0.002582
vt 0.416197 0.004791
vt 0.408124 0.000758
vt 0.128136 0.016613
vt 0.154876 0.002573
vt 0.119423 0.002194
vt 0.160447 0.001473
vt 0.065726 0.014292
vt 0.105093 0.028910
vt 0.000825 0.069213
vt 0.000703 0.039244
vt 0.249314 0.055441
vt 0.429228 0.045736
vt 0.102506 0.115410
vt 0.153549 0.117195
vt 0.189513 0.114692
vt 0.228429 0.109580
vt 0.194639 0.033982
vt 0.406548 0.108121
vt 0.355355 0.108206
vt 0.448349 0.035630
vt 0.498209 0.039288
vt 0.461840 0.047992
vt 0.483032 0.114221
vt 0.406174 0.120334
vt 0.355217 0.119080
vt 0.243215 0.037501
vt 0.249314 0.089732
vt 0.000703 0.095058
vt 0.249292 0.105039
vt 0.160984 0.032072
vt 0.413806 0.033644
vt 0.442212 0.108407
vt 0.443088 0.117732
vt 0.023914 0.327327
vt 0.104127 0.227894
vt 0.000784 0.227894
vt 0.216171 0.327327
vt 0.216985 0.228421
vt 0.105699 0.228145
vt 0.104981 0.327662
vt 0.217575 0.327327
vt 0.351490 0.301452
vt 0.217290 0.227894
vt 0.351571 0.227894
vt 0.352420 0.301452
vt 0.489174 0.227894
vt 0.352342 0.227894
vt 0.471690 0.333380
vt 0.351597 0.328057
vt 0.217345 0.328075
vt 0.352312 0.363299
vt 0.470864 0.334174
vt 0.352330 0.328057
vt 0.216660 0.380224
vt 0.216104 0.328075
vt 0.104983 0.328371
vt 0.217232 0.380224
vt 0.351611 0.363299
vt 0.351459 0.420971
vt 0.352499 0.420971
vt 0.351589 0.497239
vt 0.229465 0.497239
vt 0.352627 0.497239
vt 0.229583 0.497239
vt 0.133020 0.497239
vt 0.072972 0.497239
vt 0.025422 0.328212
vt 0.002386 0.497239
vt 0.216130 0.152222
vt 0.223982 0.125749
vt 0.105883 0.155747
vt 0.351732 0.147623
vt 0.223132 0.128232
vt 0.218721 0.149411
vt 0.469070 0.149411
vt 0.483427 0.127273
vt 0.352306 0.146326
vt 0.017963 0.152222
vt 0.104256 0.155747
vt 0.009616 0.131504
vt 0.104128 0.227914
vt 0.000790 0.227921
vt 0.216984 0.228396
vt 0.351571 0.227971
vt 0.217291 0.227882
vt 0.352342 0.227879
vt 0.489111 0.227891
vt 0.948232 0.041698
vt 0.989968 0.003451
vt 0.971575 0.059997
vt 0.909211 0.004273
vt 0.996004 0.120663
vt 0.925604 0.058708
vt 0.885225 0.122889
vt 0.516483 0.798440
vt 0.501430 0.685191
vt 0.597947 0.686709
vt 0.594444 0.793024
vt 0.950876 0.082499
vt 0.943924 0.157220
vt 0.507177 0.624822
vt 0.600053 0.622523
vt 0.901715 0.182549
vt 0.982420 0.184037
vt 0.730212 0.975635
vt 0.685579 0.991654
vt 0.692830 0.969164

vn 0.959845 -0.240907 -0.143742
vn 0.161337 0.010606 -0.986842
vn -0.184076 -0.199982 -0.962353
vn 0.778902 0.117683 0.616006
vn 0.802853 -0.216866 -0.555334
vn -0.027643 -0.308337 -0.950876
vn 0.118604 -0.267287 -0.956290
vn 0.910616 -0.283225 -0.300934
vn 0.084244 0.068107 -0.994115
vn 0.838499 -0.450846 -0.306034
vn -0.491141 -0.768730 -0.409676
vn -0.156389 -0.881287 -0.445955
vn -0.181245 -0.961272 -0.207622
vn -0.237828 -0.938719 0.249490
vn -0.292580 -0.908565 0.298172
vn 0.525836 0.013593 0.850478
vn 0.371545 -0.756243 0.538563
vn 0.974628 -0.221883 -0.029470
vn 0.063712 0.136284 -0.988619
vn 0.398694 -0.486831 0.777199
vn 0.729130 -0.593920 0.340043
vn 0.682437 -0.108423 0.722858
vn 0.371172 0.478899 0.795542
vn 0.940890 -0.000111 0.338712
vn -0.128511 -0.211935 0.968798
vn 0.276839 -0.278784 0.919586
vn 0.290279 0.770132 -0.568010
vn 0.066118 0.180194 -0.981406
vn 0.619116 -0.464204 0.633411
vn 0.440954 0.860520 -0.255076
vn 0.312288 -0.200161 0.928661
vn 0.217828 0.742328 -0.633640
vn 0.667539 -0.137462 0.731776
vn 0.526956 0.319092 0.787717
vn 0.570058 0.643068 0.511368
vn 0.269051 0.242309 0.932147
vn 0.157735 0.047145 0.986355
vn 0.784428 0.169617 0.596576
vn 0.750827 0.647901 -0.128390
vn 0.473775 0.764244 -0.437571
vn 0.190747 0.925565 -0.327026
vn 0.515781 0.567464 0.641837
vn 0.422165 0.901456 -0.095673
vn 0.752372 0.643569 -0.140557
vn 0.221457 0.815020 -0.535443
vn 0.232348 0.807046 -0.542855
vn 0.202537 0.757819 -0.620233
vn -0.046325 0.199317 0.978840
vn 0.860134 0.096071 0.500938
vn 0.836874 -0.033488 -0.546371
vn -0.027445 -0.299101 -0.953827
vn -0.044702 0.183526 0.981998
vn -0.564111 0.544326 0.620876
vn 0.909583 0.267683 0.317813
vn 0.733465 0.553063 0.395159
vn 0.926415 0.236775 0.292734
vn 0.829375 -0.022955 -0.558221
vn 0.372453 0.154275 -0.915138
vn 0.776734 0.312978 -0.546562
vn 0.618576 0.114803 -0.777293
vn 0.371704 0.161133 -0.914260
vn -0.345825 -0.269469 -0.898772
vn 0.470617 0.101783 0.876447
vn -0.337011 -0.776797 -0.531988
vn 0.953462 0.028321 -0.300180
vn 0.573784 -0.073821 -0.815673
vn -0.504763 0.006614 -0.863232
vn 0.943985 0.329987 0.000566
vn 0.678743 0.504403 0.533747
vn 0.690458 -0.115123 -0.714153
vn 0.868526 0.457557 -0.190536
vn -0.651344 -0.261401 -0.712335
vn 0.862314 0.478170 -0.166639
vn -0.165816 -0.108687 -0.980149
vn 0.822767 -0.261913 0.504437
vn 0.449124 -0.407814 0.794969
vn 0.142009 -0.185216 0.972383
vn 0.976795 -0.055362 0.206896
vn 0.984482 -0.001287 -0.175481
vn 0.998594 -0.049306 0.019493
vn 0.360741 -0.909655 0.205898
vn 0.193735 -0.074210 0.978243
vn 0.911170 -0.149324 0.384021
vn 0.974673 -0.039416 0.220136
vn -0.054128 0.761713 0.645649
vn 0.475327 0.094570 0.874712
vn 0.684976 0.142295 0.714535
vn 0.699334 0.151200 0.698620
vn 0.486844 -0.413855 0.769225
vn 0.313348 -0.503982 0.804870
vn 0.049237 0.781415 0.622066
vn -0.020318 -0.283515 0.958752
vn 0.245446 -0.845229 0.474704
vn 0.531248 -0.208613 0.821131
vn 0.474289 -0.797914 -0.372000
vn 0.864976 -0.164825 0.473971
vn 0.007759 -0.959525 -0.281515
vn 0.513966 -0.093902 0.852656
vn 0.810867 -0.088530 0.578496
vn 0.317131 -0.901926 -0.293184
vn 0.330398 -0.220819 0.917647
vn 0.977702 0.114254 -0.176197
vn 0.917813 0.281484 -0.279974
vn 0.767695 -0.441748 0.464222
vn 0.163227 -0.649333 0.742781
vn 0.826306 -0.272272 0.493038
vn 0.056784 -0.545676 0.836070
vn 0.520855 0.560332 0.644001
vn 0.978250 0.009256 0.207221
vn 0.884045 0.366916 0.289545
vn 0.769131 0.518339 0.373847
vn 0.497932 0.082603 0.863273
vn 0.491997 0.590405 -0.639813
vn 0.399783 0.661986 -0.633994
vn 0.151111 0.980494 0.125688
vn 0.030217 0.999208 -0.025898
vn 0.900931 -0.093658 0.423735
vn 0.669642 0.611842 0.420985
vn 0.799282 -0.397300 -0.450889
vn 0.979894 0.199491 -0.003419
vn -0.993790 0.090769 0.064361
vn 0.895849 0.196918 0.398343
vn 0.796057 -0.405437 -0.449349
vn -0.582152 -0.536937 -0.610572
vn -0.022183 0.579282 0.814826
vn -0.686339 -0.624719 -0.372378
vn -0.390434 -0.800298 -0.455066
vn 0.734016 -0.502044 0.457353
vn 0.461709 -0.852488 -0.245132
vn 0.854656 0.197754 0.480058
vn 0.970785 -0.049727 0.234740
vn 0.591001 0.653624 -0.472750
vn -0.312824 0.941905 0.122294
vn -0.323316 0.638045 -0.698831
vn -0.436803 0.880005 -0.186531
vn -0.277837 -0.716215 -0.640189
vn -0.322020 -0.648578 -0.689674
vn 0.913853 -0.208568 -0.348384
vn 0.836730 -0.474585 -0.273224
vn 0.852059 0.160026 0.498384
vn 0.851714 0.160078 0.498957
vn 0.010510 0.551375 0.834191
vn -0.966251 -0.111148 0.232392
vn -0.529317 -0.499572 -0.685749
vn -0.378364 -0.787620 -0.486307
vn 0.863181 -0.480248 -0.155821
vn 0.796549 -0.422073 -0.432855
vn 0.897917 0.258177 0.356497
vn 0.862539 0.240597 0.445129
vn -0.029759 0.556437 0.830357
vn -0.068789 0.591685 0.803229
vn -0.984781 0.106708 -0.137188
vn 0.906016 -0.342205 -0.249058
vn -0.319404 -0.663320 -0.676748
vn -0.980081 0.033962 0.195675
vn -0.016891 0.458201 0.888688
vn -0.968845 -0.012968 0.247327
vn -0.054465 0.480325 0.875398
vn 0.850342 -0.250952 -0.462538
vn -0.381365 -0.681580 -0.624507
vn -0.843969 -0.434678 -0.314279
vn -0.728557 -0.614545 -0.302554
vn 0.055785 -0.965302 0.255108
vn 0.268133 -0.910523 0.314726
vn 0.751131 -0.095566 0.653200
vn 0.757095 -0.164808 0.632176
vn 0.489029 0.750815 0.443991
vn 0.381163 0.876251 0.294785
vn -0.657541 0.669233 -0.346074
vn -0.631238 0.693244 -0.347781
vn 0.268643 -0.287306 0.919395
vn -0.004814 0.793488 0.608567
vn 0.603179 0.760158 -0.241525
vn 0.472233 0.860763 -0.189957
vn 0.502330 0.845047 -0.183193
vn 0.313448 0.948388 0.048073
vn 0.219958 0.974627 0.041471
vn 0.749149 -0.150964 0.644969
vn 0.571438 -0.523752 0.631777
vn -0.779333 -0.446212 -0.439925
vn -0.593150 -0.697006 0.402934
vn -0.869829 -0.385961 -0.307297
vn -0.824241 -0.483613 -0.294526
vn -0.989860 -0.109621 -0.090335
vn -0.170801 0.498367 -0.849975
vn 0.741187 0.661960 -0.111579
vn 0.473184 0.840687 0.263329
vn -0.831955 0.266674 -0.486556
vn -0.839232 0.295305 -0.456601
vn 0.682990 -0.333281 0.649960
vn 0.704851 -0.352399 0.615630
vn 0.467364 0.837662 0.282653
vn 0.571414 -0.281724 0.770791
vn 0.036993 -0.997549 0.059393
vn -0.100057 -0.993447 0.055241
vn -0.834672 0.285738 -0.470825
vn 0.855917 -0.178602 0.485290
vn -0.907622 0.274238 -0.317829
vn -0.635755 -0.437045 -0.636244
vn 0.250244 -0.963940 -0.090536
vn 0.037162 0.515751 0.855932
vn 0.744206 -0.352949 0.567084
vn 0.044609 -0.983389 -0.175946
vn 0.842976 0.450025 0.294736
vn 0.845296 0.437447 0.306782
vn -0.856472 0.295874 -0.422983
vn 0.492992 0.829112 0.263690
vn 0.613960 -0.334303 0.715049
vn -0.054390 -0.974579 0.217344
vn -0.898371 0.110646 -0.425073
vn 0.505387 0.632318 -0.587161
vn 0.564581 0.590195 -0.576991
vn 0.814153 -0.061081 0.577428
vn 0.800509 -0.118868 0.587415
vn -0.584727 -0.453149 0.672867
vn -0.499615 -0.530258 0.684990
vn 0.913802 -0.206812 0.349564
vn -0.549384 -0.177365 0.816529
vn 0.560230 0.089213 -0.823519
vn 0.879204 -0.279064 0.386165
vn 0.885527 -0.320962 0.335896
vn -0.255926 -0.745503 0.615408
vn 0.905393 -0.122364 0.406558
vn -0.536780 -0.622450 0.569581
vn -0.874326 0.185209 -0.448611
vn 0.901705 -0.050403 0.429403
vn -0.424810 -0.524873 0.737594
vn 0.923382 -0.071177 0.377227
vn 0.538566 0.482029 -0.691083
vn 0.403479 0.371317 -0.836259
vn -0.345133 0.226138 -0.910903
vn -0.765795 -0.153736 -0.624438
vn -0.483885 -0.592354 0.644183
vn -0.959891 -0.261174 -0.101962
vn 0.441677 0.731119 -0.519988
vn 0.827304 -0.050602 0.559471
vn -0.511429 -0.312325 0.800559
vn -0.879988 0.182197 -0.438663
vn 0.737728 0.399609 -0.544124
vn -0.911354 -0.011320 -0.411467
vn -0.871179 0.006005 -0.490928
vn 0.549194 0.355440 -0.756339
vn 0.829061 -0.278583 0.484819
vn 0.898578 -0.154566 0.410692
vn -0.550557 -0.616457 0.562910
vn -0.547876 -0.617919 0.563923
vn -0.881539 0.191318 -0.431609
vn -0.169711 0.233056 -0.957540
vn -0.916769 -0.392646 0.073236
vn 0.880109 0.176290 -0.440828
vn 0.241976 -0.968212 -0.063356
vn 0.163177 -0.983081 -0.083222
vn 0.502609 0.825401 0.257094
vn 0.477205 0.493701 -0.727004
vn -0.716783 0.401894 0.569827
vn 0.530161 0.829062 0.177724
vn -0.814925 0.356439 0.457000
vn 0.242161 -0.968363 -0.060261
vn 0.242645 -0.968265 -0.059882
vn 0.449420 0.887217 0.104251
vn 0.211464 0.401805 0.890974
vn -0.802186 0.504114 0.319947
vn -0.037962 -0.995814 -0.083151
vn -0.248536 0.085244 -0.964864
vn 0.297827 -0.236282 -0.924916
vn -0.839936 -0.069329 0.538238
vn -0.886842 -0.310921 -0.341816
vn -0.223634 -0.402268 -0.887788
vn -0.193367 -0.420798 -0.886306
vn -0.856831 -0.356859 -0.372145
vn -0.118619 0.218881 -0.968515
vn -0.881803 -0.295190 -0.367813
vn 0.412639 -0.796029 -0.442793
vn 0.655329 -0.613429 -0.440737
vn 0.100315 -0.317007 -0.943103
vn 0.272577 -0.619230 0.736380
vn 0.716972 -0.093393 0.690817
vn -0.124758 -0.064537 0.990086
vn -0.191095 0.083595 0.978005
vn -0.905631 -0.341271 0.251728
vn -0.212393 0.129034 -0.968628
vn -0.352786 -0.543540 0.761647
vn -0.582090 -0.766211 0.272199
vn -0.427320 0.047889 0.902831
vn -0.413806 0.025988 0.909994
vn -0.724612 -0.153386 0.671871
vn 0.028927 -0.187088 0.981917
vn -0.131999 -0.246181 0.960193
vn -0.321677 0.589276 -0.741133
vn -0.218166 0.165871 -0.961712
vn -0.323101 -0.548137 0.771461
vn -0.509534 0.802458 -0.310541
vn -0.121660 -0.267919 0.955729
vn -0.354208 0.605933 -0.712308
vn -0.327849 -0.231855 0.915837
vn -0.302004 0.265957 0.915457
vn -0.467720 0.760230 0.450875
vn -0.108097 0.195142 0.974800
vn -0.100146 0.185381 0.977550
vn -0.685812 0.221305 0.693315
vn -0.668437 0.702729 -0.243648
vn -0.345023 0.807050 -0.479197
vn -0.152907 0.911515 -0.381786
vn -0.318213 0.691229 0.648801
vn -0.463004 0.871239 -0.163003
vn -0.663392 0.720363 -0.202453
vn -0.229847 0.764762 -0.601922
vn -0.175128 0.809540 -0.560335
vn -0.229432 0.762853 -0.604497
vn 0.179835 0.679782 0.711025
vn -0.779979 0.154244 0.606499
vn -0.889897 0.195210 -0.412283
vn -0.270904 -0.037153 -0.961889
vn 0.219824 0.261240 0.939910
vn 0.000946 0.557629 0.830090
vn -0.828859 0.260794 0.494954
vn -0.669162 0.551566 0.497994
vn -0.402604 0.768798 0.496849
vn -0.955059 0.064825 -0.289242
vn -0.428106 0.123933 -0.895191
vn -0.868208 0.269789 -0.416448
vn -0.674780 -0.054572 -0.735999
vn -0.417262 -0.053725 -0.907197
vn 0.113281 -0.290415 -0.950172
vn -0.104524 0.033621 0.993954
vn -0.465338 0.762109 0.450167
vn -0.557233 0.531860 -0.637664
vn -0.678133 -0.320904 -0.661178
vn -0.086321 0.062239 0.994321
vn -0.600535 0.434813 -0.671040
vn -0.662315 0.641957 0.386303
vn -0.534273 -0.287389 -0.794959
vn -0.957015 0.260497 -0.127526
vn 0.694868 -0.302462 -0.652438
vn -0.604896 0.051353 -0.794647
vn -0.076936 -0.110741 -0.990867
vn -0.928924 -0.247935 0.275007
vn -0.626741 -0.374094 0.683557
vn -0.349276 -0.169812 0.921504
vn -0.995931 -0.066942 -0.060335
vn -0.922848 -0.100081 -0.371934
vn -0.844870 -0.068810 -0.530528
vn -0.346635 -0.917633 0.194405
vn -0.394118 -0.055773 0.917366
vn -0.977951 -0.090108 0.188392
vn -0.999624 0.022467 0.015689
vn -0.032095 0.761020 0.647934
vn -0.637533 0.129442 0.759471
vn -0.806572 0.189036 0.560095
vn -0.816797 0.198719 0.541620
vn -0.658689 -0.377951 0.650601
vn -0.502094 -0.478422 0.720427
vn -0.127028 0.786940 0.603813
vn -0.193988 -0.278072 0.940768
vn -0.389319 -0.825331 0.408974
vn -0.699976 -0.170023 0.693632
vn -0.368094 -0.712052 -0.597904
vn -0.983999 -0.037368 0.174209
vn -0.008323 -0.958498 -0.284979
vn -0.682440 -0.056406 0.728762
vn -0.916013 -0.034405 0.399670
vn -0.223377 -0.889248 -0.399176
vn -0.524298 -0.194028 0.829135
vn -0.908679 0.175289 -0.378914
vn -0.818595 0.333865 -0.467373
vn -0.872329 -0.390352 0.294392
vn -0.351757 -0.633198 0.689440
vn -0.924985 -0.217378 0.311687
vn -0.260431 -0.535716 0.803234
vn -0.605916 0.595647 0.527324
vn -0.997460 0.071181 0.002629
vn -0.900126 0.422839 0.104785
vn -0.795747 0.567388 0.211795
vn -0.658013 0.118839 0.743570
vn -0.334742 0.600486 -0.726199
vn -0.219666 0.682660 -0.696938
vn -0.112591 0.988759 0.098381
vn 0.037693 0.998973 -0.025120
vn -0.900135 0.029639 0.434601
vn -0.725262 0.514102 0.457925
vn -0.630881 -0.552678 -0.544551
vn -0.909208 0.133312 -0.394421
vn 0.940405 0.325604 0.098078
vn -0.960672 0.126820 0.247033
vn -0.666365 -0.343382 -0.661851
vn 0.625836 -0.680153 -0.381735
vn 0.228945 0.197625 0.953168
vn 0.673353 0.614268 -0.411424
vn 0.152499 0.313513 -0.937258
vn -0.141007 -0.224194 0.964289
vn -0.168994 -0.321368 -0.931753
vn -0.752067 -0.496114 0.433897
vn -0.837887 -0.436567 -0.327650
vn -0.903770 0.033938 0.426671
vn -0.520596 0.070954 0.850850
vn 0.534851 0.645475 0.545248
vn -0.047908 0.921715 -0.384897
vn 0.446145 -0.736215 -0.508864
vn 0.489651 -0.689937 -0.533131
vn -0.775135 -0.239706 -0.584557
vn -0.733467 -0.468632 -0.492352
vn -0.953461 0.179812 0.242034
vn -0.963559 0.176512 0.200993
vn -0.142387 0.689111 0.710529
vn 0.826756 -0.183464 0.531805
vn 0.610510 -0.600341 -0.516593
vn 0.495149 -0.801455 -0.335406
vn -0.786166 -0.472699 -0.398120
vn -0.677383 -0.374133 -0.633385
vn -0.947266 0.287193 0.142153
vn -0.944072 0.280887 0.172716
vn 0.286990 0.783589 0.551021
vn -0.150795 0.574194 0.804712
vn 0.631732 0.285401 0.720737
vn -0.786855 -0.301020 -0.538745
vn 0.495598 -0.678699 -0.541988
vn 0.872380 0.078751 0.482443
vn -0.048956 0.474473 0.878908
vn 0.833871 0.046724 0.549978
vn -0.210045 0.376918 0.902116
vn -0.698564 -0.285413 -0.656161
vn 0.547036 -0.666657 -0.506281
vn 0.737103 0.666981 -0.108697
vn 0.752443 0.583569 -0.305414
vn 0.636656 -0.222304 -0.738410
vn 0.127323 -0.602435 -0.787947
vn -0.476490 -0.875635 -0.078875
vn -0.466822 -0.871136 -0.152312
vn -0.547342 -0.421081 0.723261
vn -0.543351 -0.356797 0.759911
vn 0.427869 0.716490 0.550972
vn 0.225466 0.691937 0.685848
vn -0.191124 -0.978191 0.081329
vn -0.218777 -0.415980 0.882665
vn -0.810539 0.281365 0.513674
vn -0.798381 0.217928 0.561334
vn -0.748011 0.263877 0.608973
vn -0.588512 0.052175 0.806803
vn -0.515168 0.097895 0.851480
vn -0.515182 -0.855420 -0.053329
vn -0.350259 -0.918104 -0.185480
vn 0.730365 0.572781 -0.372141
vn 0.923626 -0.345569 -0.165826
vn 0.842654 0.497239 -0.206610
vn 0.836583 0.466430 -0.287353
vn 0.899350 0.429924 0.079589
vn -0.230918 0.935080 0.268892
vn -0.919756 -0.026758 0.391577
vn -0.625882 -0.180632 0.758712
vn 0.624515 0.679150 0.385663
vn 0.631546 0.653476 0.417275
vn -0.321067 -0.909754 -0.263179
vn -0.343787 -0.890876 -0.296901
vn -0.492398 -0.047547 0.869071
vn -0.334607 -0.915099 -0.225015
vn 0.018461 -0.326847 -0.944897
vn 0.507131 -0.110350 -0.854775
vn 0.569795 0.767133 0.294688
vn -0.570764 -0.790244 -0.223032
vn 0.618670 0.685775 0.383354
vn 0.585308 0.765001 -0.268677
vn 0.279915 0.169900 -0.944871
vn -0.198492 -0.690144 0.695919
vn -0.395170 -0.859582 -0.323973
vn 0.118192 0.061591 -0.991079
vn -0.826684 -0.474010 0.303164
vn -0.821334 -0.488191 0.295093
vn 0.657799 0.620563 0.426851
vn -0.393267 -0.042204 0.918455
vn -0.389238 -0.873158 -0.293408
vn 0.252858 -0.362364 -0.897081
vn 0.885446 0.062985 -0.460454
vn -0.508233 0.521645 -0.685263
vn -0.483739 0.537237 -0.690922
vn -0.807478 0.044983 0.588180
vn -0.781741 -0.036928 0.622508
vn 0.599446 -0.311283 0.737406
vn 0.477941 -0.409014 0.777354
vn -0.890689 -0.169511 0.421828
vn 0.530017 0.052521 0.846359
vn -0.522771 -0.252306 -0.814280
vn -0.751972 -0.117985 0.648551
vn -0.633353 0.289233 0.717780
vn 0.594085 0.197906 0.779677
vn -0.828387 0.307546 0.468178
vn 0.485809 -0.435074 0.758090
vn 0.854338 0.139660 -0.500601
vn -0.672683 0.579148 0.460526
vn 0.665790 0.304419 0.681214
vn -0.745115 0.486143 0.456582
vn -0.707415 -0.392682 -0.587678
vn -0.616892 -0.502208 -0.605996
vn -0.025977 -0.678582 -0.734065
vn 0.528014 -0.710439 -0.465271
vn 0.687087 0.227303 0.690105
vn 0.859660 -0.465618 -0.210201
vn -0.527985 0.558309 -0.639939
vn -0.824757 0.135309 0.549060
vn 0.560082 -0.261751 0.785999
vn 0.886157 0.165444 -0.432845
vn -0.736104 0.297680 -0.607896
vn 0.922191 -0.084003 -0.377502
vn 0.848731 -0.083889 -0.522129
vn -0.549587 0.223749 -0.804916
vn -0.813003 -0.207602 0.543992
vn -0.920668 -0.030290 0.389169
vn 0.600003 -0.451942 0.660110
vn 0.577039 -0.463321 0.672577
vn 0.888832 0.190739 -0.416649
vn 0.188778 0.183263 -0.964768
vn 0.936091 -0.348194 0.049942
vn -0.895029 0.163591 -0.414923
vn -0.240803 -0.964703 -0.106596
vn -0.213762 -0.970158 -0.114453
vn -0.528284 0.803067 0.275681
vn -0.539254 0.492077 -0.683422
vn 0.724820 0.387079 0.569917
vn -0.575697 0.806032 0.137421
vn 0.843761 0.338390 0.416606
vn -0.228708 -0.973063 0.029002
vn -0.263245 -0.963076 0.056445
vn -0.476056 0.878632 0.037105
vn -0.206453 0.431497 0.878173
vn 0.822327 0.521192 0.228336
vn -0.358142 -0.925430 0.123749

f 1/1/1 2/2/1 3/3/1
f 4/4/2 5/5/2 6/6/2
f 4/4/3 6/7/3 7/8/3
f 5/9/4 8/10/4 9/11/4
f 10/12/5 11/13/5 9/14/5
f 6/6/6 11/15/6 7/8/6
f 6/6/7 12/16/7 11/13/7
f 12/17/8 5/5/8 9/14/8
f 6/6/9 5/5/9 12/17/9
f 11/13/10 12/18/10 9/19/10
f 13/20/11 14/21/11 15/22/11
f 14/21/12 13/20/12 16/23/12
f 16/24/13 13/20/13 17/25/13
f 15/22/14 14/21/14 18/26/14
f 14/21/15 19/27/15 18/26/15
f 18/26/16 20/28/16 21/29/16
f 18/26/17 19/27/17 20/28/17
f 20/28/18 3/30/18 21/29/18
f 5/9/19 22/31/19 23/32/19
f 24/33/20 25/34/20 26/35/20
f 27/36/21 25/34/21 9/37/21
f 28/38/22 27/39/22 29/40/22
f 30/41/23 25/34/23 24/33/23
f 25/34/24 30/41/24 10/42/24
f 30/41/25 24/33/25 31/43/25
f 24/33/26 26/44/26 32/45/26
f 33/46/27 34/47/27 5/9/27
f 4/4/28 22/31/28 5/9/28
f 26/35/29 25/34/29 27/39/29
f 33/46/30 35/48/30 34/47/30
f 32/45/31 26/35/31 28/38/31
f 23/32/32 33/46/32 5/9/32
f 26/35/33 27/39/33 28/38/33
f 28/38/34 29/40/34 36/49/34
f 35/50/35 37/51/35 29/40/35
f 28/38/36 38/52/36 32/45/36
f 36/49/37 38/52/37 28/38/37
f 36/49/38 37/53/38 39/54/38
f 39/55/39 37/56/39 40/57/39
f 41/58/40 42/59/40 39/55/40
f 39/55/41 40/57/41 41/58/41
f 36/49/42 29/40/42 37/51/42
f 37/56/43 35/48/43 33/46/43
f 37/56/44 33/46/44 40/57/44
f 40/57/45 33/46/45 43/60/45
f 40/57/46 43/60/46 41/58/46
f 33/46/47 23/32/47 43/60/47
f 44/61/48 45/62/48 30/63/48
f 15/64/49 46/65/49 45/62/49
f 46/66/50 47/67/50 10/68/50
f 47/67/51 7/69/51 11/70/51
f 45/62/52 44/61/52 17/71/52
f 44/61/53 30/63/53 31/72/53
f 13/73/54 15/64/54 45/62/54
f 46/65/55 10/74/55 45/62/55
f 45/62/56 10/74/56 30/63/56
f 47/67/57 11/70/57 10/68/57
f 47/67/58 48/75/58 7/69/58
f 46/66/59 15/76/59 47/67/59
f 18/77/60 47/67/60 15/76/60
f 47/67/61 18/77/61 48/75/61
f 18/77/62 21/78/62 48/75/62
f 13/73/63 45/62/63 17/71/63
f 49/79/64 35/50/64 29/40/64
f 8/80/65 27/81/65 9/82/65
f 34/47/66 50/83/66 5/84/66
f 27/36/67 49/79/67 29/40/67
f 35/48/68 51/85/68 52/86/68
f 35/50/69 49/79/69 51/87/69
f 52/86/70 50/83/70 34/47/70
f 35/48/71 52/86/71 34/47/71
f 5/84/72 50/83/72 8/10/72
f 53/88/73 27/81/73 8/80/73
f 53/88/74 49/79/74 27/36/74
f 54/89/75 55/90/75 56/91/75
f 57/92/76 55/90/76 58/93/76
f 59/94/77 60/95/77 55/90/77
f 61/96/78 54/89/78 56/91/78
f 39/97/79 61/96/79 36/98/79
f 36/98/80 61/96/80 56/91/80
f 36/98/81 56/91/81 38/99/81
f 62/100/82 63/101/82 64/102/82
f 65/103/83 64/102/83 54/89/83
f 61/96/84 65/103/84 54/89/84
f 66/104/85 67/105/85 62/100/85
f 55/90/86 60/95/86 68/106/86
f 69/107/87 68/106/87 60/95/87
f 69/107/88 70/108/88 68/106/88
f 58/109/89 55/90/89 68/106/89
f 68/106/90 71/110/90 58/111/90
f 62/100/91 67/105/91 63/101/91
f 64/102/92 63/101/92 69/107/92
f 70/108/93 71/110/93 68/106/93
f 58/111/94 71/110/94 72/112/94
f 56/91/95 57/92/95 38/113/95
f 55/90/96 57/114/96 56/91/96
f 73/115/97 74/116/97 38/113/97
f 58/109/98 72/112/98 73/115/98
f 57/117/99 58/111/99 73/115/99
f 57/92/100 73/115/100 38/113/100
f 73/115/101 72/112/101 74/116/101
f 39/97/102 75/118/102 61/96/102
f 75/118/103 39/97/103 76/119/103
f 64/102/104 59/94/104 54/89/104
f 64/102/105 60/95/105 59/94/105
f 54/89/106 59/94/106 55/90/106
f 64/102/107 69/107/107 60/95/107
f 65/103/108 66/104/108 62/100/108
f 65/103/109 61/96/109 75/118/109
f 75/118/110 76/119/110 65/103/110
f 66/104/111 65/103/111 76/119/111
f 62/100/112 64/102/112 65/103/112
f 39/97/113 42/120/113 76/119/113
f 77/121/114 76/119/114 42/120/114
f 67/105/115 76/119/115 77/121/115
f 66/104/116 76/119/116 67/105/116
f 9/82/117 25/34/117 10/42/117
f 51/122/118 49/123/118 78/124/118
f 79/125/119 50/126/119 52/127/119
f 52/127/120 51/122/120 79/125/120
f 80/128/121 81/129/121 53/130/121
f 51/122/122 78/124/122 79/125/122
f 82/131/123 50/126/123 79/125/123
f 50/126/124 82/131/124 8/132/124
f 53/133/125 78/124/125 49/123/125
f 83/134/126 84/135/126 85/136/126
f 84/135/127 83/134/127 86/137/127
f 86/137/128 87/138/128 84/135/128
f 88/139/129 84/135/129 87/138/129
f 87/138/130 89/140/130 88/139/130
f 90/141/131 88/139/131 89/140/131
f 91/142/132 92/143/132 90/141/132
f 90/141/133 89/140/133 91/142/133
f 85/136/134 92/144/134 91/145/134
f 91/145/135 83/134/135 85/136/135
f 80/128/136 93/146/136 83/134/136
f 94/147/137 83/134/137 93/146/137
f 93/146/138 87/138/138 94/147/138
f 87/138/139 93/146/139 95/148/139
f 95/148/140 96/149/140 87/138/140
f 89/140/141 87/138/141 96/149/141
f 97/150/142 91/142/142 89/140/142
f 97/151/143 81/129/143 80/128/143
f 8/132/144 82/131/144 80/128/144
f 93/146/145 80/128/145 98/152/145
f 98/152/146 95/148/146 93/146/146
f 95/148/147 82/131/147 79/125/147
f 79/125/148 78/124/148 95/148/148
f 96/149/149 95/148/149 78/124/149
f 78/124/150 53/133/150 81/153/150
f 81/153/151 96/149/151 78/124/151
f 80/128/152 53/130/152 8/154/152
f 94/147/153 87/138/153 86/137/153
f 86/137/154 83/134/154 94/147/154
f 97/151/155 83/134/155 91/145/155
f 89/140/156 96/149/156 97/150/156
f 80/128/157 83/134/157 97/151/157
f 81/153/158 97/150/158 96/149/158
f 82/131/159 95/148/159 98/152/159
f 98/152/160 80/128/160 82/131/160
f 85/136/161 99/155/161 100/156/161
f 99/155/162 85/136/162 84/135/162
f 84/135/163 101/157/163 99/155/163
f 101/157/164 84/135/164 88/139/164
f 88/139/165 90/141/165 101/157/165
f 102/158/166 101/157/166 90/141/166
f 90/141/167 103/159/167 102/158/167
f 103/159/168 90/141/168 92/143/168
f 92/144/169 85/136/169 103/160/169
f 100/156/170 103/160/170 85/136/170
f 104/161/171 105/162/171 106/163/171
f 107/164/172 106/163/172 108/165/172
f 109/166/173 110/167/173 103/168/173
f 109/166/174 111/169/174 104/161/174
f 104/161/175 110/167/175 109/166/175
f 104/161/176 111/169/176 112/170/176
f 113/171/177 112/170/177 111/169/177
f 106/163/178 110/167/178 104/161/178
f 104/161/179 112/170/179 105/162/179
f 105/172/180 113/173/180 111/174/180
f 113/173/181 105/172/181 112/175/181
f 105/172/182 111/174/182 109/176/182
f 109/176/183 106/177/183 105/172/183
f 109/176/184 100/178/184 106/177/184
f 103/179/185 100/178/185 109/176/185
f 102/180/186 103/168/186 110/167/186
f 106/163/187 114/181/187 108/165/187
f 115/182/188 116/183/188 106/177/188
f 116/184/189 117/185/189 118/186/189
f 108/165/190 114/181/190 119/187/190
f 119/187/191 120/188/191 108/165/191
f 118/189/192 121/190/192 114/191/192
f 114/191/193 121/190/193 117/192/193
f 116/193/194 115/194/194 119/187/194
f 120/188/195 119/187/195 115/194/195
f 121/195/196 118/186/196 117/185/196
f 108/165/197 101/196/197 102/180/197
f 115/182/198 106/177/198 100/178/198
f 100/178/199 99/197/199 115/182/199
f 120/188/200 99/198/200 101/196/200
f 106/163/201 107/164/201 110/167/201
f 108/165/202 120/188/202 101/196/202
f 120/188/203 115/194/203 99/198/203
f 107/164/204 102/180/204 110/167/204
f 102/180/205 107/164/205 108/165/205
f 118/199/206 106/177/206 116/183/206
f 114/181/207 106/163/207 118/200/207
f 114/191/208 117/192/208 119/201/208
f 117/192/209 116/202/209 119/201/209
f 122/203/210 123/204/210 124/205/210
f 125/206/211 126/207/211 123/208/211
f 125/206/212 123/208/212 127/209/212
f 125/210/213 128/211/213 126/212/213
f 128/211/214 129/213/214 126/212/214
f 128/214/215 124/215/215 129/216/215
f 122/217/216 124/215/216 128/214/216
f 130/218/217 128/211/217 125/219/217
f 131/220/218 122/221/218 130/222/218
f 132/223/219 125/224/219 127/225/219
f 132/226/220 131/227/220 125/219/220
f 133/228/221 131/227/221 132/226/221
f 133/229/222 122/221/222 131/220/222
f 130/218/223 125/219/223 131/227/223
f 128/214/224 130/222/224 122/221/224
f 127/209/225 123/204/225 122/203/225
f 16/230/226 133/228/226 14/231/226
f 16/232/227 3/3/227 133/229/227
f 14/231/228 133/228/228 132/226/228
f 14/233/229 132/223/229 19/234/229
f 132/223/230 127/225/230 19/234/230
f 20/235/231 19/234/231 127/225/231
f 20/235/232 127/225/232 122/236/232
f 3/3/233 122/221/233 133/229/233
f 3/237/234 20/235/234 122/236/234
f 134/238/235 135/239/235 136/240/235
f 137/241/236 135/242/236 134/243/236
f 138/244/237 139/245/237 137/246/237
f 138/247/238 136/248/238 139/249/238
f 134/238/239 136/240/239 123/208/239
f 138/247/240 123/250/240 136/248/240
f 123/250/241 138/247/241 124/251/241
f 134/238/242 123/208/242 126/252/242
f 129/253/243 134/243/243 126/254/243
f 137/241/244 134/243/244 129/253/244
f 138/244/245 137/246/245 129/255/245
f 138/244/246 129/255/246 124/256/246
f 136/257/247 140/258/247 139/259/247
f 136/257/248 141/260/248 140/258/248
f 142/261/249 139/259/249 140/258/249
f 135/262/250 143/263/250 141/260/250
f 141/264/251 143/265/251 142/266/251
f 142/266/252 140/267/252 141/264/252
f 137/268/253 143/263/253 135/262/253
f 135/262/254 141/260/254 136/257/254
f 139/259/255 142/261/255 137/268/255
f 137/268/256 144/269/256 143/263/256
f 137/268/257 142/261/257 144/269/257
f 143/265/258 145/270/258 146/271/258
f 146/271/259 142/266/259 143/265/259
f 143/263/260 144/269/260 145/272/260
f 144/269/261 146/273/261 145/272/261
f 146/273/262 144/269/262 142/261/262
f 3/274/263 16/275/263 17/276/263
f 147/5/264 4/4/264 148/6/264
f 148/7/265 4/4/265 7/8/265
f 149/10/266 147/9/266 150/11/266
f 151/13/267 152/12/267 150/14/267
f 151/15/268 148/6/268 7/8/268
f 153/16/269 148/6/269 151/13/269
f 147/5/270 153/17/270 150/14/270
f 147/5/271 148/6/271 153/17/271
f 153/18/272 151/13/272 150/19/272
f 154/21/273 155/20/273 156/22/273
f 155/20/274 154/21/274 157/23/274
f 155/20/275 157/24/275 17/25/275
f 154/21/276 156/22/276 158/26/276
f 159/27/277 154/21/277 158/26/277
f 160/28/278 158/26/278 21/29/278
f 159/27/279 158/26/279 160/28/279
f 3/30/280 160/28/280 21/29/280
f 22/31/281 147/9/281 23/32/281
f 161/34/282 24/33/282 162/35/282
f 161/34/283 163/36/283 150/37/283
f 163/39/284 164/38/284 165/40/284
f 161/34/285 166/41/285 24/33/285
f 166/41/286 161/34/286 152/42/286
f 24/33/287 166/41/287 31/43/287
f 162/44/288 24/33/288 32/45/288
f 167/47/289 168/46/289 147/9/289
f 22/31/290 4/4/290 147/9/290
f 161/34/291 162/35/291 163/39/291
f 169/48/292 168/46/292 167/47/292
f 162/35/293 32/45/293 164/38/293
f 168/46/294 23/32/294 147/9/294
f 163/39/295 162/35/295 164/38/295
f 165/40/296 164/38/296 170/49/296
f 171/51/297 169/50/297 165/40/297
f 38/52/298 164/38/298 32/45/298
f 38/52/299 170/49/299 164/38/299
f 171/53/300 170/49/300 172/54/300
f 171/56/301 172/55/301 173/57/301
f 42/59/302 41/58/302 172/55/302
f 173/57/303 172/55/303 41/58/303
f 165/40/304 170/49/304 171/51/304
f 169/48/305 171/56/305 168/46/305
f 168/46/306 171/56/306 173/57/306
f 168/46/307 173/57/307 43/60/307
f 43/60/308 173/57/308 41/58/308
f 23/32/309 168/46/309 43/60/309
f 174/62/310 44/61/310 166/63/310
f 175/65/311 156/64/311 174/62/311
f 176/67/312 175/66/312 152/68/312
f 7/69/313 176/67/313 151/70/313
f 44/61/314 174/62/314 17/71/314
f 166/63/315 44/61/315 31/72/315
f 156/64/316 155/73/316 174/62/316
f 152/74/317 175/65/317 174/62/317
f 152/74/318 174/62/318 166/63/318
f 151/70/319 176/67/319 152/68/319
f 48/75/320 176/67/320 7/69/320
f 156/76/321 175/66/321 176/67/321
f 176/67/322 158/77/322 156/76/322
f 158/77/323 176/67/323 48/75/323
f 21/78/324 158/77/324 48/75/324
f 174/62/325 155/73/325 17/71/325
f 169/50/326 177/79/326 165/40/326
f 163/81/327 149/80/327 150/82/327
f 178/83/328 167/47/328 147/84/328
f 177/79/329 163/36/329 165/40/329
f 179/85/330 169/48/330 180/86/330
f 177/79/331 169/50/331 179/87/331
f 178/83/332 180/86/332 167/47/332
f 180/86/333 169/48/333 167/47/333
f 178/83/334 147/84/334 149/10/334
f 163/81/335 181/88/335 149/80/335
f 177/79/336 181/88/336 163/36/336
f 182/90/337 183/89/337 184/91/337
f 182/90/338 185/92/338 186/93/338
f 187/95/339 188/94/339 182/90/339
f 183/89/340 189/96/340 184/91/340
f 189/96/341 172/97/341 170/98/341
f 189/96/342 170/98/342 184/91/342
f 184/91/343 170/98/343 38/99/343
f 63/101/344 190/100/344 191/102/344
f 191/102/345 192/103/345 183/89/345
f 192/103/346 189/96/346 183/89/346
f 67/105/347 193/104/347 190/100/347
f 187/95/348 182/90/348 194/106/348
f 194/106/349 69/107/349 187/95/349
f 70/108/350 69/107/350 194/106/350
f 182/90/351 186/109/351 194/106/351
f 71/110/352 194/106/352 186/111/352
f 67/105/353 190/100/353 63/101/353
f 63/101/354 191/102/354 69/107/354
f 71/110/355 70/108/355 194/106/355
f 71/110/356 186/111/356 72/112/356
f 185/92/357 184/91/357 38/113/357
f 185/114/358 182/90/358 184/91/358
f 74/116/359 195/115/359 38/113/359
f 72/112/360 186/109/360 195/115/360
f 186/111/361 185/117/361 195/115/361
f 195/115/362 185/92/362 38/113/362
f 72/112/363 195/115/363 74/116/363
f 196/118/364 172/97/364 189/96/364
f 172/97/365 196/118/365 197/119/365
f 188/94/366 191/102/366 183/89/366
f 187/95/367 191/102/367 188/94/367
f 188/94/368 183/89/368 182/90/368
f 69/107/369 191/102/369 187/95/369
f 193/104/370 192/103/370 190/100/370
f 189/96/371 192/103/371 196/118/371
f 197/119/372 196/118/372 192/103/372
f 192/103/373 193/104/373 197/119/373
f 191/102/374 190/100/374 192/103/374
f 42/120/375 172/97/375 197/119/375
f 197/119/376 77/121/376 42/120/376
f 197/119/377 67/105/377 77/121/377
f 197/119/378 193/104/378 67/105/378
f 161/34/379 150/82/379 152/42/379
f 177/123/380 179/122/380 198/124/380
f 178/126/381 199/125/381 180/127/381
f 179/122/382 180/127/382 199/125/382
f 200/129/383 201/128/383 181/130/383
f 198/124/384 179/122/384 199/125/384
f 178/126/385 202/131/385 199/125/385
f 202/131/386 178/126/386 149/132/386
f 198/124/387 181/133/387 177/123/387
f 203/135/388 204/134/388 205/136/388
f 204/134/389 203/135/389 206/137/389
f 207/138/390 206/137/390 203/135/390
f 203/135/391 208/139/391 207/138/391
f 209/140/392 207/138/392 208/139/392
f 208/139/393 210/141/393 209/140/393
f 211/143/394 212/142/394 210/141/394
f 209/140/395 210/141/395 212/142/395
f 211/144/396 205/136/396 212/145/396
f 204/134/397 212/145/397 205/136/397
f 213/146/398 201/128/398 204/134/398
f 204/134/399 214/147/399 213/146/399
f 207/138/400 213/146/400 214/147/400
f 213/146/401 207/138/401 215/148/401
f 216/149/402 215/148/402 207/138/402
f 207/138/403 209/140/403 216/149/403
f 212/142/404 217/150/404 209/140/404
f 200/129/405 217/151/405 201/128/405
f 202/131/406 149/132/406 201/128/406
f 201/128/407 213/146/407 218/152/407
f 215/148/408 218/152/408 213/146/408
f 202/131/409 215/148/409 199/125/409
f 198/124/410 199/125/410 215/148/410
f 215/148/411 216/149/411 198/124/411
f 181/133/412 198/124/412 200/153/412
f 216/149/413 200/153/413 198/124/413
f 181/130/414 201/128/414 149/154/414
f 207/138/415 214/147/415 206/137/415
f 204/134/416 206/137/416 214/147/416
f 204/134/417 217/151/417 212/145/417
f 216/149/418 209/140/418 217/150/418
f 204/134/419 201/128/419 217/151/419
f 217/150/420 200/153/420 216/149/420
f 215/148/421 202/131/421 218/152/421
f 201/128/422 218/152/422 202/131/422
f 219/155/423 205/136/423 220/156/423
f 205/136/424 219/155/424 203/135/424
f 221/157/425 203/135/425 219/155/425
f 203/135/426 221/157/426 208/139/426
f 210/141/427 208/139/427 221/157/427
f 221/157/428 222/158/428 210/141/428
f 223/159/429 210/141/429 222/158/429
f 210/141/430 223/159/430 211/143/430
f 205/136/431 211/144/431 223/160/431
f 223/160/432 220/156/432 205/136/432
f 224/162/433 225/161/433 226/163/433
f 226/163/434 227/164/434 228/165/434
f 229/167/435 230/166/435 223/168/435
f 231/169/436 230/166/436 225/161/436
f 229/167/437 225/161/437 230/166/437
f 231/169/438 225/161/438 232/170/438
f 232/170/439 233/171/439 231/169/439
f 229/167/440 226/163/440 225/161/440
f 232/170/441 225/161/441 224/162/441
f 233/173/442 224/172/442 231/174/442
f 224/172/443 233/173/443 232/175/443
f 231/174/444 224/172/444 230/176/444
f 226/177/445 230/176/445 224/172/445
f 220/178/446 230/176/446 226/177/446
f 220/178/447 223/179/447 230/176/447
f 223/168/448 222/180/448 229/167/448
f 234/181/449 226/163/449 228/165/449
f 235/183/450 236/182/450 226/177/450
f 237/185/451 235/184/451 238/186/451
f 234/181/452 228/165/452 239/187/452
f 240/188/453 239/187/453 228/165/453
f 241/190/454 238/189/454 234/191/454
f 241/190/455 234/191/455 237/192/455
f 236/194/456 235/193/456 239/187/456
f 239/187/457 240/188/457 236/194/457
f 238/186/458 241/195/458 237/185/458
f 221/196/459 228/165/459 222/180/459
f 226/177/460 236/182/460 220/178/460
f 219/197/461 220/178/461 236/182/461
f 219/198/462 240/188/462 221/196/462
f 227/164/463 226/163/463 229/167/463
f 240/188/464 228/165/464 221/196/464
f 236/194/465 240/188/465 219/198/465
f 222/180/466 227/164/466 229/167/466
f 227/164/467 222/180/467 228/165/467
f 226/177/468 238/199/468 235/183/468
f 226/163/469 234/181/469 238/200/469
f 237/192/470 234/191/470 239/201/470
f 235/202/471 237/192/471 239/201/471
f 242/204/472 243/203/472 244/205/472
f 245/207/473 246/206/473 242/208/473
f 242/208/474 246/206/474 247/209/474
f 248/211/475 246/210/475 245/212/475
f 249/213/476 248/211/476 245/212/476
f 244/215/477 248/214/477 249/216/477
f 244/215/478 243/217/478 248/214/478
f 248/211/479 250/218/479 246/219/479
f 243/221/480 251/220/480 250/222/480
f 246/224/481 252/223/481 247/225/481
f 251/227/482 252/226/482 246/219/482
f 251/227/483 253/228/483 252/226/483
f 243/221/484 253/229/484 251/220/484
f 246/219/485 250/218/485 251/227/485
f 250/222/486 248/214/486 243/221/486
f 242/204/487 247/209/487 243/203/487
f 253/228/488 157/230/488 154/231/488
f 3/3/489 157/232/489 253/229/489
f 253/228/490 154/231/490 252/226/490
f 252/223/491 154/233/491 159/234/491
f 247/225/492 252/223/492 159/234/492
f 159/234/493 160/235/493 247/225/493
f 247/225/494 160/235/494 243/236/494
f 243/221/495 3/3/495 253/229/495
f 160/235/496 3/237/496 243/236/496
f 254/239/497 255/238/497 256/240/497
f 254/242/498 257/241/498 255/243/498
f 258/245/499 259/244/499 257/246/499
f 256/248/500 259/247/500 258/249/500
f 256/240/501 255/238/501 242/208/501
f 242/250/502 259/247/502 256/248/502
f 259/247/503 242/250/503 244/251/503
f 242/208/504 255/238/504 245/252/504
f 255/243/505 249/253/505 245/254/505
f 255/243/506 257/241/506 249/253/506
f 257/246/507 259/244/507 249/255/507
f 249/255/508 259/244/508 244/256/508
f 260/258/509 256/257/509 258/259/509
f 261/260/510 256/257/510 260/258/510
f 258/259/511 262/261/511 260/258/511
f 263/263/512 254/262/512 261/260/512
f 263/265/513 261/264/513 262/266/513
f 260/267/514 262/266/514 261/264/514
f 263/263/515 257/268/515 254/262/515
f 261/260/516 254/262/516 256/257/516
f 262/261/517 258/259/517 257/268/517
f 264/269/518 257/268/518 263/263/518
f 262/261/519 257/268/519 264/269/519
f 265/270/520 263/265/520 266/271/520
f 262/266/521 266/271/521 263/265/521
f 264/269/522 263/263/522 265/272/522
f 266/273/523 264/269/523 265/272/523
f 264/269/524 266/273/524 262/261/524
f 157/275/525 3/274/525 17/276/525

