mtllib anim_barb_attack_000063.mtl

o fat
usemtl fat.001
s off

v -0.137810 38.666603 -3.649980
v 1.860240 36.144421 6.136090
v 0.318890 37.863533 1.468030
v 0.410170 60.998032 -8.030880
v 9.299520 66.444130 -5.912440
v 2.812830 57.145428 -7.622200
v -0.362600 52.675217 -6.153540
v 7.883460 62.004669 -2.326990
v 7.702180 57.307892 -2.147310
v 6.919220 52.231541 -2.105400
v 4.142630 52.564941 -6.225260
v 6.403020 57.805252 -6.980630
v 9.003679 37.467941 4.839250
v 9.352560 39.469078 -1.735260
v 10.561490 38.974110 -2.210200
v 6.412290 38.374741 4.706450
v 3.993900 37.003418 7.035510
v 4.408740 37.263802 -6.735060
v 3.744780 39.148602 -5.761590
v 0.502520 38.428581 -4.612390
v -0.321370 35.942558 -5.215760
v 0.201120 66.522659 -7.030600
v 0.170300 68.490791 -6.671810
v 0.128960 56.971748 5.219720
v 5.379790 57.280388 2.784410
v 6.255160 61.098881 4.727230
v 8.980730 61.425011 2.302180
v 6.123870 63.829697 5.359980
v 11.311180 65.801361 1.243210
v 4.497020 52.886311 4.011470
v 1.102870 51.058041 3.735550
v 0.791740 63.295448 7.037900
v 4.825240 70.504745 -2.693450
v 10.757890 67.254402 -5.277160
v 11.536551 67.661827 -1.616180
v 2.905110 68.415665 5.655510
v 5.512380 70.638130 1.595370
v 0.171630 67.441139 6.139220
v 2.663080 74.466774 4.253310
v 3.279240 73.002960 0.469780
v 0.247260 73.353348 -0.307040
v 0.175950 75.414078 3.214940
v 0.334850 71.806274 -2.569530
v 0.489180 47.903652 5.043100
v 5.364230 48.283821 4.989700
v 8.418850 47.932083 -0.187770
v 4.990360 47.339329 -5.396130
v -0.188040 47.348862 -7.189100
v 11.721459 65.206352 1.091610
v 9.632800 63.054390 -6.035860
v 13.224760 64.844162 -1.551130
v 12.278380 65.564224 -4.545210
v 9.029910 63.183098 2.637670
v 2.581520 72.538940 9.422130
v 1.180830 70.634659 10.718000
v 2.894370 68.696953 6.917020
v 1.639600 67.136490 8.664280
v 0.698310 69.324501 10.318500
v 1.643460 72.591141 11.023100
v -0.144470 72.398384 11.247500
v 3.177320 74.514832 7.137950
v 0.535690 76.237091 12.373919
v -0.763210 76.121147 12.622360
v 1.701340 73.663498 11.947841
v 2.256590 75.721573 11.430640
v 1.223440 78.219421 10.092890
v -0.414440 78.264030 9.902950
v 0.269850 70.508484 11.226681
v -0.765430 73.047699 11.713459
v -0.900690 70.792168 12.337019
v -0.835060 70.386230 11.580280
v -0.843340 68.851181 11.195650
v 0.535200 66.287216 10.082330
v -0.861440 66.138847 10.549490
v 3.025130 76.769875 7.755700
v 2.543030 78.112976 7.525640
v -0.045170 78.649300 6.453560
v 13.499890 63.043350 1.007180
v 13.962730 62.444130 -2.654930
v 8.854170 56.441071 -0.628480
v 10.562140 58.252800 3.253090
v 10.356521 60.035957 -4.895830
v 11.382340 52.464062 0.691600
v 11.845050 47.993233 -0.018720
v 11.475240 49.335171 3.087070
v 14.385550 51.689240 -1.027170
v 15.692500 54.141907 0.246500
v 15.106610 48.007042 0.398730
v 15.299439 54.242138 2.402270
v 16.302721 49.023571 3.061740
v 13.303160 52.586708 3.585940
v 14.570900 49.803749 4.968570
v 13.337960 54.322182 -2.009510
v 13.893590 53.145443 -1.656970
v 15.051939 59.112667 -1.555970
v 14.353980 59.691582 1.842270
v 12.615490 54.300121 3.336940
v 12.465570 56.443558 -3.753880
v 11.361470 42.008812 3.946620
v 11.286720 42.801964 5.666770
v 12.867550 41.704639 3.675780
v 13.932030 42.299801 5.119940
v 13.234130 42.996861 6.452050
v 13.862280 39.681499 10.422890
v 13.060460 39.371540 10.090860
v 13.131731 39.723339 8.827770
v 13.946060 40.042603 8.416640
v 14.034610 38.493019 7.733560
v 12.957750 41.732330 9.371630
v 13.878380 40.697189 9.191669
v 13.057539 40.198360 10.966760
v 13.526791 38.540619 11.290340
v 12.891830 38.998009 11.603670
v 13.497230 36.705299 8.960720
v 9.889120 38.257599 5.173480
v 9.673440 36.474792 5.986740
v 9.820150 34.006859 7.547740
v 12.959641 37.698269 9.585930
v 10.655630 36.224281 5.694970
v 11.085020 37.835072 4.680260
v 12.551360 34.764179 10.763021
v 3.921370 26.150242 -1.245600
v 7.434220 22.007450 -9.128330
v 5.166040 18.796961 -4.360390
v 9.747220 27.055481 -2.375340
v 12.371820 20.771862 -5.703910
v 6.138390 27.293760 -5.164620
v 8.111240 23.577700 0.341140
v 9.179430 18.232840 -1.358310
v 7.888700 25.665901 1.453470
v 7.954090 28.164289 1.136030
v 10.529190 30.826769 -3.065950
v 7.679530 32.590118 3.583240
v 11.956270 11.189260 -10.560941
v 13.255090 8.850770 -12.381210
v 10.040020 9.784140 -13.985280
v 11.152030 8.938790 -9.235160
v 8.469620 10.423150 -10.524020
v 8.442730 7.541670 -11.670731
v 9.486010 4.728450 -15.434609
v 12.465930 5.390690 -15.810129
v 10.414320 3.376000 -7.010170
v 16.308090 5.027750 -7.956429
v 13.266920 5.643170 -3.697330
v 16.005110 4.269150 -3.865250
v 12.284350 3.122830 -2.636300
v -9.555850 64.981987 -4.725140
v -1.892230 57.133862 -7.759860
v -5.901870 62.086109 0.778410
v -7.318430 57.196510 -2.062000
v -4.956670 52.418159 -4.758730
v -6.374790 51.567478 -0.232900
v -5.753590 57.760437 -7.047029
v -9.006149 39.070152 0.102960
v -7.268270 36.690670 6.343850
v -10.268280 38.536560 -0.144590
v -4.827410 37.770939 5.717360
v -5.057970 37.116070 -5.912130
v -4.554060 39.111931 -5.072390
v -1.041260 38.350479 -4.673480
v -4.829290 57.138409 3.097420
v -5.086390 60.797028 5.589260
v -10.126920 61.467537 3.954610
v -4.769800 63.485321 6.383170
v -10.258699 66.800186 3.609380
v -2.454760 50.938309 3.814580
v -11.432160 66.009323 -3.026400
v -4.955480 70.378220 -2.363780
v -11.570149 67.503975 1.062280
v -2.595220 68.388206 5.676170
v -5.928100 70.615723 1.668340
v -2.505460 74.603821 3.780950
v -2.831450 73.066093 0.240180
v -3.837170 47.879562 5.844110
v -7.887930 47.633209 1.221790
v -5.416080 47.229179 -4.394800
v -11.504830 66.076462 3.546500
v -9.507680 60.514790 -2.333450
v -13.196779 65.666298 1.327260
v -12.564720 62.790741 -1.101670
v -9.720660 63.041977 3.747100
v -2.612380 70.753563 10.325201
v -3.597380 72.732613 8.782280
v -3.200620 68.809570 6.585620
v -2.856860 67.277435 8.198640
v -2.140420 69.413483 10.024540
v -1.316860 72.435120 11.126110
v -3.005530 72.736847 10.541659
v -3.589360 74.726921 6.437220
v -1.974020 76.315758 12.114010
v -3.184930 73.816666 11.441840
v -3.493930 75.901817 10.835140
v -2.056070 78.322220 9.753300
v -1.834430 70.574448 11.008770
v -2.120930 66.370468 9.807261
v -3.427430 76.972099 7.087520
v -2.826160 78.281265 6.969620
v -12.684060 63.726620 4.316950
v -13.727480 61.805271 1.245610
v -9.117890 60.161991 7.528710
v -7.741280 57.144310 4.347550
v -10.312470 58.828468 -0.648270
v -7.903230 51.508690 7.094810
v -9.669600 53.755951 7.559110
v -9.351780 54.376686 9.006050
v -12.757820 52.292938 6.567260
v -14.104139 55.026897 7.006030
v -10.022860 49.776428 8.076710
v -13.542900 55.876621 8.950380
v -11.321140 50.239418 10.779860
v -10.467290 52.421471 12.414909
v -11.332920 54.850849 10.388100
v -12.047850 54.405571 4.534130
v -12.407660 53.492088 5.385830
v -14.255131 58.951069 3.495850
v -13.192169 60.788101 6.318480
v -10.511360 56.896702 8.568560
v -11.588201 55.725052 2.059800
v -3.191010 48.098869 12.375840
v -3.645790 48.698669 12.858690
v -4.607440 46.526943 11.436220
v -5.567520 46.750076 13.102540
v -5.176210 47.962471 14.104529
v -2.103840 45.453659 17.642910
v -3.046090 45.749241 18.327190
v -2.442790 45.393784 16.616350
v -3.690640 45.583473 16.396461
v -3.006840 44.118027 15.875320
v -3.862940 46.319153 17.076900
v -3.453760 47.483677 17.036310
v -2.594340 46.716591 18.594160
v -1.970080 45.172649 19.149359
v -1.661430 45.950943 19.246620
v -1.336370 43.193531 17.033230
v 0.819240 44.837818 12.853720
v -0.254270 46.047447 12.467760
v 2.059830 42.936218 13.881760
v -1.414730 44.106987 16.939110
v 0.612580 43.625797 13.161289
v -0.830080 44.505619 12.191800
v 0.572770 42.285172 17.951149
v -6.751060 18.986012 -6.726250
v -3.220660 25.635221 -0.099320
v -4.404810 17.621761 -2.121110
v -11.643810 19.104860 -3.497950
v -9.070810 26.471382 -1.403200
v -5.489470 27.161501 -3.900230
v -7.293360 23.113451 1.501760
v -8.375550 17.617281 0.899070
v -7.160360 25.036631 2.540900
v -6.552380 27.772720 2.471160
v -10.019031 30.302279 -1.118730
v -5.989530 32.222733 4.811950
v -12.424550 5.524520 -4.821340
v -11.149830 8.273080 -4.351840
v -9.261070 6.039130 -6.865400
v -10.279400 6.323460 -1.844340
v -7.592890 4.461470 -3.954460
v -7.645580 7.555140 -3.685270
v -8.567080 0.928120 -7.088070
v -11.577710 1.590410 -7.625270
v -9.320580 1.018180 1.341690
v -15.279690 2.332910 0.279320
v -12.191720 3.702450 4.325300
v -14.886820 2.239880 4.430770
v -11.112190 1.409280 5.746350

vt 0.550479 0.485338
vt 0.414517 0.485338
vt 0.489174 0.497239
vt 0.490853 0.675485
vt 0.356970 0.710738
vt 0.458986 0.602657
vt 0.458693 0.603155
vt 0.491001 0.506534
vt 0.357039 0.710738
vt 0.272881 0.708251
vt 0.307767 0.663467
vt 0.329118 0.504113
vt 0.420682 0.504388
vt 0.307693 0.663467
vt 0.420389 0.504181
vt 0.390374 0.619683
vt 0.389206 0.622726
vt 0.390855 0.620128
vt 0.309151 0.663075
vt 0.578845 0.971377
vt 0.529882 0.993867
vt 0.501054 0.950636
vt 0.597833 0.993868
vt 0.684209 0.993870
vt 0.691613 0.940228
vt 0.584242 0.936155
vt 0.602549 0.993867
vt 0.689094 0.993870
vt 0.694409 0.971380
vt 0.730001 0.975635
vt 0.490853 0.781888
vt 0.490853 0.820915
vt 0.240556 0.660920
vt 0.133663 0.660928
vt 0.131880 0.753091
vt 0.060606 0.782384
vt 0.055577 0.663688
vt 0.136145 0.808744
vt 0.060014 0.783494
vt 0.058190 0.859642
vt 0.160773 0.512959
vt 0.067037 0.515196
vt 0.240700 0.512959
vt 0.131877 0.752996
vt 0.240556 0.781375
vt 0.390182 0.870896
vt 0.298691 0.847983
vt 0.294173 0.886121
vt 0.181129 0.899551
vt 0.052544 0.886601
vt 0.145152 0.921474
vt 0.235241 0.891030
vt 0.142740 0.921054
vt 0.172936 0.966074
vt 0.456563 0.999059
vt 0.389917 0.922986
vt 0.429989 0.941889
vt 0.491140 0.942697
vt 0.490646 0.999330
vt 0.490853 0.898039
vt 0.701416 0.118225
vt 0.813217 0.120956
vt 0.790107 0.184348
vt 0.877923 0.002315
vt 0.872775 0.120438
vt 0.505869 0.118716
vt 0.564263 0.119120
vt 0.507564 0.183764
vt 0.697589 0.180917
vt 0.580429 0.182675
vt 0.710756 0.001536
vt 0.701372 0.182427
vt 0.812168 0.002315
vt 0.857243 0.184348
vt 0.697567 0.116528
vt 0.503935 0.000692
vt 0.561277 0.000692
vt 0.688827 -0.000098
vt 0.002866 0.854679
vt 0.027518 0.706813
vt 0.061197 0.782654
vt 0.055608 0.663958
vt 0.251604 0.781884
vt 0.357109 0.710738
vt 0.243886 0.876138
vt 0.247300 0.848527
vt -0.000514 0.880403
vt 0.006948 0.782948
vt 0.674684 0.829607
vt 0.705811 0.784366
vt 0.654033 0.662928
vt 0.703232 0.671848
vt 0.720473 0.730776
vt 0.697736 0.853617
vt 0.729837 0.853035
vt 0.623758 0.856571
vt 0.587609 0.811448
vt 0.658187 0.605708
vt 0.748523 0.593788
vt 0.716351 0.931575
vt 0.747491 0.935506
vt 0.695349 0.885675
vt 0.676247 0.904603
vt 0.649719 0.961956
vt 0.745560 1.001324
vt 0.725611 0.781438
vt 0.747491 0.878462
vt 0.747491 0.808438
vt 0.720379 0.731031
vt 0.747491 0.790807
vt 0.720762 0.730332
vt 0.748639 0.732530
vt 0.746944 0.628012
vt 0.703659 0.671442
vt 0.731857 0.666086
vt 0.747085 0.666819
vt 0.703186 0.671176
vt 0.611291 0.885598
vt 0.604148 0.909350
vt 0.550618 0.823662
vt 0.550618 0.934468
vt 0.625864 0.557513
vt 0.571978 0.557920
vt 0.578607 0.510287
vt 0.669444 0.510287
vt 0.756032 0.560223
vt 0.679695 0.557918
vt 0.877240 0.461159
vt 0.992418 0.461159
vt 0.944262 0.560223
vt 0.756457 0.510287
vt 0.806202 0.560223
vt 0.498275 0.560223
vt 0.875566 0.382888
vt 0.758260 0.308662
vt 0.875912 0.308662
vt 0.759996 0.360654
vt 0.669163 0.382888
vt 0.671223 0.308662
vt 0.584325 0.382888
vt 0.577057 0.308662
vt 0.498223 0.363687
vt 0.498247 0.308662
vt 0.992597 0.308662
vt 0.992439 0.363687
vt 0.759483 0.410364
vt 0.758924 0.382888
vt 0.665903 0.461159
vt 0.580075 0.461159
vt 0.498223 0.402657
vt 0.992438 0.402657
vt 0.760539 0.449273
vt 0.498220 0.461159
vt 0.875438 0.575163
vt 0.762705 0.196431
vt 0.858161 0.196355
vt 0.690657 0.196417
vt 0.588027 0.196417
vt 0.498144 0.196431
vt 0.991918 0.196431
vt 0.375723 0.009258
vt 0.380090 0.017573
vt 0.356438 0.030356
vt 0.342839 0.029458
vt 0.369327 0.043627
vt 0.316032 0.012201
vt 0.336848 0.019568
vt 0.249292 0.041099
vt 0.371147 0.002582
vt 0.416197 0.004791
vt 0.408124 0.000758
vt 0.128136 0.016613
vt 0.154876 0.002573
vt 0.119423 0.002194
vt 0.160447 0.001473
vt 0.065726 0.014292
vt 0.105093 0.028910
vt 0.000825 0.069213
vt 0.000703 0.039244
vt 0.249314 0.055441
vt 0.429228 0.045736
vt 0.102506 0.115410
vt 0.153549 0.117195
vt 0.189513 0.114692
vt 0.228429 0.109580
vt 0.194639 0.033982
vt 0.406548 0.108121
vt 0.355355 0.108206
vt 0.448349 0.035630
vt 0.498209 0.039288
vt 0.461840 0.047992
vt 0.483032 0.114221
vt 0.406174 0.120334
vt 0.355217 0.119080
vt 0.243215 0.037501
vt 0.249314 0.089732
vt 0.000703 0.095058
vt 0.249292 0.105039
vt 0.160984 0.032072
vt 0.413806 0.033644
vt 0.442212 0.108407
vt 0.443088 0.117732
vt 0.023914 0.327327
vt 0.104127 0.227894
vt 0.000784 0.227894
vt 0.216171 0.327327
vt 0.216985 0.228421
vt 0.105699 0.228145
vt 0.104981 0.327662
vt 0.217575 0.327327
vt 0.351490 0.301452
vt 0.217290 0.227894
vt 0.351571 0.227894
vt 0.352420 0.301452
vt 0.489174 0.227894
vt 0.352342 0.227894
vt 0.471690 0.333380
vt 0.351597 0.328057
vt 0.217345 0.328075
vt 0.352312 0.363299
vt 0.470864 0.334174
vt 0.352330 0.328057
vt 0.216660 0.380224
vt 0.216104 0.328075
vt 0.104983 0.328371
vt 0.217232 0.380224
vt 0.351611 0.363299
vt 0.351459 0.420971
vt 0.352499 0.420971
vt 0.351589 0.497239
vt 0.229465 0.497239
vt 0.352627 0.497239
vt 0.229583 0.497239
vt 0.133020 0.497239
vt 0.072972 0.497239
vt 0.025422 0.328212
vt 0.002386 0.497239
vt 0.216130 0.152222
vt 0.223982 0.125749
vt 0.105883 0.155747
vt 0.351732 0.147623
vt 0.223132 0.128232
vt 0.218721 0.149411
vt 0.469070 0.149411
vt 0.483427 0.127273
vt 0.352306 0.146326
vt 0.017963 0.152222
vt 0.104256 0.155747
vt 0.009616 0.131504
vt 0.104128 0.227914
vt 0.000790 0.227921
vt 0.216984 0.228396
vt 0.351571 0.227971
vt 0.217291 0.227882
vt 0.352342 0.227879
vt 0.489111 0.227891
vt 0.948232 0.041698
vt 0.989968 0.003451
vt 0.971575 0.059997
vt 0.909211 0.004273
vt 0.996004 0.120663
vt 0.925604 0.058708
vt 0.885225 0.122889
vt 0.516483 0.798440
vt 0.501430 0.685191
vt 0.597947 0.686709
vt 0.594444 0.793024
vt 0.950876 0.082499
vt 0.943924 0.157220
vt 0.507177 0.624822
vt 0.600053 0.622523
vt 0.901715 0.182549
vt 0.982420 0.184037
vt 0.730212 0.975635
vt 0.685579 0.991654
vt 0.692830 0.969164

vn -0.658280 -0.750456 -0.059013
vn 0.214255 0.030053 -0.976315
vn -0.161071 -0.202909 -0.965859
vn 0.939305 -0.023157 0.342302
vn 0.817207 -0.130677 -0.561335
vn -0.022478 -0.297602 -0.954425
vn 0.211777 -0.228327 -0.950272
vn 0.921103 -0.274723 -0.275855
vn 0.163602 0.066849 -0.984259
vn 0.867518 -0.413954 -0.275779
vn -0.456153 -0.844307 -0.281195
vn -0.302500 -0.907255 -0.292201
vn -0.219709 -0.723680 -0.654229
vn -0.143739 -0.845119 0.514892
vn -0.474340 -0.530104 0.702845
vn 0.371455 -0.333414 0.866520
vn 0.378532 -0.315985 0.869981
vn 0.949269 -0.314464 -0.000555
vn 0.121518 0.179857 -0.976158
vn 0.390874 -0.487001 0.781056
vn 0.729129 -0.593920 0.340043
vn 0.651156 -0.167637 0.740199
vn 0.406491 0.169071 0.897875
vn 0.923703 -0.081006 0.374446
vn 0.048047 -0.235689 0.970640
vn 0.270529 -0.292103 0.917328
vn -0.002352 0.619623 -0.784896
vn 0.121498 0.181291 -0.975895
vn 0.619116 -0.464204 0.633411
vn 0.408425 0.893575 -0.186316
vn 0.312288 -0.200162 0.928661
vn 0.219161 0.742900 -0.632509
vn 0.667539 -0.137462 0.731776
vn 0.515706 0.310500 0.798522
vn 0.580237 0.661003 0.475816
vn 0.269051 0.242309 0.932147
vn 0.157735 0.047146 0.986355
vn 0.784428 0.169617 0.596576
vn 0.750826 0.647901 -0.128391
vn 0.473774 0.764245 -0.437571
vn 0.190748 0.925564 -0.327026
vn 0.513884 0.569376 0.641666
vn 0.400936 0.911416 -0.092582
vn 0.752371 0.643569 -0.140558
vn 0.221457 0.815020 -0.535443
vn 0.232349 0.807046 -0.542854
vn 0.202482 0.757649 -0.620459
vn -0.005420 0.206918 0.978343
vn 0.860315 0.092604 0.501281
vn 0.832184 0.043715 -0.552773
vn -0.019622 -0.159780 -0.986958
vn -0.003169 0.178821 0.983877
vn -0.293167 0.414214 0.861673
vn 0.914481 0.304000 0.267037
vn 0.777355 0.461702 0.427260
vn 0.910575 0.242688 0.334598
vn 0.830094 0.046496 -0.555682
vn 0.321482 0.190859 -0.927481
vn 0.777691 0.309545 -0.547155
vn 0.577233 0.074737 -0.813152
vn 0.325512 0.106067 -0.939570
vn -0.260579 -0.161625 -0.951828
vn 0.389462 0.118345 0.913408
vn 0.807274 0.463573 0.365252
vn 0.970664 -0.046487 -0.235903
vn 0.365572 0.069738 -0.928167
vn 0.376471 0.023626 0.926127
vn 0.849987 0.505876 -0.147007
vn 0.788613 0.481333 0.382632
vn 0.465006 0.035234 -0.884606
vn 0.770938 0.593905 -0.230069
vn -0.894112 -0.071816 -0.442048
vn 0.973366 0.016410 -0.228667
vn -0.582931 0.168009 -0.794962
vn 0.822767 -0.261912 0.504437
vn 0.449120 -0.407815 0.794970
vn 0.142009 -0.185215 0.972383
vn 0.976795 -0.055362 0.206895
vn 0.984482 -0.001287 -0.175481
vn 0.998594 -0.049306 0.019493
vn 0.360740 -0.909654 0.205905
vn 0.193735 -0.074210 0.978243
vn 0.911170 -0.149324 0.384020
vn 0.974672 -0.039416 0.220136
vn -0.054127 0.761714 0.645649
vn 0.475326 0.094569 0.874713
vn 0.684975 0.142294 0.714536
vn 0.699334 0.151200 0.698620
vn 0.486843 -0.413857 0.769225
vn 0.313346 -0.503984 0.804869
vn 0.049236 0.781416 0.622065
vn -0.020318 -0.283515 0.958753
vn 0.245441 -0.845233 0.474700
vn 0.531248 -0.208613 0.821131
vn 0.474290 -0.797912 -0.372002
vn 0.864976 -0.164825 0.473971
vn 0.007762 -0.959525 -0.281515
vn 0.513966 -0.093902 0.852655
vn 0.810867 -0.088530 0.578496
vn 0.317128 -0.901927 -0.293184
vn 0.330399 -0.220819 0.917647
vn 0.977702 0.114254 -0.176197
vn 0.917813 0.281484 -0.279974
vn 0.767695 -0.441749 0.464222
vn 0.163229 -0.649335 0.742779
vn 0.826306 -0.272272 0.493038
vn 0.056784 -0.545676 0.836070
vn 0.520854 0.560334 0.644001
vn 0.978250 0.009256 0.207221
vn 0.884046 0.366916 0.289544
vn 0.769130 0.518341 0.373847
vn 0.497932 0.082602 0.863273
vn 0.491996 0.590405 -0.639813
vn 0.399785 0.661985 -0.633994
vn 0.151112 0.980493 0.125690
vn 0.030217 0.999208 -0.025898
vn 0.896735 -0.134829 0.421530
vn 0.733781 0.590185 0.336523
vn 0.593889 -0.157404 -0.788999
vn 0.907668 0.370105 -0.197892
vn -0.856199 -0.207002 0.473365
vn 0.962483 0.259532 0.079179
vn 0.594232 -0.155561 -0.789106
vn -0.794577 -0.371808 -0.480007
vn 0.339085 0.243328 0.908743
vn -0.992769 -0.090155 -0.079257
vn -0.477228 0.089501 -0.874210
vn 0.833281 -0.528423 0.162514
vn 0.127022 -0.036726 -0.991220
vn 0.979141 -0.088976 0.182663
vn 0.889036 0.114915 -0.443181
vn 0.720235 0.542752 0.432067
vn 0.381139 0.187674 0.905269
vn -0.530499 0.170843 0.830291
vn -0.783392 0.362996 0.504511
vn -0.468622 -0.531994 -0.705249
vn -0.534627 -0.464037 -0.706289
vn 0.691901 0.113068 -0.713084
vn 0.674412 -0.173348 -0.717718
vn 0.968311 0.185442 0.167289
vn 0.968239 0.185242 0.167925
vn 0.322455 0.261619 0.909713
vn -0.764300 -0.386082 0.516513
vn -0.791704 -0.300510 -0.531882
vn -0.488328 -0.665239 -0.564794
vn 0.749350 -0.208610 -0.628456
vn 0.566330 -0.085256 -0.819757
vn 0.941924 0.329448 0.065140
vn 0.949027 0.278570 0.147464
vn 0.340352 0.219890 0.914226
vn 0.234718 0.290899 0.927515
vn -0.964987 -0.093557 0.245045
vn 0.737168 -0.042615 -0.674364
vn -0.525657 -0.481040 -0.701630
vn -0.803358 -0.243448 0.543460
vn 0.327957 0.152702 0.932269
vn -0.767715 -0.300107 0.566171
vn 0.286743 0.168964 0.942990
vn 0.589006 0.090528 -0.803042
vn -0.554848 -0.529677 -0.641550
vn -0.998800 0.009883 -0.047960
vn -0.992909 0.001473 -0.118864
vn -0.251822 -0.520333 -0.815990
vn 0.112736 -0.489624 -0.864615
vn 0.873764 -0.429282 -0.228590
vn 0.805884 -0.413774 -0.423488
vn 0.845069 -0.140005 0.516001
vn 0.740474 0.001055 0.672084
vn -0.529259 0.278597 0.801416
vn -0.380296 0.349142 0.856431
vn 0.429582 -0.875890 -0.219719
vn 0.523740 -0.318383 0.790145
vn 0.733598 0.595530 0.327381
vn 0.680550 0.548930 0.485312
vn 0.702128 0.544735 0.458563
vn 0.662907 0.319790 0.676970
vn 0.591800 0.312555 0.743023
vn 0.797578 -0.470395 -0.377622
vn 0.492708 -0.613849 -0.616788
vn -0.992010 0.090069 -0.088340
vn -0.644155 -0.722793 -0.250270
vn -0.998974 -0.034544 0.029270
vn -0.995033 -0.065994 -0.074521
vn -0.915310 -0.177177 0.361685
vn -0.237981 0.899278 0.366967
vn 0.856137 0.476900 0.198985
vn 0.829472 0.124442 0.544509
vn -0.766893 0.340831 0.543791
vn -0.751270 0.320332 0.577046
vn 0.670033 -0.546366 -0.502534
vn 0.669096 -0.515553 -0.535272
vn 0.829976 0.104333 0.547954
vn 0.637624 -0.667597 -0.384383
vn -0.348131 -0.353874 -0.868088
vn -0.464249 -0.380176 -0.799962
vn -0.756136 0.331562 0.564203
vn 0.822113 -0.307021 -0.479446
vn -0.769961 0.170041 0.615017
vn -0.934094 0.307053 -0.182172
vn -0.205291 -0.156228 -0.966151
vn 0.533226 -0.622773 0.572559
vn 0.685557 -0.461882 -0.562740
vn -0.417065 -0.130478 -0.899462
vn 0.997541 0.059740 0.036657
vn 0.998617 0.045270 0.026745
vn -0.754093 0.285518 0.591458
vn 0.841769 0.125078 0.525147
vn 0.633452 -0.622591 -0.459477
vn -0.362074 -0.513566 -0.777915
vn -0.908660 0.022796 -0.416915
vn 0.562643 0.558086 -0.609896
vn 0.517407 0.590924 -0.618949
vn 0.826903 0.048619 0.560239
vn 0.812084 -0.023099 0.583083
vn -0.592250 -0.349243 0.726133
vn -0.530697 -0.405171 0.744444
vn 0.909430 -0.115833 0.399400
vn -0.548447 0.119509 0.827601
vn 0.579388 -0.261500 -0.771963
vn 0.874299 -0.094084 0.476183
vn 0.885527 -0.181533 0.427654
vn -0.255926 -0.479887 0.839172
vn 0.894321 0.033288 0.446186
vn -0.541315 -0.439513 0.716803
vn -0.878768 0.129093 -0.459458
vn 0.896463 0.113203 0.428415
vn -0.435561 -0.262601 0.861004
vn 0.923406 0.067544 0.377834
vn 0.563855 0.200140 -0.801256
vn 0.407076 0.036234 -0.912675
vn -0.310218 -0.110186 -0.944259
vn -0.763244 -0.359696 -0.536728
vn -0.473722 -0.334438 0.814702
vn -0.957880 -0.281831 -0.055118
vn 0.473570 0.689551 -0.547952
vn 0.831371 0.029804 0.554917
vn -0.544482 -0.305745 0.781063
vn -0.882636 0.180895 -0.433856
vn 0.731561 0.380694 -0.565589
vn -0.912412 -0.032396 -0.407988
vn -0.895651 -0.026564 -0.443963
vn 0.591723 0.343895 -0.729109
vn 0.844451 -0.270844 0.462110
vn 0.923503 -0.114319 0.366161
vn -0.590896 -0.590907 0.549245
vn -0.520076 -0.629827 0.576922
vn -0.888497 0.213768 -0.406051
vn -0.182718 0.289384 -0.939612
vn -0.919111 -0.392131 0.038327
vn 0.880920 0.216259 -0.420966
vn 0.241977 -0.956563 -0.162585
vn 0.192340 -0.965384 -0.176176
vn 0.519095 0.790563 0.324885
vn 0.495027 0.552031 -0.670977
vn -0.719593 0.338040 0.606561
vn 0.538723 0.798274 0.269323
vn -0.814866 0.305177 0.492809
vn 0.242161 -0.957032 -0.159522
vn 0.242646 -0.956974 -0.159135
vn 0.449419 0.871794 0.194933
vn 0.211465 0.308054 0.927570
vn -0.802186 0.468540 0.370092
vn 0.236411 -0.924543 -0.298882
vn -0.277645 0.098405 -0.955630
vn 0.286895 -0.236057 -0.928422
vn -0.846259 -0.062204 0.529127
vn -0.906378 -0.260115 -0.332895
vn -0.245342 -0.401987 -0.882164
vn -0.229632 -0.411959 -0.881793
vn -0.877566 -0.360373 -0.316242
vn -0.139263 0.235899 -0.961747
vn -0.909206 -0.271011 -0.316065
vn 0.421971 -0.801775 -0.423199
vn 0.279472 -0.868674 -0.409025
vn 0.065493 -0.607199 -0.791846
vn 0.270197 -0.849421 0.453297
vn 0.688999 -0.421902 0.589304
vn -0.205829 -0.273160 0.939690
vn -0.179030 -0.342803 0.922190
vn -0.930399 -0.318870 0.180772
vn -0.251924 0.169740 -0.952745
vn -0.345401 -0.544740 0.764170
vn -0.582090 -0.766211 0.272199
vn -0.427320 0.047889 0.902831
vn -0.394379 -0.044874 0.917851
vn -0.719273 -0.198460 0.665777
vn 0.029595 -0.238727 0.970636
vn -0.124438 -0.262108 0.956982
vn -0.330522 0.600424 -0.728180
vn -0.251210 0.163237 -0.954069
vn -0.323101 -0.548138 0.771460
vn -0.509534 0.802458 -0.310541
vn -0.121660 -0.267918 0.955729
vn -0.362094 0.615155 -0.700337
vn -0.327849 -0.231855 0.915837
vn -0.302004 0.265957 0.915457
vn -0.467720 0.760230 0.450875
vn -0.108097 0.195142 0.974800
vn -0.100146 0.185381 0.977550
vn -0.685813 0.221304 0.693315
vn -0.668437 0.702728 -0.243649
vn -0.345022 0.807051 -0.479196
vn -0.152908 0.911514 -0.381787
vn -0.318213 0.691229 0.648801
vn -0.463004 0.871239 -0.163003
vn -0.663392 0.720363 -0.202453
vn -0.229848 0.764762 -0.601921
vn -0.175129 0.809539 -0.560335
vn -0.229143 0.761525 -0.606278
vn 0.155359 0.496457 0.854046
vn -0.751015 0.098449 0.652904
vn -0.892884 0.192980 -0.406838
vn -0.288134 -0.041587 -0.956687
vn 0.175863 0.231439 0.956822
vn 0.007688 0.381634 0.924282
vn -0.839244 0.278223 0.467185
vn -0.676142 0.469876 0.567493
vn -0.510907 0.623543 0.591750
vn -0.955660 0.064459 -0.287330
vn -0.468507 0.153788 -0.869972
vn -0.868733 0.287863 -0.403035
vn -0.730523 0.075954 -0.678650
vn -0.470311 0.114631 -0.875024
vn 0.101784 -0.170742 -0.980044
vn -0.062939 0.063785 0.995977
vn -0.465338 0.762109 0.450167
vn -0.557234 0.531860 -0.637664
vn -0.726456 -0.330437 -0.602555
vn -0.086321 0.062239 0.994321
vn -0.600535 0.434814 -0.671040
vn -0.662314 0.641958 0.386304
vn -0.534273 -0.287389 -0.794959
vn -0.957015 0.260498 -0.127526
vn 0.695031 -0.333518 -0.636944
vn -0.604897 0.051353 -0.794647
vn -0.076935 -0.110741 -0.990867
vn -0.928924 -0.247936 0.275007
vn -0.626742 -0.374092 0.683556
vn -0.349276 -0.169813 0.921504
vn -0.995931 -0.066942 -0.060335
vn -0.922848 -0.100081 -0.371934
vn -0.844870 -0.068810 -0.530528
vn -0.346635 -0.917634 0.194401
vn -0.394117 -0.055775 0.917367
vn -0.977951 -0.090108 0.188392
vn -0.999624 0.022467 0.015689
vn -0.032090 0.761018 0.647936
vn -0.637534 0.129443 0.759470
vn -0.806572 0.189037 0.560095
vn -0.816797 0.198720 0.541621
vn -0.658688 -0.377950 0.650602
vn -0.502096 -0.478418 0.720428
vn -0.127030 0.786940 0.603812
vn -0.193988 -0.278071 0.940768
vn -0.389320 -0.825333 0.408969
vn -0.699975 -0.170023 0.693633
vn -0.368093 -0.712052 -0.597904
vn -0.983999 -0.037368 0.174209
vn -0.008322 -0.958498 -0.284979
vn -0.682440 -0.056407 0.728762
vn -0.916013 -0.034405 0.399671
vn -0.223376 -0.889247 -0.399177
vn -0.524298 -0.194027 0.829135
vn -0.908679 0.175289 -0.378914
vn -0.818595 0.333865 -0.467373
vn -0.872330 -0.390350 0.294392
vn -0.351757 -0.633196 0.689442
vn -0.924985 -0.217378 0.311688
vn -0.260432 -0.535715 0.803234
vn -0.605915 0.595647 0.527325
vn -0.997460 0.071181 0.002629
vn -0.900126 0.422839 0.104785
vn -0.795748 0.567387 0.211794
vn -0.658012 0.118839 0.743570
vn -0.334742 0.600486 -0.726199
vn -0.219666 0.682659 -0.696939
vn -0.112591 0.988759 0.098382
vn 0.037699 0.998973 -0.025124
vn -0.900662 -0.009828 0.434410
vn -0.725261 0.514102 0.457925
vn -0.630882 -0.552678 -0.544551
vn -0.909208 0.133312 -0.394421
vn 0.940405 0.325605 0.098078
vn -0.960672 0.126820 0.247033
vn -0.666365 -0.343382 -0.661851
vn 0.625836 -0.680153 -0.381734
vn 0.228945 0.197625 0.953167
vn 0.673354 0.614269 -0.411423
vn 0.152499 0.313513 -0.937258
vn -0.141007 -0.224194 0.964289
vn -0.168994 -0.321367 -0.931754
vn -0.752068 -0.496114 0.433895
vn -0.837887 -0.436567 -0.327649
vn -0.903770 0.033938 0.426671
vn -0.520596 0.070953 0.850850
vn 0.534853 0.645475 0.545248
vn -0.047905 0.921716 -0.384895
vn 0.446146 -0.736215 -0.508864
vn 0.489650 -0.689939 -0.533129
vn -0.775135 -0.239707 -0.584556
vn -0.733467 -0.468632 -0.492352
vn -0.953461 0.179812 0.242034
vn -0.963559 0.176513 0.200993
vn -0.142388 0.689111 0.710529
vn 0.826756 -0.183464 0.531805
vn 0.610510 -0.600341 -0.516593
vn 0.495149 -0.801454 -0.335407
vn -0.786166 -0.472698 -0.398120
vn -0.677383 -0.374133 -0.633385
vn -0.947266 0.287193 0.142153
vn -0.944072 0.280887 0.172716
vn 0.286991 0.783589 0.551021
vn -0.150796 0.574193 0.804713
vn 0.631731 0.285401 0.720737
vn -0.786855 -0.301019 -0.538746
vn 0.495599 -0.678697 -0.541989
vn 0.872380 0.078751 0.482443
vn -0.048957 0.474473 0.878907
vn 0.833871 0.046724 0.549978
vn -0.210045 0.376919 0.902116
vn -0.698564 -0.285412 -0.656161
vn 0.547036 -0.666657 -0.506281
vn 0.740541 0.660631 -0.123150
vn 0.756391 0.581568 -0.299417
vn 0.673950 -0.178809 -0.716812
vn 0.127325 -0.602434 -0.787948
vn -0.476490 -0.875635 -0.078873
vn -0.466822 -0.871136 -0.152314
vn -0.547342 -0.421081 0.723262
vn -0.543352 -0.356797 0.759911
vn 0.427870 0.716490 0.550971
vn 0.225465 0.691937 0.685849
vn -0.212078 -0.969024 0.126549
vn -0.218770 -0.415978 0.882667
vn -0.800510 0.299367 0.519195
vn -0.803146 0.222546 0.552657
vn -0.739660 0.281200 0.611416
vn -0.588513 0.052174 0.806802
vn -0.515166 0.097896 0.851481
vn -0.550526 -0.834560 -0.020736
vn -0.385151 -0.912768 -0.136068
vn 0.730810 0.568446 -0.377871
vn 0.925607 -0.348677 -0.147226
vn 0.841254 0.493323 -0.221187
vn 0.832947 0.463631 -0.302068
vn 0.903530 0.420826 0.080859
vn -0.219924 0.933949 0.281731
vn -0.919756 -0.026758 0.391577
vn -0.622812 -0.168426 0.764028
vn 0.605270 0.672867 0.425322
vn 0.615335 0.645799 0.452003
vn -0.321067 -0.909754 -0.263179
vn -0.343786 -0.890877 -0.296900
vn -0.409776 0.058639 0.910300
vn -0.310256 -0.914497 -0.259684
vn 0.059568 -0.255066 -0.965087
vn 0.536162 -0.049408 -0.842668
vn 0.544894 0.773830 0.322922
vn -0.570762 -0.790245 -0.223033
vn 0.588603 0.691118 0.419406
vn 0.528754 0.738175 -0.418948
vn 0.319882 0.256888 -0.911967
vn -0.226066 -0.689434 0.688168
vn -0.395171 -0.859582 -0.323973
vn 0.121990 0.130548 -0.983908
vn -0.826683 -0.474010 0.303165
vn -0.821334 -0.488191 0.295094
vn 0.634740 0.622093 0.458374
vn -0.202232 0.083191 0.975798
vn -0.308236 -0.915826 -0.257398
vn 0.315642 -0.283610 -0.905503
vn 0.888995 -0.015905 -0.457641
vn -0.499527 0.393883 -0.771576
vn -0.580687 0.344577 -0.737610
vn -0.790159 0.104242 0.603972
vn -0.785133 0.087358 0.613136
vn 0.593028 -0.202229 0.779373
vn 0.496642 -0.280614 0.821342
vn -0.910130 -0.146472 0.387569
vn 0.564569 -0.104582 0.818733
vn -0.560144 -0.077401 -0.824771
vn -0.776758 -0.235633 0.584058
vn -0.773897 -0.215391 0.595559
vn 0.328467 -0.471919 0.818170
vn -0.850786 0.201422 0.485378
vn 0.547305 -0.426834 0.719910
vn 0.864892 0.039509 -0.500401
vn -0.792864 0.067232 0.605678
vn 0.618990 -0.251097 0.744178
vn -0.829726 0.018119 0.557877
vn -0.747008 0.175638 -0.641194
vn -0.542772 -0.039802 -0.838937
vn 0.089893 -0.104188 -0.990487
vn 0.743456 -0.335543 -0.578519
vn 0.630871 -0.275574 0.725301
vn 0.942668 -0.243625 -0.228089
vn -0.544779 0.380322 -0.747376
vn -0.811693 0.289824 0.507106
vn 0.590546 -0.059967 0.804773
vn 0.879086 0.056158 -0.473343
vn -0.723312 0.147479 -0.674589
vn 0.908959 -0.172139 -0.379686
vn 0.848732 -0.196978 -0.490769
vn -0.549587 0.040717 -0.834444
vn -0.813004 -0.082514 0.576382
vn -0.925762 0.065607 0.372370
vn 0.634706 -0.281782 0.719546
vn 0.577038 -0.303577 0.758200
vn 0.889895 0.139750 -0.434232
vn 0.189822 0.068444 -0.979430
vn 0.937769 -0.336079 0.087413
vn -0.895576 0.113774 -0.430115
vn -0.213997 -0.976798 -0.008469
vn -0.213368 -0.976934 -0.008636
vn -0.562218 0.805089 0.189059
vn -0.541440 0.407554 -0.735352
vn 0.723260 0.446889 0.526484
vn -0.571736 0.803824 0.164271
vn 0.813212 0.400527 0.422214
vn -0.214372 -0.976751 -0.001602
vn -0.215298 -0.976548 -0.000862
vn -0.474023 0.878144 0.064538
vn -0.206454 0.443337 0.872255
vn 0.793288 0.543499 0.274414
vn -0.070336 -0.991791 -0.106792

f 1/1/1 2/2/1 3/3/1
f 4/4/2 5/5/2 6/6/2
f 4/4/3 6/7/3 7/8/3
f 5/9/4 8/10/4 9/11/4
f 10/12/5 11/13/5 9/14/5
f 6/6/6 11/15/6 7/8/6
f 6/6/7 12/16/7 11/13/7
f 12/17/8 5/5/8 9/14/8
f 6/6/9 5/5/9 12/17/9
f 11/13/10 12/18/10 9/19/10
f 13/20/11 14/21/11 15/22/11
f 14/21/12 13/20/12 16/23/12
f 16/24/13 13/20/13 17/25/13
f 15/22/14 14/21/14 18/26/14
f 14/21/15 19/27/15 18/26/15
f 18/26/16 20/28/16 21/29/16
f 18/26/17 19/27/17 20/28/17
f 20/28/18 3/30/18 21/29/18
f 5/9/19 22/31/19 23/32/19
f 24/33/20 25/34/20 26/35/20
f 27/36/21 25/34/21 9/37/21
f 28/38/22 27/39/22 29/40/22
f 30/41/23 25/34/23 24/33/23
f 25/34/24 30/41/24 10/42/24
f 30/41/25 24/33/25 31/43/25
f 24/33/26 26/44/26 32/45/26
f 33/46/27 34/47/27 5/9/27
f 4/4/28 22/31/28 5/9/28
f 26/35/29 25/34/29 27/39/29
f 33/46/30 35/48/30 34/47/30
f 32/45/31 26/35/31 28/38/31
f 23/32/32 33/46/32 5/9/32
f 26/35/33 27/39/33 28/38/33
f 28/38/34 29/40/34 36/49/34
f 35/50/35 37/51/35 29/40/35
f 28/38/36 38/52/36 32/45/36
f 36/49/37 38/52/37 28/38/37
f 36/49/38 37/53/38 39/54/38
f 39/55/39 37/56/39 40/57/39
f 41/58/40 42/59/40 39/55/40
f 39/55/41 40/57/41 41/58/41
f 36/49/42 29/40/42 37/51/42
f 37/56/43 35/48/43 33/46/43
f 37/56/44 33/46/44 40/57/44
f 40/57/45 33/46/45 43/60/45
f 40/57/46 43/60/46 41/58/46
f 33/46/47 23/32/47 43/60/47
f 44/61/48 45/62/48 30/63/48
f 15/64/49 46/65/49 45/62/49
f 46/66/50 47/67/50 10/68/50
f 47/67/51 7/69/51 11/70/51
f 45/62/52 44/61/52 17/71/52
f 44/61/53 30/63/53 31/72/53
f 13/73/54 15/64/54 45/62/54
f 46/65/55 10/74/55 45/62/55
f 45/62/56 10/74/56 30/63/56
f 47/67/57 11/70/57 10/68/57
f 47/67/58 48/75/58 7/69/58
f 46/66/59 15/76/59 47/67/59
f 18/77/60 47/67/60 15/76/60
f 47/67/61 18/77/61 48/75/61
f 18/77/62 21/78/62 48/75/62
f 13/73/63 45/62/63 17/71/63
f 49/79/64 35/50/64 29/40/64
f 8/80/65 27/81/65 9/82/65
f 34/47/66 50/83/66 5/84/66
f 27/36/67 49/79/67 29/40/67
f 35/48/68 51/85/68 52/86/68
f 35/50/69 49/79/69 51/87/69
f 52/86/70 50/83/70 34/47/70
f 35/48/71 52/86/71 34/47/71
f 5/84/72 50/83/72 8/10/72
f 53/88/73 27/81/73 8/80/73
f 53/88/74 49/79/74 27/36/74
f 54/89/75 55/90/75 56/91/75
f 57/92/76 55/90/76 58/93/76
f 59/94/77 60/95/77 55/90/77
f 61/96/78 54/89/78 56/91/78
f 39/97/79 61/96/79 36/98/79
f 36/98/80 61/96/80 56/91/80
f 36/98/81 56/91/81 38/99/81
f 62/100/82 63/101/82 64/102/82
f 65/103/83 64/102/83 54/89/83
f 61/96/84 65/103/84 54/89/84
f 66/104/85 67/105/85 62/100/85
f 55/90/86 60/95/86 68/106/86
f 69/107/87 68/106/87 60/95/87
f 69/107/88 70/108/88 68/106/88
f 58/109/89 55/90/89 68/106/89
f 68/106/90 71/110/90 58/111/90
f 62/100/91 67/105/91 63/101/91
f 64/102/92 63/101/92 69/107/92
f 70/108/93 71/110/93 68/106/93
f 58/111/94 71/110/94 72/112/94
f 56/91/95 57/92/95 38/113/95
f 55/90/96 57/114/96 56/91/96
f 73/115/97 74/116/97 38/113/97
f 58/109/98 72/112/98 73/115/98
f 57/117/99 58/111/99 73/115/99
f 57/92/100 73/115/100 38/113/100
f 73/115/101 72/112/101 74/116/101
f 39/97/102 75/118/102 61/96/102
f 75/118/103 39/97/103 76/119/103
f 64/102/104 59/94/104 54/89/104
f 64/102/105 60/95/105 59/94/105
f 54/89/106 59/94/106 55/90/106
f 64/102/107 69/107/107 60/95/107
f 65/103/108 66/104/108 62/100/108
f 65/103/109 61/96/109 75/118/109
f 75/118/110 76/119/110 65/103/110
f 66/104/111 65/103/111 76/119/111
f 62/100/112 64/102/112 65/103/112
f 39/97/113 42/120/113 76/119/113
f 77/121/114 76/119/114 42/120/114
f 67/105/115 76/119/115 77/121/115
f 66/104/116 76/119/116 67/105/116
f 9/82/117 25/34/117 10/42/117
f 51/122/118 49/123/118 78/124/118
f 79/125/119 50/126/119 52/127/119
f 52/127/120 51/122/120 79/125/120
f 80/128/121 81/129/121 53/130/121
f 51/122/122 78/124/122 79/125/122
f 82/131/123 50/126/123 79/125/123
f 50/126/124 82/131/124 8/132/124
f 53/133/125 78/124/125 49/123/125
f 83/134/126 84/135/126 85/136/126
f 84/135/127 83/134/127 86/137/127
f 86/137/128 87/138/128 84/135/128
f 88/139/129 84/135/129 87/138/129
f 87/138/130 89/140/130 88/139/130
f 90/141/131 88/139/131 89/140/131
f 91/142/132 92/143/132 90/141/132
f 90/141/133 89/140/133 91/142/133
f 85/136/134 92/144/134 91/145/134
f 91/145/135 83/134/135 85/136/135
f 80/128/136 93/146/136 83/134/136
f 94/147/137 83/134/137 93/146/137
f 93/146/138 87/138/138 94/147/138
f 87/138/139 93/146/139 95/148/139
f 95/148/140 96/149/140 87/138/140
f 89/140/141 87/138/141 96/149/141
f 97/150/142 91/142/142 89/140/142
f 97/151/143 81/129/143 80/128/143
f 8/132/144 82/131/144 80/128/144
f 93/146/145 80/128/145 98/152/145
f 98/152/146 95/148/146 93/146/146
f 95/148/147 82/131/147 79/125/147
f 79/125/148 78/124/148 95/148/148
f 96/149/149 95/148/149 78/124/149
f 78/124/150 53/133/150 81/153/150
f 81/153/151 96/149/151 78/124/151
f 80/128/152 53/130/152 8/154/152
f 94/147/153 87/138/153 86/137/153
f 86/137/154 83/134/154 94/147/154
f 97/151/155 83/134/155 91/145/155
f 89/140/156 96/149/156 97/150/156
f 80/128/157 83/134/157 97/151/157
f 81/153/158 97/150/158 96/149/158
f 82/131/159 95/148/159 98/152/159
f 98/152/160 80/128/160 82/131/160
f 85/136/161 99/155/161 100/156/161
f 99/155/162 85/136/162 84/135/162
f 84/135/163 101/157/163 99/155/163
f 101/157/164 84/135/164 88/139/164
f 88/139/165 90/141/165 101/157/165
f 102/158/166 101/157/166 90/141/166
f 90/141/167 103/159/167 102/158/167
f 103/159/168 90/141/168 92/143/168
f 92/144/169 85/136/169 103/160/169
f 100/156/170 103/160/170 85/136/170
f 104/161/171 105/162/171 106/163/171
f 107/164/172 106/163/172 108/165/172
f 109/166/173 110/167/173 103/168/173
f 109/166/174 111/169/174 104/161/174
f 104/161/175 110/167/175 109/166/175
f 104/161/176 111/169/176 112/170/176
f 113/171/177 112/170/177 111/169/177
f 106/163/178 110/167/178 104/161/178
f 104/161/179 112/170/179 105/162/179
f 105/172/180 113/173/180 111/174/180
f 113/173/181 105/172/181 112/175/181
f 105/172/182 111/174/182 109/176/182
f 109/176/183 106/177/183 105/172/183
f 109/176/184 100/178/184 106/177/184
f 103/179/185 100/178/185 109/176/185
f 102/180/186 103/168/186 110/167/186
f 106/163/187 114/181/187 108/165/187
f 115/182/188 116/183/188 106/177/188
f 116/184/189 117/185/189 118/186/189
f 108/165/190 114/181/190 119/187/190
f 119/187/191 120/188/191 108/165/191
f 118/189/192 121/190/192 114/191/192
f 114/191/193 121/190/193 117/192/193
f 116/193/194 115/194/194 119/187/194
f 120/188/195 119/187/195 115/194/195
f 121/195/196 118/186/196 117/185/196
f 108/165/197 101/196/197 102/180/197
f 115/182/198 106/177/198 100/178/198
f 100/178/199 99/197/199 115/182/199
f 120/188/200 99/198/200 101/196/200
f 106/163/201 107/164/201 110/167/201
f 108/165/202 120/188/202 101/196/202
f 120/188/203 115/194/203 99/198/203
f 107/164/204 102/180/204 110/167/204
f 102/180/205 107/164/205 108/165/205
f 118/199/206 106/177/206 116/183/206
f 114/181/207 106/163/207 118/200/207
f 114/191/208 117/192/208 119/201/208
f 117/192/209 116/202/209 119/201/209
f 122/203/210 123/204/210 124/205/210
f 125/206/211 126/207/211 123/208/211
f 125/206/212 123/208/212 127/209/212
f 125/210/213 128/211/213 126/212/213
f 128/211/214 129/213/214 126/212/214
f 128/214/215 124/215/215 129/216/215
f 122/217/216 124/215/216 128/214/216
f 130/218/217 128/211/217 125/219/217
f 131/220/218 122/221/218 130/222/218
f 132/223/219 125/224/219 127/225/219
f 132/226/220 131/227/220 125/219/220
f 133/228/221 131/227/221 132/226/221
f 133/229/222 122/221/222 131/220/222
f 130/218/223 125/219/223 131/227/223
f 128/214/224 130/222/224 122/221/224
f 127/209/225 123/204/225 122/203/225
f 16/230/226 133/228/226 14/231/226
f 16/232/227 3/3/227 133/229/227
f 14/231/228 133/228/228 132/226/228
f 14/233/229 132/223/229 19/234/229
f 132/223/230 127/225/230 19/234/230
f 20/235/231 19/234/231 127/225/231
f 20/235/232 127/225/232 122/236/232
f 3/3/233 122/221/233 133/229/233
f 3/237/234 20/235/234 122/236/234
f 134/238/235 135/239/235 136/240/235
f 137/241/236 135/242/236 134/243/236
f 138/244/237 139/245/237 137/246/237
f 138/247/238 136/248/238 139/249/238
f 134/238/239 136/240/239 123/208/239
f 138/247/240 123/250/240 136/248/240
f 123/250/241 138/247/241 124/251/241
f 134/238/242 123/208/242 126/252/242
f 129/253/243 134/243/243 126/254/243
f 137/241/244 134/243/244 129/253/244
f 138/244/245 137/246/245 129/255/245
f 138/244/246 129/255/246 124/256/246
f 136/257/247 140/258/247 139/259/247
f 136/257/248 141/260/248 140/258/248
f 142/261/249 139/259/249 140/258/249
f 135/262/250 143/263/250 141/260/250
f 141/264/251 143/265/251 142/266/251
f 142/266/252 140/267/252 141/264/252
f 137/268/253 143/263/253 135/262/253
f 135/262/254 141/260/254 136/257/254
f 139/259/255 142/261/255 137/268/255
f 137/268/256 144/269/256 143/263/256
f 137/268/257 142/261/257 144/269/257
f 143/265/258 145/270/258 146/271/258
f 146/271/259 142/266/259 143/265/259
f 143/263/260 144/269/260 145/272/260
f 144/269/261 146/273/261 145/272/261
f 146/273/262 144/269/262 142/261/262
f 3/274/263 16/275/263 17/276/263
f 147/5/264 4/4/264 148/6/264
f 148/7/265 4/4/265 7/8/265
f 149/10/266 147/9/266 150/11/266
f 151/13/267 152/12/267 150/14/267
f 151/15/268 148/6/268 7/8/268
f 153/16/269 148/6/269 151/13/269
f 147/5/270 153/17/270 150/14/270
f 147/5/271 148/6/271 153/17/271
f 153/18/272 151/13/272 150/19/272
f 154/21/273 155/20/273 156/22/273
f 155/20/274 154/21/274 157/23/274
f 155/20/275 157/24/275 17/25/275
f 154/21/276 156/22/276 158/26/276
f 159/27/277 154/21/277 158/26/277
f 160/28/278 158/26/278 21/29/278
f 159/27/279 158/26/279 160/28/279
f 3/30/280 160/28/280 21/29/280
f 22/31/281 147/9/281 23/32/281
f 161/34/282 24/33/282 162/35/282
f 161/34/283 163/36/283 150/37/283
f 163/39/284 164/38/284 165/40/284
f 161/34/285 166/41/285 24/33/285
f 166/41/286 161/34/286 152/42/286
f 24/33/287 166/41/287 31/43/287
f 162/44/288 24/33/288 32/45/288
f 167/47/289 168/46/289 147/9/289
f 22/31/290 4/4/290 147/9/290
f 161/34/291 162/35/291 163/39/291
f 169/48/292 168/46/292 167/47/292
f 162/35/293 32/45/293 164/38/293
f 168/46/294 23/32/294 147/9/294
f 163/39/295 162/35/295 164/38/295
f 165/40/296 164/38/296 170/49/296
f 171/51/297 169/50/297 165/40/297
f 38/52/298 164/38/298 32/45/298
f 38/52/299 170/49/299 164/38/299
f 171/53/300 170/49/300 172/54/300
f 171/56/301 172/55/301 173/57/301
f 42/59/302 41/58/302 172/55/302
f 173/57/303 172/55/303 41/58/303
f 165/40/304 170/49/304 171/51/304
f 169/48/305 171/56/305 168/46/305
f 168/46/306 171/56/306 173/57/306
f 168/46/307 173/57/307 43/60/307
f 43/60/308 173/57/308 41/58/308
f 23/32/309 168/46/309 43/60/309
f 174/62/310 44/61/310 166/63/310
f 175/65/311 156/64/311 174/62/311
f 176/67/312 175/66/312 152/68/312
f 7/69/313 176/67/313 151/70/313
f 44/61/314 174/62/314 17/71/314
f 166/63/315 44/61/315 31/72/315
f 156/64/316 155/73/316 174/62/316
f 152/74/317 175/65/317 174/62/317
f 152/74/318 174/62/318 166/63/318
f 151/70/319 176/67/319 152/68/319
f 48/75/320 176/67/320 7/69/320
f 156/76/321 175/66/321 176/67/321
f 176/67/322 158/77/322 156/76/322
f 158/77/323 176/67/323 48/75/323
f 21/78/324 158/77/324 48/75/324
f 174/62/325 155/73/325 17/71/325
f 169/50/326 177/79/326 165/40/326
f 163/81/327 149/80/327 150/82/327
f 178/83/328 167/47/328 147/84/328
f 177/79/329 163/36/329 165/40/329
f 179/85/330 169/48/330 180/86/330
f 177/79/331 169/50/331 179/87/331
f 178/83/332 180/86/332 167/47/332
f 180/86/333 169/48/333 167/47/333
f 178/83/334 147/84/334 149/10/334
f 163/81/335 181/88/335 149/80/335
f 177/79/336 181/88/336 163/36/336
f 182/90/337 183/89/337 184/91/337
f 182/90/338 185/92/338 186/93/338
f 187/95/339 188/94/339 182/90/339
f 183/89/340 189/96/340 184/91/340
f 189/96/341 172/97/341 170/98/341
f 189/96/342 170/98/342 184/91/342
f 184/91/343 170/98/343 38/99/343
f 63/101/344 190/100/344 191/102/344
f 191/102/345 192/103/345 183/89/345
f 192/103/346 189/96/346 183/89/346
f 67/105/347 193/104/347 190/100/347
f 187/95/348 182/90/348 194/106/348
f 194/106/349 69/107/349 187/95/349
f 70/108/350 69/107/350 194/106/350
f 182/90/351 186/109/351 194/106/351
f 71/110/352 194/106/352 186/111/352
f 67/105/353 190/100/353 63/101/353
f 63/101/354 191/102/354 69/107/354
f 71/110/355 70/108/355 194/106/355
f 71/110/356 186/111/356 72/112/356
f 185/92/357 184/91/357 38/113/357
f 185/114/358 182/90/358 184/91/358
f 74/116/359 195/115/359 38/113/359
f 72/112/360 186/109/360 195/115/360
f 186/111/361 185/117/361 195/115/361
f 195/115/362 185/92/362 38/113/362
f 72/112/363 195/115/363 74/116/363
f 196/118/364 172/97/364 189/96/364
f 172/97/365 196/118/365 197/119/365
f 188/94/366 191/102/366 183/89/366
f 187/95/367 191/102/367 188/94/367
f 188/94/368 183/89/368 182/90/368
f 69/107/369 191/102/369 187/95/369
f 193/104/370 192/103/370 190/100/370
f 189/96/371 192/103/371 196/118/371
f 197/119/372 196/118/372 192/103/372
f 192/103/373 193/104/373 197/119/373
f 191/102/374 190/100/374 192/103/374
f 42/120/375 172/97/375 197/119/375
f 197/119/376 77/121/376 42/120/376
f 197/119/377 67/105/377 77/121/377
f 197/119/378 193/104/378 67/105/378
f 161/34/379 150/82/379 152/42/379
f 177/123/380 179/122/380 198/124/380
f 178/126/381 199/125/381 180/127/381
f 179/122/382 180/127/382 199/125/382
f 200/129/383 201/128/383 181/130/383
f 198/124/384 179/122/384 199/125/384
f 178/126/385 202/131/385 199/125/385
f 202/131/386 178/126/386 149/132/386
f 198/124/387 181/133/387 177/123/387
f 203/135/388 204/134/388 205/136/388
f 204/134/389 203/135/389 206/137/389
f 207/138/390 206/137/390 203/135/390
f 203/135/391 208/139/391 207/138/391
f 209/140/392 207/138/392 208/139/392
f 208/139/393 210/141/393 209/140/393
f 211/143/394 212/142/394 210/141/394
f 209/140/395 210/141/395 212/142/395
f 211/144/396 205/136/396 212/145/396
f 204/134/397 212/145/397 205/136/397
f 213/146/398 201/128/398 204/134/398
f 204/134/399 214/147/399 213/146/399
f 207/138/400 213/146/400 214/147/400
f 213/146/401 207/138/401 215/148/401
f 216/149/402 215/148/402 207/138/402
f 207/138/403 209/140/403 216/149/403
f 212/142/404 217/150/404 209/140/404
f 200/129/405 217/151/405 201/128/405
f 202/131/406 149/132/406 201/128/406
f 201/128/407 213/146/407 218/152/407
f 215/148/408 218/152/408 213/146/408
f 202/131/409 215/148/409 199/125/409
f 198/124/410 199/125/410 215/148/410
f 215/148/411 216/149/411 198/124/411
f 181/133/412 198/124/412 200/153/412
f 216/149/413 200/153/413 198/124/413
f 181/130/414 201/128/414 149/154/414
f 207/138/415 214/147/415 206/137/415
f 204/134/416 206/137/416 214/147/416
f 204/134/417 217/151/417 212/145/417
f 216/149/418 209/140/418 217/150/418
f 204/134/419 201/128/419 217/151/419
f 217/150/420 200/153/420 216/149/420
f 215/148/421 202/131/421 218/152/421
f 201/128/422 218/152/422 202/131/422
f 219/155/423 205/136/423 220/156/423
f 205/136/424 219/155/424 203/135/424
f 221/157/425 203/135/425 219/155/425
f 203/135/426 221/157/426 208/139/426
f 210/141/427 208/139/427 221/157/427
f 221/157/428 222/158/428 210/141/428
f 223/159/429 210/141/429 222/158/429
f 210/141/430 223/159/430 211/143/430
f 205/136/431 211/144/431 223/160/431
f 223/160/432 220/156/432 205/136/432
f 224/162/433 225/161/433 226/163/433
f 226/163/434 227/164/434 228/165/434
f 229/167/435 230/166/435 223/168/435
f 231/169/436 230/166/436 225/161/436
f 229/167/437 225/161/437 230/166/437
f 231/169/438 225/161/438 232/170/438
f 232/170/439 233/171/439 231/169/439
f 229/167/440 226/163/440 225/161/440
f 232/170/441 225/161/441 224/162/441
f 233/173/442 224/172/442 231/174/442
f 224/172/443 233/173/443 232/175/443
f 231/174/444 224/172/444 230/176/444
f 226/177/445 230/176/445 224/172/445
f 220/178/446 230/176/446 226/177/446
f 220/178/447 223/179/447 230/176/447
f 223/168/448 222/180/448 229/167/448
f 234/181/449 226/163/449 228/165/449
f 235/183/450 236/182/450 226/177/450
f 237/185/451 235/184/451 238/186/451
f 234/181/452 228/165/452 239/187/452
f 240/188/453 239/187/453 228/165/453
f 241/190/454 238/189/454 234/191/454
f 241/190/455 234/191/455 237/192/455
f 236/194/456 235/193/456 239/187/456
f 239/187/457 240/188/457 236/194/457
f 238/186/458 241/195/458 237/185/458
f 221/196/459 228/165/459 222/180/459
f 226/177/460 236/182/460 220/178/460
f 219/197/461 220/178/461 236/182/461
f 219/198/462 240/188/462 221/196/462
f 227/164/463 226/163/463 229/167/463
f 240/188/464 228/165/464 221/196/464
f 236/194/465 240/188/465 219/198/465
f 222/180/466 227/164/466 229/167/466
f 227/164/467 222/180/467 228/165/467
f 226/177/468 238/199/468 235/183/468
f 226/163/469 234/181/469 238/200/469
f 237/192/470 234/191/470 239/201/470
f 235/202/471 237/192/471 239/201/471
f 242/204/472 243/203/472 244/205/472
f 245/207/473 246/206/473 242/208/473
f 242/208/474 246/206/474 247/209/474
f 248/211/475 246/210/475 245/212/475
f 249/213/476 248/211/476 245/212/476
f 244/215/477 248/214/477 249/216/477
f 244/215/478 243/217/478 248/214/478
f 248/211/479 250/218/479 246/219/479
f 243/221/480 251/220/480 250/222/480
f 246/224/481 252/223/481 247/225/481
f 251/227/482 252/226/482 246/219/482
f 251/227/483 253/228/483 252/226/483
f 243/221/484 253/229/484 251/220/484
f 246/219/485 250/218/485 251/227/485
f 250/222/486 248/214/486 243/221/486
f 242/204/487 247/209/487 243/203/487
f 253/228/488 157/230/488 154/231/488
f 3/3/489 157/232/489 253/229/489
f 253/228/490 154/231/490 252/226/490
f 252/223/491 154/233/491 159/234/491
f 247/225/492 252/223/492 159/234/492
f 159/234/493 160/235/493 247/225/493
f 247/225/494 160/235/494 243/236/494
f 243/221/495 3/3/495 253/229/495
f 160/235/496 3/237/496 243/236/496
f 254/239/497 255/238/497 256/240/497
f 254/242/498 257/241/498 255/243/498
f 258/245/499 259/244/499 257/246/499
f 256/248/500 259/247/500 258/249/500
f 256/240/501 255/238/501 242/208/501
f 242/250/502 259/247/502 256/248/502
f 259/247/503 242/250/503 244/251/503
f 242/208/504 255/238/504 245/252/504
f 255/243/505 249/253/505 245/254/505
f 255/243/506 257/241/506 249/253/506
f 257/246/507 259/244/507 249/255/507
f 249/255/508 259/244/508 244/256/508
f 260/258/509 256/257/509 258/259/509
f 261/260/510 256/257/510 260/258/510
f 258/259/511 262/261/511 260/258/511
f 263/263/512 254/262/512 261/260/512
f 263/265/513 261/264/513 262/266/513
f 260/267/514 262/266/514 261/264/514
f 263/263/515 257/268/515 254/262/515
f 261/260/516 254/262/516 256/257/516
f 262/261/517 258/259/517 257/268/517
f 264/269/518 257/268/518 263/263/518
f 262/261/519 257/268/519 264/269/519
f 265/270/520 263/265/520 266/271/520
f 262/266/521 266/271/521 263/265/521
f 264/269/522 263/263/522 265/272/522
f 266/273/523 264/269/523 265/272/523
f 264/269/524 266/273/524 262/261/524
f 157/275/525 3/274/525 17/276/525

o 
usemtl axe.001
s off

v 1.222410 19.075701 47.665161
v 0.767010 21.975710 40.956711
v -0.555770 11.640230 43.842949
v -0.603540 14.214279 41.709450
v -0.788340 10.279819 42.206841
v -0.836110 12.853860 40.073326
v -0.713950 7.749010 34.043091
v -0.444850 14.887000 32.431469
v 1.315560 14.056701 51.825188
v -0.620800 2.730010 38.203129
v 1.046450 6.918710 53.436817
v -0.508000 9.066180 45.976471
v -0.740570 7.705770 44.340359
v -0.165400 -0.170000 44.911579
v 1.342180 14.099940 41.527931
v 1.389950 11.525900 43.661453
v 1.109600 12.739520 39.891830
v 1.157380 10.165490 42.025330
v 1.437720 8.951860 45.794960
v 1.205150 7.591440 44.158859
v -1.080250 39.900162 20.419500
v -1.312820 38.539749 18.783390
v 0.632900 38.425411 18.601879
v -1.462530 43.883400 21.291330
v 0.449180 2.908290 49.560501
v -1.809720 65.320999 -3.414490
v 0.037170 65.204971 -3.659740
v 0.368560 66.567078 -1.959880
v -1.577150 66.681412 -1.778380

vt 0.033358 0.643728
vt 0.190411 0.923560
vt 0.402692 0.503812
vt 0.402692 0.647326
vt 0.408249 0.287497
vt 0.408249 0.367848
vt 0.492649 0.287497
vt 0.492649 0.367848
vt 0.403043 0.503812
vt 0.403044 0.647326
vt 0.033710 0.643728
vt 0.190763 0.923560
vt 0.033358 0.363896
vt 0.033710 0.363896
vt 0.190411 0.084064
vt 0.402692 0.360297
vt 0.408249 0.207147
vt 0.492649 0.207147
vt 0.403043 0.360297
vt 0.190763 0.084064
vt 0.408248 1.036942
vt 0.492649 1.036942
vt 0.483600 0.371280
vt 0.402049 0.371280
vt 0.402049 1.040375
vt 0.483600 1.040375
vt 0.450449 0.037941
vt 0.483600 0.210579
vt 0.402049 0.210579
vt 0.442825 0.041374
vt 0.000000 1.000000

vn -0.977034 0.163278 0.136909
vn -0.948270 0.191972 0.252844
vn -0.993977 0.058409 0.092726
vn -0.999781 -0.020769 -0.002672
vn -0.998657 0.027773 -0.043742
vn -0.972862 0.136688 0.186695
vn -0.969831 0.087901 0.227379
vn -0.994392 -0.077814 -0.071614
vn -0.997763 -0.047233 0.047315
vn 0.994392 0.077814 0.071615
vn 0.997763 0.047233 -0.047315
vn 0.993977 -0.058408 -0.092726
vn 0.969831 -0.087900 -0.227378
vn 0.972863 -0.136687 -0.186695
vn 0.999781 0.020769 0.002672
vn 0.998657 -0.027774 0.043742
vn 0.977034 -0.163278 -0.136910
vn 0.948272 -0.191971 -0.252840
vn -0.097201 -0.079056 -0.992120
vn 0.080807 0.962186 0.260130
vn 0.097194 0.079054 0.992121
vn -0.080803 -0.962187 -0.260130
vn 0.940802 0.246602 0.232549
vn 0.109490 0.565658 0.817339
vn -0.994138 -0.079332 -0.073452
vn -0.108649 -0.635565 -0.764364
vn -0.982544 -0.048141 0.179693
vn 0.986478 -0.163844 -0.003991
vn -0.105270 -0.744033 -0.659798
vn 0.109565 0.512663 0.851570
vn -0.124355 -0.635247 -0.762232
vn -0.899613 0.308366 0.309204
vn 0.974491 0.138299 0.176753
vn -0.012269 0.781480 -0.623810
vn -0.036014 0.770928 -0.635904

f 267/277/526 268/278/526 269/279/526
f 270/280/527 269/279/527 268/278/527
f 269/281/528 270/282/528 271/283/528
f 272/284/528 271/283/528 270/282/528
f 271/285/529 272/286/529 273/287/529
f 274/288/530 273/287/530 272/286/530
f 275/289/531 267/277/531 269/279/531
f 273/287/529 276/290/529 271/285/529
f 277/291/532 275/289/532 278/292/532
f 269/279/531 278/292/531 275/289/531
f 278/293/528 269/281/528 279/294/528
f 271/283/528 279/294/528 269/281/528
f 279/295/533 271/285/533 280/296/533
f 276/290/534 280/296/534 271/285/534
f 281/280/535 268/278/535 282/279/535
f 267/277/536 282/279/536 268/278/536
f 283/284/537 281/282/537 284/283/537
f 282/281/537 284/283/537 281/282/537
f 274/288/538 283/286/538 273/287/538
f 284/285/539 273/287/539 283/286/539
f 282/279/540 267/277/540 275/289/540
f 273/287/539 284/285/539 276/290/539
f 282/279/540 275/289/540 285/292/540
f 277/291/541 285/292/541 275/289/541
f 284/283/537 282/281/537 286/294/537
f 285/293/537 286/294/537 282/281/537
f 276/290/542 284/285/542 280/296/542
f 286/295/543 280/296/543 284/285/543
f 270/280/544 268/278/544 281/280/544
f 283/286/545 274/288/545 272/286/545
f 279/295/546 280/296/546 286/295/546
f 285/292/547 277/291/547 278/292/547
f 272/284/528 270/282/528 287/297/528
f 287/297/528 288/298/528 272/284/528
f 281/282/537 283/284/537 289/298/537
f 289/298/548 290/297/548 281/282/548
f 270/299/549 281/300/549 290/301/549
f 290/301/550 287/302/550 270/299/550
f 283/300/551 272/299/551 288/302/551
f 288/302/551 289/301/551 283/300/551
f 278/293/552 279/294/552 291/303/552
f 286/294/553 285/293/553 291/303/553
f 279/304/554 286/305/554 291/306/554
f 285/305/555 278/304/555 291/306/555
f 289/298/556 288/297/556 292/298/556 293/307/556
f 287/297/557 290/298/557 294/297/557 295/307/557
f 290/297/558 289/298/558 293/297/558 294/307/558
f 288/298/528 287/297/528 295/298/528 292/307/528
f 294/297/559 293/298/559 295/297/559
f 292/298/560 295/297/560 293/298/560

