mtllib anim_barb_walk_000029.mtl

o fat
usemtl fat.001
s off

v -0.158930 41.611217 -3.336940
v 1.860240 36.144421 6.136090
v 0.308690 42.385403 1.626640
v 0.410170 63.791901 -7.899920
v 9.468431 69.449982 -6.893730
v 2.812830 59.988029 -6.939800
v -0.362600 55.710228 -4.953560
v 8.188950 65.752182 -3.375410
v 7.734160 61.561844 -0.964290
v 6.919220 55.786510 -0.848430
v 4.142630 55.597160 -4.975850
v 6.499870 60.765018 -6.046520
v 9.029840 42.314819 4.770550
v 9.344550 41.723629 -1.659550
v 10.505051 41.335838 -1.905130
v 6.570210 44.045799 4.021110
v 3.993900 39.971909 7.078080
v 3.736200 36.853020 -3.539460
v 3.561140 40.384289 -4.863380
v 0.286550 40.384411 -3.506760
v -0.309850 38.574501 -3.476930
v 0.201120 69.445007 -7.609260
v 0.170300 71.437660 -7.646910
v 0.050570 62.740387 6.065120
v 5.046120 62.781593 4.080230
v 5.965540 66.967117 4.926750
v 8.908630 66.669785 2.441170
v 5.784670 69.769211 4.898880
v 11.337219 69.936996 0.771750
v 4.497020 55.854801 4.054040
v 1.102870 55.584320 5.311190
v 0.339910 69.676346 6.269470
v 4.943690 74.192291 -4.903360
v 11.149700 71.326355 -6.101130
v 11.735240 71.703201 -2.352330
v 2.739080 74.280998 3.730360
v 5.556190 75.405220 -0.588710
v -0.027150 73.460350 4.319430
v 2.663080 79.781296 0.711300
v 3.377310 77.408836 -2.456330
v 0.354450 77.551521 -3.413960
v 0.176800 80.435448 -0.532530
v 0.368730 75.482887 -5.220140
v 0.489180 51.257481 5.632990
v 5.364230 51.252308 5.032270
v 8.418850 50.900558 -0.145200
v 4.992470 50.306480 -5.332770
v -0.188040 50.220863 -6.038870
v 11.868561 68.289246 0.169130
v 10.043110 67.816063 -7.331230
v 13.454220 68.661072 -2.444580
v 12.628160 69.919388 -5.571850
v 8.947750 65.672829 0.905820
v 2.581520 79.222328 6.199550
v 1.180830 77.707375 7.934600
v 2.717760 74.871964 4.856710
v 1.639600 73.803719 6.831610
v 0.698310 76.338760 7.879170
v 1.643460 79.677429 7.735350
v -0.144470 79.547646 8.001181
v 3.177320 80.556808 3.490150
v 0.535690 83.546417 8.120910
v -0.763210 83.497040 8.390590
v 1.701340 80.948685 8.359060
v 2.256590 82.809235 7.338530
v 1.223440 84.887939 5.412940
v -0.414440 84.883102 5.217900
v 0.269850 77.713837 8.458660
v -0.765430 80.293648 8.287920
v -0.900690 78.268921 9.461260
v -0.835060 77.684906 8.831680
v -0.843340 76.102493 8.847470
v 0.535200 73.340393 8.418261
v -0.861440 73.314911 8.907750
v 3.025130 82.894775 3.517950
v 2.543030 84.136154 2.955920
v -0.045170 84.384117 1.783120
v 13.717509 66.042412 -0.730870
v 14.259900 66.851120 -4.341430
v 9.234571 60.466389 -4.812480
v 10.834110 60.726929 -0.495110
v 10.744240 65.405792 -7.403580
v 11.816120 56.312927 -5.000180
v 12.712870 52.922749 -1.619920
v 11.299410 55.064812 -3.163750
v 14.865419 56.266296 -6.809430
v 16.099699 58.085598 -4.685140
v 14.627800 54.696598 -0.662990
v 15.664860 57.373699 -2.656350
v 13.928610 56.731659 -0.137350
v 13.680170 55.374260 -2.220610
v 11.439780 57.203632 -0.997660
v 13.784260 59.063511 -6.770410
v 14.356461 57.846470 -6.866000
v 15.394330 63.362549 -4.530280
v 14.622200 62.630249 -1.177990
v 12.963429 57.049599 -1.833070
v 12.847110 61.593010 -7.640710
v 8.413940 51.774467 4.034440
v 7.103940 53.098190 3.680540
v 9.464430 52.445648 4.972590
v 9.010520 54.253510 5.286470
v 7.635300 54.904991 4.629340
v 4.353900 55.848061 8.565930
v 4.109800 54.981720 8.368190
v 5.212540 54.498360 7.844200
v 6.060560 54.960041 7.886820
v 6.441500 53.840950 9.102620
v 4.957970 55.718750 6.168509
v 5.492310 55.686432 7.458820
v 3.522630 55.895000 7.846650
v 3.303470 55.533653 9.547960
v 2.747310 55.530991 8.914520
v 4.894550 53.266457 10.608459
v 6.047290 49.587440 6.747450
v 5.019780 48.992008 8.320980
v 3.507810 48.701729 10.806670
v 4.220470 53.776352 9.633010
v 5.789770 49.338348 8.953239
v 7.078830 49.871479 7.588420
v 2.627640 52.671097 12.163310
v 1.903840 33.483208 8.350420
v 4.838520 34.256512 1.439590
v 1.986710 29.050961 6.451480
v 7.723200 32.636490 8.185250
v 9.413530 29.996569 4.766560
v 4.004450 31.190159 5.194510
v 5.682970 31.275188 10.547260
v 5.895670 27.667698 8.663260
v 5.875280 33.748390 10.818740
v 6.354050 35.935959 8.763870
v 9.012970 34.231522 4.137680
v 6.936180 40.707680 7.168860
v 7.600920 25.760910 -6.288850
v 8.489040 23.718620 -8.513030
v 5.843760 26.679590 -8.856370
v 5.835380 21.926191 -6.750860
v 3.945480 25.005550 -6.157680
v 3.502920 23.956650 -9.163879
v 4.887780 25.409109 -13.501559
v 8.113810 25.414049 -12.987580
v 3.401060 17.681480 -11.062830
v 9.511060 17.257921 -10.141581
v 5.545540 14.787940 -7.704110
v 7.965030 13.524220 -9.105140
v 3.915570 13.205529 -9.515880
v -9.218500 69.644630 -6.454270
v -1.875160 59.961353 -7.117690
v -5.801210 66.382645 -2.711790
v -7.285800 61.475639 -1.298460
v -4.956670 55.692841 -3.359810
v -6.374790 55.580540 1.356610
v -5.703240 60.694817 -6.433130
v -9.006520 41.834732 0.141930
v -7.179210 42.268463 6.305240
v -10.224791 41.292347 -0.059710
v -4.706590 43.498093 5.509150
v -4.804790 39.630230 -5.610900
v -4.530570 41.876179 -4.949760
v -1.001690 41.201939 -4.289160
v -4.900140 62.723331 3.893330
v -5.422610 66.892921 5.132060
v -10.370689 66.512161 3.034470
v -5.158240 69.694588 5.189950
v -10.396700 70.871361 2.241140
v -2.454760 55.467522 5.400970
v -11.097330 70.890167 -5.436330
v -4.837180 74.153191 -4.793060
v -11.518340 71.911682 -0.872900
v -2.728000 74.259651 3.532510
v -5.900130 75.492508 -0.716450
v -2.505460 79.794540 0.219630
v -2.770550 77.411880 -2.883510
v -3.837170 50.848049 5.886670
v -8.024130 50.585960 1.121120
v -5.647120 50.058952 -4.596960
v -11.600849 68.678818 1.429500
v -9.203890 66.638222 -6.387530
v -13.150370 69.584579 -1.117690
v -12.353849 68.050812 -4.356480
v -9.848780 66.500153 1.737850
v -2.612380 77.723129 7.524500
v -3.597380 79.248001 5.531520
v -3.360510 74.897179 4.285350
v -2.856860 73.822411 6.345470
v -2.140420 76.350563 7.572270
v -1.316860 79.552521 7.874450
v -3.005530 79.696747 7.232710
v -3.589360 80.584946 2.758570
v -1.974020 83.556839 7.849560
v -3.184930 80.969002 7.830780
v -3.493930 82.833145 6.716810
v -2.056070 84.901573 5.058400
v -1.834430 77.722595 8.231150
v -2.120930 73.351433 8.131081
v -3.427430 82.921585 2.820360
v -2.826160 84.158447 2.375420
v -12.794020 66.160828 0.789940
v -13.636730 66.046860 -2.882970
v -9.374000 61.405800 1.986920
v -8.642040 60.692680 -2.330780
v -10.083040 64.350830 -5.816440
v -11.796110 51.849369 1.591680
v -9.848400 55.849689 -1.214220
v -10.052429 54.084770 -0.143830
v -12.856831 55.132271 -2.973740
v -14.259251 57.306580 -1.304830
v -12.266780 53.998390 3.493750
v -13.820430 57.062840 0.831880
v -10.343190 56.330379 3.755560
v -8.013640 56.447220 2.105310
v -11.683880 55.417080 1.686210
v -12.057659 57.964340 -3.638280
v -12.454380 56.754398 -3.377580
v -14.257260 62.460640 -2.390590
v -13.379801 62.625271 1.026240
v -10.784691 58.082729 1.179260
v -11.473490 60.333717 -5.094080
v -7.255160 49.212109 6.502370
v -5.676010 50.069771 5.906990
v -7.863210 50.138859 7.602859
v -6.760400 51.714920 7.821950
v -5.419610 51.893520 6.928980
v -1.495350 50.583668 9.998711
v -1.391900 51.470562 10.225249
v -2.766360 50.526062 9.678730
v -3.388120 51.246399 9.857090
v -3.919130 50.264870 11.138220
v -2.684340 51.755901 9.328870
v -2.389450 51.661919 7.966720
v -0.727350 51.268238 9.371700
v -0.364930 50.774086 11.016740
v 0.044170 50.612797 10.297650
v -2.435370 49.132072 12.363430
v -4.390500 45.265129 10.183940
v -5.395850 46.243660 8.804871
v -2.677100 44.363388 12.380210
v -1.799020 49.428650 11.280360
v -4.879840 45.821453 10.934620
v -6.114370 46.820488 9.806300
v -0.283880 47.733322 13.514580
v -3.466850 21.684490 -3.710910
v -1.109570 29.419861 2.217210
v -0.976120 21.136141 0.986850
v -8.345830 21.311110 -0.481190
v -7.001170 29.135941 0.865180
v -3.544150 30.061058 -1.726270
v -4.936950 26.679590 4.377330
v -4.923320 20.770180 4.015710
v -4.936690 28.544910 4.941690
v -4.771460 31.308571 4.514620
v -8.550860 32.765869 0.654260
v -4.970320 36.242741 5.941010
v -7.015860 7.741940 -0.207400
v -6.119390 10.665630 -0.348970
v -4.281940 8.508590 -2.684350
v -4.815830 9.129650 2.333860
v -2.051400 7.492180 0.059100
v -2.551870 10.580940 0.361740
v -2.822480 3.559340 -2.587450
v -5.915480 3.715150 -2.750600
v -2.422960 4.385110 5.721931
v -8.285870 4.751350 5.769920
v -4.232950 7.002310 8.990930
v -6.544030 5.212770 9.923830
v -2.475830 5.043240 10.223000

vt 0.550479 0.485338
vt 0.414517 0.485338
vt 0.489174 0.497239
vt 0.490853 0.675485
vt 0.356970 0.710738
vt 0.458986 0.602657
vt 0.458693 0.603155
vt 0.491001 0.506534
vt 0.357039 0.710738
vt 0.272881 0.708251
vt 0.307767 0.663467
vt 0.329118 0.504113
vt 0.420682 0.504388
vt 0.307693 0.663467
vt 0.420389 0.504181
vt 0.390374 0.619683
vt 0.389206 0.622726
vt 0.390855 0.620128
vt 0.309151 0.663075
vt 0.578845 0.971377
vt 0.529882 0.993867
vt 0.501054 0.950636
vt 0.597833 0.993868
vt 0.684209 0.993870
vt 0.691613 0.940228
vt 0.584242 0.936155
vt 0.602549 0.993867
vt 0.689094 0.993870
vt 0.694409 0.971380
vt 0.730001 0.975635
vt 0.490853 0.781888
vt 0.490853 0.820915
vt 0.240556 0.660920
vt 0.133663 0.660928
vt 0.131880 0.753091
vt 0.060606 0.782384
vt 0.055577 0.663688
vt 0.136145 0.808744
vt 0.060014 0.783494
vt 0.058190 0.859642
vt 0.160773 0.512959
vt 0.067037 0.515196
vt 0.240700 0.512959
vt 0.131877 0.752996
vt 0.240556 0.781375
vt 0.390182 0.870896
vt 0.298691 0.847983
vt 0.294173 0.886121
vt 0.181129 0.899551
vt 0.052544 0.886601
vt 0.145152 0.921474
vt 0.235241 0.891030
vt 0.142740 0.921054
vt 0.172936 0.966074
vt 0.456563 0.999059
vt 0.389917 0.922986
vt 0.429989 0.941889
vt 0.491140 0.942697
vt 0.490646 0.999330
vt 0.490853 0.898039
vt 0.701416 0.118225
vt 0.813217 0.120956
vt 0.790107 0.184348
vt 0.877923 0.002315
vt 0.872775 0.120438
vt 0.505869 0.118716
vt 0.564263 0.119120
vt 0.507564 0.183764
vt 0.697589 0.180917
vt 0.580429 0.182675
vt 0.710756 0.001536
vt 0.701372 0.182427
vt 0.812168 0.002315
vt 0.857243 0.184348
vt 0.697567 0.116528
vt 0.503935 0.000692
vt 0.561277 0.000692
vt 0.688827 -0.000098
vt 0.002866 0.854679
vt 0.027518 0.706813
vt 0.061197 0.782654
vt 0.055608 0.663958
vt 0.251604 0.781884
vt 0.357109 0.710738
vt 0.243886 0.876138
vt 0.247300 0.848527
vt -0.000514 0.880403
vt 0.006948 0.782948
vt 0.674684 0.829607
vt 0.705811 0.784366
vt 0.654033 0.662928
vt 0.703232 0.671848
vt 0.720473 0.730776
vt 0.697736 0.853617
vt 0.729837 0.853035
vt 0.623758 0.856571
vt 0.587609 0.811448
vt 0.658187 0.605708
vt 0.748523 0.593788
vt 0.716351 0.931575
vt 0.747491 0.935506
vt 0.695349 0.885675
vt 0.676247 0.904603
vt 0.649719 0.961956
vt 0.745560 1.001324
vt 0.725611 0.781438
vt 0.747491 0.878462
vt 0.747491 0.808438
vt 0.720379 0.731031
vt 0.747491 0.790807
vt 0.720762 0.730332
vt 0.748639 0.732530
vt 0.746944 0.628012
vt 0.703659 0.671442
vt 0.731857 0.666086
vt 0.747085 0.666819
vt 0.703186 0.671176
vt 0.611291 0.885598
vt 0.604148 0.909350
vt 0.550618 0.823662
vt 0.550618 0.934468
vt 0.625864 0.557513
vt 0.571978 0.557920
vt 0.578607 0.510287
vt 0.669444 0.510287
vt 0.756032 0.560223
vt 0.679695 0.557918
vt 0.877240 0.461159
vt 0.992418 0.461159
vt 0.944262 0.560223
vt 0.756457 0.510287
vt 0.806202 0.560223
vt 0.498275 0.560223
vt 0.875566 0.382888
vt 0.758260 0.308662
vt 0.875912 0.308662
vt 0.759996 0.360654
vt 0.669163 0.382888
vt 0.671223 0.308662
vt 0.584325 0.382888
vt 0.577057 0.308662
vt 0.498223 0.363687
vt 0.498247 0.308662
vt 0.992597 0.308662
vt 0.992439 0.363687
vt 0.759483 0.410364
vt 0.758924 0.382888
vt 0.665903 0.461159
vt 0.580075 0.461159
vt 0.498223 0.402657
vt 0.992438 0.402657
vt 0.760539 0.449273
vt 0.498220 0.461159
vt 0.875438 0.575163
vt 0.762705 0.196431
vt 0.858161 0.196355
vt 0.690657 0.196417
vt 0.588027 0.196417
vt 0.498144 0.196431
vt 0.991918 0.196431
vt 0.375723 0.009258
vt 0.380090 0.017573
vt 0.356438 0.030356
vt 0.342839 0.029458
vt 0.369327 0.043627
vt 0.316032 0.012201
vt 0.336848 0.019568
vt 0.249292 0.041099
vt 0.371147 0.002582
vt 0.416197 0.004791
vt 0.408124 0.000758
vt 0.128136 0.016613
vt 0.154876 0.002573
vt 0.119423 0.002194
vt 0.160447 0.001473
vt 0.065726 0.014292
vt 0.105093 0.028910
vt 0.000825 0.069213
vt 0.000703 0.039244
vt 0.249314 0.055441
vt 0.429228 0.045736
vt 0.102506 0.115410
vt 0.153549 0.117195
vt 0.189513 0.114692
vt 0.228429 0.109580
vt 0.194639 0.033982
vt 0.406548 0.108121
vt 0.355355 0.108206
vt 0.448349 0.035630
vt 0.498209 0.039288
vt 0.461840 0.047992
vt 0.483032 0.114221
vt 0.406174 0.120334
vt 0.355217 0.119080
vt 0.243215 0.037501
vt 0.249314 0.089732
vt 0.000703 0.095058
vt 0.249292 0.105039
vt 0.160984 0.032072
vt 0.413806 0.033644
vt 0.442212 0.108407
vt 0.443088 0.117732
vt 0.023914 0.327327
vt 0.104127 0.227894
vt 0.000784 0.227894
vt 0.216171 0.327327
vt 0.216985 0.228421
vt 0.105699 0.228145
vt 0.104981 0.327662
vt 0.217575 0.327327
vt 0.351490 0.301452
vt 0.217290 0.227894
vt 0.351571 0.227894
vt 0.352420 0.301452
vt 0.489174 0.227894
vt 0.352342 0.227894
vt 0.471690 0.333380
vt 0.351597 0.328057
vt 0.217345 0.328075
vt 0.352312 0.363299
vt 0.470864 0.334174
vt 0.352330 0.328057
vt 0.216660 0.380224
vt 0.216104 0.328075
vt 0.104983 0.328371
vt 0.217232 0.380224
vt 0.351611 0.363299
vt 0.351459 0.420971
vt 0.352499 0.420971
vt 0.351589 0.497239
vt 0.229465 0.497239
vt 0.352627 0.497239
vt 0.229583 0.497239
vt 0.133020 0.497239
vt 0.072972 0.497239
vt 0.025422 0.328212
vt 0.002386 0.497239
vt 0.216130 0.152222
vt 0.223982 0.125749
vt 0.105883 0.155747
vt 0.351732 0.147623
vt 0.223132 0.128232
vt 0.218721 0.149411
vt 0.469070 0.149411
vt 0.483427 0.127273
vt 0.352306 0.146326
vt 0.017963 0.152222
vt 0.104256 0.155747
vt 0.009616 0.131504
vt 0.104128 0.227914
vt 0.000790 0.227921
vt 0.216984 0.228396
vt 0.351571 0.227971
vt 0.217291 0.227882
vt 0.352342 0.227879
vt 0.489111 0.227891
vt 0.948232 0.041698
vt 0.989968 0.003451
vt 0.971575 0.059997
vt 0.909211 0.004273
vt 0.996004 0.120663
vt 0.925604 0.058708
vt 0.885225 0.122889
vt 0.516483 0.798440
vt 0.501430 0.685191
vt 0.597947 0.686709
vt 0.594444 0.793024
vt 0.950876 0.082499
vt 0.943924 0.157220
vt 0.507177 0.624822
vt 0.600053 0.622523
vt 0.901715 0.182549
vt 0.982420 0.184037
vt 0.730212 0.975635
vt 0.685579 0.991654
vt 0.692830 0.969164

vn -0.980294 -0.159052 0.117162
vn 0.187689 -0.127280 -0.973947
vn -0.144063 -0.326760 -0.934063
vn 0.826553 0.210630 0.521962
vn 0.825650 -0.127530 -0.549580
vn -0.014849 -0.411997 -0.911064
vn 0.285981 -0.317739 -0.904022
vn 0.926742 -0.333619 -0.172766
vn 0.267870 -0.183818 -0.945757
vn 0.888004 -0.435581 -0.147372
vn -0.302248 -0.950461 0.072593
vn -0.584232 -0.810288 0.045904
vn -0.128386 -0.542008 -0.830509
vn 0.054243 -0.413297 0.908979
vn -0.513963 0.278679 0.811283
vn 0.019701 0.009988 0.999756
vn 0.359510 0.343154 0.867755
vn 0.943875 -0.309106 0.116418
vn 0.076978 -0.017646 -0.996877
vn 0.358399 -0.260070 0.896613
vn 0.710866 -0.495939 0.498712
vn 0.596863 -0.034063 0.801620
vn 0.369288 -0.032785 0.928737
vn 0.893778 -0.072525 0.442607
vn 0.350237 -0.047056 0.935478
vn 0.214773 -0.037713 0.975936
vn 0.001348 0.388095 -0.921619
vn 0.076839 0.054031 -0.995578
vn 0.601945 -0.283233 0.746620
vn 0.390006 0.908146 -0.152207
vn 0.243626 0.025370 0.969537
vn 0.178986 0.521041 -0.834554
vn 0.647348 0.049353 0.760596
vn 0.500322 0.517514 0.694160
vn 0.549021 0.695681 0.463254
vn 0.208803 0.463918 0.860919
vn 0.106898 0.316292 0.942620
vn 0.750867 0.325733 0.574540
vn 0.766007 0.585353 -0.265697
vn 0.472283 0.637396 -0.608830
vn 0.213581 0.804424 -0.554333
vn 0.521033 0.679384 0.516683
vn 0.425661 0.853571 -0.300381
vn 0.767275 0.580701 -0.272167
vn 0.235250 0.658445 -0.714918
vn 0.260159 0.636076 -0.726447
vn 0.198692 0.496997 -0.844698
vn 0.119320 0.227874 0.966352
vn 0.860169 0.095429 0.501002
vn 0.813304 0.169514 -0.556599
vn -0.003262 0.066786 -0.997762
vn 0.120836 0.162911 0.979213
vn 0.345799 0.020724 0.938080
vn 0.916526 0.371568 0.148046
vn 0.825278 0.320247 0.465144
vn 0.868515 0.254100 0.425575
vn 0.814301 0.168277 -0.555515
vn 0.129238 0.196284 -0.971993
vn 0.787938 0.273381 -0.551740
vn 0.327582 -0.154829 -0.932050
vn 0.135982 -0.143367 -0.980283
vn -0.105465 -0.212591 -0.971433
vn 0.365574 0.122919 0.922630
vn 0.945702 0.216190 0.242713
vn 0.982139 -0.161827 -0.095990
vn 0.117525 0.295215 -0.948175
vn 0.633361 -0.077359 0.769980
vn 0.869776 0.492433 -0.031609
vn 0.752865 0.409793 0.515038
vn 0.463611 0.159282 -0.871604
vn 0.711134 0.679780 -0.179409
vn -0.855327 -0.169770 -0.489483
vn -0.944244 -0.286609 0.162046
vn 0.662010 -0.620783 0.419966
vn 0.827131 -0.141949 0.543788
vn 0.449122 -0.193670 0.872228
vn 0.142010 0.066540 0.987626
vn 0.979294 -0.031079 0.200042
vn 0.984075 -0.074889 -0.161208
vn 0.996243 -0.067491 0.054269
vn 0.340337 -0.829989 0.441915
vn 0.193736 0.175423 0.965242
vn 0.911170 -0.047426 0.409292
vn 0.974672 0.017497 0.222951
vn -0.054129 0.900157 0.432190
vn 0.475325 0.312558 0.822419
vn 0.684973 0.318254 0.655382
vn 0.699334 0.322849 0.637731
vn 0.486844 -0.206022 0.848845
vn 0.313348 -0.284215 0.906110
vn 0.049241 0.913260 0.404391
vn -0.020318 -0.032014 0.999281
vn 0.245445 -0.697825 0.672902
vn 0.531248 0.005677 0.847197
vn 0.478821 -0.854624 -0.200868
vn 0.883699 -0.028158 0.467208
vn 0.007618 -0.999512 -0.030297
vn 0.513966 0.124631 0.848708
vn 0.810867 0.060543 0.582091
vn 0.300019 -0.951434 -0.069007
vn 0.330398 0.018259 0.943665
vn 0.977702 0.066016 -0.199352
vn 0.917814 0.201590 -0.342022
vn 0.767696 -0.310090 0.560792
vn 0.163227 -0.440539 0.882769
vn 0.826306 -0.138833 0.545843
vn 0.056784 -0.316670 0.946835
vn 0.520856 0.704896 0.481488
vn 0.978250 0.061325 0.198155
vn 0.884046 0.428178 0.187418
vn 0.769131 0.595992 0.230716
vn 0.497932 0.298089 0.814375
vn 0.492068 0.409527 -0.768216
vn 0.399779 0.480302 -0.780697
vn 0.151110 0.980430 -0.126184
vn 0.030215 0.960227 -0.277580
vn 0.865414 -0.112319 0.488306
vn 0.751679 0.412399 0.514690
vn 0.574845 -0.022302 -0.817958
vn 0.890354 0.452144 -0.053256
vn -0.843618 -0.417419 0.337742
vn 0.955522 0.222643 0.193412
vn 0.596654 0.196917 -0.777964
vn -0.831170 -0.226538 -0.507777
vn 0.330011 -0.104243 0.938204
vn -0.411489 -0.695799 -0.588677
vn -0.370778 -0.703088 -0.606787
vn 0.833194 -0.552879 -0.010614
vn 0.723496 -0.635161 -0.270413
vn 0.950723 -0.293161 0.100905
vn 0.801839 0.124535 0.584419
vn 0.333669 0.771127 -0.542243
vn -0.705530 0.629298 -0.325900
vn 0.185808 0.693134 -0.696449
vn -0.296879 0.826540 0.478220
vn -0.444845 -0.237466 -0.863553
vn -0.512153 -0.174745 -0.840930
vn 0.702620 0.377707 -0.603044
vn 0.690896 0.113306 -0.714020
vn 0.961182 0.121207 0.247866
vn 0.961102 0.120784 0.248381
vn 0.300298 -0.091161 0.949479
vn -0.765943 -0.559034 0.317510
vn -0.845078 -0.021938 -0.534194
vn -0.465874 -0.437272 -0.769256
vn 0.756562 0.056140 -0.651508
vn 0.583000 0.231737 -0.778723
vn 0.933846 0.292532 0.205809
vn 0.940429 0.214811 0.263534
vn 0.331011 -0.138155 0.933459
vn 0.211684 -0.071596 0.974712
vn -0.957941 -0.234476 0.165440
vn 0.750237 0.219310 -0.623738
vn -0.502935 -0.192159 -0.842693
vn -0.808311 -0.437060 0.394477
vn 0.307538 -0.200596 0.930151
vn -0.771979 -0.497688 0.395417
vn 0.265819 -0.189953 0.945123
vn 0.600958 0.375336 -0.705671
vn -0.546665 -0.251837 -0.798584
vn -0.534059 -0.667309 -0.519115
vn -0.493896 -0.698818 -0.517418
vn 0.434032 -0.888394 0.149574
vn 0.593835 -0.768900 0.236964
vn 0.721450 0.069923 0.688927
vn 0.724867 0.062888 0.686012
vn 0.149837 0.840881 0.520065
vn 0.035972 0.916389 0.398669
vn -0.818499 0.434441 -0.375927
vn -0.817223 0.437403 -0.375266
vn 0.302860 -0.292371 0.907080
vn -0.372983 0.621497 0.688930
vn 0.248259 0.965498 -0.078624
vn 0.084330 0.995909 -0.032467
vn 0.117722 0.992759 -0.023884
vn -0.111667 0.974888 0.192676
vn -0.206974 0.962077 0.177677
vn 0.700451 0.065586 0.710681
vn 0.694498 -0.340364 0.633897
vn -0.493753 -0.648371 -0.579503
vn -0.275876 -0.929145 0.246133
vn -0.609532 -0.650576 -0.453014
vn -0.528510 -0.722425 -0.445847
vn -0.847189 -0.482399 -0.222624
vn -0.306054 0.511612 -0.802860
vn 0.405741 0.912311 0.055339
vn 0.063901 0.908781 0.412352
vn -0.833920 -0.018567 -0.551573
vn -0.854349 -0.000215 -0.519699
vn 0.715629 -0.126374 0.686953
vn 0.745640 -0.129613 0.653622
vn 0.058608 0.900757 0.430352
vn 0.585088 -0.143084 0.798247
vn 0.443127 -0.895100 -0.049347
vn 0.317293 -0.945758 -0.069759
vn -0.845316 -0.004848 -0.534245
vn 0.819254 0.107911 0.563186
vn -0.916765 -0.067926 -0.393610
vn -0.354393 -0.552427 -0.754473
vn 0.632566 -0.756224 -0.167289
vn -0.235935 0.349663 0.906681
vn 0.784764 -0.106885 0.610509
vn 0.459546 -0.843235 -0.278876
vn 0.559426 0.699576 0.444563
vn 0.565956 0.687307 0.455305
vn -0.872431 -0.011766 -0.488596
vn 0.086653 0.906222 0.413828
vn 0.649141 -0.164961 0.742566
vn 0.340337 -0.935204 0.097800
vn -0.916663 0.142790 -0.373283
vn 0.730644 0.665481 -0.152628
vn -0.602134 0.678694 0.420486
vn 0.797240 -0.218346 0.562791
vn 0.788135 -0.247778 0.563426
vn -0.554753 -0.410622 0.723628
vn -0.609311 -0.321868 0.724666
vn 0.785773 -0.127536 0.605223
vn -0.424707 0.667480 0.611632
vn 0.481454 -0.856885 -0.184256
vn 0.871639 0.292755 0.393116
vn 0.874263 0.054585 0.482374
vn -0.268383 0.334684 0.903304
vn 0.838390 0.264299 0.476706
vn -0.524612 -0.052479 0.849722
vn 0.880022 0.252899 0.402000
vn 0.886708 0.364908 0.283885
vn -0.419699 0.597929 0.682887
vn 0.944954 0.173054 0.277696
vn 0.499501 -0.543875 -0.674313
vn 0.287604 -0.700558 -0.653071
vn -0.266752 -0.717171 -0.643824
vn -0.837960 -0.513559 -0.184609
vn -0.495605 0.465183 0.733472
vn -0.989297 -0.134459 0.056679
vn 0.732049 0.621701 -0.278553
vn 0.677086 -0.387139 0.625842
vn -0.784728 -0.540174 0.303998
vn -0.746286 0.654963 -0.118661
vn 0.768120 0.549212 -0.329177
vn -0.850865 0.380049 -0.362756
vn -0.929848 0.282938 -0.235222
vn 0.761115 0.554138 -0.337097
vn 0.667136 -0.725601 0.168619
vn 0.889927 -0.428543 0.156145
vn -0.816232 -0.540335 0.204458
vn -0.431320 -0.876409 0.214176
vn -0.756829 0.653212 -0.022901
vn 0.041795 0.961509 -0.271578
vn -0.957081 0.098064 -0.272724
vn 0.986636 0.161507 -0.021542
vn 0.120873 -0.308521 -0.943507
vn 0.149356 -0.323597 -0.934333
vn 0.598569 -0.105480 0.794097
vn 0.720709 0.666130 0.191963
vn -0.776395 -0.170968 0.606615
vn 0.577111 -0.131077 0.806078
vn -0.855485 -0.034264 0.516693
vn 0.120121 -0.311409 -0.942653
vn 0.120481 -0.311876 -0.942453
vn 0.511341 0.026706 0.858963
vn -0.008157 -0.749497 0.661957
vn -0.787437 0.118544 0.604889
vn 0.409549 -0.698944 -0.586299
vn -0.196651 -0.082194 -0.977022
vn 0.285322 -0.352247 -0.891355
vn -0.497576 0.375723 0.781825
vn -0.920356 -0.269758 -0.283154
vn -0.279659 -0.512731 -0.811725
vn -0.246903 -0.533781 -0.808775
vn -0.906684 -0.356655 -0.225214
vn -0.189761 -0.076846 -0.978818
vn -0.926844 -0.287036 -0.242015
vn 0.414127 -0.908314 -0.058860
vn 0.427933 -0.901582 -0.063427
vn -0.039478 -0.485894 -0.873126
vn 0.276684 -0.812338 0.513373
vn 0.723253 -0.274804 0.633552
vn -0.387724 0.177526 0.904519
vn -0.224087 -0.249930 0.941977
vn -0.953315 -0.174922 0.246157
vn -0.122108 -0.020639 -0.992302
vn -0.381461 -0.306849 0.871970
vn -0.559095 -0.710324 0.427613
vn -0.457544 0.156565 0.875295
vn -0.401283 0.054738 0.914317
vn -0.715986 -0.097675 0.691248
vn 0.028402 -0.100602 0.994521
vn -0.183693 -0.021292 0.982753
vn -0.156967 0.472149 -0.867431
vn -0.120600 0.046526 -0.991610
vn -0.351363 -0.306812 0.884540
vn -0.430212 0.871655 -0.234809
vn -0.192671 -0.002094 0.981261
vn -0.203143 0.506227 -0.838133
vn -0.391403 0.017924 0.920045
vn -0.346990 0.477743 0.807069
vn -0.493664 0.755744 0.430286
vn -0.171796 0.438058 0.882378
vn -0.143512 0.404350 0.903275
vn -0.675831 0.398353 0.620136
vn -0.667239 0.617227 -0.416920
vn -0.345092 0.652658 -0.674499
vn -0.136518 0.791337 -0.595943
vn -0.416267 0.741672 0.525970
vn -0.488474 0.783208 -0.384679
vn -0.661199 0.644414 -0.384117
vn -0.214858 0.591611 -0.777067
vn -0.155406 0.649105 -0.744656
vn -0.199180 0.511298 -0.836003
vn 0.049840 0.089673 0.994723
vn -0.750445 0.094587 0.654130
vn -0.868998 0.305324 -0.389384
vn -0.318952 0.240403 -0.916775
vn 0.044696 0.140528 0.989067
vn 0.022838 0.070929 0.997220
vn -0.863641 0.353929 0.358968
vn -0.739619 0.214159 0.638043
vn -0.686273 0.276123 0.672893
vn -0.943676 0.177031 -0.279527
vn -0.256197 0.179637 -0.949786
vn -0.883240 0.258827 -0.391019
vn -0.713912 0.010411 -0.700158
vn -0.256716 0.072964 -0.963729
vn 0.380782 -0.202453 -0.902229
vn -0.054543 0.069840 0.996066
vn -0.854028 0.316072 0.413201
vn -0.780795 0.057024 -0.622179
vn -0.487367 -0.021748 -0.872927
vn -0.699761 0.123865 0.703557
vn -0.715055 0.547236 -0.435005
vn -0.696564 0.427933 0.575910
vn -0.561289 -0.065380 -0.825033
vn -0.923682 0.346829 -0.162854
vn 0.733390 -0.011526 -0.679710
vn -0.033788 -0.999420 -0.004342
vn -0.726370 -0.624702 -0.286589
vn -0.927017 -0.149036 0.344133
vn -0.626743 -0.189199 0.755908
vn -0.349276 0.068585 0.934506
vn -0.998566 -0.047041 -0.025567
vn -0.924443 -0.167786 -0.342422
vn -0.822477 -0.178100 -0.540197
vn -0.365722 -0.838889 0.403128
vn -0.394119 0.177877 0.901682
vn -0.977951 -0.039573 0.205049
vn -0.999624 0.025703 0.009502
vn -0.032094 0.900062 0.434577
vn -0.637534 0.317177 0.702104
vn -0.806573 0.324450 0.494138
vn -0.816796 0.329149 0.473820
vn -0.658689 -0.201259 0.724999
vn -0.502096 -0.280820 0.817949
vn -0.127036 0.913992 0.385332
vn -0.193988 -0.031292 0.980505
vn -0.389324 -0.695183 0.604275
vn -0.699976 0.010792 0.714085
vn -0.366455 -0.858651 -0.358372
vn -0.972472 -0.009425 0.232830
vn -0.008492 -0.999412 -0.033223
vn -0.682440 0.129599 0.719361
vn -0.916013 0.067717 0.395392
vn -0.234691 -0.959416 -0.156334
vn -0.524298 0.021811 0.851255
vn -0.908679 0.073839 -0.410913
vn -0.818594 0.204913 -0.536577
vn -0.872330 -0.303279 0.383486
vn -0.351757 -0.438405 0.827084
vn -0.924985 -0.131552 0.356506
vn -0.260432 -0.315330 0.912547
vn -0.605915 0.709578 0.359675
vn -0.997460 0.069535 -0.015446
vn -0.900125 0.435597 -0.005476
vn -0.795749 0.602493 0.061527
vn -0.658012 0.302899 0.689400
vn -0.334580 0.397503 -0.854428
vn -0.219670 0.484293 -0.846880
vn -0.112595 0.981525 -0.154694
vn 0.037695 0.960196 -0.276771
vn -0.911707 0.043123 0.408572
vn -0.792202 0.232030 0.564427
vn -0.591950 -0.195911 -0.781802
vn -0.883210 0.300913 -0.359710
vn 0.983653 0.099026 0.150398
vn -0.974575 0.022758 0.222901
vn -0.623222 0.044596 -0.780773
vn 0.654872 -0.410174 -0.634744
vn -0.294098 -0.102016 0.950315
vn -0.216249 -0.487894 -0.845693
vn 0.493849 -0.647526 -0.580364
vn -0.875814 -0.464636 -0.130626
vn -0.928632 -0.338261 0.152388
vn -0.928534 -0.338676 0.152061
vn -0.550835 0.370396 0.747922
vn -0.232865 0.936434 -0.262423
vn 0.620286 0.485438 -0.616113
vn -0.132882 0.741161 -0.658044
vn 0.804513 0.237224 0.544504
vn 0.548281 -0.315166 -0.774634
vn 0.527689 -0.340682 -0.778126
vn -0.737487 0.097828 -0.668239
vn -0.698367 -0.147282 -0.700422
vn -0.967854 0.052204 0.246035
vn -0.975549 0.069999 0.208335
vn -0.191145 0.245230 0.950435
vn 0.877820 -0.425913 0.219157
vn 0.654029 -0.370694 -0.659418
vn 0.632031 -0.512807 -0.581004
vn -0.756311 -0.196866 -0.623889
vn -0.635473 0.003948 -0.772113
vn -0.957272 0.194964 0.213587
vn -0.955753 0.174196 0.237050
vn -0.308173 0.017784 0.951164
vn -0.203519 0.098822 0.974071
vn 0.700127 -0.306364 0.644952
vn -0.751056 0.022058 -0.659869
vn 0.533996 -0.326630 -0.779847
vn 0.842363 -0.188104 0.505017
vn -0.104879 -0.026429 0.994134
vn 0.883721 -0.115568 0.453522
vn -0.265828 -0.119643 0.956567
vn -0.656398 0.092567 -0.748714
vn 0.676493 -0.350614 -0.647632
vn 0.174399 -0.757679 -0.628894
vn 0.278304 -0.715004 -0.641339
vn -0.663811 -0.711011 0.231986
vn -0.783253 -0.499347 0.370362
vn -0.488179 0.311137 0.815399
vn -0.546985 0.272716 0.791475
vn 0.294403 0.750178 0.592081
vn 0.344061 0.768081 0.540067
vn 0.805422 -0.148896 -0.573695
vn 0.847720 0.163581 -0.504591
vn -0.229178 -0.215723 0.949179
vn 0.670211 0.428423 0.606029
vn 0.092642 0.994515 -0.048559
vn 0.254850 0.966494 -0.030675
vn 0.227399 0.973636 -0.017946
vn 0.467841 0.869551 0.158131
vn 0.549138 0.826004 0.127140
vn -0.508789 0.266780 0.818512
vn -0.654046 -0.114704 0.747708
vn 0.139826 -0.749514 -0.647053
vn -0.021696 -0.978092 0.207041
vn 0.268614 -0.796925 -0.541071
vn 0.168617 -0.838046 -0.518891
vn 0.579240 -0.732206 -0.358267
vn 0.321929 0.427986 -0.844506
vn -0.053556 0.991580 0.117902
vn 0.319209 0.856589 0.405415
vn 0.674162 -0.273992 -0.685882
vn 0.704442 -0.265081 -0.658403
vn -0.591730 0.091236 0.800957
vn -0.626004 0.099909 0.773394
vn 0.324325 0.846432 0.422335
vn -0.458225 0.026353 0.888445
vn -0.723769 -0.688952 0.038780
vn -0.627865 -0.778319 -0.002173
vn 0.692194 -0.265698 -0.671024
vn -0.632325 0.346107 0.693090
vn 0.760261 -0.355926 -0.543433
vn 0.026340 -0.602332 -0.797811
vn -0.865955 -0.496464 -0.060378
vn 0.485692 0.209056 0.848763
vn -0.663485 0.138547 0.735250
vn -0.760450 -0.621742 -0.187492
vn -0.202851 0.825789 0.526236
vn -0.211162 0.816199 0.537801
vn 0.722417 -0.283583 -0.630630
vn 0.297525 0.861813 0.410800
vn -0.534434 0.030062 0.844675
vn -0.617946 -0.768364 0.166614
vn 0.884444 0.082466 -0.459301
vn -0.549167 0.232492 -0.802723
vn -0.620131 0.175439 -0.764630
vn -0.844172 0.053285 0.533417
vn -0.797388 -0.038694 0.602225
vn 0.610835 -0.046957 0.790364
vn 0.549018 -0.114134 0.827981
vn -0.891970 -0.130804 0.432759
vn 0.563190 0.093207 0.821054
vn -0.529303 -0.272656 -0.803428
vn -0.736734 -0.278730 0.616062
vn -0.737188 -0.214900 0.640603
vn 0.426560 -0.235273 0.873323
vn -0.877878 0.123964 0.462561
vn 0.598765 -0.232017 0.766583
vn 0.853083 0.127734 -0.505898
vn -0.788521 0.065064 0.611557
vn 0.615358 0.024527 0.787866
vn -0.825018 -0.009532 0.565026
vn -0.748652 -0.074829 -0.658727
vn -0.526892 -0.264371 -0.807770
vn 0.131643 -0.250672 -0.959080
vn 0.788060 -0.303102 -0.535808
vn 0.658347 -0.037772 0.751766
vn 0.974439 -0.115371 -0.192763
vn -0.687609 0.176735 -0.704243
vn -0.796033 0.270304 0.541542
vn 0.645599 0.029836 0.763094
vn 0.794955 0.185405 -0.577643
vn -0.785722 0.000412 -0.618579
vn 0.891026 -0.089791 -0.444984
vn 0.873874 -0.102311 -0.475265
vn -0.541167 -0.123513 -0.831795
vn -0.794752 -0.158942 0.585754
vn -0.911952 -0.066908 0.404804
vn 0.688500 -0.097475 0.718656
vn 0.610984 -0.137383 0.779631
vn 0.795166 0.223445 -0.563722
vn 0.052471 -0.004079 -0.998614
vn 0.984508 -0.172723 -0.030171
vn -0.961549 -0.101618 -0.255142
vn -0.061163 -0.992725 0.103712
vn -0.055386 -0.993305 0.101376
vn -0.681432 0.702142 0.206514
vn -0.687817 0.243848 -0.683700
vn 0.683875 0.619789 0.384936
vn -0.628887 0.722948 0.286090
vn 0.864904 0.495113 0.082490
vn -0.050914 -0.990031 0.131325
vn -0.060526 -0.987766 0.143716
vn -0.567466 0.809991 0.147976
vn -0.042405 0.504365 0.862449
vn 0.767464 0.635576 -0.083916
vn -0.342020 -0.922807 -0.177342

f 1/1/1 2/2/1 3/3/1
f 4/4/2 5/5/2 6/6/2
f 4/4/3 6/7/3 7/8/3
f 5/9/4 8/10/4 9/11/4
f 10/12/5 11/13/5 9/14/5
f 6/6/6 11/15/6 7/8/6
f 6/6/7 12/16/7 11/13/7
f 12/17/8 5/5/8 9/14/8
f 6/6/9 5/5/9 12/17/9
f 11/13/10 12/18/10 9/19/10
f 13/20/11 14/21/11 15/22/11
f 14/21/12 13/20/12 16/23/12
f 16/24/13 13/20/13 17/25/13
f 15/22/14 14/21/14 18/26/14
f 14/21/15 19/27/15 18/26/15
f 18/26/16 20/28/16 21/29/16
f 18/26/17 19/27/17 20/28/17
f 20/28/18 3/30/18 21/29/18
f 5/9/19 22/31/19 23/32/19
f 24/33/20 25/34/20 26/35/20
f 27/36/21 25/34/21 9/37/21
f 28/38/22 27/39/22 29/40/22
f 30/41/23 25/34/23 24/33/23
f 25/34/24 30/41/24 10/42/24
f 30/41/25 24/33/25 31/43/25
f 24/33/26 26/44/26 32/45/26
f 33/46/27 34/47/27 5/9/27
f 4/4/28 22/31/28 5/9/28
f 26/35/29 25/34/29 27/39/29
f 33/46/30 35/48/30 34/47/30
f 32/45/31 26/35/31 28/38/31
f 23/32/32 33/46/32 5/9/32
f 26/35/33 27/39/33 28/38/33
f 28/38/34 29/40/34 36/49/34
f 35/50/35 37/51/35 29/40/35
f 28/38/36 38/52/36 32/45/36
f 36/49/37 38/52/37 28/38/37
f 36/49/38 37/53/38 39/54/38
f 39/55/39 37/56/39 40/57/39
f 41/58/40 42/59/40 39/55/40
f 39/55/41 40/57/41 41/58/41
f 36/49/42 29/40/42 37/51/42
f 37/56/43 35/48/43 33/46/43
f 37/56/44 33/46/44 40/57/44
f 40/57/45 33/46/45 43/60/45
f 40/57/46 43/60/46 41/58/46
f 33/46/47 23/32/47 43/60/47
f 44/61/48 45/62/48 30/63/48
f 15/64/49 46/65/49 45/62/49
f 46/66/50 47/67/50 10/68/50
f 47/67/51 7/69/51 11/70/51
f 45/62/52 44/61/52 17/71/52
f 44/61/53 30/63/53 31/72/53
f 13/73/54 15/64/54 45/62/54
f 46/65/55 10/74/55 45/62/55
f 45/62/56 10/74/56 30/63/56
f 47/67/57 11/70/57 10/68/57
f 47/67/58 48/75/58 7/69/58
f 46/66/59 15/76/59 47/67/59
f 18/77/60 47/67/60 15/76/60
f 47/67/61 18/77/61 48/75/61
f 18/77/62 21/78/62 48/75/62
f 13/73/63 45/62/63 17/71/63
f 49/79/64 35/50/64 29/40/64
f 8/80/65 27/81/65 9/82/65
f 34/47/66 50/83/66 5/84/66
f 27/36/67 49/79/67 29/40/67
f 35/48/68 51/85/68 52/86/68
f 35/50/69 49/79/69 51/87/69
f 52/86/70 50/83/70 34/47/70
f 35/48/71 52/86/71 34/47/71
f 5/84/72 50/83/72 8/10/72
f 53/88/73 27/81/73 8/80/73
f 53/88/74 49/79/74 27/36/74
f 54/89/75 55/90/75 56/91/75
f 57/92/76 55/90/76 58/93/76
f 59/94/77 60/95/77 55/90/77
f 61/96/78 54/89/78 56/91/78
f 39/97/79 61/96/79 36/98/79
f 36/98/80 61/96/80 56/91/80
f 36/98/81 56/91/81 38/99/81
f 62/100/82 63/101/82 64/102/82
f 65/103/83 64/102/83 54/89/83
f 61/96/84 65/103/84 54/89/84
f 66/104/85 67/105/85 62/100/85
f 55/90/86 60/95/86 68/106/86
f 69/107/87 68/106/87 60/95/87
f 69/107/88 70/108/88 68/106/88
f 58/109/89 55/90/89 68/106/89
f 68/106/90 71/110/90 58/111/90
f 62/100/91 67/105/91 63/101/91
f 64/102/92 63/101/92 69/107/92
f 70/108/93 71/110/93 68/106/93
f 58/111/94 71/110/94 72/112/94
f 56/91/95 57/92/95 38/113/95
f 55/90/96 57/114/96 56/91/96
f 73/115/97 74/116/97 38/113/97
f 58/109/98 72/112/98 73/115/98
f 57/117/99 58/111/99 73/115/99
f 57/92/100 73/115/100 38/113/100
f 73/115/101 72/112/101 74/116/101
f 39/97/102 75/118/102 61/96/102
f 75/118/103 39/97/103 76/119/103
f 64/102/104 59/94/104 54/89/104
f 64/102/105 60/95/105 59/94/105
f 54/89/106 59/94/106 55/90/106
f 64/102/107 69/107/107 60/95/107
f 65/103/108 66/104/108 62/100/108
f 65/103/109 61/96/109 75/118/109
f 75/118/110 76/119/110 65/103/110
f 66/104/111 65/103/111 76/119/111
f 62/100/112 64/102/112 65/103/112
f 39/97/113 42/120/113 76/119/113
f 77/121/114 76/119/114 42/120/114
f 67/105/115 76/119/115 77/121/115
f 66/104/116 76/119/116 67/105/116
f 9/82/117 25/34/117 10/42/117
f 51/122/118 49/123/118 78/124/118
f 79/125/119 50/126/119 52/127/119
f 52/127/120 51/122/120 79/125/120
f 80/128/121 81/129/121 53/130/121
f 51/122/122 78/124/122 79/125/122
f 82/131/123 50/126/123 79/125/123
f 50/126/124 82/131/124 8/132/124
f 53/133/125 78/124/125 49/123/125
f 83/134/126 84/135/126 85/136/126
f 84/135/127 83/134/127 86/137/127
f 86/137/128 87/138/128 84/135/128
f 88/139/129 84/135/129 87/138/129
f 87/138/130 89/140/130 88/139/130
f 90/141/131 88/139/131 89/140/131
f 91/142/132 92/143/132 90/141/132
f 90/141/133 89/140/133 91/142/133
f 85/136/134 92/144/134 91/145/134
f 91/145/135 83/134/135 85/136/135
f 80/128/136 93/146/136 83/134/136
f 94/147/137 83/134/137 93/146/137
f 93/146/138 87/138/138 94/147/138
f 87/138/139 93/146/139 95/148/139
f 95/148/140 96/149/140 87/138/140
f 89/140/141 87/138/141 96/149/141
f 97/150/142 91/142/142 89/140/142
f 97/151/143 81/129/143 80/128/143
f 8/132/144 82/131/144 80/128/144
f 93/146/145 80/128/145 98/152/145
f 98/152/146 95/148/146 93/146/146
f 95/148/147 82/131/147 79/125/147
f 79/125/148 78/124/148 95/148/148
f 96/149/149 95/148/149 78/124/149
f 78/124/150 53/133/150 81/153/150
f 81/153/151 96/149/151 78/124/151
f 80/128/152 53/130/152 8/154/152
f 94/147/153 87/138/153 86/137/153
f 86/137/154 83/134/154 94/147/154
f 97/151/155 83/134/155 91/145/155
f 89/140/156 96/149/156 97/150/156
f 80/128/157 83/134/157 97/151/157
f 81/153/158 97/150/158 96/149/158
f 82/131/159 95/148/159 98/152/159
f 98/152/160 80/128/160 82/131/160
f 85/136/161 99/155/161 100/156/161
f 99/155/162 85/136/162 84/135/162
f 84/135/163 101/157/163 99/155/163
f 101/157/164 84/135/164 88/139/164
f 88/139/165 90/141/165 101/157/165
f 102/158/166 101/157/166 90/141/166
f 90/141/167 103/159/167 102/158/167
f 103/159/168 90/141/168 92/143/168
f 92/144/169 85/136/169 103/160/169
f 100/156/170 103/160/170 85/136/170
f 104/161/171 105/162/171 106/163/171
f 107/164/172 106/163/172 108/165/172
f 109/166/173 110/167/173 103/168/173
f 109/166/174 111/169/174 104/161/174
f 104/161/175 110/167/175 109/166/175
f 104/161/176 111/169/176 112/170/176
f 113/171/177 112/170/177 111/169/177
f 106/163/178 110/167/178 104/161/178
f 104/161/179 112/170/179 105/162/179
f 105/172/180 113/173/180 111/174/180
f 113/173/181 105/172/181 112/175/181
f 105/172/182 111/174/182 109/176/182
f 109/176/183 106/177/183 105/172/183
f 109/176/184 100/178/184 106/177/184
f 103/179/185 100/178/185 109/176/185
f 102/180/186 103/168/186 110/167/186
f 106/163/187 114/181/187 108/165/187
f 115/182/188 116/183/188 106/177/188
f 116/184/189 117/185/189 118/186/189
f 108/165/190 114/181/190 119/187/190
f 119/187/191 120/188/191 108/165/191
f 118/189/192 121/190/192 114/191/192
f 114/191/193 121/190/193 117/192/193
f 116/193/194 115/194/194 119/187/194
f 120/188/195 119/187/195 115/194/195
f 121/195/196 118/186/196 117/185/196
f 108/165/197 101/196/197 102/180/197
f 115/182/198 106/177/198 100/178/198
f 100/178/199 99/197/199 115/182/199
f 120/188/200 99/198/200 101/196/200
f 106/163/201 107/164/201 110/167/201
f 108/165/202 120/188/202 101/196/202
f 120/188/203 115/194/203 99/198/203
f 107/164/204 102/180/204 110/167/204
f 102/180/205 107/164/205 108/165/205
f 118/199/206 106/177/206 116/183/206
f 114/181/207 106/163/207 118/200/207
f 114/191/208 117/192/208 119/201/208
f 117/192/209 116/202/209 119/201/209
f 122/203/210 123/204/210 124/205/210
f 125/206/211 126/207/211 123/208/211
f 125/206/212 123/208/212 127/209/212
f 125/210/213 128/211/213 126/212/213
f 128/211/214 129/213/214 126/212/214
f 128/214/215 124/215/215 129/216/215
f 122/217/216 124/215/216 128/214/216
f 130/218/217 128/211/217 125/219/217
f 131/220/218 122/221/218 130/222/218
f 132/223/219 125/224/219 127/225/219
f 132/226/220 131/227/220 125/219/220
f 133/228/221 131/227/221 132/226/221
f 133/229/222 122/221/222 131/220/222
f 130/218/223 125/219/223 131/227/223
f 128/214/224 130/222/224 122/221/224
f 127/209/225 123/204/225 122/203/225
f 16/230/226 133/228/226 14/231/226
f 16/232/227 3/3/227 133/229/227
f 14/231/228 133/228/228 132/226/228
f 14/233/229 132/223/229 19/234/229
f 132/223/230 127/225/230 19/234/230
f 20/235/231 19/234/231 127/225/231
f 20/235/232 127/225/232 122/236/232
f 3/3/233 122/221/233 133/229/233
f 3/237/234 20/235/234 122/236/234
f 134/238/235 135/239/235 136/240/235
f 137/241/236 135/242/236 134/243/236
f 138/244/237 139/245/237 137/246/237
f 138/247/238 136/248/238 139/249/238
f 134/238/239 136/240/239 123/208/239
f 138/247/240 123/250/240 136/248/240
f 123/250/241 138/247/241 124/251/241
f 134/238/242 123/208/242 126/252/242
f 129/253/243 134/243/243 126/254/243
f 137/241/244 134/243/244 129/253/244
f 138/244/245 137/246/245 129/255/245
f 138/244/246 129/255/246 124/256/246
f 136/257/247 140/258/247 139/259/247
f 136/257/248 141/260/248 140/258/248
f 142/261/249 139/259/249 140/258/249
f 135/262/250 143/263/250 141/260/250
f 141/264/251 143/265/251 142/266/251
f 142/266/252 140/267/252 141/264/252
f 137/268/253 143/263/253 135/262/253
f 135/262/254 141/260/254 136/257/254
f 139/259/255 142/261/255 137/268/255
f 137/268/256 144/269/256 143/263/256
f 137/268/257 142/261/257 144/269/257
f 143/265/258 145/270/258 146/271/258
f 146/271/259 142/266/259 143/265/259
f 143/263/260 144/269/260 145/272/260
f 144/269/261 146/273/261 145/272/261
f 146/273/262 144/269/262 142/261/262
f 3/274/263 16/275/263 17/276/263
f 147/5/264 4/4/264 148/6/264
f 148/7/265 4/4/265 7/8/265
f 149/10/266 147/9/266 150/11/266
f 151/13/267 152/12/267 150/14/267
f 151/15/268 148/6/268 7/8/268
f 153/16/269 148/6/269 151/13/269
f 147/5/270 153/17/270 150/14/270
f 147/5/271 148/6/271 153/17/271
f 153/18/272 151/13/272 150/19/272
f 154/21/273 155/20/273 156/22/273
f 155/20/274 154/21/274 157/23/274
f 155/20/275 157/24/275 17/25/275
f 154/21/276 156/22/276 158/26/276
f 159/27/277 154/21/277 158/26/277
f 160/28/278 158/26/278 21/29/278
f 159/27/279 158/26/279 160/28/279
f 3/30/280 160/28/280 21/29/280
f 22/31/281 147/9/281 23/32/281
f 161/34/282 24/33/282 162/35/282
f 161/34/283 163/36/283 150/37/283
f 163/39/284 164/38/284 165/40/284
f 161/34/285 166/41/285 24/33/285
f 166/41/286 161/34/286 152/42/286
f 24/33/287 166/41/287 31/43/287
f 162/44/288 24/33/288 32/45/288
f 167/47/289 168/46/289 147/9/289
f 22/31/290 4/4/290 147/9/290
f 161/34/291 162/35/291 163/39/291
f 169/48/292 168/46/292 167/47/292
f 162/35/293 32/45/293 164/38/293
f 168/46/294 23/32/294 147/9/294
f 163/39/295 162/35/295 164/38/295
f 165/40/296 164/38/296 170/49/296
f 171/51/297 169/50/297 165/40/297
f 38/52/298 164/38/298 32/45/298
f 38/52/299 170/49/299 164/38/299
f 171/53/300 170/49/300 172/54/300
f 171/56/301 172/55/301 173/57/301
f 42/59/302 41/58/302 172/55/302
f 173/57/303 172/55/303 41/58/303
f 165/40/304 170/49/304 171/51/304
f 169/48/305 171/56/305 168/46/305
f 168/46/306 171/56/306 173/57/306
f 168/46/307 173/57/307 43/60/307
f 43/60/308 173/57/308 41/58/308
f 23/32/309 168/46/309 43/60/309
f 174/62/310 44/61/310 166/63/310
f 175/65/311 156/64/311 174/62/311
f 176/67/312 175/66/312 152/68/312
f 7/69/313 176/67/313 151/70/313
f 44/61/314 174/62/314 17/71/314
f 166/63/315 44/61/315 31/72/315
f 156/64/316 155/73/316 174/62/316
f 152/74/317 175/65/317 174/62/317
f 152/74/318 174/62/318 166/63/318
f 151/70/319 176/67/319 152/68/319
f 48/75/320 176/67/320 7/69/320
f 156/76/321 175/66/321 176/67/321
f 176/67/322 158/77/322 156/76/322
f 158/77/323 176/67/323 48/75/323
f 21/78/324 158/77/324 48/75/324
f 174/62/325 155/73/325 17/71/325
f 169/50/326 177/79/326 165/40/326
f 163/81/327 149/80/327 150/82/327
f 178/83/328 167/47/328 147/84/328
f 177/79/329 163/36/329 165/40/329
f 179/85/330 169/48/330 180/86/330
f 177/79/331 169/50/331 179/87/331
f 178/83/332 180/86/332 167/47/332
f 180/86/333 169/48/333 167/47/333
f 178/83/334 147/84/334 149/10/334
f 163/81/335 181/88/335 149/80/335
f 177/79/336 181/88/336 163/36/336
f 182/90/337 183/89/337 184/91/337
f 182/90/338 185/92/338 186/93/338
f 187/95/339 188/94/339 182/90/339
f 183/89/340 189/96/340 184/91/340
f 189/96/341 172/97/341 170/98/341
f 189/96/342 170/98/342 184/91/342
f 184/91/343 170/98/343 38/99/343
f 63/101/344 190/100/344 191/102/344
f 191/102/345 192/103/345 183/89/345
f 192/103/346 189/96/346 183/89/346
f 67/105/347 193/104/347 190/100/347
f 187/95/348 182/90/348 194/106/348
f 194/106/349 69/107/349 187/95/349
f 70/108/350 69/107/350 194/106/350
f 182/90/351 186/109/351 194/106/351
f 71/110/352 194/106/352 186/111/352
f 67/105/353 190/100/353 63/101/353
f 63/101/354 191/102/354 69/107/354
f 71/110/355 70/108/355 194/106/355
f 71/110/356 186/111/356 72/112/356
f 185/92/357 184/91/357 38/113/357
f 185/114/358 182/90/358 184/91/358
f 74/116/359 195/115/359 38/113/359
f 72/112/360 186/109/360 195/115/360
f 186/111/361 185/117/361 195/115/361
f 195/115/362 185/92/362 38/113/362
f 72/112/363 195/115/363 74/116/363
f 196/118/364 172/97/364 189/96/364
f 172/97/365 196/118/365 197/119/365
f 188/94/366 191/102/366 183/89/366
f 187/95/367 191/102/367 188/94/367
f 188/94/368 183/89/368 182/90/368
f 69/107/369 191/102/369 187/95/369
f 193/104/370 192/103/370 190/100/370
f 189/96/371 192/103/371 196/118/371
f 197/119/372 196/118/372 192/103/372
f 192/103/373 193/104/373 197/119/373
f 191/102/374 190/100/374 192/103/374
f 42/120/375 172/97/375 197/119/375
f 197/119/376 77/121/376 42/120/376
f 197/119/377 67/105/377 77/121/377
f 197/119/378 193/104/378 67/105/378
f 161/34/379 150/82/379 152/42/379
f 177/123/380 179/122/380 198/124/380
f 178/126/381 199/125/381 180/127/381
f 179/122/382 180/127/382 199/125/382
f 200/129/383 201/128/383 181/130/383
f 198/124/384 179/122/384 199/125/384
f 178/126/385 202/131/385 199/125/385
f 202/131/386 178/126/386 149/132/386
f 198/124/387 181/133/387 177/123/387
f 203/135/388 204/134/388 205/136/388
f 204/134/389 203/135/389 206/137/389
f 207/138/390 206/137/390 203/135/390
f 203/135/391 208/139/391 207/138/391
f 209/140/392 207/138/392 208/139/392
f 208/139/393 210/141/393 209/140/393
f 211/143/394 212/142/394 210/141/394
f 209/140/395 210/141/395 212/142/395
f 211/144/396 205/136/396 212/145/396
f 204/134/397 212/145/397 205/136/397
f 213/146/398 201/128/398 204/134/398
f 204/134/399 214/147/399 213/146/399
f 207/138/400 213/146/400 214/147/400
f 213/146/401 207/138/401 215/148/401
f 216/149/402 215/148/402 207/138/402
f 207/138/403 209/140/403 216/149/403
f 212/142/404 217/150/404 209/140/404
f 200/129/405 217/151/405 201/128/405
f 202/131/406 149/132/406 201/128/406
f 201/128/407 213/146/407 218/152/407
f 215/148/408 218/152/408 213/146/408
f 202/131/409 215/148/409 199/125/409
f 198/124/410 199/125/410 215/148/410
f 215/148/411 216/149/411 198/124/411
f 181/133/412 198/124/412 200/153/412
f 216/149/413 200/153/413 198/124/413
f 181/130/414 201/128/414 149/154/414
f 207/138/415 214/147/415 206/137/415
f 204/134/416 206/137/416 214/147/416
f 204/134/417 217/151/417 212/145/417
f 216/149/418 209/140/418 217/150/418
f 204/134/419 201/128/419 217/151/419
f 217/150/420 200/153/420 216/149/420
f 215/148/421 202/131/421 218/152/421
f 201/128/422 218/152/422 202/131/422
f 219/155/423 205/136/423 220/156/423
f 205/136/424 219/155/424 203/135/424
f 221/157/425 203/135/425 219/155/425
f 203/135/426 221/157/426 208/139/426
f 210/141/427 208/139/427 221/157/427
f 221/157/428 222/158/428 210/141/428
f 223/159/429 210/141/429 222/158/429
f 210/141/430 223/159/430 211/143/430
f 205/136/431 211/144/431 223/160/431
f 223/160/432 220/156/432 205/136/432
f 224/162/433 225/161/433 226/163/433
f 226/163/434 227/164/434 228/165/434
f 229/167/435 230/166/435 223/168/435
f 231/169/436 230/166/436 225/161/436
f 229/167/437 225/161/437 230/166/437
f 231/169/438 225/161/438 232/170/438
f 232/170/439 233/171/439 231/169/439
f 229/167/440 226/163/440 225/161/440
f 232/170/441 225/161/441 224/162/441
f 233/173/442 224/172/442 231/174/442
f 224/172/443 233/173/443 232/175/443
f 231/174/444 224/172/444 230/176/444
f 226/177/445 230/176/445 224/172/445
f 220/178/446 230/176/446 226/177/446
f 220/178/447 223/179/447 230/176/447
f 223/168/448 222/180/448 229/167/448
f 234/181/449 226/163/449 228/165/449
f 235/183/450 236/182/450 226/177/450
f 237/185/451 235/184/451 238/186/451
f 234/181/452 228/165/452 239/187/452
f 240/188/453 239/187/453 228/165/453
f 241/190/454 238/189/454 234/191/454
f 241/190/455 234/191/455 237/192/455
f 236/194/456 235/193/456 239/187/456
f 239/187/457 240/188/457 236/194/457
f 238/186/458 241/195/458 237/185/458
f 221/196/459 228/165/459 222/180/459
f 226/177/460 236/182/460 220/178/460
f 219/197/461 220/178/461 236/182/461
f 219/198/462 240/188/462 221/196/462
f 227/164/463 226/163/463 229/167/463
f 240/188/464 228/165/464 221/196/464
f 236/194/465 240/188/465 219/198/465
f 222/180/466 227/164/466 229/167/466
f 227/164/467 222/180/467 228/165/467
f 226/177/468 238/199/468 235/183/468
f 226/163/469 234/181/469 238/200/469
f 237/192/470 234/191/470 239/201/470
f 235/202/471 237/192/471 239/201/471
f 242/204/472 243/203/472 244/205/472
f 245/207/473 246/206/473 242/208/473
f 242/208/474 246/206/474 247/209/474
f 248/211/475 246/210/475 245/212/475
f 249/213/476 248/211/476 245/212/476
f 244/215/477 248/214/477 249/216/477
f 244/215/478 243/217/478 248/214/478
f 248/211/479 250/218/479 246/219/479
f 243/221/480 251/220/480 250/222/480
f 246/224/481 252/223/481 247/225/481
f 251/227/482 252/226/482 246/219/482
f 251/227/483 253/228/483 252/226/483
f 243/221/484 253/229/484 251/220/484
f 246/219/485 250/218/485 251/227/485
f 250/222/486 248/214/486 243/221/486
f 242/204/487 247/209/487 243/203/487
f 253/228/488 157/230/488 154/231/488
f 3/3/489 157/232/489 253/229/489
f 253/228/490 154/231/490 252/226/490
f 252/223/491 154/233/491 159/234/491
f 247/225/492 252/223/492 159/234/492
f 159/234/493 160/235/493 247/225/493
f 247/225/494 160/235/494 243/236/494
f 243/221/495 3/3/495 253/229/495
f 160/235/496 3/237/496 243/236/496
f 254/239/497 255/238/497 256/240/497
f 254/242/498 257/241/498 255/243/498
f 258/245/499 259/244/499 257/246/499
f 256/248/500 259/247/500 258/249/500
f 256/240/501 255/238/501 242/208/501
f 242/250/502 259/247/502 256/248/502
f 259/247/503 242/250/503 244/251/503
f 242/208/504 255/238/504 245/252/504
f 255/243/505 249/253/505 245/254/505
f 255/243/506 257/241/506 249/253/506
f 257/246/507 259/244/507 249/255/507
f 249/255/508 259/244/508 244/256/508
f 260/258/509 256/257/509 258/259/509
f 261/260/510 256/257/510 260/258/510
f 258/259/511 262/261/511 260/258/511
f 263/263/512 254/262/512 261/260/512
f 263/265/513 261/264/513 262/266/513
f 260/267/514 262/266/514 261/264/514
f 263/263/515 257/268/515 254/262/515
f 261/260/516 254/262/516 256/257/516
f 262/261/517 258/259/517 257/268/517
f 264/269/518 257/268/518 263/263/518
f 262/261/519 257/268/519 264/269/519
f 265/270/520 263/265/520 266/271/520
f 262/266/521 266/271/521 263/265/521
f 264/269/522 263/263/522 265/272/522
f 266/273/523 264/269/523 265/272/523
f 264/269/524 266/273/524 262/261/524
f 157/275/525 3/274/525 17/276/525

o 
usemtl axe.001
s off

v 19.383289 83.869659 9.471910
v 16.632980 77.241776 10.930630
v 23.772881 82.910950 16.743071
v 21.700100 80.353348 16.158169
v 24.601910 81.857452 18.411760
v 22.529129 79.299850 17.826870
v 26.285721 75.098404 23.365290
v 20.952799 71.752380 19.625660
v 23.424910 88.856598 10.612370
v 30.327339 80.085342 24.505730
v 28.757830 92.202614 14.351990
v 25.845671 85.468559 17.327971
v 26.674700 84.415062 18.996651
v 33.077660 86.713211 23.047029
v 23.035929 79.539940 14.980989
v 25.108719 82.097549 15.565890
v 23.864971 78.486450 16.649681
v 25.937750 81.044044 17.234570
v 27.181490 84.655144 16.150780
v 28.010530 83.601669 17.819469
v 1.016190 54.831501 10.321640
v 1.845230 53.778008 11.990330
v 3.181060 52.964600 10.813140
v 2.352030 54.018093 9.144450
v 31.293049 89.921005 18.805410
v -19.720760 27.167770 5.904880
v -18.438459 26.454960 4.643690
v -19.213961 27.407860 3.059010
v -20.549791 28.221260 4.236190

vt 0.033358 0.643728
vt 0.190411 0.923560
vt 0.402692 0.503812
vt 0.402692 0.647326
vt 0.408249 0.287497
vt 0.408249 0.367848
vt 0.492649 0.287497
vt 0.492649 0.367848
vt 0.403043 0.503812
vt 0.403044 0.647326
vt 0.033710 0.643728
vt 0.190763 0.923560
vt 0.033358 0.363896
vt 0.033710 0.363896
vt 0.190411 0.084064
vt 0.402692 0.360297
vt 0.408249 0.207147
vt 0.492649 0.207147
vt 0.403043 0.360297
vt 0.190763 0.084064
vt 0.408248 1.036942
vt 0.492649 1.036942
vt 0.483600 0.371280
vt 0.402049 0.371280
vt 0.402049 1.040375
vt 0.483600 1.040375
vt 0.450449 0.037941
vt 0.483600 0.210579
vt 0.402049 0.210579
vt 0.442825 0.041374
vt 0.000000 1.000000

vn -0.749926 0.423108 0.508517
vn -0.749071 0.510522 0.422208
vn -0.682414 0.415528 0.601371
vn -0.629182 0.351364 0.693306
vn -0.666996 0.301670 0.681257
vn -0.725136 0.473296 0.500168
vn -0.684469 0.521253 0.509704
vn -0.584664 0.301602 0.753130
vn -0.605871 0.402451 0.686261
vn 0.584665 -0.301606 -0.753127
vn 0.605871 -0.402450 -0.686261
vn 0.682413 -0.415530 -0.601371
vn 0.684469 -0.521253 -0.509704
vn 0.725135 -0.473297 -0.500169
vn 0.629182 -0.351363 -0.693307
vn 0.666996 -0.301670 -0.681257
vn 0.749926 -0.423109 -0.508517
vn 0.749071 -0.510518 -0.422213
vn -0.038313 -0.841907 0.538261
vn -0.672840 -0.035584 -0.738932
vn 0.038313 0.841909 -0.538258
vn 0.672844 0.035581 0.738928
vn -0.387309 0.492173 -0.779588
vn 0.387311 -0.492174 0.779586
vn -0.590564 0.516887 0.619727
vn 0.761267 -0.306258 -0.571558
vn 0.476068 -0.371640 0.797022
vn -0.289755 0.601530 -0.744448
vn 0.409680 -0.507882 0.757772
vn 0.684742 -0.419139 -0.596197
vn -0.614240 -0.771973 -0.163606
vn -0.609572 -0.771089 -0.183967

f 267/277/526 268/278/526 269/279/526
f 270/280/527 269/279/527 268/278/527
f 269/281/528 270/282/528 271/283/528
f 272/284/528 271/283/528 270/282/528
f 271/285/529 272/286/529 273/287/529
f 274/288/530 273/287/530 272/286/530
f 275/289/531 267/277/531 269/279/531
f 273/287/529 276/290/529 271/285/529
f 277/291/532 275/289/532 278/292/532
f 269/279/531 278/292/531 275/289/531
f 278/293/528 269/281/528 279/294/528
f 271/283/528 279/294/528 269/281/528
f 279/295/533 271/285/533 280/296/533
f 276/290/534 280/296/534 271/285/534
f 281/280/535 268/278/535 282/279/535
f 267/277/536 282/279/536 268/278/536
f 283/284/537 281/282/537 284/283/537
f 282/281/537 284/283/537 281/282/537
f 274/288/538 283/286/538 273/287/538
f 284/285/539 273/287/539 283/286/539
f 282/279/540 267/277/540 275/289/540
f 273/287/539 284/285/539 276/290/539
f 282/279/540 275/289/540 285/292/540
f 277/291/541 285/292/541 275/289/541
f 284/283/537 282/281/537 286/294/537
f 285/293/537 286/294/537 282/281/537
f 276/290/542 284/285/542 280/296/542
f 286/295/543 280/296/543 284/285/543
f 270/280/544 268/278/544 281/280/544
f 283/286/545 274/288/545 272/286/545
f 279/295/546 280/296/546 286/295/546
f 285/292/547 277/291/547 278/292/547
f 272/284/528 270/282/528 287/297/528
f 287/297/528 288/298/528 272/284/528
f 281/282/537 283/284/537 289/298/537
f 289/298/537 290/297/537 281/282/537
f 270/299/548 281/300/548 290/301/548
f 290/301/548 287/302/548 270/299/548
f 283/300/549 272/299/549 288/302/549
f 288/302/549 289/301/549 283/300/549
f 278/293/550 279/294/550 291/303/550
f 286/294/551 285/293/551 291/303/551
f 279/304/552 286/305/552 291/306/552
f 285/305/553 278/304/553 291/306/553
f 289/298/554 288/297/554 292/298/554 293/307/554
f 287/297/548 290/298/548 294/297/548 295/307/548
f 290/297/555 289/298/555 293/297/555 294/307/555
f 288/298/528 287/297/528 295/298/528 292/307/528
f 294/297/556 293/298/556 295/297/556
f 292/298/557 295/297/557 293/298/557

