mtllib anim_barb_attack_barbonly_000028.mtl

o fat
usemtl fat.001
s off

v -0.137820 31.089161 -12.111430
v 1.860240 36.144421 6.136090
v 0.318910 30.707209 -7.369410
v 0.410170 52.633591 -17.237370
v 9.299520 57.382477 -18.250010
v 2.812830 48.919941 -15.853110
v -0.362600 45.004879 -13.392281
v 7.160780 57.956711 -13.446510
v 7.702180 51.093449 -10.627980
v 6.919220 45.557106 -9.352210
v 4.142630 44.875961 -13.388010
v 6.403020 49.429489 -15.239520
v 9.003700 30.074638 -4.028260
v 9.352550 32.243912 -10.532399
v 10.561490 31.751631 -11.025450
v 6.412320 30.919071 -4.146030
v 3.993900 29.754450 -1.780620
v 4.408690 30.348301 -15.651300
v 3.744750 32.051029 -14.579450
v 0.502500 31.167509 -13.334970
v -0.321390 27.496201 -11.766271
v 0.201120 58.243080 -17.607550
v 0.170300 60.036541 -18.102190
v 0.128960 53.761639 -3.774200
v 5.379790 53.390297 -6.263690
v 6.255160 57.673813 -6.346670
v 8.980730 56.820221 -8.639840
v 6.123870 60.381081 -7.073650
v 10.904501 60.370022 -13.531260
v 4.497020 45.637341 -4.804660
v 1.102870 46.175251 -3.211030
v 0.791740 60.699409 -5.341730
v 4.825240 62.480259 -17.320950
v 11.037660 59.217968 -15.642270
v 11.446630 60.751221 -15.178890
v 2.905110 64.566452 -8.971270
v 5.512380 64.616478 -13.599620
v 0.171630 63.934280 -8.085831
v 2.663080 69.245529 -13.056411
v 3.279240 66.173271 -15.705759
v 0.247260 66.116798 -16.556070
v 0.175950 69.592651 -14.418440
v 0.334850 63.686947 -17.824190
v 0.489180 41.272377 -2.996450
v 5.364230 41.034851 -3.826440
v 8.418850 40.683113 -9.003910
v 4.990360 40.083679 -14.182169
v -0.188040 39.677860 -14.249530
v 10.337110 61.715607 -16.181520
v 9.590400 58.468071 -12.096330
v 12.202990 61.551918 -14.799470
v 12.097301 60.183521 -14.104090
v 6.868590 62.138348 -16.162130
v 2.581520 69.977257 -7.588520
v 1.180830 68.906982 -5.548910
v 2.894370 65.408371 -7.990600
v 1.639600 64.853905 -5.714530
v 0.698310 67.562981 -5.284770
v 1.643460 70.776817 -6.200530
v -0.144470 70.712364 -5.911810
v 3.177320 70.645592 -10.533859
v 0.535690 74.629478 -6.724640
v -0.763210 74.644119 -6.450860
v 1.701340 72.158211 -5.889320
v 2.256590 73.730667 -7.314281
v 1.223440 75.304970 -9.670220
v -0.414440 75.254929 -9.858800
v 0.269850 69.035072 -5.040700
v -0.765430 71.504570 -5.806290
v -0.900690 69.807953 -4.194550
v -0.835060 69.093620 -4.671170
v -0.843340 67.558189 -4.288070
v 0.535200 64.771965 -4.063650
v -0.861440 64.860931 -3.581640
v 3.025130 72.925995 -11.050139
v 2.543030 74.002769 -11.885261
v -0.045170 73.971397 -13.083591
v 10.999720 64.319901 -15.667800
v 12.430969 62.994022 -12.477520
v 5.263460 65.932205 -9.980610
v 6.076490 67.531593 -14.228801
v 9.197910 61.811211 -9.017190
v 5.745060 70.617409 -8.651050
v 5.207020 75.708397 -9.173980
v 4.400150 73.412491 -10.827921
v 8.714849 71.638908 -7.004650
v 10.253901 71.202156 -9.609739
v 8.131660 76.227325 -9.960529
v 9.221550 72.104424 -11.322070
v 8.836580 75.226387 -12.273680
v 6.517880 72.976318 -11.084170
v 6.971410 73.596695 -13.362440
v 8.985210 68.770309 -7.837030
v 8.970420 70.046684 -7.402980
v 11.928120 66.436523 -11.298961
v 10.370399 67.525856 -14.258209
v 6.558550 71.316010 -11.928210
v 9.496449 65.896400 -7.807570
v 2.499740 80.030258 -14.249740
v 2.246600 78.747742 -15.622560
v 3.914870 80.643166 -14.486199
v 4.754860 79.815941 -15.963699
v 3.971210 78.641029 -16.831430
v 2.941800 80.638084 -21.533119
v 2.179820 80.900162 -21.085999
v 2.599870 80.968231 -19.843760
v 3.534840 80.926849 -19.602480
v 3.402250 82.603867 -19.388741
v 2.788740 78.888969 -19.787729
v 3.458100 80.064659 -20.135839
v 2.183220 79.856049 -21.686550
v 2.171090 81.388367 -22.537971
v 1.608920 80.760254 -22.538950
v 2.211750 83.818054 -20.837582
v -0.036970 82.934494 -15.945350
v -0.832690 84.322998 -17.096519
v -1.605000 86.184265 -19.215050
v 1.800570 82.607918 -21.017580
v 0.102600 84.806862 -17.157230
v 1.103840 83.676086 -15.921289
v 0.474920 84.933769 -22.747940
v 3.921390 18.943430 -10.816060
v 7.434170 19.195070 -19.151110
v 5.166020 13.529330 -15.754260
v 9.747220 19.864759 -11.530029
v 12.371799 15.984150 -16.422600
v 6.138370 20.338308 -14.579450
v 8.111270 16.089371 -9.853500
v 9.179430 11.943521 -13.197160
v 7.888740 18.044889 -8.248390
v 7.954120 20.816319 -8.321930
v 10.529180 23.717470 -12.362850
v 7.679580 25.093151 -5.622750
v 11.956181 10.618980 -25.899220
v 13.254971 9.609560 -28.815361
v 10.039890 11.130691 -29.739910
v 11.151939 8.287889 -25.954060
v 8.469521 10.060120 -26.372440
v 8.442610 8.135720 -28.742950
v 9.485849 7.249830 -33.335442
v 12.465780 7.934200 -33.403610
v 10.414220 2.398200 -26.272610
v 16.307991 4.294900 -26.434578
v 13.266860 3.057870 -22.312860
v 16.005041 1.882630 -23.044281
v 12.284289 0.325120 -22.412939
v -9.786130 56.683811 -14.776150
v -1.892230 48.920700 -16.016769
v -6.093440 58.374180 -9.133471
v -7.318430 51.035328 -10.500290
v -4.956670 45.129326 -11.760650
v -6.374790 45.662598 -7.079470
v -5.753590 49.594269 -15.413931
v -9.006149 32.165112 -8.959180
v -7.268250 30.617321 -2.695390
v -10.268280 31.541618 -8.923320
v -4.827390 34.463242 -4.195740
v -5.057970 27.977692 -12.673860
v -4.554070 30.881090 -13.343720
v -1.041270 29.715210 -12.331730
v -4.829290 53.412354 -5.920690
v -5.086390 57.813210 -5.444020
v -10.037210 57.810612 -7.664140
v -4.769800 60.558792 -6.008780
v -9.987170 62.189240 -11.459499
v -2.454760 46.068092 -3.108890
v -11.623560 58.252979 -14.489811
v -4.955480 62.523788 -16.970530
v -11.462831 61.523991 -13.172120
v -2.595220 64.551956 -8.940130
v -5.908800 64.354523 -13.650780
v -2.505460 69.144127 -13.537701
v -2.831450 66.120903 -15.938049
v -3.837170 40.630589 -2.972030
v -7.887930 40.251343 -8.312961
v -5.416080 38.912788 -14.110970
v -11.081541 63.019592 -11.854449
v -10.105700 55.368160 -8.991050
v -13.058100 61.144070 -12.145580
v -12.838040 57.730980 -10.721420
v -9.485970 60.237213 -9.263100
v -2.612380 68.827011 -5.951440
v -3.597380 69.847000 -8.244230
v -3.200620 65.351776 -8.336010
v -2.856860 64.759094 -6.191700
v -2.140430 67.503128 -5.586010
v -1.316860 70.687645 -6.036210
v -3.005530 70.678802 -6.693890
v -3.589360 70.502930 -11.251950
v -1.974020 74.576561 -6.990980
v -3.184930 72.055214 -6.407850
v -3.493930 73.609436 -7.924540
v -2.056070 75.235840 -10.018220
v -1.834430 68.990715 -5.264010
v -2.120930 64.715973 -4.345530
v -3.427430 72.789963 -11.734869
v -2.826160 73.889572 -12.455061
v -12.336450 63.074039 -9.516600
v -13.829980 59.658844 -8.951600
v -8.749150 64.244873 -4.879780
v -7.937860 60.019180 -3.265270
v -10.863520 56.380383 -6.815660
v -8.296460 64.155106 3.449890
v -9.786910 61.931019 1.028840
v -9.016439 62.968361 -1.297170
v -13.063080 60.849152 1.899200
v -14.143459 62.445824 -0.501450
v -10.198120 66.334656 3.148430
v -13.324719 64.482147 -0.523860
v -10.835280 67.514679 0.426580
v -9.559080 66.477020 -1.909730
v -11.066350 65.145256 1.045640
v -12.401649 59.689377 -0.806040
v -12.742820 60.172180 0.351470
v -14.345760 60.716690 -5.472600
v -12.864500 63.869354 -6.054250
v -10.277781 64.142807 -1.512580
v -12.094220 57.856842 -2.955890
v -2.943560 69.161240 3.096030
v -2.946790 69.196617 1.167680
v -4.279560 70.349510 3.302900
v -4.830030 71.144264 1.625550
v -4.180720 70.625580 0.234000
v -0.466800 74.100044 -0.984270
v -1.229590 74.542091 -1.560040
v -1.101680 73.435860 -0.107780
v -2.299030 73.709038 -0.032620
v -1.801810 74.596039 1.328520
v -2.287570 73.471710 -1.021280
v -1.919060 72.177612 -1.573430
v -0.696000 73.830193 -2.207790
v -0.016290 75.364578 -1.692680
v 0.333110 74.734100 -2.129570
v 0.054030 75.834183 1.234950
v 1.427910 72.860802 4.500680
v 0.185120 71.431541 4.247780
v 3.019370 75.246719 4.404720
v 0.112650 75.070511 0.290320
v 1.091580 73.215851 4.558350
v -0.501460 72.094543 4.570200
v 2.300830 77.233383 0.813970
v -6.751060 16.969059 -5.003950
v -3.220660 23.384731 1.583020
v -4.404810 15.257030 -0.516480
v -11.643810 16.840971 -1.776000
v -9.070810 23.629589 0.228270
v -5.489470 23.349892 -2.057230
v -7.293360 21.457890 3.216050
v -8.375540 15.021859 2.494540
v -7.160360 23.782261 3.958000
v -6.552380 26.012421 2.970090
v -10.019031 26.844709 -0.907770
v -5.989530 31.706692 -0.722900
v -12.424560 3.308490 -4.304190
v -11.149830 6.106060 -3.454790
v -9.261070 3.779570 -6.348150
v -10.279400 4.078210 -1.246430
v -7.592890 2.268190 -3.420460
v -7.645580 5.339290 -2.845010
v -8.567090 -1.309860 -6.467410
v -11.577720 -0.661700 -7.015130
v -9.320570 -0.977090 1.954270
v -15.279690 0.461410 0.905120
v -12.191710 2.471500 4.820590
v -14.886820 1.031150 5.095610
v -11.112180 0.359350 6.498930

vt 0.550479 0.485338
vt 0.414517 0.485338
vt 0.489174 0.497239
vt 0.490853 0.675485
vt 0.356970 0.710738
vt 0.458986 0.602657
vt 0.458693 0.603155
vt 0.491001 0.506534
vt 0.357039 0.710738
vt 0.272881 0.708251
vt 0.307767 0.663467
vt 0.329118 0.504113
vt 0.420682 0.504388
vt 0.307693 0.663467
vt 0.420389 0.504181
vt 0.390374 0.619683
vt 0.389206 0.622726
vt 0.390855 0.620128
vt 0.309151 0.663075
vt 0.578845 0.971377
vt 0.529882 0.993867
vt 0.501054 0.950636
vt 0.597833 0.993868
vt 0.684209 0.993870
vt 0.691613 0.940228
vt 0.584242 0.936155
vt 0.602549 0.993867
vt 0.689094 0.993870
vt 0.694409 0.971380
vt 0.730001 0.975635
vt 0.490853 0.781888
vt 0.490853 0.820915
vt 0.240556 0.660920
vt 0.133663 0.660928
vt 0.131880 0.753091
vt 0.060606 0.782384
vt 0.055577 0.663688
vt 0.136145 0.808744
vt 0.060014 0.783494
vt 0.058190 0.859642
vt 0.160773 0.512959
vt 0.067037 0.515196
vt 0.240700 0.512959
vt 0.131877 0.752996
vt 0.240556 0.781375
vt 0.390182 0.870896
vt 0.298691 0.847983
vt 0.294173 0.886121
vt 0.181129 0.899551
vt 0.052544 0.886601
vt 0.145152 0.921474
vt 0.235241 0.891030
vt 0.142740 0.921054
vt 0.172936 0.966074
vt 0.456563 0.999059
vt 0.389917 0.922986
vt 0.429989 0.941889
vt 0.491140 0.942697
vt 0.490646 0.999330
vt 0.490853 0.898039
vt 0.701416 0.118225
vt 0.813217 0.120956
vt 0.790107 0.184348
vt 0.877923 0.002315
vt 0.872775 0.120438
vt 0.505869 0.118716
vt 0.564263 0.119120
vt 0.507564 0.183764
vt 0.697589 0.180917
vt 0.580429 0.182675
vt 0.710756 0.001536
vt 0.701372 0.182427
vt 0.812168 0.002315
vt 0.857243 0.184348
vt 0.697567 0.116528
vt 0.503935 0.000692
vt 0.561277 0.000692
vt 0.688827 -0.000098
vt 0.002866 0.854679
vt 0.027518 0.706813
vt 0.061197 0.782654
vt 0.055608 0.663958
vt 0.251604 0.781884
vt 0.357109 0.710738
vt 0.243886 0.876138
vt 0.247300 0.848527
vt -0.000514 0.880403
vt 0.006948 0.782948
vt 0.674684 0.829607
vt 0.705811 0.784366
vt 0.654033 0.662928
vt 0.703232 0.671848
vt 0.720473 0.730776
vt 0.697736 0.853617
vt 0.729837 0.853035
vt 0.623758 0.856571
vt 0.587609 0.811448
vt 0.658187 0.605708
vt 0.748523 0.593788
vt 0.716351 0.931575
vt 0.747491 0.935506
vt 0.695349 0.885675
vt 0.676247 0.904603
vt 0.649719 0.961956
vt 0.745560 1.001324
vt 0.725611 0.781438
vt 0.747491 0.878462
vt 0.747491 0.808438
vt 0.720379 0.731031
vt 0.747491 0.790807
vt 0.720762 0.730332
vt 0.748639 0.732530
vt 0.746944 0.628012
vt 0.703659 0.671442
vt 0.731857 0.666086
vt 0.747085 0.666819
vt 0.703186 0.671176
vt 0.611291 0.885598
vt 0.604148 0.909350
vt 0.550618 0.823662
vt 0.550618 0.934468
vt 0.625864 0.557513
vt 0.571978 0.557920
vt 0.578607 0.510287
vt 0.669444 0.510287
vt 0.756032 0.560223
vt 0.679695 0.557918
vt 0.877240 0.461159
vt 0.992418 0.461159
vt 0.944262 0.560223
vt 0.756457 0.510287
vt 0.806202 0.560223
vt 0.498275 0.560223
vt 0.875566 0.382888
vt 0.758260 0.308662
vt 0.875912 0.308662
vt 0.759996 0.360654
vt 0.669163 0.382888
vt 0.671223 0.308662
vt 0.584325 0.382888
vt 0.577057 0.308662
vt 0.498223 0.363687
vt 0.498247 0.308662
vt 0.992597 0.308662
vt 0.992439 0.363687
vt 0.759483 0.410364
vt 0.758924 0.382888
vt 0.665903 0.461159
vt 0.580075 0.461159
vt 0.498223 0.402657
vt 0.992438 0.402657
vt 0.760539 0.449273
vt 0.498220 0.461159
vt 0.875438 0.575163
vt 0.762705 0.196431
vt 0.858161 0.196355
vt 0.690657 0.196417
vt 0.588027 0.196417
vt 0.498144 0.196431
vt 0.991918 0.196431
vt 0.375723 0.009258
vt 0.380090 0.017573
vt 0.356438 0.030356
vt 0.342839 0.029458
vt 0.369327 0.043627
vt 0.316032 0.012201
vt 0.336848 0.019568
vt 0.249292 0.041099
vt 0.371147 0.002582
vt 0.416197 0.004791
vt 0.408124 0.000758
vt 0.128136 0.016613
vt 0.154876 0.002573
vt 0.119423 0.002194
vt 0.160447 0.001473
vt 0.065726 0.014292
vt 0.105093 0.028910
vt 0.000825 0.069213
vt 0.000703 0.039244
vt 0.249314 0.055441
vt 0.429228 0.045736
vt 0.102506 0.115410
vt 0.153549 0.117195
vt 0.189513 0.114692
vt 0.228429 0.109580
vt 0.194639 0.033982
vt 0.406548 0.108121
vt 0.355355 0.108206
vt 0.448349 0.035630
vt 0.498209 0.039288
vt 0.461840 0.047992
vt 0.483032 0.114221
vt 0.406174 0.120334
vt 0.355217 0.119080
vt 0.243215 0.037501
vt 0.249314 0.089732
vt 0.000703 0.095058
vt 0.249292 0.105039
vt 0.160984 0.032072
vt 0.413806 0.033644
vt 0.442212 0.108407
vt 0.443088 0.117732
vt 0.023914 0.327327
vt 0.104127 0.227894
vt 0.000784 0.227894
vt 0.216171 0.327327
vt 0.216985 0.228421
vt 0.105699 0.228145
vt 0.104981 0.327662
vt 0.217575 0.327327
vt 0.351490 0.301452
vt 0.217290 0.227894
vt 0.351571 0.227894
vt 0.352420 0.301452
vt 0.489174 0.227894
vt 0.352342 0.227894
vt 0.471690 0.333380
vt 0.351597 0.328057
vt 0.217345 0.328075
vt 0.352312 0.363299
vt 0.470864 0.334174
vt 0.352330 0.328057
vt 0.216660 0.380224
vt 0.216104 0.328075
vt 0.104983 0.328371
vt 0.217232 0.380224
vt 0.351611 0.363299
vt 0.351459 0.420971
vt 0.352499 0.420971
vt 0.351589 0.497239
vt 0.229465 0.497239
vt 0.352627 0.497239
vt 0.229583 0.497239
vt 0.133020 0.497239
vt 0.072972 0.497239
vt 0.025422 0.328212
vt 0.002386 0.497239
vt 0.216130 0.152222
vt 0.223982 0.125749
vt 0.105883 0.155747
vt 0.351732 0.147623
vt 0.223132 0.128232
vt 0.218721 0.149411
vt 0.469070 0.149411
vt 0.483427 0.127273
vt 0.352306 0.146326
vt 0.017963 0.152222
vt 0.104256 0.155747
vt 0.009616 0.131504
vt 0.104128 0.227914
vt 0.000790 0.227921
vt 0.216984 0.228396
vt 0.351571 0.227971
vt 0.217291 0.227882
vt 0.352342 0.227879
vt 0.489111 0.227891
vt 0.948232 0.041698
vt 0.989968 0.003451
vt 0.971575 0.059997
vt 0.909211 0.004273
vt 0.996004 0.120663
vt 0.925604 0.058708
vt 0.885225 0.122889
vt 0.516483 0.798440
vt 0.501430 0.685191
vt 0.597947 0.686709
vt 0.594444 0.793024
vt 0.950876 0.082499
vt 0.943924 0.157220
vt 0.507177 0.624822
vt 0.600053 0.622523
vt 0.901715 0.182549
vt 0.982420 0.184037
vt 0.730212 0.975635
vt 0.685579 0.991654
vt 0.692830 0.969164

vn 0.994439 -0.036662 -0.098732
vn 0.059998 -0.314332 -0.947415
vn -0.155848 -0.431956 -0.888328
vn 0.899909 0.224514 0.373842
vn 0.818677 -0.236377 -0.523348
vn -0.014182 -0.523836 -0.851701
vn 0.212460 -0.456724 -0.863865
vn 0.917045 -0.379896 -0.121274
vn 0.210013 -0.412098 -0.886606
vn 0.879814 -0.468754 -0.078723
vn -0.462739 -0.833209 -0.302712
vn -0.280766 -0.905852 -0.317179
vn -0.222009 -0.765522 -0.603894
vn -0.159125 -0.865851 0.474321
vn -0.456964 -0.594610 0.661531
vn 0.531590 0.229122 0.815423
vn 0.418332 -0.361430 0.833287
vn 0.976868 -0.213411 0.013597
vn -0.092928 -0.266213 -0.959424
vn 0.423391 -0.069023 0.903314
vn 0.729129 -0.363987 0.579555
vn 0.750710 0.358119 0.555144
vn 0.432217 0.119006 0.893883
vn 0.882456 -0.011984 0.470242
vn 0.437633 0.122310 0.890796
vn 0.276707 0.186555 0.942672
vn 0.472225 0.541263 -0.695728
vn -0.076718 -0.068500 -0.994697
vn 0.619116 -0.111462 0.777349
vn 0.346003 0.185657 -0.919681
vn 0.312288 0.260467 0.913583
vn 0.048129 0.219817 -0.974353
vn 0.667539 0.223124 0.710357
vn 0.601523 0.663987 0.444175
vn 0.574595 0.735398 0.359207
vn 0.269051 0.652509 0.708409
vn 0.157736 0.505827 0.848091
vn 0.784428 0.430435 0.446541
vn 0.750827 0.511229 -0.418216
vn 0.473773 0.468365 -0.745770
vn 0.190747 0.662729 -0.724159
vn 0.580341 0.742304 0.334945
vn 0.368423 0.775261 -0.513065
vn 0.752372 0.501680 -0.426912
vn 0.221458 0.467102 -0.856021
vn 0.232348 0.456579 -0.858807
vn 0.129527 0.069492 -0.989138
vn 0.174259 0.236024 0.955995
vn 0.860299 0.092931 0.501249
vn 0.804382 0.207714 -0.556619
vn 0.005643 0.164456 -0.986368
vn 0.173150 0.155351 0.972566
vn 0.423238 -0.013328 0.905921
vn 0.913957 0.298427 0.274997
vn 0.832773 0.289929 0.471625
vn 0.854861 0.256889 0.450801
vn 0.782072 0.234058 -0.577564
vn 0.000391 0.158893 -0.987296
vn 0.775670 0.310455 -0.549503
vn 0.585989 0.086571 -0.805681
vn 0.001174 0.149149 -0.988814
vn -0.567882 -0.158439 -0.807717
vn 0.400373 0.116211 0.908953
vn -0.427309 -0.839792 -0.334897
vn 0.926024 -0.078569 -0.369198
vn 0.644959 -0.757231 0.103098
vn 0.295972 -0.824638 -0.482051
vn 0.697254 -0.366813 -0.615861
vn 0.577393 -0.166680 -0.799272
vn 0.605648 -0.791726 0.079758
vn 0.839367 -0.060634 -0.540172
vn 0.113083 -0.979377 0.167429
vn 0.903047 -0.187782 -0.386321
vn -0.103729 -0.825636 -0.554586
vn 0.822767 0.006322 0.568344
vn 0.449120 0.014330 0.893356
vn 0.142010 0.294232 0.945125
vn 0.976795 0.048528 0.208604
vn 0.984482 -0.083726 -0.154225
vn 0.998594 -0.034330 0.040405
vn 0.360739 -0.705700 0.609799
vn 0.193736 0.394933 0.898050
vn 0.911170 0.048988 0.409108
vn 0.974673 0.068830 0.212782
vn -0.054130 0.975949 0.211170
vn 0.475329 0.495124 0.727265
vn 0.684975 0.461846 0.563478
vn 0.699333 0.462212 0.545246
vn 0.486844 -0.003120 0.873483
vn 0.313346 -0.065865 0.947352
vn 0.049238 0.982234 0.181087
vn -0.020318 0.201086 0.979363
vn 0.245443 -0.522348 0.816646
vn 0.531248 0.202401 0.822684
vn 0.474287 -0.879098 0.047315
vn 0.864976 0.077646 0.495769
vn 0.007762 -0.979104 0.203213
vn 0.513966 0.318450 0.796510
vn 0.810866 0.194158 0.552086
vn 0.317130 -0.933775 0.165808
vn 0.330398 0.237057 0.913587
vn 0.977702 0.017882 -0.209236
vn 0.917814 0.116589 -0.379506
vn 0.767694 -0.171278 0.617502
vn 0.163228 -0.223332 0.960978
vn 0.826306 -0.008183 0.563163
vn 0.056784 -0.087965 0.994504
vn 0.520854 0.797492 0.304496
vn 0.978250 0.105696 0.178479
vn 0.884046 0.460011 0.082782
vn 0.769131 0.633292 0.085896
vn 0.497932 0.479181 0.722806
vn 0.491996 0.219799 -0.842395
vn 0.399784 0.285694 -0.870949
vn 0.151111 0.924264 -0.350572
vn 0.030215 0.869431 -0.493129
vn 0.879457 -0.014744 0.475750
vn 0.595581 0.006917 -0.803266
vn 0.724307 -0.407762 0.555976
vn 0.994646 -0.096114 -0.037967
vn -0.974975 -0.067231 -0.211905
vn 0.909382 0.307414 -0.280215
vn 0.731523 -0.413456 0.542152
vn -0.246580 -0.672054 0.698242
vn 0.017570 0.189194 -0.981783
vn -0.873438 -0.042482 0.485079
vn -0.494226 0.036984 0.868546
vn 0.654420 0.707009 0.268091
vn 0.229017 0.163703 0.959558
vn 0.873115 0.344667 -0.344781
vn 0.959673 0.183304 0.213135
vn 0.677703 -0.732497 -0.064550
vn -0.181246 -0.307121 -0.934252
vn -0.227007 -0.927281 -0.297688
vn -0.223074 -0.663517 -0.714131
vn -0.354440 -0.221379 0.908495
vn -0.389982 -0.300512 0.870406
vn 0.886020 -0.140040 0.441993
vn 0.777647 0.051085 0.626623
vn 0.860738 0.409549 -0.302325
vn 0.860396 0.409998 -0.302689
vn 0.068034 0.453439 -0.888687
vn -0.974528 0.193280 -0.113741
vn -0.614765 -0.432788 0.659363
vn -0.455991 -0.072025 0.887065
vn 0.800594 0.148369 0.580548
vn 0.745229 -0.115952 0.656650
vn 0.918960 0.241076 -0.312081
vn 0.881026 0.324353 -0.344366
vn -0.060907 0.328882 -0.942405
vn -0.005737 0.401542 -0.915823
vn -0.974459 -0.166179 -0.151043
vn 0.861755 0.011438 0.507196
vn -0.389219 -0.281864 0.876962
vn -0.970961 0.089087 -0.222033
vn 0.029455 0.544811 -0.838042
vn -0.965732 0.157754 -0.206097
vn -0.005157 0.519930 -0.854193
vn 0.816344 -0.218023 0.534835
vn -0.446602 -0.223865 0.866274
vn -0.949202 -0.122771 0.289728
vn -0.888498 -0.018060 0.458524
vn -0.186093 0.696877 0.692627
vn 0.050137 0.737787 0.673169
vn 0.750296 0.658694 -0.056380
vn 0.732358 0.679986 0.035652
vn 0.702892 0.054939 -0.709172
vn 0.605412 -0.174027 -0.776653
vn -0.494447 -0.672659 -0.550501
vn -0.442797 -0.691573 -0.570664
vn 0.249418 0.958675 -0.136866
vn 0.253225 0.141985 -0.956931
vn 0.765115 -0.539623 -0.351292
vn 0.670122 -0.552855 -0.495266
vn 0.695327 -0.537228 -0.477395
vn 0.558770 -0.399418 -0.726802
vn 0.475516 -0.424395 -0.770567
vn 0.727102 0.686406 0.013025
vn 0.455537 0.844619 0.281254
vn -0.900862 -0.218645 0.375023
vn -0.726566 0.649937 0.222897
vn -0.961785 -0.138868 0.235978
vn -0.943210 -0.076967 0.323159
vn -0.986911 -0.093191 -0.131617
vn -0.093722 -0.994539 -0.045923
vn 0.881029 -0.369141 -0.295843
vn 0.699353 -0.148574 -0.699165
vn -0.763863 -0.610726 -0.208633
vn -0.760955 -0.599133 -0.248973
vn 0.615074 0.775167 0.144223
vn 0.628398 0.756128 0.182720
vn 0.694389 -0.130682 -0.707634
vn 0.530693 0.847472 0.012465
vn -0.227336 0.541021 0.809701
vn -0.358188 0.525980 0.771392
vn -0.760196 -0.606529 -0.232864
vn 0.810384 0.568294 0.142545
vn -0.821977 -0.472806 -0.317504
vn -0.775084 -0.384069 0.501732
vn -0.024635 0.408831 0.912278
vn 0.237519 0.495651 -0.835413
vn 0.662445 0.716861 0.217431
vn -0.233720 0.329860 0.914641
vn 0.952222 0.094833 -0.290311
vn 0.951976 0.111607 -0.285107
vn -0.774863 -0.571345 -0.270467
vn 0.715307 -0.141247 -0.684387
vn 0.553331 0.827554 0.094764
vn -0.297219 0.660964 0.689049
vn -0.914234 0.137477 -0.381151
vn 0.621983 0.740735 -0.253867
vn 0.262781 0.950933 -0.163317
vn 0.832045 -0.120050 0.541562
vn 0.816889 -0.219666 0.533328
vn -0.585768 -0.594871 0.550458
vn -0.553199 -0.627222 0.548237
vn 0.896117 -0.216179 0.387610
vn -0.537396 0.035037 0.842602
vn 0.596991 -0.283402 -0.750523
vn 0.862428 -0.066574 0.501782
vn 0.885531 -0.205969 0.416427
vn -0.255917 -0.527637 0.810004
vn 0.871921 -0.007578 0.489589
vn -0.532984 -0.572238 0.623274
vn -0.842815 0.415016 -0.342672
vn 0.898089 0.086025 0.431318
vn -0.436282 -0.309100 0.845053
vn 0.923411 0.045616 0.381092
vn 0.561466 0.247028 -0.789768
vn 0.398506 0.081439 -0.913543
vn -0.340870 -0.069661 -0.937526
vn -0.755686 -0.328148 -0.566795
vn -0.476911 -0.378472 0.793294
vn -0.959012 -0.278734 -0.051021
vn 0.450090 0.886617 -0.106442
vn 0.829678 -0.297358 0.472454
vn -0.520541 -0.659998 0.541701
vn -0.880807 0.372440 -0.292347
vn 0.736458 0.613167 -0.285756
vn -0.911805 0.186035 -0.366063
vn -0.925088 0.165387 -0.341847
vn 0.644480 0.652923 -0.397916
vn 0.845115 -0.480247 0.234826
vn 0.917339 -0.321994 0.234112
vn -0.561104 -0.814645 0.146686
vn -0.444606 -0.883045 0.150187
vn -0.883485 0.379978 -0.273992
vn -0.172998 0.682556 -0.710062
vn -0.917395 -0.373921 -0.136269
vn 0.880320 0.376319 -0.288827
vn 0.241973 -0.798922 -0.550611
vn 0.170961 -0.801497 -0.573040
vn 0.507059 0.577787 0.639572
vn 0.482253 0.792904 -0.372471
vn -0.717706 0.052341 0.694376
vn 0.532500 0.618003 0.578373
vn -0.814901 0.070959 0.575240
vn 0.242157 -0.800638 -0.548032
vn 0.242642 -0.800749 -0.547655
vn 0.449423 0.708416 0.544211
vn 0.211474 -0.111596 0.970992
vn -0.802182 0.268904 0.533100
vn 0.180671 -0.942976 -0.279560
vn -0.283316 -0.136386 -0.949279
vn 0.285144 -0.454280 -0.843992
vn -0.841542 0.040139 0.538698
vn -0.917606 -0.315286 -0.242064
vn -0.280385 -0.607584 -0.743119
vn -0.226306 -0.640700 -0.733681
vn -0.866442 -0.480692 -0.134958
vn -0.154036 0.001271 -0.988064
vn -0.923931 -0.327156 -0.198296
vn 0.411485 -0.851650 -0.324610
vn 0.724159 -0.595370 -0.348035
vn 0.045071 -0.387766 -0.920655
vn 0.264760 -0.488125 0.831647
vn 0.706977 0.040206 0.706092
vn -0.165732 0.192691 0.967162
vn -0.189787 0.251881 0.948966
vn -0.927399 -0.224643 0.299108
vn -0.224999 -0.262654 -0.938290
vn -0.387106 -0.121611 0.913980
vn -0.624034 -0.501317 0.599385
vn -0.501806 0.569816 0.650769
vn -0.400800 0.211684 0.891375
vn -0.713033 0.037512 0.700126
vn 0.026285 0.077361 0.996657
vn -0.129864 0.230307 0.964414
vn -0.266498 -0.137993 -0.953906
vn -0.261416 -0.073255 -0.962442
vn -0.406077 -0.121821 0.905683
vn -0.512324 0.342437 -0.787567
vn -0.121660 0.213423 0.969355
vn -0.274049 -0.131298 -0.952711
vn -0.398438 0.228653 0.888237
vn -0.422047 0.674503 0.605740
vn -0.450787 0.891640 0.042066
vn -0.108096 0.630967 0.768242
vn -0.100146 0.623649 0.775263
vn -0.718472 0.499084 0.484472
vn -0.683001 0.497935 -0.534388
vn -0.345022 0.486543 -0.802643
vn -0.152908 0.624559 -0.765862
vn -0.363747 0.905651 0.217909
vn -0.421357 0.737538 -0.527727
vn -0.678976 0.542807 -0.494319
vn -0.229847 0.391471 -0.891022
vn -0.175129 0.450552 -0.875405
vn -0.176441 0.082652 -0.980835
vn 0.001986 0.024656 0.999694
vn -0.790423 0.174880 0.587068
vn -0.837215 0.332994 -0.433804
vn -0.304103 0.356476 -0.883429
vn -0.009531 0.102103 0.994728
vn 0.027464 0.040276 0.998811
vn -0.841045 0.300612 0.449750
vn -0.796725 0.086444 0.598128
vn -0.707661 0.196992 0.678535
vn -0.934684 0.184055 -0.304121
vn -0.049135 0.157119 -0.986357
vn -0.863083 0.265967 -0.429358
vn -0.633182 -0.121201 -0.764454
vn -0.007175 -0.130529 -0.991419
vn 0.164909 -0.198742 -0.966078
vn -0.076745 0.053803 0.995598
vn 0.584033 0.447672 -0.677122
vn -0.368427 0.229292 -0.900936
vn -0.654042 -0.729011 -0.201921
vn 0.217381 0.637902 0.738801
vn -0.438826 -0.369978 -0.818870
vn -0.519059 0.635712 -0.571357
vn -0.520609 -0.806739 -0.279532
vn -0.945750 0.160310 -0.282591
vn 0.589621 -0.794004 -0.148002
vn -0.240199 -0.495475 -0.834751
vn 0.264268 -0.571798 -0.776666
vn -0.928924 -0.089326 0.359334
vn -0.626742 -0.008354 0.779182
vn -0.349276 0.283877 0.892984
vn -0.995931 -0.087461 -0.021728
vn -0.922848 -0.263354 -0.281061
vn -0.844870 -0.310405 -0.435710
vn -0.346635 -0.718151 0.603410
vn -0.394120 0.382550 0.835659
vn -0.977951 0.009162 0.208632
vn -0.999624 0.027208 0.003269
vn -0.032091 0.976412 0.213515
vn -0.637535 0.471655 0.609172
vn -0.806575 0.430399 0.405208
vn -0.816797 0.430247 0.384357
vn -0.658689 -0.027268 0.751921
vn -0.502094 -0.083051 0.860816
vn -0.127034 0.978517 0.162381
vn -0.193988 0.197424 0.960933
vn -0.389317 -0.535727 0.749286
vn -0.699975 0.176443 0.692028
vn -0.368092 -0.909661 -0.192418
vn -0.983999 0.049021 0.171296
vn -0.008327 -0.979828 0.199671
vn -0.682439 0.293223 0.669550
vn -0.916013 0.157748 0.368830
vn -0.223373 -0.972474 0.066325
vn -0.524297 0.219038 0.822882
vn -0.908679 -0.023674 -0.416823
vn -0.818595 0.074607 -0.569505
vn -0.872331 -0.205857 0.443465
vn -0.351757 -0.234196 0.906322
vn -0.924985 -0.045102 0.377317
vn -0.260432 -0.094631 0.960843
vn -0.605915 0.773736 0.184930
vn -0.997460 0.064042 -0.031182
vn -0.900125 0.422398 -0.106555
vn -0.795749 0.600297 -0.080171
vn -0.658012 0.454816 0.600135
vn -0.334741 0.188036 -0.923358
vn -0.219665 0.274311 -0.936216
vn -0.112591 0.918705 -0.378556
vn 0.037697 0.869590 -0.492333
vn -0.896590 0.114850 0.427709
vn -0.617803 0.705112 -0.348047
vn -0.723405 -0.630498 0.281350
vn -0.930214 -0.190798 -0.313524
vn 0.965014 0.091377 -0.245761
vn -0.917852 0.395090 -0.038093
vn -0.754333 -0.655143 0.042061
vn 0.529757 -0.683281 0.502478
vn 0.650090 0.682980 0.333048
vn 0.821460 -0.569984 0.017903
vn 0.387583 -0.785293 0.482799
vn -0.574165 0.538614 0.616628
vn -0.473103 -0.298116 0.829036
vn -0.794693 0.325159 0.512577
vn -0.766309 0.504325 0.398030
vn -0.883643 -0.035784 -0.466792
vn 0.601243 -0.256368 -0.756824
vn -0.825950 -0.218470 -0.519691
vn -0.840966 -0.332519 -0.426857
vn 0.334351 -0.799051 0.499728
vn 0.378614 -0.809273 0.449142
vn -0.846418 -0.531800 -0.027660
vn -0.813405 -0.538345 0.220356
vn -0.907400 0.407029 -0.104652
vn -0.921820 0.369337 -0.117636
vn -0.016297 0.929229 -0.369145
vn 0.859680 0.317844 0.399907
vn 0.507070 -0.775231 0.376692
vn 0.395467 -0.670309 0.627926
vn -0.856462 -0.446862 0.258433
vn -0.764754 -0.639213 0.080983
vn -0.903080 0.354928 -0.241809
vn -0.897308 0.380233 -0.224190
vn 0.592690 0.542330 -0.595480
vn -0.023969 0.973535 -0.227280
vn 0.481998 0.871251 -0.092739
vn -0.858135 -0.511351 0.046094
vn 0.384486 -0.813913 0.435564
vn 0.920148 0.365535 0.140399
vn 0.076861 0.991657 -0.103486
vn 0.886312 0.420242 0.194546
vn -0.088091 0.996064 -0.009802
vn -0.781229 -0.624158 -0.010343
vn 0.440043 -0.782908 0.439793
vn 0.718853 -0.695022 -0.013957
vn 0.683725 -0.725592 0.077694
vn 0.110773 -0.048279 0.992672
vn -0.074925 0.072187 0.994573
vn -0.512014 0.737875 0.439753
vn -0.519038 0.693893 0.499111
vn -0.384026 0.792105 -0.474439
vn -0.369636 0.757370 -0.538293
vn 0.428327 -0.090719 -0.899059
vn 0.490978 -0.138062 -0.860163
vn 0.003885 0.795656 0.605736
vn 0.147043 0.803274 -0.577174
vn -0.669396 0.122052 -0.732811
vn -0.643539 0.191851 -0.740979
vn -0.580869 0.173884 -0.795208
vn -0.388850 0.443368 -0.807601
vn -0.305765 0.421969 -0.853493
vn -0.420125 0.703669 0.573014
vn -0.281924 0.543407 0.790713
vn 0.657487 -0.752252 0.042746
vn 0.808343 0.041019 0.587282
vn 0.800402 -0.599200 -0.017781
vn 0.779829 -0.618568 0.096126
vn 0.894043 -0.428472 -0.130764
vn -0.166021 -0.635853 -0.753743
vn -0.807866 0.318711 -0.495757
vn -0.427948 0.589686 -0.684931
vn 0.709804 -0.536416 -0.456548
vn 0.717967 -0.498443 -0.485878
vn -0.403525 0.653254 0.640645
vn -0.432609 0.621505 0.653132
vn -0.511192 0.652587 -0.559297
vn -0.386325 0.772150 0.504517
vn -0.007883 -0.167586 0.985826
vn 0.191353 -0.261860 0.945946
vn 0.678748 -0.576572 -0.454825
vn -0.633404 0.597946 0.491182
vn 0.766698 -0.466432 -0.441151
vn 0.591036 -0.806491 -0.015787
vn -0.155859 -0.336897 0.928551
vn 0.203142 0.952632 -0.226332
vn -0.487667 0.585592 0.647505
vn -0.007798 -0.443842 0.896071
vn -0.752717 0.638123 -0.161912
vn -0.749824 0.645204 -0.146544
vn 0.758694 -0.448558 -0.472420
vn -0.623605 0.588556 -0.514508
vn -0.547102 0.565987 0.616716
vn 0.124436 -0.043130 0.991290
vn 0.884805 -0.008567 -0.465883
vn -0.508481 0.415406 -0.754245
vn -0.456536 0.445829 -0.769943
vn -0.805411 0.134860 0.577170
vn -0.779863 0.061296 0.622942
vn 0.600490 -0.188096 0.777195
vn 0.469654 -0.284328 0.835813
vn -0.884400 -0.095243 0.456908
vn 0.519656 0.223609 0.824595
vn -0.511978 -0.416457 -0.751294
vn -0.743623 0.016856 0.668387
vn -0.602824 0.475238 0.640899
vn 0.599936 0.392745 0.697014
vn -0.821188 0.402893 0.404139
vn 0.471880 -0.292493 0.831731
vn 0.845842 0.076557 -0.527911
vn -0.693806 0.658846 0.290783
vn 0.682268 0.444066 0.580788
vn -0.739114 0.600997 0.304158
vn -0.642682 -0.599516 -0.477012
vn -0.610103 -0.634791 -0.474145
vn -0.112160 -0.822251 -0.557964
vn 0.488683 -0.820454 -0.296724
vn 0.694703 0.397290 0.599624
vn 0.829608 -0.545667 -0.118313
vn -0.529525 0.458064 -0.713989
vn -0.824011 0.216492 0.523582
vn 0.562638 -0.142919 0.814256
vn 0.885836 0.100093 -0.453074
vn -0.735475 0.205755 -0.645555
vn 0.921347 -0.138310 -0.363304
vn 0.848731 -0.158914 -0.504382
vn -0.549587 0.104337 -0.828896
vn -0.813004 -0.126300 0.568396
vn -0.921116 0.027504 0.388316
vn 0.602784 -0.349982 0.717052
vn 0.577039 -0.360605 0.732796
vn 0.888983 0.131500 -0.438653
vn 0.188926 0.048745 -0.980781
vn 0.936264 -0.337610 0.097108
vn -0.895137 0.104913 -0.433270
vn -0.238897 -0.970697 0.025986
vn -0.213810 -0.976681 0.019462
vn -0.531110 0.831417 0.163307
vn -0.539564 0.393248 -0.744464
vn 0.724849 0.461384 0.511585
vn -0.575841 0.816820 0.034811
vn 0.841720 0.393623 0.369550
vn -0.227726 -0.961771 0.152113
vn -0.260233 -0.949266 0.176560
vn -0.475937 0.876316 -0.074524
vn -0.206453 0.541864 0.814715
vn 0.820442 0.548233 0.162219
vn -0.501835 -0.844732 0.185982

f 1/1/1 2/2/1 3/3/1
f 4/4/2 5/5/2 6/6/2
f 4/4/3 6/7/3 7/8/3
f 5/9/4 8/10/4 9/11/4
f 10/12/5 11/13/5 9/14/5
f 6/6/6 11/15/6 7/8/6
f 6/6/7 12/16/7 11/13/7
f 12/17/8 5/5/8 9/14/8
f 6/6/9 5/5/9 12/17/9
f 11/13/10 12/18/10 9/19/10
f 13/20/11 14/21/11 15/22/11
f 14/21/12 13/20/12 16/23/12
f 16/24/13 13/20/13 17/25/13
f 15/22/14 14/21/14 18/26/14
f 14/21/15 19/27/15 18/26/15
f 18/26/16 20/28/16 21/29/16
f 18/26/17 19/27/17 20/28/17
f 20/28/18 3/30/18 21/29/18
f 5/9/19 22/31/19 23/32/19
f 24/33/20 25/34/20 26/35/20
f 27/36/21 25/34/21 9/37/21
f 28/38/22 27/39/22 29/40/22
f 30/41/23 25/34/23 24/33/23
f 25/34/24 30/41/24 10/42/24
f 30/41/25 24/33/25 31/43/25
f 24/33/26 26/44/26 32/45/26
f 33/46/27 34/47/27 5/9/27
f 4/4/28 22/31/28 5/9/28
f 26/35/29 25/34/29 27/39/29
f 33/46/30 35/48/30 34/47/30
f 32/45/31 26/35/31 28/38/31
f 23/32/32 33/46/32 5/9/32
f 26/35/33 27/39/33 28/38/33
f 28/38/34 29/40/34 36/49/34
f 35/50/35 37/51/35 29/40/35
f 28/38/36 38/52/36 32/45/36
f 36/49/37 38/52/37 28/38/37
f 36/49/38 37/53/38 39/54/38
f 39/55/39 37/56/39 40/57/39
f 41/58/40 42/59/40 39/55/40
f 39/55/41 40/57/41 41/58/41
f 36/49/42 29/40/42 37/51/42
f 37/56/43 35/48/43 33/46/43
f 37/56/44 33/46/44 40/57/44
f 40/57/45 33/46/45 43/60/45
f 40/57/46 43/60/46 41/58/46
f 33/46/47 23/32/47 43/60/47
f 44/61/48 45/62/48 30/63/48
f 15/64/49 46/65/49 45/62/49
f 46/66/50 47/67/50 10/68/50
f 47/67/51 7/69/51 11/70/51
f 45/62/52 44/61/52 17/71/52
f 44/61/53 30/63/53 31/72/53
f 13/73/54 15/64/54 45/62/54
f 46/65/55 10/74/55 45/62/55
f 45/62/56 10/74/56 30/63/56
f 47/67/57 11/70/57 10/68/57
f 47/67/58 48/75/58 7/69/58
f 46/66/59 15/76/59 47/67/59
f 18/77/60 47/67/60 15/76/60
f 47/67/61 18/77/61 48/75/61
f 18/77/62 21/78/62 48/75/62
f 13/73/63 45/62/63 17/71/63
f 49/79/64 35/50/64 29/40/64
f 8/80/65 27/81/65 9/82/65
f 34/47/66 50/83/66 5/84/66
f 27/36/67 49/79/67 29/40/67
f 35/48/68 51/85/68 52/86/68
f 35/50/69 49/79/69 51/87/69
f 52/86/70 50/83/70 34/47/70
f 35/48/71 52/86/71 34/47/71
f 5/84/72 50/83/72 8/10/72
f 53/88/73 27/81/73 8/80/73
f 53/88/74 49/79/74 27/36/74
f 54/89/75 55/90/75 56/91/75
f 57/92/76 55/90/76 58/93/76
f 59/94/77 60/95/77 55/90/77
f 61/96/78 54/89/78 56/91/78
f 39/97/79 61/96/79 36/98/79
f 36/98/80 61/96/80 56/91/80
f 36/98/81 56/91/81 38/99/81
f 62/100/82 63/101/82 64/102/82
f 65/103/83 64/102/83 54/89/83
f 61/96/84 65/103/84 54/89/84
f 66/104/85 67/105/85 62/100/85
f 55/90/86 60/95/86 68/106/86
f 69/107/87 68/106/87 60/95/87
f 69/107/88 70/108/88 68/106/88
f 58/109/89 55/90/89 68/106/89
f 68/106/90 71/110/90 58/111/90
f 62/100/91 67/105/91 63/101/91
f 64/102/92 63/101/92 69/107/92
f 70/108/93 71/110/93 68/106/93
f 58/111/94 71/110/94 72/112/94
f 56/91/95 57/92/95 38/113/95
f 55/90/96 57/114/96 56/91/96
f 73/115/97 74/116/97 38/113/97
f 58/109/98 72/112/98 73/115/98
f 57/117/99 58/111/99 73/115/99
f 57/92/100 73/115/100 38/113/100
f 73/115/101 72/112/101 74/116/101
f 39/97/102 75/118/102 61/96/102
f 75/118/103 39/97/103 76/119/103
f 64/102/104 59/94/104 54/89/104
f 64/102/105 60/95/105 59/94/105
f 54/89/106 59/94/106 55/90/106
f 64/102/107 69/107/107 60/95/107
f 65/103/108 66/104/108 62/100/108
f 65/103/109 61/96/109 75/118/109
f 75/118/110 76/119/110 65/103/110
f 66/104/111 65/103/111 76/119/111
f 62/100/112 64/102/112 65/103/112
f 39/97/113 42/120/113 76/119/113
f 77/121/114 76/119/114 42/120/114
f 67/105/115 76/119/115 77/121/115
f 66/104/116 76/119/116 67/105/116
f 9/82/117 25/34/117 10/42/117
f 51/122/118 49/123/118 78/124/118
f 79/125/119 50/126/119 52/127/119
f 52/127/120 51/122/120 79/125/120
f 80/128/121 81/129/121 53/130/121
f 51/122/122 78/124/122 79/125/122
f 82/131/123 50/126/123 79/125/123
f 50/126/124 82/131/124 8/132/124
f 53/133/125 78/124/125 49/123/125
f 83/134/126 84/135/126 85/136/126
f 84/135/127 83/134/127 86/137/127
f 86/137/128 87/138/128 84/135/128
f 88/139/129 84/135/129 87/138/129
f 87/138/130 89/140/130 88/139/130
f 90/141/131 88/139/131 89/140/131
f 91/142/132 92/143/132 90/141/132
f 90/141/133 89/140/133 91/142/133
f 85/136/134 92/144/134 91/145/134
f 91/145/135 83/134/135 85/136/135
f 80/128/136 93/146/136 83/134/136
f 94/147/137 83/134/137 93/146/137
f 93/146/138 87/138/138 94/147/138
f 87/138/139 93/146/139 95/148/139
f 95/148/140 96/149/140 87/138/140
f 89/140/141 87/138/141 96/149/141
f 97/150/142 91/142/142 89/140/142
f 97/151/143 81/129/143 80/128/143
f 8/132/144 82/131/144 80/128/144
f 93/146/145 80/128/145 98/152/145
f 98/152/146 95/148/146 93/146/146
f 95/148/147 82/131/147 79/125/147
f 79/125/148 78/124/148 95/148/148
f 96/149/149 95/148/149 78/124/149
f 78/124/150 53/133/150 81/153/150
f 81/153/151 96/149/151 78/124/151
f 80/128/152 53/130/152 8/154/152
f 94/147/153 87/138/153 86/137/153
f 86/137/154 83/134/154 94/147/154
f 97/151/155 83/134/155 91/145/155
f 89/140/156 96/149/156 97/150/156
f 80/128/157 83/134/157 97/151/157
f 81/153/158 97/150/158 96/149/158
f 82/131/159 95/148/159 98/152/159
f 98/152/160 80/128/160 82/131/160
f 85/136/161 99/155/161 100/156/161
f 99/155/162 85/136/162 84/135/162
f 84/135/163 101/157/163 99/155/163
f 101/157/164 84/135/164 88/139/164
f 88/139/165 90/141/165 101/157/165
f 102/158/166 101/157/166 90/141/166
f 90/141/167 103/159/167 102/158/167
f 103/159/168 90/141/168 92/143/168
f 92/144/169 85/136/169 103/160/169
f 100/156/170 103/160/170 85/136/170
f 104/161/171 105/162/171 106/163/171
f 107/164/172 106/163/172 108/165/172
f 109/166/173 110/167/173 103/168/173
f 109/166/174 111/169/174 104/161/174
f 104/161/175 110/167/175 109/166/175
f 104/161/176 111/169/176 112/170/176
f 113/171/177 112/170/177 111/169/177
f 106/163/178 110/167/178 104/161/178
f 104/161/179 112/170/179 105/162/179
f 105/172/180 113/173/180 111/174/180
f 113/173/181 105/172/181 112/175/181
f 105/172/182 111/174/182 109/176/182
f 109/176/183 106/177/183 105/172/183
f 109/176/184 100/178/184 106/177/184
f 103/179/185 100/178/185 109/176/185
f 102/180/186 103/168/186 110/167/186
f 106/163/187 114/181/187 108/165/187
f 115/182/188 116/183/188 106/177/188
f 116/184/189 117/185/189 118/186/189
f 108/165/190 114/181/190 119/187/190
f 119/187/191 120/188/191 108/165/191
f 118/189/192 121/190/192 114/191/192
f 114/191/193 121/190/193 117/192/193
f 116/193/194 115/194/194 119/187/194
f 120/188/195 119/187/195 115/194/195
f 121/195/196 118/186/196 117/185/196
f 108/165/197 101/196/197 102/180/197
f 115/182/198 106/177/198 100/178/198
f 100/178/199 99/197/199 115/182/199
f 120/188/200 99/198/200 101/196/200
f 106/163/201 107/164/201 110/167/201
f 108/165/202 120/188/202 101/196/202
f 120/188/203 115/194/203 99/198/203
f 107/164/204 102/180/204 110/167/204
f 102/180/205 107/164/205 108/165/205
f 118/199/206 106/177/206 116/183/206
f 114/181/207 106/163/207 118/200/207
f 114/191/208 117/192/208 119/201/208
f 117/192/209 116/202/209 119/201/209
f 122/203/210 123/204/210 124/205/210
f 125/206/211 126/207/211 123/208/211
f 125/206/212 123/208/212 127/209/212
f 125/210/213 128/211/213 126/212/213
f 128/211/214 129/213/214 126/212/214
f 128/214/215 124/215/215 129/216/215
f 122/217/216 124/215/216 128/214/216
f 130/218/217 128/211/217 125/219/217
f 131/220/218 122/221/218 130/222/218
f 132/223/219 125/224/219 127/225/219
f 132/226/220 131/227/220 125/219/220
f 133/228/221 131/227/221 132/226/221
f 133/229/222 122/221/222 131/220/222
f 130/218/223 125/219/223 131/227/223
f 128/214/224 130/222/224 122/221/224
f 127/209/225 123/204/225 122/203/225
f 16/230/226 133/228/226 14/231/226
f 16/232/227 3/3/227 133/229/227
f 14/231/228 133/228/228 132/226/228
f 14/233/229 132/223/229 19/234/229
f 132/223/230 127/225/230 19/234/230
f 20/235/231 19/234/231 127/225/231
f 20/235/232 127/225/232 122/236/232
f 3/3/233 122/221/233 133/229/233
f 3/237/234 20/235/234 122/236/234
f 134/238/235 135/239/235 136/240/235
f 137/241/236 135/242/236 134/243/236
f 138/244/237 139/245/237 137/246/237
f 138/247/238 136/248/238 139/249/238
f 134/238/239 136/240/239 123/208/239
f 138/247/240 123/250/240 136/248/240
f 123/250/241 138/247/241 124/251/241
f 134/238/242 123/208/242 126/252/242
f 129/253/243 134/243/243 126/254/243
f 137/241/244 134/243/244 129/253/244
f 138/244/245 137/246/245 129/255/245
f 138/244/246 129/255/246 124/256/246
f 136/257/247 140/258/247 139/259/247
f 136/257/248 141/260/248 140/258/248
f 142/261/249 139/259/249 140/258/249
f 135/262/250 143/263/250 141/260/250
f 141/264/251 143/265/251 142/266/251
f 142/266/252 140/267/252 141/264/252
f 137/268/253 143/263/253 135/262/253
f 135/262/254 141/260/254 136/257/254
f 139/259/255 142/261/255 137/268/255
f 137/268/256 144/269/256 143/263/256
f 137/268/257 142/261/257 144/269/257
f 143/265/258 145/270/258 146/271/258
f 146/271/259 142/266/259 143/265/259
f 143/263/260 144/269/260 145/272/260
f 144/269/261 146/273/261 145/272/261
f 146/273/262 144/269/262 142/261/262
f 3/274/263 16/275/263 17/276/263
f 147/5/264 4/4/264 148/6/264
f 148/7/265 4/4/265 7/8/265
f 149/10/266 147/9/266 150/11/266
f 151/13/267 152/12/267 150/14/267
f 151/15/268 148/6/268 7/8/268
f 153/16/269 148/6/269 151/13/269
f 147/5/270 153/17/270 150/14/270
f 147/5/271 148/6/271 153/17/271
f 153/18/272 151/13/272 150/19/272
f 154/21/273 155/20/273 156/22/273
f 155/20/274 154/21/274 157/23/274
f 155/20/275 157/24/275 17/25/275
f 154/21/276 156/22/276 158/26/276
f 159/27/277 154/21/277 158/26/277
f 160/28/278 158/26/278 21/29/278
f 159/27/279 158/26/279 160/28/279
f 3/30/280 160/28/280 21/29/280
f 22/31/281 147/9/281 23/32/281
f 161/34/282 24/33/282 162/35/282
f 161/34/283 163/36/283 150/37/283
f 163/39/284 164/38/284 165/40/284
f 161/34/285 166/41/285 24/33/285
f 166/41/286 161/34/286 152/42/286
f 24/33/287 166/41/287 31/43/287
f 162/44/288 24/33/288 32/45/288
f 167/47/289 168/46/289 147/9/289
f 22/31/290 4/4/290 147/9/290
f 161/34/291 162/35/291 163/39/291
f 169/48/292 168/46/292 167/47/292
f 162/35/293 32/45/293 164/38/293
f 168/46/294 23/32/294 147/9/294
f 163/39/295 162/35/295 164/38/295
f 165/40/296 164/38/296 170/49/296
f 171/51/297 169/50/297 165/40/297
f 38/52/298 164/38/298 32/45/298
f 38/52/299 170/49/299 164/38/299
f 171/53/300 170/49/300 172/54/300
f 171/56/301 172/55/301 173/57/301
f 42/59/302 41/58/302 172/55/302
f 173/57/303 172/55/303 41/58/303
f 165/40/304 170/49/304 171/51/304
f 169/48/305 171/56/305 168/46/305
f 168/46/306 171/56/306 173/57/306
f 168/46/307 173/57/307 43/60/307
f 43/60/308 173/57/308 41/58/308
f 23/32/309 168/46/309 43/60/309
f 174/62/310 44/61/310 166/63/310
f 175/65/311 156/64/311 174/62/311
f 176/67/312 175/66/312 152/68/312
f 7/69/313 176/67/313 151/70/313
f 44/61/314 174/62/314 17/71/314
f 166/63/315 44/61/315 31/72/315
f 156/64/316 155/73/316 174/62/316
f 152/74/317 175/65/317 174/62/317
f 152/74/318 174/62/318 166/63/318
f 151/70/319 176/67/319 152/68/319
f 48/75/320 176/67/320 7/69/320
f 156/76/321 175/66/321 176/67/321
f 176/67/322 158/77/322 156/76/322
f 158/77/323 176/67/323 48/75/323
f 21/78/324 158/77/324 48/75/324
f 174/62/325 155/73/325 17/71/325
f 169/50/326 177/79/326 165/40/326
f 163/81/327 149/80/327 150/82/327
f 178/83/328 167/47/328 147/84/328
f 177/79/329 163/36/329 165/40/329
f 179/85/330 169/48/330 180/86/330
f 177/79/331 169/50/331 179/87/331
f 178/83/332 180/86/332 167/47/332
f 180/86/333 169/48/333 167/47/333
f 178/83/334 147/84/334 149/10/334
f 163/81/335 181/88/335 149/80/335
f 177/79/336 181/88/336 163/36/336
f 182/90/337 183/89/337 184/91/337
f 182/90/338 185/92/338 186/93/338
f 187/95/339 188/94/339 182/90/339
f 183/89/340 189/96/340 184/91/340
f 189/96/341 172/97/341 170/98/341
f 189/96/342 170/98/342 184/91/342
f 184/91/343 170/98/343 38/99/343
f 63/101/344 190/100/344 191/102/344
f 191/102/345 192/103/345 183/89/345
f 192/103/346 189/96/346 183/89/346
f 67/105/347 193/104/347 190/100/347
f 187/95/348 182/90/348 194/106/348
f 194/106/349 69/107/349 187/95/349
f 70/108/350 69/107/350 194/106/350
f 182/90/351 186/109/351 194/106/351
f 71/110/352 194/106/352 186/111/352
f 67/105/353 190/100/353 63/101/353
f 63/101/354 191/102/354 69/107/354
f 71/110/355 70/108/355 194/106/355
f 71/110/356 186/111/356 72/112/356
f 185/92/357 184/91/357 38/113/357
f 185/114/358 182/90/358 184/91/358
f 74/116/359 195/115/359 38/113/359
f 72/112/360 186/109/360 195/115/360
f 186/111/361 185/117/361 195/115/361
f 195/115/362 185/92/362 38/113/362
f 72/112/363 195/115/363 74/116/363
f 196/118/364 172/97/364 189/96/364
f 172/97/365 196/118/365 197/119/365
f 188/94/366 191/102/366 183/89/366
f 187/95/367 191/102/367 188/94/367
f 188/94/368 183/89/368 182/90/368
f 69/107/369 191/102/369 187/95/369
f 193/104/370 192/103/370 190/100/370
f 189/96/371 192/103/371 196/118/371
f 197/119/372 196/118/372 192/103/372
f 192/103/373 193/104/373 197/119/373
f 191/102/374 190/100/374 192/103/374
f 42/120/375 172/97/375 197/119/375
f 197/119/376 77/121/376 42/120/376
f 197/119/377 67/105/377 77/121/377
f 197/119/378 193/104/378 67/105/378
f 161/34/379 150/82/379 152/42/379
f 177/123/380 179/122/380 198/124/380
f 178/126/381 199/125/381 180/127/381
f 179/122/382 180/127/382 199/125/382
f 200/129/383 201/128/383 181/130/383
f 198/124/384 179/122/384 199/125/384
f 178/126/385 202/131/385 199/125/385
f 202/131/386 178/126/386 149/132/386
f 198/124/387 181/133/387 177/123/387
f 203/135/388 204/134/388 205/136/388
f 204/134/389 203/135/389 206/137/389
f 207/138/390 206/137/390 203/135/390
f 203/135/391 208/139/391 207/138/391
f 209/140/392 207/138/392 208/139/392
f 208/139/393 210/141/393 209/140/393
f 211/143/394 212/142/394 210/141/394
f 209/140/395 210/141/395 212/142/395
f 211/144/396 205/136/396 212/145/396
f 204/134/397 212/145/397 205/136/397
f 213/146/398 201/128/398 204/134/398
f 204/134/399 214/147/399 213/146/399
f 207/138/400 213/146/400 214/147/400
f 213/146/401 207/138/401 215/148/401
f 216/149/402 215/148/402 207/138/402
f 207/138/403 209/140/403 216/149/403
f 212/142/404 217/150/404 209/140/404
f 200/129/405 217/151/405 201/128/405
f 202/131/406 149/132/406 201/128/406
f 201/128/407 213/146/407 218/152/407
f 215/148/408 218/152/408 213/146/408
f 202/131/409 215/148/409 199/125/409
f 198/124/410 199/125/410 215/148/410
f 215/148/411 216/149/411 198/124/411
f 181/133/412 198/124/412 200/153/412
f 216/149/413 200/153/413 198/124/413
f 181/130/414 201/128/414 149/154/414
f 207/138/415 214/147/415 206/137/415
f 204/134/416 206/137/416 214/147/416
f 204/134/417 217/151/417 212/145/417
f 216/149/418 209/140/418 217/150/418
f 204/134/419 201/128/419 217/151/419
f 217/150/420 200/153/420 216/149/420
f 215/148/421 202/131/421 218/152/421
f 201/128/422 218/152/422 202/131/422
f 219/155/423 205/136/423 220/156/423
f 205/136/424 219/155/424 203/135/424
f 221/157/425 203/135/425 219/155/425
f 203/135/426 221/157/426 208/139/426
f 210/141/427 208/139/427 221/157/427
f 221/157/428 222/158/428 210/141/428
f 223/159/429 210/141/429 222/158/429
f 210/141/430 223/159/430 211/143/430
f 205/136/431 211/144/431 223/160/431
f 223/160/432 220/156/432 205/136/432
f 224/162/433 225/161/433 226/163/433
f 226/163/434 227/164/434 228/165/434
f 229/167/435 230/166/435 223/168/435
f 231/169/436 230/166/436 225/161/436
f 229/167/437 225/161/437 230/166/437
f 231/169/438 225/161/438 232/170/438
f 232/170/439 233/171/439 231/169/439
f 229/167/440 226/163/440 225/161/440
f 232/170/441 225/161/441 224/162/441
f 233/173/442 224/172/442 231/174/442
f 224/172/443 233/173/443 232/175/443
f 231/174/444 224/172/444 230/176/444
f 226/177/445 230/176/445 224/172/445
f 220/178/446 230/176/446 226/177/446
f 220/178/447 223/179/447 230/176/447
f 223/168/448 222/180/448 229/167/448
f 234/181/449 226/163/449 228/165/449
f 235/183/450 236/182/450 226/177/450
f 237/185/451 235/184/451 238/186/451
f 234/181/452 228/165/452 239/187/452
f 240/188/453 239/187/453 228/165/453
f 241/190/454 238/189/454 234/191/454
f 241/190/455 234/191/455 237/192/455
f 236/194/456 235/193/456 239/187/456
f 239/187/457 240/188/457 236/194/457
f 238/186/458 241/195/458 237/185/458
f 221/196/459 228/165/459 222/180/459
f 226/177/460 236/182/460 220/178/460
f 219/197/461 220/178/461 236/182/461
f 219/198/462 240/188/462 221/196/462
f 227/164/463 226/163/463 229/167/463
f 240/188/464 228/165/464 221/196/464
f 236/194/465 240/188/465 219/198/465
f 222/180/466 227/164/466 229/167/466
f 227/164/467 222/180/467 228/165/467
f 226/177/468 238/199/468 235/183/468
f 226/163/469 234/181/469 238/200/469
f 237/192/470 234/191/470 239/201/470
f 235/202/471 237/192/471 239/201/471
f 242/204/472 243/203/472 244/205/472
f 245/207/473 246/206/473 242/208/473
f 242/208/474 246/206/474 247/209/474
f 248/211/475 246/210/475 245/212/475
f 249/213/476 248/211/476 245/212/476
f 244/215/477 248/214/477 249/216/477
f 244/215/478 243/217/478 248/214/478
f 248/211/479 250/218/479 246/219/479
f 243/221/480 251/220/480 250/222/480
f 246/224/481 252/223/481 247/225/481
f 251/227/482 252/226/482 246/219/482
f 251/227/483 253/228/483 252/226/483
f 243/221/484 253/229/484 251/220/484
f 246/219/485 250/218/485 251/227/485
f 250/222/486 248/214/486 243/221/486
f 242/204/487 247/209/487 243/203/487
f 253/228/488 157/230/488 154/231/488
f 3/3/489 157/232/489 253/229/489
f 253/228/490 154/231/490 252/226/490
f 252/223/491 154/233/491 159/234/491
f 247/225/492 252/223/492 159/234/492
f 159/234/493 160/235/493 247/225/493
f 247/225/494 160/235/494 243/236/494
f 243/221/495 3/3/495 253/229/495
f 160/235/496 3/237/496 243/236/496
f 254/239/497 255/238/497 256/240/497
f 254/242/498 257/241/498 255/243/498
f 258/245/499 259/244/499 257/246/499
f 256/248/500 259/247/500 258/249/500
f 256/240/501 255/238/501 242/208/501
f 242/250/502 259/247/502 256/248/502
f 259/247/503 242/250/503 244/251/503
f 242/208/504 255/238/504 245/252/504
f 255/243/505 249/253/505 245/254/505
f 255/243/506 257/241/506 249/253/506
f 257/246/507 259/244/507 249/255/507
f 249/255/508 259/244/508 244/256/508
f 260/258/509 256/257/509 258/259/509
f 261/260/510 256/257/510 260/258/510
f 258/259/511 262/261/511 260/258/511
f 263/263/512 254/262/512 261/260/512
f 263/265/513 261/264/513 262/266/513
f 260/267/514 262/266/514 261/264/514
f 263/263/515 257/268/515 254/262/515
f 261/260/516 254/262/516 256/257/516
f 262/261/517 258/259/517 257/268/517
f 264/269/518 257/268/518 263/263/518
f 262/261/519 257/268/519 264/269/519
f 265/270/520 263/265/520 266/271/520
f 262/266/521 266/271/521 263/265/521
f 264/269/522 263/263/522 265/272/522
f 266/273/523 264/269/523 265/272/523
f 264/269/524 266/273/524 262/261/524
f 157/275/525 3/274/525 17/276/525

