mtllib anim_barb_run_attack1_axe_000031.mtl

o fat
usemtl axe.001
s off

v 22.246931 63.787697 27.953789
v 19.180820 57.969719 24.733429
v 26.601669 58.083019 32.596012
v 24.405552 56.636658 30.530838
v 27.382370 56.158401 33.113731
v 25.186241 54.712036 31.048561
v 28.746910 47.763519 32.264290
v 23.248770 47.941139 27.431108
v 26.529060 66.607880 31.980570
v 33.029037 50.583710 36.291061
v 32.027199 66.430267 36.813751
v 28.797810 59.529381 34.661190
v 29.578499 57.604759 35.178902
v 36.095150 56.401691 39.511429
v 25.697460 56.766659 29.065960
v 27.893591 58.213009 31.131130
v 26.478149 54.842037 29.583681
v 28.674280 56.288391 31.648842
v 30.089720 59.659370 33.196289
v 30.870420 57.734760 33.714020
v 2.490780 42.203732 9.922910
v 3.271470 40.279114 10.440630
v 4.563390 40.409096 8.975740
v 3.782700 42.333721 8.458020
v 34.458809 61.677872 38.536522
v -19.577869 25.230679 -11.046141
v -18.285950 25.360680 -12.511030
v -19.066641 27.285290 -13.028750
v -20.358561 27.155300 -11.563860

vt 0.033358 0.643728
vt 0.190411 0.923560
vt 0.402692 0.503812
vt 0.402692 0.647326
vt 0.408249 0.287497
vt 0.408249 0.367848
vt 0.492649 0.287497
vt 0.492649 0.367848
vt 0.403043 0.503812
vt 0.403044 0.647326
vt 0.033710 0.643728
vt 0.190763 0.923560
vt 0.033358 0.363896
vt 0.033710 0.363896
vt 0.190411 0.084064
vt 0.402692 0.360297
vt 0.408249 0.207147
vt 0.492649 0.207147
vt 0.403043 0.360297
vt 0.190763 0.084064
vt 0.408248 1.036942
vt 0.492649 1.036942
vt 0.483600 0.371280
vt 0.402049 0.371280
vt 0.402049 1.040375
vt 0.483600 1.040375
vt 0.450449 0.037941
vt 0.483600 0.210579
vt 0.402049 0.210579
vt 0.442825 0.041374
vt 0.000000 1.000000

vn -0.727260 0.003360 0.686354
vn -0.722355 0.125937 0.679958
vn -0.659981 -0.066410 0.748341
vn -0.609718 -0.177276 0.772539
vn -0.649933 -0.205008 0.731819
vn -0.700077 0.045483 0.712618
vn -0.657103 0.073494 0.750210
vn -0.567534 -0.255733 0.782627
vn -0.583965 -0.135298 0.800424
vn 0.567534 0.255734 -0.782627
vn 0.583965 0.135297 -0.800425
vn 0.659980 0.066407 -0.748343
vn 0.657102 -0.073492 -0.750210
vn 0.700076 -0.045483 -0.712618
vn 0.609718 0.177276 -0.772540
vn 0.649933 0.205008 -0.731819
vn 0.727260 -0.003359 -0.686354
vn 0.722355 -0.125940 -0.679958
vn -0.077970 -0.984652 -0.156142
vn -0.675502 0.488419 -0.552399
vn 0.077969 0.984652 0.156145
vn 0.675503 -0.488420 0.552396
vn -0.364729 0.899151 -0.241870
vn 0.364729 -0.899151 0.241870
vn -0.563264 -0.006221 0.826253
vn 0.744125 0.125333 -0.656177
vn 0.459288 -0.823937 0.331938
vn -0.261884 0.953944 -0.146312
vn -0.656811 -0.432571 -0.617642

f 1/1/1 2/2/1 3/3/1
f 4/4/2 3/3/2 2/2/2
f 3/5/3 4/6/3 5/7/3
f 6/8/3 5/7/3 4/6/3
f 5/9/4 6/10/4 7/11/4
f 8/12/5 7/11/5 6/10/5
f 9/13/6 1/1/6 3/3/6
f 7/11/4 10/14/4 5/9/4
f 11/15/7 9/13/7 12/16/7
f 3/3/6 12/16/6 9/13/6
f 12/17/3 3/5/3 13/18/3
f 5/7/3 13/18/3 3/5/3
f 13/19/8 5/9/8 14/20/8
f 10/14/9 14/20/9 5/9/9
f 15/4/10 2/2/10 16/3/10
f 1/1/11 16/3/11 2/2/11
f 17/8/12 15/6/12 18/7/12
f 16/5/12 18/7/12 15/6/12
f 8/12/13 17/10/13 7/11/13
f 18/9/14 7/11/14 17/10/14
f 16/3/15 1/1/15 9/13/15
f 7/11/14 18/9/14 10/14/14
f 16/3/15 9/13/15 19/16/15
f 11/15/16 19/16/16 9/13/16
f 18/7/12 16/5/12 20/18/12
f 19/17/12 20/18/12 16/5/12
f 10/14/17 18/9/17 14/20/17
f 20/19/18 14/20/18 18/9/18
f 4/4/19 2/2/19 15/4/19
f 17/10/20 8/12/20 6/10/20
f 13/19/21 14/20/21 20/19/21
f 19/16/22 11/15/22 12/16/22
f 6/8/3 4/6/3 21/21/3
f 21/21/3 22/22/3 6/8/3
f 15/6/12 17/8/12 23/22/12
f 23/22/12 24/21/12 15/6/12
f 4/23/23 15/24/23 24/25/23
f 24/25/23 21/26/23 4/23/23
f 17/24/24 6/23/24 22/26/24
f 22/26/24 23/25/24 17/24/24
f 12/17/25 13/18/25 25/27/25
f 20/18/26 19/17/26 25/27/26
f 13/28/27 20/29/27 25/30/27
f 19/29/28 12/28/28 25/30/28
f 23/22/24 22/21/24 26/22/24 27/31/24
f 21/21/23 24/22/23 28/21/23 29/31/23
f 24/21/12 23/22/12 27/21/12 28/31/12
f 22/22/3 21/21/3 29/22/3 26/31/3
f 28/21/29 27/22/29 29/21/29
f 26/22/29 29/21/29 27/22/29

