mtllib anim_barb_attack_new1_body_000008.mtl

o fat
usemtl fat.001
s off

v -0.168490 37.884399 -4.500810
v 1.860240 36.144421 6.136090
v 0.349960 37.192589 0.621920
v -0.671050 59.975792 -8.805970
v 6.904340 65.632217 -10.611530
v 1.764270 56.193810 -8.162960
v -0.946730 51.941673 -5.692820
v 7.065090 62.199951 -5.729000
v 7.148100 57.930580 -4.222170
v 6.755240 52.127754 -2.662180
v 3.450440 51.852051 -6.341350
v 4.916440 56.975361 -8.321430
v 9.039200 36.834751 3.931050
v 9.338130 38.731411 -2.759150
v 10.548210 38.235321 -3.182530
v 6.484060 37.779190 3.759750
v 3.993900 36.280899 6.156680
v 4.324090 36.340973 -7.606070
v 3.673350 38.333931 -6.688300
v 0.448250 37.603779 -5.467180
v -0.381800 34.966721 -5.887540
v -0.892980 65.630821 -8.574830
v -1.132680 67.601501 -8.647880
v 1.620010 59.241219 4.780160
v 6.192540 59.283630 0.971320
v 7.200310 63.507061 1.489650
v 9.165880 63.159180 -1.581430
v 6.996770 66.303314 1.368810
v 10.804720 67.035240 -4.410800
v 4.497020 52.163792 3.132640
v 2.004950 52.010952 4.145430
v 2.348990 66.209419 4.518690
v 3.075030 70.391205 -7.519910
v 8.308180 66.718422 -10.715950
v 10.024860 68.107262 -7.656800
v 3.044560 70.709274 1.736440
v 4.964580 71.688835 -3.211220
v 0.498460 69.929077 2.752510
v 2.672180 76.022079 -0.423570
v 2.886640 73.589119 -4.175710
v 0.081750 73.727989 -4.796900
v 0.439690 76.711815 -2.091340
v -1.093760 71.618744 -6.525140
v 0.745850 47.597168 4.690520
v 5.364230 47.561302 4.110860
v 8.418850 47.209549 -1.066610
v 4.982670 46.614807 -6.259870
v -0.599190 46.473640 -6.803650
v 11.329750 66.369362 -4.643930
v 7.478270 62.424942 -10.061851
v 11.962190 65.493118 -7.549910
v 10.136451 65.349899 -10.137010
v 9.551490 64.606468 -1.884680
v 1.648300 75.678650 4.986940
v -0.083030 74.280128 6.508150
v 2.942910 71.329147 2.983750
v 0.398330 70.323502 5.625640
v -0.603590 72.927536 6.416220
v 0.484660 76.224243 6.326360
v -1.326250 76.165405 6.289930
v 2.743180 76.886528 2.375630
v -0.516930 80.140518 6.393480
v -1.843600 80.145569 6.440980
v 0.487670 77.515961 6.909380
v 1.280090 79.315826 5.937800
v 0.668560 81.352356 3.798910
v -0.912220 81.395416 3.329840
v -1.068070 74.337677 6.870040
v -1.956280 76.942520 6.443180
v -2.367220 74.970383 7.641660
v -2.220170 74.360596 7.051500
v -2.294080 72.781158 7.116890
v -0.974320 69.959457 7.016730
v -2.433190 70.000198 7.263450
v 2.681830 79.227615 2.301580
v 2.350810 80.461960 1.626200
v 0.008180 80.751884 0.025020
v 13.276720 64.345589 -4.938650
v 12.617390 62.951248 -8.345329
v 9.264750 57.284870 -3.560700
v 11.871090 60.034180 -0.931170
v 8.834130 59.887680 -8.701770
v 12.583321 53.870468 -2.429450
v 14.307099 51.896584 1.265280
v 14.196470 54.639301 0.877100
v 14.952579 52.898880 -4.882280
v 16.263260 55.650021 -4.638950
v 17.344801 51.753521 -0.059320
v 16.571520 56.218449 -2.542830
v 18.828920 53.997200 -0.166980
v 15.295859 54.764782 -0.448500
v 17.461210 55.953377 0.490310
v 13.308279 55.171017 -5.944550
v 14.097490 54.140812 -5.579140
v 14.430140 60.029530 -7.052940
v 14.787081 61.329971 -3.804590
v 14.345200 56.332470 -0.779010
v 11.655180 56.776562 -7.661280
v 16.709570 53.088490 7.942000
v 16.828949 54.979309 7.877600
v 18.116749 52.552227 7.534080
v 19.272760 53.986160 7.109290
v 18.752590 55.555092 7.233280
v 21.351881 57.722778 11.195420
v 20.628601 57.383720 11.654910
v 20.267460 56.376282 10.894060
v 20.812330 56.044861 10.167850
v 21.200180 54.781616 11.230610
v 19.624340 57.711128 9.422100
v 20.743141 57.022327 9.896730
v 20.591000 58.515938 11.245630
v 21.614799 58.077850 12.599501
v 20.969990 58.619118 12.557000
v 21.568201 55.219669 13.390079
v 16.826290 52.825043 12.144560
v 17.383690 52.854771 14.035259
v 18.673241 53.240810 16.630829
v 20.925800 56.252052 12.957180
v 18.288521 52.379421 13.774651
v 17.929560 52.073177 11.880970
v 21.753639 56.160770 16.034109
v 3.920490 25.423561 -1.719810
v 7.326810 20.236229 -9.139030
v 5.129640 17.728321 -4.169060
v 9.728020 26.268421 -3.040500
v 12.313370 19.527960 -5.763950
v 6.080350 26.415871 -5.722620
v 8.134990 22.985321 -0.024590
v 9.186160 17.473030 -1.193780
v 7.926340 25.094339 0.936380
v 7.986060 27.520199 0.531110
v 10.499430 30.032511 -3.798760
v 7.744660 32.029690 2.824240
v 11.848640 9.323500 -9.142210
v 13.133039 6.783690 -10.249061
v 9.894410 7.709100 -11.993210
v 11.070139 6.777570 -7.107340
v 8.369550 8.462960 -8.597980
v 8.327970 5.418980 -9.541780
v 9.318940 2.782850 -13.475731
v 12.295600 3.626150 -13.897949
v 10.347960 0.851390 -5.283150
v 16.233089 2.573700 -6.154370
v 13.245720 2.817210 -1.820360
v 15.978780 1.460410 -2.141780
v 12.271000 0.214690 -0.971720
v -10.822710 65.509018 -4.634760
v -2.812900 56.142460 -7.647290
v -6.518820 62.408253 -1.642620
v -7.268530 57.679008 -0.010730
v -5.276140 51.914101 -3.389790
v -5.899870 51.882790 1.506370
v -6.639380 56.840111 -6.222450
v -8.992290 38.385612 -0.655590
v -7.216920 36.156940 5.582360
v -10.261240 37.834381 -0.916840
v -4.732300 37.489651 4.976790
v -5.128810 36.160210 -6.609520
v -4.594940 38.281170 -5.894510
v -1.095850 37.447170 -5.480270
v -3.534190 59.121799 4.087060
v -3.459610 63.335728 5.464780
v -8.705060 62.915119 5.185480
v -3.186870 66.142181 5.381890
v -9.012200 67.387848 4.224880
v -1.464820 51.872520 4.789490
v -12.507720 66.776947 -2.483510
v -6.236710 70.253769 -4.509970
v -11.202250 68.192421 1.810600
v -2.437160 70.735092 2.228540
v -5.858790 71.830734 -1.291940
v -2.335800 76.191231 -1.782730
v -2.688530 73.668159 -4.308940
v -3.837170 47.157040 4.965270
v -7.885860 46.924637 0.287780
v -5.428140 46.447300 -5.374090
v -10.220160 65.339607 4.127100
v -11.141419 62.223557 -3.579620
v -12.688860 65.922150 2.431550
v -13.226300 63.964100 -0.635710
v -8.577000 62.999184 3.830910
v -3.749900 74.408409 5.461940
v -4.324780 75.887619 3.282730
v -2.979570 71.408081 2.979870
v -3.948350 70.475555 4.385460
v -3.347770 73.023529 5.633270
v -2.459600 76.205055 5.966600
v -4.009470 76.381470 5.044100
v -3.798110 77.115379 0.509300
v -2.943040 80.225388 5.701260
v -4.235840 77.681221 5.561690
v -4.278880 79.510330 4.351740
v -2.501720 81.463272 2.894400
v -3.102250 74.408852 6.289660
v -3.541970 70.049294 6.284130
v -3.555800 79.445839 0.521910
v -2.839540 80.643539 0.145300
v -11.431440 62.808578 4.433280
v -13.708330 62.207550 1.489150
v -7.639520 58.196339 4.730420
v -7.872180 56.547680 0.446840
v -11.616970 60.054268 -2.396730
v -10.430799 48.586510 6.825370
v -9.174400 52.263458 2.784200
v -8.944170 50.776138 4.910980
v -12.610180 51.370789 2.539600
v -13.283430 53.781227 4.332960
v -10.883480 50.855850 8.586870
v -11.993570 53.824860 6.108310
v -9.062470 53.282528 8.542310
v -6.850690 53.370430 6.735630
v -9.632420 52.270130 6.213310
v -12.267200 54.068222 1.233030
v -12.473630 52.913708 1.793210
v -13.930281 58.736061 2.667290
v -11.729309 59.351368 5.359670
v -9.126940 54.822430 5.029480
v -12.428101 56.202950 -0.635550
v -5.334670 46.271080 11.580280
v -3.970260 47.418907 10.843149
v -6.046260 47.525959 12.671640
v -5.009470 49.160782 12.696659
v -3.738250 49.326729 11.704960
v 0.480150 48.302311 14.616360
v 0.506180 49.339371 14.746560
v -0.733540 48.068520 14.321230
v -1.496150 49.000504 14.530931
v -1.896640 48.100510 15.915240
v -0.852810 49.496998 13.919769
v -0.565770 49.153370 12.536660
v 1.124280 49.099670 13.868140
v 1.613840 48.752487 15.517840
v 1.983840 48.553120 14.787210
v -0.284990 47.132980 17.120390
v -2.472230 43.279648 15.782710
v -3.488920 43.929512 14.300840
v -0.727380 42.862839 18.021391
v 0.216990 47.414543 16.047560
v -2.651810 43.617310 16.112749
v -4.002400 44.470047 14.997410
v 1.857470 46.114212 18.364809
v -6.819640 18.296949 -6.415510
v -3.194800 24.973230 0.138490
v -4.407580 16.923780 -1.847180
v -11.665550 18.409550 -3.117110
v -9.063480 25.759109 -1.110210
v -5.518660 26.354570 -3.679700
v -7.243070 22.505331 1.872900
v -8.334559 16.913441 1.229670
v -7.095950 24.473911 2.852670
v -6.490510 27.203030 2.671940
v -10.009680 29.593529 -0.962630
v -5.900850 31.958870 4.534990
v -12.465791 4.824430 -4.469540
v -11.184179 7.579440 -3.998990
v -9.332010 5.326900 -6.561700
v -10.278070 5.633890 -1.519530
v -7.622090 3.766570 -3.665850
v -7.670750 6.860209 -3.384170
v -8.640850 0.214930 -6.764040
v -11.658940 0.873990 -7.261870
v -9.273260 0.360880 1.677630
v -15.247069 1.681560 0.696140
v -12.101560 3.121200 4.682950
v -14.794590 1.660220 4.847220
v -11.001300 0.847820 6.119800

vt 0.550479 0.485338
vt 0.414517 0.485338
vt 0.489174 0.497239
vt 0.490853 0.675485
vt 0.356970 0.710738
vt 0.458986 0.602657
vt 0.458693 0.603155
vt 0.491001 0.506534
vt 0.357039 0.710738
vt 0.272881 0.708251
vt 0.307767 0.663467
vt 0.329118 0.504113
vt 0.420682 0.504388
vt 0.307693 0.663467
vt 0.420389 0.504181
vt 0.390374 0.619683
vt 0.389206 0.622726
vt 0.390855 0.620128
vt 0.309151 0.663075
vt 0.578845 0.971377
vt 0.529882 0.993867
vt 0.501054 0.950636
vt 0.597833 0.993868
vt 0.684209 0.993870
vt 0.691613 0.940228
vt 0.584242 0.936155
vt 0.602549 0.993867
vt 0.689094 0.993870
vt 0.694409 0.971380
vt 0.730001 0.975635
vt 0.490853 0.781888
vt 0.490853 0.820915
vt 0.240556 0.660920
vt 0.133663 0.660928
vt 0.131880 0.753091
vt 0.060606 0.782384
vt 0.055577 0.663688
vt 0.136145 0.808744
vt 0.060014 0.783494
vt 0.058190 0.859642
vt 0.160773 0.512959
vt 0.067037 0.515196
vt 0.240700 0.512959
vt 0.131877 0.752996
vt 0.240556 0.781375
vt 0.390182 0.870896
vt 0.298691 0.847983
vt 0.294173 0.886121
vt 0.181129 0.899551
vt 0.052544 0.886601
vt 0.145152 0.921474
vt 0.235241 0.891030
vt 0.142740 0.921054
vt 0.172936 0.966074
vt 0.456563 0.999059
vt 0.389917 0.922986
vt 0.429989 0.941889
vt 0.491140 0.942697
vt 0.490646 0.999330
vt 0.490853 0.898039
vt 0.701416 0.118225
vt 0.813217 0.120956
vt 0.790107 0.184348
vt 0.877923 0.002315
vt 0.872775 0.120438
vt 0.505869 0.118716
vt 0.564263 0.119120
vt 0.507564 0.183764
vt 0.697589 0.180917
vt 0.580429 0.182675
vt 0.710756 0.001536
vt 0.701372 0.182427
vt 0.812168 0.002315
vt 0.857243 0.184348
vt 0.697567 0.116528
vt 0.503935 0.000692
vt 0.561277 0.000692
vt 0.688827 -0.000098
vt 0.002866 0.854679
vt 0.027518 0.706813
vt 0.061197 0.782654
vt 0.055608 0.663958
vt 0.251604 0.781884
vt 0.357109 0.710738
vt 0.243886 0.876138
vt 0.247300 0.848527
vt -0.000514 0.880403
vt 0.006948 0.782948
vt 0.674684 0.829607
vt 0.705811 0.784366
vt 0.654033 0.662928
vt 0.703232 0.671848
vt 0.720473 0.730776
vt 0.697736 0.853617
vt 0.729837 0.853035
vt 0.623758 0.856571
vt 0.587609 0.811448
vt 0.658187 0.605708
vt 0.748523 0.593788
vt 0.716351 0.931575
vt 0.747491 0.935506
vt 0.695349 0.885675
vt 0.676247 0.904603
vt 0.649719 0.961956
vt 0.745560 1.001324
vt 0.725611 0.781438
vt 0.747491 0.878462
vt 0.747491 0.808438
vt 0.720379 0.731031
vt 0.747491 0.790807
vt 0.720762 0.730332
vt 0.748639 0.732530
vt 0.746944 0.628012
vt 0.703659 0.671442
vt 0.731857 0.666086
vt 0.747085 0.666819
vt 0.703186 0.671176
vt 0.611291 0.885598
vt 0.604148 0.909350
vt 0.550618 0.823662
vt 0.550618 0.934468
vt 0.625864 0.557513
vt 0.571978 0.557920
vt 0.578607 0.510287
vt 0.669444 0.510287
vt 0.756032 0.560223
vt 0.679695 0.557918
vt 0.877240 0.461159
vt 0.992418 0.461159
vt 0.944262 0.560223
vt 0.756457 0.510287
vt 0.806202 0.560223
vt 0.498275 0.560223
vt 0.875566 0.382888
vt 0.758260 0.308662
vt 0.875912 0.308662
vt 0.759996 0.360654
vt 0.669163 0.382888
vt 0.671223 0.308662
vt 0.584325 0.382888
vt 0.577057 0.308662
vt 0.498223 0.363687
vt 0.498247 0.308662
vt 0.992597 0.308662
vt 0.992439 0.363687
vt 0.759483 0.410364
vt 0.758924 0.382888
vt 0.665903 0.461159
vt 0.580075 0.461159
vt 0.498223 0.402657
vt 0.992438 0.402657
vt 0.760539 0.449273
vt 0.498220 0.461159
vt 0.875438 0.575163
vt 0.762705 0.196431
vt 0.858161 0.196355
vt 0.690657 0.196417
vt 0.588027 0.196417
vt 0.498144 0.196431
vt 0.991918 0.196431
vt 0.375723 0.009258
vt 0.380090 0.017573
vt 0.356438 0.030356
vt 0.342839 0.029458
vt 0.369327 0.043627
vt 0.316032 0.012201
vt 0.336848 0.019568
vt 0.249292 0.041099
vt 0.371147 0.002582
vt 0.416197 0.004791
vt 0.408124 0.000758
vt 0.128136 0.016613
vt 0.154876 0.002573
vt 0.119423 0.002194
vt 0.160447 0.001473
vt 0.065726 0.014292
vt 0.105093 0.028910
vt 0.000825 0.069213
vt 0.000703 0.039244
vt 0.249314 0.055441
vt 0.429228 0.045736
vt 0.102506 0.115410
vt 0.153549 0.117195
vt 0.189513 0.114692
vt 0.228429 0.109580
vt 0.194639 0.033982
vt 0.406548 0.108121
vt 0.355355 0.108206
vt 0.448349 0.035630
vt 0.498209 0.039288
vt 0.461840 0.047992
vt 0.483032 0.114221
vt 0.406174 0.120334
vt 0.355217 0.119080
vt 0.243215 0.037501
vt 0.249314 0.089732
vt 0.000703 0.095058
vt 0.249292 0.105039
vt 0.160984 0.032072
vt 0.413806 0.033644
vt 0.442212 0.108407
vt 0.443088 0.117732
vt 0.023914 0.327327
vt 0.104127 0.227894
vt 0.000784 0.227894
vt 0.216171 0.327327
vt 0.216985 0.228421
vt 0.105699 0.228145
vt 0.104981 0.327662
vt 0.217575 0.327327
vt 0.351490 0.301452
vt 0.217290 0.227894
vt 0.351571 0.227894
vt 0.352420 0.301452
vt 0.489174 0.227894
vt 0.352342 0.227894
vt 0.471690 0.333380
vt 0.351597 0.328057
vt 0.217345 0.328075
vt 0.352312 0.363299
vt 0.470864 0.334174
vt 0.352330 0.328057
vt 0.216660 0.380224
vt 0.216104 0.328075
vt 0.104983 0.328371
vt 0.217232 0.380224
vt 0.351611 0.363299
vt 0.351459 0.420971
vt 0.352499 0.420971
vt 0.351589 0.497239
vt 0.229465 0.497239
vt 0.352627 0.497239
vt 0.229583 0.497239
vt 0.133020 0.497239
vt 0.072972 0.497239
vt 0.025422 0.328212
vt 0.002386 0.497239
vt 0.216130 0.152222
vt 0.223982 0.125749
vt 0.105883 0.155747
vt 0.351732 0.147623
vt 0.223132 0.128232
vt 0.218721 0.149411
vt 0.469070 0.149411
vt 0.483427 0.127273
vt 0.352306 0.146326
vt 0.017963 0.152222
vt 0.104256 0.155747
vt 0.009616 0.131504
vt 0.104128 0.227914
vt 0.000790 0.227921
vt 0.216984 0.228396
vt 0.351571 0.227971
vt 0.217291 0.227882
vt 0.352342 0.227879
vt 0.489111 0.227891
vt 0.948232 0.041698
vt 0.989968 0.003451
vt 0.971575 0.059997
vt 0.909211 0.004273
vt 0.996004 0.120663
vt 0.925604 0.058708
vt 0.885225 0.122889
vt 0.516483 0.798440
vt 0.501430 0.685191
vt 0.597947 0.686709
vt 0.594444 0.793024
vt 0.950876 0.082499
vt 0.943924 0.157220
vt 0.507177 0.624822
vt 0.600053 0.622523
vt 0.901715 0.182549
vt 0.982420 0.184037
vt 0.730212 0.975635
vt 0.685579 0.991654
vt 0.692830 0.969164

vn -0.302219 -0.948242 -0.097473
vn -0.073294 -0.212852 -0.974332
vn -0.287414 -0.337478 -0.896383
vn 0.999618 0.010401 -0.025599
vn 0.733548 -0.222319 -0.642248
vn -0.140356 -0.428910 -0.892377
vn 0.045466 -0.371418 -0.927352
vn 0.864618 -0.304307 -0.399792
vn 0.015682 -0.259076 -0.965730
vn 0.845283 -0.385047 -0.370453
vn -0.443282 -0.857004 -0.262766
vn -0.317571 -0.908464 -0.271738
vn -0.217522 -0.709982 -0.669783
vn -0.143098 -0.820881 0.552881
vn -0.472885 -0.491255 0.731470
vn 0.398152 -0.265303 0.878117
vn 0.394280 -0.275059 0.876861
vn 0.954072 -0.299539 -0.004827
vn -0.252156 -0.066458 -0.965402
vn 0.622636 -0.239977 0.744806
vn 0.841740 -0.464127 0.275792
vn 0.830755 0.053210 0.554089
vn 0.637491 0.080780 0.766211
vn 0.925786 -0.110740 0.361465
vn 0.379006 -0.060884 0.923389
vn 0.520469 -0.022419 0.853586
vn -0.316993 0.324001 -0.891369
vn -0.252620 0.029616 -0.967112
vn 0.800373 -0.257427 0.541419
vn 0.258285 0.816854 -0.515788
vn 0.558322 0.076341 0.826104
vn -0.091974 0.489370 -0.867213
vn 0.843572 0.084323 0.530355
vn 0.662475 0.551998 0.506384
vn 0.632636 0.767761 0.101565
vn 0.458232 0.556898 0.692740
vn 0.309618 0.200170 0.929553
vn 0.893537 0.221429 0.390591
vn 0.715413 0.604203 -0.350888
vn 0.614044 0.488477 -0.619951
vn 0.158764 0.832524 -0.530752
vn 0.623265 0.684881 0.377465
vn 0.280899 0.877984 -0.387608
vn 0.704591 0.532271 -0.469297
vn 0.048589 0.723249 -0.688876
vn 0.206581 0.548657 -0.810123
vn -0.072979 0.466499 -0.881506
vn 0.122988 0.228439 0.965759
vn 0.860637 0.085864 0.501928
vn 0.824718 0.098283 -0.556939
vn -0.146823 -0.058317 -0.987442
vn 0.124122 0.162451 0.978879
vn 0.376117 0.007133 0.926545
vn 0.915985 0.309543 0.255253
vn 0.796479 0.412765 0.441867
vn 0.903901 0.244858 0.350725
vn 0.721279 0.200709 -0.662927
vn 0.089819 0.203757 -0.974893
vn 0.775086 0.313284 -0.548721
vn 0.563210 0.071761 -0.823192
vn 0.093123 0.123486 -0.987967
vn -0.320892 -0.081188 -0.943630
vn 0.389874 0.118264 0.913242
vn 0.787604 0.616017 0.014219
vn 0.896258 -0.132020 -0.423429
vn 0.050417 -0.159935 -0.985839
vn 0.643570 0.254741 0.721751
vn 0.696717 0.495110 -0.519087
vn 0.803502 0.595284 -0.004626
vn 0.171434 -0.180684 -0.968485
vn 0.596678 0.549876 -0.584475
vn -0.975912 -0.192293 -0.103047
vn 0.874932 -0.310908 -0.371255
vn -0.869460 0.131906 -0.476067
vn 0.705514 -0.112280 0.699745
vn 0.288252 -0.174915 0.941443
vn -0.023249 0.099804 0.994735
vn 0.906010 0.078081 0.415992
vn 0.997725 0.052989 -0.041671
vn 0.997285 0.042427 0.060187
vn 0.417276 -0.799808 0.431496
vn 0.035800 0.205927 0.977912
vn 0.826912 -0.062389 0.558860
vn 0.923330 -0.006901 0.383945
vn -0.089971 0.917500 0.387427
vn 0.342613 0.327835 0.880421
vn 0.577383 0.319973 0.751163
vn 0.594673 0.323393 0.736058
vn 0.328840 -0.189431 0.925192
vn 0.145217 -0.259436 0.954780
vn 0.017031 0.926013 0.377108
vn -0.189028 0.007325 0.981944
vn 0.100983 -0.679214 0.726960
vn 0.381299 0.020422 0.924226
vn 0.482727 -0.865210 0.135596
vn 0.730656 -0.062747 0.679857
vn -0.028368 -0.999594 -0.002677
vn 0.368766 0.139862 0.918940
vn 0.703413 0.055509 0.708611
vn 0.382815 -0.913350 0.138723
vn 0.167770 0.043512 0.984865
vn 0.999136 0.025136 -0.033105
vn 0.969501 0.157046 -0.188163
vn 0.649684 -0.313997 0.692327
vn -0.004967 -0.411375 0.911453
vn 0.716754 -0.145527 0.681972
vn -0.115630 -0.281590 0.952542
vn 0.460333 0.704940 0.539586
vn 0.932764 0.035791 0.358706
vn 0.856403 0.404934 0.320315
vn 0.742637 0.578087 0.338091
vn 0.365653 0.312308 0.876790
vn 0.627016 0.363482 -0.689008
vn 0.544333 0.434146 -0.717787
vn 0.209122 0.969146 -0.130476
vn 0.114646 0.947212 -0.299410
vn 0.982568 -0.016747 0.185148
vn 0.715629 0.696372 -0.054231
vn 0.329433 -0.322191 -0.887506
vn 0.750796 0.365665 -0.550086
vn -0.617627 -0.152432 0.771558
vn 0.894099 0.326425 -0.306649
vn 0.329685 -0.303107 -0.894111
vn -0.851641 -0.512910 -0.107846
vn 0.581445 0.461840 0.669795
vn -0.900747 0.025037 0.433621
vn -0.534716 -0.823308 -0.190376
vn 0.901681 -0.431720 0.024286
vn -0.288759 -0.761766 -0.579941
vn 0.983074 0.078067 -0.165744
vn 0.485358 -0.359297 -0.797078
vn 0.161296 0.413821 -0.895955
vn 0.120422 0.779663 0.614511
vn -0.386783 0.891353 -0.236406
vn -0.239665 0.964893 -0.107432
vn -0.595329 -0.705822 -0.383926
vn -0.666541 -0.643877 -0.375694
vn 0.405894 -0.013188 -0.913825
vn 0.425748 -0.293565 -0.855896
vn 0.937541 0.274964 -0.213100
vn 0.937704 0.274911 -0.212451
vn 0.559299 0.481438 0.674835
vn -0.500772 -0.301346 0.811430
vn -0.872609 -0.461309 -0.160460
vn -0.551172 -0.804430 -0.221587
vn 0.528963 -0.302985 -0.792716
vn 0.280071 -0.237651 -0.930098
vn 0.861103 0.389943 -0.326260
vn 0.900830 0.359785 -0.243023
vn 0.587616 0.439751 0.679210
vn 0.478830 0.508853 0.715395
vn -0.804850 -0.102301 0.584594
vn 0.481275 -0.152947 -0.863123
vn -0.654392 -0.658809 -0.371135
vn -0.547584 -0.158858 0.821533
vn 0.586036 0.381099 0.715070
vn -0.499407 -0.206630 0.841366
vn 0.548661 0.396953 0.735799
vn 0.283538 -0.062921 -0.956895
vn -0.656076 -0.694043 -0.296425
vn -0.934784 0.070875 0.348075
vn -0.941447 0.009724 0.337022
vn -0.275636 -0.924249 0.264176
vn -0.001169 -0.994500 0.104725
vn 0.833164 -0.552386 -0.026598
vn 0.770628 -0.635477 -0.047972
vn 0.946276 0.318254 -0.057238
vn 0.795006 0.595191 -0.117099
vn -0.357950 0.925574 0.123224
vn -0.269480 0.961455 0.054639
vn 0.609219 -0.605302 0.512311
vn 0.777558 0.527146 0.342814
vn 0.571349 0.459405 -0.680079
vn 0.576828 0.589175 -0.565811
vn 0.591183 0.560853 -0.579609
vn 0.679641 0.670780 -0.296889
vn 0.633273 0.735485 -0.240888
vn 0.781793 -0.622790 -0.030550
vn 0.486271 -0.864449 0.127547
vn -0.959941 0.066512 0.272192
vn -0.430601 -0.451611 0.781428
vn -0.898249 0.122716 0.422006
vn -0.911042 0.015413 0.412026
vn -0.693807 0.356028 0.625999
vn -0.403649 0.727048 -0.555400
vn 0.688069 0.280997 -0.669030
vn 0.859411 0.452394 -0.238229
vn -0.671820 0.716774 0.186795
vn -0.642790 0.736760 0.209775
vn 0.656833 -0.752932 0.040793
vn 0.638219 -0.769847 0.003516
vn 0.866949 0.447219 -0.219985
vn 0.694279 -0.692040 0.197628
vn -0.428490 -0.892578 0.140359
vn -0.509728 -0.828840 0.230657
vn -0.653954 0.730270 0.197609
vn 0.728220 -0.650758 -0.214964
vn -0.603966 0.711628 0.358903
vn -0.997442 0.064057 0.031717
vn -0.383190 -0.916170 -0.117469
vn 0.825503 0.204352 0.526103
vn 0.629831 -0.774546 -0.058236
vn -0.568601 -0.821837 -0.035727
vn 0.905745 -0.052541 -0.420554
vn 0.908705 -0.067559 -0.411936
vn -0.631001 0.735858 0.245662
vn 0.865620 0.433766 -0.250097
vn 0.657656 -0.741136 0.134933
vn -0.369270 -0.874820 0.313576
vn -0.912109 -0.012905 -0.409745
vn 0.536412 0.484852 -0.690783
vn 0.529238 0.489782 -0.692835
vn 0.831774 0.098284 0.546345
vn 0.817617 0.034008 0.574758
vn -0.580028 -0.273370 0.767357
vn -0.511183 -0.332567 0.792522
vn 0.916830 -0.086870 0.389713
vn -0.537527 0.151807 0.829469
vn 0.562791 -0.272543 -0.780376
vn 0.882816 -0.087974 0.461406
vn 0.891651 -0.166374 0.421044
vn -0.243648 -0.449944 0.859177
vn 0.904338 0.048582 0.424043
vn -0.530117 -0.394450 0.750590
vn -0.885239 0.075210 -0.459016
vn 0.901112 0.130282 0.413550
vn -0.424686 -0.235358 0.874213
vn 0.928699 0.080725 0.361941
vn 0.553366 0.171292 -0.815135
vn 0.395415 0.005438 -0.918486
vn -0.322490 -0.140973 -0.936016
vn -0.772688 -0.377323 -0.510471
vn -0.461477 -0.305713 0.832814
vn -0.958250 -0.283826 -0.034634
vn 0.512639 0.547485 -0.661409
vn 0.822043 0.180329 0.540117
vn -0.577837 -0.234489 0.781742
vn -0.889898 0.146136 -0.432117
vn 0.703812 0.291823 -0.647679
vn -0.915772 -0.099000 -0.389308
vn -0.890600 -0.099275 -0.443820
vn 0.567476 0.235371 -0.789032
vn 0.848215 -0.200875 0.490082
vn 0.941776 -0.019698 0.335662
vn -0.631215 -0.457482 0.626321
vn -0.529556 -0.509403 0.678291
vn -0.901937 0.217623 -0.373027
vn -0.217792 0.304501 -0.927279
vn -0.922759 -0.384551 0.025242
vn 0.877357 0.244459 -0.412898
vn 0.237974 -0.938914 -0.248615
vn 0.230799 -0.940165 -0.250641
vn 0.547795 0.754642 0.361159
vn 0.506860 0.590889 -0.627648
vn -0.711432 0.284498 0.642592
vn 0.555230 0.758994 0.340070
vn -0.808099 0.261022 0.528057
vn 0.238195 -0.939649 -0.245608
vn 0.238684 -0.939625 -0.245223
vn 0.453590 0.850949 0.264844
vn 0.223474 0.225516 0.948263
vn -0.796607 0.435168 0.419578
vn 0.248497 -0.916150 -0.314513
vn -0.403179 -0.050908 -0.913704
vn 0.149545 -0.361708 -0.920219
vn -0.347877 0.354623 0.867885
vn -0.958033 -0.258596 -0.123699
vn -0.396749 -0.526193 -0.752138
vn -0.378548 -0.537901 -0.753235
vn -0.902498 -0.429396 -0.033418
vn -0.348384 0.003553 -0.937345
vn -0.953401 -0.296361 -0.056540
vn 0.433096 -0.802680 -0.410040
vn 0.354605 -0.843971 -0.402453
vn 0.050020 -0.488967 -0.870867
vn 0.263315 -0.835093 0.482995
vn 0.704922 -0.379455 0.599248
vn -0.199328 -0.214381 0.956195
vn -0.177221 -0.274050 0.945246
vn -0.930389 -0.301958 0.207842
vn -0.366832 -0.078980 -0.926929
vn -0.119873 -0.306599 0.944260
vn -0.386840 -0.700858 0.599293
vn -0.150115 0.197736 0.968693
vn -0.134360 0.057501 0.989263
vn -0.592617 -0.091626 0.800256
vn 0.184909 -0.076170 0.979799
vn 0.150424 0.021351 0.988391
vn -0.506765 0.508127 -0.696417
vn -0.368968 0.023498 -0.929145
vn -0.025723 -0.310243 0.950309
vn -0.511619 0.850117 -0.124685
vn 0.153884 0.014226 0.987987
vn -0.423149 0.429968 -0.797542
vn -0.055930 0.034907 0.997824
vn -0.041074 0.570078 0.820563
vn -0.261549 0.819270 0.510284
vn 0.129729 0.477232 0.869149
vn 0.007911 0.565112 0.824976
vn -0.533689 0.507338 0.676597
vn -0.723943 0.536019 -0.434270
vn -0.205070 0.670831 -0.712694
vn -0.136947 0.710375 -0.690372
vn -0.262271 0.819287 0.509885
vn -0.644871 0.713519 -0.273919
vn -0.660443 0.702011 -0.266451
vn -0.427676 0.489189 -0.760123
vn -0.142302 0.673582 -0.725285
vn -0.425837 0.425937 -0.798274
vn 0.059125 0.007464 0.998223
vn -0.754132 0.111295 0.647223
vn -0.817440 0.423410 -0.390533
vn -0.447119 0.316145 -0.836742
vn 0.045719 0.141248 0.988918
vn 0.179353 0.070023 0.981290
vn -0.838178 0.283659 0.465828
vn -0.751838 0.142953 0.643664
vn -0.564702 0.312573 0.763812
vn -0.989389 0.073088 -0.125572
vn -0.280407 0.173948 -0.943988
vn -0.871467 0.280994 -0.401979
vn -0.732507 0.060123 -0.678099
vn -0.282788 0.106256 -0.953279
vn 0.131169 -0.076214 -0.988426
vn -0.051822 0.071800 0.996072
vn -0.636342 0.342285 0.691310
vn -0.950465 0.044523 -0.307628
vn -0.812102 -0.105530 -0.573894
vn -0.364854 0.171488 0.915136
vn -0.844954 0.505518 -0.174657
vn -0.415477 0.482895 0.770838
vn -0.843400 -0.127423 -0.521958
vn -0.923460 0.345517 0.166852
vn 0.377366 -0.316148 -0.870428
vn -0.514352 -0.851554 -0.101474
vn -0.819881 -0.561402 -0.112353
vn -0.955283 -0.290577 0.054769
vn -0.751774 -0.138531 0.644706
vn -0.498168 0.116422 0.859229
vn -0.922077 -0.257360 -0.289032
vn -0.854782 -0.297011 -0.425596
vn -0.880170 -0.289172 -0.376405
vn -0.311138 -0.808475 0.499560
vn -0.532469 0.225817 0.815772
vn -0.999283 0.001502 0.037818
vn -0.985204 0.059870 -0.160586
vn -0.068665 0.916753 0.393510
vn -0.733179 0.365463 0.573485
vn -0.864485 0.370412 0.339795
vn -0.870957 0.374667 0.317896
vn -0.778534 -0.150689 0.609243
vn -0.643062 -0.231855 0.729873
vn -0.153353 0.931973 0.328495
vn -0.356913 0.013199 0.934044
vn -0.512634 -0.657744 0.551887
vn -0.808914 0.062059 0.584643
vn -0.327574 -0.667542 -0.668642
vn -0.860997 0.174236 -0.477835
vn -0.036948 -0.999283 -0.008259
vn -0.787789 0.180320 0.588960
vn -0.965946 0.113908 0.232320
vn -0.184041 -0.966731 -0.177651
vn -0.658457 0.072418 0.749126
vn -0.823133 0.088621 -0.560891
vn -0.708079 0.211616 -0.673679
vn -0.935714 -0.258538 0.239995
vn -0.502798 -0.393965 0.769406
vn -0.976203 -0.086296 0.198950
vn -0.422280 -0.270841 0.865058
vn -0.628907 0.743047 0.228816
vn -0.977137 0.102607 -0.186214
vn -0.868338 0.465274 -0.171779
vn -0.770117 0.631010 -0.093521
vn -0.751788 0.351405 0.557968
vn -0.171643 0.375066 -0.910969
vn -0.054911 0.458722 -0.886882
vn -0.045795 0.978064 -0.203207
vn 0.121880 0.946960 -0.297343
vn -0.739409 0.001621 0.673255
vn -0.480847 0.328462 0.812957
vn -0.853489 -0.289740 -0.433136
vn -0.964342 0.264659 0.000019
vn 0.978531 0.168875 -0.118145
vn -0.795775 0.065666 0.602022
vn -0.890909 -0.050802 -0.451332
vn 0.350379 -0.506433 -0.787883
vn 0.205150 0.020195 0.978522
vn 0.372293 -0.741170 -0.558628
vn 0.239456 -0.754034 -0.611631
vn -0.896158 -0.397312 0.197594
vn -0.894356 -0.371668 0.248979
vn -0.797650 0.181831 0.575058
vn -0.534673 0.414746 0.736281
vn -0.296243 0.900313 -0.318867
vn 0.506215 0.738728 -0.445002
vn -0.102649 0.626343 -0.772760
vn 0.937998 0.323452 0.124656
vn 0.132649 -0.505470 -0.852587
vn 0.172789 -0.454803 -0.873669
vn -0.950596 0.019648 -0.309810
vn -0.918697 -0.228286 -0.322306
vn -0.781559 0.104707 0.614981
vn -0.804801 0.117301 0.581839
vn 0.208301 0.377289 0.902366
vn 0.913564 -0.393719 0.101915
vn 0.305235 -0.381556 -0.872494
vn 0.224040 -0.632285 -0.741634
vn -0.937951 -0.265720 -0.222802
vn -0.896905 -0.089623 -0.433047
vn -0.790873 0.241413 0.562352
vn -0.779007 0.224042 0.585623
vn 0.187769 0.216099 0.958146
vn 0.212494 0.235792 0.948287
vn 0.929371 -0.086685 0.358825
vn -0.956541 -0.053968 -0.286560
vn 0.177273 -0.441247 -0.879702
vn 0.982283 -0.133565 0.131459
vn 0.315435 0.112557 0.942248
vn 0.963111 -0.187357 0.193171
vn 0.157083 0.018274 0.987416
vn -0.909761 0.001768 -0.415130
vn 0.238733 -0.444983 -0.863132
vn 0.267286 -0.725209 -0.634531
vn 0.259218 -0.729443 -0.633024
vn -0.642623 -0.676777 0.359177
vn -0.733058 -0.502252 0.458661
vn -0.449982 0.352738 0.820422
vn -0.508257 0.310038 0.803462
vn 0.294657 0.806451 0.512654
vn 0.339988 0.822352 0.456230
vn 0.762464 -0.177697 -0.622151
vn 0.799607 0.163749 -0.577768
vn -0.213445 -0.116426 0.969993
vn 0.717020 0.471129 0.513732
vn 0.110156 0.969699 -0.218060
vn 0.154835 0.975354 -0.157198
vn 0.226576 0.955222 -0.190303
vn 0.434227 0.898783 0.060290
vn 0.515414 0.856506 0.027300
vn -0.492780 0.197049 0.847549
vn -0.599272 -0.084902 0.796031
vn 0.196870 -0.750747 -0.630572
vn 0.120758 -0.940446 0.317772
vn 0.374059 -0.777115 -0.506134
vn 0.277052 -0.832390 -0.479967
vn 0.564491 -0.727827 -0.389381
vn 0.254348 0.372273 -0.892592
vn -0.093969 0.994514 0.045964
vn 0.358732 0.901074 0.243674
vn 0.646952 -0.427572 -0.631376
vn 0.682949 -0.405245 -0.607747
vn -0.543461 0.128092 0.829604
vn -0.579792 0.133077 0.803823
vn 0.230950 0.909117 0.346653
vn -0.405322 0.228745 0.885093
vn -0.743519 -0.625808 0.235677
vn -0.613302 -0.775529 0.149718
vn 0.614380 -0.417734 -0.669355
vn -0.603122 0.371696 0.705752
vn 0.691853 -0.457823 -0.558335
vn 0.186786 -0.678363 -0.710587
vn -0.848206 -0.527015 0.052931
vn 0.546361 0.268574 0.793321
vn -0.621447 0.166935 0.765465
vn -0.755406 -0.653359 -0.049841
vn -0.208852 0.854987 0.474740
vn -0.215940 0.845982 0.487529
vn 0.713177 -0.428287 -0.554931
vn 0.108322 0.947939 0.299464
vn -0.641571 0.221427 0.734409
vn -0.628782 -0.688206 0.361947
vn 0.882091 -0.016768 -0.470780
vn -0.511863 0.390207 -0.765333
vn -0.588321 0.343535 -0.732026
vn -0.788041 0.113794 0.605014
vn -0.777695 0.080078 0.623520
vn 0.603804 -0.206424 0.769942
vn 0.516341 -0.277641 0.810128
vn -0.904227 -0.134204 0.405416
vn 0.575904 -0.073845 0.814175
vn -0.571213 -0.109647 -0.813446
vn -0.768182 -0.212801 0.603832
vn -0.758537 -0.153992 0.633173
vn 0.390252 -0.377375 0.839816
vn -0.843582 0.219599 0.490047
vn 0.556867 -0.403069 0.726247
vn 0.859221 0.034578 -0.510435
vn -0.783105 0.116661 0.610850
vn 0.631838 -0.193451 0.750571
vn -0.813821 0.074044 0.576379
vn -0.760186 0.110327 -0.640269
vn -0.570075 -0.107118 -0.814580
vn 0.071300 -0.187453 -0.979683
vn 0.721854 -0.381536 -0.577371
vn 0.641242 -0.215161 0.736556
vn 0.936438 -0.262444 -0.232823
vn -0.554473 0.384035 -0.738293
vn -0.805544 0.286109 0.518884
vn 0.600032 -0.063175 0.797478
vn 0.872981 0.057826 -0.484314
vn -0.734213 0.149685 -0.662213
vn 0.904609 -0.170826 -0.390514
vn 0.841595 -0.196026 -0.503281
vn -0.561504 0.042334 -0.826390
vn -0.804650 -0.083631 0.587830
vn -0.919986 0.064280 0.386643
vn 0.642554 -0.284156 0.711604
vn 0.587852 -0.305046 0.749251
vn 0.883550 0.137184 -0.447795
vn 0.175731 0.062647 -0.982443
vn 0.938877 -0.335728 0.076141
vn -0.901692 0.111182 -0.417841
vn -0.216122 -0.976365 0.001635
vn -0.213485 -0.976946 0.000898
vn -0.557237 0.807958 0.191548
vn -0.551953 0.403201 -0.729916
vn 0.730959 0.450230 0.512827
vn -0.570234 0.805975 0.158865
vn 0.821678 0.401720 0.404309
vn -0.215297 -0.976374 0.018449
vn -0.219206 -0.975438 0.021653
vn -0.473454 0.879029 0.056128
vn -0.194003 0.455308 0.868940
vn 0.799464 0.545678 0.251181
vn -0.126177 -0.988793 -0.079803

f 1/1/1 2/2/1 3/3/1
f 4/4/2 5/5/2 6/6/2
f 4/4/3 6/7/3 7/8/3
f 5/9/4 8/10/4 9/11/4
f 10/12/5 11/13/5 9/14/5
f 6/6/6 11/15/6 7/8/6
f 6/6/7 12/16/7 11/13/7
f 12/17/8 5/5/8 9/14/8
f 6/6/9 5/5/9 12/17/9
f 11/13/10 12/18/10 9/19/10
f 13/20/11 14/21/11 15/22/11
f 14/21/12 13/20/12 16/23/12
f 16/24/13 13/20/13 17/25/13
f 15/22/14 14/21/14 18/26/14
f 14/21/15 19/27/15 18/26/15
f 18/26/16 20/28/16 21/29/16
f 18/26/17 19/27/17 20/28/17
f 20/28/18 3/30/18 21/29/18
f 5/9/19 22/31/19 23/32/19
f 24/33/20 25/34/20 26/35/20
f 27/36/21 25/34/21 9/37/21
f 28/38/22 27/39/22 29/40/22
f 30/41/23 25/34/23 24/33/23
f 25/34/24 30/41/24 10/42/24
f 30/41/25 24/33/25 31/43/25
f 24/33/26 26/44/26 32/45/26
f 33/46/27 34/47/27 5/9/27
f 4/4/28 22/31/28 5/9/28
f 26/35/29 25/34/29 27/39/29
f 33/46/30 35/48/30 34/47/30
f 32/45/31 26/35/31 28/38/31
f 23/32/32 33/46/32 5/9/32
f 26/35/33 27/39/33 28/38/33
f 28/38/34 29/40/34 36/49/34
f 35/50/35 37/51/35 29/40/35
f 28/38/36 38/52/36 32/45/36
f 36/49/37 38/52/37 28/38/37
f 36/49/38 37/53/38 39/54/38
f 39/55/39 37/56/39 40/57/39
f 41/58/40 42/59/40 39/55/40
f 39/55/41 40/57/41 41/58/41
f 36/49/42 29/40/42 37/51/42
f 37/56/43 35/48/43 33/46/43
f 37/56/44 33/46/44 40/57/44
f 40/57/45 33/46/45 43/60/45
f 40/57/46 43/60/46 41/58/46
f 33/46/47 23/32/47 43/60/47
f 44/61/48 45/62/48 30/63/48
f 15/64/49 46/65/49 45/62/49
f 46/66/50 47/67/50 10/68/50
f 47/67/51 7/69/51 11/70/51
f 45/62/52 44/61/52 17/71/52
f 44/61/53 30/63/53 31/72/53
f 13/73/54 15/64/54 45/62/54
f 46/65/55 10/74/55 45/62/55
f 45/62/56 10/74/56 30/63/56
f 47/67/57 11/70/57 10/68/57
f 47/67/58 48/75/58 7/69/58
f 46/66/59 15/76/59 47/67/59
f 18/77/60 47/67/60 15/76/60
f 47/67/61 18/77/61 48/75/61
f 18/77/62 21/78/62 48/75/62
f 13/73/63 45/62/63 17/71/63
f 49/79/64 35/50/64 29/40/64
f 8/80/65 27/81/65 9/82/65
f 34/47/66 50/83/66 5/84/66
f 27/36/67 49/79/67 29/40/67
f 35/48/68 51/85/68 52/86/68
f 35/50/69 49/79/69 51/87/69
f 52/86/70 50/83/70 34/47/70
f 35/48/71 52/86/71 34/47/71
f 5/84/72 50/83/72 8/10/72
f 53/88/73 27/81/73 8/80/73
f 53/88/74 49/79/74 27/36/74
f 54/89/75 55/90/75 56/91/75
f 57/92/76 55/90/76 58/93/76
f 59/94/77 60/95/77 55/90/77
f 61/96/78 54/89/78 56/91/78
f 39/97/79 61/96/79 36/98/79
f 36/98/80 61/96/80 56/91/80
f 36/98/81 56/91/81 38/99/81
f 62/100/82 63/101/82 64/102/82
f 65/103/83 64/102/83 54/89/83
f 61/96/84 65/103/84 54/89/84
f 66/104/85 67/105/85 62/100/85
f 55/90/86 60/95/86 68/106/86
f 69/107/87 68/106/87 60/95/87
f 69/107/88 70/108/88 68/106/88
f 58/109/89 55/90/89 68/106/89
f 68/106/90 71/110/90 58/111/90
f 62/100/91 67/105/91 63/101/91
f 64/102/92 63/101/92 69/107/92
f 70/108/93 71/110/93 68/106/93
f 58/111/94 71/110/94 72/112/94
f 56/91/95 57/92/95 38/113/95
f 55/90/96 57/114/96 56/91/96
f 73/115/97 74/116/97 38/113/97
f 58/109/98 72/112/98 73/115/98
f 57/117/99 58/111/99 73/115/99
f 57/92/100 73/115/100 38/113/100
f 73/115/101 72/112/101 74/116/101
f 39/97/102 75/118/102 61/96/102
f 75/118/103 39/97/103 76/119/103
f 64/102/104 59/94/104 54/89/104
f 64/102/105 60/95/105 59/94/105
f 54/89/106 59/94/106 55/90/106
f 64/102/107 69/107/107 60/95/107
f 65/103/108 66/104/108 62/100/108
f 65/103/109 61/96/109 75/118/109
f 75/118/110 76/119/110 65/103/110
f 66/104/111 65/103/111 76/119/111
f 62/100/112 64/102/112 65/103/112
f 39/97/113 42/120/113 76/119/113
f 77/121/114 76/119/114 42/120/114
f 67/105/115 76/119/115 77/121/115
f 66/104/116 76/119/116 67/105/116
f 9/82/117 25/34/117 10/42/117
f 51/122/118 49/123/118 78/124/118
f 79/125/119 50/126/119 52/127/119
f 52/127/120 51/122/120 79/125/120
f 80/128/121 81/129/121 53/130/121
f 51/122/122 78/124/122 79/125/122
f 82/131/123 50/126/123 79/125/123
f 50/126/124 82/131/124 8/132/124
f 53/133/125 78/124/125 49/123/125
f 83/134/126 84/135/126 85/136/126
f 84/135/127 83/134/127 86/137/127
f 86/137/128 87/138/128 84/135/128
f 88/139/129 84/135/129 87/138/129
f 87/138/130 89/140/130 88/139/130
f 90/141/131 88/139/131 89/140/131
f 91/142/132 92/143/132 90/141/132
f 90/141/133 89/140/133 91/142/133
f 85/136/134 92/144/134 91/145/134
f 91/145/135 83/134/135 85/136/135
f 80/128/136 93/146/136 83/134/136
f 94/147/137 83/134/137 93/146/137
f 93/146/138 87/138/138 94/147/138
f 87/138/139 93/146/139 95/148/139
f 95/148/140 96/149/140 87/138/140
f 89/140/141 87/138/141 96/149/141
f 97/150/142 91/142/142 89/140/142
f 97/151/143 81/129/143 80/128/143
f 8/132/144 82/131/144 80/128/144
f 93/146/145 80/128/145 98/152/145
f 98/152/146 95/148/146 93/146/146
f 95/148/147 82/131/147 79/125/147
f 79/125/148 78/124/148 95/148/148
f 96/149/149 95/148/149 78/124/149
f 78/124/150 53/133/150 81/153/150
f 81/153/151 96/149/151 78/124/151
f 80/128/152 53/130/152 8/154/152
f 94/147/153 87/138/153 86/137/153
f 86/137/154 83/134/154 94/147/154
f 97/151/155 83/134/155 91/145/155
f 89/140/156 96/149/156 97/150/156
f 80/128/157 83/134/157 97/151/157
f 81/153/158 97/150/158 96/149/158
f 82/131/159 95/148/159 98/152/159
f 98/152/160 80/128/160 82/131/160
f 85/136/161 99/155/161 100/156/161
f 99/155/162 85/136/162 84/135/162
f 84/135/163 101/157/163 99/155/163
f 101/157/164 84/135/164 88/139/164
f 88/139/165 90/141/165 101/157/165
f 102/158/166 101/157/166 90/141/166
f 90/141/167 103/159/167 102/158/167
f 103/159/168 90/141/168 92/143/168
f 92/144/169 85/136/169 103/160/169
f 100/156/170 103/160/170 85/136/170
f 104/161/171 105/162/171 106/163/171
f 107/164/172 106/163/172 108/165/172
f 109/166/173 110/167/173 103/168/173
f 109/166/174 111/169/174 104/161/174
f 104/161/175 110/167/175 109/166/175
f 104/161/176 111/169/176 112/170/176
f 113/171/177 112/170/177 111/169/177
f 106/163/178 110/167/178 104/161/178
f 104/161/179 112/170/179 105/162/179
f 105/172/180 113/173/180 111/174/180
f 113/173/181 105/172/181 112/175/181
f 105/172/182 111/174/182 109/176/182
f 109/176/183 106/177/183 105/172/183
f 109/176/184 100/178/184 106/177/184
f 103/179/185 100/178/185 109/176/185
f 102/180/186 103/168/186 110/167/186
f 106/163/187 114/181/187 108/165/187
f 115/182/188 116/183/188 106/177/188
f 116/184/189 117/185/189 118/186/189
f 108/165/190 114/181/190 119/187/190
f 119/187/191 120/188/191 108/165/191
f 118/189/192 121/190/192 114/191/192
f 114/191/193 121/190/193 117/192/193
f 116/193/194 115/194/194 119/187/194
f 120/188/195 119/187/195 115/194/195
f 121/195/196 118/186/196 117/185/196
f 108/165/197 101/196/197 102/180/197
f 115/182/198 106/177/198 100/178/198
f 100/178/199 99/197/199 115/182/199
f 120/188/200 99/198/200 101/196/200
f 106/163/201 107/164/201 110/167/201
f 108/165/202 120/188/202 101/196/202
f 120/188/203 115/194/203 99/198/203
f 107/164/204 102/180/204 110/167/204
f 102/180/205 107/164/205 108/165/205
f 118/199/206 106/177/206 116/183/206
f 114/181/207 106/163/207 118/200/207
f 114/191/208 117/192/208 119/201/208
f 117/192/209 116/202/209 119/201/209
f 122/203/210 123/204/210 124/205/210
f 125/206/211 126/207/211 123/208/211
f 125/206/212 123/208/212 127/209/212
f 125/210/213 128/211/213 126/212/213
f 128/211/214 129/213/214 126/212/214
f 128/214/215 124/215/215 129/216/215
f 122/217/216 124/215/216 128/214/216
f 130/218/217 128/211/217 125/219/217
f 131/220/218 122/221/218 130/222/218
f 132/223/219 125/224/219 127/225/219
f 132/226/220 131/227/220 125/219/220
f 133/228/221 131/227/221 132/226/221
f 133/229/222 122/221/222 131/220/222
f 130/218/223 125/219/223 131/227/223
f 128/214/224 130/222/224 122/221/224
f 127/209/225 123/204/225 122/203/225
f 16/230/226 133/228/226 14/231/226
f 16/232/227 3/3/227 133/229/227
f 14/231/228 133/228/228 132/226/228
f 14/233/229 132/223/229 19/234/229
f 132/223/230 127/225/230 19/234/230
f 20/235/231 19/234/231 127/225/231
f 20/235/232 127/225/232 122/236/232
f 3/3/233 122/221/233 133/229/233
f 3/237/234 20/235/234 122/236/234
f 134/238/235 135/239/235 136/240/235
f 137/241/236 135/242/236 134/243/236
f 138/244/237 139/245/237 137/246/237
f 138/247/238 136/248/238 139/249/238
f 134/238/239 136/240/239 123/208/239
f 138/247/240 123/250/240 136/248/240
f 123/250/241 138/247/241 124/251/241
f 134/238/242 123/208/242 126/252/242
f 129/253/243 134/243/243 126/254/243
f 137/241/244 134/243/244 129/253/244
f 138/244/245 137/246/245 129/255/245
f 138/244/246 129/255/246 124/256/246
f 136/257/247 140/258/247 139/259/247
f 136/257/248 141/260/248 140/258/248
f 142/261/249 139/259/249 140/258/249
f 135/262/250 143/263/250 141/260/250
f 141/264/251 143/265/251 142/266/251
f 142/266/252 140/267/252 141/264/252
f 137/268/253 143/263/253 135/262/253
f 135/262/254 141/260/254 136/257/254
f 139/259/255 142/261/255 137/268/255
f 137/268/256 144/269/256 143/263/256
f 137/268/257 142/261/257 144/269/257
f 143/265/258 145/270/258 146/271/258
f 146/271/259 142/266/259 143/265/259
f 143/263/260 144/269/260 145/272/260
f 144/269/261 146/273/261 145/272/261
f 146/273/262 144/269/262 142/261/262
f 3/274/263 16/275/263 17/276/263
f 147/5/264 4/4/264 148/6/264
f 148/7/265 4/4/265 7/8/265
f 149/10/266 147/9/266 150/11/266
f 151/13/267 152/12/267 150/14/267
f 151/15/268 148/6/268 7/8/268
f 153/16/269 148/6/269 151/13/269
f 147/5/270 153/17/270 150/14/270
f 147/5/271 148/6/271 153/17/271
f 153/18/272 151/13/272 150/19/272
f 154/21/273 155/20/273 156/22/273
f 155/20/274 154/21/274 157/23/274
f 155/20/275 157/24/275 17/25/275
f 154/21/276 156/22/276 158/26/276
f 159/27/277 154/21/277 158/26/277
f 160/28/278 158/26/278 21/29/278
f 159/27/279 158/26/279 160/28/279
f 3/30/280 160/28/280 21/29/280
f 22/31/281 147/9/281 23/32/281
f 161/34/282 24/33/282 162/35/282
f 161/34/283 163/36/283 150/37/283
f 163/39/284 164/38/284 165/40/284
f 161/34/285 166/41/285 24/33/285
f 166/41/286 161/34/286 152/42/286
f 24/33/287 166/41/287 31/43/287
f 162/44/288 24/33/288 32/45/288
f 167/47/289 168/46/289 147/9/289
f 22/31/290 4/4/290 147/9/290
f 161/34/291 162/35/291 163/39/291
f 169/48/292 168/46/292 167/47/292
f 162/35/293 32/45/293 164/38/293
f 168/46/294 23/32/294 147/9/294
f 163/39/295 162/35/295 164/38/295
f 165/40/296 164/38/296 170/49/296
f 171/51/297 169/50/297 165/40/297
f 38/52/298 164/38/298 32/45/298
f 38/52/299 170/49/299 164/38/299
f 171/53/300 170/49/300 172/54/300
f 171/56/301 172/55/301 173/57/301
f 42/59/302 41/58/302 172/55/302
f 173/57/303 172/55/303 41/58/303
f 165/40/304 170/49/304 171/51/304
f 169/48/305 171/56/305 168/46/305
f 168/46/306 171/56/306 173/57/306
f 168/46/307 173/57/307 43/60/307
f 43/60/308 173/57/308 41/58/308
f 23/32/309 168/46/309 43/60/309
f 174/62/310 44/61/310 166/63/310
f 175/65/311 156/64/311 174/62/311
f 176/67/312 175/66/312 152/68/312
f 7/69/313 176/67/313 151/70/313
f 44/61/314 174/62/314 17/71/314
f 166/63/315 44/61/315 31/72/315
f 156/64/316 155/73/316 174/62/316
f 152/74/317 175/65/317 174/62/317
f 152/74/318 174/62/318 166/63/318
f 151/70/319 176/67/319 152/68/319
f 48/75/320 176/67/320 7/69/320
f 156/76/321 175/66/321 176/67/321
f 176/67/322 158/77/322 156/76/322
f 158/77/323 176/67/323 48/75/323
f 21/78/324 158/77/324 48/75/324
f 174/62/325 155/73/325 17/71/325
f 169/50/326 177/79/326 165/40/326
f 163/81/327 149/80/327 150/82/327
f 178/83/328 167/47/328 147/84/328
f 177/79/329 163/36/329 165/40/329
f 179/85/330 169/48/330 180/86/330
f 177/79/331 169/50/331 179/87/331
f 178/83/332 180/86/332 167/47/332
f 180/86/333 169/48/333 167/47/333
f 178/83/334 147/84/334 149/10/334
f 163/81/335 181/88/335 149/80/335
f 177/79/336 181/88/336 163/36/336
f 182/90/337 183/89/337 184/91/337
f 182/90/338 185/92/338 186/93/338
f 187/95/339 188/94/339 182/90/339
f 183/89/340 189/96/340 184/91/340
f 189/96/341 172/97/341 170/98/341
f 189/96/342 170/98/342 184/91/342
f 184/91/343 170/98/343 38/99/343
f 63/101/344 190/100/344 191/102/344
f 191/102/345 192/103/345 183/89/345
f 192/103/346 189/96/346 183/89/346
f 67/105/347 193/104/347 190/100/347
f 187/95/348 182/90/348 194/106/348
f 194/106/349 69/107/349 187/95/349
f 70/108/350 69/107/350 194/106/350
f 182/90/351 186/109/351 194/106/351
f 71/110/352 194/106/352 186/111/352
f 67/105/353 190/100/353 63/101/353
f 63/101/354 191/102/354 69/107/354
f 71/110/355 70/108/355 194/106/355
f 71/110/356 186/111/356 72/112/356
f 185/92/357 184/91/357 38/113/357
f 185/114/358 182/90/358 184/91/358
f 74/116/359 195/115/359 38/113/359
f 72/112/360 186/109/360 195/115/360
f 186/111/361 185/117/361 195/115/361
f 195/115/362 185/92/362 38/113/362
f 72/112/363 195/115/363 74/116/363
f 196/118/364 172/97/364 189/96/364
f 172/97/365 196/118/365 197/119/365
f 188/94/366 191/102/366 183/89/366
f 187/95/367 191/102/367 188/94/367
f 188/94/368 183/89/368 182/90/368
f 69/107/369 191/102/369 187/95/369
f 193/104/370 192/103/370 190/100/370
f 189/96/371 192/103/371 196/118/371
f 197/119/372 196/118/372 192/103/372
f 192/103/373 193/104/373 197/119/373
f 191/102/374 190/100/374 192/103/374
f 42/120/375 172/97/375 197/119/375
f 197/119/376 77/121/376 42/120/376
f 197/119/377 67/105/377 77/121/377
f 197/119/378 193/104/378 67/105/378
f 161/34/379 150/82/379 152/42/379
f 177/123/380 179/122/380 198/124/380
f 178/126/381 199/125/381 180/127/381
f 179/122/382 180/127/382 199/125/382
f 200/129/383 201/128/383 181/130/383
f 198/124/384 179/122/384 199/125/384
f 178/126/385 202/131/385 199/125/385
f 202/131/386 178/126/386 149/132/386
f 198/124/387 181/133/387 177/123/387
f 203/135/388 204/134/388 205/136/388
f 204/134/389 203/135/389 206/137/389
f 207/138/390 206/137/390 203/135/390
f 203/135/391 208/139/391 207/138/391
f 209/140/392 207/138/392 208/139/392
f 208/139/393 210/141/393 209/140/393
f 211/143/394 212/142/394 210/141/394
f 209/140/395 210/141/395 212/142/395
f 211/144/396 205/136/396 212/145/396
f 204/134/397 212/145/397 205/136/397
f 213/146/398 201/128/398 204/134/398
f 204/134/399 214/147/399 213/146/399
f 207/138/400 213/146/400 214/147/400
f 213/146/401 207/138/401 215/148/401
f 216/149/402 215/148/402 207/138/402
f 207/138/403 209/140/403 216/149/403
f 212/142/404 217/150/404 209/140/404
f 200/129/405 217/151/405 201/128/405
f 202/131/406 149/132/406 201/128/406
f 201/128/407 213/146/407 218/152/407
f 215/148/408 218/152/408 213/146/408
f 202/131/409 215/148/409 199/125/409
f 198/124/410 199/125/410 215/148/410
f 215/148/411 216/149/411 198/124/411
f 181/133/412 198/124/412 200/153/412
f 216/149/413 200/153/413 198/124/413
f 181/130/414 201/128/414 149/154/414
f 207/138/415 214/147/415 206/137/415
f 204/134/416 206/137/416 214/147/416
f 204/134/417 217/151/417 212/145/417
f 216/149/418 209/140/418 217/150/418
f 204/134/419 201/128/419 217/151/419
f 217/150/420 200/153/420 216/149/420
f 215/148/421 202/131/421 218/152/421
f 201/128/422 218/152/422 202/131/422
f 219/155/423 205/136/423 220/156/423
f 205/136/424 219/155/424 203/135/424
f 221/157/425 203/135/425 219/155/425
f 203/135/426 221/157/426 208/139/426
f 210/141/427 208/139/427 221/157/427
f 221/157/428 222/158/428 210/141/428
f 223/159/429 210/141/429 222/158/429
f 210/141/430 223/159/430 211/143/430
f 205/136/431 211/144/431 223/160/431
f 223/160/432 220/156/432 205/136/432
f 224/162/433 225/161/433 226/163/433
f 226/163/434 227/164/434 228/165/434
f 229/167/435 230/166/435 223/168/435
f 231/169/436 230/166/436 225/161/436
f 229/167/437 225/161/437 230/166/437
f 231/169/438 225/161/438 232/170/438
f 232/170/439 233/171/439 231/169/439
f 229/167/440 226/163/440 225/161/440
f 232/170/441 225/161/441 224/162/441
f 233/173/442 224/172/442 231/174/442
f 224/172/443 233/173/443 232/175/443
f 231/174/444 224/172/444 230/176/444
f 226/177/445 230/176/445 224/172/445
f 220/178/446 230/176/446 226/177/446
f 220/178/447 223/179/447 230/176/447
f 223/168/448 222/180/448 229/167/448
f 234/181/449 226/163/449 228/165/449
f 235/183/450 236/182/450 226/177/450
f 237/185/451 235/184/451 238/186/451
f 234/181/452 228/165/452 239/187/452
f 240/188/453 239/187/453 228/165/453
f 241/190/454 238/189/454 234/191/454
f 241/190/455 234/191/455 237/192/455
f 236/194/456 235/193/456 239/187/456
f 239/187/457 240/188/457 236/194/457
f 238/186/458 241/195/458 237/185/458
f 221/196/459 228/165/459 222/180/459
f 226/177/460 236/182/460 220/178/460
f 219/197/461 220/178/461 236/182/461
f 219/198/462 240/188/462 221/196/462
f 227/164/463 226/163/463 229/167/463
f 240/188/464 228/165/464 221/196/464
f 236/194/465 240/188/465 219/198/465
f 222/180/466 227/164/466 229/167/466
f 227/164/467 222/180/467 228/165/467
f 226/177/468 238/199/468 235/183/468
f 226/163/469 234/181/469 238/200/469
f 237/192/470 234/191/470 239/201/470
f 235/202/471 237/192/471 239/201/471
f 242/204/472 243/203/472 244/205/472
f 245/207/473 246/206/473 242/208/473
f 242/208/474 246/206/474 247/209/474
f 248/211/475 246/210/475 245/212/475
f 249/213/476 248/211/476 245/212/476
f 244/215/477 248/214/477 249/216/477
f 244/215/478 243/217/478 248/214/478
f 248/211/479 250/218/479 246/219/479
f 243/221/480 251/220/480 250/222/480
f 246/224/481 252/223/481 247/225/481
f 251/227/482 252/226/482 246/219/482
f 251/227/483 253/228/483 252/226/483
f 243/221/484 253/229/484 251/220/484
f 246/219/485 250/218/485 251/227/485
f 250/222/486 248/214/486 243/221/486
f 242/204/487 247/209/487 243/203/487
f 253/228/488 157/230/488 154/231/488
f 3/3/489 157/232/489 253/229/489
f 253/228/490 154/231/490 252/226/490
f 252/223/491 154/233/491 159/234/491
f 247/225/492 252/223/492 159/234/492
f 159/234/493 160/235/493 247/225/493
f 247/225/494 160/235/494 243/236/494
f 243/221/495 3/3/495 253/229/495
f 160/235/496 3/237/496 243/236/496
f 254/239/497 255/238/497 256/240/497
f 254/242/498 257/241/498 255/243/498
f 258/245/499 259/244/499 257/246/499
f 256/248/500 259/247/500 258/249/500
f 256/240/501 255/238/501 242/208/501
f 242/250/502 259/247/502 256/248/502
f 259/247/503 242/250/503 244/251/503
f 242/208/504 255/238/504 245/252/504
f 255/243/505 249/253/505 245/254/505
f 255/243/506 257/241/506 249/253/506
f 257/246/507 259/244/507 249/255/507
f 249/255/508 259/244/508 244/256/508
f 260/258/509 256/257/509 258/259/509
f 261/260/510 256/257/510 260/258/510
f 258/259/511 262/261/511 260/258/511
f 263/263/512 254/262/512 261/260/512
f 263/265/513 261/264/513 262/266/513
f 260/267/514 262/266/514 261/264/514
f 263/263/515 257/268/515 254/262/515
f 261/260/516 254/262/516 256/257/516
f 262/261/517 258/259/517 257/268/517
f 264/269/518 257/268/518 263/263/518
f 262/261/519 257/268/519 264/269/519
f 265/270/520 263/265/520 266/271/520
f 262/266/521 266/271/521 263/265/521
f 264/269/522 263/263/522 265/272/522
f 266/273/523 264/269/523 265/272/523
f 264/269/524 266/273/524 262/261/524
f 157/275/525 3/274/525 17/276/525

