mtllib anim_barb_walk_000023.mtl

o fat
usemtl fat.001
s off

v -0.112150 39.437660 -3.472860
v 1.860240 36.144421 6.136090
v 0.204130 39.052002 1.504500
v 0.410170 61.450531 -7.899920
v 10.175780 67.108597 -5.793760
v 2.812830 57.646652 -6.939800
v -0.362600 53.368851 -4.953560
v 8.522140 63.413651 -2.502470
v 7.757850 59.220463 -0.679860
v 6.919220 53.445129 -0.848430
v 4.142630 53.255783 -4.975850
v 6.636460 58.423649 -5.888500
v 8.817100 37.720760 4.838510
v 9.379450 39.751881 -1.686400
v 10.533791 39.298851 -2.174020
v 6.290460 38.742229 4.720750
v 3.993900 37.630531 7.078080
v 4.099480 38.358299 -6.764421
v 3.751570 40.059361 -5.717480
v 0.458530 39.726902 -4.537770
v -0.155690 36.605900 -4.099430
v 0.201120 67.103638 -7.609260
v 0.170300 69.096291 -7.646910
v -0.071490 60.399010 6.062060
v 4.804760 60.440212 4.352430
v 5.463290 64.625740 5.471350
v 8.738570 64.328415 2.965890
v 5.198520 67.427841 5.513880
v 11.211270 67.549309 2.007110
v 4.497020 53.513420 4.054040
v 1.102870 53.242943 5.311190
v -0.365200 67.334969 6.268060
v 5.457120 71.850906 -4.320970
v 11.718169 69.059227 -4.831470
v 11.925779 69.365623 -1.051380
v 2.463110 71.939621 3.912720
v 5.580630 73.063850 -0.111840
v -0.335940 71.118973 4.303310
v 2.663080 77.439926 0.711300
v 3.511510 75.067459 -2.251750
v 0.519540 75.210144 -3.389890
v 0.178080 78.094070 -0.532040
v 0.800240 73.141510 -5.168170
v 0.489180 48.916100 5.632990
v 5.364230 48.910927 5.032270
v 8.418850 48.559181 -0.145200
v 4.995480 47.965103 -5.329770
v -0.188040 47.879482 -6.038870
v 11.861580 65.850311 1.377570
v 10.723690 65.631599 -6.236180
v 13.672190 66.335892 -1.077800
v 13.132730 67.677521 -4.209730
v 8.937580 63.166168 1.680930
v 2.581520 76.880951 6.199550
v 1.180830 75.365990 7.934600
v 2.428710 72.530579 5.001760
v 1.639600 71.462349 6.831610
v 0.698310 73.997375 7.879170
v 1.643460 77.336060 7.735350
v -0.144470 77.206261 8.001181
v 3.177320 78.215439 3.490150
v 0.535690 81.205032 8.120910
v -0.763210 81.155640 8.390590
v 1.701340 78.607315 8.359060
v 2.256590 80.467865 7.338530
v 1.223440 82.546570 5.412940
v -0.414440 82.541725 5.217900
v 0.269850 75.372459 8.458660
v -0.765430 77.952271 8.287920
v -0.900690 75.927551 9.461260
v -0.835060 75.343544 8.831680
v -0.843340 73.761124 8.847470
v 0.535200 70.999008 8.418261
v -0.861440 70.973526 8.907750
v 3.025130 80.553391 3.517950
v 2.543030 81.794769 2.955920
v -0.045170 82.042740 1.783120
v 13.820539 63.642639 0.530900
v 14.657579 64.622589 -2.979570
v 9.767350 58.226261 -4.168320
v 10.991560 58.298832 0.277140
v 11.432019 63.292751 -6.393200
v 12.405200 54.106998 -4.324340
v 12.634380 50.625618 -1.167910
v 11.626249 53.081150 -2.708330
v 15.597349 54.169128 -5.867090
v 16.625021 55.897671 -3.564490
v 14.696130 52.160622 0.087590
v 16.028179 55.088783 -1.614780
v 14.214350 54.251801 0.747090
v 14.037829 53.055283 -1.441590
v 11.882310 55.000031 -0.243100
v 14.483280 56.952682 -5.792920
v 15.076099 55.746059 -5.894750
v 15.845751 61.155849 -3.229860
v 14.800810 60.262360 0.007440
v 13.270730 54.704964 -1.040610
v 13.593050 59.512230 -6.623710
v 7.809750 49.545952 4.059740
v 6.679870 51.031399 3.727490
v 8.849380 50.022301 5.121050
v 8.567610 51.840969 5.552280
v 7.325110 52.690491 4.858040
v 3.865900 53.697746 8.622750
v 3.547050 52.881691 8.337090
v 4.629500 52.318199 7.852290
v 5.515960 52.677086 7.991870
v 5.679500 51.434021 9.133650
v 4.637890 53.682022 6.270520
v 5.063470 53.492882 7.587540
v 3.103010 53.891811 7.854050
v 2.714580 53.430473 9.500050
v 2.212410 53.537987 8.831610
v 3.967440 50.925468 10.475620
v 5.019190 47.441048 6.410650
v 3.814510 46.848267 7.854140
v 2.090990 46.543690 10.196290
v 3.429670 51.579826 9.501710
v 4.565340 47.057301 8.564870
v 6.006370 47.543259 7.341780
v 1.535670 50.473511 11.814700
v 1.542210 27.312592 -1.755950
v 4.145640 24.578979 -10.152220
v 1.410090 20.603859 -5.789120
v 7.430370 27.194401 -2.754170
v 8.840630 21.589050 -7.158390
v 3.944170 28.210449 -5.595660
v 5.201550 23.836000 -0.496620
v 5.283560 18.844500 -3.085090
v 5.352820 25.874540 0.875060
v 5.867660 28.444172 0.693820
v 8.906580 30.763540 -3.400330
v 6.404430 32.735661 3.329590
v 6.696470 13.842811 -14.366790
v 7.521060 11.127729 -15.728800
v 4.846590 13.779970 -17.030949
v 4.940850 10.112680 -13.347179
v 3.052590 13.209761 -13.845800
v 2.514150 11.145710 -16.250599
v 3.740370 10.918810 -20.864470
v 6.982010 11.088970 -20.497961
v 2.387710 4.609700 -15.742030
v 8.528260 4.509570 -14.939631
v 4.664450 3.116140 -11.638611
v 7.042650 1.415140 -12.568450
v 2.983630 0.995260 -12.696939
v -8.570080 67.292816 -7.289200
v -1.847940 57.619980 -7.124040
v -5.462590 64.044281 -3.320320
v -7.197630 59.134258 -1.702470
v -4.956670 53.351460 -3.359810
v -6.374790 53.239159 1.356610
v -5.618090 58.353439 -6.504250
v -9.021900 39.647621 0.093190
v -7.400300 38.629879 6.409470
v -10.235530 39.058651 -0.004770
v -4.997330 41.361954 5.544320
v -4.724040 36.478939 -4.888690
v -4.480630 39.229939 -4.828940
v -0.904490 38.636963 -4.185450
v -4.998540 60.381950 3.761160
v -5.896410 64.551537 4.578790
v -10.645781 64.176361 1.868250
v -5.708470 67.353210 4.581470
v -10.575880 68.542107 1.128680
v -2.454760 53.126141 5.400970
v -10.424139 68.537582 -6.641570
v -4.274930 71.811813 -5.303290
v -11.352349 69.572220 -2.156770
v -2.920440 71.918274 3.371730
v -5.835120 73.151138 -1.123180
v -2.505460 77.453148 0.219630
v -2.666890 75.070511 -2.976880
v -3.837170 48.506668 5.886670
v -8.021871 48.221889 0.840720
v -5.609330 47.338539 -4.989060
v -11.688351 66.356270 0.225630
v -8.433820 64.272591 -7.354460
v -12.945841 67.244919 -2.573800
v -11.791901 65.693001 -5.696560
v -9.982900 64.174942 0.638860
v -2.612380 75.381752 7.524500
v -3.597380 76.906631 5.531520
v -3.591980 72.555801 4.088810
v -2.856860 71.481033 6.345470
v -2.140420 74.009186 7.572270
v -1.316860 77.211143 7.874450
v -3.005530 77.355377 7.232710
v -3.589360 78.243561 2.758570
v -1.974020 81.215469 7.849560
v -3.184930 78.627617 7.830780
v -3.493930 80.491776 6.716810
v -2.056070 82.560188 5.058400
v -1.834430 75.381210 8.231150
v -2.120930 71.010048 8.131081
v -3.427430 80.580200 2.820360
v -2.826160 81.817078 2.375420
v -12.802449 63.833740 -0.619800
v -13.229760 63.696209 -4.363050
v -9.533890 59.091000 0.980980
v -8.368980 58.354458 -3.060450
v -9.369520 61.987473 -6.870890
v -11.586370 49.532360 0.334430
v -9.643790 53.514839 -2.218550
v -9.839800 51.870239 -1.146280
v -12.436430 52.782402 -4.298430
v -14.018040 54.964809 -2.810040
v -12.229470 51.662350 2.207200
v -13.820330 54.734711 -0.636230
v -10.404210 54.059559 2.565980
v -7.997600 54.258442 1.038720
v -11.791269 53.097248 0.461470
v -11.570190 55.611519 -4.887170
v -11.992630 54.402618 -4.664880
v -13.898701 60.112160 -3.920770
v -13.408310 60.298847 -0.428430
v -10.843110 55.761051 0.041530
v -10.828919 57.972832 -6.283340
v -7.217600 47.050850 5.477010
v -5.640420 47.963272 4.963470
v -7.913770 47.955124 6.543470
v -6.879210 49.568371 6.817800
v -5.500880 49.794079 5.995430
v -1.698130 48.619087 9.266089
v -1.637450 49.508881 9.496740
v -2.948060 48.517601 8.880640
v -3.602870 49.215790 9.025720
v -4.165270 48.215469 10.278620
v -2.890740 49.749798 8.534190
v -2.522460 49.667122 7.189280
v -0.922860 49.330383 8.679050
v -0.629380 48.847919 10.341210
v -0.178150 48.701458 9.644500
v -2.708660 47.134010 11.580400
v -4.412570 43.203068 9.306550
v -5.378360 44.147091 7.876110
v -2.785200 42.359791 11.589750
v -2.027630 47.453289 10.531501
v -4.959240 43.741512 10.030220
v -6.167480 44.697891 8.838270
v -0.572550 45.809978 12.843160
v -3.452410 19.198051 4.145920
v -1.279070 28.778780 6.151560
v -1.181470 20.854570 8.692570
v -8.475410 20.269451 6.973740
v -7.116250 27.948971 4.787290
v -3.554940 27.827799 2.172750
v -5.209200 26.797840 8.611600
v -5.264560 21.851980 11.379910
v -5.215040 28.995701 8.854560
v -5.012210 31.382151 7.399410
v -8.629390 31.212139 3.140210
v -5.217610 36.381802 7.479380
v -7.304720 8.297979 13.398649
v -6.371480 10.852860 11.993890
v -4.454120 7.894110 10.967950
v -5.206420 10.706340 15.136710
v -2.360220 8.248550 13.972091
v -2.840640 11.136140 12.826000
v -3.053670 3.536720 13.352560
v -6.134350 3.569000 12.997770
v -3.019350 8.026300 20.404490
v -8.874210 8.311920 20.018429
v -4.946320 11.817150 22.056271
v -7.316070 10.616209 23.591139
v -3.267500 10.643500 24.117210

vt 0.550479 0.485338
vt 0.414517 0.485338
vt 0.489174 0.497239
vt 0.490853 0.675485
vt 0.356970 0.710738
vt 0.458986 0.602657
vt 0.458693 0.603155
vt 0.491001 0.506534
vt 0.357039 0.710738
vt 0.272881 0.708251
vt 0.307767 0.663467
vt 0.329118 0.504113
vt 0.420682 0.504388
vt 0.307693 0.663467
vt 0.420389 0.504181
vt 0.390374 0.619683
vt 0.389206 0.622726
vt 0.390855 0.620128
vt 0.309151 0.663075
vt 0.578845 0.971377
vt 0.529882 0.993867
vt 0.501054 0.950636
vt 0.597833 0.993868
vt 0.684209 0.993870
vt 0.691613 0.940228
vt 0.584242 0.936155
vt 0.602549 0.993867
vt 0.689094 0.993870
vt 0.694409 0.971380
vt 0.730001 0.975635
vt 0.490853 0.781888
vt 0.490853 0.820915
vt 0.240556 0.660920
vt 0.133663 0.660928
vt 0.131880 0.753091
vt 0.060606 0.782384
vt 0.055577 0.663688
vt 0.136145 0.808744
vt 0.060014 0.783494
vt 0.058190 0.859642
vt 0.160773 0.512959
vt 0.067037 0.515196
vt 0.240700 0.512959
vt 0.131877 0.752996
vt 0.240556 0.781375
vt 0.390182 0.870896
vt 0.298691 0.847983
vt 0.294173 0.886121
vt 0.181129 0.899551
vt 0.052544 0.886601
vt 0.145152 0.921474
vt 0.235241 0.891030
vt 0.142740 0.921054
vt 0.172936 0.966074
vt 0.456563 0.999059
vt 0.389917 0.922986
vt 0.429989 0.941889
vt 0.491140 0.942697
vt 0.490646 0.999330
vt 0.490853 0.898039
vt 0.701416 0.118225
vt 0.813217 0.120956
vt 0.790107 0.184348
vt 0.877923 0.002315
vt 0.872775 0.120438
vt 0.505869 0.118716
vt 0.564263 0.119120
vt 0.507564 0.183764
vt 0.697589 0.180917
vt 0.580429 0.182675
vt 0.710756 0.001536
vt 0.701372 0.182427
vt 0.812168 0.002315
vt 0.857243 0.184348
vt 0.697567 0.116528
vt 0.503935 0.000692
vt 0.561277 0.000692
vt 0.688827 -0.000098
vt 0.002866 0.854679
vt 0.027518 0.706813
vt 0.061197 0.782654
vt 0.055608 0.663958
vt 0.251604 0.781884
vt 0.357109 0.710738
vt 0.243886 0.876138
vt 0.247300 0.848527
vt -0.000514 0.880403
vt 0.006948 0.782948
vt 0.674684 0.829607
vt 0.705811 0.784366
vt 0.654033 0.662928
vt 0.703232 0.671848
vt 0.720473 0.730776
vt 0.697736 0.853617
vt 0.729837 0.853035
vt 0.623758 0.856571
vt 0.587609 0.811448
vt 0.658187 0.605708
vt 0.748523 0.593788
vt 0.716351 0.931575
vt 0.747491 0.935506
vt 0.695349 0.885675
vt 0.676247 0.904603
vt 0.649719 0.961956
vt 0.745560 1.001324
vt 0.725611 0.781438
vt 0.747491 0.878462
vt 0.747491 0.808438
vt 0.720379 0.731031
vt 0.747491 0.790807
vt 0.720762 0.730332
vt 0.748639 0.732530
vt 0.746944 0.628012
vt 0.703659 0.671442
vt 0.731857 0.666086
vt 0.747085 0.666819
vt 0.703186 0.671176
vt 0.611291 0.885598
vt 0.604148 0.909350
vt 0.550618 0.823662
vt 0.550618 0.934468
vt 0.625864 0.557513
vt 0.571978 0.557920
vt 0.578607 0.510287
vt 0.669444 0.510287
vt 0.756032 0.560223
vt 0.679695 0.557918
vt 0.877240 0.461159
vt 0.992418 0.461159
vt 0.944262 0.560223
vt 0.756457 0.510287
vt 0.806202 0.560223
vt 0.498275 0.560223
vt 0.875566 0.382888
vt 0.758260 0.308662
vt 0.875912 0.308662
vt 0.759996 0.360654
vt 0.669163 0.382888
vt 0.671223 0.308662
vt 0.584325 0.382888
vt 0.577057 0.308662
vt 0.498223 0.363687
vt 0.498247 0.308662
vt 0.992597 0.308662
vt 0.992439 0.363687
vt 0.759483 0.410364
vt 0.758924 0.382888
vt 0.665903 0.461159
vt 0.580075 0.461159
vt 0.498223 0.402657
vt 0.992438 0.402657
vt 0.760539 0.449273
vt 0.498220 0.461159
vt 0.875438 0.575163
vt 0.762705 0.196431
vt 0.858161 0.196355
vt 0.690657 0.196417
vt 0.588027 0.196417
vt 0.498144 0.196431
vt 0.991918 0.196431
vt 0.375723 0.009258
vt 0.380090 0.017573
vt 0.356438 0.030356
vt 0.342839 0.029458
vt 0.369327 0.043627
vt 0.316032 0.012201
vt 0.336848 0.019568
vt 0.249292 0.041099
vt 0.371147 0.002582
vt 0.416197 0.004791
vt 0.408124 0.000758
vt 0.128136 0.016613
vt 0.154876 0.002573
vt 0.119423 0.002194
vt 0.160447 0.001473
vt 0.065726 0.014292
vt 0.105093 0.028910
vt 0.000825 0.069213
vt 0.000703 0.039244
vt 0.249314 0.055441
vt 0.429228 0.045736
vt 0.102506 0.115410
vt 0.153549 0.117195
vt 0.189513 0.114692
vt 0.228429 0.109580
vt 0.194639 0.033982
vt 0.406548 0.108121
vt 0.355355 0.108206
vt 0.448349 0.035630
vt 0.498209 0.039288
vt 0.461840 0.047992
vt 0.483032 0.114221
vt 0.406174 0.120334
vt 0.355217 0.119080
vt 0.243215 0.037501
vt 0.249314 0.089732
vt 0.000703 0.095058
vt 0.249292 0.105039
vt 0.160984 0.032072
vt 0.413806 0.033644
vt 0.442212 0.108407
vt 0.443088 0.117732
vt 0.023914 0.327327
vt 0.104127 0.227894
vt 0.000784 0.227894
vt 0.216171 0.327327
vt 0.216985 0.228421
vt 0.105699 0.228145
vt 0.104981 0.327662
vt 0.217575 0.327327
vt 0.351490 0.301452
vt 0.217290 0.227894
vt 0.351571 0.227894
vt 0.352420 0.301452
vt 0.489174 0.227894
vt 0.352342 0.227894
vt 0.471690 0.333380
vt 0.351597 0.328057
vt 0.217345 0.328075
vt 0.352312 0.363299
vt 0.470864 0.334174
vt 0.352330 0.328057
vt 0.216660 0.380224
vt 0.216104 0.328075
vt 0.104983 0.328371
vt 0.217232 0.380224
vt 0.351611 0.363299
vt 0.351459 0.420971
vt 0.352499 0.420971
vt 0.351589 0.497239
vt 0.229465 0.497239
vt 0.352627 0.497239
vt 0.229583 0.497239
vt 0.133020 0.497239
vt 0.072972 0.497239
vt 0.025422 0.328212
vt 0.002386 0.497239
vt 0.216130 0.152222
vt 0.223982 0.125749
vt 0.105883 0.155747
vt 0.351732 0.147623
vt 0.223132 0.128232
vt 0.218721 0.149411
vt 0.469070 0.149411
vt 0.483427 0.127273
vt 0.352306 0.146326
vt 0.017963 0.152222
vt 0.104256 0.155747
vt 0.009616 0.131504
vt 0.104128 0.227914
vt 0.000790 0.227921
vt 0.216984 0.228396
vt 0.351571 0.227971
vt 0.217291 0.227882
vt 0.352342 0.227879
vt 0.489111 0.227891
vt 0.948232 0.041698
vt 0.989968 0.003451
vt 0.971575 0.059997
vt 0.909211 0.004273
vt 0.996004 0.120663
vt 0.925604 0.058708
vt 0.885225 0.122889
vt 0.516483 0.798440
vt 0.501430 0.685191
vt 0.597947 0.686709
vt 0.594444 0.793024
vt 0.950876 0.082499
vt 0.943924 0.157220
vt 0.507177 0.624822
vt 0.600053 0.622523
vt 0.901715 0.182549
vt 0.982420 0.184037
vt 0.730212 0.975635
vt 0.685579 0.991654
vt 0.692830 0.969164

vn -0.881827 -0.471169 0.019526
vn 0.255252 -0.081941 -0.963396
vn -0.144064 -0.326759 -0.934063
vn 0.862823 0.060859 0.501829
vn 0.827427 -0.104042 -0.551852
vn -0.014849 -0.411997 -0.911064
vn 0.309943 -0.308393 -0.899350
vn 0.917397 -0.372327 -0.140552
vn 0.283443 -0.105112 -0.953211
vn 0.885297 -0.448750 -0.121950
vn -0.455669 -0.838023 -0.300137
vn -0.344543 -0.887511 -0.305964
vn -0.271139 -0.741436 -0.613805
vn -0.171044 -0.890240 0.422157
vn -0.514945 -0.523229 0.679016
vn 0.526006 0.015910 0.850332
vn 0.341825 -0.440880 0.829928
vn 0.981512 -0.190345 0.020065
vn 0.179054 -0.015818 -0.983712
vn 0.318703 -0.291272 0.901992
vn 0.684851 -0.505845 0.524500
vn 0.501464 -0.130377 0.855299
vn 0.330768 -0.055278 0.942092
vn 0.894662 -0.058824 0.442853
vn 0.349894 -0.040783 0.935901
vn 0.124345 -0.024195 0.991944
vn 0.094193 0.379555 -0.920362
vn 0.178749 0.057113 -0.982236
vn 0.563514 -0.294948 0.771659
vn 0.398831 0.912004 -0.095824
vn 0.134362 -0.002347 0.990930
vn 0.253381 0.507822 -0.823356
vn 0.609553 0.045581 0.791434
vn 0.422561 0.519703 0.742530
vn 0.484739 0.697654 0.527547
vn 0.111962 0.457231 0.882272
vn 0.028225 0.349470 0.936522
vn 0.693644 0.343345 0.633223
vn 0.789222 0.569431 -0.229952
vn 0.470181 0.648695 -0.598436
vn 0.250777 0.789430 -0.560278
vn 0.466660 0.689382 0.554059
vn 0.457563 0.850747 -0.258584
vn 0.778785 0.596313 -0.194690
vn 0.305513 0.638954 -0.705974
vn 0.298340 0.645154 -0.703399
vn 0.282213 0.468901 -0.836951
vn 0.119320 0.227874 0.966352
vn 0.860604 0.086600 0.501858
vn 0.813368 0.169549 -0.556495
vn -0.003277 0.066219 -0.997800
vn 0.120836 0.162911 0.979213
vn 0.345799 0.020724 0.938080
vn 0.916745 0.277905 0.286962
vn 0.825278 0.320247 0.465144
vn 0.868515 0.254100 0.425575
vn 0.814278 0.168421 -0.555506
vn 0.129717 0.196287 -0.971928
vn 0.780334 0.298601 -0.549470
vn 0.572745 0.068569 -0.816861
vn 0.132130 0.134338 -0.982087
vn -0.479635 -0.150106 -0.864534
vn 0.416711 0.112964 0.901993
vn 0.912241 0.221466 0.344630
vn 0.983113 -0.182811 -0.008327
vn 0.154987 0.335794 -0.929097
vn 0.498173 -0.127135 0.857706
vn 0.864819 0.497943 0.064345
vn 0.699082 0.397789 0.594179
vn 0.538516 0.181015 -0.822942
vn 0.716700 0.690832 -0.095355
vn -0.816474 -0.134707 -0.561448
vn -0.963778 -0.254214 0.080670
vn 0.575840 -0.559973 0.595683
vn 0.834766 -0.173221 0.522647
vn 0.449123 -0.193670 0.872227
vn 0.142009 0.066540 0.987626
vn 0.981087 -0.082653 0.175034
vn 0.981525 -0.121645 -0.147688
vn 0.990285 -0.106693 0.089180
vn 0.308293 -0.832004 0.461222
vn 0.193734 0.175423 0.965243
vn 0.911170 -0.047426 0.409292
vn 0.974672 0.017497 0.222951
vn -0.054130 0.900155 0.432192
vn 0.475326 0.312561 0.822417
vn 0.684980 0.318256 0.655374
vn 0.699334 0.322849 0.637730
vn 0.486843 -0.206022 0.848845
vn 0.313347 -0.284214 0.906110
vn 0.049234 0.913258 0.404395
vn -0.020318 -0.032014 0.999281
vn 0.245443 -0.697825 0.672902
vn 0.531248 0.005677 0.847197
vn 0.491180 -0.827705 -0.271379
vn 0.918972 -0.003415 0.394309
vn 0.007467 -0.999500 -0.030718
vn 0.513967 0.124631 0.848708
vn 0.810867 0.060543 0.582091
vn 0.277111 -0.956931 -0.086561
vn 0.330398 0.018259 0.943665
vn 0.977702 0.066016 -0.199352
vn 0.917814 0.201591 -0.342021
vn 0.767694 -0.310092 0.560794
vn 0.163232 -0.440541 0.882768
vn 0.826305 -0.138832 0.545844
vn 0.056783 -0.316666 0.946836
vn 0.520853 0.704896 0.481490
vn 0.978250 0.061325 0.198155
vn 0.884047 0.428178 0.187417
vn 0.769133 0.595991 0.230715
vn 0.497931 0.298090 0.814375
vn 0.492146 0.409510 -0.768176
vn 0.399776 0.480326 -0.780683
vn 0.151113 0.980430 -0.126184
vn 0.030216 0.960226 -0.277583
vn 0.839424 -0.137240 0.525864
vn 0.700867 0.393832 0.594712
vn 0.639066 0.009285 -0.769096
vn 0.886563 0.460459 0.044543
vn -0.865732 -0.436146 0.245529
vn 0.932923 0.221129 0.284176
vn 0.654743 0.246267 -0.714608
vn -0.787684 -0.199418 -0.582912
vn 0.240720 -0.153920 0.958312
vn -0.504657 -0.597878 -0.622787
vn -0.321319 -0.647590 -0.690928
vn 0.811007 -0.580373 0.073722
vn 0.682617 -0.659654 -0.314469
vn 0.929625 -0.339286 0.143811
vn 0.794523 -0.008437 0.607175
vn 0.441841 0.771669 -0.457497
vn -0.694121 0.653723 -0.301400
vn 0.323961 0.729963 -0.601833
vn -0.223536 0.868057 0.443293
vn -0.367087 -0.200671 -0.908283
vn -0.436820 -0.139615 -0.888648
vn 0.746668 0.410985 -0.523048
vn 0.747577 0.151940 -0.646563
vn 0.935160 0.117322 0.334232
vn 0.935042 0.116874 0.334719
vn 0.219727 -0.132751 0.966487
vn -0.783353 -0.579354 0.225181
vn -0.800805 0.000107 -0.598925
vn -0.393641 -0.404804 -0.825336
vn 0.808384 0.092462 -0.581349
vn 0.644145 0.272374 -0.714765
vn 0.909436 0.290189 0.297854
vn 0.912030 0.209925 0.352325
vn 0.241769 -0.173328 0.954728
vn 0.129063 -0.115096 0.984934
vn -0.963057 -0.257007 0.080433
vn 0.797766 0.254110 -0.546807
vn -0.427278 -0.156852 -0.890410
vn -0.833561 -0.461434 0.303735
vn 0.229894 -0.241108 0.942876
vn -0.796714 -0.521745 0.305005
vn 0.186930 -0.231510 0.954704
vn 0.654115 0.412564 -0.633975
vn -0.473872 -0.218868 -0.852961
vn -0.559658 -0.561934 -0.609109
vn -0.524679 -0.596455 -0.607416
vn 0.323903 -0.940275 0.104737
vn 0.494544 -0.841654 0.216898
vn 0.666976 -0.079957 0.740777
vn 0.664326 -0.073442 0.743826
vn 0.187865 0.771511 0.607846
vn 0.081900 0.878397 0.470862
vn -0.719168 0.582542 -0.378738
vn -0.736618 0.552383 -0.390214
vn 0.198309 -0.391952 0.898358
vn -0.357227 0.605902 0.710824
vn 0.355096 0.934627 0.019477
vn 0.192244 0.979717 0.056539
vn 0.224341 0.972196 0.067124
vn -0.021839 0.963992 0.265033
vn -0.116510 0.963142 0.242454
vn 0.645877 -0.067215 0.760477
vn 0.602711 -0.462989 0.649908
vn -0.513318 -0.543320 -0.664310
vn -0.391657 -0.908104 0.148163
vn -0.638185 -0.542001 -0.546767
vn -0.566090 -0.622835 -0.540017
vn -0.873810 -0.365976 -0.320184
vn -0.186243 0.601701 -0.776704
vn 0.495084 0.854149 0.159126
vn 0.128017 0.862233 0.490068
vn -0.785578 0.116841 -0.607631
vn -0.806359 0.134923 -0.575830
vn 0.642319 -0.257333 0.721946
vn 0.674323 -0.261409 0.690619
vn 0.120512 0.853523 0.506928
vn 0.502462 -0.267583 0.822151
vn 0.347718 -0.932981 -0.092944
vn 0.219182 -0.967492 -0.126171
vn -0.796763 0.130411 -0.590052
vn 0.779655 -0.027542 0.625604
vn -0.885276 0.065369 -0.460449
vn -0.351311 -0.450765 -0.820604
vn 0.559494 -0.807810 -0.185498
vn -0.267327 0.304788 0.914134
vn 0.718888 -0.240047 0.652363
vn 0.387422 -0.866177 -0.315661
vn 0.594398 0.596821 0.538976
vn 0.598728 0.583117 0.549089
vn -0.827938 0.123173 -0.547126
vn 0.150184 0.857027 0.492899
vn 0.567966 -0.292272 0.769410
vn 0.230078 -0.972227 0.042878
vn -0.905167 0.231959 -0.356184
vn 0.668792 0.556024 -0.493513
vn 0.586580 0.645794 -0.488747
vn 0.829741 -0.200515 0.520888
vn 0.807376 -0.261122 0.529112
vn -0.638553 -0.362523 0.678842
vn -0.613087 -0.398145 0.682353
vn 0.867678 -0.320236 0.380242
vn -0.518168 0.163035 0.839596
vn 0.525388 -0.357117 -0.772292
vn 0.840022 -0.261359 0.475451
vn 0.835116 -0.359934 0.415966
vn -0.343428 -0.459961 0.818837
vn 0.880499 -0.144573 0.451465
vn -0.618008 -0.406808 0.672736
vn -0.800185 0.451276 -0.395036
vn 0.902755 -0.080728 0.422512
vn -0.465245 -0.208096 0.860374
vn 0.918507 -0.120154 0.376706
vn 0.582331 0.122607 -0.803653
vn 0.405774 -0.002801 -0.913969
vn -0.335860 -0.015142 -0.941790
vn -0.810488 -0.194556 -0.552501
vn -0.524501 -0.282823 0.803063
vn -0.993724 -0.098588 -0.052852
vn 0.718074 0.473811 -0.509778
vn 0.700585 -0.138391 0.700021
vn -0.770374 -0.388268 0.505740
vn -0.754106 0.572229 -0.322301
vn 0.752857 0.387674 -0.531898
vn -0.865208 0.228226 -0.446461
vn -0.902866 0.208880 -0.375768
vn 0.660848 0.405045 -0.631837
vn 0.784097 -0.525026 0.330968
vn 0.897949 -0.349531 0.267422
vn -0.811549 -0.431342 0.394123
vn -0.613542 -0.640122 0.462396
vn -0.761353 0.605362 -0.232115
vn 0.026292 0.797472 -0.602783
vn -0.966466 -0.001285 -0.256792
vn 0.984262 0.136394 -0.112359
vn 0.090491 -0.630200 -0.771141
vn 0.119369 -0.641111 -0.758108
vn 0.626062 0.185591 0.757365
vn 0.722559 0.685782 -0.087243
vn -0.754062 0.065439 0.653535
vn 0.605193 0.166213 0.778534
vn -0.837061 0.160774 0.522953
vn 0.089787 -0.632578 -0.769274
vn 0.090157 -0.632943 -0.768931
vn 0.540258 0.332855 0.772871
vn 0.019322 -0.458636 0.888414
vn -0.767018 0.334716 0.547402
vn 0.122855 -0.938435 -0.322873
vn -0.141964 -0.115444 -0.983117
vn 0.291753 -0.352120 -0.889321
vn -0.509234 0.426292 0.747634
vn -0.918891 -0.275030 -0.282839
vn -0.279744 -0.512305 -0.811965
vn -0.237724 -0.539294 -0.807867
vn -0.913252 -0.323338 -0.247835
vn -0.188306 -0.147442 -0.970980
vn -0.923550 -0.284066 -0.257609
vn 0.438919 -0.862562 -0.251670
vn 0.673976 -0.682403 -0.282988
vn 0.027140 -0.323397 -0.945874
vn 0.277539 -0.684084 0.674537
vn 0.729294 -0.079289 0.679591
vn -0.169646 -0.020815 0.985285
vn -0.177996 -0.005622 0.984015
vn -0.921367 -0.331063 0.203667
vn -0.036878 -0.019450 -0.999130
vn -0.407898 -0.259492 0.875376
vn -0.599749 -0.693211 0.399700
vn -0.547842 0.148248 0.823342
vn -0.422619 0.056266 0.904559
vn -0.716146 -0.094796 0.691483
vn 0.028375 -0.099707 0.994612
vn -0.273333 -0.040118 0.961083
vn -0.029954 0.425869 -0.904289
vn -0.035343 0.050013 -0.998123
vn -0.461992 -0.265426 0.846235
vn -0.401754 0.870598 -0.283997
vn -0.300893 0.019273 0.953463
vn -0.139314 0.506384 -0.850980
vn -0.497347 0.032535 0.866941
vn -0.432295 0.468233 0.770636
vn -0.553787 0.748170 0.365461
vn -0.268093 0.445574 0.854161
vn -0.211958 0.369232 0.904843
vn -0.724370 0.381381 0.574314
vn -0.639270 0.631668 -0.438554
vn -0.345149 0.639699 -0.686773
vn -0.111543 0.799459 -0.590274
vn -0.467868 0.726872 0.502749
vn -0.437825 0.795778 -0.418385
vn -0.639472 0.630069 -0.440555
vn -0.142074 0.620624 -0.771130
vn -0.126495 0.636720 -0.760649
vn -0.117078 0.532070 -0.838567
vn 0.049840 0.089673 0.994723
vn -0.766998 0.127263 0.628902
vn -0.856341 0.322585 -0.403260
vn -0.315595 0.279925 -0.906666
vn 0.044696 0.140528 0.989067
vn 0.022838 0.070929 0.997220
vn -0.855153 0.329677 0.400033
vn -0.761426 0.186113 0.620960
vn -0.686273 0.276123 0.672893
vn -0.943494 0.178128 -0.279446
vn -0.204509 0.183596 -0.961493
vn -0.880727 0.249889 -0.402336
vn -0.678044 -0.062045 -0.732398
vn -0.187713 -0.024378 -0.981921
vn 0.172360 -0.166526 -0.970856
vn -0.052174 0.071546 0.996072
vn -0.892483 0.324987 0.312823
vn -0.707156 0.016978 -0.706854
vn -0.326343 0.005702 -0.945234
vn -0.757790 0.120759 0.641226
vn -0.661305 0.545124 -0.515282
vn -0.761482 0.435327 0.480245
vn -0.465117 -0.069543 -0.882513
vn -0.900328 0.344588 -0.265835
vn 0.805532 0.049100 -0.590514
vn -0.052761 -0.998234 -0.027295
vn -0.694928 -0.614172 -0.373989
vn -0.923649 -0.121655 0.363418
vn -0.626741 -0.189199 0.755909
vn -0.349276 0.068584 0.934506
vn -0.999995 -0.000245 -0.003009
vn -0.925820 -0.132232 -0.354078
vn -0.782225 -0.141535 -0.606706
vn -0.394744 -0.838444 0.375751
vn -0.394117 0.177875 0.901683
vn -0.977951 -0.039573 0.205049
vn -0.999624 0.025703 0.009502
vn -0.032099 0.900063 0.434575
vn -0.637534 0.317176 0.702104
vn -0.806572 0.324449 0.494140
vn -0.816797 0.329149 0.473818
vn -0.658689 -0.201260 0.724999
vn -0.502094 -0.280822 0.817949
vn -0.127025 0.913991 0.385339
vn -0.193988 -0.031292 0.980505
vn -0.389319 -0.695184 0.604277
vn -0.699976 0.010792 0.714085
vn -0.368683 -0.880129 -0.299076
vn -0.954501 -0.029860 0.296711
vn -0.008881 -0.999430 -0.032581
vn -0.682440 0.129599 0.719361
vn -0.916013 0.067717 0.395391
vn -0.255947 -0.955518 -0.146545
vn -0.524298 0.021812 0.851255
vn -0.908679 0.073839 -0.410913
vn -0.818595 0.204912 -0.536576
vn -0.872329 -0.303282 0.383486
vn -0.351758 -0.438407 0.827083
vn -0.924985 -0.131551 0.356506
vn -0.260431 -0.315331 0.912547
vn -0.605915 0.709579 0.359673
vn -0.997460 0.069535 -0.015446
vn -0.900126 0.435594 -0.005477
vn -0.795747 0.602496 0.061528
vn -0.658012 0.302898 0.689400
vn -0.334302 0.397562 -0.854509
vn -0.219675 0.484160 -0.846955
vn -0.112595 0.981525 -0.154694
vn 0.037689 0.960198 -0.276766
vn -0.930624 0.057645 0.361409
vn -0.859702 0.226202 0.457980
vn -0.500822 -0.201516 -0.841765
vn -0.837840 0.297741 -0.457574
vn 0.960649 0.102224 0.258269
vn -0.993384 0.022722 0.112566
vn -0.532192 0.038948 -0.845727
vn 0.721949 -0.413089 -0.555111
vn -0.390581 -0.132799 0.910940
vn 0.024820 -0.548069 -0.836065
vn 0.565875 -0.622555 -0.540565
vn -0.851650 -0.489552 -0.187165
vn -0.927712 -0.361605 0.092699
vn -0.900685 -0.432972 0.036088
vn -0.602378 0.351391 0.716704
vn -0.245153 0.932603 -0.264863
vn 0.666296 0.406607 -0.625076
vn -0.115027 0.717383 -0.687117
vn 0.714192 0.320566 0.622227
vn 0.650874 -0.293262 -0.700258
vn 0.611515 -0.344655 -0.712224
vn -0.658346 0.092700 -0.746985
vn -0.615695 -0.152545 -0.773078
vn -0.989310 0.052310 0.136122
vn -0.992762 0.069865 0.097689
vn -0.296242 0.250736 0.921614
vn 0.846926 -0.423635 0.321325
vn 0.723007 -0.395197 -0.566640
vn 0.712124 -0.509274 -0.483238
vn -0.681783 -0.201745 -0.703186
vn -0.545303 -0.001664 -0.838237
vn -0.975278 0.194885 0.104173
vn -0.976372 0.174263 0.127787
vn -0.410041 0.025138 0.911720
vn -0.311068 0.104456 0.944630
vn 0.626468 -0.286903 0.724724
vn -0.672709 0.016962 -0.739713
vn 0.617965 -0.330603 -0.713317
vn 0.780856 -0.183817 0.597055
vn -0.215190 -0.020529 0.976356
vn 0.822617 -0.120000 0.555790
vn -0.370869 -0.114201 0.921637
vn -0.568776 0.087065 -0.817871
vn 0.762623 -0.356245 -0.539903
vn 0.224925 -0.743355 -0.629946
vn 0.366079 -0.677522 -0.637927
vn -0.649866 -0.733809 0.197987
vn -0.783608 -0.526520 0.329750
vn -0.540353 0.293400 0.788628
vn -0.596469 0.252978 0.761726
vn 0.237047 0.759520 0.605754
vn 0.288686 0.779176 0.556368
vn 0.827413 -0.140860 -0.543641
vn 0.862242 0.197242 -0.466512
vn -0.270507 -0.224245 0.936237
vn 0.622570 0.451000 0.639535
vn 0.060446 0.997168 -0.044756
vn 0.222382 0.974785 -0.018446
vn 0.194080 0.980960 -0.007167
vn 0.428522 0.885162 0.181263
vn 0.512783 0.844487 0.154579
vn -0.559545 0.248353 0.790715
vn -0.687597 -0.137898 0.712878
vn 0.199166 -0.743735 -0.638115
vn 0.001564 -0.978405 0.206690
vn 0.323846 -0.786721 -0.525542
vn 0.224322 -0.831305 -0.508538
vn 0.622132 -0.711383 -0.326934
vn 0.350273 0.439523 -0.827121
vn -0.094004 0.989036 0.113895
vn 0.267793 0.866866 0.420512
vn 0.717961 -0.249912 -0.649673
vn 0.746446 -0.239975 -0.620670
vn -0.635317 0.070046 0.769068
vn -0.668394 0.077544 0.739754
vn 0.272381 0.856878 0.437685
vn -0.504361 0.009776 0.863437
vn -0.700445 -0.713704 0.001908
vn -0.599502 -0.799655 -0.033916
vn 0.734899 -0.241008 -0.633907
vn -0.679084 0.323432 0.658966
vn 0.799343 -0.328910 -0.502860
vn 0.088613 -0.600473 -0.794720
vn -0.843890 -0.526200 -0.104707
vn 0.433430 0.225182 0.872600
vn -0.705163 0.114884 0.699676
vn -0.727646 -0.647642 -0.226035
vn -0.258444 0.817863 0.514108
vn -0.267010 0.807978 0.525240
vn 0.763587 -0.257861 -0.591982
vn 0.245698 0.871328 0.424758
vn -0.578278 0.010868 0.815767
vn -0.598708 -0.789484 0.135146
vn 0.904933 -0.119796 -0.408345
vn -0.509221 -0.151103 -0.847267
vn -0.585449 -0.187306 -0.788775
vn -0.820300 0.286168 0.495193
vn -0.820379 0.286253 0.495013
vn 0.570342 0.396320 0.719473
vn 0.401728 0.284110 0.870573
vn -0.899737 -0.050313 0.433524
vn 0.532160 0.407339 0.742214
vn -0.501159 -0.563763 -0.656514
vn -0.761441 -0.026153 0.647707
vn -0.760736 -0.041615 0.647726
vn 0.315635 -0.002210 0.948878
vn -0.894206 0.285993 0.344388
vn 0.560475 -0.089522 0.823319
vn 0.873774 -0.098512 -0.476250
vn -0.815481 0.240607 0.526402
vn 0.660370 0.246416 0.709359
vn -0.853158 0.141650 0.502053
vn -0.719759 -0.265231 -0.641559
vn -0.467082 -0.489923 -0.736078
vn 0.067515 -0.518104 -0.852649
vn 0.826852 -0.421668 -0.372172
vn 0.670045 0.223471 0.707884
vn 0.961140 -0.216337 -0.171487
vn -0.653312 -0.167339 -0.738364
vn -0.816633 0.476976 0.324969
vn 0.610916 0.377781 0.695746
vn 0.822067 -0.086594 -0.562767
vn -0.757063 -0.287100 -0.586881
vn 0.909119 -0.271308 -0.316061
vn 0.893213 -0.296325 -0.338175
vn -0.504512 -0.491251 -0.710029
vn -0.821945 0.113870 0.558068
vn -0.929897 0.113119 0.349993
vn 0.654404 0.244582 0.715496
vn 0.573800 0.235643 0.784363
vn 0.822061 -0.046365 -0.567509
vn 0.097274 -0.453554 -0.885905
vn 0.982960 -0.157192 0.095292
vn -0.950138 -0.216091 -0.224815
vn -0.076410 -0.839787 0.537512
vn -0.070539 -0.841297 0.535951
vn -0.682457 0.712449 -0.163305
vn -0.653723 -0.098182 -0.750337
vn 0.672483 0.734084 0.094273
vn -0.633324 0.767477 -0.099399
vn 0.865581 0.488328 -0.110928
vn -0.067384 -0.824818 0.561369
vn -0.077519 -0.817309 0.570962
vn -0.564825 0.783510 -0.259007
vn -0.075730 0.838697 0.539307
vn 0.777235 0.537568 -0.326998
vn -0.387270 -0.921532 0.028299

f 1/1/1 2/2/1 3/3/1
f 4/4/2 5/5/2 6/6/2
f 4/4/3 6/7/3 7/8/3
f 5/9/4 8/10/4 9/11/4
f 10/12/5 11/13/5 9/14/5
f 6/6/6 11/15/6 7/8/6
f 6/6/7 12/16/7 11/13/7
f 12/17/8 5/5/8 9/14/8
f 6/6/9 5/5/9 12/17/9
f 11/13/10 12/18/10 9/19/10
f 13/20/11 14/21/11 15/22/11
f 14/21/12 13/20/12 16/23/12
f 16/24/13 13/20/13 17/25/13
f 15/22/14 14/21/14 18/26/14
f 14/21/15 19/27/15 18/26/15
f 18/26/16 20/28/16 21/29/16
f 18/26/17 19/27/17 20/28/17
f 20/28/18 3/30/18 21/29/18
f 5/9/19 22/31/19 23/32/19
f 24/33/20 25/34/20 26/35/20
f 27/36/21 25/34/21 9/37/21
f 28/38/22 27/39/22 29/40/22
f 30/41/23 25/34/23 24/33/23
f 25/34/24 30/41/24 10/42/24
f 30/41/25 24/33/25 31/43/25
f 24/33/26 26/44/26 32/45/26
f 33/46/27 34/47/27 5/9/27
f 4/4/28 22/31/28 5/9/28
f 26/35/29 25/34/29 27/39/29
f 33/46/30 35/48/30 34/47/30
f 32/45/31 26/35/31 28/38/31
f 23/32/32 33/46/32 5/9/32
f 26/35/33 27/39/33 28/38/33
f 28/38/34 29/40/34 36/49/34
f 35/50/35 37/51/35 29/40/35
f 28/38/36 38/52/36 32/45/36
f 36/49/37 38/52/37 28/38/37
f 36/49/38 37/53/38 39/54/38
f 39/55/39 37/56/39 40/57/39
f 41/58/40 42/59/40 39/55/40
f 39/55/41 40/57/41 41/58/41
f 36/49/42 29/40/42 37/51/42
f 37/56/43 35/48/43 33/46/43
f 37/56/44 33/46/44 40/57/44
f 40/57/45 33/46/45 43/60/45
f 40/57/46 43/60/46 41/58/46
f 33/46/47 23/32/47 43/60/47
f 44/61/48 45/62/48 30/63/48
f 15/64/49 46/65/49 45/62/49
f 46/66/50 47/67/50 10/68/50
f 47/67/51 7/69/51 11/70/51
f 45/62/52 44/61/52 17/71/52
f 44/61/53 30/63/53 31/72/53
f 13/73/54 15/64/54 45/62/54
f 46/65/55 10/74/55 45/62/55
f 45/62/56 10/74/56 30/63/56
f 47/67/57 11/70/57 10/68/57
f 47/67/58 48/75/58 7/69/58
f 46/66/59 15/76/59 47/67/59
f 18/77/60 47/67/60 15/76/60
f 47/67/61 18/77/61 48/75/61
f 18/77/62 21/78/62 48/75/62
f 13/73/63 45/62/63 17/71/63
f 49/79/64 35/50/64 29/40/64
f 8/80/65 27/81/65 9/82/65
f 34/47/66 50/83/66 5/84/66
f 27/36/67 49/79/67 29/40/67
f 35/48/68 51/85/68 52/86/68
f 35/50/69 49/79/69 51/87/69
f 52/86/70 50/83/70 34/47/70
f 35/48/71 52/86/71 34/47/71
f 5/84/72 50/83/72 8/10/72
f 53/88/73 27/81/73 8/80/73
f 53/88/74 49/79/74 27/36/74
f 54/89/75 55/90/75 56/91/75
f 57/92/76 55/90/76 58/93/76
f 59/94/77 60/95/77 55/90/77
f 61/96/78 54/89/78 56/91/78
f 39/97/79 61/96/79 36/98/79
f 36/98/80 61/96/80 56/91/80
f 36/98/81 56/91/81 38/99/81
f 62/100/82 63/101/82 64/102/82
f 65/103/83 64/102/83 54/89/83
f 61/96/84 65/103/84 54/89/84
f 66/104/85 67/105/85 62/100/85
f 55/90/86 60/95/86 68/106/86
f 69/107/87 68/106/87 60/95/87
f 69/107/88 70/108/88 68/106/88
f 58/109/89 55/90/89 68/106/89
f 68/106/90 71/110/90 58/111/90
f 62/100/91 67/105/91 63/101/91
f 64/102/92 63/101/92 69/107/92
f 70/108/93 71/110/93 68/106/93
f 58/111/94 71/110/94 72/112/94
f 56/91/95 57/92/95 38/113/95
f 55/90/96 57/114/96 56/91/96
f 73/115/97 74/116/97 38/113/97
f 58/109/98 72/112/98 73/115/98
f 57/117/99 58/111/99 73/115/99
f 57/92/100 73/115/100 38/113/100
f 73/115/101 72/112/101 74/116/101
f 39/97/102 75/118/102 61/96/102
f 75/118/103 39/97/103 76/119/103
f 64/102/104 59/94/104 54/89/104
f 64/102/105 60/95/105 59/94/105
f 54/89/106 59/94/106 55/90/106
f 64/102/107 69/107/107 60/95/107
f 65/103/108 66/104/108 62/100/108
f 65/103/109 61/96/109 75/118/109
f 75/118/110 76/119/110 65/103/110
f 66/104/111 65/103/111 76/119/111
f 62/100/112 64/102/112 65/103/112
f 39/97/113 42/120/113 76/119/113
f 77/121/114 76/119/114 42/120/114
f 67/105/115 76/119/115 77/121/115
f 66/104/116 76/119/116 67/105/116
f 9/82/117 25/34/117 10/42/117
f 51/122/118 49/123/118 78/124/118
f 79/125/119 50/126/119 52/127/119
f 52/127/120 51/122/120 79/125/120
f 80/128/121 81/129/121 53/130/121
f 51/122/122 78/124/122 79/125/122
f 82/131/123 50/126/123 79/125/123
f 50/126/124 82/131/124 8/132/124
f 53/133/125 78/124/125 49/123/125
f 83/134/126 84/135/126 85/136/126
f 84/135/127 83/134/127 86/137/127
f 86/137/128 87/138/128 84/135/128
f 88/139/129 84/135/129 87/138/129
f 87/138/130 89/140/130 88/139/130
f 90/141/131 88/139/131 89/140/131
f 91/142/132 92/143/132 90/141/132
f 90/141/133 89/140/133 91/142/133
f 85/136/134 92/144/134 91/145/134
f 91/145/135 83/134/135 85/136/135
f 80/128/136 93/146/136 83/134/136
f 94/147/137 83/134/137 93/146/137
f 93/146/138 87/138/138 94/147/138
f 87/138/139 93/146/139 95/148/139
f 95/148/140 96/149/140 87/138/140
f 89/140/141 87/138/141 96/149/141
f 97/150/142 91/142/142 89/140/142
f 97/151/143 81/129/143 80/128/143
f 8/132/144 82/131/144 80/128/144
f 93/146/145 80/128/145 98/152/145
f 98/152/146 95/148/146 93/146/146
f 95/148/147 82/131/147 79/125/147
f 79/125/148 78/124/148 95/148/148
f 96/149/149 95/148/149 78/124/149
f 78/124/150 53/133/150 81/153/150
f 81/153/151 96/149/151 78/124/151
f 80/128/152 53/130/152 8/154/152
f 94/147/153 87/138/153 86/137/153
f 86/137/154 83/134/154 94/147/154
f 97/151/155 83/134/155 91/145/155
f 89/140/156 96/149/156 97/150/156
f 80/128/157 83/134/157 97/151/157
f 81/153/158 97/150/158 96/149/158
f 82/131/159 95/148/159 98/152/159
f 98/152/160 80/128/160 82/131/160
f 85/136/161 99/155/161 100/156/161
f 99/155/162 85/136/162 84/135/162
f 84/135/163 101/157/163 99/155/163
f 101/157/164 84/135/164 88/139/164
f 88/139/165 90/141/165 101/157/165
f 102/158/166 101/157/166 90/141/166
f 90/141/167 103/159/167 102/158/167
f 103/159/168 90/141/168 92/143/168
f 92/144/169 85/136/169 103/160/169
f 100/156/170 103/160/170 85/136/170
f 104/161/171 105/162/171 106/163/171
f 107/164/172 106/163/172 108/165/172
f 109/166/173 110/167/173 103/168/173
f 109/166/174 111/169/174 104/161/174
f 104/161/175 110/167/175 109/166/175
f 104/161/176 111/169/176 112/170/176
f 113/171/177 112/170/177 111/169/177
f 106/163/178 110/167/178 104/161/178
f 104/161/179 112/170/179 105/162/179
f 105/172/180 113/173/180 111/174/180
f 113/173/181 105/172/181 112/175/181
f 105/172/182 111/174/182 109/176/182
f 109/176/183 106/177/183 105/172/183
f 109/176/184 100/178/184 106/177/184
f 103/179/185 100/178/185 109/176/185
f 102/180/186 103/168/186 110/167/186
f 106/163/187 114/181/187 108/165/187
f 115/182/188 116/183/188 106/177/188
f 116/184/189 117/185/189 118/186/189
f 108/165/190 114/181/190 119/187/190
f 119/187/191 120/188/191 108/165/191
f 118/189/192 121/190/192 114/191/192
f 114/191/193 121/190/193 117/192/193
f 116/193/194 115/194/194 119/187/194
f 120/188/195 119/187/195 115/194/195
f 121/195/196 118/186/196 117/185/196
f 108/165/197 101/196/197 102/180/197
f 115/182/198 106/177/198 100/178/198
f 100/178/199 99/197/199 115/182/199
f 120/188/200 99/198/200 101/196/200
f 106/163/201 107/164/201 110/167/201
f 108/165/202 120/188/202 101/196/202
f 120/188/203 115/194/203 99/198/203
f 107/164/204 102/180/204 110/167/204
f 102/180/205 107/164/205 108/165/205
f 118/199/206 106/177/206 116/183/206
f 114/181/207 106/163/207 118/200/207
f 114/191/208 117/192/208 119/201/208
f 117/192/209 116/202/209 119/201/209
f 122/203/210 123/204/210 124/205/210
f 125/206/211 126/207/211 123/208/211
f 125/206/212 123/208/212 127/209/212
f 125/210/213 128/211/213 126/212/213
f 128/211/214 129/213/214 126/212/214
f 128/214/215 124/215/215 129/216/215
f 122/217/216 124/215/216 128/214/216
f 130/218/217 128/211/217 125/219/217
f 131/220/218 122/221/218 130/222/218
f 132/223/219 125/224/219 127/225/219
f 132/226/220 131/227/220 125/219/220
f 133/228/221 131/227/221 132/226/221
f 133/229/222 122/221/222 131/220/222
f 130/218/223 125/219/223 131/227/223
f 128/214/224 130/222/224 122/221/224
f 127/209/225 123/204/225 122/203/225
f 16/230/226 133/228/226 14/231/226
f 16/232/227 3/3/227 133/229/227
f 14/231/228 133/228/228 132/226/228
f 14/233/229 132/223/229 19/234/229
f 132/223/230 127/225/230 19/234/230
f 20/235/231 19/234/231 127/225/231
f 20/235/232 127/225/232 122/236/232
f 3/3/233 122/221/233 133/229/233
f 3/237/234 20/235/234 122/236/234
f 134/238/235 135/239/235 136/240/235
f 137/241/236 135/242/236 134/243/236
f 138/244/237 139/245/237 137/246/237
f 138/247/238 136/248/238 139/249/238
f 134/238/239 136/240/239 123/208/239
f 138/247/240 123/250/240 136/248/240
f 123/250/241 138/247/241 124/251/241
f 134/238/242 123/208/242 126/252/242
f 129/253/243 134/243/243 126/254/243
f 137/241/244 134/243/244 129/253/244
f 138/244/245 137/246/245 129/255/245
f 138/244/246 129/255/246 124/256/246
f 136/257/247 140/258/247 139/259/247
f 136/257/248 141/260/248 140/258/248
f 142/261/249 139/259/249 140/258/249
f 135/262/250 143/263/250 141/260/250
f 141/264/251 143/265/251 142/266/251
f 142/266/252 140/267/252 141/264/252
f 137/268/253 143/263/253 135/262/253
f 135/262/254 141/260/254 136/257/254
f 139/259/255 142/261/255 137/268/255
f 137/268/256 144/269/256 143/263/256
f 137/268/257 142/261/257 144/269/257
f 143/265/258 145/270/258 146/271/258
f 146/271/259 142/266/259 143/265/259
f 143/263/260 144/269/260 145/272/260
f 144/269/261 146/273/261 145/272/261
f 146/273/262 144/269/262 142/261/262
f 3/274/263 16/275/263 17/276/263
f 147/5/264 4/4/264 148/6/264
f 148/7/265 4/4/265 7/8/265
f 149/10/266 147/9/266 150/11/266
f 151/13/267 152/12/267 150/14/267
f 151/15/268 148/6/268 7/8/268
f 153/16/269 148/6/269 151/13/269
f 147/5/270 153/17/270 150/14/270
f 147/5/271 148/6/271 153/17/271
f 153/18/272 151/13/272 150/19/272
f 154/21/273 155/20/273 156/22/273
f 155/20/274 154/21/274 157/23/274
f 155/20/275 157/24/275 17/25/275
f 154/21/276 156/22/276 158/26/276
f 159/27/277 154/21/277 158/26/277
f 160/28/278 158/26/278 21/29/278
f 159/27/279 158/26/279 160/28/279
f 3/30/280 160/28/280 21/29/280
f 22/31/281 147/9/281 23/32/281
f 161/34/282 24/33/282 162/35/282
f 161/34/283 163/36/283 150/37/283
f 163/39/284 164/38/284 165/40/284
f 161/34/285 166/41/285 24/33/285
f 166/41/286 161/34/286 152/42/286
f 24/33/287 166/41/287 31/43/287
f 162/44/288 24/33/288 32/45/288
f 167/47/289 168/46/289 147/9/289
f 22/31/290 4/4/290 147/9/290
f 161/34/291 162/35/291 163/39/291
f 169/48/292 168/46/292 167/47/292
f 162/35/293 32/45/293 164/38/293
f 168/46/294 23/32/294 147/9/294
f 163/39/295 162/35/295 164/38/295
f 165/40/296 164/38/296 170/49/296
f 171/51/297 169/50/297 165/40/297
f 38/52/298 164/38/298 32/45/298
f 38/52/299 170/49/299 164/38/299
f 171/53/300 170/49/300 172/54/300
f 171/56/301 172/55/301 173/57/301
f 42/59/302 41/58/302 172/55/302
f 173/57/303 172/55/303 41/58/303
f 165/40/304 170/49/304 171/51/304
f 169/48/305 171/56/305 168/46/305
f 168/46/306 171/56/306 173/57/306
f 168/46/307 173/57/307 43/60/307
f 43/60/308 173/57/308 41/58/308
f 23/32/309 168/46/309 43/60/309
f 174/62/310 44/61/310 166/63/310
f 175/65/311 156/64/311 174/62/311
f 176/67/312 175/66/312 152/68/312
f 7/69/313 176/67/313 151/70/313
f 44/61/314 174/62/314 17/71/314
f 166/63/315 44/61/315 31/72/315
f 156/64/316 155/73/316 174/62/316
f 152/74/317 175/65/317 174/62/317
f 152/74/318 174/62/318 166/63/318
f 151/70/319 176/67/319 152/68/319
f 48/75/320 176/67/320 7/69/320
f 156/76/321 175/66/321 176/67/321
f 176/67/322 158/77/322 156/76/322
f 158/77/323 176/67/323 48/75/323
f 21/78/324 158/77/324 48/75/324
f 174/62/325 155/73/325 17/71/325
f 169/50/326 177/79/326 165/40/326
f 163/81/327 149/80/327 150/82/327
f 178/83/328 167/47/328 147/84/328
f 177/79/329 163/36/329 165/40/329
f 179/85/330 169/48/330 180/86/330
f 177/79/331 169/50/331 179/87/331
f 178/83/332 180/86/332 167/47/332
f 180/86/333 169/48/333 167/47/333
f 178/83/334 147/84/334 149/10/334
f 163/81/335 181/88/335 149/80/335
f 177/79/336 181/88/336 163/36/336
f 182/90/337 183/89/337 184/91/337
f 182/90/338 185/92/338 186/93/338
f 187/95/339 188/94/339 182/90/339
f 183/89/340 189/96/340 184/91/340
f 189/96/341 172/97/341 170/98/341
f 189/96/342 170/98/342 184/91/342
f 184/91/343 170/98/343 38/99/343
f 63/101/344 190/100/344 191/102/344
f 191/102/345 192/103/345 183/89/345
f 192/103/346 189/96/346 183/89/346
f 67/105/347 193/104/347 190/100/347
f 187/95/348 182/90/348 194/106/348
f 194/106/349 69/107/349 187/95/349
f 70/108/350 69/107/350 194/106/350
f 182/90/351 186/109/351 194/106/351
f 71/110/352 194/106/352 186/111/352
f 67/105/353 190/100/353 63/101/353
f 63/101/354 191/102/354 69/107/354
f 71/110/355 70/108/355 194/106/355
f 71/110/356 186/111/356 72/112/356
f 185/92/357 184/91/357 38/113/357
f 185/114/358 182/90/358 184/91/358
f 74/116/359 195/115/359 38/113/359
f 72/112/360 186/109/360 195/115/360
f 186/111/361 185/117/361 195/115/361
f 195/115/362 185/92/362 38/113/362
f 72/112/363 195/115/363 74/116/363
f 196/118/364 172/97/364 189/96/364
f 172/97/365 196/118/365 197/119/365
f 188/94/366 191/102/366 183/89/366
f 187/95/367 191/102/367 188/94/367
f 188/94/368 183/89/368 182/90/368
f 69/107/369 191/102/369 187/95/369
f 193/104/370 192/103/370 190/100/370
f 189/96/371 192/103/371 196/118/371
f 197/119/372 196/118/372 192/103/372
f 192/103/373 193/104/373 197/119/373
f 191/102/374 190/100/374 192/103/374
f 42/120/375 172/97/375 197/119/375
f 197/119/376 77/121/376 42/120/376
f 197/119/377 67/105/377 77/121/377
f 197/119/378 193/104/378 67/105/378
f 161/34/379 150/82/379 152/42/379
f 177/123/380 179/122/380 198/124/380
f 178/126/381 199/125/381 180/127/381
f 179/122/382 180/127/382 199/125/382
f 200/129/383 201/128/383 181/130/383
f 198/124/384 179/122/384 199/125/384
f 178/126/385 202/131/385 199/125/385
f 202/131/386 178/126/386 149/132/386
f 198/124/387 181/133/387 177/123/387
f 203/135/388 204/134/388 205/136/388
f 204/134/389 203/135/389 206/137/389
f 207/138/390 206/137/390 203/135/390
f 203/135/391 208/139/391 207/138/391
f 209/140/392 207/138/392 208/139/392
f 208/139/393 210/141/393 209/140/393
f 211/143/394 212/142/394 210/141/394
f 209/140/395 210/141/395 212/142/395
f 211/144/396 205/136/396 212/145/396
f 204/134/397 212/145/397 205/136/397
f 213/146/398 201/128/398 204/134/398
f 204/134/399 214/147/399 213/146/399
f 207/138/400 213/146/400 214/147/400
f 213/146/401 207/138/401 215/148/401
f 216/149/402 215/148/402 207/138/402
f 207/138/403 209/140/403 216/149/403
f 212/142/404 217/150/404 209/140/404
f 200/129/405 217/151/405 201/128/405
f 202/131/406 149/132/406 201/128/406
f 201/128/407 213/146/407 218/152/407
f 215/148/408 218/152/408 213/146/408
f 202/131/409 215/148/409 199/125/409
f 198/124/410 199/125/410 215/148/410
f 215/148/411 216/149/411 198/124/411
f 181/133/412 198/124/412 200/153/412
f 216/149/413 200/153/413 198/124/413
f 181/130/414 201/128/414 149/154/414
f 207/138/415 214/147/415 206/137/415
f 204/134/416 206/137/416 214/147/416
f 204/134/417 217/151/417 212/145/417
f 216/149/418 209/140/418 217/150/418
f 204/134/419 201/128/419 217/151/419
f 217/150/420 200/153/420 216/149/420
f 215/148/421 202/131/421 218/152/421
f 201/128/422 218/152/422 202/131/422
f 219/155/423 205/136/423 220/156/423
f 205/136/424 219/155/424 203/135/424
f 221/157/425 203/135/425 219/155/425
f 203/135/426 221/157/426 208/139/426
f 210/141/427 208/139/427 221/157/427
f 221/157/428 222/158/428 210/141/428
f 223/159/429 210/141/429 222/158/429
f 210/141/430 223/159/430 211/143/430
f 205/136/431 211/144/431 223/160/431
f 223/160/432 220/156/432 205/136/432
f 224/162/433 225/161/433 226/163/433
f 226/163/434 227/164/434 228/165/434
f 229/167/435 230/166/435 223/168/435
f 231/169/436 230/166/436 225/161/436
f 229/167/437 225/161/437 230/166/437
f 231/169/438 225/161/438 232/170/438
f 232/170/439 233/171/439 231/169/439
f 229/167/440 226/163/440 225/161/440
f 232/170/441 225/161/441 224/162/441
f 233/173/442 224/172/442 231/174/442
f 224/172/443 233/173/443 232/175/443
f 231/174/444 224/172/444 230/176/444
f 226/177/445 230/176/445 224/172/445
f 220/178/446 230/176/446 226/177/446
f 220/178/447 223/179/447 230/176/447
f 223/168/448 222/180/448 229/167/448
f 234/181/449 226/163/449 228/165/449
f 235/183/450 236/182/450 226/177/450
f 237/185/451 235/184/451 238/186/451
f 234/181/452 228/165/452 239/187/452
f 240/188/453 239/187/453 228/165/453
f 241/190/454 238/189/454 234/191/454
f 241/190/455 234/191/455 237/192/455
f 236/194/456 235/193/456 239/187/456
f 239/187/457 240/188/457 236/194/457
f 238/186/458 241/195/458 237/185/458
f 221/196/459 228/165/459 222/180/459
f 226/177/460 236/182/460 220/178/460
f 219/197/461 220/178/461 236/182/461
f 219/198/462 240/188/462 221/196/462
f 227/164/463 226/163/463 229/167/463
f 240/188/464 228/165/464 221/196/464
f 236/194/465 240/188/465 219/198/465
f 222/180/466 227/164/466 229/167/466
f 227/164/467 222/180/467 228/165/467
f 226/177/468 238/199/468 235/183/468
f 226/163/469 234/181/469 238/200/469
f 237/192/470 234/191/470 239/201/470
f 235/202/471 237/192/471 239/201/471
f 242/204/472 243/203/472 244/205/472
f 245/207/473 246/206/473 242/208/473
f 242/208/474 246/206/474 247/209/474
f 248/211/475 246/210/475 245/212/475
f 249/213/476 248/211/476 245/212/476
f 244/215/477 248/214/477 249/216/477
f 244/215/478 243/217/478 248/214/478
f 248/211/479 250/218/479 246/219/479
f 243/221/480 251/220/480 250/222/480
f 246/224/481 252/223/481 247/225/481
f 251/227/482 252/226/482 246/219/482
f 251/227/483 253/228/483 252/226/483
f 243/221/484 253/229/484 251/220/484
f 246/219/485 250/218/485 251/227/485
f 250/222/486 248/214/486 243/221/486
f 242/204/487 247/209/487 243/203/487
f 253/228/488 157/230/488 154/231/488
f 3/3/489 157/232/489 253/229/489
f 253/228/490 154/231/490 252/226/490
f 252/223/491 154/233/491 159/234/491
f 247/225/492 252/223/492 159/234/492
f 159/234/493 160/235/493 247/225/493
f 247/225/494 160/235/494 243/236/494
f 243/221/495 3/3/495 253/229/495
f 160/235/496 3/237/496 243/236/496
f 254/239/497 255/238/497 256/240/497
f 254/242/498 257/241/498 255/243/498
f 258/245/499 259/244/499 257/246/499
f 256/248/500 259/247/500 258/249/500
f 256/240/501 255/238/501 242/208/501
f 242/250/502 259/247/502 256/248/502
f 259/247/503 242/250/503 244/251/503
f 242/208/504 255/238/504 245/252/504
f 255/243/505 249/253/505 245/254/505
f 255/243/506 257/241/506 249/253/506
f 257/246/507 259/244/507 249/255/507
f 249/255/508 259/244/508 244/256/508
f 260/258/509 256/257/509 258/259/509
f 261/260/510 256/257/510 260/258/510
f 258/259/511 262/261/511 260/258/511
f 263/263/512 254/262/512 261/260/512
f 263/265/513 261/264/513 262/266/513
f 260/267/514 262/266/514 261/264/514
f 263/263/515 257/268/515 254/262/515
f 261/260/516 254/262/516 256/257/516
f 262/261/517 258/259/517 257/268/517
f 264/269/518 257/268/518 263/263/518
f 262/261/519 257/268/519 264/269/519
f 265/270/520 263/265/520 266/271/520
f 262/266/521 266/271/521 263/265/521
f 264/269/522 263/263/522 265/272/522
f 266/273/523 264/269/523 265/272/523
f 264/269/524 266/273/524 262/261/524
f 157/275/525 3/274/525 17/276/525

o 
usemtl axe.001
s off

v 18.011269 82.610542 9.787720
v 15.420760 75.890091 11.108871
v 22.048170 81.799591 17.277920
v 20.098610 79.171974 16.589001
v 22.825550 80.774323 18.988529
v 20.875990 78.146698 18.299601
v 24.483671 74.074234 24.030039
v 19.471451 70.547722 20.022289
v 21.812639 87.734032 11.131020
v 28.285028 79.197723 25.373341
v 26.824852 91.260544 15.138770
v 23.997742 84.427231 17.966850
v 24.775120 83.401955 19.677450
v 30.875549 85.918182 24.052191
v 21.521170 78.406311 15.483609
v 23.470749 81.033936 16.172529
v 22.298561 77.381050 17.194210
v 24.248121 80.008659 17.883131
v 25.420311 83.661560 16.861460
v 26.197691 82.636307 18.572060
v 0.644240 52.951351 9.714360
v 1.421620 51.926079 11.424960
v 2.844200 51.160431 10.319571
v 2.066810 52.185703 8.608960
v 29.203201 89.065132 19.720221
v -18.862391 24.587280 4.257140
v -17.495649 23.922689 3.071590
v -18.217199 24.846889 1.441140
v -19.639771 25.612549 2.546530

vt 0.033358 0.643728
vt 0.190411 0.923560
vt 0.402692 0.503812
vt 0.402692 0.647326
vt 0.408249 0.287497
vt 0.408249 0.367848
vt 0.492649 0.287497
vt 0.492649 0.367848
vt 0.403043 0.503812
vt 0.403044 0.647326
vt 0.033710 0.643728
vt 0.190763 0.923560
vt 0.033358 0.363896
vt 0.033710 0.363896
vt 0.190411 0.084064
vt 0.402692 0.360297
vt 0.408249 0.207147
vt 0.492649 0.207147
vt 0.403043 0.360297
vt 0.190763 0.084064
vt 0.408248 1.036942
vt 0.492649 1.036942
vt 0.483600 0.371280
vt 0.402049 0.371280
vt 0.402049 1.040375
vt 0.483600 1.040375
vt 0.450449 0.037941
vt 0.483600 0.210579
vt 0.402049 0.210579
vt 0.442825 0.041374
vt 0.000000 1.000000

vn -0.789549 0.396437 0.468455
vn -0.787251 0.483889 0.382213
vn -0.726727 0.391140 0.564693
vn -0.676141 0.328793 0.659339
vn -0.711530 0.277826 0.645397
vn -0.766117 0.447461 0.461350
vn -0.727690 0.496794 0.472931
vn -0.633088 0.280569 0.721444
vn -0.654283 0.380666 0.653458
vn 0.633088 -0.280569 -0.721444
vn 0.654283 -0.380666 -0.653458
vn 0.726725 -0.391141 -0.564693
vn 0.727689 -0.496793 -0.472932
vn 0.766115 -0.447462 -0.461351
vn 0.676141 -0.328793 -0.659339
vn 0.711530 -0.277826 -0.645397
vn 0.789549 -0.396437 -0.468455
vn 0.787251 -0.483886 -0.382217
vn -0.036942 -0.843121 0.536453
vn -0.631938 -0.058395 -0.772816
vn 0.036940 0.843123 -0.536450
vn 0.631939 0.058394 0.772815
vn -0.363181 0.478991 -0.799167
vn 0.363183 -0.478992 0.799165
vn -0.639526 0.495611 0.587687
vn 0.800083 -0.279218 -0.530947
vn 0.446675 -0.355460 0.821054
vn -0.271434 0.591643 -0.759132
vn 0.386704 -0.493602 0.778984
vn 0.729451 -0.395557 -0.558064
vn -0.577514 -0.793011 -0.193938
vn -0.571527 -0.791936 -0.214929

f 267/277/526 268/278/526 269/279/526
f 270/280/527 269/279/527 268/278/527
f 269/281/528 270/282/528 271/283/528
f 272/284/528 271/283/528 270/282/528
f 271/285/529 272/286/529 273/287/529
f 274/288/530 273/287/530 272/286/530
f 275/289/531 267/277/531 269/279/531
f 273/287/529 276/290/529 271/285/529
f 277/291/532 275/289/532 278/292/532
f 269/279/531 278/292/531 275/289/531
f 278/293/528 269/281/528 279/294/528
f 271/283/528 279/294/528 269/281/528
f 279/295/533 271/285/533 280/296/533
f 276/290/534 280/296/534 271/285/534
f 281/280/535 268/278/535 282/279/535
f 267/277/536 282/279/536 268/278/536
f 283/284/537 281/282/537 284/283/537
f 282/281/537 284/283/537 281/282/537
f 274/288/538 283/286/538 273/287/538
f 284/285/539 273/287/539 283/286/539
f 282/279/540 267/277/540 275/289/540
f 273/287/539 284/285/539 276/290/539
f 282/279/540 275/289/540 285/292/540
f 277/291/541 285/292/541 275/289/541
f 284/283/537 282/281/537 286/294/537
f 285/293/537 286/294/537 282/281/537
f 276/290/542 284/285/542 280/296/542
f 286/295/543 280/296/543 284/285/543
f 270/280/544 268/278/544 281/280/544
f 283/286/545 274/288/545 272/286/545
f 279/295/546 280/296/546 286/295/546
f 285/292/547 277/291/547 278/292/547
f 272/284/528 270/282/528 287/297/528
f 287/297/528 288/298/528 272/284/528
f 281/282/537 283/284/537 289/298/537
f 289/298/537 290/297/537 281/282/537
f 270/299/548 281/300/548 290/301/548
f 290/301/548 287/302/548 270/299/548
f 283/300/549 272/299/549 288/302/549
f 288/302/549 289/301/549 283/300/549
f 278/293/550 279/294/550 291/303/550
f 286/294/551 285/293/551 291/303/551
f 279/304/552 286/305/552 291/306/552
f 285/305/553 278/304/553 291/306/553
f 289/298/554 288/297/554 292/298/554 293/307/554
f 287/297/548 290/298/548 294/297/548 295/307/548
f 290/297/555 289/298/555 293/297/555 294/307/555
f 288/298/528 287/297/528 295/298/528 292/307/528
f 294/297/556 293/298/556 295/297/556
f 292/298/557 295/297/557 293/298/557

