mtllib anim_barb_attack6_axe_000055.mtl

o fat
usemtl axe.001
s off

v 20.631489 44.808868 52.271763
v 17.279360 42.614841 46.142311
v 18.835791 37.001381 55.251030
v 17.585051 37.518379 52.193550
v 18.249411 34.945610 55.143288
v 16.998661 35.462601 52.085800
v 15.749320 27.692671 51.374741
v 14.223900 31.902830 45.580921
v 23.070271 43.800812 58.233398
v 18.188099 26.684610 57.336380
v 24.595690 39.590660 64.027222
v 20.086540 36.484390 58.308521
v 19.500160 34.428612 58.200768
v 21.540230 28.878641 63.465828
v 19.319431 37.064869 51.407372
v 20.570181 36.547882 54.464859
v 18.733040 35.009102 51.299629
v 19.983789 34.492100 54.357101
v 21.820919 36.030880 57.522331
v 21.234550 33.975109 57.414597
v 5.104040 42.677361 21.683500
v 4.517660 40.621590 21.575760
v 6.252050 40.168079 20.789581
v 5.238670 45.050491 21.104280
v 23.294420 34.141041 64.300133
v -8.503160 46.005592 -10.231960
v -6.850970 45.586983 -11.078369
v -6.182510 47.607849 -10.910830
v -7.916630 48.061317 -10.124040

vt 0.033358 0.643728
vt 0.190411 0.923560
vt 0.402692 0.503812
vt 0.402692 0.647326
vt 0.408249 0.287497
vt 0.408249 0.367848
vt 0.492649 0.287497
vt 0.492649 0.367848
vt 0.403043 0.503812
vt 0.403044 0.647326
vt 0.033710 0.643728
vt 0.190763 0.923560
vt 0.033358 0.363896
vt 0.033710 0.363896
vt 0.190411 0.084064
vt 0.402692 0.360297
vt 0.408249 0.207147
vt 0.492649 0.207147
vt 0.403043 0.360297
vt 0.190763 0.084064
vt 0.408248 1.036942
vt 0.492649 1.036942
vt 0.483600 0.371280
vt 0.402049 0.371280
vt 0.402049 1.040375
vt 0.483600 1.040375
vt 0.450449 0.037941
vt 0.483600 0.210579
vt 0.402049 0.210579
vt 0.442825 0.041374
vt 0.000000 1.000000

vn -0.871700 0.336446 0.356292
vn -0.807686 0.430241 0.403158
vn -0.886016 0.231675 0.401625
vn -0.913126 0.110922 0.392296
vn -0.935165 0.119864 0.333315
vn -0.845258 0.348861 0.404766
vn -0.819514 0.338952 0.462069
vn -0.923974 0.022555 0.381791
vn -0.888605 0.123840 0.441640
vn 0.923974 -0.022554 -0.381790
vn 0.888605 -0.123840 -0.441640
vn 0.886015 -0.231678 -0.401625
vn 0.819515 -0.338951 -0.462068
vn 0.845257 -0.348861 -0.404766
vn 0.913126 -0.110922 -0.392296
vn 0.935165 -0.119863 -0.333315
vn 0.871700 -0.336446 -0.356292
vn 0.807686 -0.430241 -0.403158
vn -0.438966 -0.698041 -0.565727
vn 0.009844 0.875417 -0.483268
vn 0.438961 0.698042 0.565730
vn -0.009841 -0.875418 0.483266
vn 0.906455 0.211694 -0.365410
vn 0.298290 0.947975 0.111211
vn -0.906334 0.148019 0.395790
vn -0.273948 -0.960427 -0.050334
vn -0.826076 0.208180 0.523697
vn 0.929081 -0.250756 -0.271901
vn -0.214625 -0.972756 0.087649
vn 0.327050 0.926285 0.187174
vn -0.272196 -0.960871 -0.051344
vn -0.561245 0.767238 0.310403
vn 0.934147 0.071106 -0.349734
vn -0.885912 0.231650 0.401867
vn -0.362370 0.195418 -0.911318
vn -0.416078 0.165652 -0.894113

f 1/1/1 2/2/1 3/3/1
f 4/4/2 3/3/2 2/2/2
f 3/5/3 4/6/3 5/7/3
f 6/8/3 5/7/3 4/6/3
f 5/9/4 6/10/4 7/11/4
f 8/12/5 7/11/5 6/10/5
f 9/13/6 1/1/6 3/3/6
f 7/11/4 10/14/4 5/9/4
f 11/15/7 9/13/7 12/16/7
f 3/3/6 12/16/6 9/13/6
f 12/17/3 3/5/3 13/18/3
f 5/7/3 13/18/3 3/5/3
f 13/19/8 5/9/8 14/20/8
f 10/14/9 14/20/9 5/9/9
f 15/4/10 2/2/10 16/3/10
f 1/1/11 16/3/11 2/2/11
f 17/8/12 15/6/12 18/7/12
f 16/5/12 18/7/12 15/6/12
f 8/12/13 17/10/13 7/11/13
f 18/9/14 7/11/14 17/10/14
f 16/3/15 1/1/15 9/13/15
f 7/11/14 18/9/14 10/14/14
f 16/3/15 9/13/15 19/16/15
f 11/15/16 19/16/16 9/13/16
f 18/7/12 16/5/12 20/18/12
f 19/17/12 20/18/12 16/5/12
f 10/14/17 18/9/17 14/20/17
f 20/19/18 14/20/18 18/9/18
f 4/4/19 2/2/19 15/4/19
f 17/10/20 8/12/20 6/10/20
f 13/19/21 14/20/21 20/19/21
f 19/16/22 11/15/22 12/16/22
f 6/8/3 4/6/3 21/21/3
f 21/21/3 22/22/3 6/8/3
f 15/6/12 17/8/12 23/22/12
f 23/22/23 24/21/23 15/6/23
f 4/23/24 15/24/24 24/25/24
f 24/25/25 21/26/25 4/23/25
f 17/24/26 6/23/26 22/26/26
f 22/26/26 23/25/26 17/24/26
f 12/17/27 13/18/27 25/27/27
f 20/18/28 19/17/28 25/27/28
f 13/28/29 20/29/29 25/30/29
f 19/29/30 12/28/30 25/30/30
f 23/22/31 22/21/31 26/22/31 27/31/31
f 21/21/32 24/22/32 28/21/32 29/31/32
f 24/21/33 23/22/33 27/21/33 28/31/33
f 22/22/34 21/21/34 29/22/34 26/31/34
f 28/21/35 27/22/35 29/21/35
f 26/22/36 29/21/36 27/22/36

