mtllib anim_barb_attack_axeonly_000058.mtl

o fat
usemtl axe.001
s off

v -0.437580 33.350288 52.169800
v -0.483980 32.926392 44.859612
v -1.662070 24.892799 51.999352
v -1.637420 26.239660 48.939091
v -1.722710 22.934639 51.137051
v -1.698060 24.281490 48.076782
v -0.942470 17.046740 44.990402
v -0.799960 22.722969 40.366447
v -0.485640 30.724121 58.136868
v -0.990520 14.420580 50.957470
v -0.628140 25.047911 62.760818
v -1.686720 23.545950 55.059628
v -1.747350 21.587790 54.197319
v -0.944120 14.844480 58.267662
v 0.319240 26.183090 48.929947
v 0.294600 24.836239 51.990219
v 0.258600 24.224920 48.067650
v 0.233960 22.878071 51.127911
v 0.269950 23.489389 55.050476
v 0.209310 21.531210 54.188190
v -1.391500 39.679638 18.401239
v -1.452140 37.721470 17.538940
v 0.504530 37.664902 17.529800
v -1.663420 42.577911 18.308109
v -0.790600 19.702330 61.068340
v -1.198270 51.735420 -14.301010
v 0.658050 51.700912 -14.359301
v 0.819070 53.637051 -13.447970
v -1.137600 53.693562 -13.438660

vt 0.033358 0.643728
vt 0.190411 0.923560
vt 0.402692 0.503812
vt 0.402692 0.647326
vt 0.408249 0.287497
vt 0.408249 0.367848
vt 0.492649 0.287497
vt 0.492649 0.367848
vt 0.403043 0.503812
vt 0.403044 0.647326
vt 0.033710 0.643728
vt 0.190763 0.923560
vt 0.033358 0.363896
vt 0.033710 0.363896
vt 0.190411 0.084064
vt 0.402692 0.360297
vt 0.408249 0.207147
vt 0.492649 0.207147
vt 0.403043 0.360297
vt 0.190763 0.084064
vt 0.408248 1.036942
vt 0.492649 1.036942
vt 0.483600 0.371280
vt 0.402049 0.371280
vt 0.402049 1.040375
vt 0.483600 1.040375
vt 0.450449 0.037941
vt 0.483600 0.210579
vt 0.402049 0.210579
vt 0.442825 0.041374
vt 0.000000 1.000000

vn -0.989673 0.143327 -0.002029
vn -0.970786 0.222404 0.090064
vn -0.999571 0.028899 0.004668
vn -0.995382 -0.084645 -0.045270
vn -0.992836 -0.059486 -0.103621
vn -0.988364 0.141997 0.054535
vn -0.986731 0.116717 0.112869
vn -0.982812 -0.165923 -0.080938
vn -0.996239 -0.085913 0.011305
vn 0.982811 0.165923 0.080939
vn 0.996239 0.085912 -0.011305
vn 0.999571 -0.028899 -0.004670
vn 0.986731 -0.116717 -0.112867
vn 0.988364 -0.141997 -0.054535
vn 0.995382 0.084645 0.045269
vn 0.992836 0.059486 0.103621
vn 0.989673 -0.143326 0.002030
vn 0.970786 -0.222403 -0.090062
vn -0.018980 -0.518331 -0.854969
vn 0.027434 0.980423 -0.194982
vn 0.018976 0.518330 0.854970
vn -0.027430 -0.980423 0.194982
vn 0.913543 0.380237 0.144429
vn 0.027699 0.882004 0.470428
vn -0.994244 -0.094880 -0.049764
vn -0.028328 -0.914827 -0.402852
vn -0.991067 -0.026839 0.130636
vn 0.989037 -0.084083 0.121388
vn -0.029116 -0.964970 -0.260740
vn 0.026901 0.843907 0.535814
vn -0.028975 -0.914814 -0.402835
vn -0.845994 0.507453 0.163665
vn 0.959197 0.247217 0.137204
vn -0.999572 0.028875 0.004739
vn 0.007976 0.425316 -0.905010
vn -0.021220 0.403499 -0.914734

f 1/1/1 2/2/1 3/3/1
f 4/4/2 3/3/2 2/2/2
f 3/5/3 4/6/3 5/7/3
f 6/8/3 5/7/3 4/6/3
f 5/9/4 6/10/4 7/11/4
f 8/12/5 7/11/5 6/10/5
f 9/13/6 1/1/6 3/3/6
f 7/11/4 10/14/4 5/9/4
f 11/15/7 9/13/7 12/16/7
f 3/3/6 12/16/6 9/13/6
f 12/17/3 3/5/3 13/18/3
f 5/7/3 13/18/3 3/5/3
f 13/19/8 5/9/8 14/20/8
f 10/14/9 14/20/9 5/9/9
f 15/4/10 2/2/10 16/3/10
f 1/1/11 16/3/11 2/2/11
f 17/8/12 15/6/12 18/7/12
f 16/5/12 18/7/12 15/6/12
f 8/12/13 17/10/13 7/11/13
f 18/9/14 7/11/14 17/10/14
f 16/3/15 1/1/15 9/13/15
f 7/11/14 18/9/14 10/14/14
f 16/3/15 9/13/15 19/16/15
f 11/15/16 19/16/16 9/13/16
f 18/7/12 16/5/12 20/18/12
f 19/17/12 20/18/12 16/5/12
f 10/14/17 18/9/17 14/20/17
f 20/19/18 14/20/18 18/9/18
f 4/4/19 2/2/19 15/4/19
f 17/10/20 8/12/20 6/10/20
f 13/19/21 14/20/21 20/19/21
f 19/16/22 11/15/22 12/16/22
f 6/8/3 4/6/3 21/21/3
f 21/21/3 22/22/3 6/8/3
f 15/6/12 17/8/12 23/22/12
f 23/22/23 24/21/23 15/6/23
f 4/23/24 15/24/24 24/25/24
f 24/25/25 21/26/25 4/23/25
f 17/24/26 6/23/26 22/26/26
f 22/26/26 23/25/26 17/24/26
f 12/17/27 13/18/27 25/27/27
f 20/18/28 19/17/28 25/27/28
f 13/28/29 20/29/29 25/30/29
f 19/29/30 12/28/30 25/30/30
f 23/22/31 22/21/31 26/22/31 27/31/31
f 21/21/32 24/22/32 28/21/32 29/31/32
f 24/21/33 23/22/33 27/21/33 28/31/33
f 22/22/34 21/21/34 29/22/34 26/31/34
f 28/21/35 27/22/35 29/21/35
f 26/22/36 29/21/36 27/22/36

