mtllib anim_barb_attack_axeonly_000006.mtl

o fat
usemtl axe.001
s off

v 28.857700 66.696030 11.448460
v 22.729731 63.446571 13.795739
v 29.382030 69.911217 19.350679
v 26.605461 68.106148 18.890039
v 28.923599 70.084671 21.434290
v 26.147020 68.279602 20.973648
v 25.040852 68.140152 28.796389
v 20.340992 64.350372 24.652769
v 34.271618 70.215652 12.346630
v 30.454769 71.659767 29.694550
v 38.971478 74.005432 16.490240
v 32.158619 71.716301 19.811310
v 31.700180 71.889740 21.894920
v 36.582741 74.909225 27.347281
v 27.612289 66.466049 19.248089
v 30.388870 68.271118 19.708731
v 27.153858 66.639496 21.331699
v 29.930439 68.444572 21.792332
v 33.165440 70.076202 20.169361
v 32.707020 70.249649 22.252970
v -1.101520 50.093689 14.293460
v -1.559950 50.267139 16.377069
v -0.553110 48.627037 16.735119
v -0.786190 50.062759 14.516400
v 38.279861 74.784157 22.002171
v -30.446880 31.483850 11.586510
v -29.466341 29.927841 11.841850
v -28.981480 29.670330 9.861051
v -29.988501 31.310289 9.502900

vt 0.033358 0.643728
vt 0.190411 0.923560
vt 0.402692 0.503812
vt 0.402692 0.647326
vt 0.408249 0.287497
vt 0.408249 0.367848
vt 0.492649 0.287497
vt 0.492649 0.367848
vt 0.403043 0.503812
vt 0.403044 0.647326
vt 0.033710 0.643728
vt 0.190763 0.923560
vt 0.033358 0.363896
vt 0.033710 0.363896
vt 0.190411 0.084064
vt 0.402692 0.360297
vt 0.408249 0.207147
vt 0.492649 0.207147
vt 0.403043 0.360297
vt 0.190763 0.084064
vt 0.408248 1.036942
vt 0.492649 1.036942
vt 0.483600 0.371280
vt 0.402049 0.371280
vt 0.402049 1.040375
vt 0.483600 1.040375
vt 0.450449 0.037941
vt 0.483600 0.210579
vt 0.402049 0.210579
vt 0.442825 0.041374
vt 0.000000 1.000000

vn -0.532468 0.795785 -0.288452
vn -0.457173 0.801562 -0.385345
vn -0.514347 0.837849 -0.182913
vn -0.536916 0.841433 -0.060923
vn -0.588710 0.805404 -0.068890
vn -0.483854 0.821359 -0.302083
vn -0.429908 0.853887 -0.293352
vn -0.548083 0.835960 0.027855
vn -0.489417 0.868823 -0.074949
vn 0.548083 -0.835960 -0.027857
vn 0.489417 -0.868823 0.074949
vn 0.514344 -0.837850 0.182913
vn 0.429908 -0.853887 0.293352
vn 0.483853 -0.821360 0.302083
vn 0.536914 -0.841434 0.060922
vn 0.588709 -0.805404 0.068889
vn 0.532468 -0.795785 0.288453
vn 0.457173 -0.801562 0.385345
vn -0.651749 -0.243272 0.718361
vn -0.300873 -0.376029 -0.876400
vn 0.651746 0.243278 -0.718361
vn 0.300874 0.376027 0.876401
vn 0.492611 -0.706110 -0.508668
vn 0.210481 -0.083430 -0.974031
vn 0.458130 -0.520896 -0.720267
vn -0.214170 0.081030 0.973430
vn -0.395116 0.904198 -0.162200
vn 0.623779 -0.755543 0.200135
vn -0.086952 0.161237 0.983078
vn 0.336527 0.001012 -0.941673
vn -0.203342 0.061101 0.977199
vn 0.251050 -0.134676 -0.958560
vn 0.575996 -0.795394 -0.188619
vn -0.514425 0.837794 -0.182942
vn -0.831303 -0.539588 -0.133341
vn -0.827799 -0.544094 -0.136786

f 1/1/1 2/2/1 3/3/1
f 4/4/2 3/3/2 2/2/2
f 3/5/3 4/6/3 5/7/3
f 6/8/3 5/7/3 4/6/3
f 5/9/4 6/10/4 7/11/4
f 8/12/5 7/11/5 6/10/5
f 9/13/6 1/1/6 3/3/6
f 7/11/4 10/14/4 5/9/4
f 11/15/7 9/13/7 12/16/7
f 3/3/6 12/16/6 9/13/6
f 12/17/3 3/5/3 13/18/3
f 5/7/3 13/18/3 3/5/3
f 13/19/8 5/9/8 14/20/8
f 10/14/9 14/20/9 5/9/9
f 15/4/10 2/2/10 16/3/10
f 1/1/11 16/3/11 2/2/11
f 17/8/12 15/6/12 18/7/12
f 16/5/12 18/7/12 15/6/12
f 8/12/13 17/10/13 7/11/13
f 18/9/14 7/11/14 17/10/14
f 16/3/15 1/1/15 9/13/15
f 7/11/14 18/9/14 10/14/14
f 16/3/15 9/13/15 19/16/15
f 11/15/16 19/16/16 9/13/16
f 18/7/12 16/5/12 20/18/12
f 19/17/12 20/18/12 16/5/12
f 10/14/17 18/9/17 14/20/17
f 20/19/18 14/20/18 18/9/18
f 4/4/19 2/2/19 15/4/19
f 17/10/20 8/12/20 6/10/20
f 13/19/21 14/20/21 20/19/21
f 19/16/22 11/15/22 12/16/22
f 6/8/3 4/6/3 21/21/3
f 21/21/3 22/22/3 6/8/3
f 15/6/12 17/8/12 23/22/12
f 23/22/23 24/21/23 15/6/23
f 4/23/24 15/24/24 24/25/24
f 24/25/25 21/26/25 4/23/25
f 17/24/26 6/23/26 22/26/26
f 22/26/26 23/25/26 17/24/26
f 12/17/27 13/18/27 25/27/27
f 20/18/28 19/17/28 25/27/28
f 13/28/29 20/29/29 25/30/29
f 19/29/30 12/28/30 25/30/30
f 23/22/31 22/21/31 26/22/31 27/31/31
f 21/21/32 24/22/32 28/21/32 29/31/32
f 24/21/33 23/22/33 27/21/33 28/31/33
f 22/22/34 21/21/34 29/22/34 26/31/34
f 28/21/35 27/22/35 29/21/35
f 26/22/36 29/21/36 27/22/36

