mtllib anim_barb_attack_axeonly_000072.mtl

o fat
usemtl axe.001
s off

v 1.422030 18.652140 46.564087
v 0.956700 21.292780 39.750038
v -0.246370 11.056530 43.017151
v -0.318260 13.548040 40.788460
v -0.455120 9.632930 41.432400
v -0.527010 12.124439 39.203712
v -0.315990 6.799310 33.369610
v -0.131030 13.874800 31.492409
v 1.562220 13.794060 50.909710
v -0.175800 1.941240 37.715229
v 1.377260 6.718570 52.786907
v -0.174480 8.565020 45.245861
v -0.383220 7.141420 43.661098
v 0.289540 -0.699410 44.529282
v 1.629460 13.451950 40.618217
v 1.701350 10.960450 42.846909
v 1.420710 12.028350 39.033470
v 1.492610 9.536850 41.262161
v 1.773250 8.468950 45.075611
v 1.564500 7.045330 43.490860
v -1.035700 38.410332 18.548740
v -1.244450 36.986729 16.963989
v 0.703280 36.890640 16.793739
v -1.439250 42.299789 19.330450
v 0.846410 2.558450 49.061630
v -1.990680 62.908890 -6.224540
v -0.141340 62.815598 -6.453160
v 0.165750 64.236359 -4.809940
v -1.781970 64.332527 -4.639800

vt 0.033358 0.643728
vt 0.190411 0.923560
vt 0.402692 0.503812
vt 0.402692 0.647326
vt 0.408249 0.287497
vt 0.408249 0.367848
vt 0.492649 0.287497
vt 0.492649 0.367848
vt 0.403043 0.503812
vt 0.403044 0.647326
vt 0.033710 0.643728
vt 0.190763 0.923560
vt 0.033358 0.363896
vt 0.033710 0.363896
vt 0.190411 0.084064
vt 0.402692 0.360297
vt 0.408249 0.207147
vt 0.492649 0.207147
vt 0.403043 0.360297
vt 0.190763 0.084064
vt 0.408248 1.036942
vt 0.492649 1.036942
vt 0.483600 0.371280
vt 0.402049 0.371280
vt 0.402049 1.040375
vt 0.483600 1.040375
vt 0.450449 0.037941
vt 0.483600 0.210579
vt 0.402049 0.210579
vt 0.442825 0.041374
vt 0.000000 1.000000

vn -0.979567 0.155743 0.127250
vn -0.951634 0.189125 0.242126
vn -0.995001 0.049085 0.086970
vn -0.999418 -0.033678 -0.005410
vn -0.998746 0.013302 -0.048267
vn -0.975257 0.131092 0.178012
vn -0.971770 0.083906 0.220507
vn -0.993031 -0.093192 -0.072146
vn -0.997264 -0.058223 0.045541
vn 0.993031 0.093192 0.072146
vn 0.997264 0.058223 -0.045540
vn 0.995001 -0.049084 -0.086971
vn 0.971770 -0.083906 -0.220507
vn 0.975257 -0.131092 -0.178012
vn 0.999418 0.033679 0.005410
vn 0.998746 -0.013302 0.048268
vn 0.979567 -0.155744 -0.127251
vn 0.951634 -0.189125 -0.242124
vn -0.092220 -0.117398 -0.988794
vn 0.067554 0.972211 0.224148
vn 0.092215 0.117397 0.988794
vn -0.067548 -0.972211 -0.224149
vn 0.937406 0.265771 0.225026
vn 0.099027 0.597648 0.795620
vn -0.993672 -0.089444 -0.067936
vn -0.097523 -0.665087 -0.740370
vn -0.982565 -0.053978 0.177911
vn 0.988486 -0.151210 0.005629
vn -0.093184 -0.769510 -0.631800
vn 0.099646 0.545559 0.832127
vn -0.110754 -0.664940 -0.738640
vn -0.898479 0.316743 0.303987
vn 0.972588 0.155622 0.172786
vn -0.995003 0.049118 0.086930
vn -0.019508 0.758112 -0.651832
vn -0.044497 0.746076 -0.664373

f 1/1/1 2/2/1 3/3/1
f 4/4/2 3/3/2 2/2/2
f 3/5/3 4/6/3 5/7/3
f 6/8/3 5/7/3 4/6/3
f 5/9/4 6/10/4 7/11/4
f 8/12/5 7/11/5 6/10/5
f 9/13/6 1/1/6 3/3/6
f 7/11/4 10/14/4 5/9/4
f 11/15/7 9/13/7 12/16/7
f 3/3/6 12/16/6 9/13/6
f 12/17/3 3/5/3 13/18/3
f 5/7/3 13/18/3 3/5/3
f 13/19/8 5/9/8 14/20/8
f 10/14/9 14/20/9 5/9/9
f 15/4/10 2/2/10 16/3/10
f 1/1/11 16/3/11 2/2/11
f 17/8/12 15/6/12 18/7/12
f 16/5/12 18/7/12 15/6/12
f 8/12/13 17/10/13 7/11/13
f 18/9/14 7/11/14 17/10/14
f 16/3/15 1/1/15 9/13/15
f 7/11/14 18/9/14 10/14/14
f 16/3/15 9/13/15 19/16/15
f 11/15/16 19/16/16 9/13/16
f 18/7/12 16/5/12 20/18/12
f 19/17/12 20/18/12 16/5/12
f 10/14/17 18/9/17 14/20/17
f 20/19/18 14/20/18 18/9/18
f 4/4/19 2/2/19 15/4/19
f 17/10/20 8/12/20 6/10/20
f 13/19/21 14/20/21 20/19/21
f 19/16/22 11/15/22 12/16/22
f 6/8/3 4/6/3 21/21/3
f 21/21/3 22/22/3 6/8/3
f 15/6/12 17/8/12 23/22/12
f 23/22/23 24/21/23 15/6/23
f 4/23/24 15/24/24 24/25/24
f 24/25/25 21/26/25 4/23/25
f 17/24/26 6/23/26 22/26/26
f 22/26/26 23/25/26 17/24/26
f 12/17/27 13/18/27 25/27/27
f 20/18/28 19/17/28 25/27/28
f 13/28/29 20/29/29 25/30/29
f 19/29/30 12/28/30 25/30/30
f 23/22/31 22/21/31 26/22/31 27/31/31
f 21/21/32 24/22/32 28/21/32 29/31/32
f 24/21/33 23/22/33 27/21/33 28/31/33
f 22/22/34 21/21/34 29/22/34 26/31/34
f 28/21/35 27/22/35 29/21/35
f 26/22/36 29/21/36 27/22/36

