mtllib anim_barb_idle_000053.mtl

o fat
usemtl fat.001
s off

v -0.115190 38.694260 -3.588130
v 1.860240 36.144421 6.136090
v 0.138150 37.902710 1.548310
v 0.398420 60.858421 -7.831580
v 9.829500 66.516487 -6.292950
v 2.863620 57.054527 -6.847040
v -0.364130 52.776726 -4.911390
v 8.207680 62.926239 -2.768130
v 7.733630 58.628349 -0.106420
v 6.855360 52.853020 -0.851610
v 4.118580 52.663670 -4.921340
v 6.811730 57.831532 -5.582490
v 9.150360 37.589157 4.469510
v 9.341690 39.515919 -1.001800
v 10.448960 39.017811 -2.220540
v 6.038630 38.513721 5.099730
v 4.973460 37.038410 6.464980
v 4.803960 37.134212 -6.290421
v 4.052240 39.102482 -5.419540
v 0.740120 38.366512 -4.497870
v -0.008560 35.957550 -5.154780
v -0.539880 66.511520 -7.562960
v -0.818690 68.504181 -7.602580
v -0.545670 59.806892 6.018170
v 4.564020 59.848091 4.547580
v 5.536880 64.033615 5.341700
v 8.572370 63.736309 3.276520
v 5.417210 66.835716 5.246880
v 11.151290 67.070244 1.511070
v 4.443630 52.921299 4.025690
v 0.987850 52.650818 5.279350
v -0.102440 66.742851 6.275130
v 5.189400 71.258789 -4.588730
v 11.523100 68.232788 -5.370570
v 11.808630 68.714180 -1.581420
v 2.344440 71.347496 3.950480
v 5.529760 72.471725 -0.149730
v -0.460100 70.526848 4.292120
v 2.491240 76.847824 1.058140
v 3.542730 74.475342 -2.120410
v 0.650640 74.618027 -3.359210
v 0.193200 77.501961 -0.507930
v 0.736290 72.549400 -5.172400
v 1.069300 48.323978 5.529710
v 6.052590 48.318821 4.251700
v 8.374120 47.967072 -1.293340
v 4.278880 47.372978 -5.961480
v -0.494170 47.287361 -5.976570
v 11.577730 65.478012 1.083440
v 10.455270 64.644806 -6.564110
v 13.421360 65.572929 -1.362200
v 12.914200 66.754044 -4.636610
v 8.434970 63.098076 1.735900
v 1.675120 76.288826 6.485980
v 0.054610 74.773872 8.017740
v 2.179800 71.938469 5.088160
v 0.657000 70.870224 6.986150
v -0.416140 73.405273 7.898160
v 0.539750 76.743942 7.882260
v -1.267670 76.614151 7.906150
v 2.628540 77.623329 3.880840
v -0.609680 80.612930 8.115930
v -1.933010 80.563538 8.209160
v 0.513550 78.015190 8.508100
v 1.200520 79.875748 7.571170
v 0.434670 81.954453 5.524520
v -1.162320 81.949608 5.111800
v -0.918380 74.780342 8.415020
v -1.921450 77.360146 8.107120
v -2.212690 75.335434 9.251750
v -2.063300 74.751419 8.636640
v -2.073620 73.168991 8.651190
v -0.650010 70.406898 8.410530
v -2.099640 70.381409 8.708490
v 2.474000 79.961281 3.888000
v 2.071540 81.202660 3.266450
v -0.336190 81.450607 1.757450
v 13.350659 63.089241 0.558690
v 14.300981 63.576889 -3.025080
v 8.967000 57.451721 -3.546200
v 10.138300 57.970749 0.883790
v 11.028410 62.080879 -6.323250
v 11.295330 53.164940 -3.154640
v 13.857121 48.532429 -1.803260
v 11.643330 50.352081 -1.378990
v 14.502140 52.811562 -4.626110
v 15.626110 54.726410 -2.524690
v 15.560960 49.881157 -0.038350
v 14.947200 54.203037 -0.505530
v 14.385241 51.343224 1.841550
v 12.810190 52.353359 -0.133330
v 11.594840 51.606979 1.703170
v 13.595739 55.656563 -4.907630
v 14.099091 54.407028 -4.852450
v 15.233010 60.028919 -2.835430
v 14.085130 59.608932 0.462490
v 12.162060 54.090088 0.051990
v 12.907180 58.154758 -6.056050
v 11.600699 43.787849 3.112900
v 10.020660 44.673630 3.671870
v 12.726570 44.256767 4.085860
v 12.048790 45.514088 5.323880
v 10.448311 45.944611 5.299370
v 8.280030 44.030937 9.634130
v 8.156820 43.311493 9.071609
v 9.139580 43.461937 8.213830
v 9.863950 44.087250 8.349420
v 10.771231 42.718048 8.771060
v 8.204050 45.157089 7.430680
v 9.073510 44.721199 8.433410
v 7.287530 44.139217 9.171761
v 7.623480 43.018871 10.477509
v 6.923330 43.129467 10.021310
v 9.841800 41.106956 10.008470
v 10.537480 40.035137 4.703890
v 10.120120 38.531548 5.908610
v 9.444010 36.740231 8.118361
v 8.839340 41.766983 9.533780
v 10.957109 38.776310 6.501990
v 11.690721 40.213352 5.404080
v 8.251821 39.241741 11.388260
v 4.023100 26.162939 -0.545690
v 8.041620 21.196680 -7.740750
v 5.439050 18.577740 -3.009270
v 9.930830 27.074169 -1.330840
v 12.729170 20.358000 -3.940130
v 6.517180 27.218922 -4.332760
v 8.084940 23.740999 1.482660
v 9.219970 18.247980 0.308180
v 7.784490 25.847721 2.450880
v 7.848010 28.288500 2.070290
v 10.700420 30.868111 -2.002290
v 7.348680 32.774761 4.367340
v 12.422410 10.227270 -7.616640
v 13.832980 7.625720 -8.661270
v 10.721940 8.766870 -10.564919
v 11.584980 7.519160 -5.646540
v 8.973740 9.399261 -7.279300
v 8.951740 6.429100 -8.279921
v 10.055120 4.000390 -12.340440
v 13.044330 4.774110 -12.569229
v 10.563101 1.475140 -4.282640
v 16.553490 2.975130 -4.757450
v 13.374090 3.043960 -0.555780
v 16.057131 1.586020 -0.855020
v 12.245999 0.435750 0.050880
v -9.041790 66.788689 -6.725400
v -1.852100 57.027859 -7.060280
v -5.299610 63.960289 -3.121980
v -7.166400 58.542152 -2.009130
v -4.856760 52.759354 -3.423890
v -6.364830 52.647053 1.164820
v -5.527450 57.761322 -6.508830
v -9.100470 39.081238 -0.521550
v -7.018660 36.722969 6.619440
v -10.264799 38.551098 -0.090480
v -5.332450 37.789768 5.397340
v -4.705620 37.175041 -6.230000
v -4.554830 39.152721 -5.018500
v -0.793830 38.403019 -4.691830
v -5.370470 59.789829 3.285840
v -5.824390 63.959431 4.724330
v -10.568790 63.618690 2.369100
v -5.522530 66.761086 4.854690
v -10.615650 67.857277 1.548740
v -2.534420 52.534031 5.304750
v -10.788000 67.894539 -6.120980
v -4.579310 71.219704 -5.088830
v -11.540870 68.816116 -1.586060
v -3.109910 71.326172 3.240250
v -5.908680 72.527100 -1.239430
v -2.564840 76.861038 -0.121550
v -2.480970 74.478401 -3.175060
v -2.946900 47.914547 6.350500
v -7.647200 47.664562 2.171120
v -5.774990 47.270660 -3.774890
v -11.553101 65.539291 0.620520
v -8.480370 63.918209 -6.999560
v -12.995590 66.347221 -1.951850
v -11.884890 64.933319 -5.149820
v -9.786139 63.691566 1.090110
v -3.649470 74.789627 7.103130
v -4.358580 76.314514 4.996150
v -3.813470 71.963684 3.925620
v -3.733780 70.888916 5.901980
v -3.188170 73.417068 7.213700
v -2.412510 76.619019 7.623490
v -3.999980 76.763260 6.761300
v -3.979120 77.651451 2.249280
v -3.060410 80.623352 7.510780
v -4.257890 78.035515 7.329950
v -4.414860 79.899651 6.184620
v -2.767780 81.968079 4.733800
v -2.973200 74.789093 7.907640
v -3.243720 70.417931 7.770080
v -3.826930 79.988083 2.332200
v -3.171470 81.224968 1.971830
v -12.424170 62.898376 -0.068510
v -13.024691 62.770027 -3.788240
v -8.576981 58.523361 1.272380
v -7.530990 58.053341 -3.099520
v -9.133500 61.536598 -6.517300
v -9.809960 49.117970 1.091040
v -8.237370 53.017479 -2.031050
v -8.788290 52.651920 0.689480
v -11.035390 52.011379 -3.985540
v -12.768889 53.982922 -2.376910
v -12.057710 50.608631 2.178820
v -12.436180 53.743839 -0.220610
v -11.756830 53.488068 3.087210
v -9.222960 54.791168 2.874640
v -10.186100 52.324940 0.742290
v -10.516320 54.927441 -4.558300
v -10.791530 53.676037 -4.340230
v -13.272500 59.127777 -3.386840
v -12.627590 59.315689 0.080220
v -9.558929 55.083279 0.330680
v -10.111229 57.376789 -5.940750
v -7.856870 48.099052 7.934830
v -6.741100 49.615559 8.132259
v -9.271970 48.534298 8.432549
v -9.236890 50.390820 8.980530
v -7.855270 51.233601 8.891790
v -5.972310 51.364540 13.685130
v -6.389990 52.175362 13.814469
v -6.726040 50.808212 12.766670
v -7.586440 51.165462 12.503250
v -8.226010 49.902683 13.442930
v -7.007300 51.987419 12.351970
v -6.043620 52.195923 11.362471
v -5.368860 52.382843 13.460390
v -5.740630 51.894341 15.105030
v -4.996210 52.012829 14.727850
v -7.276260 49.373360 15.393229
v -5.955450 45.340191 13.044840
v -6.404740 45.954861 11.230889
v -5.435860 44.997360 15.905770
v -6.369550 50.043610 14.765060
v -6.943840 45.537262 13.355820
v -7.701760 46.041588 11.633480
v -5.679220 48.900620 17.659641
v -5.360160 19.559341 -7.632330
v -3.225720 25.919868 -0.368790
v -3.091190 18.225189 -2.979900
v -10.384350 18.683380 -4.740060
v -9.012980 26.322762 -2.051410
v -5.358990 27.405260 -4.260370
v -7.148130 23.011280 0.875140
v -7.175210 17.384520 -0.240870
v -7.251960 24.892290 1.960770
v -6.876080 27.660780 2.033260
v -10.283751 30.042328 -1.701970
v -6.357500 32.211460 4.354170
v -8.982110 5.201250 -7.016980
v -8.144350 8.150850 -6.272700
v -5.867660 6.400500 -8.835720
v -7.149590 6.179120 -3.864370
v -4.089240 4.969550 -5.916240
v -4.613880 7.929049 -5.420580
v -4.242630 1.522980 -9.283410
v -7.291530 1.667070 -9.966351
v -5.410140 0.965110 -0.917310
v -11.413740 1.197170 -2.240240
v -8.824170 2.938270 2.042140
v -11.159081 0.950120 1.945990
v -7.356720 0.848840 3.429310

vt 0.550479 0.485338
vt 0.414517 0.485338
vt 0.489174 0.497239
vt 0.490853 0.675485
vt 0.356970 0.710738
vt 0.458986 0.602657
vt 0.458693 0.603155
vt 0.491001 0.506534
vt 0.357039 0.710738
vt 0.272881 0.708251
vt 0.307767 0.663467
vt 0.329118 0.504113
vt 0.420682 0.504388
vt 0.307693 0.663467
vt 0.420389 0.504181
vt 0.390374 0.619683
vt 0.389206 0.622726
vt 0.390855 0.620128
vt 0.309151 0.663075
vt 0.578845 0.971377
vt 0.529882 0.993867
vt 0.501054 0.950636
vt 0.597833 0.993868
vt 0.684209 0.993870
vt 0.691613 0.940228
vt 0.584242 0.936155
vt 0.602549 0.993867
vt 0.689094 0.993870
vt 0.694409 0.971380
vt 0.730001 0.975635
vt 0.490853 0.781888
vt 0.490853 0.820915
vt 0.240556 0.660920
vt 0.133663 0.660928
vt 0.131880 0.753091
vt 0.060606 0.782384
vt 0.055577 0.663688
vt 0.136145 0.808744
vt 0.060014 0.783494
vt 0.058190 0.859642
vt 0.160773 0.512959
vt 0.067037 0.515196
vt 0.240700 0.512959
vt 0.131877 0.752996
vt 0.240556 0.781375
vt 0.390182 0.870896
vt 0.298691 0.847983
vt 0.294173 0.886121
vt 0.181129 0.899551
vt 0.052544 0.886601
vt 0.145152 0.921474
vt 0.235241 0.891030
vt 0.142740 0.921054
vt 0.172936 0.966074
vt 0.456563 0.999059
vt 0.389917 0.922986
vt 0.429989 0.941889
vt 0.491140 0.942697
vt 0.490646 0.999330
vt 0.490853 0.898039
vt 0.701416 0.118225
vt 0.813217 0.120956
vt 0.790107 0.184348
vt 0.877923 0.002315
vt 0.872775 0.120438
vt 0.505869 0.118716
vt 0.564263 0.119120
vt 0.507564 0.183764
vt 0.697589 0.180917
vt 0.580429 0.182675
vt 0.710756 0.001536
vt 0.701372 0.182427
vt 0.812168 0.002315
vt 0.857243 0.184348
vt 0.697567 0.116528
vt 0.503935 0.000692
vt 0.561277 0.000692
vt 0.688827 -0.000098
vt 0.002866 0.854679
vt 0.027518 0.706813
vt 0.061197 0.782654
vt 0.055608 0.663958
vt 0.251604 0.781884
vt 0.357109 0.710738
vt 0.243886 0.876138
vt 0.247300 0.848527
vt -0.000514 0.880403
vt 0.006948 0.782948
vt 0.674684 0.829607
vt 0.705811 0.784366
vt 0.654033 0.662928
vt 0.703232 0.671848
vt 0.720473 0.730776
vt 0.697736 0.853617
vt 0.729837 0.853035
vt 0.623758 0.856571
vt 0.587609 0.811448
vt 0.658187 0.605708
vt 0.748523 0.593788
vt 0.716351 0.931575
vt 0.747491 0.935506
vt 0.695349 0.885675
vt 0.676247 0.904603
vt 0.649719 0.961956
vt 0.745560 1.001324
vt 0.725611 0.781438
vt 0.747491 0.878462
vt 0.747491 0.808438
vt 0.720379 0.731031
vt 0.747491 0.790807
vt 0.720762 0.730332
vt 0.748639 0.732530
vt 0.746944 0.628012
vt 0.703659 0.671442
vt 0.731857 0.666086
vt 0.747085 0.666819
vt 0.703186 0.671176
vt 0.611291 0.885598
vt 0.604148 0.909350
vt 0.550618 0.823662
vt 0.550618 0.934468
vt 0.625864 0.557513
vt 0.571978 0.557920
vt 0.578607 0.510287
vt 0.669444 0.510287
vt 0.756032 0.560223
vt 0.679695 0.557918
vt 0.877240 0.461159
vt 0.992418 0.461159
vt 0.944262 0.560223
vt 0.756457 0.510287
vt 0.806202 0.560223
vt 0.498275 0.560223
vt 0.875566 0.382888
vt 0.758260 0.308662
vt 0.875912 0.308662
vt 0.759996 0.360654
vt 0.669163 0.382888
vt 0.671223 0.308662
vt 0.584325 0.382888
vt 0.577057 0.308662
vt 0.498223 0.363687
vt 0.498247 0.308662
vt 0.992597 0.308662
vt 0.992439 0.363687
vt 0.759483 0.410364
vt 0.758924 0.382888
vt 0.665903 0.461159
vt 0.580075 0.461159
vt 0.498223 0.402657
vt 0.992438 0.402657
vt 0.760539 0.449273
vt 0.498220 0.461159
vt 0.875438 0.575163
vt 0.762705 0.196431
vt 0.858161 0.196355
vt 0.690657 0.196417
vt 0.588027 0.196417
vt 0.498144 0.196431
vt 0.991918 0.196431
vt 0.375723 0.009258
vt 0.380090 0.017573
vt 0.356438 0.030356
vt 0.342839 0.029458
vt 0.369327 0.043627
vt 0.316032 0.012201
vt 0.336848 0.019568
vt 0.249292 0.041099
vt 0.371147 0.002582
vt 0.416197 0.004791
vt 0.408124 0.000758
vt 0.128136 0.016613
vt 0.154876 0.002573
vt 0.119423 0.002194
vt 0.160447 0.001473
vt 0.065726 0.014292
vt 0.105093 0.028910
vt 0.000825 0.069213
vt 0.000703 0.039244
vt 0.249314 0.055441
vt 0.429228 0.045736
vt 0.102506 0.115410
vt 0.153549 0.117195
vt 0.189513 0.114692
vt 0.228429 0.109580
vt 0.194639 0.033982
vt 0.406548 0.108121
vt 0.355355 0.108206
vt 0.448349 0.035630
vt 0.498209 0.039288
vt 0.461840 0.047992
vt 0.483032 0.114221
vt 0.406174 0.120334
vt 0.355217 0.119080
vt 0.243215 0.037501
vt 0.249314 0.089732
vt 0.000703 0.095058
vt 0.249292 0.105039
vt 0.160984 0.032072
vt 0.413806 0.033644
vt 0.442212 0.108407
vt 0.443088 0.117732
vt 0.023914 0.327327
vt 0.104127 0.227894
vt 0.000784 0.227894
vt 0.216171 0.327327
vt 0.216985 0.228421
vt 0.105699 0.228145
vt 0.104981 0.327662
vt 0.217575 0.327327
vt 0.351490 0.301452
vt 0.217290 0.227894
vt 0.351571 0.227894
vt 0.352420 0.301452
vt 0.489174 0.227894
vt 0.352342 0.227894
vt 0.471690 0.333380
vt 0.351597 0.328057
vt 0.217345 0.328075
vt 0.352312 0.363299
vt 0.470864 0.334174
vt 0.352330 0.328057
vt 0.216660 0.380224
vt 0.216104 0.328075
vt 0.104983 0.328371
vt 0.217232 0.380224
vt 0.351611 0.363299
vt 0.351459 0.420971
vt 0.352499 0.420971
vt 0.351589 0.497239
vt 0.229465 0.497239
vt 0.352627 0.497239
vt 0.229583 0.497239
vt 0.133020 0.497239
vt 0.072972 0.497239
vt 0.025422 0.328212
vt 0.002386 0.497239
vt 0.216130 0.152222
vt 0.223982 0.125749
vt 0.105883 0.155747
vt 0.351732 0.147623
vt 0.223132 0.128232
vt 0.218721 0.149411
vt 0.469070 0.149411
vt 0.483427 0.127273
vt 0.352306 0.146326
vt 0.017963 0.152222
vt 0.104256 0.155747
vt 0.009616 0.131504
vt 0.104128 0.227914
vt 0.000790 0.227921
vt 0.216984 0.228396
vt 0.351571 0.227971
vt 0.217291 0.227882
vt 0.352342 0.227879
vt 0.489111 0.227891
vt 0.948232 0.041698
vt 0.989968 0.003451
vt 0.971575 0.059997
vt 0.909211 0.004273
vt 0.996004 0.120663
vt 0.925604 0.058708
vt 0.885225 0.122889
vt 0.516483 0.798440
vt 0.501430 0.685191
vt 0.597947 0.686709
vt 0.594444 0.793024
vt 0.950876 0.082499
vt 0.943924 0.157220
vt 0.507177 0.624822
vt 0.600053 0.622523
vt 0.901715 0.182549
vt 0.982420 0.184037
vt 0.730212 0.975635
vt 0.685579 0.991654
vt 0.692830 0.969164

vn -0.572287 -0.814266 -0.097256
vn 0.222203 -0.106834 -0.969130
vn -0.129293 -0.326165 -0.936429
vn 0.688256 0.325585 0.648304
vn 0.829759 -0.054514 -0.555453
vn -0.012234 -0.404540 -0.914438
vn 0.343468 -0.293142 -0.892243
vn 0.936178 -0.334209 -0.108975
vn 0.333344 -0.191346 -0.923184
vn 0.879743 -0.468687 -0.079906
vn -0.631051 -0.724519 -0.277213
vn -0.329140 -0.887002 -0.323874
vn -0.314151 -0.512643 -0.799066
vn 0.021647 -0.918413 0.395031
vn -0.530059 -0.504126 0.681832
vn 0.293251 -0.335285 0.895314
vn 0.314723 -0.280960 0.906648
vn 0.946995 -0.313474 0.070239
vn 0.121570 -0.002726 -0.992579
vn 0.270295 -0.239739 0.932451
vn 0.656261 -0.488573 0.574994
vn 0.545109 0.022134 0.838073
vn 0.276329 -0.076981 0.957975
vn 0.895050 -0.048955 0.443271
vn 0.342561 -0.023556 0.939200
vn 0.141724 -0.045691 0.988851
vn 0.082404 0.407468 -0.909494
vn 0.121262 0.067186 -0.990344
vn 0.522354 -0.274584 0.807310
vn 0.411851 0.899589 -0.145321
vn 0.182316 0.041029 0.982384
vn 0.196642 0.496282 -0.845598
vn 0.565220 0.051999 0.823300
vn 0.452354 0.516904 0.726764
vn 0.528056 0.698198 0.483400
vn 0.153999 0.470018 0.869119
vn 0.030051 0.294889 0.955059
vn 0.705766 0.314879 0.634622
vn 0.782638 0.594421 -0.184774
vn 0.552099 0.628852 -0.547477
vn 0.262758 0.812872 -0.519805
vn 0.482333 0.674016 0.559515
vn 0.449197 0.852485 -0.267379
vn 0.791393 0.571552 -0.216853
vn 0.284231 0.671013 -0.684803
vn 0.331971 0.629505 -0.702509
vn 0.238943 0.430916 -0.870183
vn 0.246335 0.133256 0.959980
vn 0.912361 0.173089 0.370996
vn 0.704286 0.277980 -0.653229
vn 0.002688 0.192984 -0.981198
vn 0.245216 0.164015 0.955494
vn 0.336195 0.060710 0.939834
vn 0.931542 0.273804 0.239291
vn 0.899337 0.246928 0.360859
vn 0.851580 0.318160 0.416636
vn 0.819387 0.134384 -0.557266
vn -0.000314 0.190499 -0.981687
vn 0.715871 0.234125 -0.657810
vn 0.571642 0.055616 -0.818616
vn 0.002581 0.032243 -0.999477
vn -0.210440 -0.079693 -0.974353
vn 0.412195 0.137289 0.900693
vn 0.940523 0.173444 0.292119
vn 0.989973 -0.134981 -0.041639
vn 0.277327 0.227942 -0.933345
vn 0.607537 -0.050181 0.792705
vn 0.888482 0.458079 0.027622
vn 0.720921 0.409159 0.559340
vn 0.552901 0.110196 -0.825928
vn 0.754706 0.641311 -0.138344
vn -0.805511 -0.187891 -0.562005
vn -0.993678 0.102297 0.046243
vn 0.616879 -0.745068 0.253640
vn 0.741092 -0.125929 0.659488
vn 0.328214 -0.193670 0.924536
vn 0.008410 0.066540 0.997748
vn 0.939295 -0.001278 0.343107
vn 0.998310 -0.045593 -0.036034
vn 0.985394 -0.042779 0.164826
vn 0.299998 -0.828090 0.473570
vn 0.062669 0.175422 0.982497
vn 0.848120 -0.047426 0.527677
vn 0.936015 0.017497 0.351524
vn -0.111545 0.900157 0.421041
vn 0.360857 0.312559 0.878686
vn 0.590994 0.318255 0.741242
vn 0.607588 0.322849 0.725676
vn 0.368729 -0.206023 0.906418
vn 0.189125 -0.284215 0.939922
vn -0.005389 0.913259 0.407343
vn -0.154015 -0.032014 0.987550
vn 0.153079 -0.697825 0.699719
vn 0.412955 0.005678 0.910734
vn 0.491219 -0.866024 -0.093306
vn 0.790158 -0.039692 0.611617
vn 0.011700 -0.999523 -0.028573
vn 0.395626 0.124631 0.909916
vn 0.725571 0.060543 0.685479
vn 0.321732 -0.946745 -0.012739
vn 0.200992 0.018259 0.979423
vn 0.995596 0.066017 -0.066566
vn 0.955362 0.201590 -0.215972
vn 0.685639 -0.310092 0.658591
vn 0.043488 -0.440541 0.896679
vn 0.745726 -0.138832 0.651628
vn -0.070581 -0.316670 0.945906
vn 0.451651 0.704897 0.546930
vn 0.942883 0.061326 0.327431
vn 0.850968 0.428176 0.304169
vn 0.731287 0.595993 0.331681
vn 0.384336 0.298089 0.873744
vn 0.590488 0.409545 -0.695412
vn 0.500774 0.480274 -0.720113
vn 0.166651 0.980430 -0.104805
vn 0.067132 0.960227 -0.271029
vn 0.786063 -0.195216 0.586511
vn 0.719986 0.411630 0.558731
vn 0.660870 -0.089496 -0.745145
vn 0.915960 0.401258 0.002870
vn -0.896993 -0.344102 0.277485
vn 0.943124 0.186168 0.275424
vn 0.687469 0.085931 -0.721112
vn -0.788275 -0.229833 -0.570788
vn 0.232632 -0.040803 0.971709
vn -0.538522 -0.496422 -0.680852
vn -0.411975 -0.457674 -0.787916
vn 0.928253 -0.291950 -0.230459
vn 0.789509 -0.288573 -0.541665
vn 0.920195 0.168856 0.353170
vn 0.889797 0.172053 0.422680
vn 0.065424 0.908580 0.412556
vn -0.424584 0.622779 0.657172
vn -0.756896 0.601044 -0.256622
vn -0.853823 0.198224 0.481345
vn -0.369667 -0.281659 -0.885446
vn -0.434940 -0.213836 -0.874701
vn 0.781361 0.290361 -0.552418
vn 0.764670 0.018940 -0.644143
vn 0.937075 0.089249 0.337527
vn 0.936918 0.088873 0.338061
vn 0.197392 -0.030885 0.979838
vn -0.826698 -0.490286 0.276026
vn -0.785635 -0.021088 -0.618330
vn -0.412237 -0.471888 -0.779347
vn 0.820112 -0.036467 -0.571039
vn 0.671259 0.137402 -0.728376
vn 0.924632 0.257878 0.280278
vn 0.920622 0.184777 0.343966
vn 0.231929 -0.084006 0.969098
vn 0.108058 -0.004675 0.994134
vn -0.987896 -0.144893 0.055381
vn 0.821030 0.128505 -0.556234
vn -0.426675 -0.231800 -0.874195
vn -0.869029 -0.360472 0.338894
vn 0.199823 -0.141745 0.969525
vn -0.836754 -0.422679 0.348118
vn 0.157542 -0.127733 0.979216
vn 0.690553 0.285217 -0.664671
vn -0.478178 -0.285351 -0.830615
vn -0.519321 -0.480309 -0.706830
vn -0.527215 -0.477537 -0.702853
vn 0.616583 -0.688629 -0.381597
vn 0.757776 -0.588522 -0.281811
vn 0.839012 -0.024229 0.543573
vn 0.859054 -0.039438 0.510364
vn 0.114483 0.475264 0.872364
vn 0.008656 0.534849 0.844903
vn -0.985580 0.150738 -0.076877
vn -0.955847 0.293013 0.022340
vn 0.593071 -0.556506 0.581866
vn -0.275176 0.111710 0.954882
vn 0.031459 0.926328 0.375403
vn -0.115745 0.882837 0.455195
vn -0.081308 0.886357 0.455807
vn -0.233592 0.707422 0.667075
vn -0.325147 0.674733 0.662582
vn 0.845852 -0.048253 0.531231
vn 0.894679 -0.359999 0.264480
vn -0.505638 -0.441328 -0.741323
vn -0.017515 -0.977523 -0.210100
vn -0.578976 -0.533434 -0.616631
vn -0.487238 -0.573251 -0.658774
vn -0.769952 -0.563366 -0.299653
vn -0.607963 0.695336 -0.383260
vn 0.227118 0.869319 0.438979
vn 0.005445 0.607141 0.794575
vn -0.935946 -0.021807 -0.351467
vn -0.949722 -0.026396 -0.311979
vn 0.889399 -0.195836 0.413059
vn 0.908969 -0.174948 0.378376
vn 0.006983 0.590841 0.806757
vn 0.800628 -0.297940 0.519833
vn 0.570881 -0.604025 -0.556101
vn 0.456132 -0.675494 -0.579355
vn -0.944407 -0.021219 -0.328093
vn 0.908676 0.087980 0.408126
vn -0.960665 -0.157870 -0.228472
vn -0.441144 -0.241461 -0.864343
vn 0.690444 -0.377962 -0.616791
vn -0.034516 -0.173441 0.984239
vn 0.929540 -0.125046 0.346871
vn 0.512595 -0.454163 -0.728686
vn 0.520266 0.563693 0.641539
vn 0.531709 0.550523 0.643591
vn -0.955913 -0.055265 -0.288401
vn 0.027766 0.611115 0.791055
vn 0.849507 -0.272837 0.451551
vn 0.522627 -0.733442 -0.434653
vn -0.874786 -0.005948 -0.484473
vn 0.599115 0.494325 -0.629844
vn 0.581139 0.507238 -0.636386
vn 0.782745 0.086709 0.616273
vn 0.765728 0.020780 0.642829
vn -0.646119 -0.284903 0.708068
vn -0.576563 -0.347760 0.739349
vn 0.878430 -0.090386 0.469245
vn -0.610103 0.137547 0.780292
vn 0.631909 -0.257554 -0.730997
vn 0.838363 -0.074489 0.540000
vn 0.853200 -0.159332 0.496651
vn -0.312547 -0.460250 0.830953
vn 0.860304 0.056610 0.506629
vn -0.590218 -0.405081 0.698249
vn -0.842963 0.087043 -0.530884
vn 0.862019 0.134406 0.488731
vn -0.486422 -0.218980 0.845838
vn 0.892176 0.088943 0.442844
vn 0.621289 0.185688 -0.761262
vn 0.474590 0.017961 -0.880024
vn -0.237150 -0.137144 -0.961744
vn -0.719558 -0.381493 -0.580258
vn -0.531953 -0.316150 0.785541
vn -0.948887 -0.293146 -0.116961
vn 0.572928 0.553401 -0.604567
vn 0.784218 0.187731 0.591404
vn -0.633911 -0.242696 0.734340
vn -0.855827 0.170825 -0.488241
vn 0.756811 0.295647 -0.582949
vn -0.886314 -0.087813 -0.454682
vn -0.851590 -0.087501 -0.516854
vn 0.636617 0.245972 -0.730901
vn 0.803129 -0.224591 0.551854
vn 0.924247 -0.008120 0.381708
vn -0.685061 -0.463116 0.562330
vn -0.589904 -0.516089 0.621020
vn -0.875252 0.271538 -0.400251
vn -0.164484 0.364439 -0.916585
vn -0.937573 -0.344346 -0.048809
vn 0.905946 0.233482 -0.353196
vn 0.208150 -0.928555 -0.307341
vn 0.216792 -0.927560 -0.304357
vn 0.560673 0.699690 0.442809
vn 0.564511 0.608381 -0.557853
vn -0.734481 0.265149 0.624687
vn 0.570382 0.705852 0.420045
vn -0.820567 0.254249 0.511887
vn 0.208193 -0.929517 -0.304390
vn 0.208664 -0.929545 -0.303983
vn 0.477284 0.806930 0.347942
vn 0.187167 0.145031 0.971563
vn -0.796005 0.440774 0.414843
vn 0.390500 -0.761151 -0.517841
vn -0.174437 -0.094862 -0.980088
vn 0.289124 -0.349331 -0.891277
vn -0.507830 0.337743 0.792489
vn -0.907697 -0.287828 -0.305355
vn -0.268998 -0.507834 -0.818379
vn -0.228601 -0.533059 -0.814610
vn -0.896433 -0.355333 -0.264852
vn -0.164913 -0.087768 -0.982395
vn -0.912919 -0.295828 -0.281183
vn 0.267268 -0.889115 -0.371541
vn 0.286338 -0.881825 -0.374694
vn 0.011672 -0.761220 -0.648388
vn 0.504894 -0.623515 0.596918
vn 0.635751 -0.437880 0.635674
vn -0.279836 -0.264567 0.922874
vn -0.174051 -0.504709 0.845562
vn -0.939362 -0.323292 0.114375
vn -0.099071 -0.033636 -0.994512
vn -0.463647 -0.333646 0.820800
vn -0.592431 -0.715829 0.369614
vn -0.513574 0.157568 0.843454
vn -0.492308 0.049376 0.869019
vn -0.731790 -0.098384 0.674391
vn 0.010506 -0.100464 0.994885
vn -0.252601 -0.019696 0.967370
vn -0.062637 0.400689 -0.914071
vn -0.096986 0.031173 -0.994797
vn -0.398988 -0.337564 0.852560
vn -0.425134 0.870633 -0.247507
vn -0.253523 -0.017688 0.967168
vn -0.195296 0.506802 -0.839649
vn -0.445002 0.006277 0.895507
vn -0.399787 0.486105 0.777092
vn -0.523861 0.758942 0.386751
vn -0.226875 0.435162 0.871299
vn -0.219683 0.426411 0.877447
vn -0.719636 0.410855 0.559752
vn -0.623607 0.607914 -0.491482
vn -0.252469 0.659749 -0.707807
vn -0.071176 0.785439 -0.614833
vn -0.454611 0.747448 0.484407
vn -0.479312 0.767257 -0.426119
vn -0.618371 0.654055 -0.435694
vn -0.155976 0.572964 -0.804602
vn -0.073425 0.655650 -0.751486
vn -0.150742 0.551021 -0.820763
vn 0.176247 0.202338 0.963326
vn -0.664635 0.005487 0.747148
vn -0.935009 0.178797 -0.306250
vn -0.312709 0.112629 -0.943148
vn 0.184002 0.144231 0.972286
vn 0.005281 0.057864 0.998311
vn -0.820030 0.309909 0.481152
vn -0.641446 0.307081 0.703028
vn -0.713981 0.214624 0.666459
vn -0.936440 0.176067 -0.303449
vn -0.378674 0.184943 -0.906864
vn -0.893273 0.331822 -0.303245
vn -0.728496 0.088047 -0.679368
vn -0.378975 0.180577 -0.907618
vn 0.207436 -0.061923 -0.976287
vn 0.012363 0.019526 0.999733
vn -0.911254 0.232373 0.340028
vn -0.720680 0.107640 -0.684861
vn -0.309826 0.030169 -0.950314
vn -0.815213 0.101351 0.570224
vn -0.726799 0.498285 -0.472732
vn -0.757708 0.366452 0.539992
vn -0.497570 -0.098336 -0.861832
vn -0.937027 0.277576 -0.211970
vn 0.755289 0.207112 -0.621807
vn 0.015016 -0.998748 -0.047723
vn -0.605229 -0.682789 -0.409265
vn -0.964592 -0.170387 0.201321
vn -0.722365 -0.189200 0.665126
vn -0.471329 0.068584 0.879287
vn -0.981398 -0.080017 -0.174516
vn -0.869704 -0.190828 -0.455191
vn -0.770812 -0.200652 -0.604639
vn -0.399780 -0.838719 0.369765
vn -0.511369 0.177877 0.840751
vn -0.996606 -0.039573 0.072178
vn -0.991885 0.025703 -0.124509
vn -0.090027 0.900062 0.426360
vn -0.725852 0.317177 0.610359
vn -0.865504 0.324449 0.381623
vn -0.872913 0.329149 0.360116
vn -0.749882 -0.201260 0.630215
vn -0.607154 -0.280821 0.743306
vn -0.177511 0.913991 0.364843
vn -0.323603 -0.031292 0.945675
vn -0.466770 -0.695183 0.546668
vn -0.789335 0.010793 0.613868
vn -0.311378 -0.840042 -0.444267
vn -0.998976 0.007871 0.044560
vn -0.003762 -0.999404 -0.034309
vn -0.772664 0.129599 0.621445
vn -0.960728 0.067717 0.269103
vn -0.199726 -0.961263 -0.189956
vn -0.633619 0.021812 0.773337
vn -0.845435 0.073839 -0.528950
vn -0.739327 0.204911 -0.641411
vn -0.915844 -0.303280 0.263157
vn -0.459396 -0.438405 0.772500
vn -0.964409 -0.131551 0.229366
vn -0.380344 -0.315330 0.869428
vn -0.648640 0.709578 0.275254
vn -0.986398 0.069535 -0.148942
vn -0.891278 0.435593 -0.126023
vn -0.796817 0.602494 -0.045637
vn -0.744443 0.302899 0.595027
vn -0.217257 0.397467 -0.891527
vn -0.104228 0.484369 -0.868633
vn -0.090848 0.981526 -0.168386
vn 0.074435 0.960197 -0.269223
vn -0.949058 0.039282 0.312643
vn -0.843403 0.143064 0.517885
vn -0.518057 -0.243187 -0.820047
vn -0.889381 0.214491 -0.403726
vn 0.951817 0.229848 0.203014
vn -0.984036 -0.074878 0.161448
vn -0.575806 -0.007641 -0.817551
vn 0.733603 -0.322330 -0.598273
vn -0.369135 -0.118740 0.921759
vn 0.953186 -0.257567 0.158416
vn 0.581708 -0.638274 -0.504205
vn -0.797815 -0.586074 -0.141451
vn -0.632797 -0.666198 -0.394649
vn -0.988348 -0.002842 0.152183
vn -0.978269 0.037912 0.203845
vn -0.402621 0.683591 -0.608769
vn 0.547349 0.835538 -0.047807
vn -0.186495 0.683237 -0.705980
vn -0.223891 0.970890 0.085123
vn 0.620596 -0.245086 -0.744844
vn 0.608432 -0.264215 -0.748332
vn -0.701883 0.030341 -0.711645
vn -0.633949 -0.208260 -0.744806
vn -0.980806 -0.059561 0.185666
vn -0.988126 -0.041927 0.147815
vn -0.274457 0.202674 0.939998
vn 0.909808 -0.328967 0.253041
vn 0.729335 -0.277888 -0.625178
vn 0.717281 -0.428670 -0.549318
vn -0.690573 -0.265507 -0.672767
vn -0.583978 -0.049562 -0.810255
vn -0.984169 0.084150 0.155982
vn -0.981783 0.063185 0.179195
vn -0.386770 -0.058031 0.920349
vn -0.271933 0.055326 0.960725
vn 0.670545 -0.250647 0.698244
vn -0.707451 -0.046621 -0.705223
vn 0.613235 -0.249522 -0.749454
vn 0.825829 -0.105097 0.554040
vn -0.161413 -0.058734 0.985138
vn 0.866624 -0.015747 0.498714
vn -0.308458 -0.168241 0.936242
vn -0.615980 0.035711 -0.786952
vn 0.744817 -0.260224 -0.614435
vn 0.758082 -0.503847 -0.414064
vn 0.905886 -0.296282 -0.302634
vn -0.310469 -0.949121 -0.052706
vn -0.560792 -0.827588 -0.024700
vn -0.916711 -0.029907 0.398431
vn -0.931656 -0.086552 0.352882
vn -0.406838 0.725417 0.555206
vn -0.350671 0.769054 0.534402
vn 0.963080 0.261413 -0.064349
vn 0.824503 0.565842 0.004055
vn -0.569483 -0.407255 0.714025
vn 0.001872 0.596372 0.802706
vn -0.329148 0.936194 -0.123295
vn -0.206031 0.978322 -0.020900
vn -0.236043 0.971416 -0.025198
vn -0.104319 0.959567 0.261437
vn -0.009395 0.959142 0.282769
vn -0.914756 -0.078831 0.396241
vn -0.823704 -0.473959 0.311246
vn 0.757430 -0.532305 -0.378090
vn 0.292845 -0.910501 0.291943
vn 0.818395 -0.532610 -0.215767
vn 0.750165 -0.614928 -0.243138
vn 0.926944 -0.364078 0.090681
vn 0.493905 0.624235 -0.605300
vn -0.522577 0.850667 -0.057259
vn -0.337112 0.854139 0.395982
vn 0.972002 0.126921 -0.197744
vn 0.976479 0.144500 -0.160029
vn -0.892586 -0.269378 0.361561
vn -0.907464 -0.272907 0.319422
vn -0.337743 0.845164 0.414280
vn -0.811116 -0.281050 0.512934
vn -0.264415 -0.931408 -0.250126
vn -0.133998 -0.965399 -0.223719
vn 0.974176 0.140249 -0.176950
vn -0.975344 -0.045319 0.215988
vn 0.997090 0.072977 -0.022021
vn 0.688549 -0.430631 -0.583488
vn -0.400577 -0.807749 -0.432527
vn -0.167407 0.291301 0.941870
vn -0.931998 -0.249681 0.262752
vn -0.203178 -0.859259 -0.469460
vn -0.774169 0.588408 0.233321
vn -0.782245 0.574849 0.240086
vn 0.983328 0.132227 -0.124825
vn -0.358221 0.848881 0.388688
vn -0.846637 -0.304988 0.436105
vn -0.218194 -0.972867 -0.076950
vn 0.904876 0.150889 -0.398036
vn -0.511432 0.365521 -0.777709
vn -0.557986 0.327737 -0.762391
vn -0.856792 -0.027422 0.514932
vn -0.823771 -0.106479 0.556834
vn 0.572435 -0.162172 0.803753
vn 0.470551 -0.276155 0.838045
vn -0.918104 -0.234914 0.319218
vn 0.516226 -0.092386 0.851455
vn -0.496034 -0.088317 -0.863800
vn -0.792579 -0.319568 0.519321
vn -0.785012 -0.208124 0.583473
vn 0.325302 -0.458781 0.826861
vn -0.895045 0.110206 0.432144
vn 0.533320 -0.400571 0.745059
vn 0.889908 0.179994 -0.419124
vn -0.837240 0.052052 0.544352
vn 0.560522 -0.250604 0.789312
vn -0.845025 0.040995 0.533153
vn -0.693009 0.181826 -0.697623
vn -0.471222 -0.024642 -0.881670
vn 0.072630 -0.069182 -0.994957
vn 0.764481 -0.338849 -0.548407
vn 0.579419 -0.284829 0.763640
vn 0.956470 -0.242538 -0.162297
vn -0.569184 0.349460 -0.744250
vn -0.874210 0.130272 0.467747
vn 0.544349 -0.043804 0.837714
vn 0.877204 0.226412 -0.423381
vn -0.712829 0.091087 -0.695398
vn 0.939432 -0.004891 -0.342700
vn 0.895397 -0.027065 -0.444445
vn -0.501334 0.019256 -0.865039
vn -0.820995 -0.249343 0.513610
vn -0.946081 -0.101624 0.307577
vn 0.622531 -0.239503 0.745046
vn 0.574063 -0.268281 0.773613
vn 0.870167 0.323989 -0.371269
vn 0.222978 0.162512 -0.961182
vn 0.978106 -0.166065 0.125424
vn -0.881234 -0.027756 -0.471864
vn -0.022529 -0.997102 -0.072664
vn -0.031248 -0.996998 -0.070843
vn -0.710018 0.674101 0.203623
vn -0.569151 0.349031 -0.744476
vn 0.606094 0.534918 0.588653
vn -0.722454 0.671747 0.163756
vn 0.712495 0.510056 0.481865
vn -0.003697 -0.998270 -0.058687
vn -0.029778 -0.998754 -0.040054
vn -0.648014 0.756972 0.084092
vn -0.332615 0.348243 0.876410
vn 0.664982 0.676758 0.315907
vn -0.060384 -0.991538 -0.114917

f 1/1/1 2/2/1 3/3/1
f 4/4/2 5/5/2 6/6/2
f 4/4/3 6/7/3 7/8/3
f 5/9/4 8/10/4 9/11/4
f 10/12/5 11/13/5 9/14/5
f 6/6/6 11/15/6 7/8/6
f 6/6/7 12/16/7 11/13/7
f 12/17/8 5/5/8 9/14/8
f 6/6/9 5/5/9 12/17/9
f 11/13/10 12/18/10 9/19/10
f 13/20/11 14/21/11 15/22/11
f 14/21/12 13/20/12 16/23/12
f 16/24/13 13/20/13 17/25/13
f 15/22/14 14/21/14 18/26/14
f 14/21/15 19/27/15 18/26/15
f 18/26/16 20/28/16 21/29/16
f 18/26/17 19/27/17 20/28/17
f 20/28/18 3/30/18 21/29/18
f 5/9/19 22/31/19 23/32/19
f 24/33/20 25/34/20 26/35/20
f 27/36/21 25/34/21 9/37/21
f 28/38/22 27/39/22 29/40/22
f 30/41/23 25/34/23 24/33/23
f 25/34/24 30/41/24 10/42/24
f 30/41/25 24/33/25 31/43/25
f 24/33/26 26/44/26 32/45/26
f 33/46/27 34/47/27 5/9/27
f 4/4/28 22/31/28 5/9/28
f 26/35/29 25/34/29 27/39/29
f 33/46/30 35/48/30 34/47/30
f 32/45/31 26/35/31 28/38/31
f 23/32/32 33/46/32 5/9/32
f 26/35/33 27/39/33 28/38/33
f 28/38/34 29/40/34 36/49/34
f 35/50/35 37/51/35 29/40/35
f 28/38/36 38/52/36 32/45/36
f 36/49/37 38/52/37 28/38/37
f 36/49/38 37/53/38 39/54/38
f 39/55/39 37/56/39 40/57/39
f 41/58/40 42/59/40 39/55/40
f 39/55/41 40/57/41 41/58/41
f 36/49/42 29/40/42 37/51/42
f 37/56/43 35/48/43 33/46/43
f 37/56/44 33/46/44 40/57/44
f 40/57/45 33/46/45 43/60/45
f 40/57/46 43/60/46 41/58/46
f 33/46/47 23/32/47 43/60/47
f 44/61/48 45/62/48 30/63/48
f 15/64/49 46/65/49 45/62/49
f 46/66/50 47/67/50 10/68/50
f 47/67/51 7/69/51 11/70/51
f 45/62/52 44/61/52 17/71/52
f 44/61/53 30/63/53 31/72/53
f 13/73/54 15/64/54 45/62/54
f 46/65/55 10/74/55 45/62/55
f 45/62/56 10/74/56 30/63/56
f 47/67/57 11/70/57 10/68/57
f 47/67/58 48/75/58 7/69/58
f 46/66/59 15/76/59 47/67/59
f 18/77/60 47/67/60 15/76/60
f 47/67/61 18/77/61 48/75/61
f 18/77/62 21/78/62 48/75/62
f 13/73/63 45/62/63 17/71/63
f 49/79/64 35/50/64 29/40/64
f 8/80/65 27/81/65 9/82/65
f 34/47/66 50/83/66 5/84/66
f 27/36/67 49/79/67 29/40/67
f 35/48/68 51/85/68 52/86/68
f 35/50/69 49/79/69 51/87/69
f 52/86/70 50/83/70 34/47/70
f 35/48/71 52/86/71 34/47/71
f 5/84/72 50/83/72 8/10/72
f 53/88/73 27/81/73 8/80/73
f 53/88/74 49/79/74 27/36/74
f 54/89/75 55/90/75 56/91/75
f 57/92/76 55/90/76 58/93/76
f 59/94/77 60/95/77 55/90/77
f 61/96/78 54/89/78 56/91/78
f 39/97/79 61/96/79 36/98/79
f 36/98/80 61/96/80 56/91/80
f 36/98/81 56/91/81 38/99/81
f 62/100/82 63/101/82 64/102/82
f 65/103/83 64/102/83 54/89/83
f 61/96/84 65/103/84 54/89/84
f 66/104/85 67/105/85 62/100/85
f 55/90/86 60/95/86 68/106/86
f 69/107/87 68/106/87 60/95/87
f 69/107/88 70/108/88 68/106/88
f 58/109/89 55/90/89 68/106/89
f 68/106/90 71/110/90 58/111/90
f 62/100/91 67/105/91 63/101/91
f 64/102/92 63/101/92 69/107/92
f 70/108/93 71/110/93 68/106/93
f 58/111/94 71/110/94 72/112/94
f 56/91/95 57/92/95 38/113/95
f 55/90/96 57/114/96 56/91/96
f 73/115/97 74/116/97 38/113/97
f 58/109/98 72/112/98 73/115/98
f 57/117/99 58/111/99 73/115/99
f 57/92/100 73/115/100 38/113/100
f 73/115/101 72/112/101 74/116/101
f 39/97/102 75/118/102 61/96/102
f 75/118/103 39/97/103 76/119/103
f 64/102/104 59/94/104 54/89/104
f 64/102/105 60/95/105 59/94/105
f 54/89/106 59/94/106 55/90/106
f 64/102/107 69/107/107 60/95/107
f 65/103/108 66/104/108 62/100/108
f 65/103/109 61/96/109 75/118/109
f 75/118/110 76/119/110 65/103/110
f 66/104/111 65/103/111 76/119/111
f 62/100/112 64/102/112 65/103/112
f 39/97/113 42/120/113 76/119/113
f 77/121/114 76/119/114 42/120/114
f 67/105/115 76/119/115 77/121/115
f 66/104/116 76/119/116 67/105/116
f 9/82/117 25/34/117 10/42/117
f 51/122/118 49/123/118 78/124/118
f 79/125/119 50/126/119 52/127/119
f 52/127/120 51/122/120 79/125/120
f 80/128/121 81/129/121 53/130/121
f 51/122/122 78/124/122 79/125/122
f 82/131/123 50/126/123 79/125/123
f 50/126/124 82/131/124 8/132/124
f 53/133/125 78/124/125 49/123/125
f 83/134/126 84/135/126 85/136/126
f 84/135/127 83/134/127 86/137/127
f 86/137/128 87/138/128 84/135/128
f 88/139/129 84/135/129 87/138/129
f 87/138/130 89/140/130 88/139/130
f 90/141/131 88/139/131 89/140/131
f 91/142/132 92/143/132 90/141/132
f 90/141/133 89/140/133 91/142/133
f 85/136/134 92/144/134 91/145/134
f 91/145/135 83/134/135 85/136/135
f 80/128/136 93/146/136 83/134/136
f 94/147/137 83/134/137 93/146/137
f 93/146/138 87/138/138 94/147/138
f 87/138/139 93/146/139 95/148/139
f 95/148/140 96/149/140 87/138/140
f 89/140/141 87/138/141 96/149/141
f 97/150/142 91/142/142 89/140/142
f 97/151/143 81/129/143 80/128/143
f 8/132/144 82/131/144 80/128/144
f 93/146/145 80/128/145 98/152/145
f 98/152/146 95/148/146 93/146/146
f 95/148/147 82/131/147 79/125/147
f 79/125/148 78/124/148 95/148/148
f 96/149/149 95/148/149 78/124/149
f 78/124/150 53/133/150 81/153/150
f 81/153/151 96/149/151 78/124/151
f 80/128/152 53/130/152 8/154/152
f 94/147/153 87/138/153 86/137/153
f 86/137/154 83/134/154 94/147/154
f 97/151/155 83/134/155 91/145/155
f 89/140/156 96/149/156 97/150/156
f 80/128/157 83/134/157 97/151/157
f 81/153/158 97/150/158 96/149/158
f 82/131/159 95/148/159 98/152/159
f 98/152/160 80/128/160 82/131/160
f 85/136/161 99/155/161 100/156/161
f 99/155/162 85/136/162 84/135/162
f 84/135/163 101/157/163 99/155/163
f 101/157/164 84/135/164 88/139/164
f 88/139/165 90/141/165 101/157/165
f 102/158/166 101/157/166 90/141/166
f 90/141/167 103/159/167 102/158/167
f 103/159/168 90/141/168 92/143/168
f 92/144/169 85/136/169 103/160/169
f 100/156/170 103/160/170 85/136/170
f 104/161/171 105/162/171 106/163/171
f 107/164/172 106/163/172 108/165/172
f 109/166/173 110/167/173 103/168/173
f 109/166/174 111/169/174 104/161/174
f 104/161/175 110/167/175 109/166/175
f 104/161/176 111/169/176 112/170/176
f 113/171/177 112/170/177 111/169/177
f 106/163/178 110/167/178 104/161/178
f 104/161/179 112/170/179 105/162/179
f 105/172/180 113/173/180 111/174/180
f 113/173/181 105/172/181 112/175/181
f 105/172/182 111/174/182 109/176/182
f 109/176/183 106/177/183 105/172/183
f 109/176/184 100/178/184 106/177/184
f 103/179/185 100/178/185 109/176/185
f 102/180/186 103/168/186 110/167/186
f 106/163/187 114/181/187 108/165/187
f 115/182/188 116/183/188 106/177/188
f 116/184/189 117/185/189 118/186/189
f 108/165/190 114/181/190 119/187/190
f 119/187/191 120/188/191 108/165/191
f 118/189/192 121/190/192 114/191/192
f 114/191/193 121/190/193 117/192/193
f 116/193/194 115/194/194 119/187/194
f 120/188/195 119/187/195 115/194/195
f 121/195/196 118/186/196 117/185/196
f 108/165/197 101/196/197 102/180/197
f 115/182/198 106/177/198 100/178/198
f 100/178/199 99/197/199 115/182/199
f 120/188/200 99/198/200 101/196/200
f 106/163/201 107/164/201 110/167/201
f 108/165/202 120/188/202 101/196/202
f 120/188/203 115/194/203 99/198/203
f 107/164/204 102/180/204 110/167/204
f 102/180/205 107/164/205 108/165/205
f 118/199/206 106/177/206 116/183/206
f 114/181/207 106/163/207 118/200/207
f 114/191/208 117/192/208 119/201/208
f 117/192/209 116/202/209 119/201/209
f 122/203/210 123/204/210 124/205/210
f 125/206/211 126/207/211 123/208/211
f 125/206/212 123/208/212 127/209/212
f 125/210/213 128/211/213 126/212/213
f 128/211/214 129/213/214 126/212/214
f 128/214/215 124/215/215 129/216/215
f 122/217/216 124/215/216 128/214/216
f 130/218/217 128/211/217 125/219/217
f 131/220/218 122/221/218 130/222/218
f 132/223/219 125/224/219 127/225/219
f 132/226/220 131/227/220 125/219/220
f 133/228/221 131/227/221 132/226/221
f 133/229/222 122/221/222 131/220/222
f 130/218/223 125/219/223 131/227/223
f 128/214/224 130/222/224 122/221/224
f 127/209/225 123/204/225 122/203/225
f 16/230/226 133/228/226 14/231/226
f 16/232/227 3/3/227 133/229/227
f 14/231/228 133/228/228 132/226/228
f 14/233/229 132/223/229 19/234/229
f 132/223/230 127/225/230 19/234/230
f 20/235/231 19/234/231 127/225/231
f 20/235/232 127/225/232 122/236/232
f 3/3/233 122/221/233 133/229/233
f 3/237/234 20/235/234 122/236/234
f 134/238/235 135/239/235 136/240/235
f 137/241/236 135/242/236 134/243/236
f 138/244/237 139/245/237 137/246/237
f 138/247/238 136/248/238 139/249/238
f 134/238/239 136/240/239 123/208/239
f 138/247/240 123/250/240 136/248/240
f 123/250/241 138/247/241 124/251/241
f 134/238/242 123/208/242 126/252/242
f 129/253/243 134/243/243 126/254/243
f 137/241/244 134/243/244 129/253/244
f 138/244/245 137/246/245 129/255/245
f 138/244/246 129/255/246 124/256/246
f 136/257/247 140/258/247 139/259/247
f 136/257/248 141/260/248 140/258/248
f 142/261/249 139/259/249 140/258/249
f 135/262/250 143/263/250 141/260/250
f 141/264/251 143/265/251 142/266/251
f 142/266/252 140/267/252 141/264/252
f 137/268/253 143/263/253 135/262/253
f 135/262/254 141/260/254 136/257/254
f 139/259/255 142/261/255 137/268/255
f 137/268/256 144/269/256 143/263/256
f 137/268/257 142/261/257 144/269/257
f 143/265/258 145/270/258 146/271/258
f 146/271/259 142/266/259 143/265/259
f 143/263/260 144/269/260 145/272/260
f 144/269/261 146/273/261 145/272/261
f 146/273/262 144/269/262 142/261/262
f 3/274/263 16/275/263 17/276/263
f 147/5/264 4/4/264 148/6/264
f 148/7/265 4/4/265 7/8/265
f 149/10/266 147/9/266 150/11/266
f 151/13/267 152/12/267 150/14/267
f 151/15/268 148/6/268 7/8/268
f 153/16/269 148/6/269 151/13/269
f 147/5/270 153/17/270 150/14/270
f 147/5/271 148/6/271 153/17/271
f 153/18/272 151/13/272 150/19/272
f 154/21/273 155/20/273 156/22/273
f 155/20/274 154/21/274 157/23/274
f 155/20/275 157/24/275 17/25/275
f 154/21/276 156/22/276 158/26/276
f 159/27/277 154/21/277 158/26/277
f 160/28/278 158/26/278 21/29/278
f 159/27/279 158/26/279 160/28/279
f 3/30/280 160/28/280 21/29/280
f 22/31/281 147/9/281 23/32/281
f 161/34/282 24/33/282 162/35/282
f 161/34/283 163/36/283 150/37/283
f 163/39/284 164/38/284 165/40/284
f 161/34/285 166/41/285 24/33/285
f 166/41/286 161/34/286 152/42/286
f 24/33/287 166/41/287 31/43/287
f 162/44/288 24/33/288 32/45/288
f 167/47/289 168/46/289 147/9/289
f 22/31/290 4/4/290 147/9/290
f 161/34/291 162/35/291 163/39/291
f 169/48/292 168/46/292 167/47/292
f 162/35/293 32/45/293 164/38/293
f 168/46/294 23/32/294 147/9/294
f 163/39/295 162/35/295 164/38/295
f 165/40/296 164/38/296 170/49/296
f 171/51/297 169/50/297 165/40/297
f 38/52/298 164/38/298 32/45/298
f 38/52/299 170/49/299 164/38/299
f 171/53/300 170/49/300 172/54/300
f 171/56/301 172/55/301 173/57/301
f 42/59/302 41/58/302 172/55/302
f 173/57/303 172/55/303 41/58/303
f 165/40/304 170/49/304 171/51/304
f 169/48/305 171/56/305 168/46/305
f 168/46/306 171/56/306 173/57/306
f 168/46/307 173/57/307 43/60/307
f 43/60/308 173/57/308 41/58/308
f 23/32/309 168/46/309 43/60/309
f 174/62/310 44/61/310 166/63/310
f 175/65/311 156/64/311 174/62/311
f 176/67/312 175/66/312 152/68/312
f 7/69/313 176/67/313 151/70/313
f 44/61/314 174/62/314 17/71/314
f 166/63/315 44/61/315 31/72/315
f 156/64/316 155/73/316 174/62/316
f 152/74/317 175/65/317 174/62/317
f 152/74/318 174/62/318 166/63/318
f 151/70/319 176/67/319 152/68/319
f 48/75/320 176/67/320 7/69/320
f 156/76/321 175/66/321 176/67/321
f 176/67/322 158/77/322 156/76/322
f 158/77/323 176/67/323 48/75/323
f 21/78/324 158/77/324 48/75/324
f 174/62/325 155/73/325 17/71/325
f 169/50/326 177/79/326 165/40/326
f 163/81/327 149/80/327 150/82/327
f 178/83/328 167/47/328 147/84/328
f 177/79/329 163/36/329 165/40/329
f 179/85/330 169/48/330 180/86/330
f 177/79/331 169/50/331 179/87/331
f 178/83/332 180/86/332 167/47/332
f 180/86/333 169/48/333 167/47/333
f 178/83/334 147/84/334 149/10/334
f 163/81/335 181/88/335 149/80/335
f 177/79/336 181/88/336 163/36/336
f 182/90/337 183/89/337 184/91/337
f 182/90/338 185/92/338 186/93/338
f 187/95/339 188/94/339 182/90/339
f 183/89/340 189/96/340 184/91/340
f 189/96/341 172/97/341 170/98/341
f 189/96/342 170/98/342 184/91/342
f 184/91/343 170/98/343 38/99/343
f 63/101/344 190/100/344 191/102/344
f 191/102/345 192/103/345 183/89/345
f 192/103/346 189/96/346 183/89/346
f 67/105/347 193/104/347 190/100/347
f 187/95/348 182/90/348 194/106/348
f 194/106/349 69/107/349 187/95/349
f 70/108/350 69/107/350 194/106/350
f 182/90/351 186/109/351 194/106/351
f 71/110/352 194/106/352 186/111/352
f 67/105/353 190/100/353 63/101/353
f 63/101/354 191/102/354 69/107/354
f 71/110/355 70/108/355 194/106/355
f 71/110/356 186/111/356 72/112/356
f 185/92/357 184/91/357 38/113/357
f 185/114/358 182/90/358 184/91/358
f 74/116/359 195/115/359 38/113/359
f 72/112/360 186/109/360 195/115/360
f 186/111/361 185/117/361 195/115/361
f 195/115/362 185/92/362 38/113/362
f 72/112/363 195/115/363 74/116/363
f 196/118/364 172/97/364 189/96/364
f 172/97/365 196/118/365 197/119/365
f 188/94/366 191/102/366 183/89/366
f 187/95/367 191/102/367 188/94/367
f 188/94/368 183/89/368 182/90/368
f 69/107/369 191/102/369 187/95/369
f 193/104/370 192/103/370 190/100/370
f 189/96/371 192/103/371 196/118/371
f 197/119/372 196/118/372 192/103/372
f 192/103/373 193/104/373 197/119/373
f 191/102/374 190/100/374 192/103/374
f 42/120/375 172/97/375 197/119/375
f 197/119/376 77/121/376 42/120/376
f 197/119/377 67/105/377 77/121/377
f 197/119/378 193/104/378 67/105/378
f 161/34/379 150/82/379 152/42/379
f 177/123/380 179/122/380 198/124/380
f 178/126/381 199/125/381 180/127/381
f 179/122/382 180/127/382 199/125/382
f 200/129/383 201/128/383 181/130/383
f 198/124/384 179/122/384 199/125/384
f 178/126/385 202/131/385 199/125/385
f 202/131/386 178/126/386 149/132/386
f 198/124/387 181/133/387 177/123/387
f 203/135/388 204/134/388 205/136/388
f 204/134/389 203/135/389 206/137/389
f 207/138/390 206/137/390 203/135/390
f 203/135/391 208/139/391 207/138/391
f 209/140/392 207/138/392 208/139/392
f 208/139/393 210/141/393 209/140/393
f 211/143/394 212/142/394 210/141/394
f 209/140/395 210/141/395 212/142/395
f 211/144/396 205/136/396 212/145/396
f 204/134/397 212/145/397 205/136/397
f 213/146/398 201/128/398 204/134/398
f 204/134/399 214/147/399 213/146/399
f 207/138/400 213/146/400 214/147/400
f 213/146/401 207/138/401 215/148/401
f 216/149/402 215/148/402 207/138/402
f 207/138/403 209/140/403 216/149/403
f 212/142/404 217/150/404 209/140/404
f 200/129/405 217/151/405 201/128/405
f 202/131/406 149/132/406 201/128/406
f 201/128/407 213/146/407 218/152/407
f 215/148/408 218/152/408 213/146/408
f 202/131/409 215/148/409 199/125/409
f 198/124/410 199/125/410 215/148/410
f 215/148/411 216/149/411 198/124/411
f 181/133/412 198/124/412 200/153/412
f 216/149/413 200/153/413 198/124/413
f 181/130/414 201/128/414 149/154/414
f 207/138/415 214/147/415 206/137/415
f 204/134/416 206/137/416 214/147/416
f 204/134/417 217/151/417 212/145/417
f 216/149/418 209/140/418 217/150/418
f 204/134/419 201/128/419 217/151/419
f 217/150/420 200/153/420 216/149/420
f 215/148/421 202/131/421 218/152/421
f 201/128/422 218/152/422 202/131/422
f 219/155/423 205/136/423 220/156/423
f 205/136/424 219/155/424 203/135/424
f 221/157/425 203/135/425 219/155/425
f 203/135/426 221/157/426 208/139/426
f 210/141/427 208/139/427 221/157/427
f 221/157/428 222/158/428 210/141/428
f 223/159/429 210/141/429 222/158/429
f 210/141/430 223/159/430 211/143/430
f 205/136/431 211/144/431 223/160/431
f 223/160/432 220/156/432 205/136/432
f 224/162/433 225/161/433 226/163/433
f 226/163/434 227/164/434 228/165/434
f 229/167/435 230/166/435 223/168/435
f 231/169/436 230/166/436 225/161/436
f 229/167/437 225/161/437 230/166/437
f 231/169/438 225/161/438 232/170/438
f 232/170/439 233/171/439 231/169/439
f 229/167/440 226/163/440 225/161/440
f 232/170/441 225/161/441 224/162/441
f 233/173/442 224/172/442 231/174/442
f 224/172/443 233/173/443 232/175/443
f 231/174/444 224/172/444 230/176/444
f 226/177/445 230/176/445 224/172/445
f 220/178/446 230/176/446 226/177/446
f 220/178/447 223/179/447 230/176/447
f 223/168/448 222/180/448 229/167/448
f 234/181/449 226/163/449 228/165/449
f 235/183/450 236/182/450 226/177/450
f 237/185/451 235/184/451 238/186/451
f 234/181/452 228/165/452 239/187/452
f 240/188/453 239/187/453 228/165/453
f 241/190/454 238/189/454 234/191/454
f 241/190/455 234/191/455 237/192/455
f 236/194/456 235/193/456 239/187/456
f 239/187/457 240/188/457 236/194/457
f 238/186/458 241/195/458 237/185/458
f 221/196/459 228/165/459 222/180/459
f 226/177/460 236/182/460 220/178/460
f 219/197/461 220/178/461 236/182/461
f 219/198/462 240/188/462 221/196/462
f 227/164/463 226/163/463 229/167/463
f 240/188/464 228/165/464 221/196/464
f 236/194/465 240/188/465 219/198/465
f 222/180/466 227/164/466 229/167/466
f 227/164/467 222/180/467 228/165/467
f 226/177/468 238/199/468 235/183/468
f 226/163/469 234/181/469 238/200/469
f 237/192/470 234/191/470 239/201/470
f 235/202/471 237/192/471 239/201/471
f 242/204/472 243/203/472 244/205/472
f 245/207/473 246/206/473 242/208/473
f 242/208/474 246/206/474 247/209/474
f 248/211/475 246/210/475 245/212/475
f 249/213/476 248/211/476 245/212/476
f 244/215/477 248/214/477 249/216/477
f 244/215/478 243/217/478 248/214/478
f 248/211/479 250/218/479 246/219/479
f 243/221/480 251/220/480 250/222/480
f 246/224/481 252/223/481 247/225/481
f 251/227/482 252/226/482 246/219/482
f 251/227/483 253/228/483 252/226/483
f 243/221/484 253/229/484 251/220/484
f 246/219/485 250/218/485 251/227/485
f 250/222/486 248/214/486 243/221/486
f 242/204/487 247/209/487 243/203/487
f 253/228/488 157/230/488 154/231/488
f 3/3/489 157/232/489 253/229/489
f 253/228/490 154/231/490 252/226/490
f 252/223/491 154/233/491 159/234/491
f 247/225/492 252/223/492 159/234/492
f 159/234/493 160/235/493 247/225/493
f 247/225/494 160/235/494 243/236/494
f 243/221/495 3/3/495 253/229/495
f 160/235/496 3/237/496 243/236/496
f 254/239/497 255/238/497 256/240/497
f 254/242/498 257/241/498 255/243/498
f 258/245/499 259/244/499 257/246/499
f 256/248/500 259/247/500 258/249/500
f 256/240/501 255/238/501 242/208/501
f 242/250/502 259/247/502 256/248/502
f 259/247/503 242/250/503 244/251/503
f 242/208/504 255/238/504 245/252/504
f 255/243/505 249/253/505 245/254/505
f 255/243/506 257/241/506 249/253/506
f 257/246/507 259/244/507 249/255/507
f 249/255/508 259/244/508 244/256/508
f 260/258/509 256/257/509 258/259/509
f 261/260/510 256/257/510 260/258/510
f 258/259/511 262/261/511 260/258/511
f 263/263/512 254/262/512 261/260/512
f 263/265/513 261/264/513 262/266/513
f 260/267/514 262/266/514 261/264/514
f 263/263/515 257/268/515 254/262/515
f 261/260/516 254/262/516 256/257/516
f 262/261/517 258/259/517 257/268/517
f 264/269/518 257/268/518 263/263/518
f 262/261/519 257/268/519 264/269/519
f 265/270/520 263/265/520 266/271/520
f 262/266/521 266/271/521 263/265/521
f 264/269/522 263/263/522 265/272/522
f 266/273/523 264/269/523 265/272/523
f 264/269/524 266/273/524 262/261/524
f 157/275/525 3/274/525 17/276/525

o 
usemtl axe.001
s off

v -4.356120 90.171234 19.650040
v -4.333580 82.880669 20.334042
v -4.450690 90.302261 28.195879
v -4.599230 87.196419 26.966431
v -4.250280 89.509598 30.174061
v -4.398820 86.403763 28.944609
v -2.687510 83.571716 36.120209
v -3.289300 78.750427 30.641739
v -4.066490 96.227173 22.047291
v -2.397890 89.627655 38.517448
v -3.464700 101.048470 27.525749
v -4.302160 93.408112 29.425331
v -4.101740 92.615448 31.403511
v -2.420420 96.918221 37.833450
v -2.652260 87.183441 26.763981
v -2.503720 90.289291 27.993431
v -2.451850 86.390800 28.742161
v -2.303310 89.496628 29.971609
v -2.355190 93.395119 29.222870
v -2.154780 92.602478 31.201059
v -6.081460 56.203789 14.698020
v -5.881050 55.411140 16.676199
v -3.934080 55.398159 16.473749
v -4.134490 56.190811 14.495569
v -2.915670 99.545708 32.902210
v -7.426490 23.096819 3.884580
v -5.573420 23.185270 3.614750
v -5.679930 23.876492 1.703950
v -7.626900 23.889469 1.906400

vt 0.033358 0.643728
vt 0.190411 0.923560
vt 0.402692 0.503812
vt 0.402692 0.647326
vt 0.408249 0.287497
vt 0.408249 0.367848
vt 0.492649 0.287497
vt 0.492649 0.367848
vt 0.403043 0.503812
vt 0.403044 0.647326
vt 0.033710 0.643728
vt 0.190763 0.923560
vt 0.033358 0.363896
vt 0.033710 0.363896
vt 0.190411 0.084064
vt 0.402692 0.360297
vt 0.408249 0.207147
vt 0.492649 0.207147
vt 0.403043 0.360297
vt 0.190763 0.084064
vt 0.408248 1.036942
vt 0.492649 1.036942
vt 0.483600 0.371280
vt 0.402049 0.371280
vt 0.402049 1.040375
vt 0.483600 1.040375
vt 0.450449 0.037941
vt 0.483600 0.210579
vt 0.402049 0.210579
vt 0.442825 0.041374
vt 0.000000 1.000000

vn -0.999931 -0.004123 -0.011002
vn -0.991827 0.085073 -0.095083
vn -0.994616 0.006629 0.103421
vn -0.975357 -0.039295 0.217104
vn -0.976063 -0.098503 0.193904
vn -0.998553 0.052449 -0.011854
vn -0.993690 0.111631 0.010913
vn -0.952084 -0.072117 0.297213
vn -0.976135 0.017292 0.216476
vn 0.952084 0.072117 -0.297213
vn 0.976135 -0.017292 -0.216476
vn 0.994615 -0.006630 -0.103421
vn 0.993690 -0.111630 -0.010914
vn 0.998553 -0.052450 0.011854
vn 0.975357 0.039294 -0.217104
vn 0.976063 0.098503 -0.193904
vn 0.999931 0.004123 0.011003
vn 0.991828 -0.085071 0.095082
vn 0.051213 -0.836134 0.546130
vn -0.102177 -0.229454 -0.967942
vn -0.051217 0.836134 -0.546129
vn 0.102181 0.229453 0.967941
vn -0.093629 0.370313 -0.924176
vn 0.093633 -0.370313 0.924176
vn -0.979027 0.134454 0.153063
vn 0.991260 0.121324 -0.051811
vn 0.099243 -0.226522 0.968937
vn -0.085889 0.505693 -0.858428
vn 0.121760 -0.371835 0.920279
vn 0.996297 -0.015557 -0.084564
vn -0.041397 -0.940293 -0.337840
vn -0.009714 -0.928549 -0.371083

f 267/277/526 268/278/526 269/279/526
f 270/280/527 269/279/527 268/278/527
f 269/281/528 270/282/528 271/283/528
f 272/284/528 271/283/528 270/282/528
f 271/285/529 272/286/529 273/287/529
f 274/288/530 273/287/530 272/286/530
f 275/289/531 267/277/531 269/279/531
f 273/287/529 276/290/529 271/285/529
f 277/291/532 275/289/532 278/292/532
f 269/279/531 278/292/531 275/289/531
f 278/293/528 269/281/528 279/294/528
f 271/283/528 279/294/528 269/281/528
f 279/295/533 271/285/533 280/296/533
f 276/290/534 280/296/534 271/285/534
f 281/280/535 268/278/535 282/279/535
f 267/277/536 282/279/536 268/278/536
f 283/284/537 281/282/537 284/283/537
f 282/281/537 284/283/537 281/282/537
f 274/288/538 283/286/538 273/287/538
f 284/285/539 273/287/539 283/286/539
f 282/279/540 267/277/540 275/289/540
f 273/287/539 284/285/539 276/290/539
f 282/279/540 275/289/540 285/292/540
f 277/291/541 285/292/541 275/289/541
f 284/283/537 282/281/537 286/294/537
f 285/293/537 286/294/537 282/281/537
f 276/290/542 284/285/542 280/296/542
f 286/295/543 280/296/543 284/285/543
f 270/280/544 268/278/544 281/280/544
f 283/286/545 274/288/545 272/286/545
f 279/295/546 280/296/546 286/295/546
f 285/292/547 277/291/547 278/292/547
f 272/284/528 270/282/528 287/297/528
f 287/297/528 288/298/528 272/284/528
f 281/282/537 283/284/537 289/298/537
f 289/298/537 290/297/537 281/282/537
f 270/299/548 281/300/548 290/301/548
f 290/301/548 287/302/548 270/299/548
f 283/300/549 272/299/549 288/302/549
f 288/302/549 289/301/549 283/300/549
f 278/293/550 279/294/550 291/303/550
f 286/294/551 285/293/551 291/303/551
f 279/304/552 286/305/552 291/306/552
f 285/305/553 278/304/553 291/306/553
f 289/298/554 288/297/554 292/298/554 293/307/554
f 287/297/548 290/298/548 294/297/548 295/307/548
f 290/297/555 289/298/555 293/297/555 294/307/555
f 288/298/528 287/297/528 295/298/528 292/307/528
f 294/297/556 293/298/556 295/297/556
f 292/298/557 295/297/557 293/298/557

