mtllib anim_barb_attack_new1_axe_000022.mtl

o fat
usemtl axe.001
s off

v -6.477950 68.048386 -36.285149
v -1.122200 66.748207 -31.463720
v -1.154840 73.844154 -39.621460
v 0.098270 72.387939 -36.884861
v 0.714920 74.832336 -39.951813
v 1.968040 73.376129 -37.215199
v 9.089510 76.276009 -39.035538
v 8.620550 71.897400 -33.185020
v -8.921340 70.887772 -41.621132
v 6.646110 79.115402 -44.371521
v -8.452390 75.266373 -47.471653
v -2.407970 75.300354 -42.358078
v -0.538200 76.288551 -42.688408
v 1.290360 80.415558 -49.192947
v 0.706360 70.875221 -37.968258
v -0.546760 72.331421 -40.704872
v 2.576110 71.863419 -38.298599
v 1.323000 73.319618 -41.035198
v -1.799880 73.787628 -43.441460
v 0.069880 74.775833 -43.771812
v 12.602910 57.856731 -9.576770
v 14.472671 58.844929 -9.907110
v 15.080759 57.332199 -10.990510
v 12.692030 57.917381 -9.916910
v -3.807910 78.104630 -48.827812
v 27.532251 43.675682 18.543600
v 27.972700 42.205528 17.326569
v 26.270870 41.175087 17.788960
v 25.663109 42.686470 18.874399

vt 0.033358 0.643728
vt 0.190411 0.923560
vt 0.402692 0.503812
vt 0.402692 0.647326
vt 0.408249 0.287497
vt 0.408249 0.367848
vt 0.492649 0.287497
vt 0.492649 0.367848
vt 0.403043 0.503812
vt 0.403044 0.647326
vt 0.033710 0.643728
vt 0.190763 0.923560
vt 0.033358 0.363896
vt 0.033710 0.363896
vt 0.190411 0.084064
vt 0.402692 0.360297
vt 0.408249 0.207147
vt 0.492649 0.207147
vt 0.403043 0.360297
vt 0.190763 0.084064
vt 0.408248 1.036942
vt 0.492649 1.036942
vt 0.483600 0.371280
vt 0.402049 0.371280
vt 0.402049 1.040375
vt 0.483600 1.040375
vt 0.450449 0.037941
vt 0.483600 0.210579
vt 0.402049 0.210579
vt 0.442825 0.041374
vt 0.000000 1.000000

vn -0.378317 0.697675 0.608380
vn -0.488960 0.657188 0.573605
vn -0.310637 0.772780 0.553458
vn -0.200045 0.824014 0.530077
vn -0.175209 0.794911 0.580878
vn -0.416455 0.709638 0.568312
vn -0.439992 0.735512 0.515198
vn -0.118165 0.853158 0.508094
vn -0.238857 0.837652 0.491210
vn 0.118170 -0.853158 -0.508092
vn 0.238855 -0.837652 -0.491209
vn 0.310644 -0.772778 -0.553456
vn 0.439992 -0.735512 -0.515199
vn 0.416455 -0.709640 -0.568310
vn 0.200044 -0.824015 -0.530078
vn 0.175209 -0.794911 -0.580878
vn 0.378317 -0.697675 -0.608379
vn 0.488960 -0.657188 -0.573605
vn 0.930510 0.128371 0.343034
vn -0.500576 -0.627981 0.595873
vn -0.930511 -0.128367 -0.343032
vn 0.500578 0.627978 -0.595874
vn -0.341791 -0.900215 -0.269800
vn -0.871720 -0.463749 0.158244
vn -0.425217 -0.865217 -0.265689
vn 0.873524 0.461667 -0.154332
vn -0.359282 0.825382 0.435501
vn 0.256083 -0.705457 -0.660872
vn 0.807287 0.521871 -0.275570
vn -0.919923 -0.390982 0.029586
vn 0.882075 0.439968 -0.168440
vn -0.849541 -0.515972 0.109781
vn -0.078471 -0.882007 -0.464657
vn -0.310430 0.772281 0.554270
vn 0.454542 -0.391733 0.799961
vn 0.403750 -0.508585 0.760479

f 1/1/1 2/2/1 3/3/1
f 4/4/2 3/3/2 2/2/2
f 3/5/3 4/6/3 5/7/3
f 6/8/3 5/7/3 4/6/3
f 5/9/4 6/10/4 7/11/4
f 8/12/5 7/11/5 6/10/5
f 9/13/6 1/1/6 3/3/6
f 7/11/4 10/14/4 5/9/4
f 11/15/7 9/13/7 12/16/7
f 3/3/6 12/16/6 9/13/6
f 12/17/3 3/5/3 13/18/3
f 5/7/3 13/18/3 3/5/3
f 13/19/8 5/9/8 14/20/8
f 10/14/9 14/20/9 5/9/9
f 15/4/10 2/2/10 16/3/10
f 1/1/11 16/3/11 2/2/11
f 17/8/12 15/6/12 18/7/12
f 16/5/12 18/7/12 15/6/12
f 8/12/13 17/10/13 7/11/13
f 18/9/14 7/11/14 17/10/14
f 16/3/15 1/1/15 9/13/15
f 7/11/14 18/9/14 10/14/14
f 16/3/15 9/13/15 19/16/15
f 11/15/16 19/16/16 9/13/16
f 18/7/12 16/5/12 20/18/12
f 19/17/12 20/18/12 16/5/12
f 10/14/17 18/9/17 14/20/17
f 20/19/18 14/20/18 18/9/18
f 4/4/19 2/2/19 15/4/19
f 17/10/20 8/12/20 6/10/20
f 13/19/21 14/20/21 20/19/21
f 19/16/22 11/15/22 12/16/22
f 6/8/3 4/6/3 21/21/3
f 21/21/3 22/22/3 6/8/3
f 15/6/12 17/8/12 23/22/12
f 23/22/23 24/21/23 15/6/23
f 4/23/24 15/24/24 24/25/24
f 24/25/25 21/26/25 4/23/25
f 17/24/26 6/23/26 22/26/26
f 22/26/26 23/25/26 17/24/26
f 12/17/27 13/18/27 25/27/27
f 20/18/28 19/17/28 25/27/28
f 13/28/29 20/29/29 25/30/29
f 19/29/30 12/28/30 25/30/30
f 23/22/31 22/21/31 26/22/31 27/31/31
f 21/21/32 24/22/32 28/21/32 29/31/32
f 24/21/33 23/22/33 27/21/33 28/31/33
f 22/22/34 21/21/34 29/22/34 26/31/34
f 28/21/35 27/22/35 29/21/35
f 26/22/36 29/21/36 27/22/36

