mtllib anim_skel_walk_body_000037.mtl

o msked
usemtl msked.001
s off

v 4.276060 35.999969 0.314390
v 2.010270 36.227158 -2.231610
v 0.235300 34.368309 -0.206690
v -0.209040 29.172991 1.534850
v 0.586500 33.075840 -3.585940
v 4.197990 33.533421 3.127350
v 5.124050 34.650631 -0.435350
v -0.179820 42.889000 -1.606850
v 3.764700 16.426270 -6.220460
v 4.228450 13.850611 -8.777121
v 2.832500 14.575130 -9.430980
v 3.417890 16.226089 -5.292310
v 3.133860 13.053660 -7.698710
v 2.587920 16.351891 -5.736310
v 1.603900 13.798260 -8.368219
v 3.355590 32.382240 0.909980
v 1.017710 4.473860 -17.001831
v 2.659540 4.437310 -17.124111
v 0.331870 3.556720 -20.926840
v 1.906920 3.542570 -16.430920
v 3.003910 3.747980 -21.111580
v -0.486390 -2.696410 -16.463560
v 3.559590 -2.755910 -16.394951
v -3.623390 36.520988 -1.276280
v -1.118350 36.623520 -2.861560
v -4.545100 34.268520 1.912490
v -4.146670 34.973560 -1.222110
v -3.005080 18.228069 7.709530
v -1.804350 14.771110 6.303410
v -3.559020 14.599170 7.043110
v -2.639870 14.489020 8.737240
v -2.780710 18.691940 8.737790
v -1.765330 18.552219 8.395160
v -0.738280 14.666190 8.018380
v -2.642200 33.110020 0.406610
v -0.767080 2.003720 5.574550
v -0.356240 -1.769990 3.768400
v -2.249710 1.881520 5.726740
v -1.422060 1.927000 6.665310
v -2.951710 -1.841350 4.063490
v 1.341540 -1.715940 11.519050
v -2.561470 -1.825230 11.956600
v -1.864960 46.707283 4.076770
v -5.046520 40.178520 1.358180
v -0.359420 48.395508 4.472780
v 0.491480 52.478947 -2.591400
v -6.178910 52.423866 -2.384510
v -1.369360 53.307381 -0.137850
v -5.441110 51.162750 -2.876830
v -5.480130 51.146141 -0.311780
v -0.310260 52.023602 0.504250
v -3.796170 50.347649 3.319260
v -0.209740 58.000038 1.703220
v -0.083390 58.365040 -0.480660
v 2.482080 53.602150 4.425180
v 0.115210 57.961510 6.757650
v -1.512720 53.163719 4.739430
v -3.298010 57.840919 4.174030
v -2.712840 57.367111 2.249670
v 2.406440 57.876877 2.031740
v -0.479980 63.653339 6.163010
v -2.748030 63.792381 4.028210
v -2.202770 61.502144 6.766171
v -3.510040 62.318920 1.564980
v -1.004670 64.500336 1.300660
v -3.957280 61.362499 4.474400
v -0.889750 62.558098 -0.065260
v -0.117120 61.586754 7.628340
v 1.166830 53.344460 0.501060
v 5.370630 53.147449 2.167270
v 5.011080 51.671120 0.037440
v 4.479500 40.225681 1.145720
v 4.755160 51.586910 2.634600
v 3.781950 48.808052 4.200430
v 2.372420 42.222771 3.770120
v 3.100610 58.530350 3.810450
v 1.754120 61.949356 6.417210
v 1.296820 64.249580 3.671370
v 1.936410 62.960621 1.100380
v 3.071500 62.191170 3.876390
v 6.658440 43.299088 4.518900
v 8.339420 43.662838 3.595980
v 6.742980 43.583267 2.849390
v 8.349040 35.570099 9.452300
v 8.177460 35.038868 8.114921
v 8.056410 33.895451 12.472340
v 9.498740 33.321358 11.765341
v 6.613840 31.462929 10.776210
v 6.952200 30.834301 11.849520
v 9.018089 32.916199 13.215851
v 7.856480 33.594929 13.530730
v 8.207830 30.937431 10.017110
v 6.795080 41.963547 2.575630
v 6.287930 32.048698 11.509200
v -5.490320 42.870743 -6.366080
v -7.235940 43.680008 -6.940590
v -5.473300 43.868973 -7.279730
v -9.941020 34.017212 -6.797140
v -9.280420 34.175159 -5.313060
v -9.823350 30.622028 -4.446810
v -11.232170 31.174391 -4.267150
v -10.236239 29.603529 -7.101650
v -10.658720 28.575089 -6.441590
v -9.229549 29.830931 -4.725890
v -10.823220 29.279320 -4.713040
v -11.937019 30.307091 -7.073830
v -6.042940 42.118420 -8.539340
v -9.237130 29.564690 -6.774930
v -0.807370 64.922073 4.077450

vt 0.041167 0.207596
vt 0.110151 0.210653
vt 0.155860 0.150950
vt 0.155860 0.004599
vt 0.155860 0.116597
vt 0.016826 0.121516
vt 0.041418 0.161189
vt 0.949447 0.134245
vt 0.995856 0.201252
vt 0.949499 0.409452
vt 0.551298 0.441597
vt 0.512470 0.342436
vt 0.575861 0.342435
vt 0.577815 0.441679
vt 0.612137 0.441505
vt 0.706701 0.502779
vt 0.696656 0.011408
vt 0.727269 0.011327
vt 0.645747 0.342436
vt 0.083576 0.100021
vt 0.929942 0.015737
vt 0.937563 0.081772
vt 0.976707 -0.002805
vt 0.541706 0.010011
vt 0.576207 0.008899
vt 0.614144 0.010012
vt 0.986514 0.082171
vt 0.745226 0.025720
vt 0.759970 0.153483
vt 0.893974 0.060016
vt 0.657033 0.011235
vt 0.644583 0.533150
vt 0.661859 0.447959
vt 0.577221 0.401965
vt 0.605389 0.404491
vt 0.544413 0.404514
vt 0.578392 0.404501
vt 0.041816 0.207204
vt 0.110952 0.210261
vt 0.017475 0.121124
vt 0.042068 0.160797
vt 0.903194 0.201252
vt 0.551124 0.441597
vt 0.575687 0.342435
vt 0.512296 0.342436
vt 0.577641 0.441679
vt 0.611963 0.441505
vt 0.706340 0.502779
vt 0.726909 0.011327
vt 0.696296 0.011408
vt 0.645573 0.342436
vt 0.084225 0.099629
vt 0.929963 0.015912
vt 0.976727 -0.002629
vt 0.937584 0.081947
vt 0.541532 0.010012
vt 0.576032 0.008899
vt 0.613969 0.010012
vt 0.986534 0.082346
vt 0.745246 0.025895
vt 0.759991 0.153658
vt 0.893994 0.060191
vt 0.656672 0.011235
vt 0.644015 0.533150
vt 0.661498 0.447959
vt 0.381082 0.518613
vt 0.473854 0.521496
vt 0.487486 0.708873
vt 0.014451 0.867957
vt 0.259309 0.958815
vt 0.064134 0.963664
vt 0.200040 0.895796
vt 0.262305 0.513873
vt 0.313315 0.867634
vt 0.208224 0.890630
vt 0.254415 0.957943
vt 0.481717 0.903440
vt 0.370073 0.709764
vt 0.432103 0.963629
vt 0.836118 0.400333
vt 0.829257 0.200049
vt 0.882028 0.148045
vt 0.017902 0.579199
vt 0.380473 0.519374
vt 0.489377 0.709146
vt 0.475746 0.521769
vt 0.017213 0.579344
vt 0.264196 0.514145
vt 0.202500 0.892108
vt 0.781778 0.385894
vt 0.843708 0.501773
vt 0.780162 0.719667
vt 0.716616 0.501773
vt 0.693215 0.695775
vt 0.686544 0.686130
vt 0.862344 0.686130
vt 0.780162 0.918634
vt 0.727648 0.914313
vt 0.726518 0.864095
vt 0.644622 0.875516
vt 0.727648 0.913360
vt 0.668670 0.934651
vt 0.662812 0.686130
vt 0.774444 0.696650
vt 0.675135 0.851794
vt 0.754605 0.153718
vt 0.774442 0.685255
vt 0.570516 0.685255
vt 0.557177 0.894376
vt 0.780162 0.858665
vt 0.378581 0.519101
vt 0.264520 0.510851
vt 0.867108 0.695776
vt 0.833805 0.864094
vt 0.832675 0.914313
vt 0.876407 0.940368
vt 0.829816 0.915266
vt 0.903910 0.879089
vt 0.886077 0.686130
vt 0.885188 0.851794
vt 0.978370 0.902000
vt 0.970745 0.689067
vt 0.015051 0.437421
vt 0.483254 0.495410
vt 0.019651 0.499739
vt 0.485816 0.465265
vt 0.061328 0.470496
vt 0.456904 0.444276
vt 0.016578 0.361735
vt 0.497541 0.430257
vt 0.497522 0.315677
vt 0.030493 0.438014
vt 0.305714 0.121311
vt 0.311705 0.269102
vt 0.476265 0.265798
vt 0.311331 0.122120
vt 0.478135 0.269445
vt 0.474964 0.122436
vt 0.461620 0.035542
vt 0.280508 0.010562
vt 0.320302 0.079754
vt 0.253177 0.093723
vt 0.315903 0.079819
vt 0.472325 0.121974
vt 0.070278 0.285701
vt 0.920818 0.191822
vt 0.868261 0.170952
vt 0.860894 0.212089
vt 0.752496 0.179666
vt 0.862106 0.210890
vt 0.867519 0.168135
vt 0.459195 0.079729
vt 0.317137 0.081379
vt 0.314453 0.074899
vt 0.488803 0.132862
vt 0.016472 0.437484
vt 0.021071 0.499801
vt 0.484674 0.495472
vt 0.487236 0.465328
vt 0.062748 0.470559
vt 0.458325 0.444339
vt 0.023005 0.360749
vt 0.503948 0.314690
vt 0.503967 0.429270
vt 0.036919 0.437028
vt 0.076705 0.284714
vt 0.780162 0.976831
vt 0.780162 0.974925
vt 0.774444 0.978737

vn -0.386043 0.822859 0.416983
vn 0.923377 -0.360689 -0.131450
vn -0.363342 0.705475 0.608512
vn -0.575081 0.303811 0.759593
vn 0.600210 0.642155 -0.476850
vn 0.669853 0.152058 0.726757
vn 0.572750 0.627125 -0.527894
vn 0.773133 -0.425788 0.470075
vn -0.233519 0.870162 -0.433920
vn 0.936529 -0.147213 0.318185
vn 0.934666 -0.169007 0.312788
vn -0.697170 0.626965 -0.347661
vn 0.675802 -0.727125 0.120754
vn 0.004675 0.973577 -0.228311
vn 0.565479 0.492429 -0.661624
vn 0.832625 -0.429002 0.350277
vn 0.765715 -0.493439 0.412551
vn -0.544789 -0.551034 0.632112
vn -0.082423 0.980812 -0.176673
vn -0.969802 0.212429 0.119822
vn 0.989489 0.130190 0.062949
vn 0.005102 -0.586781 -0.809730
vn -0.014843 -0.579607 -0.814761
vn -0.726426 0.490949 -0.480909
vn -0.045780 0.604366 -0.795390
vn -0.751146 -0.391255 0.531695
vn 0.565015 0.152885 0.810792
vn -0.016936 0.001265 0.999856
vn -0.414340 0.154250 0.896956
vn -0.536962 -0.478785 0.694577
vn -0.457964 -0.546316 0.701290
vn -0.384266 0.149480 -0.911041
vn 0.566325 0.210692 -0.796797
vn 0.759079 -0.230761 0.608726
vn -0.792873 0.609201 -0.015055
vn 0.869935 0.358586 0.338569
vn -0.156861 0.591401 0.790974
vn 0.333973 -0.523567 -0.783798
vn -0.948431 -0.081577 0.306306
vn -0.484362 -0.315175 0.816124
vn 0.299291 0.797080 0.524489
vn -0.859205 -0.333708 -0.387821
vn 0.252854 0.754290 0.605897
vn 0.386374 0.263273 0.883970
vn -0.533018 0.151100 -0.832502
vn -0.877688 0.035770 0.477896
vn 0.224523 0.297376 -0.927985
vn 0.214359 0.160823 -0.963424
vn -0.397140 0.224059 -0.889987
vn -0.879386 -0.029530 0.475192
vn 0.337859 0.452938 -0.825045
vn -0.979836 0.120269 0.159550
vn -0.979742 0.038074 0.196609
vn 0.825805 0.266448 -0.497043
vn -0.696389 -0.559263 -0.449741
vn -0.126757 0.416970 -0.900038
vn -0.392417 0.054636 -0.918163
vn -0.733565 -0.179240 0.655557
vn -0.874273 -0.138176 0.465353
vn 0.362419 -0.177412 0.914974
vn -0.113833 0.423071 -0.898918
vn 0.955804 0.204947 -0.210798
vn -0.985245 0.164169 0.048376
vn 0.028064 -0.999606 0.000653
vn 0.027588 -0.999619 0.000927
vn 0.847836 0.098624 -0.521005
vn -0.105919 0.048095 -0.993211
vn 0.857366 -0.001777 0.514705
vn -0.515978 0.747249 0.418791
vn 0.042775 0.810600 0.584036
vn 0.472543 0.812700 0.340912
vn 0.352630 0.011694 0.935690
vn 0.318767 -0.007650 0.947802
vn 0.518427 -0.465416 -0.717371
vn -0.207269 -0.471360 -0.857239
vn -0.299080 0.479562 0.824967
vn 0.638308 0.729667 0.245252
vn -0.946694 0.318431 -0.048710
vn 0.033455 0.672883 0.738992
vn -0.454058 -0.493246 -0.741984
vn 0.552898 0.426205 0.715998
vn 0.339681 0.468114 0.815774
vn 0.354754 -0.501463 0.789104
vn -0.018089 0.943057 -0.332139
vn -0.031937 0.347203 -0.937246
vn -0.999004 -0.041852 -0.015468
vn -0.223964 0.794094 0.565026
vn -0.520369 -0.099574 0.848116
vn -0.296918 0.041004 0.954022
vn -0.434956 0.089320 0.896011
vn -0.633314 -0.141968 0.760761
vn 0.071411 -0.106812 -0.991711
vn 0.188227 0.723700 0.663949
vn 0.635489 -0.562837 0.528553
vn -0.338038 -0.349112 -0.873986
vn -0.969297 0.245433 -0.015055
vn 0.116784 -0.418500 0.900677
vn -0.595347 -0.131425 0.792647
vn 0.013755 -0.506671 -0.862029
vn -0.531382 0.594710 0.603285
vn -0.652760 0.721850 -0.229865
vn -0.205475 0.931504 0.300135
vn -0.904349 0.029080 0.425803
vn -0.910309 -0.369919 -0.185733
vn 0.047011 -0.752794 -0.656576
vn -0.954947 -0.157308 -0.251656
vn -0.960776 -0.183436 -0.207993
vn -0.762362 0.151189 -0.629243
vn 0.211661 -0.965889 -0.149188
vn -0.706540 -0.066070 -0.704582
vn -0.362588 -0.239548 0.900637
vn -0.589943 -0.177627 0.787665
vn 0.162460 0.940422 -0.298685
vn 0.449615 0.696776 -0.558882
vn 0.994621 -0.036820 0.096817
vn -0.328785 0.387578 0.861211
vn 0.902544 -0.077409 0.423582
vn 0.073407 -0.080667 0.994034
vn -0.633687 -0.582590 0.508950
vn -0.842680 -0.323989 -0.430025
vn -0.327579 0.368425 0.870032
vn 0.177744 -0.196438 0.964271
vn 0.482487 -0.122810 -0.867251
vn -0.029165 0.737921 0.674257
vn 0.459807 -0.106721 -0.881583
vn -0.025529 -0.985756 -0.166230
vn 0.702480 0.000608 0.711703
vn 0.482539 0.709314 0.513838
vn 0.422187 0.848090 -0.320157
vn -0.284898 0.544355 0.788994
vn 0.688181 -0.193002 0.699397
vn 0.938220 -0.156267 -0.308747
vn -0.014989 -0.488687 -0.872330
vn 0.929723 0.014021 -0.367992
vn 0.393841 -0.130282 -0.909899
vn 0.947934 0.185428 -0.258915
vn 0.960915 0.258610 0.098813
vn 0.714895 0.203744 -0.668889
vn 0.854274 -0.315837 0.412872
vn 0.703216 -0.007212 0.710939
vn -0.964092 -0.244806 -0.102940
vn 0.916767 0.238721 -0.320235
vn 0.111307 0.244557 0.963225
vn 0.420166 0.262371 0.868690
vn 0.422455 -0.215619 -0.880364
vn -0.967079 -0.238211 -0.089522
vn 0.992549 -0.070657 -0.099268
vn 0.302853 0.558955 0.771913
vn -0.979929 -0.106977 0.168208
vn -0.972590 0.230122 0.033365
vn 0.941613 0.253563 -0.221519
vn -0.883996 0.457631 0.095527
vn -0.061278 -0.504438 0.861271
vn 0.512581 0.728892 0.453847
vn -0.855520 0.517563 -0.014644
vn -0.495924 -0.368375 -0.786358
vn 0.893580 -0.183409 -0.409727
vn -0.985749 -0.162756 0.042541
vn 0.742379 -0.321849 -0.587611
vn 0.411081 0.164764 -0.896585
vn -0.998254 -0.022906 -0.054452
vn -0.438612 -0.828897 -0.347203
vn 0.645407 -0.647106 0.405838
vn 0.698886 -0.714517 0.032008
vn 0.497371 0.778743 0.382337
vn 0.541193 0.776509 0.322714
vn -0.699982 -0.189964 0.688432
vn 0.022060 0.785764 -0.618133
vn -0.876679 -0.481046 -0.005367
vn 0.999810 -0.012300 0.015130
vn 0.163430 0.440270 -0.882866
vn -0.960990 -0.162538 0.223783
vn -0.441270 -0.372140 0.816574
vn -0.214968 0.505405 -0.835676
vn 0.999921 -0.009435 0.008320
vn -0.893068 0.255510 0.370331
vn -0.216515 0.209835 0.953462
vn 0.848562 -0.410312 -0.334046
vn 0.898166 -0.228775 -0.375446
vn -0.759252 0.589750 0.275195
vn 0.989604 -0.057084 -0.132007
vn 0.304759 -0.871552 0.384083
vn 0.201706 0.202791 0.958223
vn 0.685057 0.638154 -0.351364
vn 0.011828 0.068035 -0.997613
vn -0.880434 0.467958 0.076500
vn 0.892503 -0.445117 -0.072862
vn -0.693307 0.183746 -0.696824
vn -0.212043 0.615307 -0.759234
vn 0.966033 -0.183244 -0.182212
vn -0.207137 -0.466735 -0.859798
vn -0.810352 -0.470699 0.348957
vn -0.977847 -0.209176 -0.007838
vn 0.037552 -0.221188 0.974508
vn 0.099122 -0.264042 0.959404
vn 0.584386 -0.804985 0.102431
vn 0.080520 0.988406 -0.128725
vn 0.229929 -0.590804 -0.773358
vn -0.347931 0.500853 0.792521
vn -0.440671 0.734529 0.516019
vn -0.720362 0.454674 0.523784
vn -0.494551 0.480217 -0.724439
vn -0.894536 0.446897 0.009402
vn -0.498982 0.861349 -0.095367
vn -0.504805 -0.197464 -0.840345
vn -0.693357 -0.455272 0.558555
vn 0.359969 0.580871 0.730077
vn 0.671358 0.619357 0.407033
vn 0.349425 0.823834 0.446317
vn 0.243556 0.567536 -0.786500
vn 0.271595 0.948448 -0.163348
vn 0.757197 0.639646 -0.132313
vn 0.927131 0.017138 -0.374346
vn 0.558013 -0.159812 0.814299

f 1/1/1 2/2/1 3/3/1
f 4/4/2 5/5/2 2/2/2
f 6/6/3 1/1/3 3/3/3
f 6/6/4 3/3/4 4/4/4
f 2/2/5 1/1/5 7/7/5
f 3/8/6 2/9/6 8/10/6
f 9/11/7 10/12/7 11/13/7
f 10/12/8 12/14/8 13/13/8
f 14/15/9 9/11/9 11/13/9
f 10/12/10 9/11/10 12/14/10
f 7/16/11 12/17/11 9/18/11
f 15/19/12 14/15/12 11/13/12
f 6/6/13 4/4/13 16/20/13
f 17/21/14 18/22/14 19/23/14
f 11/13/15 10/12/15 18/24/15
f 18/24/16 13/13/16 20/25/16
f 10/12/17 13/13/17 18/24/17
f 13/13/18 15/19/18 17/26/18
f 19/23/19 18/22/19 21/27/19
f 17/21/20 19/23/20 22/28/20
f 21/27/21 18/22/21 23/29/21
f 22/28/22 21/27/22 23/29/22
f 21/27/23 22/28/23 19/23/23
f 17/26/24 15/19/24 11/13/24
f 11/13/25 18/24/25 17/26/25
f 13/13/26 17/26/26 20/25/26
f 18/22/27 20/30/27 23/29/27
f 20/30/28 22/28/28 23/29/28
f 20/30/29 17/21/29 22/28/29
f 15/19/30 13/13/30 12/14/30
f 15/19/31 12/14/31 14/15/31
f 14/31/32 2/32/32 9/18/32
f 9/18/33 2/32/33 7/16/33
f 16/33/34 12/17/34 7/16/34
f 7/34/35 16/35/35 6/36/35
f 7/7/36 1/1/36 6/6/36
f 7/34/37 2/35/37 16/37/37
f 16/20/38 4/4/38 2/2/38
f 14/31/39 16/33/39 2/32/39
f 14/31/40 12/17/40 16/33/40
f 24/38/41 3/3/41 25/39/41
f 4/4/42 25/39/42 5/5/42
f 26/40/43 3/3/43 24/38/43
f 26/40/44 4/4/44 3/3/44
f 27/41/45 24/38/45 25/39/45
f 3/8/46 8/10/46 25/42/46
f 25/39/47 2/2/47 5/5/47
f 2/9/48 25/42/48 8/10/48
f 28/43/49 29/44/49 30/45/49
f 30/45/50 31/44/50 32/46/50
f 33/47/51 29/44/51 28/43/51
f 30/45/52 32/46/52 28/43/52
f 27/48/53 28/49/53 32/50/53
f 34/51/54 29/44/54 33/47/54
f 26/40/55 35/52/55 4/4/55
f 36/53/56 37/54/56 38/55/56
f 29/44/57 38/56/57 30/45/57
f 38/56/58 39/57/58 31/44/58
f 30/45/59 38/56/59 31/44/59
f 31/44/60 36/58/60 34/51/60
f 37/54/61 40/59/61 38/55/61
f 36/53/62 41/60/62 37/54/62
f 40/59/63 42/61/63 38/55/63
f 41/60/64 42/61/64 40/59/64
f 40/59/65 37/54/65 41/60/65
f 36/58/66 29/44/66 34/51/66
f 29/44/67 36/58/67 38/56/67
f 31/44/68 39/57/68 36/58/68
f 38/55/69 42/61/69 39/62/69
f 39/62/70 42/61/70 41/60/70
f 39/62/71 41/60/71 36/53/71
f 34/51/72 32/46/72 31/44/72
f 34/51/73 33/47/73 32/46/73
f 33/63/74 28/49/74 25/64/74
f 28/49/75 27/48/75 25/64/75
f 35/65/76 27/48/76 32/50/76
f 27/34/77 26/36/77 35/35/77
f 26/40/78 24/38/78 27/41/78
f 27/34/79 35/37/79 25/35/79
f 35/52/80 25/39/80 4/4/80
f 33/63/81 25/64/81 35/65/81
f 33/63/82 35/65/82 32/50/82
f 43/66/83 44/67/83 45/68/83
f 46/69/84 47/70/84 48/71/84
f 46/69/85 49/72/85 47/70/85
f 44/73/86 50/74/86 49/75/86
f 47/76/87 50/74/87 51/77/87
f 52/78/88 44/73/88 43/66/88
f 52/78/89 43/66/89 45/68/89
f 51/77/90 48/79/90 47/76/90
f 53/80/91 48/81/91 51/82/91
f 46/69/92 8/83/92 49/72/92
f 52/78/93 45/68/93 51/77/93
f 8/84/94 45/85/94 44/86/94
f 8/87/95 44/88/95 49/89/95
f 54/90/96 48/81/96 53/80/96
f 55/91/97 56/92/97 57/93/97
f 57/93/98 56/92/98 58/94/98
f 59/95/99 60/96/99 57/93/99
f 61/97/100 62/98/100 63/99/100
f 64/100/101 62/101/101 65/102/101
f 50/74/102 52/78/102 51/77/102
f 50/74/103 44/73/103 52/78/103
f 57/93/104 58/94/104 59/103/104
f 60/96/105 59/95/105 53/104/105
f 58/94/106 66/105/106 59/103/106
f 59/95/107 66/105/107 64/100/107
f 46/106/108 48/81/108 54/90/108
f 53/104/109 59/95/109 54/107/109
f 54/108/110 59/95/110 67/109/110
f 56/92/111 68/110/111 63/99/111
f 66/105/112 58/94/112 56/92/112
f 46/69/113 69/71/113 70/70/113
f 46/69/114 70/70/114 71/72/114
f 72/73/115 71/75/115 73/74/115
f 70/76/116 51/77/116 73/74/116
f 73/74/117 74/78/117 72/73/117
f 74/78/118 45/68/118 75/66/118
f 72/67/119 45/68/119 8/111/119
f 72/67/120 75/66/120 45/68/120
f 51/77/121 70/76/121 69/79/121
f 53/80/122 51/82/122 69/81/122
f 46/69/123 71/72/123 8/83/123
f 74/78/124 51/77/124 45/68/124
f 8/87/125 71/89/125 72/112/125
f 60/96/126 53/104/126 54/107/126
f 55/91/127 76/113/127 56/92/127
f 77/114/128 78/115/128 61/97/128
f 65/116/129 78/117/129 79/118/129
f 73/74/130 51/77/130 74/78/130
f 72/73/131 74/78/131 75/66/131
f 55/91/132 60/119/132 76/113/132
f 55/91/133 57/93/133 60/96/133
f 76/113/134 60/119/134 80/120/134
f 60/96/135 67/121/135 79/118/135
f 46/106/136 54/90/136 69/81/136
f 69/81/137 54/90/137 53/80/137
f 54/122/138 67/121/138 60/96/138
f 56/92/139 80/120/139 77/114/139
f 80/120/140 56/92/140 76/113/140
f 71/123/141 81/124/141 73/125/141
f 82/126/142 71/123/142 70/127/142
f 73/125/143 81/124/143 70/127/143
f 81/124/144 82/126/144 70/127/144
f 83/128/145 71/123/145 82/126/145
f 71/123/146 83/128/146 81/124/146
f 82/129/147 84/130/147 85/131/147
f 81/132/148 84/130/148 82/129/148
f 81/132/149 85/131/149 84/130/149
f 86/133/150 84/134/150 85/135/150
f 84/134/151 87/136/151 85/137/151
f 85/135/152 88/138/152 86/133/152
f 89/139/153 90/140/153 91/141/153
f 87/142/154 84/134/154 86/133/154
f 88/138/155 91/143/155 86/133/155
f 92/144/156 88/138/156 85/137/156
f 85/137/157 87/136/157 92/144/157
f 93/145/158 85/131/158 81/132/158
f 82/129/159 85/131/159 93/145/159
f 82/146/160 93/147/160 83/148/160
f 81/149/161 83/150/161 93/151/161
f 89/152/162 88/138/162 92/144/162
f 92/144/163 87/136/163 89/152/163
f 89/152/164 87/136/164 90/153/164
f 90/154/165 87/136/165 86/133/165
f 91/141/166 90/154/166 86/133/166
f 94/155/167 89/139/167 91/143/167
f 88/138/168 94/155/168 91/143/168
f 94/155/169 88/138/169 89/152/169
f 49/156/170 50/157/170 95/158/170
f 96/159/171 47/160/171 49/156/171
f 50/157/172 47/160/172 95/158/172
f 95/158/173 47/160/173 96/159/173
f 97/161/174 96/159/174 49/156/174
f 49/156/175 95/158/175 97/161/175
f 96/162/176 98/163/176 99/164/176
f 95/165/177 96/162/177 99/164/177
f 95/165/178 99/164/178 98/163/178
f 100/133/179 98/135/179 99/134/179
f 99/134/180 98/137/180 101/136/180
f 98/135/181 100/133/181 102/138/181
f 103/139/182 104/141/182 105/140/182
f 101/142/183 100/133/183 99/134/183
f 102/138/184 100/133/184 104/143/184
f 106/144/185 98/137/185 102/138/185
f 98/137/186 106/144/186 101/136/186
f 107/166/187 95/165/187 98/163/187
f 96/162/188 107/166/188 98/163/188
f 96/146/189 97/148/189 107/147/189
f 95/149/190 107/151/190 97/150/190
f 103/152/191 106/144/191 102/138/191
f 106/144/192 103/152/192 101/136/192
f 103/152/193 105/153/193 101/136/193
f 105/154/194 100/133/194 101/136/194
f 104/141/195 100/133/195 105/154/195
f 108/155/196 104/143/196 103/139/196
f 102/138/197 104/143/197 108/155/197
f 108/155/198 103/152/198 102/138/198
f 68/110/199 61/97/199 63/99/199
f 61/97/200 109/167/200 62/98/200
f 63/99/201 62/98/201 66/105/201
f 67/109/202 64/100/202 65/102/202
f 64/100/203 66/105/203 62/101/203
f 65/102/204 62/101/204 109/168/204
f 59/95/205 64/100/205 67/109/205
f 56/92/206 63/99/206 66/105/206
f 68/110/207 77/114/207 61/97/207
f 77/114/208 80/120/208 78/115/208
f 61/97/209 78/115/209 109/167/209
f 67/121/210 65/116/210 79/118/210
f 65/116/211 109/169/211 78/117/211
f 79/118/212 78/117/212 80/120/212
f 60/96/213 79/118/213 80/120/213
f 56/92/214 77/114/214 68/110/214

