mtllib anim_skel_walk_swordshield_000045.mtl

o msked
usemtl shield.001
s off

v -8.010210 34.521179 -5.252830
v -9.248420 34.649300 -4.511290
v -6.033070 34.669880 16.142469
v -9.107110 33.306000 -5.068810
v -7.549490 33.051208 -4.642060
v -8.949739 34.277882 -5.155230
v -11.808520 37.107990 -3.967360
v -8.438681 34.244339 -9.908220
v -9.478251 34.094788 -9.783600
v -9.556829 33.041290 -9.732950
v -4.910870 30.619732 -4.498310
v -7.988750 33.373932 -5.229200
v -8.517260 33.190830 -9.857570
v 8.750930 49.359898 11.298580
v 4.212520 39.812889 16.699610
v -6.790890 42.155991 10.742340
v 2.886300 42.396629 21.095200
v 16.100800 36.676201 20.971661
v -7.347430 11.799900 28.519289

vt 0.856301 0.265607
vt 0.764624 0.294094
vt 0.850192 0.976825
vt 0.858158 0.265976
vt 0.949099 0.282658
vt 0.742843 0.255302
vt 0.692067 0.254404
vt 0.541488 0.402851
vt 0.893183 0.241135
vt 0.851577 0.242328
vt 0.847036 0.027305
vt 0.893183 0.027305
vt 0.742053 0.256467
vt 0.849952 0.242815
vt 0.544321 0.402080
vt 0.692550 0.250793
vt 0.800888 0.241135
vt 0.800888 0.027305
vt 0.697126 0.324563
vt 0.698569 0.321089
vt 0.345626 0.959903
vt 0.345626 0.724031
vt 0.085605 0.724031
vt 0.605647 0.724031
vt 0.345626 0.075832

vn 0.093676 0.995481 -0.015575
vn -0.974441 -0.165534 0.151865
vn 0.960429 0.263382 -0.090584
vn -0.184663 -0.978700 0.089693
vn -0.161342 0.238928 -0.957539
vn -0.253861 0.966639 -0.034118
vn -0.145008 0.989173 -0.022572
vn -0.398048 -0.017105 -0.917205
vn -0.990772 0.079192 0.110002
vn -0.982325 0.166641 0.085259
vn -0.113363 -0.039273 -0.992777
vn 0.217410 -0.016030 -0.975949
vn 0.995561 0.016720 -0.092622
vn 0.990772 -0.079187 -0.110002
vn -0.110061 -0.368010 -0.923285
vn 0.144999 -0.989174 0.022574
vn 0.067704 -0.996451 0.050024
vn -0.186413 -0.393278 0.900324
vn -0.294931 -0.265795 0.917807
vn 0.507175 0.354285 0.785656
vn 0.373670 0.453345 0.809228
vn 0.292755 -0.572456 -0.765891
vn -0.403266 0.842417 0.357366
vn 0.301676 0.682510 0.665711
vn 0.154322 -0.541054 -0.826708
vn 0.336209 -0.480504 -0.809987
vn -0.680232 0.379658 0.627012
vn 0.097337 0.203816 0.974158
vn 0.195089 -0.448526 -0.872218

f 1/1/1 2/2/1 3/3/1
f 3/3/2 2/2/2 4/4/2
f 1/1/3 3/3/3 5/5/3
f 3/3/4 4/4/4 5/5/4
f 1/6/5 6/7/5 7/8/5
f 6/9/6 1/10/6 8/11/6
f 8/11/7 9/12/7 6/9/7
f 7/8/8 6/7/8 4/13/8
f 6/9/9 9/12/9 10/11/9
f 10/11/10 4/14/10 6/9/10
f 9/12/11 8/11/11 10/11/11
f 1/6/12 11/15/12 12/16/12
f 8/11/13 1/10/13 12/17/13
f 8/11/14 12/17/14 13/18/14
f 11/15/15 4/13/15 12/16/15
f 12/17/16 10/11/16 13/18/16
f 10/11/17 12/17/17 4/14/17
f 13/18/11 10/11/11 8/11/11
f 4/13/18 2/19/18 7/8/18
f 11/15/19 5/20/19 4/13/19
f 2/19/20 1/6/20 7/8/20
f 1/6/21 5/20/21 11/15/21
f 14/21/22 15/22/22 16/23/22
f 14/21/23 16/23/23 17/22/23
f 14/21/24 17/22/24 18/24/24
f 14/21/25 18/24/25 15/22/25
f 19/25/26 16/23/26 15/22/26
f 19/25/27 17/22/27 16/23/27
f 19/25/28 18/24/28 17/22/28
f 19/25/29 15/22/29 18/24/29

