mtllib anim_skel_walk_shield_000059.mtl

o msked
usemtl shield.001
s off

v 18.582720 48.545242 8.598200
v 14.260840 38.115238 12.265680
v 2.876480 43.776440 13.816200
v 15.808361 38.742710 17.262409
v 25.308941 32.321140 8.552410
v 1.319670 9.021070 18.907990

vt 0.345626 0.959903
vt 0.345626 0.724031
vt 0.085605 0.724031
vt 0.605647 0.724031
vt 0.345626 0.075832

vn -0.243006 -0.230614 -0.942213
vn 0.052787 0.652910 0.755594
vn 0.747641 0.308299 0.588205
vn -0.388193 -0.158376 -0.907867
vn -0.198559 -0.133357 -0.970974
vn -0.199339 0.150783 0.968260
vn 0.567080 -0.232694 0.790110
vn -0.346068 -0.059829 -0.936300

f 1/1/1 2/2/1 3/3/1
f 1/1/2 3/3/2 4/2/2
f 1/1/3 4/2/3 5/4/3
f 1/1/4 5/4/4 2/2/4
f 6/5/5 3/3/5 2/2/5
f 6/5/6 4/2/6 3/3/6
f 6/5/7 5/4/7 4/2/7
f 6/5/8 2/2/8 5/4/8

