mtllib anim_barb_attack_new1_body_000045.mtl

o fat
usemtl fat.001
s off

v -0.590250 31.266460 -11.867729
v 1.860240 36.144421 6.136090
v 0.790670 30.839809 -7.432040
v -1.171280 53.874477 -16.302311
v 5.426930 60.519848 -17.705620
v 1.305130 50.197639 -16.134010
v -1.117190 45.637398 -13.909620
v 7.780090 55.570999 -15.036020
v 6.668080 51.898289 -12.773380
v 6.660620 45.883850 -11.297190
v 3.188350 45.779579 -14.796560
v 4.177160 51.349541 -16.561399
v 9.428320 29.988369 -4.996520
v 8.839540 32.339012 -12.684680
v 10.134391 31.856812 -12.485890
v 7.423390 30.783560 -5.670930
v 3.993900 29.878441 -1.629810
v 2.719260 30.904341 -16.516750
v 2.392970 32.380669 -15.216540
v -0.456540 31.549070 -13.231111
v -0.857150 27.806881 -11.405359
v -1.486720 59.466179 -15.581720
v -1.872190 61.464211 -15.324160
v 2.075980 51.578709 -3.150140
v 6.251490 52.325020 -7.354840
v 7.155110 56.454830 -6.236900
v 8.775560 56.724899 -9.510611
v 6.836690 59.217438 -5.860630
v 10.258080 61.025070 -12.288099
v 4.497020 45.761330 -4.653850
v 2.395530 44.960819 -4.470230
v 2.577800 58.351841 -2.304640
v 1.795920 64.488289 -13.470430
v 5.817580 62.522270 -17.524700
v 8.230310 63.219582 -14.786210
v 3.251400 63.312401 -4.741250
v 4.090340 65.115341 -9.687010
v 0.940340 62.280258 -3.282780
v 2.650210 68.820869 -6.863370
v 1.641450 66.981339 -10.275120
v -1.374110 67.082108 -10.146379
v -0.050410 69.684372 -7.363560
v -2.403580 65.282722 -11.875859
v 0.877780 41.022751 -3.406910
v 5.364230 41.158836 -3.675630
v 8.418850 40.807098 -8.853100
v 4.980610 40.216782 -14.057840
v -0.672370 40.201630 -15.126261
v 11.124790 60.801483 -14.111561
v 5.526810 58.360909 -18.572620
v 9.673770 62.090141 -16.845720
v 7.444970 61.914028 -18.233070
v 11.694929 57.214600 -12.882040
v 3.917020 67.788857 -1.593640
v 2.905490 66.188492 0.325490
v 3.602820 63.749550 -3.560490
v 2.825600 62.380199 -1.142860
v 2.339470 64.851471 0.294630
v 3.426040 68.147217 0.160300
v 1.757990 68.070038 0.864460
v 3.894720 69.328529 -4.259270
v 2.696460 72.010941 1.100640
v 1.506730 71.992867 1.689310
v 3.718790 69.355614 0.840400
v 4.115300 71.273140 -0.148190
v 2.763770 73.553612 -1.586630
v 1.132540 73.634712 -1.355880
v 2.157920 66.187508 1.064210
v 1.277330 68.813622 1.354740
v 1.314560 66.701691 2.371060
v 1.182830 66.172623 1.704350
v 1.079300 64.596619 1.605040
v 2.129010 61.827003 0.634940
v 0.901690 61.817661 1.462250
v 3.901740 71.659462 -4.021160
v 3.372800 72.964317 -4.348020
v 0.593680 73.422371 -4.797910
v 12.443100 60.610100 -16.907351
v 9.673540 61.045944 -19.382000
v 10.621901 52.962570 -19.366360
v 14.252460 54.844440 -17.234749
v 6.739090 57.194771 -20.000961
v 13.904200 51.654430 -22.752541
v 14.162081 48.466919 -25.382050
v 13.945110 49.154228 -22.485399
v 13.989349 53.411919 -25.831139
v 15.045980 55.866882 -24.347019
v 17.135630 49.426289 -25.484692
v 16.685980 55.347511 -22.985939
v 18.636471 50.201679 -23.109871
v 17.216120 52.623219 -22.334890
v 17.311831 49.939819 -20.904619
v 12.006760 54.722389 -24.001711
v 12.858410 54.209419 -24.912359
v 11.952150 59.247700 -21.632999
v 14.394970 58.675980 -19.168020
v 16.256920 53.413651 -20.947151
v 9.632150 55.847687 -22.978310
v 15.048719 41.771740 -22.900200
v 14.889521 42.123409 -21.044239
v 16.572479 41.850082 -23.225990
v 17.556499 42.307629 -21.678318
v 16.790119 42.528473 -20.225269
v 18.232990 38.601109 -17.119190
v 17.495901 38.217480 -17.517630
v 17.442501 38.852501 -18.665741
v 18.158800 39.415451 -18.988359
v 18.525909 38.111721 -20.008718
v 16.894279 40.607918 -17.675760
v 17.994501 39.850113 -18.084030
v 17.364870 38.806610 -16.475231
v 18.168520 37.249969 -16.538780
v 17.468800 37.485489 -16.131990
v 18.407890 36.021980 -19.227859
v 14.406981 37.621159 -22.575481
v 14.585561 35.695183 -22.194691
v 15.286950 33.021450 -21.241711
v 17.709759 36.717079 -18.393990
v 15.584860 35.722599 -22.531200
v 15.641360 37.573792 -23.146492
v 17.944691 33.572941 -17.924570
v 2.918750 19.223419 -12.399779
v 4.309580 17.434240 -21.571800
v 2.740410 12.970800 -17.119820
v 8.412849 20.051559 -14.684850
v 9.652320 14.770080 -19.682791
v 4.204690 20.802660 -16.560989
v 7.107990 16.254271 -12.344250
v 7.206520 11.463079 -15.329321
v 7.353760 18.188320 -10.857580
v 7.518310 20.804329 -10.871340
v 9.154610 23.900700 -15.243020
v 8.103190 24.892071 -7.938670
v 6.892540 7.187560 -26.850870
v 7.418930 5.413770 -29.088161
v 4.111780 7.050460 -29.556501
v 6.027570 4.071480 -25.867630
v 3.364620 6.371760 -25.920179
v 2.735830 3.887640 -27.968849
v 2.659290 3.229990 -32.761200
v 5.551250 4.167690 -33.437088
v 5.151900 -2.073540 -26.611061
v 10.869130 -0.111320 -27.961271
v 8.861850 -1.784460 -23.385380
v 11.335930 -2.853270 -24.851810
v 7.845650 -4.503210 -23.523609
v -11.750111 56.860809 -8.602000
v -3.162880 49.897743 -15.379640
v -6.802290 54.293419 -3.830550
v -7.166710 50.165783 -7.184480
v -5.276200 45.236740 -11.464190
v -5.565720 44.695801 -6.636880
v -6.934600 50.319351 -13.664289
v -8.551010 32.300488 -6.573220
v -6.409800 30.774099 -1.887560
v -9.937110 31.679449 -7.127100
v -3.382860 34.732559 -3.204540
v -5.621360 28.056499 -11.006250
v -5.034680 30.987188 -12.308789
v -1.671930 29.862539 -11.753449
v -3.052220 51.118820 -3.313890
v -2.978630 55.046749 -1.257970
v -8.119680 54.750210 -1.616650
v -2.820210 57.839359 -0.892470
v -8.489660 60.290459 -3.721380
v -0.991790 44.621422 -3.647260
v -13.059649 58.721390 -5.981410
v -7.108450 63.346321 -9.572340
v -10.989941 61.045841 -4.427850
v -1.921570 63.057152 -2.974320
v -6.425960 64.314545 -6.105610
v -2.464390 69.094360 -6.013750
v -3.981810 66.863869 -8.766220
v -3.837170 40.754589 -2.821220
v -8.001770 40.350792 -7.987620
v -5.802600 38.960258 -13.683790
v -8.599260 61.343369 -3.760030
v -11.494570 53.933670 -2.096290
v -11.528370 60.890141 -3.153290
v -12.629440 57.770126 -2.287290
v -7.613820 56.690830 -2.824740
v -0.860150 66.399529 0.901990
v -2.216960 68.132637 -0.654560
v -2.249350 63.597420 -1.992770
v -1.638170 62.630383 -0.459490
v -0.478630 65.009407 0.726070
v 0.594130 68.135269 1.042670
v -1.189150 68.405884 0.866850
v -2.822770 69.705009 -3.230860
v 0.204990 72.150566 1.482050
v -1.131950 69.627480 1.583020
v -1.593410 71.593102 0.725780
v -0.491900 73.736069 -1.088180
v 0.068940 66.304581 1.384020
v -0.507810 61.974777 1.038610
v -2.503900 72.018448 -3.040480
v -1.957360 73.263046 -3.532010
v -8.659600 61.392761 -1.117530
v -11.621500 59.270229 -0.150330
v -3.834080 59.025341 1.499590
v -5.260200 54.736336 2.331390
v -10.735010 54.456860 0.244760
v -2.723950 54.561699 10.493790
v -4.070650 55.883442 7.104510
v -3.359770 54.992218 6.350400
v -6.832410 56.449009 9.275700
v -7.438490 59.027153 7.705490
v -2.431180 57.239071 11.590919
v -5.623050 60.232193 7.441750
v -1.278000 59.509003 9.940320
v -0.459720 59.036350 7.243880
v -3.066610 59.102257 7.878910
v -7.922670 56.022869 6.495300
v -7.506740 56.224640 7.710040
v -10.235651 59.299221 3.250710
v -7.445990 61.224098 2.258550
v -3.921780 58.689888 5.182650
v -9.496290 55.071594 4.328880
v 4.466250 53.510471 11.679650
v 4.967940 54.364090 10.293421
v 4.247600 55.026360 12.883230
v 4.898100 56.575920 11.922050
v 5.378680 56.428032 10.381210
v 10.638451 56.161160 10.608789
v 10.549150 57.158043 10.378321
v 9.543010 55.908779 11.100481
v 8.824881 56.828430 11.421829
v 9.376040 56.354519 12.957520
v 8.952980 57.120079 10.456210
v 8.525200 56.433189 9.290530
v 10.607660 56.669388 9.393980
v 11.964840 56.775112 10.502390
v 11.894690 56.372662 9.765110
v 11.496640 55.710930 13.230920
v 9.335680 51.609879 14.276520
v 7.655800 51.883713 13.456450
v 11.987161 51.745647 15.277550
v 11.270570 55.678780 12.141060
v 9.460060 52.120472 14.623099
v 7.619400 52.671188 14.300719
v 14.018370 54.989708 13.369750
v -5.301730 17.831400 -3.058560
v -0.176480 24.003191 2.590740
v -1.913760 15.956089 0.626290
v -9.221120 17.585121 1.294910
v -6.171700 24.235630 2.787370
v -3.271220 23.950550 -0.278270
v -3.743540 22.121311 5.138690
v -4.996880 15.610770 4.533120
v -3.401640 24.403301 5.831320
v -3.060530 26.578911 4.731970
v -7.375900 27.369650 1.929670
v -3.544650 32.254051 0.653210
v -10.745070 4.143200 -1.448760
v -9.266800 6.918930 -0.833680
v -8.197280 4.667450 -4.211320
v -7.889510 4.821900 0.994070
v -5.854200 3.081100 -1.843070
v -5.729440 6.130330 -1.157280
v -7.589850 -0.411600 -4.631730
v -10.636630 0.250070 -4.383190
v -6.189340 -0.293290 3.707750
v -12.209110 1.186950 4.241400
v -8.221350 3.151920 7.287770
v -10.765229 1.707330 8.212790
v -6.761210 1.013020 8.605530

vt 0.550479 0.485338
vt 0.414517 0.485338
vt 0.489174 0.497239
vt 0.490853 0.675485
vt 0.356970 0.710738
vt 0.458986 0.602657
vt 0.458693 0.603155
vt 0.491001 0.506534
vt 0.357039 0.710738
vt 0.272881 0.708251
vt 0.307767 0.663467
vt 0.329118 0.504113
vt 0.420682 0.504388
vt 0.307693 0.663467
vt 0.420389 0.504181
vt 0.390374 0.619683
vt 0.389206 0.622726
vt 0.390855 0.620128
vt 0.309151 0.663075
vt 0.578845 0.971377
vt 0.529882 0.993867
vt 0.501054 0.950636
vt 0.597833 0.993868
vt 0.684209 0.993870
vt 0.691613 0.940228
vt 0.584242 0.936155
vt 0.602549 0.993867
vt 0.689094 0.993870
vt 0.694409 0.971380
vt 0.730001 0.975635
vt 0.490853 0.781888
vt 0.490853 0.820915
vt 0.240556 0.660920
vt 0.133663 0.660928
vt 0.131880 0.753091
vt 0.060606 0.782384
vt 0.055577 0.663688
vt 0.136145 0.808744
vt 0.060014 0.783494
vt 0.058190 0.859642
vt 0.160773 0.512959
vt 0.067037 0.515196
vt 0.240700 0.512959
vt 0.131877 0.752996
vt 0.240556 0.781375
vt 0.390182 0.870896
vt 0.298691 0.847983
vt 0.294173 0.886121
vt 0.181129 0.899551
vt 0.052544 0.886601
vt 0.145152 0.921474
vt 0.235241 0.891030
vt 0.142740 0.921054
vt 0.172936 0.966074
vt 0.456563 0.999059
vt 0.389917 0.922986
vt 0.429989 0.941889
vt 0.491140 0.942697
vt 0.490646 0.999330
vt 0.490853 0.898039
vt 0.701416 0.118225
vt 0.813217 0.120956
vt 0.790107 0.184348
vt 0.877923 0.002315
vt 0.872775 0.120438
vt 0.505869 0.118716
vt 0.564263 0.119120
vt 0.507564 0.183764
vt 0.697589 0.180917
vt 0.580429 0.182675
vt 0.710756 0.001536
vt 0.701372 0.182427
vt 0.812168 0.002315
vt 0.857243 0.184348
vt 0.697567 0.116528
vt 0.503935 0.000692
vt 0.561277 0.000692
vt 0.688827 -0.000098
vt 0.002866 0.854679
vt 0.027518 0.706813
vt 0.061197 0.782654
vt 0.055608 0.663958
vt 0.251604 0.781884
vt 0.357109 0.710738
vt 0.243886 0.876138
vt 0.247300 0.848527
vt -0.000514 0.880403
vt 0.006948 0.782948
vt 0.674684 0.829607
vt 0.705811 0.784366
vt 0.654033 0.662928
vt 0.703232 0.671848
vt 0.720473 0.730776
vt 0.697736 0.853617
vt 0.729837 0.853035
vt 0.623758 0.856571
vt 0.587609 0.811448
vt 0.658187 0.605708
vt 0.748523 0.593788
vt 0.716351 0.931575
vt 0.747491 0.935506
vt 0.695349 0.885675
vt 0.676247 0.904603
vt 0.649719 0.961956
vt 0.745560 1.001324
vt 0.725611 0.781438
vt 0.747491 0.878462
vt 0.747491 0.808438
vt 0.720379 0.731031
vt 0.747491 0.790807
vt 0.720762 0.730332
vt 0.748639 0.732530
vt 0.746944 0.628012
vt 0.703659 0.671442
vt 0.731857 0.666086
vt 0.747085 0.666819
vt 0.703186 0.671176
vt 0.611291 0.885598
vt 0.604148 0.909350
vt 0.550618 0.823662
vt 0.550618 0.934468
vt 0.625864 0.557513
vt 0.571978 0.557920
vt 0.578607 0.510287
vt 0.669444 0.510287
vt 0.756032 0.560223
vt 0.679695 0.557918
vt 0.877240 0.461159
vt 0.992418 0.461159
vt 0.944262 0.560223
vt 0.756457 0.510287
vt 0.806202 0.560223
vt 0.498275 0.560223
vt 0.875566 0.382888
vt 0.758260 0.308662
vt 0.875912 0.308662
vt 0.759996 0.360654
vt 0.669163 0.382888
vt 0.671223 0.308662
vt 0.584325 0.382888
vt 0.577057 0.308662
vt 0.498223 0.363687
vt 0.498247 0.308662
vt 0.992597 0.308662
vt 0.992439 0.363687
vt 0.759483 0.410364
vt 0.758924 0.382888
vt 0.665903 0.461159
vt 0.580075 0.461159
vt 0.498223 0.402657
vt 0.992438 0.402657
vt 0.760539 0.449273
vt 0.498220 0.461159
vt 0.875438 0.575163
vt 0.762705 0.196431
vt 0.858161 0.196355
vt 0.690657 0.196417
vt 0.588027 0.196417
vt 0.498144 0.196431
vt 0.991918 0.196431
vt 0.375723 0.009258
vt 0.380090 0.017573
vt 0.356438 0.030356
vt 0.342839 0.029458
vt 0.369327 0.043627
vt 0.316032 0.012201
vt 0.336848 0.019568
vt 0.249292 0.041099
vt 0.371147 0.002582
vt 0.416197 0.004791
vt 0.408124 0.000758
vt 0.128136 0.016613
vt 0.154876 0.002573
vt 0.119423 0.002194
vt 0.160447 0.001473
vt 0.065726 0.014292
vt 0.105093 0.028910
vt 0.000825 0.069213
vt 0.000703 0.039244
vt 0.249314 0.055441
vt 0.429228 0.045736
vt 0.102506 0.115410
vt 0.153549 0.117195
vt 0.189513 0.114692
vt 0.228429 0.109580
vt 0.194639 0.033982
vt 0.406548 0.108121
vt 0.355355 0.108206
vt 0.448349 0.035630
vt 0.498209 0.039288
vt 0.461840 0.047992
vt 0.483032 0.114221
vt 0.406174 0.120334
vt 0.355217 0.119080
vt 0.243215 0.037501
vt 0.249314 0.089732
vt 0.000703 0.095058
vt 0.249292 0.105039
vt 0.160984 0.032072
vt 0.413806 0.033644
vt 0.442212 0.108407
vt 0.443088 0.117732
vt 0.023914 0.327327
vt 0.104127 0.227894
vt 0.000784 0.227894
vt 0.216171 0.327327
vt 0.216985 0.228421
vt 0.105699 0.228145
vt 0.104981 0.327662
vt 0.217575 0.327327
vt 0.351490 0.301452
vt 0.217290 0.227894
vt 0.351571 0.227894
vt 0.352420 0.301452
vt 0.489174 0.227894
vt 0.352342 0.227894
vt 0.471690 0.333380
vt 0.351597 0.328057
vt 0.217345 0.328075
vt 0.352312 0.363299
vt 0.470864 0.334174
vt 0.352330 0.328057
vt 0.216660 0.380224
vt 0.216104 0.328075
vt 0.104983 0.328371
vt 0.217232 0.380224
vt 0.351611 0.363299
vt 0.351459 0.420971
vt 0.352499 0.420971
vt 0.351589 0.497239
vt 0.229465 0.497239
vt 0.352627 0.497239
vt 0.229583 0.497239
vt 0.133020 0.497239
vt 0.072972 0.497239
vt 0.025422 0.328212
vt 0.002386 0.497239
vt 0.216130 0.152222
vt 0.223982 0.125749
vt 0.105883 0.155747
vt 0.351732 0.147623
vt 0.223132 0.128232
vt 0.218721 0.149411
vt 0.469070 0.149411
vt 0.483427 0.127273
vt 0.352306 0.146326
vt 0.017963 0.152222
vt 0.104256 0.155747
vt 0.009616 0.131504
vt 0.104128 0.227914
vt 0.000790 0.227921
vt 0.216984 0.228396
vt 0.351571 0.227971
vt 0.217291 0.227882
vt 0.352342 0.227879
vt 0.489111 0.227891
vt 0.948232 0.041698
vt 0.989968 0.003451
vt 0.971575 0.059997
vt 0.909211 0.004273
vt 0.996004 0.120663
vt 0.925604 0.058708
vt 0.885225 0.122889
vt 0.516483 0.798440
vt 0.501430 0.685191
vt 0.597947 0.686709
vt 0.594444 0.793024
vt 0.950876 0.082499
vt 0.943924 0.157220
vt 0.507177 0.624822
vt 0.600053 0.622523
vt 0.901715 0.182549
vt 0.982420 0.184037
vt 0.730212 0.975635
vt 0.685579 0.991654
vt 0.692830 0.969164

vn 0.877661 0.418864 -0.232945
vn -0.098153 -0.111374 -0.988920
vn -0.332121 -0.265124 -0.905210
vn -0.084635 -0.503937 -0.859584
vn 0.701983 -0.170584 -0.691463
vn -0.177504 -0.353674 -0.918372
vn -0.022326 -0.298371 -0.954189
vn 0.833766 -0.178806 -0.522363
vn -0.103292 -0.109278 -0.988630
vn 0.816199 -0.301131 -0.493091
vn -0.302258 -0.917797 -0.257467
vn -0.278674 -0.924177 -0.261224
vn -0.223309 -0.893488 -0.389631
vn -0.330306 -0.579969 0.744670
vn -0.275476 -0.668922 0.690403
vn 0.721125 0.239899 0.649944
vn 0.594845 -0.453219 0.663892
vn 0.949288 -0.214002 -0.230338
vn -0.301999 0.064345 -0.951134
vn 0.699208 -0.325319 0.636613
vn 0.883829 -0.456132 0.103871
vn 0.882846 -0.001012 0.469662
vn 0.696073 0.106141 0.710081
vn 0.943860 -0.126761 0.305058
vn 0.155621 -0.186004 0.970147
vn 0.610349 -0.142491 0.779211
vn -0.648211 0.193012 -0.736593
vn -0.306584 0.104625 -0.946076
vn 0.864924 -0.298477 0.403507
vn 0.114813 0.933781 -0.338926
vn 0.644201 -0.029844 0.764273
vn -0.158848 0.648839 -0.744161
vn 0.894022 0.042297 0.446023
vn 0.710269 0.481498 0.513496
vn 0.598176 0.776811 0.196852
vn 0.535141 0.407330 0.740072
vn 0.468887 0.173804 0.865989
vn 0.953219 0.193501 0.232230
vn 0.595349 0.620412 -0.510537
vn 0.328145 0.607048 -0.723749
vn 0.009025 0.879056 -0.476633
vn 0.616302 0.700465 0.359890
vn 0.139430 0.959794 -0.243628
vn 0.603175 0.642729 -0.472312
vn -0.085470 0.783524 -0.615455
vn -0.007459 0.695159 -0.718818
vn -0.159518 0.649312 -0.743605
vn 0.051806 0.216950 0.974807
vn 0.859249 -0.042229 0.509812
vn 0.833004 0.022353 -0.552816
vn -0.192082 -0.189751 -0.962860
vn 0.053704 0.171872 0.983654
vn -0.017481 0.266911 0.963563
vn 0.932642 0.319495 0.167634
vn 0.773024 0.471854 0.424015
vn 0.922100 0.238507 0.304708
vn 0.701553 0.133062 -0.700084
vn 0.180192 0.228860 -0.956637
vn 0.757246 0.364985 -0.541631
vn 0.462241 0.119752 -0.878631
vn 0.181039 0.209746 -0.960849
vn -0.751721 -0.179311 -0.634636
vn 0.523181 0.090137 0.847442
vn 0.602611 0.774736 0.191429
vn 0.934485 -0.342587 -0.096815
vn -0.773435 0.205081 -0.599784
vn 0.901216 -0.031529 0.432221
vn 0.166046 0.909059 -0.382152
vn 0.637556 0.770012 0.024570
vn -0.305273 0.252544 -0.918166
vn 0.172457 0.907499 -0.383021
vn -0.890624 -0.204347 0.406241
vn 0.317521 -0.938054 0.138693
vn 0.689182 0.330570 0.644788
vn 0.926626 -0.220400 0.304610
vn 0.641015 -0.287790 0.711531
vn 0.389803 -0.025961 0.920532
vn 0.997490 -0.057387 -0.041489
vn 0.905191 -0.063124 -0.420292
vn 0.963121 -0.082471 -0.256116
vn 0.489658 -0.855018 0.170818
vn 0.440975 0.082187 0.893749
vn 0.979988 -0.121259 0.157861
vn 0.998521 -0.043046 -0.033214
vn 0.113057 0.860470 0.496799
vn 0.685625 0.219303 0.694136
vn 0.846437 0.230735 0.479902
vn 0.856153 0.236243 0.459556
vn 0.670787 -0.299630 0.678430
vn 0.512717 -0.375156 0.772256
vn 0.206712 0.871590 0.444524
vn 0.229763 -0.118240 0.966037
vn 0.362459 -0.763605 0.534351
vn 0.726570 -0.090651 0.681086
vn 0.427577 -0.838602 -0.337527
vn 0.962821 -0.114531 0.244659
vn -0.058055 -0.993557 -0.097337
vn 0.717740 0.028338 0.695735
vn 0.933378 -0.024663 0.358046
vn 0.265745 -0.945139 -0.189979
vn 0.557652 -0.078101 0.826393
vn 0.898254 0.041983 -0.437467
vn 0.813047 0.191892 -0.549666
vn 0.863018 -0.389878 0.321240
vn 0.352030 -0.522394 0.776646
vn 0.926632 -0.220585 0.304459
vn 0.273134 -0.400220 0.874770
vn 0.668497 0.637639 0.382791
vn 0.998494 0.002591 -0.054799
vn 0.927879 0.372619 -0.013996
vn 0.838342 0.540694 0.069514
vn 0.704524 0.204651 0.679532
vn 0.300924 0.455982 -0.837571
vn 0.219704 0.526051 -0.821584
vn 0.175848 0.980475 -0.088014
vn 0.019729 0.978668 -0.204498
vn 0.997012 0.017244 0.075293
vn 0.467972 0.868920 0.161186
vn -0.353261 0.276127 -0.893846
vn 0.161757 0.912515 -0.375700
vn 0.123920 -0.839077 0.529711
vn 0.436903 0.831760 -0.342478
vn -0.450132 0.465461 -0.762054
vn -0.732176 -0.677700 -0.068124
vn 0.876821 0.274653 0.394651
vn -0.997330 -0.023702 -0.069079
vn -0.997966 -0.039409 -0.050101
vn 0.830882 -0.021474 -0.556034
vn -0.081649 0.147618 -0.985669
vn 0.662379 0.333414 -0.670887
vn 0.758501 0.301420 -0.577773
vn 0.800297 0.304013 0.516818
vn 0.785005 0.284295 0.550403
vn -0.464334 0.403629 0.788338
vn -0.153911 0.102488 0.982755
vn -0.679672 -0.595014 -0.428957
vn -0.727671 -0.591473 -0.347353
vn -0.325595 0.660496 -0.676560
vn -0.264683 0.444699 -0.855678
vn 0.533699 0.769673 -0.350384
vn 0.534261 0.769386 -0.350158
vn 0.857108 0.271423 0.437830
vn 0.194170 -0.875596 0.442301
vn -0.729890 -0.680036 -0.069367
vn -0.531784 -0.726750 -0.434788
vn -0.161019 0.456171 -0.875204
vn -0.423177 0.448932 -0.787007
vn 0.397839 0.869723 -0.292072
vn 0.484366 0.825949 -0.288441
vn 0.887832 0.256939 0.381755
vn 0.825222 0.229667 0.516006
vn 0.054508 -0.839112 0.541220
vn -0.232463 0.574497 -0.784802
vn -0.715312 -0.598176 -0.361267
vn 0.163306 -0.804481 0.571089
vn 0.906559 0.194039 0.374834
vn 0.213236 -0.823957 0.525000
vn 0.892959 0.175862 0.414363
vn -0.441897 0.574229 -0.689193
vn -0.664762 -0.661838 -0.346499
vn -0.987848 -0.144450 -0.057365
vn -0.988560 -0.145559 -0.039508
vn -0.176986 -0.362615 -0.914979
vn 0.060364 -0.289301 -0.955333
vn 0.856226 -0.205012 -0.474181
vn 0.852320 -0.203944 -0.481621
vn 0.881733 -0.035319 0.470424
vn 0.857858 -0.013300 0.513715
vn -0.443737 0.112728 0.889039
vn -0.415447 0.128769 0.900457
vn 0.586049 -0.697191 -0.412882
vn 0.609408 -0.375091 0.698519
vn 0.613148 0.642811 0.459177
vn 0.577138 0.551929 0.601903
vn 0.597976 0.558373 0.575017
vn 0.613612 0.286754 0.735699
vn 0.548208 0.250446 0.797963
vn 0.858813 -0.200259 -0.471525
vn 0.578922 -0.344995 -0.738801
vn -0.992857 -0.096374 -0.070333
vn -0.496958 -0.763240 -0.412914
vn -0.969884 -0.243075 0.015465
vn -0.964108 -0.248780 -0.092756
vn -0.845577 -0.437004 0.306639
vn -0.396959 0.725239 0.562540
vn 0.751391 0.583783 0.307585
vn 0.810085 0.164535 0.562752
vn -0.795958 0.045543 0.603637
vn -0.775178 0.021687 0.631370
vn 0.743859 -0.270391 -0.611197
vn 0.735422 -0.233833 -0.635985
vn 0.814735 0.144704 0.561488
vn 0.741268 -0.419174 -0.524227
vn -0.306665 -0.211901 -0.927930
vn -0.412240 -0.276008 -0.868261
vn -0.782721 0.034294 0.621428
vn 0.845974 -0.016624 -0.532965
vn -0.761906 -0.133867 0.633703
vn -0.983374 0.143320 -0.111509
vn -0.210360 0.027637 -0.977233
vn 0.670280 -0.613959 0.416867
vn 0.739679 -0.173148 -0.650303
vn -0.420026 -0.006054 -0.907492
vn 0.966223 0.251885 0.054478
vn 0.969745 0.240565 0.041518
vn -0.770394 -0.015309 0.637385
vn 0.821185 0.172022 0.544117
vn 0.725057 -0.360188 -0.586990
vn -0.284679 -0.387237 -0.876929
vn -0.970324 0.162710 -0.178877
vn 0.519936 0.648335 -0.556173
vn 0.367372 0.775422 -0.513574
vn 0.932384 -0.107710 0.345049
vn 0.911497 -0.203833 0.357247
vn -0.460964 -0.476074 0.748910
vn -0.396650 -0.545839 0.738058
vn 0.959774 -0.237312 0.150058
vn -0.323066 0.025297 0.946038
vn 0.368369 -0.202561 -0.907344
vn 0.956056 -0.147498 0.253379
vn 0.950338 -0.259373 0.171999
vn -0.073496 -0.574388 0.815277
vn 0.969153 -0.059701 0.239120
vn -0.386209 -0.530803 0.754381
vn -0.946142 0.259169 -0.194027
vn 0.978166 0.033948 0.205032
vn -0.241085 -0.372733 0.896074
vn 0.989652 -0.006506 0.143338
vn 0.352144 0.283572 -0.891954
vn 0.171925 0.140131 -0.975092
vn -0.572762 0.005559 -0.819703
vn -0.886982 -0.268248 -0.375908
vn -0.282249 -0.420465 0.862290
vn -0.952640 -0.249110 0.174418
vn 0.441195 0.750853 -0.491495
vn 0.928827 -0.151077 0.338313
vn -0.446131 -0.499505 0.742605
vn -0.931327 0.341061 -0.127704
vn 0.599155 0.480843 -0.640159
vn -0.973516 0.150726 -0.171898
vn -0.970168 0.155861 -0.185689
vn 0.498067 0.493054 -0.713321
vn 0.877403 -0.457091 0.145711
vn 0.966633 -0.247636 0.065553
vn -0.566199 -0.643707 0.514840
vn -0.452199 -0.728681 0.514335
vn -0.923126 0.382639 -0.037765
vn -0.368332 0.675687 -0.638575
vn -0.929873 -0.362174 0.064552
vn 0.793635 0.402553 -0.456174
vn 0.095175 -0.737430 -0.668685
vn 0.082706 -0.737890 -0.669835
vn 0.677446 0.527581 0.512567
vn 0.449697 0.788741 -0.419119
vn -0.536867 -0.025516 0.843281
vn 0.680514 0.539529 0.495792
vn -0.656234 0.002228 0.754555
vn 0.095935 -0.739393 -0.666404
vn 0.096493 -0.739536 -0.666165
vn 0.574155 0.654934 0.491333
vn 0.431575 -0.205967 0.878249
vn -0.651133 0.206241 0.730404
vn 0.040857 -0.981844 -0.185237
vn -0.568194 0.094907 -0.817403
vn 0.109999 -0.276589 -0.954672
vn -0.736246 -0.386409 0.555544
vn -0.953439 -0.288014 -0.089458
vn -0.413942 -0.468142 -0.780702
vn -0.408209 -0.471552 -0.781667
vn -0.820142 -0.570550 -0.042901
vn -0.340393 0.405821 -0.848199
vn -0.944408 -0.326139 -0.041559
vn 0.510302 -0.721381 -0.468189
vn 0.610373 -0.627548 -0.483351
vn -0.003446 -0.313311 -0.949644
vn 0.036764 -0.709605 0.703640
vn 0.856873 0.056226 0.512452
vn 0.092254 0.201683 0.975096
vn -0.014114 0.408459 0.912667
vn -0.820099 -0.236846 0.520904
vn -0.562029 -0.001807 -0.827116
vn 0.013317 -0.463884 0.885796
vn -0.351380 -0.751382 0.558531
vn -0.308767 0.319694 0.895801
vn -0.026517 -0.059608 0.997870
vn -0.537073 -0.212203 0.816408
vn 0.249118 -0.177870 0.951999
vn 0.262358 -0.138647 0.954958
vn -0.679512 0.393700 -0.619083
vn -0.573423 0.072811 -0.816017
vn -0.035092 -0.462927 0.885701
vn -0.669915 0.719332 -0.183780
vn 0.263011 -0.139857 0.954602
vn -0.632990 0.349692 -0.690680
vn -0.061805 -0.126077 0.990093
vn -0.266905 0.396443 0.878404
vn -0.075357 0.536610 0.840459
vn 0.211537 0.318266 0.924099
vn 0.190471 0.335323 0.922648
vn -0.460200 0.365873 0.808921
vn -0.765666 0.636391 -0.093602
vn -0.453554 0.748331 -0.484034
vn -0.323190 0.814475 -0.481848
vn -0.335860 0.601636 0.724729
vn -0.603734 0.790639 -0.101960
vn -0.742141 0.669005 -0.040741
vn -0.536520 0.610432 -0.582683
vn -0.359532 0.745328 -0.561447
vn -0.538642 0.522157 -0.661223
vn 0.115251 0.125685 0.985353
vn -0.766303 0.230541 0.599692
vn -0.732691 0.539679 -0.414621
vn -0.502371 0.325424 -0.801076
vn 0.110647 0.186603 0.976185
vn 0.215690 0.176201 0.960433
vn -0.781223 0.254689 0.569934
vn -0.764418 0.242920 0.597206
vn -0.468083 0.500074 0.728577
vn -0.993767 0.100444 -0.048347
vn -0.307039 0.183870 -0.933766
vn -0.906248 0.163580 -0.389815
vn -0.734837 -0.173240 -0.655745
vn -0.209550 -0.236465 -0.948774
vn -0.094835 -0.284930 -0.953845
vn -0.016278 0.097289 0.995123
vn 0.269874 -0.007253 -0.962868
vn -0.704505 0.483976 -0.519076
vn -0.896308 -0.416497 -0.152190
vn 0.988450 0.106841 0.107482
vn -0.907715 0.221412 -0.356413
vn -0.140170 0.988215 0.061507
vn -0.958718 -0.281653 0.039122
vn -0.798691 0.553702 0.235597
vn -0.080407 -0.910169 -0.406357
vn -0.863846 -0.084029 -0.496698
vn -0.639187 -0.279421 -0.716495
vn -0.823719 -0.155044 0.545388
vn -0.427028 -0.227932 0.875040
vn -0.097912 0.001377 0.995194
vn -0.978713 -0.051621 0.198635
vn -0.985778 -0.137370 -0.096803
vn -0.959760 -0.139512 -0.243716
vn -0.194811 -0.885305 0.422237
vn -0.142604 0.114905 0.983088
vn -0.895399 -0.016150 0.444971
vn -0.961422 0.066800 0.266844
vn 0.134930 0.859242 0.493454
vn -0.419144 0.281211 0.863272
vn -0.634261 0.313713 0.706609
vn -0.648954 0.320596 0.689983
vn -0.466417 -0.235894 0.852531
vn -0.296797 -0.329783 0.896189
vn 0.031737 0.881396 0.471311
vn 0.057356 -0.108577 0.992432
vn -0.267693 -0.728286 0.630825
vn -0.495702 -0.022150 0.868210
vn -0.470959 -0.818669 -0.328603
vn -0.917442 0.046651 0.395126
vn -0.081308 -0.991922 -0.097367
vn -0.469968 0.094899 0.877567
vn -0.780946 0.071414 0.620502
vn -0.314414 -0.933690 -0.171367
vn -0.290832 -0.030547 0.956286
vn -0.976329 0.147584 -0.158114
vn -0.912698 0.285220 -0.292628
vn -0.765081 -0.298637 0.570497
vn -0.159214 -0.493747 0.854906
vn -0.811925 -0.123145 0.570625
vn -0.041773 -0.382553 0.922989
vn -0.450081 0.700330 0.554045
vn -0.962852 0.112513 0.245474
vn -0.843321 0.471886 0.257165
vn -0.715160 0.627762 0.307346
vn -0.443016 0.268970 0.855214
vn -0.514204 0.484047 -0.708020
vn -0.394753 0.565204 -0.724371
vn -0.085937 0.995147 -0.047936
vn 0.027152 0.978254 -0.205627
vn -0.665160 -0.120917 0.736845
vn -0.157336 0.987299 -0.022044
vn -0.816473 -0.214842 0.535924
vn -0.913216 0.369787 0.171156
vn 0.790120 -0.359064 -0.496773
vn -0.435592 0.797804 0.416856
vn -0.931357 -0.144084 0.334385
vn 0.138676 -0.975122 0.172931
vn 0.977376 0.210710 0.018379
vn -0.760058 -0.647982 0.049305
vn -0.354652 -0.910172 -0.214028
vn -0.016021 0.517351 0.855623
vn -0.646392 -0.227731 0.728228
vn -0.319219 0.634895 0.703568
vn -0.291767 0.655044 0.696986
vn -0.018501 0.983844 -0.178069
vn 0.419034 0.750127 -0.511587
vn -0.212905 0.353886 -0.910734
vn -0.450654 0.339232 -0.825731
vn -0.074563 -0.965228 0.250551
vn -0.064760 -0.980593 0.185051
vn -0.947008 0.023583 0.320343
vn -0.846533 -0.075820 0.526909
vn -0.451847 0.827118 0.334230
vn -0.489251 0.808596 0.326811
vn 0.427437 0.863520 -0.267640
vn 0.948536 -0.316607 -0.006250
vn 0.026082 -0.997533 0.065175
vn 0.089008 -0.934171 0.345545
vn -0.810634 0.007552 0.585505
vn -0.916786 -0.138087 0.374747
vn -0.524432 0.825993 0.206656
vn -0.499293 0.837687 0.221331
vn 0.579314 0.388937 -0.716327
vn 0.494410 0.858708 -0.134829
vn 0.880699 0.402732 -0.249352
vn -0.919388 0.023028 0.392678
vn -0.067657 -0.983113 0.170030
vn 0.937365 -0.229302 -0.262236
vn 0.619034 0.782416 -0.067983
vn 0.963084 -0.185005 -0.195557
vn 0.531537 0.842307 0.089375
vn -0.949333 -0.089172 0.301354
vn -0.007062 -0.988519 0.150929
vn 0.159672 -0.865336 -0.475078
vn -0.130824 -0.987960 -0.082579
vn -0.215148 -0.626095 0.749477
vn -0.285158 -0.336574 0.897442
vn 0.033129 0.576725 0.816266
vn -0.018548 0.532637 0.846140
vn 0.417293 0.907753 0.043024
vn 0.421516 0.906293 -0.030945
vn 0.431294 -0.111482 -0.895297
vn 0.424644 -0.046046 -0.904189
vn 0.350768 0.240652 0.905013
vn 0.771389 0.631045 -0.082111
vn -0.159831 0.875009 -0.456962
vn -0.078861 0.891043 -0.447016
vn -0.044783 0.867782 -0.494924
vn 0.271275 0.868444 -0.414988
vn 0.325709 0.816508 -0.476685
vn 0.031306 0.481202 0.876051
vn -0.025072 0.223048 0.974485
vn -0.101715 -0.918651 -0.381752
vn 0.410434 -0.816268 0.406510
vn 0.122878 -0.914417 -0.385673
vn 0.075761 -0.945541 -0.316563
vn 0.355973 -0.824869 -0.439176
vn -0.325863 0.104817 -0.939589
vn -0.184861 0.971116 -0.150865
vn 0.307822 0.931077 -0.195808
vn 0.279414 -0.579236 -0.765776
vn 0.318564 -0.554842 -0.768549
vn -0.008927 0.365905 0.930609
vn -0.053724 0.364621 0.929605
vn 0.278330 0.956632 -0.085949
vn 0.084548 0.465246 0.881134
vn -0.452274 -0.422852 0.785267
vn -0.321097 -0.699417 0.638524
vn 0.202874 -0.587655 -0.783265
vn -0.158723 0.567696 0.807792
vn 0.328724 -0.587121 -0.739749
vn -0.114896 -0.826762 -0.550693
vn -0.617918 -0.541630 0.569926
vn 0.802566 0.533219 0.267515
vn -0.113678 0.387784 0.914714
vn -0.600672 -0.597405 0.531320
vn -0.025165 0.957903 0.285986
vn -0.022775 0.952955 0.302254
vn 0.369888 -0.563552 -0.738642
vn 0.169584 0.983423 -0.064182
vn -0.164395 0.436276 0.884668
vn -0.285941 -0.489515 0.823780
vn 0.737550 0.005617 -0.675269
vn -0.678702 0.442703 -0.585984
vn -0.611637 0.486442 -0.623919
vn -0.634839 0.119794 0.763302
vn -0.596012 0.040143 0.801972
vn 0.777067 -0.204946 0.595117
vn 0.655422 -0.309663 0.688862
vn -0.733710 -0.094304 0.672887
vn 0.703912 0.229328 0.672247
vn -0.677041 -0.424642 -0.601078
vn -0.541672 0.021841 0.840306
vn -0.399761 0.512219 0.760146
vn 0.752816 0.425291 0.502390
vn -0.685349 0.411163 0.601034
vn 0.655167 -0.307601 0.690028
vn 0.674913 0.107723 -0.729992
vn -0.595004 0.687309 0.416626
vn 0.802983 0.485549 0.345631
vn -0.642320 0.621161 0.448981
vn -0.703081 -0.653013 -0.281517
vn -0.699044 -0.657165 -0.281908
vn -0.208938 -0.857177 -0.470736
vn 0.370453 -0.845721 -0.384084
vn 0.826882 0.424242 0.369169
vn 0.766640 -0.562460 -0.309681
vn -0.686616 0.485573 -0.541089
vn -0.663921 0.193520 0.722328
vn 0.745982 -0.175036 0.642552
vn 0.744168 0.117449 -0.657587
vn -0.873290 0.229713 -0.429647
vn 0.800073 -0.124597 -0.586822
vn 0.692245 -0.140327 -0.707888
vn -0.740196 0.134638 -0.658773
vn -0.644146 -0.147041 0.750636
vn -0.791892 0.012041 0.610543
vn 0.758171 -0.377644 0.531565
vn 0.740101 -0.387212 0.549834
vn 0.749822 0.143144 -0.645969
vn -0.064974 0.074595 -0.995095
vn 0.928006 -0.340586 -0.151015
vn -0.974796 0.116335 -0.190367
vn -0.233046 -0.970428 0.062927
vn -0.208166 -0.976875 0.048818
vn -0.463689 0.829397 0.311598
vn -0.707232 0.412873 -0.573898
vn 0.833520 0.448330 0.322868
vn -0.545872 0.816533 0.187878
vn 0.911815 0.382401 0.149542
vn -0.186041 -0.963229 0.193852
vn -0.213325 -0.949898 0.228444
vn -0.476810 0.877062 0.058431
vn 0.008420 0.528676 0.848782
vn 0.838243 0.543265 -0.047023
vn -0.567242 -0.803639 0.180003

f 1/1/1 2/2/1 3/3/1
f 4/4/2 5/5/2 6/6/2
f 4/4/3 6/7/3 7/8/3
f 5/9/4 8/10/4 9/11/4
f 10/12/5 11/13/5 9/14/5
f 6/6/6 11/15/6 7/8/6
f 6/6/7 12/16/7 11/13/7
f 12/17/8 5/5/8 9/14/8
f 6/6/9 5/5/9 12/17/9
f 11/13/10 12/18/10 9/19/10
f 13/20/11 14/21/11 15/22/11
f 14/21/12 13/20/12 16/23/12
f 16/24/13 13/20/13 17/25/13
f 15/22/14 14/21/14 18/26/14
f 14/21/15 19/27/15 18/26/15
f 18/26/16 20/28/16 21/29/16
f 18/26/17 19/27/17 20/28/17
f 20/28/18 3/30/18 21/29/18
f 5/9/19 22/31/19 23/32/19
f 24/33/20 25/34/20 26/35/20
f 27/36/21 25/34/21 9/37/21
f 28/38/22 27/39/22 29/40/22
f 30/41/23 25/34/23 24/33/23
f 25/34/24 30/41/24 10/42/24
f 30/41/25 24/33/25 31/43/25
f 24/33/26 26/44/26 32/45/26
f 33/46/27 34/47/27 5/9/27
f 4/4/28 22/31/28 5/9/28
f 26/35/29 25/34/29 27/39/29
f 33/46/30 35/48/30 34/47/30
f 32/45/31 26/35/31 28/38/31
f 23/32/32 33/46/32 5/9/32
f 26/35/33 27/39/33 28/38/33
f 28/38/34 29/40/34 36/49/34
f 35/50/35 37/51/35 29/40/35
f 28/38/36 38/52/36 32/45/36
f 36/49/37 38/52/37 28/38/37
f 36/49/38 37/53/38 39/54/38
f 39/55/39 37/56/39 40/57/39
f 41/58/40 42/59/40 39/55/40
f 39/55/41 40/57/41 41/58/41
f 36/49/42 29/40/42 37/51/42
f 37/56/43 35/48/43 33/46/43
f 37/56/44 33/46/44 40/57/44
f 40/57/45 33/46/45 43/60/45
f 40/57/46 43/60/46 41/58/46
f 33/46/47 23/32/47 43/60/47
f 44/61/48 45/62/48 30/63/48
f 15/64/49 46/65/49 45/62/49
f 46/66/50 47/67/50 10/68/50
f 47/67/51 7/69/51 11/70/51
f 45/62/52 44/61/52 17/71/52
f 44/61/53 30/63/53 31/72/53
f 13/73/54 15/64/54 45/62/54
f 46/65/55 10/74/55 45/62/55
f 45/62/56 10/74/56 30/63/56
f 47/67/57 11/70/57 10/68/57
f 47/67/58 48/75/58 7/69/58
f 46/66/59 15/76/59 47/67/59
f 18/77/60 47/67/60 15/76/60
f 47/67/61 18/77/61 48/75/61
f 18/77/62 21/78/62 48/75/62
f 13/73/63 45/62/63 17/71/63
f 49/79/64 35/50/64 29/40/64
f 8/80/65 27/81/65 9/82/65
f 34/47/66 50/83/66 5/84/66
f 27/36/67 49/79/67 29/40/67
f 35/48/68 51/85/68 52/86/68
f 35/50/69 49/79/69 51/87/69
f 52/86/70 50/83/70 34/47/70
f 35/48/71 52/86/71 34/47/71
f 5/84/72 50/83/72 8/10/72
f 53/88/73 27/81/73 8/80/73
f 53/88/74 49/79/74 27/36/74
f 54/89/75 55/90/75 56/91/75
f 57/92/76 55/90/76 58/93/76
f 59/94/77 60/95/77 55/90/77
f 61/96/78 54/89/78 56/91/78
f 39/97/79 61/96/79 36/98/79
f 36/98/80 61/96/80 56/91/80
f 36/98/81 56/91/81 38/99/81
f 62/100/82 63/101/82 64/102/82
f 65/103/83 64/102/83 54/89/83
f 61/96/84 65/103/84 54/89/84
f 66/104/85 67/105/85 62/100/85
f 55/90/86 60/95/86 68/106/86
f 69/107/87 68/106/87 60/95/87
f 69/107/88 70/108/88 68/106/88
f 58/109/89 55/90/89 68/106/89
f 68/106/90 71/110/90 58/111/90
f 62/100/91 67/105/91 63/101/91
f 64/102/92 63/101/92 69/107/92
f 70/108/93 71/110/93 68/106/93
f 58/111/94 71/110/94 72/112/94
f 56/91/95 57/92/95 38/113/95
f 55/90/96 57/114/96 56/91/96
f 73/115/97 74/116/97 38/113/97
f 58/109/98 72/112/98 73/115/98
f 57/117/99 58/111/99 73/115/99
f 57/92/100 73/115/100 38/113/100
f 73/115/101 72/112/101 74/116/101
f 39/97/102 75/118/102 61/96/102
f 75/118/103 39/97/103 76/119/103
f 64/102/104 59/94/104 54/89/104
f 64/102/105 60/95/105 59/94/105
f 54/89/106 59/94/106 55/90/106
f 64/102/107 69/107/107 60/95/107
f 65/103/108 66/104/108 62/100/108
f 65/103/109 61/96/109 75/118/109
f 75/118/110 76/119/110 65/103/110
f 66/104/111 65/103/111 76/119/111
f 62/100/112 64/102/112 65/103/112
f 39/97/113 42/120/113 76/119/113
f 77/121/114 76/119/114 42/120/114
f 67/105/115 76/119/115 77/121/115
f 66/104/116 76/119/116 67/105/116
f 9/82/117 25/34/117 10/42/117
f 51/122/118 49/123/118 78/124/118
f 79/125/119 50/126/119 52/127/119
f 52/127/120 51/122/120 79/125/120
f 80/128/121 81/129/121 53/130/121
f 51/122/122 78/124/122 79/125/122
f 82/131/123 50/126/123 79/125/123
f 50/126/124 82/131/124 8/132/124
f 53/133/125 78/124/125 49/123/125
f 83/134/126 84/135/126 85/136/126
f 84/135/127 83/134/127 86/137/127
f 86/137/128 87/138/128 84/135/128
f 88/139/129 84/135/129 87/138/129
f 87/138/130 89/140/130 88/139/130
f 90/141/131 88/139/131 89/140/131
f 91/142/132 92/143/132 90/141/132
f 90/141/133 89/140/133 91/142/133
f 85/136/134 92/144/134 91/145/134
f 91/145/135 83/134/135 85/136/135
f 80/128/136 93/146/136 83/134/136
f 94/147/137 83/134/137 93/146/137
f 93/146/138 87/138/138 94/147/138
f 87/138/139 93/146/139 95/148/139
f 95/148/140 96/149/140 87/138/140
f 89/140/141 87/138/141 96/149/141
f 97/150/142 91/142/142 89/140/142
f 97/151/143 81/129/143 80/128/143
f 8/132/144 82/131/144 80/128/144
f 93/146/145 80/128/145 98/152/145
f 98/152/146 95/148/146 93/146/146
f 95/148/147 82/131/147 79/125/147
f 79/125/148 78/124/148 95/148/148
f 96/149/149 95/148/149 78/124/149
f 78/124/150 53/133/150 81/153/150
f 81/153/151 96/149/151 78/124/151
f 80/128/152 53/130/152 8/154/152
f 94/147/153 87/138/153 86/137/153
f 86/137/154 83/134/154 94/147/154
f 97/151/155 83/134/155 91/145/155
f 89/140/156 96/149/156 97/150/156
f 80/128/157 83/134/157 97/151/157
f 81/153/158 97/150/158 96/149/158
f 82/131/159 95/148/159 98/152/159
f 98/152/160 80/128/160 82/131/160
f 85/136/161 99/155/161 100/156/161
f 99/155/162 85/136/162 84/135/162
f 84/135/163 101/157/163 99/155/163
f 101/157/164 84/135/164 88/139/164
f 88/139/165 90/141/165 101/157/165
f 102/158/166 101/157/166 90/141/166
f 90/141/167 103/159/167 102/158/167
f 103/159/168 90/141/168 92/143/168
f 92/144/169 85/136/169 103/160/169
f 100/156/170 103/160/170 85/136/170
f 104/161/171 105/162/171 106/163/171
f 107/164/172 106/163/172 108/165/172
f 109/166/173 110/167/173 103/168/173
f 109/166/174 111/169/174 104/161/174
f 104/161/175 110/167/175 109/166/175
f 104/161/176 111/169/176 112/170/176
f 113/171/177 112/170/177 111/169/177
f 106/163/178 110/167/178 104/161/178
f 104/161/179 112/170/179 105/162/179
f 105/172/180 113/173/180 111/174/180
f 113/173/181 105/172/181 112/175/181
f 105/172/182 111/174/182 109/176/182
f 109/176/183 106/177/183 105/172/183
f 109/176/184 100/178/184 106/177/184
f 103/179/185 100/178/185 109/176/185
f 102/180/186 103/168/186 110/167/186
f 106/163/187 114/181/187 108/165/187
f 115/182/188 116/183/188 106/177/188
f 116/184/189 117/185/189 118/186/189
f 108/165/190 114/181/190 119/187/190
f 119/187/191 120/188/191 108/165/191
f 118/189/192 121/190/192 114/191/192
f 114/191/193 121/190/193 117/192/193
f 116/193/194 115/194/194 119/187/194
f 120/188/195 119/187/195 115/194/195
f 121/195/196 118/186/196 117/185/196
f 108/165/197 101/196/197 102/180/197
f 115/182/198 106/177/198 100/178/198
f 100/178/199 99/197/199 115/182/199
f 120/188/200 99/198/200 101/196/200
f 106/163/201 107/164/201 110/167/201
f 108/165/202 120/188/202 101/196/202
f 120/188/203 115/194/203 99/198/203
f 107/164/204 102/180/204 110/167/204
f 102/180/205 107/164/205 108/165/205
f 118/199/206 106/177/206 116/183/206
f 114/181/207 106/163/207 118/200/207
f 114/191/208 117/192/208 119/201/208
f 117/192/209 116/202/209 119/201/209
f 122/203/210 123/204/210 124/205/210
f 125/206/211 126/207/211 123/208/211
f 125/206/212 123/208/212 127/209/212
f 125/210/213 128/211/213 126/212/213
f 128/211/214 129/213/214 126/212/214
f 128/214/215 124/215/215 129/216/215
f 122/217/216 124/215/216 128/214/216
f 130/218/217 128/211/217 125/219/217
f 131/220/218 122/221/218 130/222/218
f 132/223/219 125/224/219 127/225/219
f 132/226/220 131/227/220 125/219/220
f 133/228/221 131/227/221 132/226/221
f 133/229/222 122/221/222 131/220/222
f 130/218/223 125/219/223 131/227/223
f 128/214/224 130/222/224 122/221/224
f 127/209/225 123/204/225 122/203/225
f 16/230/226 133/228/226 14/231/226
f 16/232/227 3/3/227 133/229/227
f 14/231/228 133/228/228 132/226/228
f 14/233/229 132/223/229 19/234/229
f 132/223/230 127/225/230 19/234/230
f 20/235/231 19/234/231 127/225/231
f 20/235/232 127/225/232 122/236/232
f 3/3/233 122/221/233 133/229/233
f 3/237/234 20/235/234 122/236/234
f 134/238/235 135/239/235 136/240/235
f 137/241/236 135/242/236 134/243/236
f 138/244/237 139/245/237 137/246/237
f 138/247/238 136/248/238 139/249/238
f 134/238/239 136/240/239 123/208/239
f 138/247/240 123/250/240 136/248/240
f 123/250/241 138/247/241 124/251/241
f 134/238/242 123/208/242 126/252/242
f 129/253/243 134/243/243 126/254/243
f 137/241/244 134/243/244 129/253/244
f 138/244/245 137/246/245 129/255/245
f 138/244/246 129/255/246 124/256/246
f 136/257/247 140/258/247 139/259/247
f 136/257/248 141/260/248 140/258/248
f 142/261/249 139/259/249 140/258/249
f 135/262/250 143/263/250 141/260/250
f 141/264/251 143/265/251 142/266/251
f 142/266/252 140/267/252 141/264/252
f 137/268/253 143/263/253 135/262/253
f 135/262/254 141/260/254 136/257/254
f 139/259/255 142/261/255 137/268/255
f 137/268/256 144/269/256 143/263/256
f 137/268/257 142/261/257 144/269/257
f 143/265/258 145/270/258 146/271/258
f 146/271/259 142/266/259 143/265/259
f 143/263/260 144/269/260 145/272/260
f 144/269/261 146/273/261 145/272/261
f 146/273/262 144/269/262 142/261/262
f 3/274/263 16/275/263 17/276/263
f 147/5/264 4/4/264 148/6/264
f 148/7/265 4/4/265 7/8/265
f 149/10/266 147/9/266 150/11/266
f 151/13/267 152/12/267 150/14/267
f 151/15/268 148/6/268 7/8/268
f 153/16/269 148/6/269 151/13/269
f 147/5/270 153/17/270 150/14/270
f 147/5/271 148/6/271 153/17/271
f 153/18/272 151/13/272 150/19/272
f 154/21/273 155/20/273 156/22/273
f 155/20/274 154/21/274 157/23/274
f 155/20/275 157/24/275 17/25/275
f 154/21/276 156/22/276 158/26/276
f 159/27/277 154/21/277 158/26/277
f 160/28/278 158/26/278 21/29/278
f 159/27/279 158/26/279 160/28/279
f 3/30/280 160/28/280 21/29/280
f 22/31/281 147/9/281 23/32/281
f 161/34/282 24/33/282 162/35/282
f 161/34/283 163/36/283 150/37/283
f 163/39/284 164/38/284 165/40/284
f 161/34/285 166/41/285 24/33/285
f 166/41/286 161/34/286 152/42/286
f 24/33/287 166/41/287 31/43/287
f 162/44/288 24/33/288 32/45/288
f 167/47/289 168/46/289 147/9/289
f 22/31/290 4/4/290 147/9/290
f 161/34/291 162/35/291 163/39/291
f 169/48/292 168/46/292 167/47/292
f 162/35/293 32/45/293 164/38/293
f 168/46/294 23/32/294 147/9/294
f 163/39/295 162/35/295 164/38/295
f 165/40/296 164/38/296 170/49/296
f 171/51/297 169/50/297 165/40/297
f 38/52/298 164/38/298 32/45/298
f 38/52/299 170/49/299 164/38/299
f 171/53/300 170/49/300 172/54/300
f 171/56/301 172/55/301 173/57/301
f 42/59/302 41/58/302 172/55/302
f 173/57/303 172/55/303 41/58/303
f 165/40/304 170/49/304 171/51/304
f 169/48/305 171/56/305 168/46/305
f 168/46/306 171/56/306 173/57/306
f 168/46/307 173/57/307 43/60/307
f 43/60/308 173/57/308 41/58/308
f 23/32/309 168/46/309 43/60/309
f 174/62/310 44/61/310 166/63/310
f 175/65/311 156/64/311 174/62/311
f 176/67/312 175/66/312 152/68/312
f 7/69/313 176/67/313 151/70/313
f 44/61/314 174/62/314 17/71/314
f 166/63/315 44/61/315 31/72/315
f 156/64/316 155/73/316 174/62/316
f 152/74/317 175/65/317 174/62/317
f 152/74/318 174/62/318 166/63/318
f 151/70/319 176/67/319 152/68/319
f 48/75/320 176/67/320 7/69/320
f 156/76/321 175/66/321 176/67/321
f 176/67/322 158/77/322 156/76/322
f 158/77/323 176/67/323 48/75/323
f 21/78/324 158/77/324 48/75/324
f 174/62/325 155/73/325 17/71/325
f 169/50/326 177/79/326 165/40/326
f 163/81/327 149/80/327 150/82/327
f 178/83/328 167/47/328 147/84/328
f 177/79/329 163/36/329 165/40/329
f 179/85/330 169/48/330 180/86/330
f 177/79/331 169/50/331 179/87/331
f 178/83/332 180/86/332 167/47/332
f 180/86/333 169/48/333 167/47/333
f 178/83/334 147/84/334 149/10/334
f 163/81/335 181/88/335 149/80/335
f 177/79/336 181/88/336 163/36/336
f 182/90/337 183/89/337 184/91/337
f 182/90/338 185/92/338 186/93/338
f 187/95/339 188/94/339 182/90/339
f 183/89/340 189/96/340 184/91/340
f 189/96/341 172/97/341 170/98/341
f 189/96/342 170/98/342 184/91/342
f 184/91/343 170/98/343 38/99/343
f 63/101/344 190/100/344 191/102/344
f 191/102/345 192/103/345 183/89/345
f 192/103/346 189/96/346 183/89/346
f 67/105/347 193/104/347 190/100/347
f 187/95/348 182/90/348 194/106/348
f 194/106/349 69/107/349 187/95/349
f 70/108/350 69/107/350 194/106/350
f 182/90/351 186/109/351 194/106/351
f 71/110/352 194/106/352 186/111/352
f 67/105/353 190/100/353 63/101/353
f 63/101/354 191/102/354 69/107/354
f 71/110/355 70/108/355 194/106/355
f 71/110/356 186/111/356 72/112/356
f 185/92/357 184/91/357 38/113/357
f 185/114/358 182/90/358 184/91/358
f 74/116/359 195/115/359 38/113/359
f 72/112/360 186/109/360 195/115/360
f 186/111/361 185/117/361 195/115/361
f 195/115/362 185/92/362 38/113/362
f 72/112/363 195/115/363 74/116/363
f 196/118/364 172/97/364 189/96/364
f 172/97/365 196/118/365 197/119/365
f 188/94/366 191/102/366 183/89/366
f 187/95/367 191/102/367 188/94/367
f 188/94/368 183/89/368 182/90/368
f 69/107/369 191/102/369 187/95/369
f 193/104/370 192/103/370 190/100/370
f 189/96/371 192/103/371 196/118/371
f 197/119/372 196/118/372 192/103/372
f 192/103/373 193/104/373 197/119/373
f 191/102/374 190/100/374 192/103/374
f 42/120/375 172/97/375 197/119/375
f 197/119/376 77/121/376 42/120/376
f 197/119/377 67/105/377 77/121/377
f 197/119/378 193/104/378 67/105/378
f 161/34/379 150/82/379 152/42/379
f 177/123/380 179/122/380 198/124/380
f 178/126/381 199/125/381 180/127/381
f 179/122/382 180/127/382 199/125/382
f 200/129/383 201/128/383 181/130/383
f 198/124/384 179/122/384 199/125/384
f 178/126/385 202/131/385 199/125/385
f 202/131/386 178/126/386 149/132/386
f 198/124/387 181/133/387 177/123/387
f 203/135/388 204/134/388 205/136/388
f 204/134/389 203/135/389 206/137/389
f 207/138/390 206/137/390 203/135/390
f 203/135/391 208/139/391 207/138/391
f 209/140/392 207/138/392 208/139/392
f 208/139/393 210/141/393 209/140/393
f 211/143/394 212/142/394 210/141/394
f 209/140/395 210/141/395 212/142/395
f 211/144/396 205/136/396 212/145/396
f 204/134/397 212/145/397 205/136/397
f 213/146/398 201/128/398 204/134/398
f 204/134/399 214/147/399 213/146/399
f 207/138/400 213/146/400 214/147/400
f 213/146/401 207/138/401 215/148/401
f 216/149/402 215/148/402 207/138/402
f 207/138/403 209/140/403 216/149/403
f 212/142/404 217/150/404 209/140/404
f 200/129/405 217/151/405 201/128/405
f 202/131/406 149/132/406 201/128/406
f 201/128/407 213/146/407 218/152/407
f 215/148/408 218/152/408 213/146/408
f 202/131/409 215/148/409 199/125/409
f 198/124/410 199/125/410 215/148/410
f 215/148/411 216/149/411 198/124/411
f 181/133/412 198/124/412 200/153/412
f 216/149/413 200/153/413 198/124/413
f 181/130/414 201/128/414 149/154/414
f 207/138/415 214/147/415 206/137/415
f 204/134/416 206/137/416 214/147/416
f 204/134/417 217/151/417 212/145/417
f 216/149/418 209/140/418 217/150/418
f 204/134/419 201/128/419 217/151/419
f 217/150/420 200/153/420 216/149/420
f 215/148/421 202/131/421 218/152/421
f 201/128/422 218/152/422 202/131/422
f 219/155/423 205/136/423 220/156/423
f 205/136/424 219/155/424 203/135/424
f 221/157/425 203/135/425 219/155/425
f 203/135/426 221/157/426 208/139/426
f 210/141/427 208/139/427 221/157/427
f 221/157/428 222/158/428 210/141/428
f 223/159/429 210/141/429 222/158/429
f 210/141/430 223/159/430 211/143/430
f 205/136/431 211/144/431 223/160/431
f 223/160/432 220/156/432 205/136/432
f 224/162/433 225/161/433 226/163/433
f 226/163/434 227/164/434 228/165/434
f 229/167/435 230/166/435 223/168/435
f 231/169/436 230/166/436 225/161/436
f 229/167/437 225/161/437 230/166/437
f 231/169/438 225/161/438 232/170/438
f 232/170/439 233/171/439 231/169/439
f 229/167/440 226/163/440 225/161/440
f 232/170/441 225/161/441 224/162/441
f 233/173/442 224/172/442 231/174/442
f 224/172/443 233/173/443 232/175/443
f 231/174/444 224/172/444 230/176/444
f 226/177/445 230/176/445 224/172/445
f 220/178/446 230/176/446 226/177/446
f 220/178/447 223/179/447 230/176/447
f 223/168/448 222/180/448 229/167/448
f 234/181/449 226/163/449 228/165/449
f 235/183/450 236/182/450 226/177/450
f 237/185/451 235/184/451 238/186/451
f 234/181/452 228/165/452 239/187/452
f 240/188/453 239/187/453 228/165/453
f 241/190/454 238/189/454 234/191/454
f 241/190/455 234/191/455 237/192/455
f 236/194/456 235/193/456 239/187/456
f 239/187/457 240/188/457 236/194/457
f 238/186/458 241/195/458 237/185/458
f 221/196/459 228/165/459 222/180/459
f 226/177/460 236/182/460 220/178/460
f 219/197/461 220/178/461 236/182/461
f 219/198/462 240/188/462 221/196/462
f 227/164/463 226/163/463 229/167/463
f 240/188/464 228/165/464 221/196/464
f 236/194/465 240/188/465 219/198/465
f 222/180/466 227/164/466 229/167/466
f 227/164/467 222/180/467 228/165/467
f 226/177/468 238/199/468 235/183/468
f 226/163/469 234/181/469 238/200/469
f 237/192/470 234/191/470 239/201/470
f 235/202/471 237/192/471 239/201/471
f 242/204/472 243/203/472 244/205/472
f 245/207/473 246/206/473 242/208/473
f 242/208/474 246/206/474 247/209/474
f 248/211/475 246/210/475 245/212/475
f 249/213/476 248/211/476 245/212/476
f 244/215/477 248/214/477 249/216/477
f 244/215/478 243/217/478 248/214/478
f 248/211/479 250/218/479 246/219/479
f 243/221/480 251/220/480 250/222/480
f 246/224/481 252/223/481 247/225/481
f 251/227/482 252/226/482 246/219/482
f 251/227/483 253/228/483 252/226/483
f 243/221/484 253/229/484 251/220/484
f 246/219/485 250/218/485 251/227/485
f 250/222/486 248/214/486 243/221/486
f 242/204/487 247/209/487 243/203/487
f 253/228/488 157/230/488 154/231/488
f 3/3/489 157/232/489 253/229/489
f 253/228/490 154/231/490 252/226/490
f 252/223/491 154/233/491 159/234/491
f 247/225/492 252/223/492 159/234/492
f 159/234/493 160/235/493 247/225/493
f 247/225/494 160/235/494 243/236/494
f 243/221/495 3/3/495 253/229/495
f 160/235/496 3/237/496 243/236/496
f 254/239/497 255/238/497 256/240/497
f 254/242/498 257/241/498 255/243/498
f 258/245/499 259/244/499 257/246/499
f 256/248/500 259/247/500 258/249/500
f 256/240/501 255/238/501 242/208/501
f 242/250/502 259/247/502 256/248/502
f 259/247/503 242/250/503 244/251/503
f 242/208/504 255/238/504 245/252/504
f 255/243/505 249/253/505 245/254/505
f 255/243/506 257/241/506 249/253/506
f 257/246/507 259/244/507 249/255/507
f 249/255/508 259/244/508 244/256/508
f 260/258/509 256/257/509 258/259/509
f 261/260/510 256/257/510 260/258/510
f 258/259/511 262/261/511 260/258/511
f 263/263/512 254/262/512 261/260/512
f 263/265/513 261/264/513 262/266/513
f 260/267/514 262/266/514 261/264/514
f 263/263/515 257/268/515 254/262/515
f 261/260/516 254/262/516 256/257/516
f 262/261/517 258/259/517 257/268/517
f 264/269/518 257/268/518 263/263/518
f 262/261/519 257/268/519 264/269/519
f 265/270/520 263/265/520 266/271/520
f 262/266/521 266/271/521 263/265/521
f 264/269/522 263/263/522 265/272/522
f 266/273/523 264/269/523 265/272/523
f 264/269/524 266/273/524 262/261/524
f 157/275/525 3/274/525 17/276/525

