mtllib anim_spider_000012.mtl

o spider_walk_00
usemtl spidsd
s off

v -0.095340 43.713650 -14.598050
v -0.001710 47.666740 -3.513910
v 17.361359 35.537540 -3.558800
v -0.168390 34.214027 -24.147930
v 0.019030 38.498280 7.263021
v 11.452000 33.718559 8.721960
v 7.795510 30.581301 -18.462259
v 17.656820 26.546270 0.511970
v 13.302719 26.095699 11.929111
v 7.298300 14.568050 10.941200
v 6.533760 16.274130 17.741470
v 0.135890 23.169178 23.065830
v 10.899910 31.338230 19.695660
v 10.472290 23.842800 -12.654420
v 9.105030 14.224690 -7.281230
v 15.265200 16.635170 -2.301940
v 1.747960 10.246830 -23.509100
v 4.992820 29.105661 -30.815390
v -0.131350 19.125231 -19.512520
v 10.544749 10.085870 -21.539299
v 8.033530 28.915211 -18.831421
v 8.046150 11.088820 -30.979670
v 0.284880 1.618260 -29.905838
v 18.663210 35.094170 -22.219711
v 13.787360 42.078171 -19.522190
v 6.297590 15.243030 -13.736071
v 19.543039 38.762791 -13.690530
v 29.084438 50.454010 -33.046661
v 31.360641 55.925842 -28.708899
v 31.398830 48.935680 -25.849039
v 52.137089 24.242451 -45.826740
v 26.807060 34.102230 -6.198470
v 27.207001 44.099449 -5.889770
v 29.718760 38.241478 1.723050
v 10.949381 14.645720 6.036360
v 42.947021 38.583511 -9.996389
v 49.883362 44.293282 -7.180560
v 46.265141 40.673561 -1.042980
v 48.109531 -3.056560 -2.995760
v 21.691511 51.209312 10.745180
v 12.214220 54.340977 16.740759
v 19.227030 48.821541 20.565861
v 32.085819 63.370949 15.186840
v 30.406170 67.609192 22.945070
v 33.304199 52.613960 22.775951
v 64.702667 44.315262 19.527020
v 7.436530 40.745777 14.783870
v -0.002000 14.952280 -4.690150
v 6.346630 16.787640 -17.340040
v 17.286909 25.929798 -25.453979
v 10.955160 27.320831 -28.964031
v 11.408989 18.702940 -25.868839
v 19.253099 10.841829 -41.148872
v 12.588201 15.807570 -42.793808
v 12.917670 9.978810 -36.670139
v 9.551750 5.659030 -48.117199
v 3.441760 8.406650 -47.622330
v 4.364070 4.367830 -44.488647
v -17.378010 35.535439 -3.284250
v -11.432650 33.720310 8.719729
v -8.272699 30.518761 -18.476980
v -17.606590 32.147820 -0.997150
v -13.246079 26.060390 11.994751
v -7.202580 13.375330 9.062450
v -6.293630 16.237839 17.827379
v -10.718360 31.277069 19.840471
v -10.305380 23.938869 -12.397840
v -9.250370 14.232640 -7.487720
v -18.466049 22.839329 -3.983020
v -2.269090 10.246469 -21.770889
v -5.324330 29.104891 -30.745029
v -10.805520 10.083970 -21.332130
v -8.286320 28.913801 -18.705900
v -8.446740 11.087530 -30.808210
v -0.669200 1.618180 -29.898880
v -16.884691 29.961691 -24.338629
v -17.121500 38.738899 -23.001080
v -6.377380 15.392880 -13.752750
v -19.838980 33.354179 -16.516640
v -34.357792 31.664209 -33.841541
v -39.286209 35.832428 -30.150070
v -36.997559 31.247429 -25.541512
v -42.349556 -4.423720 -42.322750
v -22.572170 50.696831 -7.328380
v -15.530500 59.115540 -4.513860
v -21.141920 54.382099 2.047570
v -11.017990 14.102469 4.525120
v -35.681580 66.807007 -7.361590
v -33.929688 72.254730 -0.213400
v -31.090332 64.752243 1.078590
v -65.186646 36.671158 1.332160
v -24.207329 37.459370 13.393641
v -16.546789 45.226749 17.590040
v -19.161770 37.859791 23.221031
v -38.530762 42.362751 19.677561
v -39.250061 47.589211 27.090700
v -31.459570 34.409920 26.496922
v -43.037983 -0.632790 32.818111
v -7.398420 40.692211 14.876530
v -6.574490 16.786530 -17.240690
v -17.607500 25.926819 -25.146830
v -11.328440 27.319010 -28.749731
v -11.946680 18.700939 -26.158121
v -19.802959 10.838831 -40.811302
v -13.122350 15.805730 -42.516571
v -13.401949 9.976800 -36.426422
v -10.370350 5.657969 -47.979889
v -3.095460 8.406560 -47.881920
v -4.968040 4.367410 -44.678921
v 5.517900 27.253708 21.380751
v 9.168221 34.837990 17.005980
v 17.430349 30.157799 26.525459
v 12.048340 19.319990 25.714039
v 23.960781 20.865690 31.416031
v 0.001620 38.851280 10.998390
v 3.719080 39.798531 12.891130
v -5.291230 27.223129 21.453150
v -9.058391 36.916180 16.855780
v -17.149921 23.541988 25.288610
v -11.722790 19.215549 25.851761
v -23.581482 20.656811 31.691471
v -3.698400 39.771751 12.937460
v 10.407030 56.277397 49.908821
v 17.232891 50.151100 50.362392
v 22.133301 49.018040 41.310040
v 11.098680 55.201431 40.997154
v 0.110570 59.927330 48.825111
v 0.064070 61.384819 40.684261
v 21.449261 47.875702 32.269932
v 11.790340 54.125439 32.085480
v 0.017560 60.365910 31.913280
v 14.345900 17.431931 51.636509
v 0.335570 14.258389 51.804180
v 0.235730 16.016340 35.908119
v 13.197121 18.375961 38.675278
v 22.855989 25.203569 52.638859
v 26.158501 20.735580 41.442429
v 22.752981 35.378281 50.915607
v 24.145899 34.876808 41.376228
v 23.761940 34.375340 31.836851
v 12.434950 30.117451 61.048141
v 0.340050 27.111799 62.318138
v 10.524010 45.058151 61.597252
v 0.344530 41.687122 66.065201
v -11.696980 54.022251 32.221550
v -10.911430 55.104717 41.124657
v -10.125870 56.187191 50.027771
v -21.297668 47.687870 32.517582
v -21.886921 48.824631 41.565060
v -16.891710 49.970669 50.600300
v -25.661631 20.507900 41.742649
v -12.712950 18.262121 38.825390
v -22.241531 24.957100 52.963871
v -13.703099 17.308701 51.799011
v -23.496498 34.167702 32.110649
v -23.774271 34.666260 41.653847
v -22.275160 35.164841 51.197071
v 0.199070 49.320229 60.930931
v -10.008889 44.967926 61.716198
v -11.856001 30.010729 61.188869
v 15.499820 43.389648 24.026861
v 7.748860 50.530029 25.244009
v -0.002090 57.670410 26.461170
v 3.707390 46.934608 18.402540
v -0.021750 54.974907 21.009060
v 16.465080 33.541790 24.557560
v -3.710080 46.902031 18.445520
v -7.703530 50.462143 25.333530
v -15.404969 43.253868 24.205898
v -16.277451 33.397930 24.747259
v 0.004500 44.377533 14.648109

vt 0.775345 0.341683
vt 0.775876 0.247975
vt 0.859220 0.247112
vt 0.772128 0.424221
vt 0.775890 0.154291
vt 0.859827 0.141903
vt 0.875327 0.375553
vt 0.892505 0.219133
vt 0.897773 0.114296
vt 0.953133 0.141305
vt 0.949949 0.066123
vt 0.977975 0.018496
vt 0.873031 0.047317
vt 0.914347 0.327191
vt 0.946247 0.279296
vt 0.925279 0.240961
vt 0.931538 0.459675
vt 0.768930 0.471854
vt 0.800536 0.491124
vt 0.867513 0.453579
vt 0.477818 0.544580
vt 0.495999 0.473751
vt 0.457462 0.507453
vt 0.563267 0.479394
vt 0.793378 0.515313
vt 0.929596 0.495258
vt 0.990614 0.441185
vt 0.411300 0.524885
vt 0.939905 0.518219
vt 0.290756 0.676185
vt 0.333986 0.544775
vt 0.326637 0.668117
vt 0.294440 0.545074
vt 0.419736 0.674328
vt 0.359239 0.546980
vt 0.362150 0.676992
vt 0.424507 0.550840
vt 0.353113 0.548934
vt 0.354937 0.672422
vt 0.290943 0.859778
vt 0.324924 0.863033
vt 0.413481 0.864260
vt 0.355742 0.861684
vt 0.348682 0.862354
vt 0.311373 1.000258
vt 0.376172 1.002164
vt 0.159496 0.674128
vt 0.185555 0.550104
vt 0.185681 0.666147
vt 0.160294 0.542513
vt 0.284786 0.672128
vt 0.226999 0.546325
vt 0.226201 0.677940
vt 0.281807 0.552058
vt 0.215102 0.548247
vt 0.218081 0.668317
vt 0.150111 0.861017
vt 0.177469 0.863497
vt 0.280998 0.861230
vt 0.216815 0.864829
vt 0.214293 0.857419
vt 0.174267 0.992955
vt 0.240972 0.996766
vt 0.876456 0.657379
vt 0.910185 0.556160
vt 0.913662 0.658670
vt 0.876159 0.553592
vt 0.989137 0.661685
vt 0.941977 0.557404
vt 0.942685 0.660091
vt 0.991449 0.552362
vt 0.936903 0.552947
vt 0.935408 0.657873
vt 0.871892 0.848804
vt 0.899388 0.854490
vt 0.985760 0.847089
vt 0.939923 0.850417
vt 0.935080 0.844376
vt 0.891788 0.987324
vt 0.959816 0.991136
vt 0.811870 0.097918
vt 0.941640 0.180557
vt 0.977933 0.261082
vt 0.954340 0.335728
vt 0.960961 0.365731
vt 0.025670 0.875244
vt 0.023983 0.951413
vt 0.008915 0.884464
vt 0.888702 0.378592
vt 0.932696 0.369601
vt 0.967644 0.389437
vt 0.893416 0.385760
vt 0.979004 0.388825
vt 0.122691 0.772029
vt 0.105427 0.782143
vt 0.069123 0.732106
vt 0.076559 0.701409
vt 0.089433 0.808942
vt 0.055780 0.764742
vt 0.447575 0.041580
vt 0.455426 0.007181
vt 0.364876 0.024518
vt 0.386764 0.056902
vt 0.117731 0.945641
vt 0.103867 0.925337
vt 0.088386 0.917024
vt 0.511792 0.059264
vt 0.553387 0.034310
vt 0.062154 0.991654
vt 0.037597 0.984105
vt 0.036497 0.970812
vt 0.525175 0.122252
vt 0.562876 0.109196
vt 0.538257 0.138029
vt 0.692644 0.245132
vt 0.692111 0.141629
vt 0.676452 0.374359
vt 0.659497 0.216523
vt 0.653969 0.113403
vt 0.598608 0.140783
vt 0.601372 0.065256
vt 0.571845 0.018496
vt 0.678986 0.045939
vt 0.637463 0.325376
vt 0.605901 0.279694
vt 0.626699 0.241362
vt 0.608539 0.429278
vt 0.725602 0.482910
vt 0.768676 0.455537
vt 0.670790 0.428038
vt 0.013833 0.534843
vt 0.057723 0.498919
vt 0.108703 0.537752
vt 0.114337 0.623838
vt 0.727395 0.512149
vt 0.602094 0.474733
vt 0.556344 0.401069
vt 0.025928 0.446211
vt 0.587502 0.500905
vt 0.501558 0.665186
vt 0.475328 0.670746
vt 0.488643 0.557008
vt 0.510735 0.559631
vt 0.511941 0.673778
vt 0.564254 0.668997
vt 0.571052 0.562343
vt 0.526391 0.557600
vt 0.438845 0.555986
vt 0.438629 0.669967
vt 0.490638 0.863007
vt 0.465435 0.853431
vt 0.512914 0.866921
vt 0.550466 0.866819
vt 0.439943 0.863110
vt 0.464498 0.995689
vt 0.531103 0.999500
vt 0.645465 0.666359
vt 0.609423 0.665836
vt 0.609322 0.553240
vt 0.646303 0.558831
vt 0.644901 0.672566
vt 0.704038 0.670170
vt 0.704920 0.562643
vt 0.647846 0.566742
vt 0.574501 0.668755
vt 0.577814 0.562930
vt 0.641031 0.862073
vt 0.600000 0.859329
vt 0.641457 0.863412
vt 0.701931 0.862073
vt 0.568462 0.857695
vt 0.596238 0.994925
vt 0.667469 0.998524
vt 0.721119 0.672768
vt 0.757893 0.673412
vt 0.759085 0.544124
vt 0.727704 0.546469
vt 0.871675 0.666796
vt 0.802489 0.668417
vt 0.813164 0.548182
vt 0.871708 0.557439
vt 0.794309 0.670447
vt 0.792099 0.542839
vt 0.721696 0.854929
vt 0.760334 0.853734
vt 0.865583 0.855450
vt 0.803118 0.854637
vt 0.794191 0.855683
vt 0.759108 0.989579
vt 0.837549 0.987025
vt 0.740506 0.096989
vt 0.610236 0.179810
vt 0.572940 0.257297
vt 0.597908 0.334492
vt 0.594582 0.369084
vt 0.663706 0.377160
vt 0.574011 0.385040
vt 0.017354 0.698239
vt 0.077571 0.659930
vt 0.033577 0.712756
vt 0.065908 0.640817
vt 0.081021 0.683010
vt 0.049118 0.727721
vt 0.124151 0.041090
vt 0.200940 0.027137
vt 0.117444 0.009102
vt 0.180181 0.056209
vt 0.011554 0.832948
vt 0.034991 0.827342
vt 0.053450 0.820154
vt 0.064435 0.056501
vt 0.026347 0.032755
vt 0.055064 0.903823
vt 0.064933 0.894582
vt 0.079099 0.883106
vt 0.051025 0.114638
vt 0.016346 0.101972
vt 0.038659 0.129045
vt 0.925503 0.032906
vt 0.842451 0.072618
vt 0.512985 0.444113
vt 0.492284 0.459711
vt 0.475747 0.396794
vt 0.496448 0.381196
vt 0.533687 0.428515
vt 0.459209 0.333877
vt 0.776176 0.128462
vt 0.794023 0.113190
vt 0.625416 0.032217
vt 0.709746 0.071464
vt 0.073940 0.395267
vt 0.061035 0.456501
vt 0.037643 0.442369
vt 0.050548 0.381136
vt 0.086845 0.334034
vt 0.014250 0.428238
vt 0.758341 0.112725
vt 0.314099 0.254463
vt 0.355087 0.237392
vt 0.367313 0.312719
vt 0.317303 0.328713
vt 0.273111 0.271535
vt 0.272808 0.344687
vt 0.379539 0.388047
vt 0.326023 0.402942
vt 0.272506 0.417838
vt 0.488452 0.155869
vt 0.533191 0.147537
vt 0.533439 0.288026
vt 0.492907 0.267564
vt 0.443713 0.164201
vt 0.451461 0.249039
vt 0.399400 0.200796
vt 0.410174 0.281663
vt 0.419374 0.360962
vt 0.365347 0.092206
vt 0.403799 0.084931
vt 0.314748 0.129858
vt 0.274408 0.022325
vt 0.219709 0.401470
vt 0.228523 0.327334
vt 0.232299 0.253177
vt 0.166912 0.385102
vt 0.179200 0.309960
vt 0.191488 0.234818
vt 0.094962 0.247359
vt 0.053526 0.267631
vt 0.103079 0.160684
vt 0.058292 0.154110
vt 0.013878 0.287888
vt 0.013506 0.147537
vt 0.126878 0.359568
vt 0.136465 0.278653
vt 0.147283 0.197751
vt 0.273581 0.191382
vt 0.232948 0.128571
vt 0.143957 0.084931
vt 0.182552 0.090792
vt 0.367105 0.456462
vt 0.313805 0.452331
vt 0.272590 0.443412
vt 0.354671 0.524877
vt 0.313673 0.496932
vt 0.272674 0.468987
vt 0.398802 0.428704
vt 0.423478 0.492294
vt 0.231623 0.490320
vt 0.231938 0.449947
vt 0.190573 0.511653
vt 0.178742 0.448377
vt 0.125804 0.484077
vt 0.146958 0.422338
vt 0.314405 0.528232
vt 0.274139 0.531587
vt 0.232356 0.521620
vt 0.273793 0.512119

vn 0.548426 0.786132 -0.285002
vn 0.614308 0.557070 -0.558837
vn 0.229563 0.741535 0.630418
vn 0.532857 0.761424 0.369184
vn 0.642419 0.501802 -0.579217
vn 0.853711 -0.191240 -0.484361
vn 0.868358 0.356065 0.345213
vn 0.862693 0.231838 0.449457
vn 0.835172 -0.460754 0.300322
vn -0.688347 -0.718065 0.102762
vn 0.834164 -0.301667 0.461701
vn 0.852655 -0.341913 -0.395065
vn 0.881181 -0.054708 -0.469603
vn 0.608210 0.077522 -0.789981
vn -0.817121 -0.080549 -0.570811
vn -0.960501 -0.083871 -0.265336
vn -0.204110 -0.437434 0.875780
vn 0.075850 -0.132019 0.988341
vn 0.529612 0.819727 -0.218078
vn -0.752086 -0.121550 -0.647759
vn -0.687458 0.504109 -0.522757
vn -0.190303 -0.563630 0.803807
vn 0.732025 -0.629457 -0.260620
vn -0.646263 -0.163262 -0.745446
vn -0.867517 0.448249 -0.215608
vn 0.864892 -0.487308 0.120386
vn 0.793003 -0.445786 -0.415235
vn -0.946174 0.249605 0.206036
vn -0.518042 0.415632 0.747585
vn -0.687079 0.604902 -0.402512
vn -0.615900 -0.129859 -0.777048
vn 0.641714 -0.682286 -0.350270
vn 0.746683 -0.635544 0.196340
vn 0.527272 0.324214 0.785410
vn -0.235282 0.726730 0.645372
vn 0.189937 0.560179 -0.806302
vn -0.725840 -0.682013 0.089523
vn 0.803021 0.229417 0.550023
vn -0.616631 0.048931 -0.785730
vn -0.723325 0.344455 -0.598457
vn 0.832486 -0.553797 -0.016619
vn 0.777445 -0.569713 0.266469
vn -0.559592 0.557268 0.613441
vn -0.890242 0.420555 -0.174935
vn -0.053636 0.493317 -0.868194
vn -0.239263 0.039529 -0.970150
vn 0.290615 -0.950017 0.114066
vn 0.197974 -0.896740 0.395807
vn -0.046828 0.872249 0.486815
vn 0.027565 0.796599 0.603879
vn 0.440840 -0.095394 -0.892502
vn -0.931968 -0.055307 0.358297
vn 0.857937 0.013251 0.513584
vn -0.500091 0.126662 -0.856660
vn -0.564479 0.225983 0.793911
vn 0.921405 -0.361174 0.143411
vn 0.907893 -0.371007 0.195151
vn -0.423458 0.086895 0.901739
vn -0.720352 0.089412 -0.687822
vn -0.389485 0.770196 -0.505073
vn -0.309992 0.548548 -0.776531
vn 0.691326 -0.362613 -0.624964
vn 0.280104 -0.946567 -0.159853
vn -0.144688 -0.039114 0.988704
vn -0.399217 0.122477 0.908639
vn 0.508916 0.797017 -0.325221
vn -0.233679 -0.578050 -0.781826
vn 0.105309 0.009137 0.994398
vn 0.375248 0.719032 -0.584964
vn 0.954676 0.277294 0.108178
vn 0.791262 -0.173830 0.586249
vn 0.133411 -0.977374 -0.164141
vn -0.007217 -0.999749 -0.021204
vn -0.553579 -0.797787 0.238928
vn 0.039255 -0.917569 0.395633
vn -0.109713 -0.988061 -0.108162
vn -0.469768 -0.809075 -0.353152
vn 0.957732 0.164460 -0.236012
vn -0.986128 -0.114194 -0.120461
vn 0.957602 0.164012 -0.236853
vn 0.956467 0.186403 -0.224555
vn 0.263844 -0.153800 -0.952225
vn -0.249252 -0.932765 -0.260427
vn 0.895250 -0.413818 -0.165175
vn 0.255036 0.963771 -0.078113
vn 0.529567 0.746100 0.403601
vn -0.811845 -0.234758 -0.534598
vn -0.952183 0.096809 -0.289784
vn 0.734042 -0.613719 0.290743
vn 0.727861 -0.620080 0.292779
vn 0.599138 0.648693 -0.469288
vn 0.468361 0.665533 -0.581122
vn -0.992741 -0.109161 -0.050492
vn -0.995716 -0.072875 -0.056907
vn 0.520831 -0.581877 0.624623
vn 0.640234 -0.551432 0.534812
vn 0.121983 0.432185 -0.893497
vn 0.439456 0.310628 -0.842846
vn -0.742945 0.296103 0.600296
vn -0.686060 0.508196 0.520633
vn 0.356859 -0.915795 0.184314
vn 0.326612 -0.900024 0.288585
vn -0.337659 -0.623930 -0.704768
vn -0.552690 0.786426 -0.275806
vn -0.623066 0.556913 -0.549215
vn -0.228983 0.741204 0.631018
vn -0.527031 0.762018 0.376254
vn -0.634257 0.536034 -0.557123
vn -0.865692 -0.238661 -0.440021
vn -0.806360 0.383426 0.450298
vn -0.811850 0.363342 0.457036
vn -0.890816 -0.445292 0.090343
vn 0.653541 -0.736883 0.172881
vn -0.827553 -0.306439 0.470373
vn -0.887225 -0.281379 -0.365591
vn -0.877964 -0.149078 -0.454922
vn -0.070448 0.310572 -0.947936
vn 0.826819 -0.126817 -0.547985
vn 0.911107 -0.118994 -0.394619
vn 0.054493 -0.258444 0.964488
vn -0.058417 -0.130229 0.989762
vn -0.528624 0.819452 -0.221484
vn 0.811522 -0.138646 -0.567635
vn 0.714886 0.545108 -0.437944
vn 0.050545 -0.679830 0.731625
vn -0.736340 -0.628780 -0.249879
vn 0.890997 0.091796 -0.444633
vn 0.862626 0.436907 -0.254930
vn -0.796670 -0.603135 -0.039308
vn -0.691615 -0.583791 -0.425272
vn -0.480294 0.353801 0.802585
vn 0.465278 0.575297 0.672718
vn 0.119529 0.733700 -0.668877
vn 0.483587 0.144599 -0.863270
vn -0.059537 -0.995843 -0.068942
vn -0.081309 -0.925236 0.370576
vn -0.448171 0.512504 0.732449
vn -0.278712 0.793009 0.541717
vn -0.402044 0.292911 -0.867504
vn 0.921467 -0.269753 0.279521
vn -0.914088 -0.052047 0.402162
vn 0.516071 -0.149708 -0.843361
vn 0.876239 0.071936 -0.476478
vn -0.973312 -0.119971 0.195629
vn -0.822377 -0.173367 0.541885
vn 0.662608 0.210747 0.718705
vn 0.365111 -0.147967 -0.919130
vn 0.354707 0.699690 -0.620175
vn 0.197213 0.158485 -0.967465
vn -0.749374 -0.609257 0.259317
vn -0.691387 -0.630267 0.353197
vn 0.131196 0.216261 0.967481
vn 0.493929 0.447698 0.745386
vn -0.723706 0.622798 -0.297276
vn 0.558946 -0.682925 -0.470312
vn -0.101037 0.131585 0.986143
vn 0.199537 0.306109 -0.930851
vn 0.207171 0.312965 -0.926894
vn -0.716999 -0.576670 0.391617
vn -0.800025 -0.540890 0.259612
vn 0.705546 0.254960 0.661211
vn 0.819984 0.285962 -0.495834
vn -0.159155 0.799541 -0.579140
vn -0.151648 0.581417 -0.799348
vn -0.456195 -0.777225 -0.433368
vn 0.247342 -0.964954 -0.087672
vn 0.231742 0.093361 0.968287
vn 0.381677 0.471966 0.794715
vn -0.988403 0.061131 -0.139004
vn 0.462565 -0.303125 -0.833156
vn 0.236527 0.096254 0.966845
vn -0.376148 0.726025 -0.575674
vn -0.952819 0.277838 0.122241
vn -0.769292 -0.087192 0.632920
vn -0.356508 -0.789866 -0.499012
vn -0.033107 -0.990836 -0.130949
vn 0.597875 -0.769419 0.224809
vn -0.202898 -0.547765 0.811656
vn 0.115746 -0.984826 -0.129305
vn 0.445988 -0.822180 -0.353717
vn -0.960724 0.167270 -0.221428
vn 0.024937 -0.141364 0.989644
vn -0.956686 0.153168 -0.247571
vn -0.961484 0.046790 -0.270848
vn -0.278439 -0.153846 -0.948052
vn 0.245190 -0.932638 -0.264706
vn -0.909659 -0.400864 -0.108763
vn -0.256793 0.963535 -0.075214
vn -0.525613 0.741682 0.416701
vn 0.813971 -0.220061 -0.537610
vn 0.948134 0.097272 -0.302621
vn -0.723821 -0.611720 0.319191
vn -0.736808 -0.597972 0.315506
vn -0.601614 0.649588 -0.464860
vn -0.476985 0.665475 -0.574132
vn 0.993246 -0.103152 -0.053127
vn 0.994539 -0.088148 -0.055876
vn -0.511470 -0.581964 0.632232
vn -0.611915 -0.557849 0.560682
vn -0.152798 0.436031 -0.886865
vn -0.453035 0.324231 -0.830442
vn 0.744197 0.167704 0.646564
vn 0.668556 0.521673 0.529990
vn -0.345276 -0.915341 0.207208
vn -0.318851 -0.903010 0.287934
vn 0.262989 -0.671376 -0.692886
vn 0.452705 -0.242521 0.858045
vn 0.915519 0.345719 0.205678
vn 0.831708 0.532453 0.157339
vn 0.407437 -0.751143 -0.519403
vn 0.421474 -0.142249 -0.895615
vn 0.055862 -0.442793 -0.894882
vn 0.442773 -0.153744 -0.883354
vn -0.201082 0.975141 -0.093088
vn -0.439790 -0.245046 0.864024
vn -0.928740 0.345094 0.135471
vn -0.893988 0.439300 0.088325
vn -0.120923 -0.502448 -0.856109
vn -0.186715 -0.353528 -0.916600
vn -0.410101 -0.603450 -0.683860
vn -0.063327 -0.440933 -0.895303
vn 0.195049 0.976528 -0.091373
vn 0.563751 0.822592 0.074338
vn 0.416423 0.908455 0.036079
vn 0.514020 0.851329 -0.104982
vn 0.477996 0.874130 -0.086120
vn 0.209203 -0.972732 -0.100131
vn 0.396597 -0.902668 0.167033
vn 0.008129 -0.953985 -0.299744
vn 0.178532 -0.981308 -0.071844
vn 0.975346 0.099361 0.197046
vn 0.924240 0.247020 0.291140
vn 0.987973 0.080707 -0.131894
vn 0.985386 0.155125 -0.070367
vn 0.546145 -0.223414 0.807349
vn 0.184126 -0.596034 0.781563
vn 0.724422 0.181262 0.665099
vn 0.279864 -0.120555 0.952440
vn -0.486627 0.869892 -0.080517
vn -0.424202 0.904656 0.040613
vn -0.522666 0.846773 -0.098970
vn -0.570752 0.816974 0.082435
vn -0.170723 -0.982842 -0.069820
vn -0.385398 -0.907002 0.169754
vn -0.003216 -0.954034 -0.299680
vn -0.201794 -0.974538 -0.097750
vn -0.987460 0.146456 -0.058935
vn -0.923058 0.238849 0.301522
vn -0.990106 0.072015 -0.120431
vn -0.973715 0.090012 0.209230
vn 0.000513 0.752131 0.659013
vn 0.365838 0.673253 0.642568
vn -0.365304 0.669748 0.646521
vn 0.002354 0.558151 0.829736
vn -0.265704 -0.121756 0.956335
vn -0.169465 -0.597908 0.783446
vn -0.718092 0.176022 0.673320
vn -0.533571 -0.228699 0.814247
vn 0.447393 0.630611 -0.634167
vn 0.463703 0.717203 -0.520192
vn 0.479907 0.633519 -0.606913
vn 0.619376 0.596857 -0.510035
vn 0.652010 -0.024470 -0.757816
vn 0.739421 0.101027 -0.665621
vn 0.688471 -0.201638 -0.696670
vn 0.737561 0.008276 -0.675230
vn -0.630459 0.591364 -0.502803
vn -0.475983 0.713069 -0.514755
vn -0.492531 0.628713 -0.601775
vn -0.460238 0.626620 -0.628911
vn -0.749532 0.016882 -0.661752
vn -0.747943 0.094492 -0.657003
vn -0.672953 -0.057823 -0.737421
vn -0.711808 0.025496 -0.701911
vn -0.007202 0.551083 -0.834419
vn 0.298974 0.583600 -0.755000
vn -0.312169 0.580458 -0.752076
vn -0.007228 0.514619 -0.857388

f 1/1/1 2/2/1 3/3/1
f 1/1/2 3/3/2 4/4/2
f 2/2/3 5/5/3 6/6/3
f 2/2/4 6/6/4 3/3/4
f 4/4/5 3/3/5 7/7/5
f 7/7/6 3/3/6 8/8/6
f 8/8/7 6/6/7 9/9/7
f 8/8/8 3/3/8 6/6/8
f 10/10/9 8/8/9 9/9/9
f 11/11/10 12/12/10 10/10/10
f 9/9/11 13/13/11 11/11/11
f 14/14/12 8/8/12 15/15/12
f 8/8/13 14/14/13 7/7/13
f 16/16/14 15/15/14 8/8/14
f 17/17/15 4/18/15 18/19/15
f 4/18/16 17/17/16 19/20/16
f 20/21/17 19/22/17 17/23/17
f 19/22/18 20/21/18 21/24/18
f 7/25/19 18/19/19 4/18/19
f 17/17/20 18/19/20 22/26/20
f 22/26/21 23/27/21 17/17/21
f 17/23/22 23/28/22 20/21/22
f 20/29/23 23/27/23 22/26/23
f 24/30/24 14/31/24 25/32/24
f 14/31/25 24/30/25 26/33/25
f 27/34/26 26/35/26 24/36/26
f 26/35/27 27/34/27 15/37/27
f 15/38/28 25/32/28 14/31/28
f 27/39/29 25/32/29 15/38/29
f 28/40/30 25/32/30 29/41/30
f 25/32/31 28/40/31 24/30/31
f 30/42/32 24/36/32 28/43/32
f 24/36/33 30/42/33 27/34/33
f 29/41/34 27/39/34 30/44/34
f 27/39/35 29/41/35 25/32/35
f 29/41/36 31/45/36 28/40/36
f 28/43/37 31/46/37 30/42/37
f 30/44/38 31/45/38 29/41/38
f 32/47/39 8/48/39 33/49/39
f 8/48/40 32/47/40 16/50/40
f 34/51/41 16/52/41 32/53/41
f 16/52/42 34/51/42 35/54/42
f 33/49/43 35/55/43 34/56/43
f 35/55/44 33/49/44 8/48/44
f 36/57/45 33/49/45 37/58/45
f 33/49/46 36/57/46 32/47/46
f 38/59/47 32/53/47 36/60/47
f 32/53/48 38/59/48 34/51/48
f 37/58/49 34/56/49 38/61/49
f 34/56/50 37/58/50 33/49/50
f 37/58/51 39/62/51 36/57/51
f 36/60/52 39/63/52 38/59/52
f 38/61/53 39/62/53 37/58/53
f 40/64/54 9/65/54 41/66/54
f 9/65/55 40/64/55 10/67/55
f 42/68/56 10/69/56 40/70/56
f 10/69/57 42/68/57 11/71/57
f 41/66/58 11/72/58 42/73/58
f 11/72/59 41/66/59 9/65/59
f 43/74/60 41/66/60 44/75/60
f 41/66/61 43/74/61 40/64/61
f 45/76/62 40/70/62 43/77/62
f 40/70/63 45/76/63 42/68/63
f 44/75/64 42/73/64 45/78/64
f 42/73/65 44/75/65 41/66/65
f 44/75/66 46/79/66 43/74/66
f 43/77/67 46/80/67 45/76/67
f 45/78/68 46/79/68 44/75/68
f 5/5/69 47/81/69 6/6/69
f 6/6/70 13/13/70 9/9/70
f 8/8/71 10/10/71 35/82/71
f 16/16/72 35/82/72 48/83/72
f 10/10/73 48/83/73 35/82/73
f 12/12/74 48/83/74 10/10/74
f 16/16/75 48/83/75 15/15/75
f 15/15/76 48/83/76 26/84/76
f 48/83/77 49/85/77 26/84/77
f 20/29/78 22/26/78 18/19/78
f 20/86/79 7/87/79 21/88/79
f 20/29/80 18/19/80 7/25/80
f 14/14/81 21/89/81 7/7/81
f 49/90/82 19/91/82 21/92/82
f 19/93/83 49/85/83 48/83/83
f 26/84/84 49/85/84 14/14/84
f 50/94/85 51/95/85 21/96/85
f 21/96/86 14/97/86 50/94/86
f 51/95/87 52/98/87 49/99/87
f 49/99/88 21/96/88 51/95/88
f 52/100/89 50/101/89 14/102/89
f 14/102/90 49/103/90 52/100/90
f 53/104/91 54/105/91 51/95/91
f 51/95/92 50/94/92 53/104/92
f 54/105/93 55/106/93 52/98/93
f 52/98/94 51/95/94 54/105/94
f 55/107/95 53/108/95 50/101/95
f 50/101/96 52/100/96 55/107/96
f 56/109/97 57/110/97 54/105/97
f 54/105/98 53/104/98 56/109/98
f 57/110/99 58/111/99 55/106/99
f 55/106/100 54/105/100 57/110/100
f 58/112/101 56/113/101 53/108/101
f 53/108/102 55/107/102 58/112/102
f 57/114/103 56/113/103 58/112/103
f 1/1/104 59/115/104 2/2/104
f 1/1/105 4/4/105 59/115/105
f 2/2/106 60/116/106 5/5/106
f 2/2/107 59/115/107 60/116/107
f 4/4/108 61/117/108 59/115/108
f 61/117/109 62/118/109 59/115/109
f 62/118/110 63/119/110 60/116/110
f 62/118/111 60/116/111 59/115/111
f 64/120/112 63/119/112 62/118/112
f 65/121/113 64/120/113 12/122/113
f 63/119/114 65/121/114 66/123/114
f 67/124/115 68/125/115 62/118/115
f 62/118/116 61/117/116 67/124/116
f 69/126/117 62/118/117 68/125/117
f 70/127/118 71/128/118 4/129/118
f 4/129/119 19/130/119 70/127/119
f 72/131/120 70/132/120 19/133/120
f 19/133/121 73/134/121 72/131/121
f 61/135/122 4/129/122 71/128/122
f 70/127/123 74/136/123 71/128/123
f 74/136/124 70/127/124 75/137/124
f 70/132/125 72/131/125 75/138/125
f 72/139/126 74/136/126 75/137/126
f 76/140/127 77/141/127 67/142/127
f 67/142/128 78/143/128 76/140/128
f 79/144/129 76/145/129 78/146/129
f 78/146/130 68/147/130 79/144/130
f 68/148/131 67/142/131 77/141/131
f 79/149/132 68/148/132 77/141/132
f 80/150/133 81/151/133 77/141/133
f 77/141/134 76/140/134 80/150/134
f 82/152/135 80/153/135 76/145/135
f 76/145/136 79/144/136 82/152/136
f 81/151/137 82/154/137 79/149/137
f 79/149/138 77/141/138 81/151/138
f 81/151/139 80/150/139 83/155/139
f 80/153/140 82/152/140 83/156/140
f 82/154/141 81/151/141 83/155/141
f 84/157/142 85/158/142 62/159/142
f 62/159/143 69/160/143 84/157/143
f 86/161/144 84/162/144 69/163/144
f 69/163/145 87/164/145 86/161/145
f 85/158/146 86/165/146 87/166/146
f 87/166/147 62/159/147 85/158/147
f 88/167/148 89/168/148 85/158/148
f 85/158/149 84/157/149 88/167/149
f 90/169/150 88/170/150 84/162/150
f 84/162/151 86/161/151 90/169/151
f 89/168/152 90/171/152 86/165/152
f 86/165/153 85/158/153 89/168/153
f 89/168/154 88/167/154 91/172/154
f 88/170/155 90/169/155 91/173/155
f 90/171/156 89/168/156 91/172/156
f 92/174/157 93/175/157 63/176/157
f 63/176/158 64/177/158 92/174/158
f 94/178/159 92/179/159 64/180/159
f 64/180/160 65/181/160 94/178/160
f 93/175/161 94/182/161 65/183/161
f 65/183/162 63/176/162 93/175/162
f 95/184/163 96/185/163 93/175/163
f 93/175/164 92/174/164 95/184/164
f 97/186/165 95/187/165 92/179/165
f 92/179/166 94/178/166 97/186/166
f 96/185/167 97/188/167 94/182/167
f 94/182/168 93/175/168 96/185/168
f 96/185/169 95/184/169 98/189/169
f 95/187/170 97/186/170 98/190/170
f 97/188/171 96/185/171 98/189/171
f 5/5/172 60/116/172 99/191/172
f 60/116/173 63/119/173 66/123/173
f 62/118/174 87/192/174 64/120/174
f 69/126/175 48/193/175 87/192/175
f 64/120/176 87/192/176 48/193/176
f 12/122/177 64/120/177 48/193/177
f 69/126/178 68/125/178 48/193/178
f 68/125/179 78/194/179 48/193/179
f 48/193/180 78/194/180 100/195/180
f 72/139/181 71/128/181 74/136/181
f 72/86/182 73/88/182 61/87/182
f 72/139/183 61/135/183 71/128/183
f 67/124/184 61/117/184 73/196/184
f 100/195/185 73/196/185 19/197/185
f 19/197/186 48/193/186 100/195/186
f 78/194/187 67/124/187 100/195/187
f 101/198/188 73/199/188 102/200/188
f 73/199/189 101/198/189 67/201/189
f 102/200/190 100/202/190 103/203/190
f 100/202/191 102/200/191 73/199/191
f 103/204/192 67/205/192 101/206/192
f 67/205/193 103/204/193 100/207/193
f 104/208/194 102/200/194 105/209/194
f 102/200/195 104/208/195 101/198/195
f 105/209/196 103/203/196 106/210/196
f 103/203/197 105/209/197 102/200/197
f 106/211/198 101/206/198 104/212/198
f 101/206/199 106/211/199 103/204/199
f 107/213/200 105/209/200 108/214/200
f 105/209/201 107/213/201 104/208/201
f 108/214/202 106/210/202 109/215/202
f 106/210/203 108/214/203 105/209/203
f 109/216/204 104/212/204 107/217/204
f 104/212/205 109/216/205 106/211/205
f 108/218/206 109/216/206 107/217/206
f 13/13/207 110/219/207 11/11/207
f 110/219/207 12/12/207 11/11/207
f 47/81/208 111/220/208 6/6/208
f 111/220/209 13/13/209 6/6/209
f 110/221/210 13/222/210 112/223/210
f 112/223/211 113/224/211 110/221/211
f 12/225/212 110/221/212 113/224/212
f 113/224/213 112/223/213 114/226/213
f 115/227/214 116/228/214 5/5/214
f 116/228/214 47/81/214 5/5/214
f 12/122/215 117/229/215 65/121/215
f 117/229/215 66/123/215 65/121/215
f 66/123/216 118/230/216 60/116/216
f 118/230/217 99/191/217 60/116/217
f 119/231/218 66/232/218 117/233/218
f 117/233/219 120/234/219 119/231/219
f 121/235/220 119/231/220 120/234/220
f 120/234/221 117/233/221 12/236/221
f 99/191/222 122/237/222 5/5/222
f 122/237/222 115/227/222 5/5/222
f 123/238/223 124/239/223 125/240/223 126/241/223
f 127/242/224 123/238/224 126/241/224 128/243/224
f 126/241/225 125/240/225 129/244/225 130/245/225
f 128/243/226 126/241/226 130/245/226 131/246/226
f 132/247/227 133/248/227 134/249/227 135/250/227
f 136/251/228 132/247/228 135/250/228 137/252/228
f 135/250/229 134/249/229 12/225/229 113/224/229
f 137/252/230 135/250/230 113/224/230 114/226/230
f 138/253/231 136/251/231 137/252/231 139/254/231
f 124/239/232 138/253/232 139/254/232 125/240/232
f 139/254/233 137/252/233 114/226/233 140/255/233
f 125/240/234 139/254/234 140/255/234 129/244/234
f 132/247/235 136/251/235 138/253/235 141/256/235
f 133/248/236 132/247/236 141/256/236 142/257/236
f 141/256/237 138/253/237 124/239/237 143/258/237
f 142/257/238 141/256/238 143/258/238 144/259/238
f 128/243/239 131/246/239 145/260/239 146/261/239
f 127/242/240 128/243/240 146/261/240 147/262/240
f 146/261/241 145/260/241 148/263/241 149/264/241
f 147/262/242 146/261/242 149/264/242 150/265/242
f 151/266/243 121/235/243 120/234/243 152/267/243
f 153/268/244 151/266/244 152/267/244 154/269/244
f 152/267/245 120/234/245 12/236/245 134/270/245
f 154/269/246 152/267/246 134/270/246 133/271/246
f 149/264/247 148/263/247 155/272/247 156/273/247
f 150/265/248 149/264/248 156/273/248 157/274/248
f 156/273/249 155/272/249 121/235/249 151/266/249
f 157/274/250 156/273/250 151/266/250 153/268/250
f 123/238/251 127/242/251 147/262/251 158/275/251
f 124/239/252 123/238/252 158/275/252 143/258/252
f 158/275/253 147/262/253 150/265/253 159/276/253
f 143/258/254 158/275/254 159/276/254 144/259/254
f 142/277/255 144/259/255 159/276/255 160/278/255
f 133/271/256 142/277/256 160/278/256 154/269/256
f 160/278/257 159/276/257 150/265/257 157/274/257
f 154/269/258 160/278/258 157/274/258 153/268/258
f 130/245/259 129/244/259 161/279/259 162/280/259
f 131/246/260 130/245/260 162/280/260 163/281/260
f 162/280/261 161/279/261 47/282/261 164/283/261
f 163/281/262 162/280/262 164/283/262 165/284/262
f 140/255/263 114/226/263 112/223/263 166/285/263
f 129/244/264 140/255/264 166/285/264 161/279/264
f 166/285/265 112/223/265 13/222/265 111/286/265
f 161/279/266 166/285/266 111/286/266 47/282/266
f 163/281/267 165/284/267 167/287/267 168/288/267
f 131/246/268 163/281/268 168/288/268 145/260/268
f 168/288/269 167/287/269 99/289/269 169/290/269
f 145/260/270 168/288/270 169/290/270 148/263/270
f 169/290/271 99/289/271 118/291/271 170/292/271
f 148/263/272 169/290/272 170/292/272 155/272/272
f 170/292/273 118/291/273 66/232/273 119/231/273
f 155/272/274 170/292/274 119/231/274 121/235/274
f 116/293/275 115/294/275 122/295/275 171/296/275
f 47/282/276 116/293/276 171/296/276 164/283/276
f 171/296/277 122/295/277 99/289/277 167/287/277
f 164/283/278 171/296/278 167/287/278 165/284/278

