mtllib anim_skel_walk_swordshield_000021.mtl

o msked
usemtl shield.001
s off

v -9.799320 29.128511 5.334500
v -10.937530 29.462250 6.166690
v -5.147040 35.145451 25.430328
v -10.826640 28.016680 5.984230
v -9.220611 27.880781 6.258821
v -10.711180 28.926470 5.615770
v -13.482580 31.989349 6.344660
v -10.802410 27.584230 1.028460
v -11.812930 27.480270 1.322820
v -11.852289 26.481770 1.669300
v -6.511870 25.568571 6.718700
v -9.740010 28.031910 5.667880
v -10.841760 26.585720 1.374940
v 14.917530 42.796970 -4.648740
v 15.930571 31.327080 -1.762690
v 4.734870 32.246799 4.226010
v 18.809750 32.224342 2.557160
v 26.259680 30.343380 -9.621590
v 16.734480 -0.810330 3.197680

vt 0.856301 0.265607
vt 0.764624 0.294094
vt 0.850192 0.976825
vt 0.858158 0.265976
vt 0.949099 0.282658
vt 0.742843 0.255302
vt 0.692067 0.254404
vt 0.541488 0.402851
vt 0.893183 0.241135
vt 0.851577 0.242328
vt 0.847036 0.027305
vt 0.893183 0.027305
vt 0.742053 0.256467
vt 0.849952 0.242815
vt 0.544321 0.402080
vt 0.692550 0.250793
vt 0.800888 0.241135
vt 0.800888 0.027305
vt 0.697126 0.324563
vt 0.698569 0.321089
vt 0.345626 0.959903
vt 0.345626 0.724031
vt 0.085605 0.724031
vt 0.605647 0.724031
vt 0.345626 0.075832

vn 0.060511 0.952290 -0.299136
vn -0.942017 -0.112179 0.316258
vn 0.932857 0.223182 -0.282784
vn -0.141901 -0.915286 0.376981
vn -0.287955 -0.032789 -0.957082
vn -0.285544 0.921316 -0.263896
vn -0.176848 0.945574 -0.273155
vn -0.509756 -0.266586 -0.817974
vn -0.970962 0.111678 0.211568
vn -0.968376 0.188903 0.162982
vn -0.236323 -0.310205 -0.920828
vn 0.093068 -0.284995 -0.954000
vn 0.974971 -0.014712 -0.221843
vn 0.970962 -0.111674 -0.211569
vn -0.214248 -0.607164 -0.765147
vn 0.176840 -0.945575 0.273157
vn 0.103876 -0.944609 0.311326
vn -0.059360 -0.129486 0.989803
vn -0.168653 -0.001534 0.985674
vn 0.591084 0.553994 0.586268
vn 0.458650 0.656429 0.598950
vn -0.472338 -0.254085 -0.844001
vn 0.096451 0.584568 0.805591
vn 0.754522 0.535932 0.378780
vn -0.601778 -0.244464 -0.760329
vn -0.475917 -0.145775 -0.867325
vn 0.117755 0.011855 0.992972
vn 0.849277 -0.043150 0.526180
vn -0.608058 -0.135937 -0.782167

f 1/1/1 2/2/1 3/3/1
f 3/3/2 2/2/2 4/4/2
f 1/1/3 3/3/3 5/5/3
f 3/3/4 4/4/4 5/5/4
f 1/6/5 6/7/5 7/8/5
f 6/9/6 1/10/6 8/11/6
f 8/11/7 9/12/7 6/9/7
f 7/8/8 6/7/8 4/13/8
f 6/9/9 9/12/9 10/11/9
f 10/11/10 4/14/10 6/9/10
f 9/12/11 8/11/11 10/11/11
f 1/6/12 11/15/12 12/16/12
f 8/11/13 1/10/13 12/17/13
f 8/11/14 12/17/14 13/18/14
f 11/15/15 4/13/15 12/16/15
f 12/17/16 10/11/16 13/18/16
f 10/11/17 12/17/17 4/14/17
f 13/18/11 10/11/11 8/11/11
f 4/13/18 2/19/18 7/8/18
f 11/15/19 5/20/19 4/13/19
f 2/19/20 1/6/20 7/8/20
f 1/6/21 5/20/21 11/15/21
f 14/21/22 15/22/22 16/23/22
f 14/21/23 16/23/23 17/22/23
f 14/21/24 17/22/24 18/24/24
f 14/21/25 18/24/25 15/22/25
f 19/25/26 16/23/26 15/22/26
f 19/25/27 17/22/27 16/23/27
f 19/25/28 18/24/28 17/22/28
f 19/25/29 15/22/29 18/24/29

