mtllib anim_barb_idle_axe_000078.mtl

o fat
usemtl axe.001
s off

v 20.425798 79.311081 10.928670
v 17.299360 72.842186 12.342750
v 24.570061 78.167404 18.316130
v 22.383560 75.716995 17.687950
v 25.299950 77.081787 20.010340
v 23.113470 74.631378 19.382170
v 26.502892 70.272400 25.034540
v 21.102640 67.185425 21.170771
v 24.689140 84.089012 12.153530
v 30.766220 75.050331 26.259388
v 30.089369 87.175987 16.017290
v 26.756561 80.617821 18.944309
v 27.486460 79.532196 20.638521
v 33.892662 81.519226 24.845322
v 23.705570 74.829208 16.549540
v 25.892059 77.279617 17.177719
v 24.435461 73.743607 18.243759
v 26.621960 76.194008 18.871929
v 28.078548 79.730019 17.805889
v 28.808460 78.644417 19.500111
v 0.564950 51.264820 11.419510
v 1.294850 50.179211 13.113720
v 2.616860 49.291428 11.975300
v 1.886960 50.377041 10.281090
v 32.386909 84.791290 20.545052
v -21.454229 24.684269 6.577940
v -20.190289 23.896160 5.367840
v -20.862131 24.882099 3.745310
v -22.184132 25.769880 4.883720

vt 0.033358 0.643728
vt 0.190411 0.923560
vt 0.402692 0.503812
vt 0.402692 0.647326
vt 0.408249 0.287497
vt 0.408249 0.367848
vt 0.492649 0.287497
vt 0.492649 0.367848
vt 0.403043 0.503812
vt 0.403044 0.647326
vt 0.033710 0.643728
vt 0.190763 0.923560
vt 0.033358 0.363896
vt 0.033710 0.363896
vt 0.190411 0.084064
vt 0.402692 0.360297
vt 0.408249 0.207147
vt 0.492649 0.207147
vt 0.403043 0.360297
vt 0.190763 0.084064
vt 0.408248 1.036942
vt 0.492649 1.036942
vt 0.483600 0.371280
vt 0.402049 0.371280
vt 0.402049 1.040375
vt 0.483600 1.040375
vt 0.450449 0.037941
vt 0.483600 0.210579
vt 0.402049 0.210579
vt 0.442825 0.041374
vt 0.000000 1.000000

vn -0.739951 0.464065 0.486946
vn -0.732338 0.550840 0.400320
vn -0.675351 0.453529 0.581560
vn -0.627910 0.387207 0.675129
vn -0.667918 0.339468 0.662304
vn -0.712389 0.512859 0.479038
vn -0.669556 0.558705 0.489432
vn -0.587591 0.335554 0.736302
vn -0.601811 0.436984 0.668483
vn 0.587591 -0.335549 -0.736305
vn 0.601811 -0.436985 -0.668482
vn 0.675350 -0.453530 -0.581560
vn 0.669556 -0.558704 -0.489433
vn 0.712387 -0.512860 -0.479039
vn 0.627909 -0.387208 -0.675129
vn 0.667919 -0.339467 -0.662304
vn 0.739951 -0.464064 -0.486946
vn 0.732338 -0.550840 -0.400320
vn -0.095755 -0.835811 0.540602
vn -0.654411 -0.004902 -0.756123
vn 0.095756 0.835811 -0.540602
vn 0.654414 0.004900 0.756121
vn -0.340998 0.507180 -0.791511
vn 0.341000 -0.507181 0.791509
vn -0.578884 0.550106 0.601894
vn 0.758952 -0.348306 -0.550159
vn 0.435393 -0.391292 0.810755
vn -0.238858 0.611548 -0.754291
vn 0.361767 -0.523141 0.771653
vn 0.678410 -0.459186 -0.573505
vn -0.650231 -0.738259 -0.179368
vn -0.646266 -0.737930 -0.194424

f 1/1/1 2/2/1 3/3/1
f 4/4/2 3/3/2 2/2/2
f 3/5/3 4/6/3 5/7/3
f 6/8/3 5/7/3 4/6/3
f 5/9/4 6/10/4 7/11/4
f 8/12/5 7/11/5 6/10/5
f 9/13/6 1/1/6 3/3/6
f 7/11/4 10/14/4 5/9/4
f 11/15/7 9/13/7 12/16/7
f 3/3/6 12/16/6 9/13/6
f 12/17/3 3/5/3 13/18/3
f 5/7/3 13/18/3 3/5/3
f 13/19/8 5/9/8 14/20/8
f 10/14/9 14/20/9 5/9/9
f 15/4/10 2/2/10 16/3/10
f 1/1/11 16/3/11 2/2/11
f 17/8/12 15/6/12 18/7/12
f 16/5/12 18/7/12 15/6/12
f 8/12/13 17/10/13 7/11/13
f 18/9/14 7/11/14 17/10/14
f 16/3/15 1/1/15 9/13/15
f 7/11/14 18/9/14 10/14/14
f 16/3/15 9/13/15 19/16/15
f 11/15/16 19/16/16 9/13/16
f 18/7/12 16/5/12 20/18/12
f 19/17/12 20/18/12 16/5/12
f 10/14/17 18/9/17 14/20/17
f 20/19/18 14/20/18 18/9/18
f 4/4/19 2/2/19 15/4/19
f 17/10/20 8/12/20 6/10/20
f 13/19/21 14/20/21 20/19/21
f 19/16/22 11/15/22 12/16/22
f 6/8/3 4/6/3 21/21/3
f 21/21/3 22/22/3 6/8/3
f 15/6/12 17/8/12 23/22/12
f 23/22/12 24/21/12 15/6/12
f 4/23/23 15/24/23 24/25/23
f 24/25/23 21/26/23 4/23/23
f 17/24/24 6/23/24 22/26/24
f 22/26/24 23/25/24 17/24/24
f 12/17/25 13/18/25 25/27/25
f 20/18/26 19/17/26 25/27/26
f 13/28/27 20/29/27 25/30/27
f 19/29/28 12/28/28 25/30/28
f 23/22/29 22/21/29 26/22/29 27/31/29
f 21/21/23 24/22/23 28/21/23 29/31/23
f 24/21/30 23/22/30 27/21/30 28/31/30
f 22/22/3 21/21/3 29/22/3 26/31/3
f 28/21/31 27/22/31 29/21/31
f 26/22/32 29/21/32 27/22/32

