mtllib anim_barb_attack_axeonly_000027.mtl

o fat
usemtl axe.001
s off

v 6.056370 75.384712 -37.757660
v 5.332450 76.776588 -30.605080
v 6.121570 83.877441 -38.720329
v 5.630000 82.957924 -35.543430
v 6.272170 85.922104 -38.105240
v 5.780600 85.002594 -34.928329
v 7.310210 92.408371 -32.636391
v 6.117150 87.430687 -27.399990
v 7.014870 77.177620 -43.952148
v 8.268701 94.201279 -38.830879
v 8.207930 82.155304 -49.188553
v 6.613140 84.796951 -41.897247
v 6.763740 86.841614 -41.282127
v 8.992620 92.809402 -45.983463
v 7.561330 82.744377 -35.306400
v 8.052900 83.663879 -38.483299
v 7.711930 84.789040 -34.691311
v 8.203500 85.708549 -37.868198
v 8.544480 84.583389 -41.660210
v 8.695070 86.628052 -41.045120
v 0.724690 73.782318 -3.841710
v 0.875290 75.826981 -3.226600
v 2.806630 75.613434 -2.989570
v 0.920100 73.987198 -4.035340
v 8.689281 87.648842 -48.161232
v -4.208390 66.269257 29.832729
v -2.369620 66.035934 29.900911
v -2.426780 64.011879 29.453758
v -4.358470 64.224274 29.218609

vt 0.033358 0.643728
vt 0.190411 0.923560
vt 0.402692 0.503812
vt 0.402692 0.647326
vt 0.408249 0.287497
vt 0.408249 0.367848
vt 0.492649 0.287497
vt 0.492649 0.367848
vt 0.403043 0.503812
vt 0.403044 0.647326
vt 0.033710 0.643728
vt 0.190763 0.923560
vt 0.033358 0.363896
vt 0.033710 0.363896
vt 0.190411 0.084064
vt 0.402692 0.360297
vt 0.408249 0.207147
vt 0.492649 0.207147
vt 0.403043 0.360297
vt 0.190763 0.084064
vt 0.408248 1.036942
vt 0.492649 1.036942
vt 0.483600 0.371280
vt 0.402049 0.371280
vt 0.402049 1.040375
vt 0.483600 1.040375
vt 0.450449 0.037941
vt 0.483600 0.210579
vt 0.402049 0.210579
vt 0.442825 0.041374
vt 0.000000 1.000000

vn -0.994982 -0.003695 -0.099985
vn -0.979083 -0.096130 -0.179320
vn -0.986629 0.109095 -0.121087
vn -0.970315 0.226581 -0.084559
vn -0.977567 0.209274 -0.023795
vn -0.987745 -0.010072 -0.155752
vn -0.976367 0.006779 -0.216011
vn -0.949218 0.309349 -0.057339
vn -0.965215 0.220441 -0.140588
vn 0.949218 -0.309349 0.057339
vn 0.965215 -0.220441 0.140589
vn 0.986628 -0.109094 0.121090
vn 0.976368 -0.006780 0.216010
vn 0.987745 0.010071 0.155753
vn 0.970315 -0.226581 0.084559
vn 0.977567 -0.209274 0.023795
vn 0.994982 0.003695 0.099985
vn 0.979084 0.096127 0.179316
vn -0.026699 0.624739 0.780377
vn -0.141959 -0.940214 0.309590
vn 0.026689 -0.624738 -0.780378
vn 0.141965 0.940213 -0.309589
vn 0.671706 -0.738046 -0.064029
vn -0.071034 -0.956502 -0.282946
vn 0.664653 -0.738859 -0.111008
vn 0.070358 0.955233 0.287365
vn -0.956991 0.145922 -0.250750
vn 0.997474 -0.070192 -0.010880
vn 0.091651 0.985712 0.141323
vn -0.047467 -0.903061 -0.426881
vn 0.089424 0.952734 0.290346
vn 0.002101 -0.959591 -0.281390
vn 0.886232 -0.462695 -0.022500
vn -0.986768 0.108708 -0.120301
vn -0.140846 -0.209771 0.967553
vn -0.071267 -0.282082 0.956740

f 1/1/1 2/2/1 3/3/1
f 4/4/2 3/3/2 2/2/2
f 3/5/3 4/6/3 5/7/3
f 6/8/3 5/7/3 4/6/3
f 5/9/4 6/10/4 7/11/4
f 8/12/5 7/11/5 6/10/5
f 9/13/6 1/1/6 3/3/6
f 7/11/4 10/14/4 5/9/4
f 11/15/7 9/13/7 12/16/7
f 3/3/6 12/16/6 9/13/6
f 12/17/3 3/5/3 13/18/3
f 5/7/3 13/18/3 3/5/3
f 13/19/8 5/9/8 14/20/8
f 10/14/9 14/20/9 5/9/9
f 15/4/10 2/2/10 16/3/10
f 1/1/11 16/3/11 2/2/11
f 17/8/12 15/6/12 18/7/12
f 16/5/12 18/7/12 15/6/12
f 8/12/13 17/10/13 7/11/13
f 18/9/14 7/11/14 17/10/14
f 16/3/15 1/1/15 9/13/15
f 7/11/14 18/9/14 10/14/14
f 16/3/15 9/13/15 19/16/15
f 11/15/16 19/16/16 9/13/16
f 18/7/12 16/5/12 20/18/12
f 19/17/12 20/18/12 16/5/12
f 10/14/17 18/9/17 14/20/17
f 20/19/18 14/20/18 18/9/18
f 4/4/19 2/2/19 15/4/19
f 17/10/20 8/12/20 6/10/20
f 13/19/21 14/20/21 20/19/21
f 19/16/22 11/15/22 12/16/22
f 6/8/3 4/6/3 21/21/3
f 21/21/3 22/22/3 6/8/3
f 15/6/12 17/8/12 23/22/12
f 23/22/23 24/21/23 15/6/23
f 4/23/24 15/24/24 24/25/24
f 24/25/25 21/26/25 4/23/25
f 17/24/26 6/23/26 22/26/26
f 22/26/26 23/25/26 17/24/26
f 12/17/27 13/18/27 25/27/27
f 20/18/28 19/17/28 25/27/28
f 13/28/29 20/29/29 25/30/29
f 19/29/30 12/28/30 25/30/30
f 23/22/31 22/21/31 26/22/31 27/31/31
f 21/21/32 24/22/32 28/21/32 29/31/32
f 24/21/33 23/22/33 27/21/33 28/31/33
f 22/22/34 21/21/34 29/22/34 26/31/34
f 28/21/35 27/22/35 29/21/35
f 26/22/36 29/21/36 27/22/36

