mtllib anim_barb_run2_000025.mtl

o fat
usemtl fat.001
s off

v -0.173360 32.369511 -2.360200
v 1.860240 37.156109 7.026690
v 0.436770 33.067520 2.439640
v 0.410170 54.493908 -7.893790
v 9.832590 60.178688 -6.248280
v 2.812830 50.726051 -6.579310
v -0.362600 46.506748 -4.471650
v 9.862070 56.382370 -2.266090
v 7.742940 52.471962 -0.581510
v 6.919220 46.700302 -0.370370
v 4.142630 46.393097 -4.490710
v 6.535110 51.529331 -5.671160
v 9.061010 37.333561 4.871270
v 9.683300 33.458519 -0.764330
v 10.769110 32.648281 -0.756780
v 6.672680 36.150211 4.388060
v 3.993900 35.907063 8.004780
v 4.557730 27.805618 -1.661340
v 4.051440 31.309162 -3.620970
v 0.740560 32.115417 -3.072040
v -0.398910 28.969559 -2.069040
v 0.201120 60.153023 -7.764780
v 0.170300 62.143780 -7.859350
v 0.020510 53.848900 6.342170
v 4.989570 53.882900 6.089850
v 5.847640 58.116550 7.713099
v 7.626600 58.915482 1.641580
v 5.646860 60.882778 6.418780
v 11.123300 60.986511 1.835950
v 4.497020 46.908642 4.528140
v 1.102870 46.674198 5.792500
v 0.166440 59.453758 7.647500
v 5.218060 64.986641 -4.653650
v 11.724120 61.453590 -5.100730
v 12.036591 62.298470 -1.371580
v 2.572340 65.319427 3.794090
v 5.575480 66.321770 -0.439880
v -0.217320 64.514572 4.283830
v 2.663080 70.729874 0.503100
v 3.443510 68.269264 -2.502500
v 0.403720 68.383240 -3.551390
v 0.177120 71.348198 -0.758800
v 0.475420 66.241791 -6.070420
v 0.489180 42.358322 6.237810
v 5.364230 42.335983 5.637480
v 8.418850 41.836449 0.472170
v 4.993240 41.094391 -4.695600
v -0.188040 40.988613 -5.399670
v 11.903210 60.438480 1.534190
v 11.131969 58.251472 -5.927270
v 13.126650 61.319099 -0.978870
v 12.926260 60.623878 -4.188020
v 10.516029 57.782822 2.430480
v 2.581520 70.327942 6.005080
v 1.180830 68.863167 7.782710
v 2.560530 65.942078 4.870850
v 1.639600 64.929596 6.791710
v 0.698310 67.493546 7.766410
v 1.643460 70.826736 7.527250
v -0.144470 70.704597 7.796679
v 3.177320 71.584465 3.258660
v 0.535690 74.705162 7.802100
v -0.763210 74.663498 8.073080
v 1.701340 72.115303 8.114380
v 2.256590 73.945930 7.041110
v 1.223440 75.968765 5.056910
v -0.414440 75.958336 4.862080
v 0.269850 68.884621 8.306370
v -0.765430 71.458496 8.061980
v -0.900690 69.468124 9.292700
v -0.835060 68.866356 8.680059
v -0.843340 67.285042 8.741070
v 0.535200 64.511803 8.390950
v -0.861440 64.500305 8.880970
v 3.025130 73.922264 3.219640
v 2.543030 75.147072 2.622370
v -0.045170 75.361420 1.442960
v 14.102070 59.822212 1.236430
v 14.609539 60.103191 -2.386640
v 9.776840 49.397850 -3.617490
v 11.488550 52.093109 -0.900260
v 12.811199 57.090870 -5.369330
v 10.532490 47.302589 -0.517700
v 11.679450 44.318253 4.236440
v 9.209701 47.161388 3.670320
v 12.904261 45.433697 0.187730
v 14.985439 47.268902 0.305870
v 13.952971 45.970192 4.986010
v 14.548650 48.667522 1.272510
v 13.745500 48.995392 5.090470
v 12.050760 48.814468 1.835270
v 11.277270 50.277180 4.438120
v 13.180050 46.358780 -2.023940
v 13.137760 45.880760 -1.045410
v 16.192101 50.015949 -2.737030
v 15.476030 51.911369 -0.942090
v 12.199679 49.650723 0.607390
v 13.184680 47.306450 -4.259700
v 9.425740 45.203026 11.012059
v 8.406340 46.784050 10.778019
v 10.855289 45.668091 11.429481
v 10.953790 47.555500 11.459331
v 9.620541 48.476082 11.109390
v 8.179310 50.828537 15.530080
v 7.694580 50.048607 15.607370
v 8.414030 49.206890 14.901570
v 9.306310 49.410610 14.591050
v 9.817500 48.402592 15.855260
v 7.884110 50.213753 13.150140
v 8.804670 50.204208 14.200820
v 7.185720 51.012539 15.094780
v 7.484760 50.959148 16.821270
v 6.760440 51.029530 16.395859
v 8.789940 48.497070 17.836639
v 7.699650 44.160126 14.710380
v 7.164660 44.096523 16.606701
v 6.567010 44.582054 19.427340
v 7.956400 49.041847 17.015491
v 8.160920 44.291702 16.892990
v 8.991860 44.249939 15.127650
v 7.117200 48.782383 20.079729
v 3.308530 26.117210 12.571239
v 4.282160 30.909809 5.974580
v 2.450390 24.523758 9.700720
v 9.096900 26.301170 11.383680
v 9.488899 26.265409 7.091550
v 5.635520 26.686470 11.072910
v 6.909100 25.158810 12.508220
v 6.509360 23.317379 10.369379
v 7.131800 25.731871 12.876240
v 7.678680 26.462830 12.879259
v 10.378150 27.328470 8.858789
v 7.381110 33.823029 8.125200
v 5.032510 26.981350 -5.084160
v 5.319090 26.736460 -8.088140
v 2.344040 28.813990 -6.961070
v 3.749530 23.967869 -6.114480
v 1.556730 26.152670 -4.399440
v 0.448750 25.649271 -7.346610
v 0.086630 28.051641 -11.516140
v 3.109830 28.726421 -11.955100
v 1.451770 19.794710 -10.040970
v 7.466460 21.138340 -10.778500
v 5.336250 17.564819 -7.452530
v 7.452770 17.090740 -9.622650
v 3.735490 15.586810 -8.855530
v -8.465190 59.215923 -6.838540
v -1.868530 50.694260 -6.758210
v -9.486480 56.526608 -2.506540
v -7.268310 52.371376 -1.083040
v -4.956670 46.534912 -2.878050
v -6.374790 46.557430 1.839650
v -5.683030 51.446499 -6.111420
v -9.352170 33.838161 0.944480
v -7.296500 34.993580 7.519800
v -10.502090 33.081329 0.911580
v -4.979820 35.817410 6.334670
v -5.387520 30.194710 -4.016170
v -4.760860 32.336140 -3.856230
v -1.280190 32.194008 -3.461230
v -4.925720 53.816437 5.803780
v -5.544910 58.040520 7.650180
v -10.590370 58.139683 2.572380
v -5.299910 60.807892 6.410640
v -10.821990 62.941151 0.705360
v -2.454760 46.560020 5.885590
v -10.440511 60.599487 -5.970720
v -4.560100 64.943016 -5.098780
v -11.488080 62.846123 -2.261620
v -2.866640 65.290009 3.367090
v -5.259109 66.316872 -0.943480
v -2.505460 70.729042 0.011250
v -2.713530 68.258011 -3.074330
v -3.837170 41.956310 6.503090
v -7.974770 41.621861 1.897630
v -5.576800 41.138840 -3.700200
v -12.195030 61.637390 0.474350
v -9.941700 57.326069 -5.847590
v -12.680891 61.831589 -2.039170
v -11.806770 59.959431 -4.642780
v -10.445390 59.140320 1.630870
v -2.612380 68.867203 7.372330
v -3.597380 70.334518 5.336590
v -3.506090 65.948540 4.094360
v -2.856860 64.934402 6.305240
v -2.140420 67.496574 7.459290
v -1.316860 70.705849 7.669860
v -3.005530 70.831688 7.024260
v -3.589360 71.591675 2.526570
v -1.974020 74.707832 7.530560
v -3.184930 72.120506 7.585740
v -3.493930 73.952057 6.418950
v -2.056070 75.972252 4.702120
v -1.834430 68.886864 8.078700
v -2.120930 64.514633 8.103570
v -3.427430 73.929123 2.521570
v -2.826160 75.152779 2.041470
v -13.914080 60.572948 0.254330
v -13.804179 59.753021 -3.043690
v -10.401740 56.610943 4.835020
v -9.971640 53.567429 2.061700
v -11.295420 56.263298 -4.641720
v -10.995010 45.385460 7.300640
v -9.961760 50.246300 4.722160
v -7.875190 46.966690 5.795150
v -12.202760 48.167839 5.632890
v -13.307281 50.653118 6.680340
v -11.033510 46.946968 9.753779
v -12.098930 51.786217 7.689670
v -8.920099 49.047470 10.326739
v -6.838490 49.527962 8.429420
v -9.772130 51.320499 7.470010
v -13.142700 50.148804 3.975170
v -12.784180 49.280098 4.701230
v -15.272141 54.102051 3.652790
v -13.861400 56.381378 5.339540
v -10.520101 53.277962 5.893690
v -13.464251 51.263351 1.795390
v -6.034240 41.342960 10.577721
v -4.491620 42.273560 9.996290
v -6.412190 41.954159 11.964540
v -5.172800 43.369324 12.422160
v -3.958380 43.737320 11.413799
v 0.240550 41.496857 13.385611
v 0.441570 42.283520 13.820790
v -1.063120 41.574768 13.260850
v -1.597570 42.240608 13.717270
v -2.019980 40.965508 14.757650
v -0.936640 42.849640 13.241710
v -0.840570 43.121712 11.874960
v 0.964610 42.298908 12.852640
v 1.511830 41.360512 14.231640
v 1.804290 41.387703 13.441581
v -0.472060 39.487968 15.395401
v -2.998240 36.438461 12.594540
v -4.106740 37.792679 11.695959
v -1.071940 34.908840 14.182650
v 0.029490 40.046730 14.345540
v -3.335480 36.785172 13.531839
v -4.634120 38.098671 12.912550
v 1.704760 37.751110 15.789560
v -5.320420 15.561880 0.967120
v -2.799160 22.261751 7.459050
v -2.728530 14.445410 5.861610
v -10.139370 14.613280 4.639840
v -8.716340 22.055199 6.213280
v -5.311530 22.710979 3.698010
v -6.538940 19.766560 9.505760
v -6.587480 13.917190 8.952840
v -6.567580 21.669640 10.098869
v -6.323950 24.254761 9.550150
v -10.079729 25.504650 5.509570
v -5.890610 30.236832 8.348721
v -8.025681 1.284890 0.238370
v -7.325270 4.202010 0.488400
v -5.046200 2.280050 -1.858870
v -6.063920 2.679120 3.051520
v -3.074730 1.296810 1.051820
v -3.745170 4.265440 1.112690
v -3.342870 -2.487840 -1.770010
v -6.427790 -2.495180 -2.273970
v -4.057500 -1.845950 6.549310
v -10.207210 -1.545700 5.644670
v -7.593930 1.784890 9.221340
v -9.939210 -0.109810 9.790160
v -6.102420 0.204010 11.149970

vt 0.550479 0.485338
vt 0.414517 0.485338
vt 0.489174 0.497239
vt 0.490853 0.675485
vt 0.356970 0.710738
vt 0.458986 0.602657
vt 0.458693 0.603155
vt 0.491001 0.506534
vt 0.357039 0.710738
vt 0.272881 0.708251
vt 0.307767 0.663467
vt 0.329118 0.504113
vt 0.420682 0.504388
vt 0.307693 0.663467
vt 0.420389 0.504181
vt 0.390374 0.619683
vt 0.389206 0.622726
vt 0.390855 0.620128
vt 0.309151 0.663075
vt 0.578845 0.971377
vt 0.529882 0.993867
vt 0.501054 0.950636
vt 0.597833 0.993868
vt 0.684209 0.993870
vt 0.691613 0.940228
vt 0.584242 0.936155
vt 0.602549 0.993867
vt 0.689094 0.993870
vt 0.694409 0.971380
vt 0.730001 0.975635
vt 0.490853 0.781888
vt 0.490853 0.820915
vt 0.240556 0.660920
vt 0.133663 0.660928
vt 0.131880 0.753091
vt 0.060606 0.782384
vt 0.055577 0.663688
vt 0.136145 0.808744
vt 0.060014 0.783494
vt 0.058190 0.859642
vt 0.160773 0.512959
vt 0.067037 0.515196
vt 0.240700 0.512959
vt 0.131877 0.752996
vt 0.240556 0.781375
vt 0.390182 0.870896
vt 0.298691 0.847983
vt 0.294173 0.886121
vt 0.181129 0.899551
vt 0.052544 0.886601
vt 0.145152 0.921474
vt 0.235241 0.891030
vt 0.142740 0.921054
vt 0.172936 0.966074
vt 0.456563 0.999059
vt 0.389917 0.922986
vt 0.429989 0.941889
vt 0.491140 0.942697
vt 0.490646 0.999330
vt 0.490853 0.898039
vt 0.701416 0.118225
vt 0.813217 0.120956
vt 0.790107 0.184348
vt 0.877923 0.002315
vt 0.872775 0.120438
vt 0.505869 0.118716
vt 0.564263 0.119120
vt 0.507564 0.183764
vt 0.697589 0.180917
vt 0.580429 0.182675
vt 0.710756 0.001536
vt 0.701372 0.182427
vt 0.812168 0.002315
vt 0.857243 0.184348
vt 0.697567 0.116528
vt 0.503935 0.000692
vt 0.561277 0.000692
vt 0.688827 -0.000098
vt 0.002866 0.854679
vt 0.027518 0.706813
vt 0.061197 0.782654
vt 0.055608 0.663958
vt 0.251604 0.781884
vt 0.357109 0.710738
vt 0.243886 0.876138
vt 0.247300 0.848527
vt -0.000514 0.880403
vt 0.006948 0.782948
vt 0.674684 0.829607
vt 0.705811 0.784366
vt 0.654033 0.662928
vt 0.703232 0.671848
vt 0.720473 0.730776
vt 0.697736 0.853617
vt 0.729837 0.853035
vt 0.623758 0.856571
vt 0.587609 0.811448
vt 0.658187 0.605708
vt 0.748523 0.593788
vt 0.716351 0.931575
vt 0.747491 0.935506
vt 0.695349 0.885675
vt 0.676247 0.904603
vt 0.649719 0.961956
vt 0.745560 1.001324
vt 0.725611 0.781438
vt 0.747491 0.878462
vt 0.747491 0.808438
vt 0.720379 0.731031
vt 0.747491 0.790807
vt 0.720762 0.730332
vt 0.748639 0.732530
vt 0.746944 0.628012
vt 0.703659 0.671442
vt 0.731857 0.666086
vt 0.747085 0.666819
vt 0.703186 0.671176
vt 0.611291 0.885598
vt 0.604148 0.909350
vt 0.550618 0.823662
vt 0.550618 0.934468
vt 0.625864 0.557513
vt 0.571978 0.557920
vt 0.578607 0.510287
vt 0.669444 0.510287
vt 0.756032 0.560223
vt 0.679695 0.557918
vt 0.877240 0.461159
vt 0.992418 0.461159
vt 0.944262 0.560223
vt 0.756457 0.510287
vt 0.806202 0.560223
vt 0.498275 0.560223
vt 0.875566 0.382888
vt 0.758260 0.308662
vt 0.875912 0.308662
vt 0.759996 0.360654
vt 0.669163 0.382888
vt 0.671223 0.308662
vt 0.584325 0.382888
vt 0.577057 0.308662
vt 0.498223 0.363687
vt 0.498247 0.308662
vt 0.992597 0.308662
vt 0.992439 0.363687
vt 0.759483 0.410364
vt 0.758924 0.382888
vt 0.665903 0.461159
vt 0.580075 0.461159
vt 0.498223 0.402657
vt 0.992438 0.402657
vt 0.760539 0.449273
vt 0.498220 0.461159
vt 0.875438 0.575163
vt 0.762705 0.196431
vt 0.858161 0.196355
vt 0.690657 0.196417
vt 0.588027 0.196417
vt 0.498144 0.196431
vt 0.991918 0.196431
vt 0.375723 0.009258
vt 0.380090 0.017573
vt 0.356438 0.030356
vt 0.342839 0.029458
vt 0.369327 0.043627
vt 0.316032 0.012201
vt 0.336848 0.019568
vt 0.249292 0.041099
vt 0.371147 0.002582
vt 0.416197 0.004791
vt 0.408124 0.000758
vt 0.128136 0.016613
vt 0.154876 0.002573
vt 0.119423 0.002194
vt 0.160447 0.001473
vt 0.065726 0.014292
vt 0.105093 0.028910
vt 0.000825 0.069213
vt 0.000703 0.039244
vt 0.249314 0.055441
vt 0.429228 0.045736
vt 0.102506 0.115410
vt 0.153549 0.117195
vt 0.189513 0.114692
vt 0.228429 0.109580
vt 0.194639 0.033982
vt 0.406548 0.108121
vt 0.355355 0.108206
vt 0.448349 0.035630
vt 0.498209 0.039288
vt 0.461840 0.047992
vt 0.483032 0.114221
vt 0.406174 0.120334
vt 0.355217 0.119080
vt 0.243215 0.037501
vt 0.249314 0.089732
vt 0.000703 0.095058
vt 0.249292 0.105039
vt 0.160984 0.032072
vt 0.413806 0.033644
vt 0.442212 0.108407
vt 0.443088 0.117732
vt 0.023914 0.327327
vt 0.104127 0.227894
vt 0.000784 0.227894
vt 0.216171 0.327327
vt 0.216985 0.228421
vt 0.105699 0.228145
vt 0.104981 0.327662
vt 0.217575 0.327327
vt 0.351490 0.301452
vt 0.217290 0.227894
vt 0.351571 0.227894
vt 0.352420 0.301452
vt 0.489174 0.227894
vt 0.352342 0.227894
vt 0.471690 0.333380
vt 0.351597 0.328057
vt 0.217345 0.328075
vt 0.352312 0.363299
vt 0.470864 0.334174
vt 0.352330 0.328057
vt 0.216660 0.380224
vt 0.216104 0.328075
vt 0.104983 0.328371
vt 0.217232 0.380224
vt 0.351611 0.363299
vt 0.351459 0.420971
vt 0.352499 0.420971
vt 0.351589 0.497239
vt 0.229465 0.497239
vt 0.352627 0.497239
vt 0.229583 0.497239
vt 0.133020 0.497239
vt 0.072972 0.497239
vt 0.025422 0.328212
vt 0.002386 0.497239
vt 0.216130 0.152222
vt 0.223982 0.125749
vt 0.105883 0.155747
vt 0.351732 0.147623
vt 0.223132 0.128232
vt 0.218721 0.149411
vt 0.469070 0.149411
vt 0.483427 0.127273
vt 0.352306 0.146326
vt 0.017963 0.152222
vt 0.104256 0.155747
vt 0.009616 0.131504
vt 0.104128 0.227914
vt 0.000790 0.227921
vt 0.216984 0.228396
vt 0.351571 0.227971
vt 0.217291 0.227882
vt 0.352342 0.227879
vt 0.489111 0.227891
vt 0.948232 0.041698
vt 0.989968 0.003451
vt 0.971575 0.059997
vt 0.909211 0.004273
vt 0.996004 0.120663
vt 0.925604 0.058708
vt 0.885225 0.122889
vt 0.516483 0.798440
vt 0.501430 0.685191
vt 0.597947 0.686709
vt 0.594444 0.793024
vt 0.950876 0.082499
vt 0.943924 0.157220
vt 0.507177 0.624822
vt 0.600053 0.622523
vt 0.901715 0.182549
vt 0.982420 0.184037
vt 0.730212 0.975635
vt 0.685579 0.991654
vt 0.692830 0.969164

vn 0.967333 -0.237592 -0.088411
vn 0.264364 -0.163035 -0.950543
vn -0.099490 -0.383727 -0.918071
vn 0.614723 -0.568612 -0.546622
vn 0.826093 -0.137887 -0.546404
vn -0.014849 -0.437862 -0.898920
vn 0.291653 -0.341226 -0.893590
vn 0.920201 -0.360928 -0.151528
vn 0.267278 -0.165241 -0.949346
vn 0.887325 -0.442865 -0.128551
vn -0.540322 -0.720034 0.435434
vn 0.271469 -0.778803 0.565482
vn 0.393798 -0.889471 0.231873
vn -0.074259 -0.090262 0.993146
vn -0.527169 0.355519 0.771816
vn -0.006480 0.305890 0.952045
vn 0.258748 0.499746 0.826622
vn 0.945274 -0.308772 0.105439
vn 0.155498 -0.044474 -0.986835
vn 0.049687 -0.366325 0.929159
vn 0.908138 -0.121802 0.400562
vn 0.424069 -0.761934 0.489512
vn 0.050964 -0.221655 0.973792
vn 0.881890 -0.161468 0.442942
vn 0.350163 -0.018922 0.936498
vn -0.064132 -0.224773 0.972299
vn 0.199334 0.475497 -0.856836
vn 0.155401 0.028252 -0.987447
vn 0.930800 -0.279138 0.235994
vn 0.451674 0.861230 -0.232968
vn 0.090222 0.427437 0.899532
vn 0.240997 0.505983 -0.828192
vn 0.930942 0.208004 0.300137
vn 0.470404 0.667472 0.577236
vn 0.518565 0.729485 0.446030
vn 0.041455 0.555241 0.830656
vn 0.003488 0.510953 0.859602
vn 0.722891 0.350189 0.595648
vn 0.777451 0.570359 -0.265067
vn 0.471627 0.623420 -0.623631
vn 0.229499 0.781481 -0.580187
vn 0.478960 0.715178 0.509035
vn 0.472035 0.828086 -0.302417
vn 0.773690 0.582124 -0.250071
vn 0.370458 0.640865 -0.672349
vn 0.243228 0.742423 -0.624218
vn 0.352253 0.352281 -0.867073
vn 0.119320 0.255393 0.959446
vn 0.856992 0.153410 0.491966
vn 0.813323 0.153552 -0.561184
vn -0.003266 0.038116 -0.999268
vn 0.117199 0.321070 0.939776
vn 0.345800 0.047519 0.937104
vn 0.754285 0.598693 -0.269481
vn 0.825278 0.333407 0.455803
vn 0.868515 0.266156 0.418141
vn 0.814294 0.152378 -0.560095
vn 0.129349 0.168432 -0.977189
vn 0.782744 0.274900 -0.558339
vn 0.307381 -0.221390 -0.925475
vn 0.135709 -0.224769 -0.964915
vn 0.016486 -0.267281 -0.963478
vn 0.469024 0.215418 0.856512
vn 0.623935 0.644866 0.441422
vn 0.796986 -0.184083 0.575262
vn 0.438261 0.147810 -0.886611
vn 0.137595 -0.320279 0.937277
vn 0.693366 0.694076 -0.193657
vn 0.479045 0.729154 0.488724
vn 0.637206 0.080024 -0.766528
vn 0.661069 0.717943 -0.218050
vn -0.672595 -0.538098 -0.508003
vn -0.419432 -0.852288 0.312542
vn -0.107876 0.368042 0.923530
vn 0.831245 -0.142908 0.537223
vn 0.449121 -0.168668 0.877406
vn 0.142009 0.094732 0.985322
vn 0.980656 -0.053392 0.188314
vn 0.982800 -0.107723 -0.150000
vn 0.993879 -0.090566 0.063269
vn 0.319921 -0.818663 0.476908
vn 0.193735 0.202931 0.959836
vn 0.911170 -0.035712 0.410480
vn 0.974673 0.023860 0.222360
vn -0.054128 0.912139 0.406291
vn 0.475327 0.335932 0.813151
vn 0.684976 0.336852 0.646018
vn 0.699334 0.340940 0.628246
vn 0.486843 -0.181684 0.854386
vn 0.313347 -0.258209 0.913861
vn 0.049236 0.924442 0.378131
vn -0.020318 -0.003447 0.999788
vn 0.245444 -0.678315 0.692565
vn 0.531248 0.029882 0.846689
vn 0.482029 -0.849010 -0.216403
vn 0.902394 -0.003314 0.430898
vn 0.007502 -0.999970 -0.002049
vn 0.513966 0.148831 0.844801
vn 0.810867 0.077150 0.580123
vn 0.285378 -0.956952 -0.052933
vn 0.330398 0.045215 0.942758
vn 0.977702 0.060293 -0.201157
vn 0.917814 0.191736 -0.347643
vn 0.767695 -0.293939 0.569424
vn 0.163228 -0.415135 0.894997
vn 0.826306 -0.123179 0.549587
vn 0.056784 -0.289485 0.955497
vn 0.520854 0.718368 0.461149
vn 0.978250 0.066962 0.196322
vn 0.884046 0.433359 0.175106
vn 0.769131 0.602343 0.213591
vn 0.497932 0.321237 0.805525
vn 0.492091 0.387405 -0.779592
vn 0.399777 0.457808 -0.794097
vn 0.151110 0.976424 -0.154148
vn 0.030216 0.951904 -0.304903
vn 0.909393 -0.115165 0.399676
vn 0.297076 0.846738 0.441340
vn 0.723824 -0.042564 -0.688671
vn 0.490083 0.845080 -0.213677
vn -0.398680 -0.513113 0.760112
vn 0.709273 0.688194 0.152715
vn 0.531686 0.414115 -0.738795
vn -0.361733 -0.773537 -0.520375
vn 0.191786 0.222438 0.955897
vn -0.707052 -0.663113 -0.245680
vn -0.505520 -0.780427 -0.367944
vn 0.661582 -0.749845 -0.006449
vn 0.604129 -0.792173 -0.086548
vn 0.960272 0.128779 0.247577
vn 0.977839 0.060136 0.200536
vn 0.501212 0.809440 -0.305931
vn 0.041289 0.996186 -0.076863
vn -0.654224 0.559522 -0.508847
vn -0.568727 0.808288 -0.152381
vn -0.500437 -0.768979 -0.397786
vn -0.500319 -0.769252 -0.397406
vn 0.700960 -0.652306 -0.288361
vn 0.707526 -0.640811 -0.297939
vn 0.929227 0.001134 0.369507
vn 0.916811 0.010424 0.399185
vn 0.175388 0.803683 0.568623
vn -0.867634 0.052574 0.494415
vn -0.733480 0.137736 -0.665609
vn -0.538158 -0.775609 -0.329874
vn 0.716416 -0.642883 -0.271015
vn 0.776955 0.143189 -0.613056
vn 0.977747 0.148240 0.148444
vn 0.953263 0.085781 0.289710
vn 0.479745 -0.380750 0.790490
vn -0.002002 -0.265824 0.964020
vn -0.989685 -0.015479 0.142421
vn 0.659157 -0.738314 -0.142848
vn -0.501371 -0.778667 -0.377232
vn -0.842151 0.487718 0.230027
vn 0.001924 0.563463 0.826139
vn -0.816604 0.365907 0.446397
vn 0.033123 0.531947 0.846129
vn 0.505478 -0.078156 -0.859292
vn -0.253669 -0.118555 -0.959998
vn -0.825749 -0.550561 -0.122560
vn -0.730115 -0.665285 -0.155976
vn 0.247802 -0.946647 0.206040
vn 0.526796 -0.822430 0.214696
vn 0.899422 0.046676 0.434582
vn 0.918975 -0.054136 0.390582
vn 0.455335 0.804459 0.381465
vn 0.366319 0.871424 0.326236
vn -0.825905 0.561258 -0.053577
vn -0.805429 0.589674 -0.059730
vn 0.520187 -0.242131 0.819011
vn 0.033976 0.788079 0.614636
vn 0.416539 0.835935 -0.357362
vn 0.289461 0.917461 -0.272905
vn 0.322167 0.906151 -0.274040
vn 0.182607 0.983185 -0.001224
vn 0.087611 0.996032 0.015627
vn 0.896502 -0.041204 0.441119
vn 0.773759 -0.435282 0.460246
vn -0.793896 -0.553252 -0.252273
vn -0.376458 -0.771178 0.513384
vn -0.856944 -0.505601 -0.100077
vn -0.796668 -0.595835 -0.101492
vn -0.957569 -0.247703 0.147325
vn -0.438348 0.465172 -0.769068
vn 0.594042 0.758710 -0.267347
vn 0.402953 0.900030 0.166056
vn -0.953524 0.144979 -0.264145
vn -0.957184 0.172462 -0.232500
vn 0.859176 -0.230968 0.456586
vn 0.874478 -0.247011 0.417461
vn 0.402458 0.896319 0.186118
vn 0.774216 -0.194938 0.602153
vn 0.186759 -0.982207 0.019741
vn 0.053556 -0.997371 0.048806
vn -0.954938 0.163554 -0.247677
vn 0.964152 -0.054424 0.259709
vn -0.986358 0.142727 -0.082023
vn -0.704817 -0.525059 -0.477018
vn 0.350640 -0.919815 -0.176046
vn 0.172324 0.520232 0.836459
vn 0.900591 -0.242288 0.360878
vn 0.135109 -0.968321 -0.210001
vn 0.819320 0.565206 0.096210
vn 0.826192 0.553139 0.106973
vn -0.965675 0.170781 -0.195720
vn 0.423652 0.891347 0.161305
vn 0.808787 -0.241320 0.536310
vn 0.134107 -0.971464 0.195638
vn -0.939667 0.327399 0.099172
vn 0.658233 0.750885 0.053860
vn 0.029276 0.773569 0.633035
vn 0.482865 -0.874186 0.051383
vn 0.813942 -0.506719 0.284137
vn -0.312639 -0.690168 0.652630
vn -0.210877 -0.826551 0.521867
vn 0.590954 -0.585826 0.554600
vn -0.074263 0.051446 0.995911
vn -0.065254 -0.912296 -0.404300
vn 0.636916 0.545227 0.545037
vn 0.720306 0.396674 0.569043
vn -0.101491 0.536873 0.837536
vn 0.617069 -0.464297 0.635338
vn -0.119008 -0.503375 0.855833
vn 0.192395 0.780191 0.595220
vn 0.813737 0.549923 0.188191
vn -0.503391 0.687422 0.523496
vn 0.878516 0.429119 0.209920
vn 0.515861 -0.705164 -0.486447
vn -0.010451 -0.954178 -0.299057
vn -0.269172 -0.926629 -0.262498
vn -0.001906 -0.933817 -0.357747
vn -0.537982 0.616207 0.575208
vn -0.930241 -0.366750 0.012082
vn 0.569249 0.822067 -0.012710
vn 0.897943 -0.423386 0.120180
vn -0.523479 -0.785156 0.330909
vn -0.846018 0.477862 0.236437
vn 0.648244 0.730315 -0.215450
vn -0.931416 0.354574 0.082104
vn -0.940190 0.326458 0.097302
vn 0.675631 0.707975 -0.205656
vn 0.533919 -0.809853 -0.243038
vn 0.926385 -0.336831 -0.168393
vn -0.670020 -0.737681 0.083068
vn -0.269439 -0.958453 -0.093647
vn -0.826174 0.454162 0.333427
vn -0.224670 0.973072 -0.051514
vn -0.986297 -0.164719 -0.009249
vn 0.854890 0.451090 -0.256281
vn -0.076247 -0.195387 -0.977758
vn -0.099195 -0.190877 -0.976589
vn 0.782229 0.000655 0.622991
vn 0.590157 0.803665 0.076402
vn -0.500023 -0.431279 0.750983
vn 0.801420 0.074587 0.593433
vn -0.643317 -0.306066 0.701760
vn -0.087137 -0.273270 -0.957983
vn -0.050773 -0.296247 -0.953761
vn 0.723362 0.187330 0.664572
vn 0.407775 -0.724327 0.555941
vn -0.588613 -0.093228 0.803022
vn 0.376727 -0.900184 0.218509
vn -0.203280 -0.166455 -0.964868
vn 0.228460 -0.402006 -0.886678
vn -0.685467 -0.535082 -0.493783
vn -0.919817 -0.279685 -0.275159
vn -0.279671 -0.535654 -0.796780
vn -0.244515 -0.558139 -0.792902
vn -0.910861 -0.347071 -0.223326
vn -0.195712 -0.160621 -0.967418
vn -0.925870 -0.293540 -0.237904
vn 0.550099 -0.834716 -0.025303
vn 0.358056 -0.932258 0.051876
vn 0.091186 -0.892342 -0.442054
vn 0.365368 -0.586552 0.722815
vn 0.660773 -0.246319 0.709018
vn -0.276540 0.316231 0.907482
vn -0.114307 -0.040687 0.992612
vn -0.946471 -0.131383 0.294842
vn -0.100931 -0.048770 -0.993697
vn -0.096012 -0.410455 0.906812
vn -0.687448 -0.627545 0.365517
vn -0.647832 0.248729 0.720033
vn -0.108008 -0.025575 0.993821
vn -0.698810 -0.230324 0.677212
vn 0.028400 -0.072097 0.996993
vn 0.056838 -0.227861 0.972033
vn -0.140541 0.374274 -0.916607
vn -0.108249 0.018661 -0.993949
vn -0.659832 -0.380063 0.648208
vn -0.440493 0.707336 -0.552848
vn -0.102056 0.414158 0.904465
vn -0.249231 0.433078 -0.866214
vn -0.659657 0.355094 0.662390
vn -0.406552 0.653951 0.638016
vn -0.498558 0.862748 0.084294
vn -0.052344 0.550023 0.833507
vn -0.101238 0.595914 0.796641
vn -0.772078 0.370055 0.516678
vn -0.741841 0.546940 -0.387981
vn -0.345132 0.629388 -0.696243
vn -0.125393 0.778500 -0.614991
vn -0.381629 0.828780 0.409246
vn -0.399163 0.848413 -0.347656
vn -0.729641 0.603183 -0.322171
vn -0.299219 0.613154 -0.731102
vn -0.128901 0.753728 -0.644421
vn -0.272354 0.401914 -0.874236
vn 0.049840 0.118059 0.991755
vn -0.741327 0.143683 0.655583
vn -0.873879 0.278609 -0.398388
vn -0.321476 0.178627 -0.929917
vn 0.032752 0.280536 0.959285
vn 0.022838 0.099394 0.994786
vn -0.843982 0.459678 0.276390
vn -0.730112 0.244181 0.638210
vn -0.686273 0.295237 0.664729
vn -0.946311 0.152204 -0.285184
vn -0.293597 0.149499 -0.944167
vn -0.866491 0.302278 -0.397266
vn -0.691193 0.008908 -0.722616
vn -0.300129 0.022342 -0.953637
vn 0.295027 -0.259965 -0.919444
vn -0.056127 0.171510 0.983582
vn -0.694133 0.707421 0.133176
vn -0.876109 -0.480631 -0.037771
vn -0.459800 -0.103241 -0.882000
vn -0.434868 0.308049 0.846165
vn -0.582485 0.554536 -0.594308
vn -0.617929 0.765679 0.178604
vn -0.659635 -0.128372 -0.740542
vn -0.714605 0.490388 -0.498858
vn 0.692155 -0.674899 -0.255798
vn -0.979065 -0.044939 -0.198524
vn -0.393942 -0.598932 -0.697202
vn -0.924979 -0.121259 0.360153
vn -0.626742 -0.167523 0.761006
vn -0.349277 0.095259 0.932165
vn -0.999784 -0.017753 -0.010795
vn -0.925559 -0.152378 -0.346585
vn -0.810713 -0.167790 -0.560884
vn -0.384173 -0.826799 0.410871
vn -0.394118 0.203567 0.896232
vn -0.977951 -0.033697 0.206096
vn -0.999624 0.025964 0.008764
vn -0.032093 0.912113 0.408680
vn -0.637534 0.337108 0.692754
vn -0.806572 0.338435 0.484668
vn -0.816797 0.342553 0.464220
vn -0.658688 -0.180462 0.730454
vn -0.502094 -0.257335 0.825639
vn -0.127029 0.924629 0.359061
vn -0.193988 -0.003263 0.980998
vn -0.389317 -0.677636 0.623892
vn -0.699976 0.031192 0.713485
vn -0.367301 -0.881569 -0.296523
vn -0.961215 -0.014970 0.275395
vn -0.008699 -0.999953 -0.004319
vn -0.682440 0.150101 0.715364
vn -0.916013 0.078987 0.393295
vn -0.247201 -0.961103 -0.123180
vn -0.524298 0.046126 0.850285
vn -0.908679 0.062068 -0.412856
vn -0.818594 0.189496 -0.542213
vn -0.872330 -0.292198 0.391995
vn -0.351758 -0.414593 0.839273
vn -0.924985 -0.121311 0.360119
vn -0.260433 -0.289127 0.921184
vn -0.605915 0.719566 0.339251
vn -0.997460 0.069065 -0.017426
vn -0.900126 0.435261 -0.017921
vn -0.795748 0.604007 0.044287
vn -0.658013 0.322473 0.680463
vn -0.334515 0.372939 -0.865457
vn -0.219669 0.459866 -0.860388
vn -0.112591 0.976705 -0.182677
vn 0.037696 0.951897 -0.304092
vn -0.947569 0.014840 0.319207
vn -0.534417 0.828495 0.167314
vn -0.617941 -0.079798 -0.782165
vn -0.542967 0.584714 -0.602741
vn 0.994428 0.088914 0.056641
vn -0.834379 0.527756 -0.159012
vn -0.621748 -0.090734 -0.777944
vn 0.438074 -0.858926 -0.265213
vn -0.269566 0.242724 0.931890
vn -0.211092 -0.422657 -0.881363
vn 0.092886 -0.481922 -0.871277
vn -0.915225 -0.402837 -0.009284
vn -0.902279 -0.369995 0.221352
vn -0.708440 0.139156 0.691916
vn -0.479258 0.252960 0.840430
vn 0.306063 0.787340 0.535184
vn 0.212722 0.794531 0.568744
vn 0.528237 0.495425 -0.689580
vn 0.852693 0.463917 -0.240199
vn 0.198472 -0.612408 -0.765223
vn 0.203426 -0.577106 -0.790928
vn -0.928058 -0.372210 0.012929
vn -0.881047 -0.471779 0.034352
vn -0.804402 0.060520 0.590994
vn -0.691648 0.100502 0.715208
vn 0.200431 0.659794 0.724223
vn 0.989755 0.010090 0.142420
vn 0.576256 -0.712501 -0.400339
vn 0.515610 -0.729666 -0.449147
vn -0.870451 -0.478347 -0.116182
vn -0.802220 -0.357888 -0.477869
vn -0.983102 0.167279 -0.074348
vn -0.894900 0.339768 0.289330
vn 0.078528 0.783005 0.617038
vn 0.041466 0.771198 0.635244
vn 0.981311 0.096300 0.166598
vn -0.903371 -0.425163 0.056191
vn 0.199616 -0.565780 -0.800029
vn 0.958148 0.237960 -0.159145
vn 0.366779 0.531261 0.763698
vn 0.981072 0.122836 0.149694
vn 0.118490 0.296773 0.947569
vn -0.851179 -0.235008 -0.469324
vn 0.524845 -0.748792 -0.404782
vn 0.087849 -0.628488 -0.772842
vn -0.033411 -0.653800 -0.755929
vn -0.677696 -0.723036 0.133966
vn -0.760416 -0.553203 0.340197
vn -0.345842 0.093297 0.933643
vn -0.410143 0.065034 0.909699
vn 0.429604 0.548299 0.717501
vn 0.472828 0.577964 0.665124
vn 0.851274 0.167038 -0.497424
vn 0.851566 0.170022 -0.495912
vn -0.111781 -0.459009 0.881371
vn 0.778116 0.221732 0.587683
vn 0.160589 0.965805 0.203548
vn 0.321104 0.928149 0.188236
vn 0.296299 0.932513 0.206460
vn 0.550093 0.775626 0.309520
vn 0.622777 0.739338 0.255983
vn -0.369147 0.050554 0.927995
vn -0.551437 -0.291489 0.781634
vn -0.008339 -0.548207 -0.836301
vn -0.067410 -0.995966 -0.059229
vn 0.129847 -0.627421 -0.767778
vn 0.031028 -0.669423 -0.742234
vn 0.466749 -0.626434 -0.624280
vn 0.233994 0.631022 -0.739634
vn 0.038965 0.922655 0.383652
vn 0.436453 0.700796 0.564265
vn 0.550203 -0.099742 -0.829052
vn 0.584576 -0.099790 -0.805179
vn -0.466854 -0.110376 0.877419
vn -0.503840 -0.093262 0.858747
vn 0.443067 0.686216 0.576887
vn -0.327891 -0.201489 0.922979
vn -0.761882 -0.646776 -0.034873
vn -0.679643 -0.724897 -0.112294
vn 0.570691 -0.096487 -0.815476
vn -0.502398 0.165577 0.848635
vn 0.648637 -0.220590 -0.728430
vn -0.129993 -0.361391 -0.923308
vn -0.901301 -0.429514 -0.056336
vn 0.612676 -0.048942 0.788817
vn -0.543171 -0.044336 0.838451
vn -0.824206 -0.518901 -0.226772
vn -0.064755 0.656862 0.751225
vn -0.072098 0.644775 0.760964
vn 0.604749 -0.125824 -0.786414
vn 0.416183 0.705120 0.574105
vn -0.408904 -0.183201 0.893999
vn -0.645798 -0.761904 0.049480
vn 0.888559 0.099554 -0.447831
vn -0.616504 0.273954 -0.738154
vn -0.604457 0.284930 -0.743940
vn -0.821571 0.036814 0.568916
vn -0.775028 -0.053091 0.629693
vn 0.629783 -0.078278 0.772817
vn 0.554646 -0.161797 0.816205
vn -0.870640 -0.158262 0.465767
vn 0.556529 0.121991 0.821823
vn -0.508331 -0.360469 -0.782088
vn -0.747317 -0.164015 0.643907
vn -0.688997 0.190360 0.699318
vn 0.557378 0.124487 0.820873
vn -0.852265 0.184238 0.489592
vn 0.582214 -0.233913 0.778660
vn 0.825549 0.200481 -0.527519
vn -0.790050 0.318080 0.524066
vn 0.630811 0.170260 0.757027
vn -0.766409 0.358786 0.532813
vn -0.736384 -0.274464 -0.618392
vn -0.547136 -0.497195 -0.673379
vn 0.063639 -0.618397 -0.783285
vn 0.612258 -0.625444 -0.483694
vn 0.634049 0.161416 0.756258
vn 0.905868 -0.368379 -0.209047
vn -0.608849 0.211715 -0.764513
vn -0.845064 0.159154 0.510429
vn 0.588925 0.116606 0.799731
vn 0.841267 0.200291 -0.502148
vn -0.647461 0.145790 -0.748024
vn 0.878831 0.116588 -0.462670
vn 0.888439 0.118175 -0.443520
vn -0.617535 0.141591 -0.773694
vn -0.734558 -0.413171 0.538250
vn -0.920828 -0.214067 0.325962
vn 0.723477 -0.294234 0.624506
vn 0.608612 -0.384553 0.694053
vn 0.835057 0.289604 -0.467771
vn 0.161013 0.039141 -0.986176
vn 0.985385 -0.141039 0.095526
vn -0.902401 -0.103448 -0.418296
vn -0.061734 -0.994051 0.089727
vn -0.010054 -0.997052 0.076065
vn -0.675279 0.729403 0.109409
vn -0.611264 0.242346 -0.753409
vn 0.610196 0.635863 0.472588
vn -0.737110 0.670324 -0.085636
vn 0.782018 0.559310 0.274990
vn -0.039553 -0.943390 0.329320
vn -0.099255 -0.924572 0.367853
vn -0.644742 0.734230 -0.212634
vn -0.309698 0.603848 0.734476
vn 0.720439 0.693427 0.011248
vn -0.083428 -0.865048 0.494703

f 1/1/1 2/2/1 3/3/1
f 4/4/2 5/5/2 6/6/2
f 4/4/3 6/7/3 7/8/3
f 5/9/4 8/10/4 9/11/4
f 10/12/5 11/13/5 9/14/5
f 6/6/6 11/15/6 7/8/6
f 6/6/7 12/16/7 11/13/7
f 12/17/8 5/5/8 9/14/8
f 6/6/9 5/5/9 12/17/9
f 11/13/10 12/18/10 9/19/10
f 13/20/11 14/21/11 15/22/11
f 14/21/12 13/20/12 16/23/12
f 16/24/13 13/20/13 17/25/13
f 15/22/14 14/21/14 18/26/14
f 14/21/15 19/27/15 18/26/15
f 18/26/16 20/28/16 21/29/16
f 18/26/17 19/27/17 20/28/17
f 20/28/18 3/30/18 21/29/18
f 5/9/19 22/31/19 23/32/19
f 24/33/20 25/34/20 26/35/20
f 27/36/21 25/34/21 9/37/21
f 28/38/22 27/39/22 29/40/22
f 30/41/23 25/34/23 24/33/23
f 25/34/24 30/41/24 10/42/24
f 30/41/25 24/33/25 31/43/25
f 24/33/26 26/44/26 32/45/26
f 33/46/27 34/47/27 5/9/27
f 4/4/28 22/31/28 5/9/28
f 26/35/29 25/34/29 27/39/29
f 33/46/30 35/48/30 34/47/30
f 32/45/31 26/35/31 28/38/31
f 23/32/32 33/46/32 5/9/32
f 26/35/33 27/39/33 28/38/33
f 28/38/34 29/40/34 36/49/34
f 35/50/35 37/51/35 29/40/35
f 28/38/36 38/52/36 32/45/36
f 36/49/37 38/52/37 28/38/37
f 36/49/38 37/53/38 39/54/38
f 39/55/39 37/56/39 40/57/39
f 41/58/40 42/59/40 39/55/40
f 39/55/41 40/57/41 41/58/41
f 36/49/42 29/40/42 37/51/42
f 37/56/43 35/48/43 33/46/43
f 37/56/44 33/46/44 40/57/44
f 40/57/45 33/46/45 43/60/45
f 40/57/46 43/60/46 41/58/46
f 33/46/47 23/32/47 43/60/47
f 44/61/48 45/62/48 30/63/48
f 15/64/49 46/65/49 45/62/49
f 46/66/50 47/67/50 10/68/50
f 47/67/51 7/69/51 11/70/51
f 45/62/52 44/61/52 17/71/52
f 44/61/53 30/63/53 31/72/53
f 13/73/54 15/64/54 45/62/54
f 46/65/55 10/74/55 45/62/55
f 45/62/56 10/74/56 30/63/56
f 47/67/57 11/70/57 10/68/57
f 47/67/58 48/75/58 7/69/58
f 46/66/59 15/76/59 47/67/59
f 18/77/60 47/67/60 15/76/60
f 47/67/61 18/77/61 48/75/61
f 18/77/62 21/78/62 48/75/62
f 13/73/63 45/62/63 17/71/63
f 49/79/64 35/50/64 29/40/64
f 8/80/65 27/81/65 9/82/65
f 34/47/66 50/83/66 5/84/66
f 27/36/67 49/79/67 29/40/67
f 35/48/68 51/85/68 52/86/68
f 35/50/69 49/79/69 51/87/69
f 52/86/70 50/83/70 34/47/70
f 35/48/71 52/86/71 34/47/71
f 5/84/72 50/83/72 8/10/72
f 53/88/73 27/81/73 8/80/73
f 53/88/74 49/79/74 27/36/74
f 54/89/75 55/90/75 56/91/75
f 57/92/76 55/90/76 58/93/76
f 59/94/77 60/95/77 55/90/77
f 61/96/78 54/89/78 56/91/78
f 39/97/79 61/96/79 36/98/79
f 36/98/80 61/96/80 56/91/80
f 36/98/81 56/91/81 38/99/81
f 62/100/82 63/101/82 64/102/82
f 65/103/83 64/102/83 54/89/83
f 61/96/84 65/103/84 54/89/84
f 66/104/85 67/105/85 62/100/85
f 55/90/86 60/95/86 68/106/86
f 69/107/87 68/106/87 60/95/87
f 69/107/88 70/108/88 68/106/88
f 58/109/89 55/90/89 68/106/89
f 68/106/90 71/110/90 58/111/90
f 62/100/91 67/105/91 63/101/91
f 64/102/92 63/101/92 69/107/92
f 70/108/93 71/110/93 68/106/93
f 58/111/94 71/110/94 72/112/94
f 56/91/95 57/92/95 38/113/95
f 55/90/96 57/114/96 56/91/96
f 73/115/97 74/116/97 38/113/97
f 58/109/98 72/112/98 73/115/98
f 57/117/99 58/111/99 73/115/99
f 57/92/100 73/115/100 38/113/100
f 73/115/101 72/112/101 74/116/101
f 39/97/102 75/118/102 61/96/102
f 75/118/103 39/97/103 76/119/103
f 64/102/104 59/94/104 54/89/104
f 64/102/105 60/95/105 59/94/105
f 54/89/106 59/94/106 55/90/106
f 64/102/107 69/107/107 60/95/107
f 65/103/108 66/104/108 62/100/108
f 65/103/109 61/96/109 75/118/109
f 75/118/110 76/119/110 65/103/110
f 66/104/111 65/103/111 76/119/111
f 62/100/112 64/102/112 65/103/112
f 39/97/113 42/120/113 76/119/113
f 77/121/114 76/119/114 42/120/114
f 67/105/115 76/119/115 77/121/115
f 66/104/116 76/119/116 67/105/116
f 9/82/117 25/34/117 10/42/117
f 51/122/118 49/123/118 78/124/118
f 79/125/119 50/126/119 52/127/119
f 52/127/120 51/122/120 79/125/120
f 80/128/121 81/129/121 53/130/121
f 51/122/122 78/124/122 79/125/122
f 82/131/123 50/126/123 79/125/123
f 50/126/124 82/131/124 8/132/124
f 53/133/125 78/124/125 49/123/125
f 83/134/126 84/135/126 85/136/126
f 84/135/127 83/134/127 86/137/127
f 86/137/128 87/138/128 84/135/128
f 88/139/129 84/135/129 87/138/129
f 87/138/130 89/140/130 88/139/130
f 90/141/131 88/139/131 89/140/131
f 91/142/132 92/143/132 90/141/132
f 90/141/133 89/140/133 91/142/133
f 85/136/134 92/144/134 91/145/134
f 91/145/135 83/134/135 85/136/135
f 80/128/136 93/146/136 83/134/136
f 94/147/137 83/134/137 93/146/137
f 93/146/138 87/138/138 94/147/138
f 87/138/139 93/146/139 95/148/139
f 95/148/140 96/149/140 87/138/140
f 89/140/141 87/138/141 96/149/141
f 97/150/142 91/142/142 89/140/142
f 97/151/143 81/129/143 80/128/143
f 8/132/144 82/131/144 80/128/144
f 93/146/145 80/128/145 98/152/145
f 98/152/146 95/148/146 93/146/146
f 95/148/147 82/131/147 79/125/147
f 79/125/148 78/124/148 95/148/148
f 96/149/149 95/148/149 78/124/149
f 78/124/150 53/133/150 81/153/150
f 81/153/151 96/149/151 78/124/151
f 80/128/152 53/130/152 8/154/152
f 94/147/153 87/138/153 86/137/153
f 86/137/154 83/134/154 94/147/154
f 97/151/155 83/134/155 91/145/155
f 89/140/156 96/149/156 97/150/156
f 80/128/157 83/134/157 97/151/157
f 81/153/158 97/150/158 96/149/158
f 82/131/159 95/148/159 98/152/159
f 98/152/160 80/128/160 82/131/160
f 85/136/161 99/155/161 100/156/161
f 99/155/162 85/136/162 84/135/162
f 84/135/163 101/157/163 99/155/163
f 101/157/164 84/135/164 88/139/164
f 88/139/165 90/141/165 101/157/165
f 102/158/166 101/157/166 90/141/166
f 90/141/167 103/159/167 102/158/167
f 103/159/168 90/141/168 92/143/168
f 92/144/169 85/136/169 103/160/169
f 100/156/170 103/160/170 85/136/170
f 104/161/171 105/162/171 106/163/171
f 107/164/172 106/163/172 108/165/172
f 109/166/173 110/167/173 103/168/173
f 109/166/174 111/169/174 104/161/174
f 104/161/175 110/167/175 109/166/175
f 104/161/176 111/169/176 112/170/176
f 113/171/177 112/170/177 111/169/177
f 106/163/178 110/167/178 104/161/178
f 104/161/179 112/170/179 105/162/179
f 105/172/180 113/173/180 111/174/180
f 113/173/181 105/172/181 112/175/181
f 105/172/182 111/174/182 109/176/182
f 109/176/183 106/177/183 105/172/183
f 109/176/184 100/178/184 106/177/184
f 103/179/185 100/178/185 109/176/185
f 102/180/186 103/168/186 110/167/186
f 106/163/187 114/181/187 108/165/187
f 115/182/188 116/183/188 106/177/188
f 116/184/189 117/185/189 118/186/189
f 108/165/190 114/181/190 119/187/190
f 119/187/191 120/188/191 108/165/191
f 118/189/192 121/190/192 114/191/192
f 114/191/193 121/190/193 117/192/193
f 116/193/194 115/194/194 119/187/194
f 120/188/195 119/187/195 115/194/195
f 121/195/196 118/186/196 117/185/196
f 108/165/197 101/196/197 102/180/197
f 115/182/198 106/177/198 100/178/198
f 100/178/199 99/197/199 115/182/199
f 120/188/200 99/198/200 101/196/200
f 106/163/201 107/164/201 110/167/201
f 108/165/202 120/188/202 101/196/202
f 120/188/203 115/194/203 99/198/203
f 107/164/204 102/180/204 110/167/204
f 102/180/205 107/164/205 108/165/205
f 118/199/206 106/177/206 116/183/206
f 114/181/207 106/163/207 118/200/207
f 114/191/208 117/192/208 119/201/208
f 117/192/209 116/202/209 119/201/209
f 122/203/210 123/204/210 124/205/210
f 125/206/211 126/207/211 123/208/211
f 125/206/212 123/208/212 127/209/212
f 125/210/213 128/211/213 126/212/213
f 128/211/214 129/213/214 126/212/214
f 128/214/215 124/215/215 129/216/215
f 122/217/216 124/215/216 128/214/216
f 130/218/217 128/211/217 125/219/217
f 131/220/218 122/221/218 130/222/218
f 132/223/219 125/224/219 127/225/219
f 132/226/220 131/227/220 125/219/220
f 133/228/221 131/227/221 132/226/221
f 133/229/222 122/221/222 131/220/222
f 130/218/223 125/219/223 131/227/223
f 128/214/224 130/222/224 122/221/224
f 127/209/225 123/204/225 122/203/225
f 16/230/226 133/228/226 14/231/226
f 16/232/227 3/3/227 133/229/227
f 14/231/228 133/228/228 132/226/228
f 14/233/229 132/223/229 19/234/229
f 132/223/230 127/225/230 19/234/230
f 20/235/231 19/234/231 127/225/231
f 20/235/232 127/225/232 122/236/232
f 3/3/233 122/221/233 133/229/233
f 3/237/234 20/235/234 122/236/234
f 134/238/235 135/239/235 136/240/235
f 137/241/236 135/242/236 134/243/236
f 138/244/237 139/245/237 137/246/237
f 138/247/238 136/248/238 139/249/238
f 134/238/239 136/240/239 123/208/239
f 138/247/240 123/250/240 136/248/240
f 123/250/241 138/247/241 124/251/241
f 134/238/242 123/208/242 126/252/242
f 129/253/243 134/243/243 126/254/243
f 137/241/244 134/243/244 129/253/244
f 138/244/245 137/246/245 129/255/245
f 138/244/246 129/255/246 124/256/246
f 136/257/247 140/258/247 139/259/247
f 136/257/248 141/260/248 140/258/248
f 142/261/249 139/259/249 140/258/249
f 135/262/250 143/263/250 141/260/250
f 141/264/251 143/265/251 142/266/251
f 142/266/252 140/267/252 141/264/252
f 137/268/253 143/263/253 135/262/253
f 135/262/254 141/260/254 136/257/254
f 139/259/255 142/261/255 137/268/255
f 137/268/256 144/269/256 143/263/256
f 137/268/257 142/261/257 144/269/257
f 143/265/258 145/270/258 146/271/258
f 146/271/259 142/266/259 143/265/259
f 143/263/260 144/269/260 145/272/260
f 144/269/261 146/273/261 145/272/261
f 146/273/262 144/269/262 142/261/262
f 3/274/263 16/275/263 17/276/263
f 147/5/264 4/4/264 148/6/264
f 148/7/265 4/4/265 7/8/265
f 149/10/266 147/9/266 150/11/266
f 151/13/267 152/12/267 150/14/267
f 151/15/268 148/6/268 7/8/268
f 153/16/269 148/6/269 151/13/269
f 147/5/270 153/17/270 150/14/270
f 147/5/271 148/6/271 153/17/271
f 153/18/272 151/13/272 150/19/272
f 154/21/273 155/20/273 156/22/273
f 155/20/274 154/21/274 157/23/274
f 155/20/275 157/24/275 17/25/275
f 154/21/276 156/22/276 158/26/276
f 159/27/277 154/21/277 158/26/277
f 160/28/278 158/26/278 21/29/278
f 159/27/279 158/26/279 160/28/279
f 3/30/280 160/28/280 21/29/280
f 22/31/281 147/9/281 23/32/281
f 161/34/282 24/33/282 162/35/282
f 161/34/283 163/36/283 150/37/283
f 163/39/284 164/38/284 165/40/284
f 161/34/285 166/41/285 24/33/285
f 166/41/286 161/34/286 152/42/286
f 24/33/287 166/41/287 31/43/287
f 162/44/288 24/33/288 32/45/288
f 167/47/289 168/46/289 147/9/289
f 22/31/290 4/4/290 147/9/290
f 161/34/291 162/35/291 163/39/291
f 169/48/292 168/46/292 167/47/292
f 162/35/293 32/45/293 164/38/293
f 168/46/294 23/32/294 147/9/294
f 163/39/295 162/35/295 164/38/295
f 165/40/296 164/38/296 170/49/296
f 171/51/297 169/50/297 165/40/297
f 38/52/298 164/38/298 32/45/298
f 38/52/299 170/49/299 164/38/299
f 171/53/300 170/49/300 172/54/300
f 171/56/301 172/55/301 173/57/301
f 42/59/302 41/58/302 172/55/302
f 173/57/303 172/55/303 41/58/303
f 165/40/304 170/49/304 171/51/304
f 169/48/305 171/56/305 168/46/305
f 168/46/306 171/56/306 173/57/306
f 168/46/307 173/57/307 43/60/307
f 43/60/308 173/57/308 41/58/308
f 23/32/309 168/46/309 43/60/309
f 174/62/310 44/61/310 166/63/310
f 175/65/311 156/64/311 174/62/311
f 176/67/312 175/66/312 152/68/312
f 7/69/313 176/67/313 151/70/313
f 44/61/314 174/62/314 17/71/314
f 166/63/315 44/61/315 31/72/315
f 156/64/316 155/73/316 174/62/316
f 152/74/317 175/65/317 174/62/317
f 152/74/318 174/62/318 166/63/318
f 151/70/319 176/67/319 152/68/319
f 48/75/320 176/67/320 7/69/320
f 156/76/321 175/66/321 176/67/321
f 176/67/322 158/77/322 156/76/322
f 158/77/323 176/67/323 48/75/323
f 21/78/324 158/77/324 48/75/324
f 174/62/325 155/73/325 17/71/325
f 169/50/326 177/79/326 165/40/326
f 163/81/327 149/80/327 150/82/327
f 178/83/328 167/47/328 147/84/328
f 177/79/329 163/36/329 165/40/329
f 179/85/330 169/48/330 180/86/330
f 177/79/331 169/50/331 179/87/331
f 178/83/332 180/86/332 167/47/332
f 180/86/333 169/48/333 167/47/333
f 178/83/334 147/84/334 149/10/334
f 163/81/335 181/88/335 149/80/335
f 177/79/336 181/88/336 163/36/336
f 182/90/337 183/89/337 184/91/337
f 182/90/338 185/92/338 186/93/338
f 187/95/339 188/94/339 182/90/339
f 183/89/340 189/96/340 184/91/340
f 189/96/341 172/97/341 170/98/341
f 189/96/342 170/98/342 184/91/342
f 184/91/343 170/98/343 38/99/343
f 63/101/344 190/100/344 191/102/344
f 191/102/345 192/103/345 183/89/345
f 192/103/346 189/96/346 183/89/346
f 67/105/347 193/104/347 190/100/347
f 187/95/348 182/90/348 194/106/348
f 194/106/349 69/107/349 187/95/349
f 70/108/350 69/107/350 194/106/350
f 182/90/351 186/109/351 194/106/351
f 71/110/352 194/106/352 186/111/352
f 67/105/353 190/100/353 63/101/353
f 63/101/354 191/102/354 69/107/354
f 71/110/355 70/108/355 194/106/355
f 71/110/356 186/111/356 72/112/356
f 185/92/357 184/91/357 38/113/357
f 185/114/358 182/90/358 184/91/358
f 74/116/359 195/115/359 38/113/359
f 72/112/360 186/109/360 195/115/360
f 186/111/361 185/117/361 195/115/361
f 195/115/362 185/92/362 38/113/362
f 72/112/363 195/115/363 74/116/363
f 196/118/364 172/97/364 189/96/364
f 172/97/365 196/118/365 197/119/365
f 188/94/366 191/102/366 183/89/366
f 187/95/367 191/102/367 188/94/367
f 188/94/368 183/89/368 182/90/368
f 69/107/369 191/102/369 187/95/369
f 193/104/370 192/103/370 190/100/370
f 189/96/371 192/103/371 196/118/371
f 197/119/372 196/118/372 192/103/372
f 192/103/373 193/104/373 197/119/373
f 191/102/374 190/100/374 192/103/374
f 42/120/375 172/97/375 197/119/375
f 197/119/376 77/121/376 42/120/376
f 197/119/377 67/105/377 77/121/377
f 197/119/378 193/104/378 67/105/378
f 161/34/379 150/82/379 152/42/379
f 177/123/380 179/122/380 198/124/380
f 178/126/381 199/125/381 180/127/381
f 179/122/382 180/127/382 199/125/382
f 200/129/383 201/128/383 181/130/383
f 198/124/384 179/122/384 199/125/384
f 178/126/385 202/131/385 199/125/385
f 202/131/386 178/126/386 149/132/386
f 198/124/387 181/133/387 177/123/387
f 203/135/388 204/134/388 205/136/388
f 204/134/389 203/135/389 206/137/389
f 207/138/390 206/137/390 203/135/390
f 203/135/391 208/139/391 207/138/391
f 209/140/392 207/138/392 208/139/392
f 208/139/393 210/141/393 209/140/393
f 211/143/394 212/142/394 210/141/394
f 209/140/395 210/141/395 212/142/395
f 211/144/396 205/136/396 212/145/396
f 204/134/397 212/145/397 205/136/397
f 213/146/398 201/128/398 204/134/398
f 204/134/399 214/147/399 213/146/399
f 207/138/400 213/146/400 214/147/400
f 213/146/401 207/138/401 215/148/401
f 216/149/402 215/148/402 207/138/402
f 207/138/403 209/140/403 216/149/403
f 212/142/404 217/150/404 209/140/404
f 200/129/405 217/151/405 201/128/405
f 202/131/406 149/132/406 201/128/406
f 201/128/407 213/146/407 218/152/407
f 215/148/408 218/152/408 213/146/408
f 202/131/409 215/148/409 199/125/409
f 198/124/410 199/125/410 215/148/410
f 215/148/411 216/149/411 198/124/411
f 181/133/412 198/124/412 200/153/412
f 216/149/413 200/153/413 198/124/413
f 181/130/414 201/128/414 149/154/414
f 207/138/415 214/147/415 206/137/415
f 204/134/416 206/137/416 214/147/416
f 204/134/417 217/151/417 212/145/417
f 216/149/418 209/140/418 217/150/418
f 204/134/419 201/128/419 217/151/419
f 217/150/420 200/153/420 216/149/420
f 215/148/421 202/131/421 218/152/421
f 201/128/422 218/152/422 202/131/422
f 219/155/423 205/136/423 220/156/423
f 205/136/424 219/155/424 203/135/424
f 221/157/425 203/135/425 219/155/425
f 203/135/426 221/157/426 208/139/426
f 210/141/427 208/139/427 221/157/427
f 221/157/428 222/158/428 210/141/428
f 223/159/429 210/141/429 222/158/429
f 210/141/430 223/159/430 211/143/430
f 205/136/431 211/144/431 223/160/431
f 223/160/432 220/156/432 205/136/432
f 224/162/433 225/161/433 226/163/433
f 226/163/434 227/164/434 228/165/434
f 229/167/435 230/166/435 223/168/435
f 231/169/436 230/166/436 225/161/436
f 229/167/437 225/161/437 230/166/437
f 231/169/438 225/161/438 232/170/438
f 232/170/439 233/171/439 231/169/439
f 229/167/440 226/163/440 225/161/440
f 232/170/441 225/161/441 224/162/441
f 233/173/442 224/172/442 231/174/442
f 224/172/443 233/173/443 232/175/443
f 231/174/444 224/172/444 230/176/444
f 226/177/445 230/176/445 224/172/445
f 220/178/446 230/176/446 226/177/446
f 220/178/447 223/179/447 230/176/447
f 223/168/448 222/180/448 229/167/448
f 234/181/449 226/163/449 228/165/449
f 235/183/450 236/182/450 226/177/450
f 237/185/451 235/184/451 238/186/451
f 234/181/452 228/165/452 239/187/452
f 240/188/453 239/187/453 228/165/453
f 241/190/454 238/189/454 234/191/454
f 241/190/455 234/191/455 237/192/455
f 236/194/456 235/193/456 239/187/456
f 239/187/457 240/188/457 236/194/457
f 238/186/458 241/195/458 237/185/458
f 221/196/459 228/165/459 222/180/459
f 226/177/460 236/182/460 220/178/460
f 219/197/461 220/178/461 236/182/461
f 219/198/462 240/188/462 221/196/462
f 227/164/463 226/163/463 229/167/463
f 240/188/464 228/165/464 221/196/464
f 236/194/465 240/188/465 219/198/465
f 222/180/466 227/164/466 229/167/466
f 227/164/467 222/180/467 228/165/467
f 226/177/468 238/199/468 235/183/468
f 226/163/469 234/181/469 238/200/469
f 237/192/470 234/191/470 239/201/470
f 235/202/471 237/192/471 239/201/471
f 242/204/472 243/203/472 244/205/472
f 245/207/473 246/206/473 242/208/473
f 242/208/474 246/206/474 247/209/474
f 248/211/475 246/210/475 245/212/475
f 249/213/476 248/211/476 245/212/476
f 244/215/477 248/214/477 249/216/477
f 244/215/478 243/217/478 248/214/478
f 248/211/479 250/218/479 246/219/479
f 243/221/480 251/220/480 250/222/480
f 246/224/481 252/223/481 247/225/481
f 251/227/482 252/226/482 246/219/482
f 251/227/483 253/228/483 252/226/483
f 243/221/484 253/229/484 251/220/484
f 246/219/485 250/218/485 251/227/485
f 250/222/486 248/214/486 243/221/486
f 242/204/487 247/209/487 243/203/487
f 253/228/488 157/230/488 154/231/488
f 3/3/489 157/232/489 253/229/489
f 253/228/490 154/231/490 252/226/490
f 252/223/491 154/233/491 159/234/491
f 247/225/492 252/223/492 159/234/492
f 159/234/493 160/235/493 247/225/493
f 247/225/494 160/235/494 243/236/494
f 243/221/495 3/3/495 253/229/495
f 160/235/496 3/237/496 243/236/496
f 254/239/497 255/238/497 256/240/497
f 254/242/498 257/241/498 255/243/498
f 258/245/499 259/244/499 257/246/499
f 256/248/500 259/247/500 258/249/500
f 256/240/501 255/238/501 242/208/501
f 242/250/502 259/247/502 256/248/502
f 259/247/503 242/250/503 244/251/503
f 242/208/504 255/238/504 245/252/504
f 255/243/505 249/253/505 245/254/505
f 255/243/506 257/241/506 249/253/506
f 257/246/507 259/244/507 249/255/507
f 249/255/508 259/244/508 244/256/508
f 260/258/509 256/257/509 258/259/509
f 261/260/510 256/257/510 260/258/510
f 258/259/511 262/261/511 260/258/511
f 263/263/512 254/262/512 261/260/512
f 263/265/513 261/264/513 262/266/513
f 260/267/514 262/266/514 261/264/514
f 263/263/515 257/268/515 254/262/515
f 261/260/516 254/262/516 256/257/516
f 262/261/517 258/259/517 257/268/517
f 264/269/518 257/268/518 263/263/518
f 262/261/519 257/268/519 264/269/519
f 265/270/520 263/265/520 266/271/520
f 262/266/521 266/271/521 263/265/521
f 264/269/522 263/263/522 265/272/522
f 266/273/523 264/269/523 265/272/523
f 264/269/524 266/273/524 262/261/524
f 157/275/525 3/274/525 17/276/525

o 
usemtl axe.001
s off

v 23.322680 72.882469 18.515018
v 20.302830 66.211739 18.566290
v 28.587639 69.812325 24.507648
v 26.265121 67.588821 23.590200
v 29.556259 68.313087 25.689070
v 27.233738 66.089577 24.771610
v 31.387350 60.400009 28.351360
v 25.350019 58.399719 24.722271
v 27.851259 77.217979 20.303928
v 35.915932 64.735535 30.140270
v 33.888580 79.218292 23.933010
v 30.910179 72.035843 25.425119
v 31.878799 70.536598 26.606520
v 38.935780 71.406250 30.088999
v 27.359800 67.081398 22.048759
v 29.682331 69.304909 22.966221
v 28.328430 65.582169 23.230169
v 30.650959 67.805672 24.147629
v 32.004860 71.528419 23.883669
v 32.973480 70.029190 25.065090
v 3.089050 45.400829 14.435040
v 4.057670 43.901611 15.616460
v 5.152360 43.394188 14.075021
v 4.183740 44.893421 12.893610
v 36.832699 75.714867 27.177132
v -20.106771 20.767410 6.070880
v -19.012081 20.259991 4.529440
v -19.980700 21.759220 3.348020
v -21.075390 22.266632 4.889460

vt 0.033358 0.643728
vt 0.190411 0.923560
vt 0.402692 0.503812
vt 0.402692 0.647326
vt 0.408249 0.287497
vt 0.408249 0.367848
vt 0.492649 0.287497
vt 0.492649 0.367848
vt 0.403043 0.503812
vt 0.403044 0.647326
vt 0.033710 0.643728
vt 0.190763 0.923560
vt 0.033358 0.363896
vt 0.033710 0.363896
vt 0.190411 0.084064
vt 0.402692 0.360297
vt 0.408249 0.207147
vt 0.492649 0.207147
vt 0.403043 0.360297
vt 0.190763 0.084064
vt 0.408248 1.036942
vt 0.492649 1.036942
vt 0.483600 0.371280
vt 0.402049 0.371280
vt 0.402049 1.040375
vt 0.483600 1.040375
vt 0.450449 0.037941
vt 0.483600 0.210579
vt 0.402049 0.210579
vt 0.442825 0.041374
vt 0.000000 1.000000

vn -0.638128 0.294349 0.711443
vn -0.642530 0.401967 0.652363
vn -0.559226 0.259216 0.787447
vn -0.498864 0.170456 0.849753
vn -0.541655 0.127354 0.830898
vn -0.610974 0.343981 0.713014
vn -0.565845 0.386000 0.728576
vn -0.450441 0.104653 0.886652
vn -0.472922 0.220649 0.853029
vn 0.450441 -0.104654 -0.886651
vn 0.472922 -0.220649 -0.853029
vn 0.559224 -0.259215 -0.787449
vn 0.565844 -0.385999 -0.728577
vn 0.610972 -0.343981 -0.713014
vn 0.498864 -0.170457 -0.849753
vn 0.541655 -0.127354 -0.830897
vn 0.638128 -0.294350 -0.711443
vn 0.642530 -0.401962 -0.652367
vn -0.027735 -0.955177 0.294734
vn -0.769104 0.192311 -0.609504
vn 0.027734 0.955178 -0.294729
vn 0.769108 -0.192312 0.609499
vn -0.452526 0.700418 -0.551938
vn 0.452527 -0.700418 0.551937
vn -0.458264 0.348302 0.817728
vn 0.649536 -0.165189 -0.742170
vn 0.551769 -0.592533 0.586903
vn -0.343007 0.792395 -0.504437
vn -0.694613 -0.664999 -0.274390

f 267/277/526 268/278/526 269/279/526
f 270/280/527 269/279/527 268/278/527
f 269/281/528 270/282/528 271/283/528
f 272/284/528 271/283/528 270/282/528
f 271/285/529 272/286/529 273/287/529
f 274/288/530 273/287/530 272/286/530
f 275/289/531 267/277/531 269/279/531
f 273/287/529 276/290/529 271/285/529
f 277/291/532 275/289/532 278/292/532
f 269/279/531 278/292/531 275/289/531
f 278/293/528 269/281/528 279/294/528
f 271/283/528 279/294/528 269/281/528
f 279/295/533 271/285/533 280/296/533
f 276/290/534 280/296/534 271/285/534
f 281/280/535 268/278/535 282/279/535
f 267/277/536 282/279/536 268/278/536
f 283/284/537 281/282/537 284/283/537
f 282/281/537 284/283/537 281/282/537
f 274/288/538 283/286/538 273/287/538
f 284/285/539 273/287/539 283/286/539
f 282/279/540 267/277/540 275/289/540
f 273/287/539 284/285/539 276/290/539
f 282/279/540 275/289/540 285/292/540
f 277/291/541 285/292/541 275/289/541
f 284/283/537 282/281/537 286/294/537
f 285/293/537 286/294/537 282/281/537
f 276/290/542 284/285/542 280/296/542
f 286/295/543 280/296/543 284/285/543
f 270/280/544 268/278/544 281/280/544
f 283/286/545 274/288/545 272/286/545
f 279/295/546 280/296/546 286/295/546
f 285/292/547 277/291/547 278/292/547
f 272/284/528 270/282/528 287/297/528
f 287/297/528 288/298/528 272/284/528
f 281/282/537 283/284/537 289/298/537
f 289/298/537 290/297/537 281/282/537
f 270/299/548 281/300/548 290/301/548
f 290/301/548 287/302/548 270/299/548
f 283/300/549 272/299/549 288/302/549
f 288/302/549 289/301/549 283/300/549
f 278/293/550 279/294/550 291/303/550
f 286/294/551 285/293/551 291/303/551
f 279/304/552 286/305/552 291/306/552
f 285/305/553 278/304/553 291/306/553
f 289/298/549 288/297/549 292/298/549 293/307/549
f 287/297/548 290/298/548 294/297/548 295/307/548
f 290/297/537 289/298/537 293/297/537 294/307/537
f 288/298/528 287/297/528 295/298/528 292/307/528
f 294/297/554 293/298/554 295/297/554
f 292/298/554 295/297/554 293/298/554

