mtllib anim_barb_attack_new1_axe_000075.mtl

o fat
usemtl axe.001
s off

v -71.399948 47.158642 -30.951012
v -64.438408 46.174820 -28.904079
v -69.175903 43.043541 -38.104820
v -66.584511 43.510288 -36.044071
v -67.950500 41.827621 -39.370361
v -65.359100 42.294369 -37.309612
v -61.197392 37.034958 -41.487770
v -58.053242 39.839020 -35.498421
v -76.452782 46.248520 -34.969162
v -66.250221 36.124847 -45.505909
v -79.596931 43.444481 -40.958500
v -71.767311 42.576782 -40.165573
v -70.541893 41.360851 -41.431099
v -73.211761 37.108669 -47.552837
v -67.108276 41.922642 -35.025829
v -69.699677 41.455879 -37.086571
v -65.882881 40.706718 -36.291359
v -68.474266 40.239948 -38.352100
v -72.291061 40.989117 -39.147308
v -71.065666 39.773201 -40.412849
v -40.725441 48.168011 -15.480309
v -39.500042 46.952091 -16.745850
v -40.023819 45.364433 -15.727591
v -40.478081 50.818237 -12.486230
v -76.873550 40.192062 -44.628811
v -12.537971 51.810143 4.694330
v -13.128170 50.256981 5.625560
v -14.287070 51.438351 6.978180
v -13.763420 53.026016 5.959870

vt 0.033358 0.643728
vt 0.190411 0.923560
vt 0.402692 0.503812
vt 0.402692 0.647326
vt 0.408249 0.287497
vt 0.408249 0.367848
vt 0.492649 0.287497
vt 0.492649 0.367848
vt 0.403043 0.503812
vt 0.403044 0.647326
vt 0.033710 0.643728
vt 0.190763 0.923560
vt 0.033358 0.363896
vt 0.033710 0.363896
vt 0.190411 0.084064
vt 0.402692 0.360297
vt 0.408249 0.207147
vt 0.492649 0.207147
vt 0.403043 0.360297
vt 0.190763 0.084064
vt 0.408248 1.036942
vt 0.492649 1.036942
vt 0.483600 0.371280
vt 0.402049 0.371280
vt 0.402049 1.040375
vt 0.483600 1.040375
vt 0.450449 0.037941
vt 0.483600 0.210579
vt 0.402049 0.210579
vt 0.442825 0.041374
vt 0.000000 1.000000

vn 0.247787 0.871085 -0.424042
vn 0.139972 0.913148 -0.382843
vn 0.267571 0.811062 -0.520177
vn 0.336428 0.734448 -0.589408
vn 0.385366 0.741387 -0.549398
vn 0.194595 0.875181 -0.442935
vn 0.144535 0.864851 -0.480774
vn 0.382979 0.672018 -0.633813
vn 0.283814 0.740300 -0.609430
vn -0.382980 -0.672017 0.633813
vn -0.283814 -0.740300 0.609430
vn -0.267570 -0.811061 0.520179
vn -0.144536 -0.864850 0.480774
vn -0.194595 -0.875180 0.442936
vn -0.336426 -0.734447 0.589410
vn -0.385366 -0.741387 0.549398
vn -0.247786 -0.871086 0.424042
vn -0.139974 -0.913147 0.382844
vn 0.913493 -0.385255 -0.130801
vn -0.024408 0.545395 0.837824
vn -0.913493 0.385256 0.130800
vn 0.024407 -0.545398 -0.837822
vn -0.467781 -0.480030 0.742127
vn -0.637945 0.553709 0.535194
vn 0.379527 0.676985 -0.630595
vn 0.572487 -0.568063 -0.591239
vn 0.158319 0.784115 -0.600082
vn -0.371729 -0.822557 0.430369
vn 0.449523 -0.582588 -0.677142
vn -0.682452 0.540630 0.491912
vn 0.572140 -0.569344 -0.590342
vn 0.092231 0.964111 -0.248966
vn -0.458576 -0.578524 0.674550
vn 0.267527 0.811061 -0.520202
vn 0.801081 0.112807 0.587830
vn 0.759849 0.096704 0.642867

f 1/1/1 2/2/1 3/3/1
f 4/4/2 3/3/2 2/2/2
f 3/5/3 4/6/3 5/7/3
f 6/8/3 5/7/3 4/6/3
f 5/9/4 6/10/4 7/11/4
f 8/12/5 7/11/5 6/10/5
f 9/13/6 1/1/6 3/3/6
f 7/11/4 10/14/4 5/9/4
f 11/15/7 9/13/7 12/16/7
f 3/3/6 12/16/6 9/13/6
f 12/17/3 3/5/3 13/18/3
f 5/7/3 13/18/3 3/5/3
f 13/19/8 5/9/8 14/20/8
f 10/14/9 14/20/9 5/9/9
f 15/4/10 2/2/10 16/3/10
f 1/1/11 16/3/11 2/2/11
f 17/8/12 15/6/12 18/7/12
f 16/5/12 18/7/12 15/6/12
f 8/12/13 17/10/13 7/11/13
f 18/9/14 7/11/14 17/10/14
f 16/3/15 1/1/15 9/13/15
f 7/11/14 18/9/14 10/14/14
f 16/3/15 9/13/15 19/16/15
f 11/15/16 19/16/16 9/13/16
f 18/7/12 16/5/12 20/18/12
f 19/17/12 20/18/12 16/5/12
f 10/14/17 18/9/17 14/20/17
f 20/19/18 14/20/18 18/9/18
f 4/4/19 2/2/19 15/4/19
f 17/10/20 8/12/20 6/10/20
f 13/19/21 14/20/21 20/19/21
f 19/16/22 11/15/22 12/16/22
f 6/8/3 4/6/3 21/21/3
f 21/21/3 22/22/3 6/8/3
f 15/6/12 17/8/12 23/22/12
f 23/22/23 24/21/23 15/6/23
f 4/23/24 15/24/24 24/25/24
f 24/25/25 21/26/25 4/23/25
f 17/24/26 6/23/26 22/26/26
f 22/26/26 23/25/26 17/24/26
f 12/17/27 13/18/27 25/27/27
f 20/18/28 19/17/28 25/27/28
f 13/28/29 20/29/29 25/30/29
f 19/29/30 12/28/30 25/30/30
f 23/22/31 22/21/31 26/22/31 27/31/31
f 21/21/32 24/22/32 28/21/32 29/31/32
f 24/21/33 23/22/33 27/21/33 28/31/33
f 22/22/34 21/21/34 29/22/34 26/31/34
f 28/21/35 27/22/35 29/21/35
f 26/22/36 29/21/36 27/22/36

