# Max2Obj Version 4.0 Mar 10th, 2001
#
mtllib ./barbidle_05.mtl
g
# object (null) to come ...
#
v  1.519102 37.164795 7.116486
v  0.322676 37.137596 2.432037
v  -0.017807 37.631256 -2.712311
v  6.969807 51.489681 -0.376556
v  4.322460 50.950909 -4.571228
v  -1.143318 58.808159 -8.499207
v  8.141247 64.445938 -9.541840
v  7.454876 57.154659 -2.611603
v  -0.117519 51.071281 -4.703003
v  5.720406 61.136780 -7.035767
v  1.466717 55.100227 -7.433350
v  5.294041 55.913368 -7.306458
v  -0.169458 35.481960 -4.254303
v  4.830582 36.393642 -5.549896
v  10.828167 37.912727 -0.789703
v  8.790207 36.411381 6.226563
v  3.626698 35.914776 8.198547
v  9.722454 38.655163 -0.391357
v  6.421642 37.669155 5.942749
v  4.272499 38.216087 -4.653534
v  0.913464 37.711594 -3.635498
v  0.806271 51.862904 5.567841
v  4.341732 52.011520 4.435669
v  -1.372128 66.448318 -8.902405
v  -1.323753 64.466850 -8.690033
v  7.184307 63.324730 5.519287
v  1.202457 59.051163 5.560272
v  6.031059 59.009361 4.360626
v  10.350563 68.106911 -5.250946
v  10.912003 65.865067 -2.309235
v  8.262138 62.356598 -1.022797
v  9.451202 67.104591 -8.825623
v  1.595837 64.723938 6.457184
v  6.739201 66.007706 4.115295
v  4.040062 69.474716 -7.037689
v  0.687702 69.421539 2.875488
v  3.304384 70.181427 1.764496
v  2.677063 75.490913 -1.423035
v  5.329071 71.017723 -3.011902
v  -0.004597 76.111954 -2.183380
v  -0.325628 73.137932 -4.972198
v  2.828341 73.024117 -4.562592
v  -0.729721 70.880348 -7.448181
v  5.361332 47.305492 5.703918
v  0.327349 47.383636 6.244629
v  8.446178 46.624741 0.609924
v  5.130608 45.785477 -4.534882
v  0.022367 45.650944 -5.370392
v  11.200302 61.913078 -3.775299
v  11.851460 62.574654 -8.935699
v  12.307796 62.547909 -6.224274
v  8.979313 61.765083 -11.034271
v  7.964336 60.570766 -2.686707
v  0.491959 80.717819 3.467529
v  0.765034 79.422974 6.685852
v  0.760736 76.217964 6.675385
v  0.863840 74.227592 7.909210
v  0.814411 72.044510 7.356812
v  0.810848 73.625824 7.295349
v  0.823454 69.259789 7.497589
v  0.199121 80.120895 0.041016
v  2.140697 72.253021 6.104767
v  2.617397 73.622643 6.028290
v  1.319338 75.464073 6.296021
v  3.651438 75.087410 4.015167
v  3.490829 70.701553 2.844940
v  3.191814 76.874771 6.254059
v  3.709852 76.343941 1.205475
v  1.987930 79.464638 6.170959
v  3.531086 78.705414 5.094269
v  2.136822 80.728233 3.344849
v  1.823654 73.644089 6.716827
v  2.877731 69.689079 4.967743
v  2.100294 69.271271 6.748993
v  3.553001 78.681732 1.196381
v  2.965374 79.906540 0.702545
v  3.022488 75.586212 5.688904
v  13.687897 60.461105 -7.814209
v  12.949734 60.033531 -4.175568
v  10.044121 59.381027 -10.873474
v  10.303761 46.036831 -6.346069
v  13.581532 45.934734 -8.282410
v  15.268158 47.024349 -6.178192
v  14.125492 47.803059 -3.477478
v  11.334591 47.475212 -2.963593
v  9.586292 50.331623 -7.821716
v  12.578747 50.676197 -9.614136
v  14.057178 51.520893 -7.388641
v  13.251896 51.718765 -5.357819
v  10.886700 50.320339 -4.598267
v  7.689011 54.973461 -7.993805
v  11.989529 52.704487 -9.691254
v  14.236084 56.833813 -7.703400
v  13.279408 56.490147 -4.337463
v  9.214153 55.289631 -3.652039
v  12.768742 49.192051 -8.892761
v  10.459583 52.086006 -4.986145
v  11.503109 55.281067 -10.767700
v  12.653633 39.831287 -3.648560
v  14.142639 39.658485 -4.808990
v  15.372475 40.203091 -4.018402
v  14.838745 40.833397 -2.318176
v  13.256069 40.727356 -1.837158
v  13.538082 37.318130 0.323151
v  15.388508 37.014984 0.221619
v  12.934811 36.656849 1.284058
v  12.949223 35.871838 2.599518
v  12.035927 38.768318 0.370270
v  13.250687 38.395851 0.950867
v  11.971424 37.115009 1.843353
v  13.054771 37.215332 2.007172
v  12.136559 35.864483 2.375854
v  14.068836 35.343952 1.049011
v  14.695553 32.386322 2.059326
v  15.294384 34.939011 1.041809
v  14.536636 35.491467 -4.333313
v  14.878807 33.684475 -3.624359
v  15.362595 31.282677 -2.028198
v  15.774937 35.846058 -3.894165
v  15.777016 34.026318 -3.189697
v  14.101097 38.086208 0.487549
v  7.148891 31.754543 5.035217
v  3.799355 17.235483 -1.501343
v  5.528378 18.569923 -6.380096
v  10.837357 18.326916 -3.904175
v  8.159901 16.929998 0.902954
v  3.374321 25.227741 0.682129
v  5.153416 26.573133 -3.427704
v  9.018246 25.767311 -1.430573
v  7.574978 22.552799 1.759827
v  7.128765 27.251709 2.716461
v  7.612278 24.445831 2.759705
v  10.153885 29.544830 -1.404724
v  5.880222 3.894064 -3.937347
v  7.196918 5.251124 -7.137970
v  10.599648 4.693978 -5.533539
v  9.560642 7.570694 -4.865997
v  8.934963 5.733030 -2.334900
v  6.154568 7.034490 -3.703857
v  6.308758 0.174955 -7.004181
v  9.232769 0.691800 -7.991150
v  8.272316 0.604923 1.216309
v  14.054356 1.635599 -0.749878
v  11.626934 3.286694 3.626068
v  14.259869 1.725494 3.416016
v  10.688255 1.098785 5.291992
v  -6.482016 51.422478 1.249878
v  -4.767471 51.193848 -3.365143
v  -10.427097 64.543671 -5.962708
v  -7.374247 57.204803 -0.225464
v  -6.625227 61.438248 -3.277161
v  -3.162157 55.114037 -6.711212
v  -6.782005 55.951244 -5.395630
v  -5.069950 36.226860 -5.266418
v  -10.515911 37.634510 0.158447
v  -7.698318 36.141624 6.873352
v  -9.382021 38.393440 0.450745
v  -5.355453 37.422825 6.340881
v  -4.482742 38.071285 -4.431305
v  -1.034348 37.605785 -3.809601
v  -2.798189 51.671974 5.508148
v  -4.009142 63.382767 7.641388
v  -3.755272 59.045246 5.980988
v  -10.762020 68.458366 -1.581024
v  -10.505566 66.734505 1.708344
v  -7.977270 63.053448 2.742371
v  -10.689651 67.094292 -5.168518
v  -4.006226 66.064873 6.205719
v  -5.621365 69.521431 -5.314514
v  -2.098581 70.170547 2.532410
v  -2.489979 75.488663 -0.915619
v  -5.376150 71.094658 -1.202942
v  -3.311863 73.014343 -3.873657
v  -4.306446 46.832748 6.211761
v  -8.084328 46.413960 1.344299
v  -5.316769 45.886345 -4.048859
v  -11.908736 62.272423 0.260284
v  -12.766098 62.607300 -4.944061
v  -13.149593 62.719868 -2.192780
v  -9.891724 61.798328 -7.076904
v  -8.567141 61.098747 1.256958
v  -0.704281 72.256042 6.347382
v  -1.184153 73.626678 6.352478
v  0.144373 75.465324 6.396210
v  -2.541042 75.093994 4.543243
v  -2.590155 70.708015 3.363525
v  -1.705191 76.879974 6.671661
v  -3.071709 76.351143 1.783813
v  -0.527296 79.467308 6.385437
v  -2.232075 78.711533 5.585754
v  -1.149897 80.731728 3.625153
v  -0.285248 73.646332 6.896667
v  -1.628609 69.693871 5.352020
v  -0.561674 69.274101 6.975983
v  -2.913734 78.688599 1.747833
v  -2.415625 79.912254 1.161407
v  -1.636723 75.591164 6.086212
v  -14.393444 60.467899 -3.861023
v  -13.702713 60.255421 -0.163177
v  -10.596827 59.413651 -6.786896
v  -10.417776 46.378250 -1.226196
v  -13.542675 45.833534 -3.332916
v  -15.421010 47.106884 -1.514099
v  -14.508415 48.308681 1.118347
v  -11.748081 48.207623 1.849182
v  -9.774433 50.478046 -3.174042
v  -12.612601 50.535248 -5.231049
v  -14.302860 51.516075 -3.221130
v  -13.682809 51.921513 -1.155060
v  -11.334759 50.749695 -0.098297
v  -8.080561 55.260498 -3.514954
v  -12.076468 52.687950 -5.394989
v  -14.710136 56.810913 -3.768402
v  -13.969221 56.670975 -0.319366
v  -9.905298 55.702221 0.681213
v  -12.819868 49.068832 -4.357544
v  -10.975359 52.379204 -0.543823
v  -11.657581 55.246326 -6.559967
v  -12.676028 40.484451 2.133423
v  -14.103222 40.089211 0.954193
v  -15.389460 40.675804 1.618408
v  -14.933503 41.542294 3.288574
v  -13.394706 41.557331 3.797363
v  -13.643229 38.394531 6.328308
v  -15.480595 38.025574 6.205139
v  -13.056327 37.867962 7.376862
v  -13.095878 37.238106 8.774078
v  -12.179088 39.882404 6.252869
v  -13.404418 39.547379 6.833832
v  -12.125028 38.417110 7.908600
v  -13.215932 38.500607 8.027161
v  -12.276060 37.229359 8.578400
v  -14.147038 36.502018 7.260986
v  -14.730898 33.662670 8.587128
v  -15.360603 36.062454 7.262329
v  -14.432086 36.015610 1.885864
v  -14.750913 34.295925 2.786469
v  -15.227087 32.076889 4.636200
v  -15.693626 36.381168 2.241882
v  -15.672244 34.658005 3.150452
v  -14.230436 39.162319 6.382935
v  -6.193092 31.539970 5.490845
v  -3.360018 16.928688 -0.924561
v  -5.534809 17.987347 -5.691406
v  -10.590912 17.915894 -2.723969
v  -7.478619 16.783745 1.886902
v  -2.764822 25.055964 0.861450
v  -4.915503 26.340233 -3.093628
v  -8.577391 25.496700 -0.764648
v  -6.827969 22.399731 2.374786
v  -6.351669 27.051107 3.193970
v  -6.795300 24.285418 3.312531
v  -9.766230 29.268141 -0.644653
v  -5.661171 3.514864 -2.326080
v  -7.258146 4.644543 -5.475525
v  -10.491772 4.174584 -3.532990
v  -9.407524 7.112053 -3.145050
v  -8.554276 5.439992 -0.577576
v  -5.907196 6.634170 -2.273926
v  -6.271439 -0.406397 -5.065521
v  -9.281555 0.004907 -5.814606
v  -7.472580 0.598421 3.251221
v  -13.430677 1.412580 1.768524
v  -10.640490 3.407823 5.767365
v  -13.252081 1.804281 5.915894
v  -9.511690 1.358366 7.490417
# 266 vertices

vt  0.414517 0.485338 0.000000
vt  0.489174 0.497239 0.000000
vt  0.550479 0.485338 0.000000
vt  0.329118 0.504113 0.000000
vt  0.420682 0.504388 0.000000
vt  0.490853 0.675485 0.000000
vt  0.356970 0.710738 0.000000
vt  0.307767 0.663467 0.000000
vt  0.491001 0.506534 0.000000
vt  0.272881 0.708251 0.000000
vt  0.307693 0.663467 0.000000
vt  0.458986 0.602657 0.000000
vt  0.390374 0.619683 0.000000
vt  0.694409 0.971380 0.000000
vt  0.584242 0.936155 0.000000
vt  0.501054 0.950636 0.000000
vt  0.578845 0.971377 0.000000
vt  0.691613 0.940228 0.000000
vt  0.529882 0.993867 0.000000
vt  0.597833 0.993868 0.000000
vt  0.684209 0.993870 0.000000
vt  0.689094 0.993870 0.000000
vt  0.240700 0.512959 0.000000
vt  0.160773 0.512959 0.000000
vt  0.490853 0.820915 0.000000
vt  0.357039 0.710738 0.000000
vt  0.490853 0.781888 0.000000
vt  0.131880 0.753091 0.000000
vt  0.240556 0.660920 0.000000
vt  0.133663 0.660928 0.000000
vt  0.060606 0.782384 0.000000
vt  0.058190 0.859642 0.000000
vt  0.052544 0.886601 0.000000
vt  0.298691 0.847983 0.000000
vt  0.060014 0.783494 0.000000
vt  0.240556 0.781375 0.000000
vt  0.136145 0.808744 0.000000
vt  0.390182 0.870896 0.000000
vt  0.235241 0.891030 0.000000
vt  0.181129 0.899551 0.000000
vt  0.172936 0.966074 0.000000
vt  0.181129 0.899551 0.000000
vt  0.145152 0.921474 0.000000
vt  0.490646 0.999330 0.000000
vt  0.456563 0.999059 0.000000
vt  0.491140 0.942697 0.000000
vt  0.429989 0.941889 0.000000
vt  0.490853 0.898039 0.000000
vt  0.877923 0.002315 0.000000
vt  0.710756 0.001536 0.000000
vt  0.812168 0.002315 0.000000
vt  0.813217 0.120956 0.000000
vt  0.701416 0.118225 0.000000
vt  0.872775 0.120438 0.000000
vt  0.002866 0.854679 0.000000
vt  0.272881 0.708251 0.000000
vt  0.247300 0.848527 0.000000
vt  0.243886 0.876138 0.000000
vt  0.251604 0.781884 0.000000
vt  0.006948 0.782948 0.000000
vt  0.006948 0.782948 0.000000
vt  0.745560 1.001324 0.000000
vt  0.747491 0.935506 0.000000
vt  0.747491 0.878462 0.000000
vt  0.747491 0.808438 0.000000
vt  0.748639 0.732530 0.000000
vt  0.747491 0.790807 0.000000
vt  0.746944 0.628012 0.000000
vt  0.747085 0.666819 0.000000
vt  0.550618 0.934468 0.000000
vt  0.720762 0.730332 0.000000
vt  0.705811 0.784366 0.000000
vt  0.729837 0.853035 0.000000
vt  0.674684 0.829607 0.000000
vt  0.654033 0.662928 0.000000
vt  0.654033 0.662928 0.000000
vt  0.695349 0.885675 0.000000
vt  0.623758 0.856571 0.000000
vt  0.716351 0.931575 0.000000
vt  0.676247 0.904603 0.000000
vt  0.649719 0.961956 0.000000
vt  0.725611 0.781438 0.000000
vt  0.747491 0.878462 0.000000
vt  0.703232 0.671848 0.000000
vt  0.731857 0.666086 0.000000
vt  0.611291 0.885598 0.000000
vt  0.604148 0.909350 0.000000
vt  0.697736 0.853617 0.000000
vt  0.695349 0.885675 0.000000
vt  0.695349 0.885675 0.000000
vt  0.669444 0.510287 0.000000
vt  0.578607 0.510287 0.000000
vt  0.756457 0.510287 0.000000
vt  0.875912 0.308662 0.000000
vt  0.758260 0.308662 0.000000
vt  0.671223 0.308662 0.000000
vt  0.577057 0.308662 0.000000
vt  0.498247 0.308662 0.000000
vt  0.875566 0.382888 0.000000
vt  0.758924 0.382888 0.000000
vt  0.669163 0.382888 0.000000
vt  0.584325 0.382888 0.000000
vt  0.498223 0.363687 0.000000
vt  0.877240 0.461159 0.000000
vt  0.759483 0.410364 0.000000
vt  0.665903 0.461159 0.000000
vt  0.580075 0.461159 0.000000
vt  0.992418 0.461159 0.000000
vt  0.759996 0.360654 0.000000
vt  0.498223 0.402657 0.000000
vt  0.760539 0.449273 0.000000
vt  0.858161 0.196355 0.000000
vt  0.762705 0.196431 0.000000
vt  0.690657 0.196417 0.000000
vt  0.588027 0.196417 0.000000
vt  0.498144 0.196431 0.000000
vt  0.356438 0.030356 0.000000
vt  0.369327 0.043627 0.000000
vt  0.380090 0.017573 0.000000
vt  0.416197 0.004791 0.000000
vt  0.316032 0.012201 0.000000
vt  0.336848 0.019568 0.000000
vt  0.371147 0.002582 0.000000
vt  0.375723 0.009258 0.000000
vt  0.408124 0.000758 0.000000
vt  0.448349 0.035630 0.000000
vt  0.498209 0.039288 0.000000
vt  0.429228 0.045736 0.000000
vt  0.102506 0.115410 0.000000
vt  0.153549 0.117195 0.000000
vt  0.189513 0.114692 0.000000
vt  0.228429 0.109580 0.000000
vt  0.355355 0.108206 0.000000
vt  0.406548 0.108121 0.000000
vt  0.342839 0.029458 0.000000
vt  0.413806 0.033644 0.000000
vt  0.461840 0.047992 0.000000
vt  0.442212 0.108407 0.000000
vt  0.458693 0.603155 0.000000
vt  0.357039 0.710738 0.000000
vt  0.420389 0.504181 0.000000
vt  0.307693 0.663467 0.000000
vt  0.389206 0.622726 0.000000
vt  0.389206 0.622726 0.000000
vt  0.309151 0.663075 0.000000
vt  0.390855 0.620128 0.000000
vt  0.730001 0.975635 0.000000
vt  0.055577 0.663688 0.000000
vt  0.067037 0.515196 0.000000
vt  0.131877 0.752996 0.000000
vt  0.294173 0.886121 0.000000
vt  0.142740 0.921054 0.000000
vt  0.389917 0.922986 0.000000
vt  0.456563 0.999059 0.000000
vt  0.294173 0.886121 0.000000
vt  0.389917 0.922986 0.000000
vt  0.389917 0.922986 0.000000
vt  0.790107 0.184348 0.000000
vt  0.701372 0.182427 0.000000
vt  0.790107 0.184348 0.000000
vt  0.857243 0.184348 0.000000
vt  0.790107 0.184348 0.000000
vt  0.857243 0.184348 0.000000
vt  0.058190 0.859642 0.000000
vt  0.052544 0.886601 0.000000
vt  0.055608 0.663958 0.000000
vt  0.061197 0.782654 0.000000
vt  0.027518 0.706813 0.000000
vt  0.357109 0.710738 0.000000
vt  0.298691 0.847983 0.000000
vt  0.058190 0.859642 0.000000
vt  0.060606 0.782384 0.000000
vt  0.294173 0.886121 0.000000
vt  -0.000514 0.880403 0.000000
vt  0.052544 0.886601 0.000000
vt  0.298691 0.847983 0.000000
vt  0.298691 0.847983 0.000000
vt  0.294173 0.886121 0.000000
vt  0.357109 0.710738 0.000000
vt  0.027518 0.706813 0.000000
vt  0.061197 0.782654 0.000000
vt  0.060606 0.782384 0.000000
vt  0.720473 0.730776 0.000000
vt  0.658187 0.605708 0.000000
vt  0.587609 0.811448 0.000000
vt  0.658187 0.605708 0.000000
vt  0.748523 0.593788 0.000000
vt  0.658187 0.605708 0.000000
vt  0.720379 0.731031 0.000000
vt  0.703232 0.671848 0.000000
vt  0.748523 0.593788 0.000000
vt  0.703659 0.671442 0.000000
vt  0.731857 0.666086 0.000000
vt  0.748639 0.732530 0.000000
vt  0.720379 0.731031 0.000000
vt  0.720762 0.730332 0.000000
vt  0.703186 0.671176 0.000000
vt  0.731857 0.666086 0.000000
vt  0.703232 0.671848 0.000000
vt  0.747085 0.666819 0.000000
vt  0.748639 0.732530 0.000000
vt  0.587609 0.811448 0.000000
vt  0.587609 0.811448 0.000000
vt  0.649719 0.961956 0.000000
vt  0.649719 0.961956 0.000000
vt  0.550618 0.823662 0.000000
vt  0.587609 0.811448 0.000000
vt  0.550618 0.823662 0.000000
vt  0.649719 0.961956 0.000000
vt  0.067037 0.515196 0.000000
vt  0.055608 0.663958 0.000000
vt  0.571978 0.557920 0.000000
vt  0.625864 0.557513 0.000000
vt  0.679695 0.557918 0.000000
vt  0.756032 0.560223 0.000000
vt  0.625864 0.557513 0.000000
vt  0.679695 0.557918 0.000000
vt  0.944262 0.560223 0.000000
vt  0.625864 0.557513 0.000000
vt  0.756032 0.560223 0.000000
vt  0.806202 0.560223 0.000000
vt  0.756032 0.560223 0.000000
vt  0.571978 0.557920 0.000000
vt  0.498275 0.560223 0.000000
vt  0.992439 0.363687 0.000000
vt  0.992597 0.308662 0.000000
vt  0.992439 0.363687 0.000000
vt  0.992438 0.402657 0.000000
vt  0.806202 0.560223 0.000000
vt  0.498220 0.461159 0.000000
vt  0.498275 0.560223 0.000000
vt  0.498220 0.461159 0.000000
vt  0.875438 0.575163 0.000000
vt  0.944262 0.560223 0.000000
vt  0.992439 0.363687 0.000000
vt  0.992438 0.402657 0.000000
vt  0.992438 0.402657 0.000000
vt  0.498220 0.461159 0.000000
vt  0.991918 0.196431 0.000000
vt  0.992597 0.308662 0.000000
vt  0.991918 0.196431 0.000000
vt  0.249292 0.041099 0.000000
vt  0.119423 0.002194 0.000000
vt  0.154876 0.002573 0.000000
vt  0.128136 0.016613 0.000000
vt  0.160447 0.001473 0.000000
vt  0.128136 0.016613 0.000000
vt  0.154876 0.002573 0.000000
vt  0.065726 0.014292 0.000000
vt  0.119423 0.002194 0.000000
vt  0.128136 0.016613 0.000000
vt  0.128136 0.016613 0.000000
vt  0.105093 0.028910 0.000000
vt  0.065726 0.014292 0.000000
vt  0.105093 0.028910 0.000000
vt  0.000825 0.069213 0.000000
vt  0.065726 0.014292 0.000000
vt  0.065726 0.014292 0.000000
vt  0.000825 0.069213 0.000000
vt  0.000703 0.039244 0.000000
vt  0.249292 0.041099 0.000000
vt  0.249314 0.055441 0.000000
vt  0.105093 0.028910 0.000000
vt  0.194639 0.033982 0.000000
vt  0.483032 0.114221 0.000000
vt  0.355217 0.119080 0.000000
vt  0.406174 0.120334 0.000000
vt  0.355217 0.119080 0.000000
vt  0.194639 0.033982 0.000000
vt  0.243215 0.037501 0.000000
vt  0.249314 0.055441 0.000000
vt  0.249314 0.089732 0.000000
vt  0.000825 0.069213 0.000000
vt  0.105093 0.028910 0.000000
vt  0.000703 0.095058 0.000000
vt  0.000825 0.069213 0.000000
vt  0.249314 0.089732 0.000000
vt  0.249292 0.105039 0.000000
vt  0.249314 0.089732 0.000000
vt  0.249292 0.105039 0.000000
vt  0.355217 0.119080 0.000000
vt  0.249314 0.055441 0.000000
vt  0.249314 0.055441 0.000000
vt  0.105093 0.028910 0.000000
vt  0.160984 0.032072 0.000000
vt  0.483032 0.114221 0.000000
vt  0.443088 0.117732 0.000000
vt  0.483032 0.114221 0.000000
vt  0.692830 0.969164 0.000000
vt  0.685579 0.991654 0.000000
vt  0.730212 0.975635 0.000000
vt  0.584242 0.936155 0.000000
vt  0.529882 0.993867 0.000000
vt  0.602549 0.993867 0.000000
vt  0.689094 0.993870 0.000000
vt  0.561277 0.000692 0.000000
vt  0.688827 -0.000098 0.000000
vt  0.564263 0.119120 0.000000
vt  0.697567 0.116528 0.000000
vt  0.507564 0.183764 0.000000
vt  0.505869 0.118716 0.000000
vt  0.580429 0.182675 0.000000
vt  0.697589 0.180917 0.000000
vt  0.507564 0.183764 0.000000
vt  0.580429 0.182675 0.000000
vt  0.697589 0.180917 0.000000
vt  0.503935 0.000692 0.000000
vt  0.505869 0.118716 0.000000
vt  0.503935 0.000692 0.000000
vt  0.489174 0.497239 0.000000
vt  0.351459 0.420971 0.000000
vt  0.352499 0.420971 0.000000
vt  0.000784 0.227894 0.000000
vt  0.105699 0.228145 0.000000
vt  0.216985 0.228421 0.000000
vt  0.351571 0.227894 0.000000
vt  0.023914 0.327327 0.000000
vt  0.104981 0.327662 0.000000
vt  0.216171 0.327327 0.000000
vt  0.351490 0.301452 0.000000
vt  0.352420 0.301452 0.000000
vt  0.025422 0.328212 0.000000
vt  0.216104 0.328075 0.000000
vt  0.351611 0.363299 0.000000
vt  0.352312 0.363299 0.000000
vt  0.351597 0.328057 0.000000
vt  0.352330 0.328057 0.000000
vt  0.104127 0.227894 0.000000
vt  0.216660 0.380224 0.000000
vt  0.104983 0.328371 0.000000
vt  0.352342 0.227894 0.000000
vt  0.009616 0.131504 0.000000
vt  0.104256 0.155747 0.000000
vt  0.105883 0.155747 0.000000
vt  0.223982 0.125749 0.000000
vt  0.216130 0.152222 0.000000
vt  0.351732 0.147623 0.000000
vt  0.352306 0.146326 0.000000
vt  0.469070 0.149411 0.000000
vt  0.989968 0.003451 0.000000
vt  0.909211 0.004273 0.000000
vt  0.996004 0.120663 0.000000
vt  0.989968 0.003451 0.000000
vt  0.909211 0.004273 0.000000
vt  0.885225 0.122889 0.000000
vt  0.885225 0.122889 0.000000
vt  0.996004 0.120663 0.000000
vt  0.943924 0.157220 0.000000
vt  0.507177 0.624822 0.000000
vt  0.600053 0.622523 0.000000
vt  0.943924 0.157220 0.000000
vt  0.217290 0.227894 0.000000
vt  0.217575 0.327327 0.000000
vt  0.217290 0.227894 0.000000
vt  0.489174 0.227894 0.000000
vt  0.489174 0.227894 0.000000
vt  0.471690 0.333380 0.000000
vt  0.217345 0.328075 0.000000
vt  0.470864 0.334174 0.000000
vt  0.217345 0.328075 0.000000
vt  0.217232 0.380224 0.000000
vt  0.217232 0.380224 0.000000
vt  0.470864 0.334174 0.000000
vt  0.217345 0.328075 0.000000
vt  0.470864 0.334174 0.000000
vt  0.229465 0.497239 0.000000
vt  0.351589 0.497239 0.000000
vt  0.352627 0.497239 0.000000
vt  0.217232 0.380224 0.000000
vt  0.229465 0.497239 0.000000
vt  0.072972 0.497239 0.000000
vt  0.470864 0.334174 0.000000
vt  0.072972 0.497239 0.000000
vt  0.002386 0.497239 0.000000
vt  0.218721 0.149411 0.000000
vt  0.223132 0.128232 0.000000
vt  0.483427 0.127273 0.000000
vt  0.017963 0.152222 0.000000
vt  0.105700 0.228142 0.000000
vt  0.104128 0.227914 0.000000
vt  0.017963 0.152222 0.000000
vt  0.000790 0.227921 0.000000
vt  0.017963 0.152222 0.000000
vt  0.104128 0.227914 0.000000
vt  0.216984 0.228396 0.000000
vt  0.105700 0.228142 0.000000
vt  0.217291 0.227882 0.000000
vt  0.218721 0.149411 0.000000
vt  0.351571 0.227971 0.000000
vt  0.351571 0.227971 0.000000
vt  0.218721 0.149411 0.000000
vt  0.352342 0.227879 0.000000
vt  0.489111 0.227891 0.000000
vt  0.352342 0.227879 0.000000
vt  0.971575 0.059997 0.000000
vt  0.948232 0.041698 0.000000
vt  0.948232 0.041698 0.000000
vt  0.971575 0.059997 0.000000
vt  0.925604 0.058708 0.000000
vt  0.597947 0.686709 0.000000
vt  0.501430 0.685191 0.000000
vt  0.516483 0.798440 0.000000
vt  0.516483 0.798440 0.000000
vt  0.594444 0.793024 0.000000
vt  0.597947 0.686709 0.000000
vt  0.925604 0.058708 0.000000
vt  0.950876 0.082499 0.000000
vt  0.948232 0.041698 0.000000
vt  0.925604 0.058708 0.000000
vt  0.950876 0.082499 0.000000
vt  0.971575 0.059997 0.000000
vt  0.950876 0.082499 0.000000
vt  0.950876 0.082499 0.000000
vt  0.501430 0.685191 0.000000
vt  0.501430 0.685191 0.000000
vt  0.597947 0.686709 0.000000
vt  0.901715 0.182549 0.000000
vt  0.901715 0.182549 0.000000
vt  0.982420 0.184037 0.000000
vt  0.982420 0.184037 0.000000
vt  0.216660 0.380224 0.000000
vt  0.104983 0.328371 0.000000
vt  0.133020 0.497239 0.000000
vt  0.229583 0.497239 0.000000
vt  0.133020 0.497239 0.000000
vt  0.133020 0.497239 0.000000
vt  0.072972 0.497239 0.000000
vt  0.414517 0.485338 0.000000
vt  0.489174 0.497239 0.000000
vt  0.550479 0.485338 0.000000
vt  0.329118 0.504113 0.000000
vt  0.420682 0.504388 0.000000
vt  0.490853 0.675485 0.000000
vt  0.356970 0.710738 0.000000
vt  0.307767 0.663467 0.000000
vt  0.491001 0.506534 0.000000
vt  0.272881 0.708251 0.000000
vt  0.307693 0.663467 0.000000
vt  0.458986 0.602657 0.000000
vt  0.390374 0.619683 0.000000
vt  0.694409 0.971380 0.000000
vt  0.584242 0.936155 0.000000
vt  0.501054 0.950636 0.000000
vt  0.578845 0.971377 0.000000
vt  0.691613 0.940228 0.000000
vt  0.529882 0.993867 0.000000
vt  0.597833 0.993868 0.000000
vt  0.684209 0.993870 0.000000
vt  0.689094 0.993870 0.000000
vt  0.240700 0.512959 0.000000
vt  0.160773 0.512959 0.000000
vt  0.490853 0.820915 0.000000
vt  0.357039 0.710738 0.000000
vt  0.490853 0.781888 0.000000
vt  0.131880 0.753091 0.000000
vt  0.240556 0.660920 0.000000
vt  0.133663 0.660928 0.000000
vt  0.060606 0.782384 0.000000
vt  0.058190 0.859642 0.000000
vt  0.052544 0.886601 0.000000
vt  0.298691 0.847983 0.000000
vt  0.060014 0.783494 0.000000
vt  0.240556 0.781375 0.000000
vt  0.136145 0.808744 0.000000
vt  0.390182 0.870896 0.000000
vt  0.235241 0.891030 0.000000
vt  0.181129 0.899551 0.000000
vt  0.172936 0.966074 0.000000
vt  0.181129 0.899551 0.000000
vt  0.145152 0.921474 0.000000
vt  0.490646 0.999330 0.000000
vt  0.456563 0.999059 0.000000
vt  0.491140 0.942697 0.000000
vt  0.429989 0.941889 0.000000
vt  0.490853 0.898039 0.000000
vt  0.877923 0.002315 0.000000
vt  0.710756 0.001536 0.000000
vt  0.812168 0.002315 0.000000
vt  0.813217 0.120956 0.000000
vt  0.701416 0.118225 0.000000
vt  0.872775 0.120438 0.000000
vt  0.002866 0.854679 0.000000
vt  0.272881 0.708251 0.000000
vt  0.247300 0.848527 0.000000
vt  0.243886 0.876138 0.000000
vt  0.251604 0.781884 0.000000
vt  0.006948 0.782948 0.000000
vt  0.006948 0.782948 0.000000
vt  0.745560 1.001324 0.000000
vt  0.747491 0.935506 0.000000
vt  0.747491 0.878462 0.000000
vt  0.747491 0.808438 0.000000
vt  0.748639 0.732530 0.000000
vt  0.747491 0.790807 0.000000
vt  0.746944 0.628012 0.000000
vt  0.747085 0.666819 0.000000
vt  0.550618 0.934468 0.000000
vt  0.720762 0.730332 0.000000
vt  0.705811 0.784366 0.000000
vt  0.729837 0.853035 0.000000
vt  0.674684 0.829607 0.000000
vt  0.654033 0.662928 0.000000
vt  0.654033 0.662928 0.000000
vt  0.695349 0.885675 0.000000
vt  0.623758 0.856571 0.000000
vt  0.716351 0.931575 0.000000
vt  0.676247 0.904603 0.000000
vt  0.649719 0.961956 0.000000
vt  0.725611 0.781438 0.000000
vt  0.747491 0.878462 0.000000
vt  0.703232 0.671848 0.000000
vt  0.731857 0.666086 0.000000
vt  0.611291 0.885598 0.000000
vt  0.604148 0.909350 0.000000
vt  0.697736 0.853617 0.000000
vt  0.695349 0.885675 0.000000
vt  0.695349 0.885675 0.000000
vt  0.669444 0.510287 0.000000
vt  0.578607 0.510287 0.000000
vt  0.756457 0.510287 0.000000
vt  0.875912 0.308662 0.000000
vt  0.758260 0.308662 0.000000
vt  0.671223 0.308662 0.000000
vt  0.577057 0.308662 0.000000
vt  0.498247 0.308662 0.000000
vt  0.875566 0.382888 0.000000
vt  0.758924 0.382888 0.000000
vt  0.669163 0.382888 0.000000
vt  0.584325 0.382888 0.000000
vt  0.498223 0.363687 0.000000
vt  0.877240 0.461159 0.000000
vt  0.759483 0.410364 0.000000
vt  0.665903 0.461159 0.000000
vt  0.580075 0.461159 0.000000
vt  0.992418 0.461159 0.000000
vt  0.759996 0.360654 0.000000
vt  0.498223 0.402657 0.000000
vt  0.760539 0.449273 0.000000
vt  0.858161 0.196355 0.000000
vt  0.762705 0.196431 0.000000
vt  0.690657 0.196417 0.000000
vt  0.588027 0.196417 0.000000
vt  0.498144 0.196431 0.000000
vt  0.356438 0.030356 0.000000
vt  0.369327 0.043627 0.000000
vt  0.380090 0.017573 0.000000
vt  0.416197 0.004791 0.000000
vt  0.316032 0.012201 0.000000
vt  0.336848 0.019568 0.000000
vt  0.371147 0.002582 0.000000
vt  0.375723 0.009258 0.000000
vt  0.408124 0.000758 0.000000
vt  0.448349 0.035630 0.000000
vt  0.498209 0.039288 0.000000
vt  0.429228 0.045736 0.000000
vt  0.102506 0.115410 0.000000
vt  0.153549 0.117195 0.000000
vt  0.189513 0.114692 0.000000
vt  0.228429 0.109580 0.000000
vt  0.355355 0.108206 0.000000
vt  0.406548 0.108121 0.000000
vt  0.342839 0.029458 0.000000
vt  0.413806 0.033644 0.000000
vt  0.461840 0.047992 0.000000
vt  0.442212 0.108407 0.000000
vt  0.458693 0.603155 0.000000
vt  0.357039 0.710738 0.000000
vt  0.420389 0.504181 0.000000
vt  0.307693 0.663467 0.000000
vt  0.389206 0.622726 0.000000
vt  0.389206 0.622726 0.000000
vt  0.309151 0.663075 0.000000
vt  0.390855 0.620128 0.000000
vt  0.730001 0.975635 0.000000
vt  0.055577 0.663688 0.000000
vt  0.067037 0.515196 0.000000
vt  0.131877 0.752996 0.000000
vt  0.294173 0.886121 0.000000
vt  0.142740 0.921054 0.000000
vt  0.389917 0.922986 0.000000
vt  0.456563 0.999059 0.000000
vt  0.294173 0.886121 0.000000
vt  0.389917 0.922986 0.000000
vt  0.389917 0.922986 0.000000
vt  0.790107 0.184348 0.000000
vt  0.701372 0.182427 0.000000
vt  0.790107 0.184348 0.000000
vt  0.857243 0.184348 0.000000
vt  0.790107 0.184348 0.000000
vt  0.857243 0.184348 0.000000
vt  0.058190 0.859642 0.000000
vt  0.052544 0.886601 0.000000
vt  0.055608 0.663958 0.000000
vt  0.061197 0.782654 0.000000
vt  0.027518 0.706813 0.000000
vt  0.357109 0.710738 0.000000
vt  0.298691 0.847983 0.000000
vt  0.058190 0.859642 0.000000
vt  0.060606 0.782384 0.000000
vt  0.294173 0.886121 0.000000
vt  -0.000514 0.880403 0.000000
vt  0.052544 0.886601 0.000000
vt  0.298691 0.847983 0.000000
vt  0.298691 0.847983 0.000000
vt  0.294173 0.886121 0.000000
vt  0.357109 0.710738 0.000000
vt  0.027518 0.706813 0.000000
vt  0.061197 0.782654 0.000000
vt  0.060606 0.782384 0.000000
vt  0.720473 0.730776 0.000000
vt  0.658187 0.605708 0.000000
vt  0.587609 0.811448 0.000000
vt  0.658187 0.605708 0.000000
vt  0.748523 0.593788 0.000000
vt  0.658187 0.605708 0.000000
vt  0.720379 0.731031 0.000000
vt  0.703232 0.671848 0.000000
vt  0.748523 0.593788 0.000000
vt  0.703659 0.671442 0.000000
vt  0.731857 0.666086 0.000000
vt  0.748639 0.732530 0.000000
vt  0.720379 0.731031 0.000000
vt  0.720762 0.730332 0.000000
vt  0.703186 0.671176 0.000000
vt  0.731857 0.666086 0.000000
vt  0.703232 0.671848 0.000000
vt  0.747085 0.666819 0.000000
vt  0.748639 0.732530 0.000000
vt  0.587609 0.811448 0.000000
vt  0.587609 0.811448 0.000000
vt  0.649719 0.961956 0.000000
vt  0.649719 0.961956 0.000000
vt  0.550618 0.823662 0.000000
vt  0.587609 0.811448 0.000000
vt  0.550618 0.823662 0.000000
vt  0.649719 0.961956 0.000000
vt  0.067037 0.515196 0.000000
vt  0.055608 0.663958 0.000000
vt  0.571978 0.557920 0.000000
vt  0.625864 0.557513 0.000000
vt  0.679695 0.557918 0.000000
vt  0.756032 0.560223 0.000000
vt  0.625864 0.557513 0.000000
vt  0.679695 0.557918 0.000000
vt  0.944262 0.560223 0.000000
vt  0.625864 0.557513 0.000000
vt  0.756032 0.560223 0.000000
vt  0.806202 0.560223 0.000000
vt  0.756032 0.560223 0.000000
vt  0.571978 0.557920 0.000000
vt  0.498275 0.560223 0.000000
vt  0.992439 0.363687 0.000000
vt  0.992597 0.308662 0.000000
vt  0.992439 0.363687 0.000000
vt  0.992438 0.402657 0.000000
vt  0.806202 0.560223 0.000000
vt  0.498220 0.461159 0.000000
vt  0.498275 0.560223 0.000000
vt  0.498220 0.461159 0.000000
vt  0.875438 0.575163 0.000000
vt  0.944262 0.560223 0.000000
vt  0.992439 0.363687 0.000000
vt  0.992438 0.402657 0.000000
vt  0.992438 0.402657 0.000000
vt  0.498220 0.461159 0.000000
vt  0.991918 0.196431 0.000000
vt  0.992597 0.308662 0.000000
vt  0.991918 0.196431 0.000000
vt  0.249292 0.041099 0.000000
vt  0.119423 0.002194 0.000000
vt  0.154876 0.002573 0.000000
vt  0.128136 0.016613 0.000000
vt  0.160447 0.001473 0.000000
vt  0.128136 0.016613 0.000000
vt  0.154876 0.002573 0.000000
vt  0.065726 0.014292 0.000000
vt  0.119423 0.002194 0.000000
vt  0.128136 0.016613 0.000000
vt  0.128136 0.016613 0.000000
vt  0.105093 0.028910 0.000000
vt  0.065726 0.014292 0.000000
vt  0.105093 0.028910 0.000000
vt  0.000825 0.069213 0.000000
vt  0.065726 0.014292 0.000000
vt  0.065726 0.014292 0.000000
vt  0.000825 0.069213 0.000000
vt  0.000703 0.039244 0.000000
vt  0.249292 0.041099 0.000000
vt  0.249314 0.055441 0.000000
vt  0.105093 0.028910 0.000000
vt  0.194639 0.033982 0.000000
vt  0.483032 0.114221 0.000000
vt  0.355217 0.119080 0.000000
vt  0.406174 0.120334 0.000000
vt  0.355217 0.119080 0.000000
vt  0.194639 0.033982 0.000000
vt  0.243215 0.037501 0.000000
vt  0.249314 0.055441 0.000000
vt  0.249314 0.089732 0.000000
vt  0.000825 0.069213 0.000000
vt  0.105093 0.028910 0.000000
vt  0.000703 0.095058 0.000000
vt  0.000825 0.069213 0.000000
vt  0.249314 0.089732 0.000000
vt  0.249292 0.105039 0.000000
vt  0.249314 0.089732 0.000000
vt  0.249292 0.105039 0.000000
vt  0.355217 0.119080 0.000000
vt  0.249314 0.055441 0.000000
vt  0.249314 0.055441 0.000000
vt  0.105093 0.028910 0.000000
vt  0.160984 0.032072 0.000000
vt  0.483032 0.114221 0.000000
vt  0.443088 0.117732 0.000000
vt  0.483032 0.114221 0.000000
vt  0.692830 0.969164 0.000000
vt  0.685579 0.991654 0.000000
vt  0.730212 0.975635 0.000000
vt  0.584242 0.936155 0.000000
vt  0.529882 0.993867 0.000000
vt  0.602549 0.993867 0.000000
vt  0.689094 0.993870 0.000000
vt  0.561277 0.000692 0.000000
vt  0.688827 -0.000098 0.000000
vt  0.564263 0.119120 0.000000
vt  0.697567 0.116528 0.000000
vt  0.507564 0.183764 0.000000
vt  0.505869 0.118716 0.000000
vt  0.580429 0.182675 0.000000
vt  0.697589 0.180917 0.000000
vt  0.507564 0.183764 0.000000
vt  0.580429 0.182675 0.000000
vt  0.697589 0.180917 0.000000
vt  0.503935 0.000692 0.000000
vt  0.505869 0.118716 0.000000
vt  0.503935 0.000692 0.000000
vt  0.489174 0.497239 0.000000
vt  0.351459 0.420971 0.000000
vt  0.352499 0.420971 0.000000
vt  0.000784 0.227894 0.000000
vt  0.105699 0.228145 0.000000
vt  0.216985 0.228421 0.000000
vt  0.351571 0.227894 0.000000
vt  0.023914 0.327327 0.000000
vt  0.104981 0.327662 0.000000
vt  0.216171 0.327327 0.000000
vt  0.351490 0.301452 0.000000
vt  0.352420 0.301452 0.000000
vt  0.025422 0.328212 0.000000
vt  0.216104 0.328075 0.000000
vt  0.351611 0.363299 0.000000
vt  0.352312 0.363299 0.000000
vt  0.351597 0.328057 0.000000
vt  0.352330 0.328057 0.000000
vt  0.104127 0.227894 0.000000
vt  0.216660 0.380224 0.000000
vt  0.104983 0.328371 0.000000
vt  0.352342 0.227894 0.000000
vt  0.009616 0.131504 0.000000
vt  0.104256 0.155747 0.000000
vt  0.105883 0.155747 0.000000
vt  0.223982 0.125749 0.000000
vt  0.216130 0.152222 0.000000
vt  0.351732 0.147623 0.000000
vt  0.352306 0.146326 0.000000
vt  0.469070 0.149411 0.000000
vt  0.989968 0.003451 0.000000
vt  0.909211 0.004273 0.000000
vt  0.996004 0.120663 0.000000
vt  0.989968 0.003451 0.000000
vt  0.909211 0.004273 0.000000
vt  0.885225 0.122889 0.000000
vt  0.885225 0.122889 0.000000
vt  0.996004 0.120663 0.000000
vt  0.943924 0.157220 0.000000
vt  0.507177 0.624822 0.000000
vt  0.600053 0.622523 0.000000
vt  0.943924 0.157220 0.000000
vt  0.217290 0.227894 0.000000
vt  0.217575 0.327327 0.000000
vt  0.217290 0.227894 0.000000
vt  0.489174 0.227894 0.000000
vt  0.489174 0.227894 0.000000
vt  0.471690 0.333380 0.000000
vt  0.217345 0.328075 0.000000
vt  0.470864 0.334174 0.000000
vt  0.217345 0.328075 0.000000
vt  0.217232 0.380224 0.000000
vt  0.217232 0.380224 0.000000
vt  0.470864 0.334174 0.000000
vt  0.217345 0.328075 0.000000
vt  0.470864 0.334174 0.000000
vt  0.229465 0.497239 0.000000
vt  0.351589 0.497239 0.000000
vt  0.352627 0.497239 0.000000
vt  0.217232 0.380224 0.000000
vt  0.229465 0.497239 0.000000
vt  0.072972 0.497239 0.000000
vt  0.470864 0.334174 0.000000
vt  0.072972 0.497239 0.000000
vt  0.002386 0.497239 0.000000
vt  0.218721 0.149411 0.000000
vt  0.223132 0.128232 0.000000
vt  0.483427 0.127273 0.000000
vt  0.017963 0.152222 0.000000
vt  0.105700 0.228142 0.000000
vt  0.104128 0.227914 0.000000
vt  0.017963 0.152222 0.000000
vt  0.000790 0.227921 0.000000
vt  0.017963 0.152222 0.000000
vt  0.104128 0.227914 0.000000
vt  0.216984 0.228396 0.000000
vt  0.105700 0.228142 0.000000
vt  0.217291 0.227882 0.000000
vt  0.218721 0.149411 0.000000
vt  0.351571 0.227971 0.000000
vt  0.351571 0.227971 0.000000
vt  0.218721 0.149411 0.000000
vt  0.352342 0.227879 0.000000
vt  0.489111 0.227891 0.000000
vt  0.352342 0.227879 0.000000
vt  0.971575 0.059997 0.000000
vt  0.948232 0.041698 0.000000
vt  0.948232 0.041698 0.000000
vt  0.971575 0.059997 0.000000
vt  0.925604 0.058708 0.000000
vt  0.597947 0.686709 0.000000
vt  0.501430 0.685191 0.000000
vt  0.516483 0.798440 0.000000
vt  0.516483 0.798440 0.000000
vt  0.594444 0.793024 0.000000
vt  0.597947 0.686709 0.000000
vt  0.925604 0.058708 0.000000
vt  0.950876 0.082499 0.000000
vt  0.948232 0.041698 0.000000
vt  0.925604 0.058708 0.000000
vt  0.950876 0.082499 0.000000
vt  0.971575 0.059997 0.000000
vt  0.950876 0.082499 0.000000
vt  0.950876 0.082499 0.000000
vt  0.501430 0.685191 0.000000
vt  0.501430 0.685191 0.000000
vt  0.597947 0.686709 0.000000
vt  0.901715 0.182549 0.000000
vt  0.901715 0.182549 0.000000
vt  0.982420 0.184037 0.000000
vt  0.982420 0.184037 0.000000
vt  0.216660 0.380224 0.000000
vt  0.104983 0.328371 0.000000
vt  0.133020 0.497239 0.000000
vt  0.229583 0.497239 0.000000
vt  0.133020 0.497239 0.000000
vt  0.133020 0.497239 0.000000
vt  0.072972 0.497239 0.000000
# 854 texture vertices

vn  -0.800000 0.000000 0.600000
vn  0.053040 -0.834853 0.547912
vn  -0.800000 0.000000 0.600000
vn  0.997345 0.072791 -0.001869
vn  0.532987 -0.303693 -0.789744
vn  -0.172992 -0.247493 -0.953321
vn  -0.085748 0.134309 -0.987223
vn  0.992320 -0.105053 -0.065305
vn  -0.112209 -0.219447 -0.969150
vn  -0.963714 -0.084922 -0.253067
vn  -0.004471 -0.417540 -0.908648
vn  0.570807 -0.430662 -0.699078
vn  0.003897 -0.999241 0.038760
vn  0.181835 -0.969791 0.162609
vn  0.954905 -0.277172 -0.106455
vn  -0.004170 -0.994497 -0.104682
vn  0.101984 -0.797030 0.595267
vn  0.207952 -0.943581 0.257704
vn  0.018465 -0.998498 -0.051574
vn  0.367357 -0.603083 -0.708054
vn  -0.284448 -0.948610 0.138668
vn  0.143106 0.063332 0.987679
vn  0.486739 0.078624 0.870002
vn  -0.173938 0.235209 -0.956254
vn  -0.189119 -0.074212 -0.979146
vn  0.633592 -0.016945 0.773482
vn  0.162917 -0.140212 0.976626
vn  0.791646 -0.206155 0.575149
vn  0.798003 0.597450 -0.079023
vn  0.831661 0.316761 0.456074
vn  0.842110 -0.322528 0.432233
vn  0.275510 0.562209 -0.779754
vn  0.179269 0.330987 0.926450
vn  0.588261 0.442473 0.676880
vn  0.249853 0.627765 -0.737214
vn  0.115563 -0.851245 0.511886
vn  0.894625 0.261038 0.362636
vn  0.748558 0.428148 -0.506311
vn  0.710929 0.703161 -0.012020
vn  -0.078176 0.536121 -0.840513
vn  -0.072020 0.743580 -0.664757
vn  0.399186 0.683251 -0.611407
vn  -0.115229 0.583556 -0.803857
vn  0.632259 0.273700 0.724801
vn  0.073599 0.176903 0.981473
vn  0.960731 0.273816 -0.044948
vn  0.526935 0.132928 -0.839446
vn  -0.034244 0.041383 -0.998556
vn  0.788256 0.018219 0.615078
vn  0.785556 0.383997 -0.485230
vn  0.873167 0.452776 0.180484
vn  -0.023851 0.154015 -0.987781
vn  -0.371962 -0.358876 0.856068
vn  0.007901 0.996745 0.080232
vn  0.076797 0.439168 0.895117
vn  0.084429 0.125467 0.988499
vn  0.081592 -0.267412 0.960122
vn  0.084711 0.090950 0.992246
vn  0.078780 -0.363262 0.928350
vn  0.056214 -0.740064 0.670183
vn  -0.047577 0.821286 -0.568529
vn  0.684847 -0.060534 0.726168
vn  0.765544 -0.028542 0.642751
vn  0.508473 0.013802 0.860968
vn  0.964522 -0.102114 0.243454
vn  0.914582 -0.389138 0.110050
vn  0.581804 -0.083108 0.809072
vn  0.990419 -0.009464 -0.137771
vn  0.394008 0.688425 0.608958
vn  0.918904 0.331266 0.214193
vn  0.395947 0.906313 0.147725
vn  0.689717 -0.019358 0.723820
vn  0.816708 -0.508455 0.272877
vn  0.676562 -0.497205 0.543185
vn  0.952757 0.196452 -0.231650
vn  0.553840 0.694881 -0.458696
vn  0.672628 -0.203405 0.711476
vn  0.865817 0.298623 -0.401479
vn  0.708629 0.187231 0.680287
vn  -0.012075 -0.040215 -0.999118
vn  -0.940644 -0.306988 -0.144733
vn  0.286315 -0.273002 -0.918419
vn  0.986913 0.151510 -0.055198
vn  0.559341 0.324706 0.762695
vn  -0.539005 0.175766 0.823759
vn  -0.809746 -0.319368 -0.492256
vn  0.245950 -0.190224 -0.950433
vn  0.950033 0.044350 -0.308982
vn  0.605273 0.212651 0.767088
vn  -0.543882 0.224869 0.808472
vn  -0.892096 -0.371666 -0.256963
vn  0.179864 -0.173317 -0.968303
vn  0.940276 0.053319 -0.336210
vn  0.657795 -0.108437 0.745351
vn  -0.269517 -0.301335 0.914635
vn  0.244563 -0.257307 -0.934870
vn  -0.445026 -0.251565 0.859457
vn  0.122998 -0.178816 -0.976164
vn  -0.920696 -0.276487 -0.275453
vn  -0.031210 -0.304441 -0.952020
vn  0.976872 0.024527 -0.212414
vn  0.641591 0.446739 0.623526
vn  -0.435453 0.419721 0.796376
vn  -0.396864 -0.572740 0.717264
vn  0.822683 0.186580 0.537010
vn  0.076323 -0.766083 -0.638194
vn  0.502050 -0.141552 0.853176
vn  -0.943186 0.286663 0.168000
vn  0.363081 0.498134 0.787423
vn  -0.805103 0.233593 0.545200
vn  0.605776 0.327832 0.724956
vn  -0.598333 -0.754014 -0.271035
vn  -0.853658 -0.016150 0.520583
vn  0.115787 -0.040060 0.992466
vn  0.704877 0.178071 0.686615
vn  -0.312669 -0.349124 -0.883375
vn  -0.628938 -0.466243 -0.622137
vn  0.390876 -0.812193 -0.433081
vn  0.794983 -0.061140 -0.603543
vn  0.881169 -0.205633 -0.425742
vn  0.414714 0.115177 0.902633
vn  0.328139 -0.256508 0.909136
vn  -0.843310 -0.216698 0.491802
vn  -0.362297 0.147630 -0.920297
vn  0.990607 0.097239 -0.096135
vn  0.311793 -0.219283 0.924500
vn  -0.852123 -0.276466 0.444356
vn  -0.155159 -0.048915 -0.986678
vn  0.978249 0.076190 -0.192934
vn  0.333729 -0.227519 0.914801
vn  0.516834 -0.228642 0.824988
vn  0.376960 -0.183844 0.907801
vn  0.948707 -0.137306 -0.284783
vn  -0.957745 0.107462 0.266788
vn  -0.351828 0.216691 -0.910638
vn  0.789752 0.437721 -0.429759
vn  0.939706 0.130835 -0.315967
vn  0.174555 0.560134 0.809803
vn  -0.925839 -0.156147 0.344151
vn  -0.801300 -0.438691 -0.406777
vn  0.426484 -0.498075 -0.755006
vn  -0.708984 -0.494254 0.503045
vn  0.978873 -0.143615 -0.145544
vn  0.002970 0.881747 0.471714
vn  0.769429 0.259953 0.583442
vn  -0.015722 -0.605488 0.795699
vn  -0.973965 0.102237 0.202338
vn  -0.724501 -0.275711 -0.631730
vn  -0.296418 0.119061 -0.947608
vn  -0.964289 -0.135879 0.227339
vn  0.971062 -0.053792 -0.232689
vn  -0.284620 -0.400000 -0.871201
vn  -0.756018 -0.434393 -0.489632
vn  -0.123982 -0.971127 0.203815
vn  -0.959270 -0.282485 0.001854
vn  0.041589 -0.989775 -0.136441
vn  -0.166648 -0.947144 0.274129
vn  0.019677 -0.999802 0.003016
vn  -0.422643 -0.608516 -0.671626
vn  0.310592 -0.938024 0.153767
vn  -0.266716 0.078769 0.960551
vn  -0.264938 -0.003542 0.964259
vn  -0.554596 -0.223208 0.801625
vn  -0.782676 0.621848 0.026887
vn  -0.613619 0.430870 0.661682
vn  -0.649834 -0.259063 0.714565
vn  -0.503552 0.616510 -0.605269
vn  -0.264733 0.487133 0.832237
vn  -0.470749 0.613876 -0.633681
vn  -0.785755 0.291747 0.545411
vn  -0.836051 0.422566 -0.349939
vn  -0.645547 0.744452 0.170472
vn  -0.541842 0.685014 -0.486995
vn  -0.524718 0.224860 0.821042
vn  -0.956809 0.280564 0.076161
vn  -0.628655 0.178659 -0.756885
vn  -0.699446 0.098346 0.707886
vn  -0.820237 0.350110 -0.452366
vn  -0.876164 0.448565 0.176426
vn  0.138409 0.091705 -0.986120
vn  0.377940 -0.328894 0.865442
vn  -0.552128 -0.059220 0.831654
vn  -0.645716 -0.027040 0.763099
vn  -0.355322 0.014719 0.934628
vn  -0.909585 -0.100124 0.403275
vn  -0.882394 -0.436322 0.176078
vn  -0.436583 -0.082028 0.895917
vn  -0.998263 -0.041458 -0.041853
vn  -0.283753 0.689145 0.666756
vn  -0.868665 0.333166 0.366635
vn  -0.363302 0.907119 0.212476
vn  -0.557239 -0.018031 0.830157
vn  -0.752424 -0.522879 0.400569
vn  -0.571650 -0.501692 0.649247
vn  -0.977709 0.197462 -0.071374
vn  -0.625357 0.692961 -0.358794
vn  -0.542874 -0.202115 0.815130
vn  -0.878095 0.225632 -0.421946
vn  -0.730005 0.172522 0.661308
vn  0.046253 -0.088538 -0.994998
vn  0.960409 -0.274741 -0.046178
vn  -0.212598 -0.408391 -0.887704
vn  -0.985960 0.091334 -0.139792
vn  -0.614876 0.397597 0.681061
vn  0.472125 0.319646 0.821538
vn  0.860850 -0.325239 -0.391354
vn  -0.155189 -0.273311 -0.949325
vn  -0.923439 -0.032577 -0.382360
vn  -0.679500 0.244023 0.691906
vn  0.470551 0.342112 0.813352
vn  0.921398 -0.337052 -0.193445
vn  -0.087600 -0.232293 -0.968693
vn  -0.919555 -0.010926 -0.392810
vn  -0.705986 -0.108354 0.699888
vn  0.231289 -0.251841 0.939724
vn  -0.162561 -0.376030 -0.912236
vn  0.382392 -0.183006 0.905696
vn  -0.041502 -0.231404 -0.971972
vn  0.939223 -0.275202 -0.205242
vn  0.089237 -0.418902 -0.903636
vn  -0.965540 -0.043064 -0.256667
vn  -0.673919 0.496659 0.546958
vn  0.382636 0.534002 0.753944
vn  0.386037 -0.474302 0.791210
vn  -0.845770 0.222485 0.484947
vn  -0.034264 -0.836738 -0.546530
vn  -0.527712 -0.057447 0.847479
vn  0.927936 0.333936 0.165591
vn  -0.402124 0.573182 0.713974
vn  0.779170 0.318680 0.539757
vn  -0.638606 0.391157 0.662705
vn  0.626818 -0.761846 -0.163369
vn  0.835296 0.069371 0.545407
vn  -0.148973 0.070869 0.986299
vn  -0.732650 0.234659 0.638873
vn  0.354526 -0.439042 -0.825563
vn  0.662029 -0.515573 -0.543969
vn  -0.354347 -0.867772 -0.348438
vn  -0.769209 -0.153302 -0.620336
vn  -0.860217 -0.279470 -0.426524
vn  -0.448037 0.206008 0.869956
vn  -0.239753 -0.260622 0.935198
vn  0.884417 -0.193244 0.424810
vn  0.276102 0.097423 -0.956178
vn  -0.995522 0.094277 -0.006880
vn  -0.225046 -0.163440 0.960542
vn  0.890917 -0.264781 0.368996
vn  0.062522 -0.062170 -0.996105
vn  -0.992103 0.059908 -0.110196
vn  -0.248745 -0.189371 0.949876
vn  -0.440285 -0.229013 0.868160
vn  -0.294344 -0.169755 0.940502
vn  -0.969900 -0.152098 -0.190158
vn  0.976772 0.131213 0.169411
vn  0.266011 0.155352 -0.951369
vn  -0.832077 0.400948 -0.383262
vn  -0.964963 0.114430 -0.236120
vn  -0.109447 0.613841 0.781806
vn  0.953557 -0.140186 0.266603
vn  0.771710 -0.454820 -0.444524
vn  -0.484042 -0.556951 -0.674914
vn  0.763419 -0.446506 0.466716
vn  -0.985353 -0.165421 -0.041410
vn  0.024231 0.913768 0.405514
vn  -0.717043 0.292571 0.632654
vn  0.100386 -0.545564 0.832035
# 266 vertex normals

g (null)
usemtl fat
s 1
f 3/3/3 1/1/1 2/2/2
f 6/6/6 7/7/7 11/12/11
f 6/6/6 11/139/11 9/9/9
f 7/140/7 10/10/10 8/8/8
f 4/4/4 5/5/5 8/11/8
f 11/12/11 5/141/5 9/9/9
f 11/12/11 12/13/12 5/5/5
f 12/143/12 7/7/7 8/142/8
f 11/12/11 7/7/7 12/144/12
f 5/5/5 12/146/12 8/145/8
f 16/17/16 18/19/18 15/16/15
f 18/19/18 16/17/16 19/20/19
f 19/21/19 16/17/16 17/18/17
f 15/16/15 18/19/18 14/15/14
f 18/293/18 20/294/20 14/292/14
f 14/15/14 21/22/21 13/14/13
f 14/292/14 20/294/20 21/295/21
f 21/22/21 2/147/2 13/14/13
f 7/26/7 25/27/25 24/25/24
f 27/29/27 28/30/28 26/28/26
f 31/31/31 28/30/28 8/148/8
f 34/37/34 31/35/31 30/32/30
f 23/24/23 28/30/28 27/29/27
f 28/30/28 23/24/23 4/149/4
f 23/24/23 27/29/27 22/23/22
f 27/29/27 26/150/26 33/36/33
f 35/38/35 32/34/32 7/26/7
f 6/6/6 25/27/25 7/26/7
f 26/28/26 28/30/28 31/35/31
f 35/38/35 29/151/29 32/34/32
f 33/36/33 26/28/26 34/37/34
f 24/25/24 35/38/35 7/26/7
f 26/28/26 31/35/31 34/37/34
f 34/37/34 30/32/30 37/40/37
f 29/33/29 39/43/39 30/32/30
f 34/37/34 36/39/36 33/36/33
f 37/40/37 36/39/36 34/37/34
f 37/42/37 39/152/39 38/41/38
f 38/154/38 39/153/39 42/47/42
f 41/46/41 40/44/40 38/45/38
f 38/45/38 42/47/42 41/46/41
f 37/40/37 30/32/30 39/43/39
f 39/156/39 29/155/29 35/38/35
f 39/157/39 35/38/35 42/47/42
f 42/47/42 35/38/35 43/48/43
f 42/47/42 43/48/43 41/46/41
f 35/38/35 24/25/24 43/48/43
f 45/53/45 44/52/44 23/158/23
f 15/49/15 46/54/46 44/52/44
f 46/301/46 47/298/47 4/300/4
f 47/298/47 9/303/9 5/302/5
f 44/52/44 45/53/45 17/50/17
f 45/53/45 23/160/23 22/159/22
f 16/51/16 15/49/15 44/52/44
f 46/54/46 4/161/4 44/52/44
f 44/52/44 4/163/4 23/162/23
f 47/298/47 5/305/5 4/304/4
f 47/298/47 48/299/48 9/306/9
f 46/308/46 15/307/15 47/298/47
f 14/296/14 47/298/47 15/309/15
f 47/298/47 14/296/14 48/299/48
f 14/296/14 13/297/13 48/299/48
f 16/51/16 44/52/44 17/50/17
f 49/55/49 29/165/29 30/164/30
f 10/168/10 31/167/31 8/166/8
f 32/170/32 52/59/52 7/169/7
f 31/172/31 49/55/49 30/171/30
f 29/173/29 51/58/51 50/57/50
f 29/175/29 49/55/49 51/174/51
f 50/57/50 52/59/52 32/176/32
f 29/178/29 50/57/50 32/177/32
f 7/179/7 52/59/52 10/56/10
f 53/61/53 31/181/31 10/180/10
f 53/60/53 49/55/49 31/182/31
f 65/74/65 63/72/63 66/75/66
f 73/84/73 63/72/63 62/183/62
f 77/88/77 64/73/64 63/72/63
f 68/78/68 65/74/65 66/75/66
f 38/185/38 68/78/68 37/184/37
f 37/186/37 68/78/68 66/76/66
f 37/188/37 66/76/66 36/187/36
f 69/79/69 55/63/55 67/77/67
f 70/80/70 67/90/67 65/74/65
f 68/78/68 70/80/70 65/74/65
f 71/81/71 54/62/54 69/79/69
f 63/72/63 64/73/64 72/82/72
f 56/83/56 72/82/72 64/73/64
f 56/83/56 57/65/57 72/82/72
f 62/189/62 63/72/63 72/82/72
f 72/82/72 59/67/59 62/71/62
f 69/79/69 54/62/54 55/63/55
f 67/77/67 55/63/55 56/64/56
f 57/65/57 59/67/59 72/82/72
f 62/71/62 59/67/59 58/66/58
f 66/76/66 73/190/73 36/68/36
f 63/72/63 73/192/73 66/75/66
f 74/193/74 60/69/60 36/68/36
f 62/195/62 58/194/58 74/85/74
f 73/197/73 62/196/62 74/85/74
f 73/199/73 74/198/74 36/68/36
f 74/85/74 58/201/58 60/200/60
f 38/202/38 75/86/75 68/78/68
f 75/86/75 38/203/38 76/87/76
f 67/90/67 77/88/77 65/74/65
f 67/89/67 64/73/64 77/88/77
f 65/74/65 77/88/77 63/72/63
f 67/89/67 56/64/56 64/73/64
f 70/80/70 71/204/71 69/79/69
f 70/80/70 68/78/68 75/86/75
f 75/86/75 76/87/76 70/80/70
f 71/205/71 70/80/70 76/87/76
f 69/79/69 67/90/67 70/80/70
f 38/207/38 40/206/40 76/87/76
f 61/70/61 76/87/76 40/208/40
f 54/62/54 76/87/76 61/70/61
f 71/209/71 76/87/76 54/62/54
f 8/211/8 28/30/28 4/210/4
f 51/213/51 49/212/49 79/92/79
f 78/91/78 52/215/52 50/214/50
f 50/217/50 51/216/51 78/91/78
f 91/104/91 95/108/95 53/218/53
f 51/219/51 79/92/79 78/91/78
f 80/93/80 52/220/52 78/91/78
f 52/222/52 80/93/80 10/221/10
f 53/224/53 79/92/79 49/223/49
f 86/99/86 82/95/82 81/94/81
f 82/95/82 86/99/86 96/109/96
f 96/109/96 88/101/88 82/95/82
f 83/96/83 82/95/82 88/101/88
f 88/101/88 89/102/89 83/96/83
f 84/97/84 83/96/83 89/102/89
f 90/103/90 85/98/85 84/97/84
f 84/97/84 89/102/89 90/103/90
f 81/94/81 85/226/85 90/225/90
f 90/227/90 86/99/86 81/94/81
f 91/104/91 92/105/92 86/99/86
f 87/100/87 86/99/86 92/105/92
f 92/105/92 88/101/88 87/100/87
f 88/101/88 92/105/92 93/106/93
f 93/106/93 94/107/94 88/101/88
f 89/102/89 88/101/88 94/107/94
f 97/110/97 90/103/90 89/102/89
f 97/228/97 95/108/95 91/104/91
f 10/229/10 80/93/80 91/104/91
f 92/105/92 91/104/91 98/111/98
f 98/111/98 93/106/93 92/105/92
f 93/106/93 80/93/80 78/91/78
f 78/91/78 79/92/79 93/106/93
f 94/107/94 93/106/93 79/92/79
f 79/92/79 53/231/53 95/230/95
f 95/232/95 94/107/94 79/92/79
f 91/104/91 53/234/53 10/233/10
f 87/100/87 88/101/88 96/109/96
f 96/109/96 86/99/86 87/100/87
f 97/236/97 86/99/86 90/235/90
f 89/102/89 94/107/94 97/110/97
f 91/104/91 86/99/86 97/237/97
f 95/238/95 97/110/97 94/107/94
f 80/93/80 93/106/93 98/111/98
f 98/111/98 91/104/91 80/93/80
f 81/94/81 100/113/100 99/112/99
f 100/113/100 81/94/81 82/95/82
f 82/95/82 101/114/101 100/113/100
f 101/114/101 82/95/82 83/96/83
f 83/96/83 84/97/84 101/114/101
f 102/115/102 101/114/101 84/97/84
f 84/97/84 103/116/103 102/115/102
f 103/116/103 84/97/84 85/98/85
f 85/240/85 81/94/81 103/239/103
f 99/112/99 103/241/103 81/94/81
f 111/124/111 106/119/106 104/117/104
f 121/135/121 104/117/104 105/118/105
f 108/121/108 109/122/109 103/242/103
f 108/121/108 110/123/110 111/124/111
f 111/124/111 109/122/109 108/121/108
f 111/124/111 110/123/110 107/120/107
f 112/125/112 107/120/107 110/123/110
f 104/117/104 109/122/109 111/124/111
f 111/124/111 107/120/107 106/119/106
f 106/245/106 112/244/112 110/243/110
f 112/248/112 106/247/106 107/246/107
f 106/251/106 110/250/110 108/249/108
f 108/254/108 104/253/104 106/252/106
f 108/257/108 99/256/99 104/255/104
f 103/260/103 99/259/99 108/258/108
f 102/262/102 103/261/103 109/122/109
f 104/117/104 115/128/115 105/118/105
f 116/129/116 117/130/117 104/263/104
f 117/131/117 118/132/118 113/264/113
f 105/118/105 115/128/115 120/134/120
f 120/134/120 119/133/119 105/118/105
f 113/126/113 114/127/114 115/137/115
f 115/137/115 114/127/114 118/265/118
f 117/267/117 116/266/116 120/134/120
f 119/133/119 120/134/120 116/268/116
f 114/270/114 113/269/113 118/132/118
f 105/118/105 101/272/101 102/271/102
f 116/129/116 104/274/104 99/273/99
f 99/276/99 100/275/100 116/129/116
f 119/133/119 100/278/100 101/277/101
f 104/117/104 121/135/121 109/122/109
f 105/118/105 119/133/119 101/279/101
f 119/133/119 116/281/116 100/280/100
f 121/135/121 102/282/102 109/122/109
f 102/283/102 121/135/121 105/118/105
f 113/285/113 104/284/104 117/130/117
f 115/128/115 104/117/104 113/136/113
f 115/137/115 118/286/118 120/138/120
f 118/288/118 117/287/117 120/138/120
f 127/317/127 124/328/124 123/313/123
f 129/319/129 125/315/125 124/314/124
f 129/319/129 124/314/124 128/318/128
f 129/353/129 130/320/130 125/352/125
f 130/320/130 126/316/126 125/354/125
f 130/321/130 123/355/123 126/331/126
f 127/357/127 123/356/123 130/321/130
f 132/326/132 130/320/130 129/358/129
f 131/325/131 127/359/127 132/327/132
f 133/329/133 129/323/129 128/330/128
f 133/361/133 131/324/131 129/360/129
f 122/311/122 131/324/131 133/362/133
f 122/312/122 127/363/127 131/325/131
f 132/326/132 129/364/129 131/324/131
f 130/321/130 132/327/132 127/365/127
f 128/318/128 124/328/124 127/317/127
f 19/367/19 122/311/122 18/366/18
f 19/368/19 2/310/2 122/312/122
f 18/370/18 122/311/122 133/369/133
f 18/424/18 133/421/133 20/423/20
f 133/421/133 128/422/128 20/425/20
f 21/427/21 20/426/20 128/422/128
f 21/371/21 128/330/128 127/322/127
f 2/310/2 127/372/127 122/312/122
f 2/374/2 21/373/21 127/322/127
f 137/336/137 136/335/136 135/334/135
f 138/337/138 136/376/136 137/375/137
f 139/339/139 134/377/134 138/338/138
f 139/378/139 135/333/135 134/332/134
f 137/336/137 135/334/135 124/379/124
f 139/381/139 124/380/124 135/333/135
f 124/384/124 139/383/139 123/382/123
f 137/336/137 124/386/124 125/385/125
f 126/389/126 137/388/137 125/387/125
f 138/337/138 137/391/137 126/390/126
f 139/339/139 138/338/138 126/392/126
f 139/339/139 126/394/126 123/393/123
f 135/396/135 140/340/140 134/395/134
f 135/397/135 141/341/141 140/340/140
f 142/342/142 134/398/134 140/343/140
f 136/399/136 143/345/143 141/344/141
f 141/402/141 143/401/143 142/400/142
f 142/405/142 140/404/140 141/403/141
f 138/407/138 143/346/143 136/406/136
f 136/409/136 141/341/141 135/408/135
f 134/411/134 142/347/142 138/410/138
f 138/412/138 144/348/144 143/346/143
f 138/413/138 142/347/142 144/348/144
f 143/414/143 145/349/145 146/350/146
f 146/350/146 142/416/142 143/415/143
f 143/346/143 144/351/144 145/417/145
f 144/351/144 146/419/146 145/418/145
f 146/420/146 144/351/144 142/347/142
f 2/291/2 19/290/19 17/289/17
f 1/1/1 3/3/3 2/2/2
f 1/428/1 3/430/3 2/429/2
f 149/434/149 6/433/6 152/439/152
f 152/566/152 6/433/6 9/436/9
f 151/437/151 149/567/149 150/435/150
f 148/432/148 147/431/147 150/438/150
f 148/568/148 152/439/152 9/436/9
f 153/440/153 152/439/152 148/432/148
f 149/434/149 153/570/153 150/569/150
f 149/434/149 152/439/152 153/571/153
f 153/573/153 148/432/148 150/572/150
f 157/446/157 156/444/156 155/443/155
f 156/444/156 157/446/157 158/447/158
f 156/444/156 158/448/158 17/445/17
f 157/446/157 155/443/155 154/442/154
f 159/721/159 157/720/157 154/719/154
f 160/449/160 154/442/154 13/441/13
f 159/721/159 154/719/154 160/722/160
f 2/574/2 160/449/160 13/441/13
f 25/454/25 149/453/149 24/452/24
f 163/457/163 27/456/27 162/455/162
f 163/457/163 166/458/166 150/575/150
f 166/462/166 168/464/168 165/459/165
f 163/457/163 161/451/161 27/456/27
f 161/451/161 163/457/163 147/576/147
f 27/456/27 161/451/161 22/450/22
f 162/577/162 27/456/27 33/463/33
f 167/461/167 169/465/169 149/453/149
f 25/454/25 6/433/6 149/453/149
f 163/457/163 162/455/162 166/462/166
f 164/578/164 169/465/169 167/461/167
f 162/455/162 33/463/33 168/464/168
f 169/465/169 24/452/24 149/453/149
f 166/462/166 162/455/162 168/464/168
f 165/459/165 168/464/168 170/467/170
f 172/470/172 164/460/164 165/459/165
f 36/466/36 168/464/168 33/463/33
f 36/466/36 170/467/170 168/464/168
f 172/579/172 170/469/170 171/468/171
f 172/580/172 171/581/171 173/474/173
f 40/471/40 41/473/41 171/472/171
f 173/474/173 171/472/171 41/473/41
f 165/459/165 170/467/170 172/470/172
f 164/582/164 172/583/172 169/465/169
f 169/465/169 172/584/172 173/474/173
f 169/465/169 173/474/173 43/475/43
f 43/475/43 173/474/173 41/473/41
f 24/452/24 169/465/169 43/475/43
f 174/479/174 45/480/45 161/585/161
f 175/481/175 155/476/155 174/479/174
f 176/725/176 175/728/175 147/727/147
f 9/730/9 176/725/176 148/729/148
f 45/480/45 174/479/174 17/477/17
f 161/587/161 45/480/45 22/586/22
f 155/476/155 156/478/156 174/479/174
f 147/588/147 175/481/175 174/479/174
f 147/590/147 174/479/174 161/589/161
f 148/732/148 176/725/176 147/731/147
f 48/726/48 176/725/176 9/733/9
f 155/734/155 175/735/175 176/725/176
f 176/725/176 154/723/154 155/736/155
f 154/723/154 176/725/176 48/726/48
f 13/724/13 154/723/154 48/726/48
f 174/479/174 156/478/156 17/477/17
f 164/592/164 177/482/177 165/591/165
f 166/594/166 151/595/151 150/593/150
f 180/486/180 167/597/167 149/596/149
f 177/482/177 166/599/166 165/598/165
f 179/485/179 164/600/164 178/484/178
f 177/482/177 164/602/164 179/601/179
f 180/486/180 178/484/178 167/603/167
f 178/484/178 164/605/164 167/604/167
f 180/486/180 149/606/149 151/483/151
f 166/608/166 181/488/181 151/607/151
f 177/482/177 181/487/181 166/609/166
f 183/499/183 185/501/185 186/502/186
f 183/499/183 193/511/193 182/610/182
f 184/500/184 197/515/197 183/499/183
f 185/501/185 188/505/188 186/502/186
f 188/505/188 171/612/171 170/611/170
f 188/505/188 170/613/170 186/503/186
f 186/503/186 170/615/170 36/614/36
f 55/490/55 189/506/189 187/504/187
f 187/517/187 190/507/190 185/501/185
f 190/507/190 188/505/188 185/501/185
f 54/489/54 191/508/191 189/506/189
f 184/500/184 183/499/183 192/509/192
f 192/509/192 56/510/56 184/500/184
f 57/492/57 56/510/56 192/509/192
f 183/499/183 182/616/182 192/509/192
f 59/494/59 192/509/192 182/498/182
f 54/489/54 189/506/189 55/490/55
f 55/490/55 187/504/187 56/491/56
f 59/494/59 57/492/57 192/509/192
f 59/494/59 182/498/182 58/493/58
f 193/617/193 186/503/186 36/495/36
f 193/619/193 183/499/183 186/502/186
f 60/496/60 194/620/194 36/495/36
f 58/621/58 182/622/182 194/512/194
f 182/623/182 193/624/193 194/512/194
f 194/625/194 193/626/193 36/495/36
f 58/628/58 194/512/194 60/627/60
f 195/513/195 171/629/171 188/505/188
f 171/630/171 195/513/195 196/514/196
f 197/515/197 187/517/187 185/501/185
f 184/500/184 187/516/187 197/515/197
f 197/515/197 185/501/185 183/499/183
f 56/491/56 187/516/187 184/500/184
f 191/631/191 190/507/190 189/506/189
f 188/505/188 190/507/190 195/513/195
f 196/514/196 195/513/195 190/507/190
f 190/507/190 191/632/191 196/514/196
f 187/517/187 189/506/189 190/507/190
f 40/633/40 171/634/171 196/514/196
f 196/514/196 61/497/61 40/635/40
f 196/514/196 54/489/54 61/497/61
f 196/514/196 191/636/191 54/489/54
f 163/457/163 150/638/150 147/637/147
f 177/639/177 179/640/179 199/519/199
f 180/642/180 198/518/198 178/641/178
f 179/643/179 178/644/178 198/518/198
f 215/535/215 211/531/211 181/645/181
f 199/519/199 179/646/179 198/518/198
f 180/647/180 200/520/200 198/518/198
f 200/520/200 180/649/180 151/648/151
f 199/519/199 181/651/181 177/650/177
f 202/522/202 206/526/206 201/521/201
f 206/526/206 202/522/202 216/536/216
f 208/528/208 216/536/216 202/522/202
f 202/522/202 203/523/203 208/528/208
f 209/529/209 208/528/208 203/523/203
f 203/523/203 204/524/204 209/529/209
f 205/525/205 210/530/210 204/524/204
f 209/529/209 204/524/204 210/530/210
f 205/653/205 201/521/201 210/652/210
f 206/526/206 210/654/210 201/521/201
f 212/532/212 211/531/211 206/526/206
f 206/526/206 207/527/207 212/532/212
f 208/528/208 212/532/212 207/527/207
f 212/532/212 208/528/208 213/533/213
f 214/534/214 213/533/213 208/528/208
f 208/528/208 209/529/209 214/534/214
f 210/530/210 217/537/217 209/529/209
f 215/535/215 217/655/217 211/531/211
f 200/520/200 151/656/151 211/531/211
f 211/531/211 212/532/212 218/538/218
f 213/533/213 218/538/218 212/532/212
f 200/520/200 213/533/213 198/518/198
f 199/519/199 198/518/198 213/533/213
f 213/533/213 214/534/214 199/519/199
f 181/658/181 199/519/199 215/657/215
f 214/534/214 215/659/215 199/519/199
f 181/661/181 211/531/211 151/660/151
f 208/528/208 207/527/207 216/536/216
f 206/526/206 216/536/216 207/527/207
f 206/526/206 217/663/217 210/662/210
f 214/534/214 209/529/209 217/537/217
f 206/526/206 211/531/211 217/664/217
f 217/537/217 215/665/215 214/534/214
f 213/533/213 200/520/200 218/538/218
f 211/531/211 218/538/218 200/520/200
f 220/540/220 201/521/201 219/539/219
f 201/521/201 220/540/220 202/522/202
f 221/541/221 202/522/202 220/540/220
f 202/522/202 221/541/221 203/523/203
f 204/524/204 203/523/203 221/541/221
f 221/541/221 222/542/222 204/524/204
f 223/543/223 204/524/204 222/542/222
f 204/524/204 223/543/223 205/525/205
f 201/521/201 205/667/205 223/666/223
f 223/668/223 219/539/219 201/521/201
f 226/546/226 231/551/231 224/544/224
f 224/544/224 241/562/241 225/545/225
f 229/549/229 228/548/228 223/669/223
f 230/550/230 228/548/228 231/551/231
f 229/549/229 231/551/231 228/548/228
f 230/550/230 231/551/231 227/547/227
f 227/547/227 232/552/232 230/550/230
f 229/549/229 224/544/224 231/551/231
f 227/547/227 231/551/231 226/546/226
f 232/671/232 226/672/226 230/670/230
f 226/674/226 232/675/232 227/673/227
f 230/677/230 226/678/226 228/676/228
f 224/680/224 228/681/228 226/679/226
f 219/683/219 228/684/228 224/682/224
f 219/686/219 223/687/223 228/685/228
f 223/688/223 222/689/222 229/549/229
f 235/555/235 224/544/224 225/545/225
f 237/557/237 236/556/236 224/690/224
f 238/559/238 237/558/237 233/691/233
f 235/555/235 225/545/225 240/561/240
f 239/560/239 240/561/240 225/545/225
f 234/554/234 233/553/233 235/564/235
f 234/554/234 235/564/235 238/692/238
f 236/693/236 237/694/237 240/561/240
f 240/561/240 239/560/239 236/695/236
f 233/696/233 234/697/234 238/559/238
f 221/699/221 225/545/225 222/698/222
f 224/701/224 236/556/236 219/700/219
f 220/702/220 219/703/219 236/556/236
f 220/705/220 239/560/239 221/704/221
f 241/562/241 224/544/224 229/549/229
f 239/560/239 225/545/225 221/706/221
f 236/708/236 239/560/239 220/707/220
f 222/709/222 241/562/241 229/549/229
f 241/562/241 222/710/222 225/545/225
f 224/711/224 233/712/233 237/557/237
f 224/544/224 235/555/235 233/563/233
f 238/713/238 235/564/235 240/565/240
f 237/714/237 238/715/238 240/565/240
f 244/755/244 247/744/247 243/740/243
f 245/742/245 249/746/249 244/741/244
f 244/741/244 249/746/249 248/745/248
f 250/747/250 249/780/249 245/779/245
f 246/743/246 250/747/250 245/781/245
f 243/782/243 250/748/250 246/758/246
f 243/783/243 247/784/247 250/748/250
f 250/747/250 252/753/252 249/785/249
f 247/786/247 251/752/251 252/754/252
f 249/750/249 253/756/253 248/757/248
f 251/751/251 253/788/253 249/787/249
f 251/751/251 242/738/242 253/789/253
f 247/790/247 242/739/242 251/752/251
f 249/791/249 252/753/252 251/751/251
f 252/754/252 250/748/250 247/792/247
f 244/755/244 248/745/248 247/744/247
f 242/738/242 158/794/158 157/793/157
f 2/737/2 158/795/158 242/739/242
f 242/738/242 157/797/157 253/796/253
f 253/848/253 157/851/157 159/850/159
f 248/849/248 253/848/253 159/852/159
f 159/853/159 160/854/160 248/849/248
f 248/757/248 160/798/160 247/749/247
f 247/799/247 2/737/2 242/739/242
f 160/800/160 2/801/2 247/749/247
f 256/762/256 257/763/257 255/761/255
f 256/803/256 258/764/258 257/802/257
f 254/804/254 259/766/259 258/765/258
f 255/760/255 259/805/259 254/759/254
f 255/761/255 257/763/257 244/806/244
f 244/807/244 259/808/259 255/760/255
f 259/810/259 244/811/244 243/809/243
f 244/813/244 257/763/257 245/812/245
f 257/815/257 246/816/246 245/814/245
f 257/818/257 258/764/258 246/817/246
f 258/765/258 259/766/259 246/819/246
f 246/821/246 259/766/259 243/820/243
f 260/767/260 255/823/255 254/822/254
f 261/768/261 255/824/255 260/767/260
f 254/825/254 262/769/262 260/770/260
f 263/772/263 256/826/256 261/771/261
f 263/828/263 261/829/261 262/827/262
f 260/831/260 262/832/262 261/830/261
f 263/773/263 258/834/258 256/833/256
f 261/768/261 256/836/256 255/835/255
f 262/774/262 254/838/254 258/837/258
f 264/775/264 258/839/258 263/773/263
f 262/774/262 258/840/258 264/775/264
f 265/776/265 263/841/263 266/777/266
f 262/843/262 266/777/266 263/842/263
f 264/778/264 263/773/263 265/844/265
f 266/846/266 264/778/264 265/845/265
f 264/778/264 266/847/266 262/774/262
f 158/717/158 2/718/2 17/716/17
f 3/430/3 1/428/1 2/429/2
# 528 faces

g
# object (null) to come ...
#
v  -10.586569 51.877602 22.710430
v  -11.078171 51.285660 30.590330
v  -11.223815 49.441311 31.666821
v  -11.345478 42.267273 28.319691
v  -9.565289 57.965424 26.649488
v  -10.670744 52.934525 33.470451
v  -10.816389 51.090179 34.546944
v  -10.777914 42.609547 35.612251
v  -8.770868 61.180470 32.265297
v  -9.983493 45.824593 41.228062
v  -8.203304 61.522739 39.557861
v  -10.263318 54.583393 36.350574
v  -10.408962 52.739044 37.427063
v  -8.962214 51.912411 45.167122
v  -9.139820 51.050968 30.450487
v  -9.285465 49.206623 31.526978
v  -8.732394 52.699837 33.330608
v  -8.878038 50.855488 34.407101
v  -8.324967 54.348701 36.210732
v  -8.470612 52.504356 37.287224
v  -15.143802 34.831928 1.850136
v  -15.289447 32.987579 2.926624
v  -13.205452 34.597237 1.710293
v  -13.351096 32.752892 2.786781
v  -8.508989 57.016125 42.883976
# 25 vertices

vt  0.033358 0.643728 0.500000
vt  0.190411 0.923560 0.500000
vt  0.402692 0.503812 0.999501
vt  0.402692 0.647326 0.999501
vt  0.403043 0.503812 0.999501
vt  0.403044 0.647326 0.999501
vt  0.033710 0.643728 0.500000
vt  0.190763 0.923560 0.500000
vt  0.033358 0.363896 0.500000
vt  0.033710 0.363896 0.500000
vt  0.190411 0.084064 0.500000
vt  0.402692 0.360297 0.999501
vt  0.403043 0.360297 0.999501
vt  0.190763 0.084064 0.500000
vt  0.402692 0.647326 0.000500
vt  0.402692 0.503812 0.000500
vt  0.403044 0.647326 0.000500
vt  0.403043 0.503812 0.000500
vt  0.402692 0.360297 0.000499
vt  0.403043 0.360297 0.000499
vt  0.408249 0.287497 0.999500
vt  0.408249 0.367848 0.999500
vt  0.492649 0.287497 0.999500
vt  0.492649 0.367848 0.999500
vt  0.408249 0.207147 0.999500
vt  0.492649 0.207147 0.999500
vt  0.492649 0.367848 0.000500
vt  0.408249 0.367848 0.000500
vt  0.492649 0.287497 0.000500
vt  0.408249 0.287497 0.000500
vt  0.492649 0.207147 0.000500
vt  0.408249 0.207147 0.000500
vt  0.492649 1.036942 0.999501
vt  0.408248 1.036942 0.999501
vt  0.492649 1.036942 0.000500
vt  0.408248 1.036942 0.000500
vt  0.450449 0.037941 0.500000
vt  0.483600 0.371280 0.999497
vt  0.402049 0.371280 0.999497
vt  0.402049 1.040375 0.999500
vt  0.483600 1.040375 0.999500
vt  0.402049 0.371280 0.000500
vt  0.483600 0.371280 0.000500
vt  0.483600 1.040375 0.000503
vt  0.402049 1.040375 0.000503
vt  0.483600 0.210579 0.000500
vt  0.402049 0.210579 0.000500
vt  0.442825 0.041374 0.499997
vt  0.402049 0.210579 0.999497
vt  0.483600 0.210579 0.999497
# 50 texture vertices

vn  -0.631189 0.156947 -0.020354
vn  -0.956305 0.175971 0.034537
vn  -0.970749 0.036642 0.092292
vn  -0.324910 -0.006429 0.025589
vn  -0.638017 0.132715 -0.005516
vn  -0.320241 0.060381 0.007898
vn  -0.323220 0.017527 0.038525
vn  -0.971010 0.001548 0.112421
vn  -0.949457 0.230977 0.026132
vn  -0.643894 0.022495 0.097999
vn  -0.314347 0.083828 0.020530
vn  -0.954691 0.196485 0.046619
vn  -0.965720 0.056742 0.104127
vn  -0.640986 -0.002916 0.112135
vn  0.965720 -0.056742 -0.104127
vn  0.954691 -0.196485 -0.046619
vn  0.323220 -0.017527 -0.038525
vn  0.320241 -0.060381 -0.007898
vn  0.970749 -0.036642 -0.092292
vn  0.956305 -0.175971 -0.034537
vn  -0.039721 -0.160752 -0.280791
vn  -0.039721 -0.160752 -0.280791
vn  -0.039721 -0.160752 -0.280791
vn  -0.039721 -0.160752 -0.280791
vn  -0.314246 0.060843 0.061725
# 25 vertex normals

g (null)
usemtl axe
s 2
f 271/855/271 267/856/267 272/857/272
f 268/858/268 272/857/272 267/856/267
f 272/875/272 268/876/268 273/877/273
f 269/878/269 273/877/273 268/876/268
f 273/859/273 269/860/269 274/861/274
f 270/862/270 274/861/274 269/860/269
f 275/863/275 271/855/271 272/857/272
f 274/861/274 276/864/276 273/859/273
f 277/865/277 275/863/275 278/866/278
f 272/857/272 278/866/278 275/863/275
f 278/879/278 272/875/272 279/880/279
f 273/877/273 279/880/279 272/875/272
f 279/867/279 273/859/273 280/868/280
f 276/864/276 280/868/280 273/859/273
s 4
f 281/869/281 267/856/267 283/870/283
f 271/855/271 283/870/283 267/856/267
f 282/881/282 281/882/281 284/883/284
f 283/884/283 284/883/284 281/882/281
f 270/862/270 282/871/282 274/861/274
f 284/872/284 274/861/274 282/871/282
f 275/863/275 283/870/283 271/855/271
f 274/861/274 284/872/284 276/864/276
f 283/870/283 275/863/275 285/873/285
f 277/865/277 285/873/285 275/863/275
f 284/883/284 283/884/283 286/885/286
f 285/886/285 286/885/286 283/884/283
f 276/864/276 284/872/284 280/868/280
f 286/874/286 280/868/280 284/872/284
s 8
f 268/858/268 267/856/267 281/869/281
f 288/887/288 287/888/287 290/889/290
f 289/890/289 290/889/290 287/888/287
f 282/871/282 270/862/270 269/860/269
s 32
f 279/867/279 280/868/280 286/874/286
f 285/873/285 277/865/277 278/866/278
s 0
f 269/878/269 268/876/268 287/888/287
f 287/888/287 288/887/288 269/878/269
f 281/882/281 282/881/282 290/889/290
f 290/889/290 289/890/289 281/882/281
f 268/892/268 281/893/281 289/894/289
f 289/894/289 287/895/287 268/892/268
f 282/896/282 269/897/269 288/898/288
f 288/898/288 290/899/290 282/896/282
f 278/879/278 279/880/279 291/891/291
f 286/885/286 285/886/285 291/891/291
f 279/900/279 286/901/286 291/902/291
f 285/903/285 278/904/278 291/902/291
# 46 faces

g
