# Max2Obj Version 4.0 Mar 10th, 2001
#
mtllib ./barbidle_15.mtl
g
# object (null) to come ...
#
v  1.524437 37.166924 7.121002
v  0.323191 37.138462 2.439514
v  -0.018013 37.630512 -2.700775
v  6.975296 51.487343 -0.462402
v  4.306076 50.893177 -4.638336
v  -1.143295 58.686539 -8.673859
v  8.141258 64.307755 -9.802399
v  7.454884 57.123215 -2.761719
v  -0.118402 51.015373 -4.749695
v  5.716709 61.062080 -7.270721
v  1.466734 54.995567 -7.551605
v  5.294060 55.810574 -7.437103
v  -0.171360 35.481117 -4.245087
v  4.821312 36.392231 -5.549072
v  10.826637 37.912296 -0.799774
v  8.799183 36.412666 6.221466
v  3.638983 35.916691 8.201263
v  9.721546 38.654827 -0.400818
v  6.432442 37.670879 5.940369
v  4.262329 38.214317 -4.651855
v  0.905464 37.710354 -3.626282
v  0.806353 51.957081 5.501801
v  4.360167 52.084599 4.358398
v  -1.372114 66.319809 -9.193604
v  -1.323738 64.341438 -8.950989
v  7.184299 63.416595 5.274078
v  1.202442 59.144157 5.380249
v  6.031044 59.084068 4.181396
v  10.353085 68.037201 -5.553436
v  10.913563 65.823837 -2.581451
v  8.264572 62.329502 -1.260254
v  9.451008 66.996902 -9.108368
v  1.595829 64.829727 6.190521
v  6.739193 66.077995 3.829315
v  4.043306 69.388779 -7.375824
v  0.687695 69.436546 2.531433
v  3.304348 70.185440 1.414520
v  2.677073 75.470428 -1.778961
v  5.330189 70.981506 -3.365906
v  -0.004570 76.092125 -2.538879
v  -0.325537 73.115845 -5.328949
v  2.828423 73.002098 -4.919189
v  -0.729652 70.830315 -7.801971
v  5.430389 47.347866 5.654877
v  0.365501 47.443787 6.243347
v  8.457016 46.623554 0.539948
v  5.102051 45.761585 -4.555878
v  0.001509 45.617939 -5.356750
v  11.203259 61.845455 -4.023376
v  11.844246 62.501534 -9.184998
v  12.305576 62.477436 -6.474976
v  8.968807 61.689537 -11.277344
v  7.970104 60.503834 -2.926208
v  0.491964 80.697067 3.117065
v  0.765039 79.402222 6.335358
v  0.760740 76.197212 6.324921
v  0.863846 74.206841 7.558746
v  0.814415 72.023758 7.006348
v  0.810854 73.605072 6.944885
v  0.823460 69.239037 7.147095
v  0.199127 80.100143 -0.309448
v  2.140703 72.232269 5.754303
v  2.617403 73.601891 5.677826
v  1.319344 75.443321 5.945526
v  3.651443 75.066658 3.664673
v  3.490835 70.680801 2.494476
v  3.191820 76.854019 5.903564
v  3.709858 76.323189 0.855011
v  1.987936 79.443886 5.820465
v  3.531092 78.684662 4.743805
v  2.136827 80.707481 2.994385
v  1.823660 73.623337 6.366364
v  2.877737 69.668327 4.617249
v  2.100300 69.250519 6.398499
v  3.553007 78.660980 0.845886
v  2.965380 79.885788 0.352081
v  3.022493 75.565460 5.338409
v  13.684620 60.391186 -8.062286
v  12.951530 59.964073 -4.423096
v  10.037727 59.310215 -11.116577
v  10.303768 45.967850 -6.593109
v  13.581539 45.865753 -8.529480
v  15.268169 46.955357 -6.425262
v  14.125504 47.734074 -3.724548
v  11.334599 47.406239 -3.210663
v  9.586304 50.262634 -8.068756
v  12.578758 50.607212 -9.861206
v  14.057186 51.451912 -7.635712
v  13.251907 51.649784 -5.604858
v  10.886711 50.251358 -4.845337
v  7.688026 54.903217 -8.236786
v  11.989029 52.636654 -9.937958
v  14.234825 56.764973 -7.949585
v  13.280533 56.419506 -4.583435
v  9.216099 55.217697 -3.895660
v  12.768753 49.123074 -9.139832
v  10.459934 52.015797 -5.232910
v  11.500919 55.213612 -11.012817
v  12.653645 39.762306 -3.895630
v  14.142651 39.589500 -5.056061
v  15.372486 40.134109 -4.265442
v  14.838757 40.764420 -2.565247
v  13.256081 40.658371 -2.084229
v  13.538101 37.249058 0.076141
v  15.388519 36.946007 -0.025421
v  12.934818 36.587872 1.036987
v  12.949249 35.802750 2.352509
v  12.035942 38.699326 0.123230
v  13.250698 38.326870 0.703796
v  11.971432 37.046036 1.596283
v  13.054783 37.146351 1.760101
v  12.136555 35.795624 2.128723
v  14.068851 35.274914 0.801971
v  14.695560 32.317345 1.812256
v  15.294392 34.870071 0.794739
v  14.536652 35.422436 -4.580353
v  14.878819 33.615498 -3.871429
v  15.362602 31.213699 -2.275269
v  15.774944 35.777122 -4.141235
v  15.777027 33.957340 -3.436768
v  14.101112 38.017227 0.240509
v  7.152302 31.754959 5.034393
v  3.799353 17.235483 -1.501343
v  5.528378 18.569925 -6.380096
v  10.837353 18.326920 -3.904175
v  8.159901 16.929998 0.902954
v  3.374359 25.227743 0.682343
v  5.152935 26.573082 -3.427490
v  9.018185 25.767307 -1.430664
v  7.574978 22.552797 1.759827
v  7.129250 27.251764 2.716339
v  7.612305 24.445833 2.759705
v  10.153305 29.544775 -1.406189
v  5.880222 3.894063 -3.937378
v  7.196918 5.251124 -7.137970
v  10.599648 4.693980 -5.533539
v  9.560642 7.570694 -4.865997
v  8.934963 5.733030 -2.334900
v  6.154568 7.034489 -3.703857
v  6.308758 0.174954 -7.004181
v  9.232769 0.691803 -7.991150
v  8.272316 0.604921 1.216309
v  14.054356 1.635601 -0.749878
v  11.626934 3.286692 3.626068
v  14.259869 1.725492 3.416016
v  10.688259 1.098784 5.291992
v  -6.489180 51.439430 1.192230
v  -4.762566 51.160877 -3.415680
v  -10.427086 64.460075 -6.225189
v  -7.374249 57.209747 -0.376678
v  -6.621490 61.420654 -3.514282
v  -3.162140 55.020390 -6.829773
v  -6.781994 55.877598 -5.527130
v  -5.061344 36.225727 -5.266205
v  -10.515659 37.634205 0.149414
v  -7.707254 36.142689 6.869965
v  -9.382328 38.393219 0.442413
v  -5.365831 37.424324 6.340332
v  -4.473221 38.069832 -4.430328
v  -1.026278 37.604733 -3.801270
v  -2.809683 51.748600 5.451202
v  -4.009150 63.507004 7.395020
v  -3.755289 59.144661 5.800995
v  -10.761929 68.441055 -1.890350
v  -10.505043 66.757500 1.423950
v  -7.979670 63.088024 2.499023
v  -10.689064 67.037254 -5.456146
v  -4.006229 66.167053 5.918610
v  -5.624142 69.458267 -5.652557
v  -2.098600 70.179054 2.182495
v  -2.489981 75.467827 -1.271667
v  -5.376389 71.078300 -1.558350
v  -3.311798 72.992691 -4.230408
v  -4.341814 46.854580 6.195709
v  -8.092026 46.414684 1.316223
v  -5.305325 45.875965 -4.058899
v  -11.912700 62.262878 0.009399
v  -12.759194 62.592018 -5.196289
v  -13.148070 62.707375 -2.446533
v  -9.881193 61.780666 -7.322510
v  -8.573856 61.089706 1.015198
v  -0.704275 72.235291 5.996918
v  -1.184149 73.605927 6.002014
v  0.144379 75.444572 6.045746
v  -2.541039 75.073242 4.192780
v  -2.590149 70.687263 3.013062
v  -1.705185 76.859230 6.321167
v  -3.071703 76.330399 1.433319
v  -0.527292 79.446556 6.034973
v  -2.232071 78.690781 5.235260
v  -1.149891 80.710976 3.274658
v  -0.285244 73.625580 6.546204
v  -1.628603 69.673119 5.001556
v  -0.561668 69.253349 6.625519
v  -2.913729 78.667847 1.397369
v  -2.415619 79.891502 0.810944
v  -1.636717 75.570412 5.735748
v  -14.390699 60.455433 -4.111816
v  -13.705309 60.243717 -0.413483
v  -10.590837 59.400532 -7.032257
v  -10.417770 46.365540 -1.475372
v  -13.542674 45.820801 -3.582092
v  -15.421005 47.094173 -1.763275
v  -14.508410 48.295971 0.869171
v  -11.748074 48.194935 1.600006
v  -9.774427 50.465336 -3.423218
v  -12.612596 50.522533 -5.480225
v  -14.302856 51.503365 -3.470306
v  -13.682804 51.908806 -1.404236
v  -11.334754 50.736980 -0.347473
v  -8.079966 55.247932 -3.759857
v  -12.075990 52.676529 -5.643707
v  -14.709275 56.798817 -4.016998
v  -13.970781 56.657578 -0.567749
v  -9.907703 55.688190 0.435486
v  -12.819863 49.056118 -4.606720
v  -10.975754 52.365448 -0.792511
v  -11.655714 55.235535 -6.807159
v  -12.676023 40.471741 1.884277
v  -14.103217 40.076504 0.705017
v  -15.389456 40.663094 1.369232
v  -14.933498 41.529579 3.039398
v  -13.394703 41.544621 3.548187
v  -13.643224 38.381821 6.079132
v  -15.480590 38.012863 5.955963
v  -13.056320 37.855251 7.127686
v  -13.095870 37.225395 8.524902
v  -12.179086 39.869690 6.003693
v  -13.404414 39.534664 6.584656
v  -12.125020 38.404404 7.659424
v  -13.215928 38.487896 7.777985
v  -12.276052 37.216648 8.329224
v  -14.147032 36.489307 7.011810
v  -14.730893 33.649960 8.337952
v  -15.360598 36.049744 7.013153
v  -14.432085 36.002899 1.636688
v  -14.750912 34.283215 2.537292
v  -15.227086 32.064178 4.387024
v  -15.693625 36.368458 1.992706
v  -15.672243 34.645290 2.901276
v  -14.230433 39.149605 6.133759
v  -6.196369 31.540314 5.490570
v  -3.360016 16.928686 -0.924561
v  -5.534807 17.987349 -5.691406
v  -10.590912 17.915894 -2.723969
v  -7.478619 16.783743 1.886902
v  -2.764849 25.055960 0.861694
v  -4.915047 26.340195 -3.093475
v  -8.577349 25.496698 -0.764740
v  -6.827967 22.399752 2.374817
v  -6.352137 27.051155 3.193970
v  -6.795324 24.285418 3.312531
v  -9.765842 29.268089 -0.645966
v  -5.661171 3.514863 -2.326080
v  -7.258144 4.644545 -5.475525
v  -10.491772 4.174584 -3.532990
v  -9.407524 7.112052 -3.145050
v  -8.554276 5.439992 -0.577576
v  -5.907196 6.634169 -2.273926
v  -6.271439 -0.406396 -5.065521
v  -9.281555 0.004907 -5.814606
v  -7.472580 0.598422 3.251221
v  -13.430677 1.412581 1.768524
v  -10.640488 3.407824 5.767365
v  -13.252080 1.804283 5.915894
v  -9.511688 1.358369 7.490417
# 266 vertices

vt  0.414517 0.485338 0.000000
vt  0.489174 0.497239 0.000000
vt  0.550479 0.485338 0.000000
vt  0.329118 0.504113 0.000000
vt  0.420682 0.504388 0.000000
vt  0.490853 0.675485 0.000000
vt  0.356970 0.710738 0.000000
vt  0.307767 0.663467 0.000000
vt  0.491001 0.506534 0.000000
vt  0.272881 0.708251 0.000000
vt  0.307693 0.663467 0.000000
vt  0.458986 0.602657 0.000000
vt  0.390374 0.619683 0.000000
vt  0.694409 0.971380 0.000000
vt  0.584242 0.936155 0.000000
vt  0.501054 0.950636 0.000000
vt  0.578845 0.971377 0.000000
vt  0.691613 0.940228 0.000000
vt  0.529882 0.993867 0.000000
vt  0.597833 0.993868 0.000000
vt  0.684209 0.993870 0.000000
vt  0.689094 0.993870 0.000000
vt  0.240700 0.512959 0.000000
vt  0.160773 0.512959 0.000000
vt  0.490853 0.820915 0.000000
vt  0.357039 0.710738 0.000000
vt  0.490853 0.781888 0.000000
vt  0.131880 0.753091 0.000000
vt  0.240556 0.660920 0.000000
vt  0.133663 0.660928 0.000000
vt  0.060606 0.782384 0.000000
vt  0.058190 0.859642 0.000000
vt  0.052544 0.886601 0.000000
vt  0.298691 0.847983 0.000000
vt  0.060014 0.783494 0.000000
vt  0.240556 0.781375 0.000000
vt  0.136145 0.808744 0.000000
vt  0.390182 0.870896 0.000000
vt  0.235241 0.891030 0.000000
vt  0.181129 0.899551 0.000000
vt  0.172936 0.966074 0.000000
vt  0.181129 0.899551 0.000000
vt  0.145152 0.921474 0.000000
vt  0.490646 0.999330 0.000000
vt  0.456563 0.999059 0.000000
vt  0.491140 0.942697 0.000000
vt  0.429989 0.941889 0.000000
vt  0.490853 0.898039 0.000000
vt  0.877923 0.002315 0.000000
vt  0.710756 0.001536 0.000000
vt  0.812168 0.002315 0.000000
vt  0.813217 0.120956 0.000000
vt  0.701416 0.118225 0.000000
vt  0.872775 0.120438 0.000000
vt  0.002866 0.854679 0.000000
vt  0.272881 0.708251 0.000000
vt  0.247300 0.848527 0.000000
vt  0.243886 0.876138 0.000000
vt  0.251604 0.781884 0.000000
vt  0.006948 0.782948 0.000000
vt  0.006948 0.782948 0.000000
vt  0.745560 1.001324 0.000000
vt  0.747491 0.935506 0.000000
vt  0.747491 0.878462 0.000000
vt  0.747491 0.808438 0.000000
vt  0.748639 0.732530 0.000000
vt  0.747491 0.790807 0.000000
vt  0.746944 0.628012 0.000000
vt  0.747085 0.666819 0.000000
vt  0.550618 0.934468 0.000000
vt  0.720762 0.730332 0.000000
vt  0.705811 0.784366 0.000000
vt  0.729837 0.853035 0.000000
vt  0.674684 0.829607 0.000000
vt  0.654033 0.662928 0.000000
vt  0.654033 0.662928 0.000000
vt  0.695349 0.885675 0.000000
vt  0.623758 0.856571 0.000000
vt  0.716351 0.931575 0.000000
vt  0.676247 0.904603 0.000000
vt  0.649719 0.961956 0.000000
vt  0.725611 0.781438 0.000000
vt  0.747491 0.878462 0.000000
vt  0.703232 0.671848 0.000000
vt  0.731857 0.666086 0.000000
vt  0.611291 0.885598 0.000000
vt  0.604148 0.909350 0.000000
vt  0.697736 0.853617 0.000000
vt  0.695349 0.885675 0.000000
vt  0.695349 0.885675 0.000000
vt  0.669444 0.510287 0.000000
vt  0.578607 0.510287 0.000000
vt  0.756457 0.510287 0.000000
vt  0.875912 0.308662 0.000000
vt  0.758260 0.308662 0.000000
vt  0.671223 0.308662 0.000000
vt  0.577057 0.308662 0.000000
vt  0.498247 0.308662 0.000000
vt  0.875566 0.382888 0.000000
vt  0.758924 0.382888 0.000000
vt  0.669163 0.382888 0.000000
vt  0.584325 0.382888 0.000000
vt  0.498223 0.363687 0.000000
vt  0.877240 0.461159 0.000000
vt  0.759483 0.410364 0.000000
vt  0.665903 0.461159 0.000000
vt  0.580075 0.461159 0.000000
vt  0.992418 0.461159 0.000000
vt  0.759996 0.360654 0.000000
vt  0.498223 0.402657 0.000000
vt  0.760539 0.449273 0.000000
vt  0.858161 0.196355 0.000000
vt  0.762705 0.196431 0.000000
vt  0.690657 0.196417 0.000000
vt  0.588027 0.196417 0.000000
vt  0.498144 0.196431 0.000000
vt  0.356438 0.030356 0.000000
vt  0.369327 0.043627 0.000000
vt  0.380090 0.017573 0.000000
vt  0.416197 0.004791 0.000000
vt  0.316032 0.012201 0.000000
vt  0.336848 0.019568 0.000000
vt  0.371147 0.002582 0.000000
vt  0.375723 0.009258 0.000000
vt  0.408124 0.000758 0.000000
vt  0.448349 0.035630 0.000000
vt  0.498209 0.039288 0.000000
vt  0.429228 0.045736 0.000000
vt  0.102506 0.115410 0.000000
vt  0.153549 0.117195 0.000000
vt  0.189513 0.114692 0.000000
vt  0.228429 0.109580 0.000000
vt  0.355355 0.108206 0.000000
vt  0.406548 0.108121 0.000000
vt  0.342839 0.029458 0.000000
vt  0.413806 0.033644 0.000000
vt  0.461840 0.047992 0.000000
vt  0.442212 0.108407 0.000000
vt  0.458693 0.603155 0.000000
vt  0.357039 0.710738 0.000000
vt  0.420389 0.504181 0.000000
vt  0.307693 0.663467 0.000000
vt  0.389206 0.622726 0.000000
vt  0.389206 0.622726 0.000000
vt  0.309151 0.663075 0.000000
vt  0.390855 0.620128 0.000000
vt  0.730001 0.975635 0.000000
vt  0.055577 0.663688 0.000000
vt  0.067037 0.515196 0.000000
vt  0.131877 0.752996 0.000000
vt  0.294173 0.886121 0.000000
vt  0.142740 0.921054 0.000000
vt  0.389917 0.922986 0.000000
vt  0.456563 0.999059 0.000000
vt  0.294173 0.886121 0.000000
vt  0.389917 0.922986 0.000000
vt  0.389917 0.922986 0.000000
vt  0.790107 0.184348 0.000000
vt  0.701372 0.182427 0.000000
vt  0.790107 0.184348 0.000000
vt  0.857243 0.184348 0.000000
vt  0.790107 0.184348 0.000000
vt  0.857243 0.184348 0.000000
vt  0.058190 0.859642 0.000000
vt  0.052544 0.886601 0.000000
vt  0.055608 0.663958 0.000000
vt  0.061197 0.782654 0.000000
vt  0.027518 0.706813 0.000000
vt  0.357109 0.710738 0.000000
vt  0.298691 0.847983 0.000000
vt  0.058190 0.859642 0.000000
vt  0.060606 0.782384 0.000000
vt  0.294173 0.886121 0.000000
vt  -0.000514 0.880403 0.000000
vt  0.052544 0.886601 0.000000
vt  0.298691 0.847983 0.000000
vt  0.298691 0.847983 0.000000
vt  0.294173 0.886121 0.000000
vt  0.357109 0.710738 0.000000
vt  0.027518 0.706813 0.000000
vt  0.061197 0.782654 0.000000
vt  0.060606 0.782384 0.000000
vt  0.720473 0.730776 0.000000
vt  0.658187 0.605708 0.000000
vt  0.587609 0.811448 0.000000
vt  0.658187 0.605708 0.000000
vt  0.748523 0.593788 0.000000
vt  0.658187 0.605708 0.000000
vt  0.720379 0.731031 0.000000
vt  0.703232 0.671848 0.000000
vt  0.748523 0.593788 0.000000
vt  0.703659 0.671442 0.000000
vt  0.731857 0.666086 0.000000
vt  0.748639 0.732530 0.000000
vt  0.720379 0.731031 0.000000
vt  0.720762 0.730332 0.000000
vt  0.703186 0.671176 0.000000
vt  0.731857 0.666086 0.000000
vt  0.703232 0.671848 0.000000
vt  0.747085 0.666819 0.000000
vt  0.748639 0.732530 0.000000
vt  0.587609 0.811448 0.000000
vt  0.587609 0.811448 0.000000
vt  0.649719 0.961956 0.000000
vt  0.649719 0.961956 0.000000
vt  0.550618 0.823662 0.000000
vt  0.587609 0.811448 0.000000
vt  0.550618 0.823662 0.000000
vt  0.649719 0.961956 0.000000
vt  0.067037 0.515196 0.000000
vt  0.055608 0.663958 0.000000
vt  0.571978 0.557920 0.000000
vt  0.625864 0.557513 0.000000
vt  0.679695 0.557918 0.000000
vt  0.756032 0.560223 0.000000
vt  0.625864 0.557513 0.000000
vt  0.679695 0.557918 0.000000
vt  0.944262 0.560223 0.000000
vt  0.625864 0.557513 0.000000
vt  0.756032 0.560223 0.000000
vt  0.806202 0.560223 0.000000
vt  0.756032 0.560223 0.000000
vt  0.571978 0.557920 0.000000
vt  0.498275 0.560223 0.000000
vt  0.992439 0.363687 0.000000
vt  0.992597 0.308662 0.000000
vt  0.992439 0.363687 0.000000
vt  0.992438 0.402657 0.000000
vt  0.806202 0.560223 0.000000
vt  0.498220 0.461159 0.000000
vt  0.498275 0.560223 0.000000
vt  0.498220 0.461159 0.000000
vt  0.875438 0.575163 0.000000
vt  0.944262 0.560223 0.000000
vt  0.992439 0.363687 0.000000
vt  0.992438 0.402657 0.000000
vt  0.992438 0.402657 0.000000
vt  0.498220 0.461159 0.000000
vt  0.991918 0.196431 0.000000
vt  0.992597 0.308662 0.000000
vt  0.991918 0.196431 0.000000
vt  0.249292 0.041099 0.000000
vt  0.119423 0.002194 0.000000
vt  0.154876 0.002573 0.000000
vt  0.128136 0.016613 0.000000
vt  0.160447 0.001473 0.000000
vt  0.128136 0.016613 0.000000
vt  0.154876 0.002573 0.000000
vt  0.065726 0.014292 0.000000
vt  0.119423 0.002194 0.000000
vt  0.128136 0.016613 0.000000
vt  0.128136 0.016613 0.000000
vt  0.105093 0.028910 0.000000
vt  0.065726 0.014292 0.000000
vt  0.105093 0.028910 0.000000
vt  0.000825 0.069213 0.000000
vt  0.065726 0.014292 0.000000
vt  0.065726 0.014292 0.000000
vt  0.000825 0.069213 0.000000
vt  0.000703 0.039244 0.000000
vt  0.249292 0.041099 0.000000
vt  0.249314 0.055441 0.000000
vt  0.105093 0.028910 0.000000
vt  0.194639 0.033982 0.000000
vt  0.483032 0.114221 0.000000
vt  0.355217 0.119080 0.000000
vt  0.406174 0.120334 0.000000
vt  0.355217 0.119080 0.000000
vt  0.194639 0.033982 0.000000
vt  0.243215 0.037501 0.000000
vt  0.249314 0.055441 0.000000
vt  0.249314 0.089732 0.000000
vt  0.000825 0.069213 0.000000
vt  0.105093 0.028910 0.000000
vt  0.000703 0.095058 0.000000
vt  0.000825 0.069213 0.000000
vt  0.249314 0.089732 0.000000
vt  0.249292 0.105039 0.000000
vt  0.249314 0.089732 0.000000
vt  0.249292 0.105039 0.000000
vt  0.355217 0.119080 0.000000
vt  0.249314 0.055441 0.000000
vt  0.249314 0.055441 0.000000
vt  0.105093 0.028910 0.000000
vt  0.160984 0.032072 0.000000
vt  0.483032 0.114221 0.000000
vt  0.443088 0.117732 0.000000
vt  0.483032 0.114221 0.000000
vt  0.692830 0.969164 0.000000
vt  0.685579 0.991654 0.000000
vt  0.730212 0.975635 0.000000
vt  0.584242 0.936155 0.000000
vt  0.529882 0.993867 0.000000
vt  0.602549 0.993867 0.000000
vt  0.689094 0.993870 0.000000
vt  0.561277 0.000692 0.000000
vt  0.688827 -0.000098 0.000000
vt  0.564263 0.119120 0.000000
vt  0.697567 0.116528 0.000000
vt  0.507564 0.183764 0.000000
vt  0.505869 0.118716 0.000000
vt  0.580429 0.182675 0.000000
vt  0.697589 0.180917 0.000000
vt  0.507564 0.183764 0.000000
vt  0.580429 0.182675 0.000000
vt  0.697589 0.180917 0.000000
vt  0.503935 0.000692 0.000000
vt  0.505869 0.118716 0.000000
vt  0.503935 0.000692 0.000000
vt  0.489174 0.497239 0.000000
vt  0.351459 0.420971 0.000000
vt  0.352499 0.420971 0.000000
vt  0.000784 0.227894 0.000000
vt  0.105699 0.228145 0.000000
vt  0.216985 0.228421 0.000000
vt  0.351571 0.227894 0.000000
vt  0.023914 0.327327 0.000000
vt  0.104981 0.327662 0.000000
vt  0.216171 0.327327 0.000000
vt  0.351490 0.301452 0.000000
vt  0.352420 0.301452 0.000000
vt  0.025422 0.328212 0.000000
vt  0.216104 0.328075 0.000000
vt  0.351611 0.363299 0.000000
vt  0.352312 0.363299 0.000000
vt  0.351597 0.328057 0.000000
vt  0.352330 0.328057 0.000000
vt  0.104127 0.227894 0.000000
vt  0.216660 0.380224 0.000000
vt  0.104983 0.328371 0.000000
vt  0.352342 0.227894 0.000000
vt  0.009616 0.131504 0.000000
vt  0.104256 0.155747 0.000000
vt  0.105883 0.155747 0.000000
vt  0.223982 0.125749 0.000000
vt  0.216130 0.152222 0.000000
vt  0.351732 0.147623 0.000000
vt  0.352306 0.146326 0.000000
vt  0.469070 0.149411 0.000000
vt  0.989968 0.003451 0.000000
vt  0.909211 0.004273 0.000000
vt  0.996004 0.120663 0.000000
vt  0.989968 0.003451 0.000000
vt  0.909211 0.004273 0.000000
vt  0.885225 0.122889 0.000000
vt  0.885225 0.122889 0.000000
vt  0.996004 0.120663 0.000000
vt  0.943924 0.157220 0.000000
vt  0.507177 0.624822 0.000000
vt  0.600053 0.622523 0.000000
vt  0.943924 0.157220 0.000000
vt  0.217290 0.227894 0.000000
vt  0.217575 0.327327 0.000000
vt  0.217290 0.227894 0.000000
vt  0.489174 0.227894 0.000000
vt  0.489174 0.227894 0.000000
vt  0.471690 0.333380 0.000000
vt  0.217345 0.328075 0.000000
vt  0.470864 0.334174 0.000000
vt  0.217345 0.328075 0.000000
vt  0.217232 0.380224 0.000000
vt  0.217232 0.380224 0.000000
vt  0.470864 0.334174 0.000000
vt  0.217345 0.328075 0.000000
vt  0.470864 0.334174 0.000000
vt  0.229465 0.497239 0.000000
vt  0.351589 0.497239 0.000000
vt  0.352627 0.497239 0.000000
vt  0.217232 0.380224 0.000000
vt  0.229465 0.497239 0.000000
vt  0.072972 0.497239 0.000000
vt  0.470864 0.334174 0.000000
vt  0.072972 0.497239 0.000000
vt  0.002386 0.497239 0.000000
vt  0.218721 0.149411 0.000000
vt  0.223132 0.128232 0.000000
vt  0.483427 0.127273 0.000000
vt  0.017963 0.152222 0.000000
vt  0.105700 0.228142 0.000000
vt  0.104128 0.227914 0.000000
vt  0.017963 0.152222 0.000000
vt  0.000790 0.227921 0.000000
vt  0.017963 0.152222 0.000000
vt  0.104128 0.227914 0.000000
vt  0.216984 0.228396 0.000000
vt  0.105700 0.228142 0.000000
vt  0.217291 0.227882 0.000000
vt  0.218721 0.149411 0.000000
vt  0.351571 0.227971 0.000000
vt  0.351571 0.227971 0.000000
vt  0.218721 0.149411 0.000000
vt  0.352342 0.227879 0.000000
vt  0.489111 0.227891 0.000000
vt  0.352342 0.227879 0.000000
vt  0.971575 0.059997 0.000000
vt  0.948232 0.041698 0.000000
vt  0.948232 0.041698 0.000000
vt  0.971575 0.059997 0.000000
vt  0.925604 0.058708 0.000000
vt  0.597947 0.686709 0.000000
vt  0.501430 0.685191 0.000000
vt  0.516483 0.798440 0.000000
vt  0.516483 0.798440 0.000000
vt  0.594444 0.793024 0.000000
vt  0.597947 0.686709 0.000000
vt  0.925604 0.058708 0.000000
vt  0.950876 0.082499 0.000000
vt  0.948232 0.041698 0.000000
vt  0.925604 0.058708 0.000000
vt  0.950876 0.082499 0.000000
vt  0.971575 0.059997 0.000000
vt  0.950876 0.082499 0.000000
vt  0.950876 0.082499 0.000000
vt  0.501430 0.685191 0.000000
vt  0.501430 0.685191 0.000000
vt  0.597947 0.686709 0.000000
vt  0.901715 0.182549 0.000000
vt  0.901715 0.182549 0.000000
vt  0.982420 0.184037 0.000000
vt  0.982420 0.184037 0.000000
vt  0.216660 0.380224 0.000000
vt  0.104983 0.328371 0.000000
vt  0.133020 0.497239 0.000000
vt  0.229583 0.497239 0.000000
vt  0.133020 0.497239 0.000000
vt  0.133020 0.497239 0.000000
vt  0.072972 0.497239 0.000000
vt  0.414517 0.485338 0.000000
vt  0.489174 0.497239 0.000000
vt  0.550479 0.485338 0.000000
vt  0.329118 0.504113 0.000000
vt  0.420682 0.504388 0.000000
vt  0.490853 0.675485 0.000000
vt  0.356970 0.710738 0.000000
vt  0.307767 0.663467 0.000000
vt  0.491001 0.506534 0.000000
vt  0.272881 0.708251 0.000000
vt  0.307693 0.663467 0.000000
vt  0.458986 0.602657 0.000000
vt  0.390374 0.619683 0.000000
vt  0.694409 0.971380 0.000000
vt  0.584242 0.936155 0.000000
vt  0.501054 0.950636 0.000000
vt  0.578845 0.971377 0.000000
vt  0.691613 0.940228 0.000000
vt  0.529882 0.993867 0.000000
vt  0.597833 0.993868 0.000000
vt  0.684209 0.993870 0.000000
vt  0.689094 0.993870 0.000000
vt  0.240700 0.512959 0.000000
vt  0.160773 0.512959 0.000000
vt  0.490853 0.820915 0.000000
vt  0.357039 0.710738 0.000000
vt  0.490853 0.781888 0.000000
vt  0.131880 0.753091 0.000000
vt  0.240556 0.660920 0.000000
vt  0.133663 0.660928 0.000000
vt  0.060606 0.782384 0.000000
vt  0.058190 0.859642 0.000000
vt  0.052544 0.886601 0.000000
vt  0.298691 0.847983 0.000000
vt  0.060014 0.783494 0.000000
vt  0.240556 0.781375 0.000000
vt  0.136145 0.808744 0.000000
vt  0.390182 0.870896 0.000000
vt  0.235241 0.891030 0.000000
vt  0.181129 0.899551 0.000000
vt  0.172936 0.966074 0.000000
vt  0.181129 0.899551 0.000000
vt  0.145152 0.921474 0.000000
vt  0.490646 0.999330 0.000000
vt  0.456563 0.999059 0.000000
vt  0.491140 0.942697 0.000000
vt  0.429989 0.941889 0.000000
vt  0.490853 0.898039 0.000000
vt  0.877923 0.002315 0.000000
vt  0.710756 0.001536 0.000000
vt  0.812168 0.002315 0.000000
vt  0.813217 0.120956 0.000000
vt  0.701416 0.118225 0.000000
vt  0.872775 0.120438 0.000000
vt  0.002866 0.854679 0.000000
vt  0.272881 0.708251 0.000000
vt  0.247300 0.848527 0.000000
vt  0.243886 0.876138 0.000000
vt  0.251604 0.781884 0.000000
vt  0.006948 0.782948 0.000000
vt  0.006948 0.782948 0.000000
vt  0.745560 1.001324 0.000000
vt  0.747491 0.935506 0.000000
vt  0.747491 0.878462 0.000000
vt  0.747491 0.808438 0.000000
vt  0.748639 0.732530 0.000000
vt  0.747491 0.790807 0.000000
vt  0.746944 0.628012 0.000000
vt  0.747085 0.666819 0.000000
vt  0.550618 0.934468 0.000000
vt  0.720762 0.730332 0.000000
vt  0.705811 0.784366 0.000000
vt  0.729837 0.853035 0.000000
vt  0.674684 0.829607 0.000000
vt  0.654033 0.662928 0.000000
vt  0.654033 0.662928 0.000000
vt  0.695349 0.885675 0.000000
vt  0.623758 0.856571 0.000000
vt  0.716351 0.931575 0.000000
vt  0.676247 0.904603 0.000000
vt  0.649719 0.961956 0.000000
vt  0.725611 0.781438 0.000000
vt  0.747491 0.878462 0.000000
vt  0.703232 0.671848 0.000000
vt  0.731857 0.666086 0.000000
vt  0.611291 0.885598 0.000000
vt  0.604148 0.909350 0.000000
vt  0.697736 0.853617 0.000000
vt  0.695349 0.885675 0.000000
vt  0.695349 0.885675 0.000000
vt  0.669444 0.510287 0.000000
vt  0.578607 0.510287 0.000000
vt  0.756457 0.510287 0.000000
vt  0.875912 0.308662 0.000000
vt  0.758260 0.308662 0.000000
vt  0.671223 0.308662 0.000000
vt  0.577057 0.308662 0.000000
vt  0.498247 0.308662 0.000000
vt  0.875566 0.382888 0.000000
vt  0.758924 0.382888 0.000000
vt  0.669163 0.382888 0.000000
vt  0.584325 0.382888 0.000000
vt  0.498223 0.363687 0.000000
vt  0.877240 0.461159 0.000000
vt  0.759483 0.410364 0.000000
vt  0.665903 0.461159 0.000000
vt  0.580075 0.461159 0.000000
vt  0.992418 0.461159 0.000000
vt  0.759996 0.360654 0.000000
vt  0.498223 0.402657 0.000000
vt  0.760539 0.449273 0.000000
vt  0.858161 0.196355 0.000000
vt  0.762705 0.196431 0.000000
vt  0.690657 0.196417 0.000000
vt  0.588027 0.196417 0.000000
vt  0.498144 0.196431 0.000000
vt  0.356438 0.030356 0.000000
vt  0.369327 0.043627 0.000000
vt  0.380090 0.017573 0.000000
vt  0.416197 0.004791 0.000000
vt  0.316032 0.012201 0.000000
vt  0.336848 0.019568 0.000000
vt  0.371147 0.002582 0.000000
vt  0.375723 0.009258 0.000000
vt  0.408124 0.000758 0.000000
vt  0.448349 0.035630 0.000000
vt  0.498209 0.039288 0.000000
vt  0.429228 0.045736 0.000000
vt  0.102506 0.115410 0.000000
vt  0.153549 0.117195 0.000000
vt  0.189513 0.114692 0.000000
vt  0.228429 0.109580 0.000000
vt  0.355355 0.108206 0.000000
vt  0.406548 0.108121 0.000000
vt  0.342839 0.029458 0.000000
vt  0.413806 0.033644 0.000000
vt  0.461840 0.047992 0.000000
vt  0.442212 0.108407 0.000000
vt  0.458693 0.603155 0.000000
vt  0.357039 0.710738 0.000000
vt  0.420389 0.504181 0.000000
vt  0.307693 0.663467 0.000000
vt  0.389206 0.622726 0.000000
vt  0.389206 0.622726 0.000000
vt  0.309151 0.663075 0.000000
vt  0.390855 0.620128 0.000000
vt  0.730001 0.975635 0.000000
vt  0.055577 0.663688 0.000000
vt  0.067037 0.515196 0.000000
vt  0.131877 0.752996 0.000000
vt  0.294173 0.886121 0.000000
vt  0.142740 0.921054 0.000000
vt  0.389917 0.922986 0.000000
vt  0.456563 0.999059 0.000000
vt  0.294173 0.886121 0.000000
vt  0.389917 0.922986 0.000000
vt  0.389917 0.922986 0.000000
vt  0.790107 0.184348 0.000000
vt  0.701372 0.182427 0.000000
vt  0.790107 0.184348 0.000000
vt  0.857243 0.184348 0.000000
vt  0.790107 0.184348 0.000000
vt  0.857243 0.184348 0.000000
vt  0.058190 0.859642 0.000000
vt  0.052544 0.886601 0.000000
vt  0.055608 0.663958 0.000000
vt  0.061197 0.782654 0.000000
vt  0.027518 0.706813 0.000000
vt  0.357109 0.710738 0.000000
vt  0.298691 0.847983 0.000000
vt  0.058190 0.859642 0.000000
vt  0.060606 0.782384 0.000000
vt  0.294173 0.886121 0.000000
vt  -0.000514 0.880403 0.000000
vt  0.052544 0.886601 0.000000
vt  0.298691 0.847983 0.000000
vt  0.298691 0.847983 0.000000
vt  0.294173 0.886121 0.000000
vt  0.357109 0.710738 0.000000
vt  0.027518 0.706813 0.000000
vt  0.061197 0.782654 0.000000
vt  0.060606 0.782384 0.000000
vt  0.720473 0.730776 0.000000
vt  0.658187 0.605708 0.000000
vt  0.587609 0.811448 0.000000
vt  0.658187 0.605708 0.000000
vt  0.748523 0.593788 0.000000
vt  0.658187 0.605708 0.000000
vt  0.720379 0.731031 0.000000
vt  0.703232 0.671848 0.000000
vt  0.748523 0.593788 0.000000
vt  0.703659 0.671442 0.000000
vt  0.731857 0.666086 0.000000
vt  0.748639 0.732530 0.000000
vt  0.720379 0.731031 0.000000
vt  0.720762 0.730332 0.000000
vt  0.703186 0.671176 0.000000
vt  0.731857 0.666086 0.000000
vt  0.703232 0.671848 0.000000
vt  0.747085 0.666819 0.000000
vt  0.748639 0.732530 0.000000
vt  0.587609 0.811448 0.000000
vt  0.587609 0.811448 0.000000
vt  0.649719 0.961956 0.000000
vt  0.649719 0.961956 0.000000
vt  0.550618 0.823662 0.000000
vt  0.587609 0.811448 0.000000
vt  0.550618 0.823662 0.000000
vt  0.649719 0.961956 0.000000
vt  0.067037 0.515196 0.000000
vt  0.055608 0.663958 0.000000
vt  0.571978 0.557920 0.000000
vt  0.625864 0.557513 0.000000
vt  0.679695 0.557918 0.000000
vt  0.756032 0.560223 0.000000
vt  0.625864 0.557513 0.000000
vt  0.679695 0.557918 0.000000
vt  0.944262 0.560223 0.000000
vt  0.625864 0.557513 0.000000
vt  0.756032 0.560223 0.000000
vt  0.806202 0.560223 0.000000
vt  0.756032 0.560223 0.000000
vt  0.571978 0.557920 0.000000
vt  0.498275 0.560223 0.000000
vt  0.992439 0.363687 0.000000
vt  0.992597 0.308662 0.000000
vt  0.992439 0.363687 0.000000
vt  0.992438 0.402657 0.000000
vt  0.806202 0.560223 0.000000
vt  0.498220 0.461159 0.000000
vt  0.498275 0.560223 0.000000
vt  0.498220 0.461159 0.000000
vt  0.875438 0.575163 0.000000
vt  0.944262 0.560223 0.000000
vt  0.992439 0.363687 0.000000
vt  0.992438 0.402657 0.000000
vt  0.992438 0.402657 0.000000
vt  0.498220 0.461159 0.000000
vt  0.991918 0.196431 0.000000
vt  0.992597 0.308662 0.000000
vt  0.991918 0.196431 0.000000
vt  0.249292 0.041099 0.000000
vt  0.119423 0.002194 0.000000
vt  0.154876 0.002573 0.000000
vt  0.128136 0.016613 0.000000
vt  0.160447 0.001473 0.000000
vt  0.128136 0.016613 0.000000
vt  0.154876 0.002573 0.000000
vt  0.065726 0.014292 0.000000
vt  0.119423 0.002194 0.000000
vt  0.128136 0.016613 0.000000
vt  0.128136 0.016613 0.000000
vt  0.105093 0.028910 0.000000
vt  0.065726 0.014292 0.000000
vt  0.105093 0.028910 0.000000
vt  0.000825 0.069213 0.000000
vt  0.065726 0.014292 0.000000
vt  0.065726 0.014292 0.000000
vt  0.000825 0.069213 0.000000
vt  0.000703 0.039244 0.000000
vt  0.249292 0.041099 0.000000
vt  0.249314 0.055441 0.000000
vt  0.105093 0.028910 0.000000
vt  0.194639 0.033982 0.000000
vt  0.483032 0.114221 0.000000
vt  0.355217 0.119080 0.000000
vt  0.406174 0.120334 0.000000
vt  0.355217 0.119080 0.000000
vt  0.194639 0.033982 0.000000
vt  0.243215 0.037501 0.000000
vt  0.249314 0.055441 0.000000
vt  0.249314 0.089732 0.000000
vt  0.000825 0.069213 0.000000
vt  0.105093 0.028910 0.000000
vt  0.000703 0.095058 0.000000
vt  0.000825 0.069213 0.000000
vt  0.249314 0.089732 0.000000
vt  0.249292 0.105039 0.000000
vt  0.249314 0.089732 0.000000
vt  0.249292 0.105039 0.000000
vt  0.355217 0.119080 0.000000
vt  0.249314 0.055441 0.000000
vt  0.249314 0.055441 0.000000
vt  0.105093 0.028910 0.000000
vt  0.160984 0.032072 0.000000
vt  0.483032 0.114221 0.000000
vt  0.443088 0.117732 0.000000
vt  0.483032 0.114221 0.000000
vt  0.692830 0.969164 0.000000
vt  0.685579 0.991654 0.000000
vt  0.730212 0.975635 0.000000
vt  0.584242 0.936155 0.000000
vt  0.529882 0.993867 0.000000
vt  0.602549 0.993867 0.000000
vt  0.689094 0.993870 0.000000
vt  0.561277 0.000692 0.000000
vt  0.688827 -0.000098 0.000000
vt  0.564263 0.119120 0.000000
vt  0.697567 0.116528 0.000000
vt  0.507564 0.183764 0.000000
vt  0.505869 0.118716 0.000000
vt  0.580429 0.182675 0.000000
vt  0.697589 0.180917 0.000000
vt  0.507564 0.183764 0.000000
vt  0.580429 0.182675 0.000000
vt  0.697589 0.180917 0.000000
vt  0.503935 0.000692 0.000000
vt  0.505869 0.118716 0.000000
vt  0.503935 0.000692 0.000000
vt  0.489174 0.497239 0.000000
vt  0.351459 0.420971 0.000000
vt  0.352499 0.420971 0.000000
vt  0.000784 0.227894 0.000000
vt  0.105699 0.228145 0.000000
vt  0.216985 0.228421 0.000000
vt  0.351571 0.227894 0.000000
vt  0.023914 0.327327 0.000000
vt  0.104981 0.327662 0.000000
vt  0.216171 0.327327 0.000000
vt  0.351490 0.301452 0.000000
vt  0.352420 0.301452 0.000000
vt  0.025422 0.328212 0.000000
vt  0.216104 0.328075 0.000000
vt  0.351611 0.363299 0.000000
vt  0.352312 0.363299 0.000000
vt  0.351597 0.328057 0.000000
vt  0.352330 0.328057 0.000000
vt  0.104127 0.227894 0.000000
vt  0.216660 0.380224 0.000000
vt  0.104983 0.328371 0.000000
vt  0.352342 0.227894 0.000000
vt  0.009616 0.131504 0.000000
vt  0.104256 0.155747 0.000000
vt  0.105883 0.155747 0.000000
vt  0.223982 0.125749 0.000000
vt  0.216130 0.152222 0.000000
vt  0.351732 0.147623 0.000000
vt  0.352306 0.146326 0.000000
vt  0.469070 0.149411 0.000000
vt  0.989968 0.003451 0.000000
vt  0.909211 0.004273 0.000000
vt  0.996004 0.120663 0.000000
vt  0.989968 0.003451 0.000000
vt  0.909211 0.004273 0.000000
vt  0.885225 0.122889 0.000000
vt  0.885225 0.122889 0.000000
vt  0.996004 0.120663 0.000000
vt  0.943924 0.157220 0.000000
vt  0.507177 0.624822 0.000000
vt  0.600053 0.622523 0.000000
vt  0.943924 0.157220 0.000000
vt  0.217290 0.227894 0.000000
vt  0.217575 0.327327 0.000000
vt  0.217290 0.227894 0.000000
vt  0.489174 0.227894 0.000000
vt  0.489174 0.227894 0.000000
vt  0.471690 0.333380 0.000000
vt  0.217345 0.328075 0.000000
vt  0.470864 0.334174 0.000000
vt  0.217345 0.328075 0.000000
vt  0.217232 0.380224 0.000000
vt  0.217232 0.380224 0.000000
vt  0.470864 0.334174 0.000000
vt  0.217345 0.328075 0.000000
vt  0.470864 0.334174 0.000000
vt  0.229465 0.497239 0.000000
vt  0.351589 0.497239 0.000000
vt  0.352627 0.497239 0.000000
vt  0.217232 0.380224 0.000000
vt  0.229465 0.497239 0.000000
vt  0.072972 0.497239 0.000000
vt  0.470864 0.334174 0.000000
vt  0.072972 0.497239 0.000000
vt  0.002386 0.497239 0.000000
vt  0.218721 0.149411 0.000000
vt  0.223132 0.128232 0.000000
vt  0.483427 0.127273 0.000000
vt  0.017963 0.152222 0.000000
vt  0.105700 0.228142 0.000000
vt  0.104128 0.227914 0.000000
vt  0.017963 0.152222 0.000000
vt  0.000790 0.227921 0.000000
vt  0.017963 0.152222 0.000000
vt  0.104128 0.227914 0.000000
vt  0.216984 0.228396 0.000000
vt  0.105700 0.228142 0.000000
vt  0.217291 0.227882 0.000000
vt  0.218721 0.149411 0.000000
vt  0.351571 0.227971 0.000000
vt  0.351571 0.227971 0.000000
vt  0.218721 0.149411 0.000000
vt  0.352342 0.227879 0.000000
vt  0.489111 0.227891 0.000000
vt  0.352342 0.227879 0.000000
vt  0.971575 0.059997 0.000000
vt  0.948232 0.041698 0.000000
vt  0.948232 0.041698 0.000000
vt  0.971575 0.059997 0.000000
vt  0.925604 0.058708 0.000000
vt  0.597947 0.686709 0.000000
vt  0.501430 0.685191 0.000000
vt  0.516483 0.798440 0.000000
vt  0.516483 0.798440 0.000000
vt  0.594444 0.793024 0.000000
vt  0.597947 0.686709 0.000000
vt  0.925604 0.058708 0.000000
vt  0.950876 0.082499 0.000000
vt  0.948232 0.041698 0.000000
vt  0.925604 0.058708 0.000000
vt  0.950876 0.082499 0.000000
vt  0.971575 0.059997 0.000000
vt  0.950876 0.082499 0.000000
vt  0.950876 0.082499 0.000000
vt  0.501430 0.685191 0.000000
vt  0.501430 0.685191 0.000000
vt  0.597947 0.686709 0.000000
vt  0.901715 0.182549 0.000000
vt  0.901715 0.182549 0.000000
vt  0.982420 0.184037 0.000000
vt  0.982420 0.184037 0.000000
vt  0.216660 0.380224 0.000000
vt  0.104983 0.328371 0.000000
vt  0.133020 0.497239 0.000000
vt  0.229583 0.497239 0.000000
vt  0.133020 0.497239 0.000000
vt  0.133020 0.497239 0.000000
vt  0.072972 0.497239 0.000000
# 854 texture vertices

vn  0.986394 0.000000 -0.164399
vn  0.052942 -0.834064 0.549122
vn  0.986394 0.000000 -0.164399
vn  0.997259 0.073612 -0.007527
vn  0.530396 -0.314633 -0.787202
vn  -0.172991 -0.262432 -0.949318
vn  -0.088123 0.122267 -0.988577
vn  0.992219 -0.106552 -0.064403
vn  -0.113911 -0.232061 -0.966008
vn  -0.963666 -0.084390 -0.253429
vn  -0.005878 -0.431618 -0.902037
vn  0.570626 -0.441546 -0.692403
vn  0.003594 -0.999261 0.038269
vn  0.180049 -0.970217 0.162055
vn  0.953635 -0.278160 -0.114923
vn  -0.003702 -0.994507 -0.104607
vn  0.103799 -0.796879 0.595155
vn  0.208184 -0.943540 0.257664
vn  0.018309 -0.998507 -0.051455
vn  0.366937 -0.603207 -0.708165
vn  -0.283563 -0.948829 0.138980
vn  0.144218 0.078072 0.986461
vn  0.489171 0.091006 0.867427
vn  -0.174114 0.219247 -0.960008
vn  -0.189119 -0.089140 -0.977900
vn  0.633491 -0.005249 0.773733
vn  0.163223 -0.124996 0.978639
vn  0.791932 -0.197257 0.577870
vn  0.798168 0.596335 -0.085513
vn  0.831357 0.322531 0.452569
vn  0.841750 -0.318384 0.435991
vn  0.272249 0.556474 -0.784995
vn  0.179186 0.346520 0.920770
vn  0.587129 0.454470 0.669878
vn  0.252144 0.617075 -0.745414
vn  0.115071 -0.859045 0.498800
vn  0.896309 0.265482 0.355176
vn  0.748822 0.427995 -0.506049
vn  0.711830 0.702124 -0.017870
vn  -0.078158 0.536666 -0.840167
vn  -0.072182 0.741981 -0.666524
vn  0.401115 0.678918 -0.614961
vn  -0.115464 0.574407 -0.810385
vn  0.637549 0.276878 0.718937
vn  0.075544 0.183913 0.980035
vn  0.960333 0.273098 -0.056382
vn  0.521981 0.127018 -0.843447
vn  -0.035301 0.037593 -0.998669
vn  0.788277 0.021895 0.614931
vn  0.784661 0.382205 -0.488085
vn  0.873167 0.453540 0.178553
vn  -0.028887 0.151876 -0.987977
vn  -0.370096 -0.356379 0.857918
vn  0.007902 0.996745 0.080232
vn  0.076802 0.439166 0.895117
vn  0.084433 0.125470 0.988498
vn  0.081592 -0.267412 0.960122
vn  0.084714 0.090945 0.992246
vn  0.078780 -0.363262 0.928350
vn  0.055868 -0.742962 0.666998
vn  -0.047543 0.821574 -0.568116
vn  0.684848 -0.060536 0.726167
vn  0.765545 -0.028538 0.642749
vn  0.508481 0.013805 0.860963
vn  0.964522 -0.102113 0.243454
vn  0.913572 -0.392539 0.106300
vn  0.581806 -0.083110 0.809070
vn  0.990414 -0.009599 -0.137800
vn  0.394005 0.688423 0.608962
vn  0.918903 0.331266 0.214196
vn  0.395946 0.906313 0.147727
vn  0.689721 -0.019355 0.723817
vn  0.814841 -0.512136 0.271570
vn  0.675329 -0.500113 0.542050
vn  0.952823 0.196535 -0.231308
vn  0.553792 0.695137 -0.458366
vn  0.672629 -0.203400 0.711476
vn  0.865044 0.298970 -0.402884
vn  0.709475 0.187881 0.679224
vn  -0.013092 -0.040382 -0.999099
vn  -0.940645 -0.306986 -0.144731
vn  0.286315 -0.273003 -0.918419
vn  0.986913 0.151509 -0.055200
vn  0.559340 0.324705 0.762696
vn  -0.539004 0.175767 0.823760
vn  -0.809766 -0.319360 -0.492228
vn  0.245923 -0.190128 -0.950460
vn  0.950000 0.044386 -0.309078
vn  0.605310 0.212523 0.767094
vn  -0.543881 0.224866 0.808473
vn  -0.892198 -0.371859 -0.256326
vn  0.179634 -0.172908 -0.968418
vn  0.940009 0.053728 -0.336893
vn  0.658153 -0.108590 0.745012
vn  -0.268783 -0.301472 0.914806
vn  0.244560 -0.257309 -0.934870
vn  -0.444724 -0.251950 0.859501
vn  0.122513 -0.178360 -0.976309
vn  -0.920697 -0.276484 -0.275452
vn  -0.031209 -0.304442 -0.952020
vn  0.976873 0.024530 -0.212410
vn  0.641587 0.446743 0.623528
vn  -0.435452 0.419721 0.796377
vn  -0.396867 -0.572718 0.717280
vn  0.822684 0.186586 0.537008
vn  0.076271 -0.766082 -0.638201
vn  0.501976 -0.141564 0.853217
vn  -0.943184 0.286670 0.168002
vn  0.363075 0.498145 0.787418
vn  -0.805108 0.233591 0.545194
vn  0.605772 0.327828 0.724962
vn  -0.598423 -0.753938 -0.271049
vn  -0.853659 -0.016155 0.520582
vn  0.115783 -0.040062 0.992466
vn  0.704874 0.178067 0.686618
vn  -0.312670 -0.349123 -0.883375
vn  -0.628938 -0.466242 -0.622138
vn  0.390876 -0.812193 -0.433081
vn  0.794984 -0.061138 -0.603542
vn  0.881169 -0.205631 -0.425742
vn  0.414714 0.115212 0.902629
vn  0.328988 -0.256401 0.908859
vn  -0.843307 -0.216701 0.491806
vn  -0.362323 0.147629 -0.920287
vn  0.990607 0.097243 -0.096138
vn  0.311794 -0.219283 0.924500
vn  -0.851966 -0.276497 0.444639
vn  -0.155783 -0.048975 -0.986576
vn  0.978239 0.076181 -0.192990
vn  0.333744 -0.227520 0.914795
vn  0.516950 -0.228591 0.824930
vn  0.377008 -0.183846 0.907781
vn  0.948498 -0.137318 -0.285473
vn  -0.957746 0.107461 0.266785
vn  -0.351827 0.216692 -0.910639
vn  0.789752 0.437721 -0.429759
vn  0.939706 0.130836 -0.315967
vn  0.174554 0.560133 0.809804
vn  -0.925839 -0.156148 0.344150
vn  -0.801300 -0.438691 -0.406778
vn  0.426484 -0.498074 -0.755006
vn  -0.708985 -0.494254 0.503044
vn  0.978873 -0.143615 -0.145544
vn  0.002970 0.881746 0.471714
vn  0.769429 0.259953 0.583441
vn  -0.015721 -0.605488 0.795699
vn  -0.974216 0.105317 0.199531
vn  -0.724325 -0.284492 -0.628027
vn  -0.292089 0.109260 -0.950130
vn  -0.964381 -0.132542 0.228915
vn  0.971687 -0.047435 -0.231462
vn  -0.284219 -0.414455 -0.864550
vn  -0.755802 -0.442789 -0.482391
vn  -0.123819 -0.971164 0.203737
vn  -0.959130 -0.282959 -0.002051
vn  0.041714 -0.989738 -0.136668
vn  -0.166864 -0.947116 0.274095
vn  0.019420 -0.999807 0.002946
vn  -0.422269 -0.608599 -0.671786
vn  0.309628 -0.938210 0.154571
vn  -0.267514 0.091567 0.959193
vn  -0.264943 0.011054 0.964201
vn  -0.554793 -0.210244 0.804986
vn  -0.782409 0.622444 0.019970
vn  -0.612977 0.440071 0.656199
vn  -0.650012 -0.250065 0.717601
vn  -0.494173 0.611791 -0.617661
vn  -0.263808 0.501646 0.823867
vn  -0.472709 0.604966 -0.640751
vn  -0.789830 0.299231 0.535377
vn  -0.835955 0.422734 -0.349964
vn  -0.645463 0.745976 0.164005
vn  -0.543083 0.681890 -0.489986
vn  -0.527579 0.227394 0.818506
vn  -0.957272 0.280371 0.070875
vn  -0.626784 0.174648 -0.759368
vn  -0.699965 0.103161 0.706687
vn  -0.819366 0.348609 -0.455095
vn  -0.876038 0.449644 0.174295
vn  0.145596 0.096067 -0.984669
vn  0.376786 -0.325223 0.867330
vn  -0.552128 -0.059220 0.831654
vn  -0.645716 -0.027040 0.763099
vn  -0.355324 0.014725 0.934627
vn  -0.909585 -0.100120 0.403275
vn  -0.881773 -0.440126 0.169605
vn  -0.436584 -0.082023 0.895917
vn  -0.998221 -0.041797 -0.042521
vn  -0.283753 0.689142 0.666759
vn  -0.868666 0.333165 0.366634
vn  -0.363304 0.907119 0.212472
vn  -0.557239 -0.018031 0.830156
vn  -0.750954 -0.526011 0.399225
vn  -0.570761 -0.504254 0.648043
vn  -0.977714 0.197523 -0.071139
vn  -0.625259 0.693190 -0.358522
vn  -0.542875 -0.202105 0.815132
vn  -0.877297 0.225904 -0.423459
vn  -0.730906 0.173134 0.660152
vn  0.047336 -0.088766 -0.994927
vn  0.960409 -0.274740 -0.046175
vn  -0.212598 -0.408391 -0.887704
vn  -0.985960 0.091335 -0.139791
vn  -0.614876 0.397597 0.681060
vn  0.472124 0.319648 0.821538
vn  0.860875 -0.325198 -0.391332
vn  -0.155159 -0.273191 -0.949364
vn  -0.923396 -0.032565 -0.382465
vn  -0.679549 0.243872 0.691910
vn  0.470542 0.342098 0.813363
vn  0.921520 -0.337139 -0.192712
vn  -0.087327 -0.231885 -0.968815
vn  -0.919244 -0.010625 -0.393546
vn  -0.706326 -0.108521 0.699519
vn  0.230525 -0.251877 0.939902
vn  -0.162561 -0.376029 -0.912237
vn  0.382089 -0.183321 0.905760
vn  -0.040960 -0.231021 -0.972086
vn  0.939224 -0.275201 -0.205239
vn  0.089241 -0.418903 -0.903635
vn  -0.965540 -0.043064 -0.256666
vn  -0.673919 0.496659 0.546958
vn  0.382634 0.534002 0.753945
vn  0.386037 -0.474304 0.791209
vn  -0.845770 0.222485 0.484947
vn  -0.034263 -0.836738 -0.546530
vn  -0.527712 -0.057450 0.847478
vn  0.927936 0.333937 0.165591
vn  -0.402124 0.573182 0.713974
vn  0.779169 0.318681 0.539758
vn  -0.638608 0.391156 0.662704
vn  0.626818 -0.761846 -0.163368
vn  0.835296 0.069370 0.545407
vn  -0.148973 0.070869 0.986298
vn  -0.732650 0.234659 0.638874
vn  0.354528 -0.439042 -0.825562
vn  0.662028 -0.515573 -0.543970
vn  -0.354346 -0.867773 -0.348438
vn  -0.769209 -0.153301 -0.620336
vn  -0.860217 -0.279470 -0.426524
vn  -0.448037 0.206007 0.869956
vn  -0.240586 -0.260569 0.934998
vn  0.884414 -0.193248 0.424814
vn  0.276127 0.097422 -0.956171
vn  -0.995522 0.094279 -0.006884
vn  -0.225046 -0.163442 0.960542
vn  0.890797 -0.264822 0.369257
vn  0.063125 -0.062190 -0.996066
vn  -0.992097 0.059896 -0.110250
vn  -0.248761 -0.189372 0.949872
vn  -0.440399 -0.228993 0.868107
vn  -0.294392 -0.169768 0.940485
vn  -0.969768 -0.152105 -0.190823
vn  0.976772 0.131213 0.169411
vn  0.266011 0.155352 -0.951369
vn  -0.832076 0.400948 -0.383262
vn  -0.964963 0.114430 -0.236120
vn  -0.109447 0.613841 0.781806
vn  0.953557 -0.140186 0.266604
vn  0.771710 -0.454820 -0.444524
vn  -0.484042 -0.556951 -0.674914
vn  0.763419 -0.446506 0.466716
vn  -0.985353 -0.165421 -0.041409
vn  0.024231 0.913768 0.405513
vn  -0.717043 0.292572 0.632654
vn  0.100387 -0.545564 0.832035
# 266 vertex normals

g (null)
usemtl fat
s 1
f 3/3/3 1/1/1 2/2/2
f 6/6/6 7/7/7 11/12/11
f 6/6/6 11/139/11 9/9/9
f 7/140/7 10/10/10 8/8/8
f 4/4/4 5/5/5 8/11/8
f 11/12/11 5/141/5 9/9/9
f 11/12/11 12/13/12 5/5/5
f 12/143/12 7/7/7 8/142/8
f 11/12/11 7/7/7 12/144/12
f 5/5/5 12/146/12 8/145/8
f 16/17/16 18/19/18 15/16/15
f 18/19/18 16/17/16 19/20/19
f 19/21/19 16/17/16 17/18/17
f 15/16/15 18/19/18 14/15/14
f 18/293/18 20/294/20 14/292/14
f 14/15/14 21/22/21 13/14/13
f 14/292/14 20/294/20 21/295/21
f 21/22/21 2/147/2 13/14/13
f 7/26/7 25/27/25 24/25/24
f 27/29/27 28/30/28 26/28/26
f 31/31/31 28/30/28 8/148/8
f 34/37/34 31/35/31 30/32/30
f 23/24/23 28/30/28 27/29/27
f 28/30/28 23/24/23 4/149/4
f 23/24/23 27/29/27 22/23/22
f 27/29/27 26/150/26 33/36/33
f 35/38/35 32/34/32 7/26/7
f 6/6/6 25/27/25 7/26/7
f 26/28/26 28/30/28 31/35/31
f 35/38/35 29/151/29 32/34/32
f 33/36/33 26/28/26 34/37/34
f 24/25/24 35/38/35 7/26/7
f 26/28/26 31/35/31 34/37/34
f 34/37/34 30/32/30 37/40/37
f 29/33/29 39/43/39 30/32/30
f 34/37/34 36/39/36 33/36/33
f 37/40/37 36/39/36 34/37/34
f 37/42/37 39/152/39 38/41/38
f 38/154/38 39/153/39 42/47/42
f 41/46/41 40/44/40 38/45/38
f 38/45/38 42/47/42 41/46/41
f 37/40/37 30/32/30 39/43/39
f 39/156/39 29/155/29 35/38/35
f 39/157/39 35/38/35 42/47/42
f 42/47/42 35/38/35 43/48/43
f 42/47/42 43/48/43 41/46/41
f 35/38/35 24/25/24 43/48/43
f 45/53/45 44/52/44 23/158/23
f 15/49/15 46/54/46 44/52/44
f 46/301/46 47/298/47 4/300/4
f 47/298/47 9/303/9 5/302/5
f 44/52/44 45/53/45 17/50/17
f 45/53/45 23/160/23 22/159/22
f 16/51/16 15/49/15 44/52/44
f 46/54/46 4/161/4 44/52/44
f 44/52/44 4/163/4 23/162/23
f 47/298/47 5/305/5 4/304/4
f 47/298/47 48/299/48 9/306/9
f 46/308/46 15/307/15 47/298/47
f 14/296/14 47/298/47 15/309/15
f 47/298/47 14/296/14 48/299/48
f 14/296/14 13/297/13 48/299/48
f 16/51/16 44/52/44 17/50/17
f 49/55/49 29/165/29 30/164/30
f 10/168/10 31/167/31 8/166/8
f 32/170/32 52/59/52 7/169/7
f 31/172/31 49/55/49 30/171/30
f 29/173/29 51/58/51 50/57/50
f 29/175/29 49/55/49 51/174/51
f 50/57/50 52/59/52 32/176/32
f 29/178/29 50/57/50 32/177/32
f 7/179/7 52/59/52 10/56/10
f 53/61/53 31/181/31 10/180/10
f 53/60/53 49/55/49 31/182/31
f 65/74/65 63/72/63 66/75/66
f 73/84/73 63/72/63 62/183/62
f 77/88/77 64/73/64 63/72/63
f 68/78/68 65/74/65 66/75/66
f 38/185/38 68/78/68 37/184/37
f 37/186/37 68/78/68 66/76/66
f 37/188/37 66/76/66 36/187/36
f 69/79/69 55/63/55 67/77/67
f 70/80/70 67/90/67 65/74/65
f 68/78/68 70/80/70 65/74/65
f 71/81/71 54/62/54 69/79/69
f 63/72/63 64/73/64 72/82/72
f 56/83/56 72/82/72 64/73/64
f 56/83/56 57/65/57 72/82/72
f 62/189/62 63/72/63 72/82/72
f 72/82/72 59/67/59 62/71/62
f 69/79/69 54/62/54 55/63/55
f 67/77/67 55/63/55 56/64/56
f 57/65/57 59/67/59 72/82/72
f 62/71/62 59/67/59 58/66/58
f 66/76/66 73/190/73 36/68/36
f 63/72/63 73/192/73 66/75/66
f 74/193/74 60/69/60 36/68/36
f 62/195/62 58/194/58 74/85/74
f 73/197/73 62/196/62 74/85/74
f 73/199/73 74/198/74 36/68/36
f 74/85/74 58/201/58 60/200/60
f 38/202/38 75/86/75 68/78/68
f 75/86/75 38/203/38 76/87/76
f 67/90/67 77/88/77 65/74/65
f 67/89/67 64/73/64 77/88/77
f 65/74/65 77/88/77 63/72/63
f 67/89/67 56/64/56 64/73/64
f 70/80/70 71/204/71 69/79/69
f 70/80/70 68/78/68 75/86/75
f 75/86/75 76/87/76 70/80/70
f 71/205/71 70/80/70 76/87/76
f 69/79/69 67/90/67 70/80/70
f 38/207/38 40/206/40 76/87/76
f 61/70/61 76/87/76 40/208/40
f 54/62/54 76/87/76 61/70/61
f 71/209/71 76/87/76 54/62/54
f 8/211/8 28/30/28 4/210/4
f 51/213/51 49/212/49 79/92/79
f 78/91/78 52/215/52 50/214/50
f 50/217/50 51/216/51 78/91/78
f 91/104/91 95/108/95 53/218/53
f 51/219/51 79/92/79 78/91/78
f 80/93/80 52/220/52 78/91/78
f 52/222/52 80/93/80 10/221/10
f 53/224/53 79/92/79 49/223/49
f 86/99/86 82/95/82 81/94/81
f 82/95/82 86/99/86 96/109/96
f 96/109/96 88/101/88 82/95/82
f 83/96/83 82/95/82 88/101/88
f 88/101/88 89/102/89 83/96/83
f 84/97/84 83/96/83 89/102/89
f 90/103/90 85/98/85 84/97/84
f 84/97/84 89/102/89 90/103/90
f 81/94/81 85/226/85 90/225/90
f 90/227/90 86/99/86 81/94/81
f 91/104/91 92/105/92 86/99/86
f 87/100/87 86/99/86 92/105/92
f 92/105/92 88/101/88 87/100/87
f 88/101/88 92/105/92 93/106/93
f 93/106/93 94/107/94 88/101/88
f 89/102/89 88/101/88 94/107/94
f 97/110/97 90/103/90 89/102/89
f 97/228/97 95/108/95 91/104/91
f 10/229/10 80/93/80 91/104/91
f 92/105/92 91/104/91 98/111/98
f 98/111/98 93/106/93 92/105/92
f 93/106/93 80/93/80 78/91/78
f 78/91/78 79/92/79 93/106/93
f 94/107/94 93/106/93 79/92/79
f 79/92/79 53/231/53 95/230/95
f 95/232/95 94/107/94 79/92/79
f 91/104/91 53/234/53 10/233/10
f 87/100/87 88/101/88 96/109/96
f 96/109/96 86/99/86 87/100/87
f 97/236/97 86/99/86 90/235/90
f 89/102/89 94/107/94 97/110/97
f 91/104/91 86/99/86 97/237/97
f 95/238/95 97/110/97 94/107/94
f 80/93/80 93/106/93 98/111/98
f 98/111/98 91/104/91 80/93/80
f 81/94/81 100/113/100 99/112/99
f 100/113/100 81/94/81 82/95/82
f 82/95/82 101/114/101 100/113/100
f 101/114/101 82/95/82 83/96/83
f 83/96/83 84/97/84 101/114/101
f 102/115/102 101/114/101 84/97/84
f 84/97/84 103/116/103 102/115/102
f 103/116/103 84/97/84 85/98/85
f 85/240/85 81/94/81 103/239/103
f 99/112/99 103/241/103 81/94/81
f 111/124/111 106/119/106 104/117/104
f 121/135/121 104/117/104 105/118/105
f 108/121/108 109/122/109 103/242/103
f 108/121/108 110/123/110 111/124/111
f 111/124/111 109/122/109 108/121/108
f 111/124/111 110/123/110 107/120/107
f 112/125/112 107/120/107 110/123/110
f 104/117/104 109/122/109 111/124/111
f 111/124/111 107/120/107 106/119/106
f 106/245/106 112/244/112 110/243/110
f 112/248/112 106/247/106 107/246/107
f 106/251/106 110/250/110 108/249/108
f 108/254/108 104/253/104 106/252/106
f 108/257/108 99/256/99 104/255/104
f 103/260/103 99/259/99 108/258/108
f 102/262/102 103/261/103 109/122/109
f 104/117/104 115/128/115 105/118/105
f 116/129/116 117/130/117 104/263/104
f 117/131/117 118/132/118 113/264/113
f 105/118/105 115/128/115 120/134/120
f 120/134/120 119/133/119 105/118/105
f 113/126/113 114/127/114 115/137/115
f 115/137/115 114/127/114 118/265/118
f 117/267/117 116/266/116 120/134/120
f 119/133/119 120/134/120 116/268/116
f 114/270/114 113/269/113 118/132/118
f 105/118/105 101/272/101 102/271/102
f 116/129/116 104/274/104 99/273/99
f 99/276/99 100/275/100 116/129/116
f 119/133/119 100/278/100 101/277/101
f 104/117/104 121/135/121 109/122/109
f 105/118/105 119/133/119 101/279/101
f 119/133/119 116/281/116 100/280/100
f 121/135/121 102/282/102 109/122/109
f 102/283/102 121/135/121 105/118/105
f 113/285/113 104/284/104 117/130/117
f 115/128/115 104/117/104 113/136/113
f 115/137/115 118/286/118 120/138/120
f 118/288/118 117/287/117 120/138/120
f 127/317/127 124/328/124 123/313/123
f 129/319/129 125/315/125 124/314/124
f 129/319/129 124/314/124 128/318/128
f 129/353/129 130/320/130 125/352/125
f 130/320/130 126/316/126 125/354/125
f 130/321/130 123/355/123 126/331/126
f 127/357/127 123/356/123 130/321/130
f 132/326/132 130/320/130 129/358/129
f 131/325/131 127/359/127 132/327/132
f 133/329/133 129/323/129 128/330/128
f 133/361/133 131/324/131 129/360/129
f 122/311/122 131/324/131 133/362/133
f 122/312/122 127/363/127 131/325/131
f 132/326/132 129/364/129 131/324/131
f 130/321/130 132/327/132 127/365/127
f 128/318/128 124/328/124 127/317/127
f 19/367/19 122/311/122 18/366/18
f 19/368/19 2/310/2 122/312/122
f 18/370/18 122/311/122 133/369/133
f 18/424/18 133/421/133 20/423/20
f 133/421/133 128/422/128 20/425/20
f 21/427/21 20/426/20 128/422/128
f 21/371/21 128/330/128 127/322/127
f 2/310/2 127/372/127 122/312/122
f 2/374/2 21/373/21 127/322/127
f 137/336/137 136/335/136 135/334/135
f 138/337/138 136/376/136 137/375/137
f 139/339/139 134/377/134 138/338/138
f 139/378/139 135/333/135 134/332/134
f 137/336/137 135/334/135 124/379/124
f 139/381/139 124/380/124 135/333/135
f 124/384/124 139/383/139 123/382/123
f 137/336/137 124/386/124 125/385/125
f 126/389/126 137/388/137 125/387/125
f 138/337/138 137/391/137 126/390/126
f 139/339/139 138/338/138 126/392/126
f 139/339/139 126/394/126 123/393/123
f 135/396/135 140/340/140 134/395/134
f 135/397/135 141/341/141 140/340/140
f 142/342/142 134/398/134 140/343/140
f 136/399/136 143/345/143 141/344/141
f 141/402/141 143/401/143 142/400/142
f 142/405/142 140/404/140 141/403/141
f 138/407/138 143/346/143 136/406/136
f 136/409/136 141/341/141 135/408/135
f 134/411/134 142/347/142 138/410/138
f 138/412/138 144/348/144 143/346/143
f 138/413/138 142/347/142 144/348/144
f 143/414/143 145/349/145 146/350/146
f 146/350/146 142/416/142 143/415/143
f 143/346/143 144/351/144 145/417/145
f 144/351/144 146/419/146 145/418/145
f 146/420/146 144/351/144 142/347/142
f 2/291/2 19/290/19 17/289/17
f 1/1/1 3/3/3 2/2/2
f 1/428/1 3/430/3 2/429/2
f 149/434/149 6/433/6 152/439/152
f 152/566/152 6/433/6 9/436/9
f 151/437/151 149/567/149 150/435/150
f 148/432/148 147/431/147 150/438/150
f 148/568/148 152/439/152 9/436/9
f 153/440/153 152/439/152 148/432/148
f 149/434/149 153/570/153 150/569/150
f 149/434/149 152/439/152 153/571/153
f 153/573/153 148/432/148 150/572/150
f 157/446/157 156/444/156 155/443/155
f 156/444/156 157/446/157 158/447/158
f 156/444/156 158/448/158 17/445/17
f 157/446/157 155/443/155 154/442/154
f 159/721/159 157/720/157 154/719/154
f 160/449/160 154/442/154 13/441/13
f 159/721/159 154/719/154 160/722/160
f 2/574/2 160/449/160 13/441/13
f 25/454/25 149/453/149 24/452/24
f 163/457/163 27/456/27 162/455/162
f 163/457/163 166/458/166 150/575/150
f 166/462/166 168/464/168 165/459/165
f 163/457/163 161/451/161 27/456/27
f 161/451/161 163/457/163 147/576/147
f 27/456/27 161/451/161 22/450/22
f 162/577/162 27/456/27 33/463/33
f 167/461/167 169/465/169 149/453/149
f 25/454/25 6/433/6 149/453/149
f 163/457/163 162/455/162 166/462/166
f 164/578/164 169/465/169 167/461/167
f 162/455/162 33/463/33 168/464/168
f 169/465/169 24/452/24 149/453/149
f 166/462/166 162/455/162 168/464/168
f 165/459/165 168/464/168 170/467/170
f 172/470/172 164/460/164 165/459/165
f 36/466/36 168/464/168 33/463/33
f 36/466/36 170/467/170 168/464/168
f 172/579/172 170/469/170 171/468/171
f 172/580/172 171/581/171 173/474/173
f 40/471/40 41/473/41 171/472/171
f 173/474/173 171/472/171 41/473/41
f 165/459/165 170/467/170 172/470/172
f 164/582/164 172/583/172 169/465/169
f 169/465/169 172/584/172 173/474/173
f 169/465/169 173/474/173 43/475/43
f 43/475/43 173/474/173 41/473/41
f 24/452/24 169/465/169 43/475/43
f 174/479/174 45/480/45 161/585/161
f 175/481/175 155/476/155 174/479/174
f 176/725/176 175/728/175 147/727/147
f 9/730/9 176/725/176 148/729/148
f 45/480/45 174/479/174 17/477/17
f 161/587/161 45/480/45 22/586/22
f 155/476/155 156/478/156 174/479/174
f 147/588/147 175/481/175 174/479/174
f 147/590/147 174/479/174 161/589/161
f 148/732/148 176/725/176 147/731/147
f 48/726/48 176/725/176 9/733/9
f 155/734/155 175/735/175 176/725/176
f 176/725/176 154/723/154 155/736/155
f 154/723/154 176/725/176 48/726/48
f 13/724/13 154/723/154 48/726/48
f 174/479/174 156/478/156 17/477/17
f 164/592/164 177/482/177 165/591/165
f 166/594/166 151/595/151 150/593/150
f 180/486/180 167/597/167 149/596/149
f 177/482/177 166/599/166 165/598/165
f 179/485/179 164/600/164 178/484/178
f 177/482/177 164/602/164 179/601/179
f 180/486/180 178/484/178 167/603/167
f 178/484/178 164/605/164 167/604/167
f 180/486/180 149/606/149 151/483/151
f 166/608/166 181/488/181 151/607/151
f 177/482/177 181/487/181 166/609/166
f 183/499/183 185/501/185 186/502/186
f 183/499/183 193/511/193 182/610/182
f 184/500/184 197/515/197 183/499/183
f 185/501/185 188/505/188 186/502/186
f 188/505/188 171/612/171 170/611/170
f 188/505/188 170/613/170 186/503/186
f 186/503/186 170/615/170 36/614/36
f 55/490/55 189/506/189 187/504/187
f 187/517/187 190/507/190 185/501/185
f 190/507/190 188/505/188 185/501/185
f 54/489/54 191/508/191 189/506/189
f 184/500/184 183/499/183 192/509/192
f 192/509/192 56/510/56 184/500/184
f 57/492/57 56/510/56 192/509/192
f 183/499/183 182/616/182 192/509/192
f 59/494/59 192/509/192 182/498/182
f 54/489/54 189/506/189 55/490/55
f 55/490/55 187/504/187 56/491/56
f 59/494/59 57/492/57 192/509/192
f 59/494/59 182/498/182 58/493/58
f 193/617/193 186/503/186 36/495/36
f 193/619/193 183/499/183 186/502/186
f 60/496/60 194/620/194 36/495/36
f 58/621/58 182/622/182 194/512/194
f 182/623/182 193/624/193 194/512/194
f 194/625/194 193/626/193 36/495/36
f 58/628/58 194/512/194 60/627/60
f 195/513/195 171/629/171 188/505/188
f 171/630/171 195/513/195 196/514/196
f 197/515/197 187/517/187 185/501/185
f 184/500/184 187/516/187 197/515/197
f 197/515/197 185/501/185 183/499/183
f 56/491/56 187/516/187 184/500/184
f 191/631/191 190/507/190 189/506/189
f 188/505/188 190/507/190 195/513/195
f 196/514/196 195/513/195 190/507/190
f 190/507/190 191/632/191 196/514/196
f 187/517/187 189/506/189 190/507/190
f 40/633/40 171/634/171 196/514/196
f 196/514/196 61/497/61 40/635/40
f 196/514/196 54/489/54 61/497/61
f 196/514/196 191/636/191 54/489/54
f 163/457/163 150/638/150 147/637/147
f 177/639/177 179/640/179 199/519/199
f 180/642/180 198/518/198 178/641/178
f 179/643/179 178/644/178 198/518/198
f 215/535/215 211/531/211 181/645/181
f 199/519/199 179/646/179 198/518/198
f 180/647/180 200/520/200 198/518/198
f 200/520/200 180/649/180 151/648/151
f 199/519/199 181/651/181 177/650/177
f 202/522/202 206/526/206 201/521/201
f 206/526/206 202/522/202 216/536/216
f 208/528/208 216/536/216 202/522/202
f 202/522/202 203/523/203 208/528/208
f 209/529/209 208/528/208 203/523/203
f 203/523/203 204/524/204 209/529/209
f 205/525/205 210/530/210 204/524/204
f 209/529/209 204/524/204 210/530/210
f 205/653/205 201/521/201 210/652/210
f 206/526/206 210/654/210 201/521/201
f 212/532/212 211/531/211 206/526/206
f 206/526/206 207/527/207 212/532/212
f 208/528/208 212/532/212 207/527/207
f 212/532/212 208/528/208 213/533/213
f 214/534/214 213/533/213 208/528/208
f 208/528/208 209/529/209 214/534/214
f 210/530/210 217/537/217 209/529/209
f 215/535/215 217/655/217 211/531/211
f 200/520/200 151/656/151 211/531/211
f 211/531/211 212/532/212 218/538/218
f 213/533/213 218/538/218 212/532/212
f 200/520/200 213/533/213 198/518/198
f 199/519/199 198/518/198 213/533/213
f 213/533/213 214/534/214 199/519/199
f 181/658/181 199/519/199 215/657/215
f 214/534/214 215/659/215 199/519/199
f 181/661/181 211/531/211 151/660/151
f 208/528/208 207/527/207 216/536/216
f 206/526/206 216/536/216 207/527/207
f 206/526/206 217/663/217 210/662/210
f 214/534/214 209/529/209 217/537/217
f 206/526/206 211/531/211 217/664/217
f 217/537/217 215/665/215 214/534/214
f 213/533/213 200/520/200 218/538/218
f 211/531/211 218/538/218 200/520/200
f 220/540/220 201/521/201 219/539/219
f 201/521/201 220/540/220 202/522/202
f 221/541/221 202/522/202 220/540/220
f 202/522/202 221/541/221 203/523/203
f 204/524/204 203/523/203 221/541/221
f 221/541/221 222/542/222 204/524/204
f 223/543/223 204/524/204 222/542/222
f 204/524/204 223/543/223 205/525/205
f 201/521/201 205/667/205 223/666/223
f 223/668/223 219/539/219 201/521/201
f 226/546/226 231/551/231 224/544/224
f 224/544/224 241/562/241 225/545/225
f 229/549/229 228/548/228 223/669/223
f 230/550/230 228/548/228 231/551/231
f 229/549/229 231/551/231 228/548/228
f 230/550/230 231/551/231 227/547/227
f 227/547/227 232/552/232 230/550/230
f 229/549/229 224/544/224 231/551/231
f 227/547/227 231/551/231 226/546/226
f 232/671/232 226/672/226 230/670/230
f 226/674/226 232/675/232 227/673/227
f 230/677/230 226/678/226 228/676/228
f 224/680/224 228/681/228 226/679/226
f 219/683/219 228/684/228 224/682/224
f 219/686/219 223/687/223 228/685/228
f 223/688/223 222/689/222 229/549/229
f 235/555/235 224/544/224 225/545/225
f 237/557/237 236/556/236 224/690/224
f 238/559/238 237/558/237 233/691/233
f 235/555/235 225/545/225 240/561/240
f 239/560/239 240/561/240 225/545/225
f 234/554/234 233/553/233 235/564/235
f 234/554/234 235/564/235 238/692/238
f 236/693/236 237/694/237 240/561/240
f 240/561/240 239/560/239 236/695/236
f 233/696/233 234/697/234 238/559/238
f 221/699/221 225/545/225 222/698/222
f 224/701/224 236/556/236 219/700/219
f 220/702/220 219/703/219 236/556/236
f 220/705/220 239/560/239 221/704/221
f 241/562/241 224/544/224 229/549/229
f 239/560/239 225/545/225 221/706/221
f 236/708/236 239/560/239 220/707/220
f 222/709/222 241/562/241 229/549/229
f 241/562/241 222/710/222 225/545/225
f 224/711/224 233/712/233 237/557/237
f 224/544/224 235/555/235 233/563/233
f 238/713/238 235/564/235 240/565/240
f 237/714/237 238/715/238 240/565/240
f 244/755/244 247/744/247 243/740/243
f 245/742/245 249/746/249 244/741/244
f 244/741/244 249/746/249 248/745/248
f 250/747/250 249/780/249 245/779/245
f 246/743/246 250/747/250 245/781/245
f 243/782/243 250/748/250 246/758/246
f 243/783/243 247/784/247 250/748/250
f 250/747/250 252/753/252 249/785/249
f 247/786/247 251/752/251 252/754/252
f 249/750/249 253/756/253 248/757/248
f 251/751/251 253/788/253 249/787/249
f 251/751/251 242/738/242 253/789/253
f 247/790/247 242/739/242 251/752/251
f 249/791/249 252/753/252 251/751/251
f 252/754/252 250/748/250 247/792/247
f 244/755/244 248/745/248 247/744/247
f 242/738/242 158/794/158 157/793/157
f 2/737/2 158/795/158 242/739/242
f 242/738/242 157/797/157 253/796/253
f 253/848/253 157/851/157 159/850/159
f 248/849/248 253/848/253 159/852/159
f 159/853/159 160/854/160 248/849/248
f 248/757/248 160/798/160 247/749/247
f 247/799/247 2/737/2 242/739/242
f 160/800/160 2/801/2 247/749/247
f 256/762/256 257/763/257 255/761/255
f 256/803/256 258/764/258 257/802/257
f 254/804/254 259/766/259 258/765/258
f 255/760/255 259/805/259 254/759/254
f 255/761/255 257/763/257 244/806/244
f 244/807/244 259/808/259 255/760/255
f 259/810/259 244/811/244 243/809/243
f 244/813/244 257/763/257 245/812/245
f 257/815/257 246/816/246 245/814/245
f 257/818/257 258/764/258 246/817/246
f 258/765/258 259/766/259 246/819/246
f 246/821/246 259/766/259 243/820/243
f 260/767/260 255/823/255 254/822/254
f 261/768/261 255/824/255 260/767/260
f 254/825/254 262/769/262 260/770/260
f 263/772/263 256/826/256 261/771/261
f 263/828/263 261/829/261 262/827/262
f 260/831/260 262/832/262 261/830/261
f 263/773/263 258/834/258 256/833/256
f 261/768/261 256/836/256 255/835/255
f 262/774/262 254/838/254 258/837/258
f 264/775/264 258/839/258 263/773/263
f 262/774/262 258/840/258 264/775/264
f 265/776/265 263/841/263 266/777/266
f 262/843/262 266/777/266 263/842/263
f 264/778/264 263/773/263 265/844/265
f 266/846/266 264/778/264 265/845/265
f 264/778/264 266/847/266 262/774/262
f 158/717/158 2/718/2 17/716/17
f 3/430/3 1/428/1 2/429/2
# 528 faces

g
# object (null) to come ...
#
v  -10.586563 51.864891 22.461256
v  -11.078165 51.272949 30.341156
v  -11.223809 49.428600 31.417646
v  -11.345472 42.254562 28.070517
v  -9.565284 57.952713 26.400314
v  -10.670738 52.921814 33.221279
v  -10.816382 51.077469 34.297768
v  -10.777908 42.596836 35.363079
v  -8.770863 61.167759 32.016125
v  -9.983486 45.811882 40.978886
v  -8.203298 61.510029 39.308685
v  -10.263311 54.570683 36.101402
v  -10.408956 52.726334 37.177891
v  -8.962207 51.899700 44.917946
v  -9.139814 51.038258 30.201313
v  -9.285460 49.193913 31.277803
v  -8.732388 52.687126 33.081436
v  -8.878033 50.842777 34.157925
v  -8.324961 54.335991 35.961555
v  -8.470606 52.491646 37.038048
v  -15.143799 34.819218 1.600962
v  -15.289443 32.974869 2.677450
v  -13.205448 34.584526 1.461119
v  -13.351093 32.740181 2.537607
v  -8.508983 57.003414 42.634800
# 25 vertices

vt  0.033358 0.643728 0.500000
vt  0.190411 0.923560 0.500000
vt  0.402692 0.503812 0.999501
vt  0.402692 0.647326 0.999501
vt  0.403043 0.503812 0.999501
vt  0.403044 0.647326 0.999501
vt  0.033710 0.643728 0.500000
vt  0.190763 0.923560 0.500000
vt  0.033358 0.363896 0.500000
vt  0.033710 0.363896 0.500000
vt  0.190411 0.084064 0.500000
vt  0.402692 0.360297 0.999501
vt  0.403043 0.360297 0.999501
vt  0.190763 0.084064 0.500000
vt  0.402692 0.647326 0.000500
vt  0.402692 0.503812 0.000500
vt  0.403044 0.647326 0.000500
vt  0.403043 0.503812 0.000500
vt  0.402692 0.360297 0.000499
vt  0.403043 0.360297 0.000499
vt  0.408249 0.287497 0.999500
vt  0.408249 0.367848 0.999500
vt  0.492649 0.287497 0.999500
vt  0.492649 0.367848 0.999500
vt  0.408249 0.207147 0.999500
vt  0.492649 0.207147 0.999500
vt  0.492649 0.367848 0.000500
vt  0.408249 0.367848 0.000500
vt  0.492649 0.287497 0.000500
vt  0.408249 0.287497 0.000500
vt  0.492649 0.207147 0.000500
vt  0.408249 0.207147 0.000500
vt  0.492649 1.036942 0.999501
vt  0.408248 1.036942 0.999501
vt  0.492649 1.036942 0.000500
vt  0.408248 1.036942 0.000500
vt  0.450449 0.037941 0.500000
vt  0.483600 0.371280 0.999497
vt  0.402049 0.371280 0.999497
vt  0.402049 1.040375 0.999500
vt  0.483600 1.040375 0.999500
vt  0.402049 0.371280 0.000500
vt  0.483600 0.371280 0.000500
vt  0.483600 1.040375 0.000503
vt  0.402049 1.040375 0.000503
vt  0.483600 0.210579 0.000500
vt  0.402049 0.210579 0.000500
vt  0.442825 0.041374 0.499997
vt  0.402049 0.210579 0.999497
vt  0.483600 0.210579 0.999497
# 50 texture vertices

vn  -0.631189 0.156947 -0.020354
vn  -0.956305 0.175971 0.034537
vn  -0.970749 0.036642 0.092292
vn  -0.324910 -0.006429 0.025589
vn  -0.638017 0.132715 -0.005516
vn  -0.320241 0.060381 0.007898
vn  -0.323220 0.017527 0.038525
vn  -0.971010 0.001548 0.112421
vn  -0.949457 0.230977 0.026132
vn  -0.643894 0.022495 0.097999
vn  -0.314347 0.083828 0.020531
vn  -0.954691 0.196485 0.046619
vn  -0.965720 0.056742 0.104128
vn  -0.640986 -0.002916 0.112135
vn  0.965720 -0.056742 -0.104128
vn  0.954691 -0.196485 -0.046619
vn  0.323220 -0.017527 -0.038525
vn  0.320241 -0.060381 -0.007898
vn  0.970749 -0.036642 -0.092292
vn  0.956305 -0.175971 -0.034537
vn  -0.039721 -0.160752 -0.280791
vn  -0.039721 -0.160752 -0.280791
vn  -0.039721 -0.160752 -0.280791
vn  -0.039721 -0.160752 -0.280791
vn  -0.314246 0.060843 0.061725
# 25 vertex normals

g (null)
usemtl axe
s 2
f 271/855/271 267/856/267 272/857/272
f 268/858/268 272/857/272 267/856/267
f 272/875/272 268/876/268 273/877/273
f 269/878/269 273/877/273 268/876/268
f 273/859/273 269/860/269 274/861/274
f 270/862/270 274/861/274 269/860/269
f 275/863/275 271/855/271 272/857/272
f 274/861/274 276/864/276 273/859/273
f 277/865/277 275/863/275 278/866/278
f 272/857/272 278/866/278 275/863/275
f 278/879/278 272/875/272 279/880/279
f 273/877/273 279/880/279 272/875/272
f 279/867/279 273/859/273 280/868/280
f 276/864/276 280/868/280 273/859/273
s 4
f 281/869/281 267/856/267 283/870/283
f 271/855/271 283/870/283 267/856/267
f 282/881/282 281/882/281 284/883/284
f 283/884/283 284/883/284 281/882/281
f 270/862/270 282/871/282 274/861/274
f 284/872/284 274/861/274 282/871/282
f 275/863/275 283/870/283 271/855/271
f 274/861/274 284/872/284 276/864/276
f 283/870/283 275/863/275 285/873/285
f 277/865/277 285/873/285 275/863/275
f 284/883/284 283/884/283 286/885/286
f 285/886/285 286/885/286 283/884/283
f 276/864/276 284/872/284 280/868/280
f 286/874/286 280/868/280 284/872/284
s 8
f 268/858/268 267/856/267 281/869/281
f 288/887/288 287/888/287 290/889/290
f 289/890/289 290/889/290 287/888/287
f 282/871/282 270/862/270 269/860/269
s 32
f 279/867/279 280/868/280 286/874/286
f 285/873/285 277/865/277 278/866/278
s 0
f 269/878/269 268/876/268 287/888/287
f 287/888/287 288/887/288 269/878/269
f 281/882/281 282/881/282 290/889/290
f 290/889/290 289/890/289 281/882/281
f 268/892/268 281/893/281 289/894/289
f 289/894/289 287/895/287 268/892/268
f 282/896/282 269/897/269 288/898/288
f 288/898/288 290/899/290 282/896/282
f 278/879/278 279/880/279 291/891/291
f 286/885/286 285/886/285 291/891/291
f 279/900/279 286/901/286 291/902/291
f 285/903/285 278/904/278 291/902/291
# 46 faces

g
