mtllib BarrelAnimate_000015.mtl

o BarrelLoRes_Cylin.022_BarrelLoRes_Cylin.020
usemtl None_Barrel.png_Barrel.png
s off

v 25.929600 4.195920 8.465370
v 18.900450 3.864885 8.112375
v 19.141905 1.389690 4.390395
v 26.181570 1.613010 4.581435
v 11.727944 4.365060 6.918180
v 11.933865 2.254215 3.744090
v 19.226700 0.520515 0.000000
v 26.270025 0.706005 0.000000
v 12.006165 1.513005 0.000000
v 33.582706 2.788020 4.394685
v 40.687244 5.097180 3.728430
v 40.482193 7.199175 6.889230
v 33.322800 5.263860 8.120310
v 33.673981 1.918605 0.000015
v 40.759258 4.359030 0.000015

vt 0.000000 0.744986
vt 0.006732 0.623591
vt 0.060370 0.623287
vt 0.055972 0.744669
vt 0.030224 0.501083
vt 0.075967 0.500824
vt 0.130454 0.622967
vt 0.129106 0.744335
vt 0.135734 0.500551
vt 0.007200 0.125929
vt 0.032050 0.000000
vt 0.077592 0.000258
vt 0.060880 0.126550
vt 0.000000 0.255099
vt 0.055962 0.255417
vt 0.131042 0.873643
vt 0.137114 0.999556
vt 0.077597 0.999828
vt 0.060890 0.873852

vn 0.011364 -0.832287 0.554228
vn -0.147811 -0.827929 0.541004
vn 0.025825 -0.980539 0.194619
vn -0.133694 -0.972644 0.189973
vn 0.305140 -0.783436 0.541404
vn 0.144187 -0.819570 0.554540
vn 0.319636 -0.928269 0.190129
vn 0.158557 -0.967955 0.194739

f 1/1/1 2/2/1 3/3/1 4/4/1
f 2/2/2 5/5/2 6/6/2 3/3/2
f 7/7/3 8/8/3 4/4/3 3/3/3
f 9/9/4 7/7/4 3/3/4 6/6/4
f 10/10/5 11/11/5 12/12/5 13/13/5
f 4/14/6 10/10/6 13/13/6 1/15/6
f 14/16/7 15/17/7 11/18/7 10/19/7
f 8/8/8 14/16/8 10/19/8 4/4/8

o BarrelLoRes_Cylin.021_BarrelLoRes_Cylin.019
usemtl None_Barrel.png_Barrel.png
s off

v 4.092030 3.151305 -42.536144
v 4.738320 3.085665 -49.795563
v 8.460299 5.519235 -49.283028
v 7.266105 5.226645 -42.099075
v 4.929375 4.082745 -56.767815
v 8.813295 6.622200 -56.232990
v 0.347940 2.231115 -49.975529
v 0.347940 3.190995 -56.955612
v 0.347925 2.422560 -42.689625

vt 0.305944 0.500043
vt 0.330045 0.622371
vt 0.276402 0.622472
vt 0.260197 0.500129
vt 0.337382 0.743713
vt 0.281404 0.743818
vt 0.393344 0.244626
vt 0.397743 0.123244
vt 0.467822 0.122924
vt 0.466472 0.244293
vt 0.413344 0.000781
vt 0.473107 0.000508

vn 0.541004 -0.839170 0.055753
vn 0.554228 -0.825976 -0.102933
vn 0.194619 -0.971734 -0.133630
vn 0.189973 -0.981450 0.025788

f 16/20/9 17/21/9 18/22/9 19/23/9
f 17/21/10 20/24/10 21/25/10 18/22/10
f 20/26/11 17/27/11 22/28/11 23/29/11
f 17/27/12 16/30/12 24/31/12 22/28/12

o BarrelLoRes_Cylin.020_BarrelLoRes_Cylin.018
usemtl None_Barrel.png_Barrel.png
s off

v -9.592649 -2.417325 -26.796915
v -5.945730 -1.680300 -20.813625
v -9.447346 0.300300 -18.850439
v -13.246620 -0.350550 -24.748322
v -2.022285 0.207165 -14.968530
v -5.008440 1.896195 -13.294351
v -12.055756 3.665100 -17.467560
v -15.968534 3.160680 -23.305246
v -7.232880 4.765710 -12.115035
v -16.713434 -0.231420 -31.269150
v -19.557421 0.879450 -38.236950
v -16.583744 -0.802515 -39.904140
v -13.224689 -2.215110 -33.262123
v -19.310579 3.137685 -29.861280
v -21.772530 3.736935 -37.062572

vt 0.543682 0.122638
vt 0.545633 0.243994
vt 0.537800 0.000264
vt 0.613775 0.122429
vt 0.618776 0.243775
vt 0.597574 0.000086
vt 0.544339 0.371297
vt 0.538909 0.499270
vt 0.474487 0.499513
vt 0.468406 0.372142
vt 0.614499 0.370615
vt 0.598433 0.499092

vn -0.329887 -0.891366 0.310871
vn -0.241507 -0.864300 0.441202
vn -0.600735 -0.654413 0.459196
vn -0.505892 -0.633000 0.585990
vn -0.470645 -0.880837 0.051189
vn -0.397838 -0.896429 0.195297
vn -0.734616 -0.649338 0.196722
vn -0.668830 -0.659351 0.343399

f 25/29/13 26/28/13 27/32/13 28/33/13
f 26/28/14 29/31/14 30/34/14 27/32/14
f 31/35/15 32/36/15 28/33/15 27/32/15
f 33/37/16 31/35/16 27/32/16 30/34/16
f 34/38/17 35/39/17 36/40/17 37/41/17
f 28/33/18 34/38/18 37/41/18 25/29/18
f 38/42/19 39/43/19 35/39/19 34/38/19
f 32/36/20 38/42/20 34/38/20 28/33/20

o BarrelLoRes_Cylin.019_BarrelLoRes_Cylin.017
usemtl None_Barrel.png_Barrel.png
s off

v 24.993315 3.182430 -18.461565
v 20.372086 2.601240 -13.174846
v 17.217646 1.164930 -16.007626
v 21.701624 1.683615 -21.417601
v 15.155190 3.029040 -8.103150
v 12.465105 1.804155 -10.518930
v 13.725720 1.441695 -18.794731
v 18.057734 1.972425 -24.325994
v 9.487215 2.040180 -12.895755
v 22.770376 3.509865 -29.924805
v 14.616450 4.004865 -26.743919
v 19.452253 5.455530 -32.223137
v 27.529560 6.224700 -35.072399
v 24.728985 7.878705 -37.040146
v 16.827900 8.776245 -33.694138
v 22.519606 10.699949 -38.309204
v 11.901600 7.471560 -28.303320
v 26.277136 3.235455 -27.149025
v 30.494986 5.989665 -32.705521
v 33.173820 7.209420 -30.299850
v 29.438671 4.674090 -24.318405

vt 0.206314 0.622681
vt 0.208267 0.744037
vt 0.200427 0.500307
vt 0.344581 0.373798
vt 0.337382 0.244943
vt 0.398260 0.373020
vt 0.369432 0.500043
vt 0.414974 0.499784
vt 0.206976 0.873246
vt 0.201536 0.999313
vt 0.277131 0.872720
vt 0.261056 0.999135

vn 0.292984 -0.943903 0.152339
vn 0.186323 -0.944287 0.271306
vn -0.001639 -0.995304 -0.096783
vn -0.101271 -0.994461 0.028128
vn -0.219429 -0.877762 -0.425892
vn -0.111940 -0.832792 -0.542151
vn -0.367858 -0.604665 -0.706443
vn -0.480858 -0.643943 -0.595074
vn 0.470516 -0.878884 -0.078599
vn 0.376314 -0.925144 0.049965
vn 0.182466 -0.929101 -0.321680
vn 0.081576 -0.976520 -0.199383

f 40/8/21 41/7/21 42/44/21 43/45/21
f 41/7/22 44/9/22 45/46/22 42/44/22
f 46/22/23 47/25/23 43/45/23 42/44/23
f 48/23/24 46/22/24 42/44/24 45/46/24
f 49/47/25 47/48/25 50/26/25 51/49/25
f 52/50/26 49/47/26 51/49/26 53/51/26
f 54/41/27 55/40/27 53/51/27 51/49/27
f 56/29/28 54/41/28 51/49/28 50/26/28
f 57/52/29 58/53/29 59/17/29 60/16/29
f 43/45/30 57/52/30 60/16/30 40/8/30
f 49/54/31 52/55/31 58/53/31 57/52/31
f 47/25/32 49/54/32 57/52/32 43/45/32

o BarrelLoRes_Cylin.018_BarrelLoRes_Cylin.016
usemtl None_Barrel.png_Barrel.png
s off

v -15.863714 2.411775 62.937012
v -9.046080 2.574135 61.165939
v -7.857030 2.333070 65.474777
v -14.622915 2.160210 67.433365
v -2.039070 3.885045 59.647949
v -1.025055 3.679470 63.322514
v -21.712410 2.979180 69.336662
v -28.829325 5.038755 71.062965
v -29.839094 5.243475 67.403793
v -22.876274 3.219225 65.016251

vt 0.337382 0.256372
vt 0.330046 0.377715
vt 0.276392 0.377614
vt 0.281393 0.256268
vt 0.260192 0.499957
vt 0.668206 0.870944
vt 0.643992 0.998964
vt 0.598441 0.999049
vt 0.614513 0.870572
vt 0.674765 0.743628
vt 0.618792 0.743733

vn 0.008645 -0.998265 -0.058236
vn 0.162079 -0.981733 -0.099652
vn -0.272916 -0.961814 0.020732
vn -0.120782 -0.992426 -0.022395

f 61/56/33 62/57/33 63/58/33 64/59/33
f 62/57/34 65/20/34 66/60/34 63/58/34
f 67/61/35 68/62/35 69/63/35 70/64/35
f 64/65/36 67/61/36 70/64/36 61/66/36

o BarrelLoRes_Cylin.017_BarrelLoRes_Cylin.015
usemtl None_Barrel.png_Barrel.png
s off

v -29.192986 1.393800 -4.581435
v -22.196520 2.203650 -4.390395
v -22.153124 1.331430 -0.000015
v -29.147717 0.483615 -0.000015
v -15.192751 4.114305 -3.744090
v -15.155746 3.370485 0.000000
v -36.480751 0.607425 -0.000030
v -44.015667 1.975695 -0.000030
v -44.052513 2.716425 -3.728445
v -36.530598 1.480185 -4.394700

vt 0.393360 0.744583
vt 0.397757 0.623201
vt 0.467844 0.622881
vt 0.466497 0.744250
vt 0.413351 0.500738
vt 0.473121 0.500465
vt 0.468425 0.870641
vt 0.474501 0.999470
vt 0.414981 0.999742
vt 0.398270 0.871072

vn 0.118027 -0.973752 -0.194620
vn 0.274672 -0.942584 -0.189974
vn -0.175500 -0.965971 -0.189999
vn -0.016528 -0.980737 -0.194632

f 71/67/37 72/68/37 73/69/37 74/70/37
f 72/68/38 75/71/38 76/72/38 73/69/38
f 77/73/39 78/74/39 79/75/39 80/76/39
f 74/70/40 77/73/40 80/76/40 71/67/40

o BarrelLoRes_Cylin.016_BarrelLoRes_Cylin.014
usemtl None_Barrel.png_Barrel.png
s off

v -104.597580 2.109405 0.004620
v -111.634590 1.926945 0.304965
v -111.528030 2.687220 4.715055
v -104.486382 2.902755 4.606605

vt 0.667429 0.122328
vt 0.674765 0.243670

vn -0.032755 0.985067 -0.169028

f 81/36/41 82/35/41 83/77/41 84/78/41

o BarrelLoRes_Cylin.015_BarrelLoRes_Cylin.013
usemtl None_Barrel.png_Barrel.png
s off

v -70.352638 2.388285 -58.767868
v -63.612000 2.364930 -55.995796
v -64.902435 2.240550 -52.405228
v -71.865829 2.242425 -54.557491

vt 0.643330 0.000000

vn 0.009389 -0.999468 -0.031248

f 85/35/42 86/37/42 87/79/42 88/77/42

o BarrelLoRes_Cylin.014_BarrelLoRes_Cylin.012
usemtl None_Barrel.png_Barrel.png
s off

v -38.103390 -1.472730 -11.046631
v -45.074116 -0.445335 -8.062500
v -46.213142 1.660335 -11.015460
v -39.463306 1.007775 -14.521575
v -32.588398 1.231590 -17.136345
v -31.188780 -1.355820 -13.507785

vt 0.369426 1.000000
vt 0.344575 0.871692
vt 0.337382 0.744900

vn -0.320723 -0.825551 -0.464330
vn -0.173245 -0.832327 -0.526514

f 89/76/43 90/75/43 91/80/43 92/81/43
f 92/81/44 93/82/44 94/67/44 89/76/44

o BarrelLoRes_Cylin.013_BarrelLoRes_Cylin.011
usemtl None_Barrel.png_Barrel.png
s off

v -30.473597 -1.448145 13.630321
v -24.129539 -1.194495 10.575555
v -22.197359 -0.321720 14.518035
v -28.457354 -0.537405 17.744356
v -17.692261 0.245910 7.475940
v -16.044510 0.990195 10.838040
v -20.504416 2.163720 17.833876
v -26.690744 2.056185 21.204451
v -14.600775 3.109770 13.665765
v -35.119247 0.168780 20.744864
v -42.067093 2.036295 23.350876
v -43.707943 1.295115 20.002829
v -37.047539 -0.705060 16.795740
v -33.441135 2.657280 24.071865
v -40.629406 4.146975 26.166765

vt 0.543704 0.622595
vt 0.545658 0.743951
vt 0.537814 0.500221
vt 0.613789 0.622386
vt 0.597582 0.500043
vt 0.544359 0.870465
vt 0.538923 0.999227

vn 0.116249 -0.980243 0.160028
vn 0.257236 -0.962425 0.086986
vn 0.276945 -0.831379 0.481778
vn 0.414098 -0.817113 0.401059
vn -0.148684 -0.947684 0.282467
vn -0.005079 -0.975832 0.218462
vn 0.007886 -0.802390 0.596748
vn 0.155734 -0.826999 0.540203

f 95/70/45 96/69/45 97/83/45 98/84/45
f 96/69/46 99/72/46 100/85/46 97/83/46
f 101/86/47 102/66/47 98/84/47 97/83/47
f 103/87/48 101/86/48 97/83/48 100/85/48
f 104/88/49 105/89/49 106/74/49 107/73/49
f 98/84/50 104/88/50 107/73/50 95/70/50
f 108/64/51 109/63/51 105/89/51 104/88/51
f 102/66/52 108/64/52 104/88/52 98/84/52

o BarrelLoRes_Cylin.012_BarrelLoRes_Cylin.010
usemtl None_Barrel.png_Barrel.png
s off

v 33.746132 3.155745 50.765068
v 28.770840 3.064110 55.753170
v 25.626495 2.193510 52.688309
v 30.464970 2.247240 47.566860
v 23.362965 4.063320 60.536221
v 20.681490 3.320880 57.922527
v 22.388056 3.064110 49.723080
v 27.085606 3.155730 44.472584
v 17.919765 4.063320 55.393799
v 35.506424 3.314505 42.230553
v 40.460461 5.628630 36.986763
v 43.130714 6.367980 39.589516
v 38.631706 4.183455 45.321812

vt 0.206299 0.377405
vt 0.208251 0.256049
vt 0.200417 0.499779
vt 0.130439 0.377119
vt 0.129090 0.255750
vt 0.135724 0.499535
vt 0.206958 0.128187
vt 0.201527 0.000773
vt 0.261052 0.000951
vt 0.277118 0.128955

vn 0.146607 -0.980850 0.128215
vn 0.033802 -0.969973 0.240852
vn -0.136331 -0.980851 -0.139089
vn -0.242382 -0.969973 -0.020072
vn 0.344419 -0.934821 -0.086518
vn 0.238684 -0.970597 0.031174

f 110/59/53 111/58/53 112/90/53 113/91/53
f 111/58/54 114/60/54 115/92/54 112/90/54
f 116/93/55 117/94/55 113/91/55 112/90/55
f 118/95/56 116/93/56 112/90/56 115/92/56
f 119/96/57 120/97/57 121/98/57 122/99/57
f 113/91/58 119/96/58 122/99/58 110/59/58

o BarrelLoRes_Cylin.011_BarrelLoRes_Cylin.009
usemtl None_Barrel.png_Barrel.png
s off

v 16.899435 -0.938400 22.758646
v 13.420980 -0.419520 16.653374
v 16.713434 2.067345 14.917455
v 20.335155 1.656690 20.947186
v 9.516045 1.198890 10.715940
v 12.323820 3.319680 9.235560
v 20.239740 -0.548565 29.407049
v 23.117445 0.999615 36.207150
v 19.826071 0.258015 37.958729
v 16.344976 -1.422420 31.443121
v 12.855044 -1.849665 24.910965
v 23.548306 1.940505 27.693600
v 25.913475 3.111525 34.732964

vt 0.060361 0.376799
vt 0.075962 0.499262
vt 0.131026 0.127343
vt 0.137105 0.000530

vn 0.452878 -0.828861 -0.328469
vn 0.366839 -0.807773 -0.461445
vn 0.269692 -0.957385 0.103344
vn 0.198072 -0.979290 -0.041933
vn 0.580494 -0.812024 -0.060364
vn 0.515878 -0.830363 -0.210634

f 123/94/59 124/93/59 125/100/59 126/15/59
f 124/93/60 127/95/60 128/101/60 125/100/60
f 129/102/61 130/103/61 131/97/61 132/96/61
f 123/94/62 129/102/62 132/96/62 133/91/62
f 134/13/63 135/12/63 130/103/63 129/102/63
f 126/15/64 134/13/64 129/102/64 123/94/64

o BarrelLoRes_Cylin.010_BarrelLoRes_Cylin.008
usemtl None_Barrel.png_Barrel.png
s off

v -6.074640 0.553215 9.039045
v -9.248730 0.553215 6.918180
v -2.330550 0.553215 0.000000

vt 0.869729 0.000000
vt 0.929498 0.030446
vt 0.837382 0.199985

vn 0.000000 -1.000000 0.000000

f 136/104/65 137/105/65 138/106/65

o BarrelLoRes_Cylin.009_BarrelLoRes_Cylin.007
usemtl None_Barrel.png_Barrel.png
s off

v -20.882490 0.553215 -15.395865
v -17.261070 0.553215 -16.603424
v -16.036364 0.553215 -6.896595
v -23.766121 0.553215 -12.894361
v -25.472986 0.553215 -9.479760
v -25.743195 0.553215 -5.671890

vt 1.000000 0.239764
vt 0.975243 0.313267
vt 1.000000 0.160205
vt 0.975243 0.086702


f 139/107/65 140/108/65 141/106/65
f 141/106/65 142/109/65 139/107/65
f 141/106/65 143/110/65 142/109/65
f 141/106/65 144/105/65 143/110/65

o BarrelLoRes_Cylin.008_BarrelLoRes_Cylin.006
usemtl None_Barrel.png_Barrel.png
s off

v 2.813865 0.553215 12.984015
v -0.930225 0.553215 12.239280
v 2.813865 0.553215 3.200235
v 6.557955 0.553215 12.239280
v 9.732045 0.553215 10.118416

vt 0.805036 0.000000
vt 0.745267 0.030446
vt 0.699522 0.086702


f 145/111/65 146/104/65 147/106/65
f 147/106/65 148/112/65 145/111/65
f 147/106/65 149/113/65 148/112/65

o BarrelLoRes_Cylin.007_BarrelLoRes_Cylin.005
usemtl None_Barrel.png_Barrel.png
s off

v 18.223515 0.553215 -44.786953
v 8.713305 0.553215 -42.489391
v 8.557995 0.553215 -46.303665
v 10.316490 0.553215 -39.024899

vt 0.805035 0.399969
vt 0.745267 0.369523
vt 0.869729 0.399969


f 150/106/65 151/114/65 152/115/65
f 153/116/65 151/114/65 150/106/65

o BarrelLoRes_Cylin.006_BarrelLoRes_Cylin.004
usemtl None_Barrel.png_Barrel.png
s off

v -1.467510 0.553215 -13.937055
v 2.276580 0.553215 -14.681789
v 2.276580 0.553215 -4.898010
v -4.641600 0.553215 -11.816190

vt 0.929498 0.369523


f 154/117/65 155/116/65 156/106/65
f 156/106/65 157/108/65 154/117/65

o BarrelLoRes_Cylin.005_BarrelLoRes_Cylin.003
usemtl None_Barrel.png_Barrel.png
s off

v 31.139385 0.553215 -5.524845
v 29.018520 0.553215 -2.350755
v 22.100340 0.553215 -9.268934
v 31.884119 0.553215 -9.268934
v 31.139385 0.553215 -13.013025
v 29.018520 0.553215 -16.187115

vt 0.674765 0.160205
vt 0.674765 0.239764
vt 0.699522 0.313267


f 158/118/65 159/113/65 160/106/65
f 160/106/65 161/119/65 158/118/65
f 160/106/65 162/120/65 161/119/65
f 160/106/65 163/115/65 162/120/65

o BarrelLoRes_Cylin.004_BarrelLoRes_Cylin.002
usemtl None_Barrel.png_Barrel.png
s off

v -57.972931 0.608595 9.070695
v -59.452454 0.608595 18.700529
v -55.654648 0.608595 18.533699
v -52.209782 0.608595 16.926226
v -49.642307 0.608595 14.122786

vt 0.836702 0.699190
vt 0.744972 0.868020
vt 0.699419 0.811999
vt 0.674765 0.738804
vt 0.674765 0.659578

vn 0.000000 1.000000 0.000000

f 164/121/66 165/122/66 166/123/66
f 164/121/66 166/123/66 167/124/66
f 164/121/66 167/124/66 168/125/66

o BarrelLoRes_Cylin.003_BarrelLoRes_Cylin.001
usemtl None_Barrel.png_Barrel.png
s off

v 77.235184 -0.749475 -2.662215
v 80.016556 -0.749475 -5.253525
v 72.112099 -0.749475 -10.949355
v 81.594574 -0.749475 -8.712015
v 81.728943 -0.749475 -12.511110
v 80.399254 -0.749475 -16.072426
v 63.824936 -0.749475 -5.826270
v 66.416283 -0.749475 -3.044895
v 69.874756 -0.749475 -1.466880
v 73.673866 -0.749475 -1.332510

vt 0.973986 0.811998
vt 0.928432 0.868019
vt 0.868914 0.898338
vt 0.804491 0.898338
vt 0.928432 0.530361
vt 0.973985 0.586382
vt 0.998639 0.659577
vt 0.998639 0.738803


f 169/126/66 170/127/66 171/121/66
f 171/121/66 170/127/66 172/128/66
f 171/121/66 172/128/66 173/129/66
f 171/121/66 173/129/66 174/122/66
f 171/121/66 175/130/66 176/131/66
f 171/121/66 176/131/66 177/132/66
f 171/121/66 177/132/66 178/133/66
f 171/121/66 178/133/66 169/126/66

o BarrelLoRes_Cylin.002_BarrelLoRes_Cylin
usemtl None_Barrel.png_Barrel.png
s off

v -6.345675 3.195900 70.367416
v 0.405645 3.195900 63.342991
v -2.796405 3.195900 61.294064
v -6.538785 3.195900 60.626492
v -10.251781 3.195900 61.441891
v -13.370100 3.195900 63.616096
v -15.419025 3.195900 66.818161

vt 0.699418 0.586383
vt 0.744972 0.530362
vt 0.804490 0.500043
vt 0.868913 0.500043


f 179/121/66 180/125/66 181/134/66
f 179/121/66 181/134/66 182/135/66
f 179/121/66 182/135/66 183/136/66
f 179/121/66 183/136/66 184/137/66
f 179/121/66 184/137/66 185/130/66

