mtllib BarrelAnimate_000002.mtl

o BarrelLoRes_Cylin.022_BarrelLoRes_Cylin.020
usemtl None_Barrel.png_Barrel.png
s off

v 9.085035 14.720325 8.465370
v 8.602156 7.699980 8.112375
v 11.088690 7.653990 4.390395
v 11.679765 14.672339 4.581435
v 7.277070 0.633210 6.918180
v 9.397575 0.594000 3.744090
v 11.961841 7.637835 0.000000
v 12.590910 14.655480 0.000000
v 10.142176 0.580230 0.000000
v 11.367285 22.159666 4.394685
v 9.893970 29.483324 3.728430
v 7.782345 29.522385 6.889230
v 8.877975 22.187399 8.120310
v 12.241409 22.149931 0.000015
v 10.635495 29.469614 0.000015

vt 0.000000 0.744986
vt 0.006732 0.623591
vt 0.060370 0.623287
vt 0.055972 0.744669
vt 0.030224 0.501083
vt 0.075967 0.500824
vt 0.130454 0.622967
vt 0.129106 0.744335
vt 0.135734 0.500551
vt 0.007200 0.125929
vt 0.032050 0.000000
vt 0.077592 0.000258
vt 0.060880 0.126550
vt 0.000000 0.255099
vt 0.055962 0.255417
vt 0.131042 0.873643
vt 0.137114 0.999556
vt 0.077597 0.999828
vt 0.060890 0.873852

vn 0.828032 -0.084822 0.554228
vn 0.805322 -0.242429 0.541003
vn 0.976961 -0.087576 0.194619
vn 0.950699 -0.245117 0.189973
vn 0.813431 0.212630 0.541403
vn 0.830738 0.048582 0.554540
vn 0.958970 0.210304 0.190129
vn 0.979789 0.045720 0.194739

f 1/1/1 2/2/1 3/3/1 4/4/1
f 2/2/2 5/5/2 6/6/2 3/3/2
f 7/7/3 8/8/3 4/4/3 3/3/3
f 9/9/4 7/7/4 3/3/4 6/6/4
f 10/10/5 11/11/5 12/12/5 13/13/5
f 4/14/6 10/10/6 13/13/6 1/15/6
f 14/16/7 15/17/7 11/18/7 10/19/7
f 8/8/8 14/16/8 10/19/8 4/4/8

o BarrelLoRes_Cylin.021_BarrelLoRes_Cylin.019
usemtl None_Barrel.png_Barrel.png
s off

v 4.092030 0.521100 -9.456045
v 4.738320 7.584255 -11.133885
v 8.460299 7.625565 -8.647275
v 7.266105 0.556335 -7.335465
v 4.929375 14.603700 -11.711776
v 8.813295 14.646811 -9.116970
v 0.347940 7.569750 -12.007065
v 0.347940 14.588565 -12.622965
v 0.347925 0.508740 -10.200675

vt 0.305944 0.500043
vt 0.330045 0.622371
vt 0.276402 0.622472
vt 0.260197 0.500129
vt 0.337382 0.743713
vt 0.281404 0.743818
vt 0.393344 0.244626
vt 0.397743 0.123244
vt 0.467822 0.122924
vt 0.466472 0.244293
vt 0.413344 0.000781
vt 0.473107 0.000508

vn 0.541005 -0.240914 -0.805776
vn 0.554228 -0.083267 -0.828189
vn 0.194619 -0.085741 -0.977124
vn 0.189973 -0.243330 -0.951158

f 16/20/9 17/21/9 18/22/9 19/23/9
f 17/21/10 20/24/10 21/25/10 18/22/10
f 20/26/11 17/27/11 22/28/11 23/29/11
f 17/27/12 16/30/12 24/31/12 22/28/12

o BarrelLoRes_Cylin.020_BarrelLoRes_Cylin.018
usemtl None_Barrel.png_Barrel.png
s off

v 0.301815 14.513880 -12.431085
v 0.286860 7.497825 -11.784704
v -4.098750 7.527630 -10.888230
v -4.274610 14.544975 -11.495610
v 0.278145 0.444720 -9.947670
v -3.461880 0.470145 -9.183165
v -7.807290 7.589475 -8.382046
v -8.144535 14.609506 -8.880361
v -6.624510 0.522885 -7.045890
v -4.066935 21.922230 -11.200305
v -3.373455 29.358028 -9.750945
v 0.350910 29.332710 -10.512255
v 0.323040 21.924706 -12.098310
v -7.779181 21.956760 -8.691091
v -6.522840 29.410545 -7.622625

vt 0.543682 0.122638
vt 0.545633 0.243994
vt 0.537800 0.000264
vt 0.613775 0.122429
vt 0.618776 0.243775
vt 0.597574 0.000086
vt 0.544339 0.371297
vt 0.538909 0.499270
vt 0.474487 0.499513
vt 0.468406 0.372142
vt 0.614499 0.370615
vt 0.598433 0.499092

vn -0.200052 -0.089463 -0.975692
vn -0.195678 -0.246949 -0.949066
vn -0.558852 -0.085400 -0.824858
vn -0.545919 -0.242984 -0.801830
vn -0.195512 0.205590 -0.958910
vn -0.200003 0.044666 -0.978777
vn -0.545815 0.208699 -0.811499
vn -0.558848 0.048993 -0.827822

f 25/29/13 26/28/13 27/32/13 28/33/13
f 26/28/14 29/31/14 30/34/14 27/32/14
f 31/35/15 32/36/15 28/33/15 27/32/15
f 33/37/16 31/35/16 27/32/16 30/34/16
f 34/38/17 35/39/17 36/40/17 37/41/17
f 28/33/18 34/38/18 37/41/18 25/29/18
f 38/42/19 39/43/19 35/39/19 34/38/19
f 32/36/20 38/42/20 34/38/20 28/33/20

o BarrelLoRes_Cylin.019_BarrelLoRes_Cylin.017
usemtl None_Barrel.png_Barrel.png
s off

v 12.528495 14.677095 -0.295305
v 11.947830 7.656090 -0.189495
v 11.093475 7.598445 -4.583220
v 11.636971 14.616945 -4.880205
v 10.176900 0.586830 -0.088065
v 9.448320 0.537660 -3.835005
v 8.622705 7.569705 -8.315880
v 9.058695 14.586961 -8.775285
v 7.341255 0.513165 -7.018185
v 8.798685 22.056854 -8.546505
v 5.186220 14.591715 -11.387506
v 5.083755 22.034025 -11.051820
v 7.647224 29.402161 -7.433520
v 4.495770 29.406015 -9.559395
v 0.692805 22.038885 -11.945055
v 0.770820 29.437561 -10.317630
v 0.609060 14.630475 -12.319215
v 11.272079 22.103909 -4.810500
v 9.745455 29.426552 -4.263675
v 10.471005 29.475510 -0.532395
v 12.127350 22.168049 -0.412560

vt 0.206314 0.622681
vt 0.208267 0.744037
vt 0.200427 0.500307
vt 0.344581 0.373798
vt 0.337382 0.244943
vt 0.398260 0.373020
vt 0.369432 0.500043
vt 0.414974 0.499784
vt 0.206976 0.873246
vt 0.201536 0.999313
vt 0.277131 0.872720
vt 0.261056 0.999135

vn 0.978370 -0.083767 -0.189144
vn 0.953174 -0.241394 -0.182176
vn 0.830972 -0.087595 -0.549374
vn 0.809294 -0.245132 -0.533811
vn 0.558538 0.044928 -0.828261
vn 0.546524 0.208193 -0.811152
vn 0.195892 0.209126 -0.958067
vn 0.199405 0.047036 -0.978788
vn 0.958306 0.214017 -0.189330
vn 0.980279 0.049530 -0.191310
vn 0.814266 0.209911 -0.541209
vn 0.832759 0.045804 -0.551737

f 40/8/21 41/7/21 42/44/21 43/45/21
f 41/7/22 44/9/22 45/46/22 42/44/22
f 46/22/23 47/25/23 43/45/23 42/44/23
f 48/23/24 46/22/24 42/44/24 45/46/24
f 49/47/25 47/48/25 50/26/25 51/49/25
f 52/50/26 49/47/26 51/49/26 53/51/26
f 54/41/27 55/40/27 53/51/27 51/49/27
f 56/29/28 54/41/28 51/49/28 50/26/28
f 57/52/29 58/53/29 59/17/29 60/16/29
f 43/45/30 57/52/30 60/16/30 40/8/30
f 49/54/31 52/55/31 58/53/31 57/52/31
f 47/25/32 49/54/32 57/52/32 43/45/32

o BarrelLoRes_Cylin.018_BarrelLoRes_Cylin.016
usemtl None_Barrel.png_Barrel.png
s off

v -8.418255 14.587125 9.210344
v -8.019330 7.569195 8.727960
v -4.335225 7.541715 11.270520
v -4.573815 14.558445 11.863560
v -6.766335 0.510150 7.416150
v -3.624540 0.486705 9.584445
v -4.422945 21.936615 11.557065
v -3.775440 29.375296 10.101270
v -6.904080 29.398634 7.942065
v -8.110500 21.936750 9.011490

vt 0.337382 0.256372
vt 0.330046 0.377715
vt 0.276392 0.377614
vt 0.281393 0.256268
vt 0.260192 0.499957
vt 0.668206 0.870944
vt 0.643992 0.998964
vt 0.598441 0.999049
vt 0.614513 0.870572
vt 0.674765 0.743628
vt 0.618792 0.743733

vn -0.566223 -0.088514 0.819486
vn -0.551789 -0.246029 0.796868
vn -0.555434 0.205655 0.805729
vn -0.567335 0.045879 0.822208

f 61/56/33 62/57/33 63/58/33 64/59/33
f 62/57/34 65/20/34 66/60/34 63/58/34
f 67/61/35 68/62/35 69/63/35 70/64/35
f 64/65/36 67/61/36 70/64/36 61/66/36

o BarrelLoRes_Cylin.017_BarrelLoRes_Cylin.015
usemtl None_Barrel.png_Barrel.png
s off

v -11.291895 14.440200 -4.581435
v -10.681994 7.423470 -4.390395
v -11.555100 7.404990 -0.000015
v -12.202995 14.420910 -0.000015
v -8.971950 0.368055 -3.744090
v -9.716520 0.352275 0.000000
v -11.870025 21.747435 -0.000030
v -10.287315 29.240250 -0.000030
v -9.545835 29.255939 -3.728445
v -10.996185 21.772350 -4.394700

vt 0.393360 0.744583
vt 0.397757 0.623201
vt 0.467844 0.622881
vt 0.466497 0.744250
vt 0.413351 0.500738
vt 0.473121 0.500465
vt 0.468425 0.870641
vt 0.474501 0.999470
vt 0.414981 0.999742
vt 0.398270 0.871072

vn -0.976723 -0.090197 -0.194620
vn -0.950038 -0.247667 -0.189974
vn -0.960570 0.202990 -0.189999
vn -0.979866 0.044503 -0.194633

f 71/67/37 72/68/37 73/69/37 74/70/37
f 72/68/38 75/71/38 76/72/38 73/69/38
f 77/73/39 78/74/39 79/75/39 80/76/39
f 74/70/40 77/73/40 80/76/40 71/67/40

o BarrelLoRes_Cylin.016_BarrelLoRes_Cylin.014
usemtl None_Barrel.png_Barrel.png
s off

v -9.206175 14.889555 -9.086445
v -9.065160 7.861935 -8.601105
v -11.616825 8.002516 -4.925850
v -11.868870 15.036255 -5.251275

vt 0.667429 0.122328
vt 0.674765 0.243670

vn -0.821155 -0.055703 -0.567981

f 81/36/41 82/35/41 83/77/41 84/78/41

o BarrelLoRes_Cylin.015_BarrelLoRes_Cylin.013
usemtl None_Barrel.png_Barrel.png
s off

v -8.666955 7.532940 -8.633640
v -7.384110 0.472725 -7.357455
v -9.474795 0.492015 -4.163475
v -11.118540 7.555560 -4.888305

vt 0.643330 0.000000

vn -0.812199 -0.243409 -0.530174

f 85/35/42 86/37/42 87/79/42 88/77/42

o BarrelLoRes_Cylin.014_BarrelLoRes_Cylin.012
usemtl None_Barrel.png_Barrel.png
s off

v -11.040585 21.736231 -4.454670
v -9.592080 29.220585 -3.793020
v -7.490640 29.266424 -6.960510
v -8.564040 21.808575 -8.188169
v -8.750790 14.460240 -8.532660
v -11.332994 14.403930 -4.640475

vt 0.369426 1.000000
vt 0.344575 0.871692
vt 0.337382 0.744900

vn -0.817062 0.205989 -0.538496
vn -0.832752 0.047106 -0.551639

f 89/76/43 90/75/43 91/80/43 92/81/43
f 92/81/44 93/82/44 94/67/44 89/76/44

o BarrelLoRes_Cylin.013_BarrelLoRes_Cylin.011
usemtl None_Barrel.png_Barrel.png
s off

v -12.189585 14.425665 0.175920
v -11.552700 7.408740 0.173025
v -10.659540 7.425855 4.559385
v -11.257561 14.443545 4.753155
v -9.725220 0.353145 0.164700
v -8.963550 0.367755 3.905340
v -8.156099 7.474605 8.269995
v -8.645189 14.494410 8.625210
v -6.828630 0.409320 7.069725
v -10.951200 21.775200 4.564995
v -9.492166 29.256510 3.892065
v -10.250655 29.241976 0.167055
v -11.845110 21.751650 0.174345
v -8.445690 21.842310 8.279221
v -7.366185 29.297911 7.043205

vt 0.543704 0.622595
vt 0.545658 0.743951
vt 0.537814 0.500221
vt 0.613789 0.622386
vt 0.597582 0.500043
vt 0.544359 0.870465
vt 0.538923 0.999227

vn -0.975965 -0.088664 0.199074
vn -0.949548 -0.246174 0.194310
vn -0.825399 -0.085744 0.558000
vn -0.802575 -0.243324 0.544672
vn -0.959374 0.204498 0.194376
vn -0.978897 0.046042 0.199099
vn -0.812437 0.207700 0.544800
vn -0.828356 0.048852 0.558069

f 95/70/45 96/69/45 97/83/45 98/84/45
f 96/69/46 99/72/46 100/85/46 97/83/46
f 101/86/47 102/66/47 98/84/47 97/83/47
f 103/87/48 101/86/48 97/83/48 100/85/48
f 104/88/49 105/89/49 106/74/49 107/73/49
f 98/84/50 104/88/50 107/73/50 95/70/50
f 108/64/51 109/63/51 105/89/51 104/88/51
f 102/66/52 108/64/52 104/88/52 98/84/52

o BarrelLoRes_Cylin.012_BarrelLoRes_Cylin.010
usemtl None_Barrel.png_Barrel.png
s off

v -3.781965 14.590199 12.470386
v -3.614085 7.572030 11.870040
v 0.806865 7.555605 12.572235
v 0.831345 14.573040 13.203165
v -3.033945 0.512610 10.152810
v 0.736200 0.498585 10.751625
v 5.160075 7.572030 11.529465
v 5.373990 14.590199 12.115020
v 4.448595 0.512610 9.862366
v 0.817815 21.983160 12.854805
v 0.755685 29.387819 11.254080
v -2.998695 29.401772 10.657740
v -3.607470 21.967304 12.151290

vt 0.206299 0.377405
vt 0.208251 0.256049
vt 0.200417 0.499779
vt 0.130439 0.377119
vt 0.129090 0.255750
vt 0.135724 0.499535
vt 0.206958 0.128187
vt 0.201527 0.000773
vt 0.261052 0.000951
vt 0.277118 0.128955

vn -0.156581 -0.087899 0.983746
vn -0.152959 -0.245430 0.957271
vn 0.232363 -0.087899 0.968649
vn 0.226701 -0.245430 0.942534
vn -0.153585 0.207128 0.966183
vn -0.156762 0.046237 0.986553

f 110/59/53 111/58/53 112/90/53 113/91/53
f 111/58/54 114/60/54 115/92/54 112/90/54
f 116/93/55 117/94/55 113/91/55 112/90/55
f 118/95/56 116/93/56 112/90/56 115/92/56
f 119/96/57 120/97/57 121/98/57 122/99/57
f 113/91/58 119/96/58 122/99/58 110/59/58

o BarrelLoRes_Cylin.011_BarrelLoRes_Cylin.009
usemtl None_Barrel.png_Barrel.png
s off

v 5.029170 14.544495 11.457795
v 4.835100 7.527270 10.854315
v 8.544570 7.577985 8.349240
v 8.900055 14.597415 8.843700
v 4.180275 0.470520 9.153030
v 7.343685 0.513765 7.016715
v 4.840905 21.986700 11.159565
v 4.167345 29.358856 9.704505
v 0.442695 29.343721 10.464660
v 0.450675 21.936569 12.054914
v 0.452355 14.525909 12.391860
v 8.554006 22.064850 8.652630
v 7.317525 29.401918 7.577129

vt 0.060361 0.376799
vt 0.075962 0.499262
vt 0.131026 0.127343
vt 0.137105 0.000530

vn 0.558373 -0.086399 0.825079
vn 0.545033 -0.243960 0.802136
vn 0.193984 0.206554 0.959013
vn 0.199374 0.044413 0.978917
vn 0.544525 0.210392 0.811928
vn 0.558428 0.047193 0.828210

f 123/94/59 124/93/59 125/100/59 126/15/59
f 124/93/60 127/95/60 128/101/60 125/100/60
f 129/102/61 130/103/61 131/97/61 132/96/61
f 123/94/62 129/102/62 132/96/62 133/91/62
f 134/13/63 135/12/63 130/103/63 129/102/63
f 126/15/64 134/13/64 129/102/64 123/94/64

o BarrelLoRes_Cylin.010_BarrelLoRes_Cylin.008
usemtl None_Barrel.png_Barrel.png
s off

v -3.422730 0.553215 9.039045
v -6.596820 0.553215 6.918180
v 0.321360 0.553215 0.000000

vt 0.869729 0.000000
vt 0.929498 0.030446
vt 0.837382 0.199985

vn 0.000000 -1.000000 0.000000

f 136/104/65 137/105/65 138/106/65

o BarrelLoRes_Cylin.009_BarrelLoRes_Cylin.007
usemtl None_Barrel.png_Barrel.png
s off

v -8.851800 0.553215 -3.884130
v -6.709065 0.553215 -7.043490
v 0.161175 0.553215 -0.077700
v -9.622380 0.553215 -0.145260
v -8.903521 0.553215 3.603870
v -6.804630 0.553215 6.792540

vt 1.000000 0.239764
vt 0.975243 0.313267
vt 1.000000 0.160205
vt 0.975243 0.086702


f 139/107/65 140/108/65 141/106/65
f 141/106/65 142/109/65 139/107/65
f 141/106/65 143/110/65 142/109/65
f 141/106/65 144/105/65 143/110/65

o BarrelLoRes_Cylin.008_BarrelLoRes_Cylin.006
usemtl None_Barrel.png_Barrel.png
s off

v 0.372375 0.553215 9.815519
v -3.371715 0.553215 9.070785
v 0.372375 0.553215 0.031740
v 4.116465 0.553215 9.070785
v 7.290555 0.553215 6.949920

vt 0.805036 0.000000
vt 0.745267 0.030446
vt 0.699522 0.086702


f 145/111/65 146/104/65 147/106/65
f 147/106/65 148/112/65 145/111/65
f 147/106/65 149/113/65 148/112/65

o BarrelLoRes_Cylin.007_BarrelLoRes_Cylin.005
usemtl None_Barrel.png_Barrel.png
s off

v 0.354405 0.553215 -0.179070
v 3.789450 0.553215 -9.340020
v 7.033710 0.553215 -7.328145
v 0.022230 0.553215 -9.957211

vt 0.805035 0.399969
vt 0.745267 0.369523
vt 0.869729 0.399969


f 150/106/65 151/114/65 152/115/65
f 153/116/65 151/114/65 150/106/65

o BarrelLoRes_Cylin.006_BarrelLoRes_Cylin.004
usemtl None_Barrel.png_Barrel.png
s off

v -3.377040 0.553215 -9.087630
v 0.367050 0.553215 -9.832365
v 0.367050 0.553215 -0.048585
v -6.551130 0.553215 -6.966765

vt 0.929498 0.369523


f 154/117/65 155/116/65 156/106/65
f 156/106/65 157/108/65 154/117/65

o BarrelLoRes_Cylin.005_BarrelLoRes_Cylin.003
usemtl None_Barrel.png_Barrel.png
s off

v 9.604440 0.553215 3.652035
v 7.483575 0.553215 6.826125
v 0.565395 0.553215 -0.092055
v 10.349174 0.553215 -0.092055
v 9.604440 0.553215 -3.836145
v 7.483575 0.553215 -7.010235

vt 0.674765 0.160205
vt 0.674765 0.239764
vt 0.699522 0.313267


f 158/118/65 159/113/65 160/106/65
f 160/106/65 161/119/65 158/118/65
f 160/106/65 162/120/65 161/119/65
f 160/106/65 163/115/65 162/120/65

o BarrelLoRes_Cylin.004_BarrelLoRes_Cylin.002
usemtl None_Barrel.png_Barrel.png
s off

v -0.476520 29.156700 0.382875
v -7.596195 29.156700 -6.267915
v -9.599400 29.156700 -3.037065
v -10.213725 29.156700 0.714435
v -9.345630 29.156700 4.415460

vt 0.836702 0.699190
vt 0.744972 0.868020
vt 0.699419 0.811999
vt 0.674765 0.738804
vt 0.674765 0.659578

vn 0.000000 1.000000 0.000000

f 164/121/66 165/122/66 166/123/66
f 164/121/66 166/123/66 167/124/66
f 164/121/66 167/124/66 168/125/66

o BarrelLoRes_Cylin.003_BarrelLoRes_Cylin.001
usemtl None_Barrel.png_Barrel.png
s off

v 8.016975 29.142616 -6.995220
v 4.909545 29.142616 -9.184920
v 0.959055 29.142616 -0.278925
v 1.200645 29.142616 -10.018785
v -2.545035 29.142616 -9.369825
v -5.757225 29.142616 -7.336875
v 7.675335 29.142616 6.778995
v 9.865035 29.142616 3.671520
v 10.698900 29.142616 -0.037350
v 10.049940 29.142616 -3.783030

vt 0.973986 0.811998
vt 0.928432 0.868019
vt 0.868914 0.898338
vt 0.804491 0.898338
vt 0.928432 0.530361
vt 0.973985 0.586382
vt 0.998639 0.659577
vt 0.998639 0.738803


f 169/126/66 170/127/66 171/121/66
f 171/121/66 170/127/66 172/128/66
f 171/121/66 172/128/66 173/129/66
f 171/121/66 173/129/66 174/122/66
f 171/121/66 175/130/66 176/131/66
f 171/121/66 176/131/66 177/132/66
f 171/121/66 177/132/66 178/133/66
f 171/121/66 178/133/66 169/126/66

o BarrelLoRes_Cylin.002_BarrelLoRes_Cylin
usemtl None_Barrel.png_Barrel.png
s off

v 0.077355 29.183369 0.263955
v -9.095310 29.183369 3.548010
v -7.140330 29.183369 6.808260
v -4.086510 29.183369 9.072195
v -0.398790 29.183369 9.995131
v 3.361425 29.183369 9.436620
v 6.621660 29.183369 7.481610

vt 0.699418 0.586383
vt 0.744972 0.530362
vt 0.804490 0.500043
vt 0.868913 0.500043


f 179/121/66 180/125/66 181/134/66
f 179/121/66 181/134/66 182/135/66
f 179/121/66 182/135/66 183/136/66
f 179/121/66 183/136/66 184/137/66
f 179/121/66 184/137/66 185/130/66

