mtllib BarrelWobbleAnimate_000002.mtl

o BarrelLoRes_Cylinder.
usemtl None_Barrel.png_Barre_Barrel.png
s off

v 0.360390 0.544560 -0.025860
v 8.501835 -0.674475 -5.312940
v 9.954270 -0.115170 -1.827180
v 1.379640 28.986031 -5.014035
v 10.933365 28.329062 -6.807810
v 9.487004 27.772110 -10.278975
v 9.946110 0.544560 1.932810
v 10.925250 28.986044 -3.063555
v 8.478645 1.204290 5.394615
v 9.463890 29.643017 0.383760
v 5.775210 1.763595 8.031196
v 6.771780 30.199965 3.009315
v 2.247435 2.137305 9.441180
v 3.258765 30.572115 4.413390
v -1.567620 2.268525 9.409875
v -0.540315 30.702797 4.382205
v -5.089155 2.137305 7.942095
v -4.047135 30.572115 2.920545
v -7.781040 1.763595 5.261235
v -6.727755 30.199965 0.250920
v -9.233475 1.204290 1.775475
v -8.174085 29.643000 -3.220260
v -9.225315 0.544560 -1.984515
v -8.165970 28.986031 -6.964515
v -7.757850 -0.115170 -5.446320
v -6.704610 28.329062 -10.411830
v -5.054415 -0.674475 -8.082914
v -4.012500 27.772110 -13.037371
v -1.526640 -1.048185 -9.492885
v -0.499485 27.399960 -14.441445
v 2.288415 -1.179405 -9.461596
v 3.299610 27.269281 -14.410275
v 5.809965 -1.048185 -7.993800
v 6.806415 27.399960 -12.948600
v 10.820625 12.950114 -8.932710
v 10.677765 20.356140 -9.957226
v 12.383220 21.030645 -5.868930
v 12.597885 13.634505 -4.667385
v 12.373875 21.811350 -1.456695
v 12.587910 14.441775 -0.066510
v 10.651155 22.579380 2.607750
v 10.792230 15.249075 4.169505
v 7.477335 23.217840 5.705640
v 7.484220 15.933450 7.395735
v 3.335610 23.629530 7.365330
v 3.167475 16.390739 9.121050
v -1.143495 23.751736 7.334190
v -1.500795 16.551315 9.082755
v -5.278080 23.565899 5.616900
v -5.809875 16.390726 7.286685
v -8.438684 23.100300 2.474955
v -9.103785 15.933450 4.006290
v -10.144125 22.425779 -1.613340
v -10.881045 15.249060 -0.259020
v -10.134794 21.645090 -6.025575
v -10.871070 14.441775 -4.859910
v -8.412060 20.877045 -10.090019
v -9.075375 13.634490 -9.095910
v -5.238255 20.238600 -13.187895
v -5.767350 12.950114 -12.322155
v -1.096500 19.826910 -14.847600
v -1.450620 12.492825 -14.047455
v 3.382605 19.704689 -14.816429
v 3.217635 12.332250 -14.009160
v 7.517175 19.890539 -13.099140
v 7.526730 12.492840 -12.213090
v 10.157295 6.094215 -7.449615
v 11.860440 6.750060 -3.362145
v 11.850884 7.523670 1.046880
v 10.130085 8.297295 5.106255
v 6.960015 8.953125 8.197966
v 2.823285 9.391350 9.851324
v -1.650315 9.545220 9.814620
v -5.779740 9.391350 8.093460
v -8.936296 8.953125 4.949850
v -10.639440 8.297280 0.862395
v -10.629869 7.523670 -3.546645
v -8.909070 6.750060 -7.606019
v -5.738985 6.094215 -10.697729
v -1.602270 5.656005 -12.351075
v 2.871330 5.502120 -12.314384
v 7.000740 5.656005 -10.593210

vt 0.837382 0.199985
vt 0.745267 0.369523
vt 0.699522 0.313267
vt 0.836702 0.699190
vt 0.998639 0.738803
vt 0.973986 0.811998
vt 0.674765 0.239764
vt 0.998639 0.659577
vt 0.674765 0.160205
vt 0.973985 0.586382
vt 0.699522 0.086702
vt 0.928432 0.530361
vt 0.745267 0.030446
vt 0.868913 0.500043
vt 0.805036 0.000000
vt 0.804490 0.500043
vt 0.869729 0.000000
vt 0.744972 0.530362
vt 0.929498 0.030446
vt 0.699418 0.586383
vt 0.975243 0.086702
vt 0.674765 0.659578
vt 1.000000 0.160205
vt 0.674765 0.738804
vt 1.000000 0.239764
vt 0.699419 0.811999
vt 0.975243 0.313267
vt 0.744972 0.868020
vt 0.929498 0.369523
vt 0.804491 0.898338
vt 0.869729 0.399969
vt 0.868914 0.898338
vt 0.805035 0.399969
vt 0.928432 0.868019
vt 0.281404 0.743818
vt 0.277131 0.872720
vt 0.206976 0.873246
vt 0.208267 0.744037
vt 0.261056 0.999135
vt 0.201536 0.999313
vt 0.131042 0.873643
vt 0.129106 0.744335
vt 0.137114 0.999556
vt 0.060890 0.873852
vt 0.055972 0.744669
vt 0.077597 0.999828
vt 0.000000 0.255099
vt 0.007200 0.125929
vt 0.060880 0.126550
vt 0.055962 0.255417
vt 0.032050 0.000000
vt 0.077592 0.000258
vt 0.131026 0.127343
vt 0.129090 0.255750
vt 0.137105 0.000530
vt 0.206958 0.128187
vt 0.208251 0.256049
vt 0.201527 0.000773
vt 0.277118 0.128955
vt 0.281393 0.256268
vt 0.261052 0.000951
vt 0.674765 0.743628
vt 0.668206 0.870944
vt 0.614513 0.870572
vt 0.618792 0.743733
vt 0.643992 0.998964
vt 0.598441 0.999049
vt 0.544359 0.870465
vt 0.545658 0.743951
vt 0.538923 0.999227
vt 0.468425 0.870641
vt 0.466497 0.744250
vt 0.474501 0.999470
vt 0.398270 0.871072
vt 0.393360 0.744583
vt 0.414981 0.999742
vt 0.344575 0.871692
vt 0.337382 0.744900
vt 0.369426 1.000000
vt 0.618776 0.243775
vt 0.614499 0.370615
vt 0.544339 0.371297
vt 0.545633 0.243994
vt 0.598433 0.499092
vt 0.538909 0.499270
vt 0.468406 0.372142
vt 0.466472 0.244293
vt 0.474487 0.499513
vt 0.398260 0.373020
vt 0.393344 0.244626
vt 0.414974 0.499784
vt 0.369432 0.500043
vt 0.344581 0.373798
vt 0.337382 0.244943
vt 0.260197 0.500129
vt 0.276402 0.622472
vt 0.206314 0.622681
vt 0.200427 0.500307
vt 0.130454 0.622967
vt 0.135734 0.500551
vt 0.060370 0.623287
vt 0.075967 0.500824
vt 0.006732 0.623591
vt 0.030224 0.501083
vt 0.000000 0.744986
vt 0.075962 0.499262
vt 0.060361 0.376799
vt 0.130439 0.377119
vt 0.135724 0.499535
vt 0.206299 0.377405
vt 0.200417 0.499779
vt 0.276392 0.377614
vt 0.260192 0.499957
vt 0.330046 0.377715
vt 0.305948 0.500043
vt 0.337382 0.256372
vt 0.597582 0.500043
vt 0.613789 0.622386
vt 0.543704 0.622595
vt 0.537814 0.500221
vt 0.467844 0.622881
vt 0.473121 0.500465
vt 0.397757 0.623201
vt 0.413351 0.500738
vt 0.643330 0.000000
vt 0.667429 0.122328
vt 0.613775 0.122429
vt 0.597574 0.000086
vt 0.674765 0.243670
vt 0.543682 0.122638
vt 0.537800 0.000264
vt 0.467822 0.122924
vt 0.473107 0.000508
vt 0.397743 0.123244
vt 0.413344 0.000781
vt 0.330045 0.622371
vt 0.337382 0.743713

vn -0.035276 -0.984353 0.172640
vn 0.035276 0.984353 -0.172640
vn 0.924435 -0.034781 -0.379750
vn 0.907696 0.128674 -0.399413
vn 0.999589 0.028516 -0.002882
vn 0.981096 0.190931 -0.031554
vn 0.922838 0.097144 0.372737
vn 0.906162 0.257934 0.335173
vn 0.705877 0.160647 0.689876
vn 0.694316 0.319471 0.644874
vn 0.381773 0.209354 0.900233
vn 0.377854 0.366171 0.850379
vn -0.000087 0.235849 0.971790
vn 0.005013 0.390926 0.920408
vn -0.381544 0.236106 0.893688
vn -0.367416 0.389979 0.844347
vn -0.704528 0.210094 0.677865
vn -0.682744 0.363483 0.633830
vn -0.919910 0.161779 0.357203
vn -0.893015 0.315477 0.320934
vn -0.994945 0.098513 -0.019489
vn -0.966268 0.253266 -0.046709
vn -0.918236 0.029922 -0.394902
vn -0.891385 0.186308 -0.413185
vn -0.701452 -0.033559 -0.711926
vn -0.679755 0.124791 -0.722745
vn -0.377557 -0.082271 -0.922324
vn -0.363551 0.078074 -0.928297
vn 0.004185 -0.108797 -0.994055
vn 0.009146 0.053272 -0.998538
vn 0.385683 -0.109092 -0.916159
vn 0.381628 0.054172 -0.922727
vn 0.697173 0.080649 -0.712352
vn 0.708845 -0.083102 -0.700452
vn 0.891863 -0.319265 -0.320391
vn 0.919433 -0.166069 -0.356460
vn 0.965146 -0.257412 0.047259
vn 0.994507 -0.102704 0.020177
vn 0.890272 -0.190463 0.413689
vn 0.917803 -0.034117 0.395567
vn 0.678640 -0.128609 0.723124
vn 0.700998 0.029249 0.712563
vn 0.362471 -0.081268 0.928445
vn 0.377101 0.077746 0.922903
vn -0.010105 -0.055648 0.998399
vn -0.004582 0.103992 0.994568
vn -0.382360 -0.055648 0.922336
vn -0.385939 0.103993 0.916644
vn -0.697631 -0.081269 0.711833
vn -0.708915 0.077747 0.700996
vn -0.907913 -0.128608 0.398941
vn -0.924336 0.029248 0.380456
vn -0.981196 -0.190462 0.031291
vn -0.999410 -0.034118 0.003819
vn -0.906322 -0.257412 -0.335140
vn -0.922706 -0.102703 -0.371571
vn -0.694690 -0.319266 -0.644574
vn -0.705901 -0.166069 -0.688567
vn -0.378521 -0.366606 -0.849895
vn -0.382003 -0.214567 -0.898908
vn -0.005945 -0.392226 -0.919850
vn -0.000321 -0.240814 -0.970571
vn 0.366310 -0.392227 -0.843786
vn 0.381036 -0.240814 -0.892648
vn 0.704012 -0.214567 -0.677000
vn 0.681582 -0.366605 -0.633282

f 1/1/1 2/2/1 3/3/1
f 4/4/2 5/5/2 6/6/2
f 1/1/1 3/3/1 7/7/1
f 4/4/2 8/8/2 5/5/2
f 1/1/1 7/7/1 9/9/1
f 4/4/2 10/10/2 8/8/2
f 1/1/1 9/9/1 11/11/1
f 4/4/2 12/12/2 10/10/2
f 1/1/1 11/11/1 13/13/1
f 4/4/2 14/14/2 12/12/2
f 1/1/1 13/13/1 15/15/1
f 4/4/2 16/16/2 14/14/2
f 1/1/1 15/15/1 17/17/1
f 4/4/2 18/18/2 16/16/2
f 1/1/1 17/17/1 19/19/1
f 4/4/2 20/20/2 18/18/2
f 1/1/1 19/19/1 21/21/1
f 4/4/2 22/22/2 20/20/2
f 1/1/1 21/21/1 23/23/1
f 4/4/2 24/24/2 22/22/2
f 1/1/1 23/23/1 25/25/1
f 4/4/2 26/26/2 24/24/2
f 1/1/1 25/25/1 27/27/1
f 4/4/2 28/28/2 26/26/2
f 1/1/1 27/27/1 29/29/1
f 4/4/2 30/30/2 28/28/2
f 1/1/1 29/29/1 31/31/1
f 4/4/2 32/32/2 30/30/2
f 1/1/1 31/31/1 33/33/1
f 4/4/2 34/34/2 32/32/2
f 2/2/1 1/1/1 33/33/1
f 4/4/2 6/6/2 34/34/2
f 35/35/3 36/36/3 37/37/3 38/38/3
f 36/36/4 6/39/4 5/40/4 37/37/4
f 38/38/5 37/37/5 39/41/5 40/42/5
f 37/37/6 5/40/6 8/43/6 39/41/6
f 40/42/7 39/41/7 41/44/7 42/45/7
f 39/41/8 8/43/8 10/46/8 41/44/8
f 42/47/9 41/48/9 43/49/9 44/50/9
f 41/48/10 10/51/10 12/52/10 43/49/10
f 44/50/11 43/49/11 45/53/11 46/54/11
f 43/49/12 12/52/12 14/55/12 45/53/12
f 46/54/13 45/53/13 47/56/13 48/57/13
f 45/53/14 14/55/14 16/58/14 47/56/14
f 48/57/15 47/56/15 49/59/15 50/60/15
f 47/56/16 16/58/16 18/61/16 49/59/16
f 50/62/17 49/63/17 51/64/17 52/65/17
f 49/63/18 18/66/18 20/67/18 51/64/18
f 52/65/19 51/64/19 53/68/19 54/69/19
f 51/64/20 20/67/20 22/70/20 53/68/20
f 54/69/21 53/68/21 55/71/21 56/72/21
f 53/68/22 22/70/22 24/73/22 55/71/22
f 56/72/23 55/71/23 57/74/23 58/75/23
f 55/71/24 24/73/24 26/76/24 57/74/24
f 58/75/25 57/74/25 59/77/25 60/78/25
f 57/74/26 26/76/26 28/79/26 59/77/26
f 60/80/27 59/81/27 61/82/27 62/83/27
f 59/81/28 28/84/28 30/85/28 61/82/28
f 62/83/29 61/82/29 63/86/29 64/87/29
f 61/82/30 30/85/30 32/88/30 63/86/30
f 64/87/31 63/86/31 65/89/31 66/90/31
f 63/86/32 32/88/32 34/91/32 65/89/32
f 6/92/33 36/93/33 65/89/33 34/91/33
f 36/93/34 35/94/34 66/90/34 65/89/34
f 2/95/35 67/96/35 68/97/35 3/98/35
f 67/96/36 35/35/36 38/38/36 68/97/36
f 3/98/37 68/97/37 69/99/37 7/100/37
f 68/97/38 38/38/38 40/42/38 69/99/38
f 7/100/39 69/99/39 70/101/39 9/102/39
f 69/99/40 40/42/40 42/45/40 70/101/40
f 9/102/41 70/101/41 71/103/41 11/104/41
f 70/101/42 42/45/42 44/105/42 71/103/42
f 11/106/43 71/107/43 72/108/43 13/109/43
f 71/107/44 44/50/44 46/54/44 72/108/44
f 13/109/45 72/108/45 73/110/45 15/111/45
f 72/108/46 46/54/46 48/57/46 73/110/46
f 15/111/47 73/110/47 74/112/47 17/113/47
f 73/110/48 48/57/48 50/60/48 74/112/48
f 17/113/49 74/112/49 75/114/49 19/115/49
f 74/112/50 50/60/50 52/116/50 75/114/50
f 19/117/51 75/118/51 76/119/51 21/120/51
f 75/118/52 52/65/52 54/69/52 76/119/52
f 21/120/53 76/119/53 77/121/53 23/122/53
f 76/119/54 54/69/54 56/72/54 77/121/54
f 23/122/55 77/121/55 78/123/55 25/124/55
f 77/121/56 56/72/56 58/75/56 78/123/56
f 25/125/57 78/126/57 79/127/57 27/128/57
f 78/126/58 58/129/58 60/80/58 79/127/58
f 27/128/59 79/127/59 80/130/59 29/131/59
f 79/127/60 60/80/60 62/83/60 80/130/60
f 29/131/61 80/130/61 81/132/61 31/133/61
f 80/130/62 62/83/62 64/87/62 81/132/62
f 31/133/63 81/132/63 82/134/63 33/135/63
f 81/132/64 64/87/64 66/90/64 82/134/64
f 35/35/65 67/96/65 82/136/65 66/137/65
f 67/96/66 2/95/66 33/115/66 82/136/66

