mtllib BarrelWobbleAnimate_000015.mtl

o BarrelLoRes_Cylinder.
usemtl None_Barrel.png_Barre_Barrel.png
s off

v -0.206505 0.574440 0.233400
v -0.513870 0.681165 10.011765
v -4.219605 0.985020 9.146805
v 2.209875 29.365814 -0.004890
v -1.786440 29.774670 8.871210
v 1.903785 29.472090 9.732554
v -7.314360 1.226370 6.924855
v -4.868250 30.014999 6.658560
v -9.327029 1.368465 3.684210
v -6.872475 30.156509 3.431460
v -9.951165 1.389675 -0.081810
v -7.494000 30.177629 -0.318795
v -9.091770 1.286775 -3.799845
v -6.638205 30.075167 -4.021275
v -6.879675 1.075425 -6.903840
v -4.435365 29.864700 -7.112265
v -3.651660 0.787815 -8.921265
v -1.220835 29.578291 -9.121245
v 0.100875 0.467715 -9.544980
v 2.515980 29.259525 -9.742350
v 3.806595 0.163860 -8.680020
v 6.206190 28.956944 -8.880990
v 6.901350 -0.077475 -6.458070
v 9.288015 28.716616 -6.668340
v 8.914021 -0.219570 -3.217425
v 11.292225 28.575106 -3.441240
v 9.538171 -0.240795 0.548610
v 11.913750 28.553986 0.309030
v 8.678776 -0.137895 4.266630
v 11.057940 28.656448 4.011480
v 6.466665 0.073455 7.370625
v 8.855101 28.866915 7.102500
v 3.238650 0.361065 9.388065
v 5.640570 29.153324 9.111480
v 0.598095 14.773214 12.082185
v 1.237470 22.203480 11.532900
v -3.110640 22.578360 10.517489
v -3.936390 15.145020 11.023786
v -6.742635 22.868055 7.909395
v -7.723275 15.440340 8.304914
v -9.105540 23.028419 4.105680
v -10.186050 15.614235 4.339500
v -9.839670 23.035095 -0.314580
v -10.949775 15.640184 -0.268740
v -8.833230 22.887014 -4.678425
v -9.898186 15.514275 -4.818285
v -6.239460 22.606739 -8.321521
v -7.191360 15.255659 -8.616465
v -2.453220 22.236944 -10.689210
v -3.241410 14.903730 -11.085060
v 1.949055 21.833939 -11.421075
v 1.350330 14.512034 -11.848260
v 6.297165 21.459045 -10.405650
v 5.884800 14.140230 -10.789860
v 9.929145 21.169365 -7.797555
v 9.671685 13.844895 -8.070991
v 12.292049 21.008970 -3.993840
v 12.134445 13.671030 -4.105575
v 13.026165 21.002325 0.426405
v 12.898170 13.645065 0.502680
v 12.019725 21.150389 4.790280
v 11.846580 13.770975 5.052210
v 9.425955 21.430666 8.433359
v 9.139771 14.029591 8.850390
v 5.639715 21.800461 10.801050
v 5.189805 14.381536 11.319000
v 0.026010 7.764555 11.641200
v -4.319385 8.120865 10.626945
v -7.948350 8.403870 8.021444
v -10.308434 8.570490 4.221390
v -11.040315 8.595360 -0.194700
v -10.032570 8.474700 -4.554525
v -7.438635 8.226885 -8.194321
v -3.653400 7.889610 -10.559999
v 0.746865 7.514265 -11.291355
v 5.092275 7.157955 -10.277101
v 8.721255 6.874950 -7.671600
v 11.081325 6.708330 -3.871545
v 11.813205 6.683460 0.544560
v 10.805460 6.804120 4.904370
v 8.211510 7.051950 8.544180
v 4.426275 7.389210 10.909845

vt 0.837382 0.199985
vt 0.745267 0.369523
vt 0.699522 0.313267
vt 0.836702 0.699190
vt 0.998639 0.738803
vt 0.973986 0.811998
vt 0.674765 0.239764
vt 0.998639 0.659577
vt 0.674765 0.160205
vt 0.973985 0.586382
vt 0.699522 0.086702
vt 0.928432 0.530361
vt 0.745267 0.030446
vt 0.868913 0.500043
vt 0.805036 0.000000
vt 0.804490 0.500043
vt 0.869729 0.000000
vt 0.744972 0.530362
vt 0.929498 0.030446
vt 0.699418 0.586383
vt 0.975243 0.086702
vt 0.674765 0.659578
vt 1.000000 0.160205
vt 0.674765 0.738804
vt 1.000000 0.239764
vt 0.699419 0.811999
vt 0.975243 0.313267
vt 0.744972 0.868020
vt 0.929498 0.369523
vt 0.804491 0.898338
vt 0.869729 0.399969
vt 0.868914 0.898338
vt 0.805035 0.399969
vt 0.928432 0.868019
vt 0.281404 0.743818
vt 0.277131 0.872720
vt 0.206976 0.873246
vt 0.208267 0.744037
vt 0.261056 0.999135
vt 0.201536 0.999313
vt 0.131042 0.873643
vt 0.129106 0.744335
vt 0.137114 0.999556
vt 0.060890 0.873852
vt 0.055972 0.744669
vt 0.077597 0.999828
vt 0.000000 0.255099
vt 0.007200 0.125929
vt 0.060880 0.126550
vt 0.055962 0.255417
vt 0.032050 0.000000
vt 0.077592 0.000258
vt 0.131026 0.127343
vt 0.129090 0.255750
vt 0.137105 0.000530
vt 0.206958 0.128187
vt 0.208251 0.256049
vt 0.201527 0.000773
vt 0.277118 0.128955
vt 0.281393 0.256268
vt 0.261052 0.000951
vt 0.674765 0.743628
vt 0.668206 0.870944
vt 0.614513 0.870572
vt 0.618792 0.743733
vt 0.643992 0.998964
vt 0.598441 0.999049
vt 0.544359 0.870465
vt 0.545658 0.743951
vt 0.538923 0.999227
vt 0.468425 0.870641
vt 0.466497 0.744250
vt 0.474501 0.999470
vt 0.398270 0.871072
vt 0.393360 0.744583
vt 0.414981 0.999742
vt 0.344575 0.871692
vt 0.337382 0.744900
vt 0.369426 1.000000
vt 0.618776 0.243775
vt 0.614499 0.370615
vt 0.544339 0.371297
vt 0.545633 0.243994
vt 0.598433 0.499092
vt 0.538909 0.499270
vt 0.468406 0.372142
vt 0.466472 0.244293
vt 0.474487 0.499513
vt 0.398260 0.373020
vt 0.393344 0.244626
vt 0.414974 0.499784
vt 0.369432 0.500043
vt 0.344581 0.373798
vt 0.337382 0.244943
vt 0.260197 0.500129
vt 0.276402 0.622472
vt 0.206314 0.622681
vt 0.200427 0.500307
vt 0.130454 0.622967
vt 0.135734 0.500551
vt 0.060370 0.623287
vt 0.075967 0.500824
vt 0.006732 0.623591
vt 0.030224 0.501083
vt 0.000000 0.744986
vt 0.075962 0.499262
vt 0.060361 0.376799
vt 0.130439 0.377119
vt 0.135724 0.499535
vt 0.206299 0.377405
vt 0.200417 0.499779
vt 0.276392 0.377614
vt 0.260192 0.499957
vt 0.330046 0.377715
vt 0.305948 0.500043
vt 0.337382 0.256372
vt 0.597582 0.500043
vt 0.613789 0.622386
vt 0.543704 0.622595
vt 0.537814 0.500221
vt 0.467844 0.622881
vt 0.473121 0.500465
vt 0.397757 0.623201
vt 0.413351 0.500738
vt 0.643330 0.000000
vt 0.667429 0.122328
vt 0.613775 0.122429
vt 0.597574 0.000086
vt 0.674765 0.243670
vt 0.543682 0.122638
vt 0.537800 0.000264
vt 0.467822 0.122924
vt 0.473107 0.000508
vt 0.397743 0.123244
vt 0.413344 0.000781
vt 0.330045 0.622371
vt 0.337382 0.743713

vn -0.083630 -0.996463 0.008247
vn 0.083630 0.996463 -0.008247
vn -0.219191 0.090597 0.971467
vn -0.199686 0.253036 0.946625
vn -0.572915 0.118850 0.810952
vn -0.544997 0.281087 0.789917
vn -0.838561 0.138793 0.526831
vn -0.804355 0.300558 0.512522
vn -0.975656 0.147389 0.162396
vn -0.938231 0.308482 0.156720
vn -0.963330 0.143329 -0.226831
vn -0.926252 0.303657 -0.223272
vn -0.803492 0.127237 -0.581559
vn -0.770280 0.286823 -0.569563
vn -0.520520 0.101565 -0.847787
vn -0.494117 0.260553 -0.829434
vn -0.157531 0.070227 -0.985014
vn -0.139845 0.228847 -0.963365
vn 0.230219 0.037992 -0.972397
vn 0.238607 0.196531 -0.951022
vn 0.583730 0.009761 -0.811889
vn 0.583655 0.168515 -0.794323
vn 0.849231 -0.010173 -0.527924
vn 0.842835 0.149057 -0.517118
vn 0.986331 -0.018775 -0.163701
vn 0.976719 0.141118 -0.161575
vn 0.974160 -0.014735 0.225379
vn 0.964927 0.145908 0.218237
vn 0.814533 0.001336 0.580115
vn 0.809213 0.162705 0.564536
vn 0.531708 0.026996 0.846497
vn 0.533226 0.188961 0.824599
vn 0.178946 0.220683 0.958789
vn 0.168711 0.058341 0.983937
vn -0.238245 -0.200444 0.950296
vn -0.230390 -0.042363 0.972176
vn -0.583303 -0.172781 0.793666
vn -0.583882 -0.014024 0.811717
vn -0.842451 -0.153325 0.516496
vn -0.849367 0.005909 0.527770
vn -0.976243 -0.145039 0.160975
vn -0.986428 0.014398 0.163561
vn -0.964307 -0.149183 -0.218763
vn -0.974200 0.010151 -0.225459
vn -0.808459 -0.165128 -0.564914
vn -0.814542 -0.006184 -0.580071
vn -0.532430 -0.190445 -0.824772
vn -0.531764 -0.032119 -0.846283
vn -0.178235 -0.221281 -0.958784
vn -0.168913 -0.063708 -0.983570
vn 0.200194 -0.252940 -0.946543
vn 0.218766 -0.096142 -0.971029
vn 0.545252 -0.280603 -0.789913
vn 0.572258 -0.124482 -0.810571
vn 0.804400 -0.300059 -0.512743
vn 0.837743 -0.144412 -0.526623
vn 0.938192 -0.308345 -0.157222
vn 0.974804 -0.152901 -0.162414
vn 0.926255 -0.304200 0.222516
vn 0.962575 -0.148655 0.226607
vn 0.770407 -0.288255 0.568666
vn 0.802918 -0.132321 0.581217
vn 0.494379 -0.262939 0.828525
vn 0.520140 -0.106385 0.847429
vn 0.157289 -0.074796 0.984716
vn 0.140183 -0.232103 0.962537

f 1/1/1 2/2/1 3/3/1
f 4/4/2 5/5/2 6/6/2
f 1/1/1 3/3/1 7/7/1
f 4/4/2 8/8/2 5/5/2
f 1/1/1 7/7/1 9/9/1
f 4/4/2 10/10/2 8/8/2
f 1/1/1 9/9/1 11/11/1
f 4/4/2 12/12/2 10/10/2
f 1/1/1 11/11/1 13/13/1
f 4/4/2 14/14/2 12/12/2
f 1/1/1 13/13/1 15/15/1
f 4/4/2 16/16/2 14/14/2
f 1/1/1 15/15/1 17/17/1
f 4/4/2 18/18/2 16/16/2
f 1/1/1 17/17/1 19/19/1
f 4/4/2 20/20/2 18/18/2
f 1/1/1 19/19/1 21/21/1
f 4/4/2 22/22/2 20/20/2
f 1/1/1 21/21/1 23/23/1
f 4/4/2 24/24/2 22/22/2
f 1/1/1 23/23/1 25/25/1
f 4/4/2 26/26/2 24/24/2
f 1/1/1 25/25/1 27/27/1
f 4/4/2 28/28/2 26/26/2
f 1/1/1 27/27/1 29/29/1
f 4/4/2 30/30/2 28/28/2
f 1/1/1 29/29/1 31/31/1
f 4/4/2 32/32/2 30/30/2
f 1/1/1 31/31/1 33/33/1
f 4/4/2 34/34/2 32/32/2
f 2/2/1 1/1/1 33/33/1
f 4/4/2 6/6/2 34/34/2
f 35/35/3 36/36/3 37/37/3 38/38/3
f 36/36/4 6/39/4 5/40/4 37/37/4
f 38/38/5 37/37/5 39/41/5 40/42/5
f 37/37/6 5/40/6 8/43/6 39/41/6
f 40/42/7 39/41/7 41/44/7 42/45/7
f 39/41/8 8/43/8 10/46/8 41/44/8
f 42/47/9 41/48/9 43/49/9 44/50/9
f 41/48/10 10/51/10 12/52/10 43/49/10
f 44/50/11 43/49/11 45/53/11 46/54/11
f 43/49/12 12/52/12 14/55/12 45/53/12
f 46/54/13 45/53/13 47/56/13 48/57/13
f 45/53/14 14/55/14 16/58/14 47/56/14
f 48/57/15 47/56/15 49/59/15 50/60/15
f 47/56/16 16/58/16 18/61/16 49/59/16
f 50/62/17 49/63/17 51/64/17 52/65/17
f 49/63/18 18/66/18 20/67/18 51/64/18
f 52/65/19 51/64/19 53/68/19 54/69/19
f 51/64/20 20/67/20 22/70/20 53/68/20
f 54/69/21 53/68/21 55/71/21 56/72/21
f 53/68/22 22/70/22 24/73/22 55/71/22
f 56/72/23 55/71/23 57/74/23 58/75/23
f 55/71/24 24/73/24 26/76/24 57/74/24
f 58/75/25 57/74/25 59/77/25 60/78/25
f 57/74/26 26/76/26 28/79/26 59/77/26
f 60/80/27 59/81/27 61/82/27 62/83/27
f 59/81/28 28/84/28 30/85/28 61/82/28
f 62/83/29 61/82/29 63/86/29 64/87/29
f 61/82/30 30/85/30 32/88/30 63/86/30
f 64/87/31 63/86/31 65/89/31 66/90/31
f 63/86/32 32/88/32 34/91/32 65/89/32
f 6/92/33 36/93/33 65/89/33 34/91/33
f 36/93/34 35/94/34 66/90/34 65/89/34
f 2/95/35 67/96/35 68/97/35 3/98/35
f 67/96/36 35/35/36 38/38/36 68/97/36
f 3/98/37 68/97/37 69/99/37 7/100/37
f 68/97/38 38/38/38 40/42/38 69/99/38
f 7/100/39 69/99/39 70/101/39 9/102/39
f 69/99/40 40/42/40 42/45/40 70/101/40
f 9/102/41 70/101/41 71/103/41 11/104/41
f 70/101/42 42/45/42 44/105/42 71/103/42
f 11/106/43 71/107/43 72/108/43 13/109/43
f 71/107/44 44/50/44 46/54/44 72/108/44
f 13/109/45 72/108/45 73/110/45 15/111/45
f 72/108/46 46/54/46 48/57/46 73/110/46
f 15/111/47 73/110/47 74/112/47 17/113/47
f 73/110/48 48/57/48 50/60/48 74/112/48
f 17/113/49 74/112/49 75/114/49 19/115/49
f 74/112/50 50/60/50 52/116/50 75/114/50
f 19/117/51 75/118/51 76/119/51 21/120/51
f 75/118/52 52/65/52 54/69/52 76/119/52
f 21/120/53 76/119/53 77/121/53 23/122/53
f 76/119/54 54/69/54 56/72/54 77/121/54
f 23/122/55 77/121/55 78/123/55 25/124/55
f 77/121/56 56/72/56 58/75/56 78/123/56
f 25/125/57 78/126/57 79/127/57 27/128/57
f 78/126/58 58/129/58 60/80/58 79/127/58
f 27/128/59 79/127/59 80/130/59 29/131/59
f 79/127/60 60/80/60 62/83/60 80/130/60
f 29/131/61 80/130/61 81/132/61 31/133/61
f 80/130/62 62/83/62 64/87/62 81/132/62
f 31/133/63 81/132/63 82/134/63 33/135/63
f 81/132/64 64/87/64 66/90/64 82/134/64
f 35/35/65 67/96/65 82/136/65 66/137/65
f 67/96/66 2/95/66 33/115/66 82/136/66

