mtllib collide_Generator.mtl

o Cube_collide_Generator
usemtl (null)
s off

v 355.232422 -63.703773 -13.580204
v 355.232422 -63.703732 -144.702606
v 355.232300 46.949169 -144.702606
v 355.232422 46.949169 -13.580204
v 140.555786 48.899166 -144.702606
v 140.555832 48.899166 -13.580204
v 140.555832 -65.313461 -13.580161
v 140.555832 -65.313461 -144.702606
v 138.536163 62.728840 -13.580204
v 138.536118 62.728886 -144.702606
v -5.520384 62.728798 -144.702606
v -5.520342 62.728840 -13.580204
v -5.520342 -77.798286 -144.702606
v -5.520342 -77.798325 -13.580161
v 138.536209 -77.798241 -144.702606
v 138.536163 -77.798286 -13.580161

vt 0.000000 0.000000

vn 1.000000 0.000000 0.000001
vn 0.009083 0.000000 0.999959
vn 0.007498 0.000000 -0.999972
vn 0.000000 0.000000 1.000000
vn -1.000000 0.000000 0.000000
vn 0.000000 0.000000 -1.000000
vn 0.989504 0.000000 0.144506
vn 0.987167 0.000000 -0.159694

f 1/1/1 2/1/1 3/1/1 4/1/1
f 4/1/2 3/1/2 5/1/2 6/1/2
f 2/1/3 1/1/3 7/1/3 8/1/3
f 9/1/4 10/1/4 11/1/4 12/1/4
f 12/1/5 11/1/5 13/1/5 14/1/5
f 15/1/6 16/1/6 14/1/6 13/1/6
f 5/1/7 10/1/7 9/1/7 6/1/7
f 15/1/8 8/1/8 7/1/8 16/1/8

