mtllib DoorSide2F8.mtl

o DoorSide2F8_Cube.428
usemtl None_DoorSide2.png
s off

v -64.805130 53.011585 -82.255966
v -74.663048 53.011585 -26.348930
v -87.132935 53.011585 -28.547672
v -77.275017 53.011585 -84.454750
v -64.805130 81.586685 -82.255966
v -77.275063 81.586685 -84.454750
v -87.132935 81.586685 -28.547714
v -74.663048 81.586685 -26.348888
v -64.699997 188.519302 -82.852234
v -78.911072 188.519302 -2.256982
v -91.381004 188.519302 -4.455766
v -77.169884 188.519302 -85.051018
v -64.699997 217.094406 -82.852234
v -77.169884 217.094406 -85.051018
v -91.381004 217.094406 -4.455809
v -78.911110 217.094406 -2.256982
v -87.697166 220.575684 4.219990
v -87.697166 220.575684 -4.837206
v -107.383568 206.648254 -4.837206
v -107.383568 206.648254 4.219990
v -87.697166 93.450371 4.219990
v -107.383568 94.810814 4.219990
v -107.383568 94.810814 -4.837206
v -87.697166 93.450371 -4.837206
v -79.910156 234.705795 -6.454529
v -88.829750 234.705795 -8.027308
v -90.335838 221.744965 0.514347
v -81.416283 221.744965 2.087126
v -79.935493 88.797890 -6.310699
v -81.416283 99.539780 2.087126
v -90.335838 99.539780 0.514347
v -88.855095 88.797890 -7.883479
v -75.815773 249.086975 -29.675013
v -84.735374 249.086975 -31.247791
v -88.780724 235.503937 -8.305408
v -79.861130 235.503937 -6.732673
v -72.501511 260.989960 -50.571823
v -81.421104 260.989960 -52.144604
v -85.244812 251.717056 -30.459394
v -76.325218 251.717056 -28.886618
v -72.501511 -2.481664 -50.571823
v -76.325218 -2.481664 -28.886618
v -85.244812 -2.481664 -30.459394
v -81.421104 -2.481664 -52.144604
v -68.129333 265.321472 -71.360817
v -77.048927 265.321472 -72.933594
v -80.942436 263.357635 -50.852272
v -72.022835 263.357635 -49.279495
v -68.129333 -2.481664 -71.360817
v -72.022835 -2.481664 -49.279495
v -80.942436 -2.481664 -50.852272
v -77.048882 -2.481664 -72.933594
v -66.670128 265.357178 -82.081978
v -75.506783 265.357178 -83.640076
v -77.358772 265.485260 -73.136902
v -68.522163 265.485260 -71.578804
v -66.604675 -2.481664 -81.968094
v -68.439178 -2.481664 -71.564163
v -77.358772 -2.481664 -73.136902
v -75.524277 -2.481664 -83.540833
v -79.861130 96.339775 -6.732673
v -88.780724 96.339775 -8.305408
v -75.682182 57.163265 -30.432558
v -77.012871 69.638275 -22.885805
v -77.012871 -2.481664 -22.885805
v -75.640671 -2.481664 -30.667994
v -85.932465 69.638275 -24.458542
v -84.601784 57.163265 -32.005337
v -84.560265 -2.481664 -32.240772
v -85.932465 -2.481664 -24.458586

vt 0.725336 0.375833
vt 0.637569 0.376039
vt 0.637142 0.269402
vt 0.724909 0.269196
vt 0.204058 0.570881
vt 0.204485 0.677518
vt 0.116747 0.677724
vt 0.116320 0.571088
vt 0.724909 0.482882
vt 0.725336 0.589519
vt 0.637569 0.589725
vt 0.637142 0.483088
vt 0.778455 0.581697
vt 0.917555 0.581371
vt 0.917983 0.688007
vt 0.778882 0.688334
vt 0.724909 0.376039
vt 0.725336 0.482676
vt 0.637569 0.482882
vt 0.637142 0.376245
vt 0.917646 0.581371
vt 0.778455 0.581043
vt 0.778882 0.474407
vt 0.918073 0.474734
vt 0.969660 0.474109
vt 0.843136 0.474407
vt 0.842709 0.367770
vt 0.969233 0.367472
vt 0.969191 0.260539
vt 0.969618 0.367175
vt 0.843136 0.367472
vt 0.842709 0.260836
vt 0.969233 0.106934
vt 0.969660 0.213571
vt 0.843136 0.213868
vt 0.842709 0.107232
vt 0.204485 0.611980
vt 0.343585 0.611653
vt 0.344012 0.718290
vt 0.204912 0.718617
vt 0.842709 0.106637
vt 0.843136 0.000000
vt 0.969660 0.000297
vt 0.344103 0.611326
vt 0.204912 0.611653
vt 0.204485 0.505016
vt 0.343676 0.504689
vt 0.706344 0.589887
vt 0.706038 0.666163
vt 0.637142 0.666001
vt 0.637448 0.589725
vt 0.778455 0.474407
vt 0.780355 0.000000
vt 0.810582 0.052046
vt 0.808911 0.469401
vt 0.841038 0.005005
vt 0.842709 0.422361
vt 0.812482 0.474407
vt 0.810582 0.000000
vt 0.407528 0.000234
vt 0.405629 0.474641
vt 0.306067 0.474407
vt 0.307967 0.000000
vt 0.206505 0.000000
vt 0.306067 0.000234
vt 0.305872 0.048941
vt 0.206310 0.048707
vt 0.969660 0.651434
vt 0.971614 0.106934
vt 0.984830 0.155333
vt 0.983004 0.611379
vt 0.204485 0.504455
vt 0.304047 0.504689
vt 0.998174 0.146990
vt 1.000000 0.603036
vt 0.986785 0.651434
vt 0.984830 0.106934
vt 0.104923 0.000000
vt 0.204485 0.000234
vt 0.204278 0.051886
vt 0.104716 0.051652
vt 0.407528 0.474750
vt 0.407223 0.551026
vt 0.360855 0.550917
vt 0.361160 0.474641
vt 0.484862 0.983224
vt 0.488799 0.000000
vt 0.522703 0.034685
vt 0.518904 0.983304
vt 0.556746 0.000000
vt 0.560544 0.948620
vt 0.526640 0.983304
vt 0.522703 0.000080
vt 0.407528 0.627302
vt 0.372631 0.627384
vt 0.372326 0.551108
vt 0.480860 0.000000
vt 0.484862 0.999389
vt 0.450168 0.992141
vt 0.446195 0.000081
vt 0.407528 0.999307
vt 0.411501 0.007247
vt 0.446195 0.000000
vt 0.442193 0.999389
vt 0.372023 0.551026
vt 0.372326 0.626592
vt 0.355858 0.626631
vt 0.355556 0.551064
vt 0.737781 0.999962
vt 0.741628 0.000439
vt 0.758118 0.000000
vt 0.754114 1.000000
vt 0.774451 0.000000
vt 0.778455 1.000000
vt 0.761965 0.999561
vt 0.758118 0.000038
vt 0.102638 0.000232
vt 0.099562 0.999756
vt 0.000000 0.999522
vt 0.004003 0.000000
vt 0.102638 0.570647
vt 0.202200 0.570881
vt 0.635464 0.222584
vt 0.623803 0.269166
vt 0.622725 0.000029
vt 0.634942 0.000000
vt 0.637142 0.938808
vt 0.585504 0.669642
vt 0.597165 0.716225
vt 0.596643 0.938808
vt 0.584426 0.938780
vt 0.598843 0.000000
vt 0.637142 0.268962
vt 0.638219 0.000000
vt 0.737781 0.000234
vt 0.736704 0.269196
vt 0.600923 0.888204
vt 0.598844 0.368870
vt 0.560545 0.569938
vt 0.562624 0.050605

vn 0.000000 -1.000000 0.000000
vn 0.000000 1.000000 0.000000
vn 0.984808 0.000000 0.173648
vn -0.173649 0.000000 0.984808
vn -0.984808 0.000000 -0.173648
vn 0.173649 0.000000 -0.984807
vn -0.426578 0.904451 0.000000
vn 0.000000 0.000000 1.000000
vn 0.000000 0.000000 -1.000000
vn 1.000000 0.000000 0.000000
vn -0.122554 0.708448 0.695041
vn -0.062913 0.932063 0.356793
vn -0.046936 0.962778 0.266188
vn -0.010123 0.998300 0.057407
vn 0.001390 0.999968 -0.007881
vn 0.984808 0.000472 0.173646
vn 0.173646 -0.000564 -0.984808

f 1/1/1 2/2/1 3/3/1 4/4/1
f 5/5/2 6/6/2 7/7/2 8/8/2
f 1/9/3 5/10/3 8/11/3 2/12/3
f 2/13/4 8/14/4 7/15/4 3/16/4
f 3/17/5 7/18/5 6/19/5 4/20/5
f 5/21/6 1/22/6 4/23/6 6/24/6
f 9/25/1 10/26/1 11/27/1 12/28/1
f 13/29/2 14/30/2 15/31/2 16/32/2
f 9/33/3 13/34/3 16/35/3 10/36/3
f 10/37/4 16/38/4 15/39/4 11/40/4
f 11/41/5 15/42/5 14/43/5 12/33/5
f 13/44/6 9/45/6 12/46/6 14/47/6
f 17/48/7 18/49/7 19/50/7 20/51/7
f 21/52/8 17/53/8 20/54/8 22/55/8
f 23/56/9 19/57/9 18/58/9 24/59/9
f 17/60/10 21/61/10 24/62/10 18/63/10
f 25/64/11 26/65/11 27/66/11 28/67/11
f 29/68/3 25/69/3 28/70/3 30/71/3
f 30/72/4 28/67/4 27/66/4 31/73/4
f 31/74/5 27/75/5 26/76/5 32/77/5
f 33/78/12 34/79/12 35/80/12 36/81/12
f 37/82/13 38/83/13 39/84/13 40/85/13
f 41/86/3 37/87/3 40/88/3 42/89/3
f 43/90/5 39/91/5 38/92/5 44/93/5
f 45/83/14 46/94/14 47/95/14 48/96/14
f 49/97/3 45/98/3 48/99/3 50/100/3
f 51/101/5 47/102/5 46/103/5 52/104/5
f 53/105/15 54/106/15 55/107/15 56/108/15
f 57/109/16 53/110/16 56/111/16 58/112/16
f 59/113/5 55/114/5 54/115/5 60/116/5
f 53/117/17 57/118/17 60/119/17 54/120/17
f 61/121/4 36/81/4 35/80/4 62/122/4
f 63/123/3 64/124/3 65/125/3 66/126/3
f 64/124/3 63/123/3 33/127/3
f 67/128/5 68/129/5 69/130/5 70/131/5
f 68/129/5 67/128/5 34/132/5
f 65/133/4 64/134/4 67/135/4 70/136/4
f 33/127/3 36/137/3 61/138/3 64/124/3
f 34/132/5 67/128/5 62/139/5 35/140/5

