mtllib DoorMessage2.mtl

o DoorMessage2_Plane.005
usemtl None_DoorSide1.png
s off

v -1.485867 54.128384 -7.618006
v -61.265415 54.128384 -7.618006
v -61.265415 80.512131 -7.618049
v -1.485867 80.512131 -7.618049
v -1.485867 54.128384 6.617132
v -1.485867 80.512131 6.617132
v -61.265415 80.512131 6.617132
v -61.265415 54.128384 6.617132
v -2.052651 189.648514 -7.618049
v -77.998772 189.648514 -7.618049
v -77.998817 216.032196 -7.618049
v -2.052651 216.032196 -7.618049
v -2.052651 189.648514 6.617132
v -2.052651 216.032196 6.617132
v -77.998817 216.032196 6.617132
v -77.998772 189.648514 6.617132

vt 0.000000 0.000000
vt 0.787131 0.000000
vt 0.787131 1.000000
vt 0.000000 1.000000
vt 1.000000 0.000000
vt 1.000000 1.000000
vt 0.212869 1.000000
vt 0.212869 0.000000

vn 0.000000 0.000000 -1.000000
vn 0.000000 0.000000 1.000000

f 1/1/1 2/2/1 3/3/1 4/4/1
f 5/5/2 6/6/2 7/7/2 8/8/2
f 9/1/1 10/5/1 11/6/1 12/4/1
f 13/5/2 14/6/2 15/4/2 16/1/2

