# Max2Obj Version 4.0 Mar 10th, 2001
#
mtllib ./nec_cast_06.mtl
g
# object (null) to come ...
#
v  -36.014244 21.735092 -14.876111
v  -35.383129 22.067093 -15.843547
v  -34.946083 21.231186 -15.098759
v  -10.933143 60.949562 13.448459
v  -11.564247 60.617577 14.415907
v  -10.496097 60.113655 14.193249
v  -6.841743 67.756805 17.669456
v  -8.135529 67.076202 19.652697
v  -5.945801 66.043198 19.196272
# 9 vertices

vt  0.979994 0.135709 0.256341
vt  0.980124 0.135089 0.500000
vt  0.976728 0.038107 0.743659
vt  0.515619 0.131012 0.500000
vt  0.515723 0.131867 0.256341
vt  0.517900 0.037781 0.743659
vt  0.978571 0.133971 0.500000
vt  0.976453 0.040746 0.000499
vt  0.976452 0.040746 0.999501
# 9 texture vertices

vn  -0.448796 -0.713752 -0.537717
vn  -0.448796 -0.713752 -0.537717
vn  -0.448796 -0.713752 -0.537717
vn  0.075139 0.531501 -0.843719
vn  -0.833917 0.053729 0.549267
vn  0.704130 -0.672136 0.228981
vn  0.854088 0.391094 -1.458586
vn  -1.592755 0.638691 0.255127
vn  0.574658 -1.290613 1.006966
# 9 vertex normals

g (null)
usemtl MS000
s 1
f 1/1/1 2/2/2 3/3/3
s 8
f 2/2/2 5/5/5 4/4/4
f 2/2/2 1/1/1 5/5/5
f 1/1/1 6/6/6 5/5/5
f 1/1/1 3/3/3 6/6/6
f 3/3/3 4/4/4 6/6/6
f 3/3/3 2/2/2 4/4/4
f 4/4/4 8/8/8 7/7/7
f 4/4/4 5/5/5 8/8/8
f 5/5/5 9/9/9 8/8/8
f 5/5/5 6/6/6 9/9/9
f 6/6/6 7/7/7 9/9/9
f 6/6/6 4/4/4 7/7/7
s 1
f 8/8/8 9/9/9 7/7/7
# 14 faces

g
# object (null) to come ...
#
v  -2.849749 31.242975 5.068352
v  1.151640 30.687840 -2.366340
v  0.805914 44.414970 -2.134686
v  -1.871449 43.553215 3.852228
v  -3.103046 18.930302 4.933052
v  0.178150 18.244724 -3.211975
v  -5.839071 5.881059 2.241464
v  1.144575 5.261278 -2.624516
v  -2.863541 57.940605 -0.469558
v  -3.462107 56.742180 5.098394
v  -1.727625 58.590469 5.351515
v  -3.342325 52.960396 5.115960
v  -0.675451 62.309444 7.018197
v  -1.395952 55.516529 6.082143
v  0.168859 64.310165 8.403164
v  -3.639936 67.473328 1.566279
v  -1.470634 67.152016 5.388680
v  -0.911520 65.079117 6.470055
v  2.937208 32.072693 5.968914
v  6.493749 32.446724 2.273646
v  5.297766 31.785400 -1.200684
v  2.864521 43.932819 3.560744
v  1.159269 43.796421 4.029772
v  3.162239 44.412441 0.112388
v  9.480376 19.865480 3.348415
v  6.134174 19.630816 7.674514
v  7.940886 19.131527 -0.274718
v  12.530496 6.886149 5.067621
v  9.136730 6.537812 8.678242
v  10.882532 6.181497 1.839961
v  2.730299 58.114090 5.987226
v  2.621933 54.624763 4.343384
v  3.264923 56.719917 1.470129
v  0.313086 58.587711 2.735840
v  1.452356 55.423840 6.075036
v  1.086699 63.448181 4.742261
v  -0.721903 58.576160 6.457709
v  -0.050323 63.363518 4.333045
v  -0.555246 53.723560 6.687505
v  -0.629551 59.791687 2.858856
v  7.929466 6.316787 4.989882
v  10.588823 6.900862 5.150034
v  9.145829 6.743871 6.483418
v  -0.809998 63.491699 3.117054
v  -1.562944 65.752876 4.125966
v  1.201237 59.697632 2.270013
v  -6.950188 32.007664 1.102545
v  -5.781168 32.615826 -3.865873
v  -2.241955 31.901648 -4.803242
v  -4.746513 43.702057 -0.244646
v  -4.000931 43.718578 1.399957
v  -2.313185 44.111126 -2.710323
v  -8.520569 20.263651 -6.585736
v  -10.443716 19.711874 -1.490053
v  -4.641497 19.526760 -7.231503
v  -11.418737 7.455822 -9.227883
v  -12.635839 6.788639 -4.426072
v  -7.806612 6.761889 -9.547635
v  -8.530411 57.042328 0.067385
v  -6.883038 53.636074 0.086705
v  -5.531700 55.842972 -2.497803
v  -6.297880 58.135555 3.073492
v  -7.626863 54.611389 1.902928
v  -3.481781 63.574043 7.345559
v  -2.631140 58.628761 7.545666
v  -3.258533 63.451897 6.161206
v  -6.442358 53.137341 4.031615
v  -4.379755 59.894997 4.995866
v  -8.968412 6.575190 -5.391388
v  -10.484287 7.328473 -7.530000
v  -10.876057 7.021838 -5.622756
v  -3.912151 63.577156 4.884780
v  -2.567518 65.780563 4.698409
v  -5.821644 59.891079 6.271921
v  10.698606 51.046410 5.606261
v  11.513427 53.492668 4.337653
v  11.975515 53.555332 6.617403
v  10.393337 51.394539 7.676618
v  19.996243 42.250229 13.014402
v  21.008617 43.183445 13.695277
v  12.549471 46.720310 12.911478
v  13.785472 51.952282 5.160295
v  13.468472 46.203018 12.207422
v  14.137216 46.807659 12.526211
v  -11.949080 47.953182 -4.710220
v  -10.872784 49.533028 -6.840510
v  -13.111498 50.073483 -6.457665
v  -13.567152 49.029976 -3.819698
v  -23.838675 43.291134 2.076522
v  -25.025175 43.951313 1.358315
v  -17.365572 48.998558 1.338873
v  -13.454447 47.268097 -7.569595
v  -17.804075 47.845314 1.044753
v  -18.532644 48.186646 0.527686
v  9.360502 -0.024636 3.678092
v  11.922567 0.465548 3.833675
v  8.337786 0.497159 11.520902
v  11.401066 1.083363 11.710280
v  -9.169401 0.321574 -8.084087
v  -10.559830 1.312011 -10.062568
v  -15.247808 0.974650 -2.997071
v  -16.898420 2.155707 -5.372732
v  13.002596 44.905258 15.083577
v  11.211987 44.320869 15.829811
v  12.627423 44.313099 14.714281
v  14.670375 41.351936 15.558821
v  13.118134 41.331448 16.707039
v  14.916445 43.818939 14.011742
v  15.238017 44.596554 14.557957
v  -18.987730 49.082050 3.820037
v  -17.928091 49.868629 5.355238
v  -18.499269 48.598370 4.213464
v  -20.806463 46.401600 6.091341
v  -20.136854 47.728283 7.324108
v  -20.051607 46.935474 3.323665
v  -20.584959 47.676414 2.908066
# 116 vertices

vt  0.993503 0.197633 0.840089
vt  0.989475 0.443575 0.283066
vt  0.710817 0.717774 0.405154
vt  0.949589 0.383317 0.779753
vt  0.675590 0.693999 0.000500
vt  0.688043 0.885850 0.313796
vt  0.993503 0.197633 0.840089
vt  0.989475 0.443575 0.283066
vt  0.949589 0.383317 0.779753
vt  0.255198 0.653273 0.498357
vt  0.313049 0.448147 0.029964
vt  0.288416 0.651491 0.280384
vt  0.248985 0.448033 0.795812
vt  0.181724 0.653274 0.730622
vt  0.181724 0.447474 0.931001
vt  0.315847 0.234385 0.024067
vt  0.250419 0.234280 0.853150
vt  0.181724 0.233767 0.999501
vt  0.321530 0.013325 0.061930
vt  0.253330 0.013197 0.758354
vt  0.181724 0.012570 0.910898
vt  0.296100 0.821372 0.006686
vt  0.289862 0.844668 0.326705
vt  0.308101 0.883072 0.006647
vt  0.181736 0.877015 0.479737
vt  0.251012 0.826379 0.676556
vt  0.181724 0.817620 0.648524
vt  0.252623 0.896641 0.000500
vt  0.108250 0.653273 0.498356
vt  0.075032 0.651491 0.280383
vt  0.050399 0.448147 0.029963
vt  0.114463 0.448033 0.795811
vt  0.047601 0.234385 0.024066
vt  0.113029 0.234280 0.853150
vt  0.041917 0.013325 0.061930
vt  0.110117 0.013197 0.758354
vt  0.073586 0.844667 0.326704
vt  0.067348 0.821372 0.006677
vt  0.055346 0.883072 0.006681
vt  0.112436 0.826379 0.676556
vt  0.110825 0.896642 0.000499
vt  0.619089 0.674886 0.423991
vt  0.650112 0.674872 0.999500
vt  0.673768 0.467738 0.757662
vt  0.547647 0.674900 0.272809
vt  0.547646 0.467543 0.063509
vt  0.636227 0.467836 0.180471
vt  0.547646 0.249811 0.000500
vt  0.638115 0.250080 0.127118
vt  0.676455 0.249992 0.751968
vt  0.547647 0.024592 0.103138
vt  0.641949 0.024922 0.235122
vt  0.681914 0.024812 0.788533
vt  0.547646 0.906952 0.142452
vt  0.615737 0.924592 0.729208
vt  0.669016 0.910770 0.735145
vt  0.647074 0.871650 0.172648
vt  0.657491 0.847920 0.735182
vt  0.476204 0.674886 0.423990
vt  0.421525 0.467739 0.757662
vt  0.445181 0.674872 0.999499
vt  0.459066 0.467836 0.180471
vt  0.457178 0.250080 0.127118
vt  0.418838 0.249992 0.751967
vt  0.453344 0.024922 0.235122
vt  0.413379 0.024812 0.788533
vt  0.426276 0.910770 0.735177
vt  0.479556 0.924592 0.729208
vt  0.448218 0.871650 0.172648
vt  0.437802 0.847920 0.735173
vt  0.852589 0.264223 0.764567
vt  0.851040 0.177059 0.999500
vt  0.920969 0.199995 0.405154
vt  0.853008 0.000911 0.840064
vt  0.915180 0.070560 0.779753
vt  0.970085 0.109155 0.054224
vt  0.969864 0.199995 0.000500
vt  0.883856 0.263894 0.086325
vt  0.781111 0.199995 0.405153
vt  0.796334 0.070561 0.779753
vt  0.736643 0.109156 0.054223
vt  0.732216 0.199995 0.000500
vt  0.821323 0.263895 0.086325
vt  0.859243 0.472682 0.500000
vt  0.852089 0.271074 0.500000
vt  0.972092 0.439592 0.500000
vt  0.918665 0.512427 0.500000
vt  0.934048 0.278250 0.499928
vt  0.915117 0.336445 0.999501
vt  0.936453 0.414789 0.824932
vt  0.896846 0.303488 0.909949
vt  0.844931 0.472491 0.500000
vt  0.767720 0.414597 0.175068
vt  0.789057 0.336254 0.000499
vt  0.852085 0.270882 0.500000
vt  0.807328 0.303297 0.090051
vt  0.732082 0.439401 0.500000
vt  0.785509 0.512236 0.500000
vt  0.770126 0.278059 0.499928
vt  0.418750 0.909681 0.118342
vt  0.397564 0.961508 0.469840
vt  0.384908 0.959055 0.000500
vt  0.367727 0.966401 0.061578
vt  0.358131 0.982937 0.544251
vt  0.357206 0.988740 0.999500
vt  0.390501 0.909868 0.038732
vt  0.358131 0.868061 0.361054
vt  0.297512 0.909681 0.118342
vt  0.331354 0.959055 0.000500
vt  0.318697 0.961508 0.469839
vt  0.350385 0.966401 0.061577
vt  0.325761 0.909868 0.038732
vt  0.833406 0.930995 0.764844
vt  0.727494 0.949841 0.378138
vt  0.835829 0.903298 0.362310
vt  0.825114 0.948456 0.362308
vt  0.973351 0.987493 0.501947
vt  0.923200 0.919169 0.447606
vt  0.922975 0.901128 0.351158
vt  0.739549 0.883657 0.001219
vt  0.736434 0.898569 0.378130
vt  0.838064 0.876672 0.000500
vt  0.731306 0.848146 0.378138
vt  0.839641 0.894689 0.362310
vt  0.828926 0.849531 0.362308
vt  0.975384 0.816480 0.121256
vt  0.977163 0.810494 0.501947
vt  0.849600 0.847722 0.362308
vt  0.738996 0.901968 0.378130
vt  0.833406 0.930995 0.764844
vt  0.741377 0.914824 0.999501
vt  0.727494 0.949841 0.378138
vt  0.835829 0.903298 0.362310
vt  0.825114 0.948456 0.362308
vt  0.973351 0.987493 0.501947
vt  0.923200 0.919169 0.447606
vt  0.922975 0.901128 0.351158
vt  0.845788 0.950265 0.362308
vt  0.838064 0.876672 0.000500
vt  0.839641 0.894689 0.362310
vt  0.975384 0.816480 0.121256
vt  0.926787 0.896859 0.351158
vt  0.926930 0.883653 0.219956
vt  0.735815 0.722811 0.378130
vt  0.831500 0.753751 0.764844
vt  0.739471 0.737580 0.999501
vt  0.725589 0.772597 0.378138
vt  0.833923 0.726054 0.362310
vt  0.823208 0.771212 0.362308
vt  0.969533 0.805787 0.501947
vt  0.921294 0.741925 0.447606
vt  0.921069 0.723884 0.351158
vt  0.843883 0.773021 0.362308
vt  0.737643 0.706412 0.001219
vt  0.735802 0.716863 0.378130
vt  0.836158 0.699428 0.000500
vt  0.729400 0.670902 0.378138
vt  0.837735 0.717445 0.362310
vt  0.827020 0.672287 0.362308
vt  0.973478 0.639236 0.121256
vt  0.975257 0.633250 0.501947
vt  0.924881 0.719615 0.351158
vt  0.925024 0.706409 0.219956
vt  0.847694 0.670478 0.362308
vt  0.951071 0.553393 0.102493
vt  0.905096 0.512904 0.085214
vt  0.923913 0.550849 0.999483
vt  0.904288 0.535719 0.999483
vt  0.923018 0.586709 0.116935
vt  0.904289 0.562697 0.999482
vt  0.884624 0.550849 0.999483
vt  0.856825 0.504034 0.000499
vt  0.856826 0.594655 0.073252
vt  0.762580 0.553393 0.102509
vt  0.789738 0.550849 0.999500
vt  0.808555 0.512904 0.085247
vt  0.809363 0.535719 0.999500
vt  0.790633 0.586709 0.116952
vt  0.809362 0.562697 0.999499
vt  0.829027 0.550849 0.999500
vt  0.018949 0.983913 0.000499
vt  0.018295 0.929160 0.999500
vt  0.042821 0.983913 0.238664
vt  0.073049 0.929160 0.999500
vt  0.066743 0.983913 0.000500
vt  0.071997 0.983917 0.000519
vt  0.078339 0.929330 0.999512
vt  0.115802 0.984256 0.569397
vt  0.147919 0.984884 0.245998
vt  0.148601 0.927410 0.000500
vt  0.122254 0.984249 0.105326
vt  0.088058 0.928678 0.000499
vt  0.153510 0.985267 0.245998
vt  0.152654 0.927221 0.000500
vt  0.181941 0.927855 0.999501
vt  0.219354 0.928607 0.347778
vt  0.189653 0.928607 0.000488
vt  0.188575 0.979237 0.999512
vt  0.213414 0.979237 0.652100
vt  0.018949 0.983913 0.000499
vt  0.018295 0.929160 0.999500
vt  0.042821 0.983913 0.238664
vt  0.073049 0.929160 0.999500
vt  0.066743 0.983913 0.000500
vt  0.071997 0.983917 0.000519
vt  0.078339 0.929330 0.999512
vt  0.115802 0.984256 0.569397
vt  0.147919 0.984884 0.245998
vt  0.148601 0.927410 0.000500
vt  0.122254 0.984249 0.105326
vt  0.088058 0.928678 0.000499
vt  0.153510 0.985267 0.245998
vt  0.152654 0.927221 0.000500
vt  0.181941 0.927855 0.999501
vt  0.219354 0.928607 0.347778
vt  0.189653 0.928607 0.000488
vt  0.188575 0.979237 0.999512
vt  0.213414 0.979237 0.652100
vt  0.033922 0.556543 0.000500
vt  0.024166 0.453938 0.929367
vt  0.053023 0.549939 0.085203
vt  0.035783 0.451579 0.999501
vt  0.467444 0.990424 0.000499
vt  0.466790 0.935671 0.999500
vt  0.491316 0.990424 0.238664
vt  0.521543 0.935671 0.999500
vt  0.515237 0.990424 0.000500
vt  0.520491 0.990428 0.000519
vt  0.526834 0.935841 0.999512
vt  0.564297 0.990767 0.569397
vt  0.596413 0.991395 0.245998
vt  0.597096 0.933921 0.000500
vt  0.570748 0.990760 0.105326
vt  0.536552 0.935189 0.000499
vt  0.602004 0.991778 0.245998
vt  0.601149 0.933732 0.000500
vt  0.630436 0.934366 0.999501
vt  0.667848 0.935118 0.347778
vt  0.638148 0.935118 0.000488
vt  0.637069 0.985748 0.999512
vt  0.661908 0.985748 0.652100
vt  0.011295 0.261397 0.000499
vt  0.022029 0.264558 0.085203
vt  0.022523 0.362545 0.929367
vt  0.028790 0.362860 0.999501
vt  0.356216 0.344346 0.352924
vt  0.322584 0.337812 0.747958
vt  0.358501 0.386167 0.298027
vt  0.360712 0.294143 0.999500
vt  0.397933 0.303859 0.994193
vt  0.404121 0.354888 0.200947
vt  0.356216 0.344346 0.352924
vt  0.402135 0.386784 0.000499
vt  0.404121 0.354888 0.200947
vt  0.356216 0.344346 0.352924
vt  0.358501 0.386167 0.298027
vt  0.402135 0.386784 0.000499
vt  0.347602 0.332184 0.352924
vt  0.322584 0.337812 0.747958
vt  0.356216 0.344346 0.767832
vt  0.360712 0.294143 0.999500
vt  0.409112 0.382250 0.751654
vt  0.402135 0.386784 0.000499
vt  0.415699 0.352825 0.726506
vt  0.397933 0.303859 0.994193
vt  0.415699 0.352825 0.726506
vt  0.404121 0.354888 0.200947
vt  0.402135 0.386784 0.000499
vt  0.415699 0.352825 0.726506
vt  0.404121 0.354888 0.200947
vt  0.348603 0.432015 0.767832
vt  0.352524 0.390653 0.298027
vt  0.395527 0.391267 0.751654
vt  0.399295 0.421044 0.726506
vt  0.316867 0.438276 0.747958
vt  0.348603 0.432015 0.767832
vt  0.352524 0.390653 0.298027
vt  0.354995 0.481946 0.999500
vt  0.392216 0.472230 0.994193
vt  0.399295 0.421044 0.726506
vt  0.352628 0.568026 0.352924
vt  0.318996 0.561492 0.747958
vt  0.354912 0.609847 0.298027
vt  0.357124 0.517823 0.999500
vt  0.394344 0.527539 0.994193
vt  0.400533 0.578568 0.200947
vt  0.352628 0.568026 0.352924
vt  0.398546 0.610464 0.000499
vt  0.400533 0.578568 0.200947
vt  0.352628 0.568026 0.352924
vt  0.354912 0.609847 0.298027
vt  0.398546 0.610464 0.000499
vt  0.344013 0.555864 0.352924
vt  0.318996 0.561492 0.747958
vt  0.352628 0.568026 0.767832
vt  0.357124 0.517823 0.999500
vt  0.405524 0.605930 0.751654
vt  0.398546 0.610464 0.000499
vt  0.412110 0.576505 0.726506
vt  0.394344 0.527539 0.994193
vt  0.412110 0.576505 0.726506
vt  0.400533 0.578568 0.200947
vt  0.398546 0.610464 0.000499
vt  0.412110 0.576505 0.726506
vt  0.400533 0.578568 0.200947
vt  0.345014 0.655695 0.767832
vt  0.348936 0.614333 0.298027
vt  0.391939 0.614946 0.751654
vt  0.395706 0.644724 0.726506
vt  0.313278 0.661956 0.747958
vt  0.345014 0.655695 0.767832
vt  0.348936 0.614333 0.298027
vt  0.351406 0.705625 0.999500
vt  0.388627 0.695910 0.994193
vt  0.395706 0.644724 0.726506
vt  0.952437 0.607576 0.054224
vt  0.837978 0.648536 0.539907
vt  0.835748 0.637851 0.507125
vt  0.718995 0.607575 0.054223
vt  0.790451 0.040011 0.539907
vt  0.796334 0.070561 0.779753
vt  0.736643 0.109156 0.054223
vt  0.915180 0.070560 0.779753
vt  0.970085 0.109155 0.054224
vt  0.919399 0.043822 0.539907
# 325 texture vertices

vn  -0.457946 0.064414 0.886643
vn  0.438645 0.065560 -0.896266
vn  0.436105 0.107769 -0.893420
vn  -0.441670 0.038871 0.896335
vn  -0.507887 -0.026763 0.861008
vn  0.481004 0.013945 -0.876607
vn  -0.272471 -0.887327 0.372034
vn  0.336587 -0.729538 -0.595385
vn  0.231866 0.507231 -0.830033
vn  -0.182016 0.079154 0.980104
vn  0.111787 -0.976906 -0.182094
vn  -0.405784 -0.171802 0.897677
vn  0.515493 0.096879 0.851400
vn  0.513377 -0.796857 -0.318532
vn  0.309486 -0.753875 0.579561
vn  -0.343599 0.638565 -0.688604
vn  0.220439 0.913216 0.342699
vn  0.197520 -0.899335 0.390106
vn  0.325218 0.201208 0.923985
vn  0.945876 0.219927 0.238645
vn  0.597192 0.122086 -0.792753
vn  0.776387 0.019462 0.629956
vn  0.174814 -0.067461 0.982288
vn  0.911838 0.118258 -0.393149
vn  0.963842 0.239969 0.115857
vn  0.291325 0.165937 0.942122
vn  0.695427 0.075635 -0.714605
vn  0.816895 -0.479209 0.321001
vn  0.107229 -0.846964 0.520725
vn  0.633522 -0.700881 -0.327744
vn  0.258757 0.764679 0.590179
vn  0.776836 -0.614583 0.137160
vn  0.607002 0.350236 -0.713360
vn  0.785563 0.170163 -0.594925
vn  0.052771 -0.270309 0.961326
vn  -0.134812 -0.894216 0.426852
vn  0.912635 -0.348620 0.213450
vn  0.977647 0.181702 -0.105784
vn  -0.153214 -0.019420 0.988002
vn  0.902606 -0.347823 0.253618
vn  -0.225678 -0.973144 -0.045401
vn  0.505219 -0.794922 -0.335936
vn  -0.015912 -0.059021 0.998130
vn  0.482025 -0.290884 0.826462
vn  0.815434 -0.540185 0.208010
vn  0.516433 -0.037719 0.855496
vn  -0.937348 0.220781 0.269509
vn  -0.734027 0.244873 -0.633436
vn  0.311488 0.124036 -0.942120
vn  -0.975878 -0.094031 -0.197026
vn  -0.863998 -0.125608 0.487575
vn  -0.247184 0.057439 -0.967265
vn  -0.603813 0.297738 -0.739433
vn  -0.948021 0.157226 0.276652
vn  0.266537 0.128649 -0.955200
vn  -0.702753 -0.445687 -0.554529
vn  -0.545702 -0.830283 0.113309
vn  -0.038019 -0.652793 -0.756581
vn  -0.751683 0.648335 0.120975
vn  -0.506057 -0.740316 -0.442537
vn  0.207709 0.200725 -0.957375
vn  -0.994907 0.087760 0.049589
vn  -0.759242 -0.240190 0.604864
vn  0.398454 -0.908906 0.122979
vn  -0.423695 -0.344589 0.837700
vn  -0.609123 0.300728 0.733847
vn  -0.629986 -0.078869 0.772591
vn  -0.264035 -0.159306 0.951266
vn  0.408718 -0.858152 0.310683
vn  0.160124 -0.217073 -0.962933
vn  -0.612701 0.444739 0.653303
vn  0.453224 -0.290090 0.842874
vn  -0.258574 -0.510602 0.820015
vn  -0.126625 -0.128517 0.983590
vn  -0.280457 -0.782076 -0.556508
vn  0.458126 0.315535 -0.830998
vn  0.342150 0.847471 0.405865
vn  -0.536107 -0.092917 0.839021
vn  -0.260923 -0.879546 0.397893
vn  0.959436 0.260199 0.108535
vn  -0.908613 0.214027 0.358630
vn  0.632987 0.168417 -0.755621
vn  -0.441849 -0.785913 -0.432561
vn  0.388971 0.494449 0.777317
vn  0.617657 -0.738315 0.270908
vn  0.564000 -0.157276 -0.810659
vn  -0.371769 0.796200 -0.477341
vn  -0.186458 0.501014 0.845115
vn  -0.004225 -0.207487 0.978229
vn  -0.873466 -0.046727 -0.484637
vn  0.610755 0.702039 0.366224
vn  0.147143 -0.467133 -0.871858
vn  0.573949 -0.622708 0.531806
vn  -0.732750 0.675490 -0.082404
vn  -0.335913 -0.339328 -0.878646
vn  0.618619 -0.708001 -0.340652
vn  -0.675234 -0.464919 0.572634
vn  0.678881 0.255973 0.688185
vn  0.888831 -0.392001 -0.237305
vn  -0.133024 -0.589909 -0.796437
vn  -0.233724 -0.526480 0.817430
vn  -0.906981 0.378145 -0.185454
vn  0.151682 0.450988 0.879547
vn  -0.076478 -0.590173 0.803646
vn  -0.585137 -0.656847 -0.475570
vn  0.816112 -0.577442 -0.022829
vn  -0.798640 0.029876 0.601067
vn  0.452006 -0.436641 -0.777840
vn  0.900044 0.276388 0.336943
vn  -0.587934 0.805719 0.071762
vn  -0.398604 0.165813 0.902009
vn  0.721934 -0.514988 0.462167
vn  -0.695523 -0.711056 0.103184
vn  0.340243 0.715865 0.609732
vn  0.015492 -0.967035 -0.254173
vn  -0.929426 0.050425 -0.365548
# 116 vertex normals

g (null)
usemtl big
s 1
f 32/19/32 29/20/29 31/21/31
f 29/20/29 32/19/32 28/22/28
f 28/22/28 13/23/13 10/24/10
f 28/22/28 32/19/32 13/23/13
f 33/51/33 31/52/31 29/53/29
f 12/54/12 33/51/33 11/55/11
f 30/56/30 11/55/11 33/51/33
f 30/56/30 33/51/33 29/53/29
f 34/25/34 28/22/28 35/26/35
f 28/22/28 34/25/34 29/20/29
f 35/26/35 10/24/10 14/27/14
f 10/24/10 35/26/35 28/22/28
f 15/57/15 30/56/30 36/58/36
f 30/56/30 15/57/15 11/55/11
f 36/58/36 29/53/29 34/59/34
f 29/53/29 36/58/36 30/56/30
f 37/28/37 35/26/35 38/29/38
f 35/26/35 37/28/37 34/25/34
f 38/29/38 14/27/14 16/30/16
f 14/27/14 38/29/38 35/26/35
f 17/60/17 36/58/36 39/61/39
f 36/58/36 17/60/17 15/57/15
f 39/61/39 34/59/34 37/62/37
f 34/59/34 39/61/39 36/58/36
f 18/63/18 43/64/43 40/65/40
f 18/63/18 40/65/40 42/66/42
f 31/21/31 41/31/41 44/32/44
f 40/33/40 19/34/19 44/32/44
f 44/32/44 32/19/32 31/21/31
f 48/35/48 21/36/21 32/19/32
f 13/23/13 32/19/32 21/36/21
f 19/34/19 40/33/40 43/37/43
f 18/63/18 42/66/42 12/54/12
f 48/35/48 19/34/19 21/36/21
f 33/51/33 12/54/12 42/66/42
f 42/66/42 41/67/41 33/51/33
f 33/51/33 41/67/41 31/52/31
f 27/80/27 22/81/22 47/82/47
f 74/89/74 46/84/46 22/81/22
f 46/84/46 47/82/47 22/81/22
f 20/11/20 46/13/46 23/10/23
f 25/101/25 45/102/45 55/103/55
f 18/104/18 25/101/25 43/105/43
f 24/106/24 45/102/45 26/107/26
f 25/101/25 26/107/26 45/102/45
f 44/32/44 19/34/19 48/35/48
f 44/32/44 48/35/48 32/19/32
f 46/84/46 49/85/49 47/82/47
f 46/332/46 20/334/20 49/333/49
f 37/174/37 38/175/38 51/176/51
f 52/177/52 51/176/51 38/175/38
f 39/178/39 37/174/37 51/176/51
f 52/177/52 38/175/38 50/180/50
f 50/180/50 38/175/38 16/181/16
f 17/182/17 39/178/39 50/180/50
f 51/179/51 50/180/50 39/178/39
f 50/180/50 16/181/16 17/182/17
f 55/109/55 45/110/45 53/111/53
f 49/85/49 53/86/53 47/82/47
f 53/111/53 45/110/45 54/112/54
f 54/15/54 47/12/47 53/14/53
f 54/112/54 45/110/45 27/113/27
f 54/87/54 27/80/27 47/82/47
f 24/114/24 27/113/27 45/110/45
f 25/101/25 55/103/55 43/105/43
f 19/108/19 43/105/43 55/103/55
f 55/109/55 53/111/53 49/115/49
f 55/109/55 49/115/49 19/116/19
f 19/327/19 49/325/49 20/326/20
f 60/38/60 59/39/59 57/40/57
f 57/40/57 56/41/56 60/38/60
f 56/41/56 10/24/10 13/23/13
f 56/41/56 13/23/13 60/38/60
f 61/68/61 57/69/57 59/70/59
f 12/54/12 11/55/11 61/68/61
f 58/71/58 61/68/61 11/55/11
f 58/71/58 57/69/57 61/68/61
f 62/42/62 63/43/63 56/41/56
f 56/41/56 57/40/57 62/42/62
f 63/43/63 14/27/14 10/24/10
f 10/24/10 56/41/56 63/43/63
f 15/57/15 64/72/64 58/71/58
f 58/71/58 11/55/11 15/57/15
f 64/72/64 62/73/62 57/69/57
f 57/69/57 58/71/58 64/72/64
f 65/44/65 66/45/66 63/43/63
f 63/43/63 62/42/62 65/44/65
f 66/45/66 16/30/16 14/27/14
f 14/27/14 63/43/63 66/45/66
f 17/60/17 67/74/67 64/72/64
f 64/72/64 15/57/15 17/60/17
f 67/74/67 65/75/65 62/73/62
f 62/73/62 64/72/64 67/74/67
f 18/63/18 68/76/68 71/77/71
f 18/63/18 70/78/70 68/76/68
f 59/39/59 72/46/72 69/47/69
f 68/48/68 72/46/72 19/34/19
f 72/46/72 59/39/59 60/38/60
f 76/49/76 60/38/60 21/36/21
f 13/23/13 21/36/21 60/38/60
f 19/34/19 71/50/71 68/48/68
f 18/63/18 12/54/12 70/78/70
f 76/49/76 21/36/21 19/34/19
f 61/68/61 70/78/70 12/54/12
f 70/78/70 61/68/61 69/79/69
f 61/68/61 59/70/59 69/79/69
f 27/80/27 75/88/75 22/81/22
f 23/83/23 46/84/46 74/89/74
f 74/89/74 22/81/22 75/88/75
f 20/17/20 23/16/23 74/18/74
f 25/93/25 83/98/83 73/99/73
f 18/94/18 71/100/71 25/93/25
f 24/95/24 26/96/26 73/99/73
f 25/93/25 73/99/73 26/96/26
f 72/46/72 76/49/76 19/34/19
f 72/46/72 60/38/60 76/49/76
f 74/89/74 75/88/75 77/90/77
f 74/330/74 77/331/77 20/329/20
f 65/183/65 79/184/79 66/185/66
f 80/186/80 66/185/66 79/184/79
f 67/187/67 79/184/79 65/183/65
f 80/186/80 78/189/78 66/185/66
f 78/189/78 16/181/16 66/185/66
f 17/182/17 78/189/78 67/187/67
f 79/188/79 67/187/67 78/189/78
f 78/189/78 17/182/17 16/181/16
f 83/117/83 81/118/81 73/119/73
f 77/90/77 75/88/75 81/91/81
f 81/118/81 82/120/82 73/119/73
f 82/92/82 81/91/81 75/88/75
f 73/119/73 27/113/27 24/114/24
f 82/92/82 75/88/75 27/80/27
f 27/113/27 73/119/73 82/120/82
f 25/93/25 71/100/71 83/98/83
f 19/97/19 83/98/83 71/100/71
f 83/117/83 77/121/77 81/118/81
f 83/117/83 19/116/19 77/121/77
f 19/327/19 20/326/20 77/328/77
f 41/163/41 84/165/84 44/164/44
f 86/154/86 42/156/42 40/155/40
f 84/165/84 41/163/41 42/166/42
f 44/153/44 87/157/87 40/155/40
f 87/167/87 44/164/44 84/165/84
f 87/157/87 86/154/86 40/155/40
f 85/158/85 42/156/42 86/154/86
f 42/166/42 85/168/85 84/165/84
f 88/169/88 84/165/84 89/170/89
f 86/154/86 93/160/93 89/159/89
f 87/157/87 90/161/90 86/154/86
f 90/171/90 87/167/87 84/165/84
f 84/165/84 92/172/92 90/171/90
f 91/173/91 89/170/89 84/165/84
f 86/154/86 89/159/89 91/162/91
f 86/154/86 91/162/91 85/158/85
f 84/165/84 85/168/85 91/173/91
f 89/228/89 93/229/93 88/230/88
f 88/230/88 93/229/93 92/231/92
f 86/154/86 90/161/90 93/160/93
f 84/165/84 88/169/88 92/172/92
f 69/129/69 72/130/72 94/131/94
f 94/131/94 70/132/70 69/129/69
f 97/133/97 94/131/94 72/130/72
f 95/125/95 96/122/96 70/123/70
f 70/132/70 94/131/94 95/134/95
f 98/135/98 99/136/99 94/131/94
f 96/122/96 99/126/99 103/127/103
f 97/124/97 96/122/96 100/128/100
f 101/137/101 94/131/94 99/136/99
f 94/131/94 101/137/101 95/134/95
f 99/251/99 98/252/98 103/253/103
f 98/252/98 102/254/102 103/253/103
f 96/139/96 68/140/68 70/141/70
f 72/138/72 68/140/68 97/142/97
f 97/142/97 68/140/68 96/139/96
f 100/151/100 94/148/94 97/149/97
f 94/148/94 100/151/100 102/152/102
f 96/139/96 101/147/101 99/144/99
f 96/139/96 95/143/95 101/147/101
f 96/139/96 103/145/103 100/146/100
f 94/148/94 102/152/102 98/150/98
f 50/240/50 51/242/51 104/241/104
f 104/241/104 51/242/51 105/243/105
f 50/244/50 104/245/104 106/246/106
f 105/237/105 51/239/51 107/238/107
f 106/247/106 105/249/105 107/248/107
f 105/249/105 106/247/106 104/250/104
f 51/232/51 52/234/52 107/233/107
f 52/234/52 106/235/106 107/233/107
f 52/234/52 50/236/50 106/235/106
f 78/198/78 108/199/108 79/200/79
f 108/199/108 109/201/109 79/200/79
f 78/202/78 110/204/110 108/203/108
f 109/195/109 111/196/111 79/197/79
f 110/205/110 111/206/111 109/207/109
f 109/207/109 108/208/108 110/205/110
f 79/190/79 111/191/111 80/192/80
f 80/192/80 111/191/111 110/193/110
f 80/192/80 110/193/110 78/194/78
f 78/217/78 108/218/108 79/219/79
f 108/218/108 109/220/109 79/219/79
f 78/221/78 110/223/110 108/222/108
f 109/214/109 111/215/111 79/216/79
f 110/224/110 111/225/111 109/226/109
f 109/226/109 108/227/108 110/224/110
f 79/209/79 111/210/111 80/211/80
f 80/211/80 111/210/111 110/212/110
f 80/211/80 110/212/110 78/213/78
f 112/267/112 113/268/113 114/269/114
f 90/257/90 113/256/113 112/255/112
f 114/280/114 90/281/90 92/282/92
f 112/255/112 116/258/116 115/259/115
f 92/282/92 117/283/117 114/280/114
f 118/260/118 112/255/112 115/259/115
f 116/270/116 112/267/112 114/269/114
f 115/274/115 117/275/117 118/276/118
f 90/265/90 112/264/112 93/266/93
f 117/273/117 92/271/92 93/272/93
f 115/288/115 116/287/116 114/285/114
f 113/284/113 90/286/90 114/285/114
f 117/289/117 115/288/115 114/285/114
f 118/279/118 117/278/117 93/277/93
f 93/262/93 112/261/112 118/263/118
f 119/302/119 121/304/121 120/303/120
f 100/292/100 119/290/119 120/291/120
f 121/315/121 102/317/102 100/316/100
f 119/290/119 122/294/122 123/293/123
f 102/317/102 121/315/121 124/318/124
f 125/295/125 122/294/122 119/290/119
f 123/305/123 121/304/121 119/302/119
f 122/309/122 125/311/125 124/310/124
f 100/300/100 103/301/103 119/299/119
f 124/308/124 103/307/103 102/306/102
f 122/323/122 121/320/121 123/322/123
f 120/319/120 121/320/121 100/321/100
f 124/324/124 121/320/121 122/323/122
f 125/314/125 103/312/103 124/313/124
f 103/297/103 125/298/125 119/296/119
# 237 faces

g
