g object

s off

v  0.000000 8.000000 0.000000
v  1.560723 7.846282 0.000000
v  3.061467 7.391036 0.000000
v  4.444562 6.651757 0.000000
v  5.656854 5.656854 0.000000
v  6.651757 4.444562 0.000000
v  7.391036 3.061467 0.000000
v  7.846282 1.560723 0.000000
v  8.000000 0.000000 0.000000
v  7.846282 -1.560723 0.000000
v  7.391036 -3.061467 0.000000
v  6.651757 -4.444562 0.000000
v  5.656854 -5.656854 0.000000
v  4.444562 -6.651757 0.000000
v  3.061467 -7.391036 0.000000
v  1.560723 -7.846282 0.000000
v  0.000000 -8.000000 0.000000
v  -1.560723 -7.846282 0.000000
v  -3.061467 -7.391036 0.000000
v  -4.444562 -6.651757 0.000000
v  -5.656854 -5.656854 0.000000
v  -6.651757 -4.444562 0.000000
v  -7.391036 -3.061467 0.000000
v  -7.846282 -1.560723 0.000000
v  -8.000000 -0.000000 0.000000
v  -7.846282 1.560723 0.000000
v  -7.391036 3.061467 0.000000
v  -6.651757 4.444562 0.000000
v  -5.656854 5.656854 0.000000
v  -4.444562 6.651757 0.000000
v  -3.061467 7.391036 0.000000
v  -1.560723 7.846282 0.000000
v  -0.000000 8.000000 128.000000
v  -1.560723 7.846282 128.000000
v  -3.061467 7.391036 128.000000
v  -4.444562 6.651757 128.000000
v  -5.656854 5.656854 128.000000
v  -6.651757 4.444562 128.000000
v  -7.391036 3.061467 128.000000
v  -7.846282 1.560723 128.000000
v  -8.000000 -0.000000 128.000000
v  -7.846282 -1.560723 128.000000
v  -7.391036 -3.061467 128.000000
v  -6.651757 -4.444562 128.000000
v  -5.656854 -5.656854 128.000000
v  -4.444562 -6.651757 128.000000
v  -3.061467 -7.391036 128.000000
v  -1.560723 -7.846282 128.000000
v  0.000000 -8.000000 128.000000
v  1.560723 -7.846282 128.000000
v  3.061467 -7.391036 128.000000
v  4.444562 -6.651757 128.000000
v  5.656854 -5.656854 128.000000
v  6.651757 -4.444562 128.000000
v  7.391036 -3.061467 128.000000
v  7.846282 -1.560723 128.000000
v  8.000000 0.000000 128.000000
v  7.846282 1.560723 128.000000
v  7.391036 3.061467 128.000000
v  6.651757 4.444562 128.000000
v  5.656854 5.656854 128.000000
v  4.444562 6.651757 128.000000
v  3.061467 7.391036 128.000000
v  1.560723 7.846282 128.000000
vn 0.000000 0.000000 -1.000000
vn 0.000000 0.000000 1.000000
vn -0.098017 0.995185 0.000000
vn -0.290285 0.956940 0.000000
vn -0.995185 0.098017 0.000000
vn -0.995185 -0.098017 0.000000
vn -0.098017 -0.995185 0.000000
vn 0.098017 -0.995185 0.000000
vn 0.098017 0.995185 0.000000
vn -0.290285 -0.956940 0.000000
vn 0.995185 -0.098017 0.000000
vn 0.995185 0.098017 0.000000
vn 0.290285 -0.956940 0.000000
vn 0.290285 0.956940 0.000000
vn -0.956940 0.290285 0.000000
vn -0.956940 -0.290285 0.000000
vn 0.956940 -0.290285 0.000000
vn 0.956940 0.290285 0.000000
vn -0.773010 -0.634393 0.000000
vn -0.634393 -0.773010 0.000000
vn -0.471397 0.881921 0.000000
vn -0.634393 0.773010 0.000000
vn -0.773010 0.634393 0.000000
vn 0.634393 -0.773010 0.000000
vn -0.471397 -0.881921 0.000000
vn 0.471397 -0.881921 0.000000
vn 0.471397 0.881921 0.000000
vn 0.634393 0.773010 0.000000
vn -0.881921 0.471397 0.000000
vn -0.881921 -0.471397 0.000000
vn 0.773010 -0.634393 0.000000
vn 0.773010 0.634393 0.000000
vn 0.881921 -0.471397 0.000000
vn 0.881921 0.471397 0.000000
vt 0.500000 0.000000 
vt 0.597545 0.009607 
vt 0.691342 0.038060 
vt 0.777785 0.084265 
vt 0.853553 0.146447 
vt 0.915735 0.222215 
vt 0.961940 0.308658 
vt 0.990393 0.402455 
vt 1.000000 0.500000 
vt 0.990393 0.597545 
vt 0.961940 0.691342 
vt 0.915735 0.777785 
vt 0.853553 0.853553 
vt 0.777785 0.915735 
vt 0.691342 0.961940 
vt 0.597545 0.990393 
vt 0.500000 1.000000 
vt 0.402455 0.990393 
vt 0.308658 0.961940 
vt 0.222215 0.915735 
vt 0.146447 0.853553 
vt 0.084265 0.777785 
vt 0.038060 0.691342 
vt 0.009607 0.597545 
vt 0.000000 0.500000 
vt 0.009607 0.402455 
vt 0.038060 0.308658 
vt 0.084265 0.222215 
vt 0.146447 0.146447 
vt 0.222215 0.084265 
vt 0.308658 0.038060 
vt 0.402455 0.009607 
vt 0.437500 0.000000 
vt 0.437500 1.000000 
vt 0.375000 0.000000 
vt 0.375000 1.000000 
vt 0.000000 0.000000 
vt 0.000000 1.000000 
vt 0.062500 1.000000 
vt 0.062500 0.000000 
vt 0.562500 0.000000 
vt 0.562500 1.000000 
vt 1.000000 0.000000 
vt 1.000000 1.000000 
vt 0.937500 1.000000 
vt 0.937500 0.000000 
vt 0.625000 0.000000 
vt 0.625000 1.000000 
vt 0.125000 1.000000 
vt 0.125000 0.000000 
vt 0.875000 1.000000 
vt 0.875000 0.000000 
vt 0.250000 0.000000 
vt 0.250000 1.000000 
vt 0.187500 1.000000 
vt 0.187500 0.000000 
vt 0.312500 0.000000 
vt 0.312500 1.000000 
vt 0.750000 0.000000 
vt 0.750000 1.000000 
vt 0.687500 1.000000 
vt 0.687500 0.000000 
vt 0.812500 0.000000 
vt 0.812500 1.000000 

f 1/1/1 2/2/1 3/3/1 4/4/1 5/5/1 6/6/1 7/7/1 8/8/1 9/9/1 10/10/1 11/11/1 12/12/1 13/13/1 14/14/1 15/15/1 16/16/1 17/17/1 18/18/1 19/19/1 20/20/1 21/21/1 22/22/1 23/23/1 24/24/1 25/25/1 26/26/1 27/27/1 28/28/1 29/29/1 30/30/1 31/31/1 32/32/1
f 33/17/2 34/18/2 35/19/2 36/20/2 37/21/2 38/22/2 39/23/2 40/24/2 41/25/2 42/26/2 43/27/2 44/28/2 45/29/2 46/30/2 47/31/2 48/32/2 49/1/2 50/2/2 51/3/2 52/4/2 53/5/2 54/6/2 55/7/2 56/8/2 57/9/2 58/10/2 59/11/2 60/12/2 61/13/2 62/14/2 63/15/2 64/16/2
f 32/33/3 34/34/3 33/17/3 1/1/3
f 31/35/4 35/36/4 34/34/4 32/33/4
f 25/37/5 41/38/5 40/39/5 26/40/5
f 24/40/6 42/39/6 41/38/6 25/37/6
f 17/1/7 49/17/7 48/34/7 18/33/7
f 16/41/8 50/42/8 49/17/8 17/1/8
f 1/1/9 33/17/9 64/42/9 2/41/9
f 18/33/10 48/34/10 47/36/10 19/35/10
f 9/43/11 57/44/11 56/45/11 10/46/11
f 8/46/12 58/45/12 57/44/12 9/43/12
f 15/47/13 51/48/13 50/42/13 16/41/13
f 2/41/14 64/42/14 63/48/14 3/47/14
f 26/40/15 40/39/15 39/49/15 27/50/15
f 23/50/16 43/49/16 42/39/16 24/40/16
f 10/46/17 56/45/17 55/51/17 11/52/17
f 7/52/18 59/51/18 58/45/18 8/46/18
f 21/53/19 45/54/19 44/55/19 22/56/19
f 20/57/20 46/58/20 45/54/20 21/53/20
f 30/57/21 36/58/21 35/36/21 31/35/21
f 29/53/22 37/54/22 36/58/22 30/57/22
f 28/56/23 38/55/23 37/54/23 29/53/23
f 13/59/24 53/60/24 52/61/24 14/62/24
f 19/35/25 47/36/25 46/58/25 20/57/25
f 14/62/26 52/61/26 51/48/26 15/47/26
f 3/47/27 63/48/27 62/61/27 4/62/27
f 4/62/28 62/61/28 61/60/28 5/59/28
f 27/50/29 39/49/29 38/55/29 28/56/29
f 22/56/30 44/55/30 43/49/30 23/50/30
f 12/63/31 54/64/31 53/60/31 13/59/31
f 5/59/32 61/60/32 60/64/32 6/63/32
f 11/52/33 55/51/33 54/64/33 12/63/33
f 6/63/34 60/64/34 59/51/34 7/52/34
# 34 faces

