mtllib DoorSide2F2.mtl

o DoorSide2F2_Cube.028
usemtl None_DoorSide2.png
s off

v -3.833472 35.341061 -23.350019
v -57.179359 35.341061 -3.933697
v -61.510109 35.341061 -15.832365
v -8.164183 35.341061 -35.248688
v -3.833472 54.391129 -23.350019
v -8.164225 54.391129 -35.248688
v -61.510109 54.391129 -15.832365
v -57.179359 54.391129 -3.933697
v -3.264513 125.679550 -23.557121
v -80.167603 125.679550 4.433323
v -84.498360 125.679550 -7.465302
v -7.595222 125.679550 -35.455750
v -3.264513 144.729614 -23.557121
v -7.595265 144.729614 -35.455750
v -84.498360 144.729614 -7.465302
v -80.167648 144.729614 4.433323
v -87.697166 147.050476 4.219990
v -87.697166 147.050476 -4.837206
v -107.383568 137.765518 -4.837206
v -107.383568 137.765518 4.219990
v -87.697166 62.300255 4.219990
v -107.383568 63.207218 4.219990
v -107.383568 63.207218 -4.837206
v -87.697166 62.300255 -4.837206
v -77.031944 156.470551 1.469355
v -80.129715 156.470551 -7.041622
v -88.280029 147.829987 -4.075136
v -85.182304 147.829987 4.435841
v -77.169205 59.198601 1.519318
v -85.182304 66.359863 4.435841
v -88.280029 66.359863 -4.075136
v -80.266930 59.198601 -6.991659
v -54.875229 166.057999 -6.595030
v -57.972958 166.057999 -15.106008
v -79.864326 157.002640 -7.138219
v -76.766602 157.002640 1.372757
v -35.120941 173.993332 -14.173228
v -38.218670 173.993332 -22.684204
v -58.910473 167.811386 -15.153026
v -55.812740 167.811386 -6.642049
v -35.120941 -1.654443 -14.173228
v -55.812740 -1.654443 -6.642049
v -58.910473 -1.654443 -15.153026
v -38.218670 -1.654443 -22.684204
v -14.931031 176.880997 -20.781271
v -18.028759 176.880997 -29.292250
v -39.098499 175.571777 -21.623512
v -36.000771 175.571777 -13.112535
v -14.931031 -1.654443 -20.781271
v -36.000771 -1.654443 -13.112535
v -39.098545 -1.654443 -21.623468
v -18.028759 -1.654443 -29.292250
v -4.916651 176.904800 -24.878170
v -7.985579 176.904800 -33.309956
v -18.007597 176.990189 -29.662256
v -14.938669 176.990189 -21.230467
v -4.982529 -1.654443 -24.764547
v -14.909868 -1.654443 -21.151278
v -18.007597 -1.654443 -29.662256
v -8.080299 -1.654443 -33.275482
v -76.766602 64.226524 1.372757
v -79.864326 64.226524 -7.138219
v -54.152370 38.108849 -6.858156
v -61.353436 46.425522 -4.237185
v -61.353436 -1.654443 -4.237185
v -53.927731 -1.654443 -6.939905
v -64.451164 46.425522 -12.748161
v -57.250099 38.108849 -15.369132
v -57.025459 -1.654443 -15.450881
v -64.451164 -1.654443 -12.748161

vt 0.725336 0.375833
vt 0.637569 0.376039
vt 0.637142 0.269402
vt 0.724909 0.269196
vt 0.204058 0.570881
vt 0.204485 0.677518
vt 0.116747 0.677724
vt 0.116320 0.571088
vt 0.724909 0.482882
vt 0.725336 0.589519
vt 0.637569 0.589725
vt 0.637142 0.483088
vt 0.778455 0.581697
vt 0.917555 0.581371
vt 0.917983 0.688007
vt 0.778882 0.688334
vt 0.724909 0.376039
vt 0.725336 0.482676
vt 0.637569 0.482882
vt 0.637142 0.376245
vt 0.917646 0.581371
vt 0.778455 0.581043
vt 0.778882 0.474407
vt 0.918073 0.474734
vt 0.969660 0.474109
vt 0.843136 0.474407
vt 0.842709 0.367770
vt 0.969233 0.367472
vt 0.969191 0.260539
vt 0.969618 0.367175
vt 0.843136 0.367472
vt 0.842709 0.260836
vt 0.969233 0.106934
vt 0.969660 0.213571
vt 0.843136 0.213868
vt 0.842709 0.107232
vt 0.204485 0.611980
vt 0.343585 0.611653
vt 0.344012 0.718290
vt 0.204912 0.718617
vt 0.842709 0.106637
vt 0.843136 0.000000
vt 0.969660 0.000297
vt 0.344103 0.611326
vt 0.204912 0.611653
vt 0.204485 0.505016
vt 0.343676 0.504689
vt 0.706344 0.589887
vt 0.706038 0.666163
vt 0.637142 0.666001
vt 0.637448 0.589725
vt 0.778455 0.474407
vt 0.780355 0.000000
vt 0.810582 0.052046
vt 0.808911 0.469401
vt 0.841038 0.005005
vt 0.842709 0.422361
vt 0.812482 0.474407
vt 0.810582 0.000000
vt 0.407528 0.000234
vt 0.405629 0.474641
vt 0.306067 0.474407
vt 0.307967 0.000000
vt 0.206505 0.000000
vt 0.306067 0.000234
vt 0.305872 0.048941
vt 0.206310 0.048707
vt 0.969660 0.651434
vt 0.971614 0.106934
vt 0.984830 0.155333
vt 0.983004 0.611379
vt 0.204485 0.504455
vt 0.304047 0.504689
vt 0.998174 0.146990
vt 1.000000 0.603036
vt 0.986785 0.651434
vt 0.984830 0.106934
vt 0.104923 0.000000
vt 0.204485 0.000234
vt 0.204278 0.051886
vt 0.104716 0.051652
vt 0.407528 0.474750
vt 0.407223 0.551026
vt 0.360855 0.550917
vt 0.361160 0.474641
vt 0.484862 0.983224
vt 0.488799 0.000000
vt 0.522703 0.034685
vt 0.518904 0.983304
vt 0.556746 0.000000
vt 0.560544 0.948620
vt 0.526640 0.983304
vt 0.522703 0.000080
vt 0.407528 0.627302
vt 0.372631 0.627384
vt 0.372326 0.551108
vt 0.480860 0.000000
vt 0.484862 0.999389
vt 0.450168 0.992141
vt 0.446195 0.000081
vt 0.407528 0.999307
vt 0.411501 0.007247
vt 0.446195 0.000000
vt 0.442193 0.999389
vt 0.372023 0.551026
vt 0.372326 0.626592
vt 0.355858 0.626631
vt 0.355556 0.551064
vt 0.737781 0.999962
vt 0.741628 0.000439
vt 0.758118 0.000000
vt 0.754114 1.000000
vt 0.774451 0.000000
vt 0.778455 1.000000
vt 0.761965 0.999561
vt 0.758118 0.000038
vt 0.102638 0.000232
vt 0.099562 0.999756
vt 0.000000 0.999522
vt 0.004003 0.000000
vt 0.102638 0.570647
vt 0.202200 0.570881
vt 0.635464 0.222584
vt 0.623803 0.269166
vt 0.622725 0.000029
vt 0.634942 0.000000
vt 0.637142 0.938808
vt 0.585504 0.669642
vt 0.597165 0.716225
vt 0.596643 0.938808
vt 0.584426 0.938780
vt 0.598843 0.000000
vt 0.637142 0.268962
vt 0.638219 0.000000
vt 0.737781 0.000234
vt 0.736704 0.269196
vt 0.600923 0.888204
vt 0.598844 0.368870
vt 0.560545 0.569938
vt 0.562624 0.050605

vn 0.000000 -1.000000 0.000000
vn 0.000000 1.000000 0.000000
vn 0.342020 0.000000 0.939693
vn -0.939693 0.000000 0.342019
vn -0.342020 0.000000 -0.939693
vn 0.939693 0.000001 -0.342019
vn -0.426578 0.904451 0.000000
vn 0.000000 0.000000 1.000000
vn 0.000000 0.000000 -1.000000
vn 1.000000 0.000000 0.000000
vn -0.663200 0.708448 0.241385
vn -0.340448 0.932063 0.123912
vn -0.253994 0.962778 0.092446
vn -0.054777 0.998300 0.019936
vn 0.007521 0.999968 -0.002738
vn 0.342021 0.000472 0.939692
vn 0.939692 -0.000564 -0.342022

f 1/1/1 2/2/1 3/3/1 4/4/1
f 5/5/2 6/6/2 7/7/2 8/8/2
f 1/9/3 5/10/3 8/11/3 2/12/3
f 2/13/4 8/14/4 7/15/4 3/16/4
f 3/17/5 7/18/5 6/19/5 4/20/5
f 5/21/6 1/22/6 4/23/6 6/24/6
f 9/25/1 10/26/1 11/27/1 12/28/1
f 13/29/2 14/30/2 15/31/2 16/32/2
f 9/33/3 13/34/3 16/35/3 10/36/3
f 10/37/4 16/38/4 15/39/4 11/40/4
f 11/41/5 15/42/5 14/43/5 12/33/5
f 13/44/6 9/45/6 12/46/6 14/47/6
f 17/48/7 18/49/7 19/50/7 20/51/7
f 21/52/8 17/53/8 20/54/8 22/55/8
f 23/56/9 19/57/9 18/58/9 24/59/9
f 17/60/10 21/61/10 24/62/10 18/63/10
f 25/64/11 26/65/11 27/66/11 28/67/11
f 29/68/3 25/69/3 28/70/3 30/71/3
f 30/72/4 28/67/4 27/66/4 31/73/4
f 31/74/5 27/75/5 26/76/5 32/77/5
f 33/78/12 34/79/12 35/80/12 36/81/12
f 37/82/13 38/83/13 39/84/13 40/85/13
f 41/86/3 37/87/3 40/88/3 42/89/3
f 43/90/5 39/91/5 38/92/5 44/93/5
f 45/83/14 46/94/14 47/95/14 48/96/14
f 49/97/3 45/98/3 48/99/3 50/100/3
f 51/101/5 47/102/5 46/103/5 52/104/5
f 53/105/15 54/106/15 55/107/15 56/108/15
f 57/109/16 53/110/16 56/111/16 58/112/16
f 59/113/5 55/114/5 54/115/5 60/116/5
f 53/117/17 57/118/17 60/119/17 54/120/17
f 61/121/4 36/81/4 35/80/4 62/122/4
f 63/123/3 64/124/3 65/125/3 66/126/3
f 64/124/3 63/123/3 33/127/3
f 67/128/5 68/129/5 69/130/5 70/131/5
f 68/129/5 67/128/5 34/132/5
f 65/133/4 64/134/4 67/135/4 70/136/4
f 33/127/3 36/137/3 61/138/3 64/124/3
f 34/132/5 67/128/5 62/139/5 35/140/5

