# Max2Obj Version 4.0 Mar 10th, 2001
#
mtllib ./nec_walk_20.mtl
g
# object (null) to come ...
#
v  1.142668 29.637289 6.000829
v  -0.438171 28.353138 -2.242144
v  0.063931 41.652740 -1.771722
v  0.595152 41.275635 4.773604
v  1.113586 17.129845 7.629701
v  -0.289022 17.104610 1.391082
v  -0.709610 6.698310 9.882832
v  -1.269156 7.190138 -1.748335
v  0.209982 55.602684 1.136746
v  -0.460306 53.727127 6.471024
v  -0.571224 56.150349 7.380285
v  -0.334850 50.315784 6.108596
v  -1.226204 60.036427 8.858479
v  -0.293257 53.211720 8.555087
v  -1.639587 62.190384 10.208838
v  -1.165325 64.425072 2.082537
v  -1.604317 64.603767 6.463770
v  -1.490423 62.698471 7.925195
v  4.848759 28.398956 3.574169
v  6.437183 29.306004 -1.241197
v  3.725721 29.506512 -3.814475
v  4.704798 41.241249 2.002019
v  3.454828 41.292076 3.305180
v  3.176308 41.518444 -1.140317
v  7.204080 17.388973 -4.185431
v  5.787997 14.748055 0.382144
v  4.272242 18.594460 -6.617217
v  5.784506 7.845790 -13.258559
v  3.853462 5.336355 -9.696865
v  3.051741 9.824806 -14.755640
v  6.322480 54.207943 4.551167
v  4.954834 51.357761 3.417197
v  5.183485 54.058880 0.974267
v  3.033205 55.926617 5.010807
v  4.600414 52.167820 5.509476
v  1.346792 61.439751 7.862405
v  0.248163 56.452194 9.291378
v  0.685919 61.131981 6.894949
v  2.813532 50.833889 6.846865
v  1.586920 57.484261 5.823006
v  1.537786 7.517279 -11.429896
v  4.123352 7.787273 -12.255075
v  3.235605 6.659799 -10.904619
v  0.766148 61.087410 5.458374
v  -0.745146 63.185707 5.562946
v  3.409266 57.726833 6.395357
v  -2.971886 31.332397 6.208416
v  -6.164095 29.769316 2.495481
v  -4.544760 28.263014 -0.511725
v  -3.897360 41.421093 2.619676
v  -2.482410 41.420662 3.715445
v  -2.829760 41.634998 -0.716296
v  -6.872751 17.988876 8.084584
v  -4.023727 19.970097 12.318549
v  -4.847878 16.373568 5.030704
v  -7.765665 6.171042 14.370807
v  -4.861353 7.795893 18.088482
v  -5.622477 4.701715 11.747442
v  -6.757299 53.057438 3.130863
v  -4.517626 51.078243 2.127108
v  -4.406429 53.848843 -0.398168
v  -3.527828 55.375488 4.176241
v  -4.870674 51.749996 4.218342
v  -3.844437 60.752007 7.370302
v  -1.921328 56.164780 9.085720
v  -2.959614 60.649006 6.549371
v  -3.608978 50.683628 5.961256
v  -2.674486 56.919693 5.419045
v  -3.161583 6.552392 14.775610
v  -5.879656 6.604405 14.555734
v  -4.611086 7.233141 15.927457
v  -2.758871 60.620403 5.124220
v  -1.886656 63.034481 5.454735
v  -4.570925 56.669571 5.638877
v  11.236642 45.200508 6.362829
v  12.831253 46.744080 4.517406
v  13.277829 47.367710 6.697624
v  11.121895 46.199738 8.213758
v  21.277559 35.872215 12.341623
v  22.521469 36.718327 12.651728
v  14.522342 41.222378 13.650053
v  14.299757 45.194492 5.513874
v  15.133653 40.550797 12.765477
v  15.919630 41.093487 12.808129
v  -7.064823 43.223759 -1.215013
v  -8.556854 45.142033 -2.780067
v  -9.921978 44.141800 -1.211422
v  -8.089094 42.809563 0.573360
v  -12.865019 32.994637 -9.422559
v  -14.377836 33.253242 -9.485400
v  -10.576265 34.846462 -1.305808
v  -9.192072 43.272598 -3.544800
v  -10.405199 35.077942 -2.540303
v  -11.300173 35.387222 -2.670862
v  0.153395 3.279837 -16.220249
v  2.622459 3.287724 -17.076004
v  2.139805 0.584446 -8.993055
v  5.108839 0.606836 -9.966465
v  -3.499693 -0.047124 15.751605
v  -6.092106 0.034029 15.433092
v  -3.864996 3.557295 22.806719
v  -6.963743 3.609605 22.408964
v  15.314331 39.539989 15.736347
v  13.657483 39.195644 16.868162
v  14.811097 38.966949 15.508310
v  16.709774 35.867073 16.188499
v  15.431123 36.090675 17.617964
v  16.822048 38.155712 14.386343
v  17.337156 38.921085 14.775759
v  -11.138067 32.019135 -2.000688
v  -9.980669 30.698175 -0.968587
v  -10.370762 31.910616 -2.209517
v  -10.578083 30.090042 -5.457240
v  -10.116539 28.805674 -4.091363
v  -11.163790 32.664024 -4.347887
v  -12.093931 32.710041 -3.987745
# 116 vertices

vt  0.993503 0.197633 0.840089
vt  0.989475 0.443575 0.283066
vt  0.710817 0.717774 0.405154
vt  0.949589 0.383317 0.779753
vt  0.675590 0.693999 0.000500
vt  0.688043 0.885850 0.313796
vt  0.993503 0.197633 0.840089
vt  0.989475 0.443575 0.283066
vt  0.949589 0.383317 0.779753
vt  0.255198 0.653273 0.498357
vt  0.313049 0.448147 0.029964
vt  0.288416 0.651491 0.280384
vt  0.248985 0.448033 0.795812
vt  0.181724 0.653274 0.730622
vt  0.181724 0.447474 0.931001
vt  0.315847 0.234385 0.024067
vt  0.250419 0.234280 0.853150
vt  0.181724 0.233767 0.999501
vt  0.321530 0.013325 0.061930
vt  0.253330 0.013197 0.758354
vt  0.181724 0.012570 0.910898
vt  0.296100 0.821372 0.006686
vt  0.289862 0.844668 0.326705
vt  0.308101 0.883072 0.006647
vt  0.181736 0.877015 0.479737
vt  0.251012 0.826379 0.676556
vt  0.181724 0.817620 0.648524
vt  0.252623 0.896641 0.000500
vt  0.108250 0.653273 0.498356
vt  0.075032 0.651491 0.280383
vt  0.050399 0.448147 0.029963
vt  0.114463 0.448033 0.795811
vt  0.047601 0.234385 0.024066
vt  0.113029 0.234280 0.853150
vt  0.041917 0.013325 0.061930
vt  0.110117 0.013197 0.758354
vt  0.073586 0.844667 0.326704
vt  0.067348 0.821372 0.006677
vt  0.055346 0.883072 0.006681
vt  0.112436 0.826379 0.676556
vt  0.110825 0.896642 0.000499
vt  0.619089 0.674886 0.423991
vt  0.650112 0.674872 0.999500
vt  0.673768 0.467738 0.757662
vt  0.547647 0.674900 0.272809
vt  0.547646 0.467543 0.063509
vt  0.636227 0.467836 0.180471
vt  0.547646 0.249811 0.000500
vt  0.638115 0.250080 0.127118
vt  0.676455 0.249992 0.751968
vt  0.547647 0.024592 0.103138
vt  0.641949 0.024922 0.235122
vt  0.681914 0.024812 0.788533
vt  0.547646 0.906952 0.142452
vt  0.615737 0.924592 0.729208
vt  0.669016 0.910770 0.735145
vt  0.647074 0.871650 0.172648
vt  0.657491 0.847920 0.735182
vt  0.476204 0.674886 0.423990
vt  0.421525 0.467739 0.757662
vt  0.445181 0.674872 0.999499
vt  0.459066 0.467836 0.180471
vt  0.457178 0.250080 0.127118
vt  0.418838 0.249992 0.751967
vt  0.453344 0.024922 0.235122
vt  0.413379 0.024812 0.788533
vt  0.426276 0.910770 0.735177
vt  0.479556 0.924592 0.729208
vt  0.448218 0.871650 0.172648
vt  0.437802 0.847920 0.735173
vt  0.852589 0.264223 0.764567
vt  0.851040 0.177059 0.999500
vt  0.920969 0.199995 0.405154
vt  0.853008 0.000911 0.840064
vt  0.915180 0.070560 0.779753
vt  0.970085 0.109155 0.054224
vt  0.969864 0.199995 0.000500
vt  0.883856 0.263894 0.086325
vt  0.781111 0.199995 0.405153
vt  0.796334 0.070561 0.779753
vt  0.736643 0.109156 0.054223
vt  0.732216 0.199995 0.000500
vt  0.821323 0.263895 0.086325
vt  0.859243 0.472682 0.500000
vt  0.852089 0.271074 0.500000
vt  0.972092 0.439592 0.500000
vt  0.918665 0.512427 0.500000
vt  0.934048 0.278250 0.499928
vt  0.915117 0.336445 0.999501
vt  0.936453 0.414789 0.824932
vt  0.896846 0.303488 0.909949
vt  0.844931 0.472491 0.500000
vt  0.767720 0.414597 0.175068
vt  0.789057 0.336254 0.000499
vt  0.852085 0.270882 0.500000
vt  0.807328 0.303297 0.090051
vt  0.732082 0.439401 0.500000
vt  0.785509 0.512236 0.500000
vt  0.770126 0.278059 0.499928
vt  0.418750 0.909681 0.118342
vt  0.397564 0.961508 0.469840
vt  0.384908 0.959055 0.000500
vt  0.367727 0.966401 0.061578
vt  0.358131 0.982937 0.544251
vt  0.357206 0.988740 0.999500
vt  0.390501 0.909868 0.038732
vt  0.358131 0.868061 0.361054
vt  0.297512 0.909681 0.118342
vt  0.331354 0.959055 0.000500
vt  0.318697 0.961508 0.469839
vt  0.350385 0.966401 0.061577
vt  0.325761 0.909868 0.038732
vt  0.833406 0.930995 0.764844
vt  0.727494 0.949841 0.378138
vt  0.835829 0.903298 0.362310
vt  0.825114 0.948456 0.362308
vt  0.973351 0.987493 0.501947
vt  0.923200 0.919169 0.447606
vt  0.922975 0.901128 0.351158
vt  0.739549 0.883657 0.001219
vt  0.736434 0.898569 0.378130
vt  0.838064 0.876672 0.000500
vt  0.731306 0.848146 0.378138
vt  0.839641 0.894689 0.362310
vt  0.828926 0.849531 0.362308
vt  0.975384 0.816480 0.121256
vt  0.977163 0.810494 0.501947
vt  0.849600 0.847722 0.362308
vt  0.738996 0.901968 0.378130
vt  0.833406 0.930995 0.764844
vt  0.741377 0.914824 0.999501
vt  0.727494 0.949841 0.378138
vt  0.835829 0.903298 0.362310
vt  0.825114 0.948456 0.362308
vt  0.973351 0.987493 0.501947
vt  0.923200 0.919169 0.447606
vt  0.922975 0.901128 0.351158
vt  0.845788 0.950265 0.362308
vt  0.838064 0.876672 0.000500
vt  0.839641 0.894689 0.362310
vt  0.975384 0.816480 0.121256
vt  0.926787 0.896859 0.351158
vt  0.926930 0.883653 0.219956
vt  0.735815 0.722811 0.378130
vt  0.831500 0.753751 0.764844
vt  0.739471 0.737580 0.999501
vt  0.725589 0.772597 0.378138
vt  0.833923 0.726054 0.362310
vt  0.823208 0.771212 0.362308
vt  0.969533 0.805787 0.501947
vt  0.921294 0.741925 0.447606
vt  0.921069 0.723884 0.351158
vt  0.843883 0.773021 0.362308
vt  0.737643 0.706412 0.001219
vt  0.735802 0.716863 0.378130
vt  0.836158 0.699428 0.000500
vt  0.729400 0.670902 0.378138
vt  0.837735 0.717445 0.362310
vt  0.827020 0.672287 0.362308
vt  0.973478 0.639236 0.121256
vt  0.975257 0.633250 0.501947
vt  0.924881 0.719615 0.351158
vt  0.925024 0.706409 0.219956
vt  0.847694 0.670478 0.362308
vt  0.951071 0.553393 0.102493
vt  0.905096 0.512904 0.085214
vt  0.923913 0.550849 0.999483
vt  0.904288 0.535719 0.999483
vt  0.923018 0.586709 0.116935
vt  0.904289 0.562697 0.999482
vt  0.884624 0.550849 0.999483
vt  0.856825 0.504034 0.000499
vt  0.856826 0.594655 0.073252
vt  0.762580 0.553393 0.102509
vt  0.789738 0.550849 0.999500
vt  0.808555 0.512904 0.085247
vt  0.809363 0.535719 0.999500
vt  0.790633 0.586709 0.116952
vt  0.809362 0.562697 0.999499
vt  0.829027 0.550849 0.999500
vt  0.018949 0.983913 0.000499
vt  0.018295 0.929160 0.999500
vt  0.042821 0.983913 0.238664
vt  0.073049 0.929160 0.999500
vt  0.066743 0.983913 0.000500
vt  0.071997 0.983917 0.000519
vt  0.078339 0.929330 0.999512
vt  0.115802 0.984256 0.569397
vt  0.147919 0.984884 0.245998
vt  0.148601 0.927410 0.000500
vt  0.122254 0.984249 0.105326
vt  0.088058 0.928678 0.000499
vt  0.153510 0.985267 0.245998
vt  0.152654 0.927221 0.000500
vt  0.181941 0.927855 0.999501
vt  0.219354 0.928607 0.347778
vt  0.189653 0.928607 0.000488
vt  0.188575 0.979237 0.999512
vt  0.213414 0.979237 0.652100
vt  0.018949 0.983913 0.000499
vt  0.018295 0.929160 0.999500
vt  0.042821 0.983913 0.238664
vt  0.073049 0.929160 0.999500
vt  0.066743 0.983913 0.000500
vt  0.071997 0.983917 0.000519
vt  0.078339 0.929330 0.999512
vt  0.115802 0.984256 0.569397
vt  0.147919 0.984884 0.245998
vt  0.148601 0.927410 0.000500
vt  0.122254 0.984249 0.105326
vt  0.088058 0.928678 0.000499
vt  0.153510 0.985267 0.245998
vt  0.152654 0.927221 0.000500
vt  0.181941 0.927855 0.999501
vt  0.219354 0.928607 0.347778
vt  0.189653 0.928607 0.000488
vt  0.188575 0.979237 0.999512
vt  0.213414 0.979237 0.652100
vt  0.033922 0.556543 0.000500
vt  0.024166 0.453938 0.929367
vt  0.053023 0.549939 0.085203
vt  0.035783 0.451579 0.999501
vt  0.467444 0.990424 0.000499
vt  0.466790 0.935671 0.999500
vt  0.491316 0.990424 0.238664
vt  0.521543 0.935671 0.999500
vt  0.515237 0.990424 0.000500
vt  0.520491 0.990428 0.000519
vt  0.526834 0.935841 0.999512
vt  0.564297 0.990767 0.569397
vt  0.596413 0.991395 0.245998
vt  0.597096 0.933921 0.000500
vt  0.570748 0.990760 0.105326
vt  0.536552 0.935189 0.000499
vt  0.602004 0.991778 0.245998
vt  0.601149 0.933732 0.000500
vt  0.630436 0.934366 0.999501
vt  0.667848 0.935118 0.347778
vt  0.638148 0.935118 0.000488
vt  0.637069 0.985748 0.999512
vt  0.661908 0.985748 0.652100
vt  0.011295 0.261397 0.000499
vt  0.022029 0.264558 0.085203
vt  0.022523 0.362545 0.929367
vt  0.028790 0.362860 0.999501
vt  0.356216 0.344346 0.352924
vt  0.322584 0.337812 0.747958
vt  0.358501 0.386167 0.298027
vt  0.360712 0.294143 0.999500
vt  0.397933 0.303859 0.994193
vt  0.404121 0.354888 0.200947
vt  0.356216 0.344346 0.352924
vt  0.402135 0.386784 0.000499
vt  0.404121 0.354888 0.200947
vt  0.356216 0.344346 0.352924
vt  0.358501 0.386167 0.298027
vt  0.402135 0.386784 0.000499
vt  0.347602 0.332184 0.352924
vt  0.322584 0.337812 0.747958
vt  0.356216 0.344346 0.767832
vt  0.360712 0.294143 0.999500
vt  0.409112 0.382250 0.751654
vt  0.402135 0.386784 0.000499
vt  0.415699 0.352825 0.726506
vt  0.397933 0.303859 0.994193
vt  0.415699 0.352825 0.726506
vt  0.404121 0.354888 0.200947
vt  0.402135 0.386784 0.000499
vt  0.415699 0.352825 0.726506
vt  0.404121 0.354888 0.200947
vt  0.348603 0.432015 0.767832
vt  0.352524 0.390653 0.298027
vt  0.395527 0.391267 0.751654
vt  0.399295 0.421044 0.726506
vt  0.316867 0.438276 0.747958
vt  0.348603 0.432015 0.767832
vt  0.352524 0.390653 0.298027
vt  0.354995 0.481946 0.999500
vt  0.392216 0.472230 0.994193
vt  0.399295 0.421044 0.726506
vt  0.352628 0.568026 0.352924
vt  0.318996 0.561492 0.747958
vt  0.354912 0.609847 0.298027
vt  0.357124 0.517823 0.999500
vt  0.394344 0.527539 0.994193
vt  0.400533 0.578568 0.200947
vt  0.352628 0.568026 0.352924
vt  0.398546 0.610464 0.000499
vt  0.400533 0.578568 0.200947
vt  0.352628 0.568026 0.352924
vt  0.354912 0.609847 0.298027
vt  0.398546 0.610464 0.000499
vt  0.344013 0.555864 0.352924
vt  0.318996 0.561492 0.747958
vt  0.352628 0.568026 0.767832
vt  0.357124 0.517823 0.999500
vt  0.405524 0.605930 0.751654
vt  0.398546 0.610464 0.000499
vt  0.412110 0.576505 0.726506
vt  0.394344 0.527539 0.994193
vt  0.412110 0.576505 0.726506
vt  0.400533 0.578568 0.200947
vt  0.398546 0.610464 0.000499
vt  0.412110 0.576505 0.726506
vt  0.400533 0.578568 0.200947
vt  0.345014 0.655695 0.767832
vt  0.348936 0.614333 0.298027
vt  0.391939 0.614946 0.751654
vt  0.395706 0.644724 0.726506
vt  0.313278 0.661956 0.747958
vt  0.345014 0.655695 0.767832
vt  0.348936 0.614333 0.298027
vt  0.351406 0.705625 0.999500
vt  0.388627 0.695910 0.994193
vt  0.395706 0.644724 0.726506
vt  0.952437 0.607576 0.054224
vt  0.837978 0.648536 0.539907
vt  0.835748 0.637851 0.507125
vt  0.718995 0.607575 0.054223
vt  0.790451 0.040011 0.539907
vt  0.796334 0.070561 0.779753
vt  0.736643 0.109156 0.054223
vt  0.915180 0.070560 0.779753
vt  0.970085 0.109155 0.054224
vt  0.919399 0.043822 0.539907
# 325 texture vertices

vn  0.522335 0.117155 0.844654
vn  -0.269339 -0.051748 -0.961654
vn  -0.001671 0.100934 -0.994892
vn  0.171032 0.050156 0.983988
vn  0.826971 -0.079721 0.556564
vn  -0.642074 -0.060087 -0.764284
vn  0.557613 -0.788265 0.260202
vn  -0.805755 -0.396897 -0.439580
vn  0.058487 0.691324 -0.720174
vn  -0.114665 0.028740 0.992988
vn  0.147004 -0.987394 0.058680
vn  -0.063541 -0.185005 0.980681
vn  -0.123407 0.266594 0.955876
vn  0.183009 -0.983106 0.003080
vn  0.018141 -0.668762 0.743255
vn  -0.006447 0.636647 -0.771129
vn  -0.152516 0.945617 0.287311
vn  0.059286 -0.836874 0.544175
vn  0.781709 0.018927 0.623356
vn  0.966369 0.151740 -0.207619
vn  -0.043694 0.098072 -0.994220
vn  0.985526 -0.016169 0.168753
vn  0.592541 -0.120333 0.796502
vn  0.608379 0.116045 -0.785117
vn  0.960075 0.166063 -0.225120
vn  0.845183 -0.264808 0.464264
vn  -0.173585 0.430246 -0.885865
vn  0.642296 -0.578647 -0.502617
vn  0.240451 -0.931818 -0.271843
vn  -0.309570 -0.033853 -0.950274
vn  0.414664 0.731993 0.540591
vn  0.734869 -0.577014 -0.356402
vn  0.487255 0.228495 -0.842836
vn  0.951099 0.308472 0.015990
vn  0.298836 -0.138873 0.944146
vn  -0.229033 -0.894150 0.384758
vn  0.708899 -0.163546 0.686087
vn  0.814450 0.405527 0.414992
vn  0.175171 -0.065948 0.982327
vn  0.633386 -0.108434 0.766201
vn  -0.823243 -0.494881 -0.278143
vn  0.051416 -0.313821 -0.948089
vn  0.382692 -0.390709 0.837194
vn  -0.053029 -0.176231 0.982919
vn  0.609091 -0.370951 0.701002
vn  0.382264 -0.006041 0.924033
vn  -0.460109 0.306019 0.833458
vn  -0.994559 0.095124 0.042467
vn  -0.654155 -0.140602 -0.743177
vn  -0.980285 -0.006905 0.197468
vn  -0.544458 -0.042019 0.837735
vn  -0.760982 0.024060 -0.648327
vn  -0.998107 0.059818 -0.014307
vn  -0.212589 0.416467 0.883947
vn  -0.825949 -0.125934 -0.549499
vn  -0.756626 -0.490527 0.432319
vn  0.443489 -0.571336 0.690574
vn  -0.545175 -0.836991 -0.047227
vn  -0.753664 0.464265 0.465241
vn  -0.718219 -0.590910 -0.367406
vn  -0.316359 0.369225 -0.873836
vn  -0.960554 0.117066 -0.252252
vn  -0.482790 -0.191761 0.854483
vn  0.376925 -0.813871 0.442201
vn  -0.762426 -0.361795 0.536480
vn  -0.954019 0.177436 0.241588
vn  -0.440475 -0.030804 0.897236
vn  -0.716908 -0.256373 0.648317
vn  0.874128 -0.485652 0.006529
vn  -0.580464 -0.623814 -0.523371
vn  -0.050933 0.753136 0.655890
vn  -0.085757 -0.180565 0.979817
vn  -0.611316 -0.532638 0.585311
vn  -0.596315 -0.147024 0.789172
vn  -0.524302 -0.742983 -0.416034
vn  0.447609 -0.058338 -0.892324
vn  0.630749 0.749151 0.202307
vn  -0.398146 0.203394 0.894489
vn  -0.221626 -0.802772 0.553570
vn  0.962299 0.080752 -0.259732
vn  -0.744423 0.377608 0.550678
vn  0.510526 -0.136672 -0.848931
vn  -0.622215 -0.750567 -0.222483
vn  0.626221 0.511082 0.588763
vn  0.939187 -0.203053 -0.276944
vn  -0.082573 0.352835 -0.932035
vn  -0.942985 0.317885 0.098636
vn  -0.096452 -0.306005 0.947132
vn  0.317816 -0.932264 -0.172851
vn  -0.589427 0.238271 -0.771883
vn  0.207768 -0.164192 0.964300
vn  0.004469 0.443282 -0.896371
vn  0.940411 -0.271434 -0.204818
vn  -0.967436 -0.125923 0.219568
vn  -0.744816 0.274535 -0.608178
vn  0.259168 -0.552260 -0.792364
vn  -0.448601 -0.591965 0.669578
vn  0.866688 -0.176865 0.466446
vn  0.505509 -0.554570 -0.660994
vn  -0.474066 -0.874781 -0.100094
vn  0.616644 -0.093504 0.781669
vn  -0.805635 0.361301 0.469482
vn  0.389775 0.491504 0.778781
vn  0.043000 -0.528033 0.848135
vn  -0.740560 -0.616339 -0.267763
vn  0.726742 -0.671305 -0.145586
vn  -0.642571 0.160950 0.749131
vn  0.200646 -0.545631 -0.813651
vn  0.974539 0.204485 0.091980
vn  -0.827615 -0.394041 0.399731
vn  0.016646 -0.990541 -0.136207
vn  0.984177 -0.130587 -0.119759
vn  -0.170448 -0.080740 -0.982053
vn  0.187494 -0.657531 0.729725
vn  0.400556 0.418277 -0.815230
vn  -0.901358 0.107689 -0.419473
# 116 vertex normals

g (null)
usemtl bigsas
s 1
f 23/10/23 20/11/20 22/12/22
f 20/11/20 23/10/23 19/13/19
f 19/13/19 4/14/4 1/15/1
f 19/13/19 23/10/23 4/14/4
f 24/42/24 22/43/22 20/44/20
f 3/45/3 24/42/24 2/46/2
f 21/47/21 2/46/2 24/42/24
f 21/47/21 24/42/24 20/44/20
f 25/16/25 19/13/19 26/17/26
f 19/13/19 25/16/25 20/11/20
f 26/17/26 1/15/1 5/18/5
f 1/15/1 26/17/26 19/13/19
f 6/48/6 21/47/21 27/49/27
f 21/47/21 6/48/6 2/46/2
f 27/49/27 20/44/20 25/50/25
f 20/44/20 27/49/27 21/47/21
f 28/19/28 26/17/26 29/20/29
f 26/17/26 28/19/28 25/16/25
f 29/20/29 5/18/5 7/21/7
f 5/18/5 29/20/29 26/17/26
f 8/51/8 27/49/27 30/52/30
f 27/49/27 8/51/8 6/48/6
f 30/52/30 25/50/25 28/53/28
f 25/50/25 30/52/30 27/49/27
f 9/54/9 34/55/34 31/56/31
f 9/54/9 31/56/31 33/57/33
f 22/12/22 32/22/32 35/23/35
f 31/24/31 10/25/10 35/23/35
f 35/23/35 23/10/23 22/12/22
f 39/26/39 12/27/12 23/10/23
f 4/14/4 23/10/23 12/27/12
f 10/25/10 31/24/31 34/28/34
f 9/54/9 33/57/33 3/45/3
f 39/26/39 10/25/10 12/27/12
f 24/42/24 3/45/3 33/57/33
f 33/57/33 32/58/32 24/42/24
f 24/42/24 32/58/32 22/43/22
f 18/71/18 13/72/13 38/73/38
f 65/80/65 37/75/37 13/72/13
f 37/75/37 38/73/38 13/72/13
f 11/2/11 37/4/37 14/1/14
f 16/92/16 36/93/36 46/94/46
f 9/95/9 16/92/16 34/96/34
f 15/97/15 36/93/36 17/98/17
f 16/92/16 17/98/17 36/93/36
f 35/23/35 10/25/10 39/26/39
f 35/23/35 39/26/39 23/10/23
f 37/75/37 40/76/40 38/73/38
f 37/323/37 11/325/11 40/324/40
f 28/165/28 29/166/29 42/167/42
f 43/168/43 42/167/42 29/166/29
f 30/169/30 28/165/28 42/167/42
f 43/168/43 29/166/29 41/171/41
f 41/171/41 29/166/29 7/172/7
f 8/173/8 30/169/30 41/171/41
f 42/170/42 41/171/41 30/169/30
f 41/171/41 7/172/7 8/173/8
f 46/100/46 36/101/36 44/102/44
f 40/76/40 44/77/44 38/73/38
f 44/102/44 36/101/36 45/103/45
f 45/6/45 38/3/38 44/5/44
f 45/103/45 36/101/36 18/104/18
f 45/78/45 18/71/18 38/73/38
f 15/105/15 18/104/18 36/101/36
f 16/92/16 46/94/46 34/96/34
f 10/99/10 34/96/34 46/94/46
f 46/100/46 44/102/44 40/106/40
f 46/100/46 40/106/40 10/107/10
f 10/318/10 40/316/40 11/317/11
f 51/29/51 50/30/50 48/31/48
f 48/31/48 47/32/47 51/29/51
f 47/32/47 1/15/1 4/14/4
f 47/32/47 4/14/4 51/29/51
f 52/59/52 48/60/48 50/61/50
f 3/45/3 2/46/2 52/59/52
f 49/62/49 52/59/52 2/46/2
f 49/62/49 48/60/48 52/59/52
f 53/33/53 54/34/54 47/32/47
f 47/32/47 48/31/48 53/33/53
f 54/34/54 5/18/5 1/15/1
f 1/15/1 47/32/47 54/34/54
f 6/48/6 55/63/55 49/62/49
f 49/62/49 2/46/2 6/48/6
f 55/63/55 53/64/53 48/60/48
f 48/60/48 49/62/49 55/63/55
f 56/35/56 57/36/57 54/34/54
f 54/34/54 53/33/53 56/35/56
f 57/36/57 7/21/7 5/18/5
f 5/18/5 54/34/54 57/36/57
f 8/51/8 58/65/58 55/63/55
f 55/63/55 6/48/6 8/51/8
f 58/65/58 56/66/56 53/64/53
f 53/64/53 55/63/55 58/65/58
f 9/54/9 59/67/59 62/68/62
f 9/54/9 61/69/61 59/67/59
f 50/30/50 63/37/63 60/38/60
f 59/39/59 63/37/63 10/25/10
f 63/37/63 50/30/50 51/29/51
f 67/40/67 51/29/51 12/27/12
f 4/14/4 12/27/12 51/29/51
f 10/25/10 62/41/62 59/39/59
f 9/54/9 3/45/3 61/69/61
f 67/40/67 12/27/12 10/25/10
f 52/59/52 61/69/61 3/45/3
f 61/69/61 52/59/52 60/70/60
f 52/59/52 50/61/50 60/70/60
f 18/71/18 66/79/66 13/72/13
f 14/74/14 37/75/37 65/80/65
f 65/80/65 13/72/13 66/79/66
f 11/8/11 14/7/14 65/9/65
f 16/84/16 74/89/74 64/90/64
f 9/85/9 62/91/62 16/84/16
f 15/86/15 17/87/17 64/90/64
f 16/84/16 64/90/64 17/87/17
f 63/37/63 67/40/67 10/25/10
f 63/37/63 51/29/51 67/40/67
f 65/80/65 66/79/66 68/81/68
f 65/321/65 68/322/68 11/320/11
f 56/174/56 70/175/70 57/176/57
f 71/177/71 57/176/57 70/175/70
f 58/178/58 70/175/70 56/174/56
f 71/177/71 69/180/69 57/176/57
f 69/180/69 7/172/7 57/176/57
f 8/173/8 69/180/69 58/178/58
f 70/179/70 58/178/58 69/180/69
f 69/180/69 8/173/8 7/172/7
f 74/108/74 72/109/72 64/110/64
f 68/81/68 66/79/66 72/82/72
f 72/109/72 73/111/73 64/110/64
f 73/83/73 72/82/72 66/79/66
f 64/110/64 18/104/18 15/105/15
f 73/83/73 66/79/66 18/71/18
f 18/104/18 64/110/64 73/111/73
f 16/84/16 62/91/62 74/89/74
f 10/88/10 74/89/74 62/91/62
f 74/108/74 68/112/68 72/109/72
f 74/108/74 10/107/10 68/112/68
f 10/318/10 11/317/11 68/319/68
f 32/154/32 75/156/75 35/155/35
f 77/145/77 33/147/33 31/146/31
f 75/156/75 32/154/32 33/157/33
f 35/144/35 78/148/78 31/146/31
f 78/158/78 35/155/35 75/156/75
f 78/148/78 77/145/77 31/146/31
f 76/149/76 33/147/33 77/145/77
f 33/157/33 76/159/76 75/156/75
f 79/160/79 75/156/75 80/161/80
f 77/145/77 84/151/84 80/150/80
f 78/148/78 81/152/81 77/145/77
f 81/162/81 78/158/78 75/156/75
f 75/156/75 83/163/83 81/162/81
f 82/164/82 80/161/80 75/156/75
f 77/145/77 80/150/80 82/153/82
f 77/145/77 82/153/82 76/149/76
f 75/156/75 76/159/76 82/164/82
f 80/219/80 84/220/84 79/221/79
f 79/221/79 84/220/84 83/222/83
f 77/145/77 81/152/81 84/151/84
f 75/156/75 79/160/79 83/163/83
f 60/120/60 63/121/63 85/122/85
f 85/122/85 61/123/61 60/120/60
f 88/124/88 85/122/85 63/121/63
f 86/116/86 87/113/87 61/114/61
f 61/123/61 85/122/85 86/125/86
f 89/126/89 90/127/90 85/122/85
f 87/113/87 90/117/90 94/118/94
f 88/115/88 87/113/87 91/119/91
f 92/128/92 85/122/85 90/127/90
f 85/122/85 92/128/92 86/125/86
f 90/242/90 89/243/89 94/244/94
f 89/243/89 93/245/93 94/244/94
f 87/130/87 59/131/59 61/132/61
f 63/129/63 59/131/59 88/133/88
f 88/133/88 59/131/59 87/130/87
f 91/142/91 85/139/85 88/140/88
f 85/139/85 91/142/91 93/143/93
f 87/130/87 92/138/92 90/135/90
f 87/130/87 86/134/86 92/138/92
f 87/130/87 94/136/94 91/137/91
f 85/139/85 93/143/93 89/141/89
f 41/231/41 42/233/42 95/232/95
f 95/232/95 42/233/42 96/234/96
f 41/235/41 95/236/95 97/237/97
f 96/228/96 42/230/42 98/229/98
f 97/238/97 96/240/96 98/239/98
f 96/240/96 97/238/97 95/241/95
f 42/223/42 43/225/43 98/224/98
f 43/225/43 97/226/97 98/224/98
f 43/225/43 41/227/41 97/226/97
f 69/189/69 99/190/99 70/191/70
f 99/190/99 100/192/100 70/191/70
f 69/193/69 101/195/101 99/194/99
f 100/186/100 102/187/102 70/188/70
f 101/196/101 102/197/102 100/198/100
f 100/198/100 99/199/99 101/196/101
f 70/181/70 102/182/102 71/183/71
f 71/183/71 102/182/102 101/184/101
f 71/183/71 101/184/101 69/185/69
f 69/208/69 99/209/99 70/210/70
f 99/209/99 100/211/100 70/210/70
f 69/212/69 101/214/101 99/213/99
f 100/205/100 102/206/102 70/207/70
f 101/215/101 102/216/102 100/217/100
f 100/217/100 99/218/99 101/215/101
f 70/200/70 102/201/102 71/202/71
f 71/202/71 102/201/102 101/203/101
f 71/202/71 101/203/101 69/204/69
f 103/258/103 104/259/104 105/260/105
f 81/248/81 104/247/104 103/246/103
f 105/271/105 81/272/81 83/273/83
f 103/246/103 107/249/107 106/250/106
f 83/273/83 108/274/108 105/271/105
f 109/251/109 103/246/103 106/250/106
f 107/261/107 103/258/103 105/260/105
f 106/265/106 108/266/108 109/267/109
f 81/256/81 103/255/103 84/257/84
f 108/264/108 83/262/83 84/263/84
f 106/279/106 107/278/107 105/276/105
f 104/275/104 81/277/81 105/276/105
f 108/280/108 106/279/106 105/276/105
f 109/270/109 108/269/108 84/268/84
f 84/253/84 103/252/103 109/254/109
f 110/293/110 112/295/112 111/294/111
f 91/283/91 110/281/110 111/282/111
f 112/306/112 93/308/93 91/307/91
f 110/281/110 113/285/113 114/284/114
f 93/308/93 112/306/112 115/309/115
f 116/286/116 113/285/113 110/281/110
f 114/296/114 112/295/112 110/293/110
f 113/300/113 116/302/116 115/301/115
f 91/291/91 94/292/94 110/290/110
f 115/299/115 94/298/94 93/297/93
f 113/314/113 112/311/112 114/313/114
f 111/310/111 112/311/112 91/312/91
f 115/315/115 112/311/112 113/314/113
f 116/305/116 94/303/94 115/304/115
f 94/288/94 116/289/116 110/287/110
# 237 faces

g
# object (null) to come ...
#
v  -20.664921 51.361012 -32.385788
v  -20.661875 52.348022 -31.700031
v  -19.661928 52.014214 -32.277218
v  -5.820772 22.410725 11.325195
v  -5.823812 21.423702 10.639458
v  -4.820826 22.076920 10.748011
v  -3.727442 17.946547 18.847431
v  -3.733690 15.923178 17.441629
v  -1.677555 17.262245 17.664202
# 9 vertices

vt  0.979994 0.135709 0.256341
vt  0.980124 0.135089 0.500000
vt  0.976728 0.038107 0.743659
vt  0.515619 0.131012 0.500000
vt  0.515723 0.131867 0.256341
vt  0.517900 0.037781 0.743659
vt  0.978571 0.133971 0.500000
vt  0.976453 0.040746 0.000499
vt  0.976452 0.040746 0.999501
# 9 texture vertices

vn  -0.272419 0.549569 -0.789786
vn  -0.272419 0.549569 -0.789786
vn  -0.272419 0.549569 -0.789786
vn  -0.489359 0.656415 0.574149
vn  -0.494132 -0.764926 -0.413184
vn  0.950321 0.175424 -0.257131
vn  -0.028808 1.488217 0.891220
vn  -1.477439 -0.873669 -0.252509
vn  1.406695 -0.413724 -0.927328
# 9 vertex normals

g (null)
usemtl MS000
s 1
f 117/326/117 118/327/118 119/328/119
s 8
f 118/327/118 121/330/121 120/329/120
f 118/327/118 117/326/117 121/330/121
f 117/326/117 122/331/122 121/330/121
f 117/326/117 119/328/119 122/331/122
f 119/328/119 120/329/120 122/331/122
f 119/328/119 118/327/118 120/329/120
f 120/329/120 124/333/124 123/332/123
f 120/329/120 121/330/121 124/333/124
f 121/330/121 125/334/125 124/333/124
f 121/330/121 122/331/122 125/334/125
f 122/331/122 123/332/123 125/334/125
f 122/331/122 120/329/120 123/332/123
s 1
f 124/333/124 125/334/125 123/332/123
# 14 faces

g
