# Max2Obj Version 4.0 Mar 10th, 2001
#
mtllib ./barbturn_r_04.mtl
g
# object (null) to come ...
#
v  -3.993216 35.733028 3.671509
v  -1.447475 35.617794 0.316132
v  2.722515 35.423195 -2.107391
v  3.669346 49.253094 4.952423
v  6.723412 49.519550 1.109497
v  7.980690 58.097469 -3.781891
v  11.029785 62.622997 5.912262
v  5.282963 54.668381 5.780487
v  5.279835 49.833626 -3.457611
v  6.999977 59.480042 5.971863
v  8.159321 53.999386 -1.642029
v  9.171417 54.369152 2.137695
v  3.903240 33.227703 -2.887451
v  8.826031 35.063686 -0.761871
v  8.735935 36.947495 6.830444
v  2.295435 34.804436 9.795013
v  -2.426006 33.594860 7.115387
v  7.626484 37.523224 6.220947
v  0.803162 35.792717 7.687836
v  7.639942 36.751106 -0.648865
v  4.831886 35.823734 -2.608826
v  -3.849293 48.999195 1.468536
v  -1.785851 48.991703 4.179321
v  7.500629 65.806747 -2.570007
v  7.536884 63.831421 -2.842926
v  -3.414106 59.220165 8.737976
v  -4.610243 56.007469 2.568695
v  -1.976046 55.607883 6.770782
v  6.529743 67.125977 9.901276
v  4.147562 65.242500 11.299255
v  2.645769 60.869156 9.789612
v  10.066372 66.231491 7.869812
v  -6.083727 61.212189 3.913269
v  -2.566311 62.122402 8.405731
v  6.576771 67.834465 3.973938
v  -3.808064 67.237114 2.713837
v  -2.254375 67.904922 5.108093
v  1.082453 73.516304 3.855530
v  2.595310 69.034927 5.959351
v  1.607218 73.961426 1.086700
v  3.960155 70.718826 0.488190
v  3.973650 70.692787 3.668976
v  6.105579 68.697517 -0.437592
v  -1.875498 44.963005 5.160339
v  -4.091839 44.669010 0.789520
v  4.324966 44.865227 6.152924
v  7.760822 44.255692 1.158539
v  6.559772 44.241768 -3.932861
v  6.941353 61.657341 12.026520
v  11.581688 62.273735 9.526611
v  9.554417 62.467205 11.443726
v  11.808758 60.675911 6.215820
v  4.457897 59.594307 10.250885
v  -3.341089 79.208603 1.888336
v  -6.647226 78.298210 2.479431
v  -6.999105 75.113800 2.568695
v  -8.435413 73.280998 2.837738
v  -8.139709 71.048309 2.804596
v  -7.900707 72.611679 2.749115
v  -8.592581 68.298973 2.907959
v  -0.044313 78.215813 1.315094
v  -6.757744 71.136902 4.009766
v  -6.484484 72.497566 4.437408
v  -6.658472 74.332184 3.113983
v  -4.233900 73.740631 5.248077
v  -3.585594 69.246971 5.115204
v  -6.288940 75.764557 4.933258
v  -1.306574 74.666397 5.023865
v  -6.022820 78.303932 3.650940
v  -4.904076 77.455780 5.115875
v  -3.070297 79.236572 3.515167
v  -7.234913 72.582787 3.706543
v  -5.855669 68.473862 4.719910
v  -7.735468 68.248871 4.113647
v  -1.047754 76.984146 4.798004
v  -0.473791 78.132416 4.133667
v  -5.890450 74.416496 4.753265
v  12.041969 60.712635 11.815186
v  8.724842 60.325420 13.593964
v  12.345020 58.510948 7.420044
v  8.919415 46.622276 14.408081
v  12.406460 46.509686 15.930725
v  12.006294 48.621101 17.888824
v  9.354084 50.075993 18.129395
v  7.186989 49.381584 16.399200
v  10.226761 49.873852 11.454346
v  13.545406 50.343353 12.465637
v  12.888733 52.101997 14.543121
v  10.845146 52.669601 15.090332
v  8.609066 51.223766 14.201355
v  8.956814 53.789803 8.612671
v  13.219654 52.404961 11.153198
v  12.838165 57.330597 12.951233
v  9.706375 57.065556 14.575684
v  6.674137 54.901962 12.433533
v  12.905464 49.126793 13.665100
v  8.751373 52.235710 13.334167
v  13.473949 54.767433 9.375916
v  7.287067 42.448112 19.948730
v  9.029964 42.274380 20.679077
v  9.118034 43.307987 21.839874
v  7.449043 44.272228 22.001984
v  6.202679 43.930752 20.940002
v  4.033722 41.321404 23.172638
v  4.933491 41.526028 24.808105
v  2.842361 40.778954 23.276245
v  1.605209 40.380150 24.086823
v  3.456331 42.270123 21.407440
v  3.456591 42.398365 22.791565
v  1.956043 41.076866 22.516937
v  2.313276 41.509918 23.463196
v  1.433250 40.093292 23.313110
v  3.432796 39.815006 24.612915
v  2.524031 37.492077 26.597961
v  3.954842 39.775681 25.792755
v  8.424164 38.746956 22.836731
v  7.769287 37.339211 24.051147
v  6.333385 35.638363 25.947205
v  8.633835 39.527237 23.931824
v  7.827080 38.012463 24.861053
v  4.221663 42.230980 23.439880
v  2.857742 30.099825 8.080536
v  6.999725 15.572624 2.497589
v  11.694477 17.008263 0.383362
v  13.354015 17.575024 5.977753
v  8.093281 15.942215 7.350891
v  4.424698 23.438843 2.790283
v  8.476475 25.198740 1.240814
v  9.685894 24.767790 5.472443
v  6.676212 21.348938 6.816528
v  5.180058 25.806984 6.796082
v  5.800102 23.159098 7.356384
v  9.930027 28.674784 6.142883
v  11.226997 2.643282 3.791321
v  14.336460 4.200348 2.566559
v  15.523296 3.895741 6.125061
v  14.029079 6.728115 5.659027
v  11.957962 4.494680 7.152100
v  10.950886 5.769859 3.972046
v  14.145824 -0.598829 1.732391
v  16.813526 0.160402 3.180847
v  9.655239 -1.214532 8.765137
v  14.929508 0.279793 11.647736
v  9.936840 1.218289 13.039276
v  12.107738 -0.203961 14.675812
v  8.377720 -1.212991 13.357727
v  -2.508333 49.736000 -6.881500
v  2.400307 49.833763 -7.164825
v  2.354673 64.739212 -10.757080
v  -1.640596 55.981628 -7.483704
v  -0.126055 61.469635 -6.992096
v  5.997211 54.402588 -5.778564
v  3.531902 55.429390 -8.658386
v  2.570408 32.975441 -6.572906
v  -3.310635 35.668247 -11.000488
v  -9.372898 36.343449 -6.872040
v  -3.166489 36.556931 -9.909454
v  -8.007761 37.546337 -4.709045
v  2.424847 35.032440 -6.166595
v  2.573486 34.917965 -2.666748
v  -4.955648 49.360409 -1.886932
v  -8.644119 60.484608 -1.304321
v  -6.543472 56.489254 -1.990540
v  -3.694389 68.191307 -8.697754
v  -6.731712 66.164703 -7.086639
v  -5.963106 61.914566 -5.589325
v  -0.930977 67.621834 -10.514374
v  -7.586121 63.350525 -1.244507
v  2.325888 68.559586 -5.299530
v  -3.982206 68.222031 -0.027985
v  0.000286 73.437843 -1.221741
v  -1.334177 69.503113 -3.469299
v  2.458241 70.676491 -2.321045
v  -5.966108 45.024769 -2.817871
v  -3.052591 44.591103 -8.565460
v  2.794136 44.041805 -8.308960
v  -5.842798 61.829788 -9.885101
v  -1.738733 62.720837 -13.109009
v  -4.341932 62.523586 -12.132477
v  1.579586 62.226379 -11.611542
v  -4.982164 60.603642 -6.522827
v  -7.253866 71.112930 1.197998
v  -7.147417 72.465530 0.680237
v  -6.863369 74.322281 1.952728
v  -5.313774 73.688446 -0.872131
v  -4.646027 69.195724 -0.894806
v  -7.142902 75.723282 0.093414
v  -2.489174 74.609245 -1.678558
v  -6.461439 78.282738 1.165070
v  -5.909084 77.407211 -0.580017
v  -3.643452 79.208870 0.266815
v  -7.602671 72.565018 1.622253
v  -6.641506 68.435883 0.266174
v  -8.199677 68.226440 1.482758
v  -2.175455 76.929642 -1.593262
v  -1.412155 78.087067 -1.184540
v  -6.702942 74.377228 0.148438
v  -3.172737 60.391701 -14.093903
v  -6.078178 59.804054 -11.758362
v  1.283846 59.805153 -12.110321
v  -1.044672 45.977539 -10.614777
v  -0.413071 46.393456 -14.345245
v  -3.148239 47.026905 -15.099304
v  -5.370821 47.153900 -13.036987
v  -4.789169 46.648190 -10.283844
v  -0.314289 50.496292 -9.995026
v  0.256205 51.118549 -13.398926
v  -2.448029 51.574764 -13.978760
v  -4.078808 51.458870 -12.513733
v  -3.722111 49.833622 -10.156281
v  0.044674 55.422482 -8.414795
v  0.240795 53.010738 -12.875854
v  -2.934990 56.726936 -14.401550
v  -5.625574 56.219284 -12.168060
v  -4.538734 55.305733 -8.113098
v  -0.194101 49.641434 -13.446533
v  -3.507387 51.972538 -9.750519
v  1.111761 55.640560 -12.976868
v  -3.040148 39.426460 -12.564545
v  -2.672489 39.466423 -14.416382
v  -4.006586 39.861019 -15.116394
v  -5.404427 40.107067 -13.794922
v  -5.007610 39.974541 -12.193542
v  -6.428133 36.347820 -11.362671
v  -7.348835 36.030159 -12.968475
v  -6.796082 35.575581 -10.367981
v  -7.787498 34.620350 -9.693359
v  -5.798273 37.813171 -10.011261
v  -6.906420 37.344368 -10.708832
v  -6.766945 35.971592 -9.230469
v  -7.522635 36.028812 -10.028442
v  -7.146929 34.655998 -9.146667
v  -7.084438 34.286270 -11.518311
v  -7.910076 31.210304 -11.655151
v  -7.718792 33.866161 -12.560944
v  -2.959442 35.143974 -14.903290
v  -3.514933 33.256767 -14.902313
v  -4.807255 30.652081 -14.558899
v  -4.057053 35.416691 -15.660095
v  -4.416397 33.522442 -15.381073
v  -6.967728 37.087383 -11.690125
v  -9.071886 31.529217 -5.331970
v  -3.379858 16.887255 -1.271088
v  0.868608 18.404467 -4.136475
v  -2.362333 16.680630 -8.715576
v  -6.383186 15.335655 -4.939667
v  -5.770336 24.307375 -1.861969
v  -1.978952 24.407516 -4.604919
v  -4.937077 23.858805 -7.835663
v  -7.950996 21.146927 -5.305054
v  -8.096073 26.438892 -5.362549
v  -8.860416 23.361059 -5.459076
v  -4.396555 27.341091 -9.457245
v  1.181898 3.541783 -1.352203
v  3.763687 5.300745 -3.364227
v  1.751411 3.987928 -6.310455
v  0.747480 6.718830 -5.609924
v  -1.265863 4.656065 -4.184418
v  0.246534 6.728728 -2.005981
v  4.863262 0.385919 -2.132751
v  5.185963 0.794600 -5.218201
v  -3.498749 -1.023159 -2.608612
v  -2.724373 -0.176765 -8.695007
v  -6.916708 0.794350 -5.644409
v  -6.804125 -0.944662 -8.169678
v  -7.909033 -1.577552 -4.290619
# 266 vertices

vt  0.414517 0.485338 0.000000
vt  0.489174 0.497239 0.000000
vt  0.550479 0.485338 0.000000
vt  0.329118 0.504113 0.000000
vt  0.420682 0.504388 0.000000
vt  0.490853 0.675485 0.000000
vt  0.356970 0.710738 0.000000
vt  0.307767 0.663467 0.000000
vt  0.491001 0.506534 0.000000
vt  0.272881 0.708251 0.000000
vt  0.307693 0.663467 0.000000
vt  0.458986 0.602657 0.000000
vt  0.390374 0.619683 0.000000
vt  0.694409 0.971380 0.000000
vt  0.584242 0.936155 0.000000
vt  0.501054 0.950636 0.000000
vt  0.578845 0.971377 0.000000
vt  0.691613 0.940228 0.000000
vt  0.529882 0.993867 0.000000
vt  0.597833 0.993868 0.000000
vt  0.684209 0.993870 0.000000
vt  0.689094 0.993870 0.000000
vt  0.240700 0.512959 0.000000
vt  0.160773 0.512959 0.000000
vt  0.490853 0.820915 0.000000
vt  0.357039 0.710738 0.000000
vt  0.490853 0.781888 0.000000
vt  0.131880 0.753091 0.000000
vt  0.240556 0.660920 0.000000
vt  0.133663 0.660928 0.000000
vt  0.060606 0.782384 0.000000
vt  0.058190 0.859642 0.000000
vt  0.052544 0.886601 0.000000
vt  0.298691 0.847983 0.000000
vt  0.060014 0.783494 0.000000
vt  0.240556 0.781375 0.000000
vt  0.136145 0.808744 0.000000
vt  0.390182 0.870896 0.000000
vt  0.235241 0.891030 0.000000
vt  0.181129 0.899551 0.000000
vt  0.172936 0.966074 0.000000
vt  0.181129 0.899551 0.000000
vt  0.145152 0.921474 0.000000
vt  0.490646 0.999330 0.000000
vt  0.456563 0.999059 0.000000
vt  0.491140 0.942697 0.000000
vt  0.429989 0.941889 0.000000
vt  0.490853 0.898039 0.000000
vt  0.877923 0.002315 0.000000
vt  0.710756 0.001536 0.000000
vt  0.812168 0.002315 0.000000
vt  0.813217 0.120956 0.000000
vt  0.701416 0.118225 0.000000
vt  0.872775 0.120438 0.000000
vt  0.002866 0.854679 0.000000
vt  0.272881 0.708251 0.000000
vt  0.247300 0.848527 0.000000
vt  0.243886 0.876138 0.000000
vt  0.251604 0.781884 0.000000
vt  0.006948 0.782948 0.000000
vt  0.006948 0.782948 0.000000
vt  0.745560 1.001324 0.000000
vt  0.747491 0.935506 0.000000
vt  0.747491 0.878462 0.000000
vt  0.747491 0.808438 0.000000
vt  0.748639 0.732530 0.000000
vt  0.747491 0.790807 0.000000
vt  0.746944 0.628012 0.000000
vt  0.747085 0.666819 0.000000
vt  0.550618 0.934468 0.000000
vt  0.720762 0.730332 0.000000
vt  0.705811 0.784366 0.000000
vt  0.729837 0.853035 0.000000
vt  0.674684 0.829607 0.000000
vt  0.654033 0.662928 0.000000
vt  0.654033 0.662928 0.000000
vt  0.695349 0.885675 0.000000
vt  0.623758 0.856571 0.000000
vt  0.716351 0.931575 0.000000
vt  0.676247 0.904603 0.000000
vt  0.649719 0.961956 0.000000
vt  0.725611 0.781438 0.000000
vt  0.747491 0.878462 0.000000
vt  0.703232 0.671848 0.000000
vt  0.731857 0.666086 0.000000
vt  0.611291 0.885598 0.000000
vt  0.604148 0.909350 0.000000
vt  0.697736 0.853617 0.000000
vt  0.695349 0.885675 0.000000
vt  0.695349 0.885675 0.000000
vt  0.669444 0.510287 0.000000
vt  0.578607 0.510287 0.000000
vt  0.756457 0.510287 0.000000
vt  0.875912 0.308662 0.000000
vt  0.758260 0.308662 0.000000
vt  0.671223 0.308662 0.000000
vt  0.577057 0.308662 0.000000
vt  0.498247 0.308662 0.000000
vt  0.875566 0.382888 0.000000
vt  0.758924 0.382888 0.000000
vt  0.669163 0.382888 0.000000
vt  0.584325 0.382888 0.000000
vt  0.498223 0.363687 0.000000
vt  0.877240 0.461159 0.000000
vt  0.759483 0.410364 0.000000
vt  0.665903 0.461159 0.000000
vt  0.580075 0.461159 0.000000
vt  0.992418 0.461159 0.000000
vt  0.759996 0.360654 0.000000
vt  0.498223 0.402657 0.000000
vt  0.760539 0.449273 0.000000
vt  0.858161 0.196355 0.000000
vt  0.762705 0.196431 0.000000
vt  0.690657 0.196417 0.000000
vt  0.588027 0.196417 0.000000
vt  0.498144 0.196431 0.000000
vt  0.356438 0.030356 0.000000
vt  0.369327 0.043627 0.000000
vt  0.380090 0.017573 0.000000
vt  0.416197 0.004791 0.000000
vt  0.316032 0.012201 0.000000
vt  0.336848 0.019568 0.000000
vt  0.371147 0.002582 0.000000
vt  0.375723 0.009258 0.000000
vt  0.408124 0.000758 0.000000
vt  0.448349 0.035630 0.000000
vt  0.498209 0.039288 0.000000
vt  0.429228 0.045736 0.000000
vt  0.102506 0.115410 0.000000
vt  0.153549 0.117195 0.000000
vt  0.189513 0.114692 0.000000
vt  0.228429 0.109580 0.000000
vt  0.355355 0.108206 0.000000
vt  0.406548 0.108121 0.000000
vt  0.342839 0.029458 0.000000
vt  0.413806 0.033644 0.000000
vt  0.461840 0.047992 0.000000
vt  0.442212 0.108407 0.000000
vt  0.458693 0.603155 0.000000
vt  0.357039 0.710738 0.000000
vt  0.420389 0.504181 0.000000
vt  0.307693 0.663467 0.000000
vt  0.389206 0.622726 0.000000
vt  0.389206 0.622726 0.000000
vt  0.309151 0.663075 0.000000
vt  0.390855 0.620128 0.000000
vt  0.730001 0.975635 0.000000
vt  0.055577 0.663688 0.000000
vt  0.067037 0.515196 0.000000
vt  0.131877 0.752996 0.000000
vt  0.294173 0.886121 0.000000
vt  0.142740 0.921054 0.000000
vt  0.389917 0.922986 0.000000
vt  0.456563 0.999059 0.000000
vt  0.294173 0.886121 0.000000
vt  0.389917 0.922986 0.000000
vt  0.389917 0.922986 0.000000
vt  0.790107 0.184348 0.000000
vt  0.701372 0.182427 0.000000
vt  0.790107 0.184348 0.000000
vt  0.857243 0.184348 0.000000
vt  0.790107 0.184348 0.000000
vt  0.857243 0.184348 0.000000
vt  0.058190 0.859642 0.000000
vt  0.052544 0.886601 0.000000
vt  0.055608 0.663958 0.000000
vt  0.061197 0.782654 0.000000
vt  0.027518 0.706813 0.000000
vt  0.357109 0.710738 0.000000
vt  0.298691 0.847983 0.000000
vt  0.058190 0.859642 0.000000
vt  0.060606 0.782384 0.000000
vt  0.294173 0.886121 0.000000
vt  -0.000514 0.880403 0.000000
vt  0.052544 0.886601 0.000000
vt  0.298691 0.847983 0.000000
vt  0.298691 0.847983 0.000000
vt  0.294173 0.886121 0.000000
vt  0.357109 0.710738 0.000000
vt  0.027518 0.706813 0.000000
vt  0.061197 0.782654 0.000000
vt  0.060606 0.782384 0.000000
vt  0.720473 0.730776 0.000000
vt  0.658187 0.605708 0.000000
vt  0.587609 0.811448 0.000000
vt  0.658187 0.605708 0.000000
vt  0.748523 0.593788 0.000000
vt  0.658187 0.605708 0.000000
vt  0.720379 0.731031 0.000000
vt  0.703232 0.671848 0.000000
vt  0.748523 0.593788 0.000000
vt  0.703659 0.671442 0.000000
vt  0.731857 0.666086 0.000000
vt  0.748639 0.732530 0.000000
vt  0.720379 0.731031 0.000000
vt  0.720762 0.730332 0.000000
vt  0.703186 0.671176 0.000000
vt  0.731857 0.666086 0.000000
vt  0.703232 0.671848 0.000000
vt  0.747085 0.666819 0.000000
vt  0.748639 0.732530 0.000000
vt  0.587609 0.811448 0.000000
vt  0.587609 0.811448 0.000000
vt  0.649719 0.961956 0.000000
vt  0.649719 0.961956 0.000000
vt  0.550618 0.823662 0.000000
vt  0.587609 0.811448 0.000000
vt  0.550618 0.823662 0.000000
vt  0.649719 0.961956 0.000000
vt  0.067037 0.515196 0.000000
vt  0.055608 0.663958 0.000000
vt  0.571978 0.557920 0.000000
vt  0.625864 0.557513 0.000000
vt  0.679695 0.557918 0.000000
vt  0.756032 0.560223 0.000000
vt  0.625864 0.557513 0.000000
vt  0.679695 0.557918 0.000000
vt  0.944262 0.560223 0.000000
vt  0.625864 0.557513 0.000000
vt  0.756032 0.560223 0.000000
vt  0.806202 0.560223 0.000000
vt  0.756032 0.560223 0.000000
vt  0.571978 0.557920 0.000000
vt  0.498275 0.560223 0.000000
vt  0.992439 0.363687 0.000000
vt  0.992597 0.308662 0.000000
vt  0.992439 0.363687 0.000000
vt  0.992438 0.402657 0.000000
vt  0.806202 0.560223 0.000000
vt  0.498220 0.461159 0.000000
vt  0.498275 0.560223 0.000000
vt  0.498220 0.461159 0.000000
vt  0.875438 0.575163 0.000000
vt  0.944262 0.560223 0.000000
vt  0.992439 0.363687 0.000000
vt  0.992438 0.402657 0.000000
vt  0.992438 0.402657 0.000000
vt  0.498220 0.461159 0.000000
vt  0.991918 0.196431 0.000000
vt  0.992597 0.308662 0.000000
vt  0.991918 0.196431 0.000000
vt  0.249292 0.041099 0.000000
vt  0.119423 0.002194 0.000000
vt  0.154876 0.002573 0.000000
vt  0.128136 0.016613 0.000000
vt  0.160447 0.001473 0.000000
vt  0.128136 0.016613 0.000000
vt  0.154876 0.002573 0.000000
vt  0.065726 0.014292 0.000000
vt  0.119423 0.002194 0.000000
vt  0.128136 0.016613 0.000000
vt  0.128136 0.016613 0.000000
vt  0.105093 0.028910 0.000000
vt  0.065726 0.014292 0.000000
vt  0.105093 0.028910 0.000000
vt  0.000825 0.069213 0.000000
vt  0.065726 0.014292 0.000000
vt  0.065726 0.014292 0.000000
vt  0.000825 0.069213 0.000000
vt  0.000703 0.039244 0.000000
vt  0.249292 0.041099 0.000000
vt  0.249314 0.055441 0.000000
vt  0.105093 0.028910 0.000000
vt  0.194639 0.033982 0.000000
vt  0.483032 0.114221 0.000000
vt  0.355217 0.119080 0.000000
vt  0.406174 0.120334 0.000000
vt  0.355217 0.119080 0.000000
vt  0.194639 0.033982 0.000000
vt  0.243215 0.037501 0.000000
vt  0.249314 0.055441 0.000000
vt  0.249314 0.089732 0.000000
vt  0.000825 0.069213 0.000000
vt  0.105093 0.028910 0.000000
vt  0.000703 0.095058 0.000000
vt  0.000825 0.069213 0.000000
vt  0.249314 0.089732 0.000000
vt  0.249292 0.105039 0.000000
vt  0.249314 0.089732 0.000000
vt  0.249292 0.105039 0.000000
vt  0.355217 0.119080 0.000000
vt  0.249314 0.055441 0.000000
vt  0.249314 0.055441 0.000000
vt  0.105093 0.028910 0.000000
vt  0.160984 0.032072 0.000000
vt  0.483032 0.114221 0.000000
vt  0.443088 0.117732 0.000000
vt  0.483032 0.114221 0.000000
vt  0.692830 0.969164 0.000000
vt  0.685579 0.991654 0.000000
vt  0.730212 0.975635 0.000000
vt  0.584242 0.936155 0.000000
vt  0.529882 0.993867 0.000000
vt  0.602549 0.993867 0.000000
vt  0.689094 0.993870 0.000000
vt  0.561277 0.000692 0.000000
vt  0.688827 -0.000098 0.000000
vt  0.564263 0.119120 0.000000
vt  0.697567 0.116528 0.000000
vt  0.507564 0.183764 0.000000
vt  0.505869 0.118716 0.000000
vt  0.580429 0.182675 0.000000
vt  0.697589 0.180917 0.000000
vt  0.507564 0.183764 0.000000
vt  0.580429 0.182675 0.000000
vt  0.697589 0.180917 0.000000
vt  0.503935 0.000692 0.000000
vt  0.505869 0.118716 0.000000
vt  0.503935 0.000692 0.000000
vt  0.489174 0.497239 0.000000
vt  0.351459 0.420971 0.000000
vt  0.352499 0.420971 0.000000
vt  0.000784 0.227894 0.000000
vt  0.105699 0.228145 0.000000
vt  0.216985 0.228421 0.000000
vt  0.351571 0.227894 0.000000
vt  0.023914 0.327327 0.000000
vt  0.104981 0.327662 0.000000
vt  0.216171 0.327327 0.000000
vt  0.351490 0.301452 0.000000
vt  0.352420 0.301452 0.000000
vt  0.025422 0.328212 0.000000
vt  0.216104 0.328075 0.000000
vt  0.351611 0.363299 0.000000
vt  0.352312 0.363299 0.000000
vt  0.351597 0.328057 0.000000
vt  0.352330 0.328057 0.000000
vt  0.104127 0.227894 0.000000
vt  0.216660 0.380224 0.000000
vt  0.104983 0.328371 0.000000
vt  0.352342 0.227894 0.000000
vt  0.009616 0.131504 0.000000
vt  0.104256 0.155747 0.000000
vt  0.105883 0.155747 0.000000
vt  0.223982 0.125749 0.000000
vt  0.216130 0.152222 0.000000
vt  0.351732 0.147623 0.000000
vt  0.352306 0.146326 0.000000
vt  0.469070 0.149411 0.000000
vt  0.989968 0.003451 0.000000
vt  0.909211 0.004273 0.000000
vt  0.996004 0.120663 0.000000
vt  0.989968 0.003451 0.000000
vt  0.909211 0.004273 0.000000
vt  0.885225 0.122889 0.000000
vt  0.885225 0.122889 0.000000
vt  0.996004 0.120663 0.000000
vt  0.943924 0.157220 0.000000
vt  0.507177 0.624822 0.000000
vt  0.600053 0.622523 0.000000
vt  0.943924 0.157220 0.000000
vt  0.217290 0.227894 0.000000
vt  0.217575 0.327327 0.000000
vt  0.217290 0.227894 0.000000
vt  0.489174 0.227894 0.000000
vt  0.489174 0.227894 0.000000
vt  0.471690 0.333380 0.000000
vt  0.217345 0.328075 0.000000
vt  0.470864 0.334174 0.000000
vt  0.217345 0.328075 0.000000
vt  0.217232 0.380224 0.000000
vt  0.217232 0.380224 0.000000
vt  0.470864 0.334174 0.000000
vt  0.217345 0.328075 0.000000
vt  0.470864 0.334174 0.000000
vt  0.229465 0.497239 0.000000
vt  0.351589 0.497239 0.000000
vt  0.352627 0.497239 0.000000
vt  0.217232 0.380224 0.000000
vt  0.229465 0.497239 0.000000
vt  0.072972 0.497239 0.000000
vt  0.470864 0.334174 0.000000
vt  0.072972 0.497239 0.000000
vt  0.002386 0.497239 0.000000
vt  0.218721 0.149411 0.000000
vt  0.223132 0.128232 0.000000
vt  0.483427 0.127273 0.000000
vt  0.017963 0.152222 0.000000
vt  0.105700 0.228142 0.000000
vt  0.104128 0.227914 0.000000
vt  0.017963 0.152222 0.000000
vt  0.000790 0.227921 0.000000
vt  0.017963 0.152222 0.000000
vt  0.104128 0.227914 0.000000
vt  0.216984 0.228396 0.000000
vt  0.105700 0.228142 0.000000
vt  0.217291 0.227882 0.000000
vt  0.218721 0.149411 0.000000
vt  0.351571 0.227971 0.000000
vt  0.351571 0.227971 0.000000
vt  0.218721 0.149411 0.000000
vt  0.352342 0.227879 0.000000
vt  0.489111 0.227891 0.000000
vt  0.352342 0.227879 0.000000
vt  0.971575 0.059997 0.000000
vt  0.948232 0.041698 0.000000
vt  0.948232 0.041698 0.000000
vt  0.971575 0.059997 0.000000
vt  0.925604 0.058708 0.000000
vt  0.597947 0.686709 0.000000
vt  0.501430 0.685191 0.000000
vt  0.516483 0.798440 0.000000
vt  0.516483 0.798440 0.000000
vt  0.594444 0.793024 0.000000
vt  0.597947 0.686709 0.000000
vt  0.925604 0.058708 0.000000
vt  0.950876 0.082499 0.000000
vt  0.948232 0.041698 0.000000
vt  0.925604 0.058708 0.000000
vt  0.950876 0.082499 0.000000
vt  0.971575 0.059997 0.000000
vt  0.950876 0.082499 0.000000
vt  0.950876 0.082499 0.000000
vt  0.501430 0.685191 0.000000
vt  0.501430 0.685191 0.000000
vt  0.597947 0.686709 0.000000
vt  0.901715 0.182549 0.000000
vt  0.901715 0.182549 0.000000
vt  0.982420 0.184037 0.000000
vt  0.982420 0.184037 0.000000
vt  0.216660 0.380224 0.000000
vt  0.104983 0.328371 0.000000
vt  0.133020 0.497239 0.000000
vt  0.229583 0.497239 0.000000
vt  0.133020 0.497239 0.000000
vt  0.133020 0.497239 0.000000
vt  0.072972 0.497239 0.000000
vt  0.414517 0.485338 0.000000
vt  0.489174 0.497239 0.000000
vt  0.550479 0.485338 0.000000
vt  0.329118 0.504113 0.000000
vt  0.420682 0.504388 0.000000
vt  0.490853 0.675485 0.000000
vt  0.356970 0.710738 0.000000
vt  0.307767 0.663467 0.000000
vt  0.491001 0.506534 0.000000
vt  0.272881 0.708251 0.000000
vt  0.307693 0.663467 0.000000
vt  0.458986 0.602657 0.000000
vt  0.390374 0.619683 0.000000
vt  0.694409 0.971380 0.000000
vt  0.584242 0.936155 0.000000
vt  0.501054 0.950636 0.000000
vt  0.578845 0.971377 0.000000
vt  0.691613 0.940228 0.000000
vt  0.529882 0.993867 0.000000
vt  0.597833 0.993868 0.000000
vt  0.684209 0.993870 0.000000
vt  0.689094 0.993870 0.000000
vt  0.240700 0.512959 0.000000
vt  0.160773 0.512959 0.000000
vt  0.490853 0.820915 0.000000
vt  0.357039 0.710738 0.000000
vt  0.490853 0.781888 0.000000
vt  0.131880 0.753091 0.000000
vt  0.240556 0.660920 0.000000
vt  0.133663 0.660928 0.000000
vt  0.060606 0.782384 0.000000
vt  0.058190 0.859642 0.000000
vt  0.052544 0.886601 0.000000
vt  0.298691 0.847983 0.000000
vt  0.060014 0.783494 0.000000
vt  0.240556 0.781375 0.000000
vt  0.136145 0.808744 0.000000
vt  0.390182 0.870896 0.000000
vt  0.235241 0.891030 0.000000
vt  0.181129 0.899551 0.000000
vt  0.172936 0.966074 0.000000
vt  0.181129 0.899551 0.000000
vt  0.145152 0.921474 0.000000
vt  0.490646 0.999330 0.000000
vt  0.456563 0.999059 0.000000
vt  0.491140 0.942697 0.000000
vt  0.429989 0.941889 0.000000
vt  0.490853 0.898039 0.000000
vt  0.877923 0.002315 0.000000
vt  0.710756 0.001536 0.000000
vt  0.812168 0.002315 0.000000
vt  0.813217 0.120956 0.000000
vt  0.701416 0.118225 0.000000
vt  0.872775 0.120438 0.000000
vt  0.002866 0.854679 0.000000
vt  0.272881 0.708251 0.000000
vt  0.247300 0.848527 0.000000
vt  0.243886 0.876138 0.000000
vt  0.251604 0.781884 0.000000
vt  0.006948 0.782948 0.000000
vt  0.006948 0.782948 0.000000
vt  0.745560 1.001324 0.000000
vt  0.747491 0.935506 0.000000
vt  0.747491 0.878462 0.000000
vt  0.747491 0.808438 0.000000
vt  0.748639 0.732530 0.000000
vt  0.747491 0.790807 0.000000
vt  0.746944 0.628012 0.000000
vt  0.747085 0.666819 0.000000
vt  0.550618 0.934468 0.000000
vt  0.720762 0.730332 0.000000
vt  0.705811 0.784366 0.000000
vt  0.729837 0.853035 0.000000
vt  0.674684 0.829607 0.000000
vt  0.654033 0.662928 0.000000
vt  0.654033 0.662928 0.000000
vt  0.695349 0.885675 0.000000
vt  0.623758 0.856571 0.000000
vt  0.716351 0.931575 0.000000
vt  0.676247 0.904603 0.000000
vt  0.649719 0.961956 0.000000
vt  0.725611 0.781438 0.000000
vt  0.747491 0.878462 0.000000
vt  0.703232 0.671848 0.000000
vt  0.731857 0.666086 0.000000
vt  0.611291 0.885598 0.000000
vt  0.604148 0.909350 0.000000
vt  0.697736 0.853617 0.000000
vt  0.695349 0.885675 0.000000
vt  0.695349 0.885675 0.000000
vt  0.669444 0.510287 0.000000
vt  0.578607 0.510287 0.000000
vt  0.756457 0.510287 0.000000
vt  0.875912 0.308662 0.000000
vt  0.758260 0.308662 0.000000
vt  0.671223 0.308662 0.000000
vt  0.577057 0.308662 0.000000
vt  0.498247 0.308662 0.000000
vt  0.875566 0.382888 0.000000
vt  0.758924 0.382888 0.000000
vt  0.669163 0.382888 0.000000
vt  0.584325 0.382888 0.000000
vt  0.498223 0.363687 0.000000
vt  0.877240 0.461159 0.000000
vt  0.759483 0.410364 0.000000
vt  0.665903 0.461159 0.000000
vt  0.580075 0.461159 0.000000
vt  0.992418 0.461159 0.000000
vt  0.759996 0.360654 0.000000
vt  0.498223 0.402657 0.000000
vt  0.760539 0.449273 0.000000
vt  0.858161 0.196355 0.000000
vt  0.762705 0.196431 0.000000
vt  0.690657 0.196417 0.000000
vt  0.588027 0.196417 0.000000
vt  0.498144 0.196431 0.000000
vt  0.356438 0.030356 0.000000
vt  0.369327 0.043627 0.000000
vt  0.380090 0.017573 0.000000
vt  0.416197 0.004791 0.000000
vt  0.316032 0.012201 0.000000
vt  0.336848 0.019568 0.000000
vt  0.371147 0.002582 0.000000
vt  0.375723 0.009258 0.000000
vt  0.408124 0.000758 0.000000
vt  0.448349 0.035630 0.000000
vt  0.498209 0.039288 0.000000
vt  0.429228 0.045736 0.000000
vt  0.102506 0.115410 0.000000
vt  0.153549 0.117195 0.000000
vt  0.189513 0.114692 0.000000
vt  0.228429 0.109580 0.000000
vt  0.355355 0.108206 0.000000
vt  0.406548 0.108121 0.000000
vt  0.342839 0.029458 0.000000
vt  0.413806 0.033644 0.000000
vt  0.461840 0.047992 0.000000
vt  0.442212 0.108407 0.000000
vt  0.458693 0.603155 0.000000
vt  0.357039 0.710738 0.000000
vt  0.420389 0.504181 0.000000
vt  0.307693 0.663467 0.000000
vt  0.389206 0.622726 0.000000
vt  0.389206 0.622726 0.000000
vt  0.309151 0.663075 0.000000
vt  0.390855 0.620128 0.000000
vt  0.730001 0.975635 0.000000
vt  0.055577 0.663688 0.000000
vt  0.067037 0.515196 0.000000
vt  0.131877 0.752996 0.000000
vt  0.294173 0.886121 0.000000
vt  0.142740 0.921054 0.000000
vt  0.389917 0.922986 0.000000
vt  0.456563 0.999059 0.000000
vt  0.294173 0.886121 0.000000
vt  0.389917 0.922986 0.000000
vt  0.389917 0.922986 0.000000
vt  0.790107 0.184348 0.000000
vt  0.701372 0.182427 0.000000
vt  0.790107 0.184348 0.000000
vt  0.857243 0.184348 0.000000
vt  0.790107 0.184348 0.000000
vt  0.857243 0.184348 0.000000
vt  0.058190 0.859642 0.000000
vt  0.052544 0.886601 0.000000
vt  0.055608 0.663958 0.000000
vt  0.061197 0.782654 0.000000
vt  0.027518 0.706813 0.000000
vt  0.357109 0.710738 0.000000
vt  0.298691 0.847983 0.000000
vt  0.058190 0.859642 0.000000
vt  0.060606 0.782384 0.000000
vt  0.294173 0.886121 0.000000
vt  -0.000514 0.880403 0.000000
vt  0.052544 0.886601 0.000000
vt  0.298691 0.847983 0.000000
vt  0.298691 0.847983 0.000000
vt  0.294173 0.886121 0.000000
vt  0.357109 0.710738 0.000000
vt  0.027518 0.706813 0.000000
vt  0.061197 0.782654 0.000000
vt  0.060606 0.782384 0.000000
vt  0.720473 0.730776 0.000000
vt  0.658187 0.605708 0.000000
vt  0.587609 0.811448 0.000000
vt  0.658187 0.605708 0.000000
vt  0.748523 0.593788 0.000000
vt  0.658187 0.605708 0.000000
vt  0.720379 0.731031 0.000000
vt  0.703232 0.671848 0.000000
vt  0.748523 0.593788 0.000000
vt  0.703659 0.671442 0.000000
vt  0.731857 0.666086 0.000000
vt  0.748639 0.732530 0.000000
vt  0.720379 0.731031 0.000000
vt  0.720762 0.730332 0.000000
vt  0.703186 0.671176 0.000000
vt  0.731857 0.666086 0.000000
vt  0.703232 0.671848 0.000000
vt  0.747085 0.666819 0.000000
vt  0.748639 0.732530 0.000000
vt  0.587609 0.811448 0.000000
vt  0.587609 0.811448 0.000000
vt  0.649719 0.961956 0.000000
vt  0.649719 0.961956 0.000000
vt  0.550618 0.823662 0.000000
vt  0.587609 0.811448 0.000000
vt  0.550618 0.823662 0.000000
vt  0.649719 0.961956 0.000000
vt  0.067037 0.515196 0.000000
vt  0.055608 0.663958 0.000000
vt  0.571978 0.557920 0.000000
vt  0.625864 0.557513 0.000000
vt  0.679695 0.557918 0.000000
vt  0.756032 0.560223 0.000000
vt  0.625864 0.557513 0.000000
vt  0.679695 0.557918 0.000000
vt  0.944262 0.560223 0.000000
vt  0.625864 0.557513 0.000000
vt  0.756032 0.560223 0.000000
vt  0.806202 0.560223 0.000000
vt  0.756032 0.560223 0.000000
vt  0.571978 0.557920 0.000000
vt  0.498275 0.560223 0.000000
vt  0.992439 0.363687 0.000000
vt  0.992597 0.308662 0.000000
vt  0.992439 0.363687 0.000000
vt  0.992438 0.402657 0.000000
vt  0.806202 0.560223 0.000000
vt  0.498220 0.461159 0.000000
vt  0.498275 0.560223 0.000000
vt  0.498220 0.461159 0.000000
vt  0.875438 0.575163 0.000000
vt  0.944262 0.560223 0.000000
vt  0.992439 0.363687 0.000000
vt  0.992438 0.402657 0.000000
vt  0.992438 0.402657 0.000000
vt  0.498220 0.461159 0.000000
vt  0.991918 0.196431 0.000000
vt  0.992597 0.308662 0.000000
vt  0.991918 0.196431 0.000000
vt  0.249292 0.041099 0.000000
vt  0.119423 0.002194 0.000000
vt  0.154876 0.002573 0.000000
vt  0.128136 0.016613 0.000000
vt  0.160447 0.001473 0.000000
vt  0.128136 0.016613 0.000000
vt  0.154876 0.002573 0.000000
vt  0.065726 0.014292 0.000000
vt  0.119423 0.002194 0.000000
vt  0.128136 0.016613 0.000000
vt  0.128136 0.016613 0.000000
vt  0.105093 0.028910 0.000000
vt  0.065726 0.014292 0.000000
vt  0.105093 0.028910 0.000000
vt  0.000825 0.069213 0.000000
vt  0.065726 0.014292 0.000000
vt  0.065726 0.014292 0.000000
vt  0.000825 0.069213 0.000000
vt  0.000703 0.039244 0.000000
vt  0.249292 0.041099 0.000000
vt  0.249314 0.055441 0.000000
vt  0.105093 0.028910 0.000000
vt  0.194639 0.033982 0.000000
vt  0.483032 0.114221 0.000000
vt  0.355217 0.119080 0.000000
vt  0.406174 0.120334 0.000000
vt  0.355217 0.119080 0.000000
vt  0.194639 0.033982 0.000000
vt  0.243215 0.037501 0.000000
vt  0.249314 0.055441 0.000000
vt  0.249314 0.089732 0.000000
vt  0.000825 0.069213 0.000000
vt  0.105093 0.028910 0.000000
vt  0.000703 0.095058 0.000000
vt  0.000825 0.069213 0.000000
vt  0.249314 0.089732 0.000000
vt  0.249292 0.105039 0.000000
vt  0.249314 0.089732 0.000000
vt  0.249292 0.105039 0.000000
vt  0.355217 0.119080 0.000000
vt  0.249314 0.055441 0.000000
vt  0.249314 0.055441 0.000000
vt  0.105093 0.028910 0.000000
vt  0.160984 0.032072 0.000000
vt  0.483032 0.114221 0.000000
vt  0.443088 0.117732 0.000000
vt  0.483032 0.114221 0.000000
vt  0.692830 0.969164 0.000000
vt  0.685579 0.991654 0.000000
vt  0.730212 0.975635 0.000000
vt  0.584242 0.936155 0.000000
vt  0.529882 0.993867 0.000000
vt  0.602549 0.993867 0.000000
vt  0.689094 0.993870 0.000000
vt  0.561277 0.000692 0.000000
vt  0.688827 -0.000098 0.000000
vt  0.564263 0.119120 0.000000
vt  0.697567 0.116528 0.000000
vt  0.507564 0.183764 0.000000
vt  0.505869 0.118716 0.000000
vt  0.580429 0.182675 0.000000
vt  0.697589 0.180917 0.000000
vt  0.507564 0.183764 0.000000
vt  0.580429 0.182675 0.000000
vt  0.697589 0.180917 0.000000
vt  0.503935 0.000692 0.000000
vt  0.505869 0.118716 0.000000
vt  0.503935 0.000692 0.000000
vt  0.489174 0.497239 0.000000
vt  0.351459 0.420971 0.000000
vt  0.352499 0.420971 0.000000
vt  0.000784 0.227894 0.000000
vt  0.105699 0.228145 0.000000
vt  0.216985 0.228421 0.000000
vt  0.351571 0.227894 0.000000
vt  0.023914 0.327327 0.000000
vt  0.104981 0.327662 0.000000
vt  0.216171 0.327327 0.000000
vt  0.351490 0.301452 0.000000
vt  0.352420 0.301452 0.000000
vt  0.025422 0.328212 0.000000
vt  0.216104 0.328075 0.000000
vt  0.351611 0.363299 0.000000
vt  0.352312 0.363299 0.000000
vt  0.351597 0.328057 0.000000
vt  0.352330 0.328057 0.000000
vt  0.104127 0.227894 0.000000
vt  0.216660 0.380224 0.000000
vt  0.104983 0.328371 0.000000
vt  0.352342 0.227894 0.000000
vt  0.009616 0.131504 0.000000
vt  0.104256 0.155747 0.000000
vt  0.105883 0.155747 0.000000
vt  0.223982 0.125749 0.000000
vt  0.216130 0.152222 0.000000
vt  0.351732 0.147623 0.000000
vt  0.352306 0.146326 0.000000
vt  0.469070 0.149411 0.000000
vt  0.989968 0.003451 0.000000
vt  0.909211 0.004273 0.000000
vt  0.996004 0.120663 0.000000
vt  0.989968 0.003451 0.000000
vt  0.909211 0.004273 0.000000
vt  0.885225 0.122889 0.000000
vt  0.885225 0.122889 0.000000
vt  0.996004 0.120663 0.000000
vt  0.943924 0.157220 0.000000
vt  0.507177 0.624822 0.000000
vt  0.600053 0.622523 0.000000
vt  0.943924 0.157220 0.000000
vt  0.217290 0.227894 0.000000
vt  0.217575 0.327327 0.000000
vt  0.217290 0.227894 0.000000
vt  0.489174 0.227894 0.000000
vt  0.489174 0.227894 0.000000
vt  0.471690 0.333380 0.000000
vt  0.217345 0.328075 0.000000
vt  0.470864 0.334174 0.000000
vt  0.217345 0.328075 0.000000
vt  0.217232 0.380224 0.000000
vt  0.217232 0.380224 0.000000
vt  0.470864 0.334174 0.000000
vt  0.217345 0.328075 0.000000
vt  0.470864 0.334174 0.000000
vt  0.229465 0.497239 0.000000
vt  0.351589 0.497239 0.000000
vt  0.352627 0.497239 0.000000
vt  0.217232 0.380224 0.000000
vt  0.229465 0.497239 0.000000
vt  0.072972 0.497239 0.000000
vt  0.470864 0.334174 0.000000
vt  0.072972 0.497239 0.000000
vt  0.002386 0.497239 0.000000
vt  0.218721 0.149411 0.000000
vt  0.223132 0.128232 0.000000
vt  0.483427 0.127273 0.000000
vt  0.017963 0.152222 0.000000
vt  0.105700 0.228142 0.000000
vt  0.104128 0.227914 0.000000
vt  0.017963 0.152222 0.000000
vt  0.000790 0.227921 0.000000
vt  0.017963 0.152222 0.000000
vt  0.104128 0.227914 0.000000
vt  0.216984 0.228396 0.000000
vt  0.105700 0.228142 0.000000
vt  0.217291 0.227882 0.000000
vt  0.218721 0.149411 0.000000
vt  0.351571 0.227971 0.000000
vt  0.351571 0.227971 0.000000
vt  0.218721 0.149411 0.000000
vt  0.352342 0.227879 0.000000
vt  0.489111 0.227891 0.000000
vt  0.352342 0.227879 0.000000
vt  0.971575 0.059997 0.000000
vt  0.948232 0.041698 0.000000
vt  0.948232 0.041698 0.000000
vt  0.971575 0.059997 0.000000
vt  0.925604 0.058708 0.000000
vt  0.597947 0.686709 0.000000
vt  0.501430 0.685191 0.000000
vt  0.516483 0.798440 0.000000
vt  0.516483 0.798440 0.000000
vt  0.594444 0.793024 0.000000
vt  0.597947 0.686709 0.000000
vt  0.925604 0.058708 0.000000
vt  0.950876 0.082499 0.000000
vt  0.948232 0.041698 0.000000
vt  0.925604 0.058708 0.000000
vt  0.950876 0.082499 0.000000
vt  0.971575 0.059997 0.000000
vt  0.950876 0.082499 0.000000
vt  0.950876 0.082499 0.000000
vt  0.501430 0.685191 0.000000
vt  0.501430 0.685191 0.000000
vt  0.597947 0.686709 0.000000
vt  0.901715 0.182549 0.000000
vt  0.901715 0.182549 0.000000
vt  0.982420 0.184037 0.000000
vt  0.982420 0.184037 0.000000
vt  0.216660 0.380224 0.000000
vt  0.104983 0.328371 0.000000
vt  0.133020 0.497239 0.000000
vt  0.229583 0.497239 0.000000
vt  0.133020 0.497239 0.000000
vt  0.133020 0.497239 0.000000
vt  0.072972 0.497239 0.000000
# 854 texture vertices

vn  0.000000 0.000000 -1.000000
vn  -0.533654 -0.765097 0.360332
vn  0.000000 0.000000 -1.000000
vn  0.343883 0.006505 0.938990
vn  0.943815 -0.251293 0.214628
vn  0.882185 -0.075692 -0.464779
vn  0.977148 0.112905 -0.180098
vn  0.421511 -0.337910 0.841514
vn  0.879842 -0.081853 -0.468165
vn  -0.062632 -0.821762 -0.566378
vn  0.905566 -0.272264 -0.325303
vn  0.878204 -0.402392 0.258533
vn  0.028440 -0.992664 0.117516
vn  0.104502 -0.877999 0.467115
vn  0.545969 -0.232073 0.805022
vn  0.183543 -0.981698 -0.050800
vn  -0.523061 -0.806634 0.275224
vn  0.051144 -0.926638 0.372461
vn  0.188769 -0.981997 -0.006986
vn  0.841901 -0.513000 -0.167435
vn  -0.284152 -0.958316 0.029789
vn  -0.882775 -0.095022 0.460085
vn  -0.660068 -0.083485 0.746552
vn  0.823753 0.450174 -0.344638
vn  0.887331 0.109982 -0.447826
vn  -0.627207 -0.209629 0.750112
vn  -0.855382 -0.309681 0.415235
vn  -0.292111 -0.432511 0.852998
vn  0.297886 0.714708 0.632816
vn  -0.291350 0.366744 0.883523
vn  -0.189904 -0.389998 0.901021
vn  0.802133 0.596959 0.014905
vn  -0.873985 0.124159 0.469824
vn  -0.615195 0.249961 0.747700
vn  0.680396 0.730204 0.062151
vn  -0.664461 -0.675209 0.320288
vn  -0.358114 0.213211 0.909008
vn  0.621586 0.376677 0.686838
vn  0.115752 0.721262 0.682922
vn  0.887283 0.423851 -0.181880
vn  0.699053 0.694582 -0.169945
vn  0.674136 0.672715 0.304950
vn  0.708211 0.672775 -0.214037
vn  -0.407863 0.221578 0.885749
vn  -0.885158 0.073893 0.459386
vn  0.377148 0.288438 0.880093
vn  0.960208 0.245491 0.133174
vn  0.851984 0.010510 -0.523462
vn  -0.226321 0.209755 0.951200
vn  0.776835 0.526832 0.344929
vn  0.298748 0.641672 0.706405
vn  0.871151 0.115228 -0.477303
vn  -0.842668 -0.436002 0.315932
vn  0.033851 0.999322 -0.014494
vn  -0.829226 0.540653 0.141702
vn  -0.956355 0.239990 0.166702
vn  -0.972889 -0.153522 0.172969
vn  -0.963937 0.206138 0.168322
vn  -0.952523 -0.252437 0.170220
vn  -0.789505 -0.595864 0.147065
vn  0.657536 0.743407 -0.122439
vn  -0.663667 0.036650 0.747130
vn  -0.570238 0.060392 0.819256
vn  -0.804546 0.122597 0.581098
vn  -0.165507 -0.054788 0.984686
vn  -0.155048 -0.260321 0.952992
vn  -0.757535 0.021785 0.652431
vn  0.190916 0.019375 0.981415
vn  -0.489344 0.761398 0.425224
vn  -0.091738 0.371383 0.923937
vn  -0.008174 0.924762 0.380457
vn  -0.656247 0.077379 0.750568
vn  -0.272468 -0.365352 0.890101
vn  -0.545830 -0.350462 0.761083
vn  0.331125 0.188758 0.924514
vn  0.583796 0.648275 0.488796
vn  -0.666360 -0.107159 0.737889
vn  0.804361 0.469846 0.363660
vn  -0.133188 0.383345 0.913952
vn  0.775717 -0.110273 -0.621372
vn  -0.495112 -0.540473 -0.680260
vn  0.843392 -0.515933 -0.150013
vn  0.675958 0.326143 0.660841
vn  -0.218274 0.692262 0.687844
vn  -0.934240 0.352459 -0.054475
vn  -0.178682 -0.622606 -0.761863
vn  0.866040 -0.382125 -0.322420
vn  0.848941 0.163524 0.502553
vn  -0.159923 0.537408 0.828020
vn  -0.927715 0.369325 -0.054254
vn  -0.340333 -0.610577 -0.715101
vn  0.850401 -0.280951 -0.444842
vn  0.853190 0.259214 0.452631
vn  -0.121006 0.135624 0.983343
vn  -0.829773 -0.295006 0.473759
vn  0.832737 -0.501707 -0.234179
vn  -0.933151 -0.199904 0.298777
vn  0.826078 -0.236731 -0.511424
vn  -0.263350 -0.577880 -0.772465
vn  0.728676 -0.591218 -0.345678
vn  0.713214 0.183706 0.676445
vn  -0.159165 0.750887 0.640964
vn  -0.834859 0.536727 -0.122204
vn  -0.873104 -0.463488 0.151219
vn  -0.066384 0.528721 0.846196
vn  0.522804 -0.848143 0.085612
vn  -0.541419 0.218740 0.811799
vn  -0.554282 0.066867 -0.829638
vn  -0.472960 0.756223 0.452147
vn  -0.824183 0.130153 -0.551165
vn  -0.333221 0.651066 0.681965
vn  -0.108148 -0.932654 -0.344182
vn  -0.850176 -0.121798 -0.512216
vn  -0.829915 0.240806 0.503243
vn  -0.269559 0.530275 0.803832
vn  0.582111 -0.644158 -0.496194
vn  0.217827 -0.760909 -0.611203
vn  0.478729 -0.753540 0.450551
vn  0.899681 0.002079 0.436543
vn  0.756289 -0.053035 0.652085
vn  -0.596455 0.449222 0.665162
vn  -0.416506 -0.268298 0.868642
vn  -0.908327 -0.320794 -0.268390
vn  0.434892 0.083259 -0.896625
vn  0.715326 0.229923 0.659882
vn  -0.470857 -0.150789 0.869228
vn  -0.851361 -0.415847 -0.319776
vn  0.642549 -0.028779 -0.765704
vn  0.788940 0.200030 0.581000
vn  -0.439956 -0.176544 0.880495
vn  -0.234506 -0.204408 0.950381
vn  -0.398897 -0.165034 0.902023
vn  0.847380 -0.004257 0.530970
vn  -0.857786 0.025507 -0.513374
vn  0.399890 0.252742 -0.881028
vn  0.800591 0.527972 0.283371
vn  0.847625 0.247202 0.469492
vn  -0.519761 0.506972 0.687625
vn  -0.858654 -0.267988 -0.436916
vn  -0.209035 -0.408066 -0.888700
vn  0.890374 -0.377230 -0.254818
vn  -0.785398 -0.586736 -0.197206
vn  0.798195 -0.091799 0.595364
vn  -0.444293 0.803365 0.396496
vn  0.087397 0.202817 0.975309
vn  -0.499856 -0.710824 0.494847
vn  -0.564814 0.128474 -0.815156
vn  0.352097 -0.125701 -0.927484
vn  0.613886 0.204530 -0.762438
vn  -0.493038 -0.063410 -0.867694
vn  0.771944 -0.339113 0.537685
vn  0.774187 -0.230046 -0.589672
vn  0.270070 -0.236166 -0.933428
vn  -0.351700 -0.934470 -0.055426
vn  -0.472938 -0.234684 -0.849266
vn  0.060424 -0.982628 0.175476
vn  -0.554404 -0.832163 -0.011878
vn  -0.149771 -0.977134 -0.150925
vn  0.404376 -0.797811 -0.447188
vn  -0.133925 -0.883344 0.449185
vn  -0.993692 -0.027426 0.108739
vn  -0.992228 -0.120206 0.032166
vn  -0.909969 -0.277491 -0.308148
vn  -0.422504 0.737585 -0.526744
vn  -0.882175 0.436431 -0.176904
vn  -0.888922 -0.294125 -0.351153
vn  0.185801 0.639068 -0.746371
vn  -0.934985 0.342663 0.091573
vn  0.368817 0.813268 -0.450077
vn  -0.790125 0.316179 -0.525103
vn  0.303752 0.358645 -0.882671
vn  -0.318652 0.850902 -0.417644
vn  0.397790 0.726079 -0.560867
vn  -0.958260 0.263905 -0.109965
vn  -0.472892 0.281993 -0.834777
vn  0.454745 0.140037 -0.879543
vn  -0.962932 0.055457 -0.263981
vn  -0.050140 0.443309 -0.894965
vn  -0.610437 0.453670 -0.649269
vn  0.734897 0.078054 -0.673672
vn  -0.539885 -0.414860 0.732403
vn  -0.879375 0.026230 -0.475407
vn  -0.816340 0.048496 -0.575532
vn  -0.955186 0.115315 -0.272623
vn  -0.492322 -0.070585 -0.867546
vn  -0.318778 -0.411418 -0.853882
vn  -0.935125 0.013204 -0.354071
vn  -0.004306 -0.090836 -0.995857
vn  -0.607533 0.755687 -0.244624
vn  -0.403461 0.356319 -0.842767
vn  -0.140576 0.918363 -0.369929
vn  -0.873704 0.066869 -0.481841
vn  -0.539106 -0.441235 -0.717410
vn  -0.767414 -0.390347 -0.508630
vn  0.021929 0.163197 -0.986350
vn  0.383725 0.624800 -0.679986
vn  -0.878324 -0.117408 -0.463424
vn  -0.066016 0.238182 -0.968974
vn  -0.940401 0.069039 -0.332986
vn  0.905606 0.024159 -0.423431
vn  0.547200 -0.290216 0.785078
vn  0.786618 -0.059346 -0.614581
vn  -0.323831 0.181627 -0.928518
vn  -0.967765 0.156424 -0.197391
vn  -0.596272 -0.022864 0.802457
vn  0.789646 -0.215774 0.574369
vn  0.822285 -0.034317 -0.568041
vn  -0.055359 0.085209 -0.994824
vn  -0.955953 0.076543 -0.283362
vn  -0.598339 0.046758 0.799877
vn  0.637517 -0.275877 0.719350
vn  0.852161 -0.078207 -0.517402
vn  -0.068462 0.002413 -0.997651
vn  -0.921766 -0.215458 -0.322373
vn  -0.691397 -0.348657 0.632778
vn  0.829137 -0.060746 -0.555736
vn  -0.599423 -0.324451 0.731727
vn  0.867347 -0.117239 -0.483698
vn  0.736653 -0.228773 0.636400
vn  0.891828 -0.145279 -0.428413
vn  -0.247116 0.063615 -0.966895
vn  -0.920245 0.328140 -0.213246
vn  -0.576226 0.269126 0.771709
vn  -0.297532 -0.655149 0.694446
vn  -0.917282 0.098617 -0.385836
vn  0.572158 -0.674264 -0.466908
vn  -0.963573 -0.262272 0.052361
vn  0.333196 0.303767 0.892584
vn  -0.910928 0.381259 0.157641
vn  -0.021629 0.172552 0.984763
vn  -0.973110 0.217588 -0.075581
vn  0.648502 -0.701097 0.296492
vn  0.055547 -0.071786 0.995872
vn  -0.872627 -0.174159 0.456280
vn  -0.979357 0.073347 -0.188361
vn  0.943692 -0.239049 -0.228696
vn  0.918406 -0.368637 0.143654
vn  0.232157 -0.752988 -0.615721
vn  0.080142 0.010481 -0.996728
vn  -0.122018 -0.161041 -0.979376
vn  -0.986131 -0.005997 0.165863
vn  -0.999677 0.012550 -0.022101
vn  -0.295446 -0.073600 0.952520
vn  0.941069 0.309680 0.135969
vn  -0.070852 -0.093391 -0.993105
vn  -0.914385 -0.396634 -0.081127
vn  -0.244348 -0.079216 0.966447
vn  0.971277 -0.220285 -0.089974
vn  -0.035423 -0.038612 -0.998626
vn  -0.952189 -0.287431 -0.103532
vn  -0.954172 -0.048460 -0.295309
vn  -0.985402 -0.067019 -0.156498
vn  -0.023638 -0.272268 -0.961931
vn  -0.120586 0.169592 0.978109
vn  0.895382 0.420937 0.145271
vn  0.195054 0.407187 -0.892274
vn  0.128856 -0.018962 -0.991482
vn  -0.928613 0.368007 -0.047423
vn  -0.155971 -0.017072 0.987614
vn  0.625356 -0.269916 0.732172
vn  0.756856 -0.374546 -0.535616
vn  -0.268110 -0.515478 0.813879
vn  0.019494 -0.200983 -0.979401
vn  -0.643650 0.764906 0.025174
vn  -0.740456 0.062621 -0.669181
vn  -0.635783 -0.747289 0.193232
# 266 vertex normals

g (null)
usemtl fat
s 1
f 3/3/3 1/1/1 2/2/2
f 6/6/6 7/7/7 11/12/11
f 6/6/6 11/139/11 9/9/9
f 7/140/7 10/10/10 8/8/8
f 4/4/4 5/5/5 8/11/8
f 11/12/11 5/141/5 9/9/9
f 11/12/11 12/13/12 5/5/5
f 12/143/12 7/7/7 8/142/8
f 11/12/11 7/7/7 12/144/12
f 5/5/5 12/146/12 8/145/8
f 16/17/16 18/19/18 15/16/15
f 18/19/18 16/17/16 19/20/19
f 19/21/19 16/17/16 17/18/17
f 15/16/15 18/19/18 14/15/14
f 18/293/18 20/294/20 14/292/14
f 14/15/14 21/22/21 13/14/13
f 14/292/14 20/294/20 21/295/21
f 21/22/21 2/147/2 13/14/13
f 7/26/7 25/27/25 24/25/24
f 27/29/27 28/30/28 26/28/26
f 31/31/31 28/30/28 8/148/8
f 34/37/34 31/35/31 30/32/30
f 23/24/23 28/30/28 27/29/27
f 28/30/28 23/24/23 4/149/4
f 23/24/23 27/29/27 22/23/22
f 27/29/27 26/150/26 33/36/33
f 35/38/35 32/34/32 7/26/7
f 6/6/6 25/27/25 7/26/7
f 26/28/26 28/30/28 31/35/31
f 35/38/35 29/151/29 32/34/32
f 33/36/33 26/28/26 34/37/34
f 24/25/24 35/38/35 7/26/7
f 26/28/26 31/35/31 34/37/34
f 34/37/34 30/32/30 37/40/37
f 29/33/29 39/43/39 30/32/30
f 34/37/34 36/39/36 33/36/33
f 37/40/37 36/39/36 34/37/34
f 37/42/37 39/152/39 38/41/38
f 38/154/38 39/153/39 42/47/42
f 41/46/41 40/44/40 38/45/38
f 38/45/38 42/47/42 41/46/41
f 37/40/37 30/32/30 39/43/39
f 39/156/39 29/155/29 35/38/35
f 39/157/39 35/38/35 42/47/42
f 42/47/42 35/38/35 43/48/43
f 42/47/42 43/48/43 41/46/41
f 35/38/35 24/25/24 43/48/43
f 45/53/45 44/52/44 23/158/23
f 15/49/15 46/54/46 44/52/44
f 46/301/46 47/298/47 4/300/4
f 47/298/47 9/303/9 5/302/5
f 44/52/44 45/53/45 17/50/17
f 45/53/45 23/160/23 22/159/22
f 16/51/16 15/49/15 44/52/44
f 46/54/46 4/161/4 44/52/44
f 44/52/44 4/163/4 23/162/23
f 47/298/47 5/305/5 4/304/4
f 47/298/47 48/299/48 9/306/9
f 46/308/46 15/307/15 47/298/47
f 14/296/14 47/298/47 15/309/15
f 47/298/47 14/296/14 48/299/48
f 14/296/14 13/297/13 48/299/48
f 16/51/16 44/52/44 17/50/17
f 49/55/49 29/165/29 30/164/30
f 10/168/10 31/167/31 8/166/8
f 32/170/32 52/59/52 7/169/7
f 31/172/31 49/55/49 30/171/30
f 29/173/29 51/58/51 50/57/50
f 29/175/29 49/55/49 51/174/51
f 50/57/50 52/59/52 32/176/32
f 29/178/29 50/57/50 32/177/32
f 7/179/7 52/59/52 10/56/10
f 53/61/53 31/181/31 10/180/10
f 53/60/53 49/55/49 31/182/31
f 65/74/65 63/72/63 66/75/66
f 73/84/73 63/72/63 62/183/62
f 77/88/77 64/73/64 63/72/63
f 68/78/68 65/74/65 66/75/66
f 38/185/38 68/78/68 37/184/37
f 37/186/37 68/78/68 66/76/66
f 37/188/37 66/76/66 36/187/36
f 69/79/69 55/63/55 67/77/67
f 70/80/70 67/90/67 65/74/65
f 68/78/68 70/80/70 65/74/65
f 71/81/71 54/62/54 69/79/69
f 63/72/63 64/73/64 72/82/72
f 56/83/56 72/82/72 64/73/64
f 56/83/56 57/65/57 72/82/72
f 62/189/62 63/72/63 72/82/72
f 72/82/72 59/67/59 62/71/62
f 69/79/69 54/62/54 55/63/55
f 67/77/67 55/63/55 56/64/56
f 57/65/57 59/67/59 72/82/72
f 62/71/62 59/67/59 58/66/58
f 66/76/66 73/190/73 36/68/36
f 63/72/63 73/192/73 66/75/66
f 74/193/74 60/69/60 36/68/36
f 62/195/62 58/194/58 74/85/74
f 73/197/73 62/196/62 74/85/74
f 73/199/73 74/198/74 36/68/36
f 74/85/74 58/201/58 60/200/60
f 38/202/38 75/86/75 68/78/68
f 75/86/75 38/203/38 76/87/76
f 67/90/67 77/88/77 65/74/65
f 67/89/67 64/73/64 77/88/77
f 65/74/65 77/88/77 63/72/63
f 67/89/67 56/64/56 64/73/64
f 70/80/70 71/204/71 69/79/69
f 70/80/70 68/78/68 75/86/75
f 75/86/75 76/87/76 70/80/70
f 71/205/71 70/80/70 76/87/76
f 69/79/69 67/90/67 70/80/70
f 38/207/38 40/206/40 76/87/76
f 61/70/61 76/87/76 40/208/40
f 54/62/54 76/87/76 61/70/61
f 71/209/71 76/87/76 54/62/54
f 8/211/8 28/30/28 4/210/4
f 51/213/51 49/212/49 79/92/79
f 78/91/78 52/215/52 50/214/50
f 50/217/50 51/216/51 78/91/78
f 91/104/91 95/108/95 53/218/53
f 51/219/51 79/92/79 78/91/78
f 80/93/80 52/220/52 78/91/78
f 52/222/52 80/93/80 10/221/10
f 53/224/53 79/92/79 49/223/49
f 86/99/86 82/95/82 81/94/81
f 82/95/82 86/99/86 96/109/96
f 96/109/96 88/101/88 82/95/82
f 83/96/83 82/95/82 88/101/88
f 88/101/88 89/102/89 83/96/83
f 84/97/84 83/96/83 89/102/89
f 90/103/90 85/98/85 84/97/84
f 84/97/84 89/102/89 90/103/90
f 81/94/81 85/226/85 90/225/90
f 90/227/90 86/99/86 81/94/81
f 91/104/91 92/105/92 86/99/86
f 87/100/87 86/99/86 92/105/92
f 92/105/92 88/101/88 87/100/87
f 88/101/88 92/105/92 93/106/93
f 93/106/93 94/107/94 88/101/88
f 89/102/89 88/101/88 94/107/94
f 97/110/97 90/103/90 89/102/89
f 97/228/97 95/108/95 91/104/91
f 10/229/10 80/93/80 91/104/91
f 92/105/92 91/104/91 98/111/98
f 98/111/98 93/106/93 92/105/92
f 93/106/93 80/93/80 78/91/78
f 78/91/78 79/92/79 93/106/93
f 94/107/94 93/106/93 79/92/79
f 79/92/79 53/231/53 95/230/95
f 95/232/95 94/107/94 79/92/79
f 91/104/91 53/234/53 10/233/10
f 87/100/87 88/101/88 96/109/96
f 96/109/96 86/99/86 87/100/87
f 97/236/97 86/99/86 90/235/90
f 89/102/89 94/107/94 97/110/97
f 91/104/91 86/99/86 97/237/97
f 95/238/95 97/110/97 94/107/94
f 80/93/80 93/106/93 98/111/98
f 98/111/98 91/104/91 80/93/80
f 81/94/81 100/113/100 99/112/99
f 100/113/100 81/94/81 82/95/82
f 82/95/82 101/114/101 100/113/100
f 101/114/101 82/95/82 83/96/83
f 83/96/83 84/97/84 101/114/101
f 102/115/102 101/114/101 84/97/84
f 84/97/84 103/116/103 102/115/102
f 103/116/103 84/97/84 85/98/85
f 85/240/85 81/94/81 103/239/103
f 99/112/99 103/241/103 81/94/81
f 111/124/111 106/119/106 104/117/104
f 121/135/121 104/117/104 105/118/105
f 108/121/108 109/122/109 103/242/103
f 108/121/108 110/123/110 111/124/111
f 111/124/111 109/122/109 108/121/108
f 111/124/111 110/123/110 107/120/107
f 112/125/112 107/120/107 110/123/110
f 104/117/104 109/122/109 111/124/111
f 111/124/111 107/120/107 106/119/106
f 106/245/106 112/244/112 110/243/110
f 112/248/112 106/247/106 107/246/107
f 106/251/106 110/250/110 108/249/108
f 108/254/108 104/253/104 106/252/106
f 108/257/108 99/256/99 104/255/104
f 103/260/103 99/259/99 108/258/108
f 102/262/102 103/261/103 109/122/109
f 104/117/104 115/128/115 105/118/105
f 116/129/116 117/130/117 104/263/104
f 117/131/117 118/132/118 113/264/113
f 105/118/105 115/128/115 120/134/120
f 120/134/120 119/133/119 105/118/105
f 113/126/113 114/127/114 115/137/115
f 115/137/115 114/127/114 118/265/118
f 117/267/117 116/266/116 120/134/120
f 119/133/119 120/134/120 116/268/116
f 114/270/114 113/269/113 118/132/118
f 105/118/105 101/272/101 102/271/102
f 116/129/116 104/274/104 99/273/99
f 99/276/99 100/275/100 116/129/116
f 119/133/119 100/278/100 101/277/101
f 104/117/104 121/135/121 109/122/109
f 105/118/105 119/133/119 101/279/101
f 119/133/119 116/281/116 100/280/100
f 121/135/121 102/282/102 109/122/109
f 102/283/102 121/135/121 105/118/105
f 113/285/113 104/284/104 117/130/117
f 115/128/115 104/117/104 113/136/113
f 115/137/115 118/286/118 120/138/120
f 118/288/118 117/287/117 120/138/120
f 127/317/127 124/328/124 123/313/123
f 129/319/129 125/315/125 124/314/124
f 129/319/129 124/314/124 128/318/128
f 129/353/129 130/320/130 125/352/125
f 130/320/130 126/316/126 125/354/125
f 130/321/130 123/355/123 126/331/126
f 127/357/127 123/356/123 130/321/130
f 132/326/132 130/320/130 129/358/129
f 131/325/131 127/359/127 132/327/132
f 133/329/133 129/323/129 128/330/128
f 133/361/133 131/324/131 129/360/129
f 122/311/122 131/324/131 133/362/133
f 122/312/122 127/363/127 131/325/131
f 132/326/132 129/364/129 131/324/131
f 130/321/130 132/327/132 127/365/127
f 128/318/128 124/328/124 127/317/127
f 19/367/19 122/311/122 18/366/18
f 19/368/19 2/310/2 122/312/122
f 18/370/18 122/311/122 133/369/133
f 18/424/18 133/421/133 20/423/20
f 133/421/133 128/422/128 20/425/20
f 21/427/21 20/426/20 128/422/128
f 21/371/21 128/330/128 127/322/127
f 2/310/2 127/372/127 122/312/122
f 2/374/2 21/373/21 127/322/127
f 137/336/137 136/335/136 135/334/135
f 138/337/138 136/376/136 137/375/137
f 139/339/139 134/377/134 138/338/138
f 139/378/139 135/333/135 134/332/134
f 137/336/137 135/334/135 124/379/124
f 139/381/139 124/380/124 135/333/135
f 124/384/124 139/383/139 123/382/123
f 137/336/137 124/386/124 125/385/125
f 126/389/126 137/388/137 125/387/125
f 138/337/138 137/391/137 126/390/126
f 139/339/139 138/338/138 126/392/126
f 139/339/139 126/394/126 123/393/123
f 135/396/135 140/340/140 134/395/134
f 135/397/135 141/341/141 140/340/140
f 142/342/142 134/398/134 140/343/140
f 136/399/136 143/345/143 141/344/141
f 141/402/141 143/401/143 142/400/142
f 142/405/142 140/404/140 141/403/141
f 138/407/138 143/346/143 136/406/136
f 136/409/136 141/341/141 135/408/135
f 134/411/134 142/347/142 138/410/138
f 138/412/138 144/348/144 143/346/143
f 138/413/138 142/347/142 144/348/144
f 143/414/143 145/349/145 146/350/146
f 146/350/146 142/416/142 143/415/143
f 143/346/143 144/351/144 145/417/145
f 144/351/144 146/419/146 145/418/145
f 146/420/146 144/351/144 142/347/142
f 2/291/2 19/290/19 17/289/17
f 1/1/1 3/3/3 2/2/2
f 1/428/1 3/430/3 2/429/2
f 149/434/149 6/433/6 152/439/152
f 152/566/152 6/433/6 9/436/9
f 151/437/151 149/567/149 150/435/150
f 148/432/148 147/431/147 150/438/150
f 148/568/148 152/439/152 9/436/9
f 153/440/153 152/439/152 148/432/148
f 149/434/149 153/570/153 150/569/150
f 149/434/149 152/439/152 153/571/153
f 153/573/153 148/432/148 150/572/150
f 157/446/157 156/444/156 155/443/155
f 156/444/156 157/446/157 158/447/158
f 156/444/156 158/448/158 17/445/17
f 157/446/157 155/443/155 154/442/154
f 159/721/159 157/720/157 154/719/154
f 160/449/160 154/442/154 13/441/13
f 159/721/159 154/719/154 160/722/160
f 2/574/2 160/449/160 13/441/13
f 25/454/25 149/453/149 24/452/24
f 163/457/163 27/456/27 162/455/162
f 163/457/163 166/458/166 150/575/150
f 166/462/166 168/464/168 165/459/165
f 163/457/163 161/451/161 27/456/27
f 161/451/161 163/457/163 147/576/147
f 27/456/27 161/451/161 22/450/22
f 162/577/162 27/456/27 33/463/33
f 167/461/167 169/465/169 149/453/149
f 25/454/25 6/433/6 149/453/149
f 163/457/163 162/455/162 166/462/166
f 164/578/164 169/465/169 167/461/167
f 162/455/162 33/463/33 168/464/168
f 169/465/169 24/452/24 149/453/149
f 166/462/166 162/455/162 168/464/168
f 165/459/165 168/464/168 170/467/170
f 172/470/172 164/460/164 165/459/165
f 36/466/36 168/464/168 33/463/33
f 36/466/36 170/467/170 168/464/168
f 172/579/172 170/469/170 171/468/171
f 172/580/172 171/581/171 173/474/173
f 40/471/40 41/473/41 171/472/171
f 173/474/173 171/472/171 41/473/41
f 165/459/165 170/467/170 172/470/172
f 164/582/164 172/583/172 169/465/169
f 169/465/169 172/584/172 173/474/173
f 169/465/169 173/474/173 43/475/43
f 43/475/43 173/474/173 41/473/41
f 24/452/24 169/465/169 43/475/43
f 174/479/174 45/480/45 161/585/161
f 175/481/175 155/476/155 174/479/174
f 176/725/176 175/728/175 147/727/147
f 9/730/9 176/725/176 148/729/148
f 45/480/45 174/479/174 17/477/17
f 161/587/161 45/480/45 22/586/22
f 155/476/155 156/478/156 174/479/174
f 147/588/147 175/481/175 174/479/174
f 147/590/147 174/479/174 161/589/161
f 148/732/148 176/725/176 147/731/147
f 48/726/48 176/725/176 9/733/9
f 155/734/155 175/735/175 176/725/176
f 176/725/176 154/723/154 155/736/155
f 154/723/154 176/725/176 48/726/48
f 13/724/13 154/723/154 48/726/48
f 174/479/174 156/478/156 17/477/17
f 164/592/164 177/482/177 165/591/165
f 166/594/166 151/595/151 150/593/150
f 180/486/180 167/597/167 149/596/149
f 177/482/177 166/599/166 165/598/165
f 179/485/179 164/600/164 178/484/178
f 177/482/177 164/602/164 179/601/179
f 180/486/180 178/484/178 167/603/167
f 178/484/178 164/605/164 167/604/167
f 180/486/180 149/606/149 151/483/151
f 166/608/166 181/488/181 151/607/151
f 177/482/177 181/487/181 166/609/166
f 183/499/183 185/501/185 186/502/186
f 183/499/183 193/511/193 182/610/182
f 184/500/184 197/515/197 183/499/183
f 185/501/185 188/505/188 186/502/186
f 188/505/188 171/612/171 170/611/170
f 188/505/188 170/613/170 186/503/186
f 186/503/186 170/615/170 36/614/36
f 55/490/55 189/506/189 187/504/187
f 187/517/187 190/507/190 185/501/185
f 190/507/190 188/505/188 185/501/185
f 54/489/54 191/508/191 189/506/189
f 184/500/184 183/499/183 192/509/192
f 192/509/192 56/510/56 184/500/184
f 57/492/57 56/510/56 192/509/192
f 183/499/183 182/616/182 192/509/192
f 59/494/59 192/509/192 182/498/182
f 54/489/54 189/506/189 55/490/55
f 55/490/55 187/504/187 56/491/56
f 59/494/59 57/492/57 192/509/192
f 59/494/59 182/498/182 58/493/58
f 193/617/193 186/503/186 36/495/36
f 193/619/193 183/499/183 186/502/186
f 60/496/60 194/620/194 36/495/36
f 58/621/58 182/622/182 194/512/194
f 182/623/182 193/624/193 194/512/194
f 194/625/194 193/626/193 36/495/36
f 58/628/58 194/512/194 60/627/60
f 195/513/195 171/629/171 188/505/188
f 171/630/171 195/513/195 196/514/196
f 197/515/197 187/517/187 185/501/185
f 184/500/184 187/516/187 197/515/197
f 197/515/197 185/501/185 183/499/183
f 56/491/56 187/516/187 184/500/184
f 191/631/191 190/507/190 189/506/189
f 188/505/188 190/507/190 195/513/195
f 196/514/196 195/513/195 190/507/190
f 190/507/190 191/632/191 196/514/196
f 187/517/187 189/506/189 190/507/190
f 40/633/40 171/634/171 196/514/196
f 196/514/196 61/497/61 40/635/40
f 196/514/196 54/489/54 61/497/61
f 196/514/196 191/636/191 54/489/54
f 163/457/163 150/638/150 147/637/147
f 177/639/177 179/640/179 199/519/199
f 180/642/180 198/518/198 178/641/178
f 179/643/179 178/644/178 198/518/198
f 215/535/215 211/531/211 181/645/181
f 199/519/199 179/646/179 198/518/198
f 180/647/180 200/520/200 198/518/198
f 200/520/200 180/649/180 151/648/151
f 199/519/199 181/651/181 177/650/177
f 202/522/202 206/526/206 201/521/201
f 206/526/206 202/522/202 216/536/216
f 208/528/208 216/536/216 202/522/202
f 202/522/202 203/523/203 208/528/208
f 209/529/209 208/528/208 203/523/203
f 203/523/203 204/524/204 209/529/209
f 205/525/205 210/530/210 204/524/204
f 209/529/209 204/524/204 210/530/210
f 205/653/205 201/521/201 210/652/210
f 206/526/206 210/654/210 201/521/201
f 212/532/212 211/531/211 206/526/206
f 206/526/206 207/527/207 212/532/212
f 208/528/208 212/532/212 207/527/207
f 212/532/212 208/528/208 213/533/213
f 214/534/214 213/533/213 208/528/208
f 208/528/208 209/529/209 214/534/214
f 210/530/210 217/537/217 209/529/209
f 215/535/215 217/655/217 211/531/211
f 200/520/200 151/656/151 211/531/211
f 211/531/211 212/532/212 218/538/218
f 213/533/213 218/538/218 212/532/212
f 200/520/200 213/533/213 198/518/198
f 199/519/199 198/518/198 213/533/213
f 213/533/213 214/534/214 199/519/199
f 181/658/181 199/519/199 215/657/215
f 214/534/214 215/659/215 199/519/199
f 181/661/181 211/531/211 151/660/151
f 208/528/208 207/527/207 216/536/216
f 206/526/206 216/536/216 207/527/207
f 206/526/206 217/663/217 210/662/210
f 214/534/214 209/529/209 217/537/217
f 206/526/206 211/531/211 217/664/217
f 217/537/217 215/665/215 214/534/214
f 213/533/213 200/520/200 218/538/218
f 211/531/211 218/538/218 200/520/200
f 220/540/220 201/521/201 219/539/219
f 201/521/201 220/540/220 202/522/202
f 221/541/221 202/522/202 220/540/220
f 202/522/202 221/541/221 203/523/203
f 204/524/204 203/523/203 221/541/221
f 221/541/221 222/542/222 204/524/204
f 223/543/223 204/524/204 222/542/222
f 204/524/204 223/543/223 205/525/205
f 201/521/201 205/667/205 223/666/223
f 223/668/223 219/539/219 201/521/201
f 226/546/226 231/551/231 224/544/224
f 224/544/224 241/562/241 225/545/225
f 229/549/229 228/548/228 223/669/223
f 230/550/230 228/548/228 231/551/231
f 229/549/229 231/551/231 228/548/228
f 230/550/230 231/551/231 227/547/227
f 227/547/227 232/552/232 230/550/230
f 229/549/229 224/544/224 231/551/231
f 227/547/227 231/551/231 226/546/226
f 232/671/232 226/672/226 230/670/230
f 226/674/226 232/675/232 227/673/227
f 230/677/230 226/678/226 228/676/228
f 224/680/224 228/681/228 226/679/226
f 219/683/219 228/684/228 224/682/224
f 219/686/219 223/687/223 228/685/228
f 223/688/223 222/689/222 229/549/229
f 235/555/235 224/544/224 225/545/225
f 237/557/237 236/556/236 224/690/224
f 238/559/238 237/558/237 233/691/233
f 235/555/235 225/545/225 240/561/240
f 239/560/239 240/561/240 225/545/225
f 234/554/234 233/553/233 235/564/235
f 234/554/234 235/564/235 238/692/238
f 236/693/236 237/694/237 240/561/240
f 240/561/240 239/560/239 236/695/236
f 233/696/233 234/697/234 238/559/238
f 221/699/221 225/545/225 222/698/222
f 224/701/224 236/556/236 219/700/219
f 220/702/220 219/703/219 236/556/236
f 220/705/220 239/560/239 221/704/221
f 241/562/241 224/544/224 229/549/229
f 239/560/239 225/545/225 221/706/221
f 236/708/236 239/560/239 220/707/220
f 222/709/222 241/562/241 229/549/229
f 241/562/241 222/710/222 225/545/225
f 224/711/224 233/712/233 237/557/237
f 224/544/224 235/555/235 233/563/233
f 238/713/238 235/564/235 240/565/240
f 237/714/237 238/715/238 240/565/240
f 244/755/244 247/744/247 243/740/243
f 245/742/245 249/746/249 244/741/244
f 244/741/244 249/746/249 248/745/248
f 250/747/250 249/780/249 245/779/245
f 246/743/246 250/747/250 245/781/245
f 243/782/243 250/748/250 246/758/246
f 243/783/243 247/784/247 250/748/250
f 250/747/250 252/753/252 249/785/249
f 247/786/247 251/752/251 252/754/252
f 249/750/249 253/756/253 248/757/248
f 251/751/251 253/788/253 249/787/249
f 251/751/251 242/738/242 253/789/253
f 247/790/247 242/739/242 251/752/251
f 249/791/249 252/753/252 251/751/251
f 252/754/252 250/748/250 247/792/247
f 244/755/244 248/745/248 247/744/247
f 242/738/242 158/794/158 157/793/157
f 2/737/2 158/795/158 242/739/242
f 242/738/242 157/797/157 253/796/253
f 253/848/253 157/851/157 159/850/159
f 248/849/248 253/848/253 159/852/159
f 159/853/159 160/854/160 248/849/248
f 248/757/248 160/798/160 247/749/247
f 247/799/247 2/737/2 242/739/242
f 160/800/160 2/801/2 247/749/247
f 256/762/256 257/763/257 255/761/255
f 256/803/256 258/764/258 257/802/257
f 254/804/254 259/766/259 258/765/258
f 255/760/255 259/805/259 254/759/254
f 255/761/255 257/763/257 244/806/244
f 244/807/244 259/808/259 255/760/255
f 259/810/259 244/811/244 243/809/243
f 244/813/244 257/763/257 245/812/245
f 257/815/257 246/816/246 245/814/245
f 257/818/257 258/764/258 246/817/246
f 258/765/258 259/766/259 246/819/246
f 246/821/246 259/766/259 243/820/243
f 260/767/260 255/823/255 254/822/254
f 261/768/261 255/824/255 260/767/260
f 254/825/254 262/769/262 260/770/260
f 263/772/263 256/826/256 261/771/261
f 263/828/263 261/829/261 262/827/262
f 260/831/260 262/832/262 261/830/261
f 263/773/263 258/834/258 256/833/256
f 261/768/261 256/836/256 255/835/255
f 262/774/262 254/838/254 258/837/258
f 264/775/264 258/839/258 263/773/263
f 262/774/262 258/840/258 264/775/264
f 265/776/265 263/841/263 266/777/266
f 262/843/262 266/777/266 263/842/263
f 264/778/264 263/773/263 265/844/265
f 266/846/266 264/778/264 265/845/265
f 264/778/264 266/847/266 262/774/262
f 158/717/158 2/718/2 17/716/17
f 3/430/3 1/428/1 2/429/2
# 528 faces

g
# object (null) to come ...
#
v  -20.054968 45.350986 2.521211
v  -26.385664 42.833630 6.554838
v  -26.951456 40.781311 6.777392
v  -23.003141 34.656990 3.680869
v  -23.719494 50.271938 6.518245
v  -28.717028 43.717922 8.782539
v  -29.282820 41.665604 9.005093
v  -28.430239 33.184521 8.371206
v  -28.265306 51.996181 10.861930
v  -32.976051 34.908764 12.714891
v  -33.692406 50.523712 15.552268
v  -31.048389 44.602215 11.010240
v  -31.614183 42.549900 11.232793
v  -36.640579 39.829716 16.711926
v  -25.081362 42.630802 8.000343
v  -25.647156 40.578484 8.222897
v  -27.412725 43.515095 10.228043
v  -27.978518 41.462776 10.450597
v  -29.744089 44.399387 12.455745
v  -30.309881 42.347073 12.678298
v  -3.121429 34.009430 -15.674965
v  -3.687222 31.957113 -15.452412
v  -1.817127 33.806602 -14.229460
v  -2.382919 31.754286 -14.006907
v  -35.588615 45.336823 16.535450
# 25 vertices

vt  0.033358 0.643728 0.500000
vt  0.190411 0.923560 0.500000
vt  0.402692 0.503812 0.999501
vt  0.402692 0.647326 0.999501
vt  0.403043 0.503812 0.999501
vt  0.403044 0.647326 0.999501
vt  0.033710 0.643728 0.500000
vt  0.190763 0.923560 0.500000
vt  0.033358 0.363896 0.500000
vt  0.033710 0.363896 0.500000
vt  0.190411 0.084064 0.500000
vt  0.402692 0.360297 0.999501
vt  0.403043 0.360297 0.999501
vt  0.190763 0.084064 0.500000
vt  0.402692 0.647326 0.000500
vt  0.402692 0.503812 0.000500
vt  0.403044 0.647326 0.000500
vt  0.403043 0.503812 0.000500
vt  0.402692 0.360297 0.000499
vt  0.403043 0.360297 0.000499
vt  0.408249 0.287497 0.999500
vt  0.408249 0.367848 0.999500
vt  0.492649 0.287497 0.999500
vt  0.492649 0.367848 0.999500
vt  0.408249 0.207147 0.999500
vt  0.492649 0.207147 0.999500
vt  0.492649 0.367848 0.000500
vt  0.408249 0.367848 0.000500
vt  0.492649 0.287497 0.000500
vt  0.408249 0.287497 0.000500
vt  0.492649 0.207147 0.000500
vt  0.408249 0.207147 0.000500
vt  0.492649 1.036942 0.999501
vt  0.408248 1.036942 0.999501
vt  0.492649 1.036942 0.000500
vt  0.408248 1.036942 0.000500
vt  0.450449 0.037941 0.500000
vt  0.483600 0.371280 0.999497
vt  0.402049 0.371280 0.999497
vt  0.402049 1.040375 0.999500
vt  0.483600 1.040375 0.999500
vt  0.402049 0.371280 0.000500
vt  0.483600 0.371280 0.000500
vt  0.483600 1.040375 0.000503
vt  0.402049 1.040375 0.000503
vt  0.483600 0.210579 0.000500
vt  0.402049 0.210579 0.000500
vt  0.442825 0.041374 0.499997
vt  0.402049 0.210579 0.999497
vt  0.483600 0.210579 0.999497
# 50 texture vertices

vn  -0.389032 0.160350 -0.496373
vn  -0.628370 0.166896 -0.723859
vn  -0.654743 0.017695 -0.723332
vn  -0.211338 -0.010881 -0.247951
vn  -0.399922 0.133240 -0.497008
vn  -0.207844 0.058203 -0.244286
vn  -0.225136 0.009128 -0.235568
vn  -0.663744 -0.021282 -0.717279
vn  -0.628524 0.222238 -0.714889
vn  -0.462666 0.000898 -0.458963
vn  -0.218812 0.077773 -0.228768
vn  -0.640871 0.183781 -0.712545
vn  -0.664946 0.034223 -0.709472
vn  -0.467005 -0.027231 -0.452338
vn  0.664946 -0.034223 0.709472
vn  0.640871 -0.183781 0.712545
vn  0.225136 -0.009128 0.235568
vn  0.207844 -0.058203 0.244286
vn  0.654743 -0.017695 0.723332
vn  0.628370 -0.166896 0.723859
vn  0.227291 -0.086212 -0.217184
vn  0.227291 -0.086212 -0.217184
vn  0.227291 -0.086212 -0.217184
vn  0.227291 -0.086212 -0.217184
vn  -0.246427 0.045324 -0.208522
# 25 vertex normals

g (null)
usemtl axe
s 2
f 271/855/271 267/856/267 272/857/272
f 268/858/268 272/857/272 267/856/267
f 272/875/272 268/876/268 273/877/273
f 269/878/269 273/877/273 268/876/268
f 273/859/273 269/860/269 274/861/274
f 270/862/270 274/861/274 269/860/269
f 275/863/275 271/855/271 272/857/272
f 274/861/274 276/864/276 273/859/273
f 277/865/277 275/863/275 278/866/278
f 272/857/272 278/866/278 275/863/275
f 278/879/278 272/875/272 279/880/279
f 273/877/273 279/880/279 272/875/272
f 279/867/279 273/859/273 280/868/280
f 276/864/276 280/868/280 273/859/273
s 4
f 281/869/281 267/856/267 283/870/283
f 271/855/271 283/870/283 267/856/267
f 282/881/282 281/882/281 284/883/284
f 283/884/283 284/883/284 281/882/281
f 270/862/270 282/871/282 274/861/274
f 284/872/284 274/861/274 282/871/282
f 275/863/275 283/870/283 271/855/271
f 274/861/274 284/872/284 276/864/276
f 283/870/283 275/863/275 285/873/285
f 277/865/277 285/873/285 275/863/275
f 284/883/284 283/884/283 286/885/286
f 285/886/285 286/885/286 283/884/283
f 276/864/276 284/872/284 280/868/280
f 286/874/286 280/868/280 284/872/284
s 8
f 268/858/268 267/856/267 281/869/281
f 288/887/288 287/888/287 290/889/290
f 289/890/289 290/889/290 287/888/287
f 282/871/282 270/862/270 269/860/269
s 32
f 279/867/279 280/868/280 286/874/286
f 285/873/285 277/865/277 278/866/278
s 0
f 269/878/269 268/876/268 287/888/287
f 287/888/287 288/887/288 269/878/269
f 281/882/281 282/881/282 290/889/290
f 290/889/290 289/890/289 281/882/281
f 268/892/268 281/893/281 289/894/289
f 289/894/289 287/895/287 268/892/268
f 282/896/282 269/897/269 288/898/288
f 288/898/288 290/899/290 282/896/282
f 278/879/278 279/880/279 291/891/291
f 286/885/286 285/886/285 291/891/291
f 279/900/279 286/901/286 291/902/291
f 285/903/285 278/904/278 291/902/291
# 46 faces

g
