# Max2Obj Version 4.0 Mar 10th, 2001
#
mtllib ./barbturn_1_00.mtl
g
# object (null) to come ...
#
v  1.321581 37.805363 7.018677
v  0.421589 36.594135 1.419189
v  0.023464 36.614258 -3.399139
v  7.877892 49.954243 -1.065521
v  6.260563 48.883823 -5.641083
v  1.337702 56.676266 -11.297729
v  10.587086 62.109230 -11.775452
v  8.976940 55.379803 -4.065460
v  2.075024 49.216396 -6.562500
v  8.546833 60.869408 -8.510071
v  3.750977 53.024426 -9.534363
v  7.520123 53.778664 -8.892639
v  -0.536552 34.304939 -3.933899
v  4.302761 33.448120 -2.544556
v  10.295452 35.797779 1.904480
v  7.820652 37.320591 8.715271
v  2.574514 38.343132 10.256836
v  9.314320 36.798702 1.928650
v  5.620991 38.712849 7.792114
v  4.111858 35.527470 -2.441895
v  0.671410 35.892586 -1.726898
v  0.597240 50.887432 3.317841
v  4.318838 51.092644 2.839386
v  1.080292 64.272652 -12.334412
v  1.087929 62.314167 -11.960571
v  7.964931 62.243675 3.160736
v  1.681555 58.074013 2.885681
v  6.628445 57.841637 2.405365
v  12.668068 66.794327 -6.017639
v  12.543419 64.913689 -2.396881
v  10.053932 61.041573 -2.152740
v  12.888638 66.070717 -9.085144
v  2.369675 63.782639 3.343994
v  7.776581 64.806183 1.464233
v  6.654301 67.246628 -10.067200
v  2.604542 68.484131 -0.743835
v  5.190388 68.846100 -2.013794
v  5.073097 73.327858 -6.643555
v  7.114254 69.079895 -6.255768
v  2.399708 74.187286 -7.184235
v  1.392775 70.769249 -9.137756
v  4.537590 70.282906 -9.008087
v  0.791407 68.293068 -11.100830
v  4.447439 47.016495 5.053589
v  -0.694065 47.158112 4.111237
v  8.823448 45.207939 1.023712
v  6.884041 43.582752 -4.380859
v  2.372202 43.608852 -6.609985
v  13.482410 60.087574 -4.476990
v  15.015038 61.793087 -9.191620
v  15.033863 61.069752 -6.540131
v  12.422466 61.985554 -11.748444
v  9.976963 59.053631 -4.163391
v  4.527489 79.742073 -2.989136
v  5.260929 79.129059 0.356750
v  4.873371 76.036804 1.105072
v  4.975246 74.361359 2.741241
v  4.560659 72.147415 2.735962
v  4.733479 73.659943 2.303833
v  4.265308 69.490250 3.527710
v  3.509501 78.489990 -6.084137
v  5.635380 71.872467 1.273254
v  6.247849 73.100990 0.799408
v  5.254436 75.140533 0.829773
v  7.040424 73.923538 -1.642487
v  6.136143 69.472725 -1.701080
v  7.237854 76.193108 0.154358
v  6.704197 74.532921 -4.641174
v  6.357464 78.865303 -0.343506
v  7.562115 77.659508 -1.444366
v  6.107021 79.463600 -3.374176
v  5.610325 73.393738 1.582001
v  5.828526 69.042274 0.671112
v  5.365654 69.139450 2.601929
v  6.827839 76.810478 -5.177277
v  6.305893 77.981216 -5.845306
v  6.810471 74.858246 -0.055267
v  16.360683 59.183361 -8.460388
v  15.025208 58.007256 -5.174286
v  13.105835 59.575256 -12.070892
v  11.184231 45.645561 -12.110077
v  14.709534 45.886482 -13.524994
v  16.111614 45.924515 -10.978729
v  14.613621 45.782082 -8.343414
v  11.759708 45.610489 -8.335358
v  10.961506 50.247150 -11.900330
v  14.203331 50.747028 -13.139526
v  15.411499 50.612072 -10.614594
v  14.338600 50.259693 -8.732941
v  11.782253 48.940147 -8.785187
v  9.728554 55.107304 -10.800995
v  13.866989 52.667931 -12.645660
v  16.359638 55.589058 -9.315918
v  14.868343 54.548668 -6.306671
v  10.614342 53.975975 -6.416260
v  14.174625 49.173286 -12.971649
v  11.577477 50.984085 -8.546173
v  13.919815 55.451752 -12.958923
v  12.763435 38.711246 -11.815063
v  14.487514 38.746815 -12.592957
v  15.497547 38.793446 -11.409607
v  14.544094 38.796127 -9.720337
v  12.870609 38.776344 -9.732086
v  12.200542 34.827244 -9.167664
v  13.955982 34.301586 -8.757294
v  11.279579 33.966030 -8.800690
v  10.802158 32.769344 -7.971863
v  10.808407 36.376675 -9.055298
v  11.716396 35.638741 -8.304413
v  10.183929 34.334759 -8.462402
v  11.133308 34.202827 -7.922211
v  10.127689 32.967098 -8.437195
v  12.405067 32.667873 -9.136627
v  12.582951 29.486042 -9.212402
v  13.543278 32.110161 -8.892792
v  14.811787 34.661427 -13.546082
v  14.849010 32.690735 -13.527161
v  14.686199 29.832834 -12.930878
v  15.807667 34.641380 -12.618805
v  15.529896 32.712463 -12.721863
v  12.673546 35.389603 -8.539978
v  5.599567 32.821571 9.142273
v  -0.119787 17.703279 8.422729
v  1.684175 16.745331 3.483307
v  6.942673 16.652897 6.073944
v  4.191345 17.677410 10.932709
v  0.801697 25.834120 7.341858
v  2.702404 25.237780 3.102844
v  6.407883 24.613447 5.422699
v  4.526043 23.127001 9.518768
v  4.874218 27.829535 8.641205
v  4.897778 25.205801 9.738800
v  8.182369 27.906326 4.135864
v  -0.415606 4.216187 10.944550
v  1.084648 4.291265 7.696442
v  4.310316 3.530306 9.449890
v  3.891888 6.707843 9.198242
v  3.006758 5.522751 12.357391
v  0.473177 7.212653 10.337128
v  -1.049082 0.126863 8.505341
v  1.893177 -0.285838 7.523560
v  1.015942 1.067223 16.521973
v  6.837910 0.251313 14.572845
v  4.998688 3.025644 18.656891
v  7.110844 0.800579 18.698181
v  3.525820 1.395672 20.558807
v  -5.560019 50.241440 -2.016846
v  -3.041409 49.732605 -6.205231
v  -8.251825 62.725277 -10.252686
v  -6.033890 55.891701 -3.955078
v  -5.721214 60.599541 -5.242676
v  -0.931290 53.180050 -9.552582
v  -4.699282 54.190540 -8.877991
v  -4.954681 35.882683 -8.676910
v  -9.805367 36.327423 -2.595978
v  -6.257799 33.754890 3.500793
v  -8.649094 37.061176 -2.344513
v  -4.091530 35.181671 2.941925
v  -4.150517 37.566841 -7.617676
v  -0.680849 37.022705 -7.216217
v  -2.798746 50.578106 2.804626
v  -3.391321 62.614307 3.996307
v  -3.283312 58.194775 2.583130
v  -8.860077 68.368988 -5.314209
v  -8.607754 67.415260 -1.961426
v  -6.777103 63.381165 -0.356537
v  -9.268095 66.246933 -8.742615
v  -3.124979 65.166069 2.389374
v  -3.852312 68.015884 -8.926270
v  -0.100035 69.455742 -1.123077
v  0.098146 74.271484 -5.496735
v  -3.167765 70.166245 -4.957306
v  -1.424028 71.331696 -7.768738
v  -4.259090 45.688213 3.575378
v  -7.267473 45.328781 -1.445099
v  -3.547316 44.368305 -6.827148
v  -10.872051 63.007092 -2.252350
v  -11.769746 61.285248 -7.207581
v  -12.136052 62.508617 -4.706146
v  -8.919291 59.574692 -8.809845
v  -7.558561 62.148972 -0.881439
v  2.911779 72.380844 1.963440
v  2.608488 73.780296 1.721619
v  4.129601 75.350487 1.114807
v  1.112141 75.030090 -0.140228
v  0.314598 70.559349 -0.225891
v  2.549776 77.068169 1.342346
v  0.211966 75.744736 -2.996002
v  3.949547 79.314751 0.266663
v  2.044834 78.689346 -0.046265
v  2.960529 80.050911 -2.576843
v  3.591398 73.770584 2.093597
v  1.514446 69.847527 1.764313
v  2.817257 69.615120 3.247711
v  0.637001 77.966034 -3.608490
v  1.154472 78.942764 -4.539917
v  2.350040 75.690811 1.075012
v  -13.410791 59.684395 -5.497406
v  -12.829345 61.006618 -1.988739
v  -9.541830 57.415680 -7.556396
v  -9.680904 49.541348 4.217010
v  -12.831696 47.602493 3.320251
v  -14.704191 49.804012 3.635834
v  -13.770903 52.570629 4.462646
v  -10.993538 53.054077 4.936279
v  -9.126968 50.964771 -0.062042
v  -11.904418 49.691006 -1.773071
v  -13.641513 51.699780 -0.877625
v  -13.084365 53.292953 0.524261
v  -10.716614 53.254818 1.931488
v  -7.281651 54.949493 -2.602814
v  -11.217119 51.705708 -3.330444
v  -13.818986 56.272774 -3.995880
v  -13.300663 57.642845 -0.769897
v  -9.343182 57.168255 0.837189
v  -12.153415 49.085041 0.081635
v  -10.466736 53.839165 1.098358
v  -10.628935 53.583683 -5.573975
v  -11.709146 48.143639 10.971405
v  -13.223961 47.078281 10.594086
v  -14.455352 48.027092 10.680603
v  -13.880616 49.824844 11.123505
v  -12.260386 50.127224 11.319458
v  -11.967399 49.903313 15.350922
v  -13.795527 49.805710 15.769989
v  -11.200891 50.250042 16.357666
v  -10.988400 50.866138 17.745483
v  -10.556339 50.652420 14.008301
v  -11.649666 51.010601 14.788269
v  -10.192738 50.885574 16.180664
v  -11.245636 51.169659 16.328339
v  -10.216354 50.609989 17.524597
v  -12.287910 49.399197 17.436310
v  -12.612495 48.566757 20.496185
v  -13.479691 49.265606 17.913605
v  -13.520881 45.154121 14.326843
v  -13.665928 44.717171 16.239380
v  -13.794665 44.668217 19.164001
v  -14.700939 45.822460 14.439331
v  -14.509758 45.345009 16.318237
v  -12.540146 50.529491 14.882721
v  -4.749172 29.345108 1.158630
v  -2.597252 18.619263 -10.940125
v  -5.376987 22.286367 -13.660156
v  -10.028473 19.722937 -11.179108
v  -6.334717 16.219383 -8.667664
v  -2.045397 24.019470 -5.318878
v  -4.835934 26.102518 -8.416412
v  -8.046671 24.629061 -5.737946
v  -5.817955 20.576685 -4.542084
v  -5.197098 25.229389 -1.992889
v  -5.635397 22.129463 -2.696075
v  -9.202419 28.140182 -4.666321
v  -4.450565 9.534162 -21.279999
v  -6.473553 12.354785 -22.459351
v  -9.411139 10.291551 -21.218109
v  -8.410770 12.201748 -18.947876
v  -7.119141 9.155039 -18.462646
v  -4.809557 11.688959 -18.860016
v  -5.427263 9.061000 -26.037201
v  -8.514618 9.560106 -25.936066
v  -5.511820 3.195013 -20.050873
v  -11.612371 4.233075 -19.794159
v  -8.282772 2.676507 -16.015442
v  -10.855705 1.282091 -16.937073
v  -6.934225 0.182536 -16.651764
# 266 vertices

vt  0.414517 0.485338 0.000000
vt  0.489174 0.497239 0.000000
vt  0.550479 0.485338 0.000000
vt  0.329118 0.504113 0.000000
vt  0.420682 0.504388 0.000000
vt  0.490853 0.675485 0.000000
vt  0.356970 0.710738 0.000000
vt  0.307767 0.663467 0.000000
vt  0.491001 0.506534 0.000000
vt  0.272881 0.708251 0.000000
vt  0.307693 0.663467 0.000000
vt  0.458986 0.602657 0.000000
vt  0.390374 0.619683 0.000000
vt  0.694409 0.971380 0.000000
vt  0.584242 0.936155 0.000000
vt  0.501054 0.950636 0.000000
vt  0.578845 0.971377 0.000000
vt  0.691613 0.940228 0.000000
vt  0.529882 0.993867 0.000000
vt  0.597833 0.993868 0.000000
vt  0.684209 0.993870 0.000000
vt  0.689094 0.993870 0.000000
vt  0.240700 0.512959 0.000000
vt  0.160773 0.512959 0.000000
vt  0.490853 0.820915 0.000000
vt  0.357039 0.710738 0.000000
vt  0.490853 0.781888 0.000000
vt  0.131880 0.753091 0.000000
vt  0.240556 0.660920 0.000000
vt  0.133663 0.660928 0.000000
vt  0.060606 0.782384 0.000000
vt  0.058190 0.859642 0.000000
vt  0.052544 0.886601 0.000000
vt  0.298691 0.847983 0.000000
vt  0.060014 0.783494 0.000000
vt  0.240556 0.781375 0.000000
vt  0.136145 0.808744 0.000000
vt  0.390182 0.870896 0.000000
vt  0.235241 0.891030 0.000000
vt  0.181129 0.899551 0.000000
vt  0.172936 0.966074 0.000000
vt  0.181129 0.899551 0.000000
vt  0.145152 0.921474 0.000000
vt  0.490646 0.999330 0.000000
vt  0.456563 0.999059 0.000000
vt  0.491140 0.942697 0.000000
vt  0.429989 0.941889 0.000000
vt  0.490853 0.898039 0.000000
vt  0.877923 0.002315 0.000000
vt  0.710756 0.001536 0.000000
vt  0.812168 0.002315 0.000000
vt  0.813217 0.120956 0.000000
vt  0.701416 0.118225 0.000000
vt  0.872775 0.120438 0.000000
vt  0.002866 0.854679 0.000000
vt  0.272881 0.708251 0.000000
vt  0.247300 0.848527 0.000000
vt  0.243886 0.876138 0.000000
vt  0.251604 0.781884 0.000000
vt  0.006948 0.782948 0.000000
vt  0.006948 0.782948 0.000000
vt  0.745560 1.001324 0.000000
vt  0.747491 0.935506 0.000000
vt  0.747491 0.878462 0.000000
vt  0.747491 0.808438 0.000000
vt  0.748639 0.732530 0.000000
vt  0.747491 0.790807 0.000000
vt  0.746944 0.628012 0.000000
vt  0.747085 0.666819 0.000000
vt  0.550618 0.934468 0.000000
vt  0.720762 0.730332 0.000000
vt  0.705811 0.784366 0.000000
vt  0.729837 0.853035 0.000000
vt  0.674684 0.829607 0.000000
vt  0.654033 0.662928 0.000000
vt  0.654033 0.662928 0.000000
vt  0.695349 0.885675 0.000000
vt  0.623758 0.856571 0.000000
vt  0.716351 0.931575 0.000000
vt  0.676247 0.904603 0.000000
vt  0.649719 0.961956 0.000000
vt  0.725611 0.781438 0.000000
vt  0.747491 0.878462 0.000000
vt  0.703232 0.671848 0.000000
vt  0.731857 0.666086 0.000000
vt  0.611291 0.885598 0.000000
vt  0.604148 0.909350 0.000000
vt  0.697736 0.853617 0.000000
vt  0.695349 0.885675 0.000000
vt  0.695349 0.885675 0.000000
vt  0.669444 0.510287 0.000000
vt  0.578607 0.510287 0.000000
vt  0.756457 0.510287 0.000000
vt  0.875912 0.308662 0.000000
vt  0.758260 0.308662 0.000000
vt  0.671223 0.308662 0.000000
vt  0.577057 0.308662 0.000000
vt  0.498247 0.308662 0.000000
vt  0.875566 0.382888 0.000000
vt  0.758924 0.382888 0.000000
vt  0.669163 0.382888 0.000000
vt  0.584325 0.382888 0.000000
vt  0.498223 0.363687 0.000000
vt  0.877240 0.461159 0.000000
vt  0.759483 0.410364 0.000000
vt  0.665903 0.461159 0.000000
vt  0.580075 0.461159 0.000000
vt  0.992418 0.461159 0.000000
vt  0.759996 0.360654 0.000000
vt  0.498223 0.402657 0.000000
vt  0.760539 0.449273 0.000000
vt  0.858161 0.196355 0.000000
vt  0.762705 0.196431 0.000000
vt  0.690657 0.196417 0.000000
vt  0.588027 0.196417 0.000000
vt  0.498144 0.196431 0.000000
vt  0.356438 0.030356 0.000000
vt  0.369327 0.043627 0.000000
vt  0.380090 0.017573 0.000000
vt  0.416197 0.004791 0.000000
vt  0.316032 0.012201 0.000000
vt  0.336848 0.019568 0.000000
vt  0.371147 0.002582 0.000000
vt  0.375723 0.009258 0.000000
vt  0.408124 0.000758 0.000000
vt  0.448349 0.035630 0.000000
vt  0.498209 0.039288 0.000000
vt  0.429228 0.045736 0.000000
vt  0.102506 0.115410 0.000000
vt  0.153549 0.117195 0.000000
vt  0.189513 0.114692 0.000000
vt  0.228429 0.109580 0.000000
vt  0.355355 0.108206 0.000000
vt  0.406548 0.108121 0.000000
vt  0.342839 0.029458 0.000000
vt  0.413806 0.033644 0.000000
vt  0.461840 0.047992 0.000000
vt  0.442212 0.108407 0.000000
vt  0.458693 0.603155 0.000000
vt  0.357039 0.710738 0.000000
vt  0.420389 0.504181 0.000000
vt  0.307693 0.663467 0.000000
vt  0.389206 0.622726 0.000000
vt  0.389206 0.622726 0.000000
vt  0.309151 0.663075 0.000000
vt  0.390855 0.620128 0.000000
vt  0.730001 0.975635 0.000000
vt  0.055577 0.663688 0.000000
vt  0.067037 0.515196 0.000000
vt  0.131877 0.752996 0.000000
vt  0.294173 0.886121 0.000000
vt  0.142740 0.921054 0.000000
vt  0.389917 0.922986 0.000000
vt  0.456563 0.999059 0.000000
vt  0.294173 0.886121 0.000000
vt  0.389917 0.922986 0.000000
vt  0.389917 0.922986 0.000000
vt  0.790107 0.184348 0.000000
vt  0.701372 0.182427 0.000000
vt  0.790107 0.184348 0.000000
vt  0.857243 0.184348 0.000000
vt  0.790107 0.184348 0.000000
vt  0.857243 0.184348 0.000000
vt  0.058190 0.859642 0.000000
vt  0.052544 0.886601 0.000000
vt  0.055608 0.663958 0.000000
vt  0.061197 0.782654 0.000000
vt  0.027518 0.706813 0.000000
vt  0.357109 0.710738 0.000000
vt  0.298691 0.847983 0.000000
vt  0.058190 0.859642 0.000000
vt  0.060606 0.782384 0.000000
vt  0.294173 0.886121 0.000000
vt  -0.000514 0.880403 0.000000
vt  0.052544 0.886601 0.000000
vt  0.298691 0.847983 0.000000
vt  0.298691 0.847983 0.000000
vt  0.294173 0.886121 0.000000
vt  0.357109 0.710738 0.000000
vt  0.027518 0.706813 0.000000
vt  0.061197 0.782654 0.000000
vt  0.060606 0.782384 0.000000
vt  0.720473 0.730776 0.000000
vt  0.658187 0.605708 0.000000
vt  0.587609 0.811448 0.000000
vt  0.658187 0.605708 0.000000
vt  0.748523 0.593788 0.000000
vt  0.658187 0.605708 0.000000
vt  0.720379 0.731031 0.000000
vt  0.703232 0.671848 0.000000
vt  0.748523 0.593788 0.000000
vt  0.703659 0.671442 0.000000
vt  0.731857 0.666086 0.000000
vt  0.748639 0.732530 0.000000
vt  0.720379 0.731031 0.000000
vt  0.720762 0.730332 0.000000
vt  0.703186 0.671176 0.000000
vt  0.731857 0.666086 0.000000
vt  0.703232 0.671848 0.000000
vt  0.747085 0.666819 0.000000
vt  0.748639 0.732530 0.000000
vt  0.587609 0.811448 0.000000
vt  0.587609 0.811448 0.000000
vt  0.649719 0.961956 0.000000
vt  0.649719 0.961956 0.000000
vt  0.550618 0.823662 0.000000
vt  0.587609 0.811448 0.000000
vt  0.550618 0.823662 0.000000
vt  0.649719 0.961956 0.000000
vt  0.067037 0.515196 0.000000
vt  0.055608 0.663958 0.000000
vt  0.571978 0.557920 0.000000
vt  0.625864 0.557513 0.000000
vt  0.679695 0.557918 0.000000
vt  0.756032 0.560223 0.000000
vt  0.625864 0.557513 0.000000
vt  0.679695 0.557918 0.000000
vt  0.944262 0.560223 0.000000
vt  0.625864 0.557513 0.000000
vt  0.756032 0.560223 0.000000
vt  0.806202 0.560223 0.000000
vt  0.756032 0.560223 0.000000
vt  0.571978 0.557920 0.000000
vt  0.498275 0.560223 0.000000
vt  0.992439 0.363687 0.000000
vt  0.992597 0.308662 0.000000
vt  0.992439 0.363687 0.000000
vt  0.992438 0.402657 0.000000
vt  0.806202 0.560223 0.000000
vt  0.498220 0.461159 0.000000
vt  0.498275 0.560223 0.000000
vt  0.498220 0.461159 0.000000
vt  0.875438 0.575163 0.000000
vt  0.944262 0.560223 0.000000
vt  0.992439 0.363687 0.000000
vt  0.992438 0.402657 0.000000
vt  0.992438 0.402657 0.000000
vt  0.498220 0.461159 0.000000
vt  0.991918 0.196431 0.000000
vt  0.992597 0.308662 0.000000
vt  0.991918 0.196431 0.000000
vt  0.249292 0.041099 0.000000
vt  0.119423 0.002194 0.000000
vt  0.154876 0.002573 0.000000
vt  0.128136 0.016613 0.000000
vt  0.160447 0.001473 0.000000
vt  0.128136 0.016613 0.000000
vt  0.154876 0.002573 0.000000
vt  0.065726 0.014292 0.000000
vt  0.119423 0.002194 0.000000
vt  0.128136 0.016613 0.000000
vt  0.128136 0.016613 0.000000
vt  0.105093 0.028910 0.000000
vt  0.065726 0.014292 0.000000
vt  0.105093 0.028910 0.000000
vt  0.000825 0.069213 0.000000
vt  0.065726 0.014292 0.000000
vt  0.065726 0.014292 0.000000
vt  0.000825 0.069213 0.000000
vt  0.000703 0.039244 0.000000
vt  0.249292 0.041099 0.000000
vt  0.249314 0.055441 0.000000
vt  0.105093 0.028910 0.000000
vt  0.194639 0.033982 0.000000
vt  0.483032 0.114221 0.000000
vt  0.355217 0.119080 0.000000
vt  0.406174 0.120334 0.000000
vt  0.355217 0.119080 0.000000
vt  0.194639 0.033982 0.000000
vt  0.243215 0.037501 0.000000
vt  0.249314 0.055441 0.000000
vt  0.249314 0.089732 0.000000
vt  0.000825 0.069213 0.000000
vt  0.105093 0.028910 0.000000
vt  0.000703 0.095058 0.000000
vt  0.000825 0.069213 0.000000
vt  0.249314 0.089732 0.000000
vt  0.249292 0.105039 0.000000
vt  0.249314 0.089732 0.000000
vt  0.249292 0.105039 0.000000
vt  0.355217 0.119080 0.000000
vt  0.249314 0.055441 0.000000
vt  0.249314 0.055441 0.000000
vt  0.105093 0.028910 0.000000
vt  0.160984 0.032072 0.000000
vt  0.483032 0.114221 0.000000
vt  0.443088 0.117732 0.000000
vt  0.483032 0.114221 0.000000
vt  0.692830 0.969164 0.000000
vt  0.685579 0.991654 0.000000
vt  0.730212 0.975635 0.000000
vt  0.584242 0.936155 0.000000
vt  0.529882 0.993867 0.000000
vt  0.602549 0.993867 0.000000
vt  0.689094 0.993870 0.000000
vt  0.561277 0.000692 0.000000
vt  0.688827 -0.000098 0.000000
vt  0.564263 0.119120 0.000000
vt  0.697567 0.116528 0.000000
vt  0.507564 0.183764 0.000000
vt  0.505869 0.118716 0.000000
vt  0.580429 0.182675 0.000000
vt  0.697589 0.180917 0.000000
vt  0.507564 0.183764 0.000000
vt  0.580429 0.182675 0.000000
vt  0.697589 0.180917 0.000000
vt  0.503935 0.000692 0.000000
vt  0.505869 0.118716 0.000000
vt  0.503935 0.000692 0.000000
vt  0.489174 0.497239 0.000000
vt  0.351459 0.420971 0.000000
vt  0.352499 0.420971 0.000000
vt  0.000784 0.227894 0.000000
vt  0.105699 0.228145 0.000000
vt  0.216985 0.228421 0.000000
vt  0.351571 0.227894 0.000000
vt  0.023914 0.327327 0.000000
vt  0.104981 0.327662 0.000000
vt  0.216171 0.327327 0.000000
vt  0.351490 0.301452 0.000000
vt  0.352420 0.301452 0.000000
vt  0.025422 0.328212 0.000000
vt  0.216104 0.328075 0.000000
vt  0.351611 0.363299 0.000000
vt  0.352312 0.363299 0.000000
vt  0.351597 0.328057 0.000000
vt  0.352330 0.328057 0.000000
vt  0.104127 0.227894 0.000000
vt  0.216660 0.380224 0.000000
vt  0.104983 0.328371 0.000000
vt  0.352342 0.227894 0.000000
vt  0.009616 0.131504 0.000000
vt  0.104256 0.155747 0.000000
vt  0.105883 0.155747 0.000000
vt  0.223982 0.125749 0.000000
vt  0.216130 0.152222 0.000000
vt  0.351732 0.147623 0.000000
vt  0.352306 0.146326 0.000000
vt  0.469070 0.149411 0.000000
vt  0.989968 0.003451 0.000000
vt  0.909211 0.004273 0.000000
vt  0.996004 0.120663 0.000000
vt  0.989968 0.003451 0.000000
vt  0.909211 0.004273 0.000000
vt  0.885225 0.122889 0.000000
vt  0.885225 0.122889 0.000000
vt  0.996004 0.120663 0.000000
vt  0.943924 0.157220 0.000000
vt  0.507177 0.624822 0.000000
vt  0.600053 0.622523 0.000000
vt  0.943924 0.157220 0.000000
vt  0.217290 0.227894 0.000000
vt  0.217575 0.327327 0.000000
vt  0.217290 0.227894 0.000000
vt  0.489174 0.227894 0.000000
vt  0.489174 0.227894 0.000000
vt  0.471690 0.333380 0.000000
vt  0.217345 0.328075 0.000000
vt  0.470864 0.334174 0.000000
vt  0.217345 0.328075 0.000000
vt  0.217232 0.380224 0.000000
vt  0.217232 0.380224 0.000000
vt  0.470864 0.334174 0.000000
vt  0.217345 0.328075 0.000000
vt  0.470864 0.334174 0.000000
vt  0.229465 0.497239 0.000000
vt  0.351589 0.497239 0.000000
vt  0.352627 0.497239 0.000000
vt  0.217232 0.380224 0.000000
vt  0.229465 0.497239 0.000000
vt  0.072972 0.497239 0.000000
vt  0.470864 0.334174 0.000000
vt  0.072972 0.497239 0.000000
vt  0.002386 0.497239 0.000000
vt  0.218721 0.149411 0.000000
vt  0.223132 0.128232 0.000000
vt  0.483427 0.127273 0.000000
vt  0.017963 0.152222 0.000000
vt  0.105700 0.228142 0.000000
vt  0.104128 0.227914 0.000000
vt  0.017963 0.152222 0.000000
vt  0.000790 0.227921 0.000000
vt  0.017963 0.152222 0.000000
vt  0.104128 0.227914 0.000000
vt  0.216984 0.228396 0.000000
vt  0.105700 0.228142 0.000000
vt  0.217291 0.227882 0.000000
vt  0.218721 0.149411 0.000000
vt  0.351571 0.227971 0.000000
vt  0.351571 0.227971 0.000000
vt  0.218721 0.149411 0.000000
vt  0.352342 0.227879 0.000000
vt  0.489111 0.227891 0.000000
vt  0.352342 0.227879 0.000000
vt  0.971575 0.059997 0.000000
vt  0.948232 0.041698 0.000000
vt  0.948232 0.041698 0.000000
vt  0.971575 0.059997 0.000000
vt  0.925604 0.058708 0.000000
vt  0.597947 0.686709 0.000000
vt  0.501430 0.685191 0.000000
vt  0.516483 0.798440 0.000000
vt  0.516483 0.798440 0.000000
vt  0.594444 0.793024 0.000000
vt  0.597947 0.686709 0.000000
vt  0.925604 0.058708 0.000000
vt  0.950876 0.082499 0.000000
vt  0.948232 0.041698 0.000000
vt  0.925604 0.058708 0.000000
vt  0.950876 0.082499 0.000000
vt  0.971575 0.059997 0.000000
vt  0.950876 0.082499 0.000000
vt  0.950876 0.082499 0.000000
vt  0.501430 0.685191 0.000000
vt  0.501430 0.685191 0.000000
vt  0.597947 0.686709 0.000000
vt  0.901715 0.182549 0.000000
vt  0.901715 0.182549 0.000000
vt  0.982420 0.184037 0.000000
vt  0.982420 0.184037 0.000000
vt  0.216660 0.380224 0.000000
vt  0.104983 0.328371 0.000000
vt  0.133020 0.497239 0.000000
vt  0.229583 0.497239 0.000000
vt  0.133020 0.497239 0.000000
vt  0.133020 0.497239 0.000000
vt  0.072972 0.497239 0.000000
vt  0.414517 0.485338 0.000000
vt  0.489174 0.497239 0.000000
vt  0.550479 0.485338 0.000000
vt  0.329118 0.504113 0.000000
vt  0.420682 0.504388 0.000000
vt  0.490853 0.675485 0.000000
vt  0.356970 0.710738 0.000000
vt  0.307767 0.663467 0.000000
vt  0.491001 0.506534 0.000000
vt  0.272881 0.708251 0.000000
vt  0.307693 0.663467 0.000000
vt  0.458986 0.602657 0.000000
vt  0.390374 0.619683 0.000000
vt  0.694409 0.971380 0.000000
vt  0.584242 0.936155 0.000000
vt  0.501054 0.950636 0.000000
vt  0.578845 0.971377 0.000000
vt  0.691613 0.940228 0.000000
vt  0.529882 0.993867 0.000000
vt  0.597833 0.993868 0.000000
vt  0.684209 0.993870 0.000000
vt  0.689094 0.993870 0.000000
vt  0.240700 0.512959 0.000000
vt  0.160773 0.512959 0.000000
vt  0.490853 0.820915 0.000000
vt  0.357039 0.710738 0.000000
vt  0.490853 0.781888 0.000000
vt  0.131880 0.753091 0.000000
vt  0.240556 0.660920 0.000000
vt  0.133663 0.660928 0.000000
vt  0.060606 0.782384 0.000000
vt  0.058190 0.859642 0.000000
vt  0.052544 0.886601 0.000000
vt  0.298691 0.847983 0.000000
vt  0.060014 0.783494 0.000000
vt  0.240556 0.781375 0.000000
vt  0.136145 0.808744 0.000000
vt  0.390182 0.870896 0.000000
vt  0.235241 0.891030 0.000000
vt  0.181129 0.899551 0.000000
vt  0.172936 0.966074 0.000000
vt  0.181129 0.899551 0.000000
vt  0.145152 0.921474 0.000000
vt  0.490646 0.999330 0.000000
vt  0.456563 0.999059 0.000000
vt  0.491140 0.942697 0.000000
vt  0.429989 0.941889 0.000000
vt  0.490853 0.898039 0.000000
vt  0.877923 0.002315 0.000000
vt  0.710756 0.001536 0.000000
vt  0.812168 0.002315 0.000000
vt  0.813217 0.120956 0.000000
vt  0.701416 0.118225 0.000000
vt  0.872775 0.120438 0.000000
vt  0.002866 0.854679 0.000000
vt  0.272881 0.708251 0.000000
vt  0.247300 0.848527 0.000000
vt  0.243886 0.876138 0.000000
vt  0.251604 0.781884 0.000000
vt  0.006948 0.782948 0.000000
vt  0.006948 0.782948 0.000000
vt  0.745560 1.001324 0.000000
vt  0.747491 0.935506 0.000000
vt  0.747491 0.878462 0.000000
vt  0.747491 0.808438 0.000000
vt  0.748639 0.732530 0.000000
vt  0.747491 0.790807 0.000000
vt  0.746944 0.628012 0.000000
vt  0.747085 0.666819 0.000000
vt  0.550618 0.934468 0.000000
vt  0.720762 0.730332 0.000000
vt  0.705811 0.784366 0.000000
vt  0.729837 0.853035 0.000000
vt  0.674684 0.829607 0.000000
vt  0.654033 0.662928 0.000000
vt  0.654033 0.662928 0.000000
vt  0.695349 0.885675 0.000000
vt  0.623758 0.856571 0.000000
vt  0.716351 0.931575 0.000000
vt  0.676247 0.904603 0.000000
vt  0.649719 0.961956 0.000000
vt  0.725611 0.781438 0.000000
vt  0.747491 0.878462 0.000000
vt  0.703232 0.671848 0.000000
vt  0.731857 0.666086 0.000000
vt  0.611291 0.885598 0.000000
vt  0.604148 0.909350 0.000000
vt  0.697736 0.853617 0.000000
vt  0.695349 0.885675 0.000000
vt  0.695349 0.885675 0.000000
vt  0.669444 0.510287 0.000000
vt  0.578607 0.510287 0.000000
vt  0.756457 0.510287 0.000000
vt  0.875912 0.308662 0.000000
vt  0.758260 0.308662 0.000000
vt  0.671223 0.308662 0.000000
vt  0.577057 0.308662 0.000000
vt  0.498247 0.308662 0.000000
vt  0.875566 0.382888 0.000000
vt  0.758924 0.382888 0.000000
vt  0.669163 0.382888 0.000000
vt  0.584325 0.382888 0.000000
vt  0.498223 0.363687 0.000000
vt  0.877240 0.461159 0.000000
vt  0.759483 0.410364 0.000000
vt  0.665903 0.461159 0.000000
vt  0.580075 0.461159 0.000000
vt  0.992418 0.461159 0.000000
vt  0.759996 0.360654 0.000000
vt  0.498223 0.402657 0.000000
vt  0.760539 0.449273 0.000000
vt  0.858161 0.196355 0.000000
vt  0.762705 0.196431 0.000000
vt  0.690657 0.196417 0.000000
vt  0.588027 0.196417 0.000000
vt  0.498144 0.196431 0.000000
vt  0.356438 0.030356 0.000000
vt  0.369327 0.043627 0.000000
vt  0.380090 0.017573 0.000000
vt  0.416197 0.004791 0.000000
vt  0.316032 0.012201 0.000000
vt  0.336848 0.019568 0.000000
vt  0.371147 0.002582 0.000000
vt  0.375723 0.009258 0.000000
vt  0.408124 0.000758 0.000000
vt  0.448349 0.035630 0.000000
vt  0.498209 0.039288 0.000000
vt  0.429228 0.045736 0.000000
vt  0.102506 0.115410 0.000000
vt  0.153549 0.117195 0.000000
vt  0.189513 0.114692 0.000000
vt  0.228429 0.109580 0.000000
vt  0.355355 0.108206 0.000000
vt  0.406548 0.108121 0.000000
vt  0.342839 0.029458 0.000000
vt  0.413806 0.033644 0.000000
vt  0.461840 0.047992 0.000000
vt  0.442212 0.108407 0.000000
vt  0.458693 0.603155 0.000000
vt  0.357039 0.710738 0.000000
vt  0.420389 0.504181 0.000000
vt  0.307693 0.663467 0.000000
vt  0.389206 0.622726 0.000000
vt  0.389206 0.622726 0.000000
vt  0.309151 0.663075 0.000000
vt  0.390855 0.620128 0.000000
vt  0.730001 0.975635 0.000000
vt  0.055577 0.663688 0.000000
vt  0.067037 0.515196 0.000000
vt  0.131877 0.752996 0.000000
vt  0.294173 0.886121 0.000000
vt  0.142740 0.921054 0.000000
vt  0.389917 0.922986 0.000000
vt  0.456563 0.999059 0.000000
vt  0.294173 0.886121 0.000000
vt  0.389917 0.922986 0.000000
vt  0.389917 0.922986 0.000000
vt  0.790107 0.184348 0.000000
vt  0.701372 0.182427 0.000000
vt  0.790107 0.184348 0.000000
vt  0.857243 0.184348 0.000000
vt  0.790107 0.184348 0.000000
vt  0.857243 0.184348 0.000000
vt  0.058190 0.859642 0.000000
vt  0.052544 0.886601 0.000000
vt  0.055608 0.663958 0.000000
vt  0.061197 0.782654 0.000000
vt  0.027518 0.706813 0.000000
vt  0.357109 0.710738 0.000000
vt  0.298691 0.847983 0.000000
vt  0.058190 0.859642 0.000000
vt  0.060606 0.782384 0.000000
vt  0.294173 0.886121 0.000000
vt  -0.000514 0.880403 0.000000
vt  0.052544 0.886601 0.000000
vt  0.298691 0.847983 0.000000
vt  0.298691 0.847983 0.000000
vt  0.294173 0.886121 0.000000
vt  0.357109 0.710738 0.000000
vt  0.027518 0.706813 0.000000
vt  0.061197 0.782654 0.000000
vt  0.060606 0.782384 0.000000
vt  0.720473 0.730776 0.000000
vt  0.658187 0.605708 0.000000
vt  0.587609 0.811448 0.000000
vt  0.658187 0.605708 0.000000
vt  0.748523 0.593788 0.000000
vt  0.658187 0.605708 0.000000
vt  0.720379 0.731031 0.000000
vt  0.703232 0.671848 0.000000
vt  0.748523 0.593788 0.000000
vt  0.703659 0.671442 0.000000
vt  0.731857 0.666086 0.000000
vt  0.748639 0.732530 0.000000
vt  0.720379 0.731031 0.000000
vt  0.720762 0.730332 0.000000
vt  0.703186 0.671176 0.000000
vt  0.731857 0.666086 0.000000
vt  0.703232 0.671848 0.000000
vt  0.747085 0.666819 0.000000
vt  0.748639 0.732530 0.000000
vt  0.587609 0.811448 0.000000
vt  0.587609 0.811448 0.000000
vt  0.649719 0.961956 0.000000
vt  0.649719 0.961956 0.000000
vt  0.550618 0.823662 0.000000
vt  0.587609 0.811448 0.000000
vt  0.550618 0.823662 0.000000
vt  0.649719 0.961956 0.000000
vt  0.067037 0.515196 0.000000
vt  0.055608 0.663958 0.000000
vt  0.571978 0.557920 0.000000
vt  0.625864 0.557513 0.000000
vt  0.679695 0.557918 0.000000
vt  0.756032 0.560223 0.000000
vt  0.625864 0.557513 0.000000
vt  0.679695 0.557918 0.000000
vt  0.944262 0.560223 0.000000
vt  0.625864 0.557513 0.000000
vt  0.756032 0.560223 0.000000
vt  0.806202 0.560223 0.000000
vt  0.756032 0.560223 0.000000
vt  0.571978 0.557920 0.000000
vt  0.498275 0.560223 0.000000
vt  0.992439 0.363687 0.000000
vt  0.992597 0.308662 0.000000
vt  0.992439 0.363687 0.000000
vt  0.992438 0.402657 0.000000
vt  0.806202 0.560223 0.000000
vt  0.498220 0.461159 0.000000
vt  0.498275 0.560223 0.000000
vt  0.498220 0.461159 0.000000
vt  0.875438 0.575163 0.000000
vt  0.944262 0.560223 0.000000
vt  0.992439 0.363687 0.000000
vt  0.992438 0.402657 0.000000
vt  0.992438 0.402657 0.000000
vt  0.498220 0.461159 0.000000
vt  0.991918 0.196431 0.000000
vt  0.992597 0.308662 0.000000
vt  0.991918 0.196431 0.000000
vt  0.249292 0.041099 0.000000
vt  0.119423 0.002194 0.000000
vt  0.154876 0.002573 0.000000
vt  0.128136 0.016613 0.000000
vt  0.160447 0.001473 0.000000
vt  0.128136 0.016613 0.000000
vt  0.154876 0.002573 0.000000
vt  0.065726 0.014292 0.000000
vt  0.119423 0.002194 0.000000
vt  0.128136 0.016613 0.000000
vt  0.128136 0.016613 0.000000
vt  0.105093 0.028910 0.000000
vt  0.065726 0.014292 0.000000
vt  0.105093 0.028910 0.000000
vt  0.000825 0.069213 0.000000
vt  0.065726 0.014292 0.000000
vt  0.065726 0.014292 0.000000
vt  0.000825 0.069213 0.000000
vt  0.000703 0.039244 0.000000
vt  0.249292 0.041099 0.000000
vt  0.249314 0.055441 0.000000
vt  0.105093 0.028910 0.000000
vt  0.194639 0.033982 0.000000
vt  0.483032 0.114221 0.000000
vt  0.355217 0.119080 0.000000
vt  0.406174 0.120334 0.000000
vt  0.355217 0.119080 0.000000
vt  0.194639 0.033982 0.000000
vt  0.243215 0.037501 0.000000
vt  0.249314 0.055441 0.000000
vt  0.249314 0.089732 0.000000
vt  0.000825 0.069213 0.000000
vt  0.105093 0.028910 0.000000
vt  0.000703 0.095058 0.000000
vt  0.000825 0.069213 0.000000
vt  0.249314 0.089732 0.000000
vt  0.249292 0.105039 0.000000
vt  0.249314 0.089732 0.000000
vt  0.249292 0.105039 0.000000
vt  0.355217 0.119080 0.000000
vt  0.249314 0.055441 0.000000
vt  0.249314 0.055441 0.000000
vt  0.105093 0.028910 0.000000
vt  0.160984 0.032072 0.000000
vt  0.483032 0.114221 0.000000
vt  0.443088 0.117732 0.000000
vt  0.483032 0.114221 0.000000
vt  0.692830 0.969164 0.000000
vt  0.685579 0.991654 0.000000
vt  0.730212 0.975635 0.000000
vt  0.584242 0.936155 0.000000
vt  0.529882 0.993867 0.000000
vt  0.602549 0.993867 0.000000
vt  0.689094 0.993870 0.000000
vt  0.561277 0.000692 0.000000
vt  0.688827 -0.000098 0.000000
vt  0.564263 0.119120 0.000000
vt  0.697567 0.116528 0.000000
vt  0.507564 0.183764 0.000000
vt  0.505869 0.118716 0.000000
vt  0.580429 0.182675 0.000000
vt  0.697589 0.180917 0.000000
vt  0.507564 0.183764 0.000000
vt  0.580429 0.182675 0.000000
vt  0.697589 0.180917 0.000000
vt  0.503935 0.000692 0.000000
vt  0.505869 0.118716 0.000000
vt  0.503935 0.000692 0.000000
vt  0.489174 0.497239 0.000000
vt  0.351459 0.420971 0.000000
vt  0.352499 0.420971 0.000000
vt  0.000784 0.227894 0.000000
vt  0.105699 0.228145 0.000000
vt  0.216985 0.228421 0.000000
vt  0.351571 0.227894 0.000000
vt  0.023914 0.327327 0.000000
vt  0.104981 0.327662 0.000000
vt  0.216171 0.327327 0.000000
vt  0.351490 0.301452 0.000000
vt  0.352420 0.301452 0.000000
vt  0.025422 0.328212 0.000000
vt  0.216104 0.328075 0.000000
vt  0.351611 0.363299 0.000000
vt  0.352312 0.363299 0.000000
vt  0.351597 0.328057 0.000000
vt  0.352330 0.328057 0.000000
vt  0.104127 0.227894 0.000000
vt  0.216660 0.380224 0.000000
vt  0.104983 0.328371 0.000000
vt  0.352342 0.227894 0.000000
vt  0.009616 0.131504 0.000000
vt  0.104256 0.155747 0.000000
vt  0.105883 0.155747 0.000000
vt  0.223982 0.125749 0.000000
vt  0.216130 0.152222 0.000000
vt  0.351732 0.147623 0.000000
vt  0.352306 0.146326 0.000000
vt  0.469070 0.149411 0.000000
vt  0.989968 0.003451 0.000000
vt  0.909211 0.004273 0.000000
vt  0.996004 0.120663 0.000000
vt  0.989968 0.003451 0.000000
vt  0.909211 0.004273 0.000000
vt  0.885225 0.122889 0.000000
vt  0.885225 0.122889 0.000000
vt  0.996004 0.120663 0.000000
vt  0.943924 0.157220 0.000000
vt  0.507177 0.624822 0.000000
vt  0.600053 0.622523 0.000000
vt  0.943924 0.157220 0.000000
vt  0.217290 0.227894 0.000000
vt  0.217575 0.327327 0.000000
vt  0.217290 0.227894 0.000000
vt  0.489174 0.227894 0.000000
vt  0.489174 0.227894 0.000000
vt  0.471690 0.333380 0.000000
vt  0.217345 0.328075 0.000000
vt  0.470864 0.334174 0.000000
vt  0.217345 0.328075 0.000000
vt  0.217232 0.380224 0.000000
vt  0.217232 0.380224 0.000000
vt  0.470864 0.334174 0.000000
vt  0.217345 0.328075 0.000000
vt  0.470864 0.334174 0.000000
vt  0.229465 0.497239 0.000000
vt  0.351589 0.497239 0.000000
vt  0.352627 0.497239 0.000000
vt  0.217232 0.380224 0.000000
vt  0.229465 0.497239 0.000000
vt  0.072972 0.497239 0.000000
vt  0.470864 0.334174 0.000000
vt  0.072972 0.497239 0.000000
vt  0.002386 0.497239 0.000000
vt  0.218721 0.149411 0.000000
vt  0.223132 0.128232 0.000000
vt  0.483427 0.127273 0.000000
vt  0.017963 0.152222 0.000000
vt  0.105700 0.228142 0.000000
vt  0.104128 0.227914 0.000000
vt  0.017963 0.152222 0.000000
vt  0.000790 0.227921 0.000000
vt  0.017963 0.152222 0.000000
vt  0.104128 0.227914 0.000000
vt  0.216984 0.228396 0.000000
vt  0.105700 0.228142 0.000000
vt  0.217291 0.227882 0.000000
vt  0.218721 0.149411 0.000000
vt  0.351571 0.227971 0.000000
vt  0.351571 0.227971 0.000000
vt  0.218721 0.149411 0.000000
vt  0.352342 0.227879 0.000000
vt  0.489111 0.227891 0.000000
vt  0.352342 0.227879 0.000000
vt  0.971575 0.059997 0.000000
vt  0.948232 0.041698 0.000000
vt  0.948232 0.041698 0.000000
vt  0.971575 0.059997 0.000000
vt  0.925604 0.058708 0.000000
vt  0.597947 0.686709 0.000000
vt  0.501430 0.685191 0.000000
vt  0.516483 0.798440 0.000000
vt  0.516483 0.798440 0.000000
vt  0.594444 0.793024 0.000000
vt  0.597947 0.686709 0.000000
vt  0.925604 0.058708 0.000000
vt  0.950876 0.082499 0.000000
vt  0.948232 0.041698 0.000000
vt  0.925604 0.058708 0.000000
vt  0.950876 0.082499 0.000000
vt  0.971575 0.059997 0.000000
vt  0.950876 0.082499 0.000000
vt  0.950876 0.082499 0.000000
vt  0.501430 0.685191 0.000000
vt  0.501430 0.685191 0.000000
vt  0.597947 0.686709 0.000000
vt  0.901715 0.182549 0.000000
vt  0.901715 0.182549 0.000000
vt  0.982420 0.184037 0.000000
vt  0.982420 0.184037 0.000000
vt  0.216660 0.380224 0.000000
vt  0.104983 0.328371 0.000000
vt  0.133020 0.497239 0.000000
vt  0.229583 0.497239 0.000000
vt  0.133020 0.497239 0.000000
vt  0.133020 0.497239 0.000000
vt  0.072972 0.497239 0.000000
# 854 texture vertices

vn  0.000000 1.000000 -0.000000
vn  -0.074096 -0.697653 0.712594
vn  0.000000 1.000000 -0.000000
vn  0.976542 0.047042 0.210127
vn  0.655315 -0.405699 -0.637159
vn  -0.061317 -0.330682 -0.941748
vn  0.341499 -0.061630 -0.937859
vn  0.984153 -0.152068 0.091210
vn  0.073935 -0.322744 -0.943594
vn  -0.732666 -0.398508 -0.551717
vn  0.108293 -0.511377 -0.852506
vn  0.663079 -0.488832 -0.566894
vn  -0.194300 -0.980929 -0.005104
vn  0.050997 -0.946711 0.318021
vn  0.911438 -0.331965 0.243065
vn  -0.195997 -0.945249 0.260940
vn  0.004810 -0.574108 0.818766
vn  0.044548 -0.798357 0.600535
vn  -0.209364 -0.939150 0.272329
vn  0.259212 -0.873132 -0.412855
vn  -0.559126 -0.804350 0.200997
vn  -0.020762 0.139835 0.989957
vn  0.300690 0.156877 0.940731
vn  -0.087723 0.180050 -0.979738
vn  -0.084588 -0.153666 -0.984496
vn  0.503525 0.052906 0.862359
vn  0.021339 -0.062849 0.997795
vn  0.664148 -0.187204 0.723783
vn  0.752676 0.650065 0.104373
vn  0.683343 0.407497 0.605796
vn  0.714608 -0.352252 0.604362
vn  0.475903 0.638175 -0.605185
vn  0.085312 0.393027 0.915561
vn  0.475178 0.493823 0.728248
vn  0.323391 0.624829 -0.710639
vn  -0.062026 -0.630409 0.773782
vn  0.912820 0.265051 0.310657
vn  0.703541 0.182422 -0.686842
vn  0.661388 0.747846 -0.057378
vn  -0.157086 0.342348 -0.926349
vn  -0.065557 0.598048 -0.798774
vn  0.412861 0.551112 -0.725135
vn  -0.081031 0.488858 -0.868592
vn  0.497406 0.441653 0.746680
vn  -0.150381 0.358770 0.921233
vn  0.963288 0.211356 0.165546
vn  0.706453 -0.087253 -0.702361
vn  0.312990 -0.129959 -0.940823
vn  0.643519 -0.096119 0.759371
vn  0.882541 0.395246 -0.254758
vn  0.851759 0.327814 0.408710
vn  0.344057 0.082574 -0.935311
vn  -0.537619 -0.446456 0.715292
vn  0.141790 0.976877 -0.160021
vn  0.299927 0.600170 0.741512
vn  0.288070 0.316151 0.903916
vn  0.233076 -0.068256 0.970060
vn  0.284960 0.283605 0.915623
vn  0.212795 -0.166955 0.962728
vn  0.106411 -0.550196 0.828227
vn  -0.059807 0.676100 -0.734378
vn  0.800032 -0.014464 0.599783
vn  0.866325 -0.014096 0.499281
vn  0.663142 0.113846 0.739785
vn  0.974247 -0.201092 0.102004
vn  0.829398 -0.557917 -0.028767
vn  0.713005 -0.002275 0.701155
vn  0.891806 -0.257021 -0.372319
vn  0.583257 0.729494 0.357282
vn  0.975733 0.217942 -0.021132
vn  0.521994 0.841957 -0.136495
vn  0.809224 0.023975 0.587010
vn  0.793037 -0.555285 0.250501
vn  0.712236 -0.456185 0.533494
vn  0.900318 -0.017429 -0.434883
vn  0.535822 0.474894 -0.698120
vn  0.768300 -0.153379 0.621441
vn  0.949409 0.234058 -0.209380
vn  0.616342 -0.115405 0.778977
vn  0.137435 0.213639 -0.967197
vn  -0.912198 -0.118149 -0.392347
vn  0.416828 0.048602 -0.907685
vn  0.991529 0.045966 0.121479
vn  0.423655 -0.048015 0.904550
vn  -0.650065 -0.074913 0.756177
vn  -0.754270 -0.021204 -0.656222
vn  0.365039 0.093325 -0.926303
vn  0.984907 0.010901 -0.172739
vn  0.495555 -0.134294 0.858132
vn  -0.638782 -0.010254 0.769319
vn  -0.885406 -0.123472 -0.448120
vn  0.296592 0.085582 -0.951162
vn  0.977745 -0.026490 -0.208117
vn  0.519124 -0.418415 0.745278
vn  -0.447025 -0.473106 0.759170
vn  0.349799 0.059391 -0.934940
vn  -0.597748 -0.413636 0.686733
vn  0.240708 0.068557 -0.968173
vn  -0.797970 -0.032052 -0.601844
vn  0.203516 0.059638 -0.977254
vn  0.999219 -0.032110 0.023015
vn  0.433266 0.084526 0.897294
vn  -0.600057 0.151694 0.785442
vn  -0.638675 -0.723888 0.260923
vn  0.587594 -0.147084 0.795676
vn  0.295104 -0.487101 -0.821977
vn  0.153221 -0.512930 0.844645
vn  -0.931877 0.361286 -0.032819
vn  0.073049 0.115453 0.990623
vn  -0.945818 0.143691 0.291171
vn  0.302720 -0.051093 0.951709
vn  -0.466729 -0.505764 -0.725511
vn  -0.985078 -0.070978 0.156792
vn  -0.255922 -0.410333 0.875289
vn  0.406806 -0.189877 0.893563
vn  0.000294 0.027342 -0.999626
vn  -0.363206 -0.110244 -0.925163
vn  0.512445 -0.652511 -0.558237
vn  0.951845 0.047036 -0.302949
vn  0.973304 -0.171478 -0.152562
vn  0.059896 -0.275681 0.959381
vn  0.200626 0.090294 0.975498
vn  -0.854846 0.127845 0.502885
vn  -0.354607 -0.158094 -0.921553
vn  0.990927 -0.104281 -0.084785
vn  0.293731 0.108362 0.949726
vn  -0.892828 0.078073 0.443580
vn  -0.161049 -0.394412 -0.904711
vn  0.972561 -0.163392 -0.165615
vn  0.313396 0.092308 0.945125
vn  0.486248 0.013991 0.873709
vn  0.360811 0.110528 0.926067
vn  0.912988 -0.379013 -0.151003
vn  -0.901822 0.383062 0.199953
vn  -0.310021 0.072599 -0.947954
vn  0.860426 0.148045 -0.487596
vn  0.941253 -0.151851 -0.301636
vn  0.314923 0.665679 0.676531
vn  -0.930787 0.136165 0.339255
vn  -0.889964 -0.257286 -0.376521
vn  0.260486 -0.687709 -0.677645
vn  -0.809808 -0.220563 0.543657
vn  0.900154 -0.423216 -0.103008
vn  0.248719 0.896239 0.367280
vn  0.818116 0.114077 0.563625
vn  -0.168596 -0.474990 0.863690
vn  -0.990860 0.130353 0.034716
vn  -0.611958 -0.319976 -0.723272
vn  -0.452522 -0.099014 -0.886240
vn  -0.982957 -0.171180 0.067022
vn  0.710932 -0.686280 -0.153609
vn  -0.158237 -0.468061 -0.869413
vn  -0.682025 -0.470379 -0.559987
vn  0.352511 -0.934290 0.053271
vn  -0.958122 -0.249791 -0.140023
vn  -0.035383 -0.999020 0.026600
vn  -0.130013 -0.983069 0.129118
vn  0.256957 -0.922335 0.288569
vn  -0.533956 -0.476003 -0.698794
vn  0.647345 0.301842 -0.699883
vn  -0.426291 0.159611 0.890393
vn  -0.332886 0.088908 0.938766
vn  -0.669337 -0.146981 0.728275
vn  -0.694913 0.712526 -0.096973
vn  -0.517440 0.601976 0.608178
vn  -0.669870 -0.097129 0.736098
vn  -0.635105 0.360537 -0.683122
vn  -0.252110 0.536630 0.805275
vn  -0.387140 0.601357 -0.698922
vn  -0.606618 0.449494 0.655721
vn  -0.827159 0.463913 -0.317163
vn  -0.549839 0.832611 0.066597
vn  -0.503694 0.652982 -0.565604
vn  -0.683066 0.265150 0.680527
vn  -0.952506 0.298866 -0.058415
vn  -0.496833 0.196867 -0.845222
vn  -0.659447 0.386101 0.645024
vn  -0.803720 0.232977 -0.547500
vn  -0.851478 0.523382 -0.032507
vn  -0.246933 -0.339243 -0.907711
vn  0.326459 -0.027376 0.944815
vn  -0.384164 0.206579 0.899857
vn  -0.484729 0.238088 0.841637
vn  -0.163806 0.268198 0.949335
vn  -0.819902 0.133796 0.556650
vn  -0.838685 -0.123863 0.530345
vn  -0.261932 0.179701 0.948208
vn  -0.963608 0.169328 0.206851
vn  -0.065584 0.850605 0.521699
vn  -0.735570 0.537368 0.412520
vn  -0.204859 0.977629 0.047694
vn  -0.384532 0.246803 0.889507
vn  -0.728684 -0.239122 0.641748
vn  -0.497974 -0.217261 0.839535
vn  -0.940745 0.335271 0.050909
vn  -0.591825 0.694985 -0.408338
vn  -0.395344 0.063815 0.916314
vn  -0.863975 0.048490 -0.501195
vn  -0.742163 0.434327 0.510445
vn  0.082873 -0.490481 -0.867502
vn  0.963499 -0.229992 0.137017
vn  -0.229960 -0.930496 -0.285123
vn  -0.989866 -0.041329 -0.135855
vn  -0.592610 0.785597 0.177907
vn  0.482960 0.830190 0.278449
vn  0.868911 -0.490993 -0.062612
vn  -0.124470 -0.798348 -0.589193
vn  -0.917229 -0.276594 -0.286681
vn  -0.716530 0.593774 0.366082
vn  0.470694 0.819921 0.325848
vn  0.918962 -0.392922 0.033498
vn  -0.036662 -0.682763 -0.729720
vn  -0.899000 -0.173240 -0.402227
vn  -0.744377 0.210803 0.633613
vn  0.167767 0.161491 0.972510
vn  -0.163361 -0.908834 -0.383840
vn  0.332153 0.305027 0.892543
vn  0.017159 -0.628535 -0.777592
vn  0.907341 -0.420256 -0.010835
vn  0.010082 -0.961541 -0.274476
vn  -0.982146 -0.176358 -0.065484
vn  -0.610339 0.790302 0.053935
vn  0.428322 0.901198 0.066196
vn  0.522946 0.218819 0.823799
vn  -0.757803 0.602820 0.249685
vn  -0.126013 -0.954171 0.271437
vn  -0.368501 0.654464 0.660215
vn  0.934810 0.241770 -0.260149
vn  -0.285139 0.954436 0.088016
vn  0.861063 0.508180 0.017975
vn  -0.513056 0.830074 0.218517
vn  0.591648 -0.707327 0.386835
vn  0.918542 0.339558 0.202436
vn  0.028270 0.792811 0.608811
vn  -0.608673 0.721267 0.330591
vn  0.224825 -0.944522 -0.239443
vn  0.557458 -0.828699 -0.049984
vn  -0.406216 -0.786802 0.464684
vn  -0.855774 -0.474203 -0.206840
vn  -0.920883 -0.388237 0.035300
vn  -0.290284 0.837262 0.463387
vn  -0.164725 -0.428769 0.888270
vn  0.943362 -0.304774 0.131076
vn  0.145712 0.708355 -0.690652
vn  -0.993216 -0.008585 0.115968
vn  -0.092788 -0.777744 0.621695
vn  0.936678 -0.293327 0.191295
vn  -0.076369 0.260311 -0.962500
vn  -0.992410 0.058358 0.108245
vn  -0.109024 -0.689521 0.716013
vn  -0.277361 -0.440171 0.854002
vn  -0.135738 -0.496411 0.857410
vn  -0.986905 -0.139649 -0.080728
vn  0.988505 0.069277 0.134379
vn  0.133253 0.830529 -0.540801
vn  -0.880913 0.459539 0.113210
vn  -0.992146 0.122371 -0.025937
vn  -0.001983 -0.186908 0.982375
vn  0.985412 -0.166460 0.035432
vn  0.701794 0.139250 -0.698638
vn  -0.568109 0.118775 -0.814337
vn  0.817058 -0.563481 -0.122087
vn  -0.981726 -0.174417 -0.076107
vn  0.083254 0.255234 0.963288
vn  -0.620281 -0.382152 0.684990
vn  0.212583 -0.973914 0.079374
# 266 vertex normals

g (null)
usemtl fat
s 1
f 3/3/3 1/1/1 2/2/2
f 6/6/6 7/7/7 11/12/11
f 6/6/6 11/139/11 9/9/9
f 7/140/7 10/10/10 8/8/8
f 4/4/4 5/5/5 8/11/8
f 11/12/11 5/141/5 9/9/9
f 11/12/11 12/13/12 5/5/5
f 12/143/12 7/7/7 8/142/8
f 11/12/11 7/7/7 12/144/12
f 5/5/5 12/146/12 8/145/8
f 16/17/16 18/19/18 15/16/15
f 18/19/18 16/17/16 19/20/19
f 19/21/19 16/17/16 17/18/17
f 15/16/15 18/19/18 14/15/14
f 18/293/18 20/294/20 14/292/14
f 14/15/14 21/22/21 13/14/13
f 14/292/14 20/294/20 21/295/21
f 21/22/21 2/147/2 13/14/13
f 7/26/7 25/27/25 24/25/24
f 27/29/27 28/30/28 26/28/26
f 31/31/31 28/30/28 8/148/8
f 34/37/34 31/35/31 30/32/30
f 23/24/23 28/30/28 27/29/27
f 28/30/28 23/24/23 4/149/4
f 23/24/23 27/29/27 22/23/22
f 27/29/27 26/150/26 33/36/33
f 35/38/35 32/34/32 7/26/7
f 6/6/6 25/27/25 7/26/7
f 26/28/26 28/30/28 31/35/31
f 35/38/35 29/151/29 32/34/32
f 33/36/33 26/28/26 34/37/34
f 24/25/24 35/38/35 7/26/7
f 26/28/26 31/35/31 34/37/34
f 34/37/34 30/32/30 37/40/37
f 29/33/29 39/43/39 30/32/30
f 34/37/34 36/39/36 33/36/33
f 37/40/37 36/39/36 34/37/34
f 37/42/37 39/152/39 38/41/38
f 38/154/38 39/153/39 42/47/42
f 41/46/41 40/44/40 38/45/38
f 38/45/38 42/47/42 41/46/41
f 37/40/37 30/32/30 39/43/39
f 39/156/39 29/155/29 35/38/35
f 39/157/39 35/38/35 42/47/42
f 42/47/42 35/38/35 43/48/43
f 42/47/42 43/48/43 41/46/41
f 35/38/35 24/25/24 43/48/43
f 45/53/45 44/52/44 23/158/23
f 15/49/15 46/54/46 44/52/44
f 46/301/46 47/298/47 4/300/4
f 47/298/47 9/303/9 5/302/5
f 44/52/44 45/53/45 17/50/17
f 45/53/45 23/160/23 22/159/22
f 16/51/16 15/49/15 44/52/44
f 46/54/46 4/161/4 44/52/44
f 44/52/44 4/163/4 23/162/23
f 47/298/47 5/305/5 4/304/4
f 47/298/47 48/299/48 9/306/9
f 46/308/46 15/307/15 47/298/47
f 14/296/14 47/298/47 15/309/15
f 47/298/47 14/296/14 48/299/48
f 14/296/14 13/297/13 48/299/48
f 16/51/16 44/52/44 17/50/17
f 49/55/49 29/165/29 30/164/30
f 10/168/10 31/167/31 8/166/8
f 32/170/32 52/59/52 7/169/7
f 31/172/31 49/55/49 30/171/30
f 29/173/29 51/58/51 50/57/50
f 29/175/29 49/55/49 51/174/51
f 50/57/50 52/59/52 32/176/32
f 29/178/29 50/57/50 32/177/32
f 7/179/7 52/59/52 10/56/10
f 53/61/53 31/181/31 10/180/10
f 53/60/53 49/55/49 31/182/31
f 65/74/65 63/72/63 66/75/66
f 73/84/73 63/72/63 62/183/62
f 77/88/77 64/73/64 63/72/63
f 68/78/68 65/74/65 66/75/66
f 38/185/38 68/78/68 37/184/37
f 37/186/37 68/78/68 66/76/66
f 37/188/37 66/76/66 36/187/36
f 69/79/69 55/63/55 67/77/67
f 70/80/70 67/90/67 65/74/65
f 68/78/68 70/80/70 65/74/65
f 71/81/71 54/62/54 69/79/69
f 63/72/63 64/73/64 72/82/72
f 56/83/56 72/82/72 64/73/64
f 56/83/56 57/65/57 72/82/72
f 62/189/62 63/72/63 72/82/72
f 72/82/72 59/67/59 62/71/62
f 69/79/69 54/62/54 55/63/55
f 67/77/67 55/63/55 56/64/56
f 57/65/57 59/67/59 72/82/72
f 62/71/62 59/67/59 58/66/58
f 66/76/66 73/190/73 36/68/36
f 63/72/63 73/192/73 66/75/66
f 74/193/74 60/69/60 36/68/36
f 62/195/62 58/194/58 74/85/74
f 73/197/73 62/196/62 74/85/74
f 73/199/73 74/198/74 36/68/36
f 74/85/74 58/201/58 60/200/60
f 38/202/38 75/86/75 68/78/68
f 75/86/75 38/203/38 76/87/76
f 67/90/67 77/88/77 65/74/65
f 67/89/67 64/73/64 77/88/77
f 65/74/65 77/88/77 63/72/63
f 67/89/67 56/64/56 64/73/64
f 70/80/70 71/204/71 69/79/69
f 70/80/70 68/78/68 75/86/75
f 75/86/75 76/87/76 70/80/70
f 71/205/71 70/80/70 76/87/76
f 69/79/69 67/90/67 70/80/70
f 38/207/38 40/206/40 76/87/76
f 61/70/61 76/87/76 40/208/40
f 54/62/54 76/87/76 61/70/61
f 71/209/71 76/87/76 54/62/54
f 8/211/8 28/30/28 4/210/4
f 51/213/51 49/212/49 79/92/79
f 78/91/78 52/215/52 50/214/50
f 50/217/50 51/216/51 78/91/78
f 91/104/91 95/108/95 53/218/53
f 51/219/51 79/92/79 78/91/78
f 80/93/80 52/220/52 78/91/78
f 52/222/52 80/93/80 10/221/10
f 53/224/53 79/92/79 49/223/49
f 86/99/86 82/95/82 81/94/81
f 82/95/82 86/99/86 96/109/96
f 96/109/96 88/101/88 82/95/82
f 83/96/83 82/95/82 88/101/88
f 88/101/88 89/102/89 83/96/83
f 84/97/84 83/96/83 89/102/89
f 90/103/90 85/98/85 84/97/84
f 84/97/84 89/102/89 90/103/90
f 81/94/81 85/226/85 90/225/90
f 90/227/90 86/99/86 81/94/81
f 91/104/91 92/105/92 86/99/86
f 87/100/87 86/99/86 92/105/92
f 92/105/92 88/101/88 87/100/87
f 88/101/88 92/105/92 93/106/93
f 93/106/93 94/107/94 88/101/88
f 89/102/89 88/101/88 94/107/94
f 97/110/97 90/103/90 89/102/89
f 97/228/97 95/108/95 91/104/91
f 10/229/10 80/93/80 91/104/91
f 92/105/92 91/104/91 98/111/98
f 98/111/98 93/106/93 92/105/92
f 93/106/93 80/93/80 78/91/78
f 78/91/78 79/92/79 93/106/93
f 94/107/94 93/106/93 79/92/79
f 79/92/79 53/231/53 95/230/95
f 95/232/95 94/107/94 79/92/79
f 91/104/91 53/234/53 10/233/10
f 87/100/87 88/101/88 96/109/96
f 96/109/96 86/99/86 87/100/87
f 97/236/97 86/99/86 90/235/90
f 89/102/89 94/107/94 97/110/97
f 91/104/91 86/99/86 97/237/97
f 95/238/95 97/110/97 94/107/94
f 80/93/80 93/106/93 98/111/98
f 98/111/98 91/104/91 80/93/80
f 81/94/81 100/113/100 99/112/99
f 100/113/100 81/94/81 82/95/82
f 82/95/82 101/114/101 100/113/100
f 101/114/101 82/95/82 83/96/83
f 83/96/83 84/97/84 101/114/101
f 102/115/102 101/114/101 84/97/84
f 84/97/84 103/116/103 102/115/102
f 103/116/103 84/97/84 85/98/85
f 85/240/85 81/94/81 103/239/103
f 99/112/99 103/241/103 81/94/81
f 111/124/111 106/119/106 104/117/104
f 121/135/121 104/117/104 105/118/105
f 108/121/108 109/122/109 103/242/103
f 108/121/108 110/123/110 111/124/111
f 111/124/111 109/122/109 108/121/108
f 111/124/111 110/123/110 107/120/107
f 112/125/112 107/120/107 110/123/110
f 104/117/104 109/122/109 111/124/111
f 111/124/111 107/120/107 106/119/106
f 106/245/106 112/244/112 110/243/110
f 112/248/112 106/247/106 107/246/107
f 106/251/106 110/250/110 108/249/108
f 108/254/108 104/253/104 106/252/106
f 108/257/108 99/256/99 104/255/104
f 103/260/103 99/259/99 108/258/108
f 102/262/102 103/261/103 109/122/109
f 104/117/104 115/128/115 105/118/105
f 116/129/116 117/130/117 104/263/104
f 117/131/117 118/132/118 113/264/113
f 105/118/105 115/128/115 120/134/120
f 120/134/120 119/133/119 105/118/105
f 113/126/113 114/127/114 115/137/115
f 115/137/115 114/127/114 118/265/118
f 117/267/117 116/266/116 120/134/120
f 119/133/119 120/134/120 116/268/116
f 114/270/114 113/269/113 118/132/118
f 105/118/105 101/272/101 102/271/102
f 116/129/116 104/274/104 99/273/99
f 99/276/99 100/275/100 116/129/116
f 119/133/119 100/278/100 101/277/101
f 104/117/104 121/135/121 109/122/109
f 105/118/105 119/133/119 101/279/101
f 119/133/119 116/281/116 100/280/100
f 121/135/121 102/282/102 109/122/109
f 102/283/102 121/135/121 105/118/105
f 113/285/113 104/284/104 117/130/117
f 115/128/115 104/117/104 113/136/113
f 115/137/115 118/286/118 120/138/120
f 118/288/118 117/287/117 120/138/120
f 127/317/127 124/328/124 123/313/123
f 129/319/129 125/315/125 124/314/124
f 129/319/129 124/314/124 128/318/128
f 129/353/129 130/320/130 125/352/125
f 130/320/130 126/316/126 125/354/125
f 130/321/130 123/355/123 126/331/126
f 127/357/127 123/356/123 130/321/130
f 132/326/132 130/320/130 129/358/129
f 131/325/131 127/359/127 132/327/132
f 133/329/133 129/323/129 128/330/128
f 133/361/133 131/324/131 129/360/129
f 122/311/122 131/324/131 133/362/133
f 122/312/122 127/363/127 131/325/131
f 132/326/132 129/364/129 131/324/131
f 130/321/130 132/327/132 127/365/127
f 128/318/128 124/328/124 127/317/127
f 19/367/19 122/311/122 18/366/18
f 19/368/19 2/310/2 122/312/122
f 18/370/18 122/311/122 133/369/133
f 18/424/18 133/421/133 20/423/20
f 133/421/133 128/422/128 20/425/20
f 21/427/21 20/426/20 128/422/128
f 21/371/21 128/330/128 127/322/127
f 2/310/2 127/372/127 122/312/122
f 2/374/2 21/373/21 127/322/127
f 137/336/137 136/335/136 135/334/135
f 138/337/138 136/376/136 137/375/137
f 139/339/139 134/377/134 138/338/138
f 139/378/139 135/333/135 134/332/134
f 137/336/137 135/334/135 124/379/124
f 139/381/139 124/380/124 135/333/135
f 124/384/124 139/383/139 123/382/123
f 137/336/137 124/386/124 125/385/125
f 126/389/126 137/388/137 125/387/125
f 138/337/138 137/391/137 126/390/126
f 139/339/139 138/338/138 126/392/126
f 139/339/139 126/394/126 123/393/123
f 135/396/135 140/340/140 134/395/134
f 135/397/135 141/341/141 140/340/140
f 142/342/142 134/398/134 140/343/140
f 136/399/136 143/345/143 141/344/141
f 141/402/141 143/401/143 142/400/142
f 142/405/142 140/404/140 141/403/141
f 138/407/138 143/346/143 136/406/136
f 136/409/136 141/341/141 135/408/135
f 134/411/134 142/347/142 138/410/138
f 138/412/138 144/348/144 143/346/143
f 138/413/138 142/347/142 144/348/144
f 143/414/143 145/349/145 146/350/146
f 146/350/146 142/416/142 143/415/143
f 143/346/143 144/351/144 145/417/145
f 144/351/144 146/419/146 145/418/145
f 146/420/146 144/351/144 142/347/142
f 2/291/2 19/290/19 17/289/17
f 1/1/1 3/3/3 2/2/2
f 1/428/1 3/430/3 2/429/2
f 149/434/149 6/433/6 152/439/152
f 152/566/152 6/433/6 9/436/9
f 151/437/151 149/567/149 150/435/150
f 148/432/148 147/431/147 150/438/150
f 148/568/148 152/439/152 9/436/9
f 153/440/153 152/439/152 148/432/148
f 149/434/149 153/570/153 150/569/150
f 149/434/149 152/439/152 153/571/153
f 153/573/153 148/432/148 150/572/150
f 157/446/157 156/444/156 155/443/155
f 156/444/156 157/446/157 158/447/158
f 156/444/156 158/448/158 17/445/17
f 157/446/157 155/443/155 154/442/154
f 159/721/159 157/720/157 154/719/154
f 160/449/160 154/442/154 13/441/13
f 159/721/159 154/719/154 160/722/160
f 2/574/2 160/449/160 13/441/13
f 25/454/25 149/453/149 24/452/24
f 163/457/163 27/456/27 162/455/162
f 163/457/163 166/458/166 150/575/150
f 166/462/166 168/464/168 165/459/165
f 163/457/163 161/451/161 27/456/27
f 161/451/161 163/457/163 147/576/147
f 27/456/27 161/451/161 22/450/22
f 162/577/162 27/456/27 33/463/33
f 167/461/167 169/465/169 149/453/149
f 25/454/25 6/433/6 149/453/149
f 163/457/163 162/455/162 166/462/166
f 164/578/164 169/465/169 167/461/167
f 162/455/162 33/463/33 168/464/168
f 169/465/169 24/452/24 149/453/149
f 166/462/166 162/455/162 168/464/168
f 165/459/165 168/464/168 170/467/170
f 172/470/172 164/460/164 165/459/165
f 36/466/36 168/464/168 33/463/33
f 36/466/36 170/467/170 168/464/168
f 172/579/172 170/469/170 171/468/171
f 172/580/172 171/581/171 173/474/173
f 40/471/40 41/473/41 171/472/171
f 173/474/173 171/472/171 41/473/41
f 165/459/165 170/467/170 172/470/172
f 164/582/164 172/583/172 169/465/169
f 169/465/169 172/584/172 173/474/173
f 169/465/169 173/474/173 43/475/43
f 43/475/43 173/474/173 41/473/41
f 24/452/24 169/465/169 43/475/43
f 174/479/174 45/480/45 161/585/161
f 175/481/175 155/476/155 174/479/174
f 176/725/176 175/728/175 147/727/147
f 9/730/9 176/725/176 148/729/148
f 45/480/45 174/479/174 17/477/17
f 161/587/161 45/480/45 22/586/22
f 155/476/155 156/478/156 174/479/174
f 147/588/147 175/481/175 174/479/174
f 147/590/147 174/479/174 161/589/161
f 148/732/148 176/725/176 147/731/147
f 48/726/48 176/725/176 9/733/9
f 155/734/155 175/735/175 176/725/176
f 176/725/176 154/723/154 155/736/155
f 154/723/154 176/725/176 48/726/48
f 13/724/13 154/723/154 48/726/48
f 174/479/174 156/478/156 17/477/17
f 164/592/164 177/482/177 165/591/165
f 166/594/166 151/595/151 150/593/150
f 180/486/180 167/597/167 149/596/149
f 177/482/177 166/599/166 165/598/165
f 179/485/179 164/600/164 178/484/178
f 177/482/177 164/602/164 179/601/179
f 180/486/180 178/484/178 167/603/167
f 178/484/178 164/605/164 167/604/167
f 180/486/180 149/606/149 151/483/151
f 166/608/166 181/488/181 151/607/151
f 177/482/177 181/487/181 166/609/166
f 183/499/183 185/501/185 186/502/186
f 183/499/183 193/511/193 182/610/182
f 184/500/184 197/515/197 183/499/183
f 185/501/185 188/505/188 186/502/186
f 188/505/188 171/612/171 170/611/170
f 188/505/188 170/613/170 186/503/186
f 186/503/186 170/615/170 36/614/36
f 55/490/55 189/506/189 187/504/187
f 187/517/187 190/507/190 185/501/185
f 190/507/190 188/505/188 185/501/185
f 54/489/54 191/508/191 189/506/189
f 184/500/184 183/499/183 192/509/192
f 192/509/192 56/510/56 184/500/184
f 57/492/57 56/510/56 192/509/192
f 183/499/183 182/616/182 192/509/192
f 59/494/59 192/509/192 182/498/182
f 54/489/54 189/506/189 55/490/55
f 55/490/55 187/504/187 56/491/56
f 59/494/59 57/492/57 192/509/192
f 59/494/59 182/498/182 58/493/58
f 193/617/193 186/503/186 36/495/36
f 193/619/193 183/499/183 186/502/186
f 60/496/60 194/620/194 36/495/36
f 58/621/58 182/622/182 194/512/194
f 182/623/182 193/624/193 194/512/194
f 194/625/194 193/626/193 36/495/36
f 58/628/58 194/512/194 60/627/60
f 195/513/195 171/629/171 188/505/188
f 171/630/171 195/513/195 196/514/196
f 197/515/197 187/517/187 185/501/185
f 184/500/184 187/516/187 197/515/197
f 197/515/197 185/501/185 183/499/183
f 56/491/56 187/516/187 184/500/184
f 191/631/191 190/507/190 189/506/189
f 188/505/188 190/507/190 195/513/195
f 196/514/196 195/513/195 190/507/190
f 190/507/190 191/632/191 196/514/196
f 187/517/187 189/506/189 190/507/190
f 40/633/40 171/634/171 196/514/196
f 196/514/196 61/497/61 40/635/40
f 196/514/196 54/489/54 61/497/61
f 196/514/196 191/636/191 54/489/54
f 163/457/163 150/638/150 147/637/147
f 177/639/177 179/640/179 199/519/199
f 180/642/180 198/518/198 178/641/178
f 179/643/179 178/644/178 198/518/198
f 215/535/215 211/531/211 181/645/181
f 199/519/199 179/646/179 198/518/198
f 180/647/180 200/520/200 198/518/198
f 200/520/200 180/649/180 151/648/151
f 199/519/199 181/651/181 177/650/177
f 202/522/202 206/526/206 201/521/201
f 206/526/206 202/522/202 216/536/216
f 208/528/208 216/536/216 202/522/202
f 202/522/202 203/523/203 208/528/208
f 209/529/209 208/528/208 203/523/203
f 203/523/203 204/524/204 209/529/209
f 205/525/205 210/530/210 204/524/204
f 209/529/209 204/524/204 210/530/210
f 205/653/205 201/521/201 210/652/210
f 206/526/206 210/654/210 201/521/201
f 212/532/212 211/531/211 206/526/206
f 206/526/206 207/527/207 212/532/212
f 208/528/208 212/532/212 207/527/207
f 212/532/212 208/528/208 213/533/213
f 214/534/214 213/533/213 208/528/208
f 208/528/208 209/529/209 214/534/214
f 210/530/210 217/537/217 209/529/209
f 215/535/215 217/655/217 211/531/211
f 200/520/200 151/656/151 211/531/211
f 211/531/211 212/532/212 218/538/218
f 213/533/213 218/538/218 212/532/212
f 200/520/200 213/533/213 198/518/198
f 199/519/199 198/518/198 213/533/213
f 213/533/213 214/534/214 199/519/199
f 181/658/181 199/519/199 215/657/215
f 214/534/214 215/659/215 199/519/199
f 181/661/181 211/531/211 151/660/151
f 208/528/208 207/527/207 216/536/216
f 206/526/206 216/536/216 207/527/207
f 206/526/206 217/663/217 210/662/210
f 214/534/214 209/529/209 217/537/217
f 206/526/206 211/531/211 217/664/217
f 217/537/217 215/665/215 214/534/214
f 213/533/213 200/520/200 218/538/218
f 211/531/211 218/538/218 200/520/200
f 220/540/220 201/521/201 219/539/219
f 201/521/201 220/540/220 202/522/202
f 221/541/221 202/522/202 220/540/220
f 202/522/202 221/541/221 203/523/203
f 204/524/204 203/523/203 221/541/221
f 221/541/221 222/542/222 204/524/204
f 223/543/223 204/524/204 222/542/222
f 204/524/204 223/543/223 205/525/205
f 201/521/201 205/667/205 223/666/223
f 223/668/223 219/539/219 201/521/201
f 226/546/226 231/551/231 224/544/224
f 224/544/224 241/562/241 225/545/225
f 229/549/229 228/548/228 223/669/223
f 230/550/230 228/548/228 231/551/231
f 229/549/229 231/551/231 228/548/228
f 230/550/230 231/551/231 227/547/227
f 227/547/227 232/552/232 230/550/230
f 229/549/229 224/544/224 231/551/231
f 227/547/227 231/551/231 226/546/226
f 232/671/232 226/672/226 230/670/230
f 226/674/226 232/675/232 227/673/227
f 230/677/230 226/678/226 228/676/228
f 224/680/224 228/681/228 226/679/226
f 219/683/219 228/684/228 224/682/224
f 219/686/219 223/687/223 228/685/228
f 223/688/223 222/689/222 229/549/229
f 235/555/235 224/544/224 225/545/225
f 237/557/237 236/556/236 224/690/224
f 238/559/238 237/558/237 233/691/233
f 235/555/235 225/545/225 240/561/240
f 239/560/239 240/561/240 225/545/225
f 234/554/234 233/553/233 235/564/235
f 234/554/234 235/564/235 238/692/238
f 236/693/236 237/694/237 240/561/240
f 240/561/240 239/560/239 236/695/236
f 233/696/233 234/697/234 238/559/238
f 221/699/221 225/545/225 222/698/222
f 224/701/224 236/556/236 219/700/219
f 220/702/220 219/703/219 236/556/236
f 220/705/220 239/560/239 221/704/221
f 241/562/241 224/544/224 229/549/229
f 239/560/239 225/545/225 221/706/221
f 236/708/236 239/560/239 220/707/220
f 222/709/222 241/562/241 229/549/229
f 241/562/241 222/710/222 225/545/225
f 224/711/224 233/712/233 237/557/237
f 224/544/224 235/555/235 233/563/233
f 238/713/238 235/564/235 240/565/240
f 237/714/237 238/715/238 240/565/240
f 244/755/244 247/744/247 243/740/243
f 245/742/245 249/746/249 244/741/244
f 244/741/244 249/746/249 248/745/248
f 250/747/250 249/780/249 245/779/245
f 246/743/246 250/747/250 245/781/245
f 243/782/243 250/748/250 246/758/246
f 243/783/243 247/784/247 250/748/250
f 250/747/250 252/753/252 249/785/249
f 247/786/247 251/752/251 252/754/252
f 249/750/249 253/756/253 248/757/248
f 251/751/251 253/788/253 249/787/249
f 251/751/251 242/738/242 253/789/253
f 247/790/247 242/739/242 251/752/251
f 249/791/249 252/753/252 251/751/251
f 252/754/252 250/748/250 247/792/247
f 244/755/244 248/745/248 247/744/247
f 242/738/242 158/794/158 157/793/157
f 2/737/2 158/795/158 242/739/242
f 242/738/242 157/797/157 253/796/253
f 253/848/253 157/851/157 159/850/159
f 248/849/248 253/848/253 159/852/159
f 159/853/159 160/854/160 248/849/248
f 248/757/248 160/798/160 247/749/247
f 247/799/247 2/737/2 242/739/242
f 160/800/160 2/801/2 247/749/247
f 256/762/256 257/763/257 255/761/255
f 256/803/256 258/764/258 257/802/257
f 254/804/254 259/766/259 258/765/258
f 255/760/255 259/805/259 254/759/254
f 255/761/255 257/763/257 244/806/244
f 244/807/244 259/808/259 255/760/255
f 259/810/259 244/811/244 243/809/243
f 244/813/244 257/763/257 245/812/245
f 257/815/257 246/816/246 245/814/245
f 257/818/257 258/764/258 246/817/246
f 258/765/258 259/766/259 246/819/246
f 246/821/246 259/766/259 243/820/243
f 260/767/260 255/823/255 254/822/254
f 261/768/261 255/824/255 260/767/260
f 254/825/254 262/769/262 260/770/260
f 263/772/263 256/826/256 261/771/261
f 263/828/263 261/829/261 262/827/262
f 260/831/260 262/832/262 261/830/261
f 263/773/263 258/834/258 256/833/256
f 261/768/261 256/836/256 255/835/255
f 262/774/262 254/838/254 258/837/258
f 264/775/264 258/839/258 263/773/263
f 262/774/262 258/840/258 264/775/264
f 265/776/265 263/841/263 266/777/266
f 262/843/262 266/777/266 263/842/263
f 264/778/264 263/773/263 265/844/265
f 266/846/266 264/778/264 265/845/265
f 264/778/264 266/847/266 262/774/262
f 158/717/158 2/718/2 17/716/17
f 3/430/3 1/428/1 2/429/2
# 528 faces

g
# object (null) to come ...
#
v  -6.117312 70.524429 15.587028
v  -5.198185 75.999207 21.232113
v  -5.140925 75.586617 23.331671
v  -5.818952 68.374550 26.527185
v  -4.443332 77.334862 13.480695
v  -4.293927 79.162407 21.829062
v  -4.236669 78.749817 23.928621
v  -3.966597 73.899673 30.961441
v  -2.680165 83.502632 14.644657
v  -2.203430 80.067444 32.125404
v  -0.827809 89.027756 19.078915
v  -3.389670 82.325607 22.426012
v  -3.332411 81.913025 24.525570
v  -0.529449 86.877876 30.019073
v  -3.314351 75.489281 21.080530
v  -3.257092 75.076691 23.180090
v  -2.410094 78.652489 21.677481
v  -2.352835 78.239899 23.777039
v  -1.505836 81.815689 22.274429
v  -1.448577 81.403099 24.373989
v  -14.221597 44.434208 15.275267
v  -14.164337 44.021618 17.374826
v  -12.337763 43.924286 15.123686
v  -12.280503 43.511696 17.223246
v  -0.514903 88.525551 24.657080
# 25 vertices

vt  0.033358 0.643728 0.500000
vt  0.190411 0.923560 0.500000
vt  0.402692 0.503812 0.999501
vt  0.402692 0.647326 0.999501
vt  0.403043 0.503812 0.999501
vt  0.403044 0.647326 0.999501
vt  0.033710 0.643728 0.500000
vt  0.190763 0.923560 0.500000
vt  0.033358 0.363896 0.500000
vt  0.033710 0.363896 0.500000
vt  0.190411 0.084064 0.500000
vt  0.402692 0.360297 0.999501
vt  0.403043 0.360297 0.999501
vt  0.190763 0.084064 0.500000
vt  0.402692 0.647326 0.000500
vt  0.402692 0.503812 0.000500
vt  0.403044 0.647326 0.000500
vt  0.403043 0.503812 0.000500
vt  0.402692 0.360297 0.000499
vt  0.403043 0.360297 0.000499
vt  0.408249 0.287497 0.999500
vt  0.408249 0.367848 0.999500
vt  0.492649 0.287497 0.999500
vt  0.492649 0.367848 0.999500
vt  0.408249 0.207147 0.999500
vt  0.492649 0.207147 0.999500
vt  0.492649 0.367848 0.000500
vt  0.408249 0.367848 0.000500
vt  0.492649 0.287497 0.000500
vt  0.408249 0.287497 0.000500
vt  0.492649 0.207147 0.000500
vt  0.408249 0.207147 0.000500
vt  0.492649 1.036942 0.999501
vt  0.408248 1.036942 0.999501
vt  0.492649 1.036942 0.000500
vt  0.408248 1.036942 0.000500
vt  0.450449 0.037941 0.500000
vt  0.483600 0.371280 0.999497
vt  0.402049 0.371280 0.999497
vt  0.402049 1.040375 0.999500
vt  0.483600 1.040375 0.999500
vt  0.402049 0.371280 0.000500
vt  0.483600 0.371280 0.000500
vt  0.483600 1.040375 0.000503
vt  0.402049 1.040375 0.000503
vt  0.483600 0.210579 0.000500
vt  0.402049 0.210579 0.000500
vt  0.442825 0.041374 0.499997
vt  0.402049 0.210579 0.999497
vt  0.483600 0.210579 0.999497
# 50 texture vertices

vn  -0.625550 0.170970 -0.053863
vn  -0.935835 0.266150 0.007289
vn  -0.939082 0.218069 0.150936
vn  -0.315158 0.056674 0.061038
vn  -0.629511 0.166698 -0.025226
vn  -0.314045 0.087389 -0.001040
vn  -0.311318 0.081886 0.051359
vn  -0.935586 0.209631 0.190349
vn  -0.930868 0.295587 -0.040166
vn  -0.616346 0.170535 0.125473
vn  -0.306119 0.111496 -0.011047
vn  -0.932204 0.288458 -0.000364
vn  -0.932133 0.239478 0.143016
vn  -0.610844 0.163702 0.153348
vn  0.932133 -0.239478 -0.143016
vn  0.932204 -0.288458 0.000364
vn  0.311318 -0.081886 -0.051359
vn  0.314045 -0.087389 0.001040
vn  0.939082 -0.218069 -0.150936
vn  0.935834 -0.266150 -0.007289
vn  -0.088158 -0.308389 -0.058198
vn  -0.088158 -0.308389 -0.058198
vn  -0.088158 -0.308389 -0.058198
vn  -0.088158 -0.308389 -0.058198
vn  -0.298585 0.126567 0.033015
# 25 vertex normals

g (null)
usemtl axe
s 2
f 271/855/271 267/856/267 272/857/272
f 268/858/268 272/857/272 267/856/267
f 272/875/272 268/876/268 273/877/273
f 269/878/269 273/877/273 268/876/268
f 273/859/273 269/860/269 274/861/274
f 270/862/270 274/861/274 269/860/269
f 275/863/275 271/855/271 272/857/272
f 274/861/274 276/864/276 273/859/273
f 277/865/277 275/863/275 278/866/278
f 272/857/272 278/866/278 275/863/275
f 278/879/278 272/875/272 279/880/279
f 273/877/273 279/880/279 272/875/272
f 279/867/279 273/859/273 280/868/280
f 276/864/276 280/868/280 273/859/273
s 4
f 281/869/281 267/856/267 283/870/283
f 271/855/271 283/870/283 267/856/267
f 282/881/282 281/882/281 284/883/284
f 283/884/283 284/883/284 281/882/281
f 270/862/270 282/871/282 274/861/274
f 284/872/284 274/861/274 282/871/282
f 275/863/275 283/870/283 271/855/271
f 274/861/274 284/872/284 276/864/276
f 283/870/283 275/863/275 285/873/285
f 277/865/277 285/873/285 275/863/275
f 284/883/284 283/884/283 286/885/286
f 285/886/285 286/885/286 283/884/283
f 276/864/276 284/872/284 280/868/280
f 286/874/286 280/868/280 284/872/284
s 8
f 268/858/268 267/856/267 281/869/281
f 288/887/288 287/888/287 290/889/290
f 289/890/289 290/889/290 287/888/287
f 282/871/282 270/862/270 269/860/269
s 32
f 279/867/279 280/868/280 286/874/286
f 285/873/285 277/865/277 278/866/278
s 0
f 269/878/269 268/876/268 287/888/287
f 287/888/287 288/887/288 269/878/269
f 281/882/281 282/881/282 290/889/290
f 290/889/290 289/890/289 281/882/281
f 268/892/268 281/893/281 289/894/289
f 289/894/289 287/895/287 268/892/268
f 282/896/282 269/897/269 288/898/288
f 288/898/288 290/899/290 282/896/282
f 278/879/278 279/880/279 291/891/291
f 286/885/286 285/886/285 291/891/291
f 279/900/279 286/901/286 291/902/291
f 285/903/285 278/904/278 291/902/291
# 46 faces

g
