# Max2Obj Version 4.0 Mar 10th, 2001
#
mtllib ./barbidle_09.mtl
g
# object (null) to come ...
#
v  1.528902 37.168686 7.124756
v  0.323620 37.139191 2.445770
v  -0.018177 37.629883 -2.691132
v  6.979443 51.484558 -0.534149
v  4.292101 50.844112 -4.693665
v  -1.143311 58.582939 -8.818512
v  8.141277 64.189278 -10.018677
v  7.454884 57.095158 -2.886932
v  -0.119120 50.968044 -4.788208
v  5.713665 60.996758 -7.466370
v  1.466721 54.906586 -7.649261
v  5.294048 55.722988 -7.545197
v  -0.172947 35.480419 -4.237335
v  4.813557 36.391033 -5.548340
v  10.825344 37.911942 -0.808228
v  8.806694 36.413708 6.217224
v  3.649263 35.918285 8.203491
v  9.720772 38.654537 -0.408722
v  6.441471 37.672329 5.938354
v  4.253822 38.212856 -4.650452
v  0.898785 37.709347 -3.618561
v  0.806379 52.035336 5.445404
v  4.375322 52.144974 4.292816
v  -1.372099 66.208588 -9.435577
v  -1.323725 64.233833 -9.167786
v  7.184296 63.490555 5.067932
v  1.202461 59.219799 5.228607
v  6.031063 59.144417 4.030609
v  10.355156 67.975502 -5.805634
v  10.914806 65.786324 -2.808502
v  8.266621 62.303993 -1.458405
v  9.450809 66.903671 -9.343719
v  1.595821 64.915703 5.966278
v  6.739189 66.133293 3.589355
v  4.046024 69.312943 -7.657715
v  0.687685 69.445045 2.243744
v  3.304314 70.184715 1.121979
v  2.677082 75.449173 -2.076355
v  5.331139 70.947083 -3.661530
v  -0.004547 76.071426 -2.835938
v  -0.325459 73.093216 -5.627014
v  2.828495 72.979660 -5.217163
v  -0.729588 70.784370 -8.097473
v  5.487709 47.382984 5.613037
v  0.397413 47.490650 6.241974
v  8.465519 46.622215 0.481415
v  5.077988 45.739399 -4.572693
v  -0.015886 45.593575 -5.345428
v  11.205723 61.786045 -4.230042
v  11.838245 62.437515 -9.392609
v  12.303730 62.415642 -6.683807
v  8.960064 61.623516 -11.479797
v  7.974937 60.445004 -3.125671
v  0.491970 80.675613 2.824219
v  0.765045 79.380768 6.042542
v  0.760746 76.175758 6.032074
v  0.863850 74.185387 7.265900
v  0.814421 72.002304 6.713501
v  0.810860 73.583618 6.652039
v  0.823463 69.217583 6.854279
v  0.199131 80.078690 -0.602295
v  2.140709 72.210815 5.461456
v  2.617409 73.580437 5.384979
v  1.319349 75.421867 5.652710
v  3.651449 75.045204 3.371857
v  3.490841 70.659348 2.201630
v  3.191826 76.832573 5.610748
v  3.709864 76.301735 0.562164
v  1.987940 79.422432 5.527649
v  3.531097 78.663208 4.450958
v  2.136831 80.686028 2.701538
v  1.823664 73.601883 6.073517
v  2.877741 69.646873 4.324432
v  2.100306 69.229065 6.105682
v  3.553013 78.639526 0.553040
v  2.965384 79.864334 0.059235
v  3.022499 75.544006 5.045593
v  13.681904 60.329849 -8.268890
v  12.953037 59.903122 -4.629272
v  10.032410 59.248131 -11.319061
v  10.303776 45.907276 -6.798920
v  13.581547 45.805180 -8.735260
v  15.268177 46.894787 -6.631042
v  14.125511 47.673500 -3.930359
v  11.334606 47.345669 -3.416473
v  9.586311 50.202065 -8.274567
v  12.578766 50.546642 -10.067017
v  14.057194 51.391338 -7.841492
v  13.251915 51.589214 -5.810669
v  10.886719 50.190784 -5.051117
v  7.687206 54.841629 -8.439209
v  11.988605 52.577042 -10.143433
v  14.233788 56.704514 -8.154663
v  13.281487 56.357544 -4.788330
v  9.217735 55.154671 -4.098572
v  12.768761 49.062496 -9.345612
v  10.460224 51.954197 -5.438477
v  11.499096 55.154327 -11.216980
v  12.653652 39.701733 -4.101410
v  14.142658 39.528927 -5.261841
v  15.372494 40.073536 -4.471252
v  14.838764 40.703846 -2.771027
v  13.256088 40.597801 -2.290009
v  13.538109 37.188484 -0.129669
v  15.388527 36.885429 -0.231232
v  12.934826 36.527294 0.831177
v  12.949257 35.742172 2.146698
v  12.035950 38.638748 -0.082581
v  13.250706 38.266296 0.498016
v  11.971439 36.985458 1.390472
v  13.054790 37.085777 1.554291
v  12.136562 35.735046 1.922943
v  14.068859 35.214336 0.596191
v  14.695568 32.256767 1.606476
v  15.294399 34.809494 0.588928
v  14.536667 35.361809 -4.786133
v  14.878826 33.554920 -4.077240
v  15.362610 31.153122 -2.481079
v  15.774952 35.716545 -4.347046
v  15.777035 33.896763 -3.642578
v  14.101116 37.956650 0.034698
v  7.155148 31.755310 5.033691
v  3.799353 17.235483 -1.501343
v  5.528378 18.569925 -6.380096
v  10.837353 18.326920 -3.904175
v  8.159901 16.929998 0.902954
v  3.374393 25.227741 0.682495
v  5.152531 26.573030 -3.427338
v  9.018131 25.767305 -1.430756
v  7.574978 22.552797 1.759827
v  7.129650 27.251814 2.716217
v  7.612324 24.445839 2.759674
v  10.152821 29.544737 -1.407410
v  5.880222 3.894063 -3.937378
v  7.196918 5.251124 -7.137970
v  10.599648 4.693980 -5.533539
v  9.560642 7.570694 -4.865997
v  8.934963 5.733030 -2.334900
v  6.154568 7.034489 -3.703857
v  6.308758 0.174955 -7.004181
v  9.232769 0.691803 -7.991150
v  8.272316 0.604921 1.216309
v  14.054356 1.635601 -0.749878
v  11.626934 3.286692 3.626068
v  14.259869 1.725492 3.416016
v  10.688259 1.098784 5.291992
v  -6.495115 51.453293 1.143494
v  -4.758289 51.132759 -3.457794
v  -10.427078 64.387238 -6.443726
v  -7.374243 57.212112 -0.503143
v  -6.618397 61.403065 -3.712433
v  -3.162151 54.940617 -6.927795
v  -6.782001 55.814377 -5.636169
v  -5.054150 36.224712 -5.265991
v  -10.515438 37.633957 0.141846
v  -7.714731 36.143585 6.867096
v  -9.382572 38.393036 0.435455
v  -5.374523 37.425560 6.339874
v  -4.465256 38.068611 -4.429535
v  -1.019535 37.603848 -3.794250
v  -2.819380 51.812374 5.402557
v  -4.009161 63.608017 7.187561
v  -3.755268 59.225670 5.649323
v  -10.761822 68.423080 -2.148834
v  -10.504559 66.773529 1.185944
v  -7.981697 63.114010 2.295227
v  -10.688509 66.986328 -5.696136
v  -4.006237 66.248993 5.677338
v  -5.626472 69.401505 -5.934570
v  -2.098621 70.182083 1.889954
v  -2.489981 75.446289 -1.569153
v  -5.376606 71.060501 -1.855316
v  -3.311743 72.970535 -4.528503
v  -4.371723 46.873180 6.181885
v  -8.098454 46.415268 1.292297
v  -5.295563 45.865932 -4.067169
v  -11.916014 62.252010 -0.200256
v  -12.753428 62.576351 -5.407074
v  -13.146797 62.694031 -2.658569
v  -9.872402 61.763012 -7.527740
v  -8.579487 61.079250 0.813171
v  -0.704271 72.213837 5.704071
v  -1.184143 73.584473 5.709167
v  0.144382 75.423119 5.752899
v  -2.541035 75.051788 3.899933
v  -2.590145 70.665810 2.720215
v  -1.705181 76.837776 6.028351
v  -3.071699 76.308945 1.140472
v  -0.527287 79.425102 5.742126
v  -2.232067 78.669327 4.942413
v  -1.149887 80.689522 2.981842
v  -0.285238 73.604126 6.253357
v  -1.628597 69.651665 4.708710
v  -0.561665 69.231895 6.332672
v  -2.913725 78.646393 1.104523
v  -2.415615 79.870049 0.518097
v  -1.636713 75.548958 5.442902
v  -14.388415 60.442123 -4.321381
v  -13.707488 60.231033 -0.622650
v  -10.585846 59.386677 -7.237274
v  -10.417770 46.351990 -1.683594
v  -13.542673 45.807240 -3.790314
v  -15.421004 47.080616 -1.971466
v  -14.508409 48.282425 0.660950
v  -11.748075 48.181355 1.391785
v  -9.774426 50.451794 -3.631439
v  -12.612594 50.508991 -5.688446
v  -14.302854 51.489815 -3.678528
v  -13.682802 51.895256 -1.612457
v  -11.334751 50.723434 -0.555695
v  -8.079475 55.234539 -3.964478
v  -12.075591 52.664074 -5.851532
v  -14.708567 56.785797 -4.224701
v  -13.972099 56.643463 -0.775299
v  -9.909725 55.673557 0.230164
v  -12.819861 49.042576 -4.814941
v  -10.976086 52.351040 -1.000336
v  -11.654161 55.223602 -7.013763
v  -12.676022 40.458191 1.676025
v  -14.103214 40.062950 0.496796
v  -15.389454 40.649540 1.161011
v  -14.933496 41.516033 2.831177
v  -13.394700 41.531071 3.339966
v  -13.643219 38.368294 5.870911
v  -15.480571 37.999462 5.747681
v  -13.056318 37.841702 6.919464
v  -13.095896 37.211613 8.316803
v  -12.179080 39.856159 5.795441
v  -13.404413 39.521114 6.376434
v  -12.125018 38.390854 7.451172
v  -13.215927 38.474342 7.569763
v  -12.276065 37.202976 8.121063
v  -14.147052 36.475567 6.803680
v  -14.730891 33.636410 8.129730
v  -15.360605 36.036114 6.804962
v  -14.432092 35.989273 1.428528
v  -14.750910 34.269665 2.329071
v  -15.227084 32.050629 4.178802
v  -15.693628 36.354862 1.784515
v  -15.672241 34.631741 2.693054
v  -14.230432 39.136047 5.925537
v  -6.199108 31.540611 5.490356
v  -3.360016 16.928688 -0.924561
v  -5.534809 17.987349 -5.691406
v  -10.590912 17.915894 -2.723969
v  -7.478619 16.783743 1.886902
v  -2.764868 25.055965 0.861847
v  -4.914669 26.340160 -3.093323
v  -8.577312 25.496696 -0.764801
v  -6.827967 22.399752 2.374817
v  -6.352530 27.051195 3.193939
v  -6.795345 24.285419 3.312531
v  -9.765516 29.268047 -0.647034
v  -5.661171 3.514864 -2.326080
v  -7.258144 4.644545 -5.475525
v  -10.491772 4.174584 -3.532990
v  -9.407524 7.112052 -3.145050
v  -8.554276 5.439992 -0.577576
v  -5.907196 6.634170 -2.273926
v  -6.271439 -0.406396 -5.065521
v  -9.281555 0.004907 -5.814606
v  -7.472580 0.598422 3.251221
v  -13.430677 1.412581 1.768524
v  -10.640488 3.407824 5.767365
v  -13.252080 1.804283 5.915894
v  -9.511688 1.358369 7.490417
# 266 vertices

vt  0.414517 0.485338 0.000000
vt  0.489174 0.497239 0.000000
vt  0.550479 0.485338 0.000000
vt  0.329118 0.504113 0.000000
vt  0.420682 0.504388 0.000000
vt  0.490853 0.675485 0.000000
vt  0.356970 0.710738 0.000000
vt  0.307767 0.663467 0.000000
vt  0.491001 0.506534 0.000000
vt  0.272881 0.708251 0.000000
vt  0.307693 0.663467 0.000000
vt  0.458986 0.602657 0.000000
vt  0.390374 0.619683 0.000000
vt  0.694409 0.971380 0.000000
vt  0.584242 0.936155 0.000000
vt  0.501054 0.950636 0.000000
vt  0.578845 0.971377 0.000000
vt  0.691613 0.940228 0.000000
vt  0.529882 0.993867 0.000000
vt  0.597833 0.993868 0.000000
vt  0.684209 0.993870 0.000000
vt  0.689094 0.993870 0.000000
vt  0.240700 0.512959 0.000000
vt  0.160773 0.512959 0.000000
vt  0.490853 0.820915 0.000000
vt  0.357039 0.710738 0.000000
vt  0.490853 0.781888 0.000000
vt  0.131880 0.753091 0.000000
vt  0.240556 0.660920 0.000000
vt  0.133663 0.660928 0.000000
vt  0.060606 0.782384 0.000000
vt  0.058190 0.859642 0.000000
vt  0.052544 0.886601 0.000000
vt  0.298691 0.847983 0.000000
vt  0.060014 0.783494 0.000000
vt  0.240556 0.781375 0.000000
vt  0.136145 0.808744 0.000000
vt  0.390182 0.870896 0.000000
vt  0.235241 0.891030 0.000000
vt  0.181129 0.899551 0.000000
vt  0.172936 0.966074 0.000000
vt  0.181129 0.899551 0.000000
vt  0.145152 0.921474 0.000000
vt  0.490646 0.999330 0.000000
vt  0.456563 0.999059 0.000000
vt  0.491140 0.942697 0.000000
vt  0.429989 0.941889 0.000000
vt  0.490853 0.898039 0.000000
vt  0.877923 0.002315 0.000000
vt  0.710756 0.001536 0.000000
vt  0.812168 0.002315 0.000000
vt  0.813217 0.120956 0.000000
vt  0.701416 0.118225 0.000000
vt  0.872775 0.120438 0.000000
vt  0.002866 0.854679 0.000000
vt  0.272881 0.708251 0.000000
vt  0.247300 0.848527 0.000000
vt  0.243886 0.876138 0.000000
vt  0.251604 0.781884 0.000000
vt  0.006948 0.782948 0.000000
vt  0.006948 0.782948 0.000000
vt  0.745560 1.001324 0.000000
vt  0.747491 0.935506 0.000000
vt  0.747491 0.878462 0.000000
vt  0.747491 0.808438 0.000000
vt  0.748639 0.732530 0.000000
vt  0.747491 0.790807 0.000000
vt  0.746944 0.628012 0.000000
vt  0.747085 0.666819 0.000000
vt  0.550618 0.934468 0.000000
vt  0.720762 0.730332 0.000000
vt  0.705811 0.784366 0.000000
vt  0.729837 0.853035 0.000000
vt  0.674684 0.829607 0.000000
vt  0.654033 0.662928 0.000000
vt  0.654033 0.662928 0.000000
vt  0.695349 0.885675 0.000000
vt  0.623758 0.856571 0.000000
vt  0.716351 0.931575 0.000000
vt  0.676247 0.904603 0.000000
vt  0.649719 0.961956 0.000000
vt  0.725611 0.781438 0.000000
vt  0.747491 0.878462 0.000000
vt  0.703232 0.671848 0.000000
vt  0.731857 0.666086 0.000000
vt  0.611291 0.885598 0.000000
vt  0.604148 0.909350 0.000000
vt  0.697736 0.853617 0.000000
vt  0.695349 0.885675 0.000000
vt  0.695349 0.885675 0.000000
vt  0.669444 0.510287 0.000000
vt  0.578607 0.510287 0.000000
vt  0.756457 0.510287 0.000000
vt  0.875912 0.308662 0.000000
vt  0.758260 0.308662 0.000000
vt  0.671223 0.308662 0.000000
vt  0.577057 0.308662 0.000000
vt  0.498247 0.308662 0.000000
vt  0.875566 0.382888 0.000000
vt  0.758924 0.382888 0.000000
vt  0.669163 0.382888 0.000000
vt  0.584325 0.382888 0.000000
vt  0.498223 0.363687 0.000000
vt  0.877240 0.461159 0.000000
vt  0.759483 0.410364 0.000000
vt  0.665903 0.461159 0.000000
vt  0.580075 0.461159 0.000000
vt  0.992418 0.461159 0.000000
vt  0.759996 0.360654 0.000000
vt  0.498223 0.402657 0.000000
vt  0.760539 0.449273 0.000000
vt  0.858161 0.196355 0.000000
vt  0.762705 0.196431 0.000000
vt  0.690657 0.196417 0.000000
vt  0.588027 0.196417 0.000000
vt  0.498144 0.196431 0.000000
vt  0.356438 0.030356 0.000000
vt  0.369327 0.043627 0.000000
vt  0.380090 0.017573 0.000000
vt  0.416197 0.004791 0.000000
vt  0.316032 0.012201 0.000000
vt  0.336848 0.019568 0.000000
vt  0.371147 0.002582 0.000000
vt  0.375723 0.009258 0.000000
vt  0.408124 0.000758 0.000000
vt  0.448349 0.035630 0.000000
vt  0.498209 0.039288 0.000000
vt  0.429228 0.045736 0.000000
vt  0.102506 0.115410 0.000000
vt  0.153549 0.117195 0.000000
vt  0.189513 0.114692 0.000000
vt  0.228429 0.109580 0.000000
vt  0.355355 0.108206 0.000000
vt  0.406548 0.108121 0.000000
vt  0.342839 0.029458 0.000000
vt  0.413806 0.033644 0.000000
vt  0.461840 0.047992 0.000000
vt  0.442212 0.108407 0.000000
vt  0.458693 0.603155 0.000000
vt  0.357039 0.710738 0.000000
vt  0.420389 0.504181 0.000000
vt  0.307693 0.663467 0.000000
vt  0.389206 0.622726 0.000000
vt  0.389206 0.622726 0.000000
vt  0.309151 0.663075 0.000000
vt  0.390855 0.620128 0.000000
vt  0.730001 0.975635 0.000000
vt  0.055577 0.663688 0.000000
vt  0.067037 0.515196 0.000000
vt  0.131877 0.752996 0.000000
vt  0.294173 0.886121 0.000000
vt  0.142740 0.921054 0.000000
vt  0.389917 0.922986 0.000000
vt  0.456563 0.999059 0.000000
vt  0.294173 0.886121 0.000000
vt  0.389917 0.922986 0.000000
vt  0.389917 0.922986 0.000000
vt  0.790107 0.184348 0.000000
vt  0.701372 0.182427 0.000000
vt  0.790107 0.184348 0.000000
vt  0.857243 0.184348 0.000000
vt  0.790107 0.184348 0.000000
vt  0.857243 0.184348 0.000000
vt  0.058190 0.859642 0.000000
vt  0.052544 0.886601 0.000000
vt  0.055608 0.663958 0.000000
vt  0.061197 0.782654 0.000000
vt  0.027518 0.706813 0.000000
vt  0.357109 0.710738 0.000000
vt  0.298691 0.847983 0.000000
vt  0.058190 0.859642 0.000000
vt  0.060606 0.782384 0.000000
vt  0.294173 0.886121 0.000000
vt  -0.000514 0.880403 0.000000
vt  0.052544 0.886601 0.000000
vt  0.298691 0.847983 0.000000
vt  0.298691 0.847983 0.000000
vt  0.294173 0.886121 0.000000
vt  0.357109 0.710738 0.000000
vt  0.027518 0.706813 0.000000
vt  0.061197 0.782654 0.000000
vt  0.060606 0.782384 0.000000
vt  0.720473 0.730776 0.000000
vt  0.658187 0.605708 0.000000
vt  0.587609 0.811448 0.000000
vt  0.658187 0.605708 0.000000
vt  0.748523 0.593788 0.000000
vt  0.658187 0.605708 0.000000
vt  0.720379 0.731031 0.000000
vt  0.703232 0.671848 0.000000
vt  0.748523 0.593788 0.000000
vt  0.703659 0.671442 0.000000
vt  0.731857 0.666086 0.000000
vt  0.748639 0.732530 0.000000
vt  0.720379 0.731031 0.000000
vt  0.720762 0.730332 0.000000
vt  0.703186 0.671176 0.000000
vt  0.731857 0.666086 0.000000
vt  0.703232 0.671848 0.000000
vt  0.747085 0.666819 0.000000
vt  0.748639 0.732530 0.000000
vt  0.587609 0.811448 0.000000
vt  0.587609 0.811448 0.000000
vt  0.649719 0.961956 0.000000
vt  0.649719 0.961956 0.000000
vt  0.550618 0.823662 0.000000
vt  0.587609 0.811448 0.000000
vt  0.550618 0.823662 0.000000
vt  0.649719 0.961956 0.000000
vt  0.067037 0.515196 0.000000
vt  0.055608 0.663958 0.000000
vt  0.571978 0.557920 0.000000
vt  0.625864 0.557513 0.000000
vt  0.679695 0.557918 0.000000
vt  0.756032 0.560223 0.000000
vt  0.625864 0.557513 0.000000
vt  0.679695 0.557918 0.000000
vt  0.944262 0.560223 0.000000
vt  0.625864 0.557513 0.000000
vt  0.756032 0.560223 0.000000
vt  0.806202 0.560223 0.000000
vt  0.756032 0.560223 0.000000
vt  0.571978 0.557920 0.000000
vt  0.498275 0.560223 0.000000
vt  0.992439 0.363687 0.000000
vt  0.992597 0.308662 0.000000
vt  0.992439 0.363687 0.000000
vt  0.992438 0.402657 0.000000
vt  0.806202 0.560223 0.000000
vt  0.498220 0.461159 0.000000
vt  0.498275 0.560223 0.000000
vt  0.498220 0.461159 0.000000
vt  0.875438 0.575163 0.000000
vt  0.944262 0.560223 0.000000
vt  0.992439 0.363687 0.000000
vt  0.992438 0.402657 0.000000
vt  0.992438 0.402657 0.000000
vt  0.498220 0.461159 0.000000
vt  0.991918 0.196431 0.000000
vt  0.992597 0.308662 0.000000
vt  0.991918 0.196431 0.000000
vt  0.249292 0.041099 0.000000
vt  0.119423 0.002194 0.000000
vt  0.154876 0.002573 0.000000
vt  0.128136 0.016613 0.000000
vt  0.160447 0.001473 0.000000
vt  0.128136 0.016613 0.000000
vt  0.154876 0.002573 0.000000
vt  0.065726 0.014292 0.000000
vt  0.119423 0.002194 0.000000
vt  0.128136 0.016613 0.000000
vt  0.128136 0.016613 0.000000
vt  0.105093 0.028910 0.000000
vt  0.065726 0.014292 0.000000
vt  0.105093 0.028910 0.000000
vt  0.000825 0.069213 0.000000
vt  0.065726 0.014292 0.000000
vt  0.065726 0.014292 0.000000
vt  0.000825 0.069213 0.000000
vt  0.000703 0.039244 0.000000
vt  0.249292 0.041099 0.000000
vt  0.249314 0.055441 0.000000
vt  0.105093 0.028910 0.000000
vt  0.194639 0.033982 0.000000
vt  0.483032 0.114221 0.000000
vt  0.355217 0.119080 0.000000
vt  0.406174 0.120334 0.000000
vt  0.355217 0.119080 0.000000
vt  0.194639 0.033982 0.000000
vt  0.243215 0.037501 0.000000
vt  0.249314 0.055441 0.000000
vt  0.249314 0.089732 0.000000
vt  0.000825 0.069213 0.000000
vt  0.105093 0.028910 0.000000
vt  0.000703 0.095058 0.000000
vt  0.000825 0.069213 0.000000
vt  0.249314 0.089732 0.000000
vt  0.249292 0.105039 0.000000
vt  0.249314 0.089732 0.000000
vt  0.249292 0.105039 0.000000
vt  0.355217 0.119080 0.000000
vt  0.249314 0.055441 0.000000
vt  0.249314 0.055441 0.000000
vt  0.105093 0.028910 0.000000
vt  0.160984 0.032072 0.000000
vt  0.483032 0.114221 0.000000
vt  0.443088 0.117732 0.000000
vt  0.483032 0.114221 0.000000
vt  0.692830 0.969164 0.000000
vt  0.685579 0.991654 0.000000
vt  0.730212 0.975635 0.000000
vt  0.584242 0.936155 0.000000
vt  0.529882 0.993867 0.000000
vt  0.602549 0.993867 0.000000
vt  0.689094 0.993870 0.000000
vt  0.561277 0.000692 0.000000
vt  0.688827 -0.000098 0.000000
vt  0.564263 0.119120 0.000000
vt  0.697567 0.116528 0.000000
vt  0.507564 0.183764 0.000000
vt  0.505869 0.118716 0.000000
vt  0.580429 0.182675 0.000000
vt  0.697589 0.180917 0.000000
vt  0.507564 0.183764 0.000000
vt  0.580429 0.182675 0.000000
vt  0.697589 0.180917 0.000000
vt  0.503935 0.000692 0.000000
vt  0.505869 0.118716 0.000000
vt  0.503935 0.000692 0.000000
vt  0.489174 0.497239 0.000000
vt  0.351459 0.420971 0.000000
vt  0.352499 0.420971 0.000000
vt  0.000784 0.227894 0.000000
vt  0.105699 0.228145 0.000000
vt  0.216985 0.228421 0.000000
vt  0.351571 0.227894 0.000000
vt  0.023914 0.327327 0.000000
vt  0.104981 0.327662 0.000000
vt  0.216171 0.327327 0.000000
vt  0.351490 0.301452 0.000000
vt  0.352420 0.301452 0.000000
vt  0.025422 0.328212 0.000000
vt  0.216104 0.328075 0.000000
vt  0.351611 0.363299 0.000000
vt  0.352312 0.363299 0.000000
vt  0.351597 0.328057 0.000000
vt  0.352330 0.328057 0.000000
vt  0.104127 0.227894 0.000000
vt  0.216660 0.380224 0.000000
vt  0.104983 0.328371 0.000000
vt  0.352342 0.227894 0.000000
vt  0.009616 0.131504 0.000000
vt  0.104256 0.155747 0.000000
vt  0.105883 0.155747 0.000000
vt  0.223982 0.125749 0.000000
vt  0.216130 0.152222 0.000000
vt  0.351732 0.147623 0.000000
vt  0.352306 0.146326 0.000000
vt  0.469070 0.149411 0.000000
vt  0.989968 0.003451 0.000000
vt  0.909211 0.004273 0.000000
vt  0.996004 0.120663 0.000000
vt  0.989968 0.003451 0.000000
vt  0.909211 0.004273 0.000000
vt  0.885225 0.122889 0.000000
vt  0.885225 0.122889 0.000000
vt  0.996004 0.120663 0.000000
vt  0.943924 0.157220 0.000000
vt  0.507177 0.624822 0.000000
vt  0.600053 0.622523 0.000000
vt  0.943924 0.157220 0.000000
vt  0.217290 0.227894 0.000000
vt  0.217575 0.327327 0.000000
vt  0.217290 0.227894 0.000000
vt  0.489174 0.227894 0.000000
vt  0.489174 0.227894 0.000000
vt  0.471690 0.333380 0.000000
vt  0.217345 0.328075 0.000000
vt  0.470864 0.334174 0.000000
vt  0.217345 0.328075 0.000000
vt  0.217232 0.380224 0.000000
vt  0.217232 0.380224 0.000000
vt  0.470864 0.334174 0.000000
vt  0.217345 0.328075 0.000000
vt  0.470864 0.334174 0.000000
vt  0.229465 0.497239 0.000000
vt  0.351589 0.497239 0.000000
vt  0.352627 0.497239 0.000000
vt  0.217232 0.380224 0.000000
vt  0.229465 0.497239 0.000000
vt  0.072972 0.497239 0.000000
vt  0.470864 0.334174 0.000000
vt  0.072972 0.497239 0.000000
vt  0.002386 0.497239 0.000000
vt  0.218721 0.149411 0.000000
vt  0.223132 0.128232 0.000000
vt  0.483427 0.127273 0.000000
vt  0.017963 0.152222 0.000000
vt  0.105700 0.228142 0.000000
vt  0.104128 0.227914 0.000000
vt  0.017963 0.152222 0.000000
vt  0.000790 0.227921 0.000000
vt  0.017963 0.152222 0.000000
vt  0.104128 0.227914 0.000000
vt  0.216984 0.228396 0.000000
vt  0.105700 0.228142 0.000000
vt  0.217291 0.227882 0.000000
vt  0.218721 0.149411 0.000000
vt  0.351571 0.227971 0.000000
vt  0.351571 0.227971 0.000000
vt  0.218721 0.149411 0.000000
vt  0.352342 0.227879 0.000000
vt  0.489111 0.227891 0.000000
vt  0.352342 0.227879 0.000000
vt  0.971575 0.059997 0.000000
vt  0.948232 0.041698 0.000000
vt  0.948232 0.041698 0.000000
vt  0.971575 0.059997 0.000000
vt  0.925604 0.058708 0.000000
vt  0.597947 0.686709 0.000000
vt  0.501430 0.685191 0.000000
vt  0.516483 0.798440 0.000000
vt  0.516483 0.798440 0.000000
vt  0.594444 0.793024 0.000000
vt  0.597947 0.686709 0.000000
vt  0.925604 0.058708 0.000000
vt  0.950876 0.082499 0.000000
vt  0.948232 0.041698 0.000000
vt  0.925604 0.058708 0.000000
vt  0.950876 0.082499 0.000000
vt  0.971575 0.059997 0.000000
vt  0.950876 0.082499 0.000000
vt  0.950876 0.082499 0.000000
vt  0.501430 0.685191 0.000000
vt  0.501430 0.685191 0.000000
vt  0.597947 0.686709 0.000000
vt  0.901715 0.182549 0.000000
vt  0.901715 0.182549 0.000000
vt  0.982420 0.184037 0.000000
vt  0.982420 0.184037 0.000000
vt  0.216660 0.380224 0.000000
vt  0.104983 0.328371 0.000000
vt  0.133020 0.497239 0.000000
vt  0.229583 0.497239 0.000000
vt  0.133020 0.497239 0.000000
vt  0.133020 0.497239 0.000000
vt  0.072972 0.497239 0.000000
vt  0.414517 0.485338 0.000000
vt  0.489174 0.497239 0.000000
vt  0.550479 0.485338 0.000000
vt  0.329118 0.504113 0.000000
vt  0.420682 0.504388 0.000000
vt  0.490853 0.675485 0.000000
vt  0.356970 0.710738 0.000000
vt  0.307767 0.663467 0.000000
vt  0.491001 0.506534 0.000000
vt  0.272881 0.708251 0.000000
vt  0.307693 0.663467 0.000000
vt  0.458986 0.602657 0.000000
vt  0.390374 0.619683 0.000000
vt  0.694409 0.971380 0.000000
vt  0.584242 0.936155 0.000000
vt  0.501054 0.950636 0.000000
vt  0.578845 0.971377 0.000000
vt  0.691613 0.940228 0.000000
vt  0.529882 0.993867 0.000000
vt  0.597833 0.993868 0.000000
vt  0.684209 0.993870 0.000000
vt  0.689094 0.993870 0.000000
vt  0.240700 0.512959 0.000000
vt  0.160773 0.512959 0.000000
vt  0.490853 0.820915 0.000000
vt  0.357039 0.710738 0.000000
vt  0.490853 0.781888 0.000000
vt  0.131880 0.753091 0.000000
vt  0.240556 0.660920 0.000000
vt  0.133663 0.660928 0.000000
vt  0.060606 0.782384 0.000000
vt  0.058190 0.859642 0.000000
vt  0.052544 0.886601 0.000000
vt  0.298691 0.847983 0.000000
vt  0.060014 0.783494 0.000000
vt  0.240556 0.781375 0.000000
vt  0.136145 0.808744 0.000000
vt  0.390182 0.870896 0.000000
vt  0.235241 0.891030 0.000000
vt  0.181129 0.899551 0.000000
vt  0.172936 0.966074 0.000000
vt  0.181129 0.899551 0.000000
vt  0.145152 0.921474 0.000000
vt  0.490646 0.999330 0.000000
vt  0.456563 0.999059 0.000000
vt  0.491140 0.942697 0.000000
vt  0.429989 0.941889 0.000000
vt  0.490853 0.898039 0.000000
vt  0.877923 0.002315 0.000000
vt  0.710756 0.001536 0.000000
vt  0.812168 0.002315 0.000000
vt  0.813217 0.120956 0.000000
vt  0.701416 0.118225 0.000000
vt  0.872775 0.120438 0.000000
vt  0.002866 0.854679 0.000000
vt  0.272881 0.708251 0.000000
vt  0.247300 0.848527 0.000000
vt  0.243886 0.876138 0.000000
vt  0.251604 0.781884 0.000000
vt  0.006948 0.782948 0.000000
vt  0.006948 0.782948 0.000000
vt  0.745560 1.001324 0.000000
vt  0.747491 0.935506 0.000000
vt  0.747491 0.878462 0.000000
vt  0.747491 0.808438 0.000000
vt  0.748639 0.732530 0.000000
vt  0.747491 0.790807 0.000000
vt  0.746944 0.628012 0.000000
vt  0.747085 0.666819 0.000000
vt  0.550618 0.934468 0.000000
vt  0.720762 0.730332 0.000000
vt  0.705811 0.784366 0.000000
vt  0.729837 0.853035 0.000000
vt  0.674684 0.829607 0.000000
vt  0.654033 0.662928 0.000000
vt  0.654033 0.662928 0.000000
vt  0.695349 0.885675 0.000000
vt  0.623758 0.856571 0.000000
vt  0.716351 0.931575 0.000000
vt  0.676247 0.904603 0.000000
vt  0.649719 0.961956 0.000000
vt  0.725611 0.781438 0.000000
vt  0.747491 0.878462 0.000000
vt  0.703232 0.671848 0.000000
vt  0.731857 0.666086 0.000000
vt  0.611291 0.885598 0.000000
vt  0.604148 0.909350 0.000000
vt  0.697736 0.853617 0.000000
vt  0.695349 0.885675 0.000000
vt  0.695349 0.885675 0.000000
vt  0.669444 0.510287 0.000000
vt  0.578607 0.510287 0.000000
vt  0.756457 0.510287 0.000000
vt  0.875912 0.308662 0.000000
vt  0.758260 0.308662 0.000000
vt  0.671223 0.308662 0.000000
vt  0.577057 0.308662 0.000000
vt  0.498247 0.308662 0.000000
vt  0.875566 0.382888 0.000000
vt  0.758924 0.382888 0.000000
vt  0.669163 0.382888 0.000000
vt  0.584325 0.382888 0.000000
vt  0.498223 0.363687 0.000000
vt  0.877240 0.461159 0.000000
vt  0.759483 0.410364 0.000000
vt  0.665903 0.461159 0.000000
vt  0.580075 0.461159 0.000000
vt  0.992418 0.461159 0.000000
vt  0.759996 0.360654 0.000000
vt  0.498223 0.402657 0.000000
vt  0.760539 0.449273 0.000000
vt  0.858161 0.196355 0.000000
vt  0.762705 0.196431 0.000000
vt  0.690657 0.196417 0.000000
vt  0.588027 0.196417 0.000000
vt  0.498144 0.196431 0.000000
vt  0.356438 0.030356 0.000000
vt  0.369327 0.043627 0.000000
vt  0.380090 0.017573 0.000000
vt  0.416197 0.004791 0.000000
vt  0.316032 0.012201 0.000000
vt  0.336848 0.019568 0.000000
vt  0.371147 0.002582 0.000000
vt  0.375723 0.009258 0.000000
vt  0.408124 0.000758 0.000000
vt  0.448349 0.035630 0.000000
vt  0.498209 0.039288 0.000000
vt  0.429228 0.045736 0.000000
vt  0.102506 0.115410 0.000000
vt  0.153549 0.117195 0.000000
vt  0.189513 0.114692 0.000000
vt  0.228429 0.109580 0.000000
vt  0.355355 0.108206 0.000000
vt  0.406548 0.108121 0.000000
vt  0.342839 0.029458 0.000000
vt  0.413806 0.033644 0.000000
vt  0.461840 0.047992 0.000000
vt  0.442212 0.108407 0.000000
vt  0.458693 0.603155 0.000000
vt  0.357039 0.710738 0.000000
vt  0.420389 0.504181 0.000000
vt  0.307693 0.663467 0.000000
vt  0.389206 0.622726 0.000000
vt  0.389206 0.622726 0.000000
vt  0.309151 0.663075 0.000000
vt  0.390855 0.620128 0.000000
vt  0.730001 0.975635 0.000000
vt  0.055577 0.663688 0.000000
vt  0.067037 0.515196 0.000000
vt  0.131877 0.752996 0.000000
vt  0.294173 0.886121 0.000000
vt  0.142740 0.921054 0.000000
vt  0.389917 0.922986 0.000000
vt  0.456563 0.999059 0.000000
vt  0.294173 0.886121 0.000000
vt  0.389917 0.922986 0.000000
vt  0.389917 0.922986 0.000000
vt  0.790107 0.184348 0.000000
vt  0.701372 0.182427 0.000000
vt  0.790107 0.184348 0.000000
vt  0.857243 0.184348 0.000000
vt  0.790107 0.184348 0.000000
vt  0.857243 0.184348 0.000000
vt  0.058190 0.859642 0.000000
vt  0.052544 0.886601 0.000000
vt  0.055608 0.663958 0.000000
vt  0.061197 0.782654 0.000000
vt  0.027518 0.706813 0.000000
vt  0.357109 0.710738 0.000000
vt  0.298691 0.847983 0.000000
vt  0.058190 0.859642 0.000000
vt  0.060606 0.782384 0.000000
vt  0.294173 0.886121 0.000000
vt  -0.000514 0.880403 0.000000
vt  0.052544 0.886601 0.000000
vt  0.298691 0.847983 0.000000
vt  0.298691 0.847983 0.000000
vt  0.294173 0.886121 0.000000
vt  0.357109 0.710738 0.000000
vt  0.027518 0.706813 0.000000
vt  0.061197 0.782654 0.000000
vt  0.060606 0.782384 0.000000
vt  0.720473 0.730776 0.000000
vt  0.658187 0.605708 0.000000
vt  0.587609 0.811448 0.000000
vt  0.658187 0.605708 0.000000
vt  0.748523 0.593788 0.000000
vt  0.658187 0.605708 0.000000
vt  0.720379 0.731031 0.000000
vt  0.703232 0.671848 0.000000
vt  0.748523 0.593788 0.000000
vt  0.703659 0.671442 0.000000
vt  0.731857 0.666086 0.000000
vt  0.748639 0.732530 0.000000
vt  0.720379 0.731031 0.000000
vt  0.720762 0.730332 0.000000
vt  0.703186 0.671176 0.000000
vt  0.731857 0.666086 0.000000
vt  0.703232 0.671848 0.000000
vt  0.747085 0.666819 0.000000
vt  0.748639 0.732530 0.000000
vt  0.587609 0.811448 0.000000
vt  0.587609 0.811448 0.000000
vt  0.649719 0.961956 0.000000
vt  0.649719 0.961956 0.000000
vt  0.550618 0.823662 0.000000
vt  0.587609 0.811448 0.000000
vt  0.550618 0.823662 0.000000
vt  0.649719 0.961956 0.000000
vt  0.067037 0.515196 0.000000
vt  0.055608 0.663958 0.000000
vt  0.571978 0.557920 0.000000
vt  0.625864 0.557513 0.000000
vt  0.679695 0.557918 0.000000
vt  0.756032 0.560223 0.000000
vt  0.625864 0.557513 0.000000
vt  0.679695 0.557918 0.000000
vt  0.944262 0.560223 0.000000
vt  0.625864 0.557513 0.000000
vt  0.756032 0.560223 0.000000
vt  0.806202 0.560223 0.000000
vt  0.756032 0.560223 0.000000
vt  0.571978 0.557920 0.000000
vt  0.498275 0.560223 0.000000
vt  0.992439 0.363687 0.000000
vt  0.992597 0.308662 0.000000
vt  0.992439 0.363687 0.000000
vt  0.992438 0.402657 0.000000
vt  0.806202 0.560223 0.000000
vt  0.498220 0.461159 0.000000
vt  0.498275 0.560223 0.000000
vt  0.498220 0.461159 0.000000
vt  0.875438 0.575163 0.000000
vt  0.944262 0.560223 0.000000
vt  0.992439 0.363687 0.000000
vt  0.992438 0.402657 0.000000
vt  0.992438 0.402657 0.000000
vt  0.498220 0.461159 0.000000
vt  0.991918 0.196431 0.000000
vt  0.992597 0.308662 0.000000
vt  0.991918 0.196431 0.000000
vt  0.249292 0.041099 0.000000
vt  0.119423 0.002194 0.000000
vt  0.154876 0.002573 0.000000
vt  0.128136 0.016613 0.000000
vt  0.160447 0.001473 0.000000
vt  0.128136 0.016613 0.000000
vt  0.154876 0.002573 0.000000
vt  0.065726 0.014292 0.000000
vt  0.119423 0.002194 0.000000
vt  0.128136 0.016613 0.000000
vt  0.128136 0.016613 0.000000
vt  0.105093 0.028910 0.000000
vt  0.065726 0.014292 0.000000
vt  0.105093 0.028910 0.000000
vt  0.000825 0.069213 0.000000
vt  0.065726 0.014292 0.000000
vt  0.065726 0.014292 0.000000
vt  0.000825 0.069213 0.000000
vt  0.000703 0.039244 0.000000
vt  0.249292 0.041099 0.000000
vt  0.249314 0.055441 0.000000
vt  0.105093 0.028910 0.000000
vt  0.194639 0.033982 0.000000
vt  0.483032 0.114221 0.000000
vt  0.355217 0.119080 0.000000
vt  0.406174 0.120334 0.000000
vt  0.355217 0.119080 0.000000
vt  0.194639 0.033982 0.000000
vt  0.243215 0.037501 0.000000
vt  0.249314 0.055441 0.000000
vt  0.249314 0.089732 0.000000
vt  0.000825 0.069213 0.000000
vt  0.105093 0.028910 0.000000
vt  0.000703 0.095058 0.000000
vt  0.000825 0.069213 0.000000
vt  0.249314 0.089732 0.000000
vt  0.249292 0.105039 0.000000
vt  0.249314 0.089732 0.000000
vt  0.249292 0.105039 0.000000
vt  0.355217 0.119080 0.000000
vt  0.249314 0.055441 0.000000
vt  0.249314 0.055441 0.000000
vt  0.105093 0.028910 0.000000
vt  0.160984 0.032072 0.000000
vt  0.483032 0.114221 0.000000
vt  0.443088 0.117732 0.000000
vt  0.483032 0.114221 0.000000
vt  0.692830 0.969164 0.000000
vt  0.685579 0.991654 0.000000
vt  0.730212 0.975635 0.000000
vt  0.584242 0.936155 0.000000
vt  0.529882 0.993867 0.000000
vt  0.602549 0.993867 0.000000
vt  0.689094 0.993870 0.000000
vt  0.561277 0.000692 0.000000
vt  0.688827 -0.000098 0.000000
vt  0.564263 0.119120 0.000000
vt  0.697567 0.116528 0.000000
vt  0.507564 0.183764 0.000000
vt  0.505869 0.118716 0.000000
vt  0.580429 0.182675 0.000000
vt  0.697589 0.180917 0.000000
vt  0.507564 0.183764 0.000000
vt  0.580429 0.182675 0.000000
vt  0.697589 0.180917 0.000000
vt  0.503935 0.000692 0.000000
vt  0.505869 0.118716 0.000000
vt  0.503935 0.000692 0.000000
vt  0.489174 0.497239 0.000000
vt  0.351459 0.420971 0.000000
vt  0.352499 0.420971 0.000000
vt  0.000784 0.227894 0.000000
vt  0.105699 0.228145 0.000000
vt  0.216985 0.228421 0.000000
vt  0.351571 0.227894 0.000000
vt  0.023914 0.327327 0.000000
vt  0.104981 0.327662 0.000000
vt  0.216171 0.327327 0.000000
vt  0.351490 0.301452 0.000000
vt  0.352420 0.301452 0.000000
vt  0.025422 0.328212 0.000000
vt  0.216104 0.328075 0.000000
vt  0.351611 0.363299 0.000000
vt  0.352312 0.363299 0.000000
vt  0.351597 0.328057 0.000000
vt  0.352330 0.328057 0.000000
vt  0.104127 0.227894 0.000000
vt  0.216660 0.380224 0.000000
vt  0.104983 0.328371 0.000000
vt  0.352342 0.227894 0.000000
vt  0.009616 0.131504 0.000000
vt  0.104256 0.155747 0.000000
vt  0.105883 0.155747 0.000000
vt  0.223982 0.125749 0.000000
vt  0.216130 0.152222 0.000000
vt  0.351732 0.147623 0.000000
vt  0.352306 0.146326 0.000000
vt  0.469070 0.149411 0.000000
vt  0.989968 0.003451 0.000000
vt  0.909211 0.004273 0.000000
vt  0.996004 0.120663 0.000000
vt  0.989968 0.003451 0.000000
vt  0.909211 0.004273 0.000000
vt  0.885225 0.122889 0.000000
vt  0.885225 0.122889 0.000000
vt  0.996004 0.120663 0.000000
vt  0.943924 0.157220 0.000000
vt  0.507177 0.624822 0.000000
vt  0.600053 0.622523 0.000000
vt  0.943924 0.157220 0.000000
vt  0.217290 0.227894 0.000000
vt  0.217575 0.327327 0.000000
vt  0.217290 0.227894 0.000000
vt  0.489174 0.227894 0.000000
vt  0.489174 0.227894 0.000000
vt  0.471690 0.333380 0.000000
vt  0.217345 0.328075 0.000000
vt  0.470864 0.334174 0.000000
vt  0.217345 0.328075 0.000000
vt  0.217232 0.380224 0.000000
vt  0.217232 0.380224 0.000000
vt  0.470864 0.334174 0.000000
vt  0.217345 0.328075 0.000000
vt  0.470864 0.334174 0.000000
vt  0.229465 0.497239 0.000000
vt  0.351589 0.497239 0.000000
vt  0.352627 0.497239 0.000000
vt  0.217232 0.380224 0.000000
vt  0.229465 0.497239 0.000000
vt  0.072972 0.497239 0.000000
vt  0.470864 0.334174 0.000000
vt  0.072972 0.497239 0.000000
vt  0.002386 0.497239 0.000000
vt  0.218721 0.149411 0.000000
vt  0.223132 0.128232 0.000000
vt  0.483427 0.127273 0.000000
vt  0.017963 0.152222 0.000000
vt  0.105700 0.228142 0.000000
vt  0.104128 0.227914 0.000000
vt  0.017963 0.152222 0.000000
vt  0.000790 0.227921 0.000000
vt  0.017963 0.152222 0.000000
vt  0.104128 0.227914 0.000000
vt  0.216984 0.228396 0.000000
vt  0.105700 0.228142 0.000000
vt  0.217291 0.227882 0.000000
vt  0.218721 0.149411 0.000000
vt  0.351571 0.227971 0.000000
vt  0.351571 0.227971 0.000000
vt  0.218721 0.149411 0.000000
vt  0.352342 0.227879 0.000000
vt  0.489111 0.227891 0.000000
vt  0.352342 0.227879 0.000000
vt  0.971575 0.059997 0.000000
vt  0.948232 0.041698 0.000000
vt  0.948232 0.041698 0.000000
vt  0.971575 0.059997 0.000000
vt  0.925604 0.058708 0.000000
vt  0.597947 0.686709 0.000000
vt  0.501430 0.685191 0.000000
vt  0.516483 0.798440 0.000000
vt  0.516483 0.798440 0.000000
vt  0.594444 0.793024 0.000000
vt  0.597947 0.686709 0.000000
vt  0.925604 0.058708 0.000000
vt  0.950876 0.082499 0.000000
vt  0.948232 0.041698 0.000000
vt  0.925604 0.058708 0.000000
vt  0.950876 0.082499 0.000000
vt  0.971575 0.059997 0.000000
vt  0.950876 0.082499 0.000000
vt  0.950876 0.082499 0.000000
vt  0.501430 0.685191 0.000000
vt  0.501430 0.685191 0.000000
vt  0.597947 0.686709 0.000000
vt  0.901715 0.182549 0.000000
vt  0.901715 0.182549 0.000000
vt  0.982420 0.184037 0.000000
vt  0.982420 0.184037 0.000000
vt  0.216660 0.380224 0.000000
vt  0.104983 0.328371 0.000000
vt  0.133020 0.497239 0.000000
vt  0.229583 0.497239 0.000000
vt  0.133020 0.497239 0.000000
vt  0.133020 0.497239 0.000000
vt  0.072972 0.497239 0.000000
# 854 texture vertices

vn  0.423999 0.847998 -0.317999
vn  0.052864 -0.833403 0.550131
vn  0.423999 0.847998 -0.317999
vn  0.997169 0.074182 -0.012286
vn  0.528233 -0.323819 -0.784927
vn  -0.172992 -0.274869 -0.945791
vn  -0.090138 0.112201 -0.989589
vn  0.992132 -0.107832 -0.063608
vn  -0.115314 -0.242563 -0.963258
vn  -0.963628 -0.083903 -0.253736
vn  -0.007051 -0.443312 -0.896340
vn  0.570468 -0.450594 -0.686682
vn  0.003347 -0.999277 0.037859
vn  0.178679 -0.970539 0.161643
vn  0.952502 -0.279002 -0.122055
vn  -0.003344 -0.994513 -0.104559
vn  0.105354 -0.796736 0.595073
vn  0.208380 -0.943506 0.257632
vn  0.018179 -0.998515 -0.051359
vn  0.366592 -0.603297 -0.708268
vn  -0.282831 -0.949007 0.139253
vn  0.145133 0.090326 0.985280
vn  0.491198 0.101290 0.865139
vn  -0.174259 0.205886 -0.962935
vn  -0.189117 -0.101612 -0.976683
vn  0.633417 0.004549 0.773798
vn  0.163476 -0.112256 0.980140
vn  0.792168 -0.189813 0.580035
vn  0.798296 0.595362 -0.090927
vn  0.831105 0.327335 0.449574
vn  0.841458 -0.314887 0.439085
vn  0.269491 0.551675 -0.789322
vn  0.179114 0.359484 0.915800
vn  0.586192 0.464443 0.663831
vn  0.254032 0.608079 -0.752135
vn  0.114627 -0.865741 0.487189
vn  0.897716 0.269194 0.348771
vn  0.749044 0.427868 -0.505828
vn  0.712572 0.701230 -0.022741
vn  -0.078144 0.537116 -0.839881
vn  -0.072318 0.740652 -0.667986
vn  0.402709 0.675310 -0.617886
vn  -0.115663 0.566749 -0.815731
vn  0.641920 0.279525 0.714006
vn  0.077181 0.189769 0.978790
vn  0.959911 0.272424 -0.065996
vn  0.517857 0.122057 -0.846715
vn  -0.036142 0.034478 -0.998752
vn  0.788300 0.024968 0.614784
vn  0.783907 0.380700 -0.490466
vn  0.873161 0.454181 0.176944
vn  -0.033153 0.150137 -0.988109
vn  -0.368548 -0.354287 0.859449
vn  0.007901 0.996745 0.080232
vn  0.076797 0.439168 0.895117
vn  0.084429 0.125468 0.988499
vn  0.081592 -0.267412 0.960122
vn  0.084711 0.090950 0.992246
vn  0.078781 -0.363262 0.928350
vn  0.055566 -0.745377 0.664324
vn  -0.047515 0.821815 -0.567770
vn  0.684847 -0.060534 0.726168
vn  0.765543 -0.028542 0.642751
vn  0.508472 0.013803 0.860968
vn  0.964522 -0.102114 0.243454
vn  0.912705 -0.395401 0.103092
vn  0.581804 -0.083107 0.809072
vn  0.990409 -0.009710 -0.137827
vn  0.394008 0.688425 0.608957
vn  0.918903 0.331267 0.214193
vn  0.395947 0.906313 0.147725
vn  0.689716 -0.019358 0.723821
vn  0.813258 -0.515216 0.270486
vn  0.674291 -0.502528 0.541108
vn  0.952877 0.196604 -0.231022
vn  0.553754 0.695349 -0.458089
vn  0.672628 -0.203404 0.711476
vn  0.864399 0.299260 -0.404052
vn  0.710181 0.188425 0.678335
vn  -0.013939 -0.040517 -0.999082
vn  -0.940644 -0.306987 -0.144732
vn  0.286315 -0.273002 -0.918419
vn  0.986913 0.151510 -0.055198
vn  0.559341 0.324705 0.762696
vn  -0.539003 0.175766 0.823761
vn  -0.809779 -0.319352 -0.492212
vn  0.245904 -0.190045 -0.950481
vn  0.949974 0.044415 -0.309156
vn  0.605343 0.212420 0.767097
vn  -0.543878 0.224870 0.808474
vn  -0.892283 -0.372019 -0.255797
vn  0.179444 -0.172563 -0.968515
vn  0.939785 0.054067 -0.337464
vn  0.658453 -0.108721 0.744728
vn  -0.268168 -0.301590 0.914948
vn  0.244565 -0.257314 -0.934868
vn  -0.444473 -0.252268 0.859537
vn  0.122109 -0.177981 -0.976428
vn  -0.920697 -0.276483 -0.275452
vn  -0.031216 -0.304442 -0.952019
vn  0.976872 0.024529 -0.212414
vn  0.641591 0.446739 0.623526
vn  -0.435455 0.419722 0.796375
vn  -0.396859 -0.572723 0.717281
vn  0.822683 0.186584 0.537009
vn  0.076266 -0.766085 -0.638198
vn  0.501984 -0.141548 0.853215
vn  -0.943187 0.286662 0.168000
vn  0.363077 0.498139 0.787422
vn  -0.805101 0.233598 0.545202
vn  0.605767 0.327825 0.724967
vn  -0.598420 -0.753941 -0.271048
vn  -0.853656 -0.016149 0.520586
vn  0.115807 -0.040057 0.992464
vn  0.704881 0.178071 0.686610
vn  -0.312675 -0.349120 -0.883374
vn  -0.628938 -0.466241 -0.622138
vn  0.390876 -0.812192 -0.433082
vn  0.794978 -0.061139 -0.603549
vn  0.881169 -0.205631 -0.425743
vn  0.414724 0.115202 0.902625
vn  0.329698 -0.256313 0.908627
vn  -0.843305 -0.216703 0.491809
vn  -0.362344 0.147626 -0.920279
vn  0.990606 0.097245 -0.096142
vn  0.311794 -0.219283 0.924500
vn  -0.851834 -0.276522 0.444875
vn  -0.156305 -0.049025 -0.986491
vn  0.978230 0.076175 -0.193036
vn  0.333756 -0.227516 0.914791
vn  0.517045 -0.228551 0.824881
vn  0.377046 -0.183844 0.907765
vn  0.948324 -0.137327 -0.286047
vn  -0.957746 0.107461 0.266785
vn  -0.351827 0.216692 -0.910639
vn  0.789752 0.437721 -0.429759
vn  0.939706 0.130836 -0.315967
vn  0.174554 0.560133 0.809804
vn  -0.925839 -0.156148 0.344150
vn  -0.801300 -0.438691 -0.406778
vn  0.426484 -0.498074 -0.755006
vn  -0.708985 -0.494254 0.503044
vn  0.978873 -0.143615 -0.145544
vn  0.002970 0.881746 0.471714
vn  0.769429 0.259953 0.583441
vn  -0.015722 -0.605488 0.795699
vn  -0.974434 0.107853 0.197095
vn  -0.724167 -0.291819 -0.624840
vn  -0.289509 0.100839 -0.951849
vn  -0.964455 -0.129756 0.230197
vn  0.972174 -0.042072 -0.230450
vn  -0.283890 -0.426452 -0.858804
vn  -0.755624 -0.449722 -0.476217
vn  -0.123745 -0.971179 0.203712
vn  -0.958999 -0.283359 -0.005396
vn  0.041818 -0.989706 -0.136868
vn  -0.167046 -0.947090 0.274072
vn  0.019204 -0.999811 0.002879
vn  -0.421966 -0.608653 -0.671927
vn  0.308828 -0.938361 0.155254
vn  -0.268186 0.102232 0.957927
vn  -0.264958 0.023271 0.963979
vn  -0.554955 -0.199387 0.807632
vn  -0.782175 0.622898 0.014180
vn  -0.612437 0.447722 0.651511
vn  -0.650170 -0.242534 0.720039
vn  -0.488056 0.607308 -0.626880
vn  -0.263057 0.513708 0.816643
vn  -0.474324 0.597471 -0.646564
vn  -0.793275 0.305572 0.526631
vn  -0.835874 0.422875 -0.349986
vn  -0.645384 0.747214 0.158587
vn  -0.544103 0.679290 -0.492461
vn  -0.529951 0.229545 0.816371
vn  -0.957647 0.280196 0.066347
vn  -0.625206 0.171271 -0.761435
vn  -0.700402 0.107172 0.705657
vn  -0.818628 0.347349 -0.457381
vn  -0.875926 0.450547 0.172514
vn  0.150318 0.099324 -0.983636
vn  0.375812 -0.322183 0.868886
vn  -0.552128 -0.059220 0.831654
vn  -0.645716 -0.027040 0.763099
vn  -0.355322 0.014720 0.934628
vn  -0.909585 -0.100122 0.403275
vn  -0.881238 -0.443290 0.164053
vn  -0.436585 -0.082026 0.895916
vn  -0.998185 -0.042079 -0.043077
vn  -0.283756 0.689145 0.666754
vn  -0.868666 0.333166 0.366633
vn  -0.363304 0.907119 0.212476
vn  -0.557239 -0.018031 0.830157
vn  -0.749709 -0.528632 0.398102
vn  -0.570020 -0.506384 0.647033
vn  -0.977718 0.197574 -0.070944
vn  -0.625181 0.693379 -0.358294
vn  -0.542874 -0.202114 0.815130
vn  -0.876629 0.226127 -0.424721
vn  -0.731658 0.173647 0.659183
vn  0.048241 -0.088958 -0.994866
vn  0.960409 -0.274741 -0.046176
vn  -0.212600 -0.408391 -0.887704
vn  -0.985960 0.091336 -0.139788
vn  -0.614875 0.397597 0.681062
vn  0.472126 0.319645 0.821538
vn  0.860897 -0.325163 -0.391314
vn  -0.155134 -0.273087 -0.949398
vn  -0.923360 -0.032554 -0.382552
vn  -0.679590 0.243747 0.691914
vn  0.470534 0.342085 0.813373
vn  0.921622 -0.337211 -0.192096
vn  -0.087099 -0.231545 -0.968917
vn  -0.918985 -0.010374 -0.394157
vn  -0.706609 -0.108662 0.699211
vn  0.229885 -0.251908 0.940051
vn  -0.162561 -0.376029 -0.912237
vn  0.381837 -0.183584 0.905813
vn  -0.040506 -0.230703 -0.972181
vn  0.939223 -0.275203 -0.205241
vn  0.089240 -0.418907 -0.903633
vn  -0.965541 -0.043064 -0.256665
vn  -0.673916 0.496661 0.546960
vn  0.382636 0.534002 0.753944
vn  0.386028 -0.474316 0.791206
vn  -0.845770 0.222484 0.484948
vn  -0.034254 -0.836716 -0.546564
vn  -0.527709 -0.057412 0.847483
vn  0.927938 0.333934 0.165588
vn  -0.402123 0.573180 0.713976
vn  0.779175 0.318674 0.539753
vn  -0.638605 0.391162 0.662703
vn  0.626853 -0.761798 -0.163458
vn  0.835297 0.069369 0.545405
vn  -0.148977 0.070856 0.986299
vn  -0.732650 0.234657 0.638874
vn  0.354531 -0.439042 -0.825560
vn  0.662029 -0.515567 -0.543974
vn  -0.354342 -0.867776 -0.348435
vn  -0.769207 -0.153306 -0.620338
vn  -0.860217 -0.279466 -0.426528
vn  -0.448040 0.205999 0.869957
vn  -0.241282 -0.260529 0.934830
vn  0.884412 -0.193250 0.424818
vn  0.276147 0.097422 -0.956165
vn  -0.995522 0.094281 -0.006887
vn  -0.225046 -0.163442 0.960542
vn  0.890698 -0.264856 0.369470
vn  0.063631 -0.062206 -0.996033
vn  -0.992093 0.059887 -0.110293
vn  -0.248772 -0.189373 0.949868
vn  -0.440492 -0.228976 0.868065
vn  -0.294428 -0.169777 0.940472
vn  -0.969658 -0.152113 -0.191377
vn  0.976772 0.131213 0.169411
vn  0.266011 0.155352 -0.951369
vn  -0.832076 0.400948 -0.383262
vn  -0.964963 0.114430 -0.236120
vn  -0.109447 0.613841 0.781806
vn  0.953557 -0.140186 0.266604
vn  0.771710 -0.454820 -0.444524
vn  -0.484042 -0.556951 -0.674914
vn  0.763419 -0.446506 0.466716
vn  -0.985353 -0.165421 -0.041409
vn  0.024231 0.913768 0.405513
vn  -0.717043 0.292572 0.632654
vn  0.100387 -0.545564 0.832035
# 266 vertex normals

g (null)
usemtl fat
s 1
f 3/3/3 1/1/1 2/2/2
f 6/6/6 7/7/7 11/12/11
f 6/6/6 11/139/11 9/9/9
f 7/140/7 10/10/10 8/8/8
f 4/4/4 5/5/5 8/11/8
f 11/12/11 5/141/5 9/9/9
f 11/12/11 12/13/12 5/5/5
f 12/143/12 7/7/7 8/142/8
f 11/12/11 7/7/7 12/144/12
f 5/5/5 12/146/12 8/145/8
f 16/17/16 18/19/18 15/16/15
f 18/19/18 16/17/16 19/20/19
f 19/21/19 16/17/16 17/18/17
f 15/16/15 18/19/18 14/15/14
f 18/293/18 20/294/20 14/292/14
f 14/15/14 21/22/21 13/14/13
f 14/292/14 20/294/20 21/295/21
f 21/22/21 2/147/2 13/14/13
f 7/26/7 25/27/25 24/25/24
f 27/29/27 28/30/28 26/28/26
f 31/31/31 28/30/28 8/148/8
f 34/37/34 31/35/31 30/32/30
f 23/24/23 28/30/28 27/29/27
f 28/30/28 23/24/23 4/149/4
f 23/24/23 27/29/27 22/23/22
f 27/29/27 26/150/26 33/36/33
f 35/38/35 32/34/32 7/26/7
f 6/6/6 25/27/25 7/26/7
f 26/28/26 28/30/28 31/35/31
f 35/38/35 29/151/29 32/34/32
f 33/36/33 26/28/26 34/37/34
f 24/25/24 35/38/35 7/26/7
f 26/28/26 31/35/31 34/37/34
f 34/37/34 30/32/30 37/40/37
f 29/33/29 39/43/39 30/32/30
f 34/37/34 36/39/36 33/36/33
f 37/40/37 36/39/36 34/37/34
f 37/42/37 39/152/39 38/41/38
f 38/154/38 39/153/39 42/47/42
f 41/46/41 40/44/40 38/45/38
f 38/45/38 42/47/42 41/46/41
f 37/40/37 30/32/30 39/43/39
f 39/156/39 29/155/29 35/38/35
f 39/157/39 35/38/35 42/47/42
f 42/47/42 35/38/35 43/48/43
f 42/47/42 43/48/43 41/46/41
f 35/38/35 24/25/24 43/48/43
f 45/53/45 44/52/44 23/158/23
f 15/49/15 46/54/46 44/52/44
f 46/301/46 47/298/47 4/300/4
f 47/298/47 9/303/9 5/302/5
f 44/52/44 45/53/45 17/50/17
f 45/53/45 23/160/23 22/159/22
f 16/51/16 15/49/15 44/52/44
f 46/54/46 4/161/4 44/52/44
f 44/52/44 4/163/4 23/162/23
f 47/298/47 5/305/5 4/304/4
f 47/298/47 48/299/48 9/306/9
f 46/308/46 15/307/15 47/298/47
f 14/296/14 47/298/47 15/309/15
f 47/298/47 14/296/14 48/299/48
f 14/296/14 13/297/13 48/299/48
f 16/51/16 44/52/44 17/50/17
f 49/55/49 29/165/29 30/164/30
f 10/168/10 31/167/31 8/166/8
f 32/170/32 52/59/52 7/169/7
f 31/172/31 49/55/49 30/171/30
f 29/173/29 51/58/51 50/57/50
f 29/175/29 49/55/49 51/174/51
f 50/57/50 52/59/52 32/176/32
f 29/178/29 50/57/50 32/177/32
f 7/179/7 52/59/52 10/56/10
f 53/61/53 31/181/31 10/180/10
f 53/60/53 49/55/49 31/182/31
f 65/74/65 63/72/63 66/75/66
f 73/84/73 63/72/63 62/183/62
f 77/88/77 64/73/64 63/72/63
f 68/78/68 65/74/65 66/75/66
f 38/185/38 68/78/68 37/184/37
f 37/186/37 68/78/68 66/76/66
f 37/188/37 66/76/66 36/187/36
f 69/79/69 55/63/55 67/77/67
f 70/80/70 67/90/67 65/74/65
f 68/78/68 70/80/70 65/74/65
f 71/81/71 54/62/54 69/79/69
f 63/72/63 64/73/64 72/82/72
f 56/83/56 72/82/72 64/73/64
f 56/83/56 57/65/57 72/82/72
f 62/189/62 63/72/63 72/82/72
f 72/82/72 59/67/59 62/71/62
f 69/79/69 54/62/54 55/63/55
f 67/77/67 55/63/55 56/64/56
f 57/65/57 59/67/59 72/82/72
f 62/71/62 59/67/59 58/66/58
f 66/76/66 73/190/73 36/68/36
f 63/72/63 73/192/73 66/75/66
f 74/193/74 60/69/60 36/68/36
f 62/195/62 58/194/58 74/85/74
f 73/197/73 62/196/62 74/85/74
f 73/199/73 74/198/74 36/68/36
f 74/85/74 58/201/58 60/200/60
f 38/202/38 75/86/75 68/78/68
f 75/86/75 38/203/38 76/87/76
f 67/90/67 77/88/77 65/74/65
f 67/89/67 64/73/64 77/88/77
f 65/74/65 77/88/77 63/72/63
f 67/89/67 56/64/56 64/73/64
f 70/80/70 71/204/71 69/79/69
f 70/80/70 68/78/68 75/86/75
f 75/86/75 76/87/76 70/80/70
f 71/205/71 70/80/70 76/87/76
f 69/79/69 67/90/67 70/80/70
f 38/207/38 40/206/40 76/87/76
f 61/70/61 76/87/76 40/208/40
f 54/62/54 76/87/76 61/70/61
f 71/209/71 76/87/76 54/62/54
f 8/211/8 28/30/28 4/210/4
f 51/213/51 49/212/49 79/92/79
f 78/91/78 52/215/52 50/214/50
f 50/217/50 51/216/51 78/91/78
f 91/104/91 95/108/95 53/218/53
f 51/219/51 79/92/79 78/91/78
f 80/93/80 52/220/52 78/91/78
f 52/222/52 80/93/80 10/221/10
f 53/224/53 79/92/79 49/223/49
f 86/99/86 82/95/82 81/94/81
f 82/95/82 86/99/86 96/109/96
f 96/109/96 88/101/88 82/95/82
f 83/96/83 82/95/82 88/101/88
f 88/101/88 89/102/89 83/96/83
f 84/97/84 83/96/83 89/102/89
f 90/103/90 85/98/85 84/97/84
f 84/97/84 89/102/89 90/103/90
f 81/94/81 85/226/85 90/225/90
f 90/227/90 86/99/86 81/94/81
f 91/104/91 92/105/92 86/99/86
f 87/100/87 86/99/86 92/105/92
f 92/105/92 88/101/88 87/100/87
f 88/101/88 92/105/92 93/106/93
f 93/106/93 94/107/94 88/101/88
f 89/102/89 88/101/88 94/107/94
f 97/110/97 90/103/90 89/102/89
f 97/228/97 95/108/95 91/104/91
f 10/229/10 80/93/80 91/104/91
f 92/105/92 91/104/91 98/111/98
f 98/111/98 93/106/93 92/105/92
f 93/106/93 80/93/80 78/91/78
f 78/91/78 79/92/79 93/106/93
f 94/107/94 93/106/93 79/92/79
f 79/92/79 53/231/53 95/230/95
f 95/232/95 94/107/94 79/92/79
f 91/104/91 53/234/53 10/233/10
f 87/100/87 88/101/88 96/109/96
f 96/109/96 86/99/86 87/100/87
f 97/236/97 86/99/86 90/235/90
f 89/102/89 94/107/94 97/110/97
f 91/104/91 86/99/86 97/237/97
f 95/238/95 97/110/97 94/107/94
f 80/93/80 93/106/93 98/111/98
f 98/111/98 91/104/91 80/93/80
f 81/94/81 100/113/100 99/112/99
f 100/113/100 81/94/81 82/95/82
f 82/95/82 101/114/101 100/113/100
f 101/114/101 82/95/82 83/96/83
f 83/96/83 84/97/84 101/114/101
f 102/115/102 101/114/101 84/97/84
f 84/97/84 103/116/103 102/115/102
f 103/116/103 84/97/84 85/98/85
f 85/240/85 81/94/81 103/239/103
f 99/112/99 103/241/103 81/94/81
f 111/124/111 106/119/106 104/117/104
f 121/135/121 104/117/104 105/118/105
f 108/121/108 109/122/109 103/242/103
f 108/121/108 110/123/110 111/124/111
f 111/124/111 109/122/109 108/121/108
f 111/124/111 110/123/110 107/120/107
f 112/125/112 107/120/107 110/123/110
f 104/117/104 109/122/109 111/124/111
f 111/124/111 107/120/107 106/119/106
f 106/245/106 112/244/112 110/243/110
f 112/248/112 106/247/106 107/246/107
f 106/251/106 110/250/110 108/249/108
f 108/254/108 104/253/104 106/252/106
f 108/257/108 99/256/99 104/255/104
f 103/260/103 99/259/99 108/258/108
f 102/262/102 103/261/103 109/122/109
f 104/117/104 115/128/115 105/118/105
f 116/129/116 117/130/117 104/263/104
f 117/131/117 118/132/118 113/264/113
f 105/118/105 115/128/115 120/134/120
f 120/134/120 119/133/119 105/118/105
f 113/126/113 114/127/114 115/137/115
f 115/137/115 114/127/114 118/265/118
f 117/267/117 116/266/116 120/134/120
f 119/133/119 120/134/120 116/268/116
f 114/270/114 113/269/113 118/132/118
f 105/118/105 101/272/101 102/271/102
f 116/129/116 104/274/104 99/273/99
f 99/276/99 100/275/100 116/129/116
f 119/133/119 100/278/100 101/277/101
f 104/117/104 121/135/121 109/122/109
f 105/118/105 119/133/119 101/279/101
f 119/133/119 116/281/116 100/280/100
f 121/135/121 102/282/102 109/122/109
f 102/283/102 121/135/121 105/118/105
f 113/285/113 104/284/104 117/130/117
f 115/128/115 104/117/104 113/136/113
f 115/137/115 118/286/118 120/138/120
f 118/288/118 117/287/117 120/138/120
f 127/317/127 124/328/124 123/313/123
f 129/319/129 125/315/125 124/314/124
f 129/319/129 124/314/124 128/318/128
f 129/353/129 130/320/130 125/352/125
f 130/320/130 126/316/126 125/354/125
f 130/321/130 123/355/123 126/331/126
f 127/357/127 123/356/123 130/321/130
f 132/326/132 130/320/130 129/358/129
f 131/325/131 127/359/127 132/327/132
f 133/329/133 129/323/129 128/330/128
f 133/361/133 131/324/131 129/360/129
f 122/311/122 131/324/131 133/362/133
f 122/312/122 127/363/127 131/325/131
f 132/326/132 129/364/129 131/324/131
f 130/321/130 132/327/132 127/365/127
f 128/318/128 124/328/124 127/317/127
f 19/367/19 122/311/122 18/366/18
f 19/368/19 2/310/2 122/312/122
f 18/370/18 122/311/122 133/369/133
f 18/424/18 133/421/133 20/423/20
f 133/421/133 128/422/128 20/425/20
f 21/427/21 20/426/20 128/422/128
f 21/371/21 128/330/128 127/322/127
f 2/310/2 127/372/127 122/312/122
f 2/374/2 21/373/21 127/322/127
f 137/336/137 136/335/136 135/334/135
f 138/337/138 136/376/136 137/375/137
f 139/339/139 134/377/134 138/338/138
f 139/378/139 135/333/135 134/332/134
f 137/336/137 135/334/135 124/379/124
f 139/381/139 124/380/124 135/333/135
f 124/384/124 139/383/139 123/382/123
f 137/336/137 124/386/124 125/385/125
f 126/389/126 137/388/137 125/387/125
f 138/337/138 137/391/137 126/390/126
f 139/339/139 138/338/138 126/392/126
f 139/339/139 126/394/126 123/393/123
f 135/396/135 140/340/140 134/395/134
f 135/397/135 141/341/141 140/340/140
f 142/342/142 134/398/134 140/343/140
f 136/399/136 143/345/143 141/344/141
f 141/402/141 143/401/143 142/400/142
f 142/405/142 140/404/140 141/403/141
f 138/407/138 143/346/143 136/406/136
f 136/409/136 141/341/141 135/408/135
f 134/411/134 142/347/142 138/410/138
f 138/412/138 144/348/144 143/346/143
f 138/413/138 142/347/142 144/348/144
f 143/414/143 145/349/145 146/350/146
f 146/350/146 142/416/142 143/415/143
f 143/346/143 144/351/144 145/417/145
f 144/351/144 146/419/146 145/418/145
f 146/420/146 144/351/144 142/347/142
f 2/291/2 19/290/19 17/289/17
f 1/1/1 3/3/3 2/2/2
f 1/428/1 3/430/3 2/429/2
f 149/434/149 6/433/6 152/439/152
f 152/566/152 6/433/6 9/436/9
f 151/437/151 149/567/149 150/435/150
f 148/432/148 147/431/147 150/438/150
f 148/568/148 152/439/152 9/436/9
f 153/440/153 152/439/152 148/432/148
f 149/434/149 153/570/153 150/569/150
f 149/434/149 152/439/152 153/571/153
f 153/573/153 148/432/148 150/572/150
f 157/446/157 156/444/156 155/443/155
f 156/444/156 157/446/157 158/447/158
f 156/444/156 158/448/158 17/445/17
f 157/446/157 155/443/155 154/442/154
f 159/721/159 157/720/157 154/719/154
f 160/449/160 154/442/154 13/441/13
f 159/721/159 154/719/154 160/722/160
f 2/574/2 160/449/160 13/441/13
f 25/454/25 149/453/149 24/452/24
f 163/457/163 27/456/27 162/455/162
f 163/457/163 166/458/166 150/575/150
f 166/462/166 168/464/168 165/459/165
f 163/457/163 161/451/161 27/456/27
f 161/451/161 163/457/163 147/576/147
f 27/456/27 161/451/161 22/450/22
f 162/577/162 27/456/27 33/463/33
f 167/461/167 169/465/169 149/453/149
f 25/454/25 6/433/6 149/453/149
f 163/457/163 162/455/162 166/462/166
f 164/578/164 169/465/169 167/461/167
f 162/455/162 33/463/33 168/464/168
f 169/465/169 24/452/24 149/453/149
f 166/462/166 162/455/162 168/464/168
f 165/459/165 168/464/168 170/467/170
f 172/470/172 164/460/164 165/459/165
f 36/466/36 168/464/168 33/463/33
f 36/466/36 170/467/170 168/464/168
f 172/579/172 170/469/170 171/468/171
f 172/580/172 171/581/171 173/474/173
f 40/471/40 41/473/41 171/472/171
f 173/474/173 171/472/171 41/473/41
f 165/459/165 170/467/170 172/470/172
f 164/582/164 172/583/172 169/465/169
f 169/465/169 172/584/172 173/474/173
f 169/465/169 173/474/173 43/475/43
f 43/475/43 173/474/173 41/473/41
f 24/452/24 169/465/169 43/475/43
f 174/479/174 45/480/45 161/585/161
f 175/481/175 155/476/155 174/479/174
f 176/725/176 175/728/175 147/727/147
f 9/730/9 176/725/176 148/729/148
f 45/480/45 174/479/174 17/477/17
f 161/587/161 45/480/45 22/586/22
f 155/476/155 156/478/156 174/479/174
f 147/588/147 175/481/175 174/479/174
f 147/590/147 174/479/174 161/589/161
f 148/732/148 176/725/176 147/731/147
f 48/726/48 176/725/176 9/733/9
f 155/734/155 175/735/175 176/725/176
f 176/725/176 154/723/154 155/736/155
f 154/723/154 176/725/176 48/726/48
f 13/724/13 154/723/154 48/726/48
f 174/479/174 156/478/156 17/477/17
f 164/592/164 177/482/177 165/591/165
f 166/594/166 151/595/151 150/593/150
f 180/486/180 167/597/167 149/596/149
f 177/482/177 166/599/166 165/598/165
f 179/485/179 164/600/164 178/484/178
f 177/482/177 164/602/164 179/601/179
f 180/486/180 178/484/178 167/603/167
f 178/484/178 164/605/164 167/604/167
f 180/486/180 149/606/149 151/483/151
f 166/608/166 181/488/181 151/607/151
f 177/482/177 181/487/181 166/609/166
f 183/499/183 185/501/185 186/502/186
f 183/499/183 193/511/193 182/610/182
f 184/500/184 197/515/197 183/499/183
f 185/501/185 188/505/188 186/502/186
f 188/505/188 171/612/171 170/611/170
f 188/505/188 170/613/170 186/503/186
f 186/503/186 170/615/170 36/614/36
f 55/490/55 189/506/189 187/504/187
f 187/517/187 190/507/190 185/501/185
f 190/507/190 188/505/188 185/501/185
f 54/489/54 191/508/191 189/506/189
f 184/500/184 183/499/183 192/509/192
f 192/509/192 56/510/56 184/500/184
f 57/492/57 56/510/56 192/509/192
f 183/499/183 182/616/182 192/509/192
f 59/494/59 192/509/192 182/498/182
f 54/489/54 189/506/189 55/490/55
f 55/490/55 187/504/187 56/491/56
f 59/494/59 57/492/57 192/509/192
f 59/494/59 182/498/182 58/493/58
f 193/617/193 186/503/186 36/495/36
f 193/619/193 183/499/183 186/502/186
f 60/496/60 194/620/194 36/495/36
f 58/621/58 182/622/182 194/512/194
f 182/623/182 193/624/193 194/512/194
f 194/625/194 193/626/193 36/495/36
f 58/628/58 194/512/194 60/627/60
f 195/513/195 171/629/171 188/505/188
f 171/630/171 195/513/195 196/514/196
f 197/515/197 187/517/187 185/501/185
f 184/500/184 187/516/187 197/515/197
f 197/515/197 185/501/185 183/499/183
f 56/491/56 187/516/187 184/500/184
f 191/631/191 190/507/190 189/506/189
f 188/505/188 190/507/190 195/513/195
f 196/514/196 195/513/195 190/507/190
f 190/507/190 191/632/191 196/514/196
f 187/517/187 189/506/189 190/507/190
f 40/633/40 171/634/171 196/514/196
f 196/514/196 61/497/61 40/635/40
f 196/514/196 54/489/54 61/497/61
f 196/514/196 191/636/191 54/489/54
f 163/457/163 150/638/150 147/637/147
f 177/639/177 179/640/179 199/519/199
f 180/642/180 198/518/198 178/641/178
f 179/643/179 178/644/178 198/518/198
f 215/535/215 211/531/211 181/645/181
f 199/519/199 179/646/179 198/518/198
f 180/647/180 200/520/200 198/518/198
f 200/520/200 180/649/180 151/648/151
f 199/519/199 181/651/181 177/650/177
f 202/522/202 206/526/206 201/521/201
f 206/526/206 202/522/202 216/536/216
f 208/528/208 216/536/216 202/522/202
f 202/522/202 203/523/203 208/528/208
f 209/529/209 208/528/208 203/523/203
f 203/523/203 204/524/204 209/529/209
f 205/525/205 210/530/210 204/524/204
f 209/529/209 204/524/204 210/530/210
f 205/653/205 201/521/201 210/652/210
f 206/526/206 210/654/210 201/521/201
f 212/532/212 211/531/211 206/526/206
f 206/526/206 207/527/207 212/532/212
f 208/528/208 212/532/212 207/527/207
f 212/532/212 208/528/208 213/533/213
f 214/534/214 213/533/213 208/528/208
f 208/528/208 209/529/209 214/534/214
f 210/530/210 217/537/217 209/529/209
f 215/535/215 217/655/217 211/531/211
f 200/520/200 151/656/151 211/531/211
f 211/531/211 212/532/212 218/538/218
f 213/533/213 218/538/218 212/532/212
f 200/520/200 213/533/213 198/518/198
f 199/519/199 198/518/198 213/533/213
f 213/533/213 214/534/214 199/519/199
f 181/658/181 199/519/199 215/657/215
f 214/534/214 215/659/215 199/519/199
f 181/661/181 211/531/211 151/660/151
f 208/528/208 207/527/207 216/536/216
f 206/526/206 216/536/216 207/527/207
f 206/526/206 217/663/217 210/662/210
f 214/534/214 209/529/209 217/537/217
f 206/526/206 211/531/211 217/664/217
f 217/537/217 215/665/215 214/534/214
f 213/533/213 200/520/200 218/538/218
f 211/531/211 218/538/218 200/520/200
f 220/540/220 201/521/201 219/539/219
f 201/521/201 220/540/220 202/522/202
f 221/541/221 202/522/202 220/540/220
f 202/522/202 221/541/221 203/523/203
f 204/524/204 203/523/203 221/541/221
f 221/541/221 222/542/222 204/524/204
f 223/543/223 204/524/204 222/542/222
f 204/524/204 223/543/223 205/525/205
f 201/521/201 205/667/205 223/666/223
f 223/668/223 219/539/219 201/521/201
f 226/546/226 231/551/231 224/544/224
f 224/544/224 241/562/241 225/545/225
f 229/549/229 228/548/228 223/669/223
f 230/550/230 228/548/228 231/551/231
f 229/549/229 231/551/231 228/548/228
f 230/550/230 231/551/231 227/547/227
f 227/547/227 232/552/232 230/550/230
f 229/549/229 224/544/224 231/551/231
f 227/547/227 231/551/231 226/546/226
f 232/671/232 226/672/226 230/670/230
f 226/674/226 232/675/232 227/673/227
f 230/677/230 226/678/226 228/676/228
f 224/680/224 228/681/228 226/679/226
f 219/683/219 228/684/228 224/682/224
f 219/686/219 223/687/223 228/685/228
f 223/688/223 222/689/222 229/549/229
f 235/555/235 224/544/224 225/545/225
f 237/557/237 236/556/236 224/690/224
f 238/559/238 237/558/237 233/691/233
f 235/555/235 225/545/225 240/561/240
f 239/560/239 240/561/240 225/545/225
f 234/554/234 233/553/233 235/564/235
f 234/554/234 235/564/235 238/692/238
f 236/693/236 237/694/237 240/561/240
f 240/561/240 239/560/239 236/695/236
f 233/696/233 234/697/234 238/559/238
f 221/699/221 225/545/225 222/698/222
f 224/701/224 236/556/236 219/700/219
f 220/702/220 219/703/219 236/556/236
f 220/705/220 239/560/239 221/704/221
f 241/562/241 224/544/224 229/549/229
f 239/560/239 225/545/225 221/706/221
f 236/708/236 239/560/239 220/707/220
f 222/709/222 241/562/241 229/549/229
f 241/562/241 222/710/222 225/545/225
f 224/711/224 233/712/233 237/557/237
f 224/544/224 235/555/235 233/563/233
f 238/713/238 235/564/235 240/565/240
f 237/714/237 238/715/238 240/565/240
f 244/755/244 247/744/247 243/740/243
f 245/742/245 249/746/249 244/741/244
f 244/741/244 249/746/249 248/745/248
f 250/747/250 249/780/249 245/779/245
f 246/743/246 250/747/250 245/781/245
f 243/782/243 250/748/250 246/758/246
f 243/783/243 247/784/247 250/748/250
f 250/747/250 252/753/252 249/785/249
f 247/786/247 251/752/251 252/754/252
f 249/750/249 253/756/253 248/757/248
f 251/751/251 253/788/253 249/787/249
f 251/751/251 242/738/242 253/789/253
f 247/790/247 242/739/242 251/752/251
f 249/791/249 252/753/252 251/751/251
f 252/754/252 250/748/250 247/792/247
f 244/755/244 248/745/248 247/744/247
f 242/738/242 158/794/158 157/793/157
f 2/737/2 158/795/158 242/739/242
f 242/738/242 157/797/157 253/796/253
f 253/848/253 157/851/157 159/850/159
f 248/849/248 253/848/253 159/852/159
f 159/853/159 160/854/160 248/849/248
f 248/757/248 160/798/160 247/749/247
f 247/799/247 2/737/2 242/739/242
f 160/800/160 2/801/2 247/749/247
f 256/762/256 257/763/257 255/761/255
f 256/803/256 258/764/258 257/802/257
f 254/804/254 259/766/259 258/765/258
f 255/760/255 259/805/259 254/759/254
f 255/761/255 257/763/257 244/806/244
f 244/807/244 259/808/259 255/760/255
f 259/810/259 244/811/244 243/809/243
f 244/813/244 257/763/257 245/812/245
f 257/815/257 246/816/246 245/814/245
f 257/818/257 258/764/258 246/817/246
f 258/765/258 259/766/259 246/819/246
f 246/821/246 259/766/259 243/820/243
f 260/767/260 255/823/255 254/822/254
f 261/768/261 255/824/255 260/767/260
f 254/825/254 262/769/262 260/770/260
f 263/772/263 256/826/256 261/771/261
f 263/828/263 261/829/261 262/827/262
f 260/831/260 262/832/262 261/830/261
f 263/773/263 258/834/258 256/833/256
f 261/768/261 256/836/256 255/835/255
f 262/774/262 254/838/254 258/837/258
f 264/775/264 258/839/258 263/773/263
f 262/774/262 258/840/258 264/775/264
f 265/776/265 263/841/263 266/777/266
f 262/843/262 266/777/266 263/842/263
f 264/778/264 263/773/263 265/844/265
f 266/846/266 264/778/264 265/845/265
f 264/778/264 266/847/266 262/774/262
f 158/717/158 2/718/2 17/716/17
f 3/430/3 1/428/1 2/429/2
# 528 faces

g
# object (null) to come ...
#
v  -10.586560 51.851341 22.253033
v  -11.078161 51.259399 30.132933
v  -11.223806 49.415051 31.209423
v  -11.345469 42.241013 27.862293
v  -9.565281 57.939163 26.192091
v  -10.670735 52.908264 33.013054
v  -10.816380 51.063919 34.089546
v  -10.777905 42.583286 35.154854
v  -8.770859 61.154209 31.807901
v  -9.983483 45.798332 40.770664
v  -8.203295 61.496479 39.100464
v  -10.263309 54.557133 35.893177
v  -10.408953 52.712784 36.969666
v  -8.962203 51.886150 44.709724
v  -9.139812 51.024708 29.993090
v  -9.285456 49.180363 31.069580
v  -8.732386 52.673576 32.873211
v  -8.878029 50.829227 33.949703
v  -8.324958 54.322441 35.753334
v  -8.470602 52.478096 36.829823
v  -15.143796 34.805668 1.392738
v  -15.289441 32.961319 2.469227
v  -13.205446 34.570976 1.252895
v  -13.351090 32.726631 2.329384
v  -8.508980 56.989864 42.426579
# 25 vertices

vt  0.033358 0.643728 0.500000
vt  0.190411 0.923560 0.500000
vt  0.402692 0.503812 0.999501
vt  0.402692 0.647326 0.999501
vt  0.403043 0.503812 0.999501
vt  0.403044 0.647326 0.999501
vt  0.033710 0.643728 0.500000
vt  0.190763 0.923560 0.500000
vt  0.033358 0.363896 0.500000
vt  0.033710 0.363896 0.500000
vt  0.190411 0.084064 0.500000
vt  0.402692 0.360297 0.999501
vt  0.403043 0.360297 0.999501
vt  0.190763 0.084064 0.500000
vt  0.402692 0.647326 0.000500
vt  0.402692 0.503812 0.000500
vt  0.403044 0.647326 0.000500
vt  0.403043 0.503812 0.000500
vt  0.402692 0.360297 0.000499
vt  0.403043 0.360297 0.000499
vt  0.408249 0.287497 0.999500
vt  0.408249 0.367848 0.999500
vt  0.492649 0.287497 0.999500
vt  0.492649 0.367848 0.999500
vt  0.408249 0.207147 0.999500
vt  0.492649 0.207147 0.999500
vt  0.492649 0.367848 0.000500
vt  0.408249 0.367848 0.000500
vt  0.492649 0.287497 0.000500
vt  0.408249 0.287497 0.000500
vt  0.492649 0.207147 0.000500
vt  0.408249 0.207147 0.000500
vt  0.492649 1.036942 0.999501
vt  0.408248 1.036942 0.999501
vt  0.492649 1.036942 0.000500
vt  0.408248 1.036942 0.000500
vt  0.450449 0.037941 0.500000
vt  0.483600 0.371280 0.999497
vt  0.402049 0.371280 0.999497
vt  0.402049 1.040375 0.999500
vt  0.483600 1.040375 0.999500
vt  0.402049 0.371280 0.000500
vt  0.483600 0.371280 0.000500
vt  0.483600 1.040375 0.000503
vt  0.402049 1.040375 0.000503
vt  0.483600 0.210579 0.000500
vt  0.402049 0.210579 0.000500
vt  0.442825 0.041374 0.499997
vt  0.402049 0.210579 0.999497
vt  0.483600 0.210579 0.999497
# 50 texture vertices

vn  -0.631189 0.156947 -0.020354
vn  -0.956305 0.175971 0.034537
vn  -0.970749 0.036642 0.092292
vn  -0.324910 -0.006429 0.025589
vn  -0.638017 0.132715 -0.005516
vn  -0.320241 0.060381 0.007898
vn  -0.323220 0.017527 0.038525
vn  -0.971010 0.001548 0.112421
vn  -0.949457 0.230977 0.026132
vn  -0.643894 0.022495 0.097999
vn  -0.314347 0.083828 0.020531
vn  -0.954691 0.196485 0.046619
vn  -0.965720 0.056742 0.104128
vn  -0.640986 -0.002916 0.112135
vn  0.965720 -0.056742 -0.104128
vn  0.954691 -0.196485 -0.046619
vn  0.323220 -0.017527 -0.038525
vn  0.320241 -0.060381 -0.007898
vn  0.970749 -0.036642 -0.092293
vn  0.956305 -0.175971 -0.034537
vn  -0.039721 -0.160752 -0.280791
vn  -0.039721 -0.160752 -0.280791
vn  -0.039721 -0.160752 -0.280791
vn  -0.039721 -0.160752 -0.280791
vn  -0.314246 0.060843 0.061725
# 25 vertex normals

g (null)
usemtl axe
s 2
f 271/855/271 267/856/267 272/857/272
f 268/858/268 272/857/272 267/856/267
f 272/875/272 268/876/268 273/877/273
f 269/878/269 273/877/273 268/876/268
f 273/859/273 269/860/269 274/861/274
f 270/862/270 274/861/274 269/860/269
f 275/863/275 271/855/271 272/857/272
f 274/861/274 276/864/276 273/859/273
f 277/865/277 275/863/275 278/866/278
f 272/857/272 278/866/278 275/863/275
f 278/879/278 272/875/272 279/880/279
f 273/877/273 279/880/279 272/875/272
f 279/867/279 273/859/273 280/868/280
f 276/864/276 280/868/280 273/859/273
s 4
f 281/869/281 267/856/267 283/870/283
f 271/855/271 283/870/283 267/856/267
f 282/881/282 281/882/281 284/883/284
f 283/884/283 284/883/284 281/882/281
f 270/862/270 282/871/282 274/861/274
f 284/872/284 274/861/274 282/871/282
f 275/863/275 283/870/283 271/855/271
f 274/861/274 284/872/284 276/864/276
f 283/870/283 275/863/275 285/873/285
f 277/865/277 285/873/285 275/863/275
f 284/883/284 283/884/283 286/885/286
f 285/886/285 286/885/286 283/884/283
f 276/864/276 284/872/284 280/868/280
f 286/874/286 280/868/280 284/872/284
s 8
f 268/858/268 267/856/267 281/869/281
f 288/887/288 287/888/287 290/889/290
f 289/890/289 290/889/290 287/888/287
f 282/871/282 270/862/270 269/860/269
s 32
f 279/867/279 280/868/280 286/874/286
f 285/873/285 277/865/277 278/866/278
s 0
f 269/878/269 268/876/268 287/888/287
f 287/888/287 288/887/288 269/878/269
f 281/882/281 282/881/282 290/889/290
f 290/889/290 289/890/289 281/882/281
f 268/892/268 281/893/281 289/894/289
f 289/894/289 287/895/287 268/892/268
f 282/896/282 269/897/269 288/898/288
f 288/898/288 290/899/290 282/896/282
f 278/879/278 279/880/279 291/891/291
f 286/885/286 285/886/285 291/891/291
f 279/900/279 286/901/286 291/902/291
f 285/903/285 278/904/278 291/902/291
# 46 faces

g
