# Max2Obj Version 4.0 Mar 10th, 2001
#
mtllib ./nec_walk_17.mtl
g
# object (null) to come ...
#
v  0.294115 32.574955 6.174456
v  -0.377031 30.780474 -2.052577
v  0.033636 43.975342 -2.094563
v  0.420424 43.851307 4.470529
v  -0.759317 19.584270 8.841100
v  -0.771446 21.006224 1.246118
v  -1.643881 6.666859 7.705852
v  -1.059050 8.649948 -4.086345
v  0.574301 58.003708 0.151378
v  0.458632 56.428722 5.618242
v  0.587490 58.902725 6.402990
v  0.359238 53.001743 5.422900
v  0.548407 62.900482 7.719090
v  0.660324 56.006542 7.706739
v  0.536764 65.145737 8.981082
v  0.344841 66.947807 0.736623
v  0.424467 67.370377 5.122389
v  0.484898 65.531326 6.669362
v  3.867704 31.139145 4.052199
v  6.210886 31.546106 -0.519916
v  3.918585 31.881413 -3.465392
v  4.553953 43.828140 1.758478
v  3.289427 43.895935 3.027442
v  3.083231 43.930397 -1.424813
v  5.984470 18.915838 -2.239657
v  3.612999 17.792183 2.562686
v  3.620821 19.672991 -5.370956
v  5.508244 6.280570 -6.586511
v  2.918009 5.374753 -2.629436
v  3.140741 7.322308 -9.220928
v  7.041195 56.433018 2.883287
v  5.352232 53.630848 2.087435
v  5.425885 56.178844 -0.512760
v  3.862299 58.246132 3.647083
v  5.300091 54.551868 4.150201
v  3.135666 63.942081 6.376354
v  1.666994 59.189186 8.196547
v  2.339546 63.672897 5.503898
v  3.601942 53.370621 5.769293
v  2.694239 59.900169 4.551303
v  1.006197 6.617546 -5.531773
v  3.701809 6.595327 -5.946690
v  2.555935 6.133021 -4.411153
v  2.252134 63.555843 4.071826
v  1.010279 65.821762 4.217288
v  4.585070 59.948925 4.911513
v  -3.393044 34.045429 6.259292
v  -6.355543 32.196583 2.488611
v  -4.573988 30.378544 -0.240054
v  -4.048618 43.801003 2.256192
v  -2.645813 43.871895 3.381454
v  -2.919237 43.939545 -1.062172
v  -7.562881 21.343748 7.768762
v  -5.174837 21.382813 12.677509
v  -5.234966 20.730265 4.584512
v  -7.667162 8.863040 4.094381
v  -5.225739 7.660280 8.129728
v  -5.225863 9.779872 1.480126
v  -6.278334 55.938107 2.991665
v  -4.193790 53.825237 1.961682
v  -4.257332 56.457970 -0.739805
v  -2.774420 58.247097 3.612583
v  -4.293928 54.620354 4.022669
v  -2.122276 63.856564 6.480052
v  -0.530378 59.153450 8.239883
v  -1.352837 63.612839 5.576719
v  -2.879023 53.553806 5.631269
v  -1.621933 59.829960 4.636428
v  -3.162825 8.990873 5.192286
v  -5.852909 9.098025 4.755326
v  -4.742821 8.592443 6.304032
v  -1.318184 63.497765 4.142240
v  -0.145901 65.802971 4.240088
v  -3.497679 59.817436 5.070927
v  11.047744 46.952072 4.811763
v  12.595367 48.218437 2.722498
v  13.355698 48.867535 4.798245
v  11.291496 47.999161 6.615642
v  21.950182 37.469311 6.656103
v  23.261080 38.245358 6.852765
v  15.889047 42.121609 10.738775
v  13.866944 46.712746 3.437905
v  16.236309 41.593243 9.640263
v  17.018099 42.135998 9.552738
v  -6.559330 45.894211 -1.045358
v  -7.994623 47.759525 -2.727695
v  -9.417992 46.798313 -1.188551
v  -7.655945 45.533077 0.712308
v  -12.050245 35.342648 -9.069811
v  -13.559244 35.598011 -9.200789
v  -10.072863 37.511295 -0.949692
v  -8.594316 45.843975 -3.461448
v  -9.854258 37.694378 -2.184807
v  -10.743210 37.997978 -2.361644
v  0.409800 0.747831 -8.538858
v  2.984612 0.635224 -8.970507
v  1.259432 0.061966 -0.614734
v  4.338312 -0.076338 -1.129075
v  -2.699865 3.322823 1.794266
v  -5.252829 3.353627 1.237432
v  -3.965019 1.631077 9.473097
v  -7.009165 1.633785 8.768579
v  17.090097 39.876930 12.149150
v  15.676790 38.963223 13.323409
v  16.536409 39.386967 11.827070
v  18.504059 36.384850 10.824531
v  17.539354 35.944393 12.438102
v  18.181616 39.136024 10.096310
v  18.813004 39.715546 10.603365
v  -10.610712 34.658741 -1.554613
v  -9.495283 33.379597 -0.427975
v  -9.836077 34.542435 -1.729406
v  -9.920534 32.596191 -4.909064
v  -9.513224 31.366386 -3.477311
v  -10.545549 35.211338 -3.924483
v  -11.488783 35.271061 -3.602414
# 116 vertices

vt  0.993503 0.197633 0.840089
vt  0.989475 0.443575 0.283066
vt  0.710817 0.717774 0.405154
vt  0.949589 0.383317 0.779753
vt  0.675590 0.693999 0.000500
vt  0.688043 0.885850 0.313796
vt  0.993503 0.197633 0.840089
vt  0.989475 0.443575 0.283066
vt  0.949589 0.383317 0.779753
vt  0.255198 0.653273 0.498357
vt  0.313049 0.448147 0.029964
vt  0.288416 0.651491 0.280384
vt  0.248985 0.448033 0.795812
vt  0.181724 0.653274 0.730622
vt  0.181724 0.447474 0.931001
vt  0.315847 0.234385 0.024067
vt  0.250419 0.234280 0.853150
vt  0.181724 0.233767 0.999501
vt  0.321530 0.013325 0.061930
vt  0.253330 0.013197 0.758354
vt  0.181724 0.012570 0.910898
vt  0.296100 0.821372 0.006686
vt  0.289862 0.844668 0.326705
vt  0.308101 0.883072 0.006647
vt  0.181736 0.877015 0.479737
vt  0.251012 0.826379 0.676556
vt  0.181724 0.817620 0.648524
vt  0.252623 0.896641 0.000500
vt  0.108250 0.653273 0.498356
vt  0.075032 0.651491 0.280383
vt  0.050399 0.448147 0.029963
vt  0.114463 0.448033 0.795811
vt  0.047601 0.234385 0.024066
vt  0.113029 0.234280 0.853150
vt  0.041917 0.013325 0.061930
vt  0.110117 0.013197 0.758354
vt  0.073586 0.844667 0.326704
vt  0.067348 0.821372 0.006677
vt  0.055346 0.883072 0.006681
vt  0.112436 0.826379 0.676556
vt  0.110825 0.896642 0.000499
vt  0.619089 0.674886 0.423991
vt  0.650112 0.674872 0.999500
vt  0.673768 0.467738 0.757662
vt  0.547647 0.674900 0.272809
vt  0.547646 0.467543 0.063509
vt  0.636227 0.467836 0.180471
vt  0.547646 0.249811 0.000500
vt  0.638115 0.250080 0.127118
vt  0.676455 0.249992 0.751968
vt  0.547647 0.024592 0.103138
vt  0.641949 0.024922 0.235122
vt  0.681914 0.024812 0.788533
vt  0.547646 0.906952 0.142452
vt  0.615737 0.924592 0.729208
vt  0.669016 0.910770 0.735145
vt  0.647074 0.871650 0.172648
vt  0.657491 0.847920 0.735182
vt  0.476204 0.674886 0.423990
vt  0.421525 0.467739 0.757662
vt  0.445181 0.674872 0.999499
vt  0.459066 0.467836 0.180471
vt  0.457178 0.250080 0.127118
vt  0.418838 0.249992 0.751967
vt  0.453344 0.024922 0.235122
vt  0.413379 0.024812 0.788533
vt  0.426276 0.910770 0.735177
vt  0.479556 0.924592 0.729208
vt  0.448218 0.871650 0.172648
vt  0.437802 0.847920 0.735173
vt  0.852589 0.264223 0.764567
vt  0.851040 0.177059 0.999500
vt  0.920969 0.199995 0.405154
vt  0.853008 0.000911 0.840064
vt  0.915180 0.070560 0.779753
vt  0.970085 0.109155 0.054224
vt  0.969864 0.199995 0.000500
vt  0.883856 0.263894 0.086325
vt  0.781111 0.199995 0.405153
vt  0.796334 0.070561 0.779753
vt  0.736643 0.109156 0.054223
vt  0.732216 0.199995 0.000500
vt  0.821323 0.263895 0.086325
vt  0.859243 0.472682 0.500000
vt  0.852089 0.271074 0.500000
vt  0.972092 0.439592 0.500000
vt  0.918665 0.512427 0.500000
vt  0.934048 0.278250 0.499928
vt  0.915117 0.336445 0.999501
vt  0.936453 0.414789 0.824932
vt  0.896846 0.303488 0.909949
vt  0.844931 0.472491 0.500000
vt  0.767720 0.414597 0.175068
vt  0.789057 0.336254 0.000499
vt  0.852085 0.270882 0.500000
vt  0.807328 0.303297 0.090051
vt  0.732082 0.439401 0.500000
vt  0.785509 0.512236 0.500000
vt  0.770126 0.278059 0.499928
vt  0.418750 0.909681 0.118342
vt  0.397564 0.961508 0.469840
vt  0.384908 0.959055 0.000500
vt  0.367727 0.966401 0.061578
vt  0.358131 0.982937 0.544251
vt  0.357206 0.988740 0.999500
vt  0.390501 0.909868 0.038732
vt  0.358131 0.868061 0.361054
vt  0.297512 0.909681 0.118342
vt  0.331354 0.959055 0.000500
vt  0.318697 0.961508 0.469839
vt  0.350385 0.966401 0.061577
vt  0.325761 0.909868 0.038732
vt  0.833406 0.930995 0.764844
vt  0.727494 0.949841 0.378138
vt  0.835829 0.903298 0.362310
vt  0.825114 0.948456 0.362308
vt  0.973351 0.987493 0.501947
vt  0.923200 0.919169 0.447606
vt  0.922975 0.901128 0.351158
vt  0.739549 0.883657 0.001219
vt  0.736434 0.898569 0.378130
vt  0.838064 0.876672 0.000500
vt  0.731306 0.848146 0.378138
vt  0.839641 0.894689 0.362310
vt  0.828926 0.849531 0.362308
vt  0.975384 0.816480 0.121256
vt  0.977163 0.810494 0.501947
vt  0.849600 0.847722 0.362308
vt  0.738996 0.901968 0.378130
vt  0.833406 0.930995 0.764844
vt  0.741377 0.914824 0.999501
vt  0.727494 0.949841 0.378138
vt  0.835829 0.903298 0.362310
vt  0.825114 0.948456 0.362308
vt  0.973351 0.987493 0.501947
vt  0.923200 0.919169 0.447606
vt  0.922975 0.901128 0.351158
vt  0.845788 0.950265 0.362308
vt  0.838064 0.876672 0.000500
vt  0.839641 0.894689 0.362310
vt  0.975384 0.816480 0.121256
vt  0.926787 0.896859 0.351158
vt  0.926930 0.883653 0.219956
vt  0.735815 0.722811 0.378130
vt  0.831500 0.753751 0.764844
vt  0.739471 0.737580 0.999501
vt  0.725589 0.772597 0.378138
vt  0.833923 0.726054 0.362310
vt  0.823208 0.771212 0.362308
vt  0.969533 0.805787 0.501947
vt  0.921294 0.741925 0.447606
vt  0.921069 0.723884 0.351158
vt  0.843883 0.773021 0.362308
vt  0.737643 0.706412 0.001219
vt  0.735802 0.716863 0.378130
vt  0.836158 0.699428 0.000500
vt  0.729400 0.670902 0.378138
vt  0.837735 0.717445 0.362310
vt  0.827020 0.672287 0.362308
vt  0.973478 0.639236 0.121256
vt  0.975257 0.633250 0.501947
vt  0.924881 0.719615 0.351158
vt  0.925024 0.706409 0.219956
vt  0.847694 0.670478 0.362308
vt  0.951071 0.553393 0.102493
vt  0.905096 0.512904 0.085214
vt  0.923913 0.550849 0.999483
vt  0.904288 0.535719 0.999483
vt  0.923018 0.586709 0.116935
vt  0.904289 0.562697 0.999482
vt  0.884624 0.550849 0.999483
vt  0.856825 0.504034 0.000499
vt  0.856826 0.594655 0.073252
vt  0.762580 0.553393 0.102509
vt  0.789738 0.550849 0.999500
vt  0.808555 0.512904 0.085247
vt  0.809363 0.535719 0.999500
vt  0.790633 0.586709 0.116952
vt  0.809362 0.562697 0.999499
vt  0.829027 0.550849 0.999500
vt  0.018949 0.983913 0.000499
vt  0.018295 0.929160 0.999500
vt  0.042821 0.983913 0.238664
vt  0.073049 0.929160 0.999500
vt  0.066743 0.983913 0.000500
vt  0.071997 0.983917 0.000519
vt  0.078339 0.929330 0.999512
vt  0.115802 0.984256 0.569397
vt  0.147919 0.984884 0.245998
vt  0.148601 0.927410 0.000500
vt  0.122254 0.984249 0.105326
vt  0.088058 0.928678 0.000499
vt  0.153510 0.985267 0.245998
vt  0.152654 0.927221 0.000500
vt  0.181941 0.927855 0.999501
vt  0.219354 0.928607 0.347778
vt  0.189653 0.928607 0.000488
vt  0.188575 0.979237 0.999512
vt  0.213414 0.979237 0.652100
vt  0.018949 0.983913 0.000499
vt  0.018295 0.929160 0.999500
vt  0.042821 0.983913 0.238664
vt  0.073049 0.929160 0.999500
vt  0.066743 0.983913 0.000500
vt  0.071997 0.983917 0.000519
vt  0.078339 0.929330 0.999512
vt  0.115802 0.984256 0.569397
vt  0.147919 0.984884 0.245998
vt  0.148601 0.927410 0.000500
vt  0.122254 0.984249 0.105326
vt  0.088058 0.928678 0.000499
vt  0.153510 0.985267 0.245998
vt  0.152654 0.927221 0.000500
vt  0.181941 0.927855 0.999501
vt  0.219354 0.928607 0.347778
vt  0.189653 0.928607 0.000488
vt  0.188575 0.979237 0.999512
vt  0.213414 0.979237 0.652100
vt  0.033922 0.556543 0.000500
vt  0.024166 0.453938 0.929367
vt  0.053023 0.549939 0.085203
vt  0.035783 0.451579 0.999501
vt  0.467444 0.990424 0.000499
vt  0.466790 0.935671 0.999500
vt  0.491316 0.990424 0.238664
vt  0.521543 0.935671 0.999500
vt  0.515237 0.990424 0.000500
vt  0.520491 0.990428 0.000519
vt  0.526834 0.935841 0.999512
vt  0.564297 0.990767 0.569397
vt  0.596413 0.991395 0.245998
vt  0.597096 0.933921 0.000500
vt  0.570748 0.990760 0.105326
vt  0.536552 0.935189 0.000499
vt  0.602004 0.991778 0.245998
vt  0.601149 0.933732 0.000500
vt  0.630436 0.934366 0.999501
vt  0.667848 0.935118 0.347778
vt  0.638148 0.935118 0.000488
vt  0.637069 0.985748 0.999512
vt  0.661908 0.985748 0.652100
vt  0.011295 0.261397 0.000499
vt  0.022029 0.264558 0.085203
vt  0.022523 0.362545 0.929367
vt  0.028790 0.362860 0.999501
vt  0.356216 0.344346 0.352924
vt  0.322584 0.337812 0.747958
vt  0.358501 0.386167 0.298027
vt  0.360712 0.294143 0.999500
vt  0.397933 0.303859 0.994193
vt  0.404121 0.354888 0.200947
vt  0.356216 0.344346 0.352924
vt  0.402135 0.386784 0.000499
vt  0.404121 0.354888 0.200947
vt  0.356216 0.344346 0.352924
vt  0.358501 0.386167 0.298027
vt  0.402135 0.386784 0.000499
vt  0.347602 0.332184 0.352924
vt  0.322584 0.337812 0.747958
vt  0.356216 0.344346 0.767832
vt  0.360712 0.294143 0.999500
vt  0.409112 0.382250 0.751654
vt  0.402135 0.386784 0.000499
vt  0.415699 0.352825 0.726506
vt  0.397933 0.303859 0.994193
vt  0.415699 0.352825 0.726506
vt  0.404121 0.354888 0.200947
vt  0.402135 0.386784 0.000499
vt  0.415699 0.352825 0.726506
vt  0.404121 0.354888 0.200947
vt  0.348603 0.432015 0.767832
vt  0.352524 0.390653 0.298027
vt  0.395527 0.391267 0.751654
vt  0.399295 0.421044 0.726506
vt  0.316867 0.438276 0.747958
vt  0.348603 0.432015 0.767832
vt  0.352524 0.390653 0.298027
vt  0.354995 0.481946 0.999500
vt  0.392216 0.472230 0.994193
vt  0.399295 0.421044 0.726506
vt  0.352628 0.568026 0.352924
vt  0.318996 0.561492 0.747958
vt  0.354912 0.609847 0.298027
vt  0.357124 0.517823 0.999500
vt  0.394344 0.527539 0.994193
vt  0.400533 0.578568 0.200947
vt  0.352628 0.568026 0.352924
vt  0.398546 0.610464 0.000499
vt  0.400533 0.578568 0.200947
vt  0.352628 0.568026 0.352924
vt  0.354912 0.609847 0.298027
vt  0.398546 0.610464 0.000499
vt  0.344013 0.555864 0.352924
vt  0.318996 0.561492 0.747958
vt  0.352628 0.568026 0.767832
vt  0.357124 0.517823 0.999500
vt  0.405524 0.605930 0.751654
vt  0.398546 0.610464 0.000499
vt  0.412110 0.576505 0.726506
vt  0.394344 0.527539 0.994193
vt  0.412110 0.576505 0.726506
vt  0.400533 0.578568 0.200947
vt  0.398546 0.610464 0.000499
vt  0.412110 0.576505 0.726506
vt  0.400533 0.578568 0.200947
vt  0.345014 0.655695 0.767832
vt  0.348936 0.614333 0.298027
vt  0.391939 0.614946 0.751654
vt  0.395706 0.644724 0.726506
vt  0.313278 0.661956 0.747958
vt  0.345014 0.655695 0.767832
vt  0.348936 0.614333 0.298027
vt  0.351406 0.705625 0.999500
vt  0.388627 0.695910 0.994193
vt  0.395706 0.644724 0.726506
vt  0.952437 0.607576 0.054224
vt  0.837978 0.648536 0.539907
vt  0.835748 0.637851 0.507125
vt  0.718995 0.607575 0.054223
vt  0.790451 0.040011 0.539907
vt  0.796334 0.070561 0.779753
vt  0.736643 0.109156 0.054223
vt  0.915180 0.070560 0.779753
vt  0.970085 0.109155 0.054224
vt  0.919399 0.043822 0.539907
# 325 texture vertices

vn  0.492858 0.128561 0.860560
vn  -0.248149 -0.080358 -0.965383
vn  -0.029751 0.056788 -0.997943
vn  0.156818 0.083023 0.984132
vn  0.679052 -0.107077 0.726239
vn  -0.595341 -0.040627 -0.802445
vn  -0.357772 -0.923617 0.137593
vn  -0.818171 -0.250044 -0.517759
vn  0.005152 0.655587 -0.755102
vn  -0.000989 0.083153 0.996536
vn  0.032335 -0.994444 0.100182
vn  0.003835 -0.138200 0.990397
vn  0.015196 0.321444 0.946807
vn  0.053782 -0.997773 0.039452
vn  0.025554 -0.632761 0.773925
vn  -0.020962 0.598534 -0.800823
vn  -0.010875 0.968785 0.247665
vn  0.024694 -0.813184 0.581483
vn  0.724834 0.006942 0.688889
vn  0.991808 0.078734 -0.100589
vn  0.053374 0.046760 -0.997479
vn  0.987614 -0.043832 0.150657
vn  0.589746 -0.098375 0.801575
vn  0.633355 0.047206 -0.772420
vn  0.995078 0.016010 -0.097789
vn  0.803955 -0.144366 0.576901
vn  0.022357 0.243192 -0.969720
vn  0.687531 -0.719280 -0.099683
vn  0.355668 -0.932763 0.058766
vn  -0.053887 -0.543391 -0.837748
vn  0.522407 0.724443 0.449748
vn  0.681031 -0.630563 -0.372272
vn  0.421582 0.141463 -0.895688
vn  0.968526 0.223051 -0.110477
vn  0.369487 -0.082794 0.925540
vn  -0.284348 -0.842679 0.457207
vn  0.759456 -0.216915 0.613331
vn  0.896667 0.324443 0.301206
vn  0.283154 -0.019584 0.958875
vn  0.697714 -0.142447 0.702071
vn  -0.747170 -0.596890 -0.292333
vn  0.191405 -0.676365 -0.711263
vn  0.187682 -0.197358 0.962198
vn  0.038174 -0.125184 0.991399
vn  0.637971 -0.409613 0.652081
vn  0.498580 -0.017760 0.866662
vn  -0.486438 0.332776 0.807860
vn  -0.994695 0.100837 -0.020356
vn  -0.630762 -0.156325 -0.760067
vn  -0.977911 0.033081 0.206386
vn  -0.535126 0.003692 0.844764
vn  -0.756949 0.016883 -0.653256
vn  -0.985188 0.143582 -0.093744
vn  -0.299845 0.079333 0.950684
vn  -0.759322 -0.002706 -0.650710
vn  -0.726668 -0.678432 -0.108089
vn  -0.042348 -0.994302 0.097829
vn  -0.596077 -0.581237 -0.553946
vn  -0.712687 0.502590 0.489368
vn  -0.783085 -0.507832 -0.359004
vn  -0.332153 0.356377 -0.873309
vn  -0.972388 0.187606 -0.138803
vn  -0.413171 -0.110317 0.903947
vn  0.329396 -0.832695 0.445104
vn  -0.732340 -0.243790 0.635802
vn  -0.894388 0.299448 0.332266
vn  -0.330760 0.021942 0.943460
vn  -0.664680 -0.148446 0.732232
vn  0.543422 -0.751891 -0.373300
vn  -0.458171 -0.160978 -0.874166
vn  -0.200878 0.178940 0.963135
vn  0.005026 -0.125722 0.992053
vn  -0.598119 -0.429724 0.676454
vn  -0.499805 -0.038019 0.865303
vn  -0.645371 -0.686212 -0.335574
vn  0.322534 -0.132128 -0.937291
vn  0.724288 0.684281 0.084660
vn  -0.228836 0.233241 0.945110
vn  -0.042323 -0.909912 0.412636
vn  0.813734 0.032628 -0.580321
vn  -0.573375 0.293422 0.764947
vn  0.284446 -0.143055 -0.947959
vn  -0.681184 -0.701310 -0.210125
vn  0.763248 0.422647 0.488695
vn  0.945256 -0.201717 -0.256518
vn  -0.048622 0.308455 -0.949995
vn  -0.947726 0.313423 0.059847
vn  -0.108684 -0.274460 0.955437
vn  0.323378 -0.938098 -0.124089
vn  -0.559643 0.206717 -0.802538
vn  0.170573 -0.126654 0.977171
vn  0.039366 0.410217 -0.911138
vn  0.947339 -0.278647 -0.157809
vn  -0.975252 -0.117970 0.186995
vn  -0.604208 -0.012635 -0.796727
vn  0.351806 -0.739375 -0.574071
vn  -0.590973 -0.404901 0.697715
vn  0.816057 -0.014057 0.577801
vn  0.621472 0.023798 -0.783075
vn  -0.329026 -0.649591 -0.685400
vn  0.579872 -0.516731 0.629871
vn  -0.854962 -0.059485 0.515269
vn  0.566344 0.235890 0.789690
vn  0.158267 -0.838445 0.521500
vn  -0.779264 -0.551778 -0.297135
vn  0.630575 -0.515459 -0.580239
vn  -0.455306 -0.186763 0.870526
vn  -0.018880 -0.275502 -0.961115
vn  0.967840 0.232238 -0.096698
vn  -0.842796 -0.378432 0.382733
vn  0.020756 -0.995102 -0.096649
vn  0.987905 -0.134786 -0.076662
vn  -0.132694 -0.119135 -0.983971
vn  0.158593 -0.628426 0.761531
vn  0.432040 0.386240 -0.814960
vn  -0.884460 0.090857 -0.457685
# 116 vertex normals

g (null)
usemtl bigsas
s 1
f 23/10/23 20/11/20 22/12/22
f 20/11/20 23/10/23 19/13/19
f 19/13/19 4/14/4 1/15/1
f 19/13/19 23/10/23 4/14/4
f 24/42/24 22/43/22 20/44/20
f 3/45/3 24/42/24 2/46/2
f 21/47/21 2/46/2 24/42/24
f 21/47/21 24/42/24 20/44/20
f 25/16/25 19/13/19 26/17/26
f 19/13/19 25/16/25 20/11/20
f 26/17/26 1/15/1 5/18/5
f 1/15/1 26/17/26 19/13/19
f 6/48/6 21/47/21 27/49/27
f 21/47/21 6/48/6 2/46/2
f 27/49/27 20/44/20 25/50/25
f 20/44/20 27/49/27 21/47/21
f 28/19/28 26/17/26 29/20/29
f 26/17/26 28/19/28 25/16/25
f 29/20/29 5/18/5 7/21/7
f 5/18/5 29/20/29 26/17/26
f 8/51/8 27/49/27 30/52/30
f 27/49/27 8/51/8 6/48/6
f 30/52/30 25/50/25 28/53/28
f 25/50/25 30/52/30 27/49/27
f 9/54/9 34/55/34 31/56/31
f 9/54/9 31/56/31 33/57/33
f 22/12/22 32/22/32 35/23/35
f 31/24/31 10/25/10 35/23/35
f 35/23/35 23/10/23 22/12/22
f 39/26/39 12/27/12 23/10/23
f 4/14/4 23/10/23 12/27/12
f 10/25/10 31/24/31 34/28/34
f 9/54/9 33/57/33 3/45/3
f 39/26/39 10/25/10 12/27/12
f 24/42/24 3/45/3 33/57/33
f 33/57/33 32/58/32 24/42/24
f 24/42/24 32/58/32 22/43/22
f 18/71/18 13/72/13 38/73/38
f 65/80/65 37/75/37 13/72/13
f 37/75/37 38/73/38 13/72/13
f 11/2/11 37/4/37 14/1/14
f 16/92/16 36/93/36 46/94/46
f 9/95/9 16/92/16 34/96/34
f 15/97/15 36/93/36 17/98/17
f 16/92/16 17/98/17 36/93/36
f 35/23/35 10/25/10 39/26/39
f 35/23/35 39/26/39 23/10/23
f 37/75/37 40/76/40 38/73/38
f 37/323/37 11/325/11 40/324/40
f 28/165/28 29/166/29 42/167/42
f 43/168/43 42/167/42 29/166/29
f 30/169/30 28/165/28 42/167/42
f 43/168/43 29/166/29 41/171/41
f 41/171/41 29/166/29 7/172/7
f 8/173/8 30/169/30 41/171/41
f 42/170/42 41/171/41 30/169/30
f 41/171/41 7/172/7 8/173/8
f 46/100/46 36/101/36 44/102/44
f 40/76/40 44/77/44 38/73/38
f 44/102/44 36/101/36 45/103/45
f 45/6/45 38/3/38 44/5/44
f 45/103/45 36/101/36 18/104/18
f 45/78/45 18/71/18 38/73/38
f 15/105/15 18/104/18 36/101/36
f 16/92/16 46/94/46 34/96/34
f 10/99/10 34/96/34 46/94/46
f 46/100/46 44/102/44 40/106/40
f 46/100/46 40/106/40 10/107/10
f 10/318/10 40/316/40 11/317/11
f 51/29/51 50/30/50 48/31/48
f 48/31/48 47/32/47 51/29/51
f 47/32/47 1/15/1 4/14/4
f 47/32/47 4/14/4 51/29/51
f 52/59/52 48/60/48 50/61/50
f 3/45/3 2/46/2 52/59/52
f 49/62/49 52/59/52 2/46/2
f 49/62/49 48/60/48 52/59/52
f 53/33/53 54/34/54 47/32/47
f 47/32/47 48/31/48 53/33/53
f 54/34/54 5/18/5 1/15/1
f 1/15/1 47/32/47 54/34/54
f 6/48/6 55/63/55 49/62/49
f 49/62/49 2/46/2 6/48/6
f 55/63/55 53/64/53 48/60/48
f 48/60/48 49/62/49 55/63/55
f 56/35/56 57/36/57 54/34/54
f 54/34/54 53/33/53 56/35/56
f 57/36/57 7/21/7 5/18/5
f 5/18/5 54/34/54 57/36/57
f 8/51/8 58/65/58 55/63/55
f 55/63/55 6/48/6 8/51/8
f 58/65/58 56/66/56 53/64/53
f 53/64/53 55/63/55 58/65/58
f 9/54/9 59/67/59 62/68/62
f 9/54/9 61/69/61 59/67/59
f 50/30/50 63/37/63 60/38/60
f 59/39/59 63/37/63 10/25/10
f 63/37/63 50/30/50 51/29/51
f 67/40/67 51/29/51 12/27/12
f 4/14/4 12/27/12 51/29/51
f 10/25/10 62/41/62 59/39/59
f 9/54/9 3/45/3 61/69/61
f 67/40/67 12/27/12 10/25/10
f 52/59/52 61/69/61 3/45/3
f 61/69/61 52/59/52 60/70/60
f 52/59/52 50/61/50 60/70/60
f 18/71/18 66/79/66 13/72/13
f 14/74/14 37/75/37 65/80/65
f 65/80/65 13/72/13 66/79/66
f 11/8/11 14/7/14 65/9/65
f 16/84/16 74/89/74 64/90/64
f 9/85/9 62/91/62 16/84/16
f 15/86/15 17/87/17 64/90/64
f 16/84/16 64/90/64 17/87/17
f 63/37/63 67/40/67 10/25/10
f 63/37/63 51/29/51 67/40/67
f 65/80/65 66/79/66 68/81/68
f 65/321/65 68/322/68 11/320/11
f 56/174/56 70/175/70 57/176/57
f 71/177/71 57/176/57 70/175/70
f 58/178/58 70/175/70 56/174/56
f 71/177/71 69/180/69 57/176/57
f 69/180/69 7/172/7 57/176/57
f 8/173/8 69/180/69 58/178/58
f 70/179/70 58/178/58 69/180/69
f 69/180/69 8/173/8 7/172/7
f 74/108/74 72/109/72 64/110/64
f 68/81/68 66/79/66 72/82/72
f 72/109/72 73/111/73 64/110/64
f 73/83/73 72/82/72 66/79/66
f 64/110/64 18/104/18 15/105/15
f 73/83/73 66/79/66 18/71/18
f 18/104/18 64/110/64 73/111/73
f 16/84/16 62/91/62 74/89/74
f 10/88/10 74/89/74 62/91/62
f 74/108/74 68/112/68 72/109/72
f 74/108/74 10/107/10 68/112/68
f 10/318/10 11/317/11 68/319/68
f 32/154/32 75/156/75 35/155/35
f 77/145/77 33/147/33 31/146/31
f 75/156/75 32/154/32 33/157/33
f 35/144/35 78/148/78 31/146/31
f 78/158/78 35/155/35 75/156/75
f 78/148/78 77/145/77 31/146/31
f 76/149/76 33/147/33 77/145/77
f 33/157/33 76/159/76 75/156/75
f 79/160/79 75/156/75 80/161/80
f 77/145/77 84/151/84 80/150/80
f 78/148/78 81/152/81 77/145/77
f 81/162/81 78/158/78 75/156/75
f 75/156/75 83/163/83 81/162/81
f 82/164/82 80/161/80 75/156/75
f 77/145/77 80/150/80 82/153/82
f 77/145/77 82/153/82 76/149/76
f 75/156/75 76/159/76 82/164/82
f 80/219/80 84/220/84 79/221/79
f 79/221/79 84/220/84 83/222/83
f 77/145/77 81/152/81 84/151/84
f 75/156/75 79/160/79 83/163/83
f 60/120/60 63/121/63 85/122/85
f 85/122/85 61/123/61 60/120/60
f 88/124/88 85/122/85 63/121/63
f 86/116/86 87/113/87 61/114/61
f 61/123/61 85/122/85 86/125/86
f 89/126/89 90/127/90 85/122/85
f 87/113/87 90/117/90 94/118/94
f 88/115/88 87/113/87 91/119/91
f 92/128/92 85/122/85 90/127/90
f 85/122/85 92/128/92 86/125/86
f 90/242/90 89/243/89 94/244/94
f 89/243/89 93/245/93 94/244/94
f 87/130/87 59/131/59 61/132/61
f 63/129/63 59/131/59 88/133/88
f 88/133/88 59/131/59 87/130/87
f 91/142/91 85/139/85 88/140/88
f 85/139/85 91/142/91 93/143/93
f 87/130/87 92/138/92 90/135/90
f 87/130/87 86/134/86 92/138/92
f 87/130/87 94/136/94 91/137/91
f 85/139/85 93/143/93 89/141/89
f 41/231/41 42/233/42 95/232/95
f 95/232/95 42/233/42 96/234/96
f 41/235/41 95/236/95 97/237/97
f 96/228/96 42/230/42 98/229/98
f 97/238/97 96/240/96 98/239/98
f 96/240/96 97/238/97 95/241/95
f 42/223/42 43/225/43 98/224/98
f 43/225/43 97/226/97 98/224/98
f 43/225/43 41/227/41 97/226/97
f 69/189/69 99/190/99 70/191/70
f 99/190/99 100/192/100 70/191/70
f 69/193/69 101/195/101 99/194/99
f 100/186/100 102/187/102 70/188/70
f 101/196/101 102/197/102 100/198/100
f 100/198/100 99/199/99 101/196/101
f 70/181/70 102/182/102 71/183/71
f 71/183/71 102/182/102 101/184/101
f 71/183/71 101/184/101 69/185/69
f 69/208/69 99/209/99 70/210/70
f 99/209/99 100/211/100 70/210/70
f 69/212/69 101/214/101 99/213/99
f 100/205/100 102/206/102 70/207/70
f 101/215/101 102/216/102 100/217/100
f 100/217/100 99/218/99 101/215/101
f 70/200/70 102/201/102 71/202/71
f 71/202/71 102/201/102 101/203/101
f 71/202/71 101/203/101 69/204/69
f 103/258/103 104/259/104 105/260/105
f 81/248/81 104/247/104 103/246/103
f 105/271/105 81/272/81 83/273/83
f 103/246/103 107/249/107 106/250/106
f 83/273/83 108/274/108 105/271/105
f 109/251/109 103/246/103 106/250/106
f 107/261/107 103/258/103 105/260/105
f 106/265/106 108/266/108 109/267/109
f 81/256/81 103/255/103 84/257/84
f 108/264/108 83/262/83 84/263/84
f 106/279/106 107/278/107 105/276/105
f 104/275/104 81/277/81 105/276/105
f 108/280/108 106/279/106 105/276/105
f 109/270/109 108/269/108 84/268/84
f 84/253/84 103/252/103 109/254/109
f 110/293/110 112/295/112 111/294/111
f 91/283/91 110/281/110 111/282/111
f 112/306/112 93/308/93 91/307/91
f 110/281/110 113/285/113 114/284/114
f 93/308/93 112/306/112 115/309/115
f 116/286/116 113/285/113 110/281/110
f 114/296/114 112/295/112 110/293/110
f 113/300/113 116/302/116 115/301/115
f 91/291/91 94/292/94 110/290/110
f 115/299/115 94/298/94 93/297/93
f 113/314/113 112/311/112 114/313/114
f 111/310/111 112/311/112 91/312/91
f 115/315/115 112/311/112 113/314/113
f 116/305/116 94/303/94 115/304/115
f 94/288/94 116/289/116 110/287/110
# 237 faces

g
# object (null) to come ...
#
v  -18.941952 52.794174 -33.016014
v  -18.964148 53.807243 -32.369743
v  -17.943144 53.451515 -32.894600
v  -5.819870 25.580723 12.331059
v  -5.797671 24.567642 11.684811
v  -4.798867 25.224995 11.806208
v  -4.021975 21.414860 20.096889
v  -3.976478 19.338076 18.772036
v  -1.928918 20.685619 19.020943
# 9 vertices

vt  0.979994 0.135709 0.256341
vt  0.980124 0.135089 0.500000
vt  0.976728 0.038107 0.743659
vt  0.515619 0.131012 0.500000
vt  0.515723 0.131867 0.256341
vt  0.517900 0.037781 0.743659
vt  0.978571 0.133971 0.500000
vt  0.976453 0.040746 0.000499
vt  0.976452 0.040746 0.999501
# 9 texture vertices

vn  -0.241271 0.518165 -0.820545
vn  -0.241271 0.518165 -0.820545
vn  -0.241271 0.518165 -0.820545
vn  -0.510319 0.678169 0.528830
vn  -0.478750 -0.780687 -0.401654
vn  0.959690 0.165607 -0.227087
vn  -0.061359 1.521911 0.830611
vn  -1.467623 -0.883448 -0.274751
vn  1.440812 -0.449116 -0.855716
# 9 vertex normals

g (null)
usemtl MS000
s 1
f 117/326/117 118/327/118 119/328/119
s 8
f 118/327/118 121/330/121 120/329/120
f 118/327/118 117/326/117 121/330/121
f 117/326/117 122/331/122 121/330/121
f 117/326/117 119/328/119 122/331/122
f 119/328/119 120/329/120 122/331/122
f 119/328/119 118/327/118 120/329/120
f 120/329/120 124/333/124 123/332/123
f 120/329/120 121/330/121 124/333/124
f 121/330/121 125/334/125 124/333/124
f 121/330/121 122/331/122 125/334/125
f 122/331/122 123/332/123 125/334/125
f 122/331/122 120/329/120 123/332/123
s 1
f 124/333/124 125/334/125 123/332/123
# 14 faces

g
