mtllib collide_CrateWall.mtl

o collide_CrateWall_Plane.018
usemtl Material
s off

v -26.285231 49.438553 -6.889302
v -12.443052 49.847473 -4.601003
v -12.443052 49.847515 -47.511002
v -26.285231 49.438599 -43.344559
v -48.053555 2.779989 -6.889302
v -48.053555 2.779989 -43.344517
v -48.350090 -0.673024 -43.344517
v -48.350090 -0.673024 -6.889302
v -14.499287 -39.467442 -6.889302
v -14.499287 -39.467396 -43.344517
v -12.443052 -40.751450 -47.511002
v -12.443052 -40.751450 -4.600961

vt 0.000000 0.000000
vt 0.000000 1.000000
vt 1.000000 1.000000
vt 1.000000 0.000000

vn -0.029529 0.000000 0.999564
vn -0.996333 0.000000 0.085564
vn -0.529666 0.000000 -0.848206

f 1/1/1 2/2/1 3/3/1 4/4/1
f 5/1/2 6/2/2 7/3/2 8/4/2
f 9/1/3 10/4/3 11/3/3 12/2/3

o 
usemtl Material_Tile15.png
s off

v -12.443052 128.000015 -4.601003
v -12.443052 128.053314 -47.511002
v -12.443052 -128.000015 -4.600961
v -12.443052 -128.000015 -47.510960

vt 0.991590 0.709564
vt 0.991590 0.988383
vt 0.838304 0.988383
vt 0.838305 0.709432
vt 0.991590 0.075072
vt 0.991590 0.386342
vt 0.838305 0.386276
vt 0.838305 0.075071

vn -1.000000 0.000000 0.000000

f 2/5/4 13/6/4 14/7/4 3/8/4
f 15/9/4 12/10/4 11/11/4 16/12/4

usemtl Material.005_Crate2.png
s off

v -60.424156 37.151749 -43.344559
v -60.424156 37.151749 -6.889302
v -50.706398 -37.127087 -43.344517
v -50.706398 -37.127087 -6.889302

vt 0.748999 0.601001
vt 0.501001 0.601001
vt 0.501001 0.798999
vt 0.748999 0.798999
vt 0.498999 0.601001
vt 0.251001 0.601001
vt 0.251001 0.798999
vt 0.498999 0.798999
vt 0.248999 0.801001
vt 0.001001 0.801001
vt 0.001001 0.998999
vt 0.248999 0.998999
vt 0.748999 0.801001
vt 0.501001 0.801001
vt 0.501001 0.998999
vt 0.748999 0.998999

vn -0.338642 0.000000 0.940915
vn -0.940915 0.000000 -0.338642
vn -0.997917 0.000000 0.064503
vn -0.064503 0.000000 -0.997917

f 1/13/5 4/14/5 17/15/5 18/16/5
f 18/17/6 17/18/6 6/19/6 5/20/6
f 8/21/7 7/22/7 19/23/7 20/24/7
f 10/25/8 9/26/8 20/27/8 19/28/8

