# Max2Obj Version 4.0 Mar 10th, 2001
#
mtllib ./nec_walk_15.mtl
g
# object (null) to come ...
#
v  0.063051 32.710655 6.288755
v  -0.118057 31.060345 -2.390068
v  0.230412 44.430099 -1.960515
v  -0.090658 44.200653 4.604243
v  -0.765402 18.713249 8.313678
v  -0.765656 21.570980 -0.195379
v  -1.439756 6.396383 2.107954
v  -0.619217 10.781389 -5.600629
v  0.691832 58.436131 0.433843
v  0.580681 56.779831 5.888103
v  0.883083 59.188515 6.700834
v  0.341009 53.366257 5.669523
v  1.052204 63.142052 8.134881
v  0.889866 56.252621 7.914730
v  1.177134 65.345840 9.462091
v  0.747112 67.408890 1.288052
v  1.008253 67.691803 5.677996
v  1.053751 65.804680 7.166510
v  3.703983 32.449844 5.180283
v  6.320040 32.087208 0.761790
v  4.230528 31.831511 -2.330101
v  4.301514 44.293098 2.328628
v  2.917389 44.317173 3.460311
v  3.162661 44.422180 -0.986512
v  6.275293 19.347828 1.291387
v  3.829668 19.035816 6.177268
v  3.961411 19.514280 -1.961576
v  6.035774 6.208548 -0.878643
v  3.433596 5.714341 3.222642
v  3.684504 6.799047 -3.663394
v  7.235391 56.564480 3.238268
v  5.367178 53.885487 2.380446
v  5.548931 56.416588 -0.221704
v  4.032957 58.516754 3.873782
v  5.362310 54.765308 4.444235
v  3.626463 64.124329 6.724158
v  2.000237 59.378098 8.458301
v  2.788054 63.913227 5.875663
v  3.597567 53.622154 6.039040
v  2.956665 60.161007 4.799094
v  1.516325 6.629891 0.068782
v  4.216969 6.589716 -0.310537
v  3.058933 6.352387 1.266780
v  2.642296 63.844112 4.445226
v  1.497702 66.150597 4.705547
v  4.860146 60.125671 5.086998
v  -3.593988 33.041782 5.404616
v  -6.366186 32.098675 1.171338
v  -4.418907 30.965113 -1.814582
v  -4.297230 44.119858 1.948903
v  -3.014610 44.193817 3.212875
v  -2.837753 44.334030 -1.235671
v  -7.734060 20.715645 3.487851
v  -5.376360 18.636650 7.934427
v  -5.383478 21.416883 0.329283
v  -7.371119 12.572330 -6.383533
v  -5.080111 9.007314 -3.874382
v  -4.889795 14.876254 -7.858127
v  -6.218697 56.524914 3.165579
v  -4.145411 54.373230 2.228367
v  -4.118422 57.023563 -0.482510
v  -2.600168 58.719925 3.958690
v  -4.252378 55.163296 4.279085
v  -1.623112 64.238312 7.029088
v  -0.193640 59.425732 8.585734
v  -0.898453 63.993259 6.089799
v  -2.872324 54.028320 5.862893
v  -1.352638 60.254555 5.049407
v  -2.904261 12.087145 -5.225273
v  -5.584230 12.399112 -5.624541
v  -4.498407 11.099176 -4.614855
v  -0.922342 63.921497 4.652284
v  0.343361 66.175667 4.772596
v  -3.209745 60.300842 5.555753
v  10.329196 46.426601 3.565617
v  11.806571 47.830273 1.511982
v  12.852572 48.050144 3.551300
v  10.894309 47.133228 5.460138
v  20.407635 36.259407 2.036632
v  21.798908 36.874443 2.249875
v  15.285955 40.115620 7.818157
v  12.924429 46.133430 1.819424
v  15.452646 39.807320 6.600245
v  16.268892 40.297668 6.520295
v  -6.055574 46.521866 -1.089396
v  -7.277370 48.425915 -2.895485
v  -8.877945 47.422440 -1.574202
v  -7.365255 46.118404 0.506512
v  -10.476706 36.102654 -9.917097
v  -11.957941 36.360348 -10.231709
v  -9.535683 38.134872 -1.578394
v  -7.770836 46.508247 -3.746442
v  -9.164541 38.338585 -2.773206
v  -10.024961 38.645203 -3.054876
v  0.980761 0.533298 -2.477729
v  3.556318 0.412189 -2.902570
v  1.828787 0.117844 5.438251
v  4.905687 -0.043707 4.918860
v  -1.859510 10.218729 -11.402503
v  -4.359396 10.587713 -12.068137
v  -3.439196 3.439731 -7.633431
v  -6.397821 3.894004 -8.529732
v  16.384794 37.448784 8.481132
v  14.977713 36.275669 9.428485
v  15.766066 37.109276 8.082585
v  17.405855 34.465961 6.003753
v  16.523415 33.592510 7.482472
v  17.205490 37.294937 6.195850
v  17.933807 37.645958 6.770998
v  -9.987921 35.292912 -2.293214
v  -9.019772 33.994957 -1.057206
v  -9.197268 35.179459 -2.371557
v  -8.879164 33.286709 -5.568673
v  -8.651857 32.033066 -4.117827
v  -9.627699 35.885086 -4.626765
v  -10.603945 35.939507 -4.424376
# 116 vertices

vt  0.993503 0.197633 0.840089
vt  0.989475 0.443575 0.283066
vt  0.710817 0.717774 0.405154
vt  0.949589 0.383317 0.779753
vt  0.675590 0.693999 0.000500
vt  0.688043 0.885850 0.313796
vt  0.993503 0.197633 0.840089
vt  0.989475 0.443575 0.283066
vt  0.949589 0.383317 0.779753
vt  0.255198 0.653273 0.498357
vt  0.313049 0.448147 0.029964
vt  0.288416 0.651491 0.280384
vt  0.248985 0.448033 0.795812
vt  0.181724 0.653274 0.730622
vt  0.181724 0.447474 0.931001
vt  0.315847 0.234385 0.024067
vt  0.250419 0.234280 0.853150
vt  0.181724 0.233767 0.999501
vt  0.321530 0.013325 0.061930
vt  0.253330 0.013197 0.758354
vt  0.181724 0.012570 0.910898
vt  0.296100 0.821372 0.006686
vt  0.289862 0.844668 0.326705
vt  0.308101 0.883072 0.006647
vt  0.181736 0.877015 0.479737
vt  0.251012 0.826379 0.676556
vt  0.181724 0.817620 0.648524
vt  0.252623 0.896641 0.000500
vt  0.108250 0.653273 0.498356
vt  0.075032 0.651491 0.280383
vt  0.050399 0.448147 0.029963
vt  0.114463 0.448033 0.795811
vt  0.047601 0.234385 0.024066
vt  0.113029 0.234280 0.853150
vt  0.041917 0.013325 0.061930
vt  0.110117 0.013197 0.758354
vt  0.073586 0.844667 0.326704
vt  0.067348 0.821372 0.006677
vt  0.055346 0.883072 0.006681
vt  0.112436 0.826379 0.676556
vt  0.110825 0.896642 0.000499
vt  0.619089 0.674886 0.423991
vt  0.650112 0.674872 0.999500
vt  0.673768 0.467738 0.757662
vt  0.547647 0.674900 0.272809
vt  0.547646 0.467543 0.063509
vt  0.636227 0.467836 0.180471
vt  0.547646 0.249811 0.000500
vt  0.638115 0.250080 0.127118
vt  0.676455 0.249992 0.751968
vt  0.547647 0.024592 0.103138
vt  0.641949 0.024922 0.235122
vt  0.681914 0.024812 0.788533
vt  0.547646 0.906952 0.142452
vt  0.615737 0.924592 0.729208
vt  0.669016 0.910770 0.735145
vt  0.647074 0.871650 0.172648
vt  0.657491 0.847920 0.735182
vt  0.476204 0.674886 0.423990
vt  0.421525 0.467739 0.757662
vt  0.445181 0.674872 0.999499
vt  0.459066 0.467836 0.180471
vt  0.457178 0.250080 0.127118
vt  0.418838 0.249992 0.751967
vt  0.453344 0.024922 0.235122
vt  0.413379 0.024812 0.788533
vt  0.426276 0.910770 0.735177
vt  0.479556 0.924592 0.729208
vt  0.448218 0.871650 0.172648
vt  0.437802 0.847920 0.735173
vt  0.852589 0.264223 0.764567
vt  0.851040 0.177059 0.999500
vt  0.920969 0.199995 0.405154
vt  0.853008 0.000911 0.840064
vt  0.915180 0.070560 0.779753
vt  0.970085 0.109155 0.054224
vt  0.969864 0.199995 0.000500
vt  0.883856 0.263894 0.086325
vt  0.781111 0.199995 0.405153
vt  0.796334 0.070561 0.779753
vt  0.736643 0.109156 0.054223
vt  0.732216 0.199995 0.000500
vt  0.821323 0.263895 0.086325
vt  0.859243 0.472682 0.500000
vt  0.852089 0.271074 0.500000
vt  0.972092 0.439592 0.500000
vt  0.918665 0.512427 0.500000
vt  0.934048 0.278250 0.499928
vt  0.915117 0.336445 0.999501
vt  0.936453 0.414789 0.824932
vt  0.896846 0.303488 0.909949
vt  0.844931 0.472491 0.500000
vt  0.767720 0.414597 0.175068
vt  0.789057 0.336254 0.000499
vt  0.852085 0.270882 0.500000
vt  0.807328 0.303297 0.090051
vt  0.732082 0.439401 0.500000
vt  0.785509 0.512236 0.500000
vt  0.770126 0.278059 0.499928
vt  0.418750 0.909681 0.118342
vt  0.397564 0.961508 0.469840
vt  0.384908 0.959055 0.000500
vt  0.367727 0.966401 0.061578
vt  0.358131 0.982937 0.544251
vt  0.357206 0.988740 0.999500
vt  0.390501 0.909868 0.038732
vt  0.358131 0.868061 0.361054
vt  0.297512 0.909681 0.118342
vt  0.331354 0.959055 0.000500
vt  0.318697 0.961508 0.469839
vt  0.350385 0.966401 0.061577
vt  0.325761 0.909868 0.038732
vt  0.833406 0.930995 0.764844
vt  0.727494 0.949841 0.378138
vt  0.835829 0.903298 0.362310
vt  0.825114 0.948456 0.362308
vt  0.973351 0.987493 0.501947
vt  0.923200 0.919169 0.447606
vt  0.922975 0.901128 0.351158
vt  0.739549 0.883657 0.001219
vt  0.736434 0.898569 0.378130
vt  0.838064 0.876672 0.000500
vt  0.731306 0.848146 0.378138
vt  0.839641 0.894689 0.362310
vt  0.828926 0.849531 0.362308
vt  0.975384 0.816480 0.121256
vt  0.977163 0.810494 0.501947
vt  0.849600 0.847722 0.362308
vt  0.738996 0.901968 0.378130
vt  0.833406 0.930995 0.764844
vt  0.741377 0.914824 0.999501
vt  0.727494 0.949841 0.378138
vt  0.835829 0.903298 0.362310
vt  0.825114 0.948456 0.362308
vt  0.973351 0.987493 0.501947
vt  0.923200 0.919169 0.447606
vt  0.922975 0.901128 0.351158
vt  0.845788 0.950265 0.362308
vt  0.838064 0.876672 0.000500
vt  0.839641 0.894689 0.362310
vt  0.975384 0.816480 0.121256
vt  0.926787 0.896859 0.351158
vt  0.926930 0.883653 0.219956
vt  0.735815 0.722811 0.378130
vt  0.831500 0.753751 0.764844
vt  0.739471 0.737580 0.999501
vt  0.725589 0.772597 0.378138
vt  0.833923 0.726054 0.362310
vt  0.823208 0.771212 0.362308
vt  0.969533 0.805787 0.501947
vt  0.921294 0.741925 0.447606
vt  0.921069 0.723884 0.351158
vt  0.843883 0.773021 0.362308
vt  0.737643 0.706412 0.001219
vt  0.735802 0.716863 0.378130
vt  0.836158 0.699428 0.000500
vt  0.729400 0.670902 0.378138
vt  0.837735 0.717445 0.362310
vt  0.827020 0.672287 0.362308
vt  0.973478 0.639236 0.121256
vt  0.975257 0.633250 0.501947
vt  0.924881 0.719615 0.351158
vt  0.925024 0.706409 0.219956
vt  0.847694 0.670478 0.362308
vt  0.951071 0.553393 0.102493
vt  0.905096 0.512904 0.085214
vt  0.923913 0.550849 0.999483
vt  0.904288 0.535719 0.999483
vt  0.923018 0.586709 0.116935
vt  0.904289 0.562697 0.999482
vt  0.884624 0.550849 0.999483
vt  0.856825 0.504034 0.000499
vt  0.856826 0.594655 0.073252
vt  0.762580 0.553393 0.102509
vt  0.789738 0.550849 0.999500
vt  0.808555 0.512904 0.085247
vt  0.809363 0.535719 0.999500
vt  0.790633 0.586709 0.116952
vt  0.809362 0.562697 0.999499
vt  0.829027 0.550849 0.999500
vt  0.018949 0.983913 0.000499
vt  0.018295 0.929160 0.999500
vt  0.042821 0.983913 0.238664
vt  0.073049 0.929160 0.999500
vt  0.066743 0.983913 0.000500
vt  0.071997 0.983917 0.000519
vt  0.078339 0.929330 0.999512
vt  0.115802 0.984256 0.569397
vt  0.147919 0.984884 0.245998
vt  0.148601 0.927410 0.000500
vt  0.122254 0.984249 0.105326
vt  0.088058 0.928678 0.000499
vt  0.153510 0.985267 0.245998
vt  0.152654 0.927221 0.000500
vt  0.181941 0.927855 0.999501
vt  0.219354 0.928607 0.347778
vt  0.189653 0.928607 0.000488
vt  0.188575 0.979237 0.999512
vt  0.213414 0.979237 0.652100
vt  0.018949 0.983913 0.000499
vt  0.018295 0.929160 0.999500
vt  0.042821 0.983913 0.238664
vt  0.073049 0.929160 0.999500
vt  0.066743 0.983913 0.000500
vt  0.071997 0.983917 0.000519
vt  0.078339 0.929330 0.999512
vt  0.115802 0.984256 0.569397
vt  0.147919 0.984884 0.245998
vt  0.148601 0.927410 0.000500
vt  0.122254 0.984249 0.105326
vt  0.088058 0.928678 0.000499
vt  0.153510 0.985267 0.245998
vt  0.152654 0.927221 0.000500
vt  0.181941 0.927855 0.999501
vt  0.219354 0.928607 0.347778
vt  0.189653 0.928607 0.000488
vt  0.188575 0.979237 0.999512
vt  0.213414 0.979237 0.652100
vt  0.033922 0.556543 0.000500
vt  0.024166 0.453938 0.929367
vt  0.053023 0.549939 0.085203
vt  0.035783 0.451579 0.999501
vt  0.467444 0.990424 0.000499
vt  0.466790 0.935671 0.999500
vt  0.491316 0.990424 0.238664
vt  0.521543 0.935671 0.999500
vt  0.515237 0.990424 0.000500
vt  0.520491 0.990428 0.000519
vt  0.526834 0.935841 0.999512
vt  0.564297 0.990767 0.569397
vt  0.596413 0.991395 0.245998
vt  0.597096 0.933921 0.000500
vt  0.570748 0.990760 0.105326
vt  0.536552 0.935189 0.000499
vt  0.602004 0.991778 0.245998
vt  0.601149 0.933732 0.000500
vt  0.630436 0.934366 0.999501
vt  0.667848 0.935118 0.347778
vt  0.638148 0.935118 0.000488
vt  0.637069 0.985748 0.999512
vt  0.661908 0.985748 0.652100
vt  0.011295 0.261397 0.000499
vt  0.022029 0.264558 0.085203
vt  0.022523 0.362545 0.929367
vt  0.028790 0.362860 0.999501
vt  0.356216 0.344346 0.352924
vt  0.322584 0.337812 0.747958
vt  0.358501 0.386167 0.298027
vt  0.360712 0.294143 0.999500
vt  0.397933 0.303859 0.994193
vt  0.404121 0.354888 0.200947
vt  0.356216 0.344346 0.352924
vt  0.402135 0.386784 0.000499
vt  0.404121 0.354888 0.200947
vt  0.356216 0.344346 0.352924
vt  0.358501 0.386167 0.298027
vt  0.402135 0.386784 0.000499
vt  0.347602 0.332184 0.352924
vt  0.322584 0.337812 0.747958
vt  0.356216 0.344346 0.767832
vt  0.360712 0.294143 0.999500
vt  0.409112 0.382250 0.751654
vt  0.402135 0.386784 0.000499
vt  0.415699 0.352825 0.726506
vt  0.397933 0.303859 0.994193
vt  0.415699 0.352825 0.726506
vt  0.404121 0.354888 0.200947
vt  0.402135 0.386784 0.000499
vt  0.415699 0.352825 0.726506
vt  0.404121 0.354888 0.200947
vt  0.348603 0.432015 0.767832
vt  0.352524 0.390653 0.298027
vt  0.395527 0.391267 0.751654
vt  0.399295 0.421044 0.726506
vt  0.316867 0.438276 0.747958
vt  0.348603 0.432015 0.767832
vt  0.352524 0.390653 0.298027
vt  0.354995 0.481946 0.999500
vt  0.392216 0.472230 0.994193
vt  0.399295 0.421044 0.726506
vt  0.352628 0.568026 0.352924
vt  0.318996 0.561492 0.747958
vt  0.354912 0.609847 0.298027
vt  0.357124 0.517823 0.999500
vt  0.394344 0.527539 0.994193
vt  0.400533 0.578568 0.200947
vt  0.352628 0.568026 0.352924
vt  0.398546 0.610464 0.000499
vt  0.400533 0.578568 0.200947
vt  0.352628 0.568026 0.352924
vt  0.354912 0.609847 0.298027
vt  0.398546 0.610464 0.000499
vt  0.344013 0.555864 0.352924
vt  0.318996 0.561492 0.747958
vt  0.352628 0.568026 0.767832
vt  0.357124 0.517823 0.999500
vt  0.405524 0.605930 0.751654
vt  0.398546 0.610464 0.000499
vt  0.412110 0.576505 0.726506
vt  0.394344 0.527539 0.994193
vt  0.412110 0.576505 0.726506
vt  0.400533 0.578568 0.200947
vt  0.398546 0.610464 0.000499
vt  0.412110 0.576505 0.726506
vt  0.400533 0.578568 0.200947
vt  0.345014 0.655695 0.767832
vt  0.348936 0.614333 0.298027
vt  0.391939 0.614946 0.751654
vt  0.395706 0.644724 0.726506
vt  0.313278 0.661956 0.747958
vt  0.345014 0.655695 0.767832
vt  0.348936 0.614333 0.298027
vt  0.351406 0.705625 0.999500
vt  0.388627 0.695910 0.994193
vt  0.395706 0.644724 0.726506
vt  0.952437 0.607576 0.054224
vt  0.837978 0.648536 0.539907
vt  0.835748 0.637851 0.507125
vt  0.718995 0.607575 0.054223
vt  0.790451 0.040011 0.539907
vt  0.796334 0.070561 0.779753
vt  0.736643 0.109156 0.054223
vt  0.915180 0.070560 0.779753
vt  0.970085 0.109155 0.054224
vt  0.919399 0.043822 0.539907
# 325 texture vertices

vn  0.084296 0.138784 0.986729
vn  -0.021408 -0.037621 -0.999063
vn  0.042104 0.072870 -0.996452
vn  -0.012647 0.076412 0.996996
vn  -0.084518 -0.270593 0.958977
vn  -0.138476 0.037618 -0.989651
vn  -0.362531 -0.924958 -0.114123
vn  -0.167243 -0.300515 -0.939000
vn  0.026094 0.665777 -0.745694
vn  0.008308 0.073372 0.997270
vn  0.006871 -0.997458 0.070928
vn  -0.037416 -0.146687 0.988475
vn  0.064879 0.290627 0.954634
vn  0.044314 -0.998993 0.006954
vn  0.029493 -0.656980 0.753331
vn  -0.022267 0.622054 -0.782657
vn  0.036903 0.960334 0.276399
vn  0.014238 -0.831178 0.555824
vn  0.635458 0.100558 0.765559
vn  0.996600 0.071809 -0.040391
vn  0.315606 -0.011433 -0.948821
vn  0.973265 -0.054322 0.223168
vn  0.530778 -0.083060 0.843431
vn  0.713513 0.026528 -0.700140
vn  0.996867 0.018447 -0.076917
vn  0.671326 -0.038472 0.740163
vn  0.483689 0.103664 -0.869079
vn  0.703811 -0.710375 0.004223
vn  0.115952 -0.962850 0.243877
vn  0.343440 -0.659901 -0.668266
vn  0.590698 0.661758 0.461685
vn  0.663826 -0.667758 -0.336800
vn  0.405840 0.171224 -0.897762
vn  0.967609 0.209351 -0.141083
vn  0.359386 -0.115514 0.926012
vn  -0.300188 -0.844873 0.442806
vn  0.770904 -0.264074 0.579631
vn  0.919577 0.278383 0.277276
vn  0.272398 -0.029389 0.961736
vn  0.717257 -0.189319 0.670597
vn  -0.531768 -0.773338 -0.345211
vn  0.203867 -0.760754 -0.616191
vn  0.181608 -0.191761 0.964493
vn  0.070414 -0.157247 0.985046
vn  0.645271 -0.453919 0.614477
vn  0.524921 -0.060383 0.849006
vn  -0.599515 0.191312 0.777163
vn  -0.991225 0.114772 -0.065570
vn  -0.445423 -0.061754 -0.893188
vn  -0.991099 0.035402 0.128337
vn  -0.591733 -0.033840 0.805424
vn  -0.687582 0.059269 -0.723684
vn  -0.978818 0.201757 -0.034785
vn  -0.609853 -0.207257 0.764934
vn  -0.421244 0.275444 -0.864109
vn  -0.705962 -0.482265 -0.518689
vn  -0.222791 -0.827416 -0.515507
vn  -0.296316 -0.167722 -0.940248
vn  -0.726257 0.505206 0.466174
vn  -0.787379 -0.416712 -0.454297
vn  -0.264062 0.382466 -0.885432
vn  -0.969211 0.222027 -0.106463
vn  -0.442003 -0.092802 0.892200
vn  0.312587 -0.858175 0.407216
vn  -0.719063 -0.236000 0.653646
vn  -0.868780 0.324808 0.373792
vn  -0.333963 0.013727 0.942486
vn  -0.643542 -0.138061 0.752857
vn  0.717330 -0.533038 -0.448673
vn  -0.438122 0.411901 -0.798991
vn  -0.278438 -0.594404 0.754424
vn  0.037323 -0.156527 0.986968
vn  -0.588852 -0.427129 0.686159
vn  -0.472346 -0.038538 0.880570
vn  -0.753618 -0.557620 -0.348023
vn  0.220710 -0.033389 -0.974768
vn  0.802429 0.588141 0.100980
vn  -0.099922 0.107831 0.989135
vn  -0.062689 -0.980806 0.184634
vn  0.716173 0.058898 -0.695434
vn  -0.454079 0.165065 0.875537
vn  0.139441 -0.007393 -0.990203
vn  -0.763646 -0.581858 -0.279797
vn  0.846283 0.250585 0.470119
vn  0.969359 -0.186156 -0.160280
vn  0.070311 0.318803 -0.945209
vn  -0.951082 0.305472 -0.046150
vn  -0.207115 -0.294341 0.932988
vn  0.338367 -0.935871 -0.098247
vn  -0.455743 0.219539 -0.862613
vn  0.047341 -0.143332 0.988542
vn  0.152191 0.427417 -0.891152
vn  0.960228 -0.275951 -0.042588
vn  -0.990724 -0.121207 0.061438
vn  -0.593032 -0.076743 -0.801513
vn  0.344594 -0.761863 -0.548470
vn  -0.614369 -0.386341 0.687962
vn  0.830478 0.001342 0.557050
vn  0.651897 0.566495 -0.504097
vn  -0.193826 0.051640 -0.979676
vn  0.634493 -0.767789 0.088988
vn  -0.888993 -0.411128 0.201656
vn  0.654010 -0.035427 0.755656
vn  0.103709 -0.973780 0.202477
vn  -0.841964 -0.400785 -0.361202
vn  0.519123 -0.336179 -0.785808
vn  -0.393095 -0.427662 0.813991
vn  -0.137888 -0.001151 -0.990447
vn  0.967716 0.207904 -0.142483
vn  -0.883327 -0.384688 0.267861
vn  0.034664 -0.993347 -0.109814
vn  0.989995 -0.133598 0.045397
vn  -0.008239 -0.102637 -0.994685
vn  0.063260 -0.641101 0.764845
vn  0.529893 0.399776 -0.747926
vn  -0.820388 0.098605 -0.563241
# 116 vertex normals

g (null)
usemtl bigsas
s 1
f 23/10/23 20/11/20 22/12/22
f 20/11/20 23/10/23 19/13/19
f 19/13/19 4/14/4 1/15/1
f 19/13/19 23/10/23 4/14/4
f 24/42/24 22/43/22 20/44/20
f 3/45/3 24/42/24 2/46/2
f 21/47/21 2/46/2 24/42/24
f 21/47/21 24/42/24 20/44/20
f 25/16/25 19/13/19 26/17/26
f 19/13/19 25/16/25 20/11/20
f 26/17/26 1/15/1 5/18/5
f 1/15/1 26/17/26 19/13/19
f 6/48/6 21/47/21 27/49/27
f 21/47/21 6/48/6 2/46/2
f 27/49/27 20/44/20 25/50/25
f 20/44/20 27/49/27 21/47/21
f 28/19/28 26/17/26 29/20/29
f 26/17/26 28/19/28 25/16/25
f 29/20/29 5/18/5 7/21/7
f 5/18/5 29/20/29 26/17/26
f 8/51/8 27/49/27 30/52/30
f 27/49/27 8/51/8 6/48/6
f 30/52/30 25/50/25 28/53/28
f 25/50/25 30/52/30 27/49/27
f 9/54/9 34/55/34 31/56/31
f 9/54/9 31/56/31 33/57/33
f 22/12/22 32/22/32 35/23/35
f 31/24/31 10/25/10 35/23/35
f 35/23/35 23/10/23 22/12/22
f 39/26/39 12/27/12 23/10/23
f 4/14/4 23/10/23 12/27/12
f 10/25/10 31/24/31 34/28/34
f 9/54/9 33/57/33 3/45/3
f 39/26/39 10/25/10 12/27/12
f 24/42/24 3/45/3 33/57/33
f 33/57/33 32/58/32 24/42/24
f 24/42/24 32/58/32 22/43/22
f 18/71/18 13/72/13 38/73/38
f 65/80/65 37/75/37 13/72/13
f 37/75/37 38/73/38 13/72/13
f 11/2/11 37/4/37 14/1/14
f 16/92/16 36/93/36 46/94/46
f 9/95/9 16/92/16 34/96/34
f 15/97/15 36/93/36 17/98/17
f 16/92/16 17/98/17 36/93/36
f 35/23/35 10/25/10 39/26/39
f 35/23/35 39/26/39 23/10/23
f 37/75/37 40/76/40 38/73/38
f 37/323/37 11/325/11 40/324/40
f 28/165/28 29/166/29 42/167/42
f 43/168/43 42/167/42 29/166/29
f 30/169/30 28/165/28 42/167/42
f 43/168/43 29/166/29 41/171/41
f 41/171/41 29/166/29 7/172/7
f 8/173/8 30/169/30 41/171/41
f 42/170/42 41/171/41 30/169/30
f 41/171/41 7/172/7 8/173/8
f 46/100/46 36/101/36 44/102/44
f 40/76/40 44/77/44 38/73/38
f 44/102/44 36/101/36 45/103/45
f 45/6/45 38/3/38 44/5/44
f 45/103/45 36/101/36 18/104/18
f 45/78/45 18/71/18 38/73/38
f 15/105/15 18/104/18 36/101/36
f 16/92/16 46/94/46 34/96/34
f 10/99/10 34/96/34 46/94/46
f 46/100/46 44/102/44 40/106/40
f 46/100/46 40/106/40 10/107/10
f 10/318/10 40/316/40 11/317/11
f 51/29/51 50/30/50 48/31/48
f 48/31/48 47/32/47 51/29/51
f 47/32/47 1/15/1 4/14/4
f 47/32/47 4/14/4 51/29/51
f 52/59/52 48/60/48 50/61/50
f 3/45/3 2/46/2 52/59/52
f 49/62/49 52/59/52 2/46/2
f 49/62/49 48/60/48 52/59/52
f 53/33/53 54/34/54 47/32/47
f 47/32/47 48/31/48 53/33/53
f 54/34/54 5/18/5 1/15/1
f 1/15/1 47/32/47 54/34/54
f 6/48/6 55/63/55 49/62/49
f 49/62/49 2/46/2 6/48/6
f 55/63/55 53/64/53 48/60/48
f 48/60/48 49/62/49 55/63/55
f 56/35/56 57/36/57 54/34/54
f 54/34/54 53/33/53 56/35/56
f 57/36/57 7/21/7 5/18/5
f 5/18/5 54/34/54 57/36/57
f 8/51/8 58/65/58 55/63/55
f 55/63/55 6/48/6 8/51/8
f 58/65/58 56/66/56 53/64/53
f 53/64/53 55/63/55 58/65/58
f 9/54/9 59/67/59 62/68/62
f 9/54/9 61/69/61 59/67/59
f 50/30/50 63/37/63 60/38/60
f 59/39/59 63/37/63 10/25/10
f 63/37/63 50/30/50 51/29/51
f 67/40/67 51/29/51 12/27/12
f 4/14/4 12/27/12 51/29/51
f 10/25/10 62/41/62 59/39/59
f 9/54/9 3/45/3 61/69/61
f 67/40/67 12/27/12 10/25/10
f 52/59/52 61/69/61 3/45/3
f 61/69/61 52/59/52 60/70/60
f 52/59/52 50/61/50 60/70/60
f 18/71/18 66/79/66 13/72/13
f 14/74/14 37/75/37 65/80/65
f 65/80/65 13/72/13 66/79/66
f 11/8/11 14/7/14 65/9/65
f 16/84/16 74/89/74 64/90/64
f 9/85/9 62/91/62 16/84/16
f 15/86/15 17/87/17 64/90/64
f 16/84/16 64/90/64 17/87/17
f 63/37/63 67/40/67 10/25/10
f 63/37/63 51/29/51 67/40/67
f 65/80/65 66/79/66 68/81/68
f 65/321/65 68/322/68 11/320/11
f 56/174/56 70/175/70 57/176/57
f 71/177/71 57/176/57 70/175/70
f 58/178/58 70/175/70 56/174/56
f 71/177/71 69/180/69 57/176/57
f 69/180/69 7/172/7 57/176/57
f 8/173/8 69/180/69 58/178/58
f 70/179/70 58/178/58 69/180/69
f 69/180/69 8/173/8 7/172/7
f 74/108/74 72/109/72 64/110/64
f 68/81/68 66/79/66 72/82/72
f 72/109/72 73/111/73 64/110/64
f 73/83/73 72/82/72 66/79/66
f 64/110/64 18/104/18 15/105/15
f 73/83/73 66/79/66 18/71/18
f 18/104/18 64/110/64 73/111/73
f 16/84/16 62/91/62 74/89/74
f 10/88/10 74/89/74 62/91/62
f 74/108/74 68/112/68 72/109/72
f 74/108/74 10/107/10 68/112/68
f 10/318/10 11/317/11 68/319/68
f 32/154/32 75/156/75 35/155/35
f 77/145/77 33/147/33 31/146/31
f 75/156/75 32/154/32 33/157/33
f 35/144/35 78/148/78 31/146/31
f 78/158/78 35/155/35 75/156/75
f 78/148/78 77/145/77 31/146/31
f 76/149/76 33/147/33 77/145/77
f 33/157/33 76/159/76 75/156/75
f 79/160/79 75/156/75 80/161/80
f 77/145/77 84/151/84 80/150/80
f 78/148/78 81/152/81 77/145/77
f 81/162/81 78/158/78 75/156/75
f 75/156/75 83/163/83 81/162/81
f 82/164/82 80/161/80 75/156/75
f 77/145/77 80/150/80 82/153/82
f 77/145/77 82/153/82 76/149/76
f 75/156/75 76/159/76 82/164/82
f 80/219/80 84/220/84 79/221/79
f 79/221/79 84/220/84 83/222/83
f 77/145/77 81/152/81 84/151/84
f 75/156/75 79/160/79 83/163/83
f 60/120/60 63/121/63 85/122/85
f 85/122/85 61/123/61 60/120/60
f 88/124/88 85/122/85 63/121/63
f 86/116/86 87/113/87 61/114/61
f 61/123/61 85/122/85 86/125/86
f 89/126/89 90/127/90 85/122/85
f 87/113/87 90/117/90 94/118/94
f 88/115/88 87/113/87 91/119/91
f 92/128/92 85/122/85 90/127/90
f 85/122/85 92/128/92 86/125/86
f 90/242/90 89/243/89 94/244/94
f 89/243/89 93/245/93 94/244/94
f 87/130/87 59/131/59 61/132/61
f 63/129/63 59/131/59 88/133/88
f 88/133/88 59/131/59 87/130/87
f 91/142/91 85/139/85 88/140/88
f 85/139/85 91/142/91 93/143/93
f 87/130/87 92/138/92 90/135/90
f 87/130/87 86/134/86 92/138/92
f 87/130/87 94/136/94 91/137/91
f 85/139/85 93/143/93 89/141/89
f 41/231/41 42/233/42 95/232/95
f 95/232/95 42/233/42 96/234/96
f 41/235/41 95/236/95 97/237/97
f 96/228/96 42/230/42 98/229/98
f 97/238/97 96/240/96 98/239/98
f 96/240/96 97/238/97 95/241/95
f 42/223/42 43/225/43 98/224/98
f 43/225/43 97/226/97 98/224/98
f 43/225/43 41/227/41 97/226/97
f 69/189/69 99/190/99 70/191/70
f 99/190/99 100/192/100 70/191/70
f 69/193/69 101/195/101 99/194/99
f 100/186/100 102/187/102 70/188/70
f 101/196/101 102/197/102 100/198/100
f 100/198/100 99/199/99 101/196/101
f 70/181/70 102/182/102 71/183/71
f 71/183/71 102/182/102 101/184/101
f 71/183/71 101/184/101 69/185/69
f 69/208/69 99/209/99 70/210/70
f 99/209/99 100/211/100 70/210/70
f 69/212/69 101/214/101 99/213/99
f 100/205/100 102/206/102 70/207/70
f 101/215/101 102/216/102 100/217/100
f 100/217/100 99/218/99 101/215/101
f 70/200/70 102/201/102 71/202/71
f 71/202/71 102/201/102 101/203/101
f 71/202/71 101/203/101 69/204/69
f 103/258/103 104/259/104 105/260/105
f 81/248/81 104/247/104 103/246/103
f 105/271/105 81/272/81 83/273/83
f 103/246/103 107/249/107 106/250/106
f 83/273/83 108/274/108 105/271/105
f 109/251/109 103/246/103 106/250/106
f 107/261/107 103/258/103 105/260/105
f 106/265/106 108/266/108 109/267/109
f 81/256/81 103/255/103 84/257/84
f 108/264/108 83/262/83 84/263/84
f 106/279/106 107/278/107 105/276/105
f 104/275/104 81/277/81 105/276/105
f 108/280/108 106/279/106 105/276/105
f 109/270/109 108/269/108 84/268/84
f 84/253/84 103/252/103 109/254/109
f 110/293/110 112/295/112 111/294/111
f 91/283/91 110/281/110 111/282/111
f 112/306/112 93/308/93 91/307/91
f 110/281/110 113/285/113 114/284/114
f 93/308/93 112/306/112 115/309/115
f 116/286/116 113/285/113 110/281/110
f 114/296/114 112/295/112 110/293/110
f 113/300/113 116/302/116 115/301/115
f 91/291/91 94/292/94 110/290/110
f 115/299/115 94/298/94 93/297/93
f 113/314/113 112/311/112 114/313/114
f 111/310/111 112/311/112 91/312/91
f 115/315/115 112/311/112 113/314/113
f 116/305/116 94/303/94 115/304/115
f 94/288/94 116/289/116 110/287/110
# 237 faces

g
# object (null) to come ...
#
v  -14.351078 53.953316 -34.244350
v  -14.456005 54.955429 -33.589203
v  -13.376628 54.608414 -33.987934
v  -6.955054 25.983215 11.930203
v  -6.850122 24.981091 11.275075
v  -5.875676 25.636202 11.531474
v  -6.135208 21.687757 19.789711
v  -5.920106 19.633430 18.446648
v  -3.922485 20.976383 18.972309
# 9 vertices

vt  0.979994 0.135709 0.256341
vt  0.980124 0.135089 0.500000
vt  0.976728 0.038107 0.743659
vt  0.515619 0.131012 0.500000
vt  0.515723 0.131867 0.256341
vt  0.517900 0.037781 0.743659
vt  0.978571 0.133971 0.500000
vt  0.976453 0.040746 0.000499
vt  0.976452 0.040746 0.999501
# 9 texture vertices

vn  -0.137680 0.531853 -0.835569
vn  -0.137680 0.531853 -0.835569
vn  -0.137680 0.531853 -0.835569
vn  -0.573847 0.669283 0.471974
vn  -0.423157 -0.773800 -0.471351
vn  0.980239 0.169273 -0.102364
vn  -0.167869 1.507804 0.841571
vn  -1.419932 -0.878556 -0.470978
vn  1.537486 -0.434898 -0.675940
# 9 vertex normals

g (null)
usemtl MS000
s 1
f 117/326/117 118/327/118 119/328/119
s 8
f 118/327/118 121/330/121 120/329/120
f 118/327/118 117/326/117 121/330/121
f 117/326/117 122/331/122 121/330/121
f 117/326/117 119/328/119 122/331/122
f 119/328/119 120/329/120 122/331/122
f 119/328/119 118/327/118 120/329/120
f 120/329/120 124/333/124 123/332/123
f 120/329/120 121/330/121 124/333/124
f 121/330/121 125/334/125 124/333/124
f 121/330/121 122/331/122 125/334/125
f 122/331/122 123/332/123 125/334/125
f 122/331/122 120/329/120 123/332/123
s 1
f 124/333/124 125/334/125 123/332/123
# 14 faces

g
