# Max2Obj Version 4.0 Mar 10th, 2001
#
mtllib ./spider_attack_09.mtl
g
# object (null) to come ...
#
v  0.167210 79.148270 8.257187
v  0.029045 83.864479 19.050293
v  0.019436 68.756943 35.883598
v  0.082211 55.013584 13.880501
v  0.166378 54.277370 5.053116
v  -0.086781 82.267197 53.636040
v  0.016949 47.285366 40.941093
v  -0.106686 83.938614 65.684273
v  -0.119671 80.332207 82.971138
v  0.012890 33.909317 69.993797
v  -0.067600 51.659576 98.063454
v  0.212696 69.005936 -0.623932
v  -0.034164 68.578651 39.346031
v  0.632149 36.201466 -2.205391
v  17.414417 71.771645 20.130783
v  11.453419 63.941231 34.546577
v  8.305614 64.083710 5.186333
v  8.079998 65.781540 5.434280
v  17.620060 62.933216 24.201698
v  10.802685 55.942936 42.574821
v  13.286274 55.744751 33.170479
v  13.182926 54.857071 16.481789
v  7.051968 50.432991 23.578636
v  7.249931 46.621578 23.878273
v  6.448753 44.335087 32.771294
v  5.029400 57.841564 7.517937
v  10.470020 63.096054 9.245583
v  8.647221 55.913696 11.121101
v  2.240215 45.240223 3.417786
v  4.746761 63.539398 -5.495224
v  11.199734 45.150223 4.442284
v  7.698112 45.509682 -4.729416
v  8.855122 72.650848 -7.387062
v  12.790615 80.367332 -6.185669
v  17.904682 72.994972 -5.733307
v  11.063488 80.774231 -28.330284
v  16.805431 84.410736 -27.191204
v  18.525494 77.912193 -27.868298
v  18.646000 80.486359 -65.431511
v  28.606953 52.791805 9.751961
v  37.708073 59.023861 8.860985
v  35.610538 53.789131 16.913094
v  39.368847 41.284122 3.330727
v  47.552639 42.838860 4.183578
v  45.188190 40.869118 11.179245
v  53.257618 -1.588256 -0.772865
v  30.370258 53.746136 25.443214
v  31.086124 62.020332 33.664436
v  29.690922 52.948284 36.492653
v  46.524059 48.573189 25.348717
v  51.195591 51.465996 32.472359
v  39.911289 40.643978 33.050552
v  53.341053 11.114304 29.188019
v  7.377834 68.629997 43.651375
v  23.416073 71.905548 62.195930
v  23.775311 46.533997 52.865303
v  20.447384 68.348373 80.072853
v  28.045322 39.939274 71.831673
v  6.592999 52.081993 7.494286
v  17.531994 60.608257 -1.265434
v  10.856709 61.782219 -4.166100
v  11.806316 53.362011 -1.074417
v  17.759907 44.452225 -16.011971
v  10.974613 49.333393 -17.124847
v  11.943607 43.931213 -10.828163
v  6.470291 38.976772 -20.369598
v  0.818027 41.874683 -18.169052
v  2.698967 38.040031 -15.210342
v  -0.329227 36.239563 -2.217239
v  -17.324310 71.769157 19.847336
v  -11.431240 63.941399 34.546516
v  -8.013908 64.105133 5.047485
v  -7.758072 65.782761 5.301476
v  -17.643650 63.008205 23.898804
v  -10.816086 55.888927 42.546944
v  -13.262661 55.742298 33.171867
v  -13.020641 54.943787 16.811424
v  -7.111259 50.209438 23.958626
v  -7.225819 46.620052 23.879135
v  -6.378933 44.303036 32.754745
v  -6.690117 59.495132 7.074074
v  -9.835773 63.359531 12.405640
v  -9.035088 56.375202 10.576530
v  -2.001560 45.283073 3.377983
v  -4.256901 63.544685 -5.571182
v  -10.971870 45.181671 4.253403
v  -7.330074 45.555843 -4.859917
v  -9.260693 81.828384 10.693970
v  -8.454914 85.390640 18.831581
v  -15.104675 79.712700 17.223045
v  -18.573818 97.058426 5.517227
v  -23.715900 101.081284 9.457886
v  -24.807381 93.565125 9.108284
v  -29.808659 72.234238 -21.221100
v  -28.350510 52.391994 9.559410
v  -37.355743 58.722355 8.351051
v  -35.461346 53.664127 16.568901
v  -39.221489 41.037132 3.216972
v  -47.493729 42.657509 3.855522
v  -45.182652 40.880955 10.972771
v  -51.335648 -2.163561 0.974014
v  -30.403742 55.358414 25.699425
v  -30.435299 64.147194 33.399544
v  -29.726782 55.195129 36.782425
v  -45.968426 51.400818 25.740005
v  -50.689384 54.760750 32.702766
v  -39.586830 44.070965 33.942909
v  -59.165924 8.915892 30.133812
v  -7.457455 68.592934 43.632225
v  -23.559654 71.788185 62.135323
v  -23.768044 46.415218 52.803978
v  -20.619362 68.245781 80.019875
v  -28.053965 39.799122 71.759315
v  -6.327881 52.117470 7.382500
v  -17.131794 60.682236 -1.563202
v  -10.418606 61.900242 -4.356079
v  -11.370754 53.474113 -1.279747
v  -17.183006 44.529854 -16.312431
v  -10.412270 49.457428 -17.316368
v  -11.448071 44.052872 -11.036232
v  -5.852676 39.021160 -20.477257
v  -0.261726 41.946842 -18.185287
v  -2.151073 38.095570 -15.256500
# 123 vertices

vt  0.025670 0.875244 0.550955
vt  0.008915 0.884464 0.999501
vt  0.023983 0.951413 0.999501
vt  0.025670 0.875244 0.550955
vt  0.008915 0.884464 0.999501
vt  0.023983 0.951413 0.999501
vt  0.379539 0.388047 0.865681
vt  0.272674 0.468987 0.395353
vt  0.272506 0.417838 0.676052
vt  0.354671 0.524877 0.327455
vt  0.492284 0.459711 0.715403
vt  0.459209 0.333877 1.091717
vt  0.014250 0.428238 0.898537
vt  0.355087 0.237392 0.873572
vt  0.273111 0.271535 0.898511
vt  0.443713 0.164201 1.131261
vt  0.274408 0.022325 0.326084
vt  0.274139 0.531587 0.289607
vt  0.166912 0.385102 0.877925
vt  0.190573 0.511653 0.342945
vt  0.061035 0.456501 0.724373
vt  0.086845 0.334034 1.099332
vt  0.191488 0.234818 0.877075
vt  0.103079 0.160684 1.131261
vt  0.354671 0.524877 0.327455
vt  0.013506 0.147537 0.744304
vt  0.013506 0.147537 0.744304
vt  0.013506 0.147537 0.744304
vt  0.459209 0.333877 1.091717
vt  0.533687 0.428515 0.898537
vt  0.533191 0.147537 0.744304
vt  0.443713 0.164201 1.131261
vt  0.274408 0.022325 0.326084
vt  0.492284 0.459711 0.715403
vt  0.459209 0.333877 1.091717
vt  0.459209 0.333877 1.091717
vt  0.533191 0.147537 0.744304
vt  0.775345 0.341683 0.752312
vt  0.775876 0.247975 0.973502
vt  0.859220 0.247112 1.023133
vt  0.772128 0.424221 0.222464
vt  0.775890 0.154291 0.453351
vt  0.859827 0.141903 0.672933
vt  0.875327 0.375553 0.438363
vt  0.892505 0.219133 1.026540
vt  0.897773 0.114296 0.790411
vt  0.953133 0.141305 1.055712
vt  0.949949 0.066123 0.899705
vt  0.977975 0.018496 0.418897
vt  0.873031 0.047317 0.619304
vt  0.914347 0.327191 0.702142
vt  0.946247 0.279296 1.056105
vt  0.925279 0.240961 1.172131
vt  0.811870 0.097918 0.802759
vt  0.941640 0.180557 1.106578
vt  0.572940 0.257297 0.879081
vt  0.954340 0.335728 0.932382
vt  0.960961 0.365731 0.844048
vt  0.888702 0.378592 0.458818
vt  0.574011 0.385040 0.634092
vt  0.776176 0.128462 0.549917
vt  0.692644 0.245132 1.026506
vt  0.692111 0.141629 0.673937
vt  0.676452 0.374359 0.459365
vt  0.659497 0.216523 1.026283
vt  0.653969 0.113403 0.789690
vt  0.598608 0.140783 1.055908
vt  0.601372 0.065256 0.895499
vt  0.678986 0.045939 0.608285
vt  0.637463 0.325376 0.711539
vt  0.605901 0.279694 1.055378
vt  0.626699 0.241362 1.171451
vt  0.740506 0.096989 0.799728
vt  0.610236 0.179810 1.111456
vt  0.597908 0.334492 0.936474
vt  0.594582 0.369084 0.853103
vt  0.663706 0.377160 0.480853
vt  0.571845 0.018496 0.418897
vt  0.571845 0.018496 0.418897
vt  0.571845 0.018496 0.418897
vt  0.953133 0.141305 1.055712
vt  0.949949 0.066123 0.899705
vt  0.977975 0.018496 0.418897
vt  0.977933 0.261082 0.879081
vt  0.979004 0.388825 0.634092
vt  0.925279 0.240961 1.172131
vt  0.941640 0.180557 1.106578
vt  0.953133 0.141305 1.055712
vt  0.941640 0.180557 1.106578
vt  0.977975 0.018496 0.418897
vt  0.953133 0.141305 1.055712
vt  0.925279 0.240961 1.172131
vt  0.946247 0.279296 1.056105
vt  0.946247 0.279296 1.056105
vt  0.954340 0.335728 0.932382
vt  0.960961 0.365731 0.844048
vt  0.954340 0.335728 0.932382
vt  0.960961 0.365731 0.844048
vt  0.876456 0.657379 0.798056
vt  0.910185 0.556160 0.605165
vt  0.913662 0.658670 0.999501
vt  0.876159 0.553592 0.299641
vt  0.935408 0.657873 0.809262
vt  0.936903 0.552947 0.367580
vt  0.871892 0.848804 0.867808
vt  0.899388 0.854490 0.984717
vt  0.935080 0.844376 0.668341
vt  0.891788 0.987324 0.000500
vt  0.721119 0.672768 0.816675
vt  0.757893 0.673412 0.999501
vt  0.759085 0.544124 0.640231
vt  0.727704 0.546469 0.362567
vt  0.794309 0.670447 0.826291
vt  0.792099 0.542839 0.424949
vt  0.721696 0.854929 0.880557
vt  0.760334 0.853734 0.988478
vt  0.794191 0.855683 0.698033
vt  0.759108 0.989579 0.000499
vt  0.802489 0.668417 0.816675
vt  0.813164 0.548182 0.362567
vt  0.871675 0.666796 0.826291
vt  0.871708 0.557439 0.424949
vt  0.803118 0.854637 0.880557
vt  0.865583 0.855450 0.698033
vt  0.837549 0.987025 0.000499
vt  0.704038 0.670170 0.771682
vt  0.704920 0.562643 0.427492
vt  0.644901 0.672566 0.852822
vt  0.647846 0.566742 0.375341
vt  0.701931 0.862073 0.871964
vt  0.641457 0.863412 0.897354
vt  0.667469 0.998524 0.000500
vt  0.645465 0.666359 0.771682
vt  0.609423 0.665836 0.999501
vt  0.609322 0.553240 0.629988
vt  0.646303 0.558831 0.427492
vt  0.574501 0.668755 0.852822
vt  0.577814 0.562930 0.375341
vt  0.641031 0.862073 0.871964
vt  0.600000 0.859329 0.982820
vt  0.568462 0.857695 0.897354
vt  0.641031 0.862073 0.871964
vt  0.600000 0.859329 0.982820
vt  0.568462 0.857695 0.897354
vt  0.596238 0.994925 0.000500
vt  0.501558 0.665186 0.547099
vt  0.475328 0.670746 0.715715
vt  0.488643 0.557008 0.261720
vt  0.510735 0.559631 0.058748
vt  0.438629 0.669967 0.595847
vt  0.438845 0.555986 0.000499
vt  0.490638 0.863007 0.849172
vt  0.465435 0.853431 0.999501
vt  0.439943 0.863110 0.831858
vt  0.464498 0.995689 0.241558
vt  0.564254 0.668997 0.547099
vt  0.571052 0.562343 0.058748
vt  0.511941 0.673778 0.595847
vt  0.526391 0.557600 0.000499
vt  0.550466 0.866819 0.849172
vt  0.512914 0.866921 0.831858
vt  0.531103 0.999500 0.241558
vt  0.290756 0.676185 0.563812
vt  0.333986 0.544775 0.262967
vt  0.326637 0.668117 0.724997
vt  0.294440 0.545074 0.067297
vt  0.354937 0.672422 0.592399
vt  0.353113 0.548934 0.000500
vt  0.290943 0.859778 0.864340
vt  0.324924 0.863033 0.999500
vt  0.348682 0.862354 0.830895
vt  0.311373 1.000258 0.328007
vt  0.362150 0.676992 0.563812
vt  0.359239 0.546980 0.067297
vt  0.419736 0.674328 0.592399
vt  0.424507 0.550840 0.000500
vt  0.355742 0.861684 0.864340
vt  0.413481 0.864260 0.830895
vt  0.376172 1.002164 0.328007
vt  0.159496 0.674128 0.779638
vt  0.185555 0.550104 0.664342
vt  0.185681 0.666147 0.999501
vt  0.160294 0.542513 0.462567
vt  0.218081 0.668317 0.854366
vt  0.215102 0.548247 0.409323
vt  0.150111 0.861017 0.851745
vt  0.177469 0.863497 0.954913
vt  0.214293 0.857419 0.872581
vt  0.174267 0.992955 0.000499
vt  0.226201 0.677940 0.779638
vt  0.226999 0.546325 0.462567
vt  0.284786 0.672128 0.854366
vt  0.281807 0.552058 0.409323
vt  0.216815 0.864829 0.851745
vt  0.280998 0.861230 0.872581
vt  0.240972 0.996766 0.000499
vt  0.942685 0.660091 0.798056
vt  0.941977 0.557404 0.299641
vt  0.989137 0.661685 0.809262
vt  0.991449 0.552362 0.367580
vt  0.939923 0.850417 0.867808
vt  0.985760 0.847089 0.668341
vt  0.959816 0.991136 0.000500
vt  0.931538 0.459675 0.705197
vt  0.768930 0.471854 0.513265
vt  0.800536 0.491124 0.054954
vt  0.867513 0.453579 0.904779
vt  0.793378 0.515313 0.999501
vt  0.929596 0.495258 0.000500
vt  0.990614 0.441185 0.167146
vt  0.939905 0.518219 0.778115
vt  0.608539 0.429278 0.694385
vt  0.725602 0.482910 0.050534
vt  0.768676 0.455537 0.502007
vt  0.670790 0.428038 0.893288
vt  0.727395 0.512149 0.999501
vt  0.602094 0.474733 0.000500
vt  0.556344 0.401069 0.156791
vt  0.587502 0.500905 0.782863
vt  0.013833 0.534843 0.772069
vt  0.057723 0.498919 0.663030
vt  0.108703 0.537752 0.908156
vt  0.114337 0.623838 0.999501
vt  0.025928 0.446211 0.000500
vt  0.477818 0.544580 0.763551
vt  0.495999 0.473751 0.921745
vt  0.457462 0.507453 0.672482
vt  0.563267 0.479394 0.999501
vt  0.411300 0.524885 0.000501
vt  0.122691 0.772029 0.384459
vt  0.105427 0.782143 0.910436
vt  0.069123 0.732106 0.689547
vt  0.076559 0.701409 0.000500
vt  0.089433 0.808942 0.256445
vt  0.055780 0.764742 0.006744
vt  0.117731 0.945641 0.228549
vt  0.103867 0.925337 0.871331
vt  0.088386 0.917024 0.220623
vt  0.062154 0.991654 0.682974
vt  0.037597 0.984105 0.999501
vt  0.036497 0.970812 0.555855
vt  0.017354 0.698239 0.630861
vt  0.077571 0.659930 0.841481
vt  0.033577 0.712756 0.999501
vt  0.065908 0.640817 0.205800
vt  0.081021 0.683010 0.000500
vt  0.049118 0.727721 0.294592
vt  0.011554 0.832948 0.143977
vt  0.034991 0.827342 0.689078
vt  0.053450 0.820154 0.055285
vt  0.055064 0.903823 0.247866
vt  0.064933 0.894582 0.499335
vt  0.079099 0.883106 0.078440
vt  0.967644 0.389437 0.634092
vt  0.932696 0.369601 0.844048
vt  0.893416 0.385760 0.458818
vt  0.447575 0.041580 0.663513
vt  0.455426 0.007181 0.999501
vt  0.364876 0.024518 0.895815
vt  0.386764 0.056902 0.572416
vt  0.511792 0.059264 0.260331
vt  0.553387 0.034310 0.301709
vt  0.525175 0.122252 0.000530
vt  0.562876 0.109196 0.061797
vt  0.538257 0.138029 0.188962
vt  0.124151 0.041090 0.663369
vt  0.200940 0.027137 0.890702
vt  0.117444 0.009102 0.999286
vt  0.180181 0.056209 0.572336
vt  0.064435 0.056501 0.260186
vt  0.026347 0.032755 0.301493
vt  0.051025 0.114638 0.000500
vt  0.016346 0.101972 0.061721
vt  0.038659 0.129045 0.188955
# 274 texture vertices

vn  0.005069 0.810981 -0.585051
vn  -0.001102 0.930693 0.365800
vn  -0.000665 0.990069 0.140578
vn  0.002165 -0.957661 -0.287890
vn  -0.007656 -0.902371 0.430891
vn  -0.001497 0.861629 -0.507536
vn  0.002231 -0.949519 -0.313701
vn  -0.002630 0.993383 0.114819
vn  -0.002759 0.786868 0.617115
vn  0.002608 -0.995634 -0.093310
vn  -0.000747 -0.205853 0.978583
vn  0.006049 0.500280 -0.865842
vn  -0.001764 0.942570 -0.334005
vn  -0.190666 -0.977646 0.088625
vn  0.832145 0.518519 -0.196651
vn  0.774819 0.494524 0.393830
vn  -0.067343 0.942384 -0.327685
vn  0.809945 0.296408 -0.506094
vn  0.915459 0.062773 -0.397485
vn  0.978786 -0.202594 -0.030542
vn  0.955878 0.210043 0.205374
vn  0.167827 -0.754843 -0.634072
vn  0.624239 -0.574215 -0.529719
vn  0.230930 -0.718305 -0.656285
vn  0.207106 -0.722916 0.659166
vn  0.075039 -0.982178 0.172323
vn  0.925327 0.189719 0.328293
vn  0.723131 -0.574295 -0.383754
vn  -0.977519 -0.206085 -0.044569
vn  0.336959 0.307406 -0.889921
vn  0.511440 -0.445780 0.734649
vn  0.044100 -0.122344 -0.991508
vn  -0.899459 -0.404260 -0.165976
vn  -0.010935 0.884374 0.466652
vn  0.905418 -0.397493 -0.149054
vn  -0.980452 0.121283 -0.154935
vn  0.514671 0.852111 0.094975
vn  0.496838 -0.843748 -0.203079
vn  0.388394 0.678152 -0.623907
vn  -0.819768 -0.331386 -0.467079
vn  0.308298 0.866192 -0.393272
vn  0.508329 -0.391214 0.767173
vn  -0.602359 -0.144114 -0.785108
vn  0.872909 0.421333 -0.245985
vn  -0.035956 -0.458814 0.887804
vn  0.872453 -0.359727 -0.330791
vn  -0.288330 -0.011026 -0.957468
vn  0.091082 0.942089 0.322757
vn  -0.003056 -0.631167 0.775641
vn  0.161450 0.212340 -0.963766
vn  0.639050 0.346895 0.686497
vn  -0.623943 -0.763870 0.164919
vn  0.627322 -0.369874 -0.685318
vn  0.601314 0.677854 -0.423008
vn  0.790730 0.575116 -0.209732
vn  0.674801 -0.330825 -0.659696
vn  0.686915 0.525777 0.501703
vn  0.862227 -0.432342 0.263903
vn  -0.299120 -0.925622 0.231843
vn  0.917322 0.292403 0.270222
vn  -0.478949 0.579439 -0.659438
vn  -0.278854 -0.817409 0.504066
vn  0.872142 -0.305502 -0.382148
vn  -0.624817 0.533240 -0.570315
vn  -0.133870 -0.347531 0.928063
vn  -0.015446 -0.418549 -0.908063
vn  -0.943575 0.329413 -0.033972
vn  -0.144472 -0.937476 0.316649
vn  0.189502 -0.977748 0.089985
vn  -0.827261 0.521108 -0.209966
vn  -0.777236 0.495241 0.388125
vn  0.046579 0.953128 -0.298962
vn  -0.825405 0.117927 -0.552087
vn  -0.896492 -0.033714 -0.441775
vn  -0.977998 -0.205764 -0.034377
vn  -0.959791 0.192313 0.204494
vn  -0.182690 -0.770629 -0.610537
vn  -0.610315 -0.522417 -0.595479
vn  -0.222249 -0.710626 -0.667544
vn  -0.220424 -0.717965 0.660258
vn  -0.485205 -0.845322 -0.223620
vn  -0.951420 -0.149330 -0.269260
vn  -0.590773 -0.457081 -0.664879
vn  0.976661 -0.212125 -0.033698
vn  -0.322221 0.309159 -0.894759
vn  -0.541881 -0.464136 0.700673
vn  -0.028335 -0.122197 -0.992101
vn  0.522809 -0.273051 -0.807536
vn  0.843642 0.473197 0.253677
vn  -0.938022 -0.230752 0.258588
vn  0.788218 0.306256 -0.533778
vn  -0.495428 0.722938 0.481573
vn  -0.715340 -0.692426 -0.093997
vn  -0.755065 0.384581 -0.531012
vn  0.822486 -0.357793 -0.442155
vn  -0.288898 0.862828 -0.414809
vn  -0.522047 -0.353945 0.776009
vn  0.617647 -0.162091 -0.769571
vn  -0.869764 0.411782 -0.271930
vn  0.015615 -0.435499 0.900054
vn  -0.852890 -0.420096 -0.309996
vn  0.315611 -0.070793 -0.946244
vn  -0.024909 0.961546 0.273511
vn  -0.030764 -0.589426 0.807236
vn  -0.135174 0.182569 -0.973857
vn  -0.618172 0.438808 0.652159
vn  0.569362 -0.794078 0.212763
vn  -0.608666 -0.263639 -0.748345
vn  -0.602919 0.675200 -0.424962
vn  -0.793051 0.571158 -0.211777
vn  -0.671435 -0.334188 -0.661432
vn  -0.690823 0.522334 0.499930
vn  -0.860734 -0.436647 0.261681
vn  0.573066 -0.819022 -0.028261
vn  -0.930128 0.284067 0.232740
vn  0.487640 0.582972 -0.649885
vn  0.265633 -0.852695 0.449833
vn  -0.869317 -0.304963 -0.388954
vn  0.632677 0.530173 -0.564479
vn  0.122963 -0.346299 0.930031
vn  0.031254 -0.418509 -0.907675
vn  0.943987 0.329212 -0.022512
vn  0.141529 -0.935442 0.323911
# 123 vertex normals

g (null)
usemtl spidsd
s 1
f 1/38/1 2/39/2 15/40/15
f 1/38/1 15/40/15 12/41/12
f 2/39/2 3/42/3 16/43/16
f 2/39/2 16/43/16 15/40/15
f 12/41/12 15/40/15 18/44/18
f 18/44/18 15/40/15 19/45/19
f 19/45/19 16/43/16 21/46/21
f 19/45/19 15/40/15 16/43/16
f 24/47/24 19/45/19 21/46/21
f 25/82/25 7/83/7 24/81/24
f 7/49/7 25/48/25 20/50/20
f 21/46/21 20/50/20 25/48/25
f 27/51/27 19/45/19 28/52/28
f 19/45/19 27/51/27 18/44/18
f 22/53/22 28/52/28 19/45/19
f 29/204/29 12/205/12 30/206/30
f 12/205/12 29/204/29 5/207/5
f 31/225/31 5/226/5 29/227/29
f 5/226/5 31/225/31 17/228/17
f 18/208/18 30/206/30 12/205/12
f 29/204/29 30/206/30 32/209/32
f 32/209/32 14/210/14 29/204/29
f 29/227/29 14/229/14 31/225/31
f 31/211/31 14/210/14 32/209/32
f 33/163/33 27/164/27 34/165/34
f 27/164/27 33/163/33 26/166/26
f 35/175/35 26/174/26 33/173/33
f 26/174/26 35/175/35 28/176/28
f 28/168/28 34/165/34 27/164/27
f 35/167/35 34/165/34 28/168/28
f 36/169/36 34/165/34 37/170/37
f 34/165/34 36/169/36 33/163/33
f 38/178/38 33/173/33 36/177/36
f 33/173/33 38/178/38 35/175/35
f 37/170/37 35/167/35 38/171/38
f 35/167/35 37/170/37 34/165/34
f 37/170/37 39/172/39 36/169/36
f 36/177/36 39/179/39 38/178/38
f 38/171/38 39/172/39 37/170/37
f 40/180/40 19/181/19 41/182/41
f 19/181/19 40/180/40 22/183/22
f 42/192/42 22/191/22 40/190/40
f 22/191/22 42/192/42 23/193/23
f 41/182/41 23/185/23 42/184/42
f 23/185/23 41/182/41 19/181/19
f 43/186/43 41/182/41 44/187/44
f 41/182/41 43/186/43 40/180/40
f 45/195/45 40/190/40 43/194/43
f 40/190/40 45/195/45 42/192/42
f 44/187/44 42/184/42 45/188/45
f 42/184/42 44/187/44 41/182/41
f 44/187/44 46/189/46 43/186/43
f 43/194/43 46/196/46 45/195/45
f 45/188/45 46/189/46 44/187/44
f 47/99/47 21/100/21 48/101/48
f 21/100/21 47/99/47 24/102/24
f 49/199/49 24/198/24 47/197/47
f 24/198/24 49/199/49 25/200/25
f 48/101/48 25/104/25 49/103/49
f 25/104/25 48/101/48 21/100/21
f 50/105/50 48/101/48 51/106/51
f 48/101/48 50/105/50 47/99/47
f 52/202/52 47/197/47 50/201/50
f 47/197/47 52/202/52 49/199/49
f 51/106/51 49/103/49 52/107/52
f 49/103/49 51/106/51 48/101/48
f 51/106/51 53/108/53 50/105/50
f 50/201/50 53/203/53 52/202/52
f 52/107/52 53/108/53 51/106/51
f 3/42/3 54/54/54 16/43/16
f 20/50/20 16/43/16 54/54/54
f 16/43/16 20/50/20 21/46/21
f 55/7/55 6/8/6 8/9/8
f 6/8/6 55/7/55 54/10/54
f 20/34/20 56/35/56 7/30/7
f 56/12/56 54/10/54 55/7/55
f 54/10/54 56/12/56 20/11/20
f 57/14/57 8/9/8 9/15/9
f 8/9/8 57/14/57 55/7/55
f 10/31/10 56/29/56 58/32/58
f 56/36/56 10/37/10 7/30/7
f 58/16/58 55/7/55 57/14/57
f 55/7/55 58/16/58 56/12/56
f 9/15/9 11/17/11 57/14/57
f 58/32/58 11/33/11 10/31/10
f 57/14/57 11/17/11 58/16/58
f 19/45/19 24/47/24 23/55/23
f 22/86/22 23/87/23 4/84/4
f 24/88/24 4/84/4 23/89/23
f 7/90/7 4/84/4 24/91/24
f 22/92/22 4/84/4 28/93/28
f 28/94/28 4/84/4 26/95/26
f 4/84/4 59/96/59 26/97/26
f 31/211/31 32/209/32 30/206/30
f 31/1/31 18/3/18 17/2/17
f 31/211/31 30/206/30 18/208/18
f 27/51/27 17/59/17 18/44/18
f 59/255/59 5/254/5 17/256/17
f 5/85/5 59/98/59 4/84/4
f 26/57/26 59/58/59 27/51/27
f 60/230/60 61/231/61 17/232/17
f 17/232/17 27/233/27 60/230/60
f 61/231/61 62/234/62 59/235/59
f 59/235/59 17/232/17 61/231/61
f 62/257/62 60/258/60 27/259/27
f 27/259/27 59/260/59 62/257/62
f 63/236/63 64/237/64 61/231/61
f 61/231/61 60/230/60 63/236/63
f 64/237/64 65/238/65 62/234/62
f 62/234/62 61/231/61 64/237/64
f 65/261/65 63/262/63 60/258/60
f 60/258/60 62/257/62 65/261/65
f 66/239/66 67/240/67 64/237/64
f 64/237/64 63/236/63 66/239/66
f 67/240/67 68/241/68 65/238/65
f 65/238/65 64/237/64 67/240/67
f 68/263/68 66/264/66 63/262/63
f 63/262/63 65/261/65 68/263/68
f 67/265/67 66/264/66 68/263/68
f 13/61/13 54/54/54 3/42/3
f 6/8/6 54/25/54 13/18/13
f 1/38/1 70/62/70 2/39/2
f 1/38/1 12/41/12 70/62/70
f 2/39/2 71/63/71 3/42/3
f 2/39/2 70/62/70 71/63/71
f 12/41/12 73/64/73 70/62/70
f 73/64/73 74/65/74 70/62/70
f 74/65/74 76/66/76 71/63/71
f 74/65/74 71/63/71 70/62/70
f 79/67/79 76/66/76 74/65/74
f 80/68/80 79/67/79 7/78/7
f 7/79/7 75/69/75 80/68/80
f 76/66/76 80/68/80 75/69/75
f 82/70/82 83/71/83 74/65/74
f 74/65/74 73/64/73 82/70/82
f 77/72/77 74/65/74 83/71/83
f 84/212/84 85/213/85 12/214/12
f 12/214/12 5/215/5 84/212/84
f 86/220/86 84/221/84 5/222/5
f 5/222/5 72/223/72 86/220/86
f 73/216/73 12/214/12 85/213/85
f 84/212/84 87/217/87 85/213/85
f 87/217/87 84/212/84 69/218/69
f 84/221/84 86/220/86 69/224/69
f 86/219/86 87/217/87 69/218/69
f 88/146/88 89/147/89 82/148/82
f 82/148/82 81/149/81 88/146/88
f 90/158/90 88/156/88 81/157/81
f 81/157/81 83/159/83 90/158/90
f 83/151/83 82/148/82 89/147/89
f 90/150/90 83/151/83 89/147/89
f 91/152/91 92/153/92 89/147/89
f 89/147/89 88/146/88 91/152/91
f 93/161/93 91/160/91 88/156/88
f 88/156/88 90/158/90 93/161/93
f 92/153/92 93/154/93 90/150/90
f 90/150/90 89/147/89 92/153/92
f 92/153/92 91/152/91 94/155/94
f 91/160/91 93/161/93 94/162/94
f 93/154/93 92/153/92 94/155/94
f 95/133/95 96/134/96 74/135/74
f 74/135/74 77/136/77 95/133/95
f 97/128/97 95/126/95 77/127/77
f 77/127/77 78/129/78 97/128/97
f 96/134/96 97/137/97 78/138/78
f 78/138/78 74/135/74 96/134/96
f 98/139/98 99/140/99 96/134/96
f 96/134/96 95/133/95 98/139/98
f 100/131/100 98/130/98 95/126/95
f 95/126/95 97/128/97 100/131/100
f 99/140/99 100/141/100 97/137/97
f 97/137/97 96/134/96 99/140/99
f 99/143/99 98/142/98 101/145/101
f 98/130/98 100/131/100 101/132/101
f 100/144/100 99/143/99 101/145/101
f 102/109/102 103/110/103 76/111/76
f 76/111/76 79/112/79 102/109/102
f 104/121/104 102/119/102 79/120/79
f 79/120/79 80/122/80 104/121/104
f 103/110/103 104/113/104 80/114/80
f 80/114/80 76/111/76 103/110/103
f 105/115/105 106/116/106 103/110/103
f 103/110/103 102/109/102 105/115/105
f 107/124/107 105/123/105 102/119/102
f 102/119/102 104/121/104 107/124/107
f 106/116/106 107/117/107 104/113/104
f 104/113/104 103/110/103 106/116/106
f 106/116/106 105/115/105 108/118/108
f 105/123/105 107/124/107 108/125/108
f 107/117/107 106/116/106 108/118/108
f 3/42/3 71/63/71 109/73/109
f 75/69/75 109/73/109 71/63/71
f 71/63/71 76/66/76 75/69/75
f 110/19/110 8/9/8 6/8/6
f 6/8/6 109/20/109 110/19/110
f 75/21/75 7/13/7 111/22/111
f 111/22/111 110/19/110 109/20/109
f 109/20/109 75/21/75 111/22/111
f 112/23/112 9/15/9 8/9/8
f 8/9/8 110/19/110 112/23/112
f 10/26/10 113/24/113 111/22/111
f 111/22/111 7/13/7 10/27/10
f 113/24/113 112/23/112 110/19/110
f 110/19/110 111/22/111 113/24/113
f 9/15/9 112/23/112 11/17/11
f 113/24/113 10/28/10 11/17/11
f 112/23/112 113/24/113 11/17/11
f 74/65/74 78/74/78 79/67/79
f 77/72/77 4/56/4 78/74/78
f 79/67/79 78/74/78 4/56/4
f 7/80/7 79/67/79 4/56/4
f 77/72/77 83/71/83 4/56/4
f 83/71/83 81/75/81 4/56/4
f 4/56/4 81/75/81 114/76/114
f 86/219/86 85/213/85 87/217/87
f 86/4/86 72/5/72 73/6/73
f 86/219/86 73/216/73 85/213/85
f 82/70/82 73/64/73 72/77/72
f 114/76/114 72/77/72 5/60/5
f 5/60/5 4/56/4 114/76/114
f 81/75/81 82/70/82 114/76/114
f 115/242/115 72/243/72 116/244/116
f 72/243/72 115/242/115 82/245/82
f 116/244/116 114/246/114 117/247/117
f 114/246/114 116/244/116 72/243/72
f 117/266/117 82/267/82 115/268/115
f 82/267/82 117/266/117 114/269/114
f 118/248/118 116/244/116 119/249/119
f 116/244/116 118/248/118 115/242/115
f 119/249/119 117/247/117 120/250/120
f 117/247/117 119/249/119 116/244/116
f 120/270/120 115/268/115 118/271/118
f 115/268/115 120/270/120 117/266/117
f 121/251/121 119/249/119 122/252/122
f 119/249/119 121/251/121 118/248/118
f 122/252/122 120/250/120 123/253/123
f 120/250/120 122/252/122 119/249/119
f 123/272/123 118/271/118 121/273/121
f 118/271/118 123/272/123 120/270/120
f 122/274/122 123/272/123 121/273/121
f 13/61/13 3/42/3 109/73/109
f 6/8/6 13/18/13 109/20/109
# 242 faces

g
